<svg xmlns="http://www.w3.org/2000/svg" version="1.1" id="Layer_1" x="0px" y="0px" width="70" height="70" viewBox="0 0 70 70" xml:space="preserve" style="enable-background:new 0 0 70 70;"><style type="text/css">
	.st0{fill:#0E0000;}
	.st1{fill:#FFFFFF;}
</style><g><rect x="0.1" y="0.1" width="69.9" height="69.9" class="st0"/><g><path d="M48.5,28.7c-0.1,0-1.6-1-4-1.2C42.1,27.2,40,28.3,39,29c-1.6,0.7-2.8,0.9-3.8,0.9c-0.3,0-1,0-1.8-0.2    c1-1.3,1.5-3,1.9-4.4c1.5-0.2,3.7-0.7,5-1.7c1.2-0.9,2.2-2.3,2.3-3.5c0-0.5-0.1-0.9-0.4-1.2c-0.5-0.5-1.4-0.6-2.5-0.4    c-2.2,0.4-4.5,2.4-5.3,5c-0.2,0.7-0.4,1.4-0.5,1.7c-3.4,0.3-6.2-0.1-7.7-0.8c-0.6-0.3-1-0.6-1-0.8c0,0,0-0.1-0.1-0.1    c0,0-0.1,0-0.1,0.1c0,0.2,0.2,0.5,0.8,0.8c1.5,0.8,4.5,1.3,8,1.1C33.4,27,33,28.1,32,29.3c-0.3-0.1-0.8-0.3-1.1-0.4    c-1.4-0.5-2.8-1.1-4.6-1.1c-2.1,0-4.6,0.6-4.6,2.2c0,1.6,2.4,2.6,4.8,2.8c3,0.3,5.3-1,6.7-2.9c0.7,0.2,1.3,0.2,2,0.2    c0.8,0,1.8-0.2,3.2-0.7c-1.4,1.3-2.4,3.3-3.1,5.5c-0.4,0-1.5,0.2-2.3,0.4c-2,0.5-3,1.2-3.8,1.9c-0.3,0.3-0.8,0.8-1.2,1.7    c-0.2,0.4-0.2,0.7-0.2,1c0,0.5,0.1,1,0.5,1.4C29,42,30,42.1,31,42c0.8-0.1,3.9-0.8,5.3-4.9c0,0,0.6-1.9,0.7-2c0.6,0,2-0.3,2.6-0.5    c0.4-0.1,1.2-0.3,1.9-0.6c-0.9,0.9-0.7,2-0.7,2c0,0.1,0,0.1,0.1,0.1c0.1,0,0-0.2,0-0.4c0-0.3,0.1-0.7,0.5-1.1    c0.6-0.6,1.8-0.7,2.1-0.7c0.4,0,0.6-0.3,0.6-0.6c0-0.3-0.3-0.6-0.6-0.6c-0.1,0-0.3,0.1-0.4,0.1l0,0c0,0-0.3,0.3-1.1,0.6    c-0.1,0.1-0.3,0.1-0.4,0.2c-0.6,0.2-0.6,0.2-1.5,0.5c-0.4,0.1-2.2,0.6-3.2,0.7c0.4-1.4,1-3.8,2.9-5.3c1.3-1.1,3-1.5,4.6-1.5    c0.5,0,2.3-0.1,4.1,0.8c0.1,0.1,0.2,0.1,0.2,0C48.7,28.8,48.6,28.7,48.5,28.7 M36.6,21.8c0.8-1.3,1.9-2.2,2.8-2.6    c0.9-0.4,1.7-0.6,2.3-0.1c0.9,0.9-0.5,3.1-1.9,4c-1.5,1-3.5,1.5-4.3,1.7C35.8,23.7,36.1,22.7,36.6,21.8 M26.9,32.3    c-2.2,0-3.8-1.1-3.8-2c0-1.6,1.5-2.1,3.2-2.1c1.8,0,3.1,0.5,4.5,1c0.2,0.1,0.7,0.3,1,0.4C30.6,31,29.4,32.3,26.9,32.3 M34.8,36.7    c-0.9,2.6-2.2,3.7-3.6,4.3c-0.9,0.4-1.8,0.7-2.7,0c-0.5-0.4-0.6-1.4-0.1-2.3c0.7-1.1,1.7-2,2.9-2.5c0.8-0.3,1.7-0.7,3.8-0.9    C35.2,35.3,34.8,36.7,34.8,36.7z" class="st1"/><path d="M18.3,49.3h-0.5c0-0.1,0-0.2-0.1-0.3c-0.1-0.1-0.2-0.1-0.4-0.1c-0.1,0-0.3,0-0.4,0.1    c-0.1,0.1-0.1,0.2-0.1,0.3c0,0.2,0.1,0.3,0.3,0.4l0.4,0.2c0.3,0.1,0.5,0.3,0.6,0.4c0.1,0.2,0.2,0.3,0.2,0.5c0,0.3-0.1,0.5-0.3,0.6    c-0.2,0.2-0.4,0.3-0.7,0.3c-0.3,0-0.5-0.1-0.7-0.2c-0.2-0.2-0.3-0.3-0.3-0.6c0,0,0,0,0-0.1h0.5c0,0.1,0.1,0.3,0.2,0.3    c0.1,0.1,0.2,0.1,0.4,0.1c0.1,0,0.3,0,0.4-0.1c0.1-0.1,0.2-0.2,0.2-0.3c0-0.1-0.1-0.2-0.2-0.3c-0.1-0.1-0.3-0.2-0.6-0.3    c-0.3-0.1-0.5-0.2-0.6-0.4c-0.1-0.1-0.2-0.3-0.2-0.5c0-0.3,0.1-0.5,0.3-0.6c0.2-0.2,0.4-0.2,0.7-0.2c0.2,0,0.5,0.1,0.6,0.2    C18.2,48.8,18.3,49,18.3,49.3L18.3,49.3z" class="st1"/><polygon points="22,48.9 22,51.7 21.5,51.7 21.5,48.9 20.7,48.9 20.7,48.5 22.9,48.5 22.9,48.9   " class="st1"/><path d="M26.8,50.8h-0.9l-0.2,0.9h-0.5l0.9-3.2h0.7l0.8,3.2H27L26.8,50.8 M26.7,50.3l-0.3-1.4L26,50.3H26.7z" class="st1"/><path d="M30.3,50.4v1.3h-0.5v-3.2h1c0.3,0,0.5,0.1,0.7,0.3c0.2,0.2,0.3,0.4,0.3,0.7c0,0.2-0.1,0.4-0.2,0.5    c-0.1,0.1-0.3,0.2-0.5,0.3l0.8,1.4h-0.5l-0.7-1.3H30.3 M30.3,49.9h0.4c0.4,0,0.6-0.2,0.6-0.5c0-0.3-0.2-0.5-0.6-0.5h-0.4V49.9z" class="st1"/><polygon points="34.8,48.9 34.8,49.8 35.7,49.8 35.7,50.2 34.8,50.2 34.8,51.7 34.3,51.7 34.3,48.5 36,48.5 36,48.9       " class="st1"/><polygon points="38.8,51.3 40.4,51.3 40.4,51.7 38.3,51.7 38.3,48.5 38.8,48.5   " class="st1"/><polygon points="43.9,49.7 44.5,48.5 45,48.5 44.1,50.2 44.1,51.7 43.6,51.7 43.6,50.2 42.7,48.5 43.2,48.5   " class="st1"/><polygon points="47.8,48.9 47.8,49.8 49.1,49.8 49.1,50.2 47.8,50.2 47.8,51.3 49.3,51.3 49.3,51.7 47.3,51.7     47.3,48.5 49.2,48.5 49.2,48.9   " class="st1"/><path d="M52.1,50.4v1.3h-0.5v-3.2h1c0.3,0,0.5,0.1,0.7,0.3c0.2,0.2,0.3,0.4,0.3,0.7c0,0.2-0.1,0.4-0.2,0.5    c-0.1,0.1-0.3,0.2-0.5,0.3l0.8,1.4h-0.5l-0.7-1.3H52.1 M52.1,49.9h0.4c0.4,0,0.6-0.2,0.6-0.5c0-0.3-0.2-0.5-0.6-0.5h-0.4V49.9z" class="st1"/></g></g></svg>