<svg xmlns="http://www.w3.org/2000/svg" version="1.1" id="Layer_1" x="0px" y="0px" width="70px" height="70px" viewBox="0 0 70 70" enable-background="new 0 0 70 70" xml:space="preserve"><metadata/><rect width="70" fill="none" height="70"/><path fill="#E22E2B" d="M5.6,40.9c13.4,2.1,19-3.2,27.3-10c8.4-6.8,14.6-11.2,30.1-6.4c-12.9-2.9-21.4,3.9-27.4,9.1   C31,37.5,21,45.6,5.6,40.9z"/><path fill="#0298CA" d="M11.1,42.7c13.4,2.1,19-3.2,27.3-10C46.8,25.9,53,21.5,68.5,26.3c-12.9-2.9-21.4,3.9-27.4,9.1   C36.5,39.3,26.5,47.4,11.1,42.7z"/><path fill="#FBCB18" d="M1.2,39.4C12.9,41.4,20,35.6,28.4,29c7.9-6.4,12.9-10.5,28.2-6.4C43.7,20.4,37,26.4,30.9,31.5   C26.3,35.4,16.2,44,1.2,39.4z"/></svg>