<svg xmlns="http://www.w3.org/2000/svg" version="1.1" id="Layer_1" x="0px" y="0px" width="70px" height="70px" viewBox="0 0 70 70" enable-background="new 0 0 70 70" xml:space="preserve"><metadata/><rect width="70" fill="none" height="70"/><path fill="#273A81" d="M39.1,8C22.7,8,9.5,21.3,9.5,37.6C9.5,53.9,22.8,67.2,39.1,67.2C55.5,67.2,68.7,53.9,68.7,37.6   C68.7,21.3,55.5,8,39.1,8z M39.1,65.7c-15.5,0-28-12.5-28-28s12.5-28,28-28c15.5,0,28,12.5,28,28S54.6,65.7,39.1,65.7z"/><polygon points="1.1,41.9 58.5,41.9 26.1,3.5 12,3.5 26.9,39.2 " fill="#EA262A"/></svg>