<svg xmlns="http://www.w3.org/2000/svg" version="1.1" id="Layer_1" x="0px" y="0px" width="70px" height="70px" viewBox="0 0 70 70" enable-background="new 0 0 70 70" xml:space="preserve"><g><polygon points="2.314,45.664 1.394,44.778 13.237,32.485 17.563,33.317 27.138,21.406 28.955,25.299 30.82,25.189    33.501,29.915 34.714,29.609 38.799,34.337 43.407,30.201 49.384,36.486 48.459,37.366 43.336,31.98 38.683,36.157 34.263,31.04    32.87,31.393 30.102,26.511 28.164,26.624 26.848,23.805 18.076,34.717 13.675,33.87  " fill="#9E7827"/></g><g><g><path d="M43.301,42.474h-0.456c0.069-1.046-0.434-1.978-1.557-1.978c-1.789,0-2.792,2.321-3.067,3.73    c-0.444,2.284,0.09,3.749,2.164,3.749c0.705,0,1.59-0.342,2.154-0.894l0.272,0.266l-0.678,1.143    c-0.625,0.476-2.025,0.722-2.711,0.722c-2.95,0-4.668-1.636-4.087-4.625c0.589-3.026,2.98-4.948,5.969-4.948    c1.084,0,2.326,0.267,3.107,0.857L43.301,42.474z"/></g><g><path d="M45.934,39.81c0.43,0.038,0.857,0.095,1.295,0.095c0.438,0,0.888-0.058,1.332-0.095l-0.278,1.427    c0.73-0.913,2.005-1.598,3.109-1.598c1.199,0,2.017,0.59,2.194,1.732c0.861-1.009,1.973-1.732,3.23-1.732    c2.208,0,2.717,1.294,2.321,3.33l-1.181,6.072c-0.43-0.038-0.858-0.095-1.295-0.095c-0.438,0-0.886,0.057-1.331,0.095l1.002-5.158    c0.249-1.275,0.4-2.646-0.874-2.646c-1.352,0-1.747,0.857-1.976,2.037l-1.123,5.767c-0.43-0.038-0.856-0.095-1.295-0.095    c-0.437,0-0.886,0.057-1.331,0.095l1.004-5.158c0.247-1.275,0.4-2.646-0.875-2.646c-1.314,0-1.814,1.2-2.017,2.246l-1.08,5.558    c-0.43-0.038-0.857-0.095-1.294-0.095c-0.438,0-0.888,0.057-1.333,0.095L45.934,39.81z"/></g><g><path d="M67.553,47.365c-0.138,0.704,0.027,0.932,0.796,0.895l-0.085,0.438c-0.498,0.209-1.281,0.513-1.814,0.513    c-0.895,0-1.472-0.551-1.614-1.388c-0.665,0.875-1.716,1.388-2.707,1.388c-1.56,0-2.554-0.856-2.232-2.512    c0.352-1.809,1.559-2.341,4.049-2.912c0.498-0.115,1.016-0.228,1.486-0.495c0.269-0.21,0.376-0.457,0.43-0.742    c0.177-0.914-0.606-1.675-1.482-1.675c-1.219,0-2.371,0.838-2.552,1.18h-0.133l-0.026-1.141c1.057-0.838,2.57-1.275,3.769-1.275    c1.599,0,3.49,0.647,3.12,2.55L67.553,47.365z M65.57,44.053c-0.516,0.21-1.407,0.381-2.043,0.819    c-0.573,0.399-0.799,0.97-0.916,1.579c-0.138,0.704-0.068,1.522,0.75,1.522c1.162,0,1.627-1.122,1.85-2.074L65.57,44.053z"/></g></g></svg>