<svg xmlns="http://www.w3.org/2000/svg" version="1.1" id="Layer_1" x="0px" y="0px" width="70px" height="70px" viewBox="0 0 70 70" enable-background="new 0 0 70 70" xml:space="preserve"><path fill="#003969" d="M68.642,42.405c-0.374,0.385-0.867,0.449-1.363,0.525  c-1.156,0.181-2.307,0.388-3.47,0.529c-1.374,0.169-2.753,0.176-4.133,0.105c-1.876-0.095-3.741-0.293-5.608-0.5  c-1.699-0.189-3.401-0.374-5.101-0.567c-1.659-0.188-3.316-0.396-4.974-0.582c-1.924-0.214-3.845-0.448-5.773-0.616  c-2.104-0.185-4.208-0.329-6.317-0.412c-1.844-0.071-3.69-0.107-5.534-0.063c-2.317,0.056-4.631,0.187-6.932,0.484  c-2.555,0.329-5.077,0.804-7.506,1.696c-0.637,0.236-1.234,0.57-1.883,0.774c-0.455,0.143-0.917,0.23-1.396,0.22  c-0.522-0.01-0.877-0.25-1.07-0.74c-0.194-0.497-0.169-1.014-0.111-1.525c0.142-1.252,0.645-2.397,1.092-3.554  c0.71-1.84,1.494-3.65,2.307-5.447c0.156-0.346,0.07-0.363-0.236-0.374c-1.629-0.056-3.232,0.122-4.823,0.452  c-0.24,0.05-0.417,0.176-0.515,0.391C4.433,35.084,3.5,36.938,2.849,38.91c-0.103,0.313-0.161,0.643-0.243,0.962  c-0.118,0.458-0.872,0.807-1.303,0.615c-0.173-0.078-0.203-0.25-0.3-0.378c0-0.398,0-0.798,0-1.197  c0.104-0.174,0.083-0.379,0.123-0.566c0.271-1.256,0.795-2.42,1.309-3.586c0.207-0.471,0.445-0.926,0.689-1.378  c0.17-0.315,0.092-0.501-0.227-0.614c-0.183-0.066-0.303-0.2-0.388-0.367c-0.15-0.293-0.183-0.609-0.188-0.946  c0.126,0.239,0.355,0.262,0.565,0.252c0.673-0.028,1.31-0.148,1.644-0.847c0.028-0.059,0.073-0.109,0.108-0.166  c0.866-1.378,1.589-2.832,2.289-4.298c0.534-1.122,1.068-2.243,1.478-3.419c0.041-0.115,0.115-0.237,0.067-0.357  c-0.083-0.211,0.002-0.37,0.117-0.529c0.05,0,0.1,0,0.15,0c0.143,0.24,0.286,0.482,0.43,0.723c0.353,0.592,0.403,1.204,0.196,1.865  c-0.443,1.42-1.033,2.78-1.647,4.131c-0.271,0.596-0.552,1.188-0.877,1.758c-0.048,0.084-0.076,0.166-0.028,0.258  c0.053,0.1,0.145,0.065,0.223,0.054c1.514-0.222,3.046-0.256,4.562-0.454c0.21-0.027,0.372-0.082,0.486-0.31  c0.992-1.976,2.063-3.905,3.4-5.674c0.452-0.597,0.934-1.169,1.516-1.648c0.284-0.233,0.584-0.438,0.938-0.555  c0.881-0.29,1.514,0.432,1.534,1.091c0.005,0.191,0.01,0.381-0.082,0.561c-0.06,0.115-0.163,0.191-0.27,0.191  c-0.142,0.002-0.086-0.15-0.11-0.236c-0.041-0.144-0.052-0.296-0.096-0.438c-0.091-0.287-0.259-0.357-0.54-0.232  c-0.336,0.15-0.577,0.423-0.797,0.703c-1.13,1.443-2.094,2.99-2.796,4.689c-0.155,0.374-0.298,0.755-0.437,1.137  c-0.04,0.109-0.156,0.226-0.061,0.346c0.097,0.124,0.241,0.065,0.372,0.047c0.488-0.067,0.975-0.111,1.464-0.02  c0.274,0.053,0.524,0.15,0.725,0.353c0.071,0.071,0.111,0.15,0.074,0.247c-0.035,0.088-0.117,0.109-0.205,0.111  c-0.495,0.01-0.891,0.234-1.243,0.559c-0.127,0.119-0.261,0.232-0.384,0.356c-0.321,0.32-0.689,0.541-1.155,0.572  c-0.511,0.034-0.837,0.32-1.091,0.753c-0.702,1.199-1.254,2.467-1.769,3.752c-0.548,1.369-1.06,2.754-1.407,4.189  c-0.082,0.337-0.162,0.68-0.081,1.033c0.083,0.358,0.228,0.482,0.588,0.454c0.415-0.033,0.817-0.136,1.209-0.276  c2.076-0.751,4.192-1.36,6.359-1.788c1.54-0.305,3.094-0.52,4.654-0.683c2.365-0.252,4.736-0.374,7.114-0.416  c2.196-0.037,4.387,0.033,6.578,0.156c1.627,0.091,3.248,0.236,4.866,0.418c1.336,0.151,2.671,0.321,4.008,0.477  c1.377,0.159,2.755,0.313,4.134,0.469c1.287,0.145,2.574,0.29,3.863,0.427c1.198,0.13,2.396,0.253,3.595,0.369  c1.389,0.132,2.777,0.267,4.169,0.381c1.274,0.104,2.551,0.184,3.829,0.239c1.107,0.05,2.209-0.003,3.312-0.067  c0.262-0.016,0.533-0.044,0.779,0.096C68.642,42.307,68.642,42.356,68.642,42.405z" clip-rule="evenodd" fill-rule="evenodd"/><path fill="#003969" d="M37.455,32.633c0.723-0.479,1.548-0.703,2.365-0.951  c0.674-0.205,1.339-0.441,1.984-0.719c0.636-0.272,1.161-0.683,1.382-1.379c0.043-0.131,0.1-0.102,0.18-0.048  c0.173,0.116,0.281,0.284,0.349,0.474c0.114,0.312,0.169,0.641,0.216,0.97c0.073,0.531-0.154,0.917-0.575,1.21  c-0.62,0.432-1.336,0.614-2.057,0.781c-0.86,0.198-1.74,0.258-2.608,0.393c-0.097,0.016-0.195,0.043-0.288,0.08  c-0.438,0.172-0.553,0.463-0.345,0.887c0.239,0.487,0.508,0.955,0.91,1.328c0.675,0.625,1.509,0.721,2.372,0.688  c0.313-0.012,0.627-0.045,0.937-0.116c0.526-0.12,0.89-0.419,1.121-0.901c1.04-2.175,2.697-3.779,4.693-5.071  c0.049-0.032,0.1-0.061,0.149-0.089c1.12-0.645,2.138-0.416,2.908,0.635c0.199,0.274,0.3,0.568,0.307,0.902  c0.012,0.7-0.303,1.062-0.992,1.135c-0.023,0.081,0.054,0.093,0.093,0.126c0.396,0.345,0.521,0.841,0.327,1.331  c-0.206,0.518-0.513,0.984-0.774,1.475c-0.148,0.277-0.302,0.553-0.403,0.853c-0.036,0.11-0.062,0.227-0.07,0.341  c-0.005,0.088,0.023,0.186,0.115,0.232c0.096,0.047,0.158-0.027,0.219-0.08c0.547-0.475,1.039-1.004,1.532-1.533  c0.107-0.116,0.209-0.238,0.32-0.351c0.449-0.462,0.791-0.987,1.062-1.577c0.313-0.686,0.698-1.338,1.047-2.007  c0.071-0.138,0.202-0.286-0.074-0.388c-0.111-0.042-0.053-0.18,0.051-0.226c0.062-0.026,0.151-0.026,0.22-0.007  c0.925,0.277,1.729,0.993,1.15,2.172c-0.269,0.545-0.627,1.038-0.942,1.553c-0.37,0.603-0.739,1.202-1.006,1.859  c-0.089,0.223-0.158,0.453-0.178,0.695c-0.018,0.219,0.094,0.298,0.29,0.312c0.256,0.015,0.471-0.093,0.678-0.22  c0.56-0.34,1.014-0.804,1.451-1.283c0.827-0.903,1.554-1.885,2.26-2.883c0.073-0.104,0.069-0.178,0.013-0.287  c-0.389-0.751-0.271-1.377,0.363-1.938c0.218-0.192,0.452-0.366,0.691-0.531c0.196-0.135,0.402-0.139,0.589,0.04  c0.078,0.075,0.171,0.136,0.25,0.208c0.101,0.092,0.292,0.076,0.317,0.248c0.035,0.223,0.032,0.447-0.061,0.66  c-0.104,0.242-0.286,0.426-0.468,0.609c-0.055,0.057-0.197,0.1-0.116,0.205c0.063,0.084,0.171,0.014,0.252-0.024  c0.238-0.114,0.477-0.23,0.713-0.351c0.647-0.327,1.53-0.145,1.945,0.446c0.24,0.341,0.235,0.756,0.158,1.157  c-0.128,0.677-0.438,1.283-0.758,1.885c-0.098,0.184-0.203,0.361-0.295,0.548c-0.053,0.108-0.118,0.216-0.097,0.358  c0.171-0.022,0.27-0.142,0.382-0.232c0.701-0.576,1.345-1.215,2.02-1.82c0.023-0.021,0.045-0.049,0.071-0.068  c0.097-0.074,0.206-0.201,0.319-0.074c0.099,0.109,0.054,0.258-0.053,0.357c-0.923,0.866-1.708,1.859-2.561,2.791  c-0.266,0.289-0.565,0.537-0.929,0.701c-0.325,0.146-0.617,0.119-0.906-0.107c-0.906-0.718-1.051-1.359-0.514-2.413  c0.262-0.513,0.614-0.968,0.944-1.437c0.277-0.394,0.566-0.78,0.786-1.209c0.058-0.113,0.158-0.238,0.065-0.37  c-0.094-0.134-0.246-0.081-0.372-0.062c-0.342,0.052-0.641,0.217-0.935,0.388c-0.288,0.169-0.573,0.339-0.901,0.417  c-0.122,0.027-0.165,0.128-0.223,0.217c-0.839,1.312-1.726,2.586-2.842,3.684c-0.476,0.468-0.982,0.896-1.613,1.146  c-0.763,0.302-1.317,0.105-1.729-0.607c-0.243-0.42-0.331-0.881-0.354-1.359c-0.001-0.045,0.024-0.096-0.031-0.146  c-0.357,0.4-0.713,0.803-1.076,1.197c-0.151,0.164-0.312,0.322-0.486,0.463c-0.351,0.283-0.743,0.273-1.093-0.01  c-0.731-0.594-1.01-1.507-0.74-2.418c0.12-0.4,0.303-0.771,0.481-1.145c0.029-0.06,0.062-0.117,0.087-0.18  c0.024-0.06,0.061-0.13-0.008-0.182c-0.067-0.049-0.126-0.002-0.175,0.047c-0.106,0.105-0.212,0.211-0.312,0.321  c-0.742,0.821-1.395,1.717-2.118,2.554c-0.284,0.326-0.589,0.631-0.888,0.945c-0.277,0.289-0.608,0.358-0.98,0.285  c-0.876-0.172-1.36-0.761-1.435-1.756c-0.175,0.166-0.32,0.334-0.493,0.466c-0.396,0.302-0.817,0.569-1.263,0.795  c-0.785,0.401-1.591,0.333-2.396,0.086c-0.362-0.11-0.641-0.354-0.859-0.653c-0.649-0.895-1.223-1.832-1.484-2.999  c-0.168,0.392-0.313,0.722-0.446,1.058c-0.333,0.838-0.677,1.676-0.847,2.566c-0.041,0.211-0.095,0.438,0.173,0.561  c0.053,0.025,0.056,0.081,0.038,0.131c-0.024,0.061-0.078,0.096-0.137,0.09c-0.064-0.008-0.127-0.035-0.188-0.061  c-1.048-0.436-1.492-1.328-1.236-2.496c0.246-1.113,0.758-2.118,1.306-3.105c1.067-1.928,2.339-3.725,3.571-5.547  c0.504-0.742,1.029-1.471,1.432-2.274c0.095-0.19,0.228-0.382-0.017-0.599c-0.11-0.098,0.002-0.228,0.149-0.262  c0.392-0.089,0.959,0.358,0.976,0.768c0.018,0.463-0.145,0.883-0.323,1.293c-0.533,1.23-1.261,2.354-1.967,3.488  c-0.521,0.838-1.047,1.674-1.568,2.514c-0.078,0.126-0.141,0.262-0.211,0.395c-0.004,0.021-0.019,0.053-0.012,0.059  C37.431,32.678,37.445,32.656,37.455,32.633z M50.487,31.814c-0.002-0.422-0.263-0.643-0.673-0.582  c-0.332,0.051-0.639,0.173-0.928,0.34c-1.237,0.71-2.242,1.672-3.062,2.834c-0.168,0.235-0.308,0.49-0.423,0.758  c-0.103,0.24-0.05,0.43,0.153,0.593c0.265,0.216,0.55,0.208,0.864-0.079c0.397-0.365,0.775-0.749,1.158-1.129  c0.505-0.504,0.995-1.025,1.559-1.469c0.216-0.169,0.442-0.324,0.738-0.309c0.051,0.002,0.102,0,0.116-0.064  c0.031-0.149,0.161-0.227,0.249-0.334C50.376,32.203,50.498,32.026,50.487,31.814z" clip-rule="evenodd" fill-rule="evenodd"/><path fill="#003969" d="M22.95,36.113c-0.506,0.566-0.989,1.104-1.522,1.591  c-0.056,0.05-0.109,0.103-0.166,0.151c-0.468,0.417-0.9,0.398-1.279-0.102c-0.512-0.674-0.67-1.43-0.429-2.256  c0.126-0.432,0.333-0.828,0.525-1.232c0.04-0.084,0.136-0.19,0.024-0.264c-0.107-0.07-0.18,0.049-0.244,0.118  c-0.711,0.771-1.336,1.612-2.013,2.411c-0.386,0.457-0.792,0.895-1.213,1.32c-0.282,0.286-0.604,0.361-0.978,0.303  c-0.894-0.143-1.494-0.949-1.45-1.858c0.032-0.677,0.319-1.25,0.642-1.809c0.923-1.59,2.229-2.82,3.711-3.878  c0.304-0.218,0.626-0.406,0.952-0.589c0.631-0.354,1.251-0.306,1.84,0.065c0.542,0.344,1,0.77,1.085,1.469  c0.091,0.756-0.216,1.178-0.961,1.299c-0.026,0.024-0.009,0.048,0.007,0.063c0.541,0.505,0.633,0.938,0.301,1.599  c-0.287,0.571-0.604,1.126-0.902,1.691c-0.108,0.205-0.198,0.42-0.246,0.649c-0.027,0.129-0.017,0.261,0.1,0.336  c0.119,0.078,0.203-0.04,0.276-0.106c0.7-0.641,1.351-1.329,1.975-2.043c0.032-0.037,0.063-0.08,0.078-0.127  c0.384-1.229,1.109-2.275,1.802-3.338c0.075-0.115,0.173-0.218,0.142-0.381c-0.023-0.113,0.076-0.141,0.163-0.129  c0.608,0.078,1.138,0.312,1.5,0.828c0.156,0.221,0.112,0.449-0.062,0.662c-0.672,0.824-1.327,1.663-1.857,2.588  c-0.208,0.361-0.388,0.732-0.469,1.146c-0.02,0.103-0.062,0.228,0.043,0.302c0.106,0.078,0.207-0.007,0.293-0.066  c0.459-0.312,0.818-0.729,1.177-1.143c1.144-1.32,2.18-2.726,3.199-4.141c0.287-0.398,0.553-0.435,0.931-0.112  c0.17,0.146,0.334,0.3,0.484,0.466c0.396,0.438,0.441,0.807,0.14,1.311c-0.321,0.534-0.671,1.051-0.997,1.579  c-0.326,0.532-0.623,1.076-0.761,1.694c-0.042,0.19-0.056,0.373,0.09,0.512c0.16,0.152,0.349,0.072,0.516,0.001  c0.519-0.224,0.945-0.584,1.34-0.978c1.462-1.46,2.532-3.15,3.035-5.172c0.1-0.396,0.142-0.801,0.181-1.206  c0.007-0.091,0.007-0.204,0.093-0.243c0.099-0.046,0.156,0.066,0.219,0.125c0.431,0.4,0.655,0.865,0.587,1.484  c-0.289,2.635-1.49,4.75-3.578,6.365c-0.395,0.307-0.854,0.492-1.352,0.603c-1.031,0.228-2.238-0.61-2.459-1.728  c-0.067-0.337-0.069-0.674-0.018-1.016c0.025-0.17,0.03-0.344,0.045-0.535c-0.11,0.03-0.128,0.119-0.168,0.181  c-0.5,0.776-1.011,1.544-1.644,2.22c-0.267,0.285-0.555,0.551-0.916,0.719c-0.282,0.131-0.548,0.132-0.825-0.047  C23.44,37.148,23.073,36.745,22.95,36.113z M21.487,31.875c-0.001-0.457-0.261-0.686-0.649-0.638  c-0.368,0.046-0.702,0.192-1.02,0.375c-1.028,0.592-1.883,1.384-2.628,2.298c-0.337,0.41-0.642,0.844-0.822,1.354  c-0.062,0.174-0.014,0.3,0.104,0.426c0.282,0.302,0.559,0.315,0.958-0.024c0.411-0.347,0.779-0.746,1.16-1.128  c0.5-0.498,0.983-1.015,1.54-1.453c0.217-0.17,0.447-0.318,0.74-0.312c0.045,0,0.109,0.02,0.118-0.054  c0.02-0.157,0.158-0.228,0.244-0.337C21.367,32.21,21.493,32.035,21.487,31.875z" clip-rule="evenodd" fill-rule="evenodd"/><path fill="#003969" d="M57.204,28.775c-0.062,0.486-0.219,0.986-0.693,1.316  c-0.52,0.361-1.235,0.014-1.273-0.621c-0.012-0.207,0.109-0.355,0.299-0.447c0.248-0.12,0.521-0.158,0.782-0.236  c0.206-0.062,0.406-0.137,0.596-0.242c0.068-0.039,0.131-0.143,0.212-0.097C57.218,28.5,57.208,28.619,57.204,28.775z" clip-rule="evenodd" fill-rule="evenodd"/><path fill="#FEFEFE" d="M37.455,32.633c-0.01,0.023-0.024,0.045-0.049,0.025  c-0.007-0.006,0.008-0.038,0.012-0.059C37.431,32.609,37.442,32.621,37.455,32.633z" clip-rule="evenodd" fill-rule="evenodd"/></svg>