<svg xmlns="http://www.w3.org/2000/svg" version="1.1" id="Layer_1" x="0px" y="0px" width="70px" height="70px" viewBox="0 0 70 70" enable-background="new 0 0 70 70" xml:space="preserve"><metadata/><g><rect x="0.2" y="-0.1" width="69.8" fill="#FFFFFF" height="69.9"/><rect x="26" y="27.4" width="14" fill="none" height="14"/><path fill="#EB2227" d="M47.6,7.6c0.101,0,0.101,0,0.2,0c0,0.1,0,0.3,0,0.4c-0.1,0-0.3,0-0.399,0c0-0.1,0-0.1,0-0.2    c0.1,0,0.1,0,0.199,0C47.7,7.8,47.6,7.6,47.6,7.6z"/><path fill="#EB2227" d="M45.9,8c0,0.1,0,0.3,0,0.4c-0.2,0-0.5,0.1-0.7,0c0,0.1,0,0.2,0,0.2c-0.101,0-0.101,0-0.2,0    c0-0.1,0-0.1,0-0.2h-0.2c0-0.1,0-0.1,0-0.2c0.2,0,0.3,0,0.5,0V8C45.5,8,45.7,8,45.9,8z"/><path fill="#EB2227" d="M46.4,8c0,0.1,0,0.3,0,0.4c-0.101,0-0.101,0-0.2,0C46.2,8.3,46.1,7.9,46.4,8z"/><path fill="#EB2227" d="M43.9,10.4c0.1,0,0.3,0,0.399,0c0,0.1,0,0.1,0,0.2c-0.1,0-0.3,0-0.399,0C43.9,10.5,43.9,10.5,43.9,10.4z"/><path fill="#EB2227" d="M43.6,10.9c0.101,0,0.101,0,0.2,0c0,0.1,0,0.3,0,0.4c-0.1,0-0.3,0-0.399,0c0-0.1,0-0.1,0-0.2    c0.1,0,0.199,0,0.199,0V10.9z"/><path fill="#EB2227" d="M41.9,11.6c0.1,0,0.1,0,0.199,0c0,0.1,0,0.1,0,0.2c-0.1,0-0.1,0-0.199,0C41.9,11.7,41.9,11.7,41.9,11.6z"/><path fill="#EB2227" d="M42.4,12.1c0,0.1,0,0.1,0,0.2c-0.101,0-0.301,0-0.4,0C41.9,12,42.2,12.1,42.4,12.1z"/><path fill="#EB2227" d="M50,53c0.1,0,0.1,0,0.2,0c0,0.1,0,0.1,0,0.2c-0.101,0-0.101,0-0.2,0C50,53.2,50,53.1,50,53z"/><path fill="#EB2227" d="M50.2,53.3c0.1,0,0.1,0,0.2,0c0,0.101,0,0.2,0,0.3c0.199,0,0.3,0,0.5,0c0,0.101,0,0.2,0,0.2    c0.199,0,0.5,0,0.699,0c0,0.101,0,0.101,0,0.2h0.2c0,0.1,0,0.3,0,0.4c0.2,0,0.3,0,0.5,0v-0.2c0.101,0,0.101,0,0.2,0    c0,0.1,0,0.1,0,0.2h0.2c0,0.1,0,0.1,0,0.199h0.2c0,0.2,0,0.5,0,0.7c0.1,0,0.3,0,0.399,0c0,0.101,0,0.101,0,0.2    c-0.2,0-0.399,0-0.7,0c0-0.1,0-0.2,0-0.2c-0.199,0-0.3,0-0.399,0c0-0.1,0-0.1,0-0.2c-0.101,0-0.2,0-0.3,0c0-0.1,0-0.1,0-0.199h-0.2    c0-0.101,0-0.2,0-0.2c-0.2,0-0.3,0-0.5,0c0-0.101,0-0.101,0-0.2H51c0-0.1,0-0.1,0-0.2h-0.2c0-0.1,0-0.2,0-0.2c-0.2,0-0.3,0-0.5,0    c0-0.1,0-0.1,0-0.199h-0.2C50.2,53.6,50.2,53.4,50.2,53.3z"/><path fill="#EB2227" d="M55.2,56.8c0.2,0,0.5,0,0.7,0c0,0.101,0,0.2,0,0.2c0.3,0,0.5,0,0.699,0c0,0,0-0.1,0-0.2    c0.101,0,0.101,0,0.2,0c0,0.101,0,0.101,0,0.2H57c0,0.1,0,0.1,0,0.2c-0.1,0-0.1,0-0.2,0c0,0.2,0,0.399,0,0.5c0.101,0,0.2,0,0.2,0    c0,0.1,0,0.2,0,0.2h0.2c0,0.1,0,0.1,0,0.199c-0.101,0-0.3,0-0.4,0c0-0.1,0-0.199,0-0.199c-0.1,0-0.2,0-0.3,0c0-0.101,0-0.2,0-0.2    c-0.1,0-0.2,0-0.3,0c0-0.101,0-0.2,0-0.3c-0.2,0-0.5,0-0.7,0c0-0.101,0-0.301,0-0.4c-0.1,0-0.3,0-0.5,0    C55.2,57,55.2,56.9,55.2,56.8z"/><path fill="#EB2227" d="M15.4,62.3c0.1,0,0.1,0,0.2,0c0,0.101,0,0.101,0,0.2c-0.1,0-0.1,0-0.2,0C15.4,62.4,15.4,62.4,15.4,62.3z"/><path fill="#EB2227" d="M0-0.1c23.4,0,46.6,0,70,0c0,22.3,0,47.7,0,70h0.1c-23.3,0-46.6,0-69.8,0c-0.1,0-0.1,0-0.2,0    C0,70,0,70,0,69.9C0,69.8,0,69.8,0,69.7C0,47.5,0,22.1,0-0.1C0,0,0-0.1,0-0.1z M58.3,59.2c0,0,0-0.2,0-0.3c-0.1,0-0.2,0-0.2,0    c0-0.2,0-0.4,0-0.601c0.101,0,0.301,0,0.4,0c0-0.1,0-0.2,0-0.3c-0.1,0-0.2,0-0.2,0c0-0.1,0-0.3,0-0.4c0.101,0,0.3,0,0.4,0    c0,0.101,0,0.101,0,0.2c0.2,0,0.3,0,0.5,0c0,0.101,0,0.2,0,0.2h0.2c0,0.1,0,0.1,0,0.2c0.1,0,0.199,0,0.3,0c0,0.1,0,0.2,0,0.2    c0.1,0,0.2,0,0.2,0c0,0.1,0,0.199,0,0.199c0.1,0,0.199,0,0.199,0c0,0.101,0,0.2,0,0.2c0.4,0,0.7,0,1.2,0c0,0.101,0,0.101,0,0.2    c0.3,0,0.5,0,0.7,0c0,0.1,0,0.2,0,0.2c0.2,0,0.3,0,0.5,0c0,0.1,0,0.2,0,0.2c0.1,0,0.2,0,0.2,0c0,0.1,0,0.1,0,0.199    c0.2,0,0.3,0,0.5,0c0,0.101,0,0.101,0,0.2c0.2,0,0.3,0,0.5,0c0,0.101,0,0.101,0,0.2h0.2c0,0.1,0,0.1,0,0.2c0.1,0,0.199,0,0.3,0    c0-0.101,0-0.2,0-0.2c0.1,0,0.3,0,0.399,0c0,0.2,0,0.3,0,0.5c0.101,0,0.301,0,0.4,0c0,0.1,0,0.2,0,0.2c0.1,0,0.1,0,0.2,0    c0,0.1,0,0.1,0,0.2c0.1,0,0.2,0,0.3,0c0-0.101,0-0.2,0-0.2c0.1,0,0.2,0,0.2,0c0-0.3-0.101-0.7,0-0.9c0.2,0,0.5,0,0.7,0    c0-0.1,0-0.2,0-0.2c0.199,0,0.3,0,0.399,0c0-0.199,0-0.3,0-0.5c-0.1,0-0.2,0-0.2,0c0-0.6,0-1.1,0-1.6c0.101,0,0.2,0,0.2,0    c0-0.1,0-0.2,0-0.3c0.101,0,0.2,0,0.3,0c0-0.101,0-0.2,0-0.2c0.101,0,0.101,0,0.2,0c0.101,0,0-0.2,0-0.2c0.2,0,0.4,0,0.7,0    c0.1,0,0-0.2,0-0.2c0.1,0,0.1,0,0.2,0c0-0.199,0-0.3,0-0.5c-0.101,0-0.2,0-0.2,0c0-0.199-0.1-0.5,0-0.699c0.1,0,0.2,0,0.3,0    c0-0.2,0-0.301,0-0.5c-0.1,0-0.2,0-0.3,0c0-0.101,0-0.2,0-0.2c-0.1,0-0.2,0-0.2,0c0-0.101,0-0.101,0-0.2s-0.2,0-0.2,0    c0-0.3,0-0.6,0-0.9c-0.1,0-0.199,0-0.199,0c0-0.1,0-0.199,0-0.199c-0.101,0-0.2,0-0.2,0c0-0.2,0-0.301,0-0.5c-0.101,0-0.2,0-0.2,0    c0-0.101,0-0.2,0-0.2c0.1,0,0.1,0,0.2,0v-0.2c0.1,0,0.1,0,0.2,0c0-0.1,0-0.2,0-0.3c-0.101,0-0.2,0-0.2,0c0-0.3,0-0.601,0-0.9    c-0.101,0-0.2,0-0.2,0c0-0.2,0-0.399,0-0.6c0.2,0,0.3,0,0.4,0c0-0.2,0-0.3,0-0.5c0.1,0,0.1,0,0.199,0c0-0.2,0-0.3,0-0.5    c0.101,0,0.101,0,0.2,0v-0.2c0.101,0,0.101,0,0.2,0c0-0.2,0-0.3,0-0.5c0.1,0,0.2,0,0.2,0c0-0.2,0-0.5,0-0.7c-0.101,0-0.2,0-0.3,0    c0-0.3,0-0.6,0-1c-0.101,0-0.2,0-0.2,0c0-0.2,0-0.399,0-0.7c-0.101,0-0.2,0-0.2,0c0-0.199,0-0.3,0-0.5c-0.1,0-0.2,0-0.2,0    c0-0.199,0-0.3,0-0.399c-0.1,0-0.2,0-0.2,0c0-0.2,0-0.3,0-0.4c-0.1,0-0.199,0-0.199,0c0-0.1,0-0.2,0-0.2c-0.101,0-0.2,0-0.2,0    c0-0.1,0-0.199,0-0.199c0.1,0,0.2,0,0.2,0c0-0.301,0-0.5,0-0.7c-0.101,0-0.2,0-0.301,0c0,0.1,0,0.1,0,0.2c-0.1,0-0.199,0-0.199,0    c0-0.101,0-0.101,0-0.2h-0.2c0-0.101,0-0.2,0-0.2c0.1,0,0.1,0,0.2,0c0-0.1,0-0.2,0-0.3c-0.101,0-0.2,0-0.2,0c0-0.101,0-0.101,0-0.2    s-0.2,0-0.2,0c0-0.1,0-0.1,0-0.2c-0.2,0-0.3,0-0.5,0c0-0.1,0-0.2,0-0.2c-0.1,0-0.2,0-0.2,0c0-0.1,0-0.199,0-0.199    c-0.1,0-0.2,0-0.2,0c0-0.101,0-0.2,0-0.2c-0.1,0-0.199,0-0.199,0c0-0.101,0-0.101,0-0.2s-0.2,0-0.2,0c0-0.1,0-0.2,0-0.2    c-0.101,0-0.2,0-0.2,0c0-0.1,0-0.1,0-0.2c0-0.1-0.2,0-0.2,0c0-0.199,0-0.3,0-0.399c-0.1,0-0.2,0-0.2,0c0-0.101,0-0.2,0-0.2    c-0.1,0-0.1,0-0.199,0c0-0.1,0-0.1,0-0.2c0.1,0,0.1,0,0.199,0c0-0.1,0-0.2,0-0.3C64,41,63.9,41,63.9,41c0-0.1,0-0.1,0-0.2    c-0.101,0-0.2,0-0.301,0c0-0.1,0-0.2,0-0.2c-0.1,0-0.199,0-0.199,0c0-0.1,0-0.1,0-0.199c-0.101,0-0.2,0-0.2,0    c0-0.101,0-0.101,0-0.2c-0.2,0-0.3,0-0.5,0c0-0.101,0-0.2,0-0.2c-0.101,0-0.101,0-0.2,0c0-0.1,0-0.2,0-0.2c-0.1,0-0.2,0-0.2,0    c0-0.1,0-0.1,0-0.2c0-0.1-0.2,0-0.2,0c0-0.1,0-0.199,0-0.199c-0.1,0-0.199,0-0.199,0c0-0.101,0-0.101,0-0.2h-0.2    c0-0.101,0-0.101,0-0.2c-0.101,0-0.2,0-0.3,0c0-0.1,0-0.2,0-0.2c-0.101,0-0.2,0-0.301,0c0-0.1,0-0.2,0-0.2c-0.199,0-0.3,0-0.399,0    c0-0.1,0-0.199,0-0.199h-0.2c0-0.101,0-0.101,0-0.2c-0.1,0-0.2,0-0.3,0c0-0.101,0-0.2,0-0.2c-0.2,0-0.3,0-0.5,0c0-0.1,0-0.1,0-0.2    c-0.2,0-0.3,0-0.5,0c0-0.1,0-0.2,0-0.2c-0.101,0-0.101,0-0.2,0c0-0.1,0-0.1,0-0.199c-0.1,0-0.2,0-0.3,0c0-0.101,0-0.2,0-0.301    c-0.101,0-0.2,0-0.2,0c0-0.199,0-0.3,0-0.399c-0.1,0-0.2,0-0.2,0c0-0.101,0-0.2,0-0.2c0.101,0,0.101,0,0.2,0c0-0.1,0-0.2,0-0.3    c-0.1,0-0.2,0-0.2,0c0-0.101,0-0.101,0-0.2c-0.1,0-0.2,0-0.3,0c0-0.1,0-0.2,0-0.2c-0.1,0-0.2,0-0.2,0c0-0.1,0-0.2,0-0.2    c-0.1,0-0.2,0-0.3,0c0,0.101,0,0.2,0,0.2c-0.1,0-0.3,0-0.4,0c0-0.2,0-0.3,0-0.5c-0.1,0-0.199,0-0.3,0c0-0.1,0-0.2,0-0.2    c-0.1,0-0.2,0-0.2,0c0-0.1,0-0.2,0-0.2c-0.1,0-0.199,0-0.199,0c0-0.1,0-0.1,0-0.2h-0.2c0-0.1,0-0.1,0-0.2s-0.2,0-0.2,0    c0-0.2,0-0.3,0-0.4c-0.1,0-0.2,0-0.2,0c0-0.1,0-0.2,0-0.2c-0.1,0-0.2,0-0.3,0c0-0.1,0-0.2,0-0.2c-0.2,0-0.3,0-0.4,0    c0-0.2,0-0.3,0-0.4c-0.1,0-0.199,0-0.199,0c0-0.1,0-0.2,0-0.2c-0.2,0-0.301,0-0.4,0c0-0.1,0-0.2,0-0.2c-0.1,0-0.2,0-0.2,0    c0-0.1,0-0.2,0-0.2c0.101,0,0.101,0,0.2,0c0-0.1,0-0.2,0-0.3c0.1,0,0.2,0,0.2,0c0-0.2,0-0.3,0-0.4c0.1,0,0.2,0,0.2,0    c0-0.1,0-0.2,0-0.2c0.1,0,0.1,0,0.199,0v-0.2c0.101,0,0.101,0,0.2,0c0-0.1,0-0.2,0-0.3c0.101,0,0.2,0,0.2,0c0-0.1,0-0.2,0-0.2    c0.1,0,0.2,0,0.2,0c0-0.1,0-0.2,0-0.2c0.1,0,0.2,0,0.2,0c0-0.2,0-0.3,0-0.5c0.1,0,0.199,0,0.199,0c0-0.1,0-0.1,0-0.2    c0.101,0,0.2,0,0.2,0c0-0.1,0-0.1,0-0.2c0.101,0,0.101,0,0.2,0v-0.2c0.1,0,0.1,0,0.2,0c0-0.1,0-0.2,0-0.3c0.1,0,0.2,0,0.3,0    c0-0.1,0-0.2,0-0.2c0.1,0,0.1,0,0.2,0c0-0.1,0-0.2,0-0.3c0.1,0,0.2,0,0.2,0c0-0.2,0-0.3,0-0.4c0.1,0,0.199,0,0.199,0    c0-0.1,0-0.1,0-0.2c0.101,0,0.101,0,0.2,0v-0.2c0.101,0,0.2,0,0.2,0c0-0.1,0-0.2,0-0.2c0.1,0,0.2,0,0.2,0c0-0.1,0-0.2,0-0.2    c0.1,0,0.1,0,0.2,0v-0.2c0.1,0,0.199,0,0.199,0c0-0.1,0-0.1,0-0.2c0.101,0,0.101,0,0.2,0c0-0.1,0-0.2,0-0.3c0.101,0,0.2,0,0.2,0    c0-0.1,0-0.2,0-0.2c0.1,0,0.2,0,0.2,0c0-0.2,0-0.3,0-0.5c0.1,0,0.1,0,0.2,0c0.1,0,0-0.2,0-0.2c0.1,0,0.199,0,0.199,0    c0-0.1,0-0.1,0-0.2c0.101,0,0.2,0,0.2,0c0-0.1,0-0.1,0-0.2c0.101,0,0.101,0,0.2,0c0-0.1,0-0.2,0-0.3c0.1,0,0.2,0,0.2,0    c0-0.2,0-0.3,0-0.4c0.1,0,0.2,0,0.2,0c0-0.1,0-0.2,0-0.2c0.1,0,0.199,0,0.199,0c0-0.1,0-0.2,0-0.3c0.101,0,0.2,0,0.2,0    c0-0.1,0-0.2,0-0.2c0.101,0,0.101,0,0.2,0c0-0.1,0-0.2,0-0.2c0.1,0,0.1,0,0.2,0c0-0.2,0-0.3,0-0.4c0.1,0,0.2,0,0.2,0    c0-0.1,0-0.2,0-0.2c0.1,0,0.1,0,0.199,0c0.101,0,0-0.2,0-0.2c0.101,0,0.101,0,0.2,0c0.101,0,0-0.2,0-0.2c0.101,0,0.101,0,0.2,0V23    c0.1,0,0.1,0,0.2,0c0-0.1,0-0.2,0-0.3c0.1,0,0.2,0,0.2,0c0-0.2,0-0.3,0-0.5c0.1,0,0.1,0,0.199,0c0.101,0,0-0.2,0-0.2    c0.101,0,0.201,0,0.201,0c0-0.1,0-0.1,0-0.2c0.1,0,0.1,0,0.199,0c0-0.1,0-0.2,0-0.3c0.1,0,0.2,0,0.301,0c0-0.2,0-0.3,0-0.4    c0.1,0,0.199,0,0.199,0c0-0.1,0-0.2,0-0.2c0.1,0,0.1,0,0.2,0c0-0.1,0-0.2,0-0.3c0.101,0,0.2,0,0.2,0c0-0.2,0-0.3,0-0.4    c0.1,0,0.199,0,0.199,0c0-0.1,0-0.1,0-0.2c0.101,0,0.101,0,0.2,0c0-0.2,0-0.3,0-0.5c0.101,0,0.2,0,0.2,0c0-0.1,0-0.2,0-0.3    c0.1,0,0.2,0,0.2,0c0-0.2,0-0.3,0-0.4c0.1,0,0.1,0,0.2,0c0-0.2,0-0.3,0-0.5c0.1,0,0.1,0,0.199,0c0-0.2,0-0.3,0-0.5    c0.101,0,0.101,0,0.2,0c0-0.2,0-0.4,0-0.7c0.101,0,0.101,0,0.2,0c0-0.2,0-0.5,0-0.7c0.1,0,0.2,0,0.2,0c0-0.4,0-0.8,0-1.2    c0.1,0,0.1,0,0.2,0c0-0.3,0-0.6,0-1c-0.101,0-0.2,0-0.2,0c0-0.4,0-0.8,0-1.2c-0.101,0-0.2,0-0.2,0c0-0.2,0-0.3,0-0.4    c-0.1,0-0.2,0-0.2,0c0-0.2,0-0.3,0-0.5c-0.1,0-0.2,0-0.2,0c0-0.1,0-0.1,0-0.2H64.9c0-0.1,0-0.1,0-0.2c-0.2,0-0.301,0-0.5,0    c0-0.1,0-0.2,0-0.2c-0.101,0-0.2,0-0.2,0c0-0.1,0-0.1,0-0.2c-0.2,0-0.4,0-0.7,0c0-0.1,0-0.1,0-0.2h-0.2c0-0.1,0-0.2,0-0.2    c-0.2,0-0.3,0-0.5,0C64,8.1,64,8,64,8c-0.1,0-0.3,0-0.4,0c0-0.1,0-0.1,0-0.2c-0.199,0-0.3,0-0.5,0c0-0.1,0-0.1,0-0.2    c-0.199,0-0.3,0-0.5,0c0-0.1,0-0.1,0-0.2c-0.199,0-0.3,0-0.5,0c0-0.1,0-0.1,0-0.2c-0.199,0-0.399,0-0.699,0c0-0.1,0-0.2,0-0.2    c-0.2,0-0.301,0-0.5,0c0-0.1,0-0.1,0-0.2c-0.301,0-0.601,0-0.9,0c0-0.1,0-0.1,0-0.2c-0.2,0-0.5,0-0.7,0c0-0.1,0-0.1,0-0.2    c-1.6,0-3.2,0-4.8,0c0,0.1,0,0.2,0,0.2c-0.3,0-0.5,0-0.7,0c0,0.1,0,0.2,0,0.2c-0.3,0-0.6,0-0.899,0c0,0.1,0,0.2,0,0.2    c-0.2,0-0.5,0-0.7,0c0-0.2,0-0.3,0-0.4c-0.101,0-0.2,0-0.2,0c0-0.1,0-0.2,0-0.2c-0.2,0-0.5,0-0.7,0c0-0.1,0-0.1,0-0.2    c-0.2,0-0.5,0-0.7,0c0-0.1,0-0.1,0-0.2c-0.1,0-0.199,0-0.3,0c0-0.1,0-0.2,0-0.2c-0.1,0-0.2,0-0.3,0C50,5.9,50,6,50,6    c-0.2,0-0.4,0-0.7,0c0-0.1,0-0.2,0-0.3c-0.1,0-0.2,0-0.2,0c0-0.1,0-0.2,0-0.2c-0.199,0-0.399,0-0.699,0c-0.101,0,0,0.2,0,0.2    c-0.301,0-0.601,0-0.9,0c0,0.2,0,0.3,0,0.5c-0.1,0-0.1,0-0.2,0c0-0.1,0-0.1,0-0.2c-0.2,0-0.3,0-0.5,0c0,0.1,0,0.2,0,0.3    c0.101,0,0.101,0,0.2,0c0,0.1,0,0.2,0,0.2c-0.1,0-0.2,0-0.2,0c0,0.1,0,0.2,0,0.2c-0.1,0-0.2,0-0.2,0c0,0.2,0,0.3,0,0.5    c0.101,0,0.2,0,0.301,0c0-0.1,0-0.2,0-0.2C47,7,47,7,47.1,7c0-0.1,0-0.2,0-0.2c0.101,0,0.101,0,0.2,0c0.101,0,0-0.2,0-0.2    c0.101,0,0.3,0,0.4,0c0,0.1,0,0.2,0,0.2c0.1,0,0.2,0,0.2,0c0,0.1,0,0.2,0,0.2C48,7,48.1,7,48.1,7c0,0.1,0,0.2,0,0.2    c-0.199,0-0.3,0-0.5,0c0,0.1,0,0.2,0,0.2c-0.199,0-0.3,0-0.399,0c0,0.1,0,0.2,0,0.2c-0.101,0-0.2,0-0.2,0c0,0.1,0,0.1,0,0.2    c-0.1,0-0.2,0-0.2,0c0-0.1,0-0.2,0-0.2c-0.3,0-0.6,0-0.899,0c0-0.1,0-0.1,0-0.2c-0.2,0-0.5,0-0.7,0c0,0.2,0,0.3,0,0.5    c0.2,0,0.3,0,0.5,0c0,0.1,0,0.2,0,0.2c-0.101,0-0.2,0-0.2,0c0,0.1,0,0.2,0,0.2c-0.2,0-0.3,0-0.4,0c0,0.1,0,0.2,0,0.2    c-0.1,0-0.199,0-0.199,0c0,0.1,0,0.2,0,0.2c-0.101,0-0.2,0-0.2,0c0-0.1,0-0.1,0-0.2c-0.2,0-0.3,0-0.5,0c0,0.1,0,0.2,0,0.3    c0.1,0,0.2,0,0.3,0c0,0.1,0,0.2,0,0.2c-0.1,0-0.2,0-0.2,0c0,0.1,0,0.2,0,0.2c-0.2,0-0.3,0-0.399,0c0,0.2,0,0.3,0,0.5    c-0.101,0-0.2,0-0.2,0c0,0.1,0,0.2,0,0.2c-0.101,0-0.3,0-0.4,0c0,0.1,0,0.2,0,0.3c0.2,0,0.5,0,0.7,0c0-0.1,0-0.2,0-0.3    c0.1,0,0.2,0,0.2,0c0,0.1,0,0.3,0,0.4c-0.2,0-0.3,0-0.5,0c0,0.1,0,0.2,0,0.2c-0.101,0-0.101,0-0.2,0c0,0.1,0,0.2,0,0.3    c0.2,0,0.3,0,0.5,0c0,0.1,0,0.3,0,0.4c-0.2,0-0.3,0-0.5,0c0,0.1,0,0.2,0,0.2c-0.1,0-0.3,0-0.4,0c0-0.2-0.1-0.5,0-0.7    c-0.199,0-0.3,0-0.5,0c0,0.1,0,0.2,0,0.3c0.101,0,0.2,0,0.2,0c0,0.1,0,0.2,0,0.2c-0.1,0-0.2,0-0.2,0c0,0.1,0,0.2,0,0.2    c-0.1,0-0.199,0-0.199,0c0.199,0,0.5,0,0.699,0c0,0.1,0,0.2,0,0.2c-0.399,0-0.8,0-1.1,0c0,0.2,0,0.3,0,0.5c0.1,0,0.2,0,0.2,0    c0,0.1,0,0.2,0,0.2c-0.2,0-0.4,0-0.7,0c0,0.1,0,0.2,0,0.2c-0.1,0-0.1,0-0.2,0c-0.1,0,0,0.2,0,0.2c-0.2,0-0.399,0-0.6,0    c0-0.1,0-0.2,0-0.2h-0.2c0,0.1,0,0.2,0,0.2c-0.3,0-0.6,0-0.9,0c0-0.1,0-0.1,0-0.2c-0.1,0-0.199,0-0.3,0c0,0.3,0,0.5,0,0.8    c0.101,0,0.2,0,0.2,0c0,0.3,0,0.6,0,0.9c0.1,0,0.1,0,0.2,0c0,0.1,0,0.2,0,0.2c-0.3,0-0.601,0-0.9,0c0-0.1,0-0.2,0-0.3    c-0.2,0-0.3,0-0.5,0c0,0.1,0,0.2,0,0.3c-0.1,0-0.2,0-0.2,0c0.101,0.1,0,0.3,0,0.4c-0.3,0-0.6,0-0.899,0c0-0.1,0-0.1,0-0.2H37    c0-0.1,0-0.1,0-0.2c-0.2,0-0.4,0-0.7,0c0-0.1,0-0.2,0-0.2c-0.2,0-0.3,0-0.5,0c0,0.1,0,0.2,0,0.2c-0.1,0-0.1,0-0.2,0    c-0.1,0,0,0.2,0,0.2c-0.1,0-0.2,0-0.2,0c0,0.2,0,0.3,0,0.5c0.1,0,0.2,0,0.2,0c0,0.2,0,0.3,0,0.4c-0.1,0-0.2,0-0.3,0    c0,0.1,0,0.2,0,0.2c-0.2,0-0.4,0-0.6,0c0-0.1,0-0.2,0-0.2c0-0.1-0.2,0-0.2,0c0-0.1,0-0.2,0-0.2c-0.1,0-0.2,0-0.2,0    c0-0.1,0-0.1,0-0.2h-0.2c0-0.1,0-0.1,0-0.2h-0.2c0-0.1,0-0.2,0-0.2c-0.1,0-0.1,0-0.2,0c0-0.1,0-0.1,0-0.2s-0.2,0-0.2,0    c0-0.1,0-0.1,0-0.2c0-0.1-0.2,0-0.2,0c0-0.1,0-0.2,0-0.2c-0.1,0-0.2,0-0.2,0c0-0.1,0-0.1,0-0.2c-0.1,0-0.2,0-0.3,0    c0-0.1,0-0.2,0-0.3c-0.1,0-0.2,0-0.2,0c0-0.1,0-0.1,0-0.2c-0.1,0-0.2,0-0.3,0c0-0.1,0-0.2,0-0.2c-0.1,0-0.2,0-0.2,0    c0-0.1,0-0.2,0-0.2c-0.1,0-0.2,0-0.2,0c0-0.1,0-0.2,0-0.2c-0.1,0-0.2,0-0.2,0c0-0.1,0-0.1,0-0.2c-0.1,0-0.2,0-0.3,0    c0-0.1,0-0.2,0-0.2c-0.1,0-0.2,0-0.2,0c0-0.1,0-0.2,0-0.2c-0.1,0-0.2,0-0.2,0c0-0.1,0-0.2,0-0.2c-0.1,0-0.2,0-0.2,0    c0-0.1,0-0.1,0-0.2c-0.1,0-0.2,0-0.3,0c0-0.1,0-0.2,0-0.3c-0.1,0-0.2,0-0.3,0c0-0.1,0-0.2,0-0.3c-0.1,0-0.2,0-0.2,0    c0-0.1,0-0.1,0-0.2h-0.2c0-0.1,0-0.1,0-0.2h-0.2c0-0.1,0-0.2,0-0.2c-0.1,0-0.2,0-0.2,0c0-0.1,0-0.1,0-0.2s-0.2,0-0.2,0    c0-0.1,0-0.1,0-0.2c-0.1,0-0.2,0-0.3,0c0-0.1,0-0.2,0-0.2c-0.1,0-0.2,0-0.2,0c0-0.1,0-0.1,0-0.2h-0.2C27,9.1,27,9,27,9h-0.2    c0-0.1,0-0.1,0-0.2c-0.2,0-0.3,0-0.5,0c0-0.1,0-0.1,0-0.2c-0.1,0-0.2,0-0.3,0c0-0.1,0-0.2,0-0.2c-0.1,0-0.2,0-0.3,0    c0-0.1,0-0.2,0-0.2c-0.2,0-0.3,0-0.4,0c0-0.1,0-0.1,0-0.2h-0.2c0-0.1,0-0.2,0-0.2c-0.1,0-0.1,0-0.2,0c0-0.1,0-0.1,0-0.2    s-0.2,0-0.2,0c0-0.1,0-0.2,0-0.2c-0.2,0-0.3,0-0.5,0c0-0.1,0-0.2,0-0.3c-0.1,0-0.3,0-0.4,0c0-0.3,0-0.6,0-0.9c-0.1,0-0.2,0-0.2,0    c0-0.2,0-0.4,0-0.7c-0.1,0-0.2,0-0.2,0c0-0.1,0-0.2,0-0.2c-0.1,0-0.2,0-0.2,0c0-0.1,0-0.1,0-0.2c-0.1,0-0.2,0-0.3,0    c0-0.1,0-0.2,0-0.2c-0.2,0-0.3,0-0.4,0c0-0.1,0-0.1,0-0.2c-0.2,0-0.3,0-0.5,0c0-0.1,0-0.2,0-0.2c-0.2,0-0.5,0-0.7,0    c0-0.1,0-0.1,0-0.2c-0.2,0-0.3,0-0.5,0c0-0.1,0-0.1,0-0.2c-0.2,0-0.5,0-0.7,0c0-0.1,0-0.1,0-0.2c-0.2,0-0.3,0-0.5,0    c0-0.1,0-0.1,0-0.2c-0.2,0-0.3,0-0.5,0c0-0.1,0-0.1,0-0.2c-0.2,0-0.3,0-0.5,0c0-0.1,0-0.2,0-0.2c-0.2,0-0.3,0-0.5,0    c0-0.1,0-0.1,0-0.2c-0.3,0-0.6,0-1,0c0-0.1,0-0.1,0-0.2c-1.2,0-2.4,0-3.6,0c0,0.1,0,0.2,0,0.2c-0.3,0-0.6,0-0.9,0    c0,0.1,0,0.2,0,0.2c-0.4,0-0.8,0-1.2,0c0,0.1,0,0.2,0,0.2c-0.2,0-0.4,0-0.7,0c0,0.1,0,0.2,0,0.2c-0.3,0-0.5,0-0.7,0    c0,0.1,0,0.2,0,0.2c-0.3,0-0.6,0-0.9,0c0,0.1,0,0.2,0,0.2c-0.3,0-0.6,0-0.9,0c0,0.1,0,0.2,0,0.2c-0.2,0-0.3,0-0.4,0    c0,0.1,0,0.2,0,0.2c-0.3,0-0.5,0-0.7,0c0,0.1,0,0.2,0,0.2c-0.2,0-0.3,0-0.4,0c0,0.1,0,0.2,0,0.2c-0.2,0-0.3,0-0.4,0    c0,0.1,0,0.2,0,0.2c-0.2,0-0.3,0-0.5,0c0,0.1,0,0.2,0,0.2c-0.1,0-0.1,0-0.2,0s0,0.2,0,0.2c-0.2,0-0.3,0-0.4,0c0,0.1,0,0.2,0,0.2    c-0.2,0-0.3,0-0.4,0c0,0.1,0,0.2,0,0.3C4.7,6,4.6,6,4.5,6c0,0.1,0,0.2,0,0.2c-0.1,0-0.2,0-0.2,0c0,0.1,0,0.1,0,0.2    c-0.1,0-0.2,0-0.2,0c0,0.1,0,0.1,0,0.2c-0.1,0-0.2,0-0.2,0c0,0.1,0,0.2,0,0.2c-0.1,0-0.1,0-0.2,0V7C3.6,7,3.5,7,3.5,7    c0,0.1,0,0.2,0,0.2c-0.1,0-0.1,0-0.2,0v0.2c-0.1,0-0.2,0-0.2,0c0,0.1,0,0.1,0,0.2c-0.1,0-0.1,0-0.2,0c0,0.2,0,0.3,0,0.5    C2,8,2,8,1.9,8c0,0.2,0,0.3,0,0.5c-0.1,0-0.2,0-0.2,0c0,0.1,0,0.1,0,0.2c-0.1,0-0.1,0-0.2,0c0,0.2,0,0.4,0,0.7c-0.1,0-0.2,0-0.2,0    c0,1.4,0,2.9,0,4.3c0.1,0,0.2,0,0.2,0c0,0.3,0,0.6,0,0.9c0.1,0,0.2,0,0.2,0c0,0.2,0,0.3,0,0.4c0.1,0,0.2,0,0.2,0c0,0.3,0,0.5,0,0.7    c0.1,0,0.2,0,0.2,0c0,0.2,0,0.3,0,0.4c0.1,0,0.2,0,0.2,0c0,0.2,0,0.3,0,0.4c0.1,0,0.2,0,0.2,0c0,0.1,0,0.2,0,0.2c0.1,0,0.2,0,0.2,0    c0,0.2,0,0.3,0,0.5c0.1,0,0.2,0,0.2,0c0,0.2,0,0.3,0,0.4c0.1,0,0.2,0,0.2,0c0,0.1,0,0.2,0,0.2c0.1,0,0.2,0,0.2,0c0,0.1,0,0.2,0,0.2    c0.1,0,0.2,0,0.2,0c0,0.2,0,0.3,0,0.4c0.1,0,0.2,0,0.2,0c0,0.1,0,0.2,0,0.2c0.1,0,0.2,0,0.2,0c0,0.1,0,0.2,0,0.2c0.1,0,0.2,0,0.2,0    c0,0.1,0,0.1,0,0.2s0.2,0,0.2,0c0,0.1,0,0.1,0,0.2c0,0.1,0.2,0,0.2,0C5,20,5,20,5,20.1h0.2c0,0.1,0,0.1,0,0.2h0.2    c0,0.1,0,0.2,0,0.2c0.1,0,0.2,0,0.2,0c0,0.2,0,0.3,0,0.4c0.1,0,0.2,0,0.2,0c0,0.1,0,0.2,0,0.2c0.2,0,0.3,0,0.4,0c0,0.2,0,0.3,0,0.4    c0.1,0,0.2,0,0.2,0c0,0.1,0,0.2,0,0.2c0.2,0,0.3,0,0.5,0c0,0.1,0,0.1,0,0.2s0.2,0,0.2,0c0,0.1,0,0.1,0,0.2s0.2,0,0.2,0    c0,0.1,0,0.1,0,0.2c0,0.1,0.2,0,0.2,0c0,0.1,0,0.1,0,0.2s0.2,0,0.2,0c0,0.1,0,0.1,0,0.2c0,0.1,0.2,0,0.2,0c0,0.1,0,0.2,0,0.2    c0.1,0,0.2,0,0.2,0c0,0.1,0,0.1,0,0.2s0.2,0,0.2,0c0,0.1,0,0.1,0,0.2h0.2C9,24,9,24,9,24.1s0.2,0,0.2,0c0,0.2,0,0.3,0,0.4    c0.1,0,0.2,0,0.2,0c0,0.1,0,0.2,0,0.2c0.2,0,0.3,0,0.4,0c0,0.2,0,0.3,0,0.4c0.1,0,0.2,0,0.2,0c0,0.1,0,0.2,0,0.2c0.1,0,0.2,0,0.2,0    c0,0.1,0,0.2,0,0.2c0.1,0,0.2,0,0.2,0c0,0.1,0,0.1,0,0.2c0,0.1,0.2,0,0.2,0c0,0.2,0,0.3,0,0.4c0.1,0,0.2,0,0.2,0c0,0.1,0,0.2,0,0.2    c0.1,0,0.2,0,0.2,0c0,0.1,0,0.1,0,0.2c0.1,0,0.2,0,0.3,0c0,0.1,0,0.2,0,0.2c0.1,0,0.2,0,0.2,0c0,0.1,0,0.2,0,0.3c0.1,0,0.1,0,0.2,0    c0,0.1,0,0.1,0,0.2c0.1,0,0.2,0,0.3,0c0,0.1,0,0.2,0,0.2c0.1,0,0.2,0,0.2,0c0,0.1,0,0.2,0,0.2c0.1,0,0.2,0,0.2,0c0,0.1,0,0.1,0,0.2    c0.1,0,0.2,0,0.3,0c0,0.1,0,0.2,0,0.2c0.2,0,0.3,0,0.4,0c0,0.1,0,0.2,0,0.2h0.2c0,0.1,0,0.1,0,0.2s0.2,0,0.2,0c0,0.1,0,0.2,0,0.2    c0.1,0,0.1,0,0.2,0c0,0.1,0,0.1,0,0.2c0.1,0,0.2,0,0.3,0c0,0.1,0,0.2,0,0.2c0.2,0,0.3,0,0.4,0c0,0.1,0,0.1,0,0.2c0,0.1,0.2,0,0.2,0    c0,0.1,0,0.1,0,0.2c0.1,0,0.2,0,0.3,0c0,0.1,0,0.2,0,0.2c0.2,0,0.3,0,0.5,0c0,0.1,0,0.3,0,0.4c-0.1,0-0.1,0-0.2,0v0.2    c-0.1,0-0.1,0-0.2,0c0,0.2,0,0.3,0,0.5c-0.1,0-0.2,0-0.2,0c0,0.1,0,0.1,0,0.2c-0.1,0-0.1,0-0.2,0s0,0.2,0,0.2c-0.2,0-0.3,0-0.4,0    c0,0.1,0,0.2,0,0.2c-0.1,0-0.1,0-0.2,0c0,0.1,0,0.2,0,0.3c0.1,0,0.2,0,0.3,0c0,0.1,0,0.3,0,0.4c-0.2,0-0.3,0-0.5,0    c0,0.1,0,0.2,0,0.2c-0.1,0-0.1,0-0.2,0s0,0.2,0,0.2c-0.1,0-0.2,0-0.2,0c0,0.1,0,0.2,0,0.2c-0.1,0-0.1,0-0.2,0c-0.1,0,0,0.2,0,0.2    c-0.1,0-0.2,0-0.2,0c0,0.1,0,0.4,0,0.5c-0.1,0-0.1,0-0.2,0c-0.1,0,0,0.2,0,0.2c-0.1,0-0.1,0-0.2,0s0,0.2,0,0.2c-0.1,0-0.1,0-0.2,0    v0.2c-0.1,0-0.1,0-0.2,0c0,0.2,0,0.3,0,0.5c-0.2,0-0.3,0-0.4,0c0,0.1,0,0.2,0,0.2c-0.1,0-0.1,0-0.2,0s0,0.2,0,0.3    c-0.2,0-0.3,0-0.4,0c0,0.2,0,0.3,0,0.5c0.1,0,0.2,0,0.3,0c0-0.1,0-0.2,0-0.2c0.3,0,0.5,0,0.7,0c0-0.1,0-0.2,0-0.2    c0.1,0,0.2,0,0.2,0c0,0.2,0,0.3,0,0.4c-0.1,0-0.2,0-0.3,0c0,0.1,0,0.2,0,0.2c-0.1,0-0.1,0-0.2,0s0,0.2,0,0.2c-0.4,0-0.8,0-1.1,0    c0,0.101,0,0.2,0,0.2c-0.1,0-0.1,0-0.2,0c0,0.1,0,0.2,0,0.3c0.1,0,0.2,0,0.3,0c0-0.1,0-0.2,0-0.2c0.1,0,0.3,0,0.4,0    c0,0.101,0,0.301,0,0.4c-0.1,0-0.1,0-0.2,0v0.2c-0.1,0-0.1,0-0.2,0s0,0.2,0,0.2c-0.1,0-0.1,0-0.2,0c0,0.1,0,0.199,0,0.199    c-0.1,0-0.2,0-0.3,0c0.1,0.101,0,0.301,0,0.5c-0.1,0-0.2,0-0.2,0c0,0.101,0,0.101,0,0.2c-0.1,0-0.1,0-0.2,0c0,0.101,0,0.2,0,0.3    c-0.1,0-0.2,0-0.2,0c0,0.2,0,0.301,0,0.4c-0.1,0-0.1,0-0.2,0s0,0.2,0,0.2c-0.2,0-0.3,0-0.4,0c0,0.1,0,0.2,0,0.2c-0.1,0-0.1,0-0.2,0    V39.1c-0.1,0-0.1,0-0.2,0c-0.1,0,0,0.2,0,0.2c-0.2,0-0.3,0-0.4,0c0,0.101,0,0.2,0,0.2c-0.1,0-0.2,0-0.2,0c0,0.2,0,0.3,0,0.4    c-0.2,0-0.3,0-0.5,0c0,0.1,0,0.199,0,0.3c-0.1,0-0.2,0-0.2,0c0,0.2,0,0.3,0,0.399c-0.1,0-0.1,0-0.2,0v0.2c-0.1,0-0.1,0-0.2,0    c0,0.101,0,0.2,0,0.3c0.1,0,0.2,0,0.2,0c0,0.101,0,0.301,0,0.4c-0.1,0-0.1,0-0.2,0c0,0.1,0,0.2,0,0.3c-0.1,0-0.2,0-0.2,0    c0,0.101,0,0.2,0,0.2c-0.1,0-0.2,0-0.3,0c0,0.1,0,0.2,0,0.2c-0.1,0-0.1,0-0.2,0v0.2c-0.1,0-0.1,0-0.2,0c-0.1,0,0,0.199,0,0.199    c-0.2,0-0.3,0-0.4,0c0,0.101,0,0.2,0,0.2c-0.1,0-0.1,0-0.2,0V43c-0.1,0-0.2,0-0.2,0c0,0.1,0,0.2,0,0.2c-0.1,0-0.1,0-0.2,0    c0,0.1,0,0.2,0,0.3c-0.1,0-0.2,0-0.3,0c0,0.1,0,0.2,0,0.2c-0.1,0-0.1,0-0.2,0v0.2c-0.1,0-0.1,0-0.2,0c0,0.1,0,0.199,0,0.3    c-0.1,0-0.1,0-0.2,0c0,0.2,0,0.3,0,0.5c-0.1,0-0.1,0-0.2,0c0,0.1,0,0.2,0,0.3c0.3,0,0.5,0,0.7,0c0,0.1,0,0.1,0,0.2    c-0.1,0-0.1,0-0.2,0c0,0.1,0,0.2,0,0.3c0.1,0,0.4,0,0.5,0c0-0.1,0-0.2,0-0.2c0.1,0,0.2,0,0.2,0c0,0.101,0,0.3,0,0.4    c-0.1,0-0.1,0-0.2,0c0,0.1,0,0.2,0,0.3c0.1,0,0.3,0,0.5,0c0-0.1,0-0.2,0-0.2c0.1,0,0.3,0,0.4,0C6,45.9,6,46,6,46c0.2,0,0.3,0,0.5,0    c0-0.1,0-0.2,0-0.2c0.1,0,0.2,0,0.2,0c0,0.101,0,0.2,0,0.2c0.1,0,0.2,0,0.2,0c0,0.2,0,0.3,0,0.4c0.1,0,0.3,0,0.4,0    c0,0.1,0,0.1,0,0.199c0,0.101,0.2,0,0.2,0c0,0.101,0,0.301,0,0.4s0.2,0,0.2,0c0,0.4,0,0.8,0,1.1c-0.1,0-0.2,0-0.2,0    c0,0.101,0,0.101,0,0.2c-0.1,0-0.1,0-0.2,0c0,0.2,0,0.3,0,0.5c-0.1,0-0.2,0-0.2,0c0,0.101,0,0.101,0,0.2C7,49,7,49,6.9,49    c0,0.1,0,0.2,0,0.3c0.1,0,0.2,0,0.2,0c0,0.3,0,0.601,0,0.9c-0.1,0-0.1,0-0.2,0s0,0.2,0,0.2c-0.1,0-0.1,0-0.2,0c0,0.3,0,0.5,0,0.699    c-0.1,0-0.2,0-0.2,0c0,0.101,0,0.2,0,0.2c-0.1,0-0.2,0-0.2,0v0.2c-0.1,0-0.2,0-0.2,0c0,0.1,0,0.2,0,0.2c-0.1,0-0.1,0-0.2,0v0.2    c-0.1,0-0.1,0-0.2,0c-0.1,0,0,0.199,0,0.199c-0.1,0-0.1,0-0.2,0v0.2c-0.1,0-0.1,0-0.2,0c0,0.2,0,0.5,0,0.7c-0.1,0-0.1,0-0.2,0    c0,0.2,0,0.3,0,0.5c-0.1,0-0.2,0-0.2,0c0,0.1,0,0.1,0,0.2c-0.1,0-0.2,0-0.2,0c0,0.1,0,0.2,0,0.2c-0.1,0-0.1,0-0.2,0    c0,0.3,0,0.5,0,0.699c-0.1,0-0.2,0-0.2,0c0,0.2,0,0.301,0,0.5c-0.1,0-0.2,0-0.2,0c0,0.2,0,0.301,0,0.5c0,0.101,0.2,0,0.2,0    c0,0.2,0,0.4,0,0.7c0.2,0,0.3,0,0.5,0c0,0.2,0,0.3,0,0.4c0.1,0,0.2,0,0.2,0C5,56.8,5,57,5,57.1c0.2,0,0.3,0,0.5,0    c0,0.101,0,0.2,0,0.2c0.2,0,0.3,0,0.5,0C6,57.4,6,57.4,6,57.5c0.1,0,0.2,0,0.3,0c0-0.1,0-0.1,0-0.2c0.1,0,0.2,0,0.2,0    c0,0.101,0,0.2,0,0.2c0.4,0,0.8-0.1,1.2,0c0,0.1,0,0.3,0,0.4c0.2,0,0.3,0,0.5,0c0.1,0,0-0.2,0-0.2c0.2,0,0.3,0,0.4,0    c0-0.101,0-0.2,0-0.2c0.4,0,0.8,0,1.1,0c0,0.1,0,0.2,0,0.2s0.2,0,0.3,0c0-0.101,0-0.2,0-0.2c0.2,0,0.3-0.1,0.5,0c0-0.1,0-0.2,0-0.2    c0.1,0,0.2,0,0.2,0c0,0.101,0,0.3,0,0.4c0,0,0.2,0,0.3,0c0-0.101,0-0.2,0-0.2c0.2,0,0.4,0,0.6,0c0,0.1,0,0.2,0,0.2    c-0.1,0-0.2,0-0.2,0v0.2c-0.1,0-0.2,0-0.2,0c0,0.1,0,0.199,0,0.3c-0.1,0-0.2,0-0.2,0c0,0.1,0,0.2,0,0.3c0.1,0,0.2,0,0.2,0    c0,0.1,0,0.3,0,0.4c-0.1,0-0.1,0-0.2,0c0,0.199,0,0.3,0,0.5c-0.1,0-0.1,0-0.2,0c0,0.1,0,0.199,0,0.3c0.1,0,0.4,0,0.5,0    c0,0.2,0,0.3,0,0.399c0.1,0,0.2,0,0.3,0c0-0.1,0-0.199,0-0.199c0.2,0,0.3,0,0.5,0c0-0.101,0-0.2,0-0.2c0.1,0,0.2,0,0.2,0    c0,0.1,0,0.1,0,0.2h0.2c0,0.1,0,0.199,0,0.199c0.4,0,0.8,0,1.2,0c0-0.1,0-0.199,0-0.199c0.2,0,0.3,0,0.4,0c0-0.101,0-0.2,0-0.2    c0.5,0,0.9,0,1.4,0c0-0.101,0-0.2,0-0.2c0.1,0,0.3,0,0.4,0s0-0.2,0-0.2c0.1,0,0.1,0,0.2,0v-0.2c0.1,0,0.2,0,0.2,0    c0,0.101,0,0.101,0,0.2c0.1,0,0.2,0,0.3,0c0-0.1,0-0.2,0-0.2c0.1,0,0.3,0,0.2,0C16.6,59.2,16.5,59,16.6,58.9c0.1,0,0.3,0,0.4,0    c0-0.101,0-0.2,0-0.2c0.1,0,0.1,0,0.2,0c0.1,0,0-0.2,0-0.2c0.4,0,0.9,0,1.4,0c0,0.1,0,0.2,0,0.2c-0.2,0-0.5,0-0.7,0    c0,0.1,0,0.2,0,0.2c-0.2,0-0.5,0.1-0.7,0c0,0.1,0,0.199,0,0.199c-0.1,0-0.1,0-0.2,0c0,0.101,0,0.2,0,0.301c-0.1,0-0.1,0-0.2,0    c0,0.1,0,0.199,0,0.199c0.1,0,0.2,0,0.2,0c0,0.101,0,0.2,0,0.2c-0.1,0-0.2,0-0.2,0c0-0.1,0-0.2,0-0.2c-0.1,0-0.2,0-0.2,0    c0,0.101,0,0.2,0,0.301c-0.1,0-0.2,0-0.2,0c0,0.1,0,0.199,0,0.199c0.2,0,0.5,0,0.7,0c0,0.101,0,0.2,0,0.2c-0.1,0-0.2,0-0.2,0    c0,0.101,0,0.3,0,0.4c-0.1,0-0.1,0-0.2,0c0-0.101,0-0.2,0-0.2c-0.2,0-0.5,0-0.7,0c0,0.1,0,0.2,0,0.2c-0.1,0-0.2,0-0.2,0    c0,0.1,0,0.2,0,0.2c0.3,0,0.6,0,1,0c0,0.1,0,0.199,0,0.3c0.2,0,0.3,0,0.5,0c0,0.1,0,0.2,0,0.2c-0.3,0-0.6,0-0.9,0    c0,0.3,0,0.5,0,0.699c-0.2,0-0.3,0-0.5,0c0,0.101,0,0.2,0,0.2c-0.2,0-0.3,0-0.4,0c0,0.101,0,0.2,0,0.2c-0.3,0-0.6,0-0.9,0    c0,0.1,0,0.2,0,0.2c-0.2,0-0.3,0-0.4,0c0,0.3,0,0.5,0,0.7c0.1,0,0.2,0,0.2,0c0,0.1,0,0.3,0,0.399c-0.1,0-0.1,0-0.2,0    c-0.1,0,0,0.2,0,0.2c-0.1,0-0.2,0-0.2,0c0,0.1,0,0.3,0,0.4c-0.1,0-0.1,0-0.2,0c0,0.199,0,0.3,0,0.5c0.1,0,0.2,0,0.3,0    c0-0.101,0-0.2,0-0.2c0.2,0,0.3,0,0.4,0c0-0.101,0-0.2,0-0.2c0.2,0,0.3,0,0.4,0c0-0.1,0-0.199,0-0.199c0.1,0,0.1,0,0.2,0    s0-0.201,0-0.201c0.1,0,0.1,0,0.2,0V63.9c0.1,0,0.2,0,0.2,0c0-0.1,0-0.2,0-0.2c0.1,0,0.1,0,0.2,0c0.1,0,0-0.2,0-0.2    c0.2,0,0.3,0,0.4,0c0-0.1,0-0.199,0-0.199c0.1,0,0.1,0,0.2,0c0.1,0,0-0.201,0-0.201c0.2,0,0.3,0,0.4,0c0-0.1,0-0.199,0-0.199    c0.2,0,0.3,0,0.4,0c0-0.1,0-0.2,0-0.2c0.1,0,0.2,0,0.2,0c0-0.2,0-0.3,0-0.5c0.1,0,0.2,0,0.2,0c0-0.2,0-0.3,0-0.5c0.1,0,0.1,0,0.2,0    v-0.2c0.1,0,0.2,0,0.2,0c0-0.1,0-0.199,0-0.199c0.2,0,0.4,0,0.7,0c0-0.101,0-0.201,0-0.201c0.3,0,0.5,0,0.7,0    c0-0.1,0-0.199,0-0.199c0.1,0,0.2,0,0.2,0c0-0.301,0-0.6,0-0.9c0.1,0,0.1,0,0.2,0c0-0.2,0-0.3,0-0.5c0.3,0,0.5,0,0.7,0    c0-0.1,0-0.3,0-0.4c0.2,0,0.3,0,0.4,0c0-0.1,0-0.199,0-0.199c0.1,0,0.2,0,0.2,0c0-0.101,0-0.2,0-0.2c0.2,0,0.3,0,0.4,0    c0-0.101,0-0.2,0-0.2c0.1,0,0.1,0,0.2,0v-0.2c0.1,0,0.2,0,0.2,0c0-0.1,0-0.1,0-0.2c0.1,0,0.1,0,0.2,0s0-0.199,0-0.199    c0.2,0,0.3,0,0.4,0c0-0.101,0-0.2,0-0.2c0.1,0,0.2,0,0.2,0c0-0.101,0-0.2,0-0.2c0.1,0,0.2,0,0.2,0c0-0.1,0-0.2,0-0.2    c0.1,0,0.2,0,0.2,0c0-0.1,0-0.2,0-0.2c0.2,0,0.3,0,0.4,0c0-0.1,0-0.199,0-0.199c0.1,0,0.2,0,0.2,0c0-0.101,0-0.2,0-0.2    c0.1,0,0.2,0,0.2,0c0-0.101,0-0.2,0-0.2c0.1,0,0.1,0,0.2,0s0-0.2,0-0.2c0.2,0,0.3,0,0.4,0c0-0.1,0-0.2,0-0.2c0.1,0,0.2,0,0.2,0    c0-0.1,0-0.1,0-0.199c0.1,0,0.1,0,0.2,0v-0.2c0.1,0,0.1,0,0.2,0s0-0.2,0-0.2c0.1,0,0.1,0,0.2,0v-0.2c0.1,0,0.2,0,0.2,0    c0-0.1,0-0.1,0-0.2c0.1,0,0.2,0,0.2,0c0-0.1,0-0.1,0-0.199c0.1,0,0.2,0,0.2,0c0-0.101,0-0.2,0-0.2c0.2,0,0.3,0,0.4,0    c0-0.101,0-0.2,0-0.2c0.1,0,0.2,0,0.2,0c0-0.1,0-0.2,0-0.2c0.1,0,0.2,0,0.2,0c0-0.1,0-0.2,0-0.2c0.1,0,0.1,0,0.2,0    c0.1,0,0-0.199,0-0.199c0.1,0,0.1,0,0.2,0s0-0.2,0-0.2c0.2,0,0.3,0,0.4,0c0-0.101,0-0.2,0-0.3c0.1,0,0.2,0,0.2,0    c0-0.101,0-0.2,0-0.2c0.1,0,0.1,0,0.2,0c0.1,0,0-0.2,0-0.2c0.1,0,0.1,0,0.2,0s0-0.2,0-0.2c0.2,0,0.3,0,0.4,0c0-0.1,0-0.2,0-0.2    c0.1,0,0.2,0,0.2,0c0-0.1,0-0.199,0-0.199c0.1,0,0.2,0,0.2,0c0-0.101,0-0.2,0-0.2c0.2,0,0.3,0,0.5,0c0-0.101,0-0.2,0-0.2    c0.1,0,0.2,0,0.2,0c0-0.1,0-0.2,0-0.2c0.2,0,0.3,0,0.4,0c0-0.1,0-0.2,0-0.2c0.1,0,0.2,0,0.2,0c0-0.1,0-0.199,0-0.199    c0.2,0,0.3,0,0.4,0c0-0.101,0-0.2,0-0.2c0.1,0,0.2,0,0.2,0c0-0.101,0-0.2,0-0.2c0.2,0,0.3,0,0.4,0c0-0.1,0-0.2,0-0.2    c0.1,0,0.1,0,0.2,0c0-0.1,0-0.2,0-0.2c0.1,0,0.2,0,0.3,0c0-0.1,0-0.199,0-0.199c0.1,0,0.2,0,0.2,0c0-0.101,0-0.101,0-0.2    c0.1,0,0.1,0,0.2,0s0-0.2,0-0.2c0.2,0,0.3,0,0.4,0c0-0.1,0-0.2,0-0.3c0.1,0,0.2,0,0.2,0c0-0.101,0-0.2,0-0.2c0.1,0,0.2,0,0.3,0    c0-0.1,0-0.2,0-0.2c0.1,0,0.1,0,0.2,0s0-0.2,0-0.2c0.1,0,0.1,0,0.2,0V48.9c0.1,0,0.2,0,0.2,0c0-0.101,0-0.2,0-0.2    c0.1,0,0.2,0,0.2,0c0-0.101,0-0.2,0-0.2c0.2,0,0.3,0,0.4,0c0-0.1,0-0.2,0-0.2c0.1,0,0.2,0,0.2,0c0-0.1,0-0.2,0-0.2    c0.1,0,0.1,0,0.2,0c0-0.1,0-0.199,0-0.199c0.1,0,0.2,0,0.2,0c0-0.101,0-0.2,0-0.2c0.1,0,0.2,0,0.2,0c0-0.101,0-0.2,0-0.2    c0.1,0,0.2,0,0.2,0c0-0.1,0-0.2,0-0.2c0.1,0,0.2,0,0.2,0c0-0.1,0-0.2,0-0.2c0.1,0,0.1,0,0.2,0V46.9c0.1,0,0.1,0,0.2,0    c0.1,0,0-0.2,0-0.2c0.1,0,0.1,0,0.2,0c0.1,0,0-0.2,0-0.2c0.199,0,0.3,0,0.399,0c0-0.1,0-0.2,0-0.2c0.101,0,0.2,0,0.2,0    c0-0.1,0-0.2,0-0.3c0.2,0,0.3,0,0.4,0c0,0.1,0,0.2,0,0.2c0.199,0,0.3,0,0.5,0c0,0.1,0,0.1,0,0.2c0,0.1,0.199,0,0.199,0    c0,0.1,0,0.1,0,0.199h0.2c0,0.101,0,0.2,0,0.2c0.101,0,0.2,0,0.2,0c0,0.101,0,0.101,0,0.2c0.2,0,0.3,0,0.5,0c0,0.3,0,0.6,0,1    c0.1,0,0.2,0,0.2,0c0,0.1,0,0.2,0,0.2c0.1,0,0.1,0,0.2,0c0,0.1,0,0.2,0,0.2c0.1,0,0.199,0,0.199,0c0,0.1,0,0.199,0,0.199    c0.101,0,0.2,0,0.2,0c0,0.101,0,0.2,0,0.2c0.3,0,0.5,0,0.7,0c0,0.101,0,0.101,0,0.2c0.2,0,0.3,0,0.5,0c0,0.1,0,0.1,0,0.2    c0.1,0,0.2,0,0.3,0c0,0.1,0,0.2,0,0.3c0.101,0,0.3,0,0.4,0c0,0.1,0,0.2,0,0.2c0.1,0,0.1,0,0.2,0c0,0.1,0,0.1,0,0.2    c0.199,0,0.3,0,0.5,0c0,0.1,0,0.199,0,0.199c0.1,0,0.199,0,0.3,0c0,0.101,0,0.2,0,0.301c0.1,0,0.2,0,0.2,0c0,0.1,0,0.1,0,0.199    H42.6c0,0.101,0,0.101,0,0.2c0.101,0,0.2,0,0.301,0c0,0.101,0,0.2,0,0.2c0.1,0,0.199,0,0.199,0c0,0.1,0,0.1,0,0.2    c0.101,0,0.2,0,0.2,0c0,0.1,0,0.2,0,0.3c0.101,0,0.2,0,0.2,0c0,0.1,0,0.2,0,0.2c0.1,0,0.2,0,0.2,0c0,0.2,0,0.3,0,0.399    c0.1,0,0.2,0,0.2,0c0,0.101,0,0.2,0,0.2c0.1,0,0.199,0,0.199,0c0,0.101,0,0.2,0,0.2c0.101,0,0.201,0,0.201,0c0,0.1,0,0.1,0,0.2    H44.5c0,0.1,0,0.1,0,0.2h0.2c0,0.1,0,0.1,0,0.199c0.2,0,0.3,0,0.5,0c0,0.101,0,0.101,0,0.2c0.2,0,0.3,0,0.5,0    c0,0.101,0,0.101,0,0.2s0.2,0,0.2,0c0,0.2,0,0.3,0,0.5c0.1,0,0.199,0,0.199,0c0,0.2,0,0.3,0,0.4c0.101,0,0.201,0,0.301,0    c0,0.1,0,0.199,0,0.199c0.1,0,0.199,0,0.199,0c0,0.101,0,0.101,0,0.2h0.201c0,0.101,0,0.101,0,0.2S47,55,47,55c0,0.1,0,0.1,0,0.2    h0.2c0,0.1,0,0.2,0,0.2c0.101,0,0.2,0,0.2,0c0,0.1,0,0.199,0,0.199c0.1,0,0.199,0,0.199,0c0,0.101,0,0.101,0,0.2    c0.101,0,0.201,0,0.301,0c0,0.101,0,0.2,0,0.2c0.199,0,0.3,0,0.4,0c0,0.1,0,0.1,0,0.2c0.199,0,0.299,0,0.5,0c0,0.1,0,0.2,0,0.2    c0.1,0,0.199,0,0.199,0c0,0.1,0,0.199,0,0.199c0.2,0,0.301,0,0.5,0c0,0.101,0,0.101,0,0.2c0.2,0,0.301,0,0.5,0    c0,0.101,0,0.101,0,0.2c0.2,0,0.301,0,0.5,0c0,0.1,0,0.1,0,0.2c0.2,0,0.301,0,0.5,0c0,0.1,0,0.2,0,0.2c0.1,0,0.301,0,0.4,0    c0,0.1,0,0.1,0,0.199c0,0.101,0.199,0,0.199,0c0,0.101,0,0.101,0,0.2c0.201,0,0.301,0,0.5,0c0,0.101,0,0.101,0,0.2h0.201    c0,0.1,0,0.1,0,0.2c0.199,0,0.299,0,0.5,0c0,0.1,0,0.1,0,0.2H53c0,0.1,0,0.1,0,0.199c0.1,0,0.2,0,0.301,0c0,0.101,0,0.2,0,0.2    c0.5,0,1.1,0,1.699,0c0,0.101,0,0.2,0,0.2c0.2,0,0.4,0,0.7,0c0,0.1,0,0.1,0,0.2c0.2,0,0.3,0,0.5,0c0,0.1,0,0.1,0,0.2    c0.3,0,0.5,0,0.7,0c0.1,0,0-0.2,0-0.2c0.3,0,0.6,0,0.9,0c0,0.1,0,0.1,0,0.2c0.1,0,0.199,0,0.299,0c0-0.2,0-0.301,0-0.5    c0-0.101-0.199,0-0.199,0c0-0.101,0-0.301,0-0.4c-0.1,0-0.2,0-0.301,0c0-0.1,0-0.1,0-0.2c-0.199,0-0.399,0-0.699,0    c0-0.1,0-0.2,0-0.2c-0.2,0-0.301,0-0.5,0c0-0.1,0-0.199,0-0.199s-0.2,0-0.301,0c0-0.101,0-0.2,0-0.301c-0.1,0-0.199,0-0.199,0    c0-0.1,0-0.3,0-0.399c0.1,0,0.1,0,0.199,0c0,0.1,0,0.2,0,0.2C58.1,59.2,58.3,59.2,58.3,59.2z M46,5.9c0.1,0,0.2,0,0.2,0    c0-0.1,0-0.2,0-0.3c-0.101,0-0.2,0-0.2,0C46,5.7,46,5.8,46,5.9z M46,6.8c0.1,0,0.2,0,0.3,0c0-0.2,0-0.3,0-0.5c-0.1,0-0.2,0-0.2,0    C46,6.5,46,6.7,46,6.8z M43.6,8c0.101,0,0.2,0,0.2,0c0-0.1,0-0.2,0-0.2c-0.1,0-0.2,0-0.2,0C43.6,7.9,43.6,7.9,43.6,8z M42.9,8.5    c0.199,0,0.3,0.1,0.5,0c0,0,0-0.2,0-0.3c-0.2,0-0.301,0-0.5,0C42.9,8.3,42.9,8.4,42.9,8.5z M42.2,10.2c0.1,0,0.2,0,0.3,0    c0-0.1,0-0.2,0-0.3C42.2,9.9,42.1,9.9,42.2,10.2z M39.8,10.4c0.2,0,0.3,0,0.5,0c0-0.1,0-0.2,0-0.3c-0.2,0-0.3,0-0.5,0    C39.8,10.2,39.8,10.3,39.8,10.4z M40.3,10.9c0.101,0,0.2,0,0.3,0c0-0.1,0-0.2,0-0.2c-0.1,0-0.199,0-0.3,0    C40.3,10.7,40.3,10.8,40.3,10.9z M40.8,11.6c0.101,0,0.2,0,0.2,0c0-0.1,0-0.2,0-0.2c-0.1,0-0.2,0-0.2,0S40.8,11.5,40.8,11.6z     M40.5,12c0-0.1,0-0.3,0-0.5c-0.2,0-0.3,0-0.5,0c0,0.1,0,0.2,0,0.2c0.1,0,0.2,0,0.2,0c0,0.1,0,0.2,0,0.2C40.4,12,40.5,12.1,40.5,12    z M9.7,38.3c0.1,0,0.2,0,0.3,0c0-0.2,0-0.3,0-0.5c-0.1,0-0.2,0-0.3,0C9.7,38,9.7,38.2,9.7,38.3z M67.8,44.7c0,0,0,0.1,0,0.2l0,0    l0,0c0.3,0,0.101,0,0,0C67.8,44.9,67.8,44.8,67.8,44.7z M68.9,47.8c-0.101,0-0.101,0-0.2,0c0,0.101,0,0.2,0,0.2c0.2,0,0.3,0,0.5,0    c0-0.2,0-0.3,0-0.5c-0.101,0-0.2,0-0.2,0C68.9,47.7,69,47.8,68.9,47.8z M58.5,59.7c0.1,0,0.2,0,0.3,0c0-0.101,0-0.2,0-0.3    c-0.1,0-0.2,0-0.3,0C58.5,59.5,58.5,59.6,58.5,59.7z M12.3,64.2c0.1,0,0.1,0,0.2,0c0,0.1,0,0.2,0,0.2c0.1,0,0.3,0,0.5,0    c0,0.1,0,0.199,0,0.199c0.1,0,0.2,0,0.2,0c0-0.1,0-0.199,0-0.3c-0.1,0-0.1,0-0.2,0c0-0.1,0-0.1,0-0.2c-0.1,0-0.2,0-0.3,0    c0-0.1,0-0.199,0-0.199c-0.2,0-0.3,0-0.5,0C12.3,64,12.3,64.1,12.3,64.2z"/><path id="path14" fill="#EB2227" d="M29.4,15.8c0.3-0.2,0.5-0.5,0.9-0.4c0.3,0.1,0.4,0.4,0.5,0.7c0.2,0.4,0.7,0.7,0.6,1.3    c-0.1,0.9-0.6,1.8-0.9,2.7c-0.7,1.5-1,3.2-1.4,4.8c1.2-0.2,2.5-0.4,3.7-0.5c0.6-0.1,1.1,0.6,0.8,1.1c-0.7,1.3-1.4,2.6-1.9,3.9    c-0.1,0.3-0.2,0.5-0.2,0.8c0.5,0,0.7-0.4,1-0.7c1.2-1.4,2.2-2.9,2.8-4.5c0.2-0.3,0.1-0.7,0.4-0.9c0.399-0.3,1.1-0.5,1.6-0.2    c0.4,0.3,0.101,0.8,0.101,1.1c0.399-0.5,0.8-0.9,1.3-1.3c0.6-0.4,1.5,0,1.8,0.6c0.2,0.3-0.1,0.7-0.3,0.9c-0.5,0.5-1.3,0.4-1.9,0.7    c-0.7,0.2-1.2,0.8-1.6,1.4c-0.8,1.1-1.5,2.5-1.6,3.9c0,0.2,0,0.4-0.2,0.5c-0.3,0.2-0.7,0.4-1.1,0.4c-0.3,0-0.6-0.3-0.6-0.6    c-0.1-0.4,0-0.9,0.1-1.3c-0.5,0.8-1.1,1.5-1.8,2.1c-0.4,0.3-0.9,0.5-1.4,0.3c-0.4-0.2-0.5-0.6-0.6-1c-0.1-0.8,0.2-1.6,0.4-2.3    c0.4-1.1,0.9-2.2,1.5-3.3c-0.9,0.2-1.7,0.4-2.6,0.6c-0.4,1.7-0.5,3.4-0.7,5.1c-0.1,0.4,0,0.9-0.3,1.3c-0.4,0.5-1.2,0.5-1.5,0    c-0.4-0.6-0.4-1.3-0.4-1.9c0.1-1.3,0.4-2.7,0.7-4c-1,0.3-2,0.6-3,0.9c-0.7,1.4-1.4,2.8-2.1,4.2c-0.6,1.5-1.3,3-1.7,4.7    C19.7,37.3,19.5,37.8,19,37.8c-0.9,0-1.6-1-1.4-1.8c0.3-1.1,0.8-2.2,1.3-3.3c0.5-1.2,1.1-2.4,1.7-3.6c-0.8,0.3-1.6,0.7-2.4,1.1    c-0.3,0.2-0.8,0.1-1.1-0.2c-0.4-0.6-0.3-1.5,0.4-1.9c1.3-0.6,2.7-1.1,4.1-1.5c0.1,0,0.3-0.1,0.4-0.2c1.6-2.8,3.3-5.6,5.3-8.1    C28,17.3,28.6,16.5,29.4,15.8 M24.7,25.7c0.8-0.2,1.6-0.3,2.3-0.5c0.5-2.2,1.2-4.2,2-6.2C27.4,21.1,26,23.4,24.7,25.7z"/><path id="path16" fill="#EB2227" d="M39.2,28.5c0.3-0.2,0.6-0.5,1-0.5c0.3,0.1,0.3,0.4,0.399,0.6c0.101,0.3,0.301,0.5,0.5,0.7    c0.2,0.3,0.101,0.7,0,1.1c-0.3,1-0.8,2-1.199,3.1c-0.4,1.1-0.601,2.3-0.9,3.4c0.6-0.101,1.3-0.2,1.8,0.1c0.101,0.4,0,1-0.399,1.1    c-0.601,0.2-1.2,0.2-1.7,0.5C38.4,40.2,38.2,41.9,38,43.5c0,0.4,0,0.7-0.1,1C37.7,45,37.1,45.2,36.6,44.9    C36.2,44.7,36.1,44.2,36,43.8c-0.1-0.5,0-1.1,0-1.6c0.2-1.101,0.4-2.101,0.6-3.2c-1,0.3-1.899,0.5-2.899,0.9    c-1.3,2.5-2.5,5.1-3.4,7.8c-0.2,0.5-0.2,1.3-0.8,1.5c-0.9,0.2-1.7-0.9-1.4-1.7c0.8-2.3,1.8-4.5,2.9-6.6c-0.8,0.3-1.5,0.699-2.2,1.1    c-0.2,0.2-0.6,0.2-0.8,0c-0.4-0.3-0.3-0.9-0.3-1.4c0.2-0.5,0.8-0.6,1.3-0.899c1.1-0.5,2.3-0.9,3.4-1.2c1.3-2.2,2.6-4.4,4.1-6.5    C37.2,30.8,38.1,29.6,39.2,28.5 M34.8,37.8c0.7-0.2,1.4-0.3,2.2-0.5c0.5-2,1.1-4,1.8-5.9C37.4,33.5,36.1,35.7,34.8,37.8z"/><path id="path18" fill="#EB2227" d="M48.7,32.1c0.5-0.2,1.2-0.1,1.3,0.5c0.2,1-0.8,1.9-1.7,1.7c-0.3-0.1-0.6-0.4-0.6-0.8    C47.6,32.9,48.1,32.3,48.7,32.1z"/><path id="path20" fill="#EB2227" d="M34.1,20.6c0.5-0.2,1.1-0.1,1.4,0.4c0.3,0.9-0.4,1.8-1.3,2c-0.5,0.1-1-0.2-1.1-0.7    C32.9,21.5,33.4,20.8,34.1,20.6z"/><path id="path22" fill="#EB2227" d="M52.5,34.7c0.4-0.2,1-0.3,1.3,0.1c0.2,0.2,0.3,0.5,0.4,0.8c0.3,0.2,0.8,0.301,1,0.601    c0.1,0.2,0,0.5-0.2,0.7c-0.5,0.8-1,1.6-1.3,2.5C53.6,39.6,53.5,39.9,53.8,40.1c0.3,0.101,0.5-0.199,0.601-0.3    C54.8,39.4,55.1,38.9,55.5,38.4c0.1-0.2,0.4-0.301,0.6-0.2c0.2,0.1,0.2,0.3,0.101,0.399c-0.3,0.801-0.8,1.5-1.4,2.2    C54.3,41.4,53.7,41.9,53,42.1C52.7,42.2,52.2,42.2,51.9,42c-0.301-0.2-0.301-0.6-0.4-0.9c-0.5,0.5-1,1.101-1.7,1.4    c-0.5,0.3-1.3,0.2-1.6-0.3c-0.3-0.4-0.3-0.9-0.3-1.4c-0.601,0.8-1.2,1.601-2,2.2c-0.4,0.3-0.9,0.5-1.301,0.3    c-0.399-0.2-0.6-0.8-0.5-1.2c0.101-1,0.5-2,1-2.899c0.5-1.101,1.2-2.2,1.601-3.3c0.399-0.5,1.2-0.7,1.7-0.2    c0.199,0.2,0.199,0.6,0.1,0.8c-0.7,1.3-1.5,2.6-2.1,3.9C46.3,40.6,46.3,40.8,46.3,41c0.4,0,0.7-0.4,0.9-0.7    c1.1-1.399,2.1-2.899,3.3-4.2C51.1,35.6,51.7,35,52.5,34.7 M52.6,36.4c-1,0.899-1.699,2.1-2.3,3.3c-0.2,0.399-0.399,0.8-0.2,1.2    c0.601-0.2,1-0.7,1.4-1.2c0.7-0.9,1.3-2,1.7-3.101c0.1-0.199,0.2-0.5,0-0.6C52.9,36.1,52.7,36.2,52.6,36.4z"/><path id="path24" fill="#EB2227" d="M43.1,36.2C43.6,36.1,44.2,36.1,44.7,36.3c0.3,0.2,0.6,0.5,0.6,0.9c-0.1,0.399-0.3,0.7-0.5,1    c-0.1,0.2-0.399,0.1-0.6,0.1c-0.2-0.3-0.4-0.7-0.8-0.8c-0.4,0-0.801,0.2-0.9,0.5c-0.2,0.5-0.2,1,0.1,1.4    c0.301,0.5,0.801,0.899,0.9,1.5c0.1,1-0.3,2.1-1.2,2.6c-0.7,0.5-1.5,0.7-2.399,0.6C39.3,44,38.8,43.7,38.5,43.1    c-0.2-0.399,0.1-0.899,0.3-1.3c0.101-0.2,0.3-0.6,0.601-0.399c0.399,0.399,0.8,0.8,1.3,0.899c0.3,0.101,0.8,0,0.8-0.399    c0-0.4-0.3-0.7-0.5-1c-0.5-0.7-0.5-1.601-0.3-2.4C41.3,37.6,42,36.6,43.1,36.2z"/></g></svg>