<svg xmlns="http://www.w3.org/2000/svg" version="1.1" id="Layer_1" x="0px" y="0px" width="70px" height="70px" viewBox="0 0 70 70" enable-background="new 0 0 70 70" xml:space="preserve"><rect width="70" fill="#0D96D4" height="70"/><g><path fill="#FFFFFF" d="M15.001,33.663c-1.873,0-3.264,1.397-3.264,3.12v0.021c0,1.723,1.381,3.099,3.243,3.099   c1.875,0,3.265-1.397,3.265-3.12v-0.022C18.245,35.039,16.864,33.663,15.001,33.663 M16.563,36.805   c0,0.884-0.584,1.634-1.562,1.634c-0.941,0-1.581-0.772-1.581-1.655v-0.022c0-0.882,0.584-1.633,1.56-1.633   c0.943,0,1.583,0.771,1.583,1.656V36.805z"/><path fill="#FFFFFF" d="M37.96,38.41h-2.673c0,0,0.796-2.767,0.824-2.844c0.027-0.078,0.129-0.371,0.373-0.371h1.106   c0.191,0,0.37,0.155,0.37,0.371V38.41z M38.734,33.57h-3.142c-0.637,0-0.817,0.667-0.893,0.894   c-0.073,0.227-1.189,3.946-1.189,3.946h-0.287c-0.41,0-0.746,0.333-0.746,0.748c0,0.411,0.336,0.743,0.746,0.743h5.511   c0.393,0,0.892-0.306,0.892-0.889v-4.548C39.626,33.88,39.127,33.57,38.734,33.57"/><path fill="#FFFFFF" d="M22.668,38.276c-0.864,0.24-1.769-0.292-2.021-1.19c-0.251-0.903,0.242-1.827,1.105-2.069   c0.864-0.241,1.766,0.292,2.018,1.19C24.026,37.111,23.529,38.035,22.668,38.276 M25.436,35.742   c-0.484-1.723-2.32-2.719-4.101-2.221c-0.286,0.08-0.548,0.195-0.791,0.339c-0.004-0.23-0.021-0.597,0.251-0.872   c0.384-0.384,1.147-0.619,1.24-0.645c0.274-0.074,1.143-0.325,1.789-0.499c0.644-0.174,0.735-0.656,0.638-1.015   c-0.098-0.361-0.577-0.582-1.038-0.458c-0.458,0.124-1.188,0.317-1.907,0.516c-0.723,0.198-1.341,0.576-1.772,0.97   c-0.429,0.393-0.72,0.857-0.832,1.549c-0.192,1.18-0.106,2.681-0.042,3.432c0.011,0.236,0.045,0.477,0.112,0.715   c0.483,1.726,2.319,2.718,4.102,2.22C24.867,39.273,25.919,37.468,25.436,35.742"/><path fill="#FFFFFF" d="M10.302,33.617c-0.002,0-0.005,0-0.009,0l0,0H8.831H8.154H6.692l0,0c-0.004,0-0.007,0-0.01,0   c-0.487,0-0.882,0.399-0.882,0.886v4.566c0,0.486,0.395,0.88,0.882,0.88c0.486,0,0.882-0.394,0.882-0.88v-3.457   c0-0.215,0.179-0.37,0.369-0.37h0.302h0.513h0.303c0.189,0,0.369,0.155,0.369,0.37v3.457c0,0.486,0.396,0.88,0.881,0.88   c0.488,0,0.884-0.394,0.884-0.88v-4.566C11.186,34.017,10.79,33.617,10.302,33.617"/><path fill="#FFFFFF" d="M32.406,36.187c0-0.61-0.181-1.344-0.792-1.954c-0.5-0.495-1.235-0.821-2.261-0.821   c-1,0-1.79,0.326-2.347,0.874c-0.553,0.557-0.902,1.358-0.902,2.301c0,0.977,0.334,1.806,0.929,2.407   c0.585,0.584,1.444,0.911,2.512,0.911c0.612,0,1.235-0.069,1.806-0.3c0.526-0.204,0.79-0.462,0.79-0.834   c0-0.393-0.291-0.719-0.68-0.719c-0.459,0-0.82,0.421-1.792,0.421c-0.899,0-1.47-0.447-1.637-1.275h3.471   C32.072,37.198,32.406,36.83,32.406,36.187 M28.021,36.011c0.125-0.72,0.582-1.181,1.346-1.181c0.75,0,1.208,0.529,1.263,1.181   H28.021z"/><path fill="#FFFFFF" d="M45.752,36.151c-0.021-0.257-0.217-1.083-0.808-1.675c-0.531-0.554-1.232-0.892-2.205-0.892   c-0.557,0-0.864,0.002-1.383,0.221c-0.479,0.192-0.719,0.438-0.719,0.79c0,0.374,0.265,0.682,0.618,0.682   c0.417,0,0.408-0.307,1.291-0.307c0.721,0,1.207,0.329,1.418,0.942c-0.544-0.255-1.143-0.268-1.143-0.268s-2.096-0.188-2.549,1.656   c-0.231,1.259,0.499,2.366,2.031,2.561c1.34,0.087,1.996-0.465,1.996-0.465c0.14,0.234,0.394,0.394,0.688,0.394   c0.439,0,0.799-0.356,0.799-0.8C45.788,38.985,45.801,36.779,45.752,36.151 M42.938,38.736c-0.671,0-1.218-0.428-1.218-0.956   s0.547-0.955,1.218-0.955c0.673,0,1.219,0.427,1.219,0.955S43.61,38.736,42.938,38.736"/><path fill="#FFFFFF" d="M52.301,37.314c0,1.426-1.158,2.583-2.583,2.583c-1.427,0-2.584-1.157-2.584-2.583s1.157-2.583,2.584-2.583   C51.143,34.731,52.301,35.888,52.301,37.314"/><path fill="#93C1E8" d="M58.501,37.312c0,1.426-1.159,2.582-2.585,2.582s-2.581-1.156-2.581-2.582c0-1.429,1.155-2.585,2.581-2.585   S58.501,35.883,58.501,37.312"/><path fill="#5FA8DC" d="M64.7,37.319c0,1.427-1.158,2.583-2.584,2.583c-1.427,0-2.583-1.156-2.583-2.583s1.156-2.584,2.583-2.584   C63.542,34.735,64.7,35.893,64.7,37.319"/></g></svg>