<svg xmlns="http://www.w3.org/2000/svg" version="1.1" id="Layer_1" x="0px" y="0px" width="70" height="70" viewBox="0 0 70 70" xml:space="preserve" style="enable-background:new 0 0 70 70;"><style type="text/css">
	.st0{fill:#6BCCE0;}
	.st1{fill:#00A6CE;}
	.st2{fill:#881C55;}
	.st3{fill:#BDBBBB;}
	.st4{fill:#AF1F65;}
</style><g><path d="M26,16.3c-5.5-0.7-8.3,2.3-12.1,5.1L0.8,31.7l0,0L3.3,33c0,0,0,0,0,0c3.3,1.6,7.9,1.1,11-1.2l5.5-4.4l2.1-1.7   l10.6-8.4L26,16.3z" class="st0"/><path d="M0.8,31.7L3.3,33c0,0,0,0,0,0c3.3,1.6,7.9,1.1,11-1.2l5.5-4.4l2.1-1.7L0.8,31.7z" class="st1"/><path d="M48.5,22.6l-7.1-1.3c0,0-4.9-1.2-9,2c0,0-3,2.3-5.3,4l-5,3.9l-11.5,9.1l0,0l-0.1,0.1l3.5,1.8   c3.3,1.6,7.9,1.1,11-1.2L35.3,33l8.3-6.5L48.5,22.6z" class="st2"/><path d="M27.1,27.4c2.2-1.7,5.3-4,5.3-4c0.8-0.6,1.6-1,2.4-1.4L22,25.7h0l-2.1,1.7l-5.5,4.4c-3.1,2.3-7.7,2.9-11,1.2   c2.8,1.7,7.2,2.1,13.7,0.1l4.5-1.3l0.6-0.5L27.1,27.4z" class="st3"/><path d="M45.2,31.3c2.1-1.7,3.7-2.9,5.3-3.6l-14.3,4.6L35.3,33L25,41.1c-3.1,2.3-7.7,2.9-11,1.2   c5.1,2.8,12.9,0.7,19.4-1.6l0,0l0.4-0.3C33.8,40.5,44.8,31.6,45.2,31.3z" class="st3"/><path d="M62,40.5c-5.8-1.7-7.5-0.6-14.3,1.4l0,0l-0.6,0.5l0,0l0,0l0,0l0,0l-10.9,8.7c-3.1,2.3-8,2.8-11.3,1.1   c4.1,2.1,8.3,1.6,15.4-0.6l28.8-8.8L62,40.5z" class="st3"/><path d="M64,28.6l-7.6-1.4c-4.6-0.8-6.7,0.6-11.2,4.1c-0.4,0.3-11.4,9.2-11.4,9.2l0,0l-12.3,9.9l3.5,1.8   c3.3,1.6,8.2,1.2,11.3-1.1l10.9-8.7l0,0l0,0L64,28.6z" class="st2"/><polygon points="21.5,31.8 45.9,24.7 36.2,32.3 10.6,40.5  " class="st4"/><polygon points="33.4,40.8 60,31.9 47.8,42 21.5,50.4  " class="st4"/></g></svg>