<svg xmlns="http://www.w3.org/2000/svg" version="1.0" id="body_1" width="70" height="70" viewBox="0 0 70 70" contentScriptType="text/ecmascript" contentStyleType="text/css" preserveAspectRatio="xMidYMid meet" zoomAndPan="magnify"><g transform="matrix(0.28000003 0 0 0.28000003 0 0)"><g><path fill="#003A70" d="M123.22 92.36C 123.22 98.64 121.41 99.71 115.66 99.71C 109.8 99.71 107.990005 98.65 107.990005 92.36C 107.990005 86.72 109.8 85.87 115.66 85.87C 121.41 85.87 123.22 86.72 123.22 92.36zM122.15 162.64L108.950005 162.64L108.950005 108.44L122.15 108.44L122.15 162.64z" fill-rule="nonzero" stroke="none"/><path fill="#003A70" d="M177.84 159.87C 171.03 162.53 160.91 164.12999 153.34999 164.12999C 136.20999 164.12999 130.45999 160.18999 130.45999 146.02998C 130.45999 130.69998 139.07999 128.24998 151.76 128.24998C 156.34 128.24998 160.59999 128.77998 165.18 129.73999C 165.18 120.259995 162.93999 117.91999 151.65999 117.91999C 145.69998 117.91999 139.72998 118.97999 135.26 120.579994L135.26 120.579994L132.81 109.71999C 138.45 108.229996 146.65 106.84999 154.43 106.84999C 170.51 106.84999 177.85999 111.74999 177.85999 127.92999L177.85999 127.92999L177.85999 159.87L177.84 159.87zM165.17 138.68C 162.19 138.04 158.36 137.71999 154.42 137.71999C 146.97 137.71999 144.3 138.56999 144.3 145.48999C 144.3 152.84 146.32 154.01 154.31 154.01C 158.14 154.01 162.08 153.26 165.17 152.2L165.17 152.2L165.17 138.68z" fill-rule="nonzero" stroke="none"/><path fill="#003A70" d="M201.77 92.36C 201.77 98.64 199.96 99.71 194.21 99.71C 188.35 99.71 186.54001 98.65 186.54001 92.36C 186.54001 86.72 188.35 85.87 194.21 85.87C 199.96 85.87 201.77 86.72 201.77 92.36zM200.71 162.64L187.51001 162.64L187.51001 108.44L200.71 108.44L200.71 162.64z" fill-rule="nonzero" stroke="none"/><path fill="#003A70" d="M211.7 108.44L224.9 108.44L224.9 112.490005C 226.81999 109.51 230.97 106.850006 238.73999 106.850006C 240.54999 106.850006 242.35999 106.96001 244.27998 107.170006L244.27998 107.170006L244.27998 119.740005C 242.35999 119.310005 239.69998 118.990005 237.35999 118.990005C 230.75998 118.990005 224.89998 121.12 224.89998 125.060005L224.89998 125.060005L224.89998 162.65001L211.69998 162.65001L211.69998 108.44L211.7 108.44z" fill-rule="nonzero" stroke="none"/><path fill="#003A70" d="M48.57 128.59L53.11 128.59L53.11 127.63C 53.11 111.439995 45.760002 106.549995 29.68 106.549995C 21.91 106.549995 13.71 107.92999 8.059999 109.42L8.059999 109.42L10.509999 120.28C 14.98 118.68 20.939999 117.619995 26.91 117.619995C 38.2 117.619995 40.43 119.95999 40.43 129.44C 35.85 128.48 31.59 127.950005 27.01 127.950005C 14.34 127.950005 5.710001 130.40001 5.710001 145.73001C 5.710001 159.89001 11.460001 163.83002 28.6 163.83002C 36.16 163.83002 46.28 162.23001 53.09 159.57002L53.09 159.57002L53.09 140.39001L48.57 128.59zM40.43 151.9C 37.34 152.95999 33.4 153.70999 29.57 153.70999C 21.58 153.70999 19.56 152.54 19.56 145.18999C 19.56 138.26999 22.22 137.41998 29.68 137.41998C 33.62 137.41998 37.45 137.73999 40.43 138.37999L40.43 138.37999L40.43 151.9z" fill-rule="nonzero" stroke="none"/><path fill="#64A70B" d="M104.37 108.44C 97.62 126.04 90.490005 144.94 83.700005 162.64C 83.47 162.17 82.600006 161.34 82.51 161.08C 80.21 155.09 77.62 152.24 75.350006 146.24C 75.200005 145.85 75.23 145.29001 75.380005 144.89C 79.41 134.32 84.78001 120.15 88.83 109.59C 89.04 109.03999 89.33 108.439995 90.05 108.439995C 90.75 108.45 104.37 108.44 104.37 108.44z" fill-rule="nonzero" stroke="none"/><path fill="#84BD00" d="M55.68 129.44L67.61 129.44C 67.61 129.44 70.93 129.34 72.18 132.66C 73.43 135.98001 83.7 162.64 83.7 162.64L83.7 162.64L68.44 162.64L55.68 129.44z" fill-rule="nonzero" stroke="none"/></g></g></svg>