<svg xmlns="http://www.w3.org/2000/svg" version="1.1" id="Layer_1" x="0px" y="0px" width="70px" height="70px" viewBox="0 0 70 70" enable-background="new 0 0 70 70" xml:space="preserve"><rect id="XMLID_1639_" x="0" width="70" fill="#0047BA" height="70"/><g><g><g><defs><path id="XMLID_166_" d="M10.458,27.652c-4.205,0-6.283,2.032-6.283,2.032l1.937,2.835c0.85-0.52,2.551-1.276,4.016-1.276      c1.465,0,2.787,0.803,2.787,1.937c0,0.52,0,0.898,0,0.898s-0.945-0.52-2.929-0.52c-1.984,0-6.283,0.709-6.283,4.441      s3.59,4.724,6.52,4.724c0.839,0,1.78-0.107,2.694-0.273l4.393-0.799c0,0,0-4.597,0-8.188      C17.309,29.873,14.663,27.652,10.458,27.652z M12.915,39.324c0,0,0,0-0.936,0.172c-0.349,0.064-0.815,0.109-1.426,0.109      c-1.842,0-2.409-1.134-2.409-1.701s0.567-1.606,2.504-1.606c1.937,0,2.268,0.331,2.268,0.331V39.324z"/></defs><clipPath id="XMLID_2_"><use xmlns:xlink="http://www.w3.org/1999/xlink" xlink:href="#XMLID_166_" overflow="visible"/></clipPath><g clip-path="url(#XMLID_2_)"><rect x="1.416" y="26.098" width="18.18" fill="#FFFFFF" height="18.18"/><polygon id="XMLID_537_" points="2.487,36.472 17.994,33.652 17.994,35.313 2.487,38.133     " fill="#82BC00"/><polygon id="XMLID_536_" points="2.487,35.974 12.915,34.078 17.994,33.154 17.994,27.669 2.487,30.489     " fill="#DA3AB3"/><polygon id="XMLID_409_" points="2.487,45.01 17.994,42.19 17.994,38.898 2.487,41.719     " fill="#00ADBB"/><polygon id="XMLID_408_" points="17.994,25.335 2.487,28.155 2.487,29.991 17.994,27.171     " fill="#E84B37"/><polygon points="2.487,38.631 2.487,39.122 9.924,37.77 9.924,37.279     " fill="#EA1D76"/><polygon points="17.994,35.811 10.763,37.126 10.763,37.617 17.994,36.302     " fill="#A58D28"/><polygon points="12.091,32.224 2.487,34.313 2.487,35.974 12.915,34.078     " fill="#00AF41"/><polygon points="17.994,36.8 12.915,37.724 12.915,39.324 17.994,38.401     " fill="#00AEEF"/><polygon points="2.487,39.62 2.487,41.221 12.915,39.324 12.915,37.724     " fill="#F7A800"/></g></g><g><path id="XMLID_1801_" fill="#FFFFFF" d="M51.121,20.333l-4.442,0.808c0,0.72,0,3.168,0,4.47l4.442-0.808V20.333z"/><path id="XMLID_1798_" fill="#FFFFFF" d="M59.436,27.65c-4.205,0-6.285,2.032-6.285,2.032l1.937,2.835     c0.851-0.52,2.552-1.276,4.016-1.276c1.465,0,2.788,0.803,2.788,1.937c0,0.52,0,0.898,0,0.898s-0.945-0.52-2.93-0.52     c-1.985,0-6.284,0.709-6.284,4.442s3.591,4.725,6.521,4.725c0.839,0,1.781-0.107,2.694-0.273l4.394-0.799c0,0,0-4.598,0-8.189     C66.287,29.871,63.641,27.65,59.436,27.65z M61.893,39.324c0,0,0,0-0.936,0.172c-0.349,0.064-0.815,0.109-1.426,0.109     c-1.843,0-2.41-1.134-2.41-1.701c0-0.567,0.567-1.607,2.504-1.607c1.937,0,2.268,0.331,2.268,0.331V39.324z"/><g id="XMLID_1796_"><path id="XMLID_1797_" fill="#FFFFFF" d="M46.679,28.052c0,1.515,0,4.242,0,6.388h0v8.019l4.442-0.808c0-1.301,0-5.008,0-7.211      l0-7.196L46.679,28.052z"/></g><path id="XMLID_1684_" fill="#FFFFFF" d="M23.134,27.65l-3.791,0.689c0,1.515,0,3.955,0,6.101h0v2.516c0,0.449,0,1.628,0,2.761     c0,1.298,0,2.742,0,2.742l3.791-0.689v0l0.651-0.118v-1.934v-2.954V36.73v-1.89v-0.099v-0.684c0-1.593,1.587-2.585,3.299-2.651     c0.56-0.022,1.171,0.048,1.673,0.162v-3.876c-0.556-0.1-0.92-0.151-1.673-0.127c-2.124,0.066-3.333,1.446-3.95,2.528V27.65z"/><g id="XMLID_1682_"><path id="XMLID_1683_" fill="#FFFFFF" d="M42.148,32.414c1.496-1.804,2.326-3.441,2.66-4.021l-5.702,1.037      c-0.898,1.382-2.557,3.31-4.006,4.424l0-2.966l0-7.639l-4.442,0.808c0,2.406,0,8.706,0,11.155h0v7.249l4.442-0.808v-3.55      c0.551-0.26,0.898-0.528,0.898-0.528l4.352,4.934l4.889-0.889l-5.649-6.408C40.124,34.678,41.151,33.615,42.148,32.414z"/></g></g></g><path id="XMLID_281_" fill="#FFFFFF" d="M51.118,44.566l1.028-0.187v2.262l-1.028,0.187L51.118,44.566z M65.512,47.487l0.095-0.439   c0.131-0.607,0.24-1.227,0.322-1.844l0.109-0.819l-0.998,0.182c-0.059,0.501-0.14,1.025-0.239,1.56l-0.077,0.41l-1.648-2.177   l-1.134,0.206l0.532,0.632l-0.163,0.753c-0.131,0.609-0.24,1.229-0.322,1.844l-0.109,0.819l0.998-0.182   c0.075-0.635,0.176-1.273,0.303-1.9l0.081-0.402l1.888,2.509l1.138-0.207L65.512,47.487z M59.035,44.436   c-0.916,0-1.493,0.326-1.727,0.492l0.44,0.645c0.298-0.152,0.759-0.331,1.183-0.331c0.595,0,1.061,0.349,1.061,0.794v2.584   l1.013-0.184V46.08C61.005,45.051,60.268,44.436,59.035,44.436z M48.941,47.254c0,0.307-0.263,0.546-0.649,0.678   c-0.132,0.045-0.209,0.056-0.209,0.056l-0.029-0.173c-0.181-1.159-0.442-2.313-0.776-3.434l-0.947,0.195   c0.3,1.012,0.598,2.261,0.77,3.38c-0.265-0.074-0.578-0.222-0.707-0.284l-0.478,0.643c0.259,0.168,0.889,0.494,1.885,0.494   c1.328,0,2.153-0.629,2.153-1.643v-2.78l-1.013,0.21V47.254z M53.251,50.314l1.028-0.187v-3.975l-1.028,0.187V50.314z    M54.644,44.442c-0.669,0-1.285,0.109-1.553,0.163v0.882c0.325-0.071,0.935-0.189,1.452-0.189c0.34,0,0.947,0.046,1.19,0.352   c0.164,0.208,0.218,0.509,0.16,0.896c-0.045,0.301-0.14,0.617-0.31,0.866c-0.118,0.174-0.292,0.325-0.446,0.445l0.545,0.757   c0.196-0.145,0.508-0.402,0.715-0.704c0.174-0.254,0.313-0.615,0.391-1.016c0.174-0.899,0.056-1.587-0.333-1.939   C55.958,44.509,55.107,44.442,54.644,44.442z"/></g></svg>