<svg xmlns="http://www.w3.org/2000/svg" version="1.1" id="Layer_1" x="0px" y="0px" width="70px" height="70px" viewBox="0 0 70 70" enable-background="new 0 0 70 70" xml:space="preserve"><metadata/><g id="g8831"><path id="path30" fill="#253D81" d="M46.7,31.9c0.3,1,0.1,2.2-0.5,2.9c-1,1.2-2.4,1.601-3.8,1.8c0,0,1.399,2.5,1.8,3.601h-3.9    c-0.8-1.4-1.5-2.9-2.2-4.3c0-0.101-0.1-0.301,0-0.301c1.7-0.1,3.801,0.2,4.9-1.5c0.2-0.2,0.2-0.6,0.2-0.9c-0.3-0.9-1.2-1-2-1    c-4.3,0.1-9.9,8-9.9,8h-1.1c0,0,1.2-2,1.9-2.9c3.1-4.5,7.3-7.5,12.4-7C45.3,30.4,46.3,30.9,46.7,31.9"/><path id="path32" fill="#253D81" d="M56.7,30.5l-7,9.7h-4.5C45,40.1,52,30.5,52,30.5H56.7"/><path id="path34" fill="#253D81" d="M18.1,31.9c-0.2-0.5-0.5-0.9-0.9-1.1c-2.1-0.9-4.6-0.3-6.6,0.5c-3.7,1.4-9.8,8.5-9.6,8.8    C2.5,40.2,5.7,40.2,5.7,40.2s1.2-2.5,2.2-3.4c2.3,0,4.7-0.2,7-0.1L12.6,40.1c0,0,0.7,0,1,0l3.6-4.5C17.8,34.6,18.5,33.3,18.1,31.9z     M17.1,33.4c-0.3,0.9-0.7,1.8-1.4,2.2c-2.2,0-4.5,0.101-6.7,0c1.8-2.1,4-3.5,6.4-4c0.5,0,1.1,0,1.6,0.4    C17.2,32.4,17.3,33,17.1,33.4"/><path id="path36" fill="#253D81" d="M32.5,32.6c-1-1.9-2.8-2.4-4.6-2.4c-5.6,0-12.7,10.1-12.7,10.1h0.5h8.4c2.5-0.2,4.8-1,6.7-2.8    C32,36.2,32.9,34.5,32.5,32.6z M27,37.3c-2.8,2-6.4,2.101-9.9,1.8c0,0,5.5-6.2,9.2-6.5c1,0,2.1,0.2,2.6,1.3    C29.1,35.4,27.9,36.6,27,37.3"/><path id="path158" fill="#253D81" d="M69.5,31.9c-0.2-0.5-0.5-0.9-0.9-1.1c-2.1-0.9-4.6-0.3-6.6,0.5c-3.7,1.4-9.8,8.5-9.6,8.8    C53.9,40.2,57.1,40.2,57.1,40.2s1.2-2.5,2.2-3.4c2.3,0,4.7-0.2,7-0.1L64,40.1c0,0,0.7,0,1,0l3.6-4.5C69.3,34.5,70,33.2,69.5,31.9z     M68.6,33.3c-0.3,0.9-0.699,1.8-1.399,2.2c-2.2,0-4.5,0.1-6.7,0c1.8-2.1,4-3.5,6.4-4c0.5,0,1.1,0,1.6,0.4    C68.6,32.3,68.7,32.9,68.6,33.3"/></g><rect width="70" fill="none" height="70"/><rect width="70" fill="none" height="70"/></svg>