<svg xmlns="http://www.w3.org/2000/svg" version="1.1" width="70px" height="70px" viewBox="0 0 70 70"><g id="surface1"><path d="M 5.484375 43.761719 L 56.246094 43.761719 C 57.167969 43.761719 57.5625 44.507812 57.128906 45.433594 L 54.988281 50.007812 C 54.558594 50.933594 53.457031 51.679688 52.535156 51.679688 L 1.792969 51.679688 C 0.867188 51.679688 0.476562 50.933594 0.90625 50.007812 L 3.046875 45.433594 C 3.480469 44.507812 4.5625 43.761719 5.484375 43.761719 " style=" stroke:none;fill-rule:nonzero;fill:rgb(9.803922%,19.607843%,56.862748%);fill-opacity:1;"/><path d="M 17.449219 18.261719 L 68.207031 18.261719 C 69.132812 18.261719 69.523438 19.011719 69.09375 19.933594 L 66.953125 24.507812 C 66.519531 25.433594 65.417969 26.179688 64.496094 26.179688 L 13.734375 26.179688 C 12.8125 26.179688 12.417969 25.433594 12.851562 24.507812 L 14.992188 19.933594 C 15.421875 19.011719 16.523438 18.261719 17.445312 18.261719 " style=" stroke:none;fill-rule:nonzero;fill:rgb(9.803922%,19.607843%,56.862748%);fill-opacity:1;"/><path d="M 36.363281 28.792969 L 37.289062 31.246094 L 40.785156 31.246094 C 41.53125 31.246094 41.707031 31.835938 40.980469 32.644531 L 38.761719 35.195312 L 39.664062 37.59375 C 39.882812 38.125 39.921875 38.710938 38.644531 38.710938 L 35.699219 38.710938 L 33.476562 41.265625 C 32.925781 41.894531 32.730469 41.914062 32.433594 41.128906 L 31.53125 38.710938 L 27.957031 38.710938 C 27.210938 38.710938 27.03125 38.125 27.757812 37.316406 L 30.078125 34.707031 L 29.195312 32.367188 C 28.996094 31.835938 28.9375 31.246094 30.214844 31.246094 L 33.082031 31.246094 L 35.34375 28.65625 C 35.871094 28.027344 36.070312 28.007812 36.363281 28.792969 " style=" stroke:none;fill-rule:nonzero;fill:rgb(9.803922%,19.607843%,56.862748%);fill-opacity:1;"/></g></svg>