<svg xmlns="http://www.w3.org/2000/svg" version="1.1" id="Layer_1" x="0px" y="0px" width="70px" height="70px" viewBox="0 0 70 70" enable-background="new 0 0 70 70" xml:space="preserve"><metadata/><rect width="70" fill="none" height="70"/><g id="_x23_009484ff"><path id="path5" fill="#067E67" d="M5,5.3c2.1,1.5,4,3.3,5.7,5.2c4,4.5,7.6,9.4,12.5,13c0.9,0.6,1.7,1.3,2.8,1.4    c-0.8-0.7-1.6-1.4-2.4-2.1c-3.4-3.3-6.4-7-9.7-10.5c-0.7-0.8-1.5-1.5-2.2-2.4c0.2,0.1,0.4,0.2,0.6,0.3c1.9,1.3,3.6,2.9,5.2,4.6    c1.7,1.8,3.3,3.6,5,5.4c1.8,1.9,3.6,3.7,5.5,5.5c-2.7,0.3-5.5,0.1-8.2-0.1c-1.7-0.1-3.4-0.4-5.1-0.7c-1.9-0.3-3.7-0.9-5.5-1.4    c0.3,1.3,1.3,2.2,2.4,2.8c1.8,1.1,3.8,1.8,5.3,3.3c1,1,1.2,2.4,2,3.5c2.3-1,4.7-1.8,7.2-2.1c2.4-0.3,5,0.3,6.9,1.8    c1.5,1.2,2.9,2.6,4.1,4.101c1.2,1.5,2.2,3.1,3.301,4.699C42.2,44.4,44,47.2,45.9,49.9C47.4,52,49,54.1,50.7,56.1    c0.1,0.101,0.2,0.2,0.2,0.4c-0.301-0.1-0.5-0.4-0.7-0.6C45.9,52,42.7,47,39.4,42.2c-1.301-1.8-2.601-3.7-4-5.4    c-1-1.2-2-2.4-3.2-3.4c-0.4-0.4-1-0.5-1.5-0.6c0.5,1.1,1.5,2,2.2,2.9C37.4,41.1,40.6,47.4,45,52.9c1.7,2.1,3.6,4.1,5.7,5.8    c3,2.3,6.1,4.5,9.7,5.7H1.8v-59"/><path id="path7" fill="#067E67" d="M6.6,5.6C6.6,5.7,6.6,5.7,6.6,5.6C6.6,5.7,6.6,5.7,6.6,5.6z"/><path id="path9" fill="#067E67" d="M7.4,5.9C7.4,5.9,7.5,5.9,7.4,5.9C7.5,5.9,7.4,5.9,7.4,5.9z"/><path id="path11" fill="#067E67" d="M8.3,6.1L8.3,6.1L8.3,6.1z"/><path id="path13" fill="#067E67" d="M10.1,6.7L10.1,6.7L10.1,6.7z"/><path id="path15" fill="#067E67" d="M10.5,6.9L10.5,6.9L10.5,6.9z"/><path id="path17" fill="#067E67" d="M10.8,7C10.8,7,10.9,7,10.8,7C10.9,7,10.8,7,10.8,7z"/><path id="path19" fill="#067E67" d="M11.4,7.2C11.5,7.2,11.5,7.2,11.4,7.2C11.5,7.2,11.5,7.2,11.4,7.2z"/><path id="path21" fill="#067E67" d="M20.1,11.5L20.1,11.5L20.1,11.5z"/><path id="path23" fill="#067E67" d="M21.2,12.2L21.2,12.2L21.2,12.2z"/><path id="path25" fill="#067E67" d="M21.5,12.4C21.5,12.4,21.5,12.5,21.5,12.4C21.5,12.5,21.5,12.4,21.5,12.4z"/><path id="path27" fill="#067E67" d="M28.2,18.3L28.2,18.3L28.2,18.3z"/><path id="path29" fill="#067E67" d="M45.7,38.1L45.7,38.1L45.7,38.1z"/><path id="path35" fill="#067E67" d="M58.7,61.2L58.7,61.2L58.7,61.2z"/><path id="path37" fill="#067E67" d="M59.9,63L59.9,63L59.9,63z"/><path id="path39" fill="#067E67" d="M60.2,63.3C60.2,63.3,60.2,63.4,60.2,63.3C60.2,63.4,60.2,63.3,60.2,63.3z"/><path id="path41" fill="#067E67" d="M60.8,64.2L60.8,64.2L60.8,64.2z"/></g><g id="_x23_ffffffff"><path id="path44" fill="#FFFFFF" d="M5,5.3h0.7C6,5.4,6.3,5.5,6.6,5.6l0,0c0.3,0.1,0.5,0.2,0.8,0.2l0,0C7.7,6,8,6.1,8.3,6.1l0,0    c0.6,0.2,1.2,0.4,1.8,0.6l0,0c0.1,0,0.2,0.1,0.3,0.1h0.1c0.1,0,0.2,0.1,0.3,0.1h0.1C11.1,7,11.3,7,11.5,7.1l0,0    c3,1.1,5.9,2.6,8.6,4.2l0,0c0.4,0.2,0.7,0.5,1.1,0.7l0,0c0.1,0.1,0.2,0.2,0.3,0.2l0,0c1.6,1.2,3.2,2.4,4.7,3.7    c0.7,0.7,1.3,1.4,1.9,2.1l0,0c1.4,1.6,2.7,3.3,4.2,4.7c1.5,1.3,3.3,2.5,5.3,2.9c2.101,0.4,4.4-0.2,6.5,0.5    c1.7,0.8,3.101,2.1,4.301,3.5c-1.5,0-3,0-4.4,0.2c-1.5,0.1-3.1,0.5-4.4,1.4c1.101,1.1,2.301,2.1,3.4,3.3c0.9,1,1.9,2.1,2.7,3.3l0,0    c4.6,7.5,8.2,15.601,13,23.101l0,0c0.399,0.6,0.8,1.199,1.2,1.8l0,0C60,62.8,60.1,62.9,60.1,63l0,0c0.2,0.3,0.4,0.6,0.601,0.8l0,0    l0.1,0.2h-0.5c-3.6-1.2-6.8-3.4-9.7-5.7c-2.199-1.7-4-3.7-5.699-5.8C40.5,47,37.3,40.7,32.8,35.3c-0.8-1-1.7-1.8-2.2-2.9    c0.5,0.1,1.1,0.2,1.5,0.6c1.2,1,2.2,2.2,3.2,3.4c1.4,1.699,2.7,3.5,4,5.399c3.3,4.8,6.5,9.8,10.9,13.7c0.2,0.2,0.399,0.5,0.7,0.6    c0-0.199-0.101-0.3-0.2-0.399c-1.7-2-3.2-4.101-4.8-6.2c-2-2.7-3.7-5.5-5.5-8.3C39.4,39.6,38.3,38,37.1,36.5    C35.9,35,34.5,33.6,33,32.4c-1.9-1.5-4.5-2-6.9-1.8c-2.5,0.3-4.9,1-7.2,2.1c-0.9-1.1-1.1-2.5-2-3.5c-1.5-1.5-3.5-2.2-5.3-3.3    c-1.1-0.6-2.1-1.6-2.4-2.8c1.8,0.5,3.6,1.1,5.5,1.4c1.7,0.3,3.4,0.7,5.1,0.7c2.7,0.2,5.5,0.4,8.2,0.1c-1.9-1.7-3.8-3.6-5.5-5.5    c-1.7-1.8-3.4-3.6-5-5.4c-1.6-1.7-3.3-3.3-5.2-4.6c-0.2-0.1-0.4-0.2-0.6-0.3c0.7,0.8,1.5,1.6,2.2,2.4c3.2,3.5,6.2,7.2,9.7,10.5    c0.8,0.7,1.6,1.4,2.4,2.1c-1.1-0.1-1.9-0.8-2.8-1.4c-4.9-3.5-8.5-8.5-12.5-13C8.9,8.7,7.1,6.8,5,5.3z"/></g><g id="_x23_00246aff"><path id="path61" fill="#094874" d="M5.6,5.3h63v59H60.9L60.8,64.1l0,0c-0.2-0.3-0.399-0.6-0.6-0.8l0,0C60.1,63.2,60,63.1,60,63    l0,0c-0.4-0.6-0.8-1.2-1.2-1.8l0,0C54,53.8,50.4,45.7,45.8,38.1l0,0c-0.7-1.199-1.7-2.199-2.7-3.3C42,33.6,40.9,32.6,39.7,31.5    c1.3-0.9,2.899-1.3,4.399-1.4c1.5-0.2,2.9-0.3,4.4-0.2c-1.2-1.4-2.6-2.7-4.3-3.5c-2.101-0.6-4.3-0.1-6.5-0.5    c-2-0.4-3.8-1.6-5.3-2.9c-1.6-1.4-2.9-3.1-4.2-4.7l0,0c-0.6-0.7-1.3-1.4-1.9-2.1c-1.5-1.4-3.1-2.6-4.7-3.7l0,0    c-0.1-0.1-0.2-0.2-0.3-0.2l0,0c-0.3-0.2-0.7-0.5-1.1-0.7l0,0c-2.7-1.7-5.6-3.1-8.6-4.2l0,0c-0.2-0.1-0.4-0.1-0.6-0.2h-0.1    c-0.1,0-0.2-0.1-0.3-0.1h-0.1c-0.1,0-0.2-0.1-0.3-0.1l0,0C9.5,6.5,8.9,6.3,8.3,6.1l0,0C8,6.1,7.7,6,7.5,5.9l0,0    C7.2,5.8,6.9,5.7,6.6,5.7l0,0C6.3,5.5,5.9,5.5,5.6,5.3z"/></g></svg>