<svg xmlns="http://www.w3.org/2000/svg" width="108" height="84" viewBox="0 0 108.3 83.93"><defs><style>.cls-1{fill:#2570ae;}.cls-2{fill:#d83175;}</style></defs><g id="Layer_2"><g id="Layer_1-2"><path d="M23.61,7.25C17.07,2.74,13.43.9,7.74.15A18.51,18.51,0,0,0,0,.79,41.49,41.49,0,0,1,15.66,14.18a80,80,0,0,1,5.71,9.14h0a26.54,26.54,0,0,0,11.92,4.28A31.57,31.57,0,0,0,43,26.87l-.15-.19C39.78,22.53,31.74,12.86,23.61,7.25Z" class="cls-1"/><path d="M78.51,63.2c-4.57,8.67-11.36,18.62-12,19l.35.1c11.24,3,18.74,1.36,25.05-.21,10.78-2.68,16.4-7,16.4-7Z" class="cls-1"/><path d="M84.74,2S70,15.88,53.17,23.39A54.65,54.65,0,0,1,43,26.87a31.84,31.84,0,0,1-9.74.72,26.55,26.55,0,0,1-11.93-4.28h0c.11.24,3.94,8.43,5.68,12.74.06.16.13.33.19.5,1.76,4.63,4.45,15.27,14,27.2l.07.09.64.77A58.53,58.53,0,0,0,59.84,79.51a35.43,35.43,0,0,0,6.61,2.64l0,0h0c.65-.34,7.44-10.29,12-19,.71-1.35,1.36-2.66,1.93-3.91,4.37-9.53,8.27-17.33,9.33-33.94C90.82,9,84.74,2,84.74,2Z" class="cls-2"/></g></g></svg>