<svg xmlns="http://www.w3.org/2000/svg" version="1.1" id="Layer_1" x="0px" y="0px" width="70px" height="70px" viewBox="0 0 70 70" enable-background="new 0 0 70 70" xml:space="preserve"><g><path fill="#9C8859" d="M31.918,42.435c0,3.82-3.272,6.918-7.311,6.918   s-7.311-3.098-7.311-6.918s3.272-6.918,7.311-6.918S31.918,38.615,31.918,42.435L31.918,42.435z" clip-rule="evenodd" fill-rule="evenodd"/><polygon points="3.123,40.058 15.33,41.249 15.33,41.765 2.897,41.765     " fill="#AC9A6D" clip-rule="evenodd" fill-rule="evenodd"/><polygon points="0.636,35.774 15.717,39.974 15.601,40.56 1.654,38.666     " fill="#AC9A6D" clip-rule="evenodd" fill-rule="evenodd"/><polygon points="3.69,32.933 16.245,38.879 16.058,39.285 3.587,35.342     " fill="#AC9A6D" clip-rule="evenodd" fill-rule="evenodd"/><polygon points="0.443,26.543 16.818,37.868 16.535,38.338 1.016,29.899     " fill="#AC9A6D" clip-rule="evenodd" fill-rule="evenodd"/><polygon points="4.65,24.301 17.72,36.766 17.346,37.191 4.753,27.606     " fill="#AC9A6D" clip-rule="evenodd" fill-rule="evenodd"/><polygon points="5.97,20.307 18.776,35.774 18.293,36.173 5.146,22.465     " fill="#AC9A6D" clip-rule="evenodd" fill-rule="evenodd"/><polygon points="11.446,22.105 20.116,34.866 19.543,35.259 10.744,24.05     " fill="#AC9A6D" clip-rule="evenodd" fill-rule="evenodd"/><polygon points="14.325,20.629 21.34,34.247 20.773,34.55 13.488,22.53     " fill="#AC9A6D" clip-rule="evenodd" fill-rule="evenodd"/><polygon points="19.421,23.335 22.629,33.899 21.933,34.035    18.487,25.396  " fill="#AC9A6D" clip-rule="evenodd" fill-rule="evenodd"/><polygon points="23.318,33.745 24.046,33.68 21.926,21.918 20.703,23.747     " fill="#AC9A6D" clip-rule="evenodd" fill-rule="evenodd"/><polygon points="24.658,33.635 25.289,33.635 25.109,25.435    23.988,26.562  " fill="#AC9A6D" clip-rule="evenodd" fill-rule="evenodd"/><polygon points="26.088,33.745 26.751,33.822 27.292,25.448    26.159,26.562  " fill="#AC9A6D" clip-rule="evenodd" fill-rule="evenodd"/><polygon points="27.975,34.241 27.395,34.035 28.426,27.136    29.953,26.588  " fill="#AC9A6D" clip-rule="evenodd" fill-rule="evenodd"/><polygon points="31.815,28.939 30.558,28.83 28.6,34.486 29.128,34.743     " fill="#AC9A6D" clip-rule="evenodd" fill-rule="evenodd"/><polygon points="32.819,31.638 32.272,30.356 29.682,35.072    30.133,35.375  " fill="#AC9A6D" clip-rule="evenodd" fill-rule="evenodd"/><polygon points="39.648,49.36 38.72,49.36 36.053,44.322 36.053,49.36 35.351,49.36 35.351,43.73 36.517,43.73    38.952,48.329 38.952,43.73 39.648,43.73  " fill="#204988"/><polygon points="43.133,49.36 40.904,49.36 40.904,48.786 41.645,48.786 41.645,44.303 40.904,44.303 40.904,43.73    43.133,43.73 43.133,44.303 42.392,44.303 42.392,48.786 43.133,48.786  " fill="#204988"/><polygon points="47.97,49.36 44.408,49.36 44.408,43.73 45.162,43.73 45.162,48.69 47.97,48.69  " fill="#204988"/><polygon points="52.428,49.36 48.718,49.36 48.718,43.73 52.428,43.73 52.428,44.393 49.471,44.393 49.471,45.939    52.428,45.939 52.428,46.603 49.471,46.603 49.471,48.69 52.428,48.69  " fill="#204988"/><path fill="#204988" d="M60.783,49.36h-0.799l-0.554-1.572h-2.435l-0.554,1.572h-0.76l2.055-5.63h0.992L60.783,49.36z    M59.198,47.144l-0.986-2.763l-0.992,2.763H59.198z"/><polygon points="63.618,49.36 61.395,49.36 61.395,48.786 62.136,48.786 62.136,44.303 61.395,44.303 61.395,43.73    63.618,43.73 63.618,44.303 62.883,44.303 62.883,48.786 63.618,48.786  " fill="#204988"/><path fill="#204988" d="M69.557,49.36h-0.973l-1.881-2.242h-1.056v2.242h-0.747v-5.63h1.578c0.341,0,0.625,0.019,0.85,0.071   c0.225,0.039,0.432,0.116,0.612,0.232c0.206,0.129,0.361,0.29,0.477,0.49c0.116,0.193,0.174,0.438,0.174,0.741   c0,0.406-0.103,0.741-0.309,1.018c-0.2,0.271-0.483,0.477-0.837,0.618L69.557,49.36z M67.805,45.314   c0-0.161-0.026-0.303-0.084-0.425c-0.058-0.129-0.148-0.232-0.277-0.322c-0.11-0.071-0.238-0.122-0.387-0.148   c-0.148-0.032-0.329-0.045-0.528-0.045h-0.883V46.5h0.76c0.238,0,0.444-0.026,0.618-0.064c0.174-0.045,0.329-0.122,0.451-0.232   c0.11-0.11,0.193-0.225,0.251-0.367C67.779,45.701,67.805,45.527,67.805,45.314L67.805,45.314z"/><path fill="#231F20" d="M44.44,36.386L44.44,36.386z"/><path fill="#204988" d="M55.263,34.634c0.09-0.09,0.161-0.187,0.2-0.29   c0.032-0.071,0.013-0.161,0.026-0.245c0.052-0.18-0.019-0.277-0.2-0.335c-0.225-0.064-0.419-0.167-0.515-0.438   c-0.09,0.29-0.129,0.58-0.174,0.87c0,0.026,0.013,0.077,0.032,0.084c0.219,0.097,0.193,0.296,0.219,0.477   c0.071,0.515,0.155,1.031,0.225,1.546c0.064,0.47,0.129,0.953,0.2,1.456c-0.399,0-0.779,0.006-1.147-0.006   c-0.058,0-0.142-0.097-0.155-0.161c-0.039-0.18-0.058-0.374-0.09-0.56c-0.116-0.812-0.238-1.617-0.367-2.454   c0.219,0.032,0.238-0.11,0.251-0.264c0.006-0.071,0.013-0.148,0.026-0.219c0.045-0.174-0.006-0.29-0.2-0.348   c-0.225-0.052-0.419-0.174-0.509-0.432c-0.071,0.187-0.116,0.367-0.148,0.554c-0.032,0.187-0.122,0.387,0.135,0.502   c0.039,0.013,0.052,0.129,0.064,0.2c0.097,0.657,0.187,1.321,0.283,1.978c0.058,0.399,0.103,0.779,0.161,1.185h-1.269   c-0.019-0.225-0.032-0.438-0.058-0.638c-0.084-0.483-0.399-0.747-0.889-0.779c-0.464-0.026-0.876,0.129-1.282,0.335   c-0.232,0.122-0.464,0.258-0.657,0.367c0-0.444,0.032-0.895-0.013-1.346c-0.039-0.451-0.148-0.895-0.232-1.333   c0.213-0.058,0.303-0.303,0.258-0.741c-0.264-0.122-0.515-0.238-0.792-0.367c-0.052,0.206-0.11,0.444-0.148,0.689   c-0.006,0.039,0.006,0.116,0.039,0.129c0.29,0.11,0.258,0.393,0.316,0.612c0.187,0.696,0.348,1.404,0.277,2.139   c-0.019,0.219-0.077,0.496-0.225,0.612c-0.387,0.309-0.857,0.399-1.372,0.322c-0.045-0.631,0.09-1.301-0.477-1.804   c-0.064,0.122-0.103,0.225-0.161,0.322c-0.129,0.2-0.11,0.354,0.064,0.528c0.251,0.258,0.309,0.599,0.271,0.96h-1.675   c0.006-0.625-0.142-1.179-0.664-1.604c-0.142,0.322-0.283,0.593,0.019,0.928c0.309,0.354,0.496,0.812,0.258,1.288   c-0.399,0.799-1.031,1.327-1.913,1.488c-0.354,0.064-0.728-0.045-1.102-0.071c-0.097-0.006-0.193,0.019-0.29,0.026v0.103   c0.412,0.129,0.812,0.271,1.224,0.399c0.438,0.129,0.857,0.071,1.224-0.206c0.251-0.174,0.515-0.354,0.715-0.586   c0.206-0.225,0.387-0.496,0.464-0.779c0.064-0.258,0.167-0.29,0.387-0.29c3.144,0.006,6.294,0,9.444,0   c0.11,0,0.219-0.006,0.354-0.019C55.707,37.127,55.346,35.89,55.263,34.634L55.263,34.634z M51.178,37.752   c-0.451,0.032-0.908,0.013-1.359,0.019h-0.728c0-0.019-0.006-0.039-0.006-0.064c0.644-0.354,1.282-0.747,2.081-0.631   c0.296,0.039,0.522,0.193,0.502,0.367C51.629,37.726,51.378,37.732,51.178,37.752L51.178,37.752z" clip-rule="evenodd" fill-rule="evenodd"/><path fill="#204988" d="M59.037,36.38c-0.103,0.225-0.238,0.444-0.309,0.676   c-0.09,0.283-0.155,0.58-0.18,0.876c-0.032,0.399,0.187,0.689,0.541,0.818c0.85,0.296,1.668,0.161,2.422-0.303   c0.213-0.129,0.283-0.329,0.251-0.567c-0.129-0.992-0.258-1.984-0.406-2.976c-0.032-0.225,0.013-0.483-0.232-0.657   c-0.064-0.052-0.013-0.264,0.006-0.393c0.045-0.187,0.11-0.367,0.148-0.502c0.167,0.129,0.296,0.264,0.457,0.348   c0.309,0.161,0.341,0.193,0.258,0.573c-0.032,0.142,0.006,0.361-0.29,0.29c0.064,0.464,0.129,0.908,0.187,1.353   c0.064,0.548,0.122,1.095,0.193,1.643c0.006,0.071,0.09,0.193,0.135,0.193c0.515,0.013,1.037,0.006,1.572,0.006   c0.039-0.393-0.032-0.741-0.296-1.005c-0.148-0.148-0.174-0.277-0.058-0.444c0.071-0.116,0.122-0.245,0.187-0.38   c0.554,0.509,0.425,1.179,0.483,1.81h1.681c0.045-0.393-0.039-0.741-0.316-1.005c-0.142-0.142-0.135-0.264-0.045-0.419   c0.071-0.122,0.116-0.251,0.18-0.387c0.541,0.509,0.451,1.166,0.477,1.81h1.288c-0.058-0.419-0.103-0.825-0.167-1.23   c-0.09-0.651-0.187-1.301-0.283-1.958c-0.006-0.045,0-0.116-0.032-0.135c-0.361-0.258-0.129-0.58-0.09-0.876   c0.013-0.071,0.052-0.135,0.09-0.258c0.071,0.322,0.271,0.425,0.509,0.49c0.142,0.039,0.219,0.129,0.18,0.283   c-0.013,0.103-0.006,0.219-0.039,0.316c-0.032,0.097-0.11,0.18-0.193,0.264c0.084,1.25,0.438,2.487,0.425,3.801   c-0.116,0.006-0.225,0.013-0.322,0.013c-1.707,0-3.414,0.013-5.121-0.006c-0.206,0-0.309,0.058-0.387,0.258   c-0.135,0.374-0.432,0.586-0.792,0.702c-0.644,0.2-1.314,0.232-1.978,0.09c-0.779-0.18-1.102-0.76-0.876-1.636   c0.129-0.483,0.354-0.934,0.548-1.404c0.026-0.045,0.09-0.077,0.135-0.116C59.005,36.347,59.025,36.367,59.037,36.38L59.037,36.38z   " clip-rule="evenodd" fill-rule="evenodd"/><path fill="#204988" d="M39.57,36.27c0.077,0.271,0.206,0.548,0.232,0.818   c0.052,0.541,0.064,1.089,0.039,1.623c-0.032,0.728-0.425,1.172-1.14,1.372c-0.567,0.161-1.147,0.174-1.72,0.097   c-0.908-0.122-1.288-0.67-1.095-1.617c0.11-0.509,0.335-0.992,0.515-1.494c0.019-0.039,0.09-0.052,0.129-0.084   c0.013,0.052,0.026,0.11,0.013,0.161c-0.116,0.354-0.277,0.689-0.354,1.05c-0.155,0.728,0.142,1.172,0.876,1.301   c0.657,0.11,1.314,0.019,1.92-0.29c0.457-0.238,0.67-0.612,0.573-1.121c-0.052-0.309-0.2-0.599-0.29-0.895   c-0.032-0.103-0.052-0.232-0.032-0.328c0.058-0.2,0.155-0.393,0.238-0.586C39.506,36.264,39.538,36.264,39.57,36.27L39.57,36.27z" clip-rule="evenodd" fill-rule="evenodd"/><path fill="#204988" d="M40.852,38.512c-0.084-0.999-0.161-1.978-0.251-2.963   c-0.019-0.213-0.032-0.438-0.084-0.651c-0.116-0.457,0.019-0.85,0.316-1.256c0.064,0.541,0.148,1.05,0.193,1.552   c0.071,0.663,0.122,1.321,0.174,1.991C41.245,37.674,41.136,38.125,40.852,38.512L40.852,38.512z" clip-rule="evenodd" fill-rule="evenodd"/><path fill="#204988" d="M68.681,38.525c0-0.412,0.019-0.825-0.013-1.224   c-0.071-0.87-0.161-1.752-0.258-2.622c-0.039-0.393-0.019-0.49,0.335-1.044c0.045,0.38,0.103,0.715,0.135,1.056   c0.077,0.921,0.167,1.855,0.232,2.783c0.032,0.393-0.129,0.747-0.361,1.063C68.726,38.531,68.7,38.531,68.681,38.525L68.681,38.525   z" clip-rule="evenodd" fill-rule="evenodd"/><path fill="#204988" d="M63.141,39.639c-0.097,0.187-0.193,0.367-0.303,0.56   c-0.206-0.116-0.406-0.213-0.593-0.309c-0.006-0.032-0.019-0.045-0.006-0.064C62.561,39.175,62.368,39.22,63.141,39.639   L63.141,39.639z" clip-rule="evenodd" fill-rule="evenodd"/><path fill="#204988" d="M64.062,39.272c-0.103,0.193-0.2,0.367-0.303,0.56   c-0.219-0.11-0.419-0.213-0.638-0.335c0.097-0.193,0.193-0.361,0.29-0.567C63.63,39.046,63.83,39.149,64.062,39.272L64.062,39.272z   " clip-rule="evenodd" fill-rule="evenodd"/><path fill="#204988" d="M46.863,38.924c0.238,0.122,0.425,0.225,0.657,0.335   c-0.11,0.2-0.193,0.367-0.309,0.567c-0.219-0.116-0.412-0.219-0.644-0.335C46.669,39.304,46.766,39.124,46.863,38.924   L46.863,38.924z" clip-rule="evenodd" fill-rule="evenodd"/><path fill="#204988" d="M64.822,35.02c0.103-0.2,0.193-0.387,0.296-0.573   c0.219,0.116,0.419,0.219,0.644,0.328c-0.097,0.193-0.193,0.374-0.296,0.573C65.247,35.233,65.048,35.13,64.822,35.02L64.822,35.02   z" clip-rule="evenodd" fill-rule="evenodd"/><path fill="#204988" d="M46.302,40.199c-0.232-0.122-0.425-0.219-0.638-0.335   c0.09-0.18,0.18-0.361,0.283-0.567c0.225,0.11,0.425,0.213,0.651,0.329C46.495,39.826,46.399,40.013,46.302,40.199L46.302,40.199z" clip-rule="evenodd" fill-rule="evenodd"/><path fill="#204988" d="M38.082,35.967c-0.219-0.116-0.412-0.225-0.618-0.335   c0.097-0.187,0.18-0.354,0.283-0.548c0.2,0.103,0.406,0.206,0.631,0.322C38.269,35.594,38.185,35.768,38.082,35.967L38.082,35.967z   " clip-rule="evenodd" fill-rule="evenodd"/></g></svg>