<svg xmlns="http://www.w3.org/2000/svg" id="Ebene_1" width="824.88" height="824.88" viewBox="0 0 824.88 824.88"><defs><style>.cls-1,.cls-3{fill:none;}.cls-2{fill:#c6c7c8;}.cls-3{stroke:#c6c7c8;stroke-width:1.37px;}.cls-4{fill:#fff;}.cls-5{clip-path:url(#clip-path);}.cls-6,.cls-7{fill:#9c9e9f;}.cls-7{font-size:38px;font-family:RotisSansSerifW1G-Regular, RotisSansSerifW1G Regular;letter-spacing:0.39em;}.cls-8{letter-spacing:0.35em;}</style><clipPath id="clip-path"><rect x="88.25" y="266.1" width="657.86" height="184.39" class="cls-1"/></clipPath></defs><path d="M25.56,235.82Q19,371.89,12.55,507.94l594.16-12.07,193.22,12V235.81L180.84,239.1,25.56,235.82" class="cls-2"/><path d="M25.56,235.82Q19,371.89,12.55,507.94l594.16-12.07,193.22,12V235.81L180.84,239.1Z" class="cls-3"/><path d="M31.06,224.86Q27.28,360.92,23.49,497l594.19-6.59L810.9,497V224.85l-619.09,3.29L31.06,224.86" class="cls-4"/><path d="M31.06,224.86Q27.28,360.92,23.49,497l594.19-6.59L810.9,497V224.85l-619.09,3.29Z" class="cls-3"/><g class="cls-5"><path d="M290.79,418.64q0,17.46-14.83,25.48-11.85,6.38-33.78,6.38t-33.79-6.93q-14.22-8.29-14.23-26.29V323.44q0-17.7,13.93-26,12.15-7.2,34.09-7.2,21.63,0,33.78,6.37,14.82,7.75,14.83,25.46v59.79H235.46v36.48a9,9,0,0,0,1.75,5.95,7.72,7.72,0,0,0,10.52,0,9,9,0,0,0,1.76-5.95V389.05h41.3Zm-41.3-60.35v-36q0-3.87-1.76-5.81a6.74,6.74,0,0,0-5.25-1.94,7,7,0,0,0-5,1.94q-2,1.94-2,5.81v36Z" class="cls-6"/><path d="M688.56,418.64q0,17.46-14.81,25.48Q661.87,450.5,640,450.5t-33.79-6.93q-14.24-8.29-14.23-26.29V323.44q0-17.7,13.93-26,12.15-7.2,34.09-7.2,21.63,0,33.79,6.37,14.81,7.75,14.81,25.46v59.79H633.24v36.48a9,9,0,0,0,1.74,5.95,6.51,6.51,0,0,0,5.27,2.07,6.44,6.44,0,0,0,5.25-2.07,8.9,8.9,0,0,0,1.76-5.95V389.05h41.3Zm-41.3-60.35v-36c0-2.58-.58-4.52-1.76-5.81a6.71,6.71,0,0,0-5.25-1.94,7,7,0,0,0-5,1.94q-2,1.94-2,5.81v36Z" class="cls-6"/><path d="M398.87,418.67q0,17.7-14.24,25.45-11.55,6.38-33.48,6.37-22.23,0-34.38-6.92-14.52-8.29-14.53-26.29V323.44q0-17.7,14.53-26,12.44-7.19,34.38-7.19,20.14,0,33.93,8.17t13.79,23.66Zm-41.3-.34V322.27c0-2.59-.58-4.52-1.75-5.82a6.81,6.81,0,0,0-5.26-1.93,7,7,0,0,0-5,1.93c-1.37,1.3-2,3.23-2,5.82v96.06a8.92,8.92,0,0,0,1.76,5.95,7.69,7.69,0,0,0,10.52,0,9,9,0,0,0,1.75-5.95" class="cls-6"/><path d="M746.11,324.2a12.52,12.52,0,0,1-7.31,11.89q-6.27,3.3-17.31,3.29-10.74,0-16.72-2.91a12,12,0,0,1-7.31-11.64V309.52h20.76v15.17a3.75,3.75,0,0,0,.9,2.71,3.34,3.34,0,0,0,2.54.94,3.11,3.11,0,0,0,2.48-.94,4,4,0,0,0,.82-2.72v-5.56q0-7.33-4.06-9.48c-3.78-1.69-7.31-3.3-10.59-4.8q-7.3-3.43-9.84-6.15t-2.54-7.78v-9.62a12.63,12.63,0,0,1,7-11.9q6.1-3.28,17.15-3.29,10.73,0,16.54,2.91,7,3.53,7,11.61v14.14h-20.3v-14a3.35,3.35,0,0,0-1-2.59,3.41,3.41,0,0,0-2.37-.94,3.72,3.72,0,0,0-2.52.89,3.26,3.26,0,0,0-1,2.66v6.72c0,3,1.48,5.24,4.46,6.84L730.9,298c5.86,2.62,9.5,4.53,10.89,5.7a11.92,11.92,0,0,1,4.32,9.75Z" class="cls-6"/><polygon points="553.88 291.27 553.88 413.07 584.42 413.07 584.42 449.14 512.93 449.14 512.93 291.27 553.88 291.27" class="cls-6"/><path d="M88.24,291.12l41,.08c13.7,0,19.88.76,28,2.34a31,31,0,0,1,16.59,8.7A29.11,29.11,0,0,1,181.38,316q2,8.07,2,25v15.71q0,17.28-3.83,25.19t-14.05,12.15q-10.23,4.24-26.74,4.23h-9.27v51.26H88.24ZM129.35,366c.18,7.54,6.38,7.25,6.38,7.25,7.84.36,7.72-7.07,7.72-7.07V321.86c-.23-8.53-7.19-7.49-7.19-7.49a7.17,7.17,0,0,0-6.85,7.66Z" class="cls-6"/><path d="M409.16,291.12l41,.08c13.69,0,19.86.76,28,2.34a31,31,0,0,1,16.6,8.7A29.2,29.2,0,0,1,502.29,316q2,8.07,2,25v15.71q0,17.28-3.82,25.19t-14.06,12.15q-10.22,4.24-26.73,4.23h-9.28v51.26h-41.2ZM450.25,366c.18,7.54,6.39,7.25,6.39,7.25,7.83.36,7.72-7.07,7.72-7.07V321.86c-.24-8.53-7.2-7.49-7.2-7.49a7.15,7.15,0,0,0-6.84,7.66Z" class="cls-6"/></g><text transform="translate(7.02 569) scale(0.98 1)" class="cls-7">EXPERIENCE<tspan x="341.47" y="0" class="cls-8"/><tspan x="362.78" y="0">THE DIFFERENCE</tspan></text></svg>