<svg xmlns="http://www.w3.org/2000/svg" version="1.1" id="Layer_1" x="0px" y="0px" width="70px" height="70px" viewBox="0 0 70 70" enable-background="new 0 0 70 70" xml:space="preserve"><g><radialGradient id="SVGID_1_" cx="566.4834" cy="-670.2236" r="43.1729" gradientTransform="matrix(1 0 0 -1 -542 -648)" gradientUnits="userSpaceOnUse"><stop offset="0.8207" style="stop-color:#FEE200"/><stop offset="1" style="stop-color:#E07827"/></radialGradient><circle cx="31.8" cy="35.7" r="29.1" fill="url(#SVGID_1_)"/><path fill="#020202" d="M54.5,29.2c-3.1,0-5.7,2.1-6.5,5c-0.8-2.9-3.4-5-6.5-5s-5.7,2.1-6.5,5c-0.8-2.9-3.4-5-6.5-5   c-3.7,0-6.8,3-6.8,6.8c0,0.5,0.1,1,0.2,1.5c-0.5-1.4-2.4-2.4-3.5-2.7c-1.3-0.4-2.5-0.8-2.5-1.5s0.2-0.9,1-0.9s1.2,0.4,1.2,0.9h3.6   c0,0-0.3-4.2-4.7-4.2s-5,3.4-5,4.1c0,1.9,1.5,3,3.4,3.7c1.9,0.8,2.8,1,2.8,1.699c0,0.7-0.5,1.301-1,1.301s-1.5-0.2-1.6-1.2h-3.5   c0,2.399,2.4,4.1,4.9,4.1s4.9-1.2,4.9-4.5c0-0.1,0-0.2,0-0.3c0.8,2.8,3.4,4.8,6.5,4.8s5.7-2.1,6.5-5c0.8,2.9,3.4,5,6.5,5   s5.699-2.1,6.5-5c0.8,2.9,3.399,5,6.5,5c3.699,0,6.8-3,6.8-6.8C61.3,32.3,58.2,29.2,54.5,29.2z M31.2,37.2   c-0.5,1.1-1.5,1.8-2.8,1.8c-1.7,0-3-1.4-3-3s1.4-3,3-3c1.2,0,2.3,0.8,2.8,1.8h3.6c-0.1,0.4-0.1,0.8-0.1,1.2s0,0.8,0.1,1.2H31.2z    M41.5,39c-1.7,0-3-1.4-3-3s1.4-3,3-3c1.7,0,3,1.4,3,3S43.1,39,41.5,39z M54.5,39c-1.7,0-3-1.4-3-3s1.4-3,3-3c1.7,0,3,1.4,3,3   S56.2,39,54.5,39z"/><linearGradient id="SVGID_2_" gradientTransform="matrix(1 0 0 -1 -542 -648)" gradientUnits="userSpaceOnUse" x1="602.3052" x2="612.7052" y1="-677.0552" y2="-687.4552"><stop offset="0.2393" style="stop-color:#FEE200"/><stop offset="0.8344" style="stop-color:#E07827"/></linearGradient><polygon points="69.1,41.1 68.6,38.9 67.4,39 66,32 68.9,31.5 68.3,28.5 65.4,29 64.8,25.6 61.8,27.6    62.3,29.6 59.1,30.3 59.7,33.3 62.8,32.7 64.7,42  " fill="url(#SVGID_2_)"/><path fill="#FFFFFF" d="M54.5,28.7c-3.1,0-5.7,2.1-6.5,5c-0.8-2.9-3.4-5-6.5-5s-5.7,2.1-6.5,5c-0.8-2.9-3.4-5-6.5-5   c-3.7,0-6.8,3-6.8,6.8c0,0.5,0.1,1,0.2,1.5c-0.5-1.4-2.4-2.4-3.5-2.7c-1.3-0.4-2.5-0.8-2.5-1.5s0.2-0.9,1-0.9s1.2,0.4,1.2,0.9h3.6   c0,0-0.3-4.2-4.7-4.2s-5,3.3-5,4c0,1.9,1.5,3,3.4,3.7c1.9,0.8,2.8,1,2.8,1.7s-0.5,1.3-1,1.3s-1.5-0.2-1.6-1.2h-3.5   c0,2.4,2.4,4.101,4.9,4.101s5-1.2,5-4.5c0-0.101,0-0.2,0-0.3c0.8,2.8,3.4,4.8,6.5,4.8s5.7-2.101,6.5-5c0.8,2.899,3.4,5,6.5,5   s5.7-2.101,6.5-5c0.8,2.899,3.4,5,6.5,5c3.7,0,6.8-3,6.8-6.8C61.3,31.7,58.2,28.7,54.5,28.7z M31.2,36.6c-0.5,1.1-1.5,1.8-2.8,1.8   c-1.7,0-3-1.4-3-3c0-1.7,1.4-3,3-3c1.2,0,2.3,0.8,2.8,1.8h3.6c-0.1,0.4-0.1,0.8-0.1,1.2s0,0.8,0.1,1.2L31.2,36.6L31.2,36.6z    M41.5,38.5c-1.7,0-3-1.4-3-3c0-1.7,1.4-3,3-3c1.7,0,3,1.4,3,3S43.1,38.5,41.5,38.5z M54.5,38.5c-1.7,0-3-1.4-3-3c0-1.7,1.4-3,3-3   c1.7,0,3,1.4,3,3S56.2,38.5,54.5,38.5z"/></g></svg>