<svg xmlns="http://www.w3.org/2000/svg" version="1.1" id="Layer_1" x="0px" y="0px" width="70px" height="70px" viewBox="0 0 70 70" enable-background="new 0 0 70 70" xml:space="preserve"><g><path fill="#4DB967" d="M61.031,28.823c0-14.501-11.5-26.028-26.031-26.028c-14.531,0-26.03,11.527-26.03,26.028   c0,14.503,11.499,26.032,26.03,26.032C49.531,54.855,61.031,43.326,61.031,28.823L61.031,28.823z"/><path fill="#FFFFFF" d="M46.504,32.644h-1.465c-1.462,0-2.089,0.784-2.298,2.301c-0.366,2.771-2.561,4.653-5.434,4.653   c-3.344,0-5.489-2.457-5.489-6.014v-8.364c0-0.332-0.043-0.628-0.126-0.894c0.317,0.139,0.691,0.214,1.119,0.214h7.683   c1.464,0,2.299-0.838,2.299-2.301v-0.679c0-1.464-0.835-2.3-2.299-2.3h-4.336v-4.706c0-1.464-0.838-2.3-2.3-2.3H32.81   c-1.461,0-2.298,0.836-2.298,2.3v7.685c0,0.332,0.045,0.629,0.127,0.893c-0.316-0.139-0.691-0.214-1.122-0.214h-7.681   c-1.463,0-2.299,0.838-2.299,2.301V25.9c0,1.464,0.836,2.301,2.299,2.301h4.338v5.384c0,6.745,4.337,11.448,11.131,11.448   c6.321,0,10.503-4.022,11.287-10.088C48.803,33.427,47.809,32.644,46.504,32.644z"/></g><g><path fill="#4DB967" d="M14.033,67.882h1.415v-3.078c0-1.112,0.605-1.498,1.331-1.498c0.42,0,0.733,0.126,1.02,0.371l0.64-1.132   c-0.388-0.352-0.901-0.529-1.407-0.529c-0.673,0-1.331,0.311-1.668,0.918l-0.092-0.802h-1.238V67.882z M53.938,60.769   c0-0.547-0.421-0.826-0.844-0.826c-0.414,0-0.832,0.279-0.832,0.826c0,0.556,0.418,0.827,0.832,0.827   C53.517,61.596,53.938,61.325,53.938,60.769L53.938,60.769z M11.446,60.484l-1.415,0.149v1.5H8.969v1.223h1.061v2.57   c0,1.382,0.791,2.021,1.98,2.021c0.505,0,0.935-0.117,1.238-0.287l-0.379-1.145c-0.201,0.092-0.455,0.161-0.69,0.161   c-0.473,0-0.734-0.27-0.734-0.818v-2.502h1.584v-1.223h-1.584V60.484z M24.605,62.133h-1.272l-0.094,0.802   c-0.319-0.531-0.951-0.918-1.937-0.918c-1.576,0-2.941,0.985-2.941,2.99c0,2.007,1.365,2.992,2.941,2.992   c0.986,0,1.618-0.388,1.937-0.919l0.094,0.802h1.272V62.133z M52.389,62.133v5.748h1.413v-5.748H52.389z M21.497,66.769   c-0.971,0-1.693-0.649-1.693-1.762c0-1.113,0.722-1.761,1.693-1.761c0.968,0,1.692,0.648,1.692,1.761   C23.189,66.12,22.465,66.769,21.497,66.769L21.497,66.769z M44.614,62.133H43.34l-0.092,0.802   c-0.321-0.531-0.952-0.918-1.939-0.918c-1.574,0-2.939,0.985-2.939,2.99c0,2.007,1.366,2.992,2.939,2.992   c0.986,0,1.618-0.388,1.939-0.919l0.092,0.802h1.273V62.133z M41.504,66.769c-0.969,0-1.694-0.649-1.694-1.762   c0-1.113,0.725-1.761,1.694-1.761c0.969,0,1.692,0.648,1.692,1.761C43.196,66.12,42.472,66.769,41.504,66.769L41.504,66.769z    M61.031,62.133h-1.273l-0.092,0.802c-0.32-0.531-0.952-0.918-1.939-0.918c-1.573,0-2.939,0.985-2.939,2.99   c0,2.007,1.367,2.992,2.939,2.992c0.987,0,1.619-0.388,1.939-0.919l0.092,0.802h1.273V62.133z M57.921,66.769   c-0.968,0-1.691-0.649-1.691-1.762c0-1.113,0.724-1.761,1.691-1.761c0.97,0,1.692,0.648,1.692,1.761   C59.613,66.12,58.891,66.769,57.921,66.769L57.921,66.769z M49.246,67.882l2.451-5.748h-1.474l-1.675,4.238l-1.676-4.238h-1.569   l2.452,5.748H49.246z M25.952,67.882h1.415v-3.086c0-0.969,0.623-1.516,1.449-1.516c0.826,0,1.39,0.547,1.39,1.516v3.086h1.416   v-3.296c0-1.71-1.063-2.568-2.418-2.568c-0.902,0-1.567,0.379-1.887,0.918l-0.093-0.802h-1.272V67.882z M35.194,67.999   c1.78,0,2.527-0.809,2.527-1.827c0-1.292-1.212-1.611-2.189-1.737c-0.565-0.077-1.433-0.127-1.433-0.684   c0-0.41,0.49-0.589,1.095-0.589c0.547,0,1.095,0.144,1.541,0.53l0.717-0.943c-0.632-0.547-1.365-0.732-2.19-0.732   c-1.23,0-2.594,0.421-2.594,1.8c0,1.276,1.145,1.612,2.189,1.747c0.599,0.077,1.433,0.135,1.433,0.682   c0,0.404-0.456,0.589-1.046,0.589c-0.665,0-1.54-0.245-2.072-0.801l-0.715,0.945C33.18,67.779,34.266,67.999,35.194,67.999z"/></g><line x1="-1.51" x2="-1.51" y1="80.949" y2="-10.155" fill="none"/></svg>