<svg xmlns="http://www.w3.org/2000/svg" version="1.1" width="70px" height="70px" viewBox="0 0 70 70"><defs><clipPath id="clip1"><path d="M 12 30 L 28 30 L 28 38 L 12 38 Z M 12 30 "/></clipPath><clipPath id="clip2"><path d="M 12.476562 33.554688 C 19.722656 34.261719 22.328125 35.546875 20.363281 37.835938 C 22.246094 35.640625 24.738281 33.320312 27.84375 30.855469 C 22.976562 31.875 17.855469 32.785156 12.476562 33.554688 "/></clipPath><linearGradient id="linear0" gradientTransform="matrix(22.554869,-5.31809,-8.691693,-22.510676,18809.172161,-4539.295375)" gradientUnits="userSpaceOnUse" x1="-835.4788" x2="-834.9149" y1="-5.8419" y2="-5.8419"><stop offset="0" style="stop-color:rgb(94.509804%,35.686275%,17.254902%);stop-opacity:1;"/><stop offset="1" style="stop-color:rgb(98.039216%,68.235294%,25.882353%);stop-opacity:1;"/></linearGradient></defs><g id="surface1"><path d="M 0 0.0585938 L 70 0.0585938 L 70 69.378906 L 0 69.378906 Z M 0 0.0585938 " style=" stroke:none;fill-rule:nonzero;fill:rgb(12.156863%,23.529412%,45.098039%);fill-opacity:1;"/><g clip-path="url(#clip1)" clip-rule="nonzero"><g clip-path="url(#clip2)" clip-rule="nonzero"><path d="M 13.761719 41.15625 L 30.320312 37.246094 L 26.566406 27.523438 L 10.007812 31.433594 Z M 13.761719 41.15625 " style=" stroke:none;fill-rule:nonzero;fill:url(#linear0);"/></g></g><path d="M 32.71875 31.484375 L 32.71875 32.027344 L 34.015625 32.027344 L 34.015625 36.753906 L 34.609375 36.753906 L 34.609375 32.027344 L 35.914062 32.027344 L 35.914062 31.484375 Z M 32.71875 31.484375 " style=" stroke:none;fill-rule:nonzero;fill:rgb(100%,100%,100%);fill-opacity:1;"/><path d="M 37.195312 34.71875 C 37.195312 35.265625 37.234375 35.5 37.371094 35.730469 C 37.578125 36.066406 38.039062 36.304688 38.507812 36.304688 C 38.960938 36.304688 39.421875 36.066406 39.628906 35.730469 C 39.765625 35.5 39.804688 35.265625 39.804688 34.71875 L 39.804688 31.488281 L 40.40625 31.488281 L 40.40625 34.878906 C 40.40625 35.449219 40.308594 35.804688 40.054688 36.125 C 39.699219 36.574219 39.117188 36.847656 38.507812 36.847656 C 37.890625 36.847656 37.292969 36.574219 36.949219 36.125 C 36.691406 35.804688 36.601562 35.449219 36.601562 34.878906 L 36.601562 31.488281 L 37.203125 31.488281 L 37.203125 34.71875 Z M 37.195312 34.71875 " style=" stroke:none;fill-rule:nonzero;fill:rgb(100%,100%,100%);fill-opacity:1;"/><path d="M 44.003906 32.523438 C 43.730469 32.097656 43.496094 31.953125 43.082031 31.953125 C 42.582031 31.953125 42.199219 32.296875 42.199219 32.765625 C 42.199219 32.996094 42.3125 33.183594 42.539062 33.339844 C 42.730469 33.464844 42.730469 33.464844 43.457031 33.78125 C 44.328125 34.152344 44.671875 34.570312 44.671875 35.230469 C 44.671875 36.144531 43.929688 36.847656 42.972656 36.847656 C 42.128906 36.847656 41.527344 36.347656 41.324219 35.488281 L 41.902344 35.328125 C 41.96875 35.597656 42.011719 35.726562 42.117188 35.867188 C 42.3125 36.136719 42.636719 36.289062 42.992188 36.289062 C 43.59375 36.289062 44.066406 35.835938 44.066406 35.257812 C 44.066406 34.9375 43.925781 34.6875 43.625 34.507812 C 43.425781 34.378906 43.425781 34.378906 42.679688 34.050781 C 41.910156 33.710938 41.597656 33.332031 41.597656 32.753906 C 41.597656 31.976562 42.238281 31.394531 43.09375 31.394531 C 43.699219 31.394531 44.152344 31.667969 44.476562 32.214844 Z M 44.003906 32.523438 " style=" stroke:none;fill-rule:nonzero;fill:rgb(100%,100%,100%);fill-opacity:1;"/><path d="M 48.320312 35.265625 L 47.679688 36.753906 L 47.03125 36.753906 L 49.492188 31.234375 L 51.898438 36.753906 L 51.234375 36.753906 L 50.601562 35.265625 Z M 49.484375 32.605469 L 48.570312 34.710938 L 50.375 34.710938 Z M 49.484375 32.605469 " style=" stroke:none;fill-rule:nonzero;fill:rgb(100%,100%,100%);fill-opacity:1;"/><path d="M 52.539062 31.484375 L 53.140625 31.484375 L 53.140625 36.753906 L 52.539062 36.753906 Z M 52.539062 31.484375 " style=" stroke:none;fill-rule:nonzero;fill:rgb(100%,100%,100%);fill-opacity:1;"/><path d="M 57.523438 36.753906 L 56.789062 36.753906 L 55.175781 34.449219 L 55.027344 34.449219 L 55.027344 36.753906 L 54.425781 36.753906 L 54.425781 31.484375 L 55.292969 31.484375 C 55.902344 31.484375 56.265625 31.558594 56.578125 31.765625 C 56.945312 32.007812 57.171875 32.457031 57.171875 32.960938 C 57.171875 33.753906 56.640625 34.328125 55.824219 34.398438 Z M 55.402344 33.929688 C 56.15625 33.929688 56.582031 33.582031 56.582031 32.964844 C 56.582031 32.644531 56.441406 32.355469 56.1875 32.207031 C 55.992188 32.085938 55.753906 32.035156 55.378906 32.035156 L 55.027344 32.035156 L 55.027344 33.929688 Z M 55.402344 33.929688 " style=" stroke:none;fill-rule:nonzero;fill:rgb(100%,100%,100%);fill-opacity:1;"/></g></svg>