<svg xmlns="http://www.w3.org/2000/svg" version="1.1" width="70px" height="70px" viewBox="0 0 70 70"><defs><clipPath id="clip1"><path d="M 1 42 L 69 42 L 69 60 L 1 60 Z M 1 42 "/></clipPath><clipPath id="clip2"><path d="M 55.417969 7.257812 C 53.75 7.316406 52.175781 8.042969 51.042969 9.269531 L 1.089844 59.722656 L 50.324219 59.722656 L 68.910156 7.257812 Z M 55.417969 7.257812 "/></clipPath><clipPath id="clip3"><path d="M 1 11 L 69 11 L 69 60 L 1 60 Z M 1 11 "/></clipPath><clipPath id="clip4"><path d="M 55.417969 7.257812 C 53.75 7.316406 52.175781 8.042969 51.042969 9.269531 L 1.089844 59.722656 L 50.324219 59.722656 L 68.910156 7.257812 Z M 55.417969 7.257812 "/></clipPath><clipPath id="clip5"><path d="M 1 7 L 69 7 L 69 60 L 1 60 Z M 1 7 "/></clipPath><clipPath id="clip6"><path d="M 55.417969 7.257812 C 53.75 7.316406 52.175781 8.042969 51.042969 9.269531 L 1.089844 59.722656 L 50.324219 59.722656 L 68.910156 7.257812 Z M 55.417969 7.257812 "/></clipPath><clipPath id="clip7"><path d="M 1 32 L 69 32 L 69 60 L 1 60 Z M 1 32 "/></clipPath><clipPath id="clip8"><path d="M 55.417969 7.257812 C 53.75 7.316406 52.175781 8.042969 51.042969 9.269531 L 1.089844 59.722656 L 50.324219 59.722656 L 68.910156 7.257812 Z M 55.417969 7.257812 "/></clipPath><clipPath id="clip9"><path d="M 1 21 L 69 21 L 69 60 L 1 60 Z M 1 21 "/></clipPath><clipPath id="clip10"><path d="M 55.417969 7.257812 C 53.75 7.316406 52.175781 8.042969 51.042969 9.269531 L 1.089844 59.722656 L 50.324219 59.722656 L 68.910156 7.257812 Z M 55.417969 7.257812 "/></clipPath><clipPath id="clip11"><path d="M 1 53 L 69 53 L 69 60 L 1 60 Z M 1 53 "/></clipPath><clipPath id="clip12"><path d="M 55.417969 7.257812 C 53.75 7.316406 52.175781 8.042969 51.042969 9.269531 L 1.089844 59.722656 L 50.324219 59.722656 L 68.910156 7.257812 Z M 55.417969 7.257812 "/></clipPath><clipPath id="clip13"><path d="M 32 27 L 51 27 L 51 46 L 32 46 Z M 32 27 "/></clipPath><clipPath id="clip14"><path d="M 55.417969 7.257812 C 53.75 7.316406 52.175781 8.042969 51.042969 9.269531 L 1.089844 59.722656 L 50.324219 59.722656 L 68.910156 7.257812 Z M 55.417969 7.257812 "/></clipPath><clipPath id="clip15"><path d="M 39 28 L 44 28 L 44 31 L 39 31 Z M 39 28 "/></clipPath><clipPath id="clip16"><path d="M 55.417969 7.257812 C 53.75 7.316406 52.175781 8.042969 51.042969 9.269531 L 1.089844 59.722656 L 50.324219 59.722656 L 68.910156 7.257812 Z M 55.417969 7.257812 "/></clipPath><clipPath id="clip17"><path d="M 40 28 L 43 28 L 43 31 L 40 31 Z M 40 28 "/></clipPath><clipPath id="clip18"><path d="M 55.417969 7.257812 C 53.75 7.316406 52.175781 8.042969 51.042969 9.269531 L 1.089844 59.722656 L 50.324219 59.722656 L 68.910156 7.257812 Z M 55.417969 7.257812 "/></clipPath><clipPath id="clip19"><path d="M 39 38 L 44 38 L 44 46 L 39 46 Z M 39 38 "/></clipPath><clipPath id="clip20"><path d="M 55.417969 7.257812 C 53.75 7.316406 52.175781 8.042969 51.042969 9.269531 L 1.089844 59.722656 L 50.324219 59.722656 L 68.910156 7.257812 Z M 55.417969 7.257812 "/></clipPath><clipPath id="clip21"><path d="M 39 34 L 47 34 L 47 40 L 39 40 Z M 39 34 "/></clipPath><clipPath id="clip22"><path d="M 55.417969 7.257812 C 53.75 7.316406 52.175781 8.042969 51.042969 9.269531 L 1.089844 59.722656 L 50.324219 59.722656 L 68.910156 7.257812 Z M 55.417969 7.257812 "/></clipPath><clipPath id="clip23"><path d="M 38 36 L 45 36 L 45 43 L 38 43 Z M 38 36 "/></clipPath><clipPath id="clip24"><path d="M 55.417969 7.257812 C 53.75 7.316406 52.175781 8.042969 51.042969 9.269531 L 1.089844 59.722656 L 50.324219 59.722656 L 68.910156 7.257812 Z M 55.417969 7.257812 "/></clipPath><clipPath id="clip25"><path d="M 38 29 L 43 29 L 43 38 L 38 38 Z M 38 29 "/></clipPath><clipPath id="clip26"><path d="M 55.417969 7.257812 C 53.75 7.316406 52.175781 8.042969 51.042969 9.269531 L 1.089844 59.722656 L 50.324219 59.722656 L 68.910156 7.257812 Z M 55.417969 7.257812 "/></clipPath><clipPath id="clip27"><path d="M 41 34 L 48 34 L 48 43 L 41 43 Z M 41 34 "/></clipPath><clipPath id="clip28"><path d="M 55.417969 7.257812 C 53.75 7.316406 52.175781 8.042969 51.042969 9.269531 L 1.089844 59.722656 L 50.324219 59.722656 L 68.910156 7.257812 Z M 55.417969 7.257812 "/></clipPath><clipPath id="clip29"><path d="M 41 35 L 46 35 L 46 38 L 41 38 Z M 41 35 "/></clipPath><clipPath id="clip30"><path d="M 55.417969 7.257812 C 53.75 7.316406 52.175781 8.042969 51.042969 9.269531 L 1.089844 59.722656 L 50.324219 59.722656 L 68.910156 7.257812 Z M 55.417969 7.257812 "/></clipPath><clipPath id="clip31"><path d="M 43 36 L 48 36 L 48 43 L 43 43 Z M 43 36 "/></clipPath><clipPath id="clip32"><path d="M 55.417969 7.257812 C 53.75 7.316406 52.175781 8.042969 51.042969 9.269531 L 1.089844 59.722656 L 50.324219 59.722656 L 68.910156 7.257812 Z M 55.417969 7.257812 "/></clipPath><clipPath id="clip33"><path d="M 39 31 L 41 31 L 41 33 L 39 33 Z M 39 31 "/></clipPath><clipPath id="clip34"><path d="M 55.417969 7.257812 C 53.75 7.316406 52.175781 8.042969 51.042969 9.269531 L 1.089844 59.722656 L 50.324219 59.722656 L 68.910156 7.257812 Z M 55.417969 7.257812 "/></clipPath><clipPath id="clip35"><path d="M 39 32 L 42 32 L 42 37 L 39 37 Z M 39 32 "/></clipPath><clipPath id="clip36"><path d="M 55.417969 7.257812 C 53.75 7.316406 52.175781 8.042969 51.042969 9.269531 L 1.089844 59.722656 L 50.324219 59.722656 L 68.910156 7.257812 Z M 55.417969 7.257812 "/></clipPath><clipPath id="clip37"><path d="M 41 37 L 43 37 L 43 39 L 41 39 Z M 41 37 "/></clipPath><clipPath id="clip38"><path d="M 55.417969 7.257812 C 53.75 7.316406 52.175781 8.042969 51.042969 9.269531 L 1.089844 59.722656 L 50.324219 59.722656 L 68.910156 7.257812 Z M 55.417969 7.257812 "/></clipPath><clipPath id="clip39"><path d="M 40 30 L 41 30 L 41 32 L 40 32 Z M 40 30 "/></clipPath><clipPath id="clip40"><path d="M 55.417969 7.257812 C 53.75 7.316406 52.175781 8.042969 51.042969 9.269531 L 1.089844 59.722656 L 50.324219 59.722656 L 68.910156 7.257812 Z M 55.417969 7.257812 "/></clipPath><clipPath id="clip41"><path d="M 41 30 L 43 30 L 43 32 L 41 32 Z M 41 30 "/></clipPath><clipPath id="clip42"><path d="M 55.417969 7.257812 C 53.75 7.316406 52.175781 8.042969 51.042969 9.269531 L 1.089844 59.722656 L 50.324219 59.722656 L 68.910156 7.257812 Z M 55.417969 7.257812 "/></clipPath></defs><g id="surface1"><g clip-path="url(#clip1)" clip-rule="nonzero"><g clip-path="url(#clip2)" clip-rule="nonzero"><path d="M -75.484375 71.847656 C -46.277344 85.34375 -16.132812 79.3125 12 66.109375 C 43.292969 51.394531 74.949219 49.027344 107.527344 61.875 C 107.023438 57.207031 106.808594 54.839844 106.304688 50.039062 C 90.011719 44.4375 73.503906 41.785156 56.195312 43.492188 C 39.261719 45.21875 25.980469 51.386719 11.628906 60.140625 C -15.429688 76.648438 -45 83.832031 -75.496094 71.839844 " style=" stroke:none;fill-rule:nonzero;fill:rgb(89.411765%,88.627451%,46.666667%);fill-opacity:1;"/></g></g><g clip-path="url(#clip3)" clip-rule="nonzero"><g clip-path="url(#clip4)" clip-rule="nonzero"><path d="M -75.484375 71.847656 C -58.691406 76.378906 -42.972656 76.65625 -26.179688 72.136719 C -10.605469 67.902344 0.0078125 59.074219 11.5 48.097656 C 24.488281 35.679688 36.257812 26.421875 54.273438 23.191406 C 71.066406 20.167969 87.644531 21.96875 104.082031 26.132812 C 103.648438 21.394531 103.359375 18.957031 102.859375 14.296875 C 86.785156 11.066406 70.488281 9.765625 54.34375 13.144531 C 36.257812 16.945312 24.992188 26.566406 13.003906 40.125 C 1.089844 53.472656 -9.390625 64.816406 -26.898438 70.273438 C -43.191406 75.222656 -58.90625 75.292969 -75.496094 71.847656 " style=" stroke:none;fill-rule:nonzero;fill:rgb(89.411765%,88.627451%,46.666667%);fill-opacity:1;"/></g></g><g clip-path="url(#clip5)" clip-rule="nonzero"><g clip-path="url(#clip6)" clip-rule="nonzero"><path d="M -75.484375 71.847656 C -58.90625 75.292969 -43.191406 75.222656 -26.886719 70.199219 C -9.378906 64.816406 1.171875 53.402344 13.015625 40.054688 C 24.992188 26.566406 36.328125 16.871094 54.34375 13.070312 C 70.5625 9.703125 86.785156 10.992188 102.859375 14.21875 C 102.355469 9.554688 102.070312 7.1875 101.566406 2.667969 C 85.421875 0.367188 69.199219 -0.207031 53.269531 4.027344 C 34.964844 8.839844 23.921875 19.601562 12.429688 34.097656 C 0.941406 48.597656 -9.171875 60.933594 -26.898438 67.480469 C -42.832031 73.363281 -58.761719 74.085938 -75.496094 71.855469 " style=" stroke:none;fill-rule:nonzero;fill:rgb(0%,0%,0%);fill-opacity:1;"/></g></g><g clip-path="url(#clip7)" clip-rule="nonzero"><g clip-path="url(#clip8)" clip-rule="nonzero"><path d="M 106.375 49.960938 C 90.082031 44.363281 73.578125 41.707031 56.28125 43.429688 C 39.347656 45.152344 26.066406 51.328125 11.714844 60.078125 C -15.417969 76.585938 -45.054688 83.761719 -75.554688 71.773438 C -43.546875 82.328125 -14.339844 74.292969 11.566406 54.050781 C 25.203125 43.355469 37.835938 35.753906 55.277344 33.238281 C 72.285156 30.871094 88.863281 33.09375 105.230469 37.972656 C 105.660156 42.78125 105.945312 45.222656 106.375 49.960938 " style=" stroke:none;fill-rule:nonzero;fill:rgb(0%,0%,0%);fill-opacity:1;"/></g></g><g clip-path="url(#clip9)" clip-rule="nonzero"><g clip-path="url(#clip10)" clip-rule="nonzero"><path d="M 105.230469 38.046875 C 88.863281 33.167969 72.285156 30.941406 55.277344 33.308594 C 37.835938 35.753906 25.277344 43.425781 11.566406 54.121094 C -14.339844 74.359375 -43.550781 82.402344 -75.554688 71.847656 C -58.761719 76.378906 -43.046875 76.65625 -26.25 72.140625 C -10.679688 67.902344 -0.0625 59.074219 11.425781 48.097656 C 24.417969 35.675781 36.1875 26.421875 54.199219 23.191406 C 70.996094 20.167969 87.570312 21.96875 104.007812 26.132812 C 104.582031 30.800781 104.792969 33.238281 105.230469 38.046875 " style=" stroke:none;fill-rule:nonzero;fill:rgb(83.529412%,16.078431%,15.686275%);fill-opacity:1;"/></g></g><g clip-path="url(#clip11)" clip-rule="nonzero"><g clip-path="url(#clip12)" clip-rule="nonzero"><path d="M -75.484375 71.847656 C -46.996094 87.0625 -16.707031 82.675781 12.574219 71.921875 C 44.945312 60.007812 76.878906 59.078125 108.886719 73.433594 C 108.3125 68.839844 108.09375 66.542969 107.597656 61.878906 C 75.011719 49.101562 43.292969 51.394531 12.070312 66.109375 C -16.128906 79.3125 -46.273438 85.273438 -75.484375 71.847656 " style=" stroke:none;fill-rule:nonzero;fill:rgb(83.529412%,16.078431%,15.686275%);fill-opacity:1;"/></g></g><g clip-path="url(#clip13)" clip-rule="nonzero"><g clip-path="url(#clip14)" clip-rule="nonzero"><path d="M 41.855469 45.652344 C 46.773438 45.652344 50.757812 41.671875 50.761719 36.753906 C 50.761719 31.839844 46.777344 27.855469 41.863281 27.851562 C 36.945312 27.851562 32.960938 31.835938 32.957031 36.75 C 32.957031 36.753906 32.957031 36.757812 32.957031 36.761719 C 32.957031 41.675781 36.9375 45.660156 41.851562 45.660156 L 41.855469 45.660156 " style=" stroke:none;fill-rule:nonzero;fill:rgb(100%,100%,100%);fill-opacity:1;"/></g></g><g clip-path="url(#clip15)" clip-rule="nonzero"><g clip-path="url(#clip16)" clip-rule="nonzero"><path d="M 40.351562 30.007812 L 39.703125 28.859375 C 40.78125 28.070312 43.003906 28.433594 43.363281 30.371094 L 42.355469 30.582031 Z M 40.351562 30.007812 " style=" stroke:none;fill-rule:nonzero;fill:rgb(82.352941%,14.901961%,15.686275%);fill-opacity:1;"/></g></g><g clip-path="url(#clip17)" clip-rule="nonzero"><g clip-path="url(#clip18)" clip-rule="nonzero"><path d="M 41.925781 30.441406 L 40.792969 30.152344 L 40.863281 28.5 C 41.542969 28.496094 42.199219 28.726562 42.730469 29.144531 Z M 41.925781 30.441406 " style=" stroke:none;fill-rule:nonzero;fill:rgb(89.411765%,88.627451%,46.666667%);fill-opacity:1;"/></g></g><g clip-path="url(#clip19)" clip-rule="nonzero"><g clip-path="url(#clip20)" clip-rule="nonzero"><path d="M 41.640625 38.621094 C 42.144531 40.132812 41.640625 40.558594 41.855469 41.492188 C 41.984375 42.273438 42.011719 43.070312 41.925781 43.859375 C 41.066406 43.71875 40.203125 43.859375 39.773438 44.289062 C 40.25 44.21875 40.734375 44.21875 41.210938 44.289062 C 40.832031 44.449219 40.578125 44.8125 40.566406 45.222656 C 41.140625 44.578125 42.5 44 43.867188 44.289062 C 43.792969 44.074219 43.078125 43.785156 42.429688 43.859375 C 42.359375 43.425781 42.140625 42.28125 42.285156 41.707031 C 42.429688 40.917969 42.214844 39.769531 42.359375 39.339844 C 42.5 38.90625 42.71875 38.691406 42.789062 38.261719 " style=" stroke:none;fill-rule:nonzero;fill:rgb(0%,0%,0%);fill-opacity:1;"/></g></g><g clip-path="url(#clip21)" clip-rule="nonzero"><g clip-path="url(#clip22)" clip-rule="nonzero"><path d="M 45.15625 36.394531 C 47.457031 37.1875 47.09375 38.695312 46.449219 38.976562 C 45.015625 39.554688 42.71875 39.195312 40.847656 38.40625 C 40.0625 38.046875 38.984375 37.113281 39.199219 36.25 C 39.414062 35.390625 41.214844 34.601562 42.222656 35.175781 C 43.296875 35.679688 44.738281 36.25 45.164062 36.394531 " style=" stroke:none;fill-rule:nonzero;fill:rgb(0%,0%,0%);fill-opacity:1;"/></g></g><g clip-path="url(#clip23)" clip-rule="nonzero"><g clip-path="url(#clip24)" clip-rule="nonzero"><path d="M 41.210938 36.824219 C 40.777344 37.328125 40.921875 38.691406 41.640625 39.054688 C 42.148438 39.246094 42.578125 39.601562 42.859375 40.0625 C 43.148438 40.488281 43.222656 40.847656 42.574219 40.777344 C 40.992188 40.632812 39.128906 40.488281 38.628906 40.996094 C 38.195312 41.351562 38.195312 41.855469 38.339844 42.425781 C 38.554688 42.136719 38.410156 41.636719 38.699219 41.417969 C 38.609375 41.734375 38.660156 42.074219 38.839844 42.351562 C 38.839844 42.066406 38.914062 41.34375 39.128906 41.273438 C 39.34375 41.417969 39.128906 41.847656 39.34375 42.066406 C 39.488281 41.847656 39.34375 41.5625 39.628906 41.34375 C 39.847656 41.132812 40.277344 40.992188 41.066406 41.0625 C 41.855469 41.132812 42.429688 41.132812 42.789062 41.132812 C 43.152344 41.132812 43.292969 41.0625 43.507812 41.132812 C 43.664062 41.210938 43.855469 41.144531 43.9375 40.992188 C 44.007812 40.84375 44.152344 40.628906 43.867188 40.414062 C 43.648438 40.195312 43.222656 39.480469 43.507812 38.976562 C 43.6875 38.617188 43.6875 38.191406 43.507812 37.828125 " style=" stroke:none;fill-rule:nonzero;fill:rgb(0%,0%,0%);fill-opacity:1;"/></g></g><g clip-path="url(#clip25)" clip-rule="nonzero"><g clip-path="url(#clip26)" clip-rule="nonzero"><path d="M 39.058594 31.515625 C 39.128906 31.660156 39.5625 31.589844 40.351562 31.445312 C 40.351562 31.589844 40.707031 31.730469 40.5625 31.949219 C 39.917969 32.808594 38.984375 33.742188 38.769531 35.101562 C 38.617188 35.972656 38.910156 36.867188 39.558594 37.472656 L 39.558594 36.824219 L 39.847656 37.113281 L 39.917969 36.609375 L 40.351562 36.753906 L 40.277344 36.25 L 40.632812 36.464844 L 40.421875 35.886719 L 40.707031 36.101562 L 40.5625 35.597656 C 40.632812 35.597656 40.851562 35.746094 41.066406 35.816406 L 40.925781 35.316406 L 41.355469 35.527344 L 41.28125 35.097656 C 41.425781 35.171875 41.714844 35.023438 41.925781 35.097656 C 41.714844 34.8125 41.421875 34.667969 41.355469 34.382812 C 41.210938 33.449219 41.425781 32.300781 41.925781 31.941406 C 42.789062 31.367188 42.933594 30.007812 41.640625 29.574219 C 40.925781 29.285156 39.917969 29.859375 40.277344 31.011719 C 39.417969 31.152344 38.914062 31.292969 38.984375 31.582031 L 39.058594 31.511719 " style=" stroke:none;fill-rule:nonzero;fill:rgb(0%,0%,0%);fill-opacity:1;"/></g></g><g clip-path="url(#clip27)" clip-rule="nonzero"><g clip-path="url(#clip28)" clip-rule="nonzero"><path d="M 41.140625 34.960938 C 40.925781 35.75 41.28125 36.972656 42.859375 37.542969 C 44.441406 38.113281 45.585938 39.339844 45.226562 40.269531 C 45.445312 40.203125 46.019531 39.480469 45.65625 38.835938 C 46.160156 39.554688 45.585938 40.628906 44.945312 41.0625 C 44.726562 41.203125 44.945312 41.347656 45.15625 41.273438 C 44.945312 41.347656 44.796875 41.5625 45.015625 41.5625 C 45.296875 41.488281 45.5625 41.367188 45.800781 41.203125 L 45.515625 41.636719 C 45.65625 41.777344 45.949219 41.5625 46.234375 41.273438 C 46.097656 41.515625 45.898438 41.71875 45.65625 41.851562 C 45.515625 41.996094 45.515625 42.28125 45.800781 42.066406 C 46.519531 41.5625 47.3125 40.847656 47.523438 40.054688 C 47.667969 39.265625 48.027344 37.535156 46.089844 36.609375 C 44.152344 35.683594 43.222656 35.394531 42.644531 35.03125 C 41.925781 34.742188 41.355469 34.386719 41.132812 34.957031 " style=" stroke:none;fill-rule:nonzero;fill:rgb(60.784314%,62.745098%,61.960784%);fill-opacity:1;"/></g></g><g clip-path="url(#clip29)" clip-rule="nonzero"><g clip-path="url(#clip30)" clip-rule="nonzero"><path d="M 45.085938 36.613281 C 44.339844 36.433594 43.617188 36.167969 42.933594 35.824219 C 42.429688 35.535156 41.785156 35.535156 41.855469 36.039062 C 41.929688 36.546875 43.074219 36.753906 43.367188 37.257812 C 43.660156 37.757812 44.800781 37.832031 45.164062 37.90625 C 45.523438 37.980469 46.8125 37.472656 45.09375 36.613281 " style=" stroke:none;fill-rule:nonzero;fill:rgb(100%,100%,100%);fill-opacity:1;"/></g></g><g clip-path="url(#clip31)" clip-rule="nonzero"><g clip-path="url(#clip32)" clip-rule="nonzero"><path d="M 43.652344 37.6875 C 44.082031 37.976562 44.441406 38.046875 44.945312 38.695312 C 45.296875 39.167969 45.425781 39.773438 45.300781 40.347656 C 45.519531 40.273438 46.089844 39.558594 45.730469 38.914062 C 46.234375 39.628906 45.660156 40.707031 45.015625 41.136719 C 44.796875 41.28125 45.015625 41.425781 45.226562 41.351562 C 45.015625 41.425781 44.871094 41.640625 45.085938 41.640625 C 45.367188 41.566406 45.636719 41.445312 45.875 41.28125 L 45.589844 41.714844 C 45.730469 41.855469 46.019531 41.640625 46.304688 41.351562 C 46.167969 41.59375 45.972656 41.792969 45.730469 41.929688 C 45.589844 42.070312 45.589844 42.359375 45.875 42.140625 C 46.59375 41.636719 47.386719 40.921875 47.597656 40.125 C 47.742188 39.339844 48.101562 37.6875 46.160156 36.683594 C 45.804688 36.539062 44.871094 36.324219 44.648438 36.25 C 45.078125 36.394531 45.582031 37.113281 45.722656 37.257812 C 45.4375 37.117188 44.503906 36.683594 44.289062 36.613281 C 44.53125 36.804688 44.726562 37.050781 44.863281 37.328125 C 44.472656 37.179688 44.0625 37.082031 43.644531 37.042969 C 43.859375 37.117188 44.074219 37.402344 44.214844 37.546875 C 43.785156 37.40625 43.207031 37.476562 43.644531 37.695312 " style=" stroke:none;fill-rule:nonzero;fill:rgb(82.352941%,14.901961%,15.686275%);fill-opacity:1;"/></g></g><g clip-path="url(#clip33)" clip-rule="nonzero"><g clip-path="url(#clip34)" clip-rule="nonzero"><path d="M 40.289062 31.445312 C 40 31.660156 39.714844 32.019531 39.925781 32.304688 C 40.140625 32.59375 40.648438 32.304688 40.71875 32.089844 C 40.859375 31.660156 40.289062 31.660156 40.289062 31.445312 " style=" stroke:none;fill-rule:nonzero;fill:rgb(82.352941%,14.901961%,15.686275%);fill-opacity:1;"/></g></g><g clip-path="url(#clip35)" clip-rule="nonzero"><g clip-path="url(#clip36)" clip-rule="nonzero"><path d="M 40.851562 32.230469 C 40.074219 33.167969 39.597656 34.320312 39.488281 35.535156 C 39.503906 35.855469 39.628906 36.160156 39.847656 36.390625 L 39.773438 35.890625 L 40.132812 36.105469 L 39.992188 35.675781 L 40.289062 35.753906 L 40.144531 35.46875 L 40.574219 35.542969 L 40.359375 35.179688 L 40.789062 35.25 C 40.574219 35.039062 40.070312 34.535156 40.863281 32.527344 C 41.074219 32.164062 41.074219 32.023438 40.863281 32.238281 " style=" stroke:none;fill-rule:nonzero;fill:rgb(60.784314%,62.745098%,61.960784%);fill-opacity:1;"/></g></g><g clip-path="url(#clip37)" clip-rule="nonzero"><g clip-path="url(#clip38)" clip-rule="nonzero"><path d="M 41.496094 37.113281 C 41.347656 37.53125 41.347656 37.988281 41.496094 38.40625 C 41.425781 38.191406 42.144531 37.972656 42.648438 38.40625 C 42.5 38.191406 41.570312 37.476562 41.496094 37.113281 " style=" stroke:none;fill-rule:nonzero;fill:rgb(60.784314%,62.745098%,61.960784%);fill-opacity:1;"/></g></g><g clip-path="url(#clip39)" clip-rule="nonzero"><g clip-path="url(#clip40)" clip-rule="nonzero"><path d="M 40.792969 30.652344 C 40.574219 30.652344 40.574219 31.015625 40.792969 31.015625 C 41.007812 31.015625 41.003906 30.652344 40.792969 30.652344 " style=" stroke:none;fill-rule:nonzero;fill:rgb(100%,100%,100%);fill-opacity:1;"/></g></g><g clip-path="url(#clip41)" clip-rule="nonzero"><g clip-path="url(#clip42)" clip-rule="nonzero"><path d="M 41.640625 30.367188 C 41.785156 30.871094 41.570312 31.15625 41.28125 31.226562 C 40.992188 31.296875 40.996094 31.730469 41.421875 31.660156 C 42.214844 31.515625 42.214844 30.800781 41.855469 30.222656 C 41.714844 30.078125 41.570312 30.078125 41.640625 30.367188 " style=" stroke:none;fill-rule:nonzero;fill:rgb(60.784314%,62.745098%,61.960784%);fill-opacity:1;"/></g></g></g></svg>