<svg xmlns="http://www.w3.org/2000/svg" version="1.1" id="Layer_1" x="0px" y="0px" width="70px" height="70px" viewBox="0 0 70 70" enable-background="new 0 0 70 70" xml:space="preserve"><path fill="#162950" d="M48.868,43.457c0-1.019-0.002-2.037,0-3.055  c0-0.387,0.107-0.502,0.488-0.504c0.987-0.004,1.975-0.002,2.962,0c0.386,0,0.755,0.084,1.107,0.23  c0.883,0.361,1.182,1.086,1.204,1.971c0.02,0.775-0.23,1.438-0.884,1.898c-0.194,0.138-0.136,0.263-0.05,0.416  c0.445,0.773,0.889,1.549,1.332,2.324c0.181,0.316,0.109,0.439-0.261,0.45c-0.988,0.028-0.988,0.028-1.503-0.833  c-0.233-0.387-0.474-0.77-0.694-1.164c-0.167-0.297-0.404-0.449-0.745-0.451c-0.452-0.001-0.905,0.002-1.358-0.01  c-0.199-0.006-0.239,0.084-0.237,0.26c0.009,0.546,0.007,1.092,0.002,1.636c-0.004,0.423-0.095,0.507-0.505,0.507  c-0.858,0.001-0.858,0.001-0.858-0.869C48.868,45.328,48.868,44.394,48.868,43.457z" clip-rule="evenodd" fill-rule="evenodd"/><path fill="#162950" d="M11.562,43.494c0-1.04-0.001-2.078,0-3.115  c0.001-0.371,0.101-0.479,0.475-0.48c0.987-0.004,1.974-0.002,2.961,0c0.353,0,0.693,0.072,1.023,0.196  c0.655,0.244,1.081,0.692,1.218,1.39c0.197,0.996,0.052,1.886-0.826,2.528c-0.183,0.134-0.113,0.251-0.033,0.392  c0.438,0.766,0.874,1.533,1.311,2.299c0.211,0.371,0.137,0.439-0.292,0.495c-0.702,0.091-1.146-0.167-1.44-0.808  c-0.194-0.426-0.48-0.811-0.715-1.22c-0.15-0.263-0.359-0.42-0.665-0.425c-0.483-0.006-0.966-0.003-1.45-0.016  c-0.197-0.004-0.207,0.106-0.205,0.256c0.004,0.534,0.004,1.069,0,1.604c-0.003,0.454-0.096,0.548-0.536,0.543  c-0.668-0.008-0.844,0.204-0.829-0.832C11.572,45.365,11.562,44.429,11.562,43.494z" clip-rule="evenodd" fill-rule="evenodd"/><path fill="#162950" d="M38.287,47.102c-1.027-0.031-1.895-0.331-2.647-0.943  c-0.334-0.271-0.377-0.433-0.191-0.691c0.306-0.428,0.662-0.56,0.983-0.354c0.271,0.172,0.527,0.355,0.817,0.496  c0.677,0.332,1.37,0.314,2.069,0.096c0.206-0.065,0.386-0.191,0.525-0.363c0.327-0.406,0.225-0.902-0.24-1.131  c-0.52-0.258-1.096-0.251-1.65-0.347c-0.505-0.087-1.015-0.161-1.485-0.382c-1.031-0.479-1.333-1.831-0.611-2.709  c0.457-0.553,1.069-0.828,1.75-0.948c1.146-0.202,2.231-0.048,3.2,0.644c0.374,0.266,0.372,0.547,0.022,0.85  c-0.354,0.307-0.611,0.323-0.982,0.053c-0.689-0.503-1.44-0.667-2.271-0.412c-0.181,0.057-0.338,0.15-0.476,0.275  c-0.424,0.386-0.322,0.982,0.208,1.191c0.542,0.215,1.118,0.254,1.689,0.321c0.4,0.047,0.794,0.122,1.171,0.263  c1.258,0.469,1.646,1.934,0.789,2.978c-0.562,0.688-1.329,0.971-2.18,1.079C38.595,47.091,38.41,47.094,38.287,47.102z" clip-rule="evenodd" fill-rule="evenodd"/><path fill="#162950" d="M34.246,42.326c0,0.658,0.034,1.319-0.009,1.975  c-0.094,1.477-1.208,2.607-2.679,2.767c-1.391,0.15-2.609-0.451-3.221-1.593c-0.223-0.416-0.336-0.862-0.338-1.332  c-0.003-1.285,0.007-2.572,0.002-3.858c-0.002-0.269,0.114-0.401,0.367-0.438c0.112-0.016,0.224-0.033,0.336-0.038  c0.458-0.021,0.593,0.108,0.593,0.56c0,1.132-0.006,2.264,0.003,3.396c0.004,0.625,0.162,1.206,0.646,1.641  c0.531,0.479,1.16,0.568,1.815,0.338c0.683-0.24,1.037-0.779,1.16-1.475c0.038-0.211,0.046-0.43,0.046-0.645  c0.005-1.121,0-2.244,0.003-3.365c0.001-0.348,0.111-0.456,0.458-0.475c0.083-0.006,0.166-0.006,0.249-0.006  c0.483-0.002,0.581,0.095,0.581,0.573c0,0.659,0,1.317,0,1.976C34.252,42.326,34.249,42.326,34.246,42.326z" clip-rule="evenodd" fill-rule="evenodd"/><path fill="#162950" d="M26.959,47.064c-0.515,0.051-0.776-0.191-0.956-0.67  c-0.336-0.9-0.224-0.789-1.162-0.793c-0.537-0.001-1.071,0.018-1.606-0.006c-0.333-0.014-0.516,0.117-0.62,0.424  c-0.079,0.233-0.192,0.453-0.281,0.683c-0.075,0.194-0.208,0.295-0.413,0.316c-0.257,0.026-0.511,0.063-0.768,0.008  c-0.21-0.046-0.303-0.138-0.204-0.37c0.908-2.154,1.813-4.311,2.713-6.471c0.112-0.27,0.335-0.276,0.562-0.277  c0.236,0,0.475-0.008,0.593,0.275c0.902,2.158,1.807,4.314,2.712,6.471c0.092,0.219,0.021,0.336-0.203,0.371  C27.204,47.044,27.082,47.053,26.959,47.064z" clip-rule="evenodd" fill-rule="evenodd"/><path fill="#162950" d="M4.316,45.602c-0.35,0-0.7,0.011-1.05-0.003  c-0.273-0.011-0.448,0.089-0.542,0.353c-0.086,0.24-0.203,0.471-0.293,0.711c-0.085,0.229-0.238,0.346-0.481,0.364  c-0.226,0.017-0.451,0.05-0.676,0.008c-0.296-0.055-0.344-0.142-0.227-0.422c0.716-1.713,1.435-3.426,2.152-5.137  c0.175-0.417,0.364-0.828,0.52-1.251c0.112-0.303,0.347-0.317,0.598-0.317c0.252,0,0.474,0.022,0.597,0.319  c0.883,2.133,1.782,4.26,2.673,6.387c0.116,0.278,0.066,0.369-0.23,0.422c-0.277,0.048-0.555,0.017-0.829-0.037  c-0.164-0.031-0.255-0.158-0.316-0.309c-0.09-0.23-0.196-0.453-0.277-0.685c-0.102-0.292-0.28-0.428-0.601-0.409  C4.997,45.619,4.655,45.602,4.316,45.602z" clip-rule="evenodd" fill-rule="evenodd"/><path fill="#162950" d="M61.86,47.049c-0.424,0.066-0.674-0.178-0.851-0.643  c-0.351-0.916-0.218-0.801-1.186-0.805c-0.556-0.002-1.11,0.007-1.665-0.002c-0.25-0.005-0.411,0.09-0.502,0.322  c-0.102,0.268-0.223,0.529-0.33,0.796c-0.073,0.181-0.201,0.274-0.392,0.298c-0.226,0.029-0.452,0.057-0.678,0.03  c-0.351-0.042-0.411-0.147-0.28-0.462c0.81-1.93,1.62-3.859,2.43-5.787c0.072-0.172,0.159-0.338,0.21-0.514  c0.094-0.325,0.334-0.381,0.622-0.379c0.289,0,0.495,0.065,0.624,0.378c0.839,2.039,1.699,4.07,2.553,6.104  C62.66,46.973,62.588,47.074,61.86,47.049z" clip-rule="evenodd" fill-rule="evenodd"/><path fill="#162950" d="M63.501,43.317c0-1.019,0-2.038,0-3.056  c0.002-0.381,0.132-0.515,0.517-0.532c0.111-0.005,0.228-0.009,0.338,0.002c0.339,0.033,0.492,0.204,0.492,0.544  c0.002,1.544,0,3.087,0,4.631c0.002,0.617,0.174,0.795,0.785,0.795c0.967,0,1.932-0.002,2.899,0.001  c0.403,0,0.522,0.153,0.522,0.649c0.004,0.448-0.113,0.586-0.518,0.586c-1.522,0.002-3.046,0.002-4.568,0  c-0.333,0-0.466-0.143-0.466-0.502C63.501,45.396,63.501,44.357,63.501,43.317z" clip-rule="evenodd" fill-rule="evenodd"/><path fill="#162950" d="M45.456,44.048c0,0.822,0,1.646-0.001,2.469  c0,0.391-0.105,0.497-0.491,0.505c-0.092,0.002-0.184,0-0.276-0.004c-0.446-0.016-0.535-0.107-0.535-0.554c0-1.616,0-3.231,0-4.847  c0-0.422-0.03-0.453-0.442-0.496c-0.401-0.043-0.802-0.025-1.201-0.002c-0.364,0.022-0.484-0.086-0.503-0.454  c-0.009-0.134-0.012-0.271,0.009-0.401c0.032-0.228,0.146-0.365,0.408-0.363c1.584,0.006,3.168,0.006,4.752,0  c0.241-0.002,0.358,0.099,0.399,0.328c0.043,0.208,0.021,0.411-0.025,0.611c-0.048,0.209-0.193,0.295-0.411,0.291  c-0.39-0.009-0.783-0.004-1.175-0.002c-0.465,0.002-0.519,0.058-0.519,0.512c-0.002,0.803,0,1.605,0,2.407  C45.447,44.048,45.451,44.048,45.456,44.048z" clip-rule="evenodd" fill-rule="evenodd"/><path fill="#19B6E0" d="M41.826,16.214c0.853-0.225,1.709-0.451,2.6-0.445  c0.982,0.006,1.51,0.626,1.383,1.604c-0.144,1.103-0.621,2.076-1.159,3.026c-0.13,0.075-0.157-0.046-0.203-0.113  c-0.531-0.742-1.038-1.5-1.581-2.232c-0.335-0.453-0.681-0.897-0.989-1.37C41.782,16.54,41.665,16.391,41.826,16.214z" clip-rule="evenodd" fill-rule="evenodd"/><path fill="#1AB7E2" d="M23.002,20.646c-0.344-0.937-0.624-1.885-0.573-2.9  c0.008-0.177,0.043-0.347,0.099-0.511c0.21-0.616,0.691-0.857,1.429-0.705c0.864,0.179,1.686,0.492,2.491,0.854  c0.085,0.137-0.026,0.214-0.101,0.285c-0.669,0.63-1.294,1.307-2.001,1.897c-0.283,0.236-0.522,0.52-0.789,0.774  C23.403,20.49,23.257,20.672,23.002,20.646z" clip-rule="evenodd" fill-rule="evenodd"/><path fill="#162950" d="M9.926,43.523c0,1.008,0.001,2.016,0,3.023  c0,0.496-0.091,0.584-0.599,0.584c-0.062,0-0.124,0-0.185,0c-0.424-0.002-0.537-0.117-0.537-0.555c0-0.926,0-1.85,0-2.775  c0-1.12,0-2.24,0-3.361c0-0.47,0.105-0.571,0.584-0.572c0.073,0,0.144-0.001,0.216,0c0.4,0.005,0.518,0.115,0.52,0.512  C9.928,41.428,9.926,42.476,9.926,43.523z" clip-rule="evenodd" fill-rule="evenodd"/><path fill="#16AFDB" d="M27.684,17.929c0.241,0.076,0.469,0.176,0.685,0.308  c-1.041,1.087-2.149,2.104-3.249,3.131c-0.329,0.309-0.636,0.642-0.994,0.919c-0.142,0.11-0.126,0.302-0.269,0.396  c-0.181-0.313-0.33-0.64-0.437-0.985c0.006-0.03,0.02-0.077,0.041-0.077c0.345,0.004,0.417-0.312,0.593-0.503  c0.502-0.544,1.081-1.009,1.601-1.534c0.561-0.566,1.202-1.049,1.726-1.655c0.034-0.041,0.08-0.063,0.126-0.085  c0.023,0.001,0.041,0.011,0.054,0.027C27.594,17.906,27.63,17.937,27.684,17.929z" clip-rule="evenodd" fill-rule="evenodd"/><path fill="#0CA5D5" d="M24.532,24.044c-0.109-0.15-0.204-0.309-0.255-0.49  c0.029-0.217,0.212-0.33,0.349-0.454c1.251-1.125,2.432-2.322,3.65-3.481c0.244-0.233,0.519-0.436,0.728-0.705  c0.106-0.09,0.218-0.17,0.347-0.226c0.164,0.079,0.329,0.158,0.494,0.236c0.079,0.118-0.03,0.164-0.088,0.227  c-0.585,0.648-1.228,1.244-1.873,1.827c-0.66,0.599-1.28,1.239-1.942,1.837c-0.344,0.312-0.716,0.614-0.996,1  C24.849,23.947,24.678,23.982,24.532,24.044z" clip-rule="evenodd" fill-rule="evenodd"/><path fill="#11ABD8" d="M23.856,22.684c-0.034-0.308,0.212-0.438,0.392-0.604  c0.726-0.664,1.432-1.347,2.15-2.016c0.512-0.477,0.976-1.007,1.534-1.436c0.153-0.118,0.188-0.374,0.436-0.391  c0.18,0.045,0.341,0.132,0.498,0.23c0.055,0.152-0.06,0.224-0.148,0.305c-0.69,0.639-1.34,1.321-2.058,1.933  c-0.614,0.524-1.159,1.127-1.724,1.705c-0.2,0.203-0.465,0.339-0.619,0.59c-0.145-0.02-0.104,0.179-0.222,0.192  C23.987,23.037,23.91,22.865,23.856,22.684z" clip-rule="evenodd" fill-rule="evenodd"/><path fill="#00609B" d="M32.526,29.097c0.152,0.169,0.304,0.338,0.457,0.506  c0.005,0.038,0.031,0.061,0.068,0.071c0.037,0.038,0.075,0.077,0.114,0.116c-0.401,0.438-0.893,0.776-1.289,1.219  c-0.415,0.468-0.951,0.809-1.354,1.291c-0.097,0.116-0.199,0.244-0.381,0.224c-0.209-0.205-0.402-0.423-0.556-0.673  c-0.039-0.126,0.056-0.192,0.13-0.257c0.687-0.602,1.332-1.249,1.999-1.875c0.193-0.182,0.389-0.361,0.577-0.548  C32.364,29.099,32.421,29.037,32.526,29.097z" clip-rule="evenodd" fill-rule="evenodd"/><path fill="#00609B" d="M38.865,22.981c0.34,0.119,0.668,0.263,0.984,0.438  c0.043,0.102-0.027,0.163-0.096,0.202c-0.47,0.271-0.798,0.705-1.188,1.068c-0.253,0.239-0.54,0.44-0.792,0.682  c-0.224,0.217-0.317,0.53-0.583,0.707c-0.365-0.126-0.71-0.297-1.058-0.468c-0.035-0.061-0.032-0.115,0.026-0.161  c0.632-0.474,1.097-1.129,1.744-1.591c0.217-0.155,0.412-0.359,0.531-0.625C38.506,23.077,38.627,22.906,38.865,22.981z" clip-rule="evenodd" fill-rule="evenodd"/><path fill="#1AB2DE" d="M27.506,17.844c-0.188,0.319-0.464,0.556-0.735,0.797  c-0.368,0.327-0.724,0.667-1.081,1.006c-0.503,0.478-1.004,0.959-1.503,1.444c-0.088,0.083-0.157,0.187-0.235,0.281  c-0.112,0.138-0.142,0.41-0.432,0.265c-0.019-0.009-0.065,0.04-0.101,0.062c-0.121-0.191-0.193-0.4-0.247-0.618  c1.022-0.865,1.948-1.832,2.962-2.706c0.18-0.154,0.417-0.279,0.415-0.574c0-0.073,0.078-0.107,0.137-0.085  c0.158,0.058,0.296-0.047,0.447-0.035C27.271,17.706,27.392,17.77,27.506,17.844z" clip-rule="evenodd" fill-rule="evenodd"/><path fill="#005D97" d="M30.142,32.523c0.087-0.063,0.179-0.109,0.255-0.195  c0.459-0.534,1.051-0.935,1.52-1.455c0.335-0.373,0.764-0.64,1.083-1.026c0.032-0.038,0.109-0.04,0.166-0.058  c0.132,0.135,0.263,0.269,0.395,0.404c0.033,0.202-0.042,0.37-0.196,0.489c-0.59,0.45-1.083,1.006-1.638,1.49  c-0.363,0.316-0.724,0.631-1.018,1.015C30.497,32.984,30.31,32.763,30.142,32.523z" clip-rule="evenodd" fill-rule="evenodd"/><path fill="#005890" d="M30.708,33.187c0.075-0.375,0.392-0.568,0.645-0.786  c0.489-0.419,0.938-0.88,1.415-1.311c0.144-0.131,0.267-0.289,0.444-0.378c0.215-0.108,0.254-0.331,0.348-0.518  c0.224,0.207,0.465,0.396,0.651,0.642c-0.272,0.122-0.427,0.38-0.639,0.568c-0.41,0.366-0.832,0.722-1.199,1.135  c-0.239,0.271-0.535,0.474-0.815,0.694c-0.123,0.097-0.236,0.186-0.296,0.335c-0.023,0.056-0.076,0.099-0.148,0.055  C30.963,33.492,30.82,33.353,30.708,33.187z" clip-rule="evenodd" fill-rule="evenodd"/><path fill="#015D96" d="M37.191,26.079c0.236-0.515,0.643-0.873,1.073-1.221  c0.374-0.303,0.724-0.648,1.048-1.004c0.161-0.177,0.426-0.209,0.537-0.434c0.299,0.1,0.586,0.226,0.862,0.375  c-0.35,0.123-0.57,0.41-0.827,0.65c-0.615,0.581-1.225,1.165-1.832,1.754c-0.087,0.085-0.161,0.189-0.306,0.174  c-0.063-0.01-0.103-0.053-0.143-0.099C37.47,26.209,37.33,26.145,37.191,26.079z" clip-rule="evenodd" fill-rule="evenodd"/><path fill="#13A3D1" d="M24.532,24.044c0.222-0.21,0.434-0.432,0.669-0.626  c0.368-0.305,0.643-0.712,1.021-0.993c0.536-0.398,0.882-0.988,1.451-1.344c0.357-0.223,0.565-0.603,0.886-0.873  c0.435-0.364,0.826-0.781,1.232-1.178c0.026-0.025,0.035-0.07,0.053-0.106c0.183,0.085,0.367,0.169,0.552,0.253  c0.002,0.023,0.002,0.05-0.014,0.057c-0.684,0.286-1.057,0.934-1.598,1.387c-0.411,0.345-0.765,0.764-1.19,1.102  c-0.173,0.093-0.269,0.269-0.397,0.405c-0.685,0.729-1.471,1.347-2.191,2.035c-0.149,0.142-0.278,0.213-0.423,0.007  C24.526,24.146,24.534,24.093,24.532,24.044z" clip-rule="evenodd" fill-rule="evenodd"/><path fill="#127FB5" d="M34.723,21.142c0.239,0.072,0.466,0.175,0.682,0.304  c0.024,0.043,0.01,0.084-0.026,0.108c-0.644,0.442-1.147,1.039-1.712,1.57c-0.335,0.316-0.649,0.656-1.042,0.906  c-0.166-0.074-0.333-0.146-0.499-0.22c-0.134-0.13-0.104-0.248,0.015-0.373c0.225-0.237,0.469-0.459,0.705-0.688  c0.479-0.463,0.951-0.938,1.445-1.387C34.408,21.254,34.505,21.071,34.723,21.142z" clip-rule="evenodd" fill-rule="evenodd"/><path fill="#005890" d="M37.747,26.328c0.31-0.132,0.48-0.422,0.715-0.639  c0.63-0.587,1.247-1.187,1.862-1.789c0.119-0.118,0.267-0.042,0.388-0.105c0.2,0.054,0.39,0.132,0.565,0.244  c-0.127,0.287-0.441,0.367-0.643,0.585c-0.507,0.546-1.051,1.059-1.61,1.553c-0.129,0.115-0.254,0.238-0.344,0.39  c-0.057,0.099-0.144,0.141-0.258,0.125c-0.171-0.048-0.334-0.127-0.506-0.177C37.842,26.47,37.731,26.455,37.747,26.328z" clip-rule="evenodd" fill-rule="evenodd"/><path fill="#1994C6" d="M32.253,20.029c0.284,0.095,0.555,0.216,0.813,0.367  c-0.326,0.047-0.526,0.28-0.741,0.498c-0.517,0.523-1.095,0.983-1.577,1.549c-0.15,0.178-0.354,0.317-0.471,0.533  c-0.226-0.103-0.453-0.206-0.679-0.308c-0.136-0.216,0.023-0.374,0.15-0.475c0.582-0.466,1.063-1.04,1.638-1.513  c0.211-0.176,0.388-0.391,0.607-0.56C32.068,20.062,32.132,19.958,32.253,20.029z" clip-rule="evenodd" fill-rule="evenodd"/><path fill="#0CA7D6" d="M42.008,19.166c0-0.041,0-0.081,0-0.12  c-0.283-0.053-0.337-0.33-0.472-0.511c-0.388-0.527-0.74-1.082-1.188-1.564c-0.022-0.022-0.062-0.062-0.057-0.068  c0.104-0.117-0.118-0.114-0.073-0.205c0.144-0.042,0.284-0.084,0.428-0.127c0.2-0.059,0.312,0.062,0.398,0.207  c0.686,1.149,1.521,2.194,2.29,3.283c0.238,0.334,0.435,0.696,0.692,1.012c0.096,0.115,0.1,0.215,0.024,0.331  c-0.034,0.04-0.066,0.079-0.1,0.118c-0.163,0.071-0.31,0.119-0.354-0.139c-0.028-0.145-0.17-0.228-0.26-0.337  c-0.312-0.38-0.545-0.816-0.847-1.201c-0.108-0.138-0.24-0.251-0.342-0.39C42.088,19.372,41.985,19.295,42.008,19.166z" clip-rule="evenodd" fill-rule="evenodd"/><path fill="#104874" d="M37.747,26.328c0.062,0.041,0.125,0.082,0.188,0.124  c0.375,0.35,0.525,0.85,0.824,1.252c0.098,0.131,0.173,0.282,0.28,0.405c0.102,0.117,0.082,0.219,0.01,0.333  c-0.206,0.263-0.43,0.51-0.682,0.732c-0.246-0.522-0.703-0.909-0.923-1.45c-0.082-0.201-0.326-0.238-0.443-0.409  c0.201-0.347,0.403-0.693,0.604-1.039C37.651,26.292,37.699,26.311,37.747,26.328z" clip-rule="evenodd" fill-rule="evenodd"/><path fill="#1993C4" d="M28.651,23.673c0.078,0.118,0.185,0.22,0.202,0.372  c0.034,0.361-0.255,0.55-0.476,0.701c-0.328,0.224-0.564,0.534-0.821,0.807c-0.328,0.346-0.757,0.549-1.073,0.897  c-0.072,0.079-0.133,0.118-0.119,0.234c0.018,0.133-0.032,0.242-0.173,0.286c-0.165-0.217-0.312-0.444-0.424-0.693  c-0.041-0.138,0.065-0.211,0.144-0.281c0.757-0.678,1.44-1.436,2.222-2.087C28.272,23.79,28.401,23.576,28.651,23.673z" clip-rule="evenodd" fill-rule="evenodd"/><path fill="#169ACB" d="M27.936,22.489c0.153,0.194,0.267,0.412,0.362,0.639  c0.014,0.077-0.059,0.147-0.09,0.118c-0.21-0.192-0.117,0.07-0.143,0.103c-0.101,0.129-0.198,0.258-0.327,0.363  c-0.656,0.527-1.188,1.184-1.838,1.718c-0.076,0.062-0.153,0.152-0.184,0.29c-0.045,0.202-0.179,0.066-0.274-0.003  c-0.132-0.229-0.265-0.458-0.397-0.688c0.453-0.292,0.858-0.641,1.247-1.016C26.828,23.491,27.363,22.971,27.936,22.489z" clip-rule="evenodd" fill-rule="evenodd"/><path fill="#045388" d="M31.115,33.623c0.511-0.668,1.25-1.096,1.8-1.73  c0.319-0.367,0.755-0.633,1.064-1.021c0.068-0.087,0.164,0.034,0.232-0.036c0.079,0.137,0.268,0.152,0.33,0.307  c-0.247,0.422-0.61,0.737-0.978,1.044c-0.589,0.496-1.088,1.092-1.705,1.558c-0.013,0.008-0.081-0.028-0.042,0.055  c0.089,0.184-0.07,0.271-0.182,0.37C31.455,33.995,31.25,33.842,31.115,33.623z" clip-rule="evenodd" fill-rule="evenodd"/><path fill="#1DB5E0" d="M27.134,17.681c-0.147,0.126-0.3,0.217-0.552,0.009  c0.139,0.377-0.114,0.515-0.277,0.643c-0.542,0.426-0.979,0.97-1.516,1.386c-0.516,0.399-0.878,0.964-1.451,1.291  c-0.051,0.029-0.11,0.048-0.165,0.071c-0.094-0.13-0.13-0.283-0.17-0.434c0.235-0.114,0.425-0.284,0.614-0.464  c0.682-0.655,1.387-1.285,2.055-1.952c0.269-0.269,0.611-0.48,0.777-0.846C26.684,17.464,26.917,17.554,27.134,17.681z" clip-rule="evenodd" fill-rule="evenodd"/><path fill="#0D9ECE" d="M28.292,22.071c-0.173-0.036-0.324-0.127-0.48-0.206  c-0.022-0.099,0.048-0.148,0.107-0.204c0.727-0.693,1.469-1.367,2.178-2.077c0.139-0.142,0.268-0.315,0.504-0.303  c0.237,0.071,0.46,0.173,0.671,0.302c-0.131,0.146-0.217,0.34-0.439,0.382c-0.115,0.021-0.207,0.091-0.282,0.177  c-0.527,0.6-1.191,1.06-1.705,1.671c-0.086,0.103-0.254,0.093-0.303,0.263C28.521,22.152,28.378,22.103,28.292,22.071z" clip-rule="evenodd" fill-rule="evenodd"/><path fill="#1B96C7" d="M25.442,25.715c0.146,0.035,0.135,0.036,0.126-0.092  c-0.011-0.169,0.182-0.167,0.265-0.233c0.363-0.294,0.706-0.617,1.017-0.953c0.347-0.375,0.776-0.655,1.099-1.051  c0.072-0.091,0.1-0.167,0.059-0.273c0.103-0.05,0.186,0.227,0.29,0.015c0.158,0.156,0.246,0.357,0.353,0.545  c-0.409,0.104-0.65,0.447-0.941,0.702c-0.65,0.572-1.254,1.196-1.877,1.799c-0.028,0.028-0.046,0.068-0.067,0.102  C25.629,26.105,25.528,25.914,25.442,25.715z" clip-rule="evenodd" fill-rule="evenodd"/><path fill="#0D9ECE" d="M27.936,22.489c-0.267,0.364-0.593,0.675-0.935,0.957  c-0.482,0.397-0.877,0.884-1.367,1.273c-0.115,0.091-0.357,0.083-0.342,0.329c0.001,0.01-0.154-0.097-0.247-0.021  c-0.065-0.085-0.129-0.171-0.15-0.28c-0.067-0.188,0.068-0.29,0.179-0.388c0.72-0.65,1.383-1.361,2.124-1.988  c0.15-0.126,0.226-0.354,0.468-0.361C27.756,22.17,27.845,22.33,27.936,22.489z" clip-rule="evenodd" fill-rule="evenodd"/><path fill="#107BB2" d="M32.624,24.03c0.074-0.165,0.234-0.247,0.356-0.368  c0.468-0.463,0.943-0.92,1.428-1.367c0.156-0.145,0.337-0.259,0.45-0.45c0.123-0.206,0.355-0.278,0.547-0.399  c0.198,0.056,0.386,0.135,0.559,0.248c-0.4,0.36-0.724,0.8-1.166,1.116c-0.21,0.148-0.369,0.354-0.538,0.543  c-0.331,0.369-0.734,0.635-1.148,0.89C32.949,24.172,32.786,24.101,32.624,24.03z" clip-rule="evenodd" fill-rule="evenodd"/><path fill="#005083" d="M31.635,34.169c0.004-0.065,0.026-0.12,0.074-0.164  c0.161-0.151,0.114-0.219-0.171-0.19c0.407-0.147,0.621-0.413,0.861-0.636c0.443-0.411,0.891-0.819,1.33-1.232  c0.211-0.199,0.505-0.36,0.61-0.676c0.019-0.059,0.133-0.086,0.203-0.128c0.141,0.124,0.284,0.249,0.424,0.374  c-0.09,0.018-0.147,0.065-0.161,0.13c-0.031,0.136-0.176,0.164-0.251,0.259c-0.268,0.341-0.598,0.616-0.933,0.894  c-0.271,0.227-0.46,0.548-0.75,0.764c-0.345,0.256-0.62,0.589-0.936,0.877C31.835,34.349,31.735,34.258,31.635,34.169z" clip-rule="evenodd" fill-rule="evenodd"/><path fill="#0E79AF" d="M27.868,29.539c-0.111-0.104-0.196-0.228-0.257-0.366  c0.009-0.178,0.093-0.268,0.261-0.366c0.333-0.197,0.585-0.511,0.868-0.778c0.441-0.417,0.867-0.849,1.322-1.25  c0.14-0.126,0.294-0.207,0.483-0.214c0.111,0.147,0.22,0.294,0.329,0.442c-0.059,0.175-0.089,0.194-0.347,0.324  c-0.259,0.131-0.454,0.347-0.665,0.539c-0.4,0.365-0.75,0.784-1.182,1.119c-0.08,0.062-0.157,0.137-0.203,0.228  C28.348,29.471,28.129,29.541,27.868,29.539z" clip-rule="evenodd" fill-rule="evenodd"/><path fill="#1797C8" d="M32.253,20.029c-0.408,0.26-0.721,0.631-1.086,0.943  c-0.45,0.387-0.833,0.852-1.309,1.213c-0.157,0.119-0.265,0.272-0.261,0.482c-0.065-0.033-0.133-0.066-0.2-0.099  c-0.017-0.077-0.087-0.04-0.13-0.059c-0.152-0.033-0.29-0.097-0.415-0.186c0.224-0.297,0.502-0.546,0.784-0.779  c0.302-0.25,0.575-0.528,0.838-0.811c0.297-0.317,0.69-0.519,0.974-0.847c0.06-0.07,0.158-0.094,0.251-0.108  C31.897,19.833,32.081,19.92,32.253,20.029z" clip-rule="evenodd" fill-rule="evenodd"/><path fill="#11426D" d="M37.935,29.603c-0.208,0.223-0.396,0.467-0.683,0.602  c-0.104-0.012-0.143,0.065-0.188,0.135c-0.041,0.021-0.079,0.044-0.119,0.065c-0.079-0.006-0.188,0.005-0.202-0.097  c-0.024-0.185,0.188-0.194,0.262-0.326c-0.097,0.08-0.194,0.128-0.283,0.02c-0.238-0.283-0.402-0.617-0.636-0.904  c-0.058-0.07,0.002-0.16-0.009-0.24c0.143-0.305,0.329-0.583,0.515-0.863c0.266-0.028,0.371,0.181,0.476,0.35  c0.148,0.241,0.312,0.475,0.418,0.743C37.572,29.309,37.725,29.482,37.935,29.603z" clip-rule="evenodd" fill-rule="evenodd"/><path fill="#076EA7" d="M31.381,27.69c0.103,0.104,0.198,0.215,0.261,0.351  c0.061,0.115-0.004,0.192-0.08,0.268c-0.503,0.51-1.039,0.985-1.551,1.485c-0.3,0.293-0.599,0.588-0.911,0.87  c-0.085,0.079-0.152,0.203-0.303,0.169c-0.109-0.102-0.197-0.218-0.256-0.356c0.039-0.305,0.263-0.482,0.472-0.665  c0.408-0.356,0.802-0.724,1.173-1.117c0.309-0.326,0.685-0.579,0.981-0.919C31.22,27.718,31.284,27.658,31.381,27.69z" clip-rule="evenodd" fill-rule="evenodd"/><path fill="#0C75AB" d="M27.868,29.539c0.571-0.186,0.848-0.729,1.283-1.08  c0.42-0.34,0.778-0.756,1.185-1.113c0.113-0.099,0.271-0.219,0.465-0.141c-0.002-0.102-0.144-0.098-0.128-0.211  c0.065,0.004,0.134,0.009,0.201,0.013c0.091,0.123,0.181,0.246,0.27,0.369c-0.104,0.329-0.44,0.427-0.659,0.641  c-0.561,0.547-1.136,1.084-1.714,1.616c-0.115,0.106-0.197,0.269-0.403,0.235c-0.072-0.011,0.004,0.028,0.003,0.043  c-0.003,0.099-0.034,0.157-0.145,0.127C28.083,29.89,27.965,29.721,27.868,29.539z" clip-rule="evenodd" fill-rule="evenodd"/><path fill="#134270" d="M32.995,35.269c-0.161-0.073-0.309-0.17-0.431-0.301  c-0.06-0.067-0.022-0.111,0.036-0.147c0.538-0.318,0.928-0.799,1.372-1.224c0.494-0.476,0.992-0.951,1.482-1.432  c0.081-0.078,0.17-0.045,0.261-0.046c0.168,0.104,0.336,0.209,0.504,0.314c-0.068,0.128-0.199,0.174-0.316,0.234  c-0.365,0.187-0.593,0.527-0.884,0.796c-0.622,0.576-1.216,1.18-1.859,1.736C33.111,35.244,33.054,35.256,32.995,35.269z" clip-rule="evenodd" fill-rule="evenodd"/><path fill="#005488" d="M38.427,26.636c0.051-0.01,0.121-0.003,0.144-0.032  c0.588-0.779,1.408-1.323,2.038-2.056c0.194-0.227,0.461-0.323,0.669-0.51c0.111,0.016,0.212,0.056,0.3,0.128  c0.092,0.258-0.099,0.401-0.24,0.554c-0.435,0.478-0.963,0.862-1.396,1.342c-0.236,0.261-0.521,0.466-0.774,0.705  C39.09,26.839,39,26.888,38.89,26.889C38.71,26.852,38.508,26.855,38.427,26.636z" clip-rule="evenodd" fill-rule="evenodd"/><path fill="#1384BA" d="M34.723,21.142c-0.178,0.009-0.265,0.16-0.371,0.26  c-0.464,0.431-0.915,0.883-1.369,1.325c-0.264,0.255-0.519,0.519-0.798,0.756c-0.129,0.109-0.082,0.21-0.06,0.327  c-0.226-0.106-0.452-0.213-0.677-0.319c0.187-0.391,0.51-0.67,0.825-0.944c0.317-0.276,0.618-0.568,0.907-0.869  c0.265-0.273,0.601-0.46,0.849-0.748c0.033-0.038,0.082-0.063,0.138-0.035C34.364,20.951,34.55,21.031,34.723,21.142z" clip-rule="evenodd" fill-rule="evenodd"/><path fill="#0F67A1" d="M31.956,28.421c0.099,0.089,0.208,0.172,0.237,0.314  c-0.04,0.041,0,0.104-0.035,0.143c-0.224,0.256-0.476,0.484-0.726,0.716c-0.638,0.589-1.205,1.258-1.899,1.786  c-0.101,0.077,0.021,0.216-0.117,0.25c-0.144-0.146-0.271-0.306-0.374-0.484c-0.033-0.148,0.028-0.26,0.139-0.349  c0.634-0.506,1.21-1.076,1.791-1.639c0.208-0.201,0.43-0.382,0.638-0.581C31.701,28.492,31.799,28.379,31.956,28.421z" clip-rule="evenodd" fill-rule="evenodd"/><path fill="#169ACB" d="M31.699,19.779c-0.875,0.714-1.674,1.513-2.496,2.286  c-0.108,0.101-0.188,0.235-0.351,0.259c-0.197-0.062-0.389-0.136-0.561-0.253c0.243,0.05,0.363-0.168,0.47-0.288  c0.458-0.509,0.98-0.944,1.482-1.403c0.217-0.197,0.328-0.538,0.711-0.494c-0.021-0.233,0.182-0.231,0.316-0.303  C31.426,19.625,31.571,19.682,31.699,19.779z" clip-rule="evenodd" fill-rule="evenodd"/><path fill="#086DA6" d="M37.208,22.246c0.149,0.039,0.293,0.093,0.42,0.187  c0.037,0.151-0.085,0.216-0.169,0.297c-0.74,0.717-1.493,1.423-2.243,2.129c-0.094,0.086-0.167,0.214-0.33,0.182  c-0.171-0.037-0.321-0.12-0.47-0.207c-0.026-0.137,0.085-0.197,0.163-0.272c0.217-0.216,0.449-0.419,0.669-0.631  c0.569-0.543,1.126-1.1,1.708-1.625C37.03,22.239,37.109,22.198,37.208,22.246z" clip-rule="evenodd" fill-rule="evenodd"/><path fill="#1889BD" d="M26.684,27.768c-0.06-0.051-0.104-0.112-0.119-0.191  c-0.029-0.214,0.07-0.378,0.215-0.516c0.6-0.572,1.223-1.119,1.824-1.69c0.229-0.219,0.441-0.459,0.696-0.653  c0.136,0.209,0.273,0.416,0.409,0.623c-0.458,0.338-0.935,0.655-1.308,1.089c-0.379,0.438-0.882,0.738-1.265,1.169  C27.03,27.719,26.856,27.767,26.684,27.768z" clip-rule="evenodd" fill-rule="evenodd"/><path fill="#10A8D6" d="M24.287,22.993c0.085-0.359,0.443-0.468,0.662-0.705  c0.538-0.584,1.097-1.155,1.701-1.672c0.715-0.614,1.354-1.303,2.057-1.929c0.074-0.064,0.12-0.138,0.159-0.22  c0.161,0.074,0.323,0.147,0.485,0.221c-0.058,0.138-0.172,0.198-0.309,0.23c-0.514,0.411-0.977,0.875-1.456,1.324  c-0.494,0.463-0.965,0.949-1.476,1.395c-0.392,0.342-0.709,0.771-1.122,1.092C24.787,22.885,24.596,23.104,24.287,22.993z" clip-rule="evenodd" fill-rule="evenodd"/><path fill="#0A78AD" d="M33.111,24.243c0.041-0.239,0.273-0.243,0.425-0.347  c0.39-0.266,0.661-0.668,1.029-0.954c0.497-0.385,0.843-0.933,1.398-1.249c0.141,0.063,0.286,0.126,0.427,0.189  c-0.168,0.28-0.439,0.461-0.66,0.69c-0.542,0.557-1.131,1.065-1.649,1.644c-0.072,0.078-0.16,0.151-0.16,0.284  c-0.002,0.09-0.081,0.065-0.141,0.042C33.543,24.474,33.324,24.366,33.111,24.243z" clip-rule="evenodd" fill-rule="evenodd"/><path fill="#0A4A7B" d="M40.157,27.422c-0.06-0.013-0.122-0.025-0.184-0.037  c-0.155-0.001-0.319,0.013-0.39-0.178c0.78-0.688,1.505-1.437,2.229-2.177c0.255-0.258,0.465-0.426,0.811-0.43  c0.15,0.059,0.302,0.118,0.452,0.176c-0.904,0.81-1.785,1.647-2.659,2.494C40.341,27.345,40.255,27.394,40.157,27.422z" clip-rule="evenodd" fill-rule="evenodd"/><path fill="#0E4571" d="M37.935,29.603c-0.251,0.023-0.343-0.176-0.442-0.339  c-0.147-0.242-0.261-0.503-0.402-0.751c-0.127-0.222-0.283-0.392-0.498-0.518c0.137-0.227,0.274-0.454,0.409-0.681  c0.321,0.098,0.516,0.308,0.64,0.625c0.125,0.315,0.354,0.585,0.589,0.824c0.136,0.138,0.129,0.262,0.138,0.41  C38.248,29.341,38.098,29.479,37.935,29.603z" clip-rule="evenodd" fill-rule="evenodd"/><path fill="#153E69" d="M36.077,28.858c0.137,0.428,0.485,0.723,0.7,1.105  c0.08,0.146,0.177-0.047,0.274-0.065c0.018,0.128-0.032,0.219-0.13,0.264c-0.253,0.115-0.064,0.171,0.023,0.243  c-0.516,0.38-1.046,0.392-1.594,0.066c-0.148-0.089-0.201-0.155-0.086-0.324C35.546,29.726,35.808,29.289,36.077,28.858z" clip-rule="evenodd" fill-rule="evenodd"/><path fill="#127EB4" d="M27.562,29.101c-0.081-0.125-0.163-0.249-0.245-0.374  c-0.157-0.243-0.088-0.438,0.114-0.618c0.346-0.302,0.698-0.602,1.02-0.929c0.471-0.479,1.009-0.891,1.441-1.411  c0.118-0.042,0.115,0.107,0.196,0.128c0.085,0.088,0.16,0.183,0.204,0.301c-0.715,0.76-1.449,1.501-2.258,2.165  C27.798,28.555,27.666,28.821,27.562,29.101z" clip-rule="evenodd" fill-rule="evenodd"/><path fill="#168FC2" d="M30.277,22.977c0.004-0.235,0.098-0.399,0.328-0.493  c0.18-0.072,0.236-0.277,0.368-0.406c0.55-0.524,1.101-1.046,1.639-1.582c0.143-0.143,0.295-0.102,0.454-0.1  c0.094,0.009,0.172,0.05,0.244,0.108c0.013,0.112-0.056,0.187-0.126,0.251c-0.862,0.767-1.658,1.6-2.475,2.412  C30.562,23.11,30.405,23.077,30.277,22.977z" clip-rule="evenodd" fill-rule="evenodd"/><path fill="#1071A9" d="M28.227,30.038c-0.014-0.272,0.265-0.22,0.386-0.345  c0.67-0.69,1.408-1.307,2.087-1.988c0.112-0.114,0.259-0.272,0.444-0.329c0.103,0.087,0.176,0.196,0.238,0.314  c-0.568,0.541-1.133,1.084-1.701,1.624c-0.177,0.167-0.359,0.327-0.544,0.486c-0.229,0.199-0.45,0.406-0.595,0.678  C28.412,30.349,28.307,30.202,28.227,30.038z" clip-rule="evenodd" fill-rule="evenodd"/><path fill="#097BB1" d="M37.562,20.579c-0.188,0.077-0.374,0.154-0.56,0.23  c-0.097-0.037-0.31,0.15-0.268-0.156c0.016-0.096-0.136-0.138-0.206-0.21c-0.394-0.398-0.628-0.912-0.982-1.339  c-0.139-0.169-0.367-0.292-0.345-0.563c0.137-0.09,0.287-0.143,0.446-0.178c0.201-0.078,0.33-0.024,0.453,0.169  c0.282,0.447,0.633,0.846,0.896,1.307c0.12,0.212,0.287,0.397,0.49,0.542C37.555,20.427,37.633,20.479,37.562,20.579z" clip-rule="evenodd" fill-rule="evenodd"/><path fill="#0F67A1" d="M38.188,22.681c0.095,0.008,0.173,0.051,0.246,0.106  c0.077,0.156,0.023,0.295-0.101,0.38c-0.637,0.455-1.15,1.043-1.712,1.579c-0.267,0.253-0.527,0.514-0.85,0.702  c-0.123-0.058-0.246-0.116-0.371-0.174c-0.133-0.107-0.007-0.095,0.048-0.166c0.535-0.687,1.185-1.26,1.82-1.848  c0.143-0.132,0.284-0.265,0.41-0.413C37.815,22.689,37.971,22.597,38.188,22.681z" clip-rule="evenodd" fill-rule="evenodd"/><path fill="#198DC0" d="M37.245,17.741c0.214-0.12,0.445-0.195,0.681-0.261  c0.131-0.001,0.279,0.026,0.302,0.159c0.058,0.35,0.334,0.556,0.509,0.826c0.226,0.35,0.409,0.744,0.79,0.968  c0.157,0.092-0.062,0.276,0.098,0.361c-0.211,0.153-0.462,0.207-0.702,0.287c-0.241-0.308-0.396-0.671-0.635-0.979  C37.935,18.652,37.631,18.165,37.245,17.741z" clip-rule="evenodd" fill-rule="evenodd"/><path fill="#0E7FB4" d="M37.562,20.579c-0.196-0.237-0.464-0.407-0.624-0.682  c-0.27-0.471-0.614-0.889-0.916-1.338c-0.11-0.164-0.214-0.197-0.374-0.196c0.256-0.133,0.523-0.239,0.8-0.314  c0.201,0.165,0.324,0.39,0.47,0.598c0.257,0.37,0.51,0.741,0.791,1.096c0.106,0.136,0.285,0.272,0.189,0.5  c-0.006,0.013,0.031-0.004,0.047,0.001c0.074,0.024,0.135,0.057,0.11,0.151C37.9,20.482,37.737,20.544,37.562,20.579z" clip-rule="evenodd" fill-rule="evenodd"/><path fill="#1488BC" d="M34.167,20.895c-0.773,0.72-1.542,1.443-2.318,2.159  c-0.147,0.136-0.199,0.355-0.401,0.438c-0.156-0.034-0.298-0.102-0.43-0.191c-0.107-0.066-0.067-0.116,0.006-0.185  c0.771-0.73,1.576-1.422,2.295-2.207c0.109-0.119,0.227-0.241,0.418-0.207C33.892,20.739,34.037,20.8,34.167,20.895z" clip-rule="evenodd" fill-rule="evenodd"/><path fill="#1993C4" d="M39.624,19.793c-0.104-0.016-0.218-0.047-0.229-0.165  c-0.011-0.117,0.12-0.011,0.178-0.093c-0.398-0.161-0.596-0.518-0.78-0.857c-0.189-0.348-0.586-0.565-0.612-1.014  c-0.006-0.112-0.173-0.113-0.255-0.184c0.21-0.112,0.431-0.191,0.664-0.24c0.201,0.126,0.239,0.367,0.375,0.542  c0.36,0.457,0.649,0.964,1.033,1.4c0.168,0.19,0.166,0.359-0.028,0.524C39.859,19.754,39.752,19.815,39.624,19.793z" clip-rule="evenodd" fill-rule="evenodd"/><path fill="#134270" d="M41.08,27.799c-0.176-0.029-0.341-0.089-0.493-0.185  c0.028-0.289,0.193-0.508,0.395-0.682c0.725-0.621,1.41-1.282,2.094-1.946c0.068-0.067,0.141-0.115,0.229-0.14  c0.186,0.021,0.37,0.044,0.557,0.065c0.017,0.103-0.101,0.092-0.127,0.147c-0.242,0.513-0.741,0.765-1.131,1.127  c-0.419,0.393-0.798,0.827-1.241,1.192C41.219,27.496,41.251,27.711,41.08,27.799z" clip-rule="evenodd" fill-rule="evenodd"/><path fill="#08639E" d="M29.415,31.631c-0.106-0.335,0.231-0.384,0.375-0.536  c0.51-0.54,1.051-1.049,1.584-1.565c0.125-0.121,0.255-0.238,0.395-0.336c0.177-0.124,0.236-0.35,0.424-0.458  c0.112,0.121,0.223,0.24,0.333,0.361c-0.23,0.035-0.333,0.252-0.469,0.386c-0.793,0.779-1.601,1.542-2.428,2.288  c-0.021,0.02-0.03,0.054-0.044,0.08C29.528,31.777,29.471,31.705,29.415,31.631z" clip-rule="evenodd" fill-rule="evenodd"/><path fill="#084B7D" d="M31.934,34.439c0.259-0.515,0.799-0.759,1.146-1.183  c0.422-0.516,1.017-0.85,1.405-1.394c0.072-0.103,0.164-0.171,0.303-0.186c-0.06-0.092-0.18-0.051-0.168-0.163  c0.115-0.042,0.229-0.025,0.345,0.001c0.084,0.037,0.147,0.095,0.195,0.171c0.051,0.143-0.039,0.242-0.126,0.322  c-0.869,0.794-1.641,1.693-2.578,2.413c-0.098,0.075-0.129,0.216-0.266,0.244C32.105,34.59,32.019,34.515,31.934,34.439z" clip-rule="evenodd" fill-rule="evenodd"/><path fill="#173A64" d="M36.34,32.497c0.317,0.107,0.637,0.19,0.976,0.139  c0.015,0.031,0.011,0.057-0.015,0.079c-0.067,0.042-0.144,0.046-0.217,0.051c-0.171,0.007-0.321,0.062-0.446,0.183  c-0.821,0.799-1.686,1.557-2.471,2.396c-0.097,0.105-0.217,0.186-0.309,0.295c-0.221-0.042-0.428-0.12-0.615-0.243  c-0.01-0.031-0.007-0.077,0.017-0.082c0.378-0.084,0.569-0.41,0.828-0.646c0.618-0.569,1.215-1.161,1.837-1.725  C36.077,32.805,36.128,32.576,36.34,32.497z" clip-rule="evenodd" fill-rule="evenodd"/><path fill="#11ABD8" d="M44.052,21.403c0.005-0.05,0.036-0.126,0.012-0.148  c-0.297-0.278-0.394-0.687-0.661-0.992c-0.336-0.379-0.603-0.819-0.896-1.234c-0.531-0.751-1.105-1.473-1.565-2.274  c-0.057-0.098-0.166-0.17-0.295-0.185c0.065-0.062,0.147-0.065,0.231-0.067c0.198-0.066,0.277,0.092,0.373,0.205  c0.362,0.422,0.654,0.895,0.984,1.34c0.591,0.8,1.153,1.622,1.732,2.43c0.071,0.102,0.159,0.189,0.262,0.26  c-0.027,0.109,0.163,0.05,0.129,0.164C44.28,21.084,44.181,21.253,44.052,21.403z" clip-rule="evenodd" fill-rule="evenodd"/><path fill="#153F6A" d="M36.34,32.497c-0.074,0.192-0.203,0.351-0.348,0.489  c-0.643,0.614-1.295,1.218-1.943,1.827c-0.244,0.229-0.44,0.521-0.806,0.583c-0.096-0.015-0.178-0.058-0.248-0.126  c0.588-0.492,1.096-1.07,1.687-1.561c0.225-0.188,0.444-0.413,0.635-0.65c0.239-0.295,0.552-0.487,0.903-0.625  C36.269,32.436,36.313,32.448,36.34,32.497z" clip-rule="evenodd" fill-rule="evenodd"/><path fill="#1074AB" d="M33.781,24.542c0.234-0.516,0.721-0.816,1.063-1.244  c0.197-0.247,0.487-0.421,0.716-0.657c0.259-0.266,0.498-0.568,0.831-0.759c0.095,0.011,0.177,0.047,0.249,0.112  c0.118,0.122,0.05,0.201-0.044,0.307c-0.519,0.6-1.125,1.109-1.701,1.649c-0.196,0.184-0.437,0.344-0.485,0.651  c-0.014,0.083-0.112,0.113-0.189,0.144C34.066,24.696,33.914,24.641,33.781,24.542z" clip-rule="evenodd" fill-rule="evenodd"/><path fill="#168FC2" d="M26.19,26.969c0.047-0.105,0.164-0.185,0.094-0.331  c-0.021-0.042,0.005-0.15,0.038-0.165c0.342-0.151,0.526-0.494,0.865-0.669c0.274-0.141,0.471-0.442,0.679-0.694  c0.077-0.094,0.133-0.222,0.248-0.256c0.31-0.093,0.383-0.447,0.661-0.569c0.076-0.034-0.003-0.059-0.024-0.081  c-0.181-0.19,0.086-0.095,0.103-0.16c0.1,0.112,0.206,0.22,0.251,0.369c0.052,0.12,0.009,0.209-0.074,0.302  c-0.138,0.155-0.296,0.286-0.453,0.417c-0.757,0.629-1.457,1.319-2.145,2.022c-0.029,0.03-0.061,0.055-0.105,0.037  C26.257,27.132,26.215,27.055,26.19,26.969z" clip-rule="evenodd" fill-rule="evenodd"/><path fill="#126AA3" d="M38.188,22.681c-0.228,0.01-0.377,0.128-0.527,0.298  c-0.352,0.398-0.827,0.677-1.146,1.104c-0.257,0.346-0.655,0.54-0.9,0.89c-0.071,0.1-0.142,0.2-0.212,0.302  c-0.183-0.053-0.356-0.126-0.514-0.234c0.439-0.396,0.901-0.77,1.312-1.193c0.427-0.439,0.886-0.837,1.316-1.27  c0.043-0.043,0.075-0.096,0.113-0.144C37.824,22.49,38.015,22.567,38.188,22.681z" clip-rule="evenodd" fill-rule="evenodd"/><path fill="#1384BA" d="M26.684,27.768c0.528-0.267,0.922-0.701,1.349-1.089  c0.377-0.342,0.729-0.712,1.118-1.045c0.138-0.119,0.44-0.279,0.559-0.293c0.058,0.075,0.144,0.135,0.141,0.245  c-0.015,0.016-0.018,0.041-0.03,0.051c-0.846,0.765-1.654,1.568-2.49,2.34c-0.095,0.087-0.165,0.253-0.33,0.274  C26.871,28.105,26.763,27.946,26.684,27.768z" clip-rule="evenodd" fill-rule="evenodd"/><path fill="#0E4A78" d="M39.6,27.192c0.084,0.146,0.276,0.075,0.374,0.193  c-0.292,0.366-0.582,0.733-0.925,1.056c-0.007-0.092,0.02-0.168-0.056-0.273c-0.277-0.385-0.535-0.787-0.761-1.205  c-0.094-0.176-0.281-0.296-0.298-0.512c0.175,0.032,0.336,0.104,0.492,0.185c0.156,0.083,0.307,0.185,0.495,0.186  c0.101,0.07,0.232,0.081,0.336,0.148C39.369,27.048,39.537,27.041,39.6,27.192z" clip-rule="evenodd" fill-rule="evenodd"/><path fill="#014E80" d="M39.6,27.192c-0.116-0.073-0.278-0.061-0.369-0.185  c0.603-0.473,1.098-1.063,1.676-1.566c0.329-0.285,0.743-0.539,0.862-1.026c0.028-0.128,0.16-0.038,0.241-0.065  c0.215,0.056,0.42,0.137,0.613,0.249c-0.168,0.028-0.288,0.239-0.494,0.139c-0.016-0.007-0.059,0.023-0.074,0.046  c-0.56,0.895-1.493,1.438-2.132,2.258C39.839,27.151,39.715,27.161,39.6,27.192z" clip-rule="evenodd" fill-rule="evenodd"/><path fill="#178CBF" d="M33.738,20.701c-0.136,0.025-0.241,0.119-0.321,0.21  c-0.653,0.754-1.461,1.353-2.122,2.097c-0.089,0.101-0.308,0.083-0.277,0.292c-0.116-0.014-0.212-0.074-0.309-0.132  c0.014-0.301,0.295-0.4,0.461-0.574c0.537-0.569,1.152-1.064,1.653-1.669c0.141-0.17,0.39-0.207,0.487-0.42  C33.425,20.631,33.628,20.562,33.738,20.701z" clip-rule="evenodd" fill-rule="evenodd"/><path fill="#126BA4" d="M31.956,28.421c-0.465,0.333-0.853,0.755-1.275,1.136  c-0.482,0.435-0.91,0.936-1.465,1.286c-0.119,0.074-0.069,0.229-0.175,0.303c-0.106-0.085-0.179-0.195-0.244-0.312  c0.659-0.629,1.311-1.266,1.979-1.882c0.237-0.218,0.479-0.431,0.704-0.661c0.074-0.075,0.155-0.135,0.161-0.249  C31.77,28.149,31.874,28.277,31.956,28.421z" clip-rule="evenodd" fill-rule="evenodd"/><path fill="#1993C4" d="M40.834,21.264c0.017-0.075,0.053-0.139,0.112-0.188  c0.099-0.062,0.095-0.241,0.309-0.01c0.551,0.597,0.989,1.27,1.47,1.911c0.055,0.071,0.245,0.038,0.152,0.214  c-0.077,0.161-0.181,0.303-0.308,0.43c-0.153,0.007-0.244-0.084-0.321-0.199c-0.442-0.646-0.912-1.274-1.346-1.926  C40.855,21.426,40.847,21.345,40.834,21.264z" clip-rule="evenodd" fill-rule="evenodd"/><path fill="#005184" d="M42.01,24.351c-0.002,0.256-0.15-0.065-0.192,0.06  c0.149,0.195-0.045,0.307-0.145,0.412c-0.46,0.487-0.991,0.9-1.467,1.376c-0.294,0.296-0.55,0.661-0.976,0.809  c-0.129-0.022-0.244-0.062-0.309-0.186c0.264-0.082,0.429-0.309,0.62-0.481c0.604-0.542,1.171-1.119,1.759-1.68  c0.144-0.138,0.24-0.297,0.276-0.494C41.73,24.203,41.877,24.259,42.01,24.351z" clip-rule="evenodd" fill-rule="evenodd"/><path fill="#183058" d="M37.315,32.688c0-0.018,0-0.035,0-0.052  c0.226-0.073,0.427-0.189,0.629-0.312c0.065-0.04,0.154-0.082,0.224,0c0.075,0.087-0.004,0.147-0.056,0.208  c-0.443,0.508-0.885,1.015-1.328,1.523c-0.427-0.047-0.568,0.335-0.801,0.556c-0.175,0.169-0.356,0.341-0.516,0.521  c-0.194,0.216-0.458,0.353-0.62,0.596c-0.128,0.013-0.308,0.081-0.366-0.037c-0.074-0.151,0.111-0.232,0.209-0.333  c0.49-0.507,1.007-0.987,1.519-1.472c0.337-0.319,0.657-0.657,1.021-0.946C37.318,32.869,37.28,32.769,37.315,32.688z" clip-rule="evenodd" fill-rule="evenodd"/><path fill="#1B8CC0" d="M26.327,27.191c0.406-0.507,0.923-0.905,1.365-1.375  c0.404-0.43,0.914-0.735,1.305-1.178c0.068-0.076,0.056-0.16,0.107-0.226c0.088,0.087,0.155,0.187,0.196,0.304  c-0.105,0.265-0.329,0.438-0.534,0.606c-0.232,0.188-0.456,0.384-0.647,0.608c-0.38,0.446-0.895,0.737-1.286,1.172  c-0.133,0.146-0.158,0.327-0.268,0.472C26.458,27.465,26.386,27.333,26.327,27.191z" clip-rule="evenodd" fill-rule="evenodd"/><path fill="#0E7DB3" d="M27.562,29.101c-0.07-0.359,0.185-0.598,0.396-0.774  c0.304-0.254,0.604-0.509,0.892-0.785c0.344-0.333,0.694-0.66,1.047-0.986c0.13-0.12,0.145-0.37,0.395-0.357  c0.11,0.104,0.19,0.231,0.253,0.367c-0.814,0.43-1.336,1.198-2.034,1.765c-0.204,0.167-0.36,0.4-0.58,0.539  c-0.135,0.087-0.242,0.173-0.32,0.304C27.595,29.149,27.578,29.125,27.562,29.101z" clip-rule="evenodd" fill-rule="evenodd"/><path fill="#08639E" d="M35.771,25.448c0.33-0.406,0.768-0.697,1.128-1.072  c0.435-0.453,0.856-0.926,1.405-1.257c0.082-0.049,0.089-0.219,0.129-0.333c0.152,0.046,0.3,0.099,0.432,0.194  c-0.205,0.012-0.337,0.166-0.39,0.313c-0.113,0.315-0.357,0.51-0.594,0.686c-0.566,0.426-1.035,0.948-1.514,1.461  c-0.075,0.081-0.255-0.009-0.234,0.17C36.013,25.562,35.876,25.541,35.771,25.448z" clip-rule="evenodd" fill-rule="evenodd"/><path fill="#1074AB" d="M34.413,18.854c0.089-0.071,0.193-0.108,0.306-0.122  c0.159-0.05,0.288,0.01,0.371,0.135c0.415,0.635,0.899,1.222,1.312,1.857c0.054,0.083,0.123,0.167,0.107,0.279  c-0.367,0.246-0.624-0.072-0.921-0.18c-0.029-0.218-0.167-0.383-0.28-0.556c-0.25-0.382-0.537-0.739-0.795-1.115  C34.453,19.063,34.357,18.983,34.413,18.854z" clip-rule="evenodd" fill-rule="evenodd"/><path fill="#1071A9" d="M34.22,24.746c0.331-0.773,1.048-1.188,1.62-1.738  c0.279-0.268,0.502-0.588,0.8-0.842c0.028-0.024,0.002-0.113,0-0.171c0.2,0.061,0.391,0.137,0.568,0.251  c-0.271,0.049-0.368,0.312-0.544,0.47c-0.767,0.688-1.501,1.41-2.248,2.117C34.352,24.805,34.287,24.776,34.22,24.746z" clip-rule="evenodd" fill-rule="evenodd"/><path fill="#1083B8" d="M27,28.25c0.053-0.097,0.143-0.178,0.135-0.302  c0.207,0.17,0.184-0.09,0.248-0.148c0.488-0.439,0.965-0.889,1.437-1.346c0.224-0.217,0.507-0.377,0.636-0.69  c0.064-0.159,0.276-0.085,0.394-0.179c0.019,0.023,0.038,0.047,0.057,0.071c0.034,0.039,0.04,0.077,0,0.116  c-0.009,0.321-0.313,0.404-0.49,0.579c-0.615,0.605-1.253,1.189-1.895,1.768c-0.194,0.176-0.292,0.353-0.205,0.608  C27.195,28.579,27.074,28.431,27,28.25z" clip-rule="evenodd" fill-rule="evenodd"/><path fill="#10A8D6" d="M24.287,22.993c0.502-0.057,0.816-0.426,1.128-0.75  c0.582-0.602,1.2-1.163,1.805-1.738c0.348-0.332,0.683-0.677,1.029-1.01c0.193-0.184,0.396-0.357,0.595-0.534  c0.055-0.048,0.105-0.151,0.197-0.043c-0.071,0.256-0.294,0.39-0.469,0.552c-0.747,0.687-1.484,1.38-2.195,2.102  c-0.356,0.362-0.746,0.691-1.116,1.04c-0.332,0.311-0.658,0.628-0.985,0.942c-0.086-0.107-0.155-0.225-0.182-0.361  C24.179,23.146,24.086,22.928,24.287,22.993z" clip-rule="evenodd" fill-rule="evenodd"/><path fill="#163F6B" d="M41.08,27.799c0.058-0.214,0.128-0.398,0.329-0.553  c0.33-0.253,0.617-0.564,0.907-0.867c0.398-0.42,0.878-0.746,1.291-1.143c-0.025-0.008-0.072-0.025-0.119-0.04  c0.174,0.015,0.035-0.213,0.176-0.224c0.069-0.005,0.145,0.009,0.197-0.061c0.246-0.082,0.492-0.164,0.741-0.246  c0.017,0.162-0.116,0.25-0.212,0.311c-0.336,0.206-0.562,0.524-0.849,0.779c-0.577,0.515-1.117,1.069-1.672,1.609  c-0.171,0.168-0.389,0.293-0.542,0.489C41.247,27.835,41.164,27.817,41.08,27.799z" clip-rule="evenodd" fill-rule="evenodd"/><path fill="#124574" d="M43.305,24.846c-0.735,0.764-1.51,1.482-2.312,2.173  c-0.176,0.151-0.272,0.393-0.405,0.594c-0.144-0.064-0.286-0.128-0.43-0.191c0.449-0.47,0.926-0.913,1.413-1.344  c0.403-0.356,0.778-0.743,1.161-1.12c0.1-0.097,0.209-0.161,0.344-0.183C43.161,24.776,43.238,24.792,43.305,24.846z" clip-rule="evenodd" fill-rule="evenodd"/><path fill="#169ACB" d="M38.862,17.138c0.138-0.062,0.272-0.132,0.431-0.13  c0.227,0.021,0.42,0.068,0.439,0.359c0.009,0.107,0.095,0.204,0.169,0.291c0.309,0.358,0.527,0.785,0.853,1.13  c0.058,0.062,0.067,0.148,0.09,0.227c0.007,0.019-0.068,0.083,0.054,0.081c0.278-0.01,0.135,0.149,0.075,0.264  c-0.097,0.069-0.207,0.1-0.324,0.112c-0.112-0.013-0.201-0.045-0.274-0.154c-0.397-0.589-0.853-1.138-1.216-1.751  C39.068,17.415,38.823,17.374,38.862,17.138z" clip-rule="evenodd" fill-rule="evenodd"/><path fill="#17365F" d="M33.858,35.638c-0.021-0.045-0.07-0.1-0.026-0.14  c0.718-0.629,1.388-1.31,2.069-1.975c0.241-0.235,0.503-0.452,0.743-0.687c0.115-0.11,0.266-0.151,0.425-0.136  c0.104,0.137-0.002,0.226-0.077,0.319c-0.193,0.241-0.43,0.438-0.652,0.649c-0.612,0.583-1.247,1.145-1.83,1.758  c-0.114,0.119-0.249,0.211-0.405,0.274C34.024,35.68,33.939,35.66,33.858,35.638z" clip-rule="evenodd" fill-rule="evenodd"/><path fill="#18A1D1" d="M27.666,22.01c-0.416,0.389-0.833,0.777-1.248,1.169  c-0.444,0.42-0.887,0.844-1.33,1.268c-0.086,0.083-0.189,0.162-0.193,0.301c-0.103-0.192-0.207-0.384-0.312-0.577  c0.133,0.087,0.216,0.075,0.359-0.044c0.638-0.527,1.197-1.141,1.847-1.658c0.233-0.186,0.529-0.418,0.622-0.767  c0.03-0.113,0.096-0.067,0.148-0.004c0.047,0.02,0.066,0.055,0.059,0.105C27.509,21.9,27.689,21.932,27.666,22.01z" clip-rule="evenodd" fill-rule="evenodd"/><path fill="#0C4979" d="M32.19,34.666c0.073-0.168,0.189-0.292,0.35-0.389  c0.146-0.088,0.275-0.213,0.399-0.333c0.667-0.642,1.33-1.288,1.995-1.931c0.099-0.094,0.174-0.202,0.225-0.326  c0.13,0.103,0.26,0.206,0.388,0.309c-0.266,0.243-0.542,0.476-0.805,0.723c-0.702,0.657-1.396,1.322-2.108,1.966  c-0.079,0.072-0.167,0.113-0.27,0.129C32.291,34.782,32.227,34.74,32.19,34.666z" clip-rule="evenodd" fill-rule="evenodd"/><path fill="#169ACB" d="M43.353,22.497c-0.072,0.105-0.144,0.211-0.218,0.316  c-0.271,0.105-0.322,0.082-0.322-0.178c0-0.045-0.008-0.077-0.028-0.094c-0.412-0.33-0.628-0.811-0.937-1.216  c-0.165-0.21-0.385-0.377-0.47-0.646c-0.024-0.075-0.086-0.139-0.054-0.226c0.021-0.09,0.062-0.17,0.13-0.235  c0.15-0.083,0.237-0.087,0.354,0.098c0.295,0.461,0.65,0.885,0.956,1.342C42.954,21.942,43.193,22.193,43.353,22.497z" clip-rule="evenodd" fill-rule="evenodd"/><path fill="#17AEDB" d="M44.231,20.771c-0.202,0.023-0.257-0.155-0.341-0.268  c-0.25-0.337-0.469-0.696-0.714-1.036c-0.655-0.905-1.312-1.806-1.978-2.704c-0.081-0.107-0.149-0.254-0.321-0.26  c0.054-0.058,0.125-0.059,0.193-0.058c0.197-0.078,0.326,0.001,0.439,0.167c0.66,0.965,1.335,1.919,2.033,2.857  c0.245,0.327,0.453,0.681,0.705,1.007C44.324,20.576,44.349,20.679,44.231,20.771z" clip-rule="evenodd" fill-rule="evenodd"/><path fill="#1AB1DD" d="M44.231,20.771c0.061-0.328-0.227-0.48-0.37-0.693  c-0.555-0.82-1.139-1.62-1.717-2.422c-0.257-0.357-0.531-0.701-0.75-1.083c-0.081-0.138-0.201-0.12-0.323-0.127  c0.139-0.074,0.285-0.117,0.44-0.129c0.318,0.358,0.584,0.759,0.865,1.145c0.521,0.708,0.976,1.463,1.533,2.144  c0.213,0.262,0.359,0.569,0.558,0.846c0.056,0.081,0.068,0.169,0.011,0.257c-0.02,0.077-0.053,0.146-0.12,0.193  C44.337,20.837,44.202,20.885,44.231,20.771z" clip-rule="evenodd" fill-rule="evenodd"/><path fill="#1B96C7" d="M38.862,17.138c0.617,0.682,1.082,1.473,1.618,2.213  c0.037,0.054,0.112,0.08,0.168,0.119c-0.225,0.079-0.452,0.158-0.679,0.236c0.176-0.263,0.007-0.415-0.151-0.614  c-0.399-0.511-0.762-1.05-1.134-1.583c-0.054-0.076-0.064-0.179-0.095-0.269C38.67,17.179,38.762,17.152,38.862,17.138z" clip-rule="evenodd" fill-rule="evenodd"/><path fill="#1A96C8" d="M41.324,20.454c0.285,0.479,0.628,0.918,0.964,1.362  c0.087,0.114,0.164,0.229,0.237,0.352c0.062,0.105,0.071,0.277,0.263,0.259c-0.048,0.093,0.151,0.079,0.072,0.25  c-0.09,0.197,0.164,0.112,0.274,0.137c-0.064,0.14-0.142,0.272-0.258,0.378c-0.142-0.175-0.278-0.356-0.428-0.523  c-0.38-0.42-0.694-0.888-1.011-1.353c-0.085-0.124-0.337-0.1-0.288-0.333c0.003-0.009-0.12,0.088-0.204,0.093  C41.047,20.853,41.176,20.648,41.324,20.454z" clip-rule="evenodd" fill-rule="evenodd"/><path fill="#18A1D1" d="M27.619,21.803c-0.019-0.035-0.04-0.071-0.059-0.105  c0.703-0.672,1.423-1.329,2.099-2.025c0.221-0.228,0.398-0.465,0.738-0.494c0.068,0.035,0.136,0.069,0.204,0.104  c-0.198,0.111-0.362,0.263-0.524,0.421c-0.752,0.724-1.509,1.441-2.265,2.163C27.748,21.845,27.683,21.824,27.619,21.803z" clip-rule="evenodd" fill-rule="evenodd"/><path fill="#163D68" d="M41.328,27.854c-0.018-0.145,0.077-0.232,0.172-0.306  c0.793-0.599,1.432-1.362,2.166-2.023c0.313-0.281,0.666-0.528,0.937-0.859c0.187,0.003,0.117,0.09,0.051,0.167  c-0.387,0.459-0.773,0.915-1.159,1.372c-0.338,0.101-0.509,0.405-0.75,0.619c-0.318,0.282-0.562,0.636-0.896,0.903  c-0.083,0.066-0.178,0.1-0.271,0.135C41.495,27.86,41.411,27.857,41.328,27.854z" clip-rule="evenodd" fill-rule="evenodd"/><path fill="#0D77AE" d="M36.51,21.003c-0.347-0.484-0.704-0.96-1.032-1.455  c-0.14-0.21-0.331-0.382-0.429-0.625C35,18.8,34.857,18.75,34.719,18.732c0.15-0.088,0.309-0.159,0.483-0.191  c0.186,0.244,0.366,0.493,0.562,0.729c0.293,0.352,0.478,0.777,0.796,1.115c0.084,0.087,0.452,0.09,0.233,0.388  c-0.007,0.009,0.148-0.048,0.209,0.037C36.838,20.874,36.672,20.939,36.51,21.003z" clip-rule="evenodd" fill-rule="evenodd"/><path fill="#124574" d="M32.365,34.814c0.42-0.377,0.845-0.749,1.242-1.153  c0.403-0.414,0.893-0.742,1.268-1.183c0.192-0.223,0.42-0.361,0.673-0.482c0.072,0.018,0.13,0.059,0.168,0.124  c-0.29,0.104-0.463,0.357-0.675,0.553c-0.651,0.602-1.262,1.245-1.909,1.849c-0.179,0.169-0.407,0.265-0.567,0.446  C32.498,34.917,32.431,34.864,32.365,34.814z" clip-rule="evenodd" fill-rule="evenodd"/><path fill="#1DB3DF" d="M44.479,20.708c-0.146-0.429-0.408-0.794-0.693-1.13  c-0.355-0.421-0.62-0.903-0.959-1.333c-0.345-0.439-0.643-0.914-0.976-1.361c-0.135-0.179-0.246-0.365-0.339-0.567  c0.095-0.067,0.203-0.086,0.314-0.102c-0.045,0.203,0.057,0.347,0.168,0.506c0.862,1.224,1.775,2.411,2.6,3.66  c0.009,0.013,0.035,0.013,0.056,0.02C44.594,20.502,44.536,20.605,44.479,20.708z" clip-rule="evenodd" fill-rule="evenodd"/><path fill="#0D9ECE" d="M43.353,22.497c-0.57-0.524-0.901-1.231-1.383-1.825  c-0.103-0.126-0.254-0.226-0.281-0.423c-0.021-0.146-0.17,0.115-0.234-0.03c0.085-0.164,0.171-0.329,0.257-0.494  c0.104-0.013,0.141,0.07,0.188,0.134c0.509,0.684,1.005,1.377,1.49,2.08c0.068,0.098,0.16,0.194,0.11,0.334  C43.479,22.364,43.417,22.432,43.353,22.497z" clip-rule="evenodd" fill-rule="evenodd"/><path fill="#096FA8" d="M35.216,20.65c-0.384-0.134-0.755-0.302-1.111-0.498  c-0.327-0.233-0.543-0.547-0.679-0.92c0.214-0.114,0.439-0.201,0.675-0.258c0.065,0.007,0.118,0.032,0.15,0.09  c0.267,0.475,0.614,0.892,0.915,1.341C35.218,20.48,35.292,20.551,35.216,20.65z" clip-rule="evenodd" fill-rule="evenodd"/><path fill="#18335B" d="M34.105,35.701c0.508-0.487,1.015-0.972,1.521-1.459  c0.455-0.439,0.908-0.88,1.361-1.319c0.064-0.062,0.086-0.137,0.082-0.222c0.081-0.005,0.164-0.009,0.246-0.014  c0.188,0.136,0.064,0.301-0.041,0.328c-0.201,0.051-0.242,0.218-0.354,0.335c-0.212,0.219-0.464,0.399-0.681,0.616  c-0.453,0.454-0.954,0.857-1.377,1.342c-0.034,0.038-0.066,0.078-0.108,0.104c-0.102,0.064-0.268,0.113-0.219,0.251  c0.04,0.109,0.2,0.031,0.306,0.037c0.029-0.012,0.055-0.007,0.077,0.016C34.646,35.82,34.375,35.75,34.105,35.701z" clip-rule="evenodd" fill-rule="evenodd"/><path fill="#0DA4D3" d="M42.008,19.166c0.443,0.469,0.816,0.991,1.169,1.53  c0.146,0.224,0.391,0.398,0.483,0.624c0.074,0.187,0.166,0.178,0.292,0.201c-0.006,0.07-0.014,0.139-0.083,0.181  c-0.264,0.252-0.266,0.254-0.496-0.041c-0.328-0.418-0.617-0.866-0.926-1.298c-0.114-0.158-0.234-0.32-0.371-0.442  c-0.225-0.2-0.228-0.394-0.131-0.634C41.967,19.249,41.986,19.207,42.008,19.166z" clip-rule="evenodd" fill-rule="evenodd"/><path fill="#1890C2" d="M40.834,21.264c0.207,0.251,0.341,0.559,0.54,0.807  c0.365,0.45,0.645,0.958,1.007,1.407c0.049,0.059,0.124,0.095,0.188,0.143c-0.194,0.353-0.386,0.032-0.579-0.002  c-0.393-0.513-0.791-1.024-1.123-1.58c-0.081-0.139-0.324-0.128-0.294-0.348C40.637,21.535,40.722,21.392,40.834,21.264z" clip-rule="evenodd" fill-rule="evenodd"/><path fill="#1486BB" d="M38.736,20.145c-0.117,0.064-0.236,0.121-0.371,0.133  c-0.042-0.039-0.049-0.086-0.036-0.139c-0.321,0.093-0.251-0.227-0.354-0.352c-0.482-0.581-0.834-1.257-1.358-1.806  c0.091-0.07,0.194-0.11,0.31-0.12c0.205-0.079,0.312-0.034,0.416,0.191c0.224,0.474,0.618,0.837,0.92,1.264  c0.169,0.239,0.271,0.531,0.525,0.712C38.837,20.067,38.787,20.119,38.736,20.145z" clip-rule="evenodd" fill-rule="evenodd"/><path fill="#0D9ECE" d="M40.973,19.359c0.086-0.264-0.026-0.276-0.228-0.155  c0.019-0.162,0.059-0.306-0.074-0.414c-0.265-0.217-0.412-0.527-0.6-0.8c-0.162-0.235-0.428-0.41-0.439-0.752  c-0.004-0.138-0.229-0.141-0.339-0.229c0.11-0.073,0.229-0.123,0.364-0.13c0.134-0.035,0.178,0.075,0.235,0.154  c0.465,0.64,0.915,1.289,1.378,1.931c0.058,0.081,0.139,0.161,0.062,0.275C41.224,19.309,41.102,19.347,40.973,19.359z" clip-rule="evenodd" fill-rule="evenodd"/><path fill="#1083B8" d="M36.616,17.982c0.175,0.014,0.287,0.143,0.358,0.266  c0.335,0.586,0.841,1.06,1.131,1.667c0.084,0.172,0.138,0.181,0.277,0.126c-0.009,0.097-0.012,0.167-0.018,0.237  c-0.092,0.069-0.197,0.104-0.309,0.118c-0.212-0.129-0.205-0.399-0.358-0.561c-0.455-0.484-0.727-1.108-1.191-1.585  c-0.041-0.044-0.039-0.132-0.058-0.2C36.489,17.989,36.555,17.987,36.616,17.982z" clip-rule="evenodd" fill-rule="evenodd"/><path fill="#19A1D0" d="M41.945,19.288c0.013,0.029,0.043,0.065,0.037,0.084  c-0.157,0.36,0.182,0.481,0.33,0.691c0.281,0.398,0.578,0.787,0.853,1.192c0.073,0.111,0.148,0.219,0.235,0.316  c0.099,0.112,0.164,0.436,0.389,0.1c0.003-0.006,0.053,0.02,0.08,0.032c-0.084,0.213-0.223,0.396-0.37,0.569  c-0.452-0.763-1.01-1.454-1.521-2.178c-0.087-0.125-0.179-0.246-0.268-0.37C41.772,19.57,41.839,19.417,41.945,19.288z" clip-rule="evenodd" fill-rule="evenodd"/><path fill="#188CBE" d="M40.573,21.691c0.543,0.441,0.839,1.071,1.25,1.614  c0.068,0.091,0.15,0.163,0.227,0.242c0.077,0.078-0.033,0.05-0.06,0.072c-0.277-0.067-0.54-0.166-0.789-0.307  c-0.16-0.335-0.43-0.599-0.586-0.938c-0.058-0.125-0.286-0.069-0.326-0.242C40.384,21.984,40.48,21.837,40.573,21.691z" clip-rule="evenodd" fill-rule="evenodd"/><path fill="#0DA4D3" d="M40.219,16.698c0.282,0.282,0.531,0.592,0.752,0.919  c0.304,0.451,0.686,0.847,0.915,1.348c0.018,0.038,0.079,0.054,0.122,0.082c-0.099,0.021-0.199,0.043-0.295,0.064  c-0.297-0.01-0.409-0.271-0.526-0.455c-0.374-0.595-0.822-1.139-1.175-1.748c-0.026-0.044-0.055-0.084-0.04-0.14  C40.049,16.726,40.126,16.687,40.219,16.698z" clip-rule="evenodd" fill-rule="evenodd"/><path fill="#1889BD" d="M38.736,20.145c-0.358-0.456-0.638-0.967-1.014-1.41  c-0.197-0.232-0.416-0.458-0.497-0.762c-0.054-0.202-0.208-0.056-0.3-0.111c0.094-0.071,0.201-0.11,0.319-0.121  c0.217-0.009,0.296,0.174,0.37,0.312c0.257,0.46,0.682,0.795,0.915,1.262c0.128,0.256,0.37,0.455,0.392,0.765  C38.86,20.102,38.798,20.124,38.736,20.145z" clip-rule="evenodd" fill-rule="evenodd"/><path fill="#19A1D0" d="M39.972,16.768c0.287,0.326,0.472,0.724,0.743,1.058  c0.341,0.421,0.544,0.951,0.998,1.284c-0.117,0.075-0.245,0.11-0.381,0.128c-0.28-0.533-0.682-0.984-1.018-1.48  c-0.206-0.303-0.394-0.621-0.657-0.88C39.752,16.81,39.859,16.785,39.972,16.768z" clip-rule="evenodd" fill-rule="evenodd"/><path fill="#182D55" d="M34.919,35.718c-0.026-0.005-0.051-0.01-0.077-0.016  c-0.028-0.064-0.082-0.154,0.024-0.178c0.301-0.069,0.39-0.386,0.637-0.525c0.162-0.091,0.297-0.243,0.394-0.42  c0.127-0.229,0.389-0.336,0.528-0.568c0.093-0.155,0.231,0.056,0.358,0.043c-0.392,0.461-0.774,0.93-1.178,1.379  C35.432,35.627,35.196,35.74,34.919,35.718z" clip-rule="evenodd" fill-rule="evenodd"/><path fill="#1071A9" d="M35.216,20.65c-0.27-0.401-0.522-0.818-0.82-1.198  c-0.12-0.152-0.152-0.347-0.294-0.478c0.091-0.072,0.197-0.107,0.311-0.121c0.258,0.475,0.625,0.875,0.93,1.318  c0.111,0.162,0.161,0.362,0.314,0.5c0.049,0.044-0.055,0.093-0.068,0.151C35.458,20.782,35.326,20.741,35.216,20.65z" clip-rule="evenodd" fill-rule="evenodd"/><path fill="#1588BC" d="M40.289,22.132c0.475,0.117,0.578,0.579,0.811,0.912  c0.042,0.056,0.21,0.132,0.102,0.268c-0.411-0.122-0.79-0.319-1.184-0.479c-0.138-0.055-0.138-0.121-0.059-0.228  C40.071,22.45,40.177,22.29,40.289,22.132z" clip-rule="evenodd" fill-rule="evenodd"/><path fill="#163A64" d="M41.577,27.863c0.427-0.361,0.804-0.771,1.179-1.183  c0.192-0.21,0.419-0.399,0.641-0.584c0.156-0.131-0.017,0.143,0.098,0.109c-0.388,0.463-0.77,0.932-1.167,1.386  C42.134,27.811,41.862,27.873,41.577,27.863z" clip-rule="evenodd" fill-rule="evenodd"/><path fill="#146CA4" d="M33.427,19.232c0.226,0.306,0.452,0.613,0.679,0.92  c-0.465-0.203-0.93-0.404-1.471-0.64C32.949,19.401,33.188,19.317,33.427,19.232z" clip-rule="evenodd" fill-rule="evenodd"/><path fill="#1384BA" d="M29.906,25.772c0-0.039,0-0.077,0-0.116  c0.1,0.051,0.138,0.148,0.181,0.241C29.994,25.904,29.97,25.808,29.906,25.772z" clip-rule="evenodd" fill-rule="evenodd"/><path fill="#153E69" d="M37.064,30.339c0-0.133,0.049-0.195,0.188-0.135  C37.178,30.235,37.159,30.34,37.064,30.339z" clip-rule="evenodd" fill-rule="evenodd"/><path fill="#1AB2DE" d="M27.684,17.929c-0.021,0.042-0.046,0.101-0.097,0.075  c-0.025-0.014-0.019-0.087-0.026-0.133C27.612,17.868,27.654,17.885,27.684,17.929z" clip-rule="evenodd" fill-rule="evenodd"/><path fill="#1994C6" d="M29.267,22.511c0.059-0.011,0.115-0.094,0.177-0.028  c0.027,0.03-0.011,0.067-0.046,0.087C29.355,22.55,29.31,22.529,29.267,22.511z" clip-rule="evenodd" fill-rule="evenodd"/><path fill="#005D97" d="M33.051,29.674c-0.051,0.061-0.108,0.045-0.135-0.015  c-0.026-0.054,0.032-0.05,0.066-0.056C33.005,29.626,33.029,29.65,33.051,29.674z" clip-rule="evenodd" fill-rule="evenodd"/><path fill="#FFFFFF" d="M51.411,41.207c0.299,0,0.596-0.011,0.895,0.003  c0.512,0.024,0.808,0.271,0.921,0.746c0.118,0.498-0.062,0.964-0.474,1.2c-0.233,0.135-0.492,0.205-0.762,0.208  c-0.482,0.007-0.966,0-1.449,0.006c-0.277,0.003-0.388-0.142-0.388-0.399c0.004-0.504,0.009-1.008,0-1.512  c-0.005-0.202,0.073-0.272,0.271-0.268c0.328,0.012,0.658,0.003,0.985,0.003C51.411,41.199,51.411,41.203,51.411,41.207z" clip-rule="evenodd" fill-rule="evenodd"/><path fill="#FFFFFF" d="M14.06,41.207c0.309,0,0.617-0.011,0.924,0.003  c0.531,0.024,0.809,0.263,0.926,0.773c0.117,0.502-0.066,0.95-0.491,1.185c-0.237,0.129-0.495,0.195-0.766,0.199  c-0.473,0.004-0.945-0.004-1.417,0.003c-0.277,0.005-0.393-0.132-0.394-0.394c0-0.504,0.006-1.007-0.003-1.51  c-0.004-0.222,0.092-0.283,0.298-0.275c0.308,0.014,0.616,0.003,0.923,0.003C14.06,41.199,14.06,41.203,14.06,41.207z" clip-rule="evenodd" fill-rule="evenodd"/><path fill="#FFFFFF" d="M24.226,44.467c-0.205,0-0.41,0.004-0.616-0.001  c-0.236-0.005-0.346-0.106-0.248-0.351c0.213-0.531,0.43-1.062,0.642-1.592c0.046-0.115,0.117-0.195,0.248-0.188  c0.117,0.006,0.179,0.078,0.221,0.184c0.217,0.539,0.438,1.078,0.653,1.619c0.085,0.211-0.018,0.316-0.224,0.326  C24.677,44.474,24.451,44.467,24.226,44.467z" clip-rule="evenodd" fill-rule="evenodd"/><path fill="#FFFFFF" d="M4.286,44.467c-0.205,0-0.411,0.004-0.617-0.001  c-0.235-0.006-0.318-0.133-0.234-0.347c0.215-0.543,0.44-1.082,0.659-1.623c0.044-0.109,0.123-0.166,0.237-0.16  c0.1,0.006,0.168,0.061,0.207,0.158c0.222,0.551,0.451,1.1,0.666,1.652c0.08,0.209-0.029,0.314-0.238,0.319  C4.738,44.471,4.512,44.467,4.286,44.467z" clip-rule="evenodd" fill-rule="evenodd"/><path fill="#FFFFFF" d="M59.237,44.467c-0.216,0-0.432,0.007-0.646-0.002  c-0.216-0.01-0.33-0.102-0.231-0.339c0.215-0.53,0.426-1.062,0.638-1.594c0.044-0.112,0.108-0.198,0.243-0.197  c0.133,0.001,0.195,0.088,0.239,0.2c0.209,0.522,0.423,1.042,0.626,1.566c0.1,0.253,0.024,0.355-0.254,0.364  C59.646,44.473,59.442,44.467,59.237,44.467z" clip-rule="evenodd" fill-rule="evenodd"/></svg>