<svg xmlns="http://www.w3.org/2000/svg" version="1.1" id="Layer_1" x="0px" y="0px" width="70px" height="70px" viewBox="0 0 70 70" enable-background="new 0 0 70 70" xml:space="preserve"><path fill="#834796" d="M42.154,33.938c-0.585,1.363-1.138,2.653-1.69,3.943   c-0.211,0.49-0.419,0.982-0.632,1.471c-0.261,0.598-0.714,0.932-1.372,0.926c-0.646-0.004-1.091-0.333-1.344-0.92   c-0.762-1.77-1.52-3.543-2.281-5.313c-0.041-0.097-0.055-0.212-0.18-0.299c-0.295,0.987-0.586,1.96-0.875,2.935   c-0.245,0.824-0.486,1.65-0.733,2.475c-0.255,0.851-1.02,1.303-1.812,1.075c-0.824-0.237-1.241-1.014-0.984-1.884   c0.913-3.092,1.833-6.182,2.755-9.27c0.202-0.676,0.701-1.094,1.297-1.119c0.719-0.029,1.21,0.284,1.506,0.973   c0.83,1.932,1.657,3.863,2.487,5.795c0.051,0.12,0.104,0.238,0.174,0.398c0.104-0.23,0.195-0.426,0.28-0.624   c0.792-1.853,1.582-3.706,2.377-5.558c0.235-0.549,0.624-0.923,1.242-0.977c0.784-0.069,1.368,0.351,1.568,1.133   c0.792,3.103,1.579,6.205,2.364,9.311c0.217,0.857-0.214,1.613-1.033,1.83c-0.795,0.211-1.568-0.268-1.786-1.116   c-0.422-1.646-0.836-3.294-1.253-4.94C42.216,34.132,42.198,34.083,42.154,33.938z" clip-rule="evenodd" fill-rule="evenodd"/><path fill="#834796" d="M59.199,34.13c-0.005,3.381-2.766,6.135-6.153,6.137   c-3.396,0.001-6.17-2.771-6.165-6.164c0.005-3.387,2.792-6.147,6.193-6.133C56.462,27.983,59.205,30.741,59.199,34.13z" clip-rule="evenodd" fill-rule="evenodd"/><path fill="#77B343" d="M23.95,33.063c-0.477,1.137-0.922,2.197-1.367,3.258   c-0.44,1.055-0.87,2.114-1.325,3.162c-0.461,1.065-1.825,1.244-2.508,0.336c-0.362-0.48-0.369-0.998-0.139-1.545   c0.962-2.288,1.917-4.58,2.875-6.869c0.362-0.864,0.727-1.727,1.085-2.592c0.255-0.615,0.702-0.969,1.374-0.973   c0.673-0.004,1.125,0.35,1.383,0.962c1.324,3.163,2.649,6.326,3.971,9.491c0.348,0.834,0.027,1.672-0.75,1.99   c-0.784,0.324-1.582-0.033-1.938-0.877c-0.823-1.957-1.641-3.916-2.46-5.875C24.099,33.403,24.041,33.275,23.95,33.063z" clip-rule="evenodd" fill-rule="evenodd"/><path fill="#834797" d="M64.865,40.142c-1.595-0.032-3.027-0.45-4.315-1.332   c-0.615-0.421-0.781-1.139-0.403-1.709c0.379-0.57,1.158-0.71,1.762-0.281c0.942,0.67,1.965,1.074,3.138,1.033   c0.329-0.01,0.651-0.066,0.949-0.215c0.357-0.18,0.573-0.465,0.59-0.875c0.015-0.402-0.179-0.686-0.52-0.877   c-0.576-0.327-1.214-0.479-1.845-0.646c-0.643-0.17-1.282-0.346-1.896-0.605c-1.074-0.456-1.818-1.184-1.957-2.404   c-0.161-1.413,0.238-2.592,1.454-3.41c0.896-0.603,1.912-0.763,2.968-0.714c1.163,0.054,2.257,0.353,3.257,0.961   c0.656,0.399,0.867,1.065,0.53,1.671c-0.333,0.598-1.067,0.778-1.735,0.408c-0.821-0.456-1.664-0.815-2.631-0.76   c-0.288,0.016-0.562,0.074-0.813,0.217c-0.655,0.37-0.684,1.237-0.049,1.643c0.466,0.298,1,0.424,1.525,0.567   c0.714,0.194,1.434,0.37,2.117,0.662c1.61,0.688,2.253,1.692,2.149,3.353c-0.092,1.47-1.04,2.607-2.542,3.061   C66.02,40.062,65.426,40.126,64.865,40.142z" clip-rule="evenodd" fill-rule="evenodd"/><path fill="#77B343" d="M8.682,29.09c0.233-0.714,0.699-1.106,1.35-1.138   c0.684-0.033,1.184,0.312,1.481,1.01c0.838,1.963,1.678,3.924,2.519,5.887c0.034,0.079,0.076,0.155,0.133,0.273   c0.459-1.07,0.903-2.105,1.347-3.142c0.455-1.062,0.902-2.126,1.37-3.181c0.267-0.602,0.819-0.896,1.489-0.839   c0.564,0.05,1.059,0.46,1.223,1.032c0.096,0.334,0.075,0.667-0.063,0.99c-1.341,3.135-2.68,6.27-4.027,9.4   c-0.252,0.585-0.714,0.902-1.359,0.895c-0.645-0.006-1.091-0.335-1.343-0.922c-0.848-1.971-1.691-3.942-2.538-5.914   c-0.047-0.11-0.099-0.218-0.15-0.326c-0.118-0.043-0.148-0.152-0.19-0.252c-0.393-0.909-0.779-1.822-1.174-2.732   C8.599,29.79,8.538,29.448,8.682,29.09z" clip-rule="evenodd" fill-rule="evenodd"/><path fill="#834797" d="M8.682,29.09c-0.058,0.388,0.03,0.745,0.187,1.101   c0.425,0.971,0.831,1.95,1.245,2.926c-0.886,2.061-1.776,4.121-2.657,6.186c-0.244,0.572-0.648,0.926-1.275,0.975   c-0.676,0.055-1.199-0.29-1.483-0.953c-1.07-2.493-2.137-4.986-3.205-7.48c-0.257-0.601-0.52-1.199-0.772-1.803   c-0.341-0.812-0.027-1.649,0.731-1.975c0.765-0.328,1.589,0.016,1.939,0.826c0.852,1.97,1.693,3.943,2.54,5.916   c0.036,0.086,0.074,0.172,0.118,0.271c0.136-0.11,0.158-0.258,0.212-0.381c0.753-1.752,1.5-3.506,2.251-5.258   C8.562,29.321,8.625,29.206,8.682,29.09z" clip-rule="evenodd" fill-rule="evenodd"/><path fill="#77B343" d="M20.667,46.253c0-0.687-0.004-1.374,0.001-2.062   c0.002-0.423,0.153-0.571,0.57-0.575c0.567-0.004,1.134-0.006,1.701,0.002c0.812,0.014,1.446,0.43,1.66,1.092   c0.208,0.645,0.076,1.483-0.651,1.918c-0.143,0.084-0.099,0.158-0.042,0.26c0.217,0.389,0.437,0.777,0.646,1.173   c0.193,0.362,0.127,0.702-0.155,0.861c-0.312,0.175-0.666,0.05-0.87-0.328c-0.268-0.497-0.524-1.003-0.789-1.503   c-0.084-0.16-0.751-0.27-0.879-0.146c-0.072,0.069-0.044,0.164-0.045,0.248c-0.003,0.395,0.005,0.787-0.003,1.178   c-0.01,0.4-0.216,0.617-0.565,0.619c-0.349,0.002-0.568-0.219-0.574-0.61c-0.008-0.708-0.002-1.418-0.002-2.126   C20.668,46.253,20.668,46.253,20.667,46.253z" clip-rule="evenodd" fill-rule="evenodd"/><path fill="#77B343" d="M15.742,47.938c-0.054,0-0.11,0.009-0.163,0   c-0.548-0.081-0.948,0.01-1.056,0.675c-0.054,0.339-0.423,0.457-0.729,0.334c-0.301-0.121-0.416-0.396-0.287-0.762   c0.3-0.852,0.612-1.697,0.921-2.547c0.178-0.49,0.359-0.979,0.539-1.469c0.131-0.355,0.355-0.604,0.761-0.604   c0.404-0.001,0.643,0.237,0.771,0.595c0.49,1.359,0.979,2.722,1.458,4.085c0.115,0.33-0.029,0.606-0.328,0.714   c-0.296,0.104-0.658-0.017-0.706-0.338C16.809,47.851,16.31,47.86,15.742,47.938z" clip-rule="evenodd" fill-rule="evenodd"/><path fill="#77B343" d="M18.632,46.247c0-0.666-0.004-1.332,0.001-1.996   c0.002-0.441,0.21-0.687,0.569-0.689c0.357-0.002,0.573,0.244,0.574,0.685c0.004,1.354,0.004,2.707,0.001,4.061   c-0.002,0.451-0.203,0.683-0.57,0.683c-0.368,0.002-0.571-0.232-0.573-0.678C18.628,47.624,18.632,46.935,18.632,46.247z" clip-rule="evenodd" fill-rule="evenodd"/><path fill="#FFFFFF" d="M56.572,34.125c-0.004,1.929-1.594,3.513-3.529,3.517   c-1.923,0.002-3.528-1.597-3.532-3.519c-0.004-1.935,1.609-3.538,3.552-3.529C54.996,30.603,56.575,32.191,56.572,34.125z" clip-rule="evenodd" fill-rule="evenodd"/><path fill="#FEFEFD" d="M21.813,45.286c0-0.68,0-0.682,0.686-0.678   c0.174,0,0.352-0.006,0.521,0.029c0.353,0.077,0.528,0.337,0.502,0.696c-0.025,0.331-0.244,0.551-0.593,0.582   c-0.163,0.015-0.327,0.01-0.491,0.01C21.813,45.926,21.813,45.926,21.813,45.286z" clip-rule="evenodd" fill-rule="evenodd"/><path fill="#FDFEFC" d="M16.345,46.943c-0.424,0-0.811,0-1.24,0   c0.2-0.604,0.396-1.194,0.621-1.88C15.949,45.741,16.144,46.331,16.345,46.943z" clip-rule="evenodd" fill-rule="evenodd"/></svg>