<svg xmlns="http://www.w3.org/2000/svg" version="1.1" id="Layer_1" x="0px" y="0px" width="70" height="70" viewBox="0 0 70 70" xml:space="preserve" style="enable-background:new 0 0 70 70;"><style type="text/css">
	.st0{fill:#CF0A2C;}
	.st1{fill:#002F86;}
	.st2{fill:#FFFFFF;}
	.st3{fill:#FFD03E;}
	.st4{display:none;fill:#002F86;}
	.st5{display:none;fill:none;}
</style><g><g><g><g><path d="M12.3,59c0,0,23.4,0,25.3,0c9.1,0,14.1-4,15.7-12.5L60,11.8c0,0-23.4,0-25.3,0c-9.1,0-14.1,4-15.7,12.5      L12.3,59z" class="st0"/><g><path d="M51.7,31.3c-0.3,0-0.7,0-1.1,0c-0.7,0-1.4-0.1-1.8-0.1c-1.7-0.2-3.5-0.5-5.2-0.1c0.6-0.8,2.1-3.3,0.6-4       c-1-0.5-3.1,0.7-4.5,2c0.1-1.7,0.1-5.2-1.1-7.4c-0.5-0.9-1.4-2-2.2-2c-1.8,0-1.5,2.2-1.5,3.2c0,1,0,2-0.1,3       c-0.1,1-0.3,1.9-0.6,2.9c-1.1-1.1-4-3.8-5.5-3.2c-0.7,0.3-0.9,1-0.5,1.6c0.2,0.5,0.7,1.1,1,1.7c0.4,0.7,0.8,1.3,1,1.6       c-1.1-0.4-2-0.2-3.1,0c-0.7,0.1-1.3,0.3-1.9,0.4c-0.7,0.1-1.6,0.3-2.5,0.6c-0.6,0.2-1.3,0.3-1.6,0.6c-0.6,0.6-0.6,1.5,0,2       c0.4,0.3,1.3,0.6,1.8,0.7c2.2,0.4,3.9,1.3,5.9,1.6c-1.1,0.4-3.5,1.6-2.9,3c0.3,0.6,0.9,0.8,1.7,0.9c0.8,0.1,1.8,0.1,2.4,0       c-0.3,0.5-0.6,1-0.9,1.5c-0.5,1.1-0.7,2.3-1.4,3.4c-0.1,0.3-0.4,0.7-0.6,1.1c-0.2,0.3-0.5,0.7-0.7,1c-0.3,0.5,0,1.2,0.5,1.4       c0.7,0.3,1.4,0,2.1-0.4c0.6-0.3,1.3-0.7,1.7-1c1.6-1.1,3-2.5,4.2-4c0.2,1,0.6,2.7,2,2.2c0.2-0.1,0.4-0.3,0.6-0.4       c0.3-0.3,0.6-1,0.7-1.6c1,1.6,4.2,4.9,7.4,5.2c0.3,0,1.1-0.1,1.4-0.4c0.7-0.7,0.5-1.5,0.2-2.1c-0.3-0.5-0.8-1-1.1-1.4       c-1.1-1.4-2.2-2.7-3-4.4c1.2,0.5,2.9,0.6,3.6-0.3c0.2-0.3,0.3-0.7,0.2-1.3c-0.3-0.9-1.4-1.8-2.2-2.3c1.2-0.1,3.4-0.5,6-1.9       c1.4-0.8,2.4-1.8,2.3-2.8C52.8,31.8,52.2,31.3,51.7,31.3z" class="st1"/><g><path d="M27.8,35.4c-0.8-0.2-1.6-0.5-2.4-0.8c-0.3-0.1-1.3-0.3-2.1-0.6c-0.9-0.2-1.8-0.4-1.8-0.9        c0-0.4,0.6-0.6,1.4-0.8c1.4-0.3,3.2-0.7,3.6-0.8c0.9-0.2,1.8-0.4,2.7-0.3c0.6,0.1,1.1,0.3,1.6,0.8c0.2,0.2,0.5,0.5,0.8,0.3        c0.1-0.1,0.1-0.2,0.2-0.2c0-0.1,0-0.3-0.1-0.5c-0.1-0.2-0.2-0.5-0.3-0.7c-0.1-0.2-0.3-0.5-0.3-0.6c-0.5-0.9-1-1.7-1.6-2.5        c-0.3-0.5-0.6-0.9-0.5-1.1c0-0.2,0.4-0.2,0.7-0.1c0.2,0.1,0.4,0.1,0.7,0.3c0.5,0.3,1,0.6,1.5,1c0.6,0.5,1.2,1,1.7,1.5        c0.5,0.6,0.7,0.6,1,0.5c0.4-0.1,0.5-0.5,0.6-0.8c0.1-0.3,0.2-0.6,0.3-1c0.1-0.6,0.2-1,0.3-1.7c0-0.4,0.1-1.1,0.1-1.6        c0-0.7,0-1.4,0-2.1c0-1-0.1-1.6,0.4-1.9c0.2-0.1,0.5,0,0.5,0.1c1.1,0.7,1.6,2.4,1.8,3.3c0.3,1.5,0.4,3.1,0.3,4.6        c0,0.6-0.1,1.2-0.1,1.5c-1.1,0-1.8,0.5-2.1,1.1c-0.4-1.2-1.7-1.3-2.8-0.7c-1,0.5-1.9,1.8-1.3,2.9c-1.4-0.1-2,1.4-1.9,2.6        C29.6,35.8,28.7,35.7,27.8,35.4z" class="st2"/><path d="M51.6,33.3c-0.2,0.3-0.7,0.6-1.1,0.9c-0.7,0.4-1.3,0.7-1.5,0.8c-1.1,0.5-2.2,0.9-3.5,1.1        c-0.4,0.1-1,0.1-1.6,0.2c-0.3,0-0.7,0.1-0.9,0.2c-0.2,0.1-0.3,0.2-0.3,0.3c-0.1,0.2,0.1,0.4,0.2,0.5c0.3,0.1,0.8,0.2,1.9,1        c0.7,0.5,1.2,1.2,1.1,1.6c0,0.2-0.2,0.4-0.6,0.5c-0.6,0.2-1.2,0.1-1.8-0.1c-0.1,0-0.5-0.2-0.8-0.3c-0.2-0.1-0.4-0.3-0.6-0.3        c-0.3,0-0.6,0.2-0.4,0.7c0.8,1.8,1.8,3.4,3,4.8c0.2,0.3,0.6,0.8,1.1,1.3c0.2,0.3,0.3,0.4,0.5,0.6c0.3,0.5,0.3,1-0.1,1.1        c-1.4,0.4-3.6-1.1-4.5-1.8c-0.8-0.7-1.6-1.3-2.2-2.1c-0.1-0.1-0.4-0.5-0.8-1.1c-0.2-0.3-0.4-1-0.7-1c-0.3,0-0.5,0.2-0.5,0.6        c-0.1,0.3-0.1,1-0.4,1.6c-0.2,0.5-0.4,0.9-0.7,0.8c-0.2,0-0.4-0.5-0.5-0.9c0-0.1-0.1-0.6-0.2-1c0-0.3-0.1-0.6-0.1-0.8        c-0.1-0.2-0.3-0.3-0.5-0.2c-0.2,0.1-0.5,0.5-0.6,0.7c-0.8,1.2-2,2.4-3.5,3.6c-0.9,0.7-2,1.3-2.8,1.7c-0.5,0.2-0.8,0.3-1,0.1        c-0.1-0.1,0-0.3,0.2-0.6c0.2-0.4,0.6-0.8,0.8-1.1c0.4-0.8,0.8-1.6,1.1-2.5c0.2-0.4,0.3-0.9,0.4-1.3c0.2-0.4,0.4-0.9,0.6-1.3        c0.1-0.1,0.5-0.8,1-1.4c0.3-0.3,0-0.9-0.5-0.7c-0.8,0.3-2.1,0.4-3.3,0.3c-0.5-0.1-0.8-0.1-1-0.5c-0.1-0.4,0.6-1,1.2-1.3        c1-0.5,2-0.9,2.9-1.1c0.5,1.1,1.2,1.3,1.5,1.4c-0.6,0.9,0,2.1,0.8,2.7c1,0.8,2.7,0.8,3.6-0.4c0.6,0.8,1.5,0.9,2.2,0.7        c1.2-0.4,2.3-1.7,1.7-3.1c1.1-0.4,1.7-1.8,1.6-3c-0.1-0.8-0.5-1.7-1.4-2c0.3-0.8,0.1-1.6-0.5-2.2c-0.2-0.2-0.4-0.4-0.7-0.5        c0.2-0.2,0.8-0.9,1.8-1.5c0.4-0.3,0.9-0.6,1.4-0.7c0.5-0.2,1-0.3,1.1-0.1c0.1,0.1,0,0.6-0.1,1c-0.1,0.4-0.4,0.8-0.4,0.9        c-0.3,0.6-0.8,1.1-1.2,1.5c-0.1,0.1-0.3,0.3-0.4,0.3c-0.2,0.2-0.3,0.3-0.2,0.6c0,0.1,0.3,0.3,0.5,0.2c0.6-0.2,1.2-0.5,1.8-0.6        c0.9-0.2,1.8-0.2,2.8-0.1c0.4,0,1.7,0.2,2.9,0.3c0.6,0,1.1,0.1,1.5,0c0.6,0,0.9,0,1,0.3C52.1,32.6,51.9,32.9,51.6,33.3z" class="st2"/></g><g><g><path d="M33.4,35.7c-0.1-0.9-0.6-1.5-1.1-1.5c-0.6,0-0.9,0.8-0.9,1.6c0,0.9,0.7,1.5,1.1,1.4         C33.2,37.2,33.5,36.4,33.4,35.7z M35.1,32.9c0.7-0.5,0.9-1.3,0.7-1.6c-0.3-0.5-1.3-0.3-1.9,0.2c-0.7,0.6-0.8,1.3-0.6,1.6         C33.7,33.5,34.5,33.4,35.1,32.9z M35.1,38.2c-0.8-0.3-1.7-0.3-2,0.4c-0.3,0.7,0.2,1.4,0.9,1.7c0.8,0.4,1.7,0.2,2-0.3         C36.4,39.4,35.8,38.6,35.1,38.2z M38.4,35.6c0-1.2-0.9-2.1-2-2.1c-1.1,0-2,1-2,2.1s0.8,2.1,2,2.1         C37.4,37.6,38.4,36.7,38.4,35.6z M37.9,38.1c-0.7,0.4-0.9,1.3-0.5,1.9c0.4,0.5,1.2,0.5,1.8,0.1c0.6-0.5,0.9-1.2,0.6-1.8         C39.5,37.7,38.7,37.7,37.9,38.1z M40.4,33.9c-0.5,0-1.2,0.6-1.3,1.6c-0.1,0.9,0.2,1.7,0.9,1.8c0.5,0.1,1.2-0.6,1.3-1.5         C41.5,34.7,41,33.9,40.4,33.9z M38.2,33.2c0.8,0.3,1.5,0.1,1.7-0.4c0.3-0.6-0.1-1.4-0.8-1.6c-0.7-0.3-1.5-0.1-1.7,0.5         C37.2,32.2,37.5,32.9,38.2,33.2z" class="st3"/></g></g><path d="M74.9,28.2c-7.4,0-12,4.1-12,9.4c0,5.5,3.8,9.6,12.4,9.6c3.2,0,5.6-0.6,7.2-1.6c0.5-0.3,0.6-0.5,0.3-0.9       c-1-2-1.4-2.6-2.3-3.8c-0.2-0.2-0.3-0.3-0.7-0.1c-0.4,0.1-2.1,0.8-4.8,0.8c-2.5,0-4.1-0.8-4.2-2.5h14c0.9,0,1-0.2,1-0.7v0       C86.4,31.4,81.4,28.2,74.9,28.2z M70.9,35.8c0.1-2,1.7-3.2,3.8-3.2c2.2,0,3.6,1.1,3.6,3.2H70.9z M127.8,28.2       c-7.4,0-12,4.1-12,9.4c0,5.5,3.8,9.6,12.4,9.6c3.2,0,5.6-0.6,7.2-1.6c0.4-0.3,0.6-0.5,0.3-0.9c-1.1-2-1.4-2.6-2.3-3.8       c-0.2-0.2-0.3-0.3-0.7-0.1c-0.4,0.1-2.1,0.8-4.8,0.8c-2.5,0-4.1-0.8-4.2-2.5h14c0.9,0,1-0.2,1-0.7v0       C139.3,31.4,134.3,28.2,127.8,28.2z M123.8,35.8c0.2-2,1.7-3.2,3.8-3.2c2.2,0,3.6,1.1,3.6,3.2H123.8z M112.6,23h-7.5       c-0.3,0-0.5,0.2-0.5,0.5v6.7c-1.1-1.3-3.6-2.1-5.8-2.1c-5.9,0-10.3,4.3-10.3,9.7c0,5.9,4.6,9.3,10.7,9.3c1.1,0,4.3-0.5,5.6-2.4       v1.4c0,0.4,0.2,0.5,0.5,0.5h7.3c0.3,0,0.5-0.1,0.5-0.5V23.5C113.2,23.1,113,23,112.6,23z M100.7,40.8c-2,0-3.7-1.2-3.7-3.2       c0-1.9,1.8-3.1,3.7-3.1c2.7,0,4.4,1.4,4.4,3.1C105,39.6,103.1,40.8,100.7,40.8z M224.1,22.8h-8.7c-0.3,0-0.5,0.2-0.5,0.5V27       c0,0.2,0.1,0.4,0.4,0.4h8.9c0.3,0,0.5-0.2,0.5-0.5v-3.5C224.7,23,224.5,22.8,224.1,22.8z M224.1,29.6h-8.7       c-0.3,0-0.5,0.2-0.5,0.5v16c0,0.5,0.2,0.5,0.5,0.5h8.8c0.3,0,0.5-0.2,0.5-0.5v-16C224.7,29.8,224.5,29.6,224.1,29.6z        M240.9,35.3l-1-0.1c-2.8-0.3-4-0.5-4-1.5c0-0.9,1.6-1.3,2.8-1.3c1.8,0,3,0.4,4.1,1.3c0.3,0.2,0.5,0.2,0.8,0.1       c1.6-0.6,3.1-1.3,3.8-1.7c0.2-0.1,0.4-0.3,0.3-0.6c-1.6-2.3-5.3-3.3-9.1-3.3c-6.8,0-11.2,2.6-10.8,6.7c0.4,3.7,4.8,4.5,8,5       c0.4,0.1,0.4,0.1,0.6,0.1c2.4,0.2,3.8,0.5,3.8,1.5c0,1-1.4,1.5-3.1,1.5c-2.1,0-3.5-0.6-4.5-1.5c-0.2-0.2-0.4-0.3-0.8-0.1       c-1.2,0.4-1.9,0.6-3.5,1.5c-0.4,0.2-0.5,0.4-0.3,0.7c1.9,2.5,5.3,3.6,9.5,3.6c6.3,0,11.3-2.1,11.3-6.5       C248.9,37.3,245.4,35.8,240.9,35.3z M264.1,35.3l-1-0.1c-2.8-0.3-4-0.5-4-1.5c0-0.9,1.6-1.3,2.8-1.3c1.8,0,3,0.4,4.1,1.3       c0.3,0.2,0.6,0.2,0.8,0.1c1.6-0.6,3.1-1.3,3.8-1.7c0.2-0.1,0.4-0.3,0.3-0.6c-1.6-2.3-5.3-3.3-9.1-3.3c-6.8,0-11.2,2.6-10.8,6.7       c0.4,3.7,4.8,4.5,8,5c0.4,0.1,0.4,0.1,0.6,0.1c2.4,0.2,3.8,0.5,3.8,1.5c0,1-1.4,1.5-3.1,1.5c-1.9,0-3.7-0.6-4.5-1.5       c-0.2-0.2-0.4-0.3-0.8-0.1c-1.2,0.4-1.9,0.6-3.5,1.5c-0.4,0.2-0.5,0.4-0.3,0.7c1.8,2.5,5.3,3.6,9.5,3.6       c6.3,0,11.3-2.1,11.3-6.5C272.1,37.3,268.6,35.8,264.1,35.3z M150.6,23H142c-0.3,0-0.5,0.1-0.5,0.5v22.6c0,0.5,0.2,0.5,0.5,0.5       h8.6c0.3,0,0.5-0.2,0.5-0.6V23.5C151.1,23.1,150.9,23,150.6,23z M187.5,29.4h-8.9c-0.3,0-0.5,0.1-0.6,0.3c0,0-2.9,4.9-3,5.1       s-0.1,0.3-0.1,0.3s0-0.2-0.1-0.3c-0.1-0.2-3.5-5.1-3.5-5.1c-0.2-0.3-0.3-0.3-0.7-0.3c-0.4,0-0.5,0-0.7,0.3c0,0-3.3,5-3.4,5.1       c-0.1,0.2-0.1,0.3-0.1,0.3s0-0.2-0.1-0.3c-0.1-0.2-3.1-5.1-3.1-5.1c-0.1-0.2-0.3-0.3-0.6-0.3h-8.9c-0.4,0-0.5,0.2-0.4,0.5       l10.8,16.9c0.4,0.6,0.9,0.5,1.3,0c0,0,4.8-6.9,5-7.1c0.2-0.3,0.2-0.4,0.2-0.4s0,0.1,0.2,0.4c0.1,0.2,5,7.1,5,7.1       c0.4,0.5,1,0.5,1.3,0l10.8-16.9C188,29.7,187.9,29.4,187.5,29.4z M200.1,28.2c-7.4,0-12,4.1-12,9.4c0,5.5,3.8,9.6,12.4,9.6       c3.2,0,5.6-0.6,7.2-1.6c0.4-0.3,0.6-0.5,0.4-0.9c-1.1-2-1.4-2.6-2.3-3.8c-0.2-0.2-0.3-0.3-0.7-0.1c-0.4,0.1-2.1,0.8-4.8,0.8       c-2.5,0-4.1-0.8-4.2-2.5h14c0.9,0,1-0.2,1-0.7v0C211.5,31.4,206.5,28.2,200.1,28.2z M196.1,35.8c0.1-2,1.7-3.2,3.8-3.2       c2.2,0,3.6,1.1,3.7,3.2H196.1z" class="st4"/></g></g></g></g><rect y="-0.5" width="284.4" height="71.8" class="st5"/></g></svg>