<svg xmlns="http://www.w3.org/2000/svg" version="1.1" id="Layer_1" x="0px" y="0px" width="70px" height="70px" viewBox="0 0 70 70" enable-background="new 0 0 70 70" xml:space="preserve"><metadata/><switch><g><rect width="70" fill="none" height="70"/><path fill="#601F5E" d="M1.4,6.7c0-2.5,2.1-4.6,4.6-4.6s4.6,2.1,4.6,4.6S8.5,11.3,6,11.3S1.4,9.3,1.4,6.7L1.4,6.7z"/><path fill="#601F5E" d="M20.6,42v25c0,0.1-0.1,0.2-0.2,0.2H5.2C5.1,67.2,5,67.1,5,67V14.6c0-0.1,0-0.1,0.1,0L20.6,42L20.6,42z"/><path fill="#601F5E" d="M68.5,6.7c0-2.5-2.1-4.6-4.6-4.6S59.3,4.2,59.3,6.7s2.101,4.6,4.601,4.6S68.5,9.3,68.5,6.7L68.5,6.7z"/><path fill="#601F5E" d="M34.9,11.3c2.5,0,4.6-2.1,4.6-4.6s-2.1-4.6-4.6-4.6c-2.5,0-4.6,2.1-4.6,4.6C30.4,9.3,32.4,11.3,34.9,11.3     L34.9,11.3z"/><path fill="#601F5E" d="M49.3,42v25c0,0.1,0.101,0.2,0.2,0.2h15.2c0.1,0,0.2-0.101,0.2-0.2V14.6c0-0.1,0-0.1-0.101,0L49.3,42     L49.3,42z"/><path fill="#601F5E" d="M49.3,42L35,16.6c0-0.1-0.1-0.1-0.2,0L20.6,42l14.3,25.4c0,0.1,0.1,0.1,0.2,0L49.3,42L49.3,42z"/></g></switch></svg>