<svg xmlns="http://www.w3.org/2000/svg" version="1.1" id="Layer_1" x="0px" y="0px" width="400" height="400" viewBox="0 197 400 400" xml:space="preserve"><metadata id="metadata236"/><defs id="defs234"/><style id="style193" type="text/css">
	.st0{fill:#D12149;}
	.st1{fill:#4C5C65;}
</style><g id="g229" transform="translate(104)"><g id="g215"><path id="path195" d="m -58.7,369 4.3,-9.1 h -37.5 c 0,0 0.9,1.9 2.2,4.7 0.9,2 1.3,3.3 0.7,6.5 0,0.1 -5.6,31.6 -6,34 -0.4,2.5 1.1,3.7 3,3.7 1.9,0 31.6,0 31.6,0 l -2.1,-9.1 h -20.2 l 2,-11.1 H -62 l 1.6,-9.2 H -79 l 1.8,-10.2 z" style="fill:#d12149" class="st0"/><path id="path197" d="m 240,369 4.3,-9.1 h -35.7 c 0,0 0.9,1.9 2.2,4.7 0.9,2 1.3,3.3 0.7,6.5 0,0.1 -5.6,31.6 -6,34 -0.4,2.5 1.1,3.7 3,3.7 1.9,0 29.8,0 29.8,0 l -2.1,-9.1 h -18.5 l 2,-11.1 h 16.9 l 1.6,-9.2 h -16.9 l 1.8,-10.2 z" style="fill:#d12149" class="st0"/><path id="path199" d="m 8.9,372.2 c 0.8,-2.6 3.7,-3.2 7.9,-3.2 h 7.6 l 3.3,-9.1 c 0,0 -11.8,0 -13,0 -4.7,0 -15.4,-0.4 -17.8,10 -3.2,14.6 15.7,18.8 14.8,25.4 -0.6,3.9 -4.3,4.2 -9.4,4.2 -2.9,0 -11.3,0 -11.3,0 l 2.1,9.1 H 6 c 6.6,0 15.9,-1.2 18.1,-9.5 C 28,384.3 6.8,379.5 8.9,372.2 Z" style="fill:#d12149" class="st0"/><path id="path201" d="m 150.5,374.2 c 0.6,-8 -4.4,-14.4 -16.9,-14.4 h -18.3 l 2.2,4.7 c 0.9,2 1.3,3.3 0.7,6.5 l -6.6,37.7 h 11 l 3.2,-18.3 c 0,0 0.8,-0.1 3.1,0 3,0.2 3.5,2.3 9.6,18.3 h 12 c -6.5,-16.1 -7.6,-19.1 -9.6,-21.1 4.9,-2 9.1,-6.7 9.6,-13.4 z m -11,1 c -0.7,4 -4.2,7 -8.5,7 h -3.7 l 2.3,-13.2 h 4.2 c 4.1,0 6.3,2.6 5.7,6.2 z" style="fill:#d12149" class="st0"/><polygon id="polygon203" points="56.1,369 68.8,369 72.2,359.8 29.9,359.8 33.2,369 44.6,369 37.6,408.7 49.1,408.7 " style="fill:#d12149" class="st0"/><polygon id="polygon205" points="269.7,369 281.7,369 285,359.8 245.3,359.8 248.6,369 258.2,369 251.2,408.7 262.7,408.7 " style="fill:#d12149" class="st0"/><path id="path207" d="m 185.1,349.8 c -0.4,0 -1.1,-0.1 -1.6,-0.1 -13.9,-1.5 -17.5,-2.5 -18.5,-20.3 0,0 -0.1,-0.9 -0.8,-0.9 -0.8,0 -0.8,0.9 -0.8,0.9 -1,17.8 -4.5,18.8 -18.5,20.3 -0.5,0.1 -1.2,0.1 -1.6,0.1 -0.4,0 -0.9,0.2 -0.9,0.5 0,0.4 0.4,0.5 0.9,0.6 15.4,1.9 18.8,3.2 20.1,25.4 0,0.5 0.2,1 0.8,1 0.5,0 0.8,-0.5 0.8,-1 1.3,-22.1 4.8,-23.5 20.1,-25.4 0.5,-0.1 0.9,-0.2 0.9,-0.6 0,-0.3 -0.5,-0.5 -0.9,-0.5 z" style="fill:#d12149" class="st0"/><path id="path209" d="m 186.1,359.8 2.2,4.7 c 0.9,2 1.3,3.3 0.7,6.5 l -3.3,18.6 c -3.2,18.1 -12.4,18.1 -18.2,18.1 -1.1,1.7 11,4.4 18.8,0.7 6.1,-2.9 9.1,-8.1 10.6,-16.9 0.4,-2.4 5.6,-31.8 5.6,-31.8 z" style="fill:#d12149" class="st0"/><path id="path211" d="m 97,363.5 c -0.5,-2.1 -2.1,-3.7 -4.5,-3.7 -2.2,0 -14.1,0 -14.1,0 l 2.3,4.9 c 1,2.1 0.8,3.5 -0.4,5.9 l -20.1,38 H 71.8 L 77.7,397 h 16.2 l 2.2,11.6 h 11.4 c 0,0.1 -10,-43 -10.5,-45.1 z M 82.3,388 89.5,373.7 92.2,388 Z" style="fill:#d12149" class="st0"/><path id="path213" d="m -21.4,363.5 c -0.5,-2.1 -2.1,-3.7 -4.5,-3.7 -2.2,0 -14.1,0 -14.1,0 l 2.3,4.9 c 1,2.1 0.8,3.5 -0.4,5.9 l -20.1,38 h 11.6 l 5.9,-11.6 h 16.2 l 2.2,11.6 h 11.4 c 0,0.1 -10,-43 -10.5,-45.1 z m -14.8,24.5 7.2,-14.3 2.7,14.3 z" style="fill:#d12149" class="st0"/></g><path id="path217" d="m 19.5,433.4 c 5.1,0 9.2,4.2 9.2,9.5 0,5.3 -4.1,9.5 -9.2,9.5 -5.1,0 -9.3,-4.2 -9.3,-9.5 0.1,-5.3 4.2,-9.5 9.3,-9.5 z m -4.9,9.5 c 0,3.2 2.1,6.3 4.9,6.3 2.8,0 4.9,-2.9 4.9,-6.2 0,-3.3 -2.1,-6.3 -4.9,-6.3 -2.7,0 -4.9,2.9 -4.9,6.2 z" style="fill:#4c5c65" class="st1"/><path id="path219" d="m 42.7,457.8 h 32.1 v 3.3 H 42.7 Z M 56.5,436 c 0,-2.8 -0.9,-3.5 -0.9,-3.5 h 5.7 v 6 c 0,7.2 5.8,10.3 11.6,10.3 0.3,0 0.3,0.2 0.1,0.3 l -2.4,2.9 c -3.8,0 -9.3,-2.2 -11.4,-6.4 -0.3,-0.5 -0.4,-0.5 -0.6,0 -2.1,4.2 -7.7,6.3 -11.4,6.3 L 44.8,449 c -0.1,-0.2 -0.2,-0.3 0.1,-0.3 5.7,0 11.7,-3.1 11.7,-11 z m 0,0 c 0,-2.8 -0.9,-3.5 -0.9,-3.5 h 5.7 v 6 c 0,7.2 5.8,10.3 11.6,10.3 0.3,0 0.3,0.2 0.1,0.3 l -2.4,2.9 c -3.8,0 -9.3,-2.2 -11.4,-6.4 -0.3,-0.5 -0.4,-0.5 -0.6,0 -2.1,4.2 -7.7,6.3 -11.4,6.3 L 44.8,449 c -0.1,-0.2 -0.2,-0.3 0.1,-0.3 5.7,0 11.7,-3.1 11.7,-11 z" style="fill:#4c5c65" class="st1"/><path id="path221" d="m 82.3,450.5 c 0,0.5 0.3,0.8 0.7,0.8 h 11.4 c 2.9,0 4.4,-0.6 5.4,-1.4 v -15.8 c 0,-2.8 -0.9,-3.4 -0.9,-3.4 h 5.1 v 11.1 h 4.6 v 3.3 H 104 v 19.7 h -4.2 v -11.6 c -1.5,1.1 -3.2,1.3 -6.8,1.3 H 82.3 c -2.8,0 -4.2,-1.4 -4.2,-4.6 v -13.6 c 0,-2.6 -0.9,-3.4 -0.9,-3.4 h 16.9 v 3.3 H 82.3 v 5.6 h 11.1 v 3.3 H 82.3 Z" style="fill:#4c5c65" class="st1"/><path id="path223" d="m 116.6,437.7 h -3.7 v -3.3 h 7.8 v -0.9 c 0,-2.7 -0.9,-3.4 -0.9,-3.4 h 5.4 v 4.3 h 7.8 v 3.3 h -3.8 c 0.8,1.2 1.3,2.6 1.3,4.2 0,4.1 -3.4,7.5 -7.6,7.5 -4.1,0 -7.6,-3.4 -7.6,-7.5 0,-1.6 0.5,-3 1.3,-4.2 z m 3,4.2 c 0,2.3 1.5,4.2 3.3,4.2 1.7,0 3.3,-1.9 3.3,-4.1 0,-2.3 -1.3,-4.2 -3.3,-4.2 -1.7,-0.1 -3.3,1.8 -3.3,4.1 z m 11.7,7.9 c 4.6,0 8.3,3.5 8.3,7.9 0,4.3 -3.7,7.8 -8.3,7.8 -4.5,0 -8.2,-3.5 -8.2,-7.8 -0.1,-4.4 3.6,-7.9 8.2,-7.9 z m 0,3.4 c -2.1,0 -3.9,1.9 -3.9,4.5 0,2.5 1.8,4.4 3.9,4.4 2.1,0 4,-1.9 4,-4.4 -0.1,-2.5 -1.9,-4.5 -4,-4.5 z m 14.4,-15.5 v 3.7 h -4.6 v 8.6 h -4.2 v -15.9 c 0,-2.7 -0.9,-3.4 -0.9,-3.4 h 5.1 v 7 z" style="fill:#4c5c65" class="st1"/><path id="path225" d="m 179.8,445 v 3.4 h -31 V 445 h 11.8 v -3.4 c 0,-2.5 -0.9,-3.2 -0.9,-3.2 h 5.3 v 6.6 z m -7.8,-9 c 0,-0.5 -0.1,-0.7 -0.7,-0.7 h -19 v -3.4 H 176 c 0.3,0 0.3,0.2 0.3,0.4 v 5.1 c 0,3.6 -0.5,4.5 -1.5,5.9 h -4.2 c 1.1,-1.5 1.4,-3.1 1.4,-6.3 z m -7.7,13.9 c 4.5,0 8.2,3.6 8.2,7.9 0,4.3 -3.7,7.8 -8.2,7.8 -4.5,0 -8.2,-3.5 -8.2,-7.8 -0.1,-4.4 3.6,-7.9 8.2,-7.9 z m 0,3.4 c -2.1,0 -4,2 -4,4.5 0,2.5 1.9,4.4 4,4.4 2.2,0 4,-2 4,-4.4 0,-2.6 -1.9,-4.5 -4,-4.5 z" style="fill:#4c5c65" class="st1"/><path id="path227" d="m 33.6,464.8 v -30.7 c 0,-2.9 -0.9,-3.5 -0.9,-3.5 h 5.1 v 34.2 z" style="fill:#4c5c65" class="st1"/></g></svg>