<svg xmlns="http://www.w3.org/2000/svg" id="Layer_1" width="70px" height="70px" viewBox="0 0 313 313"><defs><style>.cls-1{fill:#00c0f3;}.cls-2{fill:#034ea2;}</style></defs><path d="M5.3,115.2a.83.83,0,0,1,.4-1.6c10.7,1.6,25.4,4.7,27.3,9.3S25.3,142.4,17.9,153a.88.88,0,0,1-1.5-.9c4-8.2,7.9-18.6,5.4-24.7C19.4,121.6,11.9,117.6,5.3,115.2Z" class="cls-1"/><path d="M52.3,141.2c-1.6-4-9.5-7.2-19-9.7a.88.88,0,0,0-1,.5c-1,2.1-2.3,4.4-3.7,6.8a.91.91,0,0,0,.2,1.1,24.15,24.15,0,0,1,6.4,8.4c4.4,10.7-4.1,30.1-11.1,43.1-.5.9.8,1.8,1.4.9C37.2,176.1,55.4,148.9,52.3,141.2Z" class="cls-1"/><path d="M20.2,128.6c-5.1-1-10.1-1.7-14.4-2.3a.88.88,0,0,0-.4,1.7,82.65,82.65,0,0,1,14.5,6,.9.9,0,0,0,1.3-.7,12.38,12.38,0,0,0-.3-3.9C20.8,128.9,20.5,128.6,20.2,128.6Z" class="cls-1"/><path d="M95.8,148h-32a2,2,0,0,0-1.9,1.4h0l-7,29.7h0a1.7,1.7,0,0,0-.1.7,2.29,2.29,0,0,0,2.3,2.1H84.2c7.3,0,10.9-1.1,12.5-6.2l1.6-7.2c.7-3.1-1.7-4.4-6.2-4.4,4.3,0,7.1-.6,8.3-4.9l1.2-5.2C103.1,147.8,95.8,148,95.8,148Zm-11,20.5-1.1,4.8a3,3,0,0,1-2.9,1.9H72.5a2.29,2.29,0,0,1-2.3-2.1,1.7,1.7,0,0,1,.1-.7h0l1.4-6H82.9A1.65,1.65,0,0,1,84.8,168.5Zm3-13.2-.9,4c-.3,1.2-1.2,1.9-2.9,1.9H72.8l1.5-6.6h0a1.83,1.83,0,0,1,1.8-1.4h9.6C87.5,153.2,88.1,154.2,87.8,155.3Z" class="cls-2"/><path d="M108.4,148a2,2,0,0,0-1.9,1.4h0L99,181.9h13.7l7.9-34H108.4Z" class="cls-2"/><path d="M146.2,156.9l-3.7,15.7c-.6,2.6-3.6,2.5-3.6,2.5h-4.2c-1.8,0-2.8-1-2.5-2.2l3.7-16H123.8a2,2,0,0,0-1.9,1.4h0l-3.5,15.2c-1.1,4.5.9,8.4,5.4,8.4h30.4l5.8-25Z" class="cls-2"/><path d="M193.9,156.9H170.1c-4.5,0-7.1,2.2-8.1,6.5l-2.6,11.2c-1,4.2-.5,7.3,4.3,7.3h31.6l1.2-5.1h-21c-2,0-2.8-.8-2.5-2.2l.7-2.9h22.4a2,2,0,0,0,1.9-1.5h0l1.7-7.5C200.6,159.3,197.9,156.9,193.9,156.9Zm-7.9,6.5-.7,3.1H175l.6-2.6a2.14,2.14,0,0,1,2.5-1.9h6.1C185.4,162,186.1,162.8,186,163.4Z" class="cls-2"/><path d="M248.3,148H235.6a2,2,0,0,0-1.5.7h0l-25.4,33.2h6.8l7.8-10.3h15.9l2,10.3h13.7Zm-21,18.6,8.7-11.4,2.2,11.4Z" class="cls-2"/><path d="M270.3,182l5.8-25H264a2,2,0,0,0-1.9,1.4h0L256.6,182Z" class="cls-2"/><path d="M306.5,159a2.29,2.29,0,0,0-2.3-2.1h-5.6a6.39,6.39,0,0,0-6.1,3.8l.9-3.8H281.3a2,2,0,0,0-1.9,1.4h0l-5.5,23.6h13.7l3.4-14.5c.5-2.4,3-3.7,6.1-3.7h8.5l1-4.1h0C306.5,159.5,306.5,159.2,306.5,159Z" class="cls-2"/></svg>