<svg xmlns="http://www.w3.org/2000/svg" version="1.1" width="70px" height="70px" viewBox="0 0 70 70"><g id="surface1"><path d="M 0 0 C 23.101562 0 46.199219 0 70 0 C 70 23.101562 70 46.199219 70 70 C 46.898438 70 23.800781 70 0 70 C 0 46.898438 0 23.800781 0 0 Z M 0 0 " style=" stroke:none;fill-rule:nonzero;fill:rgb(99.607843%,99.607843%,99.607843%);fill-opacity:1;"/><path d="M 38.847656 19.75 C 39.359375 19.832031 39.867188 20.480469 40.1875 20.996094 C 40.570312 21.734375 40.914062 22.613281 40.808594 23.535156 C 40.695312 24.277344 40.464844 24.835938 39.992188 25.265625 C 39.914062 25.332031 39.839844 25.394531 39.761719 25.453125 C 39.707031 25.503906 39.65625 25.550781 39.601562 25.601562 C 39.945312 25.792969 40.277344 25.820312 40.632812 25.660156 C 40.867188 25.527344 41.097656 25.332031 41.214844 25.015625 C 42.128906 25.371094 42.808594 26.488281 43.257812 27.574219 C 44.273438 30.261719 43.664062 33.8125 43.03125 36.546875 C 42.636719 38.1875 42.023438 39.636719 40.945312 40.59375 C 40.992188 40.578125 40.992188 40.578125 41.039062 40.5625 C 41.179688 40.515625 41.320312 40.464844 41.460938 40.417969 C 41.53125 40.390625 41.53125 40.390625 41.605469 40.367188 C 42.761719 39.96875 44.039062 39.976562 45.089844 40.816406 C 45.089844 40.839844 45.089844 40.863281 45.089844 40.886719 C 45.039062 40.890625 45.039062 40.890625 44.988281 40.890625 C 43.472656 40.945312 42.042969 41.210938 40.835938 42.570312 C 40.761719 42.652344 40.6875 42.734375 40.613281 42.8125 C 40.566406 42.863281 40.566406 42.863281 40.515625 42.917969 C 40.164062 43.214844 39.785156 43.183594 39.386719 43.191406 C 38.390625 43.230469 37.703125 44.003906 37.019531 44.910156 C 36.984375 44.953125 36.945312 44.996094 36.910156 45.039062 C 36.589844 45.4375 36.371094 45.941406 36.15625 46.445312 C 36.125 46.515625 36.097656 46.585938 36.066406 46.660156 C 35.785156 47.4375 35.796875 48.414062 35.996094 49.226562 C 35.75 48.957031 35.636719 48.585938 35.511719 48.203125 C 35.480469 48.117188 35.480469 48.117188 35.453125 48.027344 C 35.105469 46.671875 35.453125 45.191406 35.890625 43.957031 C 35.976562 43.71875 36.070312 43.488281 36.164062 43.257812 C 36.410156 42.644531 36.582031 42.011719 36.710938 41.335938 C 37.058594 39.527344 37.789062 38 38.648438 36.550781 C 39.3125 35.425781 39.628906 34.320312 39.535156 32.871094 C 39.523438 32.738281 39.507812 32.609375 39.492188 32.476562 C 39.546875 32.453125 39.597656 32.433594 39.652344 32.410156 C 40.339844 32.113281 41 31.769531 41.371094 30.875 C 41.675781 30.058594 41.628906 29.195312 41.539062 28.308594 C 41.503906 28.429688 41.503906 28.429688 41.464844 28.554688 C 41.195312 29.492188 40.910156 30.40625 40.210938 30.894531 C 39.625 31.222656 38.9375 31.316406 38.335938 31.011719 C 38.253906 30.964844 38.171875 30.917969 38.09375 30.867188 C 38.074219 30.945312 38.074219 30.945312 38.054688 31.027344 C 37.890625 31.53125 37.566406 31.980469 37.195312 32.195312 C 37.152344 32.214844 37.113281 32.234375 37.070312 32.257812 C 36.964844 32.3125 36.855469 32.367188 36.75 32.421875 C 36.6875 32.453125 36.628906 32.480469 36.566406 32.511719 C 36.308594 32.65625 36.0625 32.828125 35.816406 33.003906 C 35.40625 33.292969 35.042969 33.378906 34.585938 33.378906 C 34.539062 33.378906 34.492188 33.378906 34.441406 33.378906 C 34.097656 33.382812 34.097656 33.382812 33.917969 33.261719 C 33.796875 33.0625 33.828125 32.871094 33.84375 32.621094 C 33.796875 32.628906 33.753906 32.632812 33.707031 32.636719 C 33.335938 32.664062 33.089844 32.660156 32.804688 32.316406 C 32.328125 31.640625 32.328125 31.640625 32.328125 31.082031 C 32.328125 31.003906 32.328125 30.921875 32.328125 30.84375 C 32.335938 30.648438 32.335938 30.648438 32.390625 30.574219 C 32.394531 30.425781 32.402344 30.277344 32.402344 30.132812 C 32.445312 29.363281 32.703125 29.011719 33.117188 28.515625 C 33.464844 28.121094 33.839844 27.765625 34.207031 27.402344 C 34.625 26.988281 35.035156 26.550781 35.4375 26.101562 C 35.566406 25.964844 35.566406 25.964844 35.703125 25.859375 C 36.066406 25.566406 36.214844 25.238281 36.363281 24.714844 C 36.597656 23.957031 37.226562 23.691406 37.738281 23.367188 C 37.800781 23.324219 37.863281 23.285156 37.925781 23.242188 C 38.300781 23 38.679688 22.761719 39.0625 22.527344 C 39.039062 22.472656 39.015625 22.414062 38.992188 22.355469 C 38.71875 21.597656 38.589844 20.714844 38.792969 19.890625 C 38.820312 19.820312 38.820312 19.820312 38.847656 19.75 Z M 38.847656 19.75 " style=" stroke:none;fill-rule:nonzero;fill:rgb(0.392157%,0.392157%,0.392157%);fill-opacity:1;"/><path d="M 25.125 19.675781 C 25.347656 19.976562 25.351562 20.378906 25.367188 20.78125 C 25.359375 21.320312 25.234375 21.75 25.074219 22.234375 C 25.035156 22.359375 25 22.480469 24.964844 22.601562 C 25.011719 22.621094 25.054688 22.640625 25.101562 22.660156 C 25.308594 22.757812 25.503906 22.875 25.703125 23.003906 C 25.761719 23.039062 25.761719 23.039062 25.824219 23.078125 C 25.90625 23.128906 25.988281 23.183594 26.070312 23.234375 C 26.195312 23.3125 26.320312 23.394531 26.445312 23.472656 C 27.453125 24.109375 27.453125 24.109375 27.644531 24.613281 C 27.667969 24.703125 27.691406 24.792969 27.714844 24.886719 C 27.898438 25.503906 28.183594 25.765625 28.585938 26.105469 C 28.71875 26.222656 28.835938 26.355469 28.953125 26.492188 C 29.226562 26.804688 29.511719 27.09375 29.796875 27.382812 C 29.980469 27.570312 30.164062 27.753906 30.347656 27.941406 C 30.382812 27.980469 30.421875 28.019531 30.460938 28.058594 C 31.382812 29 31.382812 29 31.582031 29.550781 C 31.597656 29.808594 31.609375 30.066406 31.617188 30.328125 C 31.636719 30.554688 31.664062 30.671875 31.746094 30.867188 C 31.785156 31.261719 31.726562 31.496094 31.566406 31.8125 C 31.378906 32.121094 31.148438 32.441406 30.882812 32.621094 C 30.765625 32.628906 30.644531 32.628906 30.527344 32.628906 C 30.464844 32.625 30.398438 32.625 30.332031 32.625 C 30.285156 32.625 30.234375 32.625 30.183594 32.621094 C 30.203125 32.769531 30.21875 32.914062 30.238281 33.0625 C 30.078125 33.289062 29.957031 33.375 29.730469 33.394531 C 29.636719 33.394531 29.546875 33.394531 29.453125 33.390625 C 29.40625 33.390625 29.359375 33.390625 29.308594 33.386719 C 28.703125 33.363281 28.238281 33.066406 27.710938 32.695312 C 27.480469 32.535156 27.253906 32.40625 27.011719 32.289062 C 26.53125 32.046875 26.199219 31.605469 25.933594 31.011719 C 25.933594 30.964844 25.933594 30.917969 25.933594 30.867188 C 25.894531 30.886719 25.851562 30.910156 25.808594 30.929688 C 25.132812 31.25 24.515625 31.285156 23.847656 30.914062 C 23.203125 30.460938 22.855469 29.675781 22.628906 28.765625 C 22.597656 28.636719 22.570312 28.507812 22.542969 28.378906 C 22.410156 28.703125 22.414062 28.976562 22.417969 29.339844 C 22.417969 29.402344 22.417969 29.464844 22.417969 29.53125 C 22.421875 30 22.472656 30.382812 22.652344 30.792969 C 22.6875 30.875 22.71875 30.953125 22.757812 31.035156 C 23.203125 31.828125 23.828125 32.265625 24.535156 32.476562 C 24.527344 32.550781 24.519531 32.625 24.507812 32.699219 C 24.390625 33.921875 24.550781 34.980469 25.082031 35.988281 C 25.171875 36.144531 25.261719 36.300781 25.351562 36.457031 C 25.898438 37.394531 26.378906 38.371094 26.792969 39.425781 C 26.824219 39.496094 26.824219 39.496094 26.851562 39.570312 C 27.082031 40.160156 27.222656 40.742188 27.339844 41.386719 C 27.507812 42.300781 27.796875 43.121094 28.128906 43.945312 C 28.316406 44.421875 28.453125 44.90625 28.570312 45.421875 C 28.582031 45.476562 28.597656 45.53125 28.609375 45.585938 C 28.824219 46.625 28.714844 47.828125 28.335938 48.753906 C 28.246094 48.9375 28.148438 49.078125 28.03125 49.226562 C 28.042969 49.179688 28.054688 49.132812 28.066406 49.082031 C 28.28125 48.121094 28.230469 47.328125 27.890625 46.4375 C 27.296875 45.050781 26.34375 43.679688 25.179688 43.230469 C 24.898438 43.1875 24.617188 43.199219 24.335938 43.207031 C 23.792969 43.199219 23.460938 42.9375 23.074219 42.433594 C 21.980469 41.066406 20.339844 40.957031 18.9375 40.886719 C 19.679688 40.074219 20.722656 40.078125 21.628906 40.15625 C 21.921875 40.203125 22.203125 40.285156 22.492188 40.375 C 22.597656 40.40625 22.707031 40.433594 22.8125 40.464844 C 22.886719 40.484375 22.957031 40.503906 23.027344 40.523438 C 23 40.496094 22.972656 40.46875 22.945312 40.4375 C 22.910156 40.402344 22.871094 40.363281 22.832031 40.324219 C 22.796875 40.289062 22.761719 40.253906 22.722656 40.214844 C 21.746094 39.1875 21.320312 37.753906 20.929688 36.207031 C 20.910156 36.128906 20.910156 36.128906 20.886719 36.046875 C 20.777344 35.613281 20.703125 35.175781 20.632812 34.726562 C 20.621094 34.648438 20.609375 34.574219 20.597656 34.496094 C 20.234375 32.019531 19.945312 29.320312 20.992188 27.074219 C 21.429688 26.195312 22 25.480469 22.707031 25.015625 C 22.742188 25.015625 22.777344 25.015625 22.8125 25.015625 C 22.84375 25.070312 22.878906 25.128906 22.910156 25.183594 C 23.101562 25.503906 23.328125 25.644531 23.621094 25.746094 C 23.917969 25.773438 24.144531 25.730469 24.425781 25.601562 C 24.347656 25.527344 24.347656 25.527344 24.265625 25.453125 C 23.8125 25.035156 23.378906 24.523438 23.242188 23.773438 C 23.15625 22.671875 23.398438 21.839844 23.875 20.96875 C 24.207031 20.421875 24.652344 19.976562 25.125 19.675781 Z M 25.125 19.675781 " style=" stroke:none;fill-rule:nonzero;fill:rgb(0.392157%,0.392157%,0.392157%);fill-opacity:1;"/><path d="M 3.226562 26.257812 C 3.804688 26.753906 3.804688 26.753906 4.003906 26.941406 C 5.46875 28.332031 7.105469 29.351562 8.820312 30.019531 C 12.261719 31.359375 12.261719 31.359375 13.089844 33.214844 C 13.363281 33.921875 13.332031 34.644531 13.183594 35.402344 C 13.304688 35.476562 13.429688 35.546875 13.558594 35.621094 C 13.542969 35.652344 13.523438 35.683594 13.503906 35.714844 C 12.96875 36.675781 12.542969 37.472656 12.429688 38.695312 C 12.472656 38.714844 12.519531 38.734375 12.5625 38.753906 C 12.75 38.839844 12.75 38.839844 12.933594 38.960938 C 13.359375 39.179688 13.929688 39.101562 14.367188 38.988281 C 14.230469 39.734375 13.996094 40.390625 13.613281 40.960938 C 14.195312 41.402344 14.851562 41.488281 15.496094 41.257812 C 15.839844 41.105469 16.132812 40.902344 16.417969 40.597656 C 16.519531 40.523438 16.519531 40.523438 16.628906 40.523438 C 16.78125 40.628906 16.816406 40.773438 16.886719 40.984375 C 17.019531 41.328125 17.109375 41.535156 17.378906 41.691406 C 17.726562 41.800781 18.078125 41.859375 18.429688 41.910156 C 19.578125 42.078125 20.699219 42.359375 21.789062 42.863281 C 21.828125 42.878906 21.867188 42.898438 21.90625 42.914062 C 23.589844 43.691406 24.882812 45.195312 25.710938 47.328125 C 25.976562 48.089844 26.140625 48.820312 26.09375 49.664062 C 25.730469 49.832031 25.355469 49.890625 24.976562 49.957031 C 24.921875 49.96875 24.921875 49.96875 24.867188 49.976562 C 24.199219 50.097656 23.53125 50.179688 22.855469 50.238281 C 22.722656 50.25 22.589844 50.261719 22.453125 50.277344 C 19.273438 50.578125 15.957031 50.011719 12.953125 48.550781 C 12.878906 48.515625 12.878906 48.515625 12.804688 48.476562 C 12.734375 48.441406 12.734375 48.441406 12.664062 48.40625 C 12.625 48.386719 12.582031 48.367188 12.542969 48.347656 C 12.417969 48.269531 12.320312 48.171875 12.214844 48.054688 C 12.253906 48.03125 12.296875 48.007812 12.339844 47.980469 C 13.25 47.40625 13.707031 46.355469 14.042969 45.113281 C 14.0625 45.046875 14.078125 44.980469 14.097656 44.910156 C 14.234375 45.003906 14.367188 45.101562 14.5 45.207031 C 14.773438 45.417969 15.019531 45.46875 15.335938 45.421875 C 15.664062 45.230469 15.84375 44.835938 15.992188 44.40625 C 16.0625 44.140625 16.0625 43.953125 16.035156 43.667969 C 15.886719 43.355469 15.765625 43.246094 15.507812 43.152344 C 15.414062 43.113281 15.414062 43.113281 15.316406 43.078125 C 15.1875 43.035156 15.058594 42.992188 14.929688 42.949219 C 14.078125 42.671875 13.3125 42.171875 12.644531 41.398438 C 12.597656 41.347656 12.550781 41.296875 12.503906 41.246094 C 11.898438 40.550781 11.507812 39.722656 11.183594 38.753906 C 11.144531 38.640625 11.101562 38.527344 11.0625 38.414062 C 10.71875 37.441406 10.613281 36.300781 10.558594 35.234375 C 10.554688 35.175781 10.550781 35.117188 10.546875 35.054688 C 10.535156 34.765625 10.519531 34.472656 10.511719 34.183594 C 10.484375 33.574219 10.445312 33.074219 10.117188 32.621094 C 9.625 32.074219 9.003906 31.84375 8.410156 31.558594 C 8.300781 31.507812 8.1875 31.453125 8.078125 31.398438 C 7.753906 31.242188 7.429688 31.085938 7.101562 30.9375 C 6.023438 30.441406 4.953125 29.875 3.921875 29.21875 C 3.886719 29.195312 3.851562 29.171875 3.816406 29.152344 C 3.726562 29.09375 3.640625 29.027344 3.550781 28.964844 C 3.496094 28.925781 3.4375 28.886719 3.382812 28.847656 C 3.226562 28.671875 3.226562 28.671875 3.191406 28.417969 C 3.191406 28.316406 3.195312 28.21875 3.195312 28.117188 C 3.195312 28.0625 3.199219 28.011719 3.199219 27.957031 C 3.199219 27.785156 3.203125 27.617188 3.207031 27.449219 C 3.210938 27.332031 3.210938 27.21875 3.210938 27.101562 C 3.214844 26.820312 3.222656 26.539062 3.226562 26.257812 Z M 3.226562 26.257812 " style=" stroke:none;fill-rule:nonzero;fill:rgb(80.000001%,6.666667%,10.588235%);fill-opacity:1;"/><path d="M 60.800781 26.257812 C 60.800781 27.054688 60.800781 27.851562 60.800781 28.671875 C 60.320312 29.046875 59.867188 29.386719 59.363281 29.675781 C 59.300781 29.710938 59.234375 29.746094 59.167969 29.785156 C 58.171875 30.355469 57.15625 30.867188 56.125 31.328125 C 56.082031 31.347656 56.039062 31.367188 55.996094 31.386719 C 55.785156 31.480469 55.574219 31.570312 55.363281 31.664062 C 54.75 31.929688 54.058594 32.234375 53.691406 33.007812 C 53.546875 33.410156 53.550781 33.832031 53.539062 34.277344 C 53.53125 34.527344 53.523438 34.78125 53.511719 35.035156 C 53.507812 35.085938 53.507812 35.136719 53.503906 35.1875 C 53.402344 37.421875 52.8125 39.625 51.605469 41.191406 C 50.746094 42.203125 49.640625 42.882812 48.523438 43.15625 C 48.277344 43.242188 48.183594 43.304688 48.046875 43.59375 C 47.972656 44.078125 48.0625 44.476562 48.238281 44.894531 C 48.378906 45.183594 48.496094 45.382812 48.761719 45.457031 C 49.132812 45.488281 49.398438 45.304688 49.714844 45.058594 C 49.789062 45.007812 49.859375 44.960938 49.929688 44.910156 C 49.957031 44.996094 49.984375 45.082031 50.011719 45.171875 C 50.402344 46.40625 50.777344 47.308594 51.652344 47.984375 C 51.707031 48.03125 51.757812 48.078125 51.8125 48.128906 C 47.757812 50.660156 42.320312 51 37.984375 49.738281 C 37.902344 49.625 37.917969 49.53125 37.914062 49.371094 C 37.933594 47.617188 38.808594 46.019531 39.6875 44.835938 C 40.675781 43.546875 42.003906 42.867188 43.3125 42.425781 C 43.347656 42.410156 43.386719 42.398438 43.421875 42.386719 C 44.15625 42.132812 44.910156 42.023438 45.660156 41.898438 C 46.394531 41.816406 46.394531 41.816406 47.015625 41.351562 C 47.144531 41.082031 47.25 40.8125 47.347656 40.523438 C 47.601562 40.578125 47.808594 40.785156 48.023438 40.964844 C 48.402344 41.273438 48.773438 41.355469 49.214844 41.359375 C 49.277344 41.359375 49.277344 41.359375 49.339844 41.359375 C 49.738281 41.347656 50.058594 41.203125 50.414062 40.960938 C 50.371094 40.890625 50.328125 40.820312 50.28125 40.746094 C 50.105469 40.429688 49.980469 40.085938 49.855469 39.726562 C 49.835938 39.671875 49.816406 39.617188 49.796875 39.558594 C 49.660156 39.152344 49.660156 39.152344 49.660156 38.988281 C 49.695312 38.996094 49.734375 39.007812 49.769531 39.019531 C 50.332031 39.15625 50.855469 39.121094 51.371094 38.773438 C 51.492188 38.695312 51.492188 38.695312 51.597656 38.695312 C 51.539062 37.671875 51.222656 36.929688 50.75 36.15625 C 50.609375 35.925781 50.578125 35.859375 50.578125 35.546875 C 50.710938 35.476562 50.710938 35.476562 50.84375 35.402344 C 50.832031 35.332031 50.832031 35.332031 50.820312 35.261719 C 50.699219 34.492188 50.6875 33.855469 50.984375 33.152344 C 51.414062 32.296875 52.011719 31.777344 52.675781 31.304688 C 52.707031 31.28125 52.742188 31.257812 52.773438 31.234375 C 53.609375 30.640625 54.527344 30.222656 55.441406 29.925781 C 57.289062 29.292969 59.144531 27.925781 60.648438 26.355469 C 60.746094 26.257812 60.746094 26.257812 60.800781 26.257812 Z M 60.800781 26.257812 " style=" stroke:none;fill-rule:nonzero;fill:rgb(80.000001%,6.666667%,10.588235%);fill-opacity:1;"/><path d="M 40.785156 18.796875 C 41.472656 19.125 41.847656 20.054688 42.164062 20.886719 C 42.238281 21.140625 42.238281 21.140625 42.261719 21.347656 C 42.3125 21.804688 42.3125 21.804688 42.519531 22.15625 C 42.679688 22.265625 42.839844 22.355469 43.011719 22.441406 C 43.128906 22.507812 43.246094 22.574219 43.363281 22.640625 C 43.417969 22.671875 43.476562 22.703125 43.535156 22.734375 C 44.003906 22.996094 44.414062 23.339844 44.800781 23.777344 C 45.222656 24.25 45.644531 24.496094 46.164062 24.722656 C 46.210938 24.742188 46.253906 24.761719 46.300781 24.785156 C 46.730469 24.96875 47.175781 25.097656 47.617188 25.234375 C 47.554688 25.507812 47.488281 25.746094 47.375 25.984375 C 47.351562 26.035156 47.328125 26.082031 47.304688 26.132812 C 47.242188 26.257812 47.242188 26.257812 47.132812 26.40625 C 47.167969 26.441406 47.203125 26.476562 47.238281 26.515625 C 47.546875 26.847656 47.832031 27.195312 48.113281 27.570312 C 48.140625 27.613281 48.171875 27.652344 48.207031 27.695312 C 48.425781 27.996094 48.425781 27.996094 48.425781 28.160156 C 48.28125 28.234375 48.140625 28.304688 47.992188 28.378906 C 48.140625 28.578125 48.269531 28.707031 48.445312 28.855469 C 49.101562 29.445312 49.652344 30.117188 50.09375 31.011719 C 50.09375 31.085938 50.09375 31.160156 50.09375 31.234375 C 49.6875 31.472656 49.351562 31.566406 48.910156 31.527344 C 48.941406 31.574219 48.972656 31.625 49.003906 31.679688 C 49.59375 32.648438 49.59375 32.648438 49.714844 32.988281 C 49.660156 33.207031 49.660156 33.207031 49.535156 33.292969 C 49.179688 33.402344 48.828125 33.390625 48.476562 33.28125 C 48.828125 33.730469 49.1875 34.148438 49.570312 34.546875 C 49.71875 34.703125 49.859375 34.851562 49.984375 35.035156 C 49.539062 35.183594 49.097656 35.222656 48.640625 35.257812 C 48.675781 35.289062 48.710938 35.324219 48.75 35.359375 C 49.460938 36.046875 50.234375 36.882812 50.628906 37.960938 C 50.628906 38.011719 50.628906 38.058594 50.628906 38.109375 C 49.972656 38.171875 49.285156 37.894531 48.691406 37.523438 C 48.648438 38.550781 48.832031 39.199219 49.285156 40.011719 C 49.339844 40.109375 49.390625 40.210938 49.441406 40.3125 C 49.480469 40.382812 49.515625 40.449219 49.554688 40.523438 C 48.910156 40.566406 48.449219 40.523438 47.949219 39.933594 C 47.691406 39.632812 47.46875 39.5625 47.140625 39.480469 C 46.703125 39.335938 46.359375 38.894531 46.109375 38.402344 C 45.925781 37.898438 45.835938 37.421875 45.832031 36.859375 C 45.832031 36.769531 45.832031 36.683594 45.832031 36.59375 C 45.832031 36.496094 45.832031 36.402344 45.832031 36.304688 C 45.828125 36.203125 45.828125 36.101562 45.828125 36.003906 C 45.824219 35.578125 45.820312 35.152344 45.820312 34.730469 C 45.808594 32.234375 45.675781 29.5 44.875 27.210938 C 44.855469 27.164062 44.839844 27.121094 44.824219 27.074219 C 44.464844 26.042969 44.058594 25.179688 43.472656 24.355469 C 43.425781 24.28125 43.425781 24.28125 43.375 24.207031 C 42.921875 23.546875 42.289062 23.136719 41.683594 22.796875 C 41.539062 22.675781 41.539062 22.675781 41.480469 22.503906 C 41.464844 22.40625 41.464844 22.40625 41.453125 22.304688 C 41.328125 21.5625 41.074219 20.882812 40.601562 20.449219 C 40.554688 20.410156 40.507812 20.375 40.460938 20.335938 C 40.515625 19.777344 40.59375 19.296875 40.785156 18.796875 Z M 40.785156 18.796875 " style=" stroke:none;fill-rule:nonzero;fill:rgb(0.784314%,0.784314%,0.784314%);fill-opacity:1;"/><path d="M 23.136719 18.796875 C 23.1875 18.824219 23.242188 18.847656 23.296875 18.871094 C 23.355469 19.050781 23.398438 19.21875 23.441406 19.402344 C 23.460938 19.476562 23.460938 19.476562 23.480469 19.550781 C 23.601562 20.070312 23.601562 20.070312 23.566406 20.335938 C 23.472656 20.457031 23.472656 20.457031 23.34375 20.570312 C 22.851562 21.058594 22.644531 21.753906 22.503906 22.542969 C 22.4375 22.75 22.4375 22.75 22.3125 22.847656 C 22.257812 22.871094 22.207031 22.894531 22.152344 22.917969 C 21.515625 23.242188 20.980469 23.777344 20.5 24.429688 C 20.453125 24.492188 20.410156 24.554688 20.363281 24.617188 C 20.023438 25.097656 19.769531 25.605469 19.53125 26.1875 C 19.511719 26.226562 19.496094 26.269531 19.476562 26.3125 C 18.757812 28.0625 18.472656 30.011719 18.3125 31.976562 C 18.296875 32.128906 18.28125 32.285156 18.265625 32.4375 C 18.222656 32.890625 18.230469 33.351562 18.226562 33.8125 C 18.226562 33.910156 18.226562 34.011719 18.226562 34.113281 C 18.222656 34.539062 18.21875 34.964844 18.21875 35.390625 C 18.21875 35.652344 18.214844 35.914062 18.210938 36.175781 C 18.210938 36.320312 18.210938 36.46875 18.210938 36.613281 C 18.207031 37.128906 18.175781 37.5625 18.023438 38.035156 C 18.007812 38.089844 17.992188 38.140625 17.976562 38.195312 C 17.804688 38.730469 17.519531 39.117188 17.128906 39.359375 C 16.972656 39.441406 16.816406 39.496094 16.65625 39.558594 C 16.3125 39.695312 16.085938 39.910156 15.820312 40.230469 C 15.417969 40.59375 14.9375 40.539062 14.472656 40.523438 C 14.503906 40.46875 14.503906 40.46875 14.53125 40.417969 C 15.066406 39.464844 15.363281 38.746094 15.386719 37.523438 C 15.292969 37.570312 15.292969 37.570312 15.195312 37.613281 C 14.589844 37.894531 14.042969 38.136719 13.398438 38.109375 C 13.578125 37.523438 13.824219 37.097656 14.152344 36.644531 C 14.183594 36.597656 14.21875 36.546875 14.253906 36.496094 C 14.570312 36.039062 14.972656 35.539062 15.386719 35.257812 C 15.335938 35.25 15.335938 35.25 15.28125 35.246094 C 15.125 35.226562 14.964844 35.210938 14.804688 35.191406 C 14.75 35.1875 14.695312 35.179688 14.640625 35.175781 C 14.585938 35.167969 14.535156 35.164062 14.480469 35.15625 C 14.429688 35.152344 14.382812 35.144531 14.332031 35.140625 C 14.203125 35.109375 14.203125 35.109375 14.042969 34.964844 C 14.082031 34.921875 14.125 34.882812 14.164062 34.84375 C 14.640625 34.367188 15.085938 33.859375 15.496094 33.28125 C 15.464844 33.292969 15.4375 33.304688 15.40625 33.316406 C 15.101562 33.40625 14.71875 33.441406 14.433594 33.246094 C 14.375 33.191406 14.375 33.191406 14.3125 33.136719 C 14.46875 32.523438 14.808594 32.011719 15.117188 31.527344 C 15.074219 31.527344 15.03125 31.53125 14.984375 31.535156 C 14.578125 31.554688 14.285156 31.507812 13.933594 31.234375 C 14.203125 29.960938 15.261719 29.121094 16.035156 28.453125 C 15.902344 28.273438 15.78125 28.234375 15.601562 28.160156 C 15.691406 27.867188 15.84375 27.667969 16.007812 27.449219 C 16.035156 27.410156 16.0625 27.371094 16.09375 27.332031 C 16.34375 26.996094 16.613281 26.695312 16.894531 26.40625 C 16.871094 26.367188 16.851562 26.328125 16.828125 26.289062 C 16.800781 26.234375 16.769531 26.183594 16.738281 26.132812 C 16.710938 26.082031 16.683594 26.03125 16.652344 25.976562 C 16.511719 25.707031 16.464844 25.574219 16.464844 25.234375 C 16.519531 25.214844 16.519531 25.214844 16.578125 25.195312 C 17.953125 24.777344 17.953125 24.777344 19.15625 23.84375 C 19.640625 23.339844 20.125 22.878906 20.699219 22.589844 C 21.300781 22.324219 21.300781 22.324219 21.746094 21.773438 C 21.792969 21.511719 21.820312 21.257812 21.84375 20.992188 C 22.078125 20.144531 22.535156 19.238281 23.136719 18.796875 Z M 23.136719 18.796875 " style=" stroke:none;fill-rule:nonzero;fill:rgb(0.784314%,0.784314%,0.784314%);fill-opacity:1;"/><path d="M 20.660156 55.664062 C 20.695312 55.664062 20.730469 55.664062 20.769531 55.664062 C 20.785156 57.472656 20.804688 59.285156 20.824219 61.148438 C 21.199219 60.582031 21.199219 60.582031 21.5625 59.996094 C 21.636719 59.871094 21.714844 59.742188 21.789062 59.613281 C 21.824219 59.539062 21.859375 59.460938 21.898438 59.386719 C 21.988281 59.238281 22.039062 59.179688 22.179688 59.132812 C 22.328125 59.121094 22.472656 59.121094 22.625 59.125 C 22.707031 59.125 22.707031 59.125 22.789062 59.125 C 22.90625 59.125 23.019531 59.125 23.136719 59.128906 C 23.3125 59.132812 23.488281 59.132812 23.664062 59.132812 C 23.777344 59.136719 23.890625 59.136719 24.003906 59.136719 C 24.054688 59.136719 24.109375 59.136719 24.160156 59.136719 C 24.589844 59.152344 24.976562 59.253906 25.289062 59.6875 C 25.574219 60.246094 25.671875 60.664062 25.675781 61.339844 C 25.675781 61.398438 25.675781 61.453125 25.675781 61.507812 C 25.679688 61.691406 25.679688 61.871094 25.679688 62.050781 C 25.683594 62.113281 25.683594 62.175781 25.683594 62.242188 C 25.683594 62.570312 25.6875 62.902344 25.6875 63.230469 C 25.6875 63.503906 25.691406 63.777344 25.691406 64.046875 C 25.695312 64.375 25.695312 64.707031 25.699219 65.035156 C 25.699219 65.160156 25.699219 65.285156 25.699219 65.410156 C 25.710938 66.171875 25.683594 66.796875 25.34375 67.441406 C 25.207031 67.613281 25.074219 67.753906 24.910156 67.878906 C 24.867188 67.917969 24.867188 67.917969 24.824219 67.957031 C 24.640625 68.054688 24.457031 68.046875 24.257812 68.046875 C 24.214844 68.046875 24.171875 68.046875 24.125 68.046875 C 23.980469 68.050781 23.835938 68.050781 23.691406 68.050781 C 23.589844 68.050781 23.488281 68.050781 23.386719 68.050781 C 23.175781 68.050781 22.960938 68.050781 22.75 68.050781 C 22.480469 68.050781 22.207031 68.054688 21.9375 68.058594 C 21.726562 68.058594 21.519531 68.058594 21.308594 68.058594 C 21.207031 68.058594 21.109375 68.058594 21.007812 68.058594 C 20.867188 68.0625 20.726562 68.0625 20.589844 68.0625 C 20.546875 68.0625 20.507812 68.0625 20.464844 68.0625 C 20.113281 68.058594 19.839844 67.902344 19.574219 67.59375 C 19.546875 67.546875 19.515625 67.5 19.488281 67.453125 C 19.457031 67.40625 19.429688 67.363281 19.398438 67.316406 C 19.15625 66.820312 19.128906 66.402344 19.125 65.820312 C 19.125 65.699219 19.125 65.699219 19.125 65.574219 C 19.121094 65.308594 19.121094 65.042969 19.117188 64.777344 C 19.117188 64.6875 19.117188 64.597656 19.117188 64.503906 C 19.113281 64.070312 19.109375 63.636719 19.109375 63.203125 C 19.109375 62.707031 19.105469 62.210938 19.097656 61.714844 C 19.09375 61.28125 19.09375 60.847656 19.09375 60.414062 C 19.089844 60.230469 19.089844 60.050781 19.085938 59.867188 C 19.0625 58.214844 19.0625 58.214844 19.445312 57.648438 C 19.542969 57.515625 19.640625 57.394531 19.746094 57.273438 C 19.808594 57.175781 19.867188 57.078125 19.921875 56.976562 C 19.945312 56.9375 19.96875 56.894531 19.992188 56.855469 C 20.015625 56.816406 20.035156 56.777344 20.058594 56.738281 C 20.09375 56.675781 20.09375 56.675781 20.132812 56.609375 C 20.269531 56.375 20.398438 56.132812 20.53125 55.890625 C 20.59375 55.777344 20.59375 55.777344 20.660156 55.664062 Z M 20.660156 55.664062 " style=" stroke:none;fill-rule:nonzero;fill:rgb(28.627452%,16.862746%,3.529412%);fill-opacity:1;"/><path d="M 56.617188 59.117188 C 56.703125 59.117188 56.789062 59.117188 56.878906 59.117188 C 57.058594 59.117188 57.238281 59.121094 57.421875 59.125 C 57.652344 59.128906 57.882812 59.128906 58.113281 59.128906 C 58.292969 59.128906 58.472656 59.132812 58.652344 59.132812 C 58.734375 59.132812 58.820312 59.136719 58.90625 59.136719 C 59.96875 59.144531 59.96875 59.144531 60.382812 59.695312 C 60.820312 60.34375 60.785156 61.097656 60.78125 61.925781 C 60.78125 62.054688 60.78125 62.1875 60.78125 62.320312 C 60.78125 62.59375 60.777344 62.871094 60.777344 63.144531 C 60.777344 63.496094 60.777344 63.847656 60.777344 64.199219 C 60.777344 64.472656 60.777344 64.742188 60.777344 65.015625 C 60.777344 65.144531 60.777344 65.273438 60.777344 65.402344 C 60.777344 66.710938 60.777344 66.710938 60.53125 67.21875 C 60.507812 67.265625 60.484375 67.3125 60.460938 67.363281 C 60.261719 67.71875 60.039062 67.90625 59.722656 68.023438 C 59.414062 68.066406 59.105469 68.066406 58.796875 68.0625 C 58.707031 68.0625 58.617188 68.0625 58.527344 68.066406 C 58.339844 68.066406 58.152344 68.066406 57.964844 68.0625 C 57.722656 68.0625 57.484375 68.0625 57.242188 68.0625 C 57.058594 68.066406 56.871094 68.066406 56.6875 68.0625 C 56.597656 68.0625 56.511719 68.0625 56.421875 68.066406 C 55.5 68.070312 55.5 68.070312 55.085938 67.597656 C 55.054688 67.550781 55.027344 67.503906 55 67.457031 C 54.96875 67.414062 54.941406 67.367188 54.910156 67.320312 C 54.707031 66.894531 54.640625 66.472656 54.640625 65.972656 C 54.640625 65.917969 54.640625 65.863281 54.640625 65.804688 C 54.636719 65.691406 54.636719 65.578125 54.640625 65.464844 C 54.640625 65.292969 54.636719 65.121094 54.632812 64.949219 C 54.628906 64.242188 54.671875 63.652344 55.042969 63.113281 C 55.496094 62.523438 55.917969 62.507812 56.519531 62.519531 C 56.59375 62.519531 56.671875 62.519531 56.746094 62.519531 C 56.945312 62.519531 57.140625 62.523438 57.339844 62.523438 C 57.539062 62.527344 57.742188 62.527344 57.945312 62.527344 C 58.339844 62.53125 58.734375 62.535156 59.132812 62.539062 C 59.132812 62.152344 59.132812 61.765625 59.132812 61.367188 C 57.570312 61.367188 56.007812 61.367188 54.398438 61.367188 C 54.613281 60.976562 54.832031 60.597656 55.070312 60.230469 C 55.128906 60.140625 55.1875 60.046875 55.246094 59.957031 C 55.269531 59.917969 55.296875 59.875 55.324219 59.835938 C 55.417969 59.695312 55.417969 59.695312 55.472656 59.558594 C 55.730469 58.996094 56.183594 59.105469 56.617188 59.117188 Z M 56.617188 59.117188 " style=" stroke:none;fill-rule:nonzero;fill:rgb(28.235295%,16.470589%,3.529412%);fill-opacity:1;"/><path d="M 4.609375 59.09375 C 4.695312 59.09375 4.785156 59.09375 4.871094 59.09375 C 5.054688 59.09375 5.238281 59.097656 5.417969 59.101562 C 5.652344 59.109375 5.886719 59.113281 6.121094 59.113281 C 6.300781 59.113281 6.480469 59.117188 6.660156 59.117188 C 6.746094 59.121094 6.832031 59.121094 6.917969 59.121094 C 7.441406 59.128906 7.898438 59.144531 8.316406 59.625 C 8.347656 59.679688 8.382812 59.734375 8.417969 59.792969 C 8.453125 59.847656 8.484375 59.898438 8.519531 59.957031 C 8.710938 60.320312 8.730469 60.648438 8.730469 61.085938 C 8.730469 61.144531 8.734375 61.203125 8.734375 61.265625 C 8.734375 61.460938 8.734375 61.652344 8.734375 61.847656 C 8.734375 61.984375 8.734375 62.117188 8.734375 62.253906 C 8.734375 62.539062 8.738281 62.824219 8.734375 63.109375 C 8.734375 63.472656 8.738281 63.832031 8.738281 64.195312 C 8.742188 64.476562 8.742188 64.757812 8.742188 65.039062 C 8.742188 65.171875 8.742188 65.304688 8.742188 65.4375 C 8.75 66.816406 8.75 66.816406 8.414062 67.460938 C 8.382812 67.5 8.355469 67.539062 8.328125 67.578125 C 8.296875 67.617188 8.269531 67.65625 8.242188 67.695312 C 7.796875 68.113281 7.300781 68.058594 6.785156 68.058594 C 6.695312 68.058594 6.605469 68.058594 6.519531 68.058594 C 6.332031 68.058594 6.148438 68.058594 5.960938 68.058594 C 5.722656 68.058594 5.488281 68.058594 5.25 68.058594 C 5.066406 68.0625 4.882812 68.0625 4.699219 68.0625 C 4.613281 68.0625 4.527344 68.0625 4.4375 68.0625 C 3.917969 68.066406 3.542969 68.050781 3.109375 67.613281 C 3.082031 67.574219 3.050781 67.535156 3.023438 67.496094 C 2.980469 67.4375 2.980469 67.4375 2.933594 67.378906 C 2.710938 66.949219 2.664062 66.503906 2.664062 65.992188 C 2.664062 65.933594 2.664062 65.875 2.664062 65.8125 C 2.664062 65.6875 2.664062 65.5625 2.664062 65.441406 C 2.664062 65.25 2.660156 65.0625 2.660156 64.875 C 2.65625 64.15625 2.667969 63.605469 3.054688 63.0625 C 3.488281 62.5 3.929688 62.507812 4.503906 62.519531 C 4.578125 62.519531 4.65625 62.519531 4.734375 62.519531 C 4.933594 62.519531 5.132812 62.523438 5.335938 62.523438 C 5.539062 62.527344 5.746094 62.527344 5.949219 62.527344 C 6.351562 62.53125 6.753906 62.535156 7.15625 62.539062 C 7.15625 62.152344 7.15625 61.765625 7.15625 61.367188 C 5.59375 61.367188 4.03125 61.367188 2.421875 61.367188 C 2.664062 60.875 2.664062 60.875 2.785156 60.6875 C 2.808594 60.648438 2.835938 60.605469 2.863281 60.5625 C 2.890625 60.519531 2.917969 60.480469 2.945312 60.4375 C 3 60.351562 3.054688 60.269531 3.105469 60.1875 C 3.148438 60.125 3.148438 60.125 3.1875 60.0625 C 3.285156 59.90625 3.285156 59.90625 3.363281 59.722656 C 3.683594 59.035156 4.066406 59.074219 4.609375 59.09375 Z M 4.609375 59.09375 " style=" stroke:none;fill-rule:nonzero;fill:rgb(28.235295%,16.470589%,3.137255%);fill-opacity:1;"/><path d="M 40.40625 55.738281 C 40.425781 55.738281 40.441406 55.738281 40.460938 55.738281 C 40.480469 57.859375 40.496094 59.984375 40.515625 62.171875 C 40.710938 61.859375 40.90625 61.546875 41.105469 61.222656 C 41.253906 60.988281 41.253906 60.988281 41.402344 60.746094 C 41.449219 60.667969 41.5 60.59375 41.550781 60.511719 C 41.652344 60.34375 41.757812 60.175781 41.863281 60.007812 C 41.890625 59.964844 41.917969 59.921875 41.945312 59.878906 C 41.996094 59.792969 42.050781 59.710938 42.101562 59.628906 C 42.207031 59.457031 42.304688 59.289062 42.398438 59.101562 C 42.558594 59.082031 42.707031 59.074219 42.867188 59.078125 C 42.914062 59.082031 42.960938 59.082031 43.007812 59.082031 C 43.15625 59.082031 43.304688 59.085938 43.453125 59.085938 C 43.554688 59.089844 43.65625 59.089844 43.757812 59.089844 C 44.003906 59.09375 44.25 59.097656 44.496094 59.101562 C 44.257812 59.773438 43.820312 60.332031 43.464844 60.890625 C 43.253906 61.21875 43.050781 61.550781 42.851562 61.886719 C 42.65625 62.203125 42.457031 62.515625 42.257812 62.824219 C 42.203125 62.910156 42.148438 62.996094 42.09375 63.085938 C 42.035156 63.175781 41.976562 63.265625 41.917969 63.359375 C 41.847656 63.484375 41.847656 63.484375 41.875 63.628906 C 41.941406 63.882812 42.082031 64.066406 42.210938 64.261719 C 42.269531 64.355469 42.328125 64.445312 42.386719 64.539062 C 42.417969 64.585938 42.445312 64.628906 42.476562 64.675781 C 42.589844 64.851562 42.695312 65.03125 42.800781 65.210938 C 43.011719 65.5625 43.230469 65.910156 43.449219 66.253906 C 43.660156 66.585938 43.863281 66.921875 44.066406 67.261719 C 44.164062 67.425781 44.265625 67.582031 44.367188 67.738281 C 44.496094 67.953125 44.496094 67.953125 44.496094 68.097656 C 44.214844 68.117188 43.933594 68.132812 43.648438 68.140625 C 43.554688 68.144531 43.457031 68.152344 43.363281 68.160156 C 42.566406 68.214844 42.566406 68.214844 42.289062 67.933594 C 42.167969 67.730469 42.066406 67.519531 41.96875 67.292969 C 41.910156 67.195312 41.847656 67.097656 41.785156 67.003906 C 41.757812 66.960938 41.730469 66.917969 41.699219 66.875 C 41.671875 66.832031 41.644531 66.789062 41.617188 66.746094 C 41.371094 66.359375 41.128906 65.96875 40.890625 65.570312 C 40.765625 65.363281 40.640625 65.160156 40.515625 64.953125 C 40.496094 65.992188 40.480469 67.027344 40.460938 68.097656 C 39.929688 68.097656 39.394531 68.097656 38.847656 68.097656 C 38.832031 66.851562 38.816406 65.601562 38.8125 64.355469 C 38.808594 63.773438 38.800781 63.195312 38.792969 62.613281 C 38.789062 62.109375 38.78125 61.601562 38.78125 61.097656 C 38.78125 60.828125 38.777344 60.5625 38.773438 60.296875 C 38.738281 58.371094 38.738281 58.371094 39.1875 57.667969 C 39.277344 57.539062 39.367188 57.417969 39.464844 57.300781 C 39.578125 57.160156 39.667969 57.003906 39.761719 56.839844 C 39.847656 56.699219 39.933594 56.554688 40.015625 56.414062 C 40.128906 56.226562 40.238281 56.042969 40.34375 55.851562 C 40.363281 55.8125 40.386719 55.773438 40.40625 55.738281 Z M 40.40625 55.738281 " style=" stroke:none;fill-rule:nonzero;fill:rgb(28.627452%,16.862746%,3.921569%);fill-opacity:1;"/><path d="M 26.363281 59.175781 C 26.898438 59.175781 27.429688 59.175781 27.976562 59.175781 C 27.976562 61.394531 27.976562 63.617188 27.976562 65.902344 C 29.042969 65.902344 30.109375 65.902344 31.207031 65.902344 C 31.199219 65.558594 31.191406 65.210938 31.1875 64.855469 C 31.183594 64.632812 31.179688 64.414062 31.179688 64.195312 C 31.175781 63.84375 31.171875 63.496094 31.164062 63.148438 C 31.15625 62.863281 31.152344 62.582031 31.152344 62.300781 C 31.148438 62.195312 31.148438 62.085938 31.144531 61.980469 C 31.121094 61.144531 31.121094 61.144531 31.335938 60.792969 C 31.484375 60.628906 31.636719 60.484375 31.796875 60.34375 C 31.859375 60.277344 31.917969 60.207031 31.972656 60.132812 C 32.675781 59.246094 32.675781 59.246094 32.820312 59.246094 C 32.824219 60.210938 32.828125 61.171875 32.828125 62.136719 C 32.832031 62.582031 32.832031 63.03125 32.832031 63.476562 C 32.835938 63.910156 32.835938 64.339844 32.835938 64.769531 C 32.835938 64.9375 32.835938 65.101562 32.839844 65.265625 C 32.839844 65.496094 32.839844 65.726562 32.839844 65.957031 C 32.839844 66.023438 32.839844 66.09375 32.839844 66.164062 C 32.839844 66.703125 32.765625 67.214844 32.484375 67.628906 C 31.957031 68.226562 31.40625 68.234375 30.757812 68.222656 C 30.664062 68.222656 30.566406 68.222656 30.472656 68.226562 C 30.277344 68.226562 30.082031 68.222656 29.882812 68.21875 C 29.632812 68.21875 29.382812 68.21875 29.128906 68.21875 C 28.9375 68.21875 28.742188 68.21875 28.546875 68.214844 C 28.453125 68.214844 28.363281 68.214844 28.269531 68.214844 C 27.730469 68.214844 27.285156 68.199219 26.835938 67.757812 C 26.792969 67.699219 26.792969 67.699219 26.75 67.640625 C 26.722656 67.601562 26.695312 67.566406 26.664062 67.527344 C 26.398438 67.035156 26.332031 66.621094 26.339844 66.015625 C 26.339844 65.941406 26.339844 65.867188 26.339844 65.792969 C 26.339844 65.546875 26.339844 65.304688 26.34375 65.058594 C 26.34375 64.890625 26.34375 64.722656 26.34375 64.550781 C 26.34375 64.105469 26.347656 63.660156 26.347656 63.214844 C 26.351562 62.761719 26.351562 62.304688 26.355469 61.851562 C 26.355469 60.957031 26.359375 60.066406 26.363281 59.175781 Z M 26.363281 59.175781 " style=" stroke:none;fill-rule:nonzero;fill:rgb(28.627452%,16.862746%,3.529412%);fill-opacity:1;"/><path d="M 48.90625 59.152344 C 48.949219 59.152344 48.988281 59.152344 49.03125 59.148438 C 49.171875 59.148438 49.3125 59.148438 49.449219 59.148438 C 49.546875 59.148438 49.644531 59.144531 49.742188 59.144531 C 49.945312 59.144531 50.148438 59.144531 50.355469 59.144531 C 50.613281 59.144531 50.875 59.140625 51.132812 59.136719 C 51.335938 59.132812 51.535156 59.132812 51.738281 59.132812 C 51.832031 59.132812 51.929688 59.132812 52.023438 59.132812 C 53.085938 59.117188 53.085938 59.117188 53.53125 59.667969 C 53.839844 60.097656 53.929688 60.621094 53.941406 61.207031 C 53.941406 61.261719 53.941406 61.316406 53.945312 61.371094 C 53.949219 61.546875 53.949219 61.722656 53.949219 61.898438 C 53.953125 61.957031 53.953125 62.019531 53.953125 62.082031 C 53.957031 62.402344 53.957031 62.722656 53.960938 63.042969 C 53.960938 63.371094 53.96875 63.703125 53.972656 64.03125 C 53.976562 64.285156 53.980469 64.539062 53.980469 64.796875 C 53.980469 64.917969 53.984375 65.039062 53.984375 65.160156 C 54.007812 66.148438 54.007812 66.148438 53.773438 66.515625 C 53.617188 66.726562 53.445312 66.898438 53.265625 67.074219 C 53.160156 67.191406 53.054688 67.3125 52.949219 67.433594 C 52.757812 67.652344 52.5625 67.832031 52.351562 68.023438 C 52.351562 65.828125 52.351562 63.632812 52.351562 61.367188 C 51.269531 61.367188 50.1875 61.367188 49.070312 61.367188 C 49.070312 63.589844 49.070312 65.808594 49.070312 68.097656 C 48.539062 68.097656 48.003906 68.097656 47.457031 68.097656 C 47.449219 67.128906 47.445312 66.160156 47.441406 65.1875 C 47.441406 64.738281 47.4375 64.289062 47.433594 63.839844 C 47.433594 63.402344 47.429688 62.96875 47.429688 62.535156 C 47.429688 62.367188 47.429688 62.203125 47.425781 62.035156 C 47.425781 61.804688 47.425781 61.570312 47.425781 61.339844 C 47.425781 61.269531 47.421875 61.203125 47.421875 61.132812 C 47.425781 60.558594 47.558594 60.078125 47.847656 59.65625 C 47.90625 59.597656 47.90625 59.597656 47.96875 59.539062 C 48.007812 59.5 48.046875 59.460938 48.085938 59.421875 C 48.359375 59.199219 48.589844 59.152344 48.90625 59.152344 Z M 48.90625 59.152344 " style=" stroke:none;fill-rule:nonzero;fill:rgb(27.843139%,16.078432%,3.137255%);fill-opacity:1;"/><path d="M 35.101562 59.09375 C 35.140625 59.09375 35.179688 59.09375 35.21875 59.09375 C 35.347656 59.09375 35.472656 59.09375 35.601562 59.09375 C 35.691406 59.09375 35.777344 59.09375 35.867188 59.09375 C 36.101562 59.09375 36.335938 59.09375 36.566406 59.097656 C 36.808594 59.097656 37.046875 59.097656 37.285156 59.097656 C 37.75 59.097656 38.21875 59.101562 38.6875 59.101562 C 38.449219 59.585938 38.449219 59.585938 38.335938 59.777344 C 38.3125 59.820312 38.289062 59.859375 38.265625 59.902344 C 38.226562 59.964844 38.226562 59.964844 38.191406 60.03125 C 38.167969 60.070312 38.144531 60.109375 38.121094 60.152344 C 38.070312 60.238281 38.019531 60.324219 37.964844 60.410156 C 37.871094 60.566406 37.871094 60.566406 37.792969 60.773438 C 37.65625 61.070312 37.535156 61.320312 37.277344 61.410156 C 36.929688 61.46875 36.582031 61.441406 36.234375 61.417969 C 36.128906 61.414062 36.019531 61.410156 35.914062 61.40625 C 35.652344 61.398438 35.394531 61.386719 35.132812 61.367188 C 35.136719 61.417969 35.136719 61.464844 35.136719 61.515625 C 35.152344 62.019531 35.160156 62.527344 35.167969 63.03125 C 35.171875 63.21875 35.175781 63.40625 35.179688 63.597656 C 35.226562 65.410156 35.226562 65.410156 34.851562 66.007812 C 34.753906 66.152344 34.648438 66.28125 34.542969 66.414062 C 34.457031 66.554688 34.375 66.691406 34.292969 66.832031 C 34.253906 66.894531 34.21875 66.957031 34.175781 67.023438 C 34.09375 67.164062 34.007812 67.308594 33.921875 67.449219 C 33.878906 67.523438 33.835938 67.597656 33.789062 67.671875 C 33.75 67.742188 33.710938 67.808594 33.667969 67.878906 C 33.636719 67.925781 33.605469 67.976562 33.574219 68.023438 C 33.554688 68.023438 33.539062 68.023438 33.519531 68.023438 C 33.515625 67.09375 33.515625 66.160156 33.511719 65.230469 C 33.511719 64.796875 33.511719 64.367188 33.507812 63.933594 C 33.507812 63.515625 33.503906 63.097656 33.503906 62.679688 C 33.503906 62.519531 33.503906 62.359375 33.503906 62.203125 C 33.503906 61.980469 33.503906 61.753906 33.503906 61.53125 C 33.5 61.464844 33.5 61.402344 33.5 61.335938 C 33.503906 60.65625 33.609375 60.085938 33.957031 59.589844 C 34.304688 59.167969 34.640625 59.09375 35.101562 59.09375 Z M 35.101562 59.09375 " style=" stroke:none;fill-rule:nonzero;fill:rgb(29.019609%,17.647059%,4.313726%);fill-opacity:1;"/><path d="M 13.253906 59.09375 C 13.3125 59.09375 13.3125 59.09375 13.375 59.09375 C 13.503906 59.09375 13.632812 59.09375 13.761719 59.09375 C 13.851562 59.09375 13.945312 59.09375 14.035156 59.09375 C 14.269531 59.09375 14.507812 59.09375 14.746094 59.097656 C 14.988281 59.097656 15.230469 59.097656 15.472656 59.097656 C 15.945312 59.097656 16.421875 59.101562 16.894531 59.101562 C 16.800781 59.316406 16.707031 59.523438 16.589844 59.71875 C 16.566406 59.761719 16.539062 59.808594 16.511719 59.855469 C 16.484375 59.898438 16.457031 59.945312 16.425781 59.992188 C 16.375 60.082031 16.320312 60.175781 16.265625 60.265625 C 16.222656 60.335938 16.222656 60.335938 16.175781 60.40625 C 16.082031 60.5625 16.082031 60.5625 16.011719 60.761719 C 15.90625 61.003906 15.828125 61.136719 15.65625 61.296875 C 15.273438 61.417969 14.863281 61.363281 14.472656 61.339844 C 14.363281 61.335938 14.253906 61.335938 14.144531 61.332031 C 13.878906 61.324219 13.609375 61.3125 13.34375 61.296875 C 13.34375 61.34375 13.347656 61.394531 13.347656 61.445312 C 13.359375 61.921875 13.371094 62.398438 13.378906 62.875 C 13.378906 63.117188 13.386719 63.363281 13.390625 63.605469 C 13.441406 65.40625 13.441406 65.40625 13.125 65.949219 C 12.992188 66.144531 12.847656 66.316406 12.699219 66.488281 C 12.632812 66.589844 12.574219 66.691406 12.515625 66.796875 C 12.492188 66.835938 12.46875 66.875 12.445312 66.917969 C 12.421875 66.957031 12.402344 66.992188 12.378906 67.03125 C 12.355469 67.074219 12.332031 67.113281 12.308594 67.152344 C 12.1875 67.363281 12.074219 67.578125 11.960938 67.800781 C 11.921875 67.875 11.878906 67.949219 11.835938 68.023438 C 11.800781 68.023438 11.765625 68.023438 11.730469 68.023438 C 11.722656 67.085938 11.71875 66.144531 11.71875 65.203125 C 11.71875 64.765625 11.714844 64.328125 11.714844 63.890625 C 11.710938 63.46875 11.710938 63.046875 11.710938 62.625 C 11.707031 62.464844 11.707031 62.304688 11.707031 62.140625 C 11.707031 61.917969 11.703125 61.691406 11.703125 61.464844 C 11.703125 61.398438 11.703125 61.332031 11.703125 61.265625 C 11.707031 60.621094 11.851562 60.050781 12.179688 59.574219 C 12.507812 59.175781 12.828125 59.089844 13.253906 59.09375 Z M 13.253906 59.09375 " style=" stroke:none;fill-rule:nonzero;fill:rgb(28.627452%,17.254902%,3.921569%);fill-opacity:1;"/><path d="M 20.769531 61.367188 C 21.851562 61.367188 22.933594 61.367188 24.050781 61.367188 C 24.050781 62.839844 24.050781 64.3125 24.050781 65.832031 C 22.96875 65.832031 21.882812 65.832031 20.769531 65.832031 C 20.769531 64.359375 20.769531 62.886719 20.769531 61.367188 Z M 20.769531 61.367188 " style=" stroke:none;fill-rule:nonzero;fill:rgb(99.607843%,99.607843%,99.607843%);fill-opacity:1;"/><path d="M 45.089844 59.175781 C 45.621094 59.175781 46.152344 59.175781 46.703125 59.175781 C 46.714844 60 46.726562 60.824219 46.734375 61.648438 C 46.734375 62.03125 46.742188 62.414062 46.746094 62.796875 C 46.753906 63.164062 46.757812 63.535156 46.757812 63.90625 C 46.761719 64.046875 46.761719 64.1875 46.765625 64.328125 C 46.792969 65.542969 46.792969 65.542969 46.5 66.007812 C 46.375 66.175781 46.242188 66.332031 46.109375 66.488281 C 46.027344 66.621094 45.941406 66.757812 45.863281 66.894531 C 45.824219 66.960938 45.785156 67.023438 45.746094 67.09375 C 45.707031 67.160156 45.667969 67.226562 45.625 67.292969 C 45.535156 67.445312 45.449219 67.59375 45.355469 67.746094 C 45.316406 67.8125 45.277344 67.882812 45.238281 67.949219 C 45.207031 68 45.175781 68.046875 45.140625 68.097656 C 45.125 68.097656 45.105469 68.097656 45.089844 68.097656 C 45.089844 65.152344 45.089844 62.207031 45.089844 59.175781 Z M 45.089844 59.175781 " style=" stroke:none;fill-rule:nonzero;fill:rgb(29.019609%,17.254902%,3.921569%);fill-opacity:1;"/><path d="M 9.46875 59.246094 C 9.984375 59.246094 10.5 59.246094 11.03125 59.246094 C 11.039062 60.066406 11.050781 60.882812 11.054688 61.699219 C 11.058594 62.078125 11.0625 62.457031 11.066406 62.835938 C 11.070312 63.203125 11.074219 63.570312 11.074219 63.9375 C 11.078125 64.078125 11.078125 64.214844 11.082031 64.355469 C 11.101562 65.582031 11.101562 65.582031 10.792969 66.054688 C 10.710938 66.152344 10.628906 66.25 10.546875 66.34375 C 10.464844 66.472656 10.386719 66.601562 10.308594 66.734375 C 10.269531 66.800781 10.226562 66.867188 10.1875 66.9375 C 10.144531 67.003906 10.105469 67.074219 10.0625 67.148438 C 9.964844 67.3125 9.863281 67.472656 9.765625 67.636719 C 9.699219 67.746094 9.699219 67.746094 9.628906 67.863281 C 9.59375 67.914062 9.558594 67.96875 9.523438 68.023438 C 9.503906 68.023438 9.488281 68.023438 9.46875 68.023438 C 9.46875 65.128906 9.46875 62.230469 9.46875 59.246094 Z M 9.46875 59.246094 " style=" stroke:none;fill-rule:nonzero;fill:rgb(27.843139%,16.078432%,2.745098%);fill-opacity:1;"/><path d="M 6.457031 23.917969 C 6.761719 23.914062 7.027344 23.921875 7.269531 24.191406 C 7.648438 24.707031 7.917969 25.351562 8.195312 25.964844 C 8.664062 26.980469 9.179688 27.859375 9.789062 28.726562 C 9.925781 28.917969 10.050781 29.121094 10.167969 29.332031 C 9.730469 29.230469 9.3125 29.0625 8.890625 28.882812 C 8.855469 28.867188 8.824219 28.855469 8.789062 28.839844 C 7.902344 28.460938 7.019531 28.066406 6.1875 27.503906 C 6.210938 26.644531 6.242188 25.785156 6.292969 24.929688 C 6.296875 24.851562 6.300781 24.777344 6.304688 24.699219 C 6.308594 24.628906 6.3125 24.558594 6.316406 24.488281 C 6.320312 24.425781 6.324219 24.363281 6.328125 24.296875 C 6.347656 24.136719 6.347656 24.136719 6.457031 23.917969 Z M 6.457031 23.917969 " style=" stroke:none;fill-rule:nonzero;fill:rgb(99.607843%,83.92157%,1.176471%);fill-opacity:1;"/><path d="M 57.570312 23.917969 C 57.734375 24.144531 57.738281 24.371094 57.75 24.679688 C 57.75 24.773438 57.75 24.773438 57.753906 24.871094 C 57.757812 24.9375 57.757812 25.003906 57.761719 25.074219 C 57.765625 25.179688 57.765625 25.179688 57.769531 25.285156 C 57.777344 25.503906 57.78125 25.726562 57.789062 25.949219 C 57.792969 26.097656 57.800781 26.25 57.804688 26.398438 C 57.816406 26.765625 57.828125 27.132812 57.839844 27.503906 C 56.921875 28.058594 56.921875 28.058594 56.46875 28.265625 C 56.425781 28.285156 56.378906 28.308594 56.335938 28.328125 C 56.242188 28.371094 56.148438 28.414062 56.054688 28.457031 C 55.894531 28.53125 55.734375 28.605469 55.574219 28.679688 C 55.007812 28.945312 54.449219 29.195312 53.859375 29.332031 C 54.035156 29.042969 54.214844 28.769531 54.414062 28.507812 C 55.039062 27.667969 55.539062 26.679688 55.992188 25.65625 C 56.667969 24.121094 56.667969 24.121094 57.109375 23.9375 C 57.265625 23.917969 57.414062 23.902344 57.570312 23.917969 Z M 57.570312 23.917969 " style=" stroke:none;fill-rule:nonzero;fill:rgb(99.607843%,83.92157%,1.176471%);fill-opacity:1;"/><path d="M 52.890625 41.621094 C 52.976562 41.671875 53.0625 41.726562 53.148438 41.789062 C 53.199219 41.820312 53.25 41.855469 53.300781 41.890625 C 53.351562 41.925781 53.402344 41.960938 53.457031 42 C 54.027344 42.378906 54.589844 42.660156 55.203125 42.863281 C 55.261719 42.882812 55.316406 42.902344 55.375 42.921875 C 56.066406 43.117188 56.820312 43.046875 57.515625 42.9375 C 57.160156 43.734375 56.582031 44.628906 55.902344 44.910156 C 54.546875 45.191406 52.8125 43.480469 51.761719 42.496094 C 51.933594 42.238281 52.121094 42.023438 52.324219 41.8125 C 52.375 41.761719 52.425781 41.707031 52.476562 41.65625 C 52.652344 41.523438 52.699219 41.546875 52.890625 41.621094 Z M 52.890625 41.621094 " style=" stroke:none;fill-rule:nonzero;fill:rgb(7.058824%,99.607843%,1.176471%);fill-opacity:1;"/><path d="M 11.515625 41.621094 C 11.613281 41.703125 11.613281 41.703125 11.707031 41.804688 C 11.738281 41.839844 11.773438 41.875 11.804688 41.910156 C 11.839844 41.949219 11.871094 41.988281 11.90625 42.027344 C 11.941406 42.066406 11.976562 42.101562 12.011719 42.140625 C 12.097656 42.234375 12.183594 42.328125 12.265625 42.425781 C 12.113281 42.648438 11.964844 42.800781 11.765625 42.949219 C 11.710938 42.992188 11.65625 43.035156 11.597656 43.078125 C 11.539062 43.121094 11.480469 43.164062 11.421875 43.210938 C 11.328125 43.277344 11.328125 43.277344 11.238281 43.347656 C 10.628906 43.804688 10.015625 44.230469 9.378906 44.613281 C 9.34375 44.636719 9.308594 44.65625 9.269531 44.679688 C 8.867188 44.917969 8.449219 45.03125 8.023438 44.839844 C 7.449219 44.484375 6.878906 43.835938 6.5625 43.082031 C 6.5625 43.035156 6.5625 42.984375 6.5625 42.9375 C 6.667969 42.953125 6.667969 42.953125 6.769531 42.972656 C 7.601562 43.09375 8.398438 43.039062 9.199219 42.71875 C 9.238281 42.703125 9.273438 42.6875 9.3125 42.671875 C 9.855469 42.445312 10.363281 42.132812 10.867188 41.777344 C 10.910156 41.746094 10.957031 41.714844 11.003906 41.683594 C 11.042969 41.65625 11.085938 41.628906 11.125 41.597656 C 11.277344 41.53125 11.363281 41.554688 11.515625 41.621094 Z M 11.515625 41.621094 " style=" stroke:none;fill-rule:nonzero;fill:rgb(6.666667%,99.607843%,1.176471%);fill-opacity:1;"/><path d="M 3.226562 34.453125 C 3.390625 34.523438 3.546875 34.597656 3.707031 34.679688 C 5.589844 35.660156 7.75 35.84375 9.738281 36.132812 C 9.785156 36.328125 9.828125 36.519531 9.875 36.714844 C 9.890625 36.796875 9.890625 36.796875 9.910156 36.882812 C 10.007812 37.296875 10.007812 37.296875 10.007812 37.378906 C 9.335938 37.402344 8.675781 37.324219 8.011719 37.246094 C 7.925781 37.234375 7.925781 37.234375 7.835938 37.222656 C 7.5 37.183594 7.160156 37.144531 6.820312 37.101562 C 6.6875 37.085938 6.550781 37.070312 6.414062 37.054688 C 6.207031 37.027344 6 37.003906 5.789062 36.976562 C 5.734375 36.96875 5.675781 36.960938 5.617188 36.953125 C 4.632812 36.816406 4.0625 36.019531 3.445312 35.035156 C 3.226562 34.65625 3.226562 34.65625 3.226562 34.453125 Z M 3.226562 34.453125 " style=" stroke:none;fill-rule:nonzero;fill:rgb(7.058824%,99.607843%,1.568628%);fill-opacity:1;"/><path d="M 60.746094 34.453125 C 60.746094 35 60.277344 35.578125 60.015625 35.964844 C 59.5 36.632812 58.917969 36.875 58.222656 36.96875 C 58.164062 36.980469 58.105469 36.988281 58.042969 36.996094 C 57.339844 37.09375 56.632812 37.167969 55.925781 37.246094 C 55.867188 37.25 55.804688 37.257812 55.742188 37.265625 C 55.566406 37.285156 55.390625 37.300781 55.214844 37.320312 C 55.160156 37.328125 55.109375 37.332031 55.054688 37.339844 C 54.726562 37.371094 54.402344 37.382812 54.074219 37.378906 C 54.097656 37.046875 54.128906 36.753906 54.210938 36.441406 C 54.234375 36.355469 54.234375 36.355469 54.253906 36.265625 C 54.273438 36.199219 54.273438 36.199219 54.289062 36.132812 C 54.335938 36.125 54.382812 36.117188 54.429688 36.113281 C 56.632812 35.789062 56.632812 35.789062 58.808594 35.257812 C 58.855469 35.242188 58.902344 35.230469 58.949219 35.214844 C 59.578125 35.03125 60.160156 34.808594 60.746094 34.453125 Z M 60.746094 34.453125 " style=" stroke:none;fill-rule:nonzero;fill:rgb(7.450981%,99.607843%,1.568628%);fill-opacity:1;"/><path d="M 60.207031 36.792969 C 60.261719 36.828125 60.261719 36.828125 60.316406 36.863281 C 59.804688 38.019531 59.261719 38.921875 58.324219 39.425781 C 58.28125 39.449219 58.238281 39.476562 58.191406 39.503906 C 57.914062 39.640625 57.640625 39.65625 57.347656 39.65625 C 57.308594 39.65625 57.273438 39.65625 57.234375 39.65625 C 57.117188 39.660156 56.996094 39.660156 56.878906 39.660156 C 56.835938 39.660156 56.796875 39.660156 56.753906 39.660156 C 55.722656 39.65625 54.710938 39.558594 53.695312 39.277344 C 53.710938 39.175781 53.726562 39.074219 53.746094 38.972656 C 53.753906 38.914062 53.761719 38.859375 53.769531 38.800781 C 53.808594 38.609375 53.859375 38.4375 53.914062 38.253906 C 54 38.253906 54 38.253906 54.089844 38.25 C 55.671875 38.226562 55.671875 38.226562 57.25 38.035156 C 57.300781 38.027344 57.351562 38.015625 57.40625 38.007812 C 58.910156 37.757812 58.910156 37.757812 60.207031 36.792969 Z M 60.207031 36.792969 " style=" stroke:none;fill-rule:nonzero;fill:rgb(7.058824%,99.607843%,1.568628%);fill-opacity:1;"/><path d="M 3.765625 36.792969 C 3.804688 36.820312 3.839844 36.847656 3.875 36.878906 C 5.746094 38.296875 8.035156 38.203125 10.117188 38.253906 C 10.152344 38.382812 10.1875 38.515625 10.222656 38.644531 C 10.242188 38.714844 10.261719 38.789062 10.285156 38.863281 C 10.332031 39.058594 10.332031 39.058594 10.332031 39.277344 C 9.363281 39.535156 8.414062 39.65625 7.429688 39.667969 C 7.335938 39.667969 7.246094 39.667969 7.15625 39.667969 C 6.164062 39.683594 5.390625 39.457031 4.644531 38.5 C 3.765625 37.300781 3.765625 37.300781 3.765625 36.792969 Z M 3.765625 36.792969 " style=" stroke:none;fill-rule:nonzero;fill:rgb(7.058824%,99.607843%,1.176471%);fill-opacity:1;"/><path d="M 60.851562 32.109375 C 60.84375 32.742188 60.550781 33.210938 60.222656 33.632812 C 59.511719 34.421875 58.421875 34.570312 57.539062 34.777344 C 57.472656 34.792969 57.472656 34.792969 57.402344 34.808594 C 56.386719 35.046875 55.367188 35.234375 54.34375 35.402344 C 54.359375 35.296875 54.375 35.195312 54.394531 35.089844 C 54.402344 35.03125 54.414062 34.976562 54.421875 34.914062 C 54.496094 34.460938 54.496094 34.460938 54.613281 34.230469 C 54.738281 34.167969 54.738281 34.167969 54.894531 34.121094 C 54.953125 34.101562 55.011719 34.085938 55.070312 34.066406 C 55.382812 33.976562 55.691406 33.894531 56.003906 33.8125 C 57.09375 33.519531 58.175781 33.179688 59.25 32.796875 C 59.347656 32.761719 59.449219 32.726562 59.550781 32.691406 C 59.921875 32.554688 60.269531 32.394531 60.621094 32.179688 C 60.746094 32.109375 60.746094 32.109375 60.851562 32.109375 Z M 60.851562 32.109375 " style=" stroke:none;fill-rule:nonzero;fill:rgb(7.450981%,99.607843%,1.960784%);fill-opacity:1;"/><path d="M 3.175781 32.109375 C 3.332031 32.179688 3.488281 32.253906 3.640625 32.332031 C 4.992188 33.035156 6.449219 33.359375 7.855469 33.761719 C 7.941406 33.785156 7.941406 33.785156 8.027344 33.808594 C 8.273438 33.878906 8.523438 33.945312 8.773438 34 C 8.8125 34.011719 8.851562 34.019531 8.894531 34.03125 C 8.996094 34.054688 9.101562 34.074219 9.207031 34.097656 C 9.386719 34.167969 9.433594 34.230469 9.523438 34.453125 C 9.574219 34.617188 9.574219 34.617188 9.613281 34.785156 C 9.628906 34.839844 9.640625 34.898438 9.65625 34.953125 C 9.683594 35.109375 9.683594 35.109375 9.683594 35.328125 C 9.117188 35.289062 8.558594 35.207031 7.992188 35.097656 C 7.953125 35.089844 7.914062 35.082031 7.871094 35.070312 C 7.269531 34.953125 6.667969 34.816406 6.066406 34.667969 C 6 34.648438 5.929688 34.632812 5.859375 34.613281 C 4.074219 34.152344 4.074219 34.152344 3.476562 33.164062 C 3.328125 32.859375 3.175781 32.484375 3.175781 32.109375 Z M 3.175781 32.109375 " style=" stroke:none;fill-rule:nonzero;fill:rgb(7.450981%,99.607843%,1.568628%);fill-opacity:1;"/><path d="M 10.425781 40.035156 C 10.710938 40.117188 10.867188 40.421875 11.03125 40.742188 C 11.03125 40.789062 11.03125 40.839844 11.03125 40.886719 C 10.691406 41.0625 10.347656 41.234375 10.007812 41.398438 C 9.96875 41.417969 9.933594 41.4375 9.894531 41.457031 C 8.75 42.011719 7.179688 42.488281 6.027344 41.765625 C 5.621094 41.480469 5.242188 41.074219 5.101562 40.46875 C 5.085938 40.390625 5.074219 40.3125 5.058594 40.230469 C 5.113281 40.25 5.167969 40.273438 5.226562 40.292969 C 6.894531 40.875 8.757812 40.449219 10.425781 40.035156 Z M 10.425781 40.035156 " style=" stroke:none;fill-rule:nonzero;fill:rgb(7.450981%,99.607843%,1.960784%);fill-opacity:1;"/><path d="M 53.742188 40.097656 C 53.835938 40.109375 53.835938 40.109375 53.933594 40.125 C 54.3125 40.1875 54.691406 40.265625 55.070312 40.34375 C 55.765625 40.484375 56.449219 40.539062 57.152344 40.546875 C 57.1875 40.546875 57.222656 40.546875 57.261719 40.546875 C 57.855469 40.546875 58.402344 40.46875 58.96875 40.230469 C 58.835938 40.871094 58.664062 41.226562 58.246094 41.589844 C 57.125 42.429688 55.703125 42.085938 54.523438 41.636719 C 54.003906 41.429688 53.5 41.167969 52.996094 40.886719 C 53.304688 40.03125 53.304688 40.03125 53.742188 40.097656 Z M 53.742188 40.097656 " style=" stroke:none;fill-rule:nonzero;fill:rgb(7.450981%,99.607843%,1.960784%);fill-opacity:1;"/><path d="M 61.121094 29.40625 C 61.179688 29.644531 61.171875 29.738281 61.132812 29.980469 C 61.125 30.050781 61.113281 30.117188 61.105469 30.1875 C 61.089844 30.296875 61.089844 30.296875 61.070312 30.40625 C 61.0625 30.476562 61.050781 30.550781 61.039062 30.625 C 61.015625 30.804688 60.988281 30.980469 60.960938 31.160156 C 60.007812 31.636719 59.058594 32.011719 58.074219 32.339844 C 57.847656 32.417969 57.625 32.503906 57.402344 32.589844 C 56.980469 32.753906 56.554688 32.898438 56.128906 33.039062 C 56.0625 33.0625 56 33.082031 55.933594 33.105469 C 55.511719 33.242188 55.09375 33.347656 54.664062 33.425781 C 54.683594 33.1875 54.699219 32.945312 54.71875 32.695312 C 54.839844 32.648438 54.839844 32.648438 54.960938 32.601562 C 55.695312 32.3125 56.429688 32.003906 57.15625 31.683594 C 57.25 31.644531 57.34375 31.601562 57.4375 31.5625 C 57.960938 31.332031 58.46875 31.089844 58.96875 30.792969 C 59.074219 30.734375 59.179688 30.679688 59.285156 30.621094 C 59.925781 30.269531 60.53125 29.890625 61.121094 29.40625 Z M 61.121094 29.40625 " style=" stroke:none;fill-rule:nonzero;fill:rgb(8.235294%,99.607843%,2.745098%);fill-opacity:1;"/><path d="M 2.851562 29.40625 C 3.015625 29.511719 3.175781 29.628906 3.332031 29.75 C 3.761719 30.066406 4.195312 30.335938 4.648438 30.582031 C 4.683594 30.601562 4.71875 30.621094 4.753906 30.644531 C 6.0625 31.359375 7.40625 32.007812 8.773438 32.476562 C 9.148438 32.605469 9.148438 32.605469 9.308594 32.695312 C 9.371094 32.949219 9.367188 33.160156 9.363281 33.425781 C 8.84375 33.316406 8.339844 33.144531 7.832031 32.976562 C 7.652344 32.917969 7.46875 32.859375 7.289062 32.800781 C 6.417969 32.519531 5.550781 32.238281 4.699219 31.871094 C 4.410156 31.75 4.117188 31.640625 3.824219 31.53125 C 3.695312 31.484375 3.570312 31.433594 3.445312 31.378906 C 3.386719 31.355469 3.386719 31.355469 3.328125 31.332031 C 3.226562 31.285156 3.226562 31.285156 3.066406 31.160156 C 3.011719 30.953125 3.011719 30.953125 2.996094 30.710938 C 2.988281 30.628906 2.984375 30.542969 2.976562 30.457031 C 2.96875 30.332031 2.96875 30.332031 2.960938 30.210938 C 2.941406 30.082031 2.921875 29.957031 2.898438 29.828125 C 2.851562 29.550781 2.851562 29.550781 2.851562 29.40625 Z M 2.851562 29.40625 " style=" stroke:none;fill-rule:nonzero;fill:rgb(7.450981%,99.607843%,1.960784%);fill-opacity:1;"/><path d="M 51.375 43.015625 C 51.539062 43.109375 51.671875 43.253906 51.8125 43.398438 C 52.769531 44.351562 53.84375 45.199219 54.988281 45.644531 C 55 46.125 54.890625 46.332031 54.664062 46.695312 C 54.359375 46.921875 54.027344 46.875 53.695312 46.75 C 52.570312 46.15625 51.628906 44.886719 50.84375 43.667969 C 50.941406 43.382812 51.113281 43 51.375 43.015625 Z M 51.375 43.015625 " style=" stroke:none;fill-rule:nonzero;fill:rgb(7.450981%,99.607843%,1.568628%);fill-opacity:1;"/><path d="M 12.722656 43 C 12.921875 43.121094 13.035156 43.300781 13.183594 43.519531 C 12.757812 44.894531 11.328125 46.171875 10.351562 46.726562 C 10.027344 46.878906 9.78125 46.875 9.453125 46.738281 C 9.257812 46.542969 9.132812 46.3125 9.039062 46.007812 C 9.03125 45.804688 9.03125 45.804688 9.039062 45.644531 C 9.101562 45.613281 9.160156 45.585938 9.222656 45.558594 C 10.394531 45.007812 11.515625 44.195312 12.480469 43.125 C 12.589844 43.007812 12.589844 43.007812 12.722656 43 Z M 12.722656 43 " style=" stroke:none;fill-rule:nonzero;fill:rgb(7.058824%,99.607843%,1.568628%);fill-opacity:1;"/><path d="M 7.101562 62.613281 C 7.121094 62.613281 7.136719 62.613281 7.15625 62.613281 C 7.15625 63.675781 7.15625 64.738281 7.15625 65.832031 C 6.195312 65.832031 5.238281 65.832031 4.25 65.832031 C 4.25 65.46875 4.25 65.105469 4.25 64.734375 C 4.417969 64.738281 4.417969 64.738281 4.585938 64.746094 C 4.695312 64.746094 4.804688 64.746094 4.914062 64.746094 C 4.988281 64.746094 5.0625 64.75 5.136719 64.753906 C 5.609375 64.773438 5.609375 64.773438 6.015625 64.492188 C 6.140625 64.285156 6.246094 64.078125 6.347656 63.855469 C 6.394531 63.773438 6.445312 63.695312 6.492188 63.617188 C 6.53125 63.554688 6.566406 63.492188 6.605469 63.429688 C 6.644531 63.363281 6.683594 63.300781 6.726562 63.230469 C 6.789062 63.121094 6.855469 63.011719 6.921875 62.902344 C 6.980469 62.804688 7.042969 62.707031 7.101562 62.613281 Z M 7.101562 62.613281 " style=" stroke:none;fill-rule:nonzero;fill:rgb(98.039216%,97.254902%,96.862745%);fill-opacity:1;"/><path d="M 59.078125 62.683594 C 59.09375 62.683594 59.113281 62.683594 59.132812 62.683594 C 59.132812 63.722656 59.132812 64.761719 59.132812 65.832031 C 58.191406 65.832031 57.25 65.832031 56.28125 65.832031 C 56.28125 65.46875 56.28125 65.105469 56.28125 64.734375 C 56.386719 64.734375 56.496094 64.738281 56.605469 64.742188 C 56.710938 64.738281 56.816406 64.738281 56.921875 64.738281 C 57.03125 64.738281 57.140625 64.742188 57.246094 64.746094 C 57.636719 64.746094 57.636719 64.746094 57.976562 64.523438 C 58.085938 64.355469 58.179688 64.1875 58.269531 64.003906 C 58.316406 63.929688 58.359375 63.855469 58.40625 63.78125 C 58.445312 63.71875 58.480469 63.65625 58.519531 63.589844 C 58.703125 63.285156 58.886719 62.980469 59.078125 62.683594 Z M 59.078125 62.683594 " style=" stroke:none;fill-rule:nonzero;fill:rgb(98.823529%,98.823529%,98.431373%);fill-opacity:1;"/><path d="M 50.460938 44.117188 C 50.625 44.207031 50.695312 44.351562 50.800781 44.539062 C 51.039062 44.949219 51.285156 45.335938 51.546875 45.714844 C 51.585938 45.773438 51.625 45.832031 51.664062 45.890625 C 51.980469 46.335938 52.320312 46.699219 52.71875 47 C 52.757812 47.035156 52.796875 47.070312 52.835938 47.105469 C 52.835938 47.152344 52.835938 47.203125 52.835938 47.25 C 52.179688 47.273438 51.625 47.292969 51.113281 46.667969 C 50.980469 46.4375 50.886719 46.195312 50.792969 45.933594 C 50.773438 45.886719 50.757812 45.839844 50.738281 45.789062 C 50.546875 45.261719 50.363281 44.75 50.253906 44.179688 C 50.359375 44.105469 50.359375 44.105469 50.460938 44.117188 Z M 50.460938 44.117188 " style=" stroke:none;fill-rule:nonzero;fill:rgb(8.235294%,99.607843%,2.745098%);fill-opacity:1;"/><path d="M 13.503906 44.105469 C 13.636719 44.144531 13.636719 44.144531 13.773438 44.179688 C 13.652344 44.703125 13.503906 45.195312 13.332031 45.691406 C 13.304688 45.765625 13.28125 45.839844 13.257812 45.914062 C 13.0625 46.480469 12.851562 46.855469 12.421875 47.09375 C 12.128906 47.226562 11.859375 47.261719 11.550781 47.257812 C 11.484375 47.253906 11.417969 47.253906 11.347656 47.253906 C 11.296875 47.253906 11.246094 47.253906 11.191406 47.25 C 11.191406 47.203125 11.191406 47.15625 11.191406 47.105469 C 11.277344 47.027344 11.363281 46.953125 11.453125 46.882812 C 11.777344 46.609375 12.046875 46.292969 12.320312 45.933594 C 12.367188 45.875 12.417969 45.8125 12.464844 45.75 C 12.851562 45.242188 13.179688 44.691406 13.503906 44.105469 Z M 13.503906 44.105469 " style=" stroke:none;fill-rule:nonzero;fill:rgb(8.235294%,99.607843%,2.745098%);fill-opacity:1;"/><path d="M 46.703125 55.957031 C 46.703125 56.824219 46.703125 57.695312 46.703125 58.589844 C 46.167969 58.589844 45.636719 58.589844 45.089844 58.589844 C 45.089844 58.542969 45.089844 58.492188 45.089844 58.441406 C 45.125 58.441406 45.160156 58.441406 45.195312 58.441406 C 45.207031 58.402344 45.21875 58.363281 45.234375 58.324219 C 45.324219 58.097656 45.445312 57.914062 45.570312 57.722656 C 45.820312 57.328125 46.058594 56.921875 46.292969 56.511719 C 46.609375 55.957031 46.609375 55.957031 46.703125 55.957031 Z M 46.703125 55.957031 " style=" stroke:none;fill-rule:nonzero;fill:rgb(30.980393%,19.215687%,6.27451%);fill-opacity:1;"/><path d="M 10.976562 55.957031 C 10.992188 55.957031 11.011719 55.957031 11.03125 55.957031 C 11.03125 56.800781 11.03125 57.644531 11.03125 58.515625 C 10.515625 58.515625 10 58.515625 9.46875 58.515625 C 9.832031 57.859375 9.832031 57.859375 10.011719 57.566406 C 10.164062 57.316406 10.3125 57.066406 10.460938 56.816406 C 10.492188 56.761719 10.523438 56.707031 10.558594 56.652344 C 10.621094 56.546875 10.683594 56.4375 10.746094 56.332031 C 10.777344 56.28125 10.804688 56.234375 10.835938 56.183594 C 10.859375 56.140625 10.886719 56.097656 10.914062 56.050781 C 10.945312 56.003906 10.945312 56.003906 10.976562 55.957031 Z M 10.976562 55.957031 " style=" stroke:none;fill-rule:nonzero;fill:rgb(28.235295%,16.470589%,3.529412%);fill-opacity:1;"/></g></svg>