<svg xmlns="http://www.w3.org/2000/svg" version="1.1" width="70px" height="70px" viewBox="0 0 70 70"><g id="surface1"><path d="M 7.335938 18.871094 L 31.355469 18.871094 L 31.355469 42.890625 L 7.335938 42.890625 Z M 7.335938 18.871094 " style=" stroke:none;fill-rule:nonzero;fill:rgb(100%,100%,100%);fill-opacity:1;"/><path d="M 29.792969 48.167969 C 29.363281 46.71875 29.144531 45.058594 29.144531 42.59375 L 29.144531 29.765625 C 29.144531 22.847656 25.472656 19.488281 17.925781 19.488281 C 13.691406 19.488281 9.835938 20.6875 6.78125 22.707031 L 9.359375 27.652344 C 11.835938 26.160156 14.070312 25.476562 16.359375 25.476562 C 18.652344 25.476562 21.417969 26.21875 21.417969 29.765625 L 21.417969 30.148438 L 16.875 30.304688 C 9.386719 30.558594 5.085938 33.945312 5.085938 39.609375 C 5.085938 45.269531 8.914062 48.738281 14.394531 48.738281 C 17.433594 48.738281 19.996094 47.824219 22.238281 45.925781 C 22.804688 47.417969 23.527344 48.167969 25.398438 48.167969 Z M 21.417969 41.027344 C 20.183594 42.058594 18.632812 42.582031 16.828125 42.582031 C 14.242188 42.582031 12.707031 41.28125 12.707031 39.089844 C 12.707031 37.710938 13.230469 35.859375 17.824219 35.71875 L 21.421875 35.613281 L 21.421875 41.027344 Z M 21.417969 41.027344 " style=" stroke:none;fill-rule:nonzero;fill:rgb(100%,0%,0%);fill-opacity:1;"/><path d="M 55.257812 48.082031 L 59.097656 48.082031 C 60.691406 48.082031 61.398438 48.214844 61.84375 48.417969 C 61.160156 46.300781 59.011719 44.648438 51.441406 44.082031 C 52.652344 45.484375 53.921875 46.824219 55.257812 48.082031 Z M 55.257812 48.082031 " style=" stroke:none;fill-rule:nonzero;fill:rgb(100%,0%,0%);fill-opacity:1;"/><path d="M 51.441406 44.085938 C 44.089844 35.546875 39.136719 24.617188 37.15625 15.511719 C 37.15625 15.511719 33.117188 19.074219 32.792969 26.574219 C 32.4375 34.761719 36.832031 43.019531 51.300781 44.074219 C 51.351562 44.078125 51.398438 44.078125 51.441406 44.085938 Z M 51.441406 44.085938 " style=" stroke:none;fill-rule:nonzero;fill:rgb(100%,0%,0%);fill-opacity:1;"/><path d="M 55.257812 48.082031 L 39.707031 48.082031 C 39.914062 48.566406 40.628906 48.90625 42.25 49 C 51.957031 49.578125 53.332031 57.195312 67.226562 57.195312 C 68.449219 57.195312 69.207031 57.121094 69.976562 56.976562 C 64.480469 55.289062 59.550781 52.117188 55.261719 48.082031 Z M 55.257812 48.082031 " style=" stroke:none;fill-rule:nonzero;fill:rgb(100%,0%,0%);fill-opacity:1;"/></g></svg>