<svg xmlns="http://www.w3.org/2000/svg" version="1.1" id="Layer_1" x="0px" y="0px" width="70px" height="70px" viewBox="0 0 70 70" enable-background="new 0 0 70 70" xml:space="preserve"><metadata/><rect width="70" fill="none" height="70"/><path fill="#04AFDB" d="M47,25.6c6-5.8,10.2-11.4,12.1-14c-6.199-6.7-15.1-11-25-11c-2.9,0-5.8,0.4-8.5,1.1   C30.4,4.8,38.4,11.6,47,25.6z"/><path fill="#E43725" d="M2.3,38c5.9,6.4,23.7,2.9,35.8-5C33.2,20.9,23.2,9.9,17.9,4.7C7.8,10.1,0.8,20.4,0.1,32.5   C0.6,34.4,0.7,36.3,2.3,38z"/><path fill="#E43725" d="M41.2,43.6C32,50.9,21.2,56.4,13.7,56.4c-2.5,0-4.8-0.601-6.8-1.4c6.1,8.1,15.8,13.5,26.7,13.6   C41.9,66.4,43.8,56.9,41.2,43.6z"/><path fill="#04AFDB" d="M63.8,18.1c-2.3,4.7-6.7,10.3-12.1,15.9c4.8,10.1,5.5,19.1,4.6,26.4c7.2-6.2,11.8-15.5,11.8-25.8   C68.1,28.6,66.5,23,63.8,18.1z"/><g id="_x31_PEncP_1_"><g><g><path fill="#E43725" d="M63.9,17.8c-0.5-1.1-1-2.2-1.601-3.3c-0.2,0.2-0.3,0.4-0.5,0.7c-0.1,0.2-0.3,0.3-0.399,0.5      c0,0.1-0.101,0.2-0.101,0.2c0,0.3,0.101,0.5,0.101,0.8c0,0.1,0,0.2,0,0.2c-0.101,0.2-0.2,0.3-0.301,0.5      c-0.199-0.4-0.3-0.7-0.5-1.1c0-0.1-0.1-0.2-0.199-0.2c-0.301-0.2-0.601-0.4-0.9-0.6c0.1-0.2,0.3-0.3,0.4-0.5H60      c0.2,0,0.4,0.1,0.7,0.1h0.1c0.3-0.4,0.601-0.8,1-1.2C60.9,13.3,60,12.7,59,12.1c0.2-0.2,0.3-0.4,0.5-0.6c0,0,0.1,0,0.2,0      c0.899,0.3,1.7,0.6,2.6,0.9c0.2,0.1,0.4,0.2,0.5,0.2c0.2,0,0.3-0.3,0.4-0.4c0.3-0.4,0.6-0.8,1-1.2c0.2-0.2,0.399-0.2,0.6,0      c0.101,0.2,0.2,0.4,0,0.6c-0.1,0.2-0.2,0.3-0.3,0.5c-0.3,0.4-0.6,0.8-0.9,1.2c-0.1,0.1-0.1,0.2-0.1,0.3c0.3,1.2,0.6,2.4,0.9,3.6      c0,0.1,0,0.2-0.101,0.3C64.2,17.4,64.1,17.6,63.9,17.8z"/></g></g></g></svg>