<svg xmlns="http://www.w3.org/2000/svg" version="1.1" width="70px" height="70px" viewBox="0 0 70 70"><g id="surface1"><path d="M 0.0507812 70 C 0.0507812 46.6875 0.0507812 23.375 0.0507812 0.0546875 C 11.710938 0.0546875 23.375 0.0546875 35.039062 0.0546875 C 46.703125 0.0546875 58.371094 0.0546875 70.050781 0.0546875 C 70.050781 23.335938 70.050781 46.617188 70.03125 69.914062 C 69.667969 69.242188 69.316406 68.554688 68.96875 67.863281 C 68.621094 67.160156 68.273438 66.457031 67.921875 65.757812 C 67.425781 64.761719 66.917969 63.769531 66.417969 62.773438 C 66.054688 62.050781 65.703125 61.320312 65.339844 60.597656 C 64.765625 59.457031 64.183594 58.320312 63.605469 57.175781 C 63.058594 56.097656 62.515625 55.019531 61.976562 53.933594 C 61.527344 53.03125 61.089844 52.117188 60.636719 51.214844 C 59.984375 49.910156 59.316406 48.609375 58.660156 47.304688 C 58.222656 46.433594 57.796875 45.554688 57.363281 44.679688 C 56.761719 43.476562 56.148438 42.273438 55.546875 41.066406 C 55.203125 40.382812 54.867188 39.691406 54.523438 39.007812 C 53.921875 37.808594 53.316406 36.613281 52.71875 35.417969 C 52.304688 34.59375 51.894531 33.765625 51.480469 32.941406 C 50.949219 31.890625 50.417969 30.847656 49.890625 29.796875 C 49.550781 29.121094 49.222656 28.4375 48.882812 27.761719 C 48.285156 26.570312 47.683594 25.382812 47.089844 24.191406 C 46.738281 23.492188 46.394531 22.789062 46.042969 22.085938 C 45.542969 21.09375 45.035156 20.101562 44.535156 19.105469 C 44.109375 18.25 43.683594 17.390625 43.257812 16.535156 C 42.730469 15.484375 42.195312 14.4375 41.667969 13.386719 C 41.246094 12.546875 40.835938 11.703125 40.414062 10.863281 C 39.820312 9.671875 39.21875 8.484375 38.621094 7.292969 C 38.207031 6.46875 37.796875 5.640625 37.386719 4.816406 C 36.769531 3.589844 36.152344 2.359375 35.535156 1.132812 C 35.363281 0.785156 35.179688 0.445312 34.992188 0.0898438 C 34.929688 0.164062 34.886719 0.199219 34.867188 0.242188 C 34.289062 1.402344 33.710938 2.566406 33.136719 3.726562 C 32.773438 4.460938 32.410156 5.199219 32.046875 5.929688 C 31.519531 6.980469 30.984375 8.023438 30.457031 9.074219 C 30.023438 9.945312 29.597656 10.824219 29.164062 11.699219 C 28.613281 12.796875 28.058594 13.890625 27.511719 14.988281 C 27.082031 15.851562 26.65625 16.722656 26.226562 17.585938 C 25.675781 18.683594 25.121094 19.777344 24.574219 20.875 C 24.144531 21.742188 23.71875 22.609375 23.289062 23.476562 C 22.738281 24.574219 22.1875 25.667969 21.636719 26.765625 C 21.289062 27.464844 20.945312 28.171875 20.59375 28.871094 C 20.046875 29.96875 19.492188 31.066406 18.945312 32.164062 C 18.59375 32.863281 18.253906 33.570312 17.902344 34.269531 C 17.355469 35.367188 16.800781 36.464844 16.253906 37.5625 C 15.902344 38.261719 15.5625 38.96875 15.210938 39.667969 C 14.617188 40.851562 14.011719 42.027344 13.421875 43.207031 C 12.96875 44.113281 12.535156 45.023438 12.082031 45.925781 C 11.472656 47.148438 10.847656 48.367188 10.238281 49.585938 C 9.785156 50.492188 9.351562 51.402344 8.898438 52.308594 C 8.289062 53.527344 7.667969 54.746094 7.054688 55.96875 C 6.605469 56.871094 6.167969 57.78125 5.71875 58.6875 C 5.105469 59.910156 4.484375 61.125 3.875 62.347656 C 3.421875 63.25 2.984375 64.160156 2.535156 65.066406 C 1.984375 66.171875 1.433594 67.277344 0.878906 68.378906 C 0.605469 68.921875 0.324219 69.460938 0.0507812 70 Z M 0.0507812 70 " style=" stroke:none;fill-rule:nonzero;fill:rgb(100%,100%,100%);fill-opacity:1;"/><path d="M 63.195312 70.054688 C 44.398438 70.054688 25.597656 70.054688 6.78125 70.035156 C 7.359375 68.953125 7.921875 67.863281 8.558594 66.828125 C 9.367188 65.523438 10.203125 64.234375 11.082031 62.988281 C 11.847656 61.90625 12.679688 60.875 13.507812 59.847656 C 13.9375 59.316406 14.417969 58.835938 14.890625 58.355469 C 15.460938 57.769531 16.027344 57.175781 16.632812 56.640625 C 17.457031 55.902344 18.300781 55.191406 19.167969 54.515625 C 20.296875 53.628906 21.507812 52.878906 22.753906 52.203125 C 24.070312 51.484375 25.425781 50.890625 26.820312 50.398438 C 28.402344 49.84375 30.023438 49.484375 31.660156 49.238281 C 32.472656 49.117188 33.296875 49.050781 34.117188 49.019531 C 34.886719 48.992188 35.660156 49.027344 36.433594 49.070312 C 37.238281 49.117188 38.039062 49.191406 38.839844 49.289062 C 39.523438 49.371094 40.210938 49.46875 40.882812 49.625 C 41.734375 49.820312 42.574219 50.078125 43.414062 50.316406 C 45.160156 50.8125 46.835938 51.535156 48.457031 52.398438 C 49.371094 52.882812 50.257812 53.441406 51.160156 53.972656 C 51.144531 53.917969 51.136719 53.835938 51.097656 53.777344 C 50.679688 53.179688 50.277344 52.5625 49.828125 51.992188 C 49.429688 51.484375 49 51 48.542969 50.558594 C 47.90625 49.941406 47.253906 49.347656 46.574219 48.792969 C 45.375 47.8125 44.078125 47.015625 42.695312 46.40625 C 41.644531 45.941406 40.578125 45.503906 39.492188 45.15625 C 37.722656 44.585938 35.898438 44.277344 34.0625 44.113281 C 33.199219 44.035156 32.332031 44.023438 31.464844 44 C 31.09375 43.992188 30.71875 44.027344 30.347656 44.050781 C 29.773438 44.085938 29.199219 44.09375 28.628906 44.167969 C 27.835938 44.265625 27.035156 44.371094 26.253906 44.550781 C 25.136719 44.800781 24.023438 45.078125 22.925781 45.417969 C 21.417969 45.882812 19.980469 46.550781 18.621094 47.417969 C 18.59375 47.433594 18.546875 47.414062 18.476562 47.410156 C 18.519531 47.304688 18.546875 47.222656 18.585938 47.148438 C 18.917969 46.476562 19.25 45.804688 19.582031 45.132812 C 20.207031 43.851562 20.832031 42.5625 21.460938 41.277344 C 22.058594 40.050781 22.660156 38.820312 23.257812 37.589844 C 23.980469 36.109375 24.707031 34.628906 25.425781 33.148438 C 25.945312 32.09375 26.457031 31.035156 26.972656 29.976562 C 27.679688 28.527344 28.390625 27.082031 29.097656 25.632812 C 29.710938 24.371094 30.324219 23.109375 30.941406 21.847656 C 31.664062 20.359375 32.394531 18.871094 33.121094 17.382812 C 33.585938 16.425781 34.042969 15.46875 34.511719 14.511719 C 34.671875 14.179688 34.839844 13.851562 35.03125 13.476562 C 35.527344 14.476562 36 15.425781 36.472656 16.375 C 36.835938 17.109375 37.195312 17.84375 37.5625 18.574219 C 38.160156 19.765625 38.761719 20.953125 39.355469 22.140625 C 39.804688 23.039062 40.242188 23.9375 40.691406 24.835938 C 41.21875 25.894531 41.761719 26.945312 42.289062 28.003906 C 42.738281 28.90625 43.175781 29.816406 43.625 30.722656 C 44.175781 31.828125 44.730469 32.933594 45.285156 34.039062 C 45.691406 34.855469 46.097656 35.675781 46.507812 36.492188 C 47.113281 37.695312 47.722656 38.898438 48.328125 40.105469 C 48.921875 41.296875 49.515625 42.488281 50.109375 43.679688 C 50.464844 44.398438 50.8125 45.121094 51.171875 45.835938 C 51.785156 47.058594 52.402344 48.277344 53.011719 49.496094 C 53.445312 50.363281 53.867188 51.230469 54.300781 52.09375 C 54.847656 53.195312 55.402344 54.289062 55.949219 55.386719 C 56.382812 56.25 56.804688 57.121094 57.238281 57.984375 C 57.785156 59.082031 58.339844 60.175781 58.886719 61.273438 C 59.316406 62.136719 59.742188 63.007812 60.171875 63.871094 C 60.722656 64.976562 61.277344 66.082031 61.832031 67.1875 C 62.179688 67.878906 62.542969 68.5625 62.882812 69.257812 C 63.007812 69.511719 63.09375 69.789062 63.195312 70.054688 Z M 63.195312 70.054688 " style=" stroke:none;fill-rule:nonzero;fill:rgb(100%,100%,100%);fill-opacity:1;"/><path d="M 63.21875 70.054688 C 63.09375 69.789062 63.007812 69.511719 62.882812 69.257812 C 62.542969 68.5625 62.179688 67.878906 61.832031 67.1875 C 61.277344 66.082031 60.722656 64.976562 60.171875 63.871094 C 59.742188 63.007812 59.316406 62.136719 58.886719 61.273438 C 58.339844 60.175781 57.785156 59.082031 57.238281 57.984375 C 56.804688 57.121094 56.382812 56.25 55.949219 55.386719 C 55.402344 54.289062 54.847656 53.195312 54.300781 52.09375 C 53.867188 51.230469 53.445312 50.363281 53.011719 49.496094 C 52.402344 48.277344 51.785156 47.058594 51.171875 45.835938 C 50.8125 45.121094 50.464844 44.398438 50.109375 43.679688 C 49.515625 42.488281 48.921875 41.296875 48.328125 40.105469 C 47.722656 38.898438 47.113281 37.695312 46.507812 36.492188 C 46.097656 35.675781 45.691406 34.855469 45.285156 34.039062 C 44.730469 32.933594 44.175781 31.828125 43.625 30.722656 C 43.175781 29.816406 42.738281 28.90625 42.289062 28.003906 C 41.761719 26.945312 41.21875 25.894531 40.691406 24.835938 C 40.242188 23.9375 39.804688 23.039062 39.355469 22.140625 C 38.761719 20.953125 38.160156 19.765625 37.5625 18.574219 C 37.195312 17.84375 36.835938 17.109375 36.472656 16.375 C 36 15.425781 35.527344 14.476562 35.03125 13.476562 C 34.839844 13.851562 34.671875 14.179688 34.511719 14.511719 C 34.042969 15.46875 33.585938 16.425781 33.121094 17.382812 C 32.394531 18.871094 31.664062 20.359375 30.941406 21.847656 C 30.324219 23.109375 29.710938 24.371094 29.097656 25.632812 C 28.390625 27.082031 27.679688 28.527344 26.972656 29.976562 C 26.457031 31.035156 25.945312 32.09375 25.425781 33.148438 C 24.707031 34.628906 23.980469 36.109375 23.257812 37.589844 C 22.660156 38.820312 22.058594 40.050781 21.460938 41.277344 C 20.832031 42.5625 20.207031 43.851562 19.582031 45.132812 C 19.25 45.804688 18.917969 46.476562 18.585938 47.148438 C 18.546875 47.222656 18.519531 47.304688 18.476562 47.410156 C 18.546875 47.414062 18.59375 47.433594 18.621094 47.417969 C 19.980469 46.550781 21.417969 45.882812 22.925781 45.417969 C 24.023438 45.078125 25.136719 44.800781 26.253906 44.550781 C 27.035156 44.371094 27.835938 44.265625 28.628906 44.167969 C 29.199219 44.09375 29.773438 44.085938 30.347656 44.050781 C 30.71875 44.027344 31.09375 43.992188 31.464844 44 C 32.332031 44.023438 33.199219 44.035156 34.0625 44.113281 C 35.898438 44.277344 37.722656 44.585938 39.492188 45.15625 C 40.578125 45.503906 41.644531 45.941406 42.695312 46.40625 C 44.078125 47.015625 45.375 47.8125 46.574219 48.792969 C 47.253906 49.347656 47.90625 49.941406 48.542969 50.558594 C 49 51 49.429688 51.484375 49.828125 51.992188 C 50.277344 52.5625 50.679688 53.179688 51.097656 53.777344 C 51.136719 53.835938 51.144531 53.917969 51.160156 53.972656 C 50.257812 53.441406 49.371094 52.882812 48.457031 52.398438 C 46.835938 51.535156 45.160156 50.8125 43.414062 50.316406 C 42.574219 50.078125 41.734375 49.820312 40.882812 49.625 C 40.210938 49.46875 39.523438 49.371094 38.839844 49.289062 C 38.039062 49.191406 37.238281 49.117188 36.433594 49.070312 C 35.660156 49.027344 34.886719 48.992188 34.117188 49.019531 C 33.296875 49.050781 32.472656 49.117188 31.660156 49.238281 C 30.023438 49.484375 28.402344 49.84375 26.820312 50.398438 C 25.425781 50.890625 24.070312 51.484375 22.753906 52.203125 C 21.507812 52.878906 20.296875 53.628906 19.167969 54.515625 C 18.300781 55.191406 17.457031 55.902344 16.632812 56.640625 C 16.027344 57.175781 15.460938 57.769531 14.890625 58.355469 C 14.417969 58.835938 13.9375 59.316406 13.507812 59.847656 C 12.679688 60.875 11.847656 61.90625 11.082031 62.988281 C 10.203125 64.234375 9.367188 65.523438 8.558594 66.828125 C 7.921875 67.863281 7.359375 68.953125 6.761719 70.035156 C 4.519531 70.054688 2.285156 70.054688 0.0507812 70.027344 C 0.324219 69.460938 0.605469 68.921875 0.878906 68.378906 C 1.433594 67.277344 1.984375 66.171875 2.535156 65.066406 C 2.984375 64.160156 3.421875 63.25 3.875 62.347656 C 4.484375 61.125 5.105469 59.910156 5.71875 58.6875 C 6.167969 57.78125 6.605469 56.871094 7.054688 55.96875 C 7.667969 54.746094 8.289062 53.527344 8.898438 52.308594 C 9.351562 51.402344 9.785156 50.492188 10.238281 49.585938 C 10.847656 48.367188 11.472656 47.148438 12.082031 45.925781 C 12.535156 45.023438 12.96875 44.113281 13.421875 43.207031 C 14.011719 42.027344 14.617188 40.851562 15.210938 39.667969 C 15.5625 38.96875 15.902344 38.261719 16.253906 37.5625 C 16.800781 36.464844 17.355469 35.367188 17.902344 34.269531 C 18.253906 33.570312 18.59375 32.863281 18.945312 32.164062 C 19.492188 31.066406 20.046875 29.96875 20.59375 28.871094 C 20.945312 28.171875 21.289062 27.464844 21.636719 26.765625 C 22.1875 25.667969 22.738281 24.574219 23.289062 23.476562 C 23.71875 22.609375 24.144531 21.742188 24.574219 20.875 C 25.121094 19.777344 25.675781 18.683594 26.226562 17.585938 C 26.65625 16.722656 27.082031 15.851562 27.511719 14.988281 C 28.058594 13.890625 28.613281 12.796875 29.164062 11.699219 C 29.597656 10.824219 30.023438 9.945312 30.457031 9.074219 C 30.984375 8.023438 31.519531 6.980469 32.046875 5.929688 C 32.410156 5.199219 32.773438 4.460938 33.136719 3.726562 C 33.710938 2.566406 34.289062 1.402344 34.867188 0.242188 C 34.886719 0.199219 34.929688 0.164062 34.992188 0.0898438 C 35.179688 0.445312 35.363281 0.785156 35.535156 1.132812 C 36.152344 2.359375 36.769531 3.589844 37.386719 4.816406 C 37.796875 5.640625 38.207031 6.46875 38.621094 7.292969 C 39.21875 8.484375 39.820312 9.671875 40.414062 10.863281 C 40.835938 11.703125 41.246094 12.546875 41.667969 13.386719 C 42.195312 14.4375 42.730469 15.484375 43.257812 16.535156 C 43.683594 17.390625 44.109375 18.25 44.535156 19.105469 C 45.035156 20.101562 45.542969 21.09375 46.042969 22.085938 C 46.394531 22.789062 46.738281 23.492188 47.089844 24.191406 C 47.683594 25.382812 48.285156 26.570312 48.882812 27.761719 C 49.222656 28.4375 49.550781 29.121094 49.890625 29.796875 C 50.417969 30.847656 50.949219 31.890625 51.480469 32.941406 C 51.894531 33.765625 52.304688 34.59375 52.71875 35.417969 C 53.316406 36.613281 53.921875 37.808594 54.523438 39.007812 C 54.867188 39.691406 55.203125 40.382812 55.546875 41.066406 C 56.148438 42.273438 56.761719 43.476562 57.363281 44.679688 C 57.796875 45.554688 58.222656 46.433594 58.660156 47.304688 C 59.316406 48.609375 59.984375 49.910156 60.636719 51.214844 C 61.089844 52.117188 61.527344 53.03125 61.976562 53.933594 C 62.515625 55.019531 63.058594 56.097656 63.605469 57.175781 C 64.183594 58.320312 64.765625 59.457031 65.339844 60.597656 C 65.703125 61.320312 66.054688 62.050781 66.417969 62.773438 C 66.917969 63.769531 67.425781 64.761719 67.921875 65.757812 C 68.273438 66.457031 68.621094 67.160156 68.96875 67.863281 C 69.316406 68.554688 69.667969 69.242188 70.03125 69.941406 C 70.03125 69.980469 70.023438 70.042969 70 70.050781 C 69.945312 70.066406 69.886719 70.054688 69.828125 70.054688 C 67.632812 70.054688 65.4375 70.054688 63.21875 70.054688 Z M 63.21875 70.054688 " style=" stroke:none;fill-rule:nonzero;fill:rgb(7.058824%,82.745099%,84.705883%);fill-opacity:1;"/></g></svg>