<svg xmlns="http://www.w3.org/2000/svg" id="Layer_1" width="70" height="70" viewBox="0 0 810 810"><defs><style>.cls-1
    {fill:#fed300;}.cls-1,.cls-2{fill-rule:evenodd;}.cls-2{fill:#4d4d4f;}</style></defs><g id="Camada_1"><path d="M129.67,301.27c-21.27,0-32.32,1.57-51.76,6.42-1.59.4-1.24.1-2.29,1,26.39,0,53.44,13.05,75,26.89,1.35.87,2.36,1.63,3.71,2.48,2.6,1.62,4.74,2.95,7.27,4.7,16.59,11.5,32.75,23.59,49,35.59l14,9.9a202,202,0,0,0,21.93,14c1.29.72,2.42,1.35,3.66,2.11a175,175,0,0,0,47.37,19.47c33.92,8.54,81.44,3.59,111.89-4,18.51-4.64,46.91-14.35,63.86-22.79,1.08-.53,2-.8,3.17-1.36s2-1.08,3.32-1.64c4.7-2,8.55-4.09,13.05-6.34s8.6-4.14,12.93-6.46c1.22-.67,1.57-1,2.88-1.66s2.07-1,3.3-1.65c27-14.54,53.27-30.39,80-45.37,6.27-3.51,12.54-6.57,18.62-10.27,5.7-3.47,26.9-14.21,31.85-16.41,19.23-8.55,34.64-15.75,54.71-22.45,10-3.33,19.27-6.06,30-8.75,10.47-2.62,20.78-4.49,32.19-6.18a274.8,274.8,0,0,1,31.19-2.64c2.11-.06,2.27-.42,4.53-.42-2.18-1.89-6.6-3.51-9.21-4.82a191.7,191.7,0,0,0-53.56-17c-28.86-4.8-55.71-2.76-83.79,4.39-18.46,4.7-39.75,14-56.57,23.06-8.63,4.65-17.23,9.26-25.52,14.49-19,12-37.47,24.64-56.12,37.13l-11.71,8.09c-1.49,1-2.49,1.81-3.88,2.72-5.37,3.56-10.35,7.34-15.84,11l-35.4,24.42-4,2.64L415,387.32c-18.61,11.2-44.14,23.63-66.7,26.14-2,.22-3.83.39-5.91.69-2.29.33-4.55,0-6.79.23-10.56,1.24-24-1.81-33.83-5.07-23-7.62-37.64-20.45-55.52-34.42a13,13,0,0,1-1.78-1.52c-1.31-1.3-2.2-1.8-3.5-3.1l-8.67-7.84c-.89-.82-1.18-.87-2.06-1.65l-41.46-38.16c-8.6-8.38-23.94-16-35.28-18.36a115.22,115.22,0,0,0-23.83-3Z" class="cls-1"/><path d="M305,401.11l12,2a114.22,114.22,0,0,0,40.57-2.27,134,134,0,0,0,22.76-7.36c12-4.76,36.3-20.42,46.8-27.88,2.88-2.05,5.83-4,8.73-6.12l60.58-44.62C512,303.19,533.23,288.62,550,278.5l19.19-10.92c7-3.45,11.65-6.13,19.8-9.91a310.85,310.85,0,0,1,44.16-16.08l8.85-2.28c1.65-.36,2.1,0,3-1.16a70.43,70.43,0,0,1-7-.83c-40-4.48-82.21.2-119.3,15.21A262.87,262.87,0,0,0,489,266.21,192.6,192.6,0,0,0,471,277c-11.85,7.91-16.74,12.08-26.61,20.42-.9.77-1.13.8-2,1.68l-55.08,49.71c-.88.78-1.16.82-2.06,1.65-17.11,15.9-48.56,37-70,45.93-1.93.81-9.31,3.58-10.14,4.71Z" class="cls-1"/><path d="M24.88,330.56c17.47,0,36.46,4.49,52.28,10.85,2.67,1.07,5.16,2.13,7.6,3.12,8.73,3.57,19.61,9.74,27.85,14.23,7.35,4,16,9.82,23,14.13l28.87,18.57C191.93,409.91,231.13,430,263.76,430a107.42,107.42,0,0,0,14.33-.53c2.47-.31,6.08-1.13,8.77-1.13v-.82c-5.36,0-24.71-7.09-30.93-9.91-18.23-8.25-34.73-19.15-50.64-31.05-4-3-7.83-5.45-11.79-8.43s-7.87-5.61-12-8.61c-16.81-12.16-43.85-31.42-61.57-40.33-13.32-6.69-32.68-13.07-48.82-13.07-17.54,0-18.26,1.18-32.84,7.19-1.83.76-12.61,6.21-13.37,7.25Z" class="cls-1"/><path d="M351.64,582.24c6.87,0,13.76,0,20.63,0,7.33,0,10.6-2.6,13.85-6.78l6.95-8.31c.84-1.07,1.55-1.89,2.43-2.94l4.73-5.58c9.59-11,18.94-22.9,28.47-33.83l7-8.27c1.92-2.06,5.64-7.29,7.53-8.56,0,22.61.36,48,0,70.57-.08,4.86-1.73,3.7,15.28,3.7a13,13,0,0,0,10.5-5.6c4-5.87,1.85-14.48,1.88-22a55.47,55.47,0,0,0-.17-8.07l-.64-23.71c0-2.79-.43-4.58-.43-7.82,0-5.89-.42-10.24-.41-16.1,0-4.11-.09-11.79-2.17-14.33-5.37-6.55-21.24-5.41-28.48-2.29a21.33,21.33,0,0,0-7.21,5.17c-1.24,1.24-1.73,2-2.88,3.31L420,500.83c-11.69,13.9-25.51,29.77-36.95,43.92-.53.66-.83.86-1.39,1.5-.71.79-.76,1-1.46,1.83L363.07,568.5c-2,2.31-3.83,4.33-5.71,6.66s-4,4.48-5.72,7.08Z" class="cls-2"/><path d="M497.69,513.34c0,27.93,47.86,25.29,47.86,36.71,0,9.18-15.63,13.21-24.76,13.21-15.28,0-18.52-6.6-26-6.6-5.34,0-7.58-.17-12.36,2.9-1.41.91-5.78,4.1-6.62,5.35,3.83,7.23,13,12.81,20.58,15.32,9.67,3.2,15.7,3.24,25.57,3.24h.47c39.35,0,62.78-33.38,43.64-51.06-3.75-3.46-8.43-5.51-13.51-7.53-6.43-2.55-28.06-7.82-28.06-14,0-5.47,3.26-7.8,8.38-10.18,6.51-3,16.86-3.27,24.13-1.29s4,2.39,12.87,2.39c3.8,0,8.1-2.09,10.32-3.7l7.42-6.61c-2-3.05-11.48-8-15.73-9.44-18.25-6.1-42.2-5-57.63,5C505.08,493,497.69,501.1,497.69,513.34Z" class="cls-2"/><path d="M594.23,512.51c0,13.14,8.19,18.71,19.81,23.93,6.65,3,22.7,6.82,26,9.87,9.14,8.38-14.44,23-37.11,14.42-7.93-3-4.59-4.07-15.73-4.07-6.78,0-10.76,5.45-15.27,7.83,6.69,12.64,25.78,19,40,19,10.83,0,18.53-.15,28.65-3.94,12.26-4.6,23.18-11.9,27.32-24.67,3.55-11-.77-20.1-10.09-25.93a53.19,53.19,0,0,0-8.74-4c-3-1.2-6.23-2.27-9.44-3.35-7.52-2.52-20.45-5.25-18.63-13.12,2.1-9,20.58-12.24,32.53-9,6.75,1.82,3.48,2.4,12.86,2.4,4,0,7.76-2.09,10.24-3.78a34.62,34.62,0,0,0,3.9-3.12c.81-.78,3.2-2.86,3.6-3.41-1.89-2.82-11.93-8.19-16-9.55-30.92-10.2-73.91,2.2-73.91,30.59Z" class="cls-2"/><path d="M318.22,529.84l8.41-27.49c.82-2.55.45-3.45,1.9-3.45H350.4c22.72,0,13.44,23.06-.58,28.71-8,3.24-20.66,2.23-31.6,2.23Zm-40.43,52.4h15.67c11,0,12.29-11.11,15.32-21,.87-2.85,8-25.92,8.2-28.52l1.08,3a13.55,13.55,0,0,0,5.68,7.11c9.95,6.6,26.94,3.92,37.21,0,15.76-6,28.23-20.51,28.23-38.2,0-15.95-16.57-24.75-31.77-24.75H317c-4.28,0-9,3.75-10.47,6.85l-20.71,68c-.77,2.69-8,25.5-8,27.47Z" class="cls-2"/><path d="M296.76,392.86c5.24-.43,25.51-9.95,31.44-13.53,1.2-.72,2.1-1.32,3.36-2,8.77-4.75,30.37-21.22,38.34-28.91a26.76,26.76,0,0,1,3-2.76l23.17-22.22c1.2-1.21,1.93-1.54,3.1-2.67s1.83-1.84,2.88-2.89l26.2-24.14c6.3-6,21.84-17.13,29.15-22a211.29,211.29,0,0,1,21.43-12.4c5.21-2.61,10.19-4.94,15.6-7.1L510.89,246c-26.85,0-46.71,6.32-69.39,20.54a224.06,224.06,0,0,0-25.79,19.19l-8.88,8c-1.18,1.16-1.94,1.5-3.11,2.67l-44.48,45.87c-4.65,6-11.54,11.38-17,16.85C337.4,364,323.12,374.5,317,378.83c-2.31,1.63-4.37,3.06-6.85,4.71l-12.45,8.59c-.51.38-.53.4-.92.73Z" class="cls-1"/><path d="M135.45,576.05c-12.53,0-24-4.22-29.44-15.13s-2.28-26.11,2-36.27c6-14.36,19.22-27.8,33.3-33.54,13.52-5.52,34.33-7.2,45.43,4a23.83,23.83,0,0,1,5.74,8.29c3.32,8.3,2.75,16.42.6,25.07a63.77,63.77,0,0,1-44.16,45.79,61.69,61.69,0,0,1-13.44,1.82ZM96.25,548c0,15.19,7.13,25.8,21,31,13.65,5.06,33,2.07,45.39-4.13A61.11,61.11,0,0,0,173,568.62c8.78-6.6,17.82-17.21,22-27.47.88-2.12,1.66-3.48,2.46-5.79,4.08-11.7,5.87-23.21,1-35.18a29.49,29.49,0,0,0-3.18-5.48,30.73,30.73,0,0,0-15.28-11.13c-22.61-7.5-48.3,2.71-63.28,17.7a68.36,68.36,0,0,0-13.93,19.49A64.83,64.83,0,0,0,96.25,548Z" class="cls-2"/><path d="M194.86,580.17h64.77a28.71,28.71,0,0,0,1.65-5.77H203.11a29.61,29.61,0,0,1,1.39-5.21l7.74-25.68c.48-1.53,1.06-3.54,1.55-5.06a40.32,40.32,0,0,1,1.7-5.31H270a39.36,39.36,0,0,0,1.65-5.78H217.14c2.22-9.55,9.73-30,12-39.6h59.41a35.12,35.12,0,0,0,1.65-5.37H229.92c-4.89,0-5.93,1-7.17,4.8l-27.89,93Z" class="cls-2"/><path d="M28.59,578.11c0,3.15,2.9,3.3,4.95,3.3,5.11,0,8-5.71,12.09-10.6l71.66-88.42c-9.56,0-6.24-1.41-13.71,7.75l-46,56.74c-6.46,8-15.69,19.85-22,27.1v-68.9c0-8,.42-14.62.42-22.69H28.59v95.72Z" class="cls-2"/></g></svg>