<svg xmlns="http://www.w3.org/2000/svg" id="Layer_1" width="70" height="70" x="0" y="0" version="1.1" viewBox="0 0 70 70" xml:space="preserve" style="enable-background:new 0 0 70 70"><style type="text/css">.st0{fill:#0d9848}.st1{fill:#6d6e70}.st2{fill:none;stroke:#6d6e70;stroke-linecap:round;stroke-miterlimit:10}</style><g><path d="M5.9,36.6H3.6L3,37.9H1.8L5,32.2h1.3l0.9,5.6H6.1L5.9,36.6z M5.7,35.7l-0.3-2.3L4,35.7H5.7z" class="st0"/><path d="M8.6,33.8h1.1l-0.9,4.1H7.8L8.6,33.8z M9,32.2h1.1l-0.2,1H8.8L9,32.2z" class="st0"/><path d="M10.8,33.8h1l-0.2,0.8c0.4-0.6,0.8-0.9,1.2-0.9c0.2,0,0.3,0,0.5,0.1L13,34.7c-0.1,0-0.2-0.1-0.3-0.1 c-0.2,0-0.4,0.1-0.6,0.2c-0.2,0.1-0.3,0.3-0.5,0.6c-0.1,0.2-0.2,0.6-0.3,1.1L11,37.9H9.9L10.8,33.8z" class="st0"/><path d="M19.3,35.8l1.2,0.2c-0.2,0.6-0.6,1.1-1,1.4c-0.5,0.3-1,0.5-1.6,0.5c-0.7,0-1.2-0.2-1.6-0.6 c-0.4-0.4-0.6-1-0.6-1.8c0-0.6,0.1-1.2,0.4-1.8c0.3-0.5,0.6-0.9,1.1-1.2s1-0.4,1.5-0.4c0.6,0,1.1,0.2,1.5,0.5 c0.4,0.3,0.6,0.8,0.7,1.3l-1.1,0.1c-0.1-0.3-0.2-0.6-0.4-0.7c-0.2-0.1-0.4-0.2-0.7-0.2c-0.3,0-0.6,0.1-0.9,0.3 c-0.3,0.2-0.5,0.5-0.7,0.9c-0.2,0.4-0.2,0.8-0.2,1.2c0,0.4,0.1,0.8,0.3,1c0.2,0.2,0.5,0.4,0.8,0.4c0.3,0,0.6-0.1,0.8-0.3 C19,36.5,19.2,36.2,19.3,35.8z" class="st0"/><path d="M21.9,37.9h-1.1l1.2-5.6H23l-0.4,2c0.2-0.2,0.5-0.3,0.7-0.4c0.2-0.1,0.4-0.1,0.7-0.1c0.3,0,0.6,0.1,0.8,0.3 c0.2,0.2,0.3,0.4,0.3,0.7c0,0.2,0,0.4-0.1,0.8l-0.5,2.4h-1.1l0.5-2.4c0.1-0.3,0.1-0.4,0.1-0.5c0-0.1,0-0.2-0.1-0.3 c-0.1-0.1-0.2-0.1-0.3-0.1c-0.2,0-0.4,0.1-0.5,0.2c-0.2,0.2-0.4,0.4-0.5,0.6c-0.1,0.1-0.1,0.5-0.3,1L21.9,37.9z" class="st0"/><path d="M26.9,34.9l-1.1-0.1c0.1-0.4,0.3-0.6,0.6-0.9c0.3-0.2,0.7-0.3,1.2-0.3c0.5,0,0.9,0.1,1.2,0.3 c0.3,0.2,0.4,0.5,0.4,0.8c0,0.1,0,0.3,0,0.4c0,0.1-0.1,0.5-0.2,1.1c-0.1,0.5-0.2,0.8-0.2,1c0,0.2,0,0.4,0.1,0.6h-1.1 c0-0.1-0.1-0.3-0.1-0.5c-0.2,0.2-0.3,0.3-0.6,0.4C27,37.9,26.8,38,26.5,38c-0.3,0-0.6-0.1-0.8-0.3c-0.2-0.2-0.3-0.5-0.3-0.9 c0-0.4,0.1-0.7,0.4-0.9c0.2-0.2,0.7-0.4,1.3-0.4c0.5,0,0.9-0.1,1-0.2c0-0.2,0.1-0.3,0.1-0.4c0-0.1,0-0.2-0.1-0.3 c-0.1-0.1-0.2-0.1-0.4-0.1c-0.2,0-0.4,0-0.5,0.1C27,34.7,26.9,34.8,26.9,34.9z M27.9,36c-0.1,0-0.2,0-0.3,0 c-0.6,0.1-0.9,0.2-1.1,0.3c-0.1,0.1-0.2,0.2-0.2,0.4c0,0.1,0,0.2,0.1,0.3c0.1,0.1,0.2,0.1,0.4,0.1c0.2,0,0.3,0,0.5-0.1 c0.1-0.1,0.3-0.2,0.3-0.3c0.1-0.1,0.1-0.3,0.2-0.6L27.9,36z" class="st0"/><path d="M29.8,34.6l0.2-0.8h0.5l0.1-0.7l1.3-0.8l-0.3,1.4h0.7l-0.2,0.8h-0.7L31,36.3C31,36.6,31,36.8,31,36.8 c0,0.1,0,0.2,0.1,0.2c0.1,0,0.2,0.1,0.3,0.1c0,0,0.2,0,0.4,0l-0.2,0.8c-0.2,0-0.4,0.1-0.6,0.1c-0.4,0-0.7-0.1-0.8-0.2 c-0.2-0.1-0.3-0.4-0.3-0.6c0-0.1,0-0.4,0.1-0.9l0.3-1.6H29.8z" class="st0"/><path d="M33.1,37.9H32l1.2-5.6h1.1l-0.4,2c0.2-0.2,0.5-0.3,0.7-0.4c0.2-0.1,0.4-0.1,0.7-0.1c0.3,0,0.6,0.1,0.8,0.3 c0.2,0.2,0.3,0.4,0.3,0.7c0,0.2,0,0.4-0.1,0.8l-0.5,2.4h-1.1l0.5-2.4c0.1-0.3,0.1-0.4,0.1-0.5c0-0.1,0-0.2-0.1-0.3 c-0.1-0.1-0.2-0.1-0.3-0.1c-0.2,0-0.4,0.1-0.5,0.2c-0.2,0.2-0.4,0.4-0.5,0.6c-0.1,0.1-0.1,0.5-0.3,1L33.1,37.9z" class="st0"/><path d="M38.1,34.9L37,34.8c0.1-0.4,0.3-0.6,0.6-0.9c0.3-0.2,0.7-0.3,1.2-0.3c0.5,0,0.9,0.1,1.2,0.3 c0.3,0.2,0.4,0.5,0.4,0.8c0,0.1,0,0.3,0,0.4c0,0.1-0.1,0.5-0.2,1.1c-0.1,0.5-0.2,0.8-0.2,1c0,0.2,0,0.4,0.1,0.6H39 c0-0.1-0.1-0.3-0.1-0.5c-0.2,0.2-0.3,0.3-0.6,0.4C38.2,37.9,38,38,37.8,38c-0.3,0-0.6-0.1-0.8-0.3c-0.2-0.2-0.3-0.5-0.3-0.9 c0-0.4,0.1-0.7,0.4-0.9c0.2-0.2,0.7-0.4,1.3-0.4c0.5,0,0.9-0.1,1-0.2c0-0.2,0.1-0.3,0.1-0.4c0-0.1,0-0.2-0.1-0.3 c-0.1-0.1-0.2-0.1-0.4-0.1c-0.2,0-0.4,0-0.5,0.1C38.2,34.7,38.2,34.8,38.1,34.9z M39.2,36c-0.1,0-0.2,0-0.3,0 c-0.6,0.1-0.9,0.2-1.1,0.3c-0.1,0.1-0.2,0.2-0.2,0.4c0,0.1,0,0.2,0.1,0.3c0.1,0.1,0.2,0.1,0.4,0.1c0.2,0,0.3,0,0.5-0.1 c0.1-0.1,0.3-0.2,0.3-0.3c0.1-0.1,0.1-0.3,0.2-0.6L39.2,36z" class="st0"/><path d="M41.6,33.8h1l-0.1,0.5c0.4-0.4,0.8-0.6,1.3-0.6c0.3,0,0.5,0.1,0.7,0.2c0.2,0.1,0.3,0.3,0.3,0.5 c0.1-0.2,0.3-0.4,0.6-0.5c0.3-0.1,0.5-0.2,0.8-0.2c0.3,0,0.6,0.1,0.8,0.3c0.2,0.2,0.3,0.4,0.3,0.7c0,0.1,0,0.4-0.1,0.7l-0.5,2.5 h-1.1l0.5-2.5c0.1-0.3,0.1-0.5,0.1-0.5c0-0.1,0-0.2-0.1-0.3c-0.1-0.1-0.2-0.1-0.3-0.1c-0.3,0-0.5,0.1-0.7,0.4 c-0.2,0.2-0.3,0.6-0.4,1.1l-0.4,1.8h-1.1l0.5-2.5c0.1-0.3,0.1-0.5,0.1-0.6c0-0.1,0-0.2-0.1-0.3c-0.1-0.1-0.2-0.1-0.3-0.1 c-0.1,0-0.2,0-0.4,0.1c-0.1,0.1-0.2,0.2-0.3,0.3c-0.1,0.1-0.2,0.3-0.2,0.5c0,0.1-0.1,0.3-0.1,0.6l-0.4,1.9h-1.1L41.6,33.8z" class="st0"/><path d="M47.4,36.7l1.1-0.2c0.1,0.2,0.2,0.4,0.4,0.5c0.1,0.1,0.3,0.1,0.6,0.1c0.3,0,0.5-0.1,0.6-0.2 c0.1-0.1,0.2-0.2,0.2-0.3c0-0.1,0-0.1-0.1-0.2c-0.1-0.1-0.2-0.1-0.5-0.2c-0.7-0.2-1.1-0.4-1.2-0.5C48.1,35.6,48,35.3,48,35 c0-0.3,0.1-0.6,0.4-0.8c0.3-0.3,0.8-0.5,1.5-0.5c0.5,0,0.9,0.1,1.2,0.3c0.3,0.2,0.4,0.5,0.5,0.8l-1,0.2c-0.1-0.1-0.1-0.3-0.3-0.3 c-0.2-0.1-0.4-0.1-0.6-0.1c-0.2,0-0.4,0-0.5,0.1c-0.1,0.1-0.2,0.2-0.2,0.3c0,0.1,0.1,0.2,0.2,0.3c0.1,0,0.3,0.1,0.6,0.2 c0.5,0.2,0.9,0.3,1.1,0.5c0.3,0.2,0.4,0.5,0.4,0.8c0,0.4-0.2,0.7-0.5,1C50.4,37.8,50,38,49.4,38c-0.6,0-1-0.1-1.4-0.3 C47.7,37.4,47.5,37.1,47.4,36.7z" class="st0"/></g><g><path d="M63.2,37.4v-0.3h-0.6v-0.3l0.6-1h0.2v0.9h0.2v0.3h-0.2v0.3H63.2z M63.2,36.8v-0.5l-0.3,0.5H63.2z" class="st1"/><path d="M64.4,37.4v-0.3h-0.6v-0.3l0.6-1h0.2v0.9h0.2v0.3h-0.2v0.3H64.4z M64.4,36.8v-0.5l-0.3,0.5H64.4z" class="st1"/><path d="M65,36.2c0-0.1,0-0.2,0.1-0.2c0.1-0.1,0.1-0.1,0.2-0.1c0.1,0,0.2,0,0.2,0.1c0.1,0.1,0.1,0.1,0.1,0.2 c0,0.1,0,0.2-0.1,0.2s-0.1,0.1-0.2,0.1c-0.1,0-0.2,0-0.2-0.1C65,36.3,65,36.3,65,36.2z M65.2,36.2c0,0,0,0.1,0,0.1s0.1,0,0.1,0 c0,0,0.1,0,0.1,0s0-0.1,0-0.1c0,0,0-0.1,0-0.1s-0.1,0-0.1,0c0,0-0.1,0-0.1,0S65.2,36.1,65.2,36.2z" class="st1"/><path d="M65.8,36.9l0.3,0c0,0.1,0.1,0.2,0.1,0.2c0.1,0,0.1,0.1,0.2,0.1c0.1,0,0.2,0,0.2-0.1c0,0,0.1-0.1,0.1-0.1 c0,0,0-0.1,0-0.1c0,0-0.1,0-0.1-0.1c0,0-0.1,0-0.2-0.1c-0.2,0-0.3-0.1-0.3-0.1c-0.1-0.1-0.1-0.2-0.1-0.3c0-0.1,0-0.1,0.1-0.2 c0-0.1,0.1-0.1,0.2-0.2c0.1,0,0.2-0.1,0.3-0.1c0.2,0,0.3,0,0.4,0.1C67,36,67,36.2,67,36.3l-0.3,0c0-0.1,0-0.1-0.1-0.2 c0,0-0.1-0.1-0.2-0.1c-0.1,0-0.2,0-0.2,0.1c0,0,0,0.1,0,0.1c0,0,0,0.1,0,0.1c0,0,0.1,0.1,0.3,0.1c0.1,0,0.3,0.1,0.3,0.1 c0.1,0,0.1,0.1,0.2,0.2c0,0.1,0.1,0.1,0.1,0.2c0,0.1,0,0.2-0.1,0.2c0,0.1-0.1,0.1-0.2,0.2c-0.1,0-0.2,0.1-0.3,0.1 c-0.2,0-0.3,0-0.4-0.1C65.9,37.2,65.9,37,65.8,36.9z" class="st1"/></g><g><path d="M2.2,41l-0.3-1.1h0.3l0.2,0.7l0.2-0.7h0.3L3,40.6l0.2-0.7h0.3L3.2,41H2.9l-0.2-0.7L2.5,41H2.2z" class="st1"/><path d="M3.9,41l-0.3-1.1h0.3l0.2,0.7l0.2-0.7h0.3l0.2,0.7l0.2-0.7h0.3L4.9,41H4.6l-0.2-0.7L4.2,41H3.9z" class="st1"/><path d="M5.7,41l-0.3-1.1h0.3l0.2,0.7L6,39.9h0.3l0.2,0.7l0.2-0.7h0.3L6.6,41H6.3l-0.2-0.7L5.9,41H5.7z" class="st1"/><path d="M7,41v-0.3h0.3V41H7z" class="st1"/><path d="M7.9,40.3l-0.3,0c0-0.1,0.1-0.2,0.2-0.2c0.1-0.1,0.2-0.1,0.3-0.1c0.1,0,0.2,0,0.3,0c0.1,0,0.1,0.1,0.1,0.1 c0,0,0,0.1,0,0.3l0,0.3c0,0.1,0,0.2,0,0.2c0,0,0,0.1,0.1,0.1H8.3c0,0,0,0,0-0.1c0,0,0,0,0,0c0,0-0.1,0.1-0.2,0.1 c-0.1,0-0.1,0-0.2,0c-0.1,0-0.2,0-0.3-0.1c-0.1-0.1-0.1-0.1-0.1-0.2c0-0.1,0-0.1,0-0.2c0,0,0.1-0.1,0.1-0.1c0.1,0,0.1,0,0.2-0.1 c0.1,0,0.2,0,0.3-0.1v0c0-0.1,0-0.1,0-0.1c0,0-0.1,0-0.2,0c-0.1,0-0.1,0-0.1,0C7.9,40.2,7.9,40.2,7.9,40.3z M8.2,40.5 c0,0-0.1,0-0.2,0c-0.1,0-0.1,0-0.2,0.1c0,0-0.1,0.1-0.1,0.1c0,0,0,0.1,0,0.1c0,0,0.1,0,0.1,0c0.1,0,0.1,0,0.1-0.1 c0,0,0.1-0.1,0.1-0.1C8.2,40.7,8.2,40.6,8.2,40.5L8.2,40.5z" class="st1"/><path d="M8.8,39.8v-0.3h0.3v0.3H8.8z M8.8,41v-1.1h0.3V41H8.8z" class="st1"/><path d="M9.7,41H9.4v-1.1h0.3v0.2c0-0.1,0.1-0.1,0.1-0.1c0,0,0.1,0,0.1,0c0.1,0,0.1,0,0.2,0.1L10,40.2c0,0-0.1,0-0.1,0 c0,0-0.1,0-0.1,0c0,0,0,0.1-0.1,0.1c0,0.1,0,0.2,0,0.4V41z" class="st1"/><path d="M11.2,40.2l-0.3,0.1c0-0.1,0-0.1-0.1-0.1c0,0-0.1,0-0.1,0c-0.1,0-0.1,0-0.2,0.1c0,0-0.1,0.1-0.1,0.2 c0,0.1,0,0.2,0.1,0.3c0,0.1,0.1,0.1,0.2,0.1c0.1,0,0.1,0,0.1,0c0,0,0.1-0.1,0.1-0.2l0.3,0c0,0.1-0.1,0.2-0.2,0.3 C11,41,10.8,41,10.7,41c-0.2,0-0.3-0.1-0.4-0.2s-0.1-0.2-0.1-0.4c0-0.2,0-0.3,0.1-0.4c0.1-0.1,0.2-0.1,0.4-0.1c0.1,0,0.2,0,0.3,0.1 C11.1,40,11.2,40.1,11.2,40.2z" class="st1"/><path d="M11.7,39.5v0.6c0.1-0.1,0.2-0.2,0.3-0.2c0.1,0,0.1,0,0.2,0c0.1,0,0.1,0.1,0.1,0.1c0,0,0,0.1,0.1,0.1 c0,0,0,0.1,0,0.2V41h-0.3v-0.6c0-0.1,0-0.2,0-0.2c0,0,0-0.1-0.1-0.1c0,0-0.1,0-0.1,0c0,0-0.1,0-0.1,0c0,0-0.1,0.1-0.1,0.1 c0,0,0,0.1,0,0.2V41h-0.3v-1.5H11.7z" class="st1"/><path d="M12.9,40.3l-0.3,0c0-0.1,0.1-0.2,0.2-0.2c0.1-0.1,0.2-0.1,0.3-0.1c0.1,0,0.2,0,0.3,0c0.1,0,0.1,0.1,0.1,0.1 c0,0,0,0.1,0,0.3l0,0.3c0,0.1,0,0.2,0,0.2c0,0,0,0.1,0.1,0.1h-0.3c0,0,0,0,0-0.1c0,0,0,0,0,0c0,0-0.1,0.1-0.2,0.1 c-0.1,0-0.1,0-0.2,0c-0.1,0-0.2,0-0.3-0.1c-0.1-0.1-0.1-0.1-0.1-0.2c0-0.1,0-0.1,0-0.2c0,0,0.1-0.1,0.1-0.1c0.1,0,0.1,0,0.2-0.1 c0.1,0,0.2,0,0.3-0.1v0c0-0.1,0-0.1,0-0.1c0,0-0.1,0-0.2,0c-0.1,0-0.1,0-0.1,0C13,40.2,13,40.2,12.9,40.3z M13.3,40.5 c0,0-0.1,0-0.2,0c-0.1,0-0.1,0-0.2,0.1c0,0-0.1,0.1-0.1,0.1c0,0,0,0.1,0,0.1c0,0,0.1,0,0.1,0c0.1,0,0.1,0,0.1-0.1 c0,0,0.1-0.1,0.1-0.1C13.3,40.7,13.3,40.6,13.3,40.5L13.3,40.5z" class="st1"/><path d="M14.4,39.9v0.2h-0.2v0.4c0,0.1,0,0.1,0,0.2c0,0,0,0,0,0c0,0,0,0,0,0c0,0,0.1,0,0.1,0l0,0.2c-0.1,0-0.1,0-0.2,0 c-0.1,0-0.1,0-0.1,0c0,0-0.1,0-0.1-0.1c0,0,0-0.1,0-0.1c0,0,0-0.1,0-0.2v-0.5h-0.1v-0.2h0.1v-0.2l0.3-0.2v0.4H14.4z" class="st1"/><path d="M14.9,39.5v0.6c0.1-0.1,0.2-0.2,0.3-0.2c0.1,0,0.1,0,0.2,0c0.1,0,0.1,0.1,0.1,0.1c0,0,0,0.1,0.1,0.1 c0,0,0,0.1,0,0.2V41h-0.3v-0.6c0-0.1,0-0.2,0-0.2s0-0.1-0.1-0.1c0,0-0.1,0-0.1,0c0,0-0.1,0-0.1,0c0,0-0.1,0.1-0.1,0.1 c0,0,0,0.1,0,0.2V41h-0.3v-1.5H14.9z" class="st1"/><path d="M16.1,40.3l-0.3,0c0-0.1,0.1-0.2,0.2-0.2c0.1-0.1,0.2-0.1,0.3-0.1c0.1,0,0.2,0,0.3,0c0.1,0,0.1,0.1,0.1,0.1 c0,0,0,0.1,0,0.3l0,0.3c0,0.1,0,0.2,0,0.2c0,0,0,0.1,0.1,0.1h-0.3c0,0,0,0,0-0.1c0,0,0,0,0,0c0,0-0.1,0.1-0.2,0.1 c-0.1,0-0.1,0-0.2,0c-0.1,0-0.2,0-0.3-0.1c-0.1-0.1-0.1-0.1-0.1-0.2c0-0.1,0-0.1,0-0.2c0,0,0.1-0.1,0.1-0.1c0.1,0,0.1,0,0.2-0.1 c0.1,0,0.2,0,0.3-0.1v0c0-0.1,0-0.1,0-0.1s-0.1,0-0.2,0c-0.1,0-0.1,0-0.1,0C16.2,40.2,16.2,40.2,16.1,40.3z M16.5,40.5 c0,0-0.1,0-0.2,0c-0.1,0-0.1,0-0.2,0.1c0,0-0.1,0.1-0.1,0.1c0,0,0,0.1,0,0.1c0,0,0.1,0,0.1,0c0.1,0,0.1,0,0.1-0.1 c0,0,0.1-0.1,0.1-0.1C16.5,40.7,16.5,40.6,16.5,40.5L16.5,40.5z" class="st1"/><path d="M17.1,39.9h0.3v0.1c0.1-0.1,0.2-0.2,0.3-0.2c0.1,0,0.1,0,0.2,0c0.1,0,0.1,0.1,0.1,0.1c0-0.1,0.1-0.1,0.2-0.1 c0.1,0,0.1,0,0.2,0c0.1,0,0.1,0,0.2,0c0.1,0,0.1,0.1,0.1,0.1c0,0,0,0.1,0,0.2V41h-0.3v-0.6c0-0.1,0-0.2,0-0.2c0,0-0.1-0.1-0.1-0.1 c0,0-0.1,0-0.1,0c0,0-0.1,0.1-0.1,0.1c0,0,0,0.1,0,0.2V41h-0.3v-0.6c0-0.1,0-0.2,0-0.2c0,0,0-0.1,0-0.1c0,0-0.1,0-0.1,0 c0,0-0.1,0-0.1,0c0,0-0.1,0.1-0.1,0.1c0,0,0,0.1,0,0.2V41h-0.3V39.9z" class="st1"/><path d="M18.9,40.7l0.3,0c0,0.1,0,0.1,0.1,0.1c0,0,0.1,0,0.2,0c0.1,0,0.1,0,0.2,0c0,0,0,0,0-0.1c0,0,0,0,0-0.1 c0,0,0,0-0.1,0c-0.2-0.1-0.4-0.1-0.4-0.1c-0.1-0.1-0.1-0.1-0.1-0.2c0-0.1,0-0.2,0.1-0.2c0.1-0.1,0.2-0.1,0.3-0.1 c0.1,0,0.3,0,0.3,0.1c0.1,0,0.1,0.1,0.1,0.2l-0.3,0.1c0,0,0-0.1-0.1-0.1c0,0-0.1,0-0.1,0c-0.1,0-0.1,0-0.2,0c0,0,0,0,0,0.1 c0,0,0,0,0,0.1c0,0,0.1,0,0.3,0.1c0.2,0,0.3,0.1,0.3,0.1c0.1,0.1,0.1,0.1,0.1,0.2c0,0.1,0,0.2-0.1,0.3C19.7,41,19.6,41,19.4,41 c-0.1,0-0.3,0-0.4-0.1C19,40.9,18.9,40.8,18.9,40.7z" class="st1"/><path d="M20.2,41v-0.3h0.3V41H20.2z" class="st1"/><path d="M21.7,40.2l-0.3,0.1c0-0.1,0-0.1-0.1-0.1c0,0-0.1,0-0.1,0c-0.1,0-0.1,0-0.2,0.1c0,0-0.1,0.1-0.1,0.2 c0,0.1,0,0.2,0.1,0.3c0,0.1,0.1,0.1,0.2,0.1c0.1,0,0.1,0,0.1,0c0,0,0.1-0.1,0.1-0.2l0.3,0c0,0.1-0.1,0.2-0.2,0.3 C21.5,41,21.4,41,21.2,41c-0.2,0-0.3-0.1-0.4-0.2s-0.1-0.2-0.1-0.4c0-0.2,0-0.3,0.1-0.4c0.1-0.1,0.2-0.1,0.4-0.1 c0.1,0,0.2,0,0.3,0.1C21.6,40,21.7,40.1,21.7,40.2z" class="st1"/><path d="M21.9,40.4c0-0.1,0-0.2,0.1-0.3c0-0.1,0.1-0.2,0.2-0.2c0.1,0,0.2-0.1,0.3-0.1c0.2,0,0.3,0.1,0.4,0.2 c0.1,0.1,0.2,0.2,0.2,0.4c0,0.2-0.1,0.3-0.2,0.4C22.7,41,22.6,41,22.5,41c-0.1,0-0.2,0-0.3-0.1c-0.1,0-0.2-0.1-0.2-0.2 C21.9,40.7,21.9,40.6,21.9,40.4z M22.2,40.5c0,0.1,0,0.2,0.1,0.2c0.1,0.1,0.1,0.1,0.2,0.1c0.1,0,0.1,0,0.2-0.1 c0.1-0.1,0.1-0.1,0.1-0.2c0-0.1,0-0.2-0.1-0.2c-0.1-0.1-0.1-0.1-0.2-0.1c-0.1,0-0.1,0-0.2,0.1C22.2,40.3,22.2,40.4,22.2,40.5z" class="st1"/><path d="M23.2,41v-0.3h0.3V41H23.2z" class="st1"/><path d="M24.8,41h-0.3v-0.6c0-0.1,0-0.2,0-0.2c0,0,0-0.1-0.1-0.1c0,0-0.1,0-0.1,0c0,0-0.1,0-0.1,0c0,0-0.1,0.1-0.1,0.1 c0,0,0,0.1,0,0.2V41h-0.3v-1.1h0.3v0.2c0.1-0.1,0.2-0.2,0.4-0.2c0.1,0,0.1,0,0.2,0c0.1,0,0.1,0.1,0.1,0.1c0,0,0,0.1,0.1,0.1 c0,0,0,0.1,0,0.2V41z" class="st1"/><path d="M25,41v-0.2l0.4-0.5c0.1-0.1,0.1-0.1,0.1-0.2c0,0-0.1,0-0.1,0l-0.4,0v-0.2H26v0.2l-0.4,0.5l-0.1,0.2 c0.1,0,0.1,0,0.1,0H26V41H25z" class="st1"/></g><line x1="1.9" x2="68.2" y1="38.5" y2="38.5" class="st2"/><g><path d="M60.8,28.7c0.5-0.1,0.5,0.3,1,0.2C62.4,28.1,60.6,27.4,60.8,28.7 M55.1,28.7c0.1,0.2,0.3,0.2,0.4,0.3 c0.1,0.1,0.1,0.3,0.1,0.3c0.1,0.1,0.2,0.1,0.2,0.2c0.1,0,0.2,0,0.2,0.1c0.9,0.1,2-0.1,2.5,0.4c-0.7,0.3-1.6,0.5-1.8,1.3 c-0.3,0-0.4,0-0.5,0.1c-0.3,1.9,1.1,2,1.5,3.1c0,0.4-0.4,0.5-0.3,1c0.4,0.5,1,0.4,1.5,0.4c0.1-0.7,0.5-1.5,0.1-2 c0.7-0.7,0.3-2.1,0-2.9c0.4,0.4,0.4,0.2,0.9,0c-0.1-0.8,0.3-1.1,1.1-1.1c0-0.6-0.3-1-0.5-1.3c-0.3-0.4-0.4-0.5-0.8-0.7 c-0.6-0.3-1.1-0.6-1.7-0.5c-0.5,0.2-0.8,0.5-1.3,0.7c0.1-0.9-0.5-1-1.3-1C55.5,27.9,55.1,28.1,55.1,28.7 M53,25.5 c0.4,0.4,1.1,0.5,1.8,0.5c0.3,0.3,0.7,0.4,1.1,0.7c0.5,0,1,0,1.3-0.1c0,0.3-0.2,0.4,0,0.7c1.7,0.8,4.1,0.1,6.3,0.1 c0.3,0,0.4-0.3,0.4-0.5c0.3-0.1,0.1,0.4,0.4,0.3c0.1-0.2,0.2-0.3,0.3-0.3c0.3,0,0.3,0.2,0.7,0.2c0.4,0.1,0.4-0.3,0.9-0.2 c0.1,0.2,0.3,0.3,0.3,0.7c-0.6-0.1-1.1,0-1.5,0.2c0.1,0.2-0.3,0.5,0,0.5c0,0.1,0.4,0.3,0.1,0.4c-0.5,0.1-0.3-0.5-0.8-0.4 c-0.8,0-1.3,0.3-1.8,0.4c-0.5,0.3-0.7,0.9-1.1,1.3c-0.2,0.6-0.7,0.9-1,1.4c-0.5,1-0.8,2.3-1,3.7v1.3c0.1,0.5,0.3,0.9,0.4,1.3 c0.2,0.3,0.5,0.5,0.8,0.8l1.8,0.4c-0.2,0-0.5,0.6-0.2,0.8c-0.2,0.1-0.9,0-1.1,0.3c-0.3-0.1-0.5-0.2-0.9-0.1 c-0.6,0.2-1.1,0.5-1.8,0.4c-1,0.3-1.5,1.1-2.4,1.4c-0.3,0.5-0.9,0.7-1.3,1.1c-1.3,0.2-1.9-0.3-2.4-1c0.1-0.6-0.1-1.1-0.5-1.2 c0.1-0.3,0.1-0.7,0.1-1.2c-0.1-0.3-0.6-0.1-0.7-0.5c0-0.1-0.1-0.3-0.1-0.4c0.1-0.4-0.1-0.3,0-0.5c0.4-0.1,0.7-0.2,1-0.3 c0.4-0.1,0.4-0.7,1-0.7c0.4-0.2,0.5-0.6,1-0.7c0.1-0.3,0.5-0.3,0.4-0.9c0.5-0.1,0.4,0.4,0.8,0.3c0.9-0.6,0.1-1.7,0.1-2.6 c-0.1-0.4-0.5-0.5-0.7-0.9c-0.2-0.7-0.6-1.2-1-1.7c-0.3,0-0.4-0.2-0.5-0.3h-0.8c0-0.5-0.2,0-0.3,0c-0.3,0-0.3-0.2-0.3-0.4 c-0.1,0.3-0.5,0.4-0.7,0c-0.1,0.4-0.3,0.9-0.7,0.4c-0.2,0.2,0.3,0.4-0.1,0.8c-0.7,0.1-1-0.5-1.5,0c-0.4,0-0.6-0.3-1-0.3 c-0.4,0.1,0.3,0.5-0.1,0.5c-0.2,0.2-0.6,0.1-0.7,0.3c-0.3,0-0.7,0-0.8-0.2c-0.4-0.1-0.2,0.4-0.5,0.3c0-0.3-0.5-0.2-0.8-0.2 c-0.2-0.2,0-0.1,0-0.4c-0.2,0-0.4-0.1-0.4-0.2c0-0.3,0.3-0.3,0.5-0.3c0.1-0.4-0.2-0.4-0.1-0.8c0.4-0.4,1.4-0.4,2.1-0.5 c0-0.1,0-0.2,0.1-0.2c0.2-0.6-0.3-0.5-0.3-0.9c-0.2-0.1,0.1-0.5,0.3-0.5c0.4-0.1,0.1,0.5,0.3,0.5c0.6,0.1,0.9,0.4,1.6,0.3 c1-0.2,1.7-0.6,2.9-0.5c0.4-0.1-0.3,0-0.1-0.3c0.3-0.2,0.6-0.4,0.8-0.7c0.1-0.5-0.2-0.6-0.2-1C52.9,25.8,53,25.7,53,25.5" class="st0"/><path d="M61.4,45.4c0.2,0,0.2,0.1,0.3,0.1c0.2,0.7,1.1,0.8,1.1,1.7c-0.2,0.6-0.8,0.7-1.1,1.2v1.8 c-0.2,0-0.2,0.3-0.5,0.2c-0.3,0.1-0.3,0.5-0.5,0.7c-0.4,0-0.5-0.4-0.7-0.7c-0.5-0.1-1-0.1-1.1-0.7c0-0.3,0.4-0.4,0.7-0.5 c-0.4-0.6,0-1.1,0.2-1.7c-0.1-0.4-0.4-0.7-0.7-0.9c0.4-0.5,1.3-0.9,2-0.8C61.3,45.8,61.3,45.5,61.4,45.4" class="st0"/></g></svg>