<svg xmlns="http://www.w3.org/2000/svg" version="1.1" width="118px" height="70px" viewBox="0 0 118 70"><g id="surface1"><path d="M 20.175781 28.578125 L 10.582031 28.578125 C 9.945312 28.578125 9.425781 29.097656 9.425781 29.734375 L 9.425781 43.796875 C 9.425781 44.4375 9.945312 44.953125 10.582031 44.953125 L 12.054688 44.953125 C 12.691406 44.953125 13.207031 44.4375 13.207031 43.796875 L 13.207031 38.660156 L 18.078125 38.660156 C 18.714844 38.660156 19.234375 38.140625 19.234375 37.503906 L 19.234375 36.027344 C 19.230469 35.386719 18.714844 34.871094 18.078125 34.871094 L 13.207031 34.871094 L 13.207031 32.367188 L 20.175781 32.367188 C 20.480469 32.367188 20.777344 32.246094 20.992188 32.027344 C 21.210938 31.8125 21.332031 31.515625 21.332031 31.210938 L 21.332031 29.730469 C 21.328125 29.09375 20.8125 28.578125 20.175781 28.578125 Z M 20.175781 28.578125 " style=" stroke:none;fill-rule:nonzero;fill:rgb(0%,58.431375%,85.490197%);fill-opacity:1;"/><path d="M 32.519531 41.1875 L 25.863281 41.1875 L 25.863281 29.734375 C 25.863281 29.097656 25.347656 28.578125 24.710938 28.578125 L 23.238281 28.578125 C 22.601562 28.578125 22.082031 29.097656 22.082031 29.734375 L 22.082031 43.796875 C 22.082031 44.4375 22.601562 44.953125 23.238281 44.953125 L 32.519531 44.953125 C 33.15625 44.953125 33.671875 44.4375 33.671875 43.796875 L 33.671875 42.34375 C 33.671875 41.703125 33.15625 41.1875 32.519531 41.1875 Z M 32.519531 41.1875 " style=" stroke:none;fill-rule:nonzero;fill:rgb(0%,58.431375%,85.490197%);fill-opacity:1;"/><path d="M 44.5 29.210938 C 44.304688 28.824219 43.90625 28.578125 43.46875 28.578125 L 41.648438 28.578125 C 41.277344 28.578125 40.933594 28.753906 40.714844 29.054688 L 37.425781 33.578125 L 34.117188 29.050781 C 33.902344 28.753906 33.554688 28.578125 33.1875 28.578125 L 31.363281 28.578125 C 30.929688 28.578125 30.53125 28.824219 30.335938 29.210938 C 30.140625 29.601562 30.175781 30.066406 30.433594 30.417969 L 35.527344 37.390625 L 35.527344 43.796875 C 35.527344 44.4375 36.046875 44.953125 36.683594 44.953125 L 38.15625 44.953125 C 38.792969 44.953125 39.308594 44.4375 39.308594 43.796875 L 39.308594 37.390625 L 44.40625 30.417969 C 44.660156 30.066406 44.699219 29.601562 44.5 29.210938 Z M 44.5 29.210938 " style=" stroke:none;fill-rule:nonzero;fill:rgb(0%,58.431375%,85.490197%);fill-opacity:1;"/><path d="M 82.351562 53.640625 C 82.402344 53.589844 82.410156 53.511719 82.371094 53.449219 C 82.332031 53.386719 82.253906 53.363281 82.1875 53.390625 C 70.441406 57.976562 57.113281 55.292969 48.042969 46.519531 C 47.988281 46.464844 47.898438 46.460938 47.835938 46.511719 C 47.777344 46.5625 47.765625 46.652344 47.8125 46.71875 C 52.832031 54.144531 60.699219 59.152344 69.542969 60.542969 C 70.125 60.628906 70.941406 60.773438 71.253906 60.644531 C 76.324219 58.597656 79.816406 56.089844 82.351562 53.640625 Z M 82.351562 53.640625 " style=" stroke:none;fill-rule:nonzero;fill:rgb(0%,58.431375%,85.490197%);fill-opacity:1;"/><path d="M 106.507812 33.617188 C 107.265625 30.347656 108.316406 26.191406 108.535156 18.820312 C 108.65625 14.882812 108.449219 10.898438 108.355469 9.402344 C 108.347656 9.269531 108.269531 9.152344 108.15625 9.089844 C 108.039062 9.027344 107.898438 9.03125 107.78125 9.097656 L 85.558594 22.039062 C 85.425781 22.117188 85.355469 22.261719 85.371094 22.410156 C 85.386719 22.5625 85.488281 22.6875 85.632812 22.734375 L 92.230469 24.917969 C 92.433594 24.980469 92.585938 25.148438 92.636719 25.355469 C 93.101562 27.308594 93.308594 29.582031 93.308594 31.4375 C 93.316406 38.648438 90.914062 45.65625 86.480469 51.335938 C 83.40625 55.289062 79.464844 58.472656 74.964844 60.644531 C 74.890625 60.679688 74.855469 60.757812 74.871094 60.832031 C 74.890625 60.90625 74.960938 60.960938 75.035156 60.957031 C 90.941406 60.746094 102.816406 49.460938 106.507812 33.617188 Z M 106.507812 33.617188 " style=" stroke:none;fill-rule:nonzero;fill:rgb(12.941177%,25.098041%,60.392159%);fill-opacity:1;"/><path d="M 51.558594 28.597656 C 47.074219 28.597656 43.4375 32.242188 43.4375 36.738281 C 43.4375 41.230469 47.074219 44.875 51.558594 44.875 C 56.023438 44.875 59.660156 41.222656 59.660156 36.738281 C 59.660156 32.25 56.023438 28.597656 51.558594 28.597656 Z M 51.558594 41.125 C 49.144531 41.132812 47.183594 39.175781 47.179688 36.753906 C 47.171875 34.335938 49.125 32.371094 51.539062 32.367188 C 53.953125 32.359375 55.914062 34.316406 55.917969 36.738281 C 55.921875 39.15625 53.972656 41.117188 51.558594 41.125 Z M 51.558594 41.125 " style=" stroke:none;fill-rule:nonzero;fill:rgb(12.941177%,25.098041%,60.392159%);fill-opacity:1;"/><path d="M 73.007812 28.578125 L 71.535156 28.578125 C 70.898438 28.578125 70.382812 29.097656 70.382812 29.734375 L 70.382812 37.648438 L 63.65625 29.023438 C 63.4375 28.742188 63.101562 28.578125 62.746094 28.578125 L 61.566406 28.578125 C 60.929688 28.578125 60.414062 29.097656 60.414062 29.734375 L 60.414062 43.796875 C 60.414062 44.4375 60.929688 44.953125 61.566406 44.953125 L 63.042969 44.953125 C 63.679688 44.953125 64.195312 44.4375 64.195312 43.796875 L 64.195312 35.882812 L 70.921875 44.511719 C 71.140625 44.789062 71.476562 44.953125 71.832031 44.953125 L 73.011719 44.953125 C 73.648438 44.953125 74.164062 44.4375 74.164062 43.796875 L 74.164062 29.734375 C 74.164062 29.429688 74.042969 29.132812 73.828125 28.917969 C 73.609375 28.699219 73.316406 28.578125 73.007812 28.578125 Z M 73.007812 28.578125 " style=" stroke:none;fill-rule:nonzero;fill:rgb(12.941177%,25.098041%,60.392159%);fill-opacity:1;"/><path d="M 86.183594 32.34375 C 86.722656 32.238281 87.113281 31.761719 87.117188 31.210938 L 87.117188 29.730469 C 87.117188 29.09375 86.597656 28.574219 85.960938 28.574219 L 76.78125 28.574219 C 76.144531 28.574219 75.628906 29.09375 75.628906 29.730469 L 75.628906 43.796875 C 75.628906 44.4375 76.144531 44.953125 76.78125 44.953125 L 85.625 44.953125 C 86.261719 44.953125 86.691406 44.417969 86.730469 43.929688 L 86.765625 42.449219 C 86.785156 41.691406 86.277344 41.167969 85.640625 41.167969 L 79.40625 41.167969 L 79.40625 38.660156 L 85.792969 38.660156 C 86.078125 38.667969 86.359375 38.558594 86.566406 38.359375 C 86.773438 38.160156 86.890625 37.886719 86.898438 37.597656 L 86.921875 36.027344 C 86.910156 35.359375 86.40625 34.871094 85.769531 34.871094 L 79.402344 34.871094 L 79.402344 32.367188 C 79.402344 32.367188 86.109375 32.359375 86.183594 32.34375 Z M 86.183594 32.34375 " style=" stroke:none;fill-rule:nonzero;fill:rgb(12.941177%,25.098041%,60.392159%);fill-opacity:1;"/><path d="M 13.417969 50.695312 L 11.070312 50.695312 L 10.625 51.777344 L 9.425781 51.777344 L 11.675781 46.71875 L 12.832031 46.71875 L 15.089844 51.777344 L 13.863281 51.777344 Z M 13.046875 49.808594 L 12.246094 47.871094 L 11.445312 49.804688 Z M 13.046875 49.808594 " style=" stroke:none;fill-rule:nonzero;fill:rgb(0%,58.431375%,85.490197%);fill-opacity:1;"/><path d="M 15.617188 46.71875 L 16.785156 46.71875 L 16.785156 51.777344 L 15.617188 51.777344 Z M 15.617188 46.71875 " style=" stroke:none;fill-rule:nonzero;fill:rgb(0%,58.431375%,85.490197%);fill-opacity:1;"/><path d="M 21.203125 51.777344 L 20.226562 50.371094 L 19.152344 50.371094 L 19.152344 51.777344 L 17.984375 51.777344 L 17.984375 46.71875 L 20.167969 46.71875 C 20.570312 46.707031 20.964844 46.78125 21.335938 46.9375 C 21.644531 47.074219 21.910156 47.296875 22.09375 47.582031 C 22.277344 47.871094 22.371094 48.210938 22.363281 48.554688 C 22.390625 49.253906 21.976562 49.894531 21.324219 50.152344 L 22.457031 51.777344 Z M 20.90625 47.898438 C 20.722656 47.75 20.457031 47.671875 20.105469 47.671875 L 19.152344 47.671875 L 19.152344 49.4375 L 20.105469 49.4375 C 20.457031 49.4375 20.722656 49.359375 20.90625 49.203125 C 21.085938 49.050781 21.179688 48.832031 21.179688 48.554688 C 21.179688 48.269531 21.085938 48.050781 20.90625 47.898438 Z M 20.90625 47.898438 " style=" stroke:none;fill-rule:nonzero;fill:rgb(0%,58.431375%,85.490197%);fill-opacity:1;"/><path d="M 23.285156 46.71875 L 24.453125 46.71875 L 24.453125 50.824219 L 26.988281 50.824219 L 26.988281 51.777344 L 23.285156 51.777344 Z M 23.285156 46.71875 " style=" stroke:none;fill-rule:nonzero;fill:rgb(0%,58.431375%,85.490197%);fill-opacity:1;"/><path d="M 27.644531 46.71875 L 28.8125 46.71875 L 28.8125 51.777344 L 27.644531 51.777344 Z M 27.644531 46.71875 " style=" stroke:none;fill-rule:nonzero;fill:rgb(0%,58.431375%,85.490197%);fill-opacity:1;"/><path d="M 34.640625 46.71875 L 34.640625 51.777344 L 33.683594 51.777344 L 31.164062 48.707031 L 31.164062 51.777344 L 30.007812 51.777344 L 30.007812 46.71875 L 30.976562 46.71875 L 33.488281 49.789062 L 33.488281 46.71875 Z M 34.640625 46.71875 " style=" stroke:none;fill-rule:nonzero;fill:rgb(0%,58.431375%,85.490197%);fill-opacity:1;"/><path d="M 39.75 50.839844 L 39.75 51.777344 L 35.839844 51.777344 L 35.839844 46.71875 L 39.65625 46.71875 L 39.65625 47.65625 L 37.003906 47.65625 L 37.003906 48.757812 L 39.347656 48.757812 L 39.347656 49.667969 L 37 49.667969 L 37 50.839844 Z M 39.75 50.839844 " style=" stroke:none;fill-rule:nonzero;fill:rgb(0%,58.431375%,85.490197%);fill-opacity:1;"/><path d="M 41.179688 51.703125 C 40.859375 51.617188 40.554688 51.476562 40.28125 51.28125 L 40.679688 50.398438 C 40.917969 50.566406 41.179688 50.695312 41.457031 50.78125 C 41.746094 50.878906 42.046875 50.925781 42.351562 50.929688 C 42.683594 50.929688 42.925781 50.878906 43.085938 50.78125 C 43.230469 50.703125 43.320312 50.550781 43.320312 50.386719 C 43.324219 50.269531 43.269531 50.160156 43.179688 50.085938 C 43.074219 50 42.949219 49.9375 42.820312 49.894531 C 42.671875 49.847656 42.472656 49.792969 42.222656 49.738281 C 41.902344 49.664062 41.589844 49.574219 41.277344 49.460938 C 41.035156 49.371094 40.816406 49.21875 40.648438 49.019531 C 40.472656 48.816406 40.382812 48.546875 40.382812 48.207031 C 40.382812 47.921875 40.464844 47.644531 40.621094 47.40625 C 40.800781 47.152344 41.050781 46.953125 41.339844 46.839844 C 41.710938 46.691406 42.109375 46.617188 42.511719 46.628906 C 42.832031 46.628906 43.148438 46.667969 43.457031 46.746094 C 43.742188 46.8125 44.019531 46.925781 44.269531 47.078125 L 43.90625 47.964844 C 43.484375 47.710938 43 47.574219 42.507812 47.566406 C 42.179688 47.566406 41.9375 47.621094 41.78125 47.726562 C 41.636719 47.8125 41.546875 47.972656 41.546875 48.144531 C 41.546875 48.316406 41.636719 48.445312 41.816406 48.53125 C 42.085938 48.644531 42.359375 48.726562 42.644531 48.78125 C 42.964844 48.855469 43.277344 48.949219 43.585938 49.058594 C 43.832031 49.148438 44.046875 49.296875 44.21875 49.492188 C 44.394531 49.6875 44.480469 49.957031 44.480469 50.292969 C 44.484375 50.578125 44.398438 50.855469 44.238281 51.085938 C 44.058594 51.34375 43.804688 51.539062 43.515625 51.652344 C 43.140625 51.804688 42.742188 51.875 42.339844 51.867188 C 41.949219 51.867188 41.558594 51.8125 41.179688 51.703125 Z M 41.179688 51.703125 " style=" stroke:none;fill-rule:nonzero;fill:rgb(0%,58.431375%,85.490197%);fill-opacity:1;"/></g></svg>