<svg xmlns="http://www.w3.org/2000/svg" version="1.1" width="70px" height="70px" viewBox="0 0 70 70"><g id="surface1"><rect x="0" y="0" width="70" height="70" style="fill:rgb(100%,0%,25.490196%);fill-opacity:1;stroke:none;"/><path d="M 23.222656 34.253906 C 23.414062 33.789062 23.59375 33.351562 23.757812 32.945312 C 23.765625 32.929688 23.773438 32.914062 23.777344 32.898438 C 23.589844 32.800781 23.316406 32.71875 22.929688 32.65625 C 22.707031 32.621094 22.46875 32.601562 22.226562 32.601562 C 21.816406 32.601562 21.441406 32.640625 21.09375 32.714844 C 20.746094 32.792969 20.445312 32.875 20.183594 32.964844 C 19.921875 33.0625 19.710938 33.152344 19.550781 33.238281 C 19.390625 33.328125 19.292969 33.386719 19.257812 33.410156 L 19.257812 39.644531 L 21.117188 39.644531 L 21.117188 34.433594 C 21.199219 34.386719 21.339844 34.328125 21.546875 34.253906 C 21.75 34.179688 22.039062 34.140625 22.410156 34.140625 C 22.53125 34.140625 22.664062 34.152344 22.800781 34.171875 C 22.9375 34.1875 23.050781 34.203125 23.1875 34.242188 C 23.199219 34.242188 23.207031 34.25 23.21875 34.253906 Z M 13.3125 36.164062 C 13.089844 35.585938 12.871094 35.019531 12.644531 34.480469 C 12.421875 33.941406 12.21875 33.441406 12.03125 32.980469 C 11.839844 32.519531 11.671875 32.121094 11.523438 31.777344 C 11.371094 31.433594 11.25 31.167969 11.160156 30.976562 C 10.964844 30.539062 10.878906 30.339844 10.878906 30.339844 L 8.496094 30.339844 C 8.496094 30.339844 8.414062 30.539062 8.21875 30.976562 C 8.128906 31.167969 8.007812 31.433594 7.859375 31.777344 C 7.707031 32.121094 7.535156 32.523438 7.351562 32.980469 C 7.164062 33.4375 6.957031 33.941406 6.734375 34.480469 C 6.511719 35.023438 6.289062 35.585938 6.066406 36.164062 C 5.839844 36.75 5.621094 37.335938 5.398438 37.929688 C 5.171875 38.519531 4.964844 39.09375 4.765625 39.648438 L 6.734375 39.648438 L 7.496094 37.589844 L 11.886719 37.589844 L 12.648438 39.648438 L 14.617188 39.648438 C 14.421875 39.09375 14.210938 38.519531 13.984375 37.929688 C 13.761719 37.339844 13.542969 36.75 13.316406 36.164062 Z M 8.148438 35.839844 C 8.308594 35.410156 8.46875 34.972656 8.636719 34.535156 C 8.800781 34.097656 8.953125 33.695312 9.09375 33.332031 C 9.230469 32.964844 9.355469 32.648438 9.460938 32.386719 C 9.566406 32.121094 9.640625 31.945312 9.6875 31.851562 C 9.734375 31.945312 9.808594 32.121094 9.914062 32.386719 C 10.023438 32.648438 10.148438 32.964844 10.28125 33.332031 C 10.417969 33.699219 10.574219 34.097656 10.738281 34.535156 C 10.902344 34.972656 11.066406 35.40625 11.226562 35.839844 Z M 15.640625 39.648438 L 17.503906 39.648438 L 17.503906 32.636719 L 15.640625 33.175781 L 15.640625 39.652344 Z M 16.566406 30.171875 C 16.28125 30.171875 16.035156 30.269531 15.835938 30.464844 C 15.632812 30.660156 15.53125 30.898438 15.53125 31.179688 C 15.53125 31.464844 15.632812 31.707031 15.835938 31.90625 C 16.035156 32.105469 16.28125 32.207031 16.566406 32.207031 C 16.847656 32.207031 17.109375 32.109375 17.3125 31.90625 C 17.515625 31.707031 17.617188 31.464844 17.617188 31.179688 C 17.617188 30.898438 17.515625 30.65625 17.3125 30.464844 C 17.109375 30.269531 16.859375 30.171875 16.566406 30.171875 Z M 31.46875 36.164062 C 31.246094 35.585938 31.023438 35.019531 30.800781 34.480469 C 30.574219 33.941406 30.371094 33.441406 30.183594 32.980469 C 29.996094 32.519531 29.828125 32.121094 29.675781 31.777344 C 29.527344 31.433594 29.402344 31.167969 29.316406 30.976562 C 29.121094 30.539062 29.03125 30.339844 29.03125 30.339844 L 26.652344 30.339844 C 26.652344 30.339844 26.570312 30.539062 26.371094 30.976562 C 26.285156 31.167969 26.164062 31.433594 26.011719 31.777344 C 25.863281 32.121094 25.691406 32.523438 25.503906 32.980469 C 25.320312 33.4375 25.113281 33.941406 24.886719 34.480469 C 24.664062 35.023438 24.445312 35.585938 24.21875 36.164062 C 23.996094 36.75 23.777344 37.335938 23.550781 37.929688 C 23.328125 38.519531 23.117188 39.09375 22.921875 39.648438 L 24.886719 39.648438 L 25.652344 37.589844 L 30.039062 37.589844 L 30.804688 39.648438 L 32.769531 39.648438 C 32.574219 39.09375 32.363281 38.519531 32.140625 37.929688 C 31.917969 37.339844 31.695312 36.75 31.472656 36.164062 Z M 26.300781 35.839844 C 26.464844 35.410156 26.625 34.972656 26.792969 34.535156 C 26.957031 34.097656 27.109375 33.695312 27.246094 33.332031 C 27.382812 32.964844 27.511719 32.648438 27.613281 32.386719 C 27.71875 32.121094 27.796875 31.945312 27.84375 31.851562 C 27.886719 31.945312 27.960938 32.121094 28.070312 32.386719 C 28.179688 32.648438 28.300781 32.964844 28.4375 33.332031 C 28.574219 33.699219 28.726562 34.097656 28.890625 34.535156 C 29.058594 34.972656 29.222656 35.40625 29.382812 35.839844 Z M 55.132812 39.648438 L 56.992188 39.648438 L 56.992188 32.636719 L 55.132812 33.175781 L 55.132812 39.652344 Z M 56.054688 30.171875 C 55.773438 30.171875 55.527344 30.269531 55.324219 30.464844 C 55.121094 30.660156 55.019531 30.898438 55.019531 31.179688 C 55.019531 31.464844 55.121094 31.707031 55.324219 31.90625 C 55.527344 32.105469 55.773438 32.207031 56.054688 32.207031 C 56.339844 32.207031 56.597656 32.109375 56.800781 31.90625 C 57.003906 31.707031 57.105469 31.464844 57.105469 31.179688 C 57.105469 30.898438 57.003906 30.65625 56.800781 30.464844 C 56.597656 30.269531 56.351562 30.171875 56.054688 30.171875 Z M 64.949219 33.164062 C 64.800781 33.089844 64.597656 33.011719 64.335938 32.933594 C 64.078125 32.859375 63.761719 32.792969 63.390625 32.726562 C 63.019531 32.664062 62.59375 32.632812 62.113281 32.632812 C 61.519531 32.632812 60.988281 32.726562 60.519531 32.90625 C 60.050781 33.089844 59.648438 33.34375 59.316406 33.671875 C 58.980469 34.003906 58.726562 34.398438 58.546875 34.863281 C 58.371094 35.328125 58.28125 35.90625 58.28125 36.464844 C 58.28125 37.027344 58.367188 37.503906 58.535156 37.921875 C 58.703125 38.34375 58.929688 38.695312 59.214844 38.980469 C 59.496094 39.261719 59.828125 39.476562 60.210938 39.617188 C 60.59375 39.761719 60.996094 39.828125 61.421875 39.828125 C 61.722656 39.828125 61.992188 39.792969 62.226562 39.71875 C 62.460938 39.644531 62.660156 39.558594 62.824219 39.460938 C 62.988281 39.359375 63.117188 39.265625 63.210938 39.171875 C 63.304688 39.078125 63.355469 39.019531 63.378906 38.992188 L 63.378906 39.644531 L 65.238281 39.644531 L 65.238281 33.308594 C 65.195312 33.28125 65.097656 33.234375 64.945312 33.15625 Z M 63.378906 36.5625 C 63.378906 37.066406 63.25 37.488281 62.992188 37.824219 C 62.734375 38.160156 62.347656 38.332031 61.835938 38.332031 C 61.320312 38.332031 60.917969 38.144531 60.628906 37.765625 C 60.34375 37.386719 60.199219 36.890625 60.199219 36.265625 C 60.199219 35.957031 60.242188 35.628906 60.324219 35.367188 C 60.410156 35.105469 60.539062 34.878906 60.710938 34.679688 C 60.882812 34.484375 61.105469 34.335938 61.375 34.230469 C 61.644531 34.125 61.96875 34.070312 62.34375 34.070312 C 62.625 34.070312 62.855469 34.082031 63.035156 34.109375 C 63.214844 34.136719 63.328125 34.160156 63.382812 34.1875 L 63.382812 36.558594 Z M 38.179688 32.898438 C 37.996094 32.800781 37.722656 32.71875 37.335938 32.65625 C 37.113281 32.621094 36.875 32.601562 36.632812 32.601562 C 36.222656 32.601562 35.847656 32.640625 35.5 32.714844 C 35.152344 32.792969 34.847656 32.875 34.589844 32.964844 C 34.328125 33.0625 34.117188 33.152344 33.957031 33.238281 C 33.796875 33.328125 33.699219 33.386719 33.664062 33.410156 L 33.664062 39.644531 L 35.523438 39.644531 L 35.523438 34.433594 C 35.605469 34.386719 35.746094 34.328125 35.953125 34.253906 C 36.15625 34.179688 36.445312 34.140625 36.816406 34.140625 C 36.9375 34.140625 37.070312 34.152344 37.207031 34.171875 C 37.34375 34.1875 37.457031 34.203125 37.59375 34.242188 C 37.605469 34.242188 37.613281 34.25 37.625 34.253906 C 37.816406 33.789062 37.996094 33.351562 38.160156 32.945312 C 38.167969 32.929688 38.175781 32.914062 38.179688 32.898438 Z M 44.257812 32.933594 C 44 32.859375 43.683594 32.792969 43.3125 32.726562 C 42.941406 32.664062 42.515625 32.632812 42.035156 32.632812 C 41.441406 32.632812 40.90625 32.726562 40.4375 32.90625 C 39.96875 33.089844 39.566406 33.34375 39.234375 33.671875 C 38.902344 34.003906 38.648438 34.398438 38.46875 34.863281 C 38.289062 35.328125 38.203125 35.90625 38.203125 36.464844 C 38.203125 37.027344 38.285156 37.503906 38.453125 37.921875 C 38.621094 38.34375 38.851562 38.695312 39.132812 38.980469 C 39.417969 39.261719 39.75 39.476562 40.132812 39.617188 C 40.511719 39.761719 40.914062 39.828125 41.34375 39.828125 C 41.644531 39.828125 41.914062 39.792969 42.148438 39.71875 C 42.382812 39.644531 42.582031 39.558594 42.746094 39.460938 C 42.910156 39.359375 43.039062 39.265625 43.128906 39.171875 C 43.226562 39.078125 43.277344 39.019531 43.296875 38.992188 L 43.296875 39.644531 L 45.15625 39.644531 L 45.15625 33.308594 C 45.113281 33.28125 45.011719 33.234375 44.863281 33.15625 C 44.710938 33.082031 44.507812 33.003906 44.25 32.929688 Z M 43.296875 36.5625 C 43.296875 37.066406 43.167969 37.488281 42.914062 37.824219 C 42.65625 38.160156 42.269531 38.332031 41.753906 38.332031 C 41.242188 38.332031 40.839844 38.144531 40.550781 37.765625 C 40.265625 37.386719 40.121094 36.890625 40.121094 36.265625 C 40.121094 35.957031 40.164062 35.628906 40.246094 35.367188 C 40.332031 35.105469 40.460938 34.878906 40.632812 34.679688 C 40.804688 34.484375 41.027344 34.335938 41.296875 34.230469 C 41.566406 34.125 41.886719 34.070312 42.261719 34.070312 C 42.546875 34.070312 42.777344 34.082031 42.957031 34.109375 C 43.132812 34.136719 43.25 34.160156 43.300781 34.1875 L 43.300781 36.558594 Z M 52.839844 33.503906 C 52.550781 33.21875 52.21875 33 51.84375 32.859375 C 51.464844 32.710938 51.066406 32.636719 50.636719 32.636719 C 50.328125 32.636719 50.054688 32.675781 49.820312 32.75 C 49.585938 32.828125 49.386719 32.914062 49.21875 33.015625 C 49.054688 33.117188 48.929688 33.210938 48.84375 33.300781 C 48.753906 33.390625 48.699219 33.449219 48.679688 33.472656 L 48.679688 30.328125 L 46.820312 30.867188 L 46.820312 39.648438 C 46.871094 39.65625 46.976562 39.671875 47.132812 39.695312 C 47.285156 39.714844 47.476562 39.734375 47.707031 39.753906 C 47.941406 39.769531 48.203125 39.789062 48.492188 39.804688 C 48.785156 39.824219 49.089844 39.832031 49.410156 39.832031 C 50.855469 39.832031 51.945312 39.496094 52.675781 38.828125 C 53.40625 38.160156 53.773438 37.191406 53.773438 36 C 53.773438 35.457031 53.691406 34.980469 53.523438 34.554688 C 53.355469 34.136719 53.125 33.78125 52.835938 33.5 Z M 51.734375 37.101562 C 51.648438 37.363281 51.519531 37.589844 51.347656 37.785156 C 51.175781 37.980469 50.953125 38.132812 50.683594 38.238281 C 50.414062 38.34375 50.09375 38.398438 49.71875 38.398438 C 49.433594 38.398438 49.203125 38.382812 49.023438 38.359375 C 48.847656 38.332031 48.730469 38.308594 48.679688 38.28125 L 48.679688 35.910156 C 48.679688 35.40625 48.808594 34.984375 49.0625 34.648438 C 49.320312 34.308594 49.707031 34.140625 50.222656 34.140625 C 50.734375 34.140625 51.136719 34.328125 51.425781 34.707031 C 51.710938 35.085938 51.855469 35.582031 51.855469 36.203125 C 51.855469 36.515625 51.8125 36.839844 51.730469 37.101562 Z M 51.734375 37.101562 " style=" stroke:none;fill-rule:nonzero;fill:rgb(100%,100%,100%);fill-opacity:1;"/></g></svg>