<svg xmlns="http://www.w3.org/2000/svg" version="1.1" id="Layer_1" x="0px" y="0px" width="70px" height="70px" viewBox="0 0 70 70" enable-background="new 0 0 70 70" xml:space="preserve"><metadata/><rect width="70" fill="none" height="70"/><g><path fill="#A8A7AC" d="M60.9,13.7c-0.2-0.2-0.4-0.3-0.601-0.2c-1-1.2-2.1-2.3-3.3-3.4c0-0.2,0-0.5-0.2-0.6    C50.9,4.4,43.3,1.3,34.9,1.3c-8.7,0-16.7,3.4-22.7,8.9C12,10.3,12,10.5,12,10.8c-0.7,0.7-1.3,1.3-2,2.1c-0.2,0-0.5,0-0.7,0.2    c-4.9,5.8-7.9,13.3-7.9,21.5c0,8.2,3,15.8,8,21.6c0.1,0.2,0.3,0.2,0.5,0.2H10c1,1.199,2.1,2.3,3.3,3.3c0,0.2,0,0.5,0.2,0.6    c5.8,4.8,13.2,7.601,21.2,7.601c8.2,0,15.7-3,21.5-7.9c0.2-0.2,0.3-0.4,0.2-0.7c1.199-1.1,2.3-2.2,3.399-3.399H59.9    c0.199,0,0.399-0.101,0.5-0.2C65.1,49.9,68,42.6,68,34.5C68.3,26.7,65.5,19.4,60.9,13.7z M57.8,57.4c-0.5,0.5-1,1-1.6,1.5    C56,58.8,55.7,58.9,55.6,59l0,0C50,63.7,42.8,66.6,35,66.6c-7.7,0-14.8-2.699-20.3-7.3c-0.2-0.2-0.4-0.2-0.6-0.1    c-0.6-0.601-1.3-1.101-1.9-1.7c-0.5-0.5-0.9-1-1.4-1.5c0.1-0.2,0-0.5-0.1-0.6l0,0C5.9,49.8,3.1,42.6,3.1,34.7    c0-7.9,2.8-15.1,7.6-20.7c0.2-0.2,0.2-0.4,0.1-0.6c0.5-0.5,0.9-1.1,1.4-1.6c0.2-0.2,0.3-0.3,0.5-0.5c0.1,0,0.1,0,0.2,0    c0.2,0,0.3-0.1,0.5-0.2c5.7-5.3,13.3-8.5,21.7-8.5c8,0,15.4,3,21,7.8c0.2,0.2,0.4,0.2,0.7,0.1c0.4,0.4,0.8,0.8,1.2,1.2    c0.7,0.7,1.3,1.4,2,2.2c-0.1,0.2-0.1,0.5,0.1,0.7c4.4,5.5,7.101,12.5,7.101,20c0,7.7-2.7,14.8-7.3,20.3    C59.7,55.1,59.7,55.3,59.8,55.5C58.9,56.2,58.4,56.8,57.8,57.4z"/><path fill="#A8A7AC" d="M57.4,17.1c-0.301-0.4-0.7-0.5-1.2-0.3c-0.7-0.9-1.5-1.7-2.3-2.4C54.1,14,54,13.5,53.6,13.2    c-5-4.4-11.6-7.1-18.8-7.1c-7.1,0-13.6,2.6-18.6,6.9c-0.3,0.3-0.4,0.8-0.3,1.2c-0.6,0.6-1.2,1.2-1.8,1.9c-0.4-0.2-0.9-0.1-1.2,0.3    c-4.1,4.9-6.6,11.3-6.6,18.2c0,7.1,2.6,13.7,7,18.7c0.2,0.2,0.5,0.4,0.8,0.4c0.1,0,0.3,0,0.4-0.101c0.6,0.601,1.2,1.2,1.8,1.7    c-0.2,0.4-0.1,0.9,0.3,1.2c4.9,4.1,11.3,6.6,18.3,6.6c6.8,0,13.1-2.399,18-6.399c0.399-0.3,0.5-0.8,0.3-1.2    c1-0.9,1.899-1.8,2.7-2.8c0.1,0,0.199,0.1,0.399,0.1c0.3,0,0.601-0.1,0.8-0.399C61,47.5,63.4,41.3,63.4,34.6    C63.4,28,61.1,21.9,57.4,17.1z M54.1,53.8C53.7,54.2,53.2,54.6,52.8,55c-0.399-0.2-0.8-0.2-1.2,0.1C47,58.8,41.2,61,34.9,61    c-6.5,0-12.4-2.3-16.9-6.2c-0.3-0.3-0.8-0.3-1.2-0.1c-0.4-0.3-0.7-0.7-1.1-1c-0.2-0.2-0.4-0.5-0.7-0.7c0.2-0.4,0.2-0.8-0.1-1.2l0,0    c-4-4.6-6.5-10.7-6.5-17.3c0-6.4,2.3-12.3,6.1-16.9c0.3-0.3,0.3-0.8,0.1-1.2c0.3-0.4,0.7-0.7,1-1.1c0.2-0.2,0.5-0.5,0.7-0.7    c0.4,0.2,0.8,0.2,1.2-0.1l0,0c4.6-4,10.7-6.4,17.3-6.4c6.7,0,12.8,2.5,17.4,6.5c0.2,0.2,0.399,0.3,0.7,0.3c0.199,0,0.3,0,0.5-0.1    C53.6,15,53.8,15.2,54,15.4c0.6,0.6,1.1,1.2,1.6,1.8C55.4,17.6,55.4,18,55.7,18.4c3.5,4.5,5.6,10.1,5.6,16.2c0,6.3-2.2,12-5.8,16.5    c-0.3,0.301-0.3,0.801-0.1,1.2C55,52.8,54.5,53.3,54.1,53.8z"/><path fill="#A8A7AC" d="M52.8,20.8c-0.2-0.2-0.399-0.3-0.6-0.2c-0.8-0.9-1.601-1.8-2.5-2.6c0-0.2,0-0.5-0.2-0.7l0,0    c-3.9-3.3-9-5.3-14.6-5.3c-5.5,0-10.6,2-14.6,5.3c-0.2,0.2-0.3,0.4-0.2,0.6c-0.7,0.6-1.3,1.2-1.9,1.9c-0.2,0-0.5,0-0.6,0.2l0,0    c-3.3,3.9-5.3,9-5.3,14.6c0,5.4,1.9,10.4,5.1,14.3c0.1,0.199,0.3,0.3,0.5,0.3H18c0.8,1,1.7,1.8,2.7,2.6c0,0.2,0,0.5,0.2,0.601    c3.8,3,8.7,4.8,13.9,4.8c5.3,0,10.2-1.8,14.101-4.9c0.199-0.2,0.3-0.399,0.199-0.6C50,50.9,50.9,50,51.7,49.1h0.1    c0.2,0,0.4-0.1,0.5-0.3l0,0C55.5,44.9,57.4,39.9,57.4,34.5C57.5,29.4,55.8,24.6,52.8,20.8z M48.7,51.2c-0.2-0.101-0.5,0-0.601,0.1    C44.5,54.2,39.9,55.9,34.9,55.9c-4.9,0-9.5-1.7-13.1-4.5c-0.2-0.101-0.4-0.2-0.6-0.101c-0.9-0.8-1.8-1.6-2.6-2.6    c0.1-0.2,0-0.5-0.1-0.601c-3-3.699-4.8-8.399-4.8-13.5c0-5.2,1.9-10,5-13.7c0.2-0.2,0.2-0.4,0.1-0.6c0.6-0.6,1.2-1.3,1.8-1.8    c0.1,0,0.1,0,0.2,0c0.2,0,0.3-0.1,0.4-0.2c3.7-3.1,8.5-5,13.7-5s10,1.9,13.7,5c0.2,0.2,0.4,0.2,0.601,0.1    c0.899,0.8,1.7,1.6,2.399,2.5c-0.1,0.2-0.1,0.5,0.101,0.6c2.8,3.6,4.399,8.1,4.399,13c0,5.1-1.8,9.8-4.8,13.4    c-0.2,0.199-0.2,0.399-0.1,0.6C50.5,49.6,49.7,50.4,48.7,51.2z"/></g></svg>