<svg xmlns="http://www.w3.org/2000/svg" id="Layer_1" width="70" height="70" x="0" y="0" enable-background="new 0 0 70 70" version="1.1" viewBox="0 0 70 70" xml:space="preserve"><metadata/><rect width="70" height="70" fill="none"/><path fill="#B92225" d="M13.7,16.4c0,0,3-0.6,5.6,2.1c2.5,2.7,7.1,6.9,9.3,7.6c2.2,0.7,3.7,1.1,4,1.4c0.4,0.3,1,0.4,1,0.4 s1.7-0.1,1.8-0.1s5.1-5.2,8.8-5.7s7-0.5,9.6-1.6c2.601-1.1,3-1.6,3-1.6s0.4-0.1,0.4,0.3c0,0.5-2.4,3.7-3.101,3.8 c-0.699,0.1-2.899-1.1-5-1c-2.1,0.2-3.6,1.2-5.6,2.9c-2,1.7-5,4-4.9,4.6c0.101,0.6,1,1,1,1l1.7,0.3L40.4,31.7 c0,0-1.301-0.9-1.801-0.8c-0.5,0-1.899,1.1-3.5,1.1s-2.8-0.9-3.4-1c-0.6-0.1-1.8-0.2-1.8-0.2s0.5-0.6,1-0.8c0.4-0.2,0.6-0.9,1.1-0.9 s1.1-0.2,1.1-0.2s-0.7-1.1-1.9-1.4c-1.2-0.3-9.1-0.5-11.3-2.8C17.7,22.9,13.3,16.7,13.7,16.4z"/><g><path fill="#B92225" d="M54.9,56.5C51.7,55.7,44.8,57.6,38.3,54.3C31.8,50.9,33.1,46,33.2,45.4c0.1-0.601,0-1.101,0-1.301 c0-0.199-1.2,0.801-1.9,2c-0.7,1.2-8.6,6.801-13.6,8.601c-3,1-6.3,1.1-8.6,0.899c1.2,1.5,2.5,2.801,3.9,4 C26.4,58.4,32.3,45.9,32.3,45.9s0.1,2.5,2.6,6.899c2.4,4.5,11.8,5.101,16.4,5.9c1.7,0.3,2.601,1.1,3.2,2c1.2-1,2.4-2,3.5-3.101 C57,57.2,56,56.7,54.9,56.5z"/><path fill="#B92225" d="M42.3,51.4c6,1,16.101-4.801,19.4-5.601c1.1-0.3,2.399-0.2,3.5,0C65.7,44.4,66.1,42.9,66.4,41.4 c-5.5-0.2-14,5.5-17.801,7.399C44.5,50.9,38.3,50.1,35.8,48.4c-2.5-1.7-1.5-3.301-1.3-4c0.1-0.801,2.3-3.801,2.8-4.5 c0.4-0.7,0.101-1.4,0-1.801c-0.2-0.399-1.8,0.5-3.2,1.2c-1.5,0.7-6.4,3.601-15.9,4.3c-6.7,0.5-13.1-2.8-16.3-4.8 c0.3,2.2,0.7,4.3,1.4,6.3c1.9,0.5,5.3,1,11,0.801c10.9-0.4,20-5.801,21.5-6.7c1.5-0.9,1.5,0,1.101,0.399 c-0.2,0.2-0.801,0.7-1.4,1.5c0-0.199,0-0.399-0.1-0.6c-0.2-0.4-1.7,1.3-3.6,2.7c-1.9,1.399-12.5,6.2-19,5.899 c-3.5-0.1-6.4-0.6-8.4-1c0.8,1.9,1.9,3.7,3.1,5.4c10.2,1.4,21.8-7.3,23-8.4c1.1-1,3.6-3.1,4-3.5c-0.2,0.2-0.8,1.2-1.1,4.801 C33.1,50.9,39.7,53.3,42,53.6C44.3,53.9,52.5,54,57.9,53.4C59.1,53.3,60.3,53.3,61.4,53.3C62.3,52,63.1,50.6,63.8,49.1 C60.2,48.2,53.2,52.3,45.2,52.7c-8.4,0.399-10.8-4.3-11.4-5.9c-0.2-0.7-0.1-1.6,0.2-2.5c0,0.3-0.1,0.5-0.1,0.8 C33.8,48.6,36.3,50.4,42.3,51.4z"/><path fill="#B92225" d="M1.6,34.7c0,0.1,0,0.2,0,0.4c5.4,4.7,17.3,7,20.7,7c3.7,0,13.3-4.899,14.4-5.199c1.1-0.301,1.5,1,1.5,2.1 c0,1-2.5,4-3.3,5.3c-0.8,1.2,0.8,2.7,2.1,3.4s6.6,1.5,10.6-1S62.2,38.1,63.8,37.5c1-0.4,2.4-0.2,3.3-0.1 C67.2,36.5,67.2,35.6,67.2,34.7c0-0.5,0-1,0-1.5c-0.7,0.1-2,0.3-4.3,0.7c-4,0.7-12.5,11.4-19.801,13.2 C38.2,48.3,35.6,46.7,35.2,45.6c-0.4-1.1,1.899-3.399,3.3-5.1s0.5-3.5-0.9-4.2c-1.3-0.7-5.1,2.101-14.5,3.5 C15.3,41,5.2,32.9,1.9,30C1.7,31.5,1.6,33.1,1.6,34.7z"/></g><g><path fill="#B92225" d="M34.4,68.1C16,68.1,1,53.1,1,34.7C1,16.3,16,1.4,34.4,1.4s33.4,15,33.4,33.4C67.8,53.2,52.8,68.1,34.4,68.1 z M34.4,2.5C16.6,2.5,2.2,17,2.2,34.7C2.2,52.5,16.6,67,34.4,67c17.8,0,32.2-14.5,32.2-32.2C66.6,17,52.1,2.5,34.4,2.5z"/></g></svg>