<svg xmlns="http://www.w3.org/2000/svg" version="1.1" id="Layer_1" x="0px" y="0px" width="70px" height="70px" viewBox="0 0 70 70" enable-background="new 0 0 70 70" xml:space="preserve"><metadata/><rect width="70" fill="none" height="70"/><path fill="#686867" d="M36.6,25.5l-1.7,2.8l0,0l-6.6,10.9c-1.9,3.7-5.8,6.3-10.3,6.3c-6.4,0-11.6-5.2-11.6-11.6S11.6,22.3,18,22.3   c5.1,0,9.4,3.2,10.9,7.8l3.7-6.2c-3.2-4.7-8.6-7.7-14.7-7.7c-4.6,0-8.8,1.7-11.9,4.6v-7.6H1v26.3c2.3,7.2,9,12.4,16.9,12.4   c6.3,0,11.9-3.301,15-8.301l0,0l0.1-0.1c0.1-0.1,0.2-0.3,0.2-0.4l1.7-2.8L37,24.8C36.8,25.1,36.7,25.3,36.6,25.5z"/><path fill="#6F9CCD" d="M42.7,40.4c2.1,3.1,5.6,5.1,9.6,5.1C58.7,45.5,63.9,40.3,63.9,34v-0.1c0-6.4-5.2-11.5-11.601-11.5   c-4.1,0-7.7,2.1-9.8,5.4l0,0L35,40.1l2-15.3c3.1-5.2,8.8-8.7,15.3-8.7c7.601,0,14,4.7,16.601,11.4v23.3h-5V47.4   C60.8,50.1,56.7,51.7,52.3,51.7c-5.1,0-9.6-2.101-12.899-5.5L42.7,40.4z"/></svg>