<svg xmlns="http://www.w3.org/2000/svg" version="1.1" width="70px" height="70px" viewBox="0 0 70 70"><g id="surface1"><path d="M 57.03125 56.53125 C 57.03125 56.53125 57 56.511719 56.980469 56.5 C 55.550781 55.660156 54.121094 54.699219 52.730469 53.601562 C 52.660156 53.550781 52.148438 53.128906 51.960938 52.96875 C 51.921875 52.929688 51.421875 52.5 51.210938 52.320312 C 43.71875 45.558594 16.269531 11.101562 15.589844 10.328125 C 15.558594 10.300781 15.539062 10.269531 15.511719 10.238281 C 14.410156 8.988281 13.878906 8.570312 8.808594 8.710938 C 3.621094 8.859375 2.769531 8.828125 2.199219 8.890625 C 1.828125 8.929688 1.238281 9.148438 1.449219 9.878906 C 1.640625 10.519531 11.488281 50.929688 14 61.210938 C 22.089844 60.230469 31.21875 59.671875 40.890625 59.671875 C 50.558594 59.671875 60.289062 60.261719 68.578125 61.308594 C 67.460938 61.03125 62.359375 59.648438 57.019531 56.53125 Z M 57.03125 56.53125 " style=" stroke:none;fill-rule:nonzero;fill:rgb(95.686275%,48.235294%,12.54902%);fill-opacity:1;"/><path d="M 19.230469 15.550781 L 15.648438 21.019531 L 9.738281 24.589844 C 9.46875 24.75 9.519531 24.890625 9.628906 25.101562 L 10.71875 27 C 10.871094 27.261719 10.980469 27.289062 11.25 27.128906 L 17.011719 23.640625 L 23.558594 23.140625 C 23.78125 23.128906 23.871094 23.109375 23.949219 23.058594 C 24.128906 22.949219 24.03125 22.769531 23.980469 22.679688 L 23.199219 21.308594 C 23.050781 21.050781 22.949219 21.039062 22.621094 21.058594 L 18.671875 21.398438 L 20.980469 18.160156 C 21.191406 17.859375 21.191406 17.800781 21.039062 17.53125 L 20.148438 15.96875 C 19.949219 15.730469 19.761719 15.488281 19.570312 15.261719 C 19.53125 15.261719 19.5 15.269531 19.460938 15.300781 C 19.378906 15.351562 19.351562 15.410156 19.230469 15.570312 Z M 19.230469 15.550781 " style=" stroke:none;fill-rule:nonzero;fill:rgb(100%,100%,100%);fill-opacity:1;"/><path d="M 24.660156 30.78125 C 24.910156 30.628906 24.859375 30.46875 24.75 30.28125 L 23.789062 28.589844 C 23.648438 28.351562 23.53125 28.359375 23.308594 28.480469 L 18.441406 31.371094 C 18.101562 31.570312 17.578125 31.859375 17.140625 31.078125 C 16.660156 30.230469 17.238281 29.871094 17.589844 29.648438 L 22.371094 26.808594 C 22.648438 26.640625 22.570312 26.460938 22.460938 26.269531 L 21.53125 24.640625 C 21.441406 24.480469 21.328125 24.328125 21.078125 24.480469 L 16.171875 27.390625 C 14.878906 28.148438 14.128906 29.328125 15.601562 31.898438 C 16.328125 33.171875 17.179688 33.941406 17.71875 34.179688 C 18.378906 34.46875 18.769531 34.25 19.351562 33.910156 L 24.660156 30.761719 Z M 24.660156 30.78125 " style=" stroke:none;fill-rule:nonzero;fill:rgb(100%,100%,100%);fill-opacity:1;"/><path d="M 24.789062 38.589844 C 24.96875 38.960938 25.199219 39.480469 25.429688 40.03125 C 24.730469 40.199219 24.121094 40.488281 23.648438 40.890625 Z M 25.96875 41.558594 C 25.488281 41.730469 25.101562 42 24.828125 42.351562 C 24.398438 42.238281 23.949219 42.101562 23.511719 41.949219 C 23.929688 41.289062 24.679688 40.828125 25.648438 40.609375 C 25.769531 40.929688 25.871094 41.25 25.960938 41.550781 Z M 26.179688 42.628906 C 25.898438 42.601562 25.601562 42.539062 25.28125 42.46875 C 25.488281 42.261719 25.75 42.089844 26.070312 41.96875 C 26.128906 42.210938 26.160156 42.429688 26.179688 42.628906 Z M 29.351562 41.011719 C 29.171875 41.21875 28.988281 41.429688 28.789062 41.628906 C 28.171875 41.421875 27.519531 41.320312 26.898438 41.378906 C 26.660156 41.109375 26.429688 40.828125 26.210938 40.550781 C 27.238281 40.441406 28.339844 40.621094 29.351562 41.019531 Z M 30 40.359375 C 30 40.359375 29.28125 41.800781 29.199219 42.980469 C 28.988281 42.960938 28.820312 42.921875 28.710938 42.871094 C 28.558594 42.808594 28.410156 42.710938 28.269531 42.621094 C 29.230469 41.839844 30 40.359375 30 40.359375 Z M 32.039062 42.921875 C 31.640625 42.949219 31.25 42.980469 30.910156 43 C 30.578125 42.628906 30.171875 42.300781 29.710938 42.039062 C 29.75 41.78125 29.808594 41.511719 29.878906 41.25 C 30.730469 41.671875 31.488281 42.238281 32.039062 42.929688 Z M 32.671875 43.929688 C 33.011719 44.699219 33.039062 45.46875 32.761719 46.128906 C 32.371094 45.898438 31.980469 45.660156 31.609375 45.421875 C 31.71875 45.058594 31.710938 44.671875 31.609375 44.261719 C 31.929688 44.148438 32.289062 44.039062 32.679688 43.929688 Z M 30.570312 44.648438 C 30.75 44.570312 30.960938 44.480469 31.210938 44.398438 C 31.28125 44.671875 31.289062 44.929688 31.238281 45.171875 C 31 45 30.769531 44.820312 30.570312 44.648438 Z M 33.601562 46.710938 C 33.601562 46.710938 31.441406 45.738281 29.851562 45.410156 C 29.871094 45.28125 29.898438 45.171875 29.949219 45.070312 C 29.988281 45 30.089844 44.910156 30.238281 44.828125 C 31.519531 45.761719 33.601562 46.71875 33.601562 46.71875 Z M 30.351562 47.828125 C 30.230469 47.519531 30.121094 47.210938 30.039062 46.898438 C 30.570312 46.730469 31 46.429688 31.289062 46.050781 C 31.71875 46.171875 32.160156 46.300781 32.601562 46.449219 C 32.171875 47.148438 31.390625 47.628906 30.359375 47.828125 Z M 30.660156 48.601562 C 30.640625 48.539062 30.609375 48.480469 30.589844 48.429688 C 30.859375 48.371094 31.109375 48.289062 31.351562 48.191406 Z M 29.828125 45.75 C 30.140625 45.789062 30.480469 45.851562 30.839844 45.941406 C 30.609375 46.191406 30.300781 46.378906 29.929688 46.5 C 29.871094 46.230469 29.839844 45.980469 29.828125 45.75 Z M 26.660156 47.398438 C 26.839844 47.191406 27.019531 46.980469 27.210938 46.789062 C 27.851562 47.019531 28.53125 47.128906 29.191406 47.078125 C 29.429688 47.351562 29.648438 47.628906 29.871094 47.910156 C 28.808594 48.019531 27.691406 47.828125 26.660156 47.410156 Z M 26.039062 48.03125 C 26.039062 48.03125 26.71875 46.5 26.808594 45.351562 C 27 45.398438 27.179688 45.460938 27.328125 45.53125 C 27.480469 45.601562 27.621094 45.679688 27.769531 45.78125 C 26.808594 46.558594 26.039062 48.039062 26.039062 48.039062 Z M 23.769531 45.148438 C 24.148438 45.128906 24.550781 45.128906 24.929688 45.128906 C 25.261719 45.609375 25.730469 46.03125 26.269531 46.351562 C 26.21875 46.621094 26.171875 46.878906 26.101562 47.148438 C 25.140625 46.660156 24.308594 45.96875 23.769531 45.148438 Z M 23.320312 42.339844 C 23.71875 42.570312 24.109375 42.808594 24.480469 43.058594 C 24.371094 43.46875 24.390625 43.898438 24.53125 44.351562 C 24.210938 44.480469 23.859375 44.601562 23.519531 44.71875 C 23.101562 43.890625 23.03125 43.058594 23.320312 42.351562 Z M 24.910156 44.171875 C 24.808594 43.871094 24.789062 43.570312 24.839844 43.300781 C 25.101562 43.480469 25.339844 43.660156 25.539062 43.839844 C 25.359375 43.949219 25.140625 44.070312 24.910156 44.179688 Z M 26.351562 45.25 C 26.359375 45.449219 26.351562 45.671875 26.339844 45.898438 C 26.011719 45.691406 25.710938 45.429688 25.46875 45.148438 C 25.78125 45.171875 26.078125 45.199219 26.351562 45.25 Z M 28.820312 46.671875 C 28.398438 46.671875 27.96875 46.601562 27.558594 46.46875 C 27.75 46.308594 27.949219 46.160156 28.148438 46.050781 C 28.371094 46.230469 28.601562 46.441406 28.820312 46.671875 Z M 29.648438 42.480469 C 29.910156 42.628906 30.140625 42.820312 30.351562 43.011719 C 30.089844 43.011719 29.859375 43.011719 29.648438 43.011719 C 29.640625 42.839844 29.640625 42.660156 29.648438 42.480469 Z M 27.269531 41.78125 C 27.660156 41.78125 28.050781 41.839844 28.429688 41.949219 C 28.25 42.101562 28.070312 42.238281 27.878906 42.351562 C 27.671875 42.179688 27.46875 41.988281 27.269531 41.78125 Z M 27.289062 42.898438 C 28.160156 42.75 29.199219 43.21875 29.621094 43.949219 C 30.039062 44.679688 29.671875 45.398438 28.789062 45.550781 C 27.921875 45.699219 26.871094 45.230469 26.460938 44.5 C 26.039062 43.769531 26.421875 43.050781 27.289062 42.898438 Z M 23.109375 41.96875 C 23.871094 42.28125 25.140625 42.761719 26.179688 42.980469 C 26.171875 43.109375 26.140625 43.230469 26.089844 43.328125 C 26.039062 43.429688 25.949219 43.53125 25.839844 43.628906 C 25.019531 43.03125 23.828125 42.390625 23.101562 42.019531 L 23.121094 41.96875 Z M 18.660156 36.050781 C 18.421875 36.191406 18.378906 36.308594 18.519531 36.558594 L 19.441406 38.179688 C 19.558594 38.398438 19.648438 38.519531 19.910156 38.371094 L 23.050781 36.511719 L 21.019531 40.359375 C 20.878906 40.640625 20.871094 40.691406 21.019531 40.960938 L 21.078125 41.058594 C 20.589844 40.859375 20.289062 40.71875 20.289062 40.71875 C 20.289062 40.71875 20.628906 40.878906 21.128906 41.140625 L 22.101562 42.839844 C 22.171875 42.960938 22.289062 43.171875 22.519531 43.039062 C 22.46875 43.640625 22.601562 44.28125 22.898438 44.910156 C 21.691406 45.269531 20.609375 45.5 20.609375 45.5 C 20.609375 45.5 21.699219 45.308594 23.058594 45.210938 C 23.671875 46.28125 24.710938 47.171875 25.921875 47.761719 C 25.621094 48.71875 25.269531 49.5 25.269531 49.5 C 25.269531 49.5 25.660156 48.75 26.261719 47.921875 C 27.539062 48.480469 28.980469 48.710938 30.300781 48.488281 C 30.351562 48.570312 30.410156 48.640625 30.460938 48.71875 L 27.058594 50.738281 C 26.808594 50.898438 26.75 51.019531 26.890625 51.28125 L 27.800781 52.878906 C 27.949219 53.121094 28.050781 53.230469 28.320312 53.070312 L 33.191406 50.179688 C 33.609375 49.929688 34.359375 49.511719 34.890625 50.429688 C 35.039062 50.691406 35.121094 51.03125 35.050781 51.320312 C 34.949219 51.671875 34.71875 51.800781 34.269531 52.070312 L 29.429688 54.941406 C 29.179688 55.089844 29.140625 55.21875 29.269531 55.449219 L 30.179688 57.050781 C 30.359375 57.359375 30.480469 57.371094 30.75 57.21875 L 35.921875 54.160156 C 36.328125 53.910156 36.960938 53.511719 37.019531 52.410156 C 37.03125 52.148438 37.058594 51.421875 36.148438 49.828125 C 35.820312 49.25 35.308594 48.53125 34.808594 48 C 33.671875 46.800781 33.199219 47.078125 32.699219 47.378906 L 32.460938 47.519531 C 32.761719 47.269531 33 46.980469 33.179688 46.648438 C 34.589844 47.148438 35.738281 47.671875 35.738281 47.671875 C 35.738281 47.671875 34.589844 47.140625 33.300781 46.429688 C 33.671875 45.609375 33.648438 44.679688 33.269531 43.75 C 34.359375 43.449219 35.640625 43.140625 36.980469 42.828125 L 37.371094 42.289062 C 35.75 42.511719 34.148438 42.71875 32.769531 42.851562 C 32.128906 41.921875 31.160156 41.160156 30.050781 40.628906 C 30.371094 39.660156 30.761719 38.890625 30.761719 38.890625 C 30.761719 38.890625 30.359375 39.648438 29.738281 40.488281 C 28.480469 39.949219 27.058594 39.730469 25.769531 39.949219 C 25.371094 39.398438 25.039062 38.878906 24.808594 38.519531 L 25.121094 37.878906 L 28.761719 38.558594 C 28.890625 38.578125 29.039062 38.609375 29.160156 38.53125 C 29.371094 38.410156 29.25 38.191406 29.191406 38.078125 L 28.488281 36.851562 C 28.300781 36.539062 28.210938 36.519531 27.828125 36.449219 L 24.070312 35.859375 L 31.960938 31.179688 C 32.230469 31.019531 32.171875 30.878906 32.039062 30.648438 L 31.78125 30.191406 C 31.421875 29.75 31.050781 29.308594 30.691406 28.878906 C 30.679688 28.878906 30.671875 28.878906 30.660156 28.898438 L 18.648438 36.03125 Z M 18.660156 36.050781 " style=" stroke:none;fill-rule:nonzero;fill:rgb(100%,100%,100%);fill-opacity:1;"/></g></svg>