<svg xmlns="http://www.w3.org/2000/svg" width="70" height="70" version="1.1" viewBox="0 0 70 70" xml:space="preserve" style="fill-rule:evenodd;clip-rule:evenodd;stroke-linejoin:round;stroke-miterlimit:2"><rect id="_4N---Expedia---70x70--2019Dec3-" width="70" height="70" x="0" y="0" style="fill:none"/><g><path d="M28.598,44.776c-0.137,-0.086 -0.274,-0.164 -0.411,-0.227c-0.144,-0.064 -0.311,-0.115 -0.488,-0.164c-0.085,1.06 -0.724,2.468 -0.724,2.468c0,0 0.72,-1.359 1.623,-2.077Z" style="fill:#f47b20;fill-rule:nonzero"/><path d="M25.916,43.311c0.219,-0.101 0.422,-0.205 0.593,-0.31c-0.191,-0.161 -0.416,-0.325 -0.661,-0.493c-0.046,0.253 -0.025,0.524 0.068,0.803Z" style="fill:#f47b20;fill-rule:nonzero"/><path d="M28.078,45.714c-0.18,0.178 -0.354,0.37 -0.518,0.564c0.962,0.389 2.017,0.564 3.01,0.462c-0.203,-0.26 -0.418,-0.517 -0.638,-0.763c-0.612,0.047 -1.255,-0.053 -1.854,-0.263Z" style="fill:#f47b20;fill-rule:nonzero"/><path d="M30.722,45.819c0.08,0.282 0.185,0.571 0.293,0.855c0.967,-0.184 1.7,-0.632 2.103,-1.274c-0.404,-0.133 -0.82,-0.258 -1.224,-0.366c-0.27,0.357 -0.674,0.627 -1.172,0.785Z" style="fill:#f47b20;fill-rule:nonzero"/><path d="M30.642,44.13c-0.045,0.091 -0.078,0.199 -0.095,0.315c1.497,0.308 3.521,1.197 3.521,1.197c0,0 -1.956,-0.879 -3.154,-1.736c-0.14,0.078 -0.233,0.158 -0.272,0.224Z" style="fill:#f47b20;fill-rule:nonzero"/><path d="M27.255,44.897c0.02,-0.21 0.024,-0.412 0.013,-0.596c-0.261,-0.044 -0.537,-0.076 -0.828,-0.092c0.228,0.26 0.507,0.493 0.815,0.688Z" style="fill:#f47b20;fill-rule:nonzero"/><path d="M31.308,47.38l0.643,-0.373c-0.222,0.089 -0.46,0.162 -0.711,0.215c0.024,0.052 0.045,0.104 0.068,0.158Z" style="fill:#f47b20;fill-rule:nonzero"/><path d="M27.196,45.307c-0.506,-0.293 -0.947,-0.678 -1.26,-1.119c-0.359,-0.005 -0.728,0.003 -1.089,0.019c0.512,0.754 1.29,1.388 2.187,1.839c0.064,-0.248 0.119,-0.493 0.162,-0.739Z" style="fill:#f47b20;fill-rule:nonzero"/><path d="M27.373,43.605c0.388,0.672 1.369,1.105 2.186,0.967c0.816,-0.14 1.163,-0.798 0.773,-1.472c-0.389,-0.672 -1.366,-1.102 -2.184,-0.965c-0.818,0.14 -1.166,0.8 -0.775,1.47Z" style="fill:#f47b20;fill-rule:nonzero"/><path d="M25.507,42.281c-0.343,-0.227 -0.71,-0.448 -1.085,-0.661c-0.274,0.658 -0.209,1.421 0.183,2.182c0.328,-0.11 0.652,-0.221 0.952,-0.34c-0.138,-0.405 -0.156,-0.808 -0.05,-1.181Z" style="fill:#f47b20;fill-rule:nonzero"/><path d="M29.223,41.264c-0.359,-0.1 -0.727,-0.155 -1.092,-0.158c0.191,0.189 0.383,0.366 0.576,0.522c0.175,-0.1 0.348,-0.224 0.516,-0.364Z" style="fill:#f47b20;fill-rule:nonzero"/><path d="M28.399,45.419c0.387,0.116 0.787,0.179 1.182,0.183c-0.209,-0.209 -0.421,-0.401 -0.63,-0.567c-0.188,0.104 -0.372,0.235 -0.552,0.384Z" style="fill:#f47b20;fill-rule:nonzero"/><path d="M31.014,42.242c-0.195,-0.178 -0.417,-0.349 -0.657,-0.491c-0.014,0.171 -0.011,0.333 0,0.49c0.197,0.008 0.414,0.008 0.657,0.001Z" style="fill:#f47b20;fill-rule:nonzero"/><path d="M30.532,44.761c0.006,0.208 0.039,0.443 0.094,0.689c0.351,-0.115 0.644,-0.29 0.855,-0.516c-0.335,-0.08 -0.656,-0.138 -0.949,-0.173Z" style="fill:#f47b20;fill-rule:nonzero"/><path d="M25.797,38.174l-1.071,2.118c0.444,-0.368 1.013,-0.639 1.671,-0.792c-0.213,-0.511 -0.432,-0.982 -0.6,-1.326Z" style="fill:#f47b20;fill-rule:nonzero"/><path d="M26.907,40.911c-0.084,-0.278 -0.185,-0.571 -0.294,-0.864c-0.912,0.195 -1.613,0.62 -2.01,1.228c0.409,0.135 0.829,0.261 1.233,0.364c0.255,-0.321 0.622,-0.571 1.071,-0.728Z" style="fill:#f47b20;fill-rule:nonzero"/><path d="M27.101,41.893c-0.013,-0.185 -0.047,-0.394 -0.099,-0.611c-0.302,0.108 -0.551,0.267 -0.745,0.461c0.298,0.066 0.584,0.12 0.844,0.15Z" style="fill:#f47b20;fill-rule:nonzero"/><path d="M19.177,34.14c-0.504,-0.224 -1.305,-0.929 -1.986,-2.098c-1.374,-2.364 -0.671,-3.447 0.538,-4.149l4.605,-2.678c0.237,-0.139 0.338,0.002 0.421,0.147l0.873,1.498c0.099,0.174 0.179,0.338 -0.087,0.496l-4.486,2.607c-0.331,0.196 -0.878,0.532 -0.425,1.313c0.417,0.718 0.901,0.454 1.22,0.267l4.565,-2.655c0.2,-0.115 0.318,-0.128 0.448,0.097l0.902,1.552c0.1,0.172 0.151,0.322 -0.086,0.461l-4.977,2.896c-0.545,0.312 -0.911,0.513 -1.525,0.246Zm36.483,20.66c-0.014,-0.008 -0.028,-0.016 -0.042,-0.024c-1.336,-0.77 -2.686,-1.656 -3.985,-2.667c-0.062,-0.049 -0.124,-0.097 -0.186,-0.146c-0.179,-0.142 -0.358,-0.285 -0.534,-0.432c-0.041,-0.033 -0.081,-0.067 -0.121,-0.101c-0.194,-0.163 -0.388,-0.328 -0.58,-0.498c-3.281,-2.902 -10.629,-11.342 -17.603,-19.596c-0.021,0.015 -0.043,0.031 -0.07,0.046l-7.401,4.305l3.53,0.541c0.353,0.059 0.438,0.082 0.619,0.366l0.655,1.128c0.056,0.094 0.172,0.296 -0.026,0.41c-0.118,0.069 -0.259,0.043 -0.379,0.025l-3.416,-0.626l-0.295,0.587c0.213,0.334 0.525,0.805 0.896,1.314c1.213,-0.202 2.538,0.001 3.724,0.494c0.574,-0.77 0.953,-1.47 0.953,-1.47c0,0 -0.361,0.707 -0.662,1.598c1.041,0.488 1.949,1.188 2.553,2.04c1.293,-0.12 2.789,-0.307 4.313,-0.513l-0.364,0.499c-1.256,0.287 -2.457,0.575 -3.483,0.849c0.363,0.853 0.378,1.713 0.033,2.464c1.214,0.654 2.292,1.137 2.292,1.137c0,0 -1.083,-0.476 -2.402,-0.938c-0.169,0.302 -0.395,0.57 -0.673,0.803l0.22,-0.127c0.477,-0.278 0.914,-0.534 1.983,0.571c0.475,0.484 0.951,1.148 1.26,1.679c0.849,1.458 0.831,2.129 0.812,2.371c-0.033,1.013 -0.649,1.387 -1.032,1.614l-4.845,2.816c-0.253,0.144 -0.37,0.126 -0.534,-0.155l-0.855,-1.473c-0.125,-0.213 -0.09,-0.335 0.148,-0.473l4.538,-2.642c0.425,-0.247 0.638,-0.368 0.733,-0.692c0.06,-0.267 -0.014,-0.577 -0.152,-0.818c-0.496,-0.848 -1.194,-0.458 -1.591,-0.228l-4.567,2.655c-0.253,0.145 -0.347,0.042 -0.492,-0.178l-0.856,-1.471c-0.137,-0.236 -0.078,-0.345 0.156,-0.497l3.193,-1.859c-0.048,-0.068 -0.097,-0.138 -0.147,-0.209c-1.234,0.203 -2.583,-0.012 -3.786,-0.525c-0.565,0.762 -0.932,1.453 -0.932,1.453c0,0 0.324,-0.717 0.609,-1.603c-1.138,-0.549 -2.117,-1.365 -2.687,-2.349c-0.002,-0.004 -0.004,-0.009 -0.004,-0.009c-1.268,0.097 -2.293,0.269 -2.293,0.269c0,0 1.019,-0.209 2.152,-0.542c-0.282,-0.579 -0.402,-1.163 -0.359,-1.719c-0.005,0.001 -0.007,0.006 -0.009,0.006c-0.213,0.126 -0.33,-0.073 -0.392,-0.18l-0.908,-1.561c-0.476,-0.244 -0.792,-0.39 -0.792,-0.39c0,0 0.288,0.127 0.745,0.308l-0.057,-0.096c-0.145,-0.253 -0.135,-0.295 0,-0.552l1.904,-3.538l-2.947,1.713c-0.24,0.138 -0.321,0.03 -0.436,-0.171l-0.865,-1.486c-0.132,-0.228 -0.091,-0.34 0.134,-0.468l10.968,-6.383c-3.178,-3.779 -6.204,-7.425 -8.643,-10.376c-0.007,0.079 -0.057,0.162 -0.155,0.299l-2.17,2.984l3.707,-0.311c0.308,-0.017 0.406,-0.003 0.544,0.233l0.733,1.262c0.054,0.092 0.148,0.251 -0.025,0.354c-0.079,0.045 -0.161,0.058 -0.365,0.07l-6.143,0.462l-5.405,3.209c-0.253,0.146 -0.358,0.118 -0.496,-0.12l-1.019,-1.751c-0.106,-0.187 -0.152,-0.32 0.101,-0.467l5.537,-3.284l3.361,-5.029c0.012,-0.017 0.023,-0.032 0.033,-0.047c-2.228,-2.704 -3.673,-4.47 -3.818,-4.632c-0.026,-0.028 -0.051,-0.056 -0.075,-0.084l-0.001,0c-1.035,-1.151 -1.527,-1.536 -6.282,-1.404c-4.87,0.136 -5.665,0.115 -6.197,0.169c-0.35,0.036 -0.904,0.237 -0.702,0.914c0.178,0.59 9.419,37.747 11.77,47.202c7.589,-0.904 16.153,-1.413 25.218,-1.413c9.364,0 18.196,0.543 25.969,1.504c-1.054,-0.257 -5.838,-1.525 -10.84,-4.4Z" style="fill:#f47b20;fill-rule:nonzero"/><path d="M27.016,42.531c0.047,-0.088 0.073,-0.196 0.085,-0.32c-0.97,-0.203 -2.161,-0.647 -2.875,-0.931l-0.021,0.043c0.685,0.342 1.801,0.936 2.574,1.483c0.105,-0.092 0.188,-0.183 0.237,-0.275Z" style="fill:#f47b20;fill-rule:nonzero"/><path d="M29.059,41.881c0.137,0.089 0.276,0.173 0.414,0.232c0.105,0.046 0.262,0.08 0.46,0.101c0.074,-1.079 0.751,-2.407 0.751,-2.407c0,0 -0.727,1.359 -1.625,2.074Z" style="fill:#f47b20;fill-rule:nonzero"/><path d="M30.406,41.341c0.43,0.238 0.818,0.542 1.128,0.885c0.326,-0.014 0.685,-0.04 1.063,-0.071c-0.521,-0.632 -1.229,-1.159 -2.03,-1.541c-0.065,0.239 -0.121,0.484 -0.161,0.727Z" style="fill:#f47b20;fill-rule:nonzero"/><path d="M29.551,40.965c0.182,-0.178 0.358,-0.371 0.523,-0.566c-0.945,-0.367 -1.971,-0.532 -2.941,-0.43c0.202,0.259 0.42,0.516 0.642,0.764c0.586,-0.049 1.197,0.043 1.776,0.232Z" style="fill:#f47b20;fill-rule:nonzero"/><path d="M32.193,44.452c0.343,0.225 0.711,0.446 1.079,0.655c0.266,-0.609 0.236,-1.313 -0.082,-2.023c-0.364,0.106 -0.698,0.207 -1,0.305c0.1,0.369 0.101,0.73 0.003,1.063Z" style="fill:#f47b20;fill-rule:nonzero"/><path d="M31.824,43.515c-0.229,0.077 -0.431,0.16 -0.599,0.234c0.185,0.157 0.398,0.317 0.626,0.477c0.045,-0.228 0.035,-0.466 -0.027,-0.711Z" style="fill:#f47b20;fill-rule:nonzero"/></g></svg>