<svg xmlns="http://www.w3.org/2000/svg" version="1.1" width="70px" height="70px" viewBox="0 0 70 70"><g id="surface1"><path d="M 44.148438 7.324219 C 44.535156 7.972656 44.710938 8.761719 44.726562 9.695312 C 44.703125 10.660156 44.515625 11.535156 44.105469 12.199219 C 43.628906 12.867188 43.113281 13.019531 42.511719 12.941406 C 42.03125 12.816406 41.613281 12.519531 41.304688 11.84375 C 41.023438 11.160156 40.9375 10.597656 40.972656 9.765625 C 41.015625 9.429688 41.070312 9.101562 41.160156 8.789062 C 40.175781 8.921875 39.417969 10.089844 38.734375 11.234375 C 38.695312 11.292969 38.660156 11.355469 38.621094 11.421875 C 38.355469 11.871094 38.121094 12.355469 37.894531 12.859375 C 37.855469 12.945312 37.816406 13.027344 37.777344 13.117188 C 36.671875 15.578125 35.917969 18.371094 35.234375 21.246094 C 35.21875 21.304688 35.203125 21.367188 35.1875 21.429688 C 34.050781 26.191406 33.046875 31.066406 32.292969 36.058594 C 32.265625 36.230469 32.242188 36.40625 32.214844 36.578125 C 32.199219 36.683594 32.199219 36.683594 32.183594 36.792969 C 32.152344 36.953125 32.152344 36.953125 32.105469 37.035156 C 32.007812 37.042969 31.90625 37.042969 31.804688 37.042969 C 31.746094 37.042969 31.683594 37.042969 31.621094 37.042969 C 31.558594 37.042969 31.492188 37.039062 31.425781 37.039062 C 31.363281 37.039062 31.296875 37.039062 31.230469 37.039062 C 31.074219 37.039062 30.914062 37.035156 30.753906 37.035156 C 30.472656 36.082031 30.21875 35.117188 29.972656 34.136719 C 29.9375 33.984375 29.898438 33.835938 29.863281 33.6875 C 29.769531 33.324219 29.679688 32.957031 29.589844 32.589844 C 29.546875 32.417969 29.5 32.242188 29.457031 32.066406 C 29.09375 30.613281 28.738281 29.15625 28.378906 27.695312 C 28.058594 26.398438 27.742188 25.101562 27.417969 23.808594 C 27.367188 23.613281 27.320312 23.414062 27.269531 23.214844 C 26.738281 21.074219 26.195312 18.9375 25.609375 16.835938 C 25.480469 16.378906 25.480469 16.378906 25.480469 16.199219 C 25.449219 16.199219 25.417969 16.199219 25.386719 16.199219 C 25.378906 16.257812 25.375 16.316406 25.367188 16.378906 C 25.34375 16.582031 25.3125 16.765625 25.273438 16.960938 C 25.253906 17.066406 25.253906 17.066406 25.230469 17.167969 C 25.214844 17.242188 25.203125 17.316406 25.1875 17.394531 C 25.164062 17.511719 25.164062 17.511719 25.140625 17.628906 C 25.085938 17.886719 25.035156 18.140625 24.984375 18.394531 C 24.964844 18.484375 24.949219 18.570312 24.929688 18.660156 C 24.445312 21.035156 23.914062 23.367188 23.285156 25.640625 C 23.261719 25.734375 23.261719 25.734375 23.234375 25.828125 C 23.144531 26.148438 23.054688 26.464844 22.960938 26.78125 C 22.925781 26.894531 22.894531 27.007812 22.863281 27.117188 C 22.167969 29.515625 21.3125 31.746094 20.253906 33.699219 C 20.210938 33.773438 20.171875 33.851562 20.128906 33.929688 C 19.214844 35.574219 18.113281 36.574219 16.847656 37.117188 C 16.792969 37.140625 16.792969 37.140625 16.738281 37.164062 C 16.394531 37.300781 16.058594 37.304688 15.710938 37.304688 C 15.621094 37.304688 15.621094 37.304688 15.535156 37.308594 C 14.859375 37.308594 14.253906 37.058594 13.75 36.242188 C 13.417969 35.617188 13.257812 34.855469 13.25 34.007812 C 13.277344 33.070312 13.457031 32.183594 13.851562 31.519531 C 14.34375 30.828125 14.925781 30.675781 15.539062 30.765625 C 16.078125 30.941406 16.484375 31.367188 16.800781 32.152344 C 17.039062 32.769531 17.023438 33.46875 16.988281 34.1875 C 16.953125 34.429688 16.910156 34.613281 16.847656 34.835938 C 17.519531 34.941406 18.15625 34.125 18.652344 33.414062 C 19.226562 32.566406 19.75 31.628906 20.199219 30.574219 C 20.25 30.445312 20.308594 30.320312 20.363281 30.195312 C 20.824219 29.144531 21.203125 28.023438 21.558594 26.859375 C 21.597656 26.742188 21.597656 26.742188 21.632812 26.625 C 22.644531 23.324219 23.46875 19.855469 24.1875 16.332031 C 24.242188 16.078125 24.292969 15.824219 24.347656 15.570312 C 24.410156 15.265625 24.476562 14.960938 24.539062 14.652344 C 24.5625 14.539062 24.585938 14.425781 24.609375 14.3125 C 24.765625 13.574219 24.808594 13.039062 24.640625 12.289062 C 24.621094 12.203125 24.601562 12.113281 24.582031 12.023438 C 24.277344 10.976562 23.910156 9.925781 23.28125 9.433594 C 23.246094 9.402344 23.210938 9.375 23.171875 9.347656 C 22.742188 9.011719 22.328125 8.847656 21.863281 8.769531 C 21.6875 8.738281 21.582031 8.6875 21.421875 8.546875 C 21.40625 8.089844 21.390625 7.632812 21.375 7.164062 C 23.28125 7.164062 25.191406 7.164062 27.160156 7.164062 C 27.371094 7.894531 27.371094 7.894531 27.453125 8.265625 C 27.472656 8.351562 27.492188 8.433594 27.511719 8.519531 C 27.53125 8.609375 27.554688 8.699219 27.574219 8.789062 C 28.335938 12.082031 29.207031 15.289062 30.101562 18.472656 C 30.257812 19.03125 30.410156 19.589844 30.566406 20.148438 C 30.683594 20.578125 30.800781 21.003906 30.917969 21.429688 C 31.472656 23.417969 32.003906 25.417969 32.527344 27.429688 C 32.71875 26.664062 32.878906 25.878906 33.035156 25.089844 C 33.953125 20.527344 35.042969 15.921875 36.726562 12.046875 C 36.75 11.996094 36.769531 11.945312 36.792969 11.890625 C 37.105469 11.167969 37.441406 10.503906 37.800781 9.847656 C 37.828125 9.792969 37.859375 9.734375 37.890625 9.675781 C 39.25 7.144531 42.367188 4.8125 44.148438 7.324219 Z M 44.148438 7.324219 " style=" stroke:none;fill-rule:nonzero;fill:rgb(0%,40.784314%,69.803923%);fill-opacity:1;"/><path d="M 27.300781 26.617188 C 27.441406 26.699219 27.441406 26.699219 27.523438 26.96875 C 27.554688 27.085938 27.582031 27.203125 27.613281 27.316406 C 27.628906 27.375 27.640625 27.433594 27.65625 27.492188 C 27.671875 27.546875 27.6875 27.605469 27.699219 27.664062 C 27.71875 27.738281 27.71875 27.738281 27.738281 27.816406 C 27.832031 28.4375 27.707031 28.984375 27.597656 29.578125 C 27.570312 29.730469 27.542969 29.882812 27.515625 30.035156 C 27.484375 30.199219 27.457031 30.359375 27.425781 30.523438 C 27.324219 31.089844 27.222656 31.660156 27.125 32.226562 C 27.113281 32.285156 27.101562 32.34375 27.09375 32.402344 C 26.84375 33.808594 26.613281 35.222656 26.386719 36.636719 C 26.367188 36.765625 26.367188 36.765625 26.347656 36.898438 C 26.320312 37.0625 26.292969 37.222656 26.269531 37.382812 C 26.253906 37.488281 26.253906 37.488281 26.234375 37.597656 C 26.226562 37.65625 26.214844 37.71875 26.207031 37.78125 C 26.179688 37.929688 26.179688 37.929688 26.132812 38.09375 C 26.179688 38.105469 26.230469 38.117188 26.277344 38.128906 C 27.585938 38.476562 28.828125 39.539062 29.632812 41.429688 C 29.785156 41.328125 29.921875 41.21875 30.058594 41.066406 C 30.117188 41.003906 30.117188 41.003906 30.175781 40.9375 C 30.214844 40.894531 30.257812 40.847656 30.296875 40.800781 C 30.363281 40.726562 30.363281 40.726562 30.429688 40.652344 C 30.851562 40.179688 31.269531 39.695312 31.6875 39.210938 C 31.71875 39.175781 31.75 39.136719 31.785156 39.097656 C 32.226562 38.589844 32.660156 38.0625 33.085938 37.523438 C 33.117188 37.550781 33.148438 37.578125 33.179688 37.605469 C 32.921875 37.976562 32.667969 38.339844 32.398438 38.6875 C 32.085938 39.089844 31.785156 39.511719 31.484375 39.9375 C 31.378906 40.082031 31.273438 40.230469 31.167969 40.378906 C 30.960938 40.667969 30.757812 40.964844 30.554688 41.265625 C 30.347656 41.574219 30.132812 41.871094 29.914062 42.164062 C 29.9375 42.257812 29.964844 42.355469 29.988281 42.457031 C 30.492188 44.460938 30.648438 46.46875 30.460938 48.648438 C 30.457031 48.710938 30.453125 48.769531 30.445312 48.832031 C 30.390625 49.414062 30.289062 49.980469 30.191406 50.546875 C 31.296875 50.71875 32.398438 50.855469 33.507812 50.953125 C 33.507812 50.980469 33.507812 51.007812 33.507812 51.035156 C 33.476562 51.039062 33.445312 51.039062 33.417969 51.042969 C 33.105469 51.074219 32.792969 51.105469 32.480469 51.132812 C 32.363281 51.144531 32.25 51.15625 32.132812 51.167969 C 31.964844 51.183594 31.796875 51.203125 31.628906 51.21875 C 31.578125 51.222656 31.527344 51.226562 31.472656 51.234375 C 31.183594 51.261719 30.890625 51.296875 30.601562 51.34375 C 30.402344 51.371094 30.207031 51.367188 30.007812 51.359375 C 30 51.402344 29.992188 51.449219 29.984375 51.492188 C 29.546875 53.871094 28.65625 55.929688 27.671875 57.710938 C 27.644531 57.761719 27.617188 57.808594 27.589844 57.863281 C 27.230469 58.507812 26.867188 59.113281 26.460938 59.664062 C 26.382812 59.769531 26.304688 59.878906 26.226562 59.988281 C 26.273438 60.503906 26.414062 60.945312 26.542969 61.414062 C 26.558594 61.460938 26.570312 61.507812 26.585938 61.558594 C 26.796875 62.324219 27.023438 63.066406 27.277344 63.792969 C 27.296875 63.855469 27.320312 63.921875 27.34375 63.988281 C 27.375 64.074219 27.375 64.074219 27.402344 64.160156 C 27.414062 64.207031 27.425781 64.253906 27.441406 64.300781 C 27.425781 64.355469 27.410156 64.410156 27.394531 64.464844 C 27.363281 64.398438 27.332031 64.332031 27.300781 64.261719 C 26.867188 63.285156 26.421875 62.324219 25.964844 61.378906 C 25.941406 61.328125 25.917969 61.28125 25.894531 61.230469 C 25.757812 60.953125 25.757812 60.953125 25.574219 60.800781 C 25.484375 60.863281 25.484375 60.863281 25.390625 60.96875 C 25.355469 61.003906 25.320312 61.042969 25.28125 61.082031 C 25.222656 61.140625 25.222656 61.140625 25.164062 61.203125 C 25.082031 61.289062 25.003906 61.371094 24.921875 61.457031 C 24.859375 61.519531 24.859375 61.519531 24.800781 61.582031 C 23.367188 63.058594 21.773438 63.871094 20.113281 63.976562 C 19.535156 65.9375 19.046875 67.957031 18.574219 70 C 18.511719 69.6875 18.550781 69.5625 18.609375 69.25 C 18.617188 69.199219 18.625 69.148438 18.636719 69.09375 C 18.65625 68.984375 18.675781 68.871094 18.695312 68.761719 C 18.75 68.460938 18.804688 68.160156 18.855469 67.859375 C 18.875 67.765625 18.875 67.765625 18.890625 67.667969 C 19.042969 66.785156 19.179688 65.898438 19.3125 65.007812 C 19.328125 64.914062 19.328125 64.914062 19.34375 64.820312 C 19.359375 64.703125 19.378906 64.585938 19.394531 64.46875 C 19.453125 64.074219 19.453125 64.074219 19.507812 63.894531 C 19.433594 63.882812 19.433594 63.882812 19.359375 63.871094 C 17.855469 63.609375 16.601562 62.527344 15.632812 60.476562 C 15.308594 60.832031 14.984375 61.183594 14.660156 61.539062 C 14.539062 61.671875 14.417969 61.800781 14.296875 61.933594 C 13.546875 62.746094 12.820312 63.609375 12.085938 64.464844 C 12.054688 64.4375 12.023438 64.410156 11.992188 64.382812 C 12.277344 63.96875 12.566406 63.570312 12.863281 63.1875 C 13.238281 62.703125 13.597656 62.183594 13.960938 61.660156 C 14.078125 61.492188 14.195312 61.320312 14.316406 61.152344 C 14.535156 60.839844 14.75 60.523438 14.964844 60.203125 C 15.074219 60.039062 15.183594 59.886719 15.308594 59.746094 C 15.277344 59.398438 15.207031 59.113281 15.128906 58.792969 C 14.582031 56.5 14.683594 54.042969 15.027344 51.6875 C 15.042969 51.632812 15.058594 51.578125 15.074219 51.523438 C 15.035156 51.519531 14.992188 51.515625 14.953125 51.515625 C 14.421875 51.464844 13.890625 51.382812 13.359375 51.292969 C 12.796875 51.199219 12.230469 51.113281 11.667969 51.035156 C 11.667969 51.007812 11.667969 50.980469 11.667969 50.953125 C 11.695312 50.949219 11.722656 50.949219 11.75 50.945312 C 12.050781 50.917969 12.347656 50.886719 12.648438 50.859375 C 12.757812 50.847656 12.867188 50.835938 12.980469 50.824219 C 13.546875 50.769531 14.113281 50.710938 14.679688 50.625 C 14.71875 50.617188 14.761719 50.613281 14.808594 50.605469 C 14.847656 50.597656 14.886719 50.59375 14.925781 50.585938 C 14.960938 50.578125 14.996094 50.574219 15.03125 50.570312 C 15.128906 50.550781 15.128906 50.550781 15.261719 50.464844 C 15.324219 50.246094 15.378906 50.03125 15.433594 49.804688 C 15.945312 47.722656 16.683594 45.800781 17.621094 44.226562 C 17.695312 44.105469 17.695312 44.105469 17.777344 43.914062 C 17.886719 43.679688 18.011719 43.492188 18.144531 43.292969 C 18.25 43.132812 18.355469 42.96875 18.460938 42.804688 C 18.628906 42.539062 18.804688 42.304688 18.992188 42.082031 C 18.691406 40.742188 18.328125 39.457031 17.90625 38.222656 C 17.882812 38.152344 17.859375 38.085938 17.835938 38.015625 C 17.8125 37.957031 17.792969 37.894531 17.773438 37.835938 C 17.757812 37.785156 17.746094 37.738281 17.734375 37.6875 C 17.75 37.632812 17.765625 37.578125 17.78125 37.523438 C 17.835938 37.65625 17.894531 37.789062 17.949219 37.921875 C 18 38.035156 18.050781 38.152344 18.101562 38.269531 C 18.230469 38.566406 18.355469 38.867188 18.484375 39.164062 C 18.730469 39.746094 18.984375 40.316406 19.253906 40.863281 C 19.410156 41.171875 19.410156 41.171875 19.460938 41.347656 C 19.628906 41.242188 19.769531 41.109375 19.917969 40.9375 C 21.203125 39.492188 22.933594 37.96875 24.5 38.09375 C 24.511719 38.027344 24.523438 37.960938 24.535156 37.894531 C 24.605469 37.542969 24.691406 37.203125 24.777344 36.863281 C 24.804688 36.753906 24.804688 36.753906 24.832031 36.644531 C 24.871094 36.492188 24.910156 36.339844 24.949219 36.1875 C 25.011719 35.949219 25.074219 35.707031 25.132812 35.46875 C 25.296875 34.832031 25.457031 34.195312 25.621094 33.558594 C 26.015625 32.003906 26.386719 30.429688 26.761719 28.859375 C 26.9375 28.109375 27.117188 27.363281 27.300781 26.617188 Z M 25.851562 39.800781 C 25.730469 40.742188 25.605469 41.683594 25.480469 42.652344 C 25.664062 42.785156 25.847656 42.917969 26.039062 43.058594 C 26.386719 43.363281 26.691406 43.722656 26.972656 44.199219 C 27.566406 43.703125 28.132812 43.144531 28.699219 42.570312 C 28.699219 42.183594 28.558594 42.003906 28.410156 41.730469 C 27.699219 40.542969 26.804688 40.058594 25.851562 39.800781 Z M 22.707031 40.511719 C 21.867188 41.011719 20.945312 41.664062 20.253906 42.652344 C 20.238281 42.894531 20.238281 42.894531 20.320312 43.042969 C 20.421875 43.210938 20.523438 43.382812 20.625 43.546875 C 20.664062 43.605469 20.699219 43.660156 20.738281 43.722656 C 20.789062 43.800781 20.789062 43.800781 20.84375 43.882812 C 20.878906 43.929688 20.910156 43.980469 20.945312 44.03125 C 21.042969 44.136719 21.042969 44.136719 21.152344 44.070312 C 21.195312 44.03125 21.234375 43.992188 21.28125 43.953125 C 21.339844 43.902344 21.398438 43.847656 21.460938 43.796875 C 21.507812 43.753906 21.507812 43.753906 21.5625 43.707031 C 21.597656 43.675781 21.632812 43.644531 21.671875 43.613281 C 21.710938 43.578125 21.746094 43.542969 21.785156 43.507812 C 22.003906 43.324219 22.199219 43.199219 22.4375 43.136719 C 22.917969 43.011719 22.917969 43.011719 23.300781 42.523438 C 23.597656 41.769531 23.796875 40.894531 23.988281 40.046875 C 23.695312 39.792969 23.007812 40.339844 22.707031 40.511719 Z M 19.507812 42.40625 C 19.554688 42.570312 19.554688 42.570312 19.554688 42.570312 Z M 19.554688 42.570312 C 19.617188 42.941406 19.707031 43.277344 19.804688 43.625 C 20.167969 44.910156 20.429688 46.226562 20.625 47.617188 C 20.636719 47.6875 20.648438 47.761719 20.660156 47.835938 C 20.679688 47.980469 20.699219 48.125 20.71875 48.265625 C 21.167969 47.933594 21.5625 47.429688 21.839844 46.722656 C 21.78125 46.414062 21.71875 46.371094 21.566406 46.191406 C 20.941406 45.414062 20.386719 44.367188 19.925781 43.300781 C 19.863281 43.160156 19.800781 43.019531 19.738281 42.878906 C 19.714844 42.820312 19.6875 42.761719 19.660156 42.699219 C 19.640625 42.65625 19.621094 42.613281 19.601562 42.570312 C 19.585938 42.570312 19.570312 42.570312 19.554688 42.570312 Z M 28.933594 42.8125 C 28.917969 42.867188 28.902344 42.921875 28.886719 42.976562 C 28.933594 42.949219 28.980469 42.921875 29.027344 42.894531 C 28.996094 42.867188 28.964844 42.839844 28.933594 42.8125 Z M 28.511719 43.308594 C 27.445312 44.570312 26.308594 45.65625 25.152344 46.640625 C 25.15625 47.261719 25.226562 47.65625 25.480469 48.105469 C 25.527344 48.160156 25.574219 48.210938 25.621094 48.265625 C 25.917969 47.757812 25.917969 47.757812 26.195312 47.21875 C 26.394531 46.8125 26.625 46.464844 26.851562 46.109375 C 26.925781 45.988281 27.003906 45.863281 27.078125 45.738281 C 27.351562 45.296875 27.625 44.871094 27.914062 44.464844 C 28.066406 44.25 28.21875 44.03125 28.367188 43.8125 C 28.390625 43.773438 28.417969 43.738281 28.441406 43.699219 C 28.597656 43.472656 28.746094 43.230469 28.886719 42.976562 C 28.734375 42.976562 28.628906 43.160156 28.511719 43.308594 Z M 28.824219 43.769531 C 28.785156 43.835938 28.742188 43.902344 28.699219 43.972656 C 28.675781 44.007812 28.65625 44.046875 28.632812 44.082031 C 28.558594 44.203125 28.480469 44.320312 28.40625 44.441406 C 28.125 44.890625 27.847656 45.347656 27.578125 45.824219 C 27.59375 45.902344 27.59375 45.902344 27.609375 45.984375 C 27.628906 46.089844 27.628906 46.089844 27.648438 46.195312 C 27.660156 46.265625 27.671875 46.335938 27.683594 46.40625 C 27.757812 46.886719 27.773438 47.359375 27.769531 47.851562 C 27.769531 47.910156 27.769531 47.96875 27.769531 48.03125 C 27.769531 48.214844 27.769531 48.402344 27.769531 48.589844 C 27.769531 48.714844 27.769531 48.839844 27.769531 48.96875 C 27.769531 49.277344 27.769531 49.585938 27.765625 49.894531 C 27.957031 49.964844 28.144531 50.03125 28.335938 50.097656 C 28.390625 50.117188 28.441406 50.136719 28.5 50.15625 C 28.574219 50.183594 28.574219 50.183594 28.65625 50.214844 C 28.703125 50.230469 28.75 50.246094 28.800781 50.265625 C 28.925781 50.300781 29.039062 50.308594 29.167969 50.300781 C 29.617188 48.152344 29.722656 45.75 29.167969 43.628906 C 29.144531 43.546875 29.144531 43.546875 29.121094 43.464844 C 28.976562 43.464844 28.929688 43.605469 28.824219 43.769531 Z M 19.152344 44.121094 C 19.003906 44.355469 18.859375 44.585938 18.707031 44.8125 C 18.34375 45.371094 18.035156 45.976562 17.734375 46.640625 C 17.695312 46.722656 17.65625 46.800781 17.621094 46.886719 C 17.136719 47.945312 16.757812 49.082031 16.425781 50.300781 C 16.8125 50.226562 17.199219 50.140625 17.585938 50.023438 C 17.617188 50.011719 17.648438 50.003906 17.679688 49.996094 C 17.851562 49.941406 17.957031 49.902344 18.058594 49.652344 C 18.117188 49.476562 18.175781 49.304688 18.230469 49.128906 C 18.617188 47.914062 19.15625 46.6875 19.785156 45.824219 C 19.691406 45.136719 19.597656 44.457031 19.460938 43.789062 C 19.3125 43.789062 19.257812 43.953125 19.152344 44.121094 Z M 25.339844 43.871094 C 25.292969 44.4375 25.246094 45 25.199219 45.582031 C 25.425781 45.429688 25.425781 45.429688 25.65625 45.269531 C 25.707031 45.238281 25.753906 45.207031 25.800781 45.175781 C 25.839844 45.148438 25.875 45.125 25.914062 45.097656 C 25.972656 45.058594 25.972656 45.058594 26.03125 45.019531 C 26.136719 44.929688 26.199219 44.835938 26.273438 44.6875 C 26.003906 44.261719 25.695312 43.996094 25.339844 43.871094 Z M 22.261719 44.390625 C 22.230469 44.417969 22.195312 44.441406 22.160156 44.46875 C 22.007812 44.589844 21.851562 44.710938 21.699219 44.847656 C 21.699219 44.902344 21.699219 44.957031 21.699219 45.011719 C 21.792969 45.117188 21.886719 45.214844 21.980469 45.308594 C 22.03125 45.359375 22.082031 45.410156 22.136719 45.460938 C 22.179688 45.5 22.21875 45.539062 22.261719 45.582031 C 22.40625 45.28125 22.515625 44.972656 22.621094 44.621094 C 22.648438 44.523438 22.679688 44.429688 22.707031 44.332031 C 22.730469 44.261719 22.75 44.191406 22.773438 44.117188 C 22.582031 44.117188 22.433594 44.257812 22.261719 44.390625 Z M 27.019531 46.800781 C 26.90625 47.011719 26.800781 47.234375 26.691406 47.453125 C 26.648438 47.542969 26.605469 47.632812 26.5625 47.722656 C 26.515625 47.816406 26.46875 47.910156 26.421875 48.003906 C 26.398438 48.046875 26.378906 48.09375 26.355469 48.140625 C 26.246094 48.359375 26.152344 48.566406 26.085938 48.835938 C 26.207031 48.929688 26.324219 49.023438 26.445312 49.117188 C 26.480469 49.144531 26.511719 49.171875 26.546875 49.199219 C 26.71875 49.332031 26.878906 49.441406 27.066406 49.488281 C 27.152344 49.046875 27.175781 48.65625 27.171875 48.191406 C 27.171875 48.128906 27.171875 48.066406 27.171875 48.003906 C 27.171875 47.578125 27.132812 47.210938 27.066406 46.800781 C 27.050781 46.800781 27.035156 46.800781 27.019531 46.800781 Z M 21.464844 48.347656 C 21.429688 48.402344 21.394531 48.453125 21.355469 48.507812 C 20.765625 49.382812 20.261719 50.613281 20.191406 51.996094 C 20.1875 52.917969 20.25 53.617188 20.625 54.308594 C 21.054688 54.953125 21.558594 55.003906 22.101562 54.960938 C 22.777344 54.847656 23.382812 54.21875 23.894531 53.476562 C 23.9375 53.414062 23.984375 53.351562 24.03125 53.289062 C 24.585938 52.472656 25.039062 51.167969 25.105469 49.894531 C 25.140625 49.203125 25.050781 48.519531 24.828125 47.941406 C 24.519531 47.347656 24.136719 47.019531 23.679688 46.945312 C 22.871094 46.90625 22.078125 47.433594 21.464844 48.347656 Z M 19.773438 47.386719 C 19.730469 47.46875 19.6875 47.550781 19.644531 47.632812 C 19.621094 47.675781 19.597656 47.71875 19.574219 47.761719 C 19.160156 48.515625 19.160156 48.515625 18.945312 49.40625 C 19.316406 49.257812 19.667969 49.074219 20.019531 48.835938 C 20.027344 48.019531 20.027344 48.019531 19.972656 47.210938 C 19.867188 47.191406 19.867188 47.191406 19.773438 47.386719 Z M 27.203125 52.230469 C 27.058594 52.558594 26.96875 52.925781 26.878906 53.304688 C 26.644531 54.207031 26.160156 54.992188 25.761719 55.675781 C 25.695312 55.785156 25.628906 55.898438 25.566406 56.011719 C 25.53125 56.070312 25.5 56.128906 25.464844 56.191406 C 25.4375 56.234375 25.414062 56.28125 25.386719 56.324219 C 25.4375 56.636719 25.492188 56.945312 25.542969 57.257812 C 25.558594 57.34375 25.574219 57.433594 25.589844 57.523438 C 25.609375 57.652344 25.609375 57.652344 25.632812 57.78125 C 25.644531 57.859375 25.660156 57.9375 25.671875 58.015625 C 25.703125 58.210938 25.703125 58.210938 25.808594 58.277344 C 26.453125 57.375 26.453125 57.375 27.027344 56.335938 C 27.125 56.136719 27.230469 55.945312 27.335938 55.75 C 27.964844 54.542969 28.433594 53.152344 28.839844 51.6875 C 28.347656 51.65625 27.597656 51.65625 27.203125 52.230469 Z M 16.101562 51.847656 C 15.636719 53.585938 15.613281 55.90625 15.960938 57.710938 C 16.015625 57.964844 16.074219 58.199219 16.148438 58.441406 C 16.371094 58.164062 16.574219 57.875 16.765625 57.527344 C 16.847656 57.378906 16.9375 57.246094 17.027344 57.109375 C 17.089844 57.011719 17.15625 56.914062 17.21875 56.8125 C 17.277344 56.726562 17.277344 56.726562 17.339844 56.636719 C 17.449219 56.460938 17.550781 56.292969 17.640625 56.082031 C 17.648438 55.800781 17.640625 55.683594 17.59375 55.429688 C 17.492188 54.761719 17.488281 54.113281 17.496094 53.425781 C 17.496094 53.320312 17.496094 53.214844 17.496094 53.109375 C 17.496094 52.851562 17.5 52.59375 17.5 52.335938 C 17.332031 52.234375 17.167969 52.148438 16.996094 52.085938 C 16.953125 52.074219 16.914062 52.058594 16.871094 52.042969 C 16.8125 52.023438 16.8125 52.023438 16.746094 52 C 16.707031 51.988281 16.664062 51.972656 16.621094 51.957031 C 16.582031 51.941406 16.539062 51.929688 16.5 51.914062 C 16.460938 51.902344 16.425781 51.890625 16.390625 51.875 C 16.273438 51.839844 16.273438 51.839844 16.101562 51.847656 Z M 26.019531 52.640625 C 25.96875 52.671875 25.917969 52.703125 25.867188 52.730469 C 25.8125 52.761719 25.761719 52.792969 25.707031 52.824219 C 25.65625 52.855469 25.601562 52.886719 25.546875 52.917969 C 25.414062 52.996094 25.285156 53.074219 25.152344 53.152344 C 25.148438 53.730469 25.148438 54.289062 25.199219 54.859375 C 25.351562 54.886719 25.351562 54.886719 25.460938 54.667969 C 25.507812 54.578125 25.554688 54.488281 25.601562 54.398438 C 25.640625 54.328125 25.640625 54.328125 25.675781 54.253906 C 26.089844 53.449219 26.089844 53.449219 26.367188 52.5 C 26.238281 52.5 26.140625 52.570312 26.019531 52.640625 Z M 18.152344 52.664062 C 18.074219 53.4375 18.082031 54.179688 18.199219 54.941406 C 18.542969 54.492188 18.78125 53.90625 19.039062 53.3125 C 18.914062 53.039062 18.757812 52.964844 18.570312 52.851562 C 18.539062 52.832031 18.511719 52.8125 18.480469 52.796875 C 18.320312 52.695312 18.320312 52.695312 18.152344 52.664062 Z M 19.410156 53.941406 C 19.375 54.003906 19.339844 54.066406 19.304688 54.132812 C 19.269531 54.199219 19.230469 54.265625 19.191406 54.335938 C 19.105469 54.496094 19.023438 54.660156 18.945312 54.828125 C 18.820312 55.089844 18.679688 55.308594 18.53125 55.527344 C 18.433594 55.675781 18.34375 55.828125 18.253906 55.988281 C 18.074219 56.308594 17.878906 56.585938 17.679688 56.867188 C 17.546875 57.054688 17.421875 57.253906 17.296875 57.453125 C 17.054688 57.847656 16.796875 58.207031 16.53125 58.558594 C 16.386719 58.757812 16.242188 58.964844 16.101562 59.175781 C 16.128906 59.203125 16.160156 59.226562 16.191406 59.253906 C 16.320312 59.128906 16.441406 58.996094 16.5625 58.855469 C 17.707031 57.566406 18.890625 56.382812 20.113281 55.347656 C 20.039062 54.742188 19.933594 54.207031 19.648438 53.800781 C 19.503906 53.777344 19.503906 53.777344 19.410156 53.941406 Z M 23.371094 55.027344 C 23.277344 55.183594 23.277344 55.183594 23.238281 55.429688 C 23.269531 55.46875 23.300781 55.503906 23.335938 55.542969 C 23.722656 56.027344 24.058594 56.589844 24.394531 57.175781 C 24.417969 57.214844 24.441406 57.253906 24.464844 57.292969 C 24.902344 58.058594 25.289062 58.886719 25.667969 59.746094 C 25.683594 59.691406 25.699219 59.636719 25.714844 59.582031 C 25.675781 59.414062 25.675781 59.414062 25.617188 59.230469 C 25.597656 59.160156 25.574219 59.085938 25.554688 59.011719 C 25.53125 58.933594 25.507812 58.859375 25.484375 58.777344 C 25.007812 57.15625 24.671875 55.5 24.453125 53.722656 C 24.128906 53.722656 23.585938 54.683594 23.371094 55.027344 Z M 22.679688 56.324219 C 22.597656 56.5 22.515625 56.675781 22.433594 56.855469 C 22.410156 56.90625 22.386719 56.957031 22.363281 57.011719 C 22.207031 57.367188 22.0625 57.726562 21.933594 58.117188 C 22.472656 57.96875 22.980469 57.621094 23.472656 57.222656 C 23.3125 56.988281 23.148438 56.785156 22.972656 56.589844 C 22.925781 56.539062 22.882812 56.488281 22.835938 56.4375 C 22.742188 56.320312 22.742188 56.320312 22.679688 56.324219 Z M 19.84375 56.566406 C 19.800781 56.601562 19.753906 56.632812 19.710938 56.667969 C 19.664062 56.703125 19.617188 56.738281 19.570312 56.773438 C 19.523438 56.808594 19.476562 56.84375 19.429688 56.878906 C 19.316406 56.964844 19.203125 57.050781 19.085938 57.140625 C 19.085938 57.21875 19.085938 57.300781 19.085938 57.382812 C 19.375 57.777344 19.746094 58.117188 20.113281 58.117188 C 20.15625 57.890625 20.164062 57.757812 20.164062 57.527344 C 20.164062 57.429688 20.164062 57.429688 20.164062 57.328125 C 20.164062 57.261719 20.164062 57.195312 20.164062 57.125 C 20.164062 57.054688 20.164062 56.988281 20.164062 56.914062 C 20.160156 56.746094 20.160156 56.578125 20.160156 56.40625 C 20.035156 56.40625 19.957031 56.480469 19.84375 56.566406 Z M 18.292969 57.789062 C 17.730469 58.324219 17.167969 58.859375 16.613281 59.417969 C 16.613281 59.765625 16.703125 59.882812 16.832031 60.132812 C 17.492188 61.257812 18.464844 62.054688 19.402344 62.113281 C 19.460938 62.109375 19.460938 62.109375 19.523438 62.109375 C 19.585938 62.109375 19.585938 62.109375 19.648438 62.109375 C 19.695312 62.105469 19.695312 62.105469 19.738281 62.105469 C 19.953125 60.738281 19.953125 60.738281 20.019531 59.335938 C 19.976562 59.316406 19.933594 59.292969 19.890625 59.269531 C 19.289062 58.953125 18.792969 58.460938 18.292969 57.789062 Z M 24.035156 57.953125 C 24.011719 57.972656 23.988281 57.992188 23.964844 58.015625 C 23.304688 58.578125 22.671875 59.035156 21.949219 59.28125 C 21.898438 59.300781 21.847656 59.320312 21.792969 59.335938 C 21.746094 59.347656 21.746094 59.347656 21.699219 59.355469 C 21.546875 59.394531 21.453125 59.4375 21.347656 59.644531 C 21.277344 59.832031 21.214844 60.027344 21.15625 60.226562 C 21.136719 60.296875 21.113281 60.367188 21.089844 60.4375 C 21.046875 60.578125 21.007812 60.714844 20.964844 60.855469 C 20.914062 61.019531 20.863281 61.179688 20.8125 61.34375 C 20.679688 61.703125 20.679688 61.703125 20.625 62.105469 C 22.152344 62.09375 23.585938 60.789062 24.875 59.5 C 24.886719 59.246094 24.886719 59.246094 24.785156 59.070312 C 24.746094 59.003906 24.703125 58.933594 24.664062 58.863281 C 24.625 58.796875 24.585938 58.730469 24.546875 58.660156 C 24.382812 58.402344 24.210938 58.179688 24.035156 57.953125 Z M 24.035156 57.953125 " style=" stroke:none;fill-rule:nonzero;fill:rgb(0%,40.784314%,69.803923%);fill-opacity:1;"/><path d="M 61.972656 14.40625 C 63.035156 14.40625 64.097656 14.40625 65.191406 14.40625 C 65.089844 15.230469 65.089844 15.230469 65.023438 15.570312 C 65.011719 15.644531 64.996094 15.722656 64.980469 15.800781 C 64.964844 15.878906 64.953125 15.957031 64.9375 16.039062 C 64.917969 16.125 64.902344 16.210938 64.886719 16.296875 C 64.835938 16.566406 64.785156 16.835938 64.734375 17.101562 C 64.703125 17.28125 64.667969 17.460938 64.632812 17.636719 C 64.464844 18.542969 64.292969 19.445312 64.121094 20.347656 C 64.582031 20.347656 65.042969 20.347656 65.519531 20.347656 C 65.566406 20.054688 65.613281 19.757812 65.660156 19.453125 C 65.707031 19.1875 65.757812 18.921875 65.808594 18.65625 C 65.820312 18.582031 65.835938 18.507812 65.847656 18.433594 C 65.890625 18.203125 65.933594 17.972656 65.976562 17.746094 C 66.019531 17.515625 66.0625 17.289062 66.105469 17.0625 C 66.132812 16.921875 66.160156 16.78125 66.1875 16.640625 C 66.324219 15.898438 66.457031 15.152344 66.59375 14.40625 C 67.65625 14.40625 68.71875 14.40625 69.8125 14.40625 C 69.757812 14.90625 69.703125 15.34375 69.613281 15.816406 C 69.605469 15.871094 69.59375 15.925781 69.582031 15.980469 C 69.550781 16.15625 69.515625 16.332031 69.480469 16.511719 C 69.457031 16.636719 69.433594 16.761719 69.410156 16.890625 C 69.359375 17.15625 69.308594 17.425781 69.257812 17.695312 C 69.136719 18.324219 69.015625 18.960938 68.898438 19.59375 C 68.871094 19.734375 68.84375 19.875 68.816406 20.015625 C 68.589844 21.199219 68.371094 22.390625 68.152344 23.578125 C 68.097656 23.894531 68.039062 24.210938 67.980469 24.523438 C 67.96875 24.601562 67.953125 24.675781 67.9375 24.753906 C 67.757812 25.742188 67.574219 26.730469 67.390625 27.714844 C 67.375 27.804688 67.355469 27.890625 67.339844 27.980469 C 67.292969 28.226562 67.246094 28.472656 67.203125 28.71875 C 67.1875 28.792969 67.175781 28.867188 67.160156 28.941406 C 67.148438 29.007812 67.136719 29.078125 67.121094 29.144531 C 67.109375 29.203125 67.101562 29.261719 67.089844 29.320312 C 67.058594 29.464844 67.058594 29.464844 67.011719 29.628906 C 65.949219 29.628906 64.886719 29.628906 63.792969 29.628906 C 64.277344 26.914062 64.277344 26.914062 64.457031 25.949219 C 64.480469 25.84375 64.5 25.734375 64.519531 25.628906 C 64.570312 25.351562 64.621094 25.078125 64.675781 24.804688 C 64.726562 24.519531 64.78125 24.234375 64.835938 23.953125 C 64.9375 23.402344 65.042969 22.851562 65.148438 22.300781 C 64.453125 22.261719 64.453125 22.261719 63.746094 22.222656 C 63.699219 22.515625 63.652344 22.8125 63.605469 23.117188 C 63.578125 23.277344 63.550781 23.4375 63.519531 23.597656 C 63.503906 23.679688 63.488281 23.761719 63.472656 23.847656 C 63.457031 23.933594 63.4375 24.023438 63.421875 24.113281 C 63.40625 24.203125 63.386719 24.296875 63.371094 24.394531 C 63.3125 24.691406 63.257812 24.988281 63.203125 25.285156 C 63.144531 25.574219 63.089844 25.867188 63.035156 26.160156 C 63 26.339844 62.96875 26.523438 62.933594 26.703125 C 62.75 27.675781 62.574219 28.652344 62.394531 29.628906 C 61.332031 29.628906 60.269531 29.628906 59.171875 29.628906 C 59.332031 28.621094 59.332031 28.621094 59.414062 28.171875 C 59.441406 28.019531 59.441406 28.019531 59.472656 27.863281 C 59.492188 27.753906 59.511719 27.648438 59.53125 27.539062 C 59.554688 27.421875 59.574219 27.304688 59.597656 27.191406 C 59.65625 26.878906 59.710938 26.570312 59.769531 26.261719 C 59.820312 26 59.867188 25.738281 59.914062 25.480469 C 60.234375 23.765625 60.554688 22.050781 60.878906 20.339844 C 61.25 18.363281 61.613281 16.386719 61.972656 14.40625 Z M 61.972656 14.40625 " style=" stroke:none;fill-rule:nonzero;fill:rgb(0%,40.784314%,69.803923%);fill-opacity:1;"/><path d="M 46.386719 14.40625 C 47.011719 14.402344 47.636719 14.398438 48.261719 14.394531 C 48.550781 14.394531 48.839844 14.390625 49.128906 14.386719 C 49.410156 14.386719 49.691406 14.382812 49.972656 14.382812 C 50.078125 14.382812 50.183594 14.382812 50.289062 14.382812 C 52.210938 14.359375 52.210938 14.359375 52.875 15.300781 C 53.199219 15.90625 53.347656 16.601562 53.359375 17.421875 C 53.335938 18.761719 52.949219 19.773438 52.40625 20.675781 C 51.996094 21.269531 51.507812 21.675781 51.007812 21.976562 C 51.039062 22.007812 51.074219 22.035156 51.109375 22.066406 C 51.460938 22.382812 51.765625 22.667969 51.894531 23.359375 C 51.964844 24.402344 51.8125 25.320312 51.640625 26.304688 C 51.601562 26.519531 51.566406 26.734375 51.53125 26.945312 C 51.507812 27.078125 51.488281 27.210938 51.464844 27.339844 C 51.453125 27.398438 51.441406 27.460938 51.433594 27.519531 C 51.421875 27.570312 51.414062 27.625 51.40625 27.675781 C 51.296875 28.375 51.332031 28.808594 51.332031 29.628906 C 50.238281 29.628906 49.148438 29.628906 48.019531 29.628906 C 48.019531 28.621094 48.019531 28.621094 48.074219 28.285156 C 48.085938 28.210938 48.101562 28.132812 48.113281 28.054688 C 48.125 27.972656 48.140625 27.894531 48.152344 27.8125 C 48.167969 27.726562 48.183594 27.640625 48.195312 27.550781 C 48.335938 26.722656 48.496094 25.902344 48.65625 25.085938 C 48.878906 24.003906 48.878906 24.003906 48.90625 22.871094 C 48.835938 22.613281 48.835938 22.613281 48.671875 22.464844 C 48.472656 22.40625 48.269531 22.390625 48.066406 22.382812 C 48.046875 22.539062 48.046875 22.539062 48.03125 22.695312 C 47.972656 23.132812 47.898438 23.550781 47.816406 23.972656 C 47.800781 24.054688 47.785156 24.132812 47.769531 24.21875 C 47.722656 24.480469 47.671875 24.738281 47.625 25 C 47.332031 26.539062 47.046875 28.082031 46.761719 29.628906 C 45.710938 29.628906 44.664062 29.628906 43.585938 29.628906 C 43.621094 29.214844 43.65625 28.898438 43.730469 28.511719 C 43.746094 28.433594 43.746094 28.433594 43.757812 28.355469 C 43.792969 28.1875 43.824219 28.015625 43.855469 27.847656 C 43.878906 27.722656 43.902344 27.601562 43.925781 27.480469 C 43.972656 27.222656 44.023438 26.964844 44.074219 26.707031 C 44.1875 26.097656 44.304688 25.488281 44.421875 24.875 C 44.445312 24.738281 44.472656 24.601562 44.5 24.46875 C 44.71875 23.308594 44.933594 22.152344 45.144531 20.988281 C 45.394531 19.613281 45.648438 18.242188 45.90625 16.871094 C 45.945312 16.667969 45.980469 16.464844 46.019531 16.261719 C 46.074219 15.980469 46.125 15.703125 46.179688 15.421875 C 46.195312 15.335938 46.210938 15.253906 46.226562 15.167969 C 46.238281 15.089844 46.253906 15.011719 46.269531 14.933594 C 46.28125 14.867188 46.292969 14.800781 46.308594 14.730469 C 46.339844 14.570312 46.339844 14.570312 46.386719 14.40625 Z M 49.28125 16.117188 C 49.152344 16.660156 49.035156 17.207031 48.933594 17.765625 C 48.917969 17.84375 48.902344 17.917969 48.890625 17.996094 C 48.859375 18.15625 48.828125 18.316406 48.800781 18.472656 C 48.753906 18.71875 48.707031 18.960938 48.664062 19.203125 C 48.632812 19.359375 48.605469 19.515625 48.578125 19.667969 C 48.5625 19.742188 48.550781 19.816406 48.535156 19.890625 C 48.523438 19.957031 48.511719 20.023438 48.496094 20.09375 C 48.484375 20.152344 48.476562 20.210938 48.464844 20.273438 C 48.433594 20.441406 48.433594 20.441406 48.441406 20.675781 C 48.921875 20.730469 49.273438 20.6875 49.652344 20.132812 C 50.105469 19.320312 50.320312 18.101562 50.324219 16.992188 C 50.296875 16.636719 50.222656 16.4375 50.0625 16.214844 C 49.898438 16.089844 49.769531 16.09375 49.59375 16.101562 C 49.535156 16.101562 49.476562 16.105469 49.414062 16.109375 C 49.347656 16.113281 49.347656 16.113281 49.28125 16.117188 Z M 49.28125 16.117188 " style=" stroke:none;fill-rule:nonzero;fill:rgb(0%,40.784314%,69.803923%);fill-opacity:1;"/><path d="M 14.839844 14.40625 C 15.464844 14.402344 16.089844 14.398438 16.714844 14.394531 C 17.003906 14.394531 17.292969 14.390625 17.582031 14.386719 C 17.863281 14.386719 18.144531 14.382812 18.425781 14.382812 C 18.53125 14.382812 18.636719 14.382812 18.742188 14.382812 C 20.664062 14.359375 20.664062 14.359375 21.328125 15.300781 C 21.652344 15.90625 21.800781 16.601562 21.8125 17.421875 C 21.789062 18.761719 21.402344 19.773438 20.859375 20.675781 C 20.449219 21.269531 19.960938 21.675781 19.460938 21.976562 C 19.488281 22 19.519531 22.023438 19.550781 22.046875 C 19.859375 22.296875 20.148438 22.578125 20.300781 23.128906 C 20.503906 24.171875 20.269531 25.304688 20.09375 26.304688 C 20.054688 26.519531 20.019531 26.734375 19.984375 26.945312 C 19.960938 27.078125 19.941406 27.210938 19.917969 27.339844 C 19.90625 27.398438 19.894531 27.460938 19.886719 27.519531 C 19.875 27.570312 19.867188 27.625 19.859375 27.675781 C 19.75 28.375 19.785156 28.808594 19.785156 29.628906 C 18.691406 29.628906 17.601562 29.628906 16.472656 29.628906 C 16.472656 28.621094 16.472656 28.621094 16.527344 28.285156 C 16.539062 28.210938 16.554688 28.132812 16.566406 28.054688 C 16.578125 27.972656 16.59375 27.894531 16.609375 27.8125 C 16.621094 27.726562 16.636719 27.640625 16.652344 27.550781 C 16.789062 26.71875 16.949219 25.898438 17.109375 25.078125 C 17.339844 24 17.339844 24 17.359375 22.871094 C 17.289062 22.605469 17.289062 22.605469 17.125 22.464844 C 16.925781 22.410156 16.726562 22.390625 16.519531 22.382812 C 16.5 22.539062 16.5 22.539062 16.484375 22.695312 C 16.425781 23.132812 16.351562 23.550781 16.269531 23.972656 C 16.253906 24.054688 16.238281 24.132812 16.222656 24.21875 C 16.175781 24.480469 16.125 24.738281 16.078125 25 C 15.785156 26.539062 15.5 28.082031 15.214844 29.628906 C 14.167969 29.628906 13.117188 29.628906 12.039062 29.628906 C 12.097656 29.132812 12.144531 28.707031 12.234375 28.242188 C 12.246094 28.1875 12.253906 28.136719 12.265625 28.085938 C 12.296875 27.914062 12.328125 27.746094 12.359375 27.578125 C 12.382812 27.457031 12.40625 27.335938 12.429688 27.214844 C 12.480469 26.957031 12.527344 26.703125 12.578125 26.445312 C 12.691406 25.839844 12.808594 25.230469 12.921875 24.625 C 12.949219 24.488281 12.972656 24.351562 13 24.214844 C 13.21875 23.054688 13.433594 21.894531 13.648438 20.730469 C 13.910156 19.300781 14.171875 17.871094 14.441406 16.441406 C 14.457031 16.347656 14.476562 16.253906 14.492188 16.15625 C 14.542969 15.894531 14.59375 15.632812 14.640625 15.367188 C 14.664062 15.25 14.664062 15.25 14.6875 15.128906 C 14.699219 15.058594 14.714844 14.984375 14.726562 14.914062 C 14.738281 14.851562 14.75 14.785156 14.761719 14.722656 C 14.792969 14.570312 14.792969 14.570312 14.839844 14.40625 Z M 17.734375 16.117188 C 17.601562 16.667969 17.488281 17.21875 17.386719 17.789062 C 17.371094 17.867188 17.355469 17.941406 17.34375 18.023438 C 17.3125 18.1875 17.28125 18.351562 17.253906 18.511719 C 17.207031 18.761719 17.164062 19.015625 17.117188 19.265625 C 17.085938 19.421875 17.058594 19.582031 17.03125 19.742188 C 17.015625 19.816406 17.003906 19.890625 16.988281 19.96875 C 16.976562 20.035156 16.964844 20.105469 16.949219 20.175781 C 16.9375 20.238281 16.929688 20.300781 16.917969 20.363281 C 16.890625 20.511719 16.890625 20.511719 16.894531 20.675781 C 17.375 20.730469 17.722656 20.683594 18.101562 20.136719 C 18.519531 19.402344 18.769531 18.222656 18.777344 17.199219 C 18.78125 17.070312 18.78125 17.070312 18.78125 16.933594 C 18.753906 16.625 18.699219 16.496094 18.574219 16.277344 C 18.410156 16.070312 18.246094 16.101562 18.046875 16.105469 C 17.988281 16.109375 17.929688 16.109375 17.871094 16.109375 C 17.824219 16.113281 17.78125 16.113281 17.734375 16.117188 Z M 17.734375 16.117188 " style=" stroke:none;fill-rule:nonzero;fill:rgb(0%,40.784314%,69.803923%);fill-opacity:1;"/><path d="M 43.867188 15.300781 C 44.328125 15.957031 44.632812 16.875 44.707031 17.90625 C 44.832031 20.769531 44.128906 23.835938 43.09375 26.035156 C 42.953125 26.320312 42.804688 26.59375 42.652344 26.859375 C 42.59375 26.960938 42.59375 26.960938 42.535156 27.066406 C 42.496094 27.132812 42.460938 27.199219 42.421875 27.265625 C 42.386719 27.328125 42.351562 27.390625 42.3125 27.453125 C 41.332031 29.105469 39.984375 29.988281 38.628906 29.980469 C 38.570312 29.980469 38.507812 29.976562 38.445312 29.976562 C 37.652344 29.960938 36.929688 29.71875 36.308594 28.8125 C 36.265625 28.765625 36.226562 28.714844 36.183594 28.667969 C 36.019531 28.402344 35.910156 28.089844 35.792969 27.753906 C 35.777344 27.703125 35.757812 27.652344 35.738281 27.601562 C 35.269531 26.128906 35.410156 24.183594 35.652344 22.628906 C 36.152344 19.597656 37.34375 16.867188 38.921875 15.3125 C 40.453125 13.847656 42.386719 13.324219 43.867188 15.300781 Z M 40.40625 16.597656 C 39.996094 17.671875 39.777344 18.886719 39.542969 20.097656 C 39.511719 20.269531 39.480469 20.4375 39.445312 20.605469 C 39.363281 21.03125 39.28125 21.460938 39.199219 21.890625 C 39.15625 22.132812 39.109375 22.375 39.0625 22.617188 C 38.992188 22.988281 38.921875 23.355469 38.851562 23.726562 C 38.824219 23.863281 38.800781 24 38.773438 24.136719 C 38.371094 26.019531 38.371094 26.019531 38.417969 27.933594 C 38.492188 28.179688 38.492188 28.179688 38.640625 28.324219 C 38.980469 28.386719 39.199219 28.246094 39.46875 27.890625 C 40.042969 27 40.257812 25.554688 40.507812 24.335938 C 40.542969 24.167969 40.578125 24 40.613281 23.832031 C 40.683594 23.492188 40.75 23.152344 40.820312 22.8125 C 40.890625 22.472656 40.960938 22.132812 41.035156 21.796875 C 41.371094 20.226562 41.722656 18.578125 41.734375 16.882812 C 41.734375 16.824219 41.738281 16.765625 41.738281 16.703125 C 41.742188 16.285156 41.703125 16.03125 41.535156 15.710938 C 41.054688 15.441406 40.683594 15.980469 40.40625 16.597656 Z M 40.40625 16.597656 " style=" stroke:none;fill-rule:nonzero;fill:rgb(0%,40.784314%,69.803923%);fill-opacity:1;"/><path d="M 6.714844 14.328125 C 6.882812 14.339844 7.054688 14.34375 7.222656 14.351562 C 7.550781 14.363281 7.882812 14.382812 8.214844 14.40625 C 8.183594 16.113281 8.144531 17.816406 8.097656 19.519531 C 8.089844 19.839844 8.078125 20.15625 8.070312 20.476562 C 8.054688 21.007812 8.042969 21.542969 8.027344 22.074219 C 8.007812 22.6875 7.992188 23.300781 7.976562 23.914062 C 7.957031 24.507812 7.941406 25.105469 7.925781 25.699219 C 7.917969 25.953125 7.910156 26.203125 7.902344 26.453125 C 7.894531 26.75 7.886719 27.042969 7.878906 27.339844 C 7.875 27.496094 7.871094 27.65625 7.867188 27.8125 C 7.863281 27.910156 7.859375 28.007812 7.859375 28.105469 C 7.855469 28.1875 7.851562 28.269531 7.851562 28.355469 C 7.835938 28.78125 7.8125 29.203125 7.792969 29.628906 C 6.746094 29.628906 5.699219 29.628906 4.621094 29.628906 C 4.621094 28.652344 4.636719 27.671875 4.667969 26.699219 C 3.882812 26.671875 3.097656 26.644531 2.285156 26.617188 C 2.257812 26.75 2.226562 26.886719 2.191406 27.023438 C 2.144531 27.171875 2.09375 27.320312 2.039062 27.46875 C 2.007812 27.550781 1.980469 27.636719 1.949219 27.722656 C 1.917969 27.808594 1.882812 27.894531 1.851562 27.984375 C 1.820312 28.070312 1.789062 28.15625 1.757812 28.246094 C 1.699219 28.414062 1.636719 28.582031 1.574219 28.746094 C 1.492188 28.96875 1.492188 28.96875 1.441406 29.183594 C 1.390625 29.375 1.355469 29.492188 1.261719 29.628906 C 1.042969 29.707031 0.835938 29.6875 0.617188 29.667969 C 0.554688 29.664062 0.496094 29.664062 0.4375 29.660156 C 0.289062 29.652344 0.144531 29.640625 0 29.628906 C 0.0546875 29.3125 0.117188 29.050781 0.21875 28.773438 C 0.257812 28.671875 0.257812 28.671875 0.296875 28.566406 C 0.324219 28.496094 0.351562 28.421875 0.378906 28.347656 C 0.4375 28.183594 0.5 28.023438 0.558594 27.863281 C 0.605469 27.738281 0.605469 27.738281 0.652344 27.609375 C 0.808594 27.175781 0.964844 26.738281 1.117188 26.300781 C 1.390625 25.527344 1.664062 24.753906 1.941406 23.984375 C 2.125 23.464844 2.3125 22.945312 2.496094 22.425781 C 2.710938 21.820312 2.925781 21.21875 3.140625 20.617188 C 3.386719 19.933594 3.632812 19.246094 3.875 18.558594 C 4.121094 17.859375 4.367188 17.160156 4.617188 16.460938 C 4.644531 16.386719 4.671875 16.3125 4.699219 16.234375 C 4.753906 16.082031 4.808594 15.9375 4.863281 15.789062 C 4.929688 15.597656 4.96875 15.445312 5.007812 15.238281 C 5.289062 13.996094 6.074219 14.28125 6.714844 14.328125 Z M 4.945312 19.046875 C 4.882812 19.214844 4.820312 19.382812 4.761719 19.554688 C 4.738281 19.613281 4.71875 19.667969 4.699219 19.726562 C 4.460938 20.398438 4.226562 21.074219 3.992188 21.746094 C 3.824219 22.226562 3.660156 22.707031 3.492188 23.183594 C 3.460938 23.273438 3.429688 23.359375 3.398438 23.445312 C 3.339844 23.609375 3.28125 23.773438 3.226562 23.9375 C 3.199219 24.007812 3.175781 24.082031 3.148438 24.15625 C 3.125 24.21875 3.105469 24.28125 3.082031 24.347656 C 3.027344 24.496094 3.027344 24.496094 3.035156 24.664062 C 3.601562 24.664062 4.171875 24.664062 4.761719 24.664062 C 4.847656 22.792969 4.929688 20.921875 4.992188 19.046875 C 4.976562 19.046875 4.960938 19.046875 4.945312 19.046875 Z M 4.945312 19.046875 " style=" stroke:none;fill-rule:nonzero;fill:rgb(0%,40.784314%,69.803923%);fill-opacity:1;"/><path d="M 53.945312 14.40625 C 56.441406 14.40625 58.9375 14.40625 61.507812 14.40625 C 61.460938 14.976562 61.460938 14.976562 61.179688 16.359375 C 60.457031 16.359375 59.730469 16.359375 58.988281 16.359375 C 58.941406 16.65625 58.894531 16.953125 58.847656 17.253906 C 58.816406 17.4375 58.78125 17.613281 58.75 17.792969 C 58.722656 17.9375 58.722656 17.9375 58.691406 18.085938 C 58.675781 18.1875 58.65625 18.289062 58.632812 18.394531 C 58.613281 18.503906 58.59375 18.613281 58.574219 18.722656 C 58.527344 18.957031 58.484375 19.1875 58.441406 19.421875 C 58.324219 20.035156 58.207031 20.652344 58.089844 21.265625 C 58.078125 21.328125 58.066406 21.390625 58.054688 21.453125 C 57.839844 22.601562 57.628906 23.753906 57.417969 24.90625 C 57.128906 26.488281 56.824219 28.058594 56.511719 29.628906 C 55.449219 29.628906 54.386719 29.628906 53.292969 29.628906 C 53.449219 28.621094 53.449219 28.621094 53.535156 28.171875 C 53.554688 28.070312 53.574219 27.96875 53.59375 27.867188 C 53.613281 27.757812 53.636719 27.648438 53.65625 27.542969 C 53.675781 27.425781 53.699219 27.3125 53.722656 27.195312 C 53.765625 26.953125 53.8125 26.707031 53.859375 26.460938 C 53.980469 25.820312 54.105469 25.175781 54.226562 24.53125 C 54.238281 24.46875 54.25 24.402344 54.261719 24.335938 C 54.484375 23.164062 54.699219 21.984375 54.914062 20.808594 C 55.1875 19.316406 55.472656 17.835938 55.765625 16.359375 C 55.058594 16.359375 54.351562 16.359375 53.621094 16.359375 C 53.667969 15.789062 53.667969 15.789062 53.945312 14.40625 Z M 53.945312 14.40625 " style=" stroke:none;fill-rule:nonzero;fill:rgb(0%,40.784314%,69.803923%);fill-opacity:1;"/><path d="M 10.828125 14.40625 C 11.890625 14.40625 12.953125 14.40625 14.046875 14.40625 C 13.722656 16.207031 13.394531 18.003906 13.054688 19.800781 C 12.769531 21.3125 12.488281 22.828125 12.210938 24.347656 C 12.148438 24.675781 12.089844 25.003906 12.027344 25.335938 C 12.015625 25.414062 12 25.492188 11.984375 25.574219 C 11.839844 26.367188 11.695312 27.160156 11.546875 27.949219 C 11.519531 28.09375 11.492188 28.238281 11.464844 28.382812 C 11.429688 28.578125 11.394531 28.773438 11.359375 28.96875 C 11.347656 29.027344 11.335938 29.085938 11.324219 29.144531 C 11.253906 29.539062 11.253906 29.539062 11.199219 29.628906 C 11.101562 29.636719 11.003906 29.636719 10.902344 29.636719 C 10.871094 29.636719 10.839844 29.636719 10.808594 29.636719 C 10.707031 29.636719 10.605469 29.636719 10.5 29.636719 C 10.429688 29.636719 10.359375 29.636719 10.289062 29.636719 C 10.101562 29.636719 9.914062 29.632812 9.726562 29.632812 C 9.535156 29.632812 9.34375 29.632812 9.152344 29.632812 C 8.777344 29.632812 8.402344 29.628906 8.027344 29.628906 C 8.054688 29.238281 8.097656 28.886719 8.167969 28.511719 C 8.183594 28.433594 8.183594 28.433594 8.199219 28.355469 C 8.230469 28.1875 8.265625 28.015625 8.296875 27.847656 C 8.320312 27.722656 8.34375 27.601562 8.367188 27.480469 C 8.414062 27.222656 8.464844 26.964844 8.511719 26.707031 C 8.628906 26.097656 8.746094 25.488281 8.859375 24.875 C 8.886719 24.738281 8.914062 24.601562 8.9375 24.46875 C 9.15625 23.308594 9.371094 22.152344 9.585938 20.988281 C 9.835938 19.613281 10.089844 18.242188 10.347656 16.871094 C 10.382812 16.667969 10.421875 16.464844 10.460938 16.261719 C 10.511719 15.980469 10.566406 15.703125 10.617188 15.421875 C 10.632812 15.335938 10.648438 15.253906 10.664062 15.167969 C 10.679688 15.089844 10.695312 15.011719 10.710938 14.933594 C 10.722656 14.867188 10.734375 14.800781 10.746094 14.730469 C 10.78125 14.570312 10.78125 14.570312 10.828125 14.40625 Z M 10.828125 14.40625 " style=" stroke:none;fill-rule:nonzero;fill:rgb(0%,40.784314%,69.803923%);fill-opacity:1;"/><path d="M 54.273438 33.371094 C 54.582031 33.371094 54.890625 33.371094 55.207031 33.371094 C 55.332031 34.058594 55.457031 34.742188 55.582031 35.425781 C 55.640625 35.746094 55.699219 36.0625 55.757812 36.382812 C 55.8125 36.6875 55.871094 36.996094 55.925781 37.304688 C 55.949219 37.421875 55.96875 37.539062 55.992188 37.65625 C 56.109375 38.3125 56.226562 38.972656 56.328125 39.640625 C 56.050781 39.640625 55.773438 39.640625 55.488281 39.640625 C 55.347656 38.988281 55.347656 38.988281 55.253906 38.253906 C 54.898438 38.28125 54.546875 38.308594 54.179688 38.335938 C 54.101562 38.765625 54.027344 39.195312 53.945312 39.640625 C 53.683594 39.640625 53.421875 39.640625 53.152344 39.640625 C 53.222656 38.9375 53.339844 38.269531 53.46875 37.59375 C 53.492188 37.476562 53.511719 37.359375 53.535156 37.242188 C 53.578125 37 53.625 36.757812 53.667969 36.511719 C 53.726562 36.199219 53.785156 35.886719 53.84375 35.574219 C 53.898438 35.277344 53.957031 34.976562 54.011719 34.679688 C 54.023438 34.621094 54.03125 34.566406 54.042969 34.507812 C 54.074219 34.347656 54.101562 34.1875 54.132812 34.027344 C 54.148438 33.933594 54.167969 33.84375 54.183594 33.75 C 54.226562 33.535156 54.226562 33.535156 54.273438 33.371094 Z M 54.691406 35.164062 C 54.636719 35.441406 54.585938 35.722656 54.53125 36.003906 C 54.515625 36.082031 54.5 36.160156 54.484375 36.242188 C 54.46875 36.320312 54.453125 36.394531 54.4375 36.472656 C 54.425781 36.542969 54.410156 36.613281 54.398438 36.6875 C 54.359375 36.878906 54.359375 36.878906 54.367188 37.117188 C 54.597656 37.117188 54.828125 37.117188 55.066406 37.117188 C 54.976562 36.453125 54.871094 35.808594 54.738281 35.164062 C 54.722656 35.164062 54.710938 35.164062 54.691406 35.164062 Z M 54.691406 35.164062 " style=" stroke:none;fill-rule:nonzero;fill:rgb(95.686275%,48.235294%,12.54902%);fill-opacity:1;"/><path d="M 41.066406 33.289062 C 41.3125 33.289062 41.558594 33.289062 41.8125 33.289062 C 41.828125 34.3125 41.84375 35.332031 41.859375 36.382812 C 42.289062 35.742188 42.289062 35.742188 42.488281 35.320312 C 42.734375 34.929688 43.09375 35.035156 43.40625 35.0625 C 43.464844 35.066406 43.523438 35.074219 43.585938 35.082031 C 43.398438 35.480469 43.195312 35.851562 42.984375 36.214844 C 42.957031 36.265625 42.929688 36.3125 42.902344 36.359375 C 42.835938 36.476562 42.765625 36.59375 42.699219 36.710938 C 42.921875 37.4375 43.164062 38.140625 43.414062 38.839844 C 43.441406 38.921875 43.472656 39 43.5 39.082031 C 43.527344 39.15625 43.550781 39.226562 43.578125 39.300781 C 43.632812 39.476562 43.632812 39.476562 43.632812 39.640625 C 42.886719 39.761719 42.886719 39.761719 42.6875 39.5 C 42.617188 39.28125 42.566406 39.058594 42.511719 38.824219 C 42.449219 38.613281 42.378906 38.410156 42.308594 38.203125 C 42.277344 38.105469 42.246094 38.007812 42.210938 37.90625 C 42.1875 37.832031 42.164062 37.761719 42.140625 37.6875 C 41.933594 37.910156 41.933594 37.910156 41.832031 38.273438 C 41.820312 38.480469 41.820312 38.683594 41.820312 38.890625 C 41.816406 38.964844 41.816406 39.035156 41.816406 39.109375 C 41.8125 39.285156 41.8125 39.464844 41.8125 39.640625 C 41.566406 39.640625 41.320312 39.640625 41.066406 39.640625 C 41.066406 37.542969 41.066406 35.449219 41.066406 33.289062 Z M 41.066406 33.289062 " style=" stroke:none;fill-rule:nonzero;fill:rgb(95.686275%,48.235294%,12.54902%);fill-opacity:1;"/><path d="M 65.875 34.960938 C 65.914062 34.957031 65.949219 34.957031 65.988281 34.953125 C 66.328125 34.960938 66.574219 35.136719 66.820312 35.550781 C 67.058594 36.183594 67.050781 36.878906 66.964844 37.605469 C 66.15625 37.644531 66.15625 37.644531 65.332031 37.6875 C 65.429688 38.3125 65.429688 38.3125 65.601562 38.5 C 65.773438 38.59375 65.914062 38.609375 66.097656 38.601562 C 66.160156 38.601562 66.21875 38.597656 66.28125 38.59375 C 66.46875 38.582031 66.644531 38.550781 66.828125 38.5 C 66.851562 39.023438 66.851562 39.023438 66.875 39.558594 C 66.292969 39.824219 65.546875 39.933594 65.007812 39.394531 C 64.757812 39.042969 64.625 38.628906 64.539062 38.09375 C 64.527344 37.855469 64.523438 37.617188 64.527344 37.375 C 64.527344 37.3125 64.527344 37.246094 64.527344 37.179688 C 64.535156 36.5 64.597656 35.949219 64.875 35.449219 C 65.175781 35.015625 65.5 34.96875 65.875 34.960938 Z M 65.378906 36.382812 C 65.363281 36.519531 65.347656 36.652344 65.332031 36.789062 C 65.640625 36.789062 65.949219 36.789062 66.265625 36.789062 C 66.25 36.265625 66.25 36.265625 66.148438 36.0625 C 65.839844 35.835938 65.582031 35.894531 65.378906 36.382812 Z M 65.378906 36.382812 " style=" stroke:none;fill-rule:nonzero;fill:rgb(95.686275%,48.235294%,12.54902%);fill-opacity:1;"/><path d="M 45.582031 35.164062 C 45.855469 35.453125 46.007812 35.832031 46.125 36.34375 C 46.21875 37.207031 46.210938 38.214844 45.960938 38.988281 C 45.773438 39.4375 45.523438 39.613281 45.21875 39.722656 C 44.808594 39.792969 44.410156 39.789062 44.054688 39.394531 C 43.785156 39.011719 43.664062 38.492188 43.621094 37.902344 C 43.613281 37.707031 43.613281 37.519531 43.613281 37.324219 C 43.613281 37.257812 43.613281 37.191406 43.613281 37.121094 C 43.625 36.515625 43.671875 36.027344 43.90625 35.5625 C 44.328125 34.871094 45.054688 34.746094 45.582031 35.164062 Z M 44.515625 36.242188 C 44.371094 36.601562 44.371094 36.910156 44.367188 37.351562 C 44.367188 37.449219 44.367188 37.542969 44.363281 37.644531 C 44.386719 38.019531 44.453125 38.289062 44.597656 38.570312 C 44.757812 38.707031 44.910156 38.714844 45.078125 38.664062 C 45.230469 38.515625 45.296875 38.398438 45.375 38.132812 C 45.445312 37.492188 45.457031 36.878906 45.265625 36.300781 C 45.1875 36.125 45.148438 36.066406 45.019531 36.019531 C 44.804688 36.015625 44.695312 36.011719 44.515625 36.242188 Z M 44.515625 36.242188 " style=" stroke:none;fill-rule:nonzero;fill:rgb(95.686275%,48.235294%,12.54902%);fill-opacity:1;"/><path d="M 48.511719 35.132812 C 48.773438 35.578125 48.859375 35.957031 48.867188 36.582031 C 48.867188 36.722656 48.863281 36.867188 48.863281 37.007812 C 48.863281 37.082031 48.863281 37.160156 48.863281 37.238281 C 48.863281 37.476562 48.863281 37.714844 48.863281 37.957031 C 48.863281 38.117188 48.863281 38.28125 48.863281 38.445312 C 48.863281 38.84375 48.859375 39.242188 48.859375 39.640625 C 48.613281 39.640625 48.367188 39.640625 48.113281 39.640625 C 48.113281 39.546875 48.113281 39.449219 48.109375 39.351562 C 48.109375 39.003906 48.105469 38.652344 48.101562 38.300781 C 48.097656 38.148438 48.097656 37.996094 48.097656 37.847656 C 48.09375 37.628906 48.09375 37.410156 48.089844 37.191406 C 48.089844 37.125 48.089844 37.054688 48.089844 36.984375 C 48.085938 36.699219 48.082031 36.511719 48 36.257812 C 47.90625 36.105469 47.855469 36.101562 47.726562 36.109375 C 47.691406 36.109375 47.65625 36.109375 47.621094 36.113281 C 47.476562 36.140625 47.476562 36.140625 47.226562 36.300781 C 47.226562 37.402344 47.226562 38.503906 47.226562 39.640625 C 46.980469 39.640625 46.734375 39.640625 46.480469 39.640625 C 46.480469 38.136719 46.480469 36.632812 46.480469 35.082031 C 46.726562 35.082031 46.972656 35.082031 47.226562 35.082031 C 47.242188 35.214844 47.257812 35.351562 47.273438 35.488281 C 47.308594 35.4375 47.339844 35.386719 47.375 35.335938 C 47.703125 34.90625 48.140625 34.835938 48.511719 35.132812 Z M 48.511719 35.132812 " style=" stroke:none;fill-rule:nonzero;fill:rgb(95.686275%,48.235294%,12.54902%);fill-opacity:1;"/><path d="M 35.464844 33.453125 C 35.742188 33.453125 36.019531 33.453125 36.308594 33.453125 C 36.542969 34.257812 36.757812 35.066406 36.960938 35.894531 C 37.074219 35.695312 37.117188 35.5 37.183594 35.238281 C 37.207031 35.140625 37.234375 35.042969 37.257812 34.941406 C 37.285156 34.835938 37.308594 34.734375 37.335938 34.628906 C 37.386719 34.425781 37.4375 34.222656 37.488281 34.019531 C 37.511719 33.925781 37.535156 33.835938 37.558594 33.742188 C 37.613281 33.535156 37.613281 33.535156 37.660156 33.453125 C 37.792969 33.449219 37.925781 33.445312 38.058594 33.449219 C 38.097656 33.449219 38.136719 33.449219 38.171875 33.449219 C 38.265625 33.449219 38.359375 33.453125 38.453125 33.453125 C 38.386719 33.835938 38.296875 34.191406 38.195312 34.546875 C 38.179688 34.605469 38.164062 34.664062 38.148438 34.722656 C 38.097656 34.902344 38.046875 35.082031 37.996094 35.265625 C 37.960938 35.386719 37.929688 35.503906 37.894531 35.625 C 37.878906 35.683594 37.863281 35.742188 37.84375 35.804688 C 37.8125 35.917969 37.78125 36.035156 37.746094 36.152344 C 37.679688 36.390625 37.613281 36.625 37.539062 36.855469 C 37.351562 37.421875 37.34375 37.945312 37.34375 38.589844 C 37.339844 38.691406 37.339844 38.792969 37.339844 38.898438 C 37.335938 39.144531 37.335938 39.390625 37.332031 39.640625 C 37.085938 39.640625 36.839844 39.640625 36.585938 39.640625 C 36.59375 39.523438 36.605469 39.40625 36.613281 39.289062 C 36.6875 37.410156 36.171875 35.925781 35.675781 34.316406 C 35.644531 34.21875 35.644531 34.21875 35.613281 34.117188 C 35.59375 34.058594 35.574219 34.003906 35.558594 33.941406 C 35.511719 33.777344 35.511719 33.777344 35.464844 33.453125 Z M 35.464844 33.453125 " style=" stroke:none;fill-rule:nonzero;fill:rgb(95.686275%,48.235294%,12.54902%);fill-opacity:1;"/><path d="M 38.359375 35.082031 C 38.589844 35.082031 38.820312 35.082031 39.058594 35.082031 C 39.0625 35.171875 39.0625 35.265625 39.0625 35.359375 C 39.066406 35.703125 39.074219 36.042969 39.078125 36.386719 C 39.078125 36.53125 39.082031 36.679688 39.082031 36.828125 C 39.085938 37.039062 39.089844 37.253906 39.09375 37.464844 C 39.09375 37.53125 39.09375 37.597656 39.09375 37.664062 C 39.097656 38.089844 39.097656 38.089844 39.152344 38.5 C 39.445312 38.667969 39.652344 38.566406 39.945312 38.417969 C 39.945312 37.316406 39.945312 36.214844 39.945312 35.082031 C 40.191406 35.082031 40.441406 35.082031 40.691406 35.082031 C 40.691406 36.585938 40.691406 38.089844 40.691406 39.640625 C 40.445312 39.640625 40.199219 39.640625 39.945312 39.640625 C 39.929688 39.503906 39.914062 39.371094 39.898438 39.234375 C 39.867188 39.28125 39.832031 39.332031 39.796875 39.386719 C 39.507812 39.765625 39.226562 39.785156 38.875 39.722656 C 38.710938 39.640625 38.59375 39.511719 38.492188 39.261719 C 38.347656 38.796875 38.335938 38.402344 38.339844 37.878906 C 38.34375 37.800781 38.34375 37.71875 38.34375 37.636719 C 38.34375 37.382812 38.347656 37.125 38.347656 36.871094 C 38.347656 36.699219 38.351562 36.523438 38.351562 36.351562 C 38.351562 35.929688 38.355469 35.503906 38.359375 35.082031 Z M 38.359375 35.082031 " style=" stroke:none;fill-rule:nonzero;fill:rgb(95.686275%,48.235294%,12.54902%);fill-opacity:1;"/><path d="M 63.867188 35.121094 C 64.113281 35.5625 64.1875 36.003906 64.1875 36.609375 C 64.1875 36.6875 64.1875 36.761719 64.183594 36.839844 C 64.183594 36.921875 64.183594 37.003906 64.183594 37.085938 C 64.183594 37.339844 64.179688 37.59375 64.179688 37.847656 C 64.175781 38.023438 64.175781 38.195312 64.175781 38.371094 C 64.171875 38.792969 64.171875 39.214844 64.167969 39.640625 C 63.9375 39.640625 63.703125 39.640625 63.464844 39.640625 C 63.464844 39.5 63.464844 39.5 63.464844 39.359375 C 63.460938 39.019531 63.457031 38.675781 63.453125 38.335938 C 63.449219 38.1875 63.449219 38.039062 63.445312 37.890625 C 63.445312 37.679688 63.441406 37.46875 63.4375 37.253906 C 63.4375 37.1875 63.4375 37.121094 63.4375 37.054688 C 63.433594 36.613281 63.433594 36.613281 63.328125 36.222656 C 63.179688 36.09375 63.019531 36.097656 62.859375 36.140625 C 62.769531 36.21875 62.675781 36.300781 62.578125 36.382812 C 62.566406 37.457031 62.550781 38.53125 62.535156 39.640625 C 62.300781 39.640625 62.070312 39.640625 61.832031 39.640625 C 61.832031 38.136719 61.832031 36.632812 61.832031 35.082031 C 62.0625 35.082031 62.296875 35.082031 62.535156 35.082031 C 62.546875 35.214844 62.5625 35.351562 62.578125 35.488281 C 62.605469 35.460938 62.628906 35.429688 62.65625 35.402344 C 62.691406 35.363281 62.722656 35.328125 62.757812 35.289062 C 62.789062 35.253906 62.824219 35.214844 62.859375 35.179688 C 63.152344 34.878906 63.5625 34.898438 63.867188 35.121094 Z M 63.867188 35.121094 " style=" stroke:none;fill-rule:nonzero;fill:rgb(95.686275%,48.235294%,12.54902%);fill-opacity:1;"/><path d="M 50.652344 34.976562 C 50.699219 34.976562 50.75 34.976562 50.796875 34.976562 C 50.847656 34.976562 50.898438 34.980469 50.949219 34.980469 C 50.996094 34.980469 51.046875 34.976562 51.097656 34.976562 C 51.390625 34.980469 51.652344 35.03125 51.941406 35.164062 C 51.933594 35.292969 51.925781 35.425781 51.917969 35.554688 C 51.914062 35.628906 51.910156 35.699219 51.90625 35.773438 C 51.894531 35.976562 51.894531 35.976562 51.847656 36.222656 C 51.804688 36.210938 51.761719 36.199219 51.71875 36.183594 C 51.132812 35.96875 51.132812 35.96875 50.585938 36.222656 C 50.585938 36.300781 50.585938 36.382812 50.585938 36.464844 C 50.8125 36.621094 51.035156 36.75 51.269531 36.867188 C 51.554688 37.019531 51.753906 37.136719 51.933594 37.570312 C 52.027344 38.058594 52.046875 38.59375 51.914062 39.066406 C 51.746094 39.433594 51.554688 39.628906 51.285156 39.722656 C 51.148438 39.738281 51.007812 39.738281 50.871094 39.734375 C 50.8125 39.734375 50.8125 39.734375 50.75 39.738281 C 50.425781 39.730469 50.113281 39.671875 49.792969 39.558594 C 49.738281 39.269531 49.761719 39.175781 49.8125 38.890625 C 49.828125 38.820312 49.839844 38.746094 49.855469 38.667969 C 49.863281 38.613281 49.875 38.558594 49.886719 38.5 C 49.917969 38.507812 49.945312 38.511719 49.976562 38.519531 C 50.109375 38.546875 50.246094 38.570312 50.378906 38.597656 C 50.425781 38.605469 50.472656 38.617188 50.519531 38.625 C 50.804688 38.679688 50.988281 38.664062 51.238281 38.417969 C 51.222656 38.339844 51.210938 38.257812 51.191406 38.175781 C 51.066406 38.082031 51.066406 38.082031 50.910156 38.011719 C 50.855469 37.984375 50.800781 37.957031 50.742188 37.925781 C 50.664062 37.886719 50.664062 37.886719 50.585938 37.847656 C 50.3125 37.707031 50.0625 37.527344 49.886719 37.117188 C 49.773438 36.609375 49.765625 36.144531 49.882812 35.640625 C 50.042969 35.140625 50.34375 34.980469 50.652344 34.976562 Z M 50.652344 34.976562 " style=" stroke:none;fill-rule:nonzero;fill:rgb(95.686275%,48.235294%,12.54902%);fill-opacity:1;"/><path d="M 59.640625 33.289062 C 59.871094 33.289062 60.101562 33.289062 60.339844 33.289062 C 60.339844 35.386719 60.339844 37.480469 60.339844 39.640625 C 60.109375 39.640625 59.878906 39.640625 59.640625 39.640625 C 59.640625 37.542969 59.640625 35.449219 59.640625 33.289062 Z M 59.640625 33.289062 " style=" stroke:none;fill-rule:nonzero;fill:rgb(95.686275%,48.235294%,12.54902%);fill-opacity:1;"/><path d="M 59.3125 35 C 59.3125 35.375 59.3125 35.753906 59.3125 36.140625 C 58.6875 36.375 58.6875 36.375 58.425781 36.464844 C 58.425781 37.511719 58.425781 38.558594 58.425781 39.640625 C 58.195312 39.640625 57.964844 39.640625 57.726562 39.640625 C 57.726562 38.136719 57.726562 36.632812 57.726562 35.082031 C 57.957031 35.082031 58.1875 35.082031 58.425781 35.082031 C 58.441406 35.242188 58.457031 35.402344 58.472656 35.570312 C 58.515625 35.507812 58.554688 35.441406 58.597656 35.375 C 58.84375 35.023438 58.980469 35 59.3125 35 Z M 59.3125 35 " style=" stroke:none;fill-rule:nonzero;fill:rgb(95.686275%,48.235294%,12.54902%);fill-opacity:1;"/><path d="M 60.714844 35.082031 C 60.960938 35.082031 61.207031 35.082031 61.460938 35.082031 C 61.460938 36.585938 61.460938 38.089844 61.460938 39.640625 C 61.214844 39.640625 60.96875 39.640625 60.714844 39.640625 C 60.714844 38.136719 60.714844 36.632812 60.714844 35.082031 Z M 60.714844 35.082031 " style=" stroke:none;fill-rule:nonzero;fill:rgb(95.686275%,48.235294%,12.54902%);fill-opacity:1;"/><path d="M 56.605469 35.082031 C 56.835938 35.082031 57.070312 35.082031 57.308594 35.082031 C 57.308594 36.585938 57.308594 38.089844 57.308594 39.640625 C 57.074219 39.640625 56.84375 39.640625 56.605469 39.640625 C 56.605469 38.136719 56.605469 36.632812 56.605469 35.082031 Z M 56.605469 35.082031 " style=" stroke:none;fill-rule:nonzero;fill:rgb(95.686275%,48.235294%,12.54902%);fill-opacity:1;"/><path d="M 33.226562 0 C 33.273438 0.164062 33.273438 0.164062 33.242188 0.355469 C 33.21875 0.480469 33.21875 0.480469 33.191406 0.605469 C 33.171875 0.695312 33.15625 0.789062 33.136719 0.886719 C 33.113281 0.988281 33.09375 1.09375 33.070312 1.195312 C 33.050781 1.304688 33.027344 1.410156 33.003906 1.519531 C 32.957031 1.75 32.910156 1.976562 32.863281 2.207031 C 32.789062 2.570312 32.714844 2.933594 32.640625 3.296875 C 32.628906 3.355469 32.617188 3.417969 32.601562 3.480469 C 32.578125 3.601562 32.554688 3.722656 32.527344 3.847656 C 32.492188 4.03125 32.453125 4.214844 32.414062 4.398438 C 32.199219 5.449219 31.988281 6.503906 31.78125 7.558594 C 31.746094 7.722656 31.714844 7.882812 31.683594 8.042969 C 31.636719 8.28125 31.589844 8.515625 31.542969 8.75 C 31.390625 9.515625 31.238281 10.277344 31.085938 11.042969 C 30.769531 12.621094 30.457031 14.207031 30.148438 15.789062 C 30.019531 15.597656 29.960938 15.421875 29.914062 15.140625 C 29.933594 14.953125 29.933594 14.953125 29.976562 14.757812 C 29.992188 14.683594 30.007812 14.613281 30.027344 14.535156 C 30.042969 14.457031 30.0625 14.375 30.082031 14.292969 C 30.101562 14.210938 30.121094 14.125 30.140625 14.039062 C 30.203125 13.761719 30.265625 13.488281 30.328125 13.210938 C 30.371094 13.019531 30.414062 12.824219 30.457031 12.632812 C 30.546875 12.242188 30.632812 11.851562 30.722656 11.460938 C 30.894531 10.703125 31.058594 9.941406 31.226562 9.175781 C 31.257812 9.039062 31.285156 8.902344 31.316406 8.765625 C 31.765625 6.699219 32.210938 4.628906 32.652344 2.558594 C 32.667969 2.476562 32.6875 2.394531 32.703125 2.308594 C 32.785156 1.917969 32.871094 1.527344 32.953125 1.132812 C 32.984375 0.996094 33.011719 0.855469 33.042969 0.71875 C 33.054688 0.652344 33.070312 0.589844 33.082031 0.523438 C 33.175781 0.0898438 33.175781 0.0898438 33.226562 0 Z M 33.226562 0 " style=" stroke:none;fill-rule:nonzero;fill:rgb(0%,40.784314%,69.803923%);fill-opacity:1;"/><path d="M 49.046875 33.453125 C 49.277344 33.453125 49.507812 33.453125 49.746094 33.453125 C 49.78125 34.429688 49.757812 35.117188 49.464844 35.976562 C 49.375 35.976562 49.28125 35.976562 49.1875 35.976562 C 49.191406 35.847656 49.199219 35.71875 49.207031 35.589844 C 49.210938 35.519531 49.214844 35.445312 49.21875 35.371094 C 49.230469 35.1875 49.25 35.015625 49.28125 34.835938 C 49.203125 34.835938 49.125 34.835938 49.046875 34.835938 C 49.046875 34.378906 49.046875 33.925781 49.046875 33.453125 Z M 49.046875 33.453125 " style=" stroke:none;fill-rule:nonzero;fill:rgb(95.686275%,48.235294%,12.54902%);fill-opacity:1;"/><path d="M 60.714844 33.289062 C 60.960938 33.289062 61.207031 33.289062 61.460938 33.289062 C 61.460938 33.71875 61.460938 34.148438 61.460938 34.59375 C 61.214844 34.59375 60.96875 34.59375 60.714844 34.59375 C 60.714844 34.164062 60.714844 33.734375 60.714844 33.289062 Z M 60.714844 33.289062 " style=" stroke:none;fill-rule:nonzero;fill:rgb(95.686275%,48.235294%,12.54902%);fill-opacity:1;"/><path d="M 56.605469 33.289062 C 56.835938 33.289062 57.070312 33.289062 57.308594 33.289062 C 57.308594 33.71875 57.308594 34.148438 57.308594 34.59375 C 57.074219 34.59375 56.84375 34.59375 56.605469 34.59375 C 56.605469 34.164062 56.605469 33.734375 56.605469 33.289062 Z M 56.605469 33.289062 " style=" stroke:none;fill-rule:nonzero;fill:rgb(95.686275%,48.235294%,12.54902%);fill-opacity:1;"/></g></svg>