<svg xmlns="http://www.w3.org/2000/svg" id="Layer_1" width="70" height="70" x="0" y="0" enable-background="new 0 0 70 70" version="1.1" viewBox="0 0 70 70" xml:space="preserve"><metadata/><rect width="70" height="70" fill="none"/><path fill="#00B9F2" d="M1.6,34.6L1.6,34.6c0-2,1.6-3.5,3.5-3.5h21L11.2,16.2c-1.3-1.4-1.3-3.7,0-5l0,0c1.4-1.4,3.7-1.4,5,0L31.1,26 V5c0-2,1.7-3.6,3.6-3.6l0,0c1.899,0,3.5,1.7,3.5,3.6v21L53.1,11.1c1.301-1.4,3.601-1.4,5,0l0,0c1.301,1.3,1.301,3.6,0,5L43.3,31h21 c2,0,3.5,1.6,3.5,3.5l0,0c0,2-1.6,3.5-3.5,3.5h-21l14.9,15c1.3,1.4,1.3,3.6,0,5l0,0c-1.4,1.4-3.7,1.4-5,0L38.3,43.1v21 c0,2-1.7,3.601-3.5,3.601l0,0c-2,0-3.6-1.7-3.6-3.601v-21L16.3,58c-1.3,1.4-3.6,1.4-5,0l0,0c-1.3-1.4-1.3-3.6,0-5l14.9-14.9h-21 C3.1,38.1,1.6,36.5,1.6,34.6z"/><path fill="#004896" d="M12,34.6L12,34.6L12,34.6L12,34.6c0-2,1.6-3.5,3.5-3.5h17.8L47,17.3c1.3-1.4,3.6-1.4,5,0l0,0 c1.3,1.3,1.3,3.6,0,5l-8.6,8.6h10.5c2,0,3.5,1.6,3.5,3.5l0,0v0.1l0,0l0,0c0,2-1.601,3.5-3.5,3.5H43.4l8.6,8.6c1.3,1.4,1.3,3.7,0,5 l0,0c-1.4,1.4-3.7,1.4-5,0L33.3,38.1H15.5C13.5,38.1,12,36.5,12,34.6L12,34.6L12,34.6z"/></svg>