<svg xmlns="http://www.w3.org/2000/svg" id="Layer_1" width="70" height="70" x="0" y="0" enable-background="new 0 0 70 70" version="1.1" viewBox="0 0 70 70" xml:space="preserve"><metadata/><rect width="70" height="70" fill="none"/><g><path fill="#E8C323" d="M23.4,44.5c-3.3-3.3-5.8-8.7-7.5-12.2c-2.8-5.9-6.1-7.8-9.2-7.8c-1.7,0-5.6,0-5.6,0 c2,1.2,10.7,17.3,12.4,20.3c0.4,0.8,0.9,1.601,1.5,2.3C18.5,48.2,21.7,46.5,23.4,44.5z"/><path fill="#E8C323" d="M24.7,24.4c-1.7,0-5.6,0-5.6,0c1.3,0.8,5.3,7.6,8.4,13.2c1.5-2.6,3.2-5.5,4.7-8.2 C29.8,25.7,27.2,24.4,24.7,24.4z"/><path fill="#E8C323" d="M41.4,44.5c-1.9-1.9-3.5-4.5-4.9-7c-2.1,3.5-3.7,6.4-4.2,7.3c-0.1,0.2-0.3,0.5-0.4,0.7 c0.3,0.6,0.7,1.1,1.1,1.6V47C36.4,48.2,39.6,46.5,41.4,44.5z"/><path fill="#721446" d="M36.5,37.5c5-8.5,12.6-21.1,14.1-22c0,0-3.899,0-5.6,0c-3.1,0-6,2.1-9.2,7.8c-0.6,1-1.9,3.4-3.5,6.1 c0.5,0.8,1.1,1.8,1.6,2.8C34.6,33.8,35.5,35.6,36.5,37.5z"/><path fill="#721446" d="M27.5,37.6C26,40.2,24.8,42.3,24.3,43.2c-0.2,0.399-0.5,0.899-0.9,1.3c2.2,2.2,4.7,3.4,7.5,2.4 c0.3-0.5,0.7-0.9,1-1.4c-0.1-0.2-0.3-0.5-0.4-0.7C30.9,43.6,29.3,40.8,27.5,37.6z"/><path fill="#971E5D" d="M23.4,44.5c-1.8,2-4.9,3.7-8.4,2.6c0.5,0.601,1,1.101,1.6,1.601c0.8,0.6,2,1.3,3.4,1.6l0,0 c0.1,0,0.3,0.101,0.4,0.101c0.7,0.1,1.5,0.199,2.4,0.199c1.3,0,2.4-0.199,3.4-0.5c0.1,0,0.1,0,0.2,0c0.2-0.1,0.3-0.1,0.5-0.199 c0.1,0,0.2-0.101,0.3-0.101c0.2-0.1,0.3-0.1,0.5-0.2h0.1c1.3-0.699,2.3-1.6,3.1-2.699C28.1,47.8,25.6,46.6,23.4,44.5z"/><path fill="#971E5D" d="M36.5,37.5c-1-1.9-1.9-3.7-2.6-5.2c-0.5-1.1-1.1-2-1.6-2.8c-1.5,2.6-3.3,5.6-4.7,8.2c1.8,3.2,3.3,6,4,7.2 c0.1,0.199,0.3,0.5,0.4,0.699c0.1-0.199,0.3-0.5,0.4-0.699C32.8,43.9,34.4,41,36.5,37.5z"/><path fill="#721446" d="M63.1,15.5c-3.1,0-6,2.1-9.199,7.8C52.2,26.4,43.8,40.7,42.4,43.2C42.2,43.6,41.8,44.1,41.4,44.6 C43.6,46.8,46.1,48,49,46.9c0.5-0.7,0.9-1.4,1.3-2.101c1.7-3.1,16.2-28,18.3-29.3C68.6,15.5,64.8,15.5,63.1,15.5z"/><path fill="#971E5D" d="M41.4,44.5c-1.801,2-5,3.7-8.5,2.5c0,0,0,0,0,0.1c0,0.101,0.1,0.101,0.1,0.2c0.6,0.7,2.7,2.9,6.4,3.3 c0.199,0,0.3,0,0.5,0.101H40c0.3,0,0.5,0,0.8,0s0.5,0,0.8,0H41.7c0.2,0,0.399,0,0.7-0.101c0.1,0,0.3,0,0.399-0.1 c0.101,0,0.101,0,0.2,0c2.1-0.4,3.6-1.3,4.6-2.2c0.5-0.5,0.9-0.899,1.301-1.5C46.2,47.9,43.6,46.7,41.4,44.5z"/></g></svg>