<svg xmlns="http://www.w3.org/2000/svg" id="Layer_1" width="70px" height="70px" viewBox="0 0 70 70"><defs><style>
      .cls-1 {
        fill: none;
      }

      .cls-2 {
        fill: url(#linear-gradient);
      }

      .cls-3 {
        clip-path: url(#clippath);
      }

      .cls-4 {
        fill: #010101;
      }

      .cls-5 {
        fill: #013b82;
      }

      .cls-6 {
        fill: #fff;
      }

      .cls-7 {
        fill: #de1f26;
      }

      .cls-8 {
        fill: #0b8b44;
      }

      .cls-9 {
        clip-path: url(#clippath-1);
      }

      .cls-10 {
        clip-path: url(#clippath-2);
      }
    </style><clipPath id="clippath"><rect x="12" y="26" width="42" height="42" class="cls-1"/></clipPath><clipPath id="clippath-1"><path d="M12.66,46.14c-.57,11.39,8.2,21.13,19.59,21.76,11.39,.63,21.09-8.09,21.66-19.48,.57-11.39-8.2-21.13-19.6-21.76-.38-.02-.78-.04-1.16-.04-10.89,0-19.95,8.51-20.5,19.52" class="cls-1"/></clipPath><clipPath id="clippath-2"><polyline points="12.21 24.4 9.9 68.42 54.37 70.75 56.68 26.73" class="cls-1"/></clipPath><linearGradient id="linear-gradient" gradientTransform="translate(-5828.27 128259.45) rotate(93) scale(53.65 -53.65)" gradientUnits="userSpaceOnUse" x1="-2392.42" x2="-2391.65" y1="-15.96" y2="-15.96"><stop offset="0" stop-color="#ffe4b0"/><stop offset=".36" stop-color="#e8b976"/><stop offset=".8" stop-color="#d3913b"/><stop offset="1" stop-color="#cb832a"/></linearGradient></defs><g id="surface1"><path d="M33.43,69.64c-.42,0-.84-.02-1.26-.04-12.31-.68-21.83-11.25-21.21-23.55,.3-6.11,3.01-11.68,7.61-15.69,4.39-3.82,10.04-5.73,15.84-5.42,12.31,.68,21.82,11.25,21.21,23.55-.3,6.11-3.01,11.68-7.62,15.69-4.07,3.54-9.21,5.45-14.57,5.45" class="cls-6"/><path d="M26.73,43.41s2-2.09,.24-4.92c-.02-.03,1.03,.36,2.03,.45,.03,0,.05-.51,.05-.58-2.2-.69-5.34-1.9-5.9-3.38,0,0,3.63,1.86,6.02,2.05l.19-.64c-2.37-.62-7.28-2.18-8.27-4.58,0,0,5.14,2.98,8.58,3.43,.02,0,.25-.64,.25-.64-2.2-.68-6.89-3.14-9.15-7.31,0,0,5.52,4.87,9.7,6.17,0,0,.43-.64,.43-.64-2.44-1.38-8.27-4.07-9.54-8.52-.03-.09,5.39,5.43,6.61,5.15,0,0-6.05-5.29-6.61-8.4,0,0,10.18,10.76,11.18,11.45,.5,.34,1.18,1.77,1.18,1.77,0,0,2.24,5.9,6.18,7.32,.08,.03-5.14-.75-7.3-.15-2.35,.64-5.86,1.97-5.86,1.97" class="cls-6"/><path d="M26.73,44.45c-.34,0-.67-.17-.87-.46-.27-.4-.22-.93,.11-1.29,.16-.16,1.39-1.62,.11-3.66-.13-.22-.18-.47-.15-.71-3.16-1.37-3.6-2.54-3.77-2.99-.1-.26-.08-.55,.02-.79-.97-.68-1.71-1.45-2.08-2.34-.17-.41-.05-.88,.27-1.18,.34-.29,.82-.34,1.21-.12,.01,0,.52,.3,1.31,.71-1.17-1.06-2.25-2.34-3.06-3.84-.24-.44-.13-.99,.27-1.31,.27-.21,.64-.28,.96-.18-.29-.54-.54-1.11-.71-1.72-.12-.45,.06-.93,.46-1.18,.11-.07,.21-.11,.32-.14-.41-.71-.7-1.4-.81-2.03-.08-.45,.14-.9,.55-1.11,.41-.21,.91-.12,1.22,.21,3.86,4.08,10.26,10.76,11.02,11.3,.66,.44,1.29,1.68,1.53,2.18,.01,.02,.02,.05,.04,.08,.02,.05,2.12,5.47,5.55,6.71,.5,.17,.78,.7,.66,1.21-.08,.34-.36,.89-1.34,.77-4.52-.56-6.19-.3-6.7-.16-2.28,.62-5.73,1.93-5.77,1.95-.11,.06-.24,.08-.36,.08Zm1.91-4.5c.11,.59,.11,1.15,.02,1.66,1.14-.4,2.52-.86,3.65-1.17,.86-.24,2.15-.31,3.86-.23-2.09-2.24-3.25-5.11-3.41-5.52-.27-.57-.66-1.2-.82-1.34-.03-.02-.06-.05-.11-.08-.02,.04-.04,.09-.07,.13-.08,.12-.31,.45-.39,.57-.11,.19-.26,.33-.44,.43,.04,.18,.03,.38-.04,.56-.15,.43-.3,.84-.55,1.09,.11,.35-.02,.78-.18,1.3-.05,.17-.14,.31-.26,.43,.12,.18,.2,.41,.19,.64-.03,.66-.04,1.01-.41,1.32-.21,.19-.51,.27-.8,.25-.08-.02-.15-.03-.24-.04Zm-.11-9.62c.21,.12,.42,.25,.63,.36-.15-.15-.31-.32-.47-.48-.05,.04-.11,.09-.16,.12Z" class="cls-6"/><path d="M23.57,17.61s4.56,5.67,6.93,7.45c4.47,3.34,4.55,7.48,4.47,9.18,0,0-3.21-5.02-4.78-6.81-1.56-1.8-5.41-5.93-6.63-9.82" class="cls-6"/><path d="M34.97,35.27c-.35,0-.68-.18-.88-.48-.04-.05-3.19-4.98-4.68-6.69l-.46-.53c-1.81-2.06-5.2-5.9-6.38-9.66-.14-.48,.06-1,.5-1.23,.44-.24,.99-.12,1.3,.27,.04,.05,4.5,5.59,6.74,7.27,2.37,1.77,5.14,4.95,4.89,10.07-.02,.45-.34,.84-.77,.95-.09,.01-.18,.03-.27,.03Zm-3.65-8.13c.46,.56,.99,1.29,1.53,2.05-.4-.73-.91-1.41-1.53-2.05Z" class="cls-6"/><path d="M53.43,39.81s-4.76,2.71-6.79,5.22c-.01,.02-.37,.11-1.27,.06-.9-.05-2.58,.11-3.89-.62-1.31-.73-2.46-1.97-2.46-1.97,0,0,2.07,.3,4.14,.15,1.53-.11,4.18-1.21,4.28-1.26,2.22-1.16,5.99-1.59,5.99-1.59" class="cls-6"/><path d="M45.89,46.14c-.17,0-.37,0-.59-.02-.16,0-.35-.01-.56-.01-.99,0-2.49-.02-3.77-.73-1.44-.8-2.66-2.11-2.71-2.16-.3-.32-.36-.8-.16-1.19,.2-.39,.64-.61,1.07-.54,.02,0,2,.29,3.91,.14,1.26-.09,3.64-1.04,3.91-1.16,2.33-1.22,6.16-1.67,6.32-1.69,.49-.05,.95,.24,1.11,.71,.15,.47-.04,.98-.48,1.22-.05,.03-4.61,2.64-6.5,4.97-.14,.2-.36,.47-1.55,.47Zm-.04-1.8s-.03,.04-.04,.05c.01-.02,.03-.03,.04-.05Zm-3.5-.61c.77,.29,1.7,.3,2.4,.3,.25,0,.47,0,.66,.02,.31,.02,.53,.02,.67,0,.54-.6,1.19-1.2,1.88-1.77-.02,0-.04,.02-.06,.03-.15,.08-2.95,1.25-4.69,1.38-.29,.02-.58,.04-.87,.04Z" class="cls-6"/><path d="M45.23,39.8c-2,1.5-4.32,1.94-4.32,1.94,0,0,3.06-.12,4.17-.67,3.09-1.5,7.02-2.09,7.02-2.09-.53-.57-1.79-.87-1.79-.87,.02,.05,.09,.25,.09,.3-.03,.53-.45,.93-.96,.9s-.89-.48-.87-1c0-.11,.1-.3,.06-.3-.48,0-1.41,.27-3.4,1.78" class="cls-6"/><path d="M40.91,42.78c-.52,0-.97-.39-1.03-.93-.06-.54,.31-1.04,.84-1.14,.02,0,2.12-.42,3.88-1.75,2.37-1.79,3.4-1.99,4.04-1.99,.32,0,.63,.17,.82,.43,.02,.01,.02,.04,.04,.05,.04-.04,.07-.08,.11-.11,.25-.23,.6-.32,.94-.25,.27,.06,1.61,.41,2.32,1.18,.26,.28,.34,.68,.22,1.05-.13,.36-.45,.63-.83,.68-.04,0-3.81,.57-6.71,2-1.25,.61-4.04,.76-4.59,.78h-.04Z" class="cls-6"/><path d="M24.3,52.79c-.05,0,1.68-.59,2.6-2.36,0,0,1.41,1.89,3.12,2.36,.02,0-3.57,.37-5.73,0" class="cls-6"/><path d="M26.78,54c-1.05,0-1.95-.06-2.66-.19-.45-.08-.79-.44-.85-.89-.02-.18-.04-.79,.66-1.11,1.17-.54,1.76-1.31,2.05-1.86,.17-.32,.48-.52,.84-.55,.35-.03,.7,.13,.92,.41,.34,.45,1.45,1.68,2.56,1.98,.54,.15,.86,.69,.74,1.23-.19,.84-.62,.86-3.03,.95-.44,.02-.84,.03-1.23,.03Z" class="cls-6"/><path d="M18.86,52.18s2.57-2.18,3.64-3.84c.65-1.01,3.87-3.98,6.19-4.36,0,0,2.13,5.75,9.59,6.97,0,0-6.19,3.17-19.21,1.29" class="cls-6"/><path d="M26.97,53.89c-2.32,0-5.01-.17-8.04-.61-.06,0-.11-.02-.17-.04l-.22-.07c-.36-.12-.62-.42-.7-.79-.07-.37,.05-.75,.35-.99,.02-.02,2.47-2.11,3.44-3.61,.69-1.06,4.12-4.38,6.89-4.82,.48-.07,.95,.2,1.14,.65,.22,.54,2.34,5.27,8.79,6.33,.44,.07,.79,.42,.86,.86s-.16,.88-.55,1.09c-.21,.11-4.02,2-11.79,2Zm-5.81-2.42c6.32,.71,10.79,.16,13.5-.45-3.84-1.58-5.75-4.34-6.55-5.8-1.89,.73-4.3,2.98-4.76,3.69-.53,.85-1.41,1.79-2.2,2.56Z" class="cls-6"/><path d="M30.01,43.43s2.55-1.48,7.08-1.11c1.32,.11,2.71,3.44,6.38,3.81,1.53,.16,2.41-.03,2.41-.03,0,0-2.93,3.55-5.4,3.69-2.59,.14-5.68-.15-9.01-3.89-.79-.88-1.46-2.47-1.46-2.47" class="cls-6"/><path d="M39.56,50.86c-2.64,0-5.69-.7-8.86-4.26-.87-.98-1.56-2.58-1.64-2.76-.2-.48-.02-1.05,.43-1.3,.12-.07,2.88-1.64,7.68-1.25,.88,.07,1.54,.72,2.29,1.46,.98,.96,2.19,2.16,4.1,2.35,1.32,.14,2.09-.02,2.09-.02,.43-.08,.88,.11,1.1,.48,.22,.38,.2,.86-.09,1.2-.33,.4-3.3,3.9-6.14,4.07-.32,.01-.64,.03-.97,.03Zm-8.14-6.9c.24,.44,.54,.93,.83,1.25,2.99,3.34,5.69,3.68,8.18,3.54,.86-.05,1.97-.75,2.94-1.59h0c-2.63-.27-4.26-1.88-5.35-2.93-.36-.35-.84-.83-1.03-.88-2.61-.21-4.52,.25-5.56,.61Z" class="cls-6"/><path d="M8.85,50.48s4.54,.26,6.32-.21,4.55-1.11,5.62-1.79c0,0-3.06,4.38-7.27,4.14-4.21-.23-4.67-2.14-4.67-2.14" class="cls-6"/><path d="M13.86,53.67c-.13,0-.27,0-.4-.01-4.84-.28-5.56-2.67-5.62-2.94-.08-.32,0-.66,.21-.91,.21-.25,.52-.38,.85-.37,1.22,.07,4.67,.18,5.99-.18l.77-.2c1.5-.38,3.77-.96,4.56-1.47,.42-.27,.96-.2,1.3,.16,.34,.36,.39,.9,.1,1.31-.12,.21-3.24,4.61-7.76,4.61Zm-.69-2.11c.13,.02,.27,.02,.41,.03,.87,.05,1.69-.14,2.43-.46l-.58,.15c-.58,.16-1.4,.24-2.26,.29Z" class="cls-6"/><path d="M36.05,33.12s-.14,4.43,2.1,5.1c.57,.18,.93,.21,.93,.21,0,0,.55,.41,3.55-.93,1.77-.78,4.36-.54,4.36-.54,0,0,3.24-.17,5.06,2.05,.02,.02,3.86-.38,4.98-.22,1.12,.15,4.26,.44,6.9,3.63,0,0-3.27-2.8-6.95-2.64-2.56,.11-4.55,1.62-4.66,1.69-.11,.08-4.21,3.17-5.09,4.26s-3.19,4.62-10.7,6.75c-5.44,1.54-13.89,1.39-13.89,1.39,0,0-3.4,1.23-6.12,1.16-2.71-.07-3.7-1.29-3.7-1.29,0,0-4.75-.55-6.04-4.52,0,0,4.95,.25,5.14,.21s7.08-.05,11.22-3.42c3.79-3.09,3.75-5.07,3.75-5.07,0,0-.2-2.36-2.48-3.4-2.55-1.16-2.43-2.86-2.43-2.86,0,0-2.58-2.25-2.48-5.32,0,0,.62,.76,1.68,1.46l2.24,1.27c-2.07-1.57-5.73-6.24-6.16-9.74,0,0,2.29,3.5,4.27,4.43,.11,.05-4.32-4.61-4.44-7.91,0,0,1.93,3.18,4.29,4.45,.12,.06-4.16-5.75-3.95-10.29,0,0,3.3,3.66,3.87,4.84-.34-1.2-2.01-8.48-1.66-11.82,0,0,1.32,8.95,8.62,14.71,.04,.03-7.47-11.23-5.94-17.97l.56,2.34,1.82,4.13s.97-7.27,1.68-7.54c0,0-1.21,9.2,4.18,15.71,5.39,6.5,5.48,15.69,5.48,15.69" class="cls-6"/><path d="M16.75,56.41h-.26c-2.32-.06-3.66-.86-4.29-1.38-1.39-.27-5.41-1.39-6.7-5.38-.14-.43-.06-.9,.21-1.25,.27-.36,.71-.56,1.16-.53,2.13,.11,4.5,.21,4.94,.21,.08,0,.16-.01,.29-.02,4.38-.21,8-1.32,10.2-3.1,2.69-2.2,3.16-3.67,3.24-4-.07-.36-.38-1.58-1.67-2.16-2.32-1.06-2.98-2.57-3.16-3.46-.83-.88-2.64-3.11-2.55-5.99,0-.31,.12-.59,.31-.82-1.26-1.88-2.3-4.03-2.54-5.98-.05-.43,.11-.85,.4-1.14-.36-.89-.55-1.71-.57-2.45-.02-.62,.38-1.18,.98-1.36,.05-.02,.09-.03,.14-.04-.58-1.68-.84-3.2-.78-4.56,.03-.55,.39-1.04,.91-1.22,.52-.18,1.11-.04,1.48,.37,.07,.08,.18,.2,.32,.36-.39-2.34-.68-4.87-.51-6.57,.07-.69,.64-1.21,1.33-1.23,.46,0,.89,.22,1.15,.58-.03-.98,.04-1.91,.23-2.79,.14-.62,.69-1.07,1.33-1.07h0c.63,0,1.18,.43,1.33,1.05l.46,1.93c.64-3.36,1.09-3.7,1.77-3.97,.45-.18,.96-.1,1.34,.2,.38,.3,.57,.78,.51,1.25-.01,.09-1.05,8.7,3.88,14.65,5.64,6.8,5.79,16.16,5.79,16.55v.06c-.04,1.41,.37,3.52,1.13,3.74,.43,.13,.68,.16,.69,.16,.08,0,.16,.03,.23,.05,.19-.01,.9-.11,2.62-.86,1.89-.84,4.38-.7,4.95-.66,.62-.01,3.52,.04,5.58,2,1.89-.16,3.74-.29,4.61-.17h.12c1.3,.18,4.76,.63,7.64,4.12,.45,.54,.41,1.35-.1,1.85-.5,.5-1.31,.52-1.85,.06-.03-.02-2.91-2.45-6-2.32-1.96,.08-3.59,1.2-3.9,1.42,0,0-.04,.03-.04,.04-.72,.53-4.15,3.19-4.8,3.99-.06,.07-.12,.15-.19,.24-1.03,1.33-3.77,4.86-11.2,6.97-5.11,1.45-12.57,1.46-14.04,1.45-.84,.3-3.64,1.17-6.12,1.17Zm-2.85-3.52s.72,.73,2.66,.78c2.41,.06,5.59-1.06,5.62-1.08,.15-.05,.31-.09,.49-.07,.08,0,8.32,.12,13.49-1.34,6.56-1.86,8.82-4.78,9.78-6.02,.08-.11,.15-.2,.21-.28,1.05-1.3,5.34-4.5,5.38-4.52,.02-.02,.04-.03,.05-.04-.22-.07-.41-.2-.6-.43-1.34-1.64-3.91-1.55-3.93-1.55-.06,0-.13,0-.2,0-.62-.05-2.51-.09-3.68,.43-2.61,1.16-3.82,1.22-4.49,1-.2-.04-.53-.1-.95-.23-3.1-.92-3.1-5.71-3.08-6.42-.02-.48-.27-8.92-5.16-14.81-2.08-2.51-3.25-5.37-3.88-8-.14,.12-.33,.22-.57,.29-.12,.03-.24,.05-.36,.04,1.12,3.16,2.88,6.49,4.66,9.3,.64,1.01-.03,1.71-.18,1.84-.5,.45-1.25,.48-1.77,.06-2.15-1.7-3.81-3.66-5.09-5.59,.13,.58,.24,1.02,.31,1.26,.2,.68-.17,1.4-.84,1.65-.48,.18-1.02,.07-1.39-.25,.5,1.01,1.14,2.14,1.96,3.4,.21,.32,.76,1.16,.03,1.95-.22,.24-.51,.39-.82,.43,.25,.32,.52,.64,.82,.98,.61,.71,.69,1.36,.24,1.95-.26,.34-.65,.54-1.06,.54,.96,1.26,1.96,2.31,2.68,2.86,.57,.43,.71,1.25,.32,1.84-.4,.6-1.19,.79-1.82,.43l-.41-.23c.31,.37,.55,.58,.55,.59,.36,.31,.54,.64,.47,1.09,.03,.17,.21,.9,1.62,1.55,2.98,1.36,3.27,4.39,3.28,4.52,0,.04,0,.06,0,.1,0,.44-.16,2.82-4.26,6.16-2.64,2.15-6.82,3.47-11.79,3.71h-.14c-.23,.03-.78,.03-2.75-.06,1.5,1.39,3.62,1.67,3.64,1.67,.4,.05,.7,.19,.92,.51Zm-2.11-4.82c-.08,0-.13,.02-.16,.03,.05-.02,.1-.02,.16-.03Zm27.87-10.87c.08,.04,.16,.08,.23,.13-.08-.06-.16-.11-.23-.13Z" class="cls-6"/><path d="M20.36,29.2l3.36,.19-.13,2.62-3.36-.2" class="cls-6"/><path d="M23.58,33.04h-.05l-3.35-.19c-.57-.04-1.01-.52-.98-1.09l.12-2.61c.02-.28,.14-.54,.34-.72,.2-.18,.48-.28,.75-.27l3.36,.19c.57,.04,1.01,.52,.98,1.09l-.13,2.62c-.01,.28-.14,.54-.34,.72-.2,.17-.45,.26-.7,.26Zm-2.27-2.2l1.28,.07,.03-.54-1.28-.07-.03,.54Z" class="cls-6"/><g class="cls-3"><g class="cls-9"><g class="cls-10"><path d="M10.02,21.96l-2.55,48.66,49.08,2.57,2.55-48.66-49.08-2.57Z" class="cls-2"/></g></g></g><path d="M20.31,29.27l3.35,.19-.12,2.62-3.36-.2" class="cls-6"/><path d="M23.62,32.18l-3.55-.2,.13-2.82,3.55,.2-.13,2.82Zm-3.34-.39l3.15,.18,.12-2.41-3.15-.18-.12,2.41Z" class="cls-6"/><path d="M36.05,33.12s-.14,4.43,2.11,5.1c.57,.18,.93,.21,.93,.21,0,0,.55,.41,3.55-.92,1.76-.78,4.35-.54,4.35-.54,0,0,3.24-.17,5.06,2.05,.02,.02,3.86-.38,4.98-.23,1.12,.15,4.26,.44,6.9,3.63,0,0-3.26-2.8-6.95-2.64-2.56,.11-4.55,1.62-4.66,1.7-.11,.07-4.21,3.17-5.09,4.25s-3.18,4.62-10.69,6.75c-5.44,1.54-13.89,1.39-13.89,1.39,0,0-3.4,1.23-6.12,1.16-2.71-.07-3.7-1.3-3.7-1.3,0,0-4.75-.55-6.03-4.53,0,0,4.95,.26,5.14,.21,.2-.05,7.07-.05,11.21-3.43,3.79-3.09,3.76-5.07,3.76-5.07,0,0-.2-2.36-2.48-3.39-2.55-1.16-2.43-2.86-2.43-2.86,0,0-2.58-2.25-2.48-5.32,0,0,.61,.75,1.67,1.46,0,0,2.25,1.28,2.24,1.28-2.06-1.57-5.72-6.24-6.16-9.75,0,0,2.29,3.51,4.27,4.43,.11,.06-4.32-4.61-4.43-7.91,0,0,1.93,3.19,4.29,4.45,.12,.06-4.16-5.75-3.95-10.29,0,0,2.09,5.69,7.55,9.64,.04,.02-5.71-7.23-5.35-16.63,0,0,1.32,8.95,8.62,14.71,.04,.05-7.46-11.21-5.93-17.95,0,0,.72,7.83,6.96,16.15,.02,.03-5.69-8.24-3.11-16.23,0,0-1,8.2,4.39,14.71,5.38,6.5,5.47,15.69,5.47,15.69" class="cls-4"/><path d="M8.86,50.47s4.54,.26,6.31-.2c1.78-.47,4.55-1.12,5.62-1.79,0,0-3.06,4.38-7.27,4.14-4.21-.24-4.66-2.15-4.66-2.15" class="cls-8"/><path d="M53.43,39.8s-4.76,2.71-6.79,5.22c-.01,.02-.37,.11-1.27,.06-.9-.05-2.58,.11-3.89-.62-1.31-.73-2.46-1.97-2.46-1.97,0,0,2.07,.3,4.13,.16,1.53-.11,4.19-1.21,4.29-1.26,2.23-1.16,6-1.59,6-1.59" class="cls-7"/><path d="M26.73,43.41s2-2.09,.24-4.92c-.02-.03,1.03,.35,2.03,.45,.03,0,.05-.51,.05-.58-2.2-.69-5.34-1.9-5.9-3.38,0,0,3.64,1.86,6.02,2.05,0,0,.19-.63,.19-.64-2.37-.62-7.28-2.18-8.27-4.58,0,0,5.14,2.98,8.58,3.42,.02,0,.25-.64,.25-.64-2.2-.68-6.89-3.14-9.16-7.31,0,0,5.52,4.87,9.7,6.17,0,0,.43-.64,.43-.64-2.44-1.37-8.27-4.07-9.54-8.52-.02-.08,5.39,5.43,6.61,5.15,0,0-6.05-5.29-6.61-8.39,0,0,10.18,10.76,11.18,11.44,.5,.34,1.18,1.77,1.18,1.77,0,0,2.24,5.9,6.18,7.32,.08,.03-5.14-.75-7.3-.15-2.35,.64-5.86,1.97-5.86,1.97" class="cls-8"/><path d="M18.86,52.18s2.58-2.18,3.64-3.83c.65-1.01,3.87-3.98,6.19-4.36,0,0,2.14,5.75,9.59,6.97,0,0-6.19,3.17-19.21,1.29" class="cls-5"/><path d="M52.11,38.98c-.53-.57-1.79-.87-1.79-.87,0,.05,.08,.25,.08,.3-.02,.53-.45,.93-.96,.9s-.9-.48-.87-1c0-.11,.1-.3,.07-.3-.48,0-1.4,.27-3.4,1.78-1.99,1.5-4.32,1.95-4.32,1.95,0,0,3.06-.13,4.17-.67,3.08-1.51,7.01-2.09,7.01-2.09" class="cls-6"/><path d="M34.98,34.23c.08-1.7,0-5.84-4.47-9.18-2.38-1.77-6.93-7.45-6.93-7.45,1.22,3.89,5.07,8.02,6.63,9.81,1.56,1.8,4.78,6.82,4.78,6.82" class="cls-6"/><path d="M43.46,46.12c-3.66-.38-5.05-3.7-6.38-3.81-4.52-.38-7.08,1.11-7.08,1.11,0,0,.68,1.59,1.46,2.47,3.33,3.73,6.42,4.04,9.01,3.89,2.46-.13,5.4-3.69,5.4-3.69,0,0-.88,.19-2.41,.03" class="cls-6"/><path d="M26.91,50.42c-.93,1.76-2.65,2.35-2.6,2.36,2.16,.38,5.75,0,5.72,0-1.71-.46-3.12-2.36-3.12-2.36" class="cls-6"/></g></svg>