<svg xmlns="http://www.w3.org/2000/svg" version="1.1" id="Layer_1" x="0px" y="0px" width="70px" height="70px" viewBox="0 0 70 70" enable-background="new 0 0 70 70" xml:space="preserve"><path fill="#EC2027" d="M0.57,46.092c0.027-0.06,0.07-0.115,0.079-0.178   c0.15-0.941,0.444-1.846,0.751-2.744c0.911-2.664,1.997-5.258,3.123-7.834c0.321-0.734,0.667-1.459,0.974-2.198   c0.352-0.845,0.623-1.716,0.759-2.623c0.078-0.518,0.108-1.034-0.025-1.548c-0.087-0.332-0.248-0.617-0.519-0.836   c-0.256-0.207-0.551-0.205-0.848-0.163c-0.479,0.067-0.882,0.296-1.238,0.616c-0.403,0.361-0.706,0.799-0.958,1.273   c-0.131,0.249-0.248,0.507-0.388,0.756c0.011-0.049,0.018-0.098,0.032-0.146c0.184-0.646,0.425-1.266,0.771-1.843   c0.215-0.359,0.467-0.688,0.791-0.958c0.568-0.474,1.206-0.589,1.92-0.403c0.872,0.227,1.301,0.82,1.456,1.666   c0.114,0.629,0.1,1.258,0.02,1.887c-0.048,0.381-0.115,0.758-0.151,1.148c0.035-0.062,0.072-0.123,0.104-0.188   c0.705-1.365,1.448-2.71,2.317-3.981c0.503-0.736,1.042-1.446,1.681-2.073c0.357-0.35,0.738-0.668,1.184-0.899   c0.375-0.195,0.769-0.325,1.197-0.263c0.926,0.136,1.427,0.742,1.337,1.691c-0.065,0.695-0.278,1.354-0.544,1.99   c-0.46,1.103-0.94,2.196-1.416,3.293c-0.582,1.342-1.126,2.697-1.518,4.109c-0.388,1.396-0.621,2.812-0.552,4.266   c0.015,0.326,0.059,0.65,0.093,0.975c0.004,0.049,0.028,0.096,0.05,0.164c0.052-0.06,0.094-0.1,0.128-0.146   c1.325-1.754,2.648-3.508,3.97-5.264c0.165-0.22,0.32-0.447,0.478-0.672c0.384-0.545,0.832-1.026,1.396-1.392   c0.326-0.212,0.675-0.367,1.068-0.417c0.504-0.065,0.938,0.083,1.307,0.425c0.266,0.247,0.453,0.548,0.604,0.874   c0.239,0.516,0.378,1.061,0.477,1.617c0.005,0.021-0.001,0.044-0.004,0.109c-0.047-0.1-0.08-0.162-0.108-0.227   c-0.18-0.418-0.384-0.824-0.679-1.172c-0.167-0.195-0.356-0.383-0.564-0.53c-0.396-0.28-0.828-0.298-1.265-0.085   c-0.34,0.166-0.614,0.415-0.857,0.699c-0.816,0.962-1.328,2.067-1.556,3.305c-0.104,0.566-0.146,1.136-0.044,1.705   c0.027,0.151,0.076,0.305,0.146,0.441c0.094,0.186,0.221,0.211,0.376,0.073c0.138-0.122,0.272-0.257,0.373-0.41   c0.337-0.506,0.669-1.017,0.982-1.537c0.253-0.42,0.477-0.856,0.713-1.285c0.036-0.064,0.072-0.128,0.113-0.204   c0.434,0.013,0.745,0.258,1.066,0.509c-0.054,0.101-0.099,0.185-0.143,0.269c-0.204,0.4-0.351,0.818-0.4,1.268   c-0.04,0.355,0.013,0.695,0.169,1.018c0.034,0.07,0.083,0.135,0.143,0.232c0.87-1.146,1.604-2.338,2.254-3.582   c0.922-1.765,1.814-4.182,1.95-5.275c-0.057-0.004-0.114-0.014-0.169-0.015c-0.883-0.03-1.767-0.04-2.648-0.096   c-0.808-0.052-1.61-0.155-2.388-0.395c-0.277-0.085-0.547-0.19-0.78-0.37c-0.193-0.149-0.319-0.336-0.274-0.593   c0.016-0.094,0.051-0.188,0.099-0.271c0.142-0.248,0.345-0.439,0.6-0.637c-0.011,0.073-0.013,0.111-0.022,0.148   c-0.068,0.248,0,0.463,0.191,0.623c0.128,0.107,0.278,0.197,0.432,0.265c0.44,0.196,0.912,0.263,1.385,0.304   c1.194,0.108,2.388,0.049,3.582-0.043c0.028-0.002,0.056-0.014,0.11-0.027c0.308-2.19,0.654-4.381,0.592-6.641   c0.094,0.033,0.186,0.055,0.265,0.098c0.26,0.137,0.434,0.355,0.556,0.617c0.136,0.294,0.215,0.607,0.212,0.928   c-0.007,0.697-0.023,1.396-0.062,2.092c-0.032,0.584-0.1,1.168-0.155,1.752c-0.034,0.354-0.076,0.707-0.117,1.096   c0.088,0,0.166,0.004,0.242-0.001c0.459-0.034,0.918-0.071,1.377-0.108c0.651-0.051,1.303-0.105,1.953-0.156   c0.696-0.055,1.392-0.109,2.087-0.162c0.696-0.051,1.392-0.104,2.088-0.148c0.889-0.057,1.778-0.111,2.668-0.156   c0.586-0.029,1.172-0.039,1.758-0.057c0.173-0.004,0.338,0.021,0.497,0.099c0.118,0.058,0.251,0.087,0.38,0.13   c-0.101,0.062-2.158,0.311-3.26,0.424c-1.101,0.111-2.197,0.256-3.294,0.39s-2.195,0.267-3.292,0.407   c-1.094,0.142-2.188,0.295-3.292,0.443c-0.038,0.267-0.067,0.508-0.105,0.749c-0.068,0.425-0.145,0.848-0.208,1.273   c-0.028,0.198-0.037,0.398-0.051,0.599c-0.065,0.881-0.123,1.762-0.198,2.643c-0.035,0.405-0.1,0.81-0.151,1.215   c-0.004,0.035-0.005,0.07-0.011,0.135c0.062-0.033,0.111-0.047,0.144-0.079c0.194-0.202,0.402-0.396,0.576-0.617   c0.588-0.749,0.991-1.601,1.331-2.483c0.144-0.373,0.269-0.754,0.412-1.156c0.33,0.054,0.646,0.17,0.991,0.254   c-0.579,1.627-0.972,3.27-0.845,5.006c0.129-0.012,0.174-0.097,0.232-0.156c0.695-0.733,1.251-1.564,1.711-2.46   c0.549-1.069,0.933-2.196,1.164-3.378c0.012-0.062,0.033-0.125,0.056-0.205c0.355,0.143,0.696,0.28,1.051,0.424   c-0.735,1.534-1.213,3.121-1.304,4.837c0.059-0.021,0.102-0.024,0.132-0.048c1.781-1.34,3.239-2.943,4.081-5.041   c0.124-0.309,0.21-0.633,0.302-0.953c0.036-0.125,0.089-0.203,0.219-0.248c0.224-0.077,0.442-0.172,0.657-0.269   c0.106-0.048,0.191-0.047,0.288,0.021c0.542,0.386,1.042,0.818,1.418,1.37c0.159,0.232,0.294,0.483,0.4,0.742   c0.238,0.587,0.229,1.185-0.064,1.747c-0.269,0.512-0.566,1.01-0.878,1.496c-0.413,0.644-0.86,1.266-1.274,1.907   c-0.228,0.355-0.431,0.729-0.621,1.105c-0.092,0.182-0.144,0.391-0.183,0.593c-0.058,0.299,0.09,0.53,0.384,0.613   c0.395,0.114,0.794,0.091,1.188-0.007c0.5-0.125,0.928-0.388,1.322-0.711c0.057-0.046,0.09-0.092,0.071-0.172   c-0.206-0.849-0.086-1.684,0.145-2.505c0.512-1.831,1.379-3.471,2.671-4.876c0.282-0.307,0.598-0.578,0.957-0.794   c0.296-0.178,0.606-0.309,0.962-0.308c0.297,0,0.553,0.101,0.767,0.303c0.095,0.092,0.191,0.19,0.259,0.303   c0.394,0.652,0.649,1.352,0.655,2.123c0.007,0.692-0.274,1.254-0.823,1.671c-0.176,0.134-0.37,0.251-0.569,0.346   c-0.741,0.356-1.538,0.478-2.357,0.503c0.034-0.012,0.067-0.025,0.101-0.037c0.036-0.01,0.072-0.018,0.108-0.027   c0.49-0.127,0.959-0.311,1.392-0.579c0.267-0.166,0.509-0.362,0.701-0.612c0.25-0.326,0.373-0.69,0.315-1.104   c-0.042-0.308-0.086-0.617-0.15-0.92c-0.028-0.135-0.097-0.267-0.171-0.383c-0.151-0.238-0.36-0.309-0.615-0.194   c-0.152,0.069-0.305,0.16-0.428,0.272c-0.476,0.434-0.875,0.934-1.146,1.52c-0.503,1.085-0.963,2.188-1.273,3.346   c-0.12,0.445-0.217,0.896-0.229,1.357c-0.006,0.235,0.011,0.478,0.062,0.707c0.123,0.553,0.493,0.844,1.062,0.866   c0.339,0.014,0.664-0.06,0.984-0.157c0.562-0.172,1.091-0.424,1.6-0.718c0.07-0.04,0.142-0.078,0.232-0.102   c-0.032,0.044-0.059,0.091-0.095,0.132c-0.341,0.39-0.773,0.645-1.251,0.824c-0.681,0.255-1.385,0.391-2.113,0.372   c-0.628-0.017-1.161-0.223-1.521-0.773c-0.011-0.018-0.031-0.028-0.059-0.052c-0.05,0.047-0.096,0.09-0.143,0.135   c-0.453,0.453-0.96,0.815-1.595,0.973c-0.544,0.135-1.077,0.086-1.594-0.118c-0.608-0.241-0.88-0.739-0.779-1.388   c0.069-0.439,0.234-0.843,0.438-1.232c0.328-0.627,0.734-1.205,1.17-1.759c0.289-0.368,0.596-0.722,0.88-1.093   c0.207-0.271,0.412-0.547,0.579-0.844c0.389-0.687,0.335-1.363-0.106-2.013c-0.313-0.46-0.726-0.821-1.171-1.148   c-0.017-0.012-0.042-0.016-0.078-0.029c-0.02,0.074-0.039,0.145-0.058,0.216c-0.408,1.559-1.038,3.016-2,4.315   c-0.773,1.044-1.717,1.886-2.912,2.423c-0.176,0.079-0.356,0.148-0.539,0.211c-0.449,0.154-0.833-0.078-0.891-0.549   c-0.02-0.167,0.003-0.34,0.011-0.511c0.003-0.063,0.017-0.129-0.014-0.212c-0.035,0.067-0.071,0.133-0.104,0.2   c-0.327,0.671-0.716,1.302-1.255,1.827c-0.144,0.139-0.305,0.259-0.458,0.388c-0.078,0.066-0.153,0.073-0.244,0.019   c-0.114-0.068-0.23-0.138-0.354-0.185c-0.2-0.077-0.296-0.229-0.363-0.419c-0.191-0.539-0.202-1.09-0.108-1.647   c0.009-0.058,0.015-0.113-0.005-0.181c-0.035,0.053-0.073,0.104-0.105,0.159c-0.429,0.738-1.052,1.278-1.768,1.723   c-0.068,0.042-0.128,0.059-0.207,0.019c-0.212-0.105-0.427-0.202-0.664-0.312c0.2-1.676,0.451-3.35,0.387-5.041   c-0.017-0.004-0.034-0.008-0.05-0.011c-0.024,0.057-0.05,0.112-0.071,0.171c-0.494,1.416-1.029,2.815-1.685,4.166   c-0.267,0.547-0.547,1.089-0.907,1.582c-0.174,0.238-0.365,0.473-0.584,0.669c-0.451,0.404-0.844,0.324-1.14-0.205   c-0.169-0.301-0.261-0.629-0.344-0.961c-0.023-0.093-0.044-0.187-0.066-0.282c-0.102-0.006-0.123,0.081-0.164,0.135   c-0.313,0.407-0.642,0.801-1.03,1.137c-0.168,0.146-0.353,0.273-0.533,0.402c-0.059,0.041-0.129,0.07-0.197,0.102   c-0.537,0.24-0.933,0.099-1.196-0.431c-0.169-0.345-0.251-0.716-0.29-1.093c-0.04-0.398-0.058-0.799-0.085-1.198   c-0.003-0.048-0.009-0.097-0.019-0.192c-0.073,0.1-0.122,0.16-0.167,0.225c-0.738,1.08-1.504,2.139-2.415,3.082   c-0.292,0.304-0.621,0.574-0.953,0.836c-0.146,0.114-0.336,0.188-0.517,0.244c-0.271,0.084-0.477-0.018-0.611-0.27   c-0.125-0.234-0.156-0.495-0.182-0.752c-0.277-2.779,0.143-5.461,1.13-8.062c0.322-0.848,0.747-1.648,1.157-2.455   c0.634-1.252,1.226-2.523,1.653-3.864c0.133-0.417,0.257-0.839,0.255-1.282c0-0.133-0.021-0.268-0.058-0.393   c-0.05-0.174-0.271-0.326-0.485-0.186c-0.291,0.189-0.595,0.365-0.864,0.584c-0.76,0.619-1.376,1.373-1.948,2.162   c-0.926,1.279-1.693,2.652-2.389,4.066c-0.813,1.653-1.52,3.352-2.152,5.082c-0.43,1.178-0.825,2.367-1.259,3.543   c-0.444,1.205-0.937,2.393-1.527,3.533c-0.258,0.5-0.554,0.982-0.85,1.463c-0.12,0.193-0.274,0.37-0.432,0.537   c-0.116,0.121-0.253,0.231-0.398,0.318c-0.269,0.158-0.534,0.1-0.734-0.142c-0.052-0.062-0.102-0.126-0.152-0.188   C0.57,46.418,0.57,46.255,0.57,46.092z" clip-rule="evenodd" fill-rule="evenodd"/><path fill="#EC2027" d="M53.8,27.678c0.309,0.191,0.591,0.365,0.88,0.545   c-0.035,0.086-0.062,0.154-0.09,0.221c-1.142,2.701-2.006,5.49-2.585,8.364c-0.107,0.529-0.154,1.071-0.212,1.609   c-0.02,0.175-0.001,0.356,0.026,0.531c0.042,0.263,0.187,0.333,0.408,0.19c0.16-0.104,0.32-0.224,0.445-0.367   c0.376-0.43,0.753-0.861,1.098-1.314c0.802-1.053,1.526-2.158,2.236-3.273c0.043-0.067,0.089-0.135,0.141-0.211   c0.282,0.158,0.552,0.309,0.843,0.472c-0.022,0.085-0.042,0.17-0.067,0.251c-0.201,0.654-0.391,1.31-0.493,1.986   c-0.047,0.307-0.062,0.619-0.068,0.93c-0.002,0.137,0.036,0.28,0.086,0.41c0.082,0.217,0.243,0.319,0.472,0.29   c0.158-0.021,0.321-0.065,0.466-0.134c0.567-0.265,1.043-0.648,1.438-1.136c0.542-0.668,0.957-1.411,1.334-2.18   c0.443-0.907,0.817-1.845,1.143-2.802c0.045-0.135,0.109-0.23,0.244-0.289c0.17-0.074,0.329-0.17,0.505-0.262   c0.098,0.072,0.196,0.139,0.286,0.214c0.414,0.351,0.839,0.688,1.232,1.06c0.207,0.195,0.382,0.437,0.533,0.68   c0.24,0.383,0.282,0.805,0.16,1.243c-0.094,0.339-0.238,0.657-0.423,0.952c-0.394,0.63-0.801,1.251-1.201,1.877   c-0.256,0.398-0.517,0.797-0.765,1.202c-0.234,0.382-0.427,0.78-0.498,1.229c-0.082,0.508,0.117,0.906,0.579,1.139   c0.379,0.191,0.792,0.242,1.209,0.262c0.648,0.029,1.289-0.049,1.928-0.148c0.051-0.009,0.103-0.02,0.153-0.025   c0.021-0.002,0.042,0.005,0.068,0.035c-0.366,0.089-0.729,0.195-1.098,0.263c-0.533,0.099-1.067,0.179-1.604,0.249   c-0.392,0.053-0.785,0.029-1.173-0.061c-0.021-0.006-0.043-0.008-0.064-0.015c-0.619-0.171-0.898-0.607-0.797-1.243   c0.074-0.469,0.259-0.897,0.471-1.316c0.339-0.662,0.749-1.281,1.168-1.895c0.281-0.41,0.57-0.814,0.85-1.227   c0.251-0.369,0.41-0.77,0.403-1.228c-0.004-0.328-0.083-0.638-0.252-0.911c-0.156-0.25-0.332-0.494-0.532-0.71   c-0.247-0.264-0.528-0.495-0.811-0.755c-0.03,0.07-0.051,0.109-0.062,0.149c-0.466,1.604-1.236,3.062-2.122,4.47   c-0.546,0.867-1.235,1.594-2.042,2.213c-0.193,0.148-0.412,0.263-0.624,0.384c-0.076,0.043-0.164,0.067-0.251,0.091   c-0.398,0.106-0.684-0.026-0.854-0.401c-0.113-0.245-0.157-0.509-0.174-0.777c-0.044-0.731,0.031-1.453,0.158-2.172   c0.011-0.064,0.018-0.129-0.012-0.216c-0.046,0.061-0.094,0.119-0.138,0.181c-0.599,0.833-1.206,1.659-1.894,2.421   c-0.331,0.369-0.689,0.716-1.053,1.055c-0.166,0.155-0.368,0.275-0.562,0.397c-0.092,0.059-0.2,0.097-0.307,0.128   c-0.335,0.101-0.582-0.012-0.729-0.328c-0.135-0.289-0.166-0.6-0.178-0.913c-0.024-0.7,0.074-1.392,0.19-2.079   c0.01-0.063,0.017-0.127-0.008-0.201c-0.041,0.067-0.083,0.135-0.121,0.203c-0.41,0.738-0.892,1.422-1.524,1.986   c-0.538,0.483-1.139,0.859-1.854,1.013c-0.879,0.189-1.596-0.1-2.155-0.782c-0.328-0.399-0.491-0.879-0.592-1.379   c-0.15-0.741-0.155-1.491-0.062-2.238c0.398-3.18,1.652-6.004,3.585-8.538c0.602-0.789,1.298-1.488,2.105-2.071   c0.844-0.608,1.772-1.023,2.805-1.179c1.273-0.19,2.312,0.202,3.053,1.288c0.433,0.637,0.683,1.35,0.836,2.096   c0.088,0.428,0.141,0.862,0.18,1.298c-0.115-0.416-0.218-0.835-0.345-1.246c-0.166-0.534-0.401-1.038-0.732-1.493   c-0.381-0.523-0.855-0.926-1.49-1.105c-0.601-0.172-1.19-0.137-1.759,0.127c-1.661,0.769-2.97,1.947-3.988,3.457   c-0.855,1.268-1.444,2.656-1.876,4.117c-0.313,1.062-0.553,2.14-0.662,3.244c-0.079,0.799-0.126,1.601,0.033,2.396   c0.047,0.236,0.126,0.476,0.235,0.689c0.191,0.371,0.517,0.484,0.902,0.326c0.189-0.079,0.369-0.191,0.534-0.314   c0.355-0.261,0.65-0.586,0.917-0.936c0.562-0.734,1.013-1.536,1.431-2.357c0.934-1.827,1.695-3.728,2.402-5.65   c0.229-0.619,0.441-1.244,0.662-1.867C53.748,27.811,53.771,27.756,53.8,27.678z" clip-rule="evenodd" fill-rule="evenodd"/><path fill="#EC2027" d="M68.626,39.441c0.223-0.239,0.426-0.455,0.628-0.671   c0.061-0.065,0.119-0.138,0.259-0.09c0.013,0.501,0.027,1.015,0.042,1.548c-0.148,0-0.278,0-0.433,0   c-0.009-0.248-0.019-0.502-0.029-0.756c-0.015-0.007-0.029-0.014-0.043-0.021c-0.054,0.054-0.11,0.106-0.163,0.162   c-0.078,0.078-0.151,0.164-0.232,0.239c-0.1,0.093-0.143,0.093-0.247,0.001c-0.084-0.072-0.161-0.152-0.243-0.229   c-0.052-0.048-0.107-0.094-0.193-0.168c0,0.291,0,0.544,0,0.813c-0.114,0.007-0.207,0.011-0.332,0.019   c-0.017-0.527-0.031-1.043-0.046-1.56c0.156-0.061,0.264-0.026,0.37,0.079C68.171,39.019,68.39,39.218,68.626,39.441z" clip-rule="evenodd" fill-rule="evenodd"/><path fill="#EC2027" d="M57.816,31.871c-0.211,0.518-0.007,0.928,0.305,1.35   c-0.1-0.029-0.156-0.041-0.208-0.062c-0.479-0.194-0.903-0.478-1.299-0.806c-0.152-0.127-0.177-0.307-0.139-0.486   c0.033-0.15,0.16-0.201,0.304-0.213c0.25-0.021,0.486,0.037,0.722,0.105C57.599,31.788,57.694,31.827,57.816,31.871z" clip-rule="evenodd" fill-rule="evenodd"/><path fill="#EC2027" d="M66.466,39.04c-0.188,0-0.342,0-0.507,0c0-0.104,0-0.188,0-0.292   c0.462-0.016,0.919-0.029,1.399-0.045c0.007,0.099,0.011,0.184,0.018,0.293c-0.17,0.014-0.328,0.025-0.498,0.039   c0,0.42,0,0.824,0,1.248c-0.127,0-0.241,0-0.383,0C66.486,39.879,66.477,39.476,66.466,39.04z" clip-rule="evenodd" fill-rule="evenodd"/></svg>