<svg xmlns="http://www.w3.org/2000/svg" id="Layer_1" width="70" height="70" x="0" y="0" enable-background="new 0 0 70 70" version="1.1" viewBox="0 0 70 70" xml:space="preserve"><g><path fill="#0095DA" d="M9.202,33.294H2.754c-0.428,0-0.775,0.347-0.775,0.775v9.428c0,0.428,0.347,0.775,0.775,0.775h0.989 c0.428,0,0.775-0.347,0.775-0.775v-3.445h3.273c0.428,0,0.775-0.347,0.775-0.775v-0.989c0-0.428-0.347-0.775-0.775-0.775H4.518 v-1.681h4.684c0.428,0,0.775-0.347,0.775-0.775v-0.989C9.977,33.641,9.63,33.294,9.202,33.294z"/><path fill="#0095DA" d="M17.498,41.746h-4.473v-7.677c0-0.428-0.347-0.775-0.775-0.775h-0.989c-0.428,0-0.775,0.347-0.775,0.775 v9.428c0,0.428,0.347,0.775,0.775,0.775h6.237c0.428,0,0.775-0.347,0.775-0.775v-0.976C18.273,42.093,17.926,41.746,17.498,41.746z"/><path fill="#0095DA" d="M25.548,33.718c-0.132-0.26-0.399-0.424-0.691-0.424H23.63c-0.248,0-0.48,0.118-0.626,0.318l-2.211,3.033 l-2.221-3.034c-0.146-0.199-0.378-0.317-0.625-0.317H16.72c-0.292,0-0.559,0.164-0.691,0.424c-0.132,0.26-0.107,0.573,0.066,0.808 l3.424,4.674v4.296c0,0.428,0.347,0.775,0.775,0.775h0.989c0.428,0,0.775-0.347,0.775-0.775v-4.296l3.424-4.674 C25.654,34.291,25.68,33.979,25.548,33.718z"/></g><g><path fill="#0095DA" d="M53.757,48.552c-3.173,1.814-6.843,2.856-10.76,2.856c-6.209,0-11.804-2.609-15.762-6.786 c3.788,6.177,10.579,10.312,18.342,10.376C48.802,53.537,51.605,51.312,53.757,48.552z"/><path fill="#21409A" d="M68.579,26.752c0.1-3.34-0.148-6.727-0.148-6.727l-15.787,9.172l5.197,1.714 c0.349,1.357,0.504,2.986,0.504,4.301c0,5.031-1.715,9.659-4.587,13.341c-2.152,2.76-4.955,4.985-8.18,6.446 c0.061,0,0.122,0.005,0.184,0.005c10.842,0,18.951-7.608,21.453-18.332C67.725,34.48,68.431,31.693,68.579,26.752z"/></g><g><path fill="#21409A" d="M30.291,33.307c-3.009,0-5.456,2.448-5.456,5.456c0,3.008,2.447,5.456,5.456,5.456 c3.001,0,5.443-2.448,5.443-5.456C35.734,35.755,33.292,33.307,30.291,33.307z M30.291,41.707c-1.616,0-2.93-1.32-2.93-2.944 c0-1.616,1.315-2.93,2.93-2.93s2.93,1.315,2.93,2.93C33.221,40.386,31.906,41.707,30.291,41.707z"/><path fill="#21409A" d="M44.705,33.294h-0.989c-0.428,0-0.775,0.347-0.775,0.775v5.306l-4.522-5.784 c-0.147-0.188-0.372-0.298-0.61-0.298h-0.791c-0.428,0-0.775,0.347-0.775,0.775v9.428c0,0.428,0.347,0.775,0.775,0.775h0.989 c0.428,0,0.775-0.347,0.775-0.775v-5.306l4.522,5.784c0.147,0.188,0.372,0.297,0.61,0.297h0.791c0.428,0,0.775-0.347,0.775-0.775 v-9.428C45.48,33.641,45.133,33.294,44.705,33.294z"/><path fill="#21409A" d="M53.557,35.818c0.357-0.069,0.627-0.383,0.627-0.76v-0.989c0-0.428-0.347-0.775-0.775-0.775h-6.17 c-0.428,0-0.775,0.347-0.775,0.775v9.428c0,0.428,0.347,0.775,0.775,0.775h5.946c0.428,0,0.717-0.36,0.741-0.685l0.022-0.994 c0.013-0.507-0.328-0.86-0.756-0.86h-4.19v-1.681h4.292c0.428,0,0.737-0.324,0.744-0.711l0.016-1.053 c-0.009-0.449-0.347-0.775-0.775-0.775h-4.277v-1.681C49.003,35.833,53.509,35.827,53.557,35.818z"/></g></svg>