<svg xmlns="http://www.w3.org/2000/svg" version="1.1" id="Layer_1" x="0px" y="0px" width="70" height="70" viewBox="0 0 70 70" xml:space="preserve" style="enable-background:new 0 0 70 70;"><style type="text/css">
	.st0{fill-rule:evenodd;clip-rule:evenodd;fill:#3851A2;}
	.st1{fill:none;stroke:#3851A2;stroke-width:0.622;stroke-miterlimit:4.1;}
	.st2{fill-rule:evenodd;clip-rule:evenodd;fill:#38BFC3;}
	.st3{fill:none;stroke:#38BFC3;stroke-width:0.6017;stroke-miterlimit:3.864;}
	.st4{fill:#3851A2;}
	.st5{fill:#38BFC3;}
	.st6{fill:#ED3024;}
</style><polygon id="XMLID_35_" points="24.2,41.8 26.1,32.4 29.1,39.2 32.2,32.4 33.8,41.8 32.5,41.8 31.6,36.5 29,42.2   26.5,36.5 25.6,41.8 " class="st0"/><polygon id="XMLID_34_" points="24.2,41.8 26.1,32.4 29.1,39.2 32.2,32.4 33.8,41.8 32.5,41.8 31.6,36.5 29,42.2   26.5,36.5 25.6,41.8 " class="st1"/><path id="XMLID_67_" d="M41.2,39.7h-3.7l-1,2.1H35l4.3-9.3l4.2,9.3h-1.4L41.2,39.7z M40.6,38.4l-1.3-3l-1.4,3H40.6z" class="st0"/><path id="XMLID_29_" d="M41.2,39.7h-3.7l-1,2.1H35l4.3-9.3l4.2,9.3h-1.4L41.2,39.7z M40.6,38.4l-1.3-3l-1.4,3H40.6z" class="st1"/><polygon id="XMLID_28_" points="45.7,38 42.8,33.1 44.4,33.1 46.4,36.6 48.4,33.1 49.9,33.1 47,38 47,41.8 45.7,41.8   " class="st0"/><polygon id="XMLID_27_" points="45.7,38 42.8,33.1 44.4,33.1 46.4,36.6 48.4,33.1 49.9,33.1 47,38 47,41.8 45.7,41.8   " class="st1"/><path id="XMLID_59_" d="M55.3,39.7h-3.7l-1,2.1h-1.4l4.3-9.3l4.2,9.3h-1.4L55.3,39.7z M54.7,38.4l-1.3-3l-1.4,3H54.7z" class="st0"/><path id="XMLID_22_" d="M55.3,39.7h-3.7l-1,2.1h-1.4l4.3-9.3l4.2,9.3h-1.4L55.3,39.7z M54.7,38.4l-1.3-3l-1.4,3H54.7z" class="st1"/><rect id="XMLID_21_" x="59.2" y="35.5" width="1.5" height="6.4" class="st2"/><rect id="XMLID_20_" x="59.2" y="35.5" width="1.5" height="6.4" class="st3"/><path id="XMLID_19_" d="M62.9,35.5h1.5v0.6c0.3-0.3,0.5-0.5,0.7-0.6c0.2-0.1,0.5-0.2,0.8-0.2c0.4,0,0.8,0.1,1.2,0.4  l-0.7,1.4c-0.3-0.2-0.6-0.3-0.8-0.3c-0.8,0-1.2,0.6-1.2,1.8v3.3h-1.5V35.5z" class="st2"/><path id="XMLID_18_" d="M62.9,35.5h1.5v0.6c0.3-0.3,0.5-0.5,0.7-0.6c0.2-0.1,0.5-0.2,0.8-0.2c0.4,0,0.8,0.1,1.2,0.4  l-0.7,1.4c-0.3-0.2-0.6-0.3-0.8-0.3c-0.8,0-1.2,0.6-1.2,1.8v3.3h-1.5V35.5z" class="st3"/><rect id="XMLID_17_" x="59.2" y="33.1" width="1.6" height="1.2" class="st4"/><polygon id="XMLID_16_" points="2.3,40.3 8,40.3 7.2,41.6 2.3,41.6 " class="st0"/><polygon id="XMLID_15_" points="3.8,38.5 9.1,38.5 8.3,39.8 3.8,39.8 " class="st0"/><polygon id="XMLID_14_" points="5.3,36.8 12.8,36.8 11.6,38.1 5.3,38.1 " class="st0"/><polygon id="XMLID_13_" points="6.8,35 11.3,35 10.5,36.3 6.8,36.3 " class="st0"/><polygon id="XMLID_12_" points="8.3,33.3 12.5,33.3 11.6,34.6 8.3,34.6 " class="st0"/><polygon id="XMLID_11_" points="12.5,32.8 12.5,31.5 13.5,31.5 13.5,32.8 15,32.8 15,30.3 10.9,30.3 10.9,32.8 " class="st0"/><rect id="XMLID_10_" x="10.7" y="29.6" width="4.6" height="0.4" class="st0"/><path id="XMLID_9_" d="M13.3,34.7c-0.1-0.5,0-1.1,0.2-1.8c0,0.2,0,0.5,0,0.7c0.3,1.7,2.4,2,4.6,0.7  c1.5-0.9,3.1-2.1,3.4-3.8c-0.1,1.6-2,4.1-4,5.3C15.5,37.2,13.7,36.4,13.3,34.7" class="st5"/><path id="XMLID_8_" d="M12.6,39.3c-0.1-0.6,0-1.3,0.2-2c0,0.3,0.3,0.9,0.4,1.1c0.6,1.2,1.9,1.8,4.3,0.4  c2.7-1.6,4-5.4,4.4-7.2c-0.1,1.8-1.6,7.3-4.4,8.9C15.1,41.9,13,41.2,12.6,39.3" class="st5"/><path id="XMLID_7_" d="M13,36.9c-0.1-0.5,0-1.2,0.2-1.8c0,0.3,0,0.5,0,0.7c0.3,1.7,2.3,1.7,4.6,0.6  c1.9-1,3.5-3.6,3.9-5.2c-0.1,1.6-2,5.7-4.2,6.9C15.2,39.3,13.3,38.6,13,36.9" class="st5"/><path id="XMLID_6_" d="M15.6,32.5c0-0.4,0.1-0.7,0.3-1.1c0,0.2,0.4,0.1,0.3,0.3c-0.1,0.6,0,1.2,0.6,1.3  c0.6,0.1,1.3,0.1,2.1-0.3c1-0.6,2.2-1.2,2.6-2.3c-0.2,1.1-1.7,2.6-3.1,3.2C16.8,34.3,15.7,33.6,15.6,32.5" class="st6"/><path id="XMLID_5_" d="M18.6,30.9c0-0.1-0.1-0.2-0.2-0.3c-0.1-0.1-0.3-0.1-0.6-0.1c-0.6,0-1.1,0.2-1.5,0.6  c-0.4,0.4-0.6,0.8-0.6,1.3c0,0.4,0.1,0.7,0.4,0.9c0.2,0.2,0.6,0.4,1,0.4c0.3,0,0.7-0.1,1.1-0.3c0,0-0.1-0.1-0.1-0.1  c0,0-0.1,0.1-0.1,0.1c-0.1,0-0.2,0-0.2,0.1c-0.1,0-0.2-0.1-0.2-0.1c-0.1,0-0.1,0-0.2,0c-0.3,0-0.5-0.1-0.7-0.3  c-0.2-0.2-0.3-0.4-0.3-0.7c0-0.4,0.1-0.7,0.4-1c0.3-0.3,0.5-0.4,0.8-0.4c0.4,0,0.5,0.1,0.5,0.4c0,0,0,0.1,0,0.1  C18.4,31.3,18.6,31.1,18.6,30.9" class="st6"/><polyline id="XMLID_4_" points="66.7,34 67.5,34 67.5,34.1 67.2,34.1 67.2,35.1 67.1,35.1 67.1,34.1 66.7,34.1 " class="st4"/><path id="XMLID_2_" d="M68.6,34.6c0-0.2,0-0.3,0-0.5h0c0,0.1-0.1,0.3-0.1,0.4l-0.2,0.5h-0.1l-0.2-0.5  c-0.1-0.2-0.1-0.3-0.1-0.4h0c0,0.1,0,0.3,0,0.5l0,0.5h-0.1l0.1-1.1h0.2l0.2,0.5c0,0.1,0.1,0.3,0.1,0.4h0c0-0.1,0.1-0.2,0.1-0.4  l0.2-0.5h0.2l0.1,1.1h-0.1L68.6,34.6z" class="st4"/></svg>