<svg xmlns="http://www.w3.org/2000/svg" version="1.1" width="70px" height="70px" viewBox="0 0 70 70"><g id="surface1"><path d="M 70 35 C 70 54.328125 54.328125 70 35 70 C 15.671875 70 0 54.328125 0 35 C 0 15.671875 15.671875 0 35 0 C 54.328125 0 70 15.671875 70 35 Z M 70 35 " style=" stroke:none;fill-rule:nonzero;fill:rgb(98.431373%,88.235294%,13.333333%);fill-opacity:1;"/><path d="M 63.3125 31.664062 C 63.3125 31.664062 65.507812 28.972656 63.246094 27.417969 C 60.84375 25.761719 51.160156 24.128906 39.597656 33.367188 C 28.03125 42.609375 25.785156 48.945312 24.121094 53.621094 C 24.121094 53.621094 29.832031 45.164062 35.855469 40.800781 C 35.855469 40.800781 34.191406 41.839844 32.21875 48.382812 C 32.21875 48.382812 34.820312 43.441406 50.074219 33.597656 C 50.074219 33.597656 62.554688 26.664062 63.3125 31.664062 " style=" stroke:none;fill-rule:nonzero;fill:rgb(0%,58.039216%,50.980392%);fill-opacity:1;"/><path d="M 57.960938 24.960938 C 57.960938 24.960938 56.894531 23.726562 53.902344 23.625 C 53.902344 23.625 52.921875 24.953125 51.183594 25 C 49.695312 25.042969 49.042969 24.125 48.707031 23.796875 C 50.566406 24.511719 51.90625 23.488281 51.90625 23.488281 C 51.90625 23.488281 46.160156 22.523438 37.527344 23.925781 C 37.527344 23.925781 40.570312 22.109375 45.800781 21.097656 C 50.367188 20.21875 59.734375 20.109375 57.960938 24.960938 " style=" stroke:none;fill-rule:nonzero;fill:rgb(0%,58.039216%,50.980392%);fill-opacity:1;"/><path d="M 36.792969 31.214844 C 36.792969 31.214844 23.910156 41.535156 13.957031 37.964844 C 14.835938 44.574219 21.925781 43.179688 21.925781 43.179688 C 21.925781 43.179688 29.246094 42.539062 36.792969 31.214844 " style=" stroke:none;fill-rule:nonzero;fill:rgb(3.921569%,65.098039%,87.843137%);fill-opacity:1;"/><path d="M 36.167969 24.253906 C 36.167969 24.253906 21.964844 26.824219 13.691406 16.378906 C 13.691406 16.378906 10.484375 23.410156 18.035156 25.996094 C 18.035156 25.996094 26.824219 29.148438 36.167969 24.253906 " style=" stroke:none;fill-rule:nonzero;fill:rgb(3.921569%,65.098039%,87.843137%);fill-opacity:1;"/><path d="M 5.828125 24.800781 C 5.488281 26.804688 5.777344 33.207031 11.210938 34.78125 C 24.46875 38.675781 40.027344 26.65625 40.027344 26.65625 C 18.613281 33.285156 9.945312 27.480469 5.828125 24.800781 " style=" stroke:none;fill-rule:nonzero;fill:rgb(3.921569%,65.098039%,87.843137%);fill-opacity:1;"/></g></svg>