<svg xmlns="http://www.w3.org/2000/svg" id="Layer_1" width="70" height="70" x="0" y="0" version="1.1" viewBox="0 0 70 70" xml:space="preserve" style="enable-background:new 0 0 70 70"><style type="text/css">.st0{fill:#86d0f4}.st1{fill:#004b93}</style><g><path d="M44,38.6c-3.6,1.7-6.2,5.3-6,8c-14.2-4.2-27.3-2.6-36.9,2.1C0.6,49,0.1,48.9,1,48.4 C10.6,42.7,29.2,37.6,44,38.6z" class="st0"/><path d="M69.5,33.2L69,35.6c0,0-0.1,1.1-0.9,1.5c-0.8,0.4-2,0.4-2,0.4H52.8l0.8-3.7c-1.3,2.9-4.8,4.3-10.9,4.3 c-3,0-6-0.3-7.7-1.5l0.2,1h-6.6l-0.3-1.8h-6.5l-1,1.8h-6.6l8.7-13.6c0,0,0.9-1.4,1.5-1.7c0.8-0.4,2.2-0.4,2.2-0.4h5.3l2.3,11h7.1 c-0.1,0.5,0,0.9,0.4,1.1c0.4,0.2,1.1,0.3,2.1,0.3c1.9,0,2.6-0.5,2.7-1.3c0.1-0.5-0.1-0.9-0.9-1.1l-6.9-1.1 c-2.9-0.5-3.8-2.2-3.4-4.4c0.9-4.1,5.1-5.2,10.2-5.2c7,0,9.5,1.8,9,5.2h-7.2c0.1-0.6-0.2-1-0.7-1.3c-0.5-0.2-1.2-0.3-1.9-0.3 c-1.9,0-2.6,0.5-2.7,1.1c-0.1,0.4,0,0.7,0.6,0.8l7.2,1.1c2.5,0.4,4.1,1.5,4.2,3.4l2-9.4h6.2l-2.4,11.5L69.5,33.2L69.5,33.2z M31,29.5c0,0-2.1-1-4.5-0.8c-3.8,0.2-5.1,2.6-5.1,2.6s1.6-1.1,4.5-1c2,0.1,3.2,0.9,3.2,0.9s0.3-0.9,0.7-1.2 C30.3,29.5,31,29.5,31,29.5z" class="st1"/><path d="M46.7,38.9h0.7l0.5,3.3h-0.7l-0.1-0.7h-1.4l-0.5,0.7h-0.8L46.7,38.9z M47,40.8l-0.1-1.1l-0.7,1.1H47z" class="st1"/><path d="M49.3,38.9H50l-0.9,3.3h-0.7L49.3,38.9z" class="st1"/><path d="M50.8,38.9h1.2c0.5,0,0.8,0.1,1.1,0.3c0.2,0.2,0.3,0.4,0.3,0.7c0,0.6-0.4,1-1.1,1.2l0.6,1.1H52l-0.5-1.1H51 l-0.3,1.1H50L50.8,38.9z M51.8,40.5c0.5,0,0.8-0.2,0.8-0.5c0-0.1,0-0.2-0.1-0.3c-0.1-0.1-0.2-0.1-0.5-0.1h-0.6l-0.3,1H51.8z" class="st1"/><path d="M54.3,38.9H55l-0.7,2.6H56l-0.2,0.7h-2.4L54.3,38.9z" class="st1"/><path d="M57.3,38.9H58l-0.9,3.3h-0.7L57.3,38.9z" class="st1"/><path d="M58.8,38.9h0.7l1,2.1l0.6-2.1h0.7l-0.9,3.3h-0.6l-1-2.2l-0.6,2.2h-0.7L58.8,38.9z" class="st1"/><path d="M62.6,38.9H65l-0.2,0.6h-1.8l-0.2,0.7h1.5l-0.2,0.6h-1.5l-0.2,0.7h1.8l-0.2,0.6h-2.5L62.6,38.9z" class="st1"/><path d="M64.7,41.7l0.5-0.5c0.3,0.3,0.5,0.4,0.9,0.4c0.3,0,0.5-0.1,0.5-0.3c0-0.2-0.1-0.3-0.6-0.4 c-0.4-0.2-0.8-0.4-0.8-0.9c0-0.7,0.6-1.1,1.3-1.1c0.6,0,1,0.2,1.2,0.5l-0.5,0.5c-0.2-0.2-0.5-0.4-0.8-0.4c-0.3,0-0.5,0.2-0.5,0.3 c0,0.2,0.1,0.2,0.6,0.4c0.5,0.2,0.8,0.4,0.8,0.9c0,0.7-0.6,1.1-1.3,1.1C65.5,42.3,65,42.1,64.7,41.7z" class="st1"/><path d="M42.8,43.5h2.5l-0.2,0.7h-1.8l-0.2,0.7h1.6l-0.2,0.7H43l-0.3,1.3h-0.7L42.8,43.5z" class="st0"/><path d="M45.9,43.5h1.2c0.5,0,0.8,0.1,1.1,0.3c0.2,0.2,0.3,0.4,0.3,0.7c0,0.6-0.4,1-1.1,1.2l0.6,1.1h-0.8l-0.5-1.1 h-0.5l-0.3,1.1h-0.7L45.9,43.5z M46.9,45.1c0.5,0,0.8-0.2,0.8-0.5c0-0.1,0-0.2-0.1-0.3c-0.1-0.1-0.2-0.1-0.5-0.1h-0.6l-0.3,1H46.9z" class="st0"/><path d="M50.4,43.5h0.7l0.5,3.3h-0.7l-0.1-0.7h-1.4l-0.5,0.7h-0.8L50.4,43.5z M50.7,45.4l-0.1-1.1l-0.7,1.1H50.7z" class="st0"/><path d="M53,43.5h0.7l1,2.1l0.6-2.1h0.7L55,46.8h-0.6l-1-2.2l-0.6,2.2H52L53,43.5z" class="st0"/><path d="M56,45.4c0-1.1,0.9-2,2-2c0.6,0,1.1,0.3,1.3,0.7l-0.6,0.4c-0.2-0.3-0.4-0.5-0.8-0.5c-0.6,0-1.2,0.6-1.2,1.3 c0,0.5,0.3,0.8,0.8,0.8c0.3,0,0.5-0.1,0.8-0.3l0.5,0.5c-0.3,0.3-0.7,0.5-1.2,0.5C56.7,46.9,56,46.3,56,45.4z" class="st0"/><path d="M60.1,43.5h2.5l-0.2,0.6h-1.8l-0.2,0.7H62l-0.2,0.6h-1.5l-0.2,0.7h1.8l-0.2,0.6h-2.5L60.1,43.5z" class="st0"/></g></svg>