<svg xmlns="http://www.w3.org/2000/svg" version="1.1" id="Layer_1" x="0px" y="0px" width="70px" height="70px" viewBox="0 0 70 70" enable-background="new 0 0 70 70" xml:space="preserve"><path fill="#99499C" d="M31.054,20.529c1.905-0.832,4.111-0.271,6.142-0.368c0.077,0.677,0.251,2.021,0.339,2.689  c6.19,0.087,12.419-0.416,18.589,0.222c0.01,0.59,0.039,1.751,0.058,2.341c4.207,0.261,8.821-0.987,12.796,0.619  C65.544,31.7,60.94,36.555,57.313,42.097c2.921,0.01,5.851,0.039,8.772,0.261c-0.28,1.954-0.571,3.898-0.841,5.852  c-10.417,0.232-20.824,0.058-31.24,0.097c-1.083,2.07-3.259,4.672-5.871,3.385c-3.085-0.929-3.463-5.474-1.054-7.302  c1.567-1.016,3.424-0.426,5.126-0.222c0.271-0.368,0.832-1.103,1.103-1.47c-2.021,0.048-4.033,0.068-6.055,0.077  c0.242-2.302,0.503-4.604,0.677-6.906c-2.379,3.975-4.236,8.24-6.325,12.37c-1.867-0.232-4.352,0.735-5.832-0.532  c-0.909-3.559-0.571-7.283-0.735-10.92c-2.07,3.753-3.936,7.621-5.881,11.442c-1.934,0.039-3.869,0.048-5.803,0.058  c-0.996-7.96-1.876-15.968-2.331-23.967c2.263-0.822,4.788-0.251,7.148-0.28c0.203,3.627,0.261,7.273,0.464,10.91  c1.963-3.617,3.608-7.38,5.494-11.036c2.031,0.019,4.053,0.029,6.084,0.039c0.406,3.569,0.609,7.148,0.812,10.736  c1.731-3.54,3.385-7.109,5.02-10.687c1.402-0.039,2.805-0.077,4.198-0.106C30.483,22.763,30.754,21.641,31.054,20.529z"/><path fill="#FFFFFF" d="M31.702,21.573c1.509-0.126,3.027-0.232,4.536-0.329c-0.097,0.667-0.3,2.012-0.406,2.689  c6.335,0.068,12.67,0,19.005,0.029c-0.464,0.87-0.929,1.741-1.383,2.611c4.633-0.019,9.266-0.029,13.899-0.019  c-3.82,5.706-8.898,10.591-12.022,16.723c3.047,0.048,6.103,0.019,9.15,0.019c-0.077,1.257-0.145,2.515-0.213,3.762  c-10.523,0.213-21.056,0.058-31.579,0.106c-0.706,1.006-0.861,2.602-2.167,3.027c-1.364,0.948-2.882-0.484-3.762-1.441  c-0.251-1.383,0.677-2.534,1.19-3.724c1.538,0.222,3.047,0.629,4.478,1.228c4.275-5.9,8.859-11.568,12.96-17.584  c-3.434-0.387-6.886-0.387-10.339-0.309c-0.793,4.333-1.48,8.685-2.389,12.999c-1.373,0-2.737-0.01-4.101-0.01  c0.648-4.594,1.712-9.121,2.099-13.744c-3.492,6.441-6.799,12.999-10.107,19.547c-1.141,0-2.283,0.01-3.424,0.01  c-0.551-4.817-1.025-9.653-1.19-14.498c-2.834,4.72-5.31,9.633-7.883,14.498c-1.151,0-2.292,0-3.443,0  c-1.045-7.341-1.789-14.711-2.457-22.091c1.635,0.01,3.269,0.019,4.913,0.019c0.329,4.788,0.251,9.595,0.619,14.382  c2.65-4.584,4.768-9.44,6.973-14.247c1.499-0.087,2.998-0.155,4.497-0.222c0.339,4.817,0.513,9.643,0.938,14.459  c2.418-4.739,4.488-9.653,6.857-14.411c1.509,0,3.018,0,4.536,0C31.537,24.185,31.654,22.444,31.702,21.573z"/><path fill="#FFFFFF" d="M35.629,31.69c0.261-3.704,5.203-1.615,7.66-1.944c-3.018,3.907-5.861,7.941-9.121,11.645  C34.545,38.141,35.039,34.911,35.629,31.69z"/><path fill="#99499C" d="M41.645,41.739c2.553-3.946,5.735-7.457,8.424-11.316c2.989-0.116,5.987-0.097,8.966,0.155  c-2.795,4.13-5.706,8.221-8.937,12.032c-2.65,0.455-5.407,0.387-8.066-0.01C41.935,42.387,41.741,41.962,41.645,41.739z"/><path fill="#FFFFFF" d="M43.415,41.352c2.437-3.288,4.884-6.567,7.399-9.788c2.021,0.029,4.053,0.039,6.074,0.068  c-2.36,3.317-4.865,6.519-7.351,9.73C47.496,41.352,45.455,41.362,43.415,41.352z"/></svg>