<svg xmlns="http://www.w3.org/2000/svg" id="Layer_1" width="70" height="70" x="0" y="0" enable-background="new 0 0 70 70" version="1.1" viewBox="0 0 70 70" xml:space="preserve"><path fill="#E6E8E9" fill-rule="evenodd" d="M15.081,42.898c-0.015,0.034-0.031,0.068-0.047,0.102 c-0.931,0-1.862,0-2.792,0c0-0.033,0-0.066,0-0.1C13.188,42.9,14.134,42.9,15.081,42.898z" clip-rule="evenodd"/><path fill="#C22241" fill-rule="evenodd" d="M33.402,33.368c0.329-0.195,0.607-0.374,0.898-0.529 c0.879-0.47,1.808-0.636,2.79-0.403c0.641,0.152,1.156,0.494,1.502,1.062c0.077,0.131,0.131,0.133,0.25,0.052 c0.522-0.351,1.018-0.745,1.628-0.948c0.716-0.238,1.443-0.349,2.189-0.215c1.205,0.216,2.035,1.144,2.152,2.367 c0.061,0.639,0.019,1.277,0.038,1.915c0.004,0.117-0.049,0.169-0.149,0.206c-0.451,0.166-0.903,0.332-1.35,0.507 c-0.153,0.06-0.174,0.001-0.173-0.132c0.002-0.536,0-1.072,0-1.609c0-1.355-0.864-2.027-2.197-1.705 c-0.656,0.156-1.226,0.486-1.758,0.891c-0.108,0.084-0.104,0.184-0.104,0.293c0.001,1.111-0.004,2.225,0.004,3.337 c0.001,0.184-0.05,0.259-0.233,0.3c-0.377,0.08-0.749,0.184-1.12,0.292c-0.188,0.056-0.257,0.036-0.254-0.188 c0.011-1.144,0.011-2.287,0.003-3.431c-0.008-0.967-0.61-1.553-1.579-1.564c-0.36-0.004-0.706,0.062-1.046,0.174 c-0.492,0.162-0.932,0.418-1.337,0.739c-0.115,0.092-0.158,0.19-0.157,0.341c0.006,1.547-0.001,3.093,0.009,4.639 c0.002,0.203-0.06,0.271-0.251,0.297c-0.396,0.056-0.792,0.132-1.186,0.208c-0.128,0.024-0.18,0.008-0.18-0.141 c0.005-2.446,0.005-4.892,0-7.337c0-0.143,0.053-0.17,0.18-0.167c0.417,0.006,0.836,0.009,1.254-0.001 c0.154-0.005,0.188,0.051,0.179,0.19C33.395,32.979,33.402,33.15,33.402,33.368z" clip-rule="evenodd"/><path fill="#C22241" fill-rule="evenodd" d="M13.673,30.75c-0.739,0.844-1.094,1.853-1.221,2.945 c-0.128,1.096-0.098,2.188,0.211,3.259c0.554,1.919,1.97,3.079,3.962,3.257c2.057,0.184,3.769-0.533,5.21-1.972 c0.037-0.036,0.058-0.095,0.152-0.097c0,0.424,0,0.845,0,1.266c0,0.332-0.012,0.663,0.003,0.994 c0.008,0.168-0.055,0.249-0.199,0.322c-0.564,0.285-1.141,0.535-1.742,0.73c-0.168,0.056-0.342,0.053-0.515,0.061 c-1.363,0.061-2.726,0.125-4.09,0.123c-0.519,0-0.979-0.229-1.432-0.444c-1.814-0.867-2.892-2.327-3.309-4.267 c-0.374-1.74-0.35-3.48,0.265-5.174c0.628-1.734,1.838-2.906,3.557-3.561c0.037-0.014,0.077-0.015,0.116-0.022 c-0.179,0.217-0.365,0.427-0.535,0.649C13.667,29.396,13.414,30.016,13.673,30.75z" clip-rule="evenodd"/><path fill="#0D0E0E" fill-rule="evenodd" d="M13.673,30.75c-0.259-0.734-0.005-1.354,0.434-1.93 c0.17-0.223,0.356-0.433,0.535-0.649c0.421-0.355,0.798-0.758,1.194-1.14c0.053-0.051,0.05-0.111,0.047-0.174 c-0.02-0.578-0.133-1.142-0.243-1.707c-0.009-0.047-0.023-0.096-0.083-0.097c-0.088-0.001-0.067,0.071-0.069,0.12 c-0.018,0.418-0.039,0.836-0.172,1.236c-0.086,0.259-0.203,0.496-0.44,0.654c-0.386,0.257-0.812,0.154-1.046-0.248 c-0.02-0.035-0.007-0.104-0.098-0.102c-0.042,0.166-0.021,0.345-0.068,0.515c-0.111,0.401-0.291,0.749-0.676,0.953 c-0.406,0.216-0.743,0.13-0.999-0.259c-0.153-0.232-0.245-0.492-0.32-0.758c-0.367-1.304-0.571-2.632-0.62-3.984 c-0.011-0.277-0.01-0.275-0.271-0.203c-0.641,0.179-1.297,0.266-1.96,0.282C8.664,23.266,8.6,23.302,8.58,23.467 c-0.09,0.744-0.011,1.479,0.086,2.215c0.022,0.172,0.061,0.343,0.068,0.516c0.008,0.17,0.067,0.172,0.202,0.11 c0.538-0.248,1.052-0.536,1.556-0.845c0.094-0.059,0.229-0.199,0.304-0.094c0.076,0.107-0.083,0.219-0.177,0.293 c-0.494,0.396-1.04,0.713-1.607,0.989c-0.159,0.078-0.19,0.157-0.162,0.323c0.204,1.171,0.315,2.346,0.03,3.521 c-0.486,2.007-2.516,3.645-4.481,3.596c-1.651-0.039-2.71-1.214-2.943-2.689c-0.09-0.581,0.117-1.093,0.547-1.541 c0.027,0.156-0.046,0.247-0.09,0.344c-0.57,1.245-0.03,2.654,1.269,3.133c1.484,0.549,2.793,0.137,3.915-0.912 c0.708-0.664,1.061-1.532,1.261-2.466c0.196-0.919,0.208-1.847,0.127-2.778c-0.005-0.062-0.017-0.125-0.028-0.188 c-0.002-0.013-0.015-0.023-0.033-0.051c-0.512,0.26-1.018,0.527-1.403,0.971c-0.158,0.183-0.264,0.391-0.302,0.631 c-0.012,0.066-0.001,0.164-0.104,0.156C6.512,28.692,6.512,28.6,6.506,28.52c-0.04-0.514,0.131-0.945,0.513-1.291 c0.343-0.314,0.752-0.515,1.186-0.669c0.138-0.05,0.176-0.114,0.159-0.258c-0.107-0.95-0.135-1.903-0.057-2.858 c0.007-0.083,0.034-0.169-0.116-0.158c-1.018,0.072-2.026,0.199-2.976,0.6c-1.033,0.436-1.784,1.141-2.081,2.258 c-0.104,0.388-0.118,0.78-0.002,1.168c0.194,0.648,0.689,0.859,1.342,0.563c0.531-0.241,0.837-0.677,0.99-1.228 c0.041-0.148,0.011-0.293-0.034-0.439c-0.021-0.069-0.026-0.184,0.07-0.197c0.085-0.012,0.088,0.097,0.105,0.16 c0.225,0.871-0.468,1.885-1.406,2.06c-0.935,0.175-1.675-0.418-1.762-1.41c-0.113-1.295,0.61-2.473,1.904-3.097 c0.749-0.359,1.557-0.494,2.37-0.604c0.485-0.065,0.974-0.1,1.463-0.086c0.132,0.004,0.196-0.028,0.23-0.163 c0.063-0.249,0.215-0.435,0.459-0.536c0.09-0.037,0.183-0.055,0.276-0.022c0.077,0.026,0.153,0.077,0.148,0.165 c-0.005,0.113-0.103,0.062-0.166,0.068c-0.22,0.018-0.365,0.17-0.438,0.476c0.778-0.062,1.531-0.202,2.259-0.472 c0.111-0.041,0.092-0.135,0.097-0.218c0.017-0.312,0.077-0.61,0.243-0.878c0.24-0.387,0.584-0.383,0.804,0.014 c0.237,0.427,0.254,0.906,0.291,1.375c0.088,1.141-0.029,2.256-0.282,3.377c-0.121,0.538,0.093,1.127,0.525,1.553 c0.194,0.191,0.439,0.154,0.623-0.057c0.137-0.16,0.206-0.352,0.232-0.559c0.084-0.654,0.035-1.309,0.02-1.963 c-0.01-0.417-0.042-0.834-0.071-1.251c-0.013-0.193,0.055-0.339,0.22-0.437c0.183-0.108,0.368-0.211,0.535-0.306 c-0.164,0.999-0.016,1.992,0.097,2.985c0.021,0.188,0.088,0.369,0.207,0.521c0.145,0.189,0.301,0.188,0.44-0.008 c0.167-0.23,0.21-0.507,0.246-0.78c0.123-0.942,0.104-1.89,0.029-2.834c-0.027-0.333,0.055-0.548,0.359-0.684 c0.12-0.054,0.232-0.131,0.371-0.212c-0.239,0.781,0.004,1.508,0.126,2.238c0.106,0.637,0.245,1.268,0.369,1.901 c0.072,0.028,0.095-0.038,0.127-0.075c0.439-0.525,0.687-1.125,0.699-1.815c0.006-0.339,0.005-0.678-0.021-1.017 c-0.007-0.088-0.04-0.223,0.085-0.232c0.11-0.009,0.091,0.124,0.1,0.205c0.047,0.432,0.052,0.867,0.035,1.301 c-0.027,0.683-0.315,1.264-0.746,1.775c-0.188,0.223-0.288,0.449-0.256,0.744c0.021,0.18,0.002,0.361,0.001,0.543 c-0.057,0.555-0.133,1.106-0.276,1.647c-0.105,0.218-0.2,0.442-0.318,0.653c-0.245,0.438-0.596,0.77-1.056,0.977 C14.294,31.262,13.995,31.185,13.673,30.75z M15.873,27.852c0-0.136,0-0.271,0-0.414c-0.179,0.172-0.35,0.337-0.521,0.502 c-0.406,0.371-0.798,0.761-1.108,1.218c-0.266,0.392-0.43,0.821-0.318,1.31c0.045,0.461,0.363,0.625,0.754,0.387 c0.128-0.078,0.238-0.18,0.331-0.297c0.226-0.287,0.383-0.608,0.489-0.955C15.705,29.035,15.822,28.45,15.873,27.852z M11.944,25.828c0.283-1.201,0.305-2.41,0.14-3.654c-0.124,0.135-0.211,0.259-0.328,0.346c-0.113,0.084-0.132,0.18-0.126,0.304 C11.682,23.829,11.776,24.831,11.944,25.828z M11.658,22.133c0.145-0.111,0.213-0.235,0.248-0.382 c0.016-0.068-0.003-0.134-0.068-0.159c-0.086-0.032-0.103,0.044-0.122,0.102C11.669,21.826,11.654,21.963,11.658,22.133z" clip-rule="evenodd"/><path fill="#C22342" fill-rule="evenodd" d="M30.366,39.346c0,0.359-0.006,0.684,0.003,1.006 c0.002,0.121-0.043,0.164-0.158,0.181c-1.413,0.196-2.825,0.392-4.246,0.526c-0.36,0.035-0.724,0.051-1.082,0.105 c-0.305,0.045-0.56-0.045-0.804-0.202c-0.628-0.403-1.038-0.987-1.306-1.667c-0.682-1.722-0.546-3.397,0.377-4.996 c0.454-0.787,1.145-1.314,2.018-1.582c1.089-0.335,2.176-0.342,3.241,0.1c1.202,0.498,1.891,1.402,2.053,2.696 c0.065,0.524,0.104,1.05,0.065,1.58c-0.014,0.188-0.074,0.229-0.254,0.229c-2.002-0.006-4.006,0.002-6.008-0.01 c-0.245-0.001-0.294,0.066-0.291,0.299c0.025,1.493,1.055,2.598,2.598,2.786c0.994,0.121,1.93-0.021,2.804-0.526 C29.686,39.688,30.012,39.531,30.366,39.346z M26.515,36.107c0.772,0,1.545-0.004,2.317,0.003c0.163,0.001,0.223-0.04,0.215-0.21 c-0.032-0.686-0.281-1.256-0.843-1.669c-0.55-0.401-1.175-0.512-1.84-0.46c-1.226,0.094-2.195,0.975-2.354,2.124 c-0.024,0.173,0.015,0.216,0.184,0.214C24.968,36.104,25.741,36.106,26.515,36.107z" clip-rule="evenodd"/><path fill="#045994" fill-rule="evenodd" d="M63.698,32.879c0.395-0.266,0.739-0.511,1.097-0.737 c1.008-0.638,2.091-0.891,3.274-0.644c0.191,0.039,0.273,0.105,0.264,0.319c-0.02,0.425-0.013,0.852-0.003,1.276 c0.005,0.176-0.021,0.229-0.219,0.189c-0.859-0.166-1.721-0.207-2.572,0.058c-0.666,0.207-1.229,0.593-1.749,1.048 c-0.104,0.091-0.091,0.192-0.091,0.299c-0.001,2.2-0.001,4.4-0.001,6.6c0,0.31,0,0.311-0.314,0.311 c-0.379,0-0.759-0.013-1.136,0.006c-0.213,0.01-0.262-0.056-0.261-0.263c0.007-2.839,0.004-5.676,0.004-8.515 c0-0.395,0.006-0.789-0.004-1.183c-0.002-0.144,0.038-0.192,0.186-0.188c0.449,0.008,0.898,0.009,1.348,0 c0.152-0.004,0.184,0.051,0.18,0.19C63.691,32.039,63.698,32.433,63.698,32.879z" clip-rule="evenodd"/><path fill="#0B0B0B" fill-rule="evenodd" d="M15.081,42.898C14.134,42.9,13.188,42.9,12.241,42.9 c-0.133-0.007-0.267-0.02-0.4-0.023c-0.351-0.012-0.351-0.01-0.442-0.386c0.127,0,0.248-0.003,0.369,0 c2.453,0.032,4.907-0.009,7.358-0.118c2.616-0.116,5.229-0.271,7.832-0.568c4.79-0.545,9.519-1.41,14.139-2.81 c5.312-1.61,10.272-3.966,14.879-7.064c0.072-0.048,0.146-0.094,0.236-0.151c0.067,0.244,0.125,0.48,0.197,0.713 c0.045,0.146-0.072,0.174-0.15,0.227c-1.487,0.994-3.03,1.896-4.623,2.713c-3.228,1.65-6.61,2.902-10.097,3.877 c-3.007,0.843-6.054,1.491-9.138,1.977c-2.873,0.454-5.753,0.853-8.651,1.111c-1.704,0.152-3.41,0.279-5.119,0.377 c-0.079,0.005-0.159,0.009-0.239,0.014c-0.045,0.004-0.091,0.008-0.137,0.013c-0.05-0.019-0.099-0.018-0.146,0.007 c-0.125,0.005-0.25,0.009-0.376,0.012c-0.048,0.001-0.096,0.003-0.144,0.006c-0.173-0.006-0.346-0.014-0.517,0.025 c-0.034-0.021-0.067-0.016-0.099,0.004C16.342,42.859,15.71,42.855,15.081,42.898z" clip-rule="evenodd"/><path fill="#C22342" fill-rule="evenodd" d="M47.525,35.634c0.229-0.642,0.459-1.284,0.689-1.927 c0.676-1.881,1.354-3.764,2.025-5.646c0.062-0.173,0.131-0.247,0.328-0.242c0.701,0.015,1.404,0.01,2.106,0.003 c0.139-0.001,0.206,0.032,0.255,0.173c0.448,1.271,0.899,2.538,1.359,3.803c0.056,0.151,0.024,0.225-0.106,0.303 c-0.42,0.25-0.838,0.503-1.248,0.77c-0.158,0.104-0.22,0.092-0.286-0.096c-0.347-0.971-0.707-1.938-1.064-2.906 c-0.022-0.059-0.046-0.115-0.073-0.184c-0.1,0.047-0.098,0.143-0.123,0.215c-0.539,1.514-1.076,3.027-1.608,4.543 c-0.048,0.137-0.116,0.225-0.25,0.288c-0.653,0.31-1.304,0.629-1.955,0.944C47.559,35.66,47.542,35.646,47.525,35.634z" clip-rule="evenodd"/><path fill="#055B96" fill-rule="evenodd" d="M56.756,41.382c-0.229-0.001-0.458-0.017-0.686,0.004 c-0.197,0.019-0.271-0.066-0.335-0.239c-0.678-1.865-1.363-3.727-2.054-5.588c-0.062-0.168-0.055-0.251,0.124-0.344 c0.417-0.22,0.822-0.469,1.224-0.717c0.141-0.086,0.196-0.089,0.257,0.088c0.559,1.59,1.128,3.176,1.693,4.764 c0.218,0.607,0.431,1.217,0.653,1.823c0.055,0.151,0.059,0.228-0.144,0.213C57.246,41.369,57,41.382,56.756,41.382z" clip-rule="evenodd"/><path fill="#005995" fill-rule="evenodd" d="M58.473,37.771c-0.001-1.175,0.004-2.35-0.005-3.524 c-0.001-0.177,0.045-0.233,0.225-0.227c0.362,0.013,0.725,0.01,1.088,0.001c0.146-0.004,0.185,0.043,0.185,0.188 c-0.004,2.365-0.004,4.73,0,7.096c0.002,0.144-0.033,0.191-0.182,0.187c-0.363-0.011-0.727-0.013-1.089,0.001 c-0.175,0.007-0.227-0.041-0.226-0.221C58.477,40.105,58.473,38.939,58.473,37.771z" clip-rule="evenodd"/><path fill="#C22342" fill-rule="evenodd" d="M16.17,29.405c0.144-0.541,0.22-1.093,0.276-1.647 c1.899-0.188,3.658,0.281,5.336,1.135c0.153,0.078,0.212,0.165,0.209,0.342c-0.011,0.725-0.005,1.448-0.005,2.176 c-0.1,0.008-0.128-0.07-0.173-0.116c-1.346-1.341-2.951-2.045-4.869-1.97C16.686,29.334,16.428,29.377,16.17,29.405z" clip-rule="evenodd"/><path fill="#090909" fill-rule="evenodd" d="M59.961,29.283c0.182-0.074,0.362-0.148,0.543-0.221 c0.081-0.031,0.177-0.074,0.241,0.006c0.059,0.076,0.011,0.168-0.033,0.242c-0.052,0.088-0.113,0.17-0.171,0.254 c-0.037,0.045-0.074,0.088-0.111,0.133l0,0c-0.059,0.033-0.105,0.082-0.135,0.145c-0.025,0.02-0.052,0.037-0.074,0.059 c-0.084,0.08-0.262,0.16-0.129,0.287c0.103,0.096,0.225-0.051,0.291-0.14c0.133-0.175,0.315-0.111,0.472-0.111 c0.105-0.001,0.08,0.116,0.061,0.208c-0.051,0.217-0.24,0.287-0.397,0.38c-0.179,0.105-0.189,0.202-0.069,0.364 c0.213,0.292,0.404,0.601,0.618,0.895c0.097,0.135,0.092,0.244-0.025,0.352c-0.116,0.105-0.231,0.105-0.36,0.008 c-0.477-0.363-0.927-0.758-1.327-1.205c-0.131-0.146-0.24-0.17-0.405-0.06c-0.201,0.136-0.413,0.259-0.628,0.374 c-0.105,0.059-0.124,0.113-0.067,0.221c0.119,0.223,0.215,0.457,0.333,0.678c0.074,0.139,0.017,0.219-0.079,0.304 c-0.117,0.103-0.2,0.04-0.281-0.048c-0.17-0.186-0.316-0.406-0.518-0.548c-0.262-0.186-0.353-0.472-0.523-0.709 c-0.106-0.146-0.199-0.304-0.298-0.454c-0.081-0.123-0.084-0.229,0.045-0.328c0.119-0.092,0.214-0.093,0.325,0.021 c0.167,0.169,0.354,0.315,0.521,0.481c0.097,0.096,0.156,0.116,0.256-0.004c0.171-0.206,0.357-0.4,0.549-0.586 c0.112-0.107,0.119-0.195,0.044-0.328c-0.283-0.517-0.554-1.041-0.834-1.561c-0.075-0.138-0.072-0.252,0.063-0.348 c0.121-0.086,0.225-0.117,0.344,0.021c0.245,0.287,0.513,0.557,0.757,0.844c0.094,0.107,0.163,0.13,0.26,0.025 c0.08-0.086,0.235-0.102,0.244-0.256c0.142,0.031,0.295-0.096,0.419-0.004c0.112,0.083,0.035,0.201-0.032,0.289 c-0.039,0.051-0.028,0.104-0.035,0.157c-0.196-0.039-0.27,0.146-0.413,0.216C59.622,29.584,59.786,29.376,59.961,29.283z" clip-rule="evenodd"/><path fill="#055B96" fill-rule="evenodd" d="M45.438,41.394c0.23-0.642,0.451-1.257,0.673-1.868 c0.107-0.296,0.146-0.659,0.347-0.865c0.2-0.208,0.562-0.256,0.854-0.375c0.413-0.167,0.825-0.334,1.285-0.521 c-0.207,0.588-0.396,1.126-0.587,1.664c-0.207,0.586-0.424,1.17-0.616,1.762c-0.057,0.17-0.139,0.211-0.304,0.207 C46.549,41.388,46.007,41.394,45.438,41.394z" clip-rule="evenodd"/><path fill="#055C97" fill-rule="evenodd" d="M44.842,40.287c0,0.313-0.006,0.629,0.002,0.943 c0.002,0.123-0.039,0.166-0.163,0.164c-0.449-0.006-0.898-0.005-1.348-0.001c-0.12,0.001-0.168-0.034-0.165-0.159 c0.01-0.465,0.012-0.93,0.015-1.395c0.001-0.094,0.038-0.135,0.129-0.162c0.459-0.141,0.916-0.285,1.37-0.439 c0.142-0.047,0.163,0.002,0.16,0.126c-0.006,0.308-0.002,0.614-0.002,0.923C44.84,40.287,44.84,40.287,44.842,40.287z" clip-rule="evenodd"/><path fill="#055C97" fill-rule="evenodd" d="M38.312,41.488c-0.221,0-0.441-0.002-0.659,0 c-0.076,0-0.149,0-0.141-0.106c0.007-0.087-0.035-0.192,0.106-0.223c0.453-0.099,0.905-0.198,1.354-0.307 c0.104-0.025,0.117,0.009,0.124,0.099c0.052,0.537,0.056,0.537-0.479,0.537C38.516,41.488,38.414,41.488,38.312,41.488z" clip-rule="evenodd"/><path fill="#E6E8E9" fill-rule="evenodd" d="M59.961,29.283c-0.175,0.093-0.339,0.301-0.562,0.053 c0.144-0.07,0.217-0.255,0.413-0.216C59.803,29.228,59.929,29.213,59.961,29.283z" clip-rule="evenodd"/><path fill="#E6E8E9" fill-rule="evenodd" d="M18.393,42.787c0.08-0.005,0.16-0.009,0.239-0.014 C18.56,42.902,18.479,42.889,18.393,42.787z" clip-rule="evenodd"/><path fill="#E6E8E9" fill-rule="evenodd" d="M60.295,29.842c0.029-0.062,0.076-0.111,0.135-0.145 C60.443,29.799,60.4,29.85,60.295,29.842z" clip-rule="evenodd"/><path fill="#E6E8E9" fill-rule="evenodd" d="M18.109,42.807c0.047-0.024,0.097-0.025,0.146-0.007 C18.211,42.877,18.162,42.875,18.109,42.807z" clip-rule="evenodd"/><path fill="#E6E8E9" fill-rule="evenodd" d="M17.589,42.824c0.047-0.003,0.096-0.005,0.144-0.006 c-0.007,0.047-0.024,0.085-0.081,0.08C17.607,42.895,17.596,42.86,17.589,42.824z" clip-rule="evenodd"/><path fill="#E6E8E9" fill-rule="evenodd" d="M60.43,29.697c0.037-0.045,0.074-0.088,0.111-0.133 C60.593,29.682,60.52,29.697,60.43,29.697z" clip-rule="evenodd"/><path fill="#E6E8E9" fill-rule="evenodd" d="M16.973,42.854c0.032-0.02,0.065-0.025,0.099-0.004 C17.042,42.908,17.009,42.915,16.973,42.854z" clip-rule="evenodd"/><path fill="#BE2542" fill-rule="evenodd" d="M13.925,30.467c-0.111-0.488,0.053-0.918,0.318-1.31 c0.311-0.457,0.703-0.847,1.109-1.218c0.173-0.03,0.347-0.059,0.52-0.088c-0.05,0.599-0.167,1.184-0.374,1.75 c-0.083,0.022-0.167,0.041-0.248,0.07C14.757,29.852,14.334,30.146,13.925,30.467z" clip-rule="evenodd"/><path fill="#F1F0F1" fill-rule="evenodd" d="M15.873,27.852c-0.173,0.029-0.347,0.058-0.52,0.088 c0.17-0.165,0.341-0.33,0.52-0.502C15.873,27.581,15.873,27.716,15.873,27.852z" clip-rule="evenodd"/><path fill="#E6E8E9" fill-rule="evenodd" d="M11.658,22.133c-0.004-0.17,0.012-0.307,0.057-0.439 c0.019-0.058,0.036-0.134,0.122-0.102c0.065,0.025,0.084,0.091,0.068,0.159C11.871,21.897,11.802,22.021,11.658,22.133z" clip-rule="evenodd"/></svg>