<svg xmlns="http://www.w3.org/2000/svg" id="Layer_1" width="70" height="70" viewBox="0 0 70 70"><title/><path d="M16.51,48.12a2.43,2.43,0,1,1-2.43-2.47,2.45,2.45,0,0,1,2.43,2.47M6.2,45.65a2.47,2.47,0,1,0,2.42,2.47A2.44,2.44,0,0,0,6.2,45.65m15.93,8.18a2.48,2.48,0,1,0,2.43,2.47,2.45,2.45,0,0,0-2.43-2.47m0,8a2.47,2.47,0,1,0,2.43,2.47,2.45,2.45,0,0,0-2.43-2.47m34.14-52a2.49,2.49,0,0,0,0,3.49,2.39,2.39,0,0,0,3.43,0,2.49,2.49,0,0,0,0-3.49,2.39,2.39,0,0,0-3.43,0M50.7,15.53a2.49,2.49,0,0,0,0,3.49,2.4,2.4,0,0,0,3.43,0,2.49,2.49,0,0,0,0-3.49,2.39,2.39,0,0,0-3.43,0m-8,8.14a2.49,2.49,0,0,0,0,3.49,2.39,2.39,0,0,0,3.43,0,2.49,2.49,0,0,0,0-3.49,2.39,2.39,0,0,0-3.43,0m-5.56,5.67a2.47,2.47,0,0,0,0,3.49,2.37,2.37,0,0,0,3.42,0,2.51,2.51,0,0,0,0-3.49,2.39,2.39,0,0,0-3.42,0M31.56,35a2.51,2.51,0,0,0,0,3.5,2.39,2.39,0,0,0,3.43,0A2.51,2.51,0,0,0,35,35a2.4,2.4,0,0,0-3.43,0M26,40.69a2.52,2.52,0,0,0,0,3.5,2.4,2.4,0,0,0,3.43,0,2.51,2.51,0,0,0,0-3.5,2.4,2.4,0,0,0-3.43,0m-5.58,5.68a2.51,2.51,0,0,0,0,3.49,2.41,2.41,0,0,0,3.45,0,2.51,2.51,0,0,0,0-3.49,2.41,2.41,0,0,0-3.45,0M65.52,3.92a2.41,2.41,0,0,0-3.44,0,2.54,2.54,0,0,0,0,3.5,2.43,2.43,0,0,0,3.44,0,2.52,2.52,0,0,0,0-3.5M44.3,19.74a2.47,2.47,0,1,0-2.43-2.47,2.45,2.45,0,0,0,2.43,2.47m-5.45-2.47a2.43,2.43,0,1,0-2.43,2.47,2.46,2.46,0,0,0,2.43-2.47M28.54,14.8A2.47,2.47,0,1,0,31,17.27a2.45,2.45,0,0,0-2.43-2.47m-5.45,2.47a2.43,2.43,0,1,0-2.43,2.47,2.45,2.45,0,0,0,2.43-2.47m29.3,5.67a2.48,2.48,0,1,0,2.42,2.47,2.46,2.46,0,0,0-2.42-2.47m0,8a2.48,2.48,0,1,0,2.42,2.47A2.46,2.46,0,0,0,52.39,31m0,8a2.47,2.47,0,1,0,2.42,2.47A2.45,2.45,0,0,0,52.39,39m0,8a2.48,2.48,0,1,0,2.42,2.48A2.46,2.46,0,0,0,52.39,47"/></svg>