<svg xmlns="http://www.w3.org/2000/svg" version="1.1" width="70px" height="70px" viewBox="0 0 70 70"><g id="surface1"><rect x="0" y="0" width="70" height="70" style="fill:rgb(12.941177%,25.098041%,60.392159%);fill-opacity:1;stroke:none;"/><path d="M 52.746094 26.464844 C 52.746094 25.292969 51.796875 24.34375 50.621094 24.34375 C 49.449219 24.34375 48.5 25.292969 48.5 26.464844 C 48.5 27.636719 49.449219 28.585938 50.621094 28.585938 C 51.796875 28.585938 52.746094 27.636719 52.746094 26.464844 Z M 52.746094 26.464844 " style=" stroke:none;fill-rule:nonzero;fill:rgb(100%,100%,100%);fill-opacity:1;"/><path d="M 45.671875 19.390625 C 45.671875 18.222656 44.71875 17.269531 43.546875 17.269531 C 42.375 17.269531 41.421875 18.222656 41.421875 19.390625 C 41.421875 20.5625 42.375 21.511719 43.546875 21.511719 C 44.71875 21.511719 45.671875 20.5625 45.671875 19.390625 Z M 45.671875 19.390625 " style=" stroke:none;fill-rule:nonzero;fill:rgb(100%,100%,100%);fill-opacity:1;"/><path d="M 52.746094 19.390625 C 52.746094 18.222656 51.796875 17.269531 50.621094 17.269531 C 49.449219 17.269531 48.5 18.222656 48.5 19.390625 C 48.5 20.5625 49.449219 21.511719 50.621094 21.511719 C 51.796875 21.511719 52.746094 20.5625 52.746094 19.390625 Z M 52.746094 19.390625 " style=" stroke:none;fill-rule:nonzero;fill:rgb(100%,100%,100%);fill-opacity:1;"/><path d="M 38.589844 19.390625 C 38.589844 18.222656 37.636719 17.269531 36.464844 17.269531 C 35.292969 17.269531 34.34375 18.222656 34.34375 19.390625 C 34.34375 20.5625 35.292969 21.511719 36.464844 21.511719 C 37.636719 21.511719 38.589844 20.5625 38.589844 19.390625 Z M 38.589844 19.390625 " style=" stroke:none;fill-rule:nonzero;fill:rgb(100%,100%,100%);fill-opacity:1;"/><path d="M 57.128906 12.894531 C 57.960938 13.722656 57.960938 15.066406 57.128906 15.894531 C 56.300781 16.722656 54.957031 16.722656 54.125 15.894531 C 53.296875 15.066406 53.296875 13.722656 54.125 12.894531 C 54.957031 12.066406 56.300781 12.066406 57.128906 12.894531 Z M 57.128906 12.894531 " style=" stroke:none;fill-rule:nonzero;fill:rgb(100%,100%,100%);fill-opacity:1;"/><path d="M 62.136719 7.898438 C 62.96875 8.726562 62.96875 10.070312 62.136719 10.898438 C 61.308594 11.726562 59.964844 11.726562 59.132812 10.898438 C 58.304688 10.070312 58.304688 8.726562 59.132812 7.898438 C 59.964844 7.070312 61.308594 7.070312 62.136719 7.898438 Z M 62.136719 7.898438 " style=" stroke:none;fill-rule:nonzero;fill:rgb(100%,100%,100%);fill-opacity:1;"/><path d="M 31.507812 19.390625 C 31.507812 18.222656 30.558594 17.269531 29.382812 17.269531 C 28.210938 17.269531 27.261719 18.222656 27.261719 19.390625 C 27.261719 20.5625 28.210938 21.511719 29.382812 21.511719 C 30.558594 21.511719 31.507812 20.5625 31.507812 19.390625 Z M 31.507812 19.390625 " style=" stroke:none;fill-rule:nonzero;fill:rgb(100%,100%,100%);fill-opacity:1;"/><path d="M 24.433594 19.390625 C 24.433594 18.222656 23.480469 17.269531 22.308594 17.269531 C 21.136719 17.269531 20.183594 18.222656 20.183594 19.390625 C 20.183594 20.5625 21.136719 21.511719 22.308594 21.511719 C 23.480469 21.511719 24.433594 20.5625 24.433594 19.390625 Z M 24.433594 19.390625 " style=" stroke:none;fill-rule:nonzero;fill:rgb(100%,100%,100%);fill-opacity:1;"/><path d="M 52.746094 33.535156 C 52.746094 32.367188 51.796875 31.414062 50.621094 31.414062 C 49.449219 31.414062 48.5 32.367188 48.5 33.535156 C 48.5 34.707031 49.449219 35.65625 50.621094 35.65625 C 51.796875 35.65625 52.746094 34.707031 52.746094 33.535156 Z M 52.746094 33.535156 " style=" stroke:none;fill-rule:nonzero;fill:rgb(100%,100%,100%);fill-opacity:1;"/><path d="M 25.644531 53.53125 C 25.644531 52.359375 24.691406 51.410156 23.519531 51.410156 C 22.347656 51.410156 21.394531 52.359375 21.394531 53.53125 C 21.394531 54.703125 22.347656 55.652344 23.519531 55.652344 C 24.691406 55.652344 25.644531 54.703125 25.644531 53.53125 Z M 25.644531 53.53125 " style=" stroke:none;fill-rule:nonzero;fill:rgb(100%,100%,100%);fill-opacity:1;"/><path d="M 18.566406 46.457031 C 18.566406 45.285156 17.617188 44.335938 16.445312 44.335938 C 15.269531 44.335938 14.320312 45.285156 14.320312 46.457031 C 14.320312 47.628906 15.269531 48.578125 16.445312 48.578125 C 17.617188 48.578125 18.566406 47.628906 18.566406 46.457031 Z M 18.566406 46.457031 " style=" stroke:none;fill-rule:nonzero;fill:rgb(100%,100%,100%);fill-opacity:1;"/><path d="M 25.644531 46.457031 C 25.644531 45.285156 24.691406 44.335938 23.519531 44.335938 C 22.347656 44.335938 21.394531 45.285156 21.394531 46.457031 C 21.394531 47.628906 22.347656 48.578125 23.519531 48.578125 C 24.691406 48.578125 25.644531 47.628906 25.644531 46.457031 Z M 25.644531 46.457031 " style=" stroke:none;fill-rule:nonzero;fill:rgb(100%,100%,100%);fill-opacity:1;"/><path d="M 11.484375 46.457031 C 11.484375 45.285156 10.535156 44.335938 9.363281 44.335938 C 8.1875 44.335938 7.238281 45.285156 7.238281 46.457031 C 7.238281 47.628906 8.1875 48.578125 9.363281 48.578125 C 10.535156 48.578125 11.484375 47.628906 11.484375 46.457031 Z M 11.484375 46.457031 " style=" stroke:none;fill-rule:nonzero;fill:rgb(100%,100%,100%);fill-opacity:1;"/><path d="M 25.644531 60.601562 C 25.644531 59.429688 24.691406 58.480469 23.519531 58.480469 C 22.347656 58.480469 21.394531 59.429688 21.394531 60.601562 C 21.394531 61.773438 22.347656 62.722656 23.519531 62.722656 C 24.691406 62.722656 25.644531 61.773438 25.644531 60.601562 Z M 25.644531 60.601562 " style=" stroke:none;fill-rule:nonzero;fill:rgb(100%,100%,100%);fill-opacity:1;"/><path d="M 52.746094 40.601562 C 52.746094 39.429688 51.796875 38.480469 50.621094 38.480469 C 49.449219 38.480469 48.5 39.429688 48.5 40.601562 C 48.5 41.773438 49.449219 42.722656 50.621094 42.722656 C 51.796875 42.722656 52.746094 41.773438 52.746094 40.601562 Z M 52.746094 40.601562 " style=" stroke:none;fill-rule:nonzero;fill:rgb(100%,100%,100%);fill-opacity:1;"/><path d="M 50.621094 45.554688 C 51.796875 45.554688 52.746094 46.503906 52.746094 47.675781 C 52.746094 48.847656 51.796875 49.796875 50.621094 49.796875 C 49.449219 49.796875 48.5 48.847656 48.5 47.675781 C 48.5 46.503906 49.449219 45.554688 50.621094 45.554688 Z M 50.621094 45.554688 " style=" stroke:none;fill-rule:nonzero;fill:rgb(100%,100%,100%);fill-opacity:1;"/><path d="M 35.65625 36.460938 C 35.65625 35.289062 34.703125 34.339844 33.53125 34.339844 C 32.359375 34.339844 31.40625 35.289062 31.40625 36.460938 C 31.40625 37.632812 32.359375 38.582031 33.53125 38.582031 C 34.703125 38.582031 35.65625 37.632812 35.65625 36.460938 Z M 35.65625 36.460938 " style=" stroke:none;fill-rule:nonzero;fill:rgb(100%,100%,100%);fill-opacity:1;"/><path d="M 40.042969 29.964844 C 40.875 30.792969 40.875 32.132812 40.042969 32.964844 C 39.214844 33.792969 37.871094 33.792969 37.039062 32.964844 C 36.210938 32.132812 36.210938 30.792969 37.039062 29.964844 C 37.871094 29.132812 39.214844 29.132812 40.042969 29.964844 Z M 40.042969 29.964844 " style=" stroke:none;fill-rule:nonzero;fill:rgb(100%,100%,100%);fill-opacity:1;"/><path d="M 45.046875 24.960938 C 45.875 25.789062 45.875 27.132812 45.046875 27.960938 C 44.214844 28.789062 42.871094 28.789062 42.042969 27.960938 C 41.210938 27.132812 41.210938 25.789062 42.042969 24.960938 C 42.871094 24.132812 44.214844 24.132812 45.046875 24.960938 Z M 45.046875 24.960938 " style=" stroke:none;fill-rule:nonzero;fill:rgb(100%,100%,100%);fill-opacity:1;"/><path d="M 30.027344 39.960938 C 30.855469 40.789062 30.855469 42.128906 30.027344 42.960938 C 29.195312 43.789062 27.851562 43.789062 27.023438 42.960938 C 26.191406 42.128906 26.191406 40.789062 27.023438 39.960938 C 27.851562 39.132812 29.195312 39.132812 30.027344 39.960938 Z M 30.027344 39.960938 " style=" stroke:none;fill-rule:nonzero;fill:rgb(100%,100%,100%);fill-opacity:1;"/></g></svg>