<svg xmlns="http://www.w3.org/2000/svg" version="1.1" id="Layer_1" x="0px" y="0px" width="588px" height="421px" viewBox="0 0 588 421" enable-background="new 0 0 588 421" xml:space="preserve"><rect x="23.973" y="282.668" width="540.645" fill="#003F70" height="124.176"/><rect x="56.027" y="28.668" width="471.902" fill="#003F70" height="223.332"/><g><defs><rect id="SVGID_1_" x="58.159" y="63.815" width="89.927" height="153.992" transform="matrix(0.9754 0.2205 -0.2205 0.9754 33.5896 -19.2739)"/></defs><clipPath id="SVGID_2_"><use xmlns:xlink="http://www.w3.org/1999/xlink" xlink:href="#SVGID_1_" overflow="visible"/></clipPath><g clip-path="url(#SVGID_2_)"><g><g><path fill="#FFFFFF" d="M130.709,167.593l-6.347,28.075c-0.725,3.205,1.287,6.392,4.492,7.116      c3.205,0.725,6.392-1.287,7.116-4.492l6.347-28.075c-1.963-0.057-3.947-0.291-5.934-0.74      C134.396,169.028,132.504,168.386,130.709,167.593z"/></g><g><path fill="#FFFFFF" d="M196.948,164.464l-24.777-14.735c-1.366,3.867-3.445,7.321-6.064,10.242l24.756,14.723      c0.553,0.328,1.135,0.558,1.731,0.692c2.446,0.553,5.074-0.494,6.426-2.765C200.701,169.796,199.772,166.145,196.948,164.464z"/></g><g><path fill="#FFFFFF" d="M192.02,96.567c-2.165-2.465-5.925-2.713-8.398-0.549l-21.705,19.042      c3.194,2.459,5.849,5.504,7.85,8.947l21.705-19.041C193.94,102.798,194.187,99.038,192.02,96.567z"/></g><g><path fill="#FFFFFF" d="M136.743,109.368L125.34,82.841c-1.299-3.016-4.801-4.41-7.818-3.117      c-3.019,1.298-4.414,4.799-3.117,7.818l11.402,26.526C129.095,111.82,132.802,110.214,136.743,109.368z"/></g><g><path fill="#FFFFFF" d="M83.864,138.898c-3.272,0.303-5.681,3.199-5.38,6.472c0.244,2.632,2.166,4.708,4.612,5.261      c0.595,0.135,1.22,0.178,1.86,0.12l28.682-2.641c-1.108-3.764-1.499-7.776-1.068-11.855L83.864,138.898z"/></g></g><circle cx="142.578" cy="139.824" r="17.467" fill="none" stroke="#FFFFFF" stroke-linecap="round" stroke-miterlimit="10" stroke-width="8.1481"/><g><g><path fill="#FFFFFF" d="M116.651,155.022L95.11,174.08c-2.461,2.178-2.691,5.939-0.514,8.4c0.86,0.972,1.965,1.594,3.141,1.86      c1.802,0.407,3.768-0.027,5.26-1.346l21.547-19.063C121.336,161.488,118.667,158.454,116.651,155.022z"/></g><g><path fill="#FFFFFF" d="M172.247,191.18l-11.516-26.485c-3.271,2.274-6.966,3.908-10.9,4.783l11.501,26.449      c0.787,1.807,2.364,3.028,4.15,3.431c1.192,0.269,2.476,0.176,3.68-0.348C172.176,197.699,173.556,194.195,172.247,191.18z"/></g><g><path fill="#FFFFFF" d="M207.923,133.204c-0.317-3.271-3.218-5.663-6.493-5.352l-28.781,2.771      c1.129,3.758,1.543,7.768,1.137,11.846l28.785-2.771C205.841,139.382,208.238,136.475,207.923,133.204z"/></g><g><path fill="#FFFFFF" d="M155.588,111.287l6.249-28.19c0.709-3.2-1.302-6.368-4.498-7.091c-0.007-0.002-0.016-0.004-0.024-0.005      c-3.208-0.71-6.386,1.315-7.098,4.523l-6.241,28.154c1.978,0.054,3.98,0.291,5.984,0.744      C151.93,109.867,153.806,110.504,155.588,111.287z"/></g><g><path fill="#FFFFFF" d="M95.421,104.353c-2.831-1.677-6.479-0.726-8.147,2.105c-1.668,2.834-0.725,6.479,2.108,8.147      l24.777,14.593c1.361-3.867,3.436-7.323,6.05-10.245L95.421,104.353z"/></g></g></g></g><g><g><path fill="#FFFFFF" d="M68.85,356.683v11.512c0,1.314,1.066,2.38,2.38,2.38s2.38-1.066,2.38-2.38v-11.512    c-0.771,0.151-1.565,0.235-2.38,0.235C70.415,356.917,69.62,356.834,68.85,356.683z"/></g><g><path fill="#FFFFFF" d="M94.415,349.62l-10.965-3.563c-0.192,1.629-0.698,3.16-1.462,4.53l10.956,3.56    c0.245,0.079,0.492,0.117,0.736,0.117c1.003,0,1.936-0.64,2.263-1.646C96.349,351.369,95.665,350.027,94.415,349.62z"/></g><g><path fill="#FFFFFF" d="M86.504,323.566c-1.062-0.77-2.551-0.536-3.325,0.526l-6.788,9.343c1.463,0.677,2.767,1.631,3.851,2.798    l6.788-9.343C87.802,325.828,87.567,324.339,86.504,323.566z"/></g><g><path fill="#FFFFFF" d="M66.068,333.436l-6.788-9.343c-0.773-1.062-2.262-1.297-3.325-0.526c-1.063,0.773-1.299,2.261-0.526,3.325    l6.788,9.342C63.301,335.067,64.605,334.113,66.068,333.436z"/></g><g><path fill="#FFFFFF" d="M48.044,349.62c-1.25,0.407-1.934,1.749-1.528,2.999c0.327,1.005,1.26,1.646,2.263,1.646    c0.244,0,0.492-0.038,0.736-0.117l10.957-3.56c-0.764-1.371-1.271-2.902-1.462-4.53L48.044,349.62z"/></g></g><circle cx="71.031" cy="344.802" r="6.986" fill="none" stroke="#FFFFFF" stroke-linecap="round" stroke-miterlimit="10" stroke-width="3.259"/><g><g><path fill="#FFFFFF" d="M62.257,353.018l-6.723,9.335c-0.768,1.067-0.526,2.554,0.54,3.322c0.421,0.303,0.907,0.449,1.389,0.449    c0.739,0,1.468-0.343,1.933-0.989l6.724-9.337C64.655,355.127,63.346,354.179,62.257,353.018z"/></g><g><path fill="#FFFFFF" d="M87.135,362.221l-6.829-9.317c-1.075,1.175-2.373,2.139-3.83,2.827l6.819,9.304    c0.467,0.636,1.189,0.973,1.922,0.973c0.489,0,0.981-0.15,1.405-0.46C87.682,364.77,87.911,363.282,87.135,362.221z"/></g><g><path fill="#FFFFFF" d="M95.939,336.457c-0.412-1.248-1.755-1.926-3.005-1.515l-10.984,3.619c0.772,1.367,1.287,2.894,1.488,4.521    l10.985-3.62C95.672,339.05,96.351,337.705,95.939,336.457z"/></g><g><path fill="#FFFFFF" d="M73.589,332.522l-0.049-11.549c-0.006-1.311-1.07-2.37-2.38-2.37c-0.003,0-0.006,0-0.01,0    c-1.314,0.006-2.375,1.076-2.37,2.39l0.049,11.534c0.777-0.154,1.578-0.238,2.4-0.238    C72.037,332.291,72.825,332.374,73.589,332.522z"/></g><g><path fill="#FFFFFF" d="M49.505,335.124c-1.252-0.404-2.592,0.288-2.992,1.54c-0.401,1.253,0.289,2.591,1.541,2.992l10.953,3.508    c0.19-1.629,0.695-3.16,1.457-4.531L49.505,335.124z"/></g></g><polygon points="342.425,327.091 350.424,327.091 359.901,345.049 342.317,363.486   335.911,363.471 353.239,344.818 " fill="#FFFFFF" fill-opacity="0.65"/><path fill="#FFFFFF" d="M104.945,353.271c2.538,1.458,6.21,2.646,10.261,2.646c2.538,0,4.914-0.863,4.914-2.916  c0-1.674-1.729-2.646-5.131-4.104c-3.726-1.566-8.802-4.374-8.802-10.099c0-7.884,7.344-12.366,16.092-12.366  c5.4,0,8.263,1.026,10.261,1.944l-3.078,7.992c-1.242-0.648-4.482-1.836-7.992-1.729c-3.51,0-4.968,1.242-4.968,2.484  c0,1.891,3.078,3.078,5.724,4.267c4.807,2.105,8.316,5.021,8.316,9.882c0,9.18-8.154,12.853-16.578,12.853  c-6.21-0.108-10.314-1.62-12.421-3.078L104.945,353.271z"/><path fill="#FFFFFF" d="M146.795,327.08l-3.726,19.765c-0.217,1.025-0.379,2.483-0.379,4.319c0.055,2.376,1.675,5.076,5.509,5.076  c4.374,0,6.966-2.862,8.208-9.396l3.726-19.765h9.612l-3.672,19.494c-2.268,11.88-7.236,17.551-19.063,17.551  c-8.694,0.107-13.932-4.32-13.932-12.961c0-1.565,0.216-3.294,0.485-4.859l3.618-19.225H146.795z"/><path fill="#FFFFFF" d="M168.503,363.477l6.857-36.396h12.204l3.564,10.584c1.565,4.698,2.754,9.072,3.888,13.986h0.162  c0.054-3.888,0.594-7.398,1.512-12.366l2.269-12.204h9.18l-6.857,36.396h-10.585l-4.05-12.096c-1.62-4.969-2.97-9.072-4.212-14.041  h-0.216c-0.378,3.618-1.404,9.126-2.484,14.851l-2.105,11.286H168.503z"/><path fill="#FFFFFF" d="M227.037,354.513l-3.941,8.964h-10.584l18.198-36.396h12.906l5.184,36.396h-10.368l-0.647-8.964H227.037z   M237.244,347.168l-0.648-6.426c-0.216-2.052-0.486-4.698-0.756-6.804h-0.108c-0.972,2.105-1.943,4.752-2.97,6.857l-2.862,6.372  H237.244z"/><path fill="#FFFFFF" d="M268.672,327.08l-6.858,36.396h-9.612l6.858-36.396H268.672z"/><path fill="#FFFFFF" d="M274.449,327.89c2.538-0.702,6.912-1.08,11.394-1.08c3.402,0,7.345,0.271,10.368,1.62  c2.971,1.351,5.292,3.834,5.292,8.047c0,5.454-3.401,8.208-8.315,9.936l-0.055,0.216c2.053,1.026,2.916,3.402,3.402,6.265  c0.594,3.672,0.972,9.018,1.782,10.584h-9.937c-0.378-1.08-0.864-3.618-1.404-8.479c-0.485-4.157-2.052-5.13-5.237-5.13h-1.944  l-2.592,13.608h-9.559L274.449,327.89z M281.145,342.794h3.349c3.78,0,6.966-1.565,6.966-4.752c0-2.862-2.808-3.672-5.67-3.672  c-1.512,0-2.43,0.108-3.078,0.216L281.145,342.794z"/><path fill="#FFFFFF" d="M340.437,349.004H325.91l-1.188,6.372h16.255l-1.513,8.101h-25.92l6.858-36.396h25.11l-1.566,8.1h-15.444  l-1.08,5.725h14.58L340.437,349.004z"/><path fill="#FFFFFF" d="M366.247,363.477l-2.376-6.318c-0.756-2.052-1.351-3.834-2.269-6.426h-0.107  c-1.351,2.268-2.322,4.212-3.834,6.804l-3.456,5.94h-12.097l14.58-18.576l-7.506-17.82h10.314l2.052,5.886  c0.702,2.106,1.296,3.78,2.052,6.265h0.162c1.674-2.862,2.538-4.591,3.618-6.427l3.294-5.724h11.935l-13.933,17.712l7.992,18.685  H366.247z"/><path fill="#FFFFFF" d="M387.198,327.89c2.483-0.702,6.695-1.08,10.908-1.08c3.401,0,7.29,0.378,10.313,1.944  c3.187,1.674,5.238,4.428,5.238,8.856c0,4.536-1.944,7.884-5.184,10.26c-3.187,2.376-7.669,3.456-12.744,3.456  c-1.513,0-2.755-0.216-3.456-0.27l-2.376,12.42h-9.396L387.198,327.89z M393.678,343.28c0.756,0.162,1.674,0.324,3.349,0.324  c3.834,0,6.966-1.998,6.966-5.076c0-3.456-2.7-4.158-5.346-4.158c-1.566,0-2.646,0.108-3.295,0.216L393.678,343.28z"/><path fill="#FFFFFF" d="M420.625,327.89c2.538-0.702,6.912-1.08,11.394-1.08c3.402,0,7.345,0.271,10.368,1.62  c2.971,1.351,5.292,3.834,5.292,8.047c0,5.454-3.401,8.208-8.315,9.936l-0.055,0.216c2.053,1.026,2.916,3.402,3.402,6.265  c0.594,3.672,0.972,9.018,1.782,10.584h-9.937c-0.378-1.08-0.864-3.618-1.404-8.479c-0.485-4.157-2.052-5.13-5.237-5.13h-1.944  l-2.592,13.608h-9.559L420.625,327.89z M427.32,342.794h3.349c3.78,0,6.966-1.565,6.966-4.752c0-2.862-2.808-3.672-5.67-3.672  c-1.512,0-2.43,0.108-3.078,0.216L427.32,342.794z"/><path fill="#FFFFFF" d="M475.812,349.004h-14.526l-1.188,6.372h16.255l-1.513,8.101h-25.92l6.858-36.396h25.11l-1.566,8.1h-15.444  l-1.08,5.725h14.58L475.812,349.004z"/><path fill="#FFFFFF" d="M482.723,353.271c2.538,1.458,6.21,2.646,10.26,2.646c2.538,0,4.914-0.863,4.914-2.916  c0-1.674-1.728-2.646-5.13-4.104c-3.726-1.566-8.802-4.374-8.802-10.099c0-7.884,7.344-12.366,16.092-12.366  c5.4,0,8.263,1.026,10.261,1.944l-3.078,7.992c-1.242-0.648-4.482-1.836-7.992-1.729c-3.511,0-4.969,1.242-4.969,2.484  c0,1.891,3.078,3.078,5.725,4.267c4.806,2.105,8.316,5.021,8.316,9.882c0,9.18-8.154,12.853-16.579,12.853  c-6.21-0.108-10.313-1.62-12.42-3.078L482.723,353.271z"/><path fill="#FFFFFF" d="M513.826,353.271c2.538,1.458,6.21,2.646,10.26,2.646c2.538,0,4.914-0.863,4.914-2.916  c0-1.674-1.728-2.646-5.13-4.104c-3.726-1.566-8.802-4.374-8.802-10.099c0-7.884,7.344-12.366,16.092-12.366  c5.4,0,8.263,1.026,10.261,1.944l-3.078,7.992c-1.242-0.648-4.482-1.836-7.992-1.729c-3.511,0-4.969,1.242-4.969,2.484  c0,1.891,3.078,3.078,5.725,4.267c4.806,2.105,8.316,5.021,8.316,9.882c0,9.18-8.154,12.853-16.579,12.853  c-6.21-0.108-10.313-1.62-12.42-3.078L513.826,353.271z"/><g><path fill="#FFFFFF" d="M162.411,122.058c4.294,2.466,10.505,4.475,17.357,4.475c4.294,0,8.313-1.46,8.313-4.933   c0-2.832-2.923-4.475-8.679-6.942c-6.303-2.65-14.889-7.399-14.889-17.083c0-13.337,12.423-20.919,27.222-20.919   c9.136,0,13.977,1.736,17.357,3.289l-5.207,13.52c-2.101-1.097-7.582-3.106-13.519-2.924c-5.938,0-8.405,2.101-8.405,4.203   c0,3.198,5.207,5.207,9.683,7.218c8.13,3.562,14.068,8.495,14.068,16.716c0,15.529-13.793,21.742-28.044,21.742   c-10.505-0.183-17.448-2.741-21.011-5.207L162.411,122.058z"/><path fill="#FFFFFF" d="M233.205,77.753l-6.303,33.435c-0.366,1.735-0.64,4.201-0.64,7.307c0.092,4.019,2.832,8.587,9.318,8.587   c7.399,0,11.784-4.842,13.885-15.894l6.303-33.435h16.261l-6.211,32.977c-3.837,20.096-12.241,29.69-32.247,29.69   c-14.708,0.182-23.568-7.308-23.568-21.925c0-2.648,0.365-5.572,0.822-8.22l6.121-32.521H233.205z"/><path fill="#FFFFFF" d="M269.926,139.323l11.601-61.57h20.645l6.03,17.904c2.648,7.948,4.659,15.347,6.577,23.66h0.274   c0.091-6.577,1.004-12.515,2.557-20.919l3.838-20.645h15.529l-11.6,61.57H307.47l-6.851-20.462   c-2.741-8.405-5.024-15.347-7.125-23.752h-0.365c-0.639,6.121-2.376,15.438-4.203,25.122l-3.563,19.092H269.926z"/><path fill="#FFFFFF" d="M368.946,124.159l-6.667,15.164h-17.904l30.785-61.57h21.833l8.769,61.57h-17.539l-1.095-15.164H368.946z    M386.213,111.735l-1.097-10.87c-0.365-3.471-0.823-7.948-1.279-11.509h-0.183c-1.644,3.562-3.287,8.039-5.024,11.6l-4.842,10.779   H386.213z"/><path fill="#FFFFFF" d="M439.377,77.753l-11.602,61.57h-16.261l11.602-61.57H439.377z"/><path fill="#FFFFFF" d="M449.15,79.123c4.294-1.188,11.693-1.827,19.274-1.827c5.756,0,12.425,0.458,17.539,2.741   c5.025,2.285,8.952,6.486,8.952,13.612c0,9.226-5.754,13.885-14.067,16.807l-0.092,0.365c3.472,1.736,4.933,5.756,5.756,10.598   c1.004,6.211,1.644,15.254,3.015,17.904h-16.809c-0.639-1.827-1.462-6.121-2.376-14.343c-0.821-7.033-3.471-8.678-8.86-8.678   h-3.289l-4.384,23.021h-16.17L449.15,79.123z M460.476,104.336h5.665c6.395,0,11.784-2.648,11.784-8.039   c0-4.842-4.749-6.211-9.591-6.211c-2.557,0-4.11,0.183-5.207,0.365L460.476,104.336z"/></g><g><path fill="#FFFFFF" d="M192.764,181.274H170.92l-1.787,9.583h24.443l-2.273,12.18h-38.98l10.313-54.732h37.76l-2.356,12.18   h-23.224l-1.625,8.609h21.926L192.764,181.274z"/><path fill="#FFFFFF" d="M231.575,203.037l-3.573-9.501c-1.137-3.086-2.03-5.765-3.411-9.664h-0.162   c-2.03,3.411-3.492,6.334-5.765,10.232l-5.197,8.932h-18.19l21.925-27.935l-11.288-26.797h15.511l3.086,8.851   c1.056,3.167,1.949,5.685,3.086,9.42h0.243c2.518-4.303,3.818-6.902,5.442-9.664l4.953-8.607h17.947L235.23,174.94l12.018,28.097   H231.575z"/><path fill="#FFFFFF" d="M261.453,149.522c3.737-1.056,10.071-1.624,16.404-1.624c5.116,0,10.963,0.568,15.511,2.924   c4.791,2.516,7.877,6.658,7.877,13.317c0,6.821-2.924,11.856-7.796,15.43c-4.791,3.573-11.531,5.197-19.165,5.197   c-2.273,0-4.142-0.325-5.197-0.406l-3.573,18.677h-14.129L261.453,149.522z M271.198,172.667c1.137,0.243,2.518,0.486,5.035,0.486   c5.765,0,10.475-3.003,10.475-7.632c0-5.197-4.061-6.253-8.039-6.253c-2.356,0-3.98,0.162-4.954,0.324L271.198,172.667z"/><path fill="#FFFFFF" d="M310.091,149.522c3.816-1.056,10.394-1.624,17.134-1.624c5.116,0,11.044,0.406,15.591,2.437   c4.465,2.029,7.958,5.765,7.958,12.099c0,8.202-5.116,12.344-12.506,14.942l-0.081,0.324c3.086,1.543,4.384,5.116,5.116,9.42   c0.892,5.523,1.462,13.561,2.68,15.917h-14.942c-0.568-1.624-1.298-5.44-2.111-12.75c-0.73-6.253-3.086-7.713-7.877-7.713h-2.924   l-3.897,20.463h-14.374L310.091,149.522z M320.16,171.935h5.035c5.685,0,10.475-2.354,10.475-7.147   c0-4.303-4.223-5.521-8.526-5.521c-2.275,0-3.654,0.162-4.629,0.324L320.16,171.935z"/><path fill="#FFFFFF" d="M393.077,181.274h-21.844l-1.787,9.583h24.443l-2.273,12.18h-38.979l10.313-54.732h37.761l-2.356,12.18   H375.13l-1.624,8.609h21.925L393.077,181.274z"/><path fill="#FFFFFF" d="M403.467,187.688c3.816,2.194,9.339,3.98,15.43,3.98c3.816,0,7.389-1.298,7.389-4.384   c0-2.518-2.599-3.98-7.715-6.172c-5.604-2.356-13.237-6.578-13.237-15.185c0-11.856,11.045-18.596,24.2-18.596   c8.122,0,12.425,1.543,15.43,2.922l-4.629,12.02c-1.868-0.975-6.74-2.762-12.019-2.599c-5.278,0-7.472,1.867-7.472,3.735   c0,2.841,4.629,4.629,8.609,6.415c7.228,3.167,12.506,7.553,12.506,14.861c0,13.804-12.264,19.327-24.931,19.327   c-9.339-0.162-15.511-2.437-18.677-4.629L403.467,187.688z"/><path fill="#FFFFFF" d="M448.613,187.688c3.816,2.194,9.339,3.98,15.43,3.98c3.816,0,7.389-1.298,7.389-4.384   c0-2.518-2.599-3.98-7.715-6.172c-5.604-2.356-13.237-6.578-13.237-15.185c0-11.856,11.045-18.596,24.2-18.596   c8.121,0,12.425,1.543,15.43,2.922l-4.629,12.02c-1.868-0.975-6.74-2.762-12.018-2.599c-5.278,0-7.472,1.867-7.472,3.735   c0,2.841,4.629,4.629,8.609,6.415c7.227,3.167,12.506,7.553,12.506,14.861c0,13.804-12.263,19.327-24.93,19.327   c-9.339-0.162-15.511-2.437-18.677-4.629L448.613,187.688z"/></g><polygon points="198.647,148.447 212.177,148.447 228.209,175.487 198.464,203.248   187.627,203.224 216.94,175.138 " fill="#FFFFFF" fill-opacity="0.65"/></svg>