<svg xmlns="http://www.w3.org/2000/svg" id="Layer_1" width="55.39" height="61.04" version="1.1" viewBox="0 0 55.39 61.04"><metadata id="metadata216"/><defs id="defs199"><style id="style197">.cls-1{fill:#fff}.cls-2{fill:#c4d72f}.cls-3{fill:#c5d72f}.cls-4{fill:#71b446}.cls-5{fill:#74b549}</style></defs><title id="title201"/><path id="path203" d="M59.74,40.3c.17-11.42-.45-22.83-.24-34.25-17.11,0-34.23,0-51.34,0C5.64,6,4.33,5.92,4.38,9.32q.39,27.2,0,54.41c0,3.4,1.26,3.32,3.78,3.31C25.3,67,42.45,67,59.6,67,58.18,58.11,59.61,49.27,59.74,40.3Z" class="cls-1" transform="translate(-4.38 -6.01)"/><path id="path205" d="M26.59,53.21c6.9-1.07,10.34-5.92,12.92-11.6,1.14-2.52,1.72-5.31,3-7.75,1.56-3,4.41-3.94,7.64-3.14,2.91.72,4.65,2.78,4.29,5.78-1,8.41-5.78,14.56-13,18.69-6.87,3.93-14.26,5.3-21.8,1.51a15.67,15.67,0,0,1-2.94-2.54C19.89,52.64,23.37,54.25,26.59,53.21Z" class="cls-2" transform="translate(-4.38 -6.01)"/><path id="path207" d="M49.65,17.38a8.3,8.3,0,0,1-8.44,8.33c-4,0-6.68-2.44-6.78-6.18-.11-4.18,4.2-8.45,8.57-8.49A6.29,6.29,0,0,1,49.65,17.38Z" class="cls-3" transform="translate(-4.38 -6.01)"/><path id="path209" d="M26.59,53.21c-3,2.85-6.49,1.61-9.88,1a9.75,9.75,0,0,1-3.37-6.24,3.66,3.66,0,0,1,2.93-4.4,3.42,3.42,0,0,1,4.33,2.26A13.81,13.81,0,0,0,26.59,53.21Z" class="cls-4" transform="translate(-4.38 -6.01)"/><path id="path211" d="M18.28,26.83c2.36.4,4.07,1.59,4.09,4.09,0,3-1.68,4.93-4.82,5.08a3.71,3.71,0,0,1-4.14-3.91C13.36,29.09,15.29,27.4,18.28,26.83Z" class="cls-5" transform="translate(-4.38 -6.01)"/></svg>