<svg xmlns="http://www.w3.org/2000/svg" id="Layer_1" width="70" height="70" x="0" y="0" enable-background="new 0 0 70 70" version="1.1" viewBox="0 0 70 70" xml:space="preserve"><rect id="XMLID_411_" width="70" height="70" fill="#EA5506"/><polygon id="XMLID_410_" fill="#FFF" points="34 20.6 35.5 16.8 29 16.8 23.2 16.8 16.5 34.7 29.3 34.7 30.8 30.9 23.5 30.9 24.7 27.7 31.3 27.7 32.7 24.1 26.1 24.1 27.5 20.6"/><path id="XMLID_409_" fill="#FFF" d="M32.9,30.9l-1.5,3.9c3.4,0.3,6.3,0,6.3,0c2-0.2,5.4-0.9,7.2-5.2l5-12.7H44l-4.4,11 c0,0-0.7,2.4-3.2,3C35.5,31,33.8,30.9,32.9,30.9"/><path id="XMLID_408_" fill="#FFF" d="M3.6,30.9l-1.5,3.9c3.4,0.3,6.3,0,6.3,0c2-0.2,5.4-0.9,7.2-5.2l5-12.7h-5.8l-4.4,11 c0,0-0.7,2.4-3.2,3C6.2,31,4.6,30.9,3.6,30.9"/><path id="XMLID_407_" fill="#FFF" d="M62.2,16.8L58,28.3c-1,2.5-1.9,2.7-3.4,2.7c-1.6,0-1.2-1.3-1-2.1l4.5-12.1h-5.7l-4.7,12.6 c-1.6,4.5,2.1,5.4,3.9,5.4h3c1.6,0,6.8-0.5,8.4-4.7l5-13.3H62.2z"/><g id="XMLID_213_"><g id="XMLID_404_"><polygon id="XMLID_405_" fill="#FFF" points="37.5 43.2 46.1 38.7 39.4 38.6"/></g><polygon id="XMLID_403_" fill="#FFF" points="31.5 59.2 37.3 59.2 43.1 43.6 37.4 43.6"/><path id="XMLID_402_" fill="#FFF" d="M55.9,43.6c-3.1,0-4.9,1.7-5.8,2.9l1.2-2.9h-5.7l-5.9,15.6h5.7l2.8-7.4 c1.4-3.3,4.5-3.5,5-3.5h2.1l1.7-4.7L55.9,43.6L55.9,43.6z"/><path id="XMLID_399_" fill="#FFF" d="M21.3,50.4c-3.7,0.4-6.5,2-6.9,5.2c-0.2,1.6,0.6,3.7,4.6,3.7c0,0,3.1,0.1,5-1.2l-0.5,1.2 h5.6l3.8-10.5l0.2-0.5c0.5-1.4,0.5-4.6-6.2-4.8c-2.8-0.1-7.5,0.5-10.2,5.3h5.6c0,0,0.8-2,3.4-2c0,0,1.6-0.1,1.7,1 c0,0,0.2,1.6-2.1,2.1C23.8,50.1,21.3,50.4,21.3,50.4 M25.6,53.5c0,0-0.8,2.3-4,2.3c-0.5,0-1.2-0.3-1-1.2c0.1-1,0.8-1.3,1.6-1.5 l3.9-0.8L25.6,53.5z"/></g></svg>