<svg xmlns="http://www.w3.org/2000/svg" version="1.1" id="Layer_1" x="0px" y="0px" width="70" height="70" viewBox="0 0 70 70" xml:space="preserve" style="enable-background:new 0 0 70 70;"><style type="text/css">
	.st0{fill:#C3002F;}
	.st1{fill:#A4A9AD;}
</style><g><path d="M36.6,36.8c-2,0-2.3,0.3-2.7,2.2l-0.8,4.8h-2.4l1.6-8.8l2-0.5l0,1c0.2-0.4,0.6-0.9,3-1L36.6,36.8z M18.9,43.7   h2.6l0.8-4.7h3.4l1-2.3h-4l0.5-2.6h4.6l0.4-2.3H21L18.9,43.7z M27.1,43.7h2.4l1.6-8.8h-2.4L27.1,43.7z M39.7,43.8   c1.6,0,3.3-0.6,3.3-2.8c0-1.4-0.7-2-2.1-2.6c-0.8-0.4-1.3-0.6-1.3-1c0-0.5,0.3-0.8,0.9-0.8c0.9,0,1.5,0.2,2,0.5l1.2-1.9   c-0.7-0.4-1.7-0.7-3.1-0.7c-1.6,0-3.4,0.5-3.4,3c0,1.3,0.7,1.9,2,2.5c1.2,0.5,1.5,0.7,1.5,1.1c0,0.6-0.4,0.7-0.9,0.7   c-1.1,0-2-0.4-2.6-0.8L36,42.9C36.8,43.4,38,43.8,39.7,43.8z M59.3,43.7h2.4l1.6-8.8h-2.4L59.3,43.7z M28.8,33.9h2.4l0.5-2.7   l-2.5,0.6L28.8,33.9z M61,33.9h2.4l0.5-2.7l-2.5,0.6L61,33.9z M62.9,43.7h2.4l0.8-4.8c0.4-1.9,0.7-2.2,2.8-2.2l0.6-2.3   c-2.5,0-2.9,0.6-3.1,1l0-1l-2,0.5L62.9,43.7z M58.7,43.7h-2.5L56,41.8l0-0.1h-3.7l-1,2h-2.5l5.5-11.2l2.8-0.6L58.7,43.7z    M53.2,39.5L53.2,39.5l2.5,0l-0.5-4l-0.2,0.1L53.2,39.5z M47.7,36.8L47.7,36.8l1.9,0l0.4-2.1h-1.9l0.4-2.5l-2,0.5l-0.7,2h-1.4   l-0.4,2.1h1.3v0l-0.7,3.8c-0.5,2.6,0,3.3,2.6,3.1c0.5,0,0.8-0.1,1.1-0.2l0.6-2.1c-0.2,0.1-0.5,0.1-0.9,0.2c-0.9,0.1-1-0.2-0.8-1   L47.7,36.8z" class="st0"/><path d="M11.8,31H8.1l0.6-3.2l3.9-0.9L11.8,31z M6.1,35.4l-4.4,8.3h4.1L8,39l0.5-0.3l0.6,5h4.1l-1.5-9.5L6.1,35.4z    M0.4,31.9l1.1,2.4l16.6-1.4l0.6-1.1H0.4z" class="st1"/></g></svg>