<svg xmlns="http://www.w3.org/2000/svg" version="1.1" id="Capa_1" width="70" height="70" viewBox="0 0 70.000002 69.999998"><metadata id="metadata59"/><defs id="defs12"><style id="style10">.cls-1,.cls-3,.cls-4{fill:#294998;}.cls-1{stroke:#294998;stroke-miterlimit:4.1;stroke-width:0.67px;}.cls-1,.cls-2,.cls-4{fill-rule:evenodd;}.cls-2,.cls-5{fill:#41b9c0;}.cls-2{stroke:#41b9c0;stroke-miterlimit:3.86;stroke-width:0.65px;}.cls-6{fill:#e5311f;}</style></defs><title id="title14"/><polygon id="polygon32" points="0,61.02 0,54.49 29.48,54.49 25.37,61.02 " transform="matrix(0.64715057,0,0,0.75756546,1.4981446,12.766517)" style="fill:#294998;fill-rule:evenodd" class="cls-4"/><polygon id="polygon34" points="7.75,52.04 7.75,45.51 35.12,45.51 31.01,52.04 " transform="matrix(0.64715057,0,0,0.75756546,1.4981446,12.766517)" style="fill:#294998;fill-rule:evenodd" class="cls-4"/><polygon id="polygon36" points="15.5,43.06 15.5,36.54 53.91,36.54 47.67,43.06 " transform="matrix(0.64715057,0,0,0.75756546,1.4981446,12.766517)" style="fill:#294998;fill-rule:evenodd" class="cls-4"/><polygon id="polygon38" points="23.25,34.09 23.25,27.56 46.41,27.56 42.3,34.09 " transform="matrix(0.64715057,0,0,0.75756546,1.4981446,12.766517)" style="fill:#294998;fill-rule:evenodd" class="cls-4"/><polygon id="polygon40" points="31.01,25.11 31.01,18.59 52.05,18.59 47.95,25.11 " transform="matrix(0.64715057,0,0,0.75756546,1.4981446,12.766517)" style="fill:#294998;fill-rule:evenodd" class="cls-4"/><polygon id="polygon42" points="57.44,16.14 65.19,16.14 65.19,3.61 44.18,3.61 44.18,16.14 52.55,16.14 52.55,9.66 57.44,9.66 " transform="matrix(0.64715057,0,0,0.75756546,1.4981446,12.766517)" style="fill:#294998;fill-rule:evenodd" class="cls-4"/><rect id="rect44" x="29.345034" y="12.766516" width="15.143323" height="1.469677" style="fill:#294998;stroke-width:0.70018494" class="cls-3"/><path id="path46" d="m 38.133339,32.470794 a 10.859187,12.711948 0 0 1 0.647151,-6.780211 8.6653461,10.143801 0 0 0 0.135901,2.742387 c 1.119571,6.530215 7.966424,7.742319 15.318054,2.71966 5.015417,-3.446922 10.076135,-8.28019 11.331607,-14.719496 -0.407705,6.204461 -6.801553,16.030085 -13.143628,20.393662 -7.319273,5.03781 -13.163043,2.174212 -14.289085,-4.356002 z" style="fill:#41b9c0;stroke-width:0.70018494" class="cls-5"/><path id="path48" d="m 35.654752,50.038737 a 12.522364,14.658892 0 0 1 0.647151,-7.575654 c -0.06471,1.060591 0.938368,3.515103 1.294301,4.257517 2.077353,4.545393 6.128516,6.81809 14.043167,1.515131 8.995393,-6.060523 13.260116,-20.893655 14.625606,-27.681441 -0.381818,6.916572 -5.397238,28.257191 -14.366745,34.249534 -7.927595,5.295382 -15.020365,2.522693 -16.24348,-4.765087 z" style="fill:#41b9c0;stroke-width:0.70018494" class="cls-5"/><path id="path50" d="m 36.961996,40.834317 a 11.163347,13.068004 0 0 1 0.647151,-6.954451 8.9112633,10.431676 0 0 0 0.135902,2.810568 c 1.164871,6.689303 7.701091,6.689303 15.285696,2.14391 6.283832,-3.787827 11.415736,-14.037688 12.774752,-20.052758 -0.38829,6.36355 -6.581521,22.151214 -13.913737,26.757212 -7.545776,4.734784 -13.771364,1.992398 -14.929764,-4.704481 z" style="fill:#41b9c0;stroke-width:0.70018494" class="cls-5"/><path id="path52" d="m 45.646757,23.683035 c -0.09707,-1.409072 0.433591,-2.606025 1.093685,-4.136307 -0.103545,0.636355 1.242529,0.530295 1.145456,1.121196 -0.375347,2.333302 -0.07766,4.492364 1.831436,4.977205 a 9.5066419,11.128637 0 0 0 6.808024,-1.348466 c 3.442841,-2.227242 7.325745,-4.621149 8.607103,-8.825638 -0.647151,4.128732 -5.63021,10.128651 -10.18615,12.461952 -5.24192,2.734811 -8.98245,0.295451 -9.299554,-4.249942 z" style="fill:#e5311f;stroke-width:0.70018494" class="cls-6"/><path id="path54" d="m 55.392845,17.713419 a 1.126042,1.3181639 0 0 0 -0.737752,-1.143924 4.0964631,4.7953893 0 0 0 -1.896151,-0.462115 7.345159,8.5983679 0 0 0 -4.957173,2.136335 5.5072513,6.446882 0 0 0 -2.109711,5.015083 3.992919,4.6741789 0 0 0 1.223114,3.545407 4.4394529,5.196899 0 0 0 3.196924,1.363617 7.4422315,8.7120028 0 0 0 3.598157,-1.249983 4.4070954,5.1590208 0 0 1 -0.349461,-0.325753 0.60185003,0.70453587 0 0 1 -0.478892,0.242421 2.5886023,3.0302618 0 0 0 -0.750694,0.212119 0.59537852,0.69696022 0 0 1 -0.776581,-0.583326 4.3359088,5.0756886 0 0 1 -0.530663,0.03788 2.9251206,3.4241959 0 0 1 -2.219727,-1.053016 3.2357528,3.7878273 0 0 1 -0.841296,-2.689357 4.8018572,5.6211357 0 0 1 1.294302,-3.787827 3.7017013,4.3332744 0 0 1 2.802162,-1.719674 q 1.753778,0 1.753778,1.67422 a 0.93836833,1.0984699 0 0 1 -0.103544,0.477266 q 1.883208,-0.553023 1.883208,-1.689371 z" style="fill:#e5311f;stroke-width:0.70018494" class="cls-6"/></svg>