<svg xmlns="http://www.w3.org/2000/svg" id="Layer_1" width="70" height="70" viewBox="0 0 981.47 993.6"><defs><style>.cls-1{fill:#003ca5}.cls-2{fill:#fff}.cls-3{fill:#02def0}</style></defs><circle cx="492.83" cy="494.55" r="464.09" class="cls-1"/><path d="M257,538.65,504.43,36l167,340.35s-74.07.86-191.8,45.81S257,538.65,257,538.65Z" class="cls-2"/><path d="M522.41,475.29s75.78-45,173-54.37L864.9,763.41Z" class="cls-2"/><path d="M738.62,373.07v7.61c-56.52,6.63-212.78,54.79-258.16,72.78s-141.27,60.35-214,116.44S160.66,688.05,180.36,735.15s107.88,58.23,283.84,31.26c174.56-26.78,290.15-71.23,291.94-71.91-24,14.57-134.45,69.78-280,96.3s-206.35,29.55-271,16.27S75.9,745.86,104.58,682.49,251,538.22,405.53,470.57,738.62,373.07,738.62,373.07Z" class="cls-3"/><path d="M874.75,351.66c3,6.11-34.44,15.74-45.27,19.6-6.1,11.88-18.54,38.85-21.68,44.55s-8.11,9.87-12.92,8.91c0,0,12.12-43.51,12.68-45.43s-1.29-2.9-3.29-3.06-41.09,2.09-41.09,2.09-4.43,16.13-14,16.69c2.65-15.65,2.57-15.88,1.36-15.88s-12,1.55-12,1.55v-7.61s8.18-1.49,11-3-3.78-13.56-3.78-13.56l4.82-.73,13,12.2s31.38-9.54,35.63-10.27,3.78-4.26,2.65-5.3-27.13-37.73-27.13-37.73,7.55-2,10.83,1,40.54,36.19,40.54,36.19S871.78,345.56,874.75,351.66Z" class="cls-2"/></svg>