<svg xmlns="http://www.w3.org/2000/svg" id="Layer_1" width="70" height="70" x="0" y="0" enable-background="new 0 0 70 70" version="1.1" viewBox="0 0 70 70" xml:space="preserve"><g id="Слой_x0020_1"><rect id="rect3685" width="70" height="70" y="1.212" fill="none"/><g id="_886824576"><path id="path3687" fill="#DF2228" d="M17.63,20.209h11.314c2.08,0.084,7.096-0.034,9.645,1.854 c-5.703-10.4-12.799-8.941-22.646-9.511c-7.767,0-12.052-2.566-13.378-3.338C1.703,9.205,7.129,20.209,17.63,20.209z"/><path id="path3689" fill="#DF2228" d="M54.878,11.352c-2.399-0.26-0.839-3.07,1.485-2.357c1.761,0.537,2.181,2.743,1.015,3.741 c-1.602,1.367-3.179,1.392-5.167,1.409c2.223-0.797,3.355-1.677,3.095-2.734C55.012,10.211,55.079,11.293,54.878,11.352z"/><path id="path3691" fill="#DF2228" d="M67.517,15.529c-0.109,4.756-4.185,6.148-7.104,6.274c-0.763-1.619-1.778-3.12-2.977-4.445 C60.371,17.718,65.563,16.871,67.517,15.529z"/><path id="path3693" fill="#DF2228" d="M58.61,15.839c-0.562-0.629-1.535-1.812-2.533-1.384c-1.132,0.478-2.256,0.486-3.556,0.411 C52.999,15.227,55.096,16.468,58.61,15.839z"/><path id="path3695" fill="#DF2228" d="M32.492,38.099c3.699-7.196-12.044-7.683-11.289,0.713 c1.048,11.717,20.784,8.622,22.822-6.467c-3.145,8.329-9.629,9.075-12.203,7.439c-0.939-0.486-0.931-1.56-0.528-1.854 C31.628,37.679,32.35,37.679,32.492,38.099z"/><path id="path3697" fill="#DF2228" d="M4.034,37.914c3.053-6.408,8.295-7.322,12.187-5.611c1.417,0.772,1.828,1.87,1.409,2.961 c-0.998-2.566-4.739-1.535-5.485,2.29c-3.397,17.278,32.433,20.691,33.792-5.645c0.411,1.677,0.629,3.422,0.629,5.225 c0,12.48-10.476,22.604-23.392,22.604c-1.828,0-3.615-0.201-5.326-0.587c-0.478-0.126-0.956-0.277-1.434-0.436 C4.605,54.546,0.981,44.33,4.034,37.914z"/><path id="path3699" fill="#DF2228" d="M43.052,21.156c2.885,2.114,6.324,0.436,7.985-0.772c0.847,0.285-0.528,1.241-0.956,1.384 c-0.008,0-0.008,0-0.017,0l0.034,0.008c0.176,0.075,0.31,0.134,0.47,0.226c0.126,0.067,0.243,0.134,0.361,0.21 c1.3,0.855,2.156,2.323,2.156,3.984c0,2.625-2.13,4.756-4.756,4.756c-0.285,0-0.554-0.025-0.822-0.075l0.034,0.159 c1.61,4.856,1.619,10.283-0.084,15.122c15.324-5.963,16.322-24.046,3.934-31.494c-0.185-0.101-0.377-0.201-0.579-0.294 l0.159-0.075c4.294-2.114,1.015-7.456-4.647-5.326c2.055,0.763,1.82,2.894-1.619,5.552C42.75,16.292,41.492,18.011,43.052,21.156z M42.389,24.075L42.389,24.075l2.86-1.342c-0.772-0.134-1.761-0.403-2.298-1.023C42.599,22.616,42.473,23.32,42.389,24.075z M45.811,17.927L45.811,17.927c0.503-0.034,0.939,0.344,0.965,0.847c0.034,0.512-0.344,0.939-0.855,0.973 c-0.503,0.025-0.939-0.352-0.965-0.855C44.922,18.38,45.308,17.961,45.811,17.927z"/><path id="path3701" fill="#DF2228" d="M45.694,49.539c-0.654,2.642-1.879,5.074-3.548,7.154c-3.64,4.378-9.201,7.205-15.449,7.247 c-3.808-0.017-7.347-1.116-10.325-2.969c0.235,0.092,0.47,0.185,0.713,0.26c0.495,0.176,0.998,0.327,1.485,0.461 c1.778,0.403,3.623,0.604,5.519,0.604C33.507,62.296,41.668,57.113,45.694,49.539z"/><path id="path3703" fill="#DF2228" d="M23.208,28.193h14.762c1.636,0.067,5.133,0.168,7.129,1.644 c-2.256-4.697-6.71-7.532-14.703-7.238l-11.751-0.101c-2.038,0-4.856-0.411-6.509-1.074 C13.613,23.916,17.395,28.193,23.208,28.193z"/><path id="path3705" fill="#DF2228" d="M66.788,20.846c0.151,3.154-0.604,6.936-4.68,7.75c-0.084-1.812-0.445-3.665-1.09-5.368 C62.921,23.127,65.27,22.498,66.788,20.846z"/><path id="path3707" fill="#DF2228" d="M65.932,28.126C65.312,31.54,63.76,34.752,61,35.423c0.671-1.753,1.082-3.539,1.149-5.418 C63.802,29.661,65.026,28.999,65.932,28.126z"/></g></g></svg>