<svg xmlns="http://www.w3.org/2000/svg" version="1.1" id="Layer_1" x="0px" y="0px" width="70px" height="70px" viewBox="0 0 70 70" enable-background="new 0 0 70 70" xml:space="preserve"><path fill="#E2312D" d="M1.869,31.603c0.219,0,0.413,0,0.607,0   c0.277,0,0.554,0.005,0.831-0.004c0.104-0.002,0.151,0.037,0.191,0.127c0.647,1.43,1.296,2.857,1.945,4.287   c0.021,0.043,0.042,0.086,0.078,0.16c0.099-0.227,0.187-0.424,0.272-0.621c0.547-1.276,1.094-2.551,1.637-3.828   c0.038-0.088,0.08-0.127,0.178-0.125c0.209,0.008,0.418,0.009,0.627,0.002c0.098-0.004,0.142,0.033,0.179,0.121   c0.612,1.436,1.228,2.869,1.843,4.303c0.017,0.039,0.037,0.078,0.069,0.146c0.082-0.178,0.151-0.328,0.22-0.478   c0.603-1.326,1.205-2.652,1.81-3.977c0.021-0.045,0.076-0.107,0.116-0.107c0.49-0.008,0.979-0.005,1.495-0.005   c-0.082,0.188-0.154,0.36-0.23,0.532c-0.958,2.17-1.919,4.338-2.875,6.51c-0.059,0.133-0.128,0.184-0.271,0.172   c-0.167-0.014-0.336-0.009-0.504-0.001c-0.109,0.007-0.165-0.026-0.212-0.134c-0.632-1.472-1.271-2.939-1.907-4.408   c-0.02-0.045-0.042-0.088-0.076-0.161c-0.066,0.153-0.124,0.282-0.178,0.413c-0.586,1.393-1.172,2.785-1.754,4.178   c-0.036,0.087-0.082,0.115-0.173,0.111c-0.186-0.006-0.372-0.01-0.558,0.002c-0.13,0.009-0.189-0.041-0.24-0.156   c-0.563-1.283-1.132-2.563-1.699-3.846c-0.458-1.032-0.916-2.064-1.374-3.098C1.905,31.69,1.894,31.661,1.869,31.603z" clip-rule="evenodd" fill-rule="evenodd"/><path fill="#E2312D" d="M21.229,34.37c0,1.473,0,2.946,0,4.432c-0.53,0-1.048,0-1.576,0   c0-2.393,0-4.783,0-7.188c0.035-0.004,0.073-0.012,0.111-0.012c0.296-0.001,0.591-0.004,0.885,0.004   c0.059,0.002,0.135,0.034,0.171,0.078c1.284,1.494,2.563,2.992,3.844,4.49c0.037,0.044,0.077,0.086,0.142,0.16   c0-1.598,0-3.154,0-4.723c0.528,0,1.039,0,1.559,0c0,2.395,0,4.789,0,7.202c-0.166,0-0.327,0-0.49,0   c-0.222-0.001-0.445-0.004-0.667,0.002c-0.09,0.003-0.149-0.028-0.208-0.097c-1.206-1.41-2.416-2.819-3.625-4.228   c-0.038-0.044-0.077-0.088-0.115-0.132C21.25,34.364,21.239,34.366,21.229,34.37z" clip-rule="evenodd" fill-rule="evenodd"/><path fill="#E2312D" d="M49.274,39c-0.852-0.027-1.653-0.205-2.361-0.694   c-0.815-0.563-1.29-1.353-1.471-2.316c-0.199-1.072-0.023-2.08,0.587-2.993c0.494-0.737,1.191-1.202,2.048-1.414   c1.033-0.257,2.057-0.225,3.035,0.226c1.106,0.511,1.748,1.401,1.985,2.582c0.185,0.912,0.088,1.802-0.34,2.637   c-0.528,1.029-1.39,1.629-2.513,1.855C49.926,38.944,49.598,38.962,49.274,39z M51.404,35.185c0.014-0.002,0.026-0.004,0.038-0.006   c-0.062-0.361-0.091-0.732-0.196-1.08c-0.249-0.824-0.801-1.357-1.663-1.498c-0.858-0.141-1.579,0.131-2.104,0.844   c-0.308,0.419-0.428,0.907-0.468,1.417c-0.049,0.665,0.031,1.31,0.395,1.886c0.453,0.716,1.109,1.096,1.963,1.049   c0.807-0.045,1.389-0.462,1.749-1.184C51.34,36.164,51.402,35.68,51.404,35.185z" clip-rule="evenodd" fill-rule="evenodd"/><path fill="#E2312D" d="M28.917,38.806c0-2.402,0-4.799,0-7.2   c0.032-0.003,0.059-0.009,0.083-0.009c1.077,0.007,2.153-0.006,3.229,0.027c0.771,0.025,1.508,0.218,2.161,0.656   c0.721,0.484,1.135,1.174,1.307,2.013c0.158,0.769,0.133,1.536-0.115,2.284c-0.34,1.022-1.07,1.648-2.072,1.982   c-0.517,0.174-1.05,0.252-1.593,0.254c-0.954,0.001-1.907,0-2.861,0C29.012,38.813,28.967,38.81,28.917,38.806z M30.439,37.618   c0.016,0.009,0.023,0.016,0.031,0.016c0.617-0.005,1.236,0.056,1.848-0.054c0.638-0.112,1.158-0.418,1.479-1.001   c0.301-0.55,0.358-1.148,0.311-1.758c-0.081-1.078-0.671-1.75-1.73-1.965c-0.633-0.129-1.275-0.061-1.915-0.064   c-0.007,0-0.014,0.01-0.025,0.018C30.439,34.413,30.439,36.017,30.439,37.618z" clip-rule="evenodd" fill-rule="evenodd"/><path fill="#E2312D" d="M39.238,35.866c0,0.988,0,1.954,0,2.934c-0.523,0-1.036,0-1.557,0   c0-2.398,0-4.793,0-7.203c0.058,0,0.105,0,0.155,0c1.04,0,2.079-0.004,3.119,0.002c0.461,0,0.916,0.042,1.351,0.211   c0.838,0.324,1.328,1.066,1.258,1.959c-0.056,0.7-0.465,1.163-1.073,1.464c-0.433,0.214-0.897,0.284-1.374,0.288   c-0.057,0-0.111,0.006-0.193,0.011c0.033,0.037,0.044,0.058,0.056,0.059c0.949,0.095,1.579,0.647,2.051,1.428   c0.112,0.187,0.24,0.364,0.369,0.54c0.195,0.265,0.44,0.434,0.81,0.342c0.056,0.199,0.114,0.393,0.166,0.588   c0.08,0.295,0.081,0.304-0.22,0.396c-0.72,0.222-1.36,0.066-1.924-0.428c-0.485-0.424-0.825-0.963-1.173-1.495   c-0.144-0.221-0.283-0.442-0.438-0.655c-0.193-0.267-0.458-0.402-0.792-0.404C39.638,35.899,39.448,35.88,39.238,35.866z    M39.234,34.938c0.159,0.017,0.297,0.037,0.438,0.046c0.49,0.03,0.979,0.043,1.453-0.125c0.283-0.1,0.521-0.26,0.649-0.543   c0.302-0.67-0.108-1.422-0.854-1.496c-0.53-0.052-1.069-0.024-1.604-0.034c-0.093-0.002-0.082,0.062-0.082,0.121   c0,0.489,0,0.979,0,1.47C39.234,34.558,39.234,34.737,39.234,34.938z" clip-rule="evenodd" fill-rule="evenodd"/><path fill="#E2312D" d="M63.95,35.513c0,0.715,0,1.409,0,2.118c1.348,0,2.693,0,4.05,0   c0,0.397,0,0.78,0,1.173c-1.888,0-3.773,0-5.669,0c0-2.394,0-4.785,0-7.189c1.776,0,3.559,0,5.348,0c0,0.383,0,0.768,0,1.166   c-1.236,0-2.475,0-3.724,0c0,0.512,0,1.008,0,1.523c0.917,0,1.835,0,2.762,0c0,0.412,0,0.803,0,1.209   C65.798,35.513,64.882,35.513,63.95,35.513z" clip-rule="evenodd" fill-rule="evenodd"/><path fill="#E2312D" d="M54.748,37.78c0.276-0.302,0.554-0.605,0.821-0.899   c0.222,0.173,0.422,0.353,0.646,0.496c0.476,0.308,0.993,0.491,1.572,0.399c0.141-0.022,0.283-0.072,0.408-0.139   c0.449-0.242,0.544-0.744,0.202-1.123c-0.144-0.158-0.325-0.288-0.506-0.408c-0.545-0.367-1.104-0.715-1.646-1.088   c-0.362-0.248-0.68-0.549-0.892-0.941c-0.401-0.744-0.178-1.631,0.531-2.148c0.461-0.336,0.991-0.463,1.548-0.495   c0.898-0.051,1.698,0.226,2.415,0.759c0.015,0.012,0.026,0.025,0.04,0.037c0.002,0.003,0.002,0.009,0.007,0.027   c-0.257,0.269-0.519,0.543-0.762,0.798c-0.268-0.138-0.511-0.287-0.773-0.394c-0.357-0.146-0.734-0.166-1.109-0.064   c-0.132,0.035-0.266,0.1-0.374,0.184c-0.28,0.219-0.308,0.562-0.047,0.802c0.201,0.187,0.436,0.339,0.666,0.491   c0.495,0.329,1.005,0.635,1.492,0.974c0.388,0.269,0.722,0.599,0.924,1.036C60.3,36.931,60,37.94,59.205,38.485   c-0.597,0.41-1.271,0.516-1.974,0.488c-0.915-0.036-1.671-0.439-2.336-1.041c-0.044-0.04-0.086-0.082-0.129-0.123   C54.761,37.804,54.757,37.795,54.748,37.78z" clip-rule="evenodd" fill-rule="evenodd"/><path fill="#E2312D" d="M17.084,38.823c-0.501,0-0.995,0-1.503,0c0-2.405,0-4.807,0-7.219   c0.498,0,0.995,0,1.503,0C17.084,34.011,17.084,36.413,17.084,38.823z" clip-rule="evenodd" fill-rule="evenodd"/></svg>