<svg xmlns="http://www.w3.org/2000/svg" id="Layer_1" width="70" height="70" x="0" y="0" enable-background="new 0 0 70 70" version="1.1" viewBox="0 0 70 70" xml:space="preserve"><g><g><g><path fill="#DA2429" d="M18.007,52.932c0.278-0.069,0.571-0.107,0.932-0.076c0.352,0.031,0.739,0.056,1.054,0.233 c0.256,0.143,0.45,0.43,0.76,0.459c0.226,0.022,0.428-0.125,0.596-0.258c0.177-0.143,0.316-0.33,0.54-0.397 c0.3-0.09,0.572-0.126,0.805-0.356c0.218-0.217,0.413-0.507,0.533-0.791c0.052-0.125,0.038-0.338,0.099-0.486 c0.065-0.164,0.253-0.24,0.309-0.426c0.058-0.195,0.004-0.659,0.043-0.906c0.228-1.417,0.087-3.021,0.018-4.449 c-0.025-0.556,0.303-1.042,0.388-1.58c0.043-0.269,0.013-0.534-0.119-0.776c-0.153-0.282-0.022-0.426,0.045-0.71 c0.045-0.19,0.067-0.385,0.081-0.58c0.031-0.424,0.016-0.852,0.022-1.278c0.005-0.399,0.004-0.834,0.137-1.213 c0.079-0.226,0.06-0.435,0.018-0.646c-0.033-0.166-0.081-0.334-0.11-0.511c-0.078-0.493,0.159-0.948,0.045-1.455 c-0.128-0.569-0.841-1.457-1.224-1.892c-0.565-0.641-0.897-0.715-0.215-1.519c0.291-0.343,0.516-0.76,0.825-1.159 c0.193-0.251,0.247-0.116,0.285-0.397c0.02-0.148-0.217-0.195-0.231-0.323c-0.022-0.202,0.246-0.237,0.274-0.412 c0.076-0.446-0.172-0.852-0.237-1.284c-0.088-0.592-0.116-1.188-0.069-1.786c0.038-0.48,0.197-0.98,0.202-1.459 c0.005-0.484-0.19-0.97-0.307-1.443c-0.197-0.791-0.347-1.528-0.191-2.329c0.592-3.061-1.6-4.545-4.496-4.458 c-0.733,0.022-1.444-0.2-2.176-0.202c-0.69,0-1.361,0.191-2.046,0.264c-0.32,0.034-0.269-0.202-0.507-0.224 c-0.863,0.262-2.169-0.543-2.739,0.15L8.77,18.435l-1.596,0.188c-0.695-0.312-2.095-0.329-2.918,0.224 c-0.524,0.352-0.659,0.711-0.634,1.32c0.02,0.466,0.24,0.238-0.128,0.491c-0.197,0.134-0.675-0.175-0.621,0.423 c0.025,0.282,0.291,0.419,0.556,0.379c-0.336,0.052-0.731,1.195-0.78,1.475c-0.119,0.683,0.338,0.993,0.39,1.612 c0.013,0.13-0.175,0.307-0.2,0.516c-0.052,0.385,0.163,0.84,0.099,1.11c-0.132,0.567-0.339,0.672,0.016,1.123 c0.213,0.271,0.589,0.076,0.345,0.596c-0.17,0.363-0.435,0.195-0.5,0.657c-0.043,0.316,0.184,0.876,0.233,1.194 c0.087,0.571,0.163,1.145,0.22,1.719c0.087,0.852,0.069,1.253-0.168,2.066c-0.175,0.601,0.025,1.446,0.045,2.067 c0.029,0.924,0.161,1.851,0.09,2.775c-0.069,0.905-0.359,1.75-0.377,2.665c-0.014,0.735,0.049,1.47,0.121,2.203 c0.005,0.047,0.002,0.103,0.014,0.148c0.079,0.285-0.108,0.527-0.144,0.796c-0.016,0.121-0.013,0.269,0.02,0.383 c0.043,0.161,0.132,0.305,0.17,0.466c0.033,0.141,0.023,0.283,0.056,0.426c0.078,0.341,0.112,0.693,0.146,1.042 c0.061,0.628,0.081,1.271,0.242,1.885c0.168,0.641,0.605,0.995,0.522,1.677c-0.085,0.697-0.468,1.343-0.439,2.058 c0.045,1.071,1.677,1.1,2.443,1.186c1.035,0.116,2.076,0.152,3.115,0.184c1.376,0.045,2.734,0.155,4.106,0.235 c0.506,0.029,0.578-0.088,1.008-0.3c0.793-0.39,1.685,0.038,2.584-0.152C17.269,53.177,17.623,53.026,18.007,52.932z"/><path fill="#DA2429" d="M23.527,32.943c-0.155,0.332-0.04,1.502,0.276,1.746C24.316,34.5,24.018,32.99,23.527,32.943z"/><path fill="#DA2429" d="M1.518,29.338c0.011-0.004,0.02-1.089,0.022-1.156c0.009-0.486,0.018-0.971,0.027-1.457 c0.016-0.953,0.029-1.907,0.036-2.86c-0.045,0.018-0.087,0.031-0.128,0.04c-0.076,0.455-0.179,0.899-0.35,1.32 c0.078,0.887,0.132,1.775,0.17,2.665C1.3,28.038,1.197,29.417,1.518,29.338z"/><path fill="#DA2429" d="M1.461,22.494c0.437,0.345-0.226-1.027,0.298-1.107c-0.491-1.697,0.374-1.921,1.284-2.819 c0.471-0.462,0.661-0.89,1.123-1.132c-0.004-0.031-0.005-0.061-0.004-0.092c-0.031-0.034-0.058-0.072-0.079-0.11 c-0.255-0.027-0.511-0.052-0.744,0.027c-0.455,0.152-0.585,0.551-1.087,1.107c-0.775,0.858-1.069,1.042-1.085,2.82 C1.159,21.658,1.035,22.353,1.461,22.494z"/><path fill="#DA2429" d="M10.16,17.26c2.116-0.141,4.203-0.419,6.331-0.399c-0.043-0.054-0.079-0.11-0.119-0.164 c-0.3-0.034-0.592-0.079-0.872-0.141H9.665c-1.078,0.011-2.192,0.235-3.265,0.435c-0.004,0.067-0.013,0.13-0.027,0.193 C7.585,17.206,8.893,17.345,10.16,17.26z"/><path fill="#DA2429" d="M5.117,54.414C5.115,54.412,5.112,54.41,5.11,54.41c-0.002-0.007,0-0.013-0.002-0.02 c-0.025-0.007-0.052-0.018-0.078-0.025c-0.897-0.525-1.919-0.924-2.643-1.629c-0.038-0.081-0.072-0.164-0.103-0.247 c-0.209-0.569-0.383-1.163-0.509-1.753c-0.038-0.173-0.02-1.006-0.361-0.652c-0.135,0.141-0.134,0.533-0.103,0.708 c0.11,0.636,0.345,1.145,0.574,1.735c0.051,0.132,0.107,0.262,0.177,0.39c0.168,0.195,0.343,0.383,0.549,0.563 c0.361,0.352,0.78,0.619,1.237,0.778c0.276,0.17,0.543,0.296,0.787,0.358c0.166,0.06,0.302,0.054,0.401-0.018 c0.04,0.047,0.042,0.029,0.009-0.052c0.049,0.005,0.07-0.042,0.061-0.134C5.112,54.414,5.115,54.414,5.117,54.414z"/><path fill="#DA2429" d="M25.584,29.773c-0.043-0.19-0.139-0.37-0.2-0.556c-0.112-0.343-0.173-0.704-0.209-1.064 c-0.013-0.421-0.025-0.84-0.038-1.257c0.009-0.399,0.033-0.802,0.056-1.201c0.074-1.224,0.143-2.481-0.204-3.559 c0.004-0.101,0.007-0.206,0.014-0.316c0.116-0.237,0.123-0.578,0.126-0.912c0.005-0.24,0.011-0.489,0.058-0.69v-0.005v-0.011 c-0.063-0.274-0.126-0.545-0.222-0.811c-0.094-0.264-0.235-0.395-0.432-0.589c-0.217-0.215-0.401-0.466-0.627-0.677 c-0.399-0.374-0.869-0.782-1.392-0.964c-0.675-0.237-1.399-0.309-2.109-0.343c-0.399-0.02-0.8-0.023-1.199-0.027 c-0.121,0-0.417-0.06-0.493,0.042c-0.209,0.278,0.527,0.255,0.648,0.274c0.395,0.069,0.789,0.153,1.179,0.255 c0.645,0.168,1.286,0.352,1.909,0.581c0.309,0.114,0.621,0.235,0.914,0.388c0.222,0.116,0.592,0.289,0.71,0.516 c0.143,0.273-0.023,0.473,0.238,0.719c0.103,0.099,0.204,0.191,0.231,0.356c-0.023,0.173-0.108,0.285-0.193,0.404 c-0.025,0.033-0.051,0.067-0.074,0.101l-0.013,0.018l0.005,0.022c0.087,0.312,0.014,0.645,0.163,0.95 c0.06,0.125,0.153,0.164,0.22,0.269c0.096,0.148,0.067,0.441,0.047,0.616c-0.013,0.108-0.043,0.233-0.083,0.338 c-0.047,0.121-0.164,0.215-0.204,0.33c-0.146,0.442,0.314,0.85,0.33,1.278c0.018,0.444,0.036,0.888,0.052,1.333 c-0.043,0.289-0.105,0.567-0.168,0.838c-0.137,0.583-0.267,1.134-0.181,1.764c0.04,0.274,0.135,0.538,0.238,0.816 c0.09,0.246,0.181,0.5,0.231,0.764c0.13,0.681-0.137,1.352-0.088,2.017c0.047,0.641,0.17,1.215,0.139,1.867 c-0.033,0.695-0.11,1.398,0.009,2.087c0.038,0.215,0.087,0.446,0.282,0.237c0.235-0.251,0.134-0.98,0.125-1.282 c-0.033-1.017-0.074-2.03-0.103-3.046c0.007-0.002,0.013-0.005,0.013-0.004c-0.002-0.538,0.264-1.071,0.316-1.605 C25.611,29.942,25.602,29.856,25.584,29.773z"/><path fill="#DA2429" d="M25.28,44.093c-0.007-0.002-0.016-0.002-0.022-0.005c0.087-0.867,0.078-1.735,0.029-2.606 c-0.047-0.204-0.081-0.426-0.153-0.623c-0.034-0.092-0.067-0.294-0.125-0.363c-0.029-0.034-0.056-0.051-0.079-0.054 c-0.069-0.011-0.112,0.094-0.144,0.173c-0.103,0.255-0.181,0.516-0.228,0.787c-0.132,0.74-0.036,1.495,0.054,2.234 c0.033,0.269,0.063,0.536,0.09,0.804c0.004,2.234-0.063,4.554-0.211,6.838c0.061,1.737-2.02,2.161-3.265,2.492 c-0.103,0.107-1.741,0.228-3.555,0.265c-0.033,0.211-0.004,0.33,0.087,0.348c1.493,0.061,2.75,0.042,2.75,0.002 c-0.002,0.049,0.794-0.018,0.865-0.029c0.134-0.02,0.264-0.045,0.386-0.098c0.119-0.049,0.215-0.049,0.347-0.049 c0.161,0,0.251-0.007,0.397-0.061c0.152-0.056,0.3-0.108,0.442-0.186c0.143-0.078,0.28-0.17,0.406-0.274 c0.116-0.096,0.206-0.246,0.321-0.334c0.459-0.341,0.525-0.567,0.883-1.049c0.892-1.212,0.825-3.106,0.748-4.352 C25.38,46.617,25.371,45.305,25.28,44.093z"/><path fill="#DA2429" d="M0.924,44.931c-0.016,0.489,0,0.98,0.065,1.495c0.023,0.19,0.123,1.206,0.423,1.23 c0.265,0.02,0.159-0.785,0.155-0.934c-0.018-0.865,0.144-1.73,0.383-2.555c0.069-0.238,0.056-0.478,0.107-0.713 c0.049-0.22,0.211-0.269,0.273-0.466c0.058-0.181-0.069-0.377-0.101-0.551c-0.043-0.233-0.007-0.442,0.054-0.668 c0.099-0.367,0.023-0.616-0.105-0.959c-0.132-0.359-0.134-0.708-0.123-1.087c0.005-0.226,0.013-0.451-0.018-0.675 c-0.031-0.226-0.135-0.374-0.228-0.574c-0.19-0.415,0-0.72,0.092-1.11c0.031-0.132,0.069-0.339-0.065-0.428 c-0.134-0.087-0.211,0.06-0.336-0.07c-0.164-0.172-0.022-0.607-0.049-0.82c-0.37,0.195-0.128,0.863-0.137,1.184 c-0.007,0.237-0.014,0.484-0.161,0.683c-0.206,0.28-0.112,0.666-0.079,0.984c0.043,0.413,0.105,0.823,0.155,1.235 c-0.027,0.91-0.051,1.82-0.076,2.73C1.038,43.573,0.948,44.248,0.924,44.931z"/><path fill="#DA2429" d="M14.777,54.387c0.287,0.15,1.307,0.078,1.528-0.202C16.153,53.717,14.833,53.945,14.777,54.387z"/></g><g><path fill="#FEDC00" d="M14.095,32.236c0.217-0.009,0.433-0.038,0.65-0.047c0.383-0.014,0.758,0.076,1.139,0.098 c0.374,0.02,0.74-0.069,1.112-0.072c0.004,0.237-0.052,0.464-0.067,0.697c-0.013,0.202,0.009,0.403,0.014,0.605 c0.011,0.368,0.04,0.744,0.005,1.11c-0.02,0.204-0.065,0.435,0.056,0.618c-0.011-0.016-0.023-0.034-0.034-0.051 c0.123,0.193,0.206,0.283,0.444,0.334c0.197,0.043,0.403,0.038,0.603,0.04c0.067,0,0.13-0.002,0.191-0.007 c0.182-0.014,0.365-0.117,0.442-0.289c0.103-0.228,0.034-0.477,0.014-0.715c-0.016-0.191,0.013-0.379,0.031-0.571 c0.027-0.294-0.027-0.583-0.058-0.876c-0.027-0.28,0.031-0.574-0.027-0.847c-0.009-0.042,0.361-0.051,0.661-0.051 c0.181,0,0.334,0.004,0.367,0.004c0.253,0.009,0.493-0.031,0.748-0.034c0.175-0.002,0.35,0.002,0.525,0.022 c0.13,0.014,0.358,0.125,0.478,0.107c0.172-0.023,0.316,0.013,0.556-0.054c0.238-0.07,0.386-0.318,0.421-0.515 c0.04-0.204,0.051-0.39,0.005-0.614c-0.025-0.108-0.074-0.233-0.173-0.339c-0.253-0.271-0.771-0.352-1.251-0.343 c-0.377,0.007-0.737,0.101-1.107,0.163c-0.137,0.023-0.273,0.029-0.41,0.022c-0.163-0.007-0.507,0.098-0.628-0.054 c-0.085-0.105-0.034-0.309-0.038-0.432c-0.007-0.237-0.02-0.471-0.031-0.706c-0.011-0.22-0.023-0.442-0.018-0.663 c0.005-0.209,0.513-0.153,0.646-0.137c0.2,0.025,0.377,0.061,0.583,0.063c0.506,0.007,1.015,0.034,1.522,0.034 c0.265,0,0.522-0.033,0.695-0.168c0.244-0.191,0.294-0.515,0.26-0.807c-0.022-0.182-0.076-0.408-0.273-0.571 c-0.126-0.103-0.274-0.126-0.406-0.128c-0.079,0-0.152,0.005-0.209,0.007c-0.199,0.005-0.395,0.009-0.594,0.009 c-0.199,0.002-0.395,0-0.592-0.002c-0.404-0.005-0.807-0.016-1.213-0.025c-0.081-0.002-0.164,0.007-0.246,0.005 c-0.061,0-0.099-0.04-0.126-0.09c-0.229-0.43-0.065-1.006-0.034-1.466c0-0.007,0-0.018,0-0.029 c0.007-0.159-0.004-0.228,0.172-0.238c0.123-0.007,0.244,0.025,0.367,0.029c0.32,0.009,0.637,0.02,0.955,0.031 c0.043,0.002,0.085,0.004,0.128,0.005c0.17,0.007,0.332,0.016,0.495,0.016s0.323-0.011,0.486-0.042 c0.341-0.069,0.775,0.014,0.97-0.339c0.215-0.386,0.224-1.239-0.307-1.392c0.009,0.002,0.016,0.002,0.023,0.004 c-0.274-0.087-0.5-0.081-0.742-0.063c-0.004,0-0.007,0-0.009,0c-0.352,0.027-0.805,0.092-1.107-0.141 c-0.332-0.256-0.274-0.814-0.173-1.17c0.076-0.262,0.179-0.513,0.448-0.621c0.238-0.096,0.524-0.088,0.775-0.074 c0.417,0.025,1.06,0.152,1.186-0.403c0.06-0.26-0.06-0.583-0.17-0.814c-0.152-0.318-0.469-0.408-0.804-0.419 c-0.372-0.011-0.782,0.076-1.08,0.116c-0.692,0.092-1.334,0.191-1.677,0.879c-0.229,0.46-0.311,0.984-0.348,1.493 c-0.007,0.092-0.042,1.268-0.027,1.268l-1.109,0.025l0.007-0.506l0.016-0.592c0.007-0.309-0.04-0.628-0.103-0.93 c-0.079-0.376-0.177-0.804-0.453-1.089c-0.404-0.415-0.939-0.583-1.508-0.574c-0.415,0.007-0.838,0.083-1.246,0.103 c-0.459,0.022-0.623,0.172-0.623,0.659c0,0.218,0.051,0.453,0.258,0.567c0.184,0.101,0.415,0.101,0.619,0.119 c0.423,0.038,1.073-0.078,1.356,0.325c0.166,0.237,0.186,0.547,0.199,0.827c0.014,0.32,0.033,0.639,0.036,0.959 c0.002,0.2-0.042,0.224-0.249,0.224c-0.215,0-0.423-0.056-0.637-0.065c-0.412-0.016-1.036-0.173-1.394,0.105 c-0.348,0.269-0.242,0.666-0.24,1.053c0.175,0.159,0.247,0.247,0.493,0.293c0.26,0.047,0.522,0.069,0.785,0.076 c0.601,0.018,1.203,0.025,1.804,0.042c0.152,0.004,0.3-0.013,0.45-0.009c0.051,0.002,0.101,0.005,0.152,0.013 c0.274,0.043,0.116,1.029,0.108,1.213c-0.007,0.175,0.065,0.412,0.022,0.58c-0.049,0.19-0.316,0.163-0.469,0.163 c-0.439,0-0.876-0.016-1.313-0.031c-0.146-0.005-0.291-0.011-0.437-0.016c-0.253-0.009-0.533-0.069-0.802-0.072 c-0.163-0.002-0.32,0.016-0.468,0.076c-0.417,0.175-0.392,0.59-0.293,0.957c0.135,0.506,0.253,0.518,0.767,0.534 c0.262,0.007,0.527,0.027,0.793,0.04c0.412,0.018,0.825,0.049,1.24,0.06c0.164,0.005,0.325-0.029,0.486-0.049 c0.079-0.011,0.159-0.018,0.238-0.018c0.182,0,0.079,0.522,0.088,0.641c0.016,0.206,0.027,0.412,0.023,0.618 c-0.004,0.182,0.023,0.419-0.065,0.587c-0.112,0.215-0.419,0.166-0.621,0.166c-0.206,0-0.413,0.004-0.619-0.005 c-0.507-0.022-1.008-0.092-1.517-0.067c-0.316,0.016-0.661,0.112-0.816,0.412c-0.137,0.267-0.175,0.646-0.079,0.935 c0.083,0.247,0.495,0.283,0.708,0.291C13.95,32.239,14.022,32.239,14.095,32.236z"/><path fill="#FEDC00" d="M12.143,34.001c0.033-0.215-0.009-0.423-0.002-0.637c0.011-0.332-0.054-0.657-0.096-0.986 c-0.04-0.323,0.005-0.641-0.02-0.962c-0.033-0.33-0.054-0.686-0.042-1.018c0.022-0.547,0.031-1.096,0.036-1.643 c0.004-0.531,0.004-1.064-0.025-1.593c-0.011-0.209-0.056-0.433-0.033-0.645c0.029-0.26,0.146-0.538-0.004-0.784 c-0.24-0.386-1.201-0.497-1.401-0.02c-0.11,0.265,0.007,0.84,0.004,1.132c-0.007,0.471-0.014,0.943-0.025,1.414 c-0.022,0.941-0.049,1.88-0.07,2.82c-0.011,0.493-0.018,0.984-0.025,1.477c-0.005,0.502-0.016,0.975,0.047,1.475 c0.036,0.285-0.004,0.543-0.034,0.825c-0.027,0.256,0.04,0.45,0.285,0.56c0.312,0.139,0.598,0.107,0.915,0.042 c0.058-0.011,0.11-0.033,0.164-0.056c0.433-0.19,0.258-1.015,0.323-1.376C12.141,34.02,12.141,34.011,12.143,34.001z"/><path fill="#FEDC00" d="M5.016,34.429c-0.004,0.26,0.038,0.679,0.211,0.863c0.28,0.3,0.82,0.302,1.172,0.159 c0.506-0.202,0.424-0.798,0.379-1.224c-0.081-0.751,0.085-1.513,0.101-2.262c0.013-0.571-0.094-1.136-0.078-1.706 c0.023-0.802,0.054-1.582,0.033-2.387c-0.013-0.475-0.117-0.968-0.107-1.435c0.005-0.244,0.083-0.516-0.079-0.731 c-0.209-0.271-0.531-0.287-0.84-0.231c-0.209,0.038-0.399,0.004-0.527,0.204c-0.244,0.383-0.096,0.973-0.099,1.401 c-0.007,0.809-0.067,1.614-0.074,2.423c-0.007,0.742-0.085,1.482-0.105,2.225C5,31.804,5.005,31.88,5.014,31.954 c0.018,0.155,0.049,0.305,0.054,0.466c0.011,0.348-0.139,0.684-0.121,1.036C4.962,33.788,5.02,34.094,5.016,34.429z"/><path fill="#FEDC00" d="M5.677,21.452c0.244,0.04,0.468,0.105,0.722,0.094c0.643-0.025,1.286,0.018,1.93-0.009 c0.473-0.022,0.939,0.02,1.408-0.06c0.356-0.061,0.719-0.054,1.082-0.029c0.235,0.016,0.374,0.141,0.625,0.081 c0.204-0.047,0.446-0.058,0.59-0.231c0.22-0.267,0.513-0.921,0.256-1.235c-0.218-0.265-0.701-0.26-1.009-0.269 c-1.098-0.034-2.226,0.204-3.319,0.045c-0.376-0.054-0.693,0.02-1.073,0.02c-0.354,0-0.728,0.072-1.08,0.105 c-0.368,0.034-0.683,0.282-0.766,0.598C5,20.734,5.023,20.927,5.142,21.117C5.272,21.312,5.447,21.414,5.677,21.452z M5.218,20.293c-0.002,0.007-0.004,0.014-0.005,0.02c-0.002-0.007-0.004-0.013-0.004-0.02 C5.211,20.293,5.215,20.293,5.218,20.293z"/><path fill="#FEDC00" d="M9.451,35.034c0.004-0.007,0.007-0.016,0.011-0.023c0.043-0.096,0.069-0.215,0.076-0.318 c0.009-0.143,0-0.287-0.016-0.428c-0.011-0.09-0.054-0.199-0.029-0.289c0.013-0.045,0.042-0.078,0.045-0.128 c0.004-0.038-0.014-0.07-0.016-0.108c-0.002-0.038-0.002-0.074-0.007-0.114c0.002,0.014,0.005,0.031,0.005,0.045 c-0.105-0.614,0.054-1.237-0.014-1.854c-0.043-0.395,0.108-0.789,0.116-1.184c0.005-0.5-0.101-0.995-0.029-1.495 c0.099-0.704-0.022-1.495-0.02-2.212c0-0.464,0.067-0.926,0.083-1.39c0.011-0.278-0.022-0.554-0.043-0.831 C9.6,24.563,9.503,24.35,9.618,24.233c0.177-0.179,0.563-0.02,0.778-0.02c0.569,0.002,1.437-0.018,1.768-0.574 c0.172-0.289,0.074-0.872-0.246-1.042c-0.28-0.148-0.69-0.061-0.988-0.056c-0.497,0.007-1.011-0.007-1.517,0.002 c-0.675,0.016-1.351,0.031-2.024,0.02c-0.406-0.007-0.811-0.06-1.217-0.023c-0.352,0.031-0.887,0.112-1.015,0.504 c-0.04,0.123-0.033,0.255-0.013,0.379c0.016,0.105,0.043,0.404,0.119,0.477c0.24,0.226,0.769,0.238,1.078,0.246 c0.35,0.007,0.701-0.027,1.049-0.054c0.182-0.014,0.372-0.007,0.417,0.202c0.063,0.3-0.043,0.659-0.018,0.968 c0.036,0.464,0.114,0.924,0.137,1.389c0.022,0.533-0.103,1.076-0.103,1.612c0,0.65,0.079,1.318,0.013,1.965 c-0.058,0.558-0.157,1.092-0.177,1.665c-0.023,0.645,0.116,1.273,0.123,1.914c0.004,0.325-0.04,0.65-0.034,0.971 c0.002,0.135,0.014,0.285,0.087,0.404c0.067,0.11,0.188,0.177,0.293,0.247c0.038,0.025,0.087,0.038,0.128,0.06 c0.04,0.02,0.076,0.04,0.117,0.054c0.045,0.013,0.094,0.02,0.141,0.023c0.033,0.002,0.107,0.018,0.135,0.004 c-0.005,0.002-0.009,0.007-0.014,0.011c0.018-0.014,0.117-0.004,0.144-0.007c0.051-0.005,0.101-0.016,0.152-0.029 c0.098-0.027,0.193-0.069,0.276-0.128c0.069-0.051,0.135-0.119,0.173-0.197C9.407,35.157,9.425,35.094,9.451,35.034z"/><path fill="#FEDC00" d="M22.166,41.365c-0.2-0.029-0.433,0.06-0.625,0.107c-0.206,0.052-0.419,0.074-0.628,0.092 c-0.311,0.025-0.614,0.09-0.921,0.128c-0.338,0.04-0.673-0.016-1.011-0.027c-0.424-0.016-0.899,0.049-1.304-0.11 c-0.116-0.045-0.163-0.107-0.137-0.237c0.052-0.264,0.318-0.209,0.529-0.217c0.273-0.009,0.547-0.002,0.82,0.009 c0.3,0.011,0.601,0.023,0.903,0.016c0.457-0.011,0.89-0.013,1.298-0.249c0.358-0.208,0.695-0.518,0.888-0.887 c0.302-0.571,0.283-1.268,0.249-1.896c-0.005-0.107-0.023-0.222-0.051-0.323c-0.061-0.224-0.119-0.444-0.24-0.645 c-0.119-0.197-0.262-0.395-0.442-0.542c0.025,0.007,0.047,0.02,0.069,0.034c-0.103-0.058-0.354-0.222-0.383-0.242 c-0.522-0.415-1.367-0.478-2.006-0.509c-0.507-0.023-1.119,0.052-1.629,0.125c-0.482,0.069-1.21-0.278-1.607,0.121 c-0.206,0.208-0.256,0.56-0.132,0.818c0.141,0.291,0.451,0.376,0.74,0.448c0.408,0.101,0.796,0.193,1.221,0.155 c0.442-0.04,0.878-0.152,1.324-0.132c0.404,0.018,1.412,0.06,1.629,0.462c0.128,0.24,0.244,0.534,0.209,0.794 c-0.033,0.253-0.061,0.556-0.242,0.755c-0.166,0.182-0.502,0.231-0.739,0.276c-0.32,0.06-0.616,0.088-0.91,0.101 c-0.359,0.016-0.717,0.009-1.109,0.009c-0.516,0-1.324,0.023-1.685,0.459c-0.267,0.323-0.33,0.794-0.309,1.201 c0.011,0.222,0.04,0.45,0.119,0.657c0.067,0.177,0.231,0.408,0.413,0.482c0.173,0.072,0.377,0.051,0.56,0.069 c0.417,0.038,0.834-0.042,1.251-0.022c0.348,0.016,0.706,0.022,1.058,0.022c0.979,0,2.066,0.099,3.039,0.007 c0.188-0.098,0.19-0.22,0.226-0.397c0.042-0.209,0.005-0.415-0.107-0.596c-0.047-0.074-0.107-0.117-0.161-0.182 C22.279,41.439,22.254,41.377,22.166,41.365z M17.473,41.316l-0.011-0.004l-0.007-0.002v-0.002c0.007,0,0.016,0.002,0.025,0.002 C17.478,41.312,17.475,41.314,17.473,41.316z"/><path fill="#FEDC00" d="M15.998,44.552c0.258-0.007,0.515,0.029,0.773,0.016c0.478-0.025,0.952,0.029,1.43,0.027 c0.455,0,0.915-0.052,1.37-0.014c0.345,0.029,0.69,0.022,1.036,0.018c0.354-0.004,0.711,0.014,1.064-0.043 c0.267-0.043,0.688-0.099,0.896-0.293c0.134-0.125,0.242-0.419,0.217-0.625c-0.004-0.027-0.009-0.052-0.018-0.076 c-0.067-0.19-0.274-0.208-0.446-0.26c-0.473-0.146-0.962-0.085-1.448-0.085c-0.386,0-0.776-0.016-1.163-0.004 c-0.48,0.016-0.962,0.016-1.443,0.002c-0.397-0.013-0.794-0.031-1.192-0.031c-0.363,0-0.726,0.049-1.089,0.025 c-0.181-0.011-0.533-0.045-0.619-0.231c-0.099-0.215-0.047-0.5-0.033-0.728c0.023-0.367,0.096-0.766,0.016-1.129 c-0.063-0.28-0.027-0.576-0.018-0.859c0.005-0.17,0-0.339-0.005-0.509c-0.004-0.134,0.016-0.256,0.023-0.385 c0.527-0.056,1.087-0.04,1.618-0.065c0.567-0.027,1.132-0.054,1.699-0.054c0.459,0,1.184,0.153,1.549-0.211 c0.607-0.607-0.061-0.899-0.413-0.984c-0.804-0.193-2.234-0.027-3.042,0.007c-0.424,0.018-1.367,0.134-1.461-0.453 c-0.088-0.553,0.168-1.358-0.385-1.742c-0.296-0.206-0.643-0.146-0.87,0.134c-0.191,0.237-0.144,0.643-0.125,0.923 c0.04,0.538,0.009,1.078-0.011,1.616c-0.02,0.524,0.034,1.042,0.025,1.562c-0.002,0.172-0.02,0.341-0.018,0.513 c0.002,0.307-0.004,0.614-0.007,0.921c-0.005,0.318-0.051,0.634-0.051,0.95c0,0.415,0,0.827,0.011,1.244 c0.009,0.311,0.022,0.619,0.029,0.93c0.013,0.497-0.025,0.989,0.045,1.484c0.02,0.137,0.033,0.267,0.07,0.397 c0.087,0.3,0.237,0.634,0.403,0.896c0.554,0.885,1.833,0.764,2.717,0.744c0.294-0.007,0.583,0.007,0.878,0.033 c0.155,0.013,0.403-0.014,0.442,0.193c0.045,0.233-0.202,0.206-0.35,0.228c-0.231,0.034-0.464,0.067-0.699,0.067 c-0.478,0.002-0.962,0.007-1.443,0.029c-0.442,0.02-0.854,0.014-1.286,0.101c-0.486,0.096-0.692,0.408-0.82,0.834 c-0.076,0.258-0.06,0.542-0.033,0.805c0.045,0.437-0.083,0.879,0.435,1.051c0.307,0.103,0.697-0.007,0.93-0.224 c0.181-0.168,0.098-0.296,0.107-0.516c0.016-0.336-0.025-0.738,0.406-0.749c0.107-0.004,0.262-0.043,0.354,0.025 c0.163,0.117-0.005,0.43-0.005,0.59c0,0.193-0.027,0.48,0.072,0.654c0.164,0.283,0.619,0.213,0.888,0.19 c0.35-0.031,0.65-0.134,0.731-0.518c0.04-0.191,0.043-0.417,0.011-0.61c-0.023-0.144-0.079-0.341,0.094-0.412 c0.125-0.051,0.459-0.005,0.538,0.121c0.085,0.134,0.049,0.495,0.04,0.632c-0.016,0.253,0.005,0.578,0.235,0.744 c0.182,0.132,0.446,0.15,0.663,0.112c0.475-0.085,0.668-0.388,0.677-0.852c0.005-0.276-0.009-0.553-0.033-0.827 c-0.022-0.258-0.083-0.52-0.034-0.778c0.049-0.269,0.004-0.576-0.058-0.84c-0.078-0.363-0.246-0.69-0.386-0.894 c-0.2-0.289-0.545-0.459-0.885-0.513c-0.258-0.042-0.513,0.043-0.771,0.014c-0.289-0.032-0.59,0.031-0.881,0.031 c-0.363,0-1.045,0.078-1.331-0.217c-0.081-0.085-0.087-0.251,0.04-0.289c0.155-0.047,0.35-0.031,0.511-0.045 c0.419-0.038,0.829-0.002,1.249,0.007c0.832,0.016,1.659,0.027,2.477,0.197c0.079,0.038,0.164,0.072,0.244,0.112 c0.314,0.161,0.459,0.43,0.54,0.762c0.07,0.296,0.034,0.675,0.005,0.831c-0.031,0.179,0.013,0.401,0.013,0.583 c0,0.206-0.004,0.41-0.007,0.616c-0.007,0.403-0.031,0.804,0.007,1.204c0.023,0.237,0.036,0.583,0.255,0.731 c0.282,0.191,0.677,0.184,0.97,0.022c0.199-0.112,0.379-0.321,0.379-0.565c0-0.07-0.005-0.144,0.007-0.213 c0.034-0.17-0.011-0.302,0-0.471c0.014-0.231,0.034-0.469,0.023-0.704c-0.027-0.596-0.004-1.183-0.058-1.779 c-0.033-0.361-0.083-0.69-0.237-1.018c-0.096-0.206-0.181-0.419-0.309-0.607c-0.19-0.278-0.563-0.478-0.867-0.616 c-0.235-0.107-0.462-0.17-0.713-0.224c-0.43-0.09-0.879-0.043-1.314-0.119c-0.728-0.128-1.454-0.069-2.185-0.065 c-0.152,0-1.278,0.06-1.257-0.231C15.413,44.573,15.839,44.555,15.998,44.552z"/><path fill="#FEDC00" d="M13.334,46.565c0-1.089-0.11-2.172-0.087-3.263c0.014-0.607-0.007-1.204-0.04-1.811 c-0.016-0.283,0.036-0.563,0.036-0.845c0-0.367-0.027-0.731-0.023-1.098c0.002-0.298,0.023-0.59-0.002-0.888 c-0.023-0.283-0.107-0.562-0.126-0.841c-0.031-0.419-0.204-0.764-0.39-1.13c-0.083-0.163-0.2-0.267-0.37-0.336 c-0.3-0.121-0.65-0.197-0.973-0.202c-0.516-0.009-0.97,0.161-1.331,0.531c0-0.007,0.002-0.014,0.005-0.022 c-0.108,0.229-0.238,0.403-0.305,0.655c-0.07,0.265-0.108,0.538-0.166,0.807c-0.06,0.273-0.116,0.498-0.119,0.78 c-0.007,0.659-0.042,1.316-0.042,1.977c0,0.403,0.042,0.805,0.045,1.206c0.004,0.419-0.027,0.838-0.054,1.257 c-0.033,0.52,0.029,1.045,0.043,1.565c0.013,0.45-0.063,0.896-0.096,1.343c-0.034,0.46,0.031,0.914,0.025,1.372 c-0.005,0.43-0.061,0.829-0.013,1.255c0.058,0.478,0.153,0.995,0.051,1.459c-0.054,0.244-0.112,0.518-0.049,0.769 c0.07,0.283,0.408,0.5,0.695,0.376c0.184-0.079,0.43,0.018,0.61-0.101c0.121-0.078,0.181-0.242,0.213-0.374 c0.081-0.321,0.013-0.666,0.036-0.993c0.047-0.632-0.034-1.264-0.081-1.896c-0.014-0.184-0.164-0.823,0.033-0.948 c0.264-0.166,0.484-0.018,0.767-0.06c0.038,0.343-0.016,0.71-0.004,1.056c0.027,0.726,0.172,1.535,0.014,2.253 c-0.058,0.262-0.132,0.598,0.016,0.843c0.105,0.172,0.271,0.233,0.459,0.264c0.182,0.029,0.413,0.098,0.594,0.078l-0.005,0.009 c0.211-0.02,0.457-0.125,0.554-0.352c0.087-0.199,0.051-0.43,0.038-0.639c-0.016-0.265-0.002-0.531,0.009-0.796 c0.011-0.298-0.051-0.576-0.076-0.87C13.159,48.156,13.334,47.363,13.334,46.565z M10.825,38.891c0-0.004,0-0.007,0-0.011 c0.002,0.004,0.004,0.005,0.005,0.009C10.828,38.891,10.825,38.889,10.825,38.891z M11.489,37.49 c-0.002,0.005-0.005,0.009-0.009,0.013c-0.002,0.005-0.005,0.009-0.009,0.014C11.478,37.51,11.485,37.499,11.489,37.49z M11.67,45.52c-0.065,0.005-0.715-0.002-0.717-0.034c-0.013-0.226,0.013-0.453,0-0.681c-0.014-0.249-0.043-0.498-0.043-0.749 c-0.002-0.493,0.049-0.989,0.038-1.481c-0.002-0.128-0.061-0.222-0.056-0.352c0.186-0.009,0.377-0.011,0.565-0.009 c0.237,0,0.173,0.327,0.172,0.507c-0.002,0.298-0.038,0.594-0.043,0.892c-0.004,0.249,0.04,0.497,0.067,0.744 c0.027,0.242,0.004,0.466-0.009,0.706C11.635,45.218,11.675,45.368,11.67,45.52z M11.724,39.521 c-0.005,0.222-0.04,0.417-0.09,0.63c-0.056,0.233,0.027,0.493,0.013,0.731c-0.128,0.005-0.247-0.009-0.372-0.027 c-0.121-0.016-0.251,0.016-0.37-0.002c-0.047-0.641,0.061-1.273,0.078-1.91c0.005-0.209,0.002-0.419,0-0.628 c-0.002-0.153-0.06-0.484,0.011-0.621c0.101-0.197,0.545-0.04,0.627,0.161c0.063,0.153,0.07,0.293,0.085,0.455 c0.018,0.193,0.063,0.365,0.054,0.558C11.745,39.086,11.729,39.305,11.724,39.521z"/><path fill="#FEDC00" d="M8.853,49.591C8.84,49.25,8.824,48.909,8.8,48.571c-0.085-1.3,0.088-2.613,0.069-3.916 c-0.005-0.377-0.014-0.753-0.014-1.13c0-0.551,0.029-1.101-0.02-1.652c-0.04-0.466,0.004-0.831,0.027-1.293 c0.023-0.471-0.038-0.941-0.029-1.41c0.018-0.816-0.175-1.856-0.697-2.513c-0.224-0.283-0.469-0.451-0.825-0.484 c-0.302-0.027-0.639-0.007-0.939,0.027c-0.134,0.014-0.274,0.076-0.392,0.137c-0.439,0.226-0.67,0.643-0.805,1.098 c-0.173,0.581-0.264,1.188-0.251,1.795c0.009,0.536-0.004,1.074,0.004,1.612c0.002,0.267-0.04,0.527-0.051,0.794 c-0.02,0.549,0.034,1.1,0.023,1.649c-0.007,0.376-0.033,0.751-0.027,1.127c0.005,0.41,0.065,0.82,0.029,1.231 c-0.092,1.067-0.056,2.143-0.056,3.214c0,0.311,0.004,0.621,0.023,0.932c0.016,0.273-0.04,0.543-0.049,0.816 c-0.02,0.599,0.543,1.313,1.157,0.784c0.432-0.372,0.213-1.259,0.238-1.768c0.022-0.457-0.202-2.522,0.48-2.515 c0.038,0,0.448,0.038,0.448,0.027c0.056,0.964-0.009,1.943,0.076,2.918c0.054,0.632,0.307,2.268,1.379,1.448 c0.303-0.233,0.285-0.692,0.278-1.033C8.871,50.171,8.864,49.882,8.853,49.591z M6.356,38.871 c0.004-0.432,0.038-1.519,0.484-1.367c0.218,0.074,0.33,0.623,0.347,0.818c0.025,0.307,0.009,0.625-0.031,0.928 c-0.069,0.524,0.079,1.054-0.022,1.575c-0.265,0.065-0.715,0.148-0.775-0.218c-0.04-0.244,0.033-0.515,0.033-0.76 c-0.002-0.278-0.038-0.554-0.036-0.832C6.356,38.985,6.356,38.936,6.356,38.871z M7.044,45.485 c-0.065,0.022-0.13,0.02-0.197,0.02c-0.184,0-0.343,0.027-0.359-0.191c-0.011-0.15-0.016-0.298-0.016-0.448 c0.002-0.274,0.043-0.562,0.016-0.834c-0.014-0.148-0.027-0.293-0.049-0.441c-0.031-0.217-0.056-0.419-0.056-0.641 c0-0.087,0.005-0.173,0.009-0.26c0.004-0.085,0.027-0.17,0.025-0.255c0-0.063-0.031-0.134,0.027-0.181 c0.09-0.072,0.285-0.069,0.392-0.049c0.116,0.022,0.267,0.002,0.318,0.126c0.06,0.146,0.031,0.367,0.016,0.522 c0,0.007-0.002,0.013-0.002,0.02c-0.02,0.256-0.011,0.509-0.029,0.764c-0.02,0.296,0.052,0.59,0.043,0.887 c-0.005,0.199,0.025,0.397,0.023,0.596C7.21,45.238,7.168,45.444,7.044,45.485z"/></g></g><g><g><polygon fill="#EC2227" points="34.8 37.098 31.676 37.098 31.401 37.976 34.522 37.976"/><polygon fill="#EC2227" points="30.91 38.608 30.632 39.485 32.1 39.485 30.316 45.113 31.243 45.113 33.315 38.608"/><path fill="#EC2227" d="M30.762,40.103c-0.448,1.204-0.959,2.391-1.614,3.721l0.805,0.134c0.54-1.078,1.188-2.616,1.641-3.855 H30.762z"/><path fill="#EC2227" d="M33.115,40.103c-0.309,1.009-0.771,2.777-0.905,3.591l0.805-0.092c0.157-0.856,0.542-2.392,0.89-3.499 H33.115z"/><polygon fill="#EC2227" points="64.264 42.454 66.898 42.454 67.189 41.54 60.842 41.54 60.551 42.464 63.249 42.464 62.783 43.931 59.253 43.931 58.959 44.853 66.904 44.853 67.194 43.931 63.8 43.931"/><polygon fill="#EC2227" points="65.804 37.598 65.954 37.107 64.941 37.107 64.789 37.598 61.405 37.598 60.766 39.612 61.741 39.612 62.102 38.488 67.821 38.488 67.465 39.612 68.442 39.612 69.079 37.598"/><path fill="#EC2227" d="M66.111,39.658l0.264-0.831h-0.973l-0.274,0.885c-0.152,0.478-0.173,0.823-0.027,1.004 c0.141,0.175,0.442,0.258,0.89,0.258h2.021l0.278-0.879h-1.858C66.115,40.099,66.017,39.955,66.111,39.658"/><path fill="#EC2227" d="M60.569,41.34c1.558-0.253,2.921-0.941,3.962-2.174l0.049-0.058l-0.818-0.381l-0.04,0.045 c-0.84,0.934-1.771,1.457-3.308,1.656l-0.088,0.009l0.2,0.908L60.569,41.34z"/><polygon fill="#EC2227" points="46.905 42.602 44.657 42.602 44.409 43.38 46.661 43.38"/><polygon fill="#EC2227" points="39.13 39.382 39.418 38.47 38.532 38.47 39.539 37.098 38.579 37.098 37.569 38.47 36.602 38.47 36.426 37.098 35.462 37.098 35.639 38.47 34.856 38.47 34.565 39.382 36.349 39.382 36.051 40.316 34.485 40.316 34.207 41.193 35.776 41.193 35.401 42.369 33.592 42.369 33.303 43.284 35.112 43.284 34.531 45.113 35.495 45.113 36.074 43.284 37.967 43.284 38.259 42.369 36.363 42.369 36.737 41.193 38.306 41.193 38.584 40.316 37.015 40.316 37.311 39.382"/><path fill="#EC2227" d="M41.762,37.244l-1.437,4.538c-0.415,1.307-0.955,2.297-1.437,3.017l0.661,0.314 c0.54-0.814,1.082-1.921,1.482-3.191h0.484l-0.988,3.191h0.742l2.492-7.871h-1.999V37.244z M41.766,41.15h-0.477l0.415-1.313 h0.475L41.766,41.15z M41.948,39.063l0.33-1.042h0.477l-0.33,1.042H41.948z"/><path fill="#EC2227" d="M44.075,37.244l-1.439,4.538c-0.029,0.099-1.006,3.237-1.038,3.331h0.724 c0.029-0.087,0.995-3.1,1.022-3.191h0.484l-0.988,3.191h0.742l2.492-7.871h-1.999V37.244z M44.079,41.15H43.6l0.417-1.313h0.475 L44.079,41.15z M44.263,39.063l0.33-1.042h0.477l-0.33,1.042H44.263z"/><polygon fill="#EC2227" points="57.838 37.849 58.096 37.107 57.135 37.107 56.873 37.849 55.451 37.849 55.167 38.738 59.172 38.738 59.455 37.849"/><path fill="#EC2227" d="M55.084,40.915c-0.504,1.589-1.11,2.714-1.813,3.387l-0.043,0.045l0.567,0.668l0.056-0.058 c0.85-0.89,1.526-2.14,2.039-3.743l0.307-0.973h1.015l-1.262,3.974c-0.139,0.446,0,0.668,0.571,0.668h1.04l0.26-0.827 c-0.009,0.002-0.014,0.002-0.023,0.002h-0.668c-0.125,0-0.155-0.054-0.099-0.231l1.389-4.388l0.011-0.061h-2.855L55.084,40.915z"/><path fill="#EC2227" d="M55.348,37.604h-1.23l0.381-0.497h-0.961l-0.383,0.497h-1.049l-0.885,2.791h-0.59l-0.26,0.823h0.589 l-0.016,0.051c-0.413,1.309-0.944,2.365-1.589,3.171l-0.032,0.045l0.63,0.58l0.052-0.069c0.715-0.946,1.316-2.192,1.827-3.776 h0.433l-0.437,1.437h0.668l0.437-1.437h0.401l-0.841,2.649c-0.045,0.148-0.141,0.22-0.323,0.222l-0.758-0.042l-0.061,0.919h0.744 c0.347,0,0.627-0.072,0.811-0.238c0.181-0.164,0.327-0.451,0.455-0.85L55.348,37.604z M53.183,40.395l0.397-1.305h-0.668 l-0.397,1.305H52.09l0.63-1.984h1.5l-0.63,1.984H53.183z"/><path fill="#EC2227" d="M48.306,38.209l-0.775,2.481h0.834l1.022-3.257h-1.271l0.249-0.325h-0.961l-0.251,0.325h-0.859 l-1.385,4.37h2.55l-0.608,1.916c-0.094,0.303-0.293,0.453-0.614,0.459h-0.811L45.4,44.985h0.697c0.789,0,1.311-0.388,1.556-1.152 l0.901-2.842h-2.553l0.352-1.112h1.163l0.213-0.666h-1.161l0.318-1.006h1.419V38.209z"/></g><g><polygon fill="#EC2227" points="32.723 28.214 31.55 28.214 29.628 34.402 34.058 34.402 34.388 33.341 31.132 33.341"/><polygon fill="#EC2227" points="62.476 29.76 61.035 34.402 62.241 34.402 63.684 29.76"/><polygon fill="#EC2227" points="64.163 28.214 62.956 28.214 62.559 29.491 63.765 29.491"/><path fill="#EC2227" d="M66.474,29.76c-0.377,0-0.89,0.09-1.071,0.121c-0.457,0.079-0.612-0.352-0.612-0.352l-1.509,4.873h1.168 l0.921-2.97c0.13-0.424,0.513-0.618,0.966-0.618h1.333l0.327-1.054H66.474z"/><path fill="#EC2227" d="M44.386,32.844h-1.163l-0.087,0.125c-0.045,0.067-0.094,0.126-0.15,0.179 c-0.13,0.119-0.305,0.184-0.529,0.202c-0.222,0.014-0.433,0.022-0.63,0.022c-0.193,0-0.397-0.011-0.607-0.038 c-0.291-0.034-0.336-0.152-0.354-0.191c-0.054-0.13-0.049-0.307,0.004-0.527c0.04-0.164,0.09-0.35,0.146-0.556 c0.052-0.193,0.114-0.37,0.181-0.529c0.065-0.146,0.134-0.267,0.206-0.358c0.067-0.085,0.139-0.153,0.22-0.204 c0.079-0.051,0.17-0.09,0.271-0.11c0.116-0.025,0.247-0.042,0.399-0.045c0.159-0.009,0.338-0.016,0.533-0.016 c0.191,0,0.367,0.014,0.524,0.038c0.217,0.031,0.285,0.119,0.316,0.181c0.022,0.042,0.034,0.09,0.04,0.144l0.013,0.173h1.118 l0.031-0.237c0.007-0.052,0.013-0.103,0.014-0.15c0.011-0.184-0.016-0.359-0.079-0.513c-0.07-0.19-0.202-0.347-0.386-0.466 c-0.181-0.116-0.426-0.181-0.733-0.2c-0.235-0.009-0.478-0.018-0.726-0.023c-0.255-0.005-0.513,0.005-0.769,0.033 c-0.451,0.052-0.859,0.2-1.215,0.437c-0.368,0.246-0.65,0.616-0.834,1.096c-0.083,0.217-0.164,0.442-0.244,0.67 c-0.081,0.235-0.144,0.475-0.193,0.711c-0.043,0.233-0.063,0.444-0.058,0.63c0.005,0.202,0.052,0.383,0.135,0.533 c0.088,0.155,0.22,0.28,0.397,0.37c0.164,0.085,0.374,0.141,0.63,0.163c0.213,0.016,0.448,0.027,0.701,0.034 c0.081,0.002,0.162,0.002,0.242,0.002c0.161,0,0.312-0.002,0.451-0.011c0.273-0.018,0.518-0.067,0.74-0.144 c0.224-0.079,0.428-0.188,0.608-0.321c0.209-0.155,0.385-0.334,0.52-0.525c0.063-0.092,0.119-0.184,0.168-0.28L44.386,32.844z"/><path fill="#EC2227" d="M38.866,29.753l-1.083,3.494c-0.119,0.005-0.247,0.022-0.397,0.042c-0.215,0.031-0.459,0.065-0.749,0.065 H36.49c-0.081,0-0.173,0-0.256-0.004c-0.321-0.018-0.415-0.094-0.446-0.137c-0.029-0.045-0.063-0.172,0.04-0.502l0.917-2.958 H35.61l-0.941,3.03c-0.148,0.475-0.123,0.861,0.074,1.147c0.193,0.282,0.524,0.446,0.98,0.482c0.2,0.016,0.415,0.02,0.628,0.011 c0.197-0.007,0.394-0.022,0.589-0.04v0.005l0.13-0.018c0.005,0,0.013-0.002,0.016-0.002l0.031-0.005l0,0 c0.262-0.038,0.491-0.058,0.684-0.058c0.296,0,0.413,0.047,0.437,0.06l0.262,0.233l0.444-1.425l0.007-0.027 c0.002-0.005,0.002-0.011,0.005-0.014l1.047-3.377h-1.139V29.753z"/><path fill="#EC2227" d="M53.688,29.76l-2.179,2.974l-0.394-2.974h-2.306l-1.701,1.284c-0.302,0.229-0.677,0.348-0.924,0.403 l1.004-3.232h-1.152l-1.921,6.188h1.152l0.749-2.412c0.262,0.081,0.547,0.22,0.61,0.383l0.854,2.03h1.367l-1.042-2.477 c-0.016-0.045-0.04-0.094-0.074-0.143c0.061-0.043,0.121-0.088,0.173-0.126l2.019-1.481l0.52,4.007l-1.349,1.838h1.231 l4.646-6.26C54.972,29.76,53.688,29.76,53.688,29.76z"/><g><g><polygon fill="#EC2227" points="59.116 33.245 59.116 34.402 60.32 34.402 60.32 31.622"/><path fill="#FEDC00" d="M62.139,30.406c0,0-1.042,0.045-2.391,1.84c0,0-0.737,1.145-1.567,0.744 c-0.426-0.208-0.397-1.163,0.621-1.208c0.083-0.094-0.367-0.247-0.592-0.184c-0.226,0.065-1.031,0.325-1.029,0.773 c0.004,0.45,0.096,0.962,0.37,1.231c0.276,0.271,0.545,0.273,0.993,0.199c0.45-0.072,1.434-0.973,1.717-1.423 C60.546,31.925,61.516,30.551,62.139,30.406"/><path fill="#EC2227" d="M60.069,32.295c-1.287,1.849-2.41,1.322-2.578,0.628c-0.15-0.621,0.352-1.161,0.991-1.177 c0.307-0.007,0.589,0.105,0.8,0.294l0.161-0.004c-0.323-0.423-0.834-0.69-1.405-0.673c-0.944,0.023-1.482,0.757-1.378,1.694 c0.074,0.661,0.63,1.269,1.571,1.244c2.116-0.056,2.568-3.111,3.906-3.895C62.139,30.406,61.284,30.551,60.069,32.295"/><path fill="#EC2227" d="M59.674,31.36c-0.374,0.274-0.831,0.421-0.831,0.421c-0.246,0.002-0.441,0.202-0.439,0.448 c0.004,0.246,0.204,0.442,0.45,0.439c0.027,0,0.056-0.002,0.085-0.009c0.038-0.004,0.081-0.02,0.125-0.047 c0.004-0.002,0.007-0.002,0.009-0.004c0.004-0.004,0.007-0.005,0.011-0.009c0.02-0.011,0.036-0.023,0.052-0.038 c0.24-0.173,0.607-0.695,1.062-1.172c0.534-0.56,1.051-0.816,1.051-0.816C60.878,30.659,59.865,31.217,59.674,31.36"/><polygon fill="#EC2227" points="59.116 32.438 60.32 31.208 60.32 28.214 58.504 28.214 53.862 34.402 55.451 34.402 59.116 29.381"/></g></g></g></g></g></svg>