<svg xmlns="http://www.w3.org/2000/svg" version="1.1" id="Layer_1" x="0px" y="0px" width="70px" height="70px" viewBox="0 0 70 70" enable-background="new 0 0 70 70" xml:space="preserve"><path fill="#025496" d="M49.539,53.829c0.923,1.716,1.543,3.557,2.236,5.368   c0.111,0.292,0.269,0.53,0.506,0.739c0.98,0.862,1.984,1.704,2.918,2.617c0.99,0.968,2.163,1.312,3.494,1.216   c0.294-0.021,0.405,0.057,0.477,0.324c0.36,1.373,0.728,2.743,1.11,4.109c0.081,0.294,0.035,0.354-0.265,0.275   c-1.198-0.316-2.238-0.941-3.238-1.642c-2.62-1.836-4.86-4.091-7.033-6.419c-1.436-1.54-2.764-3.174-4.131-4.772   c-0.376-0.219-0.59-0.594-0.849-0.917c-0.968-1.196-1.902-2.419-2.845-3.637c-0.206-0.267-0.444-0.491-0.734-0.669   c-1.252-0.772-2.426-1.654-3.494-2.661c-0.834-0.789-1.58-1.649-1.919-2.804c-0.199-0.675-0.762-1.126-1.274-1.572   c-2.178-1.896-4.607-3.43-7.083-4.897c-2.324-1.375-4.703-2.653-7.033-4.017c-0.415-0.242-0.854-0.438-1.303-0.601   c-1.441-0.522-2.555-1.45-3.487-2.646c-1.888-2.423-2.941-5.187-3.406-8.193c-0.163-1.052-0.341-2.092-0.854-3.042   c-0.056-0.105-0.071-0.22-0.099-0.333c-0.686-1.195-2.04-1.792-3.377-1.491c-0.631,0.142-0.923,0.625-0.785,1.325   c0.075,0.387,0.221,0.749,0.402,1.098c0.068,0.132,0.104,0.238-0.116,0.258c-1.527,0.147-3.053,0.3-4.626,0.457   c1.158-1.55,1.84-3.288,2.553-5.008c0.121-0.292,0.257-0.375,0.569-0.369c2.422,0.051,4.847,0.081,7.27,0.117   c0.201,0.127,0.2,0.343,0.225,0.54c0.156,1.248,0.656,2.37,1.248,3.46c0.139,0.255,0.254,0.302,0.488,0.092   c0.269-0.243,0.538-0.488,0.816-0.719c1.434-1.18,3.049-1.591,4.886-1.25c1.364,0.254,2.297-0.212,3.017-1.384   c0.03-0.05,0.062-0.098,0.087-0.152c0.177-0.375,0.354-0.771,0.084-1.153c-0.254-0.36-0.674-0.364-1.072-0.329   c-0.362,0.032-0.716,0.125-1.076,0.171c-0.358,0.046-0.44-0.065-0.266-0.388c0.349-0.641,0.603-1.318,0.818-2.013   c0.126-0.406,0.209-0.433,0.598-0.218c0.517,0.288,1.06,0.465,1.658,0.455c0.414-0.008,0.67-0.241,0.847-0.586   c0.126-0.246,0.056-0.372-0.231-0.404c-0.851-0.091-1.702-0.182-2.554-0.254c-0.505-0.042-0.623-0.107-0.657-0.612   c-0.033-0.491-0.104-0.981-0.105-1.474C21.934,9.5,21.82,9.295,21.543,9.115c-0.394-0.257-0.835-0.48-1.04-0.953   c-0.996-1.127-1.502-2.448-1.566-4.027C19.69,5.391,20.79,6.15,22.003,6.82c0.241-0.886,0.836-1.452,1.562-1.918   c0.329-0.21,0.652-0.437,0.947-0.692c0.676-0.583,0.674-1.101,0.017-1.715c-0.125-0.117-0.268-0.215-0.433-0.344   c0.085-0.037,0.143-0.077,0.206-0.088c0.312-0.055,0.728-0.002,0.904-0.185c0.14-0.145,0.013-0.571,0.104-0.866   c0.142-0.051,0.172,0.076,0.226,0.148c0.356,0.477,0.684,0.977,1.066,1.431c0.577,0.689,0.672,1.418,0.294,2.223   c-0.039,0.327-0.279,0.496-0.525,0.65c-0.283,0.178-0.587,0.319-0.879,0.483c-0.112,0.064-0.23,0.123-0.338,0.198   c-0.589,0.417-0.778,0.798-0.601,1.216c0.215,0.506,0.98,0.932,1.521,0.785c1.777-0.486,3.417-0.166,4.966,0.78   c0.359,0.22,0.735,0.414,1.07,0.67c0.316,0.242,0.305,0.377-0.037,0.574c-0.239,0.137-0.495,0.246-0.738,0.376   c-0.074,0.04-0.181,0.07-0.173,0.172c0.013,0.128,0.139,0.138,0.234,0.15c0.319,0.042,0.637,0.031,0.954-0.027   c0.702-0.127,1.392-0.301,2.076-0.496c0.171-0.048,0.389-0.191,0.521,0c0.126,0.179-0.064,0.351-0.152,0.509   c-0.185,0.33-0.417,0.63-0.615,0.952c-0.208,0.336-0.182,0.39,0.21,0.393c1.471,0.009,2.929-0.121,4.374-0.391   c0.057-0.011,0.112-0.028,0.171-0.032c0.182-0.017,0.412-0.151,0.529,0.032c0.132,0.203-0.019,0.423-0.154,0.593   c-0.581,0.72-1.354,1.172-2.179,1.556c-0.915,0.425-1.894,0.65-2.859,0.916c-0.144,0.04-0.365,0.013-0.385,0.213   c-0.018,0.181,0.178,0.248,0.309,0.331c0.627,0.394,1.349,0.422,2.051,0.523c0.072,0.01,0.147,0.004,0.219,0.018   c0.124,0.021,0.282,0.001,0.317,0.167c0.03,0.141-0.059,0.25-0.162,0.336c-0.42,0.356-0.914,0.562-1.441,0.689   c-0.868,0.208-1.75,0.286-2.638,0.245c-0.504-0.022-0.937,0.126-1.347,0.406c-0.517,0.352-1.01,0.722-1.471,1.152   c-1.331,1.24-1.519,2.704-0.93,4.34c0.516,1.434,1.396,2.632,2.369,3.621c-0.46-0.743-0.831-1.644-1.026-2.62   c-0.412-2.071,0.33-3.665,1.98-4.902c1.467-1.1,3.161-1.64,4.913-2.039c2.102-0.478,4.235-0.677,6.385-0.81   c1.974-0.123,3.855-0.68,5.663-1.481c2.129-0.945,4.161-2.069,6.152-3.272c0.148-0.088,0.277-0.221,0.473-0.191   c2.212-1.322,4.239-2.895,6.201-4.556c1.251-1.061,2.485-2.143,3.677-3.272c0.067-0.064,0.114-0.172,0.315-0.149   c0.134,5.318-1.106,10.044-5.693,13.457c1.628,0.163,2.993-0.394,4.361-1.118c-0.272,2.326-1.121,4.342-2.669,6.051   c-0.234,0.416-0.596,0.71-0.961,0.995c-1.738,1.354-3.748,2.076-5.882,2.497c-0.396,0.079-0.792,0.158-1.278,0.227   c0.648,0.35,1.282,0.429,1.908,0.498c0.317,0.035,0.635,0.082,0.952,0.11c0.349,0.031,0.426,0.171,0.288,0.505   c-0.254,0.624-0.694,1.104-1.237,1.488c-1.138,0.802-2.438,1.128-3.798,1.275c-2.242,0.242-4.461-0.02-6.681-0.302   c-0.661-0.084-1.318-0.165-1.991-0.042c-1.022,0.186-1.831,0.965-2.005,1.985c-0.046,0.265,0.042,0.401,0.288,0.497   c3.119,1.206,5.152,3.494,6.38,6.535c0.274,0.684,0.689,1.098,1.32,1.401c1.375,0.66,2.812,1.008,4.34,0.939   c1.564-0.068,2.007-1.04,1.937-2.561c-0.011-0.252-0.174-0.209-0.343-0.145c-0.424,0.158-0.859,0.27-1.308,0.329   c-1.81,0.234-3.268-0.442-4.471-1.746c-0.376-0.406-0.685-0.859-0.889-1.385c-0.191-0.49-0.611-0.808-0.999-1.133   c-0.634-0.532-1.308-1.015-1.951-1.536c-0.122-0.099-0.296-0.194-0.272-0.368c0.024-0.187,0.227-0.201,0.375-0.246   c2.433-0.718,4.788-0.558,7.067,0.599c0.984,0.5,1.941,1.035,2.795,1.858c0.006-0.601,0.079-1.128,0.146-1.655   c0.239-1.905,1.243-3.344,2.742-4.478c0.394-0.299,0.791-0.596,1.234-0.816c0.307-0.15,0.446-0.063,0.381,0.245   c-0.176,0.854,0.045,1.677,0.154,2.507c0.141,1.096,0.422,2.167,0.593,3.257c0.173,1.103-0.213,1.995-1.057,2.703   c-0.533,0.445-1.152,0.726-1.81,0.932c-0.501,0.157-0.512,0.155-0.426,0.656c0.13,0.752,0.144,1.498-0.041,2.244   c-0.32,1.307-1.176,2.144-2.374,2.658c-0.928,0.399-1.919,0.548-2.918,0.673c-1.192,0.15-2.374,0.055-3.559-0.08   c-0.454-0.052-0.503-0.015-0.488,0.46c0.061,2.197-0.257,4.344-0.827,6.457c-0.095,0.354-0.039,0.565,0.267,0.812   c0.9,0.723,1.455,1.722,2.007,2.713C49.547,53.651,49.547,53.741,49.539,53.829z" clip-rule="evenodd" fill-rule="evenodd"/><path fill="#FEE400" d="M11.233,19.658c0.584,0.792,0.817,1.717,0.947,2.663   c0.4,2.921,1.252,5.668,2.958,8.114c1.077,1.547,2.387,2.748,4.19,3.444c1.853,0.716,3.483,1.888,5.218,2.846   c2.916,1.612,5.79,3.295,8.458,5.304c0.604,0.454,1.185,0.935,1.746,1.438c0.617,0.554,1.06,1.195,1.338,1.992   c0.349,1.001,1.14,1.702,1.893,2.405c1.04,0.973,2.191,1.806,3.403,2.553c0.175,0.106,0.329,0.229,0.456,0.395   c1.237,1.573,2.477,3.146,3.714,4.72c0.025,0.032,0.039,0.075,0.06,0.113c-1.855,0.726-3.777,1.192-5.743,1.472   c-1.975,0.28-3.963,0.351-5.952,0.175c-2.874-0.254-5.667-0.882-8.31-2.051c-7.882-3.486-13.091-9.36-15.54-17.634   c-0.881-2.971-1.159-6.022-0.945-9.124C9.334,25.419,10.026,22.48,11.233,19.658z" clip-rule="evenodd" fill-rule="evenodd"/><path fill="#FEE400" d="M55.701,11.599c-3.222,1.98-6.469,3.91-10.219,4.759   c-1.18,0.267-2.385,0.311-3.583,0.403c-2.695,0.207-5.352,0.615-7.87,1.659c-0.862,0.357-1.647,0.847-2.346,1.471   c-1.621,1.449-1.841,3.225-1.231,5.203c0.244,0.791,0.617,1.52,1.051,2.227c-0.601-0.469-1.101-1.033-1.544-1.645   c-0.765-1.054-1.366-2.181-1.558-3.493c-0.172-1.173,0.192-2.175,0.96-3.043c0.662-0.749,1.482-1.292,2.35-1.773   c0.183-0.101,0.365-0.077,0.55-0.075c1.18,0.015,2.351-0.026,3.475-0.439c0.406-0.15,0.786-0.346,1.074-0.777   c-0.731-0.026-1.403-0.091-2.055-0.275c-0.365-0.104-0.714-0.249-0.972-0.545c-0.173-0.201-0.24-0.332,0.133-0.422   c1.179-0.287,2.366-0.558,3.457-1.121c0.621-0.32,1.225-0.663,1.7-1.189c0.183-0.203,0.338-0.42,0.381-0.739   c-1.645,0.366-3.284,0.528-4.939,0.515c-0.226-0.001-0.553,0.102-0.65-0.08c-0.096-0.182,0.182-0.388,0.298-0.581   c0.261-0.432,0.541-0.854,0.846-1.332c-0.771,0.199-1.478,0.389-2.187,0.563c-0.438,0.107-0.884,0.164-1.337,0.139   c-0.131-0.007-0.257-0.007-0.381-0.073c-0.093-0.048-0.2-0.102-0.211-0.201c-0.013-0.122,0.125-0.134,0.208-0.176   c0.408-0.208,0.816-0.414,1.248-0.631c-1.521-1.127-3.09-2.006-5.041-1.897c-0.397,0.022-0.793,0.063-1.146,0.219   c-0.564,0.25-1.526-0.356-1.719-0.809c-0.178-0.416-0.062-0.759,0.235-1.068c0.331-0.342,0.758-0.531,1.171-0.735   c0.411-0.204,0.776-0.449,1.046-0.822c1.266-0.395,2.532-0.792,3.836-1.051c2.504-0.498,5.025-0.632,7.567-0.441   c3.611,0.271,7.018,1.254,10.233,2.909C51.221,7.615,53.609,9.411,55.701,11.599z" clip-rule="evenodd" fill-rule="evenodd"/><path fill="#FEE400" d="M49.539,53.829c-0.45-0.761-0.885-1.532-1.447-2.218   c-0.276-0.338-0.55-0.688-0.971-0.854c-0.201-0.081-0.154-0.211-0.112-0.352c0.398-1.307,0.648-2.644,0.811-3.997   c0.125-1.026,0.153-2.055,0.122-3.088c-0.007-0.263-0.027-0.391,0.351-0.339c2.147,0.294,4.286,0.299,6.367-0.422   c1.986-0.688,2.956-2.263,2.724-4.358c-0.014-0.131-0.021-0.261-0.031-0.393c-0.02-0.256-0.219-0.564-0.066-0.745   c0.141-0.167,0.475-0.159,0.716-0.25c0.284-0.106,0.566-0.221,0.839-0.356c1.469-0.739,2.024-1.897,1.711-3.511   c-0.264-1.349-0.562-2.693-0.7-4.065c-0.051-0.524-0.038-1.038,0.067-1.565c-2.742,1.132-4.17,3.515-4.321,7.203   c-3.009-2.604-6.355-3.778-10.313-2.464c0.117,0.229,0.349,0.334,0.531,0.482c0.474,0.383,0.957,0.756,1.446,1.118   c0.653,0.479,1.118,1.079,1.516,1.803c1.163,2.12,3.545,3.383,6.271,2.364c0.147-0.055,0.293-0.112,0.479-0.184   c0.136,0.83,0.102,1.609-0.319,2.333c-0.311,0.534-0.854,0.703-1.405,0.742c-1.954,0.143-3.765-0.316-5.418-1.383   c-0.216-0.139-0.348-0.329-0.437-0.569c-1.214-3.298-3.344-5.726-6.684-6.986c-0.308-0.116-0.217-0.302-0.178-0.482   c0.298-1.483,1.349-2.289,2.965-2.211c0.868,0.042,1.728,0.189,2.592,0.282c2.36,0.251,4.721,0.426,7.048-0.22   c1.109-0.309,2.108-0.817,2.805-1.783c0.196-0.268,0.371-0.548,0.424-0.899c-1.151-0.133-2.331-0.074-3.451-0.779   c0.771-0.147,1.448-0.259,2.114-0.406c2.392-0.528,4.551-1.512,6.312-3.266c0.685,2.103,1.079,4.259,1.232,6.466   c0.231,3.338-0.133,6.604-1.136,9.789c-2.103,6.664-6.183,11.771-12.158,15.374C49.732,53.7,49.637,53.766,49.539,53.829z" clip-rule="evenodd" fill-rule="evenodd"/><path fill="#FEE400" d="M20.503,8.162c0.432,0.387,0.867,0.771,1.4,1.016   c0.182,0.084,0.14,0.231,0.149,0.369c0.043,0.636,0.09,1.272,0.125,1.909c0.013,0.231,0.117,0.317,0.347,0.335   c0.969,0.081,1.934,0.192,2.902,0.262c0.313,0.023,0.32,0.142,0.24,0.382c-0.216,0.646-0.501,0.852-1.185,0.838   c-0.688-0.012-1.295-0.265-1.882-0.666c-0.277,0.933-0.589,1.824-1.125,2.678c0.61-0.112,1.154-0.27,1.722-0.261   c0.861,0.015,1.231,0.562,0.924,1.371c-0.533,1.4-1.749,2.198-3.226,1.903c-2.353-0.47-4.201,0.341-5.792,1.994   c-0.098,0.102-0.174,0.236-0.348,0.276c-0.76-1.354-1.433-2.738-1.573-4.319c-0.006-0.069-0.039-0.137-0.059-0.204   c1.847-3.02,4.226-5.547,7.074-7.639C20.302,8.327,20.401,8.243,20.503,8.162z" clip-rule="evenodd" fill-rule="evenodd"/><path fill="#F9E10A" d="M26.617,10.099c0.006,0.346-0.285,0.643-0.632,0.642   c-0.327-0.001-0.611-0.274-0.626-0.601c-0.016-0.344,0.267-0.656,0.606-0.669C26.299,9.458,26.611,9.758,26.617,10.099z" clip-rule="evenodd" fill-rule="evenodd"/></svg>