<svg xmlns="http://www.w3.org/2000/svg" version="1.0" width="70.000000px" height="70.000000px" viewBox="0 0 70.000000 70.000000" contentScriptType="text/ecmascript" contentStyleType="text/css" preserveAspectRatio="xMidYMid meet" zoomAndPan="magnify"><g fill="#000000" transform="translate(0.000000,70.000000) scale(0.100000,-0.100000)" stroke="none"><path d="M287 693 c-10 -10 -217 -433 -217 -444 0 -5 69 -9 161 -9 l161 0 44 45 c39 41 48 45 90 45 57 0 97 -23 118 -67 34 -71 8 -141 -66 -179 -55 -28 -130 3 -163 67 l-16 29 -182 0 -183 0 -17 -29 c-11 -19 -17 -50 -17 -90 l0 -61 350 0 350 0 0 190 0 190 -131 0 -131 0 -35 -30 c-55 -49 -127 -39 -158 20 -24 46 -19 87 14 121 45 44 93 41 142 -11 l38 -40 131 0 130 0 0 130 0 130 -203 0 c-112 0 -207 -3 -210 -7z"/><path d="M297 452 c-22 -24 -21 -45 1 -65 24 -22 45 -21 65 1 22 24 21 45 -1 65 -24 22 -45 21 -65 -1z"/><path d="M502 244 c-27 -19 -28 -55 -3 -78 25 -23 49 -18 74 16 l21 28 -24 25 c-27 29 -38 31 -68 9z"/></g></svg>