<svg xmlns="http://www.w3.org/2000/svg" id="Layer_1" width="69.46" height="69.46" viewBox="0 0 69.46 69.46"><defs><style>.cls-1{fill:none}.cls-2{fill:#0a3370}.cls-3{fill:#f78d27}.cls-4{clip-path:url(#clip-path)}.cls-5{fill:#fff;fill-rule:evenodd}</style><clipPath id="clip-path" transform="translate(-0.04 -0.04)"><rect width="69.46" height="69.46" x="-.5" y="-.5" class="cls-1"/></clipPath></defs><title/><rect width="69.46" height="69.46" class="cls-2"/><polygon points="0 0 0 50.47 69.46 18.45 69.46 0 0 0" class="cls-3"/><g class="cls-4"><path d="M18.27,51.1l-.73-4.36c-.22-1.33-.43-2.66-.67-4a1.43,1.43,0,0,0-.34-.67c-1.84-2-3.7-4.06-5.61-6.16a14.48,14.48,0,0,0,1.58-.79,1.57,1.57,0,0,1,1.87,0c1.91,1.11,3.87,2.13,5.81,3.17a.79.79,0,0,0,.64,0Q26.75,35.19,32.66,32l.19-.13L16.61,15.49c1.38-.67,2.71-1.33,4.05-2,.14-.06.39,0,.55.14L32,19.86Q37.4,23,42.83,26.12a.82.82,0,0,0,.89,0q3.92-2,7.86-3.94a5.85,5.85,0,0,1,3.89-.75,2.55,2.55,0,0,1,1.73,3.78,4.76,4.76,0,0,1-2,1.9c-1.79.94-3.6,1.82-5.41,2.71-1.19.58-2.39,1.16-3.6,1.7a.72.72,0,0,0-.42.64q-.84,5.08-1.69,10.16-1.24,7.43-2.5,14.85a.72.72,0,0,1-.32.47c-1.09.55-2.2,1.06-3.4,1.63L35.13,36.54c-.21.07-.38.12-.54.19l-12,5a.67.67,0,0,0-.48.58c-.39,2.37-.81,4.73-1.2,7.09a.75.75,0,0,1-.49.64c-.69.31-1.37.66-2.12,1" class="cls-5" transform="translate(-0.04 -0.04)"/></g></svg>