<svg xmlns="http://www.w3.org/2000/svg" id="Layer_1" width="70" height="70" x="0" y="0" enable-background="new 0 0 70 70" version="1.1" viewBox="0 0 70 70" xml:space="preserve"><metadata/><rect width="70" height="70" fill="none"/><path fill="#273A81" d="M39.1,8C22.7,8,9.5,21.3,9.5,37.6C9.5,53.9,22.8,67.2,39.1,67.2C55.5,67.2,68.7,53.9,68.7,37.6 C68.7,21.3,55.5,8,39.1,8z M39.1,65.7c-15.5,0-28-12.5-28-28s12.5-28,28-28c15.5,0,28,12.5,28,28S54.6,65.7,39.1,65.7z"/><polygon fill="#EA262A" points="1.1 41.9 58.5 41.9 26.1 3.5 12 3.5 26.9 39.2"/></svg>