<svg xmlns="http://www.w3.org/2000/svg" version="1.1" id="Layer_1" x="0px" y="0px" width="70px" height="70px" viewBox="0 0 70 70" enable-background="new 0 0 70 70" xml:space="preserve"><path fill="#1497D4" d="M0.5,43.146C1.095,42.269,1.89,41.632,2.683,41   c3.049-2.432,6.606-3.607,10.41-4.117c6.043-0.811,11.975-0.033,17.833,1.42c9.885,2.451,19.133,6.393,27.627,12.046   c0.998,0.664,1.933,1.425,2.905,2.128c0.415,0.301,0.337,0.478-0.092,0.678c-1.674,0.781-3.441,0.938-5.249,0.801   c-4.821-0.373-9.342-1.969-13.871-3.498c-6.581-2.225-13.093-4.66-19.856-6.309c-4.891-1.19-9.833-1.984-14.891-1.837   c-2.13,0.062-4.233,0.331-6.315,0.781C0.982,43.137,0.783,43.256,0.5,43.146z" clip-rule="evenodd" fill-rule="evenodd"/><path fill="#1497D4" d="M10.755,32.328c0.481-0.581,1.006-1.098,1.571-1.574   c2.729-2.312,5.945-3.489,9.43-4.038c3.551-0.56,7.103-0.454,10.643,0.052c10.182,1.454,19.567,5.142,28.424,10.265   c1.943,1.124,3.811,2.372,5.556,3.793c0.497,0.405,0.491,0.495-0.12,0.76c-1.46,0.632-2.996,0.792-4.566,0.674   c-4.248-0.319-8.24-1.683-12.232-3.023c-6.38-2.144-12.682-4.533-19.251-6.077c-3.279-0.772-6.59-1.314-9.963-1.512   c-3.052-0.177-6.051,0.071-9.029,0.706C11.087,32.38,10.953,32.445,10.755,32.328z" clip-rule="evenodd" fill-rule="evenodd"/><path fill="#1497D4" d="M22.081,23.158c0.482-0.827,1.132-1.282,1.741-1.764   c2.371-1.875,5.131-2.794,8.086-3.185c5.025-0.665,9.935,0.078,14.778,1.351c7.136,1.875,13.834,4.775,20.032,8.794   c0.924,0.599,1.785,1.292,2.676,1.94c0.354,0.258,0.312,0.432-0.086,0.605c-1.183,0.517-2.422,0.668-3.692,0.59   c-4.284-0.264-8.259-1.762-12.261-3.127c-5.831-1.99-11.621-4.111-17.707-5.244c-3.032-0.564-6.088-0.795-9.166-0.639   C25.049,22.553,23.632,22.796,22.081,23.158z" clip-rule="evenodd" fill-rule="evenodd"/></svg>