<svg xmlns="http://www.w3.org/2000/svg" version="1.1" id="Layer_1" x="0px" y="0px" width="70px" height="70px" viewBox="0 0 70 70" enable-background="new 0 0 70 70" xml:space="preserve"><path fill="#E12827" d="M35.08,68.168C16.734,68.172,1.875,53.306,1.875,34.947   c0-18.357,14.862-33.203,33.234-33.197c18.346,0.006,33.192,14.861,33.188,33.209C68.291,53.318,53.441,68.166,35.08,68.168z" clip-rule="evenodd" fill-rule="evenodd"/><path fill="#FFFFFF" d="M22.377,34.071c-0.936,0.204-1.814,0.396-2.695,0.584   c-0.156,0.033-0.183,0.136-0.213,0.268c-0.32,1.444-0.502,2.908-0.679,4.373c-0.069,0.567-0.107,1.14-0.195,1.704   c-0.088,0.562-0.364,0.812-0.895,0.885c-0.47,0.068-0.871-0.138-1.101-0.587c-0.326-0.64-0.314-1.328-0.248-2.018   c0.125-1.289,0.447-2.542,0.732-3.802c0.012-0.053,0.024-0.105,0.047-0.21c-0.527,0.136-1.01,0.255-1.49,0.389   c-0.552,0.152-1.098,0.317-1.646,0.477c-0.135,0.037-0.241,0.094-0.316,0.232c-1.423,2.69-2.763,5.418-3.778,8.293   c-0.128,0.364-0.204,0.749-0.332,1.115c-0.301,0.867-0.954,1.059-1.69,0.503c-0.597-0.448-0.788-1.063-0.526-1.795   c0.788-2.213,1.794-4.328,2.872-6.412c0.119-0.232,0.241-0.46,0.398-0.757c-0.899,0.33-1.706,0.694-2.487,1.113   c-0.227,0.123-0.456,0.213-0.719,0.178c-0.266-0.037-0.475-0.16-0.616-0.39c-0.428-0.697-0.19-1.539,0.553-1.887   c0.976-0.455,1.986-0.818,3.007-1.155c0.412-0.135,0.82-0.302,1.244-0.386c0.447-0.088,0.688-0.349,0.914-0.722   c1.877-3.121,3.854-6.174,6.152-9.007c0.462-0.569,0.956-1.112,1.499-1.605c0.205-0.186,0.42-0.355,0.672-0.473   c0.388-0.183,0.633-0.111,0.82,0.272c0.166,0.341,0.352,0.664,0.594,0.958c0.225,0.272,0.282,0.585,0.203,0.936   c-0.177,0.787-0.509,1.517-0.834,2.246c-0.773,1.745-1.208,3.589-1.675,5.485c0.497-0.074,0.962-0.15,1.429-0.214   c0.828-0.112,1.656-0.218,2.485-0.323c0.219-0.028,0.434-0.008,0.64,0.081c0.418,0.182,0.585,0.525,0.49,0.974   c-0.053,0.253-0.186,0.467-0.308,0.685c-0.625,1.106-1.232,2.22-1.738,3.385c-0.082,0.188-0.154,0.382-0.208,0.579   c-0.038,0.139-0.116,0.327,0.021,0.415c0.152,0.102,0.297-0.05,0.423-0.144c0.083-0.059,0.158-0.133,0.23-0.205   c1.475-1.505,2.622-3.228,3.478-5.149c0.06-0.136,0.109-0.277,0.144-0.421c0.17-0.702,1.249-1.193,1.892-0.856   c0.22,0.115,0.337,0.295,0.33,0.555c-0.005,0.197-0.067,0.377-0.151,0.584c0.133,0.003,0.175-0.083,0.229-0.141   c0.311-0.338,0.639-0.656,0.993-0.95c0.751-0.62,1.493-0.264,1.942,0.241c0.28,0.312,0.255,0.605-0.022,0.918   c-0.302,0.34-0.694,0.549-1.126,0.613c-1.522,0.224-2.52,1.131-3.302,2.384c-0.719,1.151-1.272,2.352-1.367,3.724   c-0.016,0.231-0.119,0.38-0.319,0.487c-0.304,0.162-0.6,0.339-0.952,0.369c-0.433,0.038-0.689-0.15-0.816-0.566   c-0.137-0.448-0.006-0.881,0.058-1.327c-0.34,0.414-0.649,0.847-1.005,1.243c-0.291,0.32-0.588,0.643-0.946,0.894   c-0.176,0.125-0.362,0.247-0.559,0.333c-0.812,0.353-1.518-0.067-1.604-0.947c-0.096-0.967,0.222-1.854,0.563-2.729   c0.386-0.993,0.852-1.948,1.324-2.901C22.245,34.356,22.296,34.244,22.377,34.071z" clip-rule="evenodd" fill-rule="evenodd"/><path fill="#FFFFFF" d="M34.438,37.298c-0.742,0.285-1.459,0.622-2.162,0.993   c-0.162,0.086-0.32,0.182-0.489,0.251c-0.397,0.158-0.852,0.004-1.017-0.386c-0.292-0.688-0.282-1.502,0.622-1.898   c1.394-0.61,2.816-1.142,4.278-1.562c0.311-0.09,0.5-0.249,0.665-0.523c1.848-3.069,3.787-6.079,6.031-8.88   c0.572-0.715,1.162-1.417,1.879-1.997c0.124-0.101,0.255-0.197,0.394-0.274c0.445-0.251,0.721-0.169,0.946,0.292   c0.138,0.291,0.28,0.577,0.5,0.815c0.301,0.328,0.349,0.71,0.236,1.122c-0.26,0.975-0.703,1.882-1.081,2.812   c-0.615,1.511-0.962,3.097-1.365,4.668c-0.009,0.041-0.009,0.083-0.017,0.143c0.479-0.045,0.931-0.146,1.386-0.1   c0.295,0.03,0.659-0.003,0.748,0.397c0.079,0.369-0.186,0.842-0.538,0.987c-0.478,0.198-0.991,0.283-1.498,0.361   c-0.416,0.064-0.572,0.238-0.655,0.655c-0.366,1.866-0.582,3.752-0.788,5.639c-0.073,0.683-0.356,1.011-0.941,1.078   c-0.541,0.062-0.971-0.23-1.192-0.826c-0.235-0.633-0.18-1.287-0.106-1.935c0.141-1.217,0.396-2.414,0.69-3.603   c0.065-0.257,0.042-0.32-0.237-0.237c-0.922,0.269-1.849,0.517-2.774,0.771c-0.16,0.044-0.277,0.117-0.362,0.276   c-1.476,2.738-2.787,5.555-3.845,8.485c-0.124,0.343-0.19,0.705-0.321,1.047c-0.28,0.724-0.797,0.895-1.478,0.513   c-0.683-0.386-0.961-1.055-0.728-1.813c0.488-1.576,1.217-3.054,1.926-4.539c0.409-0.854,0.841-1.698,1.264-2.551   C34.432,37.43,34.479,37.392,34.438,37.298z" clip-rule="evenodd" fill-rule="evenodd"/><path fill="#FFFFFF" d="M54.342,37.207c-0.592,0.771-1.214,1.483-1.936,2.104   c-0.305,0.266-0.628,0.496-1.018,0.625c-0.831,0.274-1.473-0.166-1.526-1.039c-0.045-0.741,0.179-1.426,0.445-2.099   c0.398-1.01,0.915-1.967,1.434-2.921c0.382-0.703,0.754-1.407,1.033-2.164c0.158-0.435,0.639-0.508,1.049-0.604   c0.099-0.023,0.206-0.012,0.309-0.002c0.734,0.072,1.064,0.649,0.721,1.301c-0.325,0.616-0.669,1.224-1.027,1.822   c-0.438,0.739-0.861,1.483-1.237,2.253c-0.099,0.205-0.166,0.424-0.233,0.643c-0.027,0.084-0.05,0.19,0.029,0.261   c0.1,0.086,0.202,0.01,0.287-0.036c0.241-0.133,0.443-0.324,0.622-0.531c0.976-1.127,1.828-2.35,2.769-3.503   c0.831-1.015,1.687-1.997,2.797-2.721c0.326-0.213,0.671-0.393,1.055-0.484c0.611-0.146,1.136,0.095,1.373,0.678   c0.139,0.35,0.351,0.568,0.703,0.683c0.15,0.049,0.289,0.138,0.42,0.23c0.209,0.147,0.278,0.348,0.201,0.602   c-0.073,0.233-0.199,0.437-0.324,0.643c-0.453,0.754-0.889,1.519-1.243,2.328c-0.089,0.198-0.168,0.402-0.176,0.622   c-0.01,0.32,0.202,0.462,0.496,0.33c0.254-0.114,0.45-0.311,0.638-0.515c0.347-0.383,0.644-0.802,0.925-1.234   c0.075-0.114,0.152-0.233,0.261-0.318c0.178-0.145,0.394-0.215,0.598-0.065c0.206,0.148,0.115,0.349,0.034,0.529   c-0.596,1.334-1.489,2.435-2.656,3.308c-0.426,0.32-0.909,0.533-1.455,0.549c-0.59,0.017-0.893-0.194-1.066-0.759   c-0.115-0.368-0.143-0.374-0.424-0.09c-0.324,0.326-0.64,0.656-1.006,0.934c-0.211,0.162-0.435,0.298-0.679,0.401   c-1.151,0.475-2.121-0.136-2.188-1.38C54.338,37.46,54.342,37.335,54.342,37.207z" clip-rule="evenodd" fill-rule="evenodd"/><path fill="#FFFFFF" d="M49.38,31.92c0.495-0.002,0.912,0.054,1.288,0.282   c0.522,0.319,0.647,0.734,0.39,1.288c-0.106,0.232-0.255,0.436-0.435,0.613c-0.275,0.269-0.592,0.233-0.81-0.083   c-0.038-0.056-0.071-0.117-0.111-0.173c-0.457-0.665-1.363-0.594-1.704,0.148c-0.229,0.498-0.208,1.005,0.081,1.479   c0.129,0.214,0.293,0.409,0.451,0.605c0.83,1.049,0.857,2.284,0.067,3.38c-0.775,1.074-2.508,1.692-3.767,1.346   c-0.357-0.098-0.687-0.253-0.962-0.505c-0.457-0.415-0.562-0.847-0.326-1.418c0.107-0.261,0.239-0.519,0.384-0.766   c0.202-0.354,0.424-0.375,0.701-0.07c0.352,0.39,0.754,0.698,1.261,0.856c0.237,0.075,0.475,0.079,0.702-0.034   c0.337-0.163,0.436-0.431,0.262-0.764c-0.098-0.191-0.226-0.374-0.364-0.538c-0.644-0.77-0.788-1.644-0.524-2.582   c0.312-1.106,0.934-2.003,1.924-2.623C48.364,32.062,48.881,31.896,49.38,31.92z" clip-rule="evenodd" fill-rule="evenodd"/><path fill="#FFFFFF" d="M25.29,30.853c-0.744,0.006-1.178-0.574-0.972-1.296   c0.19-0.667,0.904-1.233,1.598-1.267c0.746-0.037,1.21,0.521,1.038,1.248C26.789,30.237,26.017,30.847,25.29,30.853z" clip-rule="evenodd" fill-rule="evenodd"/><path fill="#FFFFFF" d="M55.599,27.312c0.718-0.006,1.151,0.542,0.978,1.233   c-0.172,0.673-0.863,1.26-1.556,1.32c-0.813,0.071-1.309-0.537-1.073-1.317C54.153,27.862,54.878,27.32,55.599,27.312z" clip-rule="evenodd" fill-rule="evenodd"/><path fill="#E12828" d="M15.12,33.822c1.417-2.441,2.891-4.77,4.609-6.95   c-0.058,0.152-0.118,0.303-0.176,0.455c-0.701,1.838-1.296,3.71-1.794,5.612c-0.071,0.27-0.196,0.389-0.465,0.438   C16.588,33.506,15.887,33.663,15.12,33.822z" clip-rule="evenodd" fill-rule="evenodd"/><path fill="#E12828" d="M39.021,33.799c1.419-2.431,2.886-4.755,4.582-6.933   c-0.293,0.824-0.596,1.645-0.879,2.473c-0.407,1.199-0.766,2.415-1.095,3.638c-0.057,0.21-0.135,0.317-0.368,0.36   C40.534,33.467,39.809,33.634,39.021,33.799z" clip-rule="evenodd" fill-rule="evenodd"/><path fill="#E12828" d="M56.604,36.773c0.019-0.076,0.038-0.215,0.091-0.338   c0.624-1.5,1.434-2.881,2.579-4.044c0.2-0.204,0.42-0.391,0.679-0.517c0.109-0.051,0.229-0.125,0.354-0.023   c0.115,0.097,0.081,0.23,0.069,0.351c-0.01,0.078-0.033,0.157-0.065,0.231c-0.65,1.546-1.46,2.993-2.63,4.215   c-0.181,0.191-0.38,0.367-0.618,0.482C56.764,37.271,56.598,37.159,56.604,36.773z" clip-rule="evenodd" fill-rule="evenodd"/></svg>