<svg xmlns="http://www.w3.org/2000/svg" version="1.1" width="70px" height="70px" viewBox="0 0 70 70"><g id="surface1"><path d="M 34.835938 2.519531 C 44.175781 2.519531 51.746094 10.089844 51.746094 19.425781 C 51.746094 21.457031 51.332031 23.539062 50.675781 25.351562 L 41.5 21.9375 C 41.800781 21.152344 41.957031 20.3125 41.957031 19.425781 C 41.957031 15.488281 38.773438 12.292969 34.835938 12.292969 C 30.898438 12.292969 27.707031 15.488281 27.707031 19.425781 C 27.707031 20.765625 28.085938 22.023438 28.742188 23.097656 C 28.757812 23.121094 28.765625 23.164062 28.792969 23.214844 C 29.480469 24.25 30.320312 25.171875 31.269531 25.949219 C 31.605469 26.265625 32.191406 26.578125 32.925781 27.101562 C 38.542969 31.046875 45.839844 32.726562 53.1875 33.164062 C 53.554688 33.234375 53.851562 33.257812 54.066406 33.285156 C 54.191406 33.300781 54.316406 33.308594 54.429688 33.324219 C 54.570312 33.339844 54.695312 33.363281 54.828125 33.378906 C 54.972656 33.402344 55.085938 33.410156 55.21875 33.4375 C 55.347656 33.457031 55.476562 33.472656 55.597656 33.5 C 55.738281 33.523438 55.875 33.554688 56.007812 33.585938 C 56.132812 33.605469 56.257812 33.636719 56.378906 33.660156 C 56.511719 33.699219 56.652344 33.734375 56.789062 33.769531 C 56.914062 33.8125 57.03125 33.828125 57.15625 33.871094 C 57.300781 33.917969 57.441406 33.953125 57.574219 34.007812 C 57.6875 34.039062 57.808594 34.074219 57.921875 34.113281 C 58.066406 34.160156 58.207031 34.214844 58.351562 34.277344 C 58.40625 34.296875 58.453125 34.320312 58.507812 34.328125 C 58.539062 34.34375 58.574219 34.355469 58.605469 34.371094 C 58.71875 34.410156 58.835938 34.453125 58.949219 34.492188 C 59.09375 34.5625 59.25 34.625 59.394531 34.6875 C 59.492188 34.730469 59.59375 34.769531 59.695312 34.8125 C 59.867188 34.882812 60.027344 34.972656 60.175781 35.054688 C 60.269531 35.089844 60.359375 35.132812 60.449219 35.171875 C 60.683594 35.304688 60.9375 35.433594 61.175781 35.570312 C 61.464844 35.738281 61.746094 35.914062 62.023438 36.097656 C 62.09375 36.15625 62.179688 36.207031 62.261719 36.265625 C 62.453125 36.390625 62.644531 36.53125 62.828125 36.664062 C 62.921875 36.730469 62.996094 36.792969 63.082031 36.859375 C 63.273438 37 63.453125 37.152344 63.640625 37.300781 C 63.710938 37.359375 63.773438 37.417969 63.84375 37.476562 C 64.078125 37.683594 64.3125 37.898438 64.542969 38.121094 C 69.945312 43.394531 71.3125 51.839844 67.367188 58.671875 C 62.695312 66.769531 52.355469 69.53125 44.269531 64.859375 C 42.503906 63.851562 40.957031 62.519531 39.722656 61.054688 L 47.257812 54.792969 C 47.78125 55.421875 48.417969 55.953125 49.160156 56.390625 C 52.566406 58.367188 56.929688 57.195312 58.894531 53.789062 C 60.867188 50.367188 59.691406 46.011719 56.285156 44.035156 C 55.117188 43.363281 53.847656 43.074219 52.589844 43.109375 C 52.546875 43.09375 52.511719 43.09375 52.457031 43.09375 C 51.21875 43.171875 50.003906 43.4375 48.847656 43.875 C 48.417969 44.003906 47.847656 44.339844 47.027344 44.726562 C 39.65625 48.285156 35.699219 53.101562 31.644531 59.246094 C 31.402344 59.535156 31.226562 59.773438 31.101562 59.945312 C 31.027344 60.046875 30.957031 60.148438 30.878906 60.246094 C 30.808594 60.355469 30.722656 60.453125 30.640625 60.5625 C 30.558594 60.664062 30.480469 60.765625 30.394531 60.882812 C 30.316406 60.976562 30.230469 61.074219 30.148438 61.164062 C 30.054688 61.273438 29.964844 61.375 29.863281 61.476562 C 29.785156 61.578125 29.695312 61.671875 29.613281 61.761719 C 29.511719 61.863281 29.410156 61.964844 29.3125 62.0625 C 29.230469 62.152344 29.136719 62.238281 29.046875 62.328125 C 28.945312 62.429688 28.839844 62.527344 28.726562 62.628906 C 28.632812 62.703125 28.546875 62.792969 28.445312 62.871094 C 28.402344 62.921875 28.351562 62.957031 28.296875 63.007812 C 28.289062 63.015625 28.277344 63.023438 28.269531 63.03125 C 28.164062 63.128906 28.039062 63.222656 27.929688 63.320312 C 27.828125 63.390625 27.742188 63.480469 27.652344 63.554688 C 27.515625 63.65625 27.386719 63.746094 27.261719 63.847656 C 27.179688 63.90625 27.089844 63.980469 26.996094 64.039062 C 26.847656 64.144531 26.6875 64.25 26.542969 64.351562 C 26.46875 64.40625 26.386719 64.457031 26.3125 64.507812 C 26.074219 64.65625 25.839844 64.808594 25.597656 64.945312 C 25.308594 65.113281 25.015625 65.261719 24.730469 65.40625 C 24.640625 65.457031 24.550781 65.488281 24.457031 65.542969 C 24.246094 65.640625 24.035156 65.734375 23.824219 65.824219 C 23.722656 65.867188 23.636719 65.914062 23.527344 65.953125 C 23.316406 66.042969 23.089844 66.128906 22.863281 66.203125 C 22.789062 66.234375 22.707031 66.265625 22.617188 66.300781 C 22.320312 66.398438 22.015625 66.492188 21.714844 66.574219 L 21.710938 66.578125 C 14.449219 68.617188 6.445312 65.585938 2.496094 58.742188 C -2.171875 50.664062 0.597656 40.3125 8.6875 35.648438 C 10.445312 34.628906 12.304688 33.953125 14.1875 33.617188 L 15.796875 43.292969 C 15.035156 43.441406 14.292969 43.714844 13.578125 44.117188 C 10.164062 46.089844 9.003906 50.441406 10.972656 53.863281 C 12.929688 57.265625 17.304688 58.441406 20.710938 56.464844 C 21.878906 55.789062 22.773438 54.832031 23.371094 53.734375 C 23.402344 53.703125 23.425781 53.667969 23.453125 53.625 C 24 52.507812 24.300781 51.25 24.492188 50.027344 C 24.5625 49.570312 24.621094 48.980469 24.71875 48.09375 C 25.277344 42.738281 24.375 35.335938 19.882812 27.515625 C 18.695312 25.019531 18.347656 23.203125 18.3125 23.058594 C 18.28125 22.941406 18.261719 22.828125 18.25 22.699219 C 18.210938 22.550781 18.1875 22.398438 18.15625 22.25 C 18.144531 22.132812 18.125 22.023438 18.105469 21.90625 C 18.082031 21.738281 18.066406 21.578125 18.042969 21.421875 C 18.023438 21.304688 18.015625 21.203125 18.007812 21.085938 C 17.984375 20.914062 17.972656 20.722656 17.964844 20.539062 C 17.957031 20.453125 17.945312 20.355469 17.941406 20.265625 C 17.933594 19.988281 17.921875 19.714844 17.921875 19.429688 C 17.921875 19.105469 17.9375 18.761719 17.953125 18.4375 C 17.953125 18.339844 17.96875 18.242188 17.972656 18.140625 C 17.988281 17.910156 18.011719 17.675781 18.042969 17.441406 C 18.054688 17.335938 18.0625 17.230469 18.082031 17.132812 C 18.105469 16.890625 18.144531 16.664062 18.1875 16.4375 C 18.203125 16.351562 18.222656 16.261719 18.238281 16.171875 C 18.296875 15.863281 18.363281 15.558594 18.449219 15.25 L 18.449219 15.242188 C 20.3125 7.921875 26.9375 2.519531 34.835938 2.519531 " style=" stroke:none;fill-rule:nonzero;fill:rgb(3.921569%,50.588238%,32.941177%);fill-opacity:1;"/></g></svg>