<svg xmlns="http://www.w3.org/2000/svg" version="1.1" id="Layer_1" x="0px" y="0px" width="70px" height="70px" viewBox="0 0 70 70" enable-background="new 0 0 70 70" xml:space="preserve"><metadata/><rect width="70" fill="none" height="70"/><path fill="#263B7E" d="M51,59.7c0.2-0.3,0-0.7,0.1-1c0.2,0,0-0.2,0.101-0.2c0-0.2,0.3-0.5,0-0.5c-0.101-0.3,0.1-0.7,0.3-0.9   c0.3,0.2-0.2,0.4-0.1,0.7c0.199,0.2-0.101,0.4,0,0.601c0.199,0.1-0.101,0.199,0,0.3c-0.101,0.1,0.1,0.2,0.199,0.2   c0,0.1,0.101,0.399-0.1,0.399c0,0.2,0,0.3,0.2,0.4c-0.101,0.5,0.1,1,0,1.6c0.1,0.101,0,0.2,0.2,0.3c0.3,0.301-0.301,0.2-0.2,0.4   c0.1,0.3-0.2,0.2-0.3,0.2C51.2,62.6,51.6,62.8,51.8,63.1c0.101,0.301,0.5,0.5,0.5,0.801C52.5,64,52.8,64.3,53,64   c0.2,0.3,0.4,0.6,0.5,1c0.1,0.3,0.2,0.7,0.4,1c0.699-0.1,0.1-0.9,0.199-1.4c0,0,0-0.1,0.101-0.1c0.399-0.4,0.1-1,0.1-1.4   C54.5,62.5,54,61.9,54.4,61.4C54.6,61.6,54.5,61.9,54.6,62.1c0.101,0.601,0.301,1.2,0.5,1.7c-0.199,0.101-0.3,0.3-0.6,0.3   c-0.1,0.2,0.1,0.101,0.1,0.301c0.101,0.199,0.2,0.3,0.5,0.3c0,0.2,0,0.3,0,0.5c0.4,0.2,0.2,0.7,0.4,1c0,0.2,0.3,0.1,0.2,0.3   c-0.101,0.1,0.1,0.1,0.1,0.2c0.2-0.101,0.5,0,0.601-0.2c0.1-0.1,0-0.2-0.101-0.3c0.2-0.2,0-0.4-0.1-0.601   C56.5,65.1,56,64.7,56.1,64.2c-0.3-0.2,0.101-0.601,0-0.9c0.301,0.2-0.1,0.7,0.2,0.8c0.2,0.4,0.2,0.9,0.601,1.2   C57.3,65.4,56.8,66,57.2,66c0.1,0.3,0.3,0.4,0.399,0.6C57.5,66.7,57.5,66.7,57.4,66.8C57.3,67,57.5,67.1,57.6,67.2   c0,0.5,0.4,0.899,0.5,1.399c0.101,0,0.4,0.101,0.301-0.1c0-0.7-0.2-1.9-0.101-2.6c-0.1-0.101,0-0.5-0.1-0.5c0-0.101,0-0.101,0-0.2   C57.9,64.8,58.1,64.1,57.9,63.6c-0.4-0.699-0.5-1.5-0.7-2.3c-0.3-0.5-0.3-1.2-0.7-1.6c-0.1-0.5-0.4-1-0.6-1.601   C55.6,57.8,55.5,57.3,55.3,56.9C55,56,54.4,55.1,54.3,54.2c-0.7-1.3-1.1-2.601-2.1-3.8c0,0,0,0,0-0.101c-0.4-0.5-0.5-1-0.7-1.6   c-1.2-1.8-2.6-3.2-4.2-4.7c-0.5-0.2-1.1-0.6-1-0.6c-1.8-1.301-3.399-3-4.7-4.601c-1-1.7-2.6-3.2-2.3-5.5   c0.101-0.2,0.101-0.5,0.101-0.6c0.1-0.1,0.1-0.2,0.199-0.3c0-0.8,0.5-1.4,0.601-2.2c0.399-0.7,0.7-1.5,1.1-2.2   c0.2-0.4,0.601-0.7,0.7-1c0.6-0.3,1.2-0.6,1.6-1c0.101-0.1,0.301-0.3,0.4-0.5c-0.1-0.2-0.3-0.2-0.5-0.2c-0.9,0.4-1.6,1-2.6,1.4   c-0.301,0.1-0.601,0-0.801-0.2c-0.699,0.1-1.3,0.1-1.8,0.5c-0.2,0-0.5,0.2-0.399,0.4c0.199,0.1,0.3,0.1,0.5,0.1c0,0,0,0.1,0,0.2   c-0.101,0.1-0.101,0.1-0.2,0.2c-0.2,0-0.3-0.2-0.4-0.2c-0.2-0.4-0.2,0.3-0.5,0.1c0,0.1,0.101,0.1,0.101,0.2   c0.199,0.2,0.399-0.2,0.5,0c0.1,0.3-0.2,0-0.2,0.2c0.2,0,0.2,0.2,0.399,0.3c0,0.1,0,0.2,0,0.2c-0.1-0.1-0.1,0.1-0.199,0   c-0.301,0.1-0.101-0.4-0.5-0.4c-0.2,0.3-0.2-0.3-0.4-0.1c0,0.1,0,0.1,0,0.1c0,0.1-0.1,0.2,0,0.2c0,0.1-0.1,0.1-0.2,0.1   c-0.1,0-0.1,0-0.1-0.1c-0.101,0-0.2,0.1-0.3,0.1c0,0.1,0,0.2,0,0.2s0.1,0.3,0,0.2c-0.2-0.2-0.5,0.1-0.4,0.3   c-0.1,0.2-0.3,0.1-0.4,0.2c0.101,0.6,0.601,0.1,0.801,0.2c0.1,0.2-0.2,0.1-0.2,0.3c-0.2,0-0.4,0.5-0.601,0.2c-0.1,0-0.2,0-0.2,0.2   c-0.3,0.3-0.2-0.3-0.4-0.4c0-0.1-0.3-0.1-0.2,0c0,0.2-0.2,0.2-0.3,0.2c0,0.2,0.2,0.2,0.3,0.4c0.1,0.1,0.1,0.2,0,0.3   c-0.2,0-0.3-0.2-0.4-0.4c-0.3-0.2-0.2,0.3-0.5,0.3c-0.2,0-0.5,0-0.5,0.2c-0.1,0-0.3,0-0.3-0.1c-0.3,0-0.3,0.3-0.4,0.5   c-0.1-0.1-0.3,0-0.4-0.2c0-0.2,0.2-0.3,0.4-0.4c0-0.4,0.5-0.3,0.6-0.6c0.3,0.2,0.4-0.3,0.6-0.4c0-0.3,0.3-0.1,0.4-0.3   c0.1-0.1,0.1-0.2,0-0.4c-1.1-1.1-2.4-2.3-3.1-3.7c-1.1-1.4-1.5-3-2.2-4.5c-0.2-0.7-0.5-1.3-0.7-2c-0.1-0.3-0.2-0.5-0.3-0.8   c-0.3-1-0.7-1.8-1.3-2.6c-0.2-0.2-0.3-0.5-0.5-0.6c-0.7-0.8-1.6-1.4-2.3-2.2c-1.9-2-3.8-4-6-5.5C16.7,6.8,16,6,15,5.3   c-0.9-0.8-2-1.7-3-2.3c-0.4-0.4-0.7-0.7-1.1-0.9c-0.3-0.2-0.7-0.5-1-0.7C9.8,1.1,9.4,1.2,9.2,1.1C8.9,1.1,9,1.4,9,1.5   C9.2,1.6,9,2,9.2,2.1C9.7,2.2,9.7,2.7,10.1,3C10,3,9.9,3,9.7,3c-0.4,0.1,0,0.4-0.1,0.6c0.5,0.3,0.6,0.9,1,1.2   c0.1,0.3,0.5,0.4,0.6,0.6c0,0.1,0.2,0.2,0.4,0.3c0.5,0.1,0.8,0.6,1.2,0.8c-0.2,0.1-0.4,0.1-0.6,0c-0.3,0.1-0.5-0.3-0.8-0.3   c-0.1-0.2-0.3-0.4-0.5-0.4c0-0.4-0.5,0-0.6-0.2c-0.1-0.1-0.2,0-0.3,0c0,0.1,0,0.2,0.1,0.2c-0.1,0.3,0.3,0.3,0.3,0.6   c0.4,0.1,0.4,0.7,0.9,0.6c0.2,0.6,1,0.1,1.3,0.7c0.6,0,0.8,0.4,1.2,0.7c0.8-0.4,1,0.9,1.8,0.6c0.4-0.1,0.6,0.4,0.9,0.6   c0.3-0.1,0.2,0.3,0.4,0.3c0.6-0.1,0.9,0.5,1.3,0.8c-0.3,0.2-0.6-0.1-0.9-0.2c-0.3-0.1-0.4-0.4-0.7-0.3c-0.3-0.3-0.6-0.3-1-0.4   c-0.2-0.2-0.4-0.2-0.6-0.4c-0.1-0.1-0.3,0-0.4,0c-0.3-0.3-0.6-0.2-1-0.4c-0.1,0-0.4,0-0.7-0.2c-0.4,0.1-0.6-0.2-0.9-0.3   c-0.2-0.4-0.9-0.2-1.2-0.2c-0.1,0.1-0.2,0-0.2,0.1c0.2,0.4,0.7,0.6,0.7,1c0.2,0,0.2,0.2,0.3,0.3c0.2,0,0.2-0.3,0.4-0.4   c0.4-0.1,0.7,0.2,1,0.2c0.4-0.4,0.6,0.3,1.1,0.2c0.2,0.5,0.9,0.3,1.2,0.8c0.1,0.1,0.4,0,0.5,0.1c0.4-0.1,0.6,0.3,1,0.2   c0.2,0.5,0.9,0.2,1.1,0.7c0.3-0.1,0.2,0.2,0.3,0.4c0,0.3-0.5,0-0.7,0.1c-0.4-0.3-0.9-0.3-1.4-0.6c-0.3,0.1-0.5-0.3-0.7,0   c-0.4-0.3-0.8-0.4-1.2-0.5c-0.3-0.3-0.7-0.3-1.1-0.4c-0.2,0-0.2-0.3-0.4-0.3c-0.2-0.3-0.6-0.1-0.7-0.3c-0.1,0-0.3-0.3-0.4,0   c0.3,0.3,0.1,1,0.7,1c0.1,0.1,0.2,0.2,0.2,0.3c0.2,0,0.4,0,0.6-0.1c0.3,0,0.6,0.1,0.8,0.2c0.3,0.3,0.5,0.4,0.9,0.4   c0.1,0.4,0.5,0,0.6,0.2c0.2,0.1,0.5,0.1,0.7,0.2c0.3,0.2,0.6,0.2,1,0.3c0.5,0.4,1.2,0.4,1.6,0.8c0,0.1,0,0.2,0,0.3   c-0.3,0-0.6,0.1-0.8-0.1c-0.6,0.1-0.9-0.7-1.4-0.3c-0.5-0.3-1.1-0.3-1.7-0.4c-0.3-0.4-0.7-0.2-1.1-0.3c-0.2,0-0.5-0.1-0.6,0   c-0.1,0.2,0.1,0.3,0.2,0.4c0.5,0.1,1,0,1.5,0.3c0.3,0.4,1,0.1,1.3,0.4c0.2-0.1,0.5,0.2,0.7,0c0.2,0.2,0.3,0,0.5,0.2   c0.1,0.2,0.5,0.1,0.6,0.3c0.5,0.2,0.9-0.2,1.3,0.3c0.3,0.6-0.4,0.1-0.6,0.4c-0.2,0.6,0.7,0.2,0.7,0.6c0.6,0.3-0.4,0.3-0.1,0.7   c0.1,0,0.2,0.1,0.4,0.1c0.1-0.1,0.1-0.2,0.3-0.2c0.1,0.1,0.1,0.2,0.2,0.3c0.2,0,0.2-0.2,0.4-0.2c0.3-0.1,0,0.4,0.1,0.5   c-0.2,0-0.4-0.2-0.5,0.1c-0.5,0-0.9-0.3-1.4-0.2c-0.6,0.1,0.1-0.7-0.6-0.5c-0.3-0.2-0.5-0.1-0.8-0.2c-0.4,0-0.6-0.1-1,0   c-0.2-0.2-0.4,0-0.6,0c-0.1,0.3,0.4,0.2,0.4,0.5c0.6,0.1,1.5-0.2,2,0.2c0,0.1,0,0.1-0.1,0.2c-0.3-0.1-0.6,0.2-1,0   c-0.2,0.2-0.6,0.2-0.4,0.5c0.1,0.4,0.6,0,0.8,0.2c0.2-0.2,0.6-0.1,0.9-0.1c0.5-0.3,1.1-0.1,1.6,0c0.2,0.8-0.7,0.1-1,0.5   c-0.2,0.4-0.7,0.2-1,0.4c-0.1,0.1,0,0.2,0.1,0.2c0.4,0,0.9,0,1.2-0.3c0.3,0.1,0.4-0.2,0.7-0.1c0.4-0.3,0.7,0,1.1,0   c-0.1,0.4-0.4,0.6-0.6,0.8c-0.2,0-0.4,0.1-0.6,0.1c-0.2-0.4-0.4,0.2-0.6,0c-0.2,0.4-0.6,0-0.8,0.2c-0.1,0.1-0.3,0-0.2,0.3   c0.7,0.3,1.3-0.2,2-0.2c0.1,0.1,0.1,0.1,0.2,0.2c0.1,0.1,0.3,0.2,0.2,0.4c-0.2,0.1-0.3,0-0.4,0c-0.1,0-0.1,0.1-0.1,0.2   c-0.1,0.2-0.2,0-0.4,0c-0.2,0.2-0.4,0.3-0.7,0.4c0,0.1-0.2,0.3,0,0.4c0.5,0,0.8-0.3,1.3-0.4c0.2,0.1,0,0.2,0,0.3   c-0.1,0.1-0.2,0.5-0.5,0.4c-0.1-0.1-0.2-0.1-0.2-0.2c-0.3-0.2-0.1,0.2-0.1,0.4c-0.1,0.1-0.2,0.1-0.4,0.1c-0.2,0-0.2,0.3-0.2,0.5   c0.1,0,0.2,0.1,0.4,0.1c0.4-0.3,0.9-0.1,1.2-0.4c0.2-0.1,0.3,0,0.2,0.2c-0.4,0-0.7,0.5-1.1,0.6c-0.1,0.2-0.5,0.2-0.4,0.5   c0,0.1,0.2,0.1,0.3,0.2c0.4,0,0.7-0.3,0.9-0.6c0.1-0.2,0.3-0.1,0.5,0c0.2,0.7-0.7,0.5-1,1c-0.1,0.1,0,0.3-0.2,0.2   c-0.1,0.2-0.3,0.3-0.1,0.5c0.1-0.1,0.3-0.1,0.4-0.2c0.4,0,0.7-0.7,1-0.4c-0.1,0.3-0.2,0.5-0.5,0.6c-0.2,0.1-0.4,0.5-0.7,0.5   c-0.1,0.2,0,0.4,0.1,0.6c0.1,0,0.2,0,0.2,0c0.4,0,0.4-0.8,0.9-0.6c0,0.1-0.1,0.1-0.2,0.2c-0.5,0.1-0.3,0.6-0.7,0.7   c0.1,0.2,0,0.5,0.2,0.7c0.2,0.2,0.4,0,0.5-0.1c0.3,0.3-0.4,0.5-0.1,0.9c0,0.1,0.2,0.1,0.2,0.2c0.8-0.1-0.1,0.3,0.1,0.7   c0,0.2,0.2,0.1,0.4,0.1c0.2,0.3,0.2,0.5,0.1,0.8c0,0.2,0.3,0.1,0.4,0.2c0,0.1,0.1,0.3,0,0.3c-0.1,0.2,0,0.4,0.2,0.5   c0.4,0,0.1,0.6,0.4,0.6c0.4,0,0.4,0.4,0.4,0.6c0,0.1,0.2,0.2,0,0.3c0.1,0.2,0.4,0.4,0.6,0.6c0.2,0.2,0.5,0.5,0.5,0.8   c0,0.7,0.6,0.8,1.1,1.2c0.2,0.7,0.5,1.4,1.2,1.7c-0.1,0.301,0.2,0.5,0.2,0.7c-0.3,0.2-0.3,0.601-0.7,0.7c0,0.7-0.8,0.3-0.9,0.9   c-0.1,0-0.1,0-0.2,0c0-0.101,0-0.101,0.1-0.2c0.3-0.8-0.4,0.2-0.5-0.4c-0.3-0.2-0.2,0.2-0.2,0.3c-0.1,0-0.2-0.199-0.2-0.3   c-0.1,0-0.2,0-0.2,0.2c-0.2,0-0.2-0.3-0.3-0.4c-0.3,0-0.5,0.2-0.7,0.301c-0.1-0.5-0.3-0.101-0.6-0.301C21.8,37.4,21.7,36.9,21.4,37   c-0.4,0.2-0.9,0-1.4,0.3c-0.3,0-0.4,0.3-0.3,0.5c-0.2,0.101-0.2,0.4-0.3,0.601c-0.1,0.199,0.1,0.399,0.2,0.5   c-0.3,0.199-0.2,0.5-0.4,0.8c0,0.2,0.3,0.1,0.2,0.3c0.1,0.1,0.2,0,0.2-0.2c0.1,0,0.1,0,0.2,0.101C19.7,40.1,19.6,40.3,19.4,40.3   c0,0.3,0.3,0.5,0.4,0.7c0.3,0.3,0.6,0,0.9-0.2c0.1-0.1,0.3,0,0.4,0.101C21,41.1,20.7,41,20.7,41.2c-0.1,0.2-0.5,0.1-0.6,0.399   c0.1,0.4-0.3,0.601-0.1,0.9c0,0.2,0.2,0.3,0.3,0.2c0.2-0.101,0.3,0.1,0.3,0.3c0.4,0.1-0.2,0.5,0.2,0.6c-0.2,0.2-0.1,0.301-0.1,0.601   c0.2,0.2,0.4,0.2,0.6,0.1c0.2,0.101,0.3,0.2,0.5,0.4c0,0.2-0.3,0.1-0.3,0.399c0.2,0.101,0.2,0.5,0.4,0.2c0.4,0.3,0.8,0.3,1.3,0.4   c-0.1,0.2,0.3,0.3,0.2,0.6c0.1,0.101,0.1,0.101,0.2,0.2s0.3,0.1,0.3-0.1c0.1-0.101,0.3-0.101,0.3,0.1c0.2,0.1,0.3,0.2,0.5,0.2   c0.2,0.1,0.3-0.101,0.3-0.2c0.1,0,0.3-0.2,0.4-0.1c0,0.199-0.2,0.199-0.2,0.199c0,0.2-0.1,0.4,0.1,0.5c-0.1,0.7,0.7,0.301,0.9,0.7   c0.1,0,0.1-0.2,0.2-0.1c0.3-0.4,0.4,0.1,0.5,0.2c0.2-0.101,0.3,0.1,0.5,0c0.1,0.199,0.3,0,0.4-0.101c0.6-0.2,0.5,0.4,0.8,0.601   c0.2,0,0.4-0.101,0.4-0.2c0.4,0.2,0.7-0.101,1,0.1c0.3-0.1,0.2-0.5,0.2-0.6C29.9,47.1,30.5,46.6,30.3,46c0.1-0.2,0.1-0.5,0.1-0.7   c0.3-0.399,0-0.8,0.2-1.2c-0.1,0-0.2-0.8,0-1c-0.1-0.5,0.3-0.899,0.6-1.1c0.2,0.5,0.7,0.6,1,1c0.3,0,0.2,0.3,0.3,0.5s0,0.2,0.3,0.4   c0.4-0.101,0.2,0.399,0.6,0.3c0,0.5,0.7,0.7,0.8,1.2c0.1,0.1,0.2,0.3,0.4,0.399c0,0.101,0.2,0.101,0.1,0.2c0,0.1,0.1,0.2,0.2,0.3   c0.7-0.2,0.2,0.601,0.5,0.8c0.1,0.101,0.2,0,0.3,0.101c0.1,0.5,0.5,0.5,0.8,0.8c-0.1,0.2,0.1,0.4,0.2,0.5c0.2,0.1,0.399,0,0.6,0.1   c0,0.101-0.1,0-0.2,0.101C37,49,37.2,49.2,37.5,49.3c0.2,0.101,0.3-0.1,0.5-0.2c0.3,0.4,0.6-0.5,0.8,0.101c-0.2,0.1-0.5,0.1-0.7,0.3   c-0.1,0.2,0.101,0.3,0.2,0.4c0.2,0.1,0.4,0.1,0.601,0c0.1,0.1,0,0.3,0.199,0.399c0.101,0.2,0.4,0.4,0.601,0.2c0.2,0,0.1-0.3,0.3-0.2   c-0.1,0.2,0,0.5-0.2,0.601c-0.5,0.199,0.4,0.3,0.4,0.699C40.6,51.5,40.6,52,41,51.8c0.1,0.101,0.3,0.101,0.2,0.3   c0.3,0.101,0.399-0.3,0.5-0.399c0.1,0,0.2,0,0.2,0c-0.2,0.1,0,0.3-0.2,0.399c0.399,0.101-0.101,0.4,0,0.601   c0.1,0.1,0.2-0.101,0.3-0.101c0.1,0.101,0.5-0.1,0.5,0.2c-0.1,0.101-0.2,0-0.3,0C42.1,52.8,42.1,52.9,42.1,53   c0.101,0.2,0.301,0.2,0.4,0.2c0.3,0.1,0.5,0.399,0.8,0.2c0.101-0.4,0.4-0.5,0.5-0.9c0.4,0.1,0.3-0.3,0.601-0.2   c0.1,0,0.199,0.101,0.1,0.2s-0.1,0.3-0.3,0.2c-0.5,0.1-0.101,0.8-0.601,0.8c-0.5,0.1-0.1,0.5,0.101,0.7c0.2,0,0.3,0,0.5,0   c0.1-0.101,0.1-0.2,0.1-0.3c0.3-0.2,0.4-0.4,0.7-0.601c0.1-0.3,0.2-0.5,0.4-0.7C45.3,52.2,45.9,52.3,46,52.2   c0.1,0.2-0.1,0.2-0.2,0.2C46,53.1,45.1,53.1,45.1,53.8c0,0.3-0.3,0.3-0.5,0.4c0,0.2-0.3,0.2-0.399,0.399c0.1,0.2,0.2,0.4,0.399,0.5   c0.301,0,0.2-0.399,0.4-0.5c0.1,0,0.2,0,0.2,0C45.3,54.9,45.1,55,45,55.2c0.5,0.2,0.1,0.6,0.3,1c0.101,0.1,0.101,0.3,0.2,0.2   c0.2-0.101,0.2-0.301,0.2-0.5c0.1-0.101,0.2-0.2,0.3-0.101c-0.1,0.2,0.2,0.2,0.1,0.3c-0.3,0-0.3,0.4-0.199,0.601   C45.8,56.8,45.8,56.9,45.8,57c0.2,0.2,0.2,0.4,0.4,0.6c0.399,0.101,0.1-0.5,0.2-0.8c0.1-0.1,0.199-0.2,0.3-0.2   C47.1,56.5,46.6,55.9,47,55.9c0.2-0.2,0.5-0.301,0.4-0.601c0-0.2,0.199,0,0.3-0.2c0-0.3,0-0.699,0.2-0.8   C48.4,54.4,47.8,54.9,48.1,55c0,0.1,0.2,0.3,0,0.4C47.7,55.4,48,56,47.7,55.9c-0.2,0.199-0.3,0.3-0.3,0.6L47.3,56.6   c0,0.101,0,0.2,0.101,0.2c0.199,0.101,0,0.2-0.101,0.3c-0.1,0.2,0.101,0.4,0.2,0.5c-0.2,0.2,0,0.601-0.2,0.801   c-0.1,0,0,0.199-0.1,0.3c0.1,0.2,0.2,0.6,0.399,0.5c0-0.2,0.101-0.3,0.101-0.4c0.399-0.3-0.2-0.5,0-0.899c0-0.101,0.2-0.101,0.1-0.2   c-0.2-0.7,0.4-0.8,0.4-1.4c0-0.1,0.1-0.2,0.2-0.1c0.1-0.2,0.1-0.4,0.1-0.7c0.1-0.1,0.3-0.4,0.2-0.6c0.399-0.301,0,0.399,0.399,0.5   C48.9,55.6,49,56,48.8,56.1c-0.7,0.301-0.1,0.9-0.2,1.4c-0.399,0.5,0.101,1,0,1.6C48.4,59.2,48.3,59.5,48.4,59.7   c0.1,0,0,0.5-0.301,0.5c0,0.1,0,0.2,0.101,0.3c0.1,0,0.2-0.1,0.2-0.1c0.199-0.2,0.5-0.301,0.3-0.601c-0.101,0,0-0.6,0.1-0.899   c0.3-0.2,0.101-0.601,0.4-0.7c0.1-0.101-0.101-0.2,0-0.3c-0.101-0.2,0-0.301,0.2-0.5C49.3,57.1,49.6,56.9,49.6,56.7   c0.5-0.3-0.1-1,0.4-1.4c0.2,0.101,0,0.4,0.2,0.5c0,0.2,0.1,0.601-0.2,0.601c0,0.199,0.1,0.399,0.3,0.5c0.2,0.399-0.3,0.5-0.2,0.8   c-0.5,0,0.101,0.5-0.199,0.7c0,0.199,0.1,0.399,0.199,0.5C50,59.1,50,59.6,50,59.9h0.1V60C50,59.9,50,60.1,50,60.2   c0.3,0.2-0.1,0.5,0.2,0.7c0.3,0.399-0.3,0.3-0.5,0.5c0,0.399,0.399,0.6,0.399,1c0.101,0.1,0.2,0.1,0.4,0c0-0.101,0.2-0.301,0.2-0.4   c0.2-0.3,0.1-0.4,0-0.4c0-0.399-0.101-0.8,0-1.199C51.3,59.6,50.8,59.8,51,59.7z"/></svg>