<svg xmlns="http://www.w3.org/2000/svg" version="1.1" width="70px" height="70px" viewBox="0 0 70 70"><g id="surface1"><path d="M 36.695312 14.085938 C 36.734375 14.121094 36.753906 14.15625 36.777344 14.207031 C 36.785156 14.222656 36.792969 14.242188 36.800781 14.257812 C 36.808594 14.277344 36.816406 14.292969 36.824219 14.3125 C 36.832031 14.332031 36.84375 14.351562 36.851562 14.371094 C 36.867188 14.410156 36.886719 14.449219 36.90625 14.488281 C 36.941406 14.570312 36.980469 14.648438 37.019531 14.730469 C 37.039062 14.773438 37.058594 14.816406 37.078125 14.859375 C 37.085938 14.878906 37.09375 14.894531 37.101562 14.914062 C 37.507812 15.78125 37.910156 16.644531 39.1875 19.375 C 39.308594 19.378906 39.429688 19.371094 39.550781 19.363281 C 39.570312 19.363281 39.589844 19.363281 39.613281 19.359375 C 39.65625 19.359375 39.699219 19.355469 39.746094 19.351562 C 39.816406 19.347656 39.886719 19.34375 39.957031 19.339844 C 40.144531 19.328125 40.332031 19.316406 40.519531 19.304688 C 40.640625 19.296875 40.765625 19.292969 40.886719 19.285156 C 40.945312 19.28125 41.003906 19.277344 41.0625 19.273438 C 41.1875 19.265625 41.308594 19.257812 41.433594 19.253906 C 41.464844 19.25 41.496094 19.25 41.527344 19.246094 C 41.5625 19.246094 41.597656 19.242188 41.632812 19.242188 C 41.652344 19.242188 41.671875 19.242188 41.6875 19.238281 C 41.746094 19.253906 41.761719 19.273438 41.792969 19.324219 C 41.808594 19.351562 41.824219 19.382812 41.839844 19.414062 C 41.878906 19.5 41.925781 19.578125 41.96875 19.660156 C 41.988281 19.691406 42.003906 19.71875 42.019531 19.75 C 42.0625 19.828125 42.109375 19.90625 42.152344 19.980469 C 42.160156 19.992188 42.164062 20.003906 42.171875 20.019531 C 42.195312 20.054688 42.214844 20.09375 42.238281 20.132812 C 42.273438 20.195312 42.3125 20.261719 42.347656 20.324219 C 42.351562 20.332031 42.359375 20.339844 42.363281 20.351562 C 42.4375 20.480469 42.511719 20.613281 42.585938 20.746094 C 42.640625 20.84375 42.695312 20.941406 42.753906 21.039062 C 42.828125 21.164062 42.898438 21.289062 42.96875 21.414062 C 43.050781 21.566406 43.136719 21.71875 43.222656 21.871094 C 43.269531 21.949219 43.3125 22.023438 43.355469 22.101562 C 43.363281 22.113281 43.363281 22.113281 43.371094 22.128906 C 43.445312 22.261719 43.519531 22.394531 43.597656 22.527344 C 43.652344 22.628906 43.710938 22.734375 43.773438 22.835938 C 43.820312 22.925781 43.871094 23.011719 43.921875 23.101562 C 43.984375 23.214844 44.046875 23.324219 44.113281 23.4375 C 44.191406 23.570312 44.265625 23.707031 44.339844 23.839844 C 44.429688 23.996094 44.515625 24.148438 44.605469 24.304688 C 44.640625 24.367188 44.675781 24.433594 44.714844 24.496094 C 44.71875 24.503906 44.722656 24.511719 44.730469 24.523438 C 44.796875 24.640625 44.863281 24.757812 44.929688 24.875 C 45 25.003906 45.070312 25.128906 45.144531 25.253906 C 45.199219 25.347656 45.253906 25.441406 45.308594 25.535156 C 45.320312 25.554688 45.320312 25.554688 45.332031 25.574219 C 45.351562 25.609375 45.367188 25.644531 45.386719 25.675781 C 45.398438 25.671875 45.398438 25.671875 45.414062 25.667969 C 45.613281 25.617188 45.8125 25.566406 46.015625 25.515625 C 46.113281 25.492188 46.207031 25.46875 46.304688 25.441406 C 46.390625 25.421875 46.476562 25.398438 46.558594 25.378906 C 46.605469 25.367188 46.648438 25.355469 46.695312 25.34375 C 46.742188 25.332031 46.792969 25.316406 46.84375 25.304688 C 46.859375 25.300781 46.875 25.296875 46.890625 25.292969 C 46.902344 25.289062 46.917969 25.289062 46.929688 25.285156 C 46.941406 25.28125 46.953125 25.277344 46.964844 25.273438 C 47 25.269531 47.019531 25.273438 47.054688 25.285156 C 47.078125 25.308594 47.101562 25.332031 47.125 25.359375 C 47.132812 25.367188 47.140625 25.375 47.148438 25.382812 C 47.199219 25.441406 47.25 25.503906 47.300781 25.566406 C 47.335938 25.609375 47.371094 25.644531 47.402344 25.683594 C 47.460938 25.746094 47.515625 25.808594 47.566406 25.875 C 47.601562 25.914062 47.636719 25.953125 47.671875 25.992188 C 47.726562 26.054688 47.78125 26.117188 47.835938 26.183594 C 47.867188 26.222656 47.902344 26.261719 47.9375 26.300781 C 47.992188 26.359375 48.046875 26.425781 48.101562 26.492188 C 48.132812 26.53125 48.167969 26.570312 48.203125 26.605469 C 48.257812 26.667969 48.3125 26.734375 48.367188 26.800781 C 48.398438 26.839844 48.433594 26.878906 48.46875 26.914062 C 48.523438 26.976562 48.578125 27.042969 48.632812 27.109375 C 48.664062 27.148438 48.699219 27.183594 48.734375 27.222656 C 48.792969 27.285156 48.84375 27.351562 48.898438 27.414062 C 48.929688 27.457031 48.964844 27.492188 49 27.53125 C 49.058594 27.59375 49.109375 27.65625 49.164062 27.722656 C 49.195312 27.761719 49.230469 27.800781 49.265625 27.839844 C 49.324219 27.902344 49.375 27.964844 49.429688 28.03125 C 49.464844 28.070312 49.496094 28.109375 49.53125 28.148438 C 49.589844 28.210938 49.644531 28.273438 49.695312 28.339844 C 49.730469 28.378906 49.761719 28.417969 49.796875 28.453125 C 49.855469 28.515625 49.910156 28.582031 49.960938 28.648438 C 49.996094 28.6875 50.027344 28.726562 50.0625 28.761719 C 50.121094 28.824219 50.175781 28.890625 50.226562 28.957031 C 50.261719 28.996094 50.296875 29.03125 50.328125 29.070312 C 50.386719 29.132812 50.441406 29.199219 50.492188 29.261719 C 50.527344 29.304688 50.5625 29.339844 50.597656 29.378906 C 50.652344 29.441406 50.707031 29.503906 50.761719 29.570312 C 50.792969 29.609375 50.828125 29.648438 50.863281 29.6875 C 50.917969 29.75 50.972656 29.8125 51.027344 29.878906 C 51.058594 29.917969 51.09375 29.957031 51.128906 29.996094 C 51.183594 30.058594 51.238281 30.121094 51.292969 30.1875 C 51.324219 30.226562 51.359375 30.265625 51.394531 30.304688 C 51.453125 30.367188 51.503906 30.429688 51.558594 30.496094 C 51.589844 30.535156 51.625 30.574219 51.660156 30.609375 C 51.71875 30.671875 51.769531 30.738281 51.824219 30.804688 C 51.855469 30.84375 51.890625 30.882812 51.925781 30.917969 C 51.984375 30.980469 52.035156 31.046875 52.089844 31.113281 C 52.121094 31.152344 52.15625 31.1875 52.191406 31.226562 C 52.238281 31.277344 52.28125 31.328125 52.324219 31.382812 C 52.378906 31.449219 52.4375 31.511719 52.496094 31.578125 C 52.53125 31.617188 52.566406 31.65625 52.597656 31.695312 C 52.679688 31.628906 52.757812 31.558594 52.835938 31.484375 C 52.96875 31.367188 52.96875 31.367188 53.03125 31.3125 C 53.085938 31.265625 53.140625 31.214844 53.195312 31.164062 C 53.242188 31.121094 53.289062 31.078125 53.339844 31.035156 C 53.375 31.003906 53.410156 30.972656 53.445312 30.941406 C 53.488281 30.898438 53.53125 30.859375 53.578125 30.820312 C 53.625 30.78125 53.671875 30.738281 53.71875 30.695312 C 53.773438 30.644531 53.828125 30.59375 53.886719 30.542969 C 53.941406 30.496094 54 30.445312 54.054688 30.394531 C 54.078125 30.371094 54.101562 30.351562 54.125 30.332031 C 54.136719 30.320312 54.148438 30.308594 54.160156 30.300781 C 54.265625 30.203125 54.265625 30.203125 54.300781 30.171875 C 54.324219 30.152344 54.347656 30.132812 54.371094 30.109375 C 54.421875 30.0625 54.476562 30.015625 54.527344 29.96875 C 54.582031 29.921875 54.636719 29.871094 54.691406 29.820312 C 54.738281 29.777344 54.789062 29.734375 54.835938 29.691406 C 54.871094 29.660156 54.90625 29.628906 54.941406 29.597656 C 54.988281 29.554688 55.03125 29.515625 55.074219 29.476562 C 55.121094 29.4375 55.167969 29.394531 55.214844 29.351562 C 55.269531 29.300781 55.328125 29.25 55.382812 29.203125 C 55.417969 29.171875 55.453125 29.136719 55.488281 29.105469 C 55.53125 29.066406 55.578125 29.027344 55.621094 28.988281 C 55.667969 28.945312 55.714844 28.902344 55.761719 28.859375 C 55.816406 28.808594 55.871094 28.761719 55.929688 28.710938 C 55.964844 28.679688 56 28.648438 56.035156 28.617188 C 56.078125 28.574219 56.121094 28.535156 56.167969 28.496094 C 56.214844 28.457031 56.261719 28.414062 56.308594 28.371094 C 56.363281 28.320312 56.417969 28.269531 56.476562 28.222656 C 56.511719 28.191406 56.546875 28.15625 56.582031 28.125 C 56.625 28.085938 56.667969 28.046875 56.714844 28.007812 C 56.761719 27.964844 56.808594 27.921875 56.855469 27.882812 C 56.910156 27.828125 56.964844 27.78125 57.023438 27.730469 C 57.078125 27.679688 57.132812 27.628906 57.191406 27.578125 C 57.214844 27.558594 57.238281 27.539062 57.261719 27.515625 C 57.273438 27.507812 57.28125 27.496094 57.296875 27.484375 C 57.398438 27.390625 57.398438 27.390625 57.433594 27.359375 C 57.457031 27.339844 57.480469 27.316406 57.507812 27.296875 C 57.558594 27.25 57.609375 27.199219 57.664062 27.15625 C 57.71875 27.105469 57.773438 27.054688 57.828125 27.007812 C 57.875 26.960938 57.925781 26.917969 57.972656 26.878906 C 58.007812 26.847656 58.042969 26.8125 58.078125 26.78125 C 58.121094 26.742188 58.167969 26.703125 58.210938 26.664062 C 58.257812 26.621094 58.304688 26.578125 58.351562 26.535156 C 58.40625 26.484375 58.460938 26.4375 58.519531 26.386719 C 58.554688 26.355469 58.589844 26.324219 58.625 26.292969 C 58.792969 26.136719 58.792969 26.136719 58.871094 26.082031 C 58.925781 26.105469 58.964844 26.144531 59.007812 26.1875 C 59.015625 26.195312 59.023438 26.203125 59.03125 26.210938 C 59.078125 26.257812 59.121094 26.308594 59.164062 26.359375 C 59.199219 26.398438 59.238281 26.4375 59.277344 26.472656 C 59.332031 26.527344 59.382812 26.582031 59.429688 26.640625 C 59.464844 26.679688 59.503906 26.714844 59.542969 26.753906 C 59.585938 26.800781 59.632812 26.84375 59.675781 26.894531 C 59.71875 26.945312 59.765625 26.992188 59.816406 27.039062 C 59.871094 27.097656 59.925781 27.152344 59.976562 27.214844 C 60.011719 27.253906 60.050781 27.289062 60.089844 27.328125 C 60.132812 27.375 60.179688 27.417969 60.21875 27.46875 C 60.265625 27.519531 60.3125 27.566406 60.359375 27.613281 C 60.417969 27.671875 60.472656 27.726562 60.523438 27.789062 C 60.558594 27.828125 60.597656 27.863281 60.632812 27.902344 C 60.679688 27.945312 60.722656 27.992188 60.765625 28.042969 C 60.808594 28.09375 60.859375 28.140625 60.90625 28.1875 C 60.964844 28.246094 61.019531 28.300781 61.070312 28.363281 C 61.105469 28.402344 61.140625 28.4375 61.179688 28.476562 C 61.226562 28.519531 61.269531 28.566406 61.3125 28.613281 C 61.355469 28.667969 61.40625 28.714844 61.453125 28.761719 C 61.507812 28.820312 61.5625 28.875 61.617188 28.9375 C 61.652344 28.976562 61.6875 29.011719 61.726562 29.050781 C 61.773438 29.09375 61.816406 29.140625 61.859375 29.1875 C 61.902344 29.242188 61.949219 29.289062 62 29.335938 C 62.054688 29.394531 62.109375 29.449219 62.160156 29.511719 C 62.195312 29.550781 62.234375 29.585938 62.273438 29.625 C 62.316406 29.667969 62.363281 29.714844 62.402344 29.761719 C 62.449219 29.816406 62.496094 29.863281 62.546875 29.910156 C 62.601562 29.96875 62.65625 30.023438 62.707031 30.085938 C 62.742188 30.125 62.78125 30.160156 62.816406 30.199219 C 62.863281 30.242188 62.910156 30.289062 62.949219 30.335938 C 62.996094 30.390625 63.042969 30.4375 63.089844 30.484375 C 63.148438 30.542969 63.203125 30.597656 63.253906 30.660156 C 63.289062 30.699219 63.328125 30.734375 63.363281 30.773438 C 63.410156 30.816406 63.453125 30.863281 63.496094 30.910156 C 63.539062 30.964844 63.589844 31.011719 63.636719 31.058594 C 63.695312 31.113281 63.75 31.171875 63.800781 31.234375 C 63.835938 31.273438 63.871094 31.308594 63.910156 31.347656 C 63.957031 31.390625 64 31.4375 64.042969 31.484375 C 64.085938 31.539062 64.132812 31.585938 64.183594 31.632812 C 64.238281 31.6875 64.292969 31.746094 64.347656 31.808594 C 64.386719 31.855469 64.433594 31.898438 64.476562 31.941406 C 64.523438 31.988281 64.570312 32.035156 64.609375 32.085938 C 64.648438 32.125 64.683594 32.164062 64.722656 32.199219 C 64.769531 32.246094 64.8125 32.289062 64.855469 32.339844 C 64.898438 32.390625 64.945312 32.4375 64.996094 32.488281 C 65.050781 32.542969 65.105469 32.601562 65.15625 32.660156 C 65.191406 32.699219 65.230469 32.738281 65.269531 32.773438 C 65.3125 32.820312 65.359375 32.863281 65.398438 32.914062 C 65.445312 32.964844 65.492188 33.011719 65.539062 33.0625 C 65.597656 33.117188 65.652344 33.171875 65.703125 33.234375 C 65.738281 33.273438 65.777344 33.3125 65.8125 33.347656 C 65.859375 33.394531 65.90625 33.4375 65.945312 33.488281 C 65.992188 33.539062 66.039062 33.585938 66.085938 33.636719 C 66.144531 33.691406 66.199219 33.746094 66.25 33.808594 C 66.285156 33.847656 66.324219 33.886719 66.359375 33.921875 C 66.40625 33.96875 66.449219 34.011719 66.492188 34.0625 C 66.535156 34.113281 66.585938 34.160156 66.632812 34.210938 C 66.691406 34.265625 66.742188 34.320312 66.796875 34.382812 C 66.839844 34.429688 66.882812 34.472656 66.929688 34.519531 C 66.976562 34.5625 67.011719 34.609375 67.046875 34.664062 C 67.039062 34.667969 67.035156 34.675781 67.027344 34.679688 C 66.929688 34.773438 66.832031 34.863281 66.738281 34.960938 C 66.710938 34.984375 66.683594 35.007812 66.65625 35.03125 C 66.605469 35.078125 66.554688 35.125 66.507812 35.175781 C 66.449219 35.230469 66.394531 35.285156 66.332031 35.335938 C 66.292969 35.371094 66.257812 35.410156 66.21875 35.449219 C 66.175781 35.492188 66.128906 35.539062 66.082031 35.582031 C 66.019531 35.632812 65.960938 35.691406 65.90625 35.75 C 65.867188 35.789062 65.832031 35.824219 65.785156 35.855469 C 65.742188 35.835938 65.710938 35.808594 65.675781 35.773438 C 65.664062 35.765625 65.65625 35.753906 65.644531 35.746094 C 65.636719 35.734375 65.625 35.722656 65.613281 35.710938 C 65.601562 35.703125 65.59375 35.691406 65.582031 35.679688 C 65.523438 35.625 65.46875 35.5625 65.417969 35.503906 C 65.382812 35.460938 65.34375 35.421875 65.304688 35.386719 C 65.246094 35.328125 65.191406 35.273438 65.140625 35.210938 C 65.105469 35.171875 65.066406 35.136719 65.03125 35.097656 C 64.984375 35.054688 64.9375 35.007812 64.898438 34.957031 C 64.855469 34.90625 64.804688 34.859375 64.757812 34.8125 C 64.699219 34.753906 64.644531 34.699219 64.59375 34.636719 C 64.558594 34.597656 64.523438 34.5625 64.484375 34.523438 C 64.4375 34.480469 64.394531 34.433594 64.351562 34.386719 C 64.308594 34.332031 64.257812 34.285156 64.210938 34.238281 C 64.152344 34.179688 64.101562 34.125 64.046875 34.0625 C 64.011719 34.023438 63.976562 33.988281 63.9375 33.949219 C 63.890625 33.90625 63.847656 33.859375 63.804688 33.8125 C 63.761719 33.757812 63.714844 33.710938 63.664062 33.664062 C 63.609375 33.605469 63.554688 33.550781 63.503906 33.488281 C 63.46875 33.449219 63.429688 33.414062 63.390625 33.375 C 63.347656 33.332031 63.300781 33.285156 63.261719 33.238281 C 63.214844 33.183594 63.167969 33.136719 63.117188 33.089844 C 63.0625 33.03125 63.007812 32.976562 62.957031 32.914062 C 62.921875 32.875 62.882812 32.839844 62.847656 32.800781 C 62.800781 32.757812 62.753906 32.710938 62.714844 32.664062 C 62.667969 32.609375 62.621094 32.5625 62.574219 32.515625 C 62.515625 32.457031 62.460938 32.402344 62.410156 32.339844 C 62.375 32.300781 62.335938 32.265625 62.300781 32.226562 C 62.253906 32.183594 62.210938 32.136719 62.167969 32.089844 C 62.125 32.035156 62.074219 31.988281 62.027344 31.941406 C 61.96875 31.886719 61.914062 31.828125 61.863281 31.765625 C 61.828125 31.726562 61.792969 31.691406 61.753906 31.652344 C 61.707031 31.609375 61.664062 31.5625 61.621094 31.515625 C 61.578125 31.460938 61.53125 31.414062 61.480469 31.367188 C 61.425781 31.3125 61.371094 31.253906 61.316406 31.191406 C 61.28125 31.152344 61.246094 31.117188 61.207031 31.078125 C 61.164062 31.035156 61.117188 30.988281 61.074219 30.941406 C 61.03125 30.890625 60.984375 30.839844 60.933594 30.792969 C 60.878906 30.738281 60.824219 30.679688 60.773438 30.621094 C 60.730469 30.570312 60.683594 30.527344 60.640625 30.484375 C 60.59375 30.4375 60.550781 30.390625 60.507812 30.339844 C 60.472656 30.300781 60.433594 30.261719 60.394531 30.226562 C 60.351562 30.179688 60.304688 30.136719 60.265625 30.085938 C 60.21875 30.035156 60.171875 29.988281 60.121094 29.9375 C 60.066406 29.882812 60.011719 29.828125 59.960938 29.765625 C 59.925781 29.726562 59.886719 29.6875 59.851562 29.652344 C 59.804688 29.605469 59.757812 29.5625 59.71875 29.511719 C 59.671875 29.460938 59.625 29.414062 59.578125 29.363281 C 59.519531 29.308594 59.464844 29.253906 59.414062 29.191406 C 59.378906 29.152344 59.339844 29.113281 59.304688 29.078125 C 59.257812 29.03125 59.214844 28.988281 59.171875 28.9375 C 59.121094 28.878906 59.0625 28.824219 59.007812 28.765625 C 58.957031 28.714844 58.90625 28.664062 58.859375 28.609375 C 58.839844 28.585938 58.820312 28.566406 58.800781 28.546875 C 58.75 28.566406 58.714844 28.597656 58.675781 28.632812 C 58.636719 28.671875 58.59375 28.710938 58.550781 28.746094 C 58.496094 28.796875 58.441406 28.84375 58.386719 28.894531 C 58.339844 28.9375 58.289062 28.980469 58.242188 29.023438 C 58.207031 29.054688 58.171875 29.089844 58.136719 29.121094 C 58.089844 29.160156 58.046875 29.199219 58.003906 29.238281 C 57.957031 29.28125 57.910156 29.320312 57.863281 29.363281 C 57.808594 29.414062 57.75 29.464844 57.695312 29.515625 C 57.660156 29.546875 57.625 29.578125 57.589844 29.609375 C 57.546875 29.648438 57.5 29.6875 57.457031 29.726562 C 57.410156 29.769531 57.363281 29.8125 57.316406 29.855469 C 57.261719 29.90625 57.207031 29.957031 57.148438 30.003906 C 57.113281 30.035156 57.078125 30.066406 57.042969 30.101562 C 57 30.140625 56.957031 30.179688 56.910156 30.21875 C 56.863281 30.257812 56.816406 30.300781 56.769531 30.34375 C 56.714844 30.394531 56.660156 30.445312 56.601562 30.496094 C 56.566406 30.527344 56.53125 30.558594 56.496094 30.589844 C 56.453125 30.628906 56.410156 30.667969 56.363281 30.707031 C 56.316406 30.75 56.269531 30.792969 56.222656 30.835938 C 56.167969 30.886719 56.113281 30.9375 56.054688 30.984375 C 56 31.035156 55.945312 31.085938 55.886719 31.136719 C 55.863281 31.15625 55.839844 31.179688 55.816406 31.199219 C 55.804688 31.210938 55.792969 31.21875 55.78125 31.230469 C 55.679688 31.324219 55.679688 31.324219 55.644531 31.355469 C 55.621094 31.378906 55.59375 31.398438 55.570312 31.421875 C 55.519531 31.46875 55.46875 31.515625 55.414062 31.5625 C 55.359375 31.609375 55.304688 31.660156 55.25 31.710938 C 55.203125 31.753906 55.152344 31.796875 55.105469 31.839844 C 55.070312 31.871094 55.035156 31.902344 55 31.933594 C 54.957031 31.972656 54.910156 32.011719 54.867188 32.050781 C 54.820312 32.09375 54.773438 32.136719 54.726562 32.179688 C 54.671875 32.230469 54.617188 32.28125 54.558594 32.328125 C 54.523438 32.359375 54.488281 32.390625 54.453125 32.425781 C 54.410156 32.464844 54.367188 32.503906 54.320312 32.542969 C 54.273438 32.582031 54.226562 32.625 54.179688 32.667969 C 54.125 32.71875 54.070312 32.769531 54.011719 32.820312 C 53.976562 32.851562 53.941406 32.882812 53.90625 32.914062 C 53.863281 32.953125 53.820312 32.992188 53.773438 33.03125 C 53.726562 33.074219 53.679688 33.117188 53.632812 33.160156 C 53.578125 33.210938 53.523438 33.261719 53.464844 33.308594 C 53.410156 33.359375 53.355469 33.410156 53.296875 33.460938 C 53.273438 33.480469 53.25 33.503906 53.226562 33.523438 C 53.214844 33.535156 53.203125 33.542969 53.191406 33.554688 C 53.089844 33.648438 53.089844 33.648438 53.054688 33.679688 C 53.03125 33.703125 53.003906 33.722656 52.980469 33.746094 C 52.929688 33.792969 52.878906 33.839844 52.824219 33.886719 C 52.777344 33.925781 52.730469 33.96875 52.683594 34.011719 C 52.582031 34.105469 52.582031 34.105469 52.535156 34.148438 C 52.527344 34.152344 52.519531 34.160156 52.511719 34.167969 C 52.484375 34.1875 52.460938 34.203125 52.429688 34.214844 C 52.367188 34.144531 52.300781 34.074219 52.242188 34 C 52.1875 33.933594 52.128906 33.871094 52.074219 33.804688 C 52.027344 33.757812 51.984375 33.703125 51.945312 33.652344 C 51.910156 33.613281 51.875 33.574219 51.84375 33.535156 C 51.785156 33.476562 51.730469 33.410156 51.679688 33.34375 C 51.644531 33.304688 51.609375 33.265625 51.574219 33.230469 C 51.519531 33.167969 51.464844 33.101562 51.410156 33.035156 C 51.378906 32.996094 51.34375 32.957031 51.308594 32.921875 C 51.253906 32.859375 51.199219 32.792969 51.144531 32.726562 C 51.113281 32.6875 51.078125 32.652344 51.042969 32.613281 C 50.988281 32.550781 50.933594 32.488281 50.878906 32.421875 C 50.847656 32.382812 50.8125 32.34375 50.777344 32.304688 C 50.71875 32.242188 50.667969 32.179688 50.613281 32.113281 C 50.582031 32.074219 50.546875 32.035156 50.511719 31.996094 C 50.453125 31.933594 50.402344 31.871094 50.347656 31.804688 C 50.316406 31.765625 50.28125 31.726562 50.246094 31.6875 C 50.1875 31.625 50.136719 31.5625 50.082031 31.496094 C 50.050781 31.457031 50.015625 31.417969 49.980469 31.382812 C 49.921875 31.320312 49.867188 31.253906 49.816406 31.1875 C 49.78125 31.148438 49.75 31.109375 49.714844 31.074219 C 49.65625 31.011719 49.601562 30.945312 49.550781 30.878906 C 49.515625 30.839844 49.484375 30.804688 49.449219 30.765625 C 49.390625 30.703125 49.335938 30.636719 49.285156 30.574219 C 49.25 30.53125 49.21875 30.496094 49.183594 30.457031 C 49.125 30.394531 49.070312 30.332031 49.019531 30.265625 C 48.984375 30.226562 48.949219 30.1875 48.914062 30.148438 C 48.859375 30.085938 48.804688 30.023438 48.75 29.957031 C 48.71875 29.917969 48.683594 29.878906 48.648438 29.839844 C 48.59375 29.777344 48.539062 29.714844 48.484375 29.648438 C 48.453125 29.609375 48.417969 29.570312 48.382812 29.53125 C 48.328125 29.472656 48.273438 29.40625 48.21875 29.339844 C 48.1875 29.300781 48.152344 29.261719 48.117188 29.226562 C 48.0625 29.164062 48.007812 29.097656 47.953125 29.03125 C 47.921875 28.992188 47.886719 28.953125 47.851562 28.917969 C 47.792969 28.855469 47.742188 28.789062 47.6875 28.722656 C 47.65625 28.683594 47.621094 28.648438 47.585938 28.609375 C 47.527344 28.546875 47.476562 28.480469 47.421875 28.417969 C 47.390625 28.375 47.355469 28.339844 47.320312 28.300781 C 47.261719 28.238281 47.210938 28.175781 47.15625 28.109375 C 47.125 28.070312 47.089844 28.03125 47.054688 27.992188 C 46.996094 27.929688 46.941406 27.867188 46.890625 27.800781 C 46.855469 27.761719 46.824219 27.722656 46.789062 27.683594 C 46.730469 27.621094 46.675781 27.558594 46.625 27.492188 C 46.578125 27.4375 46.53125 27.386719 46.480469 27.332031 C 46.453125 27.300781 46.453125 27.300781 46.425781 27.257812 C 46.324219 27.265625 46.230469 27.289062 46.136719 27.316406 C 46.109375 27.320312 46.109375 27.320312 46.085938 27.328125 C 46.046875 27.335938 46.007812 27.347656 45.972656 27.355469 C 45.914062 27.371094 45.851562 27.386719 45.792969 27.402344 C 45.699219 27.425781 45.605469 27.449219 45.511719 27.472656 C 45.347656 27.515625 45.179688 27.558594 45.011719 27.601562 C 44.953125 27.613281 44.894531 27.628906 44.832031 27.644531 C 44.804688 27.652344 44.777344 27.660156 44.75 27.664062 C 44.714844 27.675781 44.683594 27.683594 44.648438 27.691406 C 44.632812 27.695312 44.621094 27.699219 44.605469 27.703125 C 44.589844 27.707031 44.578125 27.710938 44.566406 27.714844 C 44.535156 27.71875 44.535156 27.71875 44.507812 27.71875 C 44.5 27.710938 44.496094 27.703125 44.492188 27.695312 C 44.394531 27.523438 44.296875 27.351562 44.199219 27.179688 C 44.132812 27.0625 44.066406 26.945312 44 26.828125 C 43.9375 26.714844 43.875 26.601562 43.808594 26.492188 C 43.734375 26.367188 43.664062 26.242188 43.59375 26.113281 C 43.511719 25.960938 43.425781 25.808594 43.339844 25.660156 C 43.292969 25.582031 43.25 25.503906 43.207031 25.425781 C 43.199219 25.414062 43.199219 25.414062 43.191406 25.402344 C 43.117188 25.269531 43.039062 25.136719 42.964844 25.003906 C 42.886719 24.863281 42.808594 24.722656 42.726562 24.585938 C 42.691406 24.519531 42.65625 24.457031 42.617188 24.390625 C 42.613281 24.382812 42.609375 24.375 42.601562 24.367188 C 42.527344 24.234375 42.453125 24.101562 42.378906 23.96875 C 42.324219 23.871094 42.269531 23.773438 42.210938 23.675781 C 42.136719 23.554688 42.066406 23.425781 42 23.300781 C 41.914062 23.148438 41.828125 22.996094 41.742188 22.84375 C 41.699219 22.769531 41.652344 22.691406 41.609375 22.613281 C 41.601562 22.601562 41.601562 22.601562 41.59375 22.589844 C 41.519531 22.457031 41.445312 22.324219 41.371094 22.1875 C 41.3125 22.085938 41.253906 21.980469 41.195312 21.878906 C 41.136719 21.777344 41.078125 21.675781 41.019531 21.574219 C 40.980469 21.5 40.933594 21.421875 40.890625 21.347656 C 40.886719 21.339844 40.882812 21.332031 40.878906 21.324219 C 40.851562 21.28125 40.828125 21.242188 40.804688 21.199219 C 40.792969 21.175781 40.792969 21.175781 40.78125 21.15625 C 40.773438 21.140625 40.765625 21.128906 40.757812 21.117188 C 40.738281 21.085938 40.738281 21.085938 40.738281 21.054688 C 40.734375 21.058594 40.726562 21.058594 40.71875 21.0625 C 40.675781 21.070312 40.632812 21.074219 40.589844 21.078125 C 40.578125 21.078125 40.570312 21.078125 40.558594 21.078125 C 40.527344 21.082031 40.496094 21.082031 40.460938 21.085938 C 40.4375 21.085938 40.417969 21.085938 40.394531 21.089844 C 40.332031 21.09375 40.265625 21.097656 40.203125 21.101562 C 40.152344 21.101562 40.097656 21.105469 40.046875 21.109375 C 39.921875 21.117188 39.796875 21.125 39.675781 21.132812 C 39.546875 21.136719 39.417969 21.144531 39.292969 21.152344 C 39.179688 21.160156 39.070312 21.167969 38.960938 21.171875 C 38.894531 21.175781 38.832031 21.179688 38.765625 21.183594 C 38.703125 21.1875 38.640625 21.191406 38.578125 21.195312 C 38.558594 21.195312 38.535156 21.199219 38.511719 21.199219 C 38.371094 21.207031 38.234375 21.210938 38.09375 21.210938 C 37.9375 20.898438 37.789062 20.582031 37.640625 20.265625 C 37.601562 20.179688 37.5625 20.09375 37.519531 20.007812 C 37.511719 19.988281 37.503906 19.972656 37.496094 19.953125 C 37.480469 19.917969 37.464844 19.882812 37.445312 19.847656 C 37.410156 19.769531 37.375 19.691406 37.335938 19.613281 C 37.316406 19.570312 37.296875 19.523438 37.273438 19.480469 C 37.265625 19.464844 37.257812 19.445312 37.25 19.429688 C 37.246094 19.417969 37.242188 19.410156 37.238281 19.402344 C 36.808594 18.484375 36.808594 18.484375 36.796875 18.457031 C 36.789062 18.441406 36.78125 18.421875 36.773438 18.40625 C 36.753906 18.359375 36.730469 18.316406 36.710938 18.273438 C 36.671875 18.183594 36.628906 18.09375 36.585938 18.007812 C 36.511719 17.847656 36.4375 17.691406 36.367188 17.53125 C 36.363281 17.519531 36.355469 17.507812 36.351562 17.496094 C 36.316406 17.417969 36.316406 17.417969 36.316406 17.386719 C 36.308594 17.386719 36.296875 17.386719 36.289062 17.386719 C 36.28125 17.398438 36.28125 17.398438 36.277344 17.410156 C 36.257812 17.449219 36.234375 17.476562 36.207031 17.511719 C 36.195312 17.523438 36.183594 17.539062 36.171875 17.550781 C 36.167969 17.558594 36.160156 17.566406 36.152344 17.574219 C 36.117188 17.617188 36.082031 17.664062 36.042969 17.707031 C 36.03125 17.722656 36.03125 17.722656 36.019531 17.738281 C 35.964844 17.804688 35.910156 17.875 35.855469 17.945312 C 35.800781 18.015625 35.742188 18.085938 35.683594 18.160156 C 35.636719 18.21875 35.585938 18.277344 35.539062 18.339844 C 35.472656 18.421875 35.40625 18.503906 35.339844 18.585938 C 35.28125 18.660156 35.222656 18.730469 35.164062 18.804688 C 35.117188 18.863281 35.070312 18.925781 35.019531 18.984375 C 34.914062 19.113281 34.808594 19.242188 34.707031 19.371094 C 34.652344 19.445312 34.59375 19.515625 34.535156 19.585938 C 34.488281 19.644531 34.4375 19.707031 34.390625 19.765625 C 34.328125 19.851562 34.257812 19.933594 34.191406 20.015625 C 34.132812 20.085938 34.074219 20.160156 34.019531 20.230469 C 33.96875 20.292969 33.921875 20.351562 33.871094 20.414062 C 33.765625 20.539062 33.664062 20.667969 33.558594 20.800781 C 33.503906 20.871094 33.445312 20.945312 33.386719 21.015625 C 33.339844 21.074219 33.292969 21.132812 33.242188 21.195312 C 33.179688 21.277344 33.109375 21.363281 33.042969 21.445312 C 32.984375 21.515625 32.925781 21.585938 32.871094 21.660156 C 32.820312 21.71875 32.773438 21.78125 32.722656 21.839844 C 32.617188 21.96875 32.515625 22.097656 32.414062 22.226562 C 32.355469 22.300781 32.296875 22.371094 32.238281 22.441406 C 32.191406 22.503906 32.144531 22.5625 32.097656 22.625 C 32.03125 22.707031 31.960938 22.789062 31.894531 22.871094 C 31.835938 22.941406 31.777344 23.015625 31.722656 23.085938 C 31.675781 23.148438 31.625 23.207031 31.574219 23.269531 C 31.472656 23.398438 31.367188 23.523438 31.265625 23.65625 C 31.207031 23.726562 31.148438 23.800781 31.089844 23.871094 C 31.042969 23.929688 30.996094 23.992188 30.949219 24.050781 C 30.882812 24.136719 30.816406 24.21875 30.746094 24.300781 C 30.6875 24.371094 30.628906 24.441406 30.574219 24.515625 C 30.527344 24.578125 30.476562 24.636719 30.429688 24.695312 C 30.324219 24.824219 30.21875 24.953125 30.117188 25.082031 C 30.058594 25.15625 30 25.226562 29.945312 25.296875 C 29.894531 25.359375 29.847656 25.417969 29.800781 25.480469 C 29.734375 25.5625 29.667969 25.644531 29.597656 25.726562 C 29.539062 25.796875 29.484375 25.871094 29.425781 25.945312 C 29.378906 26.003906 29.328125 26.066406 29.28125 26.125 C 29.175781 26.253906 29.070312 26.382812 28.96875 26.511719 C 28.910156 26.585938 28.855469 26.65625 28.796875 26.726562 C 28.746094 26.785156 28.699219 26.847656 28.652344 26.90625 C 28.585938 26.992188 28.519531 27.074219 28.449219 27.15625 C 28.390625 27.226562 28.335938 27.296875 28.277344 27.371094 C 28.230469 27.433594 28.179688 27.492188 28.132812 27.550781 C 28.027344 27.679688 27.921875 27.808594 27.820312 27.941406 C 27.765625 28.011719 27.707031 28.082031 27.648438 28.15625 C 27.597656 28.214844 27.550781 28.273438 27.503906 28.335938 C 27.4375 28.417969 27.371094 28.5 27.304688 28.582031 C 27.242188 28.65625 27.1875 28.726562 27.128906 28.800781 C 27.082031 28.859375 27.035156 28.921875 26.984375 28.980469 C 26.878906 29.109375 26.773438 29.238281 26.671875 29.367188 C 26.617188 29.441406 26.558594 29.511719 26.5 29.582031 C 26.449219 29.640625 26.402344 29.703125 26.355469 29.761719 C 26.289062 29.847656 26.222656 29.929688 26.15625 30.011719 C 26.097656 30.082031 26.039062 30.15625 25.980469 30.226562 C 25.933594 30.289062 25.886719 30.347656 25.835938 30.410156 C 25.730469 30.535156 25.625 30.664062 25.523438 30.796875 C 25.46875 30.867188 25.410156 30.9375 25.351562 31.011719 C 25.304688 31.070312 25.253906 31.128906 25.207031 31.191406 C 25.140625 31.273438 25.074219 31.359375 25.007812 31.441406 C 24.957031 31.5 24.90625 31.5625 24.855469 31.625 C 24.792969 31.710938 24.726562 31.792969 24.65625 31.875 C 24.597656 31.945312 24.539062 32.019531 24.480469 32.09375 C 24.464844 32.113281 24.445312 32.136719 24.429688 32.15625 C 24.421875 32.171875 24.421875 32.171875 24.417969 32.183594 C 24.402344 32.207031 24.402344 32.207031 24.359375 32.242188 C 24.234375 32.25 24.105469 32.214844 23.984375 32.191406 C 23.964844 32.1875 23.945312 32.183594 23.921875 32.179688 C 23.878906 32.167969 23.835938 32.160156 23.792969 32.152344 C 23.71875 32.136719 23.648438 32.125 23.574219 32.109375 C 23.472656 32.089844 23.367188 32.070312 23.265625 32.050781 C 23.097656 32.019531 22.933594 31.984375 22.769531 31.953125 C 22.738281 31.949219 22.710938 31.941406 22.683594 31.9375 C 22.640625 31.929688 22.597656 31.921875 22.554688 31.914062 C 22.46875 31.894531 22.382812 31.878906 22.296875 31.863281 C 21.710938 31.75 21.128906 31.636719 20.542969 31.523438 C 20.457031 31.507812 20.367188 31.492188 20.28125 31.472656 C 20.257812 31.46875 20.230469 31.464844 20.207031 31.460938 C 20.171875 31.453125 20.136719 31.445312 20.097656 31.4375 C 19.972656 31.414062 19.84375 31.390625 19.71875 31.367188 C 19.671875 31.359375 19.628906 31.347656 19.585938 31.339844 C 19.566406 31.335938 19.566406 31.335938 19.550781 31.335938 C 19.40625 31.304688 19.257812 31.277344 19.109375 31.25 C 19.03125 31.234375 18.953125 31.21875 18.875 31.203125 C 18.808594 31.191406 18.746094 31.179688 18.683594 31.167969 C 18.636719 31.15625 18.589844 31.148438 18.542969 31.140625 C 18.523438 31.136719 18.507812 31.132812 18.488281 31.128906 C 18.472656 31.125 18.457031 31.121094 18.441406 31.121094 C 18.429688 31.117188 18.414062 31.113281 18.402344 31.113281 C 18.367188 31.105469 18.367188 31.105469 18.324219 31.121094 C 18.304688 31.144531 18.304688 31.144531 18.28125 31.171875 C 18.214844 31.253906 18.136719 31.324219 18.058594 31.402344 C 18.007812 31.453125 17.960938 31.5 17.914062 31.554688 C 17.84375 31.636719 17.765625 31.710938 17.6875 31.789062 C 17.625 31.847656 17.566406 31.910156 17.511719 31.976562 C 17.449219 32.042969 17.382812 32.105469 17.320312 32.171875 C 17.265625 32.222656 17.21875 32.273438 17.171875 32.324219 C 17.101562 32.40625 17.027344 32.476562 16.953125 32.550781 C 16.902344 32.597656 16.855469 32.648438 16.808594 32.703125 C 16.738281 32.785156 16.660156 32.859375 16.582031 32.9375 C 16.519531 32.996094 16.460938 33.058594 16.40625 33.125 C 16.34375 33.191406 16.277344 33.253906 16.210938 33.320312 C 16.160156 33.371094 16.113281 33.417969 16.066406 33.472656 C 15.996094 33.554688 15.921875 33.625 15.847656 33.695312 C 15.796875 33.746094 15.746094 33.796875 15.699219 33.851562 C 15.632812 33.929688 15.558594 34.003906 15.484375 34.074219 C 15.433594 34.125 15.382812 34.175781 15.335938 34.230469 C 15.265625 34.3125 15.1875 34.386719 15.113281 34.460938 C 15.050781 34.523438 14.992188 34.585938 14.933594 34.648438 C 14.875 34.71875 14.808594 34.78125 14.742188 34.84375 C 14.691406 34.894531 14.640625 34.945312 14.59375 35 C 14.527344 35.078125 14.453125 35.148438 14.378906 35.222656 C 14.328125 35.273438 14.277344 35.324219 14.230469 35.378906 C 14.160156 35.460938 14.082031 35.535156 14.003906 35.609375 C 13.945312 35.671875 13.886719 35.730469 13.828125 35.796875 C 13.769531 35.867188 13.703125 35.929688 13.636719 35.992188 C 13.585938 36.042969 13.535156 36.09375 13.488281 36.148438 C 13.421875 36.226562 13.347656 36.296875 13.273438 36.371094 C 13.222656 36.421875 13.171875 36.472656 13.125 36.527344 C 13.058594 36.605469 12.980469 36.675781 12.910156 36.75 C 12.859375 36.800781 12.808594 36.847656 12.761719 36.902344 C 12.691406 36.984375 12.613281 37.058594 12.535156 37.136719 C 12.472656 37.195312 12.414062 37.257812 12.359375 37.324219 C 12.296875 37.390625 12.230469 37.453125 12.167969 37.519531 C 12.117188 37.570312 12.066406 37.621094 12.019531 37.675781 C 11.953125 37.753906 11.875 37.824219 11.800781 37.898438 C 11.75 37.949219 11.703125 37.996094 11.65625 38.050781 C 11.585938 38.132812 11.507812 38.207031 11.429688 38.285156 C 11.367188 38.34375 11.308594 38.40625 11.253906 38.472656 C 11.191406 38.539062 11.125 38.601562 11.058594 38.667969 C 11.007812 38.71875 10.960938 38.769531 10.914062 38.820312 C 10.84375 38.902344 10.769531 38.972656 10.695312 39.046875 C 10.644531 39.09375 10.59375 39.144531 10.550781 39.199219 C 10.480469 39.277344 10.40625 39.351562 10.332031 39.421875 C 10.28125 39.472656 10.230469 39.523438 10.183594 39.578125 C 10.113281 39.660156 10.035156 39.734375 9.960938 39.808594 C 9.898438 39.871094 9.839844 39.933594 9.785156 39.996094 C 9.722656 40.066406 9.65625 40.128906 9.589844 40.191406 C 9.539062 40.242188 9.488281 40.292969 9.441406 40.347656 C 9.375 40.425781 9.300781 40.5 9.226562 40.570312 C 9.175781 40.621094 9.125 40.671875 9.078125 40.726562 C 9.007812 40.808594 8.929688 40.882812 8.851562 40.957031 C 8.792969 41.019531 8.734375 41.082031 8.675781 41.144531 C 8.617188 41.214844 8.550781 41.277344 8.484375 41.339844 C 8.433594 41.390625 8.382812 41.441406 8.335938 41.496094 C 8.269531 41.574219 8.195312 41.644531 8.121094 41.71875 C 8.070312 41.769531 8.019531 41.820312 7.972656 41.875 C 7.90625 41.953125 7.832031 42.023438 7.757812 42.097656 C 7.707031 42.148438 7.65625 42.199219 7.609375 42.25 C 7.539062 42.332031 7.460938 42.40625 7.382812 42.484375 C 7.320312 42.542969 7.261719 42.605469 7.207031 42.671875 C 7.144531 42.738281 7.078125 42.804688 7.015625 42.867188 C 6.964844 42.917969 6.914062 42.96875 6.867188 43.023438 C 6.800781 43.101562 6.722656 43.171875 6.648438 43.246094 C 6.601562 43.296875 6.550781 43.34375 6.503906 43.398438 C 6.433594 43.480469 6.355469 43.554688 6.277344 43.632812 C 6.214844 43.691406 6.15625 43.753906 6.101562 43.820312 C 6.039062 43.886719 5.972656 43.949219 5.910156 44.015625 C 5.859375 44.066406 5.808594 44.117188 5.761719 44.171875 C 5.695312 44.25 5.617188 44.320312 5.542969 44.394531 C 5.492188 44.445312 5.445312 44.492188 5.398438 44.546875 C 5.328125 44.625 5.253906 44.699219 5.179688 44.769531 C 5.128906 44.820312 5.078125 44.871094 5.035156 44.925781 C 4.964844 45.007812 4.882812 45.082031 4.808594 45.15625 C 4.746094 45.21875 4.6875 45.28125 4.632812 45.34375 C 4.570312 45.414062 4.503906 45.476562 4.4375 45.542969 C 4.386719 45.589844 4.335938 45.640625 4.289062 45.695312 C 4.222656 45.773438 4.148438 45.847656 4.074219 45.917969 C 4.023438 45.96875 3.972656 46.019531 3.925781 46.074219 C 3.855469 46.15625 3.777344 46.230469 3.703125 46.304688 C 3.640625 46.367188 3.582031 46.429688 3.523438 46.492188 C 3.464844 46.5625 3.398438 46.625 3.332031 46.6875 C 3.28125 46.738281 3.230469 46.789062 3.1875 46.84375 C 3.125 46.914062 3.058594 46.980469 2.988281 47.046875 C 2.976562 47.058594 2.964844 47.074219 2.949219 47.085938 C 2.917969 47.117188 2.886719 47.148438 2.855469 47.179688 C 2.777344 47.113281 2.707031 47.046875 2.636719 46.972656 C 2.59375 46.933594 2.554688 46.890625 2.507812 46.851562 C 2.429688 46.785156 2.355469 46.710938 2.28125 46.632812 C 2.234375 46.582031 2.183594 46.535156 2.128906 46.488281 C 2.050781 46.417969 1.976562 46.34375 1.90625 46.269531 C 1.84375 46.210938 1.78125 46.152344 1.71875 46.09375 C 1.691406 46.070312 1.664062 46.046875 1.636719 46.019531 C 1.625 46.007812 1.625 46.007812 1.613281 45.992188 C 1.609375 45.988281 1.601562 45.980469 1.597656 45.976562 C 1.660156 45.839844 1.792969 45.734375 1.898438 45.632812 C 1.960938 45.570312 2.019531 45.511719 2.074219 45.445312 C 2.136719 45.375 2.203125 45.3125 2.269531 45.25 C 2.320312 45.199219 2.367188 45.148438 2.414062 45.09375 C 2.484375 45.015625 2.558594 44.945312 2.632812 44.871094 C 2.683594 44.820312 2.730469 44.769531 2.777344 44.714844 C 2.847656 44.636719 2.921875 44.566406 2.996094 44.492188 C 3.046875 44.441406 3.097656 44.394531 3.140625 44.339844 C 3.214844 44.257812 3.292969 44.183594 3.367188 44.105469 C 3.429688 44.046875 3.488281 43.984375 3.542969 43.917969 C 3.605469 43.851562 3.671875 43.785156 3.738281 43.722656 C 3.789062 43.671875 3.839844 43.621094 3.886719 43.566406 C 3.953125 43.488281 4.027344 43.417969 4.101562 43.34375 C 4.152344 43.292969 4.203125 43.246094 4.25 43.191406 C 4.316406 43.109375 4.390625 43.039062 4.464844 42.96875 C 4.515625 42.917969 4.566406 42.867188 4.613281 42.8125 C 4.683594 42.730469 4.761719 42.65625 4.839844 42.578125 C 4.898438 42.519531 4.957031 42.457031 5.015625 42.390625 C 5.074219 42.324219 5.140625 42.261719 5.207031 42.195312 C 5.257812 42.148438 5.308594 42.097656 5.355469 42.042969 C 5.421875 41.964844 5.496094 41.890625 5.570312 41.820312 C 5.621094 41.769531 5.671875 41.71875 5.71875 41.664062 C 5.785156 41.585938 5.863281 41.515625 5.9375 41.441406 C 5.984375 41.390625 6.035156 41.339844 6.082031 41.285156 C 6.152344 41.203125 6.230469 41.128906 6.308594 41.054688 C 6.371094 40.992188 6.429688 40.933594 6.484375 40.867188 C 6.546875 40.796875 6.613281 40.734375 6.675781 40.671875 C 6.726562 40.621094 6.777344 40.570312 6.824219 40.515625 C 6.894531 40.4375 6.96875 40.367188 7.042969 40.292969 C 7.09375 40.242188 7.140625 40.191406 7.1875 40.136719 C 7.257812 40.054688 7.335938 39.980469 7.414062 39.90625 C 7.476562 39.84375 7.535156 39.785156 7.589844 39.71875 C 7.652344 39.648438 7.71875 39.585938 7.785156 39.523438 C 7.835938 39.472656 7.882812 39.421875 7.929688 39.367188 C 8 39.289062 8.074219 39.21875 8.148438 39.144531 C 8.199219 39.09375 8.25 39.042969 8.296875 38.988281 C 8.363281 38.910156 8.4375 38.839844 8.511719 38.765625 C 8.5625 38.714844 8.613281 38.667969 8.660156 38.613281 C 8.730469 38.53125 8.808594 38.457031 8.882812 38.378906 C 8.945312 38.320312 9.003906 38.257812 9.0625 38.191406 C 9.121094 38.125 9.1875 38.0625 9.253906 37.996094 C 9.304688 37.945312 9.355469 37.894531 9.402344 37.84375 C 9.46875 37.761719 9.542969 37.691406 9.617188 37.617188 C 9.667969 37.570312 9.71875 37.519531 9.765625 37.464844 C 9.832031 37.386719 9.90625 37.3125 9.980469 37.242188 C 10.03125 37.191406 10.082031 37.140625 10.128906 37.085938 C 10.199219 37.003906 10.277344 36.929688 10.355469 36.855469 C 10.414062 36.792969 10.476562 36.730469 10.53125 36.667969 C 10.589844 36.597656 10.660156 36.535156 10.722656 36.472656 C 10.773438 36.421875 10.824219 36.371094 10.871094 36.316406 C 10.9375 36.238281 11.011719 36.164062 11.085938 36.09375 C 11.136719 36.042969 11.1875 35.992188 11.234375 35.9375 C 11.300781 35.859375 11.378906 35.789062 11.453125 35.714844 C 11.503906 35.664062 11.550781 35.613281 11.597656 35.558594 C 11.667969 35.476562 11.746094 35.402344 11.824219 35.328125 C 11.886719 35.265625 11.945312 35.207031 12 35.140625 C 12.0625 35.070312 12.128906 35.007812 12.195312 34.945312 C 12.246094 34.894531 12.292969 34.84375 12.339844 34.789062 C 12.410156 34.710938 12.484375 34.640625 12.558594 34.566406 C 12.609375 34.515625 12.660156 34.464844 12.703125 34.410156 C 12.773438 34.332031 12.847656 34.261719 12.921875 34.1875 C 12.972656 34.140625 13.023438 34.089844 13.070312 34.035156 C 13.140625 33.953125 13.21875 33.878906 13.292969 33.800781 C 13.355469 33.742188 13.414062 33.679688 13.472656 33.613281 C 13.53125 33.546875 13.597656 33.484375 13.664062 33.417969 C 13.714844 33.367188 13.765625 33.316406 13.8125 33.265625 C 13.878906 33.183594 13.953125 33.113281 14.027344 33.039062 C 14.078125 32.992188 14.128906 32.941406 14.175781 32.886719 C 14.242188 32.808594 14.316406 32.734375 14.390625 32.664062 C 14.441406 32.613281 14.492188 32.5625 14.539062 32.507812 C 14.609375 32.425781 14.6875 32.351562 14.765625 32.277344 C 14.824219 32.214844 14.882812 32.152344 14.941406 32.089844 C 15 32.019531 15.070312 31.957031 15.132812 31.894531 C 15.183594 31.84375 15.234375 31.792969 15.28125 31.738281 C 15.347656 31.660156 15.421875 31.585938 15.496094 31.515625 C 15.546875 31.464844 15.597656 31.414062 15.644531 31.359375 C 15.714844 31.277344 15.792969 31.203125 15.871094 31.128906 C 15.933594 31.066406 15.992188 31.003906 16.046875 30.941406 C 16.109375 30.871094 16.175781 30.808594 16.238281 30.746094 C 16.289062 30.695312 16.339844 30.644531 16.386719 30.589844 C 16.453125 30.511719 16.53125 30.441406 16.605469 30.367188 C 16.65625 30.316406 16.703125 30.265625 16.75 30.210938 C 16.820312 30.132812 16.894531 30.0625 16.96875 29.988281 C 17.019531 29.9375 17.066406 29.886719 17.113281 29.835938 C 17.183594 29.753906 17.261719 29.679688 17.339844 29.601562 C 17.417969 29.523438 17.492188 29.445312 17.566406 29.359375 C 17.585938 29.332031 17.609375 29.304688 17.632812 29.277344 C 17.640625 29.269531 17.648438 29.261719 17.65625 29.25 C 17.683594 29.222656 17.703125 29.207031 17.738281 29.191406 C 17.777344 29.191406 17.777344 29.191406 17.820312 29.199219 C 17.835938 29.203125 17.851562 29.207031 17.871094 29.207031 C 17.886719 29.210938 17.902344 29.214844 17.921875 29.21875 C 17.945312 29.222656 17.945312 29.222656 17.96875 29.226562 C 18.019531 29.234375 18.070312 29.246094 18.121094 29.253906 C 18.140625 29.257812 18.160156 29.261719 18.179688 29.265625 C 18.230469 29.277344 18.285156 29.289062 18.339844 29.296875 C 18.398438 29.308594 18.453125 29.320312 18.511719 29.332031 C 18.625 29.351562 18.738281 29.375 18.851562 29.394531 C 18.984375 29.421875 19.117188 29.449219 19.253906 29.472656 C 19.609375 29.542969 19.96875 29.609375 20.328125 29.679688 C 20.359375 29.6875 20.386719 29.691406 20.417969 29.695312 C 20.917969 29.792969 21.414062 29.890625 21.914062 29.984375 C 21.933594 29.988281 21.933594 29.988281 21.957031 29.992188 C 22.023438 30.007812 22.09375 30.019531 22.160156 30.03125 C 22.289062 30.058594 22.414062 30.082031 22.542969 30.105469 C 22.589844 30.117188 22.636719 30.125 22.683594 30.132812 C 22.695312 30.136719 22.707031 30.136719 22.71875 30.140625 C 22.851562 30.164062 22.980469 30.191406 23.113281 30.21875 C 23.175781 30.230469 23.242188 30.242188 23.304688 30.253906 C 23.34375 30.261719 23.386719 30.269531 23.425781 30.277344 C 23.449219 30.28125 23.472656 30.289062 23.496094 30.292969 C 23.511719 30.296875 23.511719 30.296875 23.527344 30.296875 C 23.59375 30.3125 23.59375 30.3125 23.660156 30.296875 C 23.683594 30.269531 23.707031 30.242188 23.730469 30.210938 C 23.742188 30.191406 23.757812 30.175781 23.769531 30.15625 C 23.777344 30.148438 23.785156 30.136719 23.792969 30.128906 C 23.828125 30.082031 23.867188 30.035156 23.90625 29.988281 C 23.960938 29.917969 24.015625 29.847656 24.070312 29.777344 C 24.136719 29.695312 24.207031 29.613281 24.273438 29.53125 C 24.332031 29.460938 24.386719 29.390625 24.441406 29.320312 C 24.5 29.246094 24.554688 29.175781 24.613281 29.105469 C 24.664062 29.046875 24.710938 28.984375 24.757812 28.925781 C 24.824219 28.839844 24.890625 28.757812 24.960938 28.675781 C 25.019531 28.605469 25.074219 28.535156 25.132812 28.460938 C 25.179688 28.398438 25.230469 28.339844 25.277344 28.28125 C 25.382812 28.152344 25.488281 28.023438 25.589844 27.890625 C 25.644531 27.820312 25.703125 27.75 25.761719 27.675781 C 25.8125 27.617188 25.859375 27.558594 25.90625 27.496094 C 25.972656 27.414062 26.039062 27.332031 26.105469 27.25 C 26.167969 27.175781 26.222656 27.105469 26.28125 27.03125 C 26.328125 26.972656 26.375 26.910156 26.425781 26.851562 C 26.53125 26.722656 26.636719 26.59375 26.738281 26.464844 C 26.792969 26.390625 26.851562 26.320312 26.910156 26.25 C 26.957031 26.191406 27.007812 26.128906 27.054688 26.070312 C 27.121094 25.984375 27.1875 25.902344 27.253906 25.820312 C 27.3125 25.75 27.371094 25.675781 27.429688 25.605469 C 27.476562 25.542969 27.523438 25.484375 27.574219 25.421875 C 27.679688 25.296875 27.785156 25.167969 27.886719 25.035156 C 27.941406 24.964844 28 24.890625 28.058594 24.820312 C 28.105469 24.761719 28.15625 24.703125 28.203125 24.640625 C 28.269531 24.558594 28.335938 24.476562 28.402344 24.394531 C 28.460938 24.320312 28.519531 24.25 28.578125 24.175781 C 28.625 24.117188 28.671875 24.054688 28.722656 23.996094 C 28.828125 23.867188 28.933594 23.738281 29.035156 23.609375 C 29.089844 23.535156 29.148438 23.464844 29.207031 23.394531 C 29.253906 23.332031 29.304688 23.273438 29.351562 23.210938 C 29.414062 23.128906 29.484375 23.046875 29.550781 22.964844 C 29.609375 22.894531 29.667969 22.820312 29.722656 22.75 C 29.773438 22.6875 29.820312 22.628906 29.871094 22.566406 C 29.976562 22.4375 30.078125 22.3125 30.183594 22.179688 C 30.238281 22.109375 30.296875 22.035156 30.355469 21.964844 C 30.402344 21.90625 30.449219 21.84375 30.5 21.785156 C 30.5625 21.699219 30.632812 21.617188 30.699219 21.535156 C 30.757812 21.464844 30.816406 21.394531 30.871094 21.320312 C 30.921875 21.257812 30.96875 21.199219 31.019531 21.140625 C 31.125 21.011719 31.226562 20.882812 31.328125 20.753906 C 31.386719 20.679688 31.445312 20.609375 31.503906 20.539062 C 31.550781 20.476562 31.597656 20.417969 31.644531 20.355469 C 31.710938 20.273438 31.777344 20.191406 31.847656 20.109375 C 31.90625 20.039062 31.964844 19.964844 32.019531 19.890625 C 32.066406 19.832031 32.117188 19.769531 32.164062 19.710938 C 32.269531 19.582031 32.375 19.453125 32.476562 19.324219 C 32.535156 19.25 32.59375 19.179688 32.648438 19.109375 C 32.699219 19.050781 32.746094 18.988281 32.792969 18.929688 C 32.859375 18.84375 32.925781 18.761719 32.996094 18.679688 C 33.054688 18.609375 33.113281 18.539062 33.167969 18.464844 C 33.214844 18.402344 33.265625 18.34375 33.3125 18.285156 C 33.417969 18.15625 33.523438 18.027344 33.625 17.894531 C 33.683594 17.824219 33.742188 17.753906 33.796875 17.679688 C 33.847656 17.621094 33.894531 17.5625 33.941406 17.5 C 34.007812 17.417969 34.074219 17.335938 34.144531 17.253906 C 34.203125 17.179688 34.257812 17.109375 34.316406 17.035156 C 34.363281 16.976562 34.414062 16.914062 34.460938 16.855469 C 34.566406 16.726562 34.671875 16.597656 34.773438 16.46875 C 34.832031 16.394531 34.886719 16.324219 34.945312 16.253906 C 34.996094 16.195312 35.042969 16.132812 35.089844 16.074219 C 35.15625 15.988281 35.222656 15.90625 35.292969 15.824219 C 35.351562 15.753906 35.40625 15.679688 35.464844 15.609375 C 35.511719 15.546875 35.5625 15.488281 35.609375 15.425781 C 35.714844 15.300781 35.820312 15.171875 35.921875 15.039062 C 35.976562 14.96875 36.035156 14.898438 36.09375 14.824219 C 36.144531 14.765625 36.191406 14.707031 36.238281 14.644531 C 36.304688 14.5625 36.371094 14.480469 36.4375 14.398438 C 36.5 14.324219 36.558594 14.246094 36.617188 14.171875 C 36.644531 14.140625 36.667969 14.113281 36.695312 14.085938 Z M 36.695312 14.085938 " style=" stroke:none;fill-rule:nonzero;fill:rgb(61.176473%,47.058824%,13.333334%);fill-opacity:1;"/><path d="M 51.570312 38.902344 C 51.589844 38.902344 51.589844 38.902344 51.613281 38.902344 C 52.417969 38.90625 53.28125 39.140625 53.898438 39.675781 C 53.910156 39.6875 53.921875 39.695312 53.933594 39.707031 C 53.96875 39.738281 54.003906 39.769531 54.039062 39.800781 C 54.050781 39.8125 54.0625 39.824219 54.078125 39.835938 C 54.460938 40.207031 54.710938 40.71875 54.796875 41.242188 C 54.800781 41.265625 54.800781 41.265625 54.804688 41.289062 C 54.832031 41.476562 54.828125 41.664062 54.828125 41.851562 C 54.828125 41.871094 54.828125 41.886719 54.828125 41.90625 C 54.828125 42.179688 54.820312 42.445312 54.78125 42.714844 C 54.78125 42.730469 54.777344 42.75 54.773438 42.765625 C 54.648438 43.621094 54.433594 44.472656 54.230469 45.3125 C 54.082031 45.921875 53.949219 46.535156 53.820312 47.148438 C 53.804688 47.222656 53.789062 47.292969 53.773438 47.367188 C 53.53125 48.515625 53.296875 49.664062 53.082031 50.816406 C 53.070312 50.875 53.0625 50.933594 53.050781 50.992188 C 53.042969 51.035156 53.035156 51.074219 53.027344 51.117188 C 53.023438 51.140625 53.019531 51.164062 53.011719 51.1875 C 53.011719 51.199219 53.007812 51.210938 53.007812 51.222656 C 52.996094 51.285156 52.980469 51.347656 52.960938 51.40625 C 52.925781 51.40625 52.890625 51.402344 52.855469 51.402344 C 52.84375 51.402344 52.835938 51.402344 52.824219 51.398438 C 52.761719 51.398438 52.699219 51.390625 52.636719 51.386719 C 52.527344 51.378906 52.421875 51.375 52.3125 51.371094 C 52.300781 51.371094 52.300781 51.371094 52.285156 51.371094 C 52.0625 51.363281 51.84375 51.363281 51.625 51.363281 C 51.570312 51.363281 51.515625 51.363281 51.460938 51.363281 C 51.371094 51.363281 51.277344 51.363281 51.1875 51.363281 C 51.082031 51.363281 50.980469 51.363281 50.875 51.363281 C 50.785156 51.363281 50.695312 51.363281 50.605469 51.363281 C 50.550781 51.363281 50.496094 51.363281 50.445312 51.363281 C 50.230469 51.363281 50.015625 51.367188 49.800781 51.371094 C 49.785156 51.371094 49.765625 51.375 49.75 51.375 C 49.613281 51.378906 49.476562 51.390625 49.34375 51.402344 C 49.292969 51.40625 49.246094 51.410156 49.195312 51.40625 C 49.214844 51.3125 49.242188 51.222656 49.269531 51.128906 C 49.28125 51.097656 49.289062 51.066406 49.300781 51.035156 C 49.304688 51.019531 49.3125 51.003906 49.316406 50.988281 C 49.644531 49.945312 49.9375 48.886719 50.292969 47.535156 C 50.3125 47.464844 50.328125 47.398438 50.347656 47.328125 C 50.613281 46.316406 50.855469 45.292969 51.070312 44.269531 C 51.074219 44.25 51.078125 44.234375 51.082031 44.214844 C 51.457031 42.785156 51.457031 42.785156 51.140625 41.410156 C 50.925781 41.113281 50.648438 40.953125 50.292969 40.890625 C 49.722656 40.804688 49.125 40.96875 48.660156 41.304688 C 48.613281 41.339844 48.570312 41.375 48.523438 41.410156 C 48.515625 41.417969 48.507812 41.425781 48.5 41.433594 C 48.347656 41.558594 48.203125 41.691406 48.078125 41.847656 C 48.046875 41.886719 48.015625 41.925781 47.980469 41.964844 C 47.886719 42.078125 47.808594 42.199219 47.726562 42.320312 C 47.71875 42.332031 47.714844 42.339844 47.707031 42.347656 C 46.984375 43.429688 46.707031 44.824219 45.921875 48.382812 C 45.917969 48.394531 45.914062 48.40625 45.914062 48.417969 C 45.761719 49.164062 45.625 49.914062 45.492188 50.664062 C 45.488281 50.679688 45.484375 50.695312 45.480469 50.710938 C 45.457031 50.851562 45.429688 50.992188 45.40625 51.132812 C 45.402344 51.152344 45.398438 51.171875 45.398438 51.191406 C 45.390625 51.222656 45.386719 51.257812 45.378906 51.289062 C 45.375 51.3125 45.375 51.3125 45.371094 51.332031 C 45.371094 51.34375 45.367188 51.355469 45.367188 51.367188 C 45.359375 51.394531 45.359375 51.394531 45.347656 51.40625 C 45.3125 51.40625 45.277344 51.40625 45.246094 51.402344 C 45.226562 51.402344 45.207031 51.398438 45.191406 51.398438 C 45.152344 51.394531 45.117188 51.394531 45.078125 51.390625 C 44.578125 51.351562 44.074219 51.363281 43.570312 51.363281 C 43.484375 51.363281 43.394531 51.363281 43.308594 51.363281 C 43.222656 51.363281 43.136719 51.363281 43.050781 51.363281 C 43 51.363281 42.953125 51.363281 42.902344 51.363281 C 42.699219 51.363281 42.5 51.367188 42.296875 51.371094 C 42.28125 51.371094 42.265625 51.375 42.25 51.375 C 42.109375 51.378906 41.96875 51.390625 41.824219 51.40625 C 41.777344 51.410156 41.726562 51.410156 41.679688 51.40625 C 41.695312 51.34375 41.714844 51.28125 41.734375 51.21875 C 41.738281 51.203125 41.738281 51.203125 41.742188 51.191406 C 41.777344 51.0625 41.816406 50.9375 41.851562 50.808594 C 42.023438 50.226562 42.1875 49.644531 42.339844 49.058594 C 42.351562 49.027344 42.359375 48.996094 42.367188 48.964844 C 42.675781 47.8125 42.972656 46.652344 43.714844 41.484375 C 43.550781 41.210938 43.296875 41.050781 42.992188 40.972656 C 42.582031 40.878906 42.148438 40.90625 41.746094 41.035156 C 41.738281 41.035156 41.730469 41.039062 41.71875 41.042969 C 41.382812 41.152344 41.089844 41.347656 40.824219 41.578125 C 40.816406 41.585938 40.808594 41.59375 40.800781 41.601562 C 40.714844 41.675781 40.632812 41.757812 40.558594 41.847656 C 40.542969 41.863281 40.542969 41.863281 40.523438 41.882812 C 39.640625 42.894531 39.324219 44.292969 37.886719 51.15625 C 37.882812 51.175781 37.882812 51.175781 37.878906 51.195312 C 37.878906 51.21875 37.875 51.242188 37.871094 51.265625 C 37.863281 51.316406 37.855469 51.363281 37.84375 51.40625 C 37.804688 51.40625 37.769531 51.402344 37.734375 51.402344 C 37.71875 51.402344 37.71875 51.402344 37.707031 51.398438 C 37.640625 51.398438 37.578125 51.390625 37.511719 51.386719 C 37.046875 51.355469 36.574219 51.363281 36.105469 51.363281 C 36.035156 51.363281 35.960938 51.363281 35.890625 51.363281 C 35.132812 51.359375 35.132812 51.359375 34.375 51.402344 C 34.328125 51.40625 34.277344 51.410156 34.230469 51.40625 C 34.238281 51.308594 34.265625 51.21875 34.292969 51.121094 C 34.296875 51.09375 34.304688 51.070312 34.3125 51.042969 C 34.320312 51.011719 34.328125 50.984375 34.335938 50.957031 C 34.367188 50.851562 34.394531 50.75 34.425781 50.648438 C 34.429688 50.628906 34.429688 50.628906 34.433594 50.613281 C 34.75 49.476562 35.03125 48.332031 35.320312 47.039062 C 35.324219 47.023438 35.324219 47.023438 35.328125 47.003906 C 35.546875 46.039062 35.757812 45.070312 35.964844 44.101562 C 35.96875 44.089844 35.96875 44.078125 35.972656 44.070312 C 36.039062 43.757812 36.105469 43.445312 36.171875 43.132812 C 36.1875 43.054688 36.207031 42.980469 36.222656 42.90625 C 36.347656 42.324219 36.460938 41.742188 36.570312 41.160156 C 36.585938 41.074219 36.605469 40.988281 36.621094 40.902344 C 36.625 40.875 36.628906 40.847656 36.636719 40.820312 C 36.6875 40.535156 36.742188 40.253906 36.800781 39.96875 C 36.84375 39.769531 36.878906 39.570312 36.914062 39.367188 C 36.917969 39.351562 36.917969 39.351562 36.921875 39.332031 C 36.925781 39.3125 36.929688 39.292969 36.933594 39.269531 C 36.945312 39.203125 36.945312 39.203125 36.960938 39.1875 C 37.089844 39.1875 37.222656 39.210938 37.351562 39.226562 C 38.214844 39.328125 39.085938 39.328125 39.949219 39.226562 C 40.085938 39.207031 40.222656 39.195312 40.363281 39.1875 C 40.355469 39.253906 40.339844 39.320312 40.320312 39.382812 C 40.316406 39.40625 40.308594 39.425781 40.304688 39.445312 C 40.300781 39.453125 40.296875 39.464844 40.292969 39.476562 C 40.179688 39.878906 40.089844 40.285156 40.003906 40.695312 C 40 40.714844 40 40.714844 39.996094 40.738281 C 39.984375 40.78125 39.976562 40.820312 39.96875 40.863281 C 39.964844 40.875 39.960938 40.886719 39.960938 40.902344 C 39.957031 40.914062 39.957031 40.921875 39.953125 40.933594 C 39.949219 40.945312 39.949219 40.957031 39.945312 40.964844 C 39.941406 40.996094 39.941406 40.996094 39.941406 41.035156 C 40.039062 40.929688 40.039062 40.929688 40.132812 40.820312 C 40.171875 40.777344 40.210938 40.738281 40.253906 40.695312 C 40.277344 40.671875 40.300781 40.644531 40.324219 40.617188 C 40.375 40.558594 40.429688 40.5 40.488281 40.445312 C 40.496094 40.4375 40.503906 40.425781 40.515625 40.417969 C 40.578125 40.355469 40.644531 40.292969 40.710938 40.234375 C 40.726562 40.222656 40.742188 40.210938 40.753906 40.199219 C 41.273438 39.753906 41.875 39.417969 42.519531 39.1875 C 42.53125 39.179688 42.542969 39.175781 42.554688 39.171875 C 42.988281 39.011719 43.464844 38.933594 43.925781 38.929688 C 43.949219 38.929688 43.949219 38.929688 43.976562 38.929688 C 44.007812 38.929688 44.042969 38.929688 44.078125 38.929688 C 44.128906 38.929688 44.179688 38.929688 44.234375 38.929688 C 45.066406 38.925781 45.847656 39.171875 46.453125 39.761719 C 46.867188 40.175781 47.066406 40.71875 47.222656 41.273438 C 47.234375 41.257812 47.246094 41.246094 47.257812 41.234375 C 47.269531 41.214844 47.285156 41.195312 47.300781 41.179688 C 47.308594 41.167969 47.316406 41.160156 47.324219 41.152344 C 47.457031 40.996094 47.601562 40.847656 47.746094 40.703125 C 47.773438 40.679688 47.796875 40.652344 47.824219 40.628906 C 47.90625 40.546875 47.988281 40.464844 48.074219 40.390625 C 48.089844 40.375 48.105469 40.363281 48.121094 40.347656 C 48.226562 40.257812 48.332031 40.171875 48.441406 40.085938 C 48.46875 40.070312 48.492188 40.050781 48.515625 40.03125 C 48.785156 39.820312 49.078125 39.628906 49.378906 39.464844 C 49.386719 39.460938 49.398438 39.453125 49.410156 39.449219 C 49.847656 39.203125 50.328125 39.042969 50.824219 38.957031 C 50.84375 38.957031 50.84375 38.957031 50.859375 38.953125 C 51.097656 38.914062 51.332031 38.902344 51.570312 38.902344 Z M 51.570312 38.902344 " style=" stroke:none;fill-rule:nonzero;fill:rgb(0%,0%,0%);fill-opacity:1;"/><path d="M 63.03125 38.929688 C 63.039062 38.929688 63.050781 38.929688 63.0625 38.929688 C 63.113281 38.929688 63.164062 38.929688 63.214844 38.929688 C 63.257812 38.929688 63.300781 38.929688 63.339844 38.929688 C 64.351562 38.921875 65.535156 39.089844 66.316406 39.789062 C 66.328125 39.796875 66.339844 39.808594 66.351562 39.816406 C 66.386719 39.847656 66.421875 39.882812 66.457031 39.914062 C 66.464844 39.921875 66.472656 39.929688 66.480469 39.933594 C 67.027344 40.449219 67.277344 41.15625 67.300781 41.898438 C 67.308594 42.460938 67.242188 43.011719 67.136719 43.566406 C 67.132812 43.589844 67.132812 43.589844 67.128906 43.617188 C 67.0625 43.976562 66.984375 44.332031 66.90625 44.6875 C 66.886719 44.777344 66.867188 44.867188 66.847656 44.953125 C 66.839844 44.992188 66.832031 45.027344 66.824219 45.066406 C 66.820312 45.074219 66.820312 45.085938 66.816406 45.09375 C 66.804688 45.160156 66.789062 45.226562 66.773438 45.296875 C 66.710938 45.585938 66.648438 45.878906 66.585938 46.171875 C 66.582031 46.179688 66.578125 46.191406 66.578125 46.203125 C 66.550781 46.332031 66.519531 46.460938 66.492188 46.59375 C 66.46875 46.714844 66.441406 46.835938 66.414062 46.960938 C 66.390625 47.066406 66.367188 47.171875 66.347656 47.277344 C 66.3125 47.4375 66.277344 47.597656 66.242188 47.757812 C 66.226562 47.820312 66.214844 47.886719 66.199219 47.953125 C 66.191406 47.984375 66.1875 48.011719 66.179688 48.042969 C 65.898438 49.230469 65.898438 49.230469 66.179688 50.371094 C 66.261719 50.488281 66.398438 50.542969 66.535156 50.5625 C 66.714844 50.585938 66.839844 50.535156 66.992188 50.449219 C 67.03125 50.429688 67.03125 50.429688 67.074219 50.429688 C 67.101562 50.507812 67.128906 50.585938 67.160156 50.664062 C 67.167969 50.691406 67.175781 50.71875 67.1875 50.746094 C 67.203125 50.78125 67.214844 50.820312 67.226562 50.859375 C 67.234375 50.871094 67.238281 50.882812 67.242188 50.894531 C 67.246094 50.90625 67.25 50.917969 67.253906 50.929688 C 67.257812 50.941406 67.261719 50.949219 67.265625 50.960938 C 67.269531 50.992188 67.269531 51.011719 67.257812 51.042969 C 67.230469 51.066406 67.203125 51.085938 67.171875 51.105469 C 67.164062 51.109375 67.15625 51.117188 67.144531 51.125 C 66.570312 51.488281 65.996094 51.625 65.324219 51.644531 C 65.3125 51.644531 65.304688 51.648438 65.292969 51.648438 C 64.789062 51.660156 64.285156 51.59375 63.839844 51.351562 C 63.824219 51.34375 63.808594 51.335938 63.796875 51.328125 C 63.253906 51.027344 62.996094 50.511719 62.832031 49.933594 C 62.824219 49.886719 62.824219 49.886719 62.804688 49.867188 C 62.796875 49.882812 62.789062 49.898438 62.777344 49.910156 C 62.539062 50.332031 62.226562 50.746094 61.839844 51.042969 C 61.832031 51.050781 61.824219 51.054688 61.816406 51.0625 C 60.976562 51.707031 59.785156 51.84375 58.757812 51.714844 C 58.328125 51.660156 57.910156 51.546875 57.527344 51.339844 C 57.519531 51.332031 57.507812 51.328125 57.5 51.324219 C 56.832031 50.964844 56.355469 50.34375 56.132812 49.621094 C 55.828125 48.570312 55.988281 47.449219 56.492188 46.496094 C 56.65625 46.191406 56.867188 45.917969 57.105469 45.667969 C 57.117188 45.65625 57.128906 45.644531 57.140625 45.632812 C 57.222656 45.546875 57.308594 45.472656 57.398438 45.402344 C 57.40625 45.394531 57.414062 45.390625 57.425781 45.382812 C 57.574219 45.261719 57.734375 45.160156 57.902344 45.066406 C 57.914062 45.0625 57.921875 45.054688 57.929688 45.050781 C 58.867188 44.507812 60.058594 44.425781 61.105469 44.28125 C 61.125 44.28125 61.144531 44.277344 61.160156 44.277344 C 61.34375 44.25 61.527344 44.226562 61.710938 44.203125 C 62.164062 44.140625 62.164062 44.140625 62.617188 44.074219 C 62.636719 44.070312 62.660156 44.066406 62.679688 44.066406 C 62.871094 44.035156 63.074219 44 63.246094 43.90625 C 63.253906 43.902344 63.265625 43.894531 63.273438 43.890625 C 63.347656 43.851562 63.414062 43.808594 63.476562 43.75 C 63.484375 43.742188 63.492188 43.738281 63.5 43.730469 C 63.792969 43.425781 63.777344 42.886719 63.773438 42.496094 C 63.761719 42.015625 63.621094 41.585938 63.292969 41.230469 C 63.285156 41.21875 63.273438 41.207031 63.261719 41.195312 C 62.910156 40.820312 62.402344 40.6875 61.90625 40.628906 C 61.894531 40.625 61.878906 40.625 61.863281 40.621094 C 61.15625 40.554688 60.441406 40.703125 59.808594 41.007812 C 59.796875 41.011719 59.785156 41.015625 59.773438 41.023438 C 59.472656 41.164062 59.109375 41.34375 58.871094 41.578125 C 58.84375 41.582031 58.816406 41.582031 58.792969 41.582031 C 58.777344 41.582031 58.765625 41.582031 58.75 41.582031 C 58.734375 41.582031 58.734375 41.582031 58.714844 41.578125 C 58.71875 41.566406 58.71875 41.554688 58.71875 41.542969 C 58.730469 41.421875 58.742188 41.304688 58.753906 41.183594 C 58.757812 41.121094 58.765625 41.0625 58.769531 41 C 58.777344 40.941406 58.78125 40.882812 58.785156 40.820312 C 58.789062 40.796875 58.789062 40.773438 58.792969 40.75 C 58.804688 40.632812 58.816406 40.515625 58.820312 40.394531 C 58.824219 40.378906 58.824219 40.359375 58.824219 40.339844 C 58.828125 40.308594 58.828125 40.273438 58.828125 40.238281 C 58.832031 40.226562 58.832031 40.210938 58.832031 40.195312 C 58.832031 40.183594 58.832031 40.171875 58.832031 40.15625 C 58.84375 40.113281 58.863281 40.097656 58.898438 40.066406 C 58.925781 40.050781 58.953125 40.035156 58.980469 40.023438 C 58.996094 40.015625 59.011719 40.003906 59.03125 39.996094 C 59.046875 39.988281 59.066406 39.980469 59.082031 39.96875 C 59.101562 39.960938 59.121094 39.953125 59.136719 39.941406 C 59.183594 39.917969 59.230469 39.894531 59.277344 39.871094 C 59.300781 39.859375 59.324219 39.847656 59.351562 39.835938 C 60.347656 39.332031 61.4375 39.058594 63.03125 38.929688 Z M 63.433594 44.96875 C 61.9375 45.167969 61.9375 45.167969 60.578125 45.78125 C 60.566406 45.789062 60.566406 45.789062 60.554688 45.796875 C 60.335938 45.949219 60.164062 46.144531 60.019531 46.367188 C 60.007812 46.382812 59.996094 46.398438 59.988281 46.414062 C 59.5625 47.105469 59.40625 48.15625 59.585938 48.945312 C 59.652344 49.21875 59.753906 49.515625 59.949219 49.726562 C 59.957031 49.738281 59.960938 49.746094 59.96875 49.753906 C 60.152344 49.953125 60.453125 50.054688 60.71875 50.066406 C 61.207031 50.078125 61.617188 49.988281 61.980469 49.644531 C 62.097656 49.53125 62.207031 49.414062 62.300781 49.28125 C 62.304688 49.269531 62.3125 49.261719 62.316406 49.253906 C 62.539062 48.921875 62.691406 48.546875 62.792969 48.160156 C 62.800781 48.144531 62.804688 48.128906 62.808594 48.113281 C 62.855469 47.933594 62.894531 47.753906 62.933594 47.570312 C 62.941406 47.539062 62.945312 47.511719 62.953125 47.480469 C 63.03125 47.121094 63.105469 46.757812 63.175781 46.390625 C 63.195312 46.308594 63.210938 46.222656 63.226562 46.136719 C 63.257812 45.988281 63.285156 45.839844 63.316406 45.691406 C 63.328125 45.628906 63.339844 45.570312 63.351562 45.511719 C 63.363281 45.4375 63.378906 45.367188 63.390625 45.296875 C 63.398438 45.269531 63.402344 45.242188 63.40625 45.214844 C 63.414062 45.179688 63.421875 45.144531 63.429688 45.105469 C 63.429688 45.09375 63.433594 45.085938 63.433594 45.074219 C 63.449219 45.019531 63.449219 45.019531 63.433594 44.96875 Z M 63.433594 44.96875 " style=" stroke:none;fill-rule:nonzero;fill:rgb(0%,0%,0%);fill-opacity:1;"/><path d="M 29.757812 38.929688 C 29.769531 38.929688 29.777344 38.929688 29.789062 38.929688 C 29.851562 38.929688 29.910156 38.929688 29.972656 38.929688 C 30.019531 38.929688 30.066406 38.929688 30.117188 38.929688 C 30.382812 38.929688 30.644531 38.933594 30.910156 38.953125 C 30.921875 38.953125 30.933594 38.953125 30.945312 38.957031 C 32.074219 39.046875 33.203125 39.359375 34.746094 40.125 C 34.761719 40.128906 34.773438 40.136719 34.785156 40.144531 C 34.824219 40.164062 34.859375 40.179688 34.894531 40.199219 C 34.90625 40.207031 34.917969 40.210938 34.929688 40.21875 C 34.984375 40.246094 35.035156 40.277344 35.085938 40.320312 C 35.078125 40.328125 35.074219 40.335938 35.066406 40.347656 C 35.015625 40.425781 34.96875 40.507812 34.917969 40.585938 C 34.886719 40.636719 34.855469 40.683594 34.824219 40.734375 C 34.4375 41.351562 34.15625 42 33.898438 42.679688 C 33.851562 42.804688 33.804688 42.925781 33.753906 43.050781 C 33.554688 43.050781 33.355469 43.050781 33.152344 43.050781 C 33.148438 42.964844 33.148438 42.964844 33.148438 42.882812 C 33.128906 42.390625 33.066406 41.929688 32.859375 41.480469 C 32.851562 41.472656 32.847656 41.460938 32.84375 41.453125 C 32.785156 41.324219 32.71875 41.203125 32.632812 41.089844 C 32.625 41.074219 32.613281 41.0625 32.605469 41.046875 C 32.265625 40.582031 31.773438 40.300781 31.222656 40.171875 C 31.207031 40.167969 31.195312 40.164062 31.183594 40.160156 C 30.988281 40.117188 30.792969 40.105469 30.589844 40.105469 C 30.570312 40.105469 30.570312 40.105469 30.554688 40.105469 C 29.871094 40.109375 29.257812 40.332031 28.714844 40.738281 C 28.707031 40.746094 28.699219 40.753906 28.691406 40.757812 C 28.425781 40.957031 28.171875 41.191406 27.972656 41.453125 C 27.957031 41.472656 27.941406 41.492188 27.929688 41.507812 C 27.675781 41.824219 27.460938 42.167969 27.285156 42.53125 C 27.269531 42.5625 27.253906 42.597656 27.238281 42.628906 C 27.0625 42.980469 26.921875 43.351562 26.796875 43.722656 C 26.789062 43.738281 26.785156 43.757812 26.777344 43.773438 C 26.421875 44.832031 26.175781 46.039062 26.65625 48.5 C 26.679688 48.546875 26.703125 48.589844 26.726562 48.636719 C 26.730469 48.644531 26.734375 48.652344 26.742188 48.664062 C 26.9375 49.035156 27.203125 49.351562 27.539062 49.601562 C 27.550781 49.613281 27.5625 49.621094 27.578125 49.632812 C 27.679688 49.710938 27.789062 49.777344 27.902344 49.839844 C 27.910156 49.84375 27.917969 49.851562 27.925781 49.855469 C 28.261719 50.046875 28.640625 50.148438 29.023438 50.191406 C 29.035156 50.191406 29.046875 50.191406 29.058594 50.195312 C 29.195312 50.207031 29.332031 50.207031 29.472656 50.207031 C 29.484375 50.207031 29.496094 50.207031 29.511719 50.207031 C 29.929688 50.207031 30.347656 50.160156 30.742188 50.007812 C 30.757812 50.003906 30.757812 50.003906 30.769531 49.996094 C 31.222656 49.824219 31.671875 49.5 32.042969 49.195312 C 32.050781 49.1875 32.0625 49.179688 32.070312 49.171875 C 32.089844 49.15625 32.113281 49.136719 32.132812 49.117188 C 32.171875 49.097656 32.171875 49.097656 32.207031 49.105469 C 32.25 49.128906 32.285156 49.160156 32.320312 49.191406 C 32.335938 49.203125 32.351562 49.214844 32.367188 49.226562 C 32.375 49.234375 32.378906 49.242188 32.386719 49.246094 C 32.441406 49.292969 32.496094 49.335938 32.550781 49.378906 C 32.527344 49.445312 32.492188 49.5 32.453125 49.558594 C 32.167969 50.023438 31.945312 50.5 31.789062 51.023438 C 31.785156 51.035156 31.78125 51.050781 31.777344 51.0625 C 31.765625 51.097656 31.765625 51.097656 31.761719 51.132812 C 31.753906 51.167969 31.746094 51.183594 31.722656 51.210938 C 31.660156 51.242188 31.589844 51.257812 31.523438 51.277344 C 31.5 51.28125 31.476562 51.289062 31.457031 51.292969 C 31.40625 51.304688 31.355469 51.316406 31.304688 51.332031 C 31.226562 51.351562 31.148438 51.371094 31.070312 51.390625 C 30.527344 51.53125 29.988281 51.664062 29.429688 51.714844 C 29.410156 51.71875 29.394531 51.71875 29.375 51.722656 C 28.105469 51.832031 26.765625 51.671875 25.117188 50.902344 C 25.097656 50.894531 25.097656 50.894531 25.082031 50.882812 C 24.804688 50.71875 24.546875 50.523438 24.3125 50.304688 C 24.28125 50.28125 24.25 50.253906 24.222656 50.226562 C 24.105469 50.125 23.996094 50.011719 23.898438 49.894531 C 23.886719 49.882812 23.875 49.871094 23.863281 49.859375 C 23.753906 49.730469 23.65625 49.597656 23.5625 49.460938 C 23.554688 49.453125 23.550781 49.445312 23.542969 49.433594 C 23.394531 49.222656 23.265625 48.996094 23.15625 48.761719 C 23.140625 48.734375 23.128906 48.707031 23.113281 48.679688 C 22.566406 47.566406 22.496094 46.238281 22.792969 44.40625 C 22.796875 44.390625 22.800781 44.375 22.804688 44.355469 C 22.875 44.054688 22.96875 43.761719 23.070312 43.46875 C 23.078125 43.453125 23.082031 43.441406 23.089844 43.425781 C 23.160156 43.222656 23.246094 43.03125 23.339844 42.839844 C 23.34375 42.828125 23.351562 42.8125 23.355469 42.800781 C 23.492188 42.511719 23.65625 42.234375 23.84375 41.972656 C 23.847656 41.960938 23.855469 41.953125 23.863281 41.941406 C 23.964844 41.796875 24.074219 41.65625 24.1875 41.519531 C 24.214844 41.484375 24.242188 41.449219 24.269531 41.417969 C 24.335938 41.335938 24.40625 41.257812 24.476562 41.183594 C 24.5 41.160156 24.523438 41.136719 24.542969 41.113281 C 24.609375 41.039062 24.675781 40.964844 24.753906 40.902344 C 24.78125 40.878906 24.808594 40.851562 24.832031 40.824219 C 24.886719 40.769531 24.945312 40.722656 25.003906 40.675781 C 25.039062 40.648438 25.074219 40.617188 25.109375 40.585938 C 25.4375 40.308594 25.804688 40.066406 26.179688 39.859375 C 26.195312 39.847656 26.210938 39.839844 26.226562 39.832031 C 26.605469 39.621094 26.988281 39.449219 27.398438 39.3125 C 27.414062 39.308594 27.425781 39.300781 27.441406 39.296875 C 28 39.113281 28.578125 39.015625 29.164062 38.957031 C 29.171875 38.957031 29.183594 38.957031 29.191406 38.957031 C 29.378906 38.9375 29.566406 38.929688 29.757812 38.929688 Z M 29.757812 38.929688 " style=" stroke:none;fill-rule:nonzero;fill:rgb(0%,0%,0%);fill-opacity:1;"/></g></svg>