<svg xmlns="http://www.w3.org/2000/svg" version="1.1" id="Layer_1" x="0px" y="0px" width="70px" height="70px" viewBox="0 0 70 70" enable-background="new 0 0 70 70" xml:space="preserve"><metadata/><rect width="70" fill="none" height="70"/><path fill="#0257A3" d="M10.2,40.7c0,0-8.3,11.399-8.8,12.2c1.3-0.2,4.8-1,7.6-4.601l5.6-7.1c0.1-0.101,1.6-2.101,4-2.5l24.1-4.4   c5.8-1.1,12-3.5,18.399-7.3c3.9-2.3,6.7-4.5,8-5.5C66.9,22,21.5,33.1,21.5,33.1C13.8,35,10.2,40.7,10.2,40.7z"/><path fill="#EB2230" d="M6.4,52.7c2.1-0.101,7.4-0.2,7.4-0.2c6.2-0.2,11.1-4.1,12.5-5.4C24.6,47.2,13.8,48.2,13.8,48.2   s-2.5,0.2-2.7,0.2C9.1,51,7.5,52.2,6.4,52.7z"/><path fill="#FCE800" d="M16,42.5c0,0-2.4,3-3,3.7c1-0.101,12.8-1.4,12.8-1.4c4-0.399,8.2-1.899,12.4-4.5   c2.399-1.5,4.2-2.899,5.1-3.6c-2.8,0.5-24,4-24,4C17.2,41.1,16,42.5,16,42.5z"/></svg>