<svg xmlns="http://www.w3.org/2000/svg" id="Layer_1" width="70" height="70" x="0" y="0" enable-background="new 0 0 70 70" version="1.1" viewBox="0 0 70 70" xml:space="preserve"><metadata/><rect width="70" height="70" fill="none"/><g><path fill="#D1252B" d="M20.5,25.8h5.8l0.7,8.6l5.1-8.6h5.6l-9.5,13.5h-4.9L20.5,25.8z"/><path fill="#D1252B" d="M36.8,25.8h5.4l-3.3,13.5h-5.4L36.8,25.8z"/><path fill="#D1252B" d="M39.6,32.6c0.5-2.1,1.7-3.8,3.601-5.1c1.899-1.3,4.1-2,6.8-2c3,0,5.1,0.8,6.2,2.4 c0.899,1.3,1.1,2.8,0.6,4.7c-0.5,2.1-1.7,3.8-3.6,5.1c-1.9,1.3-4.2,2-6.9,2C43.9,39.7,42.1,39.1,40.9,38 C39.5,36.6,39,34.8,39.6,32.6z M45.3,32.6C45,33.8,45,34.7,45.4,35.3c0.399,0.601,1,0.9,1.8,0.9s1.6-0.3,2.3-0.9 c0.7-0.6,1.2-1.5,1.5-2.7c0.3-1.2,0.3-2-0.1-2.6c-0.4-0.6-1-0.9-1.801-0.9c-0.8,0-1.6,0.3-2.3,0.9C46.1,30.5,45.6,31.4,45.3,32.6z"/><path fill="#D1252B" d="M58.1,25.8h5L62.7,28c0.7-1,1.399-1.6,2-2c0.6-0.4,1.3-0.5,2-0.5c0.8,0,1.6,0.2,2.399,0.7l-2.6,3.7 c-0.6-0.3-1-0.4-1.4-0.4c-0.699,0-1.3,0.3-1.8,0.8c-0.7,0.8-1.399,2.3-1.899,4.4L60.3,39.2H54.9L58.1,25.8z"/><path fill="#D1252B" d="M28.8,47.4h-2.5L25.7,48.6h-2.2l4.3-7.1h2.4l1,7.1h-2.3L28.8,47.4z M28.7,45.9L28.5,43.3L27.1,45.9H28.7z"/><path fill="#D1252B" d="M32.2,43.4h2L33,48.6h-2L32.2,43.4z"/><path fill="#D1252B" d="M35.4,43.4h1.9l-0.2,0.8c0.301-0.4,0.5-0.601,0.7-0.8c0.2-0.101,0.5-0.2,0.8-0.2c0.301,0,0.601,0.1,0.9,0.3 l-1,1.5c-0.2-0.1-0.4-0.1-0.5-0.1c-0.3,0-0.5,0.1-0.7,0.3c-0.3,0.3-0.5,0.899-0.7,1.7L36.2,48.6h-2L35.4,43.4z"/><path fill="#D1252B" d="M40.3,41.5h2l-1.7,7.1h-2L40.3,41.5z"/><path fill="#D1252B" d="M45.1,43.4H46.9l-0.2,0.8c0.399-0.3,0.7-0.601,1-0.7s0.7-0.2,1.1-0.2c0.5,0,0.9,0.2,1.2,0.5 c0.2,0.3,0.3,0.8,0.1,1.5l-0.8,3.3h-2l0.7-2.8c0.1-0.3,0.1-0.6,0-0.7C47.9,45,47.8,44.9,47.5,44.9c-0.2,0-0.5,0.1-0.6,0.3 c-0.2,0.2-0.301,0.5-0.5,1L45.8,48.7h-2L45.1,43.4z"/><path fill="#D1252B" d="M55.7,46.5H51.6c0,0.3,0,0.6,0.101,0.7c0.1,0.2,0.399,0.3,0.7,0.3c0.199,0,0.399,0,0.6-0.1 c0.1-0.101,0.3-0.2,0.4-0.301l2,0.2C55,47.8,54.5,48.2,54,48.4c-0.5,0.199-1.1,0.3-2,0.3c-0.7,0-1.2-0.101-1.6-0.3 C50,48.2,49.8,47.9,49.6,47.5c-0.199-0.4-0.199-0.9,0-1.5c0.2-0.8,0.601-1.5,1.301-2c0.699-0.5,1.5-0.7,2.399-0.7 c0.8,0,1.3,0.101,1.7,0.3c0.4,0.2,0.6,0.5,0.8,1c0.101,0.4,0.101,1-0.1,1.7V46.5z M53.9,45.6c0.1-0.399,0-0.699-0.101-0.8 c-0.1-0.2-0.3-0.2-0.6-0.2S52.6,44.7,52.3,45c-0.2,0.2-0.3,0.4-0.399,0.7h2V45.6z"/><path fill="#D1252B" d="M54.9,47.2l2-0.2c0,0.2,0.1,0.4,0.199,0.5c0.101,0.1,0.301,0.2,0.5,0.2c0.301,0,0.5-0.101,0.7-0.2 c0.101-0.1,0.2-0.2,0.2-0.3c0-0.101,0-0.3-0.1-0.3C58.3,46.8,58,46.8,57.6,46.7C56.9,46.6,56.5,46.5,56.2,46.4 C56,46.3,55.8,46.1,55.6,45.9c-0.1-0.2-0.199-0.5-0.1-0.801c0.1-0.3,0.2-0.6,0.5-0.899c0.3-0.2,0.6-0.4,0.9-0.601 C57.3,43.5,57.8,43.4,58.3,43.4c0.601,0,1.101,0,1.3,0.1c0.301,0.1,0.5,0.2,0.601,0.4c0.2,0.199,0.3,0.5,0.3,0.8l-1.9,0.2 c0-0.2-0.1-0.301-0.199-0.4c-0.101-0.1-0.301-0.2-0.5-0.2c-0.2,0-0.4,0-0.5,0.101c-0.101,0.1-0.2,0.199-0.2,0.3 c0,0.1,0,0.2,0.1,0.3c0.101,0.1,0.4,0.1,0.8,0.2c0.601,0.1,1.101,0.2,1.4,0.3s0.5,0.3,0.6,0.6C60.2,46.3,60.2,46.6,60.2,46.9 C60.1,47.2,60,47.5,59.7,47.8c-0.2,0.3-0.601,0.5-1,0.7c-0.4,0.2-1,0.3-1.601,0.3c-0.899,0-1.6-0.1-1.899-0.399 C55.1,48,54.9,47.7,54.9,47.2z"/><circle cx="39.9" cy="21.5" r="2.8" fill="#D1252B"/><circle cx="33.4" cy="41.9" r="1" fill="#D1252B"/><path fill="#D1252B" d="M42.5,43.4h2L43.3,48.6h-2L42.5,43.4z"/><circle cx="43.8" cy="41.9" r="1" fill="#D1252B"/><path fill="#D1252B" d="M19,20.7h-6.6L2,37c5.6-2.1,13.4-4.7,18.8-4.9L19,20.7z M10.7,32.2l3.8-6.7l0.5,6.7H10.7z M20.8,32.3 c-2,0.1-8.4,0.8-19.8,7h1.3C4,38.5,6,37.7,8,36.9L8.4,36.3h1.3c3.9-1.5,8-2.7,11.2-3.1L20.8,32.3z M6.7,39.3l0.5-1 c-0.6,0.3-1.2,0.601-1.8,1H6.7z M20.9,33.4c-1.3,0.1-4.4,0.7-9.4,2.8h3.7l0,0c2.1-0.8,4.1-1.4,5.8-1.7L20.9,33.4z M21.1,34.8 c-0.9,0.2-2.9,0.6-5.8,1.9l0.2,2.6h6.3L21.1,34.8z"/><polygon fill="#FFF" points="22.8 32.1 25.6 32.6 23 34.2 23.7 33"/></g></svg>