<svg xmlns="http://www.w3.org/2000/svg" id="Layer_1" width="70" height="70" viewBox="0 0 1428.77 1506.05"><defs><style>.cls-1{fill:#8ba6d1;}.cls-2{fill:#00217a;}</style></defs><path d="M1367,746.48h51.8a142.65,142.65,0,0,1-63.4-63.5h0c-22.7-45.2-66.4-71.1-123.3-76.6l1.3,3.9c39.4,15.8,66.6,40.8,82.4,76.2h0a142.25,142.25,0,0,0,51.2,60" class="cls-1"/><path d="M1367,746.48h51.8a142.65,142.65,0,0,0-63.4,63.5h0c-22.7,45.2-66.4,71.1-123.3,76.6l1.3-3.9c39.4-15.8,66.6-40.8,82.4-76.2h0a142.85,142.85,0,0,1,51.2-60" class="cls-2"/><path d="M1232.24,651.78c9.3,34.7,21.9,63.6,33,77.7h0a56.6,56.6,0,0,0,21.7,17h40.6a85,85,0,0,1-43-43.2h0a99,99,0,0,0-52.3-51.5" class="cls-1"/><path d="M1232.24,841.18c9.3-34.7,21.9-63.6,33-77.7h0a56.6,56.6,0,0,1,21.7-17h40.6a85,85,0,0,0-43,43.2h0a98.32,98.32,0,0,1-52.3,51.5" class="cls-2"/><path d="M361.94,812.68l4.4-23.3H253.84V760h89.6c.1,0,.1,0,.1-.1v-27.1h-89.7v-29.4h101a5.06,5.06,0,0,0,5-4.2l3.9-22.9H227a4.59,4.59,0,0,0-4.6,4.6v135.5h135a4.34,4.34,0,0,0,4.5-3.7" class="cls-2"/><path d="M739.74,812.68l4.4-23.3H631.64V760h89.6c.1,0,.1,0,.1-.1v-27.1h-89.7v-29.4h101a5.06,5.06,0,0,0,5-4.2l3.9-22.9H604.84a4.59,4.59,0,0,0-4.6,4.6v135.5h135a4.34,4.34,0,0,0,4.5-3.7" class="cls-2"/><path d="M1005.54,717.88l98.5,95a13,13,0,0,0,9.1,3.7h22.8V676.18h-25.6a4.91,4.91,0,0,0-4.9,4.9v90.2l-95.1-91.6a12.5,12.5,0,0,0-8.7-3.4h-27.5v140.4h31.2Z" class="cls-2"/><path d="M102.64,708.58l26.2,50.4H76.24Zm-43.1,82.2a8.59,8.59,0,0,1,7.7-4.7h75.9l13.5,26a8.19,8.19,0,0,0,7.3,4.4h30.8l-70.6-134.7a10.52,10.52,0,0,0-9.4-5.7H85.14l-73.5,140.4h34.5Z" class="cls-2"/><path d="M854,708.58l26.2,50.4h-52.7Zm-43.1,82.2a8.59,8.59,0,0,1,7.7-4.7h75.9l13.5,26a8.19,8.19,0,0,0,7.3,4.4h30.8l-70.6-134.7a10.52,10.52,0,0,0-9.4-5.7h-29.6L763,816.48h34.5Z" class="cls-2"/><path d="M557.74,798.78v-61.9h-59.1v22.8a4.44,4.44,0,0,0,4.4,4.4h23.2v18.4c-8,5.7-27.4,9.7-47.6,9.7-32.7,0-53.3-17.6-52.9-45.8s20.9-45.6,53.1-45.6c22.5,0,42.6,5.1,60.8,15.4l14-26.3c-38.1-19-71.3-17.9-74.8-17.9-50.2,0-85.2,30.6-85.2,74.3,0,44.6,33.4,74.5,83.2,74.5,53.9.1,80.9-22,80.9-22" class="cls-2"/></svg>