<svg xmlns="http://www.w3.org/2000/svg" version="1.1" width="70px" height="70px" viewBox="0 0 70 70"><g id="surface1"><path d="M 0 0 C 23.101562 0 46.199219 0 70 0 C 70 23.101562 70 46.199219 70 70 C 46.898438 70 23.800781 70 0 70 C 0 46.898438 0 23.800781 0 0 Z M 0 0 " style=" stroke:none;fill-rule:nonzero;fill:rgb(1.568628%,14.117648%,48.627451%);fill-opacity:1;"/><path d="M 0 0 C 23.332031 0 23.332031 0 29.167969 3.890625 C 25.316406 3.890625 21.464844 3.890625 17.5 3.890625 C 20.066406 7.097656 22.632812 10.304688 25.277344 13.609375 C 22.710938 14.253906 20.144531 14.894531 17.5 15.554688 C 17.898438 16.589844 18.296875 17.621094 18.707031 18.683594 C 19.230469 20.058594 19.753906 21.433594 20.296875 22.847656 C 20.8125 24.199219 21.332031 25.554688 21.867188 26.949219 C 22.59375 29.007812 22.59375 29.007812 23.332031 31.109375 C 23.792969 32.394531 24.253906 33.679688 24.730469 35 C 25.457031 40.171875 24.003906 42.621094 21.511719 47.152344 C 20.769531 48.527344 20.03125 49.898438 19.269531 51.316406 C 18.6875 52.347656 18.101562 53.378906 17.5 54.445312 C 20.066406 55.085938 22.632812 55.726562 25.277344 56.390625 C 24.636719 58.3125 23.996094 60.238281 23.332031 62.222656 C 21.410156 62.222656 19.484375 62.222656 17.5 62.222656 C 17.5 64.148438 17.5 66.070312 17.5 68.054688 C 18.785156 68.695312 20.066406 69.339844 21.390625 70 C 14.332031 70 7.273438 70 0 70 C 0 46.898438 0 23.800781 0 0 Z M 29.167969 48.609375 C 29.808594 49.894531 30.449219 51.179688 31.109375 52.5 C 29.828125 51.859375 28.542969 51.214844 27.222656 50.554688 C 27.863281 49.914062 28.503906 49.273438 29.167969 48.609375 Z M 29.167969 48.609375 " style=" stroke:none;fill-rule:nonzero;fill:rgb(0.784314%,12.941177%,47.843137%);fill-opacity:1;"/><path d="M 21.390625 5.832031 C 31.828125 7.8125 40.777344 14.441406 47.320312 22.742188 C 49.09375 25.5 50.800781 28.304688 52.5 31.109375 C 53.785156 31.753906 55.066406 32.394531 56.390625 33.054688 C 56.390625 34.980469 56.390625 36.90625 56.390625 38.890625 C 55.246094 39.351562 54.101562 39.816406 52.925781 40.292969 C 47.722656 43.289062 45.308594 46.558594 41.804688 51.40625 C 37.460938 57.398438 33.628906 62.28125 27.222656 66.109375 C 24.65625 66.109375 22.089844 66.109375 19.445312 66.109375 C 19.445312 64.828125 19.445312 63.542969 19.445312 62.222656 C 20.726562 62.222656 22.011719 62.222656 23.332031 62.222656 C 23.332031 60.296875 23.332031 58.371094 23.332031 56.390625 C 21.410156 55.746094 19.484375 55.105469 17.5 54.445312 C 18.5625 47.882812 19.550781 44.5625 23.332031 38.890625 C 22.710938 34.226562 21.125 30.480469 19.324219 26.128906 C 17.5 21.390625 17.5 21.390625 17.5 15.554688 C 19.425781 14.914062 21.351562 14.273438 23.332031 13.609375 C 22.691406 11.042969 22.050781 8.476562 21.390625 5.832031 Z M 29.167969 48.609375 C 28.523438 49.894531 27.882812 51.179688 27.222656 52.5 C 28.503906 52.5 29.789062 52.5 31.109375 52.5 C 30.46875 51.214844 29.828125 49.933594 29.167969 48.609375 Z M 29.167969 48.609375 " style=" stroke:none;fill-rule:nonzero;fill:rgb(8.235294%,21.568628%,53.333336%);fill-opacity:1;"/><path d="M 21.390625 5.832031 C 31.828125 7.8125 40.777344 14.441406 47.320312 22.742188 C 49.09375 25.5 50.800781 28.304688 52.5 31.109375 C 53.785156 31.753906 55.066406 32.394531 56.390625 33.054688 C 56.390625 34.980469 56.390625 36.90625 56.390625 38.890625 C 55.246094 39.351562 54.101562 39.816406 52.925781 40.292969 C 47.722656 43.289062 45.308594 46.558594 41.804688 51.40625 C 37.460938 57.398438 33.628906 62.28125 27.222656 66.109375 C 24.65625 66.109375 22.089844 66.109375 19.445312 66.109375 C 19.445312 64.828125 19.445312 63.542969 19.445312 62.222656 C 20.847656 61.5 22.25 60.777344 23.699219 60.035156 C 32.167969 54.386719 36.507812 46.292969 40.53125 37.074219 C 40.996094 30.914062 38.101562 27.976562 34.515625 23.089844 C 33.300781 21.402344 32.085938 19.710938 30.835938 17.972656 C 27.261719 13.234375 27.261719 13.234375 21.390625 9.722656 C 21.390625 8.4375 21.390625 7.15625 21.390625 5.832031 Z M 21.390625 5.832031 " style=" stroke:none;fill-rule:nonzero;fill:rgb(46.666667%,58.431375%,77.64706%);fill-opacity:1;"/><path d="M 17.5 15.554688 C 25.695312 18.484375 28.894531 23.683594 33.054688 31.109375 C 33.054688 39.503906 32.347656 40.847656 27.464844 47.152344 C 26.425781 48.527344 25.390625 49.898438 24.320312 51.316406 C 23.351562 52.347656 22.386719 53.378906 21.390625 54.445312 C 20.105469 54.445312 18.820312 54.445312 17.5 54.445312 C 18.5625 47.882812 19.550781 44.5625 23.332031 38.890625 C 22.710938 34.226562 21.125 30.480469 19.324219 26.128906 C 17.5 21.390625 17.5 21.390625 17.5 15.554688 Z M 17.5 15.554688 " style=" stroke:none;fill-rule:nonzero;fill:rgb(77.254903%,81.960785%,89.019608%);fill-opacity:1;"/><path d="M 21.390625 5.832031 C 32.960938 8.027344 42.882812 16 49.460938 25.640625 C 52.5 31.109375 52.5 31.109375 54.445312 36.945312 C 44.960938 36.132812 41.128906 32.347656 35 25.277344 C 32.40625 21.390625 29.816406 17.5 27.222656 13.609375 C 25.296875 12.328125 23.371094 11.042969 21.390625 9.722656 C 21.390625 8.4375 21.390625 7.15625 21.390625 5.832031 Z M 21.390625 5.832031 " style=" stroke:none;fill-rule:nonzero;fill:rgb(82.745099%,86.274511%,91.764706%);fill-opacity:1;"/><path d="M 25.277344 35 C 27.84375 36.285156 30.410156 37.566406 33.054688 38.890625 C 31.207031 41.492188 29.339844 44.082031 27.464844 46.667969 C 26.425781 48.109375 25.390625 49.554688 24.320312 51.042969 C 23.351562 52.164062 22.386719 53.289062 21.390625 54.445312 C 20.105469 54.445312 18.820312 54.445312 17.5 54.445312 C 18.597656 46.746094 21.015625 41.484375 25.277344 35 Z M 25.277344 35 " style=" stroke:none;fill-rule:nonzero;fill:rgb(45.490196%,57.647061%,77.64706%);fill-opacity:1;"/><path d="M 33.054688 48.609375 C 34.339844 51.179688 35.621094 53.746094 36.945312 56.390625 C 32.570312 61.25 32.570312 61.25 27.222656 66.109375 C 24.65625 66.109375 22.089844 66.109375 19.445312 66.109375 C 19.445312 64.828125 19.445312 63.542969 19.445312 62.222656 C 20.96875 61.339844 22.492188 60.457031 24.0625 59.546875 C 29.40625 56.238281 30.875 54.355469 33.054688 48.609375 Z M 33.054688 48.609375 " style=" stroke:none;fill-rule:nonzero;fill:rgb(39.215687%,52.549022%,74.117649%);fill-opacity:1;"/><path d="M 23.332031 9.722656 C 26.542969 12.289062 29.75 14.855469 33.054688 17.5 C 31.773438 20.066406 30.488281 22.632812 29.167969 25.277344 C 29.167969 23.996094 29.167969 22.710938 29.167969 21.390625 C 26.601562 20.105469 24.035156 18.820312 21.390625 17.5 C 22.03125 14.933594 22.671875 12.367188 23.332031 9.722656 Z M 23.332031 9.722656 " style=" stroke:none;fill-rule:nonzero;fill:rgb(6.27451%,18.431373%,51.372552%);fill-opacity:1;"/></g></svg>