<svg xmlns="http://www.w3.org/2000/svg" id="Layer_1" width="70" height="70" x="0" y="0" enable-background="new 0 0 70 70" version="1.1" viewBox="0 0 70 70" xml:space="preserve"><path fill="#EE333D" fill-rule="evenodd" d="M28.053,20.229c2.504-0.003,4.432,0.486,6.163,1.625 c1.723,1.133,2.948,2.676,3.65,4.623c0.294,0.816,0.459,1.652,0.535,2.52c0.178,1.98-0.207,3.842-1.181,5.561 c-1.44,2.543-3.638,4.084-6.487,4.673c-2.326,0.48-4.586,0.241-6.744-0.784c-0.807-0.384-1.524-0.901-2.21-1.475 c-0.793-0.661-1.395-1.472-1.902-2.351c-0.369-0.641-0.626-1.339-0.838-2.055c-0.18-0.613-0.298-1.239-0.343-1.865 c-0.043-0.597-0.054-1.204,0.025-1.81c0.061-0.461,0.134-0.917,0.233-1.37c0.104-0.477,0.249-0.94,0.435-1.387 c0.341-0.819,0.795-1.573,1.351-2.271c0.505-0.634,1.085-1.178,1.729-1.672c0.926-0.711,1.951-1.197,3.059-1.526 C26.496,20.378,27.484,20.222,28.053,20.229z M34.169,30.138c-0.006-1.277-0.235-2.25-0.705-3.167 c-1.682-3.277-6.283-3.997-8.837-1.353c-1.513,1.564-1.947,3.481-1.496,5.568c0.872,4.033,5.066,5.516,8.167,3.803 C33.277,33.896,34.088,32.083,34.169,30.138z" clip-rule="evenodd"/><path fill="#EE333D" fill-rule="evenodd" d="M1.075,29.843c0-2.924,0.003-5.848-0.006-8.773 c-0.001-0.25,0.075-0.295,0.305-0.293c1.136,0.012,2.273,0.012,3.409,0c0.226-0.003,0.293,0.045,0.292,0.284 c-0.01,2.193-0.003,4.388-0.011,6.58c-0.001,0.238,0.055,0.308,0.302,0.308c2.255-0.01,4.51-0.01,6.765,0 c0.24,0,0.287-0.07,0.286-0.297c-0.008-2.192,0-4.386-0.011-6.58c-0.002-0.252,0.077-0.297,0.308-0.295 c1.153,0.012,2.308,0.011,3.462,0c0.202-0.002,0.243,0.055,0.243,0.248c-0.005,5.875-0.004,11.751,0,17.627 c0,0.191-0.029,0.27-0.251,0.268c-1.171-0.013-2.343-0.012-3.514,0c-0.206,0.001-0.246-0.061-0.245-0.252 c0.006-2.247,0-4.492,0.01-6.738c0.001-0.24-0.069-0.289-0.296-0.288c-2.254,0.009-4.509,0.009-6.764,0 c-0.229-0.001-0.296,0.051-0.295,0.289c0.01,2.237,0.002,4.476,0.011,6.712c0.001,0.217-0.05,0.279-0.273,0.277 c-1.162-0.013-2.325-0.012-3.487,0c-0.205,0.001-0.243-0.059-0.242-0.25C1.077,35.728,1.075,32.785,1.075,29.843z" clip-rule="evenodd"/><path fill="#EE333D" fill-rule="evenodd" d="M40.586,29.853c0-2.924,0.003-5.85-0.005-8.774 c-0.002-0.239,0.056-0.304,0.299-0.302c2.484,0.009,4.97-0.02,7.453,0.014c1.571,0.022,3.054,0.408,4.335,1.375 c1.088,0.822,1.786,1.907,2.083,3.232c0.355,1.586,0.273,3.143-0.455,4.623c-0.664,1.354-1.767,2.232-3.133,2.805 c-1.128,0.473-2.313,0.651-3.529,0.651c-0.935,0-1.868,0.005-2.802-0.005c-0.198-0.002-0.251,0.053-0.25,0.25 c0.009,1.639,0.002,3.277,0.01,4.916c0.001,0.207-0.031,0.283-0.265,0.281c-1.164-0.014-2.326-0.013-3.489,0 c-0.215,0.001-0.257-0.064-0.257-0.266C40.588,35.721,40.586,32.786,40.586,29.853z M44.587,27.142c0,0.854,0,1.707,0,2.561 c0,0.1-0.033,0.221,0.142,0.216c1.223-0.027,2.453,0.107,3.665-0.059c2.422-0.331,2.896-2.459,2.26-3.931 c-0.427-0.99-1.293-1.383-2.292-1.49c-1.2-0.13-2.408-0.027-3.612-0.056c-0.187-0.005-0.162,0.11-0.162,0.224 C44.587,25.451,44.587,26.296,44.587,27.142z" clip-rule="evenodd"/><path fill="#EE333D" fill-rule="evenodd" d="M59.104,34.466c-0.41-0.334-0.806-0.649-1.195-0.973 c-0.385-0.32-0.769-0.641-1.139-0.977c-0.126-0.116-0.263-0.229-0.395-0.33c-0.164-0.127-0.169-0.145-0.032-0.311 c0.446-0.537,0.898-1.069,1.351-1.602c0.589-0.691,1.153-1.402,1.734-2.099c0.416-0.499,0.845-0.985,1.264-1.481 c0.399-0.475,0.793-0.955,1.19-1.432c0.34-0.405,0.685-0.804,1.022-1.209c0.409-0.49,0.811-0.984,1.221-1.474 c0.322-0.388,0.652-0.765,0.975-1.151c0.322-0.383,0.643-0.768,0.957-1.156c0.101-0.125,0.174-0.16,0.316-0.037 c0.626,0.537,1.264,1.06,1.894,1.588c0.235,0.197,0.465,0.4,0.704,0.592c0.104,0.082,0.14,0.123,0.029,0.25 c-0.834,0.979-1.659,1.967-2.484,2.954c-1.128,1.349-2.252,2.703-3.382,4.052c-1.051,1.256-2.109,2.506-3.165,3.76 C59.682,33.772,59.396,34.116,59.104,34.466z" clip-rule="evenodd"/><path fill="#00255A" fill-rule="evenodd" d="M24.501,47.281c0.54,0.508,1.071,1.007,1.604,1.506 c0.158,0.147,0.19-0.023,0.236-0.105c0.261-0.467,0.517-0.938,0.772-1.409c0.456-0.842,0.914-1.681,1.363-2.525 c0.076-0.143,0.168-0.174,0.322-0.202c0.664-0.12,1.034,0.157,1.356,0.74c0.636,1.152,1.362,2.255,2.051,3.378 c0.04,0.064,0.079,0.132,0.142,0.238c-0.517,0-0.996,0.002-1.474,0c-0.104-0.001-0.142-0.082-0.183-0.163 c-0.111-0.216-0.23-0.428-0.34-0.645c-0.054-0.106-0.125-0.146-0.248-0.145c-0.669,0.006-1.339,0.003-2.009,0.001 c-0.122,0-0.171,0.031-0.238,0.165c-0.125,0.254-0.286,0.495-0.415,0.751c-0.034,0.067-0.112,0.035-0.167,0.035 c-0.828,0.002-1.656-0.004-2.484,0.004c-0.292,0.002-0.505-0.118-0.7-0.323c-0.309-0.325-0.632-0.637-0.952-0.949 c-0.135-0.131-0.824-0.235-0.975-0.158c-0.086,0.044-0.05,0.123-0.051,0.187c-0.003,0.353-0.006,0.705,0,1.057 c0.002,0.124-0.013,0.194-0.167,0.188c-0.316-0.011-0.633-0.009-0.951,0c-0.125,0.003-0.166-0.034-0.165-0.162 c0.004-1.349,0.004-2.694,0-4.042c-0.001-0.148,0.06-0.175,0.188-0.172c0.995,0.021,1.989-0.035,2.983,0.036 c0.301,0.021,0.59,0.093,0.861,0.222c0.875,0.415,1.012,1.477,0.275,2.108C24.949,47.057,24.722,47.157,24.501,47.281z M22.907,46.529c0,0,0-0.001,0-0.002c0.22,0,0.44,0,0.66,0c0.018,0,0.035,0,0.052-0.002c0.327-0.038,0.561-0.261,0.556-0.528 c-0.003-0.269-0.214-0.469-0.555-0.481c-0.457-0.019-0.915-0.007-1.372-0.013c-0.097-0.001-0.132,0.025-0.143,0.131 c-0.092,0.896-0.096,0.896,0.775,0.896C22.889,46.529,22.898,46.529,22.907,46.529z M29.046,45.741 c-0.217,0.436-0.419,0.84-0.627,1.258c0.458,0,0.875,0,1.308,0C29.499,46.579,29.284,46.181,29.046,45.741z" clip-rule="evenodd"/><path fill="#EE333D" fill-rule="evenodd" d="M57.053,36.959c0.033,1.338-1.079,2.517-2.51,2.522 c-1.399,0.006-2.536-1.112-2.504-2.6c0.027-1.355,1.062-2.41,2.436-2.43C56.078,34.43,57.099,35.706,57.053,36.959z" clip-rule="evenodd"/><path fill="#00255A" fill-rule="evenodd" d="M13.625,47.281c0.582,0.545,1.137,1.065,1.732,1.621 c-0.649-0.02-1.264,0.084-1.856-0.078c-0.205-0.056-0.363-0.294-0.531-0.461c-0.25-0.246-0.485-0.506-0.732-0.756 c-0.111-0.112-0.836-0.202-0.954-0.125c-0.075,0.048-0.043,0.127-0.044,0.192c-0.003,0.352-0.004,0.703,0,1.055 c0.001,0.111-0.005,0.181-0.149,0.177c-0.386-0.009-0.773-0.003-1.172-0.003c0.047-0.112,0.037-0.215,0.037-0.314 c0-1.275,0.003-2.553-0.004-3.829c-0.001-0.184,0.046-0.235,0.232-0.233c0.801,0.011,1.603-0.004,2.403,0.008 c0.489,0.009,0.975,0.041,1.431,0.268c0.91,0.455,0.927,1.538,0.226,2.116C14.064,47.063,13.856,47.155,13.625,47.281z M12.079,45.513c0-0.003,0-0.006,0-0.008c-0.229,0-0.457,0.003-0.685-0.002c-0.108-0.003-0.161,0.029-0.158,0.148 c0.006,0.246,0.003,0.492,0.002,0.737c0,0.077,0.006,0.141,0.107,0.14c0.491-0.005,0.984,0.015,1.474-0.021 c0.313-0.022,0.492-0.26,0.481-0.525c-0.01-0.263-0.208-0.443-0.538-0.467C12.536,45.5,12.307,45.513,12.079,45.513z" clip-rule="evenodd"/><path fill="#EE333D" fill-rule="evenodd" d="M56.837,44.143c-0.376,0.549-0.72,1.058-1.071,1.561 c-0.575,0.821-1.135,1.651-1.736,2.451c-0.365,0.483-0.863,0.766-1.503,0.755c-0.845-0.013-1.691-0.002-2.536-0.006 c-0.068-0.001-0.186,0.053-0.198-0.057c-0.014-0.109,0.109-0.084,0.179-0.103c0.607-0.16,1.029-0.562,1.377-1.057 c0.621-0.885,1.236-1.774,1.853-2.663c0.176-0.253,0.353-0.505,0.52-0.765c0.041-0.062,0.065-0.118,0.149-0.118 C54.842,44.144,55.815,44.143,56.837,44.143z" clip-rule="evenodd"/><path fill="#00255A" fill-rule="evenodd" d="M48.502,47.904c0,0.354,0,0.665,0,0.999c-0.07,0-0.157,0-0.244,0 c-1.303,0-2.604-0.004-3.909,0.003c-0.192,0.001-0.269-0.027-0.266-0.25c0.012-1.294,0.01-2.588,0.001-3.882 c-0.001-0.2,0.054-0.249,0.251-0.248c1.312,0.009,2.623,0.008,3.935,0.001c0.164-0.001,0.24,0.03,0.224,0.215 c-0.021,0.243,0.075,0.565-0.048,0.712c-0.131,0.156-0.463,0.046-0.707,0.048c-0.722,0.007-1.444,0.008-2.166-0.002 c-0.161-0.001-0.206,0.04-0.206,0.204c0.003,0.519-0.006,0.519,0.521,0.519c0.767,0,1.532,0.01,2.298-0.006 c0.229-0.005,0.292,0.068,0.27,0.281c-0.017,0.158-0.016,0.318,0,0.476c0.017,0.169-0.049,0.202-0.207,0.202 c-0.871-0.008-1.742,0.002-2.614-0.008c-0.195-0.002-0.274,0.031-0.268,0.252c0.016,0.53,0.004,0.53,0.535,0.53 c0.757,0,1.515,0.001,2.271-0.001C48.275,47.949,48.382,47.973,48.502,47.904z" clip-rule="evenodd"/><path fill="#00255A" fill-rule="evenodd" d="M36.495,47.048c0-0.8,0.008-1.538-0.006-2.276 c-0.003-0.205,0.063-0.258,0.255-0.244c0.219,0.016,0.441,0.019,0.66-0.001c0.175-0.016,0.196,0.054,0.196,0.205 c-0.006,1.286-0.023,2.572,0.009,3.856c0.01,0.315-0.095,0.341-0.332,0.316c-0.078-0.008-0.161-0.014-0.236,0.001 c-0.328,0.064-0.534-0.109-0.754-0.322c-0.247-0.239-0.545-0.436-0.8-0.659c-0.357-0.312-0.732-0.61-1.07-0.949 c-0.214-0.214-0.46-0.397-0.714-0.614c0,0.859,0,1.688,0,2.543c-0.315,0-0.648-0.006-0.981,0.002c-0.126,0.002-0.14-0.057-0.14-0.16 c0.002-1.348,0.003-2.694-0.001-4.041c-0.001-0.146,0.056-0.181,0.187-0.175c0.176,0.008,0.352,0.01,0.527,0 c0.152-0.01,0.263,0.041,0.377,0.139c0.87,0.742,1.746,1.478,2.619,2.216C36.344,46.928,36.396,46.969,36.495,47.048z" clip-rule="evenodd"/><path fill="#00255A" fill-rule="evenodd" d="M7.117,48.903c-0.519,0-0.986-0.001-1.453,0 c-0.168,0-0.273-0.034-0.326-0.241c-0.056-0.22-0.21-0.414-0.315-0.622c-0.044-0.088-0.115-0.09-0.196-0.09 c-0.705,0.002-1.409,0.004-2.113-0.001c-0.124-0.002-0.201,0.034-0.237,0.152c-0.061,0.194-0.188,0.356-0.273,0.53 C2.083,48.88,1.934,48.92,1.7,48.906c-0.277-0.014-0.555-0.003-0.862-0.003c0.164-0.399,0.364-0.739,0.56-1.082 c0.508-0.893,1.064-1.763,1.499-2.69c0.247-0.529,0.575-0.611,1.074-0.589c0.28,0.013,0.452,0.081,0.602,0.323 c0.722,1.168,1.462,2.325,2.197,3.486C6.877,48.523,6.986,48.695,7.117,48.903z M4.419,47.009c-0.239-0.43-0.461-0.828-0.705-1.266 c-0.229,0.448-0.431,0.847-0.644,1.266C3.53,47.009,3.95,47.009,4.419,47.009z" clip-rule="evenodd"/><path fill="#00255A" fill-rule="evenodd" d="M43.347,45.454c0,0.079-0.001,0.159,0,0.237 c0.002,0.326,0.006,0.32-0.282,0.188c-0.772-0.355-1.583-0.541-2.424-0.351c-0.6,0.136-1.18,0.512-1.144,1.247 c0.025,0.474,0.471,0.972,1.047,1.112c0.381,0.093,0.766,0.066,1.161,0.038c0.542-0.04,1.011-0.243,1.483-0.461 c0.171-0.079,0.193-0.021,0.189,0.127c-0.005,0.149-0.002,0.299-0.002,0.448c0,0.485-0.003,0.479-0.47,0.653 c-0.644,0.239-1.316,0.323-1.993,0.303c-0.842-0.027-1.649-0.271-2.248-0.877c-0.776-0.786-0.845-1.958,0.013-2.791 c0.336-0.324,0.729-0.562,1.185-0.689c1.003-0.285,1.998-0.206,2.989,0.05c0.017,0.005,0.031,0.02,0.047,0.024 c0.447,0.118,0.447,0.118,0.448,0.582C43.347,45.349,43.347,45.401,43.347,45.454z" clip-rule="evenodd"/><path fill="#00255A" fill-rule="evenodd" d="M15.823,46.728c0-0.659,0.006-1.32-0.004-1.98 c-0.003-0.174,0.046-0.221,0.219-0.22c1.267,0.007,2.535,0.008,3.802-0.001c0.193-0.001,0.245,0.063,0.228,0.241 c-0.021,0.234,0.096,0.541-0.045,0.688c-0.143,0.15-0.45,0.045-0.685,0.047c-0.66,0.007-1.32,0.009-1.98-0.002 c-0.188-0.003-0.28,0.032-0.254,0.243c0.032,0.258-0.111,0.606,0.061,0.753c0.15,0.129,0.486,0.042,0.742,0.043 c0.633,0.003,1.268,0.005,1.901-0.003c0.144-0.001,0.208,0.032,0.196,0.189c-0.022,0.252,0.101,0.575-0.046,0.739 c-0.138,0.155-0.465,0.043-0.709,0.045c-0.633,0.008-1.268,0.012-1.9-0.002c-0.206-0.004-0.255,0.06-0.246,0.253 c0.015,0.308-0.004,0.617,0.007,0.924c0.006,0.164-0.028,0.234-0.211,0.223c-0.281-0.017-0.563-0.015-0.844-0.001 c-0.18,0.011-0.24-0.032-0.235-0.225C15.831,48.03,15.823,47.379,15.823,46.728z" clip-rule="evenodd"/><path fill="#00255A" fill-rule="evenodd" d="M8.793,46.728c0,0.642-0.011,1.286,0.006,1.928 c0.006,0.218-0.066,0.263-0.262,0.251c-0.282-0.016-0.564-0.009-0.846-0.001c-0.127,0.004-0.184-0.021-0.184-0.169 c0.006-1.339,0.006-2.678,0.001-4.016c-0.001-0.154,0.049-0.198,0.196-0.193c0.291,0.011,0.582,0.014,0.872,0 c0.172-0.007,0.225,0.04,0.222,0.218C8.787,45.405,8.793,46.066,8.793,46.728z" clip-rule="evenodd"/></svg>