<svg xmlns="http://www.w3.org/2000/svg" version="1.1" id="Layer_1" x="0px" y="0px" width="70px" height="70px" viewBox="0 0 70 70" enable-background="new 0 0 70 70" xml:space="preserve"><g id="XMLID_886_"><path id="XMLID_1034_" fill="#BE2026" d="M63.412,29.363c-0.018,0.042-0.205,0.48-0.582,1.206   C50.452,44.317,25.79,45.541,22.322,45.646c-0.145-0.176-0.282-0.356-0.402-0.54C21.923,45.103,50.314,44.817,63.412,29.363z"/><linearGradient id="XMLID_2_" gradientTransform="matrix(0.0353 4.901228e-004 4.901228e-004 -0.0353 -270.2891 -356.7581)" gradientUnits="userSpaceOnUse" x1="8452.5" x2="9594.7549" y1="-11145.2295" y2="-11145.2295"><stop offset="0" style="stop-color:#811517"/><stop offset="0.0529" style="stop-color:#8D191C"/><stop offset="0.2254" style="stop-color:#AD2225"/><stop offset="0.4036" style="stop-color:#C6282E"/><stop offset="0.5877" style="stop-color:#D82E35"/><stop offset="0.7813" style="stop-color:#E2303B"/><stop offset="1" style="stop-color:#E6333C"/></linearGradient><path id="XMLID_1022_" fill="url(#XMLID_2_)" d="M62.834,30.566c-2.166,4.177-10.622,17.907-29.227,20.616c0,0-3.087,0-6.823-1.986   c0,0-2.875-1.616-4.459-3.552C25.793,45.537,50.452,44.317,62.834,30.566z"/><linearGradient id="XMLID_3_" gradientTransform="matrix(0.0353 0 0 -0.0353 -270.0353 -357.4953)" gradientUnits="userSpaceOnUse" x1="7664.9653" x2="9628.792" y1="-11019.3994" y2="-11019.3994"><stop offset="0" style="stop-color:#1C3159"/><stop offset="0.0376" style="stop-color:#1E3660"/><stop offset="0.2082" style="stop-color:#1E4C81"/><stop offset="0.3857" style="stop-color:#1F5D9A"/><stop offset="0.5708" style="stop-color:#1D6AAB"/><stop offset="0.7684" style="stop-color:#1F70B5"/><stop offset="1" style="stop-color:#2072B8"/></linearGradient><path id="XMLID_1021_" fill="url(#XMLID_3_)" d="M4.98,28.428c0,0,25.248,16.661,64.659-7.539c0,0-26.627,26.186-65.213,19.642   c-1.496-0.254-2.815-1.171-3.492-2.529c-0.825-1.665-1.051-4.346,1.362-8.414C2.295,29.588,3.608,27.32,4.98,28.428z"/><path id="XMLID_987_" fill="#1C3159" enable-background="new    " d="M4.98,28.932c0,0,24.849,17.106,64.345-7.747   c0.208-0.194,0.314-0.296,0.314-0.296C30.224,45.086,4.98,28.428,4.98,28.428c-0.854-0.688-1.686-0.067-2.191,0.497   C3.466,28.587,4.306,28.389,4.98,28.932z" opacity="0.5"/><linearGradient id="XMLID_4_" gradientTransform="matrix(0.0353 0 0 -0.0353 -270.0353 -357.4953)" gradientUnits="userSpaceOnUse" x1="7822.9917" x2="8796.0918" y1="-10945.2588" y2="-10945.2588"><stop offset="0" style="stop-color:#868A8C"/><stop offset="0.1399" style="stop-color:#9CA0A4"/><stop offset="0.3294" style="stop-color:#B5BABD"/><stop offset="0.5259" style="stop-color:#C5CCCF"/><stop offset="0.7319" style="stop-color:#D1D7DA"/><stop offset="0.9631" style="stop-color:#D3DADE"/></linearGradient><path id="XMLID_957_" fill="url(#XMLID_4_)" d="M5.936,27.599c0,0,12.911-3.926,34.328,1.93c0,0-14.21-3.14-26.01,1.4   C14.254,30.932,7.703,28.911,5.936,27.599z"/><path id="XMLID_908_" fill="#B3B3B3" d="M14.279,30.361c0,0-6.512-2.064-8.272-2.716c1.859,1.316,8.248,3.284,8.248,3.284   c11.8-4.54,26.01-1.4,26.01-1.4c-0.056-0.014-0.109-0.028-0.162-0.042C38.511,29.08,25.564,25.987,14.279,30.361z"/></g></svg>