<svg xmlns="http://www.w3.org/2000/svg" id="Layer_1" width="70" height="70" x="0" y="0" enable-background="new 0 0 70 70" version="1.1" viewBox="0 0 70 70" xml:space="preserve"><metadata/><rect width="70" height="70" fill="none"/><path fill="#EC2227" d="M51.2,3.4H1.1L18.6,65h50.1L51.2,3.4z M40.9,45.2c0,0-7.8-2.4-6-10.6c0,0-5,11.5,7.5,14.4 c-1,2.6-10,2.7-13-3.6c0,0-2.9-7.601,4.6-11.3c0,0-12.1,3.3-6.5,14.9c-2.6,0.8-8.3-6.2-5.3-12.5c0,0,4.1-7.1,11.6-3.5 c0,0-10.1-7.5-15.7,4.2c-2.3-1.5-0.4-10.3,6.4-11.9c0,0,8.1-1.2,10,6.9c0,0-0.5-12.6-13-9.7c-0.2-2.8,7.9-6.7,13.3-2.4 c0,0,6,5.6,0.8,12.1c0,0,9.5-8.2-0.6-16.2c2-1.9,10.1,2,10.1,8.9c0,0-0.6,8.2-9,8.2c0,0,12.4,2.3,12.301-10.6 C51.1,22.9,53.2,31.7,47.8,36c0,0-6.8,4.6-12-1.9c0,0,5.9,11.1,15.9,3C53.2,39.7,47.7,46.8,40.9,45.2z"/></svg>