<svg xmlns="http://www.w3.org/2000/svg" version="1.1" id="svg2" x="0px" y="0px" width="70" height="70" viewBox="115 0 70 70" enable-background="new 115 -11.8 70 70" xml:space="preserve"><metadata id="metadata92"/><defs id="defs90"/><g id="layer1" transform="translate(-137.89356,-32.599422)"><g id="g2993" transform="matrix(1.25,0,0,-1.25,-428.21429,879.32551)"><g id="g5437"/><g id="g5451" transform="matrix(1.3439297,0,0,1.3439297,230.19543,-279.35452)"><g id="layer1-8" transform="matrix(0.72462467,0,0,-0.72462467,-193.02879,488.4987)"><g id="g5423" transform="matrix(0.07116922,0,0,0.07116922,677.12796,-316.7662)"><linearGradient id="path3016_1_" gradientTransform="matrix(0.0866347,0,0,-0.0866347,1434.0479,-45.6471)" gradientUnits="userSpaceOnUse" x1="-24277.18" x2="-24277.18" y1="-7265.2339" y2="-7577.5112"><stop id="stop12" offset="0" style="stop-color:#EB2023"/><stop id="stop14" offset="9.626903e-02" style="stop-color:#E92026"/><stop id="stop16" offset="0.2039" style="stop-color:#E31E27"/><stop id="stop18" offset="0.2986" style="stop-color:#E01E26"/><stop id="stop20" offset="0.4043" style="stop-color:#D81F27"/><stop id="stop22" offset="0.5" style="stop-color:#CF2027"/><stop id="stop24" offset="0.6" style="stop-color:#C62127"/><stop id="stop26" offset="0.7" style="stop-color:#B92025"/><stop id="stop28" offset="0.8" style="stop-color:#AE1F23"/><stop id="stop30" offset="0.9" style="stop-color:#A01D22"/><stop id="stop32" offset="1" style="stop-color:#901C1C"/></linearGradient><path id="path3016" d="m -882.1,690.4 86.5,143.8 c 26.8,43.1 71,62.7 126.1,62.7 h 222.6 L -707.5,581 l -37,-21.1 -97.6,31.8 -49.4,71.5 z" style="fill:url(#path3016_1_)"/><linearGradient id="path3018_1_" gradientTransform="matrix(0.0866347,0,0,-0.0866347,1434.0479,-45.6471)" gradientUnits="userSpaceOnUse" x1="-27029.627" x2="-26856.127" y1="-8046.0381" y2="-7934.9282"><stop id="stop36" offset="0" style="stop-color:#6C221F"/><stop id="stop38" offset="0.2491" style="stop-color:#7F2620"/><stop id="stop40" offset="0.4983" style="stop-color:#982B24"/><stop id="stop42" offset="0.7491" style="stop-color:#B53125"/><stop id="stop44" offset="1" style="stop-color:#CB3327"/></linearGradient><path id="path3018" d="m -707.5,581 -54.4,-66 -143.8,77.3 15.3,78.1 8.4,19.9 c -3.4,-52.8 87.5,-114.2 174.5,-109.3 z" style="fill:url(#path3018_1_)"/><linearGradient id="path3014_1_" gradientTransform="matrix(0.0866347,0,0,-0.0866347,1434.0479,-45.6471)" gradientUnits="userSpaceOnUse" x1="-27316.049" x2="-27061.859" y1="-7429.7681" y2="-7282.7012"><stop id="stop48" offset="0" style="stop-color:#E7EBEE"/><stop id="stop50" offset="0.2491" style="stop-color:#DFE4E8"/><stop id="stop52" offset="0.4983" style="stop-color:#CAD1D7"/><stop id="stop54" offset="0.7491" style="stop-color:#A8B5BD"/><stop id="stop56" offset="1" style="stop-color:#93A6AD"/></linearGradient><path id="path3014" d="m -882.1,690.4 -77.8,-128.6 c -9.4,-14.6 -11.9,-27.4 -11.9,-42.2 0,-16.4 7,-25.3 33.8,-39.5 31.2,-14.9 94,-21.4 158.8,-21.4 105.2,0 130.5,33.8 141.2,70.2 0,0 -14.9,-5.9 -49.8,-5.9 -110.9,0 -199.5,53.8 -199.5,135.3 -0.1,17 5.2,32.1 5.2,32.1 z" style="fill:url(#path3014_1_)"/><linearGradient id="path3012_1_" gradientTransform="matrix(0.0866347,0,0,-0.0866347,1434.0479,-45.6471)" gradientUnits="userSpaceOnUse" x1="-28294.08" x2="-28294.08" y1="-2178.9888" y2="-2480.9299"><stop id="stop60" offset="0" style="stop-color:#05AEE9"/><stop id="stop62" offset="9.626903e-02" style="stop-color:#00A9E0"/><stop id="stop64" offset="0.2039" style="stop-color:#07A3DC"/><stop id="stop66" offset="0.2986" style="stop-color:#089DD5"/><stop id="stop68" offset="0.4043" style="stop-color:#0A92CC"/><stop id="stop70" offset="0.5" style="stop-color:#0F87C3"/><stop id="stop72" offset="0.6" style="stop-color:#127CB8"/><stop id="stop74" offset="0.7" style="stop-color:#0E70AD"/><stop id="stop76" offset="0.8" style="stop-color:#0F63A3"/><stop id="stop78" offset="0.9" style="stop-color:#135393"/><stop id="stop80" offset="1" style="stop-color:#184485"/></linearGradient><path id="path3012" d="m -1216.3,143.1 h 104.7 c 44.1,0 62.2,18.1 80.1,35.8 20.4,18.6 82.4,102.5 213.4,266.2 h -141.8 c -58,0 -76.3,-9.9 -98.8,-44.1 z" style="fill:url(#path3012_1_)"/></g></g></g></g></g></svg>