<svg xmlns="http://www.w3.org/2000/svg" id="svg2" width="70" height="70" x="0" y="0" enable-background="new 115 -11.8 70 70" version="1.1" viewBox="115 0 70 70" xml:space="preserve"><metadata id="metadata92"/><g id="layer1" transform="translate(-137.89356,-32.599422)"><g id="g2993" transform="matrix(1.25,0,0,-1.25,-428.21429,879.32551)"><g id="g5451" transform="matrix(1.3439297,0,0,1.3439297,230.19543,-279.35452)"><g id="layer1-8" transform="matrix(0.72462467,0,0,-0.72462467,-193.02879,488.4987)"><g id="g5423" transform="matrix(0.07116922,0,0,0.07116922,677.12796,-316.7662)"><linearGradient id="path3016_1_" x1="-24277.18" x2="-24277.18" y1="-7265.234" y2="-7577.511" gradientTransform="matrix(0.0866347,0,0,-0.0866347,1434.0479,-45.6471)" gradientUnits="userSpaceOnUse"><stop id="stop12" offset="0" style="stop-color:#eb2023"/><stop id="stop14" offset=".096" style="stop-color:#e92026"/><stop id="stop16" offset=".204" style="stop-color:#e31e27"/><stop id="stop18" offset=".299" style="stop-color:#e01e26"/><stop id="stop20" offset=".404" style="stop-color:#d81f27"/><stop id="stop22" offset=".5" style="stop-color:#cf2027"/><stop id="stop24" offset=".6" style="stop-color:#c62127"/><stop id="stop26" offset=".7" style="stop-color:#b92025"/><stop id="stop28" offset=".8" style="stop-color:#ae1f23"/><stop id="stop30" offset=".9" style="stop-color:#a01d22"/><stop id="stop32" offset="1" style="stop-color:#901c1c"/></linearGradient><path id="path3016" d="m -882.1,690.4 86.5,143.8 c 26.8,43.1 71,62.7 126.1,62.7 h 222.6 L -707.5,581 l -37,-21.1 -97.6,31.8 -49.4,71.5 z" style="fill:url(#path3016_1_)"/><linearGradient id="path3018_1_" x1="-27029.627" x2="-26856.127" y1="-8046.038" y2="-7934.928" gradientTransform="matrix(0.0866347,0,0,-0.0866347,1434.0479,-45.6471)" gradientUnits="userSpaceOnUse"><stop id="stop36" offset="0" style="stop-color:#6c221f"/><stop id="stop38" offset=".249" style="stop-color:#7f2620"/><stop id="stop40" offset=".498" style="stop-color:#982b24"/><stop id="stop42" offset=".749" style="stop-color:#b53125"/><stop id="stop44" offset="1" style="stop-color:#cb3327"/></linearGradient><path id="path3018" d="m -707.5,581 -54.4,-66 -143.8,77.3 15.3,78.1 8.4,19.9 c -3.4,-52.8 87.5,-114.2 174.5,-109.3 z" style="fill:url(#path3018_1_)"/><linearGradient id="path3014_1_" x1="-27316.049" x2="-27061.859" y1="-7429.768" y2="-7282.701" gradientTransform="matrix(0.0866347,0,0,-0.0866347,1434.0479,-45.6471)" gradientUnits="userSpaceOnUse"><stop id="stop48" offset="0" style="stop-color:#e7ebee"/><stop id="stop50" offset=".249" style="stop-color:#dfe4e8"/><stop id="stop52" offset=".498" style="stop-color:#cad1d7"/><stop id="stop54" offset=".749" style="stop-color:#a8b5bd"/><stop id="stop56" offset="1" style="stop-color:#93a6ad"/></linearGradient><path id="path3014" d="m -882.1,690.4 -77.8,-128.6 c -9.4,-14.6 -11.9,-27.4 -11.9,-42.2 0,-16.4 7,-25.3 33.8,-39.5 31.2,-14.9 94,-21.4 158.8,-21.4 105.2,0 130.5,33.8 141.2,70.2 0,0 -14.9,-5.9 -49.8,-5.9 -110.9,0 -199.5,53.8 -199.5,135.3 -0.1,17 5.2,32.1 5.2,32.1 z" style="fill:url(#path3014_1_)"/><linearGradient id="path3012_1_" x1="-28294.08" x2="-28294.08" y1="-2178.989" y2="-2480.93" gradientTransform="matrix(0.0866347,0,0,-0.0866347,1434.0479,-45.6471)" gradientUnits="userSpaceOnUse"><stop id="stop60" offset="0" style="stop-color:#05aee9"/><stop id="stop62" offset=".096" style="stop-color:#00a9e0"/><stop id="stop64" offset=".204" style="stop-color:#07a3dc"/><stop id="stop66" offset=".299" style="stop-color:#089dd5"/><stop id="stop68" offset=".404" style="stop-color:#0a92cc"/><stop id="stop70" offset=".5" style="stop-color:#0f87c3"/><stop id="stop72" offset=".6" style="stop-color:#127cb8"/><stop id="stop74" offset=".7" style="stop-color:#0e70ad"/><stop id="stop76" offset=".8" style="stop-color:#0f63a3"/><stop id="stop78" offset=".9" style="stop-color:#135393"/><stop id="stop80" offset="1" style="stop-color:#184485"/></linearGradient><path id="path3012" d="m -1216.3,143.1 h 104.7 c 44.1,0 62.2,18.1 80.1,35.8 20.4,18.6 82.4,102.5 213.4,266.2 h -141.8 c -58,0 -76.3,-9.9 -98.8,-44.1 z" style="fill:url(#path3012_1_)"/></g></g></g></g></g></svg>