<svg xmlns="http://www.w3.org/2000/svg" id="Layer_1" width="70" height="70" x="0" y="0" enable-background="new 0 0 70 70" version="1.1" viewBox="0 0 70 70" xml:space="preserve"><metadata/><rect width="70" height="70" fill="none"/><g><path fill="#EC2227" d="M44.7,1C32.5,1,20.4,9.6,17.8,20l-7.3,29.8c-2.6,10.5,5.4,19,17.6,19c8.1,0,16.1-3.8,21.4-9.3 c-5.6,0.2-9.9-1.7-12.9-6.1C34,48.6,31.8,43.3,29.7,37.7C27,30.8,23.4,27,19,26.3h8.9c3.9,0,8.3,3.7,10.4,9.5L44.7,51.4 c1.3,2.8,3.5,5.5,5.8,7c0.3-0.301,0.5-0.7,0.8-1c-0.899-0.9-2-2.9-2.7-4C46,48.6,43.8,43.3,41.7,37.7C39,30.8,35.3,27,30.9,26.3 h8.9c3.9,0,8.3,3.7,10.4,9.5L55.4,48.4L62.3,20C64.9,9.6,57,1,44.7,1z M24.8,40.2c1.4,0,2.7,0.3,3.9,0.8c1.3,4.3,3,8.5,5.4,12.2 c-1.3,3.899-5,6.7-9.3,6.7c-5.4,0-9.8-4.4-9.8-9.801C15,44.6,19.4,40.2,24.8,40.2z"/></g></svg>