<svg xmlns="http://www.w3.org/2000/svg" id="Layer_1" width="70" height="70" x="0" y="0" enable-background="new 0 0 70 70" version="1.1" viewBox="0 0 70 70" xml:space="preserve"><path fill="#D9282E" d="M35.907,48.964c0-2.125,1.11-2.538,3.148-1.392c3.757,2.103,7.68,4.279,7.68,4.279 c0.131-1.189,1.168-2.19,3.423-1.69c2.096,0.5,4.439,1.023,4.439,1.023s-1.262-2.85-1.828-4.105 c-1.037-2.299-0.051-3.401,0.95-3.721c0,0-1.429-0.972-2.379-1.632c-2.016-1.414-1.552-2.785,0.421-3.626 c2.691-1.139,6.034-2.654,6.034-2.654c-1.066-0.616-2.314-2.372-0.914-4.388c1.371-2.009,3.43-4.801,3.43-4.801s-3.641,0.022-6.07,0 c-2.198-0.044-2.741-1.784-2.72-3.039c0,0-3.583,2.538-6.143,4.264c-2.154,1.451-4.119,0.029-3.793-2.459 c0.515-3.909,0.979-8.224,0.979-8.224c-1.334,0.892-3.619,0.87-4.627-1.32c-1.494-3.227-3.235-6.991-3.235-6.991 s-1.697,3.75-3.198,6.984c-1.001,2.19-3.293,2.212-4.62,1.32c0,0,0.45,4.323,0.965,8.224c0.334,2.495-1.639,3.909-3.786,2.459 c-2.56-1.726-6.157-4.264-6.157-4.264c0.022,1.255-0.508,2.995-2.705,3.039c-2.437,0.022-6.07,0-6.07,0s2.074,2.785,3.459,4.801 c1.378,2.016,0.131,3.771-0.914,4.388c0,0,3.329,1.509,6.012,2.654c1.973,0.841,2.451,2.219,0.406,3.626 c-0.928,0.66-2.393,1.632-2.393,1.632c1.03,0.319,2.009,1.421,0.972,3.721c-0.551,1.262-1.828,4.105-1.828,4.105 s2.35-0.522,4.453-1.023c2.248-0.5,3.3,0.5,3.43,1.69c0,0,3.909-2.176,7.673-4.279c2.031-1.146,3.133-0.733,3.148,1.392v5.258 c0,3.039-0.544,6.36-1.704,8.137C17.428,60.771,5.505,49.24,5.476,34.017C5.454,18.344,18.567,5.63,34.711,5.63 s29.235,12.714,29.235,28.386c0,14.65-11.379,26.617-25.971,28.198v3.844c17.152-1.559,30.562-15.31,30.562-32.042 c0-17.776-15.151-32.172-33.819-32.172c-18.675,0-33.797,14.404-33.797,32.172c0,15.651,11.72,28.662,27.277,31.578 c2.625,0.5,4.293,0.892,5.671,2.589c1.668-3.039,2.045-9.479,2.045-13.113v-6.107H35.907z"/></svg>