<svg xmlns="http://www.w3.org/2000/svg" version="1.1" id="Layer_1" x="0px" y="0px" width="70px" height="70px" viewBox="0 0 70 70" enable-background="new 0 0 70 70" xml:space="preserve"><path fill="#1E3160" d="M2.115,42.664c0.238-0.642,0.467-1.258,0.698-1.874   c1.679-4.491,3.36-8.981,5.039-13.473c0.07-0.187,0.07-0.187,0.272-0.187c1.236-0.001,2.473-0.001,3.709,0   c0.238,0,0.203-0.024,0.288,0.201c1.325,3.539,2.647,7.081,3.971,10.621c0.554,1.482,1.109,2.965,1.663,4.448   c0.031,0.083,0.083,0.162,0.074,0.257c-0.067,0.031-0.137,0.017-0.204,0.017c-1.259,0.001-2.518,0.001-3.777,0.001   c-0.278,0-0.213,0.016-0.295-0.217c-0.278-0.793-0.548-1.589-0.822-2.385c-0.063-0.181-0.064-0.182-0.248-0.182   c-1.685-0.002-3.368,0.001-5.052-0.005c-0.139,0-0.196,0.044-0.24,0.173c-0.28,0.817-0.57,1.631-0.853,2.446   c-0.039,0.11-0.076,0.174-0.217,0.173c-1.297-0.008-2.594-0.004-3.891-0.004C2.202,42.676,2.171,42.67,2.115,42.664z" clip-rule="evenodd" fill-rule="evenodd"/><path fill="#2D70B6" d="M36.854,41.154c-0.264,0.417-0.596,0.769-0.999,1.049   c-0.741,0.517-1.556,0.803-2.468,0.797c-0.526-0.002-1.044-0.047-1.553-0.186c-1.099-0.302-1.838-0.987-2.226-2.058   c-0.222-0.612-0.312-1.249-0.35-1.894c-0.016-0.272-0.014-0.546-0.014-0.818c0-2.14,0-4.279,0-6.419   c0-0.288-0.023-0.251,0.258-0.252c1.054-0.001,2.108-0.001,3.163-0.001c0.054,0,0.106,0.004,0.16,0   c0.088-0.005,0.123,0.035,0.118,0.121c-0.004,0.061-0.001,0.121-0.001,0.182c0,2.041,0.001,4.082,0,6.123   c0,0.296,0.013,0.59,0.077,0.882c0.159,0.73,0.54,1.112,1.273,1.234c0.439,0.073,0.877,0.056,1.292-0.14   c0.652-0.307,0.982-0.852,1.131-1.531c0.067-0.305,0.088-0.615,0.087-0.927c0-1.896,0-3.792,0.001-5.689   c0-0.29-0.022-0.253,0.255-0.254c1.055-0.001,2.109-0.001,3.164-0.001c0.053,0,0.106,0.004,0.159,0   c0.087-0.004,0.125,0.032,0.119,0.119c-0.004,0.053,0,0.106,0,0.16c0,3.588,0,7.177,0,10.765c0,0.046-0.003,0.091,0.001,0.137   c0.006,0.085-0.028,0.128-0.117,0.122c-0.046-0.004-0.091,0-0.137,0c-1.031,0-2.063,0-3.095,0c-0.022,0-0.046,0-0.069,0   c-0.174-0.005-0.178-0.005-0.178-0.174c-0.002-0.372-0.001-0.744-0.001-1.115c0-0.074,0-0.146,0-0.22   C36.888,41.162,36.871,41.158,36.854,41.154z" clip-rule="evenodd" fill-rule="evenodd"/><path fill="#1E3160" d="M23.675,34.207c-0.083,0-0.165,0-0.247,0c-1.518,0-3.035,0-4.552,0   c-0.045,0-0.091,0.001-0.136,0c-0.17-0.003-0.173-0.004-0.173-0.178c-0.001-0.818-0.001-1.639,0-2.458   c0-0.195,0.002-0.197,0.198-0.197c1.078-0.001,2.155-0.001,3.231-0.001c2.073,0,4.144,0,6.215,0.001c0.284,0,0.251-0.03,0.252,0.258   c0.001,0.781-0.002,1.563,0.003,2.345c0,0.146-0.037,0.252-0.143,0.358c-1.713,1.71-3.419,3.427-5.13,5.139   c-0.106,0.106-0.227,0.2-0.354,0.313c0.112,0.084,0.197,0.057,0.273,0.058c1.836,0.001,3.673,0.001,5.508,0.001   c0.29,0,0.258-0.03,0.258,0.253c0.001,0.78,0.001,1.562,0,2.343c0,0.248,0.034,0.234-0.229,0.234c-2.117,0-4.234,0-6.351,0   c-1.298,0-2.595,0-3.893,0c-0.053,0-0.106-0.005-0.159,0.001c-0.116,0.013-0.148-0.046-0.136-0.147c0.003-0.038,0-0.076,0-0.115   c0-0.795,0.003-1.593-0.003-2.39c-0.002-0.156,0.046-0.266,0.157-0.375c1.732-1.712,3.459-3.429,5.188-5.146   c0.084-0.082,0.168-0.167,0.251-0.25C23.693,34.238,23.684,34.223,23.675,34.207z" clip-rule="evenodd" fill-rule="evenodd"/><path fill="#1E3160" d="M41.365,34.883c0-2.48,0-4.962,0-7.443c0-0.045-0.001-0.09,0-0.136   c0.004-0.169,0.004-0.173,0.178-0.173c1.115-0.002,2.231-0.001,3.347,0c0.178,0,0.179,0.002,0.181,0.191   c0.001,0.113,0,0.228,0,0.342c0,4.895,0,9.787,0,14.68c0,0.062-0.005,0.123,0.002,0.184c0.014,0.123-0.041,0.15-0.156,0.15   c-1.132-0.004-2.262-0.002-3.393-0.002c-0.154-0.001-0.156-0.006-0.158-0.168c-0.002-0.196,0-0.395,0-0.591   C41.365,39.572,41.365,37.228,41.365,34.883z" clip-rule="evenodd" fill-rule="evenodd"/><path fill="#1EBBE9" d="M56.843,27.115c0.261,0.008,0.521,0.014,0.783,0.021   c0.065,0.092,0.062,0.199,0.062,0.305c0.002,1.346,0.002,2.691,0,4.036c0,0.104,0.008,0.214-0.054,0.308   c-0.255,0.141-0.531,0.053-0.797,0.07c-0.738,0.014-1.477,0.004-2.215,0.004c-0.082,0-0.167-0.003-0.24-0.052   c-0.013-0.026-0.01,0.013-0.013-0.017c-0.037-0.354-0.278-0.354-0.554-0.346c-0.552,0.015-1.106,0.006-1.659,0.004   c-0.11-0.002-0.231,0.02-0.318-0.08c-0.001-1.342-0.001-2.684-0.001-4.025c0-0.216,0.001-0.217,0.229-0.218   c0.909-0.001,1.819-0.001,2.729-0.001c0.121,0.045,0.104,0.154,0.109,0.248c0.011,0.166,0.004,0.332,0.005,0.498   c0.001,0.125,0.047,0.2,0.184,0.201c0.499,0.002,0.998,0.004,1.496-0.001c0.122-0.001,0.176-0.062,0.179-0.183   c0.003-0.166-0.002-0.332,0.003-0.498C56.773,27.295,56.761,27.192,56.843,27.115z" clip-rule="evenodd" fill-rule="evenodd"/><path fill="#5061AC" d="M57.624,31.779c0-1.547,0.001-3.096,0.001-4.643   c0.505-0.004,1.01-0.008,1.514-0.012c0.113,0,0.227-0.002,0.339-0.003c0.13,0.168,0.066,0.362,0.073,0.546   c0.013,0.305,0.012,0.312,0.322,0.313c0.258,0.001,0.513-0.001,0.77,0.001c0.105,0.001,0.213-0.003,0.303,0.068   c0.407,0.006,0.813,0.012,1.22,0.018c0.077,0.069,0.074,0.164,0.074,0.254c0.004,0.529,0.004,1.06,0,1.589   c0,0.083-0.004,0.167-0.055,0.24c-0.096,0.081-0.211,0.067-0.323,0.068c-0.347,0.003-0.694-0.001-1.041,0.003   c-0.241,0.002-0.261,0.021-0.264,0.258c-0.005,0.339,0.001,0.678-0.003,1.018c0,0.105,0.009,0.213-0.064,0.305   c-0.101,0.068-0.216,0.059-0.328,0.059c-0.731,0.002-1.464,0.002-2.196-0.001C57.848,31.859,57.72,31.883,57.624,31.779z" clip-rule="evenodd" fill-rule="evenodd"/><path fill="#71CDE1" d="M57.624,31.779c0.952,0.002,1.905,0.004,2.856,0.006   c0.076,0.07,0.074,0.164,0.074,0.254c0,0.583,0.011,1.166-0.004,1.749c0.013,0.563,0.006,1.126,0.003,1.688   c0,0.082-0.006,0.166-0.06,0.236c-0.098,0.074-0.214,0.062-0.327,0.063c-0.815,0.001-1.633,0.002-2.449-0.001   c-0.112,0-0.229,0.017-0.322-0.073c-0.249-0.003-0.499-0.003-0.748-0.009c-0.162-0.002-0.166-0.005-0.168-0.165   c-0.001-0.529-0.001-1.06-0.001-1.589c0.3-0.092,0.305-0.322,0.295-0.582c-0.016-0.421-0.006-0.843-0.004-1.265   c0.001-0.104-0.01-0.213,0.065-0.302C57.099,31.787,57.361,31.783,57.624,31.779z" clip-rule="evenodd" fill-rule="evenodd"/><path fill="#FAA220" d="M64.862,37.705c-0.004,0.125-0.009,0.251-0.014,0.376   c-0.068,0.058-0.151,0.06-0.234,0.06c-0.421,0.001-0.84,0.01-1.259-0.003c-0.198,0.009-0.395,0.007-0.592,0.001   c-0.165-0.005-0.247-0.09-0.255-0.255c-0.009-0.196-0.002-0.394-0.005-0.591c-0.004-0.268-0.02-0.285-0.283-0.287   c-0.468-0.003-0.938,0-1.407-0.002c-0.112,0-0.229,0.012-0.332-0.055c-0.1-0.201-0.117-0.399,0.036-0.586   c0.165-0.079,0.342-0.044,0.512-0.048c0.218-0.005,0.437,0,0.654-0.002c0.255-0.003,0.271-0.02,0.274-0.269   c0.005-0.301-0.006-0.602,0.005-0.902c-0.034-0.773,0.047-0.635,0.608-0.641c0.659-0.008,1.317-0.003,1.975-0.001   c0.105,0,0.215-0.017,0.311,0.046c0.069,0.08,0.067,0.18,0.068,0.277c0.001,0.354,0.008,0.705-0.002,1.059   c0.008,0.498,0.003,0.997,0.003,1.496C64.926,37.49,64.94,37.606,64.862,37.705z" clip-rule="evenodd" fill-rule="evenodd"/><path fill="#8E3190" d="M60.526,36.396c-0.073,0.174-0.029,0.354-0.029,0.531   c0.065,0.094,0.064,0.201,0.058,0.307c-0.019,0.322,0.053,0.648-0.048,0.967c-0.099,0.094-0.225,0.072-0.342,0.075   c-0.195,0.005-0.392,0.005-0.587,0.001c-0.179-0.005-0.257,0.068-0.257,0.253c0,0.153,0.044,0.317-0.066,0.456   c-0.546,0.001-1.09,0.002-1.636,0.001c-0.224,0-0.225-0.001-0.225-0.219c0-1.021,0-2.044,0.001-3.066   c1.03-0.002,2.059-0.004,3.088-0.007C60.603,35.924,60.554,36.161,60.526,36.396z" clip-rule="evenodd" fill-rule="evenodd"/><path fill="#1C9DD8" d="M64.863,35.894c-0.004-0.444-0.01-0.89-0.015-1.335   c-0.45-0.041-0.9-0.006-1.352-0.018c-0.322-0.009-0.646,0.018-0.968-0.014c-0.131-0.237-0.051-0.492-0.066-0.74   c-0.012-0.438-0.004-0.877-0.003-1.316c0.001-0.084,0.005-0.168,0.059-0.238c0.084-0.066,0.186-0.062,0.282-0.062   c0.682,0,1.363-0.006,2.043,0.002c0.25,0,0.5-0.006,0.75-0.001c0.09,0.001,0.182-0.001,0.263,0.054   c0.124,0.244,0.068,0.498,0.041,0.752c-0.164,0.219-0.146,0.451-0.045,0.688c0,0.861-0.001,1.721-0.002,2.582   c-0.107,0.053-0.221,0.015-0.332,0.023c-0.05,0.005-0.097-0.019-0.105-0.065c-0.036-0.198-0.177-0.215-0.337-0.212   C64.992,35.994,64.909,35.979,64.863,35.894z" clip-rule="evenodd" fill-rule="evenodd"/><path fill="#27C0D3" d="M62.161,30.152c0.001-0.694,0.003-1.389,0.004-2.084   c0.624-0.003,1.249-0.004,1.875-0.012c0.114-0.001,0.14,0.049,0.139,0.149c-0.002,0.173,0.005,0.346,0.009,0.519   c0.055,0.089,0.059,0.187,0.059,0.285c0.001,0.688,0.001,1.377-0.001,2.065c-0.002,0.321-0.054,0.374-0.368,0.375   c-0.446,0.002-0.893,0.012-1.339-0.005c-0.399,0.012-0.442-0.027-0.444-0.426c-0.002-0.211-0.004-0.422,0.001-0.633   C62.097,30.304,62.1,30.22,62.161,30.152z" clip-rule="evenodd" fill-rule="evenodd"/><path fill="#F04F26" d="M60.692,40.934c-0.033,0.447-0.006,0.894-0.017,1.34   c-0.003,0.135,0.057,0.307-0.027,0.395c-0.097,0.102-0.273,0.035-0.415,0.037c-0.605,0.004-1.211,0.002-1.817,0.001   c-0.178-0.001-0.183-0.004-0.183-0.173c-0.003-0.696-0.003-1.393,0-2.09c0-0.17,0.005-0.172,0.181-0.175   c0.342-0.005,0.682-0.007,1.022-0.011c0.065-0.062,0.147-0.072,0.232-0.074c0.256-0.004,0.514-0.008,0.77,0.001   c0.233,0.01,0.291,0.066,0.296,0.305C60.739,40.638,60.765,40.792,60.692,40.934z" clip-rule="evenodd" fill-rule="evenodd"/><path fill="#93C840" d="M56.835,31.791c0.001,0.641,0.003,1.279,0.002,1.919   c0,0.215-0.002,0.215-0.225,0.221c-0.045,0.001-0.091,0.006-0.134,0.009c-0.681-0.002-1.361-0.004-2.041-0.008   c-0.326-0.003-0.282,0.037-0.286-0.294c-0.003-0.265-0.004-0.528-0.005-0.794c0.142-0.1,0.168-0.238,0.172-0.406   c0.004-0.217-0.067-0.445,0.064-0.65C55.2,31.787,56.019,31.789,56.835,31.791z" clip-rule="evenodd" fill-rule="evenodd"/><path fill="#E8B820" d="M54.383,31.787c-0.001,0.27-0.002,0.541-0.003,0.812   c-0.002,0.224-0.002,0.224-0.234,0.245c-1.085-0.002-2.169-0.002-3.252-0.006c-0.308,0-0.277,0.034-0.278-0.281   c-0.002-0.342,0.003-0.684-0.002-1.025c-0.002-0.117,0.039-0.156,0.158-0.155c0.355,0.003,0.712-0.005,1.067-0.007   c0.728,0.002,1.453,0.003,2.181,0.01c0.109,0.001,0.245-0.053,0.325,0.033c0.067,0.074,0.015,0.203,0.027,0.307   C54.375,31.742,54.38,31.764,54.383,31.787z" clip-rule="evenodd" fill-rule="evenodd"/><path fill="#35B14A" d="M56.843,27.115c-0.002,0.287-0.002,0.574-0.006,0.861   c-0.003,0.162-0.005,0.167-0.164,0.168c-0.56,0.002-1.117,0.002-1.676,0c-0.162-0.001-0.167-0.007-0.169-0.164   c-0.005-0.211-0.001-0.424-0.002-0.635c-0.001-0.074,0.011-0.152-0.031-0.221c0.037-0.08,0.021-0.164,0.021-0.248   c0.002-0.4,0.004-0.803-0.001-1.205c-0.001-0.113,0.027-0.164,0.153-0.162c0.575,0.006,1.153,0.005,1.729,0   c0.115-0.001,0.14,0.048,0.14,0.15C56.836,26.145,56.84,26.63,56.843,27.115z" clip-rule="evenodd" fill-rule="evenodd"/><path fill="#E7E11C" d="M62.534,31.379c0.454-0.033,0.907-0.007,1.361-0.014   c0.316-0.006,0.282,0.033,0.282-0.277c0.001-0.705,0-1.409,0.001-2.113c0-0.084,0.005-0.166,0.009-0.25c0.317,0,0.637,0,0.954,0.002   c0.161,0.002,0.161,0.006,0.167,0.166c0.002,0.083,0.004,0.166,0.006,0.249c0.05,0.062,0.065,0.136,0.065,0.212   c0.004,0.564,0.005,1.129-0.001,1.693c-0.001,0.062-0.01,0.121-0.039,0.176c-0.026,0.04-0.065,0.068-0.11,0.068   c-0.238-0.002-0.28,0.139-0.264,0.338c0.011,0.127,0.005,0.255-0.002,0.383c-0.005,0.09-0.015,0.181-0.109,0.229   c-0.773-0.001-1.548-0.002-2.321-0.004C62.415,31.95,62.417,31.665,62.534,31.379z" clip-rule="evenodd" fill-rule="evenodd"/><path fill="#1E9CA8" d="M59.255,38.986c0.002-0.195,0.003-0.391,0.008-0.587   c0.005-0.169,0.014-0.181,0.181-0.183c0.348-0.006,0.694-0.006,1.04-0.009c0.054-0.05,0.118-0.069,0.187-0.07   c0.37-0.009,0.74-0.013,1.111,0.003c0.169,0.006,0.27,0.102,0.271,0.271c0.002,0.193,0.052,0.394-0.063,0.574   c-0.002,0.197-0.01,0.395-0.008,0.592c0.001,0.094-0.025,0.141-0.127,0.137c-0.122-0.006-0.244,0-0.364,0.001   c-0.077,0.06-0.168,0.066-0.26,0.066c-0.515,0.003-1.029,0.003-1.544,0c-0.091,0-0.182-0.008-0.259-0.065   c-0.102,0.004-0.171-0.014-0.164-0.145C59.271,39.377,59.259,39.182,59.255,38.986z" clip-rule="evenodd" fill-rule="evenodd"/><path fill="#D8262B" d="M61.99,38.986c-0.003-0.196-0.006-0.393-0.011-0.59   c-0.003-0.17-0.004-0.174-0.181-0.175c-0.356-0.002-0.712,0-1.066-0.001c-0.083,0-0.165-0.008-0.249-0.013   c0.005-0.427,0.009-0.854,0.014-1.28c0.582,0.002,1.162,0.003,1.744,0.005c0.044,0,0.09-0.001,0.136,0   c0.2,0.003,0.203,0.003,0.205,0.198c0.002,0.249-0.002,0.498,0.001,0.746c0.002,0.195,0.004,0.195,0.206,0.199   c0.188,0.006,0.377-0.014,0.564,0.014c0.093,0.131,0.077,0.264,0.012,0.398c-0.003,0.121-0.013,0.242-0.006,0.363   c0.007,0.113-0.04,0.14-0.144,0.139C62.807,38.984,62.398,38.987,61.99,38.986z" clip-rule="evenodd" fill-rule="evenodd"/><path fill="#BAD432" d="M60.945,28.051c-0.438,0.003-0.877,0.004-1.314,0.011   c-0.108,0.001-0.146-0.038-0.146-0.146c0.003-0.265-0.004-0.529-0.008-0.794c0.004-0.387,0.007-0.772,0.011-1.159   c0.002-0.197,0.003-0.2,0.204-0.201c0.348-0.002,0.696-0.002,1.045,0c0.205,0.001,0.206,0.003,0.207,0.219   C60.945,26.67,60.944,27.36,60.945,28.051z" clip-rule="evenodd" fill-rule="evenodd"/><path fill="#6BABDC" d="M64.854,32.24c0.062-0.205,0.024-0.415,0.029-0.623   c0.007-0.352,0.002-0.352,0.354-0.361c0.021-0.002,0.044-0.006,0.066-0.008c0.207-0.037,0.413-0.07,0.613,0.034   c0.051,0.218,0.195,0.266,0.404,0.257c0.341-0.016,0.683-0.006,1.022-0.004c0.097,0.001,0.199-0.008,0.282,0.062   c0.002,0.156,0.007,0.312,0.006,0.469c-0.001,0.161-0.003,0.161-0.155,0.172c-0.038,0.004-0.074,0.005-0.111,0.006   c-0.504,0.118-1.008,0.115-1.511,0.003C65.521,32.244,65.188,32.242,64.854,32.24z" clip-rule="evenodd" fill-rule="evenodd"/><path fill="#E34F9C" d="M65.897,31.277c-0.197-0.016-0.398,0.037-0.594-0.029   c0-0.619,0-1.238,0.001-1.857c0-0.084,0.007-0.166,0.01-0.249c0.378,0.001,0.756-0.001,1.132,0.002   c0.174,0.001,0.175,0.005,0.179,0.175c0.002,0.091,0,0.182,0.001,0.271c0.001,0.205,0.002,0.201,0.216,0.209   c0.194,0.005,0.391-0.023,0.584,0.018c-0.061,0.09-0.157,0.078-0.245,0.079c-0.195,0.003-0.391,0.007-0.585-0.015   c-0.259-0.029-0.298,0.012-0.31,0.277c-0.008,0.179,0.037,0.361-0.045,0.533c-0.222,0.058-0.314,0.197-0.281,0.424   C65.969,31.174,65.951,31.236,65.897,31.277z" clip-rule="evenodd" fill-rule="evenodd"/><path fill="#5C82C2" d="M59.428,39.717c0.687,0,1.374,0,2.062-0.001   c-0.003,0.347-0.006,0.694-0.011,1.041c-0.002,0.173-0.005,0.175-0.177,0.177c-0.203,0.003-0.407,0-0.61,0   c-0.032-0.163-0.01-0.329-0.016-0.493c-0.008-0.169-0.007-0.172-0.183-0.174c-0.353-0.005-0.705-0.007-1.058-0.009   C59.434,40.076,59.43,39.896,59.428,39.717z" clip-rule="evenodd" fill-rule="evenodd"/><path fill="#F7D90C" d="M65.897,31.277c0.003-0.127,0.007-0.256,0.009-0.383   c0.004-0.188,0.004-0.188,0.18-0.195c0.047-0.002,0.092-0.006,0.136-0.008c0.054-0.051,0.119-0.064,0.188-0.065   c0.284-0.008,0.568-0.008,0.853,0c0.067,0.001,0.134,0.017,0.186,0.065c0.184,0.023,0.187,0.023,0.186,0.189   c0,0.238-0.004,0.478-0.007,0.717c-0.504,0-1.006,0-1.51,0.001c-0.203,0-0.216,0.011-0.209-0.209   C65.907,31.353,65.9,31.314,65.897,31.277z" clip-rule="evenodd" fill-rule="evenodd"/><path fill="#32BDB3" d="M65.854,32.247c0.503-0.001,1.006-0.001,1.511-0.003   c-0.001,0.225-0.004,0.449,0,0.674c0.001,0.096-0.035,0.136-0.131,0.133c-0.144-0.003-0.284,0.003-0.427,0.005   c-0.32,0.038-0.642,0.081-0.955-0.034C65.853,32.764,65.854,32.505,65.854,32.247z" clip-rule="evenodd" fill-rule="evenodd"/><path fill="#61469C" d="M67.447,30.691c-0.407,0.015-0.815,0.016-1.226,0   c0-0.235,0.007-0.471-0.003-0.704c-0.006-0.131,0.057-0.175,0.168-0.187c0.045-0.005,0.092-0.012,0.135-0.004   c0.301,0.051,0.603,0.024,0.905,0.02C67.473,30.107,67.437,30.399,67.447,30.691z" clip-rule="evenodd" fill-rule="evenodd"/><path fill="#A6C0E2" d="M64.863,35.894c0.132,0.052,0.27,0.022,0.403,0.028   c0.16,0.008,0.16,0.007,0.174,0.161c0.017,0.169,0.017,0.17,0.185,0.173c0.075,0,0.149-0.006,0.226-0.01   c-0.035,0.074-0.103,0.051-0.158,0.051c-0.277-0.002-0.249-0.004-0.251,0.267c0,0.31,0.002,0.62,0,0.929   c-0.001,0.209-0.002,0.209-0.217,0.211c-0.119,0-0.24,0-0.362,0.002c-0.031-0.529-0.005-1.058-0.013-1.586   C64.849,36.043,64.859,35.969,64.863,35.894z" clip-rule="evenodd" fill-rule="evenodd"/><path fill="#5161AC" d="M61.645,27.934c-0.128,0-0.258-0.002-0.387,0.001   c-0.088,0.001-0.143-0.021-0.14-0.126c0.004-0.196,0.002-0.393,0-0.59c0-0.086,0.034-0.121,0.121-0.121   c0.272,0.002,0.546,0.002,0.817,0c0.077,0,0.107,0.037,0.106,0.111c-0.002,0.205-0.002,0.409-0.001,0.613   c0.001,0.076-0.034,0.111-0.108,0.111C61.917,27.933,61.781,27.934,61.645,27.934L61.645,27.934z" clip-rule="evenodd" fill-rule="evenodd"/><path fill="#B0245A" d="M65.853,33.021c0.236,0.004,0.476,0.007,0.713,0.01   c0.081,0.002,0.164-0.009,0.242,0.024c-0.001,0.144,0.001,0.286-0.002,0.431c-0.002,0.162-0.004,0.164-0.16,0.167   c-0.264,0.005-0.529,0.007-0.793,0.011c-0.078-0.008-0.149-0.014-0.143-0.126c0.008-0.128,0.007-0.258,0-0.386   C65.703,33.042,65.773,33.031,65.853,33.021z" clip-rule="evenodd" fill-rule="evenodd"/><path fill="#6C96CC" d="M63.365,38.488c-0.027-0.131-0.01-0.266-0.012-0.398   c0.498-0.003,0.996-0.006,1.495-0.009c0.019,0.505,0.046,0.395-0.373,0.403C64.106,38.492,63.734,38.488,63.365,38.488z" clip-rule="evenodd" fill-rule="evenodd"/><path fill="#FFFFFF" d="M9.99,31.438c0.575,1.818,1.142,3.613,1.715,5.43   c-1.174,0-2.321,0-3.469,0C8.236,36.717,9.851,31.693,9.99,31.438z" clip-rule="evenodd" fill-rule="evenodd"/><path fill="#76C69C" d="M62.534,31.379c0,0.286-0.001,0.572-0.001,0.857   c-0.001,0.518-0.002,1.034-0.003,1.551c-0.071,0.068-0.161,0.075-0.253,0.076c-0.518,0.002-1.036,0.004-1.554-0.002   c-0.083,0-0.167-0.002-0.232-0.066c-0.003-0.67-0.006-1.34-0.011-2.01c0.002-0.477,0.003-0.953,0.005-1.43   c0.002-0.199,0.004-0.201,0.201-0.201c0.491-0.002,0.982-0.002,1.475-0.002c0.002,0.334,0.003,0.668,0.005,1   c0.002,0.217,0.003,0.217,0.21,0.221C62.429,31.375,62.48,31.377,62.534,31.379z" clip-rule="evenodd" fill-rule="evenodd"/><path fill="#2D70B6" d="M60.491,33.795c0.68-0.002,1.359-0.006,2.039-0.008   c0.002,0.241,0.005,0.482,0.007,0.724c-0.264,0.049-0.533,0.048-0.799,0.072c-0.156,0.015-0.232,0.061-0.233,0.228   c-0.002,0.161,0.051,0.238,0.221,0.234c0.107-0.001,0.231-0.018,0.298,0.109c0,0.363-0.004,0.728,0.002,1.091   c0.003,0.122-0.043,0.156-0.158,0.155c-0.447-0.004-0.894-0.003-1.341-0.004c-0.068-0.084-0.035-0.185-0.038-0.277   c-0.007-0.142-0.004-0.282-0.005-0.424C60.486,35.062,60.489,34.429,60.491,33.795z" clip-rule="evenodd" fill-rule="evenodd"/><path fill="#9AC141" d="M62.023,35.154c-0.143-0.074-0.295-0.03-0.444-0.035   c-0.104-0.004-0.15-0.037-0.144-0.145c0.005-0.098,0.006-0.197-0.001-0.293c-0.007-0.116,0.036-0.161,0.155-0.159   c0.271,0.005,0.541-0.002,0.812-0.005c0.044,0,0.088-0.004,0.135-0.007c0.693,0.003,1.387,0.003,2.081,0.009   c0.076,0.002,0.166-0.041,0.23,0.039c-0.785,0-1.569,0-2.354,0c-0.105,0-0.212,0.004-0.316,0c-0.104-0.004-0.151,0.035-0.149,0.145   C62.032,34.853,62.025,35.004,62.023,35.154z" clip-rule="evenodd" fill-rule="evenodd"/></svg>