<svg xmlns="http://www.w3.org/2000/svg" id="Layer_1" width="70" height="70" x="0" y="0" enable-background="new 0 0 70 70" version="1.1" viewBox="0 0 70 70" xml:space="preserve"><linearGradient id="SVGID_1_" x1="-37.418" x2="27.612" y1="258.984" y2="258.984" gradientTransform="matrix(0.9968 0.0802 -0.0802 0.9968 61.9798 -223.6066)" gradientUnits="userSpaceOnUse"><stop offset="0" style="stop-color:#ffcb05"/><stop offset="1" style="stop-color:#f7941e"/></linearGradient><path fill="url(#SVGID_1_)" d="M27.395,31.576c0,0-3.756-10.79-11.045-11.34c-3.895-0.314-6.664,1.324-8.298,2.753 c-2.367,2.068-3.928,5.045-4.076,7.774c-0.317,4.299,1.812,7.867,2.47,8.858c1.89,2.95,6.99,8.083,11.813,11.639 c0,0,10.706,7.982,17.893,4.236c-6.281-2.462-12.652-7.009-16.955-12.396c-1.463-2.133-3.147-5.211-2.937-7.835 c0.248-3.098,2.996-5.408,6.126-5.156c2.114,0.17,3.941,1.466,4.763,3.384c1.006,6.331,7.078,13.58,13.096,17.925 c0,0,2.301,2.088,5.85,1.079l10.709-3.279l-3.886-2.015c-5.311-2.83-9.899-6.419-12.976-10.198 c-3.855-5.065-3.991-8.363-3.991-8.363c-0.013-0.951,0.115-1.968,0.743-2.844c0.924-1.292,2.869-2.104,4.567-2.147 c0,0,1.812-0.024,2.951,0.62c3.885,1.817,6.322,8.657,6.755,9.444c0,0,7.078,15.325,17.031,12.156 c-3.673-2.132-7.748-12.033-7.748-12.033c-0.995-2.709-2.06-6.837-2.553-9.776c-1.11-6.59-3.208-11.194-10.179-11.755 c-6.318-0.51-11.866,4.216-12.375,10.529c0,0-0.303,3.215,0.054,3.944l-0.609-1.237c-1.457-2.971-5.419-5.211-8.514-6.218 c-1.327-0.489-2.898-0.302-2.898-0.302c-1.564,0.16-2.278,0.375-2.278,0.375c2.175,0.575,4.205,2.353,5.503,4.498 c1.383,2.285,1.784,4.963,1.102,7.345C27.507,31.243,27.407,31.612,27.395,31.576z"/></svg>