<svg xmlns="http://www.w3.org/2000/svg" id="Layer_1" width="70" height="70" x="0" y="0" enable-background="new 0 0 70 70" version="1.1" viewBox="0 0 70 70" xml:space="preserve"><metadata/><path fill="#A81F24" d="M32.8,9.9h5c0.9,0.3,1.9,0.2,2.8,0.4c1.3,0.1,2.5,0.4,3.8,0.6c2.5,0.6,5,1.3,7.3,2.3c0.8,0.2,1.4,0.7,2.1,1 c1.9,1,3.8,2.1,5.5,3.5c0.9,0.8,1.8,1.5,2.6,2.3c2.8,2.7,5,6.1,6,9.9c0.3,1.3,0.7,2.7,0.6,4.1c-0.1,1.7,0.2,3.4-0.2,5 c-0.5,2.6-1.5,5.1-2.9,7.3c-0.9,1.5-2.1,2.8-3.3,4.2c-2,2-4.2,3.7-6.7,5.1c-3.9,2.2-8.3,3.7-12.8,4.5c-1.4,0.3-2.8,0.4-4.2,0.5 c-2,0.1-4,0.1-6,0c-1.2-0.1-2.4-0.3-3.5-0.4c-3-0.5-6-1.2-8.9-2.4c-5.3-2.1-10.1-5.4-13.5-9.9C6,47,5.4,46.3,5,45.6 c-0.9-1.5-1.6-3.1-2.1-4.7c-0.8-2.6-0.9-5.4-0.7-8.2c0.3-2.2,1-4.4,2-6.4c0.4-0.7,0.8-1.4,1.1-2.1c1.4-2.1,3.1-4.1,5.1-5.8 c4.8-4.1,10.8-6.7,17-7.8c0.9-0.2,1.7-0.3,2.6-0.4c0.8-0.2,1.7-0.2,2.5-0.3C32.7,10,32.7,9.9,32.8,9.9 M30.4,11.7 c-0.3,0-0.6,0-0.7,0.2c0.5,0.3,1.1,0.3,1.7,0.5c0.9,0.2,1.9,0.5,2.8,0.9c0.9,0.4,1.9,0.9,2.7,1.5c1.9,1.4,3.5,3.1,5.2,4.7 c1.5,1.5,3,3,4.4,4.6c1.8,2.1,3.8,3.9,6,5.5c2.7,1.8,5.6,3.3,8.8,3.9c1.4,0.4,2.8,0.4,4.2,0.4c0.5,0,1,0,1.5-0.1 c-0.1-1.3-0.6-2.6-1-3.8c-0.8-1.9-1.6-3.7-2.7-5.4c-1.2-1.9-2.7-3.6-4.3-5.1c-2.8-2.6-6.2-4.5-9.7-5.8c-3.2-1.1-6.5-1.7-9.8-2 c-1.9-0.2-3.8-0.1-5.8-0.1C32.5,11.5,31.5,11.7,30.4,11.7 M19.1,15.5c-1.1,0.6-2.3,1.2-3.4,1.8c-1.1,0.8-2.3,1.5-3.3,2.3 c-0.9,0.7-1.6,1.4-2.4,2.1c-1.1,1-1.9,2.1-2.8,3.3c-1.1,1.5-1.7,3.3-2.4,5c-0.5,1.7-0.9,3.4-0.8,5.2c0,0.8-0.1,1.6,0.1,2.4 c0.5,3.8,2.4,7.4,5,10.2c0.7,0.7,1.4,1.4,2.2,2.1c0.7,0.6,1.3,1.1,2,1.6c1.8,1.3,3.7,2.5,5.8,3.4c0.3-0.1,0.7-0.2,1-0.4 c1.9-0.9,3.7-2,5.4-3.3c2.2-1.6,4.1-3.3,6-5.2c1.6-1.5,3-3.1,4.6-4.6c1.3-1.2,2.6-2.5,4-3.7c0.1-0.1,0.2-0.3,0.3-0.4 c-0.7,0-1.3,0.3-1.9,0.4c-2.6,0.9-5,2.3-7.4,3.9c-2.9,1.9-5.7,4-8.4,6.3c-0.4,0.3-0.7,0.7-1.1,0.9c-0.2,0.1-0.3,0-0.4-0.1 c-2-1.8-3.8-3.8-5.3-6c-1.2-1.8-2.4-3.8-3-6c-0.1-0.2-0.1-0.4,0-0.5c10.9-0.1,21.9-0.1,32.8-0.1c6.8,0,13.5,0,20.3,0 c0.3,0,0.8,0.1,1-0.1c0.1-0.5,0.1-1.1-0.1-1.6c-9.5,0-19.1,0-28.6,0c-8.2,0-16.3,0-24.5,0c-0.3,0-0.6,0-0.9,0c0-0.4,0-0.9,0.2-1.3 c0.5-1.7,1.4-3.3,2.4-4.7c1.2-1.7,2.6-3.2,4.1-4.6c0.7-0.7,1.5-1.4,2.3-2.1c0.1-0.1,0.3-0.3,0.5-0.1c0.5,0.4,1,0.8,1.4,1.3 c1.5,1.4,3,2.7,4.6,4c1.4,1.1,2.9,2.2,4.4,3.2c1,0.7,2.1,1.2,3.1,1.8c1.3,0.6,2.7,1.2,4.1,0.8c-0.4-0.5-1-0.9-1.5-1.3 c-2-1.9-3.9-3.8-5.8-5.8c-1.7-1.7-3.3-3.6-5.1-5.3c-2.3-2-4.9-3.8-7.7-5.2C19.6,15.2,19.3,15.4,19.1,15.5 M61.8,37.3 c-1.9,0.3-3.8,1-5.6,1.9c-2.7,1.2-5,3-7.1,4.9c-1.3,1.2-2.4,2.5-3.7,3.8c-1.6,1.6-3.3,3.3-5,4.9c-1.4,1.3-2.9,2.7-4.7,3.6 c-1.1,0.6-2.2,1.1-3.4,1.4c-0.8,0.3-1.6,0.2-2.3,0.6c0.4,0.1,0.8,0.1,1.1,0.1c1.2,0.1,2.4,0.2,3.6,0.2c3.3,0,6.7-0.1,10-0.9 c2.9-0.5,5.6-1.5,8.2-2.8c0.7-0.4,1.4-0.8,2.1-1.2c2.5-1.5,4.7-3.5,6.5-5.7c1.3-1.6,2.4-3.4,3.4-5.3c0.6-1.4,1.2-2.7,1.6-4.2 c0.1-0.5,0.4-1.1,0.3-1.6C66.6,37,66.3,37.1,66,37C64.6,37,63.1,37,61.8,37.3z"/><rect width="70" height="70" fill="none"/></svg>