<svg xmlns="http://www.w3.org/2000/svg" width="70" height="70" version="1.1" viewBox="0 0 70 70"><g id="surface1"><path d="M 57.851562 19.726562 C 57.230469 19.726562 56.636719 19.816406 56.21875 19.9375 C 51.085938 19.660156 48.636719 20.785156 46.578125 20.785156 C 45.335938 20.785156 40.640625 18.574219 36.933594 17.109375 C 36.933594 17.109375 41.628906 15.917969 46.082031 15.917969 C 50.539062 15.917969 54.929688 18.4375 56.21875 19.9375 C 53.40625 13.21875 44.023438 9.269531 38.601562 9.269531 C 27.179688 9.269531 20.898438 14.941406 12.601562 15.078125 C 11.632812 15.09375 8.949219 15.078125 8.949219 15.078125 C 8.949219 20.15625 10.851562 23.117188 11.683594 23.921875 C 9.617188 25.109375 1.304688 35.542969 1.304688 40.410156 C 1.304688 40.410156 1.664062 41.320312 1.664062 41.320312 L 8.359375 42.183594 L 7.0625 49.042969 C 7.0625 49.042969 7.421875 49.953125 7.421875 49.953125 L 14.015625 50.816406 L 11.632812 58.960938 L 11.992188 59.871094 C 11.992188 59.871094 14.273438 60.726562 17.507812 60.726562 C 20.410156 60.726562 32.960938 61.074219 34.859375 44.988281 C 34.867188 44.921875 34.871094 44.859375 34.878906 44.796875 C 37.09375 53.46875 42.898438 55.074219 54.847656 55.074219 C 58.226562 55.074219 56.816406 50.601562 57.1875 49.128906 C 57.554688 48.910156 57.84375 48.285156 57.632812 47.554688 C 57.847656 47.371094 58.128906 46.90625 58.128906 46.527344 C 58.128906 45.660156 57.675781 44.503906 57.675781 42.628906 C 58.675781 42.339844 60.484375 41.992188 60.484375 40.613281 C 60.484375 39.789062 58.636719 35.253906 57.492188 32.273438 C 57.3125 31.808594 56.933594 31.433594 56.4375 31.429688 C 55.65625 31.421875 55.332031 32.464844 53.210938 32.472656 C 49.304688 32.480469 50.742188 28.753906 38.953125 29.519531 C 37.503906 29.613281 37.101562 30.035156 36.921875 31.414062 C 36.488281 34.765625 36.578125 43.835938 38.542969 49.277344 C 36.058594 46.578125 35.261719 41.433594 34.878906 37.441406 C 34.085938 44.839844 33.65625 54.980469 24.285156 58.332031 C 20.257812 59.71875 15.796875 59.445312 11.636719 58.960938 C 14.152344 59.003906 16.667969 58.921875 19.15625 58.585938 C 20.789062 58.375 22.390625 58.003906 23.898438 57.339844 C 34.761719 52.761719 31.378906 38.15625 34 31.003906 C 29.1875 35.839844 28.242188 48.929688 16.414062 49.578125 C 13.277344 49.761719 10.15625 49.515625 7.066406 49.046875 C 10.152344 49.125 13.273438 49.089844 16.316406 48.664062 C 26.933594 47.226562 27.097656 35.777344 32.085938 30.007812 C 30.042969 30.445312 28.058594 31.089844 26.230469 32.089844 C 23.535156 33.496094 21.613281 35.71875 19.371094 37.8125 C 16.46875 40.519531 13.253906 41.332031 9.351562 41.085938 C 6.664062 40.949219 3.976562 40.734375 1.308594 40.410156 C 1.414062 40.410156 5.910156 40.292969 5.910156 40.292969 C 8.84375 40.148438 12.023438 40.332031 14.746094 39.113281 C 16.796875 38.238281 18.304688 36.597656 19.789062 34.964844 C 22.554688 31.824219 25.632812 29.644531 29.6875 28.464844 C 32.710938 27.542969 42.554688 26.53125 48.671875 26.765625 C 52.28125 26.90625 59.679688 27.804688 64.433594 29.714844 C 64.359375 29.695312 64.285156 29.679688 64.210938 29.660156 C 62.199219 29.253906 59.839844 29.492188 57.917969 30.242188 C 59.917969 30.296875 62.089844 30.429688 63.792969 30.855469 C 65.289062 31.230469 68.210938 31.871094 68.609375 33.511719 C 68.625 33.402344 68.695312 32.984375 68.695312 31.984375 C 68.695312 25.640625 63.410156 19.726562 57.851562 19.726562 Z M 57.851562 19.726562" style="stroke:none;fill-rule:nonzero;fill:#020c41;fill-opacity:1"/><path d="M 9.941406 58.21875 C 9.980469 58.21875 10.015625 58.21875 10.050781 58.214844 C 10.085938 58.214844 10.117188 58.207031 10.144531 58.195312 C 10.171875 58.183594 10.195312 58.164062 10.210938 58.140625 C 10.226562 58.113281 10.234375 58.078125 10.234375 58.035156 C 10.234375 58 10.230469 57.96875 10.214844 57.945312 C 10.199219 57.925781 10.179688 57.90625 10.15625 57.894531 C 10.132812 57.882812 10.109375 57.875 10.078125 57.871094 C 10.046875 57.867188 10.019531 57.863281 9.988281 57.863281 L 9.757812 57.863281 L 9.757812 58.21875 Z M 10.015625 57.722656 C 10.152344 57.722656 10.25 57.75 10.3125 57.800781 C 10.378906 57.855469 10.410156 57.933594 10.410156 58.042969 C 10.410156 58.140625 10.382812 58.214844 10.324219 58.261719 C 10.269531 58.308594 10.199219 58.335938 10.113281 58.347656 L 10.433594 58.839844 L 10.246094 58.839844 L 9.941406 58.359375 L 9.757812 58.359375 L 9.757812 58.839844 L 9.582031 58.839844 L 9.582031 57.722656 Z M 9.226562 58.605469 C 9.265625 58.703125 9.324219 58.792969 9.394531 58.863281 C 9.464844 58.9375 9.546875 58.996094 9.644531 59.039062 C 9.742188 59.078125 9.84375 59.101562 9.957031 59.101562 C 10.070312 59.101562 10.171875 59.078125 10.269531 59.039062 C 10.363281 58.996094 10.449219 58.9375 10.519531 58.863281 C 10.589844 58.792969 10.644531 58.703125 10.683594 58.605469 C 10.722656 58.503906 10.746094 58.394531 10.746094 58.277344 C 10.746094 58.160156 10.722656 58.058594 10.683594 57.957031 C 10.644531 57.859375 10.589844 57.773438 10.519531 57.703125 C 10.449219 57.628906 10.363281 57.570312 10.269531 57.53125 C 10.171875 57.488281 10.070312 57.46875 9.957031 57.46875 C 9.847656 57.46875 9.742188 57.488281 9.644531 57.53125 C 9.546875 57.570312 9.464844 57.628906 9.394531 57.703125 C 9.324219 57.773438 9.265625 57.859375 9.226562 57.957031 C 9.1875 58.058594 9.167969 58.164062 9.167969 58.277344 C 9.167969 58.390625 9.1875 58.503906 9.226562 58.605469 Z M 9.070312 57.902344 C 9.121094 57.785156 9.191406 57.683594 9.277344 57.597656 C 9.367188 57.511719 9.46875 57.445312 9.585938 57.398438 C 9.703125 57.347656 9.828125 57.324219 9.960938 57.324219 C 10.089844 57.324219 10.214844 57.347656 10.332031 57.398438 C 10.445312 57.445312 10.546875 57.511719 10.636719 57.597656 C 10.722656 57.683594 10.792969 57.785156 10.84375 57.902344 C 10.894531 58.015625 10.917969 58.140625 10.917969 58.277344 C 10.917969 58.414062 10.894531 58.542969 10.84375 58.660156 C 10.792969 58.777344 10.722656 58.878906 10.636719 58.964844 C 10.546875 59.050781 10.445312 59.117188 10.332031 59.167969 C 10.214844 59.214844 10.089844 59.238281 9.960938 59.238281 C 9.828125 59.238281 9.703125 59.214844 9.585938 59.167969 C 9.46875 59.117188 9.367188 59.050781 9.277344 58.964844 C 9.191406 58.878906 9.121094 58.777344 9.070312 58.660156 C 9.019531 58.542969 8.992188 58.414062 8.992188 58.277344 C 8.992188 58.140625 9.019531 58.015625 9.070312 57.902344 Z M 9.070312 57.902344" style="stroke:none;fill-rule:nonzero;fill:#020c41;fill-opacity:1"/></g></svg>