<svg xmlns="http://www.w3.org/2000/svg" version="1.1" id="Layer_1" x="0px" y="0px" width="70px" height="70px" viewBox="0 0 70 70" enable-background="new 0 0 70 70" xml:space="preserve"><metadata/><rect width="70" fill="none" height="70"/><g id="_x23_1c2565ff"><path id="path5" fill="#184787" d="M51.4,5.2C52.8,4.1,53.6,2.5,54.7,1.1c0.3,1-0.2,1.9-0.5,2.8c0.899-0.9,1.6-2,2.7-2.7    C57,2.5,56.1,3.6,55.5,4.7c1.2-0.5,2.2-1.4,3.4-1.9c0.199,0.8-0.2,1.6-0.7,2.1c-0.3,0.3-0.601,0.5-1,0.8c1.2-0.2,2.2-0.8,3.3-1.2    c0.5,0.7,0,1.4-0.5,1.9c0.3,0,0.6,0,0.9,0c0.199,0.5,0.199,1,0,1.5c-0.2,0.3-0.5,0.5-0.801,0.7c0.4,0,0.801,0,1.2,0.1    c0.101,0.4,0.3,0.9,0.2,1.3c-0.1,0.5-0.7,0.6-1.1,0.8c0.3,0.1,0.6,0.2,0.899,0.3c0,0.4,0,0.9-0.2,1.3c-0.199,0.2-0.399,0.3-0.6,0.5    c0.1,0.1,0.3,0.2,0.4,0.3c-0.101,0.4-0.2,0.8-0.4,1.2c-0.2,0-0.4,0.1-0.7,0.2c0.101,0.2,0.2,0.3,0.3,0.5C60,15.4,59.9,15.7,59.8,16    c-0.2,0.1-0.399,0.2-0.6,0.3c-0.101,0.4-0.101,0.8-0.5,1c-0.2,0.1-0.5,0.3-0.7,0.5c-0.2,0.4-0.1,1-0.3,1.4    c-0.2,0.3-0.601,0.4-0.9,0.6c0,0.3,0,0.6,0.101,0.9C56.8,20.8,56.6,21,56.5,21.1c0,0.5,0,0.9-0.4,1.2c0.5,0.5,0.2,1.2-0.199,1.7    c0,0.2,0,0.4,0.1,0.5c-0.2,0.2-0.4,0.4-0.6,0.6c0,0.4-0.2,0.8-0.601,1.1c0,0.4,0.2,0.8-0.1,1.1c-0.2,0.2-0.5,0.4-0.8,0.6    c-0.301,0.6,0.1,1.5-0.601,2c-0.1,0-0.2,0.1-0.2,0.2c-0.1,0.4,0,0.9-0.199,1.3C52.6,31.9,52,31.9,51.6,32.3    c0.101,0.2,0.301,0.4,0.5,0.6c-0.3,0.4-0.699,0.9-1.199,1c-0.2-0.1-0.4-0.1-0.7-0.2C50.1,34.1,50.1,34.5,50,34.8    c-0.2,0.3-0.6,0.1-1,0.1c0.1,0.6,0.2,1.4,0.8,1.7C52.5,38.1,55.9,38.7,58.9,37.9c-1,0.399-2,0.6-3.101,0.6c-2.1,0-4.1-0.4-6.1-0.9    c2.7,1.101,5.7,1.601,8.7,1.5c-2.7,0.601-5.4,0-8.101-0.5C49.6,38.4,48.9,38.4,48.2,38.4C49.6,39.2,51.1,39.8,52.6,40.6    C52.9,40.8,53.2,40.9,53.4,41.1C53.5,41.4,53.3,41.7,53.1,42c-0.199,0-0.399-0.1-0.6-0.1c0.2,0.1,0.3,0.3,0.5,0.399    c0,0.3-0.1,0.601-0.3,0.9c-0.101,0.3-0.5,0.2-0.7,0.3c0.2,0.5-0.1,0.9-0.5,1.2c-0.1,0.3-0.2,0.8-0.6,0.8    c-0.301,0.1-0.5-0.1-0.601-0.3c-1-1.101-2-2.4-3.3-3.2c-1.4-0.9-3.1-0.9-4.7-1.2c1.5,2.5,4,4.2,5.5,6.601c0.4,0.6,0.7,1.3,0.9,2    c0.7,2.699,0.7,5.5,1.6,8.1c0.601,1.8,1.9,3.2,3.5,4.3c-0.5-0.1-1-0.2-1.399,0c-0.4,0.3-0.5,0.8-0.4,1.3c0.1,1.301,0.7,2.5,1.2,3.7    c-0.8-1-1.4-2.2-2.5-3c-0.3,0.9-0.101,1.8,0.2,2.7c0.199,0.7,0.6,1.4,0.899,2.1c-1.2-1.8-2.6-3.5-3.2-5.5    C47.9,61,47.9,58.8,47.5,56.6c-0.4-2-0.6-4.199-1.7-6C44.4,48.3,42.6,46.3,40.9,44.2c-0.4-0.5-0.801-1-1.301-1.4    c-0.6-0.5-1.3-1-1.8-1.6c-0.6-0.7-1-1.601-1.6-2.4c-0.4-0.6-1.1-0.7-1.7-1c-2.1-1-3.7-2.6-5.5-4c-0.6-0.4-1.2-0.9-1.9-1    c-2.7-0.5-5.4-1.2-7.7-2.7c-1.7-1.1-3.1-2.7-3.7-4.7c-0.3-1-0.4-2.2,0.2-3.2c0.5-1,1.5-1.5,2.1-2.4c0.3-0.5,0.2-1.1-0.1-1.6    c-0.6-1.1-1.4-2.1-2.4-2.9c-2.9-2.1-5.9-4.2-8.9-6.1c2.1,0.8,4.2,1.7,6.4,2.4c1.5,0.3,3.1,0.4,4.4,1.4c1,0.7,1.5,1.8,2.2,2.8    c0.8,1.3,1.3,2.8,1.3,4.3c-0.1,1.6-1.6,2.5-2.1,4c-0.1,1.2,0.6,2.4,1.5,3c1.1,0.7,2.3,1.4,3.6,1.5c1.6,0.1,3.3,0,4.7-0.7    c1.3-0.6,2.7-1.1,4.1-1.2c1.1-0.2,2.2,0,3.399-0.1c1.2-1.3,1.801-3,2.301-4.7c0.699-2.9,0.899-6,2.199-8.8    c0.9-1.9,2.5-3.5,4.301-4.4C45.1,8.8,45.3,8.9,45.4,9C47.2,7.5,49.6,6.6,51.4,5.2 M42.9,43.8c1.6,2.4,3.6,4.601,4.5,7.4    c0.899,2.6,1.199,5.3,1.699,8c0.301,1.3,0.7,2.7,1.7,3.7C49.9,60.3,49.2,57.6,48.9,54.8c-0.2-1.7-0.4-3.399-0.9-5    c-0.4-1-1.1-1.899-1.8-2.7C45,45.9,44,44.9,42.9,43.8z"/><path id="path7" fill="#184787" d="M35.5,18.2c0.6-1,1.8-1.4,2.9-1.6c-0.5,2.6-0.7,5.4-2,7.8c-0.301,0.5-0.601,0.9-0.9,1.3    c-0.6,0-1.3,0-1.9,0c0.7-1.4,1.2-2.8,1.3-4.3C35,20.3,35,19.2,35.5,18.2z"/></g></svg>