<svg xmlns="http://www.w3.org/2000/svg" version="1.1" id="Layer_1" x="0px" y="0px" width="70px" height="70px" viewBox="0 0 70 70" enable-background="new 0 0 70 70" xml:space="preserve"><metadata/><rect width="70" fill="none" height="70"/><path fill="#E22B27" d="M37,37.1l2.7,8.301L36.6,43.1l-1,0.801l5.5,4c-1.699,1.1-3.8,1.8-6,1.8c-2,0-3.8-0.5-5.4-1.5L28.5,49   c1.9,1.2,4.1,1.9,6.5,1.9c2.6,0,5.1-0.801,7-2.301l0,0l-3.7-11.5H37z M37.8,41.5L37.4,40.3L30.3,45.4l1.2-3.7l-1-0.8L28.4,47.3   c-2.5-2-4.1-5-4.1-8.399c0-0.801,0.1-1.601,0.3-2.301l-1.1-0.8c-0.3,1-0.4,2-0.4,3.101c0,4,1.9,7.5,4.9,9.699l0,0L37.8,41.5z    M47,38.9c0-1.301-0.2-2.5-0.6-3.7l0,0l0,0H34.3l-0.4,1.2h8.7l-3.1,2.3l0.4,1.2l5.5-4C45.7,36.8,45.8,37.8,45.8,38.8   c0,3.2-1.399,6-3.6,8l0.399,1.3C45.3,46,47,42.7,47,38.9z M44.9,34.6h1.3C44.5,30.2,40.1,27,35,27l0,0l0,0l-3.7,11.5l1,0.8L35,31   l1.2,3.7h1.3l-2.1-6.4C39.6,28.4,43.2,31,44.9,34.6z M23.7,35.2l9.8,7.1l1-0.8l-7.1-5.1h3.9l0.4-1.2H25c1.4-3.8,4.9-6.6,9-7l0.4-1.3   C29.4,27.3,25.2,30.6,23.7,35.2L23.7,35.2L23.7,35.2L23.7,35.2z M36.8,17.7c-0.6,1,0,2.1,0.8,2.5c0.9,0.4,2.101-0.1,2.301-1.2   c0.1-0.3-0.101-0.6-0.4-0.7c-0.3-0.1-0.7,0-0.8,0.3c-0.101,0.2,0,0.5,0.1,0.6c0,0-0.2,0.2-0.8-0.1c-0.6-0.2-0.6-0.5-0.6-0.5   c0.199,0,0.399-0.2,0.5-0.4c0.1-0.3,0-0.7-0.301-0.8C37.3,17.3,37,17.4,36.8,17.7z M40.1,23.4c-0.5-0.9-1.5-0.6-2,0.9   c0.4,0.1,0.7,0.2,1.101,0.3C39.6,23.4,40.1,23.4,40.1,23.4z M40.3,21.4c0.9-0.7,1.5-1.2,2.3-1.2c0.601,0,1,0.2,1.301,0.5   c0.3,0.3,0.5,0.8,0.5,1.6c0,0.8-0.2,1.2-0.5,1.6C43.6,24.2,43.1,24.6,42.6,24.8C41.9,25.1,42,25.9,42,25.9c1.4-0.1,2.3-0.7,2.8-1.2   s0.8-1.3,0.8-2.3s-0.3-1.8-0.8-2.4s-1.3-0.9-2.2-0.9c-0.899,0-1.699,0.5-2.199,1C40,20.5,39.1,21.2,37.8,21.2   C38,22.1,39.6,22,40.3,21.4z M41.7,24.2c-0.2-0.5-1.101-0.9-1.601,0.6c0.301,0.1,0.7,0.3,1,0.4C41.3,24.4,41.7,24.2,41.7,24.2z    M32.9,24.1C33.3,24,33.6,24,34,24c-0.4-1.9-1.6-2.4-2.2-1.4C31.8,22.6,32.5,22.7,32.9,24.1z M35,20.8L35,20.8L35,20.8   c-0.5,0.5-0.8,1.2-0.8,1.2c0.3,0.3,0.8,1.1,0.8,1.1s0.4-0.9,0.8-1.1C35.8,22,35.6,21.3,35,20.8L35,20.8L35,20.8z M36,24   c0.4,0,0.8,0.1,1.1,0.1c0.301-1.4,1.101-1.5,1.101-1.5C37.7,21.5,36.5,22.1,36,24z M33.8,18l1.2-0.9l1.2,0.9l-0.5-1.4l1.2-0.9h-1.5   L35,14.2l-0.5,1.4H33l1.2,0.9L33.8,18z M35,18.1c-0.5,0-1,0.4-1,1c0,0.5,0.4,1,1,1c0.5,0,1-0.4,1-1S35.6,18.1,35,18.1z M41.7,27.6   v-1.4c-2-1-4.2-1.6-6.6-1.6s-4.6,0.6-6.6,1.6v1.4c1.9-1.1,4.2-1.8,6.6-1.8S39.7,26.5,41.7,27.6z M32.4,20.2c0.9-0.4,1.4-1.5,0.8-2.5   c-0.2-0.2-0.5-0.4-0.8-0.2c-0.3,0.1-0.5,0.5-0.3,0.8c0.1,0.2,0.3,0.4,0.5,0.4c0,0,0,0.3-0.6,0.5c-0.6,0.2-0.8,0.1-0.8,0.1   c0.1-0.2,0.2-0.4,0.1-0.6c-0.1-0.3-0.5-0.5-0.8-0.3c-0.3,0.1-0.4,0.4-0.4,0.7C30.3,20.1,31.5,20.5,32.4,20.2z M30,23.4   c0,0,0.5,0,0.9,1.2c0.4-0.1,0.7-0.2,1.1-0.3C31.4,22.8,30.5,22.5,30,23.4z M29,25.2c0.3-0.1,0.6-0.3,1-0.4c-0.5-1.5-1.5-1.1-1.6-0.6   C28.3,24.2,28.8,24.4,29,25.2z M28.1,25.8c0,0,0.1-0.7-0.6-1.1c-0.5-0.2-1-0.6-1.3-0.9c-0.3-0.4-0.5-0.8-0.5-1.6   c0-0.8,0.2-1.3,0.5-1.6c0.3-0.3,0.7-0.5,1.3-0.5c0.8,0,1.4,0.5,2.3,1.2c0.8,0.6,2.4,0.7,2.5-0.4c-1.3,0-2.2-0.7-2.6-1.1   c-0.5-0.6-1.3-1-2.2-1s-1.7,0.3-2.2,0.9c-0.5,0.6-0.8,1.4-0.8,2.4s0.4,1.8,0.8,2.3C25.8,25.1,26.7,25.7,28.1,25.8z M47,35.2   c0.1,0.399,0.2,0.8,0.3,1.2h19c-1.1,1.1-1.6,1.8-4.6,1.8h-5.9c-0.7,0.8-2.1,1.2-2.1,1.2h8.5c2.7,0,3.899-0.801,5.1-2.101l1.9-2.1H47   z M59.1,41.2H53.2C52.5,42,51,42.4,51,42.4h8.5c2.7,0,3.9-0.801,5.1-2.101L64.9,39.9h-1.7C62.4,40.7,61.7,41.2,59.1,41.2z    M56.5,44.2h-5.9c-0.699,0.8-2.1,1.2-2.1,1.2H57c2.7,0,3.9-0.801,5.1-2.101L62.4,42.9h-1.7C59.9,43.7,59.1,44.2,56.5,44.2z    M53.9,47.2h-9.5C44,47.6,43.6,48.1,43.2,48.4h11.1c2.7,0,3.9-0.801,5.101-2.101l0.3-0.399H58C57.3,46.7,56.5,47.2,53.9,47.2z    M21.6,45.4c0,0-1.5-0.4-2.1-1.2h-5.9c-2.6,0-3.3-0.5-4.2-1.3H7.7L8,43.3c1.2,1.3,2.4,2.101,5.1,2.101H21.6L21.6,45.4z M25.6,47.2   h-9.5c-2.6,0-3.3-0.5-4.2-1.3h-1.7l0.3,0.399c1.2,1.3,2.4,2.101,5.1,2.101h11.1C26.4,48,26,47.6,25.6,47.2z M16.4,39.4   c0,0-1.5-0.4-2.1-1.2H8.4c-3.1,0-3.6-0.7-4.6-1.8h19c0.1-0.4,0.2-0.801,0.3-1.2H1l1.9,2.1C4.1,38.6,5.3,39.4,8,39.4H16.4z M19,42.4   c0,0-1.5-0.4-2.1-1.2H11c-2.6,0-3.3-0.5-4.2-1.3H5.1L5.4,40.3c1.2,1.3,2.4,2.101,5.1,2.101H19L19,42.4z"/></svg>