<svg xmlns="http://www.w3.org/2000/svg" version="1.1" width="70px" height="70px" viewBox="0 0 70 70"><g id="surface1"><path d="M 0 0 C 23.101562 0 46.199219 0 70 0 C 70 23.101562 70 46.199219 70 70 C 46.898438 70 23.800781 70 0 70 C 0 46.898438 0 23.800781 0 0 Z M 0 0 " style=" stroke:none;fill-rule:nonzero;fill:rgb(99.607843%,99.215686%,99.215686%);fill-opacity:1;"/><path d="M 59.167969 25.988281 C 59.523438 26.003906 59.875 26.019531 60.238281 26.039062 C 60.605469 26.058594 60.972656 26.078125 61.347656 26.097656 C 61.722656 26.113281 62.09375 26.132812 62.476562 26.148438 C 63.394531 26.191406 64.3125 26.238281 65.226562 26.289062 C 65.226562 26.691406 65.226562 27.09375 65.226562 27.511719 C 64.464844 27.890625 63.703125 28.265625 62.941406 28.636719 C 62.730469 28.742188 62.523438 28.847656 62.308594 28.953125 C 59.625 30.261719 56.785156 31.207031 53.964844 32.207031 C 49.96875 33.628906 46.285156 35.183594 42.636719 37.292969 C 39.6875 38.902344 36.632812 39.84375 33.402344 40.769531 C 32.726562 40.964844 32.726562 40.964844 31.902344 41.304688 C 31.085938 41.609375 30.34375 41.703125 29.472656 41.800781 C 27.601562 42.074219 25.984375 42.648438 24.261719 43.371094 C 22.085938 44.273438 20.109375 44.371094 17.777344 44.363281 C 17.398438 44.363281 17.398438 44.363281 17.007812 44.363281 C 16.761719 44.363281 16.519531 44.363281 16.265625 44.363281 C 16.042969 44.363281 15.824219 44.363281 15.59375 44.363281 C 14.90625 44.320312 14.332031 44.25 13.683594 44.015625 C 13.578125 43.714844 13.472656 43.414062 13.363281 43.101562 C 12.625 42.542969 12.625 42.542969 11.753906 42.011719 C 11.21875 41.675781 10.691406 41.328125 10.183594 40.960938 C 10.183594 40.757812 10.183594 40.558594 10.183594 40.347656 C 9.132812 40.550781 8.082031 40.753906 7 40.960938 C 7 40.65625 7 40.355469 7 40.042969 C 7.316406 40.042969 7.628906 40.042969 7.953125 40.042969 C 7.960938 39.867188 7.96875 39.6875 7.976562 39.503906 C 8.4375 38.433594 9.40625 38.128906 10.441406 37.65625 C 10.640625 37.554688 10.839844 37.457031 11.046875 37.355469 C 11.878906 36.964844 12.523438 36.664062 13.460938 36.734375 C 14 36.988281 14 36.988281 14.753906 37.578125 C 16.46875 38.871094 18.257812 39.023438 20.363281 38.820312 C 22.730469 38.410156 24.789062 37.515625 26.945312 36.519531 C 28.292969 35.945312 29.664062 35.566406 31.082031 35.171875 C 32.214844 34.824219 33.277344 34.394531 34.363281 33.929688 C 36.128906 33.179688 37.886719 32.613281 39.734375 32.089844 C 40.6875 31.804688 41.582031 31.464844 42.496094 31.082031 C 46.460938 29.445312 50.609375 28.203125 54.707031 26.914062 C 55.652344 26.621094 55.652344 26.621094 56.417969 26.269531 C 57.40625 25.9375 58.128906 25.9375 59.167969 25.988281 Z M 59.167969 25.988281 " style=" stroke:none;fill-rule:nonzero;fill:rgb(87.843138%,1.960784%,1.568628%);fill-opacity:1;"/><path d="M 42.019531 15.113281 C 43.59375 16.210938 45.058594 17.378906 46.136719 18.953125 C 46.136719 19.152344 46.136719 19.355469 46.136719 19.5625 C 46.453125 19.664062 46.765625 19.765625 47.089844 19.867188 C 48.445312 21.441406 50.273438 23.875 50.273438 25.984375 C 49.851562 26.082031 49.433594 26.183594 49 26.289062 C 48.847656 26.019531 48.699219 25.75 48.542969 25.46875 C 45.878906 20.785156 42.632812 17.035156 37.546875 14.671875 C 37.210938 14.515625 36.875 14.355469 36.53125 14.195312 C 32.835938 12.550781 29.378906 12.1875 25.355469 12.152344 C 25.09375 12.148438 24.832031 12.144531 24.5625 12.140625 C 19.828125 12.167969 15.496094 14.0625 11.632812 16.601562 C 10.816406 17.117188 10.816406 17.117188 10.183594 17.117188 C 10.101562 17.292969 10.023438 17.472656 9.941406 17.652344 C 9.488281 18.441406 8.976562 18.96875 8.273438 19.5625 C 8.0625 19.5625 7.851562 19.5625 7.636719 19.5625 C 7.550781 19.738281 7.464844 19.914062 7.375 20.09375 C 6.996094 20.792969 6.570312 21.417969 6.105469 22.066406 C 5.765625 22.554688 5.429688 23.046875 5.089844 23.539062 C 4.953125 23.734375 4.8125 23.929688 4.667969 24.132812 C 1.609375 28.859375 1.078125 35.140625 2.050781 40.527344 C 2.398438 41.949219 2.90625 43.28125 3.5 44.628906 C 3.605469 44.894531 3.710938 45.164062 3.820312 45.4375 C 5.609375 49.683594 8.996094 53.277344 13.046875 55.632812 C 13.355469 55.820312 13.667969 56.003906 13.984375 56.195312 C 19.96875 59.546875 26.46875 59.792969 33.089844 58.382812 C 33.542969 58.289062 33.542969 58.289062 34 58.195312 C 36.195312 57.652344 37.917969 56.550781 39.773438 55.328125 C 40.105469 55.125 40.441406 54.925781 40.785156 54.714844 C 45.625 51.410156 49.53125 45.960938 50.535156 40.253906 C 50.699219 39.167969 50.816406 38.082031 50.910156 36.988281 C 51.695312 36.835938 51.695312 36.835938 52.5 36.679688 C 52.566406 42.324219 50.289062 47.246094 46.773438 51.660156 C 46.589844 51.894531 46.40625 52.132812 46.21875 52.378906 C 42.292969 57.082031 36.027344 59.949219 29.910156 60.828125 C 24.230469 61.332031 19.082031 60.628906 14 58.078125 C 13.738281 57.957031 13.476562 57.832031 13.207031 57.707031 C 11.304688 56.769531 9.8125 55.515625 8.273438 54.105469 C 7.867188 53.746094 7.867188 53.746094 7.457031 53.378906 C 1.714844 47.4375 -0.0273438 41.449219 0.175781 33.410156 C 0.5 26.648438 3.796875 21.203125 8.800781 16.535156 C 18.140625 8.503906 31.90625 8.503906 42.019531 15.113281 Z M 42.019531 15.113281 " style=" stroke:none;fill-rule:nonzero;fill:rgb(87.450981%,5.490196%,5.882353%);fill-opacity:1;"/><path d="M 42.019531 15.113281 C 43.59375 16.210938 45.058594 17.378906 46.136719 18.953125 C 46.136719 19.152344 46.136719 19.355469 46.136719 19.5625 C 46.453125 19.664062 46.765625 19.765625 47.089844 19.867188 C 48.445312 21.441406 50.273438 23.875 50.273438 25.984375 C 49.851562 26.082031 49.433594 26.183594 49 26.289062 C 48.847656 26.019531 48.699219 25.75 48.542969 25.46875 C 45.878906 20.785156 42.632812 17.035156 37.546875 14.671875 C 37.210938 14.515625 36.875 14.355469 36.53125 14.195312 C 32.835938 12.550781 29.378906 12.1875 25.355469 12.152344 C 25.09375 12.148438 24.832031 12.144531 24.5625 12.140625 C 19.828125 12.167969 15.496094 14.0625 11.632812 16.601562 C 10.816406 17.117188 10.816406 17.117188 10.183594 17.117188 C 10.101562 17.292969 10.023438 17.472656 9.941406 17.652344 C 9.488281 18.441406 8.976562 18.96875 8.273438 19.5625 C 8.0625 19.5625 7.851562 19.5625 7.636719 19.5625 C 7.550781 19.738281 7.464844 19.914062 7.375 20.09375 C 6.996094 20.792969 6.570312 21.417969 6.105469 22.066406 C 5.765625 22.554688 5.429688 23.046875 5.089844 23.539062 C 4.953125 23.734375 4.8125 23.929688 4.667969 24.132812 C 3.164062 26.460938 2.601562 29.164062 1.910156 31.789062 C 1.382812 31.691406 0.859375 31.589844 0.316406 31.484375 C 2.027344 24.3125 5.359375 18.429688 11.90625 14.230469 C 21.460938 8.710938 32.832031 9.109375 42.019531 15.113281 Z M 42.019531 15.113281 " style=" stroke:none;fill-rule:nonzero;fill:rgb(85.490197%,9.019608%,9.411765%);fill-opacity:1;"/><path d="M 31.183594 11.308594 C 33.125 11.214844 34.511719 11.453125 36.292969 12.1875 C 36.523438 12.285156 36.757812 12.378906 36.996094 12.476562 C 40.34375 13.898438 44.132812 15.894531 46.136719 18.953125 C 46.136719 19.152344 46.136719 19.355469 46.136719 19.5625 C 46.453125 19.664062 46.765625 19.765625 47.089844 19.867188 C 48.445312 21.441406 50.273438 23.875 50.273438 25.984375 C 49.644531 26.132812 49.644531 26.132812 49 26.289062 C 48.847656 26.019531 48.699219 25.75 48.542969 25.46875 C 44.558594 18.464844 39.03125 14.640625 31.183594 12.226562 C 31.183594 11.925781 31.183594 11.621094 31.183594 11.308594 Z M 31.183594 11.308594 " style=" stroke:none;fill-rule:nonzero;fill:rgb(85.882354%,7.843138%,8.235294%);fill-opacity:1;"/><path d="M 51.226562 36.679688 C 51.648438 36.679688 52.066406 36.679688 52.5 36.679688 C 52.582031 43.394531 49.316406 49.355469 44.546875 54.105469 C 44.230469 54.003906 43.914062 53.902344 43.589844 53.800781 C 43.058594 54.097656 42.527344 54.40625 42 54.714844 C 41.789062 54.617188 41.578125 54.515625 41.363281 54.410156 C 41.539062 54.277344 41.710938 54.140625 41.890625 54.003906 C 46.96875 49.898438 50.171875 44.183594 50.804688 37.859375 C 50.910156 36.988281 50.910156 36.988281 51.226562 36.679688 Z M 51.226562 36.679688 " style=" stroke:none;fill-rule:nonzero;fill:rgb(87.058824%,7.450981%,7.450981%);fill-opacity:1;"/><path d="M 25.871094 10.316406 C 26.339844 10.3125 26.339844 10.3125 26.820312 10.308594 C 28.875 10.316406 30.773438 10.542969 32.773438 11.003906 C 32.46875 11.222656 32.46875 11.222656 32.15625 11.445312 C 31.539062 11.871094 31.539062 11.871094 31.183594 12.226562 C 30.441406 12.234375 29.699219 12.222656 28.957031 12.199219 C 28.621094 12.191406 28.621094 12.191406 28.28125 12.179688 C 27.808594 12.167969 27.332031 12.152344 26.859375 12.136719 C 26.136719 12.113281 25.410156 12.09375 24.6875 12.070312 C 24.226562 12.058594 23.769531 12.042969 23.308594 12.027344 C 22.890625 12.015625 22.46875 12.003906 22.039062 11.988281 C 21 11.921875 21 11.921875 20.046875 11.617188 C 20.046875 11.414062 20.046875 11.210938 20.046875 11.003906 C 22.003906 10.339844 23.808594 10.300781 25.871094 10.316406 Z M 25.871094 10.316406 " style=" stroke:none;fill-rule:nonzero;fill:rgb(87.450981%,20.392157%,20.392157%);fill-opacity:1;"/><path d="M 1.273438 30.566406 C 1.378906 30.566406 1.484375 30.566406 1.589844 30.566406 C 1.597656 30.832031 1.605469 31.097656 1.609375 31.371094 C 1.636719 32.363281 1.664062 33.359375 1.691406 34.351562 C 1.703125 34.78125 1.714844 35.207031 1.726562 35.636719 C 1.777344 37.890625 1.863281 40.011719 2.546875 42.183594 C 2.585938 43.101562 2.585938 43.101562 2.546875 43.710938 C 1.945312 43.636719 1.945312 43.636719 1.273438 43.40625 C -0.109375 41.171875 0.207031 38.214844 0.257812 35.726562 C 0.261719 35.3125 0.269531 34.898438 0.273438 34.488281 C 0.28125 33.484375 0.296875 32.484375 0.316406 31.484375 C 0.632812 31.484375 0.949219 31.484375 1.273438 31.484375 C 1.273438 31.183594 1.273438 30.878906 1.273438 30.566406 Z M 1.273438 30.566406 " style=" stroke:none;fill-rule:nonzero;fill:rgb(85.882354%,12.156863%,10.588235%);fill-opacity:1;"/><path d="M 33.726562 59.300781 C 33.726562 59.503906 33.726562 59.703125 33.726562 59.914062 C 31.253906 60.753906 28.933594 60.921875 26.328125 60.925781 C 25.882812 60.925781 25.882812 60.925781 25.429688 60.929688 C 23.636719 60.914062 22.082031 60.703125 20.363281 60.21875 C 20.363281 60.117188 20.363281 60.015625 20.363281 59.914062 C 21.765625 59.78125 23.171875 59.648438 24.574219 59.519531 C 25.050781 59.476562 25.527344 59.433594 26.003906 59.386719 C 26.691406 59.324219 27.378906 59.257812 28.070312 59.195312 C 28.6875 59.136719 28.6875 59.136719 29.320312 59.078125 C 32.773438 58.84375 32.773438 58.84375 33.726562 59.300781 Z M 33.726562 59.300781 " style=" stroke:none;fill-rule:nonzero;fill:rgb(87.058824%,2.745098%,2.745098%);fill-opacity:1;"/><path d="M 2.546875 42.792969 C 3.101562 43.59375 3.398438 44.214844 3.738281 45.105469 C 4.617188 47.269531 5.847656 49.210938 7.316406 51.046875 C 7.109375 51.046875 6.898438 51.046875 6.683594 51.046875 C 6.578125 51.351562 6.472656 51.652344 6.363281 51.964844 C 5.015625 50.785156 4.15625 49.5625 3.28125 48.03125 C 3.15625 47.820312 3.03125 47.613281 2.90625 47.398438 C 2.144531 46.089844 1.644531 44.863281 1.273438 43.40625 C 1.691406 43.507812 2.113281 43.609375 2.546875 43.710938 C 2.546875 43.410156 2.546875 43.105469 2.546875 42.792969 Z M 2.546875 42.792969 " style=" stroke:none;fill-rule:nonzero;fill:rgb(86.666667%,7.058824%,7.843138%);fill-opacity:1;"/><path d="M 0.953125 24.761719 C 1.46875 25.238281 1.46875 25.238281 1.910156 25.984375 C 1.761719 26.722656 1.574219 27.371094 1.332031 28.085938 C 0.5625 30.691406 0.515625 33.265625 0.535156 35.957031 C 0.539062 36.355469 0.542969 36.753906 0.542969 37.164062 C 0.570312 38.96875 0.660156 40.703125 0.953125 42.488281 C 0.640625 42.488281 0.324219 42.488281 0 42.488281 C -0.0234375 40.269531 -0.0390625 38.046875 -0.0507812 35.824219 C -0.0546875 34.792969 -0.0625 33.761719 -0.0703125 32.730469 C -0.0820312 31.546875 -0.0898438 30.359375 -0.09375 29.175781 C -0.0976562 28.804688 -0.101562 28.433594 -0.109375 28.050781 C -0.109375 27.535156 -0.109375 27.535156 -0.109375 27.011719 C -0.109375 26.710938 -0.113281 26.40625 -0.113281 26.09375 C -0.078125 25.855469 -0.0390625 25.617188 0 25.371094 C 0.316406 25.167969 0.628906 24.96875 0.953125 24.761719 Z M 0.953125 24.761719 " style=" stroke:none;fill-rule:nonzero;fill:rgb(97.254902%,93.333334%,93.333334%);fill-opacity:1;"/><path d="M 51.226562 36.679688 C 51.648438 36.679688 52.066406 36.679688 52.5 36.679688 C 52.414062 39.53125 52 41.972656 50.910156 44.628906 C 50.054688 43.4375 50.246094 42.203125 50.351562 40.828125 C 50.363281 40.597656 50.378906 40.367188 50.390625 40.132812 C 50.476562 38.867188 50.644531 37.835938 51.226562 36.679688 Z M 51.226562 36.679688 " style=" stroke:none;fill-rule:nonzero;fill:rgb(86.666667%,7.843138%,8.235294%);fill-opacity:1;"/><path d="M 6.683594 51.046875 C 7.824219 51.519531 8.617188 52.1875 9.527344 52.996094 C 10.34375 53.722656 11.148438 54.417969 12.03125 55.070312 C 12.261719 55.257812 12.492188 55.441406 12.726562 55.632812 C 12.726562 55.835938 12.726562 56.035156 12.726562 56.246094 C 10.121094 56.191406 8.558594 54.703125 6.800781 52.976562 C 6.363281 52.269531 6.363281 52.269531 6.441406 51.5625 C 6.523438 51.394531 6.601562 51.222656 6.683594 51.046875 Z M 6.683594 51.046875 " style=" stroke:none;fill-rule:nonzero;fill:rgb(87.450981%,3.921569%,5.490196%);fill-opacity:1;"/><path d="M 11.773438 37.292969 C 11.773438 37.59375 11.773438 37.898438 11.773438 38.210938 C 11.984375 38.308594 12.191406 38.410156 12.410156 38.515625 C 11.988281 38.617188 11.570312 38.71875 11.136719 38.820312 C 11.453125 39.273438 11.453125 39.273438 11.773438 39.738281 C 11.457031 39.890625 11.457031 39.890625 11.136719 40.042969 C 10.925781 39.941406 10.714844 39.84375 10.5 39.738281 C 10.710938 40.242188 10.921875 40.746094 11.136719 41.265625 C 10.820312 41.164062 10.507812 41.066406 10.183594 40.960938 C 10.183594 40.757812 10.183594 40.558594 10.183594 40.347656 C 9.132812 40.550781 8.082031 40.753906 7 40.960938 C 7 40.65625 7 40.355469 7 40.042969 C 7.316406 40.042969 7.628906 40.042969 7.953125 40.042969 C 7.976562 39.859375 8 39.675781 8.027344 39.484375 C 8.363281 38.578125 8.808594 38.417969 9.683594 37.980469 C 10.066406 37.785156 10.066406 37.785156 10.460938 37.582031 C 11.136719 37.292969 11.136719 37.292969 11.773438 37.292969 Z M 11.773438 37.292969 " style=" stroke:none;fill-rule:nonzero;fill:rgb(87.450981%,2.745098%,4.705882%);fill-opacity:1;"/><path d="M 32.773438 40.042969 C 33.8125 39.929688 33.8125 39.929688 34.683594 39.738281 C 34.683594 39.941406 34.683594 40.140625 34.683594 40.347656 C 32.390625 41.285156 30.492188 41.757812 28 41.570312 C 28 41.066406 28 40.5625 28 40.042969 C 29.691406 39.808594 31.082031 39.753906 32.773438 40.042969 Z M 32.773438 40.042969 " style=" stroke:none;fill-rule:nonzero;fill:rgb(85.09804%,1.568628%,0.392157%);fill-opacity:1;"/><path d="M 45.5 52.578125 C 45.816406 53.492188 45.816406 53.492188 45.5 54.410156 C 45.289062 54.410156 45.078125 54.410156 44.863281 54.410156 C 44.757812 54.914062 44.652344 55.417969 44.546875 55.9375 C 44.230469 56.039062 43.914062 56.140625 43.589844 56.246094 C 43.484375 56.75 43.382812 57.253906 43.273438 57.773438 C 43.0625 57.371094 42.851562 56.964844 42.636719 56.550781 C 42.320312 57.003906 42.320312 57.003906 42 57.46875 C 41.3125 57.625 41.3125 57.625 40.527344 57.675781 C 40.269531 57.699219 40.007812 57.71875 39.742188 57.738281 C 39.441406 57.753906 39.441406 57.753906 39.136719 57.773438 C 39.664062 57.363281 40.195312 56.957031 40.726562 56.550781 C 40.960938 56.371094 41.195312 56.1875 41.4375 56.003906 C 41.6875 55.8125 41.941406 55.621094 42.199219 55.421875 C 42.4375 55.238281 42.679688 55.054688 42.925781 54.867188 C 43.589844 54.410156 43.589844 54.410156 44.546875 54.105469 C 44.910156 53.503906 44.910156 53.503906 45.183594 52.882812 C 45.285156 52.78125 45.390625 52.679688 45.5 52.578125 Z M 45.5 52.578125 " style=" stroke:none;fill-rule:nonzero;fill:rgb(95.686275%,94.117647%,92.54902%);fill-opacity:1;"/><path d="M 1.273438 30.566406 C 1.378906 30.566406 1.484375 30.566406 1.589844 30.566406 C 1.679688 36.214844 1.679688 36.214844 0.636719 38.820312 C 0.53125 38.820312 0.425781 38.820312 0.316406 38.820312 C 0.316406 36.398438 0.316406 33.980469 0.316406 31.484375 C 0.632812 31.484375 0.949219 31.484375 1.273438 31.484375 C 1.273438 31.183594 1.273438 30.878906 1.273438 30.566406 Z M 1.273438 30.566406 " style=" stroke:none;fill-rule:nonzero;fill:rgb(87.450981%,0.392157%,0.392157%);fill-opacity:1;"/><path d="M 22.273438 12.226562 C 21.59375 12.371094 20.914062 12.515625 20.230469 12.660156 C 19.695312 12.777344 19.160156 12.894531 18.625 13.015625 C 18.378906 13.070312 18.132812 13.125 17.878906 13.183594 C 17.652344 13.234375 17.425781 13.285156 17.195312 13.335938 C 16.546875 13.449219 16.546875 13.449219 15.273438 13.449219 C 15.273438 13.148438 15.273438 12.84375 15.273438 12.53125 C 17.863281 11.484375 19.664062 10.917969 22.273438 12.226562 Z M 22.273438 12.226562 " style=" stroke:none;fill-rule:nonzero;fill:rgb(86.274511%,6.27451%,6.27451%);fill-opacity:1;"/><path d="M 45.816406 50.132812 C 45.921875 50.332031 46.027344 50.535156 46.136719 50.742188 C 46.03125 50.945312 45.925781 51.144531 45.816406 51.355469 C 46.027344 51.355469 46.238281 51.355469 46.453125 51.355469 C 45.96875 52.402344 45.308594 53.222656 44.546875 54.105469 C 44.230469 54.003906 43.914062 53.902344 43.589844 53.800781 C 43.058594 54.097656 42.527344 54.40625 42 54.714844 C 41.789062 54.617188 41.578125 54.515625 41.363281 54.410156 C 41.550781 54.253906 41.738281 54.101562 41.933594 53.941406 C 43.363281 52.746094 44.65625 51.570312 45.816406 50.132812 Z M 45.816406 50.132812 " style=" stroke:none;fill-rule:nonzero;fill:rgb(86.666667%,10.980392%,12.54902%);fill-opacity:1;"/><path d="M 50.273438 25.675781 C 50.484375 26.082031 50.691406 26.484375 50.910156 26.898438 C 51.328125 26.898438 51.75 26.898438 52.183594 26.898438 C 52.285156 27.203125 52.390625 27.503906 52.5 27.816406 C 51.082031 28.269531 51.082031 28.269531 49.636719 28.734375 C 49.320312 28.429688 49.007812 28.128906 48.683594 27.816406 C 48.941406 26.917969 48.941406 26.917969 49.316406 25.984375 C 49.632812 25.882812 49.949219 25.78125 50.273438 25.675781 Z M 50.273438 25.675781 " style=" stroke:none;fill-rule:nonzero;fill:rgb(97.254902%,97.254902%,96.078432%);fill-opacity:1;"/><path d="M 43.589844 53.1875 C 43.695312 53.589844 43.800781 53.996094 43.910156 54.410156 C 42.382812 55.871094 41.339844 56.8125 39.136719 56.855469 C 39.863281 55.457031 41.203125 54.488281 42.636719 53.800781 C 42.953125 53.800781 43.265625 53.800781 43.589844 53.800781 C 43.589844 53.597656 43.589844 53.394531 43.589844 53.1875 Z M 43.589844 53.1875 " style=" stroke:none;fill-rule:nonzero;fill:rgb(86.666667%,3.921569%,4.313726%);fill-opacity:1;"/><path d="M 55.046875 32.097656 C 55.046875 33.011719 55.046875 33.011719 54.410156 33.929688 C 53.605469 34.042969 53.605469 34.042969 52.660156 34.027344 C 52.347656 34.023438 52.035156 34.023438 51.714844 34.023438 C 50.910156 33.929688 50.910156 33.929688 50.273438 33.320312 C 50.949219 33.054688 51.625 32.792969 52.300781 32.535156 C 52.867188 32.316406 52.867188 32.316406 53.441406 32.09375 C 54.410156 31.789062 54.410156 31.789062 55.046875 32.097656 Z M 55.046875 32.097656 " style=" stroke:none;fill-rule:nonzero;fill:rgb(96.470588%,95.686275%,94.901961%);fill-opacity:1;"/><path d="M 15.273438 12.839844 C 15.273438 13.039062 15.273438 13.242188 15.273438 13.449219 C 16.375 13.296875 16.375 13.296875 17.5 13.144531 C 16.28125 14.160156 14.835938 14.6875 13.363281 15.285156 C 13.257812 15.082031 13.152344 14.878906 13.046875 14.671875 C 12.402344 14.472656 12.402344 14.472656 11.773438 14.367188 C 12.234375 14.109375 12.699219 13.855469 13.164062 13.601562 C 13.421875 13.460938 13.679688 13.320312 13.949219 13.171875 C 14.636719 12.839844 14.636719 12.839844 15.273438 12.839844 Z M 15.273438 12.839844 " style=" stroke:none;fill-rule:nonzero;fill:rgb(87.058824%,15.294118%,16.862746%);fill-opacity:1;"/><path d="M 44.226562 17.117188 C 45.160156 17.367188 45.160156 17.367188 46.136719 17.730469 C 46.242188 18.03125 46.347656 18.335938 46.453125 18.644531 C 46.664062 18.644531 46.875 18.644531 47.089844 18.644531 C 47.195312 18.445312 47.300781 18.242188 47.410156 18.035156 C 47.617188 18.035156 47.828125 18.035156 48.046875 18.035156 C 48.152344 19.246094 48.253906 20.457031 48.363281 21.703125 C 47.519531 20.894531 46.71875 20.097656 45.9375 19.238281 C 45.75 19.035156 45.5625 18.828125 45.367188 18.617188 C 44.863281 18.035156 44.863281 18.035156 44.226562 17.117188 Z M 44.226562 17.117188 " style=" stroke:none;fill-rule:nonzero;fill:rgb(97.254902%,94.117647%,92.54902%);fill-opacity:1;"/><path d="M 5.089844 20.480469 C 5.195312 20.683594 5.300781 20.882812 5.410156 21.089844 C 5.722656 21.292969 6.039062 21.496094 6.363281 21.703125 C 6.113281 22.097656 5.859375 22.492188 5.609375 22.886719 C 5.46875 23.109375 5.328125 23.328125 5.183594 23.554688 C 4.773438 24.148438 4.773438 24.148438 4.136719 24.761719 C 4.136719 24.457031 4.136719 24.15625 4.136719 23.84375 C 3.925781 23.742188 3.714844 23.640625 3.5 23.539062 C 3.5 23.738281 3.5 23.941406 3.5 24.148438 C 3.289062 24.046875 3.078125 23.945312 2.863281 23.84375 C 3.175781 23.339844 3.484375 22.835938 3.796875 22.332031 C 3.972656 22.054688 4.144531 21.773438 4.324219 21.484375 C 4.773438 20.785156 4.773438 20.785156 5.089844 20.480469 Z M 5.089844 20.480469 " style=" stroke:none;fill-rule:nonzero;fill:rgb(83.92157%,15.294118%,15.686275%);fill-opacity:1;"/><path d="M 14 36.988281 C 14.535156 37.386719 15.066406 37.796875 15.589844 38.210938 C 15.90625 38.308594 16.222656 38.410156 16.546875 38.515625 C 16.441406 38.71875 16.335938 38.917969 16.226562 39.125 C 14.929688 39.222656 14.214844 39.261719 13.105469 38.574219 C 12.410156 37.902344 12.410156 37.902344 11.773438 36.988281 C 12.800781 36.65625 13.023438 36.628906 14 36.988281 Z M 14 36.988281 " style=" stroke:none;fill-rule:nonzero;fill:rgb(88.627452%,4.313726%,5.882353%);fill-opacity:1;"/><path d="M 59.136719 26.019531 C 59.667969 26.042969 59.667969 26.042969 60.210938 26.0625 C 60.765625 26.089844 60.765625 26.089844 61.328125 26.117188 C 61.890625 26.140625 61.890625 26.140625 62.460938 26.164062 C 63.382812 26.203125 64.304688 26.246094 65.226562 26.289062 C 65.226562 26.691406 65.226562 27.09375 65.226562 27.511719 C 65.121094 27.207031 65.015625 26.90625 64.910156 26.59375 C 64.539062 26.613281 64.539062 26.613281 64.160156 26.632812 C 63.042969 26.6875 61.929688 26.734375 60.8125 26.785156 C 60.421875 26.804688 60.035156 26.824219 59.632812 26.84375 C 59.078125 26.867188 59.078125 26.867188 58.507812 26.890625 C 57.992188 26.917969 57.992188 26.917969 57.46875 26.941406 C 56.636719 26.898438 56.636719 26.898438 56 26.289062 C 57.078125 25.96875 58.015625 25.96875 59.136719 26.019531 Z M 59.136719 26.019531 " style=" stroke:none;fill-rule:nonzero;fill:rgb(87.058824%,24.313726%,23.921569%);fill-opacity:1;"/><path d="M 24.183594 41.878906 C 24.183594 42.078125 24.183594 42.28125 24.183594 42.488281 C 24.707031 42.488281 25.230469 42.488281 25.773438 42.488281 C 23.207031 44.132812 20.804688 44.378906 17.816406 44.324219 C 17.816406 44.222656 17.816406 44.121094 17.816406 44.015625 C 18.226562 43.960938 18.226562 43.960938 18.640625 43.90625 C 18.992188 43.855469 19.34375 43.804688 19.707031 43.75 C 20.058594 43.699219 20.410156 43.652344 20.769531 43.597656 C 21.199219 43.503906 21.199219 43.503906 21.636719 43.40625 C 21.742188 43.203125 21.847656 43.003906 21.953125 42.792969 C 22.269531 42.792969 22.585938 42.792969 22.910156 42.792969 C 22.910156 42.59375 22.910156 42.390625 22.910156 42.183594 C 23.546875 41.878906 23.546875 41.878906 24.183594 41.878906 Z M 24.183594 41.878906 " style=" stroke:none;fill-rule:nonzero;fill:rgb(86.274511%,9.803922%,10.588235%);fill-opacity:1;"/><path d="M 51.226562 36.679688 C 51.648438 36.679688 52.066406 36.679688 52.5 36.679688 C 52.394531 38.09375 52.289062 39.503906 52.183594 40.960938 C 52.078125 40.960938 51.972656 40.960938 51.863281 40.960938 C 51.863281 40.355469 51.863281 39.75 51.863281 39.125 C 51.546875 39.125 51.234375 39.125 50.910156 39.125 C 50.804688 39.53125 50.699219 39.933594 50.589844 40.347656 C 50.535156 38.960938 50.589844 37.941406 51.226562 36.679688 Z M 51.226562 36.679688 " style=" stroke:none;fill-rule:nonzero;fill:rgb(87.450981%,12.156863%,12.156863%);fill-opacity:1;"/><path d="M 29.589844 10.699219 C 30.640625 10.800781 31.691406 10.902344 32.773438 11.003906 C 32.351562 11.308594 31.933594 11.609375 31.5 11.921875 C 31.394531 12.023438 31.289062 12.125 31.183594 12.226562 C 30.613281 12.230469 30.046875 12.214844 29.480469 12.191406 C 29.136719 12.175781 28.792969 12.160156 28.4375 12.144531 C 28.078125 12.128906 27.714844 12.109375 27.34375 12.09375 C 26.980469 12.078125 26.617188 12.0625 26.246094 12.046875 C 25.34375 12.003906 24.445312 11.964844 23.546875 11.921875 C 23.546875 11.820312 23.546875 11.71875 23.546875 11.617188 C 25.855469 11.515625 28.164062 11.414062 30.546875 11.308594 C 30.230469 11.109375 29.914062 10.90625 29.589844 10.699219 Z M 29.589844 10.699219 " style=" stroke:none;fill-rule:nonzero;fill:rgb(86.274511%,25.490198%,25.882354%);fill-opacity:1;"/><path d="M 40.089844 55.023438 C 40.300781 55.121094 40.511719 55.222656 40.726562 55.328125 C 40.203125 55.832031 39.675781 56.335938 39.136719 56.855469 C 39.453125 56.855469 39.765625 56.855469 40.089844 56.855469 C 40.195312 56.652344 40.300781 56.453125 40.410156 56.246094 C 40.410156 56.546875 40.410156 56.851562 40.410156 57.160156 C 38.835938 57.917969 38.835938 57.917969 37.226562 58.691406 C 37.496094 57.230469 37.734375 56.519531 39.015625 55.652344 C 39.371094 55.445312 39.726562 55.234375 40.089844 55.023438 Z M 40.089844 55.023438 " style=" stroke:none;fill-rule:nonzero;fill:rgb(85.882354%,14.117648%,14.509805%);fill-opacity:1;"/><path d="M 40.410156 32.097656 C 40.410156 32.601562 40.410156 33.105469 40.410156 33.625 C 40.09375 33.777344 40.09375 33.777344 39.773438 33.929688 C 39.773438 33.726562 39.773438 33.527344 39.773438 33.320312 C 39.535156 33.425781 39.300781 33.53125 39.058594 33.644531 C 38.09375 33.960938 37.847656 33.878906 36.910156 33.625 C 36.0625 33.695312 36.0625 33.695312 35.316406 33.929688 C 35.214844 34.132812 35.109375 34.332031 35 34.542969 C 34.789062 34.339844 34.578125 34.136719 34.363281 33.929688 C 38.546875 32.097656 38.546875 32.097656 40.410156 32.097656 Z M 40.410156 32.097656 " style=" stroke:none;fill-rule:nonzero;fill:rgb(87.450981%,10.980392%,12.156863%);fill-opacity:1;"/><path d="M 25.453125 10.699219 C 26.117188 10.683594 26.78125 10.671875 27.441406 10.660156 C 27.996094 10.648438 27.996094 10.648438 28.5625 10.640625 C 29.535156 10.695312 30.050781 10.820312 30.863281 11.308594 C 30.546875 11.617188 30.546875 11.617188 29.402344 11.644531 C 28.925781 11.644531 28.453125 11.640625 27.980469 11.636719 C 27.738281 11.632812 27.496094 11.632812 27.25 11.628906 C 26.652344 11.628906 26.050781 11.621094 25.453125 11.617188 C 25.453125 11.3125 25.453125 11.011719 25.453125 10.699219 Z M 25.453125 10.699219 " style=" stroke:none;fill-rule:nonzero;fill:rgb(87.450981%,2.352941%,2.352941%);fill-opacity:1;"/><path d="M 6.683594 20.785156 C 6.890625 20.886719 7.101562 20.988281 7.316406 21.089844 C 7.316406 21.292969 7.316406 21.496094 7.316406 21.703125 C 7.109375 21.703125 6.898438 21.703125 6.683594 21.703125 C 6.683594 21.90625 6.683594 22.105469 6.683594 22.3125 C 6.996094 22.3125 7.3125 22.3125 7.636719 22.3125 C 7.636719 22.71875 7.636719 23.121094 7.636719 23.539062 C 7.113281 23.4375 6.585938 23.335938 6.046875 23.230469 C 5.941406 23.535156 5.835938 23.835938 5.726562 24.148438 C 5.414062 24.148438 5.097656 24.148438 4.773438 24.148438 C 5.171875 22.769531 5.695312 21.859375 6.683594 20.785156 Z M 6.683594 20.785156 " style=" stroke:none;fill-rule:nonzero;fill:rgb(96.470588%,91.764706%,90.588236%);fill-opacity:1;"/><path d="M 0 32.402344 C 0.105469 32.402344 0.210938 32.402344 0.316406 32.402344 C 0.324219 32.632812 0.335938 32.859375 0.34375 33.097656 C 0.378906 34.144531 0.417969 35.195312 0.457031 36.242188 C 0.46875 36.601562 0.480469 36.964844 0.496094 37.335938 C 0.5625 39.074219 0.644531 40.773438 0.953125 42.488281 C 0.640625 42.488281 0.324219 42.488281 0 42.488281 C 0 39.160156 0 35.832031 0 32.402344 Z M 0 32.402344 " style=" stroke:none;fill-rule:nonzero;fill:rgb(94.509804%,81.568629%,81.568629%);fill-opacity:1;"/><path d="M 24.816406 11.921875 C 24.816406 12.023438 24.816406 12.125 24.816406 12.226562 C 24.464844 12.265625 24.109375 12.300781 23.746094 12.339844 C 22.582031 12.425781 22.582031 12.425781 21.953125 13.144531 C 21.203125 13.234375 20.445312 13.296875 19.6875 13.335938 C 19.28125 13.359375 18.871094 13.382812 18.453125 13.40625 C 18.136719 13.417969 17.824219 13.433594 17.5 13.449219 C 19.972656 12.253906 22.0625 11.875 24.816406 11.921875 Z M 24.816406 11.921875 " style=" stroke:none;fill-rule:nonzero;fill:rgb(94.117647%,83.137256%,81.568629%);fill-opacity:1;"/><path d="M 10.816406 41.265625 C 11.761719 41.871094 12.707031 42.476562 13.683594 43.101562 C 13.367188 43.25 13.367188 43.25 13.046875 43.40625 C 12.941406 43.609375 12.835938 43.808594 12.726562 44.015625 C 12.515625 43.917969 12.308594 43.816406 12.089844 43.710938 C 12.089844 43.511719 12.089844 43.308594 12.089844 43.101562 C 11.566406 43.101562 11.039062 43.101562 10.5 43.101562 C 10.394531 42.695312 10.289062 42.292969 10.183594 41.878906 C 10.390625 41.878906 10.601562 41.878906 10.816406 41.878906 C 10.816406 41.675781 10.816406 41.472656 10.816406 41.265625 Z M 10.816406 41.265625 " style=" stroke:none;fill-rule:nonzero;fill:rgb(96.470588%,91.37255%,90.588236%);fill-opacity:1;"/><path d="M 3.5 23.539062 C 3.816406 23.636719 4.128906 23.738281 4.453125 23.84375 C 4.195312 24.742188 4.195312 24.742188 3.816406 25.675781 C 3.503906 25.777344 3.1875 25.878906 2.863281 25.984375 C 2.675781 26.578125 2.675781 26.578125 2.546875 27.207031 C 2.335938 27.40625 2.125 27.609375 1.910156 27.816406 C 1.945312 27.375 1.984375 26.9375 2.027344 26.5 C 2.050781 26.253906 2.074219 26.007812 2.09375 25.757812 C 2.226562 25.066406 2.226562 25.066406 2.863281 24.148438 C 3.074219 24.148438 3.285156 24.148438 3.5 24.148438 C 3.5 23.945312 3.5 23.746094 3.5 23.539062 Z M 3.5 23.539062 " style=" stroke:none;fill-rule:nonzero;fill:rgb(88.235295%,4.313726%,5.098039%);fill-opacity:1;"/><path d="M 15.589844 14.0625 C 15.800781 14.160156 16.011719 14.261719 16.226562 14.367188 C 14.273438 16.070312 14.273438 16.070312 12.726562 16.199219 C 12.726562 16.402344 12.726562 16.605469 12.726562 16.8125 C 11.253906 17.460938 11.253906 17.460938 10.183594 17.117188 C 10.84375 16.722656 11.507812 16.328125 12.171875 15.933594 C 12.355469 15.820312 12.542969 15.710938 12.734375 15.59375 C 14.828125 14.355469 14.828125 14.355469 15.589844 14.0625 Z M 15.589844 14.0625 " style=" stroke:none;fill-rule:nonzero;fill:rgb(95.686275%,90.196079%,89.019608%);fill-opacity:1;"/><path d="M 46.136719 34.542969 C 46.136719 34.84375 46.136719 35.148438 46.136719 35.457031 C 43.988281 36.679688 43.988281 36.679688 43.273438 36.679688 C 43.273438 36.074219 43.273438 35.472656 43.273438 34.847656 C 44.246094 34.679688 45.144531 34.542969 46.136719 34.542969 Z M 46.136719 34.542969 " style=" stroke:none;fill-rule:nonzero;fill:rgb(85.09804%,6.666667%,6.666667%);fill-opacity:1;"/><path d="M 46.453125 30.261719 C 46.347656 30.566406 46.246094 30.867188 46.136719 31.179688 C 45.714844 30.976562 45.296875 30.777344 44.863281 30.566406 C 44.757812 30.972656 44.652344 31.375 44.546875 31.789062 C 43.707031 31.789062 42.867188 31.789062 42 31.789062 C 42 31.589844 42 31.386719 42 31.179688 C 43.570312 30.554688 44.730469 30.136719 46.453125 30.261719 Z M 46.453125 30.261719 " style=" stroke:none;fill-rule:nonzero;fill:rgb(88.235295%,13.333334%,13.725491%);fill-opacity:1;"/><path d="M 57.910156 24.761719 C 58.984375 24.722656 58.984375 24.722656 60.136719 24.761719 C 60.347656 24.960938 60.554688 25.164062 60.773438 25.371094 C 60.667969 25.574219 60.5625 25.773438 60.453125 25.984375 C 59.589844 26.109375 59.589844 26.109375 58.527344 26.171875 C 58.175781 26.195312 57.824219 26.21875 57.460938 26.242188 C 57.1875 26.257812 56.917969 26.273438 56.636719 26.289062 C 56.636719 26.085938 56.636719 25.882812 56.636719 25.675781 C 56.953125 25.574219 57.265625 25.476562 57.589844 25.371094 C 57.695312 25.167969 57.800781 24.96875 57.910156 24.761719 Z M 57.910156 24.761719 " style=" stroke:none;fill-rule:nonzero;fill:rgb(97.647059%,91.764706%,90.980393%);fill-opacity:1;"/><path d="M 24.5 59.300781 C 24.5 59.402344 24.5 59.503906 24.5 59.605469 C 23.683594 59.726562 22.871094 59.839844 22.054688 59.949219 C 21.824219 59.984375 21.59375 60.019531 21.359375 60.054688 C 19.984375 60.234375 19.054688 60.238281 17.816406 59.605469 C 20.105469 58.964844 22.171875 58.964844 24.5 59.300781 Z M 24.5 59.300781 " style=" stroke:none;fill-rule:nonzero;fill:rgb(85.490197%,9.411765%,11.372549%);fill-opacity:1;"/><path d="M 18.652344 13.429688 C 19.132812 13.433594 19.132812 13.433594 19.621094 13.4375 C 19.867188 13.441406 20.109375 13.445312 20.363281 13.449219 C 20.363281 13.753906 20.363281 14.054688 20.363281 14.367188 C 19.855469 14.441406 19.34375 14.511719 18.832031 14.578125 C 18.40625 14.636719 18.40625 14.636719 17.972656 14.695312 C 17.183594 14.671875 17.183594 14.671875 16.601562 14.21875 C 16.476562 14.066406 16.355469 13.914062 16.226562 13.753906 C 17.070312 13.351562 17.714844 13.421875 18.652344 13.429688 Z M 18.652344 13.429688 " style=" stroke:none;fill-rule:nonzero;fill:rgb(97.647059%,96.862745%,95.686275%);fill-opacity:1;"/><path d="M 16.863281 56.246094 C 17.179688 56.34375 17.492188 56.445312 17.816406 56.550781 C 17.816406 56.851562 17.816406 57.15625 17.816406 57.46875 C 18.65625 57.46875 19.5 57.46875 20.363281 57.46875 C 20.257812 57.871094 20.152344 58.273438 20.046875 58.691406 C 19.488281 58.558594 18.929688 58.425781 18.375 58.289062 C 18.066406 58.214844 17.753906 58.140625 17.433594 58.0625 C 16.546875 57.773438 15.980469 57.433594 15.273438 56.855469 C 15.796875 56.753906 16.324219 56.652344 16.863281 56.550781 C 16.863281 56.449219 16.863281 56.347656 16.863281 56.246094 Z M 16.863281 56.246094 " style=" stroke:none;fill-rule:nonzero;fill:rgb(95.294118%,88.235295%,85.882354%);fill-opacity:1;"/><path d="M 9.546875 38.820312 C 10.28125 39.023438 11.015625 39.222656 11.773438 39.433594 C 11.5625 39.632812 11.351562 39.835938 11.136719 40.042969 C 10.925781 39.941406 10.714844 39.84375 10.5 39.738281 C 10.710938 40.242188 10.921875 40.746094 11.136719 41.265625 C 10.820312 41.164062 10.507812 41.066406 10.183594 40.960938 C 10.183594 40.757812 10.183594 40.558594 10.183594 40.347656 C 9.132812 40.550781 8.082031 40.753906 7 40.960938 C 7 40.65625 7 40.355469 7 40.042969 C 7.972656 39.742188 8.574219 39.742188 9.546875 40.042969 C 9.546875 39.640625 9.546875 39.238281 9.546875 38.820312 Z M 9.546875 38.820312 " style=" stroke:none;fill-rule:nonzero;fill:rgb(84.313726%,12.156863%,14.117648%);fill-opacity:1;"/><path d="M 41.046875 14.976562 C 41.992188 15.484375 42.933594 15.988281 43.910156 16.507812 C 43.804688 16.707031 43.699219 16.910156 43.589844 17.117188 C 42.714844 17.195312 42.714844 17.195312 41.683594 17.117188 C 40.925781 16.507812 40.925781 16.507812 40.410156 15.894531 C 40.617188 15.59375 40.828125 15.289062 41.046875 14.976562 Z M 41.046875 14.976562 " style=" stroke:none;fill-rule:nonzero;fill:rgb(85.490197%,12.156863%,11.764706%);fill-opacity:1;"/><path d="M 14.316406 56.550781 C 15.421875 57.003906 15.421875 57.003906 16.546875 57.46875 C 15.914062 57.769531 15.914062 57.769531 15.273438 58.078125 C 15.796875 58.179688 16.324219 58.28125 16.863281 58.382812 C 16.96875 58.6875 17.074219 58.988281 17.183594 59.300781 C 16.238281 59 15.292969 58.695312 14.316406 58.382812 C 14.316406 57.773438 14.316406 57.160156 14.316406 56.550781 Z M 14.316406 56.550781 " style=" stroke:none;fill-rule:nonzero;fill:rgb(83.529413%,7.058824%,8.235294%);fill-opacity:1;"/><path d="M 14.636719 37.597656 C 15.160156 37.632812 15.683594 37.671875 16.207031 37.710938 C 16.5 37.734375 16.789062 37.753906 17.089844 37.777344 C 17.449219 37.839844 17.449219 37.839844 17.816406 37.902344 C 17.921875 38.105469 18.027344 38.308594 18.136719 38.515625 C 18.875 38.640625 19.617188 38.742188 20.363281 38.820312 C 20.363281 38.921875 20.363281 39.023438 20.363281 39.125 C 18.101562 39.265625 16.636719 38.921875 14.636719 37.902344 C 14.636719 37.804688 14.636719 37.703125 14.636719 37.597656 Z M 14.636719 37.597656 " style=" stroke:none;fill-rule:nonzero;fill:rgb(95.686275%,88.627452%,87.058824%);fill-opacity:1;"/><path d="M 27.363281 36.375 C 27.609375 37.289062 27.8125 38.203125 28 39.125 C 27.578125 39.027344 27.160156 38.925781 26.726562 38.820312 C 26.9375 38.519531 27.148438 38.214844 27.363281 37.902344 C 26.734375 37.902344 26.105469 37.902344 25.453125 37.902344 C 25.558594 37.601562 25.664062 37.296875 25.773438 36.988281 C 26.589844 36.625 26.589844 36.625 27.363281 36.375 Z M 27.363281 36.375 " style=" stroke:none;fill-rule:nonzero;fill:rgb(85.882354%,7.450981%,6.666667%);fill-opacity:1;"/><path d="M 1.910156 25.675781 C 2.015625 26.082031 2.117188 26.484375 2.226562 26.898438 C 2.4375 26.496094 2.648438 26.09375 2.863281 25.675781 C 3.074219 25.675781 3.285156 25.675781 3.5 25.675781 C 3.289062 26.585938 3.078125 27.492188 2.863281 28.429688 C 2.339844 28.429688 1.8125 28.429688 1.273438 28.429688 C 1.484375 27.519531 1.691406 26.613281 1.910156 25.675781 Z M 1.910156 25.675781 " style=" stroke:none;fill-rule:nonzero;fill:rgb(84.313726%,14.509805%,14.901961%);fill-opacity:1;"/><path d="M 7.953125 53.800781 C 8.792969 54.40625 9.632812 55.007812 10.5 55.632812 C 10.289062 55.835938 10.078125 56.035156 9.863281 56.246094 C 9.445312 56.042969 9.023438 55.839844 8.589844 55.632812 C 8.277344 55.835938 7.960938 56.035156 7.636719 56.246094 C 7.636719 55.839844 7.636719 55.4375 7.636719 55.023438 C 7.847656 55.023438 8.054688 55.023438 8.273438 55.023438 C 8.167969 54.617188 8.0625 54.214844 7.953125 53.800781 Z M 7.953125 53.800781 " style=" stroke:none;fill-rule:nonzero;fill:rgb(94.901961%,84.705883%,83.92157%);fill-opacity:1;"/><path d="M 28 40.65625 C 29.050781 40.65625 30.101562 40.65625 31.183594 40.65625 C 31.183594 40.957031 31.183594 41.261719 31.183594 41.570312 C 30.132812 41.570312 29.082031 41.570312 28 41.570312 C 28 41.269531 28 40.96875 28 40.65625 Z M 28 40.65625 " style=" stroke:none;fill-rule:nonzero;fill:rgb(88.235295%,7.058824%,7.058824%);fill-opacity:1;"/><path d="M 43.910156 36.679688 C 43.910156 36.882812 43.910156 37.085938 43.910156 37.292969 C 43.59375 37.445312 43.59375 37.445312 43.273438 37.597656 C 43.21875 37.800781 43.167969 38 43.113281 38.210938 C 43.0625 38.410156 43.007812 38.613281 42.953125 38.820312 C 42.640625 38.972656 42.640625 38.972656 42.316406 39.125 C 42.214844 38.925781 42.109375 38.722656 42 38.515625 C 41.359375 38.167969 41.359375 38.167969 40.726562 37.902344 C 41.136719 37.699219 41.546875 37.496094 41.960938 37.292969 C 42.1875 37.179688 42.417969 37.066406 42.652344 36.949219 C 43.273438 36.679688 43.273438 36.679688 43.910156 36.679688 Z M 43.910156 36.679688 " style=" stroke:none;fill-rule:nonzero;fill:rgb(96.078432%,89.019608%,88.627452%);fill-opacity:1;"/><path d="M 30.863281 9.78125 C 31.808594 9.882812 32.753906 9.984375 33.726562 10.085938 C 33.726562 10.492188 33.726562 10.894531 33.726562 11.308594 C 32.675781 11.109375 31.628906 10.90625 30.546875 10.699219 C 30.652344 10.394531 30.753906 10.09375 30.863281 9.78125 Z M 30.863281 9.78125 " style=" stroke:none;fill-rule:nonzero;fill:rgb(96.078432%,97.647059%,96.078432%);fill-opacity:1;"/><path d="M 54.410156 26.898438 C 54.515625 27.101562 54.617188 27.304688 54.726562 27.511719 C 54.183594 28.15625 53.925781 28.410156 53.054688 28.515625 C 52.796875 28.507812 52.542969 28.496094 52.28125 28.484375 C 52.023438 28.476562 51.765625 28.46875 51.5 28.460938 C 51.304688 28.449219 51.109375 28.4375 50.910156 28.429688 C 51.617188 27.746094 52.074219 27.605469 53.015625 27.320312 C 53.277344 27.242188 53.539062 27.160156 53.804688 27.078125 C 54.003906 27.019531 54.203125 26.960938 54.410156 26.898438 Z M 54.410156 26.898438 " style=" stroke:none;fill-rule:nonzero;fill:rgb(86.274511%,14.901961%,14.901961%);fill-opacity:1;"/><path d="M 0.953125 40.960938 C 1.269531 41.0625 1.585938 41.164062 1.910156 41.265625 C 1.910156 41.667969 1.910156 42.074219 1.910156 42.488281 C 2.117188 42.488281 2.328125 42.488281 2.546875 42.488281 C 2.546875 42.890625 2.546875 43.296875 2.546875 43.710938 C 2.125 43.609375 1.707031 43.511719 1.273438 43.40625 C 1.167969 42.597656 1.0625 41.792969 0.953125 40.960938 Z M 0.953125 40.960938 " style=" stroke:none;fill-rule:nonzero;fill:rgb(89.019608%,1.960784%,1.960784%);fill-opacity:1;"/><path d="M 0.953125 33.011719 C 1.546875 33.96875 1.65625 34.570312 1.511719 35.667969 C 1.46875 36.03125 1.46875 36.03125 1.425781 36.398438 C 1.375 36.59375 1.324219 36.785156 1.273438 36.988281 C 0.957031 37.136719 0.957031 37.136719 0.636719 37.292969 C 0.628906 36.636719 0.621094 35.980469 0.617188 35.324219 C 0.613281 34.960938 0.609375 34.59375 0.605469 34.21875 C 0.636719 33.320312 0.636719 33.320312 0.953125 33.011719 Z M 0.953125 33.011719 " style=" stroke:none;fill-rule:nonzero;fill:rgb(89.803922%,2.352941%,2.745098%);fill-opacity:1;"/><path d="M 26.410156 58.691406 C 27.773438 58.789062 29.140625 58.890625 30.546875 58.996094 C 30.546875 59.097656 30.546875 59.199219 30.546875 59.300781 C 28.515625 59.59375 26.550781 59.640625 24.5 59.605469 C 24.5 59.507812 24.5 59.40625 24.5 59.300781 C 25.128906 59.300781 25.761719 59.300781 26.410156 59.300781 C 26.410156 59.097656 26.410156 58.898438 26.410156 58.691406 Z M 26.410156 58.691406 " style=" stroke:none;fill-rule:nonzero;fill:rgb(92.54902%,74.117649%,72.549021%);fill-opacity:1;"/><path d="M 1.273438 39.433594 C 1.484375 39.53125 1.691406 39.632812 1.910156 39.738281 C 2.109375 40.371094 2.109375 40.371094 2.265625 41.132812 C 2.320312 41.386719 2.375 41.636719 2.429688 41.898438 C 2.46875 42.09375 2.503906 42.289062 2.546875 42.488281 C 2.335938 42.488281 2.125 42.488281 1.910156 42.488281 C 1.910156 42.085938 1.910156 41.683594 1.910156 41.265625 C 1.488281 41.265625 1.070312 41.265625 0.636719 41.265625 C 0.53125 40.863281 0.425781 40.460938 0.316406 40.042969 C 0.632812 39.84375 0.949219 39.640625 1.273438 39.433594 Z M 1.273438 39.433594 " style=" stroke:none;fill-rule:nonzero;fill:rgb(86.274511%,6.666667%,7.450981%);fill-opacity:1;"/><path d="M 40.726562 16.507812 C 41.941406 16.980469 42.699219 17.742188 43.589844 18.644531 C 42.75 18.546875 41.910156 18.445312 41.046875 18.339844 C 40.941406 17.734375 40.835938 17.128906 40.726562 16.507812 Z M 40.726562 16.507812 " style=" stroke:none;fill-rule:nonzero;fill:rgb(94.901961%,89.411765%,87.058824%);fill-opacity:1;"/><path d="M 38.183594 14.671875 C 39.023438 15.175781 39.863281 15.679688 40.726562 16.199219 C 40.414062 16.503906 40.097656 16.804688 39.773438 17.117188 C 39.667969 16.917969 39.5625 16.714844 39.453125 16.507812 C 39.035156 16.609375 38.613281 16.707031 38.183594 16.8125 C 38.269531 16.539062 38.269531 16.539062 38.359375 16.257812 C 38.570312 15.539062 38.570312 15.539062 38.183594 14.671875 Z M 38.183594 14.671875 " style=" stroke:none;fill-rule:nonzero;fill:rgb(97.254902%,91.764706%,91.37255%);fill-opacity:1;"/><path d="M 2.863281 47.378906 C 4.273438 48.953125 4.273438 48.953125 4.453125 50.132812 C 4.246094 50.132812 4.035156 50.132812 3.816406 50.132812 C 3.609375 49.929688 3.398438 49.726562 3.183594 49.519531 C 2.972656 49.722656 2.761719 49.921875 2.546875 50.132812 C 2.632812 49.855469 2.632812 49.855469 2.722656 49.578125 C 2.933594 48.859375 2.933594 48.859375 2.546875 47.992188 C 2.652344 47.789062 2.753906 47.585938 2.863281 47.378906 Z M 2.863281 47.378906 " style=" stroke:none;fill-rule:nonzero;fill:rgb(96.078432%,90.196079%,89.019608%);fill-opacity:1;"/><path d="M 2.546875 42.792969 C 3.164062 43.6875 3.324219 44.207031 3.5 45.238281 C 3.183594 45.039062 2.871094 44.835938 2.546875 44.628906 C 2.230469 45.082031 2.230469 45.082031 1.910156 45.546875 C 1.699219 44.839844 1.488281 44.132812 1.273438 43.40625 C 1.691406 43.507812 2.113281 43.609375 2.546875 43.710938 C 2.546875 43.410156 2.546875 43.105469 2.546875 42.792969 Z M 2.546875 42.792969 " style=" stroke:none;fill-rule:nonzero;fill:rgb(84.313726%,26.666668%,27.058825%);fill-opacity:1;"/><path d="M 2.546875 41.570312 C 3.203125 42.277344 3.203125 42.277344 3.816406 43.101562 C 3.714844 43.402344 3.609375 43.707031 3.5 44.015625 C 3.710938 44.015625 3.921875 44.015625 4.136719 44.015625 C 4.03125 44.421875 3.925781 44.824219 3.816406 45.238281 C 3.109375 44.558594 2.960938 44.121094 2.664062 43.214844 C 2.582031 42.964844 2.5 42.714844 2.414062 42.457031 C 2.351562 42.265625 2.289062 42.074219 2.226562 41.878906 C 2.332031 41.777344 2.4375 41.675781 2.546875 41.570312 Z M 2.546875 41.570312 " style=" stroke:none;fill-rule:nonzero;fill:rgb(96.862745%,94.901961%,94.117647%);fill-opacity:1;"/><path d="M 34.363281 32.097656 C 34.679688 32.097656 34.992188 32.097656 35.316406 32.097656 C 35.421875 32.296875 35.527344 32.5 35.636719 32.707031 C 35.953125 32.910156 36.265625 33.109375 36.589844 33.320312 C 36.074219 33.53125 35.558594 33.742188 35.039062 33.949219 C 34.75 34.066406 34.464844 34.183594 34.167969 34.304688 C 33.410156 34.542969 33.410156 34.542969 32.773438 34.234375 C 33.726562 33.625 33.726562 33.625 34.683594 33.625 C 34.785156 33.222656 34.890625 32.816406 35 32.402344 C 34.789062 32.300781 34.578125 32.199219 34.363281 32.097656 Z M 34.363281 32.097656 " style=" stroke:none;fill-rule:nonzero;fill:rgb(98.039216%,93.725491%,93.333334%);fill-opacity:1;"/><path d="M 9.546875 15.894531 C 10.175781 16.097656 10.804688 16.296875 11.453125 16.507812 C 11.25 16.589844 11.046875 16.671875 10.839844 16.753906 C 10.078125 17.082031 10.078125 17.082031 9.863281 18.035156 C 9.445312 17.632812 9.023438 17.226562 8.589844 16.8125 C 8.90625 16.507812 9.222656 16.207031 9.546875 15.894531 Z M 9.546875 15.894531 " style=" stroke:none;fill-rule:nonzero;fill:rgb(85.882354%,12.941177%,14.117648%);fill-opacity:1;"/><path d="M 34.683594 59.605469 C 34.683594 60.011719 34.683594 60.414062 34.683594 60.828125 C 34.050781 60.929688 33.421875 61.03125 32.773438 61.136719 C 32.773438 60.933594 32.773438 60.730469 32.773438 60.523438 C 32.351562 60.421875 31.933594 60.324219 31.5 60.21875 C 33.609375 59.605469 33.609375 59.605469 34.683594 59.605469 Z M 34.683594 59.605469 " style=" stroke:none;fill-rule:nonzero;fill:rgb(95.686275%,85.882354%,83.529413%);fill-opacity:1;"/><path d="M 37.863281 56.855469 C 37.652344 57.460938 37.445312 58.066406 37.226562 58.691406 C 36.703125 58.589844 36.175781 58.488281 35.636719 58.382812 C 37.148438 56.855469 37.148438 56.855469 37.863281 56.855469 Z M 37.863281 56.855469 " style=" stroke:none;fill-rule:nonzero;fill:rgb(84.705883%,3.137255%,3.529412%);fill-opacity:1;"/><path d="M 45.5 52.578125 C 45.816406 53.492188 45.816406 53.492188 45.5 54.410156 C 45.078125 54.410156 44.660156 54.410156 44.226562 54.410156 C 44.226562 54.714844 44.226562 55.015625 44.226562 55.328125 C 43.914062 55.226562 43.597656 55.125 43.273438 55.023438 C 43.484375 54.71875 43.691406 54.417969 43.910156 54.105469 C 44.117188 54.105469 44.328125 54.105469 44.546875 54.105469 C 44.644531 53.910156 44.742188 53.714844 44.84375 53.511719 C 45.183594 52.882812 45.183594 52.882812 45.5 52.578125 Z M 45.5 52.578125 " style=" stroke:none;fill-rule:nonzero;fill:rgb(94.117647%,85.490197%,83.529413%);fill-opacity:1;"/><path d="M 55.046875 32.097656 C 55.046875 32.398438 55.046875 32.703125 55.046875 33.011719 C 53.984375 33.011719 52.925781 33.011719 51.863281 33.011719 C 52.726562 32.183594 53.875 31.535156 55.046875 32.097656 Z M 54.089844 33.011719 C 54.726562 33.320312 54.726562 33.320312 54.726562 33.320312 Z M 54.089844 33.011719 " style=" stroke:none;fill-rule:nonzero;fill:rgb(93.725491%,83.92157%,82.352942%);fill-opacity:1;"/><path d="M 4.453125 24.148438 C 4.785156 25.105469 4.75 25.367188 4.453125 26.289062 C 4.664062 26.289062 4.875 26.289062 5.089844 26.289062 C 5.089844 26.488281 5.089844 26.691406 5.089844 26.898438 C 4.460938 26.898438 3.832031 26.898438 3.183594 26.898438 C 3.519531 25.859375 3.820312 25.0625 4.453125 24.148438 Z M 4.453125 24.148438 " style=" stroke:none;fill-rule:nonzero;fill:rgb(96.078432%,89.411765%,86.666667%);fill-opacity:1;"/><path d="M 7 19.5625 C 6.894531 20.066406 6.789062 20.570312 6.683594 21.089844 C 6.15625 21.191406 5.632812 21.292969 5.089844 21.398438 C 5.777344 19.5625 5.777344 19.5625 7 19.5625 Z M 7 19.5625 " style=" stroke:none;fill-rule:nonzero;fill:rgb(87.058824%,2.745098%,2.745098%);fill-opacity:1;"/><path d="M 9.546875 14.976562 C 9.859375 15.078125 10.175781 15.179688 10.5 15.285156 C 8.988281 16.773438 8.988281 16.773438 8.273438 17.117188 C 8.0625 16.917969 7.851562 16.714844 7.636719 16.507812 C 9.035156 15.28125 9.035156 15.28125 9.546875 14.976562 Z M 9.546875 14.976562 " style=" stroke:none;fill-rule:nonzero;fill:rgb(97.254902%,93.333334%,92.156863%);fill-opacity:1;"/><path d="M 38.5 12.226562 C 39.234375 12.429688 39.96875 12.628906 40.726562 12.839844 C 40.621094 13.140625 40.515625 13.445312 40.410156 13.753906 C 40.515625 13.957031 40.617188 14.160156 40.726562 14.367188 C 39.214844 13.792969 39.214844 13.792969 38.5 13.449219 C 38.5 13.046875 38.5 12.644531 38.5 12.226562 Z M 38.5 12.226562 " style=" stroke:none;fill-rule:nonzero;fill:rgb(95.294118%,94.901961%,94.117647%);fill-opacity:1;"/><path d="M 2.546875 44.015625 C 3.796875 45.035156 3.796875 45.035156 3.898438 46.082031 C 3.871094 46.308594 3.84375 46.535156 3.816406 46.769531 C 3.609375 46.464844 3.398438 46.164062 3.183594 45.851562 C 2.972656 46.152344 2.761719 46.457031 2.546875 46.769531 C 2.1875 44.707031 2.1875 44.707031 2.546875 44.015625 Z M 2.546875 44.015625 " style=" stroke:none;fill-rule:nonzero;fill:rgb(84.313726%,7.843138%,7.058824%);fill-opacity:1;"/><path d="M 12.410156 42.183594 C 12.933594 42.183594 13.460938 42.183594 14 42.183594 C 14.105469 42.484375 14.210938 42.789062 14.316406 43.101562 C 14.527344 43.101562 14.738281 43.101562 14.953125 43.101562 C 14.953125 43.300781 14.953125 43.503906 14.953125 43.710938 C 14.535156 43.8125 14.113281 43.914062 13.683594 44.015625 C 13.578125 43.714844 13.472656 43.414062 13.363281 43.101562 C 12.886719 42.589844 12.886719 42.589844 12.410156 42.183594 Z M 12.410156 42.183594 " style=" stroke:none;fill-rule:nonzero;fill:rgb(89.019608%,5.882353%,7.058824%);fill-opacity:1;"/><path d="M 50.589844 40.960938 C 50.800781 41.0625 51.011719 41.164062 51.226562 41.265625 C 51.308594 43.597656 51.308594 43.597656 50.589844 44.628906 C 50.527344 44.132812 50.46875 43.636719 50.410156 43.136719 C 50.378906 42.863281 50.34375 42.585938 50.3125 42.300781 C 50.273438 41.570312 50.273438 41.570312 50.589844 40.960938 Z M 50.589844 40.960938 " style=" stroke:none;fill-rule:nonzero;fill:rgb(85.882354%,3.529412%,2.352941%);fill-opacity:1;"/><path d="M 34.683594 39.738281 C 34.683594 39.941406 34.683594 40.140625 34.683594 40.347656 C 33.105469 40.804688 33.105469 40.804688 31.5 41.265625 C 31.5 40.964844 31.5 40.660156 31.5 40.347656 C 32.652344 39.945312 33.441406 39.738281 34.683594 39.738281 Z M 34.683594 39.738281 " style=" stroke:none;fill-rule:nonzero;fill:rgb(85.882354%,9.803922%,10.980392%);fill-opacity:1;"/><path d="M 64.910156 26.59375 C 64.847656 27.167969 64.847656 27.167969 64.589844 27.816406 C 63.777344 28.199219 63.777344 28.199219 63 28.429688 C 63 27.921875 63 27.417969 63 26.898438 C 63.660156 26.730469 64.222656 26.59375 64.910156 26.59375 Z M 64.910156 26.59375 " style=" stroke:none;fill-rule:nonzero;fill:rgb(87.058824%,5.490196%,5.098039%);fill-opacity:1;"/><path d="M 28.316406 42.183594 C 28.113281 42.214844 27.910156 42.246094 27.703125 42.277344 C 27.484375 42.347656 27.269531 42.417969 27.046875 42.488281 C 26.941406 42.792969 26.835938 43.09375 26.726562 43.40625 C 25.78125 43.253906 25.78125 43.253906 24.816406 43.101562 C 26.9375 41.742188 26.9375 41.742188 28.316406 42.183594 Z M 26.089844 43.40625 C 26.726562 43.710938 26.726562 43.710938 26.726562 43.710938 Z M 26.089844 43.40625 " style=" stroke:none;fill-rule:nonzero;fill:rgb(95.686275%,87.450981%,85.09804%);fill-opacity:1;"/><path d="M 14 36.988281 C 14.210938 37.289062 14.421875 37.59375 14.636719 37.902344 C 14.320312 38.054688 14.320312 38.054688 14 38.210938 C 14 38.007812 14 37.804688 14 37.597656 C 13.371094 37.699219 12.738281 37.800781 12.089844 37.902344 C 11.984375 37.601562 11.882812 37.296875 11.773438 36.988281 C 12.769531 36.667969 13.050781 36.632812 14 36.988281 Z M 14 36.988281 " style=" stroke:none;fill-rule:nonzero;fill:rgb(88.627452%,12.156863%,14.117648%);fill-opacity:1;"/><path d="M 51.546875 31.789062 C 51.859375 31.890625 52.175781 31.992188 52.5 32.097656 C 52.5 32.296875 52.5 32.5 52.5 32.707031 C 51.082031 33.160156 51.082031 33.160156 49.636719 33.625 C 49.425781 33.421875 49.214844 33.222656 49 33.011719 C 49.359375 32.925781 49.722656 32.835938 50.09375 32.746094 C 50.46875 32.632812 50.84375 32.519531 51.226562 32.402344 C 51.332031 32.199219 51.4375 32 51.546875 31.789062 Z M 51.546875 31.789062 " style=" stroke:none;fill-rule:nonzero;fill:rgb(87.450981%,5.882353%,8.627451%);fill-opacity:1;"/><path d="M 34.683594 58.382812 C 34.683594 58.6875 34.683594 58.988281 34.683594 59.300781 C 33.429688 59.703125 32.734375 59.375 31.5 58.996094 C 31.5 58.894531 31.5 58.792969 31.5 58.691406 C 31.910156 58.578125 32.320312 58.472656 32.734375 58.363281 C 32.960938 58.304688 33.191406 58.246094 33.425781 58.183594 C 34.046875 58.078125 34.046875 58.078125 34.683594 58.382812 Z M 34.683594 58.382812 " style=" stroke:none;fill-rule:nonzero;fill:rgb(83.137256%,10.196079%,11.372549%);fill-opacity:1;"/><path d="M 50.589844 38.210938 C 51.378906 38.511719 51.378906 38.511719 52.183594 38.820312 C 52.183594 39.527344 52.183594 40.234375 52.183594 40.960938 C 52.078125 40.960938 51.972656 40.960938 51.863281 40.960938 C 51.863281 40.355469 51.863281 39.75 51.863281 39.125 C 51.546875 39.125 51.234375 39.125 50.910156 39.125 C 50.804688 39.53125 50.699219 39.933594 50.589844 40.347656 C 50.589844 39.644531 50.589844 38.9375 50.589844 38.210938 Z M 50.589844 38.210938 " style=" stroke:none;fill-rule:nonzero;fill:rgb(87.843138%,28.627452%,32.156864%);fill-opacity:1;"/><path d="M 49 23.230469 C 49.789062 23.382812 49.789062 23.382812 50.589844 23.539062 C 50.695312 23.839844 50.800781 24.140625 50.910156 24.453125 C 50.59375 24.757812 50.277344 25.058594 49.953125 25.371094 C 49.640625 24.664062 49.324219 23.957031 49 23.230469 Z M 49 23.230469 " style=" stroke:none;fill-rule:nonzero;fill:rgb(94.117647%,90.196079%,87.843138%);fill-opacity:1;"/><path d="M 44.226562 17.117188 C 45.160156 17.367188 45.160156 17.367188 46.136719 17.730469 C 46.453125 18.644531 46.453125 18.644531 46.136719 19.5625 C 45.507812 18.757812 44.875 17.949219 44.226562 17.117188 Z M 44.226562 17.117188 " style=" stroke:none;fill-rule:nonzero;fill:rgb(95.686275%,85.882354%,83.92157%);fill-opacity:1;"/><path d="M 11.453125 55.632812 C 11.558594 55.835938 11.664062 56.035156 11.773438 56.246094 C 12.085938 56.246094 12.402344 56.246094 12.726562 56.246094 C 12.832031 56.042969 12.9375 55.839844 13.046875 55.632812 C 13.253906 55.835938 13.464844 56.035156 13.683594 56.246094 C 13.367188 56.546875 13.050781 56.851562 12.726562 57.160156 C 11.175781 56.625 11.175781 56.625 10.816406 55.9375 C 11.027344 55.839844 11.238281 55.738281 11.453125 55.632812 Z M 11.453125 55.632812 " style=" stroke:none;fill-rule:nonzero;fill:rgb(82.745099%,15.294118%,15.294118%);fill-opacity:1;"/><path d="M 58.226562 30.261719 C 58.4375 30.363281 58.648438 30.464844 58.863281 30.566406 C 58.757812 30.769531 58.652344 30.972656 58.546875 31.179688 C 58.230469 31.179688 57.914062 31.179688 57.589844 31.179688 C 57.589844 31.378906 57.589844 31.582031 57.589844 31.789062 C 57.066406 31.789062 56.539062 31.789062 56 31.789062 C 56 31.589844 56 31.386719 56 31.179688 C 56.734375 30.851562 57.476562 30.546875 58.226562 30.261719 Z M 58.226562 30.261719 " style=" stroke:none;fill-rule:nonzero;fill:rgb(94.509804%,85.490197%,84.313726%);fill-opacity:1;"/><path d="M 2.546875 22.007812 C 2.964844 22.007812 3.386719 22.007812 3.816406 22.007812 C 3.261719 23.765625 3.261719 23.765625 2.546875 24.453125 C 2.546875 23.648438 2.546875 22.839844 2.546875 22.007812 Z M 2.546875 22.007812 " style=" stroke:none;fill-rule:nonzero;fill:rgb(97.254902%,96.470588%,94.901961%);fill-opacity:1;"/><path d="M 42 16.8125 C 44.074219 16.960938 44.074219 16.960938 44.84375 17.75 C 44.957031 17.945312 45.066406 18.140625 45.183594 18.339844 C 44.867188 18.441406 44.550781 18.542969 44.226562 18.644531 C 44.121094 18.242188 44.015625 17.839844 43.910156 17.421875 C 42.964844 17.273438 42.964844 17.273438 42 17.117188 C 42 17.015625 42 16.917969 42 16.8125 Z M 42 16.8125 " style=" stroke:none;fill-rule:nonzero;fill:rgb(90.196079%,3.137255%,3.529412%);fill-opacity:1;"/><path d="M 16.226562 11.308594 C 17.066406 11.308594 17.90625 11.308594 18.773438 11.308594 C 17.726562 11.980469 16.796875 12.226562 15.589844 12.53125 C 15.589844 12.332031 15.589844 12.128906 15.589844 11.921875 C 15.800781 11.921875 16.011719 11.921875 16.226562 11.921875 C 16.226562 11.71875 16.226562 11.519531 16.226562 11.308594 Z M 16.226562 11.308594 " style=" stroke:none;fill-rule:nonzero;fill:rgb(95.686275%,89.411765%,87.843138%);fill-opacity:1;"/><path d="M 35.636719 40.347656 C 34.878906 41.074219 34.457031 41.164062 33.410156 41.265625 C 33.199219 41.066406 32.988281 40.863281 32.773438 40.65625 C 34.5625 40.003906 34.5625 40.003906 35.636719 40.347656 Z M 35.636719 40.347656 " style=" stroke:none;fill-rule:nonzero;fill:rgb(98.823529%,93.333334%,91.37255%);fill-opacity:1;"/><path d="M 58.226562 29.34375 C 58.015625 29.75 57.808594 30.152344 57.589844 30.566406 C 56.75 30.46875 55.910156 30.367188 55.046875 30.261719 C 56.101562 29.324219 56.8125 29.253906 58.226562 29.34375 Z M 58.226562 29.34375 " style=" stroke:none;fill-rule:nonzero;fill:rgb(93.333334%,1.568628%,3.529412%);fill-opacity:1;"/><path d="M 47.089844 22.925781 C 47.511719 23.429688 47.929688 23.933594 48.363281 24.453125 C 48.257812 24.65625 48.152344 24.859375 48.046875 25.066406 C 47.519531 24.761719 46.996094 24.460938 46.453125 24.148438 C 46.664062 23.746094 46.875 23.339844 47.089844 22.925781 Z M 47.089844 22.925781 " style=" stroke:none;fill-rule:nonzero;fill:rgb(95.686275%,88.235295%,89.411765%);fill-opacity:1;"/><path d="M 49.316406 44.015625 C 49.496094 44.652344 49.636719 45.191406 49.636719 45.851562 C 49.847656 45.953125 50.054688 46.054688 50.273438 46.15625 C 49.957031 46.609375 49.957031 46.609375 49.636719 47.074219 C 49.636719 46.773438 49.636719 46.46875 49.636719 46.15625 C 49.320312 46.15625 49.007812 46.15625 48.683594 46.15625 C 48.890625 45.449219 49.101562 44.746094 49.316406 44.015625 Z M 49.316406 44.015625 " style=" stroke:none;fill-rule:nonzero;fill:rgb(83.529413%,12.54902%,13.333334%);fill-opacity:1;"/><path d="M 11.773438 37.292969 C 11.773438 37.59375 11.773438 37.898438 11.773438 38.210938 C 11.984375 38.308594 12.191406 38.410156 12.410156 38.515625 C 11.675781 38.515625 10.9375 38.515625 10.183594 38.515625 C 10.285156 38.210938 10.390625 37.910156 10.5 37.597656 C 11.136719 37.292969 11.136719 37.292969 11.773438 37.292969 Z M 11.773438 37.292969 " style=" stroke:none;fill-rule:nonzero;fill:rgb(87.450981%,13.725491%,14.117648%);fill-opacity:1;"/><path d="M 46.136719 35.152344 C 46.347656 35.253906 46.554688 35.355469 46.773438 35.457031 C 46.773438 35.863281 46.773438 36.265625 46.773438 36.679688 C 46.246094 36.582031 45.722656 36.480469 45.183594 36.375 C 45.285156 36.074219 45.390625 35.769531 45.5 35.457031 C 45.710938 35.359375 45.921875 35.257812 46.136719 35.152344 Z M 46.136719 35.152344 " style=" stroke:none;fill-rule:nonzero;fill:rgb(95.294118%,90.588236%,89.803922%);fill-opacity:1;"/><path d="M 50.273438 25.675781 C 50.273438 26.769531 49.925781 27.222656 49.316406 28.121094 C 49.109375 28.019531 48.898438 27.921875 48.683594 27.816406 C 48.941406 26.917969 48.941406 26.917969 49.316406 25.984375 C 49.632812 25.882812 49.949219 25.78125 50.273438 25.675781 Z M 50.273438 25.675781 " style=" stroke:none;fill-rule:nonzero;fill:rgb(95.686275%,88.235295%,87.058824%);fill-opacity:1;"/><path d="M 11.136719 15.285156 C 11.453125 15.382812 11.765625 15.484375 12.089844 15.589844 C 11.984375 15.890625 11.882812 16.195312 11.773438 16.507812 C 11.144531 16.507812 10.511719 16.507812 9.863281 16.507812 C 10.074219 16.203125 10.285156 15.902344 10.5 15.589844 C 10.710938 15.691406 10.921875 15.792969 11.136719 15.894531 C 11.136719 15.695312 11.136719 15.492188 11.136719 15.285156 Z M 11.136719 15.285156 " style=" stroke:none;fill-rule:nonzero;fill:rgb(89.411765%,3.529412%,3.921569%);fill-opacity:1;"/><path d="M 26.410156 35.765625 C 26.933594 35.863281 27.460938 35.964844 28 36.070312 C 27.214844 36.824219 26.503906 36.984375 25.453125 37.292969 C 25.453125 36.988281 25.453125 36.6875 25.453125 36.375 C 25.769531 36.375 26.085938 36.375 26.410156 36.375 C 26.410156 36.171875 26.410156 35.972656 26.410156 35.765625 Z M 26.410156 35.765625 " style=" stroke:none;fill-rule:nonzero;fill:rgb(96.470588%,93.333334%,91.764706%);fill-opacity:1;"/><path d="M 34.046875 34.234375 C 34.046875 34.4375 34.046875 34.640625 34.046875 34.847656 C 34.253906 34.949219 34.464844 35.050781 34.683594 35.152344 C 34.15625 35.152344 33.632812 35.152344 33.089844 35.152344 C 33.089844 35.355469 33.089844 35.554688 33.089844 35.765625 C 32.453125 35.457031 32.453125 35.457031 32.136719 34.847656 C 33.328125 34.234375 33.328125 34.234375 34.046875 34.234375 Z M 34.046875 34.234375 " style=" stroke:none;fill-rule:nonzero;fill:rgb(84.705883%,7.450981%,5.490196%);fill-opacity:1;"/></g></svg>