<svg xmlns="http://www.w3.org/2000/svg" version="1.1" id="Layer_1" x="0px" y="0px" width="70px" height="70px" viewBox="0 0 70 70" enable-background="new 0 0 70 70" xml:space="preserve"><rect width="70" fill="none" height="70"/><path fill="#0B2D72" d="M50.1,33l-2.3,2.9C46.4,37.5,45.1,38.1,42.5,38.1c-8.9,0-33.5,0-39.1,0H0l3.6-3.6c1.4-1.3,2.5-1.8,5.5-1.8   c0,0,31.5,0,32.7,0c1.9,0,2.101-0.1,3.2-1.2l6.5-7.6c1.2-1.4,2.5-2,4.6-2H68.9L66.6,24.8c-1.398,1.6-3,2.1-5,2.1   c0,0-6.398,0-6.699,0c-0.399,0-0.601,0.1-0.801,0.3C54,27.3,52.7,29,52.7,29h8.7l-1.9,2c-1.2,1.3-2.4,2-4.5,2H50.1z"/></svg>