<svg xmlns="http://www.w3.org/2000/svg" width="70" height="70" viewBox="0 0 289.13 289.13"><defs><style>.cls-1{fill:#006643;}.cls-2{fill:#a42615;}</style></defs><g id="Layer_3"><path d="M25.91,136.74V85.36L14.46,87.72A14.25,14.25,0,0,0,2.83,102v51.37l11.46-2.36A14.23,14.23,0,0,0,25.91,136.74ZM166.55,97.66a16.62,16.62,0,0,1-13.31,6.57H112.82v49.18H89.74V104.23H33.49V85.36H175.31Zm87.07,49.18L210.84,88.23l-47.66,65.18H135.39l45-61.48a16.83,16.83,0,0,1,13.3-6.57h42.78l49.86,68.05H266.93A16.87,16.87,0,0,1,253.62,146.84Zm7.08,37.22-5-2.19c-1.52-.67-3-1.85-3-3.7,0-2.86,2.19-3.88,4.72-3.88,3.37,0,6.57,2,9.09,4.38v-6.23a13.38,13.38,0,0,0-8.75-3.2c-5.9,0-10.78,3-10.78,9.43,0,4.38,2.69,6.74,6.4,8.43l5.56,2.52c1.85.84,3.53,1.85,3.53,4,0,3.2-2.86,4.21-5.72,4.21-3.88,0-6.74-1.51-10.11-4.37v6.23a16.11,16.11,0,0,0,9.94,3.37c6.23,0,11.62-3.88,11.62-9.94C268.11,188.27,264.74,185.75,260.7,184.06Zm-46.49-14.31h-6.74l12.13,18v14.82h6.07V187.77l12.29-18h-6.91l-8.25,12.46Zm-37.73,32.84,3.37-7.24h14l3.2,7.24h6.4L186.76,168.4l-16.68,34.19Zm10.28-22.06,4.88,10.1H182Zm-41.6-11.79L136.4,190l-8.09-20.21h-6.4l13.81,34,9.27-21.9,8.92,21.9,14-34h-6.23L153.58,190Zm-40.09,11.11c0,3.71-2.69,5.06-6.06,5.06H95.64V174.63H99C102.54,174.63,105.07,176.32,105.07,179.85Zm6.4,0c0-6.73-5.73-10.1-12-10.1H89.74v32.84h5.9v-12.8h3l9.43,12.8H115L104.9,188.78A9.21,9.21,0,0,0,111.47,179.85Zm-38.4,22.74V169.75H66.84v32.84Zm-45.81,0,3.37-7.24h14l3.2,7.24h6.57L37.53,168.4,20.86,202.59Zm10.27-22.06,4.89,10.1H32.81Z" class="cls-1"/><path d="M186.59,134.55l-13.81,18.86h27.79L219.17,128H199.9A16.81,16.81,0,0,0,186.59,134.55Z" class="cls-2"/></g></svg>