<svg xmlns="http://www.w3.org/2000/svg" version="1.1" id="Layer_1" x="0px" y="0px" width="70" height="70" viewBox="0 0 70 70" xml:space="preserve" style="enable-background:new 0 0 70 70;"><style type="text/css">
	.st0{fill:none;}
	.st1{fill:#455CC7;}
</style><g><rect x="-8.8" y="15.2" width="87.5" height="36.5" class="st0"/><g><path d="M55.2,24.9c0.4-0.2,0.9,0,1.1,0.4c0.2,0.4,0,0.9-0.4,1.1c-0.4,0.2-0.9,0-1.1-0.4    C54.6,25.6,54.8,25.1,55.2,24.9" class="st1"/><path d="M56.1,29.1C56.1,29.2,56.2,29.2,56.1,29.1l0.2-0.4c0,0,0,0,0.1,0l0.3,0.3c0,0,0.1,0,0.1,0l0-0.4c0,0,0,0,0,0    c0,0,0,0,0,0l0.3,0.3c0,0,0.1,0,0.1,0L57,28.4c0,0,0-0.1,0.1,0l0.4,0.2c0,0,0.1,0,0.1,0l-0.2-0.5c0,0,0,0,0,0l-1.1-1.2    c0,0,0,0,0,0c-0.1,0-0.1,0.1-0.2,0.1C56,27,55.9,27,55.8,27c0,0,0,0,0,0l0.1,1.6c0,0,0,0,0,0L56.1,29.1z" class="st1"/><path d="M54.9,22.2C54.9,22.2,54.8,22.2,54.9,22.2l-0.2,0.4c0,0,0,0-0.1,0l-0.3-0.3c0,0-0.1,0-0.1,0l0,0.4    c0,0,0,0,0,0c0,0,0,0,0,0L54,22.5c0,0-0.1,0-0.1,0l0.1,0.4c0,0,0,0.1-0.1,0l-0.4-0.2c0,0-0.1,0-0.1,0l0.2,0.5c0,0,0,0,0,0l1.1,1.2    c0,0,0,0,0,0c0.1,0,0.1-0.1,0.2-0.1c0.1,0,0.1,0,0.2-0.1c0,0,0,0,0,0l-0.1-1.6c0,0,0,0,0,0L54.9,22.2z" class="st1"/><path d="M59,25C59,25,59,25,59,25l-0.4-0.2c0,0,0,0,0-0.1l0.3-0.3c0,0,0-0.1,0-0.1l-0.4,0c0,0,0,0,0,0c0,0,0,0,0,0    l0.3-0.3c0,0,0-0.1,0-0.1l-0.4,0.1c0,0-0.1,0,0-0.1l0.2-0.4c0,0,0-0.1,0-0.1l-0.5,0.2c0,0,0,0,0,0l-1.2,1.1c0,0,0,0,0,0    c0,0.1,0.1,0.1,0.1,0.2c0,0.1,0,0.1,0.1,0.2c0,0,0,0,0,0l1.6-0.1c0,0,0,0,0,0L59,25z" class="st1"/><path d="M52,26.3C52,26.3,52,26.3,52,26.3l0.4,0.2c0,0,0,0,0,0.1l-0.3,0.3c0,0,0,0.1,0,0.1l0.4,0c0,0,0,0,0,0    c0,0,0,0,0,0l-0.3,0.3c0,0,0,0.1,0,0.1l0.4-0.1c0,0,0.1,0,0,0.1l-0.2,0.4c0,0,0,0.1,0,0.1l0.5-0.2c0,0,0,0,0,0l1.2-1.1    c0,0,0,0,0,0c0-0.1-0.1-0.1-0.1-0.2c0-0.1,0-0.1-0.1-0.2c0,0,0,0,0,0L52.5,26c0,0,0,0,0,0L52,26.3z" class="st1"/><path d="M58.4,27.7C58.4,27.7,58.4,27.7,58.4,27.7l-0.2-0.4c0,0,0-0.1,0-0.1l0.4,0.1c0,0,0.1,0,0-0.1l-0.3-0.3    c0,0,0,0,0,0c0,0,0,0,0,0l0.4,0c0,0,0,0,0-0.1l-0.3-0.3c0,0,0-0.1,0-0.1l0.4-0.1c0,0,0-0.1,0-0.1L58.5,26c0,0,0,0,0,0l-1.6-0.1    c0,0,0,0,0,0c0,0.1,0,0.1-0.1,0.2c0,0.1-0.1,0.1-0.1,0.2c0,0,0,0,0,0l1.2,1.1c0,0,0,0,0,0L58.4,27.7z" class="st1"/><path d="M52.6,23.6C52.6,23.6,52.6,23.7,52.6,23.6l0.2,0.4c0,0,0,0.1,0,0.1L52.3,24c0,0-0.1,0,0,0.1l0.3,0.3    c0,0,0,0,0,0c0,0,0,0,0,0l-0.4,0c0,0,0,0,0,0.1l0.3,0.3c0,0,0,0.1,0,0.1L52,25c0,0,0,0.1,0,0.1l0.5,0.2c0,0,0,0,0,0l1.6,0.1    c0,0,0,0,0,0c0-0.1,0-0.1,0.1-0.2c0-0.1,0.1-0.1,0.1-0.2c0,0,0,0,0,0l-1.2-1.1c0,0,0,0,0,0L52.6,23.6z" class="st1"/><path d="M57.5,22.8C57.5,22.7,57.5,22.7,57.5,22.8L57.1,23c0,0-0.1,0-0.1,0l0.1-0.4c0,0,0-0.1-0.1,0l-0.3,0.3    c0,0,0,0,0,0c0,0,0,0,0,0l0-0.4c0,0,0,0-0.1,0l-0.3,0.3c0,0-0.1,0-0.1,0l-0.1-0.4c0,0-0.1,0-0.1,0l-0.2,0.5c0,0,0,0,0,0l-0.1,1.6    c0,0,0,0,0,0c0.1,0,0.1,0,0.2,0.1c0.1,0,0.1,0.1,0.2,0.1c0,0,0,0,0,0l1.1-1.2c0,0,0,0,0,0L57.5,22.8z" class="st1"/><path d="M53.5,28.5C53.5,28.6,53.5,28.6,53.5,28.5l0.4-0.2c0,0,0.1,0,0.1,0l-0.1,0.4c0,0,0,0.1,0.1,0l0.3-0.3    c0,0,0,0,0,0c0,0,0,0,0,0l0,0.4c0,0,0,0,0.1,0l0.3-0.3c0,0,0.1,0,0.1,0l0.1,0.4c0,0,0.1,0,0.1,0l0.2-0.5c0,0,0,0,0,0l0.1-1.6    c0,0,0,0,0,0c-0.1,0-0.1,0-0.2-0.1c-0.1,0-0.1-0.1-0.2-0.1c0,0,0,0,0,0L53.6,28c0,0,0,0,0,0L53.5,28.5z" class="st1"/><path d="M12.5,37.5c0,2.1-1.6,3.7-4.9,3.7H0.8V27.3h6.4c3.4,0,4.5,2,4.5,3.7c0,1.8-0.9,2.7-1.9,3.1    C11.1,34.4,12.5,35.4,12.5,37.5 M2.4,33.5h4.8c1.5,0,2.9-0.7,2.9-2.4c0-1.2-0.8-2.3-2.7-2.3h-5V33.5z M10.9,37.4    c0-1.3-1-2.5-3.3-2.5H2.4v4.8h5.3C9.8,39.7,10.9,38.8,10.9,37.4" class="st1"/><path d="M22.7,38.1h1.8c-0.8,1.9-2.4,3.2-4.9,3.2c-3.3,0-5.5-2.4-5.5-5.4c0-3,2.1-5.4,5.4-5.4s5.4,2.4,5.4,5.4v0.6    h-9.1c0.2,1.9,1.6,3.4,3.8,3.4C21.1,39.9,22.2,39.2,22.7,38.1 M15.8,35.1h7.3c-0.3-1.8-1.6-3.1-3.7-3.1    C17.4,31.9,16.1,33.3,15.8,35.1" class="st1"/><rect x="26.8" y="26.5" width="1.6" height="14.7" class="st1"/><path d="M39.7,32.4v-1.7h1.6v10.5h-1.6v-1.7c-0.8,1.1-2.1,1.8-3.9,1.8c-3.2,0-5.2-2.4-5.2-5.4c0-3,2.1-5.4,5.2-5.4    C37.6,30.5,38.9,31.2,39.7,32.4 M39.8,35.9c0-2.2-1.3-4-3.7-4c-2.4,0-3.8,1.8-3.8,4c0,2.2,1.4,4,3.8,4    C38.4,39.9,39.8,38.1,39.8,35.9" class="st1"/><polygon points="53.2,30.7 49,41.2 47.1,41.2 42.8,30.7 44.6,30.7 48,39.5 51.4,30.7   " class="st1"/><rect x="54.7" y="30.7" width="1.6" height="10.5" class="st1"/><path d="M67.6,32.4v-1.7h1.6v10.5h-1.6v-1.7c-0.8,1.1-2.1,1.8-3.9,1.8c-3.2,0-5.2-2.4-5.2-5.4c0-3,2.1-5.4,5.2-5.4    C65.5,30.5,66.8,31.2,67.6,32.4 M67.6,35.9c0-2.2-1.3-4-3.7-4c-2.4,0-3.8,1.8-3.8,4c0,2.2,1.4,4,3.8,4    C66.3,39.9,67.6,38.1,67.6,35.9" class="st1"/></g></g></svg>