<svg xmlns="http://www.w3.org/2000/svg" width="70" height="70" version="1.1" viewBox="0 0 70 70"><g id="surface1"><path d="M 476.986886 685.183984 L 334.815569 685.183984 L 334.815569 645.166016 L 422.27846 645.166016 L 422.27846 617.733203 L 334.815569 617.733203 L 334.815569 583.017969 L 475.504464 583.017969 L 475.504464 554.171094 L 297.19029 554.171094 L 297.19029 715.586328 L 476.986886 715.586328 Z M 476.986886 685.183984" transform="matrix(0.055336,0,0,0.0552486,0,0)" style="fill-rule:nonzero;fill:#2a2e36;fill-opacity:1;stroke-width:1;stroke-linecap:butt;stroke-linejoin:miter;stroke:#2a2e36;stroke-opacity:1;stroke-miterlimit:10"/><path d="M 196.809152 632.36875 C 205.774275 631.308203 212.621652 628.409375 217.421875 623.813672 C 222.222098 619.217969 224.62221 612.996094 224.62221 605.21875 L 224.62221 585.492578 C 224.62221 574.604297 221.727958 566.685547 216.010045 561.665625 C 210.292132 556.716406 201.115234 554.171094 188.408761 554.171094 L 39.178292 554.171094 L 39.178292 715.586328 L 178.314174 715.586328 C 194.267857 715.586328 206.197824 712.970313 214.033482 707.808984 C 221.798549 702.576953 225.822266 694.728906 225.822266 683.982031 L 225.822266 663.407422 C 225.822266 654.710938 223.280971 647.711328 218.198382 642.267188 C 213.186384 636.89375 206.127232 633.570703 196.809152 632.36875 Z M 76.097656 581.816016 L 172.596261 581.816016 C 179.090681 581.816016 183.608538 582.735156 186.079241 584.502734 C 188.620536 586.270313 189.820592 589.310547 189.820592 593.411328 L 189.820592 607.269141 C 189.820592 611.582031 188.620536 614.622266 186.079241 616.319141 C 183.608538 618.016016 179.090681 618.935156 172.596261 618.935156 L 76.097656 618.935156 Z M 190.808873 672.103906 C 190.808873 677.477344 189.608817 681.295313 187.067522 683.416406 C 184.596819 685.466797 179.796596 686.598047 172.666853 686.598047 L 76.168248 686.598047 L 76.168248 645.519531 L 172.666853 645.519531 C 179.796596 645.519531 184.596819 646.509375 187.067522 648.630469 C 189.608817 650.680859 190.808873 654.428125 190.808873 659.801563 Z M 190.808873 672.103906" transform="matrix(0.055336,0,0,0.0552486,0,0)" style="fill-rule:nonzero;fill:#2a2e36;fill-opacity:1;stroke-width:1;stroke-linecap:butt;stroke-linejoin:miter;stroke:#2a2e36;stroke-opacity:1;stroke-miterlimit:10"/><path d="M 739.728516 668.215234 L 739.728516 591.431641 C 739.728516 538.475 694.479353 495.416797 638.923828 495.416797 C 583.297712 495.416797 538.119141 538.475 538.119141 591.431641 L 538.119141 668.215234 C 538.119141 721.101172 583.297712 764.230078 638.923828 764.230078 C 694.479353 764.230078 739.728516 721.101172 739.728516 668.215234 Z M 704.715123 666.30625 C 704.715123 700.314453 675.207868 727.888672 638.782645 727.888672 C 602.428013 727.888672 572.920759 700.314453 572.920759 666.30625 L 572.920759 593.269922 C 572.920759 559.332422 602.428013 531.6875 638.782645 531.6875 C 675.207868 531.6875 704.715123 559.332422 704.715123 593.269922 Z M 704.715123 666.30625" transform="matrix(0.055336,0,0,0.0552486,0,0)" style="fill-rule:nonzero;fill:#2a2e36;fill-opacity:1;stroke-width:1;stroke-linecap:butt;stroke-linejoin:miter;stroke:#2a2e36;stroke-opacity:1;stroke-miterlimit:10"/><path d="M 1215.303571 574.887109 C 1199.42048 561.1 1176.61942 554.100391 1146.970982 554.100391 L 1045.319196 554.100391 L 1045.319196 715.515625 L 1137.370536 715.515625 C 1153.677176 715.515625 1167.089565 714.525781 1177.466518 712.475391 C 1187.914062 710.495703 1196.667411 707.314063 1203.726562 703.001172 C 1215.021205 696.072266 1223.774554 686.598047 1229.986607 674.507812 C 1236.198661 662.417578 1239.304688 648.913281 1239.304688 633.782813 C 1239.234096 608.400391 1231.186663 588.815625 1215.303571 574.887109 Z M 1184.172712 673.09375 C 1173.37221 681.083203 1155.089007 685.183984 1129.18192 685.183984 L 1082.803292 685.183984 L 1082.803292 584.432031 L 1147.182757 584.432031 C 1164.689453 584.432031 1177.890067 588.674219 1186.925781 597.229297 C 1195.890904 605.713672 1200.267578 616.884766 1200.267578 633.429297 C 1200.408761 651.812109 1194.973214 665.104297 1184.172712 673.09375 Z M 1184.172712 673.09375" transform="matrix(0.055336,0,0,0.0552486,0,0)" style="fill-rule:nonzero;fill:#2a2e36;fill-opacity:1;stroke-width:1;stroke-linecap:butt;stroke-linejoin:miter;stroke:#2a2e36;stroke-opacity:1;stroke-miterlimit:10"/><path d="M 948.397042 663.407422 L 820.202846 554.171094 L 794.507533 554.171094 L 794.507533 715.586328 L 828.179688 715.586328 L 828.179688 605.713672 L 956.515067 715.586328 L 982.210379 715.586328 L 982.210379 554.171094 L 948.397042 554.171094 Z M 948.397042 663.407422" transform="matrix(0.055336,0,0,0.0552486,0,0)" style="fill-rule:nonzero;fill:#2a2e36;fill-opacity:1;stroke-width:1;stroke-linecap:butt;stroke-linejoin:miter;stroke:#2a2e36;stroke-opacity:1;stroke-miterlimit:10"/></g></svg>