<svg xmlns="http://www.w3.org/2000/svg" id="Layer_1" width="70" height="70" x="0" y="0" enable-background="new 0 0 70 70" version="1.1" viewBox="0 0 70 70" xml:space="preserve"><path fill="#004A90" fill-rule="evenodd" d="M33.247,24.802c0.517,0.136,1.042,0.243,1.548,0.412 c3.387,1.133,3.583,5.668,1.756,7.228c-0.416,0.356-0.876,0.641-1.421,0.948c0.853,0.275,1.546,0.688,2.007,1.396 c1.075,1.646,1.102,3.391,0.257,5.101c-0.86,1.746-2.392,2.573-4.312,2.604c-2.336,0.039-4.674-0.002-7.011,0.021 c-0.417,0.004-0.479-0.141-0.479-0.509c0.01-5.618,0.007-11.236,0.007-16.855c0-0.115-0.009-0.23-0.013-0.346 C28.14,24.802,30.694,24.802,33.247,24.802z" clip-rule="evenodd"/><path fill="#004A90" fill-rule="evenodd" d="M1.007,44.604c0.346-0.018,0.697-0.007,1.038-0.059 c0.747-0.114,1.062-0.489,1.063-1.245c0.004-2.75,0.002-5.5,0.002-8.249c0-1.573,0.01-3.147-0.007-4.721 c-0.004-0.342,0.08-0.467,0.438-0.448c0.578,0.029,1.16,0.027,1.738,0.001c0.328-0.015,0.415,0.089,0.413,0.413 c-0.015,2.021-0.007,4.041-0.007,6.062c0,2.319,0.001,4.639,0,6.957c-0.001,1.957-0.955,3.146-2.874,3.594 c-0.042,0.01-0.075,0.055-0.111,0.082c-0.481,0-0.962-0.014-1.443,0.008C1.041,47.008,0.995,46.958,1,46.743 C1.018,46.03,1.007,45.316,1.007,44.604z" clip-rule="evenodd"/><path fill="#004A91" fill-rule="evenodd" d="M5.684,24.802c0,0.742-0.01,1.486,0.005,2.229 c0.006,0.269-0.056,0.376-0.348,0.365c-0.627-0.021-1.255-0.021-1.882,0c-0.29,0.01-0.36-0.092-0.355-0.367 c0.013-0.742-0.003-1.484-0.007-2.227C3.959,24.802,4.821,24.802,5.684,24.802z" clip-rule="evenodd"/><path fill="#004E94" fill-rule="evenodd" d="M68.572,31.171c-0.167,0.238-0.302,0.5-0.578,0.646 c-0.545,0.29-1.195,0.129-1.512-0.385c-0.337-0.547-0.192-1.208,0.339-1.561c0.497-0.331,1.17-0.208,1.537,0.283 c0.076,0.103,0.144,0.213,0.214,0.318C68.572,30.706,68.572,30.938,68.572,31.171z" clip-rule="evenodd"/><path fill="#4466A4" fill-rule="evenodd" d="M41.904,24.802c-0.001,0.033-0.003,0.066-0.003,0.101 c-0.392,0.271-0.836,0.144-1.256,0.153c-1.131,0.023-1.068-0.094-1.068,1.09c-0.001,4.188,0.002,8.375-0.004,12.562 c-0.001,0.289,0.074,0.604-0.174,0.846c-0.115-0.184-0.059-0.388-0.06-0.582c-0.004-4.559-0.002-9.117-0.003-13.676 c0-0.164-0.013-0.33-0.02-0.494C40.18,24.802,41.042,24.802,41.904,24.802z" clip-rule="evenodd"/><path fill="#004A90" fill-rule="evenodd" d="M62.608,37.159c-1.144,0.001-2.287,0.023-3.431-0.01 c-0.43-0.014-0.491,0.148-0.448,0.511c0.23,1.945,1.996,3.025,3.963,2.416c0.562-0.175,1.079-0.438,1.497-0.849 c0.21-0.207,0.33-0.163,0.518,0.004c0.433,0.385,0.869,0.77,1.33,1.12c0.27,0.205,0.201,0.341,0.007,0.532 c-0.671,0.661-1.431,1.172-2.336,1.453c-1.303,0.407-2.612,0.412-3.915,0.031c-1.595-0.467-2.662-1.524-3.172-3.09 c-0.693-2.127-0.689-4.275,0.109-6.373c0.854-2.244,3.004-3.459,5.353-3.104c2.448,0.369,4.216,2.225,4.413,4.605 c0.066,0.796,0.016,1.591,0.053,2.385c0.017,0.334-0.129,0.376-0.41,0.373C64.962,37.153,63.785,37.159,62.608,37.159z" clip-rule="evenodd"/><path fill="#004A90" fill-rule="evenodd" d="M13.746,37.159c-1.16,0-2.321,0.016-3.481-0.008 c-0.374-0.008-0.435,0.125-0.408,0.459c0.156,2.025,2.15,3.166,4.203,2.389c0.467-0.177,0.904-0.42,1.263-0.771 c0.197-0.191,0.327-0.174,0.522,0.006c0.438,0.403,0.896,0.786,1.356,1.165c0.15,0.124,0.222,0.2,0.06,0.386 c-2.255,2.591-7.135,2.447-8.887-0.232c-0.643-0.982-0.937-2.07-1.042-3.223c-0.135-1.502-0.045-2.979,0.509-4.4 c0.859-2.203,2.817-3.373,5.241-3.141c2.194,0.211,4.001,1.841,4.445,4.004c0.212,1.035,0.075,2.082,0.118,3.123 c0.013,0.304-0.198,0.243-0.37,0.244C16.099,37.161,14.922,37.159,13.746,37.159z" clip-rule="evenodd"/><path fill="#004A90" fill-rule="evenodd" d="M52.267,41.178c-1.313,1.377-2.808,1.757-4.487,1.264 c-1.662-0.487-2.629-1.655-2.941-3.352c-0.062-0.339-0.063-0.693-0.064-1.04c-0.005-2.554,0.008-5.107-0.013-7.662 c-0.003-0.425,0.126-0.533,0.529-0.507c0.528,0.036,1.063,0.036,1.592,0c0.389-0.026,0.466,0.12,0.464,0.479 c-0.015,2.354-0.014,4.709-0.006,7.064c0.004,1.234,0.57,2.142,1.53,2.496c1.695,0.626,3.347-0.462,3.379-2.288 c0.043-2.403,0.028-4.809,0.005-7.213c-0.005-0.454,0.124-0.568,0.554-0.539c0.545,0.039,1.094,0.021,1.642,0.006 c0.26-0.008,0.385,0.042,0.385,0.348c-0.01,3.98-0.009,7.96-0.002,11.94c0.001,0.271-0.101,0.337-0.35,0.331 c-0.612-0.014-1.228-0.021-1.84,0.004c-0.322,0.013-0.402-0.111-0.38-0.404C52.283,41.831,52.267,41.554,52.267,41.178z" clip-rule="evenodd"/><path fill="#004A90" fill-rule="evenodd" d="M19.628,35.911c0-1.209-0.009-2.42,0.006-3.63 c0.004-0.306-0.053-0.43-0.398-0.424c-0.875,0.013-0.875-0.007-0.875-0.876c0-0.066,0-0.133,0-0.198c0-0.876,0-0.896,0.876-0.884 c0.351,0.005,0.401-0.127,0.396-0.428c-0.015-0.979,0.008-1.957-0.014-2.936c-0.007-0.334,0.062-0.47,0.428-0.449 c0.595,0.032,1.194,0.023,1.79,0.002c0.292-0.01,0.361,0.094,0.356,0.369c-0.015,1.011,0.009,2.022-0.013,3.033 c-0.008,0.336,0.104,0.449,0.419,0.398c0.016-0.002,0.033,0,0.049,0c0.442,0.033,1.153-0.182,1.268,0.084 c0.213,0.49,0.081,1.131,0.094,1.708c0.004,0.205-0.142,0.185-0.273,0.185c-0.415,0.001-0.83,0.012-1.243-0.004 c-0.236-0.01-0.312,0.064-0.312,0.307c0.01,2.37,0.002,4.74,0.015,7.111c0.003,0.551,0.249,0.764,0.803,0.786 c1.011,0.042,1.018,0.042,1.007,1.054c-0.004,0.443,0.193,1.031-0.08,1.292c-0.293,0.28-0.883,0.093-1.341,0.083 c-1.77-0.04-2.938-1.229-2.957-3.002C19.618,38.299,19.628,37.105,19.628,35.911z" clip-rule="evenodd"/><path fill="#004A91" fill-rule="evenodd" d="M39.399,39.554c0.009-0.215,0.027-0.43,0.027-0.644 c0.001-4.487,0.007-8.976-0.009-13.463c-0.002-0.43,0.095-0.585,0.546-0.556c0.644,0.041,1.291,0.011,1.938,0.011 c0.008,0.663,0.021,1.325,0.021,1.987c0.002,4.011,0.001,8.022,0.001,12.033c0,0.93,0.212,1.139,1.136,1.145 c0.783,0.005,0.69-0.102,0.695,0.678c0.003,0.48-0.002,0.963,0.002,1.443c0,0.184-0.022,0.318-0.266,0.316 c-0.679-0.008-1.36,0.029-2.026-0.134C40.096,42.036,39.418,41.104,39.399,39.554z" clip-rule="evenodd"/><path fill="#FFF" fill-rule="evenodd" d="M28.292,37.274c0-0.746,0-1.492,0-2.238 c0-0.186-0.022-0.372,0.263-0.365c1.491,0.037,2.988-0.115,4.469,0.069c1.464,0.183,2.29,1.267,2.217,2.742 c-0.067,1.361-1.056,2.38-2.472,2.431c-1.39,0.052-2.784,0.008-4.177,0.018c-0.246,0.002-0.306-0.09-0.303-0.318 C28.299,38.833,28.292,38.054,28.292,37.274z" clip-rule="evenodd"/><path fill="#FFF" fill-rule="evenodd" d="M28.292,29.745c0-0.712,0.006-1.424-0.004-2.137 c-0.003-0.236,0.04-0.366,0.321-0.363c1.292,0.018,2.585-0.03,3.875,0.033c1.551,0.076,2.491,1.053,2.492,2.469 c0.003,1.415-0.941,2.414-2.478,2.493c-1.305,0.067-2.617,0.015-3.925,0.028c-0.268,0.004-0.288-0.128-0.285-0.336 C28.296,31.203,28.292,30.475,28.292,29.745z" clip-rule="evenodd"/><path fill="#0F5195" fill-rule="evenodd" d="M66.984,30.157c0.006-0.03,0.021-0.057,0.04-0.079 c0.262-0.098,0.516-0.055,0.766,0.042c0.192,0.074,0.336,0.234,0.274,0.411c-0.111,0.315-0.041,0.632-0.093,0.942l0.01-0.01 c-0.294,0.137-0.606-0.193-0.909,0.043c-0.057,0.043-0.173-0.094-0.183-0.195C66.853,30.923,66.743,30.524,66.984,30.157z" clip-rule="evenodd"/><path fill="#F2F3F8" fill-rule="evenodd" d="M66.984,30.157c0.003,0.326-0.002,0.654,0.011,0.98 c0.005,0.113-0.08,0.299,0.117,0.318c0.21,0.021,0.138-0.169,0.155-0.284c0.009-0.058,0.017-0.115,0.025-0.188 c0.302,0.098,0.288,0.585,0.688,0.48c-0.461,0.346-0.977,0.285-1.26-0.146C66.451,30.907,66.56,30.423,66.984,30.157z" clip-rule="evenodd"/><path fill="#E4E6F1" fill-rule="evenodd" d="M67.972,31.474c-0.045-0.268-0.418-0.488-0.032-0.824 c0.149-0.131,0.017-0.447-0.282-0.498c-0.209-0.035-0.421-0.05-0.633-0.073c0.512-0.206,0.888-0.122,1.131,0.249 C68.395,30.693,68.327,31.118,67.972,31.474z" clip-rule="evenodd"/><path fill="#FFF" fill-rule="evenodd" d="M61.339,35.052c-0.761,0-1.522-0.01-2.284,0.004 c-0.246,0.005-0.352-0.045-0.337-0.322c0.085-1.736,1.571-2.868,3.265-2.486c1.364,0.309,1.866,1.498,1.986,2.602 c0.028,0.257-0.162,0.199-0.296,0.2C62.896,35.054,62.116,35.052,61.339,35.052z" clip-rule="evenodd"/><path fill="#FFF" fill-rule="evenodd" d="M12.478,35.051c-0.762,0-1.523-0.005-2.285,0.003 c-0.231,0.003-0.348-0.02-0.338-0.314c0.051-1.478,1.198-2.607,2.667-2.57c1.676,0.041,2.46,1.306,2.567,2.678 c0.021,0.274-0.151,0.2-0.277,0.201C14.034,35.054,13.255,35.051,12.478,35.051z" clip-rule="evenodd"/><path fill="#F4F4F9" fill-rule="evenodd" d="M67.467,30.682c-0.105,0.003-0.191-0.015-0.195-0.148 c-0.004-0.125,0.058-0.174,0.176-0.163c0.117,0.008,0.238,0.029,0.233,0.179C67.679,30.679,67.563,30.677,67.467,30.682z" clip-rule="evenodd"/></svg>