<svg xmlns="http://www.w3.org/2000/svg" id="Layer_1" width="70" height="70" x="0" y="0" enable-background="new 0 0 70 70" version="1.1" viewBox="0 0 70 70" xml:space="preserve"><path fill="#1B3967" fill-rule="evenodd" d="M39.368,39c-0.228-0.057-0.455-0.112-0.684-0.17 c-1.556-0.385-2.67-1.703-2.621-3.131c0.04-1.201,0.715-2.025,1.714-2.559c1.479-0.787,2.998-0.772,4.422,0.127 c2.145,1.355,1.984,4.07-0.29,5.229c-0.447,0.229-0.956,0.34-1.436,0.504C40.105,39,39.737,39,39.368,39z M39.861,37.601 c0.675-0.003,1.18-0.198,1.645-0.638c0.677-0.639,0.686-1.629,0.022-2.279c-0.826-0.809-2.244-0.875-3.143-0.145 c-0.901,0.733-0.913,1.816-0.022,2.561C38.796,37.461,39.302,37.615,39.861,37.601z" clip-rule="evenodd"/><path fill="#1B3967" fill-rule="evenodd" d="M27.489,38.865c0-2.062,0-4.057,0-6.076 c0.086-0.012,0.16-0.029,0.234-0.029c1.302-0.002,2.604-0.005,3.906,0.004c0.26,0.002,0.523,0.04,0.781,0.085 c1.467,0.255,1.896,1.647,1.162,2.631c0.857,0.813,0.98,1.827,0.313,2.679c-0.401,0.512-0.997,0.646-1.586,0.67 c-1.168,0.049-2.339,0.029-3.509,0.036C28.371,38.867,27.951,38.865,27.489,38.865z M31.78,35.594 c0.268-0.266,0.522-0.514,0.389-0.908c-0.141-0.41-0.516-0.479-0.865-0.504c-0.615-0.043-1.235-0.029-1.852-0.045 c-0.225-0.006-0.25,0.131-0.248,0.309c0.005,0.474,0.001,0.947,0.001,1.42c0,0.562,0,1.125,0,1.662 c0.072,0.035,0.095,0.057,0.118,0.057c0.5,0.006,1,0.027,1.498,0.008c0.391-0.014,0.783-0.062,1.168-0.127 c0.358-0.061,0.523-0.319,0.573-0.665C32.642,36.246,32.468,35.963,31.78,35.594z" clip-rule="evenodd"/><path fill="#1B3967" fill-rule="evenodd" d="M69.256,32.84c0,0.395,0,0.77,0,1.197c-1.551,0-3.082,0-4.632,0 c0,0.39,0,0.727,0,1.123c1.289,0,2.569,0,3.859,0c0,0.459,0,0.859,0,1.303c-1.295,0-2.564,0-3.859,0c0,0.389,0,0.736,0,1.143 c1.537,0,3.066,0,4.62,0c0,0.432,0,0.808,0,1.223c-2.096,0-4.188,0-6.309,0c0-1.986,0-3.969,0-5.988 C65.03,32.84,67.137,32.84,69.256,32.84z" clip-rule="evenodd"/><path fill="#1B3967" fill-rule="evenodd" d="M15.38,32.829c0,0.401,0,0.776,0,1.206c-0.153,0-0.292,0-0.432,0 c-1.262,0-2.524,0.011-3.786-0.007c-0.333-0.005-0.468,0.067-0.451,0.433c0.038,0.816-0.105,0.696,0.722,0.703 c0.92,0.006,1.84,0.001,2.76,0.001c0.141,0,0.282,0,0.438,0c0,0.445,0,0.837,0,1.277c-1.285,0-2.565,0-3.881,0 c0,0.405,0,0.763,0,1.164c1.539,0,3.058,0,4.611,0c0,0.429,0,0.814,0,1.231c-2.094,0-4.176,0-6.286,0c0-1.998,0-3.99,0-6.009 C11.157,32.829,13.241,32.829,15.38,32.829z" clip-rule="evenodd"/><path fill="#1B3967" fill-rule="evenodd" d="M59.291,35.914c0-1.094,0-2.096,0-3.113c0.584,0,1.116,0,1.675,0 c0,2,0,3.979,0,6.035c-1.606-1.018-3.182-2.016-4.828-3.06c0,1.069,0,2.06,0,3.079c-0.585,0-1.115,0-1.669,0 c0-1.996,0-3.975,0-6.021C56.07,33.857,57.642,34.86,59.291,35.914z" clip-rule="evenodd"/><path fill="#1B3967" fill-rule="evenodd" d="M48.705,35.547c0.354,0,0.601,0.006,0.848,0 c0.44-0.012,0.692-0.26,0.732-0.711c0.038-0.441-0.14-0.732-0.601-0.762c-0.744-0.046-1.493-0.012-2.297-0.012 c0,1.584,0,3.166,0,4.756c-0.587,0-1.117,0-1.663,0c0-2.03,0-4.035,0-6.024c0.046-0.028,0.068-0.054,0.091-0.054 c1.471,0.008,2.942-0.01,4.411,0.043c0.709,0.026,1.266,0.408,1.593,1.068c0.371,0.754,0.135,1.545-0.585,1.967 c-0.123,0.073-0.252,0.136-0.41,0.219c0.605,0.926,1.198,1.831,1.835,2.801c-0.596,0-1.116,0.006-1.635-0.005 c-0.076-0.001-0.18-0.058-0.221-0.122C50.118,37.688,49.44,36.658,48.705,35.547z" clip-rule="evenodd"/><path fill="#1B3967" fill-rule="evenodd" d="M6.993,32.857c0,0.401,0,0.764,0,1.162 c-0.159,0.007-0.299,0.02-0.439,0.02c-1.104,0.002-2.209,0-3.314,0.001c-0.171,0-0.343-0.005-0.513,0.013 c-0.334,0.036-0.55,0.229-0.538,0.564c0.012,0.335,0.234,0.52,0.575,0.521c0.763,0.006,1.528-0.028,2.288,0.018 c0.394,0.023,0.813,0.117,1.163,0.293c0.685,0.348,0.981,1.072,0.863,1.874c-0.096,0.647-0.683,1.267-1.364,1.435 c-0.114,0.029-0.233,0.06-0.349,0.06c-1.472,0.004-2.944,0.003-4.49,0.003c0-0.346-0.021-0.683,0.016-1.014 c0.009-0.076,0.22-0.185,0.339-0.186c1.223-0.014,2.446-0.009,3.669-0.008c0.079,0,0.159,0.006,0.237,0.002 c0.394-0.023,0.673-0.283,0.679-0.631c0.005-0.336-0.279-0.611-0.683-0.618c-0.776-0.013-1.553,0.019-2.327-0.019 c-0.343-0.018-0.71-0.098-1.015-0.252c-0.73-0.368-1.021-1.086-0.859-1.938c0.121-0.635,0.804-1.272,1.525-1.291 C3.953,32.831,5.45,32.857,6.993,32.857z" clip-rule="evenodd"/><path fill="#1B3967" fill-rule="evenodd" d="M25.763,38.884c-0.59,0-1.076,0.019-1.56-0.011 c-0.152-0.01-0.348-0.115-0.435-0.24c-0.685-0.978-1.348-1.971-2.054-3.013c-0.107,0.145-0.191,0.252-0.269,0.364 c-0.596,0.865-1.194,1.729-1.781,2.601c-0.137,0.202-0.28,0.308-0.543,0.294c-0.468-0.027-0.938-0.008-1.49-0.008 c1.366-2.059,2.695-4.062,4.062-6.123C23.057,34.804,24.386,36.809,25.763,38.884z" clip-rule="evenodd"/></svg>