<svg xmlns="http://www.w3.org/2000/svg" version="1.1" id="Layer_1" x="0px" y="0px" width="70px" height="70px" viewBox="0 0 70 70" enable-background="new 0 0 70 70" xml:space="preserve"><metadata/><g><path fill="#1067AE" d="M16.8,34.8c-2.4,0-4.4,2.3-4.4,6.601c0,4.8,1.9,7.1,4.3,7.1c2.5,0,4.4-2,4.4-6.7    C21.1,36.9,19.2,34.8,16.8,34.8z"/><path fill="#1067AE" d="M67.6,25.5c-0.1-0.4-0.3-0.9-0.399-1.3c-0.3-0.9-0.601-1.7-0.5-1.2c-4.9-2.3-11.5-3.4-22.601-3.4    c-13.6,0-22.1,3.4-24,2.4c-0.5-0.3-1.4-5.5-0.9-10.3C19.4,9,20.8,6.4,22,4.5C10,9.6,1.6,21.6,1.6,35.5c0,18.7,15.1,33.8,33.8,33.8    c10.8,0,20.4-5,26.6-12.899c0.9-1.101,1.7-2.301,2.4-3.5c1.399-2.301,2.5-4.7,3.3-7.301c1-3.199,1.5-6.5,1.5-10    C69.2,32.1,68.6,28.6,67.6,25.5z M59.2,24.4c1.3,0,2.399,1.1,2.399,2.6c0,1.4-1,2.6-2.399,2.6c-1.3,0-2.4-1.2-2.4-2.6    C56.8,25.5,57.9,24.4,59.2,24.4z M61.1,32.9c0,0,0,13.2,0,14c0,0.8,0,1.5-0.399,2c-0.4,0.5-1.3,1.6-1.7,1.899    c-0.3,0.3-1.8,1.9-1.8,0.9V32.9l0,0c0.1-1.1,0.899-2,1.899-2C60.2,31,61.1,31.8,61.1,32.9L61.1,32.9z M16.5,52.1    c-3.3,0-5.9-1.699-7.2-5.3c-0.8-2.1-0.9-5.3-0.9-7.8c0-2.8,0-8.5,0-10.1s0.2-1.7,0.7-2.4s1.9-2.2,2.2-2.3c0.2-0.1,1-0.2,1,0.5v8.2    c0.5-0.5,2.2-1.9,4.5-1.9c4.5,0,8.1,3.2,8.1,10.7C24.9,48.5,22.1,52.1,16.5,52.1z M35.1,34.8c-2.6,0-3.7,2-3.7,6.101v9l0,0    c0,1.199-0.9,2.1-2,2.1s-2-0.9-2-2.1l0,0l0,0v-10c0-5.2,2.6-8.9,7.8-8.9c2.5,0,4.399,1.1,5.5,2.5c1.1-1.4,3-2.5,5.5-2.5    c5.3,0,7.8,3.7,7.8,8.9V50l0,0l0,0c0,1.2-0.9,2.1-2,2.1S50,51.2,50,50l0,0l0,0v-9.1c0-4.101-1.1-6.101-3.7-6.101    c-2.2,0-3.7,1.3-3.7,4.9V50l0,0c0,1.2-0.8,2.1-1.899,2.1c-1,0-1.9-0.899-1.9-2.1v-0.1V39.7C38.9,36.1,37.4,34.8,35.1,34.8z"/><path fill="#85CBEE" d="M25,14.6c1.5-1.8,11.1-9.3,20.2-11.4C44.8,3.1,44.5,3,44.1,2.9H44c-0.3-0.1-0.7-0.2-1-0.2    c-0.1,0-0.2,0-0.3-0.1c-0.3-0.1-0.601-0.1-0.9-0.2c-0.1,0-0.3,0-0.399-0.1C41.1,2.3,40.8,2.2,40.6,2.2c-0.199,0-0.3,0-0.5-0.1    c-0.3,0-0.5-0.1-0.8-0.1c-0.2,0-0.399,0-0.6-0.1c-0.2,0-0.4,0-0.7-0.1c-0.3,0-0.5,0-0.8,0c-0.2,0-0.3,0-0.5,0c-0.4,0-0.9,0-1.3,0    c-3.4,0-6.6,0.5-9.7,1.4c-1.3,2.6-3.2,6.9-3.3,9.6C22.2,16.8,23.4,16.4,25,14.6z"/><path fill="#1067AE" d="M32.3,13.1c-4.2,3-5.8,4.4-5.3,4.9c0.7,0.7,3.3-0.5,7.7-0.7c4.399-0.3,6.399-0.1,8-1.1    c2.2-1.5,10-5,14.1-6.8C56.2,8.9,55.6,8.5,55,8c0,0-0.1,0-0.1-0.1C54.3,7.5,53.7,7.1,53,6.7c0,0,0,0-0.1,0    C52.3,6.3,51.7,6,51.1,5.7c-0.199-0.1-0.3-0.2-0.5-0.2c-0.5-0.3-1-0.5-1.6-0.7c-0.1,0-0.2-0.1-0.3-0.1C45,6.1,37.8,9.3,32.3,13.1z"/><path fill="#85CBEE" d="M53.4,15.8c-1.301,0.9-1.101,1.9,1.1,2c2,0.1,6.4,0.6,11.1,2.6v-0.1C65.4,19.9,65.1,19.4,64.9,19    c0-0.1-0.101-0.2-0.101-0.2c-0.2-0.4-0.5-0.8-0.7-1.2C64,17.5,64,17.4,63.9,17.3c-0.301-0.4-0.5-0.8-0.801-1.2    C63,16,63,15.9,62.9,15.8c-0.301-0.5-0.7-0.9-1-1.3l0,0c-0.5-0.6-1-1.2-1.5-1.8C58.5,13.3,54.4,15,53.4,15.8z"/></g><rect width="70" fill="none" height="70"/><rect width="70" fill="none" height="70"/></svg>