<svg xmlns="http://www.w3.org/2000/svg" version="1.1" width="139px" height="156px" viewBox="0 0 139 156"><title/><desc/><g id="Page-1" fill="none" fill-rule="evenodd" stroke="none" stroke-width="1"><g id="Flybe_(purple)" fill="#5A3F99" fill-rule="nonzero"><path id="Shape" d="M22.488,0 L22.488,0.0029 C13.232,0.0029 9.871,6.2974 9.03,9.4528 C7.3471,15.3399 7.3806,17.2612 6.1185,18.3145 C2.9645,21.0447 -0.0002,21.871 -0.0002,25.4441 C-0.0002,30.7017 7.9748,28.8122 7.9748,38.9051 L7.9748,67.5121 C7.9748,72.9785 10.5241,74.8545 16.204,74.8545 C21.6689,74.8545 23.9691,72.349 23.9691,67.5121 L23.9691,37.8501 C23.9691,34.9065 25.0253,32.6163 26.4993,31.563 C28.1807,30.2993 33.4604,29.0225 33.4604,25.2345 C33.4604,23.5516 32.4017,21.6456 30.0877,20.5938 C26.9337,19.1197 26.2894,18.313 26.2894,16.627 C26.2894,15.156 27.3575,14.0864 30.7203,12.1962 C34.295,10.3014 33.8417,7.7973 33.8417,5.4864 C33.8417,2.5383 30.7051,0.0003 26.4993,0.0003 L22.488,0 Z M45.189,0.29559 L45.189,0.29849 C41.4055,0.29849 38.9018,3.26769 38.9018,7.04969 L38.9018,67.17469 C38.9018,72.64259 41.1999,74.97819 47.5093,74.97819 C52.7669,74.97819 55.3158,72.64919 55.3158,68.22699 L55.3158,8.10199 C55.3158,2.84899 52.9807,0.29559 48.5646,0.29559 L45.189,0.29559 Z M13.2317,82 C9.6555,82 7.9998,84.7533 7.9998,88.5413 L7.9998,145.5013 C7.9998,152.2329 9.6629,153.9403 15.1324,153.9403 C19.9663,153.9403 19.5382,152.4653 24.5824,152.4653 C29.6311,152.4653 30.0916,155.2054 37.8724,155.2054 C50.9074,155.2054 60.9964,145.5242 60.9964,125.7564 C60.9964,108.7244 51.5002,99.4674 38.4634,99.4674 C32.5702,99.4674 29.6332,101.7907 26.2674,101.7907 C23.3238,101.7907 21.8809,98.4042 21.8809,95.4622 L21.8809,88.5396 C21.8809,84.1235 19.5512,82.0012 16.6076,82.0012 L13.2317,82 Z M91.7088,98 C78.0408,98 64.9998,106.1698 64.9998,127.621 C64.9998,145.496 76.5688,154.963 91.9188,154.963 C107.6918,154.963 115.2528,145.5003 115.2528,142.135 C115.2528,139.6106 111.483,136.6932 108.1232,136.6932 C102.6567,136.6932 101.1715,144.0356 92.1322,144.0356 C86.6627,144.0356 81.2042,138.9993 81.2042,134.3729 C81.2042,130.7982 83.7082,128.8868 88.5466,128.8868 L110.4436,128.8868 C115.4938,128.8868 117.5762,127.6493 117.5762,122.8125 C117.5742,118.6083 114.6329,98.0025 91.7092,98.0005 L91.7088,98 Z M64.848,20.59379 C61.9029,20.59379 58.5268,21.67499 61.0497,30.08799 C61.67928,32.40199 74.9307,71.49099 74.9307,75.06699 C74.9307,78.01209 72.8518,80.76849 68.8564,81.60539 C65.0683,82.44836 62.7377,84.10859 62.7377,87.46979 C62.7377,91.04449 65.0679,93.16869 68.4337,93.16869 L73.6686,93.16869 C79.7631,93.16869 86.5066,91.26919 90.7126,78.22969 L107.3396,27.76669 C107.55149,26.9207 107.75935,25.86519 107.75935,24.39109 C107.75935,22.28599 105.64595,20.59579 103.11855,20.59579 L99.53305,20.59579 C95.53915,20.59579 93.03055,22.50419 92.19065,26.08189 L87.75975,46.45989 C87.13017,49.61689 85.85375,53.00119 83.75155,53.00119 C82.07015,53.00119 80.62975,51.92579 79.57485,46.66969 L75.35385,27.34669 C74.30505,22.93059 72.22015,20.59549 68.64395,20.59549 L64.848,20.59379 Z M91.666,109 C96.7147,109 101.1603,112.7637 101.1603,116.1296 C101.1603,119.0747 97.5453,120.5604 90.6073,120.5604 C84.9275,120.5604 81.9998,118.8607 81.9998,115.7098 C82.0028,111.9248 87.4628,109 91.6656,109 L91.666,109 Z M34.6158,109 C43.0243,109 46.8118,117.2187 46.8118,127.944 C46.8118,139.302 40.9232,144.739 34.1958,144.739 C27.0449,144.739 21.9998,138.6623 21.9998,126.469 C21.9998,114.275 28.0942,109 34.6158,109 Z M129.2429,135 C122.0905,135 119.9998,137.7218 119.9998,144.8726 C119.9998,149.4976 120.8293,154.3225 129.4527,154.3225 C135.5487,154.3225 138.7371,152.2288 138.7371,144.4499 C138.7371,139.3997 137.86471,135 129.2428,135 L129.2429,135 Z"/></g></g></svg>