<svg xmlns="http://www.w3.org/2000/svg" version="1.1" id="Layer_1" x="0px" y="0px" width="70" height="70" viewBox="0 0 70 70" xml:space="preserve" style="enable-background:new 0 0 70 70;"><style type="text/css">
	.st0{fill:#00ABE6;}
	.st1{fill:#13529F;}
	.st2{fill:#6DC8F2;}
	.st3{fill:#647EBD;}
</style><g><path d="M32.9,47C19,26.9,16.8-1.7,31.3,3.3C45.9,8.3,66.6,23.2,32.9,47z" class="st0"/><path d="M32.9,47c-13.8,9.1-32.6,9.9-30.4,1.5C4.7,39.7,13.7,26.1,32.9,47z" class="st1"/><path d="M34,48.5c4.3,7.4,14.9,10.3,23,2.5C67.9,40.4,83.9,17.3,34,48.5z" class="st2"/><path d="M34,48.5c-10.8,7.2-19.5,18.9-14.3,18.8C25,67.2,37.9,60.1,34,48.5z" class="st3"/></g></svg>