<svg xmlns="http://www.w3.org/2000/svg" id="Layer_1" width="70" height="70" x="0" y="0" enable-background="new 0 0 70 70" version="1.1" viewBox="0 0 70 70" xml:space="preserve"><path fill="#EED614" fill-rule="evenodd" d="M40.63,35.548c-0.076,0.071-0.154,0.138-0.228,0.212 c-0.795,0.8-1.59,1.6-2.385,2.4c-0.062,0.061-0.11,0.135-0.193,0.169c-0.05-0.13,0.028-0.237,0.062-0.35 c0.236-0.765,0.061-1.479-0.479-1.93c-0.133-0.112-0.286-0.189-0.444-0.267c-0.209-0.104-0.215-0.181-0.013-0.295 c0.222-0.129,0.417-0.281,0.558-0.496c0.548-0.83,0.151-1.978-0.784-2.283c-0.306-0.101-0.626-0.139-0.943-0.152 c-0.476-0.02-0.952-0.001-1.427-0.008c-0.197-0.004-0.279,0.068-0.279,0.272c0.003,2.002,0.001,4.005,0.002,6.007 c0,0.127,0.007,0.259,0.181,0.254c0.768-0.016,1.54,0.071,2.303-0.061c0.172-0.031,0.332-0.1,0.496-0.156 c0.089-0.029,0.174-0.081,0.274-0.043c-0.022,0.07-0.083,0.111-0.133,0.158c-1.452,1.467-2.909,2.933-4.365,4.397 c-0.018,0.019-0.04,0.033-0.059,0.049c-0.164-0.155-0.065-0.359-0.096-0.539c-0.019-0.11,0.055-0.306-0.093-0.308 c-0.174-0.002-0.109,0.197-0.114,0.314c-0.012,0.226-0.001,0.451-0.006,0.676c-0.001,0.096,0.005,0.194-0.072,0.269 c-0.058,0.052-0.117,0.101-0.172,0.156c-1.276,1.276-2.553,2.552-3.825,3.832C28.279,47.946,28.163,48,27.992,48 c-4.652-0.004-9.305-0.002-13.958-0.002c-0.061,0-0.121,0-0.196,0c0.008-0.117,0.098-0.164,0.159-0.226 c0.75-0.759,1.503-1.517,2.255-2.272c2.293-2.31,4.587-4.617,6.88-6.926c0.067-0.068,0.131-0.139,0.197-0.207 c0.103-0.035,0.1,0.061,0.121,0.109c0.056,0.126,0.088,0.262,0.136,0.391c0.077,0.203,0.272,0.292,0.475,0.22 c0.135-0.049,0.091-0.148,0.065-0.236c-0.075-0.248-0.164-0.49-0.241-0.737c-0.03-0.096-0.085-0.193-0.014-0.297 c0.551-0.551,1.101-1.102,1.654-1.65c0.331-0.328,0.645-0.675,0.996-0.983c0.115,0.112,0.087,0.259,0.088,0.394 c0.003,1.035,0,2.072,0.002,3.105c0,0.389,0.011,0.398,0.389,0.399c0.726,0.001,1.452,0.001,2.178,0 c0.086,0,0.173,0.003,0.258-0.018c0.069-0.017,0.101-0.06,0.1-0.13c0-0.068-0.027-0.117-0.096-0.137 c-0.084-0.023-0.171-0.02-0.257-0.02c-0.545-0.002-1.089,0.003-1.633-0.002c-0.365-0.004-0.426-0.062-0.428-0.426 c-0.005-1.191-0.002-2.384,0-3.575c0-0.119-0.018-0.249,0.094-0.337c0.059-0.051,0.121-0.099,0.176-0.153 c1.216-1.223,2.433-2.447,3.647-3.673c0.049-0.049,0.09-0.104,0.135-0.156c0.086-0.121,0.293-0.068,0.343-0.242 c0.013-0.018,0.029-0.033,0.047-0.045c0.01-0.002,0.021-0.004,0.032-0.006c0.055,0.03,0.025-0.033,0.044-0.044 c0.035-0.091,0.059-0.185,0.117-0.265c0.022-0.019,0.046-0.029,0.074-0.035c0.438,0.044,0.858,0.186,1.296,0.24 c0.777,0.098,1.532,0.012,2.285-0.171c0.134-0.032,0.264-0.087,0.407-0.067c0.028,0.006,0.05,0.02,0.069,0.039 c0.062,0.099,0.066,0.222,0.139,0.314c0.029,0.042,0.072,0.07,0.113,0.1c0.19,0.143,0.389,0.088,0.585,0.014 c0.299-0.109,0.601-0.105,0.903-0.027c0.023,0.01,0.044,0.023,0.064,0.039c0.004-0.012,0-0.023-0.017-0.039 c-0.106-0.2-0.224-0.39-0.391-0.541c-0.032-0.048-0.056-0.012-0.082,0.01c-0.021,0.006-0.041,0.008-0.064,0.004 c-0.047-0.016-0.083-0.045-0.109-0.087c-0.029-0.058-0.058-0.116-0.098-0.168c-0.232-0.415-0.565-0.49-1.008-0.357 c-0.609,0.183-1.232,0.327-1.871,0.37c-0.501,0.035-0.992-0.047-1.48-0.159c-0.06-0.015-0.111-0.048-0.135-0.11 c0.058-0.068,0.117-0.136,0.175-0.204c0.106-0.056,0.203,0.003,0.298,0.032c1.054,0.311,2.018,0.127,2.829-0.615 c0.553-0.506,0.874-1.158,0.895-1.936c0.011-0.396-0.01-0.783-0.159-1.155c-0.028-0.069-0.064-0.147-0.003-0.222 c0.071-0.062,0.146-0.124,0.212-0.19c1.449-1.458,2.9-2.915,4.347-4.379c0.132-0.136,0.265-0.187,0.453-0.187 c4.627,0.005,9.252,0.004,13.879,0.004c0.083,0,0.167,0,0.248,0c0.02,0.101-0.047,0.128-0.087,0.166 c-3.319,3.344-6.64,6.686-9.96,10.029c-0.93,0.936-1.858,1.872-2.786,2.808c-0.211,0.122-0.427,0.024-0.632,0.001 c-0.382-0.043-0.761-0.023-1.141-0.034c-0.197-0.005-0.278,0.083-0.278,0.28c0.002,0.523,0.004,1.045-0.002,1.567 C40.725,35.312,40.753,35.451,40.63,35.548z" clip-rule="evenodd"/><path fill="#27130C" fill-rule="evenodd" d="M4.363,36.217c0.291,0.535,0.57,1.053,0.853,1.568 c0.287,0.525,0.581,1.049,0.863,1.574c0.277,0.516,0.576,1.02,0.841,1.568c-0.248,0.039-0.455,0.013-0.66,0.023 c-0.103,0.004-0.128-0.075-0.163-0.142c-0.268-0.496-0.535-0.993-0.802-1.489c-0.505-0.939-1.014-1.878-1.515-2.82 c-0.062-0.117-0.133-0.168-0.262-0.15c-0.232,0.031-0.466,0.027-0.699,0.019c-0.139-0.005-0.173,0.049-0.172,0.182 c0.006,0.783,0.004,1.566,0.002,2.35c-0.001,0.306,0.057,0.292-0.291,0.294c-0.421,0-0.421,0-0.421-0.429c0-1.976,0-3.951,0-5.927 c0-0.052,0-0.104,0-0.156c0.004-0.193,0.004-0.197,0.204-0.197c0.467-0.002,0.934-0.013,1.4,0.003 c0.354,0.011,0.703,0.064,1.042,0.181c0.655,0.226,1.023,0.684,1.117,1.367c0.033,0.25,0.033,0.504-0.009,0.754 c-0.11,0.646-0.486,1.078-1.075,1.334C4.545,36.154,4.47,36.178,4.363,36.217z" clip-rule="evenodd"/><path fill="#27130C" fill-rule="evenodd" d="M37.332,38.822c-0.525,0.28-1.093,0.367-1.68,0.357 c-0.466-0.006-0.933,0-1.4-0.001c-0.239-0.001-0.241-0.002-0.241-0.241c-0.001-1.341,0-2.682,0-4.021c0-0.74,0-1.479,0-2.219 c0.001-0.215,0.003-0.223,0.212-0.217c0.665,0.014,1.33-0.041,1.995,0.042c0.241,0.03,0.477,0.085,0.701,0.179 c0.61,0.254,0.91,0.756,0.896,1.473c-0.016,0.652-0.292,1.133-0.892,1.408c-0.022,0.012-0.045,0.024-0.067,0.037 c-0.007,0.005-0.012,0.014-0.019,0.021c0.07,0.07,0.169,0.081,0.253,0.121c0.612,0.291,0.932,0.777,0.965,1.457 c0.021,0.392-0.062,0.76-0.23,1.11C37.68,38.514,37.517,38.68,37.332,38.822z" clip-rule="evenodd"/><path fill="#27130C" fill-rule="evenodd" d="M40.63,35.548c0.004-0.651,0.007-1.303,0.013-1.954 c0.004-0.314-0.059-0.314,0.302-0.312c0.44,0.005,0.88-0.021,1.32,0.024c0.171,0.018,0.34,0.043,0.513,0.065 c0.068,0.058,0.155,0.065,0.236,0.094c0.598,0.218,0.951,0.707,0.962,1.347c0.004,0.191,0.016,0.384-0.026,0.572 c-0.113,0.511-0.407,0.874-0.876,1.096c-0.04,0.018-0.08,0.032-0.118,0.051s-0.085,0.019-0.121,0.08 c0.213,0.392,0.433,0.795,0.652,1.196c0.515,0.944,1.03,1.891,1.546,2.835c0.021,0.037,0.048,0.072,0.064,0.111 c0.058,0.139,0.023,0.189-0.121,0.195c-0.501,0.024-0.499,0.023-0.73-0.406c-0.658-1.224-1.32-2.443-1.973-3.668 c-0.068-0.126-0.139-0.178-0.281-0.164c-0.163,0.018-0.328,0.004-0.493,0.007c-0.182,0.002-0.184,0.003-0.184,0.187 c-0.002,0.652,0,1.306-0.002,1.959c-0.002,0.346,0.055,0.307-0.298,0.309c-0.374,0.003-0.374,0.002-0.374-0.386 c0-1.027,0-2.056,0-3.083C40.641,35.652,40.634,35.6,40.63,35.548z" clip-rule="evenodd"/><path fill="#27130C" fill-rule="evenodd" d="M54.358,34.259c0,0.241,0,0.483,0,0.726c0,1.307,0,2.613,0,3.92 c0,0.035-0.004,0.069,0,0.104c0.016,0.119-0.019,0.167-0.151,0.169c-0.433,0.007-0.433,0.015-0.433-0.411 c0-1.733,0-3.466,0.002-5.199c0-0.281-0.055-0.262,0.273-0.291c0.316-0.028,0.489,0.09,0.656,0.36 c0.835,1.362,1.727,2.689,2.556,4.055c0.069,0.116,0.138,0.231,0.218,0.366c0.053-0.076,0.032-0.136,0.032-0.191 c0-1.455-0.002-2.91-0.004-4.364c0-0.216,0.004-0.216,0.209-0.219c0.371-0.006,0.371-0.006,0.371,0.368c0,1.733,0,3.467,0,5.2 c0,0.062-0.003,0.122,0.002,0.183c0.006,0.097-0.022,0.152-0.129,0.139c-0.017-0.002-0.034,0-0.051,0 c-0.41,0.014-0.41,0.012-0.63-0.336c-0.888-1.401-1.806-2.783-2.662-4.204c-0.075-0.126-0.149-0.253-0.224-0.38 C54.384,34.254,54.37,34.257,54.358,34.259z" clip-rule="evenodd"/><path fill="#27130C" fill-rule="evenodd" d="M7.729,36.287c-0.001-0.678,0.082-1.268,0.349-1.818 c0.385-0.797,1.018-1.22,1.9-1.272c0.726-0.044,1.367,0.134,1.881,0.677c0.292,0.311,0.48,0.683,0.586,1.09 c0.243,0.93,0.24,1.856-0.089,2.769c-0.514,1.421-2.185,2.005-3.458,1.209c-0.525-0.329-0.824-0.829-0.998-1.413 C7.772,37.1,7.721,36.661,7.729,36.287z" clip-rule="evenodd"/><path fill="#27130C" fill-rule="evenodd" d="M47.28,35.395c0,0.574,0,1.149,0,1.724 c0.002,0.218,0.04,0.431,0.097,0.642c0.207,0.762,0.668,0.973,1.268,1.028c0.199,0.019,0.398-0.006,0.592-0.054 c0.482-0.118,0.765-0.443,0.909-0.91c0.111-0.361,0.125-0.736,0.127-1.109c0.002-1.062,0-2.125,0-3.188 c0.002-0.243,0.002-0.246,0.239-0.244c0.427,0.002,0.349-0.045,0.351,0.361c0.004,1.002,0.002,2.003,0.002,3.005 c0,0.349-0.028,0.694-0.093,1.036c-0.173,0.929-0.721,1.459-1.652,1.57c-0.406,0.049-0.811,0.032-1.209-0.079 c-0.531-0.149-0.89-0.483-1.089-0.993c-0.138-0.352-0.204-0.72-0.208-1.096c-0.006-1.211-0.002-2.42-0.008-3.631 c0-0.139,0.04-0.189,0.177-0.178c0.109,0.01,0.224,0.008,0.337,0.001c0.112-0.005,0.152,0.044,0.148,0.154 c-0.004,0.235,0,0.47,0,0.706c0,0.418,0,0.836,0,1.253C47.271,35.395,47.277,35.395,47.28,35.395z" clip-rule="evenodd"/><path fill="#27130C" fill-rule="evenodd" d="M36.472,25.121c0.245,0.594,0.314,1.207,0.182,1.838 c-0.3,1.427-1.621,2.408-3.064,2.292c-0.34-0.026-0.657-0.128-0.977-0.234c-0.418-0.229-0.799-0.504-1.095-0.89 c-0.881-1.144-0.799-2.777,0.198-3.809c0.022-0.021,0.043-0.021,0.064,0.004c-0.252,0.438-0.386,0.906-0.367,1.416 c0.04,1.038,0.833,2.013,1.831,2.234c0.058,0.013,0.118,0.035,0.18-0.008c-0.015-0.175-0.166-0.269-0.263-0.412 c0.15-0.02,0.262,0.039,0.375,0.099c0.089,0.048,0.102-0.011,0.108-0.08c0.033-0.075,0.063-0.151,0.147-0.185 c0.022-0.006,0.044-0.004,0.067,0.002c0.084,0.035,0.113,0.137,0.2,0.17c0.017,0.002,0.034,0.001,0.052-0.002 c0.115-0.025,0.251-0.107,0.341,0.002c0.096,0.115-0.102,0.18-0.091,0.338c0.382-0.084,0.707-0.26,0.993-0.508 c0.521-0.453,0.757-1.046,0.813-1.723c0.008-0.078,0.025-0.154,0.024-0.232c0.023-0.281-0.091-0.533-0.168-0.792 c-0.012-0.019-0.025-0.038-0.033-0.06c-0.014-0.014-0.02-0.027-0.017-0.046c-0.015-0.019-0.026-0.038-0.035-0.059 c-0.014-0.013-0.02-0.026-0.019-0.045c-0.014-0.02-0.016-0.04-0.006-0.062c0.009-0.006,0.02-0.012,0.028-0.018 c0.009,0.008,0.017,0.016,0.024,0.023C36.185,24.59,36.326,24.857,36.472,25.121z" clip-rule="evenodd"/><path fill="#27130C" fill-rule="evenodd" d="M23.871,37.816c0.085,0.363,0.231,0.705,0.338,1.062 c0.089,0.297,0.091,0.303-0.222,0.299c-0.455-0.006-0.348,0.066-0.494-0.35c-0.054-0.154-0.109-0.309-0.165-0.461 c-0.086-0.373-0.237-0.725-0.342-1.092c-0.025-0.09-0.084-0.114-0.175-0.113c-0.596,0.003-1.192,0.006-1.789-0.002 c-0.133-0.002-0.154,0.076-0.184,0.169c-0.178,0.544-0.355,1.089-0.535,1.633c-0.079,0.235-0.035,0.208-0.28,0.21 c-0.094,0.002-0.19-0.002-0.285-0.006c-0.016-0.001-0.031-0.014-0.046-0.021c-0.03-0.1,0.022-0.188,0.052-0.275 c0.598-1.795,1.197-3.588,1.8-5.38c0.073-0.218,0.02-0.211,0.286-0.205c0.169,0.004,0.37-0.069,0.504,0.037 c0.121,0.097,0.125,0.298,0.177,0.452c0.435,1.301,0.865,2.602,1.298,3.904C23.825,37.727,23.824,37.782,23.871,37.816z" clip-rule="evenodd"/><path fill="#27130C" fill-rule="evenodd" d="M61.042,36.213c0-0.906,0-1.811,0-2.717 c0-0.211,0.002-0.213,0.215-0.214c0.882-0.001,1.764-0.001,2.645,0c0.206,0.001,0.206,0.005,0.208,0.22c0,0.052-0.002,0.104,0,0.156 c0.002,0.08-0.041,0.107-0.113,0.107c-0.112,0-0.224,0-0.336,0c-0.588,0-1.176,0-1.765,0.001c-0.178,0.001-0.182,0.004-0.182,0.187 c-0.002,0.592-0.002,1.184,0,1.775c0,0.183,0.004,0.186,0.186,0.186c0.596,0.002,1.191,0,1.789,0.004 c0.07,0,0.173-0.041,0.197,0.065c0.026,0.125,0.046,0.263-0.022,0.38c-0.036,0.067-0.127,0.034-0.193,0.035 c-0.543,0.002-1.089,0-1.634,0c-0.051,0-0.104,0.007-0.155,0c-0.145-0.023-0.171,0.051-0.169,0.179 c0.004,0.652,0.006,1.306-0.002,1.958c-0.002,0.145,0.051,0.17,0.179,0.17c0.692-0.006,1.383-0.003,2.075,0 c0.081,0,0.206-0.047,0.235,0.041c0.036,0.119,0.013,0.258,0.011,0.387c-0.002,0.014-0.04,0.032-0.062,0.035 c-0.049,0.007-0.103,0.004-0.155,0.004c-0.907,0-1.813,0.002-2.723,0c-0.262,0-0.228,0.014-0.228-0.245 C61.042,38.022,61.042,37.117,61.042,36.213z" clip-rule="evenodd"/><path fill="#27130C" fill-rule="evenodd" d="M35.664,24.008c-0.114,0.121-0.254,0.131-0.404,0.096 c-0.062-0.018-0.127-0.028-0.18-0.068c-0.024-0.015-0.045-0.035-0.072-0.045c0.004-0.017,0.004-0.025,0.004-0.025 c-0.021,0.019-0.019,0.029,0.011,0.03c0.016,0.012,0.033,0.023,0.048,0.035c0.039,0.025,0.078,0.048,0.104,0.087 c0.032,0.086-0.034,0.109-0.087,0.131c-0.277,0.118-0.522,0.041-0.74-0.146c-0.096-0.083-0.177-0.187-0.28-0.298 c-0.05,0.125,0.025,0.209,0.052,0.297c0.053,0.174,0.078,0.339-0.064,0.484c-0.035,0.043-0.068,0.086-0.127,0.037 c-0.016-0.014-0.03-0.027-0.044-0.039c-0.007-0.006-0.015-0.012-0.022-0.016c-0.027-0.011-0.051-0.006-0.075,0.012 c-0.015,0.014-0.029,0.026-0.045,0.039c-0.062,0.043-0.117,0.041-0.159-0.03c-0.157-0.138-0.116-0.308-0.076-0.479 c0.022-0.095,0.106-0.177,0.069-0.291c-0.102,0.039-0.137,0.135-0.201,0.203c-0.245,0.26-0.568,0.35-0.837,0.227 c-0.057-0.026-0.144-0.057-0.046-0.141c0.03-0.027,0.049-0.064,0.078-0.093c0.013-0.013,0.029-0.022,0.046-0.028 c0.035-0.002,0.002,0.024,0.024-0.002c0.019-0.024,0.011-0.031-0.008-0.004c-0.02,0.002-0.038,0.008-0.054,0.02 c-0.024,0.021-0.05,0.043-0.083,0.048c-0.181,0.075-0.361,0.136-0.524-0.038c-0.037-0.07-0.015-0.115,0.058-0.137 c-0.122,0.006-0.245,0.023-0.365-0.02c-0.064-0.059-0.145-0.104-0.15-0.205c0.039-0.067,0.116-0.055,0.171-0.079 c-0.019-0.007-0.03,0.009-0.046,0.009c-0.099,0.013-0.193-0.015-0.288-0.031c-0.166-0.054-0.269-0.184-0.369-0.315 c-0.015-0.024-0.012-0.048,0.007-0.068c0.444,0.078,0.849-0.032,1.232-0.257c0.17-0.1,0.334-0.209,0.527-0.266 c0.343-0.102,0.661-0.08,0.938,0.172c0.088,0.036,0.175,0.041,0.261-0.008c0.346-0.295,0.723-0.27,1.105-0.097 c0.171,0.078,0.33,0.185,0.495,0.273c0.328,0.176,0.673,0.247,1.044,0.185c0.053-0.014,0.073,0.006,0.058,0.061 c-0.096,0.137-0.202,0.258-0.363,0.32c-0.097,0.017-0.192,0.046-0.291,0.031c-0.014-0.004-0.032-0.018-0.042-0.014 c-0.022,0.008-0.018,0.016,0.002,0.005c0.055,0.028,0.133,0.011,0.164,0.084c-0.021,0.088-0.085,0.144-0.146,0.2 c-0.099,0.045-0.204,0.014-0.304,0.029c-0.026-0.004-0.05-0.014-0.074-0.018c-0.023-0.004-0.04-0.031-0.066-0.016 c0.025,0.004,0.049,0.014,0.073,0.024C35.677,23.896,35.711,23.935,35.664,24.008z" clip-rule="evenodd"/><path fill="#27130C" fill-rule="evenodd" d="M16.329,36.292c0.46-0.939,0.92-1.863,1.36-2.797 c0.082-0.174,0.176-0.222,0.351-0.216c0.367,0.01,0.373,0.014,0.202,0.355c-0.517,1.031-1.032,2.064-1.551,3.096 c-0.065,0.127-0.097,0.254-0.096,0.398c0.005,0.616,0.003,1.234,0.001,1.854c-0.001,0.186-0.004,0.188-0.182,0.189 c-0.13,0.003-0.259,0-0.389,0c-0.063,0-0.094-0.027-0.093-0.093c0.002-0.062,0-0.122,0-0.185c0-0.591-0.002-1.182,0.002-1.774 c0.001-0.144-0.029-0.269-0.094-0.397c-0.523-1.037-1.043-2.077-1.562-3.117c-0.159-0.318-0.156-0.327,0.192-0.322 c0.446,0.006,0.326-0.076,0.53,0.34c0.401,0.817,0.793,1.641,1.19,2.46C16.224,36.151,16.242,36.231,16.329,36.292z" clip-rule="evenodd"/><path fill="#27130C" fill-rule="evenodd" d="M27.216,34.438c-0.003,0.303-0.009,0.607-0.009,0.912 c-0.001,1.034-0.001,2.069,0,3.104c0,0.238,0.001,0.24,0.241,0.24c0.666,0.001,1.33-0.001,1.995,0.001 c0.21,0,0.21,0.003,0.213,0.216c0,0.053-0.002,0.104-0.001,0.156c0.001,0.075-0.034,0.112-0.109,0.111 c-0.051-0.001-0.103,0.001-0.155,0.001c-0.864,0-1.728,0-2.592,0c-0.051,0-0.103-0.002-0.155-0.001 c-0.073,0.001-0.113-0.031-0.112-0.109c0-0.061-0.001-0.121-0.001-0.182c0-1.139,0-2.279,0-3.418c0-0.096-0.006-0.191-0.01-0.286 c0.034-0.53,0.006-1.062,0.015-1.592c0.006-0.327-0.058-0.308,0.302-0.309c0.369-0.001,0.368-0.001,0.369,0.372 C27.208,33.914,27.213,34.176,27.216,34.438z" clip-rule="evenodd"/><path fill="#28140D" fill-rule="evenodd" d="M67.492,36.238c0,0.912,0,1.826,0,2.738 c0,0.209,0.008,0.202-0.199,0.195c-0.145-0.004-0.33,0.062-0.425-0.03c-0.097-0.095-0.034-0.28-0.034-0.427 c-0.002-1.705-0.002-3.41-0.002-5.114c0-0.062,0.002-0.122,0-0.184c-0.006-0.101,0.044-0.13,0.139-0.138 c0.521-0.039,0.521-0.043,0.521,0.479C67.492,34.584,67.492,35.411,67.492,36.238z" clip-rule="evenodd"/><path fill="#28150D" fill-rule="evenodd" d="M35.87,29.85c-0.319,0.074-0.637,0.156-0.959,0.219 c-0.996,0.195-1.978,0.104-2.949-0.172c-0.058-0.017-0.118-0.029-0.176-0.043c-0.031,0.004-0.063,0.012-0.096,0.008 s-0.064-0.012-0.095-0.023c-0.072-0.025-0.143-0.051-0.218-0.067c-0.076-0.015-0.151-0.038-0.228-0.054 c-0.022-0.004-0.044-0.011-0.066-0.017c-0.055-0.017-0.11-0.033-0.167-0.041c-0.036-0.006-0.069-0.014-0.104-0.022 c-0.075-0.033-0.177-0.01-0.225-0.104c0.084-0.119,0.167-0.24,0.252-0.359c0.129-0.181,0.302-0.248,0.519-0.199 c0.259,0.061,0.519,0.123,0.778,0.183c0.101,0.022,0.201,0.042,0.301,0.063c0.866,0.252,1.734,0.26,2.607,0.044 c0.335-0.083,0.675-0.147,1.004-0.251c0.387-0.12,0.674-0.027,0.874,0.33c0.028,0.054,0.068,0.1,0.104,0.149 c-0.09,0.202-0.294,0.133-0.443,0.194c-0.036,0.011-0.073,0.018-0.11,0.021c-0.023,0.003-0.048,0.004-0.071,0.006 c-0.058,0-0.113,0.011-0.163,0.042C36.122,29.811,36.009,29.881,35.87,29.85z" clip-rule="evenodd"/><path fill="#28140D" fill-rule="evenodd" d="M29.896,27.93c0.035-0.483,0.064-0.967,0.109-1.449 c0.015-0.158-0.039-0.268-0.152-0.358c-0.061-0.049-0.125-0.093-0.189-0.136c-0.55-0.375-0.795-1.186-0.544-1.801 c0.01-0.022,0.02-0.047,0.059-0.049c0.107,0.042,0.08,0.15,0.1,0.236c0.017,0.02,0.025,0.04,0.026,0.064 c-0.01,0.175,0.042,0.343,0.054,0.516c0.009,0.021,0.015,0.043,0.021,0.064c0.016,0.041,0.034,0.081,0.053,0.121 c0.023,0.047,0.047,0.096,0.082,0.137c0.044,0.047,0.103,0.071,0.159,0.102c0.049,0.027,0.094,0.062,0.139,0.092 c0.01,0.01,0.024,0.014,0.04,0.01c0.002-0.019,0.001-0.033-0.006-0.051c-0.01-0.016-0.018-0.031-0.028-0.047 c-0.017-0.023-0.034-0.045-0.05-0.068c-0.011-0.017-0.021-0.033-0.032-0.049c-0.023-0.033-0.048-0.064-0.068-0.1 c-0.014-0.028-0.023-0.059-0.032-0.088c-0.01-0.03-0.019-0.061-0.028-0.092c-0.01-0.045-0.008-0.087,0.018-0.126 c0.054-0.048,0.103-0.022,0.151,0.009c0.006,0.009,0.013,0.018,0.021,0.027c0.213,0.213,0.428,0.426,0.637,0.643 c0.125,0.129,0.191,0.29,0.191,0.471c0.001,0.645,0.096,1.281,0.162,1.92c0.043,0.15-0.055,0.192-0.168,0.221 c-0.184,0.012-0.368,0.012-0.552,0.001C29.951,28.123,29.855,28.078,29.896,27.93z" clip-rule="evenodd"/><path fill="#26130C" fill-rule="evenodd" d="M39.546,44.473c0-0.643,0.002-1.243,0-1.843 c0-0.103-0.005-0.189,0.146-0.179c0.099,0.008,0.135,0.035,0.133,0.137c-0.002,0.748-0.002,1.496,0,2.245 c0.002,0.098-0.028,0.131-0.131,0.138c-0.165,0.012-0.266-0.04-0.353-0.189c-0.34-0.596-0.716-1.17-1.042-1.772 c-0.019-0.032-0.022-0.083-0.093-0.095c0,0.296,0,0.586,0,0.878c0,0.331,0,0.661,0,0.992c0,0.097,0.015,0.19-0.139,0.187 c-0.127-0.004-0.161-0.05-0.161-0.172c0.004-0.729,0.004-1.461,0.002-2.192c0-0.108,0.036-0.146,0.147-0.155 c0.194-0.016,0.312,0.039,0.414,0.221c0.318,0.576,0.692,1.123,0.994,1.709C39.477,44.402,39.497,44.418,39.546,44.473z" clip-rule="evenodd"/><path fill="#EED614" fill-rule="evenodd" d="M36.19,25.433c0.072,0.308,0.011,0.606-0.081,0.892 c-0.27,0.836-0.829,1.379-1.668,1.629c-0.073,0.021-0.146,0.053-0.229,0.012c0.007-0.17,0.149-0.262,0.244-0.396 c-0.134-0.045-0.23,0.018-0.328,0.061c-0.043,0.02-0.087,0.07-0.125-0.007c0.016-0.11,0.11-0.162,0.173-0.237 c0.055-0.055,0.109-0.109,0.187-0.129c0.541-0.541,1.083-1.084,1.624-1.625C36.056,25.564,36.124,25.499,36.19,25.433z" clip-rule="evenodd"/><path fill="#26130D" fill-rule="evenodd" d="M45.567,42.41c0.346,0.009,0.604,0.1,0.759,0.384 c0.03,0.058,0.076,0.128-0.019,0.177c-0.103,0.055-0.228,0.043-0.264-0.04c-0.101-0.247-0.286-0.335-0.537-0.31 c-0.173,0.02-0.296,0.125-0.338,0.277c-0.055,0.195-0.007,0.348,0.148,0.459c0.127,0.092,0.276,0.139,0.421,0.197 c0.11,0.046,0.224,0.09,0.328,0.147c0.44,0.246,0.416,0.872,0.052,1.146c-0.293,0.221-0.856,0.216-1.146-0.012 c-0.075-0.06-0.146-0.127-0.186-0.215c-0.03-0.068-0.125-0.146-0.008-0.219c0.133-0.078,0.228-0.054,0.292,0.064 c0.148,0.268,0.321,0.368,0.583,0.332c0.199-0.025,0.336-0.145,0.381-0.334c0.052-0.206-0.012-0.381-0.184-0.502 c-0.099-0.068-0.215-0.108-0.326-0.154c-0.13-0.049-0.259-0.097-0.382-0.16c-0.237-0.123-0.356-0.324-0.334-0.596 c0.024-0.274,0.169-0.472,0.421-0.574C45.35,42.43,45.479,42.398,45.567,42.41z" clip-rule="evenodd"/><path fill="#27140D" fill-rule="evenodd" d="M41.832,43.718c0-0.356-0.002-0.714,0-1.071 c0-0.188,0.004-0.189,0.179-0.191c0.336-0.002,0.673,0,1.011,0c0.05,0,0.112-0.015,0.143,0.035c0.021,0.033,0.017,0.084,0.014,0.125 c-0.006,0.057-0.058,0.057-0.099,0.057c-0.233,0.003-0.467,0-0.7,0.003c-0.193,0.002-0.195,0.004-0.197,0.204 c-0.002,0.185,0.002,0.366-0.002,0.549c-0.004,0.1,0.03,0.139,0.133,0.136c0.218-0.006,0.433,0,0.648-0.002 c0.078-0.001,0.133,0.015,0.133,0.11s-0.049,0.12-0.129,0.12c-0.216-0.001-0.433,0.003-0.648-0.001 c-0.099-0.002-0.139,0.037-0.137,0.138c0.004,0.226,0.004,0.452,0,0.678c-0.004,0.12,0.057,0.144,0.159,0.142 c0.252-0.004,0.503-0.002,0.753,0c0.066,0,0.141-0.012,0.143,0.098c0.006,0.117-0.062,0.121-0.148,0.121 c-0.371-0.002-0.743-0.005-1.115,0.002c-0.119,0.002-0.143-0.051-0.141-0.154C41.834,44.447,41.832,44.082,41.832,43.718z" clip-rule="evenodd"/><path fill="#28150D" fill-rule="evenodd" d="M32.395,43.839c0.004-0.396,0.007-0.793,0.012-1.188 c0.003-0.193,0.015-0.195,0.208-0.197c0.108,0,0.154,0.033,0.152,0.146c-0.003,0.277,0.004,0.553,0.008,0.827 c-0.004,0.384-0.004,0.766-0.012,1.149c-0.002,0.113,0.039,0.153,0.15,0.152c0.242-0.006,0.484,0,0.726-0.002 c0.086,0,0.149,0.01,0.149,0.125c0,0.121-0.073,0.115-0.154,0.115c-0.354,0-0.709-0.004-1.063,0.002 c-0.123,0.002-0.167-0.039-0.166-0.166C32.408,44.482,32.399,44.16,32.395,43.839z" clip-rule="evenodd"/><path fill="#29140D" fill-rule="evenodd" d="M33.635,27.499c-0.286-0.15-0.354-0.305-0.258-0.604 c0.029-0.09,0.062-0.18,0.111-0.26c0.13-0.213,0.112-0.406-0.061-0.584c-0.016-0.023-0.016-0.044,0.004-0.064 c0.053,0,0.104,0.008,0.147,0.04c0.065,0.048,0.109,0.005,0.155-0.034c0.025-0.014,0.046-0.031,0.058-0.057l-0.004,0.002 c0.023-0.025,0.044-0.023,0.065,0.002c0.082,0.135,0.19,0.102,0.302,0.05c0.053-0.014,0.073,0.005,0.058,0.06 c-0.186,0.171-0.197,0.365-0.074,0.576c0.09,0.158,0.14,0.328,0.164,0.507c-0.006,0.112-0.037,0.215-0.133,0.286 c-0.11,0.125-0.209,0.086-0.304-0.021c-0.02-0.013-0.042-0.017-0.066-0.015C33.741,27.414,33.709,27.486,33.635,27.499z" clip-rule="evenodd"/><path fill="#29150E" fill-rule="evenodd" d="M35.924,43.711c0,0.356,0.001,0.713-0.001,1.068 c-0.001,0.059,0.023,0.145-0.042,0.165c-0.087,0.028-0.19,0.03-0.279-0.005c-0.042-0.017-0.036-0.074-0.036-0.117 c0-0.748,0.001-1.496,0-2.242c-0.001-0.162,0.11-0.117,0.197-0.125c0.097-0.009,0.164,0.006,0.162,0.135 C35.919,42.963,35.923,43.338,35.924,43.711z" clip-rule="evenodd"/><path fill="#29140D" fill-rule="evenodd" d="M34.11,24.743c-0.118,0.136-0.116,0.277-0.034,0.432 c0.048,0.091,0.091,0.188,0.12,0.286c0.042,0.144,0.006,0.27-0.104,0.379c-0.086,0.085-0.161,0.072-0.245,0.01 c-0.018,0.015-0.035,0.016-0.052-0.002c-0.066,0.025-0.119,0.104-0.206,0.032c-0.083-0.068-0.155-0.137-0.166-0.251 c-0.013-0.146,0.035-0.275,0.102-0.396c0.075-0.137,0.106-0.275,0.055-0.426c-0.018-0.033-0.007-0.062,0.016-0.09 c0.04-0.037,0.097-0.05,0.134-0.092c0.025-0.021,0.047-0.047,0.079-0.062c0.022-0.002,0.044,0.003,0.063,0.015 c0.047,0.072,0.112,0.104,0.198,0.088C34.106,24.68,34.129,24.701,34.11,24.743z" clip-rule="evenodd"/><path fill="#29150D" fill-rule="evenodd" d="M34.461,21.876c-0.01,0.132,0.051,0.252,0.078,0.408 c-0.111-0.044-0.224-0.181-0.28,0.021c-0.015,0.052-0.068,0.046-0.104,0.01c-0.042-0.043-0.08-0.091-0.119-0.136 c-0.089,0.061-0.129,0.168-0.229,0.207c-0.093-0.042-0.122-0.146-0.2-0.199c-0.087,0.025-0.102,0.141-0.19,0.162 c-0.071-0.035-0.068-0.119-0.119-0.163c-0.077-0.005-0.11,0.083-0.198,0.083c0.016-0.152,0.087-0.295,0.078-0.447 c0.079-0.172,0.216-0.104,0.342-0.086c0.172,0.011,0.344,0.006,0.516,0.004C34.185,21.762,34.396,21.588,34.461,21.876z" clip-rule="evenodd"/><path fill="#2B160F" fill-rule="evenodd" d="M33.232,21.646c0.096-0.118,0.236-0.092,0.358-0.096 c0.123-0.005,0.173-0.042,0.161-0.168c-0.026-0.291,0.047-0.588-0.044-0.877c-0.019-0.058,0.014-0.104,0.074-0.114 c0.07-0.012,0.134,0.029,0.11,0.099c-0.037,0.106,0.026,0.105,0.092,0.135c0.187,0.084,0.362,0.195,0.562,0.25 c-0.04,0.104-0.153,0.093-0.202,0.166c0.01,0.092,0.124,0.113,0.139,0.216c-0.098,0.057-0.192,0.022-0.284-0.02 c-0.07-0.032-0.136-0.073-0.208-0.103c-0.029-0.011-0.085-0.017-0.097-0.001c-0.075,0.097-0.029,0.214-0.036,0.321 c-0.004,0.066,0.043,0.086,0.101,0.088c0.138,0.006,0.276,0.01,0.408,0.061c-0.035,0.203-0.219,0.128-0.333,0.182 c-0.157,0-0.314,0.002-0.47,0C33.464,21.713,33.3,21.797,33.232,21.646z" clip-rule="evenodd"/><path fill="#2D180F" fill-rule="evenodd" d="M31.555,30.17c-0.038,0.257-0.06,0.273-0.38,0.285 c-0.154-0.055-0.305-0.126-0.464-0.159c-0.279-0.059-0.561-0.075-0.841,0.062c0.123-0.27,0.211-0.558,0.499-0.707 c0.006,0.01,0.013,0.019,0.02,0.028c0.004,0.022,0.004,0.046,0,0.067c-0.012,0.068-0.013,0.134,0.028,0.194 c0.048,0.068,0.108,0.114,0.194,0.116c0.059,0.004,0.116,0.001,0.175-0.006c0.122-0.02,0.239-0.057,0.358-0.084 c0.064-0.01,0.128-0.008,0.191,0.008c0.086,0.031,0.165,0.073,0.213,0.158C31.549,30.145,31.552,30.156,31.555,30.17z" clip-rule="evenodd"/><path fill="#2A170F" fill-rule="evenodd" d="M31.763,29.916c0.008,0.105-0.052,0.181-0.107,0.26l-0.021,0.014 l-0.021-0.014l0,0c-0.027-0.029-0.057-0.054-0.089-0.075c-0.04-0.029-0.075-0.065-0.119-0.09c-0.017-0.013-0.034-0.024-0.052-0.034 c-0.084-0.016-0.167-0.021-0.25,0.012c-0.02,0.01-0.042,0.018-0.062,0.023c-0.055,0.008-0.112,0.004-0.163,0.035 c-0.021,0.01-0.042,0.016-0.065,0.021c-0.071,0.004-0.14,0.003-0.21,0.001c-0.025-0.002-0.048-0.006-0.071-0.014 c-0.034-0.014-0.062-0.037-0.091-0.059c-0.03-0.022-0.048-0.055-0.062-0.088c-0.011-0.049-0.011-0.098,0-0.146 c0.014-0.035,0.031-0.068,0.06-0.092c0.011-0.004,0.023-0.008,0.035-0.011c0.017-0.002,0.033-0.004,0.05-0.007 c0.083-0.06,0.177-0.057,0.271-0.041c0.037,0.014,0.076,0.016,0.113,0.016c0.065-0.007,0.114,0.041,0.174,0.051 c0.023,0.002,0.046,0.002,0.07,0.003c0.066,0.017,0.123,0.06,0.194,0.057c0.072,0.024,0.145,0.052,0.218,0.077 c0.031,0.012,0.062,0.022,0.093,0.027C31.7,29.856,31.737,29.879,31.763,29.916z" clip-rule="evenodd"/><path fill="#362015" fill-rule="evenodd" d="M30.99,28.557c0.017,0.086-0.027,0.132-0.102,0.151 c-0.354,0.089-0.709,0.099-1.063-0.001c-0.024-0.006-0.049-0.018-0.069-0.032c-0.029-0.02-0.056-0.048-0.045-0.085 c0.01-0.035,0.045-0.043,0.082-0.039c0.034,0.004,0.068,0.006,0.102,0.008c0.236-0.03,0.474-0.021,0.711-0.025 C30.734,28.543,30.868,28.454,30.99,28.557z" clip-rule="evenodd"/><path fill="#311C11" fill-rule="evenodd" d="M29.325,24.372c0.019-0.048,0.036-0.096,0.056-0.144 c0.029-0.07,0.07-0.059,0.115-0.013c0.02,0.095,0.062,0.185,0.059,0.284c0.001,0.074-0.002,0.15-0.004,0.226 c0,0.044,0,0.087,0.011,0.13c0.006,0.02,0.012,0.038,0.019,0.057c0.009,0.028,0.017,0.057,0.033,0.082 c0.008,0.019,0.017,0.037,0.024,0.055c0.012,0.039,0.027,0.078,0.038,0.117c0.025,0.035,0.056,0.068,0.043,0.118 c-0.015,0.034-0.04,0.056-0.075,0.065c-0.036,0.004-0.069-0.008-0.102-0.018c-0.062-0.041-0.08-0.113-0.121-0.17 c-0.014-0.046-0.041-0.086-0.062-0.129c-0.004-0.025-0.013-0.049-0.028-0.069c-0.055-0.126-0.001-0.265-0.047-0.392 C29.276,24.502,29.293,24.436,29.325,24.372z" clip-rule="evenodd"/><path fill="#473429" fill-rule="evenodd" d="M29.952,28.51c-0.046-0.02-0.098-0.033-0.138-0.062 c-0.084-0.063-0.053-0.109,0.032-0.141c0.066-0.021,0.132-0.015,0.199,0.002c0.216,0.031,0.431,0.036,0.646-0.012 c0.089-0.022,0.171,0,0.249,0.043c-0.003,0.031-0.005,0.063-0.008,0.096c-0.108,0.154-0.287,0.094-0.429,0.143 C30.316,28.58,30.127,28.6,29.952,28.51z" clip-rule="evenodd"/><path fill="#5C4A42" fill-rule="evenodd" d="M30.887,28.139c-0.001,0.029-0.003,0.061-0.005,0.091 c-0.049,0.082-0.144,0.065-0.214,0.101c-0.027,0.008-0.054,0.013-0.082,0.014c-0.168,0.002-0.337,0.006-0.506-0.002 c-0.083-0.02-0.165-0.039-0.232-0.096c-0.016-0.031-0.031-0.062-0.046-0.094c0.053-0.08,0.127-0.051,0.197-0.036 c0.228,0.034,0.456,0.032,0.683,0.002C30.753,28.096,30.823,28.085,30.887,28.139z" clip-rule="evenodd"/><path fill="#83746C" fill-rule="evenodd" d="M33.949,22.805c-0.127,0.165-0.127,0.165-0.261,0.008 c0.087-0.049,0.038-0.133,0.053-0.201c0.013-0.057-0.035-0.136,0.057-0.166c0.037,0.123,0.03,0.244,0.009,0.348 c0.057-0.094-0.023-0.23,0.036-0.346c0.084,0.026,0.041,0.098,0.054,0.15C33.911,22.668,33.858,22.755,33.949,22.805z" clip-rule="evenodd"/><path fill="#FFF" fill-rule="evenodd" d="M29.952,28.51c0.187,0.014,0.373,0.026,0.558,0.039 c0.052-0.014,0.111-0.048,0.115,0.049c-0.246,0.025-0.492,0.055-0.731-0.039C29.914,28.542,29.933,28.526,29.952,28.51z" clip-rule="evenodd"/><path fill="#C4BDBA" fill-rule="evenodd" d="M31.666,23.854c0.199,0.038,0.379-0.047,0.569-0.104 c-0.034,0.161-0.245,0.105-0.262,0.261c-0.057-0.056-0.109-0.115-0.203-0.104C31.729,23.912,31.691,23.891,31.666,23.854z" clip-rule="evenodd"/><path fill="#C6BFBC" fill-rule="evenodd" d="M34.054,21.76c0.059-0.038,0.125-0.047,0.191-0.058 c0.058-0.008,0.119-0.019,0.122-0.099c0.075,0.075,0.12,0.162,0.094,0.272c-0.042-0.071-0.077-0.14-0.186-0.104 c-0.07,0.021-0.143,0.057-0.222,0.033c-0.016-0.01-0.021-0.02-0.016-0.029C34.043,21.764,34.048,21.76,34.054,21.76z" clip-rule="evenodd"/><path fill="#3E281E" fill-rule="evenodd" d="M29.812,24.488c0.088,0.127,0.052,0.266,0.029,0.4 c0,0.004-0.029,0.004-0.044,0.005c0,0.001,0.002,0.007,0.002,0.007c-0.079-0.051-0.117-0.121-0.115-0.215 C29.689,24.596,29.706,24.512,29.812,24.488z" clip-rule="evenodd"/><path fill="#F2F1EF" fill-rule="evenodd" d="M30.625,28.598c-0.029-0.037-0.073-0.039-0.115-0.049 c0.134-0.063,0.292-0.033,0.422-0.113c0.02,0.04,0.04,0.08,0.058,0.121C30.864,28.525,30.752,28.625,30.625,28.598z" clip-rule="evenodd"/><path fill="#C8C2BF" fill-rule="evenodd" d="M30.837,29.646c-0.104,0.003-0.209,0.005-0.312,0.007 c0.021-0.039,0.041-0.079,0.062-0.119c0.081,0.027,0.179-0.01,0.25,0.063c0.017,0.011,0.023,0.021,0.018,0.032 C30.849,29.64,30.843,29.646,30.837,29.646z" clip-rule="evenodd"/><path fill="#C1B9B5" fill-rule="evenodd" d="M35.927,23.529c0.12,0.006,0.241,0.012,0.361,0.018 c-0.04,0.059-0.136,0.031-0.167,0.106c-0.083-0.021-0.166-0.042-0.248-0.064C35.859,23.539,35.874,23.517,35.927,23.529z" clip-rule="evenodd"/><path fill="#C1BAB6" fill-rule="evenodd" d="M31.353,23.547c0.12-0.007,0.241-0.014,0.362-0.021 c0.05-0.01,0.067,0.01,0.048,0.059c-0.083,0.021-0.165,0.042-0.248,0.063C31.485,23.576,31.391,23.605,31.353,23.547z" clip-rule="evenodd"/><path fill="#C1B9B5" fill-rule="evenodd" d="M33.232,21.646c0.089,0.076,0.22,0.036,0.31,0.111 c-0.012,0.022-0.031,0.035-0.057,0.042c-0.102,0.005-0.212-0.104-0.306,0.022C33.148,21.748,33.216,21.705,33.232,21.646z" clip-rule="evenodd"/><path fill="#EBE9E7" fill-rule="evenodd" d="M35.664,24.008c0.017-0.08-0.043-0.096-0.098-0.115 c-0.009-0.047,0.001-0.072,0.055-0.051c0.117,0.021,0.236,0.035,0.354,0.012C35.891,23.947,35.73,23.882,35.664,24.008z" clip-rule="evenodd"/><path fill="#4A362C" fill-rule="evenodd" d="M29.595,24.326c0.076-0.012,0.089,0.047,0.107,0.1 c0.042,0.08,0.007,0.166,0.016,0.249c-0.009,0.048,0.023,0.122-0.072,0.115c-0.11-0.113-0.055-0.261-0.083-0.392 C29.563,24.369,29.573,24.346,29.595,24.326z" clip-rule="evenodd"/><path fill="#C6C0BD" fill-rule="evenodd" d="M34.052,24.686c-0.123,0.091-0.166-0.001-0.207-0.094 c-0.014-0.013-0.02-0.027-0.019-0.041c0.002-0.016,0.004-0.024,0.008-0.024c0.023-0.016,0.043-0.013,0.063,0.008l-0.002-0.002 c0.019,0.017,0.035,0.034,0.055,0.05c0.032,0.059,0.07-0.017,0.105,0.004c0,0.02,0,0.037-0.001,0.057 c0.018,0.01,0.023,0.02,0.017,0.029C34.064,24.681,34.059,24.686,34.052,24.686z" clip-rule="evenodd"/><path fill="#EAE8E6" fill-rule="evenodd" d="M30.887,28.139c-0.067-0.023-0.133,0.006-0.201,0.004 c-0.056,0.021-0.066-0.006-0.058-0.055c0.084-0.021,0.17-0.043,0.16-0.16C30.854,27.982,30.842,28.074,30.887,28.139z" clip-rule="evenodd"/><path fill="#FBFCFC" fill-rule="evenodd" d="M30.003,28.139c-0.068-0.008-0.137-0.027-0.202,0.014 c0.033-0.074,0.03-0.162,0.094-0.223c-0.009,0.115,0.073,0.14,0.16,0.159C30.065,28.135,30.059,28.162,30.003,28.139z" clip-rule="evenodd"/><path fill="#FDFEFF" fill-rule="evenodd" d="M30.68,28.302c0.067-0.024,0.135-0.048,0.202-0.072 c0.019,0.036,0.04,0.073,0.059,0.11c-0.089-0.031-0.172,0.021-0.259,0.016c-0.006-0.009-0.012-0.018-0.019-0.026 C30.669,28.32,30.674,28.311,30.68,28.302z" clip-rule="evenodd"/><path fill="#2C1810" fill-rule="evenodd" d="M33.842,22.447c-0.005,0.123,0.023,0.25-0.025,0.401 c-0.042-0.153-0.022-0.28-0.019-0.403C33.812,22.435,33.828,22.436,33.842,22.447z" clip-rule="evenodd"/><path fill="#D9D2B6" fill-rule="evenodd" d="M34.167,27.407c0.045-0.092,0.091-0.184,0.137-0.275 c0.021,0.042,0.012,0.097,0.061,0.124c-0.034,0.069-0.085,0.121-0.157,0.15C34.194,27.426,34.18,27.426,34.167,27.407z" clip-rule="evenodd"/><path fill="#D1CCC9" fill-rule="evenodd" d="M29.595,24.326c-0.004,0.018-0.003,0.033,0.001,0.051 c0.012,0.018,0.015,0.036,0.007,0.057c-0.014,0.038-0.025,0.076-0.056,0.105c-0.02,0.011-0.038,0.008-0.055-0.006 c0.001-0.106,0.001-0.212,0.002-0.317C29.528,24.252,29.562,24.289,29.595,24.326z" clip-rule="evenodd"/><path fill="#C7C0BD" fill-rule="evenodd" d="M33.745,24.643c-0.006,0.055-0.05,0.072-0.092,0.089 c-0.041-0.015-0.088-0.007-0.126-0.036c-0.013-0.021-0.011-0.04,0.006-0.058c0.017-0.017,0.034-0.032,0.051-0.049 c0.053,0.013,0.105,0.017,0.154-0.018C33.766,24.592,33.768,24.615,33.745,24.643z" clip-rule="evenodd"/><path fill="#F6F5F5" fill-rule="evenodd" d="M29.848,28.246c0.068,0.019,0.138,0.037,0.206,0.056 c0.007,0.048-0.005,0.075-0.059,0.05c-0.053-0.004-0.109,0.003-0.149-0.045C29.847,28.287,29.848,28.267,29.848,28.246z" clip-rule="evenodd"/><path fill="#E0DDDA" fill-rule="evenodd" d="M29.705,24.684c0-0.086-0.002-0.172-0.002-0.258 c0.037,0.021,0.073,0.042,0.11,0.062c-0.044,0.058-0.065,0.125-0.078,0.195C29.725,24.684,29.715,24.684,29.705,24.684z" clip-rule="evenodd"/><path fill="#F2F1EF" fill-rule="evenodd" d="M33.635,27.499c0.032-0.071,0.082-0.121,0.161-0.136 c0.018,0.01,0.024,0.021,0.018,0.032c-0.005,0.011-0.012,0.017-0.017,0.017c-0.051,0.053-0.103,0.106-0.154,0.159 C33.64,27.547,33.638,27.522,33.635,27.499z" clip-rule="evenodd"/><path fill="#C4BDBA" fill-rule="evenodd" d="M35.174,24.117c-0.07,0.002-0.114-0.041-0.148-0.096 c0.007-0.008,0.013-0.016,0.021-0.023c0.08,0.016,0.152,0.049,0.212,0.105C35.231,24.107,35.203,24.113,35.174,24.117z" clip-rule="evenodd"/><path fill="#83746E" fill-rule="evenodd" d="M31.78,24.322c-0.022-0.002-0.043-0.002-0.064-0.004 c0.03-0.076,0.088-0.122,0.159-0.157c0.015,0.013,0.018,0.024,0.014,0.037c-0.005,0.013-0.01,0.019-0.015,0.019 C31.841,24.252,31.838,24.312,31.78,24.322z" clip-rule="evenodd"/><path fill="#CAC4C0" fill-rule="evenodd" d="M29.325,24.372c-0.002,0.069-0.003,0.138-0.004,0.208 c-0.119-0.023-0.052-0.105-0.051-0.167c-0.007-0.015-0.004-0.028,0.009-0.04C29.295,24.373,29.31,24.373,29.325,24.372z" clip-rule="evenodd"/><path fill="#867871" fill-rule="evenodd" d="M34.052,24.686c0.005-0.015,0.006-0.029,0.002-0.043 c0.042-0.008,0.098-0.027,0.117,0.012c0.021,0.038-0.014,0.078-0.062,0.089C34.104,24.711,34.082,24.693,34.052,24.686z" clip-rule="evenodd"/><path fill="#A89E99" fill-rule="evenodd" d="M32.497,24.048c0.014-0.056,0.065-0.06,0.107-0.077 c0.015,0.011,0.02,0.023,0.015,0.033c-0.005,0.012-0.009,0.018-0.015,0.018c-0.021,0.049-0.051,0.088-0.11,0.086 C32.494,24.088,32.496,24.068,32.497,24.048z" clip-rule="evenodd"/><path fill="#8E8079" fill-rule="evenodd" d="M36.651,23.227c-0.019-0.021-0.039-0.041-0.058-0.061 c0.03-0.024,0.066-0.065,0.101-0.014C36.712,23.18,36.688,23.214,36.651,23.227z" clip-rule="evenodd"/><path fill="#766760" fill-rule="evenodd" d="M33.533,24.638c0.003,0.013,0.004,0.025,0.003,0.038 c0.023,0.027,0.02,0.053-0.008,0.074c-0.042-0.014-0.073-0.051-0.073-0.086C33.454,24.635,33.501,24.635,33.533,24.638z" clip-rule="evenodd"/><path fill="#938780" fill-rule="evenodd" d="M34.212,26.049c-0.004-0.035-0.034-0.044-0.058-0.06 c0.032-0.021,0.068-0.06,0.099-0.009C34.272,26.011,34.251,26.041,34.212,26.049z" clip-rule="evenodd"/><path fill="#867972" fill-rule="evenodd" d="M35.812,24.271c-0.03-0.004-0.045-0.023-0.056-0.049 c-0.014-0.023-0.01-0.043,0.011-0.061c0.051,0.019,0.088,0.053,0.107,0.105C35.855,24.289,35.834,24.29,35.812,24.271z" clip-rule="evenodd"/><path fill="#C9C3C0" fill-rule="evenodd" d="M35.767,24.162c-0.003,0.02-0.007,0.04-0.011,0.061 c-0.032-0.02-0.075-0.048-0.055-0.086C35.721,24.104,35.752,24.131,35.767,24.162z" clip-rule="evenodd"/><path fill="#392319" fill-rule="evenodd" d="M33.527,24.75c0.002-0.025,0.005-0.05,0.008-0.074 c0.042,0.012,0.09,0.012,0.117,0.056c-0.024,0.025-0.049,0.05-0.073,0.075C33.562,24.787,33.544,24.77,33.527,24.75z" clip-rule="evenodd"/><path fill="#59473E" fill-rule="evenodd" d="M35.812,24.271c0.021-0.002,0.042-0.003,0.062-0.004 c0.017,0.018,0.032,0.037,0.048,0.055c-0.006,0.007-0.01,0.015-0.016,0.022c-0.019-0.001-0.036-0.007-0.051-0.021 C35.822,24.322,35.818,24.295,35.812,24.271z" clip-rule="evenodd"/><path fill="#8B7E77" fill-rule="evenodd" d="M33.431,25.986c-0.001,0.021-0.002,0.043-0.004,0.064 c-0.04-0.006-0.058-0.03-0.042-0.066C33.395,25.956,33.417,25.957,33.431,25.986z" clip-rule="evenodd"/><path fill="#BEB7B2" fill-rule="evenodd" d="M31.873,24.217c0-0.019,0-0.037,0.001-0.056 c0.009-0.021,0.026-0.042,0.041-0.011S31.902,24.204,31.873,24.217z" clip-rule="evenodd"/><path fill="#67544C" fill-rule="evenodd" d="M30.368,29.65c0.042-0.086,0.076-0.05,0.107,0.009l0.003-0.007 c-0.035,0.029-0.069,0.031-0.105,0.002L30.368,29.65z" clip-rule="evenodd"/><path fill="#82746D" fill-rule="evenodd" d="M30.991,23.163c-0.002,0.022-0.005,0.046-0.007,0.068 c-0.04-0.011-0.055-0.04-0.04-0.073C30.958,23.128,30.979,23.133,30.991,23.163z" clip-rule="evenodd"/><path fill="#4F3C33" fill-rule="evenodd" d="M35.965,24.377l-0.021,0.002l-0.019-0.004 c-0.006-0.01-0.011-0.021-0.015-0.031l0.012-0.021C35.948,24.33,35.968,24.346,35.965,24.377z" clip-rule="evenodd"/><path fill="#301B11" fill-rule="evenodd" d="M35.91,24.344c0.004,0.011,0.008,0.021,0.015,0.031h-0.003 c-0.016,0.017-0.031,0.016-0.043-0.002c-0.009-0.017-0.016-0.031-0.024-0.049C35.873,24.331,35.891,24.338,35.91,24.344z" clip-rule="evenodd"/><path fill="#4F3C33" fill-rule="evenodd" d="M35.99,24.582c0.029,0.01,0.039,0.029,0.033,0.06 C35.997,24.63,35.981,24.613,35.99,24.582z" clip-rule="evenodd"/><path fill="#4F3C33" fill-rule="evenodd" d="M35.879,24.373c0.014-0.002,0.029,0,0.043,0.002 c-0.001,0.02-0.002,0.038-0.004,0.058C35.891,24.423,35.875,24.404,35.879,24.373z" clip-rule="evenodd"/><path fill="#4F3C33" fill-rule="evenodd" d="M35.938,24.478c0.029,0.009,0.04,0.028,0.035,0.059 C35.946,24.525,35.93,24.508,35.938,24.478z" clip-rule="evenodd"/><path fill="#29140D" fill-rule="evenodd" d="M33.792,25.936c-0.009,0.029-0.028,0.048-0.058,0.057 C33.736,25.955,33.754,25.936,33.792,25.936z" clip-rule="evenodd"/><path fill="#29140D" fill-rule="evenodd" d="M33.853,25.939c-0.021-0.001-0.043-0.002-0.065-0.002 c0.005-0.016,0.008-0.031,0.008-0.047c0.017-0.02,0.033-0.02,0.051,0C33.845,25.908,33.848,25.924,33.853,25.939z" clip-rule="evenodd"/><path fill="#FFF" fill-rule="evenodd" d="M33.846,25.891c-0.018,0-0.034,0-0.051,0 c0-0.014-0.001-0.029,0-0.043c0.018-0.014,0.035-0.014,0.052,0.002C33.847,25.863,33.847,25.877,33.846,25.891z" clip-rule="evenodd"/><path fill="#27130C" fill-rule="evenodd" d="M36.851,27.823c0.061-0.61,0.151-1.219,0.155-1.834 c0-0.153,0.04-0.302,0.146-0.405c0.201-0.189,0.358-0.42,0.58-0.588c0.036-0.022,0.048-0.066,0.086-0.087 c0.026-0.019,0.055-0.032,0.083-0.042c0.034-0.007,0.064-0.004,0.093,0.012c0.016,0.014,0.025,0.033,0.027,0.054 c-0.002,0.032-0.012,0.062-0.027,0.089c-0.005,0.019-0.015,0.037-0.024,0.054c-0.012,0.028-0.022,0.056-0.03,0.086 c-0.016,0.052-0.032,0.102-0.057,0.149c-0.01,0.02-0.021,0.037-0.034,0.056c-0.018,0.028-0.044,0.05-0.056,0.081 c-0.011,0.032,0.02,0.047,0.01,0.014s0.052,0.008,0.022-0.011c0.016-0.011,0.031-0.021,0.048-0.027 c0.036-0.019,0.072-0.037,0.11-0.055c0.045-0.024,0.091-0.046,0.131-0.079c0.028-0.03,0.049-0.065,0.072-0.101 c0.037-0.054,0.066-0.112,0.077-0.177c0.006-0.023,0.012-0.047,0.02-0.07c0.021-0.131,0.009-0.261,0.009-0.391 c0.004-0.115-0.017-0.236,0.07-0.334c0.046-0.072,0.104-0.149,0.154-0.012c0.089,0.248,0.109,0.508,0.062,0.77 c-0.076,0.426-0.249,0.793-0.634,1.027c-0.061,0.035-0.114,0.08-0.167,0.123c-0.116,0.094-0.163,0.208-0.15,0.363 c0.042,0.512,0.07,1.023,0.104,1.535c-0.036,0.111-0.129,0.123-0.224,0.13c-0.139,0.005-0.275,0.005-0.413,0 c-0.098-0.003-0.19-0.017-0.243-0.116l-0.002-0.002C36.822,27.964,36.822,27.894,36.851,27.823z" clip-rule="evenodd"/><path fill="#26140C" fill-rule="evenodd" d="M30.566,44.926c-0.069,0.057-0.132,0.031-0.188,0.039 c-0.129,0.021-0.205-0.031-0.262-0.152c-0.121-0.259-0.256-0.512-0.389-0.766c-0.051-0.099-0.268-0.158-0.358-0.102 c-0.052,0.031-0.046,0.088-0.046,0.141c-0.001,0.243-0.006,0.487,0.002,0.73c0.004,0.141-0.072,0.152-0.179,0.15 c-0.1-0.002-0.186,0.004-0.185-0.143c0.005-0.74,0.003-1.479,0.001-2.219c0-0.089,0.013-0.154,0.125-0.148 c0.275,0.011,0.552-0.023,0.827,0.036c0.284,0.06,0.502,0.19,0.56,0.501c0.07,0.378-0.041,0.632-0.351,0.82 c-0.029,0.018-0.058,0.035-0.107,0.064C30.202,44.232,30.385,44.58,30.566,44.926z" clip-rule="evenodd"/><path fill="#26140C" fill-rule="evenodd" d="M24.958,44.943c-0.016,0.006-0.032,0.018-0.047,0.019 c-0.344,0.007-0.283,0.023-0.379-0.257c-0.059-0.17-0.053-0.395-0.197-0.495c-0.132-0.091-0.335-0.02-0.507-0.028 c-0.034-0.002-0.069-0.001-0.104,0c-0.232,0.002-0.232,0-0.303,0.221c-0.037,0.115-0.072,0.232-0.108,0.348 c-0.072,0.221-0.072,0.221-0.343,0.199c-0.025-0.067,0.017-0.129,0.036-0.189c0.226-0.693,0.451-1.387,0.683-2.079 c0.025-0.075,0.016-0.194,0.119-0.213c0.109-0.019,0.224-0.009,0.336-0.003c0.049,0.004,0.061,0.059,0.073,0.098 c0.251,0.777,0.5,1.554,0.749,2.33C24.971,44.907,24.96,44.926,24.958,44.943z" clip-rule="evenodd"/><path fill="#2A170D" fill-rule="evenodd" d="M26.622,43.709c0-0.356-0.001-0.713,0.001-1.068 c0.002-0.184,0.005-0.184,0.164-0.186c0.167,0,0.184,0.008,0.185,0.17c0.002,0.722,0.001,1.443,0.001,2.166 c0,0.057,0.014,0.133-0.056,0.156c-0.082,0.029-0.175,0.033-0.253-0.002c-0.062-0.027-0.041-0.107-0.041-0.166 C26.622,44.422,26.622,44.065,26.622,43.709z" clip-rule="evenodd"/><path fill="#2B170D" fill-rule="evenodd" d="M37.271,29.637c0.241,0.152,0.35,0.4,0.471,0.641 c0.016,0.056-0.012,0.072-0.062,0.066c-0.29-0.129-0.583-0.104-0.875-0.008c-0.13,0.041-0.254,0.102-0.393,0.113 c-0.149,0.014-0.272-0.02-0.341-0.168c-0.045-0.074-0.01-0.134,0.032-0.191c0.141-0.168,0.315-0.136,0.493-0.092 c0.088,0.009,0.172,0.041,0.259,0.053c0.067,0.006,0.138,0.012,0.206,0.004c0.079-0.008,0.131-0.058,0.17-0.123 c0.044-0.076,0-0.156,0.014-0.232C37.247,29.676,37.255,29.654,37.271,29.637z" clip-rule="evenodd"/><path fill="#2A170D" fill-rule="evenodd" d="M35.979,30.217c-0.032-0.104-0.129-0.184-0.108-0.305 c0.104-0.127,0.28-0.098,0.404-0.184c0.058-0.029,0.126-0.021,0.187-0.047c0.04-0.002,0.081-0.002,0.119-0.02 c0.162-0.031,0.322-0.106,0.488-0.018c0.036,0.018,0.07,0.037,0.106,0.056c0.068,0.054,0.108,0.12,0.086,0.212 c-0.038,0.094-0.11,0.148-0.203,0.18c-0.064,0.008-0.129,0.003-0.193,0.004c-0.086-0.022-0.166-0.064-0.258-0.057 c-0.154-0.046-0.311-0.109-0.452,0.032C36.079,30.098,36.088,30.23,35.979,30.217z" clip-rule="evenodd"/><path fill="#321E0F" fill-rule="evenodd" d="M38.312,25.057c0.002,0.069-0.034,0.116-0.086,0.155 c-0.059-0.007-0.07,0.045-0.095,0.079c-0.04,0.061-0.113,0.06-0.167,0.096c-0.028,0.018-0.053,0.04-0.085,0.053 c-0.024-0.001-0.042-0.012-0.055-0.031c-0.012-0.036-0.006-0.067,0.019-0.096l-0.002,0.004c0.07-0.086,0.104-0.193,0.163-0.285 c0.028-0.048,0.051-0.098,0.064-0.152c0.014-0.044,0.02-0.09,0.021-0.136c0.008-0.123-0.017-0.247,0.02-0.37 c0.015-0.192,0.022-0.199,0.149-0.155c0.103,0.101,0.074,0.229,0.078,0.351c-0.008,0.116,0.017,0.235-0.021,0.35 C38.31,24.965,38.266,25.01,38.312,25.057z" clip-rule="evenodd"/><path fill="#311D0F" fill-rule="evenodd" d="M37.839,28.71c-0.349,0.077-0.698,0.098-1.049,0.009 c-0.088-0.021-0.173-0.046-0.142-0.168c0.109-0.055,0.226-0.014,0.337-0.016c0.216,0.002,0.433,0.001,0.648,0 c0.058,0.001,0.112-0.014,0.169-0.016C37.955,28.556,37.956,28.621,37.839,28.71z" clip-rule="evenodd"/><path fill="#4B3613" fill-rule="evenodd" d="M36.744,28.465c-0.062-0.144-0.062-0.145,0.062-0.131 c0.049,0.006,0.099,0.014,0.146,0.02c0.212-0.043,0.431-0.006,0.641-0.044c0.066-0.019,0.131-0.024,0.197-0.001 c0.012,0.001,0.023,0,0.033-0.005c0.073,0.04,0.047,0.093,0.017,0.146h0.002c-0.211,0.178-0.463,0.117-0.704,0.131 C37.012,28.527,36.848,28.602,36.744,28.465z" clip-rule="evenodd"/><path fill="#331F10" fill-rule="evenodd" d="M37.793,28.131c-0.002,0.035-0.003,0.069-0.005,0.104 c-0.092,0.095-0.209,0.109-0.332,0.111c-0.15-0.016-0.306,0.037-0.448-0.043l0.008-0.014c-0.052-0.039-0.12-0.01-0.171-0.041 c-0.072-0.004-0.102-0.042-0.092-0.112c0.289-0.043,0.581,0.042,0.87-0.013C37.68,28.105,37.738,28.1,37.793,28.131z" clip-rule="evenodd"/><path fill="#C3AB2F" fill-rule="evenodd" d="M37.646,28.143c-0.219,0.086-0.44,0.053-0.664,0.029 c-0.076-0.008-0.152-0.023-0.229-0.036c0.032-0.032,0.065-0.065,0.1-0.099c0.222,0.084,0.453,0.047,0.681,0.054 C37.563,28.123,37.619,28.098,37.646,28.143z" clip-rule="evenodd"/><path fill="#D4BC29" fill-rule="evenodd" d="M37.133,28.547c0.241,0.004,0.479-0.022,0.71-0.098 c0.146,0.155,0.145,0.186-0.004,0.261c0.028-0.038,0.08-0.069,0.057-0.124c-0.021-0.049-0.066-0.029-0.104-0.019 c-0.035,0.015-0.077,0.013-0.111,0.036c-0.237,0.016-0.477,0.039-0.716-0.003C36.987,28.477,37.07,28.545,37.133,28.547z" clip-rule="evenodd"/><path fill="#755F26" fill-rule="evenodd" d="M38.148,24.784c0.009,0.046,0,0.086-0.038,0.118 c-0.038,0.002-0.076,0.003-0.116-0.002c-0.034,0.002-0.066,0.006-0.101,0.009c-0.019,0.009-0.036,0.022-0.049,0.04 c-0.038,0.016-0.074,0.031-0.112,0.047c0.038-0.154-0.053-0.324,0.056-0.469c0.071,0.054,0.051,0.148,0.095,0.215 c0.028,0.008,0.051-0.001,0.072-0.021c0.062-0.075,0.003-0.206,0.119-0.255C38.188,24.552,38.086,24.688,38.148,24.784z" clip-rule="evenodd"/><path fill="#C0A930" fill-rule="evenodd" d="M37.008,28.303c0.159,0,0.317,0,0.477,0.001 c0.047,0.037,0.119-0.009,0.163,0.048c-0.231,0.067-0.461,0.078-0.694,0.002C36.972,28.337,36.989,28.319,37.008,28.303z" clip-rule="evenodd"/><path fill="#AF9831" fill-rule="evenodd" d="M37.068,29.645c-0.177,0.001-0.352,0.02-0.524,0.055 c-0.017-0.011-0.023-0.023-0.018-0.035s0.013-0.018,0.017-0.018c0.107-0.077,0.239-0.059,0.357-0.094 c0.047-0.014,0.1-0.002,0.127-0.06C37.086,29.531,37.063,29.592,37.068,29.645z" clip-rule="evenodd"/><path fill="#2C180D" fill-rule="evenodd" d="M38.059,24.475c-0.004,0.074-0.005,0.15-0.009,0.225 c-0.002,0.062-0.034,0.09-0.095,0.086c-0.126-0.115-0.036-0.241-0.018-0.363c0.018-0.071,0.04-0.128,0.117-0.049 C38.082,24.406,38.084,24.439,38.059,24.475z" clip-rule="evenodd"/><path fill="#C1AA30" fill-rule="evenodd" d="M37.133,28.547c-0.057,0.014-0.127-0.006-0.169,0.054 c-0.11,0.017-0.207-0.058-0.315-0.05c0.031-0.029,0.063-0.058,0.096-0.086C36.874,28.492,37.002,28.52,37.133,28.547z" clip-rule="evenodd"/><path fill="#B8A131" fill-rule="evenodd" d="M36.287,29.761c-0.129,0.079-0.278,0.097-0.417,0.151 c0-0.021,0-0.041,0-0.062c0.105-0.091,0.256-0.07,0.365-0.149c0.02-0.016,0.041-0.017,0.062-0.001 C36.309,29.721,36.306,29.742,36.287,29.761z" clip-rule="evenodd"/><path fill="#2E1B0E" fill-rule="evenodd" d="M37.871,24.843c-0.046-0.009-0.08-0.031-0.08-0.084 c-0.001-0.077-0.001-0.154-0.003-0.231c0.021-0.039,0.039-0.033,0.061-0.002C37.907,24.628,37.978,24.729,37.871,24.843z" clip-rule="evenodd"/><path fill="#957F2F" fill-rule="evenodd" d="M37.871,24.843c0.048-0.109-0.019-0.211-0.022-0.317 c0.051-0.016,0.053-0.074,0.089-0.104c0.006,0.121,0.012,0.242,0.018,0.363C37.938,24.82,37.909,24.838,37.871,24.843z" clip-rule="evenodd"/><path fill="#BFA830" fill-rule="evenodd" d="M38.059,24.475c-0.002-0.035-0.002-0.068-0.004-0.102 c0.018,0,0.036,0,0.054,0c0.074,0.132,0.04,0.273,0.04,0.411C38.048,24.701,38.154,24.56,38.059,24.475z" clip-rule="evenodd"/><path fill="#C8B02E" fill-rule="evenodd" d="M38.317,24.58c-0.002-0.123-0.029-0.243-0.06-0.362 c0.034,0,0.068-0.001,0.104-0.001c0,0.123,0,0.244,0.002,0.367C38.346,24.607,38.33,24.607,38.317,24.58z" clip-rule="evenodd"/><path fill="#B39D31" fill-rule="evenodd" d="M37.227,29.915c0.003-0.077-0.018-0.147-0.052-0.215 c0.012-0.003,0.022-0.001,0.034,0.005c0.021-0.029,0.042-0.029,0.064-0.002c0.04,0.089,0.084,0.178,0.002,0.268 C37.243,29.965,37.239,29.936,37.227,29.915z" clip-rule="evenodd"/><path fill="#C8B02E" fill-rule="evenodd" d="M37.647,28.352c-0.057-0.01-0.121,0.008-0.163-0.048 c0.101-0.022,0.201-0.046,0.304-0.069c0.002,0.024,0.002,0.049,0.003,0.074C37.752,28.351,37.698,28.348,37.647,28.352z" clip-rule="evenodd"/><path fill="#CBB32D" fill-rule="evenodd" d="M37.646,28.143c-0.042-0.007-0.086-0.012-0.112-0.052 c0.066-0.022,0.133-0.045,0.199-0.067c0.021,0.036,0.042,0.072,0.061,0.107C37.744,28.135,37.694,28.139,37.646,28.143z" clip-rule="evenodd"/><path fill="#D5BD29" fill-rule="evenodd" d="M35.979,30.217c0.081-0.029,0.072-0.138,0.147-0.17 c0.024,0.022,0.025,0.046,0.002,0.07c-0.019,0.055-0.038,0.109-0.057,0.164C36.027,30.277,35.991,30.266,35.979,30.217z" clip-rule="evenodd"/><path fill="#C3AB2F" fill-rule="evenodd" d="M36.851,27.823c0,0.069,0,0.141,0,0.212 C36.779,27.964,36.79,27.894,36.851,27.823z" clip-rule="evenodd"/><path fill="#89712C" fill-rule="evenodd" d="M37.68,30.344c0.022-0.022,0.044-0.045,0.062-0.066 c0.042,0.033,0.078,0.082,0.03,0.121C37.742,30.424,37.7,30.383,37.68,30.344z" clip-rule="evenodd"/><path fill="#695321" fill-rule="evenodd" d="M37.273,29.703c-0.022,0.002-0.042,0.002-0.064,0.002 c-0.006-0.031-0.026-0.074-0.014-0.09c0.025-0.031,0.06-0.018,0.076,0.021C37.273,29.66,37.273,29.682,37.273,29.703z" clip-rule="evenodd"/><path fill="#AEA396" fill-rule="evenodd" d="M31.763,29.916c-0.041-0.001-0.079-0.011-0.105-0.045 c0.005-0.035,0.039-0.038,0.058-0.057c0.034-0.008,0.057,0.008,0.07,0.039C31.779,29.875,31.771,29.896,31.763,29.916z" clip-rule="evenodd"/><path fill="#4B3613" fill-rule="evenodd" d="M36.845,28.248c0.061-0.008,0.123-0.016,0.171,0.041 C36.951,28.299,36.893,28.293,36.845,28.248z" clip-rule="evenodd"/><path fill="#C8B02E" fill-rule="evenodd" d="M37.841,28.449c0.016-0.051,0.006-0.1-0.017-0.146 C37.919,28.342,37.911,28.393,37.841,28.449z" clip-rule="evenodd"/><path fill="#2D180F" fill-rule="evenodd" d="M31.563,30.07c0.041,0.023,0.051,0.062,0.051,0.105 c-0.02-0.002-0.04-0.004-0.06-0.006l0.007,0.003C31.535,30.139,31.53,30.104,31.563,30.07z" clip-rule="evenodd"/><path fill="#2D180F" fill-rule="evenodd" d="M31.614,30.176c0.013,0,0.027,0,0.041,0 c-0.006,0.01-0.014,0.022-0.021,0.033C31.628,30.199,31.621,30.188,31.614,30.176z" clip-rule="evenodd"/><path fill="#FFF" fill-rule="evenodd" d="M2.649,34.41c0-0.426-0.001-0.854,0-1.279 c0-0.189,0.003-0.196,0.177-0.193c0.354,0.007,0.708-0.022,1.06,0.045c0.853,0.166,1.015,0.63,1.084,1.17 c0.034,0.268,0.013,0.539-0.055,0.803c-0.141,0.551-0.534,0.809-1.057,0.906c-0.358,0.068-0.722,0.053-1.085,0.056 c-0.137,0.001-0.125-0.086-0.125-0.175C2.649,35.299,2.649,34.854,2.649,34.41z" clip-rule="evenodd"/><path fill="#EED614" fill-rule="evenodd" d="M34.725,37.336c0-0.41-0.001-0.818,0-1.227 c0.001-0.195,0.005-0.203,0.203-0.198c0.439,0.009,0.88-0.036,1.318,0.056c0.834,0.175,1.067,0.723,1.056,1.436 c-0.002,0.13-0.022,0.26-0.055,0.386c-0.133,0.53-0.518,0.78-1.013,0.89c-0.46,0.103-0.93,0.062-1.394,0.068 c-0.117,0-0.116-0.076-0.116-0.158C34.725,38.17,34.725,37.752,34.725,37.336z" clip-rule="evenodd"/><path fill="#EED614" fill-rule="evenodd" d="M34.725,34.2c0-0.355-0.001-0.712,0-1.067 c0.001-0.205,0.004-0.211,0.195-0.209c0.431,0.004,0.861-0.03,1.288,0.068c0.564,0.131,0.838,0.46,0.868,1.04 c0.044,0.885-0.362,1.354-1.244,1.418c-0.308,0.022-0.62,0.009-0.93,0.019c-0.13,0.005-0.183-0.033-0.179-0.174 C34.73,34.93,34.725,34.565,34.725,34.2z" clip-rule="evenodd"/><path fill="#FFF" fill-rule="evenodd" d="M42.347,33.787c0.518,0.059,0.808,0.332,0.908,0.838 c0.056,0.277,0.048,0.553-0.019,0.823c-0.116,0.472-0.452,0.7-0.901,0.778c-0.288,0.05-0.58,0.062-0.875,0.057 c-0.111-0.001-0.151-0.035-0.147-0.148c0.012-0.441-0.019-0.884,0.016-1.325C41.629,34.43,41.963,34.085,42.347,33.787z" clip-rule="evenodd"/><path fill="#EDD515" fill-rule="evenodd" d="M42.347,33.787c-0.328,0.354-0.664,0.697-1.019,1.022 c-0.004-0.313-0.008-0.625-0.012-0.938c0-0.072,0.004-0.144,0.104-0.141C41.729,33.74,42.043,33.692,42.347,33.787z" clip-rule="evenodd"/><path fill="#FFF" fill-rule="evenodd" d="M8.454,36.203c0.001-0.444,0.039-0.887,0.165-1.314 c0.102-0.347,0.263-0.658,0.528-0.912c0.544-0.518,1.869-0.567,2.377,0.455c0.153,0.307,0.247,0.631,0.293,0.967 c0.097,0.694,0.082,1.388-0.085,2.072c-0.05,0.203-0.123,0.397-0.224,0.582c-0.313,0.569-0.804,0.814-1.438,0.788 c-0.611-0.026-1.041-0.333-1.302-0.883c-0.244-0.513-0.3-1.065-0.314-1.624C8.453,36.291,8.454,36.247,8.454,36.203z" clip-rule="evenodd"/><path fill="#BEA830" fill-rule="evenodd" d="M33.571,28.717c-0.105,0.006-0.16,0.103-0.247,0.143 c-0.016-0.013-0.031-0.012-0.046,0.002c-0.201-0.104,0.065-0.083,0.037-0.141c0.012-0.032,0.038-0.051,0.068-0.063 c0.02-0.007,0.041-0.009,0.062-0.008c0.168,0.005,0.335,0.012,0.503,0.017c0.017,0.011,0.028,0.025,0.032,0.047 c-0.003,0.02-0.014,0.036-0.029,0.049c-0.035,0.001-0.069,0.002-0.104,0.004c-0.033-0.033-0.067-0.035-0.103-0.006 c-0.019,0.001-0.037,0.002-0.056,0.002C33.657,28.73,33.608,28.736,33.571,28.717z" clip-rule="evenodd"/><path fill="#AC9531" fill-rule="evenodd" d="M35.977,27.721c0.099-0.1,0.072-0.183-0.078-0.253 c0.123-0.046,0.205,0.024,0.285-0.011c0.024-0.027,0.039-0.077,0.094-0.049c-0.077,0.127-0.085,0.324-0.304,0.309L35.977,27.721z" clip-rule="evenodd"/><path fill="#AF9831" fill-rule="evenodd" d="M33.951,28.715c-0.001-0.016-0.003-0.031-0.003-0.049 c0.073-0.027,0.14-0.084,0.227-0.014c0.023,0.02,0.092-0.018,0.14-0.029c0.015,0.014,0.021,0.026,0.017,0.041 c-0.003,0.014-0.007,0.021-0.013,0.021c-0.083,0.124-0.207,0.07-0.318,0.076C33.983,28.748,33.967,28.731,33.951,28.715z" clip-rule="evenodd"/><path fill="#DED7BA" fill-rule="evenodd" d="M34.167,27.407c0.013,0,0.027-0.001,0.041-0.001 c-0.044,0.095-0.121,0.158-0.203,0.216c-0.053-0.067-0.106-0.135-0.16-0.202c-0.014-0.014-0.018-0.027-0.013-0.039 c0.004-0.013,0.01-0.02,0.014-0.02C33.948,27.41,34.039,27.534,34.167,27.407z" clip-rule="evenodd"/><path fill="#C8C0B6" fill-rule="evenodd" d="M31.444,27.623c-0.141-0.098-0.227-0.223-0.185-0.41 c0.064,0.15,0.159,0.277,0.263,0.396C31.5,27.637,31.474,27.641,31.444,27.623z" clip-rule="evenodd"/><path fill="#97897F" fill-rule="evenodd" d="M32.295,28.034c-0.125,0.148-0.282,0.195-0.468,0.151 c0.018-0.021,0.025-0.049,0.038-0.073c0.009-0.026,0.02-0.052,0.037-0.074c0.013-0.015,0.029-0.022,0.047-0.026 c0.01,0.002,0.019,0.002,0.028,0.004c0.007,0.004,0.016,0.008,0.023,0.013c0.022,0.015,0.037,0.038,0.062,0.046l0.025,0.002 c0.055,0.02,0.087-0.026,0.127-0.045c0.017-0.014,0.037-0.02,0.058-0.02C32.281,28.02,32.289,28.027,32.295,28.034z" clip-rule="evenodd"/><path fill="#BFA830" fill-rule="evenodd" d="M35.519,28.297c-0.091,0.143-0.21,0.234-0.447,0.232 c0.149-0.129,0.312-0.152,0.382-0.289C35.504,28.228,35.526,28.244,35.519,28.297z" clip-rule="evenodd"/><path fill="#D5BD29" fill-rule="evenodd" d="M35.868,27.976c-0.1,0.041-0.082,0.136-0.099,0.214 c-0.007,0.008-0.016,0.016-0.024,0.022c-0.01-0.001-0.021-0.003-0.03-0.004c-0.017-0.015-0.034-0.028-0.049-0.044 c-0.008-0.008-0.015-0.016-0.023-0.023c-0.009-0.021-0.011-0.043-0.009-0.064c0.007-0.049,0.042-0.074,0.083-0.094 c0.025-0.01,0.046-0.024,0.052-0.055c0.004-0.031,0.021-0.052,0.052-0.061c0.012-0.003,0.028-0.004,0.04-0.004 c0.024-0.012,0.044-0.008,0.061,0.014c0,0.017,0,0.033,0,0.051C35.904,27.945,35.887,27.961,35.868,27.976z" clip-rule="evenodd"/><path fill="#6A5422" fill-rule="evenodd" d="M33.12,28.66c0.001-0.02,0.004-0.037,0.005-0.057 c0.027-0.03,0.06-0.047,0.1-0.049c0.034-0.018,0.067-0.035,0.101-0.053c0.052,0.035,0.092,0.078,0.072,0.148 c-0.028,0.047-0.09,0.021-0.121,0.061c-0.052-0.028-0.104-0.033-0.155,0.004c-0.014-0.012-0.019-0.024-0.016-0.037 C33.111,28.666,33.115,28.66,33.12,28.66z" clip-rule="evenodd"/><path fill="#96812F" fill-rule="evenodd" d="M34.626,28.187c0.093,0.088-0.002,0.234,0.1,0.319 c0.013,0.013,0.019,0.027,0.017,0.043c-0.001,0.016-0.002,0.023-0.006,0.023c-0.035,0.031-0.069,0.073-0.122,0.027 c0.035-0.094-0.05-0.17-0.033-0.26C34.62,28.295,34.576,28.227,34.626,28.187z" clip-rule="evenodd"/><path fill="#BEB4A3" fill-rule="evenodd" d="M32.908,28.729c-0.082-0.013-0.157-0.04-0.21-0.11 c-0.021-0.03-0.016-0.059,0.01-0.082c0.084,0.04,0.167,0.08,0.25,0.119C32.984,28.71,32.958,28.729,32.908,28.729z" clip-rule="evenodd"/><path fill="#AB9632" fill-rule="evenodd" d="M35.863,27.725c-0.08-0.061-0.156-0.121-0.188-0.228 c0.112,0.042,0.19,0.122,0.258,0.22C35.912,27.743,35.889,27.746,35.863,27.725z" clip-rule="evenodd"/><path fill="#988330" fill-rule="evenodd" d="M36.074,27c0.104,0.041,0.183,0.113,0.252,0.199 c-0.022,0.01-0.045,0.01-0.067,0c-0.093-0.028-0.17-0.076-0.218-0.164C36.047,27.018,36.058,27.006,36.074,27z" clip-rule="evenodd"/><path fill="#96812F" fill-rule="evenodd" d="M35.716,27.982c-0.017,0.037-0.033,0.075-0.05,0.112 c-0.008,0.005-0.016,0.011-0.023,0.015c-0.009-0.002-0.017-0.002-0.026-0.004c-0.021,0.006-0.029-0.049-0.055-0.01 c-0.001,0-0.026,0.004-0.026,0.004l-0.02-0.016c-0.006-0.057-0.035-0.122,0.049-0.148c0.014,0.014,0.029,0.014,0.043-0.001 C35.644,27.951,35.681,27.967,35.716,27.982z" clip-rule="evenodd"/><path fill="#9D8730" fill-rule="evenodd" d="M36.277,27.408c-0.031,0.017-0.062,0.033-0.094,0.049 c0.032-0.101-0.076-0.121-0.108-0.188c-0.022-0.021-0.022-0.045,0-0.066C36.17,27.244,36.244,27.307,36.277,27.408z" clip-rule="evenodd"/><path fill="#614F44" fill-rule="evenodd" d="M32.437,27.867c0.022,0.023,0.044,0.046,0.066,0.068 c0.011,0.013,0.014,0.023,0.008,0.033c-0.004,0.01-0.009,0.016-0.014,0.016l0.002-0.006c-0.02,0.018-0.04,0.037-0.055,0.058 l0.003-0.005c-0.02,0.02-0.029,0.046-0.048,0.066c-0.017,0.01-0.034,0.008-0.049-0.002c-0.019-0.021-0.036-0.041-0.055-0.062 l-0.024-0.005c-0.001-0.012-0.002-0.024-0.003-0.037c0.007-0.01,0.014-0.02,0.021-0.03C32.333,27.922,32.363,27.86,32.437,27.867z" clip-rule="evenodd"/><path fill="#BDB4AA" fill-rule="evenodd" d="M32.378,28.188c0.007,0.033,0.013,0.066,0.02,0.1 c0.01,0.054-0.006,0.081-0.066,0.065c-0.092-0.075-0.062-0.144,0.011-0.21C32.365,28.148,32.376,28.164,32.378,28.188z" clip-rule="evenodd"/><path fill="#5F491C" fill-rule="evenodd" d="M35.515,28.084c0.014-0.002,0.029-0.003,0.043-0.002 c0.02,0.007,0.026,0.02,0.022,0.039c-0.006,0.016-0.013,0.029-0.023,0.042l0.002,0.023c-0.003,0.041-0.004,0.081-0.04,0.11 c-0.013-0.029-0.03-0.053-0.064-0.057c-0.017-0.031-0.035-0.062-0.052-0.092c0-0.01,0.001-0.02,0.001-0.029 c0.018-0.009,0.034-0.02,0.049-0.033C35.474,28.086,35.494,28.085,35.515,28.084z" clip-rule="evenodd"/><path fill="#B59E31" fill-rule="evenodd" d="M34.36,28.559c-0.024-0.004-0.049-0.009-0.073-0.014 c-0.034-0.008-0.066-0.021-0.053-0.062c0.006-0.017,0.038-0.033,0.059-0.035c0.049-0.003,0.098,0.008,0.134,0.047 c-0.005,0.023-0.017,0.041-0.035,0.057C34.381,28.553,34.371,28.557,34.36,28.559z" clip-rule="evenodd"/><path fill="#A79131" fill-rule="evenodd" d="M32.908,28.729c0.017-0.024,0.034-0.048,0.05-0.073 c0.054,0.002,0.108,0.002,0.162,0.004c0.001,0.018,0.001,0.035,0.002,0.055C33.055,28.786,32.984,28.779,32.908,28.729z" clip-rule="evenodd"/><path fill="#BDB4AA" fill-rule="evenodd" d="M31.927,27.931c0.027-0.021,0.053-0.042,0.081-0.059 c0.035-0.021,0.076-0.058,0.11-0.011c0.036,0.049,0.021,0.096-0.036,0.123c-0.019,0-0.037-0.001-0.056-0.004 c-0.028-0.005-0.055-0.014-0.08-0.028C31.94,27.944,31.934,27.938,31.927,27.931z" clip-rule="evenodd"/><path fill="#D5BD29" fill-rule="evenodd" d="M34.615,28.6c0.05,0.006,0.081-0.037,0.12-0.054 c0.043,0.001,0.065,0.019,0.055,0.064c-0.082,0.067-0.17,0.085-0.267,0.036c-0.002-0.01-0.002-0.02-0.004-0.03 C34.552,28.61,34.584,28.604,34.615,28.6z" clip-rule="evenodd"/><path fill="#B5ACA2" fill-rule="evenodd" d="M31.809,27.944c-0.045-0.028-0.034-0.075-0.04-0.117 c-0.018-0.013-0.023-0.024-0.017-0.036c0.006-0.013,0.012-0.019,0.018-0.019c0.029-0.02,0.057-0.038,0.085-0.057 c0.02-0.013,0.041-0.012,0.061,0.001c-0.017,0.054-0.031,0.107-0.048,0.162C31.854,27.906,31.849,27.94,31.809,27.944z" clip-rule="evenodd"/><path fill="#BCA530" fill-rule="evenodd" d="M34.785,28.344c-0.004-0.062-0.048-0.121-0.023-0.203 c0.099,0.055,0.066,0.139,0.081,0.204C34.824,28.362,34.805,28.362,34.785,28.344z" clip-rule="evenodd"/><path fill="#9A8E83" fill-rule="evenodd" d="M32.332,28.353c0.033-0.011,0.058-0.03,0.066-0.065 c0.032,0.002,0.064,0.004,0.098,0.006c0.015-0.025,0.032-0.024,0.049-0.001C32.493,28.38,32.436,28.451,32.332,28.353z" clip-rule="evenodd"/><path fill="#5A441A" fill-rule="evenodd" d="M34.79,28.61c-0.018-0.021-0.036-0.043-0.055-0.064 c-0.003-0.013-0.006-0.026-0.009-0.04c0.046-0.022,0.051-0.065,0.057-0.109c0.129-0.013,0.039,0.117,0.096,0.151 C34.87,28.598,34.831,28.606,34.79,28.61z" clip-rule="evenodd"/><path fill="#BCA530" fill-rule="evenodd" d="M34.52,28.616c0.004,0.01,0.006,0.021,0.004,0.03 c-0.084-0.074-0.14,0.005-0.205,0.039c-0.001-0.021-0.003-0.041-0.004-0.062c0.015-0.021,0.03-0.043,0.045-0.064 c0.008-0.004,0.016-0.01,0.023-0.016c0.046-0.016,0.093-0.022,0.136,0.012C34.52,28.575,34.52,28.596,34.52,28.616z" clip-rule="evenodd"/><path fill="#A08B31" fill-rule="evenodd" d="M34.879,28.548c-0.065-0.029-0.037-0.118-0.096-0.151 c0-0.018,0.002-0.034,0.002-0.053c0.02,0.001,0.039,0.001,0.058,0.001C34.905,28.404,34.888,28.477,34.879,28.548z" clip-rule="evenodd"/><path fill="#D9D2C8" fill-rule="evenodd" d="M32.437,27.867c-0.05,0.039-0.1,0.077-0.149,0.115 c-0.014-0.012-0.019-0.023-0.016-0.037c0.004-0.013,0.007-0.02,0.011-0.02C32.333,27.902,32.336,27.752,32.437,27.867z" clip-rule="evenodd"/><path fill="#C2BBB0" fill-rule="evenodd" d="M31.77,27.772c0,0.019-0.001,0.036-0.001,0.055 c-0.077,0.009-0.123-0.026-0.145-0.099c0.019-0.038,0.025-0.096,0.091-0.056C31.733,27.705,31.751,27.739,31.77,27.772z" clip-rule="evenodd"/><path fill="#6A5422" fill-rule="evenodd" d="M35.616,27.766c-0.051-0.027-0.082-0.067-0.032-0.113 c0.012-0.012,0.109-0.025,0.081,0.066C35.648,27.734,35.632,27.749,35.616,27.766z" clip-rule="evenodd"/><path fill="#CDC6BB" fill-rule="evenodd" d="M31.885,28.124c-0.01,0.028-0.025,0.052-0.057,0.062 c-0.044-0.068-0.002-0.138,0.001-0.207c0.02-0.029,0.049-0.025,0.078-0.018c0.017,0.014,0.023,0.029,0.019,0.051 c-0.007,0.01-0.008,0.021-0.004,0.032C31.896,28.064,31.899,28.099,31.885,28.124z" clip-rule="evenodd"/><path fill="#99822F" fill-rule="evenodd" d="M33.225,28.555c-0.023,0.036-0.057,0.051-0.1,0.049 c-0.004-0.034-0.009-0.075,0.024-0.092C33.185,28.493,33.212,28.516,33.225,28.555z" clip-rule="evenodd"/><path fill="#C3AC2F" fill-rule="evenodd" d="M33.378,28.659c0.018-0.064-0.042-0.103-0.052-0.157 c0.122-0.018,0.109,0.074,0.119,0.147c-0.008,0.005-0.018,0.012-0.026,0.017C33.402,28.682,33.389,28.678,33.378,28.659z" clip-rule="evenodd"/><path fill="#907A2E" fill-rule="evenodd" d="M35.769,28.243c-0.015,0.05-0.054,0.062-0.094,0.046 c-0.057-0.022-0.011-0.066-0.009-0.102c0.006-0.006,0.013-0.012,0.021-0.018c0.008,0.006,0.014,0.012,0.021,0.018 c0.01-0.004,0.019-0.003,0.028,0.002C35.741,28.211,35.752,28.229,35.769,28.243z" clip-rule="evenodd"/><path fill="#D4BC29" fill-rule="evenodd" d="M34.626,28.187c-0.006,0.054,0.003,0.111-0.044,0.153 c-0.006-0.033-0.017-0.066-0.018-0.1C34.561,28.201,34.561,28.15,34.626,28.187z" clip-rule="evenodd"/><path fill="#C5BEB3" fill-rule="evenodd" d="M31.802,27.464c-0.006,0.026-0.023,0.048-0.05,0.037 c-0.018-0.009-0.035-0.034-0.037-0.054c-0.004-0.024,0.011-0.049,0.044-0.035C31.783,27.421,31.805,27.433,31.802,27.464z" clip-rule="evenodd"/><path fill="#887A70" fill-rule="evenodd" d="M32.029,27.929c0.03,0.007,0.05,0.023,0.052,0.056 c0.003,0.031,0.004,0.061,0.006,0.092l-0.014,0.018c-0.054,0.012-0.071-0.031-0.096-0.062l0.002,0.002 c-0.017-0.014-0.024-0.029-0.02-0.051C31.978,27.957,32.009,27.95,32.029,27.929z" clip-rule="evenodd"/><path fill="#BCB3A9" fill-rule="evenodd" d="M31.562,27.562c0.001-0.018,0.002-0.035,0.002-0.054 c0.021-0.028,0.041-0.028,0.063-0.002c0.045,0.024,0.037,0.066,0.034,0.106c-0.012,0.018-0.028,0.023-0.048,0.018 C31.589,27.613,31.583,27.582,31.562,27.562z" clip-rule="evenodd"/><path fill="#5C493F" fill-rule="evenodd" d="M31.614,27.613c0.016,0,0.032,0,0.048,0 c0.028,0.011,0.048,0.028,0.053,0.06c-0.031,0.019-0.061,0.037-0.091,0.056c-0.003-0.02-0.007-0.039-0.01-0.06 c-0.016-0.013-0.021-0.024-0.016-0.037S31.609,27.613,31.614,27.613z" clip-rule="evenodd"/><path fill="#88722C" fill-rule="evenodd" d="M35.863,27.725c0.023-0.003,0.047-0.006,0.07-0.008 c0.015-0.002,0.031,0,0.044,0.004l-0.003-0.004c0.001,0.045,0,0.088-0.052,0.105l0.003,0.002 C35.904,27.791,35.883,27.758,35.863,27.725z" clip-rule="evenodd"/><path fill="#A09489" fill-rule="evenodd" d="M32.498,27.984c0.002-0.017,0.004-0.032,0.006-0.049 c0.038-0.007,0.103-0.033,0.103,0.016C32.607,28.021,32.542,27.996,32.498,27.984z" clip-rule="evenodd"/><path fill="#E4CB1F" fill-rule="evenodd" d="M34.52,28.555c-0.045-0.004-0.091-0.008-0.136-0.012 c0.014-0.016,0.028-0.031,0.043-0.049C34.466,28.5,34.525,28.476,34.52,28.555z" clip-rule="evenodd"/><path fill="#DBD5CB" fill-rule="evenodd" d="M31.93,27.978c-0.034,0.001-0.067,0.001-0.101,0.001 c-0.014-0.006-0.021-0.018-0.02-0.034c0.02-0.022,0.04-0.044,0.059-0.065c0.02,0.017,0.04,0.033,0.06,0.052l-0.006-0.003 c0.01,0.007,0.019,0.014,0.027,0.021C31.943,27.959,31.936,27.969,31.93,27.978z" clip-rule="evenodd"/><path fill="#937D2F" fill-rule="evenodd" d="M35.82,27.867c-0.018,0.02-0.035,0.041-0.052,0.061 c-0.015-0.02-0.028-0.038-0.043-0.059c0.011-0.014,0.025-0.025,0.038-0.038C35.781,27.844,35.8,27.854,35.82,27.867z" clip-rule="evenodd"/><path fill="#E8CF1C" fill-rule="evenodd" d="M33.378,28.659c0.014,0.003,0.027,0.005,0.041,0.007 c-0.02,0.049-0.067,0.041-0.104,0.055c-0.014,0-0.026-0.002-0.038-0.01C33.289,28.651,33.337,28.663,33.378,28.659z" clip-rule="evenodd"/><path fill="#7D6729" fill-rule="evenodd" d="M35.557,28.141c0-0.02,0.001-0.039,0.001-0.059v0.003 c0.011-0.015,0.026-0.017,0.042-0.006c0.008,0.004,0.016,0.008,0.025,0.013c0.007,0.018,0.02,0.027,0.04,0.025 c0.003,0.01,0.003,0.02-0.002,0.029c0.011,0.01,0.015,0.02,0.011,0.03c-0.004,0.01-0.008,0.015-0.013,0.015l0.004-0.004 c-0.036,0-0.07,0-0.106-0.001l0.002,0.003c-0.011-0.01-0.016-0.02-0.014-0.031C35.55,28.146,35.553,28.141,35.557,28.141z" clip-rule="evenodd"/><path fill="#C5BCB2" fill-rule="evenodd" d="M32.378,28.188c-0.012-0.016-0.023-0.031-0.035-0.045 c-0.001-0.018,0.001-0.033,0.007-0.047c0.02-0.003,0.039-0.006,0.058-0.008l0.024-0.004C32.415,28.119,32.396,28.152,32.378,28.188z" clip-rule="evenodd"/><path fill="#CAC2B8" fill-rule="evenodd" d="M32.545,28.292l-0.025-0.001l-0.024,0.002 c0.003-0.04,0.003-0.098,0.061-0.078C32.596,28.228,32.558,28.266,32.545,28.292z" clip-rule="evenodd"/><path fill="#CAB42D" fill-rule="evenodd" d="M36.075,27.203c0,0.021,0,0.045,0,0.066 c-0.036-0.02-0.078-0.033-0.098-0.074c0.02-0.018,0.041-0.019,0.062-0.002C36.055,27.188,36.067,27.189,36.075,27.203z" clip-rule="evenodd"/><path fill="#EBD318" fill-rule="evenodd" d="M36.039,27.193c-0.019,0.001-0.042,0.002-0.062,0.002 c-0.028-0.014-0.043-0.035-0.01-0.05C36.007,27.128,36.03,27.154,36.039,27.193z" clip-rule="evenodd"/><path fill="#927B2E" fill-rule="evenodd" d="M35.402,28.148c-0.027-0.016-0.052-0.037-0.042-0.071 c0.008-0.028,0.026-0.03,0.045-0.005c0.012,0.012,0.017,0.023,0.014,0.035c-0.005,0.012-0.01,0.018-0.014,0.018L35.402,28.148z" clip-rule="evenodd"/><path fill="#918378" fill-rule="evenodd" d="M33.01,28.46c-0.01,0.009-0.021,0.026-0.029,0.025 c-0.019-0.003-0.025-0.021-0.017-0.04c0.004-0.008,0.012-0.014,0.018-0.02C32.991,28.438,33,28.449,33.01,28.46z" clip-rule="evenodd"/><path fill="#947D2E" fill-rule="evenodd" d="M33.586,28.443c-0.005-0.01-0.011-0.02-0.017-0.029 c0.013-0.002,0.027-0.006,0.04-0.006c0.004,0,0.009,0.011,0.014,0.016C33.611,28.43,33.599,28.438,33.586,28.443z" clip-rule="evenodd"/><path fill="#ACA197" fill-rule="evenodd" d="M32.414,28.473c-0.011,0.008-0.021,0.021-0.033,0.022 c-0.007,0.001-0.017-0.016-0.024-0.024c0-0.002,0.011-0.018,0.016-0.016C32.385,28.459,32.4,28.467,32.414,28.473z" clip-rule="evenodd"/><path fill="#B1A69B" fill-rule="evenodd" d="M32.708,28.537c-0.003,0.027-0.006,0.055-0.01,0.082 c-0.035-0.016-0.055-0.045-0.041-0.082C32.668,28.504,32.691,28.51,32.708,28.537z" clip-rule="evenodd"/><path fill="#D4BC29" fill-rule="evenodd" d="M33.745,28.76c0.037-0.051,0.071-0.049,0.103,0.006 C33.812,28.764,33.778,28.762,33.745,28.76z" clip-rule="evenodd"/><path fill="#B0A59A" fill-rule="evenodd" d="M31.444,27.623c0.026-0.005,0.053-0.01,0.079-0.014 c0.012-0.006,0.023-0.01,0.036-0.012c0.016,0.014,0.021,0.027,0.016,0.041c-0.005,0.014-0.01,0.021-0.015,0.021 C31.513,27.672,31.472,27.67,31.444,27.623z" clip-rule="evenodd"/><path fill="#88796E" fill-rule="evenodd" d="M31.559,27.659c0-0.021,0-0.041,0-0.062 c-0.008-0.014-0.007-0.025,0.004-0.035c0.017,0.017,0.035,0.033,0.052,0.051c0,0.019,0,0.037,0,0.056 C31.596,27.666,31.577,27.662,31.559,27.659z" clip-rule="evenodd"/><path fill="#D4BC29" fill-rule="evenodd" d="M33.571,28.717c0.046-0.002,0.092-0.002,0.118,0.045 C33.639,28.775,33.597,28.766,33.571,28.717z" clip-rule="evenodd"/><path fill="#E7E2D8" fill-rule="evenodd" d="M31.628,27.507c-0.021,0.001-0.042,0.001-0.063,0.002 c-0.012-0.034-0.003-0.08,0.025-0.081C31.62,27.426,31.625,27.475,31.628,27.507z" clip-rule="evenodd"/><path fill="#957F2F" fill-rule="evenodd" d="M35.28,28.211c-0.01,0.008-0.017,0.023-0.026,0.021 c-0.01,0-0.02-0.014-0.029-0.021c0.005-0.006,0.012-0.016,0.016-0.016C35.254,28.198,35.267,28.205,35.28,28.211z" clip-rule="evenodd"/><path fill="#CDB52D" fill-rule="evenodd" d="M35.405,28.125c0-0.018,0-0.035,0-0.053 c0.016,0.002,0.032,0.007,0.047,0.014C35.449,28.113,35.437,28.131,35.405,28.125z" clip-rule="evenodd"/><path fill="#E8CF1C" fill-rule="evenodd" d="M35.769,28.243c-0.027-0.009-0.046-0.021-0.033-0.054 c0.012,0.002,0.023,0.002,0.034,0C35.77,28.207,35.769,28.226,35.769,28.243z" clip-rule="evenodd"/><path fill="#C7B02E" fill-rule="evenodd" d="M35.762,27.831c-0.012,0.013-0.025,0.026-0.038,0.038 C35.716,27.836,35.726,27.82,35.762,27.831z" clip-rule="evenodd"/><path fill="#A48E31" fill-rule="evenodd" d="M35.616,27.766c0.017-0.016,0.033-0.031,0.049-0.047 C35.662,27.748,35.65,27.769,35.616,27.766z" clip-rule="evenodd"/><path fill="#D5CEC3" fill-rule="evenodd" d="M31.916,27.717c-0.02,0-0.041,0-0.061-0.001 c0.013-0.019,0.028-0.052,0.041-0.052C31.919,27.666,31.925,27.692,31.916,27.717z" clip-rule="evenodd"/><path fill="#DDC524" fill-rule="evenodd" d="M33.278,28.861c0.014-0.024,0.029-0.026,0.046-0.002l-0.022,0.01 L33.278,28.861z" clip-rule="evenodd"/><path fill="#D4BC29" fill-rule="evenodd" d="M33.951,28.715c0.026,0.006,0.044,0.021,0.05,0.047 c-0.017,0-0.034,0-0.05,0C33.95,28.746,33.95,28.73,33.951,28.715z" clip-rule="evenodd"/><path fill="#937D2F" fill-rule="evenodd" d="M35.92,27.877c-0.02-0.005-0.04-0.01-0.06-0.014 c0.021-0.014,0.043-0.025,0.063-0.039l-0.003-0.002C35.92,27.84,35.92,27.858,35.92,27.877z" clip-rule="evenodd"/><path fill="#614F44" fill-rule="evenodd" d="M32.283,27.926c0.001,0.019,0.002,0.037,0.004,0.057l0.004-0.004 c-0.018,0.019-0.036,0.021-0.054,0.002C32.239,27.951,32.254,27.933,32.283,27.926z" clip-rule="evenodd"/><path fill="#F7F8F7" fill-rule="evenodd" d="M33.845,27.361c0,0.02,0,0.039-0.001,0.059 c-0.017,0-0.032-0.003-0.047-0.008c-0.001-0.017-0.001-0.033-0.001-0.049C33.812,27.363,33.829,27.362,33.845,27.361z" clip-rule="evenodd"/><path fill="#B39C31" fill-rule="evenodd" d="M36.259,27.199c0.022,0,0.045,0,0.067,0 c0.007,0.02,0.002,0.037-0.013,0.033C36.293,27.227,36.276,27.211,36.259,27.199z" clip-rule="evenodd"/><path fill="#A99331" fill-rule="evenodd" d="M36.074,27c-0.007,0.016-0.019,0.027-0.033,0.035 C36.032,27.004,36.041,26.99,36.074,27z" clip-rule="evenodd"/><path fill="#CAB42D" fill-rule="evenodd" d="M35.607,27.935c-0.014,0.028-0.029,0.03-0.043,0.001 C35.578,27.928,35.592,27.928,35.607,27.935z" clip-rule="evenodd"/><path fill="#937D2F" fill-rule="evenodd" d="M35.868,27.976c0.018-0.017,0.036-0.032,0.052-0.048 C35.917,27.957,35.898,27.973,35.868,27.976z" clip-rule="evenodd"/><path fill="#C8C0B6" fill-rule="evenodd" d="M32.238,27.98c0.018,0,0.035-0.002,0.054-0.002 c-0.007,0.018-0.014,0.035-0.021,0.051c-0.018,0-0.036,0.002-0.055,0.002C32.223,28.014,32.23,27.997,32.238,27.98z" clip-rule="evenodd"/><path fill="#B2A89D" fill-rule="evenodd" d="M32.445,28.036c0.006-0.031,0.027-0.048,0.055-0.058 C32.503,28.02,32.484,28.038,32.445,28.036z" clip-rule="evenodd"/><path fill="#C7BFB5" fill-rule="evenodd" d="M32.433,28.084l-0.024,0.004c-0.009-0.034,0.009-0.049,0.04-0.057 C32.443,28.049,32.438,28.066,32.433,28.084z" clip-rule="evenodd"/><path fill="#FFF" fill-rule="evenodd" d="M21.066,36.656c0.281-0.883,0.584-1.736,0.851-2.656 c0.297,0.92,0.576,1.781,0.859,2.656C22.201,36.656,21.645,36.656,21.066,36.656z" clip-rule="evenodd"/><path fill="#B1A8A3" fill-rule="evenodd" d="M35.621,23.842c-0.018,0.018-0.036,0.034-0.055,0.051 c-0.039-0.016-0.081-0.027-0.117-0.049c-0.026-0.016-0.044-0.045-0.091-0.098C35.479,23.764,35.556,23.782,35.621,23.842z" clip-rule="evenodd"/><path fill="#706058" fill-rule="evenodd" d="M35.927,23.529c-0.025,0.012-0.054,0.023-0.054,0.06 c-0.048-0.005-0.099-0.047-0.079-0.077C35.829,23.461,35.885,23.492,35.927,23.529z" clip-rule="evenodd"/><path fill="#69574E" fill-rule="evenodd" d="M31.763,23.585c-0.016-0.021-0.032-0.039-0.048-0.059 c0.04-0.04,0.097-0.065,0.128-0.015C31.862,23.543,31.809,23.578,31.763,23.585z" clip-rule="evenodd"/><path fill="#29140D" fill-rule="evenodd" d="M33.898,24.534c-0.018,0-0.035,0-0.052,0 c-0.015,0.015-0.032,0.022-0.053,0.022c-0.022,0-0.039-0.01-0.051-0.027C33.795,24.463,33.847,24.461,33.898,24.534z" clip-rule="evenodd"/><path fill="#A59A96" fill-rule="evenodd" d="M32.653,23.958c0.006-0.013,0.014-0.026,0.021-0.039 c0.007,0.009,0.023,0.024,0.022,0.026c-0.014,0.018-0.031,0.033-0.047,0.049c-0.013-0.01-0.017-0.018-0.01-0.025 C32.643,23.961,32.647,23.958,32.653,23.958z" clip-rule="evenodd"/><path fill="#74645D" fill-rule="evenodd" d="M34.988,24.008c-0.034-0.008-0.057-0.029-0.044-0.062 c0.013-0.031,0.032-0.014,0.044,0.008c0.013,0.012,0.017,0.024,0.013,0.037C34.998,24.002,34.993,24.008,34.988,24.008z" clip-rule="evenodd"/><path fill="#C6C0BD" fill-rule="evenodd" d="M33.742,24.529c0.018,0.002,0.035,0.002,0.053,0.003 c0.015,0.013,0.02,0.026,0.016,0.04c-0.005,0.014-0.01,0.02-0.015,0.02c-0.002,0.032-0.025,0.043-0.051,0.051 c-0.003-0.023-0.004-0.047-0.008-0.071C33.738,24.558,33.74,24.543,33.742,24.529z" clip-rule="evenodd"/><path fill="#29140D" fill-rule="evenodd" d="M33.951,24.582c-0.032-0.002-0.048-0.021-0.055-0.05 C33.915,24.549,33.932,24.564,33.951,24.582z" clip-rule="evenodd"/><path fill="#C1B9B5" fill-rule="evenodd" d="M32.653,23.958c-0.005,0.011-0.006,0.023-0.003,0.036 c-0.015,0.009-0.031,0.019-0.046,0.027c0.002-0.018,0.002-0.034,0-0.051C32.619,23.967,32.636,23.962,32.653,23.958z" clip-rule="evenodd"/><path fill="#B8AFAB" fill-rule="evenodd" d="M34.988,24.008c0-0.018,0-0.037,0-0.055 c0.029,0.002,0.053,0.014,0.059,0.045c-0.004,0.01-0.011,0.018-0.021,0.023C35.011,24.023,35,24.02,34.988,24.008z" clip-rule="evenodd"/><path fill="#4A3513" fill-rule="evenodd" d="M34.888,29.6c0.036,0,0.072-0.001,0.108-0.001 c0.03-0.027,0.062-0.024,0.098-0.011c0.044,0.021-0.012,0.135,0.092,0.104c0.022,0.023,0.047,0.047,0.071,0.071 c0.013,0.011,0.016,0.022,0.011,0.032c-0.006,0.008-0.012,0.014-0.016,0.014c-0.031,0.018-0.062,0.037-0.092,0.057 c-0.036-0.012-0.052,0.008-0.057,0.041c-0.044,0.003-0.087,0.007-0.131,0.01c-0.034,0.026-0.066,0.024-0.098-0.004 C34.885,29.809,34.812,29.7,34.888,29.6z" clip-rule="evenodd"/><path fill="#B29B31" fill-rule="evenodd" d="M32.81,29.909c-0.107,0.013-0.205,0.01-0.217-0.135 c-0.024-0.043-0.028-0.085,0.006-0.126c0.005-0.068,0.01-0.137,0.086-0.168c0.026,0.033,0.022,0.066,0.018,0.1 c-0.022,0.201-0.022,0.201,0.166,0.273C32.863,29.887,32.83,29.891,32.81,29.909z" clip-rule="evenodd"/><path fill="#A89131" fill-rule="evenodd" d="M33.016,29.861c0.023-0.022,0.046-0.064,0.07-0.064 c0.141,0.003,0.141,0.006,0.18-0.106c0.035,0.009,0.038,0.041,0.053,0.064c-0.076,0.231-0.081,0.235-0.295,0.165 c-0.018-0.01-0.025-0.022-0.021-0.037C33.006,29.869,33.01,29.861,33.016,29.861z" clip-rule="evenodd"/><path fill="#A89131" fill-rule="evenodd" d="M33.473,29.545c0.001,0.15,0.051,0.275-0.079,0.408 C33.395,29.8,33.344,29.676,33.473,29.545z" clip-rule="evenodd"/><path fill="#9B8530" fill-rule="evenodd" d="M32.135,29.755c-0.081-0.011-0.146,0.103-0.245,0.019 c0.109-0.082,0.242-0.116,0.341-0.207c0.015-0.014,0.045,0.01,0.054,0.037c-0.019,0.021-0.025,0.049-0.04,0.072 c-0.01,0.016-0.022,0.029-0.036,0.041c-0.009,0.004-0.018,0.008-0.025,0.013C32.165,29.733,32.149,29.742,32.135,29.755z" clip-rule="evenodd"/><path fill="#947E2F" fill-rule="evenodd" d="M33.847,29.811c0.015-0.08-0.022-0.167,0.034-0.262 c0.107,0.096,0.093,0.22,0.06,0.305c-0.03,0.08-0.055-0.045-0.097-0.045L33.847,29.811z" clip-rule="evenodd"/><path fill="#AE9731" fill-rule="evenodd" d="M32.599,29.648c-0.002,0.041-0.004,0.084-0.006,0.126 c-0.01-0.006-0.021-0.009-0.033-0.013c-0.027,0.02-0.052,0.016-0.074-0.01c0.05-0.116-0.126-0.155-0.088-0.279 C32.523,29.465,32.489,29.648,32.599,29.648z" clip-rule="evenodd"/><path fill="#A48E31" fill-rule="evenodd" d="M34.888,29.6c-0.024,0.104,0.089,0.212-0.009,0.314 c-0.022,0.016-0.042,0.016-0.063-0.004c-0.009-0.023-0.005-0.045,0.014-0.064c-0.081-0.101,0.022-0.198,0.005-0.298l-0.004,0.003 C34.85,29.566,34.869,29.582,34.888,29.6z" clip-rule="evenodd"/><path fill="#CEB62C" fill-rule="evenodd" d="M34.83,29.846c-0.001,0.021-0.001,0.041-0.003,0.061 c-0.018,0.05-0.073,0.025-0.102,0.053c-0.093,0.015-0.186,0.029-0.337-0.027C34.571,29.896,34.701,29.871,34.83,29.846z" clip-rule="evenodd"/><path fill="#B19A31" fill-rule="evenodd" d="M35.351,29.552c0.049,0.003,0.099,0.005,0.17,0.01 c-0.064,0.094-0.118,0.171-0.169,0.247c-0.028-0.021-0.029-0.045-0.005-0.07c0-0.039,0-0.078,0-0.118 C35.333,29.596,35.333,29.573,35.351,29.552z" clip-rule="evenodd"/><path fill="#BCA530" fill-rule="evenodd" d="M33.795,29.809c0.017,0.002,0.035,0.002,0.052,0.002l-0.002-0.002 c-0.023,0.102,0.024,0.245-0.178,0.275c0.022-0.105,0.176-0.12,0.129-0.23c-0.015-0.009-0.021-0.019-0.016-0.029 C33.785,29.814,33.79,29.809,33.795,29.809z" clip-rule="evenodd"/><path fill="#7D6729" fill-rule="evenodd" d="M34.725,29.959c0.024-0.037,0.062-0.046,0.102-0.053 c0.017,0.002,0.034,0.006,0.052,0.008c0.031,0,0.062,0.002,0.092,0.002c0.011,0.084-0.029,0.113-0.104,0.096 C34.817,30,34.772,29.977,34.725,29.959z" clip-rule="evenodd"/><path fill="#D2BA2A" fill-rule="evenodd" d="M35.186,29.691c-0.023,0.015-0.043,0.03-0.064,0.043 c-0.031,0.016-0.066,0.029-0.091-0.006c-0.004-0.006,0.026-0.036,0.038-0.057c0.009-0.023,0.016-0.048,0.024-0.072 c-0.017-0.007-0.022-0.016-0.018-0.023c0.007-0.01,0.011-0.014,0.016-0.014C35.155,29.582,35.157,29.646,35.186,29.691z" clip-rule="evenodd"/><path fill="#AF9931" fill-rule="evenodd" d="M32.487,29.752c0.024,0.004,0.049,0.007,0.074,0.01 c-0.016,0.027-0.025,0.062-0.049,0.082c-0.041,0.036-0.119,0.036-0.131,0.002C32.351,29.762,32.436,29.769,32.487,29.752z" clip-rule="evenodd"/><path fill="#B0A7A2" fill-rule="evenodd" d="M31.568,29.848c-0.077-0.021-0.162-0.021-0.224-0.08 c0.003-0.035,0.034-0.037,0.057-0.049c0.076,0.022,0.162,0.02,0.224,0.08C31.623,29.834,31.592,29.836,31.568,29.848z" clip-rule="evenodd"/><path fill="#DAD6D3" fill-rule="evenodd" d="M31.401,29.719c-0.019,0.016-0.039,0.031-0.057,0.049 c-0.072-0.002-0.14-0.018-0.197-0.062c-0.017-0.011-0.022-0.021-0.017-0.031c0.006-0.012,0.011-0.016,0.017-0.016 C31.238,29.649,31.314,29.706,31.401,29.719z" clip-rule="evenodd"/><path fill="#D4BB2A" fill-rule="evenodd" d="M34.176,29.874c-0.032,0.067-0.075,0.093-0.137,0.052 c-0.049-0.033-0.012-0.072,0.066-0.069C34.128,29.857,34.15,29.867,34.176,29.874z" clip-rule="evenodd"/><path fill="#D3BB2A" fill-rule="evenodd" d="M32.23,29.66c0.018-0.02,0.037-0.037,0.054-0.057 c0.015,0.087,0.035,0.178-0.103,0.17c-0.012-0.01-0.016-0.021-0.01-0.029c0.004-0.009,0.008-0.014,0.013-0.014 c0.005-0.01,0.005-0.019,0.002-0.028C32.201,29.688,32.216,29.675,32.23,29.66z" clip-rule="evenodd"/><path fill="#E5CC1E" fill-rule="evenodd" d="M33.016,29.861c0.002,0.02,0.004,0.039,0.007,0.059l-0.001,0.001 C33,29.932,32.979,29.93,32.96,29.918c-0.05-0.004-0.1-0.006-0.15-0.009c0.02-0.019,0.04-0.037,0.059-0.056 c0.012,0,0.022-0.001,0.034,0c0.023-0.01,0.046-0.01,0.069,0.001C32.987,29.854,33.002,29.856,33.016,29.861z" clip-rule="evenodd"/><path fill="#C5BFBB" fill-rule="evenodd" d="M31.096,29.701c-0.059,0.012-0.111-0.006-0.155-0.045 c-0.017-0.012-0.023-0.023-0.018-0.035c0.004-0.012,0.01-0.018,0.016-0.018c0.061-0.013,0.111,0.005,0.156,0.046 c0.013,0.011,0.019,0.022,0.014,0.034C31.105,29.695,31.101,29.701,31.096,29.701z" clip-rule="evenodd"/><path fill="#C2AB2F" fill-rule="evenodd" d="M36.287,29.761c-0.001-0.017-0.001-0.034-0.001-0.05 c0.022-0.046,0.08-0.022,0.107-0.057c0.017,0.003,0.032,0.006,0.049,0.009c0.018,0.011,0.023,0.021,0.018,0.031 s-0.011,0.017-0.017,0.017C36.403,29.766,36.344,29.76,36.287,29.761z" clip-rule="evenodd"/><path fill="#DCC425" fill-rule="evenodd" d="M34.153,29.717c-0.009,0.018-0.015,0.029-0.021,0.043 c-0.018-0.014-0.038-0.025-0.052-0.041c-0.004-0.004,0.011-0.025,0.017-0.037C34.116,29.693,34.134,29.705,34.153,29.717z" clip-rule="evenodd"/><path fill="#2A170D" fill-rule="evenodd" d="M36.394,29.654c-0.035,0.019-0.071,0.037-0.107,0.057 c-0.018-0.004-0.034-0.008-0.051-0.011C36.275,29.642,36.336,29.654,36.394,29.654z" clip-rule="evenodd"/><path fill="#C8B22E" fill-rule="evenodd" d="M35.347,29.738c0.002,0.023,0.004,0.047,0.005,0.07 c-0.034,0.047-0.067,0.004-0.101,0c0-0.017,0.001-0.031,0.005-0.046C35.287,29.754,35.317,29.746,35.347,29.738z" clip-rule="evenodd"/><path fill="#DFDCDA" fill-rule="evenodd" d="M31.568,29.848c0.019-0.016,0.038-0.033,0.057-0.049 c0.03,0.005,0.06,0.012,0.09,0.016c-0.019,0.019-0.039,0.037-0.058,0.057C31.627,29.863,31.598,29.855,31.568,29.848z" clip-rule="evenodd"/><path fill="#D9C127" fill-rule="evenodd" d="M35.102,29.906c-0.014-0.027-0.053-0.055-0.014-0.081 c0.034-0.022,0.062,0.001,0.07,0.04C35.14,29.879,35.121,29.893,35.102,29.906z" clip-rule="evenodd"/><path fill="#A18B31" fill-rule="evenodd" d="M35.576,29.731c-0.013,0.005-0.026,0.013-0.039,0.015 c-0.002,0-0.008-0.011-0.013-0.018c0.012-0.004,0.024-0.01,0.037-0.012C35.565,29.715,35.571,29.726,35.576,29.731z" clip-rule="evenodd"/><path fill="#C4AC2F" fill-rule="evenodd" d="M33.795,29.809c0,0.016,0,0.03,0.001,0.045 c-0.055,0.004-0.067-0.028-0.042-0.068C33.766,29.766,33.789,29.785,33.795,29.809z" clip-rule="evenodd"/><path fill="#8B752D" fill-rule="evenodd" d="M34.834,29.548c-0.028-0.005-0.047-0.021-0.045-0.052 c0-0.007,0.019-0.014,0.028-0.02c0.005,0.024,0.009,0.05,0.013,0.074L34.834,29.548z" clip-rule="evenodd"/><path fill="#C7B02E" fill-rule="evenodd" d="M35.351,29.552c0,0.022-0.002,0.046-0.004,0.068 c-0.029-0.017-0.055-0.038-0.034-0.076C35.322,29.527,35.339,29.533,35.351,29.552z" clip-rule="evenodd"/><path fill="#B09931" fill-rule="evenodd" d="M35.504,29.443c0.009,0.018,0.005,0.033-0.015,0.037 c-0.007,0.001-0.026-0.014-0.026-0.021c-0.002-0.014,0.009-0.027,0.013-0.041C35.485,29.426,35.495,29.435,35.504,29.443z" clip-rule="evenodd"/><path fill="#DBC425" fill-rule="evenodd" d="M33.272,29.654c0.003-0.033-0.029-0.092,0.036-0.086 c0.036,0.004,0.024,0.053,0.017,0.084C33.309,29.676,33.291,29.676,33.272,29.654z" clip-rule="evenodd"/><path fill="#E1C921" fill-rule="evenodd" d="M35.09,29.562c0,0.013,0,0.025,0.002,0.037 c-0.032,0-0.064,0-0.097-0.001C35.016,29.555,35.045,29.537,35.09,29.562z" clip-rule="evenodd"/><path fill="#EFEDEB" fill-rule="evenodd" d="M30.938,29.604c0.002,0.018,0.002,0.035,0.002,0.053 c-0.034-0.004-0.068-0.008-0.103-0.011c0-0.017,0-0.032-0.001-0.049C30.871,29.6,30.904,29.602,30.938,29.604z" clip-rule="evenodd"/><path fill="#C7B02E" fill-rule="evenodd" d="M36.443,29.711c-0.001-0.017-0.001-0.031-0.001-0.048 c0.034-0.005,0.068-0.011,0.101-0.017c0.001,0.018,0.001,0.035,0.001,0.053C36.512,29.703,36.478,29.707,36.443,29.711z" clip-rule="evenodd"/><path fill="#B19A31" fill-rule="evenodd" d="M33.272,29.654c0.018-0.001,0.035-0.002,0.053-0.002 c-0.002,0.033-0.005,0.068-0.007,0.103c-0.017-0.021-0.034-0.042-0.053-0.064C33.26,29.678,33.262,29.664,33.272,29.654z" clip-rule="evenodd"/><path fill="#E1DDDB" fill-rule="evenodd" d="M31.096,29.701c-0.001-0.018-0.001-0.035-0.001-0.052 c0.018,0.003,0.035,0.005,0.053,0.009c0,0.016,0,0.031,0,0.047C31.13,29.703,31.113,29.703,31.096,29.701z" clip-rule="evenodd"/><path fill="#DFC723" fill-rule="evenodd" d="M32.184,29.73c-0.002,0.014-0.003,0.029-0.003,0.043 c-0.019,0-0.034-0.006-0.046-0.019C32.145,29.732,32.156,29.715,32.184,29.73z" clip-rule="evenodd"/><path fill="#A89131" fill-rule="evenodd" d="M32.972,29.854c-0.023-0.001-0.046-0.001-0.069-0.001 C32.926,29.812,32.95,29.811,32.972,29.854z" clip-rule="evenodd"/><path fill="#A89131" fill-rule="evenodd" d="M32.96,29.918c0.02,0.001,0.041,0.002,0.062,0.003 C32.998,29.963,32.979,29.953,32.96,29.918z" clip-rule="evenodd"/><path fill="#D0CBC7" fill-rule="evenodd" d="M30.003,28.139c0.017-0.016,0.035-0.033,0.052-0.05 c0.191-0.001,0.383-0.001,0.573-0.001c0.02,0.018,0.039,0.036,0.058,0.055C30.458,28.209,30.23,28.217,30.003,28.139z" clip-rule="evenodd"/><path fill="#B2A8A3" fill-rule="evenodd" d="M29.27,24.413c0.021,0.055-0.002,0.122,0.051,0.167 c0.016,0.141-0.007,0.287,0.049,0.424c-0.017,0.021-0.033,0.021-0.05,0C29.247,24.811,29.229,24.615,29.27,24.413z" clip-rule="evenodd"/><path fill="#C2BBB7" fill-rule="evenodd" d="M29.795,25.318c0.019,0.016,0.038,0.031,0.058,0.047 c0.016,0.02,0.03,0.04,0.042,0.062c0.005,0.016,0.005,0.031,0,0.046c-0.024,0.029-0.06,0.03-0.092,0.04 c-0.053-0.035-0.106-0.068-0.159-0.104c-0.012-0.012-0.018-0.023-0.015-0.036c0.004-0.013,0.007-0.019,0.011-0.019 c0.041-0.017,0.082-0.026,0.125-0.035C29.774,25.318,29.784,25.318,29.795,25.318z" clip-rule="evenodd"/><path fill="#C0B9B5" fill-rule="evenodd" d="M29.529,24.898c-0.05-0.023-0.044-0.066-0.034-0.109 c0.015-0.014,0.033-0.019,0.054-0.014c0.028,0.01,0.053,0.023,0.075,0.045c0.006,0.008,0.012,0.015,0.017,0.023 c0.009,0.053-0.019,0.111,0.017,0.162c-0.008,0.006-0.017,0.012-0.025,0.019c-0.021,0.002-0.04-0.005-0.055-0.021 c-0.032-0.008-0.04-0.029-0.035-0.058C29.556,24.926,29.551,24.909,29.529,24.898z" clip-rule="evenodd"/><path fill="#B3A9A4" fill-rule="evenodd" d="M29.705,24.684c0.01,0,0.02,0,0.03,0 c0.008,0.076,0.018,0.151,0.064,0.217c-0.064,0.012-0.108-0.03-0.159-0.057l0.002,0.002c-0.007-0.008-0.013-0.017-0.021-0.025 c0.009-0.008,0.017-0.016,0.025-0.021C29.706,24.78,29.688,24.723,29.705,24.684z" clip-rule="evenodd"/><path fill="#EEECEB" fill-rule="evenodd" d="M29.802,25.514c0.022-0.034,0.057-0.037,0.092-0.04 c0.014,0.042,0.07,0.096,0.016,0.124C29.875,25.615,29.832,25.551,29.802,25.514z" clip-rule="evenodd"/><path fill="#B6ACA8" fill-rule="evenodd" d="M29.427,25.159c0.065,0.029,0.074,0.108,0.125,0.148 c-0.021,0.03-0.045,0.034-0.074,0.011c-0.062-0.037-0.057-0.106-0.082-0.162C29.405,25.158,29.417,25.158,29.427,25.159z" clip-rule="evenodd"/><path fill="#BBB4B0" fill-rule="evenodd" d="M29.478,25.318c0.025-0.004,0.05-0.008,0.074-0.011 c0.03,0.003,0.06,0.007,0.088,0.009c0.003,0.01,0.007,0.021,0.01,0.03c-0.002,0.021-0.005,0.042-0.007,0.063 C29.588,25.379,29.51,25.389,29.478,25.318z" clip-rule="evenodd"/><path fill="#9C918C" fill-rule="evenodd" d="M29.696,25.26c-0.015-0.035-0.029-0.07-0.045-0.106 c0.022-0.019,0.044-0.018,0.064,0.003c0.045,0.023,0.06,0.066,0.072,0.11c-0.013,0.015-0.029,0.024-0.048,0.024 C29.719,25.289,29.705,25.277,29.696,25.26z" clip-rule="evenodd"/><path fill="#D8D3D0" fill-rule="evenodd" d="M29.715,25.156c-0.021-0.001-0.043-0.002-0.064-0.003 c-0.017-0.033-0.033-0.067-0.05-0.101c0.012-0.018,0.028-0.024,0.048-0.021c0.019,0.008,0.031,0.021,0.038,0.039 C29.696,25.1,29.705,25.129,29.715,25.156z" clip-rule="evenodd"/><path fill="#C1B9B5" fill-rule="evenodd" d="M29.427,25.159c-0.01-0.003-0.021-0.003-0.032-0.003 c-0.019-0.033-0.036-0.069-0.054-0.104c0.011,0,0.021,0.002,0.032,0.003C29.416,25.077,29.437,25.11,29.427,25.159z" clip-rule="evenodd"/><path fill="#311C11" fill-rule="evenodd" d="M29.687,25.07c-0.016-0.006-0.031-0.012-0.047-0.016 c-0.011-0.012-0.015-0.023-0.014-0.035C29.628,25.006,29.63,25,29.633,25l0.01,0.012l0.014-0.006 C29.682,25.021,29.69,25.043,29.687,25.07z" clip-rule="evenodd"/><path fill="#D0CBC8" fill-rule="evenodd" d="M29.373,25.056c-0.01-0.003-0.021-0.005-0.032-0.003 c-0.007-0.017-0.014-0.033-0.021-0.049c0.017,0.002,0.033,0.002,0.05,0C29.371,25.021,29.372,25.039,29.373,25.056z" clip-rule="evenodd"/><path fill="#59473E" fill-rule="evenodd" d="M29.895,25.428c-0.029-0.011-0.043-0.03-0.042-0.062 C29.879,25.379,29.896,25.398,29.895,25.428z" clip-rule="evenodd"/><path fill="#D1CCC9" fill-rule="evenodd" d="M29.748,25.263c0.013,0.004,0.026,0.005,0.04,0.004 c0.003,0.017,0.006,0.034,0.008,0.052l0.004-0.006C29.748,25.332,29.732,25.312,29.748,25.263z" clip-rule="evenodd"/><path fill="#EDEBEA" fill-rule="evenodd" d="M33.796,24.592c0-0.02,0-0.04-0.001-0.06 c0.017,0.001,0.034,0.001,0.051,0.002c0,0.019,0,0.038,0,0.058l-0.024-0.002L33.796,24.592z" clip-rule="evenodd"/><path fill="#CDC7C4" fill-rule="evenodd" d="M33.485,21.8c0.02-0.015,0.039-0.028,0.057-0.042 c0.171,0,0.341,0,0.512,0.002c0,0.016,0,0.03,0,0.045C33.864,21.822,33.675,21.826,33.485,21.8z" clip-rule="evenodd"/><path fill="#DBD7D4" fill-rule="evenodd" d="M31.049,29.969c0.017,0.005,0.033,0.002,0.047-0.009 c0.02-0.015,0.04-0.015,0.061-0.001c0.011,0.021,0.008,0.041-0.01,0.059c-0.112,0.068-0.24,0.077-0.364,0.098 c-0.017-0.014-0.021-0.029-0.015-0.049c0.022-0.021,0.05-0.029,0.075-0.045c0.017,0.006,0.031,0.002,0.045-0.008 C30.936,29.977,31.003,30.012,31.049,29.969z" clip-rule="evenodd"/><path fill="#B0A7A2" fill-rule="evenodd" d="M30.417,29.754c-0.002,0.055-0.003,0.109-0.006,0.164 c-0.011,0.027-0.017,0.057-0.053,0.062c-0.07-0.096-0.076-0.186,0.013-0.271C30.393,29.717,30.408,29.732,30.417,29.754z" clip-rule="evenodd"/><path fill="#DAD6D3" fill-rule="evenodd" d="M30.358,29.98c0.018-0.021,0.035-0.041,0.053-0.062 c0.018,0.018,0.035,0.034,0.054,0.051c0.021,0.014,0.04,0.029,0.06,0.045c0.004,0.014,0.014,0.018,0.028,0.014 c0.023,0.002,0.039,0.014,0.049,0.035c0.001,0.023-0.007,0.043-0.023,0.058C30.471,30.125,30.405,30.067,30.358,29.98z" clip-rule="evenodd"/><path fill="#CEC8BB" fill-rule="evenodd" d="M31.563,30.07c-0.001,0.034-0.002,0.068-0.002,0.103 c-0.071-0.051-0.143-0.101-0.212-0.151c0.011-0.021,0.029-0.037,0.052-0.044C31.473,29.978,31.51,30.039,31.563,30.07z" clip-rule="evenodd"/><path fill="#EBE9E7" fill-rule="evenodd" d="M31.401,29.978c-0.018,0.015-0.035,0.029-0.052,0.044 c-0.067-0.001-0.135-0.003-0.202-0.004c0.002-0.015,0.002-0.029,0.001-0.043c0.084-0.062,0.172-0.033,0.261-0.014L31.401,29.978z" clip-rule="evenodd"/><path fill="#F7F7F7" fill-rule="evenodd" d="M30.577,30.12c0-0.018,0-0.034,0-0.053 c0.069-0.03,0.138-0.038,0.206,0.007c-0.002,0.014-0.002,0.027,0,0.041C30.714,30.138,30.646,30.137,30.577,30.12z" clip-rule="evenodd"/><path fill="#FFF" fill-rule="evenodd" d="M30.417,29.754c-0.015-0.015-0.03-0.03-0.045-0.045 c0-0.02,0.001-0.037,0.001-0.055c0.035,0,0.071-0.001,0.105-0.002C30.49,29.706,30.431,29.717,30.417,29.754z" clip-rule="evenodd"/><path fill="#2D180F" fill-rule="evenodd" d="M31.409,29.961c-0.087,0.003-0.175-0.019-0.261,0.014 c-0.017-0.005-0.034-0.01-0.052-0.015C31.2,29.889,31.304,29.891,31.409,29.961z" clip-rule="evenodd"/><path fill="#2D180F" fill-rule="evenodd" d="M30.783,30.074c-0.069-0.003-0.138-0.005-0.206-0.007 c-0.009-0.014-0.018-0.026-0.025-0.04c0.097-0.003,0.194-0.004,0.291-0.006C30.823,30.039,30.803,30.057,30.783,30.074z" clip-rule="evenodd"/><path fill="#2D180F" fill-rule="evenodd" d="M31.049,29.969c-0.043,0.049-0.102,0.046-0.161,0.045 C30.93,29.956,30.991,29.967,31.049,29.969z" clip-rule="evenodd"/><path fill="#2D180F" fill-rule="evenodd" d="M30.524,30.014c-0.032,0.002-0.051-0.016-0.06-0.045 C30.484,29.983,30.504,29.998,30.524,30.014z" clip-rule="evenodd"/><path fill="#59473E" fill-rule="evenodd" d="M29.748,25.263c0.004,0.03,0.011,0.058,0.052,0.05 c-0.017,0.158-0.1,0.025-0.15,0.034c-0.003-0.01-0.006-0.021-0.01-0.03c0.019-0.019,0.037-0.037,0.056-0.057 C29.713,25.262,29.73,25.262,29.748,25.263z" clip-rule="evenodd"/><path fill="#EFEDEC" fill-rule="evenodd" d="M29.528,24.789c-0.011,0-0.022,0-0.034,0 c-0.017-0.086-0.026-0.171-0.001-0.256c0.013,0,0.023,0,0.035,0C29.609,24.619,29.609,24.703,29.528,24.789z" clip-rule="evenodd"/><path fill="#F7F8F7" fill-rule="evenodd" d="M29.529,24.898c0.013,0.014,0.066,0.016,0.014,0.048 C29.533,24.932,29.528,24.916,29.529,24.898z" clip-rule="evenodd"/><path fill="#E9E7E5" fill-rule="evenodd" d="M29.633,25c0.002,0.018,0.004,0.036,0.006,0.055 c-0.013-0.002-0.026-0.003-0.039-0.002c-0.008-0.017-0.015-0.033-0.022-0.049C29.596,25.002,29.615,25.001,29.633,25z" clip-rule="evenodd"/><path fill="#E0DDDA" fill-rule="evenodd" d="M29.995,28.352c0.02-0.016,0.039-0.033,0.059-0.05 c0.192,0.001,0.385,0.002,0.578,0.003c0.015,0.01,0.031,0.019,0.048,0.026c0.006,0.009,0.006,0.017,0.001,0.024 C30.452,28.42,30.224,28.423,29.995,28.352z" clip-rule="evenodd"/><path fill="#F6F5F5" fill-rule="evenodd" d="M30.68,28.331c-0.023,0.005-0.039-0.005-0.048-0.026 c0.015-0.01,0.031-0.01,0.048-0.003C30.68,28.312,30.68,28.321,30.68,28.331z" clip-rule="evenodd"/><path fill="#2A160E" fill-rule="evenodd" d="M29.584,24.42c0-0.016,0.004-0.029,0.013-0.043 c0.095,0.131,0.023,0.281,0.05,0.422l0.002,0.004C29.491,24.697,29.579,24.552,29.584,24.42z" clip-rule="evenodd"/><path fill="#63524A" fill-rule="evenodd" d="M29.584,24.42c0.033,0.125-0.051,0.271,0.064,0.383 c0.001,0.016,0,0.029-0.006,0.043c-0.045-0.002-0.092-0.006-0.114-0.057c0-0.086,0-0.171,0-0.256 C29.544,24.494,29.543,24.447,29.584,24.42z" clip-rule="evenodd"/><path fill="#AB9632" fill-rule="evenodd" d="M37.843,25.312c0,0.033,0.002,0.067,0.002,0.102 c0.028,0.023,0.028,0.048,0.002,0.073c-0.028,0.054-0.062,0.101-0.148,0.116C37.7,25.477,37.742,25.381,37.843,25.312z" clip-rule="evenodd"/><path fill="#97802F" fill-rule="evenodd" d="M38.317,24.58c0.015,0.002,0.03,0.004,0.047,0.004 c-0.01,0.141,0.042,0.289-0.053,0.421c-0.02-0.011-0.032-0.026-0.038-0.05C38.319,24.834,38.306,24.705,38.317,24.58z" clip-rule="evenodd"/><path fill="#947D2E" fill-rule="evenodd" d="M38.042,25.049c-0.055,0.098-0.087,0.214-0.201,0.268 c-0.017-0.078,0.055-0.126,0.061-0.195c0.008-0.027,0.026-0.047,0.04-0.068l0.002-0.006c0.015-0.012,0.032-0.021,0.049-0.023 C38.014,25.025,38.028,25.034,38.042,25.049z" clip-rule="evenodd"/><path fill="#BBA430" fill-rule="evenodd" d="M38.042,25.049c-0.022,0-0.044,0-0.064-0.001 c-0.002-0.033-0.004-0.066,0.012-0.098c0.007-0.017,0.009-0.033,0.005-0.05c0.04-0.061,0.08-0.062,0.116,0.002 C38.088,24.951,38.064,25,38.042,25.049z" clip-rule="evenodd"/><path fill="#9D8730" fill-rule="evenodd" d="M37.939,25.362c0.055-0.032,0.112-0.063,0.169-0.096 c0.046-0.011,0.074-0.003,0.049,0.054c-0.036,0.062-0.105,0.062-0.163,0.088C37.972,25.398,37.945,25.395,37.939,25.362z" clip-rule="evenodd"/><path fill="#856D2B" fill-rule="evenodd" d="M38.157,25.32c-0.015-0.019-0.032-0.035-0.049-0.054 c0.032-0.033,0.024-0.151,0.117-0.055C38.203,25.248,38.181,25.284,38.157,25.32z" clip-rule="evenodd"/><path fill="#AE9832" fill-rule="evenodd" d="M37.939,25.362c0.019,0.015,0.038,0.03,0.055,0.046 c-0.034,0.018-0.066,0.036-0.103,0.053c-0.011-0.014-0.015-0.028-0.011-0.042c0.002-0.015,0.008-0.021,0.011-0.021 C37.896,25.371,37.917,25.365,37.939,25.362z" clip-rule="evenodd"/><path fill="#321E0F" fill-rule="evenodd" d="M37.989,24.95c-0.002,0.032-0.008,0.065-0.012,0.098l-0.018-0.001 h-0.017C37.947,25.01,37.955,24.974,37.989,24.95z" clip-rule="evenodd"/><path fill="#AE9832" fill-rule="evenodd" d="M38.273,24.955c0.013,0.017,0.026,0.033,0.038,0.05 c0.002,0.017,0,0.034,0,0.052C38.247,25.043,38.26,24.998,38.273,24.955z" clip-rule="evenodd"/><path fill="#2E1B0E" fill-rule="evenodd" d="M37.845,24.949c0.01-0.023,0.022-0.039,0.049-0.04 C37.877,24.922,37.861,24.936,37.845,24.949z" clip-rule="evenodd"/><path fill="#D0B82B" fill-rule="evenodd" d="M37.892,25.397c0,0.021,0,0.043,0,0.063 c-0.015,0.01-0.03,0.018-0.045,0.025c0-0.023-0.002-0.049-0.002-0.072C37.861,25.41,37.877,25.404,37.892,25.397z" clip-rule="evenodd"/><path fill="#321E0F" fill-rule="evenodd" d="M37.941,25.053c-0.012,0.021-0.026,0.045-0.04,0.068 C37.915,25.098,37.93,25.075,37.941,25.053z" clip-rule="evenodd"/><path fill="#EDD515" fill-rule="evenodd" d="M29.322,43.195c0-0.13,0.005-0.26-0.002-0.391 c-0.005-0.119,0.05-0.154,0.156-0.144c0.034,0.003,0.068,0.001,0.104,0.003c0.444,0.019,0.652,0.317,0.516,0.744 c-0.038,0.122-0.116,0.209-0.235,0.263c-0.082,0.036-0.166,0.043-0.251,0.049c-0.286,0.019-0.287,0.019-0.287-0.265 C29.321,43.369,29.322,43.281,29.322,43.195z" clip-rule="evenodd"/><path fill="#E8D01B" fill-rule="evenodd" d="M23.958,42.848c0.107,0.354,0.214,0.71,0.331,1.096 c-0.243,0.029-0.466,0.011-0.72,0.011c0.12-0.392,0.229-0.751,0.338-1.11C23.924,42.846,23.94,42.846,23.958,42.848z" clip-rule="evenodd"/><path fill="#C1A930" fill-rule="evenodd" d="M36.128,30.117c-0.001-0.023-0.001-0.047-0.002-0.07 c0.149-0.133,0.31-0.111,0.474-0.037c0.018,0.012,0.022,0.023,0.017,0.035c-0.007,0.01-0.014,0.016-0.02,0.016 C36.435,30.023,36.271,29.987,36.128,30.117z" clip-rule="evenodd"/><path fill="#C2AA2F" fill-rule="evenodd" d="M37.227,29.915c0.015,0.019,0.03,0.037,0.049,0.056 c-0.03,0.076-0.085,0.121-0.163,0.139c-0.024-0.006-0.044-0.02-0.055-0.042C37.112,30.015,37.19,29.988,37.227,29.915z" clip-rule="evenodd"/><path fill="#C4AC2F" fill-rule="evenodd" d="M36.597,30.061c0.001-0.018,0.002-0.033,0.003-0.051 c0.093-0.003,0.178,0.02,0.258,0.063c0.017,0.009,0.022,0.019,0.017,0.028s-0.01,0.016-0.016,0.016 C36.765,30.127,36.686,30.072,36.597,30.061z" clip-rule="evenodd"/><path fill="#D6BE28" fill-rule="evenodd" d="M36.858,30.117c0-0.016-0.001-0.029-0.001-0.044 c0.067-0.003,0.134-0.005,0.2-0.006c0.019,0.013,0.036,0.026,0.055,0.042C37.027,30.141,36.943,30.138,36.858,30.117z" clip-rule="evenodd"/><path fill="#4B3613" fill-rule="evenodd" d="M37.68,28.604c0.032-0.029,0.068-0.043,0.111-0.036 C37.761,28.604,37.724,28.609,37.68,28.604z" clip-rule="evenodd"/><path fill="#D8D2C7" fill-rule="evenodd" d="M31.978,28.031c0.032,0.02,0.064,0.041,0.096,0.062 C31.995,28.138,31.995,28.138,31.978,28.031z" clip-rule="evenodd"/><path fill="#27130C" fill-rule="evenodd" d="M31.885,28.124c0.002-0.031-0.034-0.081,0.037-0.08 C31.915,28.073,31.932,28.113,31.885,28.124z" clip-rule="evenodd"/><path fill="#DED9CF" fill-rule="evenodd" d="M31.978,27.98c0.001,0.018,0.001,0.035,0.002,0.053 c-0.018-0.008-0.036-0.014-0.054-0.021c0.003-0.011,0.004-0.022,0.004-0.034l0.004-0.007C31.952,27.957,31.966,27.961,31.978,27.98z" clip-rule="evenodd"/><path fill="#E0C822" fill-rule="evenodd" d="M35.666,28.117c-0.024,0.008-0.046,0.012-0.04-0.025 c0.013-0.002,0.025,0,0.04,0.003V28.117z" clip-rule="evenodd"/><path fill="#27130C" fill-rule="evenodd" d="M35.662,28.191c0.004-0.016,0.004-0.031,0.002-0.045 c0.034-0.007,0.048,0.006,0.043,0.041C35.692,28.188,35.677,28.189,35.662,28.191z" clip-rule="evenodd"/><path fill="#2D1A0E" fill-rule="evenodd" d="M35.6,28.079c-0.015,0-0.029,0.002-0.042,0.006 c0.008-0.012,0.013-0.032,0.023-0.034C35.601,28.045,35.608,28.061,35.6,28.079z" clip-rule="evenodd"/><path fill="#331F10" fill-rule="evenodd" d="M35.557,28.141c0.004,0.016,0.006,0.031,0.004,0.049 C35.529,28.176,35.516,28.16,35.557,28.141z" clip-rule="evenodd"/><path fill="#27130C" fill-rule="evenodd" d="M31.978,27.98c-0.014-0.008-0.029-0.011-0.044-0.01 c0.003-0.016,0-0.031-0.012-0.043c0.036,0,0.073,0,0.108,0.001C32.026,27.961,32.003,27.971,31.978,27.98z" clip-rule="evenodd"/><path fill="#28150D" fill-rule="evenodd" d="M32.23,29.66c0,0.03-0.008,0.051-0.044,0.042 C32.189,29.676,32.205,29.662,32.23,29.66z" clip-rule="evenodd"/></svg>