<svg xmlns="http://www.w3.org/2000/svg" version="1.1" width="70px" height="70px" viewBox="0 0 70 70"><g id="surface1"><path d="M 67.777344 24.996094 C 48.476562 21.730469 38.863281 44.738281 23.265625 46.695312 C 11.917969 48.121094 3.664062 39.988281 2.269531 34.023438 C 1.429688 45.585938 11.917969 53.828125 23.546875 53.300781 C 43.066406 52.414062 53.417969 28.632812 67.777344 24.996094 " style=" stroke:none;fill-rule:nonzero;fill:rgb(0%,28.235295%,60.000002%);fill-opacity:1;"/><path d="M 52.8125 24.714844 C 38.078125 22.683594 34.621094 33.589844 22.734375 37.492188 C 15.050781 40.015625 9.179688 38.148438 4.984375 33.394531 C 6.941406 39.644531 14.484375 44.113281 21.125 43.566406 C 34.199219 42.488281 41.574219 28.023438 52.8125 24.714844 " style=" stroke:none;fill-rule:nonzero;fill:rgb(0%,28.235295%,60.000002%);fill-opacity:1;"/><path d="M 21.589844 34.683594 C 24.375 33.773438 26.363281 32.621094 28.101562 31.453125 C 29.464844 30.539062 34.273438 27.109375 36.710938 25.636719 C 34.65625 19.90625 29.171875 15.804688 22.734375 15.804688 C 14.535156 15.804688 7.882812 22.453125 7.882812 30.65625 C 7.882812 31.339844 7.929688 32.015625 8.023438 32.679688 C 11.496094 35.230469 16.238281 36.433594 21.589844 34.683594 " style=" stroke:none;fill-rule:nonzero;fill:rgb(100%,80.000001%,0%);fill-opacity:1;"/></g></svg>