<svg xmlns="http://www.w3.org/2000/svg" version="1.1" id="Layer_1" x="0px" y="0px" width="70px" height="70px" viewBox="0 0 70 70" enable-background="new 0 0 70 70" xml:space="preserve"><metadata/><polygon points="6.8,2.6 64.9,2.6 64.9,68.3    6.8,68.3 " fill="none" stroke="#231F20" stroke-miterlimit="2.6131" stroke-width="1.4774"/><polygon points="10,5.6 61.8,5.6 61.8,65.3 10,65.3 " fill="#FFFFFF"/><path fill="#231F20" d="M37.4,5.6c-0.4,0.3-0.9,0.5-1.2,0.7c-1.6,3.4-12.1,6.5-15.7,6.4L20,13l-0.5-0.3L19.1,13h-2.5l-0.8-0.7h-2.2   c-1.1-0.8-2.4-0.9-3.7-1.2V5.6H37.4L37.4,5.6z"/><path fill="#231F20" d="M51.5,5.6c-4.7,4.8-10.2,9.5-13.8,11.8c-2.4,1.6-6.8,4.4-9.4,5.4c-1.9,0.7-17,3.5-17,6   c0,2.3,4.5,1.9,5.8,1.9l0.2-0.3C24,32.6,47.2,16.8,57,5.6h2.2c-3.3,3.9-5.101,8.6-10.4,11.6C46.4,22.5,27.2,33,21.5,32.8l-0.3,0.3   l-4,0.3c-2.1-1-4.5-1.7-6.8-1.4L10,31.8v-8.9c1.2,0.3,2.3,0,3.6-0.3c12.6-2.6,23.1-8.7,31.7-17H51.5L51.5,5.6z"/><path fill="#231F20" d="M61.8,15.1c-1.1,1.5-2.2,2.9-3.1,4.3c-1,1.4-2.5,2.5-3.3,4.1c-4.601,2.1-7.801,6.3-12,9.1   c-10.5,6.8-21,11.2-33.4,11.1v-2.3h6.5l0.3-0.301h2.4c3.4-2.5,7.9-2.3,11.7-4.1c5.5-2.7,23.3-15.7,26.9-21c1.3-2,2.601-4,4.101-6   L61.8,15.1L61.8,15.1z"/><path fill="#231F20" d="M61.8,28C57.9,35.7,54.4,44,50.6,49.9c-1.899,2.899-4.1,5.6-6.3,8.3l0.101,0.6C50.6,54.2,57.1,47,61.7,39.4   V43c-1.7,2.8-3.5,5.5-5.8,7.9C52.8,54.2,48.6,56,45.4,59.1c-1,1-2.101,3.2-3.9,2.301l-1.3,1c5.2-7.9,8.8-16.7,13-25.101L52,36.2   c-3.9,1.399-12,11.6-16.1,9.1l-3.4,2.3C29.7,47.4,21,52.2,14.5,52L14,51.4c7.8-2.7,39.8-16.2,45.1-24.5c1-0.9,1.801-1.9,2.7-2.9V28   L61.8,28z"/><path fill="#231F20" d="M61.8,62.2c-0.7,0.8-1.399,1.5-2.1,2.2H49l0.3-1.301c5-1.399,9-4.899,12.4-9V62.2H61.8z"/><path fill="#231F20" d="M44.1,45H44.7v2.3c-0.9,1-6,14.601-7,17.2h-1C39.9,56.9,37.5,50.8,44.1,45L44.1,45z"/><path fill="#231F20" d="M35.1,48.7h2.3v1.6C36.3,50.8,36.8,53.4,35.6,53.4c-0.399,0-3.2-2.801-3.2-2.9C32.3,48.8,34,49.7,35.1,48.7   L35.1,48.7z"/><path fill="#231F20" d="M10.3,51.7c0.9,0.3,1.5,0.7,2,0.7s0.6-1.2,3.3-1.4l0.3,0.5c-0.7,1-3.6,0.9-4.3,2H10V52L10.3,51.7L10.3,51.7z   "/><path fill="#231F20" d="M33.8,56.1l1.1,0.4l0.4,1.7c-0.7,1.1-0.6,4.5-1.4,6.399h-1.3V61l-2.1-2.7c-5.4-1-10.9,0.9-16.2-0.399   l-0.7,0.3L12,57.4V56.8c0.8,0.101,1.9,0.101,2.7-0.399l3,0.399c2.5-0.3,6.4-2,10.5-2.8C29.8,53.8,31.9,57.3,33.8,56.1L33.8,56.1z"/><path fill="#231F20" d="M23.7,62.9c0.9,0.199,1.8,0.3,2.6,0.3l0.7,0.7v0.6C23.7,64.6,24.9,64.3,23.7,62.9L23.7,62.9z"/><path fill="#231F20" d="M18,63.5c0.6,0.7,4.8-0.4,5.5-0.8l2.2,1.8h-14C13.9,63,15.2,62.7,18,63.5L18,63.5z"/><path fill="#0B6CB6" d="M39.8,5.6c-1.1,0.9-2.1,1.6-3,2C35.1,11,24.6,14.1,21.1,14l-0.4,0.3L20.1,14l-0.3,0.3h-2.5l-0.8-0.7h-2.2   c-1.3-0.9-2.9-1-4.3-1.4V5.6H39.8L39.8,5.6z"/><path fill="#0B6CB6" d="M53.4,5.6c-4.9,5.2-11.101,10.6-15,13.1c-2.4,1.6-6.8,4.4-9.4,5.4c-1.9,0.7-17,3.5-17,6   c0,2.3,4.5,1.9,5.8,1.9l0.2-0.3C24.9,34,49.7,16.8,58.7,5.6H61.1C56.9,9.7,55.4,15.1,49.5,18.5C47,23.8,27.8,34.3,22.1,34l-0.3,0.3   l-4,0.3c-2.1-1-4.5-1.7-6.8-1.4l-1-0.7V24c1.4,0.6,2.8,0.3,4.2,0c13.2-2.7,24.1-9.3,33-18.3L53.4,5.6L53.4,5.6z"/><path fill="#0B6CB6" d="M61.8,17.2c-0.899,1.2-1.7,2.3-2.5,3.4c-1,1.4-2.5,2.5-3.3,4.1c-4.6,2.1-7.8,6.3-12,9.1   c-10.6,7-21.3,11.5-34,11.2v-2.3h7.1l0.3-0.3h2.4c3.4-2.5,7.9-2.301,11.7-4.101c5.5-2.7,23.3-15.7,26.9-21   c1.1-1.7,2.199-3.4,3.399-5.1V17.2L61.8,17.2z"/><path fill="#0B6CB6" d="M61.8,30.6c-3.6,7.3-6.899,15-10.5,20.7C49.4,54.2,47.2,56.9,45,59.6l0.1,0.601C51,55.7,57.2,49,61.8,41.7   v3.7c-1.5,2.399-3.2,4.8-5.2,6.899c-3.1,3.3-7.3,5.101-10.5,8.2c-1,1-2.1,3.2-3.899,2.3l-1.3,1c5.199-7.899,8.8-16.7,13-25.1   L52.6,37.5c-3.899,1.4-12,11.6-16.1,9.1L33.1,48.9c-2.8-0.2-11.5,4.6-18,4.399l-0.5-0.6c7.8-2.7,39.8-16.2,45.1-24.5   c0.7-0.7,1.399-1.4,2-2.2v4.6H61.8z"/><path fill="#0B6CB6" d="M61.8,64.2c-0.3,0.399-0.7,0.7-1,1.1h-11L50,64.4c4.6-1.301,8.5-4.5,11.7-8.301L61.8,64.2L61.8,64.2z"/><path fill="#0B6CB6" d="M44.7,46.3h0.6v2.3C44.4,49.6,39.8,61.9,38.4,65.3h-1C40.4,57.9,38.3,51.9,44.7,46.3L44.7,46.3z"/><path fill="#0B6CB6" d="M35.7,50H38v1.6c-1.1,0.5-0.6,3.101-1.8,3.101c-0.4,0-3.2-2.8-3.2-2.9C33,50.1,34.7,51,35.7,50L35.7,50z"/><path fill="#0B6CB6" d="M11,53c0.9,0.3,1.5,0.7,2,0.7c0.4,0,0.6-1.2,3.3-1.4l0.3,0.5c-0.7,1-3.6,0.9-4.3,1.9H10v-1L11,53L11,53z"/><path fill="#0B6CB6" d="M34.5,57.4l1.1,0.399l0.4,1.7c-0.6,1-0.6,4-1.2,5.9h-1.5v-3.2l-2.1-2.7c-5.4-1-10.9,0.9-16.2-0.4L14.3,59.4   l-1.7-0.7V58.1c0.8,0.101,1.9,0.101,2.7-0.399l3,0.399c2.5-0.3,6.4-2,10.5-2.8C30.4,55,32.6,58.6,34.5,57.4L34.5,57.4z"/><path fill="#0B6CB6" d="M24.3,64.2c0.9,0.2,1.8,0.3,2.6,0.3l0.7,0.7v0.2H25C24.9,65.1,24.7,64.7,24.3,64.2L24.3,64.2z"/><path fill="#0B6CB6" d="M18.6,64.8c0.6,0.7,4.8-0.399,5.5-0.8l1.7,1.3H13C14.8,64.2,16.2,64.1,18.6,64.8L18.6,64.8z"/><rect width="70" fill="none" height="70"/></svg>