<svg xmlns="http://www.w3.org/2000/svg" version="1.1" width="70px" height="70px" viewBox="0 0 70 70"><g id="surface1"><path d="M 12.257812 39.433594 L 12.257812 34.855469 L 5.664062 34.855469 L 5.664062 52.03125 L 12.257812 52.03125 L 12.257812 47.453125 L 8.066406 47.453125 L 8.066406 45.550781 L 12.257812 45.550781 L 12.257812 41.324219 L 8.066406 41.324219 L 8.066406 39.433594 Z M 12.257812 39.433594 " style=" stroke:none;fill-rule:nonzero;fill:rgb(0%,60.000002%,26.666668%);fill-opacity:1;"/><path d="M 12.953125 34.835938 L 15.5 34.835938 L 16.863281 45.488281 L 18.242188 34.808594 L 20.761719 34.808594 L 18.316406 52.03125 L 15.40625 52.03125 Z M 12.953125 34.835938 " style=" stroke:none;fill-rule:nonzero;fill:rgb(0%,60.000002%,26.666668%);fill-opacity:1;"/><path d="M 25.621094 52.03125 L 28.113281 52.03125 L 25.40625 34.808594 L 22.5 34.808594 L 19.773438 52.058594 L 22.277344 52.058594 L 22.652344 49.605469 L 25.253906 49.605469 Z M 23.3125 45.261719 L 23.953125 41.070312 L 24.59375 45.261719 Z M 23.3125 45.261719 " style=" stroke:none;fill-rule:nonzero;fill:rgb(0%,60.000002%,26.666668%);fill-opacity:1;"/><path d="M 34.972656 52.03125 L 37.464844 52.03125 L 34.757812 34.808594 L 31.851562 34.808594 L 29.125 52.058594 L 31.632812 52.058594 L 32.007812 49.605469 L 34.609375 49.605469 L 34.976562 52.03125 Z M 32.664062 45.261719 L 33.304688 41.070312 L 33.945312 45.261719 Z M 32.664062 45.261719 " style=" stroke:none;fill-rule:nonzero;fill:rgb(0%,60.000002%,26.666668%);fill-opacity:1;"/><path d="M 38.304688 34.835938 L 40.765625 34.835938 L 40.765625 52.03125 L 38.304688 52.03125 Z M 38.304688 34.835938 " style=" stroke:none;fill-rule:nonzero;fill:rgb(0%,60.000002%,26.666668%);fill-opacity:1;"/><path d="M 48.234375 44.226562 C 48.859375 44.226562 48.847656 41.933594 48.847656 41.933594 L 48.847656 38.960938 C 48.847656 35.191406 47.621094 34.84375 47.621094 34.84375 L 41.964844 34.84375 C 41.964844 34.84375 41.964844 52.03125 41.964844 52.03125 L 44.425781 52.03125 L 44.425781 46.097656 L 46.058594 46.097656 C 46.179688 46.097656 46.257812 46.234375 46.304688 46.414062 C 46.394531 46.742188 46.394531 47.207031 46.394531 47.207031 L 46.394531 52.03125 L 48.855469 52.03125 L 48.855469 47.207031 C 48.855469 44.441406 48.234375 44.234375 48.234375 44.234375 Z M 46.109375 41.671875 L 44.394531 41.671875 L 44.394531 39.179688 L 46.109375 39.179688 C 46.324219 39.179688 46.492188 39.734375 46.492188 40.425781 C 46.492188 41.117188 46.324219 41.671875 46.109375 41.671875 Z M 46.109375 41.671875 " style=" stroke:none;fill-rule:nonzero;fill:rgb(0%,60.000002%,26.666668%);fill-opacity:1;"/><path d="M 54.050781 38.308594 C 54.507812 43.035156 55.867188 46.460938 57.476562 46.460938 C 59.457031 46.460938 61.066406 41.242188 61.066406 34.808594 C 61.066406 28.375 59.578125 23.558594 57.695312 23.183594 Z M 54.050781 38.308594 " style=" stroke:none;fill-rule:nonzero;fill:rgb(100%,100%,100%);fill-opacity:1;"/><path d="M 58.910156 17.667969 L 50.621094 52.070312 L 60.855469 52.070312 L 64.546875 17.667969 Z M 57.472656 46.933594 C 55.902344 46.933594 54.523438 43.789062 53.984375 39.0625 C 53.984375 39.0625 57.894531 22.832031 57.894531 22.832031 C 59.761719 23.519531 61.195312 28.675781 61.195312 34.835938 C 61.195312 41.507812 59.523438 46.933594 57.46875 46.933594 " style=" stroke:none;fill-rule:nonzero;fill:rgb(0%,60.000002%,26.666668%);fill-opacity:1;"/><path d="M 57.898438 22.832031 L 57.816406 23.175781 L 57.75 23.449219 L 57.734375 23.519531 L 57.675781 23.757812 C 58.082031 24.421875 58.445312 25.292969 58.746094 26.347656 C 58.597656 26.710938 58.4375 27.011719 58.269531 27.230469 C 58.105469 26.03125 57.90625 24.867188 57.667969 23.785156 L 57.59375 24.101562 C 57.816406 25.140625 58.003906 26.230469 58.160156 27.367188 C 57.960938 27.582031 57.75 27.710938 57.535156 27.730469 L 57.535156 24.355469 L 57.414062 24.855469 L 57.414062 27.730469 C 57.207031 27.710938 57.003906 27.59375 56.808594 27.375 C 56.800781 27.375 56.523438 28.554688 56.523438 28.554688 C 56.433594 29.382812 56.363281 30.226562 56.3125 31.082031 C 56.199219 31.019531 56.085938 30.929688 55.972656 30.835938 L 55.890625 31.171875 C 56.023438 31.28125 56.15625 31.375 56.289062 31.457031 C 56.234375 32.5 56.199219 33.574219 56.195312 34.65625 L 55.15625 34.65625 L 55.164062 34.191406 L 54.960938 35.046875 L 55.039062 35.046875 C 55.046875 36.480469 55.128906 37.863281 55.269531 39.164062 C 54.980469 39.507812 54.699219 39.925781 54.425781 40.40625 C 54.316406 39.773438 54.226562 39.109375 54.15625 38.398438 L 54.074219 38.734375 L 53.992188 39.082031 C 54.535156 43.808594 55.90625 46.953125 57.480469 46.953125 C 59.535156 46.953125 61.203125 41.527344 61.203125 34.855469 C 61.203125 28.683594 59.769531 23.539062 57.902344 22.847656 M 60.972656 34.644531 L 59.910156 34.644531 C 59.902344 33.226562 59.824219 31.835938 59.679688 30.539062 C 59.96875 30.191406 60.253906 29.773438 60.527344 29.292969 C 60.800781 30.882812 60.964844 32.710938 60.972656 34.644531 M 56.3125 35.035156 L 57.414062 35.035156 L 57.414062 37.871094 C 57.074219 37.882812 56.738281 37.988281 56.402344 38.171875 C 56.347656 37.144531 56.316406 36.101562 56.3125 35.035156 M 57.53125 31.808594 C 57.871094 31.800781 58.210938 31.699219 58.542969 31.511719 C 58.597656 32.535156 58.628906 33.582031 58.632812 34.644531 L 57.53125 34.644531 Z M 58.632812 35.035156 C 58.628906 36.101562 58.597656 37.144531 58.546875 38.164062 C 58.210938 37.980469 57.875 37.882812 57.53125 37.871094 L 57.53125 35.035156 Z M 56.421875 38.554688 C 56.746094 38.371094 57.078125 38.273438 57.410156 38.261719 L 57.410156 41.589844 C 57.179688 41.609375 56.957031 41.742188 56.742188 41.988281 C 56.601562 40.878906 56.496094 39.734375 56.421875 38.5625 M 56.628906 42.117188 C 56.445312 42.363281 56.273438 42.6875 56.117188 43.078125 C 55.820312 41.988281 55.578125 40.742188 55.414062 39.378906 C 55.707031 39.054688 56.003906 38.800781 56.304688 38.609375 C 56.378906 39.808594 56.488281 40.980469 56.628906 42.105469 M 57.53125 38.253906 C 57.863281 38.261719 58.195312 38.363281 58.523438 38.542969 C 58.449219 39.71875 58.34375 40.863281 58.203125 41.972656 C 57.992188 41.734375 57.765625 41.597656 57.53125 41.582031 Z M 58.640625 38.609375 C 58.941406 38.800781 59.242188 39.054688 59.53125 39.378906 C 59.367188 40.742188 59.128906 41.988281 58.832031 43.078125 C 58.675781 42.679688 58.5 42.363281 58.316406 42.117188 C 58.457031 40.988281 58.566406 39.816406 58.640625 38.617188 M 58.664062 38.226562 C 58.71875 37.179688 58.75 36.117188 58.753906 35.035156 L 59.789062 35.035156 C 59.785156 36.425781 59.707031 37.761719 59.570312 39.007812 C 59.273438 38.671875 58.96875 38.417969 58.664062 38.226562 M 58.753906 34.644531 C 58.75 33.5625 58.71875 32.492188 58.660156 31.445312 C 58.96875 31.265625 59.269531 31 59.5625 30.664062 C 59.703125 31.929688 59.78125 33.265625 59.789062 34.644531 L 58.75 34.644531 Z M 60.464844 28.957031 C 60.199219 29.429688 59.917969 29.835938 59.632812 30.175781 C 59.464844 28.785156 59.222656 27.511719 58.921875 26.394531 C 59.054688 26.019531 59.175781 25.59375 59.28125 25.121094 C 59.765625 26.074219 60.171875 27.394531 60.464844 28.957031 M 57.800781 23.539062 C 58.296875 23.695312 58.761719 24.175781 59.175781 24.929688 C 59.078125 25.367188 58.960938 25.765625 58.835938 26.101562 C 58.542969 25.085938 58.191406 24.210938 57.796875 23.539062 M 58.824219 26.636719 C 59.121094 27.71875 59.355469 28.964844 59.523438 30.308594 C 59.234375 30.628906 58.941406 30.882812 58.640625 31.074219 C 58.566406 29.882812 58.457031 28.710938 58.316406 27.59375 C 58.496094 27.347656 58.671875 27.027344 58.828125 26.648438 M 58.203125 27.71875 C 58.34375 28.820312 58.449219 29.964844 58.523438 31.128906 C 58.195312 31.308594 57.863281 31.410156 57.53125 31.417969 L 57.53125 28.109375 C 57.765625 28.09375 57.992188 27.957031 58.203125 27.71875 M 56.746094 27.710938 C 56.957031 27.957031 57.183594 28.09375 57.410156 28.109375 L 57.410156 31.429688 C 57.078125 31.417969 56.75 31.320312 56.421875 31.136719 C 56.496094 29.964844 56.601562 28.820312 56.746094 27.710938 M 56.402344 31.511719 C 56.738281 31.691406 57.074219 31.792969 57.414062 31.808594 L 57.414062 34.644531 L 56.316406 34.644531 C 56.316406 33.582031 56.351562 32.535156 56.40625 31.511719 M 55.15625 35.035156 L 56.195312 35.035156 C 56.195312 36.128906 56.226562 37.191406 56.285156 38.226562 C 55.976562 38.417969 55.671875 38.679688 55.375 39.015625 C 55.238281 37.761719 55.164062 36.425781 55.15625 35.035156 M 55.304688 39.515625 C 55.472656 40.917969 55.714844 42.207031 56.023438 43.324219 C 55.890625 43.699219 55.773438 44.117188 55.667969 44.589844 C 55.183594 43.644531 54.773438 42.335938 54.476562 40.734375 C 54.742188 40.261719 55.019531 39.863281 55.304688 39.515625 M 55.773438 44.78125 C 55.871094 44.34375 55.980469 43.960938 56.105469 43.617188 C 56.398438 44.625 56.746094 45.480469 57.140625 46.152344 C 56.652344 46.007812 56.1875 45.523438 55.773438 44.78125 M 56.195312 43.371094 C 56.34375 43.007812 56.503906 42.707031 56.675781 42.472656 C 56.839844 43.6875 57.042969 44.851562 57.285156 45.960938 C 56.867188 45.296875 56.5 44.414062 56.195312 43.371094 M 57.410156 45.859375 C 57.164062 44.753906 56.957031 43.570312 56.789062 42.335938 C 56.984375 42.117188 57.195312 41.988281 57.410156 41.972656 Z M 57.53125 41.972656 C 57.746094 41.988281 57.957031 42.117188 58.15625 42.335938 C 57.992188 43.570312 57.78125 44.753906 57.53125 45.871094 Z M 58.269531 42.472656 C 58.441406 42.699219 58.605469 43 58.75 43.363281 C 58.441406 44.414062 58.074219 45.296875 57.65625 45.960938 C 57.902344 44.859375 58.105469 43.6875 58.269531 42.472656 M 57.804688 46.152344 C 58.199219 45.480469 58.550781 44.625 58.84375 43.617188 C 58.96875 43.953125 59.078125 44.34375 59.175781 44.769531 C 58.761719 45.515625 58.296875 46.007812 57.804688 46.160156 M 59.277344 44.570312 C 59.175781 44.105469 59.054688 43.6875 58.921875 43.316406 C 59.226562 42.199219 59.472656 40.917969 59.640625 39.507812 C 59.925781 39.84375 60.203125 40.246094 60.46875 40.71875 C 60.175781 42.289062 59.765625 43.617188 59.277344 44.5625 M 60.523438 40.390625 C 60.253906 39.90625 59.96875 39.5 59.683594 39.152344 C 59.820312 37.855469 59.898438 36.472656 59.910156 35.035156 L 60.96875 35.035156 C 60.957031 36.972656 60.796875 38.800781 60.523438 40.390625 " style=" stroke:none;fill-rule:nonzero;fill:rgb(91.764706%,33.333334%,1.568628%);fill-opacity:1;"/><path d="M 57.835938 37.554688 L 58.71875 38.863281 L 58.300781 35.972656 L 59.4375 35.0625 L 59.4375 34.628906 L 58.300781 33.710938 L 58.734375 30.753906 L 57.832031 32.128906 L 57.550781 26.875 L 57.390625 26.875 L 57.113281 32.117188 L 56.214844 30.753906 L 56.640625 33.71875 L 55.507812 34.628906 L 55.507812 35.054688 L 56.640625 35.945312 L 56.230469 38.871094 L 57.113281 37.570312 L 57.390625 42.808594 L 57.546875 42.808594 Z M 57.835938 37.554688 " style=" stroke:none;fill-rule:nonzero;fill:rgb(100%,100%,100%);fill-opacity:1;"/><path d="M 57.476562 27.164062 L 57.769531 32.527344 L 58.558594 31.308594 L 58.1875 33.882812 L 59.375 34.835938 L 58.1875 35.800781 L 58.546875 38.308594 L 57.769531 37.164062 L 57.46875 42.472656 L 57.179688 37.164062 L 56.402344 38.316406 L 56.757812 35.800781 L 55.574219 34.835938 L 56.757812 33.882812 L 56.390625 31.308594 L 57.179688 32.519531 Z M 57.476562 27.164062 " style=" stroke:none;fill-rule:nonzero;fill:rgb(0%,60.000002%,26.666668%);fill-opacity:1;"/></g></svg>