<svg xmlns="http://www.w3.org/2000/svg" width="70" height="70" version="1.1" viewBox="0 0 70 70"><g id="surface1"><path d="M 0 0 C 23.101562 0 46.199219 0 70 0 C 70 23.101562 70 46.199219 70 70 C 46.898438 70 23.800781 70 0 70 C 0 46.898438 0 23.800781 0 0 Z M 0 0" style="stroke:none;fill-rule:nonzero;fill:#fefefe;fill-opacity:1"/><path d="M 41.378906 17.71875 C 41.519531 17.722656 41.660156 17.722656 41.808594 17.722656 C 42.03125 17.722656 42.03125 17.722656 42.257812 17.722656 C 42.753906 17.722656 43.246094 17.726562 43.738281 17.730469 C 44.082031 17.730469 44.425781 17.734375 44.765625 17.734375 C 45.667969 17.734375 46.566406 17.738281 47.46875 17.746094 C 48.386719 17.75 49.304688 17.75 50.226562 17.753906 C 52.027344 17.757812 53.832031 17.765625 55.636719 17.773438 C 55.550781 18.117188 55.464844 18.460938 55.382812 18.804688 C 55.335938 18.996094 55.285156 19.1875 55.238281 19.386719 C 55.007812 20.304688 54.753906 21.210938 54.5 22.121094 C 54.386719 22.523438 54.277344 22.925781 54.164062 23.332031 C 54.105469 23.535156 54.050781 23.738281 53.992188 23.953125 C 53.820312 24.574219 53.648438 25.199219 53.476562 25.824219 C 53.394531 26.128906 53.394531 26.128906 53.308594 26.4375 C 53.207031 26.820312 53.101562 27.203125 52.996094 27.585938 C 52.757812 28.464844 52.503906 29.324219 52.210938 30.179688 C 51.78125 31.46875 51.40625 32.777344 51.035156 34.09375 C 50.960938 34.351562 50.886719 34.609375 50.8125 34.875 C 50.65625 35.421875 50.5 35.972656 50.34375 36.523438 C 49.976562 37.808594 49.613281 39.097656 49.246094 40.382812 C 49.164062 40.667969 49.082031 40.953125 49 41.242188 C 48.316406 43.636719 47.628906 46.035156 46.933594 48.425781 C 46.835938 48.773438 46.734375 49.121094 46.632812 49.464844 C 46.5 49.9375 46.363281 50.40625 46.226562 50.875 C 46.148438 51.132812 46.074219 51.390625 46 51.65625 C 45.816406 52.226562 45.816406 52.226562 45.636719 52.445312 C 45.28125 52.464844 44.921875 52.472656 44.566406 52.472656 C 44.214844 52.472656 44.214844 52.472656 43.859375 52.472656 C 43.597656 52.472656 43.339844 52.472656 43.078125 52.46875 C 42.804688 52.46875 42.535156 52.46875 42.261719 52.46875 C 41.519531 52.46875 40.777344 52.46875 40.039062 52.46875 C 39.261719 52.464844 38.488281 52.464844 37.714844 52.464844 C 36.25 52.464844 34.78125 52.464844 33.316406 52.460938 C 31.644531 52.457031 29.976562 52.457031 28.304688 52.457031 C 24.871094 52.453125 21.433594 52.449219 18 52.445312 C 18.332031 51.597656 18.777344 50.898438 19.261719 50.167969 C 19.445312 49.890625 19.625 49.613281 19.808594 49.335938 C 19.949219 49.125 19.949219 49.125 20.089844 48.910156 C 20.503906 48.28125 20.917969 47.648438 21.328125 47.015625 C 21.410156 46.890625 21.492188 46.765625 21.574219 46.636719 C 22.265625 45.578125 22.949219 44.511719 23.636719 43.449219 C 24.800781 41.636719 25.972656 39.835938 27.148438 38.035156 C 28.273438 36.308594 29.394531 34.578125 30.511719 32.84375 C 31.234375 31.71875 31.964844 30.597656 32.695312 29.476562 C 33.375 28.429688 34.050781 27.382812 34.726562 26.332031 C 35.652344 24.894531 36.582031 23.460938 37.511719 22.03125 C 37.859375 21.5 38.207031 20.964844 38.554688 20.429688 C 38.648438 20.285156 38.738281 20.144531 38.832031 20 C 39.007812 19.730469 39.183594 19.457031 39.359375 19.1875 C 40.308594 17.726562 40.308594 17.726562 41.378906 17.71875 Z M 41.378906 17.71875" style="stroke:none;fill-rule:nonzero;fill:#02a653;fill-opacity:1"/><path d="M 38.183594 22.890625 C 39.933594 23.039062 41.53125 24.207031 42.910156 25.453125 C 43.132812 25.65625 43.132812 25.65625 43.359375 25.859375 C 45.242188 27.800781 46.359375 30.613281 46.6875 33.546875 C 46.882812 36.933594 46.1875 39.832031 44.546875 42.570312 C 44.410156 42.800781 44.277344 43.03125 44.136719 43.269531 C 43.027344 44.636719 41.664062 45.816406 40.183594 46.519531 C 39.976562 46.617188 39.976562 46.617188 39.769531 46.71875 C 37.199219 47.753906 34.292969 47.425781 31.878906 46.019531 C 29.929688 44.710938 28.53125 42.941406 27.453125 40.59375 C 27.378906 40.445312 27.304688 40.296875 27.226562 40.140625 C 27.054688 39.601562 27.121094 39.382812 27.273438 38.839844 C 27.476562 38.464844 27.476562 38.464844 27.730469 38.097656 C 27.820312 37.960938 27.914062 37.824219 28.007812 37.683594 C 28.105469 37.539062 28.207031 37.394531 28.308594 37.25 C 28.507812 36.953125 28.707031 36.65625 28.910156 36.359375 C 29.003906 36.214844 29.101562 36.074219 29.199219 35.929688 C 29.488281 35.5 29.761719 35.0625 30.035156 34.617188 C 30.714844 33.503906 31.453125 32.445312 32.183594 31.378906 C 32.542969 31.453125 32.902344 31.523438 33.273438 31.597656 C 33.273438 32.394531 33.273438 33.191406 33.273438 34.011719 C 33.394531 33.359375 33.511719 32.710938 33.636719 32.039062 C 34.183594 32.695312 34.183594 32.695312 34.546875 34.011719 C 33.644531 34.300781 32.746094 34.59375 31.816406 34.890625 C 32.460938 35.277344 32.964844 35.464844 33.652344 35.644531 C 34 35.769531 34 35.769531 34.546875 36.207031 C 34.304688 36.859375 34.066406 37.511719 33.816406 38.183594 C 34.046875 38.074219 34.277344 37.964844 34.511719 37.851562 C 35 37.621094 35.28125 37.523438 35.816406 37.523438 C 36.179688 39.914062 36.179688 39.914062 36.546875 42.351562 C 36.785156 40.757812 37.027344 39.164062 37.273438 37.523438 C 37.949219 37.6875 38.46875 37.859375 39.089844 38.183594 C 39.035156 37.984375 38.976562 37.785156 38.921875 37.578125 C 38.777344 37.046875 38.652344 36.527344 38.546875 35.988281 C 38.710938 35.921875 38.710938 35.921875 38.878906 35.859375 C 39.023438 35.800781 39.167969 35.746094 39.316406 35.6875 C 39.460938 35.628906 39.605469 35.574219 39.753906 35.515625 C 40.15625 35.339844 40.527344 35.132812 40.910156 34.890625 C 40.753906 34.851562 40.597656 34.808594 40.4375 34.769531 C 40.136719 34.6875 40.136719 34.6875 39.828125 34.601562 C 39.628906 34.546875 39.429688 34.496094 39.222656 34.441406 C 39.058594 34.371094 38.894531 34.304688 38.726562 34.230469 C 38.507812 33.433594 38.605469 33.28125 38.898438 32.546875 C 38.96875 32.367188 39.035156 32.191406 39.105469 32.007812 C 39.160156 31.871094 39.214844 31.738281 39.273438 31.597656 C 39.125 31.695312 39.125 31.695312 38.972656 31.789062 C 38.777344 31.914062 38.777344 31.914062 38.578125 32.039062 C 38.449219 32.117188 38.320312 32.199219 38.191406 32.285156 C 37.816406 32.476562 37.816406 32.476562 37.273438 32.476562 C 37.03125 30.882812 36.792969 29.289062 36.546875 27.648438 C 36.304688 29.242188 36.066406 30.835938 35.816406 32.476562 C 34.910156 32.257812 34.910156 32.257812 34.546875 31.816406 C 34.90625 31.816406 35.265625 31.816406 35.636719 31.816406 C 35.636719 31.671875 35.636719 31.527344 35.636719 31.378906 C 35.4375 31.382812 35.238281 31.386719 35.035156 31.394531 C 34.363281 31.378906 34.363281 31.378906 33.816406 31.160156 C 33.863281 30.777344 33.914062 30.390625 33.964844 30.007812 C 33.992188 29.792969 34.019531 29.582031 34.050781 29.359375 C 34.1875 28.71875 34.371094 28.363281 34.726562 27.867188 C 35.207031 28.011719 35.6875 28.15625 36.183594 28.308594 C 36.183594 28.089844 36.183594 27.871094 36.183594 27.648438 C 35.761719 27.648438 35.34375 27.648438 34.910156 27.648438 C 35.183594 26.648438 35.628906 25.824219 36.183594 25.015625 C 36.242188 25.015625 36.300781 25.015625 36.363281 25.015625 C 36.363281 25.667969 36.363281 26.320312 36.363281 26.992188 C 36.484375 26.992188 36.605469 26.992188 36.726562 26.992188 C 36.71875 26.816406 36.710938 26.640625 36.703125 26.460938 C 36.640625 24.320312 36.640625 24.320312 36.988281 23.535156 C 37.46875 23.023438 37.578125 22.945312 38.183594 22.890625 Z M 38.183594 22.890625" style="stroke:none;fill-rule:nonzero;fill:#fcfbf8;fill-opacity:1"/><path d="M 37.453125 23.039062 C 39.511719 22.71875 41.308594 24.003906 42.910156 25.453125 C 43.132812 25.65625 43.132812 25.65625 43.359375 25.859375 C 45.242188 27.800781 46.359375 30.613281 46.6875 33.546875 C 46.882812 36.933594 46.1875 39.832031 44.546875 42.570312 C 44.410156 42.800781 44.277344 43.03125 44.136719 43.269531 C 43.027344 44.636719 41.664062 45.816406 40.183594 46.519531 C 39.976562 46.617188 39.976562 46.617188 39.769531 46.71875 C 37.199219 47.753906 34.292969 47.425781 31.878906 46.019531 C 29.71875 44.570312 28.085938 42.453125 27.089844 39.71875 C 27.136719 39.238281 27.136719 39.238281 27.273438 38.839844 C 27.453125 38.730469 27.453125 38.730469 27.636719 38.621094 C 27.707031 38.871094 27.777344 39.117188 27.851562 39.375 C 28.105469 40.203125 28.105469 40.203125 28.671875 40.363281 C 28.808594 40.367188 28.949219 40.371094 29.089844 40.375 C 28.972656 40.664062 28.851562 40.957031 28.726562 41.253906 C 29.511719 42.625 30.34375 43.851562 31.636719 44.546875 C 31.90625 44.4375 31.90625 44.4375 32.183594 44.324219 C 32.183594 44.542969 32.183594 44.761719 32.183594 44.984375 C 33.253906 45.613281 34.277344 46.046875 35.453125 46.300781 C 35.542969 45.867188 35.542969 45.867188 35.636719 45.421875 C 35.816406 45.496094 35.996094 45.566406 36.183594 45.644531 C 36.242188 44.773438 36.300781 43.90625 36.363281 43.007812 C 36.484375 43.007812 36.605469 43.007812 36.726562 43.007812 C 36.816406 44.203125 36.816406 44.203125 36.910156 45.421875 C 37.09375 45.074219 37.273438 44.71875 37.453125 44.367188 C 37.554688 44.171875 37.65625 43.976562 37.761719 43.773438 C 38.042969 43.234375 38.042969 43.234375 38 42.570312 C 37.460938 42.460938 37.460938 42.460938 36.910156 42.351562 C 36.910156 42.132812 36.910156 41.917969 36.910156 41.691406 C 37.390625 41.765625 37.867188 41.835938 38.363281 41.914062 C 38.664062 40.898438 38.964844 39.882812 39.273438 38.839844 C 39.394531 38.839844 39.511719 38.839844 39.636719 38.839844 C 39.527344 40.046875 39.351562 41.175781 39.089844 42.351562 C 39.511719 42.566406 39.929688 42.785156 40.363281 43.007812 C 40.058594 43.257812 40.058594 43.257812 39.636719 43.449219 C 39.15625 43.242188 39.15625 43.242188 38.726562 43.007812 C 38.507812 43.433594 38.292969 43.859375 38.078125 44.285156 C 37.960938 44.523438 37.839844 44.757812 37.714844 45.003906 C 37.382812 45.632812 37.382812 45.632812 37.636719 46.300781 C 39.335938 45.84375 39.335938 45.84375 40.910156 44.984375 C 40.910156 44.765625 40.910156 44.550781 40.910156 44.324219 C 41.105469 44.355469 41.105469 44.355469 41.304688 44.382812 C 42.308594 44.273438 42.976562 43.199219 43.636719 42.351562 C 44.007812 41.742188 44.363281 41.15625 44.363281 40.375 C 44.542969 40.375 44.722656 40.375 44.910156 40.375 C 45.347656 38.710938 45.683594 37.035156 46 35.328125 C 45.039062 35.328125 44.078125 35.328125 43.089844 35.328125 C 43.097656 35.617188 43.105469 35.910156 43.113281 36.207031 C 43.113281 37.234375 42.996094 38.082031 42.726562 39.058594 C 42.097656 39.566406 41.820312 39.507812 41.089844 39.371094 C 40.289062 39.167969 39.917969 39.019531 39.453125 38.183594 C 39.457031 37.636719 39.457031 37.636719 39.523438 37.042969 C 39.542969 36.847656 39.5625 36.648438 39.582031 36.445312 C 39.601562 36.292969 39.617188 36.144531 39.636719 35.988281 C 39.757812 35.988281 39.875 35.988281 40 35.988281 C 40.011719 36.835938 40.007812 37.582031 39.816406 38.402344 C 39.941406 38.429688 40.066406 38.460938 40.195312 38.488281 C 40.441406 38.546875 40.441406 38.546875 40.691406 38.605469 C 40.9375 38.664062 40.9375 38.664062 41.183594 38.722656 C 41.636719 38.839844 41.636719 38.839844 42.183594 39.058594 C 42.363281 37.828125 42.542969 36.597656 42.726562 35.328125 C 42.425781 35.328125 42.128906 35.328125 41.816406 35.328125 C 41.816406 35.113281 41.816406 34.894531 41.816406 34.671875 C 42.117188 34.671875 42.417969 34.671875 42.726562 34.671875 C 42.546875 33.511719 42.367188 32.355469 42.183594 31.160156 C 41.800781 31.269531 41.800781 31.269531 41.410156 31.378906 C 40.839844 31.539062 40.414062 31.597656 39.816406 31.597656 C 39.847656 31.707031 39.878906 31.816406 39.910156 31.929688 C 40.039062 32.703125 40.011719 33.441406 40 34.230469 C 39.878906 34.230469 39.761719 34.230469 39.636719 34.230469 C 39.503906 33.25 39.390625 32.355469 39.589844 31.378906 C 40.269531 30.652344 41.121094 30.621094 42 30.5 C 42 30.355469 42 30.210938 42 30.0625 C 42.15625 30.039062 42.316406 30.015625 42.476562 29.992188 C 43.121094 29.835938 43.601562 29.550781 44.183594 29.183594 C 44.300781 29.183594 44.421875 29.183594 44.546875 29.183594 C 43.371094 27.199219 43.371094 27.199219 41.816406 25.675781 C 41.390625 25.738281 41.109375 25.882812 40.726562 26.113281 C 40.789062 25.75 40.847656 25.390625 40.910156 25.015625 C 40.492188 24.828125 40.078125 24.640625 39.660156 24.453125 C 39.539062 24.398438 39.421875 24.34375 39.300781 24.289062 C 38.992188 24.152344 38.679688 24.035156 38.363281 23.917969 C 38.242188 23.992188 38.125 24.0625 38 24.136719 C 37.878906 24.210938 37.761719 24.28125 37.636719 24.355469 C 37.515625 24.285156 37.394531 24.210938 37.273438 24.136719 C 37.273438 24.28125 37.273438 24.425781 37.273438 24.578125 C 37.152344 24.578125 37.03125 24.578125 36.910156 24.578125 C 37.019531 23.925781 37.136719 23.617188 37.453125 23.039062 Z M 37.453125 23.039062" style="stroke:none;fill-rule:nonzero;fill:#ed6f39;fill-opacity:1"/><path d="M 32.183594 31.378906 C 32.722656 31.488281 32.722656 31.488281 33.273438 31.597656 C 33.273438 32.394531 33.273438 33.191406 33.273438 34.011719 C 33.394531 33.359375 33.511719 32.710938 33.636719 32.039062 C 34.183594 32.695312 34.183594 32.695312 34.546875 34.011719 C 33.644531 34.300781 32.746094 34.59375 31.816406 34.890625 C 32.460938 35.277344 32.964844 35.464844 33.652344 35.644531 C 34 35.769531 34 35.769531 34.546875 36.207031 C 34.183594 37.183594 34.183594 37.183594 33.816406 38.183594 C 34.417969 38.183594 35.019531 38.183594 35.636719 38.183594 C 35.636719 38.328125 35.636719 38.472656 35.636719 38.621094 C 34.738281 38.730469 34.738281 38.730469 33.816406 38.839844 C 33.933594 39.3125 34.050781 39.78125 34.171875 40.253906 C 34.269531 40.644531 34.269531 40.644531 34.367188 41.046875 C 34.492188 41.660156 34.492188 41.660156 34.726562 41.914062 C 35.074219 41.890625 35.074219 41.890625 35.464844 41.816406 C 35.703125 41.777344 35.9375 41.734375 36.183594 41.691406 C 36.183594 41.910156 36.183594 42.128906 36.183594 42.351562 C 35.550781 42.460938 35.550781 42.460938 34.910156 42.570312 C 35.269531 43.511719 35.628906 44.453125 36 45.421875 C 35.878906 45.421875 35.761719 45.421875 35.636719 45.421875 C 35.546875 45.859375 35.546875 45.859375 35.453125 46.300781 C 34.105469 46.222656 33.171875 45.785156 32 44.984375 C 32.058594 44.765625 32.121094 44.550781 32.183594 44.324219 C 31.941406 44.472656 31.703125 44.617188 31.453125 44.765625 C 29.199219 42.664062 29.199219 42.664062 28.546875 41.253906 C 28.605469 41.035156 28.664062 40.820312 28.726562 40.59375 C 28.613281 40.546875 28.503906 40.496094 28.386719 40.445312 C 27.871094 40.0625 27.785156 39.757812 27.636719 39.058594 C 27.707031 38.058594 28.042969 37.546875 28.578125 36.796875 C 29.070312 36.101562 29.554688 35.410156 30 34.671875 C 30.691406 33.539062 31.4375 32.460938 32.183594 31.378906 Z M 32.183594 31.378906" style="stroke:none;fill-rule:nonzero;fill:#f3713d;fill-opacity:1"/><path d="M 38.363281 22.820312 C 38.363281 22.894531 38.363281 22.964844 38.363281 23.039062 C 38.226562 23.054688 38.085938 23.066406 37.941406 23.082031 C 37.425781 23.207031 37.425781 23.207031 37.160156 23.734375 C 36.878906 24.4375 36.820312 24.964844 36.785156 25.742188 C 36.773438 25.976562 36.761719 26.210938 36.746094 26.453125 C 36.742188 26.628906 36.734375 26.808594 36.726562 26.992188 C 36.605469 26.992188 36.488281 26.992188 36.363281 26.992188 C 36.304688 26.484375 36.242188 25.976562 36.183594 25.453125 C 36.003906 25.738281 35.824219 26.019531 35.648438 26.304688 C 35.546875 26.460938 35.449219 26.621094 35.347656 26.78125 C 35.082031 27.199219 35.082031 27.199219 34.910156 27.648438 C 35.328125 27.648438 35.75 27.648438 36.183594 27.648438 C 36.183594 27.867188 36.183594 28.082031 36.183594 28.308594 C 35.703125 28.234375 35.222656 28.164062 34.726562 28.085938 C 34.265625 29.101562 34.027344 30.039062 33.816406 31.160156 C 34.417969 31.230469 35.019531 31.304688 35.636719 31.378906 C 35.636719 31.523438 35.636719 31.667969 35.636719 31.816406 C 35.277344 31.925781 35.277344 31.925781 34.910156 32.039062 C 35.210938 32.183594 35.507812 32.328125 35.816406 32.476562 C 35.8125 32.261719 35.808594 32.046875 35.800781 31.824219 C 35.800781 30.886719 35.9375 30.003906 36.089844 29.089844 C 36.117188 28.929688 36.144531 28.769531 36.167969 28.601562 C 36.234375 28.210938 36.296875 27.820312 36.363281 27.429688 C 36.484375 27.5 36.605469 27.574219 36.726562 27.648438 C 36.84375 28.296875 36.941406 28.929688 37.023438 29.582031 C 37.046875 29.761719 37.070312 29.941406 37.097656 30.128906 C 37.203125 30.929688 37.273438 31.660156 37.273438 32.476562 C 38.351562 31.933594 38.351562 31.933594 39.453125 31.378906 C 39.210938 32.257812 38.96875 33.136719 38.726562 34.011719 C 39.6875 34.300781 40.648438 34.59375 41.636719 34.890625 C 40.992188 35.28125 40.464844 35.484375 39.773438 35.6875 C 39.480469 35.769531 39.480469 35.769531 39.179688 35.859375 C 39.03125 35.902344 38.878906 35.945312 38.726562 35.988281 C 38.785156 36.183594 38.839844 36.375 38.898438 36.578125 C 39.089844 37.304688 39.089844 37.304688 39.273438 38.402344 C 38.613281 38.113281 37.953125 37.820312 37.273438 37.523438 C 37.25 37.789062 37.226562 38.058594 37.203125 38.332031 C 37.121094 39.234375 37.023438 40.136719 36.921875 41.035156 C 36.890625 41.277344 36.863281 41.523438 36.835938 41.773438 C 36.800781 41.964844 36.765625 42.15625 36.726562 42.351562 C 36.546875 42.460938 36.546875 42.460938 36.363281 42.570312 C 36.273438 41.976562 36.179688 41.382812 36.089844 40.789062 C 36.066406 40.621094 36.039062 40.453125 36.011719 40.28125 C 35.871094 39.347656 35.789062 38.476562 35.816406 37.523438 C 35.628906 37.621094 35.628906 37.621094 35.433594 37.722656 C 35.269531 37.808594 35.101562 37.890625 34.933594 37.976562 C 34.765625 38.058594 34.601562 38.144531 34.433594 38.230469 C 34 38.402344 34 38.402344 33.636719 38.183594 C 33.875 37.53125 34.117188 36.878906 34.363281 36.207031 C 33.71875 35.816406 33.195312 35.613281 32.5 35.410156 C 32.304688 35.355469 32.109375 35.296875 31.90625 35.238281 C 31.757812 35.195312 31.609375 35.152344 31.453125 35.109375 C 31.917969 34.550781 32.273438 34.503906 32.910156 34.328125 C 33.65625 34.132812 33.65625 34.132812 34.363281 33.792969 C 34.09375 33.03125 34.09375 33.03125 33.816406 32.257812 C 33.636719 32.910156 33.457031 33.558594 33.273438 34.230469 C 33.210938 34.230469 33.152344 34.230469 33.089844 34.230469 C 33.074219 33.320312 33.09375 32.488281 33.273438 31.597656 C 32.914062 31.527344 32.550781 31.453125 32.183594 31.378906 C 32.480469 30.871094 32.78125 30.367188 33.089844 29.84375 C 32.730469 29.953125 32.730469 29.953125 32.363281 30.0625 C 33.144531 28.792969 33.945312 27.539062 34.75 26.292969 C 34.859375 26.121094 34.972656 25.949219 35.085938 25.773438 C 35.296875 25.445312 35.507812 25.117188 35.722656 24.789062 C 35.953125 24.433594 36.179688 24.074219 36.40625 23.714844 C 37.019531 22.84375 37.453125 22.773438 38.363281 22.820312 Z M 38.363281 22.820312" style="stroke:none;fill-rule:nonzero;fill:#06a855;fill-opacity:1"/><path d="M 43.089844 35.328125 C 44.050781 35.328125 45.011719 35.328125 46 35.328125 C 45.808594 37.148438 45.550781 38.710938 44.910156 40.375 C 44.730469 40.375 44.550781 40.375 44.363281 40.375 C 44.453125 40.703125 44.453125 40.703125 44.546875 41.035156 C 43.980469 42.375 42.875 43.765625 41.816406 44.546875 C 41.3125 44.484375 41.3125 44.484375 40.910156 44.324219 C 40.96875 44.542969 41.027344 44.761719 41.089844 44.984375 C 39.960938 45.835938 38.996094 46.300781 37.636719 46.300781 C 37.636719 46.15625 37.636719 46.011719 37.636719 45.863281 C 37.515625 45.789062 37.394531 45.71875 37.273438 45.644531 C 37.753906 44.703125 38.234375 43.761719 38.726562 42.789062 C 39.085938 42.933594 39.449219 43.078125 39.816406 43.230469 C 40 43.230469 40.179688 43.230469 40.363281 43.230469 C 40.410156 43.117188 40.453125 43.003906 40.5 42.886719 C 40.800781 42.175781 41.121094 41.472656 41.441406 40.773438 C 41.507812 40.632812 41.570312 40.492188 41.632812 40.347656 C 42.121094 39.304688 42.121094 39.304688 42.726562 39.058594 C 42.847656 37.828125 42.96875 36.597656 43.089844 35.328125 Z M 43.089844 35.328125" style="stroke:none;fill-rule:nonzero;fill:#f36b36;fill-opacity:1"/><path d="M 40 35.769531 C 39.878906 35.839844 39.761719 35.914062 39.636719 35.988281 C 39.625 36.339844 39.621094 36.691406 39.613281 37.042969 C 39.609375 37.238281 39.605469 37.4375 39.601562 37.636719 C 39.601562 38.238281 39.601562 38.238281 40 38.839844 C 40.480469 39.0625 40.480469 39.0625 41.023438 39.210938 C 41.203125 39.265625 41.386719 39.320312 41.574219 39.378906 C 41.714844 39.417969 41.855469 39.457031 42 39.5 C 41.738281 40.726562 41.238281 41.835938 40.546875 42.789062 C 40.203125 43 40.203125 43 39.816406 43.007812 C 39.519531 42.792969 39.21875 42.574219 38.910156 42.351562 C 39.148438 41.191406 39.390625 40.035156 39.636719 38.839844 C 39.515625 38.839844 39.394531 38.839844 39.273438 38.839844 C 39.238281 39.023438 39.203125 39.203125 39.167969 39.394531 C 39.117188 39.632812 39.070312 39.871094 39.023438 40.117188 C 38.953125 40.472656 38.953125 40.472656 38.882812 40.832031 C 38.726562 41.472656 38.726562 41.472656 38.363281 42.132812 C 37.882812 41.988281 37.402344 41.84375 36.910156 41.691406 C 36.910156 41.910156 36.910156 42.128906 36.910156 42.351562 C 37.269531 42.351562 37.628906 42.351562 38 42.351562 C 38.128906 42.703125 38.128906 42.703125 38.183594 43.230469 C 37.925781 43.890625 37.925781 43.890625 37.566406 44.601562 C 37.449219 44.835938 37.332031 45.074219 37.210938 45.316406 C 37.113281 45.496094 37.011719 45.675781 36.910156 45.863281 C 36.847656 45.863281 36.789062 45.863281 36.726562 45.863281 C 36.726562 44.921875 36.726562 43.980469 36.726562 43.007812 C 36.605469 43.007812 36.488281 43.007812 36.363281 43.007812 C 36.363281 43.949219 36.363281 44.890625 36.363281 45.863281 C 35.816406 45.199219 35.574219 44.679688 35.238281 43.847656 C 35.09375 43.488281 35.09375 43.488281 34.945312 43.125 C 34.839844 42.851562 34.839844 42.851562 34.726562 42.570312 C 34.910156 42.351562 34.910156 42.351562 35.558594 42.335938 C 35.761719 42.34375 35.96875 42.347656 36.183594 42.351562 C 36.183594 42.132812 36.183594 41.917969 36.183594 41.691406 C 35.640625 41.835938 35.101562 41.984375 34.546875 42.132812 C 34.421875 41.789062 34.300781 41.445312 34.183594 41.101562 C 34.113281 40.914062 34.046875 40.722656 33.976562 40.523438 C 33.816406 39.925781 33.789062 39.464844 33.816406 38.839844 C 34.449219 38.585938 34.976562 38.605469 35.636719 38.621094 C 35.636719 38.476562 35.636719 38.332031 35.636719 38.183594 C 35.15625 38.253906 34.675781 38.328125 34.183594 38.402344 C 34.363281 37.960938 34.363281 37.960938 34.796875 37.714844 C 35.273438 37.523438 35.273438 37.523438 35.816406 37.523438 C 36.058594 39.117188 36.296875 40.710938 36.546875 42.351562 C 36.785156 40.757812 37.027344 39.164062 37.273438 37.523438 C 37.949219 37.6875 38.46875 37.859375 39.089844 38.183594 C 39.007812 37.882812 39.007812 37.882812 38.921875 37.578125 C 38.777344 37.046875 38.648438 36.53125 38.546875 35.988281 C 39.386719 35.519531 39.386719 35.519531 40 35.769531 Z M 40 35.769531" style="stroke:none;fill-rule:nonzero;fill:#fbf9f6;fill-opacity:1"/><path d="M 27.453125 38.621094 C 27.816406 39.058594 27.816406 39.058594 27.964844 39.621094 C 28.039062 39.796875 28.109375 39.976562 28.183594 40.15625 C 28.644531 40.351562 28.644531 40.351562 29.089844 40.375 C 28.972656 40.664062 28.851562 40.957031 28.726562 41.253906 C 29.511719 42.625 30.34375 43.851562 31.636719 44.546875 C 31.816406 44.472656 31.996094 44.402344 32.183594 44.324219 C 32.183594 44.542969 32.183594 44.761719 32.183594 44.984375 C 33.253906 45.613281 34.277344 46.046875 35.453125 46.300781 C 35.515625 46.011719 35.574219 45.722656 35.636719 45.421875 C 35.816406 45.496094 35.996094 45.566406 36.183594 45.644531 C 36.242188 44.773438 36.300781 43.90625 36.363281 43.007812 C 36.484375 43.007812 36.605469 43.007812 36.726562 43.007812 C 36.816406 44.203125 36.816406 44.203125 36.910156 45.421875 C 37.09375 45.074219 37.273438 44.71875 37.453125 44.367188 C 37.554688 44.171875 37.65625 43.976562 37.761719 43.773438 C 38.042969 43.234375 38.042969 43.234375 38 42.570312 C 37.640625 42.5 37.28125 42.425781 36.910156 42.351562 C 36.910156 42.132812 36.910156 41.917969 36.910156 41.691406 C 37.390625 41.765625 37.867188 41.835938 38.363281 41.914062 C 38.664062 40.898438 38.964844 39.882812 39.273438 38.839844 C 39.394531 38.839844 39.511719 38.839844 39.636719 38.839844 C 39.527344 40.046875 39.351562 41.175781 39.089844 42.351562 C 39.511719 42.566406 39.929688 42.785156 40.363281 43.007812 C 40.058594 43.257812 40.058594 43.257812 39.636719 43.449219 C 39.15625 43.242188 39.15625 43.242188 38.726562 43.007812 C 38.507812 43.433594 38.292969 43.859375 38.078125 44.285156 C 37.960938 44.523438 37.839844 44.757812 37.714844 45.003906 C 37.382812 45.632812 37.382812 45.632812 37.636719 46.300781 C 39.335938 45.84375 39.335938 45.84375 40.910156 44.984375 C 40.910156 44.765625 40.910156 44.550781 40.910156 44.324219 C 41.039062 44.34375 41.171875 44.363281 41.304688 44.382812 C 42.308594 44.273438 42.976562 43.199219 43.636719 42.351562 C 44.007812 41.742188 44.363281 41.15625 44.363281 40.375 C 44.542969 40.375 44.722656 40.375 44.910156 40.375 C 44.910156 40.230469 44.910156 40.085938 44.910156 39.9375 C 45.148438 39.863281 45.390625 39.792969 45.636719 39.71875 C 45.726562 39.933594 45.726562 39.933594 45.816406 40.15625 C 44.570312 43.019531 42.703125 45.320312 40.183594 46.519531 C 39.976562 46.617188 39.976562 46.617188 39.769531 46.71875 C 37.199219 47.753906 34.292969 47.425781 31.878906 46.019531 C 29.722656 44.570312 28.082031 42.453125 27.089844 39.71875 C 27.183594 38.949219 27.183594 38.949219 27.453125 38.621094 Z M 27.453125 38.621094" style="stroke:none;fill-rule:nonzero;fill:#ec622a;fill-opacity:1"/><path d="M 37.636719 23.699219 C 38.894531 23.800781 39.949219 24.402344 41.089844 25.015625 C 41.089844 25.234375 41.089844 25.449219 41.089844 25.675781 C 41.191406 25.621094 41.292969 25.566406 41.398438 25.507812 C 41.816406 25.453125 41.816406 25.453125 42.253906 25.820312 C 43.9375 27.742188 43.9375 27.742188 44.546875 28.746094 C 44.546875 28.890625 44.546875 29.035156 44.546875 29.183594 C 44.230469 29.375 43.910156 29.5625 43.589844 29.746094 C 43.414062 29.851562 43.238281 29.957031 43.054688 30.0625 C 42.546875 30.28125 42.546875 30.28125 42.15625 30.289062 C 41.472656 29.832031 41.21875 28.828125 40.871094 28.019531 C 40.597656 27.417969 40.597656 27.417969 40.199219 27.210938 C 39.703125 27.210938 39.351562 27.394531 38.910156 27.648438 C 38.988281 27.890625 38.988281 27.890625 39.066406 28.136719 C 39.136719 28.351562 39.203125 28.566406 39.273438 28.789062 C 39.375 29.105469 39.375 29.105469 39.476562 29.425781 C 39.632812 30.046875 39.667969 30.519531 39.636719 31.160156 C 39.515625 31.160156 39.394531 31.160156 39.273438 31.160156 C 39.222656 30.957031 39.171875 30.753906 39.121094 30.542969 C 39.054688 30.28125 38.988281 30.019531 38.921875 29.746094 C 38.855469 29.484375 38.789062 29.222656 38.722656 28.953125 C 38.597656 28.339844 38.597656 28.339844 38.363281 28.085938 C 37.875 28.125 37.394531 28.222656 36.910156 28.308594 C 36.910156 28.089844 36.910156 27.871094 36.910156 27.648438 C 37.269531 27.578125 37.628906 27.503906 38 27.429688 C 37.925781 26.671875 37.800781 26.300781 37.433594 25.660156 C 37.089844 25.015625 37.089844 25.015625 37.136719 24.496094 C 37.179688 24.375 37.226562 24.257812 37.273438 24.136719 C 37.453125 24.136719 37.632812 24.136719 37.816406 24.136719 C 37.757812 23.992188 37.699219 23.847656 37.636719 23.699219 Z M 37.636719 23.699219" style="stroke:none;fill-rule:nonzero;fill:#f36c36;fill-opacity:1"/><path d="M 32.183594 31.378906 C 32.722656 31.488281 32.722656 31.488281 33.273438 31.597656 C 33.273438 32.394531 33.273438 33.191406 33.273438 34.011719 C 33.394531 33.359375 33.511719 32.710938 33.636719 32.039062 C 34.183594 32.695312 34.183594 32.695312 34.546875 34.011719 C 33.644531 34.300781 32.746094 34.59375 31.816406 34.890625 C 32.460938 35.277344 32.964844 35.464844 33.652344 35.644531 C 34 35.769531 34 35.769531 34.546875 36.207031 C 34.304688 36.785156 34.066406 37.367188 33.816406 37.960938 C 33.757812 37.960938 33.699219 37.960938 33.636719 37.960938 C 33.515625 37.3125 33.394531 36.660156 33.273438 35.988281 C 33.273438 36.785156 33.273438 37.582031 33.273438 38.402344 C 32.492188 38.617188 31.710938 38.835938 30.910156 39.058594 C 30.464844 37.722656 30.339844 36.765625 30.363281 35.328125 C 30.664062 35.328125 30.964844 35.328125 31.273438 35.328125 C 31.273438 35.113281 31.273438 34.894531 31.273438 34.671875 C 30.972656 34.671875 30.671875 34.671875 30.363281 34.671875 C 30.464844 33.753906 30.890625 33.222656 31.375 32.53125 C 31.601562 32.207031 31.601562 32.207031 31.832031 31.875 C 31.945312 31.710938 32.0625 31.546875 32.183594 31.378906 Z M 32.183594 31.378906" style="stroke:none;fill-rule:nonzero;fill:#fcfcfa;fill-opacity:1"/><path d="M 30.183594 34.230469 C 30.242188 34.375 30.300781 34.523438 30.363281 34.671875 C 30.664062 34.671875 30.964844 34.671875 31.273438 34.671875 C 31.273438 34.886719 31.273438 35.105469 31.273438 35.328125 C 30.972656 35.328125 30.671875 35.328125 30.363281 35.328125 C 30.542969 36.488281 30.722656 37.644531 30.910156 38.839844 C 31.628906 38.621094 32.347656 38.40625 33.089844 38.183594 C 33.089844 37.386719 33.089844 36.589844 33.089844 35.769531 C 33.210938 35.839844 33.332031 35.914062 33.453125 35.988281 C 33.570312 36.488281 33.570312 36.488281 33.660156 37.097656 C 33.703125 37.402344 33.703125 37.402344 33.75 37.710938 C 33.773438 37.867188 33.796875 38.019531 33.816406 38.183594 C 34.417969 38.183594 35.019531 38.183594 35.636719 38.183594 C 35.636719 38.328125 35.636719 38.472656 35.636719 38.621094 C 35.394531 38.636719 35.394531 38.636719 35.152344 38.652344 C 34.835938 38.679688 34.835938 38.679688 34.511719 38.703125 C 34.300781 38.71875 34.09375 38.734375 33.878906 38.75 C 33.304688 38.835938 32.890625 39.003906 32.363281 39.277344 C 31.941406 39.363281 31.515625 39.4375 31.089844 39.5 C 31.769531 41.175781 31.769531 41.175781 32.546875 42.789062 C 32.425781 42.933594 32.304688 43.078125 32.183594 43.230469 C 31.972656 42.847656 31.765625 42.460938 31.558594 42.078125 C 31.441406 41.863281 31.324219 41.648438 31.207031 41.429688 C 30.953125 40.90625 30.808594 40.527344 30.726562 39.9375 C 30.621094 39.988281 30.515625 40.042969 30.40625 40.097656 C 29.699219 40.421875 29.230469 40.621094 28.464844 40.484375 C 28 40.15625 28 40.15625 27.738281 39.648438 C 27.621094 38.96875 27.652344 38.628906 27.816406 37.960938 C 28.167969 37.375 28.167969 37.375 28.601562 36.769531 C 29.179688 35.949219 29.710938 35.144531 30.183594 34.230469 Z M 30.183594 34.230469" style="stroke:none;fill-rule:nonzero;fill:#f37541;fill-opacity:1"/><path d="M 43.089844 35.328125 C 44.050781 35.328125 45.011719 35.328125 46 35.328125 C 45.808594 37.148438 45.550781 38.710938 44.910156 40.375 C 44.28125 40.25 43.777344 40.058594 43.214844 39.703125 C 43.089844 39.625 42.960938 39.546875 42.832031 39.464844 C 42.738281 39.402344 42.644531 39.339844 42.546875 39.277344 C 42.570312 39.160156 42.59375 39.039062 42.617188 38.917969 C 42.851562 37.722656 42.996094 36.550781 43.089844 35.328125 Z M 43.089844 35.328125" style="stroke:none;fill-rule:nonzero;fill:#fefbfa;fill-opacity:1"/><path d="M 44.910156 29.625 C 45.597656 31.402344 45.84375 32.707031 45.816406 34.671875 C 44.917969 34.671875 44.019531 34.671875 43.089844 34.671875 C 43.003906 33.898438 42.914062 33.128906 42.824219 32.355469 C 42.753906 31.796875 42.671875 31.265625 42.546875 30.722656 C 42.835938 30.535156 43.128906 30.355469 43.421875 30.171875 C 43.664062 30.019531 43.664062 30.019531 43.914062 29.863281 C 44.363281 29.625 44.363281 29.625 44.910156 29.625 Z M 44.910156 29.625" style="stroke:none;fill-rule:nonzero;fill:#fefcfa;fill-opacity:1"/><path d="M 38.363281 22.820312 C 38.363281 22.894531 38.363281 22.964844 38.363281 23.039062 C 38.226562 23.054688 38.085938 23.066406 37.941406 23.082031 C 37.425781 23.207031 37.425781 23.207031 37.160156 23.734375 C 36.878906 24.4375 36.820312 24.964844 36.785156 25.742188 C 36.773438 25.976562 36.761719 26.210938 36.746094 26.453125 C 36.742188 26.628906 36.734375 26.808594 36.726562 26.992188 C 36.605469 26.992188 36.488281 26.992188 36.363281 26.992188 C 36.304688 26.484375 36.242188 25.976562 36.183594 25.453125 C 36.003906 25.738281 35.824219 26.019531 35.648438 26.304688 C 35.546875 26.460938 35.449219 26.621094 35.347656 26.78125 C 35.082031 27.199219 35.082031 27.199219 34.910156 27.648438 C 35.328125 27.648438 35.75 27.648438 36.183594 27.648438 C 36.183594 27.867188 36.183594 28.082031 36.183594 28.308594 C 35.703125 28.234375 35.222656 28.164062 34.726562 28.085938 C 34.265625 29.101562 34.027344 30.039062 33.816406 31.160156 C 34.417969 31.230469 35.019531 31.304688 35.636719 31.378906 C 35.636719 31.523438 35.636719 31.667969 35.636719 31.816406 C 35.035156 31.816406 34.4375 31.816406 33.816406 31.816406 C 33.796875 31.972656 33.773438 32.128906 33.75 32.289062 C 33.722656 32.492188 33.691406 32.695312 33.660156 32.902344 C 33.613281 33.203125 33.613281 33.203125 33.570312 33.511719 C 33.53125 33.675781 33.492188 33.84375 33.453125 34.011719 C 33.273438 34.121094 33.273438 34.121094 33.089844 34.230469 C 33.074219 33.320312 33.09375 32.488281 33.273438 31.597656 C 32.914062 31.527344 32.550781 31.453125 32.183594 31.378906 C 32.480469 30.871094 32.78125 30.367188 33.089844 29.84375 C 32.730469 29.953125 32.730469 29.953125 32.363281 30.0625 C 33.144531 28.792969 33.945312 27.539062 34.75 26.292969 C 34.859375 26.121094 34.972656 25.949219 35.085938 25.773438 C 35.296875 25.445312 35.507812 25.117188 35.722656 24.789062 C 35.953125 24.433594 36.179688 24.074219 36.40625 23.714844 C 37.019531 22.84375 37.453125 22.773438 38.363281 22.820312 Z M 38.363281 22.820312" style="stroke:none;fill-rule:nonzero;fill:#3d9c51;fill-opacity:1"/><path d="M 41.273438 25.453125 C 42.550781 25.605469 43.574219 27.320312 44.359375 28.421875 C 44.546875 28.746094 44.546875 28.746094 44.546875 29.183594 C 43.554688 29.726562 43.554688 29.726562 42.546875 30.28125 C 42.140625 29.628906 41.789062 29.003906 41.441406 28.308594 C 41.351562 28.121094 41.257812 27.9375 41.164062 27.746094 C 40.941406 27.28125 40.738281 26.8125 40.546875 26.332031 C 40.863281 25.878906 40.863281 25.878906 41.273438 25.453125 Z M 41.273438 25.453125" style="stroke:none;fill-rule:nonzero;fill:#fefaf7;fill-opacity:1"/><path d="M 30.726562 39.9375 C 30.796875 40.097656 30.867188 40.253906 30.941406 40.417969 C 31.441406 41.539062 31.941406 42.628906 32.546875 43.667969 C 32.183594 44.03125 31.824219 44.390625 31.453125 44.765625 C 29.199219 42.664062 29.199219 42.664062 28.546875 41.253906 C 28.726562 40.59375 28.726562 40.59375 29.328125 40.226562 C 30 39.9375 30 39.9375 30.726562 39.9375 Z M 30.726562 39.9375" style="stroke:none;fill-rule:nonzero;fill:#fefaf7;fill-opacity:1"/><path d="M 42.363281 39.9375 C 43.195312 40.054688 43.8125 40.332031 44.546875 40.816406 C 43.902344 42.363281 43.015625 43.582031 41.816406 44.546875 C 41.21875 44.476562 40.933594 44.207031 40.546875 43.667969 C 40.820312 42.980469 41.128906 42.332031 41.453125 41.679688 C 41.546875 41.492188 41.640625 41.304688 41.738281 41.109375 C 41.941406 40.714844 42.148438 40.324219 42.363281 39.9375 Z M 42.363281 39.9375" style="stroke:none;fill-rule:nonzero;fill:#fefaf8;fill-opacity:1"/><path d="M 37.453125 23.039062 C 39.511719 22.71875 41.308594 24.003906 42.910156 25.453125 C 43.058594 25.585938 43.207031 25.71875 43.359375 25.855469 C 43.867188 26.382812 44.21875 26.933594 44.601562 27.59375 C 44.730469 27.808594 44.855469 28.027344 44.988281 28.25 C 45.082031 28.414062 45.175781 28.578125 45.273438 28.746094 C 45.09375 28.890625 44.914062 29.035156 44.726562 29.183594 C 44.660156 29.09375 44.589844 29.003906 44.519531 28.910156 C 44.207031 28.5 43.894531 28.085938 43.578125 27.675781 C 43.472656 27.535156 43.363281 27.390625 43.25 27.242188 C 43.148438 27.105469 43.042969 26.96875 42.933594 26.828125 C 42.835938 26.703125 42.742188 26.574219 42.640625 26.445312 C 42.339844 26.0625 42.339844 26.0625 41.816406 25.675781 C 41.402344 25.75 41.101562 25.886719 40.726562 26.113281 C 40.789062 25.75 40.847656 25.390625 40.910156 25.015625 C 40.492188 24.828125 40.078125 24.640625 39.660156 24.453125 C 39.539062 24.398438 39.421875 24.34375 39.300781 24.289062 C 38.992188 24.152344 38.679688 24.035156 38.363281 23.917969 C 38.183594 24.027344 38.183594 24.027344 38 24.136719 C 37.820312 24.246094 37.820312 24.246094 37.636719 24.355469 C 37.515625 24.285156 37.394531 24.210938 37.273438 24.136719 C 37.273438 24.28125 37.273438 24.425781 37.273438 24.578125 C 37.152344 24.578125 37.03125 24.578125 36.910156 24.578125 C 37.019531 23.925781 37.136719 23.617188 37.453125 23.039062 Z M 37.453125 23.039062" style="stroke:none;fill-rule:nonzero;fill:#ed632c;fill-opacity:1"/><path d="M 36.726562 27.867188 C 36.789062 28.011719 36.847656 28.15625 36.910156 28.308594 C 37.449219 28.164062 37.988281 28.015625 38.546875 27.867188 C 39.378906 30.398438 39.378906 30.398438 39.273438 31.597656 C 39.042969 31.746094 38.8125 31.890625 38.578125 32.039062 C 38.449219 32.117188 38.320312 32.199219 38.191406 32.285156 C 37.816406 32.476562 37.816406 32.476562 37.273438 32.476562 C 37.179688 31.957031 37.089844 31.433594 37 30.914062 C 36.972656 30.765625 36.949219 30.621094 36.921875 30.472656 C 36.769531 29.589844 36.699219 28.769531 36.726562 27.867188 Z M 36.726562 27.867188" style="stroke:none;fill-rule:nonzero;fill:#fcfaf7;fill-opacity:1"/><path d="M 29.636719 35.328125 C 30.0625 36.105469 30.121094 36.773438 30.203125 37.675781 C 30.21875 37.828125 30.234375 37.980469 30.253906 38.140625 C 30.289062 38.519531 30.328125 38.898438 30.363281 39.277344 C 30.109375 39.46875 29.851562 39.65625 29.589844 39.839844 C 29.449219 39.945312 29.304688 40.050781 29.15625 40.15625 C 28.726562 40.375 28.726562 40.375 28.324219 40.332031 C 28 40.15625 28 40.15625 27.761719 39.664062 C 27.613281 38.957031 27.636719 38.65625 27.816406 37.960938 C 28.113281 37.472656 28.40625 37.027344 28.738281 36.578125 C 28.867188 36.394531 28.867188 36.394531 29 36.210938 C 29.210938 35.914062 29.421875 35.621094 29.636719 35.328125 Z M 29.636719 35.328125" style="stroke:none;fill-rule:nonzero;fill:#fcfbf8;fill-opacity:1"/><path d="M 33.273438 38.621094 C 33.394531 38.691406 33.511719 38.765625 33.636719 38.839844 C 33.683594 39.257812 33.730469 39.675781 33.765625 40.097656 C 33.847656 40.867188 34.015625 41.601562 34.183594 42.351562 C 33.460938 42.785156 33.460938 42.785156 32.726562 43.230469 C 32.453125 42.730469 32.179688 42.234375 31.910156 41.734375 C 31.832031 41.59375 31.753906 41.453125 31.671875 41.304688 C 31.089844 40.230469 31.089844 40.230469 31.089844 39.5 C 31.234375 39.453125 31.375 39.410156 31.523438 39.363281 C 31.707031 39.304688 31.890625 39.242188 32.078125 39.183594 C 32.261719 39.125 32.445312 39.066406 32.636719 39.003906 C 33.074219 38.894531 33.074219 38.894531 33.273438 38.621094 Z M 33.273438 38.621094" style="stroke:none;fill-rule:nonzero;fill:#fef9f6;fill-opacity:1"/><path d="M 39.453125 38.183594 C 39.523438 38.28125 39.59375 38.382812 39.664062 38.488281 C 40.097656 38.941406 40.480469 39.042969 41.035156 39.210938 C 41.214844 39.265625 41.394531 39.320312 41.582031 39.378906 C 41.789062 39.4375 41.789062 39.4375 42 39.5 C 41.738281 40.726562 41.238281 41.835938 40.546875 42.789062 C 40.175781 42.976562 40.175781 42.976562 39.816406 43.007812 C 39.316406 42.695312 39.316406 42.695312 38.910156 42.351562 C 38.949219 42.195312 38.988281 42.042969 39.027344 41.886719 C 39.339844 40.601562 39.515625 39.515625 39.453125 38.183594 Z M 39.453125 38.183594" style="stroke:none;fill-rule:nonzero;fill:#fefbf9;fill-opacity:1"/><path d="M 33.089844 29.40625 C 33.179688 29.621094 33.179688 29.621094 33.273438 29.84375 C 32.902344 30.433594 32.53125 31.023438 32.160156 31.613281 C 32.054688 31.777344 31.953125 31.941406 31.84375 32.113281 C 31.273438 33.015625 30.6875 33.894531 30.070312 34.753906 C 29.6875 35.296875 29.339844 35.867188 28.988281 36.441406 C 28.71875 36.875 28.449219 37.308594 28.183594 37.742188 C 28.042969 37.96875 28.042969 37.96875 27.902344 38.195312 C 27.574219 38.699219 27.351562 39.023438 26.851562 39.25 C 26.75 39.261719 26.648438 39.269531 26.546875 39.277344 C 26.847656 38.441406 27.300781 37.765625 27.773438 37.058594 C 27.953125 36.785156 28.132812 36.511719 28.3125 36.238281 C 28.40625 36.09375 28.503906 35.949219 28.601562 35.796875 C 29.265625 34.785156 29.917969 33.765625 30.570312 32.742188 C 32.316406 30.027344 32.316406 30.027344 33.089844 29.40625 Z M 33.089844 29.40625" style="stroke:none;fill-rule:nonzero;fill:#11aa5a;fill-opacity:1"/><path d="M 39.273438 38.839844 C 39.394531 38.839844 39.511719 38.839844 39.636719 38.839844 C 39.527344 40.046875 39.351562 41.175781 39.089844 42.351562 C 39.511719 42.566406 39.929688 42.785156 40.363281 43.007812 C 40.058594 43.257812 40.058594 43.257812 39.636719 43.449219 C 39.1875 43.230469 39.1875 43.230469 38.726562 43.007812 C 38.097656 44.421875 38.097656 44.421875 37.453125 45.863281 C 37.273438 45.863281 37.09375 45.863281 36.910156 45.863281 C 37.113281 45.1875 37.355469 44.582031 37.660156 43.96875 C 38.042969 43.273438 38.042969 43.273438 38 42.570312 C 37.640625 42.5 37.28125 42.425781 36.910156 42.351562 C 36.910156 42.132812 36.910156 41.917969 36.910156 41.691406 C 37.390625 41.765625 37.867188 41.835938 38.363281 41.914062 C 38.664062 40.898438 38.964844 39.882812 39.273438 38.839844 Z M 39.273438 38.839844" style="stroke:none;fill-rule:nonzero;fill:#f3733f;fill-opacity:1"/><path d="M 34.363281 27.867188 C 34.648438 28.558594 34.386719 29.046875 34.191406 29.761719 C 34.125 30.023438 34.054688 30.28125 33.984375 30.550781 C 33.929688 30.753906 33.875 30.953125 33.816406 31.160156 C 34.417969 31.230469 35.019531 31.304688 35.636719 31.378906 C 35.636719 31.523438 35.636719 31.667969 35.636719 31.816406 C 35.035156 31.816406 34.4375 31.816406 33.816406 31.816406 C 33.796875 31.972656 33.773438 32.128906 33.75 32.289062 C 33.707031 32.59375 33.707031 32.59375 33.660156 32.902344 C 33.628906 33.101562 33.601562 33.304688 33.570312 33.511719 C 33.53125 33.675781 33.492188 33.84375 33.453125 34.011719 C 33.335938 34.085938 33.214844 34.15625 33.089844 34.230469 C 33.074219 33.320312 33.09375 32.488281 33.273438 31.597656 C 32.914062 31.527344 32.550781 31.453125 32.183594 31.378906 C 32.910156 30.210938 33.636719 29.039062 34.363281 27.867188 Z M 34.363281 27.867188" style="stroke:none;fill-rule:nonzero;fill:#f1ac8a;fill-opacity:1"/><path d="M 41.816406 35.109375 C 42.179688 35.109375 42.539062 35.109375 42.910156 35.109375 C 43.285156 36.46875 43.082031 37.734375 42.726562 39.058594 C 42.097656 39.566406 41.820312 39.507812 41.089844 39.371094 C 40.289062 39.167969 39.917969 39.019531 39.453125 38.183594 C 39.457031 37.636719 39.457031 37.636719 39.523438 37.042969 C 39.542969 36.847656 39.5625 36.648438 39.582031 36.445312 C 39.601562 36.292969 39.617188 36.144531 39.636719 35.988281 C 39.757812 35.988281 39.875 35.988281 40 35.988281 C 40.011719 36.835938 40.007812 37.582031 39.816406 38.402344 C 39.941406 38.429688 40.066406 38.460938 40.195312 38.488281 C 40.359375 38.527344 40.523438 38.566406 40.691406 38.605469 C 40.855469 38.644531 41.019531 38.683594 41.183594 38.722656 C 41.636719 38.839844 41.636719 38.839844 42.183594 39.058594 C 42.363281 37.828125 42.542969 36.597656 42.726562 35.328125 C 42.425781 35.328125 42.128906 35.328125 41.816406 35.328125 C 41.816406 35.257812 41.816406 35.183594 41.816406 35.109375 Z M 41.816406 35.109375" style="stroke:none;fill-rule:nonzero;fill:#f47743;fill-opacity:1"/><path d="M 36.726562 24.355469 C 37.425781 25.203125 37.761719 25.722656 38.183594 26.769531 C 38.136719 27.304688 38.136719 27.304688 38 27.648438 C 37.578125 27.722656 37.160156 27.792969 36.726562 27.867188 C 36.726562 27.652344 36.726562 27.433594 36.726562 27.210938 C 36.605469 27.136719 36.488281 27.066406 36.363281 26.992188 C 36.484375 26.992188 36.605469 26.992188 36.726562 26.992188 C 36.726562 26.121094 36.726562 25.253906 36.726562 24.355469 Z M 36.726562 24.355469" style="stroke:none;fill-rule:nonzero;fill:#fefbf9;fill-opacity:1"/><path d="M 38.726562 42.789062 C 39.085938 43.007812 39.449219 43.222656 39.816406 43.449219 C 39.546875 44.300781 39.144531 44.648438 38.523438 45.148438 C 38.273438 45.351562 38.273438 45.351562 38.019531 45.558594 C 37.832031 45.707031 37.832031 45.707031 37.636719 45.863281 C 37.515625 45.789062 37.394531 45.71875 37.273438 45.644531 C 37.753906 44.703125 38.234375 43.761719 38.726562 42.789062 Z M 38.726562 42.789062" style="stroke:none;fill-rule:nonzero;fill:#fef5ef;fill-opacity:1"/><path d="M 34 42.789062 C 34.714844 43.078125 34.785156 43.414062 35.136719 44.203125 C 35.285156 44.527344 35.285156 44.527344 35.433594 44.859375 C 35.5 45.046875 35.566406 45.230469 35.636719 45.421875 C 35.578125 45.566406 35.515625 45.710938 35.453125 45.863281 C 35.15625 45.625 34.863281 45.386719 34.566406 45.148438 C 34.402344 45.015625 34.238281 44.882812 34.070312 44.746094 C 33.644531 44.332031 33.464844 44.058594 33.273438 43.449219 C 33.601562 43.105469 33.601562 43.105469 34 42.789062 Z M 34 42.789062" style="stroke:none;fill-rule:nonzero;fill:#fef5f0;fill-opacity:1"/><path d="M 37.273438 24.136719 C 37.96875 24.433594 38.480469 24.8125 39.058594 25.371094 C 39.273438 25.582031 39.273438 25.582031 39.492188 25.792969 C 39.601562 25.898438 39.707031 26.003906 39.816406 26.113281 C 39.691406 26.539062 39.691406 26.539062 39.453125 26.992188 C 38.976562 27.15625 38.976562 27.15625 38.546875 27.210938 C 38.121094 26.1875 37.695312 25.160156 37.273438 24.136719 Z M 37.273438 24.136719" style="stroke:none;fill-rule:nonzero;fill:#fef6f1;fill-opacity:1"/><path d="M 40 35.769531 C 39.820312 35.875 39.820312 35.875 39.636719 35.988281 C 39.550781 36.65625 39.550781 36.65625 39.523438 37.425781 C 39.507812 37.691406 39.496094 37.953125 39.480469 38.222656 C 39.472656 38.425781 39.464844 38.628906 39.453125 38.839844 C 38.792969 38.769531 38.132812 38.695312 37.453125 38.621094 C 37.453125 38.402344 37.453125 38.1875 37.453125 37.960938 C 37.996094 38.035156 38.535156 38.105469 39.089844 38.183594 C 39.035156 37.984375 38.976562 37.785156 38.921875 37.578125 C 38.777344 37.046875 38.648438 36.53125 38.546875 35.988281 C 39.386719 35.519531 39.386719 35.519531 40 35.769531 Z M 40 35.769531" style="stroke:none;fill-rule:nonzero;fill:#e6e9da;fill-opacity:1"/><path d="M 32.726562 43.886719 C 32.820312 43.972656 32.910156 44.058594 33.007812 44.144531 C 33.746094 44.820312 34.492188 45.46875 35.273438 46.082031 C 34.597656 46.382812 34.195312 46.214844 33.535156 45.917969 C 33.363281 45.839844 33.1875 45.765625 33.011719 45.6875 C 32.566406 45.433594 32.316406 45.210938 32 44.765625 C 32.238281 44.476562 32.480469 44.1875 32.726562 43.886719 Z M 32.726562 43.886719" style="stroke:none;fill-rule:nonzero;fill:#fdf1e9;fill-opacity:1"/><path d="M 37.636719 23.699219 C 38.894531 23.800781 39.949219 24.402344 41.089844 25.015625 C 40.789062 25.378906 40.492188 25.738281 40.183594 26.113281 C 40.058594 25.992188 39.9375 25.875 39.808594 25.753906 C 39.648438 25.59375 39.484375 25.4375 39.316406 25.277344 C 39.15625 25.121094 38.996094 24.964844 38.832031 24.804688 C 38.4375 24.429688 38.039062 24.058594 37.636719 23.699219 Z M 37.636719 23.699219" style="stroke:none;fill-rule:nonzero;fill:#fdf2eb;fill-opacity:1"/><path d="M 40.183594 43.886719 C 40.480469 44.25 40.78125 44.609375 41.089844 44.984375 C 40.035156 45.832031 39.066406 46.09375 37.816406 46.300781 C 38.246094 45.757812 38.710938 45.304688 39.203125 44.847656 C 39.710938 44.390625 39.710938 44.390625 40.183594 43.886719 Z M 40.183594 43.886719" style="stroke:none;fill-rule:nonzero;fill:#fdf1e9;fill-opacity:1"/><path d="M 36.183594 25.015625 C 36.242188 25.015625 36.300781 25.015625 36.363281 25.015625 C 36.363281 25.738281 36.363281 26.464844 36.363281 27.210938 C 36.484375 27.210938 36.605469 27.210938 36.726562 27.210938 C 36.605469 27.789062 36.488281 28.367188 36.363281 28.964844 C 36.304688 28.964844 36.242188 28.964844 36.183594 28.964844 C 36.183594 28.53125 36.183594 28.097656 36.183594 27.648438 C 35.761719 27.648438 35.34375 27.648438 34.910156 27.648438 C 35.183594 26.648438 35.628906 25.824219 36.183594 25.015625 Z M 36.183594 25.015625" style="stroke:none;fill-rule:nonzero;fill:#f2f1e7;fill-opacity:1"/><path d="M 32.363281 42.789062 C 32.796875 42.832031 32.796875 42.832031 33.273438 43.007812 C 33.324219 43.175781 33.375 43.34375 33.425781 43.515625 C 33.691406 44.265625 34.007812 44.5 34.566406 44.941406 C 34.734375 45.074219 34.898438 45.207031 35.070312 45.34375 C 35.195312 45.441406 35.324219 45.542969 35.453125 45.644531 C 35.394531 45.859375 35.335938 46.078125 35.273438 46.300781 C 34.984375 46.058594 34.695312 45.816406 34.410156 45.574219 C 34.25 45.4375 34.089844 45.304688 33.921875 45.164062 C 33.519531 44.820312 33.121094 44.46875 32.726562 44.105469 C 32.546875 44.25 32.367188 44.394531 32.183594 44.546875 C 32.183594 43.921875 32.253906 43.394531 32.363281 42.789062 Z M 32.363281 42.789062" style="stroke:none;fill-rule:nonzero;fill:#f2662f;fill-opacity:1"/><path d="M 33.089844 35.769531 C 33.269531 35.875 33.269531 35.875 33.453125 35.988281 C 33.570312 36.488281 33.570312 36.488281 33.660156 37.097656 C 33.691406 37.300781 33.71875 37.5 33.75 37.710938 C 33.773438 37.867188 33.796875 38.019531 33.816406 38.183594 C 34.417969 38.183594 35.019531 38.183594 35.636719 38.183594 C 35.636719 38.328125 35.636719 38.472656 35.636719 38.621094 C 35.316406 38.675781 34.992188 38.726562 34.671875 38.773438 C 34.492188 38.800781 34.3125 38.828125 34.128906 38.855469 C 33.636719 38.839844 33.636719 38.839844 33.300781 38.59375 C 33.007812 38.019531 33.039062 37.601562 33.058594 36.933594 C 33.0625 36.714844 33.066406 36.496094 33.070312 36.273438 C 33.078125 36.105469 33.085938 35.941406 33.089844 35.769531 Z M 33.089844 35.769531" style="stroke:none;fill-rule:nonzero;fill:#f1956a;fill-opacity:1"/><path d="M 37.273438 24.355469 C 37.851562 24.949219 38.28125 25.695312 38.546875 26.550781 C 38.5 27.414062 38.5 27.414062 38.363281 28.085938 C 37.644531 28.195312 37.644531 28.195312 36.910156 28.308594 C 36.910156 28.089844 36.910156 27.871094 36.910156 27.648438 C 37.269531 27.578125 37.628906 27.503906 38 27.429688 C 37.925781 26.671875 37.796875 26.292969 37.433594 25.648438 C 37.261719 25.335938 37.261719 25.335938 37.089844 25.015625 C 37.152344 24.796875 37.210938 24.582031 37.273438 24.355469 Z M 37.273438 24.355469" style="stroke:none;fill-rule:nonzero;fill:#f3733e;fill-opacity:1"/><path d="M 41.273438 30.722656 C 41.273438 30.9375 41.273438 31.15625 41.273438 31.378906 C 40.792969 31.453125 40.3125 31.523438 39.816406 31.597656 C 39.847656 31.707031 39.878906 31.816406 39.910156 31.929688 C 40.039062 32.703125 40.011719 33.441406 40 34.230469 C 39.878906 34.230469 39.761719 34.230469 39.636719 34.230469 C 39.375 32.28125 39.375 32.28125 39.671875 31.367188 C 40.179688 30.707031 40.546875 30.722656 41.273438 30.722656 Z M 41.273438 30.722656" style="stroke:none;fill-rule:nonzero;fill:#f3733f;fill-opacity:1"/><path d="M 39.273438 31.816406 C 39.394531 31.890625 39.511719 31.964844 39.636719 32.039062 C 39.710938 32.585938 39.710938 32.585938 39.75 33.257812 C 39.761719 33.480469 39.777344 33.703125 39.792969 33.929688 C 39.800781 34.101562 39.808594 34.273438 39.816406 34.453125 C 39.398438 34.304688 38.976562 34.160156 38.546875 34.011719 C 38.746094 33.246094 38.957031 32.527344 39.273438 31.816406 Z M 39.273438 31.816406" style="stroke:none;fill-rule:nonzero;fill:#e9ebdf;fill-opacity:1"/><path d="M 37.089844 31.160156 C 37.8125 31.160156 38.53125 31.160156 39.273438 31.160156 C 39.273438 31.304688 39.273438 31.449219 39.273438 31.597656 C 39.042969 31.746094 38.8125 31.890625 38.578125 32.039062 C 38.449219 32.117188 38.320312 32.199219 38.191406 32.285156 C 37.816406 32.476562 37.816406 32.476562 37.273438 32.476562 C 37.210938 32.042969 37.152344 31.609375 37.089844 31.160156 Z M 37.089844 31.160156" style="stroke:none;fill-rule:nonzero;fill:#ecc0a3;fill-opacity:1"/><path d="M 33.273438 35.546875 C 33.691406 35.695312 34.113281 35.839844 34.546875 35.988281 C 34.304688 36.640625 34.066406 37.289062 33.816406 37.960938 C 33.757812 37.960938 33.699219 37.960938 33.636719 37.960938 C 33.515625 37.164062 33.394531 36.371094 33.273438 35.546875 Z M 33.273438 35.546875" style="stroke:none;fill-rule:nonzero;fill:#eff6ef;fill-opacity:1"/><path d="M 33.636719 32.039062 C 34.199219 32.71875 34.328125 33.109375 34.546875 34.011719 C 34.125 34.15625 33.707031 34.300781 33.273438 34.453125 C 33.394531 33.65625 33.511719 32.859375 33.636719 32.039062 Z M 33.636719 32.039062" style="stroke:none;fill-rule:nonzero;fill:#f0f5ef;fill-opacity:1"/><path d="M 39.273438 38.839844 C 39.394531 38.839844 39.511719 38.839844 39.636719 38.839844 C 39.542969 39.929688 39.410156 40.878906 39.089844 41.914062 C 38.972656 41.765625 38.851562 41.621094 38.726562 41.472656 C 38.765625 40.964844 38.765625 40.964844 38.875 40.375 C 38.910156 40.179688 38.945312 39.988281 38.980469 39.785156 C 39.089844 39.277344 39.089844 39.277344 39.273438 38.839844 Z M 39.273438 38.839844" style="stroke:none;fill-rule:nonzero;fill:#f47b48;fill-opacity:1"/><path d="M 34.363281 27.867188 C 34.648438 28.558594 34.386719 29.046875 34.191406 29.761719 C 34.125 30.023438 34.054688 30.28125 33.984375 30.550781 C 33.929688 30.753906 33.875 30.953125 33.816406 31.160156 C 33.699219 31.160156 33.578125 31.160156 33.453125 31.160156 C 33.527344 28.84375 33.527344 28.84375 34.363281 27.867188 Z M 34.363281 27.867188" style="stroke:none;fill-rule:nonzero;fill:#ed753f;fill-opacity:1"/><path d="M 42.726562 31.597656 C 43.203125 32.460938 43.128906 33.230469 43.089844 34.230469 C 43.03125 34.449219 42.972656 34.667969 42.910156 34.890625 C 42.550781 34.890625 42.1875 34.890625 41.816406 34.890625 C 41.816406 34.816406 41.816406 34.746094 41.816406 34.671875 C 42.117188 34.671875 42.417969 34.671875 42.726562 34.671875 C 42.710938 34.503906 42.695312 34.335938 42.679688 34.164062 C 42.652344 33.839844 42.652344 33.839844 42.625 33.503906 C 42.605469 33.289062 42.585938 33.074219 42.566406 32.847656 C 42.546875 32.257812 42.546875 32.257812 42.726562 31.597656 Z M 42.726562 31.597656" style="stroke:none;fill-rule:nonzero;fill:#f47f4d;fill-opacity:1"/><path d="M 30.183594 34.230469 C 30.242188 34.375 30.300781 34.523438 30.363281 34.671875 C 30.664062 34.671875 30.964844 34.671875 31.273438 34.671875 C 31.273438 34.886719 31.273438 35.105469 31.273438 35.328125 C 31.101562 35.316406 30.925781 35.300781 30.75 35.289062 C 30.46875 35.308594 30.46875 35.308594 30.183594 35.328125 C 30.0625 35.546875 29.941406 35.761719 29.816406 35.988281 C 29.691406 35.601562 29.691406 35.601562 29.636719 35.109375 C 29.898438 34.617188 29.898438 34.617188 30.183594 34.230469 Z M 30.183594 34.230469" style="stroke:none;fill-rule:nonzero;fill:#ed9060;fill-opacity:1"/><path d="M 30.546875 39.058594 C 30.664062 39.132812 30.785156 39.203125 30.910156 39.277344 C 30.910156 39.496094 30.910156 39.714844 30.910156 39.9375 C 30.007812 40.261719 30.007812 40.261719 29.089844 40.59375 C 28.972656 40.449219 28.851562 40.304688 28.726562 40.15625 C 29.40625 39.710938 29.757812 39.5 30.546875 39.5 C 30.546875 39.355469 30.546875 39.207031 30.546875 39.058594 Z M 30.546875 39.058594" style="stroke:none;fill-rule:nonzero;fill:#f36d38;fill-opacity:1"/><path d="M 42.910156 34.230469 C 42.96875 34.449219 43.027344 34.667969 43.089844 34.890625 C 43.992188 34.890625 44.890625 34.890625 45.816406 34.890625 C 45.816406 34.960938 45.816406 35.035156 45.816406 35.109375 C 44.917969 35.109375 44.019531 35.109375 43.089844 35.109375 C 43.03125 35.328125 42.972656 35.542969 42.910156 35.769531 C 42.910156 35.550781 42.910156 35.332031 42.910156 35.109375 C 42.550781 35.109375 42.1875 35.109375 41.816406 35.109375 C 41.816406 35.039062 41.816406 34.964844 41.816406 34.890625 C 42.179688 34.890625 42.539062 34.890625 42.910156 34.890625 C 42.910156 34.671875 42.910156 34.457031 42.910156 34.230469 Z M 42.910156 34.230469" style="stroke:none;fill-rule:nonzero;fill:#f15a23;fill-opacity:1"/><path d="M 33.636719 44.546875 C 34.289062 44.839844 34.863281 45.195312 35.453125 45.644531 C 35.394531 45.859375 35.335938 46.078125 35.273438 46.300781 C 35 46.09375 34.726562 45.882812 34.453125 45.671875 C 34.300781 45.554688 34.152344 45.4375 33.996094 45.316406 C 33.875 45.207031 33.757812 45.097656 33.636719 44.984375 C 33.636719 44.839844 33.636719 44.695312 33.636719 44.546875 Z M 33.636719 44.546875" style="stroke:none;fill-rule:nonzero;fill:#f36e39;fill-opacity:1"/><path d="M 34.546875 27.429688 C 35.085938 27.5 35.625 27.574219 36.183594 27.648438 C 36.183594 27.867188 36.183594 28.082031 36.183594 28.308594 C 35.703125 28.234375 35.222656 28.164062 34.726562 28.085938 C 34.667969 27.871094 34.605469 27.652344 34.546875 27.429688 Z M 34.546875 27.429688" style="stroke:none;fill-rule:nonzero;fill:#f18453;fill-opacity:1"/><path d="M 36.363281 27.429688 C 36.484375 27.5 36.605469 27.574219 36.726562 27.648438 C 36.800781 28.101562 36.800781 28.101562 36.839844 28.648438 C 36.855469 28.832031 36.867188 29.011719 36.882812 29.199219 C 36.894531 29.410156 36.894531 29.410156 36.910156 29.625 C 36.667969 29.625 36.429688 29.625 36.183594 29.625 C 36.242188 28.898438 36.300781 28.175781 36.363281 27.429688 Z M 36.363281 27.429688" style="stroke:none;fill-rule:nonzero;fill:#1cae64;fill-opacity:1"/><path d="M 38.183594 27.210938 C 38.242188 27.5 38.300781 27.789062 38.363281 28.085938 C 37.882812 28.160156 37.402344 28.234375 36.910156 28.308594 C 36.910156 28.089844 36.910156 27.871094 36.910156 27.648438 C 37.328125 27.503906 37.75 27.359375 38.183594 27.210938 Z M 38.183594 27.210938" style="stroke:none;fill-rule:nonzero;fill:#f58251;fill-opacity:1"/><path d="M 33.273438 38.402344 C 33.210938 38.617188 33.152344 38.835938 33.089844 39.058594 C 32.730469 39.132812 32.371094 39.203125 32 39.277344 C 31.941406 39.0625 31.878906 38.84375 31.816406 38.621094 C 32.34375 38.4375 32.707031 38.402344 33.273438 38.402344 Z M 33.273438 38.402344" style="stroke:none;fill-rule:nonzero;fill:#f58454;fill-opacity:1"/><path d="M 41.453125 28.085938 C 41.878906 28.714844 42.136719 29.304688 42.363281 30.0625 C 42.183594 30.0625 42.003906 30.0625 41.816406 30.0625 C 41.480469 29.375 41.417969 28.882812 41.453125 28.085938 Z M 41.453125 28.085938" style="stroke:none;fill-rule:nonzero;fill:#f37340;fill-opacity:1"/><path d="M 38.363281 22.820312 C 38.363281 22.894531 38.363281 22.964844 38.363281 23.039062 C 38.15625 23.074219 38.15625 23.074219 37.941406 23.109375 C 37.410156 23.273438 37.269531 23.441406 36.910156 23.917969 C 36.730469 23.992188 36.550781 24.0625 36.363281 24.136719 C 36.800781 22.921875 37.304688 22.765625 38.363281 22.820312 Z M 38.363281 22.820312" style="stroke:none;fill-rule:nonzero;fill:#2fa353;fill-opacity:1"/><path d="M 37.453125 37.960938 C 38.5 38.128906 38.5 38.128906 38.910156 38.621094 C 38.429688 38.621094 37.949219 38.621094 37.453125 38.621094 C 37.453125 38.402344 37.453125 38.1875 37.453125 37.960938 Z M 37.453125 37.960938" style="stroke:none;fill-rule:nonzero;fill:#f58452;fill-opacity:1"/><path d="M 35.816406 37.523438 C 35.757812 37.742188 35.699219 37.957031 35.636719 38.183594 C 35.15625 38.253906 34.675781 38.328125 34.183594 38.402344 C 34.363281 37.960938 34.363281 37.960938 34.796875 37.714844 C 35.273438 37.523438 35.273438 37.523438 35.816406 37.523438 Z M 35.816406 37.523438" style="stroke:none;fill-rule:nonzero;fill:#e3e4d2;fill-opacity:1"/><path d="M 41.273438 30.722656 C 41.273438 30.9375 41.273438 31.15625 41.273438 31.378906 C 40.914062 31.453125 40.550781 31.523438 40.183594 31.597656 C 40.121094 31.382812 40.0625 31.164062 40 30.941406 C 40.453125 30.789062 40.796875 30.722656 41.273438 30.722656 Z M 41.273438 30.722656" style="stroke:none;fill-rule:nonzero;fill:#f58656;fill-opacity:1"/></g></svg>