<svg xmlns="http://www.w3.org/2000/svg" id="Layer_1" width="70" height="70" viewBox="0 0 70 70"><defs><style>.cls-1{fill:#cdda32}.cls-2{fill:#152649}</style></defs><title/><rect width="70" height="70" class="cls-1"/><path d="M62.11,39.93c-2.64,0-2.84-2.68-2.84-3.38a3.63,3.63,0,0,1,1-2.7,2.7,2.7,0,0,1,1.88-.67,3.86,3.86,0,0,1,2.63,1V32a5.59,5.59,0,0,0-3-.74c-3.42,0-5,2.47-5,5.26s1.44,5.26,4.87,5.26A6.61,6.61,0,0,0,65,41V38.86a4.69,4.69,0,0,1-2.89,1.07M14.47,30.6h2.41V28.19H14.47Zm5.8,2.78V31.51H17.94V41.59h2.41v-5a3.21,3.21,0,0,1,3.07-3,5.13,5.13,0,0,1,.7,0V31.36a1.94,1.94,0,0,0-.56-.06,4.13,4.13,0,0,0-3.28,2.08m-5.8,8.22h2.41V31.51H14.47ZM9.6,31.29a7.38,7.38,0,0,0-4,1.05v2.09a6.83,6.83,0,0,1,3.61-1.36c.94,0,1.71.26,1.71,1.11v.41c0,.29,0,.31-.44.44L7.6,36C5.37,36.76,5,38,5,39a2.84,2.84,0,0,0,3.09,2.77,4.41,4.41,0,0,0,3-1.28l.26,1.06h1.94V34.79c0-1.92-.61-3.5-3.74-3.5m1.34,7.65a3.13,3.13,0,0,1-2.2,1.13,1.22,1.22,0,0,1-1.3-1.22c0-.72.35-1.18,1.36-1.55l1.51-.55a1.57,1.57,0,0,0,.63-.28ZM53.7,41.59h2.4V31.51H53.7ZM39.34,31.29a7.38,7.38,0,0,0-4,1.05v2.09A6.84,6.84,0,0,1,39,33.08c.93,0,1.7.26,1.7,1.11v.41c0,.29,0,.31-.44.44l-2.9,1c-2.22.75-2.59,2-2.59,3a2.83,2.83,0,0,0,3.09,2.77,4.4,4.4,0,0,0,3-1.28l.26,1.06h2V34.79c0-1.92-.64-3.5-3.75-3.5m1.34,7.65a3.12,3.12,0,0,1-2.19,1.13,1.22,1.22,0,0,1-1.3-1.22c0-.72.35-1.18,1.36-1.55l1.51-.55a1.51,1.51,0,0,0,.62-.28Zm13-8.34h2.4V28.19H53.7ZM44,41.59h2.41V28.19H44Zm6.91-3V33.34h1.82V31.51H50.94V28.19h-2.4v3.32H47v1.83h1.5v5.37c0,1.77.5,3.1,3.18,3.1a9.61,9.61,0,0,0,1.12-.07V39.91a3,3,0,0,1-.7.08c-1.1,0-1.2-.67-1.2-1.41M31.39,34.63A3.25,3.25,0,0,0,34,31.47c0-3.28-3.85-3.28-5-3.28H24.76V41.59h4.61c3.44,0,5-1.64,5-3.67,0-2.48-1.94-3-3-3.29m-4.1-4.47h2c.53,0,2.27,0,2.27,1.68,0,.44-.21,1.81-2.48,1.81H27.29Zm1.58,9.46H27.29v-4H29c2.2,0,2.73,1.07,2.73,2,0,1.44-1.21,2-2.9,2" class="cls-2"/></svg>