<svg xmlns="http://www.w3.org/2000/svg" id="Layer_1" width="800px" height="800px" viewBox="0 0 800 800"><defs><style>.cls-1,.cls-11,.cls-12,.cls-13,.cls-14{fill:none;}.cls-2{fill:#54c0e8;}.cls-3{clip-path:url(#clip-path);}.cls-4{fill:#e1251b;}.cls-5{fill:#c028b9;}.cls-6{fill:#38d430;}.cls-7{fill:#fd0;}.cls-8{fill:#ffa400;}.cls-9{fill:#e96bb0;}.cls-10{clip-path:url(#clip-path-2);}.cls-11{stroke:#54c0e8;stroke-width:1.25px;}.cls-11,.cls-12,.cls-13,.cls-14{stroke-miterlimit:10;}.cls-12{stroke:#e96bb0;stroke-width:1.56px;}.cls-13{stroke:#c028b9;}.cls-13,.cls-14{stroke-width:0.31px;}.cls-14{stroke:#fd0;}</style><clipPath id="clip-path"><path d="M543.81,139.69c-27.3,52-55.55,109.82-55.55,109.82a26.86,26.86,0,0,1-1.61-4.82c-.32-1.93-4.18-3.86-4.18-3.86l1.94-4.49s-.65-11.55-.65-15.09-1.29-4.49-1.29-4.49l-1.28-1.93c1.92-3.21,1.28-14.45,0-16.38a4.53,4.53,0,0,0-3.52-1.92s1.92-6.11,1-9.31a44.1,44.1,0,0,1-1.29-14.13c.33-5.79-1.29-8-1.29-8-25.36,49.44-41.42,110.77-45.59,136.79s-8.35,37.24-11.24,55.55-4.5,24.72-4.5,29.86-3.53,3.53-3.53,3.53,0-1.93-1-2.57a53,53,0,0,0-13.17-3.53c-4.18-.33-9-2.89-9-2.89l-3.21,2.56-1.3-2.88-2.56,1-1.28-1.6-2.9,1-.32-1.93s-1.28-1.28-15.41-5.78-8.67-1.6-19.26-9.63S320.32,351,298.67,351c-23.05,0-42.78,21.4-58.41,31.27s-24.69,8.22-80.64,17.28-60.06,15.62-60.06,15.62c10.43,1.28,45.76-7,69.84-10.89s52.34-2.89,64.22-1.29,27.62,15.09,42.71,25.37,26.33,14.45,38.53,18.3,27.94,13.81,33.07,16.7S364,476.53,364,476.53c5.13,10.91,17.66,29.21,32.11,44.63s36.93,27.3,39.5,28.58,3.21,5.13,5.46,6.74,10.91,6.1,10.91,6.1h6.42s-12.2,23.76-17,44.95-12.2,72.89-11.24,82.2,7.07,10.6,10.28,10,10.28-6.43,10.28-6.43l.64,4.18s7.38,7.7,9,7.39,10-8.35,13.49-10.6a19.79,19.79,0,0,0,5.78-6.42s2.24,4.49,3.85,4.82,11.24,4.49,11.24,4.49,10.92-7.71,16.06-11.89,7.38-11.87,7.38-11.87c1,3.53,16.06,6.42,19.26,5.46s10.28-7.71,10.28-7.71l3.21,1.29c3.54-3.86,3.86-9.64,3.86-9.64l9,6.43-1-10.6c2.57,1.6,12.21,5.14,12.21,5.14l-1.61-12.53a45.64,45.64,0,0,0,15.73,8.35l1.94-6.42c22.14,9.63,28.89,7.38,31.13,5.46s-.32-9-.32-10.59-7.07-12.85-22.15-32.12-33.4-46.56-40.46-58.44-15.09-27.94-15.09-27.94C543.49,526,537.7,517,537.7,517l7.39,2.88c-1.6-4.49-7.39-8.34-7.39-8.34l1.29-1.94L534.5,507l-1-3.53-5.46-3.86-.64-4.81-4.82-5.14-.64-3.85L517.16,482l-4.28-5.83,1.21-3.68c2.58,3.21,7.24,2.77,7.24,2.77s-2.89-1.28-.64-1.28,9-1.61,9-1.61c1.93-1.29,1.93-10.92,1.93-10.92,5.47-3.53,16.71-3.21,16.71-3.21l9-7.38,1.61-9.32-5.13-3.21-2.26-4.81s3.86.64,10.92-2.57,9.64-7.39,9.64-10.92.64-12.52.64-12.52l-4.17-1.93a30.23,30.23,0,0,0,6.09-7.07,36.47,36.47,0,0,0,3.53-9c1-4.5-2.56-11.56-2.56-11.56s4.81-7.06,5.77-11.24-1.6-10.28-1.6-10.28l-3.22.33c7.39-14.78,4.18-21.2,4.18-21.2-5.77,2.57-7.38,1-7.38,1,8-15.09,8.34-21.51,8.34-21.51l-8.34,1.61c7.7-9,9.63-24.09,9.63-24.09l-1.61-4.17c7.07-11.56,8.35-26,8.35-26l-3.85-2.57c11.24-23.76,5.77-28.58,5.77-28.58l-2.24.32c11.89-37.57,3.54-40.13,3.54-40.13,10.27-23.12,9-36.29,9-36.29l-1.6-3.85c16.69-27.93,11.88-40.78,11.88-40.78l-1.29-1.28s5.46-11.56,8.35-18.31.64-18,.64-18L616.38,70c0-1.93,1.28-4.49,3.21-8s.64-6.1.32-11.55S617.34,43,617.34,43a47.47,47.47,0,0,1,3.21-4.5c1.6-1.92,2.9-9,4.18-14.77a7,7,0,0,0-3.86-8S571.1,87.67,543.81,139.69" class="cls-1"/></clipPath><clipPath id="clip-path-2"><path d="M543.76,139.74c-27.29,52-55.55,109.82-55.55,109.82a26.31,26.31,0,0,1-1.6-4.82c-.33-1.93-4.18-3.85-4.18-3.85l1.92-4.5s-.63-11.56-.63-15.09-1.29-4.5-1.29-4.5l-1.29-1.93c1.94-3.2,1.29-14.44,0-16.37a4.53,4.53,0,0,0-3.52-1.92s1.92-6.11,1-9.32a44,44,0,0,1-1.29-14.12c.33-5.79-1.28-8-1.28-8-25.37,49.44-41.43,110.77-45.6,136.79s-8.35,37.24-11.24,55.55-4.49,24.72-4.49,29.86-3.54,3.53-3.54,3.53,0-1.93-1-2.57A53,53,0,0,0,397,384.74c-4.17-.33-9-2.89-9-2.89l-3.2,2.56-1.3-2.88-2.56,1-1.28-1.6-2.9,1-.32-1.92s-1.28-1.3-15.41-5.79-8.67-1.6-19.26-9.63S320.28,351,298.62,351.06c-23.05,0-42.78,21.39-58.42,31.26s-24.68,8.23-80.62,17.28-60.07,15.63-60.07,15.63c10.44,1.27,45.76-7.06,69.85-10.9s52.34-2.89,64.22-1.29,27.61,15.09,42.7,25.37,26.33,14.45,38.53,18.3,27.94,13.81,33.08,16.7,16.05,13.16,16.05,13.16c5.15,10.93,17.66,29.22,32.11,44.64S433,548.5,435.54,549.79s3.22,5.13,5.47,6.74,10.91,6.1,10.91,6.1h6.43s-12.21,23.76-17,45-12.2,72.89-11.24,82.2,7.06,10.6,10.28,10,10.27-6.43,10.27-6.43l.65,4.18s7.37,7.71,9,7.39,10-8.35,13.49-10.6a19.79,19.79,0,0,0,5.78-6.42s2.25,4.49,3.85,4.81,11.24,4.5,11.24,4.5,10.92-7.71,16.05-11.88,7.39-11.88,7.39-11.88c1,3.52,16,6.42,19.28,5.46s10.27-7.7,10.27-7.7l3.2,1.28c3.54-3.86,3.86-9.64,3.86-9.64l9,6.42-1-10.59c2.56,1.6,12.2,5.13,12.2,5.13l-1.61-12.52A45.73,45.73,0,0,0,589,659.6l1.94-6.43c22.14,9.64,28.89,7.39,31.13,5.47s-.31-9-.31-10.59-7.06-12.85-22.16-32.12-33.39-46.56-40.45-58.44-15.11-27.94-15.11-27.94c-.63-3.52-6.41-12.52-6.41-12.52l7.38,2.89c-1.6-4.5-7.38-8.35-7.38-8.35l1.29-1.93-4.5-2.56-1-3.54L528,499.69l-.64-4.81-4.82-5.14-.65-3.86L517.11,482l-4.28-5.83,1.23-3.68c2.56,3.22,7.23,2.77,7.23,2.77s-2.9-1.28-.65-1.28,9-1.61,9-1.61c1.93-1.29,1.93-10.92,1.93-10.92,5.45-3.53,16.7-3.21,16.7-3.21l9-7.38,1.61-9.32-5.13-3.21-2.25-4.82s3.85.65,10.91-2.57,9.64-7.38,9.64-10.91.64-12.52.64-12.52l-4.18-1.93a29.89,29.89,0,0,0,6.11-7.06,37.08,37.08,0,0,0,3.53-9c1-4.5-2.57-11.56-2.57-11.56s4.81-7.07,5.78-11.24-1.61-10.28-1.61-10.28l-3.21.33c7.39-14.78,4.17-21.2,4.17-21.2-5.77,2.57-7.38,1-7.38,1,8-15.09,8.35-21.51,8.35-21.51l-8.35,1.6c7.71-9,9.64-24.08,9.64-24.08l-1.61-4.17c7.06-11.56,8.34-26,8.34-26l-3.84-2.57c11.23-23.76,5.78-28.58,5.78-28.58l-2.25.32c11.88-37.57,3.53-40.14,3.53-40.14,10.27-23.12,9-36.28,9-36.28l-1.6-3.85c16.69-27.94,11.87-40.78,11.87-40.78l-1.28-1.29s5.46-11.56,8.34-18.3.65-18,.65-18l-3.53-2.89c0-1.93,1.29-4.49,3.21-8s.64-6.1.32-11.56-2.57-7.38-2.57-7.38a48.53,48.53,0,0,1,3.22-4.5c1.59-1.93,2.88-9,4.17-14.77a7,7,0,0,0-3.86-8s-49.77,71.93-77.06,124" class="cls-1"/></clipPath></defs><path d="M431,615.37l2.33-2.81c7-10.95,14.4-21.84,21.62-32.35,18.45-26.64,36-52.38,45.36-77-2.31-2.55,2.28-20.23,0-22.73-8.56,24.34-33.13,66.31-52.12,93.87-8.83,12.94-18.09,26.33-26.53,39.78-10.38,16.63-14.25,29-11.63,36.58,6.54-14.43,16.24-28.92,21-35.39" class="cls-2"/><g class="cls-3"><path d="M-238.74,148.08c13,21.72,26.67,43.64,42.42,64.67,81.79,107.17,170.82,147,296.42,180.33,14.29,3.61,28.38,9,41.26,14.42,13.94,5.14,26.66,10.4,39.33,13.4,35.77,5.23,69.79-15,90.92-52.62,3.9-7.44,7.79-14.88,11.2-22,16.87-34.06,33.14-65.85,65.51-86.79,12.65-8.79,64.08,7.63,104.74,52.18l21.73-19.32c-40.93-45.11-109.61-79.7-142.49-57.54-39.32,25.34-57.51,62.48-75.87,98.34a214,214,0,0,1-10.84,21.54c-14.81,26.74-36.72,40.46-59.15,37.17-10-1.71-21.85-6.52-33.91-11.78-13.8-4.89-28.94-10.94-44.49-15.45-119.84-31.31-204.38-69-280.88-169.33C-257.68,78.71-299.28-48-316.88-113c-21.57-78.09-27.66-154.85-20.79-248.58,8-100.49,24.77-251.69,64.38-403.37,11.6-46,25.56-55.89,29.4-55.95,6.51.25,24,16.76,38,85.24,10.27,48.36,18.56,98.77,26.37,147.3C-155.77-436.73-134.12-294-52.81-222.11l19.3-21.41c-69.73-65.38-94-202.73-117.3-349.21-8-49-16.05-99.94-26.09-149-14.73-70.89-37.33-107.71-66-108.6-17.56-.41-42.2,13-58.47,78.14-40.75,153.93-57.81,306.92-65.22,408.32-7.35,97.24-.81,176.94,21.52,258.38,14.91,55.17,46.62,153.45,106.32,253.6" class="cls-4"/><path d="M339.48,639.57a526.42,526.42,0,0,1-42,36.53c-77.62,58.27-147.08,68.45-240.63,67a209.78,209.78,0,0,0-31.4,1.93c-10.66.83-20.51,2-29.87,1.61-25.81-3.37-45.41-24.07-52.72-54.24-1.25-5.91-2.49-11.83-3.46-17.45-5-26.89-10.09-52.1-28.43-72.93-7-8.56-45.9-7.23-82.77,15.69l-11.28-17.63c37.17-23.26,91.52-33.81,110-12,22.29,25.25,27.64,54.53,33.35,83a154.92,154.92,0,0,0,3.29,17.05c5.05,21.41,17.55,35.21,33.73,37.31,7.27.76,16.41-.25,25.8-1.55,10.52-.69,22.19-1.92,33.84-2C146,723.58,212,714,284.59,659.4c81.56-64.2,135.14-143.83,160-185.47,30.2-49.89,49.42-101.89,63-168.18,14.11-71.18,32-179.24,34.19-292.07,1-34.14-6.79-43.72-9.43-44.52-4.56-1.09-19.92,6.92-43,51.65-16.56,31.51-32.15,64.81-47,96.91-46.1,100.43-89,195.07-159.38,229l-9.19-18.6c61.09-31.68,104.72-122.11,149.51-219C438.42,76.71,453.92,43,470.48,10.92c24-46.24,46.91-67.34,66.94-62.36,12.25,3.15,26.69,17.28,25.25,65.56-1.84,114.63-19.91,224-34.58,295.68-13.91,68.81-34,122.76-65.39,174.83-21.12,35.31-62.29,97.21-123.22,154.94" class="cls-5"/><path d="M-70.46,1895.71c-38.87,31.9-79.34,63.65-123,92.38-225.32,145.33-418.71,159.7-676.22,137.42-29.17-2.87-59.15-2.32-86.91-.84-29.56.19-56.9,1.47-82.64-1.46-70.45-14.35-120.41-75.23-134.6-159.8-2.27-16.54-4.54-33.08-6.09-48.75-8.6-75.11-17.58-145.56-64-206.57-17.75-25-125-29-231.17,27l-27.62-50.8c107-56.78,258.84-75.16,305.42-11.52,56.46,73.94,65.44,155.69,75.6,235.17.76,14.88,3,31.42,5.73,47.61,9.68,60,41.43,100.47,85.6,109.43,19.86,3.55,45.27,2.55,71.39.83,29.11.16,61.54-.94,93.65,1.11,245.34,22.27,428.93,8.85,639.74-127.33C11.75,1778.69,175.05,1569.78,251.86,1460c93-131.56,156.2-271.07,206.59-451.07C511.33,815.52,581.88,521.29,610.1,210.8,619.42,116.93,600,89,592.83,86.29c-12.33-3.93-56.24,15.14-128.52,133.86C412.46,303.7,363,392.42,315.62,477.94,168.81,745.62,32,998-168.6,1077.69l-21.67-53.07C-15.7,949.33,123.94,710.3,266.4,452c48.05-86.24,95.8-177.75,147.71-262.81C489.49,66.47,556.62,12.83,610.83,30.51,644,41.58,681,83.36,667.51,216.14c-27.6,315.49-98.88,613.22-153.42,807.94C462.24,1211,396.25,1355.67,299.54,1493c-65.13,93.15-190.74,255.63-370,402.72" class="cls-2"/><path d="M56.56,828.92c-36.54,31-74.59,61.91-115.74,90-212.39,142-396.43,158.79-642.15,141.64-27.84-2.27-56.39-1.28-82.82.57-28.15.65-54.19,2.31-78.76-.08-67.35-12.56-115.91-69.77-130.78-150.13-2.42-15.72-4.84-31.45-6.58-46.35-9.38-71.43-19.05-138.41-64.26-195.81-17.31-23.53-119.61-25.61-219.83,29.35l-27.13-48c101-55.8,245.44-75.71,290.82-15.8,55,69.55,64.83,147.3,75.76,222.86,1,14.17,3.39,29.9,6.22,45.28,10.17,57,41.06,95.07,83.29,102.91,19,3.07,43.18,1.72,68-.34,27.74-.3,58.61-1.87,89.24-.42,234.12,17.34,408.84,1.64,607.55-131.45C133,716.12,285.32,514.48,356.77,408.62,443.34,281.81,501.32,147.88,546.48-24.44,593.8-209.52,656.37-491,678.33-787.27c7.4-89.59-11.57-115.91-18.41-118.36C648.09-909.18,606.56-890.3,539.58-776c-48.08,80.43-93.84,165.75-137.6,248C266.33-270.69,140-28.08-49.9,51.06L-71.39.83C93.75-73.66,221.44-305.11,353.09-553.5c44.42-82.93,90.05-169.4,138.18-251.27,69.86-118.11,133-170.28,184.91-154.29,31.75,10,67.69,49.24,56.94,176C711.83-482,648.61-197.23,599.74-10.83,553.29,168,492.7,307,402.73,439.34,342.14,529.12,225,685.93,56.56,828.92" class="cls-5"/><path d="M322.27,246.61A164.57,164.57,0,0,1,337,237.17c26.77-14.61,48.82-14.61,77.83-9.93a65.55,65.55,0,0,0,9.85.82,81.61,81.61,0,0,1,9.36.86c7.87,2.22,13,9.54,13.93,19.25.11,1.9.23,3.79.28,5.58.34,8.59.77,16.65,5.53,24,1.8,3,13.94,4.33,26.44-1.12l2.71,6c-12.61,5.54-30,6.36-34.73-1.25-5.78-8.85-6.12-18.2-6.61-27.3a49.13,49.13,0,0,0-.25-5.45c-.59-6.88-3.85-11.74-8.79-13.12a36.38,36.38,0,0,0-8.09-.7c-3.3-.26-7-.41-10.61-.91-27.64-4.58-48.56-4.59-73.62,9.08-28.26,16.26-48.53,38.58-58.16,50.39-11.65,14.14-20,29.44-27.2,49.42C247.25,364.23,236.78,397,231,432c-1.84,10.57.13,13.9.92,14.27,1.36.54,6.51-1.25,15.7-14.11,6.57-9,12.93-18.69,19-28,18.9-29.12,36.52-56.59,59.94-63.95l2,6.19c-20.42,7.08-38.09,33.21-56.41,61.31-6.17,9.37-12.52,19.16-19.12,28.37-9.58,13.29-17.64,18.81-23.64,16.35-3.66-1.53-7.51-6.58-4.88-21.52,5.78-35.55,16.35-68.72,24.17-90.34,7.45-20.76,16.14-36.62,28.26-51.38a233.12,233.12,0,0,1,45.33-42.57" class="cls-5"/><path d="M411.28,350a108.42,108.42,0,0,1-8.92,6.26c-15.7,9.48-26.24,8.44-39.15,3.6a19.34,19.34,0,0,0-4.54-1.08,23.9,23.9,0,0,1-4.3-1.08c-3.32-2-4.32-7.66-2.81-14.86.32-1.4.65-2.8,1-4.13,1.55-6.34,3-12.31,2.15-17.92-.27-2.29-5.79-3.86-12.85-.44l-.1-4.55c7.13-3.48,15.58-3.25,16.34,2.58,1,6.81-.72,13.72-2.31,20.45-.35,1.25-.67,2.65-1,4-1.09,5.1-.5,8.84,1.58,10.09a10.42,10.42,0,0,0,3.72.9,50,50,0,0,1,4.89,1.18c12.29,4.69,22.28,5.71,37-3.18,16.74-10.63,30.88-26.12,37.84-34.37,8.39-9.86,15.42-20.74,22.86-35.14a673.26,673.26,0,0,0,29.24-64.64c3-7.7,2.71-10.26,2.41-10.57-.54-.46-3.36.61-10.32,9.65-4.94,6.35-9.91,13.17-14.67,19.73-14.84,20.57-28.75,40-41.41,44.29l.28-4.67c11.17-4.24,24.83-22.66,39.19-42.5,4.83-6.62,9.82-13.53,14.81-20,7.22-9.33,12.17-13,14.55-10.92,1.45,1.31,2.28,5.21-2,16.11a649.51,649.51,0,0,1-29.59,65.44c-7.7,14.95-15,26.23-23.76,36.53-5.9,7-16.83,19.06-30.16,29.22" class="cls-6"/><path d="M385.64,456c-.55,6.73-1,13.57-.86,20.31.9,34.47,13.18,51.45,33.84,69.33a42.34,42.34,0,0,1,6.27,6.8,53.27,53.27,0,0,0,6,6.38c6.51,4,16.41,1,26.24-7.59,1.88-1.71,3.76-3.42,5.51-5.08,8.43-7.9,16.42-15.24,26.09-18.54,3.86-1.44,11.92,6.61,13.65,21.42l7.26-3.61c-1.71-15-10.61-29.12-20.56-25.54-11.72,4-20.88,12.6-29.88,20.88-1.6,1.64-3.49,3.35-5.37,5-6.94,6.09-13.43,8.2-17.5,5.72a23.46,23.46,0,0,1-5.17-5.57c-2.09-2.29-4.28-5-6.78-7.3-19.8-16.9-31.47-33-32.29-65.28-.14-37.19,10-74,16-92.66,7.08-22.41,17.12-43.36,32.29-67.92,16.38-26.29,42-65.51,72.36-103.23,9.12-11.46,13.42-13.11,14.21-12.86,1.29.53,2.42,6.19-4.8,25.49-5,13.66-10.73,27.72-16.27,41.25-17.44,42.23-34,81.91-28,106.93l7.07-4.34c-4.58-22.45,10.67-60.89,27.44-101.7,5.56-13.67,11.42-27.86,16.58-41.7,7.42-20,8.23-31.45,2.52-33.73-3.5-1.36-9.76,3.05-22.64,19.29-30.91,38.24-57.59,75.34-74,101.92-15.78,25.46-26.16,47.23-33.58,70.59-5.07,15.81-13.06,44.34-15.62,75.36" class="cls-2"/><path d="M382.79,438.57c8.85-19,17.53-37.58,24.45-55.4l-10.53-3.63c-6.62,17.42-15,35.75-23.61,54.45-5.8,12.67-11.83,25.7-17.46,38.74l7.49,10.12c6.17-14.88,13-29.84,19.66-44.28" class="cls-6"/><path d="M419.25,300.45,408.94,303c4.93,21.4-1.29,47.71-12.23,76.51l10.52,3.63c11.74-30.26,18.38-58.35,12-82.72" class="cls-6"/><path d="M552.49,196.86c-3-49.6-22.08-80.06-53.66-116.08a107.6,107.6,0,0,1-9.66-12.88c-3.21-4.44-6-8.67-9.28-12.19C470,46.77,455.45,46,441.25,53.14c-2.71,1.47-5.43,3-7.94,4.44-12.16,7-23.68,13.34-37.88,13.1-5.68.09-18-15.5-21.33-37.48l-10.62,1.44c3.25,22.21,17.17,46.91,31.78,46.88,17.24.32,30.44-7.3,43.42-14.51a78.31,78.31,0,0,1,7.75-4.36c10-5.14,19.54-4.84,25.73.78,2.71,2.58,5.35,6.48,8,10.57,3.21,4.33,6.6,9.29,10.44,13.86,30.23,34.2,48.37,63.1,51.16,109.52,2,53.1-11.28,100.41-19.25,123.93-9.45,28.33-23.35,53.07-44.71,80.34-23.08,29.11-59.29,71.93-102.56,110.2-13,11.7-19.31,11.85-20.49,11.09-1.94-1.41-3.91-10.06,5.89-33.88q1.25-3.1,2.53-6.21l-7.49-10.12Q353,478.85,350.46,485c-10,24.71-10.7,40.63-2.11,46.79,5.28,3.73,15.59,4.67,33.95-11.91,44.08-38.73,80.74-82,103.84-111.55,22.22-28.24,36.59-54,46.49-83.48,6.77-19.95,17.25-56.53,19.56-99.45a267.25,267.25,0,0,0,.3-28.5" class="cls-6"/><path d="M500.47-1.45a277.33,277.33,0,0,0-8.16-28.36C474.58-78.1,446.61-102.64,404.6-129a110.07,110.07,0,0,1-13.42-9.91c-4.5-3.44-8.54-6.8-12.82-9.32-12.45-5.94-27.14-2.39-39.08,8.93-2.26,2.27-4.52,4.54-6.57,6.76-10,10.52-19.5,20.27-33.67,24.25-5.59,1.78-22.49-10-32.29-30.83l-10.1,4.59c9.83,21.06,31,41.41,45.45,37.05,17.2-4.81,28-16.29,38.75-27.3a85.29,85.29,0,0,1,6.38-6.63c8.42-8.07,17.95-10.6,25.75-6.87,3.45,1.75,7.23,4.84,11,8.12,4.48,3.34,9.32,7.25,14.48,10.64,40.15,24.94,66.72,48.2,83.28,93.41C499.56,26,500.44,76.83,499.51,102.53c-.94,30.9-7.38,59.57-20.45,93-14.25,35.72-37.42,88.94-69,139.77-9.41,15.45-15.62,17.49-17,17.08-2.35-.83-6.87-8.82-4.23-35.36,1.71-18.78,4.37-38.09,7-56.66,8.43-58,16.63-112.42-4.89-147.81l-9.45,5.63c18,31.69,11.39,84.5,3.37,140.52-2.6,18.76-5.42,38.24-7.3,57.27-2.63,27.5,1.46,43.47,11.81,47,6.35,2.14,16.84,0,30.12-21.88,32.22-51.52,55.69-105.36,69.84-141.48C503,165,509.58,135.19,510.63,103c.79-21.79.31-61.19-10.16-104.43" class="cls-7"/><path d="M1090.54,587.48c-29.48,24.19-60.17,48.27-93.27,70C826.4,767.74,679.74,778.64,484.47,761.74c-22.12-2.18-44.86-1.76-65.91-.63-22.4.14-43.14,1.11-62.66-1.11-53.43-10.89-91.31-57-102.07-121.18-1.72-12.54-3.45-25.09-4.62-37-6.52-57-13.33-110.38-48.54-156.65-13.47-18.94-94.83-21.95-175.31,20.46L4.42,427.13c81.13-43.06,196.28-57,231.6-8.74,42.82,56.07,49.62,118.07,57.33,178.34a326,326,0,0,0,4.34,36.09c7.35,45.51,31.42,76.19,64.91,83,15.07,2.69,34.34,1.93,54.15.62,22.07.13,46.66-.71,71,.85,186,16.88,325.27,6.71,485.13-96.56,180-122,303.83-280.41,362.08-363.69C1405.51,157.28,1453.43,51.49,1491.62-85c40.1-146.63,93.61-369.75,115-605.21,7.08-71.18-7.67-92.37-13.09-94.41-9.35-3-42.65,11.49-97.46,101.51-39.32,63.36-76.86,130.64-112.76,195.48-111.33,203-215,394.36-367.19,454.82L999.68-73.08c132.38-57.09,237-239.55,345.07-435.45,36.44-65.39,73.89-133.59,113.26-198.09,57.15-93,108.06-133.72,149.17-120.31,25.13,8.39,53.21,40.06,43,140.76-20.93,239.24-75,465-116.34,612.68-39.31,141.71-89.36,251.45-162.7,355.58-49.39,70.64-144.65,193.85-280.58,305.39" class="cls-2"/><path d="M373.23,504.88,369.8,494c10.45-3.77,20.45-10.62,30.19-19.68l16.22.66c-13.29,14.12-27.36,24.74-43,29.87" class="cls-7"/><path d="M167.86,608.4c9.8,15.48,10.41,31.84,11.27,47.77a85.07,85.07,0,0,0,.44,9.53c1,12.06,6.56,20.54,14.9,22.95,3.77,1,8.65,1.15,13.68,1.18,5.58.44,11.82.69,17.94,1.55,46.73,7.9,82.1,7.85,124.38-16.2,47.71-28.56,82-66.67,98.27-87.38,19.64-24.81,33.51-52.65,45.64-87.67,2.24-6.63,4.64-13.87,7.11-21.63l11.44.46c-2.84,9-5.58,17.4-8.1,25-12.2,36.75-28.16,62.08-48.74,87.76-14,17.4-38.89,50.34-75.27,77A282.47,282.47,0,0,1,356,685.28C310.79,710.93,273.51,711,224.45,703a108.34,108.34,0,0,0-16.65-1.4c-5.66-.38-10.92-.51-15.82-1.46-13.31-3.85-22-16.65-23.61-33.64-.2-3.31-.41-6.63-.5-9.77-.62-15-1.37-29.14-9.43-41.92-3.06-5.21-23.58-7.53-44.69,2.07l-4.6-10.48c21.29-9.75,50.65-11.25,58.71,2" class="cls-8"/><path d="M534.39,343.82c3.08-18.5-.27-24.33-1.6-25-2.31-1-11,2.21-26.47,24.76-11.09,15.85-21.79,32.76-32.05,49.06C455,423.58,436.55,453.39,416.21,475L400,474.35c22.43-20.86,43.41-53.52,64.92-87.87C475.3,370,486,352.89,497.12,336.74c16.13-23.29,29.74-33,39.88-28.71,6.21,2.67,12.73,11.49,8.33,37.67-7.7,49.86-20.94,96.93-32.4,133.27l-11.43-.47c11.6-36.35,24.92-84.21,32.89-134.68" class="cls-7"/><path d="M656.05,371.49a157.33,157.33,0,0,1,16-12.83c28.76-19.16,51.2-15.49,80.22-3.06a46,46,0,0,0,9.94,3c3.38.93,6.54,1.58,9.43,3,7.76,4.9,12.24,17.61,12.14,33.49-.08,3.08-.15,6.17-.3,9.08-.54,14-1,27.09,3.11,39.71,1.53,5.13,13.73,9.34,27,2.6l2.13,10.16c-13.41,6.86-31.17,5.28-35.21-7.83-5-15.31-4.3-30.5-3.85-45.31.22-2.73.3-5.82.32-8.86.11-11.25-2.69-19.65-7.57-22.72a25.17,25.17,0,0,0-8.15-2.47c-3.33-1-7.07-1.83-10.7-3.25-27.64-12-48.92-15.55-75.84,2.41-30.46,21.59-53.42,54.34-64.46,71.86-13.34,20.94-23.42,44.31-32.86,75.47-10,33.51-24.1,84.82-33.67,140.48-3,16.8-1.32,22.53-.57,23.24,1.34,1.12,6.75-.92,17.45-20.2,7.65-13.54,15.12-28.1,22.29-42.14,22.28-44,43.09-85.53,67.68-93.54L652,534.1c-21.52,8-42.24,47.4-63.82,89.83-7.27,14.15-14.75,28.93-22.44,42.74-11.13,19.9-19.91,27.5-25.76,22.51-3.56-3.09-7-11.9-2.7-35.66C546.86,596.94,561.1,545,571.32,511.3c9.76-32.36,20.26-56.58,34.14-78.46,9.36-14.86,27.07-40.38,50.59-61.35" class="cls-7"/><path d="M564.23,865.43a142.85,142.85,0,0,1-10.32,15.16c-19.62,23.91-39.77,26.63-67.87,23.56a41,41,0,0,0-9.27.05,51,51,0,0,1-8.85-.06c-7.93-2.17-15.08-11.89-19.14-25.5-.74-2.66-1.48-5.32-2.11-7.84-3.18-12.1-6.26-23.44-13-33.19-2.65-4-14.18-4.41-23.81,4.82l-4.47-8.13c9.69-9.38,25.31-12.66,32.18-2.49,8.24,11.81,11.65,25,15.13,37.77.53,2.4,1.27,5.06,2,7.67,2.84,9.65,7.43,16.11,12.4,17.48a23,23,0,0,0,7.64,0c3.1,0,6.52-.28,10,0,26.8,3.09,45.94.54,64.29-21.87,20.43-26.43,31.54-60.47,36.41-78.34,5.94-21.41,8.48-44,8.42-73.18-.19-31.3-1.53-78.9-7.87-129-1.84-15.16-4.75-19.62-5.59-20-1.43-.61-5.54,2.56-9.66,21.85-3,13.59-5.6,28-8.07,41.89-7.58,43.48-14.54,84.47-33.51,97.74l-3.91-8.51c16.33-12.51,23.78-51.6,31.18-93.57,2.52-14,5.06-28.61,8-42.44,4.33-19.94,9.86-28.73,16.17-26,3.86,1.72,9.06,8.38,11.62,29.83,6.56,50.94,7.93,99.11,8,130.63.11,30.24-2.57,53.72-8.73,76.07-4.13,15.16-12.62,41.63-27.28,65.72" class="cls-9"/><path d="M555,475.16a471.53,471.53,0,0,1,19.4-45.74C613.79,352.31,665.5,317,741.06,281.47a187.43,187.43,0,0,0,24.42-13.86c8.23-4.83,15.66-9.62,23.32-13,22-7.41,45.84,1.51,63.51,22.84,3.31,4.25,6.63,8.51,9.6,12.63,14.57,19.6,28.49,37.83,51.35,47.35,9,4.1,39.64-12.17,60.22-45l15.95,9.72c-20.7,33.2-60.14,62.94-83.47,52.7-27.75-11.51-43.52-32.9-59.22-53.45a137.3,137.3,0,0,0-9.32-12.38c-12.43-15.19-27.85-21.36-41.65-16.71-6.12,2.22-13.06,6.62-20.08,11.34-8.16,4.67-17,10.22-26.35,14.86-72.15,33.53-121.27,67-158.12,139.22-40.25,83.41-52,168.24-55.7,211.37-4.68,51.83.27,101,15.36,159.5,16.55,62.59,44.51,156.23,86.93,247.56,12.61,27.74,22.57,32.4,25,32,4.08-.89,13.26-13.34,14.22-58.22,1-31.74.41-64.56-.22-96.12-2.35-98.58-5-191.25,38.12-246l14.66,11.32C693,748.45,693.44,838.05,695.48,933.31c.55,31.88,1.32,65,.6,97.18-1.19,46.5-11.25,72.36-29.26,76.2-11.05,2.28-28.17-3.39-45.91-42.68-43.41-92.62-71.73-187.36-88-250.6-15.8-60.61-20.8-111.74-16-165.78C520,611.05,528.73,545.3,555,475.16" class="cls-5"/><path d="M398.14,895.7c-24.09,43.19-49.72,86.84-79.53,129-155,214.75-331,299.82-581.54,375.84-28.51,8.29-56.45,20-81.95,31.66-27.67,11.19-52.85,22.55-78.16,29.51-71.76,13.37-142.39-22.74-188.66-93.5-8.57-14-17.15-28.06-24.72-41.57-37.32-64.34-73.2-124.35-140.57-161.89-26.4-15.86-128.71,20.6-206.59,110.47l-45.73-35.38c78.36-91,213.8-164.15,282.34-124.29,81.82,45.43,122.09,115.61,162.59,183.29,6.51,13.11,15.09,27.13,23.93,40.68,32.47,50.36,78.05,74.9,123,66.49,20-4.22,43.51-14.59,67.36-25.89,27.41-10.71,57.43-23.79,88.38-33.92C-42.61,1274.67,124.58,1194.11,269.52,993,429.76,759.8,501.74,511,531.1,383.59c36.12-153,41.11-302,18.31-482.72C523.75-292.76,475.4-583.68,381-873.44c-27.8-87.91-57-105.78-64.71-105.54-13.12,1.07-46.92,34.61-68.56,168.33-16.14,94.48-28.07,192.73-39.23,287.3-33.6,295.5-63.75,573.46-221.11,720l-41-39.65C80.93,24.19,116.81-243.69,150-529.15c11.55-95.48,22.88-194.77,38.51-290.63,23-138.47,65.14-211.75,122.94-216.07,35.42-2.41,86.47,21.35,125.53,145.8,97,294,146,588.37,170.63,783.83,24.1,187.39,18.49,342.16-18.84,501.73-24.89,108.07-79.56,301-190.6,500.19" class="cls-9"/><path d="M612.82,2.16a169.17,169.17,0,0,1,12.46-13C648.59-32,670.71-37.39,700.94-39.74A68,68,0,0,0,711-41.3a86.56,86.56,0,0,1,9.59-1.41C729-42.4,736-36.3,739.25-26.78c.58,1.87,1.15,3.74,1.64,5.52,2.43,8.53,4.82,16.51,11.36,22.69,2.53,2.55,15,1,26.25-7.55l4.17,5.35c-11.31,8.63-28.53,13.66-35.14,7.18C739.58-1.07,737-10.36,734.28-19.37a53.37,53.37,0,0,0-1.57-5.39c-2.27-6.76-6.72-10.84-12-11a37.23,37.23,0,0,0-8.28,1.27c-3.37.54-7.11,1.29-10.86,1.67-28.83,2.11-49.82,7.18-71.62,27-24.4,23.16-39.31,50.47-46.1,64.65-8.25,17-12.9,34.37-15.29,56.17-2.42,23.4-4.95,58.81-2.28,95.29.72,11.05,3.5,13.91,4.38,14.09,1.5.21,6.22-2.83,12.32-18,4.4-10.67,8.43-21.89,12.28-32.69,11.87-33.8,22.88-65.62,44.58-78.69l3.52,5.73c-18.76,12.05-30.14,42.55-41.69,75.18-3.91,10.9-7.9,22.26-12.29,33.1-6.38,15.64-13.12,23.14-19.74,22.13-4-.65-9.13-4.78-10.11-20.41-2.84-37.05-.28-72.88,2.31-96.46,2.42-22.63,7.29-40.64,15.86-58.39a240.5,240.5,0,0,1,35.13-53.7" class="cls-7"/><path d="M334.24,376c-16.61,23.76-33.15,45.48-50,65.53L310.65,455c16-19.31,31.64-40.1,47.34-62.67q7.72-11,16-23.13l-27.54-11.08q-6.26,9.23-12.2,17.82" class="cls-4"/><path d="M162.07,554.74C107.64,593.89-4,665.49-142.7,702.16c-122.06,29.41-210.95,5.37-323.1-45.74-14.82-6.28-30.31-11.12-44-16-12.62-3.5-24.78-7.24-33.58-12.2-19.36-11.54-27.65-35.9-22.31-65.83A218.78,218.78,0,0,1-560.53,539c8.36-39.21,17.64-79.29,3.22-123.54-11.46-37.75-86.18-54.2-146.1-45.09l4.64,28.55c59.36-8.84,109.36,10.79,113.6,25.52,11.83,36.49,4.41,71.24-4,108.12-1.86,7.65-3.52,15.83-5.19,24-7.29,42.27,6.22,79.28,37.11,97.71,11.66,5.65,24.79,9.56,38.77,14.37,13.35,3.89,27.59,8.59,40.89,14.77,117.89,53.13,211.57,78.35,342,47,25.36-6.33,49.72-14.63,73.35-23.25,109-39.79,195.15-95.71,241.32-128.91,49-35,91.17-74.38,131.53-123.2L284.21,441.5c-37.57,44.64-76.81,81-122.14,113.24" class="cls-9"/><path d="M568.07-60.71C545.4-78,504.83-63.81,448.94-18.35,410.36,13.21,372.17,47.5,335.21,80.26c-110,98.38-215,189.14-309.84,195.8l1.45,28.65c107.92-4.45,214.24-100.95,327.84-203,36.5-32.53,74.55-66.23,112.85-97.1,53.77-44.08,77.66-45.83,82.83-41.93,2.93,2.45,7.49,18.86-12.46,61.64C477.68,156.35,402.5,275.7,346.44,358.15L374,369.23C430.53,286.48,504.66,167.88,564.11,36.3c28.34-60.46,17.77-86.3,4-97" class="cls-9"/><path d="M357.41,188.85c2.22-11,4.3-22.24,5.57-33.41,6-57.16-8.07-87.5-34.09-120.89a68.93,68.93,0,0,1-7.62-12.4c-2.5-4.29-4.62-8.46-7.35-11.68-8.56-7.73-23.49-4.62-39.48,7.67-3.08,2.48-6.17,4.95-9,7.39C251.54,37,238.47,47.67,223.82,51.31,217.92,53,208,38.18,208.66,13.38L197.42,18c-.73,25.07,9.1,50.1,24.22,46,17.77-4.38,32.83-17,47.58-29,2.66-2.41,5.75-4.89,8.81-7.24,11.32-8.78,21.11-11,26.47-6.2,2.33,2.26,4.34,6.1,6.28,10.16,2.53,4.18,5.13,9,8.24,13.33,25,31.62,38.4,60.4,32.72,113.91C344,220.55,321.56,279.54,309,309.25,294,345,275,377.74,247.92,415.53,218.68,456,173.35,516,121.53,572.73c-15.6,17.27-22.15,19.2-23.24,18.63-1.75-1.12-2.19-10.69,12.34-41.25,10.15-21.65,21.39-43.84,32.26-65.17,34.16-66.57,66.49-129.09,63.18-171.56l-11.14,5.87c1.86,38-28.33,98.66-61.21,163-10.94,21.55-22.41,43.93-32.81,65.84C86,579.8,82.35,598.58,90.1,603.4c4.78,2.91,15.26,1.17,37.29-23.28C180.14,522.64,226,461.87,255.35,421c28.2-39.16,47.81-73.23,63.49-110.46,10.68-25.19,28.27-70.87,38.57-121.68" class="cls-7"/><path d="M276.64,439.44c.5-.37,1-.71,1.5-1l-2.07-1.06Z" class="cls-9"/><path d="M500.5,198.92c-4.9-2.29-12.09,5.29-21.08,22.39-6.2,11.87-12.24,24.39-18.08,36.4-17.39,36-34.09,69.51-51.83,80.36l1.28,7.25c20.29-11.53,37-46.67,55-83.95,5.78-11.91,11.8-24.27,18-35.92,8.64-16.55,13.1-19.3,14.22-18.8.64.36,2.09,4.15-.2,17.11-7.27,42.86-18.34,83.58-26.23,110.37-7.46,24.94-15.54,44.33-26.34,62.71-8.93,15.34-27.58,44.57-52.57,67.38-22.08,19.34-39.77,21.68-62.8,19.28-3-.19-6.14.05-8.91.11a21.3,21.3,0,0,1-6.79.08c-4.07-1.12-6.5-6.61-6.53-14.85,0-2.22,0-4.5.15-6.55.06-2.88.12-5.79.11-8.7l-5.72-2.91c.2,4.08.09,8.33,0,12.71-.08,2.15-.11,4.42-.14,6.69.1,11.62,4,19.87,10.46,21.66a47.89,47.89,0,0,0,7.85,0,38,38,0,0,1,8.26-.13c24.2,2.37,42.84-.14,66.44-20.77,4.59-4.07,8.91-8.56,13.08-13.06,19.25-20.76,33.61-43.49,41.19-56.49,11.24-19.19,19.67-39.31,27.37-65.19,8.06-27,19.26-68.2,26.54-111.74,3.25-18.33.34-24-2.65-25.42" class="cls-9"/><path d="M304,430.1c-3.5-8.64-18.23-5.69-29.26,2.42l1.31,4.82,2.07,1.06c10.35-6.92,19.66-6.54,20.92-3.3a44.63,44.63,0,0,1,3.07,15.57l5.72,2.93c0-8.08-.68-16.12-3.83-23.5" class="cls-4"/><path d="M226.84,442.5l.18,5.23c8.45-3.3,16.85-11.64,25.4-22.49l-3.88-2c-7.55,9.26-14.82,16.3-21.7,19.24" class="cls-9"/><path d="M271.11,446c-7.77,16.79-15.42,29.62-24.91,41.46-7.86,9.89-24,28.57-43.92,42.11-17.57,11.37-30.31,11.25-46.37,7.24-2.12-.44-4.34-.58-6.31-.83a14.8,14.8,0,0,1-4.8-.62c-2.78-1.2-4-5.3-3.15-11.1.21-1.57.46-3.16.77-4.59,1.23-7.66,2.61-15.53.59-23-1.61-6.44-12.33-5.84-20.94-1.24l.63,5.06c8.54-4.52,15.7-3.33,16.3-.8,1.66,6.18.56,13-.68,20.2-.28,1.51-.52,3.11-.77,4.7-1.09,8.18.82,14.37,5.23,16.28a34.48,34.48,0,0,0,5.56.78,28,28,0,0,1,5.86.74c16.87,4.1,30.31,4.22,49.08-7.93,3.64-2.4,7.15-5.12,10.56-7.87,15.69-12.66,28.12-27.2,34.79-35.6,9.87-12.36,17.85-25.66,25.88-43.1,1.31-2.83,2.71-5.9,4.18-9.17l-3.48-1.78c-1.44,3.23-2.81,6.27-4.1,9.08" class="cls-9"/><path d="M305.13,353.78c-3.24-2.11-9.07,2.5-17.15,13.63-5.57,7.72-11.09,15.92-16.44,23.78-7.88,11.68-15.58,22.95-23,32.07l3.89,2c7.15-9.08,14.4-19.91,21.89-31,5.28-7.8,10.78-15.88,16.31-23.46,7.76-10.77,11.2-12.26,11.94-11.79.42.32,1.06,3.13-1.86,12a668.58,668.58,0,0,1-25.5,65.92l3.48,1.78a653.48,653.48,0,0,0,25.78-66.75c4.13-12.57,2.63-16.85.66-18.15" class="cls-4"/><path d="M404.31,244.57a246.72,246.72,0,0,0,1-26c-1.56-45.26-18.21-73.47-46.12-107a96.6,96.6,0,0,1-8.5-12,119.71,119.71,0,0,0-8.17-11.32c-8.77-8.38-22-9.44-35.13-3.26-2.51,1.27-5,2.55-7.35,3.85-11.25,6-21.89,11.59-34.82,11-5.18-.05-16.07-14.55-18.54-34.66l-9.71,1.07c2.44,20.31,14.52,43.14,27.84,43.47,15.69.71,27.9-5.94,39.9-12.18a73.73,73.73,0,0,1,7.16-3.8c9.25-4.44,17.93-3.94,23.43,1.33,2.41,2.41,4.72,6,7,9.82,2.83,4,5.81,8.62,9.18,12.88,26.74,31.88,42.57,58.63,44,101,.57,48.42-12.67,91.21-20.5,112.44-9.27,25.59-22.53,47.8-42.65,72.13-21.72,26-55.72,64.12-96.06,98-12.12,10.34-17.88,10.33-18.94,9.6-1.73-1.33-3.31-9.26,6.18-30.73,6.59-15.24,14.12-30.66,21.42-45.46,23-46.17,44.79-89.46,36.51-125L272,311.92c6.39,31.46-13.69,73.8-35.78,118.46-7.33,15-15,30.49-21.83,45.89-9.75,22.28-10.73,36.76-3.05,42.57,4.73,3.53,14.09,4.64,31.21-10C283.6,474.57,318,436,339.77,409.66c20.92-25.2,34.63-48.3,44.35-75,6.64-18,17.07-51.1,20.19-90.14" class="cls-2"/><path d="M548.29,352.73a269.83,269.83,0,0,1,23.27-17.34c42.51-27.12,78.4-28.84,126-23.06a103.22,103.22,0,0,0,16.1.65c5.47.12,10.54,0,15.3.74,13,3.19,21.9,15.35,24.09,31.94.33,3.24.66,6.48.87,9.55,1.19,14.71,2.48,28.51,10.77,40.67,3.16,5,23,6.35,43-4L812.49,402c-20.12,10.49-48.35,13.23-56.64.55-10.07-14.74-11.3-30.75-12.76-46.32a89.92,89.92,0,0,0-.81-9.32C740.8,335.11,735.14,327,727,325c-3.66-.8-8.37-.75-13.22-.56-5.39-.19-11.4-.15-17.34-.73C651.11,318,617,319.63,577.25,345c-44.8,30.08-76.17,70-91,91-17.93,25.16-30.37,52-40.65,86.88-10.82,37.45-25.44,94.49-32.31,154.93-2.22,18.27,1.22,23.83,2.54,24.4,2.26.83,10.5-2.64,24.52-25.41,10-16,19.67-33.06,28.9-49.49,28.61-51.43,55.28-99.92,92.86-114.36l3.74,10.48c-32.74,13.72-59.57,59.91-87.33,109.54-9.36,16.57-19,33.84-29,50.15-14.61,23.53-27.33,33.63-37.28,29.87-6.09-2.34-12.72-10.7-9.52-36.54C409.49,615,424.27,557.3,435.4,519.6,446,483.42,459,455.54,477.62,429.27c12.55-17.81,36.68-48.83,70.67-76.54" class="cls-6"/><path d="M503.74,341.76c80.34-186.43,192.64-471.48,264.79-778.83,22.62-92.82,7.07-123.58.29-127.29C757-570,710.27-557.12,621-448.29c-63.8,76.46-126,158.43-185.52,237.48-185,247.67-357.81,481.39-570.25,533L-149,265.89C36.71,215.07,209.09-6.7,388.43-245.61,448.79-325.29,511-408.49,575.08-486.44,668-598.83,742.88-643.13,794.73-617.74c31.66,15.77,62.9,62.9,30.62,194.13-72.23,312.45-185.77,600.92-268,788.47Q540,404.72,522.07,441.79L458,439.22q23.44-46.52,45.74-97.46" class="cls-4"/><path d="M-1250.29,773.51c46.17,82.11,43.62,165.35,42.58,246.48-1.34,15-1.4,31.93-1,48.54,1.24,61.54,27.36,106.6,70.38,121.83,19.42,6.36,45,9,71.47,10.92,29.17,4.27,61.83,7.74,93.74,14.34,242.86,57,428.84,69.46,659.47-37.31,260.72-127.77,454-314.17,546.5-413.45C322.77,669.42,394.06,566.1,458,439.22l64.07,2.57C452.78,584.73,375.2,699,276,804.71c-78.47,84.21-227.38,229.39-427.9,351.56-43.49,26.49-88.54,52.61-136.38,75.25-246.47,113.9-442.42,101-697.47,42.27-28.84-7-59-10.69-87-13.12-29.65-4-57.26-6.56-82.65-13.14-68.61-24.34-110.1-92.44-112.39-179.24.07-16.91.12-33.81.77-49.75,2-76.52,3-148.43-35-216.16-14.27-27.57-121.3-46.71-235.59-5.63l-20.53-54.83c115.3-41.83,270.15-38.81,307.87,31.59" class="cls-4"/><path d="M515.87,454.46C448.15,591.52,372.26,702.14,276,804.72c-78.46,84.2-227.37,229.38-427.89,351.54-43.48,26.5-88.54,52.63-136.38,75.26-246.46,113.9-442.41,101-697.48,42.27-28.84-7-59-10.69-87-13.12-29.66-4-57.26-6.56-82.65-13.13-68.62-24.35-110.1-92.45-112.4-179.25.06-16.9.13-33.81.77-49.75,2-76.52,3-148.43-35-216.16-14.27-27.57-121.29-46.71-235.6-5.62l-20.52-54.84c115.31-41.83,270.16-38.81,307.86,31.58,46.19,82.12,43.64,165.36,42.6,246.49-1.35,15-1.41,31.93-1,48.55,1.24,61.53,27.36,106.59,70.38,121.82,19.42,6.37,45,9,71.46,10.92,29.18,4.27,61.84,7.74,93.75,14.34,242.86,57,428.84,69.46,659.47-37.31,260.72-127.77,454-314.17,546.5-413.45C310,683,373.47,595.24,430.34,491.81c0,0,7.66,9.95,23.05,1.07s62.48-38.42,62.48-38.42" class="cls-8"/><path d="M382.71,323.29c.91-3.1,1.76-6.26,2.39-9.42,3.09-16.22-.22-25.25-6.88-35.42a19.51,19.51,0,0,1-1.89-3.73,22.64,22.64,0,0,0-1.82-3.52c-2.27-2.42-6.61-1.88-11.48,1.25-.95.64-1.89,1.28-2.77,1.91-4.24,2.95-8.24,5.69-12.51,6.39-1.74.34-4.22-4.14-3.44-11.22L341,270.58c-.81,7.16,1.4,14.56,5.83,13.76,5.19-.84,9.8-4.08,14.31-7.16.82-.63,1.76-1.27,2.69-1.87,3.45-2.24,6.31-2.65,7.73-1.14a11.24,11.24,0,0,1,1.56,3.05c.62,1.26,1.25,2.72,2,4,6.39,9.64,9.54,18.2,6.64,33.39-3.66,17.42-11.5,33.77-15.81,42-5.14,9.88-11.35,18.8-20,29a519.4,519.4,0,0,1-39.91,42c-4.88,4.57-6.8,5-7.1,4.78-.47-.36-.37-3.11,4.52-11.51,3.42-6,7.16-12,10.79-17.89,11.35-18.24,22.1-35.36,22.16-47.61l-3.32,1.42c-.38,10.91-10.46,27.57-21.4,45.21-3.66,5.91-7.47,12-11,18.06-5,8.72-6.52,14-4.41,15.57,1.3,1,4.34.7,11.23-5.77A504.76,504.76,0,0,0,348,387.31c9-10.54,15.43-19.82,20.8-30.1a189.88,189.88,0,0,0,13.94-33.92" class="cls-7"/><path d="M322.65,467l3.49-1.31a21,21,0,0,0-.41-3l-5-2.55a15.55,15.55,0,0,1,1.91,6.83" class="cls-9"/><path d="M291.13,435.58l3.42-1.64c-1.33-8.69,24.18-58.43,36.47-82l-2.76-1.11c-12.5,23.79-39,74.94-37.13,84.75" class="cls-4"/><path d="M302.79,461.91c-.8.65-1.72,1.33-2.64,2-3.4,2.4-6.47,3.08-8.3,1.87a11.17,11.17,0,0,1-2.26-2.6c-.9-1.07-1.85-2.32-2.94-3.41-7.46-6.85-12.17-13.25-13.07-23.68l-3.68-1.88c.2,13.15,5.33,20.49,13.85,28.41a19.7,19.7,0,0,1,2.72,3.17,24.64,24.64,0,0,0,2.64,3c2.92,1.94,7.61,1,12.42-2.37.92-.68,1.85-1.35,2.7-2,3.78-2.84,7.37-5.48,11.45-6.76l-3.55-1.81a62.05,62.05,0,0,0-9.34,6.12" class="cls-9"/><path d="M337,320.07c4.56-4.65,6.61-5.22,7-5.08.58.28,1,2.77-2.95,10.89-2.72,5.75-5.77,11.65-8.72,17.32-1.06,2-2.43,4.6-4,7.63l2.77,1.11c1.7-3.27,3.15-6,4.24-8.12,3-5.74,6.1-11.69,8.89-17.51,4-8.41,4.71-13.35,2.11-14.55-1.59-.71-4.9-.16-11.35,6.43-8.7,8.73-16.69,17.72-23.5,25.86l2.77,1.11c6.66-7.93,14.39-16.63,22.79-25.09" class="cls-9"/><path d="M317.28,453.91a23.54,23.54,0,0,0-5.14,1.88l3.54,1.81c.4-.12.81-.25,1.21-.35,1.05-.27,2.61.8,3.86,2.95l5,2.54c-1.15-5.38-4.44-9.85-8.45-8.83" class="cls-9"/><path d="M273.44,430.28c1-16.15,6.72-31.77,10-39.65,3.93-9.47,9.19-18.21,16.93-28.33,3.75-4.84,8.42-10.74,13.79-17.14L311.41,344c-5.28,6.32-9.86,12.12-13.52,16.9-8.06,10.5-13.5,19.58-17.61,29.45a142.45,142.45,0,0,0-9.37,32.15,83.6,83.6,0,0,0-1,8.78c0,1,0,1.94,0,2.87l3.67,1.87a45.28,45.28,0,0,1-.13-5.78" class="cls-4"/><path d="M534,10.9a273.05,273.05,0,0,1,2.33-28.74C544-67.52,566-96.43,601.15-129.77a108.72,108.72,0,0,0,10.92-12.08c3.66-4.18,6.88-8.17,10.49-11.41,10.77-8.1,25.52-7.54,39.15,1,2.6,1.74,5.2,3.48,7.59,5.21,11.6,8.13,22.6,15.63,36.93,16.71,5.72.62,19.61-13.94,25-35.77l10.56,2.44c-5.35,22.07-21.65,45.65-36.36,44.26C688-120.69,675.42-129.6,663-138a78.45,78.45,0,0,0-7.39-5.12c-9.62-6.11-19.24-6.69-26-1.61-3,2.34-6,6-9,9.91-3.64,4.07-7.52,8.75-11.8,13-33.63,31.64-54.58,59.05-61.7,105.55-7,53.3,2,102.18,7.89,126.61,6.87,29.41,18.58,55.62,37.56,85.07,20.54,31.47,53,77.95,93.07,120.52,12,13,18.34,13.73,19.61,13.06,2.08-1.24,4.87-9.77-2.79-34.67-5.27-17.67-11.56-35.64-17.67-52.91-19.28-53.88-37.66-104.45-23.88-142.5l10.13,3.56c-11.15,33.85,5.43,83.13,23.94,135.23,6.12,17.47,12.59,35.57,18.07,53.43,7.83,25.83,7,41.91-2.21,47.32-5.68,3.27-16.14,3.27-33.09-15.13-40.82-43.11-73.7-90.14-94.22-122-19.77-30.51-31.86-57.76-39.09-88.4-5-20.72-12.13-58.54-10.46-102" class="cls-2"/><path d="M514.89,474.89c52.44-144.31,74.65-293.21,75.69-471.34,0-191-9.15-479.22-61.3-771.71-15-88.63-39.92-109.43-47.17-110.11-12.33-.51-47.9,28.07-84.47,155.36C371-633.07,347.8-539.08,325.78-448.57c-67.63,283-129.89,549.32-294.27,673L-1.76,181.13c141.53-113.08,207.88-369,273.87-642.22,22.49-91.35,45.26-186.43,71.6-277.67,38.43-131.74,86.64-197.92,140.92-195.3,33.24,1.84,77.78,30.93,98.77,156.37,54,296.93,63.3,588.53,62.14,781.22-.66,184.8-24.94,334.42-79.3,485" class="cls-5"/><path d="M677.6,287.27a268.12,268.12,0,0,0,23.66,15.9c43.1,24.72,79,25.51,126.47,18.91a106.17,106.17,0,0,1,16.08-1c5.47-.25,10.54-.28,15.27-1.07,12.9-3.34,21.56-15.08,23.37-30.87.26-3.08.52-6.17.65-9.09.87-14,1.85-27.1,9.86-38.84,3-4.8,22.86-6.57,43,2.76l4.62-9.67c-20.35-9.48-48.63-11.41-56.64.81-9.73,14.23-10.6,29.45-11.71,44.25a81.75,81.75,0,0,1-.6,8.87c-1.21,11.2-6.7,19-14.79,21.08-3.64.85-8.36.91-13.2.84-5.39.32-11.4.42-17.32,1.12-45.19,6.49-79.3,5.78-119.62-17.39-45.49-27.47-77.73-64.56-93-84.14-18.49-23.45-31.53-48.65-42.6-81.49C559.49,93,543.59,39.22,535.37-18c-2.63-17.28.7-22.64,2-23.21,2.25-.84,10.56,2.26,25.08,23.53,10.4,15,20.42,30.91,30,46.28C622.2,76.74,650,122.11,687.86,134.93l3.49-10c-33-12.25-60.9-55.44-89.75-101.87-9.73-15.5-19.74-31.66-30.17-46.9-15.13-22-28.08-31.26-37.94-27.47-6,2.37-12.47,10.46-8.7,34.91C533,41.69,549,96.1,561,131.61c11.4,34.08,25,60.22,44.25,84.7,12.94,16.61,37.76,45.46,72.36,71" class="cls-6"/><path d="M609.59-44.46A272.9,272.9,0,0,1,620.13-71.3c21.65-45.35,51.09-66.67,94.36-88.45a108.81,108.81,0,0,0,14-8.42c4.69-2.94,8.93-5.83,13.33-7.9,12.64-4.64,26.61.16,37.18,12.25,2,2.42,4,4.84,5.77,7.18,8.77,11.14,17.13,21.49,30.55,26.66,5.28,2.24,22.79-7.68,34.22-27l9.41,5.38C847.42-132,825-114.17,811.32-119.75c-16.29-6.24-25.77-18.4-35.21-30.08a81,81,0,0,0-5.59-7c-7.45-8.62-16.5-12-24.43-9-3.52,1.39-7.47,4.05-11.46,6.89-4.67,2.84-9.73,6.21-15.06,9-41.33,20.58-69.31,40.79-89.54,83.26-22,49-27.54,98.41-29,123.49-1.9,30.14,1.75,58.61,11.42,92.29,10.59,36.06,28.28,89.93,54.33,142.25,7.74,15.9,13.59,18.44,15,18.17,2.36-.59,7.48-8,7.34-34,0-18.43-.79-37.45-1.65-55.75-2.91-57.15-5.92-110.87,18.25-143.33l8.68,6.33c-20.45,29.19-18.79,81.15-16.1,136.39.82,18.49,1.78,37.69,1.87,56.37.05,27-5.38,42.15-15.77,44.66-6.38,1.5-16.39-1.52-27.31-24-26.64-53.05-44.55-107.57-55-144C592,117.2,588.26,87.63,590.18,56.2c1.23-21.27,5.29-59.55,19.41-100.66" class="cls-2"/><path d="M649.48,118.79c5.15-6.11,10.49-12.19,16.14-17.7C694.79,73.26,717.9,70.47,748,74.69a42.35,42.35,0,0,0,10.24.15c3.51,0,6.77-.29,9.75.26,8.08,2.73,12.92,14.37,13.12,30.55,0,3.15,0,6.32-.14,9.32-.3,14.36-.47,27.84,4,39.49,1.67,4.78,14.28,5.52,27.8-5.19L815,159c-13.63,10.88-31.9,14.42-36.29,2.26-5.38-14.14-5-29.77-4.82-45,.17-2.85.18-6,.15-9.11-.1-11.47-3.14-19.2-8.2-20.91-2.29-.68-5.31-.49-8.43-.15-3.44,0-7.28.19-11-.2-28.6-4.21-50.54-1.61-77.83,24.48-30.86,30.81-53.81,70.8-64.81,91.82-13.29,25.18-23.19,51.87-32.3,86.31-9.63,37-23.1,93.28-31.86,152.68-2.74,18-.93,23.3-.14,23.82,1.39.74,6.91-2.92,17.53-25.63,7.59-16,15-33,22.08-49.34,22-51.23,42.59-99.52,67.7-114.8l1.64,10.15C626.47,299.82,606,345.86,584.61,395.3c-7.19,16.5-14.6,33.71-22.22,50-11,23.48-19.92,33.75-26,30.38-3.71-2.11-7.36-10.09-3.44-35.49,8.77-60.35,22.4-117.31,32.24-154.57,9.4-35.75,19.73-63.44,33.55-89.73,9.33-17.82,27-48.92,50.77-77.09" class="cls-6"/><path d="M393.22,707.87c-3.4,2.75-6.91,5.47-10.57,7.88-18.76,12.14-32.19,12-49.07,7.92a27.91,27.91,0,0,0-5.87-.74,33.58,33.58,0,0,1-5.55-.78c-4.41-1.9-6.32-8.1-5.23-16.28.25-1.59.5-3.19.77-4.69,1.24-7.24,2.34-14,.67-20.21-.59-2.52-7.75-3.72-16.29.8l-.63-5.06c8.61-4.6,19.33-5.19,20.94,1.25,2,7.48.65,15.35-.59,23-.31,1.43-.56,3-.77,4.59-.79,5.8.38,9.91,3.14,11.1a15,15,0,0,0,4.82.63c2,.24,4.19.38,6.3.82,16.06,4,28.81,4.14,46.37-7.24,20-13.53,36.07-32.22,43.92-42.11,9.49-11.84,17.15-24.66,24.91-41.46,8.27-18,20.17-45.58,29.61-75,2.9-8.89,2.26-11.7,1.85-12-.73-.47-4.17,1-11.95,11.78-5.52,7.58-11,15.67-16.3,23.46C437.29,600,421.91,623,406.41,629.05l-.18-5.22c13.63-5.85,28.8-27.75,44.7-51.32,5.34-7.86,10.86-16.06,16.44-23.77,8.07-11.14,13.91-15.74,17.15-13.64,2,1.31,3.47,5.58-.67,18.15-9.51,29.9-21.55,57.76-30,75.92-8,17.44-16,30.75-25.88,43.11-6.66,8.39-19.1,22.93-34.79,35.59" class="cls-6"/><path d="M125.37,438.3c-21.56,27.43-42.53,51.36-63.25,65.2l1.28,5.2c18.32-11.87,35.56-29.59,52.73-50.22l.63-1.47c2.75-6.23,5.65-12.48,8.61-18.71" class="cls-9"/><path d="M153.32,410.73l-3.95.65c-.68,1.38-1.37,2.76-2.05,4.13q-2.19,4.44-4.39,8.95c3.44-4.52,6.89-9.11,10.38-13.72h0" class="cls-9"/><path d="M149.38,411.38l3.94-.65c4.11-5.42,8.31-10.93,12.55-16.45l-7.82,1.36L155.52,399q-3,6.17-6.14,12.42" class="cls-4"/><path d="M183.45,371.84c14.42-18.12,21.36-22.77,23-23,.94-.07,2.76,2.23-1.81,14-14.7,38.73-34.91,77.79-49.13,103.8l-.85,1.52q7.07-6.36,13.79-12.78c13.86-25.74,31.22-60.45,44.23-95,6.49-16.64,2.63-19.65-1.73-19.19-7.15.8-18.6,10.84-33.61,29.61-6.51,8.18-13,16.53-19.28,24.81l7.82-1.36c5.78-7.52,11.65-15.06,17.58-22.44" class="cls-4"/><path d="M138.79,494.39a367.33,367.33,0,0,1-28.36,37.45C95.66,549.14,65.11,583,25.62,615-9.24,642.72-36,654.22-70.31,664.77c-4.53,1.48-9.2,3.36-13.36,4.91a73.07,73.07,0,0,1-10.19,3.75c-6,1.31-9.16-1.83-8.49-8.5a42.09,42.09,0,0,1,.81-5.4c1.28-9,2.81-18.28-2.73-24.1-4.48-5.12-26.84,5.26-44.1,17.84l2.2,4.6c17.11-12.43,32.33-17.74,34-15.7,4.55,4.81,3.41,12.77,2.06,21.31-.31,1.8-.56,3.65-.8,5.51-.88,9.37,4.18,14,13.77,11.9,3.58-1,7.53-2.66,11.77-4.28,4-1.67,8.34-3.36,12.41-4.58,36.09-11.21,64.26-23.35,101.49-52.91,7.24-5.79,14.12-11.78,20.78-17.69a708,708,0,0,0,66.8-68.19,382,382,0,0,0,36.82-50.49q-4,3.42-8,6.8c-2.17,1.86-4.21,3.47-6.14,4.84" class="cls-9"/><path d="M183.83,290.55l-9.46,2.11c5.75,28.35-10,65.51-29.28,105.24l12-2.08c18.89-38.74,33.87-74.86,26.78-105.27" class="cls-9"/><path d="M138.65,482.1c-12.12,10.34-17.87,10.34-18.93,9.61-1.73-1.33-3.32-9.26,6.18-30.73,5.27-12.2,11.15-24.5,17-36.52-9,11.85-17.9,23.33-26.8,34-9.16,21.45-9.92,35.42-2.41,41.1,4.13,3.08,11.79,4.32,25.07-5.19,5.49-8.32,10.72-17,15.86-26.21-5.21,4.69-10.54,9.35-16,13.92" class="cls-9"/><path d="M307.69,199.35c-1.56-45.26-18.21-73.47-46.12-107a97.26,97.26,0,0,1-8.49-12A119.71,119.71,0,0,0,244.91,69c-8.78-8.39-22-9.45-35.14-3.26-2.51,1.28-5,2.56-7.35,3.85-11.25,6-21.88,11.59-34.81,11-5.19,0-16.07-14.55-18.55-34.66l-9.7,1.07c2.43,20.31,14.52,43.14,27.83,43.46,15.7.71,27.9-5.92,39.91-12.17a73.53,73.53,0,0,1,7.15-3.8c9.26-4.44,17.93-3.94,23.43,1.32,2.41,2.41,4.72,6,7,9.83,2.83,4,5.8,8.62,9.18,12.88,26.74,31.88,42.57,58.64,44,101,.56,48.42-12.67,91.21-20.5,112.44-9.28,25.59-22.54,47.8-42.65,72.14a873.2,873.2,0,0,1-66.28,71.24q-2.85,5.33-5.5,10.1c-3.28,6-6.6,11.7-10,17.26,37.54-32.46,68.93-67.75,89.24-92.35,20.92-25.21,34.63-48.31,44.36-74.95,6.63-18,17.07-51.1,20.19-90.14a246.74,246.74,0,0,0,.95-26" class="cls-4"/><path d="M137.5,413.35c-4,8.2-8.12,16.55-12.13,25,6.69-8.5,13.42-17.33,20.22-26.3Z" class="cls-9"/><path d="M147,410.18,155.52,399l1.53-3.14-12,2.08q-3.21,6.57-6.49,13.22l-1.1,2.22,8.09-1.33,1.39-1.83" class="cls-4"/><path d="M147,410.18,145.59,412l3.79-.63q3.1-6.24,6.14-12.42L147,410.18" class="cls-4"/><path d="M168.44,455.4q-6.72,6.41-13.78,12.78c-5.15,9.24-10.38,17.89-15.87,26.21,1.92-1.38,4-3,6.14-4.84q4-3.37,8-6.8c3.4-5.56,6.72-11.29,10-17.26q2.63-4.77,5.5-10.09" class="cls-9"/><path d="M147.32,415.51c.68-1.38,1.37-2.75,2.05-4.13l-3.77.62c-6.8,9-13.54,17.81-20.22,26.31-3,6.22-5.87,12.47-8.62,18.7l-.63,1.47c8.9-10.69,17.78-22.17,26.8-34q2.19-4.5,4.39-8.95" class="cls-9"/></g><g class="cls-10"><path d="M620.18,430.13c-6.23-44.08-35.32-105.87-64.88-63.6s-41.61,82-72.28,106.84S438.66,497.85,435.56,496s-3.68-8.67,8-31.49,9.34-51.87-30.08-21.26S362.12,497,362.12,497" class="cls-11"/><path d="M339,498.59c2.06-1.24,71.78-72.62,90.35-76.33s15.26,20.21,2.89,55.7-30.53,41.67,1.65,30.94,67.67-30.94,84.58-68.08,66.84-135.32,64.78-30.94" class="cls-12"/><path d="M584.72,381.1c-15,9.85-44.6,38.12-77.28,73.9s-47.19,44.86-65.87,48-24.11,5.18-27,7,4.41.25,10.89-15,20.49-68.46,1-61.46-52.38,50.82-75.46,62.23" class="cls-13"/><path d="M436.31,464.09c-8.72,25.44-23.18,51-9,44.81,16.92-7.43,52-11.14,75.91-50.75s50.75-86.23,62.71-88.29,46.81-34.94,41.76,60.1" class="cls-13"/><path d="M344.36,512.2c1.65-.41,50.33-65.19,70.14-76.74s32.18-14.85,26,14a129.36,129.36,0,0,1-4.18,14.6" class="cls-13"/><path d="M491,480.21a192.88,192.88,0,0,0,31.79-35.32c21-29.82,51.86-71.05,77.53-53.16" class="cls-14"/><path d="M428.06,477.38c-6.91,24.33-14.89,31.34-15.16,33.67-.37,3.07-.89-2.37,28.94-6.26,16.85-2.2,33.78-11.51,49.12-24.58" class="cls-14"/><path d="M349.26,491.05c31.9-25.16,91.8-91.28,84.8-42.79a226.23,226.23,0,0,1-6,29.11" class="cls-14"/></g><path d="M493.53,502.56c2.7-8.17,5.08-15.4,7.19-21.9a3,3,0,0,1,3-2.07l1,0-11.18,23.93" class="cls-8"/><path d="M490.46,448.72a446.9,446.9,0,0,1,28-45.05c4.94-7,7.67-7.84,9-7.28,2.26.95,2,5.84-.75,14.42-1.93,5.94-4,13.15-5.76,19.14-4.77,16.67-6.22,20.66-11.64,38.71l-4.65,10-3.29-.13c7.64-23.48,11.88-37.11,16.58-50.12,2.08-5.82,4.22-11.85,6.09-17.71,2.7-8.29,2.21-10.7,1.7-10.92-.31-.1-2,.62-5.48,5.58a462.66,462.66,0,0,0-27.66,44.5A133.53,133.53,0,0,0,481,477.39l-2.64-.11a139.27,139.27,0,0,1,12.15-28.56" class="cls-8"/><path d="M477.79,479.07c.16-.6.35-1.2.52-1.79l2.64.11c-.16.55-.33,1.09-.48,1.64-2.21,8-5.94,23.79-5.62,39.68.54,13.78,5.24,20.59,13.12,27.7,1,1,1.87,2.11,2.72,3.08a9.5,9.5,0,0,0,2.05,2.34c1.62,1,4.15.1,6.83-2.54.73-.71,1.45-1.45,2.07-2.16,3.48-3.58,7-7.32,11.58-9.09,3.17-1.3,6.15,2.48,7.55,7.4-.83,1-1.66,2-2.48,3-1.13-5.06-3.82-7.72-5.16-7.14-3.77,1.46-6.85,4.64-10.1,8.06-.67.73-1.4,1.46-2.13,2.2-3.79,3.71-7.65,5-10.23,3.4a22.33,22.33,0,0,1-2.42-2.69,17.51,17.51,0,0,0-2.5-2.87c-8.23-7.52-13.17-14.7-13.76-29.42-.09-2.88,0-5.8.2-8.68a160.54,160.54,0,0,1,5.6-32.28" class="cls-7"/><rect x="547.69" y="429.49" width="13.11" height="9.05" class="cls-5"/><path d="M488.38,462.3s-2.08,2.6-14.46,12.38-3.93,11.13,1.7,7.35a134.54,134.54,0,0,0,15.43-12.46c2.89-2.82,6.15-14.62-2.67-7.27" class="cls-2"/><path d="M551.5,529.6c-2.71,1.91-4.9,5.47-6.66,8.37a15.63,15.63,0,0,1-2.71,3.72l3.1,8.48c.78-.45-1.18-10,0-12,1.74-2.82,3.9-6.36,6.53-8.21,2.46-1.82,10.19,3,18.88,14.28,1.71,2.24,3.52,4.57,5.41,7,8.89,11.46,20,25.69,29.57,40.3,10.3,15.78,12.7,23.79,13.74,29.61.37,1.95.85,4,1.32,6.06a53.24,53.24,0,0,1,1.77,9.94c0,4.32-2.34,20.42-5.16,25.95-2.43,4.66-1.78,5.29-1.6,5.54a.61.61,0,0,0,.78.11,9.47,9.47,0,0,1,5-2.68.25.25,0,0,1,.21.12c.9,1.3.81,8.53-4.64,18.85-9.47,18-24.79,35.35-36,46.75-9.32,9.58-16.94,16.86-22.54,21.61-2.73,2.3-3.92,4-3.59,5.34a.79.79,0,0,0,.11.29c.89,2,5.71,2.32,14.29,1.06,7.47-.75,17.44-2.81,29.67-6.14l1.05-.26c6.06-1.56,12.49-3.2,17.6-5.51a18.94,18.94,0,0,1,.65,2.31,27.18,27.18,0,0,1-1,16.56,53.29,53.29,0,0,1-4.69,8.76l-1.18,1.91a21.14,21.14,0,0,0-1.91,4.38,10.82,10.82,0,0,0-4.78-3.91l-.18.48a10.19,10.19,0,0,1,4.75,4c.25.31.34.48.57.4s.18-.33.11-.59a13.57,13.57,0,0,1,1.87-4.49c.37-.61.77-1.25,1.17-1.89a52.38,52.38,0,0,0,4.71-8.85,27.59,27.59,0,0,0,1.09-16.85c-.19-.88-.44-1.64-.68-2.41,4-1.84,7.13-4.08,8.59-7q.91-1.81-.82-3.92c-2.09-2.44-6.95-4.63-9.82-3.69a3,3,0,0,0-2.12,2.79c-.12,2.14.83,4.53,2,7.29.53,1.33,1.12,2.73,1.59,4.24-5.1,2.3-11.52,4-17.57,5.52l-1.05.27c-12.24,3.31-22.22,5.36-29.6,6.09-11,1.66-13.33.21-13.78-.77a.22.22,0,0,1-.09-.17c-.28-1.09.9-2.77,3.41-4.87,5.63-4.78,13.2-12.05,22.57-21.64,11.21-11.42,26.6-28.81,36.12-46.86C623,675,623.25,667.44,622.12,666a.74.74,0,0,0-.66-.35,10,10,0,0,0-5.24,2.77.17.17,0,0,1-.18,0,.39.39,0,0,1,0-.1c-.08-.34,0-1.45,1.74-4.88,2.84-5.59,5.2-21.8,5.2-26.19a56.07,56.07,0,0,0-1.78-10c-.46-2-1-4.1-1.29-6-1-5.8-3.45-13.88-13.85-29.8-9.61-14.61-20.67-28.88-29.56-40.35-1.9-2.42-3.74-4.78-5.43-7-7.16-9.26-14.57-15.18-18.29-14.84a2.49,2.49,0,0,0-1.25.46" class="cls-9"/><path d="M552.15,530.53a20.32,20.32,0,0,0-4.74,5.45l-2,3.25a13.07,13.07,0,0,1-2.65,3.41v0l.47-1.36c3.54-.5,4.34,0,4.43.78l.78,2.12,1.54,4.24-7.27-2.63a4.51,4.51,0,0,0-2,2.18l-.26.78c-.06.23-.07.55-.07.42v-.3l-.07-1.21-.27-2.92c-.08-1-.16-2.08-.19-3.25,0-.57,0-1.21,0-1.91a9.44,9.44,0,0,1,.64-3.07,7.73,7.73,0,0,1,.71-1.35l.4-.64.83-1.32c.59-.89,1.21-1.8,1.91-2.72a25.61,25.61,0,0,1,2.4-2.77c.47-.45,1-.91,1.53-1.35a7.57,7.57,0,0,1,1.3-.85,6.09,6.09,0,0,1,2.33-.78,10.29,10.29,0,0,1,5.61,1,22.43,22.43,0,0,1,3.32,1.87,41.83,41.83,0,0,1,5.2,4.21,78.64,78.64,0,0,1,8.39,9.39c9.4,12.55,19.17,25,28,38.2A228.6,228.6,0,0,1,615,599.81,90,90,0,0,1,620,611,64.49,64.49,0,0,1,623,623c.6,3.76,1.57,7.57,2,11.84.33,4.77-.71,8.38-1.35,12.39a107.13,107.13,0,0,1-2.91,11.68,29.14,29.14,0,0,1-2.49,5.66,21.43,21.43,0,0,0-1.21,2.46,4.05,4.05,0,0,0-.28,1c0,.07,0,0-.15-.14-.36-.26-.58-.11-.58-.11h0l-.46.44A7.32,7.32,0,0,1,616.9,667a11.38,11.38,0,0,1,1.35-.86,9,9,0,0,1,3.14-1.05l-.12,0c1.06-.06,1.07.34,1.28.48s.15.26.23.39a3.49,3.49,0,0,1,.22.64,5.52,5.52,0,0,1,.16,1.09,12,12,0,0,1,0,2,25,25,0,0,1-.58,3.78,41.93,41.93,0,0,1-2.35,7.13,96.05,96.05,0,0,1-7.13,13,214.1,214.1,0,0,1-17.74,23.51c-6.37,7.47-13.26,14.46-20.2,21.37-3.49,3.46-7,6.87-10.62,10.18-1.81,1.66-3.64,3.29-5.51,4.88a21.34,21.34,0,0,0-2.62,2.49c-.74.84-1.44,2.08-1.08,2.88l0,.06c.52,1,2,1.32,3.25,1.49a24,24,0,0,0,4,.1c2.69-.09,5.35-.52,8-.81a156.24,156.24,0,0,0,15.91-2.81c5.27-1.14,10.46-2.59,15.69-3.9a100.23,100.23,0,0,0,15.4-4.88l.11,0,0,.11a28.06,28.06,0,0,1,0,17.86,42.32,42.32,0,0,1-4.06,8.1c-1.57,2.54-3.42,5.08-4,8l-.07.38-.25-.32a8,8,0,0,0-5-3h0l1.5-.63-.18.48-.62-1.45a11.43,11.43,0,0,1,5.26,4.4l-.07-.09.19.23c.15,0-.71-.37-.86-.2l-.1,0c-.19,0-.59.64-.5.77s0,0,0,0l0-.09v0a6.81,6.81,0,0,1,.78-2.81c.34-.74.69-1.44,1.08-2.15l2.43-4a41.54,41.54,0,0,0,4-8,27.11,27.11,0,0,0,0-17.37l-.32-.94.93-.43c3.07-1.43,6.11-3.25,7.77-5.93,1.76-2.14-1.79-4.91-4.6-6a7.16,7.16,0,0,0-4.4-.54c-1.16.34-1.52,1.48-1.27,3.1.58,3.07,2.32,6.39,3.45,9.81l.31,1-.93.42a103.28,103.28,0,0,1-15.39,5c-5.16,1.32-10.32,2.76-15.56,3.92a158.39,158.39,0,0,1-15.85,2.88c-2.64.27-5.28.76-8,.89a29,29,0,0,1-4.17,0c-1.37-.3-3,0-4.5-2.08l.28.37c-.73-1-.38-.87-.51-1.28a2.7,2.7,0,0,1,.09-.78,4.13,4.13,0,0,1,.5-1.2,9.92,9.92,0,0,1,1.34-1.73c1-1,2-1.84,3-2.67l5.73-5.17c3.76-3.53,7.44-7.15,11.08-10.81,7.3-7.32,14.41-14.78,20.95-22.74a180.11,180.11,0,0,0,17.76-25.18,55.2,55.2,0,0,0,6-13.92,18.52,18.52,0,0,0,.67-7.13,1.65,1.65,0,0,0-.18-.48c-.13,0,.55.16.22.15a6.73,6.73,0,0,0-1.56.46,9.56,9.56,0,0,0-2.81,1.93l-.23.22-.26.08a1.34,1.34,0,0,1-1.2-.21L615,669l0-.32c-.26-1.76.31-2.3.57-3.25s.74-1.66,1.14-2.44a27,27,0,0,0,1.7-4.65,101.35,101.35,0,0,0,2.16-10c.54-3.37,1-6.81,1.26-10.16.13-3.16-.79-6.57-1.53-9.9l-2.19-10.12a55.82,55.82,0,0,0-3.48-9.53,141.08,141.08,0,0,0-10.26-17.81c-7.63-11.48-15.93-22.53-24.37-33.47-4.24-5.41-8.42-11.07-12.77-16.27a60.09,60.09,0,0,0-7.21-7.15,25.6,25.6,0,0,0-4.09-2.77c-1.35-.74-3.09-1.18-3.72-.64l-1.35-1.82c2.44-1.47,4.51-.25,6.1.44a27.8,27.8,0,0,1,4.49,3,61.23,61.23,0,0,1,7.5,7.43c4.52,5.41,8.55,10.9,12.85,16.37,8.45,11,16.78,22,24.46,33.6a142.15,142.15,0,0,1,10.43,18.1,58.31,58.31,0,0,1,3.62,9.93l2.2,10.16c.72,3.39,1.72,6.76,1.58,10.54A119.38,119.38,0,0,1,620.54,659c-.64,3.29-3.22,7.21-3.42,9.07l-.4-.57a.89.89,0,0,0-.84-.14l-.48.3a11.59,11.59,0,0,1,3.56-2.44,8.46,8.46,0,0,1,2.14-.64,2,2,0,0,1,1.92.75,3.92,3.92,0,0,1,.57,1.31,20.24,20.24,0,0,1-.69,8.21,57.58,57.58,0,0,1-6.24,14.48,183.46,183.46,0,0,1-18,25.5c-6.61,8-13.79,15.57-21.1,22.9-3.66,3.68-7.35,7.32-11.15,10.86-1.9,1.77-3.82,3.52-5.79,5.23a37,37,0,0,0-2.79,2.52,7.6,7.6,0,0,0-1,1.32,2,2,0,0,0-.26.58.5.5,0,0,0,0,.18c-.09-.1.24.35-.27-.36l.29.37c0,.24,1.51.75,2.66.8a25.63,25.63,0,0,0,3.82,0c2.59-.12,5.21-.59,7.89-.87a155.62,155.62,0,0,0,15.62-2.84c5.18-1.16,10.31-2.58,15.48-3.91a100,100,0,0,0,15-4.84l-.62,1.37c-1.06-3.28-2.75-6.27-3.52-10.16a6.19,6.19,0,0,1,.24-3.18,4,4,0,0,1,2.58-2.4,9.3,9.3,0,0,1,5.93.59,14,14,0,0,1,4.82,3.15,6.26,6.26,0,0,1,1.59,2.8,4.3,4.3,0,0,1-.72,3.33c-2.13,3.39-5.51,5.29-8.76,6.82l.61-1.36a29.47,29.47,0,0,1,0,18.79,44.28,44.28,0,0,1-4.15,8.46l-2.39,3.89c-.35.63-.69,1.3-1,2s-.61,1.67-.61,1.55l0-.11a2.43,2.43,0,0,1,.1.62,1.46,1.46,0,0,1-.84,1.28l-.1,0a1.38,1.38,0,0,1-.93,0,1.55,1.55,0,0,1-.59-.39l-.3-.36,0,0,0,0a9.06,9.06,0,0,0-4.25-3.56l-1-.43.4-1,.19-.47.54-1.37,1,.75,0,0a15.29,15.29,0,0,1,4.43,4.81l-.32.06a45.14,45.14,0,0,1,4.32-8,43.21,43.21,0,0,0,4-8.1,27.83,27.83,0,0,0-.07-17.76l.14.06a99.21,99.21,0,0,1-15.4,5c-5.21,1.35-10.4,2.83-15.68,4a150.76,150.76,0,0,1-15.93,2.93c-2.68.31-5.35.76-8.06.88a26.74,26.74,0,0,1-4.1-.08c-1.3-.22-2.92-.37-3.78-1.85l0,.06c-.68-1.6.37-2.77,1.09-3.73a23.28,23.28,0,0,1,2.67-2.59c1.85-1.59,3.66-3.23,5.46-4.89,3.57-3.33,7.07-6.76,10.52-10.23,6.88-7,13.71-14,20-21.46a187.62,187.62,0,0,0,17.23-23.64,92.29,92.29,0,0,0,6.74-12.87,39.13,39.13,0,0,0,2.11-6.84,23.35,23.35,0,0,0,.46-3.49,11.6,11.6,0,0,0,0-1.67,5.71,5.71,0,0,0-.13-.73l-.08-.23s0,0,0,0,0,.31.9.27h0l-.16,0a6.63,6.63,0,0,0-2.32.84,10.69,10.69,0,0,0-1.09.71c-.27.17-.83.77-.79.64l-.47.43,0,0a1.73,1.73,0,0,1-2-.19,2.18,2.18,0,0,1-.71-1.46,6.09,6.09,0,0,1,.24-1.91,22.54,22.54,0,0,1,1.08-3,25.32,25.32,0,0,0,1.72-5.33,105.07,105.07,0,0,0,1.91-11.4c.35-3.75,1-8,.43-11.06-.62-3.54-1.87-7.3-2.8-11.25-1.44-7.7-4.43-14.11-8.42-20.79a226.7,226.7,0,0,0-13-19.2c-9.22-12.57-19-24.75-28.81-37.14a70.83,70.83,0,0,0-7.36-8.13,31,31,0,0,0-4-3.17,12.07,12.07,0,0,0-1.81-1c-.43-.23-1-.17-.1-.21,2-.75.6-.24.36.24a15.37,15.37,0,0,0-1.45,1.7c-.48.65-1,1.37-1.45,2.13l-.73,1.17-.38.61c-.14.21-.32.6,0,0s.11-.36.12-.19v1l.17,2.64.27,3,.1,1.72a11.46,11.46,0,0,1,0,1.18,6.54,6.54,0,0,1-.15,1.15l-.07.35a4,4,0,0,1-.28.79,5.74,5.74,0,0,1-2.18,2.5l-5.19,3.05-2.08-5.69-1.56-4.24-.78-2.12c-.42-.64-.13-1.55,2.9-3.46l.47-1.36h0a14.84,14.84,0,0,0,2-2.7l2-3.28a22.31,22.31,0,0,1,5.33-6.08Z" class="cls-9"/></svg>