<svg xmlns="http://www.w3.org/2000/svg" version="1.1" id="Layer_1" x="0px" y="0px" width="70px" height="70px" viewBox="0 0 70 70" enable-background="new 0 0 70 70" xml:space="preserve"><path fill="#010101" d="M28.957,40.926c0.714-0.298,1.179-0.995,1.179-1.769c0.001-0.449-0.132-0.889-0.382-1.262  c-0.83-1.129-2.441-1.129-3.379-1.129h-3.114V45.9h2.906c1.018,0.078,2.041-0.067,2.998-0.423c0.564-0.265,1.012-0.725,1.262-1.295  l0,0c0.135-0.321,0.205-0.665,0.208-1.013C30.647,42.128,29.959,41.208,28.957,40.926z M25.636,38.518h0.83  c0.905,0,1.345,0.224,1.345,0.83s-0.598,0.83-1.362,0.83h-0.83v-1.661H25.636z M26.707,44.14h-1.063v-2.092h0.988  c0.938,0,1.661,0.058,1.661,0.996c0,0.938-0.681,1.104-1.586,1.104V44.14z"/><path fill="#010101" d="M37.643,36.758v5.397c0.048,0.493-0.041,0.991-0.257,1.436c-0.335,0.383-0.828,0.591-1.337,0.565  c-0.531,0.063-1.057-0.15-1.395-0.565c-0.201-0.451-0.281-0.946-0.232-1.436v-5.397h-2.408v5.53  c-0.021,0.564,0.06,1.126,0.241,1.661c0.515,1.329,1.893,2.084,3.778,2.084c1.885,0,3.321-0.83,3.836-2.175l0,0  c0.151-0.477,0.219-0.978,0.199-1.478v-5.621H37.643z"/><path fill="#010101" d="M48.038,41.101c-0.676-0.38-1.391-0.683-2.134-0.905l-0.722-0.257c-0.548-0.191-1.005-0.374-1.005-0.722  c0.116-0.504,0.601-0.834,1.113-0.756c0.384-0.036,0.767,0.084,1.063,0.332c0.215,0.22,0.319,0.525,0.282,0.83h2.234  c-0.001-0.46-0.106-0.914-0.307-1.329c-0.687-1.108-1.929-1.746-3.23-1.661c-1.661,0-3.529,0.83-3.529,2.782  c-0.006,0.812,0.4,1.572,1.079,2.018c0.678,0.414,1.402,0.746,2.159,0.988l0.498,0.183c0.414,0.118,0.795,0.331,1.113,0.623  c0.057,0.077,0.089,0.17,0.091,0.266c0,0.548-0.83,0.731-1.246,0.747c-0.668,0.072-1.317-0.253-1.661-0.83  c-0.075-0.156-0.121-0.325-0.133-0.498h-2.2c0.01,0.312,0.058,0.621,0.141,0.922c0.482,1.42,1.843,2.25,3.803,2.25  c1.294,0.125,2.557-0.443,3.321-1.495l0,0c0.263-0.427,0.401-0.919,0.399-1.42C49.192,42.326,48.761,41.535,48.038,41.101z"/><path fill="#010101" d="M55.595,36.758h-2.391l-3.504,9.134h2.491l0.614-1.843h3.164l0.614,1.843h2.491L55.595,36.758z   M53.477,42.18l0.922-2.74l0.93,2.707h-1.852V42.18z"/><polygon points="66.082,36.758 66.082,42.379 62.603,36.758 60.186,36.758 60.186,45.908 62.553,45.908   62.553,40.154 66.156,45.908 68.448,45.908 68.448,36.758 " fill="#010101"/><rect x="9.934" y="36.758" width="1.063" fill="#010101" height="9.142"/><path fill="#010101" d="M17.839,45.908l-2.283-3.911h-1.578v3.911h-1.055v-9.134h1.968c0.707-0.035,1.414,0.049,2.092,0.249  c0.985,0.351,1.623,1.306,1.569,2.35c0.036,1.168-0.744,2.203-1.877,2.491l2.408,4.077h-1.246L17.839,45.908z M13.961,37.605v3.496  h1.262c0.793,0.119,1.584-0.222,2.043-0.88c0.136-0.256,0.207-0.541,0.208-0.83c0-1.578-1.295-1.727-2.533-1.727h-0.988  L13.961,37.605z"/><path fill="#010101" d="M5.758,36.758H4.819l-3.13,9.134h1.063l0.83-2.416h3.421l0.83,2.416h1.079L5.758,36.758z M3.848,42.57  l1.436-4.567l1.445,4.567C6.729,42.57,3.848,42.57,3.848,42.57z"/><path fill="#010101" d="M68.44,28.737c-0.166,0.037-0.314,0.127-0.423,0.257c-7.913,6.883-15.154,0.98-20.551-0.158  c-2.598-0.557-5.296-0.431-7.83,0.365c-1.521,0.415-3.139,0.286-4.575-0.365c-2.068-0.922-3.313-2.358-5.389-3.139  c-1.72-0.558-3.587-0.439-5.223,0.332c-0.731,0.282-2.533-0.457-3.255-0.05c-0.216,0.125-1.055,0.673-0.83,0.888  c0.151,0.025,0.306,0.025,0.457,0c0.99-0.014,1.976,0.141,2.914,0.457c2.682,1.021,3.687,3.645,4.384,5.322  c-2.898-2.473-6.846-3.321-10.504-2.259c-3.371,0.905-7.872,3.371-11.982,1.27c-0.224-0.158-0.47-0.281-0.731-0.365  c0.035,0.217,0.154,0.411,0.332,0.54c1.154,1.071,4.384,2.782,10.23,0.656s11.625-1.661,13.95,2.441c0,0,0.149-6.045-3.936-7.93  c0.77-0.43,1.658-0.599,2.533-0.482c0.918,0.102,1.805,0.4,2.599,0.872c1.611,0.971,3.222,2.491,5.19,3.072  c0.272,0.078,0.55,0.136,0.83,0.174c-2.012,1.234-3.613,3.038-4.6,5.181c2.204-2.968,5.488-4.949,9.142-5.513l0.955-0.141  c2.69-0.232,5.239,0.399,10.371,2.059c10.163,3.321,14.049-0.83,15.652-2.798C68.34,29.248,68.446,28.998,68.44,28.737z"/></svg>