<svg xmlns="http://www.w3.org/2000/svg" version="1.1" width="70px" height="70px" viewBox="0 0 70 70"><g id="surface1"><path d="M 70 36.75 C 69.429688 36.75 68.792969 37.207031 68.121094 38.261719 C 67.90625 35.480469 67.101562 33.417969 66.136719 33.417969 C 65.007812 33.417969 64.09375 36.25 64.09375 39.738281 C 64.09375 42.453125 64.648438 44.765625 65.421875 45.660156 C 65.304688 46.136719 65.1875 46.632812 65.070312 47.15625 C 63.363281 54.78125 61.199219 58.921875 54.984375 61.976562 C 48.769531 65.027344 25.445312 70 25.445312 70 L 53.554688 46.25 L 14.335938 24.503906 L 65.574219 24.503906 C 65.574219 24.503906 69.222656 24.003906 70 36.75 Z M 70 36.75 " style=" stroke:none;fill-rule:nonzero;fill:rgb(9.019608%,29.019609%,74.117649%);fill-opacity:1;"/><path d="M 70 36.75 C 69.429688 36.75 68.792969 37.207031 68.121094 38.261719 C 67.90625 35.480469 67.101562 33.417969 66.136719 33.417969 C 65.007812 33.417969 64.09375 36.25 64.09375 39.738281 C 64.09375 42.453125 64.648438 44.765625 65.421875 45.660156 C 65.304688 46.136719 65.1875 46.632812 65.070312 47.15625 C 63.363281 54.78125 61.199219 58.921875 54.984375 61.976562 C 48.769531 65.027344 25.445312 70 25.445312 70 L 53.554688 46.25 L 14.335938 24.503906 L 65.574219 24.503906 C 65.574219 24.503906 69.222656 24.003906 70 36.75 Z M 70 36.75 " style=" stroke:none;fill-rule:nonzero;fill:rgb(9.019608%,29.019609%,74.117649%);fill-opacity:1;"/><path d="M 68.179688 39.734375 C 68.179688 43.226562 67.265625 46.054688 66.136719 46.054688 C 65.886719 46.054688 65.644531 45.914062 65.421875 45.65625 C 66.328125 41.984375 67.25 39.621094 68.121094 38.257812 C 68.160156 38.730469 68.179688 39.226562 68.179688 39.734375 " style=" stroke:none;fill-rule:nonzero;fill:rgb(78.823531%,3.137255%,59.215689%);fill-opacity:1;"/><path d="M 7.28125 13.722656 C 7.339844 13.722656 7.371094 13.839844 7.359375 13.984375 C 6.886719 18.109375 5.578125 21.050781 3.679688 21.050781 C 1.480469 21.050781 0 17.328125 0 12.222656 C 0 5.363281 1.796875 0 4.46875 0 C 6.277344 0 7.789062 2.566406 7.847656 7.753906 C 7.847656 7.902344 7.800781 8.015625 7.746094 8.015625 L 6.265625 8.015625 C 6.210938 8.015625 6.164062 7.902344 6.164062 7.753906 C 6.128906 5.246094 5.5 3.371094 4.324219 3.371094 C 2.550781 3.371094 1.773438 7.785156 1.773438 12.167969 C 1.773438 15.542969 2.484375 17.675781 3.691406 17.675781 C 4.605469 17.675781 5.363281 16.460938 5.644531 13.984375 C 5.65625 13.839844 5.710938 13.722656 5.769531 13.722656 Z M 7.28125 13.722656 " style=" stroke:none;fill-rule:nonzero;fill:rgb(0%,0%,0%);fill-opacity:1;"/><path d="M 7.742188 20.617188 C 7.6875 20.617188 7.652344 20.5 7.664062 20.355469 L 8.601562 10.523438 L 9.449219 0.691406 C 9.460938 0.546875 9.515625 0.429688 9.574219 0.429688 L 14.902344 0.429688 C 14.960938 0.429688 14.992188 0.546875 14.980469 0.691406 L 14.734375 3.429688 C 14.722656 3.574219 14.664062 3.691406 14.609375 3.691406 L 10.917969 3.691406 L 10.464844 8.332031 L 13.851562 8.332031 C 13.910156 8.332031 13.941406 8.445312 13.933594 8.589844 L 13.683594 11.332031 C 13.671875 11.476562 13.617188 11.589844 13.558594 11.589844 L 10.171875 11.589844 L 9.675781 17.359375 L 13.457031 17.359375 C 13.515625 17.359375 13.550781 17.472656 13.539062 17.621094 L 13.289062 20.359375 C 13.277344 20.503906 13.222656 20.617188 13.164062 20.617188 Z M 7.742188 20.617188 " style=" stroke:none;fill-rule:nonzero;fill:rgb(0%,0%,0%);fill-opacity:1;"/><path d="M 16.585938 13.867188 L 15.996094 20.359375 C 15.984375 20.503906 15.929688 20.617188 15.871094 20.617188 L 14.460938 20.617188 C 14.402344 20.617188 14.371094 20.503906 14.382812 20.359375 L 15.320312 10.523438 L 16.167969 0.691406 C 16.179688 0.546875 16.234375 0.429688 16.289062 0.429688 L 18.0625 0.429688 C 18.121094 0.429688 18.175781 0.546875 18.199219 0.660156 L 20.164062 15.019531 L 20.207031 14.503906 L 20.726562 8.160156 L 21.40625 0.691406 C 21.414062 0.546875 21.472656 0.429688 21.53125 0.429688 L 22.941406 0.429688 C 22.996094 0.429688 23.03125 0.546875 23.019531 0.691406 L 22.082031 10.523438 L 21.238281 20.359375 C 21.226562 20.503906 21.167969 20.617188 21.113281 20.617188 L 19.273438 20.617188 C 19.214844 20.617188 19.160156 20.503906 19.136719 20.359375 L 17.207031 6.113281 L 17.09375 7.582031 Z M 16.585938 13.867188 " style=" stroke:none;fill-rule:nonzero;fill:rgb(0%,0%,0%);fill-opacity:1;"/><path d="M 24.398438 20.617188 C 24.351562 20.617188 24.308594 20.5 24.320312 20.355469 L 25.277344 10.519531 L 25.84375 3.6875 L 23.664062 3.6875 C 23.617188 3.6875 23.574219 3.570312 23.585938 3.425781 L 23.832031 0.6875 C 23.84375 0.542969 23.902344 0.425781 23.957031 0.425781 L 30.078125 0.425781 C 30.132812 0.425781 30.167969 0.542969 30.15625 0.6875 L 29.90625 3.425781 C 29.894531 3.570312 29.839844 3.6875 29.78125 3.6875 L 27.605469 3.6875 L 26.925781 10.519531 L 26.113281 20.355469 C 26.101562 20.5 26.046875 20.617188 25.988281 20.617188 Z M 24.398438 20.617188 " style=" stroke:none;fill-rule:nonzero;fill:rgb(0%,0%,0%);fill-opacity:1;"/><path d="M 33.195312 16.117188 L 32.699219 13.117188 L 31.558594 13.117188 L 30.9375 20.355469 C 30.925781 20.5 30.867188 20.617188 30.8125 20.617188 L 29.265625 20.617188 C 29.207031 20.617188 29.175781 20.5 29.1875 20.355469 L 30.121094 10.519531 L 30.96875 0.6875 C 30.980469 0.542969 31.039062 0.425781 31.09375 0.425781 L 34.085938 0.425781 C 35.765625 0.425781 36.785156 2.214844 36.785156 5.617188 C 36.785156 9.335938 35.960938 11.871094 34.558594 12.738281 L 35.8125 20.378906 C 35.824219 20.496094 35.789062 20.609375 35.746094 20.609375 L 33.949219 20.609375 C 33.894531 20.609375 33.835938 20.496094 33.816406 20.378906 L 33.195312 16.109375 Z M 33.972656 3.628906 L 32.4375 3.628906 L 31.839844 9.914062 L 33.636719 9.914062 C 34.359375 9.914062 35.09375 8.792969 35.09375 6.109375 C 35.09375 4.433594 34.730469 3.628906 33.972656 3.628906 Z M 33.972656 3.628906 " style=" stroke:none;fill-rule:nonzero;fill:rgb(0%,0%,0%);fill-opacity:1;"/><path d="M 39.863281 21.050781 C 37.878906 21.050781 36.816406 17.992188 37.257812 13.121094 L 37.765625 7.640625 L 38.351562 0.691406 C 38.363281 0.546875 38.421875 0.429688 38.476562 0.429688 L 40.082031 0.429688 C 40.136719 0.429688 40.171875 0.546875 40.160156 0.691406 L 39.492188 7.523438 L 38.984375 13.089844 C 38.726562 15.976562 39.03125 17.558594 40.113281 17.558594 C 41.199219 17.558594 41.796875 15.976562 42.058594 13.089844 L 42.542969 7.609375 L 43.152344 0.691406 C 43.164062 0.546875 43.21875 0.429688 43.277344 0.429688 L 44.710938 0.429688 C 44.765625 0.429688 44.800781 0.546875 44.789062 0.691406 L 44.136719 7.640625 L 43.617188 13.121094 C 43.152344 18.253906 42.078125 21.050781 39.867188 21.050781 " style=" stroke:none;fill-rule:nonzero;fill:rgb(0%,0%,0%);fill-opacity:1;"/><path d="M 46.269531 14.246094 L 45.714844 20.359375 C 45.703125 20.503906 45.648438 20.617188 45.589844 20.617188 L 44.238281 20.617188 C 44.179688 20.617188 44.148438 20.503906 44.15625 20.359375 L 45.09375 10.523438 L 45.941406 0.691406 C 45.953125 0.546875 46.007812 0.429688 46.066406 0.429688 L 47.984375 0.429688 C 48.042969 0.429688 48.097656 0.546875 48.097656 0.691406 L 48.886719 15.195312 L 52.195312 0.664062 C 52.230469 0.519531 52.296875 0.433594 52.355469 0.433594 L 54.476562 0.433594 C 54.53125 0.433594 54.566406 0.546875 54.554688 0.695312 L 53.617188 10.527344 L 52.773438 20.359375 C 52.761719 20.507812 52.703125 20.621094 52.648438 20.621094 L 51.125 20.621094 C 51.078125 20.621094 51.035156 20.507812 51.042969 20.359375 L 51.597656 14.246094 L 52.273438 7.328125 L 52.363281 6.464844 L 49.179688 20.390625 C 49.148438 20.535156 49.078125 20.621094 49.023438 20.621094 L 47.871094 20.621094 C 47.816406 20.621094 47.757812 20.507812 47.757812 20.359375 L 46.957031 5.742188 L 46.832031 7.386719 Z M 46.269531 14.246094 " style=" stroke:none;fill-rule:nonzero;fill:rgb(0%,0%,0%);fill-opacity:1;"/><path d="M 59.570312 20.617188 C 59.535156 20.617188 59.5 20.527344 59.488281 20.441406 L 59.160156 13.867188 L 55.753906 13.867188 L 54.238281 20.472656 C 54.214844 20.5625 54.171875 20.617188 54.136719 20.617188 L 53.628906 20.617188 C 53.59375 20.617188 53.582031 20.53125 53.59375 20.472656 L 58.257812 0.574219 C 58.28125 0.488281 58.328125 0.429688 58.359375 0.429688 L 58.949219 0.429688 C 58.980469 0.429688 59.015625 0.519531 59.027344 0.601562 L 60.066406 20.441406 C 60.078125 20.527344 60.042969 20.617188 60.007812 20.617188 Z M 59.105469 12.601562 L 58.5625 1.667969 L 56.046875 12.601562 Z M 59.105469 12.601562 " style=" stroke:none;fill-rule:nonzero;fill:rgb(0%,0%,0%);fill-opacity:1;"/><path d="M 61.070312 20.617188 C 61.035156 20.617188 61.011719 20.527344 61.011719 20.441406 L 61.972656 10.179688 L 62.808594 0.605469 C 62.808594 0.519531 62.851562 0.433594 62.886719 0.433594 L 63.347656 0.433594 C 63.382812 0.433594 63.40625 0.519531 63.40625 0.605469 L 62.515625 10.179688 L 61.609375 20.441406 C 61.609375 20.53125 61.566406 20.617188 61.53125 20.617188 Z M 61.070312 20.617188 " style=" stroke:none;fill-rule:nonzero;fill:rgb(0%,0%,0%);fill-opacity:1;"/><path d="M 67.484375 17.964844 L 66.511719 11.765625 L 64.421875 11.765625 L 63.644531 20.445312 C 63.644531 20.53125 63.597656 20.617188 63.566406 20.617188 L 63.101562 20.617188 C 63.066406 20.617188 63.042969 20.53125 63.042969 20.445312 L 64.027344 10.007812 L 64.851562 0.605469 C 64.851562 0.519531 64.898438 0.433594 64.929688 0.433594 L 67.289062 0.433594 C 68.726562 0.433594 69.683594 2.164062 69.683594 5.191406 C 69.683594 8.910156 68.632812 11.304688 67.132812 11.707031 L 68.476562 20.441406 C 68.488281 20.527344 68.464844 20.617188 68.429688 20.617188 L 67.933594 20.617188 C 67.898438 20.617188 67.855469 20.558594 67.84375 20.441406 L 67.484375 17.960938 Z M 64.570312 10.09375 L 64.535156 10.527344 L 66.714844 10.527344 C 68.171875 10.527344 69.097656 8.539062 69.097656 5.28125 C 69.097656 2.945312 68.398438 1.675781 67.3125 1.675781 L 65.347656 1.675781 Z M 64.570312 10.09375 " style=" stroke:none;fill-rule:nonzero;fill:rgb(0%,0%,0%);fill-opacity:1;"/></g></svg>