<svg xmlns="http://www.w3.org/2000/svg" version="1.1" id="Layer_1" x="0px" y="0px" width="70px" height="70px" viewBox="0 0 70 70" enable-background="new 0 0 70 70" xml:space="preserve"><g><path fill="#EE2E31" d="M13.1,24.9H6.2c0,0-0.7,0-1.1,0.6c0,0,2.5-0.5,4.6,1.4c0,0,1,0.5,1,4.1v18.8c0,0,0,6.3,4.4,8.7    c0,0,5,3.7,12.1-0.1c0,0,3.9-2.602,3.9-9.2V34c0,0-0.4-6.6,2.6-11.4c0,0,1.8-4.2,8-7.4c0,0,3.399-2,10.1-2c0,0,6.2,0.5,9.5-3.1    c0,0,3.9-3.4,5.7-9c0,0-3.9,3.8-9.7,4.2c0,0-10.8,0-14.1,1.2c0,0-14.3,2.5-19.2,19.7c0,0-0.9,2.5-0.9,7.9v13.8c0,0,0.4,3-2.6,3    c0,0-2.6,0.1-2.6-2.801V30.5c0,0,0.4-4.9-3.1-5.3c0,0-0.7-1.6,2.5-1.1c0,0,3.7,0.6,5.4-1.4c0,0,1.4-1.6,1.1-4.3    c0,0-0.9,2.1-3.3,2.5c0,0-4.2,0-5.3,0.9C15.1,21.8,13.5,21.8,13.1,24.9L13.1,24.9z"/><path fill="#EE2E31" d="M13.5,59.7c0,0,2.3,2.8,7.1,2.7c0,0,5.9,0.5,9.1-3.2c0,0,3.4-2.3,3.4-9V34.7c0,0-0.2-7.9,3.6-12.3    c0,0,2.6-4.2,8.7-5.9c0,0,1.398-0.9,7.5-0.9c0,0,5.3,0.5,9.1-3.4c0,0-0.5,3.9-4.6,7.4c0,0-1.801,1.8-7.5,2.3c0,0-5,0.2-7.301,3.4    c0,0-3,2.7-3,9s0,17,0,17S39.7,57.8,35.8,61.9c0,0-3.3,4.1-10.3,4.398C25.7,66.3,17.2,66.5,13.5,59.7L13.5,59.7z"/><path fill="#EE2E31" d="M27.4,68.4c0,0,6.2,0.1,10.3-4.301c0,0,4.3-3.899,4.3-10.301v-16c0,0-0.4-6,4.7-7.8c0,0,4.1-2.7,9.2,0.9    c0,0,6,4.2,3,11c0,0-1.801,3.699-6.301,1.699c0,0-3.101-1.199-3-5c0,0,1,2.602,2.801,1.102c0,0,1.5-1.5-0.2-3.2    c0,0-1.5-2-3.601-0.899c0,0-1.399,0.399-1.399,3.801c0,0,1.2,14.6-1.5,19.3c0,0-1.5,4.7-6.601,7.899C39.2,66.6,33.7,70,27.4,68.4    L27.4,68.4z"/></g><rect width="70" fill="none" height="70"/></svg>