<svg xmlns="http://www.w3.org/2000/svg" style="enable-background:new 0 0 70 70" id="Layer_1" width="70" height="70" x="0" y="0" version="1.1" viewBox="0 0 70 70" xml:space="preserve"><style type="text/css">.st0{clip-path:url(#SVGID_1_);fill:url(#SVGID_2_)}.st1,.st2{fill:#0c351b}.st2,.st3,.st4,.st5{clip-path:url(#SVGID_3_)}.st3{fill:#72be44}.st4{fill:#00929a}.st5{fill:#ffd300}</style><g><defs><polygon id="SVGID_6_" points="26 38.9 26 45.7 30.6 45.7 30.6 32"/></defs><clipPath id="SVGID_1_"><use xmlns:xlink="http://www.w3.org/1999/xlink" xlink:href="#SVGID_6_" style="overflow:visible"/></clipPath><linearGradient id="SVGID_2_" x1="-357.856" x2="-357.683" y1="337.854" y2="337.854" gradientTransform="matrix(-24.4329 -70.9582 -70.9582 24.4329 15260.709 -33601.9375)" gradientUnits="userSpaceOnUse"><stop style="stop-color:#ffd300" offset="0"/><stop style="stop-color:#00929a" offset="1"/></linearGradient><polygon points="26.5 47.1 21.8 33.4 30.1 30.5 34.8 44.2" class="st0"/></g><polygon points="15.2 32 20 32 22.9 36.8 25.8 32 30.6 32 26 38.9 22.9 43.7 22.8 43.7 19.7 38.9 19.7 45.7 15.2 45.7" class="st1"/><g><defs><rect id="SVGID_9_" width="69" height="36.5" x=".5" y="18.1"/></defs><clipPath id="SVGID_3_"><use xmlns:xlink="http://www.w3.org/1999/xlink" xlink:href="#SVGID_9_" style="overflow:visible"/></clipPath><path d="M10.3,40.1c0,0.1-0.1,0.2-0.1,0.2c-0.5,0.9-1.3,1.5-2.4,1.5c-1.5,0-2.6-1.3-2.6-3v0c0-0.3,0-0.7,0.1-1 c0.3-1.2,1.2-2,2.4-2c1.2,0,2,0.7,2.5,1.6c0,0,0,0,0.1,0c0.7-0.5,1.5-1,2.3-1.5c0.5-0.3,0.9-0.5,1.4-0.7c0,0,0,0,0,0 c-1.2-2.1-3.2-3.6-6.2-3.6c-4.1,0-7.3,3.1-7.3,7.1v0c0,0.7,0.1,1.4,0.3,2.1c0.1,0.2,0.1,0.4,0.2,0.5c0.5,1.4,1.4,2.5,2.6,3.2 C4.7,45.5,6.1,46,7.6,46c3.4,0,5.3-1.7,6.5-3.7L10.3,40.1z" class="st2"/><path d="M46.6,34.6L46.6,34.6c3.1,1.1,11.7,0.2,15.2-3.3c0,0-2.1-0.4-3.6-0.8C54.4,33.1,49.7,35.5,46.6,34.6" class="st3"/><path d="M41.2,43.2c-0.6,0.7-1.2,1.9-1.7,3.7c-0.9,3.1-2.1,3.7-2.1,3.7s1.5,0,3.1-0.6c0,0,0-0.1,0.1-0.1 C41.5,47.2,41.3,44.6,41.2,43.2" class="st4"/><path d="M48.1,42.2c-0.1,4.5-2.1,7.1-4.2,8.4c-0.7,0.5-1.5,0.8-2.1,1.1c-0.4,2-1.2,2.9-1.2,2.9s5.9-0.8,7.4-7.8 c0.6-3.4,0.1-6.3,0.1-6.3C48.1,41.1,48.1,41.6,48.1,42.2" class="st5"/><path d="M61.8,23.4c1.4,0.1,2.7,0.4,4,0.9c0.5-0.4,1.7-1.6,3.6-2.8c-2.2-2.6-7.3-1.3-11.2,0.2 c-1.7,0.7-3.3,1.4-4.3,1.8c-3.3,1.4-10.2,4.6-13.4,1.3c-1.4-2-0.4-3.3-1.3-4.8c-1.2-1.9-3.5-2.4-5.5-1.6c-4.1,1.7-8.7-0.8-12.9-0.1 c3.4,1.2,8,0.7,10.6,3.6c2.1,2.4,2.6,6.6,3.6,10.1c0.7-4,5.5-4.9,5.5-4.9c-1.5,0.5-4.3,2.4-4.1,6.4c0.2,4.1,6.7,7,6.7,12 c0,1.7-0.4,2.4-1.2,4.1c0.5-2.6,0.1-4.3-0.9-6.4c0.1,1.4,0.4,3.9-0.7,6.6c0,0,0,0.1-0.1,0.1c-0.3,0.8-0.8,1.6-1.4,2.4 c0,0,1.1-0.1,2.6-0.7c0.7-0.3,1.4-0.6,2.1-1.1c2.1-1.4,4.2-3.9,4.2-8.4c0-0.5,0-1.1-0.1-1.7c-0.1-1.3-0.3-2.8-0.8-4.4 c-0.1-0.2-0.1-0.4-0.2-0.6c0,0,0,0,0,0l0,0c-0.1-0.3-0.2-0.6-0.3-0.9v0c3,1,7.8-1.5,11.7-4.1c2.6-1.7,4.7-3.5,5.7-4.3c0,0,0,0,0,0 c-1.6-1.4-4.2-1.7-6.4-1.6c-2.2,0-4.4,0.7-6.3,1.7c2.5-1.7,5.5-2.7,8.6-2.8C60.6,23.4,61.2,23.4,61.8,23.4" class="st2"/></g></svg>