<svg xmlns="http://www.w3.org/2000/svg" version="1.1" width="70px" height="70px" viewBox="0 0 70 70"><g id="surface1"><path d="M 18.109375 26.007812 C 18.109375 26.007812 18.121094 26.007812 18.121094 26.007812 C 18.128906 26.007812 18.128906 26.007812 18.128906 26.007812 C 19.277344 25.878906 20.429688 24.765625 20.246094 23.453125 C 20.078125 22.265625 19.066406 21.5 17.988281 21.652344 C 17.371094 21.734375 16.636719 22.140625 16.328125 22.746094 C 16.046875 23.292969 15.992188 23.953125 16.109375 24.554688 C 16.300781 25.566406 17.207031 26.039062 18.109375 26.007812 " style=" stroke:none;fill-rule:nonzero;fill:rgb(92.54902%,10.980392%,14.117647%);fill-opacity:1;"/><path d="M 4.585938 31.632812 C 4.714844 30.40625 3.875 29.839844 3.101562 29.621094 C 2.425781 29.445312 1.851562 29.359375 2.019531 28.792969 C 2.027344 28.773438 2.039062 28.753906 2.046875 28.734375 C 2.292969 28.167969 2.90625 27.878906 3.734375 27.640625 C 3.847656 27.613281 3.960938 27.574219 4.085938 27.546875 C 4.855469 27.359375 5.769531 27.28125 6.648438 27.113281 C 7.035156 27.039062 7.421875 26.945312 7.773438 26.8125 C 8.589844 26.425781 9.117188 25.585938 9.449219 24.71875 C 9.589844 24.367188 9.695312 24.007812 9.777344 23.679688 C 9.898438 23.160156 9.984375 22.707031 10.136719 22.378906 C 10.285156 22.074219 10.496094 21.878906 10.828125 21.820312 C 11.480469 21.746094 11.742188 22.507812 11.953125 23.613281 C 12.199219 24.886719 12.164062 26.679688 12.734375 27.773438 C 13.042969 28.21875 13.632812 28.378906 14.332031 28.378906 C 15.167969 28.378906 16.160156 28.140625 17.046875 27.859375 C 18.15625 27.507812 19.121094 27.1875 19.734375 27.246094 C 20.050781 27.273438 20.28125 27.40625 20.394531 27.699219 C 20.421875 27.773438 20.4375 27.859375 20.429688 27.933594 C 20.296875 28.621094 19.183594 29.425781 17.757812 30.359375 C 15.957031 31.519531 13.683594 32.566406 12.761719 33.753906 C 12.601562 33.980469 12.507812 34.234375 12.472656 34.5 C 12.21875 35.667969 13.09375 37.1875 14.113281 38.433594 C 15.089844 39.613281 15.992188 40.632812 15.949219 41.292969 C 15.914062 41.425781 15.828125 41.539062 15.675781 41.640625 C 15.527344 41.746094 15.34375 41.792969 15.140625 41.78125 C 14.332031 41.753906 13.128906 40.933594 11.8125 39.886719 C 10.152344 38.574219 8.589844 36.792969 7.332031 36.246094 C 7.21875 36.207031 7.105469 36.179688 6.992188 36.179688 C 6.070312 36.152344 5.261719 37.339844 4.742188 38.5 C 4.277344 39.574219 3.933594 40.5 3.53125 40.414062 C 3.453125 40.394531 3.371094 40.339844 3.285156 40.234375 C 3.066406 39.960938 2.996094 39.492188 3.011719 38.886719 C 3.039062 38.292969 3.160156 37.585938 3.320312 36.800781 C 3.617188 35.339844 4.179688 33.746094 4.453125 32.453125 C 4.503906 32.167969 4.558594 31.886719 4.585938 31.632812 " style=" stroke:none;fill-rule:nonzero;fill:rgb(92.54902%,10.980392%,14.117647%);fill-opacity:1;"/><path d="M 60.953125 38.78125 L 63.253906 38.78125 L 63.976562 33.3125 C 64.105469 33.253906 64.292969 33.226562 64.449219 33.226562 C 64.800781 33.226562 65.117188 33.386719 65.046875 33.933594 L 64.40625 38.792969 L 66.699219 38.792969 L 67.339844 33.914062 C 67.609375 31.820312 66.257812 31.054688 64.554688 31.054688 C 63.640625 31.054688 62.675781 31.292969 61.882812 31.667969 Z M 58.082031 33.246094 C 58.355469 33.246094 58.671875 33.453125 58.625 33.800781 L 58.308594 36.273438 C 58.257812 36.6875 57.914062 36.847656 57.617188 36.847656 C 57.316406 36.847656 57.046875 36.632812 57.089844 36.273438 L 57.40625 33.800781 C 57.441406 33.453125 57.808594 33.246094 58.082031 33.246094 M 54.824219 36.246094 C 54.585938 38.019531 55.914062 38.925781 57.34375 38.925781 C 58.792969 38.925781 60.355469 38.027344 60.59375 36.246094 L 60.910156 33.839844 C 61.15625 31.960938 59.828125 31.054688 58.398438 31.046875 C 56.949219 31.054688 55.386719 31.972656 55.140625 33.839844 Z M 51.714844 36.933594 C 51.582031 36.980469 51.425781 37.007812 51.273438 37.007812 C 50.898438 37.007812 50.527344 36.832031 50.582031 36.394531 L 50.933594 33.765625 C 51.003906 33.292969 51.40625 33.105469 51.765625 33.105469 C 51.941406 33.105469 52.089844 33.132812 52.207031 33.1875 Z M 55.148438 28.414062 L 52.828125 28.414062 L 52.476562 31.199219 C 52.1875 31.09375 51.878906 31.054688 51.582031 31.054688 C 50.222656 31.054688 48.894531 31.90625 48.675781 33.605469 L 48.332031 36.199219 C 48.058594 38.265625 49.367188 38.933594 50.851562 38.933594 C 51.890625 38.933594 52.96875 38.640625 53.855469 38.292969 Z M 41.550781 38.78125 L 43.851562 38.78125 L 44.574219 33.3125 C 44.707031 33.253906 44.890625 33.226562 45.046875 33.226562 C 45.398438 33.226562 45.714844 33.386719 45.644531 33.933594 L 45.003906 38.792969 L 47.296875 38.792969 L 47.9375 33.914062 C 48.210938 31.820312 46.855469 31.054688 45.152344 31.054688 C 44.238281 31.054688 43.273438 31.292969 42.484375 31.667969 Z M 38.265625 33.765625 C 38.320312 33.339844 38.707031 33.09375 39.03125 33.09375 C 39.46875 33.09375 39.628906 33.445312 39.574219 33.800781 C 39.496094 34.566406 38.734375 34.753906 38.171875 34.492188 Z M 37.960938 35.945312 C 39.59375 36.339844 41.410156 35.621094 41.65625 33.832031 C 41.921875 31.972656 40.769531 31.046875 39.3125 31.046875 C 37.855469 31.046875 36.28125 32.039062 36.046875 33.945312 L 35.753906 36.113281 C 35.507812 37.953125 36.84375 38.925781 38.265625 38.925781 C 39.085938 38.925781 40.050781 38.765625 41.035156 37.699219 L 39.925781 36.5 C 39.269531 37.160156 37.808594 37.085938 37.960938 35.945312 M 34.832031 31.046875 C 33.128906 31.046875 31.863281 31.945312 31.601562 34.007812 L 30.984375 38.78125 L 33.289062 38.78125 L 33.902344 34.039062 C 34.007812 33.199219 35.105469 33.074219 35.710938 33.300781 L 35.984375 31.234375 C 35.421875 31.074219 35.078125 31.046875 34.832031 31.046875 M 28.140625 33.246094 C 28.414062 33.246094 28.730469 33.453125 28.683594 33.800781 L 28.367188 36.273438 C 28.316406 36.6875 27.972656 36.847656 27.675781 36.847656 C 27.375 36.847656 27.105469 36.632812 27.140625 36.273438 L 27.457031 33.800781 C 27.5 33.453125 27.867188 33.246094 28.140625 33.246094 M 24.882812 36.246094 C 24.652344 38.019531 25.972656 38.925781 27.402344 38.925781 C 28.851562 38.925781 30.414062 38.027344 30.652344 36.246094 L 30.96875 33.839844 C 31.214844 31.960938 29.886719 31.054688 28.457031 31.046875 C 27.007812 31.054688 25.445312 31.972656 25.199219 33.839844 Z M 22.457031 36.21875 C 22.265625 36.660156 21.914062 36.847656 21.597656 36.847656 C 21.28125 36.847656 21 36.613281 21.050781 36.207031 L 21.378906 33.773438 C 21.429688 33.347656 21.773438 33.132812 22.097656 33.132812 C 22.386719 33.132812 22.667969 33.339844 22.695312 33.773438 L 24.714844 33.132812 C 24.511719 31.507812 23.328125 31.054688 22.371094 31.054688 C 20.9375 31.054688 19.375 31.832031 19.128906 33.6875 L 18.804688 36.160156 C 18.558594 38.007812 19.910156 38.925781 21.34375 38.925781 C 22.300781 38.925781 23.660156 38.394531 24.382812 36.699219 Z M 22.457031 36.21875 " style=" stroke:none;fill-rule:nonzero;fill:rgb(92.54902%,10.980392%,14.117647%);fill-opacity:1;"/><path d="M 43.703125 42.640625 L 43.117188 42.640625 L 42.964844 41.980469 L 42.15625 41.980469 L 41.851562 42.640625 L 41.253906 42.640625 L 42.578125 39.734375 L 43.117188 39.734375 Z M 42.367188 41.425781 L 42.886719 41.425781 L 42.800781 40.792969 L 42.773438 40.378906 L 42.730469 40.378906 L 42.597656 40.792969 Z M 42.367188 41.425781 " style=" stroke:none;fill-rule:nonzero;fill:rgb(92.941176%,10.980392%,14.117647%);fill-opacity:1;"/><path d="M 45.804688 42.640625 L 45.242188 42.640625 L 45.617188 39.734375 L 46.179688 39.734375 Z M 45.804688 42.640625 " style=" stroke:none;fill-rule:nonzero;fill:rgb(92.941176%,10.980392%,14.117647%);fill-opacity:1;"/><path d="M 48.5 41.574219 L 48.296875 41.574219 L 48.15625 42.640625 L 47.59375 42.640625 L 47.972656 39.734375 L 49.035156 39.734375 C 49.167969 39.734375 49.296875 39.753906 49.402344 39.78125 C 49.519531 39.820312 49.605469 39.867188 49.683594 39.945312 C 49.765625 40.019531 49.816406 40.113281 49.851562 40.234375 C 49.886719 40.359375 49.894531 40.492188 49.878906 40.660156 C 49.84375 40.925781 49.765625 41.132812 49.640625 41.265625 C 49.519531 41.394531 49.351562 41.492188 49.148438 41.527344 L 49.816406 42.632812 L 49.121094 42.632812 Z M 48.878906 41.027344 C 49 41.027344 49.105469 41 49.183594 40.945312 C 49.261719 40.886719 49.316406 40.792969 49.332031 40.667969 C 49.34375 40.613281 49.332031 40.554688 49.324219 40.519531 C 49.316406 40.480469 49.289062 40.445312 49.253906 40.414062 C 49.21875 40.386719 49.183594 40.367188 49.132812 40.359375 C 49.078125 40.347656 49.027344 40.339844 48.972656 40.339844 L 48.472656 40.339844 L 48.386719 41.027344 Z M 48.878906 41.027344 " style=" stroke:none;fill-rule:nonzero;fill:rgb(92.941176%,10.980392%,14.117647%);fill-opacity:1;"/><path d="M 51.714844 39.734375 L 52.277344 39.734375 L 51.976562 42.039062 L 53.144531 42.039062 L 53.066406 42.640625 L 51.335938 42.640625 Z M 51.714844 39.734375 " style=" stroke:none;fill-rule:nonzero;fill:rgb(92.941176%,10.980392%,14.117647%);fill-opacity:1;"/><path d="M 55.234375 42.640625 L 54.671875 42.640625 L 55.050781 39.734375 L 55.613281 39.734375 Z M 55.234375 42.640625 " style=" stroke:none;fill-rule:nonzero;fill:rgb(92.941176%,10.980392%,14.117647%);fill-opacity:1;"/><path d="M 58.976562 39.734375 L 59.539062 39.734375 L 59.160156 42.640625 L 58.566406 42.640625 L 57.941406 41.113281 L 57.828125 40.71875 L 57.808594 40.71875 L 57.792969 41.226562 L 57.605469 42.640625 L 57.046875 42.640625 L 57.421875 39.734375 L 57.976562 39.734375 L 58.625 41.320312 L 58.757812 41.839844 L 58.765625 41.839844 L 58.785156 41.226562 Z M 58.976562 39.734375 " style=" stroke:none;fill-rule:nonzero;fill:rgb(92.941176%,10.980392%,14.117647%);fill-opacity:1;"/><path d="M 61.742188 40.894531 L 62.914062 40.894531 L 62.832031 41.480469 L 61.664062 41.480469 L 61.59375 42.054688 L 62.867188 42.054688 L 62.789062 42.640625 L 60.953125 42.640625 L 61.332031 39.726562 L 63.167969 39.726562 L 63.085938 40.320312 L 61.8125 40.320312 Z M 61.742188 40.894531 " style=" stroke:none;fill-rule:nonzero;fill:rgb(92.941176%,10.980392%,14.117647%);fill-opacity:1;"/><path d="M 64.886719 41.765625 C 64.914062 41.820312 64.957031 41.867188 65.003906 41.90625 C 65.046875 41.945312 65.089844 41.980469 65.144531 42.007812 C 65.195312 42.039062 65.25 42.054688 65.300781 42.074219 C 65.355469 42.09375 65.40625 42.09375 65.460938 42.09375 C 65.574219 42.09375 65.671875 42.066406 65.742188 42.019531 C 65.808594 41.972656 65.855469 41.894531 65.878906 41.792969 C 65.890625 41.726562 65.878906 41.679688 65.863281 41.640625 C 65.84375 41.605469 65.808594 41.566406 65.765625 41.546875 C 65.722656 41.519531 65.671875 41.5 65.609375 41.492188 C 65.546875 41.480469 65.476562 41.460938 65.414062 41.453125 C 65.308594 41.433594 65.214844 41.40625 65.117188 41.359375 C 65.019531 41.3125 64.933594 41.253906 64.863281 41.179688 C 64.792969 41.105469 64.738281 41.007812 64.703125 40.90625 C 64.667969 40.800781 64.660156 40.667969 64.6875 40.527344 C 64.710938 40.378906 64.757812 40.253906 64.816406 40.152344 C 64.886719 40.046875 64.96875 39.960938 65.0625 39.894531 C 65.160156 39.832031 65.265625 39.78125 65.378906 39.746094 C 65.496094 39.71875 65.617188 39.699219 65.742188 39.699219 C 65.914062 39.699219 66.074219 39.734375 66.222656 39.8125 C 66.371094 39.886719 66.503906 40.019531 66.609375 40.199219 L 66.144531 40.519531 C 66.082031 40.433594 66.019531 40.378906 65.941406 40.339844 C 65.863281 40.300781 65.785156 40.28125 65.695312 40.28125 C 65.644531 40.28125 65.589844 40.28125 65.539062 40.292969 C 65.484375 40.300781 65.441406 40.3125 65.40625 40.339844 C 65.363281 40.359375 65.328125 40.386719 65.300781 40.425781 C 65.273438 40.460938 65.257812 40.507812 65.25 40.554688 C 65.238281 40.613281 65.25 40.660156 65.265625 40.699219 C 65.285156 40.734375 65.320312 40.765625 65.363281 40.78125 C 65.40625 40.800781 65.449219 40.820312 65.503906 40.839844 C 65.554688 40.859375 65.617188 40.867188 65.671875 40.878906 C 65.785156 40.90625 65.898438 40.933594 66.003906 40.972656 C 66.109375 41.007812 66.195312 41.066406 66.277344 41.140625 C 66.355469 41.21875 66.40625 41.3125 66.441406 41.433594 C 66.476562 41.554688 66.476562 41.707031 66.453125 41.886719 C 66.425781 42.039062 66.382812 42.167969 66.320312 42.273438 C 66.25 42.378906 66.171875 42.460938 66.074219 42.519531 C 65.976562 42.574219 65.863281 42.621094 65.742188 42.652344 C 65.617188 42.679688 65.484375 42.6875 65.355469 42.6875 C 65.265625 42.6875 65.179688 42.679688 65.089844 42.652344 C 65.003906 42.621094 64.921875 42.59375 64.84375 42.546875 C 64.765625 42.5 64.695312 42.445312 64.625 42.378906 C 64.554688 42.3125 64.5 42.226562 64.457031 42.132812 Z M 64.886719 41.765625 " style=" stroke:none;fill-rule:nonzero;fill:rgb(92.941176%,10.980392%,14.117647%);fill-opacity:1;"/></g></svg>