<svg xmlns="http://www.w3.org/2000/svg" version="1.1" id="Layer_1" x="0px" y="0px" width="70px" height="70px" viewBox="0 0 70 70" enable-background="new 0 0 70 70" xml:space="preserve"><metadata/><rect width="70" fill="none" height="70"/><g><path fill="#B10A32" d="M9.9,49.9c0.7,3.1,0.6,8.199-1.5,10.8c-3,3.7-5.9-0.4-6.6-3.4C1,54,1.1,48.3,3.5,45.6    c0.8-1,2.2-1.699,3.4-0.8C8.8,46.1,9.2,47.8,9.9,49.9"/><path fill="#FFFFFF" d="M7.1,54c0.1,0.4-0.2,0.9,0.4,1c0.4,0.3,1.3,0.2,1.2,0.8c-0.7,0-1.3-0.7-2.1-0.5c-0.4,0.101-0.8,0.3-1.3,0.5    c-0.1-0.1-0.1-0.1-0.1-0.2c0.4-0.3,1.1-0.3,1.5-0.699V53.8C6.9,53.5,7.1,53.7,7.1,54"/><path fill="#FFFFFF" d="M7.8,56.4C8.2,56.8,7.9,57.3,8,57.8C8,58.9,8,59.9,8.3,61c0,0.1-0.1,0.3-0.2,0.4c-0.1,0-0.2-0.101-0.2-0.2    c-0.1-1.5-0.2-2.9-0.3-4.4c-0.1-0.399-0.7-0.1-0.9-0.2c-0.1,0-0.3,0.101-0.4,0.2c-0.1,1.5,0,3-0.2,4.5C6.1,61.4,6,61.4,5.9,61.4    L5.8,61.3c0.1-1.5,0.1-3.2,0.2-4.6c0.2-0.2,0.5-0.4,0.9-0.4C7.1,56.1,7.5,56.2,7.8,56.4"/><path fill="#FFFFFF" d="M4.5,58.8c0,0.4,0,0.601,0,0.9c0.1,0.3-0.1,0.7-0.1,1c0,0.2-0.1,0.3-0.1,0.5h0.2c0.3-0.101,0.3-0.5,0.3-0.8    c0.1-0.301,0-0.601,0.1-0.9c0-0.7,0-1.2,0.1-1.8c0-0.2,0-0.2,0-0.4c0.1-0.6,0-1.2,0-1.8c-0.2-0.6-0.8-0.6-1.3-0.7    c-0.1-0.1-0.2-0.3-0.2-0.399C3.6,54.2,3.9,54.1,4.2,54c0.1,0,0.2,0,0.2-0.1C4.5,54,4.6,54,4.7,54c0.1,0,0.1-0.1,0.1-0.2    c-0.2-0.3-0.5,0-0.8,0C3.7,53.9,3,53.9,3,54.5c0,0.2,0.1,0.4,0.2,0.5c0.1,0.1,0.2,0.2,0.4,0.2c0.3,0.1,0.7,0.1,0.9,0.5    c0,0.2,0,0.5,0,0.6c0,0.101,0,0.2,0,0.4c0.1,0.2,0,0.399,0,0.7C4.4,57.6,4.1,57.5,4,57.5c-0.1-0.1-0.3,0-0.5-0.1    c-0.1-0.2-0.1-0.4,0-0.601c0.3-0.1,0.5-0.1,0.8-0.3c0,0,0,0,0-0.1V56.3c0,0,0,0-0.1-0.1c-0.2-0.2-0.2,0-0.5,0c-0.1,0-0.1,0-0.2,0    c-0.4,0-0.1-0.5-0.3-0.7c-0.1,0-0.1-0.2-0.2-0.1c-0.3,0.199,0,0.5,0,0.8c0.1,0.7,0.1,1.5-0.1,2.3C3.2,58.8,3,59.2,3,59.6    C3,59.7,3,59.9,3,60.1c0,0.2-0.2,0.4,0,0.601C3.1,60.6,3.2,60.6,3.2,60.5c0.1-0.5,0.2-1,0.2-1.5c0-0.1,0.1-0.2,0.2-0.1    c0.2,0,0.3,0.199,0.5,0.199C4.4,59,4.2,58.8,4.2,58.7c-0.3,0-0.2-0.101-0.5-0.2c-0.1,0-0.2,0-0.2-0.1c0-0.2,0-0.4,0.1-0.601    c0.2-0.1,0.4,0,0.7,0c0.1,0,0.3,0,0.3,0.101C4.6,58.1,4.6,58.6,4.5,58.8"/><path fill="#FFFFFF" d="M8.8,50H8.5c-0.1-0.1-0.3-0.2-0.4-0.3C7.8,49.5,7.3,49.3,7,49c-0.3,0-0.4,0.3-0.7,0.5c0,0-0.1,0.1-0.1,0    c0.1-0.2,0.4-0.4,0.5-0.5c0.1-0.1,0.2-0.1,0.3-0.2C7.2,48.9,7.3,49,7.5,49.1C7.8,49.2,7.9,49.4,8.1,49.4c0.2,0.1,0.4,0.199,0.6,0.3    C8.7,49.7,9,49.7,8.8,50L8.8,50z"/><path fill="#FFFFFF" d="M8.2,46.5c0,0.1-0.2,0.2-0.4,0.2c-0.2,0-0.3,0.1-0.4,0.2C7.4,47,7.3,47,7.3,47.1c0,0.2,0.3,0.2,0.4,0.301    c0.1,0,0.1,0.1,0.1,0.1c-0.1,0-0.2,0-0.3,0c-0.3,0.1-0.6-0.1-0.8,0c-0.1,0-0.1,0-0.3,0.1c-0.1,0-0.1,0-0.2,0    c-0.2,0.101-0.5,0-0.5,0.2S5.6,48.2,5.6,48.4c0,0.1,0,0.199-0.1,0.3c0,0.3,0.1,0.7,0.1,1.1c0,0.101,0,0.2,0,0.3    C6,50.1,6.3,50,6.4,50c0.2,0,0.4,0,0.5,0c0.2,0,0.4,0,0.5,0.1c0,0,0.1,0,0.1,0.101c0,0.1-0.1,0.1-0.2,0.1c-0.1,0-0.3,0-0.5,0    c-0.4,0-0.7,0.101-1.2,0c-0.2,0-0.3,0-0.6,0c0,0-0.2,0-0.3,0c-0.2,0-0.3,0-0.5,0c-0.1,0-0.2,0-0.2-0.1C4,50.1,4.1,50.1,4.1,50.1    c0.2,0,0.5,0,0.7,0c0.3,0,0.4,0,0.6-0.1c0-0.1,0-0.2,0-0.2c0-0.3-0.1-0.6,0-1c0-0.2,0-0.5,0-0.7c0-0.199,0-0.6,0.2-0.699l0.6-0.2    c0.2,0,0.4,0,0.6,0c0.1,0,0.3-0.101,0.3-0.2S7,46.8,6.9,46.7c-0.1,0-0.1,0-0.3,0c-0.1,0-0.2,0-0.3-0.101c-0.2-0.3-0.3-0.6-0.2-1    c0-0.1,0.1-0.1,0.2-0.1c0.1,0.1,0,0.3,0,0.4c0,0.3,0.2,0.5,0.3,0.6s0.2,0,0.3,0C7.1,46.4,7,46.2,7,46c0-0.3,0-0.4,0.1-0.6    c0.1,0,0.1,0.1,0.1,0.199V45.7c0,0.2,0,0.5,0.1,0.7c0.1,0.1,0.1,0.1,0.2,0.1c0.3,0,0.5-0.1,0.5-0.3c0.1-0.2-0.1-0.5,0.2-0.5    c0.1,0,0.1,0,0.1,0.1L8.2,46.5z"/><path fill="#FFFFFF" d="M8.2,48.7c-0.1,0-0.2,0-0.2-0.101c-0.2-0.199-0.7-0.3-0.9-0.5c-0.3-0.1-0.3,0-0.4,0.101    c-0.1,0.1-0.2,0.2-0.4,0.2c-0.1,0.1-0.1,0.1-0.2,0.1L6,48.4C6.1,48.3,6.2,48.2,6.3,48.1C6.5,48,6.7,47.8,6.9,47.7    c0.2,0.1,0.6,0.2,0.8,0.3C7.9,48.4,8.2,48.4,8.2,48.7C8.3,48.7,8.3,48.7,8.2,48.7"/><path fill="#FFFFFF" d="M7.3,52c0.1,0.3,0,0.8-0.1,0.9C7,53,6.9,53,6.8,53c-0.4,0-0.3,0.1-0.6,0.1L5.6,53.2c-0.4,0-0.6,0-1,0    C4.4,53.2,4.2,53.1,4,53.1C4,53,3.9,53,3.9,52.9C3.9,52.8,4.1,52.8,4.3,52.8c0.3,0,0.7,0.101,1,0c0.4,0,0.5,0,0.9,0    c0.1,0,0.3-0.1,0.3-0.1C6.8,52.6,6.8,52.6,6.9,52.3c0-0.3,0-0.399-0.3-0.399c-0.4-0.101-0.6,0-0.8-0.2c-0.2-0.2,0-0.5-0.3-0.7    c-0.3,0-0.5,0.1-0.8,0c-0.2,0-0.3,0-0.4,0c-0.1,0-0.2,0-0.4,0c-0.1,0-0.1,0-0.2,0c-0.1,0-0.2,0-0.1-0.1c0.1-0.101,0.2,0,0.3,0    c0.3,0,0.5,0,0.8,0c0.1,0,0.2,0,0.3,0c0.3,0,0.5,0,0.8,0c0.2,0,0.4,0,0.6,0c0.2,0,0.3,0,0.4,0c0.2,0,0.4,0,0.5,0    c0.3,0,0.4-0.101,0.6,0C8,50.9,8,51,8,51s0,0.1-0.1,0.1c-0.2,0.101-0.4,0-0.6,0c-0.2,0-0.4,0-0.6,0c-0.1,0-0.3,0-0.5-0.1    c-0.1,0-0.3,0-0.4,0c0,0.2,0,0.3,0.2,0.4c0.1,0.1,0.4,0.1,0.6,0.1C6.9,51.7,7.2,51.8,7.3,52"/><path fill="#FFFFFF" d="M5.6,45.7c0,0.3,0,0.8-0.2,1.1c-0.2,0.101-0.6,0-0.7,0.2c-0.1,0.2,0,0.4,0,0.6C4.7,47.9,5,48,5.1,48.2    c0.1,0.1,0.1,0.2,0.2,0.3c-0.1,0-0.1,0.1-0.2,0L5,48.4V48.3c-0.1-0.1-0.2-0.2-0.3-0.2c-0.4,0-0.6,0.4-0.9,0.601    c-0.1,0.1-0.2,0.2-0.3,0.2C3.4,49,3.3,49,3.2,49.1C3.1,49.2,3,49.3,2.8,49.3v-0.1C2.8,49.1,3,49,3.1,49c0.2-0.2,0.4-0.5,0.8-0.7    C4,48.1,4.4,48,4.5,47.7c0-0.101-0.1-0.2-0.1-0.3c0-0.2,0.1-0.4-0.1-0.5c-0.2,0-0.5-0.101-0.6-0.2c-0.3-0.3-0.4-0.8-0.2-1.3l0,0    c0.2,0,0.1,0.3,0.1,0.399c0,0.2,0.1,0.5,0.2,0.601C3.9,46.5,4,46.6,4.1,46.6s0.2-0.1,0.2-0.199C4.4,46.1,4.2,45.8,4.4,45.5    c0-0.1,0-0.2,0.1-0.3h0.2c0,0.2-0.1,0.399-0.1,0.6s0,0.4,0.1,0.5C4.8,46.4,4.9,46.4,4.9,46.4c0.2,0,0.4-0.2,0.4-0.4s0.1-0.5,0-0.6    V45.3C5.6,45.5,5.6,45.6,5.6,45.7"/><path fill="#FFFFFF" d="M5.1,49.6C5,49.6,5,49.4,5,49.4C4.9,49.3,4.8,49.1,4.5,49.2c-0.1,0.1-0.2,0.1-0.3,0.2    c-0.3,0.399-0.6,0.5-1,0.899c-0.1,0-0.1,0-0.1-0.1C3.2,50.1,3.3,50,3.5,49.9C3.6,49.8,3.7,49.7,3.8,49.6C3.9,49.5,3.9,49.5,4,49.4    c0.2-0.2,0.3-0.2,0.5-0.4c0.1-0.1,0.2-0.1,0.3,0c0,0,0.2,0.1,0.3,0.2C5.2,49.3,5.3,49.5,5.1,49.6"/><path fill="#E0596D" d="M40,6.9c0.7,0,1.1,0.3,1.5,0.5c0.8,0.4,1.4,0.8,2.5,0.8c0.6,0,1.2,0.1,1.7,0.3c1.899,0.9,3,4.2,3.3,6    c0.1,0.6,0.1,1.3,0,1.9s-0.1,1.2,0,1.7c0.2,0.9,0.6,0.9,0.8,0.9l0,0c0.2,0,0.5-0.1,0.8-0.1c0.2,0,0.4-0.1,0.7-0.1    c0.5-0.1,1.101-0.1,1.601-0.1c0.699,0,1.5,0.1,2.1,0.3c0.7,0.2,1.4,0.2,2.1,0.3c0.5,0,1.101,0.1,1.7,0.2c0.601,0.1,2.5,0.5,3.7,0.9    c0.6,0.3,1.1,0.7,1.6,1.1c0.4,0.4,0.801,0.7,1.301,1c2.8,1.5,3.6,3.2,2.8,6C68.1,28.8,68,29.1,68,29.4c-0.3,0.9-0.5,1.9-0.9,2.8    c-0.399,1.2-1,1.6-1.699,2.2c-0.2,0.2-0.4,0.4-0.7,0.6c-0.7,0.6-1.2,1.4-1.7,2.2c-0.7,1.1-1.5,2.3-2.7,3.1    C59.3,40.9,58.4,41,57.4,41c-0.101,0-0.101,0-0.2,0c-0.5,0.2,0,1.2,0.399,1.8c0.2,0.3,0.4,0.7,0.601,1.2c0.1,0.3,0.1,0.7,0.1,1.1    c0,0.301,0,0.601,0.101,0.801c0,0.1,0.199,0.199,0.3,0.399c0.3,0.2,0.6,0.5,0.7,0.9c0.3,1.1,0.199,3.3-0.101,4.2    C59.2,51.6,59,51.9,58.8,52.1c-0.2,0.2-0.399,0.5-0.5,0.601c-0.1,0.2-0.1,0.399-0.2,0.7C58,53.8,57.9,54.2,57.7,54.6    C56.6,56.2,54.3,57,52.4,57.7c-0.5,0.2-0.9,0.3-1.301,0.5c-0.5,0.2-0.899,0.3-1.3,0.3c-0.5,0-1-0.2-1.399-0.4    C48.2,58,47.9,57.9,47.6,57.7c-0.8-0.3-1.5-0.4-2.399-0.4c-0.4,0-0.8-0.1-1.3-0.1c-0.9-0.101-1.5-0.5-2-0.9    c-0.101-0.1-0.101-0.1-0.2-0.2H41.6c-0.8,0-1.399-0.199-1.8-0.5c-0.899,1.301-2.2,2.2-4.2,3c-1.3,0.7-2.7,1-3.8,1.2    C31.5,59.9,31.2,60,31,60.1c-1.1,0.301-2.2,0.5-3.4,0.5c-0.4,0-0.9,0-1.3-0.1c-1.5,0-2.7-0.4-3.7-1.1c-1-0.5-1.9-1.2-2.7-1.9    c-1.1-0.7-2.3-1.6-2.8-2.8c-0.7-1.4-0.3-2,0.1-2.9c0.1-0.2,0.2-0.5,0.4-0.7c0-0.1,0.1-0.1,0.1-0.199c0.8-1.801,1-2.601,1.1-2.9    c-0.9-0.3-1.7-1.1-2.4-2.4C16,44.9,15.6,44.2,15.3,43.9c-0.2-0.2-0.4-0.4-0.6-0.7c-0.2-0.2-0.4-0.3-0.4-0.4    c-0.8-0.8-1.8-1.3-2.8-1.7C10.6,40.7,9.7,40.2,9,39.6c-0.5-0.399-0.9-1-1.3-1.699C6.6,36.1,5.4,34.3,5.1,32.4    c-0.3-1.8,0.1-2.9,0.7-4C6,28,6.2,27.6,6.4,27.3c0.1-0.2,0.2-0.4,0.3-0.6C6.8,26.2,6.9,26,7,25.8c0.2-0.5,0.3-0.9,0.9-1.5    c0.7-0.8,1.3-1.2,2.1-1.6c0.9-0.4,1.9-0.7,2.7-0.8c0.1,0,0.6-0.1,0.8,0c0.2,0,0.4,0.1,0.5,0.1h0.1c0.2,0,0.4-0.1,0.5-0.2    c0.2-0.1,0.5-0.2,0.9-0.2h0.1c0.9,0,3.9,1.6,4.7,1.6c0,0,0.2,0,0.3,0s0.2-0.1,0.2-0.1c0.4-0.3,0.7-0.7,0.9-1.3c0,0,0-0.1,0.1-0.1    l0,0c0-0.1,0.1-0.2,0.1-0.3l0,0c0-0.1,0.1-0.2,0.1-0.3c0.2-0.6,0.3-1.2,0.4-1.8c0-0.2,0.1-0.3,0.1-0.5v-0.1v-0.2v-0.2v-0.1l0,0    v-0.1l0,0V18l0,0v-0.1l0,0c0-0.1,0-0.1,0-0.1l0,0v-0.1l0,0v-0.1l0,0c0,0,0-0.1,0.1-0.1l0,0c0-0.1,0-0.1,0.1-0.1l0,0    c0,0,0-0.1,0.1-0.1l0,0c0,0,0-0.1,0.1-0.1c0.3-0.6,0.5-1.4,0.7-2.1c0.4-1.6,0.9-3.2,2.3-4.1c0.6-0.4,1.3-0.4,1.9-0.5    c0.5,0,1-0.1,1.5-0.3c0.4-0.2,0.7-0.5,1-0.8c0.5-0.4,1-0.8,1.7-1c0.1,0,0.1,0,0.2-0.1l0,0c0.1,0,0.1,0,0.2,0l0,0c0.1,0,0.1,0,0.2,0    h0.1c0.1,0,0.1,0,0.2,0H33c0,0,0.1,0,0.2,0h0.1c0.1,0,0.1,0,0.2,0h0.1h0.1h0.1h0.1H34h0.1h0.1h0.1h0.1c0.2,0,0.5,0,0.7,0l0,0    c0.1,0,0.2,0,0.3,0l0,0c0.1,0,0.2,0,0.3,0c0.2,0,0.399,0,0.6,0C36.9,8.3,37.4,8.2,38,8.1C38.9,7.1,39.6,6.9,40,6.9"/></g><g><g><defs><path id="SVGID_1_" d="M39.1,7.4C37.8,7.6,37.2,7.9,35.9,7.7c-1.101-0.1-2.2-0.2-3.4,0.2c-1.1,0.3-1.7,1.3-2.7,1.8      c-1.1,0.6-2.3,0.2-3.3,0.8c-1.9,1.2-1.9,4.2-2.8,6.1c-1,2.1-0.6,5.3-2.6,6.9c0,0-0.1,0.1-0.3,0.1c-0.1,0-0.4,0-0.4,0      c-0.9,0-3.6-1.6-4.8-1.6c-0.6,0-0.9,0.3-1.5,0.4c-0.3,0-0.5,0-0.7,0c-0.2,0-0.5,0-0.7,0c-0.8,0.1-1.8,0.4-2.5,0.8      c-0.8,0.4-1.4,0.8-2,1.5c-0.8,0.9-0.7,1.2-1.2,2.1c-1,2.1-2,3-1.5,5.5c0.4,2.1,1.8,4.3,3,6.101c1.4,2.1,4.2,2.3,6.1,4.199      c0.7,0.7,1.5,1.4,2.1,2.2c0.5,0.601,2.3,2.4,2.5,3.101c0.1,0.6-0.9,2.899-1.2,3.5c-0.6,1.3-1.2,1.699-0.5,3.3      c0.9,1.899,3.6,3.1,5.1,4.399c2.1,1.801,5.2,1.101,7.7,0.7c2.6-0.399,5-0.8,7.101-2.899c1.1-1.101,1.5-2.2,3.3-1.601      c1.3,0.4,1.8,1.4,3.3,1.601c1.4,0.199,2.5,0.1,3.8,0.6c1.4,0.5,1.7,1.1,3.3,0.5c1.9-0.7,5.2-1.5,6.4-3.4      c0.4-0.6,0.3-1.3,0.6-1.899c0.2-0.4,0.9-1,1-1.3c0.301-0.7,0.4-2.9,0.101-3.9c-0.2-0.6-0.8-0.9-1-1.3c-0.2-0.601,0-1.3-0.2-1.9      c-0.5-1.399-1.8-2.8-0.9-3.5c0.2-0.1,2.101,0,3.2-0.7C62.4,38.9,63,36.4,64.6,34.9c1-0.9,1.801-1.3,2.301-2.7      C67.3,31,67.6,29.8,68,28.5c0.8-2.8-0.2-4.3-2.6-5.6C64.3,22.3,63.6,21.3,62.6,20.8c-1-0.4-2.6-0.8-3.6-0.9      c-1.4-0.2-2.6-0.2-3.9-0.5c-1.1-0.3-2.3-0.3-3.6-0.1c-1.3,0.2-2.3,0.8-2.7-1c-0.2-1.1,0.2-2.5,0-3.6C48.5,12.9,47.4,9.8,45.6,9      c-1-0.5-2.199-0.1-3.399-0.8c-1-0.6-1.5-0.8-2.4-0.8C39.6,7.3,39.3,7.3,39.1,7.4"/></defs><clipPath id="SVGID_2_"><use xmlns:xlink="http://www.w3.org/1999/xlink" xlink:href="#SVGID_1_" overflow="visible"/></clipPath><radialGradient id="SVGID_3_" cx="-130.834" cy="-133.1162" r="1.0199" gradientTransform="matrix(28.427 0 0 28.427 3755.9946 3817.7454)" gradientUnits="userSpaceOnUse"><stop offset="0" style="stop-color:#FFFFFF"/><stop offset="0.0675" style="stop-color:#FFFFFF"/><stop offset="0.3804" style="stop-color:#F8D6DD"/><stop offset="1" style="stop-color:#E0596D"/></radialGradient><rect clip-path="url(#SVGID_2_)" x="5" y="7.3" width="63.7" fill="url(#SVGID_3_)" height="53.3"/></g></g><g><g><defs><path id="SVGID_4_" d="M39.6,7.3c-0.199,0-0.3,0-0.5,0.1C37.8,7.6,37.2,7.8,36,7.7c-0.2,0-0.9-0.1-1.2-0.1c-0.7,0-1.4,0-2.2,0.3      c-1.1,0.3-1.7,1.3-2.7,1.8c-1.1,0.6-2.3,0.2-3.3,0.8c-1.9,1.2-1.9,4.2-2.8,6.1c-0.8,1.5-0.7,3.7-1.5,5.4c0.1,0.6,0.2,1.2,0.3,1.8      c0.3,0.9,2.1,0.9,1.8,2.7l0.1,0.3c1.4,4.8,10.1,3.6,12.5,1.7c1.2-1,3.6-1.7,4.6-2.9c0.801-1.1,3.601-1.9,4.2-3.1      c1.101-1.8,2.4-4.2,2.3-5.8c-0.399-5-3.399-7.4-5.8-8.4c-1.1-0.5-1.5-0.9-2.399-0.9C39.7,7.3,39.7,7.3,39.6,7.3"/></defs><clipPath id="SVGID_5_"><use xmlns:xlink="http://www.w3.org/1999/xlink" xlink:href="#SVGID_4_" overflow="visible"/></clipPath><radialGradient id="SVGID_6_" cx="-126.4277" cy="-129.3867" r="1.0205" gradientTransform="matrix(21.8418 0 0 21.8418 2795.6709 2836.9011)" gradientUnits="userSpaceOnUse"><stop offset="0" style="stop-color:#E0596D"/><stop offset="0.2086" style="stop-color:#E0596D"/><stop offset="0.2892" style="stop-color:#E16172"/><stop offset="0.4196" style="stop-color:#E47580"/><stop offset="0.5836" style="stop-color:#E99299"/><stop offset="0.7728" style="stop-color:#F2BCC2"/><stop offset="0.8712" style="stop-color:#F8D6DD"/><stop offset="1" style="stop-color:#F8D6DD"/></radialGradient><rect clip-path="url(#SVGID_5_)" x="22.2" y="7.3" width="26" fill="url(#SVGID_6_)" height="24.2"/></g></g><g><g><defs><path id="SVGID_7_" d="M40.5,7.9c-0.2,0-0.4,0-0.6,0.1c-1.301,0.2-2,0.5-3.301,0.3c-0.199,0-1-0.1-1.3-0.1c-0.7,0-1.5,0-2.3,0.3      c-1.1,0.3-1.7,1.3-2.8,1.8c-1.1,0.6-2.4,0.2-3.5,0.8c-1.1,0.7-2.4,3-2.8,6c-0.1,1,0.5,1.9,0.4,3c-0.6,4.8,0.8,3.7,1.8,5.7      c1.9,3.6,1.7,4.8,0.8,4.6c1.1,1.3,2,2.9,1.3,4c3.3,0.7,7.5-0.2,9.1-1.4c1.3-1,3.101-2,4.101-3.3c0.899-1.1,2.5-4.6,3.199-5.8      c1.101-1.8,2.301-2.2,3.2-5.6c1.5-5.7-1.399-8.1-4.5-9.4C42.5,8.5,41.2,7.9,40.5,7.9C40.6,7.9,40.5,7.9,40.5,7.9"/></defs><clipPath id="SVGID_8_"><use xmlns:xlink="http://www.w3.org/1999/xlink" xlink:href="#SVGID_7_" overflow="visible"/></clipPath><radialGradient id="SVGID_9_" cx="-128.3984" cy="-130.3047" r="1.0205" gradientTransform="matrix(24.3395 0 0 23.1736 3162.1853 3034.7942)" gradientUnits="userSpaceOnUse"><stop offset="0" style="stop-color:#E0596D"/><stop offset="0.0802" style="stop-color:#E05F70"/><stop offset="0.1902" style="stop-color:#E36E7B"/><stop offset="0.3175" style="stop-color:#E7848D"/><stop offset="0.4578" style="stop-color:#EDA2A9"/><stop offset="0.6071" style="stop-color:#F5CCD2"/><stop offset="0.638" style="stop-color:#F8D6DD"/><stop offset="0.7376" style="stop-color:#F9DCE1"/><stop offset="0.8866" style="stop-color:#FCECEE"/><stop offset="1" style="stop-color:#FFFFFF"/></radialGradient><rect clip-path="url(#SVGID_8_)" x="23.9" y="7.9" width="25.5" fill="url(#SVGID_9_)" height="27.2"/></g></g><g><g><defs><path id="SVGID_10_" d="M35.6,38.2c-2,0.5-5.7,0-7.399,1.3c-1.6,1.1-3,2.6-3.8,4.3c-1.8,2-3.8,3.8-5,5.4      c-1.2,1.7-1.5,4.5-0.7,6.1c2.2,4.4,7.8,5.8,12.1,4.5c4.1-0.899,9.2-2.1,9.8-7.6c0.301-2.7,1-5.5,0.101-8c-0.7-1.8-0.8-5.9-4-5.9      C36.4,38,36,38.1,35.6,38.2"/></defs><clipPath id="SVGID_11_"><use xmlns:xlink="http://www.w3.org/1999/xlink" xlink:href="#SVGID_10_" overflow="visible"/></clipPath><radialGradient id="SVGID_12_" cx="-119.1782" cy="-123.1597" r="1.0202" gradientTransform="matrix(15.8035 0 0 15.8035 1910.7924 1988.5786)" gradientUnits="userSpaceOnUse"><stop offset="0" style="stop-color:#FFFFFF"/><stop offset="0.411" style="stop-color:#F8D6DD"/><stop offset="1" style="stop-color:#E0596D"/></radialGradient><rect clip-path="url(#SVGID_11_)" x="18" y="38" width="23.7" fill="url(#SVGID_12_)" height="22.9"/></g></g><g><g><defs><path id="SVGID_13_" d="M5.5,31.4c0,2,1.6,4.2,2.4,5.9c1.3,2.5,2.4,2.601,4.7,3.8c1.9,1,3.1,2.2,4.1,4.2c2.8,5.3,5.7,0.4,8.1-1.6      c1.8-1.4,2.8-4.601,2.3-6.9c-0.3-1.5-1.6-3.8-2.9-4.7l0.8,0.5c-1-1-0.2-2.3-0.7-3.5c-0.4-1.1-1-2.4-1.6-3.6      c-0.9-1.8-1.8-1.3-2.7-0.9c-0.5,0.2-0.9,0.5-1.3,0.4c-1.1-0.3-2.8-0.7-3.8-1.1c-0.7-0.3-1.5-0.4-2.2-0.4      C9,23.6,5.6,27.3,5.5,31.4"/></defs><clipPath id="SVGID_14_"><use xmlns:xlink="http://www.w3.org/1999/xlink" xlink:href="#SVGID_13_" overflow="visible"/></clipPath><radialGradient id="SVGID_15_" cx="-124.771" cy="-127.9619" r="1.0193" gradientTransform="matrix(20.093 0 0 20.093 2534.437 2608.7397)" gradientUnits="userSpaceOnUse"><stop offset="0" style="stop-color:#FFFFFF"/><stop offset="0.0675" style="stop-color:#FFFFFF"/><stop offset="0.4294" style="stop-color:#F8D6DD"/><stop offset="1" style="stop-color:#E0596D"/></radialGradient><rect clip-path="url(#SVGID_14_)" x="5.4" y="23.6" width="22.3" fill="url(#SVGID_15_)" height="27"/></g></g><g><g><defs><path id="SVGID_16_" d="M50.3,19.9c-1.1,0.2-2.3,1-3.2,1.6C46.2,22.2,45.6,24,44.7,24.6c-2.101,1-2.2,1.5-3.3,3.3      c-0.9,1.5-2.101,3.6-3.101,5.3c0,0.6,0,1.3,0.2,1.9c0.2,1,1.4,2.7,1.3,3.6v-0.4c1,5.2,11.601,6.8,9.601,4.3      C44.3,36,52.2,32.8,53.2,34c6.2,7.7,8.7,3.2,9.3,2.4c1.3-1.7,2.3-3.5,2.6-5.2c2-10.9-4.1-9.4-7.6-10.9c-0.2,0-0.4,0-0.6,0      c-1.301,0.1-2,0.2-3.301-0.1c-0.199,0-0.399-0.1-0.6-0.1S52.6,20,52.4,20c-0.4-0.1-0.801-0.1-1.2-0.1      C51,19.8,50.7,19.8,50.3,19.9"/></defs><clipPath id="SVGID_17_"><use xmlns:xlink="http://www.w3.org/1999/xlink" xlink:href="#SVGID_16_" overflow="visible"/></clipPath><radialGradient id="SVGID_18_" cx="-135.1924" cy="-136.8164" r="1.0212" gradientTransform="matrix(40.5253 0 0 40.5253 5555.0127 5563.6792)" gradientUnits="userSpaceOnUse"><stop offset="0" style="stop-color:#E0596D"/><stop offset="0.3067" style="stop-color:#E0596D"/><stop offset="0.4003" style="stop-color:#E3707D"/><stop offset="0.6001" style="stop-color:#EDA4AB"/><stop offset="0.7607" style="stop-color:#F8D6DD"/><stop offset="1" style="stop-color:#F8D6DD"/></radialGradient><rect clip-path="url(#SVGID_17_)" x="38.4" y="19.8" width="28.8" fill="url(#SVGID_18_)" height="25.2"/></g></g><g><g><defs><path id="SVGID_19_" d="M49.2,41.6L49.2,41.6C49.3,41.6,49.3,41.6,49.2,41.6L49.2,41.6 M47.1,21.5c-0.3,0.3-0.699,0.7-0.8,1      c-0.5,0.8-0.7,1.2-1.5,1.6c-0.6,0.3-1,0.5-1.5,1c-0.399,0.5-0.7,1-1.1,1.5c-0.7,1-2.101,1.2-3.3,1.2c-0.301,0-0.601,0-0.9,0      c-1.7,1.1-3.4,1.7-5.1,1.3c-1-0.2-2.2-2-3.2-1.9c-0.9,0.1,0.5,0.6-0.2,1.4c-0.8,0.9-1.8,0.2-2.5-0.6c-0.5-0.5-0.8-1-0.9-1      c-0.2,0.1,0,0.6,0,0.8c0,0.5-0.5,0.8-0.6,1.4c-0.1,0.5,0,0.8,0.1,1.1c0.1,0.3,0.2,0.7,0.2,1.3c0,0.9,0,0.6-0.1,1.6      c-0.1,1.8-0.8,2.6-1.3,4.399c-0.5,2,1.6,3-0.9,6.7c-0.8,1.2-4.5,2.9-4.3,4.4c1-0.2,1.6-1.3,2.4-2.101c1.8-1.8,6.6-3.699,9.4-3.8      c3-0.1,0.1,3.101,1,3.8c0.8,0.601-0.8,2.4,0.1,1.9s2.2-4.8,2.8-5.8c0.3-0.7,5-11.6,5.2,4.8c0,1.6,0.9,2.3,0.5,3.8      C40.4,52,37.6,55.9,42.2,55.5c0.6-3.4-2-5.8-0.601-7.5c0.7-0.9,3.2-1,3.2-2.2C44.7,43.3,45.9,43.3,47,43.4c0.7,0,1.3,0.1,1.6-0.5      C49,42,49.2,41.7,49.3,41.6c0,0-0.1-0.1-0.1-0.399C49,40.1,50,40.1,49.5,39c1.1,0.3,1.4-0.8,2.3-1c0.601-0.2,1.8-0.1,2.5,0      c1.5,0.2,2.2,2.7,2.5,2.5c0.3-0.5-0.5-1.8-1.3-2.5c-0.6-0.6-1.4-1.7-1.9-2.4c-0.8-1-0.3-2.3-1.399-2.899      c-0.3-0.2-0.601-0.1-0.9-0.1c-0.5,0.1-1.1,0.2-2.2-0.5C43.2,36.3,48.2,30,47.8,28.4C47.1,26.4,45.5,25.8,47.1,21.5      C47.1,21.5,47.1,21.4,47.1,21.5C47.1,21.4,47.1,21.5,47.1,21.5"/></defs><clipPath id="SVGID_20_"><use xmlns:xlink="http://www.w3.org/1999/xlink" xlink:href="#SVGID_19_" overflow="visible"/></clipPath><radialGradient id="SVGID_21_" cx="-125.7041" cy="-128.7461" r="1.0203" gradientTransform="matrix(21.0463 0 0 21.0463 2683.6794 2748.1416)" gradientUnits="userSpaceOnUse"><stop offset="0" style="stop-color:#FFFFFF"/><stop offset="0.092" style="stop-color:#FFFFFF"/><stop offset="0.3742" style="stop-color:#F8D6DD"/><stop offset="0.3751" style="stop-color:#F8D5DC"/><stop offset="0.4961" style="stop-color:#EEA8AE"/><stop offset="0.6086" style="stop-color:#E78790"/><stop offset="0.709" style="stop-color:#E36F7C"/><stop offset="0.7938" style="stop-color:#E05F71"/><stop offset="0.8528" style="stop-color:#E0596D"/><stop offset="1" style="stop-color:#E0596D"/></radialGradient><rect clip-path="url(#SVGID_20_)" x="19.2" y="21.4" width="37.899" fill="url(#SVGID_21_)" height="34.6"/></g></g><g><path fill="#FFFFFF" d="M28.5,42.4c-0.6-0.4,0-2,0.7-2.801c0.7-0.8,1.9-2,1.6-2.199c-0.3-0.101-1.6,0.1-1.9,0    c-0.4-0.101,2.2-1.2,2.5-1.301c0.3-0.1-1.9-0.7-2.6-0.8c-0.8-0.1-2.4,0.1-2.2-0.2c0.1-0.3,1.1-0.8,1.3-1c0.2-0.2-1.2-0.9-1.3-1.3    c-0.1-0.3,0.3-0.7,1.8-0.3c1.5,0.3,2.7,0.2,3.3,0.3c0.6,0.1,1,0.3,1.2,0.4c0.2,0.1,0.4-0.4,0.6-0.3s0.7,0.4,0.7,0.1    s-0.2-0.8-0.6-1.2c-0.4-0.4-1-1.1-1.1-1.3c-0.1-0.3-0.4-0.9,0-1s0.7,0,0.9-0.1c0.2-0.1,0.6-0.6,1.1-0.4s0.8,0.4,0.9,0.5    c0.2,0.1,0.5,0.2,0.7,0.1c0.2-0.1,0.601-0.6,1.101-0.3c0.5,0.3,1.3,0.9,2,0.8c0.7-0.2,1.2-0.5,1.399-1c0.2-0.4,0.801-1.8,1.101-2.1    s0.899-0.8,0.8-0.6c-0.1,0.2-0.8,1.7-0.7,2.4c0,0.7-0.1,0.9,0.101,1.1c0.199,0.2,0.5,0.1,0.8,0s0.7-0.4,0.7-0.2    c0.1,0.2-1.5,1.2-1.9,1.7c-0.5,0.4-0.9,1.3-0.7,1.7s1.101,0.2,1.5,0.2c0.4,0,1.4,0.1,1.3,0.3c-0.1,0.2-1.699,1.3-1.699,1.5    c0,0.2,1,0.5,1.5,0.5s1.8,0.2,2.3,0.301c0.5,0.1,0.899,0.1,1,0.399c0.1,0.3,0.3,0.5,0.1,0.5s-1.3-0.1-1.6-0.3    c-0.4-0.1-2.2-0.6-2.7-0.5c-0.4,0-1.7,0-1.9,0.4C40.4,36.8,41.3,37.1,41.5,37.3s0.9,1,0.5,1C41.5,38.4,41.2,38,41,38    c-0.2-0.1-0.9-0.6-1.1-0.7c-0.2-0.1-1-1-1.301-0.899C38.2,36.4,37.4,36.6,37,36.9c-0.4,0.3-0.9,0.8-1.2,1.1s-1.3,1-1.8,1.3    c-0.4,0.4-2.9,2.3-3.3,2.601C30.1,42.3,29,42.8,28.5,42.4"/><path fill="#B10A32" d="M35.5,28c-0.2-0.3-0.1-0.9,0-1.3c0.1-0.3,1.2-2.2,2.2-1.9c0.399,0.1,0.7,0.3,0.899,0.8    c0.2,0.8,0.2,1.9-0.3,2.5C37.4,29,36,28.7,35.5,28"/><path fill="#B10A32" d="M30.4,30.3c0.3-0.1,0.7-0.4,0.8-0.7c0.1-0.4,0.9-0.4,0.9-0.6s-0.8-2.3-1.3-2.5c-0.6-0.2-0.7,0.1-1.2,0.1    c-0.4,0-0.7-0.2-1,0.2c-0.4,0.6-1,1.5-0.5,2.2C28.7,29.8,29.5,30.5,30.4,30.3"/><path fill="#B10A32" d="M42.5,32c-0.1,0.2-0.5,0.3-0.7,0.1c0.601-0.8,1.2-1,2-1.6c0.3-0.3,0-1.6,0.2-2c0.1-0.4,1.5-1.3,2-1    c0.3,0.2,0.6,0.2,0.7,0.5c0.3,0.5,0.3,1.3,0.3,1.7c0,0.5-0.3,0.9-0.4,1.4c-0.1,0.5-1,0.4-1.399,0.4c-0.5,0-1-0.3-1.5,0    C43.5,31.6,42.7,31.8,42.5,32"/><path fill="#B10A32" d="M36.7,33.8c0.2-0.3,0-0.8,0-1.1c0-0.3,0.1-0.7-0.2-0.8c-0.1,0.6-0.2,1.4,0,2C36.6,33.9,36.6,33.8,36.7,33.8    "/><path fill="#B10A32" d="M24.8,35.5c0.7-1,1.4-1.3,2.3-1.5c0-0.1-0.2-0.2-0.3-0.2c-0.6-0.1-1.1-0.5-1.5-1c-0.8-0.9-1.2-1.7-2.4-1.3    c-1.3,0.4-1.4,2.6-1,3.6C22.3,36.5,24,36.6,24.8,35.5"/><path fill="#B10A32" d="M50.9,33.9c1.399-0.5,2.5,0.2,1.8,1.3c-0.3,0.6-0.2,1.2-0.601,1.8c-0.3,0.5-1.1,0.7-1.6,0.5    s-1.2-0.5-1.6-0.9c-0.4-0.399-0.5-0.8-1.2-1c-1.101-0.3-2.3,0-3.4-0.399c1.2-0.6,2.601,0.1,3.9,0C48.8,35.2,49.2,34.2,50.9,33.9"/><path fill="#B10A32" d="M44.2,35.2c-0.3-0.2-0.7-0.2-1,0C43.5,35.3,44,35.3,44.2,35.2"/><path fill="#B10A32" d="M27.5,39.2c-1.2-1.5-3.9,1.3-4,1.5c-0.2,0.2-0.7,0.6-0.7,0.7C22.6,42,24,42.8,24.4,43    c0.6,0.3,1,1.1,1.8,0.6c0.7-0.6,0.8-1.1,1-2c0.2-0.8,0.5-1.6,1.1-2.1c0.6-0.6,1.3-1,1.8-1.6C28.8,37.8,28.4,38.8,27.5,39.2"/><path fill="#B10A32" d="M46,32.8c-0.2-0.9-1.9,0-2.3,0c0.5,0.1,1.2,0.1,1.8,0.2C45.6,33,46,33,46,32.8"/><path fill="#B10A32" d="M38.8,38.2c0.5,0.3,0.601,0.899,1.101,1.2C40.3,39.6,40.9,40,41.3,40.3c0.2,0.2,0.5,1,0.101,1.101    c-0.5,0.3-0.7-0.801-1,0.1c-0.301,0.9-1.301,1.3-1.5,2.2c-0.101,0.6-0.601,1.5-0.2,2.2c0.1,0.199,0.3,0.3,0.6,0.3    c0.5,0.1,0.601,0,1,0.3c0.5,0.3,1,0.5,1.5,0.2c0.601-0.3,1-0.7,1.101-1.3C42.8,44.7,42.6,44,42.6,43.3s0.301-1.1,0-1.8    c-0.3-0.6-0.5-0.8-1-1.2c-0.399-0.3-0.5-0.8-0.8-1.2c-0.5-0.6-1.3-1.399-1.5-1.699C39,37.2,38.7,37,38.2,37s-1.2,0.5-1.5,0.9    c-0.4,0.5-1.101,0.8-1.5,1.3c-0.5,0.5-0.4,1.2-0.6,1.8c-0.2,0.5-0.6,1.1-0.7,1.7c0.3-0.2,0.6-0.7,0.8-1c0.2-0.2,0.3-0.5,0.5-0.7    c0.2-0.2,0.5-0.2,0.7-0.4c0.6-0.6,0.699-1.3,1.1-2C37.2,38.1,38.3,38,38.8,38.2"/><path fill="#B10A32" d="M50.1,44.1C50.1,43.7,49.9,43.4,50,43c0.1-0.5,0-0.8-0.3-1.3s-1-1.7-1.8-1.4c-0.2,0.101-0.5,0.4-0.801,0.2    C46.7,40.3,46.6,40,46.2,39.8c-0.4-0.1-0.8-0.2-1.2-0.3c-0.3-0.1-0.5-0.1-0.9-0.2c0.301,0.601,1.2,0.9,1.7,1.3    c1,0.801,0.5,1.801,0.5,2.801c0,0.3-0.1,0.8,0.101,1.1c0.199,0.3,1.1,0.4,1.3,0.5c0.1,0.1,1.1,0.4,1.6,0.2    C49.7,45.1,50.1,44.4,50.1,44.1"/><path fill="#B10A32" d="M38.9,53.8c0.3-0.1,0.699,0.3,1.399,0.5c0.7,0.3,1.2,0.4,1.7,0.4s1.5,0.6,1.7,1c0.2,0.399,0.3,1.3,0,1.899    C43.4,58.2,42.9,58.9,43.1,60.1C43.4,61.3,43.9,61.8,43,61.7c-0.9-0.101-1.6-0.4-2.1-0.5C40.4,61,39.7,61,39.1,60.3    c-0.6-0.7-0.899-0.6-1.8-1.1c-0.899-0.601-1.5-1.7-1-2.2s1.9-1.8,2-2C38.5,54.7,38.8,53.9,38.9,53.8"/><path fill="#B10A32" d="M57.1,46.7c0-0.3,0.7-0.7,0.7-0.9s0.101-1.3-0.1-1.7c-0.101-0.5-0.2-1,0.1-1.199c0.3-0.2,1.3-0.5,1.8-0.301    c0.601,0.2,1,0.5,1.5,0.7s1.9,0.9,2.101,1.4s0.6,1,0.2,1.6C63,46.8,63,47.2,62.8,47.5c-0.3,0.2-1,0.7-1.3,1.2    c-0.4,0.5-0.7,1.5-1.1,1.7C59.9,50.6,59,50.9,58.8,50.6c-0.3-0.3-0.399-1-0.3-1.3s0.7-0.8,0.5-1.3s-0.6-0.5-1.1-0.7    S57.1,46.9,57.1,46.7"/><path fill="#B10A32" d="M14.3,50.7c-0.2-0.3-0.5-0.5-0.4-0.8C14,49.6,14.3,49.1,14.4,48.6s0-1.5,0-1.8s0.2-0.8,0.2-1.1    c0.1-0.3,0-0.8,0.5-1s1.1-0.101,1.6,0c0.5,0.1,1.4,0.3,1.7,0.8c0.3,0.5,0.4,1.1,0.7,1.3c0.3,0.2,1.2,0.601,1.3,0.8    c0,0.101-0.2,0.301-0.5,0.9c-0.3,0.6-0.3,2-0.3,2.3s0,1.4-0.4,1.601c-0.4,0.199-1,0-1.5-0.301c-0.5-0.3-1.3-0.6-1.6-0.8    c-0.3-0.2-0.3-0.6-0.5-0.7C15.5,50.7,14.6,51,14.3,50.7"/><path fill="#B10A32" d="M34.3,45.4c0.2,0.199,0.3,0.899,0.3,1.1c0,0.4-0.1,1-0.3,1.3c-0.2,0.3-1,0.7-1.2,0.7    c-0.2,0.1-0.9,0.3-1.3,0c-0.2-0.1-0.7-0.5-0.9-0.9C30.7,47.2,30.5,45.9,31.2,45.2c0.3-0.4,0.9-0.4,1.3-0.7c0.3-0.3,0.6-0.6,1-0.8    c0,0.399-0.3,0.8,0,1.1C33.7,45.1,34,45.2,34.3,45.4"/><path fill="#B10A32" d="M42.6,37.1C42.1,37,41.9,36.9,41.4,36.9c0.3,0.399,1,0.399,1.5,0.5c0.199,0.1,0.399,0.199,0.5,0.3    c0.5,0.3,1.5,0.6,1.6,0.8s1.1,0.6,1.5,0.4c0.2-0.101,0.6-0.2,0.5-0.4c-0.4-0.8-1.5-0.5-2.1-0.9c-0.2-0.1-0.2-0.3-0.5-0.3    c-0.301-0.1-0.601,0-0.801-0.1C43.4,37,42.9,37.1,42.6,37.1"/><path fill="#B10A32" d="M37.1,29.8c0,0,0,0.1-0.1,0.5c-0.1,0.3-0.2,1.1,0.1,1.7c0,0,0.2-0.2,0.101-0.7c0-0.5,0-0.6,0-0.8    C37.3,30.3,37.1,29.8,37.1,29.8"/><path fill="#B10A32" d="M35.1,36.2c0.2,0.3-0.1,0.7-0.2,0.899c-0.2,0.2-0.5,0.4-1.1,1c-0.6,0.601-1.2,1.4-1.4,1.601    c-0.2,0.2-0.5,0.8-0.7,0.7C31.6,40.3,32,39.5,32.1,39.3s0.7-1.1,1-1.2c0.2-0.1,1.4-1.1,1.3-1.199c0-0.101-0.4-0.101-0.6-0.101    c-0.2,0-1,0.3-1.3,0.4c-0.2,0.1-0.5-0.101-0.2-0.4c0.3-0.3,0.4-0.3,0.6-0.399c0.2,0,0.7-0.101,0.8-0.2c0.1-0.101,0.1-0.5,0-0.5    c-0.1-0.101-0.3,0-0.4,0c-0.1,0-1.9-0.3-2.2-0.4c-0.3-0.1-2-0.5-2.2-0.5c-0.3-0.1-0.3-0.3,0.1-0.3c0.5,0,1.3,0.2,1.6,0.2    c0.3,0,0.7-0.1,1,0c0.3,0,1.3,0.2,1.5,0.1c0.3-0.1,0.7-0.3,0.7-0.4c0.1-0.2,0.1-0.4-0.1-0.6c-0.2-0.2-0.9-0.7-1.1-1    c-0.2-0.4-0.4-0.8-0.6-0.9s-0.5-0.2-0.7-0.4c-0.1-0.2-0.2-0.7,0-0.6c0.3,0.1,0.9,0.5,1.1,0.6c0.1,0.1,0.3,0.5,0.5,0.8    c0.2,0.3,0.7,0.7,0.9,0.8c0.2,0.1,0.7,0.5,0.8,0.7c0.7,0,0.8,0,1.3,0c0.5,0,1.199,0.1,1.3,0.2c0.1,0.1,0.6,0.3,0.8,0.1    c0.2-0.2,0.6-1.1,0.8-1.4c0.2-0.2,1-1.3,1.2-1.5c0.2-0.3,1.2-1.1,1.2-1c0.1,0.1,0.3,0.2-0.101,0.5C40.7,31,39.7,32,39.6,32.3    c-0.1,0.3-0.699,1.2-0.8,1.4c-0.1,0.2-0.399,0.4-0.3,0.5c0.1,0.1,0.7,0.3,0.8,0.4c0.101,0.1,0.5,0.8,0.2,1c-0.3,0.2-0.6,0-0.8-0.2    c-0.2-0.3-0.4-0.5-0.601-0.7c-0.3-0.2-0.6-0.3-1-0.4c-0.5-0.2-1.5-0.2-1.8-0.1c-0.3,0.1-0.9,0.3-0.9,0.6    C34.4,35.1,34.5,35.5,35.1,36.2"/><path fill="#B10A32" d="M35.9,33.2c-0.2,0-0.7-0.5-0.9-0.9c-0.2-0.4-0.6-1.1-0.7-1.2c-0.1-0.2-0.2-0.5-0.3-0.6s-0.7-0.8-0.5-0.9    s0.8,0.5,0.8,0.7c0.1,0.2,0.7,1,0.8,1.2s0.6,0.9,0.7,1.1C35.9,32.7,36,33.2,35.9,33.2"/></g><rect width="70" fill="none" height="70"/></svg>