<svg xmlns="http://www.w3.org/2000/svg" id="Layer_1" width="70" height="70" x="0" y="0" version="1.1" viewBox="0 0 70 70" xml:space="preserve" style="enable-background:new 0 0 70 70"><style type="text/css">.st0{fill:#1e3598}</style><g id="Artwork_30_1_"><g><g><path d="M2,31.63v1.71c5.77-2.25,11.6-3.62,17.19-4.44C14.04,28.77,7.97,29.65,2,31.63" class="st0"/><path d="M2,22.65c1.56-0.04,3.33,0.47,5.26,0.73l-3.38,0.43C3.31,23.84,2.66,23.89,2,23.95v0.77 c2.45-0.46,5.13-0.76,7.62-0.78c21.79-5.21,39.83-0.3,39.83-0.3C45.58,22.75,24,19.79,2,28.46v1.32 c3.27-1.11,6.72-1.96,10.02-2.36c4.9-0.6,9.44-0.33,13.28,0.75c16.1-1.15,27.77,2.31,27.77,2.31C48.69,29.76,25.18,26.52,2,37.16 v1.06c6.42-3.09,13.15-4.85,18.89-5.23c5.81-0.32,11.02,0.51,14.93,2.85c9.23-0.15,16.26,1.05,20.19,2.01V8.01H2V22.65z M20.87,26.32c-1.42-0.54-3.1-0.89-4.76-1.13c0.72-0.16,1.43-0.29,2.23-0.4c1.17,0.33,2.71,0.88,4.18,1.79L20.87,26.32z M33.56,33.41c-1.36-0.98-2.79-1.89-4.64-2.64c0.62-0.04,1.26-0.14,1.98-0.18c1.15,0.76,2.7,1.98,3.62,3.13L33.56,33.41z" class="st0"/><path d="M2,40.39v3.3c9.49-4.63,19.16-6.82,27.58-7.55C21.89,34.78,12.02,36.18,2,40.39" class="st0"/><path d="M2,48.04v1.37c0.66-0.38,1.31-0.73,1.92-1.06c4.86-2.62,9.7-4.44,14.55-5.55c4.59-1.09,9.08-1.48,13.19-1.12 c7.76,0.69,13.34,4.1,16.02,9.97c0.03,0.05,1.94,4.35,2.12,8.42l-0.93-2.33c-0.25-1.16-0.56-2.35-1.17-3.42 c-1.99-3.88-5.86-6.67-11.09-8.3c-4.76-1.5-10.99-1.57-17.46-0.3C13.41,46.83,7.56,49,2,51.76v10.22h0.55 c3.33-2.49,6.93-4.31,10.68-5.8c9.81-4.23,19.35-5.51,26.52-3.61c5.26,1.51,8.69,4.63,10.08,9.41H56V38.28 C47.17,37.28,23.63,35.65,2,48.04 M43.45,44.33c-1.64-2.43-3.71-4.25-6.58-5.65c0.86-0.11,1.94-0.14,2.74-0.18 c0.29,0.21,0.57,0.48,0.82,0.81c0.1,0.15,3.3,3.31,4.37,6.53L43.45,44.33z" class="st0"/><path d="M38.69,56.39c-4.68-1.24-10.07-1.32-16.04-0.21c-5.33,0.98-10.92,2.8-16.3,5.82h41.01 C45.45,59.2,42.41,57.41,38.69,56.39" class="st0"/><path d="M66.46,58.16c0-0.71-0.58-0.88-1.17-0.88h-1.4v3.32h0.46v-1.53h0.52l0.99,1.53h0.55l-0.99-1.53 C66.01,59.06,66.46,58.83,66.46,58.16 M64.88,58.6h-0.52v-0.86h0.84c0.35,0,0.81,0.07,0.81,0.42 C66.01,58.69,65.29,58.6,64.88,58.6" class="st0"/><path d="M64.98,55.99c-1.65,0-2.98,1.29-2.98,2.98c0,1.69,1.33,3.03,2.98,3.03c1.68,0,3.02-1.33,3.02-3.03 C68,57.28,66.67,55.99,64.98,55.99 M64.98,61.53c-1.34,0-2.52-1.13-2.52-2.56c0-1.43,1.18-2.56,2.52-2.56 c1.38,0,2.56,1.14,2.56,2.56C67.54,60.4,66.36,61.53,64.98,61.53" class="st0"/></g></g></g></svg>