<svg xmlns="http://www.w3.org/2000/svg" id="Layer_1" width="70" height="70" x="0" y="0" version="1.1" viewBox="0 0 70 70" xml:space="preserve" style="enable-background:new 0 0 70 70"><style type="text/css">.st0{fill:#0a4e9b}.st1{fill:#26a9e0}</style><g><g><g><g><path d="M61.7,43.2h-2.2V32.8H53v-2h8.7V43.2z" class="st0"/><path d="M11.2,37L11.2,37c0-3.5,2.7-6.4,6.5-6.4c3.8,0,6.5,2.9,6.5,6.4v0c0,3.5-2.7,6.4-6.5,6.4 C13.8,43.4,11.2,40.5,11.2,37z M21.8,37L21.8,37c0-2.4-1.7-4.4-4.2-4.4c-2.5,0-4.2,2-4.2,4.4v0c0,2.4,1.7,4.4,4.2,4.4 C20.1,41.4,21.8,39.4,21.8,37z" class="st0"/><path d="M24.8,30.8h5.6c1.4,0,2.5,0.4,3.2,1.1c0.5,0.5,0.8,1.2,0.8,2.1v0c0,1.5-0.8,2.3-1.8,2.8 c1.5,0.5,2.5,1.3,2.5,3v0c0,2.2-1.8,3.4-4.6,3.4h-5.7V30.8z M30,36c1.4,0,2.3-0.5,2.3-1.7v0c0-1-0.8-1.6-2.2-1.6H27V36H30z M30.6,41.2c1.5,0,2.4-0.6,2.4-1.7v0c0-1.1-0.8-1.7-2.5-1.7H27v3.4H30.6z" class="st0"/><path d="M40.6,30.7h2L48,43.2h-2.3l-1.3-3h-5.9l-1.3,3h-2.2L40.6,30.7z M43.7,38.2l-2.1-5l-2.1,5H43.7z" class="st0"/><path d="M49,30.8h2.2v10.4h6.5v2H49V30.8z" class="st0"/><path d="M10.1,39.8" class="st0"/></g></g></g><polygon points="68 32.8 62.5 32.8 62.5 30.8 70 30.8" class="st0"/><polygon points="65.3 35.5 62.5 35.5 62.5 33.5 67.3 33.5" class="st1"/><path d="M6.5,32.8h4.1l2-2h-6v0c-3.7,0-6.3,2.8-6.3,6.3v0c0,3.5,2.6,6.3,6.2,6.3c2.1,0,3.5-0.7,4.7-1.9L10,39.8 c-1,1-2,1.6-3.5,1.6c-2.3,0-4-1.9-4-4.3v0C2.5,34.7,4.2,32.7,6.5,32.8" class="st0"/></g></svg>