<svg xmlns="http://www.w3.org/2000/svg" version="1.1" id="Layer_1" x="0px" y="0px" width="70" height="70" viewBox="0 0 70 70" xml:space="preserve" style="enable-background:new 0 0 70 70;"><style type="text/css">
	.st0{fill:#1C3C34;}
	.st1{fill:#006E62;}
</style><g id="XMLID_20_"><path id="XMLID_33_" d="M19.4,46c0,1.9-0.1,2.7-0.7,3.5C18,50.6,16.5,51,15.2,51c-1.1,0-2.4-0.2-3.2-0.6v-1   c0.8,0.4,2.2,0.7,3.1,0.7c1.1,0,2-0.3,2.5-1c0.4-0.6,0.6-1.1,0.6-2.7v-1.6c-0.7,1.2-2,1.5-3.2,1.5c-1.1,0-2.1-0.4-2.7-1   c-0.7-0.8-0.8-1.9-0.8-2.9v-6.6h1.2v6.5c0,1.2,0.1,1.8,0.6,2.4c0.4,0.5,1.1,0.7,1.9,0.7c0.9,0,1.7-0.2,2.2-0.8   c0.6-0.6,0.7-1.4,0.7-2.8v-6h1.2V46z M5.6,34.9C7,34.9,8,35.7,8.4,37l1-0.3c-0.1-0.6-0.5-1.3-0.9-1.6c-0.7-0.8-1.7-1.2-3-1.2   c-3.2,0-5.1,2.4-5.1,6.1c0,3.9,1.7,6.2,5.1,6.2c1.3,0,2.6-0.5,3.3-1v-1.2c-0.9,0.7-2.1,1.1-3.1,1.1c-3,0-4.1-2.1-4.1-5.1   C1.7,36.7,3.2,34.9,5.6,34.9z M27.7,35.5c-0.9,0-1.5,0.2-2.1,0.5c-0.4,0.3-0.8,0.6-1,1l-0.1-1.3h-2.4v0.9h1.4v14.1h1.2V46   c0.6,0.1,1.4,0.2,2.1,0.2c3.5,0,5-2.2,5-5.5C31.8,37.6,30.4,35.5,27.7,35.5 M26.8,45.2c-0.3,0-1.3-0.1-2.1-0.2v-5.7   c0-2,0.9-3,2.8-3c2,0,3,1.5,3,4.3C30.6,43.4,29.8,45.2,26.8,45.2z M36.3,37.2l-0.2-1.5h-2.3v0.9h1.4V46h1.2v-6.4c0-3,1.5-3,2.5-3   c0.2,0,0.4,0,0.6,0v-1.1c-0.2,0-0.4,0-0.6,0C37.7,35.5,36.8,36.1,36.3,37.2 M54.5,38.1c0-1,0.7-1.6,2.2-1.6c0.9,0,1.9,0.2,2.4,0.5   v-1.1c-0.7-0.2-1.6-0.4-2.4-0.4c-1.9,0-3.5,0.8-3.5,2.7c0,3.3,5.3,2.5,5.3,5.3c0,0.9-0.6,1.8-2.4,1.8c-1,0-2.2-0.3-3-0.8v1.1   c0.8,0.4,1.9,0.6,3,0.6c2.4,0,3.7-1.2,3.7-2.9C59.8,39.9,54.5,40.6,54.5,38.1z M49.5,44.3v-8.7h-1.2V42c0,1.4-0.2,1.8-0.7,2.4   c-0.5,0.6-1.3,0.8-2.2,0.8c-1.6,0-2.6-1-2.6-3.3c0-2.8,2.8-5.3,2.8-5.3v-0.9h-3.3v0.9l2.2,0c-0.1,0.1-2.9,2.6-2.9,5.7   c0,1.6,0.6,3.9,3.6,3.9c1.2,0,2.6-0.6,3.3-1.9c-0.1,1.9,1.4,1.8,2.1,1.6v-0.8C50.1,45.2,49.5,45.3,49.5,44.3z" class="st0"/><path id="XMLID_22_" d="M45.7,47.6c0,0.2-0.2,0.3-0.3,0.3c-0.1,0-0.2-0.1-0.2-0.2c0-0.2,0.2-0.3,0.3-0.3   C45.6,47.4,45.7,47.5,45.7,47.6 M47.1,48.7v-0.4h-0.6l-0.1,0.3h0.3l-0.4,2h0.5l0.2-1c0.1-0.3,0.1-0.6,0.3-0.8   c0.1-0.1,0.2-0.1,0.4-0.1c0.1,0,0.1,0,0.1,0l0.1-0.4c0,0-0.1,0-0.2,0C47.5,48.3,47.3,48.5,47.1,48.7 M43.4,50.1c0,0,0,0.1,0,0.1   c0,0.1,0,0.1,0.1,0.1c0.1,0,0.2,0,0.2-0.1l-0.1,0.3c-0.1,0.1-0.2,0.1-0.4,0.1c-0.2,0-0.3-0.1-0.4-0.3c-0.1,0.2-0.4,0.3-0.7,0.3   c-0.5,0-0.8-0.3-0.8-0.8c0-0.8,0.7-1.6,1.5-1.6c0.2,0,0.4,0,0.5,0.1l0.3-0.1L43.4,50.1z M43.2,48.7c-0.1,0-0.1-0.1-0.2-0.1   c-0.5,0-1,0.6-1,1.2c0,0.3,0.2,0.5,0.4,0.5c0.2,0,0.3-0.1,0.4-0.2c0.1-0.1,0.2-0.3,0.2-0.5L43.2,48.7z M45.5,48.3h-0.8l-0.1,0.3H45   l-0.3,1.4c0,0.1,0,0.2,0,0.2c0,0.2,0.2,0.3,0.4,0.3c0.1,0,0.3,0,0.4-0.1l0.1-0.3c-0.1,0-0.2,0.1-0.2,0.1c-0.1,0-0.1,0-0.1-0.1   c0,0,0-0.1,0-0.1L45.5,48.3z M59.3,48.6c0.2,0,0.4,0.1,0.6,0.1l0.1-0.3c-0.1-0.1-0.4-0.1-0.6-0.1c-0.6,0-1,0.3-1,0.7   c0,0.3,0.3,0.5,0.5,0.6c0.3,0.1,0.5,0.2,0.5,0.4c0,0.2-0.2,0.3-0.5,0.3c-0.2,0-0.5-0.1-0.7-0.2L58,50.5c0.2,0.1,0.5,0.2,0.7,0.2   c0.6,0,1-0.3,1-0.7c0-0.3-0.2-0.5-0.6-0.6c-0.2-0.1-0.4-0.2-0.4-0.4C58.8,48.7,59,48.6,59.3,48.6 M56.8,49.3   c-0.1,0.3-0.1,0.6-0.3,0.8c-0.1,0.2-0.3,0.3-0.5,0.3c-0.1,0-0.2,0-0.3-0.1c-0.1-0.1-0.1-0.1-0.1-0.2c0-0.1,0-0.2,0.1-0.4l0.3-1.3   h-0.5l-0.3,1.3c0,0.2-0.1,0.3-0.1,0.4c0,0.2,0.1,0.3,0.2,0.4c0.1,0.1,0.3,0.2,0.5,0.2c0.2,0,0.5-0.1,0.6-0.2l0,0.2   c0,0.2-0.1,0.4-0.3,0.5c-0.1,0.1-0.2,0.1-0.3,0.2c0,0-0.1,0-0.1,0c-0.2,0-0.5-0.1-0.7-0.2L55,51.5c0.2,0.1,0.5,0.2,0.7,0.2   c0,0,0,0,0,0c0,0,0,0,0,0c0.4,0,0.9-0.2,1.1-0.6c0.1-0.2,0.1-0.3,0.2-0.5c0,0,0.5-2.2,0.5-2.2H57L56.8,49.3z M50.5,49.7   c-0.1,0.1-0.1,0.3-0.2,0.4c0-0.2,0-0.3,0-0.4l-0.1-1.4h-0.4l0.1,0.5l-0.5,0.9c-0.1,0.1-0.1,0.3-0.2,0.4c0-0.1,0-0.3,0-0.4L49,48.3   h-0.5l0.3,2.3h0.4l0.7-1.3l0.1,1.3h0.4l1.2-2.3h-0.4L50.5,49.7z M54,50.1c0,0,0,0.1,0,0.1c0,0.1,0,0.1,0.1,0.1c0.1,0,0.2,0,0.2-0.1   l-0.1,0.3c-0.1,0.1-0.2,0.1-0.4,0.1c-0.2,0-0.3-0.1-0.4-0.3c-0.1,0.2-0.4,0.3-0.7,0.3c-0.5,0-0.8-0.3-0.8-0.8   c0-0.8,0.7-1.6,1.5-1.6c0.2,0,0.4,0,0.5,0.1l0.3-0.1L54,50.1z M53.8,48.7c-0.1,0-0.1-0.1-0.2-0.1c-0.5,0-1,0.6-1,1.2   c0,0.3,0.2,0.5,0.4,0.5c0.2,0,0.3-0.1,0.4-0.2c0.1-0.1,0.2-0.3,0.2-0.5L53.8,48.7z" class="st1"/><path id="XMLID_1_" d="M66.2,21.8c-1.3,0.2-2.8,0.8-3.5,1c-0.3,0.1-1,0.4-1,0.4s0.5-0.3,0.8-0.6c0.8-0.5,2.2-1,3-1.6   c2.2-1.5,2.4-2.7,2.4-2.7s-1.2,0.2-2.6,1.1c-0.5,0.3-1.5,1-2.2,1.8c-1.7,2.1-3.5,3-4.5,3.8c0.1-0.2,0.2-0.4,0.4-0.6   c0-0.1,0.1-0.1,0.1-0.2c0.1-0.1,0.2-0.2,0.2-0.3c0,0,0,0,0.1-0.1c0.1-0.1,0.1-0.2,0.2-0.2c0,0,0,0,0,0c0.5-0.6,0.9-1.1,1.4-1.7   c0-0.1,0.1-0.1,0.1-0.2c0.7-1,1.3-2.1,1.4-3.3c0,0,0,0,0,0c-1.2,0.5-2.5,2.2-3.1,3.5c-0.4,1-0.6,2.4-1.3,3.2   c-0.4,0.6-1.2,1-1.9,1.6c0.4-0.6,0.6-1.3,0.6-1.3c0.9-3.2-0.4-4.5-0.4-4.5s-0.9,0.7-0.8,2.7c0,0.3,0.1,0.6,0.2,0.9   c0.1,0.3,0.1,0.6,0.2,0.8c0.1,0.6,0,1.1-0.4,1.6c-0.3,0.4-0.6,0.7-1,1c-0.7,0.7-1.5,1.4-2,2.3c-1,1.7-1.1,3.1-1.1,3.1H52   c0,0,0.1-1.3,0.6-2.1c0.5-0.6,1.3-0.8,2-0.7c1.5,0.2,3.5,1.1,5.7-0.2c-1.6-0.9-4.1-0.7-4.9-0.6c-0.1,0-0.2,0-0.3,0   c-0.2,0-0.4,0.1-0.5,0.1c-0.3,0.1-0.6,0.1-0.8,0.2c-0.1,0-0.2,0-0.2,0.1c0,0,0,0-0.1,0c-0.1,0-0.1,0-0.2,0.1c0,0-0.1,0-0.1,0.1   c0,0,0,0-0.1,0c-0.1,0-0.1,0.1-0.2,0.1c0.5-0.8,1-1.3,1.4-1.6c1-0.7,2-0.4,3.8-0.1c4.5,0.7,5.8-0.3,5.8-0.3s-1.2-0.8-4.1-0.9   c-0.7,0-1.8,0-2.7,0.1c-0.8,0.1-1.6,0.2-2.3,0.6c0.1,0,0.1-0.1,0.1-0.1l0.1-0.1c0,0,0,0,0,0c0.1-0.1,0.2-0.2,0.3-0.2   c0.3-0.3,0.7-0.5,1-0.8c1-0.7,2-1.3,2.8-1.3c1.5,0,2.6,0.8,4.1,0.9c1.7,0.2,2.8-0.2,2.8-0.2s-0.5-0.8-2.6-1.2   c-2.2-0.4-3.6-0.2-4.7,0.2c0.4-0.2,1.9-1.5,3.6-1.9c1.2-0.3,2.5-0.1,3.6-0.1c0.6-0.1,1.5-0.2,2.1-0.4c1.3-0.4,1.4-0.9,1.4-0.9   S68.4,21.3,66.2,21.8" class="st0"/></g></svg>