<svg xmlns="http://www.w3.org/2000/svg" version="1.1" id="Layer_1" x="0px" y="0px" width="70" height="70" viewBox="0 0 70 70" xml:space="preserve" style="enable-background:new 0 0 70 70;"><style type="text/css">
	.st0{fill:none;stroke:#58595B;stroke-width:0.25;stroke-miterlimit:10;}
	.st1{fill:#0092D0;}
	.st2{fill-rule:evenodd;clip-rule:evenodd;fill:#FFFFFF;}
	.st3{fill:#EC1B2E;}
</style><rect x="-266.5" y="-119.1" width="451.3" height="263.2" class="st0"/><g><g><polygon points="68.8,11 49.6,11 1.6,59 49.6,59 68.8,11   " class="st1"/></g><g><path d="M46.3,29.5c-0.7-0.4-1.2-1.1-1.2-2c0-1.2,1-2.2,2.2-2.2c1.2,0,2.2,1,2.2,2.2c0,0.9-0.5,1.6-1.3,2l0,0.6    c0.7,0.1,1.5,0.3,2,0.6c0.2,0,0.5,0,0.8,0c2.8,0,4.7,1.8,4.7,4.4c0,1.6-1.4,3-3,3c-1.6,0-3-1.5-2.7-3.1c0,0-0.2,0.5-0.2,1.2    c0,0.4,0,7.9,0,7.9c-0.1,0.9-1.3,5.9-6.9,5.9c-5.6,0-6.8-5-6.9-5.9c0,0,0-7.5,0-7.9c0-0.7-0.2-1.2-0.2-1.2    c0.3,1.5-1.1,3.1-2.7,3.1c-1.6,0-3-1.4-3-3c0-2.5,1.9-4.4,4.7-4.4c0.3,0,0.6,0,0.8,0c0.5-0.3,1.4-0.6,2-0.6v-0.6    c-0.7-0.4-1.2-1.1-1.2-2c0-1.2,1-2.2,2.2-2.2c1.2,0,2.2,1,2.2,2.2c0,0.9-0.5,1.6-1.3,2v0.8c0.2,0.1,0.4,0.1,0.6,0.2    c0.3-0.7,1-1.3,1.8-1.6v-0.7c-0.7-0.4-1.3-1.1-1.3-2c0-1.2,1-2.2,2.2-2.2c1.2,0,2.2,1,2.2,2.2c0,0.9-0.5,1.6-1.3,2V29    c0.8,0.3,1.4,0.8,1.8,1.6c0.2-0.1,0.4-0.2,0.6-0.2V29.5L46.3,29.5z" class="st2"/></g><g><path d="M54.9,35c0-2-1.4-3.7-4.3-3.7c-1.9,0-4.2,1.6-4.2,5.7c0,3.2,0,6.1,0,6.1c0.8-0.5,2-1,2.6-1c0-1.8,0-5.3,0-5.6    c0-2.2,1.6-2.8,2.3-2.8c-0.4,0.4-0.7,0.8-0.7,1.5c0,1.2,0.9,2.1,2.1,2.1C53.9,37.1,54.8,36.3,54.9,35L54.9,35z" class="st3"/></g><g><path d="M31.1,35c0-2,1.4-3.7,4.3-3.7c1.9,0,4.2,1.6,4.2,5.7c0,3.2,0,6.1,0,6.1c-0.8-0.5-2-1-2.6-1c0-1.8,0-5.3,0-5.6    c0-2.2-1.6-2.8-2.3-2.8c0.4,0.4,0.7,0.8,0.7,1.5c0,1.2-1,2.1-2.1,2.1C32.1,37.1,31.2,36.3,31.1,35L31.1,35z" class="st3"/></g><g><path d="M43,49.1c4.8,0,5.9-4,6-5.1c0,0,0-1.1,0-1.4c-1.5,0.4-2.8,1.2-3.7,2.3c-0.3-1.4-1.2-2.6-2.3-3.3    c-1.1,0.8-2,1.9-2.3,3.3c-0.9-1.2-2.2-2-3.7-2.3c0,0.2,0,1.4,0,1.4C37.1,45,38.2,49.1,43,49.1L43,49.1z" class="st3"/></g><g><path d="M43.3,27.8l0,1.7c0.8,0.1,1.6,0.7,1.8,1.4c-1,0.6-1.8,1.6-2.1,2.8c-0.4-1.2-1.2-2.2-2.1-2.8    c0.3-0.7,1-1.2,1.8-1.4v-1.7c-0.7-0.2-1.2-0.8-1.2-1.5c0-0.9,0.7-1.5,1.5-1.5c0.9,0,1.5,0.7,1.5,1.5C44.5,27.1,44,27.7,43.3,27.8    L43.3,27.8z" class="st3"/></g><g><path d="M39.1,29v1.8c2.1,0.4,3.6,2.6,3.6,4.7c0,2.2,0,5.7,0,5.7c-1,0.5-1.9,1.7-2.2,2.7c-0.1-0.1-0.2-0.2-0.3-0.3    c0,0,0-4.2,0-7.3c0-2.2-1.2-4.4-3.3-5.2c0,0,0.7-0.3,1.5-0.3V29c-0.7-0.2-1.2-0.8-1.2-1.5c0-0.9,0.7-1.5,1.5-1.5    c0.9,0,1.5,0.7,1.5,1.5C40.3,28.2,39.8,28.9,39.1,29L39.1,29z" class="st3"/></g><g><path d="M47.6,29v1.7c0.9,0,1.6,0.3,1.6,0.3c-2.1,0.7-3.3,3-3.3,5.2c0,3.2,0,7.3,0,7.3c-0.1,0.1-0.2,0.2-0.3,0.3    c-0.3-1-1.3-2.1-2.3-2.7c0,0,0-3.5,0-5.7c0-2,1.5-4.3,3.6-4.7V29c-0.7-0.2-1.2-0.8-1.2-1.5c0-0.9,0.7-1.5,1.5-1.5    c0.9,0,1.5,0.7,1.5,1.5C48.8,28.2,48.3,28.9,47.6,29L47.6,29z" class="st3"/></g></g></svg>