<svg xmlns="http://www.w3.org/2000/svg" width="70" height="70" version="1.1" viewBox="0 0 70 70"><g id="surface1"><path d="M 56.816406 24.144531 C 56.367188 25.648438 55.359375 27.429688 53.824219 29.433594 L 50.519531 33.753906 L 50.484375 33.800781 L 54.601562 44.734375 C 54.753906 45.128906 54.710938 45.640625 54.5 45.964844 L 53.898438 46.910156 L 47.296875 40.316406 L 48.714844 37.140625 L 48.269531 36.695312 L 45.085938 40.867188 C 41.816406 45.128906 38.148438 47.582031 35.511719 47.289062 C 34.445312 47.167969 33.621094 46.609375 33.058594 45.625 C 31.503906 42.914062 32.410156 37.527344 35.324219 32.214844 L 35.664062 32.554688 C 34.125 35.765625 33.722656 38.84375 34.636719 40.417969 C 35 41.050781 35.511719 41.410156 36.164062 41.484375 C 37.777344 41.671875 40.058594 40.074219 42.265625 37.214844 L 43.085938 36.113281 L 32.941406 25.980469 L 33.578125 25.148438 C 34.027344 24.5625 34.65625 24.375 35.222656 24.660156 L 49.335938 31.753906 L 49.859375 31.070312 C 48.8125 30.003906 47.839844 28.089844 48.160156 26.347656 L 50.476562 23.316406 C 51.203125 22.367188 52.042969 21.683594 52.976562 21.277344 C 53.953125 20.855469 54.78125 20.847656 55.304688 20.910156 C 56.054688 21.003906 56.679688 21.320312 56.890625 21.726562 C 57.019531 21.960938 57.269531 22.660156 56.820312 24.148438 L 56.824219 24.148438 Z M 15.164062 47.3125 L 19.597656 47.3125 L 19.597656 33.816406 C 19.597656 30.359375 20.820312 28.320312 22.832031 28.320312 C 24.84375 28.320312 25.785156 30.214844 25.785156 33.71875 L 25.785156 47.308594 L 30.214844 47.308594 L 30.214844 32.582031 C 30.214844 26.1875 27.761719 22.117188 23.867188 22.117188 C 21.953125 22.117188 20.414062 23.160156 19.5 25.105469 L 19.5 22.6875 L 15.164062 22.6875 Z M 15.164062 47.3125" style="stroke:none;fill-rule:nonzero;fill:#e5212d;fill-opacity:1"/></g></svg>