<svg xmlns="http://www.w3.org/2000/svg" version="1.1" id="Layer_1" x="0px" y="0px" width="70px" height="70px" viewBox="0 0 70 70" enable-background="new 0 0 70 70" xml:space="preserve"><rect width="70" fill="#FFCB05" height="70"/><g><path fill="#FFFFFF" d="M9.391,37.223c0-14.142,11.467-25.607,25.607-25.607c14.143,0,25.61,11.465,25.61,25.607   c0,14.144-11.467,25.609-25.61,25.609C20.858,62.831,9.391,51.367,9.391,37.223z"/><path fill="none" d="M9.391,37.223   c0-14.142,11.467-25.607,25.607-25.607c14.143,0,25.61,11.465,25.61,25.607c0,14.144-11.467,25.609-25.61,25.609   C20.858,62.831,9.391,51.367,9.391,37.223z" stroke="#010101" stroke-miterlimit="3.8637" stroke-width="0.3248"/><path fill="#010101" d="M28.762,33.949c-1.238,0.01-3.224,0.211-4.221,0.239c-1.002,0.028-1.759-0.893-1.437-1.839   c0.329-0.947,1.429-4.103,5.129-7.611c4.068-3.86,7.873-5,8.5-5.164c0.629-0.163,1.521,0.043,2.161,0.55   c4.987,3.988,4.236,7.839,7.6,11.025c2.34,2.21,1.094,5.358-0.812,6.782c-2.821,2.112-11.943,5.747-14.506,6.256   c-1.938,0.383-3.276,0.052-3.601-1.009c-0.231-0.752,0.576-3.44,0.785-5.145C28.558,36.408,28.721,34.22,28.762,33.949z"/><path fill="#EB2427" d="M37.935,38.112c0.801-0.535,1.47-0.739,1.46-1.113   c-0.009-0.376-0.799-1.874-2.69-1.353c-1.89,0.522-3.276,1.396-4.202,2.64c0,0,0.561-1.165,1.307-1.885   c0.746-0.719,0.988-0.866,0.988-0.866s-1.331-0.61-2.403,0.147c-1.072,0.757-1.684,1.561-1.96,3.196   c-0.276,1.633,0.132,2.298,0.52,2.387c0.385,0.09,1.346-0.304,1.843-0.551C33.3,40.467,37.136,38.651,37.935,38.112z" clip-rule="evenodd" fill-rule="evenodd"/><path fill="#FFCC08" d="M29.57,33.896c0,0-0.036,1.863-0.427,4.078   c-0.39,2.217-1.258,4.894-0.561,5.344c1.197,0.772,4.285-0.313,8.316-2.029c4.032-1.715,7.539-2.996,8.764-4.522   c0.946-1.172,1.405-2.408,0.96-3.85c-0.321-1.051-2.069-2.343-2.482-3.036c-0.416-0.694-3.112-6.253-4.481-7.58   c-1.373-1.327-1.782-2.109-3.377-1.565c-1.59,0.545-5.49,2.434-8.108,5.346c-2.62,2.912-3.525,4.645-4.245,6.65   c-0.124,0.341,0.437,0.867,1.569,0.698c1.131-0.169,6.573-0.424,9.585,0.096c3.015,0.522,7.784,0.902,8.97,0.602   c1.178-0.3,1.707-0.537,0.976,0.183c-1.113,1.098-2.725,2.634-8.715,5.596c-1.274,0.629-5.719,2.897-6.576,2.131   c-0.645-0.575-0.088-1.989,0.314-4.475c0.303-1.891,0.469-3.676,0.469-3.676L29.57,33.896z" clip-rule="evenodd" fill-rule="evenodd"/><path fill="#010101" d="M35.8,26.468c0.131-0.262,0.717-1.112,1.242-1.236   c0.53-0.121,1.011,0.173,0.543,0.552c-0.472,0.381-0.862,0.435-1.141,0.613C36.167,26.578,35.665,26.73,35.8,26.468z" clip-rule="evenodd" fill-rule="evenodd"/><path fill="#FFCC08" d="M39.372,49.34c0,0.527-0.562,1.633-2.622,2.973   c-0.676,0.434-2.282,0.474-3.884,0.474l-0.274-0.037c-0.492-0.269-0.737-0.631-0.737-1.083c0-0.228,0.08-0.571,0.245-1.022   c0.163-0.461,0.246-0.805,0.246-1.033c0-0.041-0.027-0.104-0.083-0.185c-0.056-0.09-0.083-0.156-0.083-0.198   c0-0.123,0.394-0.354,1.177-0.69c0.8-0.334,1.337-0.503,1.612-0.503c0.787,0,1.687,0.129,2.709,0.392   C38.806,48.716,39.372,49.021,39.372,49.34z" clip-rule="evenodd" fill-rule="evenodd"/><path fill="#FFFFFF" d="M36.11,50.243c-0.31-0.236-0.649-0.298-1.34-0.413c-0.199-0.042-0.5,0.003-0.538,0.003   c0.056,0-0.028,0.021-0.246,0.062c-0.091,0.304-0.134,0.472-0.134,0.505c0,0.386,0.255,0.578,0.766,0.578   c0.251,0,0.546-0.061,0.871-0.185C35.819,50.663,36.036,50.359,36.11,50.243z"/><path fill="#FFCC08" d="M30.549,50.88c0,0.278-0.102,0.876-0.302,1.796   c-0.417,0.083-0.826,0.062-1.23,0.135c-0.491,0.091-0.918,0.136-1.283,0.136c-0.747,0-1.201-0.181-1.369-0.542   c-0.054-0.335-0.097-1.354-0.153-1.699c-0.144-0.359-1.089-0.302-1.743-0.033c-0.335,0.14-0.316,0.505-0.752,0.982   c-0.418,0.479-0.881,1.031-1.447,1.031c-1.164,0-1.725,0.096-1.98-0.1c0.018-0.272-0.015-1.213,0.255-1.805   c0.255-0.557,0.386-0.992,0.386-1.304c0-0.084-0.028-0.209-0.084-0.381c-0.037-0.172-0.056-0.3-0.056-0.383   c0-0.549,0.649-0.823,1.943-0.823c0.729,0,1.22,0.078,1.476,0.233c0.144,0.108,0.237,0.296,0.273,0.567   c0.037,0.314-0.091,0.672,0.056,0.812c0.162,0.016,0.464-0.193,0.464-0.193c0.232-0.192,0.556-0.498,1.191-0.581   c0.658-0.08,1.453-0.318,1.8-0.318c0.729,0,1.355,0.424,2.027,0.555C30.349,49.421,30.549,50.313,30.549,50.88z" clip-rule="evenodd" fill-rule="evenodd"/><path fill="#FFCC08" d="M50.274,46.645c-0.237,0.263-0.957,0.849-2.162,1.761   c-1.092,0.845-1.675,1.341-1.749,1.489c0.347,0.304,0.904,0.62,1.666,0.948c0.676,0.261,1.36,0.528,2.05,0.799   c-0.013,0.188-0.436,0.383-1.257,0.579c-0.726,0.179-1.326,0.274-1.801,0.284c-0.31-0.124-0.913-0.275-1.804-0.457   c-0.658-0.138-1.313-0.274-1.97-0.405c-0.274,0.016-0.498,0.14-0.683,0.369c-0.273,0.37-0.436,0.575-0.492,0.616   c-0.255,0.213-0.63,0.313-1.122,0.296h-0.326c-0.203-0.222-0.3-0.389-0.3-0.505c0-0.115,0.034-0.285,0.11-0.516   c0.088-0.239,0.135-0.416,0.135-0.53c0-0.124-0.047-0.307-0.135-0.555c-0.092-0.253-0.139-0.444-0.139-0.566   c0-0.236,0.07-0.467,0.217-0.688c0.459-0.107,0.892-0.525,1.313-1.257c0.328-0.647,0.654-1.296,0.982-1.943   c0.348-0.691,0.664-1.052,0.957-1.084c0.18-0.008,0.446-0.029,0.793-0.061c0.111-0.016,0.256-0.109,0.44-0.272   c0.18-0.172,0.409-0.259,0.683-0.259h1.311l0.08,0.111c-0.089,0.164-0.609,0.846-1.559,2.046c-0.673,0.858-1.011,1.545-1.011,2.053   c0,0,0.046,0.091,0.138,0.271c0.092-0.05,0.82-0.517,2.186-1.402c0.913-0.592,1.725-1.022,2.434-1.294   C49.697,46.513,50.037,46.57,50.274,46.645z" clip-rule="evenodd" fill-rule="evenodd"/></g></svg>