<svg xmlns="http://www.w3.org/2000/svg" id="Ebene_1" width="70" height="70" viewBox="0 0 606.41 603.96"><defs><style>.cls-1{fill:none}</style></defs><path d="M478.22,439v42L68.79,214.8H211v24.82l-27.91,7.49,91.74,59.65s-49.22-43.34-33.48-75.52c8.48-17.35,30.42-16.44,35.58-16.44h261L381.69,337.34l-17.9-17.08,76.37-72.37H295.05c-1.53,0-8.25-.36-10.55,4.88-10,22.67,74.83,107.2,157.75,162.3Z"/><path d="M303.2,5.24C139.32,5.24,6.46,138.1,6.46,302S139.32,598.73,303.2,598.73,600,465.89,600,302,467.09,5.24,303.2,5.24Zm0,566C154.48,571.24,33.92,450.68,33.92,302S154.48,32.71,303.2,32.71,572.48,153.27,572.48,302,451.92,571.27,303.2,571.27Z"/><rect width="1145.13" height="1008.96" x="-273.7" y="-198" class="cls-1"/></svg>