<svg xmlns="http://www.w3.org/2000/svg" version="1.1" width="70px" height="70px" viewBox="0 0 70 70"><g id="surface1"><path d="M 64.898438 24.5 L 64.898438 35.398438 C 64.898438 41.199219 59.800781 45.898438 53.601562 45.898438 C 47.398438 45.898438 42.300781 41.199219 42.300781 35.398438 L 42.300781 32.898438 C 42.300781 31 40.5 29.300781 38.398438 29.300781 C 36.300781 29.300781 34.5 31 34.5 33 L 34.5 38.199219 C 34.5 42.5 31 46 26.699219 46 C 22.398438 46 18.898438 42.5 18.898438 38.199219 L 18.898438 33 C 18.898438 31 17.199219 29.300781 15 29.300781 C 12.800781 29.300781 11 31 11 33 L 11 43 C 11 44.699219 9.699219 46 8 46 C 6.300781 46 5.101562 44.699219 5.101562 43 L 5.101562 33.300781 C 5.101562 28.199219 9.699219 24 14.898438 24 C 20.101562 24 24.699219 28.199219 24.699219 33.300781 L 24.699219 38.800781 C 24.699219 39.898438 25.601562 40.800781 26.699219 40.800781 C 27.800781 40.800781 28.699219 39.898438 28.699219 38.800781 L 28.699219 33.300781 C 28.699219 28.199219 33.300781 24 38.5 24 C 43.699219 24 48.300781 28.199219 48.300781 33.300781 L 48.300781 36.101562 C 48.398438 38.601562 50.800781 40.601562 53.699219 40.601562 C 56.601562 40.601562 59 38.601562 59 36 L 59 24.5 Z M 64.898438 24.5 " style=" stroke:none;fill-rule:nonzero;fill:rgb(27.45098%,30.588235%,28.235294%);fill-opacity:1;"/></g></svg>