<svg xmlns="http://www.w3.org/2000/svg" version="1.1" width="70px" height="70px" viewBox="0 0 70 70"><g id="surface1"><path d="M 17.800781 47.199219 C 17.800781 47.199219 -1.898438 31.800781 15.101562 14.5 C 15.699219 21.101562 20.101562 25.101562 28 26.101562 C 18.800781 29.601562 13.101562 38.199219 17.800781 47.199219 Z M 17.800781 47.199219 " style=" stroke:none;fill-rule:nonzero;fill:rgb(28.627451%,15.686275%,43.529412%);fill-opacity:1;"/><path d="M 18.601562 40.800781 C 18.601562 40.800781 17.699219 31.699219 30.101562 27.199219 C 35.601562 29.199219 35.5 37.300781 34 40.199219 C 26.199219 44.199219 18.601562 40.800781 18.601562 40.800781 Z M 18.601562 40.800781 " style=" stroke:none;fill-rule:nonzero;fill:rgb(49.803922%,32.156863%,62.745098%);fill-opacity:1;"/><path d="M 22.199219 20 C 16.199219 18.398438 16.699219 11 24.5 7 C 32.300781 2.898438 49.101562 2.699219 61.101562 21.601562 C 54 16 46.101562 11.5 37.398438 12.300781 C 28.699219 13.101562 31 22.300781 22.199219 20 Z M 22.199219 20 " style=" stroke:none;fill-rule:nonzero;fill:rgb(28.627451%,15.686275%,43.529412%);fill-opacity:1;"/><path d="M 38.5 15.699219 C 38.5 15.699219 48.601562 14.699219 56.601562 21.5 C 63.898438 27.699219 61.398438 39.601562 61.398438 39.601562 C 61.398438 39.601562 59.300781 23 38.5 15.699219 Z M 38.5 15.699219 " style=" stroke:none;fill-rule:nonzero;fill:rgb(35.294118%,78.039216%,86.666667%);fill-opacity:1;"/><path d="M 41.101562 20.898438 C 41.101562 20.898438 53 23.898438 57.601562 38 C 61.398438 49.5 53.699219 58.398438 53.699219 58.398438 C 53.699219 58.398438 58.5 36.699219 41.101562 20.898438 Z M 41.101562 20.898438 " style=" stroke:none;fill-rule:nonzero;fill:rgb(100%,77.254902%,3.921569%);fill-opacity:1;"/><path d="M 40.800781 26.601562 C 40.800781 26.601562 51 33.398438 50.5 47.800781 C 50.199219 59.601562 39.898438 65.199219 39.898438 65.199219 C 39.898438 65.199219 51.800781 47 40.800781 26.601562 Z M 40.800781 26.601562 " style=" stroke:none;fill-rule:nonzero;fill:rgb(93.333333%,35.294118%,16.078431%);fill-opacity:1;"/><path d="M 36.101562 28.5 C 36.101562 28.5 41 32.898438 41.601562 45.101562 C 42.199219 57.601562 33 66.800781 25 64.5 C 34.5 59.5 40 42.300781 36.101562 28.5 Z M 36.101562 28.5 " style=" stroke:none;fill-rule:nonzero;fill:rgb(56.078431%,78.431373%,47.843137%);fill-opacity:1;"/><path d="M 38.898438 20.398438 C 38.898438 21.78125 37.78125 22.898438 36.398438 22.898438 C 35.019531 22.898438 33.898438 21.78125 33.898438 20.398438 C 33.898438 19.019531 35.019531 17.898438 36.398438 17.898438 C 37.78125 17.898438 38.898438 19.019531 38.898438 20.398438 Z M 38.898438 20.398438 " style=" stroke:none;fill-rule:nonzero;fill:rgb(3.921569%,10.980392%,19.215686%);fill-opacity:1;"/></g></svg>