<svg xmlns="http://www.w3.org/2000/svg" id="Layer_1" width="70" height="70" x="0" y="0" enable-background="new 0 0 70 70" version="1.1" viewBox="0 0 70 70" xml:space="preserve"><g><g><defs><rect id="SVGID_1_" width="70" height="70"/></defs><use xmlns:xlink="http://www.w3.org/1999/xlink" fill="#D81E3A" overflow="visible" xlink:href="#SVGID_1_"/><clipPath id="SVGID_2_"><use xmlns:xlink="http://www.w3.org/1999/xlink" overflow="visible" xlink:href="#SVGID_1_"/></clipPath><rect width="70" height="2.835" y="67.165" fill="#D81E3A" clip-path="url(#SVGID_2_)"/></g><g><defs><rect id="SVGID_3_" width="70" height="70"/></defs><use xmlns:xlink="http://www.w3.org/1999/xlink" fill="#D81E3A" overflow="visible" xlink:href="#SVGID_3_"/><clipPath id="SVGID_4_"><use xmlns:xlink="http://www.w3.org/1999/xlink" overflow="visible" xlink:href="#SVGID_3_"/></clipPath><rect width="70" height="65.195" fill="#D81E3A" clip-path="url(#SVGID_4_)"/></g></g><g><g><defs><rect id="SVGID_5_" width="56.457" height="13.377" x="8.829" y="28.311"/></defs><clipPath id="SVGID_6_"><use xmlns:xlink="http://www.w3.org/1999/xlink" overflow="visible" xlink:href="#SVGID_5_"/></clipPath><path fill="#033D4E" d="M59.112,37.538c-4.988,2.564-9.889,4.151-12.261,3.663 c-2.075-0.419-1.064-3.279,1.901-5.616h0.61c-2.337,1.971-2.512,4.43-1.029,4.622c1.692,0.209,6.017-0.733,10.43-2.756 L59.112,37.538z" clip-path="url(#SVGID_6_)"/></g><g><defs><rect id="SVGID_7_" width="56.457" height="13.377" x="8.829" y="28.311"/></defs><clipPath id="SVGID_8_"><use xmlns:xlink="http://www.w3.org/1999/xlink" overflow="visible" xlink:href="#SVGID_7_"/></clipPath><path fill="#033D4E" d="M64.292,33.98c0.14,0,0.279,0.035,0.401,0.052 c0.087,0.035,0.122,0.035,0.192,0.07c0.035,0.017,0.07,0.017,0.087,0.052c0.035,0.035,0.035,0.052,0.052,0.087 c0.017,0.105-0.035,0.192-0.087,0.279c-0.174,0.279-0.453,0.488-0.715,0.698c-0.279,0.209-0.576,0.401-0.855,0.593 c-0.052,0.035-0.122,0.07-0.174,0.105c0.052,0.035,0.087,0.035,0.14,0.07l0,0c0.017,0.017,0.035,0.017,0.052,0.035 c0.07-0.035,0.122-0.07,0.227-0.122c0.087-0.052,0.157-0.052,0.227-0.035c0.07,0.017,0.14,0.105,0.157,0.174 c0.035,0.105,0.017,0.192-0.017,0.297c0.366,0.174,0.715,0.331,1.064,0.506c0.087,0.052,0.157,0.07,0.244,0.122 c0.035,0.052-0.035,0.105-0.07,0.157c-0.122,0.07-0.244,0.157-0.401,0.174c-0.157-0.035-0.297-0.07-0.453-0.105 c-0.244-0.052-0.453-0.105-0.698-0.14c-0.174-0.035-0.366-0.07-0.558-0.105c-0.14-0.017-0.262-0.052-0.401-0.052 c-0.174-0.017-0.349-0.017-0.541-0.035c-0.227,0-0.436-0.017-0.663-0.035c-0.349,0.157-0.663,0.314-1.046,0.436 c-0.244,0.087-0.488,0.174-0.733,0.244c0.087,0.105,0.209,0.157,0.244,0.279c0,0.017-0.017,0.035-0.035,0.035 c-0.052,0.017-0.07,0.035-0.157,0.052c-0.244-0.052-0.488-0.122-0.733-0.192L58.99,37.66c-0.122,0.035-0.297,0.14-0.401,0 c-0.017-0.035-0.017-0.07-0.017-0.105s-0.035-0.035-0.052-0.052c-0.052-0.035-0.07-0.035-0.105-0.052 c-0.07-0.017-0.14-0.052-0.227-0.07c-0.174-0.052-0.314-0.087-0.471-0.157c-0.035-0.017-0.052-0.07-0.017-0.122 c0.087-0.07,0.227-0.105,0.331-0.07c0.105,0.017,0.244,0.017,0.331,0.035l0,0c-0.14-0.14-0.262-0.279-0.401-0.419 c-0.017-0.035-0.052-0.052-0.052-0.105c0-0.035,0.035-0.052,0.052-0.087c0.035-0.017,0.052-0.017,0.07-0.035 c0.105-0.052,0.14-0.087,0.227-0.07c0.244,0.105,0.453,0.209,0.733,0.331c0.052,0.017,0.105,0.07,0.174,0.052 c0.07-0.035,0.105-0.052,0.174-0.087c0.017-0.017,0.105-0.052,0.14-0.087c0.087-0.052,0.157-0.105,0.227-0.157 c0.157-0.105,0.262-0.174,0.384-0.262c-0.209-0.087-0.419-0.209-0.628-0.297c-0.209-0.052-0.279-0.087-0.488-0.14 c-0.122-0.035-0.297-0.07-0.314-0.07c-0.279-0.07-0.349-0.087-0.61-0.157c-0.122-0.052-0.262-0.052-0.384-0.122 c-0.017-0.017-0.017-0.035,0-0.07c0.035-0.07,0.122-0.105,0.174-0.157c0.087-0.052,0.157-0.122,0.244-0.14 c0.192-0.017,0.349,0.017,0.558,0.052c0.244,0.017,0.506,0.052,0.75,0.105c0.314,0.035,0.663,0.07,0.994,0.122 c0.035,0,0.052,0.017,0.087,0.017c0.017,0.017,0.052,0,0.087,0.017c0.035,0,0.052,0,0.087,0.017 c0.14-0.122,0.314-0.262,0.506-0.314c0.105-0.017,0.227,0.07,0.279,0.14c0.366-0.262,0.715-0.506,1.099-0.715 c0.366-0.192,0.698-0.349,0.994-0.419c0.209-0.052,0.419-0.105,0.628-0.105C64.222,33.997,64.257,33.98,64.292,33.98" clip-path="url(#SVGID_8_)"/></g><g><defs><rect id="SVGID_9_" width="56.457" height="13.377" x="8.829" y="28.311"/></defs><clipPath id="SVGID_10_"><use xmlns:xlink="http://www.w3.org/1999/xlink" overflow="visible" xlink:href="#SVGID_9_"/></clipPath><path fill="#FFF" d="M64.502,34.206c-0.174,0.035-0.279,0.07-0.471,0.157 c-0.157,0.07-0.436,0.174-0.645,0.279c-0.314,0.157-0.576,0.297-0.924,0.523c-0.122,0.07-0.384,0.296-0.384,0.296 c-0.192-0.017-0.384-0.035-0.558-0.052l0.035-0.017c0.244-0.209,0.471-0.331,0.733-0.506c0.244-0.14,0.593-0.331,0.889-0.471 c0.262-0.105,0.541-0.192,0.82-0.227C64.188,34.172,64.345,34.154,64.502,34.206" clip-path="url(#SVGID_10_)"/></g><g><defs><rect id="SVGID_11_" width="56.457" height="13.377" x="8.829" y="28.311"/></defs><clipPath id="SVGID_12_"><use xmlns:xlink="http://www.w3.org/1999/xlink" overflow="visible" xlink:href="#SVGID_11_"/></clipPath><path fill="#FFF" d="M60.821,35.462c0.052-0.035,0.087-0.07,0.14-0.105 c0.052-0.035,0.087-0.052,0.122-0.07c-0.035,0.087-0.017,0.122,0.017,0.209c0.017,0.052,0.052,0.07,0.052,0.105 c-0.105,0.07-0.209,0.157-0.331,0.209c-0.035-0.035-0.052-0.07-0.07-0.105c-0.017-0.087-0.017-0.157,0.017-0.209L60.821,35.462z" clip-path="url(#SVGID_12_)"/></g><g><defs><rect id="SVGID_13_" width="56.457" height="13.377" x="8.829" y="28.311"/></defs><clipPath id="SVGID_14_"><use xmlns:xlink="http://www.w3.org/1999/xlink" overflow="visible" xlink:href="#SVGID_13_"/></clipPath><path fill="#FFF" d="M60.612,36.421c-0.14,0.087-0.297,0.157-0.436,0.227 c-0.279,0.157-0.593,0.331-1.012,0.506c-0.105,0.052-0.227,0.07-0.349,0.052c-0.087-0.017-0.087,0-0.174-0.017 c-0.157-0.157-0.314-0.314-0.471-0.453c-0.017-0.035-0.052-0.052-0.07-0.07l0.105-0.052h0.035 c0.227,0.105,0.366,0.174,0.593,0.279c0.087,0.035,0.174,0.087,0.262,0.122c0.105,0.017,0.157-0.035,0.244-0.07l0.07-0.035 c0.122-0.087,0.174-0.105,0.244-0.157c0.244-0.157,0.419-0.262,0.645-0.401l0.052-0.035 C60.455,36.352,60.508,36.387,60.612,36.421" clip-path="url(#SVGID_14_)"/></g><g><defs><rect id="SVGID_15_" width="56.457" height="13.377" x="8.829" y="28.311"/></defs><clipPath id="SVGID_16_"><use xmlns:xlink="http://www.w3.org/1999/xlink" overflow="visible" xlink:href="#SVGID_15_"/></clipPath><path fill="#FFF" d="M8.829,29.846h1.57v0.419c0.767-0.68,1.762-0.68,2.407-0.296 c0.698,0.419,0.698,1.099,0.698,1.814v2.198h-1.57v-1.762c0-0.384,0.035-0.907-0.366-1.169c-0.192-0.122-0.593-0.122-0.802,0.052 c-0.401,0.296-0.349,0.628-0.349,1.221v1.657h-1.57v-4.134H8.829z" clip-path="url(#SVGID_16_)"/></g><g><defs><rect id="SVGID_17_" width="56.457" height="13.377" x="8.829" y="28.311"/></defs><clipPath id="SVGID_18_"><use xmlns:xlink="http://www.w3.org/1999/xlink" overflow="visible" xlink:href="#SVGID_17_"/></clipPath><path fill="#FFF" d="M16.678,30.84c0.244-0.052,0.645,0,0.889,0.279 c0.227,0.262,0.314,0.645,0.279,0.942c-0.035,0.297-0.209,0.61-0.506,0.785c-0.279,0.14-0.68,0.14-0.959-0.07 c-0.262-0.192-0.401-0.506-0.419-0.802c-0.017-0.279,0.052-0.645,0.331-0.924C16.434,30.91,16.556,30.858,16.678,30.84 M15.405,30.055c-0.663,0.366-0.994,0.924-1.064,1.605c-0.07,0.541,0.052,1.203,0.506,1.692c0.82,0.855,2.285,0.872,3.105,0.61 c0.68-0.244,1.238-0.628,1.482-1.5c0.157-0.576,0.087-1.186-0.296-1.727c-0.68-1.012-2.075-1.081-2.651-1.012 C16.172,29.759,15.754,29.864,15.405,30.055" clip-path="url(#SVGID_18_)"/></g><g><defs><rect id="SVGID_19_" width="56.457" height="13.377" x="8.829" y="28.311"/></defs><clipPath id="SVGID_20_"><use xmlns:xlink="http://www.w3.org/1999/xlink" overflow="visible" xlink:href="#SVGID_19_"/></clipPath><path fill="#FFF" d="M27.614,31.765c-0.017,0.105-0.017,0.14-0.14,0.419l-0.593,1.814h-1.622 l-1.57-4.134h1.727l0.541,1.727c0.087,0.314,0.122,0.384,0.122,0.471c0-0.087,0.017-0.157,0.105-0.471l0.558-1.727h1.709 l0.541,1.727c0.087,0.314,0.105,0.384,0.105,0.471c0-0.087,0.017-0.157,0.122-0.471l0.541-1.727h1.727l-1.57,4.134h-1.622 l-0.576-1.796C27.648,31.887,27.631,31.852,27.614,31.765" clip-path="url(#SVGID_20_)"/></g><g><defs><rect id="SVGID_21_" width="56.457" height="13.377" x="8.829" y="28.311"/></defs><clipPath id="SVGID_22_"><use xmlns:xlink="http://www.w3.org/1999/xlink" overflow="visible" xlink:href="#SVGID_21_"/></clipPath><path fill="#FFF" d="M35.41,31.398h-1.866c0.122-0.453,0.384-0.61,0.698-0.663 C34.59,30.666,35.166,30.771,35.41,31.398 M36.491,30.491c-0.75-0.872-2.267-0.907-3-0.68c-0.698,0.209-1.256,0.593-1.5,1.482 c-0.174,0.663-0.105,1.273,0.279,1.849c0.733,1.064,2.163,1.012,2.843,0.907c0.506-0.087,1.465-0.366,1.796-1.291l0.017-0.035 l-1.552-0.174c-0.052,0.07-0.07,0.122-0.244,0.244c-0.262,0.192-0.82,0.157-1.064,0.07c-0.262-0.105-0.488-0.419-0.506-0.628 h3.488v-0.07C37.049,31.643,36.892,30.962,36.491,30.491" clip-path="url(#SVGID_22_)"/></g><g><defs><rect id="SVGID_23_" width="56.457" height="13.377" x="8.829" y="28.311"/></defs><clipPath id="SVGID_24_"><use xmlns:xlink="http://www.w3.org/1999/xlink" overflow="visible" xlink:href="#SVGID_23_"/></clipPath><path fill="#FFF" d="M39.84,31.05c0.209-0.052,0.663-0.017,0.889,0.227 c0.157,0.157,0.227,0.331,0.209,0.541c-0.017,0.192-0.122,0.401-0.296,0.523c-0.262,0.174-0.715,0.157-0.977,0.017 c-0.192-0.105-0.331-0.244-0.366-0.488c-0.017-0.157,0.017-0.401,0.157-0.576C39.543,31.172,39.665,31.102,39.84,31.05 M37.834,34.154c0.017,0.314,0.105,0.523,0.157,0.593c0.401,0.715,1.116,0.872,2.006,0.872c0.889,0,1.587-0.052,2.093-0.645 c0.453-0.541,0.401-1.203,0.401-1.831v-3.296h-1.57v0.366c-0.349-0.331-0.715-0.453-0.994-0.488 c-0.576-0.105-1.36,0.122-1.849,0.75c-0.401,0.506-0.471,1.256-0.384,1.762c0.105,0.628,0.419,1.081,1.012,1.413 c0.628,0.331,1.639,0.262,2.215-0.227c0,0.174,0,0.558-0.052,0.715c-0.105,0.244-0.331,0.331-0.523,0.366 c-0.157,0.017-0.628,0.105-0.802-0.192c-0.017-0.052-0.052-0.087-0.052-0.14h-1.657V34.154z" clip-path="url(#SVGID_24_)"/></g><g><defs><rect id="SVGID_25_" width="56.457" height="13.377" x="8.829" y="28.311"/></defs><clipPath id="SVGID_26_"><use xmlns:xlink="http://www.w3.org/1999/xlink" overflow="visible" xlink:href="#SVGID_25_"/></clipPath><path fill="#FFF" d="M43.677,28.311h1.57v1.046h-1.57V28.311z M43.677,29.864h1.57v4.134h-1.57 V29.864z" clip-path="url(#SVGID_26_)"/></g><g><defs><rect id="SVGID_27_" width="56.457" height="13.377" x="8.829" y="28.311"/></defs><clipPath id="SVGID_28_"><use xmlns:xlink="http://www.w3.org/1999/xlink" overflow="visible" xlink:href="#SVGID_27_"/></clipPath><path fill="#FFF" d="M49.467,32.166c-0.157,0.523-0.436,0.698-0.855,0.767 c-0.227,0.035-0.593,0.07-0.785-0.244c-0.035-0.052-0.07-0.227-0.035-0.297c0.105-0.227,0.331-0.209,0.82-0.209L49.467,32.166z M47.845,31.015c0.017-0.105,0.07-0.174,0.157-0.244c0.209-0.157,0.959-0.122,1.169-0.017c0.227,0.122,0.279,0.296,0.297,0.576 c0,0-0.488-0.035-0.82-0.017c-0.384,0.017-0.558,0.035-0.907,0.087c-0.68,0.087-1.378,0.209-1.552,1.029 c-0.122,0.576,0.052,1.099,0.593,1.43l0.052,0.035c0.785,0.331,1.796,0.209,2.686-0.297c0,0,0,0.244,0.07,0.384h1.814 c-0.192-0.192-0.279-0.471-0.279-0.855v-1.762c0-0.349,0.035-0.785-0.192-1.064c-0.366-0.506-1.046-0.593-2.25-0.593 c-0.959,0-1.639,0.052-1.988,0.558c-0.174,0.244-0.227,0.453-0.227,0.785h1.378V31.015z" clip-path="url(#SVGID_28_)"/></g><g><defs><rect id="SVGID_29_" width="56.457" height="13.377" x="8.829" y="28.311"/></defs><clipPath id="SVGID_30_"><use xmlns:xlink="http://www.w3.org/1999/xlink" overflow="visible" xlink:href="#SVGID_29_"/></clipPath><path fill="#FFF" d="M52.223,29.846h1.57v0.419c0.767-0.68,1.762-0.68,2.407-0.296 c0.698,0.419,0.698,1.099,0.698,1.814v2.198h-1.57v-1.762c0-0.384,0.035-0.907-0.366-1.169c-0.192-0.122-0.576-0.122-0.802,0.052 c-0.401,0.296-0.349,0.628-0.349,1.221v1.657h-1.57v-4.134H52.223z" clip-path="url(#SVGID_30_)"/></g><g><defs><rect id="SVGID_31_" width="56.457" height="13.377" x="8.829" y="28.311"/></defs><clipPath id="SVGID_32_"><use xmlns:xlink="http://www.w3.org/1999/xlink" overflow="visible" xlink:href="#SVGID_31_"/></clipPath><path fill="#FFF" d="M23.184,29.794v1.622c-0.488,0-0.802,0.07-1.116,0.279v2.302h-1.57v-4.134 h1.57v0.471c0.105-0.14,0.262-0.314,0.541-0.436C22.695,29.846,22.992,29.794,23.184,29.794" clip-path="url(#SVGID_32_)"/></g></g></svg>