<svg xmlns="http://www.w3.org/2000/svg" version="1.1" id="Layer_1" x="0px" y="0px" width="70px" height="70px" viewBox="0 0 70 70" enable-background="new 0 0 70 70" xml:space="preserve"><metadata/><rect width="70" fill="none" height="70"/><path id="path401_1_" fill="#F89921" d="M1.7,35c0-18.4,15-33.4,33.4-33.4s33.4,15,33.4,33.4c0,18.5-15,33.4-33.4,33.4   S1.7,53.4,1.7,35"/><path id="path401" fill="#271E10" d="M1.4,35.1c0-18.6,15.1-33.7,33.7-33.7s33.7,15.1,33.7,33.7S53.7,68.8,35.1,68.8   S1.4,53.7,1.4,35.1 M35.1,2C15.5,2,3.5,19.2,3.5,35c0,13.7,9.7,31.8,31.7,31.5c14.6-0.1,29.3-12,29.3-31.5   C64.5,18.4,53,7.7,41.2,7.7c-11.8,0-18.5,10.8-18.5,12.4c0,0,0.2,0.1,0.7-0.2c2.2-3.3,7-10.9,17.5-10.8c6.6,0,21.399,4.5,21.399,26   c0,17.8-14.7,29.5-30.2,29.4C13,64.3,4.9,45,4.9,35C4.9,30.7,6.7,4.2,35.1,2z M47.9,5.2C45.7,4.1,43.1,2.6,37.1,2.6   C21.7,2.6,6.6,14.5,6.5,35c0,11.6,10.2,26.8,24.6,26.9C39.4,62,58,56,57.9,34.4c-0.101-14.5-10.5-20.5-17-20.5   c-4.801,0-8.5,2.9-10.8,7c0.6,1.2,3.4-0.3,6.5-3.5c0.7,0.1,0.801,0.7,0.5,1.3c-0.3,0.6-1.199,8.5-6.1,9.5l0.2,0.2   c0,0,4.3-0.9,5.1-5.9c2.601,0.1,14.3,3,19.7,9.8c2.5,15.601-9.5,25.2-18.6,27.9c-1-1.7-1-3.2-1.2-4.101C36,55.2,34.4,45,27.8,42.6   c-1.3,0.301-3.1,4.7-4.6,5c0,0-0.5-0.5,2.5-3.399c0.4-0.4,0.3-1,0.3-1h-0.7c0,0,0.2-0.9,0.5-1.2c0.3-0.2,1.1-1.3,0.3-2.2   c-0.2-0.2,0.6-1.2,0.4-2.899c-0.1-0.601,0.2-1.601,0.3-2.2c0.2-1.4-0.9-1.6-1.6-0.8c-0.7,0.7-1.2,3-1.3,3.4   c-0.2,0.4-1.2,2.4-1.2,2.9c-0.1,0.5-1.1,5.6-1.2,6C21.3,46.6,20.6,46.6,20.6,46.6S20,45.8,20,45.3c0-0.399,0.8-1.3,1-1.899   c0.3-1,0-1.301-0.4-0.7c-0.4,0.6-0.7,2.3-1.7,2.7C18.5,45.6,17.3,44.6,17.1,45.1c-0.1,0.2-0.7,1.601-0.2,1.4   c0.3-0.1-0.1-0.5,0.9-0.9c0.3-0.1,1.2,2.101,0.8,2.7c-0.4,0.601-0.9,0.2-0.9,0.2s0.2,1.7,0,1.9C17.5,50.6,16.8,51.1,16.3,50.8   s-1.7-2.3-1.7-4c0-0.6,2.7-11.2,2.4-13.2c-0.1-0.4,0.4,1.7,0.5,0.4c0-0.7-0.7-2.2-1.2-3.1c-0.3-0.5-0.7-0.8-0.7-0.8v-0.8   c0,0-1.6-0.6-0.5-8c0.1-0.6,0.8-0.1,1-0.6C20.3,6.7,31.4,3.8,39,3.8C40.3,3.8,43.6,3.8,47.9,5.2z M20.1,30.6   c0.4,1.7,0.2,4.1,0.5,4.1c0.3,0.1,0.3-1.2,0.7-0.7c0.3,0.4,0.6,1,0.8,0.8c0.5-0.5-0.4-4-0.2-4.3c0.2-0.3,0.1-1.7,0.1-1.7l-1-0.4   C20.6,28.4,19.9,29.9,20.1,30.6z M23.9,30.8c0,0,0.1,0.7,1.2,0.7c0.5,0,1.7-0.5,2.5-1.1c-0.3-0.4-2.2-1.3-2.6-1.2   c-1.5,0.1-2.3,2-1.7,2C23.6,31.1,23.9,30.8,23.9,30.8z"/></svg>