<svg xmlns="http://www.w3.org/2000/svg" version="1.1" width="70px" height="70px" viewBox="0 0 70 70"><g id="surface1"><path d="M 50.746094 29.011719 L 49.363281 21.535156 L 47.792969 30.910156 L 51.097656 30.910156 Z M 62.878906 59.304688 L 63.894531 59.136719 C 63.941406 59.917969 64.054688 60.554688 64.230469 61.058594 C 64.40625 61.558594 64.679688 61.960938 65.050781 62.269531 C 65.417969 62.578125 65.835938 62.734375 66.296875 62.734375 C 66.707031 62.734375 67.070312 62.617188 67.386719 62.382812 C 67.699219 62.148438 67.933594 61.832031 68.085938 61.417969 C 68.242188 61.011719 68.320312 60.566406 68.320312 60.082031 C 68.320312 59.59375 68.246094 59.167969 68.09375 58.800781 C 67.945312 58.433594 67.703125 58.128906 67.363281 57.878906 C 67.144531 57.71875 66.664062 57.460938 65.914062 57.117188 C 65.167969 56.773438 64.644531 56.449219 64.34375 56.144531 C 63.957031 55.753906 63.664062 55.265625 63.476562 54.691406 C 63.285156 54.109375 63.191406 53.464844 63.191406 52.746094 C 63.191406 51.960938 63.304688 51.222656 63.539062 50.539062 C 63.773438 49.851562 64.113281 49.332031 64.5625 48.976562 C 65.007812 48.621094 65.503906 48.445312 66.054688 48.445312 C 66.65625 48.445312 67.1875 48.628906 67.648438 49.003906 C 68.109375 49.375 68.464844 49.925781 68.710938 50.648438 C 68.957031 51.371094 69.09375 52.195312 69.113281 53.109375 L 68.078125 53.257812 C 68.023438 52.269531 67.835938 51.523438 67.515625 51.023438 C 67.195312 50.515625 66.722656 50.265625 66.097656 50.265625 C 65.445312 50.265625 64.972656 50.496094 64.671875 50.953125 C 64.375 51.414062 64.226562 51.960938 64.226562 52.605469 C 64.226562 53.171875 64.332031 53.632812 64.542969 53.992188 C 64.75 54.355469 65.292969 54.726562 66.167969 55.105469 C 67.042969 55.488281 67.640625 55.816406 67.96875 56.101562 C 68.441406 56.523438 68.792969 57.050781 69.015625 57.691406 C 69.242188 58.335938 69.355469 59.078125 69.355469 59.914062 C 69.355469 60.742188 69.230469 61.527344 68.984375 62.261719 C 68.734375 62.992188 68.378906 63.566406 67.914062 63.976562 C 67.453125 64.382812 66.929688 64.585938 66.347656 64.585938 C 65.613281 64.585938 64.996094 64.382812 64.496094 63.96875 C 64 63.558594 63.609375 62.9375 63.324219 62.113281 C 63.042969 61.285156 62.894531 60.347656 62.878906 59.304688 M 55.6875 64.324219 L 55.6875 48.710938 L 61.570312 48.710938 L 61.570312 50.554688 L 56.761719 50.554688 L 56.761719 55.332031 L 61.265625 55.332031 L 61.265625 57.164062 L 56.761719 57.164062 L 56.761719 62.480469 L 61.757812 62.480469 L 61.757812 64.324219 Z M 47.445312 64.324219 L 47.445312 48.710938 L 48.550781 48.710938 L 52.824219 60.96875 L 52.824219 48.710938 L 53.855469 48.710938 L 53.855469 64.324219 L 52.75 64.324219 L 48.476562 52.054688 L 48.476562 64.324219 Z M 44.480469 48.710938 L 45.558594 48.710938 L 45.558594 64.324219 L 44.480469 64.324219 Z M 37.929688 64.324219 L 37.929688 48.710938 L 39.007812 48.710938 L 39.007812 62.480469 L 43.015625 62.480469 L 43.015625 64.324219 Z M 30.859375 55.601562 L 33.175781 55.601562 C 33.667969 55.601562 34.050781 55.503906 34.328125 55.308594 C 34.605469 55.113281 34.816406 54.796875 34.960938 54.371094 C 35.105469 53.941406 35.179688 53.476562 35.179688 52.96875 C 35.179688 52.230469 35.039062 51.625 34.757812 51.148438 C 34.480469 50.675781 34.039062 50.4375 33.433594 50.4375 L 30.859375 50.4375 Z M 29.785156 64.324219 L 29.785156 48.710938 L 33.390625 48.710938 C 34.117188 48.710938 34.667969 48.851562 35.046875 49.132812 C 35.421875 49.410156 35.722656 49.90625 35.949219 50.617188 C 36.175781 51.328125 36.289062 52.113281 36.289062 52.96875 C 36.289062 54.078125 36.101562 55.007812 35.726562 55.769531 C 35.355469 56.53125 34.777344 57.015625 33.996094 57.21875 C 34.28125 57.480469 34.496094 57.742188 34.644531 57.996094 C 34.960938 58.546875 35.257812 59.246094 35.539062 60.070312 L 36.957031 64.324219 L 35.601562 64.324219 L 34.523438 61.074219 C 34.210938 60.136719 33.949219 59.417969 33.746094 58.921875 C 33.542969 58.425781 33.359375 58.078125 33.199219 57.878906 C 33.039062 57.683594 32.875 57.542969 32.710938 57.460938 C 32.585938 57.414062 32.386719 57.390625 32.109375 57.390625 L 30.859375 57.390625 L 30.859375 64.324219 Z M 26.792969 48.710938 L 27.871094 48.710938 L 27.871094 64.324219 L 26.792969 64.324219 Z M 20.480469 57.910156 L 23.242188 57.910156 L 22.390625 53.589844 C 22.132812 52.273438 21.941406 51.195312 21.816406 50.351562 C 21.710938 51.351562 21.566406 52.34375 21.375 53.332031 Z M 8.335938 36.402344 L 7.4375 43.613281 L 9.25 43.613281 Z M 6.472656 42.796875 C 5.800781 43.023438 4.890625 44.394531 3.96875 46.738281 C 2.355469 50.835938 1.3125 56.363281 1.636719 59.082031 C 1.960938 61.800781 3.535156 60.683594 5.144531 56.589844 C 6.214844 53.871094 7.035156 50.519531 7.371094 47.78125 L 5.851562 47.78125 Z M 3.816406 42.25 C 4.964844 39.621094 6.105469 38.457031 6.96875 38.816406 L 6.589844 41.839844 L 7.019531 38.414062 C 6.546875 34.980469 6.230469 29.730469 6.195312 23.785156 C 4.78125 27.261719 3.816406 34.132812 3.816406 42.039062 Z M 10.75 59.355469 C 9.539062 55.953125 8.664062 51.628906 8.335938 47.78125 L 8.296875 47.78125 C 7.964844 51.644531 7.082031 55.988281 5.867188 59.398438 C 6.566406 61.496094 7.402344 62.714844 8.300781 62.714844 C 9.203125 62.714844 10.042969 61.476562 10.75 59.355469 M 10.449219 23.898438 C 10.410156 29.738281 10.105469 34.898438 9.644531 38.308594 L 9.128906 34.253906 C 9.394531 31.433594 9.5625 27.207031 9.5625 22.480469 C 9.5625 13.992188 9.019531 7.105469 8.34375 7.105469 C 7.671875 7.105469 7.125 13.992188 7.125 22.480469 C 7.125 27.144531 7.289062 31.320312 7.550781 34.140625 L 7.238281 36.632812 L 8.328125 27.925781 L 10.84375 47.78125 L 9.261719 47.78125 C 9.597656 50.519531 10.417969 53.871094 11.484375 56.589844 C 13.097656 60.683594 14.667969 61.800781 14.992188 59.085938 C 15.316406 56.363281 14.273438 50.835938 12.664062 46.738281 C 11.765625 44.460938 10.878906 43.101562 10.214844 42.820312 L 9.703125 38.800781 C 10.554688 38.496094 11.664062 39.644531 12.78125 42.179688 L 12.78125 42.039062 C 12.78125 34.21875 11.839844 27.410156 10.449219 23.898438 M 8.324219 2.714844 C 9.367188 2.714844 10.234375 9.726562 10.417969 18.984375 C 12.375 22.753906 13.746094 31.660156 13.746094 42.039062 C 13.746094 42.917969 13.738281 43.789062 13.71875 44.644531 C 15.457031 49.890625 16.417969 56.984375 15.90625 61.285156 C 15.390625 65.589844 13.574219 65.621094 11.6875 61.652344 C 10.761719 65.011719 9.597656 67.023438 8.332031 67.023438 C 7.058594 67.023438 5.890625 65 4.964844 61.609375 C 3.070312 65.621094 1.242188 65.601562 0.726562 61.285156 C 0.210938 56.957031 1.1875 49.8125 2.941406 44.554688 C 2.925781 43.730469 2.914062 42.886719 2.914062 42.039062 C 2.914062 31.6875 4.28125 22.804688 6.226562 19.015625 C 6.410156 9.738281 7.28125 2.714844 8.324219 2.714844 M 18.132812 64.324219 L 21.257812 48.710938 L 22.417969 48.710938 L 25.75 64.324219 L 24.523438 64.324219 L 23.574219 59.59375 L 20.171875 59.59375 L 19.277344 64.324219 Z M 69.367188 12.675781 L 69.367188 20.152344 L 69.015625 20.152344 C 68.804688 18.429688 68.570312 17.222656 68.320312 16.472656 C 68.058594 15.667969 67.707031 15.089844 67.257812 14.632812 C 67.011719 14.402344 66.574219 14.289062 65.949219 14.289062 L 64.953125 14.289062 L 64.976562 23.199219 L 64.988281 23.199219 L 64.988281 35.628906 C 64.988281 37.007812 65.027344 37.929688 65.101562 38.273438 C 65.175781 38.617188 65.324219 38.90625 65.550781 39.195312 C 65.761719 39.480469 66.0625 39.59375 66.449219 39.59375 L 66.898438 39.59375 L 66.898438 40.34375 L 59.886719 40.34375 L 59.886719 39.59375 L 60.335938 39.59375 C 60.722656 39.59375 61.035156 39.480469 61.273438 39.195312 C 61.449219 38.964844 61.574219 38.675781 61.671875 38.160156 C 61.746094 37.871094 61.785156 37.007812 61.785156 35.628906 L 61.785156 30.566406 L 61.746094 14.289062 L 60.773438 14.289062 C 59.875 14.289062 59.226562 14.6875 58.816406 15.4375 C 58.242188 16.585938 57.878906 18.136719 57.730469 20.152344 L 57.355469 20.152344 L 57.355469 12.675781 Z M 46.71875 32.0625 L 50.371094 12.332031 L 50.535156 12.332031 L 52.90625 25.101562 L 52.917969 25.101562 L 54.0625 31.371094 L 54.675781 34.707031 C 55.0625 36.835938 55.386719 38.160156 55.636719 38.675781 C 55.835938 39.136719 56.097656 39.367188 56.445312 39.421875 L 56.445312 40.171875 L 50.945312 40.171875 L 50.945312 39.421875 L 51.171875 39.421875 C 51.605469 39.421875 51.917969 39.25 52.09375 38.964844 C 52.21875 38.792969 52.28125 38.445312 52.28125 38.042969 C 52.28125 37.8125 52.269531 37.582031 52.230469 37.292969 C 52.21875 37.179688 52.144531 36.664062 51.980469 35.800781 L 51.382812 32.40625 L 47.367188 32.40625 L 46.878906 35.054688 C 46.730469 35.914062 46.644531 36.664062 46.644531 37.238281 C 46.644531 38.042969 46.78125 38.558594 47.03125 38.964844 C 47.179688 39.136719 47.554688 39.308594 48.152344 39.421875 L 48.152344 40.171875 L 44.363281 40.171875 L 44.363281 39.421875 C 44.773438 39.25 45.109375 38.851562 45.371094 38.214844 C 45.632812 37.523438 45.957031 36.144531 46.34375 34.074219 Z M 43.265625 12.675781 L 43.265625 21.9375 L 42.890625 21.9375 C 42.617188 19.523438 42.105469 17.679688 41.355469 16.359375 C 40.621094 15.089844 39.773438 14.460938 38.824219 14.460938 C 38.027344 14.460938 37.304688 14.917969 36.640625 15.894531 C 35.980469 16.875 35.507812 18.082031 35.195312 19.636719 C 34.90625 21.074219 34.734375 22.628906 34.660156 24.292969 L 34.683594 24.292969 C 34.660156 24.925781 34.644531 25.5625 34.644531 26.25 C 34.644531 28.609375 34.785156 30.796875 35.070312 32.75 C 35.355469 34.707031 35.804688 36.203125 36.417969 37.179688 C 37.027344 38.214844 37.828125 38.675781 38.789062 38.675781 C 39.585938 38.675781 40.320312 38.328125 40.980469 37.582031 C 41.644531 36.835938 42.339844 35.628906 43.078125 33.789062 L 43.078125 36.085938 C 42.367188 37.640625 41.628906 38.792969 40.855469 39.480469 C 40.097656 40.171875 39.199219 40.515625 38.164062 40.515625 C 36.816406 40.515625 35.621094 40 34.558594 38.851562 C 33.636719 37.8125 32.886719 36.433594 32.339844 34.59375 L 32.300781 34.652344 C 32.226562 34.417969 32.164062 34.1875 32.101562 33.960938 C 31.527344 31.773438 31.242188 29.53125 31.242188 27.113281 C 31.242188 24.585938 31.566406 22.164062 32.1875 19.863281 C 32.824219 17.621094 33.671875 15.839844 34.746094 14.574219 C 35.832031 13.308594 36.964844 12.675781 38.175781 12.675781 C 39.0625 12.675781 40.007812 13.078125 40.996094 13.882812 C 41.566406 14.34375 41.929688 14.632812 42.089844 14.632812 C 42.292969 14.632812 42.464844 14.460938 42.601562 14.171875 C 42.753906 13.824219 42.851562 13.367188 42.890625 12.675781 Z M 29.058594 12.675781 L 29.195312 21.589844 L 28.683594 21.589844 C 28.449219 19.351562 27.847656 17.566406 26.902344 16.1875 C 25.953125 14.859375 24.929688 14.171875 23.832031 14.171875 C 22.984375 14.171875 22.3125 14.515625 21.8125 15.207031 C 21.3125 15.953125 21.078125 16.757812 21.078125 17.679688 C 21.078125 18.257812 21.164062 18.832031 21.339844 19.292969 C 21.574219 19.863281 21.964844 20.5 22.5 21.074219 C 22.886719 21.535156 23.796875 22.28125 25.207031 23.375 C 25.730469 23.777344 26.191406 24.179688 26.625 24.585938 L 26.675781 24.585938 C 27.886719 25.675781 28.746094 26.710938 29.257812 27.746094 C 29.945312 29.070312 30.28125 30.625 30.28125 32.40625 C 30.28125 34.59375 29.730469 36.546875 28.636719 38.160156 C 28.285156 38.617188 27.910156 39.078125 27.5 39.421875 C 26.613281 40.171875 25.59375 40.515625 24.417969 40.515625 C 23.894531 40.515625 23.382812 40.457031 22.910156 40.285156 C 22.4375 40.113281 21.839844 39.769531 21.128906 39.308594 C 20.714844 39.078125 20.390625 38.964844 20.140625 38.964844 C 19.917969 38.964844 19.691406 39.078125 19.445312 39.308594 C 19.207031 39.59375 19.007812 40 18.855469 40.515625 L 18.394531 40.515625 L 18.394531 36.777344 L 18.359375 36.835938 L 18.359375 30.507812 L 18.394531 30.507812 L 18.394531 30.449219 L 18.855469 30.449219 C 19.230469 33.269531 19.929688 35.453125 20.976562 36.953125 C 22.023438 38.445312 23.148438 39.195312 24.355469 39.195312 C 25.292969 39.195312 26.042969 38.792969 26.589844 37.984375 C 27.136719 37.179688 27.425781 36.257812 27.425781 35.167969 C 27.425781 34.765625 27.375 34.359375 27.277344 33.960938 L 27.238281 33.902344 C 27.1875 33.730469 27.136719 33.554688 27.0625 33.382812 C 26.851562 32.808594 26.527344 32.230469 26.089844 31.71875 C 25.667969 31.140625 24.894531 30.449219 23.796875 29.644531 C 22.261719 28.4375 21.152344 27.398438 20.480469 26.597656 C 19.792969 25.734375 19.28125 24.8125 18.921875 23.777344 C 18.558594 22.742188 18.371094 21.589844 18.371094 20.328125 C 18.371094 18.199219 18.871094 16.414062 19.855469 14.917969 C 20.851562 13.425781 22.101562 12.675781 23.609375 12.675781 C 24.15625 12.675781 24.695312 12.789062 25.207031 13.019531 C 25.605469 13.136719 26.078125 13.425781 26.640625 13.882812 C 27.199219 14.289062 27.601562 14.515625 27.824219 14.515625 C 28.035156 14.515625 28.210938 14.402344 28.335938 14.171875 C 28.460938 13.996094 28.574219 13.480469 28.683594 12.675781 Z M 29.058594 12.675781 " style=" stroke:none;fill-rule:evenodd;fill:rgb(0%,33.725491%,62.352943%);fill-opacity:1;"/></g></svg>