<svg xmlns="http://www.w3.org/2000/svg" id="Layer_1" width="400" height="111" viewBox="0 0 400.23 111.6"><defs><style>.cls-1{fill:#cd1719}.cls-2{fill:#fff}.cls-3{fill:#fab31e}.cls-4{fill:#ffd500}.cls-5{fill:#004996}.cls-6{fill:#008e5a}</style></defs><title/><path d="M362.62,299.7h11.27C387.71,299.7,394,289,394,266.95c0-12.17-1.05-22.38-5.26-29.29-3.45-5.71-8.26-8.71-16.53-8.71h-9.61Zm-.3-87.29c6,0,14,.3,18.18.6a35.43,35.43,0,0,1,22.84,10.37c9.61,9.47,14.27,22.84,14.27,41.62,0,14.27-3.45,26.74-10.52,36.21-6.3,8.56-15.62,14.27-25.39,15-3.91.3-8.86.6-15,.6H341.29V212.41Z" class="cls-1" transform="translate(-193.93 -209.11)"/><path d="M483.42,274.61s-3.45-11-5.7-21c-1.06-4.81-4.21-18.48-4.21-18.48s-3,12.32-5,20.13c-2,7.51-3.3,12.47-5.56,19.38Zm2.11-62.5,32.9,104.72H495.89L488.53,292H457.88l-7.36,24.79H428.58l34.26-104.72Z" class="cls-1" transform="translate(-193.93 -209.11)"/><polygon points="400.23 3.3 396.77 20.73 371.83 20.73 371.83 107.72 350.5 107.72 350.5 20.73 324.96 20.73 324.96 3.3 400.23 3.3" class="cls-1"/><path d="M305.55,264.91a55.81,55.81,0,1,1-55.81-55.8,55.81,55.81,0,0,1,55.81,55.8" class="cls-2" transform="translate(-193.93 -209.11)"/><path d="M266,263.2A160.88,160.88,0,0,1,284.54,280c4.27-1.8,12.87-5.1,20.32-6.29a56,56,0,0,0-4.33-31.89L266,263.2" class="cls-3" transform="translate(-193.93 -209.11)"/><path d="M286,307.34a55.27,55.27,0,0,0,9.43-10.42A56,56,0,0,0,302,284.51l-11.19,9.19L286,307.34" class="cls-4" transform="translate(-193.93 -209.11)"/><path d="M275.76,292.48a160.37,160.37,0,0,1-22.1-11.68l-8.28,39.73a55.92,55.92,0,0,0,31.42-6.82c-1.42-7.37-1.25-16.59-1-21.23" class="cls-5" transform="translate(-193.93 -209.11)"/><path d="M233.72,317.17c-1.55-1.91,0-39.94.44-49.79-19-14.44-31.3-29.88-30.45-34a55.85,55.85,0,0,0,32,85.55,12.27,12.27,0,0,1-2-1.76" class="cls-1" transform="translate(-193.93 -209.11)"/><path d="M246.73,249.44c9.07-3.76,44.31-18.26,46.63-17.45a12.73,12.73,0,0,1,2.32,1.25,55.81,55.81,0,0,0-91.33-.79c3.57-2.19,22.3,4,42.38,17" class="cls-6" transform="translate(-193.93 -209.11)"/></svg>