<svg xmlns="http://www.w3.org/2000/svg" version="1.1" id="Layer_1" x="0px" y="0px" width="70" height="70" viewBox="0 0 70 70" xml:space="preserve" style="enable-background:new 0 0 70 70;"><style type="text/css">
	.st0{fill:#FFD900;}
	.st1{fill:#FDD000;}
	.st2{fill:#ED6C00;}
	.st3{fill:#F08300;}
	.st4{fill:#E5006E;}
	.st5{fill:#E40077;}
	.st6{fill:#B60081;}
	.st7{fill:#6B1685;}
	.st8{fill:#2D1F87;}
	.st9{fill:#423692;}
	.st10{fill:#004EA2;}
	.st11{fill:#0061B0;}
	.st12{fill:#0081CC;}
	.st13{fill:#00ABEB;}
	.st14{fill:#040000;}
</style><g><path d="M34,19.5c1.8-0.9,3.5-2.1,4.8-3.3c1.2-2.7,1.9-7.4,0-9.6c0.6,2.4-1,7.6-7.3,12.3c-2,1.5-2.7,3.7-1.2,5.5   c0.2,0.2,0.3,0.4,0.5,0.6c0.2,0.2,0.3,0.4,0.5,0.6c0,0,0,0,0.1,0.1c0,0,0,0,0,0C30.3,22.5,32.7,20.2,34,19.5z" class="st0"/><path d="M31.6,25.9C31.6,25.8,31.6,25.8,31.6,25.9C31.6,25.8,31.6,25.8,31.6,25.9z" class="st1"/><path d="M32,26.7c0-0.1-0.1-0.2-0.1-0.3C32,26.5,32,26.6,32,26.7z" class="st2"/><path d="M35.2,22.3c1.8-0.9,3.9-1.9,5.7-3.2c1.7-2.7,3.4-7.2,1.8-10.7c0,2.9-1.5,5.6-3.8,7.7c-1.4,1.3-3,2.4-4.8,3.3   c-1.3,0.7-3.8,2.9-2.7,6.1c0,0,0,0,0,0c0,0.1,0.1,0.1,0.1,0.2c0,0,0,0.1,0.1,0.1c0.1,0.2,0.2,0.3,0.3,0.5c0-0.1-0.1-0.1-0.1-0.2   C32,23.9,33.7,23.1,35.2,22.3z" class="st3"/><path d="M32.1,27.7c0-0.1,0-0.2,0-0.2C32.1,27.6,32.1,27.7,32.1,27.7z" class="st4"/><path d="M36.8,24c1.9-0.5,3.7-1,5.2-1.7c3.6-2.5,5.1-8.4,3.9-11.1c0,0.2,0,0.7-0.1,0.9c-0.9,3.1-2.8,5.3-5,6.9   c-1.8,1.4-3.9,2.3-5.7,3.2c-1.5,0.7-3.2,1.6-3.4,3.8c0,0.1,0.1,0.1,0.1,0.2c0,0,0,0,0,0c0,0.1,0.1,0.2,0.1,0.3   c0.1,0.2,0.1,0.4,0.1,0.6l0,0C33.1,25.4,35.6,24.3,36.8,24z" class="st5"/><path d="M31.8,28.7C31.9,28.7,31.9,28.7,31.8,28.7C31.9,28.7,31.9,28.7,31.8,28.7z" class="st6"/><path d="M37.4,26.6c1.8,0,3.5-0.3,5-0.6c3.7-1.7,7.2-6.1,6.3-10.1c-0.7,2.8-3.1,4.9-6.7,6.5c-1.5,0.7-3.3,1.2-5.2,1.7   c-1.2,0.3-3.7,1.4-4.7,3.3l0,0c0,0.1,0,0.1,0,0.2c0,0.1,0,0.2,0,0.2c0,0.3-0.1,0.5-0.2,0.7c0,0,0,0,0,0   C33.4,26.9,36.3,26.6,37.4,26.6z" class="st6"/><path d="M49.9,22.9c0.1-0.5,0.3-0.9,0.2-1.5c0,0.2-0.3,0.5-0.4,0.7c-1.3,1.6-3.9,3.1-7.3,3.8c-1.5,0.3-3.2,0.6-5,0.6   c-1,0-3.9,0.3-5.4,1.8c0,0,0,0,0,0c0,0.1-0.1,0.2-0.1,0.2c0,0,0,0,0,0c-0.2,0.3-0.4,0.6-0.7,0.9c0.1-0.1,0.1-0.1,0.2-0.2   c1.7-0.8,6.3-0.2,7.2,0c1,0.2,2.1,0.3,3.2,0.4C45.5,28.7,48.9,26.2,49.9,22.9z" class="st7"/><path d="M30.8,29.9c0,0,0.1-0.1,0.1-0.1C30.8,29.8,30.8,29.9,30.8,29.9z" class="st7"/><path d="M30.4,30.1c0.1,0,0.1-0.1,0.2-0.1C30.6,30,30.5,30,30.4,30.1z" class="st7"/><path d="M31,29.7c0,0,0.1-0.1,0.1-0.1C31.1,29.7,31,29.7,31,29.7z" class="st7"/><path d="M29.8,30.2C29.8,30.2,29.9,30.2,29.8,30.2C29.9,30.2,29.8,30.2,29.8,30.2z" class="st8"/><path d="M30.1,30.2C30.1,30.2,30.1,30.2,30.1,30.2C30.1,30.2,30.1,30.2,30.1,30.2z" class="st8"/><path d="M31.4,29.4c-0.1,0.1-0.1,0.1-0.2,0.2c0,0-0.1,0-0.1,0.1c0,0-0.1,0.1-0.1,0.1c0,0-0.1,0-0.1,0.1   c0,0-0.1,0.1-0.1,0.1c0,0-0.1,0-0.1,0.1c-0.1,0-0.1,0.1-0.2,0.1c0,0-0.1,0-0.2,0.1c0,0,0,0,0,0c0.5,0.1,1,0.2,1.5,0.3   c1.7,0.4,4.6,1.8,7.9,2.5c4.2-0.3,9.1-2,10-5.8c-1.6,1.9-4.8,2.7-7.9,2.6c-1.1,0-2.2-0.2-3.2-0.4C37.7,29.2,33,28.6,31.4,29.4z" class="st9"/><path d="M27.8,29.8C27.9,29.9,27.9,29.9,27.8,29.8C27.9,29.9,27.9,29.9,27.8,29.8z" class="st10"/><path d="M27.6,29.7C27.6,29.7,27.7,29.7,27.6,29.7C27.7,29.7,27.6,29.7,27.6,29.7z" class="st10"/><path d="M28.1,30C28.1,30,28.1,30,28.1,30C28.1,30,28.1,30,28.1,30z" class="st10"/><path d="M28.4,30.1C28.4,30.1,28.4,30.1,28.4,30.1C28.4,30.1,28.4,30.1,28.4,30.1z" class="st10"/><path d="M28.6,30.2c0,0,0.1,0,0.1,0C28.7,30.2,28.7,30.2,28.6,30.2z" class="st10"/><path d="M30.3,30.1C30.3,30.1,30.3,30.1,30.3,30.1c-0.1,0-0.1,0-0.2,0.1c0,0-0.1,0-0.1,0c0,0-0.1,0-0.2,0   c0,0-0.1,0-0.1,0c-0.2,0-0.3,0-0.5,0c-0.2,0-0.3,0-0.5,0c0,0,0,0,0.1,0c1,0.4,1.7,1,2.5,1.6c2.2,1.7,3.5,2.9,5.1,3.6   c2.9,0.4,6.5,0.1,9.2-1.5c0.6-0.5,1.2-0.9,1.6-1.4c-0.2,0.2-1.2,0.5-2,0.6c-1.9,0.3-3.8,0.1-5.7-0.3c-3.3-0.7-6.2-2.1-7.9-2.5   C31.3,30.3,30.8,30.2,30.3,30.1z" class="st11"/><path d="M28.9,30.3C28.9,30.3,28.9,30.2,28.9,30.3c-0.1,0-0.1,0-0.2,0c0,0-0.1,0-0.1,0c-0.1,0-0.1,0-0.2,0   c0,0-0.1,0-0.1,0c-0.1,0-0.2-0.1-0.2-0.1c0,0,0,0,0,0c-0.1,0-0.1-0.1-0.2-0.1c0,0-0.1,0-0.1-0.1c0,0-0.1,0-0.1-0.1   c0,0-0.1,0-0.1-0.1c-0.2-0.1-0.4-0.3-0.5-0.5l0,0c0.1,0.2,0.3,0.5,0.5,0.9l0,0c1,1.8,2.1,3.5,3.5,5.1c0.7,0.7,1.5,1.4,2.4,1.9   c3.9,1.2,8.4,0.7,10-0.5c-0.2,0-0.7,0.1-1.1,0.1c-2.7-0.2-4.4-0.6-5.9-1.2c-1.6-0.7-2.9-1.8-5.1-3.6C30.7,31.3,29.9,30.7,28.9,30.3   z" class="st12"/><path d="M31.2,35.1c-1.5-1.6-2.5-3.3-3.5-5.1l0,0c-0.2-0.4-0.4-0.7-0.5-0.9C27.1,29.1,27,29,27,29   c-2.5-3.2-6.5-2.1-6.5-2.1c2.3,0.5,2.9,2.3,3.6,3.8c0.7,1.6,2,4.3,3.8,5.9c2.3,2,6.3,3.6,10.2,2.8c0.3-0.1,0.9-0.2,1.1-0.3   c-0.2,0-0.8-0.1-1.1-0.1c-1.6-0.3-3.2-0.9-4.6-1.8C32.6,36.5,31.9,35.9,31.2,35.1z" class="st13"/></g><g><path d="M67.7,54.4c-0.1-0.1-0.4-0.3-0.7-0.4c-0.3-0.1-0.7-0.3-0.7-0.3c-0.7-0.2-0.8-0.4-0.8-0.7   c0-0.2,0.1-0.3,0.3-0.4c0.2-0.1,0.3-0.1,0.6-0.1c0.2,0,0.4,0,0.6,0.1c0.2,0.1,0.4,0.1,0.6,0.2l0,0v0l0-0.8l0,0v0   c-0.1,0-0.1,0-0.2-0.1c-0.5-0.1-0.7-0.1-0.9-0.1c-0.6,0-1.1,0.1-1.4,0.4c-0.4,0.2-0.5,0.6-0.5,0.9c0,0.2,0,0.3,0.1,0.4   c0.1,0.1,0.2,0.3,0.3,0.4c0.2,0.2,0.5,0.3,0.9,0.5l0.2,0.1c0.6,0.3,0.8,0.4,0.8,0.7c0,0.2-0.1,0.3-0.2,0.4   c-0.2,0.1-0.3,0.1-0.6,0.1c-0.2,0-0.4,0-0.6-0.1c-0.2,0-0.5-0.1-0.8-0.3l0,0v0l0,0.8v0l0,0l0,0c0,0,0.1,0,0.1,0   c0.6,0.2,0.9,0.2,1.2,0.2l0,0c0.6,0,1.1-0.1,1.5-0.4c0.4-0.3,0.6-0.7,0.6-1.1C68,54.8,67.9,54.6,67.7,54.4z" class="st14"/><path d="M6.2,52.3C6,52.2,5.8,52.1,5.4,52c-0.3-0.1-0.7-0.1-1.1-0.1H2.8h0v0v4.6v0h0h1.4c0.5,0,0.9,0,1.2-0.1   c0.3-0.1,0.6-0.1,0.8-0.3c0.4-0.2,0.7-0.5,0.9-0.8c0.2-0.3,0.3-0.7,0.3-1.2c0-0.4-0.1-0.8-0.3-1.1C6.9,52.7,6.6,52.5,6.2,52.3    M6.3,54.2c0,0.5-0.2,0.9-0.5,1.2c-0.3,0.3-0.8,0.4-1.4,0.4H3.8v-3.2h0.6c0.6,0,1.1,0.1,1.4,0.4C6.1,53.3,6.3,53.7,6.3,54.2z" class="st14"/><path d="M10.3,51.9c-0.7,0-1.3,0.2-1.8,0.6c-0.4,0.4-0.6,1-0.6,1.7c0,0.7,0.2,1.3,0.6,1.7c0.4,0.4,1,0.6,1.8,0.6   c0.7,0,1.3-0.2,1.8-0.6c0.4-0.4,0.6-1,0.6-1.7c0-0.7-0.2-1.3-0.6-1.7C11.6,52.1,11,51.9,10.3,51.9 M9.3,53c0.2-0.3,0.6-0.4,1-0.4   c0.4,0,0.7,0.1,1,0.4c0.2,0.3,0.4,0.7,0.4,1.2c0,0.5-0.1,0.9-0.4,1.2c-0.2,0.3-0.6,0.4-1,0.4c-0.4,0-0.7-0.2-1-0.4   c-0.2-0.3-0.4-0.7-0.4-1.2C8.9,53.7,9,53.3,9.3,53z" class="st14"/><polygon points="26.7,51.9 26.7,51.9 26.7,51.9 26.7,53.9 24.7,53.9 24.7,51.9 24.7,51.9 24.6,51.9 23.6,51.9    23.6,51.9 23.6,51.9 23.6,56.5 23.6,56.5 23.6,56.5 24.6,56.5 24.7,56.5 24.7,56.5 24.7,54.6 26.7,54.6 26.7,56.5 26.7,56.5    26.7,56.5 27.8,56.5 27.8,56.5 27.8,56.5 27.8,51.9 27.8,51.9 27.8,51.9  " class="st14"/><polygon points="33.7,51.9 33.7,51.9 33.7,51.9 33.7,56.5 33.7,56.5 33.7,56.5 34.7,56.5 34.7,56.5 34.7,56.5    34.7,51.9 34.7,51.9 34.7,51.9  " class="st14"/><path d="M31.3,51.9L31.3,51.9L31.3,51.9l-1,0h0v0l-1.7,4.6l0,0h0h0.9h0l0,0l0.4-1.1h1.7l0.4,1.1v0h0H33h0l0,0   L31.3,51.9 M30.8,52.8l0.6,1.9h-1.3L30.8,52.8z" class="st14"/><path d="M40.1,51.9L40.1,51.9L40.1,51.9l-1,0h0v0l-1.7,4.6l0,0h0h0.9h0v0l0.4-1.1h1.7l0.4,1.1v0h0h0.9h0l0,0   L40.1,51.9 M39.5,52.8l0.6,1.9h-1.3L39.5,52.8z" class="st14"/><polygon points="42.6,51.9 42.6,51.9 42.6,51.9 42.6,56.5 42.6,56.5 42.6,56.5 43.6,56.5 43.7,56.5 43.7,56.5    43.7,51.9 43.7,51.9 43.6,51.9  " class="st14"/><polygon points="50.6,55.8 50.6,51.9 50.6,51.9 50.6,51.9 49.5,51.9 49.5,51.9 49.5,51.9 49.5,56.5 49.5,56.5    49.5,56.5 52.7,56.5 52.7,56.5 52.7,56.5 52.7,55.8 52.7,55.8 52.7,55.8  " class="st14"/><polygon points="53.3,51.9 53.3,51.9 53.3,51.9 53.3,56.5 53.3,56.5 53.3,56.5 54.4,56.5 54.4,56.5 54.4,56.5    54.4,51.9 54.4,51.9 54.4,51.9  " class="st14"/><polygon points="61.6,55.8 61.6,54.6 63.8,54.6 63.8,54.6 63.8,54.6 63.8,53.9 63.8,53.9 63.8,53.9 61.6,53.9    61.6,52.6 63.8,52.6 63.8,52.6 63.8,52.6 63.8,51.9 63.8,51.9 63.8,51.9 60.6,51.9 60.6,51.9 60.6,51.9 60.6,56.5 60.6,56.5    60.6,56.5 63.8,56.5 63.8,56.5 63.8,56.5 63.8,55.8 63.8,55.8 63.8,55.8  " class="st14"/><path d="M20.9,53.9L20.9,53.9L20.9,53.9l0,0.6v0h0h0.9l0,1.1c0,0,0,0,0,0c0,0,0,0-0.1,0c-0.2,0.1-0.3,0.1-0.5,0.1   c-0.5,0-0.9-0.1-1.2-0.4c-0.3-0.3-0.5-0.7-0.5-1.1c0-0.5,0.2-0.9,0.5-1.2c0.3-0.3,0.7-0.4,1.3-0.4c0.4,0,1,0.1,1.5,0.3l0,0v0v-0.7   v0l0,0c-0.2-0.1-0.3-0.1-0.4-0.1c-0.5-0.1-0.9-0.1-1.1-0.1c-0.9,0-1.6,0.2-2.1,0.6c-0.5,0.4-0.8,1-0.8,1.7c0,0.7,0.3,1.3,0.8,1.7   c0.5,0.4,1.2,0.6,2.1,0.6c0.2,0,0.5,0,0.7-0.1c0.2,0,0.7-0.2,0.9-0.4l0,0v0V54v0h0L20.9,53.9L20.9,53.9z" class="st14"/><polygon points="59.6,56.5 59,56.5 56.3,53.6 56.3,56.5 55.4,56.5 55.4,51.9 56.1,51.9 58.7,54.6 58.7,51.9    59.6,51.9  " class="st14"/><polygon points="17.6,56.5 17.1,56.5 14.2,53.6 14.2,56.5 13.3,56.5 13.3,52 14,52 16.7,54.6 16.7,52 17.6,52  " class="st14"/><path d="M48.3,54c0.3-0.5,0.3-1.2,0-1.6c-0.3-0.4-0.7-0.5-1.3-0.5c-0.4,0-2.1,0-2.1,0v4.6h1c0,0,0-1.8,0-1.9   c0.3,0,1.2,0,1.4,0C47.3,54.6,47.9,54.6,48.3,54 M46.9,54c-0.2,0-1.1,0-1.1,0v-1.4c0,0,1,0,1.1,0c0.2,0,0.7,0.1,0.7,0.6   C47.7,53.9,47.1,54,46.9,54z" class="st14"/><polygon points="48.6,56.5 47.6,56.5 46.6,54.2 47.6,54.2  " class="st14"/></g><g><path d="M46.8,42.6l0.9,0c0,0,0,0.8,0,0.8h2.6v1.7h-0.8v-0.9l-4.4,0v0.9l-0.8,0v-1.7h2.5   C46.8,43.4,46.8,42.6,46.8,42.6L46.8,42.6 M44.6,46.7c-0.1-0.2-0.3-0.5-0.5-0.7c0.6-0.2,1.7-0.9,2.3-1.5c0,0,0.5,0.6,0.6,0.6   C46.6,45.4,45.3,46.4,44.6,46.7L44.6,46.7 M49.7,46.7l0,0.8h-1.9v1.2h2.8v0.8h-6.4v-0.8h2.7v-1.2H45v-0.8H49.7L49.7,46.7    M47.7,45.2l0.4-0.7c0.8,0.5,1.9,1,2.4,1.4c-0.3,0.4-0.3,0.4-0.5,0.7C49.4,46.2,48.3,45.5,47.7,45.2L47.7,45.2z" class="st14"/><g><path d="M37.8,46.6l-0.6,0.1c0.1,0.4,0.1,1,0.2,1.3l0.6-0.2C37.9,47.5,37.8,46.9,37.8,46.6z" class="st14"/><path d="M37.2,44.5c0.1,0.4,0.2,0.8,0.2,1.1l0.6-0.1c0-0.2-0.1-0.8-0.2-1L37.2,44.5z" class="st14"/><polygon points="42.5,43.6 41.1,43.6 41.1,42.7 40.3,42.7 40.3,43.6 39,43.6 39,44.4 42.5,44.4   " class="st14"/><path d="M38.9,46.4h0.4v-0.7h-0.4v-2.2h-1c0.1-0.2,0.2-0.7,0.2-0.9c-0.2,0-0.7-0.1-0.8-0.2c0,0.2-0.1,0.6-0.2,1h-0.8    v2.2h-0.5v0.7h0.5v0.2c0,1-0.2,1.9-0.6,2.4c0.2,0.1,0.4,0.4,0.6,0.6c0.4-0.7,0.6-1.4,0.6-3.2h1.1v2c0,0.2-0.1,0.2-0.8,0.2    c0.1,0.3,0.2,0.5,0.3,0.8c0.9-0.1,1.2-0.3,1.2-0.7L38.9,46.4 M37,44.2h1.1v1.5H37V44.2z" class="st14"/><path d="M42.1,47.9c-0.1,0.3-0.1,0.6-0.2,0.7c-0.1,0-0.1,0-0.1,0c-0.1,0-0.1,0-0.1-0.2c0-0.8,0.1-3.6,0.1-3.6h-2.2    v1.7c0,1.2-0.3,2.1-0.9,2.6c0.3,0.1,0.5,0.3,0.7,0.4c0.5-0.6,0.9-1.5,0.9-3.8v-0.2H41l-0.1,3.1c0,0.5,0.1,0.7,0.6,0.7h0.6    c0.2,0,0.4-0.4,0.6-1.1C42.5,48.3,42.2,48.1,42.1,47.9z" class="st14"/></g><g><path d="M27.8,43.2c0,0-0.1,0.1-0.1,0.1c0,0,0,0,0,0l0.5,0.4c0,0,0.4,0.4,0.5,0.5c0,0,0.1-0.2,0.1-0.2l0.1-0.2l0-0.1    l0.2-0.3c-0.3-0.3-0.7-0.6-1-0.8C28.1,42.7,27.8,43.2,27.8,43.2z" class="st14"/><path d="M27.6,45c0,0-0.2,0.3-0.2,0.3c0,0,0.5,0.4,0.5,0.4l0,0c0,0,0.4,0.4,0.4,0.4c0,0,0.2-0.3,0.2-0.3    s0.3-0.5,0.3-0.5c0,0-0.9-0.8-1-0.8C27.8,44.7,27.6,45,27.6,45z" class="st14"/><path d="M27.9,47.9L27.9,47.9c-0.3,0.6-0.6,1.1-0.6,1.1c0,0,0.4,0.3,0.4,0.3s0.3,0.3,0.3,0.4c0-0.1,0.4-1,0.6-1.4    c0,0,0.4-1,0.4-1c0,0-0.6-0.4-0.7-0.5C28.3,46.7,28.1,47.5,27.9,47.9z" class="st14"/><path d="M29.4,43.8c-0.4,0.6-0.7,0.8-0.7,0.9c0,0,0.6,0.6,0.6,0.6c0,0,0.2-0.3,0.2-0.3l0.3-0.3l0,0l0.3-0.4l0.1-0.1    h3.7c0,0,0-0.7,0-0.7c0,0-3.3,0-3.3,0l0-0.1c0,0,0.2-0.4,0.2-0.4c0,0-0.7-0.3-0.8-0.3C29.9,42.7,29.7,43.3,29.4,43.8z M28.9,46.2    c0,0,0,0.7,0,0.8c0,0,0.6,0,0.6,0l-0.1,0.9c-0.1,0.5-0.3,1.1-0.3,1.2c0,0,0.8,0,0.8,0l0,0c0-0.1,0.1-0.5,0.1-0.5l2.5,0l0,0.1    c0,0.1-0.1,0.2-0.3,0.2c-0.2,0-0.3,0-0.4,0c0,0-0.1,0-0.1,0s-0.4,0-0.5,0c0.1,0.3,0.2,0.4,0.2,0.5l0,0.1c0,0,0.1,0.2,0.1,0.2    c0.5,0,0.9-0.1,1.1-0.1c0.2-0.1,0.3-0.2,0.4-0.3c0.1-0.1,0.1-0.2,0.2-0.4l0.1-0.3c0.2,0,0.5,0,0.6,0c0,0,0-0.6,0-0.7    c0,0-0.5,0-0.5,0l0.1-1c0,0,0.6,0,0.6,0c0,0,0-0.7,0-0.7c0,0-0.6,0-0.6,0s0.1-1.5,0.1-1.5c0,0-3.6,0-3.6,0s0,0,0,0l0,0.4    c0,0,0,0.4,0,0.4l0,0.4l0,0.3L28.9,46.2L28.9,46.2z M30.4,46.2l0.1-0.8h0.9l-0.4,0.3c0,0,0,0-0.1,0c0,0,0.3,0.3,0.3,0.3l0.2,0.2    L30.4,46.2L30.4,46.2z M32,45.9l-0.5-0.6h1.2l0,0.8h-0.9C31.8,46.2,32.1,46,32,45.9C32.1,46,32,45.9,32,45.9z M31.4,47.9h-1.2l0,0    l0.1-1h1c0,0-0.5,0.3-0.5,0.3L31.4,47.9z M31.6,47L31.6,47L31.6,47l1.1,0l0,0.4l0,0.6h-0.9c0,0,0.4-0.3,0.4-0.3    C32.1,47.6,31.6,47,31.6,47z" class="st14"/></g><path d="M25.7,43.5c0,0-3.1,0-3.1,0s0.3-0.6,0.3-0.6c0,0-0.8-0.3-0.8-0.3c0,0-0.2,0.6-0.2,0.6l0,0l0,0l-0.2,0.3   c0,0-1.7,0-2.1,0c0,0,0,0.7,0,0.8c0,0,1.7,0,1.7,0l0,0c-0.4,0.6-0.8,1.1-1,1.4L20,45.9c0,0,0.1,0.4,0.1,0.4s0,0.2,0,0.2   c0,0,2.4,0,2.4,0v1.8c0,0.1,0,0.2,0,0.3c0,0-0.1,0.1-0.2,0.1c-0.1,0-0.3,0-0.7,0c0.1,0.1,0.1,0.2,0.2,0.5c0.1,0.3,0.1,0.3,0.1,0.4   c0,0,0.1,0,0.1,0c0.2,0,0.4,0,0.6,0c0.2,0,0.4-0.1,0.5-0.3c0.1-0.2,0.2-0.4,0.2-0.7v-2c0,0,2,0,2,0c0,0,0-0.7,0-0.8c0,0-2,0-2,0   s0-1.1,0-1.2c0,0-0.8,0-0.8,0c0,0,0,1.2,0,1.2h-1.3l0,0c0,0,0-0.1,0.3-0.4c0.3-0.3,0.7-1.1,0.7-1.2c3.3,0,3.3,0,3.5,0L25.7,43.5z    M20.6,47.6L20.6,47.6c-0.4,0.5-1,0.9-1.1,1c0.2,0.3,0.4,0.5,0.6,0.7c0.1-0.1,0.8-0.7,1-1c0.3-0.4,0.8-1.1,0.9-1.1   c-0.3-0.2-0.5-0.3-0.7-0.5C21.2,46.9,21,47.1,20.6,47.6z M24.2,46.7c-0.2,0.2-0.4,0.4-0.6,0.5c0,0,0.9,1,0.9,1   c0.3,0.4,0.8,1.1,0.9,1.1c0,0,0.1-0.1,0.1-0.1l0.4-0.4c0,0,0.1-0.1,0.1-0.1c0,0-0.4-0.5-0.8-1C24.7,47.3,24.2,46.7,24.2,46.7z" class="st14"/></g></svg>