<svg xmlns="http://www.w3.org/2000/svg" id="Ebene_1" width="70" height="70" x="0" y="0" version="1.1" viewBox="0 0 70 70" xml:space="preserve" style="enable-background:new 0 0 70 70"><style type="text/css">.st0{fill:#fff}.st1{fill:#038341}.st2{fill:#ec671d}</style><g id="layer1" transform="translate(-2204.8231,-71.378904)"><g id="g3609" transform="translate(35.4331,35.3499)"><path id="path3098" d="M2207.5,51.6L2187,77.8c2.8,7.6,10,12.7,18.3,12.7 c10.8,0,19.5-8.8,19.5-19.5C2224.8,61,2217.3,52.7,2207.5,51.6z" class="st0"/><path id="path3106" d="M2212.8,57.4c1.6,1.8,2.9,3.9,3.7,6.1c1.5-0.5,2.9-1.2,4.4-2 c-1.5-2.5-3.7-4.7-6.2-6.2C2214.2,56.1,2213.6,56.8,2212.8,57.4L2212.8,57.4z" class="st0"/><path id="path3110" d="M2218,70.7h5.6c-0.1-3.1-0.9-6.1-2.3-8.6 c-1.4,0.8-2.9,1.5-4.4,2C2217.6,66.1,2218,68.4,2218,70.7z" class="st0"/><path id="path3114" d="M2212.9,84.7c0.7,0.6,1.3,1.3,1.9,2c2.5-1.5,4.7-3.7,6.2-6.2 c-1.4-0.8-2.8-1.4-4.3-2C2215.8,80.8,2214.5,82.9,2212.9,84.7L2212.9,84.7z" class="st0"/><path id="path3118" d="M2194.3,77.7c1.5-0.5,3.1-1,4.7-1.3 c-0.3-1.7-0.5-3.4-0.5-5.2" class="st0"/><path id="path3122" d="M2212.5,85.1c-1.6,1.6-3.4,3-5.4,4.1c2.6-0.2,5-1,7.2-2.2 C2213.7,86.3,2213.1,85.7,2212.5,85.1L2212.5,85.1z" class="st0"/><path id="path3126" d="M2197.7,84.7c-1.6-1.8-2.9-3.9-3.8-6.1 c-1.5,0.5-2.9,1.2-4.3,2c1.6,2.6,3.7,4.7,6.2,6.2C2196.4,85.9,2197,85.3,2197.7,84.7z" class="st0"/><path id="path3130" d="M2196.4,87c2.2,1.2,4.6,2,7.2,2.2c-2.1-1.1-3.9-2.5-5.4-4.1 C2197.5,85.7,2196.9,86.3,2196.4,87z" class="st0"/><path id="path3134" d="M2212.4,56.9c0.6-0.6,1.2-1.2,1.8-1.9 c-2.2-1.2-4.6-2-7.2-2.2C2209,53.8,2210.9,55.2,2212.4,56.9L2212.4,56.9z" class="st0"/><path id="path3138" d="M2205,60.1c-1.2,0-2.4-0.3-3.5-0.6c-0.7,1.8-1.3,3.6-1.7,5.5 c1.7,0.3,3.4,0.4,5.2,0.5V60.1z" class="st0"/><path id="path3142" d="M2209.4,58.7c0.9-0.4,1.7-0.8,2.5-1.4 c-1.6-1.7-3.5-3.1-5.6-4.2l0,0C2207.5,54.9,2208.6,56.8,2209.4,58.7z" class="st0"/><path id="path3146" d="M2205,81.9v-5.4c-1.7,0-3.5,0.2-5.2,0.5 c0.4,1.9,0.9,3.8,1.7,5.5C2202.6,82.1,2203.7,81.9,2205,81.9z" class="st0"/><path id="path3150" d="M2201.7,83.1c0.9,2,2,3.9,3.3,5.7v-6.3 C2203.8,82.5,2202.7,82.7,2201.7,83.1L2201.7,83.1z" class="st0"/><path id="path3154" d="M2205.6,88.8c1.3-1.8,2.4-3.7,3.3-5.7 c-1-0.4-2.1-0.6-3.3-0.6V88.8z" class="st0"/><path id="path3158" d="M2209.7,82.7c1,0.4,1.9,0.9,2.7,1.6c1.6-1.8,2.8-3.8,3.7-6 c-1.5-0.5-3.1-0.9-4.7-1.2C2211,79,2210.4,80.9,2209.7,82.7z" class="st0"/><path id="path3162" d="M2206.2,88.9c2.2-1.1,4.1-2.5,5.7-4.2 c-0.8-0.6-1.6-1.1-2.5-1.4C2208.6,85.3,2207.5,87.1,2206.2,88.9z" class="st0"/><path id="path3166" d="M2210.9,65.6c-1.7,0.3-3.5,0.5-5.3,0.5v4.6h5.8 C2211.3,69,2211.2,67.3,2210.9,65.6z" class="st0"/><path id="path3170" d="M2211.5,76.4c1.6,0.3,3.2,0.7,4.8,1.3c0.7-2,1.1-4.2,1.2-6.4 h-5.4C2212,73.1,2211.8,74.8,2211.5,76.4z" class="st0"/><path id="path3174" d="M2211.3,71.3h-5.8v4.6c1.8,0,3.6,0.2,5.3,0.5 C2211.2,74.7,2211.3,73,2211.3,71.3z" class="st0"/><path id="path3178" d="M2205.6,81.9c1.2,0,2.4,0.2,3.5,0.6c0.7-1.8,1.3-3.6,1.7-5.5 c-1.7-0.3-3.5-0.5-5.2-0.5V81.9z" class="st0"/><path id="path3182" d="M2205,75.9v-4.6h-5.8c0,1.7,0.2,3.4,0.5,5 C2201.4,76.1,2203.2,75.9,2205,75.9z" class="st0"/><path id="path3186" d="M2200.9,82.7c-0.8-1.8-1.3-3.7-1.7-5.7 c-1.6,0.3-3.1,0.7-4.7,1.2c0.9,2.2,2.1,4.2,3.7,6C2199,83.6,2199.9,83.1,2200.9,82.7z" class="st0"/><path id="path3190" d="M2198.6,84.7c1.6,1.7,3.5,3.1,5.7,4.2 c-1.3-1.8-2.3-3.7-3.2-5.6C2200.2,83.7,2199.4,84.2,2198.6,84.7L2198.6,84.7z" class="st0"/><path id="path3194" d="M2212,70.7h5.4c0-2.2-0.4-4.4-1.2-6.4 c-1.5,0.5-3.1,1-4.7,1.3C2211.8,67.2,2212,68.9,2212,70.7z" class="st0"/><path id="path3198" d="M2216,63.7c-0.9-2.2-2.1-4.2-3.6-5.9 c-0.8,0.6-1.7,1.1-2.7,1.5c0.7,1.8,1.3,3.7,1.7,5.6C2212.9,64.6,2214.5,64.2,2216,63.7z" class="st0"/><path id="path3202" d="M2205,66.1c-1.8,0-3.5-0.2-5.3-0.5c-0.3,1.7-0.5,3.3-0.5,5.1 h5.8V66.1z" class="st0"/><path id="path3206" d="M2209.1,59.5c-1.1,0.4-2.3,0.6-3.5,0.6v5.3 c1.7,0,3.5-0.2,5.2-0.5C2210.4,63.1,2209.8,61.3,2209.1,59.5z" class="st0"/><path id="path3210" d="M2216.8,77.9c1.5,0.6,3,1.2,4.4,2c1.4-2.6,2.3-5.5,2.3-8.6 h-5.6C2218,73.6,2217.6,75.8,2216.8,77.9z" class="st0"/><path id="path3218" d="M2206.2,52.4C2206.2,52.4,2206.2,52.4,2206.2,52.4" class="st1"/><path id="path3222" d="M2207.5,51.6l6.2-8L2207.5,51.6L2207.5,51.6 c9.8,1.1,17.3,9.4,17.3,19.4c0,10.8-8.8,19.5-19.5,19.5c-8.2,0-15.4-5.1-18.3-12.7v0l-16.4,21h49.5l19.3-55.5h-26.6l-43.4,55.5 h1.2l16.4-21" class="st1"/><path id="path3226" d="M2207.5,51.6l-0.4,0.6l-0.3,0.4l-0.1,0.1l-0.3,0.4 c2.1,1.1,4,2.5,5.6,4.2c-0.8,0.6-1.6,1.1-2.5,1.4c-0.8-1.9-1.9-3.8-3.1-5.6l-0.4,0.5c1.2,1.7,2.2,3.4,3,5.3 c-1,0.4-2.1,0.5-3.3,0.6v-5.4l-0.6,0.8v4.6c-1.1,0-2.2-0.2-3.2-0.6c0,0-0.4,0.5-0.4,0.5l-1.1,1.4c-0.5,1.3-0.8,2.7-1.1,4.1 c-0.6-0.1-1.2-0.2-1.8-0.4l-0.4,0.5c0.7,0.2,1.4,0.3,2.1,0.5c-0.3,1.7-0.5,3.4-0.5,5.2h-5.4l0-0.8l-1.1,1.4h0.4 c0,2.3,0.4,4.5,1.2,6.6c-1.5,0.6-3,1.2-4.4,2c-0.6-1-1-2.1-1.4-3.2l-0.4,0.6l-0.4,0.5c2.8,7.6,10,12.7,18.3,12.7 c10.8,0,19.5-8.8,19.5-19.5C2224.8,61,2217.3,52.7,2207.5,51.6 M2223.6,70.7h-5.6c0-2.3-0.5-4.5-1.2-6.6c1.5-0.6,3-1.2,4.4-2 C2222.7,64.6,2223.5,67.6,2223.6,70.7 M2199.2,71.3h5.8v4.6c-1.8,0-3.6,0.2-5.3,0.5C2199.4,74.7,2199.2,73,2199.2,71.3 M2205.6,66.1c1.8,0,3.6-0.2,5.3-0.5c0.3,1.7,0.5,3.3,0.5,5.1h-5.8V66.1 M2211.3,71.3c0,1.7-0.2,3.4-0.5,5 c-1.7-0.3-3.5-0.5-5.3-0.5v-4.6H2211.3 M2199.8,77c1.7-0.3,3.4-0.5,5.2-0.5v5.4c-1.2,0-2.4,0.3-3.5,0.6 C2200.7,80.7,2200.2,78.9,2199.8,77 M2200.9,82.7c-1,0.4-1.9,0.9-2.7,1.6c-1.6-1.8-2.8-3.8-3.7-6c1.5-0.5,3.1-0.9,4.7-1.2 C2199.5,79,2200.1,80.9,2200.9,82.7 M2205.6,76.5c1.7,0,3.5,0.2,5.2,0.5c-0.4,1.9-0.9,3.7-1.7,5.5c-1.1-0.4-2.3-0.6-3.5-0.6V76.5 M2211.4,77.1c1.6,0.3,3.1,0.7,4.7,1.2c-0.9,2.2-2.1,4.2-3.7,6c-0.8-0.6-1.7-1.2-2.7-1.6C2210.4,80.9,2211,79,2211.4,77.1 M2211.5,76.4c0.3-1.7,0.5-3.4,0.5-5.1h5.4c0,2.2-0.4,4.4-1.2,6.4C2214.7,77.2,2213.1,76.8,2211.5,76.4 M2212,70.7 c0-1.7-0.2-3.5-0.5-5.2c1.6-0.3,3.2-0.7,4.7-1.3c0.7,2,1.1,4.2,1.2,6.4H2212 M2220.9,61.5c-1.4,0.8-2.9,1.4-4.4,2 c-0.9-2.2-2.2-4.3-3.7-6.1c0.7-0.6,1.3-1.3,1.9-2.1C2217.3,56.8,2219.4,59,2220.9,61.5 M2207,52.8c2.6,0.2,5,1,7.2,2.2 c-0.5,0.7-1.1,1.3-1.8,1.9C2210.9,55.2,2209,53.8,2207,52.8 M2212.4,57.7c1.5,1.8,2.8,3.8,3.6,5.9c-1.5,0.5-3.1,0.9-4.6,1.2 c-0.4-1.9-1-3.8-1.7-5.6C2210.6,58.9,2211.5,58.4,2212.4,57.7 M2209.1,59.5c0.7,1.8,1.3,3.6,1.7,5.5c-1.7,0.3-3.4,0.4-5.2,0.5 v-5.3C2206.8,60.1,2208,59.9,2209.1,59.5 M2201.5,59.5c1.1,0.4,2.3,0.6,3.5,0.6v5.3c-1.7,0-3.5-0.2-5.2-0.5 C2200.2,63.1,2200.7,61.3,2201.5,59.5 M2199.7,65.6c1.7,0.3,3.5,0.5,5.3,0.5v4.6h-5.8C2199.2,69,2199.4,67.3,2199.7,65.6 M2193.1,71.3h5.4c0,1.7,0.2,3.5,0.5,5.2c-1.6,0.3-3.2,0.7-4.7,1.3C2193.6,75.7,2193.2,73.5,2193.1,71.3 M2193.9,78.5 c0.9,2.3,2.2,4.3,3.8,6.1c-0.7,0.6-1.3,1.3-1.9,2c-2.5-1.5-4.7-3.6-6.2-6.2C2191,79.7,2192.4,79.1,2193.9,78.5 M2196.4,87 c0.5-0.7,1.1-1.3,1.7-1.9c1.5,1.6,3.4,3,5.4,4.1C2201,89,2198.5,88.2,2196.4,87 M2198.6,84.7c0.8-0.6,1.6-1.1,2.5-1.4 c0.9,2,1.9,3.9,3.2,5.6C2202.1,87.9,2200.2,86.4,2198.6,84.7 M2205,88.8c-1.3-1.8-2.4-3.7-3.3-5.7c1-0.4,2.1-0.6,3.3-0.6V88.8 M2205.6,82.5c1.1,0,2.2,0.2,3.3,0.6c-0.9,2-2,3.9-3.3,5.7V82.5 M2209.4,83.3c0.9,0.4,1.7,0.9,2.5,1.4c-1.6,1.7-3.5,3.1-5.7,4.2 C2207.5,87.1,2208.6,85.3,2209.4,83.3 M2207,89.2c2.1-1.1,3.9-2.5,5.4-4.1c0.6,0.6,1.2,1.2,1.7,1.9C2212,88.2,2209.6,89,2207,89.2 M2214.7,86.7c-0.5-0.8-1.2-1.4-1.9-2c1.6-1.8,2.9-3.9,3.8-6.1c1.5,0.5,2.9,1.2,4.3,2C2219.4,83,2217.3,85.2,2214.7,86.7 M2221.3,79.9c-1.4-0.8-2.9-1.4-4.4-2c0.7-2.1,1.2-4.3,1.2-6.6h5.6C2223.5,74.4,2222.7,77.4,2221.3,79.9z" class="st2"/><path id="path3230" d="M2207.2,75.4l4.6,2.1l-2.2-4.7l5.9-1.5v-0.7l-5.9-1.5 l2.3-4.8l-4.7,2.2l-1.5-8.5h-0.8l-1.5,8.5l-4.7-2.2l2.2,4.8l-5.9,1.5v0.7l5.9,1.4l-2.2,4.7l4.6-2.1l1.4,8.5l0.8,0L2207.2,75.4 L2207.2,75.4z" class="st0"/><path id="path3234" d="M2205.3,58.6l1.5,8.6l4.1-2l-2,4.1l6.2,1.6l-6.2,1.5l1.9,4.1 l-4.1-1.9l-1.6,8.6l-1.5-8.6l-4.1,1.9l1.9-4.1l-6.2-1.5l6.2-1.6l-1.9-4.1l4.1,1.9L2205.3,58.6z" class="st1"/></g></g></svg>