<svg xmlns="http://www.w3.org/2000/svg" version="1.1" id="Layer_1" x="0px" y="0px" width="70" height="70" viewBox="0 0 70 70" xml:space="preserve" style="enable-background:new 0 0 70 70;"><style type="text/css">
	.st0{fill:#82C341;}
	.st1{fill:#3DB149;}
	.st2{fill:#F8ED33;}
</style><g><path d="M67.25,39.61c-1.31,4.2-5.66,8.15-10.89,8.97c0.85,1.31,1.23,2.92,1.02,4.71c-0.56,4.87-5.23,8.79-10.22,8.84   c-3.38,0.03-7.97-1.43-11.19-6.53c-2.89-4.53-3.3-11.73-3.1-13.91c-3.53,3.61-5.74,7.12-6.79,9.55c-2.36,5.51-3.25,12.22-3.2,15.37   c0,0-0.44,0.41-0.85,0.49c-1.31-0.23-2.43-0.72-3.28-1.46c-1.02-0.92-1.26-1.79-1.26-1.79c1.56-7.81,4.05-12.68,7.76-18.24   c5-7.51,12.71-12.14,21.85-14.93c6.61-2.02,13.47-2.46,18.19,1.54C67.84,34.31,68,37.33,67.25,39.61z M28.32,35.46   c-1.56,2.61-5.84,6.81-9.22,8.99c-7.04,4.51-12.12,4.82-14.65,3.2c-0.31-0.18-0.56-0.41-0.79-0.64c-1.97-2.07-1.64-5.76,0.67-8.79   c1.13-1.49,2.59-2.54,4-3.02c-1.1-0.51-1.84-1.59-2-3.1c-0.31-3.02,1.97-6.99,5.12-8.61c2.77-1.41,8.73-2.82,13.12,3.71   C26.27,29.75,27.81,33.36,28.32,35.46L28.32,35.46z M57.26,8c-0.38-3.77-4.41-5.15-8.84-3.25c-2.1,0.9-3.94,2.41-5.25,4.12   c0.2-1.72-0.28-3.23-1.51-4.12c-2.43-1.77-6.86-0.46-9.89,2.82c-1.05,1.15-4.48,5.3-4.66,11.4c-0.08,2.95,1.23,9.48,5.53,13.99l0,0   c11.48-4.33,17.65-10.96,20.01-13.7c2.72-3.18,3.87-5.97,4.35-8.02C57.37,9.62,57.31,8.47,57.26,8z" class="st0"/><path d="M52.65,19.25c2.72-3.18,3.87-5.97,4.35-8.02c0.03-0.1,0.05-0.2,0.08-0.33c-0.56,2.28-5.38,8.17-12.04,13.19   c-6.92,5.2-10.86,7.81-12.37,8.84C44.12,28.62,50.3,21.99,52.65,19.25z" class="st1"/><path d="M19.1,44.43c3.38-2.18,7.66-6.38,9.22-8.99l0,0c-3.02,2.87-7.48,7.15-15.14,10.53   c-3.79,1.61-7.51,2.23-8.73,1.64C6.98,49.25,12.05,48.94,19.1,44.43z" class="st1"/><path d="M67.25,39.61c0.18-0.56,0.31-1.15,0.36-1.77c-0.36,2.43-2,5.38-4.61,6.99c-2.31,1.43-4.97,2.38-7.99,2.13   c0.49,0.46,0.87,0.85,1.36,1.59l0,0l0,0C61.59,47.76,65.95,43.81,67.25,39.61z" class="st1"/><path d="M33.59,37.05L33.59,37.05c-0.03,0.03-0.05,0.03-0.05,0.05C33.54,37.08,33.57,37.05,33.59,37.05L33.59,37.05z" class="st2"/><path d="M33.54,37.08c-8.22,5.89-11.01,16.5-11.48,30l0,0c0.41-0.08,0.85-0.49,0.85-0.49   c-0.05-3.15,0.85-9.84,3.2-15.37c1.05-2.43,3.25-5.94,6.79-9.55c0.26-2.41,0.54-3.82,0.72-4.61   C33.57,37.05,33.54,37.08,33.54,37.08z" class="st1"/></g></svg>