<svg xmlns="http://www.w3.org/2000/svg" id="Layer_1" width="70" height="70" x="0" y="0" enable-background="new 0 0 70 70" version="1.1" viewBox="0 0 70 70" xml:space="preserve"><path fill="#1EB6E9" fill-rule="evenodd" d="M45.749,37.659c-1.883-1.229-3.622-2.649-5.32-4.116 c-4.141-3.579-7.855-7.537-10.702-12.249c-0.698-1.155-1.352-2.337-1.719-3.685c0.528,0.595,1.042,1.203,1.587,1.782 c3.794,4.034,8.335,7.037,13.22,9.563c3.713,1.922,7.584,3.453,11.56,4.732c0.128,0.041,0.25,0.102,0.375,0.154 c0.018,0.607-0.537,0.594-0.875,0.711c-0.978,0.34-1.907,0.791-2.875,1.15c-1.437,0.534-2.842,1.15-4.311,1.595 C46.364,37.396,46.114,37.678,45.749,37.659z" clip-rule="evenodd"/><path fill="#124B8E" fill-rule="evenodd" d="M22.742,39.301c0.702-1.292,1.783-1.842,3.15-1.854 c1.917-0.016,3.276,1.247,3.352,3.195c0.062,1.631,0.029,3.268,0.009,4.901c-0.009,0.788-0.375,1.143-1.356,1.348 c0-0.409,0-0.804,0-1.196c0-1.521,0.006-3.041-0.001-4.562c-0.009-1.524-0.756-2.385-2.075-2.412 c-1.369-0.029-2.385,0.944-2.413,2.39c-0.033,1.724-0.041,3.45,0.009,5.173c0.018,0.621-0.262,0.625-0.72,0.627 c-0.445,0.002-0.692-0.021-0.677-0.6c0.045-1.701,0.029-3.403,0.012-5.105c-0.016-1.473-0.979-2.486-2.319-2.485 c-1.359,0.001-2.155,0.835-2.171,2.318c-0.017,1.679-0.017,3.358,0.003,5.038c0.007,0.52,0.034,0.844-0.705,0.859 c-0.821,0.018-0.664-0.439-0.665-0.893c-0.002-1.566,0-3.131,0-4.697c0-2.039,0.713-3.242,2.208-3.725 C20.039,37.086,21.539,37.643,22.742,39.301z" clip-rule="evenodd"/><path fill="#114B8D" fill-rule="evenodd" d="M35.496,42.582c-1.157,0-2.315,0.017-3.472-0.009 c-0.433-0.01-0.489,0.151-0.41,0.522c0.292,1.37,1.328,2.481,2.65,2.702c1.363,0.228,2.512-0.155,3.294-1.376 c0.161-0.252,1.269-0.441,1.485-0.265c0.183,0.149,0.021,0.292-0.033,0.416c-0.59,1.314-1.605,2.1-3.005,2.415 c-1.892,0.425-3.825-0.284-4.94-1.827c-1.117-1.545-1.194-3.79-0.187-5.462c0.987-1.639,2.749-2.477,4.622-2.197 c2.189,0.326,4.092,2.656,3.944,4.797c-0.028,0.406-0.292,0.274-0.478,0.277C37.811,42.588,36.653,42.582,35.496,42.582z" clip-rule="evenodd"/><path fill="#124B8E" fill-rule="evenodd" d="M15.308,46.848c-1.259,0.125-1.259,0.125-1.634-0.996 c-1.415,1.377-3.101,1.496-4.871,0.977c-1.311-0.385-1.922-1.316-1.897-2.65c0.024-1.237,0.684-2.041,1.971-2.449 c0.945-0.3,1.931-0.241,2.895-0.38c0.474-0.067,0.946-0.139,1.371-0.364c0.733-0.391,0.818-1.193,0.202-1.746 c-1.18-1.057-3.7-0.557-4.41,0.853c-0.304,0.604-0.903,0.285-1.327,0.243c-0.341-0.035-0.091-0.447-0.024-0.672 c0.273-0.914,0.913-1.518,1.777-1.846c1.341-0.509,2.712-0.52,4.06-0.019c1.078,0.399,1.653,1.256,1.663,2.407 c0.01,1.272,0.001,2.545,0.002,3.816C15.086,44.969,15.023,45.92,15.308,46.848z" clip-rule="evenodd"/><path fill="#124B8E" fill-rule="evenodd" d="M2.254,37.646C2.26,36.92,2.302,36.191,2.26,35.47 c-0.03-0.517,0.207-0.514,0.561-0.397c0.607,0.201,0.802,0.67,0.833,1.264c0.068,1.316,0.075,1.316,1.433,1.316 c0.272,0,0.544,0,0.816,0c0.856,0,0.834,0,0.813,0.854c-0.009,0.376-0.156,0.458-0.491,0.449c-0.703-0.017-1.407,0.01-2.109-0.01 c-0.357-0.011-0.468,0.122-0.464,0.474c0.015,1.496-0.015,2.994,0.013,4.491c0.021,1.124,0.594,1.769,1.732,1.887 c0.762,0.079,0.334,0.593,0.409,0.907c0.105,0.443-0.248,0.371-0.511,0.375c-1.754,0.017-2.916-1.136-2.994-3.085 c-0.067-1.676-0.035-3.356-0.046-5.034C1.986,38.522,2.011,38.084,2.254,37.646z" clip-rule="evenodd"/><path fill="#0165A7" fill-rule="evenodd" d="M62.124,42.193c-3.5,1.146-6.944,2.445-10.364,3.805 c-0.043-0.049-0.06-0.107-0.045-0.172c0.108-0.162,0.278-0.252,0.428-0.365c0.673-0.295,1.03-0.99,1.678-1.318 c0.534,0.156,1.002-0.133,1.42-0.34c0.672-0.33,1.392-0.511,2.064-0.801c2.116-0.912,4.286-1.688,6.427-2.535 c1.324-0.523,2.663-1.012,3.964-1.596c0.156-0.069,0.304-0.077,0.458-0.01c0.215,0.139,0.362,0.336,0.471,0.564 c-0.465,0.568-1.182,0.821-1.796,0.996c-1.203,0.342-2.298,0.92-3.468,1.32C62.946,41.885,62.454,41.82,62.124,42.193z" clip-rule="evenodd"/><path fill="#124B8E" fill-rule="evenodd" d="M53.793,44.193c-0.473,0.541-0.901,1.135-1.632,1.367 c-0.413,0.057-0.54-0.286-0.685-0.539c-0.433-0.762-0.87-1.523-1.228-2.326c0.007-0.959-0.504-1.664-1.134-2.311 c-0.172-0.178-0.336-0.363-0.504-0.546c-0.058-0.116,0.016-0.169,0.105-0.213c0.062-0.013,0.123-0.013,0.186-0.001 c0.344,0.122,0.643,0.328,0.948,0.52c0.141,0.101,0.278,0.203,0.433,0.282c0.226,0.121,0.434,0.271,0.656,0.396 c0.1,0.053,0.199,0.105,0.296,0.165c0.139,0.095,0.276,0.192,0.429,0.269c0.229,0.121,0.441,0.27,0.662,0.403 c0.208,0.159,0.437,0.283,0.666,0.407c0.172,0.119,0.312,0.271,0.462,0.415c0.106,0.106,0.214,0.212,0.311,0.328 c0.136,0.175,0.2,0.384,0.267,0.591c0.03,0.128,0.029,0.254-0.003,0.381C53.979,43.936,53.936,44.093,53.793,44.193z" clip-rule="evenodd"/><path fill="#1AA7DD" fill-rule="evenodd" d="M47.626,39.028c-0.204-0.104-0.401-0.216-0.537-0.409 c0.497-0.623,1.299-0.579,1.949-0.862c2.491-1.085,5.11-1.854,7.577-3.007c0.279-0.131,0.569-0.119,0.863-0.107 c0.529,0.069,1.04,0.208,1.537,0.4c-0.135,0.244-0.39,0.297-0.62,0.383c-2.035,0.768-4.033,1.629-6.066,2.398 c-1.312,0.498-2.625,0.994-3.925,1.525c-0.099,0.035-0.197,0.018-0.294-0.003C47.939,39.254,47.822,39.082,47.626,39.028z" clip-rule="evenodd"/><path fill="#17A0D8" fill-rule="evenodd" d="M48.337,39.312c0.515-0.549,1.27-0.657,1.909-0.914 c1.133-0.456,2.291-0.867,3.436-1.304c1.048-0.399,2.116-0.755,3.125-1.234c0.719-0.342,1.478-0.534,2.209-0.817 c0.374,0.033,0.734,0.113,1.074,0.278c-0.055,0.255-0.263,0.346-0.471,0.443c-1.721,0.807-3.526,1.399-5.279,2.122 c-1.546,0.639-3.169,1.067-4.681,1.787c-0.263,0.125-0.51,0.165-0.771,0.023c-0.044-0.002-0.087-0.002-0.131-0.006 C48.581,39.605,48.303,39.632,48.337,39.312z" clip-rule="evenodd"/><path fill="#1DB0E6" fill-rule="evenodd" d="M45.749,37.659c0.949-0.705,2.13-0.874,3.179-1.353 c0.755-0.346,1.548-0.67,2.331-0.898c0.895-0.264,1.624-0.901,2.587-0.992c0.316-0.029,0.672-0.271,0.903-0.574 c0.475,0.065,0.923,0.219,1.361,0.408c0.047,0.295-0.202,0.311-0.375,0.391c-1.705,0.785-3.467,1.433-5.216,2.112 c-1.286,0.501-2.572,1.003-3.82,1.598C46.383,38.119,46.066,37.891,45.749,37.659z" clip-rule="evenodd"/><path fill="#189BD3" fill-rule="evenodd" d="M48.888,39.697c0.848-0.089,1.547-0.587,2.33-0.859 c2.182-0.76,4.34-1.592,6.495-2.43c0.811-0.314,1.586-0.723,2.377-1.087c0.381-0.003,0.732,0.122,1.085,0.245 c0.037,0.381-0.291,0.401-0.515,0.507c-1.166,0.546-2.387,0.954-3.578,1.435c-2.196,0.889-4.415,1.721-6.613,2.606 c-0.205,0.082-0.402,0.22-0.646,0.14C49.468,40.143,49.174,39.924,48.888,39.697z" clip-rule="evenodd"/><path fill="#187DBA" fill-rule="evenodd" d="M53.391,42.556c-0.182-0.085-0.319-0.22-0.422-0.391 c-0.061-0.358,0.233-0.39,0.451-0.475c3.41-1.34,6.833-2.645,10.247-3.972c0.68-0.265,1.345-0.673,2.128-0.613 c0.275,0.059,0.499,0.21,0.701,0.4c-0.173,0.234-0.445,0.309-0.697,0.398c-1.944,0.689-3.832,1.521-5.764,2.246 c-1.801,0.676-3.567,1.444-5.399,2.04C54.226,42.324,53.914,42.807,53.391,42.556z" clip-rule="evenodd"/><path fill="#1582BE" fill-rule="evenodd" d="M65.795,37.105c-1.514,0.586-3.009,1.223-4.544,1.743 c-1.19,0.403-2.317,0.958-3.513,1.353c-1.515,0.501-2.951,1.225-4.482,1.693c-0.14,0.043-0.229,0.141-0.287,0.271 c-0.273-0.064-0.524-0.165-0.685-0.417c0.459-0.502,1.108-0.662,1.701-0.897c2.246-0.89,4.499-1.764,6.754-2.634 c1.286-0.495,2.59-0.945,3.846-1.518c0.114-0.053,0.255-0.117,0.38,0.002C65.275,36.766,65.548,36.908,65.795,37.105z" clip-rule="evenodd"/><path fill="#1887C3" fill-rule="evenodd" d="M64.965,36.701c-2.521,1.189-5.174,2.047-7.755,3.086 c-1.639,0.658-3.275,1.328-4.926,1.961c-0.277-0.048-0.473-0.232-0.678-0.402c-0.04-0.262,0.187-0.289,0.336-0.344 c3.432-1.273,6.806-2.698,10.246-3.947c0.566-0.206,1.026-0.684,1.68-0.663c0.111,0.005,0.225-0.039,0.333,0.013 C64.482,36.436,64.737,36.531,64.965,36.701z" clip-rule="evenodd"/><path fill="#076AAB" fill-rule="evenodd" d="M53.793,44.193c0.006-0.149-0.02-0.309,0.137-0.408 c0.977-0.528,2.048-0.832,3.067-1.262c2.19-0.921,4.437-1.703,6.634-2.615c1.208-0.502,2.444-0.949,3.653-1.46 c0.157-0.067,0.308-0.06,0.46,0.005c0.137,0.136,0.272,0.272,0.409,0.408c-1.16,0.488-2.304,1.021-3.484,1.453 c-1.881,0.688-3.725,1.473-5.626,2.107c-0.469,0.156-0.922,0.49-1.4,0.634c-1.114,0.337-2.154,0.841-3.228,1.271 C54.186,44.418,53.935,44.541,53.793,44.193z" clip-rule="evenodd"/><path fill="#1BADE2" fill-rule="evenodd" d="M46.699,38.351c0.54-0.681,1.386-0.792,2.116-1.093 c2.055-0.846,4.134-1.631,6.198-2.453c0.379-0.152,0.731-0.369,1.097-0.555c0.476,0.062,0.929,0.202,1.368,0.393 c-2.064,0.809-4.125,1.628-6.195,2.424c-1.392,0.534-2.796,1.035-4.195,1.553C46.945,38.549,46.783,38.507,46.699,38.351z" clip-rule="evenodd"/><path fill="#076EAF" fill-rule="evenodd" d="M67.744,38.453c-1.778,0.729-3.548,1.48-5.337,2.18 c-2.378,0.929-4.774,1.81-7.134,2.785c-0.407,0.169-0.85,0.424-1.344,0.367c-0.002-0.135-0.004-0.27-0.006-0.405 c0.378-0.512,0.981-0.637,1.52-0.841c3.535-1.342,7.025-2.803,10.576-4.104c0.409-0.149,0.807-0.446,1.288-0.245 C67.521,38.166,67.65,38.279,67.744,38.453z" clip-rule="evenodd"/><path fill="#1891CB" fill-rule="evenodd" d="M50.921,40.93c-0.278-0.051-0.479-0.233-0.681-0.41 c0.639-0.493,1.437-0.632,2.153-0.95c2.191-0.976,4.467-1.745,6.681-2.667c0.998-0.416,2.043-0.711,3.037-1.14 c0.471,0.079,0.937,0.172,1.367,0.388c-0.149,0.264-0.44,0.382-0.68,0.404c-1.179,0.111-2.146,0.781-3.222,1.161 c-2.406,0.853-4.749,1.872-7.148,2.743C51.936,40.639,51.523,41.1,50.921,40.93z" clip-rule="evenodd"/><path fill="#0D77B5" fill-rule="evenodd" d="M53.391,42.556c1.464-0.573,2.926-1.153,4.393-1.718 c1.61-0.621,3.253-1.168,4.832-1.858c1.13-0.493,2.301-0.871,3.43-1.361c0.14-0.062,0.3-0.076,0.451-0.112 c0.17,0.041,0.312,0.126,0.413,0.271c-0.137,0.326-0.428,0.457-0.73,0.562c-2.198,0.779-4.363,1.651-6.539,2.487 c-1.627,0.626-3.261,1.241-4.883,1.883c-0.343,0.136-0.702,0.374-1.1,0.122C53.53,42.776,53.438,42.688,53.391,42.556z" clip-rule="evenodd"/><path fill="#1A96CF" fill-rule="evenodd" d="M62.111,35.763c0.13,0.213-0.01,0.282-0.18,0.32 c-0.826,0.186-1.584,0.56-2.368,0.856c-1.273,0.482-2.507,1.086-3.805,1.48c-1.891,0.577-3.585,1.652-5.519,2.1 c-0.187-0.016-0.32-0.11-0.417-0.266c1.38-0.718,2.862-1.188,4.298-1.771c0.891-0.362,1.795-0.693,2.688-1.048 c1.29-0.513,2.574-1.037,3.863-1.551c0.189-0.076,0.393-0.121,0.502-0.318C61.486,35.632,61.799,35.697,62.111,35.763z" clip-rule="evenodd"/><path fill="#0C73B3" fill-rule="evenodd" d="M53.657,42.832c1.455-0.312,2.785-0.975,4.172-1.48 c1.738-0.634,3.473-1.287,5.188-1.977c1.299-0.521,2.666-0.894,3.893-1.598c0.133,0.139,0.266,0.275,0.398,0.412 c-1.929,0.597-3.791,1.379-5.674,2.102c-2.355,0.904-4.69,1.863-7.034,2.801c-0.228,0.09-0.45,0.191-0.676,0.288 C53.835,43.197,53.746,43.015,53.657,42.832z" clip-rule="evenodd"/><path fill="#1A8BC6" fill-rule="evenodd" d="M64.201,36.404c-1.386,0.413-2.649,1.129-4.011,1.617 c-2.406,0.865-4.782,1.82-7.15,2.785c-0.475,0.193-0.992,0.266-1.434,0.539c-0.194-0.01-0.328-0.113-0.425-0.275 c0.972-0.592,2.064-0.914,3.107-1.332c1.506-0.604,3.035-1.156,4.548-1.742c1.235-0.48,2.43-1.059,3.723-1.392 c0.441-0.114,0.822-0.465,1.329-0.317C64.009,36.281,64.125,36.291,64.201,36.404z" clip-rule="evenodd"/><path fill="#0760A2" fill-rule="evenodd" d="M62.124,42.193c-0.004-0.367,0.332-0.459,0.542-0.475 c0.768-0.06,1.422-0.371,2.057-0.76c0.097-0.059,0.189-0.139,0.294-0.162c1.277-0.262,2.438-0.829,3.607-1.371 c0.771,1.027,0.772,1.031-0.458,1.263C66.123,41.072,64.131,41.662,62.124,42.193z" clip-rule="evenodd"/><path fill="#188DC7" fill-rule="evenodd" d="M63.889,36.287c-1.151,0.154-2.15,0.762-3.24,1.108 c-1.338,0.426-2.585,1.116-3.916,1.597c-1.372,0.494-2.752,0.98-4.077,1.604c-0.464,0.218-0.98,0.319-1.474,0.474 c-0.087-0.047-0.174-0.094-0.261-0.141c1.995-0.799,3.988-1.602,5.987-2.393c1.107-0.438,2.21-0.895,3.341-1.26 c0.404-0.131,0.772-0.352,1.14-0.516c0.684-0.306,1.428-0.305,2.09-0.611C63.632,36.146,63.779,36.16,63.889,36.287z" clip-rule="evenodd"/><path fill="#22B6E9" fill-rule="evenodd" d="M42.759,50.207c-0.983,0.549-1.967,1.098-2.95,1.648 c-0.157,0.088-0.373,0.24-0.482,0.061c-0.15-0.249,0.159-0.328,0.303-0.432c0.99-0.714,1.989-1.415,2.985-2.12 C42.843,49.613,42.912,49.891,42.759,50.207z" clip-rule="evenodd"/><path fill="#085194" fill-rule="evenodd" d="M50.249,42.695c0.521,0.373,0.65,0.997,0.953,1.509 c0.283,0.479,0.467,1.024,0.959,1.356c-0.079,0.178-0.216,0.269-0.41,0.271c-0.313,0.364-0.498,0.038-0.621-0.162 c-0.437-0.708-0.925-1.391-1.217-2.179C50.025,43.225,50.137,42.961,50.249,42.695z" clip-rule="evenodd"/><path fill="#066EAD" fill-rule="evenodd" d="M47.794,45.552c0.273-0.226,0.547-0.45,0.82-0.675 c0.488,0.596,0.874,1.258,1.258,1.922c-0.288,0.2-0.603,0.339-0.945,0.416c-0.257,0.074-0.386-0.107-0.478-0.281 C48.21,46.483,47.824,46.1,47.794,45.552z" clip-rule="evenodd"/><path fill="#0F589B" fill-rule="evenodd" d="M49.913,43.49c0.629,0.625,0.888,1.49,1.408,2.188 c0.13,0.176,0.227,0.267,0.43,0.153c0.003,0.057,0.006,0.112,0.009,0.167c-0.194,0.137-0.402,0.236-0.641,0.264 c-0.207,0.065-0.354-0.046-0.464-0.189c-0.425-0.551-0.729-1.181-1.126-1.751c-0.075-0.108-0.053-0.259,0.048-0.372 C49.688,43.796,49.801,43.643,49.913,43.49z" clip-rule="evenodd"/><path fill="#0765A7" fill-rule="evenodd" d="M49.872,46.799c-0.61-0.516-0.985-1.186-1.258-1.922 c0.137-0.196,0.308-0.353,0.525-0.455c0.389,0.23,0.608,0.607,0.792,0.99c0.183,0.377,0.447,0.709,0.593,1.104 C50.353,46.715,50.075,46.672,49.872,46.799z" clip-rule="evenodd"/><path fill="#FED20D" fill-rule="evenodd" d="M2.254,37.646c0.066,0.438,0.063,0.876,0,1.314 c-0.202,0-0.408-0.021-0.606,0.008c-0.507,0.07-0.634-0.134-0.647-0.637c-0.014-0.57,0.161-0.773,0.715-0.686 C1.891,37.674,2.075,37.646,2.254,37.646z" clip-rule="evenodd"/><path fill="#075FA0" fill-rule="evenodd" d="M50.524,46.517c-0.085-0.14-0.329-0.013-0.373-0.218 c-0.157-0.725-0.693-1.242-1.012-1.877c0.146-0.157,0.291-0.315,0.438-0.473c0.448,0.813,0.819,1.68,1.542,2.312 C50.949,46.412,50.745,46.484,50.524,46.517z" clip-rule="evenodd"/><path fill="#169AD2" fill-rule="evenodd" d="M46.03,48.559c-0.338,0.242-0.698,0.436-1.104,0.541 c-0.615-0.019-0.616-0.48-0.663-0.912c0.316-0.23,0.633-0.462,0.949-0.692C45.766,47.635,45.763,48.201,46.03,48.559z" clip-rule="evenodd"/><path fill="#187EBB" fill-rule="evenodd" d="M46.565,46.501c0.228-0.182,0.455-0.364,0.682-0.546 c0.634,0.314,0.607,1.111,1.114,1.52c-0.167,0.139-0.351,0.238-0.569,0.262C47.075,47.744,46.703,47.371,46.565,46.501z" clip-rule="evenodd"/><path fill="#0D77B5" fill-rule="evenodd" d="M48.361,47.475c-0.265-0.003-0.42-0.173-0.483-0.393 c-0.123-0.43-0.446-0.737-0.631-1.127c0.183-0.134,0.365-0.27,0.547-0.403c0.478,0.485,0.558,1.242,1.133,1.663 C48.771,47.373,48.576,47.445,48.361,47.475z" clip-rule="evenodd"/><path fill="#1A90C9" fill-rule="evenodd" d="M46.03,48.559c-0.53-0.157-0.373-0.841-0.817-1.063 c0.268-0.198,0.535-0.397,0.802-0.596c0.491,0.282,0.476,0.908,0.859,1.263C46.622,48.357,46.341,48.488,46.03,48.559z" clip-rule="evenodd"/><path fill="#1987C2" fill-rule="evenodd" d="M46.874,48.162c-0.571-0.227-0.578-0.838-0.859-1.263 c0.184-0.134,0.367-0.265,0.551-0.398c0.362,0.458,0.474,1.165,1.227,1.235C47.547,48.01,47.152,47.961,46.874,48.162z" clip-rule="evenodd"/><path fill="#1DA5DA" fill-rule="evenodd" d="M44.264,48.188c0.23,0.297,0.29,0.719,0.663,0.912 c-0.31,0.279-0.725,0.352-1.076,0.551c-0.357-0.104-0.38-0.494-0.604-0.711C43.542,48.629,43.902,48.406,44.264,48.188z" clip-rule="evenodd"/><path fill="#1EACE1" fill-rule="evenodd" d="M43.247,48.939c0.386,0.08,0.529,0.365,0.604,0.711 c-0.364,0.186-0.728,0.37-1.092,0.557c-0.05-0.281-0.188-0.547-0.145-0.843C42.825,49.223,43.036,49.08,43.247,48.939z" clip-rule="evenodd"/><path fill="#095C9F" fill-rule="evenodd" d="M48.337,39.312c0.14,0.126,0.28,0.252,0.42,0.379 c-0.049,0.049-0.098,0.099-0.146,0.147c-0.18-0.144-0.358-0.29-0.537-0.435c-0.041-0.029-0.054-0.059-0.041-0.089 s0.025-0.044,0.039-0.044C48.16,39.284,48.249,39.299,48.337,39.312z" clip-rule="evenodd"/><path fill="#337AB3" fill-rule="evenodd" d="M48.072,39.271c0.005,0.044,0.005,0.088,0.002,0.133 c-0.186-0.082-0.338-0.203-0.448-0.376C47.833,39.002,47.978,39.092,48.072,39.271z" clip-rule="evenodd"/><path fill="#FFF" fill-rule="evenodd" d="M34.781,41.402c-0.885,0-1.77-0.014-2.654,0.006 c-0.44,0.008-0.488-0.146-0.346-0.527c0.473-1.271,1.701-2.189,2.99-2.204c1.258-0.014,2.448,0.862,2.97,2.122 c0.219,0.526,0.048,0.619-0.443,0.605c-0.838-0.025-1.678-0.008-2.517-0.008C34.781,41.398,34.781,41.4,34.781,41.402z" clip-rule="evenodd"/><path fill="#FFF" fill-rule="evenodd" d="M13.744,41.859c0,0.386-0.018,0.701,0.003,1.016 c0.068,1.053-0.209,1.958-1.196,2.469c-1.164,0.604-2.394,0.744-3.587,0.115c-0.976-0.516-0.957-1.811-0.009-2.395 c0.661-0.406,1.414-0.455,2.161-0.5C12.254,42.496,12.78,42.367,13.744,41.859z" clip-rule="evenodd"/></svg>