<svg xmlns="http://www.w3.org/2000/svg" id="Layer_1" width="834.93" height="834.93" viewBox="0 0 834.93 834.93"><defs><style>.cls-1{fill:#2e338a;}.cls-2{fill:#bed731;}.cls-3{fill:none;}</style></defs><path d="M686.86,407c-.39-10.31-.66-13.3-1.31-17.39-3.46-21.5-17-48.5-54-57.66-63.31-15.7-129.33,17.21-129.33,17.21v49.15s28-17.28,65.44-17.88,40.55,13,42,17.94,1.29,18.3,1.29,18.3-21.37-6-51.79-3.46c-27.25,2.24-85.18,13.93-81.82,77.68,2.52,48.34,47,65.62,77.64,63.33,41.95-3.12,63.16-33,63.16-33l16.12,32.38h52.63l.21-135.54S687.1,412.68,686.86,407ZM580.26,508.14a32.3,32.3,0,1,1,32.58-32.3A32.44,32.44,0,0,1,580.26,508.14Z" class="cls-1"/><path d="M219.93,407c-.39-10.31-.66-13.3-1.31-17.39-3.46-21.5-17-48.5-54-57.66-63.31-15.69-129.33,17.21-129.33,17.21v49.15s28-17.28,65.44-17.88,40.55,13,42,17.94S144,416.7,144,416.7s-21.37-6-51.79-3.46C65,415.48,7,427.17,10.39,490.92c2.52,48.34,47,65.62,77.64,63.33,41.95-3.12,63.16-33,63.16-33l16.12,32.38h52.63l.21-135.54S220.17,412.68,219.93,407ZM113.33,508.14a32.3,32.3,0,1,1,32.58-32.3A32.44,32.44,0,0,1,113.33,508.14Z" class="cls-1"/><path d="M319.3,250.41V355.07h0c6.07-8.95,15.86-15.47,25.84-20.1S366.7,328,379.91,328q36.9,0,57.4,21.09t20.49,59.05V553.68H381.46V431.1c.15-29.44-11.82-43.5-29.3-43.92a29.72,29.72,0,0,0-25.65,13.46c-7.24,10.68-7.61,22.75-7.61,53.57v99.46H243V250.41h76.37" class="cls-1"/><path d="M701.57,396.24a14,14,0,0,0,7.91,18.19l33.15,12.62a14.16,14.16,0,0,0,18.15-8.27l64-143.44a14,14,0,0,0-7.91-18.19L769.08,239a14.16,14.16,0,0,0-18.15,8.27Z" class="cls-2"/><ellipse cx="702.36" cy="475.84" class="cls-2" rx="32.58" ry="32.31"/><rect x="-113.24" y="-113.24" width="1000" height="1000" class="cls-3"/></svg>