<svg xmlns="http://www.w3.org/2000/svg" id="Layer_1" width="70" height="70" x="0" y="0" enable-background="new 0 0 70 70" version="1.1" viewBox="0 0 70 70" xml:space="preserve"><g><path fill="#D0A234" d="M32.025,31.471l0.001-7.181l0.029-0.095c0.008-0.014,0.038-0.035,0.082-0.059l0.244-0.141l0.024-0.014 l0.002-0.162h-2.693l-0.001,0.152l0.252,0.156c0.042,0.027,0.07,0.057,0.082,0.072l-0.007,7.159l-0.033,0.11 c-0.015,0.023-0.042,0.049-0.068,0.062l-0.233,0.143l-0.021,0.016v0.154l2.692,0.008l0.001-0.156l-0.264-0.156 C32.062,31.515,32.03,31.487,32.025,31.471"/><path fill="#D0A234" d="M38.985,30.924l0.097-0.096l1.92-1.914l-0.011-4.598l0.015-0.093l0.075-0.065l0.244-0.136l0.026-0.013 l0.001-0.156l-2.701-0.01v0.158l0.263,0.156c0.088,0.052,0.113,0.098,0.113,0.15l-0.009,2.438l-5.72-0.017l-1.211,1.428 l0.179,0.058l0.025,0.003l0.371-0.199c0.081-0.045,0.145-0.072,0.186-0.084c0.041-0.01,0.097-0.02,0.175-0.02l5.992,0.02 L38.985,30.924z"/><path fill="#D0A234" d="M45.536,25.372l-6.688,6.511l2.903,0.01v-0.178h-0.055c-0.057,0-0.112-0.01-0.15-0.014 c-0.119-0.02-0.164-0.052-0.176-0.082l5.281-5.122L45.536,25.372z"/><path fill="#D0A234" d="M68.713,27.081c-0.324-0.97-1.061-1.753-2.204-2.353c-1.035-0.547-2.532-0.827-4.491-0.832h-7.57v0.145 l0.253,0.154c0.04,0.031,0.064,0.053,0.076,0.07l-0.003,0.795l3.721,0.012v0.005l3.509,0.011c1.487,0.004,2.565,0.191,3.226,0.557 c1.05,0.579,1.57,1.34,1.569,2.308c-0.002,0.495-0.145,0.933-0.418,1.323c-0.272,0.385-0.685,0.713-1.237,0.98 c-0.706,0.34-1.78,0.516-3.222,0.513l-3.851-0.014l0.019-5.256h-1.979l-0.002,5.949l-0.033,0.105 c-0.016,0.018-0.04,0.04-0.07,0.063l-0.228,0.135l-0.024,0.014l-0.001,0.168h6.174c1.205,0.004,2.131-0.047,2.789-0.169 c0.893-0.175,1.684-0.469,2.37-0.901c0.686-0.428,1.171-0.918,1.459-1.477c0.216-0.411,0.315-0.855,0.318-1.324 C68.863,27.719,68.811,27.391,68.713,27.081"/><path fill="#D0A234" d="M45.932,24.99l1.295,1.294l1.466,1.394l-2.438-0.008l-1.208,1.237l0.147,0.075l0.028,0.01l0.284-0.141 c0.036-0.014,0.068-0.024,0.096-0.026c0.024-0.006,0.159-0.006,0.368-0.005l3.873,0.013l2.7,2.694 c0.021,0.012,0.03,0.018,0.042,0.046l0.026,0.083c-0.001,0.036-0.074,0.09-0.33,0.088l-0.056-0.002v0.184l2.936,0.008l-8.098-8.05 L45.932,24.99z"/><path fill="#D0A234" d="M26.15,24.061l0.256,0.156c0.087,0.057,0.12,0.105,0.12,0.153L26.5,31.447l-0.037,0.113 c-0.028,0.022-0.058,0.045-0.081,0.061l-0.235,0.144l-0.025,0.013l-0.001,0.158l2.673,0.008l0.001-0.156l-0.235-0.157 c-0.045-0.028-0.072-0.058-0.076-0.067l0.001-7.186l0.036-0.104l0.069-0.059l0.211-0.133l0.021-0.014v-0.16h-2.672L26.15,24.061z"/><path fill="#D0A234" d="M14.408,30.676c-0.081,0.043-0.146,0.072-0.189,0.082l-6.225-0.003c-1.442-0.007-2.523-0.185-3.236-0.529 c-1.085-0.532-1.616-1.298-1.615-2.322c0.001-0.468,0.144-0.901,0.428-1.304c0.539-0.74,1.361-1.211,2.484-1.404 c0.31-0.048,0.56-0.08,0.742-0.095c0.34-0.018,0.721-0.023,1.144-0.021l1.928,0.007c0.207,0.017,0.266,0.073,0.261,0.107v0.017 l-0.017,0.093l-0.009,0.06l0.179,0.002l1.29-1.45l-3.62-0.011c-0.888-0.003-1.57,0.021-2.047,0.073 c-0.267,0.029-0.504,0.07-0.725,0.117c-0.61,0.128-1.212,0.342-1.804,0.655c-0.928,0.487-1.59,1.103-1.978,1.851 c-0.215,0.421-0.324,0.886-0.323,1.396c-0.008,1.298,0.731,2.328,2.2,3.072c0.674,0.351,1.415,0.584,2.225,0.713 c0.613,0.096,1.441,0.146,2.494,0.148l5.762,0.018l1.297-1.469h-0.282L14.408,30.676z"/><path fill="#D0A234" d="M11.781,28.217l-0.008,0.059h0.194l1.269-1.477L4.3,26.771l-0.847,1.178l8.089,0.024 c0.195,0.021,0.26,0.074,0.257,0.11l-0.001,0.022L11.781,28.217z"/><path fill="#D0A234" d="M12.55,23.91l-1.208,1.388l0.184,0.062l0.018,0.003l0.371-0.175c0.122-0.074,0.243-0.108,0.361-0.108 l5.056,0.017v6.359l-0.042,0.105c-0.026,0.029-0.057,0.051-0.078,0.057l-0.236,0.144l-0.024,0.017v0.158l2.693,0.008v-0.159 l-0.273-0.158l-0.084-0.074c0.003,0.005-0.007-0.035-0.004-0.091l0.023-6.352h4.507c0.188,0.021,0.245,0.076,0.238,0.116v0.173 l0.171,0.002l1.296-1.49H12.55z"/><path fill="#D0A234" d="M41.953,38.188h0.917l-1.599-1.871c0.831-0.21,1.251-0.836,1.251-1.673c0-1.07-0.642-1.581-1.9-1.581 h-1.581v5.125h0.809v-1.796h0.662L41.953,38.188z M39.85,35.849v-2.177h0.772c0.808,0,1.085,0.377,1.085,1.047 c0,0.662-0.277,1.13-1.085,1.13H39.85z M45.321,38.307c0.816,0,1.266-0.25,1.48-0.443v-0.694c-0.215,0.241-0.655,0.503-1.407,0.503 c-0.911,0-1.346-0.512-1.386-1.288h2.974v-0.519c0-1.491-0.878-1.899-1.827-1.899c-0.973,0-1.961,0.655-1.961,2.171 C43.194,37.629,44.025,38.307,45.321,38.307 M44.018,35.849c0.031-0.753,0.481-1.265,1.131-1.265c0.672,0,1.061,0.369,1.061,1.16 v0.104H44.018z M49.182,39.748c1.329,0,2.112-0.664,2.112-1.926v-3.738h-0.616l-0.104,0.271c-0.214-0.271-0.72-0.39-1.106-0.39 c-1.108,0-1.891,0.737-1.891,2.081c0,1.332,0.742,1.951,1.747,1.951c0.555,0,0.988-0.189,1.18-0.438v0.34 c0,0.836-0.444,1.215-1.29,1.215c-0.671,0-1.155-0.25-1.399-0.476v0.769C48.004,39.567,48.502,39.748,49.182,39.748 M50.504,36.903 c-0.134,0.298-0.515,0.483-0.99,0.483c-0.798,0-1.13-0.535-1.13-1.34c0-0.822,0.387-1.486,1.178-1.486 c0.317,0,0.736,0.075,0.942,0.377V36.903z M52.331,38.188h0.791v-4.102h-0.791V38.188z M52.726,33.498 c0.294,0,0.459-0.135,0.459-0.385c0-0.256-0.165-0.4-0.459-0.4c-0.293,0-0.435,0.145-0.435,0.4 C52.291,33.363,52.433,33.498,52.726,33.498 M55.905,38.307c1.109,0,2.051-0.678,2.051-2.17c0-1.485-0.8-2.171-1.962-2.171 c-1.114,0-2.058,0.686-2.058,2.171C53.937,37.629,54.743,38.307,55.905,38.307 M55.937,37.682c-0.781,0-1.193-0.58-1.193-1.545 c0-0.966,0.428-1.553,1.21-1.553c0.794,0,1.203,0.587,1.203,1.553C57.156,37.102,56.728,37.682,55.937,37.682 M58.771,38.188h0.79 v-3.176c0.118-0.209,0.457-0.467,1.005-0.467c0.687,0,0.955,0.34,0.955,1.177v2.466h0.785v-2.603c0-1.101-0.45-1.619-1.551-1.619 c-0.61,0-1.036,0.249-1.194,0.505l-0.057-0.387h-0.733V38.188z M64.83,38.307c0.662,0,1.066-0.27,1.21-0.589 c0.101,0.349,0.34,0.545,0.751,0.545c0.3,0,0.49-0.106,0.553-0.183v-0.564c-0.079,0.069-0.173,0.137-0.341,0.137 c-0.156,0-0.26-0.113-0.26-0.363v-3.205H66.15l-0.118,0.302c-0.191-0.253-0.578-0.42-1.054-0.42c-1.073,0-1.882,0.737-1.882,2.231 C63.097,37.682,63.856,38.307,64.83,38.307 M65.961,37.19c-0.135,0.31-0.499,0.497-0.941,0.497c-0.761,0-1.114-0.535-1.114-1.49 c0-0.973,0.41-1.637,1.169-1.637c0.396,0,0.743,0.129,0.887,0.377V37.19z M68.024,38.188h0.791v-5.602h-0.791V38.188z"/><path fill="#EF3831" d="M36.806,33.098h-3.287h-0.491H32.71c-0.249,0-0.451,0.19-0.451,0.428v4.242 c0,0.234,0.202,0.426,0.451,0.426h0.501h3.095h0.499c0.25,0,0.452-0.191,0.452-0.426v-4.242 C37.258,33.288,37.056,33.098,36.806,33.098"/><polygon fill="#FFF" points="35.896 35.292 35.096 35.292 35.096 34.576 34.422 34.576 34.422 35.292 33.622 35.292 33.622 36 34.422 36 34.422 36.715 35.096 36.715 35.096 36 35.896 36"/><path fill="#4E443F" d="M26.742,46.344c0-0.715,0.473-1.072,0.955-1.072c0.565,0,0.952,0.357,0.952,1.072 c0,0.721-0.471,1.076-0.952,1.076C27.127,47.42,26.742,47.07,26.742,46.344 M28.34,46.357c0-0.547-0.252-0.824-0.643-0.824 c-0.374,0-0.645,0.273-0.645,0.797c0,0.555,0.249,0.826,0.645,0.826C28.067,47.156,28.34,46.879,28.34,46.357"/><path fill="#4E443F" d="M28.993,45.73h0.276l0.022,0.164c0.054-0.109,0.206-0.213,0.451-0.213c0.403,0,0.657,0.232,0.657,0.83 c0,0.596-0.324,0.908-0.724,0.908c-0.122,0-0.305-0.025-0.384-0.135v0.662h-0.298V45.73z M30.093,46.523 c0-0.383-0.121-0.598-0.422-0.598c-0.188,0-0.332,0.08-0.379,0.189v0.916c0.07,0.117,0.23,0.15,0.353,0.15 C29.945,47.182,30.093,46.912,30.093,46.523"/><path fill="#4E443F" d="M30.649,46.553c0-0.607,0.375-0.871,0.741-0.871c0.357,0,0.688,0.16,0.688,0.76v0.209h-1.121 c0.014,0.311,0.179,0.516,0.521,0.516c0.285,0,0.451-0.107,0.532-0.201v0.277c-0.081,0.076-0.25,0.178-0.559,0.178 C30.962,47.42,30.649,47.148,30.649,46.553 M31.786,46.436v-0.043c0-0.316-0.147-0.463-0.399-0.463 c-0.245,0-0.416,0.203-0.427,0.506H31.786z"/><path fill="#4E443F" d="M32.413,45.73h0.261l0.024,0.242c0.025-0.188,0.184-0.291,0.345-0.291c0.082,0,0.138,0.018,0.166,0.035 v0.281c-0.044-0.035-0.104-0.049-0.198-0.049c-0.131,0-0.248,0.076-0.297,0.219v1.205h-0.299V45.73z"/><path fill="#4E443F" d="M33.34,46.574c0-0.598,0.303-0.893,0.709-0.893c0.179,0,0.325,0.066,0.396,0.168l0.046-0.119h0.224v1.281 c0,0.1,0.038,0.145,0.099,0.145c0.062,0,0.098-0.025,0.127-0.053v0.225c-0.024,0.033-0.095,0.074-0.209,0.074 c-0.155,0-0.244-0.08-0.283-0.221c-0.055,0.131-0.206,0.238-0.458,0.238C33.625,47.42,33.34,47.168,33.34,46.574 M34.42,46.07 c-0.056-0.102-0.187-0.15-0.335-0.15c-0.287,0-0.442,0.264-0.442,0.654c0,0.383,0.135,0.596,0.42,0.596 c0.168,0,0.306-0.074,0.357-0.197V46.07z"/><path fill="#4E443F" d="M35.296,46.977v-1.008h-0.209v-0.09l0.177-0.148l0.22-0.387h0.108v0.387h0.456l-0.083,0.238h-0.374v0.988 c0,0.139,0.051,0.213,0.17,0.213c0.116,0,0.199-0.062,0.248-0.131v0.266c-0.044,0.049-0.148,0.115-0.313,0.115 C35.421,47.42,35.296,47.26,35.296,46.977"/><path fill="#4E443F" d="M36.229,46.553c0-0.607,0.374-0.871,0.739-0.871c0.36,0,0.69,0.16,0.69,0.76v0.209h-1.122 c0.015,0.311,0.18,0.516,0.522,0.516c0.283,0,0.451-0.107,0.532-0.201v0.277c-0.081,0.076-0.251,0.178-0.56,0.178 C36.542,47.42,36.229,47.148,36.229,46.553 M37.365,46.436v-0.043c0-0.316-0.146-0.463-0.399-0.463 c-0.244,0-0.415,0.203-0.426,0.506H37.365z"/><path fill="#4E443F" d="M37.91,46.574c0-0.598,0.295-0.893,0.715-0.893c0.124,0,0.308,0.023,0.389,0.133v-0.686h0.299v2.244h-0.278 l-0.021-0.162c-0.054,0.102-0.203,0.209-0.445,0.209C38.188,47.42,37.91,47.168,37.91,46.574 M39.014,46.066 c-0.068-0.115-0.232-0.146-0.354-0.146c-0.303,0-0.446,0.264-0.446,0.654c0,0.383,0.123,0.6,0.423,0.6 c0.19,0,0.334-0.078,0.378-0.189V46.066z"/><path fill="#4E443F" d="M40.725,47.248l-0.045,0.125h-0.227v-2.244h0.298v0.766c0.051-0.109,0.216-0.213,0.451-0.213 c0.403,0,0.657,0.232,0.657,0.83c0,0.596-0.322,0.908-0.723,0.908C40.947,47.42,40.8,47.35,40.725,47.248 M40.751,47.031 c0.075,0.119,0.235,0.15,0.354,0.15c0.3,0,0.45-0.27,0.45-0.658c0-0.383-0.124-0.598-0.424-0.598c-0.184,0-0.325,0.076-0.38,0.189 V47.031z"/><path fill="#4E443F" d="M42.026,47.908v-0.266c0.062,0.07,0.151,0.119,0.264,0.119c0.15,0,0.271-0.102,0.363-0.365l-0.66-1.666 h0.326l0.471,1.273l0.358-1.273h0.295l-0.468,1.543C42.855,47.664,42.688,48,42.301,48C42.175,48,42.071,47.953,42.026,47.908"/><path fill="#4E443F" d="M58.303,47.424h0.295l0.807-2.133l0.053-0.17l0.061,0.17l0.455,1.225h-0.985l0.101,0.23h0.971l0.251,0.678 h0.321l-1.049-2.759h-0.215L58.303,47.424z M60.938,47.424h0.305v-2.182h-0.305V47.424z M61.092,44.885 c0.118,0,0.184-0.061,0.184-0.164c0-0.107-0.065-0.162-0.184-0.162s-0.175,0.055-0.175,0.162 C60.917,44.824,60.974,44.885,61.092,44.885 M61.803,47.424h0.305v-1.625c0.064-0.23,0.238-0.352,0.428-0.352 c0.119,0,0.197,0.027,0.257,0.066V45.23c-0.035-0.026-0.114-0.05-0.223-0.05c-0.22,0-0.435,0.138-0.478,0.403l-0.022-0.342h-0.267 V47.424z M63.109,47.424h0.303v-2.977h-0.303V47.424z M63.973,47.424h0.305v-2.182h-0.305V47.424z M64.125,44.885 c0.119,0,0.184-0.061,0.184-0.164c0-0.107-0.064-0.162-0.184-0.162c-0.114,0-0.174,0.055-0.174,0.162 C63.951,44.824,64.011,44.885,64.125,44.885 M64.837,47.424h0.305v-1.74c0.061-0.115,0.264-0.268,0.571-0.268 c0.386,0,0.556,0.186,0.556,0.658v1.35h0.301v-1.406c0-0.578-0.239-0.841-0.787-0.841c-0.332,0-0.564,0.146-0.641,0.28 l-0.021-0.215h-0.284V47.424z M68.047,47.486c0.408,0,0.627-0.139,0.733-0.244v-0.285c-0.106,0.127-0.325,0.277-0.706,0.277 c-0.504,0-0.751-0.293-0.767-0.801h1.554v-0.258c0-0.779-0.422-0.999-0.896-0.999c-0.481,0-0.97,0.337-0.97,1.157 C66.995,47.131,67.394,47.486,68.047,47.486 M67.308,46.219c0.016-0.516,0.294-0.789,0.657-0.789c0.369,0,0.594,0.199,0.594,0.697 v0.092H67.308z"/><path fill="#4E443F" d="M45.417,47.424h0.727c0.778,0,1.387-0.365,1.387-1.383c0-1.008-0.502-1.372-1.387-1.376h-0.727V47.424z M45.726,47.156v-2.226h0.418c0.763,0,1.074,0.339,1.074,1.122c0,0.797-0.357,1.104-1.074,1.104H45.726z M48.76,47.486 c0.332,0,0.56-0.145,0.636-0.336c0.036,0.203,0.147,0.312,0.343,0.312c0.133,0,0.222-0.047,0.254-0.086v-0.24 c-0.036,0.041-0.085,0.082-0.17,0.082c-0.102,0-0.153-0.076-0.153-0.238v-1.738h-0.232l-0.045,0.178 c-0.104-0.16-0.34-0.243-0.562-0.243c-0.548,0-0.949,0.392-0.949,1.188C47.88,47.156,48.244,47.486,48.76,47.486 M49.367,46.92 c-0.071,0.207-0.291,0.318-0.542,0.318c-0.427,0-0.639-0.293-0.639-0.873c0-0.582,0.252-0.945,0.679-0.945 c0.193,0,0.423,0.066,0.502,0.232V46.92z M50.346,47.424h0.304v-1.625c0.065-0.23,0.24-0.352,0.432-0.352 c0.115,0,0.193,0.027,0.255,0.066V45.23c-0.036-0.024-0.113-0.05-0.225-0.05c-0.218,0-0.433,0.138-0.479,0.403l-0.02-0.342h-0.268 V47.424z M52.033,47.424h0.191l0.566-1.629l0.564,1.629h0.195l0.583-2.182h-0.283l-0.423,1.645l-0.562-1.645H52.74l-0.563,1.645 l-0.431-1.645h-0.305L52.033,47.424z M54.488,47.424h0.303v-2.182h-0.303V47.424z M54.641,44.885c0.118,0,0.184-0.057,0.184-0.164 s-0.065-0.162-0.184-0.162c-0.117,0-0.174,0.055-0.174,0.162S54.523,44.885,54.641,44.885 M55.352,47.424h0.306v-1.74 c0.061-0.115,0.262-0.268,0.571-0.268c0.385,0,0.556,0.188,0.556,0.658v1.35h0.301v-1.406c0-0.578-0.24-0.841-0.788-0.841 c-0.332,0-0.564,0.146-0.64,0.28l-0.021-0.215h-0.284V47.424z"/></g></svg>