<svg xmlns="http://www.w3.org/2000/svg" id="Layer_1" width="70" height="70" x="0" y="0" version="1.1" viewBox="0 0 70 70" xml:space="preserve" style="enable-background:new 0 0 70 70"><g><g><path d="M1.7,33.3H0.5v-3.2h1.2v-0.8c0-2.9,2.1-5,5.7-5c0.5,0,1.1,0,1.1,0l0,3.1c-0.4,0,0,0-0.3,0c-2.1,0-2.7,1-2.7,2.3v0.4h3.2 v3.2h-3v8H1.7V33.3z"/><path d="M10.3,24.3h4.1v17h-4.1V24.3z"/><path d="M42.9,30.1c-1.7,0-2.8,0.4-3.6,1.6L39,30.1h-3.3v11.2h4v-4.2c0-3.7,3.3-3,3.3-3L42.9,30.1L42.9,30.1z"/><path d="M27.9,30.1v11.2H24v-1.4l0,0c-0.6,0.7-2,1.4-3.2,1.4c-3.1,0-4.9-2.1-4.9-5.6c0-3.4,2.1-5.6,4.9-5.6c1.6,0,2.9,0.5,3.7,1.6 l0,0l0.3-1.6H27.9z M24,35.7c0-1.3-1.1-2.2-2.2-2.2c-1.2,0-2.2,0.9-2.2,2.2c0,1.4,1,2.3,2.2,2.3C22.8,37.9,24,37.1,24,35.7z"/><path d="M29.7,30.1h4.1v11.2h-4.1V30.1z"/><circle cx="58.2" cy="35.4" r="11.3"/><circle cx="31.8" cy="26.5" r="2.3"/></g><g><path d="M66.6,24.8h-0.5v-0.3h1.3v0.3h-0.5v1.5h-0.3V24.8z"/><path d="M69.4,24.5v1.8h-0.3v-1.2h0L68.6,26h-0.2l-0.5-0.9h0v1.2h-0.3v-1.8h0.3l0.6,1.1h0l0.6-1.1H69.4z"/></g></g></svg>