<svg xmlns="http://www.w3.org/2000/svg" id="Layer_1" width="70" height="70" x="0" y="0" enable-background="new 0 0 70 70" version="1.1" viewBox="0 0 70 70" xml:space="preserve"><g><g><path fill="#006241" d="M67.535,7.327H23.573c-5.086,0-7.62,2.355-9.358,9.214l-2.147,8.033c-0.084,0.24,0.188,0.408,0.396,0.257 c0,0,2.507-1.717,6.881-1.717h37.229c4.623,0,8.102-4.111,9.057-7.656l2.104-7.866C67.784,7.445,67.697,7.327,67.535,7.327z"/><path fill="#006241" d="M60.211,27.268H18.235c-5.086,0-7.29,1.935-9.353,9.214l-2.169,8.021 c-0.084,0.239,0.167,0.421,0.371,0.268c0,0,2.661-1.718,7.032-1.718h34.161c5.346,0,9.09-4.18,10.749-10.341l1.385-5.179 C60.463,27.388,60.37,27.268,60.211,27.268z"/><path fill="#006241" d="M32.058,47.21H12.885c-4.949,0-7.483,2.235-9.219,8.675l-1.833,6.85C1.796,62.874,1.876,63,2.035,63 l18.313-0.004c4.622,0,8.541-2.946,10.241-9.284l1.673-6.24C32.293,47.354,32.221,47.21,32.058,47.21z"/></g></g></svg>