<svg xmlns="http://www.w3.org/2000/svg" version="1.1" id="Layer_1" x="0px" y="0px" width="70" height="70" viewBox="0 0 70 70" xml:space="preserve" style="enable-background:new 0 0 70 70;"><style type="text/css">
	.st0{clip-path:url(#SVGID_1_);}
	.st1{clip-path:url(#SVGID_2_);}
	.st2{clip-path:url(#SVGID_3_);}
	.st3{clip-path:url(#SVGID_4_);}
	.st4{fill:#E90E8C;}
	.st5{fill:#1D93D1;}
</style><g id="Layer_2"><g id="Layer_1-2"><g><defs><rect id="SVGID_9_" x="12.5" y="39" width="56.3" height="6.9"/></defs><defs><path id="SVGID_10_" d="M14.6,45.9L14.6,45.9L14.6,45.9z M12.5,43.9L12.5,43.9L12.5,43.9z M68.7,42.8l-0.1,0L68.7,42.8       M26.8,40.3L26.8,40.3L26.8,40.3z M26.8,40.3l0.1,0L26.8,40.3z M47.6,40.1c6.8,0,14,0.7,21,2.6C61.5,40.8,54.3,40.1,47.6,40.1      L47.6,40.1z M26.9,40.3c5.3-0.9,10.7-1.3,16-1.3c7.8,0,16.6,0.9,25.8,3.7c-9.2-2.7-18-3.7-25.8-3.7C37.6,39,32.2,39.4,26.9,40.3      z"/></defs><clipPath id="SVGID_1_"><use xmlns:xlink="http://www.w3.org/1999/xlink" style="overflow:visible;" xlink:href="#SVGID_9_"/></clipPath><clipPath id="SVGID_2_" class="st0"><use xmlns:xlink="http://www.w3.org/1999/xlink" style="overflow:visible;" xlink:href="#SVGID_10_"/></clipPath></g><g><defs><rect id="SVGID_13_" x="12.5" y="39" width="56.3" height="6.9"/></defs><defs><path id="SVGID_14_" d="M12.5,43.9l0.8,0.7L12.5,43.9L12.5,43.9L12.5,43.9z M26.8,40.3L26.8,40.3L26.8,40.3      c-3.7,0.6-7.3,1.4-10.8,2.4l-1.4,3.1l0,0c2.6-1.5,16.5-5.7,33-5.7c6.8,0,14.1,0.7,21.1,2.6v-0.1c-9.2-2.7-18-3.7-25.8-3.7      C37.5,39,32.1,39.4,26.8,40.3L26.8,40.3z"/></defs><clipPath id="SVGID_3_"><use xmlns:xlink="http://www.w3.org/1999/xlink" style="overflow:visible;" xlink:href="#SVGID_13_"/></clipPath><clipPath id="SVGID_4_" class="st2"><use xmlns:xlink="http://www.w3.org/1999/xlink" style="overflow:visible;" xlink:href="#SVGID_14_"/></clipPath></g><polygon points="13.1,24.3 10.3,24.3 9.4,36.7 12.2,36.7 13.1,24.3   " class="st4"/><path d="M38.8,36.7h2.8l0.4-6.1c0.1-1.1-0.2-1.9-0.9-2.4c-0.7-0.5-1.8-0.8-3.4-0.8c-0.7,0-1.4,0.1-2,0.2    c-0.7,0.1-1.2,0.2-1.5,0.3L34.1,30h0.3c0.2-0.1,0.6-0.2,1.2-0.4c0.5-0.2,1-0.2,1.5-0.3c0.8,0,1.3,0.1,1.7,0.3    c0.4,0.2,0.6,0.5,0.5,1v0c-0.8,0-1.6,0.1-2.4,0.2c-0.7,0.1-1.3,0.2-2,0.5c-0.5,0.2-0.9,0.6-1.3,1c-0.3,0.4-0.5,1-0.5,1.6    c-0.1,0.8,0.2,1.5,0.7,2s1.2,0.8,2,0.8c0.3,0,0.7,0,1-0.1c0.3-0.1,0.6-0.2,0.9-0.3c0.2-0.1,0.5-0.2,0.7-0.4    c0.2-0.2,0.4-0.3,0.6-0.4L38.8,36.7L38.8,36.7z M38.2,34.8c-0.3,0.1-0.6,0.2-0.9,0.2c-0.3,0-0.5,0-0.8-0.1c-0.2,0-0.3-0.1-0.4-0.2    c-0.1-0.1-0.2-0.2-0.2-0.3c0-0.1,0-0.3,0-0.5c0-0.3,0.1-0.5,0.3-0.7c0.2-0.2,0.4-0.3,0.7-0.4c0.3-0.1,0.7-0.2,1-0.2    c0.4-0.1,0.9-0.1,1.2-0.1L39,34.3C38.7,34.5,38.5,34.7,38.2,34.8" class="st5"/><path d="M32.1,30.9c-0.4-0.5-1-0.9-1.9-1.2c-0.4-0.1-0.8-0.3-1.2-0.4c-0.4-0.1-0.8-0.2-1.2-0.3    c-0.6-0.1-1.1-0.3-1.3-0.5c-0.2-0.2-0.3-0.4-0.3-0.7c0-0.2,0.1-0.4,0.3-0.6c0.2-0.2,0.3-0.3,0.5-0.4c0.2-0.1,0.5-0.2,0.7-0.2    c0.2,0,0.5-0.1,0.7-0.1c0.7,0,1.4,0.1,2.1,0.4c0.6,0.2,1.2,0.6,1.7,1h0.3l0.2-2.7c-0.6-0.3-1.2-0.4-1.9-0.6    c-0.7-0.2-1.5-0.2-2.2-0.2c-1.5,0-2.8,0.4-3.8,1.1s-1.6,1.6-1.6,2.7c-0.1,0.8,0.1,1.5,0.5,2.1c0.4,0.6,1.1,1,2,1.3    c0.4,0.1,0.9,0.3,1.3,0.3c0.5,0.1,0.9,0.2,1.4,0.3c0.3,0.1,0.7,0.2,0.9,0.4c0.2,0.2,0.3,0.4,0.3,0.7c0,0.2-0.1,0.5-0.3,0.6    c-0.2,0.2-0.4,0.3-0.6,0.4c-0.2,0.1-0.5,0.1-0.7,0.2c-0.2,0-0.5,0-0.7,0c-0.7,0-1.5-0.1-2.2-0.4c-0.7-0.3-1.4-0.7-2-1.2h-0.3    l-0.2,2.9c0.6,0.3,1.3,0.5,2,0.7c0.8,0.2,1.7,0.3,2.5,0.3c1.7,0,3-0.4,4-1.1c1-0.7,1.6-1.7,1.6-2.9C32.7,32.1,32.5,31.4,32.1,30.9    " class="st5"/><polygon points="9.6,24.3 1.3,24.3 0.4,36.6 3.4,36.6 3.8,31.5 8.7,31.5 8.9,29.2 3.9,29.2 4.2,26.6 9.5,26.6     9.6,24.3   " class="st4"/><polygon points="16.1,27.8 13.3,27.8 15.9,36.7 12.5,43.9 14.6,45.9 22.8,27.8 20,27.8 17.7,33.6 16.1,27.8   " class="st4"/><path d="M54.3,36.7h2.8l0.4-6.1c0.1-1.1-0.2-1.9-0.9-2.4c-0.7-0.5-1.8-0.8-3.4-0.8c-0.7,0-1.4,0.1-2,0.2    c-0.7,0.1-1.2,0.2-1.5,0.3L49.6,30h0.3c0.2-0.1,0.6-0.2,1.2-0.4c0.5-0.2,1-0.2,1.5-0.3c0.8,0,1.3,0.1,1.7,0.3    c0.4,0.2,0.6,0.5,0.5,1v0c-0.8,0-1.6,0.1-2.4,0.2c-0.7,0.1-1.3,0.2-2,0.5c-0.5,0.2-0.9,0.6-1.3,1c-0.3,0.4-0.5,1-0.5,1.6    c-0.1,0.8,0.2,1.5,0.7,2c0.5,0.5,1.2,0.8,2,0.8c0.3,0,0.7,0,1-0.1c0.3-0.1,0.6-0.2,0.9-0.3c0.2-0.1,0.5-0.2,0.7-0.4    c0.2-0.2,0.4-0.3,0.6-0.4L54.3,36.7L54.3,36.7z M53.7,34.8c-0.3,0.1-0.6,0.2-0.9,0.2c-0.3,0-0.5,0-0.8-0.1c-0.2,0-0.3-0.1-0.4-0.2    c-0.1-0.1-0.2-0.2-0.2-0.3c0-0.1,0-0.3,0-0.5c0-0.3,0.1-0.5,0.3-0.7c0.2-0.2,0.4-0.3,0.7-0.4c0.3-0.1,0.7-0.2,1-0.2    c0.4-0.1,0.9-0.1,1.2-0.1l-0.1,1.9C54.2,34.5,54,34.7,53.7,34.8" class="st5"/><path d="M49.7,24.3c-0.3,0-0.6-0.1-0.9-0.1c-0.3,0-0.7,0-1.1,0c-1.2,0-2,0.3-2.6,0.8s-0.9,1.4-1,2.5l0,0.2h-1.2    l-0.1,2h1.2l-0.5,7h2.8l0.5-7h2.1l0.1-2h-2.2l0-0.1c0-0.6,0.2-1,0.4-1.2c0.2-0.2,0.6-0.3,1.1-0.3c0.2,0,0.4,0,0.6,0.1    c0.2,0,0.4,0.1,0.5,0.1h0.2L49.7,24.3L49.7,24.3z" class="st5"/><path d="M62.1,24.2h-3L59,26.4h3L62.1,24.2z M61.8,27.6H59l-0.6,9h2.8L61.8,27.6L61.8,27.6z" class="st5"/><path d="M69.6,27.7c-0.1,0-0.2,0-0.3,0c-0.1,0-0.2,0-0.3,0c-0.4,0-0.9,0.1-1.3,0.3c-0.5,0.2-1,0.5-1.7,1.1l0.1-1.3    h-2.8l-0.6,9h2.8l0.4-6c0.3-0.1,0.7-0.2,1-0.3c0.4-0.1,0.7-0.1,1.1-0.1c0.2,0,0.4,0,0.7,0c0.2,0,0.4,0,0.6,0.1h0.2L69.6,27.7z" class="st5"/></g></g></svg>