<svg xmlns="http://www.w3.org/2000/svg" id="Layer_1" width="70" height="70" x="0" y="0" enable-background="new 0 0 70 70" version="1.1" viewBox="0 0 70 70" xml:space="preserve"><metadata/><rect width="70" height="70" fill="none"/><g><g><g><g><linearGradient id="SVGID_1_" x1="300.403" x2="252.34" y1="416.309" y2="399.006" gradientTransform="matrix(0.9995 0.144 -0.0412 1.0131 -228.9484 -422.4966)" gradientUnits="userSpaceOnUse"><stop offset="0" style="stop-color:#e7e7e7"/><stop offset=".121" style="stop-color:#f0eff0"/><stop offset=".264" style="stop-color:#fff"/><stop offset=".455" style="stop-color:#fbfcfc"/><stop offset=".635" style="stop-color:#f1f0f0"/><stop offset=".81" style="stop-color:#dededd"/><stop offset=".981" style="stop-color:#c2c2c2"/><stop offset="1" style="stop-color:#c0bfbf"/></linearGradient><path fill="url(#SVGID_1_)" d="M68.3,44.6C66,38.6,60.4,34.1,52,30.3C32.2,21.2,4.1,14,1.4,1c1.4,23.3,33.4,26.7,52,35.4 C58,38.6,61.8,42,64.1,44.4c3.7,3.699,1.9,12.8-2,16.5C70.1,55.1,69.5,47.8,68.3,44.6z"/><linearGradient id="SVGID_2_" x1="82.105" x2="82.414" y1="315.003" y2="356.995" gradientTransform="matrix(1.0238 -0.2068 0.5626 0.9176 -234.5126 -256.1534)" gradientUnits="userSpaceOnUse"><stop offset=".093" style="stop-color:#81bd9f"/><stop offset=".261" style="stop-color:#56b880"/><stop offset=".442" style="stop-color:#2eb364"/><stop offset=".587" style="stop-color:#1cb151"/><stop offset=".676" style="stop-color:#16b14b"/><stop offset=".885" style="stop-color:#089248"/></linearGradient><path fill="url(#SVGID_2_)" d="M60.9,40.3C46.9,30.5,11,23.8,7.4,17.7c7.3,18.6,41.5,17.7,54,29.2 c9.5,8.699-1.101,15.399-3.5,17C66.9,58.9,72.6,48.4,60.9,40.3z"/><g><linearGradient id="SVGID_3_" x1="116.06" x2="116.255" y1="390.438" y2="416.93" gradientTransform="matrix(1.0478 0.0043 0.3879 0.9557 -238.0768 -344.898)" gradientUnits="userSpaceOnUse"><stop offset=".066" style="stop-color:#de826e"/><stop offset=".352" style="stop-color:#eb2227"/><stop offset=".546" style="stop-color:#e92127"/><stop offset=".647" style="stop-color:#e11f27"/><stop offset=".727" style="stop-color:#d42028"/><stop offset=".795" style="stop-color:#c22129"/><stop offset=".85" style="stop-color:#ac1f2b"/></linearGradient><path fill="url(#SVGID_3_)" d="M65.8,53.1C65.4,38.4,22.7,35.3,13.2,27.5C24.5,46.1,62,45,64.5,54.8c0.6,2.101-0.7,4.2-2.2,5.7 C64.4,58.3,65.9,56.6,65.8,53.1z"/></g></g><g><linearGradient id="SVGID_4_" x1="335.496" x2="345.848" y1="422.99" y2="404.126" gradientTransform="matrix(0.9996 0.029 -0.029 0.9996 -268.471 -368.1257)" gradientUnits="userSpaceOnUse"><stop offset=".066" style="stop-color:#de826e"/><stop offset=".352" style="stop-color:#eb2227"/><stop offset=".546" style="stop-color:#e92127"/><stop offset=".647" style="stop-color:#e11f27"/><stop offset=".727" style="stop-color:#d42028"/><stop offset=".795" style="stop-color:#c22129"/><stop offset=".85" style="stop-color:#ac1f2b"/></linearGradient><path fill="url(#SVGID_4_)" d="M46.3,68.9C59.2,64.6,65.2,54.2,57.9,50.6C71.7,54.8,61.8,64.2,46.3,68.9z"/></g></g></g></g></svg>