<svg xmlns="http://www.w3.org/2000/svg" version="1.1" id="Layer_1" x="0px" y="0px" width="70px" height="70px" viewBox="0 0 70 70" enable-background="new 0 0 70 70" xml:space="preserve"><metadata/><rect width="70" fill="none" height="70"/><g><g><g><g><linearGradient id="SVGID_1_" gradientTransform="matrix(0.9995 0.144 -0.0412 1.0131 -228.9484 -422.4966)" gradientUnits="userSpaceOnUse" x1="300.4033" x2="252.3396" y1="416.3086" y2="399.0061"><stop offset="0" style="stop-color:#E7E7E7"/><stop offset="0.1211" style="stop-color:#F0EFF0"/><stop offset="0.2637" style="stop-color:#FFFFFF"/><stop offset="0.4549" style="stop-color:#FBFCFC"/><stop offset="0.6346" style="stop-color:#F1F0F0"/><stop offset="0.8097" style="stop-color:#DEDEDD"/><stop offset="0.9809" style="stop-color:#C2C2C2"/><stop offset="1" style="stop-color:#C0BFBF"/></linearGradient><path fill="url(#SVGID_1_)" d="M68.3,44.6C66,38.6,60.4,34.1,52,30.3C32.2,21.2,4.1,14,1.4,1c1.4,23.3,33.4,26.7,52,35.4       C58,38.6,61.8,42,64.1,44.4c3.7,3.699,1.9,12.8-2,16.5C70.1,55.1,69.5,47.8,68.3,44.6z"/><linearGradient id="SVGID_2_" gradientTransform="matrix(1.0238 -0.2068 0.5626 0.9176 -234.5126 -256.1534)" gradientUnits="userSpaceOnUse" x1="82.1045" x2="82.4144" y1="315.0029" y2="356.9945"><stop offset="0.0934" style="stop-color:#81BD9F"/><stop offset="0.2607" style="stop-color:#56B880"/><stop offset="0.4422" style="stop-color:#2EB364"/><stop offset="0.587" style="stop-color:#1CB151"/><stop offset="0.6758" style="stop-color:#16B14B"/><stop offset="0.8846" style="stop-color:#089248"/></linearGradient><path fill="url(#SVGID_2_)" d="M60.9,40.3C46.9,30.5,11,23.8,7.4,17.7c7.3,18.6,41.5,17.7,54,29.2       c9.5,8.699-1.101,15.399-3.5,17C66.9,58.9,72.6,48.4,60.9,40.3z"/><g><linearGradient id="SVGID_3_" gradientTransform="matrix(1.0478 0.0043 0.3879 0.9557 -238.0768 -344.898)" gradientUnits="userSpaceOnUse" x1="116.0596" x2="116.2551" y1="390.4385" y2="416.9296"><stop offset="0.0659" style="stop-color:#DE826E"/><stop offset="0.3516" style="stop-color:#EB2227"/><stop offset="0.5461" style="stop-color:#E92127"/><stop offset="0.6474" style="stop-color:#E11F27"/><stop offset="0.7272" style="stop-color:#D42028"/><stop offset="0.7953" style="stop-color:#C22129"/><stop offset="0.85" style="stop-color:#AC1F2B"/></linearGradient><path fill="url(#SVGID_3_)" d="M65.8,53.1C65.4,38.4,22.7,35.3,13.2,27.5C24.5,46.1,62,45,64.5,54.8c0.6,2.101-0.7,4.2-2.2,5.7        C64.4,58.3,65.9,56.6,65.8,53.1z"/></g></g><g><linearGradient id="SVGID_4_" gradientTransform="matrix(0.9996 0.029 -0.029 0.9996 -268.471 -368.1257)" gradientUnits="userSpaceOnUse" x1="335.4961" x2="345.8483" y1="422.9902" y2="404.1262"><stop offset="0.0659" style="stop-color:#DE826E"/><stop offset="0.3516" style="stop-color:#EB2227"/><stop offset="0.5461" style="stop-color:#E92127"/><stop offset="0.6474" style="stop-color:#E11F27"/><stop offset="0.7272" style="stop-color:#D42028"/><stop offset="0.7953" style="stop-color:#C22129"/><stop offset="0.85" style="stop-color:#AC1F2B"/></linearGradient><path fill="url(#SVGID_4_)" d="M46.3,68.9C59.2,64.6,65.2,54.2,57.9,50.6C71.7,54.8,61.8,64.2,46.3,68.9z"/></g></g></g></g></svg>