<svg xmlns="http://www.w3.org/2000/svg" version="1.1" id="Layer_1" x="0px" y="0px" width="70px" height="70px" viewBox="0 0 70 70" enable-background="new 0 0 70 70" xml:space="preserve"><metadata/><rect width="70" fill="none" height="70"/><g id="_x23_df1d25ff"><path id="path5" fill="#EC2227" d="M0,0h70.1v70H0V11.9 M18.3,18.8c-1,0.9-1.8,2-2.6,3C13.2,25.1,11,28.6,9,32.1    c-0.1,0.2-0.3,0.2-0.5,0.3c-1.8,0.5-3.6,1.2-5.3,2c-0.9,0.4-1,1.6-0.5,2.4C3,37.2,3.6,37.3,4.1,37c1-0.5,2-1,3-1.4    c-0.8,1.5-1.5,3-2.2,4.601C4.3,41.6,3.7,43,3.2,44.4c-0.3,1.1,0.6,2.3,1.7,2.3c0.6,0,0.8-0.601,1-1.101c0.5-2,1.4-4,2.2-5.899    c0.8-1.8,1.7-3.601,2.6-5.4c1.3-0.4,2.6-0.8,3.8-1.1c-0.4,1.7-0.8,3.3-0.9,5.1c-0.1,0.8,0,1.7,0.5,2.4c0.4,0.6,1.5,0.6,1.9,0.1    c0.3-0.5,0.3-1.1,0.4-1.7c0.2-2.199,0.5-4.399,0.9-6.5c1.1-0.3,2.2-0.5,3.3-0.7c-0.7,1.4-1.3,2.8-1.9,4.2C18.4,37,18.1,38,18.2,39    c0,0.5,0.3,1,0.7,1.2c0.6,0.2,1.3,0,1.8-0.4c0.9-0.7,1.7-1.7,2.3-2.7c0,0.4-0.2,0.9,0,1.5c0.1,0.4,0.4,0.7,0.8,0.7    c0.5,0,1-0.3,1.5-0.6c0.2-0.101,0.2-0.4,0.2-0.601c0.1-1.8,1-3.5,2-4.899c0.5-0.7,1.1-1.5,2-1.8c0.8-0.4,1.8-0.3,2.5-0.9    c0.3-0.3,0.6-0.7,0.4-1.1c-0.4-0.8-1.5-1.3-2.2-0.7c-0.6,0.4-1.1,1-1.6,1.6c0.1-0.5,0.4-1.1-0.1-1.4c-0.6-0.4-1.4-0.1-2,0.2    c-0.4,0.2-0.3,0.8-0.5,1.2c-0.9,2.1-2.1,4-3.6,5.8C22,36.5,21.7,37,21.2,37c0-0.3,0.1-0.7,0.2-1c0.7-1.7,1.6-3.3,2.4-4.9    c0.4-0.7-0.3-1.5-1.1-1.4c-1.6,0.1-3.2,0.4-4.7,0.6c0.5-2,0.9-4.1,1.8-6.1c0.4-1.1,1-2.2,1.2-3.4c0.1-0.7-0.5-1.1-0.8-1.6    c-0.2-0.3-0.3-0.8-0.7-0.9C19,18.2,18.6,18.5,18.3,18.8 M45.8,18.9c-1.399,1.4-2.6,3-3.7,4.6c-2,2.8-3.699,5.7-5.5,8.7    c-1.5,0.5-3.1,1-4.5,1.7c-0.6,0.3-1.4,0.5-1.7,1.1c-0.1,0.6-0.2,1.4,0.4,1.9c0.3,0.3,0.7,0.3,1.1,0c1-0.601,2-1,3-1.5    c-1.4,2.9-2.8,5.8-3.8,8.8c-0.4,1.1,0.7,2.5,1.9,2.3c0.8-0.3,0.8-1.3,1-2c1.2-3.6,2.8-7,4.6-10.4c1.301-0.4,2.601-0.8,3.9-1.1    c-0.3,1.4-0.7,2.8-0.9,4.3c-0.1,0.7-0.1,1.5,0,2.2C41.7,40,41.9,40.6,42.4,40.9C43,41.2,43.9,41,44.1,40.3    c0.2-0.399,0.2-0.899,0.2-1.399c0.3-2.2,0.5-4.4,0.9-6.5c0.8-0.3,1.6-0.3,2.3-0.6c0.6-0.2,0.8-1,0.6-1.5    c-0.699-0.4-1.6-0.2-2.399-0.1c0.399-1.5,0.7-3.1,1.2-4.6c0.5-1.4,1.1-2.7,1.6-4.1c0.1-0.5,0.3-1,0-1.5c-0.2-0.3-0.5-0.6-0.6-1    c-0.2-0.3-0.2-0.7-0.601-0.8C46.5,18.2,46.1,18.6,45.8,18.9 M58.4,23.6C57.6,23.9,57,24.7,57,25.5c0,0.5,0.3,0.9,0.8,1    c1.3,0.3,2.7-1,2.3-2.3C60,23.5,59.1,23.3,58.4,23.6 M24.2,24.8c-0.8,0.3-1.5,1.2-1.3,2.1c0.1,0.6,0.8,1,1.4,0.8    c1.1-0.2,2.1-1.4,1.7-2.5C25.6,24.7,24.8,24.6,24.2,24.8 M63.5,27c-1,0.5-1.9,1.3-2.7,2.1c-1.6,1.8-2.899,3.8-4.399,5.6    c-0.301,0.4-0.7,0.8-1.2,0.899c0-0.3,0-0.6,0.2-0.8c0.8-1.8,1.899-3.5,2.8-5.3c0.1-0.4,0.2-0.9-0.2-1.1c-0.6-0.6-1.8-0.3-2.3,0.3    c-0.5,1.6-1.4,3-2.101,4.5C53,34.4,52.4,35.7,52.3,37.1C52.3,37.7,52.4,38.4,53,38.7c0.6,0.2,1.3,0,1.8-0.4    c1.101-0.8,1.9-1.899,2.7-3c0,0.601,0,1.3,0.4,1.8c0.5,0.7,1.5,0.7,2.199,0.4c0.9-0.4,1.5-1.2,2.2-1.9C62.4,36,62.5,36.5,62.9,36.7    c0.399,0.3,1,0.3,1.399,0.1c1-0.3,1.7-1,2.4-1.8c0.7-0.9,1.399-1.8,1.8-2.9c0.1-0.2,0.1-0.5-0.1-0.6c-0.301-0.1-0.7,0-0.801,0.3    C67.2,32.5,66.7,33.2,66.2,33.7c-0.2,0.2-0.5,0.5-0.9,0.4c-0.3-0.2-0.2-0.6-0.1-0.9c0.5-1.2,1.1-2.3,1.7-3.4    c0.199-0.3,0.3-0.6,0.199-0.9c-0.3-0.5-0.899-0.5-1.3-0.9c-0.2-0.3-0.3-0.8-0.6-1C64.8,26.7,64.1,26.8,63.5,27 M51,29.2    c-1.4,0.5-2.5,1.8-3,3.2c-0.4,1.1-0.3,2.3,0.3,3.2C48.6,36,49,36.4,49,36.9c-0.1,0.5-0.7,0.699-1.1,0.5c-0.7-0.2-1.2-0.7-1.7-1.2    c-0.4-0.3-0.601,0.3-0.8,0.5c-0.2,0.5-0.601,1.2-0.301,1.8c0.301,0.7,1.101,1.1,1.801,1.3C48,40,49.1,39.6,50.1,39    c1.101-0.7,1.7-2.2,1.601-3.5c-0.101-0.8-0.7-1.4-1.2-2c-0.4-0.5-0.4-1.3-0.2-1.9c0.2-0.5,0.7-0.7,1.2-0.7c0.5,0.1,0.7,0.7,1,1    c0.3,0.1,0.6,0.1,0.8-0.1c0.3-0.4,0.601-0.8,0.7-1.3c0-0.5-0.4-1-0.8-1.2C52.5,29,51.7,29,51,29.2z"/><path id="path7" fill="#EC2227" d="M12.3,31.3c1.7-2.9,3.4-5.8,5.3-8.5c-0.9,2.6-1.8,5.1-2.4,7.8C14.3,30.9,13.3,31.1,12.3,31.3z"/><path id="path9" fill="#EC2227" d="M39.9,31.3c1.6-2.9,3.399-5.8,5.3-8.5c-1,2.6-1.8,5.2-2.5,7.9C41.8,30.9,40.9,31.1,39.9,31.3z"/><path id="path11" fill="#EC2227" d="M63.6,29.3c0.2-0.2,0.5-0.4,0.801-0.4c0.3,0.2,0.1,0.6,0,0.8C63.8,31.1,63.1,32.5,62.1,33.8    c-0.5,0.6-1,1.4-1.8,1.6c-0.3-0.5,0-1.1,0.3-1.6C61.4,32.1,62.3,30.5,63.6,29.3z"/></g><g id="_x23_ffffffff"><path id="path14" fill="#FFFFFF" d="M18.3,18.8c0.3-0.3,0.7-0.6,1.2-0.6c0.4,0.1,0.5,0.6,0.7,0.9c0.2,0.5,0.9,0.9,0.8,1.6    c-0.2,1.2-0.8,2.3-1.2,3.4c-0.8,1.9-1.2,4-1.8,6.1c1.6-0.3,3.2-0.5,4.7-0.6c0.7-0.1,1.4,0.7,1.1,1.4c-0.8,1.6-1.7,3.2-2.4,4.9    c-0.1,0.3-0.2,0.699-0.2,1c0.6,0,0.9-0.601,1.2-0.9c1.5-1.7,2.7-3.7,3.6-5.8c0.2-0.4,0.1-0.9,0.5-1.2c0.6-0.3,1.4-0.6,2-0.2    c0.5,0.4,0.2,1,0.1,1.4c0.5-0.6,1-1.2,1.6-1.6c0.7-0.6,1.9-0.1,2.2,0.7c0.2,0.4-0.1,0.8-0.4,1.1c-0.7,0.6-1.7,0.6-2.5,0.9    c-0.9,0.3-1.5,1.1-2,1.8c-1,1.5-1.9,3.1-2,4.9c0,0.2,0,0.5-0.2,0.6C24.9,38.9,24.4,39.2,23.8,39.2c-0.4,0-0.7-0.4-0.8-0.7    c-0.2-0.5,0-1.1,0.1-1.6c-0.6,1-1.4,1.899-2.3,2.699C20.3,40,19.6,40.2,19,40c-0.5-0.2-0.7-0.8-0.7-1.2c-0.1-1,0.2-2,0.5-2.899    c0.5-1.4,1.2-2.8,1.9-4.2c-1.1,0.2-2.2,0.5-3.3,0.7c-0.5,2.1-0.7,4.3-0.9,6.5c-0.1,0.6,0,1.199-0.4,1.699    c-0.5,0.601-1.5,0.601-1.9-0.1c-0.5-0.7-0.5-1.6-0.5-2.4c0.1-1.699,0.5-3.399,0.9-5.1c-1.3,0.4-2.6,0.7-3.8,1.1    c-0.9,1.8-1.8,3.6-2.6,5.4c-0.8,1.9-1.7,3.9-2.2,5.9c-0.1,0.5-0.4,1.1-1,1.1c-1.1,0-2.1-1.2-1.7-2.3C3.7,42.7,4.4,41.4,5,40    c0.7-1.6,1.4-3.1,2.2-4.6c-1,0.4-2,0.9-3,1.4c-0.4,0.3-1,0.2-1.4-0.2c-0.5-0.699-0.4-2,0.5-2.399c1.7-0.8,3.5-1.4,5.3-2    c0.2-0.1,0.4-0.1,0.5-0.3c2.1-3.5,4.2-7,6.7-10.3C16.5,20.7,17.3,19.7,18.3,18.8 M12.3,31.3c1-0.2,2-0.4,2.9-0.7    c0.6-2.7,1.5-5.2,2.4-7.8C15.7,25.5,14,28.4,12.3,31.3z"/><path id="path16" fill="#FFFFFF" d="M45.8,18.9c0.4-0.3,0.8-0.7,1.3-0.6c0.301,0.1,0.4,0.5,0.601,0.8c0.2,0.4,0.399,0.7,0.6,1    c0.3,0.5,0.101,1,0,1.5c-0.5,1.4-1.1,2.7-1.6,4.1c-0.5,1.5-0.8,3.1-1.2,4.6c0.8-0.1,1.7-0.3,2.4,0.1c0.199,0.5,0,1.3-0.601,1.5    c-0.8,0.3-1.6,0.3-2.3,0.6c-0.4,2.2-0.7,4.3-0.9,6.5c0,0.5,0,0.9-0.199,1.4C43.7,41.1,42.8,41.3,42.2,41c-0.5-0.3-0.7-0.9-0.8-1.4    c-0.101-0.699,0-1.5,0-2.199c0.199-1.4,0.5-2.9,0.899-4.3c-1.3,0.4-2.6,0.7-3.899,1.1C36.7,37.6,35,41,33.8,44.6    c-0.2,0.7-0.3,1.7-1,2c-1.2,0.2-2.3-1.1-1.9-2.3c1-3,2.4-5.899,3.8-8.8c-1,0.4-2,0.9-3,1.5c-0.3,0.2-0.8,0.2-1.1,0    c-0.6-0.4-0.5-1.3-0.4-1.9c0.3-0.7,1.1-0.9,1.7-1.1c1.5-0.7,3-1.1,4.5-1.7c1.699-2.9,3.5-5.9,5.5-8.7    C43.2,21.9,44.3,20.2,45.8,18.9 M39.9,31.3c1-0.2,1.899-0.4,2.899-0.6c0.7-2.7,1.5-5.3,2.5-7.9C43.3,25.5,41.6,28.4,39.9,31.3z"/><path id="path18" fill="#FFFFFF" d="M58.4,23.6c0.6-0.3,1.5-0.1,1.8,0.6c0.3,1.3-1.101,2.6-2.3,2.3c-0.4-0.1-0.801-0.5-0.801-1    C57,24.7,57.7,23.9,58.4,23.6z"/><path id="path20" fill="#FFFFFF" d="M24.2,24.8c0.6-0.3,1.5-0.2,1.7,0.5c0.4,1.1-0.6,2.3-1.7,2.5c-0.6,0.1-1.3-0.2-1.4-0.8    C22.7,26,23.4,25.2,24.2,24.8z"/><path id="path22" fill="#FFFFFF" d="M63.5,27c0.5-0.3,1.3-0.3,1.7,0.1c0.3,0.3,0.399,0.7,0.6,1c0.4,0.3,1,0.4,1.3,0.9    c0.101,0.3-0.1,0.6-0.199,0.9C66.3,31,65.6,32.1,65.2,33.3C65.1,33.6,65,34,65.3,34.2c0.4,0.1,0.601-0.2,0.9-0.4    c0.6-0.6,1-1.3,1.399-1.9c0.2-0.3,0.5-0.4,0.801-0.3c0.199,0.1,0.199,0.4,0.1,0.6c-0.4,1.1-1.1,2-1.8,2.9c-0.7,0.7-1.4,1.5-2.4,1.8    C64,37,63.4,37,63,36.7S62.6,36,62.4,35.6c-0.7,0.7-1.301,1.5-2.2,1.9c-0.7,0.3-1.7,0.3-2.2-0.4c-0.4-0.5-0.4-1.199-0.4-1.8    c-0.8,1.101-1.6,2.2-2.699,3c-0.5,0.4-1.2,0.601-1.801,0.4c-0.6-0.3-0.8-1-0.699-1.601c0.1-1.399,0.699-2.7,1.3-3.899    c0.7-1.5,1.6-2.9,2.1-4.5c0.5-0.6,1.601-0.9,2.3-0.3c0.301,0.3,0.301,0.8,0.2,1.1c-0.899,1.8-2,3.4-2.8,5.3    c-0.1,0.3-0.1,0.6-0.2,0.8c0.5,0,0.9-0.5,1.2-0.899c1.5-1.9,2.8-3.8,4.4-5.6C61.7,28.3,62.5,27.5,63.5,27 M63.6,29.3    c-1.3,1.2-2.3,2.8-3,4.4c-0.199,0.5-0.6,1.1-0.3,1.6c0.8-0.2,1.3-0.9,1.8-1.6c0.9-1.3,1.7-2.6,2.301-4.1c0.1-0.3,0.3-0.6,0-0.8    C64.1,28.9,63.9,29.1,63.6,29.3z"/><path id="path24" fill="#FFFFFF" d="M51,29.2c0.7-0.2,1.5-0.2,2.2,0.1c0.399,0.2,0.8,0.6,0.8,1.2c-0.1,0.5-0.3,0.9-0.7,1.3    c-0.2,0.2-0.5,0.2-0.8,0.1c-0.3-0.4-0.5-0.9-1-1c-0.5,0-1,0.3-1.2,0.7c-0.3,0.6-0.2,1.4,0.2,1.9c0.4,0.6,1.1,1.2,1.2,2    c0.1,1.3-0.4,2.7-1.601,3.5C49.2,39.6,48,40,46.9,39.8c-0.801-0.2-1.5-0.6-1.801-1.3c-0.3-0.6,0.101-1.2,0.301-1.8    c0.1-0.3,0.399-0.8,0.8-0.5c0.5,0.5,1,1.1,1.7,1.2c0.399,0.1,1-0.101,1.1-0.5c0-0.5-0.4-0.9-0.7-1.301c-0.7-0.899-0.7-2.2-0.3-3.2    C48.5,30.9,49.6,29.6,51,29.2z"/></g></svg>