<svg xmlns="http://www.w3.org/2000/svg" width="70" height="70" version="1.1" viewBox="0 0 70 70"><g id="surface1"><path d="M 49.746094 11.667969 L 8.625 58.332031 L 48.960938 58.332031 L 63.457031 11.667969 Z M 34.304688 49.535156 C 34.304688 49.535156 33.511719 49.65625 32.339844 49.640625 C 31.339844 49.628906 30.703125 49.503906 30.226562 49.316406 C 29.808594 49.152344 29.457031 48.703125 29.582031 48.367188 C 29.675781 48.113281 29.878906 47.921875 30.136719 47.75 C 31.316406 47 33.441406 46.601562 35.789062 46.445312 C 35.59375 46.898438 34.304688 49.535156 34.304688 49.535156 Z M 46.785156 43.414062 C 45.085938 45.421875 43.402344 45.5625 40.085938 45.253906 C 31.378906 44.484375 29.699219 46.882812 29.421875 47.1875 C 29.421875 47.1875 29.476562 46.921875 29.652344 46.539062 C 30.199219 45.292969 30.867188 43.90625 31.609375 42.25 C 32.027344 41.382812 32.265625 41.347656 32.648438 41.066406 C 34.230469 40.027344 36.757812 39.054688 40.125 39.355469 C 42.605469 39.570312 43.695312 40.074219 45.222656 40.160156 C 45.785156 40.195312 46.503906 40.203125 47.183594 40.058594 C 48.8125 39.710938 49.234375 39.21875 49.234375 39.21875 C 49.234375 39.21875 48.074219 41.769531 46.785156 43.414062 Z M 48.773438 38.148438 C 48.234375 38.460938 47.539062 38.765625 46.179688 38.808594 C 44.6875 38.855469 43.78125 38.53125 42.128906 38.261719 C 39.878906 37.902344 37.691406 37.765625 35.339844 38.507812 C 33.628906 39.050781 32.5625 39.976562 32.5625 39.976562 C 32.5625 39.976562 34.300781 36.070312 34.75 35.0625 C 35.496094 33.539062 37.976562 32.433594 41.246094 32.472656 C 44.1875 32.511719 45.503906 33.269531 47.917969 33.296875 C 51.519531 33.28125 52.714844 32.082031 52.714844 32.082031 C 52.5 32.523438 51.414062 34.824219 50.890625 35.800781 C 50.0625 37.152344 49.460938 37.753906 48.773438 38.148438 Z M 48.773438 38.148438" style="stroke:none;fill-rule:nonzero;fill:#001b71;fill-opacity:1"/></g></svg>