<svg xmlns="http://www.w3.org/2000/svg" id="Layer_1" width="70" height="70" x="0" y="0" enable-background="new 0 0 70 70" version="1.1" viewBox="0 0 70 70" xml:space="preserve"><g><g><g><path fill="#322110" fill-rule="evenodd" d="M7.543,40.368c-0.02,0.077-0.015,0.089-0.039,0.076 c-0.176-0.141-0.678-0.611-0.85-0.772c-0.173-0.161-0.498-0.524-0.578-0.64c0.182-0.063,1.382-0.159,1.413-0.16 C7.54,38.872,7.562,40.291,7.543,40.368z" clip-rule="evenodd"/><path fill="#322110" fill-rule="evenodd" d="M9.28,37.921c-0.262,0.062-1.055,0.051-1.071,0.02 c-0.017-0.031-0.072-1.296-0.072-1.296c0.03,0.04,0.064,0.107,0.082,0.127c0.018,0.02,0.392,0.443,0.447,0.502 c0.055,0.06,0.383,0.439,0.458,0.497C9.2,37.829,9.28,37.921,9.28,37.921z" clip-rule="evenodd"/><path fill="#322110" fill-rule="evenodd" d="M13.255,33.567c-0.082,0.143-0.127,0.211-0.156,0.264 c-0.028,0.053-0.086,0.119-0.121,0.172c-0.033,0.052-0.073,0.099-0.132,0.171c-0.119-0.163-0.296-0.409-0.404-0.566 c-0.109-0.157-0.236-0.415-0.303-0.514c0.156-0.204,0.245-0.319,0.302-0.401c0.075-0.106,0.202-0.294,0.283-0.43 c0.081-0.136,0.124-0.205,0.124-0.205c0.11,0.147,0.251,0.374,0.35,0.52c0.1,0.147,0.22,0.344,0.273,0.415 c0.017,0.023,0.034,0.046,0.048,0.071c0.01,0.019,0.016,0.038,0.029,0.056c0.007,0.01,0.009,0.009,0.004,0.019 c-0.016,0.04-0.053,0.073-0.079,0.108c-0.026,0.034-0.052,0.069-0.076,0.105c-0.04,0.059-0.076,0.119-0.115,0.178 C13.273,33.541,13.263,33.553,13.255,33.567z" clip-rule="evenodd"/><path fill="#322110" fill-rule="evenodd" d="M9.079,40.987c0.031-0.047,0.618-0.901,0.636-0.933 c0.019-0.032,0.077-0.158,0.112-0.226c0.035-0.068,0.112-0.205,0.143-0.265c0.031-0.059,0.591-1.026,0.591-1.026 c0.067,0.06,0.04,0.025,0.088,0.054c0.047,0.029,0.204,0.117,0.236,0.138c0.032,0.021,0.057,0.039,0.057,0.039 c-0.06,0.084-0.27,0.461-0.323,0.563c-0.052,0.101-0.709,1.369-0.74,1.436c-0.031,0.067-0.123,0.26-0.153,0.343 c-0.031,0.083-0.058,0.101-0.082,0.144c-0.033,0.059-0.052,0.108-0.076,0.154c-0.032,0.06-0.059,0.1-0.059,0.1 C9.444,41.45,9.265,41.4,9.22,41.348c-0.044-0.053-0.277-0.18-0.277-0.18C9.007,41.076,9.033,41.056,9.079,40.987z" clip-rule="evenodd"/><path fill="#322110" fill-rule="evenodd" d="M8.281,40.667c-0.024-0.075-0.145-1.711-0.159-1.796 c-0.015-0.085-0.001-0.194-0.016-0.242c0.065-0.046,1.766-0.239,1.807-0.254c0.042-0.014,0.077,0.026,0.04,0.067 c-0.037,0.041-1.401,2.232-1.466,2.306c-0.064,0.074-0.105,0.107-0.147,0.13C8.284,40.779,8.319,40.783,8.281,40.667z" clip-rule="evenodd"/><path fill="#322110" fill-rule="evenodd" d="M7.465,38.013c-0.036,0.02-1.636,0.403-1.712,0.438 c-0.076,0.036-0.026-0.032-0.048-0.023c0.028-0.072,2.005-2.321,2.005-2.321C7.7,36.303,7.489,37.99,7.465,38.013z" clip-rule="evenodd"/><path fill="#322110" fill-rule="evenodd" d="M5.183,37.755c-0.038,0.022-0.067-0.036-0.067-0.036 c-0.077-0.166-0.16-0.294-0.188-0.347c-0.027-0.054-0.042-0.117-0.042-0.117c0.155-0.159,0.993-0.962,1.199-1.198 c0.205-0.236,0.801-0.825,0.922-0.974c0.12-0.149,0.181-0.209,0.199-0.236c0.017-0.028,0.058-0.089,0.058-0.089 c0.025,0.105,0.047,0.166,0.079,0.269c0.033,0.108,0.097,0.288,0.119,0.362c-0.382,0.467-0.9,0.953-0.999,1.072 c-0.1,0.118-1.047,1.029-1.102,1.105C5.303,37.643,5.183,37.755,5.183,37.755z" clip-rule="evenodd"/><path fill="#322110" fill-rule="evenodd" d="M4.451,36.477c-0.047-0.087-0.062-0.185-0.076-0.23 c-0.016-0.045-0.033-0.177-0.049-0.251c-0.016-0.074-0.033-0.221-0.04-0.261c0.035-0.015,0.097-0.072,0.155-0.109 c0.058-0.036,0.741-0.67,0.843-0.779c0.101-0.109,0.334-0.318,0.487-0.465c0.154-0.147,0.629-0.66,0.713-0.72 c0.085-0.06,0.247-0.208,0.291-0.227c-0.145-0.087-0.992-0.508-1.198-0.601C5.37,32.742,4.5,32.281,4.384,32.222 c-0.115-0.059-0.337-0.163-0.363-0.173c0.004-0.1,0.042-0.227,0.054-0.331c0.012-0.104,0.037-0.254,0.037-0.298 c0.134,0.039,1.357,0.728,1.472,0.787c0.116,0.059,0.313,0.127,0.377,0.155c0.064,0.028,0.881,0.466,0.953,0.5 c0.072,0.034,0.131,0.065,0.131,0.065c0.024,0.024,0.028,0.029,0.025,0.144c-0.003,0.115,0.007,0.267-0.006,0.365 c-0.013,0.098,0.001,0.526,0.001,0.526c-0.262,0.256-0.562,0.619-0.806,0.836c-0.243,0.217-1.168,1.124-1.168,1.124 c-0.062,0.058-0.382,0.398-0.456,0.439C4.555,36.404,4.494,36.443,4.451,36.477z" clip-rule="evenodd"/><path fill="#322110" fill-rule="evenodd" d="M4.579,33.221c0.075,0.037,0.253,0.096,0.34,0.14 c0.087,0.045,0.147,0.052,0.213,0.078c0.061,0.024,0.39,0.101,0.423,0.107c0,0-0.034,0.024-0.105,0.077 c-0.075,0.056-0.394,0.324-0.56,0.455c-0.166,0.131-0.555,0.438-0.645,0.501c-0.09,0.063-0.168,0.088-0.168,0.088 c-0.059-0.337-0.103-0.672-0.115-0.815C3.95,33.71,3.917,33.22,3.925,33.12c0.008-0.1,0.003-0.115,0.003-0.115 c0.142,0.039,0.178,0.054,0.276,0.091C4.334,33.144,4.525,33.194,4.579,33.221z" clip-rule="evenodd"/><path fill="#322110" fill-rule="evenodd" d="M7.208,31.979c-0.309-0.123-2.598-1.126-2.617-1.136 c-0.019-0.01-0.299-0.094-0.299-0.094c0.006-0.102,0.054-0.306,0.075-0.353c0.022-0.047,0.084-0.158,0.084-0.158 c0.077,0.043,0.176,0.075,0.271,0.13c0.094,0.055,1.097,0.515,1.343,0.623c0.247,0.108,1.102,0.456,1.143,0.469 c0.048,0.015,0.088,0.034,0.088,0.034c-0.044,0.11-0.053,0.191-0.06,0.259c-0.007,0.068-0.025,0.148-0.022,0.173 C7.216,31.953,7.208,31.979,7.208,31.979z" clip-rule="evenodd"/><path fill="#322110" fill-rule="evenodd" d="M7.618,30.678c0.023-0.028,0.006-0.061,0.011-0.088 c0.005-0.027-0.189-0.752-0.228-0.906c-0.039-0.154-0.276-0.868-0.282-0.888c-0.006-0.019-0.027-0.085-0.055-0.082 c-0.058,0.008-1.68,0.376-1.783,0.398c-0.103,0.022-0.176,0.046-0.208,0.058c-0.067,0.024-0.189,0.09-0.189,0.09 c0.064,0.045,0.16,0.073,0.212,0.106c0.052,0.034,2.295,1.207,2.339,1.242C7.482,30.644,7.618,30.678,7.618,30.678z" clip-rule="evenodd"/><path fill="#322110" fill-rule="evenodd" d="M5.667,28.15c-0.047,0.021-0.089,0.034-0.089,0.034 c0.08-0.132,0.245-0.392,0.339-0.514c0.093-0.122,0.39-0.503,0.549-0.651c0.158-0.149,0.41-0.388,0.48-0.449 c0.071-0.062,0.11-0.09,0.11-0.09c0.025-0.01,0.064-0.01,0.064-0.01c0.027,0.016,0.029,0.035,0.051,0.094 c0.026,0.08,0.122,0.745,0.134,0.835c0.012,0.09,0.068,0.377,0.073,0.417c-0.07,0.018-1.371,0.257-1.45,0.284 C5.881,28.117,5.724,28.124,5.667,28.15z" clip-rule="evenodd"/><path fill="#322110" fill-rule="evenodd" d="M8.09,29.804c-0.03-0.152-0.113-0.843-0.119-0.941 c-0.007-0.098-0.099-0.556-0.099-0.556c0.056,0,0.074-0.012,0.151-0.004c0.077,0.008,1.331,0.134,1.37,0.145 c0.039,0.012,0.11,0.02,0.135,0.048c-0.198,0.114-0.444,0.292-0.733,0.561C8.506,29.326,8.136,29.747,8.09,29.804z" clip-rule="evenodd"/><path fill="#322110" fill-rule="evenodd" d="M10.153,27.97c-0.141,0.002-1.823-0.296-1.908-0.315 c-0.084-0.018-0.242-0.04-0.242-0.04c-0.039-0.288-0.135-0.743-0.167-0.898c-0.032-0.155-0.092-0.412-0.107-0.532 c-0.017-0.132-0.009-0.147,0.074-0.056c0.043,0.047,2.215,1.701,2.281,1.756C10.152,27.94,10.185,27.97,10.153,27.97z" clip-rule="evenodd"/><path fill="#322110" fill-rule="evenodd" d="M11.352,27.56c-0.127,0.028-0.371,0.088-0.418,0.101 c-0.045,0.013-0.044,0.03-0.066,0.012c-0.012-0.009-0.171-0.123-0.252-0.187c-0.082-0.064-2.054-1.797-2.095-1.826 c-0.041-0.03-0.037-0.041-0.009-0.057c0.028-0.016,0.293-0.197,0.353-0.251c0.059-0.055,0.079-0.055,0.079-0.055 c0.039,0.051,0.666,0.655,0.793,0.765c0.217,0.189,0.639,0.558,0.789,0.692c0.15,0.134,0.438,0.421,0.528,0.503 c0.09,0.082,0.254,0.245,0.265,0.256C11.333,27.523,11.352,27.56,11.352,27.56z" clip-rule="evenodd"/><path fill="#322110" fill-rule="evenodd" d="M9.997,24.974c-0.039-0.043-0.075-0.073,0.008-0.1 c0.083-0.027,0.268-0.105,0.39-0.14c0.121-0.035,0.162-0.048,0.162-0.048c0.18,0.23,0.403,0.438,0.594,0.629 c0.191,0.191,1.272,1.23,1.386,1.346c0.114,0.116,0.462,0.524,0.462,0.524c0.074-0.107,0.561-1.541,0.61-1.622 c0.048-0.081,0.369-0.812,0.394-0.877c0.025-0.065,0.152-0.306,0.152-0.306c0.079,0.016,0.146,0.021,0.199,0.035 c0.059,0.017,0.21,0.035,0.253,0.045c0.042,0.009,0.072,0.035,0.072,0.035c-0.044,0.055-0.057,0.124-0.101,0.229 c-0.043,0.106-0.251,0.602-0.351,0.843c-0.1,0.241-0.509,1.448-0.555,1.528c-0.046,0.08-0.116,0.197-0.134,0.245 c-0.125-0.026-1.101,0.011-1.101,0.011c-0.015-0.013-0.047-0.054-0.09-0.087c-0.043-0.032-0.744-0.739-0.845-0.837 c-0.101-0.097-1.175-1.137-1.232-1.208C10.227,25.166,10.083,25.068,9.997,24.974z" clip-rule="evenodd"/><path fill="#322110" fill-rule="evenodd" d="M12.763,25.899c-0.108-0.141-0.347-0.403-0.553-0.639 c-0.207-0.235-0.444-0.524-0.503-0.583c-0.059-0.061-0.209-0.233-0.209-0.233c0.259-0.074,0.382-0.083,0.575-0.102 c0.262-0.025,0.564-0.033,0.716-0.043c0.148-0.009,0.272-0.009,0.367-0.01c0.095,0,0.183-0.004,0.183-0.004 C13.254,24.595,12.763,25.899,12.763,25.899z" clip-rule="evenodd"/><path fill="#322110" fill-rule="evenodd" d="M14.198,27.514c0.054-0.089,0.136-0.208,0.181-0.283 c0.045-0.076,0.834-1.379,0.902-1.483c0.068-0.104,0.346-0.528,0.397-0.611c0.051-0.084,0.162-0.297,0.162-0.297 c0.132-0.008,0.332,0.105,0.438,0.143c0.107,0.038,0.216,0.132,0.258,0.157c0.042,0.025,0.079,0.05,0.079,0.05 c-0.142,0.204-0.193,0.277-0.217,0.32c-0.05,0.095-0.364,0.462-0.449,0.57c-0.085,0.108-0.183,0.281-0.282,0.39 c-0.099,0.11-0.577,0.794-0.653,0.899c-0.075,0.105-0.123,0.188-0.141,0.227c-0.035,0.075-0.025,0.099-0.08,0.082 c-0.065-0.02-0.236-0.076-0.322-0.098C14.384,27.558,14.198,27.514,14.198,27.514z" clip-rule="evenodd"/><path fill="#322110" fill-rule="evenodd" d="M15.679,27.976c0.121-0.196,0.451-0.712,0.58-0.891 c0.129-0.179,0.562-0.76,0.661-0.881c0.098-0.122,0.42-0.543,0.473-0.606c0.055-0.062,0.024,0.028,0.018,0.157 c-0.006,0.12-0.087,1.264-0.086,1.37c0.001,0.106-0.034,0.163-0.058,0.207c-0.074,0.057-0.117,0.091-0.211,0.119 c-0.094,0.028-1.193,0.488-1.264,0.506C15.723,27.977,15.679,27.976,15.679,27.976z" clip-rule="evenodd"/><path fill="#322110" fill-rule="evenodd" d="M17.293,29.448c-0.095-0.082-0.267-0.247-0.4-0.366 c-0.132-0.119-0.367-0.31-0.467-0.396c-0.101-0.086-0.243-0.214-0.271-0.221c0.115-0.055,0.292-0.066,0.383-0.088 c0.091-0.022,0.566-0.115,0.615-0.134c0.06-0.024,0.11-0.042,0.136-0.046c0.065-0.011,0.054-0.035,0.048,0.084 c-0.006,0.119-0.032,1.02-0.03,1.067C17.308,29.394,17.322,29.474,17.293,29.448z" clip-rule="evenodd"/><path fill="#322110" fill-rule="evenodd" d="M17.995,29.886c-0.045,0.057-0.06,0.067-0.058,0.045 c-0.006-0.118,0.002-0.245,0.006-0.307c0.004-0.062,0.022-0.243,0.022-0.298c0-0.055,0.024-0.378,0.026-0.485 c0.002-0.108,0.039-0.537,0.037-0.583c0.191-0.058,0.372-0.076,0.499-0.096c0.128-0.02,0.948-0.187,1.029-0.201 c0.08-0.014,0.136-0.03,0.167-0.036c0.031-0.006-0.009,0.026-0.075,0.077c-0.066,0.051-0.19,0.175-0.281,0.236 c-0.091,0.061-0.66,0.755-0.793,0.917C18.44,29.316,18.03,29.825,17.995,29.886z" clip-rule="evenodd"/><path fill="#322110" fill-rule="evenodd" d="M18.352,31.415c-0.034-0.114-0.09-0.409-0.105-0.48 c-0.017-0.072-0.028-0.198-0.049-0.229c0.059-0.053,0.063-0.077,0.109-0.117c0.045-0.04,0.583-0.637,0.682-0.726 c0.098-0.089,0.507-0.5,0.556-0.558c0.05-0.059,0.119-0.188,0.175-0.247c0.056-0.06,0.393-0.461,0.443-0.501 c0.051-0.04,0.112-0.087,0.112-0.087c0.057,0.058,0.091,0.1,0.157,0.203c0.065,0.103,0.129,0.176,0.15,0.216 c0.021,0.04,0.074,0.137,0.091,0.156c-0.296,0.243-0.231,0.19-0.284,0.227c-0.052,0.038-0.141,0.133-0.152,0.147 c-0.017,0.025-0.063,0.093-0.13,0.153c-0.068,0.06-1.425,1.537-1.471,1.582c-0.047,0.045-0.087,0.094-0.115,0.126 C18.492,31.312,18.398,31.379,18.352,31.415z" clip-rule="evenodd"/><path fill="#322110" fill-rule="evenodd" d="M19.448,27.432c-0.11,0.015-0.12,0.015-0.186,0.03 c-0.046,0.01-1.268,0.171-1.268,0.171s0.012-0.167,0.016-0.243c0.004-0.076,0.068-1.016,0.086-1.099 c0.023-0.102,0.019-0.137,0.031-0.224c0.006-0.044-0.001-0.076,0.02-0.094c0.016-0.013,0.034,0.016,0.052,0.037 c0.024,0.027,0.016,0.009,0.065,0.063c0.049,0.055,0.192,0.168,0.255,0.248c0.063,0.082,0.59,0.665,0.659,0.744 c0.068,0.079,0.123,0.16,0.176,0.228C19.407,27.36,19.448,27.432,19.448,27.432z" clip-rule="evenodd"/><path fill="#322110" fill-rule="evenodd" d="M18.949,32.581c-0.034,0.051-0.058,0.073,0.005,0.107 c0.063,0.034,1.556,0.578,1.739,0.637c0.183,0.058,0.62,0.228,0.697,0.26c0.078,0.032,0.145,0.071,0.145,0.071 c0.009,0.111,0.017,0.2,0.016,0.343c-0.001,0.142-0.008,0.266-0.027,0.327c-0.157-0.054-0.44-0.175-0.574-0.23 c-0.134-0.055-0.51-0.196-0.68-0.257c-0.17-0.06-0.473-0.176-0.623-0.234c-0.152-0.057-1.02-0.389-1.093-0.409 c0.019-0.113,0.022-0.316,0.037-0.405c0.015-0.089-0.009-0.256-0.019-0.344c-0.01-0.088-0.011-0.22-0.016-0.26 c-0.009-0.061,0.019-0.074,0.069-0.115c0.05-0.041,0.281-0.253,0.424-0.371c0.143-0.117,1.919-1.652,1.968-1.692 c0.05-0.041,0.146-0.128,0.146-0.128s0.166,0.41,0.2,0.536c0.035,0.125,0.038,0.241,0.038,0.241 c-0.236,0.145-0.383,0.25-0.542,0.379c-0.159,0.13-0.347,0.255-0.421,0.316c-0.074,0.061-1.265,0.969-1.315,1.009 C19.055,32.417,18.98,32.536,18.949,32.581z" clip-rule="evenodd"/><path fill="#322110" fill-rule="evenodd" d="M21.611,32.941c-0.088-0.048-0.272-0.095-0.381-0.138 c-0.11-0.043-0.844-0.292-0.917-0.316c-0.061-0.02-0.094-0.02-0.114-0.032c-0.019-0.012,0.073-0.052,0.107-0.086 c0.033-0.035,1.124-0.87,1.178-0.914c0.054-0.043,0.104-0.111,0.103-0.026c-0.002,0.083,0,0.195,0.002,0.228 c0.009,0.162,0.04,0.509,0.04,0.709c0,0.103,0,0.221-0.003,0.297C21.621,32.74,21.616,32.877,21.611,32.941z" clip-rule="evenodd"/><path fill="#322110" fill-rule="evenodd" d="M21.353,35.491c-0.027,0.048-0.066,0.116-0.095,0.178 c-0.028,0.062-0.076,0.14-0.107,0.187c-0.044,0.067-0.064,0.134-0.127,0.185c-0.042-0.022-0.843-0.482-0.951-0.537 c-0.108-0.054-1.556-0.878-1.591-0.905c-0.036-0.028-0.036-0.065-0.037-0.126c-0.001-0.062-0.004-0.286-0.001-0.356 c0.002-0.07,0-0.184,0-0.184c0.158,0.082,0.357,0.177,0.467,0.235c0.11,0.058,0.965,0.505,1.12,0.59 c0.154,0.084,0.535,0.264,0.637,0.34c0.101,0.075,0.231,0.149,0.32,0.207c0.088,0.058,0.192,0.098,0.241,0.122 C21.283,35.452,21.353,35.491,21.353,35.491z" clip-rule="evenodd"/><path fill="#322110" fill-rule="evenodd" d="M20.441,37.014c-0.129,0.055-1.814,0.221-1.916,0.226 c-0.102,0.004-0.242,0.015-0.242,0.015c-0.007-0.174-0.032-0.392-0.04-0.544c-0.009-0.152-0.029-0.432-0.046-0.551 c-0.017-0.119-0.048-0.45-0.063-0.56c-0.015-0.11-0.004-0.176,0.001-0.227c0.005-0.051,0.028-0.034,0.062-0.002 c0.027,0.026,0.446,0.324,0.649,0.484c0.203,0.16,1.324,0.943,1.401,1.014C20.324,36.94,20.441,37.014,20.441,37.014z" clip-rule="evenodd"/><path fill="#322110" fill-rule="evenodd" d="M17.587,37.602c-0.303,0.038-1.278,0.116-1.323,0.108 c-0.045-0.009-0.06-0.029-0.021-0.055c0.04-0.026,0.316-0.222,0.388-0.274c0.073-0.053,0.258-0.225,0.366-0.338 c0.108-0.112,0.313-0.384,0.374-0.46c0.06-0.075,0.093-0.123,0.172-0.19c0.004,0.068,0.009,0.157,0.015,0.234 C17.564,36.703,17.613,37.504,17.587,37.602z" clip-rule="evenodd"/><path fill="#322110" fill-rule="evenodd" d="M18.235,40.048l-0.033,0.01l-0.008-0.029 c-0.025-0.072-0.061-1.845-0.069-1.902c0.239-0.018,1.976-0.199,2.076-0.228c0.006,0.038-0.011,0.039-0.016,0.069 c-0.005,0.03-0.322,0.509-0.339,0.537c-0.017,0.028-0.453,0.543-0.575,0.682C19.151,39.327,18.291,39.987,18.235,40.048z" clip-rule="evenodd"/><path fill="#322110" fill-rule="evenodd" d="M17.536,40.137c0.011,0.067,0.076,0.261,0.041,0.323 c-0.032,0.007-0.115,0.008-0.16-0.055c-0.045-0.063-1.847-1.779-1.917-1.871c-0.071-0.091-0.139-0.159-0.139-0.159 c0.143-0.013,1.53-0.013,1.629,0.001c0.099,0.014,0.32-0.003,0.32-0.003C17.361,38.485,17.513,39.995,17.536,40.137z" clip-rule="evenodd"/><path fill="#322110" fill-rule="evenodd" d="M16.254,41.245c-0.089-0.147-0.121-0.214-0.176-0.284 c-0.056-0.07-0.452-0.524-0.609-0.691c-0.156-0.168-1.29-1.461-1.332-1.49c-0.041-0.028-0.018-0.024,0.035-0.04 c0.051-0.016,0.154-0.042,0.24-0.061c0.086-0.019,0.159-0.05,0.159-0.05c0.144,0.149,0.202,0.213,0.382,0.399 c0.181,0.187,1.462,1.565,1.597,1.716c0.134,0.152,0.188,0.213,0.216,0.251c-0.032,0.028-0.075,0.064-0.179,0.096 C16.483,41.123,16.381,41.207,16.254,41.245z" clip-rule="evenodd"/><path fill="#322110" fill-rule="evenodd" d="M15.311,41.624c-0.059,0.036-0.227,0.072-0.3,0.103 c-0.072,0.03-0.405,0.094-0.405,0.094c-0.139-0.232-0.345-0.453-0.498-0.654c-0.153-0.201-0.59-0.762-0.688-0.892 c-0.098-0.13-1.043-1.109-1.043-1.109c-0.084,0.128-0.141,0.15-0.221,0.318c-0.081,0.167-1.216,2.415-1.226,2.46 c-0.086-0.039-0.289-0.071-0.373-0.107c-0.083-0.035-0.19-0.075-0.234-0.107c0.051-0.157,0.133-0.315,0.219-0.439 c0.084-0.124,0.071-0.056,0.11-0.141c0.039-0.085,0.238-0.448,0.292-0.555c0.055-0.108,0.77-1.524,0.793-1.572 c0.023-0.049,0.045-0.097,0.081-0.15c0.222,0.031,0.79,0.044,0.928,0.046c0.292,0.243,0.498,0.426,0.766,0.744 c0.269,0.318,0.455,0.527,0.659,0.74C14.374,40.614,15.242,41.573,15.311,41.624z" clip-rule="evenodd"/><path fill="#322110" fill-rule="evenodd" d="M11.896,42.114c-0.107-0.003-0.156-0.042-0.201-0.046 l-0.033-0.008l0.006-0.021c0.081-0.137,0.101-0.235,0.182-0.387c0.081-0.152,0.281-0.601,0.324-0.689 c0.043-0.088,0.125-0.289,0.176-0.372c0.05-0.084,0.111-0.221,0.143-0.25c0.089,0.111,0.192,0.226,0.295,0.341 c0.104,0.116,0.39,0.385,0.532,0.531c0.141,0.147,0.215,0.236,0.308,0.359c0.093,0.123,0.193,0.26,0.238,0.322 c0.045,0.063,0.029,0.079-0.118,0.109c-0.156,0.031-0.18,0.033-0.383,0.078c-0.204,0.046-0.387,0.069-0.524,0.068 c-0.138-0.001-0.146,0.009-0.296,0.006c-0.176-0.004-0.205,0-0.205,0C12.194,42.162,11.979,42.116,11.896,42.114z" clip-rule="evenodd"/><path fill="#322110" fill-rule="evenodd" d="M12.791,36.875c-0.02-0.052-0.083-0.188-0.113-0.277 c-0.03-0.088-0.081-0.313-0.095-0.416c-0.013-0.104-0.055-0.377-0.053-0.418c0.003-0.041,0.016-0.192,0.038-0.28 c0.022-0.087,0.026-0.132,0.049-0.179c0.015-0.032,0.053-0.166,0.075-0.223c0.022-0.058,0.027-0.106,0.047-0.161 c0.016-0.046,0.023-0.083,0.046-0.14c0.058,0.056,0.098,0.136,0.133,0.221c0.035,0.084,0.068,0.2,0.085,0.308 c0.018,0.108,0.042,0.351,0.023,0.495c-0.019,0.144-0.028,0.314-0.056,0.449c-0.028,0.134-0.07,0.359-0.103,0.434 C12.835,36.764,12.835,36.832,12.791,36.875z" clip-rule="evenodd"/><path fill="#322110" fill-rule="evenodd" d="M11.527,36.032c-0.006-0.052-0.011-0.125-0.006-0.173 c0.005-0.048,0.028-0.213,0.051-0.323c0.023-0.11,0.088-0.265,0.127-0.357c0.039-0.092,0.149-0.249,0.218-0.327 c0.069-0.078,0.156-0.178,0.174-0.194c0.028-0.032,0.038-0.014,0.044,0.055c0.003,0.038,0.02,0.084,0.01,0.19 c-0.009,0.106-0.058,0.304-0.094,0.411c-0.036,0.108-0.079,0.221-0.179,0.326c-0.1,0.105-0.21,0.253-0.247,0.298 C11.591,35.984,11.562,36.019,11.527,36.032z" clip-rule="evenodd"/><path fill="#322110" fill-rule="evenodd" d="M10.78,35.252c-0.066,0.037-0.111,0.049-0.074,0.001 c0.037-0.048,0.14-0.263,0.178-0.335c0.038-0.073,0.19-0.304,0.256-0.364c0.065-0.061,0.217-0.23,0.354-0.31 c0.138-0.081,0.147-0.082,0.201-0.091c0.037-0.006,0.033,0.011-0.012,0.089c-0.045,0.079-0.063,0.153-0.144,0.289 c-0.081,0.137-0.136,0.232-0.282,0.383c-0.146,0.151-0.255,0.207-0.338,0.26C10.836,35.226,10.819,35.226,10.78,35.252z" clip-rule="evenodd"/><path fill="#322110" fill-rule="evenodd" d="M10.858,34.155c0.064-0.047,0.13-0.092,0.198-0.135 c0.025-0.016,0.049-0.031,0.074-0.046c0.027-0.016,0.046-0.037,0.072-0.055c0.014-0.009,0.024-0.017,0.036-0.026 c0.015-0.01,0.035-0.021,0.048-0.035c0.017-0.02,0.008-0.031-0.014-0.037c-0.067-0.018-0.095-0.022-0.151-0.012 c-0.103,0.019-0.156,0.014-0.226,0.026c-0.061,0.011-0.066,0.024-0.135,0.039c-0.069,0.015-0.158,0.059-0.216,0.087 c-0.058,0.028-0.225,0.084-0.339,0.168c-0.113,0.084-0.25,0.184-0.287,0.235c0.115,0.004,0.321,0.014,0.47-0.021 C10.536,34.308,10.707,34.264,10.858,34.155z" clip-rule="evenodd"/><path fill="#322110" fill-rule="evenodd" d="M11.323,33.13c-0.144,0.04-0.192,0.062-0.28,0.093 c-0.088,0.03-0.12,0.018-0.202,0.063c-0.251,0.087-0.442,0.104-0.603,0.109c-0.162,0.004-0.355,0.007-0.543-0.008 c-0.188-0.015-0.354-0.059-0.43-0.064c-0.054-0.004-0.132-0.034-0.152-0.038c-0.021-0.004-0.026-0.015,0.042-0.054 c0.069-0.039,0.13-0.038,0.178-0.061c0.091-0.043,0.157-0.062,0.222-0.087c0.094-0.036,0.246-0.078,0.381-0.115 c0.134-0.036,0.293-0.05,0.401-0.042c0.109,0.007,0.238,0.014,0.329,0.013c0.092-0.001,0.222,0.028,0.311,0.047 c0.083,0.018,0.213,0.044,0.263,0.082C11.288,33.105,11.28,33.098,11.323,33.13z" clip-rule="evenodd"/><path fill="#322110" fill-rule="evenodd" d="M12.864,31.111c-0.047,0.076-0.047,0.089-0.093,0.02 c-0.028-0.044-0.088-0.292-0.118-0.414c-0.03-0.122-0.055-0.428-0.047-0.685c0.006-0.185,0.02-0.368,0.037-0.477 c0.016-0.109,0.04-0.332,0.149-0.447c0.113,0.163,0.116,0.257,0.16,0.434c0.044,0.177,0.052,0.461,0.055,0.546 c0.003,0.072,0.001,0.109-0.001,0.225c-0.001,0.073-0.026,0.228-0.032,0.307c-0.007,0.08-0.027,0.172-0.035,0.252 c-0.008,0.088-0.023,0.123-0.04,0.163C12.881,31.083,12.864,31.111,12.864,31.111z" clip-rule="evenodd"/><path fill="#322110" fill-rule="evenodd" d="M13.447,31.395c0.089-0.073,0.226-0.209,0.304-0.379 c0.077-0.169,0.122-0.293,0.167-0.429c0.048-0.144,0.104-0.516,0.104-0.516c-0.121,0.096-0.278,0.302-0.353,0.372 c-0.076,0.07-0.154,0.24-0.185,0.331c-0.031,0.091-0.074,0.291-0.099,0.375c-0.023,0.085-0.013,0.084-0.013,0.135 c0,0.032,0.009,0.086,0.019,0.102C13.402,31.401,13.415,31.406,13.447,31.395z" clip-rule="evenodd"/><path fill="#322110" fill-rule="evenodd" d="M13.918,31.858c0.043-0.156,0.176-0.4,0.396-0.582 c0.219-0.183,0.198-0.173,0.316-0.224c0.117-0.051,0.12-0.062,0.198-0.095c0.077-0.034,0.023,0.031-0.011,0.095 c-0.035,0.064-0.093,0.212-0.164,0.3c-0.072,0.088-0.108,0.136-0.226,0.23c-0.118,0.094-0.255,0.201-0.349,0.24 C13.984,31.86,13.918,31.858,13.918,31.858z" clip-rule="evenodd"/><path fill="#322110" fill-rule="evenodd" d="M14.41,32.442c-0.037,0.011-0.073,0.024-0.112,0.03 c-0.027,0.004-0.064,0.017-0.059-0.021c0.003-0.025,0.014-0.054,0.026-0.077c0.019-0.04,0.037-0.091,0.062-0.128 c0.025-0.038,0.061-0.064,0.097-0.091c0.082-0.064,0.167-0.126,0.263-0.167c0.113-0.047,0.154-0.087,0.241-0.129 c0.087-0.042,0.146-0.067,0.248-0.092c0.101-0.025,0.182-0.035,0.23-0.038c-0.123,0.163-0.202,0.277-0.355,0.39 c-0.153,0.112-0.309,0.222-0.4,0.25C14.561,32.396,14.468,32.426,14.41,32.442z" clip-rule="evenodd"/><path fill="#322110" fill-rule="evenodd" d="M16.617,33.1c-0.16,0.055-0.402,0.13-0.623,0.151 c-0.22,0.022-0.401,0.027-0.668,0.029c-0.266,0.002-0.492-0.022-0.578-0.038c-0.086-0.015-0.147-0.037-0.188-0.044 c-0.04-0.007-0.141-0.04-0.164-0.066c-0.023-0.027-0.089-0.067,0.002-0.096c0.091-0.028,0.468-0.166,0.602-0.203 c0.135-0.036,0.288-0.05,0.375-0.044c0.157,0.009,0.222,0.011,0.338,0.021c0.116,0.01,0.221,0.022,0.322,0.049 c0.101,0.027,0.278,0.068,0.376,0.102c0.097,0.034,0.134,0.066,0.158,0.088C16.593,33.071,16.617,33.1,16.617,33.1z" clip-rule="evenodd"/><path fill="#322110" fill-rule="evenodd" d="M15.906,34.239c-0.151,0.008-0.327,0.005-0.493-0.025 c-0.166-0.03-0.34-0.087-0.446-0.135c-0.106-0.048-0.329-0.153-0.396-0.205c-0.066-0.052-0.076-0.097-0.076-0.097 c0.092-0.022,0.171-0.013,0.253-0.012c0.082,0.001,0.224-0.007,0.368,0.046c0.144,0.053,0.3,0.139,0.404,0.185 c0.104,0.046,0.26,0.123,0.31,0.16C15.88,34.194,15.906,34.239,15.906,34.239z" clip-rule="evenodd"/><path fill="#322110" fill-rule="evenodd" d="M15.081,35.383c-0.053-0.02-0.153-0.069-0.201-0.11 c-0.049-0.041-0.16-0.099-0.259-0.157c-0.099-0.058-0.195-0.124-0.245-0.186c-0.049-0.062-0.184-0.301-0.27-0.445 c-0.087-0.144-0.102-0.192-0.031-0.141c0.072,0.052,0.145,0.081,0.235,0.139c0.09,0.058,0.25,0.177,0.401,0.335 c0.151,0.158,0.223,0.277,0.293,0.386C15.057,35.287,15.072,35.332,15.081,35.383z" clip-rule="evenodd"/><path fill="#322110" fill-rule="evenodd" d="M14.017,36.107c-0.177-0.199-0.361-0.45-0.473-0.732 c-0.113-0.283-0.132-0.449-0.144-0.556c-0.004-0.036-0.004-0.144-0.004-0.144c-0.002-0.055,0.006-0.035,0.059,0.017 c0.091,0.086,0.184,0.212,0.265,0.318c0.08,0.106,0.047,0.081,0.113,0.152c0.066,0.072,0.155,0.241,0.174,0.417 C14.028,35.754,14.062,35.978,14.017,36.107z" clip-rule="evenodd"/><path fill="#322110" fill-rule="evenodd" d="M11.429,32.47c-0.131-0.011-0.306-0.021-0.488-0.073 c-0.182-0.052-0.333-0.099-0.448-0.18c-0.115-0.081-0.222-0.135-0.309-0.203c-0.053-0.04-0.099-0.104-0.115-0.122 c-0.015-0.017-0.038-0.057-0.038-0.057c0.068-0.01,0.079-0.006,0.117-0.001c0.059,0.011,0.055,0.013,0.085,0.025 c0.026,0.01,0.301,0.057,0.408,0.093c0.108,0.035,0.209,0.04,0.365,0.163c0.155,0.123,0.298,0.221,0.366,0.263 C11.441,32.418,11.539,32.467,11.429,32.47z" clip-rule="evenodd"/><path fill="#322110" fill-rule="evenodd" d="M11.767,31.985c-0.088-0.041-0.21-0.116-0.278-0.153 c-0.069-0.037-0.167-0.085-0.256-0.15c-0.088-0.064-0.193-0.143-0.263-0.219c-0.071-0.076-0.105-0.111-0.178-0.241 c-0.073-0.131-0.141-0.273-0.166-0.32c-0.025-0.047-0.054-0.094,0.079-0.044c0.133,0.05,0.167,0.078,0.262,0.117 c0.094,0.039,0.18,0.116,0.215,0.139c0.035,0.021,0.105,0.076,0.129,0.103c0.025,0.028,0.054,0.06,0.131,0.139 c0.076,0.079,0.156,0.183,0.219,0.311c0.062,0.127,0.093,0.216,0.099,0.253C11.761,31.93,11.767,31.985,11.767,31.985z" clip-rule="evenodd"/><path fill="#322110" fill-rule="evenodd" d="M12.086,31.469c-0.145-0.152-0.298-0.379-0.374-0.54 c-0.075-0.161-0.129-0.316-0.168-0.444c-0.039-0.127-0.066-0.266-0.077-0.325c-0.011-0.059-0.001-0.08-0.001-0.08 c0.099,0.1,0.158,0.19,0.245,0.304c0.088,0.114,0.172,0.267,0.198,0.329c0.026,0.062,0.071,0.117,0.091,0.181 c0.024,0.076,0.045,0.119,0.055,0.177c0.012,0.07,0.03,0.155,0.036,0.236C12.096,31.388,12.086,31.469,12.086,31.469z" clip-rule="evenodd"/></g><g><g><g><polygon fill="#322110" points="34.09 50.414 33.636 50.175 33.2 50.414 33.2 44.823 33.662 45.052 34.09 44.823"/><polygon fill="#322110" points="43.719 46.551 44.852 50.414 45.277 50.175 45.701 50.414 47.341 44.823 46.824 45.052 46.44 44.823 45.277 49.05 44.043 44.823 43.719 45.052 43.396 44.823 42.163 49.05 40.999 44.823 40.615 45.052 40.099 44.823 41.738 50.414 42.163 50.175 42.586 50.414"/><polygon fill="#322110" points="53.749 50.413 53.749 48.182 51.797 44.823 52.419 45.052 52.778 44.823 54.224 47.406 55.66 44.823 56.02 45.052 56.641 44.823 54.699 48.182 54.699 50.413 54.214 50.173"/><path fill="#322110" d="M59.164,50.494c-1.234,0-2.367-0.539-2.164-1.778l0.439,0.219l0.471-0.219 c-0.111,0.61,0.516,1.006,1.254,1.006c0.829,0,1.335-0.346,1.335-0.824c0-1.322-3.368-0.671-3.368-2.643 c0-0.997,0.94-1.514,2.083-1.514c1.204,0,2.246,0.508,2.003,1.677l-0.454-0.224l-0.486,0.224 c0.122-0.579-0.273-0.925-1.062-0.925c-0.637,0-1.162,0.305-1.162,0.772c0,1.169,3.368,0.61,3.368,2.582 C61.42,49.945,60.47,50.494,59.164,50.494z"/><path fill="#322110" d="M38.482,48.557c0.531-0.287,0.936-1.009,0.961-1.764c0.001-0.026,0.004-0.178,0.002-0.203 c-0.062-1.087-0.84-1.769-1.817-1.769h-2.102v5.593l0.002-0.001l0.431-0.238l0.419,0.239v-1.629l0.986-0.001 c0,0,0.09,0,0.234-0.014l1.289,1.644l0.346-0.239l0.794,0.239L38.482,48.557z M36.379,48.015v-2.393h1.224 c0.534,0,0.947,0.44,0.99,0.986c0.002,0.018,0.01,0.05,0.009,0.136c-0.001,0.09-0.013,0.174-0.015,0.191 c-0.07,0.655-0.52,1.08-1.062,1.08L36.379,48.015z"/><path fill="#322110" d="M28.891,48.014h1.661l-0.834-2.267L28.891,48.014z M30.204,44.823l2.093,5.59l-0.534-0.238 l-0.356,0.238l-0.602-1.632h-2.163l-0.614,1.632l-0.355-0.238l-0.535,0.238l2.094-5.59l0.485,0.23L30.204,44.823z"/><path fill="#322110" d="M48.934,48.014h1.661l-0.845-2.267L48.934,48.014z M50.246,44.823l2.094,5.59l-0.514-0.238 l-0.376,0.238l-0.602-1.632h-2.163l-0.613,1.632l-0.371-0.238l-0.52,0.238l2.094-5.59l0.49,0.23L50.246,44.823z"/><g><g><polygon fill="#322110" points="37.039 24.991 25.412 24.991 25.412 41.45 26.996 40.668 26.996 26.575 36.258 26.575"/></g><polygon fill="#322110" points="37.039 28.826 36.254 27.241 27.662 27.241 27.663 40.668 29.247 41.453 29.248 35.518 35.598 35.518 34.811 33.934 29.248 33.934 29.248 33.268 34.814 33.268 35.596 31.685 29.248 31.685 29.248 28.826"/></g><g><polygon fill="#322110" points="39.766 24.842 39.766 41.45 41.35 40.668 41.35 25.624"/></g><g><polygon fill="#322110" points="43.6 24.842 43.6 41.45 42.016 40.668 42.016 25.624"/></g><g><polygon fill="#322110" points="59.836 24.842 59.836 41.45 61.42 40.668 61.42 25.624"/></g><g><polygon fill="#322110" points="63.671 24.842 63.671 41.45 62.087 40.668 62.087 25.624"/></g><g><path fill="#322110" d="M54.336,35.568v-9.943l-1.584-0.782v10.437c0,1.533-0.37,2.524-2.013,2.524 c-1.094,0-1.822-0.553-2.557-1.391l-0.6,1.633c0.757,0.635,1.531,1.342,3.361,1.342 C52.773,39.387,54.336,38.076,54.336,35.568z"/><path fill="#322110" d="M56.587,35.551V24.842l-1.585,0.782v10.096c0,2.815-1.999,4.334-4.103,4.334 c-2.105,0-3.183-0.971-3.775-1.52l-1.636,0.605c1.187,1.218,2.681,2.495,5.366,2.495 C53.537,41.634,56.587,39.867,56.587,35.551z"/></g></g></g></g></g><rect width="70" height="36.396" x="-.843" y="19.504" fill="none"/></g></svg>