<svg xmlns="http://www.w3.org/2000/svg" width="70" height="70" version="1.1" viewBox="0 0 70 70"><g id="surface1"><path d="M 21.75 39.734375 L 20.449219 39.734375 C 20.308594 39.734375 20.1875 39.570312 20.1875 39.378906 L 20.1875 35.527344 C 20.1875 35.410156 20.121094 35.324219 20.035156 35.324219 L 19.664062 35.324219 C 19.519531 35.324219 19.402344 35.160156 19.402344 34.96875 L 19.402344 33.441406 C 19.402344 33.25 19.519531 33.089844 19.664062 33.089844 L 20.1875 33.089844 L 20.1875 32.867188 C 20.1875 31.105469 20.90625 30.046875 22.121094 30.046875 C 22.742188 30.046875 23.265625 30.253906 23.714844 30.691406 C 23.820312 30.796875 23.855469 31.015625 23.789062 31.179688 L 23.234375 32.457031 C 23.167969 32.617188 23.015625 32.675781 22.882812 32.589844 C 22.71875 32.488281 22.546875 32.382812 22.316406 32.382812 C 22.164062 32.382812 22.019531 32.425781 22.019531 32.914062 L 22.019531 33.089844 L 23.035156 33.089844 C 23.1875 33.089844 23.296875 33.25 23.296875 33.441406 L 23.296875 34.96875 C 23.296875 35.175781 23.179688 35.324219 23.035156 35.324219 L 22.175781 35.324219 C 22.085938 35.324219 22.019531 35.410156 22.019531 35.527344 L 22.019531 39.378906 C 22.011719 39.570312 21.890625 39.734375 21.75 39.734375 Z M 20.710938 39.234375 L 21.484375 39.234375 C 21.574219 39.234375 21.640625 39.144531 21.640625 39.027344 L 21.640625 35.015625 C 21.640625 34.898438 21.703125 34.808594 21.792969 34.808594 L 22.761719 34.808594 C 22.851562 34.808594 22.917969 34.722656 22.917969 34.601562 L 22.917969 33.78125 C 22.917969 33.664062 22.851562 33.574219 22.761719 33.574219 L 21.792969 33.574219 C 21.703125 33.574219 21.640625 33.484375 21.640625 33.367188 L 21.640625 32.898438 C 21.640625 32 22.054688 31.867188 22.304688 31.867188 C 22.5 31.867188 22.675781 31.929688 22.828125 32 C 22.894531 32.03125 22.980469 32 23.015625 31.914062 L 23.332031 31.191406 C 23.375 31.089844 23.351562 30.957031 23.277344 30.898438 C 22.9375 30.648438 22.566406 30.53125 22.121094 30.53125 C 21.125 30.53125 20.558594 31.371094 20.558594 32.855469 L 20.558594 33.367188 C 20.558594 33.484375 20.492188 33.574219 20.40625 33.574219 L 19.925781 33.574219 C 19.835938 33.574219 19.773438 33.664062 19.773438 33.78125 L 19.773438 34.601562 C 19.773438 34.722656 19.835938 34.808594 19.925781 34.808594 L 20.40625 34.808594 C 20.492188 34.808594 20.558594 34.898438 20.558594 35.015625 L 20.558594 39.027344 C 20.558594 39.128906 20.625 39.234375 20.710938 39.234375 Z M 20.710938 39.234375" style="stroke:none;fill-rule:nonzero;fill:#00a0df;fill-opacity:1"/><path d="M 25.949219 39.734375 L 24.652344 39.734375 C 24.5 39.734375 24.390625 39.570312 24.390625 39.378906 L 24.390625 30.546875 C 24.390625 30.339844 24.511719 30.179688 24.664062 30.179688 L 25.960938 30.179688 C 26.113281 30.179688 26.234375 30.339844 26.234375 30.546875 L 26.234375 39.378906 C 26.222656 39.570312 26.105469 39.734375 25.949219 39.734375 Z M 24.914062 39.234375 L 25.6875 39.234375 C 25.777344 39.234375 25.839844 39.144531 25.839844 39.027344 L 25.839844 30.898438 C 25.839844 30.78125 25.777344 30.691406 25.6875 30.691406 L 24.914062 30.691406 C 24.828125 30.691406 24.761719 30.78125 24.761719 30.898438 L 24.761719 39.027344 C 24.761719 39.128906 24.828125 39.234375 24.914062 39.234375 Z M 24.914062 39.234375" style="stroke:none;fill-rule:nonzero;fill:#00a0df;fill-opacity:1"/><path d="M 28.832031 43.820312 L 27.433594 43.820312 C 27.347656 43.820312 27.273438 43.777344 27.21875 43.6875 C 27.152344 43.570312 27.140625 43.421875 27.195312 43.289062 L 28.65625 39.675781 L 26.847656 35.160156 C 26.792969 35.03125 26.800781 34.882812 26.867188 34.765625 C 26.921875 34.675781 27.007812 34.632812 27.097656 34.632812 L 28.570312 34.632812 C 28.667969 34.632812 28.765625 34.707031 28.8125 34.839844 L 29.585938 36.910156 C 29.617188 36.984375 29.695312 36.984375 29.726562 36.910156 L 30.492188 34.839844 C 30.535156 34.722656 30.632812 34.632812 30.730469 34.632812 L 32.128906 34.632812 C 32.214844 34.632812 32.292969 34.675781 32.347656 34.765625 C 32.414062 34.882812 32.425781 35.03125 32.378906 35.160156 L 29.082031 43.628906 C 29.027344 43.746094 28.941406 43.820312 28.832031 43.820312 Z M 27.742188 43.320312 L 28.691406 43.320312 C 28.746094 43.320312 28.800781 43.277344 28.832031 43.203125 L 31.910156 35.277344 C 31.933594 35.207031 31.898438 35.132812 31.84375 35.132812 L 30.894531 35.132812 C 30.839844 35.132812 30.785156 35.175781 30.753906 35.25 L 29.902344 37.574219 C 29.859375 37.691406 29.761719 37.777344 29.664062 37.777344 C 29.5625 37.777344 29.464844 37.703125 29.421875 37.585938 L 28.546875 35.265625 C 28.527344 35.191406 28.472656 35.148438 28.40625 35.148438 L 27.378906 35.148438 C 27.324219 35.148438 27.28125 35.234375 27.316406 35.292969 L 29.007812 39.527344 C 29.050781 39.628906 29.050781 39.761719 29.007812 39.867188 L 27.675781 43.171875 C 27.644531 43.230469 27.675781 43.320312 27.742188 43.320312 Z M 27.742188 43.320312" style="stroke:none;fill-rule:nonzero;fill:#00a0df;fill-opacity:1"/><path d="M 34.542969 39.484375 L 33.242188 39.484375 C 33.199219 39.484375 33.167969 39.4375 33.167969 39.378906 L 33.167969 30.546875 C 33.167969 30.488281 33.199219 30.441406 33.242188 30.441406 L 34.542969 30.441406 C 34.585938 30.441406 34.617188 30.488281 34.617188 30.546875 L 34.617188 39.378906 C 34.628906 39.4375 34.597656 39.484375 34.542969 39.484375 Z M 34.542969 39.484375" style="stroke:none;fill-rule:nonzero;fill:#00a0df;fill-opacity:1"/><path d="M 37.414062 39.484375 L 36.265625 39.484375 C 36.179688 39.484375 36.113281 39.394531 36.113281 39.277344 L 36.113281 33.53125 C 36.113281 33.414062 36.179688 33.324219 36.265625 33.324219 L 37.414062 33.324219 C 37.5 33.324219 37.566406 33.414062 37.566406 33.53125 L 37.566406 39.277344 C 37.566406 39.394531 37.488281 39.484375 37.414062 39.484375 Z M 37.414062 39.484375" style="stroke:none;fill-rule:nonzero;fill:#00a0df;fill-opacity:1"/><path d="M 40.402344 39.484375 L 39.105469 39.484375 C 39.0625 39.484375 39.027344 39.4375 39.027344 39.378906 L 39.027344 30.546875 C 39.027344 30.488281 39.0625 30.441406 39.105469 30.441406 L 40.402344 30.441406 C 40.445312 30.441406 40.480469 30.488281 40.480469 30.546875 L 40.480469 39.378906 C 40.480469 39.4375 40.445312 39.484375 40.402344 39.484375 Z M 40.402344 39.484375" style="stroke:none;fill-rule:nonzero;fill:#00a0df;fill-opacity:1"/><path d="M 43.308594 39.484375 L 42.160156 39.484375 C 42.074219 39.484375 42.007812 39.394531 42.007812 39.277344 L 42.007812 33.53125 C 42.007812 33.414062 42.074219 33.324219 42.160156 33.324219 L 43.308594 33.324219 C 43.394531 33.324219 43.460938 33.414062 43.460938 33.53125 L 43.460938 39.277344 C 43.460938 39.394531 43.394531 39.484375 43.308594 39.484375 Z M 43.308594 39.484375" style="stroke:none;fill-rule:nonzero;fill:#00a0df;fill-opacity:1"/><path d="M 52.136719 34.722656 L 51.296875 35.515625 C 51.230469 35.574219 51.144531 35.558594 51.101562 35.484375 C 50.90625 35.207031 50.675781 35.058594 50.390625 35.058594 C 49.910156 35.058594 49.496094 35.558594 49.496094 36.394531 C 49.496094 37.25 49.898438 37.734375 50.378906 37.734375 C 50.664062 37.734375 50.914062 37.585938 51.113281 37.308594 C 51.167969 37.234375 51.253906 37.21875 51.308594 37.277344 L 52.148438 38.085938 C 52.226562 38.160156 52.234375 38.292969 52.179688 38.394531 C 51.765625 39.085938 51.167969 39.484375 50.425781 39.484375 C 49.039062 39.484375 48.078125 38.191406 48.078125 36.394531 C 48.078125 34.601562 49.039062 33.308594 50.425781 33.308594 C 51.167969 33.308594 51.765625 33.722656 52.179688 34.410156 C 52.226562 34.515625 52.214844 34.648438 52.136719 34.722656 Z M 52.136719 34.722656" style="stroke:none;fill-rule:nonzero;fill:#00a0df;fill-opacity:1"/><path d="M 57.902344 36.394531 C 57.902344 38.160156 56.898438 39.484375 55.542969 39.484375 C 54.191406 39.484375 53.1875 38.175781 53.1875 36.394531 C 53.1875 34.617188 54.191406 33.308594 55.542969 33.308594 C 56.898438 33.324219 57.902344 34.632812 57.902344 36.394531 Z M 54.59375 36.394531 C 54.59375 37.191406 54.996094 37.734375 55.53125 37.734375 C 56.078125 37.734375 56.472656 37.175781 56.472656 36.394531 C 56.472656 35.601562 56.078125 35.058594 55.53125 35.058594 C 54.996094 35.058594 54.59375 35.617188 54.59375 36.394531 Z M 54.59375 36.394531" style="stroke:none;fill-rule:nonzero;fill:#00a0df;fill-opacity:1"/><path d="M 66.242188 35.648438 L 66.242188 39.277344 C 66.242188 39.394531 66.175781 39.484375 66.089844 39.484375 L 65.007812 39.484375 C 64.921875 39.484375 64.855469 39.394531 64.855469 39.277344 L 64.855469 36.308594 C 64.855469 35.617188 64.59375 35.234375 64.167969 35.234375 C 63.785156 35.234375 63.46875 35.589844 63.46875 36.335938 L 63.46875 39.277344 C 63.46875 39.394531 63.402344 39.484375 63.316406 39.484375 L 62.234375 39.484375 C 62.148438 39.484375 62.082031 39.394531 62.082031 39.277344 L 62.082031 36.308594 C 62.082031 35.617188 61.820312 35.234375 61.394531 35.234375 C 61.011719 35.234375 60.695312 35.589844 60.695312 36.335938 L 60.695312 39.277344 C 60.695312 39.394531 60.628906 39.484375 60.542969 39.484375 L 59.460938 39.484375 C 59.375 39.484375 59.308594 39.394531 59.308594 39.277344 L 59.308594 33.839844 C 59.308594 33.722656 59.375 33.632812 59.460938 33.632812 L 60.476562 33.632812 C 60.566406 33.632812 60.628906 33.722656 60.628906 33.839844 L 60.628906 34.042969 C 60.628906 34.148438 60.71875 34.191406 60.761719 34.117188 C 61.035156 33.675781 61.425781 33.484375 61.917969 33.484375 C 62.441406 33.484375 62.902344 33.792969 63.183594 34.324219 C 63.21875 34.382812 63.28125 34.382812 63.304688 34.324219 C 63.597656 33.734375 64.058594 33.484375 64.613281 33.484375 C 65.617188 33.472656 66.242188 34.292969 66.242188 35.648438 Z M 66.242188 35.648438" style="stroke:none;fill-rule:nonzero;fill:#00a0df;fill-opacity:1"/><path d="M 46.710938 38.308594 C 46.710938 38.96875 46.332031 39.484375 45.839844 39.484375 C 45.335938 39.484375 44.957031 38.953125 44.964844 38.292969 C 44.976562 37.675781 45.359375 37.144531 45.816406 37.144531 C 46.320312 37.117188 46.710938 37.632812 46.710938 38.308594 Z M 46.710938 38.308594" style="stroke:none;fill-rule:nonzero;fill:#00a0df;fill-opacity:1"/><path d="M 37.695312 31.414062 C 37.695312 32.074219 37.3125 32.589844 36.824219 32.589844 C 36.320312 32.589844 35.9375 32.058594 35.949219 31.398438 C 35.960938 30.78125 36.34375 30.253906 36.800781 30.253906 C 37.304688 30.222656 37.695312 30.738281 37.695312 31.414062 Z M 37.695312 31.414062" style="stroke:none;fill-rule:nonzero;fill:#00a0df;fill-opacity:1"/><path d="M 43.601562 31.414062 C 43.601562 32.074219 43.21875 32.589844 42.726562 32.589844 C 42.226562 32.589844 41.84375 32.058594 41.855469 31.398438 C 41.867188 30.78125 42.25 30.253906 42.707031 30.253906 C 43.199219 30.222656 43.589844 30.738281 43.601562 31.414062 Z M 43.601562 31.414062" style="stroke:none;fill-rule:nonzero;fill:#00a0df;fill-opacity:1"/><path d="M 14.75 43.921875 C 14.433594 43.921875 14.105469 43.921875 13.769531 43.90625 C 13.375 43.90625 12.929688 43.894531 12.414062 43.894531 C 11.597656 43.894531 11.160156 43.453125 10.929688 43.085938 C 10.503906 42.378906 10.59375 41.496094 10.613281 41.320312 L 11.554688 33.558594 C 11.605469 33.089844 11.933594 32.78125 12.285156 32.855469 C 12.632812 32.925781 12.863281 33.367188 12.808594 33.839844 L 11.871094 41.613281 C 11.871094 41.628906 11.871094 41.628906 11.871094 41.644531 C 11.859375 41.703125 11.859375 41.921875 11.925781 42.027344 C 11.988281 42.144531 12.175781 42.203125 12.414062 42.203125 C 12.929688 42.203125 13.386719 42.203125 13.78125 42.21875 C 14.488281 42.230469 15.089844 42.230469 15.753906 42.203125 C 16.015625 42.1875 16.191406 42.113281 16.257812 41.980469 C 16.34375 41.804688 16.367188 41.304688 16.148438 40.453125 C 15.492188 37.894531 13.167969 28.722656 13.136719 28.636719 C 13.136719 28.621094 13.125 28.605469 13.125 28.578125 C 13.101562 28.457031 12.929688 27.828125 12.371094 27.8125 C 11.628906 27.796875 11.257812 27.8125 10.964844 27.8125 C 10.863281 27.8125 10.765625 27.8125 10.667969 27.8125 C 10.527344 27.8125 10.394531 27.871094 10.285156 27.988281 C 10.210938 28.078125 10.132812 28.207031 10.101562 28.386719 C 9.871094 29.707031 9.292969 33.015625 9.25 33.265625 C 9.164062 33.867188 8.691406 34.96875 7.570312 34.96875 L 5.199219 34.96875 C 5.125 34.96875 5.058594 35.058594 5.058594 35.160156 C 5.078125 36 5.253906 37.484375 5.800781 38.5 C 6.128906 39.101562 6.519531 39.410156 7 39.410156 L 8.484375 39.410156 C 8.484375 39.410156 8.496094 39.410156 8.496094 39.410156 C 8.953125 39.425781 9.816406 39.867188 10.078125 41.4375 C 10.265625 42.511719 10.308594 42.746094 10.320312 42.789062 C 10.417969 43.230469 10.230469 43.71875 9.894531 43.847656 C 9.554688 43.980469 9.195312 43.6875 9.097656 43.21875 C 9.0625 43.070312 9.007812 42.71875 8.84375 41.804688 C 8.746094 41.21875 8.527344 41.113281 8.453125 41.101562 L 6.988281 41.101562 C 5.898438 41.101562 4.980469 40.234375 4.402344 38.675781 C 3.945312 37.425781 3.78125 35.984375 3.78125 35.042969 C 3.78125 33.558594 4.632812 33.25 5.003906 33.25 L 7.570312 33.25 C 7.875 33.25 7.984375 33.058594 8.015625 32.898438 C 8.015625 32.882812 8.015625 32.898438 8.015625 32.867188 C 8.015625 32.867188 8.628906 29.355469 8.878906 27.972656 C 9.085938 26.796875 9.71875 26.09375 10.558594 26.09375 C 10.570312 26.09375 10.570312 26.09375 10.582031 26.09375 C 10.710938 26.09375 10.832031 26.09375 10.964844 26.09375 C 11.269531 26.09375 11.640625 26.09375 12.394531 26.09375 C 13.617188 26.105469 14.207031 27.386719 14.359375 28.078125 C 14.488281 28.589844 16.714844 37.367188 17.359375 39.867188 C 17.699219 41.1875 17.6875 42.1875 17.316406 42.910156 C 17.011719 43.511719 16.507812 43.835938 15.808594 43.863281 C 15.4375 43.90625 15.101562 43.921875 14.75 43.921875 Z M 8.464844 41.113281 C 8.453125 41.113281 8.496094 41.113281 8.472656 41.113281 Z M 8.464844 41.113281 Z M 8.464844 41.113281" style="stroke:none;fill-rule:nonzero;fill:#00a0df;fill-opacity:1"/></g></svg>