<svg xmlns="http://www.w3.org/2000/svg" id="Layer_1" width="70" height="70" x="0" y="0" enable-background="new 0 0 70 70" version="1.1" viewBox="0 0 70 70" xml:space="preserve"><g><path fill="#ED1A3B" d="M0.756,59.718c0,0,7.31-0.961,17.356-11.202l32.88-38.038h18.264l-15.223,49.24H0.756z"/><path fill="#FFF" d="M57.473,27.667c0.224-0.003-6.752-0.359-8.99,0.097c-2.241,0.448-4.351,0.763-6.423,3.892 c-2.061,3.112-3.926,6.246-5.158,8.039c-3.868,5.644-3.868,6.554-8.182,6.958c-2.309,0.218-2.921,0.09-3.503-0.205 c-0.713-0.36-1.046-0.764-2.041,0.058c-1.14,0.959-2.701,0.721-2.665,0.864h32.876c0,0,1.591,0.052,2.152-0.992l-0.825-0.314 c0,0-0.171,1.088-3.447,0.767c-3.265-0.316-7.528-1.162-7.528-1.162l10.127-15.02c0.635-0.816,1.494-1.664,2.322-2.438 c0,0-4.095,0.455-5.817,3.075c-1.748,2.667-9.509,13.827-9.509,13.827l-0.518-0.085l9.896-14.46 C50.239,30.568,51.701,28.13,57.473,27.667 M23.719,46.832c0,0,0.242-0.306,0.468-0.306c0.224,0,0.429,0.306,0.429,0.306H23.719z"/><path fill="#FFF" d="M24.17,45.073c-0.587,0-1.054,0.803-1.054,0.803h2.122C25.238,45.876,24.754,45.073,24.17,45.073"/></g></svg>