<svg xmlns="http://www.w3.org/2000/svg" id="Layer_1" width="70" height="70" x="0" y="0" version="1.1" viewBox="0 0 70 70" xml:space="preserve" style="enable-background:new 0 0 70 70"><style type="text/css">.st0{fill:#002361}.st1,.st2{fill-rule:evenodd;clip-rule:evenodd;fill:#2c9ce0}.st2{fill:#002361}</style><g id="g3344" transform="matrix(1.25,0,0,-1.25,1.25,281.8285)"><path id="path3346" d="M25.17,195.6h0.22c0.38,0,0.67,0.09,0.89,0.27c0.22,0.18,0.32,0.43,0.32,0.74 c0,0.48-0.26,0.72-0.77,0.72h-0.29L25.17,195.6L25.17,195.6z M27.82,196.64c0-0.64-0.22-1.14-0.67-1.5 c-0.45-0.36-1.07-0.55-1.86-0.55h-0.34l-0.43-2.07H23.3l1.23,5.81h1.34c0.64,0,1.13-0.14,1.45-0.42 C27.66,197.63,27.82,197.21,27.82,196.64z M31.17,192.52h-3.25l1.23,5.81h3.25l-0.21-1.01h-2.04l-0.27-1.28h1.9l-0.22-1.01h-1.9 l-0.32-1.5h2.04L31.17,192.52L31.17,192.52z M32.23,192.52l1.23,5.81h1.22l-1.02-4.79h2.04l-0.21-1.02 C35.48,192.52,32.23,192.52,32.23,192.52z M36.34,192.52l1.24,5.81h1.21l-1.24-5.81C37.55,192.52,36.34,192.52,36.34,192.52z M42.24,197.4c-0.35,0-0.66-0.11-0.94-0.32c-0.28-0.21-0.5-0.53-0.67-0.95c-0.17-0.42-0.26-0.87-0.26-1.35 c0-0.44,0.09-0.77,0.27-0.99c0.18-0.21,0.47-0.32,0.87-0.32c0.39,0,0.84,0.1,1.34,0.31v-1.03c-0.53-0.2-1.06-0.31-1.59-0.31 c-0.67,0-1.2,0.2-1.57,0.59c-0.37,0.4-0.56,0.96-0.56,1.68c0,0.69,0.14,1.33,0.41,1.92c0.28,0.58,0.64,1.03,1.11,1.33 c0.46,0.3,0.99,0.46,1.59,0.46c0.33,0,0.63-0.03,0.88-0.09c0.26-0.06,0.53-0.17,0.83-0.33l-0.47-0.99 c-0.28,0.16-0.51,0.26-0.69,0.31C42.6,197.38,42.42,197.4,42.24,197.4L42.24,197.4z M46.87,193.91h-1.88l-0.68-1.38h-1.27 l3.04,5.84h1.48l0.58-5.84h-1.18L46.87,193.91L46.87,193.91z M46.81,194.94l-0.1,1.39c-0.03,0.35-0.04,0.68-0.04,1.01v0.14 c-0.12-0.32-0.26-0.65-0.43-1.01l-0.75-1.53C45.48,194.94,46.81,194.94,46.81,194.94z M53.49,192.52h-1.36l-1.41,4.4h-0.02 l-0.02-0.13c-0.08-0.57-0.17-1.08-0.26-1.53l-0.58-2.74h-1.09l1.23,5.81h1.42l1.35-4.28h0.01c0.03,0.2,0.08,0.49,0.16,0.86 c0.07,0.37,0.31,1.51,0.72,3.42h1.09L53.49,192.52L53.49,192.52z" class="st0"/><path id="path3348" d="M17.15,198.79c-1.2-1.41-2.76-2.95-4.53-3.77c0.16-2.93,12.22-2.92,16.1-3.02 c-11.12-1.02-18.2-0.49-18.03,3.71c1.43,0.52,3.72,2.07,5.21,3.55L17.15,198.79z" class="st1"/><path id="path3350" d="M0.08,192.08c-0.59,0.65-1.11,1.53,0.54,2.25c4.28,1.87,7.6,4.51,9.5,5.28 c2.06,0.83,3.4,0.5,5-0.05c-0.12-0.1-0.87-0.79-0.97-0.91c-1.93,0.48-3.18,0.31-5.35-1.47l2.88,0l-1.71-1.08l-3.03,0 c-1.92-1.1-3.96-2.24-6.03-3.03C0.75,193.08,0.16,192.31,0.08,192.08" class="st1"/><path id="path3352" d="M21.15,198.97c4.56,4.2,7.16,5.59,12.51,5.36C28.37,205.91,24.42,203.55,21.15,198.97" class="st2"/><path id="path3354" d="M26.02,198.7c2.65,1.85,3.94,2.37,6.88,2.94C29.22,201.92,28.19,200.71,26.02,198.7" class="st2"/><path id="path3356" d="M12.41,197.73c0.2,0,0.36,0.16,0.36,0.36c0,0.2-0.16,0.36-0.36,0.36c-0.2,0-0.36-0.16-0.36-0.36 C12.05,197.89,12.21,197.73,12.41,197.73" class="st2"/><path id="path3358" d="M13.85,194.49c1.01-0.53,3.1-1.19,5.11-1.24c6.28,5.25,6.44,9.58,15.54,9.7 c-8.58,1.34-8.51-1.58-14.04-6.73c-2.39,2.46,1.64,5.47,4.45,7.92c-5.65-2.78-8.05-5.6-5.43-8.81 C18.46,194.32,15.57,194.49,13.85,194.49" class="st1"/><path id="path3360" d="M25.34,190.53c0,0.09-0.08,0.1-0.14,0.1c-0.17,0-0.24-0.07-0.69-0.07 c-0.23,0-0.09,0.13-0.18,0.13c-0.06,0-0.36-0.13-0.36-0.28c0-0.14,0.06-0.1,0.06-0.26c0-0.17-0.17-0.51-0.23-0.64 c-0.05-0.12-0.13-0.08-0.19-0.15c-0.02-0.03-0.03-0.07-0.03-0.11c0-0.07,0.02-0.14,0.02-0.19c0-0.06-0.13-0.33-0.25-0.58 c-0.07-0.15-0.12-0.26-0.12-0.34c0-0.14,0.07-0.29,0.2-0.29c0.2,0,0.2,0.3,0.54,1.11c0.06,0.14,0.07,0.17,0.32,0.17 c0.16,0,0.21,0.01,0.28,0.03c0.11,0.04,0.21,0.12,0.21,0.2c0,0.07-0.03,0.08-0.12,0.08c-0.07,0-0.19-0.01-0.35-0.01h-0.04 c-0.04,0-0.07,0-0.07,0.04c0,0.02,0,0.03,0.01,0.06c0.08,0.21,0.15,0.37,0.21,0.6c0.02,0.07,0.05,0.12,0.15,0.13l0.19,0.01h0.04 c0.14,0,0.13-0.06,0.25-0.06C25.15,190.23,25.34,190.43,25.34,190.53" class="st0"/><path id="path3362" d="M26.05,190.58c0,0.13-0.06,0.3-0.18,0.3c-0.2,0-0.2-0.31-0.27-0.49 c-0.2-0.48-0.41-0.88-0.57-1.19c-0.24-0.47-0.39-0.75-0.39-1.01c0-0.22,0.14-0.33,0.27-0.33c0.2,0,0.43,0.2,0.69,0.46 c0.12,0.11,0.2,0.22,0.2,0.28c0,0.03-0.01,0.04-0.04,0.04c-0.07,0-0.1-0.05-0.38-0.24c-0.12-0.08-0.25-0.2-0.31-0.2 c-0.05,0-0.07,0.03-0.07,0.1c0,0.16,0.13,0.4,0.27,0.63c0.35,0.56,0.59,1.07,0.73,1.42C26.04,190.43,26.05,190.52,26.05,190.58" class="st0"/><path id="path3364" d="M27.57,189.47c0,0.11-0.06,0.25-0.2,0.25c-0.09,0-0.17-0.05-0.19-0.14 c-0.03-0.11-0.04-0.18-0.09-0.29c-0.13-0.33-0.42-0.57-0.69-0.81c-0.11-0.09-0.2-0.19-0.25-0.19c-0.02,0-0.03,0.02-0.03,0.07 c0,0.13,0.1,0.41,0.26,0.62c0.11,0.16,0.3,0.35,0.3,0.49c0,0.1-0.05,0.28-0.17,0.28c-0.11,0-0.21-0.17-0.26-0.25 c-0.21-0.33-0.53-0.89-0.53-1.24c0-0.19,0.1-0.36,0.28-0.36c0.14,0,0.43,0.32,0.6,0.47c0.02,0.01,0.03,0.02,0.03,0.02 c0,0,0.01,0,0.01-0.01c0-0.02-0.02-0.06-0.05-0.11c-0.27-0.53-0.43-1.01-0.43-1.25c0-0.22,0.11-0.31,0.22-0.31 c0.13,0,0.26,0.14,0.26,0.24c0,0.06-0.09,0.07-0.09,0.25c0,0.32,0.39,1.08,0.77,1.77C27.41,189.1,27.57,189.35,27.57,189.47" class="st0"/><path id="path3366" d="M29.64,188.16c0,0.07-0.04,0.1-0.11,0.1c-0.03,0-0.06,0-0.09-0.01 c-0.13-0.03-0.36-0.05-0.52-0.05c-0.1,0-0.15,0.01-0.15,0.07c0,0.04,0.03,0.11,0.09,0.22c0.28,0.55,0.69,1.42,0.74,1.59 c0.02,0.07,0.03,0.14,0.03,0.22c0,0.19-0.06,0.36-0.18,0.36c-0.13,0-0.13-0.11-0.18-0.33c-0.09-0.37-0.44-1.02-0.57-1.3 c-0.25-0.55-0.29-0.63-0.35-0.71c-0.04-0.06-0.05-0.07-0.05-0.16c0-0.17,0.15-0.28,0.23-0.28c0.27,0,0.5,0.02,0.69,0.05 C29.49,187.97,29.64,188.07,29.64,188.16" class="st0"/><path id="path3368" d="M31.21,189.34c0-0.13-0.17-0.2-0.17-0.37c0-0.24-0.48-0.79-0.7-0.79 c-0.06,0-0.07,0.05-0.07,0.12c0,0.42,0.65,1.17,0.86,1.17c0.07,0,0.07-0.04,0.07-0.1V189.34z M31.57,189.16 c0,0.08-0.01,0.12-0.06,0.17c-0.03,0.04,0.02,0.12-0.09,0.28c-0.07,0.11-0.18,0.15-0.29,0.15c-0.48,0-1.21-0.93-1.21-1.46 c0-0.27,0.16-0.44,0.37-0.44c0.39,0,0.98,0.58,1.2,1.07C31.53,189.01,31.57,189.09,31.57,189.16" class="st0"/><path id="path3370" d="M33.08,188.59c0,0.03,0,0.05-0.04,0.05c-0.05,0-0.16-0.08-0.25-0.15 c-0.26-0.21-0.43-0.33-0.56-0.33c-0.07,0-0.16,0.03-0.16,0.18c0,0.38,0.59,1.05,0.67,1.05c0.06,0,0.02-0.15,0.09-0.15 c0.08,0,0.15,0.17,0.15,0.26c0,0.13-0.06,0.25-0.2,0.25c-0.3,0-1.12-0.96-1.12-1.47c0-0.31,0.21-0.43,0.43-0.43 c0.29,0,0.53,0.22,0.73,0.4C32.89,188.32,33.08,188.51,33.08,188.59" class="st0"/><path id="path3372" d="M34.27,189.23c-0.07-0.06-0.15-0.31-0.3-0.53c-0.05-0.07-0.26-0.26-0.45-0.41 c-0.06-0.04-0.11-0.08-0.16-0.08c-0.03,0-0.06,0.03-0.06,0.08c0,0.39,0.63,1.16,0.91,1.16c0.07,0,0.09-0.06,0.09-0.13 C34.29,189.28,34.28,189.24,34.27,189.23L34.27,189.23z M34.91,188.59c0,0.03-0.02,0.05-0.04,0.05c-0.12,0-0.47-0.37-0.59-0.37 c-0.03,0-0.03,0.02-0.03,0.05c0,0.1,0.1,0.31,0.17,0.48c0.08,0.19,0.17,0.29,0.17,0.41c0,0.13-0.09,0.09-0.09,0.26 c0,0.17-0.11,0.3-0.26,0.3c-0.53,0-1.33-1.01-1.33-1.55c0-0.16,0.13-0.36,0.29-0.36c0.18,0,0.45,0.24,0.62,0.4 c0.05,0.04,0.08,0.07,0.1,0.07c0.01,0,0.01-0.01,0.01-0.03c0-0.01,0-0.03-0.01-0.05c-0.01-0.05-0.02-0.1-0.02-0.16 c0-0.12,0.03-0.23,0.13-0.23c0.21,0,0.49,0.27,0.67,0.44C34.82,188.42,34.91,188.53,34.91,188.59" class="st0"/><path id="path3374" d="M36.23,190.58c0,0.13-0.06,0.3-0.18,0.3c-0.2,0-0.2-0.31-0.27-0.49 c-0.2-0.48-0.41-0.88-0.57-1.19c-0.24-0.47-0.39-0.75-0.39-1.01c0-0.22,0.14-0.33,0.27-0.33c0.2,0,0.43,0.2,0.69,0.46 c0.12,0.11,0.2,0.22,0.2,0.28c0,0.03-0.01,0.04-0.04,0.04c-0.07,0-0.1-0.05-0.38-0.24c-0.12-0.08-0.25-0.2-0.31-0.2 c-0.05,0-0.07,0.03-0.07,0.1c0,0.16,0.13,0.4,0.27,0.63c0.35,0.56,0.59,1.07,0.73,1.42C36.22,190.43,36.23,190.52,36.23,190.58" class="st0"/><path id="path3376" d="M36.67,188.14c0,0.13-0.05,0.28-0.2,0.28c-0.16,0-0.31-0.19-0.31-0.32 c0-0.14,0.11-0.11,0.11-0.21c0-0.17-0.39-0.42-0.39-0.53c0-0.04,0.02-0.05,0.04-0.05c0.06,0,0.17,0.07,0.19,0.09 C36.32,187.55,36.67,187.88,36.67,188.14" class="st0"/><path id="path3378" d="M39.94,190.53c0,0.09-0.08,0.1-0.14,0.1c-0.17,0-0.24-0.07-0.69-0.07 c-0.23,0-0.09,0.13-0.18,0.13c-0.06,0-0.36-0.13-0.36-0.28c0-0.14,0.06-0.1,0.06-0.26c0-0.17-0.17-0.51-0.23-0.64 c-0.05-0.12-0.13-0.08-0.19-0.15c-0.02-0.03-0.03-0.07-0.03-0.11c0-0.07,0.02-0.14,0.02-0.19c0-0.06-0.13-0.33-0.25-0.58 c-0.07-0.15-0.12-0.26-0.12-0.34c0-0.14,0.07-0.29,0.2-0.29c0.2,0,0.2,0.3,0.54,1.11c0.06,0.14,0.07,0.17,0.32,0.17 c0.16,0,0.21,0.01,0.28,0.03c0.11,0.04,0.21,0.12,0.21,0.2c0,0.07-0.03,0.08-0.12,0.08c-0.07,0-0.19-0.01-0.35-0.01h-0.04 c-0.04,0-0.07,0-0.07,0.04c0,0.02,0,0.03,0.01,0.06c0.08,0.21,0.15,0.37,0.21,0.6c0.02,0.07,0.05,0.12,0.15,0.13l0.19,0.01h0.04 c0.14,0,0.13-0.06,0.25-0.06C39.76,190.23,39.94,190.43,39.94,190.53" class="st0"/><path id="path3380" d="M40.66,190.58c0,0.13-0.06,0.3-0.18,0.3c-0.2,0-0.2-0.31-0.27-0.49 c-0.2-0.48-0.41-0.88-0.57-1.19c-0.24-0.47-0.39-0.75-0.39-1.01c0-0.22,0.14-0.33,0.27-0.33c0.2,0,0.43,0.2,0.69,0.46 c0.12,0.11,0.2,0.22,0.2,0.28c0,0.03-0.01,0.04-0.04,0.04c-0.07,0-0.1-0.05-0.38-0.24c-0.12-0.08-0.25-0.2-0.31-0.2 c-0.05,0-0.07,0.03-0.07,0.1c0,0.16,0.13,0.4,0.27,0.63c0.35,0.56,0.59,1.07,0.73,1.42C40.64,190.43,40.66,190.52,40.66,190.58" class="st0"/><path id="path3382" d="M42.18,189.47c0,0.11-0.06,0.25-0.2,0.25c-0.09,0-0.17-0.05-0.19-0.14 c-0.03-0.11-0.04-0.18-0.09-0.29c-0.13-0.33-0.42-0.57-0.69-0.81c-0.11-0.09-0.2-0.19-0.25-0.19c-0.02,0-0.03,0.02-0.03,0.07 c0,0.13,0.1,0.41,0.26,0.62c0.11,0.16,0.3,0.35,0.3,0.49c0,0.1-0.05,0.28-0.17,0.28c-0.11,0-0.21-0.17-0.26-0.25 c-0.21-0.33-0.53-0.89-0.53-1.24c0-0.19,0.1-0.36,0.28-0.36c0.14,0,0.43,0.32,0.6,0.47c0.02,0.01,0.03,0.02,0.03,0.02 s0.01,0,0.01-0.01c0-0.02-0.02-0.06-0.05-0.11c-0.27-0.53-0.43-1.01-0.43-1.25c0-0.22,0.11-0.31,0.22-0.31 c0.13,0,0.26,0.14,0.26,0.24c0,0.06-0.09,0.07-0.09,0.25c0,0.32,0.39,1.08,0.77,1.77C42.01,189.1,42.18,189.35,42.18,189.47" class="st0"/><path id="path3384" d="M45.16,190.1c0,0.33-0.24,0.6-0.53,0.6c-0.22,0-0.5-0.12-0.76-0.26 c-0.1-0.05-0.24-0.04-0.24-0.15c0-0.07,0.11-0.13,0.11-0.27c0-0.03-0.01-0.07-0.02-0.11c-0.11-0.3-0.43-0.86-0.6-1.28 c-0.08-0.18-0.15-0.37-0.15-0.52c0-0.13,0.05-0.27,0.19-0.27c0.11,0,0.31,0.17,0.31,0.22c0,0.07-0.07,0.03-0.07,0.16 c0,0.07,0.07,0.23,0.11,0.32c0.21,0.48,0.48,1.01,0.67,1.44c0.01,0.03,0.02,0.06,0.02,0.08c0,0.08-0.07,0.11-0.07,0.15 c0,0.06,0.27,0.18,0.4,0.18c0.16,0,0.25-0.14,0.25-0.33c0-0.31-0.29-0.64-0.5-0.74c-0.05-0.02-0.08-0.03-0.1-0.03 c-0.04,0-0.04,0.03-0.1,0.03c-0.08,0-0.25-0.11-0.25-0.22c0-0.14,0.12-0.18,0.22-0.18C44.38,188.93,45.16,189.48,45.16,190.1" class="st0"/><path id="path3386" d="M45.89,189.39c0-0.2-0.28-0.49-0.48-0.6c-0.05-0.03-0.08-0.04-0.1-0.04 c-0.02,0-0.03,0.01-0.03,0.04c0,0.13,0.33,0.54,0.51,0.65c0.03,0.01,0.04,0.02,0.06,0.02C45.87,189.46,45.89,189.44,45.89,189.39z M46.39,188.59c0,0.03-0.01,0.05-0.04,0.05c-0.07,0-0.18-0.1-0.32-0.2c-0.18-0.13-0.45-0.29-0.63-0.29c-0.12,0-0.22,0.06-0.22,0.17 c0,0.11,0.06,0.13,0.33,0.26c0.37,0.19,0.71,0.42,0.71,0.79c0,0.18-0.18,0.39-0.31,0.39c-0.45,0-1.12-0.88-1.12-1.4 c0-0.29,0.2-0.51,0.49-0.51c0.28,0,0.63,0.19,0.91,0.44C46.24,188.36,46.39,188.5,46.39,188.59" class="st0"/><path id="path3388" d="M47.67,190.58c0,0.13-0.06,0.3-0.18,0.3c-0.2,0-0.2-0.31-0.27-0.49 c-0.2-0.48-0.41-0.88-0.57-1.19c-0.24-0.47-0.39-0.75-0.39-1.01c0-0.22,0.14-0.33,0.27-0.33c0.2,0,0.43,0.2,0.69,0.46 c0.12,0.11,0.2,0.22,0.2,0.28c0,0.03-0.01,0.04-0.04,0.04c-0.07,0-0.1-0.05-0.38-0.24c-0.12-0.08-0.25-0.2-0.31-0.2 c-0.05,0-0.07,0.03-0.07,0.1c0,0.16,0.13,0.4,0.27,0.63c0.35,0.56,0.59,1.07,0.73,1.42C47.65,190.43,47.67,190.52,47.67,190.58" class="st0"/><path id="path3390" d="M48.47,188.59c0,0.03-0.01,0.05-0.04,0.05c-0.06,0-0.16-0.09-0.33-0.21 c-0.21-0.15-0.29-0.23-0.36-0.23c-0.03,0-0.06,0.01-0.06,0.07c0,0.15,0.19,0.44,0.47,0.92c0.07,0.12,0.15,0.23,0.15,0.35 c0,0.09-0.04,0.18-0.18,0.18c-0.08,0-0.3-0.13-0.3-0.24c0-0.03,0.02-0.05,0.02-0.09v0c0-0.05-0.01-0.08-0.13-0.26 c-0.24-0.38-0.41-0.72-0.41-0.93c0-0.17,0.11-0.33,0.28-0.33c0.23,0,0.48,0.25,0.69,0.45C48.36,188.4,48.47,188.53,48.47,188.59 L48.47,188.59z M48.65,190.31c0,0.06-0.05,0.08-0.07,0.12c-0.03,0.07-0.05,0.17-0.13,0.17c-0.1,0-0.25-0.17-0.25-0.28 c0-0.12,0.08-0.29,0.2-0.29C48.49,190.03,48.65,190.21,48.65,190.31" class="st0"/><path id="path3392" d="M49.77,188.59c0,0.03,0,0.05-0.04,0.05c-0.05,0-0.16-0.08-0.25-0.15 c-0.26-0.21-0.43-0.33-0.56-0.33c-0.07,0-0.16,0.03-0.16,0.18c0,0.38,0.59,1.05,0.67,1.05c0.06,0,0.02-0.15,0.09-0.15 c0.08,0,0.15,0.17,0.15,0.26c0,0.13-0.06,0.25-0.2,0.25c-0.3,0-1.12-0.96-1.12-1.47c0-0.31,0.21-0.43,0.43-0.43 c0.29,0,0.53,0.22,0.73,0.4C49.59,188.32,49.77,188.51,49.77,188.59" class="st0"/><path id="path3394" d="M50.97,189.23c-0.07-0.06-0.15-0.31-0.3-0.53c-0.05-0.07-0.26-0.26-0.45-0.41 c-0.06-0.04-0.11-0.08-0.16-0.08c-0.03,0-0.06,0.03-0.06,0.08c0,0.39,0.63,1.16,0.91,1.16c0.07,0,0.09-0.06,0.09-0.13 C50.99,189.28,50.98,189.24,50.97,189.23L50.97,189.23z M51.6,188.59c0,0.03-0.02,0.05-0.04,0.05c-0.12,0-0.47-0.37-0.59-0.37 c-0.03,0-0.03,0.02-0.03,0.05c0,0.1,0.1,0.31,0.17,0.48c0.08,0.19,0.17,0.29,0.17,0.41c0,0.13-0.09,0.09-0.09,0.26 c0,0.17-0.11,0.3-0.26,0.3c-0.53,0-1.33-1.01-1.33-1.55c0-0.16,0.13-0.36,0.29-0.36c0.18,0,0.45,0.24,0.62,0.4 c0.05,0.04,0.08,0.07,0.1,0.07c0.01,0,0.01-0.01,0.01-0.03c0-0.01,0-0.03-0.01-0.05c-0.01-0.05-0.02-0.1-0.02-0.16 c0-0.12,0.03-0.23,0.13-0.23c0.21,0,0.49,0.27,0.67,0.44C51.52,188.42,51.6,188.53,51.6,188.59" class="st0"/><path id="path3396" d="M53.67,188.6c0,0.03-0.01,0.05-0.04,0.05c-0.07,0-0.15-0.07-0.39-0.25 c-0.12-0.09-0.25-0.18-0.3-0.18c-0.03,0-0.06,0.02-0.06,0.07c0,0.02,0,0.04,0.01,0.07c0.07,0.22,0.46,0.83,0.52,1.08 c0,0.02,0,0.03,0,0.05c0,0.11-0.07,0.25-0.16,0.25c-0.1,0-0.17-0.09-0.32-0.23c-0.13-0.12-0.56-0.49-0.73-0.65 c-0.03-0.03-0.05-0.04-0.06-0.04v0c0,0.01,0.01,0.03,0.03,0.08c0.14,0.27,0.31,0.41,0.31,0.56c0,0.1-0.05,0.23-0.17,0.23 c-0.1,0-0.24-0.08-0.24-0.23c0-0.17-0.16-0.45-0.41-0.9c-0.1-0.19-0.18-0.34-0.18-0.42c0-0.12,0.05-0.27,0.18-0.27 c0.18,0,0.17,0.27,0.3,0.45c0.18,0.24,0.71,0.65,0.87,0.78c0.03,0.03,0.06,0.04,0.07,0.04c0,0,0.01,0,0.01-0.01 c0-0.01-0.01-0.03-0.03-0.07c-0.09-0.17-0.34-0.58-0.4-0.82c-0.01-0.05-0.02-0.09-0.02-0.13c0-0.16,0.09-0.26,0.23-0.26 c0.28,0,0.65,0.33,0.83,0.52C53.57,188.41,53.67,188.53,53.67,188.6" class="st0"/></g></svg>