<svg xmlns="http://www.w3.org/2000/svg" version="1.1" id="Layer_1" x="0px" y="0px" width="70px" height="70px" viewBox="0 0 70 70" enable-background="new 0 0 70 70" xml:space="preserve"><metadata/><rect width="70" fill="none" height="70"/><path fill="#CCCB2C" d="M38.9,69.6c1-3-2-8.699-3.101-11.8c-1.2-3.2-1.8-6.1-3.3-7.7c-1.6-1.6-5.1-4.699-6.3-6.3   c-1.2-1.6-2.6-5.3-3.1-7.5c-0.6-2.2-2-5.1-3.9-6.5c-7-4.9,2.4-18.6,9.2-18.1c2.8,0.2,7.7,0,9.4,0.8c1.8,0.8,6.5,2.8,13,2.6   c6.5-0.2,12.601-3.4,14-4.9c-1.6,0-5.1,0.4-8.3-0.2C53.4,9.4,42.3,4.7,39,3.7C35.5,2.6,30.6,2,28.1,3c-2.6,1-6.2,6.2-7.9,7.5   c-1.1,0.9-2.4-0.3-2.2-1.2c0.4-1.3,0.6-2.6,0.5-3.6C18.3,3.8,17,2.5,14,2.6C11.6,2.7,9.3,4.2,9.6,7c0.1,1.7,1.2,3.5,2.9,4.9   c1,0.8,0.4,2-0.6,2.8C9,17,7.8,19.9,7.7,23c-0.1,5.1,3,10.6,6.4,14.7c4.5,5.5,10.5,11.5,13.2,14.2C32,56.7,36.7,64.6,38.9,69.6   L38.9,69.6z M39.5,59.9c2.7-7.601,13.4-28.5,18-37.3c1.7-3.2,1.1-5-0.4-4.9C55.9,17.8,53.9,20,52.2,22.6c-2.7,4-13.7,31.8-13.5,36.8   C38.5,60.4,39.1,60.5,39.5,59.9L39.5,59.9z M34.9,50.5c2.1-5.9,10.5-22.2,14-29.1c1.3-2.5,0.899-3.9-0.301-3.9   c-0.899,0-2.5,1.8-3.8,3.8C42.6,24.5,34.1,46.1,34.2,50C34.1,50.8,34.6,50.9,34.9,50.5L34.9,50.5z M30.6,41.2   c1.4-4.4,7.2-16.6,9.7-21.7c0.9-1.9,0.5-2.9-0.3-2.8c-0.7,0.1-1.8,1.4-2.7,2.9C35.8,22,30,38.1,30.2,41C30,41.4,30.4,41.5,30.6,41.2   L30.6,41.2z M25.8,34c0.9-3.4,4.8-13,6.5-17c0.6-1.5,0.3-2.2-0.4-2.1c-0.5,0.1-1.3,1.1-2,2.3c-1,1.9-4.8,14.4-4.5,16.6   C25.4,34.3,25.6,34.3,25.8,34L25.8,34z"/></svg>