<svg xmlns="http://www.w3.org/2000/svg" version="1.1" id="Layer_1" viewBox="0 0 70 70"><defs><style>
      .st0 {
        fill: #001e62;
      }

      .st1 {
        fill: #a31f34;
      }
    </style></defs><path d="M4.46,40.15s-.43.01-.71-.07c1,21.83,8.63,17.08,11.46,20.82-2.37-10.05-7.27-2.97-10.75-20.75Z" class="st0"/><g><path d="M17.31,36.97s.6,1.05.91,1.18c.57.25.88-.35.88-.35,0,0,.14,2.53-.28,3.09-.42.56-1.35-1.65-1.5-3.93h0Z" class="st1"/><path d="M20.38,30.54c-.17-.77-.99-3.33-1.93-5.24-.24-.95-.68-3.46-1.29-4.19,0,0,1.52-6.03-.74-8.62.25.7.68,2.91.51,5.36,0,0-.58-10.74-5.01-8.4-.11.06,1.44.62,1.98,2.77-1.28-2.18-5-3.42-6.7,3.51-.07.29,1.66-.78,2.88.36-2.74-.16-5.83,5.23-5.39,17.12,0,0,.9-3.86,1.91-5.44-1.01,3.84-1,8.04-.98,8.95.07,2.75.57,5.49,1.2,7.49.04-.25-.06-3.75.66-5.98-.7,16.59,5.78,10.36,8.01,20.08.25-2.33-.26-5.53-.68-7.19,0,0,1.56,2.83,1.55,9.38,1.6-2.67,4.34-14.24-1.23-20.88,0,0,1.23.24,2.1,2.16,0,0-.15-3.45-.64-5.59-.81-.03-2-1.55-2.4-5.21,0,0,.97,3.89,2.5,3.48,0,0,1.55,4.19,2.76,1.38.72-1.68.7-2.63.7-2.63,0,0-.22-1.74-.68-2.07,0,0,.72.38.89-.59h0ZM6.94,24.12c1.94-9.02,5.74-4.21,5.74-4.21,0,0-3.8-1.73-5.74,4.21ZM7.1,34.81s.29-8.41,3.26-9.74c0,0-2.39,4-3.26,9.74ZM9.83,31.64c-2.27,10.63,2.43,15.44,2.43,15.44-5.57-3.64-3.05-14.98-2.43-15.44ZM16.95,54.09c.64-7.99-5.46-12.89-5.25-12.72,7.2,3.29,5.25,12.72,5.25,12.72ZM14.56,37.83c-1.53-2.46-2.8-1.09-3.52-2.86-.78-1.93-.11-6.57,1.15-9.31-2.96,10.67.72,7.62,2.37,12.17ZM13.78,29.3c-.81,1.65-.89,2.79-.89,2.79,0,0-.24-1.64-.23-3.02.02-1.63.65-2.31.65-2.31-.53,1.16-.23,2.99-.23,2.99,1.16-1.86,1.19-4.6,1.19-4.57.09.76.3,2.5-.49,4.12h0ZM14.18,20.24c-.32.95,0,3.55,0,3.55-.3-1.07-.8-3.5-.16-4.81.79-1.61,1.8,2.39,1.8,2.39,0,0-1.17-2.52-1.64-1.14ZM10.48,13.12c3.87-2.32,5.34,5.17,5.34,5.17-1.35-5.02-5.34-5.17-5.34-5.17ZM17.63,26.04c.04.45-.38.93-.07,2.08-.05-.07-.13-.2-.28-.41-.47-.64-1.31-2.88-1.31-2.88,0,0,.86,1.12,1.26.83.39-.29-.2-1.04-.41-1.33,0,0,.44.1.72.77s.6.14.1.93Z" class="st1"/></g><path d="M24.89,26.4v4.81h1.54v2.91h-1.54v8.2h-1.51v-18.92h3.27v3h-1.76Z" class="st0"/><path d="M27.61,42.32v-18.91l1.46-1.13v20.04s-1.46,0-1.46,0Z" class="st0"/><path d="M32.15,48.23h-1.52l.83-5.91-1.69-14.83h1.57l.7,8.86c.08.94.1,1.79.11,2.28h.02c.02-.47.06-1.35.14-2.28l.78-8.86h1.41l-2.34,20.74h0Z" class="st0"/><g><path d="M38.82,42.32l-.38-4.21h-1.94l-.39,4.21h-1.45l2.09-18.92h1.58l2.08,18.92h-1.59,0ZM37.66,29.39c-.08-.96-.13-1.82-.17-2.45h-.02c-.03.63-.08,1.57-.16,2.45l-.58,6.16h1.47l-.55-6.16Z" class="st1"/><path d="M43.42,30.27c-.16-.25-.35-.36-.53-.36s-.35.08-.44.22v12.18h-1.46v-14.03c.47-.66,1.15-1.1,2.04-1.1.22,0,.49.06.64.11l-.26,2.97h0Z" class="st1"/><path d="M46.3,48.23h-1.52l.83-5.91-1.69-14.83h1.57l.7,8.86c.08.94.1,1.79.11,2.28h.02c.02-.47.06-1.35.14-2.28l.78-8.86h1.41l-2.34,20.74h0Z" class="st1"/><path d="M50.59,42.62c-.58,0-1.19-.41-1.55-1.07l.38-2.64c.34.58.68.85.98.85.42,0,.69-.71.69-1.65,0-2.56-1.94-1.71-1.94-6.38,0-2.81.78-4.54,1.75-4.54.62,0,1.11.33,1.54,1.07l-.35,2.37c-.29-.49-.61-.77-.88-.77-.41,0-.62.69-.62,1.57,0,2.48,1.98,1.68,1.98,6.38,0,2.75-.76,4.81-1.99,4.81h0Z" class="st1"/><path d="M55.24,42.54c-.96,0-1.5-1.6-1.5-4.4v-8.25h-.54v-2.75h.54v-3.73l1.46-1.13v4.86h.78v2.75h-.78v8.25c0,.99.18,1.51.48,1.51.11,0,.22-.06.31-.17v2.64c-.16.25-.42.41-.74.41h0Z" class="st1"/><path d="M58.88,42.62c-1.44,0-2.21-1.6-2.21-4.7,0-3.66,1.27-4.84,2.82-5.28v-.66c0-1.43-.31-2.06-.87-2.06-.47,0-.98.41-1.34.94l-.32-2.53c.5-.66,1.21-1.13,1.88-1.13,1.23,0,2.01,1.54,2.01,5.42v8.91c-.43.66-1.12,1.1-1.97,1.1h0ZM59.49,34.65c-.97.3-1.46,1.18-1.46,3.11,0,1.65.33,2.48.92,2.48.22,0,.4-.08.53-.28v-5.31h0Z" class="st1"/><path d="M64.79,42.32v-10.04c0-1.62-.23-2.42-.81-2.42-.22,0-.4.11-.58.3v12.15h-1.46v-14.03c.57-.71,1.26-1.07,2.03-1.07,1.59,0,2.27,1.9,2.27,5.09v10.01h-1.46,0Z" class="st1"/></g></svg>