<svg xmlns="http://www.w3.org/2000/svg" id="Layer_1" width="70" height="70" version="1.1" viewBox="0 0 70 70"><metadata id="metadata195"/><defs id="defs12"><style id="style10">.cls-1{fill:#ef027f}.cls-2{fill:#f13296}.cls-3{fill:#f366af}.cls-4{fill:#f592c5}.cls-5{fill:#fcfbfc}.cls-6{fill:#faf8fa}.cls-7{fill:#f7eef5}.cls-8{fill:#f01887}.cls-9{fill:#20265f}.cls-10{fill:#24245f}.cls-11{fill:#fab3d8}.cls-12{fill:#f8a1cf}.cls-13{fill:#2a1e5e}.cls-14{fill:#39336c}.cls-15{fill:#233369}.cls-16{fill:#e8017a}.cls-17{fill:#364e79}.cls-18{fill:#dc037a}.cls-19{fill:#462065}.cls-20{fill:#ec0981}.cls-21{fill:#320f58}.cls-22{fill:#ee037f}.cls-23{fill:#f5027f}.cls-24{fill:#c6b7ce}.cls-25{fill:#723179}.cls-26{fill:#fbcfe6}.cls-27{fill:#0c1351}.cls-28{fill:#534a7d}.cls-29{fill:#f5a2cf}.cls-30{fill:#b5bdcd}.cls-31{fill:#ec027d}.cls-32{fill:#b0acc4}.cls-33{fill:#614e83}.cls-34{fill:#e8c0da}.cls-35{fill:#a598b8}.cls-36{fill:#f80180}.cls-37{fill:#4d2469}.cls-38{fill:#e7d1e2}.cls-39{fill:#282964}.cls-40{fill:#101955}.cls-41{fill:#492a6c}.cls-42{fill:#6a1268}.cls-43{fill:#3d577f}.cls-44{fill:#6e0d66}.cls-45{fill:#ef0780}.cls-46{fill:#ef1c89}.cls-47{fill:#ed037c}.cls-48{fill:#f37fbd}.cls-49{fill:#f8a4d0}.cls-50{fill:#faa7d2}.cls-51{fill:#e2cbdf}.cls-52{fill:#f00a80}.cls-53{fill:#f5a4d0}.cls-54{fill:#c2a7c6}.cls-55{fill:#cdabca}.cls-56{fill:#3e557e}.cls-57{fill:#451360}.cls-58{fill:#2d3d6f}.cls-59{fill:#25356a}.cls-60{fill:#dc1381}.cls-61{fill:#f678ba}.cls-62{fill:#b6a4c1}.cls-63{fill:#f0b2d5}.cls-64{fill:#820969}.cls-65{fill:#8ca0b6}.cls-66{fill:#25366a}.cls-67{fill:#f59fcd}.cls-68{fill:#8598b0}</style></defs><title id="title14"/><path id="path16" d="M71.21,70H1.85a11.58,11.58,0,0,1-.15-2.82q0-31.94,0-63.88A13.18,13.18,0,0,1,1.81.82c.44-.6.92-.34,1.38-.34q33.32,0,66.64,0c.46,0,.93-.19,1.39.25a11.93,11.93,0,0,1,.15,2.83q0,31.79,0,63.58A11.63,11.63,0,0,1,71.21,70Z" class="cls-1" transform="translate(-1.53 0)"/><path id="path18" d="M71.16.94H1.88a.83.83,0,0,1,0-.9H71.21A.79.79,0,0,1,71.16.94Z" class="cls-2" transform="translate(-1.53 0)"/><path id="path20" d="M1.85,0l0,.9q0,34.51,0,69c-.26.16-.32-.1-.32-.82Q1.55,35,1.53.87C1.53.15,1.59-.11,1.85,0Z" class="cls-3" transform="translate(-1.53 0)"/><path id="path22" d="M71.16.94,71.21,0c.27-.16.32.12.32.83q0,34.12,0,68.25c0,.72-.05,1-.32.83Z" class="cls-4" transform="translate(-1.53 0)"/><path id="path24" d="M52.22,40.38a18.09,18.09,0,0,0,2,7.13c-.82,3-1.89,1.41-2.88,1.08C50.17,46.44,50.2,42,49,40c-1,.61-1,3.45-1.55,5.08-.43,1.26-.53,3.23-1.2,4a3,3,0,0,1-1.37.06c-.79-.36-1.18-1.24-.63-3.37.1-.29.2-.57.31-.84a9,9,0,0,0,.77-2.5,23.84,23.84,0,0,0,.27-15.51,5.59,5.59,0,0,0-.91-2.7,4.73,4.73,0,0,1-.29-.86c-.28-1.59-.15-2.7.52-3.21.1,0,.21.1.31.06,2.46-.79,2.46-.8,3.66,5.32.75,3.84,1,3.9,1.94.46.33-1.24.69-2.43,1-3.77.65-3.28,1.49-3.11,2.47-1.23-.72,3.31-1.93,5.52-2.68,8.78a11.25,11.25,0,0,0-.54,4.1C51.13,36.4,51.91,38.07,52.22,40.38Z" class="cls-5" transform="translate(-1.53 0)"/><path id="path26" d="M35.75,48.63c-.75-2.2.49-3.24.42-5.39-.17-5.06,0-10.2,0-15.31,0-2.82.2-6-1.28-6.59.12-1.7.49-1.46.77-1.47,2-.11,4-.19,6-.29.52,0,1.05-.24,1.35,1.33a9.2,9.2,0,0,1-.18,5.3q-.48.67-1,0c-.36-.6-.47-2-1-2.2-1.91-.24-2.06.24-1.84,6a2.19,2.19,0,0,0,.39,1c.43.18.76-.45,1.11-.92.62-.67,1.28-2.35,1.75.5a34.2,34.2,0,0,1-.14,6.6c-.56,1.41-.84-.07-1.19-.81-.66-1.09-1.5-1.7-2-.07a18.66,18.66,0,0,0-.1,7.45,1.48,1.48,0,0,0,.5.73c.78,0,1.58.7,2.27-.89l.24-.9c.32-1.08.6-2.3,1.23-2.11a2.12,2.12,0,0,1,.35.85A16.42,16.42,0,0,1,43.68,44c0,2,0,4-.77,5.11-.91.72-1.85.28-2.78.41-1.3-.11-2.59.24-3.89-.23A4.77,4.77,0,0,1,35.75,48.63Z" class="cls-6" transform="translate(-1.53 0)"/><path id="path28" d="M19.18,48.48c-.49-.32-.87-1.47-.24-1.91,1.14-.78.93-2.85.94-4.79,0-4.12,0-8.25,0-12.37,0-3.39.14-6.81-1.2-9.57,1.54,0,3.09,0,4.63.06a6.15,6.15,0,0,1,.28,1.35C22.42,24.16,22.47,28,22.53,31.8c.06,4.13-.1,8.27.18,12.38A12.4,12.4,0,0,0,23,45.86l.36.94c-.09,1.86-.63,1.84-1.13,1.89a11.52,11.52,0,0,1-2.55,0Z" class="cls-7" transform="translate(-1.53 0)"/><path id="path30" d="M33.29,36.23l.28,1a15,15,0,0,1,.23,2.21,6.9,6.9,0,0,1,0,1.12c-.18,1.37-.54,2.54-.67,4a8,8,0,0,1-1.27,3c-.27.39-.53.77-.84.82a.62.62,0,0,1-.46-.21c-.52-.52-1-1-1-3a7.44,7.44,0,0,1,.8-2.66,6.13,6.13,0,0,0,.48-2.66,8.63,8.63,0,0,0-.44-3.34,6.34,6.34,0,0,1-.19-1.67,6.05,6.05,0,0,1,.43-2.17c.52-.75,1-.9,1.59-.22l.06,1.08A13.3,13.3,0,0,1,33.29,36.23Z" class="cls-8" transform="translate(-1.53 0)"/><path id="path32" d="M22.75,45.57c-.66-.64-.54-2.2-.55-3.51,0-5.41,0-10.81-.07-16.22,0-2.87.42-4.36,1.48-4.59l.59.31c.15,2.53-1,1.84-1.2,3.43h0c-.33,5.33-.06,10.7-.15,16C22.82,42.56,22.93,44.09,22.75,45.57Z" class="cls-9" transform="translate(-1.53 0)"/><path id="path34" d="M50.76,34.34a4.55,4.55,0,0,1-.22-2.87C51.7,27.81,52.4,23,54.22,21c.34.37.81,1.33.38,1.9C53,25,52.44,29.57,51.26,32.66,51.08,33.18,51.23,34.43,50.76,34.34Z" class="cls-10" transform="translate(-1.53 0)"/><path id="path36" d="M25.8,45l.08-21.67c.11-.9.31-1.19.63-.69a2.74,2.74,0,0,1,.29.93,141.89,141.89,0,0,1-.13,21.83c-.13.38-.3.59-.49.64A2,2,0,0,1,25.8,45Z" class="cls-11" transform="translate(-1.53 0)"/><path id="path38" d="M26.13,22.38l-.25.94-.39-.88c-.21-.56-.3-1.51-.67-1.6,0-.67-.07-1.56.3-1.52,2.22.25,4.46-1,6.66.64a3.67,3.67,0,0,1-1.06,2,3.9,3.9,0,0,0-.81.75c-.41.23-.83.28-1.24.54a.58.58,0,0,1-.4-.15c-.25-.26-.46-.69-.71-1a.61.61,0,0,0-.75-.19C26.59,22,26.34,22,26.13,22.38Z" class="cls-12" transform="translate(-1.53 0)"/><path id="path40" d="M46.3,48.19c.55-2.68,1.08-5.39,1.67-8,.25-1.1.62-2,1-.2-.61,2.93-1.26,5.82-1.81,8.83-.29,1.6-.73,1.06-1.15,1.07C45.85,49,46.19,48.73,46.3,48.19Z" class="cls-13" transform="translate(-1.53 0)"/><path id="path42" d="M31.56,46.84,32.88,44c.33-.76,0-2.54.65-2.87L33.61,40c.09-.3.1-.82.29-.88.65,3.86.21,6.52-1.51,9.22C32,48.3,31.64,48.15,31.56,46.84Z" class="cls-14" transform="translate(-1.53 0)"/><path id="path44" d="M30.88,47.4a.83.83,0,0,1,.27.22,2.56,2.56,0,0,1,.5,1.57c-1.84,1.66-3.72.39-5.59.56l0-1.07c.21-1.78.78-1.46,1.27-1.58a2,2,0,0,1,.47.05c.78.64,1.57,1,2.39.51a1.43,1.43,0,0,1,.42-.21Z" class="cls-15" transform="translate(-1.53 0)"/><path id="path46" d="M35.75,48.63q.11-.3.24-.07a2.18,2.18,0,0,0,.46.48c1.74.23,3.47,0,5.21.1h.71c.3,0,.6-.08.9.11a2,2,0,0,1,.31.81c-.7,1.24-1.49.55-2.24.76a6.73,6.73,0,0,1-4.95,0C35.9,50.69,35.75,49.81,35.75,48.63Z" class="cls-16" transform="translate(-1.53 0)"/><path id="path48" d="M23,49.57c-1.28-.19-2.64,1.88-3.81-1.09l.09-.3c1.35-.61,2.71-.13,4.07-.29.21.11.39.4.29,1S23.24,49.55,23,49.57Z" class="cls-17" transform="translate(-1.53 0)"/><path id="path50" d="M22.75,45.57C23,38.73,22.54,31.83,23,25q0,10.43,0,20.85Q22.84,45.93,22.75,45.57Z" class="cls-18" transform="translate(-1.53 0)"/><path id="path52" d="M51.33,48.59c.93-1,2,.57,2.88-1.08.5.54.94,1.91.19,2.21C53.41,50.12,52.21,51.46,51.33,48.59Z" class="cls-19" transform="translate(-1.53 0)"/><path id="path54" d="M43.32,42.84,43.17,41c1.56-.75,1.42,2.55,1.66,5-.34.76-1.13,1.39-.09,2.51a1.72,1.72,0,0,1,.12,1.31c-.44-.35-.85-.08-1.27.26l-.05-.12C43.33,47.6,43.68,45.15,43.32,42.84Z" class="cls-20" transform="translate(-1.53 0)"/><path id="path56" d="M42.62,26.34l.44-5.44.39,0a12.76,12.76,0,0,1,.07,7.44c-.34.59-.67.64-1-.15A3.4,3.4,0,0,1,42.62,26.34Z" class="cls-21" transform="translate(-1.53 0)"/><path id="path58" d="M43.11,28.2c.7-2.22.46-4.75.34-7.25.45-.63.92-1,1.44-.84a3.26,3.26,0,0,0-.09,3.12c-.25,1.2-.36,2.55-.54,3.81S43.75,29.69,43.11,28.2Z" class="cls-22" transform="translate(-1.53 0)"/><path id="path60" d="M36.39,50.85h4.95A3.67,3.67,0,0,1,36.39,50.85Z" class="cls-23" transform="translate(-1.53 0)"/><path id="path62" d="M23.58,48.19H19.27c1.29-1.93,2.79.49,4.08-1.38l.35.83Q23.8,48.16,23.58,48.19Z" class="cls-24" transform="translate(-1.53 0)"/><path id="path64" d="M50.76,34.34l.5-1.68c-.17,3,1,4.83,1,7.72C51.4,38.94,51.13,36.56,50.76,34.34Z" class="cls-25" transform="translate(-1.53 0)"/><path id="path66" d="M32.31,32.5c-.45,1.1-1,.84-1.53.83,0-3.24.17-3.67,1.5-2.89a2.83,2.83,0,0,1,.13,1.38A4.57,4.57,0,0,0,32.31,32.5Z" class="cls-26" transform="translate(-1.53 0)"/><path id="path68" d="M32.41,31.81l-.11-1.4a5.13,5.13,0,0,1,0-1A3.44,3.44,0,0,1,32.9,28a.31.31,0,0,1,.39,0,2.31,2.31,0,0,1,.32,1.25C33.57,31.28,33,31.69,32.41,31.81Z" class="cls-27" transform="translate(-1.53 0)"/><path id="path70" d="M31.65,49.19c-.31-.2-.53-.6-.51-1.57l.42-.78.83,1.48C32.22,49.08,31.93,49.08,31.65,49.19Z" class="cls-27" transform="translate(-1.53 0)"/><path id="path72" d="M23,25c0-2.26,1.13-1.46,1.2-3.43a1.25,1.25,0,0,0,.26.11.46.46,0,0,1,.16.41q0,.35,0,.35C24.27,24.28,23.53,24.17,23,25Z" class="cls-18" transform="translate(-1.53 0)"/><path id="path74" d="M44.85,49.81l-.12-1.31,1.56-.31L46,49.86Z" class="cls-28" transform="translate(-1.53 0)"/><path id="path76" d="M30.47,20.73c.39-.89.87-.66,1.32-.78l.56,1a2,2,0,0,1-.1,1.2C31.49,23.08,30.9,22.6,30.47,20.73Z" class="cls-29" transform="translate(-1.53 0)"/><path id="path78" d="M25.8,45l.3.5a11,11,0,0,1,0,2l-.21.87C24.61,47.48,25.32,46.21,25.8,45Z" class="cls-26" transform="translate(-1.53 0)"/><path id="path80" d="M33.61,29.22l-.35-.9a5.1,5.1,0,0,1-.19-1.9c.2-1,.38-2.16.94-1.17a13.55,13.55,0,0,1-.16,3.9Z" class="cls-27" transform="translate(-1.53 0)"/><path id="path82" d="M33.36,26.72l-.09,1.59a.9.9,0,0,0-.28.16,3.5,3.5,0,0,1-.48-1.65,9.77,9.77,0,0,1,0-2.83A2.85,2.85,0,0,1,33,22.44l.28.91A13,13,0,0,1,33.36,26.72Z" class="cls-30" transform="translate(-1.53 0)"/><path id="path84" d="M23.58,48.19a5,5,0,0,0,.13-.56,1.69,1.69,0,0,1,.35,1.68c-.28,1-.7.54-1.07.26Z" class="cls-27" transform="translate(-1.53 0)"/><path id="path86" d="M24.58,22.43l-.12-.76.37-.84c.6-.61.67.38.67,1.6Z" class="cls-29" transform="translate(-1.53 0)"/><path id="path88" d="M33.29,36.23a5.12,5.12,0,0,1-.92-2.65C33.06,33.51,33.24,34.7,33.29,36.23Z" class="cls-26" transform="translate(-1.53 0)"/><path id="path90" d="M33.84,29.15a24.81,24.81,0,0,0-.09-4.23.79.79,0,0,1,0-.63A7.4,7.4,0,0,1,33.84,29.15Z" class="cls-31" transform="translate(-1.53 0)"/><path id="path92" d="M25.89,48.4v-.86c.51-1.21,1.06-1.54,1.68-.6a2.21,2.21,0,0,1,.11,1.25l-1.58.5A.48.48,0,0,1,25.89,48.4Z" class="cls-32" transform="translate(-1.53 0)"/><path id="path94" d="M33.8,24.28a3.88,3.88,0,0,1,0,.63l-.39,1.81,0-3.37Z" class="cls-33" transform="translate(-1.53 0)"/><path id="path96" d="M33,22.44l-.11,2c-.59-.1-.74-1.06-.66-2.45l.07-1.06C32.74,20.91,32.92,21.57,33,22.44Z" class="cls-34" transform="translate(-1.53 0)"/><path id="path98" d="M33.91,39.1l-.29.88-.05-2.74A3.5,3.5,0,0,1,33.91,39.1Z" class="cls-35" transform="translate(-1.53 0)"/><path id="path100" d="M43.11,28.2c.75-.1.76-1.58.72-3-.06-2.08.39-2.21,1-2v0c.28,1.27,1,1.15,1.21,2.58.06.22.13.43.18.67,1.93,8.76,1.93,8.76-.48,16.8A18.36,18.36,0,0,1,44.8,46h0c-1-.67-.54-4.65-1.66-5l0,0a4,4,0,0,1-.67-1.8c-.23-3,.18-6.3-.42-9.22-.4-1.32-.62-.17-.7.57-.11,1.07-.35,1.1-.65,1.07-.45.62-.9.56-1.36,0a19.89,19.89,0,0,1-.23-6.55c.66-2.59,1.5-2.06,2.37-1a11,11,0,0,0,1.09,3.33Z" class="cls-1" transform="translate(-1.53 0)"/><path id="path102" d="M46,25.85c-.42-.8-1.16-.55-1.21-2.58C45.43,23.4,45.89,24.06,46,25.85Z" class="cls-22" transform="translate(-1.53 0)"/><path id="path104" d="M44.8,46a5.68,5.68,0,0,1,.92-2.67C45.64,44.77,45.35,45.7,44.8,46Z" class="cls-22" transform="translate(-1.53 0)"/><path id="path106" d="M42.87,39l.31,2.06c-.6.1-.63,1.53-.84,2.55-1.92,1.73-2.93.23-2.66-3.88a6.24,6.24,0,0,1,1.07-3.26.5.5,0,0,1,.43-.24c.38.16.35,1.72.79,1.65S42.57,38.64,42.87,39Z" class="cls-20" transform="translate(-1.53 0)"/><path id="path108" d="M41,36.61a6.43,6.43,0,0,1-.3,1.38,5.8,5.8,0,0,0-.49,4.22c.38,1.72,1,1.41,1.6.34.14-.27.23-1.08.4-.15a11.72,11.72,0,0,1,.09,1.22.7.7,0,0,1-.06.54c-.71,1.56-1.59.69-2.38,1.12-.49.26-.79-.76-.81-2,0-2.41-.33-4.94.34-7.13C40,35.36,40.55,35.26,41,36.61Z" class="cls-36" transform="translate(-1.53 0)"/><path id="path110" d="M42.87,39c-.39,1.09-.72,1.25-.91-.46a1,1,0,0,1,0-1L42.1,30C43.48,32.34,42.61,36,42.87,39Z" class="cls-37" transform="translate(-1.53 0)"/><path id="path112" d="M39.47,36.6c0,.27,0,.55,0,.82,0,7.46,0,7.46,2.79,6.73-.89,2.83-2,1.13-3.08,1.29-.81-2.64-.55-5.49-.22-8.35Q39.18,36.5,39.47,36.6Z" class="cls-20" transform="translate(-1.53 0)"/><path id="path114" d="M38.58,45.68c-.78-3.14-.34-6.6-.3-9.89,0-2,.81-1.69,1.35-1.7s1.24-.34,1.77.79l-.15.52c-.53.73-1.11.29-1.66.46-.73.13-.73,1.55-.74,3,0,1.92,0,3.85,0,5.77A6.31,6.31,0,0,1,38.58,45.68Z" class="cls-38" transform="translate(-1.53 0)"/><path id="path116" d="M38.71,31.94c-.53-2.59-.16-5.37-.23-8.06,0-1.23.32-1.58.73-1.53l2.15.26c0,1.59-.46,1.13-.78,1.14-.53,0-1,0-1.3,1.58C38.89,27.41,39.65,30.19,38.71,31.94Z" class="cls-39" transform="translate(-1.53 0)"/><path id="path118" d="M43.32,42.84c.83,2.21.58,4.65.21,7.11l-.91-.19a1.92,1.92,0,0,1,.29-1.46C43.4,46.67,43.05,44.59,43.32,42.84Z" class="cls-40" transform="translate(-1.53 0)"/><path id="path120" d="M39.17,24.72c.47-2.7,1.59-.47,2.2-2.11.63-.27.71.71.66,2q0,1.1-.36.44c-.73-.48-1.45-2.06-2.18-.06q-.13.44-.32.21Z" class="cls-41" transform="translate(-1.53 0)"/><path id="path122" d="M36.11,49.24q-.07-.33-.12-.68a4.88,4.88,0,0,1,4.12-.22A1.35,1.35,0,0,1,40,49.5C38.67,49.47,37.39,49.9,36.11,49.24Z" class="cls-15" transform="translate(-1.53 0)"/><path id="path124" d="M38.58,45.68a4.56,4.56,0,0,0,.06-.49c.28-2.83-.24-5.88.32-8.64l.25.15q0,4.37,0,8.74Z" class="cls-42" transform="translate(-1.53 0)"/><path id="path126" d="M40.1,49q0-.34,0-.68l2.8,0-.29,1.46-.63.11C41.4,49,40.67,50.3,40.1,49Z" class="cls-43" transform="translate(-1.53 0)"/><path id="path128" d="M38.71,31.94c.4-2.29-.06-5,.45-7.22,0,.13,0,.26.06.4.21,1.92.05,3.88.1,5.82a4.23,4.23,0,0,1-.13,1.22C39,32.42,38.85,32.47,38.71,31.94Z" class="cls-44" transform="translate(-1.53 0)"/><path id="path130" d="M41.67,25.07l.36-.44a2.62,2.62,0,0,0,.59,1.71q0,.58,0,1.16C42,27.58,41.64,26.86,41.67,25.07Z" class="cls-45" transform="translate(-1.53 0)"/><path id="path132" d="M42,37.53v1c-.43-.24-.56-1.12-.64-2.11a2,2,0,0,1,0-1.27l.12-.28Z" class="cls-38" transform="translate(-1.53 0)"/><path id="path134" d="M39.2,32.17a1.53,1.53,0,0,1,.08-.54l.21-.07,1.26.13C40.28,32.94,39.73,32.36,39.2,32.17Z" class="cls-45" transform="translate(-1.53 0)"/><path id="path136" d="M32.27,22l.66,2.45,0,2.09c-.3,1-.06,2.53-.47,3.42a.74.74,0,0,1-.18.46c-.58.71-1.57-.12-1.53,2.91l-.29,1.82-.22,0a2.67,2.67,0,0,1-.65-1.56,7.84,7.84,0,0,1,0-1.74c.09-.92.39-1.54.48-2.47a7.92,7.92,0,0,1,.22-1,4.73,4.73,0,0,0,0-3.77,3.84,3.84,0,0,1-.3-.77,5.54,5.54,0,0,1-.07-2.12c.06-.78.32-.79.53-1Z" class="cls-46" transform="translate(-1.53 0)"/><path id="path138" d="M30.49,35.15l.27.67c.49,1.67.15,3.61.24,5.41a9.13,9.13,0,0,1-.22,2.08c-.2,1.05-.53,1.59-1,1.73-.26.51-.51.44-.75-.1a43.21,43.21,0,0,1-.18-9.21c.42-2,1-1.06,1.6-.71Z" class="cls-47" transform="translate(-1.53 0)"/><path id="path140" d="M29.27,44.76l.55.27c.08,1.65.75,1.44,1.06,2.37l-.11.23c-1,.94-2.08,1.11-3.11-.11H25.88l.22-2a3.92,3.92,0,0,1,.06.49c.61-.21,1.15-1.13,1.78-1.06a8.47,8.47,0,0,1,.56-.64.42.42,0,0,1,.41,0A5,5,0,0,1,29.27,44.76Z" class="cls-48" transform="translate(-1.53 0)"/><path id="path142" d="M30.53,41.66l.22-5.84c1,.57.62,2.57.63,4.18C31.13,40.65,31.29,42.85,30.53,41.66Z" class="cls-49" transform="translate(-1.53 0)"/><path id="path144" d="M30.53,41.66,31.39,40c0,1.38.21,3-.61,3.3Z" class="cls-50" transform="translate(-1.53 0)"/><path id="path146" d="M33.53,41.13c-.43.6,0,2.55-.65,2.87C32.84,42.63,32.83,41.31,33.53,41.13Z" class="cls-51" transform="translate(-1.53 0)"/><path id="path148" d="M28.28,45.84c-.69,1.22-1.4,1-2.12.14a191.84,191.84,0,0,0,0-23.61l.3-1.57a.91.91,0,0,1,1.54,0,2.45,2.45,0,0,1,.23,1.65c.45,2.92.14,6,.28,9,0,.93,0,1.84,0,2.77-.07,3.64.13,7.31-.15,10.94Z" class="cls-52" transform="translate(-1.53 0)"/><path id="path150" d="M28,31.58a51.43,51.43,0,0,1,.17-9.14l.33.08c.27-.58.39-.07.5.51A7,7,0,0,1,29,24.24c-.39,2.08-.06,4.46-.37,6.58C28.47,31.37,28.3,31.77,28,31.58Z" class="cls-53" transform="translate(-1.53 0)"/><path id="path152" d="M28.86,23.22l-.33-.69c.41-1,.92-.82,1.41-.81a2.6,2.6,0,0,1,.26,1.67c-.26.82-.58,1-1,.73A1.86,1.86,0,0,1,28.86,23.22Z" class="cls-54" transform="translate(-1.53 0)"/><path id="path154" d="M28,20.8l-1.54,0C26.94,19.74,27.45,19.74,28,20.8Z" class="cls-29" transform="translate(-1.53 0)"/><path id="path156" d="M27.65,47.52l3.11.11-.3.83a2.55,2.55,0,0,1-2.5,0l-.3-.28Q27.67,47.85,27.65,47.52Z" class="cls-55" transform="translate(-1.53 0)"/><path id="path158" d="M28,48.46h2.5C29.64,49.46,28.81,49.57,28,48.46Z" class="cls-56" transform="translate(-1.53 0)"/><path id="path160" d="M40.1,49c.62.37,1.32-.42,1.88.86-2-.32-3.94,1-5.88-.63Z" class="cls-57" transform="translate(-1.53 0)"/><path id="path162" d="M32.48,30A10,10,0,0,1,33,26.54l0,1.92C33,29.3,32.84,29.9,32.48,30Z" class="cls-51" transform="translate(-1.53 0)"/><path id="path164" d="M39.49,31.56a.38.38,0,0,1-.21.07q0-3.26-.05-6.51.12-.21.26-.11Q39.49,28.29,39.49,31.56Z" class="cls-22" transform="translate(-1.53 0)"/><path id="path166" d="M41.29,35.16l0,1.27a.37.37,0,0,0-.27.18,1.29,1.29,0,0,0-1.57,0l-.14-.06-.13.17a2,2,0,0,0,.08-.71,1.51,1.51,0,0,1,.2-1A1.4,1.4,0,0,1,41.29,35.16Z" class="cls-58" transform="translate(-1.53 0)"/><path id="path168" d="M39.49,35l-.21,1c-.82,2.75,0,6.33-.65,9.18-.31-2.71-.09-5.48-.14-8.22C38.46,35,38.87,34.6,39.49,35Z" class="cls-59" transform="translate(-1.53 0)"/><path id="path170" d="M29.39,23.32l.8.07a.47.47,0,0,0,.2-.07,10.85,10.85,0,0,1,0,6,4.56,4.56,0,0,0,0,.48c-.39,1.26-.85,2.09-1.49,2a1.55,1.55,0,0,1-.42-.71,4,4,0,0,1,0-1.3C28.84,27.61,28.09,24.46,29.39,23.32Z" class="cls-60" transform="translate(-1.53 0)"/><path id="path172" d="M30.45,29.3q0-3,0-6A5.69,5.69,0,0,1,30.45,29.3Z" class="cls-49" transform="translate(-1.53 0)"/><path id="path174" d="M28.75,30.88q.08-.06.15.07c.28.69.76-.2,1,.86l-.06,1.43c-.36,1.36-.95,1-1.44,1.45a.94.94,0,0,1-.41-.5l0-2.6.29-.78Q28.56,30.06,28.75,30.88Z" class="cls-61" transform="translate(-1.53 0)"/><path id="path176" d="M28.27,34.1c.44-1.34,1.06-.42,1.57-.86A3.17,3.17,0,0,1,30.47,35c-.4.77-.8.84-1.21.07a2,2,0,0,1-.34.51.39.39,0,0,1-.38-.17A3.22,3.22,0,0,1,28.27,34.1Z" class="cls-62" transform="translate(-1.53 0)"/><path id="path178" d="M29.9,31.81c-.34-.18-.72-.09-1-.86l1.57-1.17C30.52,30.94,30.33,31.62,29.9,31.81Z" class="cls-63" transform="translate(-1.53 0)"/><path id="path180" d="M28.94,35.06l.33,0q0,4.84,0,9.67l-.12.07L29,44.77c-1-2.52-.51-5.6-.45-8.52A8,8,0,0,1,28.94,35.06Z" class="cls-64" transform="translate(-1.53 0)"/><path id="path182" d="M28.94,35.06q0,.37-.07.74c-.27,3,0,6.12-.16,9.16l-.43.89h0c-.12-3.68-.58-7.42.25-11Z" class="cls-65" transform="translate(-1.53 0)"/><path id="path184" d="M28.71,45a46,46,0,0,1,.16-9.16q.08,4.49.16,9Z" class="cls-66" transform="translate(-1.53 0)"/><path id="path186" d="M28.55,34.9c-.57,3.57-.12,7.31-.25,11-.76-3.77-.22-7.78-.31-11.67l.27-.08Z" class="cls-67" transform="translate(-1.53 0)"/><path id="path188" d="M29.39,23.32c-.74,2,0,5.12-.71,7.16a22.36,22.36,0,0,1,0-7.12.31.31,0,0,0,.17-.14Z" class="cls-15" transform="translate(-1.53 0)"/><path id="path190" d="M28.69,23.35a65.71,65.71,0,0,0,0,7.12c0,.13,0,.27.07.41l-.43-.08C28.41,28.3,27.93,25.61,28.69,23.35Z" class="cls-68" transform="translate(-1.53 0)"/></svg>