<svg xmlns="http://www.w3.org/2000/svg" id="Layer_1" width="70" height="70" x="0" y="0" enable-background="new 0 0 70 70" version="1.1" viewBox="0 0 70 70" xml:space="preserve"><metadata/><rect width="70" height="70" fill="none"/><path fill="#EF6925" d="M34.7,1.3h1.6c1.2,0.1,2.4,0.4,3.5,0.9c2.8,1.3,4.8,3.8,6.4,6.4c2.5,4.2,3.899,8.9,5.1,13.6 c1.5,6.4,2.4,13,3,19.6c0.601,6.9,0.9,13.9,0.8,20.8c-1.5-1.5-3-3-4.5-4.6C45.1,52.2,39.9,46.1,35.1,39.7c-3.3-4.4-6.3-9.1-8.8-14 c-1.6-3.2-2.9-6.5-3.4-10.1c-0.4-2.7-0.3-5.6,1-8c1.2-2.3,3.3-3.9,5.5-4.9C31.1,2.1,32.9,1.5,34.7,1.3 M30.8,5.9 c-1.4,0.7-2.7,1.6-3.6,2.9c-1.1,1.5-1.5,3.4-1.5,5.2c0,2.6,0.8,5.1,1.7,7.5c1.1,2.8,2.5,5.5,4.1,8c2.6,4.3,5.5,8.3,8.6,12.2 c2.9,3.7,6,7.2,9.2,10.7c0.9,0.8,1.601,1.8,2.5,2.6c0.101-0.8,0-1.6,0-2.4C51.6,45.4,51,38.3,49.9,31.2C49,25.8,48,20.5,46,15.4 c-0.9-2.4-2.1-4.8-3.7-6.9C40.9,6.8,39.1,5.3,36.9,4.8C35,4.4,32.8,5,30.8,5.9z"/><path fill="#EF6925" d="M17.4,45.5c2.4-0.7,4.9-0.3,7.2,0.4c3,1,5.8,2.5,8.4,4.1c5.8,3.6,11.1,8,16.1,12.6 c2.101,1.9,4.101,3.801,6,5.9c-3.6,0-7.3-0.1-10.899-0.4c-6.4-0.5-12.9-1.3-19.1-2.899c-3.5-1-6.9-2.2-9.8-4.3 c-1.9-1.4-3.6-3.5-3.8-6V53.6c0.2-1.6,0.8-3.199,1.6-4.6C14,47.4,15.6,46,17.4,45.5 M17.8,47.9c-1.2,0.5-2.1,1.5-2.7,2.6 S14,52.9,14,54.2c0,1.5,0.6,2.899,1.7,4c1.1,1.2,2.4,2,3.8,2.8c3.6,1.7,7.4,2.7,11.3,3.4c4,0.699,8,1.199,12,1.5 c2.3,0.199,4.7,0.3,7,0.3c-0.7-0.8-1.5-1.601-2.399-2.3c-2.5-2.301-5-4.5-7.7-6.601c-3.3-2.6-6.6-5-10.3-7c-2.1-1.1-4.3-2.2-6.6-2.7 C21.2,47.3,19.4,47.2,17.8,47.9z"/><g id="_x23_f79515ff"><path fill="#F69621" d="M30.8,5.9c1.9-0.9,4.1-1.5,6.3-1c2.2,0.5,4,2,5.4,3.7c1.6,2.1,2.8,4.4,3.7,6.9c1.899,5.1,3,10.4,3.899,15.8 C51.2,38.4,51.7,45.6,52,52.7c0,0.8,0.1,1.6,0,2.399c-0.9-0.8-1.7-1.8-2.5-2.6c-3.2-3.5-6.3-7-9.2-10.7c-3.1-3.899-6.1-8-8.6-12.2 c-1.5-2.6-3-5.2-4.1-8c-1-2.4-1.7-4.9-1.7-7.5c0-1.8,0.4-3.7,1.5-5.2C28.1,7.5,29.4,6.6,30.8,5.9 M32.9,8.9 c-1.5,0.6-2.8,1.7-3.4,3.2c-0.7,1.8-0.4,3.8,0.1,5.7c0.9,3.2,2.4,6.1,4.1,9c2.5,4.1,5.3,8,8.399,11.8 C44.2,41.2,46.4,43.8,48.7,46.3c-0.101-2.7-0.4-5.3-0.7-8c-0.7-5.7-1.6-11.4-3.1-17c-0.9-3-1.9-5.9-3.5-8.6c-1-1.6-2.301-3.2-4-3.9 C35.9,8.1,34.3,8.3,32.9,8.9z"/><path fill="#F69621" d="M17.8,47.9c1.6-0.7,3.4-0.601,5-0.301c2.3,0.5,4.5,1.5,6.6,2.7c3.6,2,7,4.4,10.3,7 c2.6,2.101,5.2,4.3,7.7,6.601c0.8,0.699,1.6,1.5,2.399,2.3c-2.3,0-4.7-0.2-7-0.3c-4-0.301-8-0.801-12-1.5 c-3.9-0.7-7.7-1.7-11.3-3.4c-1.4-0.7-2.8-1.6-3.8-2.8c-1-1.101-1.7-2.5-1.7-4c0-1.3,0.5-2.5,1.1-3.7C15.6,49.4,16.6,48.4,17.8,47.9 M19.1,50.1c-0.8,0.301-1.5,0.9-1.9,1.7c-0.6,1.101-0.9,2.4-0.5,3.601c0.4,1.199,1.3,2.1,2.3,2.8c1.9,1.3,4,2,6.1,2.6 c2.7,0.8,5.5,1.3,8.3,1.7c3.4,0.5,6.7,0.8,10.1,1c-0.3-0.4-0.8-0.7-1.2-1.1c-1.7-1.5-3.399-2.9-5.1-4.2C34,55.7,30.7,53.4,27,51.6 c-1.5-0.699-3-1.3-4.6-1.6C21.4,49.7,20.2,49.7,19.1,50.1z"/></g><g id="_x23_ffcf02ff"><path fill="#FDD00F" d="M32.9,8.9c1.4-0.6,3.1-0.8,4.5-0.1c1.8,0.8,3,2.3,4,3.9c1.6,2.7,2.6,5.6,3.5,8.6c1.5,5.5,2.399,11.2,3.1,17 c0.3,2.7,0.6,5.3,0.7,8c-2.3-2.5-4.5-5.1-6.601-7.7c-3-3.8-5.899-7.7-8.399-11.8c-1.7-2.8-3.2-5.8-4.1-9c-0.5-1.8-0.7-3.8-0.1-5.7 C30,10.6,31.4,9.5,32.9,8.9z"/><path fill="#FDD00F" d="M19.1,50.1c1.1-0.399,2.3-0.399,3.4-0.199c1.6,0.3,3.1,0.899,4.6,1.6c3.6,1.8,7,4.1,10.2,6.6 c1.8,1.301,3.5,2.801,5.101,4.2C42.8,62.7,43.2,63,43.6,63.4c-3.399-0.101-6.8-0.5-10.1-0.9c-2.8-0.4-5.6-0.9-8.3-1.7 c-2.1-0.6-4.3-1.399-6.1-2.6c-1-0.7-1.9-1.601-2.3-2.8c-0.4-1.2-0.1-2.5,0.5-3.601C17.7,51,18.3,50.4,19.1,50.1z"/></g></svg>