<svg xmlns="http://www.w3.org/2000/svg" version="1.1" id="svg3699" width="70" height="70" viewBox="0 0 70.000001 70" xml:space="preserve"><metadata id="metadata3705"/><defs id="defs3703"><clipPath id="clipPath3717" clipPathUnits="userSpaceOnUse"><path id="path3715" d="M 0,84.189 H 155.905 V 0 H 0 Z"/></clipPath><clipPath id="clipPath3958" clipPathUnits="userSpaceOnUse"><path id="path3956" d="M 0,595.28 H 841.89 V 0 H 0 Z"/></clipPath></defs><g id="g3707" transform="matrix(1.3333333,0,0,-1.3333333,0,70)"><g id="g3952" transform="matrix(0.15667059,0,0,0.15667059,-39.765721,-20.167547)"><g id="g3954" clip-path="url(#clipPath3958)"><g id="g3960" transform="translate(335.2002,316.3789)"><path id="path3962" d="m 0,0 v -30.279 c 0,-2.784 -1.223,-6.951 -12.465,-6.951 -11.246,0 -12.469,4.167 -12.469,6.951 V 0 h -6.386 v -30.621 c 0,-7.498 6.213,-10.766 17.744,-10.766 5.898,0 10.244,0.989 13.506,1.908 V -53.166 H 6.219 L 6.184,0 Z m -57.941,14.447 c -6.731,0 -16.717,-1.4 -16.717,-8.271 V 0 h -7.295 v -3.545 h 7.295 v -36.877 h 6.113 v 36.877 h 9.625 L -58.918,0 h -9.627 v 5.414 c 0,5.274 6.156,6.113 10.604,6.113 7.363,0 11.027,-0.558 11.027,-8.611 l -0.004,-43.338 h 6.111 v 53.893 h -6.107 c -3.406,0 -5.051,0.976 -11.027,0.976 M 246.426,-3.867 c -3.696,0 -6.696,-3.01 -6.696,-6.715 0,-3.711 3,-6.723 6.696,-6.723 3.73,0 6.719,3.012 6.719,6.723 0,3.705 -2.989,6.715 -6.719,6.715" style="fill:#ff8200;fill-opacity:1;fill-rule:nonzero;stroke:none"/></g><g id="g3964" transform="translate(532.8369,308.6113)"><path id="path3966" d="m 0,0 c 4.752,0.539 9.008,0.805 11.689,0.812 -1.476,5.692 -8.22,7.915 -19.347,7.915 -9.61,0 -18.188,-3.319 -18.188,-3.319 v -7.904 c 0,0 5.942,4.783 18.354,4.783 C -3.428,2.287 -1.184,1.562 0,0 m -148.303,-19.863 c -0.343,-4.381 -5.064,-6.75 -9.646,-6.75 -9.93,0 -11.322,4.318 -11.322,14.175 0,9.85 1.947,14.159 10.832,14.159 5.759,0 9.793,-2.356 10.136,-6.733 0.278,-3.539 0.42,-5.347 0.42,-7.426 0,-2.082 -0.142,-4.103 -0.42,-7.425 m 0.42,26.175 c -4.101,1.596 -7.221,2.428 -12.293,2.428 -15.484,0 -20.205,-5.836 -20.205,-21.178 0,-15.275 6.942,-21.181 22.432,-21.181 9.437,0 16.299,3.531 21.176,3.531 v 51.326 h -11.11 z M 32.414,7.801 H 21.305 V 1.137 H 32.414 Z M 1.295,-19.764 c 0,-5.777 -5.4,-7.23 -9.1,-7.23 -6.308,0 -9.539,1.898 -9.539,5.982 0,6.903 8.852,10.451 18.639,11.041 z m 33.459,16.959 -3.225,-0.006 c -45.037,0 -59.634,-8.365 -59.634,-17.929 0,-8.883 7.638,-12.781 20.001,-12.781 7.979,0 16.049,3.451 20.274,3.451 v 21.535 c 5.267,0.666 9.209,0.769 9.209,0.769 V -32.66 h 11.1 v 18.744 c 0,6.695 2.275,11.111 2.275,11.111 m -91.121,-23.808 c -4.588,0 -9.305,2.369 -9.649,6.75 -0.277,3.322 -0.418,5.343 -0.418,7.425 0,2.079 0.141,3.887 0.418,7.432 0.344,4.371 4.381,6.727 10.141,6.727 8.883,0 10.828,-4.309 10.828,-14.159 0,-9.857 -1.389,-14.175 -11.32,-14.175 m 2.222,35.353 c -5.07,0 -8.193,-0.832 -12.289,-2.428 v 14.926 h -11.109 v -51.326 c 4.875,0 11.73,-3.531 21.176,-3.531 15.486,0 22.429,5.906 22.429,21.181 0,15.342 -4.726,21.178 -20.207,21.178 m -43.666,-28.885 c 0,-2.783 -0.908,-6.943 -9.24,-6.943 -8.328,0 -9.228,4.16 -9.228,6.943 V 7.768 h -11.116 v -30.622 c 0.004,-7.498 7.704,-10.765 19.239,-10.765 10.205,0 16.793,3.127 20.06,3.473 L -86.707,-30 V 7.768 h -11.104 z" style="fill:#006496;fill-opacity:1;fill-rule:nonzero;stroke:none"/></g></g></g></g></svg>