<svg xmlns="http://www.w3.org/2000/svg" version="1.1" x="0px" y="0px" width="657" height="657" viewBox="0 0 657.6 657.6" enable-background="new 0 0 657.6 657.6" xml:space="preserve"><g id="AREA_x5F_SEGURANCA"><rect x="-29" y="153.3" width="705.6" fill="none" height="364.4"/></g><g id="LOGO"><g><path fill="#A7A9AC" d="M527.8,306.5c-10.4-53.4-57.5-93.8-114-93.8c-64.1,0-116.1,52-116.1,116.1c0,64.1,52,116.1,116.1,116.1    c56.5,0,103.6-40.3,114-93.8V306.5z M413.8,398.7c-38.6,0-69.9-31.3-69.9-69.9c0-38.6,31.3-69.9,69.9-69.9    c38.6,0,69.9,31.3,69.9,69.9C483.7,367.4,452.4,398.7,413.8,398.7z"/><path fill="#F58220" d="M336,444.9c64.1,0,116.1-52,116.1-116.1c0-64.1-52-116.1-116.1-116.1c-54.6,0-100.5,37.7-112.8,88.6    c-0.6,2.5-2.8,4.3-5.4,4.3h-51c-3.1,0-5.6,2.5-5.6,5.6v35.2c0,3.1,2.5,5.6,5.6,5.6h35.3c3.1,0,5.6,2.5,5.6,5.6v21.2    c0,1.7-0.8,3.3-2.1,4.3c-12,9.9-27.4,15.8-44.2,15.8c-38.6,0-69.9-31.3-69.9-69.9c0-38.6,31.3-69.9,69.9-69.9    c10.9,0,21.3,2.5,30.5,7c2.6,1.3,5.8,0.3,7.2-2.2l18-30.2c0.8-1.3,1-2.9,0.6-4.4c-0.4-1.5-1.4-2.7-2.8-3.4    c-16-8.3-34.2-13.1-53.5-13.1c-64.1,0-116.1,52-116.1,116.1c0,64.1,52,116.1,116.1,116.1c32.7,0,62.2-13.5,83.3-35.2    c1.1-1.1,2.5-1.7,4-1.7c1.5,0,3,0.6,4,1.7C273.9,431.5,303.4,444.9,336,444.9z M336,398.7c-38.6,0-69.9-31.3-69.9-69.9    c0-38.6,31.3-69.9,69.9-69.9c38.6,0,69.9,31.3,69.9,69.9C405.9,367.4,374.6,398.7,336,398.7z"/><path fill="#A7A9AC" d="M527.8,306.5c-10.4-53.4-57.5-93.8-114-93.8c-13.6,0-26.7,2.4-38.9,6.7c22.4,8,41.6,22.6,55.3,41.5    c30.7,7.4,53.5,35,53.5,67.9c0,38.6-31.3,69.9-69.9,69.9c-38.6,0-69.9-31.3-69.9-69.9c0-24.2,12.3-45.5,31-58.1    c-11.1-7.5-24.5-11.8-38.9-11.8c-5.6,0-11.1,0.7-16.4,1.9c-13.8,19.1-22,42.6-22,68c0,64.1,52,116.1,116.1,116.1    c56.5,0,103.6-40.3,114-93.8V306.5z"/><path fill="#F58220" d="M535.5,395.8c-3.1,0-5.6-2.5-5.6-5.6V221.9c0-3.1-2.5-5.6-5.6-5.6h-35.1c-3.1,0-5.6,2.5-5.6,5.6v214.5    c0,3.1,2.5,5.6,5.6,5.6h117.5c3.1,0,5.6-2.5,5.6-5.6v-35.1c0-3.1-2.5-5.6-5.6-5.6H535.5z"/></g></g></svg>