<svg xmlns="http://www.w3.org/2000/svg" version="1.1" width="70px" height="70px" viewBox="0 0 70 70"><g id="surface1"><path d="M 68.230469 65.714844 L 53.136719 61.195312 L 66.929688 47.746094 C 67.136719 47.546875 67.242188 47.144531 67.136719 46.742188 C 67.085938 46.34375 66.878906 46.039062 66.617188 46.140625 L 51.265625 50.757812 L 62.296875 29.679688 C 62.453125 29.378906 62.453125 28.878906 62.296875 28.578125 C 62.191406 28.175781 61.933594 28.074219 61.726562 28.273438 L 47.984375 41.925781 L 54.90625 15.527344 C 55.011719 15.125 54.90625 14.625 54.75 14.421875 C 54.59375 14.222656 54.335938 14.222656 54.179688 14.421875 L 43.300781 35.601562 L 45.851562 6.09375 C 45.851562 5.691406 45.746094 5.289062 45.539062 5.089844 C 45.332031 4.988281 45.070312 5.089844 44.964844 5.492188 L 37.835938 32.289062 L 35.496094 3.082031 C 35.496094 2.679688 35.285156 2.378906 35.027344 2.378906 C 34.765625 2.378906 34.609375 2.679688 34.558594 3.082031 L 32.164062 32.191406 L 25.136719 5.289062 C 25.035156 4.886719 24.824219 4.6875 24.617188 4.886719 C 24.410156 4.988281 24.253906 5.390625 24.304688 5.890625 L 26.855469 35.804688 L 15.976562 14.222656 C 15.820312 13.921875 15.5625 13.921875 15.40625 14.222656 C 15.195312 14.523438 15.144531 14.925781 15.25 15.328125 L 22.429688 42.328125 L 8.378906 28.273438 C 8.171875 28.074219 7.910156 28.273438 7.808594 28.578125 C 7.703125 28.878906 7.703125 29.378906 7.808594 29.679688 L 19.101562 50.960938 L 3.488281 46.039062 C 3.277344 46.039062 3.070312 46.242188 2.964844 46.644531 C 2.914062 47.042969 2.964844 47.546875 3.175781 47.648438 L 17.226562 61.195312 L 1.769531 65.714844 C 1.507812 65.714844 1.351562 66.214844 1.40625 66.617188 C 1.40625 67.117188 1.613281 67.421875 1.875 67.421875 L 68.179688 67.421875 C 68.4375 67.421875 68.59375 67.117188 68.648438 66.617188 C 68.648438 66.117188 68.492188 65.714844 68.28125 65.714844 Z M 68.230469 65.714844 " style=" stroke:none;fill-rule:nonzero;fill:rgb(97.254902%,59.607846%,11.372549%);fill-opacity:1;"/><path d="M 49.703125 67.519531 C 49.703125 67.21875 49.652344 66.917969 49.496094 66.917969 L 43.039062 65.011719 L 48.972656 59.289062 C 49.078125 59.191406 49.128906 58.988281 49.078125 58.789062 C 49.078125 58.585938 48.921875 58.488281 48.816406 58.488281 L 42.261719 60.496094 L 46.996094 51.460938 C 47.101562 51.261719 47.101562 51.058594 46.996094 50.859375 C 46.945312 50.65625 46.789062 50.65625 46.683594 50.757812 L 40.804688 56.578125 L 43.769531 45.238281 C 43.820312 45.039062 43.769531 44.835938 43.71875 44.636719 C 43.613281 44.535156 43.507812 44.535156 43.40625 44.636719 L 38.773438 53.769531 L 39.867188 41.121094 C 39.867188 40.921875 39.867188 40.722656 39.710938 40.621094 C 39.605469 40.621094 39.5 40.621094 39.449219 40.820312 L 36.378906 52.265625 L 35.390625 39.816406 C 35.390625 39.617188 35.285156 39.417969 35.128906 39.417969 C 34.972656 39.417969 34.921875 39.617188 34.921875 39.816406 L 33.933594 52.265625 L 30.914062 40.722656 C 30.863281 40.519531 30.757812 40.421875 30.601562 40.519531 C 30.5 40.519531 30.445312 40.820312 30.445312 41.023438 L 31.539062 53.871094 L 26.804688 44.535156 C 26.699219 44.335938 26.59375 44.335938 26.492188 44.535156 C 26.386719 44.636719 26.386719 44.9375 26.4375 45.136719 L 29.507812 56.679688 L 23.472656 50.65625 C 23.367188 50.558594 23.265625 50.65625 23.160156 50.757812 C 23.109375 50.960938 23.109375 51.160156 23.160156 51.359375 L 28 60.496094 L 21.339844 58.386719 C 21.234375 58.386719 21.128906 58.386719 21.078125 58.6875 C 21.027344 58.988281 21.078125 59.089844 21.183594 59.191406 L 27.167969 65.011719 L 20.558594 66.917969 C 20.453125 66.917969 20.347656 67.117188 20.347656 67.519531 Z M 49.703125 67.519531 " style=" stroke:none;fill-rule:nonzero;fill:rgb(99.607843%,82.352942%,3.137255%);fill-opacity:1;"/></g></svg>