<svg xmlns="http://www.w3.org/2000/svg" id="Layer_1" width="70" height="70" x="0" y="0" enable-background="new 0 0 70 70" version="1.1" viewBox="0 0 70 70" xml:space="preserve"><g id="XMLID_16_"><g id="XMLID_72_"><path id="XMLID_15_" fill="#F89921" d="M41.406,22.466c0.017-0.083,0.012-0.191,0.098-0.237c0.097-0.062,0.233,0.019,0.234,0.131 c0.269,1.727,0.536,3.454,0.804,5.18c0.813-1.587,1.625-3.174,2.438-4.76c0.025-0.062,0.088-0.112,0.158-0.105 c0.095-0.002,0.166,0.102,0.145,0.191c-0.291,1.753-0.586,3.505-0.878,5.257c1.246-1.259,2.492-2.52,3.739-3.778 c0.065-0.079,0.206-0.067,0.252,0.025c0.044,0.067,0.006,0.145-0.025,0.208c-0.786,1.55-1.57,3.1-2.355,4.65 c1.537-0.787,3.075-1.575,4.612-2.364c0.085-0.043,0.188-0.118,0.281-0.051c0.093,0.058,0.081,0.199-0.002,0.261 c-1.256,1.243-2.512,2.485-3.768,3.728c1.757-0.272,3.514-0.548,5.271-0.819c0.107-0.028,0.214,0.084,0.183,0.191 c-0.025,0.091-0.123,0.119-0.195,0.159c-1.547,0.781-3.093,1.564-4.64,2.346c1.733,0.268,3.467,0.532,5.2,0.802 c0.188,0.021,0.152,0.333-0.039,0.308c-2.103,0-4.208,0.006-6.311-0.003c-0.048-0.039-0.089-0.094-0.154-0.101 c-0.717-0.11-1.435-0.218-2.152-0.332c0.659-0.359,1.341-0.676,2.005-1.027c0.094-0.032,0.054-0.186-0.046-0.151 c-0.75,0.104-1.497,0.237-2.247,0.342c0.524-0.518,1.047-1.037,1.572-1.554c0.04-0.04,0.106-0.111,0.047-0.163 c-0.038-0.043-0.092-0.012-0.133,0.005c-0.66,0.332-1.313,0.681-1.977,1.006c0.263-0.546,0.546-1.082,0.816-1.624 c0.067-0.141,0.155-0.273,0.201-0.423c-0.011-0.099-0.127-0.084-0.172-0.019c-0.473,0.478-0.946,0.956-1.418,1.435 c-0.047,0.046-0.096,0.09-0.145,0.134c0.112-0.721,0.238-1.439,0.358-2.159c0.002-0.058,0.032-0.141-0.039-0.169 c-0.08-0.024-0.111,0.067-0.143,0.12c-0.297,0.586-0.6,1.17-0.897,1.756c-0.033,0.064-0.07,0.126-0.107,0.188 c-0.113-0.619-0.196-1.243-0.297-1.864c-0.028-0.132-0.02-0.277-0.086-0.397c-0.072-0.028-0.128,0.02-0.131,0.094 c-0.12,0.727-0.226,1.457-0.347,2.185c-0.364-0.698-0.702-1.411-1.075-2.104c-0.06,0.014-0.133,0.042-0.111,0.119 c0.112,0.753,0.253,1.502,0.362,2.256c-0.453-0.45-0.894-0.913-1.343-1.367c-0.097-0.095-0.182-0.202-0.289-0.287 c-0.048-0.045-0.151,0.012-0.116,0.079c0.048,0.145,0.135,0.273,0.2,0.411c0.278,0.554,0.573,1.1,0.842,1.659 c-0.685-0.335-1.354-0.702-2.036-1.042c-0.096-0.076-0.192,0.062-0.098,0.131c0.538,0.537,1.095,1.056,1.627,1.598 c-0.762-0.107-1.518-0.249-2.279-0.36c-0.088-0.022-0.137,0.107-0.051,0.145c0.675,0.359,1.374,0.676,2.046,1.041 c-0.66,0.106-1.322,0.204-1.983,0.304c-0.131,0.024-0.288,0.013-0.376,0.132l-0.005,0.005c-2.093,0.001-4.186,0-6.279,0 c-0.093,0.013-0.195-0.052-0.195-0.151c-0.007-0.088,0.071-0.159,0.156-0.163c1.767-0.27,3.534-0.538,5.301-0.809 c-1.601-0.803-3.201-1.605-4.802-2.408c-0.063-0.026-0.114-0.084-0.112-0.155c-0.002-0.097,0.1-0.175,0.193-0.15 c1.787,0.288,3.573,0.58,5.36,0.869c-1.289-1.258-2.58-2.515-3.868-3.775c-0.082-0.065-0.081-0.211,0.018-0.26 c0.09-0.055,0.183,0.016,0.264,0.055c1.573,0.814,3.147,1.627,4.72,2.44c-0.817-1.594-1.634-3.188-2.452-4.781 c-0.029-0.052-0.049-0.117-0.017-0.172c0.041-0.1,0.191-0.117,0.259-0.034c1.263,1.289,2.524,2.581,3.786,3.871 c-0.289-1.767-0.58-3.534-0.869-5.301c-0.013-0.058-0.01-0.124,0.036-0.168c0.07-0.084,0.217-0.052,0.257,0.048 c0.808,1.596,1.614,3.192,2.42,4.789C40.877,25.846,41.141,24.156,41.406,22.466z"/></g><g id="XMLID_70_"><path id="XMLID_14_" fill="#FEE609" d="M41.464,28.883c0.003-0.074,0.059-0.122,0.131-0.094c0.066,0.12,0.058,0.265,0.086,0.397 c0.101,0.621,0.183,1.245,0.297,1.864c0.037-0.061,0.074-0.124,0.107-0.188c0.297-0.586,0.6-1.17,0.897-1.756 c0.032-0.053,0.063-0.144,0.143-0.12c0.071,0.028,0.041,0.111,0.039,0.169c-0.12,0.72-0.246,1.438-0.358,2.159 c0.049-0.044,0.098-0.088,0.145-0.134c0.472-0.479,0.945-0.957,1.418-1.435c0.045-0.065,0.161-0.081,0.172,0.019 c-0.047,0.149-0.135,0.282-0.201,0.423c-0.27,0.542-0.554,1.078-0.816,1.624c0.664-0.325,1.316-0.674,1.977-1.006 c0.041-0.017,0.094-0.049,0.133-0.005c0.059,0.052-0.007,0.123-0.047,0.163c-0.525,0.517-1.048,1.036-1.572,1.554 c0.75-0.104,1.497-0.238,2.247-0.342c0.101-0.035,0.14,0.119,0.046,0.151c-0.664,0.35-1.346,0.668-2.005,1.027 c0.717,0.114,1.435,0.222,2.152,0.332c0.066,0.006,0.106,0.061,0.154,0.101c-0.204,0.04-0.416,0.008-0.622,0.018 c-3.136,0.001-6.272-0.001-9.407,0.001c-0.048,0.002-0.094-0.005-0.139-0.021c0.088-0.12,0.245-0.109,0.376-0.132 c0.661-0.101,1.323-0.198,1.983-0.304c-0.673-0.365-1.371-0.682-2.046-1.041c-0.086-0.038-0.038-0.167,0.051-0.145 c0.761,0.111,1.518,0.253,2.279,0.36c-0.532-0.543-1.089-1.062-1.627-1.598c-0.094-0.07,0.001-0.208,0.098-0.131 c0.682,0.339,1.351,0.707,2.036,1.042c-0.269-0.559-0.564-1.104-0.842-1.659c-0.065-0.138-0.152-0.266-0.2-0.411 c-0.035-0.067,0.068-0.124,0.116-0.079c0.107,0.084,0.192,0.192,0.289,0.287c0.449,0.455,0.889,0.917,1.343,1.367 c-0.109-0.754-0.25-1.503-0.362-2.256c-0.022-0.077,0.051-0.106,0.111-0.119c0.373,0.694,0.71,1.406,1.075,2.104 C41.238,30.341,41.344,29.611,41.464,28.883z"/></g><g id="XMLID_17_"><path id="XMLID_13_" fill="#076AAB" d="M11.178,30.973c0.924-0.008,1.849-0.003,2.773-0.003c0.102-0.008,0.18,0.09,0.166,0.188 c0,4.282,0.001,8.564,0,12.846c0.013,0.096-0.066,0.193-0.166,0.184c-0.917,0.002-1.834,0.002-2.751,0 c-0.098,0.004-0.169-0.091-0.158-0.184c0-4.282,0-8.565,0-12.848C11.033,31.072,11.087,30.979,11.178,30.973z"/><path id="XMLID_12_" fill="#076AAB" d="M15.559,30.973c0.925-0.008,1.851-0.003,2.776-0.002c0.1-0.007,0.176,0.092,0.162,0.188 c0,4.281,0,8.563,0,12.844c0.014,0.095-0.063,0.194-0.163,0.186c-0.918,0.002-1.836,0.002-2.753,0 c-0.099,0.005-0.169-0.094-0.157-0.187c0-4.281,0-8.562,0-12.843C15.415,31.074,15.468,30.979,15.559,30.973z"/><path id="XMLID_11_" fill="#076AAB" d="M66.923,32.596c0.101-0.037,0.214,0.054,0.202,0.161c0.002,0.748,0,1.496,0.001,2.243 c0.598,0.001,1.195,0,1.793,0c0.096-0.013,0.193,0.066,0.182,0.167c0.001,0.668,0.001,1.337,0,2.005 c0.013,0.102-0.084,0.185-0.182,0.171c-0.598,0.001-1.196,0-1.794,0c0.001,1.03-0.001,2.06,0.001,3.089 c0.006,0.339,0.019,0.696,0.176,1.005c0.1,0.199,0.308,0.326,0.527,0.351c0.34,0.038,0.687,0.013,1.023-0.052 c0.093-0.02,0.183,0.066,0.177,0.159c0.009,0.691,0.016,1.383,0.02,2.075c0.007,0.094-0.079,0.156-0.161,0.174 c-0.484,0.15-0.993,0.198-1.498,0.219c-0.603,0.031-1.221-0.052-1.769-0.314c-0.347-0.166-0.671-0.4-0.896-0.715 c-0.32-0.439-0.475-0.973-0.551-1.504c-0.054-0.372-0.068-0.749-0.066-1.124c0-1.121,0-2.242,0-3.363 c-0.402-0.002-0.805,0.004-1.206-0.003c-0.137-0.003-0.136-0.171-0.142-0.27c-0.001-0.634-0.002-1.268,0-1.902 c-0.01-0.099,0.081-0.18,0.177-0.169c0.39-0.002,0.78,0,1.17-0.001c0.001-0.499-0.001-0.997,0.001-1.496 c-0.01-0.09,0.062-0.163,0.148-0.177C65.146,33.084,66.034,32.837,66.923,32.596z"/><g id="XMLID_63_"><path id="XMLID_64_" fill="#076AAB" d="M2.23,35.238c1.144-0.596,2.455-0.823,3.736-0.776c0.904,0.038,1.841,0.282,2.53,0.896 c0.65,0.571,0.999,1.412,1.119,2.254c0.093,0.585,0.064,1.179,0.069,1.768c0.002,0.996-0.006,1.993,0.006,2.989 c0.013,0.546,0.035,1.095,0.137,1.633c0.021,0.093-0.066,0.185-0.159,0.177c-0.815,0.003-1.631,0.001-2.446,0.001 c-0.084,0.009-0.177-0.037-0.191-0.127c-0.043-0.216-0.077-0.435-0.117-0.652c-0.483,0.508-1.146,0.826-1.835,0.934 c-0.67,0.108-1.38,0.056-2.001-0.233c-0.642-0.293-1.162-0.837-1.436-1.486c-0.279-0.641-0.309-1.372-0.156-2.05 c0.125-0.55,0.405-1.065,0.805-1.464c0.453-0.457,1.036-0.765,1.641-0.97c0.86-0.288,1.772-0.386,2.675-0.4 c-0.015-0.233-0.084-0.475-0.259-0.638c-0.168-0.162-0.395-0.245-0.62-0.292c-0.512-0.103-1.042-0.058-1.548,0.053 c-0.422,0.096-0.836,0.237-1.22,0.438c-0.086,0.042-0.163,0.106-0.259,0.126c-0.086,0.004-0.152-0.068-0.166-0.148 c-0.165-0.599-0.338-1.196-0.499-1.797C2.001,35.348,2.139,35.285,2.23,35.238z M5.826,40.073 c-0.399,0.067-0.812,0.184-1.115,0.465c-0.282,0.264-0.335,0.697-0.223,1.053c0.068,0.23,0.259,0.412,0.487,0.48 c0.6,0.202,1.305-0.1,1.599-0.655c0.105-0.185,0.123-0.402,0.128-0.611c0.002-0.269,0-0.538,0.001-0.807 C6.41,40.006,6.116,40.025,5.826,40.073z"/></g><g id="XMLID_59_"><path id="XMLID_60_" fill="#076AAB" d="M47.41,34.511c0.71-0.078,1.435-0.088,2.138,0.052c0.638,0.126,1.26,0.396,1.738,0.844 c0.495,0.459,0.814,1.083,0.973,1.735c0.156,0.609,0.17,1.242,0.163,1.868c0,0.973-0.001,1.946,0,2.918 c0.007,0.694,0.013,1.393,0.142,2.076c0.019,0.091-0.063,0.182-0.155,0.176c-0.816,0.003-1.632,0.001-2.447,0.002 c-0.079,0.007-0.172-0.028-0.191-0.112c-0.046-0.221-0.079-0.445-0.12-0.667c-0.45,0.473-1.056,0.783-1.694,0.908 c-0.72,0.143-1.493,0.1-2.162-0.217c-0.665-0.309-1.192-0.888-1.453-1.571c-0.223-0.563-0.256-1.188-0.152-1.782 c0.099-0.575,0.361-1.122,0.758-1.55c0.434-0.473,1.006-0.797,1.604-1.014c0.894-0.32,1.85-0.427,2.794-0.441 c-0.014-0.266-0.112-0.544-0.336-0.704c-0.331-0.24-0.758-0.277-1.154-0.284c-0.748,0.012-1.49,0.21-2.156,0.549 c-0.095,0.043-0.18,0.127-0.289,0.124c-0.12-0.016-0.138-0.149-0.165-0.244c-0.152-0.55-0.307-1.098-0.461-1.648 c-0.022-0.068-0.028-0.153,0.035-0.201c0.093-0.07,0.202-0.117,0.305-0.17C45.841,34.809,46.621,34.604,47.41,34.511z M47.957,40.23c-0.279,0.11-0.562,0.282-0.694,0.564c-0.132,0.29-0.125,0.643,0.016,0.929c0.121,0.239,0.384,0.366,0.641,0.396 c0.617,0.098,1.282-0.298,1.47-0.897c0.088-0.401,0.032-0.815,0.049-1.222C48.938,40.013,48.429,40.054,47.957,40.23z"/></g><path id="XMLID_6_" fill="#076AAB" d="M40.082,34.669c0.926-0.014,1.854-0.002,2.781-0.006c0.094-0.011,0.184,0.069,0.175,0.165 c0.002,3.057,0.001,6.114,0.001,9.172c0.014,0.101-0.075,0.194-0.177,0.18c-0.905,0-1.81,0-2.716,0 c-0.103,0.015-0.194-0.076-0.18-0.178c-0.001-3.046,0-6.093-0.001-9.139C39.956,34.782,39.994,34.687,40.082,34.669z"/><g id="XMLID_23_"><path id="XMLID_24_" fill="#076AAB" d="M23.804,34.815c0.675-0.048,1.366,0.014,2.003,0.253c0.54,0.2,1.031,0.533,1.413,0.965 c0.44,0.498,0.738,1.11,0.911,1.748c0.234,0.874,0.264,1.8,0.114,2.691c-0.005,0.1-0.098,0.171-0.195,0.159 c-1.836,0.001-3.671,0-5.507,0.001c0.082,0.442,0.39,0.815,0.781,1.025c0.63,0.346,1.374,0.379,2.075,0.335 c0.629-0.033,1.254-0.147,1.852-0.348c0.093-0.046,0.218,0.011,0.229,0.118c0.122,0.612,0.239,1.224,0.357,1.837 c0.03,0.094-0.033,0.189-0.125,0.213c-1.096,0.442-2.294,0.572-3.468,0.553c-1.159-0.029-2.36-0.35-3.244-1.133 c-0.456-0.4-0.812-0.91-1.042-1.47c-0.294-0.708-0.399-1.483-0.378-2.246c0.035-1.062,0.367-2.125,1.005-2.981 c0.341-0.459,0.774-0.852,1.27-1.138C22.447,35.053,23.122,34.863,23.804,34.815z M23.225,37.211 c-0.391,0.287-0.607,0.754-0.697,1.22c0.976,0,1.952,0,2.928,0c-0.031-0.364-0.125-0.737-0.355-1.028 c-0.174-0.226-0.437-0.376-0.717-0.426C23.987,36.904,23.553,36.967,23.225,37.211z"/></g><g id="XMLID_19_"><path id="XMLID_20_" fill="#076AAB" d="M30.74,36.025c0.722-0.764,1.76-1.218,2.812-1.224c0.569-0.011,1.151,0.099,1.649,0.384 c0.291,0.164,0.545,0.388,0.756,0.646c0.02-0.232,0.034-0.464,0.059-0.695c0.007-0.089,0.098-0.144,0.182-0.135 c0.784,0,1.568-0.002,2.352,0.001c0.108-0.011,0.192,0.096,0.169,0.199c-0.098,1.618-0.058,3.239-0.066,4.858 c-0.001,0.918,0.002,1.836-0.002,2.753c-0.006,0.803-0.083,1.615-0.341,2.38c-0.204,0.604-0.538,1.172-1.011,1.604 c-0.443,0.402-0.962,0.724-1.529,0.917c-0.645,0.222-1.334,0.276-2.012,0.268c-0.771-0.014-1.541-0.099-2.293-0.271 c-0.411-0.1-0.824-0.218-1.197-0.422c-0.075-0.035-0.1-0.126-0.072-0.2c0.177-0.69,0.355-1.379,0.535-2.068 c0.016-0.109,0.151-0.164,0.241-0.102c0.534,0.297,1.125,0.489,1.727,0.584c0.55,0.083,1.126,0.096,1.66-0.078 c0.386-0.122,0.733-0.378,0.94-0.729c0.268-0.446,0.326-0.982,0.317-1.492c-0.559,0.584-1.365,0.895-2.167,0.91 c-0.71,0.021-1.43-0.148-2.042-0.515c-0.807-0.475-1.392-1.27-1.693-2.149c-0.271-0.776-0.338-1.612-0.263-2.428 C29.55,37.923,29.966,36.828,30.74,36.025z M33.995,37.213c-0.299,0.038-0.582,0.177-0.798,0.386 c-0.33,0.317-0.508,0.759-0.595,1.201c-0.108,0.589-0.104,1.209,0.083,1.782c0.133,0.407,0.385,0.793,0.765,1.007 c0.446,0.248,1.029,0.246,1.463-0.029c0.322-0.201,0.541-0.547,0.613-0.918c0.078-0.405,0.042-0.819,0.05-1.228 c-0.009-0.375,0.03-0.755-0.053-1.124c-0.093-0.334-0.278-0.655-0.565-0.858C34.682,37.236,34.328,37.17,33.995,37.213z"/></g><path id="XMLID_1_" fill="#076AAB" d="M58.176,34.926c0.668-0.177,1.389-0.171,2.051,0.033c0.579,0.177,1.098,0.539,1.461,1.024 c0.431,0.569,0.652,1.271,0.739,1.973c0.065,0.484,0.049,0.974,0.051,1.462c0,1.527,0,3.055,0,4.583 c0.016,0.107-0.076,0.205-0.183,0.19c-0.907,0-1.814,0.001-2.721-0.001c-0.103,0.011-0.187-0.086-0.171-0.186 c-0.001-1.404,0-2.809,0-4.213c-0.005-0.421,0.02-0.846-0.047-1.263c-0.048-0.296-0.137-0.598-0.335-0.83 c-0.148-0.174-0.361-0.285-0.585-0.325c-0.298-0.055-0.617-0.024-0.885,0.123c-0.324,0.175-0.553,0.491-0.676,0.833 c-0.064,0.22-0.062,0.452-0.064,0.678c-0.001,1.676,0.001,3.352-0.001,5.027c0.004,0.099-0.095,0.169-0.188,0.157 c-0.907-0.001-1.815,0.002-2.722-0.002c-0.099,0.006-0.175-0.091-0.161-0.185c0-1.858,0-3.715,0-5.573 c0.003-1.076-0.021-2.152-0.073-3.227c-0.023-0.103,0.058-0.212,0.167-0.201c0.782-0.003,1.564,0,2.346-0.001 c0.087-0.012,0.183,0.043,0.193,0.136c0.035,0.299,0.061,0.598,0.093,0.897C56.902,35.498,57.509,35.105,58.176,34.926z"/></g></g></svg>