<svg xmlns="http://www.w3.org/2000/svg" id="Layer_1" width="776" height="776" viewBox="0 0 776 776"><defs><style>.cls-1{fill:none}.cls-2{clip-path:url(#clip-path)}.cls-3,.cls-6{fill:#03499a}.cls-3{fill-rule:evenodd}.cls-4{clip-path:url(#clip-path-2)}.cls-5{fill:#fff}</style><clipPath id="clip-path"><rect width="889.29" height="856.05" x="-56" y="-40.55" class="cls-1"/></clipPath><clipPath id="clip-path-2"><path d="M573.69,70.47c-52.78,2.33-74.21,30.75-109.88,76.8l-387.27,500C57,672.58,34.6,692.5,6.28,712.66h634L771,62.3C709.47,65,635.24,67.75,573.69,70.47" class="cls-1"/></clipPath></defs><g class="cls-2"><path d="M6.28,712.66h634L771,62.3C709.47,65,635.24,67.75,573.69,70.47c-52.78,2.33-74.21,30.75-109.88,76.8l-387.27,500C57,672.58,34.6,692.5,6.28,712.66" class="cls-3"/></g><g class="cls-4"><polygon points="323.09 601.85 284.41 610.32 287.84 625.96 320.88 618.73 325.16 638.25 292.12 645.49 299.66 679.91 277.75 684.71 258.23 595.59 318.81 582.32 323.09 601.85" class="cls-5"/><rect width="22.42" height="91.23" x="354.85" y="573.06" class="cls-5" transform="translate(-123.92 92.68) rotate(-12.36)"/><path d="M487.78,638.71l-25.41,5.56-23-29.71L432,616.17l7.26,33.17-21.9,4.8L397.79,565l35.3-7.73q14.13-3.09,24.6,3.92a28,28,0,0,1,12.09,18.08q3.51,16-9.42,26.46Zm-39.9-54.62a9,9,0,0,0-4-5.75,9.4,9.4,0,0,0-7.47-1.18L424,579.88l3.94,18,12.4-2.71a9.44,9.44,0,0,0,6.29-4.2,9,9,0,0,0,1.25-6.9" class="cls-5"/><path d="M565.4,593.06q2.88,13.16-5.58,23-7.92,9.36-22.69,12.59-22.39,4.91-36.37-4.36l10.95-17.09q7.62,4.89,21.27,1.9,12.76-2.8,11-10.81-1.43-6.51-9.3-6l-11.1.85q-24.77,1.89-29.68-20.51-2.71-12.41,4.39-22.22t22-13.08q19.4-4.24,32.37,4.06L541.9,558.24q-6.42-4.22-18.07-1.67-5.26,1.14-7.69,4.44a7.7,7.7,0,0,0-1.26,6.19,6,6,0,0,0,2.81,3.85q2.28,1.47,6.56,1.19l11.09-.85q12.64-.93,20,4.16t10.06,17.51" class="cls-5"/><polygon points="643.38 531.69 621.48 536.49 636.72 606.08 614.82 610.88 599.58 541.28 577.67 546.08 573.39 526.56 639.11 512.16 643.38 531.69" class="cls-5"/><path d="M590.83,356.69,734.67,61.52A377.3,377.3,0,0,0,613.8,29.73Z" class="cls-5"/><path d="M565.39,355,539.24,27.72A377.53,377.53,0,0,0,419,61.79Z" class="cls-5"/><path d="M899,597.41a372.92,372.92,0,0,0,49.11-119.1l-332.21-67.5Z" class="cls-5"/><path d="M546.24,365.68,353.85,99.6a377.31,377.31,0,0,0-85.06,91.58Z" class="cls-5"/><path d="M957,393.22a372.88,372.88,0,0,0-24.11-126.55L618,392.05Z" class="cls-5"/><path d="M890.25,188.41A372.69,372.69,0,0,0,800,96.47l-192.57,279Z" class="cls-5"/><path d="M548.61,278.34Q591.81,268.5,630,295q38.25,26.72,49.08,74.24,10.78,47.34-12.11,88-23,40.44-66.15,50.29-43.38,9.88-81.58-16.62-38.25-26.7-49-74-10.83-47.54,12.06-88.17,23-40.44,66.33-50.33" class="cls-6"/><path d="M552.39,295q36.93-8.41,69.59,14.24,32.7,22.83,42,63.47,9.22,40.49-10.35,75.22Q634,482.47,597,490.88q-37.1,8.46-69.75-14.21-32.7-22.83-41.92-63.3-9.25-40.65,10.32-75.39,19.6-34.56,56.71-43" class="cls-5"/><path d="M469.75,402.78l-86.86,19.35,9.26,41.58,30.75-6.85,4.32,19.41c-4,3.8-9.26,6.72-19.51,9-25.11,5.59-47-9.32-53.1-36.77l-.12-.55c-5.87-26.34,6.72-49.51,30-54.71,14.86-3.3,29.29-.12,43.48,8.07L451.82,350c-23-13.66-49.67-19.24-79.58-13.08,0,0-80.66,17.08-81,104.6a116.59,116.59,0,0,0,2.61,19l.13.55c13.39,60.16,67.24,90.66,123.1,78.22,32.54-7.25,57.05-25.22,72.69-46.74Z" class="cls-5"/><path d="M565.37,352.1q15.39-3.5,29,5.94t17.48,26.45q3.84,16.86-4.31,31.34T584,433.75q-15.45,3.51-29.06-5.93t-17.47-26.37q-3.86-16.93,4.3-31.42t23.63-17.93" class="cls-6"/></g></svg>