<svg xmlns="http://www.w3.org/2000/svg" width="70" height="70" version="1.1" viewBox="0 0 70 70"><g id="surface1"><path d="M 0 0.0117188 L 70 0.0117188 L 70 68.988281 L 0 68.988281 Z M 0 0.0117188" style="stroke:none;fill-rule:nonzero;fill:#ff0041;fill-opacity:1"/><path d="M 23.542969 33.78125 C 23.730469 33.332031 23.90625 32.910156 24.066406 32.515625 C 24.074219 32.503906 24.078125 32.488281 24.082031 32.472656 C 23.902344 32.378906 23.636719 32.296875 23.257812 32.238281 C 23.042969 32.203125 22.8125 32.1875 22.574219 32.1875 C 22.175781 32.1875 21.808594 32.222656 21.472656 32.292969 C 21.136719 32.367188 20.839844 32.449219 20.585938 32.535156 C 20.332031 32.628906 20.125 32.714844 19.96875 32.800781 C 19.8125 32.886719 19.71875 32.941406 19.683594 32.964844 L 19.683594 38.976562 L 21.496094 38.976562 L 21.496094 33.953125 C 21.574219 33.90625 21.710938 33.851562 21.914062 33.78125 C 22.109375 33.707031 22.394531 33.671875 22.753906 33.671875 C 22.875 33.671875 23.003906 33.679688 23.136719 33.699219 C 23.269531 33.714844 23.378906 33.730469 23.511719 33.769531 C 23.519531 33.769531 23.53125 33.777344 23.542969 33.78125 Z M 13.898438 35.621094 C 13.679688 35.0625 13.464844 34.519531 13.246094 34 C 13.027344 33.480469 12.832031 32.996094 12.644531 32.550781 C 12.460938 32.105469 12.296875 31.71875 12.152344 31.390625 C 12.003906 31.058594 11.886719 30.800781 11.800781 30.621094 C 11.609375 30.195312 11.523438 30.003906 11.523438 30.003906 L 9.207031 30.003906 C 9.207031 30.003906 9.125 30.195312 8.933594 30.621094 C 8.851562 30.800781 8.730469 31.058594 8.585938 31.390625 C 8.4375 31.71875 8.269531 32.109375 8.089844 32.550781 C 7.910156 32.992188 7.707031 33.476562 7.492188 34 C 7.273438 34.523438 7.058594 35.0625 6.839844 35.621094 C 6.621094 36.1875 6.40625 36.75 6.1875 37.324219 C 5.96875 37.894531 5.765625 38.449219 5.574219 38.980469 L 7.492188 38.980469 L 8.234375 36.996094 L 12.507812 36.996094 L 13.25 38.980469 L 15.164062 38.980469 C 14.972656 38.449219 14.769531 37.894531 14.550781 37.324219 C 14.332031 36.753906 14.117188 36.1875 13.902344 35.621094 Z M 8.867188 35.308594 C 9.023438 34.894531 9.179688 34.472656 9.34375 34.050781 C 9.503906 33.628906 9.652344 33.238281 9.789062 32.886719 C 9.921875 32.535156 10.042969 32.230469 10.144531 31.976562 C 10.246094 31.722656 10.324219 31.550781 10.367188 31.460938 C 10.410156 31.550781 10.484375 31.722656 10.589844 31.976562 C 10.695312 32.230469 10.8125 32.535156 10.945312 32.886719 C 11.078125 33.242188 11.230469 33.628906 11.390625 34.050781 C 11.550781 34.472656 11.710938 34.890625 11.867188 35.308594 Z M 16.164062 38.980469 L 17.976562 38.980469 L 17.976562 32.21875 L 16.164062 32.738281 L 16.164062 38.984375 Z M 17.0625 29.839844 C 16.785156 29.839844 16.546875 29.933594 16.351562 30.125 C 16.152344 30.3125 16.054688 30.542969 16.054688 30.816406 C 16.054688 31.089844 16.152344 31.320312 16.351562 31.515625 C 16.546875 31.707031 16.785156 31.804688 17.0625 31.804688 C 17.339844 31.804688 17.589844 31.710938 17.789062 31.515625 C 17.988281 31.320312 18.085938 31.089844 18.085938 30.816406 C 18.085938 30.542969 17.988281 30.308594 17.789062 30.125 C 17.589844 29.933594 17.347656 29.839844 17.0625 29.839844 Z M 31.574219 35.621094 C 31.355469 35.0625 31.140625 34.519531 30.921875 34 C 30.703125 33.480469 30.507812 32.996094 30.324219 32.550781 C 30.140625 32.105469 29.976562 31.71875 29.828125 31.390625 C 29.683594 31.058594 29.5625 30.800781 29.476562 30.621094 C 29.285156 30.195312 29.203125 30.003906 29.203125 30.003906 L 26.882812 30.003906 C 26.882812 30.003906 26.800781 30.195312 26.613281 30.621094 C 26.527344 30.800781 26.40625 31.058594 26.261719 31.390625 C 26.113281 31.71875 25.945312 32.109375 25.765625 32.550781 C 25.585938 32.992188 25.386719 33.476562 25.167969 34 C 24.949219 34.523438 24.734375 35.0625 24.515625 35.621094 C 24.296875 36.1875 24.082031 36.75 23.863281 37.324219 C 23.648438 37.894531 23.441406 38.449219 23.25 38.980469 L 25.167969 38.980469 L 25.910156 36.996094 L 30.183594 36.996094 L 30.925781 38.980469 L 32.839844 38.980469 C 32.648438 38.449219 32.445312 37.894531 32.226562 37.324219 C 32.007812 36.753906 31.796875 36.1875 31.578125 35.621094 Z M 26.542969 35.308594 C 26.699219 34.894531 26.855469 34.472656 27.019531 34.050781 C 27.179688 33.628906 27.328125 33.238281 27.464844 32.886719 C 27.597656 32.535156 27.71875 32.230469 27.820312 31.976562 C 27.921875 31.722656 28 31.550781 28.042969 31.460938 C 28.085938 31.550781 28.160156 31.722656 28.265625 31.976562 C 28.371094 32.230469 28.488281 32.535156 28.621094 32.886719 C 28.753906 33.242188 28.90625 33.628906 29.066406 34.050781 C 29.226562 34.472656 29.386719 34.890625 29.542969 35.308594 Z M 54.613281 38.980469 L 56.425781 38.980469 L 56.425781 32.21875 L 54.613281 32.738281 L 54.613281 38.984375 Z M 55.511719 29.839844 C 55.238281 29.839844 55 29.933594 54.800781 30.125 C 54.601562 30.3125 54.503906 30.542969 54.503906 30.816406 C 54.503906 31.089844 54.601562 31.320312 54.800781 31.515625 C 55 31.707031 55.238281 31.804688 55.511719 31.804688 C 55.789062 31.804688 56.042969 31.710938 56.238281 31.515625 C 56.4375 31.320312 56.535156 31.089844 56.535156 30.816406 C 56.535156 30.542969 56.4375 30.308594 56.238281 30.125 C 56.042969 29.933594 55.800781 29.839844 55.511719 29.839844 Z M 64.171875 32.726562 C 64.027344 32.65625 63.828125 32.582031 63.578125 32.507812 C 63.324219 32.433594 63.015625 32.367188 62.65625 32.308594 C 62.296875 32.246094 61.878906 32.214844 61.414062 32.214844 C 60.832031 32.214844 60.316406 32.304688 59.859375 32.480469 C 59.402344 32.65625 59.011719 32.902344 58.6875 33.21875 C 58.363281 33.535156 58.113281 33.917969 57.941406 34.367188 C 57.765625 34.816406 57.679688 35.371094 57.679688 35.914062 C 57.679688 36.453125 57.761719 36.910156 57.925781 37.316406 C 58.089844 37.722656 58.3125 38.0625 58.585938 38.335938 C 58.863281 38.609375 59.1875 38.816406 59.558594 38.949219 C 59.929688 39.089844 60.320312 39.15625 60.738281 39.15625 C 61.03125 39.15625 61.292969 39.121094 61.519531 39.046875 C 61.75 38.976562 61.945312 38.894531 62.105469 38.800781 C 62.265625 38.703125 62.390625 38.613281 62.480469 38.523438 C 62.570312 38.429688 62.621094 38.375 62.640625 38.351562 L 62.640625 38.976562 L 64.457031 38.976562 L 64.457031 32.867188 C 64.410156 32.839844 64.316406 32.792969 64.167969 32.71875 L 64.167969 32.726562 Z M 62.640625 36.003906 C 62.640625 36.488281 62.515625 36.898438 62.269531 37.222656 C 62.015625 37.546875 61.640625 37.710938 61.140625 37.710938 C 60.640625 37.710938 60.246094 37.53125 59.96875 37.164062 C 59.6875 36.800781 59.546875 36.320312 59.546875 35.71875 C 59.546875 35.417969 59.589844 35.105469 59.671875 34.851562 C 59.753906 34.597656 59.878906 34.378906 60.046875 34.191406 C 60.210938 34.003906 60.429688 33.855469 60.691406 33.753906 C 60.957031 33.65625 61.269531 33.601562 61.632812 33.601562 C 61.910156 33.601562 62.132812 33.613281 62.308594 33.636719 C 62.480469 33.664062 62.59375 33.6875 62.644531 33.714844 L 62.644531 36 Z M 38.109375 32.472656 C 37.929688 32.378906 37.664062 32.296875 37.285156 32.238281 C 37.070312 32.203125 36.839844 32.1875 36.601562 32.1875 C 36.203125 32.1875 35.835938 32.222656 35.5 32.292969 C 35.160156 32.367188 34.867188 32.449219 34.613281 32.535156 C 34.359375 32.628906 34.152344 32.714844 33.996094 32.800781 C 33.839844 32.886719 33.746094 32.941406 33.710938 32.964844 L 33.710938 38.976562 L 35.523438 38.976562 L 35.523438 33.953125 C 35.601562 33.90625 35.738281 33.851562 35.9375 33.78125 C 36.136719 33.707031 36.417969 33.671875 36.78125 33.671875 C 36.898438 33.671875 37.03125 33.679688 37.164062 33.699219 C 37.296875 33.714844 37.402344 33.730469 37.539062 33.769531 C 37.546875 33.769531 37.558594 33.777344 37.566406 33.78125 C 37.753906 33.332031 37.929688 32.910156 38.089844 32.515625 C 38.097656 32.503906 38.101562 32.488281 38.105469 32.472656 Z M 44.027344 32.507812 C 43.773438 32.433594 43.464844 32.367188 43.105469 32.308594 C 42.746094 32.246094 42.328125 32.214844 41.863281 32.214844 C 41.28125 32.214844 40.765625 32.304688 40.308594 32.480469 C 39.851562 32.65625 39.460938 32.902344 39.136719 33.21875 C 38.8125 33.535156 38.5625 33.917969 38.390625 34.367188 C 38.214844 34.816406 38.128906 35.371094 38.128906 35.914062 C 38.128906 36.453125 38.210938 36.910156 38.375 37.316406 C 38.539062 37.722656 38.761719 38.0625 39.035156 38.335938 C 39.3125 38.609375 39.636719 38.816406 40.007812 38.949219 C 40.378906 39.089844 40.769531 39.15625 41.1875 39.15625 C 41.480469 39.15625 41.742188 39.121094 41.96875 39.046875 C 42.199219 38.976562 42.394531 38.894531 42.554688 38.800781 C 42.714844 38.703125 42.839844 38.613281 42.929688 38.523438 C 43.019531 38.429688 43.070312 38.375 43.089844 38.351562 L 43.089844 38.976562 L 44.902344 38.976562 L 44.902344 32.867188 C 44.855469 32.839844 44.761719 32.792969 44.613281 32.71875 C 44.46875 32.648438 44.269531 32.574219 44.019531 32.5 Z M 43.09375 36.003906 C 43.09375 36.488281 42.964844 36.898438 42.71875 37.222656 C 42.464844 37.546875 42.089844 37.710938 41.589844 37.710938 C 41.089844 37.710938 40.695312 37.53125 40.417969 37.164062 C 40.136719 36.800781 39.996094 36.320312 39.996094 35.71875 C 39.996094 35.417969 40.039062 35.105469 40.121094 34.851562 C 40.203125 34.597656 40.328125 34.378906 40.496094 34.191406 C 40.660156 34.003906 40.878906 33.855469 41.144531 33.753906 C 41.40625 33.65625 41.71875 33.601562 42.082031 33.601562 C 42.359375 33.601562 42.585938 33.613281 42.757812 33.636719 C 42.933594 33.664062 43.042969 33.6875 43.09375 33.714844 Z M 52.382812 33.054688 C 52.101562 32.78125 51.777344 32.570312 51.410156 32.433594 C 51.042969 32.289062 50.652344 32.21875 50.238281 32.21875 C 49.933594 32.21875 49.667969 32.257812 49.441406 32.328125 C 49.210938 32.402344 49.019531 32.488281 48.859375 32.585938 C 48.699219 32.683594 48.574219 32.773438 48.488281 32.859375 C 48.40625 32.945312 48.351562 33.003906 48.332031 33.027344 L 48.332031 29.992188 L 46.519531 30.511719 L 46.519531 38.980469 C 46.570312 38.988281 46.671875 39.003906 46.824219 39.023438 C 46.972656 39.046875 47.160156 39.066406 47.386719 39.082031 C 47.609375 39.097656 47.867188 39.117188 48.148438 39.132812 C 48.433594 39.148438 48.730469 39.160156 49.042969 39.160156 C 50.449219 39.160156 51.507812 38.835938 52.222656 38.191406 C 52.933594 37.546875 53.292969 36.613281 53.292969 35.464844 C 53.292969 34.941406 53.210938 34.476562 53.046875 34.070312 C 52.882812 33.664062 52.660156 33.324219 52.378906 33.050781 L 52.382812 33.050781 Z M 51.304688 36.523438 C 51.222656 36.777344 51.097656 36.996094 50.929688 37.183594 C 50.761719 37.375 50.542969 37.519531 50.28125 37.621094 C 50.019531 37.722656 49.707031 37.777344 49.34375 37.777344 C 49.066406 37.777344 48.839844 37.761719 48.667969 37.738281 C 48.492188 37.710938 48.378906 37.6875 48.328125 37.660156 L 48.328125 35.375 C 48.328125 34.890625 48.457031 34.480469 48.703125 34.15625 C 48.957031 33.832031 49.332031 33.667969 49.832031 33.667969 C 50.332031 33.667969 50.726562 33.851562 51.003906 34.214844 C 51.285156 34.578125 51.425781 35.058594 51.425781 35.660156 C 51.425781 35.960938 51.382812 36.273438 51.300781 36.527344 Z M 51.304688 36.523438" style="stroke:none;fill-rule:nonzero;fill:#fff;fill-opacity:1"/></g></svg>