<svg xmlns="http://www.w3.org/2000/svg" version="1.1" id="Layer_1" x="0px" y="0px" width="70px" height="70px" viewBox="0 0 70 70" enable-background="new 0 0 70 70" xml:space="preserve"><path fill="#008C9A" d="M27.979,37.976c-5.024-2.628-9.207-2.824-11.153-2.824h-6.792l-0.359-0.644h7.978   c0.553,0,7.18-0.09,11.078,0.95c4.878,1.306,8.244,3.865,8.906,4.293c0.658,0.431,9.547,6.791,9.547,6.791s-1.491,1.532-2.952,1.532   c-1.385,0-2.876-1.062-2.876-1.062s-4.766-3.434-5.489-3.941C35.137,42.565,31.384,39.756,27.979,37.976"/><path fill="#008C9A" d="M27.614,42.99c3.362,2.239,5.345,3.859,5.987,4.333c0.646,0.468,3.636,2.603,3.636,2.603   S38.604,51,40.294,51c1.278,0,2.853-1.482,2.853-1.482s-7.14-5.037-7.788-5.494c-0.652-0.453-2.939-2.254-7.209-3.383   c-3.569-0.936-8.643-0.91-8.976-0.91h-6.497l0.378,0.659c0,0,4.903,0.008,5.267,0.008C19.109,40.397,24.076,40.641,27.614,42.99"/><path fill="#008C9A" d="M28.709,32.709c4.333,2.326,8.613,5.537,9.414,6.119c0.804,0.586,7.307,5.238,7.307,5.238   s1.523,1.033,2.917,1.033c1.363,0,2.896-1.502,2.896-1.502s-10.388-7.48-11.321-8.141c-0.934-0.664-4.675-3.725-10.684-5.152   c-4.705-1.188-12.55-1.05-13.09-1.05H6.639L7.02,29.91h8.303C17.039,29.91,23.666,30,28.709,32.709"/><path fill="#002661" d="M66.369,32.609c-1.284-0.227-2.961-0.326-2.961-0.326l-2.303,0.652l-1.312-1.096   c0,0,2.737,0.221,3.506,0.328c0.652,0,0.436-0.328,0.109-0.99c-0.326-0.654-1.095-0.654-1.095-0.654h-6.908   c0,0-1.23,0.008-2.651-0.324c-1.425-0.332-1.987-1.398-1.987-1.398c-0.557,1.27,1.641,2.742,1.641,2.742l6.836,4.91   c0.878,0.547,1.646,0.108,1.646,0.108s1.753-0.876,2.741-1.099c0.873-0.219,3.611-0.33,3.941-0.219   c0.769,0.11,1.646,0.881,1.646,0.881C69.654,33.047,67.677,32.845,66.369,32.609"/><path fill="#002661" d="M30.063,22.449c4.761,2.1,11.576,7.184,12.568,7.906c1.001,0.727,10.812,7.753,10.812,7.753   s1.538,1.103,2.963,1.103s2.842-1.439,2.842-1.439l0,0c0,0-13.873-9.971-14.873-10.684c-1-0.715-5.602-4.593-14.156-6.846   c-5.852-1.538-15.911-1.473-17.076-1.473H0.59l0.386,0.668h11.506C15.387,19.438,23.761,19.679,30.063,22.449"/><path fill="#002661" d="M29.334,27.564c-5.141-2.574-11.488-2.894-15.184-2.894H3.997l-0.383-0.663h11.045   c1.189,0,9.548-0.088,15.078,1.172c6.379,1.449,11.865,5.641,12.437,6.039c0.549,0.377,13.138,9.413,13.138,9.413   s-1.436,1.476-2.975,1.476c-1.425,0-2.959-1.1-2.959-1.1s-8.195-5.871-8.99-6.437C39.598,34.01,34.127,29.961,29.334,27.564"/></svg>