<svg xmlns="http://www.w3.org/2000/svg" version="1.1" id="Layer_1" x="0px" y="0px" width="70px" height="70px" viewBox="0 0 70 70" enable-background="new 0 0 70 70" xml:space="preserve"><metadata/><rect width="70" fill="none" height="70"/><circle cx="31.5" cy="31.4" r="28.9" fill="#BEA441"/><path fill="#411345" d="M66,15.7c-0.7,0-2.9,1.5-3,3.2c-0.2,1.7-0.3,2.3-0.8,2.2c-0.5,0-9.2-12-12.9-13.7c-0.1,0-0.2-0.1-0.3-0.1   c-4.9-3.6-11-5.7-17.6-5.7c-3.1,0-6.1,0.4-9,1.4c-5.1,1.7-10.2,6.5-10.2,10.4s2.7,5,5,5c2.3,0,3.9-1.6,3.9-2.5s-1-1.3-1.3-1.3   c-0.3,0-1.2,0.6-1.2,1.3c0,0.7,0.4,1,0.4,1s-0.6,0.6-1.4,0.6c-0.9,0-2.4-1.1-2.4-3.6s5.3-8.8,15.3-8.8s15.4,6.5,15.7,6.9   s0.7,1.2-0.4,1.2c-1.1,0-2.2-0.2-3.1-0.2c-0.9,0.1-2.2,0.4-2.601,0.4c-0.5,0-2-0.7-3.3-1.5c-1.3-0.8-2.6-1.5-4.4-1.5   c-1.8,0-4.2,1.2-4.2,2.8c0,1.6,2.1,3.4,3.2,3.4s1.7-0.7,1.7-1.3c0-0.7-1.2-1.2-1.7-1.3c-0.6-0.1-1.9-0.3-1.9-1.1   c0-0.8,1.5-1.3,2.9-1.3s5,2.9,5.6,4.1c0.6,1.2,1.4,1,2.1,1c0.7,0,3.301,0,4.801,0.2C46.4,17.1,52.1,19,52.1,27S43.8,51.8,30.7,51.8   c-6.9,0-8.5-4.7-8.5-6.8s2.4-4.7,5-5.6c2.6-0.9,5.3-2.7,5.5-5.7c0,0,0-0.5,0.6-0.5c0.6,0,5.4,0.3,7.8-1.3c2.4-1.5,1.7-3.1,1.601-3.5   c-0.101-0.4-1.2-0.6-1.2-0.1s0.4,2.2-1,2.9c-1.4,0.7-5.8,0.7-6.6,0.6c-0.8-0.2-1.9-0.9-0.4-1.2c1.5-0.3,5.1-1.9,5.6-2.6   c0.5-0.8,0.4-2.7-0.399-2.7s-0.8,0.8-0.7,1.2c0.1,0.5,0.2,1.1-0.4,1.5c-0.6,0.4-3,1.4-4.899,1.4c-1.9,0-3.9-0.6-4.7-1.4   s-1.4-1.4-1.9-1.4c-0.6,0-1.1,0.3-1.5,0.3c-0.4-0.1-1.1-0.9-1.8-0.7c-0.7,0.2-1,1.2-1.8,1c-0.8-0.2-3.2-1.1-3.5-2   c-0.4-1-0.4-1.9-1.2-1.9c-0.9,0-1.2,1.1-1.2,1.7s1.8,2.3,2.6,2.7c0.9,0.4,2.3,1,2.3,1.3s-1.9,0.9-2.2,1.2c-0.4,0.3-1.2,1-1.5,0.9   c-0.3-0.1-0.4-0.5-0.8-0.5s-0.6,0.5-0.2,1c0.4,0.6,0.5,0.7,1.2,0.5c0.8-0.2,2.2-1.6,5.3-1.6c3.2,0,5.2,1.9,5.2,3.4s-2.1,2.9-6.3,3.7   c-4.2,0.801-5.1,3-5.5,3.601c-0.4,0.6-0.8,1.399-1.4,1.3c-0.6-0.1-2-0.7-2.7-0.7c-0.7,0-2.6,0.2-2.8-0.7C8.1,40.3,8,37.9,7.4,36.9   s-2.3-3-2.3-3.8c0-0.8,1.4-1.2,2-1.3c0.6-0.1,1.2-0.8,1.2-1.3c0-0.6-0.8-1.2-1.3-1.2S5.7,30,5.2,31c-0.6,1-1.7,2.2-1.1,3.1   s2.1,3.1,2.1,4.5c0,1.4-0.4,4.801,0.5,5.2c0.8,0.4,1.6,0,3.4,0.2c1.8,0.2,3.3,1.8,3.3,2.9c0,1.1,0.1,2.8,1.6,3.199   c1.5,0.4,2.2,0.9,2.5,1.5c0.4,0.7,4.4,5.301,6.9,6.101c2.6,0.8,7,1.5,6.8,2.1C31,60.3,30.1,61.4,31.5,61.4c2.9,0,5.7-0.4,8.4-1.2   c0.1,0,0.199,0,0.3,0c5.6-0.5,6.7,2.1,6.6,3c-0.1,1-1.5,4.6-5.2,4.6C37.9,67.8,36.9,66.4,36.9,65.4S38,63.8,38.7,63.8   s1.5,0.101,1.5,0.9s-0.8,1.8-0.8,1.8s1.199-0.9,1.199-1.7s-0.5-1.7-1.899-1.7c-1.4,0-2.4,1.301-2.4,2.2c0,0.9,0.4,3.601,5.2,3.601   s8-3.4,8-6.4S46.7,59.3,46,59s-0.3-1.2,0.5-1.8l0,0c8.9-5.2,14.9-14.9,14.9-25.9c0-2.1-0.2-4.2-0.601-6.1   c0.101-0.4,0.3-0.7,0.601-0.7c0.8-0.2,1.5,0.5,1.8,1.1s0.8,1.7,2.3,1.5c1.6-0.2,1.1-2.5,0.5-3.4c-0.6-0.9-1.6-2.4-1.6-4.2   s0.8-2.8,1.699-2.8c0.9,0,1.301,0.6,1.301,1.1s-1.101,1.5-1.101,2s0.2,1.1,0.601,1.1c0.399,0,1.6-1.5,1.6-3.1   C68.4,16.2,66.7,15.7,66,15.7z"/></svg>