<svg xmlns="http://www.w3.org/2000/svg" width="70" height="70" version="1.1" viewBox="0 0 70 70"><g id="surface1"><path d="M 50.15625 59.902344 L 50.15625 59.902344 M 5.40625 59.636719 C 5.171875 59.648438 4.6875 59.609375 4.546875 59.554688 C 4.546875 59.554688 4.835938 61.359375 7.824219 61.390625 C 9.605469 61.414062 11.207031 60.515625 12.40625 59.074219 C 13.734375 57.476562 16.046875 54.722656 16.28125 54.484375 C 14.917969 55.675781 8.582031 58.894531 5.40625 59.632812 M 23.523438 53.183594 C 23.640625 53.171875 24.621094 53.152344 25.109375 53.15625 C 25.457031 53.160156 26.277344 53.199219 26.269531 53.632812 C 26.269531 53.710938 26.246094 53.792969 26.210938 53.878906 C 26.113281 53.683594 25.835938 53.589844 25.625 53.589844 C 25.394531 53.585938 24.316406 53.839844 23.96875 53.839844 C 23.671875 53.835938 23.617188 53.703125 23.402344 53.703125 C 22.949219 53.699219 22.800781 54.007812 22.800781 54.007812 C 22.65625 53.550781 23.027344 53.21875 23.523438 53.183594 M 27.273438 49.25 C 27.449219 49.292969 29.359375 49.835938 30.449219 50.164062 C 30.007812 50.152344 29.519531 50.171875 29.011719 50.1875 C 28.777344 50.195312 28.539062 50.199219 28.300781 50.207031 C 27.929688 50.175781 27.636719 50.152344 27.589844 50.148438 C 27.109375 50.09375 27.1875 49.875 26.796875 49.835938 C 26.332031 49.785156 26.089844 50.097656 26.089844 50.097656 C 26.09375 49.507812 26.730469 49.105469 27.273438 49.25 Z M 19.5625 48.089844 C 19.34375 48.167969 19.117188 48.246094 18.90625 48.304688 C 18.773438 48.347656 18.671875 48.375 18.617188 48.382812 C 18.679688 48.402344 19.5625 48.8125 20.6875 47.929688 C 20.6875 47.929688 22.703125 48.785156 24.058594 49.011719 C 23.707031 49.855469 20.890625 51.507812 19.109375 52.792969 C 16.230469 54.871094 13.113281 60.761719 10.296875 61.519531 C 10.730469 61.589844 11.214844 61.628906 11.539062 61.632812 C 15.25 61.675781 17.128906 58.941406 17.757812 58.261719 C 16.730469 60.261719 15.691406 61.363281 15.125 61.339844 C 15.777344 61.496094 16.402344 61.554688 16.988281 61.558594 C 19.53125 61.589844 21.304688 60.378906 21.304688 60.378906 L 19.113281 59.492188 C 19.113281 59.492188 21.917969 60.390625 24.21875 60.417969 C 26.628906 60.445312 27.039062 59.648438 27.039062 59.648438 L 24.320312 58.464844 C 24.835938 58.679688 26.300781 59.140625 27.632812 59.15625 C 31.105469 59.199219 32.835938 56.632812 33.078125 55.257812 C 32.871094 55.535156 31.871094 56.753906 30.410156 56.613281 C 30.566406 56.476562 30.597656 56.175781 30.367188 56.007812 C 30.347656 55.992188 30.324219 55.980469 30.300781 55.96875 C 30.085938 55.859375 28.402344 54.542969 27.128906 53.726562 C 27.035156 53.980469 26.996094 54.097656 26.867188 54.464844 C 26.625 55.15625 25.890625 55.433594 25.34375 55.429688 C 24.527344 55.417969 24.027344 54.839844 23.902344 54.652344 C 24.28125 54.941406 24.617188 55.074219 24.871094 55.085938 C 25.070312 54.875 25.222656 54.78125 25.492188 54.726562 C 25.644531 54.691406 25.820312 54.632812 25.964844 54.523438 C 26.011719 54.488281 26.546875 54.078125 26.554688 53.605469 C 26.558594 53.378906 26.414062 53.199219 26.160156 53.101562 C 25.765625 52.949219 25.453125 52.945312 25.011719 52.9375 C 24.324219 52.929688 24.054688 52.902344 23.859375 52.75 C 23.722656 52.636719 23.65625 52.578125 23.445312 52.578125 C 23.132812 52.574219 22.949219 52.769531 22.949219 52.769531 C 22.988281 52.351562 23.3125 52.089844 23.777344 52.09375 C 23.84375 52.09375 23.914062 52.105469 23.988281 52.121094 C 24.210938 52.171875 26.59375 52.652344 27.058594 52.828125 C 27.335938 52.929688 29.984375 54.550781 29.984375 54.550781 C 30.523438 54.285156 30.886719 53.214844 30.894531 52.640625 C 31.101562 52.558594 31.472656 52.625 31.984375 52.933594 C 32.507812 53.25 34.101562 54.367188 34.292969 54.539062 C 33.980469 56.488281 35.550781 60.296875 37.96875 60.324219 C 38.332031 60.328125 38.597656 60.234375 38.648438 60.21875 C 38.425781 60.144531 38.335938 59.976562 38.214844 59.644531 L 37.796875 58.289062 C 37.796875 58.289062 38.332031 58.839844 40.28125 60.503906 C 41.335938 61.40625 42.285156 61.628906 42.929688 61.636719 C 43.664062 61.644531 44.023438 61.421875 44.089844 61.363281 C 43.785156 61.351562 43.433594 61.140625 42.953125 60.671875 L 41.082031 58.78125 C 44.046875 60.871094 46.144531 61.347656 47.429688 61.363281 C 48.515625 61.375 48.992188 61.0625 48.992188 61.0625 C 48.992188 61.0625 42.742188 56.71875 42.742188 56.71875 L 50.15625 59.90625 C 51.019531 57.914062 49.117188 56.640625 48.074219 56.183594 C 47.027344 55.722656 43.101562 54.035156 43.101562 54.035156 L 47.097656 54.699219 C 48.875 54.988281 49.925781 55.441406 49.90625 55.78125 C 50.027344 55.578125 50.066406 55.347656 50.066406 55.191406 C 50.046875 51.832031 43.246094 52.011719 43.246094 52.011719 L 44.824219 51.734375 C 46.660156 51.4375 47.671875 51.511719 47.835938 51.800781 C 47.84375 51.585938 47.804688 51.371094 47.75 51.21875 L 47.753906 51.21875 C 47.234375 49.945312 46.183594 49.515625 42.859375 48.875 L 38.207031 48.039062 C 39.6875 49.214844 40.292969 52.433594 38.589844 53.941406 C 38.574219 53.601562 38.375 53.300781 38.125 53.140625 C 37.84375 53.988281 37.199219 55.03125 35.691406 54.898438 C 35.703125 54.851562 35.824219 54.660156 35.410156 54.367188 C 34.5625 53.761719 31.851562 51.851562 30.871094 51.164062 C 30.816406 51.417969 30.789062 51.507812 30.671875 51.882812 C 30.414062 52.75 29.554688 53.105469 28.925781 53.089844 C 28.171875 53.074219 27.570312 52.578125 27.402344 52.375 C 27.871094 52.65625 28.714844 52.765625 28.792969 52.71875 C 28.832031 52.53125 29.035156 52.375 29.175781 52.28125 C 29.417969 52.125 29.824219 52.03125 29.902344 51.648438 C 29.988281 51.207031 29.523438 51.007812 29.207031 51.046875 C 28.449219 51.160156 27.582031 51.28125 27.394531 51.292969 C 27.144531 51.308594 27.027344 51.261719 26.917969 51.210938 C 26.808594 51.164062 26.714844 51.117188 26.515625 51.128906 C 26.039062 51.160156 25.886719 51.496094 25.886719 51.496094 C 25.71875 50.9375 26.171875 50.539062 26.765625 50.5 C 26.863281 50.492188 29.527344 50.375 30.289062 50.386719 C 30.773438 50.390625 31.1875 50.429688 31.472656 50.535156 C 32.128906 50.859375 33.507812 51.625 33.785156 51.824219 C 34.335938 50.859375 34.1875 49.042969 33.550781 48.671875 C 29.238281 48.003906 24.429688 48.605469 21.503906 47.359375 C 21.105469 47.515625 19.90625 47.972656 19.558594 48.09375 M 16.835938 47.140625 C 16.828125 47.628906 17.539062 47.78125 17.621094 47.773438 L 17.792969 47.183594 C 17.792969 47.183594 18.527344 47.046875 19.085938 46.960938 C 19.640625 46.875 20.019531 47.503906 20.019531 47.503906 C 20.019531 47.503906 21.324219 47.417969 21.730469 46.796875 C 21.683594 46.636719 19.550781 46.722656 19.148438 46.746094 C 18.746094 46.765625 18.429688 46.527344 17.78125 46.097656 C 17.78125 46.097656 16.851562 46.414062 16.835938 47.140625 Z M 38.28125 36.308594 C 34.140625 37.96875 32.269531 38.714844 31.722656 39.65625 C 31.722656 39.65625 30.535156 41.96875 30.074219 42.625 C 29.613281 43.28125 28.757812 43.734375 28.003906 43.707031 C 27.238281 43.625 26.328125 43.546875 25.386719 43.507812 C 23.597656 43.441406 21.460938 43.617188 20.523438 44.019531 C 19.777344 44.335938 18.597656 45.484375 18.597656 45.484375 C 19.339844 45.859375 20.160156 45.519531 20.160156 45.519531 C 20.160156 45.519531 19.773438 45.207031 19.792969 45.101562 C 19.800781 45.042969 19.921875 44.957031 20.113281 44.851562 C 20.21875 45.226562 20.652344 45.492188 21.203125 45.460938 C 21.734375 45.429688 22.210938 45.109375 22.328125 44.703125 C 22.398438 44.457031 22.332031 44.226562 22.175781 44.050781 C 22.792969 44.039062 23.296875 44.328125 23.292969 44.464844 C 23.289062 44.679688 22.417969 45.652344 21.375 45.765625 C 21.5 46.210938 22.765625 46.300781 22.714844 46.574219 C 22.695312 46.691406 22.578125 46.796875 22.417969 46.894531 C 22.21875 47.015625 23.257812 47.277344 23.96875 47.296875 C 26.386719 47.371094 27.035156 46.683594 27.882812 45.804688 C 28.078125 45.597656 28.417969 45.484375 28.730469 45.488281 C 29.375 45.496094 33.65625 47.511719 38.171875 47.5625 C 42.425781 47.613281 45.570312 46.015625 46.246094 44.136719 C 45.695312 44.273438 44.140625 44.691406 42.472656 44.671875 C 38.171875 44.621094 36.445312 43.019531 36.445312 43.019531 C 36.445312 43.019531 38.777344 43.730469 41.558594 43.761719 C 48.480469 43.84375 49.75 39.496094 50.222656 38.066406 C 49.289062 38.535156 46.003906 40.183594 39.652344 40.109375 C 37.675781 40.085938 36.554688 39.859375 35.402344 39.457031 C 37.636719 39.476562 40.148438 39.34375 42.1875 39.023438 C 49.742188 37.828125 54.648438 35.125 55.707031 30.863281 C 50.28125 32.664062 42.566406 34.59375 38.28125 36.308594 Z M 57.851562 22.304688 C 53.050781 24.691406 46.171875 27.726562 41.59375 29.65625 C 34.082031 32.828125 32.355469 36.25 31.710938 38.542969 C 33.425781 36.972656 43.746094 33.363281 51.464844 30.960938 C 60.3125 28.207031 65.121094 25.074219 65.21875 20.152344 C 65.238281 19.109375 65.015625 18.019531 64.527344 16.871094 C 64.378906 18.394531 61.679688 20.398438 57.851562 22.304688 M 64.128906 8.371094 C 64.128906 8.371094 63.964844 9.265625 63.875 9.34375 C 63.789062 9.421875 62.226562 10.941406 59.832031 12.632812 C 57.546875 14.242188 45.699219 21.605469 43.941406 22.910156 C 38.359375 26.933594 35.558594 32.125 35.558594 32.125 C 35.570312 32.121094 36.128906 31.550781 38.835938 30.046875 C 41.558594 28.53125 47.792969 25.8125 54.613281 22.734375 C 59.855469 20.371094 65.316406 16.460938 65.414062 12.09375 C 65.4375 10.882812 65.050781 9.632812 64.128906 8.371094 Z M 64.128906 8.371094" style="stroke:none;fill-rule:nonzero;fill:#9d8c62;fill-opacity:1"/></g></svg>