<svg xmlns="http://www.w3.org/2000/svg" id="Layer_1" width="70" height="70" x="0" y="0" enable-background="new 0 0 70 70" version="1.1" viewBox="0 0 70 70" xml:space="preserve"><metadata/><path fill="#FCCB12" d="M68.9,67.6c0,0.801-0.601,1.4-1.4,1.4h-65c-0.8,0-1.4-0.6-1.4-1.4V2.5c0-0.8,0.6-1.4,1.4-1.4h65.1 C68.4,1.1,69,1.7,69,2.5L68.9,67.6L68.9,67.6z"/><path fill="#1F3867" d="M6.9,31.1l-3-0.4c0.1-0.6,0.3-1.1,0.5-1.4c0.3-0.3,0.6-0.6,1-0.9C5.6,28.2,6,28.1,6.5,28s1-0.1,1.6-0.1 c0.9,0,1.7,0.1,2.3,0.2s1,0.4,1.4,0.7c0.3,0.3,0.5,0.6,0.6,1.1c0.2,0.5,0.2,0.9,0.2,1.4v4.1c0,0.4,0,0.8,0.1,1 c0,0.199,0.2,0.6,0.3,0.899h-2.9C10,37.1,9.9,36.9,9.9,36.8c0-0.1-0.1-0.3-0.1-0.6C9.4,36.6,9,37,8.6,37.2C8,37.5,7.4,37.6,6.7,37.6 c-1,0-1.7-0.3-2.2-0.8s-0.8-1.1-0.8-1.9c0-0.7,0.2-1.3,0.5-1.7c0.4-0.5,1-0.8,2-1c1.2-0.3,1.9-0.5,2.3-0.6c0.3-0.1,0.7-0.2,1.1-0.4 c0-0.4-0.1-0.7-0.2-0.9C9.3,30,9,30,8.6,30c-0.5,0-0.9,0.1-1.2,0.3C7.2,30.4,7.1,30.7,6.9,31.1z M9.7,32.9c-0.4,0.2-0.9,0.3-1.3,0.5 c-0.6,0.2-1,0.4-1.2,0.6c-0.2,0.2-0.3,0.4-0.3,0.7c0,0.3,0.1,0.5,0.3,0.7c0.2,0.2,0.4,0.3,0.8,0.3c0.3,0,0.7-0.101,1-0.3 s0.5-0.4,0.6-0.7c0.1-0.3,0.2-0.6,0.2-1.1C9.7,33.5,9.7,32.9,9.7,32.9z"/><path fill="#1F3867" d="M23.2,37.3h-2.9v-1.5C19.9,36.4,19.4,36.9,19,37.1c-0.4,0.301-1,0.4-1.6,0.4c-0.9,0-1.5-0.3-2-0.9 c-0.5-0.6-0.7-1.5-0.7-2.7V28h3.1v5.1c0,0.6,0.1,1,0.3,1.2c0.2,0.2,0.5,0.4,0.8,0.4c0.4,0,0.7-0.2,0.9-0.5c0.2-0.3,0.4-0.9,0.4-1.8 v-4.5h3.1L23.2,37.3L23.2,37.3z"/><path fill="#1F3867" d="M25.1,28.1H28v1.5c0.3-0.7,0.6-1.1,0.9-1.4c0.3-0.2,0.7-0.4,1.1-0.4c0.5,0,1,0.2,1.5,0.5l-1,2.5 c-0.4-0.2-0.7-0.3-0.9-0.3c-0.4,0-0.7,0.2-1,0.6c-0.3,0.5-0.5,1.6-0.5,3v3.1H25v-9.1H25.1z"/><path fill="#1F3867" d="M32.2,24.5h3.1v2.4h-3.1V24.5z M32.2,28.1h3.1v9.3h-3.1V28.1z"/><path fill="#1F3867" d="M43,28.1h2.9v8.7v0.4c0,0.6-0.101,1.1-0.301,1.7c-0.199,0.5-0.5,1-0.899,1.3c-0.4,0.3-0.8,0.6-1.4,0.7 C42.7,41,42.1,41.1,41.4,41.1c-1.601,0-2.801-0.3-3.4-0.8c-0.6-0.6-0.9-1.3-0.9-2.2c0-0.1,0-0.3,0-0.5l3,0.4 c0.101,0.3,0.2,0.5,0.4,0.7S41,39,41.4,39c0.5,0,0.8-0.1,1-0.4c0.199-0.3,0.3-0.699,0.3-1.399v-1.4c-0.3,0.4-0.601,0.7-0.9,0.9 c-0.5,0.3-1,0.399-1.6,0.399c-1.101,0-2-0.5-2.601-1.6c-0.5-0.8-0.699-1.8-0.699-3c0-1.4,0.3-2.5,0.899-3.3 c0.601-0.8,1.4-1.1,2.4-1.1c0.6,0,1.2,0.1,1.6,0.4c0.4,0.2,0.8,0.6,1.2,1.2V28.1L43,28.1z M40,32.5c0,0.7,0.1,1.2,0.4,1.5 c0.3,0.3,0.6,0.5,1,0.5c0.399,0,0.699-0.2,1-0.5c0.3-0.3,0.399-0.8,0.399-1.5S42.7,31.3,42.4,31c-0.301-0.4-0.601-0.5-1-0.5 c-0.4,0-0.7,0.2-1,0.5C40.1,31.2,40,31.8,40,32.5z"/><path fill="#1F3867" d="M47.8,28.1h2.9v1.5C51.1,29,51.6,28.5,52,28.3c0.4-0.3,1-0.4,1.6-0.4c0.9,0,1.5,0.3,2,0.9 c0.5,0.6,0.7,1.5,0.7,2.7v5.9h-3.1V32.3c0-0.6-0.101-1-0.3-1.2c-0.2-0.2-0.5-0.4-0.801-0.4c-0.399,0-0.699,0.2-0.899,0.5 c-0.2,0.3-0.4,0.9-0.4,1.8v4.4h-3.1v-9.3H47.8z"/><path fill="#1F3867" d="M57.4,28.1h3.3l1.7,6.2l1.6-6.2h3L63.8,38c-0.399,1.1-0.7,1.9-1.1,2.3c-0.5,0.601-1.4,0.8-2.5,0.8 C59.7,41.1,59.1,41,58.1,40.9L57.9,38.4c0.399,0.199,1,0.199,1.5,0.199c0.399,0,0.699-0.1,0.899-0.3s0.4-0.5,0.601-1L57.4,28.1z"/></svg>