<svg xmlns="http://www.w3.org/2000/svg" version="1.1" id="Layer_1" x="0px" y="0px" width="150" height="151" viewBox="0 0 150.2 151" xml:space="preserve" style="enable-background:new 0 0 150.2 151;"><style type="text/css">
	.st0{fill-rule:evenodd;clip-rule:evenodd;fill:#ED1C24;}
	.st1{fill-rule:evenodd;clip-rule:evenodd;fill:#FFE600;}
	.st2{fill:#ED1C24;}
</style><g><g><path d="M141.4,76.7c0,36.8-29.8,66.7-66.7,66.7c-36.8,0-66.7-29.8-66.7-66.7C8.1,39.8,38,10,74.8,10    C111.6,10,141.4,39.8,141.4,76.7" class="st0"/><path d="M118.8,36.5c-10.7-6.9-23-9.2-33.8-7.7c-10.5,1.5-22.2,10.6-22.2,23c0,7.4-6.2,12.7-13.5,12.7    c-10,0-15.3-7.9-24.6-7.9c-7.2,0-11.7,3.5-14.2,5.7c-0.5,0.5-0.8,0.9-0.8,1.4c0,0.5,0.4,1.1,1,1.3c4.4,1.5,9.9,3.9,16.5,8.5    c8.5,6,14.5,12.2,19.5,19.3c20.6,29,53.2,27.6,64.4,23c11.6-4.7,20.6-13.9,24.8-24.1c0.3-0.7-0.7-1.3-1.2-0.5    c-1.3,2-7.8,10.7-19.9,10.7c-13.4,0-24.1-10.9-24.1-24c0-11.1,8.4-23.9,24.7-23.9c13.7,0,25.6,11.8,25.8,25.1    C141.4,58,129.3,43.3,118.8,36.5" class="st1"/></g></g></svg>