<svg xmlns="http://www.w3.org/2000/svg" width="70" height="70" version="1.1" viewBox="0 0 70 70"><g id="surface1"><path d="M 8.375 27.257812 C 4.710938 27.257812 1.742188 30.230469 1.742188 33.894531 C 1.742188 37.554688 4.710938 40.527344 8.375 40.527344 C 12.039062 40.527344 15.007812 37.554688 15.007812 33.894531 C 15.007812 30.230469 12.039062 27.257812 8.375 27.257812 Z M 12.242188 31.390625 L 7.710938 33.9375 L 8.671875 34.496094 L 12.203125 32.472656 L 12.203125 34.757812 L 9.894531 36.039062 L 12.203125 36.460938 L 12.203125 38.828125 L 2.152344 33.191406 L 3.558594 32.390625 L 5.542969 32.75 L 12.242188 28.960938 Z M 12.242188 31.390625" style="stroke:none;fill-rule:nonzero;fill:#005a8c;fill-opacity:1"/><path d="M 19.5625 30.074219 L 21.953125 30.074219 L 21.953125 32.78125 L 24.566406 32.78125 L 24.566406 30.074219 L 26.96875 30.074219 L 26.96875 37.816406 L 24.566406 37.816406 L 24.566406 34.683594 L 21.953125 34.683594 L 21.953125 37.816406 L 19.5625 37.816406 Z M 19.5625 30.074219" style="stroke:none;fill-rule:nonzero;fill:#005a8c;fill-opacity:1"/><path d="M 30.125 34.023438 L 28.070312 33.804688 C 28.148438 33.445312 28.261719 33.164062 28.40625 32.960938 C 28.554688 32.753906 28.761719 32.574219 29.035156 32.421875 C 29.234375 32.3125 29.503906 32.226562 29.851562 32.167969 C 30.195312 32.109375 30.566406 32.078125 30.96875 32.078125 C 31.613281 32.078125 32.132812 32.113281 32.519531 32.1875 C 32.914062 32.257812 33.238281 32.410156 33.496094 32.640625 C 33.683594 32.796875 33.824219 33.019531 33.933594 33.3125 C 34.039062 33.601562 34.089844 33.878906 34.089844 34.144531 L 34.089844 36.621094 C 34.089844 36.882812 34.109375 37.089844 34.140625 37.238281 C 34.175781 37.390625 34.246094 37.582031 34.359375 37.8125 L 32.34375 37.8125 C 32.261719 37.667969 32.210938 37.558594 32.183594 37.484375 C 32.160156 37.40625 32.136719 37.289062 32.109375 37.125 C 31.828125 37.398438 31.546875 37.589844 31.269531 37.707031 C 30.890625 37.863281 30.449219 37.941406 29.945312 37.941406 C 29.277344 37.941406 28.769531 37.785156 28.421875 37.476562 C 28.074219 37.167969 27.898438 36.785156 27.898438 36.332031 C 27.898438 35.90625 28.023438 35.554688 28.273438 35.28125 C 28.523438 35.003906 28.984375 34.800781 29.65625 34.667969 C 30.464844 34.503906 30.988281 34.390625 31.226562 34.328125 C 31.464844 34.261719 31.71875 34.175781 31.984375 34.070312 C 31.984375 33.804688 31.933594 33.621094 31.824219 33.515625 C 31.710938 33.410156 31.523438 33.359375 31.246094 33.359375 C 30.894531 33.359375 30.632812 33.414062 30.457031 33.527344 C 30.316406 33.617188 30.207031 33.78125 30.121094 34.023438 Z M 31.988281 35.152344 C 31.691406 35.257812 31.382812 35.351562 31.0625 35.433594 C 30.628906 35.550781 30.351562 35.664062 30.234375 35.773438 C 30.113281 35.890625 30.054688 36.023438 30.054688 36.171875 C 30.054688 36.34375 30.113281 36.480469 30.230469 36.585938 C 30.347656 36.695312 30.523438 36.746094 30.75 36.746094 C 30.980469 36.746094 31.214844 36.6875 31.421875 36.574219 C 31.625 36.457031 31.773438 36.316406 31.859375 36.148438 C 31.945312 35.984375 31.984375 35.761719 31.984375 35.5 L 31.984375 35.152344 Z M 31.988281 35.152344" style="stroke:none;fill-rule:nonzero;fill:#005a8c;fill-opacity:1"/><path d="M 35.378906 30.074219 L 37.527344 30.074219 L 37.527344 32.925781 C 37.820312 32.621094 38.109375 32.40625 38.398438 32.277344 C 38.6875 32.144531 39.03125 32.082031 39.425781 32.082031 C 40.007812 32.082031 40.46875 32.257812 40.804688 32.613281 C 41.140625 32.96875 41.308594 33.515625 41.308594 34.25 L 41.308594 37.816406 L 39.148438 37.816406 L 39.148438 34.730469 C 39.148438 34.378906 39.085938 34.128906 38.953125 33.984375 C 38.824219 33.835938 38.640625 33.765625 38.40625 33.765625 C 38.144531 33.765625 37.933594 33.863281 37.773438 34.0625 C 37.609375 34.257812 37.527344 34.613281 37.527344 35.121094 L 37.527344 37.816406 L 35.378906 37.816406 Z M 35.378906 30.074219" style="stroke:none;fill-rule:nonzero;fill:#005a8c;fill-opacity:1"/><path d="M 42.589844 32.207031 L 44.59375 32.207031 L 44.59375 33.121094 C 44.894531 32.746094 45.195312 32.480469 45.5 32.320312 C 45.808594 32.160156 46.179688 32.082031 46.621094 32.082031 C 47.214844 32.082031 47.679688 32.257812 48.015625 32.613281 C 48.351562 32.964844 48.519531 33.511719 48.519531 34.25 L 48.519531 37.816406 L 46.359375 37.816406 L 46.359375 34.730469 C 46.359375 34.378906 46.292969 34.128906 46.164062 33.984375 C 46.03125 33.835938 45.851562 33.765625 45.613281 33.765625 C 45.355469 33.765625 45.140625 33.863281 44.980469 34.0625 C 44.820312 34.257812 44.738281 34.613281 44.738281 35.121094 L 44.738281 37.816406 L 42.589844 37.816406 Z M 42.589844 32.207031" style="stroke:none;fill-rule:nonzero;fill:#005a8c;fill-opacity:1"/><path d="M 56.929688 36.539062 L 54.207031 36.539062 L 53.828125 37.816406 L 51.386719 37.816406 L 54.296875 30.074219 L 56.902344 30.074219 L 59.8125 37.816406 L 57.308594 37.816406 Z M 56.429688 34.863281 L 55.574219 32.082031 L 54.722656 34.863281 Z M 56.429688 34.863281" style="stroke:none;fill-rule:nonzero;fill:#005a8c;fill-opacity:1"/><path d="M 60.515625 30.074219 L 62.664062 30.074219 L 62.664062 31.539062 L 60.515625 31.539062 Z M 60.515625 32.207031 L 62.664062 32.207031 L 62.664062 37.816406 L 60.515625 37.816406 Z M 60.515625 32.207031" style="stroke:none;fill-rule:nonzero;fill:#005a8c;fill-opacity:1"/><path d="M 63.953125 32.207031 L 65.964844 32.207031 L 65.964844 33.125 C 66.160156 32.726562 66.359375 32.453125 66.566406 32.304688 C 66.769531 32.15625 67.023438 32.082031 67.328125 32.082031 C 67.628906 32.082031 67.988281 32.179688 68.367188 32.375 L 67.699219 33.910156 C 67.449219 33.800781 67.246094 33.75 67.097656 33.75 C 66.816406 33.75 66.601562 33.867188 66.445312 34.097656 C 66.222656 34.425781 66.109375 35.039062 66.109375 35.9375 L 66.109375 37.816406 L 63.953125 37.816406 Z M 63.953125 32.207031" style="stroke:none;fill-rule:nonzero;fill:#005a8c;fill-opacity:1"/></g></svg>