<svg xmlns="http://www.w3.org/2000/svg" version="1.1" width="70px" height="70px" viewBox="0 0 70 70"><defs><clipPath id="clip1"><path d="M 1.09375 1.09375 L 68.90625 1.09375 L 68.90625 68.90625 L 1.09375 68.90625 Z M 1.09375 1.09375 "/></clipPath></defs><g id="surface1"><g clip-path="url(#clip1)" clip-rule="nonzero"><path d="M 63.875 32.8125 L 18.8125 58.625 L 18.8125 46.8125 C 18.8125 46.15625 19.25 45.5 19.6875 45.28125 L 27.125 41.78125 L 19.6875 38.0625 C 19.25 37.84375 18.59375 37.1875 18.59375 36.53125 L 18.59375 26.46875 L 36.75 37.1875 L 41.125 35.21875 L 19.6875 22.96875 C 19.25 22.75 18.8125 22.09375 18.8125 21.4375 L 18.8125 11.375 L 51.625 31.0625 L 55.5625 29.3125 C 56.4375 28.875 57.53125 28.875 58.40625 29.53125 Z M 68.90625 35 C 68.90625 16.1875 53.8125 1.09375 35 1.09375 C 16.1875 1.09375 1.09375 16.1875 1.09375 35 C 1.09375 53.8125 16.1875 68.90625 35 68.90625 C 53.8125 68.90625 68.90625 53.8125 68.90625 35 " style=" stroke:none;fill-rule:nonzero;fill:rgb(3.137255%,1.960784%,94.901961%);fill-opacity:1;"/></g></g></svg>