<svg xmlns="http://www.w3.org/2000/svg" version="1.1" width="70px" height="70px" viewBox="0 0 70 70"><g id="surface1"><path d="M 48.75 70.148438 C 32.5 70.148438 16.277344 70.148438 0.046875 70.148438 C 0.046875 46.824219 0.046875 23.5 0.046875 0.164062 C 23.378906 0.164062 46.710938 0.164062 70.042969 0.164062 C 70.042969 23.492188 70.042969 46.820312 70.042969 70.148438 C 62.953125 70.148438 55.863281 70.148438 48.75 70.148438 M 14.636719 47.679688 C 14.824219 46.980469 15.023438 46.3125 15.191406 45.570312 C 15.816406 42.808594 16.15625 39.6875 16.230469 36.285156 C 16.28125 33.726562 16.15625 31.214844 15.867188 28.8125 C 15.414062 25.011719 14.640625 22.074219 13.566406 20.007812 C 12.386719 17.75 11.117188 17.132812 9.78125 17.945312 C 8.496094 18.71875 7.449219 20.792969 6.617188 24.066406 C 5.9375 26.742188 5.542969 29.828125 5.4375 33.230469 C 5.359375 35.820312 5.410156 38.433594 5.699219 40.933594 C 6.011719 43.683594 6.449219 46.167969 7.148438 48.070312 C 7.496094 49.011719 7.847656 50 8.242188 50.675781 C 9.34375 52.5625 10.515625 53.230469 11.757812 52.511719 C 12.863281 51.871094 13.808594 50.257812 14.636719 47.679688 M 34.292969 37.59375 C 34.292969 34.417969 34.292969 31.242188 34.292969 28.074219 C 33.824219 28.074219 33.378906 28.074219 32.925781 28.074219 C 32.925781 28.753906 32.925781 29.386719 32.925781 30.039062 C 31.066406 26.035156 29.148438 27.96875 28.132812 32.597656 C 27.195312 36.875 27.261719 42.84375 28.398438 47.027344 C 28.941406 49.03125 29.644531 50.25 30.457031 50.539062 C 31.34375 50.855469 32.1875 50.273438 32.933594 48.3125 C 32.933594 48.988281 32.933594 49.542969 32.933594 50.082031 C 33.394531 50.082031 33.839844 50.082031 34.292969 50.082031 C 34.292969 45.9375 34.292969 41.839844 34.292969 37.59375 M 52.925781 28.777344 C 51.101562 31.375 50.371094 38.363281 51.179688 44.117188 C 51.988281 49.917969 54.253906 52.9375 56.273438 48.472656 C 56.273438 49.046875 56.273438 49.570312 56.273438 50.082031 C 56.742188 50.082031 57.1875 50.082031 57.628906 50.082031 C 57.628906 42.714844 57.628906 35.390625 57.628906 28.074219 C 57.171875 28.074219 56.726562 28.074219 56.273438 28.074219 C 56.273438 28.753906 56.273438 29.386719 56.273438 30.109375 C 55.777344 28.917969 55.25 28.238281 54.65625 27.988281 C 54.066406 27.742188 53.503906 27.992188 52.925781 28.777344 M 35.386719 24.988281 C 35.386719 33.355469 35.386719 41.722656 35.386719 50.078125 C 35.859375 50.078125 36.304688 50.078125 36.753906 50.078125 C 36.753906 46.476562 36.753906 42.921875 36.757812 39.363281 C 36.757812 38.933594 36.78125 38.496094 36.800781 38.066406 C 37.011719 33.691406 38.503906 30.96875 39.742188 33.269531 C 40.40625 34.492188 40.804688 36.363281 40.8125 38.921875 C 40.820312 42.382812 40.8125 45.839844 40.8125 49.300781 C 40.8125 49.5625 40.8125 49.824219 40.8125 50.082031 C 41.285156 50.082031 41.726562 50.082031 42.183594 50.082031 C 42.183594 46.035156 42.183594 42.035156 42.179688 38.035156 C 42.179688 37.609375 42.140625 37.179688 42.109375 36.757812 C 41.875 33.539062 41.34375 30.992188 40.457031 29.324219 C 39.726562 27.953125 38.941406 27.566406 38.113281 28.117188 C 37.625 28.445312 37.191406 29.195312 36.75 30.082031 C 36.75 26.75 36.75 23.484375 36.75 20.210938 C 36.285156 20.210938 35.84375 20.210938 35.386719 20.210938 C 35.386719 21.785156 35.386719 23.3125 35.386719 24.988281 M 26.554688 50.128906 C 26.707031 50.222656 26.726562 49.976562 26.726562 49.550781 C 26.722656 45.769531 26.726562 41.988281 26.71875 38.210938 C 26.71875 37.753906 26.695312 37.292969 26.664062 36.847656 C 26.480469 34.296875 26.105469 32.136719 25.480469 30.421875 C 24.929688 28.90625 24.289062 28.101562 23.585938 27.898438 C 22.976562 27.726562 22.386719 28.140625 21.839844 29.074219 C 21.660156 29.382812 21.488281 29.730469 21.285156 30.113281 C 21.285156 26.746094 21.285156 23.472656 21.285156 20.21875 C 20.824219 20.21875 20.378906 20.21875 19.941406 20.21875 C 19.941406 30.210938 19.941406 40.152344 19.941406 50.078125 C 20.402344 50.078125 20.84375 50.078125 21.296875 50.078125 C 21.296875 46.519531 21.292969 43.015625 21.296875 39.507812 C 21.300781 37.183594 21.5625 35.269531 22.140625 33.800781 C 23.035156 31.507812 24.328125 32.25 24.992188 35.300781 C 25.28125 36.636719 25.390625 38.144531 25.398438 39.722656 C 25.410156 42.933594 25.402344 46.148438 25.402344 49.359375 C 25.402344 49.597656 25.402344 49.835938 25.402344 50.128906 C 25.785156 50.128906 26.148438 50.128906 26.554688 50.128906 M 43.324219 30.921875 C 43.324219 37.3125 43.324219 43.703125 43.324219 50.078125 C 43.777344 50.078125 44.207031 50.078125 44.632812 50.078125 C 44.640625 49.984375 44.644531 49.9375 44.644531 49.890625 C 44.644531 46.503906 44.640625 43.117188 44.648438 39.734375 C 44.648438 39.085938 44.683594 38.429688 44.722656 37.789062 C 44.820312 36.234375 45.070312 34.980469 45.445312 33.945312 C 45.90625 32.65625 46.453125 32.1875 47.027344 32.527344 C 48.113281 33.175781 48.746094 36.105469 48.75 39.496094 C 48.75 42.78125 48.75 46.070312 48.75 49.355469 C 48.75 49.59375 48.75 49.835938 48.75 50.089844 C 49.214844 50.089844 49.660156 50.089844 50.070312 50.089844 C 50.070312 46.210938 50.070312 42.371094 50.074219 38.535156 C 50.074219 36.773438 49.914062 35.160156 49.65625 33.648438 C 49.0625 30.15625 48.128906 28.273438 46.917969 27.902344 C 46.296875 27.710938 45.695312 28.179688 45.136719 29.167969 C 44.976562 29.453125 44.820312 29.757812 44.632812 30.105469 C 44.632812 29.339844 44.632812 28.707031 44.632812 28.074219 C 44.191406 28.074219 43.761719 28.074219 43.324219 28.074219 C 43.324219 29 43.324219 29.886719 43.324219 30.921875 M 62.429688 30.621094 C 61.578125 33.113281 61.214844 36.246094 61.238281 39.949219 C 61.261719 43.058594 61.246094 46.171875 61.246094 49.285156 C 61.246094 49.546875 61.246094 49.8125 61.246094 50.089844 C 61.710938 50.089844 62.152344 50.089844 62.613281 50.089844 C 62.613281 49.808594 62.613281 49.566406 62.613281 49.324219 C 62.613281 45.84375 62.609375 42.359375 62.613281 38.878906 C 62.617188 37.265625 62.816406 35.890625 63.136719 34.707031 C 63.550781 33.199219 64.070312 32.445312 64.699219 32.457031 C 64.699219 30.929688 64.699219 29.433594 64.699219 27.875 C 63.851562 27.949219 63.097656 28.753906 62.429688 30.621094 M 58.78125 30.921875 C 58.78125 37.308594 58.78125 43.695312 58.78125 50.082031 C 59.234375 50.082031 59.664062 50.082031 60.089844 50.082031 C 60.089844 42.71875 60.089844 35.394531 60.089844 28.074219 C 59.648438 28.074219 59.222656 28.074219 58.78125 28.074219 C 58.78125 29.003906 58.78125 29.886719 58.78125 30.921875 M 59.101562 25.058594 C 59.128906 25.082031 59.160156 25.097656 59.1875 25.121094 C 59.695312 25.566406 60.128906 24.808594 60.242188 23.066406 C 60.253906 22.878906 60.296875 22.644531 60.277344 22.519531 C 60.183594 21.953125 60.097656 21.328125 59.957031 20.890625 C 59.808594 20.410156 59.660156 19.769531 59.398438 19.875 C 59.054688 20.011719 58.695312 20.949219 58.644531 21.84375 C 58.5625 23.261719 58.703125 24.324219 59.101562 25.058594 Z M 59.101562 25.058594 " style=" stroke:none;fill-rule:nonzero;fill:rgb(100%,100%,100%);fill-opacity:1;"/><path d="M 14.625 47.71875 C 13.808594 50.257812 12.863281 51.871094 11.757812 52.511719 C 10.515625 53.230469 9.34375 52.5625 8.242188 50.675781 C 7.847656 50 7.496094 49.011719 7.148438 48.070312 C 6.449219 46.167969 6.011719 43.683594 5.699219 40.933594 C 5.410156 38.433594 5.359375 35.820312 5.4375 33.230469 C 5.542969 29.828125 5.9375 26.742188 6.617188 24.066406 C 7.449219 20.792969 8.496094 18.71875 9.78125 17.945312 C 11.117188 17.132812 12.386719 17.75 13.566406 20.007812 C 14.640625 22.074219 15.414062 25.011719 15.867188 28.8125 C 16.15625 31.214844 16.28125 33.726562 16.230469 36.285156 C 16.15625 39.6875 15.816406 42.808594 15.191406 45.570312 C 15.023438 46.3125 14.824219 46.980469 14.625 47.71875 M 8.253906 27.617188 C 8.242188 28.15625 8.273438 28.621094 8.4375 28.921875 C 9.195312 30.347656 9.953125 31.78125 10.710938 33.21875 C 11.097656 33.949219 11.480469 34.691406 11.902344 35.503906 C 11.632812 35.894531 11.402344 36.234375 11.167969 36.5625 C 11.140625 36.597656 11.097656 36.566406 11.070312 36.515625 C 10.402344 35.246094 9.738281 33.960938 9.070312 32.691406 C 8.8125 32.199219 8.546875 31.730469 8.253906 31.1875 C 8.253906 32.804688 8.257812 34.28125 8.253906 35.753906 C 8.25 36.332031 8.3125 36.6875 8.480469 36.9375 C 8.863281 37.519531 9.234375 38.15625 9.628906 38.796875 C 9.582031 38.898438 9.558594 38.960938 9.53125 39 C 9.179688 39.53125 8.820312 40.03125 8.472656 40.609375 C 8.382812 40.761719 8.265625 41.140625 8.265625 41.429688 C 8.246094 43.324219 8.253906 45.222656 8.253906 47.292969 C 10.628906 42.832031 12.972656 38.433594 15.332031 34.003906 C 15.160156 33.667969 15 33.398438 14.859375 33.0625 C 14.511719 32.230469 14.164062 31.84375 13.765625 32.761719 C 13.570312 33.210938 13.375 33.222656 13.152344 32.679688 C 12.847656 31.9375 12.496094 31.394531 12.167969 30.75 C 11.246094 28.945312 10.324219 27.132812 9.40625 25.320312 C 9.03125 24.585938 8.652344 23.851562 8.253906 23.070312 C 8.253906 24.617188 8.253906 26.046875 8.253906 27.617188 Z M 8.253906 27.617188 " style=" stroke:none;fill-rule:nonzero;fill:rgb(3.137255%,1.960784%,94.901961%);fill-opacity:1;"/><path d="M 34.292969 37.667969 C 34.292969 41.839844 34.292969 45.9375 34.292969 50.082031 C 33.839844 50.082031 33.394531 50.082031 32.933594 50.082031 C 32.933594 49.542969 32.933594 48.988281 32.933594 48.3125 C 32.1875 50.273438 31.34375 50.855469 30.457031 50.539062 C 29.644531 50.25 28.941406 49.03125 28.398438 47.027344 C 27.261719 42.84375 27.195312 36.875 28.132812 32.597656 C 29.148438 27.96875 31.066406 26.035156 32.925781 30.039062 C 32.925781 29.386719 32.925781 28.753906 32.925781 28.074219 C 33.378906 28.074219 33.824219 28.074219 34.292969 28.074219 C 34.292969 31.242188 34.292969 34.417969 34.292969 37.667969 M 32.511719 43.347656 C 33.296875 39.769531 32.886719 35.503906 32.007812 33.589844 C 30.9375 31.253906 29.695312 32.527344 29.113281 35.921875 C 28.585938 38.984375 28.816406 42.636719 29.730469 44.820312 C 30.148438 45.828125 30.621094 46.265625 31.167969 46.007812 C 31.734375 45.742188 32.132812 44.738281 32.511719 43.347656 Z M 32.511719 43.347656 " style=" stroke:none;fill-rule:nonzero;fill:rgb(3.137255%,1.960784%,94.901961%);fill-opacity:1;"/><path d="M 52.945312 28.769531 C 53.503906 27.992188 54.066406 27.742188 54.65625 27.988281 C 55.25 28.238281 55.777344 28.917969 56.273438 30.109375 C 56.273438 29.386719 56.273438 28.753906 56.273438 28.074219 C 56.726562 28.074219 57.171875 28.074219 57.628906 28.074219 C 57.628906 35.390625 57.628906 42.714844 57.628906 50.082031 C 57.1875 50.082031 56.742188 50.082031 56.273438 50.082031 C 56.273438 49.570312 56.273438 49.046875 56.273438 48.472656 C 54.253906 52.9375 51.988281 49.917969 51.179688 44.117188 C 50.371094 38.363281 51.101562 31.375 52.945312 28.769531 M 55.203125 45.242188 C 55.695312 44.402344 56.023438 43.082031 56.175781 41.390625 C 56.421875 38.675781 56.257812 36.257812 55.609375 34.230469 C 54.863281 31.90625 53.664062 31.796875 52.894531 34.210938 C 52.324219 36.003906 52.105469 38.199219 52.261719 40.746094 C 52.371094 42.492188 52.675781 43.902344 53.109375 44.878906 C 53.753906 46.332031 54.460938 46.554688 55.203125 45.242188 Z M 55.203125 45.242188 " style=" stroke:none;fill-rule:nonzero;fill:rgb(3.137255%,1.960784%,94.901961%);fill-opacity:1;"/><path d="M 35.386719 24.914062 C 35.386719 23.3125 35.386719 21.785156 35.386719 20.210938 C 35.84375 20.210938 36.285156 20.210938 36.75 20.210938 C 36.75 23.484375 36.75 26.75 36.75 30.082031 C 37.191406 29.195312 37.625 28.445312 38.113281 28.117188 C 38.941406 27.566406 39.726562 27.953125 40.457031 29.324219 C 41.34375 30.992188 41.875 33.539062 42.109375 36.757812 C 42.140625 37.179688 42.179688 37.609375 42.179688 38.035156 C 42.183594 42.035156 42.183594 46.035156 42.183594 50.082031 C 41.726562 50.082031 41.285156 50.082031 40.8125 50.082031 C 40.8125 49.824219 40.8125 49.5625 40.8125 49.300781 C 40.8125 45.839844 40.820312 42.382812 40.8125 38.921875 C 40.804688 36.363281 40.40625 34.492188 39.742188 33.269531 C 38.503906 30.96875 37.011719 33.691406 36.800781 38.066406 C 36.78125 38.496094 36.757812 38.933594 36.757812 39.363281 C 36.753906 42.921875 36.753906 46.476562 36.753906 50.078125 C 36.304688 50.078125 35.859375 50.078125 35.386719 50.078125 C 35.386719 41.722656 35.386719 33.355469 35.386719 24.914062 Z M 35.386719 24.914062 " style=" stroke:none;fill-rule:nonzero;fill:rgb(3.137255%,1.960784%,94.901961%);fill-opacity:1;"/><path d="M 26.535156 50.128906 C 26.148438 50.128906 25.785156 50.128906 25.402344 50.128906 C 25.402344 49.835938 25.402344 49.597656 25.402344 49.359375 C 25.402344 46.148438 25.410156 42.933594 25.398438 39.722656 C 25.390625 38.144531 25.28125 36.636719 24.992188 35.300781 C 24.328125 32.25 23.035156 31.507812 22.140625 33.800781 C 21.5625 35.269531 21.300781 37.183594 21.296875 39.507812 C 21.292969 43.015625 21.296875 46.519531 21.296875 50.078125 C 20.84375 50.078125 20.402344 50.078125 19.941406 50.078125 C 19.941406 40.152344 19.941406 30.210938 19.941406 20.21875 C 20.378906 20.21875 20.824219 20.21875 21.285156 20.21875 C 21.285156 23.472656 21.285156 26.746094 21.285156 30.113281 C 21.488281 29.730469 21.660156 29.382812 21.839844 29.074219 C 22.386719 28.140625 22.976562 27.726562 23.585938 27.898438 C 24.289062 28.101562 24.929688 28.90625 25.480469 30.421875 C 26.105469 32.136719 26.480469 34.296875 26.664062 36.847656 C 26.695312 37.292969 26.71875 37.753906 26.71875 38.210938 C 26.726562 41.988281 26.722656 45.769531 26.726562 49.550781 C 26.726562 49.976562 26.707031 50.222656 26.535156 50.128906 Z M 26.535156 50.128906 " style=" stroke:none;fill-rule:nonzero;fill:rgb(3.137255%,1.960784%,94.901961%);fill-opacity:1;"/><path d="M 43.324219 30.847656 C 43.324219 29.886719 43.324219 29 43.324219 28.074219 C 43.761719 28.074219 44.191406 28.074219 44.632812 28.074219 C 44.632812 28.707031 44.632812 29.339844 44.632812 30.105469 C 44.820312 29.757812 44.976562 29.453125 45.136719 29.167969 C 45.695312 28.179688 46.296875 27.710938 46.917969 27.902344 C 48.128906 28.273438 49.0625 30.15625 49.65625 33.648438 C 49.914062 35.160156 50.074219 36.773438 50.074219 38.535156 C 50.070312 42.371094 50.070312 46.210938 50.070312 50.089844 C 49.660156 50.089844 49.214844 50.089844 48.75 50.089844 C 48.75 49.835938 48.75 49.59375 48.75 49.355469 C 48.75 46.070312 48.75 42.78125 48.75 39.496094 C 48.746094 36.105469 48.113281 33.175781 47.027344 32.527344 C 46.453125 32.1875 45.90625 32.65625 45.445312 33.945312 C 45.070312 34.980469 44.820312 36.234375 44.722656 37.789062 C 44.683594 38.429688 44.648438 39.085938 44.648438 39.734375 C 44.640625 43.117188 44.644531 46.503906 44.644531 49.890625 C 44.644531 49.9375 44.640625 49.984375 44.632812 50.078125 C 44.207031 50.078125 43.777344 50.078125 43.324219 50.078125 C 43.324219 43.703125 43.324219 37.3125 43.324219 30.847656 Z M 43.324219 30.847656 " style=" stroke:none;fill-rule:nonzero;fill:rgb(3.137255%,1.960784%,94.901961%);fill-opacity:1;"/><path d="M 62.441406 30.582031 C 63.097656 28.753906 63.851562 27.949219 64.699219 27.875 C 64.699219 29.433594 64.699219 30.929688 64.699219 32.457031 C 64.070312 32.445312 63.550781 33.199219 63.136719 34.707031 C 62.816406 35.890625 62.617188 37.265625 62.613281 38.878906 C 62.609375 42.359375 62.613281 45.84375 62.613281 49.324219 C 62.613281 49.566406 62.613281 49.808594 62.613281 50.089844 C 62.152344 50.089844 61.710938 50.089844 61.246094 50.089844 C 61.246094 49.8125 61.246094 49.546875 61.246094 49.285156 C 61.246094 46.171875 61.261719 43.058594 61.238281 39.949219 C 61.214844 36.246094 61.578125 33.113281 62.441406 30.582031 Z M 62.441406 30.582031 " style=" stroke:none;fill-rule:nonzero;fill:rgb(3.137255%,1.960784%,94.901961%);fill-opacity:1;"/><path d="M 58.78125 30.847656 C 58.78125 29.886719 58.78125 29.003906 58.78125 28.074219 C 59.222656 28.074219 59.648438 28.074219 60.089844 28.074219 C 60.089844 35.394531 60.089844 42.71875 60.089844 50.082031 C 59.664062 50.082031 59.234375 50.082031 58.78125 50.082031 C 58.78125 43.695312 58.78125 37.308594 58.78125 30.847656 Z M 58.78125 30.847656 " style=" stroke:none;fill-rule:nonzero;fill:rgb(3.137255%,1.960784%,94.901961%);fill-opacity:1;"/><path d="M 59.082031 25.042969 C 58.703125 24.324219 58.5625 23.261719 58.644531 21.84375 C 58.695312 20.949219 59.054688 20.011719 59.398438 19.875 C 59.660156 19.769531 59.808594 20.410156 59.957031 20.890625 C 60.097656 21.328125 60.183594 21.953125 60.277344 22.519531 C 60.296875 22.644531 60.253906 22.878906 60.242188 23.066406 C 60.128906 24.808594 59.695312 25.566406 59.1875 25.121094 C 59.160156 25.097656 59.128906 25.082031 59.082031 25.042969 Z M 59.082031 25.042969 " style=" stroke:none;fill-rule:nonzero;fill:rgb(3.137255%,1.960784%,94.901961%);fill-opacity:1;"/><path d="M 8.253906 27.546875 C 8.253906 26.046875 8.253906 24.617188 8.253906 23.070312 C 8.652344 23.851562 9.03125 24.585938 9.40625 25.320312 C 10.324219 27.132812 11.246094 28.945312 12.167969 30.75 C 12.496094 31.394531 12.847656 31.9375 13.152344 32.679688 C 13.375 33.222656 13.570312 33.210938 13.765625 32.761719 C 14.164062 31.84375 14.511719 32.230469 14.859375 33.0625 C 15 33.398438 15.160156 33.667969 15.332031 34.003906 C 12.972656 38.433594 10.628906 42.832031 8.253906 47.292969 C 8.253906 45.222656 8.246094 43.324219 8.265625 41.429688 C 8.265625 41.140625 8.382812 40.761719 8.472656 40.609375 C 8.820312 40.03125 9.179688 39.53125 9.53125 39 C 9.558594 38.960938 9.582031 38.898438 9.628906 38.796875 C 9.234375 38.15625 8.863281 37.519531 8.480469 36.9375 C 8.3125 36.6875 8.25 36.332031 8.253906 35.753906 C 8.257812 34.28125 8.253906 32.804688 8.253906 31.1875 C 8.546875 31.730469 8.8125 32.199219 9.070312 32.691406 C 9.738281 33.960938 10.402344 35.246094 11.070312 36.515625 C 11.097656 36.566406 11.140625 36.597656 11.167969 36.5625 C 11.402344 36.234375 11.632812 35.894531 11.902344 35.503906 C 11.480469 34.691406 11.097656 33.949219 10.710938 33.21875 C 9.953125 31.78125 9.195312 30.347656 8.4375 28.921875 C 8.273438 28.621094 8.242188 28.15625 8.253906 27.546875 Z M 8.253906 27.546875 " style=" stroke:none;fill-rule:nonzero;fill:rgb(100%,100%,100%);fill-opacity:1;"/><path d="M 32.503906 43.394531 C 32.132812 44.738281 31.734375 45.742188 31.167969 46.007812 C 30.621094 46.265625 30.148438 45.828125 29.730469 44.820312 C 28.816406 42.636719 28.585938 38.984375 29.113281 35.921875 C 29.695312 32.527344 30.9375 31.253906 32.007812 33.589844 C 32.886719 35.503906 33.296875 39.769531 32.503906 43.394531 Z M 32.503906 43.394531 " style=" stroke:none;fill-rule:nonzero;fill:rgb(100%,100%,100%);fill-opacity:1;"/><path d="M 55.191406 45.277344 C 54.460938 46.554688 53.753906 46.332031 53.109375 44.878906 C 52.675781 43.902344 52.371094 42.492188 52.261719 40.746094 C 52.105469 38.199219 52.324219 36.003906 52.894531 34.210938 C 53.664062 31.796875 54.863281 31.90625 55.609375 34.230469 C 56.257812 36.257812 56.421875 38.675781 56.175781 41.390625 C 56.023438 43.082031 55.695312 44.402344 55.191406 45.277344 Z M 55.191406 45.277344 " style=" stroke:none;fill-rule:nonzero;fill:rgb(100%,100%,100%);fill-opacity:1;"/></g></svg>