<svg xmlns="http://www.w3.org/2000/svg" width="70" height="70" version="1.1" viewBox="0 0 70 70"><g id="surface1"><path d="M 56.769531 39.4375 C 56.722656 39.476562 56.699219 39.492188 56.679688 39.511719 C 56.175781 40.082031 55.535156 40.398438 54.804688 40.558594 C 54.175781 40.699219 53.542969 40.664062 52.925781 40.484375 C 51.945312 40.203125 51.34375 39.546875 51.082031 38.566406 C 50.945312 38.042969 50.921875 37.507812 50.957031 36.96875 C 51.003906 36.21875 51.160156 35.488281 51.28125 34.753906 C 51.449219 33.714844 51.625 32.679688 51.796875 31.644531 C 51.84375 31.367188 51.886719 31.089844 51.941406 30.816406 C 52.011719 30.453125 52.21875 30.28125 52.589844 30.28125 C 53.46875 30.28125 54.34375 30.28125 55.226562 30.28125 C 55.273438 30.28125 55.320312 30.28125 55.367188 30.285156 C 55.539062 30.3125 55.648438 30.425781 55.664062 30.597656 C 55.671875 30.6875 55.667969 30.777344 55.65625 30.867188 C 55.5 31.832031 55.335938 32.796875 55.175781 33.761719 C 55.050781 34.515625 54.933594 35.269531 54.820312 36.027344 C 54.773438 36.324219 54.792969 36.625 54.871094 36.914062 C 54.894531 37.003906 54.925781 37.085938 54.96875 37.164062 C 55.121094 37.453125 55.40625 37.597656 55.730469 37.554688 C 55.949219 37.523438 56.164062 37.460938 56.355469 37.34375 C 56.601562 37.191406 56.835938 37.011719 57.078125 36.851562 C 57.179688 36.78125 57.222656 36.683594 57.242188 36.566406 C 57.3125 36.109375 57.390625 35.648438 57.46875 35.1875 C 57.640625 34.144531 57.816406 33.105469 57.992188 32.066406 C 58.054688 31.675781 58.117188 31.289062 58.183594 30.898438 C 58.199219 30.800781 58.226562 30.699219 58.269531 30.609375 C 58.363281 30.414062 58.527344 30.304688 58.75 30.289062 C 58.800781 30.285156 58.855469 30.285156 58.910156 30.285156 C 59.824219 30.285156 60.738281 30.296875 61.652344 30.28125 C 62.121094 30.273438 62.207031 30.503906 62.148438 30.859375 C 62.0625 31.378906 61.976562 31.898438 61.890625 32.414062 C 61.726562 33.378906 61.5625 34.34375 61.402344 35.308594 C 61.226562 36.351562 61.050781 37.394531 60.875 38.433594 C 60.777344 38.992188 60.699219 39.558594 60.574219 40.109375 C 59.890625 43.148438 57.53125 45.492188 54.484375 46.152344 C 53.066406 46.457031 51.671875 46.367188 50.328125 45.773438 C 50.25 45.738281 50.175781 45.707031 50.101562 45.664062 C 49.824219 45.519531 49.71875 45.304688 49.773438 45 C 49.878906 44.4375 49.988281 43.875 50.097656 43.3125 C 50.136719 43.105469 50.171875 42.902344 50.21875 42.695312 C 50.230469 42.636719 50.25 42.578125 50.273438 42.523438 C 50.339844 42.386719 50.449219 42.308594 50.601562 42.324219 C 50.707031 42.335938 50.816406 42.363281 50.914062 42.398438 C 51.378906 42.585938 51.855469 42.742188 52.351562 42.820312 C 53.542969 43 54.625 42.777344 55.527344 41.933594 C 56.113281 41.386719 56.464844 40.707031 56.675781 39.941406 C 56.710938 39.816406 56.730469 39.683594 56.757812 39.558594 C 56.761719 39.527344 56.765625 39.5 56.773438 39.441406 Z M 56.769531 39.4375" style="stroke:none;fill-rule:nonzero;fill:#133e67;fill-opacity:1"/><path d="M 34.816406 26.140625 C 35.992188 26.15625 37.136719 26.335938 38.253906 26.699219 C 38.332031 26.726562 38.410156 26.753906 38.492188 26.78125 C 38.675781 26.84375 38.773438 26.976562 38.792969 27.167969 C 38.804688 27.253906 38.800781 27.347656 38.785156 27.433594 C 38.695312 27.945312 38.601562 28.453125 38.507812 28.964844 C 38.449219 29.265625 38.34375 29.371094 38.046875 29.433594 C 37.800781 29.480469 37.558594 29.445312 37.316406 29.394531 C 36.746094 29.277344 36.171875 29.203125 35.59375 29.21875 C 35.230469 29.226562 34.867188 29.265625 34.515625 29.378906 C 34.300781 29.445312 34.101562 29.535156 33.921875 29.667969 C 33.683594 29.84375 33.523438 30.074219 33.457031 30.367188 C 33.386719 30.664062 33.449219 30.929688 33.667969 31.140625 C 33.824219 31.292969 34.007812 31.425781 34.195312 31.535156 C 34.535156 31.726562 34.890625 31.878906 35.230469 32.070312 C 35.574219 32.257812 35.921875 32.449219 36.242188 32.675781 C 37.125 33.304688 37.554688 34.183594 37.589844 35.261719 C 37.617188 36.136719 37.453125 36.984375 37.152344 37.804688 C 36.800781 38.753906 36.132812 39.417969 35.246094 39.882812 C 34.644531 40.195312 34.007812 40.386719 33.339844 40.484375 C 31.652344 40.742188 29.996094 40.582031 28.371094 40.054688 C 28.273438 40.023438 28.179688 39.988281 28.085938 39.953125 C 27.855469 39.859375 27.75 39.6875 27.789062 39.441406 C 27.871094 38.917969 27.957031 38.394531 28.039062 37.871094 C 28.082031 37.617188 28.117188 37.363281 28.164062 37.109375 C 28.175781 37.035156 28.195312 36.957031 28.226562 36.886719 C 28.320312 36.671875 28.507812 36.566406 28.734375 36.617188 C 29.019531 36.675781 29.300781 36.757812 29.585938 36.824219 C 30.332031 36.988281 31.085938 37.058594 31.84375 37.023438 C 32.210938 37.003906 32.574219 36.957031 32.910156 36.8125 C 33.066406 36.746094 33.226562 36.660156 33.355469 36.550781 C 33.699219 36.253906 33.710938 35.832031 33.378906 35.523438 C 33.234375 35.390625 33.066406 35.277344 32.898438 35.1875 C 32.515625 34.984375 32.128906 34.804688 31.742188 34.617188 C 31.292969 34.398438 30.859375 34.164062 30.464844 33.859375 C 29.839844 33.382812 29.398438 32.785156 29.214844 32.011719 C 29.089844 31.484375 29.097656 30.945312 29.175781 30.410156 C 29.246094 29.9375 29.367188 29.476562 29.53125 29.027344 C 29.933594 27.933594 30.703125 27.1875 31.757812 26.71875 C 32.417969 26.425781 33.113281 26.265625 33.832031 26.203125 C 34.160156 26.175781 34.488281 26.164062 34.816406 26.144531 Z M 34.816406 26.140625" style="stroke:none;fill-rule:nonzero;fill:#133e67;fill-opacity:1"/><path d="M 44.003906 32.964844 C 44.035156 32.933594 44.070312 32.90625 44.105469 32.875 C 44.863281 32.113281 45.621094 31.351562 46.378906 30.585938 C 46.582031 30.378906 46.820312 30.273438 47.113281 30.277344 C 47.976562 30.285156 48.835938 30.289062 49.695312 30.292969 C 49.753906 30.292969 49.8125 30.300781 49.871094 30.3125 C 50.09375 30.363281 50.171875 30.507812 50.078125 30.710938 C 50.023438 30.820312 49.945312 30.921875 49.859375 31.015625 C 49.601562 31.289062 49.335938 31.554688 49.074219 31.820312 C 47.132812 33.785156 45.195312 35.75 43.253906 37.714844 C 43.164062 37.808594 43.132812 37.910156 43.109375 38.027344 C 43.015625 38.613281 42.917969 39.195312 42.824219 39.777344 C 42.820312 39.8125 42.8125 39.847656 42.800781 39.882812 C 42.710938 40.191406 42.519531 40.339844 42.199219 40.347656 C 41.980469 40.351562 41.757812 40.347656 41.539062 40.347656 C 40.855469 40.347656 40.175781 40.347656 39.492188 40.347656 C 39.046875 40.347656 38.90625 40.171875 38.980469 39.730469 C 39.191406 38.46875 39.398438 37.210938 39.609375 35.953125 C 39.839844 34.558594 40.078125 33.164062 40.3125 31.769531 C 40.519531 30.515625 40.726562 29.261719 40.933594 28.007812 C 41.003906 27.589844 41.074219 27.171875 41.144531 26.753906 C 41.203125 26.410156 41.410156 26.195312 41.753906 26.132812 C 42.425781 26.007812 43.105469 25.894531 43.78125 25.773438 C 43.957031 25.742188 44.132812 25.707031 44.308594 25.679688 C 44.398438 25.667969 44.488281 25.65625 44.574219 25.65625 C 44.757812 25.664062 44.878906 25.773438 44.90625 25.953125 C 44.917969 26.03125 44.917969 26.121094 44.910156 26.199219 C 44.832031 26.78125 44.75 27.359375 44.667969 27.9375 C 44.566406 28.667969 44.464844 29.394531 44.363281 30.121094 C 44.25 30.929688 44.136719 31.742188 44.019531 32.550781 C 44.003906 32.683594 43.984375 32.820312 43.96875 32.957031 C 43.980469 32.960938 43.992188 32.964844 44.003906 32.96875 Z M 44.003906 32.964844" style="stroke:none;fill-rule:nonzero;fill:#133e67;fill-opacity:1"/><path d="M 15.671875 35.835938 C 15.601562 35.835938 15.539062 35.835938 15.476562 35.835938 C 15.082031 35.835938 14.6875 35.832031 14.292969 35.839844 C 14.042969 35.847656 13.804688 35.734375 13.847656 35.339844 C 13.875 35.054688 13.929688 34.769531 13.976562 34.488281 C 14.089844 33.800781 14.207031 33.113281 14.320312 32.425781 C 14.328125 32.402344 14.328125 32.378906 14.332031 32.355469 C 14.402344 31.988281 14.621094 31.804688 14.992188 31.800781 C 15.382812 31.796875 15.769531 31.800781 16.160156 31.800781 C 16.222656 31.800781 16.285156 31.800781 16.363281 31.800781 C 16.402344 31.585938 16.4375 31.386719 16.472656 31.1875 C 16.683594 29.910156 16.894531 28.632812 17.105469 27.355469 C 17.132812 27.199219 17.152344 27.035156 17.191406 26.878906 C 17.265625 26.542969 17.464844 26.386719 17.8125 26.386719 C 18.804688 26.386719 19.796875 26.386719 20.789062 26.386719 C 20.820312 26.386719 20.851562 26.386719 20.878906 26.386719 C 21.128906 26.40625 21.277344 26.554688 21.261719 26.808594 C 21.253906 26.992188 21.21875 27.175781 21.1875 27.355469 C 20.972656 28.628906 20.761719 29.898438 20.550781 31.171875 C 20.339844 32.425781 20.128906 33.679688 19.921875 34.933594 C 19.738281 36.039062 19.554688 37.148438 19.367188 38.253906 C 19.28125 38.765625 19.199219 39.277344 19.113281 39.789062 C 19.042969 40.171875 18.835938 40.34375 18.445312 40.347656 C 17.472656 40.347656 16.496094 40.347656 15.523438 40.347656 C 15.492188 40.347656 15.464844 40.347656 15.433594 40.347656 C 15.144531 40.328125 15 40.164062 15.027344 39.875 C 15.050781 39.65625 15.09375 39.4375 15.128906 39.21875 C 15.308594 38.128906 15.492188 37.042969 15.671875 35.953125 C 15.675781 35.925781 15.671875 35.894531 15.671875 35.839844 Z M 15.671875 35.835938" style="stroke:none;fill-rule:nonzero;fill:#f89921;fill-opacity:1"/><path d="M 47.304688 40.324219 C 46.960938 40.324219 46.613281 40.324219 46.269531 40.324219 C 46.019531 40.324219 45.84375 40.210938 45.734375 39.996094 C 45.492188 39.53125 45.253906 39.066406 45.019531 38.59375 C 44.882812 38.3125 44.9375 38.039062 45.175781 37.789062 C 45.363281 37.59375 45.5625 37.402344 45.757812 37.210938 C 46.039062 36.933594 46.320312 36.65625 46.601562 36.382812 C 46.628906 36.355469 46.652344 36.328125 46.679688 36.308594 C 46.964844 36.058594 47.21875 36.109375 47.375 36.457031 C 47.710938 37.199219 48.046875 37.945312 48.378906 38.691406 C 48.519531 39 48.660156 39.308594 48.792969 39.621094 C 48.835938 39.714844 48.867188 39.8125 48.875 39.910156 C 48.894531 40.109375 48.78125 40.257812 48.589844 40.3125 C 48.503906 40.335938 48.410156 40.339844 48.324219 40.34375 C 47.984375 40.347656 47.640625 40.34375 47.304688 40.34375 C 47.304688 40.335938 47.304688 40.328125 47.304688 40.320312 Z M 47.304688 40.324219" style="stroke:none;fill-rule:nonzero;fill:#133e67;fill-opacity:1"/><path d="M 9.746094 40.347656 C 9.269531 40.347656 8.789062 40.347656 8.3125 40.347656 C 7.886719 40.347656 7.734375 40.167969 7.800781 39.753906 C 8.058594 38.222656 8.316406 36.695312 8.574219 35.164062 C 8.792969 33.839844 9.011719 32.515625 9.234375 31.191406 C 9.4375 29.976562 9.636719 28.765625 9.839844 27.550781 C 9.890625 27.242188 10.089844 27.046875 10.410156 26.988281 C 10.886719 26.902344 11.359375 26.820312 11.835938 26.738281 C 12.355469 26.648438 12.871094 26.558594 13.386719 26.46875 C 13.457031 26.457031 13.53125 26.445312 13.601562 26.441406 C 13.875 26.425781 14.027344 26.578125 14.011719 26.855469 C 14.007812 26.925781 13.992188 26.996094 13.980469 27.066406 C 13.769531 28.316406 13.5625 29.5625 13.355469 30.808594 C 13.167969 31.914062 12.984375 33.023438 12.800781 34.128906 C 12.625 35.171875 12.449219 36.214844 12.277344 37.253906 C 12.140625 38.074219 12.003906 38.890625 11.871094 39.707031 C 11.859375 39.761719 11.851562 39.8125 11.835938 39.867188 C 11.753906 40.183594 11.558594 40.34375 11.234375 40.34375 C 10.734375 40.351562 10.242188 40.34375 9.742188 40.34375 Z M 9.746094 40.347656" style="stroke:none;fill-rule:nonzero;fill:#f89921;fill-opacity:1"/><path d="M 23.125 40.347656 C 22.71875 40.347656 22.3125 40.347656 21.90625 40.347656 C 21.863281 40.347656 21.820312 40.347656 21.78125 40.347656 C 21.464844 40.335938 21.316406 40.175781 21.347656 39.867188 C 21.375 39.589844 21.429688 39.3125 21.476562 39.035156 C 21.636719 38.058594 21.800781 37.082031 21.960938 36.105469 C 22.148438 34.980469 22.335938 33.855469 22.519531 32.734375 C 22.585938 32.339844 22.652344 31.945312 22.714844 31.550781 C 22.78125 31.128906 22.964844 30.929688 23.386719 30.855469 C 24.183594 30.710938 24.984375 30.574219 25.785156 30.4375 C 25.890625 30.417969 25.996094 30.398438 26.101562 30.382812 C 26.402344 30.34375 26.566406 30.488281 26.539062 30.789062 C 26.511719 31.058594 26.460938 31.320312 26.414062 31.585938 C 26.253906 32.558594 26.089844 33.527344 25.929688 34.5 C 25.757812 35.535156 25.585938 36.570312 25.414062 37.605469 C 25.300781 38.292969 25.1875 38.984375 25.070312 39.671875 C 25.050781 39.777344 25.03125 39.882812 24.992188 39.984375 C 24.890625 40.246094 24.683594 40.351562 24.414062 40.351562 C 23.984375 40.351562 23.550781 40.351562 23.125 40.351562 Z M 23.125 40.347656" style="stroke:none;fill-rule:nonzero;fill:#f89921;fill-opacity:1"/><path d="M 26.613281 26.617188 C 26.191406 26.675781 25.785156 26.714844 25.203125 27.253906 C 24.625 27.792969 24.398438 28.554688 24.628906 28.804688 C 24.855469 29.058594 25.488281 28.773438 26.039062 28.167969 C 26.585938 27.5625 26.953125 26.570312 26.613281 26.617188 Z M 26.613281 26.617188" style="stroke:none;fill-rule:nonzero;fill:#f2971f;fill-opacity:1"/><path d="M 27.097656 26.171875 C 27.226562 26.34375 27.527344 26.304688 27.777344 26.085938 C 27.785156 26.078125 27.886719 25.992188 27.894531 25.988281 C 27.992188 25.890625 27.78125 25.671875 27.851562 25.582031 C 27.941406 25.460938 27.972656 25.417969 27.972656 25.417969 C 27.769531 25.296875 27.488281 25.335938 27.316406 25.453125 C 27.039062 25.636719 26.96875 25.996094 27.097656 26.171875 Z M 27.097656 26.171875" style="stroke:none;fill-rule:nonzero;fill:#f2971f;fill-opacity:1"/><path d="M 23.628906 25.707031 C 23.355469 25.34375 23.035156 25.007812 22.921875 24.542969 C 22.890625 24.417969 22.882812 24.28125 22.894531 24.15625 C 22.917969 23.878906 23.148438 23.679688 23.460938 23.65625 C 23.746094 23.632812 24.023438 23.6875 24.285156 23.789062 C 24.882812 24.027344 25.390625 24.402344 25.859375 24.832031 C 26.121094 25.070312 26.339844 25.347656 26.523438 25.648438 C 26.816406 26.121094 26.890625 26.625 26.753906 27.160156 C 26.625 27.675781 26.375 28.125 25.984375 28.488281 C 25.742188 28.714844 25.453125 28.851562 25.128906 28.902344 C 25.058594 28.914062 24.984375 28.910156 24.914062 28.914062 C 24.855469 28.914062 24.816406 28.882812 24.828125 28.824219 C 24.832031 28.796875 24.875 28.757812 24.910156 28.75 C 25.023438 28.722656 25.144531 28.722656 25.257812 28.6875 C 25.527344 28.605469 25.757812 28.457031 25.945312 28.25 C 26.332031 27.832031 26.554688 27.335938 26.613281 26.773438 C 26.648438 26.425781 26.558594 26.101562 26.390625 25.792969 C 26.230469 25.492188 26.015625 25.246094 25.773438 25.007812 C 25.339844 24.582031 24.847656 24.238281 24.292969 23.988281 C 24.066406 23.886719 23.832031 23.820312 23.585938 23.820312 C 23.515625 23.820312 23.441406 23.824219 23.371094 23.84375 C 23.179688 23.894531 23.054688 24.046875 23.066406 24.253906 C 23.078125 24.40625 23.105469 24.5625 23.167969 24.703125 C 23.257812 24.910156 23.378906 25.101562 23.488281 25.300781 C 23.554688 25.425781 23.621094 25.550781 23.6875 25.675781 C 23.667969 25.6875 23.652344 25.695312 23.632812 25.707031 Z M 23.628906 25.707031" style="stroke:none;fill-rule:nonzero;fill:#133e67;fill-opacity:1"/><path d="M 24.566406 29 C 24.402344 28.808594 24.371094 28.59375 24.371094 28.371094 C 24.375 28.019531 24.460938 27.683594 24.664062 27.390625 C 25.058594 26.820312 25.570312 26.414062 26.257812 26.261719 C 26.308594 26.25 26.359375 26.246094 26.414062 26.242188 C 26.425781 26.371094 26.386719 26.445312 26.28125 26.480469 C 26.195312 26.503906 26.109375 26.523438 26.023438 26.554688 C 25.378906 26.757812 24.933594 27.199219 24.625 27.789062 C 24.460938 28.101562 24.429688 28.433594 24.519531 28.78125 C 24.539062 28.855469 24.550781 28.929688 24.566406 29.003906 Z M 24.566406 29" style="stroke:none;fill-rule:nonzero;fill:#133e67;fill-opacity:1"/><path d="M 28.265625 25.644531 C 28.207031 25.597656 28.140625 25.554688 28.085938 25.503906 C 27.871094 25.324219 27.617188 25.300781 27.359375 25.34375 C 27.15625 25.375 27.027344 25.53125 27.011719 25.726562 C 27 25.917969 27.132812 26.121094 27.316406 26.183594 C 27.566406 26.269531 27.835938 26.066406 27.835938 25.785156 C 27.835938 25.695312 27.820312 25.609375 27.8125 25.527344 C 27.898438 25.5 27.925781 25.542969 27.9375 25.597656 C 27.996094 25.820312 27.96875 26.03125 27.8125 26.199219 C 27.667969 26.359375 27.46875 26.390625 27.265625 26.324219 C 27.046875 26.25 26.90625 26.089844 26.871094 25.859375 C 26.824219 25.542969 27 25.300781 27.3125 25.222656 C 27.65625 25.140625 27.945312 25.246094 28.203125 25.46875 C 28.246094 25.503906 28.269531 25.558594 28.304688 25.605469 C 28.292969 25.617188 28.277344 25.628906 28.265625 25.640625 Z M 28.265625 25.644531" style="stroke:none;fill-rule:nonzero;fill:#133e67;fill-opacity:1"/><path d="M 25.289062 27.480469 C 25.527344 27.664062 25.761719 27.847656 25.996094 28.03125 C 25.949219 28.132812 25.886719 28.113281 25.828125 28.074219 C 25.597656 27.925781 25.402344 27.742188 25.289062 27.480469 Z M 25.289062 27.480469" style="stroke:none;fill-rule:nonzero;fill:#133e67;fill-opacity:1"/><path d="M 26.328125 27.464844 C 26.15625 27.480469 25.9375 27.300781 25.78125 27.003906 C 25.875 27.039062 25.933594 27.097656 25.992188 27.144531 C 26.054688 27.191406 26.121094 27.238281 26.175781 27.289062 C 26.230469 27.34375 26.335938 27.351562 26.328125 27.464844 Z M 26.328125 27.464844" style="stroke:none;fill-rule:nonzero;fill:#133e67;fill-opacity:1"/><path d="M 24.902344 28.0625 C 25.070312 28.1875 25.242188 28.316406 25.410156 28.441406 C 25.425781 28.453125 25.429688 28.496094 25.425781 28.503906 C 25.40625 28.519531 25.371094 28.539062 25.351562 28.53125 C 25.3125 28.523438 25.273438 28.5 25.242188 28.476562 C 25.09375 28.371094 24.964844 28.246094 24.902344 28.058594 Z M 24.902344 28.0625" style="stroke:none;fill-rule:nonzero;fill:#133e67;fill-opacity:1"/></g></svg>