<svg xmlns="http://www.w3.org/2000/svg" id="Layer_1" width="100" height="100" viewBox="0 0 600 600"><defs><style>.cls-1{fill:#88181a;}</style></defs><path d="M475.2,96.6s-18.3,50.1-39.5,84.4c0,0,38.9-28,80.6-80.1l-37.6,64.3c47.2-28,100.6-78.9,100.6-78.9S558,126,492.4,186.6c0,0,44.9-22.6,107.6-66.9l-22.8,27.9-46.9,37.8s37.7-8.6,54.3-26.5c0,0-15.2,32.2-52.8,53.7,0,0,8.9,5.6,15.2,1.5,0,0-7.2,10.2-19.2,10.7,0,0,6.3,7.7,11.6,9.2,0,0-10.7,7.2-16.1,7.7,0,0,5.8,9.2,12.1,6.1,0,0-7.2,11.8-19.2,13.8l12.1,4.6s-4.9,12.3-22.4,18.4c0,0,18.3,7.2-14.8,29.6s-.4,1.5-.4,1.5,12.5,10.7-16.5,22.5c0,0,16.5,1.5-7.6,19.9,0,0,10.7,11.2-21.5,19.9,0,0,24.6,6.1-7.6,22.5,0,0,4,13.8-20.6,16.9,0,0,12.5,14.8-31.7,14.3,0,0,22.8,30.7,87.2,41.9,0,0,47.4,15.8,84.9,10.2,0,0,.8,20.2-27.8,28.4,0,0-37.7-1.5-80.8-23.8,0,0-9.8,15.3-34,9.2,0,0-11.2,19.9-55.4,1.5,0,0-5.4,14.3-19.7,4.1,0,0-21,28.1-51-8.7,0,0-19.7,9.7-95.7-37.3,0,0-43.8,10.2-58.1-5.1,0,0-22.2-3.7-38.9,10.2,0,0-1.3-13.3,21.9-32.2,0,0,8-7.2,8.5-17.9,0,0-.4-9.7,18.3-17.9,0,0,7.6-4.1,11.2-7.2,0,0-41.1-32.7-68.9-38.3,0,0,5.4-2.6,8-2.6,0,0-34.4-29.1-57.2-41.9,0,0-45.2-22-36.7-73.1,0,0,6.3,11.8,12.1,13.8,0,0-19.2-51.6-.4-97.6,0,0,5.4,25,14.8,36.8,0,0,13.8-71.3,21.4-80l-.6,41.4s.3,49.3,9.7,60.6c0,0-3.1-37.3,13.4-52.6,0,0,.9,31.7,23.2,77.2,0,0,.4-24,13.9-50.6,0,0-2.7,29.1,17.9,59.8,0,0-5.4-13.3,1.3-25,0,0,5.4,26.1,29.5,53.2V260s2.7,20.4,56.3,48.6l7.2,13.8s28.2,15.3,36.7,26.6c0,0,7.2-16.4,9.8-26.1,0,0,4.9-16.4,29.5-34.8l56.8-45.5a267.29,267.29,0,0,0,46.9-62.4l.2,16.8C400.6,197.2,422.1,180,475.2,96.6Z" class="cls-1"/></svg>