<svg xmlns="http://www.w3.org/2000/svg" version="1.1" id="Layer_1" x="0px" y="0px" width="70" height="70" viewBox="0 0 70 70" xml:space="preserve" style="enable-background:new 0 0 70 70;"><style type="text/css">
	.st0{fill:#FFFFFF;}
	.st1{fill:url(#SVGID_1_);}
	.st2{fill:#463C8F;}
	.st3{fill:#EE453D;}
</style><g><path d="M59.6,15.8c1,0,2.1,0.5,2.7,1.3c1.8-1,2.8-2.8,2.2-4.7c-0.5-1.9-0.8-3.9-0.7-4.6c-1.5,0.3-3-0.9-4.1-1.4   c-1.7-0.8-3.4-1.1-4.9,0.8c-0.2,0.2-0.5,0.3-0.3-0.2c0.3-1.1,1.1-1.8,1.5-2c-0.1-0.7-0.9-2.7-4.6-3c-1.6-0.1-3.2-0.5-3.8-1   c0,0-0.4,0.8-2.8,2.5l0,0l0,0C41.3,1.9,37.3,1,33.2,1C17.9,1,5.4,13.6,5.4,29.1c0,13.9,9.9,25.4,23,27.7c-0.1,1-0.2,1.9-0.4,2.7   c-0.9,4.4-3.9,8.5-5.6,9.5c4.4-0.4,7.9-1.7,10-3.8l0,0c3.5,0,8.5-0.7,12.8-5.2c1.5-1.5,2.6-3.2,3.4-4.7c0.3-0.6,1.6-2.9,2.3-7.4   c0.1-0.6,0.4-2.5,0.4-2.5s0.2,1.4,0.2,2.6c0,1.7,0.1,3.8-0.9,7c0.3-0.1,2-1.3,4-4c0.7-1,1.4-2,2-3c2.8-4.4,4.8-9.7,4.7-19.7   c0-0.6-0.1-1.4-0.2-2.1l0,0c0,0-0.1-1.4,0.4-2.4s2-5.8-2.1-7.6C59.1,16,59,15.8,59.6,15.8z" class="st0"/><g><g><linearGradient id="SVGID_1_" gradientTransform="matrix(1 0 0 -1 -212.4582 65.5778)" gradientUnits="userSpaceOnUse" x1="237.8472" x2="236.3074" y1="58.0056" y2="19.6677"><stop offset="0" style="stop-color:#CE0C88"/><stop offset="4.657555e-02" style="stop-color:#C50F88"/><stop offset="0.368" style="stop-color:#8F228B"/><stop offset="0.6454" style="stop-color:#67308D"/><stop offset="0.8652" style="stop-color:#4F398F"/><stop offset="1" style="stop-color:#463C8F"/></linearGradient><path d="M19.7,32.8c-0.2,0.2-0.8,0.1-1,0.1s-1.1-0.2-1.6-0.4c-0.3-0.1-0.5,0-0.5,0.1s0,0.1,0.2,0.2     c0.5,0.2,0.8,0.4,1.7,0.9c1.1,0.6,1.5,0.1,1.8-0.3c0.1-0.1,0.2-0.6,0.1-0.7C20.1,32.5,19.9,32.6,19.7,32.8z M33.2,1     C17.9,1,5.4,13.6,5.4,29.1c0,13.9,9.9,25.4,23,27.7c-0.1,1-0.2,1.9-0.4,2.7c-0.9,4.4-3.9,8.5-5.6,9.5c4.4-0.4,7.9-1.7,10-3.8l0,0     l0,0c-0.1,0-1.5,0-1.6,0c0.8-0.3,1.7-0.7,2.4-1.2l0,0l0,0l0,0l0,0c0.3-2.6,0.2-5.7-0.5-9.4c-0.9-4.9-2.7-6.5-3-6.9c0,0,0,0,0-0.1     h0.1c1.5-1,2.9-2.1,3.5-2.7c0.5-0.4,0.3-0.6-0.2-0.4c-1.3,0.6-3.5,1.4-6.2,1.7c-2.4,0.3-5.3,0.3-8.4-0.3c0,0-2.2-0.3-1.9-2.5     c0.1-0.6,0.4-1.3,0.7-1.9c0.1-0.2,0.3-0.8,0.2-1.3c0-0.1-0.2-0.3-0.3-0.5c-0.2-0.2-0.2-0.6-0.1-1c0.1-0.3,0.7-0.8,1.5-0.9     c0.9-0.1,2.1,0,2.9-0.1c1.3-0.2,2-1.1,1.9-1.4c-0.1-0.2-1.2,0-1.6,0.1c-0.6,0.1-1.6-0.3-2.1-0.5c-0.8-0.3-1.3-0.5-2-0.2     c-0.5,0.2-0.8,1.1-0.9,0.7c-0.1-0.2,0.1-0.4,0.2-0.6c0.1-0.2,0.4-0.6,0.5-0.9c0-0.3,0.1-0.6-0.6-1.2c-0.5-0.4-0.9-0.7-1.1-0.9     c-0.7-0.7-0.8-1.4,0.5-2.6c1-0.8,3.1-3,3.7-4.3c0.1-0.2,0.6-1,0.1-1.9c-0.4-0.6-0.5-0.8-0.6-1c-0.3-0.6-0.1-1.1,0.4-1.9     c0.2-0.4,0.4-0.9,1-2.5c0.6-1.9,1.5-3.5,2.8-4.9l0,0c0.1-0.3,0.2-2.4,1.5-4.4c0.4-0.8,0.9-1.6,1.7-2.4c0.5-0.5,1.3-1.2,2.3-1.8     s2.3-1.2,3.8-1.6c1.8-0.5,3.9-0.9,6.2-0.8c1.7,0,3.4,0.2,5.3,0.7l0,0c0,0,0.1,0,0.2,0.1C41.3,1.9,37.3,1,33.2,1z" class="st1"/></g></g><g><g><path d="M29.1,19.6c-0.1,0-3.8-0.9-5-0.8s-2.3,0.8-2.9,1.5c-0.3,0.4-0.5,0.8-0.6,1.1c-0.1,0.6,0.4,0.9,0.9,0.7     c0.4-0.1,0.6-0.4,1-0.9c0.2-0.3,0.4-0.8,0.7-1c0.6-0.4,1.6-0.5,3.2-0.4c1.3,0,2.3,0.1,2.5,0.1C29.4,20,29.3,19.6,29.1,19.6" class="st2"/><path d="M27,23c-0.7-0.4-1.6-0.4-1.8-0.4c-0.2,0-0.2-0.2,0.1-0.3c0.4-0.2,1.1,0,1.1-0.1s-0.1-0.4-0.7-0.6     c-0.3-0.1-0.8-0.2-1.2-0.1c-1.1,0.1-1.7,0.8-1.9,1c-0.1,0.1-0.3,0.3-0.4,0.6c-0.1,0.4,0.2,0.7,0.4,1.1c0.1,0.2,0.2,0.3,0.3,0.5     c0.1,0.2,0,0.3-0.2,0.4c-0.2,0.2-0.1,0.4,0.3,0.3c0.5-0.1,0.7-0.3,1-0.5c0.5-0.4,0.5-0.7,0.8-1s1.4-0.3,2-0.3     C27.6,23.6,27.7,23.4,27,23" class="st2"/></g><path d="M61.3,28.3c0-1.3-0.4-3.7-0.4-4.3c-0.2-1.5-0.5-3.6-1.7-6.5c-1.3-3.2-2.3-5.4-5.4-8.5c-3.7-3.6-8-5.1-9-5.4    l0,0c-0.2,0-0.2-0.1-0.2-0.1l0,0c-2-0.5-3.6-0.7-5.3-0.7C33,2.7,28.5,5.3,26.9,7c-0.7,0.8-1.3,1.6-1.7,2.4c-1.2,2-1.4,4.1-1.5,4.4    l0,0l0,0l0,0c0.1-0.1,1.6-1.7,3.3-2.2c0.4,0.7,1.3,1.6,3,2.5c1.8,0.9,3.7,1.4,3.7,1.4s2.4,0.7,4.9,1.6c1.9,0.7,4,3.2,4,3.7    c0,1.1-1.1,2.1-2.1,5.4c-1.1,3.5-1.5,6.8-1.1,10.7l0,0l0,0c0.2,2.3,0.7,4.8,1.5,7.7l0,0c0.6,2.3,0.8,4.7,0.7,6.9    c-0.5,5.8-4,10.1-8.2,12.5l0,0l0,0c-0.8,0.5-1.6,0.9-2.5,1.2c0.1,0,1.5,0,1.6,0c3.5,0,8.5-0.7,12.8-5.2c1.5-1.5,2.6-3.2,3.4-4.7    c0.3-0.6,1.6-2.9,2.3-7.4c0.1-0.6,0.4-2.5,0.4-2.5s0.2,1.4,0.2,2.6c0,1.7,0.1,3.8-0.9,7c0.3-0.1,2-1.3,4-4c0.7-1,1.4-2,2-3    C59.4,43.6,61.4,38.3,61.3,28.3z" class="st2"/></g><path d="M63.8,7.8c-0.1,0.7,0.1,2.7,0.7,4.6c0.6,2-0.4,3.7-2.2,4.7c-0.6-0.9-1.7-1.3-2.7-1.3c-0.6,0-0.4,0.2-0.1,0.3   c4.1,1.7,2.7,6.5,2.1,7.6c-0.5,1-0.4,2.4-0.4,2.4c-1.3-0.4-2.5-0.1-3.5,0c-2,0.3-3.4,0-4.5-0.5c-0.8-0.4-2.2-1.3-2.4-3   c0-0.3-0.2-0.5-0.4,0.1c-0.2,1-0.1,2.2,0.6,2.9c-0.8,3.8-8.1,3.5-8.1,3.5c-0.5-1.6-3.8-2.1-4.6-4.5c-0.4-1.1-0.1-2.3-0.1-2.3   c1.9,0.5,3-0.5,3.7-1.2c0.4-0.5,0.1-0.5-0.2-0.3c-2.4,1.5-4.7,0-5.2-2.2c-0.6-2.4-2.9-3.2-2.9-3.2c1.7-1.1,1.2-2.9,2.1-4.5   C38,6.8,41.3,8,41.3,8c0.3,1,1.3,1.7,2.2,2c0.6,0.2,0.5-0.1,0.2-0.3c-2.3-1.7-1.8-4.4,0.1-5.6C47,1.9,47.6,1,47.6,1   c0.6,0.4,2.2,0.8,3.8,1C55.1,2.3,56,4.2,56,5c-0.4,0.2-1.2,0.9-1.5,2c-0.2,0.6,0.1,0.5,0.3,0.2c1.4-2,3.2-1.6,4.9-0.8   C60.7,6.9,62.2,8.2,63.8,7.8 M46,18.4c0,0.2,0,0.3,0.2,0.1c0.8-0.6,2-1.6,3.8-1.9c2.1-0.4,3.3-1.4,3.8-2.5c0.3-0.7,0.6-1.9,1.6-2.7   c0.3-0.2,0-0.3-0.3-0.3s-1.6,0.4-2.5,1.4c-0.6-0.6-0.6-1.5-0.5-2c0-0.1-0.1-0.3-0.3-0.1c-0.7,0.5-1.1,1.3-1.3,1.8   c0,0-0.5-0.4-0.3-1.4c0-0.2-0.1-0.1-0.1-0.1c-1,0.7-0.9,1.8-0.9,1.9c0,0-1-0.5-2.5-0.8c-0.3-1-1.9-1.3-2.1-0.2   c-0.2,0.9,1.3,1.6,2,0.9c0,0,2.1,0.2,4,2.1c0.2,0.2,0.3,0.3,0.1,0.5c-0.1,0.1-0.4-0.1-0.7-0.3c-0.4-0.3-2.9-1.9-5.2-0.8   c-0.1,0.1-0.1,0.2,0,0.2c0.4,0.1,1.4,0.4,1.6,1.1c-0.6,0.2-1.5,0.5-2.2,1.9c-0.2,0.4,0.1,0.4,0.2,0.3c0.2-0.2,1.6-0.9,2.1-0.9   C46.6,16.7,46.2,17.4,46,18.4" class="st3"/></g></svg>