<svg xmlns="http://www.w3.org/2000/svg" width="92.22" height="92.22" viewBox="0 0 92.22 92.22"><defs><style>.cls-1{isolation:isolate;}.cls-2{fill:#348f41;}.cls-3{fill:#fed925;}.cls-4{fill:#e1251b;}.cls-5{opacity:0.19;mix-blend-mode:multiply;}.cls-6{fill:url(#test-replacement);}.cls-7{fill:url(#test-replacement-2);}.cls-8{fill:url(#test-replacement-3);}.cls-9{fill:url(#test-replacement-4);}</style><linearGradient id="test-replacement" gradientUnits="userSpaceOnUse" x1="7.4" x2="44.01" y1="82.4" y2="33.7"><stop offset="0" stop-color="#fff"/><stop offset="1"/></linearGradient><linearGradient xmlns:xlink="http://www.w3.org/1999/xlink" id="test-replacement-2" x1="9.16" x2="45.77" y1="83.72" y2="35.03" xlink:href="#test-replacement"/><linearGradient xmlns:xlink="http://www.w3.org/1999/xlink" id="test-replacement-3" x1="5.95" x2="42.55" y1="81.31" y2="32.61" xlink:href="#test-replacement"/><linearGradient xmlns:xlink="http://www.w3.org/1999/xlink" id="test-replacement-4" x1="16.28" x2="52.88" y1="89.08" y2="40.38" xlink:href="#test-replacement"/></defs><g class="cls-1"><g id="Calque_1"><path d="M9.89,70,37.35,38.58s11.51-1.93,16,5,.49,14-3.17,16.87-5.48,5-19.6,8.1C26.21,69.35,9.89,70,9.89,70Z" class="cls-2"/><path d="M40.16,35.31s4-4.63,4.56-5.18S49,28.25,59.82,26.3s23.81.79,23.81.79l-8.1,21.07-4.2,10.17s-4.44,9.74-12.18,14.25S45,77.87,37.35,78.67c-1.76.3-35.19.3-35.19.3L7,73.18s16.81-.3,26.73-2.07c9.29-1.65,18.05-3.62,24.68-13.71a18.37,18.37,0,0,0,2.62-6.1C64,37.81,48.36,33.86,40.16,35.31Z" class="cls-3"/><path d="M85.22,23.19,90.6,8.41,75.12,8.17c-3.62-.05-9.35,0-13.32,3.1S50,24.18,50,24.18s6.25-2.51,19.39-2.69C76.64,21.14,85.22,23.19,85.22,23.19Z" class="cls-4"/><polygon points="78.56 30.71 74.36 36.07 67.8 33.7 71.59 39.48 67.47 44.73 74.1 42.93 76.31 46.15 79.45 37.97 78.26 37.68 78.56 30.71" class="cls-2"/><g class="cls-5"><path d="M37.35,38.58,9.89,70s5.38-.22,10.79-.56h0L46.79,39.08A24.4,24.4,0,0,0,37.35,38.58Z" class="cls-6"/><path d="M40.16,35.31a24.23,24.23,0,0,1,9.48.44l7.74-9c-9,1.7-12.15,2.88-12.66,3.38S40.16,35.31,40.16,35.31Z" class="cls-7"/><path d="M2.16,79l10.6,0,5.18-6.21c-6,.36-10.91.44-10.91.44Z" class="cls-8"/><path d="M75.12,8.17c-3.62-.05-9.35,0-13.32,3.1S50,24.18,50,24.18s3.73-1.5,11.49-2.26l3.1-3.78A16.68,16.68,0,0,1,76.48,12H89.31L90.6,8.41Z" class="cls-9"/></g></g></g></svg>