<svg xmlns="http://www.w3.org/2000/svg" version="1.1" id="Layer_1" width="92" height="84" viewBox="0 0 92.81 84.1"><defs id="defs220"><style id="style218">
            .cls-1{fill:#75d1f6;}.cls-2{fill:#fef35a;}.cls-3{fill:#f8fcfd;}.cls-4{fill:#f7fbfb;}.cls-5{fill:#fbf7ad;}.cls-6{fill:#231f20;}.cls-7{fill:#221e1f;}.cls-8{fill:#fdfdfb;}.cls-9{fill:#fcfdfb;}.cls-10{fill:#fbfcfa;}.cls-11{fill:#f9f9f6;}.cls-12{fill:#fbfbf9;}.cls-13{fill:#08020b;}.cls-14{fill:#fdfdfc;}.cls-15{fill:#fcf358;}.cls-16{fill:#74d1f5;}.cls-17{fill:#fcf257;}.cls-18{fill:#73ceee;}.cls-19{fill:#eee85c;}
        </style></defs><title id="title222"/><path id="path224" transform="translate(0.04 0)" d="M.1,38.08c0-11.32.07-22.66,0-34C0,.66.34,0,1.75,0q44.48.19,89,.1h1.65c.47,12.06.23,24.16.12,36.22,0,4.84-1.88,3.52-3.2,3.14-1-.86-1-2.92-1-4.94a59.32,59.32,0,0,0-.63-9.76c-1.38-9.06-4.63-12.86-8.39-9.58-3.46,3-5.48,9.54-6.92,17.36-.41,2.25-.58,4.82-1.5,6.37-1,1.25-2.22,1.42-3.29.48-.75-1.83-.62-4.28-.75-6.54-.47-7.78-2.41-11.67-5.63-11.31a2.77,2.77,0,0,0-.82.18c-6.4,2.1-5.18.51-6,14-.13,2.06-.09,4.49-1.3,4.92-2-.89-4.07-.4-6.1-.55a3,3,0,0,1-2.59-1c-.71-1-.92-2.78-1.24-4.41-.95-4.7-1.92-6-4.12-5.32-.82.24-1.62.59-2.44.76-1.77.37-3.22,1.53-3.36,6.76,0,1.39-.43,2.56-1,2.9-1.32.34-2.64.55-3.9-.77q-.16-.3-.3-.64c-.59-1.15.13-4.34-.93-4.35s-1,3-1.31,4.92c-.22,1.46-.44,2.89-1.29,2.32-1.46-1.92-3-1.09-4.59-1.27-1-.12-2,.13-3-.63-1.58-3.06-3.11-.26-4.66.26-3.42,1-6.85.36-10.27.4C1.25,40,.58,39.31.1,38.08Z" class="cls-1"/><path id="path226" transform="translate(0.04 0)" d="M92.35,84H.51C.06,72.36.41,60.63.32,48.92c0-3.06,1-3.26,1.87-3.28a43.34,43.34,0,0,1,7.55.15c1.52,1.43.9,3.92.43,6.08-1,4.56-2.27,8.66-3.42,13a18.4,18.4,0,0,0-1,4.93c1.24,0,1.67-2,2.12-3.74,1.54-5.89,3.93-6.66,6.46-6.51,2.2.13,2.06,4.88,2.63,8.19.68.94,1.39,2.37,1.65-1-.41-4.81-1-9.48-1.42-14.26-.19-2.18-.54-4.51.39-6.34A5.11,5.11,0,0,1,24.12,46c1,1.56.84,3.93.7,6.22-.25,3.92-.66,7.76-.91,11.66-.07,1-.32,2.59.31,3s.91-1,1.05-2.39c.41-4,.67-8.08,1-12.13.2-2.59.39-5.28,1.58-6.52a2.58,2.58,0,0,1,3.75.28c1,1.7.7,4.09.55,6.34-.24,3.59-.54,7.15-.74,10.74-.05.95-.13,2.17.35,2.55s.82-.75,1-1.89c.5-4.3.72-8.74,1.08-13.11.18-2.18.09-4.75,1.13-6a3.33,3.33,0,0,1,2.59,1.88c-1.49,4.83.07,8.18,1,11.81a43.74,43.74,0,0,0,1.65,5.66c.48,1.17,1.15,1.74,1.65.82.61-1.09-.07-2.3-.26-3.41-.1-.44-.21-.86-.33-1.25-2.27-8.56-1.8-11.62,2.3-14.63,3-.61,6-1.27,9,.42,1.41,2.53.85,6,.67,9.16-.46,8-.49,7.85,2.8,7.3,1.79-.3,3.56-.52,5.22-2.34s3.17-4.78,4.09-8.72c.49-2.18.92-4.53,2-5.54a2.48,2.48,0,0,1,3.35.08c.82.91,1.14,2.79,1.44,4.63.86,5.32,2.38,8.8,4.7,10.06,1,1.44,2.06.65,3.09-.12,2.62-1.59,4.87-5.62,6.28-11.21.56-2.08,1.1-4.3,2.35-4.1a3.11,3.11,0,0,1,1.65-.14c2.08.29,2.47,1.21,2.45,6.28C92.45,62.26,92.81,73.17,92.35,84Z" class="cls-2"/><path id="path228" transform="translate(0.04 0)" d="M.1,38.08l12.85.1c.09,5-.68,7.48-2.6,8.44C6.93,46.2,3.51,47.2.1,46.07Z" class="cls-3"/><path id="path230" transform="translate(0.04 0)" d="M92.35,84c0-10.61-.1-21.23,0-31.82.06-4.53-.55-5.92-2.31-5.42a5.94,5.94,0,0,1-2.44-.31c-.54-3.54-.15-6.34,1.14-8.41,3.57,0,3.57,0,3.57-8.63V.1c.35-.19.41.14.41,1V83C92.77,83.91,92.72,84.24,92.35,84Z" class="cls-4"/><path id="path232" transform="translate(0.04 0)" d="M.1,46.07l10.71.11c.12.7,0,1-.28,1.1-2.8-.06-5.61,0-8.42-.24C.82,46.94.46,48.22.46,51.16c.05,11,0,21.93,0,32.89C-.42,84,.12,82.3.11,81.55Q.08,63.82.1,46.07Z" class="cls-5"/><path id="path234" transform="translate(0.04 0)" d="M88.78,38.08l-1.14,8.41C85.84,53.87,83.74,60.34,80,62c-1.1-.45-2.19.22-3.29.07C73,60.87,71.68,54.5,70.82,47a14.37,14.37,0,0,1,.07-8.87,79.2,79.2,0,0,1,3.2-16A21.83,21.83,0,0,1,78.46,14c4.84-4.93,9.21.68,10.27,13.14A82.56,82.56,0,0,1,88.78,38.08Z" class="cls-6"/><path id="path236" transform="translate(0.04 0)" d="M67.19,46.87C64.63,63.3,58.84,64.61,52.84,65c-1,.07-.91-1.23-.82-2.84.27-5.1.52-10.2.78-15.3a10.43,10.43,0,0,1,.51-7.18c.28-4.57.65-9.11.82-13.71.11-3.28.7-4.55,2-4.76s2.69-1,4-1.36c4.8-1.36,7.33,3.91,7.59,15.7,0,1,0,2,0,3A11.52,11.52,0,0,1,67.19,46.87Z" class="cls-6"/><path id="path238" transform="translate(0.04 0)" d="M42.79,46.88c-.92,1.91-2.58,3.79-2.59,5.75,0,2.63,1.24,5.29,1.92,8a26.81,26.81,0,0,1,1.31,5.51c-2.25,1.91-3.88,1.14-5-4.59-.86-4.46-2.13-8.45-3.23-12.72.79-1.31,1.73-.31,2.38-1.72.73-3.17,2.68-4.23,2.57-8.8-1.41-3.47-3.34-3-4,1.07-.27,2.19-.11,4.87-1.19,6.11-.48,6.54-1.07,13-1.4,19.63-.24,4.66-1.71,3.52-2.62,3.33-1.24-.26-.39-2.93-.31-4.36.3-5.76.75-11.47,1.14-17.2a12.25,12.25,0,0,1,.57-8.06c.94-9.39.94-9.4,5-10.68.41-.13.82-.22,1.24-.34,3.9-1.18,5.07.94,5.63,10.24C44.61,41.8,44.3,44.87,42.79,46.88Z" class="cls-6"/><path id="path240" transform="translate(0.04 0)" d="M10.52,47.28l.28-1.1a57.46,57.46,0,0,0,2.15-8c1.62-3.49,2.76-3.5,3.64,0a15.27,15.27,0,0,1,.88,8.73l2,21.18c-.82,2.65-1.89,1.37-2.88,1.15-1.26-8.47-1.24-8.21-5.16-7.58-1.65.27-2.24,2.84-2.82,5.53-1,4.42-2.29,6.27-4.5,4.79Z" class="cls-6"/><path id="path242" transform="translate(0.04 0)" d="M27.6,46.92c-.82,6.13-1,12.57-1.59,18.83-.26,2.86-1.8,5.09-2.84,4-.77-.81-.32-2.27-.24-3.4.45-6.5.95-13,1.43-19.48a8.56,8.56,0,0,1,.53-6.23c.16-1.39.28-2.81.35-4.25.09-3,.6-4.45,1.94-4.89s1.52.47,1.21,3.21c-.1,1.11-.18,2.24-.22,3.37A14.57,14.57,0,0,1,27.6,46.92Z" class="cls-7"/><path id="path244" transform="translate(0.04 0)" d="M42.79,46.88,44.11,38c2.5,0,5,0,7.49.11.63,0,1.4-.55,1.71,1.59l-.51,7.17Z" class="cls-8"/><path id="path246" transform="translate(0.04 0)" d="M24.9,40.66l-.54,6.23H17.47l-.88-8.74c2.25,0,4.5,0,6.75-.07C24.13,38.07,24.87,38,24.9,40.66Z" class="cls-9"/><path id="path248" transform="translate(0.04 0)" d="M27.6,46.92a75.19,75.19,0,0,1,.58-8.82c1.37.29,2.78-.69,4.12.7l-.57,8.06Z" class="cls-10"/><path id="path250" transform="translate(0.04 0)" d="M67.19,46.87l.59-8.31,3.13-.47L70.83,47Z" class="cls-11"/><path id="path252" transform="translate(0.04 0)" d="M40.83,38.11c.1,5.53-1.26,7.93-3.25,9-.85-.83-2,1-2.64-1.63l.6-7.36C37.3,35.77,39.06,35.06,40.83,38.11Z" class="cls-12"/><path id="path254" transform="translate(0.04 0)" d="M76.7,62.06c1-1.5,2.28-1.53,3.29-.07A2.19,2.19,0,0,1,76.7,62.06Z" class="cls-13"/><path id="path256" transform="translate(0.04 0)" d="M16.53,69.23c.87-1.79,2.06,1.11,2.88-1.15C19.2,70.79,17.89,71.33,16.53,69.23Z" class="cls-13"/><path id="path258" transform="translate(0.04 0)" d="M74.42,38.06c.44-6.12,1.59-11.26,3.79-14.58,1.65-2.47,3.49-3.43,5.17-.4,2.08,3.77,2.47,9.15,1.93,15.06-.55,1.25-1.27,1.93-2,1.91-2.29.09-4.58.12-6.88,0C75.66,40,74.92,39.69,74.42,38.06Z" class="cls-1"/><path id="path260" transform="translate(0.04 0)" d="M74.42,38.06l10.89.08a29.78,29.78,0,0,1-1.61,8.8c-3,3.09-6,3.75-9-.17A28.51,28.51,0,0,1,74.42,38.06Z" class="cls-14"/><path id="path262" transform="translate(0.04 0)" d="M74.68,46.77l9,.17c-1.28,5.1-3.17,7.57-5.6,7.06C76.33,53.62,75.14,51.07,74.68,46.77Z" class="cls-15"/><path id="path264" transform="translate(0.04 0)" d="M56.89,38c0-.66,0-1.33,0-2,.24-2.47-.26-6.15.86-7.14,1.56-1.37,3.35-2.2,5-.17s1.83,5.48,1.6,9.36C61.83,41.13,59.36,41.34,56.89,38Z" class="cls-16"/><path id="path266" transform="translate(0.04 0)" d="M56.89,38l7.46.08a29.47,29.47,0,0,1-.87,8.79c-2.24,3.29-5.51,3.1-7.15-.42A73.07,73.07,0,0,1,56.89,38Z" class="cls-8"/><path id="path268" transform="translate(0.04 0)" d="M56.32,46.49l7.15.42c-1.3,6.55-4.44,10.81-7.12,9.83-.75-.28-.63-1.31-.56-2.47C56,51.67,56.15,49.08,56.32,46.49Z" class="cls-17"/><path id="path270" transform="translate(0.04 0)" d="M40.83,38.11H35.54c-.12-5,1.6-3.07,2.49-3.6C39.21,33.8,40.53,34,40.83,38.11Z" class="cls-18"/><path id="path272" transform="translate(0.04 0)" d="M14.17,45.11c.9,10.34.9,10.34-2.43,10.5.09-.62.19-1.23.31-1.82C12.69,51.15,13.34,48.53,14.17,45.11Z" class="cls-19"/></svg>