<svg xmlns="http://www.w3.org/2000/svg" id="Calque_1" width="170" height="170" viewBox="0 0 1700.79 1700.79"><defs><style>
            .cls-1{fill:#000100;}.cls-2{fill:url(#linear-gradient);}.cls-3{fill:#f2931c;}.cls-3,.cls-4{fill-rule:evenodd;}.cls-4{fill:#bdce06;}
        </style><linearGradient id="linear-gradient" gradientUnits="userSpaceOnUse" x1="249.98" x2="392.6" y1="950.32" y2="644.46"><stop offset="0" stop-color="#006032"/><stop offset="0.15" stop-color="#006032"/><stop offset="0.45" stop-color="#00973e"/><stop offset="0.7" stop-color="#50ae3b"/><stop offset="0.96" stop-color="#a6c515"/></linearGradient></defs><path d="M559,931a24.5,24.5,0,0,0-4.39-.26h-9.83a22.9,22.9,0,0,0-4.19.26c-.24-3.28-.89-7.55-1.73-12.61s-1.65-10.2-2.5-15.46-1.69-10-2.57-14.68-1.58-8.13-2.06-10.81c-2-.14-5.55-.14-10.63-.35s-10.31-.12-16-.12c-4.51,0-8.82,0-13.21.12s-8.78.21-13.33.35c-1.81,2.72-4.11,6.52-7.05,11.21s-5.72,9.79-9,15c-3,5.21-5.92,10.4-8.74,15.42s-5,9-6.56,11.92a10.37,10.37,0,0,0-2.82-.26h-6.89a20.84,20.84,0,0,0-3.74.26c11.35-16.81,22.83-33.69,34-50.48q16.55-25.32,33.71-51.35c4.83-7.93,9.3-14.48,13-19.77,3.83-5.76,7.46-11.48,11-17.12h3.79c.64,3.34,1.73,8.86,3.17,16.27s3.15,15.59,4.88,24.69c2,9.26,4,19,6,29.28,2.1,10.08,4.07,19.77,6.08,28.83,2.06,9.38,3.83,17.52,5.52,24.49C556.7,923,558.11,928,559,931ZM518.52,816.62l-34.75,53.13c7.4.37,15.3.57,23.15.57s15.39-.2,23.2-.57l-11-53.13Z" class="cls-1"/><path d="M601.69,846.48c-1.13,4.63-2.54,9.62-3.75,15.46-1.45,5.72-2.9,11.66-4.19,18.17-1.45,6.36-2.77,12.88-4.11,19.06s-2.33,12.25-3.42,17.87c-.92,5.72-1.65,10.3-2.13,13.91a25,25,0,0,0-4.56-.26h-9a13.52,13.52,0,0,0-3.3.26c1.45-4.27,2.9-9.44,4.55-15.67,1.57-6.06,3.15-12.5,4.51-19.19,1.53-6.64,2.94-13.32,4.27-19.85s2.58-12.48,3.55-18.06,1.81-10,2.45-14,1-6.36,1.17-7.61a37.44,37.44,0,0,0,8.42.73,31.76,31.76,0,0,0,8.33-.73A95.88,95.88,0,0,0,601.69,846.48Zm-5.56-48.25a9.12,9.12,0,0,1,6.88-2.88,8.85,8.85,0,0,1,6.73,2.88A9.47,9.47,0,0,1,612.6,805a9.86,9.86,0,0,1-2.86,6.78,9.56,9.56,0,0,1-6.73,2.82,9.86,9.86,0,0,1-6.88-2.82,9.33,9.33,0,0,1-2.66-6.78A9,9,0,0,1,596.13,798.23Z" class="cls-1"/><path d="M661.17,851.43a10.46,10.46,0,0,0-4.39-.93c-4.59,0-9.31,2-13.61,5.91-4.56,4.08-7.82,10.05-10,18-.4.36-.93,2.17-1.37,4.59-.65,2.6-1.29,5.76-2.14,9.18s-1.61,7.37-2.57,11.48c-.93,4.45-1.65,8.46-2.46,12.56-.81,3.87-1.49,7.57-2.05,11-.61,3.24-1,5.84-1.29,7.67a14.7,14.7,0,0,0-3.46-.26h-8.3a18.24,18.24,0,0,0-4,.26c.85-2.28,1.77-5.86,2.94-10.45,1.25-4.91,2.66-10.15,4-16,1.25-6,2.61-12.2,4.11-18.66,1.33-6.55,2.57-12.87,3.78-19,1-6.27,2.22-11.95,3.06-17.36,1-5,1.53-9.59,2-12.93a30.23,30.23,0,0,0,3.66.63c1.41,0,2.78.1,4.11.1a25.85,25.85,0,0,0,7.45-.73c-.28.73-.61,1.89-1.09,3.63-.32,1.36-.93,2.94-1.61,5.13a64.51,64.51,0,0,0-1.25,6.42,43.26,43.26,0,0,0-1.24,6.39h1c2.21-2.6,4.39-5.32,6.61-8.14a48.7,48.7,0,0,1,6.88-7.59,30.9,30.9,0,0,1,8.42-5.21,21.28,21.28,0,0,1,10.39-2c-.72,3.22-1.25,6.12-1.57,8.62a58.66,58.66,0,0,0-.52,7.53l-1.82,1.07A9.94,9.94,0,0,0,661.17,851.43Z" class="cls-1"/><path d="M821.17,919.81c-.36,1.52-.68,3.19-1.17,5.16a114.41,114.41,0,0,1-15,5.62,88.16,88.16,0,0,1-24.4,3,96.4,96.4,0,0,1-24.45-3.3,53.11,53.11,0,0,1-35-29.12c-3.54-7.61-5.27-16.73-5.27-27.57a85.64,85.64,0,0,1,5.8-31.67,80.57,80.57,0,0,1,17-25.9A75.27,75.27,0,0,1,766,798.69c10.75-4.43,22.91-6.46,36.41-6.46a109.05,109.05,0,0,1,19.69,1.57,69.61,69.61,0,0,1,18.61,6.14,79.64,79.64,0,0,0-4,8.2,55.27,55.27,0,0,0-1.81,5.29c-1-.94-2.46-2.23-4.19-4a63,63,0,0,0-7.29-4.76,70.67,70.67,0,0,0-10.51-4.1,63.11,63.11,0,0,0-14.1-1.57c-10.47,0-19.89,2.09-28,6.36a63.06,63.06,0,0,0-20.42,17.24,74.5,74.5,0,0,0-12.56,24.32,93.15,93.15,0,0,0-4.31,28.35c0,9.59,1.09,17.08,3.54,22.66a39.13,39.13,0,0,0,8.1,13.27A43.52,43.52,0,0,0,762,922.76a57.68,57.68,0,0,0,19.78,3.66A73.18,73.18,0,0,0,802.93,923a102.5,102.5,0,0,0,19.45-9.59l.85.93A54.23,54.23,0,0,0,821.17,919.81Z" class="cls-1"/><path d="M836.68,872a64.13,64.13,0,0,1,11.16-18.65,57.14,57.14,0,0,1,17.55-13.59,55.32,55.32,0,0,1,23.28-5c7.82,0,14.66,1.13,20.18,3.38a34,34,0,0,1,13,8.66,32.48,32.48,0,0,1,7.28,12.49,52.11,52.11,0,0,1,2.22,14.49,64.15,64.15,0,0,1-15.38,41A56.31,56.31,0,0,1,898.06,928a52.83,52.83,0,0,1-23.53,5.12c-8.25,0-15-1.37-20.29-3.77a32.16,32.16,0,0,1-12.89-9.53,34.31,34.31,0,0,1-6.6-12.92,53.94,53.94,0,0,1-2-13.54A61.54,61.54,0,0,1,836.68,872Zm17.76,46.9c4,5.32,10.47,8.21,19.57,8.21,7.73,0,14-2,19.29-6.16a49.68,49.68,0,0,0,12.85-14.76,77,77,0,0,0,7.25-18.76,80.42,80.42,0,0,0,2.09-17.14,39.89,39.89,0,0,0-1.65-11.62,34.4,34.4,0,0,0-5-9.16,29.24,29.24,0,0,0-8.58-6.36,32.53,32.53,0,0,0-11.43-1.9c-7.1,0-13.38,1.9-18.53,5.84a43.42,43.42,0,0,0-12.45,14.2,66.42,66.42,0,0,0-7,18.5,82,82,0,0,0-2.22,18.27C848.64,906.5,850.65,913.49,854.44,918.93Zm67-95.85h-6.28l-16.55-21.47-27.51,21.47h-7l31.81-33.47H904Z" class="cls-1"/><path d="M971.23,825.58c-1,4.39-1.93,9.06-3.06,13.65a86.78,86.78,0,0,0,10.11-.42c3.66-.1,7.33-.31,10.67-.31a31.45,31.45,0,0,0-1.33,8.18c-3.3-.2-6.88-.32-10.59-.48-4-.31-7.41-.31-10.55-.31l-7.73,37.52c-.33,2.17-.81,4.51-1.37,7.17s-1,5.19-1.57,7.81c-.44,2.42-.85,4.91-1.25,7.09-.2,2.5-.4,4.47-.4,5.94a12.4,12.4,0,0,0,1.57,6.83,9.75,9.75,0,0,0,3.42,4.75,25.16,25.16,0,0,0,4.47,2.37,15.24,15.24,0,0,0,4.67.69,27.08,27.08,0,0,0,6.89-1,42,42,0,0,0,6.52-2.94l-.48,5.19a23.91,23.91,0,0,1-9.79,4.4,53.46,53.46,0,0,1-10.71,1.37,36.08,36.08,0,0,1-7.61-1.17,22.92,22.92,0,0,1-6.85-3.43,18.89,18.89,0,0,1-4.83-5.51,17,17,0,0,1-1.89-8.14,39.21,39.21,0,0,1,1-8.53c.57-3,1.13-6.17,1.82-9.39,1.44-6.87,2.57-12.5,3.46-16.55,1-4.39,1.77-8.22,2.54-11.6s1.45-6.85,2-10.31c.64-3.3,1.53-7.61,2.54-12.59h-6.12a56,56,0,0,0-6.85.47c.48-1.17.6-2.34.93-3.28a28.8,28.8,0,0,0,.32-4.58c2.13,0,4.14.21,6.36.31a34.4,34.4,0,0,0,6.16.42l3.67-21.14,17.4-6.59C973.49,816.31,972.2,821,971.23,825.58Z" class="cls-1"/><path d="M1040.58,930.69a71.17,71.17,0,0,1-16.91,2.09,57.89,57.89,0,0,1-13.42-1.67,34.52,34.52,0,0,1-13-6.5A36.28,36.28,0,0,1,987.54,912c-2.54-5.31-3.7-11.88-3.7-20A64.61,64.61,0,0,1,987.46,870,53.49,53.49,0,0,1,998,851.79a48.38,48.38,0,0,1,16.35-12.26,49,49,0,0,1,20.78-4.41,51.17,51.17,0,0,1,13.66,1.59,30.42,30.42,0,0,1,11.39,5.54,24.4,24.4,0,0,1,7.9,10.25c2.09,4.21,2.94,9.44,2.94,15.32a41.24,41.24,0,0,1-.85,9.57c-.44,2.72-.89,4.85-1.33,6.68-2.78-.16-5.35-.16-7.61-.46-2.42,0-4.51-.2-6.68-.2s-4.48-.12-6.85-.12c-2.46-.2-5.16-.2-8.13-.2h-21c-3.3,0-6.44.2-9.67.2s-5.91.12-8.45.12c-.08,1.45-.4,3.06-.61,4.87a64.36,64.36,0,0,0-.24,6.67c0,6.7.85,11.94,3.06,15.79a25.67,25.67,0,0,0,7.09,9.44,24.27,24.27,0,0,0,9.42,4.57,39.53,39.53,0,0,0,9.23,1.15,42,42,0,0,0,10.59-1.15,54.9,54.9,0,0,0,8.38-2.76,44,44,0,0,0,6.4-3.42,33.09,33.09,0,0,1,4.55-3h.48l-2.53,8.86A47,47,0,0,1,1040.58,930.69Zm-14.18-88.44a25.06,25.06,0,0,0-9.74,5.56,40.37,40.37,0,0,0-8.7,10.59,58.1,58.1,0,0,0-6,17.08c4,.32,8.62.52,13.57.6s9.47.16,13.57.16h6.28c3.39,0,7,0,10.64-.16a52.06,52.06,0,0,0,9.66-.6,24.86,24.86,0,0,0,.73-4.24,49.4,49.4,0,0,0,.36-6.48c0-4.59-.52-8.35-1.85-11.27A22.51,22.51,0,0,0,1050,846a25,25,0,0,0-7-4.06,31.34,31.34,0,0,0-7.86-1.13A30.62,30.62,0,0,0,1026.4,842.25Z" class="cls-1"/><path d="M1187.62,920.5a47.43,47.43,0,0,1-7.45,6.64,37.37,37.37,0,0,1-9.79,4.8,42.63,42.63,0,0,1-12.77,1.65,39.7,39.7,0,0,1-15.86-3,28.1,28.1,0,0,1-11.24-8.32,34.57,34.57,0,0,1-6.89-12.32,52.08,52.08,0,0,1-2-14.9,63.4,63.4,0,0,1,3.22-19.9,61.11,61.11,0,0,1,9.66-19.37,52.56,52.56,0,0,1,16.28-14.8,45.73,45.73,0,0,1,23-5.7,37.31,37.31,0,0,1,13.42,2.06,33.76,33.76,0,0,1,8.81,5.43,28.31,28.31,0,0,1,5.32,6.45c1.09,2.21,2,4.27,2.74,5.73h.68c2.5-12.7,5-25.37,7.53-38,2.54-12.33,4.71-24.29,6.41-35.2a33.43,33.43,0,0,0,8,.82,32,32,0,0,0,7.73-.82c-2.86,12.08-5.51,22.51-7.6,31.57s-4.2,17.88-5.85,26.24-3.5,16.77-5,25.31c-1.81,8.46-3.71,18.13-5.8,28.72-1.17,4.83-2.26,10.73-3.46,17.54s-2.42,13.15-3.51,19.85a10.05,10.05,0,0,0-2.74-.26h-8.21a14.61,14.61,0,0,0-3.42.26l4.34-17.24A72.23,72.23,0,0,1,1187.62,920.5Zm-43.94-1.93c4.19,5.19,10,7.85,17.88,7.85a28.15,28.15,0,0,0,18.93-6.61,49.32,49.32,0,0,0,11.84-15.26,75.2,75.2,0,0,0,6.24-18.66,85.93,85.93,0,0,0,1.85-16.14,55.47,55.47,0,0,0-.68-7.61,25.39,25.39,0,0,0-3.34-9.12,24.31,24.31,0,0,0-7.33-7.49c-3.22-2.15-7.69-3.08-13.13-3.08-7.7,0-14,2.1-19.09,6.16a44.93,44.93,0,0,0-12,15,55.31,55.31,0,0,0-5.92,17.72,81.31,81.31,0,0,0-1.65,15C1137.32,906.12,1139.45,913.49,1143.68,918.57Z" class="cls-1"/><path d="M1262.69,802.14c2.41-4.17,4.26-6.79,5.84-8a7.21,7.21,0,0,1,9.06-.14,5.3,5.3,0,0,1,1.85,4.43,9,9,0,0,1-1,3.83c-.72,1.69-2.29,3.74-4.83,6.58l-31.58,35.42-3.21-2Z" class="cls-1"/><path d="M1280.45,898.71c2.77-12.24,5.56-24.59,8.25-37.11s5.16-24.67,7.37-36.45,4.11-21.92,5.68-30.7c1.17.18,2.58.5,4,.6h9.34c1.53-.1,3-.42,4.39-.6-2.74,10.22-5.39,21.42-8.25,33.52-2.7,12-5.48,24.27-8,36.45s-5,24.18-7.33,35.74-4.15,21.83-5.64,30.79a19.25,19.25,0,0,0-4-.26h-9.43a24.67,24.67,0,0,0-4.47.26C1275.09,921.83,1277.75,911.1,1280.45,898.71Z" class="cls-1"/><path d="M1362.56,903.93c1.53-2.46,2.82-4.76,4.27-7.21s3-5.1,4.63-8.12,3.63-6.46,6.17-10.87c3.66-7.17,6.64-12.65,8.94-17,2.25-4.06,4.1-7.39,5.44-10.27,1.45-2.53,2.65-5.13,3.78-7.32,1-1.78,2-3.95,3.42-6.57a17.45,17.45,0,0,0,6.2.73c2.91,0,5.2-.1,6.81-.73-1.25,1.77-2.9,4.19-4.92,7.41s-4.18,6.85-6.76,10.63c-2.34,3.83-4.75,8-7.61,12-2.62,4.38-5.07,8.17-7.53,12.08-2.3,3.86-4.39,7.29-6.24,10.43-1.89,2.9-3.22,5.43-4.23,7.2-5.6,9.55-10,17.38-12.85,23.06-2.7,5.88-4.71,9.59-5.72,11.56a7.42,7.42,0,0,0-2.46-.26h-5.55a5.52,5.52,0,0,0-2.1.26,96.19,96.19,0,0,1-2.33-10.45c-.85-4.55-2.42-11.56-4.55-20.7-2.58-10.55-5-20.9-7.49-31.51s-5.12-21.17-7.74-31.68a24.77,24.77,0,0,0,7.45.73,27.79,27.79,0,0,0,7.78-.73c2.41,12.93,5.23,25.69,8,38.18,2.7,12.24,5.72,24.89,8.82,37.78h1.21C1359.38,909.22,1361,906.33,1362.56,903.93Z" class="cls-1"/><path d="M1406.42,872a67,67,0,0,1,11.2-18.65,56.76,56.76,0,0,1,17.6-13.59,55.36,55.36,0,0,1,23.23-5c7.9,0,14.62,1.13,20,3.38a34.43,34.43,0,0,1,13.29,8.66,34,34,0,0,1,7.25,12.49,49.24,49.24,0,0,1,2,14.49,59.85,59.85,0,0,1-3.9,21.75,62.71,62.71,0,0,1-11.44,19.29,54.42,54.42,0,0,1-17.8,13.13,53.36,53.36,0,0,1-23.36,5.12c-8.34,0-15.19-1.37-20.66-3.77a31.73,31.73,0,0,1-12.77-9.53,38.36,38.36,0,0,1-6.6-12.92,55.51,55.51,0,0,1-1.89-13.54A62.62,62.62,0,0,1,1406.42,872Zm17.88,46.9c4,5.32,10.31,8.21,19.45,8.21q11.49,0,19.29-6.16a46.88,46.88,0,0,0,12.81-14.76,72.21,72.21,0,0,0,7.17-18.76,81.83,81.83,0,0,0,2.26-17.14,40.23,40.23,0,0,0-1.69-11.62,27.15,27.15,0,0,0-5.16-9.16,26.83,26.83,0,0,0-8.26-6.36,32.76,32.76,0,0,0-11.47-1.9c-7.29,0-13.42,1.9-18.53,5.84a43.28,43.28,0,0,0-12.56,14.2,67.56,67.56,0,0,0-6.93,18.5,72.46,72.46,0,0,0-2.3,18.27C1418.38,906.5,1420.4,913.49,1424.3,918.93Z" class="cls-1"/><path d="M1537.35,846.48c-1,4.63-2.3,9.62-3.74,15.46s-2.75,11.66-4.16,18.17-2.77,12.88-4,19.06S1523,911.42,1522,917s-1.65,10.3-2.09,13.91a25.8,25.8,0,0,0-4.51-.26h-8.9a14,14,0,0,0-3.54.26c1.36-4.27,3-9.44,4.63-15.67,1.65-6.06,3.06-12.5,4.55-19.19s2.81-13.32,4.19-19.85,2.41-12.48,3.54-18.06c.93-5.52,1.77-10,2.46-14s.92-6.36,1.16-7.61a37.64,37.64,0,0,0,8.46.73,30.41,30.41,0,0,0,8.14-.73C1539.4,838.71,1538.72,841.93,1537.35,846.48Zm-5.4-48.25a8.83,8.83,0,0,1,6.77-2.88,9,9,0,0,1,6.81,2.88,9.18,9.18,0,0,1,2.89,6.81,9.55,9.55,0,0,1-2.89,6.78,9.69,9.69,0,0,1-6.81,2.82,9.53,9.53,0,0,1-6.77-2.82,8.8,8.8,0,0,1-2.74-6.78A8.51,8.51,0,0,1,1532,798.23Z" class="cls-1"/><path d="M1597,851.43a10.84,10.84,0,0,0-4.35-.93c-4.71,0-9.22,2-13.77,5.91-4.39,4.08-7.69,10.05-10,18a26.62,26.62,0,0,0-1.33,4.59c-.68,2.6-1.36,5.76-2.13,9.18s-1.69,7.37-2.42,11.48c-.84,4.45-1.77,8.46-2.41,12.56-.81,3.87-1.74,7.57-2.18,11A63.71,63.71,0,0,0,1557,931a15.7,15.7,0,0,0-3.46-.26h-8.3a17.89,17.89,0,0,0-3.86.26c.8-2.28,1.81-5.86,3-10.45,1.17-4.91,2.33-10.15,3.78-16,1.33-6,2.74-12.2,4.15-18.66s2.62-12.87,3.78-19,2.14-11.95,3-17.36c1-5,1.65-9.59,2.05-12.93a29.81,29.81,0,0,0,3.62.63c1.46,0,2.83.1,4.23.1a24.2,24.2,0,0,0,7.29-.73c-.2.73-.56,1.89-1.09,3.63-.28,1.36-.84,2.94-1.48,5.13-.45,2.12-.93,4.17-1.46,6.42s-.76,4.31-1.12,6.39h1.12c2.1-2.6,4.31-5.32,6.37-8.14a65.29,65.29,0,0,1,7-7.59,27.69,27.69,0,0,1,8.45-5.21,20.84,20.84,0,0,1,10.23-2c-.56,3.22-1.09,6.12-1.45,8.62a52.24,52.24,0,0,0-.48,7.53l-1.77,1.07A10.46,10.46,0,0,0,1597,851.43Z" class="cls-1"/><path d="M1656.16,930.69a69.52,69.52,0,0,1-16.8,2.09,59.33,59.33,0,0,1-13.57-1.67,33.53,33.53,0,0,1-12.77-6.5,35.11,35.11,0,0,1-9.79-12.57c-2.53-5.31-3.74-11.88-3.74-20a62.08,62.08,0,0,1,3.7-22.07,50.49,50.49,0,0,1,10.51-18.17,49.36,49.36,0,0,1,16.16-12.26,49.93,49.93,0,0,1,21-4.41,52.45,52.45,0,0,1,13.69,1.59,32.08,32.08,0,0,1,11.36,5.54,25.56,25.56,0,0,1,7.77,10.25,37.63,37.63,0,0,1,2.94,15.32,43.79,43.79,0,0,1-.81,9.57c-.52,2.72-1,4.85-1.36,6.68-2.66-.16-5.24-.16-7.54-.46-2.37,0-4.46-.2-6.72-.2s-4.47-.12-6.85-.12c-2.41-.2-5.11-.2-8.21-.2h-20.9c-3.27,0-6.49.2-9.67.2s-5.92.12-8.34.12a47.7,47.7,0,0,0-.68,4.87,41.21,41.21,0,0,0-.32,6.67c0,6.7,1,11.94,2.94,15.79a27.23,27.23,0,0,0,7.33,9.44,23.58,23.58,0,0,0,9.46,4.57,37.93,37.93,0,0,0,9.3,1.15,39.58,39.58,0,0,0,10.27-1.15,56.84,56.84,0,0,0,8.54-2.76,45,45,0,0,0,6.36-3.42,42.39,42.39,0,0,1,4.52-3h.6l-2.66,8.86A46.2,46.2,0,0,1,1656.16,930.69Zm-14.26-88.44a24.92,24.92,0,0,0-9.55,5.56,41,41,0,0,0-8.73,10.59,53.58,53.58,0,0,0-6.09,17.08c4.07.32,8.62.52,13.45.6s9.55.16,13.66.16H1651c3.46,0,6.89,0,10.51-.16a52.64,52.64,0,0,0,9.7-.6,18.72,18.72,0,0,0,.77-4.24,37.12,37.12,0,0,0,.49-6.48c0-4.59-.57-8.35-1.94-11.27a19.23,19.23,0,0,0-5-7.5,25.56,25.56,0,0,0-6.85-4.06,32.39,32.39,0,0,0-7.81-1.13A31.82,31.82,0,0,0,1641.9,842.25Z" class="cls-1"/><path d="M192.75,786c-31.81,54.77-10.63,126.33,47.48,160.29s131.09,17.09,162.91-37.5,10.71-126.38-47.36-160.45a129.06,129.06,0,0,0-64-17.52c-40.19,0-78.12,19.66-99,55.18" class="cls-2"/><path d="M6.57,843a86.65,86.65,0,0,0,5,12,114.9,114.9,0,0,0,7.86,13.34,90.79,90.79,0,0,0,13.77,15.32,83.86,83.86,0,0,0,20.94,13.33A112,112,0,0,0,82,905.18c20.58,3.48,44.86,2.55,70.6-2.3,6.24-1.23,12.81-2.56,19.37-4.29,3.26-.83,6.45-1.65,9.51-2.59,3.26-1.2,6.44-2.28,9.5-3.65A251.54,251.54,0,0,0,229.6,873.6c26.1-14.9,52.24-33.81,78.78-53.82,6.64-5.14,13.33-10.35,20-15.47,3.43-2.7,6.65-5.31,10.11-8,1.61-1.21,3.26-2.58,5-3.91l2.61-2.09,1.13-1s.81-.4.52-.32l.08-.08.33-.33L349,788c14.86-10.71,31.17-19.85,48.85-26a143.29,143.29,0,0,1,55-8.56,128.73,128.73,0,0,1,27.22,4.12,104.45,104.45,0,0,1,25.25,9.87v.16a80.22,80.22,0,0,0-12.8-3.32,132,132,0,0,0-36.25-1.39,146.33,146.33,0,0,0-52.68,15.45,168.55,168.55,0,0,0-28.51,17.76c-2.38,1.57-4.67,3.56-7.05,5.33-1.13,1.13-2.42,2-3.5,3.18-.69.45-1.13.91-1.81,1.37l-.29.33-.36.32h-.2c.77-.41.2,0,.2,0l-.8.72c-4.84,4.49-9.79,9-14.9,13.65a690.21,690.21,0,0,1-69.44,55.94,412.41,412.41,0,0,1-42.2,25.64c-7.46,3.94-15.51,7.51-23.52,10.85-4.15,1.55-8.38,3.22-12.57,4.47a56.41,56.41,0,0,1-6.32,1.93c-2.13.69-4.31,1.42-6.73,2a208,208,0,0,1-26.5,4.69,211,211,0,0,1-27.06,2c-18.24.47-36.89-1.37-54.93-6.68a113.55,113.55,0,0,1-26.18-11.24,90,90,0,0,1-22.15-17.88,83.8,83.8,0,0,1-15.06-23.6A95.38,95.38,0,0,1,6.57,843Z" class="cls-3"/><path d="M185.58,937.09s12.09-.16,31-6.5a216.44,216.44,0,0,0,32.87-14,360.13,360.13,0,0,0,39.3-23.92c13.78-9.62,27.91-20.88,42.45-33.38,3.79-3,7.41-6.31,11.2-9.79,1.77-1.57,3.54-3.18,5.47-4.79.89-1,1.86-1.78,2.66-2.62L352,840.8h.25c-.89.6-.25,0-.29.18v-.18l.33-.32,1-.69a208.31,208.31,0,0,1,25.21-21.7,193.1,193.1,0,0,1,29.84-18.15A146.76,146.76,0,0,1,442,788.48a116,116,0,0,1,36-1.87,109.9,109.9,0,0,1,17.56,3.65c5.56,2,11,4,15.91,7.13h0a73.76,73.76,0,0,0-8.34-1.31,91,91,0,0,0-23,.18,127.55,127.55,0,0,0-33.63,8.88,190.69,190.69,0,0,0-38.78,22.45c-6.44,4.87-13.05,10.47-19.53,16.43-3.26,3.1-6.53,6.24-9.75,9.47a64.54,64.54,0,0,0-4.87,4.91c-.32.52-.93.76-1.21,1.29l-.56.68-.24.12c.32-.32-.65.49-.49.28L371,861l-.28.34c-.89,1-1.77,1.77-2.7,2.8a333.7,333.7,0,0,1-50.34,39.58c-18.85,12.25-39.83,22.72-62.26,29.41a175.74,175.74,0,0,1-34.72,6.44,92.84,92.84,0,0,1-17.8.32,69.77,69.77,0,0,1-17.32-2.78Z" class="cls-4"/></svg>