<svg xmlns="http://www.w3.org/2000/svg" id="Layer_1" width="70" height="70" x="0" y="0" enable-background="new 0 0 70 70" version="1.1" viewBox="0 0 70 70" xml:space="preserve"><path fill="#D9213F" fill-rule="evenodd" d="M59.606,20.742c0.982,0.657,1.951,1.282,2.875,1.973 c3.061,2.289,5.096,5.227,5.785,9.049c0.969,5.372-1.065,9.659-4.808,13.292c-3.664,3.558-8.146,5.685-12.943,7.277 c-4.381,1.455-8.853,2.359-13.455,2.592c-6.177,0.312-12.269-0.341-18.215-2.034c-4.613-1.312-8.833-3.428-12.375-6.751 C0.808,40.826-0.39,31.665,5.488,25.068c2.036-2.283,4.486-3.998,7.2-5.365c3.786-1.905,7.835-2.967,11.98-3.712 c7.829-1.407,15.669-1.163,23.524-0.214c3.11,0.376,6.189,0.878,9.198,1.738c2.479,0.708,4.874,1.66,7.213,2.747 c0.26,0.121,0.633,0.261,0.552,0.603c-0.079,0.341-0.473,0.309-0.762,0.303c-0.34-0.008-0.73,0.026-1.009-0.123 C62.168,20.391,60.86,21.033,59.606,20.742z" clip-rule="evenodd"/><path fill="#FFF" fill-rule="evenodd" d="M14.922,34.723c0.698,1.713,1.319,3.248,1.949,4.779 c0.875,2.13,1.744,4.262,2.64,6.382c0.549,1.301,2.908,2.239,4.231,1.729c0.756-0.291,1.052-0.848,1.113-1.634 c0.348-4.459,0.766-8.91,1.721-13.289c0.442-2.028,1.053-4.015,1.673-5.993c0.263-0.838,0.318-1.557-0.332-2.208 c-0.669-0.67-1.567-0.798-2.355-0.538c-1.079,0.357-2.042,0.885-2.453,2.205c-0.979,3.146-1.704,6.338-2.209,9.587 c-0.014,0.088-0.034,0.175-0.089,0.455c-0.28-0.678-0.492-1.201-0.71-1.723c-0.22-0.525-0.451-1.046-0.671-1.572 c-0.791-1.893-1.618-3.774-1.903-5.834c-0.032-0.229-0.123-0.433-0.318-0.585c-1.926-1.502-4.379-0.619-5.036,1.064 c-0.499,1.276-0.892,2.586-1.307,3.887c-0.902,2.823-1.936,5.601-2.923,8.395c-0.02,0.056-0.075,0.099-0.171,0.221 c-0.781-1.475-1.204-2.989-1.3-4.589c-0.195-3.257,1.162-5.887,3.379-8.144c2.054-2.092,4.574-3.448,7.265-4.521 c4.063-1.618,8.303-2.443,12.647-2.775c5.87-0.449,11.756-0.542,17.511,0.801c3.829,0.893,7.743,1.743,11.107,3.997 c2.351,1.574,4.295,3.5,4.97,6.367c0.713,3.031,0.189,5.886-1.432,8.54c-0.726,1.19-1.804,2.039-2.845,2.975 c-0.06-0.101-0.119-0.152-0.116-0.201c0.185-2.82,0.128-5.659,0.518-8.467c0.253-1.83,0.581-3.649,0.832-5.479 c0.241-1.76-1.904-3.396-3.539-2.73c-0.982,0.398-1.26,1.254-1.411,2.184c-0.754,4.671-0.96,9.389-1.293,14.098 c-0.102,1.441,0.186,2.463,1.547,3.107c-0.503,0.47-1.073,0.742-1.629,1.036c-3.184,1.677-6.623,2.598-10.125,3.245 c-7.761,1.433-15.486,1.147-23.149-0.746c-3.16-0.78-6.019-2.217-8.706-4.027c-0.286-0.192-0.396-0.374-0.252-0.73 C12.944,41.027,13.779,37.941,14.922,34.723z" clip-rule="evenodd"/><path fill="#FDFDFC" fill-rule="evenodd" d="M37.688,17.975c-0.173,0.317-0.086,0.571-0.119,0.812 c-0.028,0.204-0.025,0.443-0.307,0.443c-0.259,0-0.349-0.235-0.352-0.43c-0.006-0.384,0.048-0.768,0.078-1.151 c0.03-0.385,0.032-0.775,0.103-1.153c0.069-0.37-0.185-0.927,0.528-0.978c0.913-0.065,1.776,0.282,1.925,0.844 C39.711,17,39.346,17.394,38.85,17.7c-0.085,0.053-0.188,0.08-0.356,0.148c0.312,0.293,0.583,0.533,0.835,0.791 c0.131,0.134,0.38,0.269,0.188,0.501c-0.185,0.222-0.417,0.115-0.615-0.009c-0.376-0.231-0.616-0.6-0.918-0.907 C37.906,18.146,37.815,18.082,37.688,17.975z" clip-rule="evenodd"/><path fill="#FDFDFC" fill-rule="evenodd" d="M48.164,50.574c-0.09,0.408-0.15,0.69-0.214,0.973 c-0.049,0.225-0.096,0.492-0.338,0.551c-0.29,0.069-0.43-0.193-0.574-0.397c-0.152-0.218-0.302-0.438-0.514-0.743 c-0.229,0.487-0.177,0.915-0.197,1.325c-0.014,0.298,0.037,0.692-0.358,0.687c-0.489-0.007-0.342-0.444-0.316-0.738 c0.059-0.68,0.151-1.357,0.213-2.037c0.018-0.191,0.015-0.387,0.231-0.438c0.188-0.045,0.354,0.057,0.478,0.205 c0.072,0.086,0.114,0.202,0.194,0.278c0.216,0.206,0.28,0.713,0.612,0.607c0.267-0.083,0.238-0.554,0.275-0.863 c0.035-0.278,0.008-0.6,0.357-0.643c0.298-0.037,0.372,0.271,0.5,0.484c0.316,0.525,0.65,1.04,0.979,1.56 c0.13,0.206,0.234,0.434-0.036,0.587c-0.251,0.141-0.442-0.034-0.559-0.24C48.699,51.377,48.546,50.996,48.164,50.574z" clip-rule="evenodd"/><path fill="#FBFBFB" fill-rule="evenodd" d="M46.498,16.269c0.984,0.009,1.686,0.627,1.693,1.492 c0.011,1.142-0.947,2.252-1.947,2.257c-0.897,0.005-1.688-0.76-1.679-1.626C44.577,17.185,45.42,16.259,46.498,16.269z" clip-rule="evenodd"/><path fill="#FDFDFC" fill-rule="evenodd" d="M30.172,52.327c-0.072,0.555-0.12,0.96-0.177,1.365 c-0.029,0.21-0.094,0.433-0.349,0.428c-0.276-0.006-0.406-0.214-0.375-0.472c0.097-0.789,0.213-1.577,0.325-2.364 c0.021-0.146,0.104-0.264,0.251-0.285c0.229-0.033,0.38,0.109,0.515,0.275c0.338,0.417,0.499,0.959,1.009,1.444 c0.053-0.48,0.094-0.847,0.133-1.214c0.02-0.186,0.031-0.386,0.283-0.384c0.205,0.003,0.369,0.121,0.36,0.333 c-0.031,0.817-0.076,1.635-0.138,2.45c-0.012,0.151-0.123,0.296-0.318,0.308c-0.211,0.012-0.339-0.105-0.433-0.276 C30.966,53.406,30.678,52.875,30.172,52.327z" clip-rule="evenodd"/><path fill="#FBFBFB" fill-rule="evenodd" d="M45.38,51.884c0.012,0.808-0.544,1.379-1.356,1.39 c-0.939,0.012-1.798-0.753-1.801-1.606c-0.002-0.869,0.697-1.504,1.688-1.529C44.705,50.118,45.364,50.9,45.38,51.884z" clip-rule="evenodd"/><path fill="#FBF7F8" fill-rule="evenodd" d="M26.406,19.079c-0.01,0.395,0.023,0.679-0.29,0.697 c-0.319,0.019-0.303-0.279-0.335-0.498c-0.141-0.965-0.159-0.965-1.08-0.747c-0.285,0.067-0.395,0.165-0.33,0.451 c0.045,0.2,0.084,0.403,0.102,0.607c0.017,0.201,0.05,0.442-0.221,0.501c-0.274,0.061-0.361-0.166-0.394-0.368 c-0.141-0.854-0.269-1.71-0.392-2.568c-0.033-0.229,0.059-0.428,0.307-0.449c0.292-0.024,0.286,0.235,0.324,0.43 c0.146,0.766,0.5,0.95,1.219,0.635c0.414-0.181,0.13-0.51,0.165-0.771c0.03-0.228-0.279-0.585,0.207-0.636 c0.455-0.046,0.32,0.352,0.362,0.586C26.189,17.711,26.307,18.477,26.406,19.079z" clip-rule="evenodd"/><path fill="#FBFBFB" fill-rule="evenodd" d="M34.636,52.85c0,0.486,0.021,0.802-0.006,1.115 c-0.022,0.253-0.188,0.427-0.461,0.395c-0.25-0.029-0.328-0.23-0.317-0.453c0.04-0.796,0.089-1.592,0.134-2.387 c0.012-0.199,0.076-0.374,0.31-0.366c0.194,0.006,0.353,0.096,0.374,0.322c0.012,0.13,0.017,0.261,0.026,0.432 c0.457-0.135,0.812-0.361,1.13-0.658c0.192-0.178,0.412-0.236,0.584,0.005c0.175,0.24-0.063,0.355-0.195,0.503 c-0.28,0.312-0.979,0.344-0.917,0.754c0.047,0.303,0.634,0.523,0.981,0.777c0.146,0.107,0.302,0.202,0.446,0.314 c0.166,0.127,0.346,0.274,0.178,0.502c-0.15,0.202-0.377,0.168-0.552,0.04C35.822,53.762,35.306,53.359,34.636,52.85z" clip-rule="evenodd"/><path fill="#FBF8F9" fill-rule="evenodd" d="M27.647,19.605c-0.63,0.264-0.681-0.183-0.707-0.765 c-0.033-0.704-0.119-1.411-0.249-2.103c-0.074-0.397,0.015-0.553,0.409-0.574c0.456-0.024,0.909-0.081,1.365-0.108 c0.198-0.012,0.441-0.045,0.455,0.264c0.012,0.272-0.196,0.342-0.405,0.371c-0.27,0.039-0.544,0.059-0.817,0.074 c-0.22,0.012-0.334,0.085-0.308,0.334c0.025,0.242,0.152,0.304,0.366,0.283c0.228-0.021,0.455-0.042,0.683-0.045 c0.176-0.003,0.399-0.038,0.441,0.208c0.045,0.259-0.15,0.364-0.361,0.415c-0.176,0.042-0.36,0.076-0.539,0.069 c-0.33-0.012-0.501,0.057-0.466,0.454c0.036,0.399,0.194,0.519,0.568,0.436c0.154-0.034,0.318-0.041,0.477-0.035 c0.211,0.009,0.537-0.128,0.583,0.172c0.051,0.333-0.274,0.442-0.549,0.487C28.324,19.586,28.047,19.581,27.647,19.605z" clip-rule="evenodd"/><path fill="#FBFBFB" fill-rule="evenodd" d="M31.997,16.266c-0.202,0.02-0.408,0.023-0.606,0.064 c-0.189,0.039-0.338,0.162-0.353,0.368c-0.016,0.226,0.166,0.31,0.341,0.364c0.217,0.068,0.443,0.104,0.661,0.167 c0.713,0.207,0.979,0.952,0.561,1.564c-0.372,0.545-1.528,0.729-2.042,0.316c-0.161-0.128-0.342-0.288-0.232-0.514 c0.13-0.267,0.343-0.126,0.526-0.041c0.185,0.086,0.363,0.198,0.58,0.169c0.343-0.046,0.631-0.188,0.677-0.561 c0.048-0.395-0.271-0.405-0.545-0.44c-0.045-0.006-0.089-0.022-0.132-0.034c-0.467-0.123-0.977-0.229-1.063-0.809 c-0.072-0.486,0.242-0.805,0.628-1.046c0.505-0.316,1.005-0.194,1.498,0.034c0.133,0.062,0.209,0.191,0.123,0.336 C32.453,16.478,32.209,16.282,31.997,16.266z" clip-rule="evenodd"/><path fill="#FBF8F9" fill-rule="evenodd" d="M50.441,17.655c-0.079-0.024-0.275-0.081-0.47-0.144 c-0.321-0.103-0.598-0.204-0.696,0.304c-0.104,0.536,0.312,0.389,0.54,0.473c0.19,0.07,0.401,0.079,0.601,0.126 c0.155,0.038,0.331,0.091,0.301,0.299c-0.029,0.217-0.21,0.302-0.403,0.285c-0.248-0.021-0.506-0.052-0.733-0.141 c-0.448-0.175-0.619-0.01-0.686,0.426c-0.043,0.291-0.15,0.572-0.236,0.855c-0.069,0.228-0.244,0.259-0.438,0.196 c-0.182-0.059-0.228-0.205-0.18-0.384c0.254-0.969,0.504-1.94,0.765-2.908c0.092-0.342,0.374-0.389,0.657-0.323 c0.419,0.099,0.832,0.23,1.239,0.372c0.152,0.054,0.403,0.09,0.315,0.35C50.951,17.637,50.763,17.685,50.441,17.655z" clip-rule="evenodd"/><path fill="#FDFDFC" fill-rule="evenodd" d="M33.306,17.456c0-0.386,0.042-0.778-0.01-1.158 c-0.071-0.521,0.161-0.688,0.631-0.717c0.799-0.048,1.535,0.369,1.627,0.944c0.106,0.669-0.372,1.324-1.217,1.466 c-0.519,0.087-0.448,0.38-0.47,0.714c-0.016,0.235,0.027,0.577-0.329,0.563c-0.355-0.014-0.28-0.348-0.285-0.586 c-0.008-0.409-0.002-0.818-0.002-1.227C33.269,17.456,33.288,17.456,33.306,17.456z" clip-rule="evenodd"/><path fill="#FBF8F9" fill-rule="evenodd" d="M41.138,51.188c-0.425-0.02-0.76,0.102-0.898,0.555 c-0.16,0.53-0.089,1.019,0.361,1.354c0.348,0.26,0.737,0.189,1.062-0.109c0.197-0.181,0.417-0.361,0.628-0.071 c0.213,0.293-0.08,0.45-0.259,0.605c-0.522,0.45-1.269,0.475-1.836,0.074c-0.637-0.448-0.894-1.274-0.621-2.003 c0.24-0.641,0.898-1.051,1.567-0.961c0.218,0.03,0.524,0.039,0.521,0.33C41.658,51.309,41.354,51.199,41.138,51.188z" clip-rule="evenodd"/><path fill="#FBF7FA" fill-rule="evenodd" d="M21.029,18.04c-0.279,0-0.579,0.06-0.6-0.305 c-0.017-0.292,0.229-0.349,0.465-0.388c0.559-0.095,1.116-0.2,1.675-0.292c0.218-0.036,0.481-0.115,0.56,0.198 c0.075,0.298-0.141,0.432-0.385,0.436c-0.66,0.012-0.56,0.381-0.449,0.82c0.127,0.504,0.214,1.022,0.281,1.538 c0.029,0.225,0.102,0.551-0.273,0.583c-0.322,0.028-0.313-0.259-0.357-0.476c-0.112-0.556-0.24-1.108-0.335-1.667 C21.548,18.116,21.436,17.867,21.029,18.04z" clip-rule="evenodd"/><path fill="#FBF6F8" fill-rule="evenodd" d="M43.276,16.625c-0.472-0.183-0.51,0.1-0.54,0.473 c-0.058,0.68-0.164,1.356-0.249,2.035c-0.022,0.19-0.059,0.379-0.306,0.367c-0.282-0.014-0.317-0.226-0.294-0.442 c0.072-0.68,0.14-1.36,0.242-2.035c0.055-0.36-0.012-0.57-0.415-0.598c-0.232-0.016-0.496-0.068-0.439-0.387 c0.057-0.319,0.33-0.245,0.553-0.218c0.498,0.057,0.994,0.112,1.489,0.181c0.273,0.038,0.71-0.039,0.688,0.353 C43.983,16.76,43.569,16.633,43.276,16.625z" clip-rule="evenodd"/><path fill="#FBF9F9" fill-rule="evenodd" d="M24.076,52.038c-0.096-0.018-0.214-0.02-0.318-0.06 c-0.422-0.162-0.615-0.019-0.711,0.421c-0.069,0.315-0.032,0.921-0.497,0.789c-0.464-0.132-0.099-0.64-0.029-0.959 c0.13-0.599,0.348-1.177,0.507-1.77c0.079-0.294,0.227-0.438,0.534-0.368c0.398,0.091,0.796,0.189,1.193,0.288 c0.141,0.036,0.26,0.126,0.242,0.283c-0.022,0.187-0.167,0.274-0.344,0.246c-0.246-0.038-0.495-0.085-0.729-0.168 c-0.279-0.097-0.428-0.03-0.5,0.26c-0.073,0.295,0.099,0.353,0.325,0.382c0.135,0.019,0.268,0.05,0.403,0.073 c0.216,0.038,0.427,0.111,0.382,0.376C24.495,52.068,24.277,52.044,24.076,52.038z" clip-rule="evenodd"/><path fill="#FBF6F8" fill-rule="evenodd" d="M27.131,53.429c-0.005,0.035-0.006-0.037,0.016-0.101 c0.269-0.748,0.156-1.417-0.373-2.025c-0.129-0.149-0.375-0.379-0.078-0.575c0.267-0.174,0.394,0.104,0.534,0.271 c0.044,0.053,0.085,0.108,0.116,0.169c0.273,0.539,0.601,0.691,1.043,0.162c0.071-0.086,0.179-0.14,0.267-0.213 c0.183-0.15,0.381-0.312,0.583-0.055c0.216,0.277-0.044,0.411-0.223,0.535c-0.691,0.484-1.288,1.01-1.183,1.979 c0.025,0.235-0.084,0.487-0.377,0.458C27.193,54.01,27.088,53.795,27.131,53.429z" clip-rule="evenodd"/><path fill="#FBF7F7" fill-rule="evenodd" d="M26.227,53.672c-1.573-0.275-1.527,0.129-1.203-1.525 c0.07-0.358,0.124-0.721,0.205-1.075c0.057-0.242,0.004-0.636,0.425-0.548c0.348,0.072,0.229,0.385,0.19,0.626 c-0.07,0.428-0.133,0.856-0.218,1.28c-0.073,0.368,0.015,0.579,0.434,0.552c0.089-0.007,0.184,0.007,0.271,0.033 c0.218,0.063,0.491,0.122,0.446,0.416C26.731,53.735,26.456,53.689,26.227,53.672z" clip-rule="evenodd"/><path fill="#FBF7F7" fill-rule="evenodd" d="M38.063,53.565c0.027,0.321,0.074,0.705-0.396,0.695 c-0.42-0.009-0.372-0.371-0.383-0.668c-0.023-0.705-0.05-1.41-0.091-2.113c-0.015-0.256,0.008-0.476,0.301-0.517 c0.304-0.044,0.4,0.178,0.42,0.422C37.972,52.111,38.015,52.839,38.063,53.565z" clip-rule="evenodd"/><path fill="#FBF2F3" fill-rule="evenodd" d="M40.838,16.825c-0.082,0.724-0.161,1.448-0.245,2.172 c-0.024,0.202-0.026,0.45-0.333,0.4c-0.272-0.044-0.264-0.278-0.253-0.484c0.051-0.933,0.11-1.865,0.157-2.798 c0.009-0.18,0.043-0.329,0.241-0.341c0.198-0.011,0.369,0.068,0.383,0.296c0.016,0.25,0.004,0.501,0.004,0.752 C40.808,16.822,40.823,16.824,40.838,16.825z" clip-rule="evenodd"/><path fill="#FBF3F3" fill-rule="evenodd" d="M36.477,17.151c-0.053,0.566-0.096,1.11-0.153,1.652 c-0.021,0.186-0.077,0.374-0.327,0.351c-0.244-0.022-0.278-0.221-0.272-0.403c0.03-0.932,0.073-1.864,0.111-2.796 c0.01-0.209,0.097-0.351,0.324-0.358c0.294-0.01,0.317,0.197,0.317,0.416C36.477,16.399,36.477,16.786,36.477,17.151z" clip-rule="evenodd"/><path fill="#FBF6F7" fill-rule="evenodd" d="M33.256,52.725c0,0.409,0.013,0.818-0.005,1.227 c-0.009,0.188-0.106,0.373-0.332,0.355c-0.201-0.015-0.328-0.163-0.325-0.371c0.01-0.818,0.025-1.637,0.048-2.453 c0.005-0.21,0.121-0.342,0.35-0.321c0.248,0.021,0.371,0.172,0.363,0.408c-0.014,0.385-0.048,0.77-0.074,1.155 C33.272,52.725,33.264,52.725,33.256,52.725z" clip-rule="evenodd"/><path fill="#F8E2E5" fill-rule="evenodd" d="M39.323,53.666c-0.003,0.267-0.07,0.496-0.356,0.486 c-0.304-0.009-0.384-0.274-0.426-0.524c-0.043-0.268,0.09-0.458,0.359-0.451C39.194,53.185,39.302,53.415,39.323,53.666z" clip-rule="evenodd"/><path fill="#D9213F" fill-rule="evenodd" d="M42.104,30.031c0.731-0.51,1.303-0.879,1.842-1.291 c1.622-1.238,3.384-2.239,5.232-3.086c1.165-0.533,2.322-0.539,3.463,0.169c1.086,0.673,1.428,1.66,1.366,2.856 c-0.015,0.299-0.134,0.539-0.472,0.574c-1.725,0.185-3.23,0.973-4.658,1.854c-1.765,1.088-3.433,2.333-5.155,3.493 c-0.374,0.252-0.265,0.364,0.045,0.547c2.817,1.666,5.294,3.808,7.948,5.702c1.143,0.814,1.623,2.428,1.26,3.655 c-0.226,0.763-0.746,1.181-1.442,1.294c-1.021,0.163-1.994,0.114-2.855-0.703c-2.21-2.095-4.746-3.771-7.275-5.449 c-0.071-0.047-0.16-0.068-0.312-0.132c-0.223,1.899-0.439,3.75-0.658,5.602c-0.043,0.361-0.083,0.724-0.139,1.084 c-0.176,1.163-1.399,2.229-2.651,2.317c-0.875,0.062-2.078-0.853-2.419-1.85c-0.225-0.657-0.275-1.312-0.151-2.016 c0.427-2.425,0.804-4.857,1.199-7.287c0.105-0.644,0.104-1.213-0.402-1.771c-0.583-0.645-0.412-1.345,0.349-1.84 c0.365-0.237,0.513-0.515,0.536-0.945c0.13-2.393,0.577-4.753,0.726-7.146c0.056-0.888,0.935-2.138,2.397-2.286 c1.016-0.103,2.358,0.727,2.728,1.711c0.094,0.252,0.028,0.49-0.002,0.74C42.437,27.159,42.284,28.492,42.104,30.031z" clip-rule="evenodd"/><path fill="#D9213F" fill-rule="evenodd" d="M32.587,24.327c1.151,0.005,1.871,0.719,2.523,1.542 c0.146,0.184,0.097,0.391,0.062,0.592c-0.913,5.189-1.443,10.433-2.28,15.634c-0.239,1.484-0.466,2.973-0.695,4.46 c-0.176,1.148-1.324,1.939-2.458,1.69c-1.836-0.404-2.917-2.089-2.571-3.983c0.761-4.171,1.49-8.347,2.025-12.556 c0.204-1.604,0.443-3.206,0.679-4.806C30.104,25.336,31.173,24.333,32.587,24.327z" clip-rule="evenodd"/><path fill="#DA2E4A" fill-rule="evenodd" d="M37.71,16.71c0.045-0.209-0.117-0.627,0.399-0.526 c0.323,0.063,0.833-0.042,0.808,0.492c-0.022,0.502-0.503,0.489-0.874,0.549C37.618,17.294,37.704,16.994,37.71,16.71z" clip-rule="evenodd"/><path fill="#D92140" fill-rule="evenodd" d="M47.566,17.78c0.013,0.772-0.634,1.585-1.281,1.612 c-0.567,0.023-1.085-0.481-1.095-1.068c-0.016-0.789,0.584-1.496,1.269-1.499C47.064,16.822,47.558,17.248,47.566,17.78z" clip-rule="evenodd"/><path fill="#D92140" fill-rule="evenodd" d="M44.665,51.807c0.032,0.528-0.191,0.809-0.747,0.797 c-0.568-0.013-0.984-0.421-0.977-0.987c0.009-0.564,0.351-0.806,0.862-0.842C44.378,50.734,44.659,51.085,44.665,51.807z" clip-rule="evenodd"/><path fill="#DB2B49" fill-rule="evenodd" d="M33.852,16.896c0.077-0.294-0.125-0.703,0.392-0.665 c0.373,0.028,0.702,0.172,0.671,0.598c-0.031,0.453-0.427,0.566-0.795,0.58C33.657,17.425,33.998,17.019,33.852,16.896z" clip-rule="evenodd"/></svg>