<svg xmlns="http://www.w3.org/2000/svg" width="70" height="70" version="1.1" viewBox="0 0 70 70"><g id="surface1"><path d="M 57.925781 51.578125 C 55.054688 51.539062 14.675781 50.066406 0.105469 22.632812 C 0.777344 22.433594 1.390625 21.796875 1.390625 21.796875 C 1.390625 21.796875 3.054688 16.476562 5.46875 16.597656 C 7.230469 16.714844 11.863281 19.175781 11.863281 19.175781 C 11.863281 19.175781 9.488281 12.070312 11.347656 7.265625 C 16.667969 -5.121094 32.136719 1.707031 36.558594 3.175781 C 40.964844 4.683594 50.441406 8.257812 54.710938 9.332031 C 58.980469 10.402344 67.804688 11.433594 69.414062 11.394531 C 71.023438 11.355469 68.515625 15.367188 63.058594 15.285156 C 57.601562 15.207031 52.699219 13.976562 52.699219 13.976562 C 52.699219 13.976562 52.757812 16.992188 50.363281 17.867188 C 46.132812 19.257812 40.847656 16.636719 40.847656 16.636719 C 40.847656 16.636719 42.378906 20.171875 39.277344 22.3125 C 35.679688 24.816406 31.507812 23.464844 31.507812 23.464844 C 31.507812 23.464844 32.691406 26.007812 31.621094 27.914062 C 30.203125 30.453125 26.242188 31.328125 26.242188 31.328125 C 26.242188 31.328125 31.925781 38.710938 38.667969 38.792969 C 46.039062 38.910156 54.921875 34.144531 54.921875 34.144531 L 54.691406 36.332031 L 46.765625 39.746094 C 46.765625 39.746094 45.617188 40.300781 45.082031 40.976562 C 44.523438 41.691406 44.296875 42.324219 44.257812 43.476562 C 44.140625 47.25 46.632812 47.726562 46.632812 47.726562 C 46.632812 47.726562 51.683594 49.589844 59.4375 48.441406 C 58.960938 49.550781 58.460938 50.585938 57.925781 51.578125 Z M 57.925781 51.578125" style="stroke:none;fill-rule:nonzero;fill:#28396e;fill-opacity:1"/><path d="M 44.679688 66.625 C 35.125 62.894531 16.226562 53.046875 1.523438 28.90625 C 1.390625 28.707031 1.257812 28.46875 1.140625 28.308594 C 1.160156 28.347656 1.179688 28.429688 1.21875 28.507812 C 12.207031 51.339844 26.910156 64.203125 35.679688 69.683594 C 39.375 69.125 43.375 67.140625 44.679688 66.625 Z M 44.679688 66.625" style="stroke:none;fill-rule:nonzero;fill:#fff;fill-opacity:1"/><path d="M 1.007812 27.953125 C 16.628906 51.695312 42.992188 58.007812 53.101562 59.597656 C 50.480469 62.734375 47.625 64.996094 44.660156 66.585938 C 35.007812 62.894531 15.808594 52.726562 1.007812 27.953125 Z M 1.007812 27.953125" style="stroke:none;fill-rule:nonzero;fill:#4582cb;fill-opacity:1"/><path d="M 26.355469 69.722656 C 18.890625 61.859375 8.742188 49.234375 1.007812 27.953125 C 12.035156 51.101562 26.988281 64.125 35.792969 69.601562 C 32.597656 70.117188 29.398438 70.078125 26.355469 69.722656 Z M 26.355469 69.722656" style="stroke:none;fill-rule:nonzero;fill:#43b53b;fill-opacity:1"/></g></svg>