<svg xmlns="http://www.w3.org/2000/svg" version="1.1" id="Layer_1" x="0px" y="0px" width="70px" height="70px" viewBox="0 0 70 70" enable-background="new 0 0 70 70" xml:space="preserve"><metadata/><rect width="70" fill="none" height="70"/><g id="g8842" transform="matrix(1.25,0,0,-1.25,417.5676,788.91281)"><path id="path8844" fill="#DBDF4A" d="M-288.5,605.8L-288.5,605.8c-0.2-0.1-0.3-0.1-0.5-0.2l0,0c-2.3-1.1-3.5-3.1-4.9-5.1    c0.6,0,1.5,0,2.1-0.6c-2.6-0.5-3.1-2.1-6.2-3.4l0,0c-1-0.5-2.1-0.9-3.2-1.1c-2.4-0.4-5.1,0-7.3,1.4l0,0l0,0c1-0.1,1.8-0.1,2.6,0.1    c1.6,0.3,2.8,0.9,3.8,1.8l0,0c-2.5,0.4-3.6,2.4-5,4.2c0,0-1.8-1-2.9-1.4h-0.1c-0.2-0.1-0.3-0.1-0.5-0.2h-0.1l0,0    c-0.3-0.1-0.5-0.2-0.8-0.2l0,0l0,0c-0.2-0.1-0.4-0.1-0.6-0.1l0,0c-0.2,0-0.4-0.1-0.6-0.1l0,0c-3.1-0.5-6.4,0-9.3,1.7l0,0    c0.5-0.8,1.2-1.8,2-3c4.4-6,8.6-7.2,14.2-7.2h27.1C-281.4,593.801-284,598.401-288.5,605.8"/></g><g id="g8846" transform="matrix(1.25,0,0,-1.25,397.09373,792.48106)"><path id="path8848" fill="#E4E787" d="M-290.6,605.5c0-0.1,0.1-0.1,0.1-0.2C-290.5,605.301-290.6,605.401-290.6,605.5     M-290.5,605.301c0.7-0.9,1.3-1.8,2.2-2.6l0,0c-0.8,0.7-1.4,1.5-2.1,2.4C-290.4,605.201-290.5,605.201-290.5,605.301     M-305.9,605.201L-305.9,605.201c0.1,0,0.1-0.1,0.2-0.1C-305.8,605.101-305.9,605.201-305.9,605.201 M-305.2,604.801    L-305.2,604.801c1.9-1,4-1.4,6.1-1.5C-301.2,603.401-303.3,603.801-305.2,604.801 M-292.7,604.701c-0.1-0.1-0.3-0.1-0.4-0.2    c-0.2-0.1-0.4-0.2-0.6-0.2l0,0l0,0l0,0h-0.1c-0.1,0-0.1,0-0.2-0.1c0.1,0,0.2,0.1,0.2,0.1h0.1    C-293.4,604.401-293.1,604.5-292.7,604.701 M-294.3,604.101c-0.2-0.1-0.5-0.2-0.7-0.2l0,0c0.2,0,0.4,0.1,0.5,0.2l0,0h0.1H-294.3    C-294.4,604.101-294.4,604.101-294.3,604.101L-294.3,604.101 M-295.2,603.801L-295.2,603.801L-295.2,603.801L-295.2,603.801    L-295.2,603.801 M-295.2,603.801L-295.2,603.801C-295.3,603.801-295.3,603.801-295.2,603.801    C-295.3,603.801-295.3,603.801-295.2,603.801C-295.3,603.801-295.3,603.801-295.2,603.801c-0.3-0.1-0.5-0.1-0.8-0.2l0,0h0.1l0,0    C-295.7,603.701-295.5,603.701-295.2,603.801L-295.2,603.801L-295.2,603.801C-295.3,603.801-295.3,603.801-295.2,603.801    L-295.2,603.801 M-296.1,603.601L-296.1,603.601c-0.1,0-0.2,0-0.3-0.1h0.1C-296.3,603.601-296.2,603.601-296.1,603.601     M-296.5,603.5L-296.5,603.5L-296.5,603.5L-296.5,603.5 M-285.9,601.5C-285.8,601.5-285.8,601.5-285.9,601.5    C-285.8,601.5-285.8,601.5-285.9,601.5L-285.9,601.5C-285.8,601.5-285.8,601.5-285.9,601.5"/></g><g id="g8850" transform="matrix(1.25,0,0,-1.25,380.95798,793.19056)"><path id="path8852" fill="#C2D43B" d="M-292.3,605.4L-292.3,605.4c2-1,4.1-1.5,6.3-1.5c0.8,0,1.6,0.1,2.3,0.2l0,0    c0.1,0,0.2,0,0.2,0h-0.1h-0.1c0,0,0,0-0.1,0l0,0c-0.8-0.1-1.5-0.2-2.3-0.2c-0.1,0-0.1,0-0.2,0    C-288.2,603.9-290.3,604.4-292.3,605.4 M-280.8,604.9L-280.8,604.9c-0.2-0.1-0.2-0.1-0.3-0.1s-0.2-0.1-0.2-0.1h-0.1    c0,0,0.1,0,0.2,0.1c0.1,0,0.1,0.1,0.2,0.1C-281,604.8-280.9,604.8-280.8,604.9 M-281.5,604.6L-281.5,604.6c-0.1,0-0.1,0-0.1,0l0,0    H-281.5L-281.5,604.6L-281.5,604.6 M-282.3,604.4L-282.3,604.4L-282.3,604.4L-282.3,604.4 M-282.3,604.4L-282.3,604.4L-282.3,604.4    L-282.3,604.4L-282.3,604.4C-282.4,604.4-282.3,604.4-282.3,604.4 M-282.4,604.4L-282.4,604.4L-282.4,604.4L-282.4,604.4"/></g><g id="g8854" transform="matrix(1.25,0,0,-1.25,406.54635,780.85943)"><path id="path8856" fill="#DBDF4A" d="M-289.7,606.6c-1.8-1.5-3-3.6-4.3-5.4c1,0.1,2.1-0.1,2.8-0.8c-1.5-0.3-2.7-1-4-1.9    c0.9-0.5,1.7-1.1,2.4-1.7c0.4-0.3,0.8-0.6,1.3-0.8c0.3-0.1,0.5-0.3,0.8-0.4c0.1-0.1,0.2-0.1,0.3-0.2c0.4,0.5,0.9,1,1.3,1.3    c2.2,1.8,5.3,3.7,8.5,3h0.1c0.2,0,0.3-0.1,0.5-0.1l0,0c-1.4,2.3-2.8,4.7-4.6,6.7v0.1c-0.3,0.4-0.7,0.8-1,1.2    c-0.2,0.2-0.4,0.4-0.6,0.6c-0.1,0.1-0.2,0.2-0.3,0.3c0,0-0.1,0.1-0.2,0.1s-0.2-0.1-0.3-0.1C-287.9,608-288.8,607.4-289.7,606.6"/></g><g id="g8858" transform="matrix(1.25,0,0,-1.25,381.5711,783.20231)"><path id="path8860" fill="#F36F24" d="M-292.2,606.4c-0.1,0.2-0.2,0.3-0.3,0.4c0,0.1-0.1,0.1-0.1,0.2c-0.1,0.2-0.3,0.4-0.4,0.5    c0,0.1-0.1,0.1-0.1,0.2c-0.1,0.2-0.3,0.3-0.5,0.5c-0.1,0.1-0.1,0.1-0.2,0.2c-0.1,0.1-0.3,0.2-0.4,0.4c-0.1,0.1-0.2,0.1-0.2,0.2    c-0.1,0.1-0.3,0.2-0.4,0.3c-0.1,0.1-0.2,0.1-0.3,0.2h-0.1c-0.1,0.1-0.2,0.2-0.4,0.2h-0.1c-0.4,0.3-0.9,0.5-1.4,0.7    c0.2,0.1,0.4,0.1,0.6,0.2l0,0c2.7,0.8,5.3,0.2,7.7-1l0,0c0.1-0.1,0.3-0.1,0.4-0.2c0.2-0.1,0.5-0.2,0.7-0.4l0.1-0.1    c0.2-0.1,0.5-0.3,0.7-0.5c0.1-0.1,0.2-0.1,0.3-0.2c0.2-0.2,0.5-0.3,0.7-0.5l0.1-0.1c0.1,0,0.1-0.1,0.1-0.1c0.4-0.3,0.9-0.7,1.3-1    l0,0c0.1-0.1,0.2-0.1,0.3-0.2c0.3-0.2,0.6-0.4,0.9-0.6l0,0c0.3-0.2,0.6-0.3,0.9-0.5c0.3-0.1,0.5-0.3,0.8-0.4l0,0    c0.1,0,0.1-0.1,0.2-0.1h0.1c0.6,0.7,1.2,1.3,1.9,1.8c3.2,2.5,7.7,5.4,12.4,3.9l0,0c-2.3,2-5,3.2-8.1,3.5c-2,0.2-4.1,0.1-6.1,0.1    h-13.2h-9.8h-0.6c1.5-0.7,2.6-2.1,3.5-3.4c1.4-2.1,2.6-4.4,3.8-6.7c1.1-2.1,2.3-4.1,3.5-6.1c1.5-0.1,3.1,0,4.6,0.4    c1.4,0.4,2.7,1.1,3.9,2.1l0,0C-288.7,601.1-290.3,603.9-292.2,606.4"/></g><g id="g8862" transform="matrix(1.25,0,0,-1.25,397.79173,774.52618)"><path id="path8864" fill="#E89479" d="M-290.6,607.3L-290.6,607.3L-290.6,607.3c0.8,0,1.7,0,2.5-0.1    C-288.901,607.3-289.701,607.3-290.6,607.3 M-280.501,604.3c0.3-0.2,0.5-0.4,0.8-0.6l0,0l0,0l0,0    C-280.001,603.9-280.301,604.1-280.501,604.3L-280.501,604.3 M-282.501,604.1c-2.1,0-4-0.7-5.8-1.6c0,0,0,0-0.1,0    c-1.2-0.7-2.4-1.5-3.4-2.3c0.6,0.4,1.2,0.9,1.8,1.3l0,0l0,0l0,0l0,0l0,0l0,0l0,0c1.3,0.8,2.7,1.6,4.2,2.1l0,0    c0.101,0,0.3,0.1,0.4,0.1l0,0c0.1,0,0.201,0.1,0.4,0.1h0.1c0.1,0,0.201,0.1,0.4,0.1h0.1c0.1,0,0.201,0,0.3,0.1h0.1    c0.1,0,0.2,0,0.3,0.1h0.1c0.1,0,0.2,0,0.3,0h0.1l0,0l0,0l0,0c0.1,0,0.2,0,0.3,0h0.1C-282.601,604.1-282.501,604.1-282.501,604.1    C-282.401,604.1-282.401,604.1-282.501,604.1c0.1,0,0.1,0,0.2,0c0.101,0,0.201,0,0.3,0l0,0c0.1,0,0.2,0,0.3,0h0.1    c0.1,0,0.1,0,0.2,0s0.201,0,0.3,0c0.1,0,0.1,0,0.2,0s0.201,0,0.201,0c0.1,0,0.1,0,0.2,0c0.1,0,0.2,0,0.2-0.1h0.1    c0.1,0,0.2-0.1,0.3-0.1l0,0l0,0l0,0c-0.6,0.2-1.2,0.3-1.9,0.4C-281.901,604.1-282.201,604.1-282.501,604.1 M-300.7,602.1    C-300.7,602.1-300.6,602.1-300.7,602.1L-300.7,602.1C-300.6,602.1-300.7,602.1-300.7,602.1L-300.7,602.1 M-299.3,601.3    c0.1-0.1,0.1-0.1,0.2-0.2c0.1-0.1,0.3-0.2,0.4-0.3c0.2-0.1,0.3-0.2,0.5-0.3c0.2-0.1,0.3-0.2,0.4-0.3c0.1-0.1,0.2-0.1,0.2-0.2    c0,0,0,0,0.1,0c-0.3,0.3-0.7,0.6-1.1,0.8l-0.1,0.1c0,0,0,0-0.1,0l-0.1,0.1C-299,601-299.2,601.1-299.3,601.3 M-294.1,597.9    L-294.1,597.9L-294.1,597.9"/></g><g id="g8866" transform="matrix(1.25,0,0,-1.25,397.69686,774.52668)"><path id="path8868" fill="#E24E27" d="M-290.6,607.3L-290.6,607.3L-290.6,607.3L-290.6,607.3 M-281.6,604c0.6-0.1,1.2-0.2,1.9-0.4    l0,0l0,0C-280.3,603.9-281,604-281.6,604 M-288.3,602.4c-1.3-0.7-2.5-1.5-3.6-2.4l0,0l0.1,0.1    C-290.7,600.9-289.5,601.7-288.3,602.4 M-300.6,602.1L-300.6,602.1L-300.6,602.1L-300.6,602.1c0.1-0.1,0.1-0.1,0.1-0.1    c0.2-0.1,0.4-0.3,0.7-0.4c0.1-0.1,0.2-0.1,0.3-0.2c0.1-0.1,0.2-0.2,0.4-0.2c0.1-0.1,0.3-0.2,0.4-0.3l0.1-0.1    C-299.3,601.3-299.9,601.7-300.6,602.1 M-298.6,600.8l0.1-0.1c0.4-0.3,0.7-0.6,1.1-0.8c0.1-0.1,0.1-0.1,0.2-0.2    c-0.1,0.1-0.2,0.2-0.3,0.3l-0.2,0.1c-0.1,0.1-0.2,0.1-0.2,0.2l0,0c-0.2,0.1-0.3,0.3-0.5,0.4l0,0    C-298.5,600.8-298.6,600.8-298.6,600.8 M-297.2,599.7L-297.2,599.7 M-297.2,599.7L-297.2,599.7L-297.2,599.7 M-297.2,599.7    L-297.2,599.7L-297.2,599.7 M-297.2,599.7L-297.2,599.7L-297.2,599.7 M-296.9,599.5L-296.9,599.5L-296.9,599.5L-296.9,599.5    L-296.9,599.5 M-296.7,599.4L-296.7,599.4L-296.7,599.4C-296.7,599.3-296.7,599.3-296.7,599.4    C-296.7,599.3-296.7,599.4-296.7,599.4"/></g><g id="g8870" transform="matrix(1.25,0,0,-1.25,388.6846,789.59743)"><path id="path8872" fill="#FBBEA7" d="M-291.5,605.7L-291.5,605.7c0.2,0,0.4-0.1,0.5-0.1C-291.1,605.7-291.3,605.7-291.5,605.7     M-290.9,605.6L-290.9,605.6L-290.9,605.6L-290.9,605.6L-290.9,605.6L-290.9,605.6L-290.9,605.6 M-291.2,605.4    c-1-0.7-2-1.3-3.2-1.7h0.1l0,0l0,0c0.6,0.2,1.2,0.5,1.7,0.8c0.3,0.2,0.6,0.4,0.9,0.5C-291.5,605.2-291.4,605.2-291.2,605.4    L-291.2,605.4 M-299.4,603.2L-299.4,603.2L-299.4,603.2 M-296.5,603.2L-296.5,603.2 M-297.8,603.1    C-297.9,603.1-297.9,603.1-297.8,603.1L-297.8,603.1L-297.8,603.1L-297.8,603.1L-297.8,603.1C-297.9,603.1-297.9,603.1-297.8,603.1    C-297.9,603.1-297.8,603.1-297.8,603.1"/></g><g id="g8874" transform="matrix(1.25,0,0,-1.25,388.6846,789.59743)"><path id="path8876" fill="#F15D25" d="M-291.5,605.7c-1.1-0.4-2.2-0.6-3.4-0.7c-0.1,0-0.2,0-0.4,0c-0.1,0-0.2,0-0.2,0    c-0.3-0.3-0.6-0.6-0.9-0.9c-0.4-0.4-0.9-0.8-1.4-0.9c-0.3-0.1-0.6-0.1-0.9-0.1c-0.2,0-0.5,0-0.7,0.1c0,0,0,0,0-0.1c0,0,0.1,0,0.2,0    c0.1,0,0.2,0,0.2,0c0.1,0,0.2,0,0.2,0h0.1l0,0h0.1c0.1,0,0.2,0,0.4,0h0.1h0.1h0.1h0.1h0.1c0.1,0,0.3,0,0.4,0h0.1    c0.2,0,0.4,0,0.5,0.1l0,0c0.2,0,0.3,0,0.5,0.1c0.1,0,0.1,0,0.2,0s0.2,0,0.3,0.1c0.1,0,0.1,0,0.2,0s0.2,0.1,0.3,0.1h0.1l0,0l0,0    c0.1,0,0.2,0.1,0.3,0.1c1.1,0.4,2.2,1,3.2,1.7l0,0l0,0c0.1,0.1,0.2,0.2,0.3,0.2l0,0l0,0l0,0C-291.1,605.7-291.3,605.7-291.5,605.7"/></g><g id="g8878" transform="matrix(1.25,0,0,-1.25,368.03185,774.53056)"><path id="path8880" fill="#E89479" d="M-293.6,607.3L-293.6,607.3L-293.6,607.3 M-293.6,607.3L-293.6,607.3L-293.6,607.3     M-293.6,607.3c2.5-1.1,4.2-4.6,7.1-9.8c-1.2,2.2-2.3,4.4-3.7,6.4C-291,605.2-292.1,606.6-293.6,607.3"/></g><g id="g8882" transform="matrix(1.25,0,0,-1.25,368.03886,774.52668)"><path id="path8884" fill="#E24E27" d="M-293.6,607.3L-293.6,607.3L-293.6,607.3L-293.6,607.3L-293.6,607.3L-293.6,607.3    c1.5-0.7,2.6-2.1,3.4-3.4c1.4-2.1,2.5-4.3,3.7-6.4c0.1-0.1,0.1-0.3,0.2-0.4c2.1-2.2,4.5-3.9,7.3-4c0.4,0.5,0.8,0.9,1.1,1.4    c-5.6,1.7-9.1,6.5-11.2,9.3c-0.9,1.2-1.9,2.1-2.8,2.7c-0.2,0.1-0.4,0.3-0.6,0.4c-0.1,0.1-0.3,0.1-0.4,0.2c-0.1,0.1-0.3,0.1-0.4,0.2    c-0.1,0-0.1,0-0.2,0.1C-293.5,607.3-293.5,607.3-293.6,607.3"/></g><g id="g8886" transform="matrix(1.25,0,0,-1.25,383.4136,785.64743)"><path id="path8888" fill="#E89479" d="M-292,606.2c1.1-1.3,2.2-2.6,3.8-3.2l0,0c0.3-0.1,0.6-0.2,1-0.3l0,0    c-0.3,0.1-0.5,0.1-0.7,0.2l0,0l0,0l0,0c-0.1,0-0.2,0.1-0.3,0.1l0,0C-289.9,603.7-291,604.8-292,606.2"/></g><g id="g8890" transform="matrix(1.25,0,0,-1.25,387.59773,789.23068)"><path id="path8892" fill="#E6795E" d="M-291.6,605.8c0.3-0.1,0.6-0.2,1-0.3C-291,605.5-291.3,605.7-291.6,605.8L-291.6,605.8"/></g><g id="g8894" transform="matrix(1.25,0,0,-1.25,385.54923,788.74731)"><path id="path8896" fill="#E14428" d="M-291.8,605.8c-0.4-0.5-0.7-1-1.1-1.4c0.1,0,0.2,0,0.2,0c0.1,0,0.2,0,0.4,0    c1.2,0.1,2.3,0.3,3.4,0.7c-0.3,0.1-0.7,0.2-1,0.3C-290.6,605.5-291.2,605.7-291.8,605.8"/></g><g id="g8898" transform="matrix(1.25,0,0,-1.25,400.54685,774.65393)"><path id="path8900" fill="#E2696F" d="M-290.3,607.3c0.1,0,0.2,0,0.3,0c0,0,0,0,0.1,0C-290,607.3-290.2,607.3-290.3,607.3     M-287.6,606.8c0.4-0.1,0.9-0.3,1.3-0.4c0.5-0.2,1-0.4,1.5-0.7c0,0,0.1,0,0.1-0.1c0.2-0.1,0.4-0.2,0.5-0.3c0.4-0.3,0.8-0.5,1.2-0.8    c0.1-0.1,0.1-0.1,0.2-0.2l0,0C-284.3,605.6-285.9,606.4-287.6,606.8"/></g><g id="g8902" transform="matrix(1.25,0,0,-1.25,397.67348,774.52668)"><path id="path8904" fill="#DE3C26" d="M-290.6,607.3h-3.2h-9.4c1.9-0.8,3.7-2,5-3.8c2.1,1.5,3.9,3.4,7.5,3.8H-290.6L-290.6,607.3"/></g><g id="g8906" transform="matrix(1.25,0,0,-1.25,397.70235,774.52668)"><path id="path8908" fill="#D24948" d="M-290.6,607.3c0.9,0,1.9-0.1,2.8-0.1l0,0c-0.1,0-0.2,0-0.3,0    C-288.8,607.3-289.7,607.3-290.6,607.3 M-284,606.3c0.5-0.2,1-0.4,1.4-0.7l0,0C-283,605.9-283.5,606.1-284,606.3 M-280.6,604.4    c0.1,0,0.1-0.1,0.2-0.2l0,0C-280.5,604.3-280.6,604.4-280.6,604.4"/></g><g id="g8910" transform="matrix(1.25,0,0,-1.25,368.13148,774.55706)"><path id="path8912" fill="#DE3C26" d="M-293.6,607.3C-293.6,607.3-293.5,607.3-293.6,607.3c0.1,0,0.2-0.1,0.2-0.1    S-293.5,607.3-293.6,607.3 M-292.2,606.7c0.1,0,0.2-0.1,0.2-0.1C-292.1,606.6-292.1,606.6-292.2,606.7"/></g><g id="g8914" transform="matrix(1.25,0,0,-1.25,376.51373,778.61293)"><path id="path8916" fill="#E2696F" d="M-292.7,606.9c-0.1,0-0.2-0.1-0.4-0.1c0.1,0,0.1,0,0.2,0.1    C-292.8,606.8-292.8,606.8-292.7,606.9C-292.8,606.9-292.7,606.9-292.7,606.9 M-283.9,605.5c0.1,0,0.2-0.1,0.3-0.1l0,0l0,0l0,0    C-283.8,605.5-283.8,605.5-283.9,605.5"/></g><g id="g8918" transform="matrix(1.25,0,0,-1.25,379.58873,778.13181)"><path id="path8920" fill="#DE3C26" d="M-292.4,606.9c-0.4,0-0.9,0-1.3-0.1c-0.6-0.1-1.2-0.2-1.8-0.5c0.1,0,0.2,0.1,0.4,0.1    c0,0,0,0,0.1,0c0.1,0,0.2,0,0.2,0.1c0.1,0,0.1,0,0.2,0.1c0.1,0,0.1,0,0.2,0.1c0.1,0,0.1,0,0.2,0s0.1,0,0.2,0c0.1,0,0.2,0,0.2,0    c0.1,0,0.1,0,0.2,0s0.2,0,0.3,0s0.1,0,0.2,0s0.2,0,0.3,0h0.1C-292.7,606.9-292.6,606.9-292.4,606.9c0.3,0,0.6,0,0.9,0l0,0    c0.1,0,0.3,0,0.4,0h0.1c0.1,0,0.3,0,0.4-0.1l0,0c0.1,0,0.3-0.1,0.4-0.1l0,0c1.3-0.3,2.6-0.8,3.8-1.5c0.1,0,0.2-0.1,0.2-0.1l0,0    C-288,606.1-290.2,606.9-292.4,606.9"/></g><g id="g8922" transform="matrix(1.25,0,0,-1.25,386.55011,780.23406)"><path id="path8924" fill="#D24948" d="M-291.7,606.7L-291.7,606.7L-291.7,606.7L-291.7,606.7L-291.7,606.7 M-289.8,605.4    C-289.7,605.4-289.7,605.4-289.8,605.4C-289.7,605.4-289.7,605.4-289.8,605.4C-289.7,605.4-289.7,605.4-289.8,605.4"/></g><g id="g8926" transform="matrix(1.25,0,0,-1.25,386.55011,780.23406)"><path id="path8928" fill="#D12E27" d="M-291.7,606.7L-291.7,606.7L-291.7,606.7c0.7-0.4,1.3-0.8,2-1.3l0,0l0,0l0.1-0.1l0,0    C-290.2,605.8-290.9,606.3-291.7,606.7"/></g><g id="g8930" transform="matrix(1.25,0,0,-1.25,368.21398,774.58881)"><path id="path8932" fill="#D12E27" d="M-293.6,607.3c0.1,0,0.1,0,0.2-0.1l0,0C-293.5,607.2-293.5,607.3-293.6,607.3 M-293,607.1    c0.1-0.1,0.3-0.1,0.4-0.2c0.2-0.1,0.4-0.2,0.6-0.4c0,0-0.1,0-0.1,0.1c-0.1,0-0.2,0.1-0.2,0.1C-292.5,606.8-292.8,607-293,607.1"/></g><g id="g8934" transform="matrix(1.25,0,0,-1.25,368.04973,774.52668)"><path id="path8936" fill="#DF4526" d="M-293.6,607.3L-293.6,607.3L-293.6,607.3C-293.5,607.3-293.6,607.3-293.6,607.3     M-293.3,607.2c0.1,0,0.2-0.1,0.3-0.1C-293.1,607.1-293.2,607.1-293.3,607.2 M-291.5,606.3c0.8-0.5,1.6-1,2.5-1.5    c0.4-0.3,0.9-0.5,1.3-0.7l0,0l0,0c-0.4,0.2-0.9,0.5-1.3,0.7C-290,605.3-290.8,605.8-291.5,606.3"/></g><g id="g8938" transform="matrix(1.25,0,0,-1.25,376.12135,778.74543)"><path id="path8940" fill="#E47D7F" d="M-292.8,606.9L-292.8,606.9L-292.8,606.9 M-292.6,606.8L-292.6,606.8L-292.6,606.8     M-292.6,606.8c0.4-0.2,0.8-0.4,1.2-0.6c0,0,0,0,0.1,0l0,0l0,0C-291.7,606.4-292.2,606.6-292.6,606.8 M-291.3,606.2L-291.3,606.2    L-291.3,606.2L-291.3,606.2 M-290.4,605.5c0.1-0.1,0.2-0.1,0.2-0.2l0,0l0,0l0,0l0,0l0,0l-0.1,0.1L-290.4,605.5    C-290.3,605.5-290.3,605.5-290.4,605.5L-290.4,605.5L-290.4,605.5L-290.4,605.5 M-290,605.2L-290,605.2L-290,605.2 M-289.6,604.8    L-289.6,604.8C-289.5,604.8-289.5,604.8-289.6,604.8C-289.5,604.8-289.5,604.8-289.6,604.8 M-288.9,604.1L-288.9,604.1    L-288.9,604.1L-288.9,604.1L-288.9,604.1 M-288.6,603.8L-288.6,603.8C-288.6,603.8-288.6,603.7-288.6,603.8    C-288.6,603.7-288.6,603.8-288.6,603.8L-288.6,603.8 M-288.1,603.1L-288.1,603.1L-288.1,603.1C-288,603.1-288,603-288.1,603.1    C-288,603-288,603.1-288.1,603.1L-288.1,603.1 M-287.4,602.2c0.4-0.5,0.8-1.1,1.2-1.6c-0.3,0.4-0.6,0.9-1,1.3    C-287.2,602-287.3,602.1-287.4,602.2"/></g><g id="g8942" transform="matrix(1.25,0,0,-1.25,374.80123,778.22843)"><path id="path8944" fill="#DF4526" d="M-292.9,606.9c0.1,0,0.1-0.1,0.2-0.1c0.3-0.1,0.7-0.3,1-0.4h0.1h0.1c0.2-0.1,0.4-0.1,0.5-0.2    c0.1,0,0.1,0,0.2-0.1s0.3-0.1,0.4-0.2c0,0,0.1,0,0.1-0.1c-0.4,0.2-0.8,0.4-1.2,0.6l0,0l0,0c0,0-0.1,0-0.1,0.1l0,0l0,0    c-0.3,0.1-0.7,0.2-1,0.4C-292.8,606.9-292.8,606.9-292.9,606.9 M-290.3,605.8C-290.3,605.7-290.2,605.7-290.3,605.8    C-290.2,605.7-290.2,605.7-290.3,605.8L-290.3,605.8 M-290.1,605.7c0.1,0,0.1-0.1,0.2-0.1c0.2-0.2,0.5-0.3,0.7-0.5l0.1-0.1l0,0    c-0.1,0.1-0.2,0.1-0.2,0.2h-0.1h-0.1l-0.1,0.1c-0.1,0-0.1,0.1-0.2,0.1l-0.1,0.1h-0.1l0,0l0,0l0,0l0,0    C-290,605.6-290.1,605.6-290.1,605.7 M-289.1,604.9L-289.1,604.9L-289.1,604.9L-289.1,604.9 M-288.5,604.4c0.1-0.1,0.2-0.2,0.2-0.2    s0,0-0.1,0.1l0,0l0,0C-288.4,604.3-288.4,604.3-288.5,604.4L-288.5,604.4L-288.5,604.4 M-287.9,603.7L-287.9,603.7L-287.9,603.7    L-287.9,603.7 M-287.8,603.7L-287.8,603.7L-287.8,603.7L-287.8,603.7 M-287.5,603.3l0.1-0.1l0.1-0.1l-0.1,0.1L-287.5,603.3     M-278.9,602.7L-278.9,602.7L-278.9,602.7 M-278.9,602.7L-278.9,602.7L-278.9,602.7 M-278.9,602.7L-278.9,602.7L-278.9,602.7     M-278.9,602.7L-278.9,602.7L-278.9,602.7"/></g><g id="g8946" transform="matrix(1.25,0,0,-1.25,390.09711,781.47856)"><path id="path8948" fill="#D23427" d="M-291.3,606.6c-0.4-0.1-0.7-0.2-1.1-0.3c0.2-0.1,0.4-0.3,0.5-0.4l0.1,0.1    c0.1,0.1,0.1,0.2,0.2,0.2C-291.5,606.4-291.4,606.5-291.3,606.6 M-291.5,605.6c0.1-0.1,0.2-0.2,0.3-0.3l0,0l0,0l0,0l0,0l0,0l0,0    l0,0l0,0l0.1-0.1l0,0l0,0l0,0l0,0c0.1,0,0.1-0.1,0.2-0.1c0,0,0,0,0.1,0c0,0,0.1,0,0.1-0.1l0,0    C-290.8,605.1-291.1,605.3-291.5,605.6"/></g><g id="g8950" transform="matrix(1.25,0,0,-1.25,368.40173,774.65281)"><path id="path8952" fill="#D23427" d="M-293.6,607.3c0.1-0.1,0.3-0.1,0.4-0.2l0,0c0,0-0.1,0-0.1,0.1    C-293.4,607.2-293.5,607.2-293.6,607.3C-293.5,607.3-293.6,607.3-293.6,607.3"/></g><g id="g8954" transform="matrix(1.25,0,0,-1.25,377.62798,779.45768)"><path id="path8956" fill="#D5544E" d="M-292.6,606.8L-292.6,606.8L-292.6,606.8C-292.5,606.7-292.5,606.7-292.6,606.8L-292.6,606.8    L-292.6,606.8C-292.5,606.7-292.5,606.7-292.6,606.8L-292.6,606.8 M-291.3,605.8l0.1-0.1l0,0l0,0l0,0l0,0L-291.3,605.8    C-291.2,605.8-291.2,605.8-291.3,605.8C-291.2,605.8-291.2,605.8-291.3,605.8 M-291.1,605.7C-291.1,605.7-291.1,605.6-291.1,605.7    L-291.1,605.7L-291.1,605.7L-291.1,605.7 M-290.9,605.5l0.1-0.1L-290.9,605.5L-290.9,605.5 M-290.3,604.9l0.1-0.1    C-290.2,604.8-290.3,604.8-290.3,604.9L-290.3,604.9 M-290.1,604.7L-290.1,604.7L-290.1,604.7L-290.1,604.7 M-290,604.6    C-290,604.5-290,604.5-290,604.6L-290,604.6C-290,604.5-290,604.6-290,604.6 M-289.9,604.5c0-0.1,0.1-0.1,0.1-0.2c0,0,0,0,0,0.1    C-289.8,604.4-289.8,604.4-289.9,604.5C-289.9,604.4-289.9,604.4-289.9,604.5 M-289.5,604L-289.5,604l0.1-0.1    C-289.5,603.9-289.5,604-289.5,604 M-289.4,603.9L-289.4,603.9c0.1-0.2,0.2-0.3,0.3-0.4l-0.1,0.1l0,0l0,0l-0.1,0.1    C-289.4,603.8-289.4,603.8-289.4,603.9 M-288.7,602.9c1.1-1.5,2.2-3,3.6-4.1l0,0c0.5-0.4,1-0.7,1.5-0.9l0,0    c-1.6,0.7-2.7,1.9-3.8,3.2c-0.4,0.5-0.8,1-1.2,1.6C-288.6,602.8-288.7,602.9-288.7,602.9"/></g><g id="g8958" transform="matrix(1.25,0,0,-1.25,370.03748,775.46431)"><path id="path8960" fill="#D23427" d="M-293.4,607.2c1-0.6,2-1.5,2.8-2.7c2.1-2.9,5.6-7.6,11.2-9.3c0.1,0.2,0.2,0.3,0.3,0.5    c-1.4,1.1-2.4,2.6-3.6,4.1c-0.1,0.1-0.2,0.2-0.3,0.4l-0.1,0.1l0,0l0,0l0,0c-0.1,0.1-0.2,0.3-0.3,0.4l0,0l0,0l0,0l-0.1,0.1l0,0l0,0    l-0.1,0.1l-0.1,0.1c0,0.1-0.1,0.1-0.1,0.2l0,0l-0.1,0.1l0,0l-0.1,0.1l0,0l0,0l0,0l0,0l0,0l0,0c0,0,0,0.1-0.1,0.1l-0.1,0.1l-0.1,0.1    l-0.1,0.1c0,0,0,0-0.1,0.1c-0.1,0.1-0.2,0.2-0.2,0.2l0,0l0,0l0,0l-0.1,0.1l0,0l-0.1,0.1l0,0l-0.1,0.1l0,0l-0.1,0.1l-0.1,0.1l0,0    l0,0l0,0l0,0l-0.1,0.1c-0.2,0.2-0.5,0.3-0.7,0.5c-0.1,0-0.1,0.1-0.2,0.1l0,0c0,0,0,0-0.1,0c0,0,0,0-0.1,0l0,0l0,0    c0,0-0.1,0-0.1,0.1c-0.1,0.1-0.3,0.1-0.4,0.2c-0.1,0-0.1,0.1-0.2,0.1c-0.2,0.1-0.4,0.2-0.5,0.2h-0.1h-0.1c-0.3,0.1-0.7,0.2-1,0.4    c-0.1,0-0.1,0.1-0.2,0.1c0,0-0.1,0-0.1,0.1l0,0c-0.5,0.2-0.9,0.5-1.3,0.7c-0.9,0.5-1.7,1.1-2.5,1.5    C-293.2,607.1-293.3,607.1-293.4,607.2"/></g><g id="g8962" transform="matrix(1.25,0,0,-1.25,385.90361,788.23393)"><path id="path8964" fill="#D4483F" d="M-291.8,605.9L-291.8,605.9c0.5-0.4,1-0.7,1.5-0.9l0,0C-290.8,605.2-291.3,605.5-291.8,605.9    "/></g><g id="g8966" transform="matrix(1.25,0,0,-1.25,385.90198,788.23543)"><path id="path8968" fill="#D22D27" d="M-291.8,605.9c-0.1-0.2-0.2-0.3-0.3-0.5c0.6-0.2,1.2-0.3,1.8-0.4    C-290.8,605.2-291.3,605.5-291.8,605.9"/></g><g id="g8970" transform="matrix(1.25,0,0,-1.25,383.63011,774.52668)"><path id="path8972" fill="#D32A27" d="M-292,607.3h-3.8h-9.8h-0.5c0,0,0,0,0.1,0c0.1,0,0.2-0.1,0.2-0.1l0,0c0.1,0,0.2-0.1,0.3-0.1    c0.2-0.1,0.4-0.2,0.6-0.3c0.1,0,0.2-0.1,0.3-0.2c0.1,0,0.2-0.1,0.2-0.1c0.1-0.1,0.3-0.2,0.4-0.3c0.7-0.4,1.5-1,2.5-1.5    c0.4-0.3,0.9-0.5,1.3-0.7l0,0c0,0,0.1,0,0.1-0.1c0.1,0,0.1-0.1,0.2-0.1c0.3-0.1,0.7-0.3,1-0.4c0.6,0.2,1.2,0.4,1.8,0.5    c0.4,0.1,0.9,0.1,1.3,0.1c2.2,0,4.4-0.8,6.3-1.9c0.9,0.4,1.7,0.9,2.4,1.4C-288.3,605.3-290.1,606.5-292,607.3"/></g><g id="g8974" transform="matrix(1.25,0,0,-1.25,389.22073,778.70068)"><path id="path8976" fill="#C72327" d="M-291.4,606.9c-0.7-0.5-1.5-1-2.4-1.4c0.8-0.4,1.5-0.9,2.1-1.4c0.3,0.1,0.7,0.2,1.1,0.3    c0,0.1,0.1,0.1,0.1,0.2c0.1,0.1,0.2,0.2,0.3,0.4C-290.5,605.6-291,606.3-291.4,606.9"/></g><g id="g8978" transform="matrix(1.25,0,0,-1.25,368.39111,774.64893)"><path id="path8980" fill="#C72327" d="M-293.6,607.3L-293.6,607.3L-293.6,607.3C-293.5,607.3-293.6,607.3-293.6,607.3     M-293.3,607.2c0,0,0.1,0,0.1-0.1l0,0c0.2-0.1,0.5-0.2,0.7-0.4c-0.1,0.1-0.2,0.1-0.3,0.2C-292.9,607-293.1,607.1-293.3,607.2     M-292.2,606.6c0,0,0.1,0,0.1-0.1c0.1-0.1,0.2-0.1,0.3-0.2C-291.9,606.4-292.1,606.5-292.2,606.6 M-287.9,604.1c0,0,0.1,0,0.1-0.1    C-287.8,604.1-287.9,604.1-287.9,604.1"/></g><g id="g8982" transform="matrix(1.25,0,0,-1.25,410.50423,779.21493)"><path id="path8984" fill="#C1DB78" d="M-289.3,606.8L-289.3,606.8c0.2-0.2,0.4-0.4,0.6-0.6c0.4-0.4,0.7-0.8,1-1.2v-0.1    c0.1-0.1,0.2-0.3,0.4-0.4c-0.1,0.2-0.3,0.3-0.4,0.5c-0.3,0.4-0.6,0.7-1,1.1C-288.8,606.3-289,606.5-289.3,606.8    C-289.2,606.7-289.2,606.8-289.3,606.8 M-296.8,599.9c-0.1,0-0.2,0-0.4,0c0,0,0,0,0.1,0S-296.9,599.9-296.8,599.9"/></g><g id="g8986" transform="matrix(1.25,0,0,-1.25,410.01873,778.76506)"><path id="path8988" fill="#BAD64F" d="M-289.3,606.9L-289.3,606.9C-289.4,606.8-289.4,606.8-289.3,606.9    C-289.4,606.8-289.4,606.8-289.3,606.9l-0.2-0.1c-0.1,0-0.1,0-0.2-0.1h-0.1c-0.1,0-0.2-0.1-0.3-0.1s-0.2-0.1-0.3-0.1    c-0.1-0.1-0.3-0.2-0.4-0.2c-0.1-0.1-0.2-0.1-0.3-0.2c-0.1-0.1-0.3-0.2-0.4-0.3c-0.1-0.1-0.2-0.1-0.3-0.2c-0.1-0.1-0.3-0.2-0.4-0.3    c-0.1-0.1-0.2-0.1-0.2-0.2l0,0l0,0l0,0c-0.1-0.1-0.2-0.2-0.3-0.3c-0.1-0.1-0.2-0.1-0.2-0.2c-0.1-0.1-0.3-0.3-0.4-0.4    c-0.1-0.1-0.1-0.1-0.2-0.2c-0.1-0.2-0.3-0.3-0.4-0.5c0-0.1-0.1-0.1-0.1-0.2c-0.2-0.2-0.3-0.4-0.4-0.6l-0.1-0.1    c-0.2-0.2-0.3-0.5-0.5-0.7l0,0c-0.1-0.1-0.2-0.3-0.3-0.4l0,0c-0.2-0.3-0.4-0.6-0.6-0.9c-0.2-0.3-0.4-0.6-0.6-0.9c0.1,0,0.2,0,0.4,0    c0.9,0,1.8-0.2,2.4-0.8l0,0l0,0c-0.4-0.1-0.7-0.2-1.1-0.3c1.1,0.3,2.2,0.5,3.3,0.6c0.4,0,0.8,0.1,1.2,0.1c0.2,0.4,0.3,0.7,0.5,1.1    c0.6,1.1,1.3,2.2,2.2,3c0.4,0.3,0.7,0.6,1.2,0.8c-0.1,0.1-0.1,0.1-0.2,0.2c-0.1,0.1-0.2,0.3-0.4,0.4v0.1c-0.3,0.4-0.7,0.8-1,1.2    c-0.2,0.2-0.4,0.4-0.6,0.6l0,0C-289,606.6-289.3,606.8-289.3,606.9L-289.3,606.9"/></g><g id="g8990" transform="matrix(1.25,0,0,-1.25,401.4146,790.51631)"><path id="path8992" fill="#C1DB78" d="M-290.2,605.7c0.5-0.3,0.9-0.6,1.3-1l0,0c-0.4,0.3-0.8,0.6-1.2,0.9    C-290.1,605.6-290.1,605.6-290.2,605.7"/></g><g id="g8994" transform="matrix(1.25,0,0,-1.25,401.59673,790.63868)"><path id="path8996" fill="#BAD64F" d="M-290.2,605.6c0.4-0.3,0.8-0.6,1.2-0.9c0,0,0.1,0,0.1-0.1    C-289.3,605-289.7,605.3-290.2,605.6 M-287.2,603.6L-287.2,603.6L-287.2,603.6L-287.2,603.6"/></g><g id="g8998" transform="matrix(1.25,0,0,-1.25,415.41673,788.39018)"><path id="path9000" fill="#E4E787" d="M-288.801,605.9L-288.801,605.9C-288.701,605.9-288.701,605.9-288.801,605.9    C-288.701,605.9-288.701,605.9-288.801,605.9 M-289.101,605.9L-289.101,605.9L-289.101,605.9L-289.101,605.9 M-289.701,605.8    C-289.701,605.8-289.801,605.8-289.701,605.8L-289.701,605.8L-289.701,605.8 M-290.001,605.8    C-290.001,605.8-290.101,605.8-290.001,605.8L-290.001,605.8L-290.001,605.8 M-290.401,605.7L-290.401,605.7L-290.401,605.7     M-290.601,605.7h-0.1H-290.601C-290.701,605.7-290.601,605.7-290.601,605.7 M-290.701,605.6c-1.9-0.5-3.6-1.6-5.1-2.7    c1.3,1,2.8,2,4.5,2.6l0,0c0.1,0,0.2,0.1,0.3,0.1l0,0C-290.901,605.6-290.801,605.6-290.701,605.6 M-286.901,605.6L-286.901,605.6    L-286.901,605.6L-286.901,605.6 M-295.801,602.9L-295.801,602.9L-295.801,602.9 M-295.801,602.9L-295.801,602.9L-295.801,602.9     M-295.801,602.9L-295.801,602.9L-295.801,602.9 M-296.001,602.7L-296.001,602.7L-296.001,602.7"/></g><g id="g9002" transform="matrix(1.25,0,0,-1.25,403.56236,788.15681)"><path id="path9004" fill="#E4E787" d="M-290,605.9h-0.1c-1.1-0.4-1.8-0.9-2.7-1.6C-291.9,605-291,605.5-290,605.9 M-292.8,604.3    C-292.8,604.3-292.7,604.3-292.8,604.3L-292.8,604.3c0.4-0.2,0.6-0.4,0.9-0.5C-292.2,604-292.5,604.1-292.8,604.3 M-290.3,602.6    C-290.3,602.5-290.3,602.5-290.3,602.6c0.3-0.3,0.7-0.5,1.2-0.7C-289.5,602-289.9,602.3-290.3,602.6"/></g><g id="g9006" transform="matrix(1.25,0,0,-1.25,402.99123,791.67606)"><path id="path9008" fill="#C2D43B" d="M-290,605.5c0.1-0.1,0.1-0.1,0.2-0.2c0.4-0.3,0.8-0.5,1.2-0.7l0,0l0,0c0.1,0,0.1-0.1,0.2-0.1    C-289,604.8-289.5,605.2-290,605.5"/></g><g id="g9010" transform="matrix(1.25,0,0,-1.25,400.44835,789.91443)"><path id="path9012" fill="#ACD04F" d="M-290.3,605.7L-290.3,605.7c0.3-0.2,0.6-0.4,0.9-0.5c0.1,0,0.1-0.1,0.2-0.1    C-289.6,605.3-289.9,605.5-290.3,605.7"/></g><g id="g9014" transform="matrix(1.25,0,0,-1.25,408.66785,787.33181)"><path id="path9016" fill="#A6CC42" d="M-289.4,606c-0.4,0-0.8-0.1-1.2-0.1c-1.1-0.1-2.2-0.3-3.3-0.6l0,0l0,0    c-1-0.4-1.9-0.9-2.8-1.6c0.4-0.2,0.7-0.4,1-0.7c0.4-0.3,0.9-0.6,1.3-0.9c0.5-0.4,1.1-0.8,1.6-1.1h0.1l0,0l0,0l0,0    c0.2-0.1,0.3-0.2,0.5-0.2l0,0l0,0l0,0c0.1,0,0.2-0.1,0.2-0.1l0,0l0,0l0,0l0,0c0.1,0,0.4,0.7,0.5,0.8c0.3,0.6,0.6,1.2,0.9,1.9    C-290.3,604.1-289.9,605.1-289.4,606"/></g><g id="g9018" transform="matrix(1.25,0,0,-1.25,417.08448,789.11768)"><path id="path9020" fill="#E4E787" d="M-288.6,605.8L-288.6,605.8L-288.6,605.8L-288.6,605.8c-0.1,0-0.1,0-0.1-0.1l0,0l0,0l0,0l0,0    l0,0l0,0l0,0l0,0l0,0l0,0l0,0l0,0l0,0l0,0l0,0c-0.1-0.1-0.2-0.1-0.4-0.2C-289,605.6-288.8,605.7-288.6,605.8L-288.6,605.8    L-288.6,605.8 M-286.9,603.9c0.9-1.4,1.6-2.7,2.4-3.9C-285.2,601.2-286,602.5-286.9,603.9 M-321.9,602.5L-321.9,602.5L-321.9,602.5    L-321.9,602.5 M-321.9,602.5L-321.9,602.5L-321.9,602.5 M-321.9,602.5L-321.9,602.5L-321.9,602.5L-321.9,602.5L-321.9,602.5    L-321.9,602.5 M-293.3,600.9L-293.3,600.9c-0.1-0.1-0.1-0.2-0.2-0.3C-293.5,600.8-293.4,600.8-293.3,600.9 M-312,600.9    C-312.1,600.9-312.1,600.9-312,600.9L-312,600.9C-312.1,600.9-312.1,600.9-312,600.9C-312.1,600.9-312,600.9-312,600.9"/></g><g id="g9022" transform="matrix(1.25,0,0,-1.25,392.92485,794.02131)"><path id="path9024" fill="#CCDA52" d="M-291.1,605.3L-291.1,605.3L-291.1,605.3L-291.1,605.3 M-291.2,605.3L-291.2,605.3    c-0.2-0.1-0.4-0.1-0.5-0.2h-0.1l0,0C-291.6,605.1-291.4,605.2-291.2,605.3 M-291.9,605L-291.9,605L-291.9,605L-291.9,605     M-291.9,605L-291.9,605c-0.2-0.1-0.4-0.1-0.6-0.1l0,0h-0.1l0,0h0.1l0,0C-292.4,604.9-292.2,605-291.9,605L-291.9,605     M-292.8,604.8L-292.8,604.8c-0.1,0-0.1,0-0.2,0C-292.9,604.8-292.9,604.8-292.8,604.8"/></g><g id="g9026" transform="matrix(1.25,0,0,-1.25,380.14085,792.75043)"><path id="path9028" fill="#B4D889" d="M-292.4,605.4L-292.4,605.4L-292.4,605.4L-292.4,605.4L-292.4,605.4 M-292.2,605.3    c0.2-0.1,0.4-0.2,0.6-0.3l0,0C-291.8,605.1-292,605.2-292.2,605.3 M-261.9,603L-261.9,603L-261.9,603L-261.9,603 M-274.8,602.9    L-274.8,602.9c0.7-0.6,1.5-1,2.5-1.2l0,0c-0.1,0-0.1,0-0.2,0c0,0,0,0-0.1,0s-0.2,0-0.3,0.1h-0.1c-0.1,0-0.2,0.1-0.3,0.1h-0.1    c-0.1,0-0.2,0.1-0.3,0.1l0,0C-274,602.4-274.4,602.6-274.8,602.9 M-272.2,601.7L-272.2,601.7L-272.2,601.7L-272.2,601.7    L-272.2,601.7L-272.2,601.7 M-249,595.2L-249,595.2L-249,595.2L-249,595.2"/></g><g id="g9030" transform="matrix(1.25,0,0,-1.25,380.14585,792.75356)"><path id="path9032" fill="#A1CD59" d="M-292.4,605.4L-292.4,605.4c0.2-0.1,0.5-0.3,0.7-0.4l0,0c-0.2,0.1-0.4,0.2-0.6,0.3    C-292.3,605.4-292.3,605.4-292.4,605.4 M-274.799,602.9L-274.799,602.9c0.7-0.6,1.5-1.1,2.5-1.2c0,0,0,0-0.1,0    C-273.299,601.9-274.099,602.3-274.799,602.9"/></g><g id="g9034" transform="matrix(1.25,0,0,-1.25,380.14585,792.75356)"><path id="path9036" fill="#88C143" d="M-292.4,605.4L-292.4,605.4c0.2-0.1,0.5-0.3,0.7-0.4l0,0    C-291.9,605.2-292.1,605.3-292.4,605.4"/></g><g id="g9038" transform="matrix(1.25,0,0,-1.25,380.14085,792.75043)"><path id="path9040" fill="#A1CD59" d="M-292.4,605.4L-292.4,605.4L-292.4,605.4L-292.4,605.4"/></g><g id="g9042" transform="matrix(1.25,0,0,-1.25,380.14435,792.75243)"><path id="path9044" fill="#88C143" d="M-292.4,605.4L-292.4,605.4c0-0.1,0.1-0.1,0.1-0.2C-292.3,605.3-292.3,605.4-292.4,605.4    L-292.4,605.4 M-292.2,605.2c0.1-0.2,0.2-0.3,0.3-0.5c4.6-4.6,13-7.1,19.9-7.1c3.3,0,6.2,0.6,8.3,1.7c1.6,0.9,3.2,1.7,4.7,2.3    c-0.4,0.2-0.7,0.4-1.1,0.6c-0.6,0.3-1.2,0.5-1.7,0.7h-0.1l0,0c-2.6-0.5-3.1-2.1-6.2-3.4l0,0c-1-0.5-2.1-0.9-3.2-1.1l0,0    c-0.6-0.1-1.2-0.2-1.8-0.2l0,0l0,0c-1.9,0-3.8,0.5-5.5,1.6l0,0l0,0l0,0l0,0c0.4,0,0.7-0.1,1.1-0.1l0,0l0,0c0.5,0,0.9,0,1.4,0.1l0,0    l0,0h0.1c1.6,0.3,2.8,0.9,3.8,1.8l0,0l0,0c-1.6-0.8-3.7-1.2-5.9-1.2C-283,600.5-288.6,602.2-292.2,605.2"/></g><g id="g9046" transform="matrix(1.25,0,0,-1.25,380.14673,792.75356)"><path id="path9048" fill="#7BBD43" d="M-292.4,605.4c0,0,0.1-0.1,0.1-0.2l0,0c3.7-3.1,9.3-4.7,14.1-4.7c2.3,0,4.4,0.4,5.9,1.2    c-1,0.2-1.8,0.6-2.5,1.2c-2.8-0.5-5.4-1-7.6-1c-0.5,0-0.9,0-1.3,0.1c-3.3,0.3-6.4,2-8,3C-291.9,605.2-292.1,605.3-292.4,605.4"/></g><g id="g9050" transform="matrix(1.25,0,0,-1.25,409.76698,778.54831)"><path id="path9052" fill="#FBBEA7" d="M-289.299,606.9L-289.299,606.9L-289.299,606.9L-289.299,606.9 M-305.1,601.8    c0,0,0.1,0,0.1-0.1l0,0c0.1,0,0.1-0.1,0.2-0.1h-0.1C-304.9,601.7-305,601.8-305.1,601.8 M-303.7,601.1L-303.7,601.1L-303.7,601.1"/></g><g id="g9054" transform="matrix(1.25,0,0,-1.25,409.76648,778.54831)"><path id="path9056" fill="#F15D25" d="M-289.3,606.9L-289.3,606.9L-289.3,606.9 M-305.9,602.3L-305.9,602.3    c0.1-0.1,0.2-0.1,0.2-0.1l0,0c0,0,0.1,0,0.1-0.1C-305.6,602.1-305.8,602.2-305.9,602.3 M-305.1,601.8L-305.1,601.8    c0.1-0.1,0.2-0.1,0.3-0.2h0.1l0,0C-304.8,601.7-305,601.8-305.1,601.8 M-304.2,601.4L-304.2,601.4c0.1,0,0.1-0.1,0.2-0.1    C-304.1,601.3-304.2,601.4-304.2,601.4 M-303.9,601.3L-303.9,601.3L-303.9,601.3c0.1,0,0.2-0.1,0.2-0.1    C-303.8,601.2-303.9,601.2-303.9,601.3"/></g><g id="g9058" transform="matrix(1.25,0,0,-1.25,408.91473,777.85456)"><path id="path9060" fill="#E6795E" d="M-289.401,606.9c0.3-0.2,0.5-0.4,0.8-0.6l0,0C-288.901,606.5-289.201,606.7-289.401,606.9    L-289.401,606.9 M-291.401,606.7c-2.1,0-4.1-0.7-5.9-1.7c0,0,0,0,0.1,0C-295.401,606.1-293.401,606.7-291.401,606.7    c0.3,0,0.5,0,0.8,0C-290.801,606.7-291.101,606.7-291.401,606.7 M-303,600.6L-303,600.6L-303,600.6L-303,600.6L-303,600.6"/></g><g id="g9062" transform="matrix(1.25,0,0,-1.25,406.64123,776.39268)"><path id="path9064" fill="#E05756" d="M-289.7,607.1c0.6-0.3,1.3-0.7,1.9-1.2c-0.4,0.3-0.8,0.6-1.2,0.8c-0.2,0.1-0.4,0.2-0.5,0.3    C-289.6,607.1-289.6,607.1-289.7,607.1"/></g><g id="g9066" transform="matrix(1.25,0,0,-1.25,406.59098,776.37418)"><path id="path9068" fill="#D23E3B" d="M-289.7,607.1c0.7-0.4,1.4-0.8,2.1-1.3l0,0c-0.1,0.1-0.1,0.1-0.2,0.2    C-288.4,606.4-289,606.8-289.7,607.1C-289.6,607.1-289.6,607.1-289.7,607.1"/></g><g id="g9070" transform="matrix(1.25,0,0,-1.25,406.59098,776.37418)"><path id="path9072" fill="#D12A27" d="M-289.7,607.1c-0.5,0.2-1,0.5-1.4,0.7c-1.2,0.4-2.4,0.7-3.7,0.9l0,0    c-0.9,0.1-1.9,0.1-2.8,0.1l0,0l0,0h-0.1c-3.7-0.4-5.4-2.2-7.5-3.8c0.5-0.6,0.9-1.3,1.2-2c0.1-0.1,0.1-0.2,0.2-0.3    c0.7,0.2,1.5,0.5,2.3,0.9c4.8,1.9,8.3,2.6,10.9,2.6c1.3,0,2.3-0.1,3.1-0.3C-288.2,606.3-288.9,606.7-289.7,607.1"/></g><g id="g9074" transform="matrix(1.25,0,0,-1.25,390.7611,781.26643)"><path id="path9076" fill="#D22D27" d="M-291.3,606.6c-0.2-0.1-0.4-0.1-0.6-0.2c-0.1-0.1-0.2-0.2-0.3-0.3c-0.1-0.1-0.1-0.2-0.2-0.2    l-0.1-0.1c0.1-0.1,0.3-0.2,0.4-0.3c0.3-0.3,0.6-0.5,1-0.7c0,0,0,0,0.1,0c0,0,0,0,0.1,0l0,0l0,0h0.1c0.1,0,0.2-0.1,0.2-0.1    C-290.7,605.2-291,605.9-291.3,606.6"/></g><g id="g9078" transform="matrix(1.25,0,0,-1.25,390.59298,780.90243)"><path id="path9080" fill="#C72127" d="M-291.3,606.6c-0.1-0.1-0.2-0.2-0.3-0.4c0-0.1-0.1-0.1-0.1-0.2c0.2,0.1,0.4,0.1,0.6,0.2    C-291.2,606.4-291.2,606.5-291.3,606.6"/></g><g id="g9082" transform="matrix(1.25,0,0,-1.25,406.75961,778.08993)"><path id="path9084" fill="#FFFFFF" d="M-289.6,606.9L-289.6,606.9c-0.1,0-0.1,0-0.2,0l0,0c-0.1,0-0.2,0-0.3,0l0,0h-0.1l0,0l0,0l0,0    l0,0h-0.1c-0.1,0-0.2,0-0.3,0l0,0h-0.1c-0.1,0-0.3,0-0.4-0.1c-0.1,0-0.1,0-0.2,0s-0.2,0-0.3-0.1c-0.1,0-0.1,0-0.2,0s-0.2,0-0.3-0.1    c-0.1,0-0.1,0-0.2-0.1c-0.1,0-0.3-0.1-0.4-0.1s-0.2-0.1-0.3-0.1c-0.1,0-0.1-0.1-0.2-0.1s-0.2-0.1-0.3-0.1c-0.1,0-0.1-0.1-0.2-0.1    s-0.2-0.1-0.3-0.1c-0.1,0-0.1-0.1-0.2-0.1s-0.2-0.1-0.3-0.1c-0.1,0-0.1-0.1-0.2-0.1s-0.1-0.1-0.2-0.1h-0.1c-0.1,0-0.2-0.1-0.2-0.1    c-0.1,0-0.1-0.1-0.2-0.1c-0.1-0.1-0.2-0.1-0.3-0.2c-0.1,0-0.1-0.1-0.2-0.1c-0.4-0.2-0.8-0.5-1.2-0.7l0,0l0,0l0,0l0,0l0,0l0,0l0,0    l0,0l0,0c-0.1-0.1-0.2-0.2-0.3-0.2l-0.1-0.1c-0.1-0.1-0.2-0.1-0.3-0.2c0,0-0.1,0-0.1-0.1c-0.1-0.1-0.2-0.1-0.3-0.2l-0.1-0.1    c-0.1-0.1-0.2-0.1-0.2-0.2l-0.1-0.1c-0.1-0.1-0.2-0.1-0.2-0.2c0,0-0.1,0-0.1-0.1l0,0l0,0c-0.1-0.1-0.2-0.2-0.3-0.3l0,0l0,0l0,0l0,0    c-0.2-0.1-0.3-0.3-0.5-0.4c-0.1-0.1-0.2-0.2-0.2-0.2c-0.1-0.1-0.1-0.1-0.2-0.2c-0.1-0.1-0.3-0.3-0.4-0.4v-0.1    c-0.2-0.2-0.3-0.3-0.5-0.5l0,0l0,0l0,0c-0.1,0-0.1,0.1-0.2,0.1l0,0c-0.3,0.2-0.6,0.3-1,0.5l0,0c-0.2,0.1-0.3,0.2-0.5,0.2    c-0.1,0.1-0.2,0.1-0.3,0.2l0,0l0,0c-0.3,0.2-0.6,0.4-0.9,0.6l0,0c-0.1,0-0.1,0.1-0.1,0.1l-0.1,0.1l0,0l0,0    c-0.2,0.1-0.4,0.3-0.5,0.4c-0.1,0-0.1,0.1-0.2,0.1c-0.1,0.1-0.3,0.2-0.4,0.3c-0.1,0.1-0.2,0.1-0.3,0.2c-0.1,0.1-0.2,0.1-0.2,0.2    c-0.2,0.1-0.3,0.2-0.5,0.3l0,0c-0.2,0.1-0.4,0.3-0.6,0.4c-0.2,0.1-0.3,0.2-0.5,0.3c0,0,0,0-0.1,0l0,0l0,0l0,0l0,0l0,0    c-0.2,0.1-0.4,0.2-0.6,0.4c0,0,0,0-0.1,0s-0.2,0.1-0.3,0.1c-0.1,0-0.1,0.1-0.2,0.1c-0.1,0.1-0.3,0.1-0.4,0.2    c-0.1,0-0.1,0.1-0.2,0.1c-0.1,0.1-0.2,0.1-0.4,0.2c-0.1,0-0.2,0.1-0.3,0.1c-0.1,0-0.2,0.1-0.3,0.1l0,0c-0.2,0.1-0.4,0.1-0.5,0.2    h-0.1c-0.1,0-0.2,0.1-0.3,0.1s-0.1,0-0.2,0s-0.2,0.1-0.3,0.1h-0.1c-0.2,0-0.4,0.1-0.6,0.1l0,0c-0.2,0-0.4,0-0.6,0.1    c-0.1,0-0.2,0-0.3,0s-0.2,0-0.3,0h-0.1c-0.1,0-0.1,0-0.2,0c-0.6,0-1.2-0.1-1.8-0.2l0,0c-0.2,0-0.3-0.1-0.5-0.1l0,0l0,0    c-0.1,0-0.2,0-0.2-0.1l0,0h-0.1c-0.1,0-0.1,0-0.2-0.1l0,0l0,0c0.1-0.1,0.3-0.1,0.4-0.2l0,0l0,0c0.1,0,0.2-0.1,0.3-0.1h-0.1    c0.1,0,0.1-0.1,0.2-0.1s0.1-0.1,0.2-0.1c0,0,0.1,0,0.1-0.1c0.1,0,0.1-0.1,0.2-0.1l0,0l0,0l0,0l0,0c0.4-0.2,0.7-0.4,1-0.7l0,0l0,0    l0.1-0.1l0,0l0,0c1.2-1,2.1-2.2,3-3.5c0,0,0-0.1,0.1-0.1c0.2-0.3,0.4-0.5,0.6-0.8c0.1-0.1,0.2-0.3,0.3-0.4c0.1-0.1,0.1-0.2,0.2-0.2    l0,0c0.2-0.2,0.3-0.4,0.5-0.6c0.2-0.3,0.5-0.6,0.8-0.8c0.1-0.1,0.1-0.1,0.2-0.2c0.2-0.2,0.5-0.4,0.7-0.6l0,0    c0.1-0.1,0.2-0.2,0.4-0.3l0,0c0.1-0.1,0.2-0.2,0.4-0.2l0,0c0.1-0.1,0.3-0.1,0.4-0.2h0.1c0,0,0.1,0,0.1-0.1c0.1,0,0.1-0.1,0.2-0.1    l0,0c0.1,0,0.2-0.1,0.3-0.1c0.1,0,0.1,0,0.2-0.1c0.1,0,0.2-0.1,0.3-0.1c0.2,0,0.4-0.1,0.5-0.1l0,0l0,0l0,0l0,0    c-0.1-0.1-0.2-0.2-0.3-0.2l0,0c-0.1-0.1-0.3-0.2-0.4-0.3c-0.3-0.2-0.6-0.4-0.9-0.5c-0.6-0.3-1.1-0.6-1.7-0.8l0,0l0,0    c-0.1,0-0.2-0.1-0.4-0.1c-0.1,0-0.1,0-0.2,0l0,0c-0.4-0.1-0.8-0.201-1.3-0.3c-0.6-0.1-1.2-0.1-1.8-0.2l0,0l0,0l0,0    c-0.1,0-0.1,0-0.2,0l0,0l0,0c-0.4,0-0.8,0-1.2,0.099l0.1-0.2l0,0l0,0l0,0c0.2-0.1,0.5-0.3,0.7-0.4l0,0c0.1-0.1,0.3-0.1,0.4-0.2    c0.1,0,0.2-0.1,0.2-0.1c0.1,0,0.2-0.1,0.3-0.1l0,0c0.1,0,0.2-0.099,0.2-0.099c0.1,0,0.2-0.1,0.3-0.1l0,0c0.1,0,0.1,0,0.2-0.1    c0.1,0,0.2-0.1,0.3-0.1c0.1,0,0.2-0.1,0.3-0.1s0.2-0.1,0.3-0.1c0.1,0,0.2,0,0.3-0.1c0.1,0,0.2,0,0.3-0.1c0.1,0,0.2,0,0.3-0.1h0.1    c0.1,0,0.1,0,0.2,0s0.2,0,0.3,0h0.1c0.1,0,0.1,0,0.2,0s0.2,0,0.3,0l0,0c0.1,0,0.2,0,0.3,0h0.1c0.1,0,0.1,0,0.1,0c0.1,0,0.2,0,0.3,0    s0.1,0,0.2,0h0.1h0.1h0.1h0.1l0,0c0.1,0,0.1,0,0.2,0h0.1h0.1c0.1,0,0.1,0,0.2,0s0.2,0,0.3,0l0,0l0,0c0.1,0,0.2,0,0.3,0s0.2,0,0.3,0    l0,0l0,0c0.1,0,0.2,0,0.3,0c0.1,0,0.1,0,0.2,0h0.1c0.1,0,0.2,0,0.3,0.1l0,0l0,0c0.1,0,0.2,0,0.3,0.1c0.2,0,0.5,0.1,0.7,0.2l0,0l0,0    l0,0l0,0l0,0l0,0l0,0l0,0l0,0c0,0,0,0,0.1,0h0.1c0.2,0.1,0.4,0.1,0.6,0.2c0.2,0.1,0.4,0.1,0.6,0.2h0.1l0,0c0.2,0.1,0.4,0.2,0.6,0.2    c0.2,0.1,0.5,0.2,0.7,0.3l0,0l0,0l0,0l0,0c0.3,0.2,0.6,0.3,0.9,0.4c0.2,0.1,0.3,0.2,0.4,0.2c0,0,0.1,0,0.1,0.1    c0.1,0,0.2,0.1,0.2,0.1l0,0c0.1-0.2,0.3-0.4,0.4-0.5c0.4-0.5,0.7-1,1.1-1.5l0,0c0.1-0.1,0.2-0.2,0.3-0.4l0,0    c0.1-0.1,0.2-0.2,0.3-0.3l0,0c0.1-0.1,0.2-0.2,0.3-0.3l0,0c0.1-0.1,0.2-0.2,0.3-0.2l0,0c0.1-0.1,0.2-0.2,0.4-0.2l0,0    c0.1,0,0.1-0.1,0.2-0.1h0.1c0,0,0.1,0,0.1-0.1c0.1,0,0.1-0.1,0.2-0.1c0.1,0,0.1,0,0.2-0.1c0.1,0,0.1,0,0.2-0.1c0.1,0,0.1,0,0.2-0.1    h0.1h0.1h0.1h0.1h0.1c0,0,0,0,0.1,0l0,0l0,0l0,0l0,0l0,0c-1-0.8-2.2-1.5-3.8-1.8h-0.1l0,0l0,0c-0.4-0.1-0.9-0.1-1.4-0.1l0,0l0,0    c-0.3,0-0.7,0-1.1,0.1l0,0l0,0l0,0l0,0c1.7-1.1,3.6-1.6,5.5-1.6l0,0l0,0c0.6,0,1.2,0.1,1.8,0.2l0,0c1.1,0.2,2.2,0.6,3.2,1.1l0,0    c3.1,1.3,3.6,2.9,6.2,3.4l0,0c-0.5,0.5-1.2,0.6-1.8,0.6c-0.1,0-0.2,0-0.3,0c0.1,0.1,0.1,0.2,0.2,0.3c1.3,1.8,2.4,3.7,4.5,4.8l0,0    l0,0l0,0l0,0l0,0l0,0l0,0l0,0l0,0l0,0l0,0l0,0l0,0l0,0l0,0l0,0c0,0,0,0,0.1,0l0,0l0,0c0.1,0.1,0.3,0.1,0.4,0.2l0,0l0,0l-0.1,0.2    l0,0c-0.2,0.1-0.3,0.1-0.5,0.1h-0.1c-0.2,0-0.4,0.1-0.6,0.1l0,0c-0.2,0-0.4,0-0.6,0c-0.1,0-0.1,0-0.2,0c-0.1,0-0.3,0-0.4,0l0,0    c-0.2,0-0.4,0-0.6-0.1l0,0c-0.2,0-0.4-0.1-0.5-0.1l0,0c-0.2,0-0.4-0.1-0.5-0.1l0,0c-0.1,0-0.2-0.1-0.4-0.1c-0.1,0-0.3-0.1-0.4-0.1    s-0.1-0.1-0.2-0.1c-0.1-0.1-0.3-0.1-0.4-0.2c-0.1,0-0.1,0-0.2-0.1c-0.2-0.1-0.4-0.2-0.6-0.3l0,0c-0.2-0.1-0.4-0.2-0.6-0.3    c-0.1,0-0.1-0.1-0.2-0.1c-0.1-0.1-0.3-0.2-0.4-0.2s-0.1-0.1-0.2-0.1c-0.1-0.1-0.2-0.2-0.3-0.2s-0.1-0.1-0.2-0.1    c-0.1-0.1-0.2-0.2-0.3-0.3c-0.1,0-0.1-0.1-0.2-0.1c-0.2-0.1-0.3-0.2-0.5-0.4l0,0l0,0l0,0c-0.1-0.1-0.2-0.2-0.3-0.3l0,0    c-0.1-0.1-0.1-0.1-0.2-0.2l0,0l0,0c-0.2-0.2-0.5-0.5-0.7-0.8h-0.1c-0.1,0-0.2,0.1-0.2,0.1c-0.3,0.1-0.5,0.3-0.8,0.4l0,0    c-0.4,0.2-0.9,0.5-1.2,0.8l0,0c0,0,0,0-0.1,0l0,0c-0.1,0.1-0.2,0.2-0.3,0.3c-0.1,0.1-0.2,0.2-0.4,0.3c-0.1,0-0.1,0.1-0.2,0.1    c-0.1,0.1-0.2,0.2-0.3,0.2s-0.1,0.1-0.2,0.1l-0.1,0.1c-0.1,0-0.1,0.1-0.2,0.1c-0.2,0.1-0.4,0.2-0.6,0.4l0,0h-0.1    c0.8,0.6,1.6,1.2,2.7,1.6h0.1c0.4,0.1,0.7,0.2,1.1,0.3l0,0l0,0c-0.1,0.1-0.2,0.2-0.3,0.2c-0.6,0.4-1.4,0.6-2.1,0.6l0,0    c-0.1,0-0.2,0-0.3,0c0,0,0,0-0.1,0l0,0c1.3,1.9,2.5,3.9,4.3,5.4l0,0c0.8,0.7,1.8,1.3,2.8,1.8c0.1,0,0.2,0.1,0.3,0.1l-0.1,0.1    l-0.1,0.1l0,0l0,0l0,0l0,0l0,0l0,0l0,0l0,0l0,0l0,0c-0.1,0-0.1,0-0.2,0h-0.1c-0.1,0-0.1,0-0.2,0s-0.1,0-0.2,0    c-0.1,0-0.2,0.1-0.4,0.1c-0.1,0-0.1,0-0.2,0c-0.1,0-0.3,0-0.4,0.1h-0.1h-0.1c-0.1,0-0.1,0-0.2,0s-0.1,0-0.2,0h-0.1l0,0h-0.1    C-289.4,606.9-289.5,606.9-289.6,606.9"/></g><g id="g9086" transform="matrix(1.25,0,0,-1.25,417.56723,788.91281)"><path id="path9088" fill="#EBEDA9" d="M-288.5,605.8L-288.5,605.8L-288.5,605.8L-288.5,605.8 M-311.6,601.001L-311.6,601.001    L-311.6,601.001L-311.6,601.001z"/></g><g id="g9090" transform="matrix(1.25,0,0,-1.25,396.91048,792.23781)"><path id="path9092" fill="#F0F3C3" d="M-290.6,605.5L-290.6,605.5c0.1-0.1,0.1-0.1,0.2-0.2c0-0.1,0.1-0.1,0.1-0.2l0,0l0.1-0.1    C-290.4,605.1-290.5,605.3-290.6,605.5 M-293,604.3c-0.2-0.1-0.4-0.2-0.6-0.2l0,0l0,0C-293.4,604.2-293.2,604.3-293,604.3     M-293.6,604.1C-293.7,604.1-293.7,604.1-293.6,604.1C-293.7,604.1-293.7,604.1-293.6,604.1 M-294.9,603.7L-294.9,603.7    C-295,603.7-294.9,603.7-294.9,603.7L-294.9,603.7 M-295,603.6C-295,603.6-295.1,603.6-295,603.6L-295,603.6    C-295.1,603.6-295.1,603.6-295,603.6L-295,603.6 M-295.1,603.6L-295.1,603.6L-295.1,603.6L-295.1,603.6 M-295.1,603.6L-295.1,603.6    L-295.1,603.6 M-295.1,603.6L-295.1,603.6L-295.1,603.6 M-285.7,601.3L-285.7,601.3L-285.7,601.3"/></g><g id="g9094" transform="matrix(1.25,0,0,-1.25,391.98198,794.29781)"><path id="path9096" fill="#DFE8A0" d="M-291.2,605.3L-291.2,605.3L-291.2,605.3L-291.2,605.3L-291.2,605.3z"/></g><g id="g9098" transform="matrix(1.25,0,0,-1.25,410.01873,778.76506)"><path id="path9100" fill="#EBEDA9" d="M-289.3,606.9c-0.1,0-0.2-0.1-0.3-0.1h0.1C-289.5,606.8-289.4,606.8-289.3,606.9    L-289.3,606.9C-289.3,606.8-289.3,606.9-289.3,606.9 M-289.6,606.7c-1-0.4-2-1-2.8-1.8l0,0l0,0    C-291.6,605.7-290.7,606.3-289.6,606.7C-289.7,606.7-289.6,606.7-289.6,606.7 M-292.4,605c-1.7-1.5-3-3.5-4.3-5.4    c0.2,0.3,0.4,0.6,0.6,0.8c0.2,0.3,0.4,0.6,0.6,0.9l0,0c0.1,0.1,0.2,0.3,0.3,0.4l0,0C-294.4,602.9-293.6,604-292.4,605    C-292.5,604.9-292.5,605-292.4,605 M-296.8,599.5L-296.8,599.5 M-283.2,598L-283.2,598L-283.2,598c0.2-0.1,0.4-0.1,0.6-0.1l0,0l0,0    l0,0l0,0C-282.8,597.9-283,598-283.2,598L-283.2,598L-283.2,598L-283.2,598 M-295.5,595.1L-295.5,595.1L-295.5,595.1L-295.5,595.1    L-295.5,595.1L-295.5,595.1 M-294.2,594.3L-294.2,594.3c0.3-0.1,0.5-0.3,0.8-0.4c0.1,0,0.2-0.1,0.2-0.1c-0.1,0-0.2,0.1-0.2,0.1l0,0    l0,0c-0.1,0-0.2,0.1-0.3,0.1s-0.2,0.1-0.2,0.1s0,0-0.1,0C-294.1,594.2-294.2,594.2-294.2,594.3L-294.2,594.3"/></g><g id="g9102" transform="matrix(1.25,0,0,-1.25,409.76698,778.54831)"><path id="path9104" fill="#FAB283" d="M-289.299,606.9L-289.299,606.9 M-311,605.8C-311,605.7-311,605.7-311,605.8    C-311,605.7-311,605.7-311,605.8 M-310.2,605.3L-310.2,605.3L-310.2,605.3L-310.2,605.3 M-301.5,603.3L-301.5,603.3    C-301.5,603.2-301.5,603.2-301.5,603.3C-301.5,603.2-301.5,603.2-301.5,603.3 M-301.8,603L-301.8,603L-301.8,603 M-301.8,603    L-301.8,603L-301.8,603 M-301.8,603c-0.1-0.1-0.2-0.1-0.3-0.2c-0.1-0.1-0.1-0.1-0.2-0.2l0,0l0,0C-302.1,602.7-302,602.8-301.8,603     M-306.9,603L-306.9,603L-306.9,603L-306.9,603 M-306.9,602.9l0.1-0.1C-306.8,602.9-306.8,602.9-306.9,602.9    C-306.8,602.9-306.8,602.9-306.9,602.9 M-306.6,602.7L-306.6,602.7c0.3-0.2,0.6-0.4,0.9-0.6l-0.1,0.1c-0.1,0-0.1,0.1-0.2,0.1    C-306.2,602.5-306.4,602.6-306.6,602.7L-306.6,602.7L-306.6,602.7L-306.6,602.7 M-305.7,602.2L-305.7,602.2L-305.7,602.2    c0.1-0.1,0.2-0.1,0.3-0.2C-305.5,602-305.6,602.1-305.7,602.2L-305.7,602.2L-305.7,602.2 M-303.9,601.3L-303.9,601.3    c0.1-0.1,0.2-0.1,0.2-0.1C-303.8,601.2-303.8,601.2-303.9,601.3L-303.9,601.3 M-303.7,601.1L-303.7,601.1 M-307.8,596.8    c-0.1-0.1-0.2-0.1-0.3-0.2l0,0C-308,596.6-307.9,596.7-307.8,596.8 M-311.5,594.7c-0.1,0-0.1,0-0.2,0l0,0    C-311.6,594.7-311.6,594.7-311.5,594.7 M-311.7,594.7L-311.7,594.7c-0.4-0.1-0.8-0.2-1.3-0.3C-312.5,594.5-312.1,594.6-311.7,594.7     M-316.2,594.3L-316.2,594.3c0.4,0,0.8-0.1,1.2-0.1l0,0c-0.2,0-0.3,0-0.5,0l0,0c-0.1,0-0.4,0-0.5,0    C-316.1,594.3-316.2,594.3-316.2,594.3"/></g><g id="g9106" transform="matrix(1.25,0,0,-1.25,407.3241,778.10368)"><path id="path9108" fill="#F2C5B5" d="M-289.6,606.9h0.1c0.1,0,0.1,0,0.2,0C-289.4,606.9-289.5,606.9-289.6,606.9 M-290.8,606.9    L-290.8,606.9L-290.8,606.9L-290.8,606.9 M-287.7,606.6h0.1c0.1,0,0.1,0,0.2,0C-287.5,606.6-287.6,606.6-287.7,606.6 M-287.4,606.5    L-287.4,606.5L-287.4,606.5L-287.4,606.5 M-308.3,605L-308.3,605L-308.3,605L-308.3,605 M-297.6,604.3L-297.6,604.3L-297.6,604.3     M-297.6,604.3L-297.6,604.3L-297.6,604.3 M-297.6,604.3L-297.6,604.3L-297.6,604.3 M-297.6,604.3L-297.6,604.3L-297.6,604.3     M-304.8,602.5l0.1-0.1l0,0L-304.8,602.5L-304.8,602.5"/></g><g id="g9110" transform="matrix(1.25,0,0,-1.25,386.62848,780.28231)"><path id="path9112" fill="#EFA27E" d="M-291.7,606.7L-291.7,606.7L-291.7,606.7L-291.7,606.7L-291.7,606.7 M-283,604.6L-283,604.6    L-283,604.6L-283,604.6 M-288.3,604.3L-288.3,604.3C-288.3,604.2-288.3,604.2-288.3,604.3L-288.3,604.3 M-288.1,604.2    C-288.1,604.1-288.1,604.1-288.1,604.2C-288.1,604.1-288.1,604.1-288.1,604.2L-288.1,604.2C-288.1,604.1-288.1,604.1-288.1,604.2     M-288.1,604.1c0.2-0.1,0.3-0.2,0.5-0.4c0,0,0,0-0.1,0c-0.1,0,0,0-0.1,0l-0.1,0.1l0,0l0,0l0,0C-287.9,604-288,604.1-288.1,604.1    L-288.1,604.1"/></g><g id="g9114" transform="matrix(1.25,0,0,-1.25,389.29423,789.72693)"><path id="path9116" fill="#FDDDCF" d="M-291.4,605.7L-291.4,605.7L-291.4,605.7 M-291.4,605.7L-291.4,605.7 M-291.7,605.5    L-291.7,605.5L-291.7,605.5c-0.2-0.1-0.3-0.2-0.4-0.3c-0.3-0.2-0.6-0.4-0.9-0.5c-0.6-0.3-1.1-0.6-1.7-0.8l0,0l0,0    c0.6,0.2,1.2,0.5,1.7,0.8c0.3,0.2,0.6,0.4,0.9,0.5C-292,605.3-291.9,605.4-291.7,605.5L-291.7,605.5 M-294.7,603.8h-0.1    c-0.1,0-0.2-0.1-0.2-0.1C-295,603.7-294.9,603.8-294.7,603.8 M-296.6,603.4c-0.1,0-0.3,0-0.4-0.1c-0.4-0.1-0.9-0.1-1.4-0.1l0,0    C-297.7,603.2-297.2,603.3-296.6,603.4 M-298.4,603.2L-298.4,603.2L-298.4,603.2L-298.4,603.2 M-298.4,603.2c-0.1,0-0.1,0-0.2,0    l0,0C-298.5,603.2-298.5,603.2-298.4,603.2L-298.4,603.2L-298.4,603.2"/></g><g id="g9118" transform="matrix(1.25,0,0,-1.25,389.01248,789.99431)"><path id="path9120" fill="#F9AB81" d="M-291.5,605.7L-291.5,605.7L-291.5,605.7L-291.5,605.7L-291.5,605.7 M-294.7,604    c-0.1,0-0.2-0.1-0.3-0.1l0,0c0,0,0.1,0,0.2,0L-294.7,604 M-295.1,603.9h-0.1c-0.1,0-0.2-0.1-0.3-0.1c-0.1,0-0.1,0-0.2,0    s-0.2,0-0.3-0.1c-0.1,0-0.1,0-0.2,0c-0.2,0-0.3-0.1-0.5-0.1l0,0c0.1,0,0.3,0,0.4,0.1C-295.9,603.6-295.5,603.7-295.1,603.9     M-296.7,603.5c-0.2,0-0.4,0-0.5-0.1h-0.1c-0.1,0-0.3,0-0.4,0h-0.1h-0.1C-297.6,603.4-297.2,603.5-296.7,603.5 M-299.6,603.5    L-299.6,603.5 M-299.4,603.4c0.2,0,0.4,0,0.5,0c0,0,0,0-0.1,0c-0.1,0-0.1,0-0.2,0S-299.4,603.4-299.4,603.4 M-298.9,603.4    L-298.9,603.4c0.2,0,0.3,0,0.5,0c0.1,0,0.1,0,0.2,0h-0.1h-0.1c-0.1,0-0.2,0-0.4,0C-298.8,603.4-298.8,603.4-298.9,603.4"/></g><g id="g9122" transform="matrix(1.25,0,0,-1.25,387.8446,789.32581)"><path id="path9124" fill="#F2C5B5" d="M-291.6,605.8L-291.6,605.8L-291.6,605.8L-291.6,605.8"/></g><g id="g9126" transform="matrix(1.25,0,0,-1.25,376.47485,778.62568)"><path id="path9128" fill="#EDAEAB" d="M-292.7,606.9h-0.1C-292.8,606.8-292.8,606.9-292.7,606.9L-292.7,606.9"/></g><g id="g9130" transform="matrix(1.25,0,0,-1.25,377.69761,779.49656)"><path id="path9132" fill="#F0B9B4" d="M-292.6,606.8L-292.6,606.8L-292.6,606.8L-292.6,606.8c0.2-0.1,0.3-0.2,0.4-0.3h0.1    c0.1-0.1,0.2-0.1,0.3-0.2c0.1,0,0.1-0.1,0.2-0.1l0,0l0,0l0,0C-291.9,606.3-292.3,606.6-292.6,606.8 M-291.6,606.1L-291.6,606.1    L-291.6,606.1l0.1-0.1C-291.5,606-291.6,606-291.6,606.1 M-291.5,606L-291.5,606L-291.5,606L-291.5,606c0.1-0.1,0.1-0.1,0.1-0.1    l0.1-0.1l0,0l0.1-0.1c0.1-0.1,0.1-0.1,0.2-0.2l0.1-0.1l0,0l0,0c0.1,0,0.1-0.1,0.2-0.1c0.1-0.1,0.2-0.2,0.3-0.3l0,0l0.1-0.1l0,0l0,0    l0,0l0,0c0,0,0-0.1,0.1-0.1c0,0,0,0,0.1-0.1c0-0.1,0.1-0.1,0.1-0.2l0,0c0,0,0,0,0-0.1c0.1-0.1,0.1-0.2,0.2-0.3l0,0    c0.1-0.1,0.2-0.2,0.3-0.3l0,0c0,0,0,0,0-0.1c0.2-0.3,0.4-0.6,0.6-0.8c0.1-0.1,0.1-0.2,0.2-0.3C-289.3,603.7-290.3,605-291.5,606    L-291.5,606"/></g><g id="g9134" transform="matrix(1.25,0,0,-1.25,377.7291,779.51543)"><path id="path9136" fill="#EF9D7A" d="M-292.6,606.8L-292.6,606.8c0.1,0,0.1-0.1,0.1-0.1c0.1,0,0.1-0.1,0.2-0.1l0,0l0,0l0,0    C-292.4,606.6-292.5,606.7-292.6,606.8 M-292.2,606.5L-292.2,606.5c0.1-0.1,0.2-0.1,0.3-0.2C-292,606.4-292.1,606.4-292.2,606.5     M-291.9,606.3L-291.9,606.3l0.1-0.1h0.1C-291.8,606.2-291.8,606.3-291.9,606.3 M-291.5,606L-291.5,606L-291.5,606L-291.5,606    L-291.5,606 M-291.5,606L-291.5,606C-291.4,605.9-291.4,605.9-291.5,606C-291.4,605.9-291.4,605.9-291.5,606 M-290.9,605.4    L-290.9,605.4C-290.8,605.4-290.8,605.4-290.9,605.4L-290.9,605.4C-290.8,605.4-290.9,605.4-290.9,605.4 M-290.8,605.4l0.1-0.1l0,0    C-290.7,605.3-290.8,605.3-290.8,605.4 M-290.7,605.2L-290.7,605.2C-290.6,605.2-290.6,605.2-290.7,605.2c0.1-0.1,0.2-0.2,0.2-0.2    l0.1-0.1C-290.5,605-290.6,605.1-290.7,605.2 M-290.3,604.8C-290.2,604.8-290.2,604.8-290.3,604.8L-290.3,604.8    C-290.2,604.8-290.2,604.8-290.3,604.8 M-290.2,604.7L-290.2,604.7L-290.2,604.7L-290.2,604.7 M-290.2,604.7L-290.2,604.7    C-290.1,604.7-290.1,604.7-290.2,604.7C-290.1,604.7-290.2,604.7-290.2,604.7 M-289.9,604.3l0.1-0.1l0.1-0.1l0,0    C-289.7,604.2-289.8,604.3-289.9,604.3"/></g><g id="g9138" transform="matrix(1.25,0,0,-1.25,390.4516,783.00256)"><path id="path9140" fill="#E7A295" d="M-291.3,606.4l0.1-0.1C-291.2,606.4-291.3,606.4-291.3,606.4"/></g><g id="g9142" transform="matrix(1.25,0,0,-1.25,390.39985,782.96168)"><path id="path9144" fill="#E69578" d="M-291.3,606.4L-291.3,606.4c0.1-0.1,0.1-0.1,0.2-0.1l0,0l0,0l0,0    C-291.2,606.3-291.2,606.4-291.3,606.4L-291.3,606.4 M-291.1,606.3c0.1,0,0.1-0.1,0.2-0.1C-291,606.2-291,606.2-291.1,606.3    L-291.1,606.3 M-290.8,606.1l0.1-0.1C-290.7,606-290.7,606-290.8,606.1C-290.7,606-290.7,606-290.8,606.1    C-290.8,606-290.8,606.1-290.8,606.1"/></g><g id="g9146" transform="matrix(1.25,0,0,-1.25,377.71398,779.50668)"><path id="path9148" fill="#E7A295" d="M-292.6,606.8L-292.6,606.8L-292.6,606.8L-292.6,606.8 M-291.4,605.9    C-291.4,605.9-291.3,605.9-291.4,605.9c0.1-0.1,0.1-0.1,0.1-0.1S-291.3,605.9-291.4,605.9 M-291.3,605.8L-291.3,605.8L-291.3,605.8    L-291.3,605.8L-291.3,605.8c0.1-0.1,0.1-0.1,0.1-0.1l0,0C-291.2,605.7-291.2,605.8-291.3,605.8 M-291.1,605.7L-291.1,605.7    L-291.1,605.7l0.1-0.1c0,0,0.1,0,0.1-0.1C-291,605.6-291.1,605.6-291.1,605.7 M-290.3,604.9L-290.3,604.9c0.1-0.1,0.1-0.1,0.1-0.1    C-290.3,604.8-290.3,604.9-290.3,604.9 M-290.2,604.7L-290.2,604.7L-290.2,604.7L-290.2,604.7 M-290.1,604.6L-290.1,604.6    L-290.1,604.6L-290.1,604.6L-290.1,604.6c0.1-0.1,0.1-0.1,0.1-0.1l0.1-0.1C-289.9,604.5-290,604.5-290.1,604.6L-290.1,604.6     M-289.6,604.1L-289.6,604.1c0-0.1,0.1-0.1,0.1-0.1l0,0l0.1-0.1l0.1-0.1C-289.4,603.8-289.5,603.9-289.6,604.1L-289.6,604.1     M-289.3,603.6l0.1-0.1l0,0c0.1-0.2,0.2-0.3,0.4-0.5c0-0.1,0.1-0.1,0.1-0.2C-288.8,603.1-289.1,603.4-289.3,603.6"/></g><g id="g9150" transform="matrix(1.25,0,0,-1.25,377.78523,779.55068)"><path id="path9152" fill="#E69578" d="M-292.6,606.8L-292.6,606.8C-292.5,606.7-292.5,606.7-292.6,606.8    C-292.6,606.7-292.6,606.8-292.6,606.8 M-291.5,606L-291.5,606L-291.5,606L-291.5,606 M-291.5,606L-291.5,606    c0.1-0.1,0.1-0.1,0.1-0.1S-291.4,605.9-291.5,606L-291.5,606 M-291.3,605.8L-291.3,605.8C-291.2,605.7-291.2,605.8-291.3,605.8     M-291.2,605.7L-291.2,605.7c0.1-0.1,0.1-0.1,0.1-0.1S-291.1,605.7-291.2,605.7 M-290.9,605.4L-290.9,605.4L-290.9,605.4    L-290.9,605.4 M-290.7,605.2C-290.6,605.2-290.6,605.2-290.7,605.2l0.1-0.1C-290.6,605.1-290.6,605.2-290.7,605.2 M-290.3,604.9    C-290.3,604.8-290.3,604.8-290.3,604.9L-290.3,604.9C-290.3,604.8-290.3,604.8-290.3,604.9C-290.3,604.8-290.3,604.9-290.3,604.9     M-290.3,604.8L-290.3,604.8L-290.3,604.8C-290.2,604.8-290.2,604.8-290.3,604.8C-290.2,604.8-290.2,604.8-290.3,604.8     M-290.2,604.7C-290.2,604.7-290.1,604.7-290.2,604.7C-290.1,604.6-290.1,604.7-290.2,604.7L-290.2,604.7 M-290.1,604.6    L-290.1,604.6C-290.1,604.5-290,604.5-290.1,604.6L-290.1,604.6L-290.1,604.6 M-289.7,604.1L-289.7,604.1L-289.7,604.1    L-289.7,604.1L-289.7,604.1 M-289.6,604L-289.6,604C-289.6,603.9-289.6,603.9-289.6,604L-289.6,604 M-289.2,603.5L-289.2,603.5    L-289.2,603.5L-289.2,603.5 M-289.2,603.5L-289.2,603.5l0.1-0.1c0.1-0.1,0.2-0.2,0.3-0.4C-288.9,603.2-289.1,603.3-289.2,603.5"/></g><g id="g9154" transform="matrix(1.25,0,0,-1.25,401.83423,786.88618)"><path id="path9156" fill="#DEEBB9" d="M-290.1,606C-290.2,606-290.2,606-290.1,606C-290.2,606-290.2,606-290.1,606"/></g><g id="g9158" transform="matrix(1.25,0,0,-1.25,409.96973,778.78456)"><path id="path9160" fill="#DAE8A9" d="M-289.3,606.9L-289.3,606.9C-289.4,606.8-289.3,606.8-289.3,606.9    C-289.3,606.8-289.3,606.9-289.3,606.9 M-289.6,606.7c-1-0.4-1.9-1-2.7-1.7c0.1,0.1,0.2,0.1,0.2,0.2c0.1,0.1,0.3,0.2,0.4,0.3    s0.2,0.1,0.3,0.2c0.1,0.1,0.3,0.2,0.4,0.3c0.1,0.1,0.2,0.1,0.3,0.2c0.1,0.1,0.3,0.2,0.4,0.2s0.2,0.1,0.3,0.1    C-289.9,606.6-289.8,606.6-289.6,606.7C-289.7,606.7-289.7,606.7-289.6,606.7 M-292.4,605L-292.4,605L-292.4,605L-292.4,605     M-292.4,604.9c-1.1-0.9-1.9-2.1-2.8-3.2l0,0c0.2,0.2,0.3,0.5,0.5,0.7l0.1,0.1c0.1,0.2,0.3,0.4,0.4,0.6c0,0.1,0.1,0.1,0.1,0.2    c0.1,0.2,0.3,0.3,0.4,0.5c0.1,0.1,0.1,0.1,0.2,0.2c0.1,0.1,0.3,0.3,0.4,0.4c0.1,0.1,0.2,0.1,0.2,0.2    C-292.7,604.7-292.6,604.8-292.4,604.9 M-295.5,601.3L-295.5,601.3L-295.5,601.3 M-295.5,601.3c-0.2-0.3-0.4-0.6-0.6-0.9    C-295.9,600.7-295.7,601-295.5,601.3 M-294,598.7L-294,598.7L-294,598.7 M-294,598.7c-0.4-0.1-0.8-0.2-1.1-0.3l0,0    C-294.7,598.5-294.3,598.6-294,598.7"/></g><g id="g9162" transform="matrix(1.25,0,0,-1.25,404.83885,792.86956)"><path id="path9164" fill="#DAE8A9" d="M-289.8,605.4L-289.8,605.4c0.1-0.1,0.2-0.1,0.3-0.1C-289.6,605.3-289.7,605.3-289.8,605.4    L-289.8,605.4L-289.8,605.4L-289.8,605.4"/></g><g id="g9166" transform="matrix(1.25,0,0,-1.25,405.72723,793.31106)"><path id="path9168" fill="#F0F3C3" d="M-289.701,605.4h0.1C-289.701,605.3-289.701,605.4-289.701,605.4"/></g><g id="g9170" transform="matrix(1.25,0,0,-1.25,417.44648,788.71956)"><path id="path9172" fill="#DFE8A0" d="M-288.6,605.8L-288.6,605.8L-288.6,605.8 M-297.7,603L-297.7,603L-297.7,603L-297.7,603     M-297.7,603L-297.7,603L-297.7,603 M-298.1,602.7c-0.1-0.1-0.1-0.1-0.2-0.2C-298.2,602.5-298.1,602.6-298.1,602.7 M-298.3,602.4    c-0.2-0.2-0.5-0.5-0.7-0.8l0,0l0,0c-0.1,0-0.2,0.1-0.3,0.1l0,0c0.1,0,0.2-0.1,0.2-0.1h0.1C-298.8,601.9-298.5,602.2-298.3,602.4     M-299.6,602c0.1,0,0.2-0.1,0.3-0.1l0,0C-299.5,601.9-299.6,601.9-299.6,602"/></g><g id="g9174" transform="matrix(1.25,0,0,-1.25,403.58223,788.14956)"><path id="path9176" fill="#F0F3C3" d="M-290,605.9h-0.1H-290L-290,605.9 M-292.8,604.3L-292.8,604.3L-292.8,604.3"/></g><g id="g9178" transform="matrix(1.25,0,0,-1.25,404.55536,792.71893)"><path id="path9180" fill="#DFE8A0" d="M-289.901,605.4c0.1,0,0.2-0.1,0.3-0.1l0,0C-289.701,605.4-289.801,605.4-289.901,605.4    L-289.901,605.4"/></g><g id="g9182" transform="matrix(1.25,0,0,-1.25,403.60086,788.14456)"><path id="path9184" fill="#D0E4A1" d="M-289.999,605.9L-289.999,605.9L-289.999,605.9L-289.999,605.9L-289.999,605.9     M-292.799,604.3L-292.799,604.3 M-288.899,601.7C-288.899,601.6-288.899,601.6-288.899,601.7    C-288.799,601.6-288.799,601.6-288.899,601.7L-288.899,601.7C-288.799,601.6-288.899,601.6-288.899,601.7 M-288.799,601.6    c0.1,0,0.2-0.1,0.2-0.1c0.1,0,0.2-0.1,0.3-0.1l0,0C-288.499,601.4-288.599,601.5-288.799,601.6L-288.799,601.6 M-288.299,601.3    c0.1,0,0.2-0.1,0.3-0.1l0,0l0,0l0,0l0,0C-288.099,601.3-288.199,601.3-288.299,601.3L-288.299,601.3"/></g><g id="g9186" transform="matrix(1.25,0,0,-1.25,417.54461,788.92193)"><path id="path9188" fill="#F0F3C3" d="M-288.5,605.8L-288.5,605.8c-0.2-0.1-0.3-0.1-0.5-0.2l0,0    C-288.8,605.7-288.7,605.8-288.5,605.8L-288.5,605.8 M-289,605.6L-289,605.6 M-289.1,605.6L-289.1,605.6L-289.1,605.6     M-289.1,605.6L-289.1,605.6L-289.1,605.6 M-289.1,605.6L-289.1,605.6L-289.1,605.6 M-289.1,605.6L-289.1,605.6L-289.1,605.6     M-289.1,605.6L-289.1,605.6L-289.1,605.6 M-289.1,605.6L-289.1,605.6L-289.1,605.6 M-289.2,605.5L-289.2,605.5L-289.2,605.5     M-289.2,605.5L-289.2,605.5L-289.2,605.5 M-289.2,605.5c-2.1-1.1-3.2-2.9-4.5-4.8l0,0c1.2,1.7,2.3,3.5,4.2,4.6    C-289.4,605.4-289.3,605.5-289.2,605.5 M-322.3,602.4L-322.3,602.4L-322.3,602.4L-322.3,602.4L-322.3,602.4 M-311.5,601L-311.5,601    L-311.5,601L-311.5,601"/></g><g id="g9190" transform="matrix(1.25,0,0,-1.25,417.56523,788.91381)"><path id="path9192" fill="#DFE8A0" d="M-288.5,605.8L-288.5,605.8L-288.5,605.8L-288.5,605.8 M-288.6,605.8    c-0.1-0.1-0.3-0.1-0.4-0.2C-288.9,605.7-288.8,605.7-288.6,605.8L-288.6,605.8 M-289.5,605.3c-1.9-1.1-3-2.8-4.2-4.6    c0.7,1,1.3,1.9,2.1,2.8C-291,604.3-290.4,604.9-289.5,605.3 M-307.2,602.8c0,0-0.1,0-0.2-0.1C-307.3,602.8-307.2,602.8-307.2,602.8    L-307.2,602.8L-307.2,602.8 M-307.9,602.5c-0.3-0.1-0.6-0.3-0.9-0.4C-308.4,602.2-308.1,602.3-307.9,602.5 M-308.8,602L-308.8,602    L-308.8,602 M-308.8,602L-308.8,602L-308.8,602 M-293.9,600.5L-293.9,600.5"/></g><g id="g9194" transform="matrix(1.25,0,0,-1.25,392.1611,794.24956)"><path id="path9196" fill="#E3EAA9" d="M-291.1,605.3C-291.1,605.3-291.2,605.3-291.1,605.3C-291.2,605.3-291.2,605.3-291.1,605.3    c-0.1,0-0.1,0-0.1,0S-291.2,605.3-291.1,605.3"/></g><g id="g9198" transform="matrix(1.25,0,0,-1.25,396.91048,792.23781)"><path id="path9200" fill="#D3E19C" d="M-290.6,605.5c0.1-0.1,0.1-0.1,0.2-0.2C-290.5,605.3-290.6,605.4-290.6,605.5 M-290.7,605.5    L-290.7,605.5L-290.7,605.5L-290.7,605.5 M-290.4,605.1L-290.4,605.1C-290.3,605.1-290.3,605.1-290.4,605.1    C-290.3,605.1-290.4,605.1-290.4,605.1"/></g><g id="g9202" transform="matrix(1.25,0,0,-1.25,413.88598,795.46781)"><path id="path9204" fill="#D8EAC0" d="M-288.9,605.1L-288.9,605.1L-288.9,605.1 M-299.5,603.9c0.1,0,0.1,0,0.2,0    C-299.4,603.9-299.4,603.9-299.5,603.9L-299.5,603.9"/></g><g id="g9206" transform="matrix(1.25,0,0,-1.25,402.51748,796.90806)"><path id="path9208" fill="#C3DE9E" d="M-290.1,605c-1-0.8-2.2-1.5-3.8-1.8C-292.3,603.5-291.1,604.2-290.1,605 M-294,603.2    L-294,603.2L-294,603.2 M-294,603.2c-0.4-0.1-0.9-0.1-1.4-0.1C-294.9,603.1-294.4,603.2-294,603.2"/></g><g id="g9210" transform="matrix(1.25,0,0,-1.25,403.44523,800.47206)"><path id="path9212" fill="#C3DE9E" d="M-290,604.6c-0.6-0.1-1.2-0.2-1.8-0.2C-291.2,604.5-290.6,604.5-290,604.6"/></g><g id="g9214" transform="matrix(1.25,0,0,-1.25,409.77898,778.55193)"><path id="path9216" fill="#FFFFFF" d="M-289.3,606.9L-289.3,606.9L-289.3,606.9L-289.3,606.9z"/></g><g id="g9218" transform="matrix(1.25,0,0,-1.25,409.77423,778.54768)"><path id="path9220" fill="#F2C5B5" d="M-289.3,606.9L-289.3,606.9L-289.3,606.9L-289.3,606.9"/></g><g id="g9222" transform="matrix(1.25,0,0,-1.25,410.01873,778.76506)"><path id="path9224" fill="#FFFFFF" d="M-289.3,606.9L-289.3,606.9L-289.3,606.9L-289.3,606.9z"/></g><g id="g9226" transform="matrix(1.25,0,0,-1.25,410.01873,778.76506)"><path id="path9228" fill="#EBEDA9" d="M-289.3,606.9L-289.3,606.9 M-289.3,606.9L-289.3,606.9L-289.3,606.9L-289.3,606.9    L-289.3,606.9"/></g><g id="g9230" transform="matrix(1.25,0,0,-1.25,410.01873,778.76506)"><path id="path9232" fill="#DAE8A9" d="M-289.3,606.9L-289.3,606.9L-289.3,606.9L-289.3,606.9"/></g><g id="g9234" transform="matrix(1.25,0,0,-1.25,380.13961,792.75006)"><path id="path9236" fill="#F0F3C3" d="M-292.4,605.4L-292.4,605.4L-292.4,605.4L-292.4,605.4L-292.4,605.4z"/></g><g id="g9238" transform="matrix(1.25,0,0,-1.25,380.14985,792.76593)"><path id="path9240" fill="#DFE8A0" d="M-292.4,605.4L-292.4,605.4L-292.4,605.4L-292.4,605.4z"/></g><g id="g9242" transform="matrix(1.25,0,0,-1.25,409.77348,778.55043)"><path id="path9244" fill="#FDDDCF" d="M-289.3,606.9L-289.3,606.9 M-301.5,603.2c-0.1-0.1-0.2-0.2-0.3-0.3    C-301.7,603.1-301.6,603.2-301.5,603.2L-301.5,603.2"/></g><g id="g9246" transform="matrix(1.25,0,0,-1.25,396.30548,782.57356)"><path id="path9248" fill="#F9AB81" d="M-290.7,606.5c-0.1-0.1-0.2-0.2-0.3-0.3C-290.9,606.3-290.8,606.4-290.7,606.5"/></g><g id="g9250" transform="matrix(1.25,0,0,-1.25,395.93948,782.85781)"><path id="path9252" fill="#F0B6A1" d="M-290.7,606.4C-290.8,606.4-290.8,606.4-290.7,606.4C-290.8,606.4-290.8,606.4-290.7,606.4     M-290.8,606.4L-290.8,606.4L-290.8,606.4 M-290.8,606.4L-290.8,606.4L-290.8,606.4"/></g><g id="g9254" transform="matrix(1.25,0,0,-1.25,396.30623,782.57306)"><path id="path9256" fill="#EF9E7D" d="M-290.7,606.5L-290.7,606.5c-0.1-0.1-0.2-0.2-0.3-0.3c-0.1-0.1-0.2-0.2-0.3-0.2    c0.1,0.1,0.2,0.1,0.3,0.2l0,0l0,0l0,0l0,0l0,0C-290.9,606.3-290.8,606.4-290.7,606.5L-290.7,606.5 M-291.5,605.8L-291.5,605.8    L-291.5,605.8L-291.5,605.8"/></g><g id="g9258" transform="matrix(1.25,0,0,-1.25,391.2361,783.53568)"><path id="path9260" fill="#F9AB81" d="M-291.2,606.4c0.1,0,0.1-0.1,0.2-0.1l0,0C-291.1,606.3-291.2,606.3-291.2,606.4"/></g><g id="g9262" transform="matrix(1.25,0,0,-1.25,391.07648,783.43518)"><path id="path9264" fill="#EF9E7D" d="M-291.2,606.4C-291.2,606.4-291.2,606.3-291.2,606.4c0.1-0.1,0.1-0.1,0.1-0.1    c0.1,0,0.1-0.1,0.2-0.1l0,0h-0.1l0,0C-291.1,606.3-291.1,606.3-291.2,606.4L-291.2,606.4L-291.2,606.4L-291.2,606.4    C-291.2,606.3-291.2,606.4-291.2,606.4L-291.2,606.4"/></g><g id="g9266" transform="matrix(1.25,0,0,-1.25,391.04148,783.41268)"><path id="path9268" fill="#E59477" d="M-291.2,606.4L-291.2,606.4L-291.2,606.4L-291.2,606.4 M-291.1,606.3c0,0,0.1,0,0.1-0.1    L-291.1,606.3L-291.1,606.3L-291.1,606.3"/></g><g id="g9270" transform="matrix(1.25,0,0,-1.25,391.96336,783.96043)"><path id="path9272" fill="#FDDDCF" d="M-291.2,606.3c0.2-0.1,0.3-0.2,0.5-0.2l0,0c0.3-0.2,0.6-0.3,1-0.5l0,0    c-0.2,0.1-0.5,0.2-0.7,0.4c-0.1,0-0.1,0.1-0.2,0.1l0,0c0,0-0.1,0-0.1,0.1C-290.9,606.2-291,606.3-291.2,606.3"/></g><g id="g9274" transform="matrix(1.25,0,0,-1.25,391.69935,783.81131)"><path id="path9276" fill="#F9AB81" d="M-291.2,606.3c0.1,0,0.2-0.1,0.2-0.1c0.1-0.1,0.2-0.1,0.3-0.2l0,0c-0.1,0.1-0.3,0.1-0.4,0.2    C-291.1,606.3-291.1,606.3-291.2,606.3L-291.2,606.3 M-290.2,605.8c0.2-0.1,0.5-0.2,0.7-0.4l0,0l0,0l0,0c0,0-0.1,0-0.1,0.1    c0,0-0.1,0-0.1,0.1l0,0C-289.9,605.7-290.1,605.7-290.2,605.8L-290.2,605.8"/></g><g id="g9278" transform="matrix(1.25,0,0,-1.25,391.8461,783.89281)"><path id="path9280" fill="#EF9E7D" d="M-291.2,606.3c0.1-0.1,0.3-0.1,0.4-0.2l0,0c-0.1,0-0.1,0.1-0.2,0.1    C-291.1,606.3-291.1,606.3-291.2,606.3 M-290.3,605.9c0.1-0.1,0.3-0.1,0.4-0.2c-0.1,0-0.2,0.1-0.3,0.1    C-290.2,605.8-290.3,605.8-290.3,605.9L-290.3,605.9 M-289.7,605.6c0,0,0.1,0,0.1-0.1l0,0C-289.7,605.6-289.7,605.6-289.7,605.6"/></g><g id="g9282" transform="matrix(1.25,0,0,-1.25,417.5676,788.91281)"><path id="path9284" fill="#C2D43B" d="M-288.5,605.8L-288.5,605.8L-288.5,605.8h-0.1c-0.1,0-0.2-0.1-0.3-0.1l0,0l0,0    c-0.2-0.1-0.4-0.2-0.5-0.3c-0.8-0.5-1.5-1.1-2.1-1.8c-0.8-0.9-1.4-1.8-2.1-2.8c-0.1-0.1-0.1-0.2-0.2-0.3c0.1,0,0.2,0,0.3,0    c0.6,0,1.3-0.1,1.8-0.6h0.1c0.5-0.2,1.2-0.4,1.7-0.7c0.4-0.2,0.8-0.4,1.1-0.6c1.5,0.6,2.9,1.1,4.1,1.3c-0.7,1.2-1.5,2.5-2.4,3.9    C-287.7,604.4-288.1,605.1-288.5,605.8"/></g><g id="g9286" transform="matrix(1.25,0,0,-1.25,380.6376,793.52443)"><path id="path9288" fill="#9BC946" d="M-292.3,605.3c0.4-0.7,1-1.4,1.6-2.3c4.4-6,8.6-7.2,14.2-7.2h27.1l0,0    c-1.8,0.6-3.7,2.2-6.8,4.3c-1,0.7-2,1.4-3.3,2.1c-1.5-0.6-3.1-1.4-4.7-2.3c-2.1-1.2-5-1.7-8.3-1.7    C-279.3,598.2-287.7,600.7-292.3,605.3"/></g><g id="g9290" transform="matrix(1.25,0,0,-1.25,396.91048,792.23781)"><path id="path9292" fill="#ACCD3A" d="M-290.6,605.5L-290.6,605.5C-290.7,605.5-290.7,605.5-290.6,605.5L-290.6,605.5    C-290.7,605.5-290.7,605.5-290.6,605.5c-0.2-0.1-1.1-0.6-1.9-1c-0.4-0.2-0.7-0.3-1-0.4c-0.1,0-0.1-0.1-0.2-0.1s-0.1-0.1-0.2-0.1    c-0.1,0-0.2-0.1-0.2-0.1l0,0l0,0l0,0h-0.1h-0.1l0,0c-0.2-0.1-0.4-0.1-0.7-0.2l0,0l0,0l0,0l0,0l0,0l0,0l0,0l0,0l0,0    c-0.2-0.1-0.4-0.1-0.6-0.1l0,0h-0.1l0,0l0,0c-0.1,0-0.1,0-0.2,0c-0.1,0-0.2,0-0.2,0l0,0c-0.8-0.1-1.5-0.2-2.3-0.2    c-2.1,0-4.3,0.5-6.3,1.5c1.6-1,4.7-2.7,8-3c0.4,0,0.9-0.1,1.3-0.1c2.2,0,4.8,0.4,7.6,1c-0.8,0.7-1.5,1.6-2.2,2.6l0,0l0,0    c0,0.1-0.1,0.1-0.1,0.2C-290.5,605.3-290.6,605.4-290.6,605.5"/></g><g id="g9294" transform="matrix(1.25,0,0,-1.25,405.44848,777.47031)"><path id="path9296" fill="#E14428" d="M-289.8,607c-2.6,0-6.1-0.6-10.9-2.6c-0.8-0.3-1.6-0.6-2.3-0.9c0.3-0.7,0.5-1.4,0.7-2.2    c0,0,0.1-0.1,0.3-0.1c0,0,0.1,0,0.1-0.1c0.1,0,0.1-0.1,0.2-0.1l0,0c0.2-0.1,0.3-0.2,0.4-0.2l0,0c0,0,0.1,0,0.1-0.1    c0.1,0,0.2-0.1,0.3-0.1s0.1-0.1,0.2-0.1c0,0,0.1,0,0.1-0.1l0,0c0.1,0,0.2-0.1,0.2-0.1h0.1c0.5,0.5,0.9,1,1.4,1.4l0,0l0,0    c0.1,0.1,0.1,0.1,0.2,0.2c0.1,0.1,0.2,0.2,0.3,0.2c0.1,0.1,0.2,0.2,0.3,0.3l0,0c1.1,0.9,2.3,1.7,3.6,2.4c1.8,1,3.8,1.7,5.9,1.7    c0.3,0,0.5,0,0.8,0c0.6-0.1,1.2-0.2,1.9-0.4l0,0l0,0c-0.3,0.2-0.5,0.4-0.8,0.6C-287.5,606.8-288.5,607-289.8,607"/></g><g id="g9298" transform="matrix(1.25,0,0,-1.25,409.92111,787.29918)"><path id="path9300" fill="#C2D43B" d="M-289.3,606c-0.4,0-0.8,0-1.1,0c-0.4-0.9-0.8-1.8-1.2-2.8c-0.3-0.6-0.6-1.3-0.9-1.9    c-0.1-0.1-0.3-0.8-0.5-0.8l0,0l0,0c0.2,0.3,0.5,0.5,0.7,0.8l0,0c0.1,0.1,0.1,0.1,0.2,0.2c0.1,0.1,0.201,0.2,0.4,0.3l0,0l0,0l0,0    l0,0c0.1,0.1,0.1,0.1,0.2,0.2l0,0l0,0l0,0l0,0l0,0l0,0c1.4,1.1,3.201,2.2,5.101,2.7l0,0l0,0h0.1c0.1,0,0.1,0,0.2,0l0,0l0,0l0,0    c0.1,0,0.2,0,0.2,0l0,0c0,0,0,0,0.1,0s0.1,0,0.2,0l0,0h0.1c0.1,0,0.1,0,0.2,0h0.1c0.1,0,0.1,0,0.2,0h0.1l0,0c0.1,0,0.1,0,0.2,0h0.1    l0,0c0.1,0,0.1,0,0.2,0s0.1,0,0.2,0c0.1,0,0.1,0,0.2,0s0.1,0,0.2,0h0.1c0.1,0,0.1,0,0.2,0h0.1c0.1,0,0.2,0,0.3-0.1h0.1    c0.1,0,0.2-0.1,0.3-0.1l0,0l0,0l0,0l0,0l0,0C-284.6,605.6-286.9,606-289.3,606"/></g></svg>