<svg xmlns="http://www.w3.org/2000/svg" id="Layer_1" width="70" height="70" x="0" y="0" enable-background="new 0 0 70 70" version="1.1" viewBox="0 0 70 70" xml:space="preserve"><rect width="70" height="70" y=".008" fill="#A71E52"/><path fill="#EFB822" d="M15.905,34.987c0-10.535,8.537-19.072,19.091-19.072c10.533,0,19.089,8.537,19.089,19.072 c0,10.549-8.556,19.089-19.089,19.089C24.442,54.076,15.905,45.536,15.905,34.987 M34.996,15.537 c-10.738,0-19.467,8.726-19.467,19.45c0,10.74,8.728,19.467,19.467,19.467c10.719,0,19.446-8.726,19.446-19.467 C54.444,24.263,45.715,15.537,34.996,15.537 M34.996,54.832c-10.95,0-19.841-8.894-19.841-19.843 c0-10.932,8.89-19.826,19.841-19.826c10.932,0,19.822,8.894,19.822,19.826C54.818,45.935,45.927,54.832,34.996,54.832 M34.996,14.01 c-11.602,0-20.998,9.396-20.998,20.979c0,11.599,9.396,21.021,20.998,21.021s21.002-9.422,21.002-21.021 C55.998,23.404,46.597,14.01,34.996,14.01 M34.956,49.945c-1.195,0.983-4.091,1.907-7.344,1.298c0.569,0.21,1.05,0.361,1.428,0.441 c1.928,0.378,3.69,0.212,5.118-0.271c1.615-0.567,3.251-1.888,4.658-3.19c1.634-1.508,3.142-2.768,4.427-2.894 c0.985-0.084,1.632,0.275,1.701,0.878c0.08,0.863-0.987,0.798-0.926,0.296c-0.294-0.189-0.611-0.149-0.8,0.084 c-0.252,0.294-0.252,0.964,0,1.384c0.275,0.294,0.693,0.357,0.949,0.38c0.794,0.04,1.672-0.338,2.054-0.863 c0.21-0.334,0.397-0.924,0.227-1.592c-0.124-0.462-0.458-1.136-1.447-1.617c-1.472-0.754-4.173-0.485-5.979,1.279 c-0.775,0.777-1.321,1.428-1.846,2.056C36.529,48.414,35.918,49.147,34.956,49.945 M17.503,36.81 c-0.695,1.113-0.525,2.644,0.061,3.776c0.817,1.531,2.455,1.89,3.293,2.14c-0.504,0.714-1.067,2.161-0.187,3.627 c0.061,0.107,0.145,0.233,0.227,0.376c0.716,1.073,2.098,2.125,3.57,2.982c4.299,2.329,8.705,1.176,10.257-0.065 c0.92-0.773,1.487-1.468,2.159-2.285c0.546-0.632,1.09-1.3,1.867-2.077c1.743-1.699,4.572-2.306,6.443-1.363 c1.086,0.565,1.485,1.344,1.632,1.888c0.17,0.651,0.065,1.365-0.292,1.888c-0.439,0.63-1.405,1.048-2.329,1.029 c0.418,0.147,0.901,0.168,1.428,0.019c1.067-0.271,1.903-1.172,1.968-2.539c0.09-1.548-1.067-2.915-2.39-3.081h0.38 c4.299,0.315,7.342-1.344,7.407-4.761c0.015-1.701-0.716-2.917-1.768-3.654c0.76,0.882,1.069,2.075,0.993,3.192 c-0.176,2.493-2.186,3.757-6.002,3.795c-0.758,0-5.939-0.04-10.95-0.084c-4.494-0.019-9.102-0.063-10.344-0.063 c-1.55,0-3.459,0.42-3.631,2.436c-0.04,0.481,0.128,0.983,0.464,1.384c0.397,0.464,0.964,0.756,1.531,0.794 c0.649,0.065,1.239-0.168,1.592-0.586c0.233-0.313,0.317-0.672,0.21-0.985v-0.021c-0.252-0.525-0.731-0.651-1.111-0.294 c0.128,0.443-0.229,0.84-0.775,0.735c-0.336-0.044-1.05-0.565-0.567-1.405c0.292-0.527,0.754-0.737,2.663-0.716 c1.512,0.023,10.136,0.168,15.71,0.21c-0.563,0.147-1.025,0.355-1.363,0.548c-0.962,0.563-2.474,1.72-3.062,2.852 c-0.101-1.218-0.815-2.455-2.01-2.81c-1.136-0.334-2.098-0.124-2.812,0.563c-0.147,0.132-0.25,0.275-0.357,0.42 c0.441-0.334,1.027-0.544,1.72-0.563c0.924-0.046,1.783,0.374,2.31,1.153c0.521,0.773,0.586,1.739,0.206,2.579 c-0.038,0.107-0.168,0.149-0.25,0.107c-0.103-0.046-0.145-0.168-0.103-0.254c0.332-0.731,0.271-1.552-0.168-2.201 c-0.464-0.674-1.199-1.048-1.976-1.01c-0.834,0.044-1.51,0.359-1.882,0.861c-0.193,0.296-0.298,0.607-0.298,0.945 c0,0.105,0,0.187,0.023,0.271c0.021,0.046,0.021,0.086,0.021,0.128c0.021,0.023,0.021,0.023,0.021,0.038 c0.126,0.548,0.502,1.157,0.922,1.323c0.504,0.193,1.073-0.292,0.964-0.607c-0.292-0.063-0.46-0.376-0.416-0.584 c0.04-0.212,0.309-0.569,0.708-0.59c0.378-0.019,0.947,0.208,0.947,0.964c0.019,0.443-0.315,0.987-0.861,1.346 c-0.504,0.334-1.3,0.773-3.566,0.689c-2.325-0.084-4.131-0.796-5.034-1.403c-0.357-0.254-0.817-0.672-1.092-0.924 c0.674-0.191,1.178-0.546,1.451-1.008c-0.443,0.439-1.094,0.674-1.783,0.628c-0.695-0.061-1.346-0.399-1.804-0.943 c-0.401-0.483-0.611-1.069-0.548-1.678c0.147-1.785,1.577-2.77,4.007-2.77c1.241,0,5.874,0.021,10.344,0.063 c5.011,0.044,10.192,0.088,10.95,0.088c3.568-0.044,5.452-1.197,5.62-3.444c0.126-1.718-0.737-3.631-2.877-4.026 c-0.985,0.523-2.096,0.857-2.789,0.966c-0.101,0.019-0.208-0.063-0.208-0.17c-0.019-0.107,0.042-0.21,0.145-0.21 c0.611-0.105,1.556-0.376,2.413-0.798c0.42-0.231,0.817-0.46,1.867-1.172c1.613-1.113,2.749-3.169,1.638-5.141 c-0.966-1.699-2.999-1.89-4.051-1.029c-0.647,0.548-0.731,1.47-0.502,2.018c0.214,0.523,0.716,0.962,1.239,1 c-0.107,0.193-0.233,0.319-0.401,0.426c-1.174,1.067-2.833,1.109-5.29,1.13l-0.563,0.023h-0.313c-1.388,0-3.688,0.021-4.824,1.573 c-0.485,0.628-0.569,1.464-0.252,2.096c0.445,0.84,1.55,1.298,3.169,1.298c0.103,0,0.189,0.107,0.189,0.212 c0,0.103-0.086,0.191-0.189,0.191c-2.268,0-3.146-0.842-3.503-1.531c-0.38-0.758-0.275-1.745,0.273-2.499 c1.256-1.703,3.774-1.718,5.137-1.739h0.294h0.582c1.707-0.023,2.984-0.044,3.988-0.401c-0.817,0.063-1.949,0.044-3.562,0.044 c-3.442,0-6.863-0.212-7.888,2.77c-1.279,0.04-1.907,0.04-2.562,0.04c0.254-1.342-0.248-2.917-1.399-3.19 c0.017,0.021,0.059,0.021,0.08,0.044c0.609,0.542,1.176,1.741,0.691,3.396c-0.46,1.594-2.243,2.434-4.215,1.993 c-0.105-0.019-0.168-0.126-0.145-0.231c0.021-0.103,0.122-0.168,0.231-0.143c1.781,0.397,3.358-0.338,3.753-1.722 c0.397-1.386,0-2.497-0.565-3.001c-0.359-0.292-0.756-0.353-1.111-0.189h-0.025c-0.418,0.273-0.483,0.733-0.439,1.05 c0.378-0.147,0.987-0.105,1.111,0.502c0.126,0.588-0.42,1.195-1.449,0.943c-0.857-0.227-1.317-1.592-0.691-2.808 c0.548-1.071,1.552-1.636,2.289-1.993c-0.17-0.441-0.149-0.926,0.042-1.346c0.187-0.416,0.546-0.752,0.964-0.92 c0.38-0.124,0.756-0.124,1.113,0.04c0.353,0.151,0.63,0.443,0.756,0.798c0.126,0.294,0.103,0.628-0.023,0.899 c-0.126,0.298-0.38,0.529-0.672,0.636c-0.227,0.103-0.504,0.082-0.754-0.025c-0.229-0.103-0.42-0.294-0.523-0.544 c-0.065-0.21-0.065-0.443,0.019-0.632c0.103-0.208,0.252-0.355,0.464-0.439c0.103-0.042,0.208,0,0.25,0.105 c0.04,0.107-0.023,0.21-0.107,0.252c-0.126,0.042-0.21,0.124-0.252,0.231c-0.042,0.103-0.059,0.233-0.021,0.334 c0.063,0.17,0.189,0.275,0.338,0.338c0.147,0.082,0.317,0.082,0.462,0.017c0.189-0.08,0.357-0.225,0.439-0.416 c0.08-0.189,0.105-0.422,0.023-0.63c-0.105-0.25-0.296-0.46-0.548-0.588c-0.275-0.101-0.544-0.101-0.817-0.019 c-0.336,0.147-0.609,0.397-0.754,0.733c-0.147,0.334-0.17,0.695-0.042,1.05c0.25,0.689,1.319,1.153,2.161,0.817 c1.13-0.481,1.697-1.571,3.249-2.327c1.848-0.924,2.959-0.819,3.505-0.527c0.794,0.443,0.5,1.472,0,1.552 c-0.504,0.082-0.739-0.189-0.672-0.441c-0.439-0.042-0.695,0.399-0.569,0.693c0.13,0.294,0.8,0.865,1.913,0.737 c1.13-0.151,1.905-1.132,1.991-2.058c0.084-0.962-0.21-1.594-0.632-2.033c0.649-0.044,1.976,0.04,2.417,0.105 c0.899,0.126,1.422,0.523,1.443,0.945c0,0.332-0.397,0.708-0.733,0.376c-0.418,0.103-0.586,0.458-0.46,0.819 c0.189,0.588,1.109,0.733,1.762,0.504c0.605-0.212,1.153-0.882,1.344-1.573c0.25-0.987,0.04-2.308-1.155-3.276 c-1.199-0.985-2.81-0.901-3.885-0.985c-1.149-0.086-0.779-0.296-1.023-1.363c-0.172-0.798-0.922-1.699-2.245-1.951 c-1.321-0.273-2.247-0.126-4.049,0.798c-1.76,0.88-3.169,1.825-4.32,2.266c-1.155,0.42-2.119,0.628-2.642,0.376 c-0.464-0.229-0.401-0.712-0.233-0.924c0.166-0.208,0.483-0.439,0.838-0.607c-0.17-0.357-0.481-0.775-0.651-1.027 c-0.126,0.021-0.292,0.082-0.504,0.145l-0.584,0.296c-0.901,0.481-1.867,1.72-1.218,3.018c0.525,1.075,2.119,1.405,4.255,0.907 c1.812-0.422,3.656-1.577,5.141-2.52c0.485-0.292,0.966-0.586,1.365-0.819c0.878-0.483,1.783-0.607,2.472-0.315 c0.527,0.21,0.886,0.63,1.054,1.197c0.019,0.107-0.048,0.21-0.147,0.227c-0.105,0.046-0.212-0.017-0.231-0.12 c-0.126-0.462-0.422-0.781-0.821-0.947c-0.588-0.25-1.363-0.147-2.138,0.292c-0.399,0.233-0.861,0.506-1.344,0.821 c-1.529,0.943-3.398,2.117-5.263,2.558c-2.329,0.548-4.093,0.124-4.696-1.111c-0.487-0.966-0.193-1.909,0.334-2.623 c-0.254,0.189-0.485,0.38-0.651,0.569c-0.693,0.836-0.443,2.054-0.042,2.6c-0.968,0.168-2.056,0.376-3.337,0.985 c-1.281,0.588-2.537,1.447-3.27,2.35c-0.783,0.901-1.092,1.739-1.237,2.724c-0.132,0.756,0.042,1.64,0.374,2.161 c0.357,0.569,1.094,1.094,2.014,1.155c0.756,0.065,1.617-0.168,2.056-0.733c0.292-0.355,0.441-0.779,0.506-1.218 c-0.275,0.63-0.758,1.111-1.302,1.302c-1.155,0.42-2.289,0.04-2.854-0.926c-0.691-1.233-0.229-2.894,1.113-4.047 c0.674-0.607,3.188-2.539,6.672-2.558c0.103,0,0.189,0.084,0.189,0.187c0,0.105-0.086,0.191-0.189,0.191 c-3.337,0.021-5.771,1.888-6.42,2.478c-1.218,1.023-1.638,2.491-1.029,3.562c0.46,0.798,1.428,1.09,2.388,0.758 c0.487-0.17,0.907-0.632,1.117-1.22c0.147-0.397,0.168-0.777,0.08-1.048c-0.145-0.252-0.29-0.46-0.416-0.565 c-0.21,0.208-0.464,0.418-0.63,0.521c0.04,0.422,0.126,0.756-0.103,0.989c-0.212,0.21-0.611,0.292-0.88-0.044 c-0.38-0.485-0.128-1.443,0.374-1.97c0.506-0.508,1.26-1.031,1.995-1.342c0.712-0.294,1.447-0.483,2.115-0.338 c-0.651,0.796-1.424,2.058-1.718,2.917c-0.292,0.861-0.882,3.251,0.168,5.246c1.277,2.434,3.335,4.154,7.991,4.196h0.796 c-1.596-0.25-2.934-0.611-4.003-1.113c-2.455-1.132-3.736-2.98-3.944-5.624c-0.294-3.776,2.6-5.996,5.412-6.817 c0.101-0.019,0.206,0.04,0.248,0.126c0.025,0.107-0.042,0.21-0.122,0.254c-2.686,0.775-5.433,2.85-5.162,6.395 c0.378,4.87,4.507,6.884,13.821,6.737c0.023,0,0.044,0,0.065,0.021c3.188-0.044,6.082-0.084,6.859-0.084 c0.798,0,1.701,0.019,1.701,0.649c0.334-0.124,0.46-0.315,0.46-0.481c0-0.334-0.46-0.714-1.195-0.775 c-0.922-0.086-2.684-0.061-4.572-0.044c-2.224,0.019-4.555,0.044-5.956-0.084c-0.109,0-0.193-0.103-0.17-0.21 c0-0.103,0.103-0.17,0.21-0.17c1.384,0.132,3.692,0.107,5.916,0.084c1.888-0.017,3.671-0.04,4.593,0.023 c0.901,0.082,1.573,0.59,1.554,1.176c0,0.208-0.109,0.817-1.325,1.025c-0.269,0.065-0.651,0.086-1.172,0.126 c-1.363,0.105-17.955-0.04-20.017-0.019c-1.338,0.019-3.604,0.25-4.297-0.168c-0.674-0.441-1.006-0.922-0.731-1.508 c0.164-0.405,1.149-0.38,1.189,0.332c0.466,0.296,1.073,0.021,1.197-0.691v-0.191c-0.061-0.399-0.271-0.693-0.63-0.92 c-0.607-0.422-1.508-0.506-2.094-0.361c-0.527,0.128-1.027,0.506-1.363,1.054c-0.378,0.586-0.506,1.277-0.378,1.844 c0.275,1.218,1.277,2.142,2.495,2.31c0.105,0.017,0.191,0.101,0.166,0.208c-0.019,0.101-0.103,0.187-0.208,0.168 c-1.384-0.193-2.516-1.237-2.833-2.602c-0.145-0.67,0-1.468,0.42-2.144c0.399-0.624,0.985-1.067,1.617-1.214 c0.546-0.124,1.359-0.084,2.056,0.21c-0.399-0.357-0.903-0.63-1.407-0.67C19.41,34.987,18.219,35.678,17.503,36.81 M39.045,22.081 c-0.651,0.107-1.781,0.044-3.06-0.481c0.838-0.754,1.8-1.489,2.388-1.596c0.565-0.103,1.277,0,1.491,0.674c0,0,0,0.021,0.021,0.021 c-0.084-0.105-0.21-0.193-0.336-0.231c-0.439-0.21-0.926-0.044-1.088,0.334c-0.17,0.397,0.04,0.861,0.477,1.048 c0.172,0.086,0.34,0.105,0.504,0.063C39.318,21.999,39.173,22.041,39.045,22.081 M43.052,34.502c0.5-0.569,1.237-0.695,1.785-0.294 c0.483,0.334,0.607,1.008,0.25,1.487c-0.275,0.401-0.838,0.506-1.239,0.212c-0.084-0.044-0.107-0.168-0.038-0.252 c0.063-0.084,0.164-0.105,0.269-0.063c0.229,0.172,0.544,0.103,0.691-0.126c0.231-0.292,0.149-0.731-0.168-0.941 c-0.435-0.317-0.964-0.107-1.279,0.231c-0.481,0.544-1.277,0.899-1.991,0.46c-0.588-0.357-0.758-1.09-0.399-1.678 c0.128-0.231,0.355-0.38,0.628-0.441c0.252-0.061,0.525-0.023,0.756,0.103c0.088,0.063,0.126,0.191,0.057,0.271 c-0.057,0.086-0.162,0.128-0.265,0.067c-0.126-0.084-0.296-0.107-0.462-0.084c-0.172,0.04-0.315,0.145-0.401,0.292 c-0.233,0.399-0.105,0.903,0.275,1.155C42.086,35.235,42.697,34.901,43.052,34.502 M43.957,33.349c-0.109,0-0.216-0.086-0.216-0.191 c0-0.107,0.069-0.189,0.17-0.189c1.43-0.105,2.686-0.395,3.862-0.901c1.468-0.649,2.476-1.386,2.871-2.119 c0.443-0.775,0.355-1.72,0.067-2.241c-0.298-0.527-0.989-0.949-1.598-0.693c-0.441,0.187-0.653,0.693-0.479,1.128 c0.145,0.34,0.525,0.506,0.857,0.38c0.122-0.063,0.21-0.145,0.271-0.273c0.042-0.126,0.042-0.25,0-0.378 c-0.04-0.082,0-0.208,0.109-0.252c0.082-0.04,0.212,0.023,0.252,0.107c0.082,0.231,0.082,0.462,0,0.67 c-0.105,0.208-0.275,0.378-0.485,0.483c-0.525,0.208-1.132-0.04-1.365-0.588c-0.25-0.628,0.061-1.363,0.691-1.636 c0.825-0.336,1.703,0.17,2.079,0.861c0.336,0.59,0.464,1.676-0.061,2.623c-0.46,0.817-1.491,1.571-3.066,2.285 C46.702,32.95,45.404,33.263,43.957,33.349"/></svg>