<svg xmlns="http://www.w3.org/2000/svg" version="1.1" id="Layer_1" x="0px" y="0px" width="70px" height="70px" viewBox="0 0 70 70" xml:space="preserve" style="enable-background:new 0 0 70 70;"><style type="text/css">
	.st0{fill:#FFFFFF;}
	.st1{fill:#C69A6C;}
	.st2{fill:#FCFAF7;}
	.st3{fill:#C79D71;}
	.st4{fill:#FEFEFD;}
	.st5{fill:#C59A6C;}
	.st6{fill:#C69A6D;}
	.st7{fill:#FEFDFC;}
	.st8{fill:#FCFAF8;}
</style><g><g><path d="M0,25.68C0,16.91,0,8.21,0-0.5c23.33,0,46.66,0,70,0c0,23.32,0,46.65,0,70c-23.33,0-46.66,0-70,0    C0,54.93,0,40.34,0,25.68z" class="st0"/><path d="M64.62,29.08c0.47,2.73,0.42,5.42,0.24,8.11c-0.21,3.09-1.02,6.03-2.16,8.86c-0.96,2.4-2.26,4.63-3.81,6.7    c-2.07,2.76-4.51,5.1-7.34,6.98c-2.08,1.38-4.29,2.49-6.64,3.31c-1.48,0.51-2.97,0.94-4.49,1.18c-2.25,0.36-4.53,0.54-6.82,0.32    c-1.29-0.12-2.58-0.21-3.87-0.49c-2.36-0.52-4.63-1.26-6.8-2.33c-2.09-1.03-4.06-2.28-5.86-3.79c-1.44-1.21-2.77-2.53-3.98-3.99    c-1.22-1.48-2.29-3.05-3.23-4.73c-1.17-2.09-2.06-4.31-2.71-6.63c-0.88-3.14-1.23-6.34-1.13-9.6c0.08-2.87,0.58-5.66,1.45-8.38    c0.92-2.89,2.23-5.58,3.94-8.07c1.8-2.61,3.92-4.87,6.4-6.79c2.37-1.84,4.94-3.25,7.71-4.31c4.08-1.57,8.31-2.04,12.61-1.7    c2.69,0.22,5.33,0.87,7.88,1.89c2.39,0.96,4.62,2.18,6.7,3.7c2.58,1.9,4.79,4.18,6.67,6.81c1.7,2.38,3.01,4.98,3.98,7.75    C63.92,25.54,64.39,27.25,64.62,29.08z" class="st1"/><path d="M62.73,40.15c-1.1,5.02-3.25,9.41-6.55,13.22c-2.34,2.71-5.1,4.85-8.2,6.5c-1.64,0.87-3.39,1.48-5.18,2.02    c-3.13,0.94-6.32,1.16-9.52,0.95c-2.14-0.14-4.26-0.63-6.32-1.31c-2.39-0.8-4.65-1.9-6.74-3.33c-3.79-2.59-6.83-5.93-9.04-10.03    c-1.03-1.91-1.83-3.93-2.43-6.04c-0.74-2.6-1.17-5.25-1.15-7.93c0.03-4.15,0.84-8.15,2.55-11.97c1.54-3.44,3.59-6.46,6.25-9.03    c3.35-3.25,7.24-5.53,11.7-6.8c2.35-0.67,4.73-1.01,7.14-1.04c4.42-0.05,8.63,0.94,12.6,2.97c3.94,2.02,7.26,4.85,9.9,8.48    c2.02,2.78,3.52,5.85,4.47,9.22c0.76,2.7,1.14,5.44,1.18,8.23C63.42,36.2,63.13,38.16,62.73,40.15z" class="st2"/><path d="M61.58,25.71c0.62,2.07,0.98,4.13,1.18,6.24c0.22,2.45,0.06,4.86-0.35,7.25c-0.51,2.95-1.48,5.75-2.87,8.4    c-1.24,2.37-2.77,4.52-4.61,6.41c-2.14,2.2-4.55,4.02-7.28,5.42c-2.11,1.08-4.3,1.87-6.58,2.38c-2.86,0.64-5.77,0.64-8.68,0.36    c-3.81-0.37-7.34-1.65-10.64-3.62c-3.07-1.85-5.69-4.24-7.88-7.14c-1.77-2.35-3.16-4.92-4.12-7.71c-0.82-2.37-1.32-4.82-1.52-7.35    c-0.14-1.77-0.11-3.52,0.05-5.26c0.16-1.71,0.5-3.41,0.99-5.06c0.79-2.66,1.93-5.15,3.41-7.48c2.69-4.21,6.25-7.42,10.58-9.7    c2.73-1.43,5.64-2.29,8.7-2.73c2.59-0.37,5.16-0.34,7.72,0.07c3.05,0.49,5.96,1.48,8.69,3.01c2.58,1.45,4.91,3.24,6.93,5.44    c2.68,2.92,4.65,6.3,6.01,10.05C61.42,25,61.48,25.33,61.58,25.71z" class="st3"/><path d="M61.9,38.99c-0.32,1.58-0.69,3.08-1.2,4.54c-0.8,2.3-1.9,4.45-3.25,6.45c-1.79,2.65-3.96,4.91-6.53,6.77    c-1.94,1.4-4,2.55-6.24,3.37c-1.68,0.62-3.39,1.15-5.16,1.36c-2.22,0.27-4.42,0.48-6.68,0.17c-2.2-0.3-4.33-0.75-6.42-1.5    c-2.72-0.97-5.16-2.42-7.43-4.22c-2.99-2.38-5.35-5.33-7.13-8.75c-1.28-2.44-2.13-5.04-2.67-7.78c-0.54-2.72-0.56-5.46-0.35-8.18    c0.26-3.31,1.2-6.44,2.64-9.43c1.73-3.59,4.12-6.63,7.11-9.17c2.49-2.11,5.27-3.68,8.33-4.74c3.05-1.05,6.17-1.54,9.38-1.44    c3.16,0.09,6.2,0.77,9.13,1.97c2.64,1.08,5.04,2.58,7.22,4.47c2.51,2.18,4.57,4.72,6.2,7.66c1.57,2.83,2.6,5.86,3.09,9.05    c0.31,2,0.49,4.05,0.25,6.11C62.1,36.78,62.14,37.87,61.9,38.99z" class="st4"/><path d="M58.93,34.33c1.15,0.87,1.65,2.11,1.8,3.44c0.22,1.89,0.01,3.73-1.27,5.28c-1.21,1.47-2.79,2.18-4.56,2.62    c-1.44,0.35-2.89,0.21-4.41,0.29c2.53,1.75,3.3,3.59,2.45,5.9c-0.54,1.46-2.03,2.72-4.48,2.24c0.93-0.14,1.73-0.28,2.41-0.75    c1.69-1.16,1.84-3.36,0.53-4.95c-1.47-1.77-3.42-2.26-5.6-1.88c-1.62,0.29-3.12,0.89-4.38,1.98c-1.15,1-2.1,2.19-3.07,3.37    c-1.23,1.5-2.37,3.12-4.08,4.11c-1.55,0.89-3.24,1.25-4.99,1.39c-3.64,0.29-6.96-0.67-9.96-2.8c-1.48-1.05-2.86-2.17-3.82-3.79    c-1.03-1.74-0.95-3.43-0.04-5.15c0.04-0.08,0.06-0.17,0.11-0.29c-0.97-0.33-1.91-0.61-2.76-1.15c-1.51-0.98-2.23-2.4-2.45-4.18    c-0.25-2.02,0.42-3.61,1.97-4.83c1.26-1,3.67-1.33,4.83-0.17c-0.17,0.14-0.34,0.08-0.51,0.01c-1.62-0.71-3.76,0.39-4.59,2.24    c-1.21,2.72,0.68,5.45,2.9,6.15c0.18,0.05,0.36,0.07,0.55,0.09c0.18,0.02,0.41,0.09,0.43-0.2c0.01-0.24-0.19-0.21-0.35-0.24    c-1.36-0.32-2.38-1.1-3.01-2.41c-0.64-1.32-0.2-3.55,0.85-4.43c1.48-1.24,3.38-0.96,4.55,0.04c0.74,0.64,0.84,1.5,0.29,2.15    c-0.49,0.57-1.05,0.58-1.44,0.01c-0.47-0.68-0.88-0.82-1.37-0.45c-0.43,0.32-0.49,1.18-0.03,1.67c0.51,0.56,1.08,0.98,1.92,0.98    c6.41-0.02,12.83-0.01,19.24-0.01c4.6,0,9.19,0,13.79,0c0.89,0,1.76-0.08,2.59-0.44c0.53-0.23,0.92-0.63,0.91-1.24    c-0.01-0.59-0.35-1.02-0.88-1.27c-0.51-0.24-1.03-0.39-1.61-0.39c-3.92,0.02-7.84,0-11.76,0.02c-0.75,0-1.49-0.07-2.23-0.14    c-0.26-0.02-0.57-0.1-0.69,0.29c0.29,0.39,0.69,0.27,1.04,0.27c4.27,0.01,8.54,0.01,12.81,0c0.68,0,1.35,0.09,1.99,0.32    c0.36,0.13,0.74,0.33,0.82,0.81c0.07,0.45-0.22,0.64-0.57,0.87c-0.27-0.87-1-0.96-1.7-0.97c-3.29-0.04-6.58,0.04-9.86,0.11    c-3.35,0.07-6.72-0.01-10.02-0.59c-2.46-0.43-4.87-1.14-6.9-2.8c-1.55-1.27-2.5-2.89-2.88-4.9c-0.27-1.39-0.33-2.73-0.01-4.13    c0.47-2.05,1.63-3.53,3.2-4.75c1.04-0.81,2.2-1.39,3.46-1.78c0.22-0.07,0.6-0.15,0.47-0.5c-0.13-0.38-0.42-0.11-0.65-0.03    c-2.13,0.73-3.99,1.87-5.42,3.7c-1.05,1.34-1.67,2.84-1.74,4.59c-0.09,2.06,0.17,4.01,1.21,5.81c1.18,2.06,2.99,3.29,5.08,4.15    c1.42,0.58,2.89,0.93,4.37,1.25c-3.73,0.01-7.35-0.37-10.1-3.39c-2.03-2.22-2.97-4.83-2.56-7.96c0.3-2.24,1.21-4.13,2.44-5.91    c0.09-0.13,0.19-0.27,0.27-0.41c0.03-0.06,0.03-0.13,0.05-0.27c-2.49,0.01-4.44,1.05-5.96,3.01c-0.38,0.5-0.45,1.1-0.4,1.71    c0.04,0.55,0.53,1,0.98,0.9c0.56-0.13,0.71-0.55,0.66-1.09c-0.05-0.45,0.39-1.13,0.78-1.2c0.22-0.04,0.3,0.11,0.43,0.27    c0.88,1.03-0.17,3.11-1.23,3.65c-0.94,0.47-2.53,0.21-3.23-0.58c-0.68-0.77-0.91-1.69-0.68-2.73c0.36-1.68,1.47-2.76,2.73-3.7    c1.79-1.32,3.78-2.2,5.95-2.63c0.57-0.11,1.16-0.12,1.74-0.18c0.2-0.02,0.43,0.04,0.58-0.21c-0.05-0.4-0.34-0.36-0.62-0.34    c-3.15,0.24-6.01,1.33-8.49,3.34c-1.09,0.88-2.1,1.95-2.31,3.45c-0.24,1.68-0.18,2.67,1.24,3.81c1.18,0.94,3.25,0.73,4.27-0.54    c0.1-0.12,0.13-0.32,0.33-0.35c0.06,0.58-0.48,1.46-1.17,1.81c-2.33,1.18-5.42-0.22-5.5-3.15c-0.07-2.38,0.71-4.31,2.34-5.91    c1.84-1.81,4.03-2.96,6.47-3.68c0.69-0.2,1.43-0.21,2.08-0.59c-0.44-0.97-0.48-1.98-0.21-2.99c0.14-0.51,0.48-0.87,1.06-1.24    c-0.27,0.76-0.48,1.36-0.51,2.04c-0.06,1.73,1.18,2.9,2.68,3.25c2.83,0.66,5.33-0.35,7.8-1.59c2-1,3.8-2.35,5.73-3.48    c0.79-0.46,1.63-0.67,2.54-0.52c0.78,0.13,1.3,0.59,1.57,1.34c0.07,0.19,0.12,0.4,0.37,0.29c0.23-0.1,0.14-0.3,0.08-0.49    c-0.33-1.18-1.72-1.96-3.02-1.73c-0.82,0.14-1.54,0.5-2.23,0.92c-1.77,1.08-3.47,2.28-5.3,3.25c-1.85,0.99-3.8,1.66-5.9,1.69    c-1.15,0.02-2.32-0.14-3.14-1.1c-1.06-1.23-0.95-2.94,0.53-4.38c0.43-0.42,0.95-0.67,1.46-0.95c0.53-0.29,1.06-0.38,1.34,0.4    c0.09,0.26,0.36,0.44,0.42,0.77c-0.28,0.22-0.56,0.47-0.87,0.67c-0.44,0.28-0.48,0.71-0.36,1.14c0.11,0.41,0.5,0.55,0.88,0.58    c1.04,0.09,2.02-0.22,2.98-0.58c1.83-0.69,3.44-1.83,5.15-2.75c1.29-0.69,2.55-1.53,4-1.77c1.56-0.26,3.15-0.32,4.56,0.7    c0.98,0.7,1.53,1.65,1.57,2.88c0.02,0.66,0.21,1.04,0.93,1.16c1.2,0.21,2.42,0.11,3.6,0.38c2.67,0.61,4.64,3.1,3.83,6.03    c-0.43,1.56-1.53,2.48-3.34,2.2c-0.47-0.07-0.81-0.38-1.02-0.79c-0.27-0.53,0.14-1.11,0.75-1.09c0.35,0.01,0.72,0.11,0.85-0.38    c0.13-0.48-0.05-0.82-0.44-1.1c-0.79-0.57-1.71-0.56-2.6-0.65c-0.67-0.06-1.35-0.01-2.2-0.01c0.78,0.9,0.81,1.91,0.77,2.95    c-0.05,1.35-0.83,2.19-1.87,2.71c-0.99,0.49-2.09,0.44-3.05-0.25c-0.81-0.58-0.74-1.14,0.21-1.65c0.09,0.58,0.45,0.79,0.98,0.7    c0.54-0.09,0.74-0.55,0.76-0.99c0.03-0.61-0.32-1.08-0.9-1.31c-1.48-0.61-2.81,0.02-4.15,0.55c-1.5,0.6-2.64,1.73-3.84,2.78    c-0.69,0.6-1.43,1.12-2.43,1.01c-0.8-0.08-1.72-0.65-1.91-1.32c-0.28-0.99-0.01-1.83,0.77-2.41c0.54-0.4,1.41-0.34,1.91,0.13    c0.48,0.46,0.55,1.01,0.22,1.62c-0.2,0.37-0.49,0.55-0.91,0.53c-0.35-0.02-0.54-0.21-0.68-0.52c-0.18-0.42-0.01-0.7,0.3-0.91    c0.15-0.1,0.19-0.23,0.11-0.36c-0.11-0.19-0.27-0.1-0.42-0.01c-0.56,0.3-0.78,1-0.49,1.6c0.32,0.65,1.31,0.94,1.94,0.56    c0.62-0.38,0.91-0.94,0.83-1.68c-0.07-0.73-0.45-1.27-1.09-1.54c-1.57-0.66-3.18,0.48-3.11,2.26c0.03,0.76-0.23,1.09-0.84,1.47    c-1.59,0.98-2.79,2.29-2.67,4.42c0.06,1.05,0.77,1.94,1.76,2.08c0.59,0.08,1.11-0.11,1.47-0.63c0.25-0.37,0.25-0.82,0.04-1.15    c-0.31-0.51-0.83-0.63-1.44-0.41c0.01-0.65,0.04-1.23,0.65-1.51c0.57-0.26,1.33,0,1.75,0.48c1.43,1.63,1.24,5.84-1.99,6.67    c-0.61,0.16-1.27,0.3-1.94,0.1c-0.3-0.09-0.64-0.12-1.08,0.07c0.43,0.51,1,0.57,1.48,0.56c1.83-0.07,3.53-0.6,4.39-2.44    c0.87-1.86,0.78-3.73-0.59-5.53c1.01,0.31,1.34,1.12,1.64,1.88c0.32,0.81,0.11,1.71,0.21,2.6c1.1,0.07,2.16,0.04,3.23-0.07    c0.3-0.03,0.37-0.27,0.47-0.48c0.88-1.93,2.44-2.78,4.4-3.18c2.34-0.47,4.7-0.2,7.04-0.28c1.21-0.04,2.42-0.01,3.64,0.06    c-0.8,0.33-1.65,0.34-2.48,0.37c-1.49,0.06-2.99-0.04-4.48,0.03c-1.79,0.09-3.56,0.32-5.1,1.41c-1.3,0.92-2.05,2.16-1.84,3.83    c0.15,1.21,0.92,2.02,1.96,2.51c0.94,0.44,1.95,0.59,2.98,0.61c0.21,0,0.47,0.02,0.47-0.29c0-0.3-0.26-0.3-0.47-0.29    c-0.95,0.06-1.82-0.22-2.7-0.55c-2.08-0.76-2.08-3.28-1.07-4.5c1.1-1.34,2.54-1.84,4.14-2.05c2.44-0.33,4.9,0.07,7.33-0.28    c1.32-0.19,2.61-0.42,3.68-1.33c0.23-0.19,0.49-0.35,0.61-0.72c-0.12-0.08-0.25-0.18-0.39-0.25c-1.07-0.55-1.48-1.46-1.28-2.83    c0.13-0.9,0.99-1.76,1.91-1.96c1.73-0.38,3.2,0.08,4.26,1.54c1.17,1.62,1.27,3.38,0.43,5.21c-0.71,1.53-1.93,2.51-3.27,3.41    c-1.27,0.85-2.57,1.58-4.03,2c-0.31,0.09-0.63,0.17-0.94,0.24c-0.35,0.08-0.41,0.26-0.19,0.61c0.97-0.28,2.01-0.41,2.88-0.95    c1.17-0.73,2.18-0.44,3.13,0.32c1.71,1.37,2.37,3.27,2.05,5.42c-0.32,2.2-1.76,3.45-3.78,4.04c-1.62,0.47-3.28,0.63-4.97,0.6    c-2.73-0.04-5.46,0.04-8.19-0.04c-3.47-0.11-6.95-0.03-10.42-0.14c-3.43-0.11-6.86-0.09-10.28-0.09c-1.42,0-2.83,0.19-4.08,1.01    c-1.3,0.85-2,2.44-1.6,4.13c0.33,1.36,1.26,2.18,2.62,2.57c0.87,0.25,1.6,0,2.42-0.24c0.05-0.02,0.11,0,0.12,0.03    c-0.33,0.49-0.86,0.65-1.38,0.92c0.71,0.9,1.6,1.52,2.58,1.97c2.25,1.04,4.65,1.51,7.1,1.43c1.48-0.05,2.96-0.29,4.16-1.35    c0.43-0.38,0.68-0.84,0.79-1.39c0.2-1-0.39-1.66-1.36-1.57c-0.41,0.04-0.73,0.23-0.84,0.63c-0.11,0.36-0.05,0.71,0.34,0.93    c0.34,0.19,0.23,0.4,0.01,0.62c-0.57,0.55-1.01,0.57-1.6,0.07c-1.25-1.04-1.38-3.24-0.1-4.17c1.7-1.24,3.76-1.2,5.07,0.87    c0.56,0.87,0.56,1.85,0.26,2.83c-0.05,0.16-0.17,0.3-0.02,0.48c0.24,0.13,0.38-0.02,0.48-0.22c0.53-1.12,0.22-2.81-0.59-3.84    c-1.01-1.27-2.7-1.74-4.33-1.14c-0.22,0.08-0.45,0.26-0.73,0.16c0.85-1.27,2.41-1.55,4.02-1.08c1.57,0.46,2.68,2.03,2.84,4.01    c1.49-2.13,3.32-3.69,5.6-4.66c-0.01-0.07-0.01-0.15-0.02-0.22c-1.24,0-2.48,0.01-3.72,0c-6.51-0.08-13.01-0.27-19.52-0.19    c-1.04,0.01-1.79,0.51-2.06,1.37c-0.16,0.49-0.05,0.91,0.31,1.24c0.38,0.35,0.83,0.53,1.34,0.27c0.21-0.11,0.42-0.22,0.38-0.53    c-0.06-0.48,0.19-0.65,0.61-0.65c0.48,0,0.81,0.21,0.92,0.7c0.25,1.02-0.39,2.04-1.47,2.2c-1.52,0.23-2.88-0.12-3.65-1.9    c-0.5-1.16-0.03-2.78,0.99-3.62c1.11-0.9,2.41-1.1,3.74-1.1c6.27,0.02,12.55,0.1,18.82,0.13c4.27,0.02,8.54,0.07,12.81-0.02    c1.88-0.04,3.71-0.49,5.22-1.81c1.03-0.9,1.54-2.04,1.63-3.42c0.1-1.4-0.11-2.72-0.76-4.02C58.88,34.4,58.87,34.36,58.93,34.33z" class="st5"/><path d="M48.34,53.48c-1.33-0.08-2.02-1.34-1.39-2.4c0.33-0.54,0.87-0.56,1.25-0.04c0.29,0.39,0.69,0.37,0.98,0.12    c0.41-0.35,0.38-0.86,0.08-1.29c-0.65-0.92-1.61-0.85-2.52-0.68c-1.3,0.25-2.36,1.07-3.37,1.9c-1.98,1.63-3.72,3.57-5.81,5.08    c-1.77,1.28-3.67,2.14-5.85,2.38c-1.71,0.19-3.38,0.1-5.05-0.31c-0.25-0.06-0.49-0.11-0.68-0.37c1.44,0.08,2.83,0.14,4.24-0.06    c2.57-0.36,4.83-1.31,6.62-3.33c1.44-1.62,2.68-3.4,4.22-4.92c1.41-1.41,3.05-2.26,5.01-2.48c1.58-0.18,3.05,0.02,4.33,1.04    c1.49,1.18,1.77,3.33,0.56,4.49C50.26,53.28,49.38,53.57,48.34,53.48z" class="st6"/><path d="M58.91,34.41c-0.12-0.05-0.29-0.11-0.17-0.26c0.1-0.13,0.18-0.01,0.24,0.14    C58.96,34.35,58.95,34.37,58.91,34.41z" class="st5"/><path d="M20.97,50.53c0.03-0.04,0.07-0.06,0.12-0.07c0,0.03,0,0.06-0.03,0.12C21.03,50.59,20.99,50.55,20.97,50.53z" class="st5"/><path d="M56.4,22.51c-0.92-0.19-1.5,0.08-1.75,0.79c-0.15,0.42-0.1,0.85,0.18,1.15c0.23,0.25,0.57,0.39,0.96,0.27    c0.44-0.15,0.56-0.47,0.5-0.9c-0.02-0.2,0.05-0.34,0.26-0.32c0.19,0.02,0.27,0.15,0.3,0.34c0.08,0.63-0.21,1.07-0.71,1.36    c-0.57,0.32-1.27,0.14-1.69-0.38c-0.52-0.66-0.54-1.42-0.04-2.19c0.39-0.61,1.31-0.93,1.97-0.71c1.62,0.55,2.45,2.32,2.01,4.03    c-0.48,1.84-1.82,2.78-3.26,3.66c-1.42,0.87-2.98,1.41-4.58,1.8c-0.72,0.18-1.47,0.24-2.2,0.34c-0.24,0.03-0.52-0.01-0.52-0.32    c0-0.3,0.29-0.24,0.49-0.26c2.88-0.29,5.58-1.13,7.93-2.94c1.67-1.29,2.1-3.06,1.37-4.65C57.37,23.07,56.96,22.73,56.4,22.51z" class="st2"/><path d="M38.8,13.1c0.71-0.49,1.38-0.84,2.24-0.75c0.48,0.05,0.82,0.22,1.17,0.73c-0.45-0.14-0.8-0.14-1.16-0.12    c-0.4,0.03-0.63,0.27-0.71,0.67c-0.15,0.8,0.2,1.29,1.13,1.58c-1.16,0.4-2.7,0.22-4.48-0.54C37.52,14.06,38.18,13.64,38.8,13.1z" class="st7"/><path d="M49.48,33.15c0.73,0.8,0.53,1.61,0.06,2.15c-0.43,0.49-1.1,0.46-1.65-0.06c0.08-0.3,0.28-0.23,0.49-0.18    c0.53,0.11,0.92-0.06,1.03-0.65c0.1-0.55-0.3-1.12-0.85-1.19c-0.47-0.06-0.9,0.05-1.25,0.45c-0.6,0.68-1.31,1.13-2.27,0.99    c-0.71-0.1-1.45-0.9-1.49-1.67c-0.04-0.7,0.54-1.47,1.22-1.63c0.13-0.03,0.3-0.07,0.41-0.02c0.25,0.11,0.74-0.01,0.7,0.41    c-0.05,0.45-0.46,0.16-0.69,0.14c-0.65-0.07-0.94,0.31-1.06,0.87c-0.11,0.51,0.29,1.22,0.75,1.3c0.67,0.12,1.3,0.06,1.8-0.5    c0.17-0.19,0.37-0.36,0.58-0.51C48.07,32.42,48.59,32.44,49.48,33.15z" class="st8"/></g></g></svg>