<svg xmlns="http://www.w3.org/2000/svg" version="1.1" width="70px" height="70px" viewBox="0 0 70 70"><g id="surface1"><path d="M 30.332031 4.578125 C 24.40625 5.664062 18.96875 8.605469 14.675781 13.015625 C 8.960938 18.921875 6.066406 26.152344 6.066406 34.542969 C 6.066406 43.125 8.867188 50.160156 14.699219 56.164062 C 20.464844 62.117188 27.394531 65.082031 35.464844 65.082031 C 39.011719 65.082031 41.71875 64.625 45.035156 63.492188 C 53.527344 60.550781 60.621094 53.222656 63.464844 44.402344 C 66.941406 33.601562 64.492188 21.960938 57.027344 13.765625 C 50.191406 6.265625 40.109375 2.796875 30.332031 4.578125 Z M 38.265625 5.039062 C 38.265625 5.160156 36.960938 5.230469 35.375 5.207031 C 33.785156 5.207031 32.527344 5.109375 32.597656 4.988281 C 32.738281 4.75 38.265625 4.773438 38.265625 5.039062 Z M 31.964844 5.277344 C 31.476562 5.566406 29.003906 5.882812 29.238281 5.640625 C 29.398438 5.472656 30.191406 5.328125 32.082031 5.109375 C 32.222656 5.085938 32.152344 5.160156 31.964844 5.277344 Z M 42 5.59375 C 43.46875 5.929688 46.503906 7.015625 46.785156 7.253906 C 47.132812 7.59375 46.128906 7.519531 45.617188 7.160156 C 44.777344 6.605469 42.234375 5.859375 40.25 5.617188 C 39.738281 5.542969 39.152344 5.398438 38.964844 5.277344 C 38.546875 5.015625 40.4375 5.207031 42 5.59375 Z M 28.910156 5.882812 C 28.863281 5.929688 28.117188 6.195312 27.253906 6.460938 C 25.480469 7.015625 25.058594 6.796875 26.785156 6.21875 C 27.8125 5.882812 29.144531 5.664062 28.910156 5.882812 Z M 39.667969 6.121094 C 39.992188 6.195312 40.832031 6.386719 41.535156 6.53125 C 50.632812 8.460938 58.566406 15.789062 61.785156 25.1875 C 62.535156 27.40625 63.140625 30.371094 63.210938 32.300781 C 63.234375 33.167969 63.304688 33.914062 63.375 34.011719 C 63.535156 34.277344 63 39.242188 62.648438 40.832031 C 61.414062 46.351562 59.035156 50.8125 55.183594 54.863281 C 52.011719 58.164062 48.066406 60.695312 43.9375 62.046875 C 41.835938 62.71875 41.601562 62.769531 38.875 63.179688 C 37.191406 63.445312 32.433594 63.371094 31.125 63.058594 C 30.847656 63.007812 30.261719 62.890625 29.820312 62.816406 C 28.511719 62.601562 24.875 61.296875 23.285156 60.480469 C 17.828125 57.660156 13.136719 52.835938 10.546875 47.367188 C 9.683594 45.582031 8.46875 42.0625 8.261719 40.859375 C 8.214844 40.449219 8.027344 39.484375 7.886719 38.6875 C 7.234375 34.953125 7.816406 29.167969 9.238281 25.019531 C 13.371094 13.183594 24.242188 5.472656 36.285156 5.90625 C 37.824219 5.953125 39.339844 6.050781 39.667969 6.121094 Z M 25.433594 7.015625 C 25.433594 7.136719 25.339844 7.183594 25.199219 7.109375 C 25.082031 7.039062 24.964844 7.085938 24.964844 7.207031 C 24.964844 7.351562 24.828125 7.472656 24.6875 7.472656 C 24.242188 7.472656 20.277344 9.59375 19.390625 10.292969 C 18.175781 11.207031 16.03125 13.136719 14.933594 14.269531 C 13.742188 15.5 11.433594 18.5625 11.433594 18.921875 C 11.433594 19.019531 11.199219 19.429688 10.921875 19.839844 C 10.21875 20.828125 9.871094 21.550781 9.285156 23.019531 C 9.03125 23.671875 8.703125 24.492188 8.5625 24.828125 C 8.445312 25.164062 8.328125 25.503906 8.351562 25.597656 C 8.375 25.71875 8.285156 25.792969 8.167969 25.792969 C 7.863281 25.792969 7.863281 25.382812 8.167969 25.1875 C 8.308594 25.117188 8.398438 24.875 8.398438 24.660156 C 8.398438 24.105469 9.519531 21.574219 10.546875 19.789062 C 11.035156 18.96875 11.433594 18.175781 11.433594 18.078125 C 11.433594 17.957031 11.503906 17.835938 11.621094 17.789062 C 11.714844 17.742188 12.25 17.089844 12.808594 16.320312 C 13.648438 15.160156 14.957031 13.789062 17.242188 11.570312 C 18.269531 10.582031 20.441406 9.160156 22.632812 8.027344 C 25.269531 6.675781 25.433594 6.605469 25.433594 7.015625 Z M 47.972656 7.785156 C 51.261719 9.257812 55.789062 13.066406 58.261719 16.390625 C 60.152344 18.945312 62.535156 23.429688 62.535156 24.441406 C 62.535156 24.636719 62.625 24.851562 62.742188 24.949219 C 63.023438 25.117188 63.863281 29.023438 64.097656 31.09375 C 64.46875 34.566406 64.050781 40.617188 63.304688 42.664062 C 63.234375 42.859375 63.140625 43.148438 63.09375 43.316406 C 62.742188 45.027344 60.503906 49.632812 58.871094 51.992188 C 54.015625 59.007812 45.851562 63.804688 37.964844 64.238281 C 35.792969 64.359375 36.75 64.046875 39.433594 63.757812 C 40.273438 63.683594 41.300781 63.492188 41.71875 63.371094 C 43.820312 62.746094 44.332031 62.574219 45.734375 62.019531 C 48.488281 60.914062 52.664062 58.453125 52.921875 57.804688 C 52.964844 57.707031 53.105469 57.609375 53.199219 57.609375 C 53.691406 57.609375 57.679688 53.152344 58.964844 51.175781 C 60.875 48.234375 62.648438 44.230469 63.09375 41.941406 C 63.722656 38.761719 63.816406 37.773438 63.792969 34.589844 C 63.792969 32.589844 63.652344 30.15625 63.464844 29.167969 C 63.09375 26.902344 63.117188 27.019531 62.8125 26.203125 C 62.648438 25.816406 62.535156 25.429688 62.535156 25.308594 C 62.535156 25.1875 62.277344 24.515625 61.972656 23.816406 C 61.671875 23.117188 61.25 22.152344 61.039062 21.695312 C 58.871094 16.679688 53.875 11.328125 48.765625 8.582031 C 46.96875 7.617188 46.457031 7.085938 47.972656 7.785156 Z M 8.050781 26.441406 C 7.558594 27.601562 7.1875 31.09375 7.164062 34.542969 C 7.140625 36.613281 7.023438 38.328125 6.929688 38.328125 C 6.71875 38.328125 6.835938 31.144531 7.070312 29.890625 C 7.164062 29.433594 7.351562 28.371094 7.488281 27.527344 C 7.628906 26.707031 7.863281 26.03125 7.980469 26.03125 C 8.121094 26.03125 8.144531 26.226562 8.050781 26.441406 Z M 7.582031 40.421875 C 8.050781 44.375 11.058594 50.546875 14.351562 54.332031 C 14.792969 54.839844 15.167969 55.34375 15.167969 55.464844 C 15.167969 55.585938 15.308594 55.683594 15.46875 55.683594 C 15.609375 55.683594 16.402344 56.332031 17.21875 57.128906 C 18.011719 57.898438 18.667969 58.476562 18.667969 58.40625 C 18.667969 58.332031 18.851562 58.429688 19.085938 58.621094 C 19.648438 59.128906 23.519531 61.46875 23.800781 61.46875 C 23.941406 61.46875 24.476562 61.683594 25.035156 61.925781 C 27.324219 63.007812 32.386719 64.09375 35.070312 64.117188 C 35.628906 64.117188 35.910156 64.214844 35.816406 64.359375 C 35.722656 64.503906 35.488281 64.578125 35.28125 64.503906 C 35.046875 64.433594 33.878906 64.3125 32.667969 64.238281 C 31.453125 64.140625 30.378906 64.023438 30.285156 63.972656 C 30.191406 63.902344 29.867188 63.804688 29.585938 63.757812 C 27.464844 63.347656 24.664062 62.3125 22.285156 61.058594 C 20.324219 60.019531 17.265625 57.875 17.101562 57.441406 C 17.035156 57.273438 16.871094 57.128906 16.730469 57.128906 C 16.589844 57.128906 15.703125 56.285156 14.769531 55.246094 C 11.058594 51.222656 8.398438 46.113281 7.351562 40.929688 C 6.929688 38.953125 6.953125 39.050781 7.210938 39.050781 C 7.328125 39.050781 7.488281 39.675781 7.582031 40.421875 Z M 7.582031 40.421875 " style=" stroke:none;fill-rule:nonzero;fill:rgb(0%,0%,0%);fill-opacity:1;"/><path d="M 32.105469 6.554688 C 22.515625 7.785156 14.351562 14.148438 10.335938 23.503906 C 7.488281 30.203125 7.441406 38.734375 10.242188 45.558594 C 13.929688 54.5 21.886719 60.9375 31.242188 62.550781 C 33.761719 62.984375 38.40625 62.863281 40.949219 62.3125 C 43.515625 61.757812 45.242188 61.128906 47.714844 59.851562 C 54.878906 56.164062 59.964844 49.609375 62.089844 41.242188 C 62.789062 38.566406 62.953125 32.660156 62.441406 29.792969 C 60.292969 18.03125 51.988281 9.28125 40.714844 6.871094 C 38.546875 6.410156 34.417969 6.242188 32.105469 6.554688 Z M 40.949219 7.542969 C 55.929688 10.917969 65.148438 26.296875 61.367188 41.554688 C 60.222656 46.207031 58.007812 50.1875 54.601562 53.777344 C 50.84375 57.730469 47.132812 59.996094 42.046875 61.417969 C 39.992188 61.972656 39.410156 62.046875 35.464844 62.046875 C 31.546875 62.019531 30.941406 61.972656 28.839844 61.394531 C 17.828125 58.359375 9.871094 48.621094 8.890625 37 C 7.933594 25.503906 13.882812 14.703125 23.917969 9.738281 C 26.273438 8.582031 29.421875 7.570312 31.734375 7.230469 C 33.832031 6.941406 38.964844 7.109375 40.949219 7.542969 Z M 40.949219 7.542969 " style=" stroke:none;fill-rule:nonzero;fill:rgb(0%,0%,0%);fill-opacity:1;"/><path d="M 38.964844 9.28125 C 38.382812 9.472656 37.03125 10.125 35.933594 10.726562 C 30.707031 13.621094 29.679688 14.054688 28.1875 14.078125 C 27.066406 14.101562 26.714844 14.003906 26.507812 13.667969 C 26.296875 13.28125 26.367188 13.113281 27.042969 12.535156 L 27.8125 11.859375 L 27.324219 11.113281 C 26.808594 10.363281 26.808594 10.363281 25.945312 10.75 C 23.777344 11.691406 22.773438 13.835938 23.683594 15.644531 C 24.171875 16.65625 25.410156 17.164062 27.253906 17.089844 C 30.03125 16.992188 31.828125 16.269531 36.65625 13.257812 C 39.992188 11.183594 40.996094 10.894531 42.421875 11.667969 C 43.238281 12.125 44.007812 13.402344 43.539062 13.570312 C 43.351562 13.644531 43.121094 13.472656 42.980469 13.136719 C 42.839844 12.824219 42.441406 12.390625 42.117188 12.148438 C 41.113281 11.472656 39.828125 11.859375 36.960938 13.714844 C 32.363281 16.679688 29.984375 17.621094 27.160156 17.644531 C 24.941406 17.644531 23.894531 17.136719 23.171875 15.691406 C 22.632812 14.609375 22.65625 13.882812 23.238281 12.679688 C 23.707031 11.714844 23.519531 11.640625 22.796875 12.535156 C 21.980469 13.523438 21.769531 14.777344 22.261719 15.8125 L 22.632812 16.632812 L 22.027344 16.632812 C 21.046875 16.632812 17.941406 17.8125 16.332031 18.800781 C 15.492188 19.308594 14.304688 20.273438 13.671875 20.972656 C 10.125 24.875 11.035156 30.128906 15.238281 30.128906 C 15.84375 30.128906 16.660156 29.960938 17.035156 29.769531 C 17.6875 29.40625 18.597656 28.058594 18.363281 27.792969 C 18.292969 27.746094 18.128906 27.890625 17.988281 28.152344 C 17.664062 28.78125 16.332031 29.40625 15.328125 29.40625 C 14.351562 29.40625 13.066406 28.539062 12.625 27.601562 C 11.433594 25.070312 13.394531 21.933594 17.382812 19.910156 C 19.785156 18.707031 23.753906 17.835938 23.964844 18.488281 C 24.035156 18.679688 23.824219 18.800781 23.402344 18.824219 C 19.53125 18.921875 14.582031 21.5 13.300781 24.128906 C 11.921875 26.902344 13.765625 29.601562 16.425781 28.683594 C 17.898438 28.203125 18.808594 25.816406 17.898438 24.875 C 17.523438 24.515625 17.476562 24.515625 17.101562 24.898438 C 16.894531 25.117188 16.707031 25.597656 16.683594 25.9375 C 16.683594 26.78125 16.054688 27.214844 15.515625 26.757812 C 14.933594 26.25 15.191406 24.707031 16.03125 23.816406 C 16.988281 22.753906 18.851562 21.71875 20.136719 21.550781 C 21.328125 21.378906 21.746094 21.066406 21.09375 20.800781 C 20.488281 20.5625 18.433594 21.1875 17.21875 21.984375 C 14.910156 23.476562 14.023438 25.285156 14.839844 26.757812 C 15.328125 27.601562 16.171875 27.914062 16.683594 27.480469 C 16.871094 27.3125 17.035156 27.261719 17.035156 27.359375 C 17.035156 27.71875 16.214844 28.179688 15.585938 28.203125 C 13.488281 28.226562 12.738281 26.175781 14.023438 23.960938 C 14.910156 22.441406 18.714844 20.199219 21.1875 19.71875 C 23.472656 19.308594 23.871094 19.164062 24.101562 18.753906 C 24.289062 18.464844 24.265625 18.246094 24.058594 17.980469 C 23.800781 17.667969 23.425781 17.621094 22.191406 17.71875 C 20.929688 17.8125 20.765625 17.789062 21.234375 17.574219 C 21.558594 17.425781 22.003906 17.210938 22.214844 17.089844 C 22.820312 16.777344 22.984375 16.800781 23.917969 17.453125 C 24.964844 18.199219 27.113281 18.464844 29.167969 18.101562 C 30.191406 17.910156 31.617188 17.332031 33.53125 16.34375 L 36.375 14.871094 L 36.820312 15.425781 C 37.542969 16.34375 40.484375 16.847656 41.160156 16.148438 C 41.324219 15.980469 41.066406 15.910156 40.367188 15.910156 C 39.457031 15.910156 38.242188 15.667969 37.125 15.28125 C 36.773438 15.160156 38.3125 13.859375 39.644531 13.160156 C 40.484375 12.703125 41.578125 12.777344 42.210938 13.355469 C 42.816406 13.859375 43.328125 13.957031 43.75 13.644531 C 44.707031 12.921875 43.097656 10.96875 41.347656 10.726562 C 40.320312 10.605469 38.664062 11.28125 36.238281 12.847656 C 32.011719 15.523438 29.726562 16.4375 27.136719 16.4375 C 25.152344 16.414062 24.570312 16.148438 24.125 15.015625 C 23.800781 14.269531 23.824219 14.078125 24.125 13.402344 C 24.5 12.558594 25.011719 12.027344 25.851562 11.570312 C 26.601562 11.183594 26.761719 11.449219 26.296875 12.269531 C 25.761719 13.210938 25.808594 13.644531 26.484375 14.34375 C 27.601562 15.523438 29.703125 14.992188 34.324219 12.390625 C 39.386719 9.519531 40.925781 9.183594 43.285156 10.363281 C 44.308594 10.871094 45.035156 11.957031 45.035156 12.96875 C 45.035156 13.933594 46.222656 14.609375 48.160156 14.777344 C 51.636719 15.089844 53.433594 16.558594 53.433594 19.089844 C 53.433594 20.875 52.148438 22.320312 50.984375 21.839844 C 50.492188 21.644531 50.539062 21.355469 51.148438 21.089844 C 51.964844 20.707031 52.101562 19.886719 51.449219 19.089844 C 50.796875 18.269531 49.816406 17.933594 47.949219 17.886719 C 46.433594 17.8125 45.40625 18.199219 46.457031 18.414062 C 46.761719 18.488281 47.648438 18.585938 48.441406 18.632812 C 50.261719 18.777344 51.378906 19.355469 51.285156 20.078125 C 51.238281 20.488281 51.054688 20.609375 50.5625 20.609375 C 49.980469 20.609375 49.488281 21.019531 49.464844 21.5 C 49.464844 22.007812 50.46875 22.660156 51.214844 22.660156 C 54.15625 22.660156 55.183594 18.269531 52.828125 15.8125 C 51.847656 14.800781 50.46875 14.246094 48.511719 14.101562 C 45.757812 13.859375 45.828125 13.882812 45.640625 12.628906 C 45.476562 11.257812 44.800781 10.246094 43.609375 9.640625 C 42.398438 8.992188 40.296875 8.824219 38.964844 9.28125 Z M 38.964844 9.28125 " style=" stroke:none;fill-rule:nonzero;fill:rgb(0%,0%,0%);fill-opacity:1;"/><path d="M 40.878906 13.425781 C 39.96875 13.8125 40.132812 15.425781 41.089844 15.425781 C 41.488281 15.425781 41.511719 15.355469 41.277344 14.898438 C 41.066406 14.460938 41.089844 14.316406 41.417969 14.078125 C 42.023438 13.621094 41.625 13.113281 40.878906 13.425781 Z M 40.878906 13.425781 " style=" stroke:none;fill-rule:nonzero;fill:rgb(0%,0%,0%);fill-opacity:1;"/><path d="M 45.828125 19.164062 C 46.222656 20.898438 46.222656 21.210938 45.964844 22.03125 C 45.78125 22.660156 45.453125 23.042969 44.847656 23.359375 C 43.679688 23.960938 43.261719 23.765625 43.867188 22.972656 C 44.660156 21.910156 44.425781 21.019531 43.097656 20.128906 C 41.789062 19.257812 38.289062 20.296875 35.933594 22.25 L 34.882812 23.140625 L 34.695312 22.175781 C 34.347656 20.367188 32.457031 19.476562 30.824219 20.367188 C 30.125 20.730469 29.398438 22.007812 29.398438 22.851562 C 29.398438 23.164062 28.957031 23.695312 28.257812 24.273438 C 26.738281 25.503906 26.0625 26.613281 25.96875 28.082031 C 25.828125 29.816406 26.414062 30.878906 27.71875 31.3125 C 28.582031 31.578125 28.839844 31.578125 29.328125 31.3125 C 30.078125 30.902344 30.613281 29.695312 30.308594 29.117188 C 29.960938 28.445312 30.101562 28.035156 30.449219 28.683594 C 30.847656 29.40625 30.894531 30.972656 30.542969 32.011719 C 30.171875 33.097656 28.933594 33.820312 27.324219 33.867188 C 25.785156 33.914062 25.433594 34.085938 25.433594 34.710938 C 25.433594 35.769531 27.558594 35.988281 29.632812 35.121094 C 30.660156 34.6875 31.078125 34.347656 31.6875 33.386719 L 32.457031 32.203125 L 34.253906 32.277344 C 35.769531 32.324219 36.144531 32.253906 36.65625 31.84375 L 37.238281 31.359375 L 37.148438 32.082031 C 37.007812 33.144531 37.519531 34.832031 38.242188 35.53125 C 38.570312 35.867188 39.269531 36.324219 39.785156 36.566406 L 40.714844 37 L 38.617188 37.121094 C 36.539062 37.242188 36.515625 37.242188 36.445312 37.890625 C 36.351562 38.6875 36.050781 38.710938 32.898438 38.328125 C 25.246094 37.363281 21.558594 34.109375 21.769531 28.46875 C 21.863281 26.539062 22.492188 25.070312 23.964844 23.476562 C 24.875 22.488281 27.441406 20.972656 28.164062 20.972656 C 28.328125 20.972656 28.558594 20.753906 28.699219 20.511719 C 29.050781 19.839844 28.980469 19.667969 28.558594 20.101562 C 28.375 20.320312 28.046875 20.488281 27.835938 20.488281 C 27.648438 20.488281 26.761719 20.875 25.875 21.355469 C 24.011719 22.371094 22.609375 23.886719 21.769531 25.742188 C 21.257812 26.875 21.210938 27.285156 21.28125 29.238281 C 21.351562 31.167969 21.441406 31.671875 22.121094 33.070312 C 23.378906 35.722656 25.691406 37.339844 29.609375 38.351562 C 32.761719 39.144531 34.882812 39.289062 43.679688 39.289062 C 50.773438 39.289062 52.058594 39.339844 52.359375 39.652344 C 52.941406 40.277344 53.574219 39.988281 53.292969 39.21875 C 53.011719 38.445312 51.917969 38.351562 44.355469 38.277344 C 38.804688 38.230469 36.773438 38.132812 36.703125 37.917969 C 36.585938 37.554688 51.03125 37.53125 52.3125 37.917969 C 53.550781 38.253906 54.039062 38.878906 53.761719 39.722656 C 53.316406 41.050781 53.269531 41.050781 34.535156 41.074219 C 25.105469 41.097656 17.058594 41.027344 16.636719 40.90625 C 16.214844 40.808594 15.726562 40.472656 15.515625 40.183594 C 15.121094 39.578125 15.050781 38.664062 15.421875 38.445312 C 15.796875 38.183594 16.800781 38.542969 16.800781 38.929688 C 16.800781 39.53125 17.921875 39.363281 18.339844 38.6875 C 19.132812 37.433594 17.941406 36.109375 15.890625 35.964844 C 14.582031 35.867188 14.488281 35.890625 13.578125 36.734375 C 12.085938 38.132812 11.828125 39.773438 12.832031 41.53125 C 13.394531 42.496094 14.023438 43.003906 15.375 43.460938 C 16.171875 43.75 16.261719 43.75 16.171875 43.460938 C 16.101562 43.269531 15.632812 42.953125 15.144531 42.738281 C 12.785156 41.773438 12.109375 38.617188 13.929688 37.121094 C 15.074219 36.179688 17.734375 36.710938 17.734375 37.867188 C 17.734375 38.421875 17.289062 38.445312 16.660156 37.964844 C 16.425781 37.773438 16.078125 37.601562 15.890625 37.601562 C 15.46875 37.601562 14.464844 38.734375 14.464844 39.195312 C 14.464844 39.820312 15.191406 40.882812 15.914062 41.339844 C 16.566406 41.726562 17.851562 41.75 33.972656 41.726562 C 43.539062 41.726562 51.707031 41.652344 52.171875 41.554688 C 53.175781 41.363281 54.367188 40.253906 54.367188 39.484375 C 54.367188 38.734375 53.808594 37.917969 52.941406 37.484375 C 52.382812 37.167969 51.355469 37.097656 47.738281 37.121094 C 43.9375 37.121094 43.191406 37.050781 43.074219 36.757812 C 43.003906 36.542969 42.652344 36.398438 42.1875 36.398438 C 38.125 36.398438 36.238281 32.78125 38.875 30.058594 C 40.203125 28.707031 41.277344 28.417969 46.433594 28.179688 C 52.851562 27.839844 53.480469 27.527344 47.714844 27.503906 C 42.792969 27.480469 40.625 27.71875 39.082031 28.417969 C 37.988281 28.925781 36.679688 30.25 36.492188 31.023438 C 36.351562 31.527344 36.214844 31.578125 34.882812 31.578125 C 34.066406 31.578125 33.25 31.648438 33.039062 31.722656 C 32.738281 31.84375 32.691406 31.746094 32.808594 31.167969 C 32.992188 30.15625 32.503906 28.445312 31.78125 27.648438 C 30.964844 26.757812 30.636719 26.828125 31.289062 27.769531 C 32.457031 29.433594 32.035156 32.734375 30.519531 33.964844 C 29.609375 34.710938 27.71875 35.21875 26.554688 35.046875 C 24.988281 34.78125 25.527344 34.347656 27.394531 34.347656 C 29.285156 34.347656 29.9375 34.035156 30.894531 32.6875 C 31.59375 31.722656 31.59375 28.996094 30.894531 28.035156 C 30.191406 27.070312 29.308594 26.78125 28.699219 27.359375 C 28.441406 27.601562 28.234375 28.035156 28.234375 28.324219 C 28.234375 28.757812 28.328125 28.828125 28.816406 28.757812 C 29.261719 28.660156 29.445312 28.757812 29.65625 29.261719 C 30.332031 30.78125 28 31.480469 26.972656 30.058594 C 25.898438 28.539062 26.648438 26.226562 28.722656 24.78125 C 29.796875 24.03125 29.960938 23.792969 29.914062 23.261719 C 29.726562 21.863281 30.917969 20.488281 32.269531 20.488281 C 33.203125 20.488281 34.136719 21.476562 34.136719 22.417969 C 34.136719 23.839844 32.503906 24.636719 31.640625 23.648438 C 31.40625 23.382812 31.265625 22.949219 31.3125 22.632812 C 31.382812 22.054688 32.082031 21.476562 32.363281 21.789062 C 32.457031 21.886719 32.363281 22.078125 32.128906 22.199219 C 31.21875 22.753906 32.035156 23.886719 33.015625 23.429688 C 34.183594 22.875 33.484375 20.972656 32.128906 20.972656 C 31.898438 20.972656 31.382812 21.285156 31.011719 21.671875 C 30.472656 22.222656 30.355469 22.539062 30.425781 23.164062 C 30.542969 24.25 31.5 25.070312 32.621094 25.070312 C 33.554688 25.070312 33.972656 24.828125 35.816406 23.261719 C 37.355469 21.960938 37.894531 21.621094 39.503906 21.019531 C 41.976562 20.054688 43.726562 20.488281 43.585938 22.007812 C 43.539062 22.660156 43.398438 22.804688 42.886719 22.851562 C 42.421875 22.898438 42.234375 22.828125 42.234375 22.5625 C 42.234375 22.105469 41.976562 22.054688 41.578125 22.464844 C 40.808594 23.261719 41.71875 24.296875 43.328125 24.492188 C 44.472656 24.636719 45.875 23.816406 46.480469 22.660156 C 47.085938 21.527344 46.945312 19.695312 46.199219 18.96875 L 45.6875 18.441406 Z M 45.828125 19.164062 " style=" stroke:none;fill-rule:nonzero;fill:rgb(0%,0%,0%);fill-opacity:1;"/><path d="M 25.667969 20.152344 C 20.347656 22.898438 18.597656 28.515625 21.351562 34.058594 C 21.792969 34.953125 22.050781 35.675781 21.933594 35.675781 C 21.792969 35.675781 21.699219 35.578125 21.699219 35.457031 C 21.699219 35.3125 21.441406 34.925781 21.117188 34.566406 C 19.625 32.902344 18.921875 29.769531 19.507812 27.214844 C 19.832031 25.71875 20.417969 24.394531 21.398438 22.851562 C 22.121094 21.742188 22.027344 21.117188 21.257812 21.960938 C 18.738281 24.753906 17.898438 30.128906 19.484375 33.359375 C 20.835938 36.132812 23.238281 38.0625 26.367188 38.878906 C 28.1875 39.386719 31.617188 39.675781 31.40625 39.316406 C 31.3125 39.171875 31.011719 39.050781 30.730469 39.050781 C 29.820312 39.050781 26.761719 38.085938 25.574219 37.410156 C 23.777344 36.398438 22.492188 35.074219 21.699219 33.433594 C 20.835938 31.601562 20.695312 31 20.695312 28.636719 C 20.695312 27.019531 20.789062 26.5625 21.441406 25.214844 C 22.351562 23.285156 24.148438 21.527344 26.25 20.511719 C 27.089844 20.101562 27.929688 19.765625 28.117188 19.765625 C 28.304688 19.765625 28.464844 19.644531 28.464844 19.523438 C 28.464844 19.042969 27.324219 19.308594 25.667969 20.152344 Z M 25.667969 20.152344 " style=" stroke:none;fill-rule:nonzero;fill:rgb(0%,0%,0%);fill-opacity:1;"/><path d="M 54.109375 21.765625 C 53.621094 22.105469 53.199219 22.683594 52.988281 23.285156 C 52.6875 24.199219 52.6875 24.347656 53.105469 25.09375 C 53.363281 25.550781 53.808594 26.007812 54.085938 26.152344 C 54.785156 26.46875 54.738281 26.585938 53.738281 27.3125 C 52.429688 28.203125 51.355469 28.445312 47.714844 28.5625 C 42.933594 28.757812 41.953125 28.851562 40.808594 29.359375 C 39.785156 29.816406 38.289062 31.3125 38.242188 31.890625 C 38.242188 32.058594 38.195312 32.398438 38.148438 32.660156 C 37.894531 34.109375 39.667969 35.601562 41.882812 35.84375 C 42.582031 35.914062 43.167969 36.085938 43.167969 36.230469 C 43.167969 36.375 43.238281 36.398438 43.328125 36.324219 C 43.609375 36.035156 42.628906 35.191406 42.023438 35.191406 C 40.902344 35.191406 39.691406 34.710938 39.199219 34.058594 C 37.964844 32.445312 39.386719 30.226562 42.09375 29.550781 C 42.464844 29.457031 44.847656 29.289062 47.34375 29.167969 C 52.453125 28.949219 52.941406 28.804688 54.714844 27.238281 C 55.300781 26.707031 55.90625 26.273438 56.046875 26.273438 C 56.1875 26.273438 56.511719 26.105469 56.746094 25.863281 C 57.144531 25.503906 57.167969 25.503906 57.167969 26.007812 C 57.167969 27.140625 56.257812 28.203125 54.390625 29.261719 C 53.105469 29.960938 50.703125 30.757812 49.1875 30.972656 C 48.089844 31.121094 47.484375 31.578125 47.484375 32.253906 C 47.484375 32.804688 45.6875 34.035156 45.195312 33.84375 C 44.636719 33.625 44.707031 33.023438 45.265625 33.023438 C 45.898438 33.023438 45.875 32.613281 45.21875 32.398438 C 44.261719 32.082031 43.726562 33.554688 44.519531 34.300781 C 45.148438 34.902344 45.851562 34.808594 46.761719 33.964844 C 47.714844 33.121094 48.765625 32.976562 49.464844 33.625 C 50.050781 34.179688 50.074219 35.242188 49.488281 35.769531 C 49 36.230469 48.042969 36.207031 47.878906 35.722656 C 47.808594 35.507812 47.949219 35.457031 48.347656 35.554688 C 49.164062 35.769531 49.628906 35.144531 49.28125 34.347656 C 48.953125 33.601562 47.855469 33.53125 47.273438 34.203125 C 45.898438 35.769531 43.632812 35.265625 43.632812 33.386719 C 43.632812 32.132812 45.148438 31.3125 45.921875 32.109375 C 46.082031 32.277344 46.199219 32.300781 46.199219 32.15625 C 46.199219 31.433594 44.988281 31.09375 44.078125 31.578125 C 43.445312 31.9375 42.886719 33.144531 43.074219 33.867188 C 43.492188 35.652344 45.429688 36.230469 47.085938 35.074219 C 48.019531 34.398438 48.417969 34.324219 48.671875 34.757812 C 48.765625 34.902344 48.742188 34.953125 48.578125 34.855469 C 48.441406 34.78125 48.113281 34.925781 47.855469 35.21875 C 47.203125 35.964844 47.578125 36.640625 48.648438 36.640625 C 49.605469 36.640625 49.980469 36.277344 50.539062 34.855469 C 50.820312 34.15625 51.125 33.746094 51.378906 33.746094 C 52.5 33.746094 55.742188 32.109375 57.703125 30.539062 C 59.941406 28.734375 60.644531 25.550781 59.289062 23.308594 C 58.054688 21.332031 55.742188 20.632812 54.109375 21.765625 Z M 57.585938 23.210938 C 58.964844 24.539062 58.707031 26.949219 57.027344 28.613281 C 55.601562 30.035156 52.523438 31.578125 50.46875 31.914062 C 50.097656 31.960938 49.375 32.082031 48.859375 32.179688 C 48.253906 32.277344 47.832031 32.226562 47.714844 32.082031 C 47.53125 31.769531 47.832031 31.648438 49.351562 31.480469 C 52.6875 31.09375 56.605469 29.070312 57.515625 27.214844 C 57.703125 26.851562 57.867188 26.03125 57.867188 25.429688 C 57.867188 24.515625 57.75 24.175781 57.191406 23.597656 C 56.816406 23.210938 56.257812 22.898438 55.929688 22.898438 C 55.207031 22.898438 54.53125 23.671875 54.648438 24.371094 C 54.808594 25.527344 56.234375 25.625 56.234375 24.464844 C 56.234375 23.695312 56.605469 23.671875 56.746094 24.464844 C 56.957031 25.597656 55.601562 26.273438 54.714844 25.480469 C 53.96875 24.78125 53.828125 23.886719 54.367188 23.1875 C 55.230469 22.105469 56.441406 22.105469 57.585938 23.210938 Z M 59.035156 27.3125 C 58.730469 28.394531 57.75 29.578125 56.210938 30.757812 C 54.972656 31.671875 52.941406 32.78125 52.429688 32.78125 C 52.265625 32.78125 51.730469 33 51.214844 33.265625 C 50.539062 33.625 50.238281 33.675781 50.003906 33.480469 C 49.628906 33.144531 49.605469 32.804688 50.003906 32.660156 C 50.144531 32.613281 51.054688 32.347656 52.011719 32.035156 C 56.398438 30.683594 58.988281 28.417969 59.078125 25.792969 C 59.101562 24.804688 59.125 24.78125 59.195312 25.550781 C 59.265625 26.007812 59.195312 26.804688 59.035156 27.3125 Z M 59.035156 27.3125 " style=" stroke:none;fill-rule:nonzero;fill:rgb(0%,0%,0%);fill-opacity:1;"/><path d="M 52.851562 33.84375 C 50.984375 34.492188 50.84375 34.589844 51.542969 34.664062 C 51.964844 34.710938 52.941406 34.519531 53.691406 34.230469 C 55.789062 33.410156 57.074219 33.964844 58.007812 36.035156 C 59.035156 38.253906 58.519531 40.761719 56.816406 41.894531 C 55.019531 43.074219 54.039062 43.171875 43.867188 43.125 C 17.78125 43.003906 19.390625 42.953125 18.035156 43.582031 C 17.382812 43.894531 16.613281 44.402344 16.332031 44.714844 C 15.914062 45.171875 15.703125 45.246094 15.351562 45.050781 C 15.097656 44.90625 14.699219 44.761719 14.464844 44.714844 C 13.417969 44.496094 11.433594 42.617188 11.433594 41.820312 C 11.433594 41.699219 11.621094 41.871094 11.828125 42.183594 C 12.878906 43.796875 15.214844 45.125 15.796875 44.472656 C 16.007812 44.230469 15.914062 44.136719 15.351562 44.015625 C 13.394531 43.605469 11.667969 41.507812 11.667969 39.53125 C 11.667969 38.0625 12.671875 36.421875 13.882812 35.820312 C 14.582031 35.457031 15.097656 35.410156 16.191406 35.53125 C 17.546875 35.675781 17.59375 35.675781 17.058594 35.289062 C 15.585938 34.230469 13.019531 34.757812 11.550781 36.421875 C 10.5 37.628906 10.265625 38.253906 10.265625 39.84375 C 10.265625 42.398438 11.945312 44.691406 14.375 45.484375 L 15.5625 45.871094 L 15.121094 46.738281 C 14.441406 48.066406 14.628906 49.96875 15.609375 51.535156 C 17.078125 53.921875 21.070312 56.621094 24.382812 57.488281 C 26.15625 57.949219 29.84375 57.949219 31.570312 57.488281 C 33.902344 56.863281 35.070312 56.089844 37.03125 53.824219 C 40.691406 49.609375 41.578125 48.738281 42.886719 48.015625 C 45.710938 46.472656 48.835938 46.59375 50.820312 48.328125 C 53.152344 50.402344 52.5 53.511719 49.558594 54.355469 L 48.417969 54.667969 L 49.441406 54.695312 C 53.035156 54.765625 54.578125 49.824219 51.730469 47.339844 C 51.285156 46.957031 50.84375 46.761719 50.5625 46.859375 C 50.308594 46.90625 49.441406 46.789062 48.648438 46.570312 C 47.203125 46.183594 46.152344 46.257812 42.652344 46.90625 C 41.183594 47.195312 38.011719 50.210938 37.917969 51.414062 C 37.894531 51.679688 37.730469 51.96875 37.542969 52.019531 C 37.285156 52.089844 37.285156 52.042969 37.566406 51.847656 C 37.871094 51.632812 37.871094 51.585938 37.589844 51.585938 C 37.332031 51.585938 37.308594 51.511719 37.496094 51.320312 C 37.847656 50.957031 37.449219 49.511719 36.75 48.546875 C 35.699219 47.125 33.578125 46.59375 31.898438 47.339844 C 31.101562 47.679688 30.078125 48.691406 30.519531 48.691406 C 30.660156 48.691406 30.824219 48.59375 30.894531 48.472656 C 31.148438 48.039062 33.015625 47.726562 33.902344 47.992188 C 35.792969 48.523438 37.078125 50.546875 36.679688 52.425781 C 36.5625 53.03125 36.351562 53.390625 36.167969 53.390625 C 35.957031 53.390625 35.863281 53.222656 35.910156 53.03125 C 36.609375 50.449219 35.328125 48.449219 32.945312 48.449219 C 30.425781 48.449219 29.074219 50.621094 30.308594 52.71875 C 30.847656 53.585938 31.523438 53.898438 32.199219 53.511719 C 32.785156 53.199219 32.808594 52.8125 32.269531 52.402344 C 31.6875 51.96875 32.128906 51.246094 33.039062 51.148438 C 34.441406 50.957031 34.742188 52.667969 33.507812 53.875 C 32.363281 54.984375 31.058594 55.273438 27.953125 55.128906 C 24.851562 55.007812 22.867188 54.429688 20.90625 53.101562 C 19.601562 52.210938 19.296875 51.824219 19.925781 51.824219 C 20.113281 51.824219 20.578125 51.558594 20.929688 51.199219 L 21.582031 50.597656 L 20.835938 50.957031 C 18.898438 51.945312 16.449219 50.886719 15.914062 48.835938 C 15.585938 47.582031 15.84375 46.402344 16.683594 45.363281 C 18.222656 43.53125 17.382812 43.605469 36.515625 43.652344 C 54.320312 43.703125 54.761719 43.675781 56.699219 42.664062 C 59.941406 40.953125 59.964844 35.433594 56.722656 33.554688 C 55.601562 32.902344 55.417969 32.902344 52.851562 33.84375 Z M 34.601562 49.609375 C 35.304688 50.257812 35.535156 50.886719 35.488281 51.945312 C 35.488281 52.476562 35.582031 53.222656 35.722656 53.585938 C 35.957031 54.164062 35.933594 54.332031 35.464844 54.839844 C 34.789062 55.5625 32.691406 56.621094 31.035156 57.03125 C 29.238281 57.464844 25.921875 57.296875 23.964844 56.671875 C 22.375 56.140625 19.785156 54.8125 19.648438 54.429688 C 19.601562 54.332031 19.460938 54.234375 19.320312 54.234375 C 18.714844 54.234375 16.101562 51.390625 16.101562 50.765625 C 16.101562 50.570312 16.171875 50.570312 16.285156 50.765625 C 16.449219 51.003906 17.710938 51.65625 18.597656 51.921875 C 18.851562 52.019531 19.34375 52.425781 19.671875 52.863281 C 20.90625 54.550781 24.640625 55.828125 28.488281 55.898438 C 30.988281 55.945312 31.988281 55.730469 33.414062 54.789062 C 34.230469 54.257812 35 52.980469 35 52.136719 C 35 51.558594 33.691406 50.378906 33.0625 50.378906 C 32.269531 50.378906 31.265625 51.609375 31.453125 52.355469 C 31.570312 52.835938 31.546875 52.863281 31.195312 52.574219 C 30.613281 52.089844 30.449219 50.742188 30.871094 50.066406 C 31.570312 48.980469 33.648438 48.714844 34.601562 49.609375 Z M 34.601562 49.609375 " style=" stroke:none;fill-rule:nonzero;fill:rgb(0%,0%,0%);fill-opacity:1;"/><path d="M 58.988281 35.480469 C 59.640625 36.785156 59.828125 38.855469 59.429688 40.304688 C 59.195312 41.21875 57.960938 42.59375 56.957031 43.148438 C 54.625 44.375 54.554688 44.375 36.632812 44.257812 C 18.058594 44.136719 18.410156 44.113281 17.058594 45.679688 C 15.238281 47.824219 16.941406 51.175781 19.671875 50.789062 C 21.304688 50.570312 22.238281 49.054688 21.328125 48.113281 C 20.789062 47.558594 20.371094 47.628906 20.019531 48.378906 C 19.648438 49.199219 19.015625 49.367188 18.410156 48.789062 C 17.804688 48.210938 17.851562 47.4375 18.550781 46.761719 L 19.15625 46.183594 L 28.886719 46.234375 C 34.230469 46.28125 39.503906 46.351562 40.601562 46.402344 C 42.886719 46.523438 43.726562 46.257812 42.257812 45.871094 C 41.441406 45.652344 33.601562 45.484375 22.398438 45.460938 C 19.015625 45.4375 18.175781 45.703125 17.640625 46.882812 C 17.148438 47.921875 17.171875 48.257812 17.734375 49.003906 C 18.410156 49.871094 19.296875 50.042969 20.113281 49.414062 C 20.558594 49.078125 20.765625 49.003906 20.765625 49.246094 C 20.765625 49.777344 20.253906 50.136719 19.4375 50.136719 C 18.339844 50.136719 17.59375 49.703125 17.125 48.8125 C 16.753906 48.089844 16.753906 47.894531 17.035156 47.027344 C 17.242188 46.328125 17.59375 45.871094 18.175781 45.484375 L 19.015625 44.957031 L 36.167969 44.929688 C 48.789062 44.90625 53.691406 44.8125 54.714844 44.59375 C 56.351562 44.257812 57.726562 43.582031 58.636719 42.714844 C 59.382812 41.992188 59.476562 42.328125 58.777344 43.242188 C 57.84375 44.449219 55.671875 45.4375 53.339844 45.703125 C 51.542969 45.894531 50.84375 46.0625 50.984375 46.304688 C 51.332031 46.882812 55.601562 46.28125 57.191406 45.414062 C 58.171875 44.90625 59.710938 43.4375 60.105469 42.617188 C 60.714844 41.410156 60.945312 39.410156 60.667969 37.988281 C 60.410156 36.640625 59.5 34.976562 58.800781 34.519531 C 58.449219 34.300781 58.472656 34.46875 58.988281 35.480469 Z M 58.988281 35.480469 " style=" stroke:none;fill-rule:nonzero;fill:rgb(0%,0%,0%);fill-opacity:1;"/><path d="M 44.964844 47.726562 C 42.886719 48.28125 41.300781 49.582031 38.5 53.03125 C 35 57.34375 32.785156 58.453125 27.882812 58.285156 C 26.414062 58.261719 25.316406 58.308594 25.410156 58.40625 C 25.527344 58.527344 26.53125 58.765625 27.671875 58.984375 C 29.351562 59.273438 30.125 59.296875 31.734375 59.082031 C 34.90625 58.671875 37.238281 57.320312 41.089844 53.65625 C 44.332031 50.597656 46.457031 49.4375 48.160156 49.753906 C 49.070312 49.921875 49.652344 50.742188 49.398438 51.4375 C 49.210938 51.921875 48.394531 51.945312 48.207031 51.464844 C 48.019531 50.957031 47.203125 51.003906 46.898438 51.558594 C 45.941406 53.441406 48.300781 54.789062 50.328125 53.511719 C 52.359375 52.234375 51.964844 49.269531 49.582031 48.113281 C 48.578125 47.605469 46.175781 47.414062 44.964844 47.726562 Z M 49.652344 48.910156 C 51.101562 49.96875 51.449219 51.679688 50.398438 52.667969 C 49.769531 53.269531 47.878906 53.464844 47.691406 52.957031 C 47.484375 52.378906 47.785156 52.019531 48.253906 52.28125 C 48.90625 52.667969 49.933594 51.875 49.933594 50.980469 C 49.933594 49.921875 49.070312 49.148438 47.738281 49.003906 C 46.269531 48.835938 44.125 49.992188 41.578125 52.308594 C 37.988281 55.609375 35.441406 57.371094 37.355469 55.246094 C 37.800781 54.765625 38.6875 53.707031 39.339844 52.910156 C 41.066406 50.742188 42.210938 49.726562 43.75 48.910156 C 45.035156 48.234375 45.289062 48.183594 47.039062 48.257812 C 48.535156 48.328125 49.070312 48.472656 49.652344 48.910156 Z M 49.652344 48.910156 " style=" stroke:none;fill-rule:nonzero;fill:rgb(0%,0%,0%);fill-opacity:1;"/></g></svg>