<svg xmlns="http://www.w3.org/2000/svg" version="1.1" id="Layer_1" x="0px" y="0px" width="70px" height="70px" viewBox="0 0 70 70" enable-background="new 0 0 70 70" xml:space="preserve"><metadata/><rect width="70" fill="none" height="70"/><linearGradient id="SVGID_1_" gradientTransform="matrix(1 0 0 1 -271 -359)" gradientUnits="userSpaceOnUse" x1="325.3447" x2="288.7115" y1="405.6748" y2="362.017"><stop offset="0.5769" style="stop-color:#FBDF00"/><stop offset="1" style="stop-color:#ED7C23"/></linearGradient><path fill="url(#SVGID_1_)" d="M68.6,23.5C68.6,15.6,62.2,9.3,54.4,9.3c-4.801,0-9,2.4-11.601,6l-7.9,7.9l-8.2-8.5   C24,11.4,20,9.3,15.4,9.3c-7.9,0-14.2,6.4-14.2,14.2c0,3.7,1.5,7.1,3.8,9.7l19.7,21.2h0.1C27.4,57,31,58.6,34.9,58.6s7.4-1.5,9.9-4   H44.9L64.4,33.7l0,0C67,31.1,68.6,27.5,68.6,23.5z"/><linearGradient id="SVGID_2_" gradientTransform="matrix(1 0 0 1 -271 -359)" gradientUnits="userSpaceOnUse" x1="307.8496" x2="307.8496" y1="368.2832" y2="417.6225"><stop offset="0" style="stop-color:#FBDF00"/><stop offset="1" style="stop-color:#ED7C23"/></linearGradient><path fill="url(#SVGID_2_)" d="M24.8,54.4C27.4,57,31,58.6,34.9,58.6s7.4-1.5,9.9-4H44.9L64.4,33.7l0,0C67,31.1,68.6,27.5,68.6,23.6   C68.6,15.7,62.2,9.4,54.4,9.4c-4.801,0-9,2.4-11.601,6l-7.9,7.9l-9.3,10.2c-2.6,2.6-6.1,4.2-10.1,4.2c-4.1,0-7.8-1.7-10.4-4.5   L24.8,54.4z"/></svg>