<svg xmlns="http://www.w3.org/2000/svg" version="1.1" width="1535" height="472"><path fill="#0805F2" transform="translate(267,121)" d="M0 0 C1.79050781 0.47566406 1.79050781 0.47566406 3.6171875 0.9609375 C19.14080422 5.58848498 33.58562838 13.64524255 46 24 C46.79535156 24.64453125 47.59070313 25.2890625 48.41015625 25.953125 C54.40052884 31.00846516 59.24370943 36.78966848 64 43 C64.60714844 43.77988281 65.21429688 44.55976563 65.83984375 45.36328125 C84.13165199 70.04270506 91.15512853 101.96159902 87.23095703 132.19824219 C82.38792896 164.36551508 65.03930769 192.54458806 39 212 C11.99480359 230.62310791 -19.72870772 237.87341673 -52.0793457 232.40844727 C-77.47376306 227.67344927 -99.00438368 215.48198433 -117 197 C-117.495 196.56171875 -117.99 196.1234375 -118.5 195.671875 C-136.56437508 179.11286451 -147.85946137 150.92298459 -149.17700195 126.75292969 C-149.46439066 111.1308918 -149.6420067 96.07140412 -145 81 C-144.79101074 80.31341309 -144.58202148 79.62682617 -144.36669922 78.91943359 C-134.72548661 48.39253793 -113.04495846 23.61611848 -84.88745117 8.76782227 C-77.23365354 4.94141439 -69.20842778 2.34934806 -61 0 C-59.87078125 -0.34160156 -58.7415625 -0.68320313 -57.578125 -1.03515625 C-39.73259805 -5.5384289 -17.6905559 -4.95657944 0 0 Z M-87 34 C-87.1238948 38.89289165 -87.21447509 43.78486427 -87.2746582 48.67895508 C-87.29975347 50.34252839 -87.33383796 52.00599196 -87.37719727 53.66918945 C-87.4380746 56.06489153 -87.46625769 58.45913251 -87.48828125 60.85546875 C-87.51408768 61.5952446 -87.5398941 62.33502045 -87.56648254 63.09721375 C-87.56855339 66.93753607 -87.19132297 68.75617819 -84.79614258 71.80859375 C-82.18693177 73.85349694 -79.66164157 75.58538639 -76.7734375 77.20703125 C-75.75515869 77.78549805 -74.73687988 78.36396484 -73.68774414 78.95996094 C-72.59453857 79.57129883 -71.50133301 80.18263672 -70.375 80.8125 C-68.02646699 82.14562568 -65.67881203 83.48020749 -63.33203125 84.81640625 C-62.42749458 85.32988113 -62.42749458 85.32988113 -61.50468445 85.85372925 C-54.97327059 89.56751631 -48.51739478 93.40524602 -42.0625 97.25 C-30.01751191 104.40469236 -30.01751191 104.40469236 -17.9375 111.5 C-17.15189697 111.9630957 -16.36629395 112.42619141 -15.55688477 112.90332031 C-12.01341252 115.18727612 -12.01341252 115.18727612 -8 116 C-9.57325825 119.14651651 -12.6628286 119.90014368 -15.75 121.25 C-16.37132812 121.54390625 -16.99265625 121.8378125 -17.6328125 122.140625 C-22.3420159 124.20711088 -22.3420159 124.20711088 -25.39746094 123.24536133 C-28.05867898 121.97192106 -30.60438224 120.60180425 -33.15625 119.12109375 C-34.1654248 118.53739014 -35.17459961 117.95368652 -36.21435547 117.35229492 C-37.29861816 116.7204126 -38.38288086 116.08853027 -39.5 115.4375 C-40.62680176 114.78434814 -41.75360352 114.13119629 -42.91455078 113.45825195 C-49.29540677 109.75698444 -55.66102726 106.02973892 -62.0234375 102.296875 C-62.68172546 101.91068497 -63.34001343 101.52449493 -64.01824951 101.12660217 C-67.23186809 99.24067473 -70.44416857 97.35255597 -73.65429688 95.46069336 C-74.2496524 95.11045105 -74.84500793 94.76020874 -75.45840454 94.39935303 C-77.07158963 93.45031295 -78.68401565 92.49998294 -80.29638672 91.54956055 C-82.50274819 90.28499704 -84.71007881 89.10327597 -87 88 C-87.09898615 92.91123589 -87.17152247 97.82188938 -87.21972656 102.73388672 C-87.23982393 104.40423702 -87.26710683 106.07451713 -87.30175781 107.74462891 C-87.35036119 110.1476372 -87.37298656 112.54971434 -87.390625 114.953125 C-87.41127014 115.69806213 -87.43191528 116.44299927 -87.45318604 117.21051025 C-87.45462468 120.5457801 -87.30465581 122.5784047 -85.32592773 125.31665039 C-82.76623306 127.16918474 -80.23753297 128.59865892 -77.39453125 129.98046875 C-75.79641602 130.76647461 -75.79641602 130.76647461 -74.16601562 131.56835938 C-72.50602539 132.36983398 -72.50602539 132.36983398 -70.8125 133.1875 C-68.60991676 134.26276686 -66.4080526 135.33950838 -64.20703125 136.41796875 C-63.2322583 136.89000732 -62.25748535 137.3620459 -61.25317383 137.84838867 C-59 139 -59 139 -58 140 C-59.15786011 140.52170776 -59.15786011 140.52170776 -60.33911133 141.05395508 C-63.20976101 142.35129077 -66.07756796 143.65466438 -68.94360352 144.9621582 C-70.18306233 145.52610792 -71.42361549 146.087659 -72.6652832 146.64672852 C-74.45291476 147.4521292 -76.23628233 148.26697288 -78.01953125 149.08203125 C-79.09307861 149.56905518 -80.16662598 150.0560791 -81.27270508 150.55786133 C-83.80643142 151.89764483 -85.22497881 152.80279774 -87 155 C-87.43151621 156.99116652 -87.43151621 156.99116652 -87.34057617 159.19604492 C-87.34034958 160.03668991 -87.34012299 160.8773349 -87.33988953 161.74345398 C-87.32440567 162.64666885 -87.30892181 163.54988373 -87.29296875 164.48046875 C-87.28872391 165.40845779 -87.28447906 166.33644684 -87.28010559 167.29255676 C-87.26330662 170.25783243 -87.22565216 173.2224296 -87.1875 176.1875 C-87.17245474 178.19725581 -87.15876606 180.20702227 -87.14648438 182.21679688 C-87.11339908 187.14479286 -87.06160833 192.07228138 -87 197 C-75.47637412 190.92925933 -75.47637412 190.92925933 -64.1875 184.4375 C-57.01185692 180.1717483 -49.79606188 175.97925881 -42.5625 171.8125 C-41.45608154 171.17497803 -40.34966309 170.53745605 -39.2097168 169.88061523 C-36.93826542 168.57206705 -34.66669872 167.26371905 -32.39501953 165.95556641 C-26.9283002 162.80667946 -21.46425113 159.65316736 -16 156.5 C-13.83334689 155.2499765 -11.66668021 153.99997653 -9.5 152.75 C-8.4275 152.13125 -7.355 151.5125 -6.25 150.875 C3.5 145.25 3.5 145.25 6.75170898 143.37402344 C8.91268988 142.12729744 11.07365998 140.88055273 13.23461914 139.63378906 C18.73818851 136.45854117 24.24196032 133.28364505 29.74609375 130.109375 C42.50415943 122.75123049 55.25725643 115.38465019 68 108 C64.56025286 104.12472932 60.64175127 101.77530958 56.1875 99.25 C55.15786133 98.63318359 55.15786133 98.63318359 54.10742188 98.00390625 C49.58638012 95.4290083 46.32289714 94.27804384 41 95 C37.58706779 96.42306007 34.43521527 98.12623425 31.18359375 99.8828125 C27.16634358 101.29254691 25.88918058 100.57232426 22 99 C20.05962882 97.95083601 18.15149293 96.84061285 16.2734375 95.68359375 C15.17418945 95.01086426 14.07494141 94.33813477 12.94238281 93.64501953 C11.75324711 92.90919277 10.56411975 92.17335254 9.375 91.4375 C8.12377683 90.66975065 6.87214128 89.90267301 5.62011719 89.13623047 C3.02404174 87.54616519 0.4297525 85.95324825 -2.16308594 84.35791016 C-8.01316885 80.76019187 -13.88063919 77.19117259 -19.75 73.625 C-20.31606964 73.2806189 -20.88213928 72.93623779 -21.46536255 72.5814209 C-31.79985322 66.29579648 -42.20083056 60.12530102 -52.6161499 53.97476196 C-61.74947764 48.57847031 -70.80688488 43.09113023 -79.69750977 37.29956055 C-83.0724383 34.85843734 -83.0724383 34.85843734 -87 34 Z "/><path fill="#0805F2" transform="translate(720,201)" d="M0 0 C0.495 -6.435 0.495 -6.435 1 -13 C10.9 -13 20.8 -13 31 -13 C31 36.17 31 85.34 31 136 C21.1 136 11.2 136 1 136 C0.67 132.37 0.34 128.74 0 125 C-1.258125 125.886875 -2.51625 126.77375 -3.8125 127.6875 C-20.29163796 138.58789703 -39.83728027 141.82540686 -59.2578125 138.34375 C-79.63822232 133.4082019 -95.62737216 121.38501301 -107.125 104.0625 C-118.13308431 85.62884403 -121.15842921 63.00714109 -115.9765625 42.20703125 C-109.66315042 21.47378598 -96.40059705 4.2674081 -77.39453125 -6.39453125 C-50.73515912 -19.00327917 -24.47240778 -15.25092079 0 0 Z M-79 34 C-87.78047569 46.25134609 -89.8601738 59.23440069 -87.53125 73.96484375 C-84.13840257 86.74860816 -75.86538611 96.76328059 -64.74609375 103.4921875 C-53.49777734 109.66836123 -42.22511642 110.38658014 -29.984375 107.03125 C-19.19567562 103.30321775 -9.71912672 95.2118164 -4.0625 85.2734375 C1.99286536 72.31673662 2.9597644 59.58921522 -1.73828125 46.0390625 C-7.14047139 33.02697604 -15.35863326 25.11106887 -28 19 C-46.72321782 12.44687376 -66.4916234 18.85196599 -79 34 Z "/><path fill="#0805F2" transform="translate(1232,201)" d="M0 0 C0.495 -6.435 0.495 -6.435 1 -13 C10.9 -13 20.8 -13 31 -13 C31 36.17 31 85.34 31 136 C21.1 136 11.2 136 1 136 C1 132.37 1 128.74 1 125 C0.23558594 125.51949219 -0.52882813 126.03898438 -1.31640625 126.57421875 C-19.04734797 138.11746721 -39.56181879 142.2423023 -60.49829102 137.97460938 C-74.11471559 134.64207389 -85.1630115 127.85500496 -95 118 C-95.62132812 117.44957031 -96.24265625 116.89914062 -96.8828125 116.33203125 C-110.71077908 103.77524545 -116.86435311 84.19702026 -118.21484375 66.125 C-118.94169464 44.72650965 -111.50826317 25.27733275 -97.5859375 9.21484375 C-92.01602207 3.35317084 -86.03520845 -1.04774928 -79 -5 C-78.1646875 -5.47308594 -77.329375 -5.94617188 -76.46875 -6.43359375 C-52.34021887 -19.29959848 -21.69214154 -16.26910616 0 0 Z M-77.3125 32.25 C-81.35044654 37.03843357 -83.84006839 42.14982087 -86 48 C-86.36931641 48.99966797 -86.36931641 48.99966797 -86.74609375 50.01953125 C-90.20363328 61.34595386 -88.00719055 73.43820975 -83.375 84.0625 C-77.38908829 95.27163968 -66.65125978 103.84757846 -54.66796875 107.76171875 C-43.29928193 110.56904772 -31.87416704 109.08585888 -21.6875 103.1875 C-20.10682443 102.15223325 -18.54263944 101.09113521 -17 100 C-16.36320312 99.55914062 -15.72640625 99.11828125 -15.0703125 98.6640625 C-6.74935047 92.26616725 -0.65140947 81.32489922 1 71 C1.90559085 56.6144666 0.2997514 44.60296086 -9 33 C-9.55171875 32.31164062 -10.1034375 31.62328125 -10.671875 30.9140625 C-17.63655777 23.14576249 -28.27658023 17.43035531 -38.72265625 16.76171875 C-54.54430948 16.35444313 -66.15282304 20.56786625 -77.3125 32.25 Z "/><path fill="#0805F2" transform="translate(775,135)" d="M0 0 C9.9 0 19.8 0 30 0 C30.33 21.78 30.66 43.56 31 66 C34.3 64.02 37.6 62.04 41 60 C57.12795959 51.1086625 75.97778884 49.70449728 93.69140625 54.02734375 C113.23281855 59.77210368 129.12550519 71.63397601 139.20483398 89.39477539 C145.60083684 101.13049192 149.17672146 112.96478431 149.11352539 126.39208984 C149.11367142 127.21226593 149.11381744 128.03244202 149.1139679 128.87747192 C149.11327462 131.57198792 149.10550972 134.26643367 149.09765625 136.9609375 C149.09578999 138.83566246 149.09436707 140.7103879 149.09336853 142.58511353 C149.08955973 147.50715493 149.07974346 152.42916659 149.06866455 157.35119629 C149.05841519 162.37865802 149.05386337 167.40612457 149.04882812 172.43359375 C149.03811968 182.28907764 149.02053617 192.14453169 149 202 C139.1 202 129.2 202 119 202 C118.99589111 199.55376221 118.99178223 197.10752441 118.98754883 194.5871582 C118.97027045 186.46060113 118.92563462 178.33435494 118.86790943 170.20798969 C118.83377147 165.28597865 118.8085501 160.36427365 118.80444336 155.44213867 C118.80013194 150.68262783 118.77143593 145.92380584 118.72656822 141.16451073 C118.71368345 139.35829891 118.70925315 137.55200427 118.71384621 135.74575233 C118.74455999 119.98459611 116.27201657 107.68934804 105.00390625 95.9140625 C94.94715283 86.26961804 84.03479363 83.39459789 70.47265625 83.66015625 C59.12510303 84.24263981 49.74417254 89.96513047 42.0703125 98.02734375 C34.23754914 107.32244705 30.88919224 117.92217475 30.79467773 129.91137695 C30.77982834 131.08290062 30.77982834 131.08290062 30.76467896 132.27809143 C30.73320433 134.84812434 30.7083623 137.4181757 30.68359375 139.98828125 C30.66301209 141.77475961 30.6420153 143.56123322 30.62062073 145.34770203 C30.56552525 150.04119013 30.51606091 154.73472127 30.46777344 159.42828369 C30.41746678 164.22110813 30.36182862 169.01387035 30.30664062 173.80664062 C30.19921228 183.20437583 30.09822641 192.60216411 30 202 C20.1 202 10.2 202 0 202 C0 135.34 0 68.68 0 0 Z "/><path fill="#0805F2" transform="translate(436,135)" d="M0 0 C9.9 0 19.8 0 30 0 C30.33 21.78 30.66 43.56 31 66 C35.62 63.36 40.24 60.72 45 58 C49.40234375 56.16015625 49.40234375 56.16015625 52.9375 55.0625 C54.12214844 54.68222656 55.30679688 54.30195313 56.52734375 53.91015625 C75.33017811 48.9820793 95.02373142 52.2332964 111.875 61.59765625 C128.63955193 71.81937611 141.6183614 87.44221887 146.68320084 106.66678715 C149.2233891 117.1976702 149.5206257 127.24194275 149.390625 138.03515625 C149.38314064 139.89415368 149.37745813 141.75315913 149.37347412 143.61216736 C149.35839021 148.44384549 149.31926301 153.27502265 149.2746582 158.10650635 C149.23332757 163.06116972 149.21538341 168.0159161 149.1953125 172.97070312 C149.15274706 182.64738803 149.0825444 192.32357349 149 202 C139.43 202 129.86 202 120 202 C119.970271 198.68630371 119.970271 198.68630371 119.93994141 195.30566406 C119.87270903 187.96547456 119.79507655 180.62542073 119.71247292 173.28538895 C119.66275723 168.83986718 119.61642732 164.39436638 119.578125 159.94873047 C119.54095692 155.64976324 119.49451655 151.35098279 119.44193649 147.05217743 C119.42355844 145.42097028 119.40839095 143.78972336 119.39665604 142.1584549 C119.3240077 124.27786867 119.3240077 124.27786867 113.625 107.5625 C112.74714844 105.86287109 112.74714844 105.86287109 111.8515625 104.12890625 C105.86536155 94.01298439 96.25464428 88.01079039 85.2109375 84.41796875 C72.38187599 81.9926868 60.08491389 84.32436137 49.25 91.5625 C39.013414 99.53906052 33.11083993 110.27083343 31 123 C30.88511463 125.61433187 30.81555881 128.20473268 30.79467773 130.81958008 C30.77982834 131.97647339 30.77982834 131.97647339 30.76467896 133.15673828 C30.73320802 135.6943052 30.70836378 138.23189082 30.68359375 140.76953125 C30.66301177 142.53358941 30.64201497 144.29764278 30.62062073 146.06169128 C30.56552855 150.69599516 30.51606277 155.33034259 30.46777344 159.96472168 C30.41746436 164.6972235 30.36182747 169.42966237 30.30664062 174.16210938 C30.19921632 183.44135438 30.09822924 192.7206531 30 202 C20.1 202 10.2 202 0 202 C0 135.34 0 68.68 0 0 Z "/><path fill="#0805F2" transform="translate(1070.59375,204.02734375)" d="M0 0 C16.46685978 14.05273682 25.11717488 32.46632459 27.19482422 53.77513123 C27.6524643 60.69630998 27.52657465 67.64109476 27.50390625 74.57421875 C27.50203778 76.26386472 27.50061591 77.95351125 27.49961853 79.64315796 C27.4958271 84.05879246 27.48602618 88.47439331 27.47491455 92.89001465 C27.46462734 97.40844264 27.46010535 101.92687614 27.45507812 106.4453125 C27.44440041 115.28777747 27.4268315 124.13020878 27.40625 132.97265625 C17.50625 132.97265625 7.60625 132.97265625 -2.59375 132.97265625 C-2.60833252 130.6371167 -2.62291504 128.30157715 -2.63793945 125.89526367 C-2.68847163 118.14392126 -2.75509865 110.39277582 -2.82946491 102.64162731 C-2.87402794 97.94607984 -2.91331438 93.25061633 -2.94018555 88.55493164 C-2.96635974 84.01600639 -3.00685997 79.4774067 -3.05693626 74.93868446 C-3.07351013 73.2145527 -3.08508303 71.49036476 -3.09136391 69.76616478 C-3.1551962 53.84143397 -5.15989619 39.02826641 -16.51953125 26.85546875 C-26.85247562 17.47603526 -37.89554916 14.13036583 -51.6171875 14.625 C-61.06644955 15.45111427 -68.55391055 18.67472026 -75.59375 24.97265625 C-76.46 25.73578125 -77.32625 26.49890625 -78.21875 27.28515625 C-88.27681941 38.66665584 -91.62208754 50.79777389 -91.79907227 65.765625 C-91.81392166 66.86465401 -91.81392166 66.86465401 -91.82907104 67.98588562 C-91.86034019 70.37727772 -91.88530467 72.76868961 -91.91015625 75.16015625 C-91.93075576 76.83024576 -91.95175296 78.50033041 -91.97312927 80.17041016 C-92.02804071 84.54327429 -92.07758497 88.91618304 -92.12597656 93.28912354 C-92.17641897 97.76049723 -92.23198574 102.231807 -92.28710938 106.703125 C-92.39431205 115.45958258 -92.49536523 124.21609515 -92.59375 132.97265625 C-102.16375 132.97265625 -111.73375 132.97265625 -121.59375 132.97265625 C-121.59375 83.80265625 -121.59375 34.63265625 -121.59375 -16.02734375 C-112.02375 -16.02734375 -102.45375 -16.02734375 -92.59375 -16.02734375 C-92.26375 -11.73734375 -91.93375 -7.44734375 -91.59375 -3.02734375 C-90.26923828 -3.82398438 -90.26923828 -3.82398438 -88.91796875 -4.63671875 C-59.70163072 -21.94798222 -27.34342041 -21.37234216 0 0 Z "/><path fill="#0805F2" transform="translate(1418,187)" d="M0 0 C0 10.23 0 20.46 0 31 C-4.29 31.66 -8.58 32.32 -13 33 C-24.07419938 36.6160651 -34.31516647 43.09380336 -39.91815186 53.73797607 C-45.23335593 64.85147555 -45.60365506 75.04767545 -45.609375 87.109375 C-45.62438367 88.93069916 -45.64111638 90.75200985 -45.65948486 92.57330322 C-45.70286928 97.32756229 -45.72309278 102.08163785 -45.73822021 106.83605957 C-45.7578964 111.70331545 -45.79985404 116.57037614 -45.83984375 121.4375 C-45.91483233 130.95830576 -45.96324905 140.4789698 -46 150 C-55.9 150 -65.8 150 -76 150 C-76.06809398 139.41994137 -76.12299836 128.84003109 -76.15543652 118.25980186 C-76.17101437 113.34564368 -76.19210657 108.43164471 -76.22631836 103.51757812 C-76.25919554 98.76483242 -76.27691208 94.01223873 -76.28463173 89.25938797 C-76.29012481 87.45672848 -76.30084956 85.65407619 -76.31719017 83.85148239 C-76.51706387 60.86387355 -71.48756879 40.59815032 -55.3515625 23.3828125 C-39.89623826 7.72210189 -22.14184629 0 0 0 Z "/><path fill="#0805F2" transform="translate(1288,188)" d="M0 0 C9.57 0 19.14 0 29 0 C29 49.17 29 98.34 29 149 C19.43 149 9.86 149 0 149 C0 99.83 0 50.66 0 0 Z "/><path fill="#0805F2" transform="translate(1312.3125,135.75)" d="M0 0 C5.19985271 4.35336506 7.46100416 7.94358906 8.5546875 14.625 C8.77599837 18.99914435 7.8945407 22.47062311 5.6875 26.25 C2.4582423 29.79176651 -1.00524656 33.07039344 -5.921875 33.453125 C-16.71474281 33.61421258 -16.71474281 33.61421258 -21.3125 30.25 C-26.9972252 24.42548648 -27.66423835 20.4486482 -27.59375 12.45703125 C-27.12012041 7.05633828 -24.72675756 4.58982295 -20.9375 1 C-14.06697371 -3.58035086 -7.25348396 -3.83202926 0 0 Z "/></svg>