<svg xmlns="http://www.w3.org/2000/svg" id="Layer_1" width="70" height="70" x="0" y="0" enable-background="new 0 0 70 70" version="1.1" viewBox="0 0 70 70" xml:space="preserve"><metadata/><rect width="70" height="70" fill="none"/><g><path fill="#EB272A" d="M22.3,3.6c3-0.8,6.1-1.2,9.2-1.4c-5.6,0.5-11.3,2-16,5.2c-3,2-5.6,4.6-6.9,8c-1.1,2.7-1.1,5.8-0.1,8.5 c1.2,3.3,3.7,5.9,6.5,7.9c2.4,1.7,5,2.9,7.8,3.8c2.8,0.9,5.7,1.801,8.2,3.4c1.6,1,3.1,2.3,4,4c0.6-1.3,1.6-2.3,2.8-3.2 c2.7-2,5.9-3,9-4.1c3.4-1.1,6.7-2.6,9.4-4.9c2.5-2,4.7-4.7,5.6-7.9c0.8-2.7,0.5-5.6-0.6-8.1C59.7,11.5,57.1,9,54.1,7.1 C49.4,4.2,43.9,2.7,38.5,2.2C43.8,2.5,49.1,3.7,54,5.7c3.1,1.3,6.1,3.1,8.7,5.4c2.1,1.9,3.899,4.2,5,6.8c0.899,2,1.2,4.2,1.1,6.4 c-0.1,2.7-1.1,5.3-2.6,7.6c-2,3-4.9,5.3-8.101,7.1c-1.899,1.1-3.899,2-6,2.8c-3,1.2-6,2.5-8.6,4.3C40.9,47.9,38.7,50.2,37.1,52.9 c-1,1.8-1.7,3.699-2.2,5.699c-0.8-3.6-2.6-7-5.1-9.6c-3.1-3.3-7.3-5.4-11.5-7c-3-1.1-6-2.5-8.7-4.4c-2.9-2-5.5-4.6-7-7.8 c-1.5-3.3-1.9-7.1-0.8-10.5c1.1-3.6,3.6-6.6,6.4-8.9C12.3,7,17.3,4.9,22.3,3.6z"/><path fill="#EB272A" d="M27.3,3.6c1-0.2,2-0.4,2.9-0.4c-3.7,0.5-7.3,1.6-10.5,3.6c-2.5,1.5-4.7,3.6-5.9,6.3c-1,2.3-1,4.9-0.1,7.2 c1,2.5,3,4.4,5.2,5.9c3.2,2.1,6.9,3.3,10.7,4.1c1.9,0.4,3.9,0.8,5.3,2.1c1.5-1.4,3.6-1.8,5.5-2.1c3-0.6,6-1.5,8.8-3 c2.5-1.3,4.8-3.2,6.3-5.7c1.3-2.2,1.7-5,0.9-7.4C55.6,11.7,53.8,9.6,51.8,8C48.7,5.6,45,4.3,41.2,3.5C40.7,3.4,40.1,3.3,39.6,3.3 C40.8,3.4,42,3.6,43.2,3.9c4,0.9,7.899,2.5,11.1,5.1c2.2,1.7,4,4,4.8,6.7c0.801,2.7,0.5,5.6-0.899,8c-1.5,2.6-3.9,4.6-6.4,6 c-2.1,1.2-4.399,2.2-6.8,3c-2.3,0.8-4.8,1.3-7.1,2.3c-1.2,0.5-2.4,1.3-3.101,2.5c-0.7-1.2-1.9-2-3.1-2.5c-2.6-1.1-5.3-1.6-7.9-2.5 c-3.6-1.3-7.1-3-9.9-5.6c-1.9-1.8-3.3-4.1-3.7-6.7c-0.4-2.4,0.2-4.9,1.5-7c1.2-2.1,3-3.8,5-5.1C20,5.7,23.6,4.4,27.3,3.6z"/><path fill="#EB272A" d="M21.3,7.1c2.3-1.4,4.8-2.4,7.4-2.9c-2.4,0.6-4.7,1.6-6.7,3c-1.7,1.3-3.2,2.9-3.8,5 c-0.6,1.9-0.4,3.9,0.5,5.7c1.3,2.4,3.5,4.1,5.9,5.3c4,1.9,8.6,2.5,13,2.1c3.7-0.4,7.4-1.5,10.4-3.8c1.9-1.4,3.5-3.4,3.9-5.8 c0.399-2.1-0.301-4.2-1.5-5.9C48.7,7.5,46.2,6,43.5,5c-0.8-0.3-1.6-0.5-2.4-0.7c2.101,0.4,4.2,1.2,6.2,2.2c2.4,1.3,4.601,3,5.8,5.4 c1,1.8,1.301,4.1,0.7,6.1c-0.6,2.3-2.2,4.1-4.1,5.5c-2.4,1.8-5.3,3-8.2,3.7c-1.6,0.4-3.3,0.5-5,0.9c-0.6,0.1-1.2,0.5-1.7,1 c-1-1.1-2.6-1.1-4-1.4C27.4,27.1,24,26,21,24c-2-1.3-3.8-3.1-4.7-5.3c-0.8-2-0.9-4.3,0-6.2C17.3,10.2,19.2,8.4,21.3,7.1z"/><path fill="#EB272A" d="M34.2,5.9c1.6-0.2,3.3,0.3,4.5,1.3c1.5,1.1,2.399,2.9,2.5,4.7c0.1,1.6-0.4,3.3-1.4,4.6 c-1.1,1.4-2.8,2.3-4.6,2.4c-1.7,0.1-3.4-0.5-4.6-1.6c-1.4-1.2-2.2-2.9-2.2-4.7c0-1.7,0.6-3.4,1.8-4.6C31.3,6.8,32.7,6.1,34.2,5.9z"/><path fill="#EB272A" d="M13.1,45.2c3.2-0.601,6.6,0,9.5,1.399c3.5,1.7,6.4,4.301,8.6,7.4c1.4,2,2.5,4.3,3.2,6.6 c-1.3-1.899-2.8-3.6-4.5-5.1c-2.2-2-4.8-3.8-7.7-4.7C20.3,50.2,18,50,16,50.6c-1.1,0.301-2.2,1-2.8,1.9c-0.6,0.8-0.8,1.9-0.5,2.9 c0.3,1.1,1.4,1.899,2.5,1.899c1.3,0.101,2.6-0.899,2.8-2.2c0.2-1.1-0.3-2.3-1.2-2.899c1.1,0.399,2.1,1.2,2.6,2.2 c0.9,1.6,0.9,3.6,0,5.199c-0.7,1.301-1.9,2.2-3.3,2.7C14.3,63,12.2,62.9,10.4,62.4c-1.9-0.601-3.6-1.9-4.6-3.5 c-1.2-1.9-1.6-4.4-1-6.601c0.5-1.899,1.6-3.6,3.1-4.8S11.2,45.6,13.1,45.2z"/><path fill="#EB272A" d="M50.7,45.4c2.6-0.601,5.3-0.5,7.8,0.399c1.7,0.5,3.3,1.5,4.4,2.8C64,49.9,64.8,51.5,65.1,53.2 c0.301,2.3-0.3,4.7-1.8,6.5c-2.3,2.899-6.6,4-10,2.5C51.9,61.6,50.6,60.5,50,59c-0.7-1.6-0.5-3.6,0.6-5 c0.601-0.8,1.4-1.4,2.301-1.8c-1,0.7-1.5,2.1-1.101,3.3c0.4,1.1,1.5,1.9,2.7,1.8c1.2,0,2.3-1,2.5-2.1c0.3-1.101-0.1-2.3-0.9-3.101 c-1-1.1-2.5-1.6-3.899-1.8c-2.101-0.2-4.3,0.2-6.3,1c-2.101,0.9-4,2.2-5.801,3.7c-1.899,1.7-3.6,3.5-5.1,5.6 c1.2-4.199,3.7-8,7-10.8C44.6,47.7,47.6,46.1,50.7,45.4z"/></g></svg>