<svg xmlns="http://www.w3.org/2000/svg" id="Layer_1" width="70" height="70" x="0" y="0" version="1.1" viewBox="0 0 70 70" xml:space="preserve" style="enable-background:new 0 0 70 70"><style type="text/css">.st0{fill:#00d66c}.st1{fill:#fff}</style><g id="Page-1"><g id="transavia-logo"><path id="Path" d="M68.3,35C68.3,16.6,53.8,2,35.4,2S2.4,16.6,2.4,35c0,18.4,14.6,33,33,33C53.8,68,68.3,53.4,68.3,35 L68.3,35L68.3,35z" class="st0"/><path id="Path_1_" d="M49.9,39.8h-1.9c-1.9,0-2.6,1-2.9,2.9c-0.5,3.5-3.2,5.9-6.9,5.9c-4.2,0-6.9-3.1-6.9-7.6V30.4 c0-0.4-0.1-0.8-0.2-1.1c0.4,0.2,0.9,0.3,1.4,0.3h9.7c1.9,0,2.9-1.1,2.9-2.9v-0.9c0-1.9-1.1-2.9-2.9-2.9h-5.5v-6 c0-1.9-1.1-2.9-2.9-2.9h-1.3c-1.9,0-2.9,1.1-2.9,2.9v9.7c0,0.4,0.1,0.8,0.2,1.1c-0.5-0.2-0.9-0.3-1.4-0.3h-9.7 c-1.9,0-2.9,1.1-2.9,2.9v0.9c0,1.9,1.1,2.9,2.9,2.9h5.5V41c0,8.5,5.5,14.5,14.1,14.5c8,0,13.3-5.1,14.3-12.8 C52.8,40.8,51.6,39.8,49.9,39.8L49.9,39.8z" class="st1"/></g></g></svg>