<svg xmlns="http://www.w3.org/2000/svg" id="Layer_1" width="70" height="70" x="0" y="0" enable-background="new 0 0 70 70" version="1.1" viewBox="0 0 70 70" xml:space="preserve"><metadata/><rect width="70" height="70" fill="none"/><path fill="#E92B28" d="M24.3,36.1c2,1.801,4.5,2.7,7,3.7c1.3,0.5,2.8,1.101,3.6,2.4c0.9-1.4,2.6-2,4.1-2.601 c2.9-1.1,5.8-2.399,7.8-4.899c1.4-1.7,1.9-4.1,1.4-6.2C47.6,26.1,46,24,43.9,22.6c1.1,1.2,2,2.6,2.399,4.1 c0.601,2,0.3,4.4-0.899,6.1C43.8,35.1,41.2,36.4,38.6,37.3c-1.3,0.5-2.699,0.8-3.7,1.7c-0.7-0.7-1.6-1-2.5-1.3 c-2.3-0.8-4.6-1.601-6.4-3.2c-1.6-1.3-2.6-3.3-2.7-5.3c-0.2-2.5,1.1-4.8,2.7-6.6c-0.8,0.6-1.7,1.3-2.3,2.1c-1.4,1.8-2.4,4.1-2.1,6.4 C21.7,33,22.8,34.8,24.3,36.1z M32.7,36c0.8,0.3,1.6,0.6,2.2,1.2c1.3-1.101,3.1-1.3,4.5-2.2c2.3-1.2,3.8-3.6,4-6.2 c0.3-2.8-0.7-5.5-2-8c-1.4-2.7-3-5.3-4-8.1c-1.2-3.2-2-6.5-2.601-9.8c-0.6,3.2-1.3,6.4-2.5,9.5c-0.9,2.4-2.1,4.7-3.4,6.9 c-1.3,2.4-2.6,4.9-2.8,7.7c-0.2,2.4,0.5,4.9,2.3,6.6C29.7,34.7,31.2,35.4,32.7,36z M33.9,29.6c1.3-0.6,2.9,0.2,3.3,1.5 c0.5,1.3-0.3,2.9-1.7,3.2c-1.2,0.4-2.7-0.4-3.1-1.6C32.1,31.5,32.7,30.1,33.9,29.6z M55.3,56.5c-0.8-2.3-1.5-4.7-2.8-6.7 s-3.1-3.7-5.3-4.5c-4.4-1.5-9.7,0-12.4,3.8c-2.7-3.8-8-5.3-12.4-3.8c-2.2,0.8-4.1,2.5-5.3,4.5c-1.3,2-2,4.4-2.8,6.7 c-0.7,1.8-1.4,3.8-2.8,5.2c-1.4,1.2-3.3,1.6-5.1,1.899C9.8,65.2,13.6,65.7,17.2,65.2c3.1-0.4,6.2-1.7,8.5-3.9 c1.8-1.7,3.1-3.899,4.1-6.2c0.5-1.3,0.8-2.699,1.7-3.8c0.6-0.899,1.6-1.399,2.7-1.6L34.1,49.6c-1.8-1.399-4.3-2-6.6-2 c-0.9,0-2,0.2-2.6,0.9c-0.5,0.5-0.5,1.4,0.1,1.8c0.6,0.4,1.6,0.2,1.8-0.5c0.1-0.5-0.2-0.8-0.5-1.1c0.5,0.2,1.1,0.5,1.3,1.1 c0.5,1-0.1,2.2-1.1,2.7c-1.2,0.7-2.9,0.4-3.8-0.6c-0.9-0.9-1-2.301-0.5-3.4c0.4-0.8,1.3-1.4,2.1-1.8c1.3-0.5,2.8-0.5,4.2-0.3 c1.7,0.3,3.3,1,4.6,2c0.4,0.3,0.7,0.8,1.2,1.1c0.1,0.1,0.2,0.2,0.2,0.2c0.1,0,0.2,0,0.3,0h0.1l0,0H35c0.1,0,0.2,0,0.3,0 c0.1-0.101,0.2-0.2,0.2-0.2c0.4-0.3,0.8-0.7,1.2-1.1c1.3-1.101,2.899-1.7,4.6-2c1.4-0.2,2.8-0.2,4.2,0.3c0.9,0.3,1.7,0.899,2.1,1.8 c0.601,1.1,0.4,2.5-0.5,3.4c-1,1-2.6,1.3-3.8,0.6c-1-0.5-1.5-1.7-1.1-2.7c0.2-0.6,0.8-0.899,1.3-1.1c-0.3,0.3-0.6,0.6-0.5,1.1 c0.2,0.7,1.2,1,1.8,0.5C45.4,49.9,45.4,49,44.9,48.5c-0.7-0.7-1.7-0.9-2.601-0.9c-2.3-0.1-4.7,0.5-6.6,2 C35.6,49.7,35.6,49.7,35.6,49.7c1.101,0.1,2.101,0.7,2.7,1.6c0.9,1.101,1.101,2.5,1.7,3.8c0.9,2.301,2.2,4.5,4.1,6.2 c2.301,2.2,5.301,3.5,8.5,3.9c3.7,0.5,7.5,0,10.801-1.601C61.6,63.3,59.7,63,58.3,61.7C56.7,60.3,56,58.3,55.3,56.5z M61.5,22.8 c-2.7-0.1-5.5,0.5-7.6,2.3c-1.9,1.7-2.9,4.1-3.4,6.5c-0.4,1.8-1.1,3.6-2.3,5.1c-1.4,1.8-3.4,3.1-5.5,4c-1.601,0.7-3.4,1.2-4.9,2.1 c-1.2,0.7-2.2,1.601-2.9,2.7c-1-1.7-2.8-2.8-4.6-3.6c-2.2-0.9-4.6-1.7-6.5-3.101c-1.7-1.2-3-2.899-3.7-4.9c-0.5-1.3-0.8-2.7-1.2-4.1 c-0.5-1.4-1.1-2.8-2.1-4c-1.4-1.7-3.5-2.6-5.6-2.9c-3.4-0.6-7,0.3-9.9,2.1c1.5,0.1,3,0.9,3.9,2.1c1,1.3,1.4,2.8,1.7,4.4 c0.5,1.8,1.1,3.7,2,5.3c1,1.7,2.4,3.3,4.1,4.3c2.8,1.7,6.1,2.2,9.3,2.301c1.8,0.1,3.6-0.2,5.5,0c2.7,0.3,5.5,1.3,7.2,3.5 c0.7-0.9,1.6-1.601,2.6-2.101c2.4-1.3,5.101-1.6,7.801-1.5c3.699,0.2,7.5-0.1,10.8-1.8c2.3-1.1,4.1-3,5.2-5.2c1-2,1.6-4.1,2.1-6.2 c0.4-1.4,1-2.8,2.2-3.8c0.899-0.8,2-1.2,3.2-1.3C66.5,23.8,64,22.9,61.5,22.8z"/></svg>