<svg xmlns="http://www.w3.org/2000/svg" id="Layer_1" width="70" height="70" x="0" y="0" enable-background="new 0 0 70 70" version="1.1" viewBox="0 0 70 70" xml:space="preserve"><metadata/><rect width="70" height="70" fill="none"/><circle cx="35.1" cy="34.8" r="32.1" fill="#FDDF00"/><path fill="#E03F26" d="M35.1,68.5c9,0,17.5-3.5,23.8-9.9C65.3,52.2,68.8,43.8,68.8,34.8S65.3,17.3,59,11 c-6.4-6.4-14.8-9.9-23.8-9.9C16.6,1.1,1.5,16.2,1.5,34.8c0,9,3.5,17.5,9.9,23.8C17.8,64.9,26.1,68.5,35.1,68.5L35.1,68.5z M3,34.8 c0-8.6,3.3-16.7,9.4-22.7C18.5,6,26.6,2.6,35.1,2.6c8.6,0,16.7,3.3,22.7,9.4c6.101,6.1,9.4,14.1,9.4,22.7 c0,17.7-14.4,32.1-32.1,32.1c-8.6,0-16.7-3.3-22.7-9.399C6.3,51.4,3,43.4,3,34.8L3,34.8z"/><path fill="#029049" d="M51.8,19.4H35.6c-1.3,0-2.8,0.9-3.5,2L25,34l1.9,3l2-3.5c0,0,1.2-2.9,5-2.9c3.7,0,12,0,12,0 c1.3,0,2.8-0.9,3.5-2l6-10.6C55.2,17.9,53.1,19.4,51.8,19.4L51.8,19.4z"/><path fill="#029049" d="M31.9,46.5c1.4,0,17.7,0,17.7,0c1.301,0,2.801-0.9,3.5-2l8-14c0,0-2.1,1.5-3.399,1.5h-21 c-1.3,0-2.8,0.9-3.5,2c0,0-6.1,10.6-7,12.1c-0.9,1.601-2.7,2-3.4,2c-2.8,0-5.6-1.699-5.6-5.1c0-5.1,7.8-3.6,7.8-3.6l-4-6.5 c0,0-8.8,0.2-8.8,9.9c0,9.7,9.9,10.8,9.9,10.8h34.2l3.101-5.5c0,0-27.101,0-28.5,0C30,48,29.8,46.5,31.9,46.5L31.9,46.5z"/></svg>