<svg xmlns="http://www.w3.org/2000/svg" version="1.1" id="Layer_1" x="0px" y="0px" width="70px" height="70px" viewBox="0 0 70 70" enable-background="new 0 0 70 70" xml:space="preserve"><path fill="#EC2527" d="M27.665,32.66c0.087-0.098,0.169-0.199,0.261-0.291   c0.436-0.436,0.85-0.897,1.315-1.299c0.626-0.541,1.141-0.515,1.838-0.051c0.183,0.123,0.345,0.299,0.471,0.482   c0.2,0.291,0.151,0.627-0.075,0.9c-0.356,0.432-0.831,0.652-1.356,0.797c-0.478,0.133-0.954,0.271-1.422,0.434   c-0.616,0.212-1.079,0.639-1.482,1.137c-0.812,1.006-1.502,2.086-1.973,3.295c-0.317,0.816-0.546,1.654-0.577,2.538   c-0.007,0.222-0.09,0.395-0.293,0.517c-0.332,0.198-0.665,0.387-1.047,0.476c-0.499,0.116-0.883-0.095-1.042-0.585   c-0.122-0.377-0.111-0.761-0.037-1.143c0.039-0.2,0.098-0.396,0.146-0.594c0.011-0.043,0.019-0.088-0.001-0.146   c-0.039,0.054-0.079,0.105-0.115,0.161c-0.517,0.779-1.073,1.526-1.745,2.181c-0.33,0.322-0.682,0.618-1.104,0.815   c-0.324,0.151-0.663,0.215-1.015,0.119c-0.486-0.131-0.721-0.492-0.837-0.951c-0.131-0.52-0.085-1.041,0.011-1.561   c0.181-0.981,0.525-1.912,0.924-2.822c0.446-1.014,0.919-2.018,1.379-3.025c0.018-0.041,0.035-0.082,0.067-0.158   c-0.215,0.043-0.399,0.076-0.582,0.117c-0.882,0.193-1.764,0.393-2.646,0.584c-0.104,0.023-0.154,0.08-0.17,0.174   c-0.151,0.834-0.313,1.668-0.445,2.504c-0.119,0.75-0.21,1.506-0.299,2.26c-0.088,0.741-0.153,1.484-0.239,2.227   c-0.032,0.279-0.072,0.562-0.149,0.832c-0.126,0.438-0.456,0.656-0.894,0.729c-0.688,0.115-1.12-0.25-1.363-0.766   c-0.177-0.375-0.255-0.775-0.275-1.186c-0.04-0.791,0.03-1.578,0.183-2.354c0.231-1.172,0.486-2.34,0.73-3.51   c0.01-0.053,0.016-0.106,0.028-0.186c-0.243,0.064-0.466,0.119-0.686,0.183c-1.037,0.302-2.072,0.607-3.109,0.909   c-0.111,0.031-0.182,0.09-0.233,0.195c-0.76,1.568-1.547,3.125-2.276,4.709c-0.562,1.221-1.065,2.471-1.571,3.717   c-0.359,0.885-0.679,1.785-0.89,2.72c-0.069,0.304-0.183,0.594-0.368,0.851c-0.249,0.345-0.595,0.483-0.999,0.359   c-0.746-0.229-1.244-0.707-1.389-1.494c-0.07-0.379,0.019-0.744,0.145-1.104c0.593-1.706,1.296-3.368,2.057-5.005   c0.523-1.126,1.085-2.236,1.629-3.354c0.028-0.057,0.048-0.117,0.086-0.213c-0.083,0.025-0.133,0.037-0.181,0.057   c-0.978,0.405-1.942,0.838-2.862,1.364c-0.51,0.292-1.074,0.154-1.362-0.237c-0.356-0.484-0.347-1.474,0.046-1.925   c0.15-0.173,0.352-0.332,0.562-0.42c1.095-0.456,2.195-0.904,3.307-1.321c0.729-0.272,1.48-0.485,2.219-0.73   c0.058-0.02,0.116-0.076,0.149-0.13c0.5-0.841,0.983-1.694,1.497-2.526c0.827-1.338,1.659-2.674,2.515-3.992   c0.631-0.973,1.293-1.927,1.963-2.873c0.894-1.262,1.824-2.498,2.903-3.609c0.287-0.295,0.613-0.552,0.936-0.809   c0.119-0.097,0.271-0.162,0.419-0.211c0.267-0.09,0.501-0.002,0.647,0.24c0.101,0.166,0.167,0.352,0.266,0.52   c0.139,0.233,0.27,0.478,0.444,0.684c0.372,0.44,0.431,0.933,0.26,1.45c-0.244,0.734-0.49,1.471-0.792,2.182   c-0.73,1.718-1.275,3.49-1.691,5.306c-0.117,0.506-0.245,1.008-0.367,1.513c-0.011,0.042-0.016,0.087-0.028,0.153   c0.236-0.037,0.449-0.072,0.663-0.104c0.659-0.102,1.319-0.203,1.979-0.297c0.666-0.094,1.332-0.184,1.998-0.266   c0.441-0.055,0.98,0.15,1.181,0.549c0.13,0.26,0.128,0.531,0.045,0.798c-0.055,0.175-0.135,0.345-0.219,0.509   c-0.605,1.191-1.225,2.375-1.816,3.572c-0.221,0.447-0.387,0.923-0.559,1.393c-0.054,0.147-0.062,0.318-0.062,0.478   c0,0.142,0.078,0.193,0.214,0.151c0.095-0.029,0.2-0.07,0.269-0.139c0.38-0.38,0.77-0.752,1.121-1.158   c0.992-1.151,1.81-2.428,2.537-3.756c0.361-0.66,0.621-1.375,0.921-2.068c0.033-0.074,0.047-0.162,0.051-0.244   c0.015-0.316,0.201-0.506,0.46-0.646c0.355-0.191,0.731-0.319,1.137-0.337c0.207-0.009,0.407,0.03,0.589,0.134   c0.26,0.147,0.407,0.421,0.342,0.715c-0.059,0.266-0.163,0.52-0.249,0.777c-0.012,0.038-0.03,0.074-0.046,0.11   C27.647,32.646,27.656,32.652,27.665,32.66z M16.987,24.877c-0.011-0.006-0.023-0.012-0.035-0.018   c-2.026,2.787-3.811,5.728-5.492,8.742c0.073,0.004,0.134-0.008,0.195-0.021c0.881-0.195,1.763-0.395,2.646-0.584   c0.105-0.023,0.145-0.067,0.17-0.163c0.159-0.6,0.318-1.2,0.487-1.798c0.512-1.816,1.066-3.619,1.736-5.383   C16.792,25.394,16.889,25.135,16.987,24.877z" clip-rule="evenodd" fill-rule="evenodd"/><path fill="#EC2527" d="M34.108,37.727c-0.166,0.066-0.3,0.113-0.427,0.174   c-0.748,0.361-1.493,0.725-2.238,1.09c-0.141,0.07-0.274,0.156-0.412,0.232c-0.5,0.277-1.085,0.104-1.31-0.42   c-0.175-0.408-0.241-0.846-0.14-1.292c0.106-0.468,0.428-0.747,0.839-0.939c1.75-0.821,3.562-1.479,5.411-2.04   c0.06-0.018,0.127-0.062,0.157-0.115c0.652-1.086,1.285-2.184,1.949-3.262c0.738-1.196,1.49-2.385,2.26-3.561   c0.903-1.379,1.845-2.73,2.854-4.033c0.663-0.855,1.335-1.703,2.131-2.44c0.247-0.229,0.529-0.421,0.808-0.611   c0.146-0.101,0.319-0.147,0.504-0.107c0.24,0.052,0.365,0.224,0.458,0.431c0.171,0.387,0.353,0.765,0.641,1.086   c0.35,0.389,0.397,0.854,0.248,1.332c-0.188,0.592-0.395,1.178-0.614,1.758c-0.298,0.789-0.646,1.561-0.916,2.359   c-0.298,0.887-0.541,1.793-0.785,2.695c-0.202,0.748-0.372,1.504-0.554,2.256c-0.012,0.047-0.012,0.096-0.018,0.15   c0.32-0.037,0.622-0.081,0.926-0.106c0.383-0.032,0.77-0.056,1.148,0.042c0.097,0.024,0.204,0.061,0.273,0.127   c0.075,0.07,0.155,0.18,0.157,0.275c0.007,0.273-0.042,0.547-0.174,0.793c-0.171,0.32-0.483,0.437-0.809,0.515   c-0.599,0.143-1.199,0.282-1.803,0.405c-0.166,0.033-0.227,0.125-0.253,0.265c-0.101,0.514-0.21,1.026-0.294,1.542   c-0.12,0.728-0.229,1.457-0.328,2.187c-0.088,0.656-0.157,1.315-0.233,1.974c-0.073,0.64-0.121,1.283-0.224,1.918   c-0.088,0.534-0.441,0.832-0.938,0.91c-0.65,0.103-1.064-0.217-1.284-0.6c-0.32-0.559-0.41-1.174-0.37-1.801   c0.044-0.679,0.118-1.357,0.223-2.03c0.112-0.732,0.269-1.458,0.416-2.185c0.086-0.422,0.191-0.841,0.285-1.262   c0.011-0.052,0.013-0.105,0.023-0.185c-0.322,0.087-0.622,0.162-0.919,0.249c-0.952,0.277-1.903,0.557-2.854,0.844   c-0.073,0.022-0.152,0.089-0.19,0.156c-0.808,1.458-1.518,2.965-2.187,4.49c-0.585,1.333-1.151,2.676-1.7,4.024   c-0.37,0.91-0.711,1.832-0.934,2.794c-0.055,0.235-0.161,0.466-0.279,0.679c-0.273,0.489-0.734,0.632-1.278,0.398   c-0.623-0.268-1.041-0.718-1.164-1.403c-0.061-0.34-0.031-0.678,0.09-1.001c0.355-0.95,0.679-1.915,1.089-2.843   c0.766-1.73,1.583-3.438,2.38-5.154c0.093-0.201,0.195-0.399,0.292-0.601C34.062,37.846,34.076,37.805,34.108,37.727z    M44.846,24.882c-0.012-0.007-0.023-0.014-0.036-0.021c-2.017,2.777-3.796,5.705-5.47,8.705c0.23-0.034,0.445-0.087,0.661-0.133   c0.716-0.152,1.434-0.301,2.149-0.452c0.073-0.016,0.146-0.021,0.176-0.125c0.316-1.144,0.619-2.292,0.967-3.426   c0.352-1.147,0.743-2.282,1.127-3.419C44.548,25.63,44.703,25.258,44.846,24.882z" clip-rule="evenodd" fill-rule="evenodd"/><path fill="#EC2527" d="M57.21,37.535c-0.145,0.208-0.286,0.418-0.434,0.625   c-0.614,0.861-1.318,1.642-2.142,2.31c-0.308,0.249-0.645,0.453-1.039,0.544c-0.827,0.189-1.437-0.22-1.569-1.058   c-0.099-0.624,0.011-1.229,0.179-1.827c0.228-0.81,0.547-1.586,0.922-2.338c0.442-0.888,0.909-1.765,1.348-2.655   c0.29-0.591,0.549-1.196,0.822-1.794c0.006-0.014,0.014-0.026,0.015-0.039c0.026-0.398,0.295-0.594,0.617-0.752   c0.401-0.195,0.808-0.318,1.259-0.183c0.537,0.16,0.816,0.529,0.754,1.06c-0.021,0.179-0.091,0.362-0.178,0.521   c-0.683,1.25-1.382,2.49-2.059,3.743c-0.291,0.537-0.604,1.069-0.773,1.663c-0.041,0.141-0.066,0.289-0.074,0.436   c-0.007,0.136,0.082,0.207,0.208,0.156c0.157-0.062,0.312-0.145,0.444-0.247c0.391-0.3,0.692-0.685,0.987-1.073   c1.054-1.391,2.091-2.794,3.162-4.172c0.776-0.999,1.64-1.922,2.685-2.653c0.434-0.304,0.886-0.577,1.415-0.691   c0.689-0.149,1.31,0.188,1.559,0.852c0.021,0.056,0.042,0.113,0.061,0.171c0.086,0.266,0.268,0.434,0.524,0.537   c0.188,0.076,0.374,0.166,0.551,0.268c0.434,0.25,0.533,0.57,0.313,1.02c-0.128,0.262-0.285,0.51-0.421,0.769   c-0.422,0.806-0.85,1.607-1.253,2.422c-0.155,0.313-0.296,0.643-0.292,1.007c0.004,0.355,0.276,0.544,0.582,0.365   c0.252-0.147,0.486-0.342,0.69-0.553c0.469-0.486,0.84-1.049,1.19-1.625c0.104-0.172,0.213-0.342,0.408-0.424   c0.079-0.033,0.166-0.061,0.252-0.066c0.32-0.02,0.517,0.213,0.396,0.51c-0.171,0.42-0.358,0.838-0.585,1.229   c-0.53,0.912-1.19,1.727-1.956,2.451c-0.529,0.502-1.117,0.922-1.843,1.104c-0.263,0.065-0.527,0.097-0.798,0.05   c-0.474-0.082-0.754-0.367-0.882-0.82c-0.027-0.102-0.055-0.206-0.083-0.309c-0.04-0.145-0.133-0.183-0.244-0.08   c-0.188,0.174-0.362,0.361-0.538,0.545c-0.389,0.408-0.799,0.79-1.281,1.086c-0.467,0.287-0.974,0.43-1.517,0.341   c-0.65-0.106-1.037-0.532-1.241-1.143c-0.13-0.387-0.126-0.785-0.114-1.185c0.001-0.027,0-0.056,0-0.082   C57.228,37.544,57.219,37.539,57.21,37.535z M59.784,37.258c0.012,0.005,0.023,0.009,0.035,0.014   c0.006,0.035,0.012,0.072,0.018,0.109c0.045,0.277,0.208,0.375,0.467,0.262c0.126-0.056,0.247-0.13,0.357-0.213   c0.465-0.348,0.833-0.791,1.179-1.253c0.735-0.979,1.338-2.039,1.864-3.142c0.2-0.418,0.363-0.852,0.526-1.285   c0.045-0.115,0.047-0.256,0.035-0.382c-0.017-0.187-0.159-0.278-0.337-0.216c-0.146,0.051-0.292,0.123-0.416,0.215   c-0.631,0.465-1.131,1.059-1.58,1.691c-0.734,1.037-1.362,2.135-1.854,3.307C59.959,36.654,59.882,36.96,59.784,37.258z" clip-rule="evenodd" fill-rule="evenodd"/><path fill="#EC2527" d="M46.829,42.146c-0.55-0.025-1.225-0.213-1.781-0.707   c-0.341-0.301-0.587-0.673-0.567-1.146c0.011-0.225,0.1-0.452,0.187-0.665c0.12-0.291,0.271-0.568,0.408-0.853   c0.004-0.009,0.008-0.017,0.013-0.026c0.212-0.378,0.501-0.391,0.777-0.053c0.4,0.492,0.891,0.866,1.504,1.057   c0.352,0.109,0.688,0.08,0.985-0.162c0.226-0.184,0.317-0.432,0.198-0.693c-0.113-0.251-0.261-0.492-0.429-0.711   c-0.36-0.471-0.649-0.968-0.755-1.561c-0.128-0.717-0.021-1.404,0.226-2.076c0.433-1.18,1.144-2.14,2.231-2.794   c0.882-0.53,1.818-0.593,2.782-0.267c0.296,0.1,0.543,0.283,0.726,0.541c0.192,0.271,0.235,0.563,0.137,0.885   c-0.126,0.406-0.352,0.746-0.644,1.045c-0.239,0.246-0.648,0.207-0.837-0.072c-0.111-0.165-0.217-0.335-0.334-0.496   c-0.218-0.298-0.52-0.396-0.872-0.33c-0.659,0.125-1.037,0.506-1.145,1.284c-0.085,0.626,0.117,1.155,0.508,1.636   c0.231,0.284,0.448,0.58,0.653,0.884c0.311,0.46,0.412,0.972,0.361,1.524c-0.047,0.508-0.144,1-0.357,1.465   c-0.293,0.639-0.751,1.129-1.33,1.52C48.854,41.795,47.73,42.154,46.829,42.146z" clip-rule="evenodd" fill-rule="evenodd"/><path fill="#EC2527" d="M25.294,28.049c-0.009,0.504-0.22,0.923-0.564,1.278   c-0.407,0.421-0.892,0.673-1.492,0.664c-0.678-0.009-1.18-0.6-1.081-1.272c0.141-0.955,0.958-1.735,1.92-1.797   C24.771,26.876,25.302,27.344,25.294,28.049z" clip-rule="evenodd" fill-rule="evenodd"/><path fill="#EC2527" d="M58.678,25.729c0.875,0.001,1.385,0.744,1.082,1.606   c-0.276,0.788-0.838,1.295-1.658,1.441c-0.879,0.158-1.459-0.418-1.4-1.208c0.027-0.348,0.154-0.657,0.359-0.936   c0.338-0.457,0.778-0.763,1.342-0.877C58.491,25.738,58.586,25.738,58.678,25.729z" clip-rule="evenodd" fill-rule="evenodd"/></svg>