<svg xmlns="http://www.w3.org/2000/svg" id="Layer_1" width="70" height="70" x="0" y="0" enable-background="new 0 0 70 70" version="1.1" viewBox="0 0 70 70" xml:space="preserve"><metadata/><rect width="70" height="70" fill="none"/><g id="g10" transform="matrix(1.25,0,0,-1.25,-355.64249,617.57738)"><g id="g72" transform="matrix(2.2133966,0,0,2.2133966,72.763169,-317.04835)"><g id="g74"><g id="g80"><g id="g82"><linearGradient id="path92_1_" x1="129.936" x2="130.516" y1="465.412" y2="465.412" gradientTransform="matrix(295.9131 170.8454 170.8454 -295.9131 -117866.6094 115865.6094)" gradientUnits="userSpaceOnUse"><stop offset="0" style="stop-color:#a61f24"/><stop offset=".5" style="stop-color:#dc1f2f"/><stop offset="1" style="stop-color:#dc1f2f"/></linearGradient><path id="path92" fill="url(#path92_1_)" d="M100.3,348.8l-4.3-4.4l0,0c15.1,0,18.6,3.5,20.7,8.4l0,0l1.7,4.5 C113.3,357.1,105.6,354.2,100.3,348.8"/></g></g></g></g><g id="g94" transform="matrix(2.2133966,0,0,2.2133966,72.763169,-317.04835)"><g id="g96"><g id="g102"><g id="g104"><linearGradient id="path114_1_" x1="129.831" x2="130.408" y1="465.806" y2="465.806" gradientTransform="matrix(198.6955 114.7168 114.7168 -198.6955 -79127.2188 78014.25)" gradientUnits="userSpaceOnUse"><stop offset="0" style="stop-color:#ec7523"/><stop offset=".85" style="stop-color:#face10"/><stop offset="1" style="stop-color:#face10"/></linearGradient><path id="path114" fill="url(#path114_1_)" d="M110.4,359l-4.9-4.9c4.6,3.3,9.3,5.3,13.9,5.9l0,0l1.1,2.9 C113.7,362.9,112.7,361.4,110.4,359"/></g></g></g></g></g><rect width="70" height="70" x="0" y="0" fill="none"/></svg>