<svg xmlns="http://www.w3.org/2000/svg" id="Layer_1" width="70" height="70" viewBox="0 0 156 156"><defs><style>.cls-1{fill:#c11f4d;}.cls-2{fill:#934516;}.cls-2,.cls-3,.cls-4,.cls-5,.cls-6{fill-rule:evenodd;}.cls-3{fill:#ffda00;}.cls-4{fill:#6f330f;}.cls-5{fill:#f2b900;}.cls-6{fill:#944b17;}</style></defs><path d="M29.94,80.72a2.45,2.45,0,0,1,.4,1.33,2.85,2.85,0,0,1,0,.31c0,.1,0,.19,0,.27a5.75,5.75,0,0,1-2,3.08c-1.14,1,4.81-1.91,3.51-1.26-.22.11,0,1.44-.18,1.58-2.83,1.84-4.41,3.33-13.52,4.21,1.45-2.11,2.56-3.7,2.56-3.7l8.12-4.43Z" class="cls-1"/><path d="M34.1,63.24a10.3,10.3,0,0,0-3.64-1.4,18,18,0,0,0-2-.29c-.67,0-1.25-.08-1.74-.08a26.3,26.3,0,0,0-3.11.19c-1.09.12-2.2.28-3.32.47l-1.09.22c-1.31.28-2.59.6-3.83.95a38,38,0,0,0-4.14,1.42A8.14,8.14,0,0,0,9,66.31a14.48,14.48,0,0,0-1.84,2.21,9.4,9.4,0,0,0-1,1.77,4.16,4.16,0,0,0-.35,1.48,1,1,0,0,0,.2.66.79.79,0,0,0,.66.25,2.38,2.38,0,0,0,.68-.12,6.52,6.52,0,0,0,.92-.37,6.59,6.59,0,0,1,1.39-.49c.55-.14,1.09-.26,1.64-.37l.47-.08.43-.08a15.3,15.3,0,0,0,2.7-.76c.71-.29.76-.78.16-1.47.63-.14,1.26-.29,1.88-.45s1.27-.34,1.92-.54l.27-.07,1.27-.32L22,67.17c1-.22,2-.41,3-.58a19.15,19.15,0,0,1,3-.25,4.35,4.35,0,0,1,.61,0q.33,0,.66.12a5.53,5.53,0,0,1,1.74.7,1.42,1.42,0,0,1,.8,1.2,1.41,1.41,0,0,1-.14.58,2.6,2.6,0,0,1-.47.62A11.38,11.38,0,0,1,27.26,72a24.65,24.65,0,0,1-6.35,1.4c.21-.26.44-.53.7-.82s.55-.62.82-1a4,4,0,0,0,.29-.31L23,71a17.33,17.33,0,0,0,1.27-1.69A2.65,2.65,0,0,0,24.77,68a11.3,11.3,0,0,0-3.91,1.36,18.9,18.9,0,0,0-1.68,1.14c-.36.28-.7.56-1,.84-.55.52-1,1-1.45,1.51a13.56,13.56,0,0,1-1.25,1.26.08.08,0,0,0-.06,0l0,0a23.06,23.06,0,0,0-4.73.82,5,5,0,0,0-2.11,1.11,1.45,1.45,0,0,0-.18.31.81.81,0,0,0-.06.31c0,.44.36.83,1.08,1.18a5.47,5.47,0,0,0,2.48.48L8.32,83.59a7.44,7.44,0,0,0-.64,1.3,3.82,3.82,0,0,0-.23,1.26,3.72,3.72,0,0,0,1.9,3.13,8.9,8.9,0,0,0,5.47,1.28,40.43,40.43,0,0,0,4.36-.43,17.07,17.07,0,0,0,9.56-4.34,6,6,0,0,0,2-3c0-.08,0-.17,0-.27a3,3,0,0,0,0-.31q0-1.82-2.85-3.34-2.55-1.36-8.76-2l-1.5-.14.62-.62.88-.11,2.31-.31a35.07,35.07,0,0,0,3.6-.7,25.84,25.84,0,0,0,7.31-3,6.28,6.28,0,0,0,3.34-5.67A3.42,3.42,0,0,0,34.1,63.24ZM18.83,79.08l.35,0,1.13.16a29.06,29.06,0,0,1,3.91.78c1.19.33,1.78.81,1.78,1.44a1.11,1.11,0,0,1-.12.49,2.4,2.4,0,0,1-.45.58,8.22,8.22,0,0,1-1.15.89,10.76,10.76,0,0,1-1.23.68,13.34,13.34,0,0,1-1.72.66c-.7.21-1.43.44-2.15.6l-.18,0a6.8,6.8,0,0,1-1,.14l-.65.06-.66,0a7.69,7.69,0,0,1-3-.56c-.87-.37-1.31-.9-1.31-1.59a1.85,1.85,0,0,1,.18-.74,4,4,0,0,1,.59-.91l2.91-3.26v0l.67.1c.23,0,.47.08.72.1A8.21,8.21,0,0,0,18.83,79.08Z" class="cls-1"/><path d="M56.29,77.83c-.33,0-.66,0-1,0s-.64,0-1,0l-1,.1a7.34,7.34,0,0,0-1,.19A29.38,29.38,0,0,1,54,75.52a9.77,9.77,0,0,1,1.46-1.68,4.62,4.62,0,0,1,2.08-1,14.25,14.25,0,0,1,2.66-.21,11.05,11.05,0,0,1,1-1.66,7.23,7.23,0,0,1,1.12-1.15A3.87,3.87,0,0,1,63.57,69a3.19,3.19,0,0,1,1.1-.23,1.65,1.65,0,0,1,1,.29A1,1,0,0,1,66,70a2.47,2.47,0,0,1-.37,1.15,7,7,0,0,1-1.21,1.45l2.62.29c-.22.5-.44,1-.64,1.38s-.41.8-.6,1.13a6.65,6.65,0,0,1-1.68,2A4.34,4.34,0,0,1,61.6,78a7.83,7.83,0,0,1-.81,0l-.89-.08a38.67,38.67,0,0,0-2.7,4.86,8.06,8.06,0,0,0-.83,2.85,1.31,1.31,0,0,0,.27.92,1,1,0,0,0,.77.29,6.52,6.52,0,0,0,3-1.19,28.34,28.34,0,0,0,4-3.12l.33,1.93-.58.65c-.19.21-.4.43-.62.65-.64.61-1.32,1.22-2.06,1.82a27.26,27.26,0,0,1-2.26,1.66,16.2,16.2,0,0,1-2.58,1.38,6.12,6.12,0,0,1-2.33.55l-.35,0c-.12,0-.24,0-.35-.06a2.26,2.26,0,0,1-1.6-.88,2.84,2.84,0,0,1-.44-1.56c0-.17,0-.33,0-.48a4.49,4.49,0,0,1,.06-.48A7.91,7.91,0,0,1,52,86.56c.11-.35.22-.68.33-1A4.23,4.23,0,0,1,52.5,85l.21-.5-2.29,1.63-.67-1.48a23.72,23.72,0,0,0,5-4.63,10.09,10.09,0,0,0,1.5-2.1Z" class="cls-1"/><path d="M67.43,83.73a3.35,3.35,0,0,0-.06.36,1.56,1.56,0,0,0,0,.31,1.72,1.72,0,0,0,.54,1.36,2.11,2.11,0,0,0,1.45.48,6,6,0,0,0,2.83-.8,15.87,15.87,0,0,0,3.7-2.85L76,84.72c-.28.34-.59.69-.94,1.07s-.73.76-1.14,1.15-.92.84-1.44,1.26a18,18,0,0,1-1.52,1.13,8.72,8.72,0,0,1-1.81,1,4.54,4.54,0,0,1-1.68.36H67.1a3,3,0,0,1-2.56-1.59,6.94,6.94,0,0,1-.81-3.14v-.25a8.76,8.76,0,0,1,.13-1.55,7.5,7.5,0,0,1,.33-1.34c.17-.42.36-.86.58-1.32a11.73,11.73,0,0,1,.79-1.4,18.34,18.34,0,0,1,1.12-1.51,10.23,10.23,0,0,1,1.41-1.38l.23-.17.23-.17a13.85,13.85,0,0,1,1.29-.92,2.66,2.66,0,0,1,1.45-.42,3.88,3.88,0,0,1,.67.06,2.33,2.33,0,0,1,.71.27,1.15,1.15,0,0,1,.48.4,1,1,0,0,1,.15.56,2.82,2.82,0,0,1-.42,1.34,11.67,11.67,0,0,1-1,1.55c-.25.31-.51.6-.77.88s-.53.56-.81.84a18.82,18.82,0,0,1-1.68,1.53,8.52,8.52,0,0,1-1.14.82v0Zm5.32-13a5,5,0,0,1,.41-.4,4.73,4.73,0,0,1,1-.63,2.45,2.45,0,0,1,1-.21,1.72,1.72,0,0,1,1.19.44,1.67,1.67,0,0,1,.52,1.19,2.6,2.6,0,0,1-.15.82,4.19,4.19,0,0,1-.48.94,5.21,5.21,0,0,1-.6.8,3.47,3.47,0,0,1-.64.54,3.17,3.17,0,0,1-.77.44,2.07,2.07,0,0,1-.73.15,1.64,1.64,0,0,1-1.23-.5,2,2,0,0,1-.52-1.3,2.77,2.77,0,0,1,.15-.84,3.37,3.37,0,0,1,.85-1.44" class="cls-1"/><path d="M96.25,82.48l-.77.67-.81.71L93.28,85a11.14,11.14,0,0,1-1.48,1,10.54,10.54,0,0,1-1.62.8,4.32,4.32,0,0,1-1.54.29,2.71,2.71,0,0,1-1.39-.38L87,86.51a3.45,3.45,0,0,1-.89-1.07c.26-.16.56-.33.89-.51l.58-.3,1.83-.94q.91-.5,1.77-1a8.49,8.49,0,0,0,1.48-1.17c.11-.11.24-.26.4-.44s.31-.38.48-.61a9.72,9.72,0,0,0,.62-1.11A5.49,5.49,0,0,0,94.6,78a.77.77,0,0,0,0-.27v-.31A2.53,2.53,0,0,0,94.2,76a2.64,2.64,0,0,0-1.83-1.17h-.1a2.43,2.43,0,0,0-.75.11l-.75.23a7.66,7.66,0,0,0-1,.5l-1,.59L87.65,77l-.62.42c-.46.32-.92.64-1.37,1l-1.12.88c-.14.11-.27.22-.4.31s-.24.2-.35.31c-1,.81-2,1.6-3,2.37L78.26,84.4v-.63c.67-.84,1.76-2,3.29-3.6s3.13-3.2,4.82-4.9l.67-.66q2.08-2.08,4-4,2.2-2.27,3.28-3.6a16.35,16.35,0,0,0,1.25-2,2.74,2.74,0,0,0,.37-1.38.86.86,0,0,0-.21-.63.9.9,0,0,0-.66-.21A3,3,0,0,0,94,63a7.87,7.87,0,0,0-1.35.69A48.91,48.91,0,0,0,87,68c-.83.74-1.66,1.52-2.47,2.33a59.27,59.27,0,0,0-7.92,10.16,5.55,5.55,0,0,0-.73,1.72,12.83,12.83,0,0,0-.31,2,2.19,2.19,0,0,0,0,.46v.46a11,11,0,0,0,.5,3.2c.31.93.71,1.4,1.21,1.4a.91.91,0,0,0,.5-.17,2.14,2.14,0,0,0,.5-.5c.25-.34.49-.65.73-.94s.48-.58.73-.86.43-.57.62-.86a10.52,10.52,0,0,0,.54-.94c.55.73,1,1.41,1.5,2s.87,1.21,1.29,1.72a5.86,5.86,0,0,0,1.39,1.24,3.15,3.15,0,0,0,1.64.44l.33,0a9.43,9.43,0,0,0,3.58-1.46,46,46,0,0,0,6.32-5ZM84.81,84.11a2.22,2.22,0,0,0-.58-.71,2,2,0,0,0-1-.29A36.41,36.41,0,0,1,87,80.67l.85-.44a8,8,0,0,1,2.68-.94.41.41,0,0,1,.27.06.2.2,0,0,1,.06.15q0,.42-1.44,1.59A25.63,25.63,0,0,1,87,82.79C86.37,83.2,85.63,83.64,84.81,84.11Z" class="cls-1"/><path d="M128.87,80.78c-.24.24-.57.53-1,.88s-.86.71-1.34,1.08l-.72.52-.72.52a16.5,16.5,0,0,1-2,1.13,3.84,3.84,0,0,1-1.57.47.48.48,0,0,1-.18,0l-.18-.08a1.4,1.4,0,0,1-.54-.54,1.46,1.46,0,0,1-.18-.7,2.37,2.37,0,0,1,0-.44c0-.16.07-.32.1-.49a7.11,7.11,0,0,1,.34-.8,6.07,6.07,0,0,1,.75-1.16l.26-.36c.79-1,1.51-1.89,2.14-2.58a2.93,2.93,0,0,0,1-1.86,1.67,1.67,0,0,0-.41-1,4.67,4.67,0,0,0-1.36-1h.26a1.47,1.47,0,0,0,1.11-.41,1.16,1.16,0,0,0,.34-.93,1.2,1.2,0,0,0,0-.28.78.78,0,0,0-.08-.23,3.08,3.08,0,0,0-1.21-1.24,4.67,4.67,0,0,0-2.5-.57,12.59,12.59,0,0,0-1.32.08,7.54,7.54,0,0,0-1.52.34,22,22,0,0,0-2.61.72c-.91.31-1.85.67-2.81,1.09l-.13.06a29.91,29.91,0,0,0-6.35,3.89,11,11,0,0,0-3.9,5.24,6.36,6.36,0,0,0-.16.7,5.24,5.24,0,0,0,0,.7,3.49,3.49,0,0,0,0,.44,3.11,3.11,0,0,0,.08.44,7.84,7.84,0,0,0,1.34,3.33,6.21,6.21,0,0,0,2.37,2.19,2.52,2.52,0,0,0,.62.21,4.32,4.32,0,0,0,.62,0A2.64,2.64,0,0,0,108,90a1.19,1.19,0,0,0,.57-.33l4.21-3.35,3.9-3.1a30.29,30.29,0,0,0-1,3.18,10.36,10.36,0,0,0-.34,2.35,2.69,2.69,0,0,0,.62,2,2.18,2.18,0,0,0,1.6.62,7.7,7.7,0,0,0,3.33-1,23.39,23.39,0,0,0,4-2.63c.83-.69,1.65-1.45,2.48-2.27a24.1,24.1,0,0,0,2.32-2.69Zm-9.35-4.91c-.52.52-1.2,1.18-2,2s-1.73,1.64-2.66,2.5c-.28.24-.53.47-.77.7l-.72.65-.54.45c-1.14,1-2.24,1.79-3.28,2.51a5.69,5.69,0,0,1-2.74,1.26.67.67,0,0,1-.44-.15.77.77,0,0,1-.23-.52.59.59,0,0,1,0-.23v-.22a2.24,2.24,0,0,1,.21-.93,6.2,6.2,0,0,1,.52-.93,11.9,11.9,0,0,1,3.1-2.74,33.61,33.61,0,0,1,2.92-1.69c.47-.24.94-.47,1.42-.68,1-.45,1.9-.84,2.81-1.16s1.75-.61,2.5-.85v0Z" class="cls-1"/><path d="M131.1,83.76a3.35,3.35,0,0,0-.06.36,3,3,0,0,0,0,.31,1.72,1.72,0,0,0,.54,1.36,2.13,2.13,0,0,0,1.47.48,5.76,5.76,0,0,0,2.85-.8,14.48,14.48,0,0,0,3.48-2.64l.34,1.93c-.28.33-.59.69-.94,1.07s-.73.76-1.15,1.15-.93.84-1.44,1.26-1,.8-1.53,1.13a8.78,8.78,0,0,1-1.82,1,4.6,4.6,0,0,1-1.7.36h-.32a3.05,3.05,0,0,1-2.58-1.59A6.82,6.82,0,0,1,127.4,86v-.25a9.83,9.83,0,0,1,.12-1.55,6.71,6.71,0,0,1,.34-1.34c.17-.42.36-.86.59-1.32a11.85,11.85,0,0,1,.8-1.4,18,18,0,0,1,1.13-1.51,9.78,9.78,0,0,1,1.42-1.38l.23-.17.23-.17a14.55,14.55,0,0,1,1.3-.92,2.73,2.73,0,0,1,1.47-.42,3.79,3.79,0,0,1,.67.06,2.33,2.33,0,0,1,.71.27,1.15,1.15,0,0,1,.48.4,1,1,0,0,1,.15.57,2.82,2.82,0,0,1-.42,1.34,11.79,11.79,0,0,1-1.05,1.55c-.25.31-.51.6-.77.88l-.82.84a18.9,18.9,0,0,1-1.7,1.53,9.45,9.45,0,0,1-1.15.82v0ZM136,71.24l.42-.44a3.87,3.87,0,0,1,.42-.4,4.56,4.56,0,0,1,1.05-.63,2.53,2.53,0,0,1,1-.21,1.72,1.72,0,0,1,1.19.44,1.63,1.63,0,0,1,.52,1.19,2.6,2.6,0,0,1-.15.82A4.19,4.19,0,0,1,140,73a5.28,5.28,0,0,1-.61.79,2.91,2.91,0,0,1-.65.54,2.87,2.87,0,0,1-.77.44,2.11,2.11,0,0,1-.73.15,1.64,1.64,0,0,1-1.23-.5,1.92,1.92,0,0,1-.52-1.3,2.77,2.77,0,0,1,.15-.84,5.06,5.06,0,0,1,.44-1v0Z" class="cls-1"/><path d="M147.2,80.16l-2.66.54c-.8.17-1.45.32-1.95.46a4.91,4.91,0,0,1-.69,1c-.32.39-.68.81-1.07,1.26s-.54.64-.83,1a11.18,11.18,0,0,1-1.05,1c-.36.32-.68.62-.93.81l-.71-1.68A10.28,10.28,0,0,0,139.09,83a9.12,9.12,0,0,0,1.19-1.51,2,2,0,0,1-.82-.67,1.59,1.59,0,0,1-.27-.88,3.12,3.12,0,0,1,.21-1.07,5.73,5.73,0,0,1,.55-1.11,11.56,11.56,0,0,1,.94-1.3,13,13,0,0,1,1.74-1.74q.33-.27.63-.48l.08-.06.13-.06.4-.1.44-.11h.25a.87.87,0,0,1,.82.4c.15.27-.12.79-.82,1.57a8.1,8.1,0,0,0,1.05-.17l1.21-.25c.2,0,.39-.06.59-.11a15.39,15.39,0,0,1,1.65-.29,9,9,0,0,1,1-.06,4.35,4.35,0,0,1,1.55.25,1.3,1.3,0,0,1,.84,1,2.36,2.36,0,0,1,.1.57c0,.18,0,.36,0,.52a3.18,3.18,0,0,1-.56,1.93,10,10,0,0,1-1.4,1.47l-.71.54-.75.59a4.08,4.08,0,0,0-.32.38,6.65,6.65,0,0,0-.4.59l-.27.54a6.28,6.28,0,0,0-.27.59,5.46,5.46,0,0,0-.21.61,2,2,0,0,0-.08.56,1.05,1.05,0,0,0,.29.73,1.26,1.26,0,0,0,1,.31,3,3,0,0,0,1.3-.4,17.16,17.16,0,0,0,1.68-1,7.87,7.87,0,0,0,.9-.65c.29-.24.58-.48.86-.73s.44-.4.65-.61a4.58,4.58,0,0,0,.52-.61l.34,1.59a27.25,27.25,0,0,1-5.07,5,7.25,7.25,0,0,1-3.9,1.63,2.34,2.34,0,0,1-1.86-.71,3.91,3.91,0,0,1-.88-3.81,10.82,10.82,0,0,1,.48-1.26,12.76,12.76,0,0,1,.9-1.51c.35-.5.71-1,1.07-1.43.22-.28.46-.55.69-.82s.45-.5.65-.69v0Z" class="cls-1"/><path d="M52.59,82.32c-.23.22-.74.64-1.08.91s-.69.55-1.08.85l-.58.43-.58.4a13.5,13.5,0,0,1-1.6.92,3.09,3.09,0,0,1-1.27.38l-.15,0-.15-.06a1.16,1.16,0,0,1-.59-1,1.59,1.59,0,0,1,0-.36c0-.13.05-.26.08-.4s.17-.44.27-.65.2-.41.31-.61a2.86,2.86,0,0,0,.29-.33l.21-.29c.64-.84,1.21-1.53,1.73-2.1a2.4,2.4,0,0,0,.77-1.51,1.36,1.36,0,0,0-.33-.84,3.92,3.92,0,0,0-1.09-.84H48a1.12,1.12,0,0,0,.89-.34.91.91,0,0,0,.27-.75,1.64,1.64,0,0,0,0-.23,1.06,1.06,0,0,0-.06-.19,2.44,2.44,0,0,0-1-1,3.75,3.75,0,0,0-2-.46,10,10,0,0,0-1.06.06,16.81,16.81,0,0,0-3.33.86c-.74.25-1.49.54-2.27.88l-.11,0a24,24,0,0,0-5.11,3.16,8.92,8.92,0,0,0-3.14,4.25,3.06,3.06,0,0,0-.12.57,3.48,3.48,0,0,0,0,.57c0,.11,0,.23,0,.36a2.08,2.08,0,0,0,.06.36A6.41,6.41,0,0,0,32.06,88,5,5,0,0,0,34,89.82a2,2,0,0,0,.5.17,2.81,2.81,0,0,0,.5,0,2.14,2.14,0,0,0,.5-.06,1,1,0,0,0,.46-.27L39.32,87l3.14-2.52A24.28,24.28,0,0,0,41.65,87a8.22,8.22,0,0,0-.27,1.9,2.18,2.18,0,0,0,.5,1.59,1.71,1.71,0,0,0,1.29.5,6.14,6.14,0,0,0,2.68-.8,18.5,18.5,0,0,0,3.22-2.14c.67-.56,1.33-1.17,2-1.84a19.68,19.68,0,0,0,1.87-2.18Zm-7.82-3.81c-.42.42-1,1-1.64,1.61s-1.39,1.33-2.14,2c-.22.2-.43.38-.62.57s-.39.36-.58.52l-.44.37q-1.38,1.15-2.64,2a4.62,4.62,0,0,1-2.2,1,.48.48,0,0,1-.35-.13c-.38-.32-.23-1.18-.06-1.55a4.71,4.71,0,0,1,.42-.75A9.73,9.73,0,0,1,37,82c.76-.49,1.54-1,2.35-1.37l1.15-.56c.77-.36,1.53-.68,2.27-.94s1.41-.5,2-.69v0Z" class="cls-1"/><path d="M9.47,92.11l.28.06a21.32,21.32,0,0,0,3.5-6c1.31-3.57-.11-.39-.11-.39l-.62,1.45-.71,1.49-.64,1.14-.65,1-.7,1Z" class="cls-2"/><path d="M26.67,58.26l-.23-.06c-.06,0-.08.08-.47.57L20.66,66l-5.52,7.46-5.89,8L9,81.82a1.84,1.84,0,0,0-1.66,1.84c.11.53-.63.6-.63.6A6.71,6.71,0,0,0,3.33,86a7.24,7.24,0,0,0-1.64,5.27,16.34,16.34,0,0,0,1.05,5,1,1,0,0,1,.09.79L2,98.28a1.37,1.37,0,0,0-.15,1,1.12,1.12,0,0,0,.55.73s.57.21.63-.49a1.87,1.87,0,0,1-.23-.19s-.22-.23-.16-.44A4.61,4.61,0,0,1,3,98.2a7.38,7.38,0,0,1,1.35-1.67c.63-.46,1-.81,1-.81A26.19,26.19,0,0,0,9.2,92c.54-1.1.42-1.5.42-1.5l4.83-8L29.84,61.8l-.26-1.54-.95-1.07-1.56-.82Z" class="cls-2"/><path d="M30.29,61.19c-1,1.84-2.65,4.15-2.65,4.15L14.31,84,13.1,86.15s-1.61,4-3.57,6a.87.87,0,0,1-.3-.13,39.55,39.55,0,0,1-4.91,4.35,6.88,6.88,0,0,0-1.77,2.48.74.74,0,0,0,.36.73.31.31,0,0,1-.41.31,1.16,1.16,0,0,1-.34-1.53A10.75,10.75,0,0,1,3,97a1.36,1.36,0,0,0-.08-.83,15.25,15.25,0,0,1-1-5.51c.07-2.33.74-5.43,4.81-6.2,1.14-.17.87-.9.87-.9A1.59,1.59,0,0,1,9.21,82c.09-.2.25-.52.25-.52l17-23s3,.46,3.83,2.72" class="cls-3"/><path d="M7.14,85.33c1.24.51,1.47,2.26.51,3.9s-2.74,2.55-4,2S2.19,89,3.15,87.37s2.75-2.55,4-2" class="cls-4"/><path d="M28.89,59.5c-.74.8-5.79,7.88-5.79,7.88L12.5,81.92a2.53,2.53,0,0,0-2.11.12,2.6,2.6,0,0,1,2.47,2.52,12.77,12.77,0,0,0,.74-2.15l1.16-2.13-.5,2,4.29-4.86L22.65,72l7.47-10.19s-.78-2.06-1.23-2.28" class="cls-5"/><path d="M26.54,58.24c-.2,0-.83,1.06-1.07,1.26L22.93,63l1.24-1.37,1-1.3,1.35-1.77s3.37.73,2.85,2.81c-1.38,2.39-5.77,8.24-6,8.5l-8.85,12a8.67,8.67,0,0,1,1.36-3.13s-2.23,2.36-2.6,4.59-.5,3.19-.57,3.81a27.37,27.37,0,0,1,1.76-3.37l3.64-5,9.3-12.46,2.79-3.76a1.49,1.49,0,0,0,.09-1.92,6.44,6.44,0,0,0-3.77-2.36" class="cls-2"/><path d="M11.44,84.74c-.9-.4-2.65,1.19-2.65,1.19h.84s1.21-1.12,1.81-1.19" class="cls-5"/><path d="M5.29,92s-.77,1.8-.35,2.67.45-1.31.45-1.31Z" class="cls-5"/><path d="M10.68,85.74c.17-.33,1-2.5-1.49-2.34a2.19,2.19,0,0,1,2.45.55s1.29,1.44-.15,4.64a19.6,19.6,0,0,1-6.27,7.24,11.27,11.27,0,0,0,.37-3.91,2.84,2.84,0,0,1-1.14-.15s3.94-.12,4.19-4.71a2.64,2.64,0,0,0,2-1.32" class="cls-6"/><path d="M31.78,68.66a1.09,1.09,0,0,0,0-.26,1.42,1.42,0,0,0-.8-1.2,5.53,5.53,0,0,0-1.74-.7,5.09,5.09,0,0,0-.66-.12,4.45,4.45,0,0,0-.61,0,18,18,0,0,0-3,.25c-1,.17-2,.36-3,.58l-1.54.39L18.9,68,17,68.49c-.63.16-1.26.32-1.88.45.6.69.55,1.18-.16,1.46a15.3,15.3,0,0,1-2.7.76l-.43.08-.47.08c-.55.11-1.09.23-1.64.37a6.37,6.37,0,0,0-1.39.5,6.52,6.52,0,0,1-.92.37,2.32,2.32,0,0,1-.68.12.8.8,0,0,1-.66-.25,1,1,0,0,1-.2-.66,4.21,4.21,0,0,1,.35-1.49,9.1,9.1,0,0,1,1-1.77A14.48,14.48,0,0,1,9,66.3a8.14,8.14,0,0,1,2.21-1.59,35.1,35.1,0,0,1,4.13-1.42c1.58-.45,3.22-.85,4.91-1.18,1.12-.19,2.22-.35,3.32-.47a28.62,28.62,0,0,1,3.11-.19c.49,0,1.07,0,1.74.08a18.37,18.37,0,0,1,2,.29,10.54,10.54,0,0,1,3.65,1.4,3.42,3.42,0,0,1,1.64,3.09A6.29,6.29,0,0,1,35,69.37Z" class="cls-1"/></svg>