<svg xmlns="http://www.w3.org/2000/svg" id="Layer_1" width="70" height="70" x="0" y="0" enable-background="new 0 0 70 70" version="1.1" viewBox="0 0 70 70" xml:space="preserve"><path fill="#272870" fill-rule="evenodd" d="M27.543,63.925c-0.167,0.042-0.336,0.047-0.507,0.047 c-8.549-0.002-17.099-0.002-25.647,0c-0.129,0-0.262-0.03-0.387,0.028c0-19.465,0-38.928,0-58.392c3.065,0,6.129,0,9.194,0 c0.062,0.117,0.158,0.208,0.251,0.3c1.232,1.231,2.451,2.476,3.699,3.691c2.307,2.249,4.55,4.562,6.853,6.814 c2.154,2.105,4.251,4.267,6.408,6.37c2.231,2.177,4.4,4.417,6.632,6.592c2.186,2.129,4.311,4.317,6.493,6.45 c0.786,0.77,1.563,1.547,2.348,2.318c0.075,0.072,0.164,0.133,0.2,0.238c-0.057,0.232-0.275,0.266-0.446,0.34 c-1.899,0.846-3.663,1.912-5.256,3.251c-0.784,0.657-1.491,1.388-2.087,2.223c-0.769,1.076-0.812,2.238-0.391,3.438 c0.331,0.939,0.898,1.743,1.578,2.462c0.475,0.504,0.985,0.974,1.416,1.521c1.316,1.665,1.408,3.282,0.245,5.063 c-0.756,1.156-1.791,2.045-2.873,2.874c-2.129,1.632-4.47,2.909-6.881,4.065C28.113,63.749,27.838,63.867,27.543,63.925z" clip-rule="evenodd"/><path fill="#1D6C36" fill-rule="evenodd" d="M44.212,39.521c0.579,0.569,1.159,1.134,1.735,1.706 c5.795,5.758,11.586,11.52,17.379,17.279c1.737,1.726,3.478,3.448,5.214,5.172c0.061,0.062,0.155,0.106,0.137,0.219 c-0.072,0.092-0.169,0.053-0.254,0.053c-12.543,0-25.083,0-37.627-0.005c-0.325,0-0.654,0.049-0.978-0.03 c0.048-0.222,0.251-0.254,0.409-0.324c2.187-0.979,4.341-2.022,6.435-3.188c2.038-1.134,4.041-2.32,5.82-3.846 c0.837-0.719,1.61-1.499,2.17-2.462c0.705-1.218,0.883-2.461-0.127-3.725c-0.355-0.446-0.8-0.787-1.278-1.091 c-0.75-0.477-1.521-0.918-2.241-1.444c-1.429-1.041-1.868-2.467-1.227-4.108c0.504-1.293,1.425-2.239,2.501-3.059 c0.479-0.364,0.972-0.711,1.497-1.009C43.913,39.583,44.038,39.481,44.212,39.521z" clip-rule="evenodd"/><path fill="#FCB814" fill-rule="evenodd" d="M44.212,39.521c-1.213,0.687-2.355,1.466-3.285,2.52 c-0.591,0.666-1.028,1.417-1.243,2.287c-0.264,1.058-0.037,1.995,0.7,2.803c0.546,0.596,1.216,1.029,1.897,1.448 c0.59,0.362,1.205,0.688,1.735,1.141c0.671,0.577,1.188,1.257,1.293,2.17c0.097,0.845-0.177,1.602-0.606,2.31 c-0.657,1.079-1.549,1.938-2.516,2.729c-1.533,1.256-3.218,2.283-4.937,3.257c-2.129,1.209-4.325,2.283-6.549,3.305 c-0.296,0.137-0.612,0.235-0.884,0.425c-0.758,0.046-1.517,0.082-2.275,0.01c0.242-0.208,0.553-0.284,0.833-0.417 c2.413-1.146,4.748-2.425,6.868-4.064c1.015-0.786,1.986-1.624,2.73-2.686c0.431-0.617,0.75-1.287,0.844-2.046 c0.128-1.03-0.199-1.931-0.785-2.761c-0.404-0.568-0.905-1.047-1.397-1.535c-0.6-0.594-1.102-1.261-1.5-2.003 c-0.329-0.616-0.56-1.262-0.601-1.972c-0.049-0.83,0.165-1.572,0.639-2.253c0.808-1.164,1.839-2.104,2.96-2.951 c1.427-1.073,2.973-1.941,4.6-2.67c0.121-0.055,0.24-0.104,0.345-0.187C43.488,38.731,43.871,39.104,44.212,39.521z" clip-rule="evenodd"/><path fill="#FFF" fill-rule="evenodd" d="M13.203,28.993c-0.135-0.039-0.193-0.127-0.263-0.203 c-0.842-0.915-1.686-1.83-2.529-2.743c-0.244-0.264-0.244-0.257-0.568-0.123c-0.916,0.379-1.833,0.755-2.739,1.128 c-0.115-0.083-0.083-0.178-0.061-0.263c0.278-1.049,0.551-2.1,0.843-3.145c0.055-0.195,0.016-0.318-0.113-0.456 c-1.081-1.158-2.157-2.321-3.233-3.483c-0.105-0.114-0.206-0.23-0.307-0.342c0.087-0.115,0.152-0.037,0.215-0.008 c1.253,0.561,2.505,1.123,3.757,1.685c0.308,0.138,0.313,0.137,0.394-0.173c0.264-1.025,0.527-2.05,0.793-3.076 c0.006-0.022,0.031-0.041,0.049-0.063c0.157,0.011,0.165,0.147,0.198,0.25c0.438,1.342,0.875,2.685,1.306,4.029 c0.069,0.215,0.188,0.35,0.401,0.443c0.994,0.434,1.981,0.885,2.97,1.33c0.077,0.035,0.205,0.025,0.195,0.15 c-0.008,0.105-0.116,0.129-0.2,0.164c-0.653,0.268-1.307,0.536-1.96,0.803c-0.396,0.161-0.4,0.178-0.268,0.571 c0.384,1.14,0.762,2.281,1.141,3.423C13.229,28.913,13.214,28.94,13.203,28.993z" clip-rule="evenodd"/><path fill="#FFF" fill-rule="evenodd" d="M15.758,42.398c-0.012,0.139-0.124,0.188-0.216,0.258 c-0.606,0.453-1.212,0.909-1.817,1.365c-0.283,0.213-0.281,0.215-0.159,0.529c0.32,0.83,0.642,1.656,0.959,2.487 c0.028,0.068,0.07,0.141,0.04,0.239c-0.117,0.062-0.18-0.048-0.255-0.104c-0.709-0.533-1.417-1.07-2.127-1.604 c-0.256-0.192-0.259-0.19-0.533,0.015c-0.732,0.547-1.462,1.097-2.193,1.645c-0.059,0.045-0.114,0.136-0.199,0.078 c-0.081-0.054-0.036-0.14-0.018-0.215c0.234-0.979,0.461-1.96,0.706-2.936c0.054-0.215-0.042-0.313-0.187-0.42 c-0.773-0.581-1.547-1.159-2.314-1.746c-0.223-0.171-0.471-0.313-0.663-0.523c0.085-0.117,0.183-0.076,0.267-0.066 c1.027,0.113,2.053,0.23,3.079,0.347c0.312,0.035,0.364,0.008,0.436-0.298c0.184-0.776,0.356-1.557,0.532-2.334 c0.017-0.076,0.027-0.154,0.046-0.23c0.018-0.075,0.039-0.162,0.139-0.158c0.081,0.002,0.09,0.08,0.113,0.141 c0.361,0.951,0.732,1.9,1.08,2.858c0.08,0.224,0.198,0.301,0.422,0.322c0.884,0.086,1.768,0.188,2.651,0.283 C15.621,42.34,15.705,42.317,15.758,42.398z" clip-rule="evenodd"/><path fill="#FFF" fill-rule="evenodd" d="M17.79,34.067c0.6,0.158,1.191,0.313,1.783,0.471 c0.176,0.047,0.352,0.097,0.529,0.142c0.255,0.063,0.307,0.04,0.362-0.198c0.121-0.521,0.232-1.046,0.352-1.568 c0.048-0.209,0.108-0.415,0.163-0.621c0.027,0,0.055,0.002,0.082,0.003c0.06,0.192,0.125,0.384,0.179,0.579 c0.179,0.642,0.361,1.282,0.528,1.928c0.07,0.272,0.217,0.407,0.5,0.471c0.611,0.137,1.213,0.315,1.819,0.479 c0.021,0.008,0.037,0.035,0.059,0.055c-0.015,0.135-0.128,0.181-0.22,0.249c-0.378,0.279-0.755,0.56-1.131,0.843 c-0.36,0.271-0.36,0.273-0.231,0.715c0.193,0.665,0.39,1.328,0.577,1.996c0.033,0.119,0.11,0.238,0.058,0.373 c-0.126-0.001-0.181-0.094-0.252-0.172c-0.475-0.521-0.951-1.043-1.429-1.562c-0.209-0.227-0.214-0.225-0.478-0.029 c-0.472,0.351-0.942,0.703-1.412,1.056c-0.072,0.054-0.129,0.135-0.254,0.099c-0.055-0.152,0.022-0.301,0.054-0.444 c0.151-0.689,0.303-1.379,0.482-2.062c0.059-0.227,0.002-0.367-0.144-0.523c-0.591-0.629-1.174-1.266-1.758-1.902 C17.914,34.341,17.774,34.267,17.79,34.067z" clip-rule="evenodd"/><path fill="#F8F8FC" fill-rule="evenodd" d="M30.521,31.106c-0.125,0.167-0.318,0.255-0.476,0.383 c-0.162,0.131-0.336,0.248-0.505,0.371c-0.14,0.102-0.188,0.225-0.148,0.406c0.148,0.676,0.279,1.355,0.419,2.034 c0.017,0.077,0.043,0.149,0.022,0.258c-0.153-0.054-0.215-0.171-0.291-0.284c-0.298-0.443-0.609-0.881-0.904-1.326 c-0.145-0.221-0.244-0.285-0.49-0.068c-0.303,0.266-0.646,0.486-0.973,0.727c-0.062,0.045-0.125,0.113-0.203,0.045 c-0.054-0.05-0.018-0.119-0.003-0.184c0.149-0.623,0.28-1.25,0.448-1.866c0.068-0.246,0.015-0.418-0.125-0.611 c-0.39-0.54-0.763-1.092-1.139-1.642c-0.056-0.083-0.139-0.157-0.13-0.303c0.29,0.049,0.525,0.217,0.783,0.319 c0.267,0.105,0.522,0.241,0.783,0.358c0.203,0.091,0.24,0.075,0.294-0.146c0.136-0.558,0.264-1.118,0.396-1.678 c0.023-0.096,0.025-0.204,0.143-0.287c0.122,0.295,0.15,0.591,0.21,0.88c0.113,0.55,0.224,1.1,0.328,1.652 c0.025,0.146,0.1,0.23,0.23,0.288c0.334,0.148,0.668,0.299,0.998,0.453C30.303,30.94,30.438,30.965,30.521,31.106z" clip-rule="evenodd"/><path fill="#FBFCFE" fill-rule="evenodd" d="M29.805,47.297c-0.323-0.256-0.538-0.588-0.816-0.858 c-0.103-0.1-0.195-0.212-0.287-0.322c-0.113-0.137-0.208-0.115-0.318,0.007c-0.312,0.334-0.631,0.664-0.945,0.996 c-0.053,0.056-0.09,0.131-0.195,0.129c-0.101-0.061-0.042-0.155-0.026-0.235c0.125-0.587,0.239-1.179,0.388-1.761 c0.053-0.209,0.016-0.345-0.124-0.493c-0.333-0.352-0.656-0.713-0.98-1.07c-0.066-0.074-0.166-0.13-0.163-0.275 c0.348-0.053,0.68,0.028,1.011,0.041c0.079,0.003,0.155,0.022,0.234,0.033c0.379,0.043,0.381,0.043,0.463-0.333 c0.104-0.472,0.203-0.944,0.304-1.417c0.004-0.026,0.004-0.053,0.012-0.078c0.023-0.085,0.024-0.201,0.146-0.195 c0.097,0.006,0.105,0.109,0.111,0.182c0.025,0.262,0.101,0.512,0.159,0.769c0.068,0.305,0.139,0.61,0.191,0.921 c0.038,0.218,0.15,0.313,0.367,0.327c0.287,0.018,0.573,0.049,0.858,0.081c0.098,0.013,0.237-0.047,0.286,0.069 c0.055,0.136-0.094,0.198-0.169,0.28c-0.239,0.259-0.476,0.522-0.732,0.765c-0.167,0.154-0.202,0.312-0.149,0.525 c0.143,0.569,0.271,1.144,0.404,1.716C29.848,47.149,29.866,47.199,29.805,47.297z" clip-rule="evenodd"/></svg>