<svg xmlns="http://www.w3.org/2000/svg" version="1.1" id="Layer_1" x="0px" y="0px" width="70" height="70" viewBox="0 0 70 70" xml:space="preserve" style="enable-background:new 0 0 70 70;"><style type="text/css">
	.st0{fill:#63003D;}
	.st1{fill:#00B8B0;}
</style><g><path d="M9.9,18H2.4c-0.9,0-1.4,1-0.8,1.7l22.3,26.9c1.8,2.1,1.7,5.2-0.2,7.3l-6.4,7c-0.6,0.7-0.1,1.7,0.8,1.7h11.8   c0.8,0,1.5-0.3,2-0.9l2.4-2.6l4.6-5c1.9-2,1.9-5.1,0.2-7.3L18.5,22C16.4,19.5,13.2,18,9.9,18L9.9,18z" class="st0"/><path d="M46.3,45.9l6.5-7.1c0.3-0.4,0.4-1,0-1.4L31.2,11.4c-2.1-2.5-5.2-4-8.5-4h-7.6c-0.9,0-1.4,1-0.8,1.7l30.5,36.8   C45.2,46.3,45.9,46.3,46.3,45.9L46.3,45.9z" class="st1"/><path d="M67.6,19.9h-8.1c-3.1,0-6.1,1.3-8.2,3.6l-1.3,1.4c-0.3,0.4-0.4,1,0,1.4l6,7.2c0.4,0.5,1.1,0.5,1.6,0l10.8-11.9   C69,21,68.6,19.9,67.6,19.9L67.6,19.9z" class="st0"/></g></svg>