<svg xmlns="http://www.w3.org/2000/svg" id="ロゴデータ" width="311" height="311" viewBox="0 0 311.81 311.81"><defs><style>.cls-1{fill:#008857;}</style></defs><path d="M138.6,112l-1.66.62c-2.95-4.67-7.1-8.3-13-8.3-3.26,0-7.57,1.71-7.57,5.5,0,4.15,4.67,5.19,7.83,6l5.3,1.24c5.65,1.35,11.57,3,11.57,10.12,0,7.52-7.27,11.67-14.06,11.67-3.9,0-8.1-1-11.11-3.53L115,138H113l-3.37-11.88,1.92-.62c2.69,5.7,8.19,10.79,14.89,10.79,4.56,0,9.49-2.6,9.49-7.68,0-4.57-4-5.34-7.63-6.28l-5.76-1.4a27.54,27.54,0,0,1-7.41-2.8,8.08,8.08,0,0,1-3.9-6.69,9.22,9.22,0,0,1,3.79-7.32,14,14,0,0,1,8.35-2.33,16.44,16.44,0,0,1,9.55,2.75l.62-1.87h1.87Z" class="cls-1"/><path d="M151.73,131.08a9.42,9.42,0,0,0,.46,3.48c.73,1.6,2.39,1.71,3.89,1.81l1,0V138H142v-1.56l.47,0c1.4-.1,2.85-.31,3.53-1.66a11.1,11.1,0,0,0,.57-4.25V109.29c0-2.75-.26-4.77-3.84-5l-.73-.05v-1.56h17c3,0,6.07.31,8.71,1.87a9.08,9.08,0,0,1,4.52,7.93,9.6,9.6,0,0,1-3.79,7.73c-2.59,2-6.33,2.34-9.49,2.34h-7.16Zm6.38-10.48c2.59,0,4.87-.16,6.74-2.18a8.95,8.95,0,0,0-.36-11.88,9.54,9.54,0,0,0-6.23-1.87c-1.35,0-4.72.16-5.81,1-.67.46-.72,1.61-.72,2.49V120.6Z" class="cls-1"/><path d="M204.38,132.53a8.23,8.23,0,0,0,5.86,3.89V138h-8.66L190,121.27h-7.26v9.86c0,2.91.26,5,4,5.29h1.09V138h-15.3v-1.56l.67,0c1.46-.1,3-.21,3.79-1.66a9.12,9.12,0,0,0,.52-3.68V109.29c0-2.85-.26-4.83-4-5l-1-.05v-1.56h20.65c6,0,12.4,1.81,12.4,9.08,0,5.39-4.57,8.61-9.55,9.08ZM190.53,119.1c2.33,0,4.67-.06,6.69-1.46a7.06,7.06,0,0,0,3-6c0-5.87-5.19-7.06-10-7.06-1.51,0-4.78.16-6.13.93s-1.29,1.61-1.29,2.91V119.1Z" class="cls-1"/><path d="M217.45,109.76c0-3-.16-5.24-3.79-5.55H213v-1.56h14v1.56h-.63c-3.63.31-3.78,2.59-3.78,5.55v21.63c0,2.7.26,4.67,3.63,5l.78,0V138H213v-1.56l.78,0c3.37-.31,3.63-2.28,3.63-5V109.76Z" class="cls-1"/><path d="M237.42,131.18c0,2.91.26,5,4.05,5.19l1,0V138H229.9v-1.56h.52c1.4-.1,2.85-.31,3.58-1.71a9.3,9.3,0,0,0,.52-3.68V109.29c0-2.75-.26-4.77-3.84-5l-.78-.05v-1.56h11.46l16.92,28.12h.1V109.34c0-2.85-.26-4.88-4-5.08l-1-.05v-1.56H266v1.56l-.57.05c-1.4.1-2.91.26-3.64,1.66a9.31,9.31,0,0,0-.51,3.68V138h-4.47l-19.3-31.44h-.1Z" class="cls-1"/><path d="M299.31,113.7l-2,.57c-3.06-4.82-7.42-9.91-13.65-9.91-8.35,0-11.36,8.92-11.36,15.88a19.94,19.94,0,0,0,2.6,10.48,11.43,11.43,0,0,0,9.65,5.55c5.13,0,10.42-2.8,10.42-8.56,0-3.58-1.71-4.62-5-5v-1.56h14.22v1.56l-.42,0c-1.3.1-2.75.36-3.42,1.66a9.12,9.12,0,0,0-.52,3.68V138h-2.49l-1.61-3.58a17.61,17.61,0,0,1-11.62,4.46c-10.64,0-18-8.25-18-18.62a18.63,18.63,0,0,1,4.46-12.61,17,17,0,0,1,23-2.49l1-2.49h1.6Z" class="cls-1"/><path d="M155.67,169.93a46.27,46.27,0,0,1-.36,7.11c-1.25,5.61-7.47,7.89-12.61,7.89a15,15,0,0,1-8.77-2.54,10.49,10.49,0,0,1-4.3-8c0-2.5,1.45-4.57,4-4.57a2.59,2.59,0,0,1,2.8,2.7c0,2.49-2.17,2.28-2.17,4.51a4.66,4.66,0,0,0,1.86,3.37,9.79,9.79,0,0,0,6,2c3.68,0,6.43-1.76,7.57-5.34.78-2.39.78-7.11.78-9.75V155.51c0-2.8-.21-4.93-3.89-5.19l-.73,0v-1.55h14.38v1.55l-.47,0c-1.4.06-2.85.26-3.58,1.66a8.91,8.91,0,0,0-.52,3.69v14.26Z" class="cls-1"/><path d="M191.26,176c1.29,3.22,2.07,6.33,6.17,6.54v1.56H182.85v-1.56c1.71-.21,4.05-.57,4.05-2.59a9,9,0,0,0-.78-2.86l-2.33-6.12H170.45L169,174.81a15.43,15.43,0,0,0-1.19,4.31c0,2.59,2.07,3.11,4.56,3.37v1.56h-13.9v-1.56l.57-.1c2.49-.57,3.37-1.2,4.67-3.48a67.57,67.57,0,0,0,3.37-7.94l8.66-22.25h4.83Zm-8.41-7.36-5.91-15.41-5.76,15.41Z" class="cls-1"/><path d="M210.14,177.15a9.33,9.33,0,0,0,.46,3.47c.73,1.61,2.39,1.71,3.89,1.82l1,.05v1.56H200.38v-1.56l.47-.05c1.4-.11,2.85-.31,3.53-1.66a11.15,11.15,0,0,0,.57-4.26V155.36c0-2.75-.26-4.78-3.84-5l-.73,0v-1.55h17a16.9,16.9,0,0,1,8.71,1.86,9.11,9.11,0,0,1,4.52,7.94,9.61,9.61,0,0,1-3.79,7.73c-2.6,2-6.33,2.34-9.5,2.34h-7.15Zm6.38-10.48c2.59,0,4.87-.16,6.74-2.18a8.95,8.95,0,0,0-.36-11.88,9.48,9.48,0,0,0-6.23-1.87c-1.35,0-4.72.15-5.81,1-.67.47-.72,1.61-.72,2.49v12.46Z" class="cls-1"/><path d="M259.21,176c1.3,3.22,2.08,6.33,6.17,6.54v1.56H250.8v-1.56c1.72-.21,4-.57,4-2.59a8.74,8.74,0,0,0-.78-2.86l-2.33-6.12H238.41L237,174.81a15.78,15.78,0,0,0-1.19,4.31c0,2.59,2.08,3.11,4.57,3.37v1.56H226.42v-1.56l.57-.1c2.49-.57,3.37-1.2,4.67-3.48A67.57,67.57,0,0,0,235,171l8.67-22.25h4.82Zm-8.41-7.36-5.91-15.41-5.76,15.41Z" class="cls-1"/><path d="M275.6,177.25c0,2.91.26,5,4,5.19l1,.05v1.56h-12.6v-1.56h.52c1.4-.1,2.85-.31,3.58-1.71a9.36,9.36,0,0,0,.51-3.69V155.36c0-2.75-.26-4.78-3.84-5l-.77,0v-1.55h11.46l16.92,28.12h.1V155.41c0-2.86-.26-4.88-4.05-5.09l-1,0v-1.55h12.72v1.55l-.58,0c-1.4.11-2.9.26-3.63,1.66a9.35,9.35,0,0,0-.52,3.69v28.38H295l-19.3-31.44h-.1Z" class="cls-1"/><path d="M51.93,98.12a23.64,23.64,0,0,1,23.63,23.64,25.05,25.05,0,0,1-1.49,8.29l-12.83-4.77a9.82,9.82,0,0,0,.64-3.52,10,10,0,1,0-19.93,0,9.76,9.76,0,0,0,1.45,5.13l.07.17a17.08,17.08,0,0,0,3.47,3.82c.47.45,1.28.88,2.31,1.61C57.1,138,67.31,140.36,77.58,141c.52.09.93.13,1.23.17l.51.05.55.08c.21,0,.37,0,.55.08s.36.05.53.09a4.78,4.78,0,0,1,.57.12l.53.1c.18.06.38.1.57.15l.51.15a5.8,5.8,0,0,1,.59.19l.48.14.6.24.22.06.14.06.48.18.62.27.42.17a5.39,5.39,0,0,1,.68.34l.38.16,1,.56c.4.24.78.48,1.18.74.1.08.22.15.33.23l.8.56c.13.09.23.18.34.27.28.2.53.41.79.62l.28.25c.33.29.66.59,1,.9h0A23.65,23.65,0,1,1,58.76,180l10.53-8.75a10,10,0,1,0,12.63-15,9.76,9.76,0,0,0-5.17-1.3.53.53,0,0,0-.19,0,17.41,17.41,0,0,0-5,1.09A25.21,25.21,0,0,0,69,157.13c-10.31,5-15.85,11.71-21.52,20.3-.34.41-.58.74-.76,1s-.19.28-.31.42a4.2,4.2,0,0,1-.33.44c-.12.15-.23.29-.34.45l-.34.4c-.14.15-.26.29-.4.43s-.24.27-.35.39l-.43.43a4.3,4.3,0,0,1-.37.37l-.44.42c-.13.1-.26.23-.4.33a1,1,0,0,1-.21.19s0,0,0,0-.32.27-.48.41-.26.22-.39.32-.37.27-.55.41l-.36.27c-.21.14-.44.29-.64.44l-.32.21c-.33.21-.66.43-1,.62s-.81.44-1.22.64c-.12.07-.24.12-.38.19s-.59.27-.88.4l-.41.18c-.3.12-.62.25-.93.35l-.35.13c-.41.14-.84.27-1.26.39h0a23.64,23.64,0,0,1-18.21-43.24,23.36,23.36,0,0,1,7.69-2.84l2.24,13.52a10.26,10.26,0,0,0-3.1,1.16,10,10,0,0,0,10,17.27,9.8,9.8,0,0,0,3.72-3.82l.12-.15a18,18,0,0,0,1.45-5c.09-.64.18-1.47.31-2.71.79-7.49-.47-17.84-6.75-28.77a27.68,27.68,0,0,1-2.19-6.23,2.88,2.88,0,0,1-.1-.51,6.18,6.18,0,0,1-.12-.62c0-.17-.05-.32-.08-.48l-.09-.68a2.49,2.49,0,0,1,0-.47c0-.24,0-.51-.07-.77s0-.26,0-.38c0-.39,0-.77,0-1.17s0-.93,0-1.39c0-.13,0-.27,0-.41,0-.32,0-.65.09-1,0-.14,0-.29.06-.43,0-.34.09-.65.15-1a2.58,2.58,0,0,0,.06-.37c.09-.43.19-.86.3-1.3h0A23.64,23.64,0,0,1,51.93,98.12Z" class="cls-1"/></svg>