<svg xmlns="http://www.w3.org/2000/svg" version="1.1" width="70px" height="70px" viewBox="0 0 70 70"><g id="surface1"><path d="M 41.480469 42.460938 C 43.585938 46.0625 46.300781 47.078125 48.882812 47.078125 C 50.242188 47.078125 51.671875 46.945312 52.894531 46.535156 L 52.894531 52.105469 C 51.464844 52.445312 49.902344 52.648438 48.339844 52.648438 C 42.839844 52.648438 39.984375 50.613281 36.722656 45.722656 L 36.453125 45.3125 L 39.238281 38.996094 L 39.332031 38.804688 L 39.441406 38.996094 L 41.480469 42.460938 " style=" stroke:none;fill-rule:nonzero;fill:rgb(100%,39.215687%,13.725491%);fill-opacity:1;"/><path d="M 36.722656 25.679688 L 36.453125 26.085938 L 39.226562 32.308594 C 39.234375 32.328125 39.242188 32.347656 39.253906 32.363281 L 39.332031 32.519531 L 39.441406 32.335938 L 41.480469 29.007812 C 43.652344 25.476562 46.300781 24.253906 48.882812 24.253906 C 50.242188 24.253906 51.671875 24.390625 52.894531 24.796875 L 52.894531 19.15625 C 51.464844 18.816406 49.902344 18.683594 48.339844 18.683594 C 42.839844 18.683594 39.984375 20.789062 36.722656 25.679688 " style=" stroke:none;fill-rule:nonzero;fill:rgb(100%,39.215687%,13.725491%);fill-opacity:1;"/><path d="M 33.464844 26.765625 C 30.542969 20.3125 26.875 18.683594 21.710938 18.683594 C 20.148438 18.683594 18.449219 18.953125 17.160156 19.292969 L 17.160156 24.730469 C 18.109375 24.390625 19.332031 24.253906 20.554688 24.253906 C 23.542969 24.253906 25.71875 25.410156 27.6875 29.347656 L 30.839844 35.703125 L 27.6875 42.054688 C 25.71875 45.996094 23.542969 47.082031 20.554688 47.082031 C 19.332031 47.082031 18.109375 46.878906 17.160156 46.535156 L 17.160156 52.039062 C 18.109375 52.3125 19.46875 52.652344 21.710938 52.652344 C 26.871094 52.652344 30.609375 50.953125 33.464844 44.632812 L 37.539062 35.667969 Z M 33.464844 26.765625 " style=" stroke:none;fill-rule:nonzero;fill:rgb(100%,39.215687%,13.725491%);fill-opacity:1;"/></g></svg>