<svg xmlns="http://www.w3.org/2000/svg" version="1.1" id="Layer_1" x="0px" y="0px" width="70px" height="70px" viewBox="0 0 70 70" enable-background="new 0 0 70 70" xml:space="preserve"><metadata/><rect width="70" fill="none" height="70"/><path fill="#144984" d="M35,13.1c-18.6,0-33.7,8.1-33.7,18.1S16.4,49.3,35,49.3c18.6,0,33.7-8.1,33.7-18.1S53.6,13.1,35,13.1z    M35,47.9c-17.9,0-32.4-7.5-32.4-16.7S17.1,14.6,35,14.6c17.9,0,32.4,7.5,32.4,16.7C67.4,40.4,52.9,47.9,35,47.9z"/><path fill="#D1252B" d="M42.4,19.6c0,0-15.101-1.1-15,11C27.7,44,52.8,44.3,60,40.3C54.7,42,36.1,42.6,33.4,31   C31,20.9,42.4,19.6,42.4,19.6z"/><g><path fill="#144984" d="M26.5,32.9c-3.8,0-6.8-0.8-6.8-1.8s3-1.8,6.8-1.8c0.1,0,0.2,0,0.4,0c0.1-1.1,0.3-2.1,0.6-2.9    c-8.2,0.4-16.2,2.7-16.2,4.8c0,2.1,8.9,5,17.3,5.2c-0.7-1-1.2-2.2-1.5-3.5C26.9,32.9,26.7,32.9,26.5,32.9z"/><path fill="#144984" d="M56.7,30.9c-0.5,0-7.7,0-11.2,0c-0.1-0.3-0.2-0.6-0.5-0.9c3.7,0,10.2,0,10.6,0c0.601,0,0.601-0.8,0-0.8    c-0.399,0-8.199,0-11.6,0c-1.9-1.3-5.7-2.3-10-2.7c-0.4,1.3-0.3,3,0.1,4.7c0.4,1.7,1.2,3.1,2.7,4.399c2.8-0.5,5.2-1.3,6.8-2.3    c3.7,0,10,0,10.4,0c0.6,0,0.6-0.7,0-0.7c-0.4,0-5.6,0-9.4,0c0.4-0.3,0.601-0.7,0.801-1c3.5,0,10.899,0,11.3,0    C57.2,31.7,57.3,30.9,56.7,30.9z"/></g></svg>