<svg xmlns="http://www.w3.org/2000/svg" version="1.1" width="70px" height="70px" viewBox="0 0 70 70"><g id="surface1"><path d="M 24.910156 45.558594 C 24.910156 45.199219 24.964844 44.796875 25.125 44.347656 L 5.703125 47.53125 C 5.703125 48.160156 5.863281 48.789062 5.972656 49.414062 L 25.019531 46.320312 C 25.019531 46.097656 24.964844 45.828125 24.964844 45.605469 " style=" stroke:none;fill-rule:evenodd;fill:rgb(80.784315%,11.372549%,52.941179%);fill-opacity:1;"/><path d="M 33.949219 64.347656 C 37.609375 64.347656 41.699219 63.941406 45.625 63.269531 L 64.671875 60.175781 L 64.671875 49.953125 L 11.730469 58.605469 C 17.433594 62.957031 26.203125 64.390625 33.898438 64.390625 " style=" stroke:none;fill-rule:evenodd;fill:rgb(1.568628%,66.666669%,58.039218%);fill-opacity:1;"/><path d="M 35.402344 52.195312 C 29.914062 52.195312 27.0625 50.132812 25.773438 48.113281 L 6.457031 51.253906 C 7.210938 53.496094 8.394531 55.332031 9.898438 56.902344 L 41.105469 51.835938 C 39.652344 52.0625 37.769531 52.195312 35.402344 52.195312 " style=" stroke:none;fill-rule:evenodd;fill:rgb(98.431373%,66.274512%,9.803922%);fill-opacity:1;"/><path d="M 5.648438 45.605469 L 26.527344 42.195312 C 28.085938 40.671875 30.9375 39.328125 35.78125 39.328125 C 40.621094 39.328125 40.621094 39.460938 42.074219 39.683594 L 64.671875 36.007812 L 64.671875 29.550781 L 7.480469 38.832031 C 6.347656 40.714844 5.703125 42.957031 5.648438 45.605469 " style=" stroke:none;fill-rule:evenodd;fill:rgb(44.705883%,74.901962%,27.450982%);fill-opacity:1;"/><path d="M 32.929688 28.65625 C 26.632812 28.65625 14.902344 30.136719 9.09375 36.636719 L 45.625 30.671875 C 45.625 30.671875 41.539062 28.65625 32.929688 28.65625 " style=" stroke:none;fill-rule:evenodd;fill:rgb(3.921569%,56.470591%,28.627452%);fill-opacity:1;"/><path d="M 50.898438 8.480469 L 9.039062 15.292969 L 16.140625 24.621094 C 19.855469 22.601562 27.226562 19.644531 33.574219 19.644531 C 39.921875 19.644531 45.679688 22.78125 45.679688 27.175781 L 45.679688 30.671875 L 64.136719 27.667969 L 64.726562 27.578125 C 64.457031 18.65625 59.453125 11.976562 50.898438 8.480469 " style=" stroke:none;fill-rule:evenodd;fill:rgb(63.137257%,16.078432%,55.29412%);fill-opacity:1;"/><path d="M 34.972656 5.652344 C 16.734375 5.652344 7.695312 13.589844 7.695312 13.589844 L 47.023438 7.179688 C 43.472656 6.191406 39.386719 5.699219 34.972656 5.699219 " style=" stroke:none;fill-rule:evenodd;fill:rgb(92.941177%,34.117648%,15.294118%);fill-opacity:1;"/><path d="M 45.625 51.117188 L 64.726562 47.980469 L 64.726562 41.746094 L 45.625 44.886719 Z M 45.625 51.117188 " style=" stroke:none;fill-rule:evenodd;fill:rgb(19.215687%,65.882355%,87.843138%);fill-opacity:1;"/><path d="M 45.625 42.914062 L 64.726562 39.820312 L 64.726562 37.890625 L 45.625 41.03125 Z M 45.625 42.914062 " style=" stroke:none;fill-rule:evenodd;fill:rgb(55.29412%,47.843137%,23.137255%);fill-opacity:1;"/></g></svg>