<svg xmlns="http://www.w3.org/2000/svg" id="Layer_2" width="70px" height="70px" viewBox="0 0 70 70"><defs><style>
      .cls-1 {
        fill: #27a9e0;
      }

      .cls-1, .cls-2, .cls-3, .cls-4 {
        fill-rule: evenodd;
      }

      .cls-2 {
        fill: #374880;
      }

      .cls-3 {
        fill: #6dcde7;
      }

      .cls-4 {
        fill: #afdfe6;
      }
    </style></defs><g id="Layer_1-2"><g id="Layer_1-3"><path d="M56.18,49.82c-3.71,11-14.29,18.95-26.74,18.95-15.54,0-28.18-12.37-28.18-27.58S13.9,13.62,29.44,13.62c4.73,0,9.18,1.15,13.11,3.17l1-.86c-4.19-2.27-8.99-3.54-14.1-3.54C13.19,12.39,0,25.3,0,41.19s13.19,28.81,29.44,28.81c13.18,0,24.35-8.53,28.09-20.24,0,0-1.35,.06-1.35,.06Z" class="cls-2"/><path d="M10.57,50.07c16.99-1.53,33.83-4.09,50.42-8.17-.26,1.12-.51,2.24-.78,3.37-21.22,4.73-36.04,5.16-49.64,4.8Z" class="cls-1"/><path d="M13.28,48.43c15.9-2.45,32.2-6.34,48.93-11.87-.26,1.15-.53,2.29-.79,3.44-18.55,5.72-34.38,8.27-48.14,8.43Z" class="cls-1"/><path d="M15.86,46.66c15.61-3.81,31.5-9.15,47.59-15.53-.26,1.16-.53,2.31-.79,3.47-17.05,6.55-32.8,10.87-46.8,12.06Z" class="cls-3"/><path d="M18.45,44.58c15.74-4.67,31.21-11.71,46.54-20.16-.34,1.42-.66,2.84-.98,4.26-18.35,8.92-33.89,14.62-45.56,15.9Z" class="cls-4"/><path d="M21.81,42.39c17.66-8.37,32.04-17.03,44.97-25.83-.35,1.56-.7,3.13-1.07,4.69-14.67,9.16-29.32,16.76-43.9,21.14Z" class="cls-3"/><path d="M24.38,39.67C41.75,28.91,56.82,17.98,69.02,6.81c-.44,1.91-.88,3.81-1.32,5.72-14.41,12.19-29.17,20.57-43.32,27.14Z" class="cls-1"/><path d="M70,0c-1.64,.04-3.27,.09-4.91,.13-6.08,7.27-12.21,13.56-18.38,19.31-6.66,6.22-13.38,11.81-20.09,17.3C41.33,27.02,55.93,16.14,70,0Z" class="cls-1"/></g></g></svg>