<svg xmlns="http://www.w3.org/2000/svg" version="1.1" id="Layer_1" x="0px" y="0px" width="70" height="70" viewBox="0 0 70 70" xml:space="preserve" style="enable-background:new 0 0 70 70;"><style type="text/css">
	.st0{fill:#00A1DF;}
	.st1{fill:#40B4E5;}
	.st2{fill:#004A97;}
	.st3{fill:#001689;}
	.st4{fill:#0082CA;}
	.st5{fill:#1099D6;}
</style><g><path d="M7.5,29.9H4.3v8.6c0,0.9-0.2,1.5-0.5,1.9s-0.9,0.6-1.7,0.6c-0.1,0-0.2,0-0.3,0l-1.1,2.6c0.5,0.1,1,0.1,1.6,0.1   c1,0,1.8-0.1,2.5-0.4C5.5,43,6,42.6,6.4,42.2c0.4-0.5,0.7-1,0.8-1.6c0.2-0.6,0.2-1.3,0.2-2V29.9z" class="st0"/><path d="M59.5,32.3c-0.4,0-0.7,0-1.1,0.1c-0.3,0-0.7,0.1-1,0.1c-0.2,0-0.3,0.1-0.5,0.1v0c-0.1,0-0.2,0-0.3,0.1   c-0.2,0-0.4,0.1-0.6,0.2v2.5c0.3-0.1,0.8-0.3,2.3-0.3c0.1,0,0.2,0,0.3,0c0.2,0,0.4,0,0.7,0.1c0.3,0,0.5,0.1,0.6,0.1l0.1,0   c0.3,0.1,0.5,0.2,0.7,0.4c0.3,0.3,0.5,0.5,0.5,1v0.3c-0.7,0-1.5-0.1-1.8-0.1c-0.6,0-1.2,0.1-1.7,0.2c-0.5,0.1-1,0.3-1.5,0.6   c-0.4,0.3-0.8,0.6-1,1c-0.3,0.4-0.4,1-0.4,1.6c0,0.7,0.1,1.2,0.3,1.7c0.2,0.5,0.5,0.8,0.9,1.1c0.4,0.3,0.9,0.5,1.5,0.6   c0.6,0.1,1.2,0.2,1.9,0.2c1.1,0,2-0.1,2.8-0.2c0.8-0.1,1.4-0.2,1.8-0.3v-6.4c0-0.7-0.1-1.3-0.2-1.8c-0.2-0.5-0.4-1-0.8-1.4   s-0.8-0.7-1.4-0.9C61.2,32.4,60.4,32.3,59.5,32.3 M59.8,41.3c-0.6,0-1-0.1-1.3-0.3c-0.3-0.2-0.5-0.5-0.5-1c0-0.2,0.1-0.5,0.2-0.6   c0.1-0.2,0.3-0.3,0.5-0.4c0.1-0.1,0.6-0.1,1.3-0.1c0.4,0,0.9,0,1.4,0.2v2.2c-0.2,0-0.4,0-0.7,0.1C60.4,41.3,60.1,41.3,59.8,41.3" class="st1"/><path d="M43.7,24.7c-0.4,0-0.6-0.1-0.7-0.1c-0.3,0-0.6,0-0.9,0.1c-0.3,0.1-0.6,0.2-0.8,0.3c-0.2,0.1-0.4,0.3-0.6,0.6   c-0.1,0.2-0.2,0.5-0.2,0.9c0,0.4,0.1,0.7,0.2,0.9c0.1,0.2,0.3,0.4,0.5,0.6c0.2,0.2,0.5,0.3,0.8,0.3c0.3,0.1,0.6,0.1,1,0.1   c0.6,0,0.7,0,1.2-0.1c0.4-0.1,0.8-0.1,1-0.2v-3.2L43.7,24.7z M42.9,27.2c-0.3,0-0.5-0.1-0.7-0.2c-0.2-0.1-0.3-0.3-0.3-0.5   c0-0.1,0-0.2,0.1-0.3c0.1-0.1,0.1-0.2,0.2-0.2c0.1,0,0.3-0.1,0.7-0.1c0.2,0,0.5,0,0.8,0.1v1.2c-0.1,0-0.2,0-0.4,0   C43.2,27.2,43,27.2,42.9,27.2" class="st1"/><path d="M26.7,32.6h-8.6v2.5h4.6c-0.4,0.4-0.8,0.9-1.2,1.5c-0.4,0.5-0.9,1.1-1.3,1.7c-0.4,0.6-0.9,1.1-1.3,1.7   c-0.4,0.6-0.7,1.1-1,1.6v1.8h8.9v-2.5h-5.2c0.4-0.6,0.8-1.2,1.3-1.8c0.5-0.6,1-1.2,1.4-1.8c0.5-0.6,0.9-1.1,1.3-1.5   c0.4-0.5,0.7-0.8,1-1.1V32.6z" class="st2"/><path d="M32.1,32.3c-0.7,0-1.3,0.1-1.9,0.4c-0.6,0.2-1.2,0.6-1.6,1.1c-0.5,0.5-0.9,1.1-1.2,1.8   c-0.3,0.7-0.4,1.6-0.4,2.5c0,0.8,0.1,1.5,0.3,2.2c0.2,0.7,0.6,1.3,1,1.8c0.5,0.5,1.1,0.9,1.8,1.2c0.7,0.3,1.6,0.4,2.5,0.4   c0.4,0,0.8,0,1.1-0.1c0.4,0,0.7-0.1,1.1-0.2s0.6-0.1,0.9-0.2c0.3-0.1,0.8-0.3,1.2-0.5v-2.6c-1.1,0.4-1.6,0.6-2.3,0.7   C34.1,41,33.6,41,33,41c-0.9,0-1.6-0.2-2.1-0.6c-0.5-0.4-0.8-0.9-0.9-1.5H37c0-0.2,0-0.4,0-0.6c0-0.2,0-0.4,0-0.6   c0-1.8-0.4-3.2-1.3-4.1C34.8,32.8,33.6,32.3,32.1,32.3 M30,36.9c0-0.3,0.1-0.5,0.2-0.8c0.1-0.3,0.2-0.5,0.4-0.7   c0.2-0.2,0.4-0.3,0.6-0.5c0.2-0.1,0.5-0.2,0.9-0.2c0.4,0,0.7,0.1,0.9,0.2c0.2,0.1,0.4,0.3,0.6,0.5c0.2,0.2,0.3,0.4,0.3,0.7   c0.1,0.2,0.1,0.5,0.1,0.8H30z" class="st3"/><path d="M42.8,32.3c-0.7,0-1.3,0.1-1.9,0.4c-0.6,0.2-1.2,0.6-1.6,1.1c-0.5,0.5-0.9,1.1-1.2,1.8   c-0.3,0.7-0.4,1.6-0.4,2.5c0,0.8,0.1,1.5,0.3,2.2c0.2,0.7,0.6,1.3,1,1.8c0.5,0.5,1.1,0.9,1.8,1.2c0.7,0.3,1.6,0.4,2.5,0.4   c0.4,0,0.8,0,1.1-0.1c0.4,0,0.7-0.1,1.1-0.2c0.3-0.1,0.6-0.1,0.9-0.2c0.3-0.1,0.8-0.3,1.2-0.5v-2.6c-1.1,0.4-1.6,0.6-2.3,0.7   C44.9,41,44.3,41,43.8,41c-0.9,0-1.6-0.2-2.1-0.6c-0.5-0.4-0.8-0.9-0.9-1.5h6.9c0-0.2,0-0.4,0-0.6c0-0.2,0-0.4,0-0.6   c0-1.8-0.4-3.2-1.3-4.1C45.6,32.8,44.4,32.3,42.8,32.3 M40.8,36.9c0-0.3,0.1-0.5,0.2-0.8c0.1-0.3,0.2-0.5,0.4-0.7   c0.2-0.2,0.4-0.3,0.6-0.5c0.2-0.1,0.5-0.2,0.9-0.2c0.4,0,0.7,0.1,0.9,0.2c0.2,0.1,0.4,0.3,0.6,0.5c0.2,0.2,0.3,0.4,0.3,0.7   c0.1,0.2,0.1,0.5,0.1,0.8H40.8z" class="st4"/><path d="M52.9,32.4c-0.9,0-1.7,0.1-2.5,0.3c-0.7,0.2-1.4,0.4-1.9,0.5v10.2h3v-8.2c0.1,0,0.3-0.1,0.6-0.1   c0.3,0,0.5,0,0.7-0.1c0,0,0.1,0,0.1,0c1.2,0,2.3,0.3,2.6,0.3v-2.5c-0.2-0.1-0.4-0.1-0.6-0.2c-0.2,0-0.5-0.1-0.7-0.1   c-0.2,0-0.5-0.1-0.7-0.1C53.3,32.4,53.1,32.4,52.9,32.4" class="st5"/><path d="M12.5,32.3c-0.4,0-0.7,0-1.1,0.1c-0.3,0-0.7,0.1-1,0.1c-0.2,0-0.3,0.1-0.5,0.1v0c-0.1,0-0.2,0-0.3,0.1   c-0.2,0-0.4,0.1-0.6,0.2v2.5C9.4,35.2,10,35,11.4,35c0.1,0,0.2,0,0.3,0c0.2,0,0.4,0,0.7,0.1c0.3,0,0.5,0.1,0.6,0.1l0.1,0   c0.3,0.1,0.5,0.2,0.7,0.4c0.3,0.3,0.5,0.5,0.5,1v0.3c-0.7,0-1.5-0.1-1.8-0.1c-0.6,0-1.2,0.1-1.7,0.2c-0.5,0.1-1,0.3-1.5,0.6   c-0.4,0.3-0.8,0.6-1,1c-0.3,0.4-0.4,1-0.4,1.6c0,0.7,0.1,1.2,0.3,1.7c0.2,0.5,0.5,0.8,0.9,1.1c0.4,0.3,0.9,0.5,1.5,0.6   c0.6,0.1,1.2,0.2,1.9,0.2c1.1,0,2-0.1,2.8-0.2c0.8-0.1,1.4-0.2,1.8-0.3v-6.4c0-0.7-0.1-1.3-0.2-1.8c-0.2-0.5-0.4-1-0.8-1.4   c-0.4-0.4-0.8-0.7-1.4-0.9C14.2,32.4,13.4,32.3,12.5,32.3 M12.8,41.3c-0.6,0-1-0.1-1.3-0.3c-0.3-0.2-0.5-0.5-0.5-1   c0-0.2,0.1-0.5,0.2-0.6c0.1-0.2,0.3-0.3,0.5-0.4c0.1-0.1,0.6-0.1,1.3-0.1c0.4,0,0.9,0,1.4,0.2v2.2c-0.2,0-0.4,0-0.7,0.1   C13.4,41.3,13.1,41.3,12.8,41.3" class="st4"/><rect x="65.6" y="39.7" width="3" height="3" transform="matrix(0.7071 -0.7071 0.7071 0.7071 -9.492 59.5477)" class="st4"/><path d="M56.7,29.3c-0.4,0-0.7,0.3-0.7,0.7c0,0.4,0.3,0.7,0.7,0.7c0.4,0,0.7-0.3,0.7-0.7   C57.4,29.6,57.1,29.3,56.7,29.3" class="st2"/><path d="M44.2,24c0.4,0,0.7-0.3,0.7-0.7c0-0.4-0.3-0.7-0.7-0.7c-0.4,0-0.7,0.3-0.7,0.7C43.5,23.7,43.8,24,44.2,24" class="st1"/><path d="M42.7,24c0.4,0,0.7-0.3,0.7-0.7c0-0.4-0.3-0.7-0.7-0.7c-0.4,0-0.7,0.3-0.7,0.7C42.1,23.7,42.4,24,42.7,24" class="st1"/><path d="M48.7,29.3c-0.4,0-0.7,0.3-0.7,0.7c0,0.4,0.3,0.7,0.7,0.7c0.4,0,0.7-0.3,0.7-0.7   C49.4,29.6,49.1,29.3,48.7,29.3" class="st4"/><path d="M50.2,29.3c-0.4,0-0.7,0.3-0.7,0.7c0,0.4,0.3,0.7,0.7,0.7c0.4,0,0.7-0.3,0.7-0.7   C50.9,29.6,50.6,29.3,50.2,29.3" class="st4"/><path d="M61.6,22.4h-1.4v3.2v0.9c0,0.7-0.3,1.1-1,1.1h0v-1c0-1.3-0.7-2-2.1-2h-0.3c-0.5,0-1,0-1.5,0.2v1.1   c0.1,0,0.4-0.1,1-0.1h0.5c0.4,0,1.1,0.1,1.1,0.7v1.1c0,0-2.7,0-2.7,0H55c-0.2,0-0.5,0-0.7,0l0,1.1c0.3,0,0.5,0,0.8,0h0.1h0.1h3.2   h0.8h0.1c1.5,0,2.3-0.8,2.3-2.2v-0.9V22.4z" class="st2"/><rect x="62.8" y="22.4" width="1.4" height="6.3" class="st1"/><path d="M48.7,28.7h-0.9c-0.1,1.3-0.9,2-2.3,2h-0.2v-1.2h0.1c0.7,0,1-0.4,1-1.1v-0.8v-0.2v-0.2v-0.3v-2.3h1.4v2.9h0.9   l0.2,0H49c0.7,0,1-0.4,1-1.1v-0.9v-0.9h1.4v0.9v0.9c0,1.5-0.8,2.2-2.3,2.2L48.7,28.7z" class="st4"/><rect x="38" y="26.9" width="1.4" height="1.4" transform="matrix(0.7071 -0.7071 0.7071 0.7071 -8.2128 35.4402)" class="st4"/><path d="M53.6,24c0.4,0,0.7-0.3,0.7-0.7c0-0.4-0.3-0.7-0.7-0.7c-0.4,0-0.7,0.3-0.7,0.7C52.9,23.7,53.2,24,53.6,24" class="st3"/><path d="M52.9,24.6v2.3v0.3v0.2v0.2v0.8c0,0.7-0.3,1.1-1,1.1h-0.1v1.2h0.2c1.4,0,2.2-0.7,2.3-2v-4H52.9z" class="st3"/></g></svg>