<svg xmlns="http://www.w3.org/2000/svg" width="70" height="70" version="1.1" viewBox="0 0 70 70"><g id="surface1"><path d="M 39.839844 36.15625 C 39.707031 37.589844 39.933594 38.964844 40.285156 40.347656 C 40.519531 41.253906 40.960938 42.039062 41.339844 42.863281 C 42.210938 44.089844 43.230469 45.15625 44.480469 46.007812 C 46.46875 47.371094 48.691406 48.234375 50.941406 49.050781 C 52.722656 49.699219 54.546875 50.253906 56.226562 51.160156 C 57.003906 51.574219 57.722656 52.0625 58.203125 52.828125 C 59.335938 54.617188 58.433594 57.214844 56.34375 58.160156 C 55.335938 58.621094 54.253906 58.792969 53.164062 58.847656 C 49.074219 59.039062 45.253906 58.066406 41.613281 56.257812 C 41.371094 56.132812 41.140625 55.960938 40.84375 55.917969 C 40.476562 58.386719 40.128906 60.828125 39.726562 63.269531 C 39.65625 63.710938 39.765625 63.886719 40.128906 64.066406 C 42.746094 65.363281 45.503906 66.195312 48.398438 66.597656 C 49.046875 66.6875 49.710938 66.667969 50.347656 66.855469 L 54.15625 66.855469 C 54.191406 66.761719 54.277344 66.78125 54.355469 66.773438 C 55.433594 66.714844 56.496094 66.539062 57.546875 66.289062 C 60.449219 65.589844 63.015625 64.285156 64.917969 61.902344 C 66.84375 59.488281 67.539062 56.675781 67.507812 53.644531 C 67.496094 51.527344 67.035156 49.523438 65.863281 47.726562 C 64.574219 45.75 62.714844 44.457031 60.644531 43.429688 C 58.308594 42.28125 55.808594 41.5625 53.375 40.664062 C 52.144531 40.210938 50.929688 39.695312 49.878906 38.875 C 47.992188 37.398438 48.464844 34.523438 50.289062 33.511719 C 51.152344 33.035156 52.074219 32.789062 53.042969 32.683594 C 55.984375 32.359375 58.871094 32.726562 61.722656 33.394531 C 62.820312 33.652344 63.902344 33.972656 65.019531 34.269531 C 65.375 31.867188 65.707031 29.480469 66.089844 27.113281 C 66.167969 26.625 66.027344 26.464844 65.609375 26.3125 C 62.835938 25.300781 59.972656 24.722656 57.039062 24.5 C 54.164062 24.285156 51.296875 24.390625 48.511719 25.234375 C 44.234375 26.535156 41.328125 29.195312 40.199219 33.617188 C 40.039062 34.246094 39.863281 35.9375 39.847656 36.148438 Z M 39.839844 36.15625" style="stroke:none;fill-rule:nonzero;fill:#af272f;fill-opacity:1"/><path d="M 40.449219 3.144531 C 40.484375 3.253906 40.582031 3.265625 40.671875 3.296875 C 42.535156 3.972656 43.441406 5.507812 43.203125 7.453125 C 42.898438 9.941406 42.636719 12.4375 42.355469 14.921875 C 42.046875 17.644531 41.738281 20.371094 41.433594 23.09375 C 41.171875 25.425781 40.945312 27.761719 40.660156 30.089844 C 40.335938 32.648438 39.941406 35.203125 39.625 37.765625 C 39.289062 40.542969 38.796875 43.277344 37.980469 45.953125 C 36.917969 49.4375 35.449219 52.722656 33.003906 55.488281 C 29.855469 59.046875 25.871094 60.648438 21.144531 60.402344 C 16.707031 60.171875 12.605469 58.894531 8.996094 56.25 C 5.511719 53.703125 3.417969 50.253906 2.628906 46.019531 C 2.449219 45.058594 2.355469 44.105469 2.894531 43.203125 C 3.6875 41.867188 5.335938 41.234375 6.808594 41.75 C 7.746094 42.074219 8.25 42.8125 8.527344 43.710938 C 8.746094 44.402344 8.867188 45.125 9.089844 45.816406 C 10.179688 49.191406 12.546875 51.351562 15.765625 52.644531 C 17.914062 53.507812 20.152344 53.921875 22.46875 53.660156 C 25.496094 53.316406 27.730469 51.683594 29.371094 49.1875 C 30.929688 46.816406 31.785156 44.164062 32.234375 41.394531 C 32.957031 36.964844 33.425781 32.503906 33.886719 28.039062 C 34.171875 25.253906 34.511719 22.464844 34.789062 19.671875 C 35.109375 16.496094 35.390625 13.324219 35.6875 10.148438 C 35.804688 8.917969 35.890625 7.683594 36.027344 6.457031 C 36.207031 4.765625 37.238281 3.621094 38.910156 3.214844 C 38.949219 3.203125 38.984375 3.167969 39.023438 3.144531 L 40.453125 3.144531 Z M 40.449219 3.144531" style="stroke:none;fill-rule:nonzero;fill:#1b365d;fill-opacity:1"/></g></svg>