<svg xmlns="http://www.w3.org/2000/svg" id="Layer_1" width="70" height="70" x="0" y="0" enable-background="new 0 0 70 70" version="1.1" viewBox="0 0 70 70" xml:space="preserve"><path fill="#DB2D32" d="M58.884,33.179v-0.272c0.149-0.06,0.303-0.153,0.45-0.214c0.273-0.151,0.301-0.151,0.392-0.151 c0,0-0.091,0.305-0.33,0.395C59.307,32.964,59.096,33.089,58.884,33.179L58.884,33.179z M58.884,31.732v-0.656 c0.752-0.335,1.538-0.727,2.314-1.121c0.422-0.237,0.422-0.056,0.246,0.031c-0.183,0.122-0.574,0.393-1.569,0.934 c-0.419,0.238-0.212,0.27,0.032,0.18c0.271-0.117,0.754-0.388,0.723-0.332c-0.03,0.091-0.062,0.151-1.173,0.692 C59.334,31.52,59.125,31.61,58.884,31.732L58.884,31.732z M58.884,30.046c4.242-2.041,5.776-3.514,6.013-3.696 c-1.983,0.778-3.997,1.502-6.013,2.165V30.046L58.884,30.046z M58.884,21.836v-0.902c1.116-0.541,2.168-1.203,3.159-1.922 C61.198,19.821,60.204,20.847,58.884,21.836L58.884,21.836z M58.884,19.763c2.314-1.262,4.332-2.949,5.957-4.962 c-1.836,1.17-3.82,2.101-5.957,2.767V19.763z M58.884,17.567v2.195c-0.63,0.332-1.292,0.663-1.954,0.933V18.05 C57.592,17.928,58.254,17.744,58.884,17.567L58.884,17.567z M58.884,20.934v0.902c-0.571,0.452-1.232,0.904-1.954,1.326v-1.326 C57.592,21.566,58.254,21.267,58.884,20.934L58.884,20.934z M58.884,28.515v1.531c-0.602,0.275-1.259,0.574-1.954,0.874v-1.777 C57.592,28.934,58.222,28.723,58.884,28.515L58.884,28.515z M58.884,31.077v0.656c-0.541,0.243-1.292,0.542-1.954,0.81v-0.657 C57.56,31.643,58.193,31.371,58.884,31.077L58.884,31.077z M58.884,32.907v0.272c-0.239,0.116-0.482,0.208-0.63,0.271 c-0.336,0.116-0.153-0.216-0.153-0.216S58.493,33.089,58.884,32.907L58.884,32.907z M56.93,34.231 c0.422-0.183,0.753-0.362,0.753-0.395c0-0.032-0.031-0.032,0.092-0.18c0.118-0.148,0.269-0.328-0.122-0.148 c-0.27,0.118-0.511,0.24-0.722,0.328V34.231L56.93,34.231z M56.93,32.964c0.814-0.358,1.324-0.57,1.352-0.598 c0.148-0.064,0.061-0.185-0.119-0.121c-0.722,0.268-1.082,0.361-1.233,0.39V32.964L56.93,32.964z M56.93,23.822v-0.148 c0.119-0.088,0.27-0.18,0.422-0.273c0.147-0.087,0.147,0.032,0.147,0.032l-0.147,0.121C57.352,23.553,57.11,23.703,56.93,23.822z M56.93,18.05v2.646c-0.271,0.087-0.509,0.206-0.782,0.3V18.2C56.421,18.166,56.659,18.108,56.93,18.05L56.93,18.05z M56.93,21.836 v1.326c-0.24,0.116-0.509,0.27-0.782,0.391V22.14C56.421,22.048,56.659,21.927,56.93,21.836L56.93,21.836z M56.93,23.673v0.148 c-0.09,0.029-0.15,0.058-0.209,0.088c-0.211,0.15-0.242,0.15-0.334,0.185c-0.087,0-0.025-0.153,0.092-0.185 C56.599,23.851,56.749,23.761,56.93,23.673L56.93,23.673z M56.93,29.143v1.777c-0.271,0.12-0.509,0.238-0.782,0.328v-1.866 C56.421,29.294,56.659,29.206,56.93,29.143L56.93,29.143z M56.93,31.885v0.657c-0.06,0.031-0.09,0.031-0.122,0.064 c-0.028,0-0.028,0.029,0.122,0.029v0.328c-0.24,0.09-0.483,0.215-0.782,0.332v-1.114C56.421,32.092,56.659,32.005,56.93,31.885 L56.93,31.885z M56.93,33.836v0.395c-0.24,0.12-0.509,0.236-0.782,0.329v-0.392C56.386,34.078,56.63,33.955,56.93,33.836 L56.93,33.836z M56.147,36.726v-0.272c0.239-0.116,0.483-0.27,0.692-0.422C56.72,36.157,56.509,36.395,56.147,36.726L56.147,36.726z M56.147,35.162v-0.154c0.121-0.026,0.239-0.09,0.3-0.09c0.121,0-0.026,0.09-0.026,0.09S56.299,35.101,56.147,35.162L56.147,35.162z M56.147,33.897c0.3-0.182,0.483-0.357,0-0.182V33.897L56.147,33.897z M56.147,24.245v-0.149 C56.268,24.06,56.237,24.185,56.147,24.245z M56.147,18.2v2.795c-1.17,0.422-2.403,0.75-3.702,0.959V18.56 C53.712,18.529,54.944,18.407,56.147,18.2L56.147,18.2z M56.147,22.14v1.413c-1.053,0.568-2.286,1.057-3.702,1.474v-1.865 C53.712,22.917,54.977,22.56,56.147,22.14L56.147,22.14z M56.147,24.095c-0.029,0.026-0.059,0.026-0.119,0.09 c-0.755,0.48-1.803,0.901-2.015,0.958c-0.211,0.092-0.152,0-0.152,0s0.418-0.33-0.239,0c-0.333,0.154-0.781,0.304-1.177,0.423v0.393 c2.289-0.756,3.552-1.624,3.672-1.687c0,0,0.029,0,0.029-0.027L56.147,24.095L56.147,24.095z M56.147,29.383v1.866 c-1.08,0.484-2.313,0.963-3.702,1.445V30.44C53.68,30.108,54.913,29.745,56.147,29.383L56.147,29.383z M56.147,32.182 c-1.442,0.545-2.707,0.934-3.702,1.237v1.292c1.416-0.48,2.71-0.996,3.702-1.416L56.147,32.182L56.147,32.182z M56.147,33.716v0.182 c-0.059,0.058-0.15,0.09-0.24,0.151c-0.116,0.061-1.564,0.692-2.195,0.869c-0.632,0.213-0.089,0.213,0.243,0.09 c0.239-0.09,0.419-0.055,2.193-0.84v0.392c-0.3,0.151-0.601,0.272-0.75,0.332c-0.213,0.09-1.505,0.569-2.952,1.113v-0.904 c1.177-0.39,2.588-0.87,3.552-1.297C56.056,33.779,56.118,33.747,56.147,33.716L56.147,33.716z M56.147,35.008 c-0.119,0.061-0.213,0.122-0.213,0.122s-0.177,0.183-0.087,0.183c0.029-0.032,0.18-0.091,0.3-0.151V35.008L56.147,35.008z M56.147,36.453v0.272c-0.692,0.658-1.894,1.656-3.702,2.827v-0.904C53.652,37.987,54.854,37.269,56.147,36.453L56.147,36.453z M52.446,40.784v-0.269c0.304-0.209,0.244-0.209,0.422-0.302c0.301-0.181,0.212-0.121,0.247-0.031 C53.114,40.247,52.749,40.545,52.446,40.784L52.446,40.784z M52.446,40.123c0.422-0.273,0.964-0.663,1.69-1.169 c0.144-0.125,0.45-0.394,0.359-0.454c-0.061-0.032-0.722,0.482-1.144,0.75c-0.421,0.303-0.66,0.422-0.904,0.576V40.123 L52.446,40.123z M52.446,37.448c0.669-0.358,1.326-0.722,1.957-1.082l0.272-0.209c0,0,0.303-0.242-0.241,0.055 c-0.631,0.363-1.293,0.695-1.988,1.023L52.446,37.448L52.446,37.448z M52.446,37.055c1.416-0.66,2.557-1.262,2.71-1.323 c0.211-0.151,1.173-0.75,0.058-0.212c-1.078,0.485-2.073,0.907-2.768,1.175V37.055L52.446,37.055z M52.446,36.543 c0.183-0.09,0.336-0.148,0.36-0.177c0.214-0.064,0.604-0.395,0.273-0.241c-0.092,0.032-0.33,0.15-0.634,0.271L52.446,36.543 L52.446,36.543z M52.446,27.55v-0.541c0.514-0.148,1.055-0.361,1.599-0.569c0.599-0.212,0.208,0.092,0.058,0.147 c-0.12,0.032-0.058,0.125,0.15,0.032c0.211-0.058,1.263-0.599,1.263-0.599s0.242,0-0.061,0.176 C55.307,26.288,54.103,26.892,52.446,27.55L52.446,27.55z M52.446,26.35v-0.211c0.605-0.18,1.055-0.36,1.144-0.422 c0.122-0.063,0.032,0.182-0.029,0.209C53.501,25.927,53.14,26.11,52.446,26.35L52.446,26.35z M52.446,25.447v-0.122 c0.213-0.058,0.244-0.09,0.244-0.09s0.177,0.122-0.087,0.183C52.566,25.418,52.508,25.447,52.446,25.447L52.446,25.447z M52.446,14.29v-0.421c0.213-0.121,0.336-0.211,0.336-0.211C52.69,13.869,52.566,14.078,52.446,14.29z M52.446,13.869v0.421 c-0.178,0.33-0.358,0.66-0.57,0.962V14.2C52.12,14.078,52.302,13.959,52.446,13.869L52.446,13.869z M52.446,18.56v3.395 c-0.178,0.032-0.358,0.064-0.57,0.064V18.56c0.032,0,0.06,0,0.122,0C52.148,18.56,52.302,18.56,52.446,18.56L52.446,18.56z M52.446,23.162v1.865c-0.178,0.06-0.358,0.09-0.57,0.149v-1.924C52.088,23.223,52.268,23.192,52.446,23.162L52.446,23.162z M52.446,25.325v0.122c-0.208,0.061-0.448,0.152-0.57,0.18v-0.154c0.032,0,0.06,0,0.06-0.027 C52.178,25.383,52.328,25.357,52.446,25.325L52.446,25.325z M52.446,25.567c-0.208,0.061-0.418,0.121-0.57,0.151v0.422 c0.212-0.064,0.392-0.119,0.57-0.18V25.567L52.446,25.567z M52.446,26.139v0.211c-0.178,0.063-0.358,0.121-0.57,0.182v-0.244 c0.122-0.028,0.245-0.06,0.362-0.092C52.302,26.164,52.386,26.164,52.446,26.139L52.446,26.139z M52.446,27.009v0.541 c-0.178,0.061-0.358,0.152-0.57,0.215v-0.576C52.057,27.163,52.268,27.073,52.446,27.009L52.446,27.009z M52.446,30.44v2.254 c-0.178,0.061-0.358,0.124-0.57,0.214v-2.319C52.088,30.559,52.268,30.498,52.446,30.44L52.446,30.44z M52.446,33.419v1.292 c-0.178,0.09-0.358,0.148-0.57,0.206v-1.352C52.057,33.508,52.237,33.476,52.446,33.419L52.446,33.419z M52.446,35.101v0.904 c-0.178,0.09-0.358,0.151-0.57,0.241v-0.965C52.057,35.222,52.237,35.162,52.446,35.101L52.446,35.101z M52.446,36.395v0.148 c-0.178,0.064-0.358,0.151-0.57,0.21v-0.145C52.088,36.514,52.268,36.453,52.446,36.395L52.446,36.395z M52.446,36.695 c-0.208,0.093-0.418,0.149-0.57,0.212v0.388c0.212-0.06,0.392-0.146,0.57-0.239V36.695L52.446,36.695z M52.446,37.235v0.213 c-0.178,0.092-0.358,0.182-0.57,0.268v-0.208C52.057,37.419,52.268,37.323,52.446,37.235L52.446,37.235z M52.446,38.649v0.904 c-0.178,0.119-0.358,0.241-0.57,0.361v-0.959C52.057,38.861,52.268,38.768,52.446,38.649L52.446,38.649z M52.446,39.826 c-0.178,0.087-0.326,0.206-0.57,0.328v0.298c0.152-0.09,0.362-0.206,0.57-0.33V39.826L52.446,39.826z M52.446,40.515v0.269 c-0.208,0.15-0.388,0.27-0.448,0.302c-0.063,0.032-0.09,0.032-0.122,0.032v-0.211c0.087-0.061,0.212-0.151,0.452-0.335 C52.355,40.545,52.418,40.545,52.446,40.515L52.446,40.515z M51.875,28.367v-0.214c0.032,0,0.06-0.032,0.087-0.032 c0.423-0.15,0.339,0.064,0.094,0.154C52.027,28.275,51.963,28.303,51.875,28.367L51.875,28.367z M51.875,26.948v-0.117 c0.087-0.029,0.152-0.029,0.182-0.063c0.063-0.028,0.063,0.034,0.121,0.034c0.059,0-0.151,0.119-0.271,0.146H51.875z M51.875,14.2 v1.052c-0.689,1.113-1.531,2.161-2.461,3.127v-3.063C50.462,14.95,51.303,14.525,51.875,14.2L51.875,14.2z M51.875,18.56v3.459 c-0.811,0.12-1.621,0.18-2.461,0.18v-3.763C50.223,18.529,51.064,18.56,51.875,18.56L51.875,18.56z M51.875,23.252v1.924 c-0.75,0.182-1.563,0.362-2.403,0.512c-0.032,0-0.032,0-0.058,0v-2.165C50.255,23.461,51.064,23.368,51.875,23.252L51.875,23.252z M51.875,25.474c-0.901,0.214-1.922,0.334-2.461,0.393v1.322c0.987-0.205,1.829-0.449,2.461-0.657v-0.244 c-0.66,0.183-1.413,0.36-1.621,0.36c-0.243,0.029-0.121-0.061,0.75-0.268c0.298-0.093,0.603-0.153,0.87-0.241v-0.422 c-0.088,0.027-0.177,0.061-0.209,0.061c-0.18,0.029,0.061-0.124,0.151-0.152c0.029,0,0.029,0,0.058,0L51.875,25.474L51.875,25.474z M51.875,26.831v0.117c-0.116,0.061-0.209,0.061-0.267,0.061c-0.063-0.025,0.026-0.087,0.026-0.087S51.759,26.86,51.875,26.831 L51.875,26.831z M51.875,27.189v0.576c-0.75,0.264-1.59,0.57-2.461,0.811v-1.143c0.539-0.121,1.138-0.245,1.743-0.392 c0.477-0.12,0.451,0.032-0.062,0.181c-0.329,0.122-1.142,0.327-1.142,0.327s-0.453,0.215,0.18,0.12 C50.462,27.61,51.095,27.462,51.875,27.189L51.875,27.189z M51.875,28.153c-0.933,0.331-1.775,0.543-2.461,0.694v0.602 c1.259-0.485,2.101-0.906,2.461-1.082V28.153L51.875,28.153z M51.875,30.588v2.319c-0.267,0.086-0.542,0.182-0.84,0.272 c-0.483,0.181-1.023,0.328-1.621,0.509v-2.44C50.255,31.04,51.064,30.833,51.875,30.588L51.875,30.588z M51.875,33.566 c-1.082,0.304-1.742,0.451-1.832,0.483c-0.181,0.119,0.03,0.093-0.272,0.243c-0.092,0.027-0.21,0.09-0.357,0.15v2.707 c0.686-0.242,1.56-0.573,2.461-0.902v-0.965c-0.811,0.238-1.442,0.45-1.563,0.482c-0.12,0.061-0.239-0.032-0.239-0.032 s-0.27,0.032-0.512,0.093c-0.211,0.024-0.088-0.125,0.328-0.244c0.692-0.211,1.354-0.45,1.986-0.663L51.875,33.566L51.875,33.566z M51.875,36.608v0.145c-0.299,0.154-0.572,0.273-0.572,0.273s-0.088,0.122,0.093,0.063c0.055-0.035,0.238-0.096,0.48-0.183v0.388 c-0.599,0.301-1.262,0.601-1.895,0.845c-0.149,0.059-0.36,0.151-0.566,0.241v-0.842C49.831,37.384,50.974,36.933,51.875,36.608 L51.875,36.608z M51.875,37.507c-0.87,0.421-1.742,0.784-2.461,1.053v0.333c0.84-0.361,1.681-0.753,2.461-1.178V37.507 L51.875,37.507z M51.875,38.954v0.959c-0.718,0.449-1.531,0.933-2.461,1.413v-1.144C50.255,39.794,51.064,39.4,51.875,38.954 L51.875,38.954z M51.875,40.155c-0.058,0.058-0.116,0.092-0.177,0.151c-0.573,0.384-1.444,0.839-2.284,1.259v0.483 c0.448-0.209,1.02-0.541,1.436-0.779c0.184-0.124,0.483-0.335,0.483-0.335s0.118-0.177,0.542-0.448c0,0,0,0,0-0.033L51.875,40.155 L51.875,40.155z M51.875,40.908c-0.088,0.055-0.088,0.087-0.088,0.087s0.03,0.092,0.088,0.124V40.908L51.875,40.908z M49.414,42.862 c0.84-0.483,1.621-0.994,2.373-1.567c0.12-0.087-0.211-0.271-0.362-0.15c-0.122,0.124-1.233,0.693-2.011,1.054L49.414,42.862 L49.414,42.862z M49.414,37.384c0.058-0.029,0.086-0.029,0.116-0.061c0.211-0.087,0.121-0.144,0.06-0.087 c-0.029,0-0.09,0.034-0.176,0.06V37.384L49.414,37.384z M49.414,34.231v-0.122l0.206-0.061c0.12,0,0.09,0.029-0.059,0.119 C49.561,34.168,49.5,34.2,49.414,34.231z M48.63,42.438c0.028-0.029,0.06-0.029,0.088-0.029c0.091-0.057,0.152,0,0.152,0v0.061 c0,0-0.122,0.058-0.24,0.119v0.695c0.271-0.119,0.538-0.278,0.784-0.422v-0.663c-0.09,0.061-0.214,0.093-0.304,0.152 c-0.24,0.057-0.24,0-0.24,0s0.24-0.124,0.544-0.304v-0.483c-0.275,0.152-0.544,0.273-0.784,0.39L48.63,42.438L48.63,42.438z M49.414,15.317v3.063c0,0-0.033,0.028-0.064,0.057c0.031,0,0.064,0,0.064,0v3.763c-0.064,0-0.154,0-0.214,0 c-0.215,0-0.391,0-0.57,0v-6.648C48.901,15.492,49.168,15.402,49.414,15.317L49.414,15.317z M49.414,23.523v2.165 C48.537,25.835,49.02,25.9,49.02,25.9s0.149,0,0.394-0.032v1.322c-0.246,0.06-0.513,0.124-0.784,0.183V25.9 c0.06,0,0.088-0.032,0.06-0.032c-0.032,0-0.032,0-0.06-0.032v-2.282C48.901,23.553,49.168,23.553,49.414,23.523L49.414,23.523z M49.414,27.433v1.143c-0.246,0.058-0.513,0.119-0.784,0.183V27.55C48.901,27.523,49.139,27.462,49.414,27.433L49.414,27.433z M49.414,28.846v0.602c-0.246,0.09-0.513,0.206-0.784,0.296v-0.75C48.87,28.963,49.139,28.908,49.414,28.846L49.414,28.846z M49.414,31.248v2.44c-0.246,0.091-0.513,0.148-0.784,0.238v-2.466C48.901,31.402,49.168,31.312,49.414,31.248L49.414,31.248z M49.414,34.109v0.122c-0.064,0-0.154,0.028-0.214,0.028c-0.151,0.032,0.029-0.118,0.029-0.118L49.414,34.109L49.414,34.109z M49.414,34.441v2.707c-0.336,0.12-0.605,0.235-0.784,0.299v-1.145c0.088-0.028,0.179-0.055,0.24-0.09 c0.48-0.207,0.298-0.297,0.298-0.297c-0.09-0.067-0.149,0-0.45,0.09c-0.028,0-0.06,0-0.088,0v-1.327 C48.931,34.588,49.2,34.496,49.414,34.441L49.414,34.441z M49.414,37.295c-0.185,0.06-0.513,0.181-0.784,0.271v1.112 c0.271-0.09,0.538-0.209,0.784-0.296v-0.842c-0.033,0.026-0.09,0.057-0.122,0.057c-0.391,0.151-0.816,0.241,0.122-0.212V37.295 L49.414,37.295z M49.414,38.56v0.333c-0.246,0.116-0.513,0.237-0.784,0.329v-0.329C48.87,38.803,49.139,38.678,49.414,38.56 L49.414,38.56z M49.414,40.182v1.144c-0.246,0.148-0.513,0.27-0.784,0.422v-1.203C48.901,40.422,49.168,40.306,49.414,40.182 L49.414,40.182z M48.63,34.528c0.271-0.032,0.751-0.45,0-0.177V34.528z M48.42,42.56c0-0.032,0.118-0.09,0.211-0.122v-0.483 c-0.724,0.337-1.264,0.573-1.295,0.573c-0.121,0,0.208-0.236,0.208-0.236c0.363-0.184,0.725-0.365,1.087-0.544v-1.203 c-1.656,0.75-3.463,1.442-5.536,2.134v3.008c1.655-0.571,3.644-1.382,5.536-2.403v-0.695c-0.029,0-0.029,0.032-0.064,0.032 C48.42,42.679,48.388,42.621,48.42,42.56L48.42,42.56z M48.63,15.552v6.647c-1.264-0.032-2.494-0.18-3.703-0.453 c-0.6,0.33-1.199,0.634-1.833,0.875v-6.467c0.393,0.032,0.784,0.032,1.146,0.032C45.922,16.186,47.395,15.913,48.63,15.552 L48.63,15.552z M48.63,23.553v2.282c0,0,0-0.027-0.064,0c-0.058,0-0.419,0.032-0.419,0.032s-0.093,0.06-0.06,0.092 c0.06,0.029,0.148,0.029,0.301,0c0.088,0,0.179-0.032,0.243-0.06v1.473c-0.395,0.061-0.812,0.151-1.264,0.21 c-0.66,0.088-1.565,0.183-1.565,0.183s-0.361,0.18,0.092,0.15c0.39-0.063,1.38-0.12,2.737-0.365v1.209 c-0.395,0.087-0.783,0.175-1.177,0.236c-0.478,0.09-0.18,0.239,0.032,0.181c0.12-0.032,0.512-0.06,1.145-0.181v0.75 c-1.475,0.544-3.37,1.143-5.536,1.626v-3.309c1.384-1.59,2.496-3.187,3.189-4.539c0.51,0.03,1.083,0.062,1.624,0.062 C48.147,23.585,48.388,23.585,48.63,23.553L48.63,23.553z M48.63,31.46v2.466c-1.596,0.455-3.37,0.906-4.69,1.236 c-0.305,0.06-0.571,0.119-0.846,0.208v-2.587c0.875-0.21,1.596-0.39,2.136-0.509C46.374,32.005,47.517,31.732,48.63,31.46 L48.63,31.46z M48.63,34.351v0.177l0,0c-0.27,0.06-1.025,0.364-1.025,0.364s-0.062,0.061,0.362-0.032 c0.209-0.058,0.452-0.119,0.663-0.182v1.328c-0.453,0.119-2.108,0.57-3.911,0.989c-0.331,0.096,0.151,0.36,0.692,0.241 c1.381-0.363,2.611-0.721,3.219-0.933v1.145c-0.122,0.028-0.211,0.059-0.243,0.092c-0.541,0.148-0.333,0.208-0.09,0.148 c0.063-0.032,0.179-0.058,0.333-0.122v1.112c-0.875,0.362-1.776,0.723-1.717,0.723c0.121,0,0.242,0,0.813-0.179 c0.12-0.061,0.45-0.182,0.904-0.329v0.329c-1.686,0.721-3.489,1.381-5.536,2.013v-5.503c2.647-0.663,5.054-1.204,5.472-1.351 C48.566,34.351,48.601,34.351,48.63,34.351L48.63,34.351z M43.094,46.86v-0.27c0.18-0.061,0.333-0.121,0.45-0.18 c0.334-0.122,0.455-0.122,0.365,0.059C43.847,46.56,43.457,46.709,43.094,46.86z M43.094,16.154v6.467 c-1.323,0.541-2.707,0.964-4.177,1.172v-2.765c0.871,0.029,1.861,0.029,2.883-0.181c-1.022-0.394-1.953-0.876-2.883-1.415v-3.909 C40.116,15.763,41.56,16.064,43.094,16.154L43.094,16.154z M43.094,28.061v3.31c-1.294,0.272-2.707,0.479-4.177,0.604V31.94 C40.477,30.802,41.893,29.448,43.094,28.061L43.094,28.061z M43.094,32.783v2.587c-1.622,0.393-3.003,0.786-4.177,1.144v-2.678 C40.508,33.419,41.921,33.054,43.094,32.783L43.094,32.783z M43.094,35.732c-1.381,0.334-2.887,0.721-4.177,1.082v5.685 c1.5-0.422,2.883-0.843,4.177-1.263V35.732L43.094,35.732z M43.094,42.679v3.008c-0.963,0.333-1.804,0.601-2.437,0.814 c-0.48,0.144-1.08,0.298-1.74,0.478v-2.973c0.147-0.064,0.297-0.092,0.448-0.156C40.72,43.464,41.953,43.071,43.094,42.679 L43.094,42.679z M43.094,46.59c-0.36,0.119-0.75,0.27-0.75,0.27s-0.182,0.387,0.093,0.272c0.119-0.032,0.388-0.153,0.657-0.272 V46.59L43.094,46.59z M38.917,49.627v-0.391c0,0,0,0,0.026,0c0.483-0.148,2.316-0.962,2.467-1.082c0.181-0.09,0,0.18-0.334,0.39 C40.72,48.759,40.144,49.088,38.917,49.627L38.917,49.627z M38.917,49.056c0.208-0.09,0.42-0.181,0.538-0.209 c0.304-0.119,0.689-0.452,0.27-0.272c-0.148,0.06-0.48,0.185-0.808,0.272V49.056L38.917,49.056z M38.917,48.574v-0.452 c1.051-0.329,2.104-0.692,3.154-1.112c0,0,0.304,0.147-0.15,0.365C41.56,47.554,40.657,47.973,38.917,48.574L38.917,48.574z M38.917,29.027c0.026,0,0.026-0.032,0.026-0.032s0,0-0.026,0V29.027L38.917,29.027z M38.917,26.86v-1.924 c1.26-0.063,2.525-0.272,3.694-0.576l0.09-0.026C41.649,25.235,40.359,26.139,38.917,26.86z M38.917,15.523v3.909 c-0.335-0.18-0.666-0.394-0.993-0.632c-0.213-0.149-0.422-0.3-0.666-0.452c-1.563-1.112-2.524-0.964-2.735-0.964 c-0.755,0.064-1.323,0.604-1.323,1.361v0.081c0,0.452,0.391,0.817,0.874,0.817c0.48,0,0.871-0.391,0.871-0.843 c0-0.3-0.15-0.544-0.33-0.692c0.148-0.058,0.33-0.058,0.51-0.058c0.93,0,1.687,0.75,1.687,1.652c0,0.363-0.092,0.663-0.272,0.931 c0,0,0.99,0.301,2.377,0.394v2.765c-0.993,0.177-2.048,0.267-3.101,0.267c-1.355,0-2.678-0.15-3.939-0.418v-2.138 c0.694,0.151,1.443,0.214,2.197,0.214c0.087,0,0.179,0,0.296,0c-0.869-0.124-1.71-0.36-2.493-0.723v-3.277 c0.211-0.873,0.84-1.629,1.653-2.046c0.631-0.304,1.924-0.872,5.205-0.181C38.793,15.492,38.854,15.492,38.917,15.523L38.917,15.523 z M38.917,24.937c-0.301,0-0.603,0.03-0.906,0.03c-2.164,0-4.208-0.393-6.134-1.057v2.138c1.203,0.24,2.348,0.392,3.068,0.449 c-0.871,0.576-1.957,0.937-3.068,1.114v1.053c2.4,0.032,4.87-0.719,7.04-1.803L38.917,24.937L38.917,24.937z M38.917,28.995v0.032 c-3.253,0.692-5.506,2.344-7.04,3.219V30.26C33.349,29.69,35.394,28.908,38.917,28.995L38.917,28.995z M38.917,31.94 c0,0.035-0.033,0.035-0.033,0.035h0.033V31.94L38.917,31.94z M38.917,33.836v2.678c-0.845,0.273-1.569,0.512-2.197,0.721 c0,0-0.484,0.394,0.389,0.087c0.542-0.144,1.143-0.328,1.809-0.509v5.685c-1.778,0.483-3.735,0.992-5.897,1.534 c-0.389,0.09-0.786,0.18-1.143,0.272v-8.363c0.81-0.269,1.653-0.571,2.493-0.811C35.938,34.648,37.502,34.2,38.917,33.836 L38.917,33.836z M38.917,44.006c-2.197,0.628-4.64,1.26-7.04,1.951v2.316c2.886-0.422,5.262-0.872,7.04-1.294L38.917,44.006 L38.917,44.006z M38.917,48.122v0.452c-0.272,0.121-0.603,0.211-0.932,0.333c-0.483,0.148-0.455,0.359-0.241,0.297 c0.116-0.023,0.66-0.177,1.173-0.358v0.209c-0.243,0.09-0.483,0.18-0.391,0.18c0.09,0-0.091,0.147,0.391,0v0.391 c-0.603,0.269-1.356,0.572-2.318,0.963c-1.326,0.51-2.89,1.081-4.722,1.537v-2.35C34.461,49.297,36.688,48.814,38.917,48.122z M31.877,17.719v3.277c-0.723-0.335-1.384-0.75-1.986-1.233c0.273-0.782,1.023-1.326,1.894-1.355 C31.785,18.166,31.815,17.96,31.877,17.719L31.877,17.719z M31.877,21.504c-1.476-0.297-2.826-0.871-4.18-1.472 c-0.875-0.39-1.656-0.573-2.225-0.541c-1.025,0.031-1.867,0.573-2.259,1.323c-0.24,0.512-0.272,0.84-0.24,1.112 c0.031,1.021,0.935,1.746,1.897,1.746c0.989,0,1.803-0.756,1.803-1.686c0-0.151-0.032-0.297-0.061-0.449 c0.209,0.33,0.332,0.696,0.332,1.083c-0.029,0.989-0.781,1.772-1.893,1.832c-0.273,0-0.545-0.028-0.782-0.118 c-0.061,0.211-0.061,0.448-0.061,0.659c0,1.234,0.809,2.255,1.924,2.617c-0.182-0.266-0.301-0.569-0.301-0.933 c0-0.75,0.544-1.352,1.294-1.502c0.66-0.117,1.264-0.089,3.129,0.48c0.51,0.153,1.085,0.304,1.624,0.393V23.91 c-0.574-0.207-1.144-0.449-1.713-0.718c0.569,0.176,1.139,0.33,1.713,0.45L31.877,21.504L31.877,21.504z M31.877,27.61v1.053 c-0.484-0.029-0.994-0.053-1.476-0.149c-2.014-0.304-3.097-1.387-3.303-2.165c0,0,1.079,1.112,3.007,1.294 C30.675,27.702,31.274,27.702,31.877,27.61L31.877,27.61z M31.877,30.26v1.986c-0.092,0.057-0.179,0.121-0.269,0.148 c-0.694,0.39-1.596,0.599-2.168,0.631c-1.743,0.09-3.04-1.05-3.128-2.527c0-0.452,0.087-0.898,0.329-1.292 c0.457,1.054,1.597,2.107,3.76,1.563C30.853,30.652,31.338,30.472,31.877,30.26L31.877,30.26z M31.877,35.942v8.363 C20.96,47.157,11.604,51.733,4.207,58.922C10.284,48.335,20.118,40.213,31.877,35.942L31.877,35.942z M31.877,45.957 c-3.61,1.083-7.247,2.347-10.289,4.215c0,0,2.831-0.847,9.956-1.838c0.122-0.03,0.211-0.03,0.333-0.061L31.877,45.957L31.877,45.957 z M31.877,49.777c-1.352,0.275-2.826,0.512-4.421,0.781c-6.919,1.237-9.747,3.399-9.747,3.399c4.212-0.809,7.342-0.601,11.854-1.356 c0.809-0.112,1.592-0.297,2.315-0.474L31.877,49.777L31.877,49.777z"/></svg>