<svg xmlns="http://www.w3.org/2000/svg" width="160" height="160" version="1.1" viewBox="0 0 160 160"><title/><desc/><g id="SVG_SQUARE" fill="none" fill-rule="evenodd" stroke="none" stroke-width="1"><rect width="160" height="160" x="0" y="0" fill="#FF7B00"/><g id="mango-airlines-vector-logo" transform="translate(3.000000, 44.000000)"><g id="g7991" transform="translate(0.258062, 0.406846)"><g id="g6880" transform="translate(71.407961, 37.174284) scale(-1, 1) rotate(-180.000000) translate(-71.407961, -37.174284) translate(1.238606, 12.956542)"><g id="g6882-Clipped" transform="translate(-0.000000, 0.000000)"><g id="g6882" transform="translate(0.620968, 0.931452)"><g id="g6888" fill="#FFF" transform="translate(2.130075, 10.120998)"><path id="path6890" d="M6.20967742,3.10483871 L1.51981855,9.18100806 C1.51981855,9.18100806 -1.36457661,13.204879 4.40576613,18.835504 C4.40576613,18.835504 6.60709677,21.5180847 11.953629,21.1113508 C11.953629,21.1113508 11.6384879,26.0495968 17.7239718,29.93375 C17.7239718,29.93375 25.8260484,33.9855645 30.7084073,22.0552218 C30.7084073,22.0552218 31.743871,18.6150605 31.1337702,13.6845766 C31.1337702,13.6845766 30.9940524,11.8449597 29.4882056,11.7331855 C29.4882056,11.7331855 27.7774395,11.5111895 27.6749798,13.7870363 C27.6749798,13.7870363 28.7942742,19.5014919 24.6229234,23.0534274 C24.6229234,23.0534274 21.0539113,26.4935887 18.2781855,22.3874395 C18.2781855,22.3874395 15.8921169,18.7252823 20.8598589,12.9533871 C20.8598589,12.9533871 22.3672581,10.9569758 20.6564919,9.18100806 C20.6564919,9.18100806 19.4425,7.62703629 17.1977016,9.29122984 L12.7205242,13.8879435 C12.7205242,13.8879435 10.6573589,15.7834476 9.36419355,14.0913105 C9.36419355,14.0913105 7.69844758,12.7313911 8.73391129,10.8452016 L12.3960685,6.0559879 C12.3960685,6.0559879 13.5076008,3.48362903 11.953629,2.39227823 C11.953629,2.39227823 9.39989919,0.136612903 7.06971774,2.4947379 L6.20967742,3.10483871 Z"/></g><g id="g6892" fill="#FFF" fill-rule="nonzero" transform="translate(34.194520, 15.756280)"><path id="path6894" d="M23.2862903,6.20967742 L20.8443347,6.43167339 C16.1839718,7.09766129 19.8259476,13.8677621 19.8259476,13.8677621 C20.5850806,16.3267944 18.402379,17.9723589 18.402379,17.9723589 L17.8481653,18.528125 C12.6320363,25.0389718 6.09324597,20.3025403 6.09324597,20.3025403 C-1.66574597,13.4222177 2.75554435,6.65211694 2.75554435,6.65211694 C6.33387097,1.5958871 12.5031855,4.28622984 12.5031855,4.28622984 C13.4827621,4.8047379 14.5166734,3.98195565 14.5166734,3.98195565 C16.9601815,0.974919355 20.2342339,1.13326613 20.2342339,1.13326613 C24.0997581,0.827439516 25.50625,3.21350806 25.50625,3.21350806 C26.9111895,6.00631048 23.2862903,6.20967742 23.2862903,6.20967742 M13.1132863,12.868004 L11.0796169,9.53961694 C11.0796169,9.53961694 9.84854839,7.76364919 7.97012097,9.20584677 C7.97012097,9.20584677 6.51084677,10.3717137 8.08189516,12.1197379 L10.7458468,14.8659677 C10.7458468,14.8659677 13.4175605,15.9743952 13.1132863,12.868004"/></g><g id="g6896" fill="#FFF" transform="translate(57.404897, 22.092169)"><path id="path6898" d="M4.65725806,18.6290323 C4.65725806,18.6290323 14.0990726,21.7369758 19.4067944,14.8566532 C19.4067944,14.8566532 21.1641331,13.3026815 20.386371,8.41877016 L18.8976008,1.91879032 C18.8976008,1.91879032 17.3265524,-0.383447581 16.2817742,2.01969758 L16.391996,8.63300403 C16.391996,8.63300403 16.1156653,12.5808065 11.3699194,13.108629 C11.3699194,13.108629 7.81177419,13.5153629 7.70931452,9.44647177 L7.70931452,3.42618952 C7.70931452,3.42618952 7.29326613,1.71542339 5.18352823,1.71542339 C5.18352823,1.71542339 2.63135081,1.95604839 2.52112903,3.87018145 L1.74336694,11.8604839 C1.74336694,11.8604839 -1.09445565,17.6572177 3.40756048,18.7408065 L4.65725806,18.6290323 Z"/></g><g id="g6900" fill="#FFF" fill-rule="nonzero" transform="translate(73.600978, 4.006329)"><path id="path6902" d="M26.391129,24.8387097 C26.5013508,26.9484476 24.6803629,27.123871 24.6803629,27.123871 L24.5779032,28.6126411 L24.476996,29.3888508 C24.1711694,31.9425806 21.0197581,32.1630242 21.0197581,32.1630242 C7.43143145,32.9314718 6.97967742,24.5064919 6.97967742,24.5064919 C6.76544355,13.0744758 17.5578629,14.5182258 17.5578629,14.5182258 C19.3804032,14.4064516 18.1788306,12.0669556 18.1788306,12.0669556 C14.1829032,3.51157258 3.31596774,3.97419355 3.31596774,3.97419355 C-0.447096774,3.75219758 2.40004032,1.79149194 2.40004032,1.79149194 C4.93514113,0.386552419 7.08058468,0.31203629 7.08058468,0.31203629 C15.015,0.31203629 17.6603226,3.08620968 17.6603226,3.08620968 C27.5740726,10.1900806 26.391129,24.8387097 26.391129,24.8387097 M16.7366331,19.5946371 C16.7366331,19.5946371 12.9627016,20.0479435 12.8509274,23.0534274 C12.8509274,23.0534274 13.1846976,25.1709274 16.9477621,25.1709274 L17.5578629,25.0607056 C17.5578629,25.0607056 20.915746,25.0607056 20.8132863,22.1747581 C20.8132863,22.1747581 21.175,18.6802621 16.7366331,19.5946371"/></g><g id="g6904" fill="#FFF" transform="translate(101.107986, 9.551571)"><path id="path6906" d="M1.55241935,18.6290323 C1.55241935,18.6290323 0.55266129,24.9551411 12.5388911,31.059254 C12.5388911,31.059254 18.0887903,35.053629 22.5287097,31.3914718 C22.5287097,31.3914718 24.081129,29.7179637 25.968871,29.3112298 C25.968871,29.3112298 40.6175,23.3825403 31.7392137,8.085 C31.7392137,8.085 25.746875,0.232862903 13.648871,1.64866935 C13.648871,1.64866935 -0.333770161,2.96201613 1.55241935,18.6290323"/></g><g id="g6908" fill="#FFF" fill-rule="nonzero" transform="translate(0.458429, 0.387329)"><path id="path6910" d="M136.612903,31.0483871 C134.296694,37.8091734 127.498649,40.6252621 127.211452,40.7416935 L127.015847,40.8224194 L126.810927,40.8658871 C125.910524,41.0599395 124.913871,41.9386089 124.635988,42.2320161 L124.522661,42.3484476 L124.409335,42.4431452 C122.717198,43.8387702 120.744073,44.5466734 118.545847,44.5466734 C115.158468,44.5466734 112.36256,42.8359073 111.608085,42.3267137 C104.704476,38.7809879 101.683468,35.0458669 100.377883,32.1863105 C100.306472,32.2453024 100.238165,32.3073992 100.165202,32.3617339 L100.162097,32.3958871 L100.155887,32.4735081 L100.146573,32.551129 L100.047218,33.3025 C99.6715323,36.4321774 96.8228427,38.0466935 94.3001613,38.2252218 C93.6745363,38.259375 93.055121,38.278004 92.4620968,38.278004 C85.8984677,38.278004 82.0438105,36.0518347 79.9201008,33.5105242 C79.7012097,36.1667137 78.7262903,37.5949395 78.2108871,38.1584677 C75.4739718,41.6389919 71.4376815,43.4786089 66.5320363,43.4786089 C64.1971976,43.4786089 62.2582258,43.0501411 61.3640323,42.8095161 L60.5691935,42.8809274 L60.1702218,42.9166331 L59.7836694,42.8234879 C57.4954032,42.2739315 56.421129,40.8969355 55.9228024,39.8366331 C54.7010484,37.2409879 55.7644556,34.1609879 56.2953831,32.9237097 L57.0327823,25.3541129 C57.0700403,24.8557863 57.2051008,24.4133468 57.3789718,23.9988508 C57.3060081,24.0050605 57.2268347,24.014375 57.1802621,24.0159274 L54.8873387,24.2239516 C54.7864315,24.2410282 54.718125,24.2596573 54.6762097,24.2751815 C54.5007863,24.8775202 55.0037702,26.7373185 55.7194355,28.0832661 L55.8312097,28.2943952 L55.8995161,28.5148387 C56.8589113,31.6289919 55.0751815,34.1051008 53.7633871,35.1747177 L53.4032258,35.534879 C50.5421169,39.0402419 47.3037702,39.780746 45.0807056,39.780746 C41.4387298,39.780746 38.6956048,37.8712702 38.3959879,37.6539315 L38.2966331,37.5825202 L38.2050403,37.5033468 C36.5392944,36.0238911 35.3547984,34.5071774 34.5102823,33.0106452 C30.9272984,41.4868548 25.5404032,42.7753629 22.6218548,42.7753629 C20.2140524,42.7753629 18.4908669,41.9494758 18.3014718,41.8547782 L18.1881452,41.7973387 L18.0794758,41.7290323 C13.7094153,38.9393347 12.0964516,35.5752419 11.5096371,33.2962903 C7.10852823,33.0028831 4.86683468,30.8729637 4.30485887,30.2566532 C-2.80056452,23.2676613 1.03546371,17.7224194 1.20467742,17.4895565 L1.22951613,17.4554032 L1.25590726,17.42125 L5.94421371,11.3435282 L6.16620968,11.0547782 L6.46272177,10.8436492 L7.17217742,10.3422177 C8.30389113,9.27104839 9.65760081,8.70596774 11.1060081,8.70596774 C13.1365726,8.70596774 14.6501815,9.80352823 15.129879,10.1978427 C17.2271976,11.7580242 17.2411694,14.600504 16.3112702,16.7552621 L16.1917339,17.0331452 L16.0085484,17.2706653 L12.5218145,21.830121 C12.5388911,21.8611694 12.5637298,21.8953226 12.590121,21.9279234 C12.6351411,21.896875 12.6817137,21.8658266 12.7205242,21.8332258 L17.1185282,17.3187903 L17.2566935,17.1759677 L17.4165927,17.0595363 C18.5343347,16.2305444 19.6846774,15.8098387 20.8350202,15.8098387 C22.3470766,15.8113911 23.5160484,16.5487903 24.1494355,17.2815323 C26.5665524,19.8632056 25.428629,22.9028427 24.4801008,24.1603024 L24.4335282,24.2208468 L24.3838508,24.2798387 C21.001129,28.2105645 21.8860081,30.5205645 22.0319355,30.8341532 C22.4324597,31.4054435 22.8143548,31.6941935 23.166754,31.6941935 C23.7007863,31.6941935 24.3760887,31.2315726 24.621371,31.0095766 L24.6788105,30.9567944 L24.7114113,30.9272984 C27.7091331,28.375121 26.9779435,24.1525403 26.9484476,23.9724597 L26.8941129,23.6868145 L26.9065323,23.4120363 C27.0431452,20.3925806 29.1435685,19.0155847 31.040625,19.0155847 C31.2657258,19.0155847 31.4147581,19.0342137 31.4597782,19.038871 C32.7886492,19.172379 33.7495968,19.8802823 34.3783266,20.7946573 C34.4000605,20.760504 34.4217944,20.7185887 34.4435282,20.6844355 L34.4683669,20.6471774 L34.4947581,20.6099194 C36.3995766,17.9180242 39.17375,16.4944556 42.5192137,16.4944556 C44.4814718,16.4944556 46.1084073,16.9958871 46.8318347,17.2613508 C49.6665524,14.2170565 53.1796774,14.0540524 53.8875806,14.0540524 L53.9108669,14.0540524 C54.1639113,14.0369758 54.4076411,14.0292137 54.6436089,14.0292137 C59.2636089,14.0292137 61.1497984,17.0005444 61.3500605,17.3405242 L61.3904234,17.4103831 L61.4276815,17.4833468 C62.1806048,18.9829839 62.0765927,20.1892137 61.8049194,20.9995766 C61.8344153,20.9964718 61.8670161,20.9871573 61.8980645,20.9856048 L62.0129435,20.9731855 L62.129375,20.9731855 C64.8973387,20.9731855 66.6127621,22.829879 67.0303629,24.5515121 L67.1002218,24.8356048 L67.1002218,25.1290121 L67.0986694,31.0903024 C67.1297177,32.2887702 67.5131653,32.3803629 68.0471976,32.3850202 C70.3370161,32.1319758 70.7996371,30.7596371 70.8943347,30.2100806 L70.7856653,23.7659879 L70.7779032,23.2366129 L70.9874798,22.7507056 C71.995,20.4329435 73.7119758,20.1845565 74.4059073,20.1845565 C76.3107258,20.1845565 77.5340323,21.7618145 77.8646976,22.2446169 L78.125504,22.6249597 L78.2279637,23.0767137 L78.2900605,23.3437298 C78.8070161,21.6205444 79.646875,20.1410887 80.8236089,18.9410685 C83.2283065,16.4897984 86.3890323,15.8160484 88.5422379,15.6685685 C85.2448992,10.3189315 78.2046774,10.0317339 76.7516129,10.0317339 C76.6413911,10.0317339 76.5730847,10.0348387 76.5544556,10.0348387 L76.4302621,10.039496 L76.3122782,10.0317339 C73.9929637,9.89512097 72.6004435,9.05215726 72.1735282,7.52768145 C71.7683468,6.07461694 72.5088508,4.5315121 74.1559677,3.39669355 L74.2522177,3.32993952 L74.3577823,3.27094758 C77.3197984,1.6284879 79.858004,1.49653226 80.1374395,1.48566532 L80.1793548,1.4841129 L80.2228226,1.4841129 C88.0066532,1.4841129 91.4514718,4.00524194 92.3534274,4.80939516 C97.0634677,8.24024194 99.5007661,13.1008669 100.748911,17.5423387 C101.272077,16.3857863 101.913226,15.3021976 102.709617,14.3164113 C106.936855,9.07233871 113.469435,8.40324597 113.689879,8.38461694 C114.751734,8.25887097 115.815141,8.19677419 116.849052,8.19677419 C128.10254,8.19677419 133.773528,15.4574395 134.009496,15.766371 L134.102641,15.8890121 L134.181815,16.0209677 C137.344093,21.4715121 138.16377,26.5277419 136.612903,31.0483871 Z M91.5073589,25.7127218 L91.5275403,25.5450605 C91.5275403,25.5450605 91.5259879,25.5372984 91.5228831,25.5264315 C91.4607863,25.5155645 91.3676411,25.50625 91.2372379,25.50625 C90.9935081,25.50625 90.7032056,25.5404032 90.3725403,25.6087097 L90.2700806,25.6273387 L90.1924597,25.6382056 C90.1800403,25.6397581 89.2796371,25.7856855 88.7751008,26.1877621 C89.0265927,26.2653831 89.3898589,26.3305847 89.8912903,26.3445565 L90.263871,26.27625 L90.4843145,26.2420968 L90.6690524,26.2374395 C90.95625,26.228125 91.3629839,26.1210081 91.5089113,26.0201008 C91.5120161,25.9937097 91.5182258,25.9486895 91.515121,25.8834879 L91.5073589,25.7127218 Z"/></g><g id="g6912" fill="#231F20" transform="translate(2.128677, 10.118980)"><path id="path6914" d="M6.20967742,3.10483871 L1.51981855,9.18256048 C1.51981855,9.18256048 -1.36612903,13.2064315 4.40576613,18.8386089 C4.40576613,18.8386089 6.60709677,21.5211895 11.953629,21.1129032 C11.953629,21.1129032 11.6400403,26.0527016 17.7255242,29.9384073 C17.7255242,29.9384073 25.8276008,33.9886694 30.7115121,22.0567742 C30.7115121,22.0567742 31.7469758,18.6166129 31.136875,13.6876815 C31.136875,13.6876815 30.9987097,11.8465121 29.4913105,11.7347379 C29.4913105,11.7347379 27.7805444,11.5127419 27.6780847,13.7870363 C27.6780847,13.7870363 28.797379,19.5045968 24.6260282,23.0565323 C24.6260282,23.0565323 21.0539113,26.498246 18.2797379,22.3905444 C18.2797379,22.3905444 15.8936694,18.7268347 20.8614113,12.9549395 C20.8614113,12.9549395 22.3688105,10.9585282 20.6580444,9.18256048 C20.6580444,9.18256048 19.4456048,7.62858871 17.199254,9.29278226 L12.7205242,13.889496 C12.7205242,13.889496 10.6573589,15.7865524 9.36419355,14.0944153 C9.36419355,14.0944153 7.69844758,12.7329435 8.73391129,10.846754 L12.397621,6.0559879 C12.397621,6.0559879 13.5076008,3.48362903 11.953629,2.39227823 C11.953629,2.39227823 9.40145161,0.136612903 7.06971774,2.4947379 L6.20967742,3.10483871 Z"/></g><g id="g6916" fill="#231F20" fill-rule="nonzero" transform="translate(34.195141, 15.755659)"><path id="path6918" d="M23.2862903,6.20967742 L20.8443347,6.43167339 C16.1839718,7.09766129 19.8259476,13.8677621 19.8259476,13.8677621 C20.5866331,16.3283468 18.4039315,17.9754637 18.4039315,17.9754637 L17.8481653,18.5296774 C12.6304839,25.0405242 6.09169355,20.3056452 6.09169355,20.3056452 C-1.66885081,13.4237702 2.75399194,6.65211694 2.75399194,6.65211694 C6.33231855,1.59433468 12.5016331,4.28622984 12.5016331,4.28622984 C13.4827621,4.80318548 14.5166734,3.98040323 14.5166734,3.98040323 C16.9601815,0.974919355 20.2342339,1.13171371 20.2342339,1.13171371 C24.0997581,0.827439516 25.50625,3.21350806 25.50625,3.21350806 C26.9111895,6.00631048 23.2862903,6.20967742 23.2862903,6.20967742 M13.1117339,12.868004 L11.0765121,9.53961694 C11.0765121,9.53961694 9.84544355,7.76364919 7.96856855,9.20584677 C7.96856855,9.20584677 6.50618952,10.3717137 8.08034274,12.1197379 L10.7442944,14.8675202 C10.7442944,14.8675202 13.4175605,15.9775 13.1117339,12.868004"/></g><g id="g6920" fill="#231F20" transform="translate(57.403500, 22.094032)"><path id="path6922" d="M4.65725806,18.6290323 C4.65725806,18.6290323 14.1021774,21.7369758 19.4098992,14.8551008 C19.4098992,14.8551008 21.1672379,13.301129 20.3910282,8.41877016 L18.9007056,1.91568548 C18.9007056,1.91568548 17.3296573,-0.388104839 16.2833266,2.01659274 L16.3951008,8.62989919 C16.3951008,8.62989919 16.1187702,12.5808065 11.3714718,13.1070766 C11.3714718,13.1070766 7.81332661,13.5153629 7.71086694,9.44491935 L7.71086694,3.42153226 C7.71086694,3.42153226 7.29481855,1.71231855 5.18352823,1.71231855 C5.18352823,1.71231855 2.63135081,1.95294355 2.52112903,3.86707661 L1.74336694,11.8589315 C1.74336694,11.8589315 -1.09445565,17.6572177 3.4091129,18.7408065 L4.65725806,18.6290323 Z"/></g><g id="g6924" fill="#231F20" fill-rule="nonzero" transform="translate(73.602375, 4.007881)"><path id="path6926" d="M26.391129,24.8387097 C26.5029032,26.9484476 24.6803629,27.123871 24.6803629,27.123871 L24.5794556,28.6126411 L24.476996,29.3904032 C24.1711694,31.9425806 21.0197581,32.1645766 21.0197581,32.1645766 C7.42832661,32.9314718 6.978125,24.5064919 6.978125,24.5064919 C6.76389113,13.0729234 17.5563105,14.5166734 17.5563105,14.5166734 C19.3804032,14.4048992 18.1772782,12.0654032 18.1772782,12.0654032 C14.1813508,3.50846774 3.31441532,3.97108871 3.31441532,3.97108871 C-0.450201613,3.74909274 2.3984879,1.7883871 2.3984879,1.7883871 C4.93358871,0.381895161 7.07747984,0.308931452 7.07747984,0.308931452 C15.015,0.308931452 17.6603226,3.08310484 17.6603226,3.08310484 C27.575625,10.1869758 26.391129,24.8387097 26.391129,24.8387097 M16.7350806,19.5946371 C16.7350806,19.5946371 12.9611492,20.0463911 12.849375,23.0534274 C12.849375,23.0534274 13.1831452,25.1709274 16.9462097,25.1709274 L17.5563105,25.0607056 C17.5563105,25.0607056 20.915746,25.0607056 20.8132863,22.1747581 C20.8132863,22.1747581 21.175,18.6787097 16.7350806,19.5946371"/></g><g id="g6928" fill="#231F20" transform="translate(100.783065, 9.551571)"><path id="path6930" d="M1.55241935,18.6290323 C1.55241935,18.6290323 0.55266129,24.9566935 12.5404435,31.0608065 C12.5404435,31.0608065 18.0903427,35.0567339 22.5302621,31.3930242 C22.5302621,31.3930242 24.0842339,29.7195161 25.9704234,29.3127823 C25.9704234,29.3127823 40.6221573,23.3840927 31.7423185,8.08344758 C31.7423185,8.08344758 25.7484274,0.231310484 13.648871,1.64711694 C13.648871,1.64711694 -0.335322581,2.96046371 1.55241935,18.6290323"/></g><g id="g6932" fill="#BDDE15" fill-rule="nonzero" transform="translate(107.159782, 14.511085)"><path id="path6934" d="M15.5241935,20.1814516 L11.0485685,20.3848185 C4.72090726,20.6906452 1.48256048,15.6670161 1.48256048,15.6670161 L1.27919355,15.1128024 C0.0574395161,12.6708468 0.16921371,10.7831048 0.16921371,10.7831048 C0.613205645,0.774657258 12.1663105,1.12705645 12.1663105,1.12705645 C22.5442339,0.692379032 23.7007863,8.98850806 23.7007863,8.98850806 C25.5885282,18.2952621 15.5241935,20.1814516 15.5241935,20.1814516 M19.7048589,10.894879 C19.7048589,10.894879 18.4753427,5.85417339 11.4553024,4.01300403 C11.4553024,4.01300403 9.54893145,2.68102823 5.72066532,6.34318548 C5.72066532,6.34318548 0.771552419,11.7828629 7.8925,17.3327621 L8.40169355,17.6649798 C8.40169355,17.6649798 11.2690121,19.2655242 12.8229839,16.2134677 L13.7125202,16.1125605 L14.600504,16.1125605 C14.600504,16.1125605 20.5276411,17.8869758 19.7048589,10.894879"/></g></g></g></g><g id="g6936" fill="#BDDE15" transform="translate(97.659994, 14.983070) scale(-1, 1) rotate(-180.000000) translate(-97.659994, -14.983070) translate(93.002736, 10.325812)"><polygon id="path6938" points="0 4.657 0 5.674 .647 6.342 1.424 7.008 2.312 7.562 3.051 7.784 4.421 7.784 5.752 7.672 6.511 7.228 7.02 6.674 7.639 5.896 8.194 4.963 8.416 4.232 8.416 3.344 7.75 2.568 6.918 1.708 5.975 1.504 4.642 1.504 3.662 1.504 2.645 1.708 1.868 2.124 1.313 2.568 .647 3.234"/></g><g id="g6940" fill="#BDDE15" transform="translate(106.078454, 9.830900) scale(-1, 1) rotate(-180.000000) translate(-106.078454, -9.830900) translate(102.973615, 5.949852)"><polygon id="path6942" points="0 3.105 0 4.075 .304 4.963 1.119 5.629 2.442 6.157 3.33 6.359 4.07 6.258 4.679 5.629 5.326 4.853 5.438 3.965 4.884 2.799 4.07 1.857 3.218 1.191 2.11 1.191 1.017 1.633 .407 2.495"/></g><g id="g6944" fill="#BDDE15" transform="translate(129.388962, 4.088501) scale(-1, 1) rotate(-180.000000) translate(-129.388962, -4.088501) translate(125.507914, 0.207453)"><polygon id="path6946" points="1.552 1.552 2.19 1.33 3.217 1.228 4.105 1.442 4.993 1.885 5.648 2.44 6.158 3.217 6.565 4.179 6.565 5.548 6.056 6.435 5.104 6.769 4.105 6.769 3.105 6.769 2.392 6.435 1.663 5.881 .998 5.215 .553 4.382 .441 3.549 .441 2.662 1.108 2.218"/></g><g id="g6948" fill="#BDDE15" transform="translate(142.503900, 19.218542) scale(-1, 1) rotate(-180.000000) translate(-142.503900, -19.218542) translate(137.846642, 15.337493)"><polygon id="path6950" points="1.552 4.657 1.349 3.695 1.552 2.919 2.2 2.253 3.088 1.605 4.3 1.198 5.317 1.198 6.418 1.299 7.306 1.809 8.063 2.475 8.776 3.473 9.08 4.454 8.877 5.37 8.267 6.248 7.528 6.803 6.306 7.357 5.418 7.58 4.401 7.469 3.42 6.914 2.754 6.581 1.868 5.582"/></g><g id="g6952" fill="#BDDE15" transform="translate(103.415123, 56.405344) scale(-1, 1) rotate(-180.000000) translate(-103.415123, -56.405344) translate(99.534075, 52.524296)"><polygon id="path6954" points="1.552 1.552 2.44 1.146 3.541 .924 4.355 .924 5.216 1.653 6.103 2.588 6.769 3.586 6.88 4.364 6.88 5.215 5.881 6.25 4.66 7.138 3.948 7.25 2.662 6.806 1.996 6.472 1.22 5.825 .795 5.317 .387 4.364 .387 3.254 .387 2.265"/></g><g id="g6956" fill="#BDDE15" transform="translate(114.014881, 59.254344) scale(-1, 1) rotate(-180.000000) translate(-114.014881, -59.254344) translate(109.357623, 55.373296)"><polygon id="path6958" points="1.552 1.552 2.495 1.146 3.588 1.146 4.825 1.146 5.935 1.349 6.713 1.774 7.556 2.662 7.858 3.55 7.858 4.604 7.149 5.215 6.38 5.881 5.491 6.101 4.198 6.325 3.485 5.881 2.94 5.437 2.163 5.011 1.653 4.4 1.452 3.883 1.247 3.217 1.146 2.44"/></g><g id="g6960" fill="#BDDE15" transform="translate(146.704374, 43.160723) scale(-1, 1) rotate(-180.000000) translate(-146.704374, -43.160723) translate(141.270906, 38.503465)"><polygon id="path6962" points="3.105 1.552 4.327 1.442 5.353 1.33 6.213 1.442 6.989 1.774 7.987 2.33 8.709 2.995 9.319 3.735 9.763 4.345 9.875 5.437 9.543 6.325 8.709 7.093 7.987 7.908 7.099 8.434 6.323 8.767 5.657 8.878 4.743 8.878 3.883 8.767 3.217 8.434 2.551 8.007 1.791 7.5 1.385 6.436 1.079 5.548 1.282 4.549 1.588 3.634 1.894 2.773 2.439 2.108"/></g><g id="g6964" fill="#BDDE15" transform="translate(130.550631, 64.247235) scale(-1, 1) rotate(-180.000000) translate(-130.550631, -64.247235) translate(124.340954, 58.037558)"><polygon id="path6966" points="0 6.21 .101 8.059 1.276 9.428 2.607 10.316 3.662 11.204 5.16 11.722 6.272 11.722 7.223 11.519 8.268 10.982 9.266 9.984 10.376 8.874 11.089 8.059 11.496 7.098 11.93 5.988 11.93 4.6 11.292 3.324 10.376 2.361 8.824 1.216 7.122 .55 5.604 .439 4.382 .439 3.255 .66 2.164 1.326 1.054 2.361 .407 3.434 .203 4.499"/></g></g></g></g></svg>