<svg xmlns="http://www.w3.org/2000/svg" id="Layer_1" width="70" height="70" x="0" y="0" version="1.1" viewBox="0 0 70 70" xml:space="preserve" style="enable-background:new 0 0 70 70"><style type="text/css">.st0{fill:#ed1c24}.st1{fill:#c00}</style><polygon points="35.7 56.4 38.3 56.4 38.2 53.2" class="st0"/><path d="M69.2,38.2c0.2-2.2,0.2-5.3-0.2-7.6c0,0-0.1,0-0.1,0c-0.7,3.3-2.9,7.8-7.5,11.5c0,0-0.1,0-0.1-0.1 c4.1-4.4,6.5-9.7,6.9-15.3c-0.8-3-2-6-3.5-8.6c0,0-0.1,0-0.1,0c0.8,5.6-0.5,13-5.9,19c0,0-0.1,0-0.1,0c4.7-6.7,5.9-14.9,3.9-22.3 C56.5,6.4,46.5,1,35.2,1C23.9,1,13.9,6.4,7.7,14.9c-2,7.4-0.8,15.6,3.8,22.3c0,0,0,0.1-0.1,0c-5.4-6-6.7-13.4-5.9-19 c0,0,0-0.1-0.1,0C4,20.8,2.8,23.8,2,26.8c0.4,5.5,2.8,10.9,6.9,15.3c0,0,0,0.1-0.1,0.1C4.2,38.5,2,34,1.3,30.6c0,0-0.1,0-0.1,0 C1,32.9,0.9,36,1.1,38.2c1.2,3.7,3.7,6.8,6.3,9c0,0,0,0.1,0,0.1c-2.9-1.8-4.5-3.5-5.6-5.1c0,0-0.1,0,0,0 c3.2,15.4,16.9,27.2,33.5,27.2c16.6,0,30.3-11.8,33.5-27.2c0,0,0-0.1,0,0c-1.1,1.5-2.7,3.3-5.6,5.1c0,0-0.1,0,0-0.1 C65.6,45,68.1,41.9,69.2,38.2 M22.5,60.5c-1.3,0-2.3-0.1-3.2-0.3l0.8-2.1c2.1,0.2,4,0.1,4.7-1.8l2.3-5.9h4.7l-2.5,6.5 C27.9,60.2,24.7,60.5,22.5,60.5 M38.4,60.2l-0.1-1.9h-4.2l-1.6,1.9h-3.8l7.8-9.1c0.4-0.4,0.9-0.7,1.4-0.7h4.2l0.9,9.8H38.4z M54.9,60.2H44.4l3.8-9.8h4.7l-3,7.7h5.9L54.9,60.2z M50.6,39.5c-7,6.8-17.4,2.5-16.4-5.9C35.1,27.2,43,20.8,49,17.3 c0,0,0-0.1,0-0.1c-0.8-0.7-2.4-2.4-3.5-3.7c-2.9-3.5-8-3.6-11,0.2l-17.2,1.6c-0.1,0-0.1,0.1,0,0.1l18.4,1.1c3.3,0.2,4.3,3.2,1.2,5.5 c-11.7,8.9-13.8,18.3-11.2,25.7c0,0-0.1,0.1-0.1,0c-1.1-1.5-1.9-3.4-2.3-5.3c-5.6-3.5-10.2-10.3-10.2-18.6c0-12.1,9.8-22,22-22 c12.2,0,22,9.9,22,22C57.2,30.4,54.3,35.9,50.6,39.5" class="st1"/></svg>