<svg xmlns="http://www.w3.org/2000/svg" id="Layer_1" width="70" height="70" x="0" y="0" enable-background="new 0 0 70 70" version="1.1" viewBox="0 0 70 70" xml:space="preserve"><metadata/><rect width="70" height="70" fill="none"/><path fill="#057F62" d="M2.1,5.7c0,0,19.4,4.4,27.7,7.8s8,12,8,12L32.4,34l-3.5,6l-3.8-0.8L24.7,39c0,0-2.9-2.7-2.9-8 s5.5-9.8,5.5-12.9S18.3,10.9,2.1,5.7z"/><path fill="#057F62" d="M2.2,50c0,0,10,0.6,14.1,0.3c4.1-0.3-0.9-2.399-0.9-2.399S6.1,48.7,2.2,50z"/><g><path fill="none" stroke="#FFF" stroke-miterlimit="10" stroke-width="1.248" d="M9.2,5.2c0,0,18.6,4,36.899,10.2 c9.7,3.3,10.5,5,7.2,10.7c-3.399,5.8-11,9.7-11.3,12.7c-0.2,1.9,3.9,2.5,9.3,3.3c5.4,0.801,10.2,2.2,11.4,5.7L67.1,48 c0,0,1.4,0.6,0.601,0.8s-4.5-0.3-6-0.1S43.2,53,33.3,53c-9.9,0-20.6-3.3-25.5-3.6c-4.9-0.301-6-0.101-6-0.101S0.6,47.9,6.3,46.7 c4.8-1,16.4-6.2,17.5-7.2c1.1-0.9-1.1-4.1,0.7-7.6s8.7-9.7,8.7-12.5C33.2,16.6,26.6,9.5,9.2,5.2z"/><path fill="#194378" d="M9.2,5.2c0,0,18.6,4,36.899,10.2c9.7,3.3,10.5,5,7.2,10.7c-3.399,5.8-11,9.7-11.3,12.7 c-0.2,1.9,3.9,2.5,9.3,3.3c5.4,0.801,10.2,2.2,11.4,5.7L67.1,48c0,0,1.4,0.6,0.601,0.8s-4.5-0.3-6-0.1S43.2,53,33.3,53 c-9.9,0-20.6-3.3-25.5-3.6c-4.9-0.301-6-0.101-6-0.101S0.6,47.9,6.3,46.7c4.8-1,16.4-6.2,17.5-7.2c1.1-0.9-1.1-4.1,0.7-7.6 s8.7-9.7,8.7-12.5C33.2,16.6,26.6,9.5,9.2,5.2z"/></g></svg>