<svg xmlns="http://www.w3.org/2000/svg" version="1.1" x="0px" y="0px" width="70px" height="70px" viewBox="0 0 70 70" enable-background="new 0 0 70 70" xml:space="preserve"><rect width="70" fill="none" height="70"/><path id="path10" fill="#231F20" d="M6.1,34.6c0,1.1-0.4,1.6-1.2,1.6c-0.8,0-1.2-0.5-1.2-1.2c0,0,0-0.8,0-0.9c-0.2,0-2.3,0-2.5,0   c0,0.1,0,0.4,0,0.4c0,2.8,1.2,4.1,3.8,4.1s3.8-1.199,3.8-3.7c0,0,0-6.9,0-7.1c-0.2,0-2.5,0-2.7,0C6.1,27.9,6.1,34.6,6.1,34.6   L6.1,34.6z"/><path id="path12" fill="#231F20" d="M11.8,34.9c0,1.1,0.7,1.8,1.8,1.8c0.6,0,1.3-0.3,1.5-0.9h2.5c-0.5,1.9-2.2,2.7-4.1,2.7   c-2.7,0-4.5-1.6-4.5-4.3c0-2.5,2-4.3,4.4-4.3c2.9,0,4.4,2.2,4.3,5H11.8L11.8,34.9z M15.1,33.4c0-0.9-0.7-1.7-1.6-1.7   s-1.6,0.7-1.7,1.7H15.1L15.1,33.4z"/><path id="path14" fill="#231F20" d="M23.1,31.9h-1.6v4.5h0.9c0,0,0.5,0,0.7,0v2c-0.5,0-1,0.1-1.5,0.1c-2.3,0-2.9-0.7-2.9-2.9V32   h-1.4v-1.7h1.4v-2.5h2.7v2.5H23L23.1,31.9L23.1,31.9z"/><path id="path14_1_" fill="#231F20" d="M37,31.9h-1.6v4.5h0.9c0,0,0.5,0,0.7,0v2c-0.5,0-1,0.1-1.5,0.1c-2.3,0-2.9-0.7-2.9-2.9V32   h-1.4v-1.7h1.4v-2.5h2.7v2.5H37V31.9L37,31.9z"/><polygon id="polygon16" points="61,23.7 61.3,29 68.6,29 61.6,33.5 63.2,41.1 57.3,36 49.3,40.1 54.1,33.6 49.6,29    56.8,29 " fill="#F15B23"/><path fill="#231F20" d="M28.7,32.5h2.4c0-0.7-0.4-2.8-3.8-2.8c-3,0-3.6,1.7-3.6,2.7c0,0.9,0.5,1.8,2.7,2.3c2.2,0.5,2.3,0.7,2.3,1.1   c0,0.5-0.5,1.101-1.3,1.101c-1.3,0-1.5-1.301-1.5-1.301h-2.4c0,0.801,0.8,2.9,3.9,2.9s4-2.2,4-2.9c0-0.7-0.6-2.1-3.2-2.5   c-0.8-0.1-2.1-0.3-2.1-1c0-0.4,0.5-0.8,1.2-0.8C28,31.4,28.7,31.7,28.7,32.5z"/><path fill="#231F20" d="M37.7,32.5H40c0,0,0.3-1,1.3-1s1.3,0.5,1.4,1c0.1,0.8-0.601,0.8-2.4,1c-1.8,0.3-3.1,0.9-3.1,2.5   c0,1.6,1.2,2.6,2.7,2.6s2.8-1.1,2.8-1.1v0.8h2.7c0,0-0.2-1.2-0.2-2.1c0-0.8,0-3.4,0-4.3c0-0.8-1.2-2.3-3.7-2.3   C38.9,29.7,37.7,31.2,37.7,32.5z"/><rect x="45.8" y="30.1" width="2.601" fill="#231F20" height="8.2"/><path fill="#231F20" d="M48.2,31.6c0,0,0.8-0.9,1.2-1.2l1.899,1.9c0,0-1.3-0.2-1.6,0c-0.3,0.2-1.2,0.8-1.2,2c0,1.2-1.4-0.9-1.4-0.9   L48.2,31.6z"/><path fill="#FFFFFF" d="M42.6,34.4c0,0,0,0.6,0,1.1c0,0.4-0.8,1.5-1.6,1.5s-1.2-0.7-1.2-1.1c0-0.4,0.601-1,1.2-1.101   C41.7,34.7,42.5,34.6,42.6,34.4z"/></svg>