<svg xmlns="http://www.w3.org/2000/svg" version="1.1" id="Layer_1" x="0px" y="0px" width="70px" height="70px" viewBox="0 0 70 70" enable-background="new 0 0 70 70" xml:space="preserve"><metadata/><rect width="70" fill="none" height="70"/><g><path fill="#18244D" d="M37.9,48.4L36,50.5l2.1,2.3C39.7,54.4,39.8,56.9,39.8,56.9S40.9,55.3,40.9,53.8S40.1,50.9,40.1,50.9    L37.9,48.4z"/><path fill="#18244D" d="M29.8,51c0,0-0.8,1.4-0.8,2.9s1.1,3.1,1.1,3.1s0.1-2.5,1.7-4.1l9.101-10L39,40.8L29.8,51z"/><polygon points="34.2,44.1 26.6,35.4 24.9,37.6 32.3,46.1  " fill="#18244D"/><path fill="#18244D" d="M59.9,22c-3.4,0-5.601,1.4-6.7,2.4c-0.7-0.7-3.5-3.5-3.9-4.7c-0.5-1.4-0.3-3.6-0.399-3.8    c-0.101-0.3-0.301-0.7,0-0.9c0.199-0.1,1.5-0.7,2.199-0.8c0.7-0.1,1.101,0.4,1.101,0.8c0,0,0-1.2,0-1.8c0-0.6-1-1.5-1.8-1.5    c-0.9,0-1.101,0-1.301-0.1C48.9,11.5,48.4,10.3,46.9,10.3S43.8,10.2,42.8,11.8c-1,1.6-1.1,3.6-1.399,6.1C41.2,20.4,40.8,22.7,40,24    l-5,5.8L30,24c-0.8-1.2-1.2-3.6-1.4-6.1c-0.2-2.5-0.4-4.4-1.4-6.1c-1-1.7-2.6-1.5-4.1-1.5s-2,1.2-2.2,1.3c-0.2,0.1-0.4,0.2-1.3,0.1    c-0.9,0-1.8,0.8-1.8,1.5c0,0.7,0,1.8,0,1.8c0-0.4,0.5-0.9,1.1-0.8c0.7,0.1,2,0.7,2.2,0.8c0.2,0.1,0,0.6,0,0.9    c0,0.3,0.1,2.4-0.4,3.8c-0.4,1.2-3.3,4-3.9,4.7c-1.1-1-3.3-2.4-6.7-2.4C4.5,22,1,26.8,1,26.8s2.9,5.3,8.6,5.3    c3.9,0,6.4-2.4,6.4-2.4l-1.7-2.1c0,0-2,1.9-4.5,1.9s-5-2.7-5-2.7s2.2-2.3,5.4-2.3c3.2,0,4.8,1.8,4.8,1.8l5.7,6.4l1.8-2.1l-3.8-4.3    c1.7-2,5.1-6.1,5.5-6.5c0.4-0.5,1-1.3,1.1-0.4c0.2,0.8,1.2,4.1,3,6.5l-7.8,9.3c0,0-2.2,2.8-5,4.899c-2.2,1.7-5,3.101-5,3.101    s0.3,1.1,3,1.1s4.6-2.6,4.9-2.899c0.3-0.4,0.5-0.301,0.5,0.399s1.5,3.5,3.9,3.5c2.4,0,3.3-1.1,3.8-1.5l0.9-1.1l-2-1.9l-0.8,1    c0,0-0.5,0.5-1,0.5c-1.1,0-2-0.7-2-2.2c0-0.6,0.2-1,0.5-1.399c0.5-0.8,7-9,8.1-10.5l3.1,3.6L29.5,36.4l1.9,2l3.8-4.5l8.399,9.8    c0.5,0.399,1.4,1.5,3.801,1.5c2.399,0,4-2.8,3.899-3.5c0-0.7,0.2-0.8,0.5-0.4c0.3,0.4,2.2,2.9,4.9,2.9s3-1.101,3-1.101    s-2.9-1.199-5-3.1c-2.101-1.8-5.3-4.8-5.3-4.8L47,37.8c0,0,1.5,0.8,1.5,2.3s-0.9,2.2-2,2.2c-0.5,0-1-0.5-1-0.5l-8.6-10l2.899-3.3    l4,4.6l1.9-2L41.6,26.4l0.2-0.2c1.8-2.4,2.9-5.9,3.101-6.7c0.199-0.8,0.699,0,1.1,0.4c0.3,0.4,3.8,4.5,5.5,6.5l-8.7,9.9l1.8,2.101    l10.601-12c0,0,1.6-1.8,4.8-1.8s5.4,2.3,5.4,2.3s-2.5,2.7-5,2.7s-4.5-1.9-4.5-1.9l-1.7,2.1c0,0,2.5,2.4,6.399,2.4    c5.7,0,8.601-5.3,8.601-5.3S65.5,22,59.9,22z"/></g></svg>