<svg xmlns="http://www.w3.org/2000/svg" version="1.1" id="Layer_1" x="0px" y="0px" width="70px" height="70px" viewBox="0 0 70 70" enable-background="new 0 0 70 70" xml:space="preserve"><metadata/><rect width="70" fill="none" height="70"/><path fill="#F15829" d="M22.4,37.1c-1.6,1.601-1.1,4.5-0.9,5.301c0.3,1.199,1.3,3.5,4.1,2.5c2.8-1,2-3.7,1.7-4.5   C27,39.6,24.2,35.2,22.4,37.1"/><path fill="#F15829" d="M27.4,29.2c-1.9,0.8-1.8,3.5-1.2,5.5c0.6,2,1.9,3.5,4.3,2.6c2.4-0.899,1.6-4.2,0.8-5.7   C30.5,30.1,28.9,28.6,27.4,29.2"/><path fill="#F15829" d="M34.2,24.1c-1.5,0.5-2.1,2.5-1.4,5.8c0.7,3.2,3,3.9,4.7,3.2c1.8-0.7,2.4-3.5,1.2-6   C37.5,24.5,35.8,23.5,34.2,24.1"/><path fill="#F15829" d="M41.9,22.9C40.5,23.6,41.1,27,41.6,29.1s1.301,5.1,4,4.2c2.7-0.9,2.7-3.9,2.2-5.2   C46.6,24.9,43.5,22.1,41.9,22.9"/><path fill="#F15829" d="M52.3,29.9c-2-0.4-2.6,1.2-2.8,3.4c-0.3,2.2,0.7,3.5,2.3,3.8c1.7,0.301,2.5-1.199,2.9-3   C55,32.3,54,30.3,52.3,29.9"/><path fill="#F15829" d="M41.2,55c5.7-3.9,11-7.3,12.1-10.4c0.601-1.8-0.2-4.6-7.6-6.3C43.6,37.8,41.6,35.9,39.9,35.9   c-3.301,0.1-5,3.5-6,4.699c-2.2,2.7-6.8,5.5-5.9,9.601C28.7,53.6,36,58.6,41.2,55"/><path fill="#F15829" d="M19.6,33.3c0-0.6,0.5-1,1-1c0.6,0,1,0.5,1,1s-0.5,1-1,1C20.1,34.4,19.6,33.9,19.6,33.3"/><path fill="#F15829" d="M23.7,25.7c0-0.6,0.5-1,1-1c0.6,0,1,0.5,1,1c0,0.6-0.5,1-1,1S23.7,26.3,23.7,25.7"/><path fill="#F15829" d="M30.7,21.3c0-0.6,0.5-1,1-1c0.6,0,1,0.5,1,1c0,0.6-0.5,1-1,1S30.7,21.9,30.7,21.3"/><path fill="#F15829" d="M39.4,20.1c0-0.6,0.5-1,1-1c0.6,0,1,0.5,1,1c0,0.6-0.5,1-1,1S39.4,20.7,39.4,20.1"/><path fill="#F15829" d="M50.8,26.8c0-0.6,0.5-1,1-1c0.601,0,1,0.5,1,1c0,0.6-0.5,1-1,1C51.2,27.9,50.8,27.4,50.8,26.8"/><path fill="#91192C" d="M50.3,51.7c-1.8,1.3-3.899,2.6-6.1,4.2L42.4,57.1C39.7,59,36.3,59.2,32.8,57.8c-3.5-1.399-6.7-4.3-7.2-6.899   C25.2,49.3,25.3,48.3,25.5,47c-1.5,0.3-2.6,0-3.3-0.4c-1.4-0.699-2.4-2.1-2.9-4C19.2,42.4,19,41,19,39.7c0-1,0.1-2.101,0.6-3.2   c-1.5-0.7-2.5-2.2-2.5-4c0-2.4,2-4.4,4.4-4.4c0.1,0,0.2,0,0.4,0c-0.4-0.6-0.6-1.4-0.6-2.2c0-2.4,1.9-4.3,4.3-4.3   c0.5,0,1,0.1,1.5,0.3c0-0.3,0.1-0.7,0.2-1c-5-5.4-11.6-11.3-18.8-11.3H2.9l15.6,56.6H61C57.5,61.4,53.8,56.4,50.3,51.7"/><path fill="#F15829" d="M28.4,18.7c1-1,2.3-1.6,3.8-1.6h0.1C27.4,11.1,20,3.2,11.6,3.2c0,0-6.7,0-10.4,0l1.1,3.9h6.3   C16.4,7.2,23.3,13.1,28.4,18.7"/><path fill="#F15829" d="M54.9,47.4C54.3,48.3,53.4,49.2,52.3,50.2l11.9,16h4.7C64.3,60.1,59.4,53.6,54.9,47.4"/></svg>