<svg xmlns="http://www.w3.org/2000/svg" version="1.1" id="Layer_1" x="0px" y="0px" width="70px" height="70px" viewBox="0 0 70 70" enable-background="new 0 0 70 70" xml:space="preserve"><rect width="70" fill="#FCE000" height="70"/><path fill="#2F9CD7" d="M37.686,36.838c2.074-9.214,4.209-18.268,7.695-26.91  c0.939-2.327,1.986-6.134,5.08-5.05c3.121,1.095,1.428,4.611,0.713,7.036c-2.861,9.725-6.246,19.274-10.713,28.388  c-2.223,4.536-3.158,4.624-5.975,0.647c-5.003-7.061-9.41-14.502-12.974-22.395c-0.881-1.951-2.641-4.653,0.336-6.13  c2.609-1.295,3.764,1.471,4.874,3.159c3.941,5.997,6.631,12.62,9.247,19.269C36.254,35.577,36.26,36.526,37.686,36.838z" clip-rule="evenodd" fill-rule="evenodd"/><path fill="#FCFADF" d="M32.66,44.254c-6.396,1.264-12.765,1.178-19.131,0.624  c-1.298-0.113-2.918-0.671-2.763-2.3c0.126-1.327,1.651-1.467,2.825-1.473C20.109,41.074,26.558,41.485,32.66,44.254z" clip-rule="evenodd" fill-rule="evenodd"/><path fill="#FCFBED" d="M36.627,47.616c-0.71,6.568-2.989,12.544-6.031,18.244  c-0.524,0.981-1.255,2.187-2.693,1.543c-1.133-0.506-1.001-1.676-0.673-2.608C29.417,58.586,32.1,52.633,36.627,47.616z" clip-rule="evenodd" fill-rule="evenodd"/><path fill="#FCFBEE" d="M41.135,45.729c6.338,0.312,12.154,2.1,17.785,4.478  c1.207,0.509,3.254,1.067,2.416,3.05c-0.666,1.573-2.314,0.894-3.541,0.521C51.824,51.968,46.086,49.655,41.135,45.729z" clip-rule="evenodd" fill-rule="evenodd"/></svg>