<svg xmlns="http://www.w3.org/2000/svg" id="圖層_1" width="113.39" height="113.39" viewBox="0 0 113.39 113.39"><defs><style>.cls-1{fill:#96694c;}.cls-2{fill:#85754e;}</style></defs><path d="M48.76,50.81l0,0L76.9,22.67a25.76,25.76,0,0,1,10.81-6.1H59.53l-1,0-.5,0-.36,0a21.79,21.79,0,0,0-2.63.42l-.13,0-.51.12a20.13,20.13,0,0,0-7.33,3.69,22.33,22.33,0,0,0-1.7,1.51L11.1,56.67H34.62A20,20,0,0,0,48.76,50.81Z" class="cls-1"/><path d="M45.41,62.54l0,0-28,28A26.25,26.25,0,0,1,6.35,96.78H34.63l1,0,.49,0,.36,0a21.48,21.48,0,0,0,2.63-.42l.13,0,.51-.13a19.74,19.74,0,0,0,7.33-3.69,20.39,20.39,0,0,0,1.71-1.5L83.06,56.67H59.54A20,20,0,0,0,45.41,62.54Z" class="cls-2"/><path d="M94.85,38.64h0a.29.29,0,0,1,0-.09.28.28,0,0,1,.19-.27h0c3.13-1,12-1.85,12-1.85S98.11,35.85,95,34.89h0a.28.28,0,0,1-.19-.27.29.29,0,0,1,0-.09h0A38.94,38.94,0,0,1,98,29.73l-4.75,3.32-.08,0a.29.29,0,0,1-.28-.23h0c-1-4.73-1.6-13.49-1.61-13.55h0c0,.06-.63,8.82-1.6,13.55h0a.29.29,0,0,1-.28.23l-.09,0L84.6,29.73a37.52,37.52,0,0,1,3.25,4.73h0a.3.3,0,0,1,0,.1.28.28,0,0,1-.19.26h0c-3.13,1-12.09,1.61-12.09,1.61s8.93.93,12,1.89h0a.29.29,0,0,1,.2.27.36.36,0,0,1,0,.1h0a31,31,0,0,1-3.22,4.43l4.77-2.94.08,0a.27.27,0,0,1,.27.23h0c1,4.74,1.58,13.5,1.58,13.56h0c0-.06.66-8.82,1.63-13.56h0a.29.29,0,0,1,.28-.23l.08,0L98,43.12A32.46,32.46,0,0,1,94.85,38.64Z" class="cls-1"/></svg>