<svg xmlns="http://www.w3.org/2000/svg" width="70 px" height="70 px" version="1.1" viewBox="0 0 70 70"><g id="surface1"><path d="M -51.976562 37.007812 C -0.0273438 5.011719 27.148438 15.5 71.0625 27.382812 C 96.019531 34.132812 115.507812 38.707031 143.582031 31.992188 C 143.582031 31.992188 118.152344 25.121094 84.886719 16.117188 C 17.398438 -2.136719 -20.6875 4.65625 -51.976562 37.007812" style="stroke:none;fill-rule:nonzero;fill:#ff009c;fill-opacity:1"/><path d="M -47.21875 46.820312 C -5.753906 21.277344 15.941406 29.652344 50.988281 39.136719 C 70.90625 44.527344 86.464844 48.175781 108.875 42.816406 C 108.875 42.816406 88.582031 37.332031 62.019531 30.144531 C 8.148438 15.570312 -22.238281 20.996094 -47.21875 46.820312" style="stroke:none;fill-rule:nonzero;fill:#5ad600;fill-opacity:1"/><path d="M -42.75 56.605469 C -9.648438 36.21875 7.65625 42.902344 35.636719 50.476562 C 51.535156 54.777344 63.953125 57.691406 81.835938 53.414062 C 81.835938 53.414062 65.640625 49.035156 44.4375 43.296875 C 1.445312 31.664062 -22.8125 36 -42.75 56.605469" style="stroke:none;fill-rule:nonzero;fill:#09f;fill-opacity:1"/><path d="M -37.878906 66.417969 C -11.464844 50.144531 2.355469 55.476562 24.679688 61.523438 C 37.378906 64.957031 47.292969 67.28125 61.5625 63.867188 C 61.5625 63.867188 48.640625 60.367188 31.714844 55.792969 C -2.609375 46.503906 -21.96875 49.96875 -37.878906 66.417969" style="stroke:none;fill-rule:nonzero;fill:#00009c;fill-opacity:1"/></g></svg>