<svg xmlns="http://www.w3.org/2000/svg" id="Layer_1" viewBox="0 0 70 70"><defs><style>
      .cls-1 {
        fill: #00009c;
      }

      .cls-2 {
        fill: none;
      }

      .cls-3 {
        fill: #09f;
      }

      .cls-4 {
        fill: #fcb514;
      }

      .cls-5 {
        fill: #ff009c;
      }

      .cls-6 {
        fill: #5ad600;
      }

      .cls-7 {
        clip-path: url(#clippath);
      }
    </style><clipPath id="clippath"><rect x="0" width="70" height="70" class="cls-2"/></clipPath></defs><rect y="0" width="70" height="70" class="cls-4"/><g class="cls-7"><g><path d="M-49.58,36.79C.93,5.68,27.35,15.88,70.04,27.43c24.26,6.56,43.21,11.01,70.51,4.48,0,0-24.72-6.68-57.06-15.44C17.87-1.27-19.15,5.34-49.58,36.79" class="cls-5"/><path d="M-44.95,46.33C-4.64,21.49,16.45,29.64,50.53,38.86c19.36,5.24,34.49,8.79,56.28,3.58,0,0-19.73-5.33-45.55-12.32C8.88,15.95-20.66,21.22-44.95,46.33" class="cls-6"/><path d="M-40.6,55.84c32.18-19.82,49.01-13.32,76.21-5.96,15.45,4.18,27.53,7.01,44.91,2.86,0,0-15.75-4.26-36.36-9.84C2.36,31.6-21.22,35.81-40.6,55.84" class="cls-3"/><path d="M-35.87,65.38c25.68-15.82,39.12-10.64,60.82-4.76,12.35,3.34,21.98,5.6,35.86,2.28,0,0-12.56-3.4-29.02-7.85-33.37-9.03-52.19-5.66-67.66,10.33" class="cls-1"/></g></g></svg>