<svg xmlns="http://www.w3.org/2000/svg" version="1.1" id="Layer_1" x="0px" y="0px" width="70px" height="70px" viewBox="0 0 70 70" enable-background="new 0 0 70 70" xml:space="preserve"><g><g><g><defs><rect id="SVGID_1_" x="1.75" y="29.072" width="65.564" height="10.928"/></defs><clipPath id="SVGID_2_"><use xmlns:xlink="http://www.w3.org/1999/xlink" xlink:href="#SVGID_1_" overflow="visible"/></clipPath><path clip-path="url(#SVGID_2_)" fill="#14487E" d="M3.609,33.045c0.032-0.652,0.403-0.991,1.147-0.962      c0.279,0,0.496,0.032,0.683,0.093c0.185,0.062,0.278,0.217,0.278,0.467c-0.032,0.34-0.216,0.495-0.619,0.464H3.609V33.045z       M5.221,34.223c0.651,0,1.21-0.123,1.613-0.402c0.402-0.279,0.619-0.713,0.619-1.333c-0.031-0.714-0.278-1.239-0.774-1.519      c-0.527-0.279-1.147-0.435-1.922-0.435c-0.868,0-1.581,0.217-2.139,0.651c-0.557,0.402-0.836,1.053-0.867,1.891v1.146      c0,0.836,0.279,1.457,0.836,1.828c0.527,0.402,1.24,0.589,2.14,0.589c0.216,0,0.465-0.03,0.805-0.062l0.93-0.156      c0.31-0.092,0.465-0.277,0.465-0.557v-0.652c0-0.277-0.124-0.402-0.341-0.402L6.46,34.842c-0.527,0.094-1.053,0.155-1.581,0.155      c-0.34,0-0.62-0.062-0.868-0.155c-0.248-0.093-0.371-0.277-0.403-0.588v-0.031H5.221L5.221,34.223z"/></g><g><defs><rect id="SVGID_3_" x="1.75" y="29.072" width="65.564" height="10.928"/></defs><clipPath id="SVGID_4_"><use xmlns:xlink="http://www.w3.org/1999/xlink" xlink:href="#SVGID_3_" overflow="visible"/></clipPath><path clip-path="url(#SVGID_4_)" fill="#14487E" d="M22.662,34.997c-0.836,0.031-1.209-0.433-1.178-1.425      c-0.031-0.961,0.342-1.426,1.178-1.395c0.836-0.03,1.208,0.434,1.178,1.395C23.871,34.564,23.499,35.028,22.662,34.997       M22.662,30.534c-1.984-0.031-3.008,0.962-3.039,3.037c0,1.114,0.249,1.922,0.776,2.387c0.527,0.464,1.302,0.682,2.263,0.682      c1.022,0,1.766-0.218,2.293-0.682c0.526-0.465,0.775-1.272,0.775-2.387C25.731,31.496,24.708,30.503,22.662,30.534"/></g><g><defs><rect id="SVGID_5_" x="1.75" y="29.072" width="65.564" height="10.928"/></defs><clipPath id="SVGID_6_"><use xmlns:xlink="http://www.w3.org/1999/xlink" xlink:href="#SVGID_5_" overflow="visible"/></clipPath><path clip-path="url(#SVGID_6_)" fill="#14487E" d="M32.492,34.997c-0.837,0.031-1.21-0.433-1.178-1.425      c-0.032-0.961,0.341-1.426,1.178-1.395c0.836-0.03,1.208,0.434,1.177,1.395C33.7,34.564,33.329,35.028,32.492,34.997       M32.492,30.534c-1.984-0.031-3.008,0.962-3.04,3.037c0,1.114,0.249,1.922,0.775,2.387c0.527,0.464,1.302,0.682,2.264,0.682      c1.021,0,1.765-0.218,2.292-0.682c0.529-0.465,0.776-1.272,0.776-2.387C35.561,31.496,34.537,30.503,32.492,30.534"/></g><g><defs><rect id="SVGID_7_" x="1.75" y="29.072" width="65.564" height="10.928"/></defs><clipPath id="SVGID_8_"><use xmlns:xlink="http://www.w3.org/1999/xlink" xlink:href="#SVGID_7_" overflow="visible"/></clipPath><path clip-path="url(#SVGID_8_)" fill="#14487E" d="M53.67,34.997c-0.836,0.031-1.208-0.433-1.179-1.425      c-0.029-0.961,0.342-1.426,1.179-1.395c0.837-0.03,1.209,0.434,1.178,1.395C54.879,34.564,54.507,35.028,53.67,34.997       M53.67,30.534c-1.982-0.031-3.006,0.962-3.037,3.037c0,1.114,0.248,1.922,0.774,2.387c0.526,0.464,1.303,0.682,2.263,0.682      c1.022,0,1.767-0.218,2.294-0.682c0.527-0.465,0.774-1.272,0.774-2.387C56.738,31.496,55.715,30.503,53.67,30.534"/></g><g><defs><rect id="SVGID_9_" x="1.75" y="29.072" width="65.564" height="10.928"/></defs><clipPath id="SVGID_10_"><use xmlns:xlink="http://www.w3.org/1999/xlink" xlink:href="#SVGID_9_" overflow="visible"/></clipPath><path clip-path="url(#SVGID_10_)" fill="#14487E" d="M59.659,31.093L59.659,31.093v0.434l0.248-0.155      c0.311-0.278,0.62-0.465,0.898-0.62c0.28-0.155,0.619-0.217,0.993-0.217c0.836,0.032,1.331,0.372,1.548,1.055h0.095l0.247-0.218      c0.341-0.277,0.65-0.465,0.93-0.619c0.279-0.155,0.62-0.217,0.992-0.217c1.145,0.062,1.704,0.683,1.704,1.893v3.656      c-0.031,0.278-0.187,0.434-0.465,0.465h-0.962c-0.277-0.031-0.434-0.187-0.465-0.465v-3.161c0.062-0.466-0.124-0.714-0.557-0.745      c-0.342,0.031-0.681,0.217-1.085,0.495l-0.279,0.218v3.191c-0.03,0.279-0.186,0.435-0.494,0.466h-0.931      c-0.277-0.031-0.434-0.187-0.465-0.466v-3.16c0.061-0.466-0.124-0.713-0.526-0.746c-0.342,0.033-0.712,0.188-1.117,0.467      l-0.31,0.217v3.223c0,0.278-0.155,0.434-0.464,0.465h-0.932c-0.277-0.031-0.433-0.187-0.464-0.465v-4.99      c0.031-0.31,0.185-0.465,0.464-0.465h0.932C59.504,30.627,59.659,30.783,59.659,31.093"/></g><g><defs><rect id="SVGID_11_" x="1.75" y="29.072" width="65.564" height="10.928"/></defs><clipPath id="SVGID_12_"><use xmlns:xlink="http://www.w3.org/1999/xlink" xlink:href="#SVGID_11_" overflow="visible"/></clipPath><path clip-path="url(#SVGID_12_)" fill="#14487E" d="M12.245,36.082L12.245,36.082v-0.465l-0.249,0.188      c-0.34,0.247-0.651,0.434-0.929,0.589c-0.31,0.154-0.651,0.218-1.022,0.247C8.897,36.58,8.34,35.959,8.34,34.749v-3.688      c0.031-0.277,0.186-0.434,0.465-0.434h0.929c0.31,0,0.465,0.156,0.465,0.434v3.162c-0.031,0.497,0.155,0.745,0.558,0.774      c0.372-0.062,0.744-0.216,1.147-0.464l0.34-0.219v-3.223c0.031-0.31,0.186-0.465,0.466-0.465h0.929      c0.31,0,0.465,0.156,0.465,0.465v4.99c0,0.278-0.155,0.434-0.465,0.465H12.71C12.431,36.517,12.276,36.361,12.245,36.082"/></g><g><defs><rect id="SVGID_13_" x="1.75" y="29.072" width="65.564" height="10.928"/></defs><clipPath id="SVGID_14_"><use xmlns:xlink="http://www.w3.org/1999/xlink" xlink:href="#SVGID_13_" overflow="visible"/></clipPath><path clip-path="url(#SVGID_14_)" fill="#14487E" d="M18.726,30.534L18.726,30.534c0.31,0,0.465,0.155,0.465,0.466v0.713      c0,0.309-0.155,0.465-0.465,0.465h-0.155c-0.65,0.031-1.116,0.217-1.426,0.558v3.347c0,0.279-0.154,0.435-0.465,0.466h-0.93      c-0.278-0.031-0.434-0.187-0.464-0.466v-4.989c0.031-0.31,0.185-0.464,0.464-0.464h0.93c0.31,0,0.465,0.154,0.465,0.464v0.278      c0.186-0.278,0.435-0.465,0.713-0.62C18.137,30.597,18.416,30.534,18.726,30.534"/></g><g><defs><rect id="SVGID_15_" x="1.75" y="29.072" width="65.564" height="10.928"/></defs><clipPath id="SVGID_16_"><use xmlns:xlink="http://www.w3.org/1999/xlink" xlink:href="#SVGID_15_" overflow="visible"/></clipPath><path clip-path="url(#SVGID_16_)" fill="#14487E" d="M27.579,29.072h0.585c0.279,0,0.434,0.156,0.465,0.465v6.545      c-0.031,0.278-0.186,0.434-0.465,0.465h-0.93c-0.309-0.031-0.464-0.187-0.464-0.465v-6.545c0.032-0.309,0.185-0.465,0.464-0.465      H27.579z"/></g><g><defs><rect id="SVGID_17_" x="1.75" y="29.072" width="65.564" height="10.928"/></defs><clipPath id="SVGID_18_"><use xmlns:xlink="http://www.w3.org/1999/xlink" xlink:href="#SVGID_17_" overflow="visible"/></clipPath><path clip-path="url(#SVGID_18_)" fill="#14487E" d="M39.4,34.997h-0.124c-0.403,0-0.714-0.093-0.868-0.277      c-0.155-0.187-0.217-0.497-0.217-0.899v-1.643h1.054c0.31,0,0.464-0.156,0.464-0.465v-0.619c0-0.311-0.154-0.465-0.464-0.465      h-1.054v-1.086c-0.031-0.279-0.188-0.434-0.465-0.464h-0.932c-0.309,0.03-0.464,0.185-0.464,0.464v1.086v3.626      c0,0.775,0.218,1.333,0.65,1.705c0.436,0.402,1.022,0.589,1.799,0.589h0.137c0.101-0.569,0.346-1.087,0.693-1.517      C39.551,35.009,39.48,34.997,39.4,34.997"/></g><g><defs><rect id="SVGID_19_" x="1.75" y="29.072" width="65.564" height="10.928"/></defs><clipPath id="SVGID_20_"><use xmlns:xlink="http://www.w3.org/1999/xlink" xlink:href="#SVGID_19_" overflow="visible"/></clipPath><path clip-path="url(#SVGID_20_)" fill="#14487E" d="M48.673,33.015h0.588c0.31-0.032,0.466-0.187,0.466-0.466v-1.58      c-0.59-0.279-1.239-0.435-2.015-0.435c-0.807,0-1.487,0.217-2.044,0.682c-0.528,0.465-0.808,1.085-0.839,1.859v1.239      c0.001,0.021,0.003,0.039,0.003,0.061c0.515,0.474,0.88,1.108,1.018,1.823c0.532,0.286,1.194,0.441,1.985,0.441      c0.467,0,0.931-0.062,1.426-0.218c0.31-0.092,0.466-0.309,0.466-0.588v-0.65c0-0.279-0.093-0.402-0.312-0.402l-0.154,0.031      c-0.465,0.092-0.929,0.155-1.394,0.185c-0.776,0-1.147-0.371-1.179-1.084V33.17c0.031-0.65,0.373-0.961,1.022-0.992      c0.218,0,0.403,0.031,0.496,0.093v0.278C48.207,32.828,48.362,32.982,48.673,33.015"/></g></g><g><g><defs><path id="SVGID_21_" d="M41.354,36.891h1.722c-0.069-0.393-0.417-0.709-0.846-0.709C41.807,36.182,41.415,36.498,41.354,36.891        M40.277,37.129c0,0.225,0.038,0.441,0.104,0.643c0.062,0.182,0.147,0.352,0.256,0.506l1.119,0.268       c-0.31-0.098-0.555-0.292-0.717-0.547c-0.138-0.223-0.216-0.489-0.216-0.777c0-0.803,0.496-1.467,1.397-1.467       c0.924,0,1.414,0.721,1.366,1.529h-2.261c0.006,0.504,0.386,0.906,0.942,0.906c0.416,0,0.688-0.236,0.876-0.561l0.417,0.225       c-0.146,0.255-0.344,0.453-0.585,0.582c-0.216,0.117-0.468,0.18-0.744,0.18c-0.095,0-0.186-0.007-0.273-0.021l0.379,0.09h1.187       c0.059-0.048,0.112-0.1,0.165-0.156c0.103-0.109,0.193-0.23,0.272-0.363c-0.04,0.133-0.091,0.258-0.156,0.376       c-0.025,0.05-0.053,0.098-0.082,0.144h0.55c0.016-0.034,0.033-0.068,0.047-0.102c0.136-0.303,0.21-0.635,0.21-0.979       c0-1.291-1.029-2.404-2.325-2.404C41.14,35.201,40.277,36.064,40.277,37.129 M40.288,34.397       c0.543-0.382,1.204-0.606,1.918-0.606c1.846,0,3.34,1.496,3.34,3.34c0,0-0.101-0.362-0.322-0.823       c-0.104-0.217-0.237-0.454-0.397-0.687c-0.145-0.21-0.343-0.396-0.532-0.582c-0.179-0.174-0.396-0.303-0.62-0.414       c-0.486-0.243-1.034-0.365-1.466-0.365c-1.585,0-2.869,1.285-2.869,2.869c0,0.066,0.003,0.133,0.007,0.199       c0.017,0.232,0.059,0.457,0.128,0.67l0.553,0.133c-0.084-0.182-0.144-0.375-0.181-0.576c-0.025-0.138-0.037-0.279-0.037-0.426       c0-1.324,1.072-2.4,2.399-2.398v0.002c1.545,0,2.803,1.323,2.803,2.869c0,0.35-0.066,0.689-0.184,1.005       c-0.011,0.025-0.021,0.053-0.032,0.079h0.554c0.017-0.025,0.032-0.05,0.049-0.075c0.316-0.505,0.503-1.099,0.513-1.736v-0.085       c-0.023-1.822-1.505-3.295-3.336-3.295C41.688,33.494,40.884,33.838,40.288,34.397"/></defs><clipPath id="SVGID_22_"><use xmlns:xlink="http://www.w3.org/1999/xlink" xlink:href="#SVGID_21_" overflow="visible"/></clipPath><radialGradient id="SVGID_23_" cx="-171.979" cy="13.7998" r="0.1655" gradientTransform="matrix(23.9797 0 0 23.9802 4167.5781 -295.1094)" gradientUnits="userSpaceOnUse"><stop offset="0" style="stop-color:#FFFFFF"/><stop offset="0.1424" style="stop-color:#FACBD6"/><stop offset="0.3056" style="stop-color:#F494AB"/><stop offset="0.4654" style="stop-color:#F16887"/><stop offset="0.6181" style="stop-color:#EF476D"/><stop offset="0.7617" style="stop-color:#EE2F59"/><stop offset="0.8929" style="stop-color:#EA234E"/><stop offset="1" style="stop-color:#EA1F4A"/></radialGradient><polygon clip-path="url(#SVGID_22_)" points="39.338,33.494 45.908,33.494 45.908,39.999 39.344,39.999          " fill="url(#SVGID_23_)"/></g></g></g></svg>