<svg xmlns="http://www.w3.org/2000/svg" id="Layer_1" width="70" height="70" x="0" y="0" enable-background="new 0 0 70 70" version="1.1" viewBox="0 0 70 70" xml:space="preserve"><metadata/><rect width="70" height="70" fill="none"/><path fill="#989898" d="M15.6,49.7c0.9,2.899,0.7,6.1,0.7,6.1c2.5-0.8,6.6-4.899,6.6-4.899h4.6l-1.9,5.3c1,2.6,2,4.7,2.9,6.399 l2.6-7.899l-1.6,9.6c0.4,0.601,0.7,1.101,1,1.601l2.7-11l-1.9,12C33,68.8,34,68.8,34,68.8c0-4.3,1.8-15.7,1.8-15.7l-1.4-2.5 c0,0,0.9,0.301,1.9,0.301c4.2,0,8.3-3.101,8.3-3.101s-4.1-3.1-8.3-3.1c-1,0-1.9,0.3-1.9,0.3l1.4-2.5c0,0-1.8-11.4-1.8-15.7 c0,0-1,0-2.7,1.9l1.9,12l-2.7-11c-0.3,0.4-0.7,1-1,1.6l1.6,9.601L28.5,33c-0.9,1.6-1.8,3.7-2.9,6.4l1.9,5.3h-4.6 c0,0-4.1-4.101-6.6-4.9c0,0,0.2,3.2-0.7,6.101c0,0,2.1,0.6,3.1,2.1C18.7,47.7,17.3,49,15.6,49.7z"/><path fill="#49BEED" d="M56.2,20.3c-0.9-2.9-0.7-6.1-0.7-6.1C53,14.9,48.9,19,48.9,19H44.3l1.9-5.3c-1-2.6-2-4.7-2.9-6.4l-2.6,7.9 l1.6-9.6C41.9,5,41.6,4.5,41.3,4l-2.7,11l1.9-12c-1.7-1.9-2.7-1.9-2.7-1.9c0,4.3-1.8,15.7-1.8,15.7l1.4,2.5c0,0-0.9-0.3-1.9-0.3 c-4.2,0-8.3,3.1-8.3,3.1s4.1,3.1,8.3,3.1c1,0,1.9-0.3,1.9-0.3L36,27.4c0,0,1.8,11.4,1.8,15.7c0,0,1,0,2.7-1.899l-1.9-12l2.7,11 c0.3-0.4,0.7-1,1-1.601L40.7,29l2.6,7.9c0.9-1.601,1.8-3.7,2.9-6.4l-1.9-5.3H48.9c0,0,4.1,4.1,6.6,4.9c0,0-0.2-3.2,0.7-6.1 c0,0-2.101-0.6-3.101-2.1C53.1,22.2,54.5,21,56.2,20.3z"/></svg>