<svg xmlns="http://www.w3.org/2000/svg" id="Layer_1" width="70" height="70" x="0" y="0" enable-background="new 0 0 70 70" version="1.1" viewBox="0 0 70 70" xml:space="preserve"><metadata/><rect width="70" height="70" fill="none"/><path fill="#492161" d="M51.6,57.6c0,0-26.3-3.3-43.399,8.801l9.7,3C17.9,69.4,18.9,59.4,51.6,57.6z"/><path fill="#492161" d="M50.9,56c0,0-16.3-0.7-27.601,2.4C12,61.5,7.4,65.1,7.4,65.1S4.7,65.4,6.2,60.2S8.9,52.6,8.9,52.6 S10.1,55.4,11,54.7s0.1-1.9-0.6-2.8C9.7,51,8.9,49.8,9.7,48.3c0.7-1.5,3.8-7.3,3.8-7.3s0.9,1.6,1,1.8s1.8,0.4,1.7-0.7 c-0.2-1.1-0.5-1.5-1-2.1s-0.8-3,1.2-3.8c2-0.8,3.8-0.8,4.3-0.9c0.5-0.1,0.9-1,0-1.6c-0.9-0.5-2.2-1.6-1.9-2.5c0.4-1,1.9-1.1,2.6-1.1 c0.7,0,1.2-0.5,0.4-1.4c-0.7-0.9-2-2.6-0.5-3c1.5-0.4,2.2-0.2,2.5-0.5c0.4-0.3,1-1.3-0.1-1.9c-1.1-0.6-0.7-1.4-0.4-1.9 c0.2-0.4,1.4-2.8,1.9-3.5c0.4-0.7,1.3-3.3,1.7-3.5c0.4-0.1,4.4-0.2,4.8,0c0.4,0.2,3.2,5.9,3.3,6.3c0.1,0.4,0.3,1.1,0.3,1.1 s0.8,0.1,0.4,0.7c-0.4,0.6-1.9,1.8-1.1,2.5c0.7,0.7,1.5,0.7,2.2,0.8c0.7,0.1,1.4,1,0.5,2.1c-0.899,1.1-1,1.7,0.101,2.2 c1.1,0.4,2.5,1.1,2.399,2.2c-0.1,1-0.7,2.5-2.7,2.6C35.2,35,31.7,35.3,31.7,35.3s8,1.3,9.7,2c1.699,0.7,3,2.9,3.3,3.9 s0.399,1.6,0.399,1.6L32.3,43c0,0,10.3,1.9,11.7,2.2c1.5,0.3,2.6,1.5,3.9,4.3C49.2,52.4,50.9,56,50.9,56z"/><path fill="#492161" d="M53.8,56.4L51.2,50.6L58.6,40.7C58.7,40.7,59.8,49.3,53.8,56.4z"/><path fill="#492161" d="M50.6,49.2L49.3,46.6L55.9,38.4C55.9,38.5,55.8,43.2,50.6,49.2z"/><path fill="#492161" d="M48.9,45.5L47.6,42.8c0,0,4.801-5.399,5.5-7.4C53.2,35.4,54.2,38.6,48.9,45.5z"/><path fill="#492161" d="M46.9,41.2L45.8,38.9c0,0,4.2-5.2,4.8-6.3C50.6,32.6,51.2,36.3,46.9,41.2z"/><path fill="#492161" d="M45,37.2L44,35c0,0,2.8-3.3,3.8-5.2C47.7,29.9,48.6,33.1,45,37.2z"/><path fill="#492161" d="M43.3,33.7l-1-2.7c0,0,2.2-1.9,3-3.6C45.3,27.4,45.7,31.3,43.3,33.7z"/><path fill="#492161" d="M41.5,29.5l-1.3-2.8l2.399-2.9C42.5,23.8,43.6,25.9,41.5,29.5z"/><path fill="#492161" d="M60.7,46c0,0,3.3-2.7,2.899-13.6c-0.3-6.6-7.699-10.3-14-16.6c-5.899-6-9.1-15.1-9.1-15.1 c0,6.5-6.4,13.3-6.4,13.3l2.4,4.5c0,0,4.6-9.8,4.6-12.5c0,0,3,6.6,8,11.5S62.7,26.8,62.8,33.7C62.9,42.9,60.7,46,60.7,46z"/><path fill="#492161" d="M42.6,10.9c0,0-2.3,0.4-2.199,2.1c0.1,1.6,2.5,3,2.5,3s-1-1.9-1-3.1C41.8,11.7,42.6,10.9,42.6,10.9z"/><path fill="#492161" d="M45.2,15.3c0,0-2.3,0.4-2.2,2.1c0.1,1.6,2.5,3,2.5,3s-1-1.9-1-3.1C44.4,16,45.2,15.3,45.2,15.3z"/><path fill="#492161" d="M42.6,16.8c0,0-2.3,0.4-2.199,2.1c0.1,1.6,2.5,3,2.5,3s-1-1.9-1-3.1C41.8,17.5,42.6,16.8,42.6,16.8z"/><path fill="#492161" d="M39.6,17.7c0,0-2.3,0.4-2.199,2.1c0.1,1.6,2.5,3,2.5,3s-1-1.9-1-3.1C38.8,18.5,39.6,17.7,39.6,17.7z"/><path fill="#492161" d="M46.7,21.6c0,0-2.3,0.4-2.2,2.1c0.1,1.6,2.5,3,2.5,3s-1-1.9-1-3.1C45.9,22.4,46.7,21.6,46.7,21.6z"/><path fill="#492161" d="M49.4,19.6c0,0-2.301,0.4-2.2,2.1c0.1,1.6,2.5,3,2.5,3s-1-1.9-1-3.1C48.6,20.3,49.4,19.6,49.4,19.6z"/><path fill="#492161" d="M51.1,25.2c0,0-2.3,0.4-2.199,2.1c0.1,1.6,2.5,3,2.5,3s-1-1.9-1-3.1C50.3,25.9,51.1,25.2,51.1,25.2z"/><path fill="#492161" d="M53.6,22.7c0,0-2.3,0.4-2.199,2.1c0.1,1.6,2.5,3,2.5,3s-1-1.9-1-3.1C52.8,23.4,53.6,22.7,53.6,22.7z"/><path fill="#492161" d="M57.1,26.1c0,0-2.3,0.4-2.199,2.1c0.1,1.6,2.5,3,2.5,3s-1-1.9-1-3.1C56.3,26.8,57.1,26.1,57.1,26.1z"/><path fill="#492161" d="M54.6,29.4c0,0-2.3,0.4-2.199,2.1c0.1,1.6,2.5,3,2.5,3s-1-1.9-1-3.1C53.9,30.2,54.6,29.4,54.6,29.4z"/><path fill="#492161" d="M58.4,33.4c0,0-2.301,0.4-2.2,2.1c0.1,1.7,2.5,3,2.5,3s-1-1.9-1-3.1C57.6,34.2,58.4,33.4,58.4,33.4z"/></svg>