<svg xmlns="http://www.w3.org/2000/svg" id="Layer_1" width="57" height="70" viewBox="0 0 56.89 70"><defs><style>.cls-1{fill:#8c7036}</style></defs><title/><path d="M31.53,35c3.71-5.22,8-4.18,13.11-3.59a7.49,7.49,0,0,1-2-5.22,8.25,8.25,0,0,1,8.33-8c9.6,0,8.45,10.88,4.26,10.88a2,2,0,0,1-1.87-1.43,5.59,5.59,0,0,0-.24-2,2.31,2.31,0,0,0-3.75-.84c-1.31,1.24-.48,3.75.36,5a6.57,6.57,0,0,0,5.62,2.91h.4a8,8,0,0,0,6.81-11.67,13.39,13.39,0,0,0-6.14-6.85A16.22,16.22,0,0,0,63.09,0L6.55,35,63.17,70a16.22,16.22,0,0,0-6.69-14.26,13.39,13.39,0,0,0,6.06-6.81,8,8,0,0,0-6.85-11.43h-.4a6.57,6.57,0,0,0-5.62,2.91c-.84,1.27-1.67,3.78-.36,5A2.31,2.31,0,0,0,53,44.58c.24-.6,0-1.35.24-2a2,2,0,0,1,1.87-1.43c4,0,5.38,10.88-4.26,10.88a8.25,8.25,0,0,1-8.33-8,7.49,7.49,0,0,1,2-5.22C39.54,39.2,35.24,40.24,31.53,35Z" class="cls-1" transform="translate(-6.55)"/></svg>