<svg xmlns="http://www.w3.org/2000/svg" width="70" height="70" version="1.1" viewBox="0 0 70 70"><g id="surface1"><path d="M 13.804688 47.761719 L 13.597656 47.90625 C 17.832031 55.714844 25.851562 60.992188 35 60.992188 C 48.605469 60.992188 59.628906 49.347656 59.628906 35 C 59.628906 31.050781 57.988281 27.722656 56.054688 25.203125 C 53.480469 21.847656 49.816406 20.238281 46.164062 20.210938 C 43.148438 20.183594 40.03125 21.199219 37.832031 23.1875 C 35.324219 25.460938 34.765625 28.386719 34.117188 33.128906 C 33.402344 38.328125 29.214844 41.914062 23.835938 41.914062 C 16.871094 41.914062 12.554688 37.625 12.839844 31.0625 C 12.867188 30.609375 12.90625 30.152344 12.984375 29.710938 C 14.296875 21.964844 22.628906 13.972656 35.15625 14 C 43.566406 14 49.882812 15.882812 56.199219 22.238281 L 56.40625 22.09375 C 52.167969 14.285156 44.164062 9.007812 35 9.007812 C 21.40625 9.007812 10.371094 20.652344 10.371094 35 C 10.371094 38.953125 12.011719 42.277344 13.945312 44.800781 C 16.507812 48.152344 20.183594 49.75 23.835938 49.789062 C 26.851562 49.828125 29.972656 48.804688 32.167969 46.816406 C 34.675781 44.539062 35.234375 41.617188 35.882812 36.871094 C 36.597656 31.675781 40.796875 28.085938 46.164062 28.085938 C 53.144531 28.085938 57.457031 32.375 57.171875 38.9375 C 57.148438 39.394531 57.105469 39.847656 57.03125 40.292969 C 55.691406 48.035156 47.398438 56.03125 34.84375 56.003906 C 26.4375 56 20.121094 54.117188 13.804688 47.761719 Z M 13.804688 47.761719" style="stroke:none;fill-rule:nonzero;fill:#051766;fill-opacity:1"/></g></svg>