<svg xmlns="http://www.w3.org/2000/svg" version="1.1" width="70px" height="70px" viewBox="0 0 70 70"><g id="surface1"><path d="M 61.125 70 L 8.875 70 C 4.058594 70 0 65.941406 0 61.125 L 0 8.875 C 0 4.058594 4.058594 0 8.875 0 L 61.125 0 C 65.941406 0 70 4.058594 70 8.875 L 70 61.125 C 70 65.941406 65.941406 70 61.125 70 Z M 61.125 70 " style=" stroke:none;fill-rule:nonzero;fill:rgb(34.117648%,73.333335%,92.156863%);fill-opacity:1;"/><path d="M 14.203125 47.425781 C 18.007812 55.289062 25.871094 60.363281 35 60.363281 C 48.1875 60.363281 59.09375 48.949219 59.09375 35 C 59.09375 31.195312 57.574219 27.898438 55.542969 25.363281 C 53.007812 22.066406 49.457031 20.542969 45.90625 20.542969 C 42.863281 20.542969 39.820312 21.558594 37.789062 23.332031 C 35.253906 25.617188 34.746094 28.40625 34.238281 32.972656 C 33.476562 38.042969 29.421875 41.59375 24.09375 41.59375 C 17.246094 41.59375 13.1875 37.535156 13.441406 30.941406 C 13.441406 30.433594 13.441406 30.179688 13.695312 29.675781 C 14.964844 22.066406 23.078125 14.203125 35.253906 14.457031 C 43.371094 14.457031 49.710938 16.230469 55.796875 22.574219 L 55.796875 22.320312 C 51.738281 14.710938 43.875 9.636719 35 9.636719 C 21.8125 9.636719 10.90625 21.050781 10.90625 35 C 10.90625 38.804688 12.425781 42.101562 14.457031 44.636719 C 16.992188 47.933594 20.542969 49.457031 24.09375 49.457031 C 27.136719 49.457031 30.179688 48.441406 32.210938 46.667969 C 34.746094 44.382812 35.253906 41.59375 35.761719 37.027344 C 36.523438 31.957031 40.578125 28.40625 45.90625 28.40625 C 52.753906 28.40625 56.8125 32.464844 56.558594 39.058594 C 56.558594 39.566406 56.558594 39.820312 56.304688 40.324219 C 55.035156 47.933594 46.921875 55.796875 34.746094 55.542969 C 26.628906 55.542969 20.542969 53.769531 14.203125 47.425781 Z M 14.203125 47.425781 " style=" stroke:none;fill-rule:nonzero;fill:rgb(1.960784%,9.019608%,40.000001%);fill-opacity:1;"/></g></svg>