<svg xmlns="http://www.w3.org/2000/svg" id="Layer_1" width="70" height="70" x="0" y="0" version="1.1" viewBox="0 0 70 70" xml:space="preserve" style="enable-background:new 0 0 70 70"><style type="text/css">.st0{fill:#e30613}.st1{fill:#fff}</style><rect width="70" height="70" class="st0"/><g><path d="M44.4,42.5c0,0,5.6-0.8,7.4-0.8c3.2-0.1,4.8,1.2,4.8,3.6c0,2.3-1.6,3.3-4.8,3.3h-7.4V42.5z M37.8,53.5h14.3 c2.3,0,4.8,0.1,6.3-0.6c1.5-0.6,2.3-1.2,3.2-2.3c1.1-1.4,1.6-3.4,1.6-5c0-1.9-0.3-3.7-1.7-5.2c-0.3-0.3-0.4-0.7-0.3-1.2 c0.1-0.5,1.5-1.2,2.3-1.4c-11.1,0.5-19.1,1.5-25.7,2.8L37.8,53.5z" class="st1"/><path d="M33.7,44.5c-0.1-0.3-0.3-0.9-0.1-1.7c0.3-0.8,1.7-1.7,2-1.8c-0.1,0-1,0.2-1,0.2c-1.8,0.4-2.2,0.5-3.6,0.8 c-2.1,0.6-11.7,2.8-19.9,7.3c0,0-0.3,0.7-0.3,0.8C9.8,52.9,8,53.5,8,53.5h8.3l1.4-3.9c0.3-0.6,1.3-1.7,2.6-1.8l7.9-1l2.3,6.8H37 L33.7,44.5z" class="st1"/><path d="M43.8,25.9h-8.6v0.1c1.1,0.5,2.6,1.8,2.6,4.1V37c2.4-0.2,3.9-0.3,6.6-0.6v-5.9h5.7c3,0,4.6,1,4.6,3.1 c0,1.2-1.2,1.9-2.9,2.3c0.9,0,1.9-0.1,2.8-0.1c2.8-0.2,4.4-0.3,5.8-2c1.2-1.4,1.1-3.4,0.3-4.6c-0.6-0.9-1.1-1.5-2-2.1 c-1-0.6-3-1.1-5.1-1.3C52.2,26,45.5,25.9,43.8,25.9" class="st1"/><path d="M23.3,32.3l2.2,6.6c1.9-0.4,3.9-0.7,5.9-1L27.3,26h-7.4l0,0H17v0.2c0.8,0.3,2.1,1.4,1.3,4.1l-4.2,11.4 c1.8-0.6,5-1.4,7-1.8L23.3,32.3z" class="st1"/><path d="M30.2,11.9c-1-0.6-2.8-1.8-4-4.1c-0.1,2.3-1.2,4-1.8,4.9c0.5,0.1,0.9,0.2,1.4,0.2C27.6,13.1,29,12.7,30.2,11.9" class="st1"/><path d="M45.7,12.9c0.5-0.1,1-0.1,1.4-0.2c-0.6-0.9-1.7-2.6-1.8-4.9c-1.2,2.3-3.1,3.5-4,4.1 C42.5,12.7,43.9,13.1,45.7,12.9" class="st1"/><path d="M35.7,19c5.1,0,9.7,1,13.2,2.6h0.1c1.2-3.3,6.2-14.6,6.2-14.6c-0.8,0.8-4.1,6.8-9.9,7.2 c-5.8,0.5-8.1-5.3-9.6-11.9l0,0l0,0c-1.4,6.5-3.7,12.3-9.6,11.9c-5.8-0.5-9.1-6.5-9.9-7.2c0,0,5,11.3,6.2,14.6 C25.9,19.9,30.6,19,35.7,19" class="st1"/><g><rect width="4.9" height="1.3" x="12.8" y="66.5" class="st1"/><rect width="4.9" height="1.3" x="17.7" y="66.5" class="st1"/><rect width="4.9" height="1.3" x="7.8" y="66.5" class="st1"/><rect width="1.3" height="6.1" x="15.1" y="57.9" class="st1"/><g><path d="M20.2,60.8c0.6,0,1-0.2,1-0.9s-0.4-0.9-1-0.9h-1v1.8H20.2z M18,57.9h2.3c1.2,0,2.3,0.6,2.3,2 c0,0.9-0.5,1.5-1.2,1.8l1.4,2.3h-1.4l-1.2-2.1h-0.8V64H18L18,57.9L18,57.9z" class="st1"/></g><polygon points="31.3 57.9 35.4 57.9 35.4 59 32.6 59 32.6 60.4 35 60.4 35 61.5 32.6 61.5 32.6 62.9 35.5 62.9 35.5 64 31.3 64" class="st1"/><polygon points="36.8 57.9 38.1 57.9 38.1 62.9 40.8 62.9 40.8 64 36.8 64" class="st1"/><g><path d="M41.1,61c0-1.8,1.3-3.1,3.1-3.1c1,0,1.7,0.3,2.2,0.9l-0.9,0.9c-0.3-0.3-0.7-0.5-1.4-0.5 c-1.1,0-1.8,0.9-1.8,2s0.7,2,2,2c0.4,0,0.9-0.1,1.2-0.2v-1h-1.5v-1.1h2.6v2.7c-0.3,0.3-1.2,0.7-2.4,0.7 C42.4,64.1,41.1,62.8,41.1,61" class="st1"/></g><rect width="1.3" height="6.1" x="48.2" y="57.9" class="st1"/><path d="M51,61.8v-3.9h1.3v3.8c0,0.9,0.4,1.2,1.2,1.2c0.8,0,1.2-0.3,1.2-1.2v-3.8H56v3.9c0,1.5-1.1,2.3-2.5,2.3 C52,64.1,51,63.4,51,61.8" class="st1"/><path d="M57.2,57.8h0.1l3,3.3l3-3.3h0.1V64h-1.2v-2.3c0-0.4,0-1.1,0-1.1s-0.4,0.5-0.7,0.9l-1.2,1.4h-0.1l-1.2-1.4 c-0.3-0.3-0.7-0.9-0.7-0.9s0,0.7,0,1.1V64h-1.2L57.2,57.8L57.2,57.8z" class="st1"/><path d="M28.2,62.9H27v-1.5h1.1c0.5,0,0.9,0.3,0.9,0.8C28.9,62.6,28.6,62.9,28.2,62.9 M27,59h1c0.5,0,0.7,0.2,0.7,0.7 s-0.3,0.7-0.8,0.7H27V59z M29,60.8c0.6-0.2,0.9-0.7,0.9-1.2c0-0.9-0.6-1.6-1.9-1.6h-1.7h-0.7h-0.5v0c0.2,0.1,0.5,0.4,0.5,0.9v5.2 h2.5c1.3,0,2-0.8,2-1.7C30.2,61.4,29.8,61,29,60.8" class="st1"/><path d="M10.1,62.2l0.7-2l0.8,2H10.1z M13.7,64L13.7,64L11,57.8h-0.9v0c0.2,0.1,0.5,0.3,0.3,0.9l-2,4.5 C8.2,63.9,7.8,64,7.8,64h1.5l0.3-0.8H12l0.3,0.8L13.7,64L13.7,64L13.7,64" class="st1"/></g></g></svg>