<svg xmlns="http://www.w3.org/2000/svg" id="Layer_1" width="70" height="70" x="0" y="0" version="1.1" viewBox="0 0 70 70" xml:space="preserve" style="enable-background:new 0 0 70 70"><style type="text/css">.st0{fill:#59ad41}.st1{fill:#004b85}.st2{fill:#fff;stroke:#000;stroke-width:1.1794}</style><g><path d="M69.9,13.7V6.4c0,0-15.1-6.3-35.3,26.9C16.2,63.6,0,61.5,0,61.5V70h70L69.9,13.7z" class="st0"/><path d="M34.6,33.3C54.8,0.1,69.9,6.4,69.9,6.4V0.1H0v61.4C0,61.5,16.2,63.6,34.6,33.3z" class="st1"/></g><g><g><g><g><path d="M24.8,31.8c0,2.3-0.6,4.4-1.8,6.3s-2.7,3.4-4.6,4.4c-1.1,0.6-2.3,1-3.5,1.2c-1.2,0.2-2.7,0.3-4.4,0.3H3.2 l4.6-20h6.5c1.9,0,3.4,0.1,4.6,0.4c1.2,0.3,2.1,0.7,2.8,1.2c1,0.7,1.7,1.5,2.3,2.5C24.5,29.2,24.8,30.4,24.8,31.8z M19.3,32.3 c0-0.9-0.2-1.7-0.5-2.4c-0.3-0.7-0.9-1.2-1.6-1.6c-0.3-0.2-0.7-0.3-1-0.4c-0.3-0.1-0.7-0.2-1.1-0.2c-0.4,0-0.9-0.1-1.4-0.1 s-1,0-1.4,0h-0.2l-3,12.7h0.5c0.5,0,1.1,0,1.7,0c0.6,0,1.1,0,1.4-0.1c0.5,0,0.9-0.1,1.3-0.2c0.4-0.1,0.8-0.3,1.3-0.5 c1.3-0.7,2.3-1.7,3-3C19,35.3,19.3,33.8,19.3,32.3z" class="st2"/><path d="M43.4,44h-5.2l-0.5-4.1h-7.3L28,44h-5.4l12-20h6L43.4,44z M37.3,36.3l-0.8-7.2l-4.1,7.2H37.3z" class="st2"/><path d="M54,44.4c-2.7,0-4.8-0.7-6.3-2c-1.5-1.3-2.2-3.2-2.2-5.7c0-2,0.3-3.7,1-5.3c0.7-1.6,1.5-3,2.7-4.1 c1.1-1.1,2.4-2,4-2.7s3.2-1,4.9-1c1.4,0,2.7,0.1,3.8,0.4c1.2,0.3,2.3,0.7,3.2,1.2l-1.2,4.9h-0.6c-0.9-0.9-1.7-1.6-2.5-2 s-1.8-0.6-3-0.6c-2,0-3.6,0.8-4.9,2.4c-1.3,1.6-1.9,3.7-1.9,6.1c0,1.6,0.4,2.8,1.1,3.5c0.7,0.7,1.8,1.1,3.1,1.1 c1.2,0,2.4-0.2,3.5-0.7c1.1-0.5,2.1-1.1,3.1-1.9h0.5l-1.2,4.8c-0.4,0.2-0.9,0.4-1.4,0.6c-0.5,0.2-1.1,0.4-1.5,0.6 c-0.6,0.2-1.2,0.3-1.8,0.4C55.7,44.4,55,44.4,54,44.4z" class="st2"/></g></g></g></g></svg>