<svg xmlns="http://www.w3.org/2000/svg" id="Layer_1" width="70" height="70" x="0" y="0" enable-background="new 0 0 70 70" version="1.1" viewBox="0 0 70 70" xml:space="preserve"><path fill="#CE2027" fill-rule="evenodd" d="M11.502,49.257c7.86-12.106,15.661-24.12,23.54-36.272 c7.1,12.263,14.152,24.434,21.267,36.712c-12.118,0-24.145,0-36.341,0c8.171-1.725,16.189-3.421,24.299-5.136 c-0.683-1.159-1.32-2.262-1.969-3.36c-2.332-3.959-4.667-7.926-6.999-11.884c-0.482-0.82-0.484-0.824-1.14-0.167 c-7.633,7.637-15.265,15.294-22.894,22.932c-1.078,1.085-2.158,2.16-3.24,3.235c-0.174,0.172-0.317,0.413-0.739,0.298 c0.611-0.923,1.151-1.836,1.805-2.675c0.457-0.579,0.311-1.021-0.109-1.483c-2.377-2.6-4.048-5.575-5.172-8.839 c-0.574-1.673-0.959-3.373-1.196-5.126c-0.229-1.757-0.246-3.522-0.1-5.247c0.248-2.854,1.048-5.617,2.278-8.264 c1.243-2.674,2.934-5.029,4.941-7.23c2.394-2.628,5.232-4.681,8.405-6.368c3.9-2.076,8.097-3.286,12.517-3.768 c6.988-0.76,13.695,0.241,19.989,3.291c6.294,3.045,11.122,7.527,14.132,13.664c1.228,2.498,1.99,5.126,2.338,7.878 c0.672,5.372-0.313,10.446-2.925,15.221c-2.79,5.089-6.935,8.936-12.129,11.81c-2.773,1.539-5.747,2.624-8.834,3.359 c-1.977,0.469-4.016,0.771-6.074,0.849c-1.003,0.033-2.006,0.098-3.007,0.13c-1.212,0.047-2.398-0.203-3.604-0.296 c-1.717-0.134-3.383-0.487-5.031-0.932c-3.808-1.024-7.381-2.517-10.579-4.77c-1.105-0.779-2.201-1.558-3.221-2.434 c-0.227-0.199-0.466-0.402-0.072-0.635c0.783-0.463,1.37-1.131,2.035-1.719c0.262-0.237,0.396-0.172,0.63,0.023 c6.514,5.506,14.192,7.897,22.805,7.3c9.549-0.664,17.396-4.505,22.747-12.214c6.045-8.704,5.217-19.642-1.913-27.595 c-4.989-5.562-11.408-8.667-18.986-9.575c-8.025-0.955-15.443,0.658-22.057,5.14c-5.655,3.833-9.374,8.969-10.598,15.531 C5.025,37.521,6.92,43.667,11.502,49.257z" clip-rule="evenodd"/></svg>