<svg xmlns="http://www.w3.org/2000/svg" id="Layer_1" width="70" height="70" x="0" y="0" enable-background="new 0 0 70 70" version="1.1" viewBox="0 0 70 70" xml:space="preserve"><metadata/><rect width="70" height="70" fill="none"/><path fill="#EC232C" d="M68,49.2c0,0-3.1,3.5-11.1,2.8c0,0-0.601,0.1-1.9-0.4c4.1-4.5,8.2-11.1,8.4-20.2c0,0,1.6-16.2-13-24.2 c0,0-9.601-6-22.2-2.5c0,0-17,4.9-22.9,18.6c0,0-7.9,12.7-0.6,26.8c0,0,4.4,9.801,16,12.601c0,0,14.4,3.899,25.3-3.9 c1.5,0.8,3.2,1.601,5.1,2.4c0,0,8.301,2.2,13.301-1.9c0,0,4.199-2.6,4.3-10C68.7,49.4,68.8,48.6,68,49.2z M50.8,49.4 c-0.8-0.5-1.7-1.2-2.8-2L34,35.9c0,0-0.6-0.5,0.3-0.601c0,0,8.101-1.5,10.5-3.4c0,0,7.3-3.6,8.3-9c0,0,1.5-5.9-0.8-9.3 c0,0-0.8-0.6-1.1,0.1c0,0-4.2,4.3-7.8,6.6l-10.8,7c0,0-0.8,0.5-0.2-0.7l3.1-8.2c0,0,1.7-2.8-3-2.5c0,0-7.2,0.7-11.1,5.6 c0,0-0.3,0.2,0.2,0.3l2.3-0.1c0,0-6.5,15.2-6.6,16.1c0,0-2.3,7.101-1.2,14.101l11.5,0.3c0,0-3.2-1.5-1.2-9.7c0,0,1.4-4.8,2.4-5.2 c0,0,0.3-0.5,0.5,0.4c0,0,2.3,8.2,8.4,14.5c0,0,1.3,1.8,4.399,4.1C42,56.4,41.9,56.5,41.9,56.5C17.7,68.6,8.3,51.1,8.3,51.1 C3,39.7,9.5,28.9,9.5,28.9c6.2-12.3,18-17.1,18-17.1c16.5-7.1,26,0.9,26,0.9c13.3,10,5,26.7,5,26.7C57.2,42.8,54,46.4,50.8,49.4z"/></svg>