<svg xmlns="http://www.w3.org/2000/svg" id="Layer_1" width="70" height="70" x="0" y="0" enable-background="new 0 0 70 70" version="1.1" viewBox="0 0 70 70" xml:space="preserve"><metadata/><rect width="70" height="70" fill="none"/><path fill="#821427" d="M50.1,34.7c0,0,1.7-0.1,2.101-0.1c0.399,0,0.899-0.2,0.899-0.5c0-0.3-0.3-0.5-0.6-0.5s-1.9,0-1.9,0 s2.601-4.4,5.2-7.4c2.7-3,4-4.2,4.101-4.3c0.1-0.1,0.199-0.3,0-0.5c-0.2-0.2-0.4-0.1-0.801,0.1c-0.3,0.2-2.699,2.1-3.699,3.2 c0,0,0.199-0.3-0.101-0.5c-0.2-0.2-0.6-0.1-0.899,0.3c-0.4,0.4-6.801,6-11.2,9.4c0,0-2.9,0-4.5,0.1c0,0,0.399-0.1,0.3-0.4 c-0.1-0.3-0.2-0.3-0.4-0.2c-0.3,0-2.899,0.4-3.6,0.6s-1.1,0.8-1.1,1.3s0.4,0.9,1,0.8c1.2-0.1,4.7-0.7,6.4-0.899c0,0-4,3.399-6.5,5.3 s-2.7,1.7-3.1,1.7c-0.4,0-0.8-0.4-0.8-1.2s0.7-2.5,1.1-3.1c0.4-0.7,0.8-0.801,0.8-1.4c0-0.4-0.5-0.4-0.6-0.4c-0.1,0-0.8,0-2,0.7 c-1.2,0.8-3,2.101-4.1,2.8c-1.3,0.801-1.7,1.101-2,1.301C23.8,41.1,23.5,41.1,23.8,40.6c0.3-0.5,2.2-2.899,2.7-3.399s0.9-1,0.4-1 s-0.9,0.1-1.4,0.5c-0.4,0.399-1.2,1.2-1.3,1.2c-0.1,0.1,0.1,0.199,0,0.5c-0.2,0.3-1.1,1.699-2,2.899c-0.3,0.4-4.2,2-5.5,2 c-1.2,0-1.1-0.899-1.1-1.2c0-0.899,1-1.899,1.3-2.399c0,0,1.4,0,1.9,0c1.2,0,5.4-1.9,5.7-4.4c0.1-0.7-0.5-1.1-1.6-1.1 c-1,0-3.4,0.6-5.3,2.8c-1.9,2.3-3.4,3.7-3.4,5.2s1.9,1.8,2.4,1.8s2.6-0.4,4.5-1.5c0,0-0.6,0.7-0.6,1s0.1,0.4,0.6,0.4 s1.6-0.601,2.6-1.5c1-0.9,4.5-3.5,6-4.4c0.7-0.4,0.6,0,0.2,0.7s-1,2-1,3s0.8,1.399,1.5,1.399c0.4,0,0.5,0,0.6-0.1 c-0.3,0.2-1.1,0.9-2.7,1.9c-1.8,1.199-4.7,2.8-6.8,3.699C19.4,49.5,18.3,49.7,18,49.7s-0.8,0.1-0.8,0.5c0,0.399,0.4,0.6,0.9,0.6 s2.3,0,7.5-2.899C30.9,45,39.4,39.1,43.7,35.3c0,0,2.8-0.3,3.7-0.3c0,0-2.601,5.8-2.601,9.7c0,2,1.101,4,2.2,4.1 c0.6,0,1.7-0.7,1.7-1.5S47.1,46.2,47.1,43.2C47.6,40.1,49.2,36.5,50.1,34.7z M22.2,35.3c0.3,0,0.8,0.2,0.8,0.5 c-0.1,1.4-2.5,3.2-3.9,3.3c-0.5,0-1-0.3-1-0.3C19.8,36.4,21.4,35.4,22.2,35.3z M46.1,33.9c0,0,7.2-7,8.4-8c0,0-4.5,5.2-5.9,7.9 C48.6,33.8,46.8,33.8,46.1,33.9z M27.6,26.5c0-4-5.8-5.8-11.8-5.8s-9.8,1.7-11.6,3c-1.7,1.3-2.7,3.2-2.7,4.2s1.2,3,3.4,3.4 c0.3,0.1,0.7-0.2,0.7-0.5c0-0.3-0.3-0.7-0.8-0.7S3.1,29.3,3.1,28S7,22,16,22s10.2,3.3,10.2,4.7c0,1.4-1.9,7.3-15.9,8.7 c-1.3,0.1-2.1-0.2-2.1-0.2s4.5-4.7,7.2-7.1c2.7-2.4,3.5-2.6,3.5-3.3c0-0.7-0.7-0.7-1.1-0.7c-0.4,0-1.4,0.3-2.1,0.7 c-0.7,0.4-1.8,0.9-1.9,1.3c-0.2,0.4,0,0.7,0,0.7S9,31.3,6.4,34.6c0,0-0.5-1.4-1.3-1.4c-0.8,0-0.9,1.2-0.9,1.6c0,0.4,0.5,0.9,1,1.2 c0,0-3.4,4.3-3.4,8.3c0,2.101,1.3,2.7,2,2.7c0.7,0,1.9-0.8,1.9-1.2c0-0.399-0.2-0.5-0.5-0.5C4.9,45.3,4,45.9,3.7,45.9 c-0.3,0-0.8-0.7-0.8-1.301c0-0.6,1.1-4.8,4.1-8c0,0,0.8,0.2,2.1,0.101C14.9,36.6,27.6,33.7,27.6,26.5z M57.3,32.7 c-0.1,0.1-1.399,1.2-1.399,1.5c0,0.3,0.3,0.5,0.699,0.5c1.5,0,2.801-1.7,2.801-1.9c0-0.2-0.4-0.7-1.4-0.7 C57.6,32.1,57.4,32.6,57.3,32.7z M66.5,35.4c-3.4,0.1-7.5,4.5-7.5,4.5c0.7-1.101,2.8-3.9,2.9-4.2c0.1-0.2-0.601-0.101-1.2,0.1 c-0.7,0.3-1.8,1.5-1.9,1.7c-0.1,0.1,0.2,0.2,0.2,0.2c-0.5,0.7-2.6,3.8-2.6,3.8c-1.2,1-4.2,2-4.801,2c-0.6,0-1.3-0.5-1.3-1.1 c0-0.601,0.2-1.101,1.5-2.601c1.2-1.5,3.5-3.399,3.7-3.6c0.2-0.101,0.2-0.3,0-0.3S53.8,36.1,53.1,36.6 C52.9,36.7,52.5,37.1,52.2,37.3s-0.601,0.3-0.7,0.5c-0.1,0.101,0.2,0.3,0.2,0.3c-1,1.2-2.8,3.4-2.8,4.7c0,0.8,1.1,1.7,2.5,1.7 c1.399,0,3.6-1.1,3.6-1.1c-0.2,0.3-0.4,1,0.1,1c1.2,0,2.101-1.5,3.601-3.301c1.6-1.8,4.899-4.199,6.5-4.199c1.6,0,0.7,1.5,1.3,1.5 s1.9-1.5,1.9-1.9C68.7,36,67.8,35.4,66.5,35.4z"/></svg>