<svg xmlns="http://www.w3.org/2000/svg" version="1.1" id="Layer_1" x="0px" y="0px" width="70px" height="70px" viewBox="0 0 70 70" enable-background="new 0 0 70 70" xml:space="preserve"><metadata/><rect width="70" fill="none" height="70"/><path fill="#010101" d="M1.7,17.5c5,1.4,10,3.2,14.6,5.7c3.3,1.8,6.6,3.6,9.7,5.8c5.7,4,11.4,8.1,17.8,10.9c3,1.3,6.2,2.399,9.5,3.1   c5.101,1.1,10.4,1.3,15.601,1.5c0-0.1,0-0.2,0-0.3c-1.4-0.101-2.7-0.4-4.101-0.7c-4.3-1.1-8.6-2.5-12.7-4c-3.1-1.2-6-2.6-8.8-4.3   c-3.1-1.8-5.899-4-8.3-6.6c1.6-1.5,3.4-2.7,5.4-3.4C43.7,24,47.3,23.9,50.8,24.3c4.7,0.6,9.3,2.2,13.7,3.8c0.2,0.1,0.6,0.2,0.5-0.1   c-5.8-3.3-12.1-5.7-18.6-7.3c-1.5-0.4-3.101-0.7-4.7-0.8c-2.5-0.2-5,0-7.4,0.5c-2.6,0.7-4.7,2.5-7.3,3.1c-1.3,0.3-2.7,0.2-3.9-0.2   c-2.6-0.8-4.9-2.4-7.5-3.2c-1-0.3-1.9-0.7-2.9-0.6c-0.5,0-1,0.2-1.4,0.6c-3.5-1.2-6.8-2.3-10.3-3C1.1,17.4,1.5,17.4,1.7,17.5z"/></svg>