<svg xmlns="http://www.w3.org/2000/svg" id="Layer_1" width="70" height="70" x="0" y="0" enable-background="new 0 0 70 70" version="1.1" viewBox="0 0 70 70" xml:space="preserve"><path fill="#C42033" fill-rule="evenodd" d="M5,6.524c3.172-2.419,6.591-4.347,10.502-5.303 c4.413-1.078,8.804-1.002,13.082,0.529c4.214,1.51,7.252,4.312,8.722,8.65c0.545,1.603,1.138,1.832,3.183,1.17 c-3.339,3.263-6.408,6.551-9.723,9.593c-0.537-0.251-0.477-0.76-0.53-1.221c-0.238-2.094-0.444-4.19-1.011-6.233 c-0.56-2.016-1.85-3.181-3.925-3.379c-4.246-0.403-8.484-0.374-12.71,0.301c-0.926,0.147-1.727,0.793-2.717,0.629 C8.247,9.754,6.624,8.249,5,6.743C5,6.67,5,6.597,5,6.524z" clip-rule="evenodd"/><path fill="#0D4D8B" fill-rule="evenodd" d="M30.453,25.812c1.327,9.971,2.652,19.942,4.014,30.176 c-1.323-0.973-2.494-1.832-3.664-2.694c-0.205-0.149-0.42-0.287-0.612-0.451c-0.295-0.255-0.543-0.298-0.832,0.025 c-0.396,0.446,0.056,0.564,0.275,0.731c2.643,1.988,5.294,3.964,7.943,5.945c4.04,3.021,8.083,6.043,12.223,9.138 c-0.972,0.333-1.704,0.292-2.493-0.284c-3.786-2.762-7.617-5.461-11.415-8.21c-0.472-0.341-0.928-0.498-1.5-0.494 c-2.618,0.018-5.239-0.02-7.857,0.024c-0.751,0.013-0.991-0.221-1.025-0.966c-0.085-1.885-0.26-3.765-0.396-5.628 c-0.468-0.155-0.531,0.229-0.686,0.427c-1.354,1.755-2.67,3.545-4.242,5.116c-1.237,1.237-2.553,2.211-4.423,1.181 c-0.554-0.304-0.947,0.131-1.322,0.484c-2.198,2.067-4.392,4.138-6.6,6.194c-0.398,0.372-0.892,1.152-1.369,0.718 c-0.558-0.508,0.185-1.104,0.534-1.564c1.821-2.406,3.661-4.797,5.519-7.173c0.371-0.473,0.5-0.807,0.112-1.395 c-0.896-1.358-0.748-2.825,0.293-4.136c0.972-1.223,1.971-2.422,2.957-3.633c0.404-0.223,0.677,0.123,0.995,0.24 c1.728,0.647,2.794,0.407,4.005-0.926c0.865-0.951,0.882-2.577,0.066-3.591c-0.451-0.562-0.865-0.581-1.316-0.019 c-0.883,1.103-1.844,2.137-2.725,3.24c-0.309,0.388-0.586,0.848-1.182,0.853c-1.146-0.761-2.281-1.541-3.443-2.277 c-0.495-0.314-0.476-0.552-0.129-0.994c1.164-1.484,2.279-3.009,3.415-4.518c0.221-0.291,0.483-0.521-0.017-0.857 c-0.432-0.293-0.615-0.124-0.869,0.192c-1.159,1.443-2.362,2.854-3.484,4.324c-0.443,0.583-0.795,0.578-1.291,0.147 c-0.518-0.452-1.093-0.847-1.577-1.331c-1.795-1.803-1.847-3.388-0.234-5.337c3.515-4.253,7.023-8.51,10.535-12.765 c0.414-0.391,0.939-0.331,1.437-0.332c2.96-0.012,5.922-0.015,8.883,0.002C29.481,25.401,30.062,25.293,30.453,25.812z" clip-rule="evenodd"/><path fill="#C42033" fill-rule="evenodd" d="M30.453,25.812c-3.938-0.029-7.876-0.057-11.815-0.085 c-0.537-1.114-0.737-2.255-0.268-3.447c0.25-0.296,0.596-0.326,0.948-0.343c3.435-0.062,6.871-0.055,10.306-0.006 c0.391,0.007,0.788-0.004,1.161,0.151c1.742-0.33,3.056-1.399,4.016-2.757c1.688-2.385,3.919-3.328,6.751-3.119 c0.538,0.041,1.087-0.059,1.629-0.032c2.226,0.111,3.586-0.854,4.287-3.019c0.649-2.011,2.174-3.297,4.151-4.029 c0.472-0.175,0.963-0.289,1.351-0.663c3.011-2.897,6.77-3.961,10.79-4.353c0.675-0.065,1.368-0.266,2.046,0.049 c0.006,0.062,0.042,0.153,0.014,0.183c-2.588,2.676-2.854,6.176-3.371,9.576c-0.442,2.903-2.004,3.874-4.852,2.931 c-3.254-1.077-3.254-1.077-4.922,1.868c-1.426,2.519-3.589,3.422-6.679,2.802c-0.712-0.144-1.422-0.324-2.141-0.384 c-1.548-0.129-2.68,0.469-3.785,1.662c-2.103,2.272-4.779,3.449-7.988,3.047C31.547,25.779,30.997,25.821,30.453,25.812z" clip-rule="evenodd"/><path fill="#C42033" fill-rule="evenodd" d="M30.877,66.302c-0.106,0.193-0.159,0.281-0.202,0.372 c-0.24,0.493,0.208,1.264-0.31,1.513c-0.509,0.246-1.202,0.115-1.814,0.13c-0.619,0.015-1.241-0.038-1.854,0.015 c-0.791,0.067-1.115-0.199-1.078-1.03c0.079-1.779,0.11-3.561,0.112-5.34c0-0.727,0.209-1.063,0.997-1.039 c2.651,0.078,5.303,0.116,7.956,0.149c0.431,0.006,0.595,0.145,0.729,0.58c0.781,2.532,1.99,3.461,4.651,3.6 c0.542,0.028,0.798,0.164,0.787,0.747c-0.049,2.896,0.314,2.398-2.408,2.428c-0.581,0.007-1.164-0.101-1.739-0.061 C34.472,68.52,32.426,68.165,30.877,66.302z" clip-rule="evenodd"/><path fill="#0D4D8B" fill-rule="evenodd" d="M19.241,22.238c-0.29,0.015-0.582,0.028-0.872,0.043 c-0.278-0.994-1.149-1.042-1.922-1.101c-1.047-0.079-2.105-0.04-3.159-0.011c-1.843,0.051-2.5-0.311-3.18-1.979 c-0.167-0.413-0.375-0.451-0.716-0.438C8.92,18.77,8.43,18.7,7.979,18.804c-1.179,0.273-1.306-0.31-1.247-1.279 c0.158-2.549,0.903-4.772,3.14-6.265c2.479-1.242,5.177-1.365,7.86-1.438c2.503-0.068,5.011-0.091,7.514,0.156 c2.124,0.209,3.582,1.318,4.192,3.368c0.625,2.096,0.861,4.262,1.108,6.426c0.053,0.467,0.018,0.947,0.219,1.391 c0.006,0.306,0.013,0.613,0.02,0.919c-0.288,0.211-0.609,0.145-0.926,0.111c-0.427-0.326-0.453-0.798-0.489-1.276 c-0.139-1.888-0.427-3.756-0.738-5.622c-0.09-0.538-0.266-1.057-0.417-1.581c-0.424-1.47-1.461-2.303-2.907-2.437 c-4.096-0.378-8.201-0.499-12.277,0.242c-1.19,0.216-2.315,0.592-3.235,1.46c-1.1,1.039-1.537,2.346-1.702,3.794 c-0.068,0.593,0.236,0.867,0.749,0.772c2.399-0.445,4.885,0.189,7.252-0.614c0.473-0.161,0.997-0.213,1.188,0.382 c0.164,0.512-0.251,0.796-0.647,1.004c-1.272,0.67-2.705,0.469-4.054,0.727c-0.307,0.059-0.66-0.09-0.964,0.244 c0.407,0.565,1.007,0.654,1.627,0.672c1.092,0.031,2.183-0.005,3.273,0.02c0.78,0.018,1.534,0.175,2.149,0.673 C19.154,21.048,19.587,21.517,19.241,22.238z" clip-rule="evenodd"/><path fill="#429644" fill-rule="evenodd" d="M35.639,32.568c2.046-0.529,3.322,0.575,4.554,2 c1.515,1.753,1.406,1.644,0.535,3.789c-0.706,1.734-1.692,2.197-3.483,2.056c-3.213-0.252-3.214-0.143-3.66-3.299 c-0.178-1.254-0.393-2.505-0.609-3.754c-0.101-0.585,0.002-0.885,0.707-0.805C34.327,32.627,34.986,32.568,35.639,32.568z" clip-rule="evenodd"/><path fill="#429644" fill-rule="evenodd" d="M38.311,48.674c-2.989,0.117-2.985,0.117-3.364-2.457 c-0.195-1.326-0.377-2.654-0.615-3.972c-0.108-0.594-0.056-0.851,0.657-0.808c1.589,0.096,3.185,0.137,4.776,0.129 c0.803-0.005,1.116,0.604,1.557,1.043c1.856,1.852,1.737,1.802,0.501,4.096C40.927,48.366,39.8,49.122,38.311,48.674z" clip-rule="evenodd"/><path fill="#429644" fill-rule="evenodd" d="M45.489,43.864c-2.313,0.636-2.925-1.759-4.337-2.873 c-0.262-0.206-0.032-0.465,0.076-0.685c0.275-0.55,0.548-1.101,0.833-1.646c0.327-0.631,0.395-1.61,1.083-1.785 c1.031-0.261,2.156-0.168,3.241-0.202c0.376-0.012,0.424,0.352,0.539,0.597c0.868,1.846,1.129,3.803,1.053,5.824 c-0.022,0.591-0.263,0.839-0.869,0.778C46.641,43.827,46.165,43.864,45.489,43.864z" clip-rule="evenodd"/><path fill="#429644" fill-rule="evenodd" d="M38.294,49.977c2.542-0.971,3.585,1.305,5.125,2.584 c0.3,0.248,0.091,0.443-0.109,0.618c-1.784,1.567-3.704,2.922-5.966,3.719c-0.402,0.141-0.82,0.328-0.917-0.426 c-0.249-1.943-0.561-3.88-0.881-5.813c-0.087-0.521,0.002-0.729,0.574-0.692C36.805,50.011,37.498,49.977,38.294,49.977z" clip-rule="evenodd"/><path fill="#429644" fill-rule="evenodd" d="M35.652,31.337c-0.617,0-1.244-0.071-1.848,0.016 c-1.027,0.148-1.2-0.444-1.28-1.243c-0.096-0.975-0.193-1.954-0.389-2.91c-0.157-0.773,0.162-0.85,0.792-0.778 c2.045,0.232,3.964,0.834,5.77,1.825c0.466,0.255,0.553,0.499,0.385,1.024C38.385,31.461,38.407,31.47,35.652,31.337z" clip-rule="evenodd"/><path fill="#429644" fill-rule="evenodd" d="M45.695,45.138c2.003,0,2.005,0,1.364,1.918 c-0.473,1.417-1.08,2.766-1.979,3.974c-0.349,0.47-0.61,0.63-1.104,0.144c-0.796-0.789-2.11-1.385-2.362-2.297 c-0.241-0.867,1.089-1.758,1.508-2.737C43.676,44.844,44.728,45.182,45.695,45.138z" clip-rule="evenodd"/><path fill="#429644" fill-rule="evenodd" d="M44.259,35.566c-1.146,0.382-2.054-0.204-2.776-1.249 c-0.164-0.236-0.348-0.482-0.58-0.645c-1.477-1.035-1.39-2.305-0.663-3.744c0.233-0.465,0.393-0.596,0.873-0.327 c2.268,1.266,3.874,3.126,5.023,5.424c0.252,0.504,0.012,0.551-0.393,0.542C45.307,35.56,44.871,35.566,44.259,35.566z" clip-rule="evenodd"/><path fill="#429544" fill-rule="evenodd" d="M15.731,49.143c1.258-1.453,2.555-2.873,3.755-4.372 c0.653-0.815,1.082-0.714,1.646,0.046c0.865,1.164,0.989,2.751,0.229,3.756c-1.219,1.611-2.823,2.046-4.613,1.238 c-0.297-0.134-0.574-0.309-0.86-0.466C15.836,49.278,15.784,49.21,15.731,49.143z" clip-rule="evenodd"/><path fill="#C42033" fill-rule="evenodd" d="M19.37,41.747c-1.136-1.698-1.159-3.328-0.295-4.896 c1.061-1.928,2.925-2.465,5.271-2.544C22.653,36.837,21.062,39.216,19.37,41.747z" clip-rule="evenodd"/><path fill="#C22033" fill-rule="evenodd" d="M30.141,42.242c-1.835-2.661-3.553-5.152-5.395-7.824 c2.244,0.071,3.85,0.951,5.004,2.542C30.866,38.499,31.075,40.22,30.141,42.242z" clip-rule="evenodd"/><path fill="#C22033" fill-rule="evenodd" d="M19.952,27.676c2.826,0,5.603-0.002,8.381,0.005 c0.161,0,0.408-0.055,0.435,0.197c0.038,0.351-0.147,0.658-0.422,0.825c-0.193,0.117-0.483,0.1-0.729,0.098 c-2.032-0.005-4.065-0.069-6.095-0.013C20.633,28.814,20.197,28.457,19.952,27.676z" clip-rule="evenodd"/><path fill="#B21E3A" fill-rule="evenodd" d="M27.412,29.734c-0.256,0.993-0.764,1.311-1.625,1.242 c-0.969-0.078-1.948-0.046-2.921-0.058c-0.292-0.002-0.595,0.008-0.805-0.232c-0.186-0.213-0.502-0.417-0.438-0.71 c0.083-0.38,0.475-0.233,0.737-0.235C24.013,29.727,25.667,29.734,27.412,29.734z" clip-rule="evenodd"/><path fill="#C12034" fill-rule="evenodd" d="M26.033,31.875c-0.37,1.305-1.319,0.775-2.022,0.877 c-0.608,0.089-0.927-0.239-1.043-0.877C23.989,31.875,24.981,31.875,26.033,31.875z" clip-rule="evenodd"/><path fill="#429544" fill-rule="evenodd" d="M19.241,22.238c-0.288-1.333-0.924-1.881-2.462-1.95 c-1.269-0.059-2.542-0.016-3.813-0.011c-0.691,0.003-1.297-0.193-1.703-0.78c-0.319-0.461-0.345-0.779,0.395-0.77 c1.415,0.016,2.822-0.12,4.205-0.425c0.314-0.071,0.625-0.197,0.911-0.344c0.216-0.111,0.498-0.266,0.375-0.575 c-0.118-0.297-0.37-0.435-0.709-0.294c-2.573,1.059-5.318,0.375-7.956,0.783c-0.775,0.12-0.852-0.235-0.761-0.958 c0.609-4.856,3.418-5.587,7.308-6.009c3.329-0.361,6.663-0.208,9.995-0.015c1.724,0.1,2.962,0.996,3.466,2.638 c0.736,2.401,0.957,4.892,1.199,7.378c0.042,0.431,0.111,0.859,0.167,1.289C26.32,22.208,22.781,22.223,19.241,22.238z" clip-rule="evenodd"/><path fill="#0B4E8B" fill-rule="evenodd" d="M15.247,15.024c-0.502,0.04-1.004,0.069-1.504,0.124 c-0.337,0.036-0.689,0.049-0.84-0.299c-0.144-0.329,0.051-0.62,0.277-0.877c0.817-0.933,2.625-0.894,3.375,0.078 c0.204,0.263,0.401,0.583,0.26,0.887c-0.109,0.234-0.456,0.104-0.699,0.118c-0.288,0.016-0.576,0.003-0.865,0.003 C15.249,15.047,15.248,15.036,15.247,15.024z" clip-rule="evenodd"/></svg>