<svg xmlns="http://www.w3.org/2000/svg" version="1.1" width="70px" height="70px" viewBox="0 0 70 70"><g id="surface1"><path d="M 0 0 C 23.101562 0 46.199219 0 70 0 C 70 23.101562 70 46.199219 70 70 C 46.898438 70 23.800781 70 0 70 C 0 46.898438 0 23.800781 0 0 Z M 0 0 " style=" stroke:none;fill-rule:nonzero;fill:rgb(99.215686%,98.431373%,98.431373%);fill-opacity:1;"/><path d="M 41.914062 8.097656 C 43.265625 8.097656 44.617188 8.097656 46.007812 8.097656 C 45.847656 15.265625 45.847656 15.265625 45.746094 18.027344 C 45.722656 18.636719 45.699219 19.246094 45.675781 19.871094 C 45.574219 22.472656 45.472656 25.074219 45.371094 27.675781 C 45.308594 29.308594 45.25 30.945312 45.195312 32.585938 C 45.164062 33.464844 45.132812 34.339844 45.097656 35.21875 C 45.074219 35.96875 45.046875 36.71875 45.019531 37.492188 C 44.847656 39.765625 44.675781 40.480469 44.171875 41.652344 C 43.765625 41.878906 43.765625 41.878906 43.351562 41.796875 C 43.214844 41.777344 43.078125 41.753906 42.9375 41.734375 C 42.832031 41.707031 42.726562 41.679688 42.621094 41.652344 C 42.574219 40.507812 42.527344 39.363281 42.480469 38.183594 C 42.898438 38.183594 43.316406 38.183594 43.75 38.183594 C 43.84375 35.507812 43.9375 32.835938 44.03125 30.082031 C 43.472656 30.082031 42.914062 30.082031 42.339844 30.082031 C 42.28125 30.871094 42.222656 31.65625 42.164062 32.46875 C 41.804688 36.777344 41.304688 39.101562 40.40625 41.707031 C 40.082031 42.230469 40.082031 42.230469 39.695312 41.816406 C 39.375 41.074219 39.375 41.074219 39.234375 39.917969 C 39.308594 39.714844 39.382812 39.511719 39.460938 39.300781 C 40.542969 36.195312 40.898438 33.484375 41.140625 28.242188 C 41.28125 24.914062 41.375 21.5625 41.472656 18.210938 C 41.488281 17.652344 41.503906 17.097656 41.523438 16.523438 C 41.539062 16.027344 41.550781 15.535156 41.566406 15.027344 C 41.65625 12.699219 41.789062 10.402344 41.914062 8.097656 Z M 41.914062 8.097656 " style=" stroke:none;fill-rule:nonzero;fill:rgb(75.686276%,15.294118%,18.82353%);fill-opacity:1;"/><path d="M 0.988281 21.984375 C 2.527344 22.746094 3.683594 25.734375 4.65625 30.660156 C 5.199219 34.375 5.285156 37.65625 5.273438 41.90625 C 5.300781 46.546875 5.351562 50.394531 6.210938 53.800781 C 7.34375 57.269531 8.449219 57.398438 9.816406 57.417969 C 9.96875 57.417969 10.121094 57.421875 10.277344 57.425781 C 11.234375 57.394531 12.0625 57.113281 12.972656 55.859375 C 13.265625 55.539062 13.265625 55.539062 13.691406 56.117188 C 11.789062 60.015625 9.835938 59.753906 7.761719 59.585938 C 8.738281 59.96875 9.71875 60.351562 10.726562 60.742188 C 9.582031 65.429688 8.578125 64.925781 7.003906 65.011719 C 6.851562 65.03125 6.699219 65.054688 6.542969 65.074219 C 5.480469 65.125 4.703125 64.339844 3.808594 61.902344 C 3.210938 59.449219 2.925781 56.761719 2.902344 53.296875 C 2.910156 50.472656 3.078125 48.109375 3.316406 45.484375 C 3.734375 40.777344 3.957031 35.839844 3.464844 31.058594 C 2.910156 27.234375 1.984375 24.238281 0.988281 22.5625 C 0.988281 22.371094 0.988281 22.179688 0.988281 21.984375 Z M 0.988281 21.984375 " style=" stroke:none;fill-rule:nonzero;fill:rgb(75.294119%,14.117648%,17.647059%);fill-opacity:1;"/><path d="M 50.101562 6.363281 C 50.472656 6.554688 50.847656 6.746094 51.230469 6.941406 C 51.230469 8.675781 51.230469 8.675781 50.804688 11.570312 C 51.367188 11.570312 51.925781 11.570312 52.5 11.570312 C 52.433594 15.582031 52.347656 19.277344 52.078125 23.140625 C 52.261719 23.140625 52.449219 23.140625 52.640625 23.140625 C 52.59375 24.09375 52.546875 25.050781 52.5 26.03125 C 52.3125 26.03125 52.128906 26.03125 51.933594 26.03125 C 51.921875 26.5625 51.921875 26.5625 51.90625 27.101562 C 51.859375 28.710938 51.808594 30.320312 51.757812 31.925781 C 51.742188 32.480469 51.726562 33.035156 51.710938 33.609375 C 51.613281 36.710938 51.527344 38.84375 50.949219 41.074219 C 50.558594 41.875 50.234375 41.707031 49.800781 41.6875 C 49.644531 41.683594 49.492188 41.679688 49.332031 41.671875 C 49.214844 41.667969 49.09375 41.660156 48.972656 41.652344 C 48.972656 40.507812 48.972656 39.363281 48.972656 38.183594 C 49.0625 38.1875 49.152344 38.195312 49.246094 38.203125 C 49.359375 38.207031 49.476562 38.210938 49.597656 38.21875 C 49.773438 38.226562 49.773438 38.226562 49.949219 38.238281 C 50.242188 38.316406 50.242188 38.316406 50.382812 37.601562 C 50.460938 35.976562 50.53125 34.355469 50.59375 32.722656 C 50.789062 27.921875 50.789062 27.921875 50.949219 26.613281 C 50.808594 26.613281 50.667969 26.613281 50.523438 26.613281 C 50.429688 29.285156 50.339844 31.957031 50.242188 34.710938 C 49.960938 34.710938 49.683594 34.710938 49.394531 34.710938 C 49.488281 32.230469 49.582031 29.746094 49.675781 27.191406 C 49.539062 27.476562 49.539062 27.476562 49.394531 27.769531 C 49.328125 28.9375 49.328125 28.9375 49.289062 30.335938 C 49.0625 35.382812 48.429688 39.269531 47.417969 42.230469 C 47.234375 41.847656 47.046875 41.46875 46.855469 41.074219 C 47.011719 39.640625 47.171875 38.59375 47.417969 37.386719 C 47.929688 34.636719 48.027344 31.722656 48.125 28.347656 C 47.890625 28.347656 47.660156 28.347656 47.417969 28.347656 C 47.464844 27.011719 47.511719 25.675781 47.558594 24.296875 C 47.839844 24.296875 48.121094 24.296875 48.40625 24.296875 C 48.425781 23.667969 48.445312 23.042969 48.464844 22.394531 C 48.488281 21.558594 48.515625 20.722656 48.539062 19.886719 C 48.558594 19.269531 48.558594 19.269531 48.578125 18.636719 C 48.648438 16.269531 48.730469 13.917969 48.832031 11.570312 C 49.109375 11.570312 49.390625 11.570312 49.675781 11.570312 C 49.816406 9.851562 49.957031 8.132812 50.101562 6.363281 Z M 50.101562 6.363281 " style=" stroke:none;fill-rule:nonzero;fill:rgb(75.686276%,14.901961%,18.431373%);fill-opacity:1;"/><path d="M 23.144531 16.777344 C 23.144531 18.511719 23.144531 18.511719 22.820312 19.957031 C 22.632812 20.675781 22.632812 20.675781 22.441406 21.40625 C 22.367188 21.714844 22.292969 22.027344 22.21875 22.34375 C 20.703125 28.289062 18.214844 28.683594 16.230469 29.503906 C 18.109375 29.085938 19.917969 27.410156 21.734375 25.453125 C 21.363281 27.332031 20.933594 27.886719 20.382812 28.671875 C 20.222656 28.910156 20.058594 29.152344 19.890625 29.398438 C 18.613281 31.058594 17.34375 31.453125 16.007812 31.746094 C 13.359375 32.433594 10.199219 34.167969 8.195312 42.15625 C 7.617188 44.867188 7.441406 46.527344 7.445312 50.136719 C 7.492188 52 7.664062 53.378906 7.902344 54.957031 C 7.25 54.269531 7 52.953125 6.636719 50.765625 C 6.3125 48.476562 6.28125 46.5625 6.351562 43.96875 C 7.222656 35.886719 8.886719 31.425781 10.796875 28.054688 C 12.773438 25.085938 14.855469 24.304688 16.945312 24.042969 C 18.820312 23.796875 21.027344 23.304688 22.582031 18.511719 C 22.683594 18.195312 22.789062 17.882812 22.894531 17.554688 C 22.976562 17.300781 23.058594 17.042969 23.144531 16.777344 Z M 23.144531 16.777344 " style=" stroke:none;fill-rule:nonzero;fill:rgb(75.294119%,14.117648%,17.647059%);fill-opacity:1;"/><path d="M 28.929688 8.097656 C 30.980469 8.097656 33.03125 8.097656 35.140625 8.097656 C 35.011719 13.335938 34.800781 18.535156 34.578125 23.71875 C 32.527344 23.71875 30.476562 23.71875 28.367188 23.71875 C 28.648438 13.304688 28.648438 13.304688 28.929688 8.097656 Z M 28.929688 8.097656 " style=" stroke:none;fill-rule:nonzero;fill:rgb(75.686276%,15.686275%,19.607843%);fill-opacity:1;"/><path d="M 38.105469 8.675781 C 39.175781 8.675781 40.246094 8.675781 41.351562 8.675781 C 41.25 14.558594 41.058594 20.347656 40.847656 26.175781 C 40.816406 27.121094 40.78125 28.066406 40.746094 29.007812 C 40.667969 31.296875 40.585938 33.582031 40.503906 35.867188 C 40.132812 35.867188 39.757812 35.867188 39.375 35.867188 C 39.375 34.914062 39.375 33.957031 39.375 32.976562 C 39.050781 32.976562 38.722656 32.976562 38.386719 32.976562 C 38.339844 34.695312 38.292969 36.410156 38.246094 38.183594 C 37.875 38.183594 37.5 38.183594 37.117188 38.183594 C 37.179688 33.746094 37.320312 29.425781 37.507812 25.054688 C 37.738281 19.613281 37.917969 14.148438 38.105469 8.675781 Z M 38.105469 8.675781 " style=" stroke:none;fill-rule:nonzero;fill:rgb(75.686276%,14.901961%,18.431373%);fill-opacity:1;"/><path d="M 24.132812 1.734375 C 24.308594 3.871094 24.214844 4.375 23.992188 6.363281 C 23.914062 6.972656 23.914062 6.972656 23.832031 7.59375 C 23.679688 8.742188 23.679688 8.742188 23.710938 10.414062 C 23.484375 13.742188 22.988281 14.714844 22.296875 16.410156 C 20.398438 20.6875 18.355469 21.375 16.230469 21.984375 C 12.730469 22.996094 9.539062 25.402344 7.054688 36.445312 C 6.914062 37.027344 6.773438 37.605469 6.632812 38.183594 C 7.179688 30.984375 8.796875 26.710938 10.328125 23.285156 C 12.558594 18.515625 15.046875 17.34375 17.523438 16.363281 C 18.863281 15.824219 20.125 14.878906 21.34375 12.363281 C 21.734375 11.570312 21.734375 11.570312 22.015625 11.570312 C 22.015625 11.1875 22.015625 10.804688 22.015625 10.414062 C 22.222656 9.667969 22.222656 9.667969 22.492188 8.894531 C 22.582031 8.636719 22.667969 8.378906 22.761719 8.113281 C 23.003906 7.519531 23.003906 7.519531 23.285156 7.519531 C 23.339844 7.054688 23.339844 7.054688 23.390625 6.582031 C 23.609375 4.878906 23.871094 3.320312 24.132812 1.734375 Z M 24.132812 1.734375 " style=" stroke:none;fill-rule:nonzero;fill:rgb(75.686276%,15.294118%,19.215687%);fill-opacity:1;"/><path d="M 53.648438 16.710938 C 53.777344 16.714844 53.90625 16.71875 54.039062 16.71875 C 54.25 16.722656 54.25 16.722656 54.460938 16.726562 C 54.609375 16.730469 54.757812 16.734375 54.90625 16.742188 C 55.128906 16.746094 55.128906 16.746094 55.355469 16.75 C 55.71875 16.753906 56.085938 16.765625 56.453125 16.777344 C 56.484375 20.152344 56.359375 23.175781 56.1875 26.46875 C 56.136719 27.492188 56.082031 28.515625 56.03125 29.539062 C 56.007812 30.03125 55.980469 30.519531 55.957031 31.023438 C 55.828125 33.59375 55.714844 36.175781 55.605469 38.761719 C 55.8125 38.472656 55.8125 38.472656 56.027344 38.183594 C 56.074219 36.65625 56.121094 35.128906 56.167969 33.554688 C 56.496094 33.746094 56.820312 33.933594 57.15625 34.132812 C 57.125 36.746094 57.09375 38.261719 56.75 40.496094 C 56.117188 42.164062 55.496094 42.117188 54.757812 41.652344 C 54.476562 40.496094 54.476562 40.496094 54.441406 38.269531 C 54.460938 34.828125 54.605469 31.480469 54.75 28.09375 C 54.773438 27.464844 54.800781 26.835938 54.828125 26.1875 C 55.019531 21.570312 55.019531 21.570312 55.179688 20.246094 C 54.902344 20.246094 54.621094 20.246094 54.335938 20.246094 C 54.328125 20.625 54.320312 21.003906 54.3125 21.394531 C 54.011719 36.503906 54.011719 36.503906 52.773438 41.183594 C 52.359375 42.230469 52.359375 42.230469 52.023438 42.121094 C 51.949219 41.96875 51.871094 41.8125 51.792969 41.652344 C 51.792969 39.339844 51.792969 39.339844 51.988281 38.507812 C 52.0625 38.207031 52.140625 37.910156 52.21875 37.601562 C 52.480469 35.335938 52.582031 33.125 52.675781 30.652344 C 52.691406 30.273438 52.707031 29.894531 52.722656 29.5 C 52.769531 28.296875 52.816406 27.09375 52.863281 25.886719 C 52.910156 24.675781 52.953125 23.464844 53.003906 22.25 C 53.046875 21.15625 53.085938 20.0625 53.128906 18.96875 C 53.230469 16.800781 53.230469 16.800781 53.648438 16.710938 Z M 53.648438 16.710938 " style=" stroke:none;fill-rule:nonzero;fill:rgb(75.686276%,15.686275%,19.215687%);fill-opacity:1;"/><path d="M 60.121094 27.769531 C 62.449219 27.769531 64.777344 27.769531 67.175781 27.769531 C 67.175781 28.914062 67.175781 30.058594 67.175781 31.238281 C 66.199219 31.238281 65.222656 31.238281 64.214844 31.238281 C 64.167969 33.53125 64.121094 35.820312 64.074219 38.183594 C 65.375 38.183594 66.679688 38.183594 68.023438 38.183594 C 67.976562 39.328125 67.929688 40.472656 67.882812 41.652344 C 64.855469 41.652344 61.828125 41.652344 58.710938 41.652344 C 58.757812 40.507812 58.804688 39.363281 58.851562 38.183594 C 60.0625 37.992188 61.273438 37.800781 62.519531 37.601562 C 62.613281 35.503906 62.707031 33.402344 62.800781 31.238281 C 61.871094 31.238281 60.941406 31.238281 59.980469 31.238281 C 60.027344 30.09375 60.074219 28.949219 60.121094 27.769531 Z M 60.121094 27.769531 " style=" stroke:none;fill-rule:nonzero;fill:rgb(75.294119%,13.725491%,17.254902%);fill-opacity:1;"/><path d="M 63.789062 5.785156 C 64.257812 5.976562 64.722656 6.167969 65.203125 6.363281 C 65.109375 7.699219 65.015625 9.035156 64.917969 10.414062 C 66.175781 10.414062 67.433594 10.414062 68.730469 10.414062 C 68.730469 14.96875 68.730469 14.96875 68.589844 17.355469 C 68.167969 17.355469 67.75 17.355469 67.320312 17.355469 C 67.320312 16.019531 67.320312 14.683594 67.320312 13.304688 C 65.316406 13.304688 63.3125 13.304688 61.25 13.304688 C 61.203125 14.832031 61.15625 16.359375 61.109375 17.933594 C 60.691406 17.933594 60.269531 17.933594 59.839844 17.933594 C 59.859375 16.789062 59.878906 15.644531 59.902344 14.5 C 59.910156 13.863281 59.921875 13.222656 59.933594 12.566406 C 59.980469 10.992188 59.980469 10.992188 60.121094 10.414062 C 60.394531 10.363281 60.664062 10.351562 60.9375 10.355469 C 61.183594 10.359375 61.183594 10.359375 61.4375 10.363281 C 61.699219 10.371094 61.699219 10.371094 61.964844 10.378906 C 62.226562 10.382812 62.226562 10.382812 62.492188 10.386719 C 62.925781 10.390625 63.359375 10.402344 63.789062 10.414062 C 63.789062 8.886719 63.789062 7.359375 63.789062 5.785156 Z M 63.789062 5.785156 " style=" stroke:none;fill-rule:nonzero;fill:rgb(75.686276%,14.901961%,18.431373%);fill-opacity:1;"/><path d="M 31.613281 24.296875 C 31.984375 24.296875 32.359375 24.296875 32.742188 24.296875 C 32.742188 25.632812 32.742188 26.96875 32.742188 28.347656 C 32.835938 28.222656 32.933594 28.097656 33.03125 27.96875 C 33.21875 27.726562 33.21875 27.726562 33.414062 27.480469 C 33.535156 27.316406 33.660156 27.15625 33.789062 26.992188 C 34.152344 26.613281 34.152344 26.613281 34.71875 26.613281 C 34.71875 27.566406 34.71875 28.519531 34.71875 29.503906 C 34.445312 29.976562 34.171875 30.445312 33.898438 30.914062 C 33.667969 31.308594 33.667969 31.308594 33.4375 31.707031 C 33.160156 32.167969 32.882812 32.589844 32.601562 32.976562 C 32.488281 34.195312 32.488281 34.195312 32.433594 35.613281 C 32.410156 36.09375 32.386719 36.570312 32.367188 37.0625 C 32.351562 37.433594 32.335938 37.800781 32.320312 38.183594 C 32.851562 38.207031 33.351562 38.140625 33.871094 37.601562 C 34.183594 36.3125 34.273438 35.296875 34.433594 33.554688 C 34.667969 33.933594 34.902344 34.316406 35.140625 34.710938 C 35.070312 38.398438 35.070312 38.398438 34.726562 40.132812 C 34.136719 42.042969 33.617188 41.777344 32.890625 41.796875 C 32.777344 41.808594 32.660156 41.820312 32.539062 41.832031 C 32.425781 41.835938 32.316406 41.839844 32.199219 41.84375 C 32.046875 41.851562 32.046875 41.851562 31.890625 41.859375 C 31.53125 41.59375 31.40625 41.101562 31.191406 39.917969 C 31.167969 38.242188 31.167969 38.242188 31.214844 36.230469 C 31.230469 35.511719 31.25 34.796875 31.265625 34.058594 C 31.359375 30.789062 31.476562 27.542969 31.613281 24.296875 Z M 31.613281 24.296875 " style=" stroke:none;fill-rule:nonzero;fill:rgb(76.47059%,16.862746%,20.392157%);fill-opacity:1;"/><path d="M 11.996094 42.230469 C 12.398438 43.261719 12.761719 44.4375 13.125 45.703125 C 13.089844 47.367188 13.089844 47.367188 12.984375 49.171875 C 12.671875 50.179688 12.449219 50.316406 12.058594 50.511719 C 11.714844 50.332031 11.714844 50.332031 11.457031 49.535156 C 11.289062 48.59375 11.289062 48.59375 11.289062 47.4375 C 11.382812 47.4375 11.476562 47.4375 11.574219 47.4375 C 11.574219 47.820312 11.574219 48.203125 11.574219 48.59375 C 11.664062 48.402344 11.757812 48.214844 11.855469 48.015625 C 11.855469 47.445312 11.855469 46.871094 11.855469 46.28125 C 11.480469 46.28125 11.109375 46.28125 10.726562 46.28125 C 10.617188 47.636719 10.617188 47.636719 10.585938 49.171875 C 10.8125 50.503906 10.953125 50.867188 11.34375 51.179688 C 12.324219 51.222656 13.082031 50.472656 14 49.050781 C 14.976562 47.621094 15.90625 47.746094 16.933594 48.015625 C 17.003906 48.589844 17.003906 48.589844 17.078125 49.171875 C 16.953125 49.230469 16.832031 49.285156 16.703125 49.34375 C 15.542969 49.945312 14.503906 51.011719 13.40625 52.644531 C 12.039062 54.578125 11.097656 55.035156 9.738281 52.644531 C 9.609375 49.785156 9.574219 47.390625 9.738281 44.546875 C 10.410156 42.707031 11.1875 41.691406 11.996094 42.230469 Z M 11.996094 42.230469 " style=" stroke:none;fill-rule:nonzero;fill:rgb(76.47059%,17.254902%,20.392157%);fill-opacity:1;"/><path d="M 28.226562 24.296875 C 28.597656 24.296875 28.972656 24.296875 29.355469 24.296875 C 29.355469 25.632812 29.355469 26.96875 29.355469 28.347656 C 29.960938 28.347656 30.566406 28.347656 31.191406 28.347656 C 31.191406 29.300781 31.191406 30.257812 31.191406 31.238281 C 30.539062 31.429688 29.886719 31.621094 29.214844 31.816406 C 29.167969 33.34375 29.121094 34.871094 29.074219 36.445312 C 29.167969 36.277344 29.265625 36.113281 29.367188 35.941406 C 29.492188 35.726562 29.621094 35.511719 29.75 35.289062 C 29.878906 35.074219 30.003906 34.859375 30.132812 34.636719 C 30.484375 34.132812 30.484375 34.132812 30.90625 34.132812 C 30.90625 35.277344 30.90625 36.421875 30.90625 37.601562 C 30.46875 38.378906 30.03125 39.148438 29.59375 39.917969 C 29.46875 40.136719 29.34375 40.359375 29.214844 40.585938 C 29.097656 40.796875 28.976562 41.003906 28.855469 41.21875 C 28.742188 41.414062 28.632812 41.605469 28.519531 41.804688 C 28.226562 42.230469 28.226562 42.230469 27.800781 42.230469 C 27.644531 40.605469 27.644531 40.605469 27.519531 38.761719 C 27.660156 37.902344 27.660156 37.902344 27.800781 37.023438 C 27.878906 35.628906 27.878906 35.628906 27.921875 34.070312 C 27.941406 33.503906 27.960938 32.933594 27.976562 32.347656 C 27.996094 31.753906 28.011719 31.164062 28.03125 30.550781 C 28.050781 29.953125 28.070312 29.355469 28.089844 28.738281 C 28.136719 27.257812 28.179688 25.777344 28.226562 24.296875 Z M 28.226562 24.296875 " style=" stroke:none;fill-rule:nonzero;fill:rgb(76.078433%,15.686275%,19.215687%);fill-opacity:1;"/><path d="M 46.75 50.726562 C 46.925781 50.753906 47.105469 50.78125 47.289062 50.808594 C 47.425781 50.839844 47.5625 50.875 47.703125 50.910156 C 47.644531 54.105469 47.574219 57.289062 47.445312 60.453125 C 47.425781 60.914062 47.410156 61.375 47.390625 61.847656 C 47.242188 63.441406 47.070312 63.957031 46.714844 64.792969 C 46.308594 65.117188 46.003906 64.957031 45.585938 64.792969 C 45.300781 63.996094 45.300781 63.996094 45.160156 63.058594 C 45.160156 62.675781 45.160156 62.292969 45.160156 61.902344 C 45.582031 61.902344 46 61.902344 46.429688 61.902344 C 46.429688 61.519531 46.429688 61.136719 46.429688 60.742188 C 46.195312 60.78125 46.195312 60.78125 45.957031 60.816406 C 45.445312 60.742188 45.445312 60.742188 45.160156 59.585938 C 45.113281 58.308594 45.113281 58.308594 45.109375 56.800781 C 45.105469 56.308594 45.101562 55.816406 45.097656 55.308594 C 45.273438 51.226562 45.816406 50.550781 46.75 50.726562 Z M 46.75 50.726562 " style=" stroke:none;fill-rule:nonzero;fill:rgb(76.078433%,16.470589%,20%);fill-opacity:1;"/><path d="M 27.800781 46.859375 C 28.082031 46.859375 28.359375 46.859375 28.648438 46.859375 C 28.695312 48.003906 28.742188 49.152344 28.789062 50.332031 C 28.910156 49.757812 29.027344 49.183594 29.152344 48.59375 C 29.535156 47.003906 29.605469 46.871094 30.183594 46.640625 C 30.402344 46.75 30.402344 46.75 30.625 46.859375 C 30.457031 48.550781 30.300781 49.328125 29.964844 50.582031 C 29.601562 51.898438 29.601562 51.898438 29.628906 53.402344 C 29.800781 55.1875 30.003906 56.875 30.222656 58.5625 C 30.34375 59.585938 30.34375 59.585938 30.34375 60.742188 C 29.96875 60.742188 29.597656 60.742188 29.214844 60.742188 C 29.074219 59.40625 28.933594 58.070312 28.789062 56.695312 C 28.695312 56.695312 28.605469 56.695312 28.507812 56.695312 C 28.414062 58.03125 28.320312 59.367188 28.226562 60.742188 C 27.945312 60.742188 27.667969 60.742188 27.378906 60.742188 C 27.441406 56.027344 27.535156 51.464844 27.800781 46.859375 Z M 27.800781 46.859375 " style=" stroke:none;fill-rule:nonzero;fill:rgb(76.078433%,17.254902%,20.784314%);fill-opacity:1;"/><path d="M 21.59375 28.925781 C 21.59375 29.5 21.59375 30.070312 21.59375 30.660156 C 21.480469 30.816406 21.367188 30.972656 21.25 31.132812 C 21.128906 31.359375 21.011719 31.585938 20.886719 31.816406 C 20.839844 32.390625 20.792969 32.964844 20.746094 33.554688 C 20.472656 34.210938 20.472656 34.210938 20.136719 34.78125 C 20.027344 34.976562 19.917969 35.167969 19.804688 35.367188 C 19.191406 36.304688 18.65625 36.53125 18 36.589844 C 17.820312 36.609375 17.640625 36.625 17.453125 36.644531 C 17.078125 36.683594 16.703125 36.714844 16.328125 36.746094 C 14.566406 36.9375 12.898438 37.703125 11.21875 39.917969 C 11.042969 40.144531 11.042969 40.144531 10.859375 40.375 C 10.25 41.15625 9.640625 41.96875 9.03125 42.808594 C 10.292969 36.464844 12.824219 34.988281 14.675781 34.132812 C 15.203125 33.980469 15.726562 33.867188 16.25 33.765625 C 18.207031 33.386719 19.839844 32.636719 21.59375 28.925781 Z M 21.59375 28.925781 " style=" stroke:none;fill-rule:nonzero;fill:rgb(76.862746%,18.82353%,21.960784%);fill-opacity:1;"/><path d="M 36.695312 50.910156 C 37.492188 50.910156 38.292969 50.910156 39.09375 50.910156 C 39.339844 50.875 39.339844 50.875 39.59375 50.835938 C 40.082031 50.910156 40.082031 50.910156 40.363281 52.066406 C 40.363281 53.929688 40.363281 53.929688 40.320312 56.152344 C 40.304688 56.886719 40.289062 57.621094 40.277344 58.378906 C 40.222656 60.164062 40.222656 60.164062 40.082031 60.742188 C 39.800781 60.742188 39.523438 60.742188 39.234375 60.742188 C 39.28125 58.453125 39.328125 56.160156 39.375 53.800781 C 39.234375 53.992188 39.09375 54.183594 38.953125 54.378906 C 38.859375 56.480469 38.765625 58.582031 38.667969 60.742188 C 38.390625 60.742188 38.109375 60.742188 37.824219 60.742188 C 37.871094 58.453125 37.914062 56.160156 37.964844 53.800781 C 37.824219 53.992188 37.683594 54.183594 37.539062 54.378906 C 37.445312 56.480469 37.355469 58.582031 37.257812 60.742188 C 36.980469 60.742188 36.699219 60.742188 36.410156 60.742188 C 36.429688 59.539062 36.453125 58.332031 36.472656 57.128906 C 36.484375 56.457031 36.496094 55.785156 36.507812 55.09375 C 36.542969 53.621094 36.59375 52.320312 36.695312 50.910156 Z M 36.695312 50.910156 " style=" stroke:none;fill-rule:nonzero;fill:rgb(76.862746%,18.431373%,21.960784%);fill-opacity:1;"/><path d="M 52.296875 46.824219 C 52.457031 46.835938 52.617188 46.847656 52.78125 46.859375 C 53.488281 56.203125 53.488281 56.203125 53.488281 60.742188 C 53.117188 60.742188 52.742188 60.742188 52.359375 60.742188 C 52.359375 59.980469 52.359375 59.214844 52.359375 58.429688 C 51.945312 58.582031 51.945312 58.582031 51.511719 59.007812 C 51.417969 59.582031 51.324219 60.152344 51.230469 60.742188 C 50.71875 60.851562 50.71875 60.851562 50.242188 60.742188 C 50.464844 57.75 50.769531 54.992188 51.097656 52.175781 C 51.148438 51.726562 51.199219 51.277344 51.253906 50.816406 C 51.710938 46.867188 51.710938 46.867188 52.296875 46.824219 Z M 52.296875 46.824219 " style=" stroke:none;fill-rule:nonzero;fill:rgb(76.47059%,18.039216%,21.176471%);fill-opacity:1;"/><path d="M 64.636719 15.042969 C 65.054688 15.042969 65.476562 15.042969 65.90625 15.042969 C 65.859375 17.523438 65.8125 20.003906 65.765625 22.5625 C 66.246094 22.5 66.246094 22.5 66.753906 21.984375 C 67.035156 20.582031 67.035156 20.582031 67.175781 19.089844 C 67.699219 19.378906 67.96875 19.726562 68.304688 21.40625 C 67.992188 24.050781 67.699219 24.9375 67.035156 26.03125 C 66.511719 26.285156 66.511719 26.285156 65.960938 26.285156 C 65.6875 26.304688 65.6875 26.304688 65.40625 26.320312 C 64.917969 26.03125 64.917969 26.03125 64.570312 25.019531 C 64.316406 23.496094 64.304688 22.96875 64.382812 21.1875 C 64.398438 20.738281 64.417969 20.285156 64.433594 19.820312 C 64.457031 19.390625 64.476562 18.957031 64.496094 18.511719 C 64.523438 17.832031 64.546875 17.152344 64.574219 16.453125 C 64.597656 15.984375 64.617188 15.519531 64.636719 15.042969 Z M 64.636719 15.042969 " style=" stroke:none;fill-rule:nonzero;fill:rgb(76.47059%,17.254902%,20.784314%);fill-opacity:1;"/><path d="M 54.617188 6.941406 C 55.035156 6.941406 55.457031 6.941406 55.886719 6.941406 C 55.761719 10.847656 55.761719 10.847656 55.605469 12.148438 C 56.257812 12.148438 56.910156 12.148438 57.582031 12.148438 C 57.535156 13.101562 57.488281 14.058594 57.441406 15.042969 C 55.855469 15.042969 54.273438 15.042969 52.640625 15.042969 C 52.6875 14.085938 52.734375 13.132812 52.78125 12.148438 C 53.386719 12.148438 53.992188 12.148438 54.617188 12.148438 C 54.617188 10.429688 54.617188 8.710938 54.617188 6.941406 Z M 54.617188 6.941406 " style=" stroke:none;fill-rule:nonzero;fill:rgb(75.686276%,14.509805%,18.039216%);fill-opacity:1;"/><path d="M 62.238281 15.042969 C 62.65625 15.042969 63.078125 15.042969 63.507812 15.042969 C 63.441406 18.804688 63.378906 21.351562 62.707031 24.117188 C 61.757812 26.320312 60.753906 26.175781 59.699219 26.03125 C 59.652344 25.269531 59.605469 24.503906 59.554688 23.71875 C 59.746094 23.488281 59.746094 23.488281 59.941406 23.253906 C 60.109375 23.050781 60.277344 22.84375 60.449219 22.632812 C 60.695312 22.332031 60.695312 22.332031 60.949219 22.023438 C 61.40625 21.46875 61.40625 21.46875 61.816406 20.246094 C 61.957031 18.988281 61.957031 18.988281 62.050781 17.574219 C 62.089844 17.097656 62.125 16.625 62.160156 16.140625 C 62.1875 15.777344 62.210938 15.414062 62.238281 15.042969 Z M 62.238281 15.042969 " style=" stroke:none;fill-rule:nonzero;fill:rgb(76.078433%,15.686275%,19.215687%);fill-opacity:1;"/><path d="M 30.90625 50.910156 C 31.1875 50.910156 31.464844 50.910156 31.753906 50.910156 C 31.707031 53.007812 31.660156 55.109375 31.613281 57.273438 C 31.753906 57.082031 31.890625 56.890625 32.035156 56.695312 C 32.128906 54.785156 32.222656 52.875 32.320312 50.910156 C 32.597656 50.910156 32.878906 50.910156 33.164062 50.910156 C 33.144531 52.441406 33.125 53.96875 33.105469 55.5 C 33.097656 55.9375 33.09375 56.375 33.085938 56.824219 C 33.039062 60.101562 33.039062 60.101562 32.882812 60.742188 C 32.558594 60.832031 32.230469 60.871094 31.902344 60.886719 C 31.726562 60.902344 31.546875 60.917969 31.363281 60.933594 C 31.210938 60.871094 31.0625 60.808594 30.90625 60.742188 C 30.578125 58.71875 30.605469 58.171875 30.667969 55.828125 C 30.683594 55.273438 30.695312 54.714844 30.710938 54.144531 C 30.765625 52.644531 30.765625 52.644531 30.90625 50.910156 Z M 30.90625 50.910156 " style=" stroke:none;fill-rule:nonzero;fill:rgb(76.47059%,18.039216%,21.176471%);fill-opacity:1;"/><path d="M 62.945312 50.910156 C 63.226562 52.066406 63.226562 52.066406 63.226562 53.929688 C 63.210938 54.664062 63.195312 55.398438 63.183594 56.152344 C 63.167969 56.886719 63.152344 57.621094 63.140625 58.378906 C 63.085938 60.164062 63.085938 60.164062 62.945312 60.742188 C 62.664062 60.742188 62.382812 60.742188 62.097656 60.742188 C 62.144531 58.453125 62.191406 56.160156 62.238281 53.800781 C 62.097656 53.992188 61.957031 54.183594 61.816406 54.378906 C 61.722656 56.480469 61.628906 58.582031 61.53125 60.742188 C 61.253906 60.742188 60.972656 60.742188 60.683594 60.742188 C 60.707031 59.539062 60.726562 58.332031 60.746094 57.128906 C 60.757812 56.457031 60.769531 55.785156 60.78125 55.09375 C 60.816406 53.621094 60.867188 52.320312 60.96875 50.910156 C 61.125 50.921875 61.28125 50.933594 61.445312 50.945312 C 62.886719 50.84375 62.886719 50.84375 62.945312 50.910156 Z M 62.945312 50.910156 " style=" stroke:none;fill-rule:nonzero;fill:rgb(76.862746%,18.431373%,21.568628%);fill-opacity:1;"/><path d="M 42.480469 50.910156 C 43 50.890625 43 50.890625 43.53125 50.871094 C 43.640625 50.867188 43.746094 50.863281 43.859375 50.855469 C 44.105469 50.851562 44.351562 50.878906 44.597656 50.910156 C 44.738281 51.488281 44.738281 51.488281 44.757812 52.539062 C 44.753906 55.335938 44.710938 57.988281 44.597656 60.742188 C 44.316406 60.742188 44.039062 60.742188 43.75 60.742188 C 43.796875 58.453125 43.84375 56.160156 43.890625 53.800781 C 43.703125 53.800781 43.519531 53.800781 43.328125 53.800781 C 43.28125 56.09375 43.234375 58.382812 43.183594 60.742188 C 42.859375 60.742188 42.535156 60.742188 42.199219 60.742188 C 42.289062 57.5 42.382812 54.253906 42.480469 50.910156 Z M 42.480469 50.910156 " style=" stroke:none;fill-rule:nonzero;fill:rgb(76.47059%,17.647059%,20.784314%);fill-opacity:1;"/><path d="M 65.332031 50.636719 C 65.695312 50.976562 65.828125 51.410156 66.046875 52.644531 C 66.074219 54.777344 66.074219 54.777344 66.046875 56.695312 C 65.535156 56.695312 65.023438 56.695312 64.496094 56.695312 C 64.496094 57.074219 64.496094 57.457031 64.496094 57.851562 C 64.960938 57.851562 65.425781 57.851562 65.90625 57.851562 C 65.484375 60.164062 65.484375 60.164062 65.183594 60.597656 C 64.316406 60.984375 64.316406 60.984375 63.851562 59.914062 C 63.570312 57.859375 63.527344 56.0625 63.648438 53.800781 C 64.109375 50.886719 64.539062 50.59375 65.332031 50.636719 Z M 65.332031 50.636719 " style=" stroke:none;fill-rule:nonzero;fill:rgb(76.47059%,17.647059%,21.176471%);fill-opacity:1;"/><path d="M 33.871094 50.910156 C 34.199219 50.894531 34.523438 50.882812 34.851562 50.871094 C 35.03125 50.867188 35.214844 50.859375 35.402344 50.851562 C 35.847656 50.910156 35.847656 50.910156 35.988281 51.488281 C 36.003906 52.5 36.007812 53.511719 36.003906 54.523438 C 36.007812 55.351562 36.007812 55.351562 36.007812 56.195312 C 35.988281 57.773438 35.933594 59.207031 35.847656 60.742188 C 35.566406 60.742188 35.289062 60.742188 35 60.742188 C 35.046875 58.453125 35.09375 56.160156 35.140625 53.800781 C 35 53.992188 34.863281 54.183594 34.71875 54.378906 C 34.625 56.480469 34.53125 58.582031 34.433594 60.742188 C 34.15625 60.742188 33.875 60.742188 33.589844 60.742188 C 33.558594 57.273438 33.660156 54.269531 33.871094 50.910156 Z M 33.871094 50.910156 " style=" stroke:none;fill-rule:nonzero;fill:rgb(76.078433%,16.862746%,20%);fill-opacity:1;"/><path d="M 68.589844 50.910156 C 68.636719 51.671875 68.683594 52.4375 68.730469 53.222656 C 68.3125 53.03125 67.890625 52.839844 67.460938 52.644531 C 67.460938 53.027344 67.460938 53.410156 67.460938 53.800781 C 67.589844 53.875 67.722656 53.945312 67.855469 54.019531 C 68.304688 54.378906 68.304688 54.378906 68.730469 55.539062 C 68.800781 56.910156 68.800781 56.910156 68.730469 58.429688 C 68.339844 60.230469 68.109375 60.703125 67.519531 60.996094 C 67.023438 60.738281 66.808594 60.507812 66.472656 59.007812 C 66.472656 58.433594 66.472656 57.863281 66.472656 57.273438 C 66.894531 57.273438 67.320312 57.273438 67.742188 57.273438 C 67.5 56.933594 67.5 56.933594 67.257812 56.585938 C 66.753906 55.539062 66.753906 55.539062 66.621094 53.984375 C 66.613281 52.644531 66.613281 52.644531 66.886719 51.453125 C 67.484375 49.898438 67.917969 50.355469 68.589844 50.910156 Z M 68.589844 50.910156 " style=" stroke:none;fill-rule:nonzero;fill:rgb(76.47059%,17.647059%,21.176471%);fill-opacity:1;"/><path d="M 50.523438 26.613281 C 50.664062 26.613281 50.804688 26.613281 50.949219 26.613281 C 50.886719 28.421875 50.820312 30.226562 50.753906 32.035156 C 50.726562 32.808594 50.726562 32.808594 50.699219 33.59375 C 50.679688 34.085938 50.664062 34.578125 50.644531 35.085938 C 50.621094 35.765625 50.621094 35.765625 50.59375 36.464844 C 50.523438 37.601562 50.523438 37.601562 50.242188 38.761719 C 49.9375 38.746094 49.9375 38.746094 49.589844 38.542969 C 49.417969 38.445312 49.417969 38.445312 49.238281 38.347656 C 49.152344 38.292969 49.0625 38.238281 48.972656 38.183594 C 48.925781 38.5625 48.878906 38.945312 48.832031 39.339844 C 48.785156 38.957031 48.738281 38.574219 48.691406 38.183594 C 48.597656 38.371094 48.503906 38.5625 48.40625 38.761719 C 48.445312 38.390625 48.484375 38.019531 48.523438 37.640625 C 48.738281 35.339844 48.925781 33.003906 49.113281 30.660156 C 49.207031 29.503906 49.300781 28.347656 49.394531 27.191406 C 49.488281 27.191406 49.582031 27.191406 49.675781 27.191406 C 49.65625 28.117188 49.636719 29.046875 49.617188 29.972656 C 49.605469 30.492188 49.59375 31.007812 49.582031 31.539062 C 49.535156 32.976562 49.535156 32.976562 49.394531 34.710938 C 49.675781 34.710938 49.953125 34.710938 50.242188 34.710938 C 50.25 34.273438 50.257812 33.832031 50.269531 33.378906 C 50.28125 32.804688 50.292969 32.230469 50.304688 31.636719 C 50.316406 31.066406 50.328125 30.496094 50.339844 29.910156 C 50.382812 28.347656 50.382812 28.347656 50.523438 26.613281 Z M 50.523438 26.613281 " style=" stroke:none;fill-rule:nonzero;fill:rgb(98.039216%,94.117647%,94.509804%);fill-opacity:1;"/><path d="M 58.003906 46.859375 C 58.285156 46.859375 58.5625 46.859375 58.851562 46.859375 C 58.871094 50.175781 58.800781 53.160156 58.640625 56.40625 C 58.617188 56.824219 58.597656 57.246094 58.578125 57.679688 C 58.527344 58.703125 58.476562 59.722656 58.425781 60.742188 C 58.148438 60.742188 57.867188 60.742188 57.582031 60.742188 C 57.648438 56.039062 57.773438 51.476562 58.003906 46.859375 Z M 58.003906 46.859375 " style=" stroke:none;fill-rule:nonzero;fill:rgb(76.862746%,18.82353%,21.960784%);fill-opacity:1;"/><path d="M 21.59375 28.925781 C 21.59375 29.5 21.59375 30.070312 21.59375 30.660156 C 21.421875 30.894531 21.421875 30.894531 21.25 31.132812 C 21.128906 31.359375 21.011719 31.585938 20.886719 31.816406 C 20.839844 32.390625 20.792969 32.964844 20.746094 33.554688 C 19.886719 35.964844 18.996094 36.171875 17.984375 36.011719 C 17.792969 35.996094 17.792969 35.996094 17.59375 35.980469 C 17.28125 35.953125 16.96875 35.914062 16.652344 35.867188 C 16.652344 35.296875 16.652344 34.722656 16.652344 34.132812 C 17.042969 33.335938 17.375 33.464844 17.808594 33.410156 C 19.140625 33.066406 20.414062 31.511719 21.59375 28.925781 Z M 21.59375 28.925781 " style=" stroke:none;fill-rule:nonzero;fill:rgb(75.686276%,14.117648%,17.647059%);fill-opacity:1;"/><path d="M 29.777344 17.355469 C 31.035156 17.355469 32.292969 17.355469 33.589844 17.355469 C 33.589844 18.308594 33.589844 19.265625 33.589844 20.246094 C 32.285156 20.246094 30.980469 20.246094 29.636719 20.246094 C 29.683594 19.292969 29.730469 18.339844 29.777344 17.355469 Z M 29.777344 17.355469 " style=" stroke:none;fill-rule:nonzero;fill:rgb(99.215686%,97.647059%,97.647059%);fill-opacity:1;"/><path d="M 55.605469 50.910156 C 56.164062 50.910156 56.722656 50.910156 57.296875 50.910156 C 57.25 51.863281 57.207031 52.816406 57.15625 53.800781 C 57.042969 53.933594 56.929688 54.0625 56.8125 54.199219 C 56.421875 54.804688 56.421875 54.804688 56.34375 56.3125 C 56.273438 57.785156 56.214844 59.253906 56.167969 60.742188 C 55.890625 60.742188 55.609375 60.742188 55.324219 60.742188 C 55.34375 59.648438 55.363281 58.550781 55.382812 57.453125 C 55.394531 56.84375 55.40625 56.230469 55.417969 55.601562 C 55.464844 53.800781 55.464844 53.800781 55.605469 50.910156 Z M 55.605469 50.910156 " style=" stroke:none;fill-rule:nonzero;fill:rgb(76.862746%,18.039216%,21.176471%);fill-opacity:1;"/><path d="M 29.355469 27.769531 C 30.007812 27.769531 30.660156 27.769531 31.332031 27.769531 C 31.460938 30.644531 31.460938 32.992188 31.332031 35.867188 C 31.191406 36.058594 31.050781 36.25 30.90625 36.445312 C 30.90625 35.683594 30.90625 34.917969 30.90625 34.132812 C 30.742188 34.382812 30.742188 34.382812 30.578125 34.636719 C 30.4375 34.851562 30.292969 35.066406 30.148438 35.289062 C 30.007812 35.503906 29.867188 35.71875 29.722656 35.941406 C 29.355469 36.445312 29.355469 36.445312 29.074219 36.445312 C 29.058594 32.886719 29.058594 32.886719 29.074219 31.816406 C 29.214844 31.238281 29.214844 31.238281 29.660156 31.183594 C 29.933594 31.191406 29.933594 31.191406 30.210938 31.203125 C 30.390625 31.207031 30.574219 31.214844 30.761719 31.21875 C 30.902344 31.226562 31.042969 31.234375 31.191406 31.238281 C 31.191406 30.285156 31.191406 29.332031 31.191406 28.347656 C 30.585938 28.347656 29.980469 28.347656 29.355469 28.347656 C 29.355469 28.15625 29.355469 27.964844 29.355469 27.769531 Z M 29.355469 27.769531 " style=" stroke:none;fill-rule:nonzero;fill:rgb(96.862745%,89.411765%,89.803922%);fill-opacity:1;"/><path d="M 11.148438 23.140625 C 11.007812 24 11.007812 24 10.867188 24.875 C 10.960938 25.066406 11.054688 25.257812 11.148438 25.453125 C 11.046875 25.609375 10.941406 25.765625 10.832031 25.925781 C 9.144531 28.597656 7.910156 32.421875 6.773438 38.183594 C 6.726562 37.800781 6.679688 37.417969 6.632812 37.023438 C 7.503906 31.492188 8.40625 27.902344 9.78125 24.585938 C 9.910156 24.273438 9.910156 24.273438 10.042969 23.949219 C 10.675781 22.492188 10.675781 22.492188 11.148438 23.140625 Z M 11.148438 23.140625 " style=" stroke:none;fill-rule:nonzero;fill:rgb(76.078433%,15.686275%,18.82353%);fill-opacity:1;"/><path d="M 42.621094 20.828125 C 43.179688 20.828125 43.738281 20.828125 44.316406 20.828125 C 44.332031 24.660156 44.332031 24.660156 44.171875 26.613281 C 43.613281 26.613281 43.054688 26.613281 42.480469 26.613281 C 42.527344 24.703125 42.574219 22.792969 42.621094 20.828125 Z M 42.621094 20.828125 " style=" stroke:none;fill-rule:nonzero;fill:rgb(98.039216%,94.509804%,94.901961%);fill-opacity:1;"/><path d="M 42.902344 12.148438 C 43.460938 12.148438 44.019531 12.148438 44.597656 12.148438 C 44.609375 16.160156 44.609375 16.160156 44.597656 17.355469 C 44.457031 17.933594 44.457031 17.933594 44.070312 17.992188 C 43.839844 17.980469 43.839844 17.980469 43.601562 17.96875 C 43.445312 17.964844 43.289062 17.960938 43.128906 17.953125 C 42.945312 17.945312 42.945312 17.945312 42.761719 17.933594 C 42.808594 16.023438 42.855469 14.117188 42.902344 12.148438 Z M 42.902344 12.148438 " style=" stroke:none;fill-rule:nonzero;fill:rgb(98.039216%,94.509804%,94.901961%);fill-opacity:1;"/><path d="M 41.070312 50.332031 C 41.347656 50.332031 41.628906 50.332031 41.914062 50.332031 C 41.84375 53.820312 41.765625 57.285156 41.632812 60.742188 C 41.355469 60.742188 41.074219 60.742188 40.785156 60.742188 C 40.753906 57.109375 40.871094 53.871094 41.070312 50.332031 Z M 41.070312 50.332031 " style=" stroke:none;fill-rule:nonzero;fill:rgb(77.64706%,21.176471%,24.313726%);fill-opacity:1;"/><path d="M 29.917969 11.570312 C 31.222656 11.570312 32.527344 11.570312 33.871094 11.570312 C 33.871094 12.332031 33.871094 13.097656 33.871094 13.882812 C 32.566406 13.882812 31.261719 13.882812 29.917969 13.882812 C 29.917969 13.121094 29.917969 12.355469 29.917969 11.570312 Z M 29.917969 11.570312 " style=" stroke:none;fill-rule:nonzero;fill:rgb(99.607843%,98.823529%,98.823529%);fill-opacity:1;"/><path d="M 59.414062 50.910156 C 59.695312 50.910156 59.972656 50.910156 60.261719 50.910156 C 60.292969 54.4375 60.265625 57.398438 59.980469 60.742188 C 59.699219 60.742188 59.421875 60.742188 59.132812 60.742188 C 59.226562 57.5 59.320312 54.253906 59.414062 50.910156 Z M 59.414062 50.910156 " style=" stroke:none;fill-rule:nonzero;fill:rgb(77.254903%,20%,23.529412%);fill-opacity:1;"/><path d="M 54.195312 50.332031 C 54.472656 50.332031 54.753906 50.332031 55.039062 50.332031 C 54.957031 53.808594 54.867188 57.277344 54.757812 60.742188 C 54.480469 60.742188 54.199219 60.742188 53.910156 60.742188 C 53.929688 59.550781 53.953125 58.355469 53.972656 57.164062 C 53.984375 56.5 53.996094 55.835938 54.007812 55.152344 C 54.046875 53.503906 54.105469 51.945312 54.195312 50.332031 Z M 54.195312 50.332031 " style=" stroke:none;fill-rule:nonzero;fill:rgb(77.254903%,19.607843%,23.137255%);fill-opacity:1;"/><path d="M 38.667969 21.984375 C 39.042969 21.984375 39.414062 21.984375 39.796875 21.984375 C 39.75 24.464844 39.707031 26.945312 39.65625 29.503906 C 39.285156 29.503906 38.910156 29.503906 38.527344 29.503906 C 38.574219 27.023438 38.621094 24.539062 38.667969 21.984375 Z M 38.667969 21.984375 " style=" stroke:none;fill-rule:nonzero;fill:rgb(98.039216%,93.725491%,94.117647%);fill-opacity:1;"/><path d="M 10.988281 45.644531 C 11.277344 45.664062 11.566406 45.683594 11.855469 45.703125 C 11.902344 46.464844 11.949219 47.230469 11.996094 48.015625 C 11.855469 48.207031 11.714844 48.398438 11.574219 48.59375 C 11.574219 48.214844 11.574219 47.832031 11.574219 47.4375 C 11.480469 47.4375 11.386719 47.4375 11.289062 47.4375 C 11.558594 49.371094 11.707031 49.742188 12.234375 50.476562 C 12.464844 50.691406 12.464844 50.691406 12.703125 50.910156 C 12.703125 51.101562 12.703125 51.289062 12.703125 51.488281 C 12.429688 51.550781 12.160156 51.59375 11.890625 51.632812 C 11.664062 51.671875 11.664062 51.671875 11.433594 51.714844 C 11.007812 51.488281 11.007812 51.488281 10.667969 50.417969 C 10.445312 49.171875 10.445312 49.171875 10.46875 47.617188 C 10.632812 45.722656 10.632812 45.722656 10.988281 45.644531 Z M 10.988281 45.644531 " style=" stroke:none;fill-rule:nonzero;fill:rgb(97.647059%,92.54902%,92.941177%);fill-opacity:1;"/><path d="M 39.09375 12.148438 C 39.464844 12.148438 39.839844 12.148438 40.222656 12.148438 C 40.082031 17.109375 40.082031 17.109375 39.941406 19.089844 C 39.613281 19.089844 39.289062 19.089844 38.953125 19.089844 C 39 16.800781 39.042969 14.507812 39.09375 12.148438 Z M 39.09375 12.148438 " style=" stroke:none;fill-rule:nonzero;fill:rgb(98.039216%,94.509804%,94.901961%);fill-opacity:1;"/><path d="M 21.734375 26.03125 C 20.238281 29.707031 18.398438 31.761719 16.652344 31.238281 C 16.933594 29.503906 16.933594 29.503906 17.484375 29.035156 C 17.714844 28.910156 17.949219 28.789062 18.179688 28.671875 C 19.207031 28.097656 20.136719 27.253906 21.117188 25.84375 C 21.453125 25.453125 21.453125 25.453125 21.734375 26.03125 Z M 21.734375 26.03125 " style=" stroke:none;fill-rule:nonzero;fill:rgb(78.039217%,21.176471%,24.313726%);fill-opacity:1;"/><path d="M 49.820312 14.460938 C 50.332031 14.460938 50.84375 14.460938 51.371094 14.460938 C 51.230469 20.660156 51.230469 20.660156 51.089844 23.140625 C 50.996094 23.140625 50.902344 23.140625 50.804688 23.140625 C 50.851562 20.660156 50.898438 18.175781 50.949219 15.621094 C 50.714844 15.8125 50.480469 16 50.242188 16.199219 C 50.03125 19.921875 50.03125 19.921875 49.820312 23.71875 C 49.726562 23.71875 49.632812 23.71875 49.535156 23.71875 C 49.628906 20.664062 49.722656 17.609375 49.820312 14.460938 Z M 49.820312 14.460938 " style=" stroke:none;fill-rule:nonzero;fill:rgb(96.862745%,90.980393%,91.37255%);fill-opacity:1;"/><path d="M 16.933594 48.015625 C 16.980469 48.398438 17.027344 48.78125 17.078125 49.171875 C 16.945312 49.238281 16.816406 49.300781 16.683594 49.367188 C 15.714844 49.878906 14.871094 50.535156 13.972656 52.066406 C 13.832031 52.066406 13.691406 52.066406 13.546875 52.066406 C 13.546875 51.683594 13.546875 51.300781 13.546875 50.910156 C 13.363281 50.71875 13.175781 50.527344 12.984375 50.332031 C 14.351562 48.210938 15.492188 47.722656 16.933594 48.015625 Z M 16.933594 48.015625 " style=" stroke:none;fill-rule:nonzero;fill:rgb(78.823531%,24.313726%,27.450982%);fill-opacity:1;"/><path d="M 7.621094 59.007812 C 9.019531 59.390625 10.414062 59.773438 11.855469 60.164062 C 11.574219 60.738281 11.574219 60.738281 11.289062 61.324219 C 11.195312 61.703125 11.105469 62.085938 11.007812 62.480469 C 10.496094 62.261719 10.496094 62.261719 10.019531 61.902344 C 10.019531 61.710938 10.019531 61.519531 10.019531 61.324219 C 9.859375 61.253906 9.699219 61.183594 9.53125 61.109375 C 9.320312 61.011719 9.109375 60.914062 8.898438 60.816406 C 8.792969 60.769531 8.6875 60.726562 8.578125 60.679688 C 8.304688 60.546875 8.03125 60.359375 7.761719 60.164062 C 7.714844 59.785156 7.667969 59.402344 7.621094 59.007812 Z M 7.621094 59.007812 " style=" stroke:none;fill-rule:nonzero;fill:rgb(92.54902%,75.294119%,76.47059%);fill-opacity:1;"/><path d="M 11.996094 37.601562 C 12.230469 37.625 12.464844 37.628906 12.703125 37.601562 C 12.171875 38.820312 11.605469 39.488281 11.027344 40.207031 C 10.828125 40.453125 10.632812 40.699219 10.4375 40.949219 C 10.296875 41.125 10.296875 41.125 10.152344 41.304688 C 9.777344 41.785156 9.402344 42.292969 9.03125 42.808594 C 9.683594 39.527344 10.972656 36.492188 11.996094 37.601562 Z M 11.996094 37.601562 " style=" stroke:none;fill-rule:nonzero;fill:rgb(82.352942%,34.901962%,37.254903%);fill-opacity:1;"/><path d="M 23.144531 16.777344 C 23.144531 18.511719 23.144531 18.511719 22.820312 19.957031 C 22.695312 20.4375 22.570312 20.914062 22.441406 21.40625 C 22.367188 21.714844 22.292969 22.027344 22.21875 22.34375 C 21.769531 24.113281 21.332031 25.164062 20.746094 26.03125 C 20.746094 25.460938 20.746094 24.886719 20.746094 24.296875 C 20.859375 24.128906 20.972656 23.964844 21.089844 23.792969 C 21.46875 23.296875 21.46875 23.296875 21.59375 21.984375 C 21.5 21.792969 21.40625 21.601562 21.308594 21.40625 C 21.394531 21.214844 21.480469 21.027344 21.570312 20.832031 C 21.679688 20.582031 21.792969 20.328125 21.910156 20.066406 C 22.023438 19.820312 22.132812 19.570312 22.246094 19.316406 C 22.566406 18.546875 22.855469 17.707031 23.144531 16.777344 Z M 23.144531 16.777344 " style=" stroke:none;fill-rule:nonzero;fill:rgb(79.607844%,25.882354%,29.019609%);fill-opacity:1;"/><path d="M 3.246094 19.089844 C 3.339844 19.089844 3.433594 19.089844 3.527344 19.089844 C 3.40625 21.332031 3.40625 21.332031 3.246094 21.984375 C 3.386719 22.367188 3.527344 22.746094 3.667969 23.140625 C 3.621094 23.332031 3.578125 23.523438 3.527344 23.71875 C 2.785156 23.476562 2.21875 22.6875 1.550781 21.40625 C 1.738281 20.832031 1.925781 20.257812 2.117188 19.667969 C 2.164062 20.050781 2.210938 20.433594 2.257812 20.828125 C 2.746094 20.539062 2.746094 20.539062 3.246094 20.246094 C 3.246094 19.867188 3.246094 19.484375 3.246094 19.089844 Z M 3.246094 19.089844 " style=" stroke:none;fill-rule:nonzero;fill:rgb(82.745099%,36.078432%,38.82353%);fill-opacity:1;"/><path d="M 21.59375 28.925781 C 21.59375 29.5 21.59375 30.070312 21.59375 30.660156 C 21.421875 30.894531 21.421875 30.894531 21.25 31.132812 C 21.128906 31.359375 21.011719 31.585938 20.886719 31.816406 C 20.839844 32.390625 20.792969 32.964844 20.746094 33.554688 C 20.382812 34.242188 20.382812 34.242188 20.039062 34.710938 C 20.039062 34.136719 20.039062 33.566406 20.039062 32.976562 C 19.855469 32.785156 19.667969 32.59375 19.476562 32.398438 C 19.605469 32.195312 19.734375 31.992188 19.867188 31.785156 C 20.035156 31.519531 20.203125 31.257812 20.375 30.988281 C 20.542969 30.726562 20.710938 30.464844 20.882812 30.195312 C 21.289062 29.566406 21.289062 29.566406 21.59375 28.925781 Z M 21.59375 28.925781 " style=" stroke:none;fill-rule:nonzero;fill:rgb(78.039217%,21.176471%,24.313726%);fill-opacity:1;"/><path d="M 12.558594 58.429688 C 12.515625 59.003906 12.46875 59.574219 12.417969 60.164062 C 11.925781 61.042969 11.425781 60.683594 10.902344 60.492188 C 10.738281 60.433594 10.570312 60.371094 10.402344 60.3125 C 10.277344 60.265625 10.148438 60.214844 10.019531 60.164062 C 10.019531 59.972656 10.019531 59.785156 10.019531 59.585938 C 10.335938 59.277344 10.65625 58.980469 10.972656 58.683594 C 11.148438 58.515625 11.328125 58.347656 11.507812 58.175781 C 11.9375 57.890625 12.160156 57.808594 12.558594 58.429688 Z M 12.558594 58.429688 " style=" stroke:none;fill-rule:nonzero;fill:rgb(96.078432%,87.450981%,87.843138%);fill-opacity:1;"/><path d="M 8.183594 28.925781 C 8.277344 29.117188 8.371094 29.308594 8.46875 29.503906 C 8.46875 31.238281 8.46875 31.238281 8.246094 32.191406 C 8.148438 32.523438 8.046875 32.851562 7.949219 33.191406 C 7.484375 34.78125 7.054688 36.40625 6.632812 38.183594 C 6.910156 34.554688 7.523438 31.527344 8.183594 28.925781 Z M 8.183594 28.925781 " style=" stroke:none;fill-rule:nonzero;fill:rgb(80.392158%,28.235295%,30.980393%);fill-opacity:1;"/><path d="M 9.597656 24.875 C 9.691406 25.066406 9.78125 25.257812 9.878906 25.453125 C 9.527344 27.863281 9.246094 29.519531 8.609375 30.660156 C 8.46875 30.46875 8.328125 30.28125 8.183594 30.082031 C 8.589844 27.78125 9.007812 26.359375 9.597656 24.875 Z M 9.597656 24.875 " style=" stroke:none;fill-rule:nonzero;fill:rgb(77.254903%,18.431373%,21.568628%);fill-opacity:1;"/><path d="M 50.523438 26.613281 C 50.664062 26.613281 50.804688 26.613281 50.949219 26.613281 C 50.855469 28.902344 50.761719 31.195312 50.664062 33.554688 C 50.527344 33.554688 50.386719 33.554688 50.242188 33.554688 C 50.261719 32.722656 50.28125 31.890625 50.304688 31.058594 C 50.316406 30.597656 50.328125 30.132812 50.339844 29.65625 C 50.382812 28.347656 50.382812 28.347656 50.523438 26.613281 Z M 50.523438 26.613281 " style=" stroke:none;fill-rule:nonzero;fill:rgb(94.117647%,80.392158%,81.176472%);fill-opacity:1;"/><path d="M 0.988281 21.984375 C 1.210938 22.132812 1.433594 22.289062 1.660156 22.453125 C 1.78125 22.539062 1.90625 22.628906 2.035156 22.71875 C 2.425781 23.171875 2.65625 23.804688 2.964844 24.875 C 2.824219 25.449219 2.683594 26.023438 2.539062 26.613281 C 2.335938 26.058594 2.128906 25.503906 1.921875 24.949219 C 1.808594 24.640625 1.695312 24.332031 1.574219 24.011719 C 1.269531 23.140625 1.269531 23.140625 0.988281 21.984375 Z M 0.988281 21.984375 " style=" stroke:none;fill-rule:nonzero;fill:rgb(78.823531%,22.352941%,25.490198%);fill-opacity:1;"/><path d="M 46.148438 53.800781 C 46.335938 53.800781 46.523438 53.800781 46.714844 53.800781 C 46.667969 55.136719 46.621094 56.472656 46.574219 57.851562 C 46.386719 57.851562 46.199219 57.851562 46.007812 57.851562 C 46.003906 56.695312 46.003906 55.535156 46.007812 54.378906 C 46.054688 54.1875 46.101562 54 46.148438 53.800781 Z M 46.148438 53.800781 " style=" stroke:none;fill-rule:nonzero;fill:rgb(97.254902%,91.764706%,92.156863%);fill-opacity:1;"/><path d="M 54.335938 46.859375 C 54.613281 46.859375 54.894531 46.859375 55.179688 46.859375 C 55.179688 47.8125 55.179688 48.769531 55.179688 49.753906 C 54.855469 49.753906 54.53125 49.753906 54.195312 49.753906 C 54.238281 48.796875 54.285156 47.84375 54.335938 46.859375 Z M 54.335938 46.859375 " style=" stroke:none;fill-rule:nonzero;fill:rgb(78.823531%,25.098041%,28.235295%);fill-opacity:1;"/><path d="M 41.210938 46.859375 C 41.488281 46.859375 41.769531 46.859375 42.054688 46.859375 C 42.054688 47.8125 42.054688 48.769531 42.054688 49.753906 C 41.730469 49.753906 41.40625 49.753906 41.070312 49.753906 C 41.113281 48.796875 41.160156 47.84375 41.210938 46.859375 Z M 41.210938 46.859375 " style=" stroke:none;fill-rule:nonzero;fill:rgb(78.823531%,24.705882%,27.843139%);fill-opacity:1;"/><path d="M 59.554688 46.859375 C 59.835938 46.859375 60.117188 46.859375 60.402344 46.859375 C 60.402344 47.8125 60.402344 48.769531 60.402344 49.753906 C 60.125 49.753906 59.84375 49.753906 59.554688 49.753906 C 59.554688 48.796875 59.554688 47.84375 59.554688 46.859375 Z M 59.554688 46.859375 " style=" stroke:none;fill-rule:nonzero;fill:rgb(77.254903%,20%,23.137255%);fill-opacity:1;"/><path d="M 13.40625 35.867188 C 13.40625 36.441406 13.40625 37.011719 13.40625 37.601562 C 12.5 37.890625 12.5 37.890625 11.574219 38.183594 C 11.855469 36.445312 11.855469 36.445312 12.332031 36.046875 C 12.84375 35.867188 12.84375 35.867188 13.40625 35.867188 Z M 13.40625 35.867188 " style=" stroke:none;fill-rule:nonzero;fill:rgb(76.078433%,14.509805%,17.647059%);fill-opacity:1;"/><path d="M 11.996094 37.601562 C 12.230469 37.625 12.464844 37.628906 12.703125 37.601562 C 12.261719 38.640625 11.902344 38.957031 11.394531 39.121094 C 11.269531 39.164062 11.144531 39.207031 11.015625 39.253906 C 10.917969 39.28125 10.824219 39.308594 10.726562 39.339844 C 10.726562 38.957031 10.726562 38.574219 10.726562 38.183594 C 11.226562 37.214844 11.472656 36.929688 11.996094 37.601562 Z M 11.996094 37.601562 " style=" stroke:none;fill-rule:nonzero;fill:rgb(79.607844%,26.274511%,29.411766%);fill-opacity:1;"/><path d="M 11.855469 60.164062 C 11.765625 60.332031 11.679688 60.5 11.589844 60.671875 C 11.273438 61.285156 11.273438 61.285156 11.007812 62.480469 C 10.496094 62.261719 10.496094 62.261719 10.019531 61.902344 C 10.554688 59.617188 11.136719 59.996094 11.855469 60.164062 Z M 11.855469 60.164062 " style=" stroke:none;fill-rule:nonzero;fill:rgb(84.705883%,46.666667%,49.019608%);fill-opacity:1;"/><path d="M 14.820312 49.171875 C 14.539062 49.554688 14.257812 49.9375 13.972656 50.332031 C 14.113281 50.710938 14.25 51.09375 14.394531 51.488281 C 14.117188 51.679688 13.835938 51.871094 13.546875 52.066406 C 13.546875 51.683594 13.546875 51.300781 13.546875 50.910156 C 13.363281 50.71875 13.175781 50.527344 12.984375 50.332031 C 13.183594 50.023438 13.382812 49.722656 13.582031 49.425781 C 13.695312 49.257812 13.804688 49.089844 13.921875 48.917969 C 14.28125 48.570312 14.472656 48.683594 14.820312 49.171875 Z M 14.820312 49.171875 " style=" stroke:none;fill-rule:nonzero;fill:rgb(81.176472%,32.156864%,34.901962%);fill-opacity:1;"/><path d="M 24.132812 1.734375 C 24.273438 3.472656 24.273438 3.472656 24.167969 4.953125 C 23.992188 6.363281 23.992188 6.363281 23.570312 7.519531 C 23.476562 7.140625 23.382812 6.757812 23.285156 6.363281 C 23.566406 4.835938 23.84375 3.308594 24.132812 1.734375 Z M 24.132812 1.734375 " style=" stroke:none;fill-rule:nonzero;fill:rgb(80.392158%,29.019609%,32.156864%);fill-opacity:1;"/><path d="M 23.425781 8.097656 C 23.519531 8.480469 23.613281 8.863281 23.710938 9.257812 C 23.675781 10.964844 23.625 11.886719 23.347656 13.199219 C 23.28125 13.425781 23.214844 13.652344 23.144531 13.882812 C 23.046875 12.292969 23.046875 12.292969 23.003906 10.414062 C 23.207031 9.039062 23.207031 9.039062 23.425781 8.097656 Z M 23.425781 8.097656 " style=" stroke:none;fill-rule:nonzero;fill:rgb(85.882354%,51.372552%,53.333336%);fill-opacity:1;"/><path d="M 49.394531 27.191406 C 49.488281 27.191406 49.582031 27.191406 49.675781 27.191406 C 49.628906 29.097656 49.585938 31.007812 49.535156 32.976562 C 49.398438 32.59375 49.257812 32.210938 49.113281 31.816406 C 49.238281 27.839844 49.238281 27.839844 49.394531 27.191406 Z M 49.394531 27.191406 " style=" stroke:none;fill-rule:nonzero;fill:rgb(94.901961%,83.529413%,84.313726%);fill-opacity:1;"/><path d="M 21.59375 28.925781 C 21.59375 29.5 21.59375 30.070312 21.59375 30.660156 C 21.359375 31.042969 21.128906 31.425781 20.886719 31.816406 C 20.886719 32.199219 20.886719 32.582031 20.886719 32.976562 C 20.792969 32.976562 20.699219 32.976562 20.605469 32.976562 C 20.621094 31.925781 20.621094 31.925781 20.746094 30.660156 C 21.179688 29.648438 21.179688 29.648438 21.59375 28.925781 Z M 21.59375 28.925781 " style=" stroke:none;fill-rule:nonzero;fill:rgb(81.176472%,30.19608%,32.941177%);fill-opacity:1;"/><path d="M 2.257812 21.984375 C 1.976562 23.140625 1.976562 23.140625 1.679688 23.167969 C 1.566406 23.109375 1.457031 23.054688 1.339844 22.996094 C 1.171875 22.917969 1.171875 22.917969 1 22.84375 C 0.707031 22.5625 0.707031 22.5625 0.421875 21.40625 C 1.121094 20.707031 1.582031 21.042969 2.257812 21.984375 Z M 2.257812 21.984375 " style=" stroke:none;fill-rule:nonzero;fill:rgb(92.54902%,74.509805%,75.686276%);fill-opacity:1;"/><path d="M 22.015625 23.71875 C 21.597656 24.484375 21.179688 25.246094 20.746094 26.03125 C 20.746094 25.460938 20.746094 24.886719 20.746094 24.296875 C 21.28125 23.257812 21.410156 23.097656 22.015625 23.71875 Z M 22.015625 23.71875 " style=" stroke:none;fill-rule:nonzero;fill:rgb(82.745099%,38.039216%,40.392157%);fill-opacity:1;"/><path d="M 2.257812 21.984375 C 2.722656 22.175781 3.191406 22.367188 3.667969 22.5625 C 3.621094 22.945312 3.578125 23.324219 3.527344 23.71875 C 2.574219 23.285156 2.574219 23.285156 2.257812 21.984375 Z M 2.257812 21.984375 " style=" stroke:none;fill-rule:nonzero;fill:rgb(85.490197%,48.627451%,50.980395%);fill-opacity:1;"/></g></svg>