<svg xmlns="http://www.w3.org/2000/svg" id="Layer_1" width="70" height="70" x="0" y="0" version="1.1" viewBox="0 0 70 70" xml:space="preserve" style="enable-background:new 0 0 70 70"><style type="text/css">.st0{fill:#00a9da}.st1{fill:#3ea64b}.st2{fill:#1d1d1b}</style><g><rect width="12.4" height="6.2" x=".8" y="29.3" class="st0"/><rect width="12.4" height="6.2" x=".8" y="35.5" class="st1"/><path d="M30.8,31.7c0-0.1,0.1-0.3,0.3-0.3h5.3c0.1,0,0.3-0.1,0.3-0.3v-1.6c0-0.1-0.1-0.3-0.3-0.3h-7.8 c-0.1,0-0.3,0.1-0.3,0.3v11.9c0,0.1,0.1,0.3,0.3,0.3h7.8c0.1,0,0.3-0.1,0.3-0.3v-1.6c0-0.1-0.1-0.3-0.3-0.3H31 c-0.1,0-0.3-0.1-0.3-0.3v-2.8c0-0.1,0.1-0.3,0.3-0.3h4.9c0.1,0,0.3-0.1,0.3-0.3v-1.6c0-0.1-0.1-0.3-0.3-0.3H31 c-0.1,0-0.2-0.1-0.2-0.3v0" class="st2"/><path d="M53.4,31.7c0-0.1,0.1-0.3,0.3-0.3H59c0.1,0,0.3-0.1,0.3-0.3v-1.6c0-0.1-0.1-0.3-0.3-0.3h-7.8 c-0.1,0-0.3,0.1-0.3,0.3v11.9c0,0.1,0.1,0.3,0.3,0.3H59c0.1,0,0.3-0.1,0.3-0.3v-1.6c0-0.1-0.1-0.3-0.3-0.3h-5.3 c-0.1,0-0.3-0.1-0.3-0.3v-2.8c0-0.1,0.1-0.3,0.3-0.3h4.9c0.1,0,0.3-0.1,0.3-0.3v-1.6c0-0.1-0.1-0.3-0.3-0.3h-4.9 c-0.1,0-0.2-0.1-0.2-0.3v0" class="st2"/><path d="M26.5,39.6h-5c-0.1,0-0.3-0.1-0.3-0.3v-9.7c0-0.1-0.1-0.3-0.3-0.3h-1.9c-0.1,0-0.3,0.1-0.3,0.3v11.9 c0,0.1,0.1,0.3,0.3,0.3h7.4c0.1,0,0.3-0.1,0.3-0.3v-1.6C26.7,39.7,26.6,39.6,26.5,39.6" class="st2"/><path d="M69.4,39.6h-5c-0.1,0-0.3-0.1-0.3-0.3v-9.7c0-0.1-0.1-0.3-0.3-0.3H62c-0.1,0-0.3,0.1-0.3,0.3v11.9 c0,0.1,0.1,0.3,0.3,0.3h7.4c0.1,0,0.3-0.1,0.3-0.3v-1.6C69.7,39.7,69.6,39.6,69.4,39.6" class="st2"/><path d="M49.4,29.3h-2c-0.1,0-0.2,0.1-0.2,0.2l0,0l-3,8.1c0,0,0,0,0,0L44,37.8c0,0.1-0.1,0.1-0.2,0.1 c-0.1,0-0.1,0-0.2-0.1l-0.1-0.2c0,0,0,0,0,0l-3-8.1l0,0c0-0.1-0.1-0.2-0.2-0.2h-2c-0.1,0-0.3,0.1-0.3,0.3c0,0,0,0.1,0,0.1l0,0 l4.4,11.8l0,0.1c0,0.1,0.1,0.1,0.2,0.1H45c0.1,0,0.2-0.1,0.2-0.2c0,0,0,0,0,0l4.4-11.8l0,0c0,0,0-0.1,0-0.1 C49.6,29.4,49.5,29.3,49.4,29.3" class="st2"/></g></svg>