<svg xmlns="http://www.w3.org/2000/svg" version="1.1" width="70px" height="70px" viewBox="0 0 70 70"><g id="surface1"><path d="M 48.417969 9.027344 C 47.296875 9.960938 47.226562 10.332031 47.878906 11.730469 C 48.90625 13.871094 48.90625 16.664062 47.972656 24.296875 C 46.714844 34.535156 46.898438 42.167969 48.601562 49.148438 C 49.28125 51.941406 51.054688 54.921875 52.058594 54.921875 C 52.289062 54.921875 52.757812 55.945312 53.082031 57.152344 C 53.667969 59.296875 54.578125 60.503906 55.695312 60.503906 C 56.023438 60.503906 56.1875 60.132812 56.117188 59.574219 C 56.046875 59.109375 55.8125 58.644531 55.601562 58.644531 C 55.042969 58.644531 52.429688 53.894531 52.078125 52.222656 C 51.894531 51.289062 51.800781 48.683594 51.824219 45.613281 C 51.847656 42.820312 51.753906 38.628906 51.566406 36.304688 C 51.355469 33.324219 51.332031 29.042969 51.425781 21.6875 C 51.589844 11.636719 51.566406 11.261719 51.054688 9.867188 C 50.5625 8.472656 49.441406 8.097656 48.417969 9.027344 Z M 50.679688 22.898438 C 50.632812 30.160156 50.703125 34.347656 50.960938 37.699219 C 51.378906 43.003906 51.449219 51.195312 51.101562 51.195312 C 50.679688 51.195312 49.140625 47.753906 48.71875 45.984375 C 48.183594 43.472656 47.761719 36.582031 47.949219 32.671875 C 48.042969 30.902344 48.417969 26.996094 48.8125 24.015625 C 49.351562 19.921875 49.488281 17.777344 49.398438 15.359375 C 49.234375 11.542969 49.328125 11.171875 50.121094 12.007812 L 50.75 12.660156 Z M 50.679688 22.898438 " style=" stroke:none;fill-rule:nonzero;fill:rgb(0%,0%,0%);fill-opacity:1;"/><path d="M 10.59375 17.3125 C 10.6875 19.828125 10.828125 24.109375 10.898438 26.714844 L 11.035156 31.648438 L 9.871094 31.648438 C 8.585938 31.648438 8.167969 30.53125 8.144531 27.085938 L 8.144531 24.667969 L 7.910156 26.902344 C 7.746094 28.484375 7.558594 28.949219 7.210938 28.578125 C 6.789062 28.113281 6.765625 28.390625 6.882812 32.019531 C 7.023438 35.652344 6.976562 36.210938 6.417969 38.070312 C 6.066406 39.097656 5.4375 40.027344 5.039062 40.027344 C 4.480469 40.027344 4.410156 40.304688 4.667969 40.957031 C 5.738281 43.75 7.234375 39.933594 7.234375 34.347656 C 7.234375 32.671875 7.398438 31.371094 7.675781 30.8125 C 8.050781 29.972656 8.144531 30.160156 8.261719 32.113281 L 8.398438 34.441406 L 11.574219 34.347656 C 14.140625 34.347656 14.746094 34.070312 14.863281 32.953125 C 14.980469 31.742188 15.050781 31.835938 15.445312 33.230469 C 15.796875 34.441406 15.984375 34.628906 16.285156 33.789062 C 16.707031 32.765625 16.753906 29.972656 16.496094 19.082031 C 16.355469 12.195312 16.355469 12.289062 16.125 13.777344 C 16.03125 14.519531 16.078125 18.429688 16.238281 22.621094 C 16.636719 32.207031 16.636719 31.648438 16.101562 31.648438 C 15.445312 31.648438 15.144531 28.671875 15.003906 20.851562 C 14.933594 17.035156 14.769531 13.960938 14.675781 13.960938 C 14.421875 13.960938 14.421875 16.664062 14.699219 24.203125 C 14.886719 29.414062 14.863281 30.4375 14.535156 31.371094 C 13.859375 33.417969 13.511719 32.953125 13.8125 30.253906 C 14 28.484375 14 27.644531 13.765625 26.527344 C 13.417969 24.855469 12.808594 25.414062 11.875 28.019531 L 11.246094 29.789062 L 11.082031 21.875 C 10.988281 17.5 10.804688 13.683594 10.6875 13.3125 C 10.5 12.9375 10.476562 14.148438 10.59375 17.3125 Z M 13.464844 29.507812 C 13.578125 30.8125 12.671875 31.929688 11.875 31.460938 C 11.339844 31.183594 11.339844 31.089844 12.015625 29.601562 C 12.785156 27.832031 13.324219 27.832031 13.464844 29.507812 Z M 13.464844 29.507812 " style=" stroke:none;fill-rule:nonzero;fill:rgb(0%,0%,0%);fill-opacity:1;"/><path d="M 26.714844 18.617188 C 26.996094 31.371094 27.113281 33.605469 27.464844 34.164062 C 27.671875 34.535156 28.023438 34.253906 28.28125 33.605469 C 28.605469 32.765625 28.816406 32.765625 29.050781 33.511719 C 29.238281 34.164062 29.539062 34.164062 29.960938 33.511719 C 30.402344 32.859375 30.566406 32.019531 30.566406 30.066406 C 30.566406 28.578125 30.449219 26.808594 30.308594 26.0625 C 30.125 25.039062 30.101562 25.414062 30.191406 27.738281 C 30.332031 31.183594 29.867188 32.671875 29.167969 30.902344 C 28.886719 30.253906 28.675781 30.253906 28.511719 30.902344 C 28.398438 31.371094 28.09375 31.648438 27.859375 31.460938 C 27.347656 31.089844 27.136719 27.925781 27.089844 20.480469 C 27.066406 17.6875 26.949219 14.707031 26.808594 13.960938 C 26.648438 12.9375 26.625 14.242188 26.714844 18.617188 Z M 26.714844 18.617188 " style=" stroke:none;fill-rule:nonzero;fill:rgb(0%,0%,0%);fill-opacity:1;"/><path d="M 38.59375 16.847656 C 38.664062 18.617188 38.78125 22.621094 38.851562 25.691406 C 38.964844 31.089844 38.941406 31.460938 38.453125 32.019531 C 37.566406 32.953125 37.332031 32.671875 36.75 30.160156 C 36.050781 27.085938 35.464844 27.738281 35.464844 31.554688 C 35.464844 33.882812 35.558594 34.347656 36.121094 34.628906 L 36.75 34.90625 L 36.003906 37.886719 C 35.535156 39.839844 35.023438 40.957031 34.601562 41.050781 C 33.972656 41.050781 33.972656 41.144531 34.464844 42.074219 C 35.304688 43.65625 36.097656 42.261719 36.539062 38.257812 C 36.914062 34.8125 36.984375 34.628906 38.242188 34.164062 C 38.964844 33.882812 39.644531 33.976562 39.761719 34.441406 C 40.085938 35.746094 40.367188 35.558594 40.367188 34.253906 C 40.367188 33.605469 40.109375 32.300781 39.785156 31.183594 C 39.269531 29.507812 39.175781 28.390625 39.082031 21.875 C 39.035156 17.59375 38.875 14.335938 38.734375 14.148438 C 38.546875 13.871094 38.5 14.800781 38.59375 16.847656 Z M 38.59375 16.847656 " style=" stroke:none;fill-rule:nonzero;fill:rgb(0%,0%,0%);fill-opacity:1;"/><path d="M 4.527344 20.011719 C 4.875 31.742188 5.015625 34.90625 5.15625 33.511719 C 5.320312 31.929688 4.785156 15.917969 4.527344 14.988281 C 4.433594 14.707031 4.433594 16.941406 4.527344 20.011719 Z M 4.527344 20.011719 " style=" stroke:none;fill-rule:nonzero;fill:rgb(0%,0%,0%);fill-opacity:1;"/><path d="M 41.089844 17.6875 C 41.089844 19.453125 41.253906 24.109375 41.417969 27.925781 L 41.742188 34.90625 L 41.625 26.714844 C 41.511719 18.152344 41.089844 11.171875 41.089844 17.6875 Z M 41.089844 17.6875 " style=" stroke:none;fill-rule:nonzero;fill:rgb(0%,0%,0%);fill-opacity:1;"/><path d="M 20.558594 23.179688 C 20.535156 23.828125 20.277344 25.226562 19.949219 26.25 C 19.015625 29.136719 19.296875 32.859375 20.300781 30.71875 C 20.695312 29.878906 20.8125 30.066406 21 32.113281 C 21.210938 34.164062 21.351562 34.441406 22.46875 34.441406 C 23.148438 34.441406 23.824219 33.976562 23.988281 33.324219 C 24.171875 32.578125 24.335938 32.578125 24.570312 33.417969 C 25.058594 34.90625 26.132812 33.136719 26.132812 30.8125 C 26.132812 28.203125 25.875 25.972656 25.644531 26.621094 C 25.527344 26.902344 25.527344 27.832031 25.667969 28.761719 C 25.921875 30.71875 25.761719 31.648438 25.152344 31.648438 C 24.921875 31.648438 24.734375 30.996094 24.734375 30.253906 C 24.734375 29.507812 24.640625 28.855469 24.523438 28.855469 C 24.40625 28.855469 24.265625 29.507812 24.171875 30.253906 C 24.011719 32.019531 21.582031 32.207031 21.304688 30.53125 C 21.210938 29.878906 21 27.644531 20.835938 25.597656 C 20.695312 23.550781 20.578125 22.433594 20.558594 23.179688 Z M 20.558594 23.179688 " style=" stroke:none;fill-rule:nonzero;fill:rgb(0%,0%,0%);fill-opacity:1;"/><path d="M 27.859375 24.109375 C 27.558594 25.320312 27.859375 25.972656 28.511719 25.691406 C 29.492188 25.320312 29.679688 23.269531 28.699219 23.550781 C 28.304688 23.644531 27.929688 23.921875 27.859375 24.109375 Z M 27.859375 24.109375 " style=" stroke:none;fill-rule:nonzero;fill:rgb(0%,0%,0%);fill-opacity:1;"/><path d="M 52.757812 27.644531 L 51.964844 28.113281 L 53.316406 32.394531 L 52.851562 35.929688 C 52.59375 37.980469 52.359375 39.839844 52.3125 40.304688 C 52.265625 40.679688 52.40625 40.679688 52.617188 40.398438 C 53.058594 39.652344 53.667969 35.277344 53.667969 32.765625 C 53.667969 30.902344 54.203125 29.414062 54.460938 30.4375 C 54.53125 30.8125 54.601562 34.722656 54.601562 39.097656 C 54.601562 44.496094 54.691406 47.566406 54.902344 48.21875 C 55.113281 48.960938 55.183594 47.007812 55.230469 39.003906 C 55.277344 28.855469 55.277344 28.761719 54.691406 27.925781 C 54.367188 27.367188 53.96875 27.085938 53.828125 27.179688 C 53.667969 27.179688 53.199219 27.460938 52.757812 27.644531 Z M 52.757812 27.644531 " style=" stroke:none;fill-rule:nonzero;fill:rgb(0%,0%,0%);fill-opacity:1;"/><path d="M 3.035156 29.507812 C 3.035156 30.625 3.148438 31.835938 3.265625 32.113281 C 3.40625 32.394531 3.5 33.882812 3.5 35.371094 C 3.5 38.628906 2.871094 40.304688 1.796875 39.839844 C 1.121094 39.5625 1.050781 39.1875 0.933594 35.835938 C 0.839844 33.046875 0.769531 32.578125 0.628906 33.789062 C 0.140625 38.722656 0.957031 43.378906 2.171875 42.445312 C 3.265625 41.515625 3.734375 39.375 3.734375 34.90625 C 3.734375 32.859375 3.570312 30.253906 3.382812 29.230469 C 3.058594 27.460938 3.058594 27.460938 3.035156 29.507812 Z M 3.035156 29.507812 " style=" stroke:none;fill-rule:nonzero;fill:rgb(0%,0%,0%);fill-opacity:1;"/><path d="M 33.414062 29.789062 C 33.484375 31.089844 33.601562 32.765625 33.691406 33.605469 C 33.949219 35.929688 32.992188 39.839844 32.011719 40.585938 L 31.148438 41.238281 L 31.964844 42.167969 C 32.691406 42.914062 32.828125 42.726562 33.414062 40.121094 C 34.183594 36.675781 34.324219 30.8125 33.671875 28.761719 C 33.34375 27.554688 33.296875 27.738281 33.414062 29.789062 Z M 33.414062 29.789062 " style=" stroke:none;fill-rule:nonzero;fill:rgb(0%,0%,0%);fill-opacity:1;"/><path d="M 56.746094 38.070312 C 56.511719 38.628906 56.535156 39.003906 56.910156 39.375 C 57.515625 39.933594 57.539062 42.539062 57.003906 46.914062 C 56.675781 49.613281 56.535156 50.171875 56.070312 49.707031 C 55.417969 49.054688 55.371094 50.359375 56 52.59375 C 56.257812 53.523438 56.464844 55.199219 56.464844 56.316406 C 56.464844 58.921875 57.238281 62.925781 58.125 64.695312 C 58.613281 65.71875 60.246094 66.371094 64.191406 67.113281 C 67.152344 67.578125 69.625 67.859375 69.695312 67.578125 C 69.765625 67.300781 69.765625 66.460938 69.695312 65.8125 C 69.601562 64.789062 68.648438 64.320312 65.214844 63.761719 L 60.851562 63.113281 L 60.058594 60.320312 C 59.453125 58.179688 59.265625 56.875 59.289062 54.546875 C 59.3125 52.5 59.359375 52.222656 59.429688 53.710938 C 59.546875 56.039062 60.292969 56.410156 65.519531 57.152344 C 68.601562 57.527344 68.625 57.527344 68.460938 55.480469 C 68.390625 54.453125 68.25 53.246094 68.15625 52.871094 C 68.085938 52.5 66.757812 51.941406 65.214844 51.664062 C 63.675781 51.382812 61.648438 50.917969 60.691406 50.636719 L 58.964844 50.078125 L 59.125 44.960938 C 59.21875 41.609375 59.171875 39.375 59.011719 38.539062 C 58.707031 37.140625 57.238281 36.769531 56.746094 38.070312 Z M 58.542969 50.453125 C 58.730469 52.128906 58.917969 54.453125 58.941406 55.851562 C 58.964844 57.152344 59.078125 59.109375 59.148438 60.226562 C 59.382812 63.203125 58.800781 63.019531 57.914062 60.039062 C 56.933594 56.6875 56.722656 52.59375 57.421875 49.707031 C 57.703125 48.496094 58.007812 47.472656 58.078125 47.472656 C 58.171875 47.472656 58.355469 48.777344 58.542969 50.453125 Z M 58.542969 50.453125 " style=" stroke:none;fill-rule:nonzero;fill:rgb(0%,0%,0%);fill-opacity:1;"/><path d="M 8.285156 39.933594 C 8.214844 40.492188 8.003906 40.679688 7.816406 40.304688 C 7.605469 40.027344 7.464844 40.398438 7.464844 41.238281 C 7.464844 42.914062 8.679688 42.820312 8.820312 41.144531 C 8.914062 39.839844 8.46875 38.816406 8.285156 39.933594 Z M 8.285156 39.933594 " style=" stroke:none;fill-rule:nonzero;fill:rgb(0%,0%,0%);fill-opacity:1;"/><path d="M 32.667969 56.316406 C 32.667969 65.4375 33.0625 65.347656 33.179688 56.316406 C 33.226562 51.195312 33.179688 49.335938 32.96875 49.335938 C 32.761719 49.335938 32.667969 51.382812 32.667969 56.316406 Z M 32.667969 56.316406 " style=" stroke:none;fill-rule:nonzero;fill:rgb(0%,0%,0%);fill-opacity:1;"/><path d="M 0.699219 56.78125 C 0.699219 61.996094 0.769531 63.296875 1.050781 63.296875 C 1.328125 63.296875 1.398438 62.085938 1.421875 57.898438 L 1.445312 52.59375 L 1.914062 57.898438 C 2.171875 60.878906 2.496094 63.296875 2.660156 63.296875 C 2.824219 63.296875 3.148438 60.878906 3.40625 57.898438 L 3.851562 52.59375 L 3.921875 57.898438 C 3.964844 61.902344 4.082031 63.296875 4.316406 63.296875 C 4.597656 63.296875 4.667969 61.808594 4.667969 56.78125 C 4.667969 50.546875 4.644531 50.265625 4.105469 50.265625 C 3.664062 50.265625 3.476562 51.105469 3.148438 54.546875 C 2.707031 59.203125 2.542969 59.015625 2.101562 53.710938 C 1.890625 51.011719 1.703125 50.265625 1.261719 50.265625 C 0.722656 50.265625 0.699219 50.546875 0.699219 56.78125 Z M 0.699219 56.78125 " style=" stroke:none;fill-rule:nonzero;fill:rgb(0%,0%,0%);fill-opacity:1;"/><path d="M 26.949219 51.382812 C 26.902344 52.035156 26.648438 54.921875 26.367188 57.710938 C 25.808594 63.761719 25.828125 63.296875 26.226562 63.296875 C 26.414062 63.296875 26.648438 62.460938 26.714844 61.4375 C 26.925781 58.921875 28 58.921875 28.164062 61.4375 C 28.234375 62.460938 28.441406 63.296875 28.628906 63.296875 C 29.003906 63.296875 29.003906 63.296875 28.375 55.570312 C 28.023438 51.664062 27.789062 50.265625 27.488281 50.265625 C 27.253906 50.265625 26.996094 50.824219 26.949219 51.382812 Z M 27.835938 55.851562 C 27.90625 57.0625 27.835938 57.992188 27.625 58.363281 C 27.136719 59.109375 26.996094 58.179688 27.160156 55.386719 C 27.324219 52.6875 27.648438 52.964844 27.835938 55.851562 Z M 27.835938 55.851562 " style=" stroke:none;fill-rule:nonzero;fill:rgb(0%,0%,0%);fill-opacity:1;"/><path d="M 13.953125 52.3125 C 13.882812 52.964844 13.90625 55.570312 13.976562 58.179688 C 14.09375 62.085938 14.210938 62.925781 14.652344 63.113281 C 14.933594 63.296875 15.167969 63.019531 15.167969 62.460938 C 15.167969 61.902344 15.074219 61.4375 14.933594 61.4375 C 14.582031 61.4375 14.652344 55.105469 14.980469 54.734375 C 15.191406 54.453125 15.167969 53.894531 14.886719 52.777344 C 14.421875 50.917969 14.09375 50.730469 13.953125 52.3125 Z M 13.953125 52.3125 " style=" stroke:none;fill-rule:nonzero;fill:rgb(0%,0%,0%);fill-opacity:1;"/><path d="M 5.53125 53.710938 C 5.203125 54.921875 5.390625 55.570312 5.949219 55.105469 C 6.371094 54.828125 6.535156 55.105469 6.535156 56.128906 C 6.535156 57.0625 6.277344 57.710938 5.902344 57.898438 C 5.390625 58.085938 5.25 58.644531 5.25 60.503906 C 5.25 62.644531 5.34375 62.832031 6.253906 62.925781 L 7.234375 63.113281 L 7.234375 59.203125 C 7.234375 57.0625 7.117188 54.828125 6.953125 54.175781 C 6.648438 52.964844 5.785156 52.6875 5.53125 53.710938 Z M 5.53125 53.710938 " style=" stroke:none;fill-rule:nonzero;fill:rgb(0%,0%,0%);fill-opacity:1;"/><path d="M 7.980469 57.898438 L 8.050781 62.832031 L 9.054688 62.925781 L 10.035156 63.113281 L 10.035156 58.085938 C 10.035156 52.128906 9.636719 51.289062 9.519531 56.96875 C 9.472656 59.855469 9.332031 61.0625 9.054688 61.25 C 8.703125 61.527344 8.632812 60.878906 8.632812 57.339844 C 8.632812 54.082031 8.539062 53.058594 8.261719 53.058594 C 7.980469 53.058594 7.933594 53.988281 7.980469 57.898438 Z M 7.980469 57.898438 " style=" stroke:none;fill-rule:nonzero;fill:rgb(0%,0%,0%);fill-opacity:1;"/><path d="M 10.734375 58.363281 C 10.734375 61.996094 10.828125 63.296875 11.058594 63.296875 C 11.292969 63.296875 11.433594 61.996094 11.480469 59.296875 C 11.527344 56.78125 11.644531 55.480469 11.851562 55.570312 C 11.992188 55.757812 12.132812 55.292969 12.132812 54.640625 C 12.132812 53.894531 11.851562 53.335938 11.433594 53.335938 C 10.734375 53.335938 10.734375 53.429688 10.734375 58.363281 Z M 10.734375 58.363281 " style=" stroke:none;fill-rule:nonzero;fill:rgb(0%,0%,0%);fill-opacity:1;"/><path d="M 12.738281 53.710938 C 12.671875 53.988281 12.601562 56.316406 12.601562 58.828125 C 12.601562 62.179688 12.691406 63.296875 12.949219 63.296875 C 13.207031 63.296875 13.300781 62.179688 13.300781 58.738281 C 13.300781 54.363281 13.089844 52.40625 12.738281 53.710938 Z M 12.738281 53.710938 " style=" stroke:none;fill-rule:nonzero;fill:rgb(0%,0%,0%);fill-opacity:1;"/><path d="M 15.9375 53.710938 C 15.351562 54.640625 15.65625 55.757812 16.332031 55.199219 C 16.871094 54.828125 17.035156 55.011719 17.035156 56.128906 C 17.035156 57.0625 16.777344 57.710938 16.402344 57.898438 C 15.890625 58.085938 15.75 58.644531 15.75 60.503906 C 15.75 62.644531 15.84375 62.832031 16.753906 62.925781 L 17.734375 63.113281 L 17.734375 59.203125 C 17.734375 57.0625 17.617188 54.828125 17.453125 54.175781 C 17.171875 53.058594 16.449219 52.777344 15.9375 53.710938 Z M 15.9375 53.710938 " style=" stroke:none;fill-rule:nonzero;fill:rgb(0%,0%,0%);fill-opacity:1;"/><path d="M 18.433594 58.363281 C 18.433594 64.230469 18.851562 64.972656 18.945312 59.386719 C 18.992188 56.503906 19.132812 55.292969 19.4375 55.105469 C 19.761719 54.828125 19.832031 55.480469 19.832031 59.015625 C 19.832031 62.179688 19.925781 63.296875 20.183594 63.296875 C 20.441406 63.296875 20.535156 62.179688 20.535156 59.203125 C 20.535156 54.453125 20.207031 53.058594 19.179688 53.335938 C 18.433594 53.523438 18.433594 53.617188 18.433594 58.363281 Z M 18.433594 58.363281 " style=" stroke:none;fill-rule:nonzero;fill:rgb(0%,0%,0%);fill-opacity:1;"/><path d="M 21.164062 53.710938 C 21.117188 54.175781 21.046875 56.410156 21.023438 58.828125 C 21 62.273438 21.070312 63.296875 21.351562 63.296875 C 21.628906 63.296875 21.699219 62.085938 21.699219 58.179688 C 21.699219 53.710938 21.464844 51.664062 21.164062 53.710938 Z M 21.164062 53.710938 " style=" stroke:none;fill-rule:nonzero;fill:rgb(0%,0%,0%);fill-opacity:1;"/><path d="M 22.5625 53.617188 C 22.238281 54.921875 22.398438 55.757812 22.960938 55.570312 C 23.753906 55.292969 23.824219 57.152344 23.054688 57.527344 C 22.492188 57.804688 22.398438 58.269531 22.398438 60.597656 C 22.398438 63.113281 22.445312 63.296875 23.332031 63.113281 L 24.289062 63.019531 L 24.21875 58.269531 C 24.148438 53.710938 24.125 53.523438 23.449219 53.246094 C 23.054688 53.058594 22.65625 53.246094 22.5625 53.617188 Z M 22.5625 53.617188 " style=" stroke:none;fill-rule:nonzero;fill:rgb(0%,0%,0%);fill-opacity:1;"/><path d="M 29.398438 58.085938 C 29.398438 62.179688 29.46875 63.296875 29.773438 63.296875 C 30.054688 63.296875 30.101562 62.367188 30.054688 58.457031 C 29.960938 51.570312 29.398438 51.289062 29.398438 58.085938 Z M 29.398438 58.085938 " style=" stroke:none;fill-rule:nonzero;fill:rgb(0%,0%,0%);fill-opacity:1;"/><path d="M 30.800781 58.363281 C 30.800781 61.0625 30.917969 63.296875 31.035156 63.296875 C 31.171875 63.296875 31.265625 61.902344 31.265625 60.132812 C 31.265625 57.0625 31.734375 54.363281 32.035156 55.570312 C 32.128906 55.851562 32.199219 55.480469 32.199219 54.640625 C 32.199219 53.523438 32.011719 53.152344 31.5 53.335938 C 30.824219 53.523438 30.800781 53.617188 30.800781 58.363281 Z M 30.800781 58.363281 " style=" stroke:none;fill-rule:nonzero;fill:rgb(0%,0%,0%);fill-opacity:1;"/><path d="M 33.996094 53.710938 C 33.902344 53.988281 33.832031 56.316406 33.832031 58.828125 C 33.832031 62.179688 33.925781 63.296875 34.183594 63.296875 C 34.464844 63.296875 34.535156 62.085938 34.535156 58.179688 C 34.535156 53.429688 34.371094 52.128906 33.996094 53.710938 Z M 33.996094 53.710938 " style=" stroke:none;fill-rule:nonzero;fill:rgb(0%,0%,0%);fill-opacity:1;"/><path d="M 35.234375 58.363281 C 35.234375 62.273438 35.304688 63.296875 35.605469 63.296875 C 35.886719 63.296875 35.957031 62.460938 35.910156 60.039062 C 35.816406 56.597656 36.191406 54.269531 36.632812 55.386719 C 36.820312 55.851562 36.867188 57.433594 36.796875 59.667969 C 36.703125 62.460938 36.75 63.296875 37.007812 63.296875 C 37.285156 63.296875 37.332031 62.179688 37.285156 58.363281 L 37.214844 53.523438 L 36.238281 53.429688 L 35.234375 53.335938 Z M 35.234375 58.363281 " style=" stroke:none;fill-rule:nonzero;fill:rgb(0%,0%,0%);fill-opacity:1;"/><path d="M 38.3125 54.175781 C 38.148438 54.828125 38.035156 56.597656 38.035156 58.179688 C 38.035156 61.714844 38.40625 63.296875 39.222656 63.296875 C 40.15625 63.296875 40.296875 61.621094 39.386719 61.25 C 38.3125 60.878906 38.242188 58.644531 39.292969 58.644531 C 39.945312 58.644531 40.132812 58.269531 40.132812 56.96875 C 40.132812 54.734375 39.691406 53.058594 39.082031 53.058594 C 38.804688 53.058594 38.476562 53.523438 38.3125 54.175781 Z M 39.550781 55.757812 C 39.621094 56.222656 39.574219 56.96875 39.433594 57.246094 C 39.082031 58.085938 38.429688 56.96875 38.617188 55.851562 C 38.804688 54.640625 39.363281 54.640625 39.550781 55.757812 Z M 39.550781 55.757812 " style=" stroke:none;fill-rule:nonzero;fill:rgb(0%,0%,0%);fill-opacity:1;"/><path d="M 40.761719 53.710938 C 40.4375 54.921875 40.625 57.710938 41.066406 58.644531 C 41.324219 59.203125 41.535156 60.039062 41.535156 60.503906 C 41.535156 61.0625 41.324219 61.4375 41.066406 61.4375 C 40.808594 61.4375 40.601562 61.902344 40.601562 62.460938 C 40.601562 63.019531 40.925781 63.296875 41.371094 63.113281 C 42.375 62.738281 42.558594 59.203125 41.671875 57.527344 C 40.902344 56.222656 40.902344 54.921875 41.671875 54.921875 C 42 54.921875 42.210938 54.546875 42.117188 53.988281 C 41.953125 52.964844 40.996094 52.6875 40.761719 53.710938 Z M 40.761719 53.710938 " style=" stroke:none;fill-rule:nonzero;fill:rgb(0%,0%,0%);fill-opacity:1;"/><path d="M 64.75 60.414062 C 65.519531 61.714844 69.089844 62.179688 68.996094 61.0625 C 68.949219 60.414062 68.015625 59.945312 66.59375 59.855469 C 65.214844 59.761719 64.46875 59.945312 64.75 60.414062 Z M 64.75 60.414062 " style=" stroke:none;fill-rule:nonzero;fill:rgb(0%,0%,0%);fill-opacity:1;"/></g></svg>