<svg xmlns="http://www.w3.org/2000/svg" version="1.1" width="70" height="70"><path fill="#F6FAF5" transform="translate(0,0)" d="M0 0 C23.1 0 46.2 0 70 0 C70 23.1 70 46.2 70 70 C46.9 70 23.8 70 0 70 C0 46.9 0 23.8 0 0 Z "/><path fill="#FDFCFA" transform="translate(8,0)" d="M0 0 C20.46 0 40.92 0 62 0 C62 14.85 62 29.7 62 45 C61.01 44.505 61.01 44.505 60 44 C60 43.34 60 42.68 60 42 C59.09121094 42.01160156 58.18242188 42.02320313 57.24609375 42.03515625 C50.42537418 42.08412552 43.62609335 42.02084605 36.8125 41.6875 C35.60207031 41.62949219 34.39164063 41.57148437 33.14453125 41.51171875 C29.79643061 40.96687256 28.33523823 40.42908941 26 38 C24.92978016 35.35978784 24.5540752 32.81654895 24 30 C30.435 29.505 30.435 29.505 37 29 C37 28.34 37 27.68 37 27 C32.71 27 28.42 27 24 27 C23.67 23.37 23.34 19.74 23 16 C21.02 16 19.04 16 17 16 C17.20625 17.093125 17.4125 18.18625 17.625 19.3125 C18 23 18 23 16 26 C15.34 26 14.68 26 14 26 C14.33 26.66 14.66 27.32 15 28 C15.13415472 30.6723621 15.04318541 33.32250488 15 36 C10.94629678 35.81145566 9.29512187 35.26829261 6.25 32.5 C3.8054782 29.26414261 3.04154491 26.00054501 2.359375 22.05078125 C2.01876034 19.81006241 2.01876034 19.81006241 1 17 C0.67 11.39 0.34 5.78 0 0 Z "/><path fill="#F90C09" transform="translate(25,15)" d="M0 0 C1.99954746 -0.04254356 4.00041636 -0.04080783 6 0 C7 1 7 1 7.09765625 3.50390625 C7.06510417 6.3359375 7.03255208 9.16796875 7 12 C11.29 12 15.58 12 20 12 C20.33 12.99 20.66 13.98 21 15 C16.38 15 11.76 15 7 15 C7.433125 16.27875 7.86625 17.5575 8.3125 18.875 C8.55613281 19.59429687 8.79976562 20.31359375 9.05078125 21.0546875 C9.96335547 23.33994905 9.96335547 23.33994905 13 25 C15.274928 25.30188788 17.56459107 25.49748639 19.85546875 25.6328125 C20.51710526 25.67437469 21.17874176 25.71593689 21.86042786 25.75875854 C23.96903929 25.8892754 26.07813854 26.00729278 28.1875 26.125 C29.61919057 26.21141605 31.05083226 26.29864611 32.48242188 26.38671875 C35.98776372 26.60058645 39.49365086 26.80325222 43 27 C43.495 28.485 43.495 28.485 44 30 C35.33281661 30.06307994 26.66717628 30.07005956 18 30 C17.2044873 29.99419922 16.40897461 29.98839844 15.58935547 29.98242188 C5.48885906 29.83442925 5.48885906 29.83442925 1.3125 27.25 C-2.14933654 22.38471621 -3.13348147 16.95170314 -3 11 C-1.5390625 9.2578125 -1.5390625 9.2578125 0 8 C0.25 5.5 0.25 5.5 0 3 C0 2.01 0 1.02 0 0 Z "/><path fill="#39B449" transform="translate(0,0)" d="M0 0 C6.15234375 -0.09765625 6.15234375 -0.09765625 8 0 C10.19880094 2.19880094 9.40302988 7.81510312 9.51757812 10.921875 C9.71879097 15.05243309 10.34999559 18.22950798 12 22 C12.07646165 24.3320802 12.09143299 26.66845878 12 29 C7.98650355 28.71998862 6.27964858 28.24236211 3.1875 25.5625 C0.25744598 22.13015101 -0.12419978 20.61716296 -0.09765625 16.2109375 C-0.09443359 15.26992187 -0.09121094 14.32890625 -0.08789062 13.359375 C-0.07951172 12.37453125 -0.07113281 11.3896875 -0.0625 10.375 C-0.05798828 9.38242188 -0.05347656 8.38984375 -0.04882812 7.3671875 C-0.03702145 4.9113984 -0.020554 2.45572896 0 0 Z "/><path fill="#FDFD0A" transform="translate(21,8)" d="M0 0 C0.06058594 1.27617187 0.12117188 2.55234375 0.18359375 3.8671875 C0.26799568 5.53647016 0.35264386 7.20574037 0.4375 8.875 C0.47681641 9.71675781 0.51613281 10.55851562 0.55664062 11.42578125 C0.61948242 12.63427734 0.61948242 12.63427734 0.68359375 13.8671875 C0.72025146 14.61081543 0.75690918 15.35444336 0.79467773 16.12060547 C0.89955865 18.08864312 0.89955865 18.08864312 2 20 C2.13415472 22.6723621 2.04318541 25.32250488 2 28 C-1.9924806 27.81430323 -3.75762311 27.20022439 -6.875 24.625 C-9.69418372 20.89026144 -9.47886598 17.11237113 -9.37109375 12.5859375 C-8.99436562 9.96073724 -8.18757258 8.33699022 -7 6 C-7 4.68 -7 3.36 -7 2 C-7.66 1.34 -8.32 0.68 -9 0 C-5.93109813 -1.53445094 -3.29905734 -0.54984289 0 0 Z "/><path fill="#89D192" transform="translate(23,60)" d="M0 0 C0.66 0 1.32 0 2 0 C2 0.66 2 1.32 2 2 C2.66 2 3.32 2 4 2 C4.33 2.99 4.66 3.98 5 5 C5.66 5 6.32 5 7 5 C6.67 4.01 6.34 3.02 6 2 C7.98 2 9.96 2 12 2 C12.33 3.65 12.66 5.3 13 7 C5.08 7 -2.84 7 -11 7 C-10.67 5.35 -10.34 3.7 -10 2 C-6.7 2 -3.4 2 0 2 C0 1.34 0 0.68 0 0 Z "/><path fill="#FDFC17" transform="translate(33,33)" d="M0 0 C2.68777802 -0.0544207 5.37443212 -0.09387266 8.0625 -0.125 C8.81466797 -0.14175781 9.56683594 -0.15851562 10.34179688 -0.17578125 C15.29327709 -0.21865121 19.30414451 0.41600625 24 2 C24 2.66 24 3.32 24 4 C16.41 4.33 8.82 4.66 1 5 C0.67 3.35 0.34 1.7 0 0 Z "/><path fill="#FBFDFB" transform="translate(70,55)" d="M0 0 C0 3.3 0 6.6 0 10 C-1.32 9.34 -2.64 8.68 -4 8 C-6.19747131 8.29805007 -6.19747131 8.29805007 -8 9 C-8 8.34 -8 7.68 -8 7 C-9.32 7 -10.64 7 -12 7 C-12 6.34 -12 5.68 -12 5 C-13.32 4.67 -14.64 4.34 -16 4 C-15.195625 3.87625 -14.39125 3.7525 -13.5625 3.625 C-12.716875 3.41875 -11.87125 3.2125 -11 3 C-10.67 2.34 -10.34 1.68 -10 1 C-6.49683976 0.02689993 -3.71435651 0 0 0 Z "/><path fill="#A9DDAF" transform="translate(54,60)" d="M0 0 C1.32 0 2.64 0 4 0 C4 0.66 4 1.32 4 2 C7.69541586 2.95024979 10.30458414 2.95024979 14 2 C16 5 16 5 16 7 C15.4225 6.814375 14.845 6.62875 14.25 6.4375 C12.06356893 5.84479234 12.06356893 5.84479234 10.1875 6.46875 C7.64101921 7.08718105 5.36719808 7.09693682 2.75 7.0625 C1.85796875 7.05347656 0.9659375 7.04445313 0.046875 7.03515625 C-0.62859375 7.02355469 -1.3040625 7.01195313 -2 7 C-2 5.35 -2 3.7 -2 2 C-1.34 2 -0.68 2 0 2 C0 1.34 0 0.68 0 0 Z "/><path fill="#C2E6C7" transform="translate(14,52)" d="M0 0 C0.66 0 1.32 0 2 0 C1.67 1.65 1.34 3.3 1 5 C1.66 5 2.32 5 3 5 C3 5.66 3 6.32 3 7 C1.02 7.33 -0.96 7.66 -3 8 C-3 10.31 -3 12.62 -3 15 C-4.98 15 -6.96 15 -9 15 C-9 11.7 -9 8.4 -9 5 C-7.68 5 -6.36 5 -5 5 C-5.33 3.68 -5.66 2.36 -6 1 C-5.34 1 -4.68 1 -4 1 C-4 2.32 -4 3.64 -4 5 C-3.01 4.67 -2.02 4.34 -1 4 C-0.26676204 1.98491642 -0.26676204 1.98491642 0 0 Z "/><path fill="#D0ECD4" transform="translate(64,47)" d="M0 0 C1.65 0 3.3 0 5 0 C5.33 2.64 5.66 5.28 6 8 C2.59437148 8.77842938 -0.50765756 9.09978121 -4 9 C-4.33 9.99 -4.66 10.98 -5 12 C-5.66 11.67 -6.32 11.34 -7 11 C-6.67 9.35 -6.34 7.7 -6 6 C-3.03 6.495 -3.03 6.495 0 7 C0 4.69 0 2.38 0 0 Z "/><path fill="#FBFDFB" transform="translate(37,45)" d="M0 0 C2.31 0 4.62 0 7 0 C7.33 2.31 7.66 4.62 8 7 C5.64561267 8.42944945 4.51967567 9.08661261 1.75 8.625 C1.1725 8.41875 0.595 8.2125 0 8 C0 5.36 0 2.72 0 0 Z "/><path fill="#EBF7E3" transform="translate(9,2)" d="M0 0 C0.33 0 0.66 0 1 0 C1 2.31 1 4.62 1 7 C2.65 7.33 4.3 7.66 6 8 C5.40075776 12.19469571 4.42500059 16.00999834 3 20 C0.18343868 17.18343868 0.01049136 15.38398395 -0.09765625 11.42578125 C-0.09103244 10.05465342 -0.07914198 8.68354283 -0.0625 7.3125 C-0.05798828 6.61060547 -0.05347656 5.90871094 -0.04882812 5.18554688 C-0.03706927 3.45699462 -0.01913454 1.72848635 0 0 Z "/><path fill="#A0D9A7" transform="translate(29,46)" d="M0 0 C0.66 0 1.32 0 2 0 C2.87890625 6.15234375 2.87890625 6.15234375 3 8 C2 9 2 9 -1.37890625 9.09765625 C-2.77347077 9.09098369 -4.16801743 9.07902532 -5.5625 9.0625 C-6.62887695 9.05573242 -6.62887695 9.05573242 -7.71679688 9.04882812 C-9.47790013 9.03700864 -11.23896036 9.01907263 -13 9 C-13 8.67 -13 8.34 -13 8 C-5.57142857 5.85714286 -5.57142857 5.85714286 -2 5 C-1.855625 4.360625 -1.71125 3.72125 -1.5625 3.0625 C-1 1 -1 1 0 0 Z "/><path fill="#A5DBAC" transform="translate(45,47)" d="M0 0 C0.33 0.99 0.66 1.98 1 3 C1.99 3 2.98 3 4 3 C4 3.66 4 4.32 4 5 C3.67 5.33 3.34 5.66 3 6 C3.99 5.67 4.98 5.34 6 5 C6.33 6.65 6.66 8.3 7 10 C6.34 10 5.68 10 5 10 C5 9.34 5 8.68 5 8 C4.09636719 8.01160156 3.19273438 8.02320313 2.26171875 8.03515625 C1.08222656 8.04417969 -0.09726562 8.05320312 -1.3125 8.0625 C-2.48425781 8.07410156 -3.65601563 8.08570313 -4.86328125 8.09765625 C-8 8 -8 8 -11 7 C-10.67 6.01 -10.34 5.02 -10 4 C-9.34 4 -8.68 4 -8 4 C-7.67 4.66 -7.34 5.32 -7 6 C-3.535 5.505 -3.535 5.505 0 5 C0 4.34 0 3.68 0 3 C-0.66 2.67 -1.32 2.34 -2 2 C-1.34 2 -0.68 2 0 2 C0 1.34 0 0.68 0 0 Z "/><path fill="#29AE3B" transform="translate(32,27)" d="M0 0 C4.29 0 8.58 0 13 0 C13.33 0.99 13.66 1.98 14 3 C9.38 3 4.76 3 0 3 C0 2.01 0 1.02 0 0 Z "/><path fill="#6BC677" transform="translate(69,62)" d="M0 0 C0.33 1.65 0.66 3.3 1 5 C0.4225 4.814375 -0.155 4.62875 -0.75 4.4375 C-3.24369772 3.95261433 -4.59211213 4.30093578 -7 5 C-7.99 5 -8.98 5 -10 5 C-10 3.68 -10 2.36 -10 1 C-6.59437148 0.22157062 -3.49234244 -0.09978121 0 0 Z "/><path fill="#6DC778" transform="translate(26,62)" d="M0 0 C0.99 1.485 0.99 1.485 2 3 C2.66 3 3.32 3 4 3 C3.67 2.01 3.34 1.02 3 0 C4.98 0 6.96 0 9 0 C9.33 1.65 9.66 3.3 10 5 C6.7 5 3.4 5 0 5 C0 3.35 0 1.7 0 0 Z "/><path fill="#5FC16D" transform="translate(5,61)" d="M0 0 C2 0 4 0 6 0 C6 1.98 6 3.96 6 6 C4.02 6 2.04 6 0 6 C0 4.02 0 2.04 0 0 Z "/><path fill="#F1F9F2" transform="translate(0,0)" d="M0 0 C0.99 0.33 1.98 0.66 3 1 C3 4.07250196 2.53943005 6.97919173 2 10 C1.34 10.66 0.68 11.32 0 12 C0 8.04 0 4.08 0 0 Z "/><path fill="#6AC576" transform="translate(46,61)" d="M0 0 C0.66 0 1.32 0 2 0 C2.33 0.99 2.66 1.98 3 3 C3.66 2.67 4.32 2.34 5 2 C5 3.32 5 4.64 5 6 C2.69 6 0.38 6 -2 6 C-1.34 4.02 -0.68 2.04 0 0 Z "/><path fill="#74C97F" transform="translate(58,53)" d="M0 0 C2.64 0 5.28 0 8 0 C8.33 0.66 8.66 1.32 9 2 C6.69 2.33 4.38 2.66 2 3 C1.67 3.99 1.34 4.98 1 6 C0.34 5.67 -0.32 5.34 -1 5 C-0.67 3.35 -0.34 1.7 0 0 Z "/><path fill="#72C87E" transform="translate(37,60)" d="M0 0 C2.5 1.25 2.5 1.25 5 3 C5 4.32 5 5.64 5 7 C3.35 7 1.7 7 0 7 C0 4.69 0 2.38 0 0 Z "/><path fill="#7ACB84" transform="translate(56,61)" d="M0 0 C0 1.98 0 3.96 0 6 C-1.32 6 -2.64 6 -4 6 C-4 4.35 -4 2.7 -4 1 C-2 0 -2 0 0 0 Z "/><path fill="#96D69F" transform="translate(23,60)" d="M0 0 C0.66 0 1.32 0 2 0 C2.93423645 3.01031744 3.04449911 3.86650268 2 7 C1.34 7 0.68 7 0 7 C-0.66 5.35 -1.32 3.7 -2 2 C-1.34 2 -0.68 2 0 2 C0 1.34 0 0.68 0 0 Z "/><path fill="#96D59E" transform="translate(14,52)" d="M0 0 C0.66 0 1.32 0 2 0 C1.67 1.65 1.34 3.3 1 5 C1.66 5 2.32 5 3 5 C3 5.66 3 6.32 3 7 C1.35 7 -0.3 7 -2 7 C-1.34 4.69 -0.68 2.38 0 0 Z "/><path fill="#74C87F" transform="translate(35,51)" d="M0 0 C0.66 0 1.32 0 2 0 C2.33 0.66 2.66 1.32 3 2 C4.65 2 6.3 2 8 2 C8.33 2.66 8.66 3.32 9 4 C2.375 4.125 2.375 4.125 -1 3 C-0.67 2.01 -0.34 1.02 0 0 Z "/><path fill="#4DBB48" transform="translate(10,22)" d="M0 0 C0.66 0 1.32 0 2 0 C2 2.31 2 4.62 2 7 C0.68 7 -0.64 7 -2 7 C-2 6.34 -2 5.68 -2 5 C-1.34 5 -0.68 5 0 5 C0 3.35 0 1.7 0 0 Z "/></svg>