<svg xmlns="http://www.w3.org/2000/svg" version="1.1" width="70" height="70"><path fill="#F90C02" transform="translate(48,8)" d="M0 0 C1.98 0.495 1.98 0.495 4 1 C4 6.94 4 12.88 4 19 C5.32 19.33 6.64 19.66 8 20 C8 22.97 8 25.94 8 29 C9.32 29.33 10.64 29.66 12 30 C12 33.63 12 37.26 12 41 C14.97 41.99 17.94 42.98 21 44 C21.495 52.415 21.495 52.415 22 61 C11.88021779 60.25589837 11.88021779 60.25589837 9 57 C9 56.01 9 55.02 9 54 C8.360625 53.773125 7.72125 53.54625 7.0625 53.3125 C5 52 5 52 4.25 49.375 C4.1675 48.59125 4.085 47.8075 4 47 C3.34 47 2.68 47 2 47 C-0.55848717 41.06186105 -1.42905063 36.37269875 -1.328125 29.94140625 C-1.32625183 29.1116478 -1.32437866 28.28188934 -1.32244873 27.42698669 C-1.31577416 25.68997115 -1.30195247 23.95296945 -1.28125 22.21606445 C-1.24980092 19.54559511 -1.24024399 16.87571521 -1.234375 14.20507812 C-1.22521557 12.51301356 -1.21484321 10.82095503 -1.203125 9.12890625 C-1.19887512 8.32796036 -1.19462524 7.52701447 -1.19024658 6.70179749 C-1.11723729 1.11723729 -1.11723729 1.11723729 0 0 Z M4 23 C4 24.65 4 26.3 4 28 C4.33 28 4.66 28 5 28 C5 26.35 5 24.7 5 23 C4.67 23 4.34 23 4 23 Z M8 32 C8 34.97 8 37.94 8 41 C8.33 41 8.66 41 9 41 C9 38.03 9 35.06 9 32 C8.67 32 8.34 32 8 32 Z "/><path fill="#39B54A" transform="translate(1,49)" d="M0 0 C0.99 0 1.98 0 3 0 C3.33 1.32 3.66 2.64 4 4 C7.465 3.505 7.465 3.505 11 3 C11 2.01 11 1.02 11 0 C11.66 0 12.32 0 13 0 C13.33 1.32 13.66 2.64 14 4 C14.95712891 3.98259766 14.95712891 3.98259766 15.93359375 3.96484375 C16.75988281 3.95582031 17.58617188 3.94679687 18.4375 3.9375 C19.26121094 3.92589844 20.08492187 3.91429687 20.93359375 3.90234375 C23 4 23 4 24 5 C24 8.3 24 11.6 24 15 C15.75 15 7.5 15 -1 15 C-1.09765625 4.16015625 -1.09765625 4.16015625 -1 1 C-0.67 0.67 -0.34 0.34 0 0 Z M14 7 C14.33 7.66 14.66 8.32 15 9 C15.33 8.34 15.66 7.68 16 7 C15.34 7 14.68 7 14 7 Z M21 7 C22 9 22 9 22 9 Z "/><path fill="#39B54A" transform="translate(10,12)" d="M0 0 C3.44098882 3.44098882 2.67149426 8.29141772 3 13 C3.33 9.04 3.66 5.08 4 1 C4.99 1 5.98 1 7 1 C7 8.26 7 15.52 7 23 C4.03 23 1.06 23 -2 23 C-1.67 25.64 -1.34 28.28 -1 31 C-7 31 -7 31 -10 30 C-10 26.7 -10 23.4 -10 20 C-9.34 20 -8.68 20 -8 20 C-8 21.98 -8 23.96 -8 26 C-7.9498877 25.30849854 -7.89977539 24.61699707 -7.84814453 23.90454102 C-7.61691118 20.78970714 -7.37115591 17.67618856 -7.125 14.5625 C-7.04636719 13.47388672 -6.96773438 12.38527344 -6.88671875 11.26367188 C-6.80292969 10.22919922 -6.71914062 9.19472656 -6.6328125 8.12890625 C-6.55949707 7.17056885 -6.48618164 6.21223145 -6.41064453 5.22485352 C-6.27513184 4.49065186 -6.13961914 3.7564502 -6 3 C-5.34 2.67 -4.68 2.34 -4 2 C-3.67 5.63 -3.34 9.26 -3 13 C-2.34 13 -1.68 13 -1 13 C-1 14.98 -1 16.96 -1 19 C-0.34 19 0.32 19 1 19 C0.67 18.34 0.34 17.68 0 17 C-0.07194869 14.11629667 -0.09291708 11.25760336 -0.0625 8.375 C-0.05573242 7.17230469 -0.05573242 7.17230469 -0.04882812 5.9453125 C-0.03703168 3.96350994 -0.01909605 1.98174567 0 0 Z M5 2 C6 5 6 5 6 5 Z M-6 18 C-5 21 -5 21 -5 21 Z M-4 21 C-3 23 -3 23 -3 23 Z M-6 23 C-6 24.65 -6 26.3 -6 28 C-5.34 28 -4.68 28 -4 28 C-4 26.35 -4 24.7 -4 23 C-4.66 23 -5.32 23 -6 23 Z "/><path fill="#38B44A" transform="translate(48,8)" d="M0 0 C1.98 0.495 1.98 0.495 4 1 C4 16.18 4 31.36 4 47 C3.34 47 2.68 47 2 47 C-0.55848717 41.06186105 -1.42905063 36.37269875 -1.328125 29.94140625 C-1.32625183 29.1116478 -1.32437866 28.28188934 -1.32244873 27.42698669 C-1.31577416 25.68997115 -1.30195247 23.95296945 -1.28125 22.21606445 C-1.24980092 19.54559511 -1.24024399 16.87571521 -1.234375 14.20507812 C-1.22521557 12.51301356 -1.21484321 10.82095503 -1.203125 9.12890625 C-1.19887512 8.32796036 -1.19462524 7.52701447 -1.19024658 6.70179749 C-1.11723729 1.11723729 -1.11723729 1.11723729 0 0 Z "/><path fill="#39B54A" transform="translate(27,49)" d="M0 0 C0.66 0.99 1.32 1.98 2 3 C2.99 3.33 3.98 3.66 5 4 C5 2.68 5 1.36 5 0 C5.99 0 6.98 0 8 0 C8 0.99 8 1.98 8 3 C11.97754128 3.73334429 11.97754128 3.73334429 16 4 C16.02688151 5.64574566 16.04634123 7.29161413 16.0625 8.9375 C16.07410156 9.85402344 16.08570312 10.77054688 16.09765625 11.71484375 C16 14 16 14 15 15 C12.30345146 15.07319621 9.63308542 15.09242537 6.9375 15.0625 C5.79958008 15.05573242 5.79958008 15.05573242 4.63867188 15.04882812 C2.75908129 15.0370068 0.87953101 15.01907078 -1 15 C-1.02703381 13.06257659 -1.04641125 11.12504521 -1.0625 9.1875 C-1.07410156 8.10855469 -1.08570312 7.02960937 -1.09765625 5.91796875 C-1 3 -1 3 0 0 Z M13 10 C12.67 10.66 12.34 11.32 12 12 C12.66 12 13.32 12 14 12 C13.67 11.34 13.34 10.68 13 10 Z "/><path fill="#39B54A" transform="translate(38,13)" d="M0 0 C1.32 0.66 2.64 1.32 4 2 C4.33 8.6 4.66 15.2 5 22 C1 23 1 23 -1 22 C-0.95875 23.11375 -0.9175 24.2275 -0.875 25.375 C-1 29 -1 29 -3 31 C-4.32 30.67 -5.64 30.34 -7 30 C-6.34 25.05 -5.68 20.1 -5 15 C-3.68 15 -2.36 15 -1 15 C-1 15.99 -1 16.98 -1 18 C0.44388571 16.78571012 0.44388571 16.78571012 0.09765625 13.18359375 C0.09098089 11.60153318 0.07901875 10.01948841 0.0625 8.4375 C0.05798828 7.63119141 0.05347656 6.82488281 0.04882812 5.99414062 C0.03700518 3.99606244 0.01906914 1.99802217 0 0 Z M2 6 C2 10.29 2 14.58 2 19 C2.33 19 2.66 19 3 19 C3 14.71 3 10.42 3 6 C2.67 6 2.34 6 2 6 Z M-3 22 C-3.33 23.98 -3.66 25.96 -4 28 C-3.34 27.34 -2.68 26.68 -2 26 C-2.3185177 23.89179203 -2.3185177 23.89179203 -3 22 Z "/><path fill="#FAFD01" transform="translate(52,27)" d="M0 0 C1.32 0.33 2.64 0.66 4 1 C4.33 12.22 4.66 23.44 5 35 C1 33 1 33 0 30 C-0.08378628 27.7161483 -0.10729915 25.429899 -0.09765625 23.14453125 C-0.0962413 22.48289474 -0.09482635 21.82125824 -0.09336853 21.13957214 C-0.08777996 19.03050172 -0.07522965 16.92153823 -0.0625 14.8125 C-0.05748352 13.38086091 -0.05292087 11.94922015 -0.04882812 10.51757812 C-0.0378143 7.01168412 -0.02055755 3.5058525 0 0 Z "/><path fill="#39B54A" transform="translate(26,13)" d="M0 0 C0.66 0 1.32 0 2 0 C2 3.3 2 6.6 2 10 C2.66 10 3.32 10 4 10 C5.20272819 12.40545638 5.10071472 13.94996953 5.0625 16.625 C5.05347656 17.44226563 5.04445313 18.25953125 5.03515625 19.1015625 C5.02355469 19.72804688 5.01195312 20.35453125 5 21 C1.59437148 21.77842938 -1.50765756 22.09978121 -5 22 C-5 21.01 -5 20.02 -5 19 C-5.66 19 -6.32 19 -7 19 C-6.67 15.7 -6.34 12.4 -6 9 C-5.67 9 -5.34 9 -5 9 C-4.67 11.97 -4.34 14.94 -4 18 C-3.34 18 -2.68 18 -2 18 C-1.22337945 12.00892722 -0.57914667 6.01326751 0 0 Z M3 13 C2.67 14.32 2.34 15.64 2 17 C2.99 17.495 2.99 17.495 4 18 C4 16.35 4 14.7 4 13 C3.67 13 3.34 13 3 13 Z "/><path fill="#3BB249" transform="translate(59,50)" d="M0 0 C1.47968324 0.14049518 2.95874516 0.28754826 4.4375 0.4375 C5.67306641 0.55931641 5.67306641 0.55931641 6.93359375 0.68359375 C9 1 9 1 10 2 C10.04080783 3.99958364 10.04254356 6.00045254 10 8 C6.7 7.67 3.4 7.34 0 7 C0 4.69 0 2.38 0 0 Z "/><path fill="#FAF601" transform="translate(60,57)" d="M0 0 C2.97 0.33 5.94 0.66 9 1 C9.33 2.65 9.66 4.3 10 6 C8.52093108 6.02689216 7.04172517 6.04634621 5.5625 6.0625 C4.32693359 6.07990234 4.32693359 6.07990234 3.06640625 6.09765625 C1 6 1 6 0 5 C-0.04063832 3.33382885 -0.042721 1.66611905 0 0 Z "/><path fill="#39B54A" transform="translate(23,37)" d="M0 0 C0.99 0 1.98 0 3 0 C3 1.32 3 2.64 3 4 C2.01 4 1.02 4 0 4 C0 2.68 0 1.36 0 0 Z "/><path fill="#39B54A" transform="translate(19,15)" d="M0 0 C0.99 0 1.98 0 3 0 C3 1.32 3 2.64 3 4 C2.01 4 1.02 4 0 4 C0 2.68 0 1.36 0 0 Z "/><path fill="#39B54A" transform="translate(30,35)" d="M0 0 C0.66 0 1.32 0 2 0 C1.67 1.32 1.34 2.64 1 4 C0.34 4 -0.32 4 -1 4 C-0.67 2.68 -0.34 1.36 0 0 Z "/><path fill="#39B54A" transform="translate(1,24)" d="M0 0 C0.66 0 1.32 0 2 0 C1.67 1.32 1.34 2.64 1 4 C0.67 2.68 0.34 1.36 0 0 Z "/><path fill="#39B54A" transform="translate(29,49)" d="M0 0 C0.66 0 1.32 0 2 0 C2 0.99 2 1.98 2 3 C1.34 3 0.68 3 0 3 C0 2.01 0 1.02 0 0 Z "/><path fill="#39B54A" transform="translate(0,0)" d=""/></svg>