<svg xmlns="http://www.w3.org/2000/svg" id="Layer_1" width="70" height="70" viewBox="0 0 70 70"><defs><style>.cls-1{fill:none}.cls-2{clip-path:url(#clip-path)}.cls-3{fill:#005691}.cls-4{fill:#0070b9}.cls-5{fill:#0095d3}.cls-6{fill:#66c3ea}.cls-7{fill:#07306e}.cls-8{fill:#fff}</style><clipPath id="clip-path"><rect width="70" height="70" class="cls-1"/></clipPath></defs><title/><g class="cls-2"><path d="M31.66,25.68l3.14,2.4,9.39,7.18a27.42,27.42,0,0,1-.35,7.24A11.19,11.19,0,0,1,43.46,44s1.77-.35,2.35-.5L69.2,38h0l0-1.14c.15-4.55-4.09-6.17-7.29-7-3.74-1-10.37-2.43-16.54-3.63L43,25.75c-4.77-.81-9.15-1-11.38-.07" class="cls-3"/><path d="M44,31.38l-2.4,3.16L34.42,44a28.17,28.17,0,0,1-7-.18,13.6,13.6,0,0,1-1.84-.67c.1.6.44,1.9.59,2.48l5.58,23.54h0l1.14,0c4.55.15,6.17-4.11,7-7.33,1-3.77,2.43-10.44,3.63-16.65.15-.81.31-1.6.45-2.39.81-4.8,1-9.2.07-11.45" class="cls-4"/><path d="M26.08,27.18a10.33,10.33,0,0,1,.42-1.52s-1.63.3-2.21.45L.8,31.69h0l0,1.14c-.14,4.55,4.11,6.17,7.32,7,4.25,1.1,12.18,2.81,19,4.08h0c4.78.81,8.86,1,11.1.1L25.91,34.39a30.72,30.72,0,0,1,.17-7.23" class="cls-5"/><path d="M38.1.86h0L37,.82c-4.54-.14-6.17,4.09-7,7.29-1.09,4.22-2.81,12.13-4.08,18.9h0c-.8,4.76-1,9-.07,11.19l8.66-11.13-1.82-1.73a13.05,13.05,0,0,1,2.66-.27,38.94,38.94,0,0,1,6.06.42c.83.11,2,.32,2.64.44,0-.21-.28-1.48-.33-1.69Z" class="cls-6"/><path d="M25.2,34.83A9.76,9.76,0,1,0,35,25.06a9.78,9.78,0,0,0-9.76,9.77" class="cls-7"/><path d="M63.52,34.88l-24,.51a5.52,5.52,0,0,0-4.15-5.93c0-5.69-.54-10.46-.54-10.46s-.48,4.78-.59,10.47a5.19,5.19,0,0,0-4.14,5.35,5.3,5.3,0,0,0,0,.57L6.63,34.86s12.49,1.79,24.12,2.63a4.44,4.44,0,0,0,8.2,0c11.66-.85,24.57-2.63,24.57-2.63" class="cls-8"/></g></svg>