<svg xmlns="http://www.w3.org/2000/svg" id="Layer_1" width="70" height="70" x="0" y="0" enable-background="new 0 0 70 70" version="1.1" viewBox="0 0 70 70" xml:space="preserve"><metadata/><rect width="70" height="70" fill="none"/><g><g><g><path fill="#04AABC" d="M41.5,8.7l-30.8,37c-0.3,0.399-0.4,0.8-0.3,1.1c0.2,0.4,0.5,0.601,0.9,0.601h47.5 c0.4,0,0.7-0.4,0.7-0.801c0-0.399-0.2-0.699-0.6-0.8C57.2,45.4,47.9,43.4,41.1,41.4C37,40.1,35.3,36.6,36.4,31.8 c1.199-5.3,6.3-22.2,6.3-22.3c0.1-0.3,0-0.8-0.3-1C42.1,8.3,41.8,8.4,41.5,8.7z"/></g><g><g><path fill="#04AABC" d="M35.4,1.4c18.4,0,33.4,15,33.4,33.5c0,18.4-15,33.4-33.4,33.4c-18.5,0-33.5-15-33.5-33.4 C1.9,16.4,16.9,1.4,35.4,1.4L35.4,1.4z M35.4,5.5C19.1,5.5,6,18.7,6,34.9s13.2,29.4,29.4,29.4s29.4-13.2,29.4-29.4 C64.8,18.6,51.6,5.5,35.4,5.5L35.4,5.5z"/></g></g></g></g></svg>