<svg xmlns="http://www.w3.org/2000/svg" version="1.1" id="Layer_1" x="0px" y="0px" width="70px" height="70px" viewBox="0 0 70 70" enable-background="new 0 0 70 70" xml:space="preserve"><g><path fill="#2F307A" d="M13.93,34.869c1.754-3.416,5.632-9.51,6.555-10.895c1.108-1.385,2.493-2.678,2.77-0.462   c0.369,2.124-1.016,3.601-2.124,5.724c-1.108,2.216-3.047,5.909-4.339,8.31c-1.2,2.493-2.585,7.386-2.493,8.587   c0,1.108-0.277,4.063,0.831,5.724c1.016,1.754,2.031,1.108,2.585,1.293c0.646,0.277-0.462,1.939-2.401,1.477   c-3.232-0.646-4.986-4.247-4.709-8.125C10.976,42.071,11.622,39.578,13.93,34.869L13.93,34.869z"/><path fill="#2F307A" d="M19.932,40.317c0.923-1.847,3.139-4.801,4.062-4.709c1.293,0.277,2.031,1.016,1.847,2.77   c-0.277,1.754-1.2,3.232-1.662,5.17c-0.462,1.754-0.185,2.493-0.185,2.493s1.847,0.185,2.77,0c0.923-0.369-0.092,1.662-1.477,2.585   c-1.385,0.923-3.509,2.678-5.447,0.369s-1.2-5.817-0.831-6.832C19.378,41.148,19.932,40.317,19.932,40.317L19.932,40.317z"/><path fill="#2F307A" d="M46.246,36.808c0.554-2.955-0.646-3.601-1.385-3.601c-0.554,0-1.293,0.646-1.385,0.831   c0.092-0.277,0.554-0.923-0.369-1.57c-1.108-0.646-2.493,0-3.047,0.369c-2.124,1.2-6.186,3.601-8.679,6.278   c-2.678,2.585-2.77,6.555-1.662,7.571c1.293,1.016,4.155,1.662,6.74-0.923c2.493-2.493,3.601-3.693,3.601-3.693   s-0.369,3.047,0,5.54c0.277,2.401,1.57,4.247,3.693,3.693c1.939-0.646,1.108-0.646,1.108-0.646s-2.401-0.462-1.57-4.339   C44.03,42.532,45.692,39.67,46.246,36.808L46.246,36.808z M42.645,35.054c-0.277,0.554-3.324,3.693-4.339,4.709   c-1.016,1.016-4.247,3.97-4.709,3.97c-0.369,0-0.739,0-0.369-1.293c0.369-1.385,1.754-2.77,3.786-4.801   c1.016-0.831,3.97-2.585,4.986-3.047C43.014,34.131,43.014,34.408,42.645,35.054L42.645,35.054z"/><path fill="#2F307A" d="M54.832,29.883c0,0,3.232-6.278,3.97-6.371c0.831-0.185,3.047,0.646,2.77,2.862   c-0.185,2.216-0.646,2.77-0.646,2.77s7.848,0.739,8.771,1.293c0.923,0.554-10.064,2.308-10.895,3.785   c-0.739,1.477-2.862,7.663-2.77,8.494c0.185,0.646,0.369,1.662,1.385,1.662c1.57,0,1.754-0.554,1.754-0.554   s-1.108,4.893-4.709,4.247c-3.047-0.739-4.247-3.324-3.232-7.663c0.831-3.693,1.477-5.54,1.477-5.54s-2.77,0.739-3.878-0.369   c-1.293-1.2-1.108-2.124-0.462-2.493C48.923,31.73,52.801,30.16,54.832,29.883L54.832,29.883z"/><path fill="#F79023" d="M26.764,29.514c-1.477,0-2.678,1.293-2.678,2.77s1.2,2.77,2.678,2.77c1.477,0,2.678-1.293,2.678-2.77   S28.242,29.514,26.764,29.514L26.764,29.514z M26.764,33.3c-0.554,0-1.016-0.462-1.016-1.016c0-0.554,0.462-1.016,1.016-1.016   c0.554,0,1.016,0.462,1.016,1.016C27.78,32.838,27.318,33.3,26.764,33.3L26.764,33.3z"/><path fill="#FDC218" d="M26.764,30.437c-1.016,0-1.847,0.831-1.847,1.754c0,0.831,0.831,1.662,1.847,1.662   c1.016,0,1.847-0.831,1.847-1.662C28.611,31.268,27.78,30.437,26.764,30.437L26.764,30.437z M26.672,33.023   c-0.462,0-0.923-0.462-0.923-0.831c0-0.462,0.462-0.923,0.923-0.923c0.462,0,0.923,0.462,0.923,0.923   C27.595,32.746,27.226,33.023,26.672,33.023L26.672,33.023z"/><path fill="#D67128" d="M9.314,14.834c0,0,1.2,2.77,2.585,3.785s4.432,2.124,4.432,2.124s-4.709,4.709-6.278,7.017   c-1.754,2.308-3.693,5.447-4.339,6.832s-2.308,4.247-2.77,6.555c-0.277,2.308-0.923,6.278-0.923,6.278s-2.124-3.601-1.847-7.294   s1.108-7.479,2.031-10.526c0.923-3.139,3.693-9.141,4.339-10.156C7.098,18.435,9.314,14.834,9.314,14.834L9.314,14.834z"/><path fill="#FBBF18" d="M13.838,14.926c0,0,0.923,2.77,2.308,4.063c1.385,1.2,4.247,2.401,4.247,2.401s-4.986,4.432-6.832,6.648   c-1.847,2.124-3.97,5.17-4.709,6.463c-0.831,1.2-2.401,4.247-3.232,6.463c-0.831,2.124-1.385,6.186-1.385,6.186   s-1.847-3.693-1.385-7.386c0.554-3.693,1.477-7.386,2.77-10.341c1.293-3.047,4.432-8.771,5.078-9.879   C11.438,18.527,13.838,14.926,13.838,14.926L13.838,14.926z"/><path fill="#FBBF18" d="M2.759,40.501c0,0,0.369,3.693,1.293,5.724   c0.923,2.124,2.124,3.693,3.416,4.709c1.293,1.108,2.678,1.847,3.786,2.585c1.2,0.646,2.216,1.385,2.216,1.385   s-4.709,0.092-6.648-1.662c-2.031-1.662-3.693-3.509-4.062-7.479C2.666,44.379,2.759,40.501,2.759,40.501L2.759,40.501z" clip-rule="evenodd" fill-rule="evenodd"/><path fill="#F79023" d="M0.173,41.148c0,0,0.831,3.693,1.847,5.632   c1.2,2.124,2.308,3.601,3.601,4.524c1.293,1.016,2.77,1.662,3.97,2.216c1.108,0.554,2.308,1.293,2.308,1.293   s-4.801,0.462-6.832-1.2c-2.124-1.477-3.97-3.324-4.524-7.109C0.358,45.21,0.173,41.148,0.173,41.148L0.173,41.148z" clip-rule="evenodd" fill-rule="evenodd"/></g></svg>