<svg xmlns="http://www.w3.org/2000/svg" version="1.1" id="Layer_1" x="0px" y="0px" width="180" height="180" viewBox="0 306.8 180 180" xml:space="preserve"><metadata id="metadata191"/><defs id="defs189"/><style id="style160" type="text/css">
	.st0{fill:#BDD531;}
	.st1{fill:#7C174A;}
	.st2{fill:#29ABE2;}
</style><rect id="rect162" x="0" y="306.79999" width="180" height="180" style="fill:#bdd531" class="st0"/><g id="g184" transform="translate(196.8)"><path id="path164" d="m -166.9,426 v 20.5 h -14.9 c -0.6,0 -1,-0.5 -1,-1 v -5 h -6.1 v 9 c 0,1.7 1.4,3.1 3.1,3.1 h 25.1 V 426 Z" style="fill:#7c174a" class="st1"/><rect id="rect166" x="-152.89999" y="426" width="6.0999999" height="26.6" style="fill:#7c174a" class="st1"/><rect id="rect168" x="-66.699997" y="426" width="6.0999999" height="26.6" style="fill:#29abe2" class="st2"/><path id="path170" d="m -113.9,426 h -25 v 26.6 h 6.1 v -20.5 h 14.9 c 0.6,0 1,0.5 1,1 v 19.4 h 6.1 v -23.4 c 0.1,-1.7 -1.3,-3.1 -3.1,-3.1" style="fill:#7c174a" class="st1"/><path id="path172" d="m -99.7,426 c -1.7,0 -3.1,1.4 -3.1,3.1 v 23.4 h 6.1 v -8.3 h 16 v 8.3 h 6.1 V 426 Z m 18.9,6.1 v 6.1 h -16 v -5 c 0,-0.6 0.5,-1 1.1,-1 h 14.9 z" style="fill:#29abe2" class="st2"/><path id="path174" d="m -27.7,426 h -25.1 v 26.6 h 6.1 v -20.5 h 14.9 c 0.6,0 1,0.5 1,1 v 5 h 6.1 v -9 c 0.2,-1.7 -1.2,-3.1 -3,-3.1" style="fill:#29abe2" class="st2"/><path id="path176" d="m -118.5,377.2 2.1,-1.5 6,-4.2 c 0,-0.2 0,-0.3 0,-0.5 v 0 c 0,-0.6 0,-1.1 0,-1.7 0,-3.2 0.3,-6.3 0.8,-9.3 0.1,-0.3 0.1,-0.6 0.2,-0.9 0.1,-0.3 0.1,-0.6 0.2,-1 -0.4,-0.3 -0.8,-0.6 -1.2,-0.9 -7.8,-5.8 -16.5,-10.5 -25.8,-13.9 -0.3,-0.1 -0.6,-0.2 -0.9,-0.3 -0.1,-0.1 -0.3,-0.1 -0.4,-0.1 -3,-1 -6.1,-1.7 -9.4,-1.8 0,0 -0.1,0 -0.1,0 -0.1,0 -0.2,0 -0.3,0 -3.6,0 -6.6,2.6 -7.2,6.1 0,0.2 -0.1,0.3 -0.1,0.5 -0.3,2.6 -0.5,5.3 -0.5,8 0,5.1 0.6,10.1 1.8,14.9 0,0 0,0.1 0,0.2 0,0 0,0.1 0,0.1 1.3,5.2 4.5,9.8 8.8,12.8 3.2,2.3 7.1,3.8 11.2,4.1 z" style="fill:#29abe2" class="st2"/><path id="path178" d="m -113.3,399.1 4.9,-3.3 0.2,-0.1 -0.1,-1 -0.8,-5.6 -0.1,-0.5 -1.1,-7.7 -2.6,1.1 -5.5,2.3 -2.3,0.9 -11.6,4.8 c -2,1.8 -3.6,4.1 -4.6,6.7 0,0.1 -0.1,0.2 -0.1,0.3 0,0.1 -0.1,0.1 -0.1,0.2 -0.1,0.2 -0.2,0.5 -0.2,0.7 -0.1,0.3 -0.2,0.7 -0.3,1.1 -0.3,1.4 -0.3,2.8 -0.2,4.2 0.2,1.2 0.5,2.5 1.1,3.6 2.7,5.8 9.3,8.5 15.2,6.4 0.1,0 0.1,0 0.2,-0.1 0.1,0 0.2,-0.1 0.3,-0.1 0.1,0 0.1,0 0.2,-0.1 0.6,-0.2 1.2,-0.5 1.8,-0.8 4.5,-2.4 7.9,-6.4 9.5,-11.1 l -3.7,0.6 -1.4,0.2 v -1.9 z" style="fill:#29abe2" class="st2"/><path id="path180" d="m -94.9,377.2 -2.1,-1.5 -6,-4.2 c 0,-0.2 0,-0.3 0,-0.5 v 0 c 0,-0.6 0,-1.1 0,-1.7 0,-3.2 -0.3,-6.3 -0.8,-9.3 -0.1,-0.3 -0.1,-0.6 -0.2,-0.9 -0.1,-0.3 -0.1,-0.6 -0.2,-1 0.4,-0.3 0.8,-0.6 1.2,-0.9 7.8,-5.8 16.5,-10.5 25.8,-13.9 0.3,-0.1 0.6,-0.2 0.9,-0.3 0.1,-0.1 0.3,-0.1 0.4,-0.1 3,-1 6.1,-1.7 9.4,-1.8 0,0 0.1,0 0.1,0 0.1,0 0.2,0 0.3,0 3.6,0 6.6,2.6 7.2,6.1 0,0.2 0.1,0.3 0.1,0.5 0.3,2.6 0.5,5.3 0.5,8 0,5.1 -0.6,10.1 -1.8,14.9 0,0 0,0.1 0,0.2 0,0 0,0.1 0,0.1 -1.3,5.2 -4.5,9.8 -8.8,12.8 -3.2,2.3 -7.1,3.8 -11.2,4.1 z" style="fill:#7c174a" class="st1"/><path id="path182" d="m -100.1,399.1 -4.9,-3.3 -0.2,-0.1 0.1,-1 0.8,-5.6 0.1,-0.5 1.1,-7.7 2.6,1.1 5.5,2.3 2.3,0.9 11.6,4.8 c 2,1.8 3.6,4.1 4.6,6.7 0,0.1 0.1,0.2 0.1,0.3 0,0.1 0.1,0.1 0.1,0.2 0.1,0.2 0.2,0.5 0.2,0.7 0.1,0.3 0.2,0.7 0.3,1.1 0.3,1.4 0.3,2.8 0.2,4.2 -0.2,1.2 -0.5,2.5 -1.1,3.6 -2.7,5.8 -9.3,8.5 -15.2,6.4 -0.1,0 -0.1,0 -0.2,-0.1 -0.1,0 -0.2,-0.1 -0.3,-0.1 -0.1,0 -0.1,0 -0.2,-0.1 -0.6,-0.2 -1.2,-0.5 -1.8,-0.8 -4.5,-2.4 -7.9,-6.4 -9.5,-11.1 l 3.7,0.6 1.4,0.2 v -1.9 z" style="fill:#7c174a" class="st1"/></g></svg>