<svg xmlns="http://www.w3.org/2000/svg" id="e71378cc-4da7-47e3-aa36-edc21d9039a5" width="60" height="54" viewBox="0 0 60 54.24"><defs><style>.red{fill:#ea222e;}
            .gry{fill:#282526;}
        </style></defs><title/><path transform="translate(-5 -7.88)" d="M64.81,62.12H64.28s-22.13,0-33.2,0A23.47,23.47,0,0,1,26,61.46a26.13,26.13,0,0,1-6.84-2.57,27.26,27.26,0,0,1-5.34-3.81A27,27,0,0,1,5.26,38.72,30,30,0,0,1,5,34.67q0-13,0-26V7.9h5.41V8.61q0,13.3,0,26.6A21.42,21.42,0,0,0,16,49.58a21.84,21.84,0,0,0,8.08,5.62,17.51,17.51,0,0,0,2.6.88,25.66,25.66,0,0,0,3.75.57c1.33,0.11,2.65.07,4,.07H64.81v5.39Z" class="red"/><path transform="translate(-5 -7.88)" d="M64.82,47.22v5.59s-22,0-32.83,0a17,17,0,0,1-5.75-1,17.82,17.82,0,0,1-5.95-3.54,17.57,17.57,0,0,1-5.2-8.3,17,17,0,0,1-.68-4.8c0-8.85,0-26.55,0-26.55V7.9h5.47V8.33s0,17.46,0,26.2a12.58,12.58,0,0,0,2.42,7.72,12,12,0,0,0,7.1,4.65,15.57,15.57,0,0,0,4.44.35c2.75-.16,5.5-0.06,8.25-0.07,7.37,0,22.71,0,22.71,0v0.05Z" class="red"/><path transform="translate(-5 -7.88)" d="M65,46.53L20.51,7.91h8.84L65,38.76v7.77Z" class="gry"/><path transform="translate(-5 -7.88)" d="M65,25.61v7.81L35.5,7.9h8.84Z" class="gry"/><path transform="translate(-5 -7.88)" d="M50.64,7.88h8.67L65,12.6v7.82L50.59,8Z" class="gry"/></svg>