<svg xmlns="http://www.w3.org/2000/svg" id="Layer_1" width="70" height="70" x="0" y="0" version="1.1" viewBox="0 0 70 70" xml:space="preserve" style="enable-background:new 0 0 70 70"><style type="text/css">.st0{fill:#1f2c5c}.st1{fill:#004190}.st2{fill:#006d94}.st3{fill:#4aa374}.st4{fill:#00908c}.st5{fill:#8ec060}.st6{clip-path:url(#SVGID_2_)}.st7{fill:url(#SVGID_3_)}.st8{clip-path:url(#SVGID_5_)}.st9{fill:url(#SVGID_6_)}.st10{clip-path:url(#SVGID_8_)}.st11{fill:url(#SVGID_9_)}</style><title/><g id="图层_2"><g id="图层_1-2"><path d="M24,35.7c0.1-0.4,0.2-0.8,0.4-1.1c1.4-2.6,3.7-5.4,6.1-7.9c0.1-0.1,0.7-0.7,1-0.9C28.3,29,28.5,33,24,35.7z" class="st0"/><path d="M30.5,26.3l0.9-0.5h0l-1.3,1.1l0,0c-4.1,3-5.8,7.7-11.9,9.9C20.7,32.9,25.2,29.5,30.5,26.3z" class="st1"/><path d="M30.1,26.4c-2.8,1.2-5.4,3.1-7.6,4.9c-2.6,2.1-5.8,3.2-8.4,3.7c3.9-4.1,10.9-7.5,16-8.9l1.3-0.4 C31,26,30.3,26.4,30.1,26.4C30.1,26.4,30.1,26.4,30.1,26.4z" class="st2"/><path d="M29,25.9c-3,0-6.3,0.2-9.6,1.3c-3.6,1.3-7.5,1.5-11.2,0.6c8.4-3.3,15.9-3.1,23.2-1.9L29,25.9L29,25.9z" class="st3"/><path d="M30.2,26L30.2,26l1.2-0.1l-1.8,0.4c-3,0.5-6.1,1.8-9.3,3.5c-3.3,1.7-6.7,2.1-9.5,2.3 c3.2-2.5,7.4-3.9,10.8-4.8C24.5,26.4,27.3,26.2,30.2,26z" class="st4"/><path d="M46.1,35.7c-0.1-0.4-0.2-0.8-0.4-1.1c-1.4-2.6-3.7-5.4-6.1-7.9c-0.1-0.1-0.7-0.7-1-0.9 C41.7,28.9,41.5,32.9,46.1,35.7z" class="st0"/><path d="M39.5,26.2l-0.9-0.5h0l1.3,1.1l0,0c4.1,3,5.8,7.7,11.9,9.9C49.3,32.8,44.8,29.4,39.5,26.2z" class="st1"/><path d="M39.7,26.3c2.8,1.1,5.4,3.1,7.6,4.9c2.6,2.1,5.8,3.2,8.5,3.7c-3.9-4.1-10.9-7.4-16-8.8l-1.3-0.4L39.7,26.3 C39.8,26.3,39.8,26.3,39.7,26.3z" class="st2"/><path d="M41.1,25.8c3,0,6.3,0.2,9.6,1.3c3.6,1.3,7.5,1.5,11.2,0.6c-8.4-3.3-15.9-3.1-23.2-1.9L41.1,25.8L41.1,25.8z" class="st3"/><path d="M39.9,25.9L39.9,25.9l-1.2-0.1l1.8,0.4c3,0.5,6.1,1.8,9.3,3.5c3.3,1.7,6.7,2.1,9.5,2.3 c-3.2-2.5-7.4-3.9-10.8-4.8C45.5,26.3,42.7,26.1,39.9,25.9z" class="st4"/><path d="M35.6,29.2c0,0-0.6-2,0.8-2.1C37.8,27,35.8,28.1,35.6,29.2z" class="st1"/><path d="M36,29c0,0,0.6-1.7,1.6-1.1C38.6,28.5,36.7,28.3,36,29z" class="st1"/><path d="M35.5,29.3c0,0-1.2-0.6-0.6-1.4C35.5,27.2,35.1,28.7,35.5,29.3z" class="st1"/><path d="M33,36c0.6,0.3,1.4,0.5,2.1,0.5l0,0c2.6,0,4.6-1.8,4.6-4.3l0,0c0,0,0-2.9-3.2-2.9c-2.2,0-2.8,2.3-2.8,2.3 s1.7-1.9,3.4-0.2c0.3,0.4,0.4,1,0.4,1.5c0,0.1,0,0.2,0,0.4c-0.1,0.7-0.5,2-2.1,2.3c-1.6,0.1-3.3-0.4-3.7-2.5 c-0.2-1.4,0.2-2.7,1-3.8c0.6-0.8,1.4-1.4,2.2-1.9c0.6-0.3,1.2-0.7,1.8-0.9l0,0c0.4-0.1,0.7-0.2,1.1-0.3c0.2,0.1,0.4,0.3,0.6,0.4 l0.1,0.1c0.2,0.1,0.4,0.3,0.5,0.5l0.1,0.1c0.3,0.3,0.6,0.6,0.8,1c0,0.1,0.1,0.1,0.1,0.2c0.1,0.1,0.1,0.3,0.2,0.4 c0.1,0.1,0.1,0.3,0.2,0.5c0.1,0.2,0.1,0.2,0.1,0.4c0.1,0.2,0.1,0.4,0.2,0.6c0,0.1,0,0.2,0.1,0.3c0.1,0.3,0.1,0.6,0.1,1 c0,3.4-2.7,6.1-6.1,6.1c-3.4,0-6.1-2.7-6.1-6.1c0-0.4,0-0.7,0.1-1.1c0-0.1,0.1-0.3,0.1-0.4c0-0.2,0.1-0.4,0.2-0.6 c0.1-0.2,0.1-0.4,0.2-0.5c0.1-0.2,0.1-0.3,0.2-0.4c0.1-0.2,0.2-0.4,0.4-0.6c0.1-0.1,0.1-0.2,0.2-0.2c0.2-0.2,0.3-0.4,0.5-0.6 l0.1-0.1c0.2-0.2,0.5-0.4,0.7-0.5l0.1,0c0.3-0.2,0.5-0.3,0.8-0.5h0c0.3-0.1,0.6-0.3,0.9-0.4l0,0c0.2-0.1,0.3-0.1,0.5-0.1 c0,0,0.1,0,0.1,0c-0.1,0-0.2-0.1-0.3-0.1c-0.6-0.3-1.3-0.5-1.9-0.7l-0.2,0l-0.2-0.1c-0.5-0.1-1.1-0.3-1.8-0.4l-0.1,0h0 c-7.7-1.5-20.7-1.9-20.7-1.9l-0.6,0c0.1,0.1,0.1,0.1,0.2,0.2c5.9,4.8,16.9,2.6,22.8,3.6c0,0,0,0,0,0c-0.2,0.1-0.4,0.3-0.6,0.5 c-0.1,0.1-0.2,0.2-0.3,0.3c-0.1,0.1-0.2,0.2-0.4,0.4c-0.1,0.1-0.2,0.2-0.3,0.3c-0.1,0.2-0.2,0.4-0.4,0.5c0,0.1-0.1,0.1-0.1,0.2 c-0.1,0.3-0.3,0.5-0.4,0.8c0,0.1-0.1,0.2-0.1,0.3c-0.1,0.2-0.1,0.4-0.2,0.7c0,0.1,0,0.2-0.1,0.3c0,0.3-0.1,0.6-0.1,1 c0,3.7,3,7.6,6.6,7.6s6.6-3.9,6.6-7.6c0-0.3,0-0.6-0.1-1c0-0.1,0-0.2-0.1-0.3c0-0.2-0.1-0.4-0.1-0.6c0-0.1-0.1-0.3-0.1-0.4 c0-0.1-0.1-0.3-0.2-0.5c-0.1-0.2-0.1-0.3-0.2-0.4c-0.1-0.1-0.1-0.2-0.1-0.2c-0.2-0.4-0.4-0.7-0.7-1L40,26.8 c-0.2-0.2-0.3-0.4-0.5-0.5l-0.1-0.1c-0.2-0.2-0.4-0.3-0.6-0.4l0,0c5.8-0.9,16.4,1.3,22.5-3.4c0,0,0.1-0.1,0.1-0.1h-0.2 c-14.4,0.5-21.5,1.9-23.2,2.3c-0.3,0.1-0.4,0.1-0.4,0.1l0,0c-0.2,0-0.3,0.1-0.5,0.1c-0.6,0.2-1.3,0.4-1.9,0.7 c-0.5,0.2-1.5,0.9-1.5,0.9c-1.9,1.3-3.2,3.2-3.1,5.8c0,1.6,0.9,3,2.3,3.7" class="st5"/><g><defs><path id="SVGID_1_" d="M33,36c0.6,0.3,1.4,0.5,2.1,0.5l0,0c2.6,0,4.6-1.8,4.6-4.3l0,0c0,0,0-2.9-3.2-2.9c-2.2,0-2.8,2.3-2.8,2.3 s1.9-2.5,3.4-0.2c0.3,0.4,0.4,1,0.4,1.5c0,0.1,0,0.2,0,0.4c-0.1,0.7-0.5,2-2.1,2.3c-1.6,0.1-3.3-0.4-3.7-2.5 c-0.2-1.4,0.2-2.7,1-3.8c0.6-0.8,1.4-1.4,2.2-1.9c0.6-0.3,1.2-0.7,1.8-0.9l0,0c0.4-0.1,0.7-0.2,1.1-0.3c0.2,0.1,0.4,0.3,0.6,0.4 l0.1,0.1c0.2,0.1,0.4,0.3,0.5,0.5l0.1,0.1c0.3,0.3,0.6,0.6,0.8,1c0,0.1,0.1,0.1,0.1,0.2c0.1,0.1,0.1,0.3,0.2,0.4 c0.1,0.1,0.1,0.3,0.2,0.5c0.1,0.2,0.1,0.2,0.1,0.4c0.1,0.2,0.1,0.4,0.2,0.6c0,0.1,0,0.2,0.1,0.3c0.1,0.3,0.1,0.6,0.1,1 c0,3.4-2.7,6.1-6.1,6.1c-3.4,0-6.1-2.7-6.1-6.1c0-0.4,0-0.7,0.1-1.1c0-0.1,0.1-0.3,0.1-0.4c0-0.2,0.1-0.4,0.2-0.6 c0.1-0.2,0.1-0.4,0.2-0.5c0.1-0.2,0.1-0.3,0.2-0.4c0.1-0.2,0.2-0.4,0.4-0.6c0.1-0.1,0.1-0.2,0.2-0.2c0.2-0.2,0.3-0.4,0.5-0.6 l0.1-0.1c0.2-0.2,0.5-0.4,0.7-0.5l0.1,0c0.3-0.2,0.5-0.3,0.8-0.5h0c0.3-0.1,0.6-0.3,0.9-0.4l0,0c0.2,0,0.3-0.1,0.5-0.1 c0,0,0.1,0,0.1,0c-0.1,0-0.2-0.1-0.3-0.1c-0.6-0.3-1.3-0.5-1.9-0.7l-0.2,0l-0.2-0.1c-0.5-0.1-1.1-0.3-1.8-0.4l-0.1,0h0 c-7.7-1.5-20.7-1.9-20.7-1.9l1.3,0.5c-0.4-0.1-0.2,0-0.2,0c5.9,4.8,15.4,2.3,21.4,3.3c0,0,0,0,0,0c-0.2,0.1-0.4,0.3-0.6,0.5 c-0.1,0.1-0.2,0.2-0.3,0.3c-0.1,0.1-0.2,0.2-0.4,0.4c-0.1,0.1-0.2,0.2-0.3,0.3c-0.1,0.2-0.2,0.4-0.4,0.5c0,0.1-0.1,0.1-0.1,0.2 c-0.1,0.3-0.3,0.5-0.4,0.8c0,0.1-0.1,0.2-0.1,0.3c-0.1,0.2-0.1,0.4-0.2,0.7c0,0.1,0,0.2-0.1,0.3c0,0.3-0.1,0.6-0.1,1 c0,3.7,3,7.6,6.6,7.6s6.6-3.9,6.6-7.6c0-0.3,0-0.6-0.1-1c0-0.1,0-0.2-0.1-0.3c0-0.2-0.1-0.4-0.1-0.6c0-0.1-0.1-0.3-0.1-0.4 c0-0.1-0.1-0.3-0.2-0.5c-0.1-0.2-0.1-0.3-0.2-0.4c-0.1-0.1-0.1-0.2-0.1-0.2c-0.2-0.4-0.4-0.7-0.7-1L40,26.8 c-0.2-0.2-0.3-0.4-0.5-0.5l-0.1-0.1c-0.2-0.2-0.4-0.3-0.6-0.4l0,0c5.8-0.9,16.4,1.3,22.5-3.4c0-0.1-0.1-0.1-0.4,0l0,0 c-14.4,0.5-21.2,1.7-22.9,2.1c-0.3,0.1-0.4,0.1-0.4,0.1l0,0c-0.4,0.1-0.4,0.1-0.5,0.2c-0.6,0.2-1.2,0.4-1.8,0.7 c-0.5,0.2-1.5,0.9-1.5,0.9c-1.9,1.3-3.2,3.2-3.1,5.8c0,1.6,0.9,3,2.3,3.7"/></defs><clipPath id="SVGID_2_"><use xmlns:xlink="http://www.w3.org/1999/xlink" style="overflow:visible" xlink:href="#SVGID_1_"/></clipPath><g class="st6"><linearGradient id="SVGID_3_" x1="36.748" x2="32.841" y1="46.303" y2="43.179" gradientTransform="matrix(1 0 0 -1 0 72)" gradientUnits="userSpaceOnUse"><stop offset="0" style="stop-color:#8ec060"/><stop offset="1" style="stop-color:#4aa374"/></linearGradient><polygon points="30.7 29.3 33.1 29.5 36.9 26.7 38.3 26.8 38 26 37.2 24.2 33.2 26.1" class="st7"/></g></g><g><defs><path id="SVGID_4_" d="M33,36c0.6,0.3,1.4,0.5,2.1,0.5l0,0c2.6,0,4.6-1.8,4.6-4.3l0,0c0,0,0-2.9-3.2-2.9c-2.2,0-2.8,2.3-2.8,2.3 s2-2,3.8-0.4c0.2,0.4,0.1,1.1,0.1,1.7c0,0.1,0,0.2,0,0.4c-0.1,0.7-0.5,2-2.1,2.3c-1.6,0.1-3.3-0.4-3.7-2.5 c-0.2-1.4,0.2-2.7,1-3.8c0.6-0.8,1.4-1.4,2.2-1.9c0.6-0.3,1.2-0.7,1.8-0.9l0,0c0.4-0.1,0.7-0.2,1.1-0.3c0.2,0.1,0.4,0.3,0.6,0.4 l0.1,0.1c0.2,0.1,0.4,0.3,0.5,0.5l0.1,0.1c0.3,0.3,0.6,0.6,0.8,1c0,0.1,0.1,0.1,0.1,0.2c0.1,0.1,0.1,0.3,0.2,0.4 c0.1,0.1,0.1,0.3,0.2,0.5c0.1,0.2,0.1,0.2,0.1,0.4c0.1,0.2,0.1,0.4,0.2,0.6c0,0.1,0,0.2,0.1,0.3c0.1,0.3,0.1,0.6,0.1,1 c0,3.4-2.7,6.1-6.1,6.1s-6.1-2.7-6.1-6.1c0-0.4,0-0.7,0.1-1.1c0-0.1,0.1-0.3,0.1-0.4c0-0.2,0.1-0.4,0.2-0.6 c0.1-0.2,0.1-0.4,0.2-0.5c0.1-0.2,0.1-0.3,0.2-0.4c0.1-0.2,0.2-0.4,0.4-0.6c0.1-0.1,0.1-0.2,0.2-0.2c0.2-0.2,0.3-0.4,0.5-0.6 l0.1-0.1c0.2-0.2,0.5-0.4,0.7-0.5l0.1,0c0.3-0.2,0.5-0.3,0.8-0.5h0c0.3-0.1,0.6-0.3,0.9-0.4l0,0c0.2,0,0.3,0,0.5-0.1 c0,0,0.1,0,0.1,0c-0.1,0-0.2-0.1-0.3-0.1c-0.6-0.3-1.3-0.5-1.9-0.7l-0.2,0l-0.2-0.1c-0.5-0.1-1.1-0.3-1.8-0.4l-0.1,0h0 c-7.7-1.5-19-1.2-20.1-1.6L9,22.4c-0.4,0,0.3-0.1,0.4,0c5.8,4.8,15.9,2.6,21.8,3.6c0,0,0,0,0,0c-0.2,0.1-0.4,0.3-0.6,0.5 c-0.1,0.1-0.2,0.2-0.3,0.3c-0.1,0.1-0.2,0.2-0.4,0.4c-0.1,0.1-0.2,0.2-0.3,0.3c-0.1,0.2-0.2,0.4-0.4,0.5c0,0.1-0.1,0.1-0.1,0.2 c-0.1,0.3-0.3,0.5-0.4,0.8c0,0.1-0.1,0.2-0.1,0.3c-0.1,0.2-0.1,0.4-0.2,0.7c0,0.1,0,0.2-0.1,0.3c0,0.3-0.1,0.6-0.1,1 c0,3.7,3,7.6,6.6,7.6s6.6-3.9,6.6-7.6c0-0.3,0-0.6-0.1-1c0-0.1,0-0.2-0.1-0.3c0-0.2-0.1-0.4-0.1-0.6c0-0.1-0.1-0.3-0.1-0.4 c0-0.1-0.1-0.3-0.2-0.5c-0.1-0.2-0.1-0.3-0.2-0.4c-0.1-0.1-0.1-0.2-0.1-0.2c-0.2-0.4-0.4-0.7-0.7-1L40,26.8 c-0.2-0.2-0.3-0.4-0.5-0.5l-0.1-0.1c-0.2-0.2-0.4-0.3-0.6-0.4l0,0c5.8-0.9,16.4,1.3,22.5-3.4c0-0.1,0.1-0.1-0.2,0H61 c-14.4,0.5-21.3,1.8-23.1,2.2c-0.3,0.1-0.4,0.1-0.4,0.1l0,0c-0.2,0-0.4,0.1-0.6,0.2c-0.6,0.2-1.2,0.4-1.8,0.7 c-0.5,0.2-1.5,0.9-1.5,0.9c-1.9,1.3-3.2,3.2-3.1,5.8c0,1.6,0.9,3,2.3,3.7"/></defs><clipPath id="SVGID_5_"><use xmlns:xlink="http://www.w3.org/1999/xlink" style="overflow:visible" xlink:href="#SVGID_4_"/></clipPath><g class="st8"><linearGradient id="SVGID_6_" x1="36.188" x2="31.183" y1="36.4" y2="40.322" gradientTransform="matrix(1 0 0 -1 0 72)" gradientUnits="userSpaceOnUse"><stop offset="0" style="stop-color:#00908c"/><stop offset="1" style="stop-color:#4aa374"/></linearGradient><polygon points="37.3 36.4 37.3 36 35.7 35.1 32.4 32.3 32.9 30 33 29.3 30.8 29 30.2 30.6 30.2 32.8 31.5 35.7 34.1 36.7 36.8 36.7" class="st9"/></g></g><g><defs><path id="SVGID_7_" d="M32.8,35.9c-1.4-0.7-2.3-2.2-2.3-3.7c-0.1-2.6,1.2-4.5,3.1-5.8c0,0,1.1-0.7,1.5-0.9 c0.6-0.3,1.2-0.5,1.8-0.7c0.2-0.1,0.4-0.1,0.6-0.2l0,0c0,0,0.1,0,0.4-0.1c1.7-0.4,8.7-1.7,23.1-2.2h0.1c0.3-0.1,0.2,0,0.1,0 c-6,4.8-16.6,2.6-22.5,3.4l0,0c0.2,0.1,0.4,0.3,0.6,0.4l0.1,0.1c0.2,0.2,0.4,0.3,0.5,0.5l0.1,0.1c0.3,0.3,0.5,0.6,0.7,1 c0,0.1,0.1,0.2,0.1,0.2s0.1,0.3,0.2,0.4c0.1,0.1,0.1,0.3,0.2,0.5c0.1,0.2,0.1,0.3,0.1,0.4c0.1,0.2,0.1,0.4,0.1,0.6 c0,0.1,0,0.2,0.1,0.3c0,0.3,0.1,0.6,0.1,1c0,3.7-3,7.6-6.6,7.6s-6.6-3.9-6.6-7.6c0-0.3,0-0.7,0.1-1c0-0.1,0-0.2,0.1-0.3 c0-0.2,0.1-0.4,0.2-0.7c0-0.1,0.1-0.2,0.1-0.3c0.1-0.3,0.2-0.6,0.4-0.8c0-0.1,0.1-0.2,0.1-0.2c0.1-0.2,0.2-0.4,0.4-0.5 c0.1-0.1,0.2-0.2,0.3-0.3c0.1-0.1,0.2-0.3,0.4-0.4c0.1-0.1,0.2-0.2,0.3-0.3c0.2-0.2,0.4-0.3,0.6-0.5c0,0,0,0,0,0 c-5.9-1-17,1.2-22.9-3.6C8.2,22.2,8,22,8.4,22.1l0,0c0,0,13.3,0.4,21,1.9h0l0.1,0c0.6,0.1,1.2,0.3,1.8,0.4l0.2,0.1l0.2,0 c0.7,0.1,1.3,0.4,1.9,0.6c0.1,0,0.2,0.1,0.3,0.1c0,0-0.1,0-0.1,0c0,0-0.2,0.1-0.5,0.1l0,0c-0.3,0.1-0.6,0.2-0.9,0.4h0 c-0.3,0.1-0.5,0.3-0.8,0.5l-0.1,0c-0.2,0.2-0.5,0.3-0.7,0.5L30.8,27c-0.2,0.2-0.4,0.4-0.5,0.6c-0.1,0.1-0.1,0.2-0.2,0.2 c-0.1,0.2-0.3,0.4-0.4,0.6c-0.1,0.1-0.1,0.3-0.2,0.4s-0.2,0.4-0.2,0.5c-0.1,0.2-0.1,0.4-0.2,0.6c0,0.1-0.1,0.3-0.1,0.4 c-0.1,0.3-0.1,0.7-0.1,1c0.1,3.4,2.9,6,6.2,5.9c3.3-0.1,5.9-2.7,5.9-5.9c0-0.3,0-0.6-0.1-1c0-0.1,0-0.2-0.1-0.3 c0-0.2-0.1-0.4-0.2-0.6c0-0.1-0.1-0.3-0.1-0.4c0-0.1-0.1-0.3-0.2-0.5c-0.1-0.1-0.1-0.3-0.2-0.4c0-0.1-0.1-0.1-0.1-0.2 c-0.2-0.4-0.5-0.7-0.8-1l-0.1-0.1c-0.2-0.2-0.3-0.3-0.5-0.5l-0.1-0.1c-0.2-0.1-0.4-0.3-0.6-0.4c-0.4,0.1-0.7,0.2-1.1,0.3l0,0 c-0.6,0.3-1.2,0.6-1.8,0.9c-0.8,0.5-1.6,1.2-2.2,1.9c-0.8,1.1-1.2,2.5-1,3.8c0.4,2.2,2,2.7,3.7,2.5c1.6-0.2,2-1.6,2.1-2.3 c0-0.1,0-0.2,0-0.4c0.1-0.9-0.5-1.7-1.4-2c-1.3-0.4-2.4,0.6-2.4,0.6s0.5-2.3,2.8-2.3c3.2,0,3.2,2.9,3.2,2.9l0,0 c-0.1,2.5-2.1,4.3-4.6,4.3l0,0c-0.7,0-1.4-0.2-2.1-0.5C33,36,32.8,35.9,32.8,35.9z"/></defs><clipPath id="SVGID_8_"><use xmlns:xlink="http://www.w3.org/1999/xlink" style="overflow:visible" xlink:href="#SVGID_7_"/></clipPath><g class="st10"><linearGradient id="SVGID_9_" x1="36.706" x2="36.999" y1="36.665" y2="42.548" gradientTransform="matrix(1 0 0 -1 0 71.99)" gradientUnits="userSpaceOnUse"><stop offset="0" style="stop-color:#00908c"/><stop offset="1" style="stop-color:#004190"/></linearGradient><path d="M34.3,32.4c0,0-0.8-0.9-0.8-1.1s0.8-1.7,0.8-1.7l3.9-1l1.4,0.8c0,0,0.6,0.9,0.6,1.1v2.1l-0.4,1.9l-1.1,1 l-1,0.9l-3.5-1.9L34.3,32.4z" class="st11"/></g></g><path d="M69.5,47c0-0.2,0-0.4-0.5-0.6c-0.5-0.2-0.9-0.3-1.4-0.3c-0.2,0-0.9-0.2-0.9-0.5c0-0.2,0.2-0.5,0.8-0.5 c0.2,0,0.3,0,0.5,0.2c0.1,0.1,0.1,0.2,0.1,0.3H70c0-0.2-0.1-0.4-0.2-0.6c-0.3-0.3-1-0.5-2-0.5c-1.8,0-2.8,0.4-3.1,1.3 c0,0.1,0,0.2,0,0.2c0,0.2,0,0.4,0.5,0.6c0.5,0.2,0.9,0.3,1.4,0.3c0.2,0,0.9,0.2,0.8,0.5c0,0.4-0.3,0.5-0.8,0.5 c-0.2,0-0.4,0-0.5-0.2C66,47.6,66,47.5,66,47.4h-1.9c0,0.2,0.1,0.4,0.2,0.6c0.3,0.4,1,0.5,2,0.5c1.8,0,2.8-0.4,3.1-1.3 C69.4,47.1,69.5,47,69.5,47" class="st4"/><polygon points="49.8 43.2 48.2 48.4 49.8 48.4 51.5 43.2" class="st4"/><path d="M47.9,45c0.3,0,0.6,0,0.8,0.1l0.2-0.7h-0.5c-0.3,0-0.7,0.1-1,0.2l-0.3,0.1l0.1-0.2h-1.7l-1.3,4h1.7l0.8-2.4 C46.9,45.3,47.3,45,47.9,45" class="st4"/><polygon points="39.6 44.3 41.3 43.2 38.6 43.2 35.2 48.4 37.3 48.4 37.9 47.3 39.6 47.3 39.6 48.4 41.7 48.4 41.7 44.3 39.9 44.3 39.7 46.5 38.3 46.5" class="st4"/><path d="M60.8,47.8c-0.1,0-0.3,0-0.4-0.1c-0.1-0.1-0.1-0.2-0.1-0.4c0-0.1,0-0.2,0.1-0.3l0.1-0.4h3.4l0.1-0.4 c0.1-0.2,0.1-0.4,0.1-0.6c0-0.3-0.1-0.5-0.3-0.8c-0.3-0.4-1-0.5-1.9-0.5c-1.9,0-3,0.6-3.4,1.9l-0.1,0.4c-0.1,0.2-0.1,0.4-0.1,0.6 c0,0.3,0.1,0.6,0.3,0.8c0.3,0.4,1,0.5,1.9,0.5c1.4,0,2.5-0.4,3-1.2h-1.9C61.5,47.6,61.1,47.8,60.8,47.8 M60.7,45.7 c0.2-0.5,0.4-0.7,0.8-0.7c0.1,0,0.3,0,0.4,0.1c0.1,0.1,0.1,0.3,0.1,0.4c0,0.1,0,0.2-0.1,0.3L62,46.1h-1.3L60.7,45.7z" class="st4"/><path d="M11.1,45.5c0-0.3-0.1-0.5-0.2-0.7c-0.3-0.3-0.9-0.4-1.7-0.4c-1.4,0-2.3,0.4-2.9,1.2h1.7 C8.1,45.2,8.4,45,8.8,45c0.2,0,0.4,0,0.5,0.2c0.1,0.1,0.1,0.2,0.1,0.4c0,0.1,0,0.1,0,0.2l0,0.2l-0.1,0c-0.5,0.2-1,0.3-1.5,0.3 c-0.5,0-1,0.1-1.4,0.3C6,46.6,5.6,47,5.5,47.4c0,0.1,0,0.2,0,0.3c0,0.1,0,0.3,0.1,0.4c0.2,0.2,0.6,0.4,1.8,0.4 c0.3,0,0.7-0.1,1-0.2l0.3-0.1l-0.1,0.3h1.7l0.7-2.4C11,45.9,11.1,45.7,11.1,45.5 M8.9,47.4c-0.1,0.3-0.4,0.5-0.9,0.5 c-0.2,0-0.4,0-0.6-0.2c-0.1-0.1-0.1-0.2-0.1-0.3c0,0,0-0.1,0-0.1c0.1-0.2,0.2-0.4,0.4-0.4c0.2-0.1,0.4-0.1,0.6-0.1 c0.2,0,0.3,0,0.5-0.1l0.3-0.1L8.9,47.4z" class="st4"/><path d="M26.9,48.5c1.4,0,2.5-0.4,3-1.2H28c-0.1,0.3-0.4,0.6-0.8,0.5c-0.1,0-0.3,0-0.4-0.1c-0.1-0.1-0.1-0.2-0.1-0.4 c0-0.1,0-0.2,0.1-0.3l0.1-0.4h3.4l0.1-0.4c0.1-0.2,0.1-0.4,0.1-0.6c0-0.3-0.1-0.5-0.2-0.8c-0.3-0.4-1-0.5-1.9-0.5 c-1.9,0-3,0.6-3.4,1.9l-0.1,0.4c-0.1,0.2-0.1,0.4-0.1,0.6c0,0.3,0.1,0.6,0.3,0.8C25.3,48.3,25.9,48.5,26.9,48.5 M27.1,45.7 c0.2-0.5,0.4-0.7,0.8-0.7c0.1,0,0.3,0,0.4,0.1c0.1,0.1,0.1,0.3,0.1,0.4c0,0.1,0,0.2-0.1,0.3l-0.1,0.2H27L27.1,45.7z" class="st4"/><path d="M24.6,45.3c0-0.2,0-0.5-0.2-0.6c-0.3-0.2-0.7-0.3-1-0.3c-0.6,0-1.2,0.1-1.7,0.5l-0.1,0.1l-0.1-0.2 c-0.2-0.3-0.5-0.4-1.1-0.4c-0.4,0-0.8,0-1.2,0.2l-0.3,0.1l0.1-0.3h-1.7l-1.3,4h1.7l0.9-2.7c0.2-0.5,0.4-0.7,0.8-0.7 c0.1,0,0.3,0,0.4,0.1c0.1,0.1,0.1,0.2,0.1,0.4c0,0.1,0,0.2-0.1,0.3L19,48.4h1.7l0.9-2.7c0.2-0.5,0.4-0.7,0.8-0.7 c0.1,0,0.3,0,0.4,0.1c0.1,0.1,0.1,0.2,0.1,0.4c0,0.1,0,0.2-0.1,0.3L22,48.4h1.7l0.8-2.5C24.5,45.7,24.6,45.5,24.6,45.3" class="st4"/><path d="M16.4,45.3c0-0.2,0-0.5-0.2-0.6c-0.3-0.2-0.7-0.3-1-0.3c-0.4,0-0.8,0-1.2,0.2l-0.3,0.1l0.1-0.3H12l-1.3,4h1.7 l0.9-2.7c0.2-0.5,0.4-0.7,0.8-0.7c0.1,0,0.3,0,0.4,0.1c0.1,0.1,0.1,0.2,0.1,0.4c0,0.1,0,0.2-0.1,0.3l-0.8,2.6h1.7l0.8-2.5 C16.3,45.7,16.3,45.5,16.4,45.3" class="st4"/><polygon points="2.3 47.5 3.7 43.2 1.7 43.2 0 48.4 4.8 48.4 5.1 47.5" class="st4"/><path d="M58.2,45.3c0-0.2,0-0.5-0.2-0.6c-0.3-0.2-0.7-0.3-1-0.3c-0.4,0-0.8,0-1.2,0.2l-0.3,0.1l0.1-0.3h-1.7l-1.3,4 h1.7l0.9-2.7c0.2-0.5,0.4-0.7,0.8-0.7c0.2,0,0.3,0,0.4,0.1c0.1,0.1,0.1,0.2,0.1,0.4c0,0.1,0,0.2-0.1,0.3l-0.8,2.6h1.7l0.8-2.5 C58.1,45.7,58.2,45.5,58.2,45.3" class="st4"/><polygon points="53.5 43.9 53.7 43.2 52.1 43.2 51.8 43.9" class="st4"/><polygon points="51.7 44.4 50.4 48.4 52.1 48.4 53.3 44.4" class="st4"/><polygon points="33.3 43.9 33.5 43.2 31.9 43.2 31.6 43.9" class="st4"/><polygon points="31.5 44.4 30.2 48.4 31.9 48.4 33.1 44.4" class="st4"/><polygon points="45.1 43.9 45.3 43.2 43.7 43.2 43.5 43.9" class="st4"/><polygon points="43.3 44.4 42 48.4 43.7 48.4 45 44.4" class="st4"/></g></g></svg>