<svg xmlns="http://www.w3.org/2000/svg" id="Layer_1" width="70" height="70" x="0" y="0" enable-background="new 0 0 70 70" version="1.1" viewBox="0 0 70 70" xml:space="preserve"><metadata/><path fill="#E21F26" d="M13,0.9L13,0.9L13,0.9L13,0.9z M42.8,54.2l8.4-0.101l0,0c0.399,0.301,1.399,0.4,1.399,0 c-1.5-4.8-7.5-6.399-16.699-6.8C25.9,35.9,18.2,20.6,13,0.9C-0.7,14.4,2.1,47.4,35.6,47.7l5.5,6.1H16.7c0.1,1.7,0.7,1.9,7.9,2.2 c3.5,0.2,9.3,4,11.4,5.4C46.3,68,56.6,70.1,65.7,68.2C57.2,64.9,49.6,60.2,42.8,54.2z"/><rect width="70" height="70" fill="none"/></svg>