<svg xmlns="http://www.w3.org/2000/svg" id="Layer_1" width="70" height="70" x="0" y="0" enable-background="new 0 0 70 70" version="1.1" viewBox="0 0 70 70" xml:space="preserve"><metadata/><rect width="70" height="70" fill="none"/><path fill="#EE252B" d="M38.2,25.4l-0.8,3.2h3c0,0-0.7,2.9-1.101,5.1C38.9,35.4,37.9,39.5,38.6,41c0.601,1.1,1.9,1.8,3,1.8 c2.2,0.101,5,0.101,5,0.101l0.7-4.101h-1.7c0,0-1.5,0.101-1.699-0.7C43.5,36.4,45.6,28.6,45.6,28.6h3.7l0.7-3.2h-3.7l1.101-5.1 c0,0-2.9-0.1-3.601,0c-1,0.1-1.7,1.2-2.1,2.2c-0.4,1.2-0.7,2.9-0.7,2.9H38.2L38.2,25.4z"/><path fill="#EE252B" d="M47.9,42.9c0,0,0.6-3.2,2.1-5.2c2.1-2.8,7.2-5,8.7-5.8c2.899-1.2,4.7-3,4.7-4.7c0-1.1-1-2.8-3.2-2.8 c-2.101,0-3.9,1.8-4.101,4.1c-0.6,0-1.5,0-2.899,0c-0.601,0-2.601,0-2.601,0s0.801-4.3,3.301-6.2c2.1-1.5,3.6-2.1,6.3-2.2h1 c2.899,0.1,5.399,1.2,6.6,3.2c1.2,2.1,1.7,5.5-0.3,7.7c-1.8,1.9-3.6,3-5.1,3.9c-2.2,1.2-5,2.8-5.801,3C55.9,38.3,56,38.7,56,38.7 s7.6,0,9.1,0c1.4,0,2.101-0.601,2.101-0.601s0.7,1.9-0.3,3.2c-0.301,0.4-1.2,1.5-3,1.5C62.2,42.9,47.9,42.9,47.9,42.9L47.9,42.9z"/><path fill="#EE252B" d="M29.1,25.2c-2.8,0.1-4.8,0.6-7.2,3c-2.3,2.6-2.9,9.5-2.2,10.899c0.7,1.4,1.9,4.101,8,4.301 c7,0.3,8.8-5.7,8.8-5.7h-5.7c0,0,0,1.8-2.9,1.899c-4.1,0-3.2-4.1-3.2-4.1H37.1c0,0,0-0.3,0.301-3.4C37.7,28.5,34.5,25.1,29.1,25.2 L29.1,25.2z M32.2,32.1l-7,0.1c0,0,0.6-3.6,4-3.6C32.3,28.7,32.2,32.1,32.2,32.1L32.2,32.1z"/><path fill="#EE252B" d="M18.1,20.3c-1.1,0-2.3,0.3-3,1.1c-0.8,0.8-1.1,2.5-1.4,3.6c0,0.3,0,0.6-0.1,1c0.1,0,0.3,0,0.3,0 c0.3,0,1,0,1,0l2.5-3.4H18L16.6,26l2.9,0.1l0.6-0.7c0.7-2.9,1.1-5.1,1.1-5.1S19.2,20.3,18.1,20.3L18.1,20.3z M16.5,26.9l1.4,3.3 h-0.6l-2.5-3.3c0,0-0.7,0-1,0c-0.1,0-0.3,0-0.4-0.1c-0.3,1.4-0.6,3.2-0.8,5.1c-0.8,3.9-0.7,6.5-4,6.5c-1.1,0-2.1-0.4-2.1-1.2 c0-1.4,0.3-3.7,0.3-3.7H1.2c0,0-0.1,2.2-0.1,4.7c0,2.2,2.3,5.1,7.2,5.1c3.7,0,6.2-0.8,8.3-3.899c1.1-1.5,1.7-5.101,2.5-9 c0.1-1.1,0.4-2.3,0.7-3.4l-0.3-0.1H16.5L16.5,26.9z"/></svg>