<svg xmlns="http://www.w3.org/2000/svg" version="1.1" id="Layer_1" x="0px" y="0px" width="70px" height="70px" viewBox="0 0 70 70" enable-background="new 0 0 70 70" xml:space="preserve"><path fill="#9C9B9B" d="M66.376,8.227c-3.331-4.141-15.857-5.552-26.399-5.552c-9.255,0-24.729,1.312-29.329,6.006l-1.135,1.716   C9.075,11.646-1.1,41.22,7.879,57.976c2.951,5.501,7.592,9.029,13.801,10.494c0.737,0.176,1.508,0.27,2.278,0.276h0.02h0.021   c0.753-0.007,1.536-0.097,2.326-0.263c31.925-6.701,40.708-54.716,41.066-56.76C67.391,11.724,67.88,10.087,66.376,8.227z"/><g><path fill="#FFFFFF" d="M22.268,67.067c-0.77-0.006-1.536-0.097-2.277-0.273c-6.205-1.462-10.847-4.996-13.795-10.49    C-2.784,39.544,7.391,9.973,7.826,8.725l1.134-1.72C13.564,2.314,29.041,1,38.285,1c10.549,0,23.071,1.415,26.404,5.549    c1.501,1.862,1.015,3.5,1.015,3.5c-0.361,2.044-9.143,50.058-41.063,56.762c-0.793,0.16-1.575,0.251-2.331,0.257h-0.02H22.268z"/><radialGradient id="SVGID_1_" cx="299.3135" cy="-302.9565" r="48.4885" gradientTransform="matrix(0.9804 0 0 -1 -269.6465 -289)" gradientUnits="userSpaceOnUse"><stop offset="0" style="stop-color:#C22026"/><stop offset="0.7636" style="stop-color:#9D2220"/><stop offset="1" style="stop-color:#901F1D"/></radialGradient><path fill="url(#SVGID_1_)" d="M63.2,9.596h-0.014c0.562-3.329-10.465-6.007-24.901-6.007l0,0l0,0    c-14.432,0-26.862,2.678-28.054,6.007h-0.014c0,0-16.885,48.25,10.344,54.671c0.648,0.158,1.226,0.21,1.727,0.215    c0.504-0.005,1.113-0.057,1.837-0.215C54.736,57.846,63.2,9.596,63.2,9.596z"/><path fill="#FFFFFF" d="M43.618,33.86l0.006-0.017h-7.66l1.104-4.194c-1.64-1.141-4.484-2.048-7.879-2.37    c-0.158-0.018-0.319-0.024-0.479-0.037h8.988l0.004-0.007h5.573c0.582,0.015,1.144,0.034,1.664,0.036    c2.251,0.021,4.64-2.378,5.818-4.587c0.606-1.139,1.768-4.27,1.768-4.27c-1.327,0.333-4.898,0.21-4.898,0.21h-7.639l0.983-3.759    c0,0,0.841-3.75,1.618-5.049c0,0-4.189,0.356-5.761,0.679c-2.863,0.583-6.225,2.235-7.12,4.37l0,0l-0.006,0.021    c-0.059,0.134-0.103,0.27-0.138,0.409c-0.095,0.366-0.182,0.755-0.274,1.155l0.065-0.236H29.35l-0.632,2.411l-0.011,0.033H28.7    h-0.001v-0.006h-6.125c-0.386-0.008-0.755-0.02-1.108-0.021c-0.132,0-0.265,0.006-0.4,0.021h-0.016l0,0    c-2.121,0.256-4.293,2.497-5.396,4.568c-0.607,1.136-1.772,4.267-1.772,4.267c1.332-0.332,3.058-0.272,4.91-0.237l-0.001,0.021    h7.658l-1.725,6.572l-0.008,0.033h-5.572c-0.586-0.017-1.15-0.033-1.671-0.038c-2.249-0.021-4.639,2.381-5.816,4.584    c-0.604,1.141-1.772,4.273-1.772,4.273c1.337-0.334,4.905-0.209,4.905-0.209h7.658l-1.568,5.951c0,0-0.84,3.751-1.618,5.047    c0,0,4.192-0.352,5.767-0.677c2.861-0.581,6.225-2.229,7.121-4.37l0,0l0.005-0.02c0.055-0.136,0.102-0.267,0.137-0.401    c0.094-0.373,0.785-3.148,0.785-3.148c-1.637-1.147-4.484-2.054-7.881-2.375c-0.162-0.017-0.323-0.028-0.479-0.043h9.003h0.004    l-0.004,0.007h6.127c0.385,0.01,0.756,0.02,1.107,0.02c0.132,0.006,0.265-0.004,0.394-0.02h0.02v-0.001    c2.122-0.255,4.296-2.496,5.402-4.562c0.609-1.139,1.771-4.271,1.771-4.271C47.196,33.956,45.475,33.899,43.618,33.86z"/></g></svg>