<svg xmlns="http://www.w3.org/2000/svg" id="Layer_1" width="70" height="70" x="0" y="0" enable-background="new 0 0 70 70" version="1.1" viewBox="0 0 70 70" xml:space="preserve"><metadata/><rect width="70" height="70" fill="none"/><path fill="#2B358E" d="M29.2,28.1H31l0.7-1.3h-1.8L29.2,28.1z M32.5,28.1h4.4l0.8-1.1c-0.2-0.1-0.7-0.3-1.5-0.3 C35,26.7,33.7,27.1,32.5,28.1z M24,28.1h4.2l0.7-1.3h-4.2L24,28.1z M15.6,28.1H20l0.8-1.1c-0.2-0.1-0.7-0.3-1.5-0.3 C18.1,26.7,16.7,27.1,15.6,28.1z M21,28.1h1.8l0.7-1.3h-1.8L21,28.1z M5.6,28c0.1,0,0.3,0,0.5,0c0.2,0,0.3,0,0.4,0.1h2.2 c0-0.3,0-0.6-0.2-0.8c-0.3-0.3-0.9-0.5-1.8-0.5c-1,0-1.7,0.1-2.2,0.1l-0.6,1.2L5.6,28L5.6,28z M33.8,31.8c-1.2,0-1.6-0.7-1-1.9 c0.4-0.8,1-1.3,1.6-1.6h-2.2c-0.5,0.5-0.9,1-1.3,1.7c-0.9,1.7-0.5,3.1,1.9,3.1c0.8,0,1.5-0.1,1.8-0.3l0.4-1.3 C34.7,31.7,34.2,31.8,33.8,31.8z M11.6,28.3c-0.1,0.3-0.1,0.7-0.2,0.9l-0.2,1.1H9.7l0.9-1.1c0.2-0.3,0.5-0.6,0.7-0.9H9.6l-4.1,4.8 h2.1l1.2-1.5h2l-0.3,1.5h2.2l0.7-4.8C13.5,28.3,11.6,28.3,11.6,28.3z M11.6,28L11.6,28L11.6,28l1.9,0.1l0.2-1.3H11l-1.1,1.3L11.6,28 L11.6,28z M8.5,28.7c0.1-0.1,0.1-0.3,0.2-0.4H6.8c0,0.1,0,0.3-0.1,0.5c-0.3,0.5-0.9,0.9-1.6,0.9c-0.2,0-0.3,0-0.4,0l0.7-1.3H5.2 L2.9,30l-1.6,3.1H3L4.1,31c0.1,0,0.2,0,0.4,0c0.9,0,1.8-0.2,2.5-0.7C7.7,29.9,8.2,29.4,8.5,28.7z M16.9,31.8c-1.2,0-1.6-0.7-1-1.9 c0.4-0.8,1-1.3,1.6-1.6h-2.2c-0.5,0.5-0.9,1-1.3,1.7c-0.9,1.7-0.5,3.1,1.9,3.1c0.8,0,1.5-0.1,1.8-0.3l0.4-1.3 C17.8,31.7,17.3,31.8,16.9,31.8z M18.4,33.1h1.8l2.4-4.8h-1.8L18.4,33.1z M26.6,33.1h1.8l2.4-4.8H29L26.6,33.1z M25.6,28.3h-1.8 l-2.4,4.8h1.8l1.2-2.4h2.3l0.7-1.4h-2.3L25.6,28.3z"/><path fill="#4783C4" d="M43.9,26.8h-2L41,28.1h2.5L43.9,26.8z M40.3,26.8h-2L38,28.1h1.9L40.3,26.8z M67.8,28.4L68.9,27 C68.6,26.8,68.1,26.7,67.3,26.7c-1.3,0-2.5,0.6-3.2,1.4h2.5C67.2,28.1,67.6,28.2,67.8,28.4z M44.6,28.1H46.4l1-1.3h-1.9L44.6,28.1z M63.4,27c-0.301-0.2-0.9-0.3-1.7-0.3c-1.4,0-2.8,0.5-3.9,1.3h4.8L63.4,27z M54.6,28.1h1.7l0.7-1.3h-1.7L54.6,28.1z M53.2,26.8H51 l-0.7,1.3h2.9V26.8z M47.4,28.1h1.8l0.7-1.3H48.1L47.4,28.1z M44.9,33.1h1.8l2.399-4.8h-1.8L44.9,33.1z M43.9,29.1 c-0.5,0.7-1,1.5-1.5,2.2l0,0c0.3-0.7,0.5-1.4,0.8-2.1l0.3-0.9h-2.6l-0.5,0.8C39.8,29.9,39.3,30.6,38.8,31.3l0,0 c0.2-0.7,0.5-1.5,0.8-2.2l0.301-0.8H38l-1.2,4.8H38.9l1.8-2.5c0.399-0.6,0.8-1.2,1.3-1.9l0,0c-0.3,0.7-0.5,1.3-0.7,1.9l-0.8,2.5h2 l3.7-4.8h-1.7L43.9,29.1z M53.3,30.9L53.3,30.9c0-0.7,0.101-1.6,0-2.2v-0.4h-3L47.9,33.1H49.6l0.801-1.6c0.5-1,1-2,1.399-2.8l0,0 c-0.1,0.8-0.1,1.6,0,2.3l0.101,2.1H53.8l2.4-4.8h-1.7C54,29.2,53.6,30.1,53.3,30.9z M59.2,30.6H60.1l-0.6,1.1 c-0.1,0-0.3,0.1-0.6,0.1c-1.101,0-1.5-0.7-0.9-1.9c0.4-0.8,1-1.3,1.7-1.6h-2.3c-0.5,0.5-1,1-1.301,1.7c-0.5,0.9-0.6,1.7-0.199,2.3 c0.3,0.5,1,0.9,2.3,0.9c0.899,0,1.899-0.2,2.5-0.4l1.8-3.5h-2.6L59.2,30.6z M66.3,29.3c-0.7-0.3-1-0.4-0.8-0.7 c0-0.1,0.1-0.1,0.1-0.2h-1.8c-0.1,0.1-0.1,0.2-0.2,0.3c-0.5,0.9,0,1.5,0.9,1.9c0.6,0.2,0.8,0.4,0.7,0.7C65,31.6,64.6,31.8,64,31.8 c-0.7,0-1.2-0.2-1.5-0.4l-1,1.4c0.3,0.2,0.9,0.4,1.7,0.4c1.899,0,3.3-0.9,3.8-2C67.4,30.3,67.2,29.7,66.3,29.3z"/></svg>