<svg xmlns="http://www.w3.org/2000/svg" id="svg2" width="70" height="70" viewBox="0 0 580 580"><defs><style>.cls-1,.cls-4{fill:none;}.cls-2{clip-path:url(#clip-path);}.cls-3{fill:#143b5e;}.cls-4{stroke:#000;stroke-miterlimit:5.33;stroke-width:4px;}.cls-5{fill:#fff;}</style><clipPath id="clip-path"><rect x="-56" y="7.5" width="680.31" height="566.93" class="cls-1"/></clipPath></defs><g id="g10"><g id="g12"><g class="cls-2"><g id="g14"><g id="g20"><path id="path22" d="M573.77,465.5h-7.23q-197.26,0-394.53.14c-6.57,0-9.59-1.95-12-8.25-17.25-45.86-34.92-91.57-52.56-137.28C91.89,279.72,76.1,239.41,60.53,199q-24.06-62.43-47.84-125c-.84-2.21-1.49-4.49-2.51-7.58,3-.18,5.33-.42,7.65-.42,28.21,0,56.44-.5,84.63.12a173.43,173.43,0,0,1,70.05,16.54c28.82,13.41,53.46,32.21,75.81,54.62q159.76,160.2,319.9,320c2.14,2.14,4.18,4.37,6.27,6.56l-.72,1.57" class="cls-3"/></g><g id="g24"><path id="path26" d="M573.77,465.5h-7.23q-197.26,0-394.53.14c-6.57,0-9.59-1.95-12-8.25-17.25-45.86-34.92-91.57-52.56-137.28C91.89,279.72,76.1,239.41,60.53,199q-24.06-62.43-47.84-125c-.84-2.21-1.49-4.49-2.51-7.58,3-.18,5.33-.42,7.65-.42,28.21,0,56.44-.5,84.63.12a173.43,173.43,0,0,1,70.05,16.54c28.82,13.41,53.46,32.21,75.81,54.62q159.76,160.2,319.9,320c2.14,2.14,4.18,4.37,6.27,6.56Z" class="cls-4"/></g><g id="g28"><path id="path30" d="M234,362.93h-87L216,257.1l69,105.83,40.54,62.59h74.94L216,142.43,106.31,310.84l45,114.68H274.89Z" class="cls-5"/></g></g></g></g></g></svg>