<svg xmlns="http://www.w3.org/2000/svg" id="Layer_1" width="70" height="70" x="0" y="0" version="1.1" viewBox="0 0 70 70" xml:space="preserve" style="enable-background:new 0 0 70 70"><style type="text/css">.st0{fill:#010101}</style><path d="M3.3,31.2l-0.2,1.3L3.9,32c0.2-0.2,0.4-0.3,0.6-0.4l0.3-0.3l0.1-0.1H8l-2.8,2.2c0.4,0.7,0.7,1.4,0.9,2.1 c0.2,0.6,0.4,1.2,0.5,1.6c0.1,0.3,0.2,0.7,0.2,1L7,38.6H4.7c-0.1-0.6-0.3-1.1-0.5-1.6c-0.2-0.5-0.3-0.9-0.5-1.3 c-0.2-0.4-0.3-0.6-0.4-0.8l-0.2-0.3l-0.4,0.3l-0.6,3.9H0l1.1-7.4H3.3z M12.4,38.6H7.3l1-7.4h5.2l-0.3,1.7h-2.8l-0.1,0.6h2.3L12.3,35 H9.9l-0.3,1.9h3L12.4,38.6z M14.7,38.6l0.7-4.7l0.3,0.2c0.3,0.2,0.5,0.3,0.7,0.5c0.3,0.2,0.5,0.5,0.8,0.8c0.2,0.3,0.4,0.6,0.5,1 l-0.3,2.2h2l0.9-7.3h-1.8l-0.3,2.1l-0.2-0.2c-0.1-0.1-0.3-0.3-0.6-0.5c-0.2-0.2-0.5-0.4-0.8-0.7c-0.3-0.2-0.7-0.5-1-0.7h-1.6 l-1.1,7.4L14.7,38.6z M19.9,38.6h1.7l0.5-4.1c0.2,0.3,0.4,0.7,0.6,1.1c0.1,0.4,0.3,0.7,0.3,1c0.1,0.3,0.1,0.5,0.2,0.7l0.1,0.3h0.9 c0.2-0.5,0.5-0.9,0.8-1.4c0.2-0.4,0.5-0.7,0.7-1c0.1-0.2,0.3-0.4,0.5-0.5c0.1-0.1,0.2-0.1,0.2-0.1c0,0,0,0.2-0.1,0.7 c-0.1,0.4-0.1,0.9-0.2,1.4s-0.1,1-0.2,1.4l-0.1,0.6h2.1l1-7.3h-1.6c-0.4,0.2-0.8,0.5-1.1,0.8c-0.3,0.3-0.6,0.6-0.9,0.9 c-0.2,0.2-0.4,0.5-0.6,0.7l-0.2,0.3c-0.2-0.4-0.4-0.8-0.6-1.2c-0.2-0.3-0.4-0.6-0.6-0.8c-0.1-0.2-0.3-0.3-0.5-0.4l-0.2-0.1h-1.7 L19.9,38.6z M30.3,31.8c-0.5,0.3-0.9,0.7-1.2,1.2c-0.2,0.4-0.4,0.8-0.5,1.2l-0.1,0.5c-0.1,1,0,1.7,0.3,2.2c0.3,0.5,0.6,0.9,1.1,1.2 c0.3,0.2,0.7,0.4,1.1,0.5l0.5,0.1c1.1,0.1,2-0.1,2.7-0.4c0.6-0.3,1.1-0.7,1.5-1.2c0.3-0.4,0.5-0.8,0.7-1.3l0.2-0.6 c0.1-1.1,0-1.8-0.4-2.4c-0.4-0.5-0.8-0.9-1.4-1.1c-0.5-0.2-1-0.3-1.5-0.3h-0.7C31.6,31.2,30.9,31.4,30.3,31.8z M33.9,35.5 c-0.1,0.2-0.2,0.5-0.3,0.7c-0.2,0.3-0.4,0.5-0.6,0.7c-0.3,0.2-0.6,0.3-0.9,0.3l-0.2,0c-0.2,0-0.4-0.1-0.5-0.2 c-0.2-0.2-0.4-0.4-0.5-0.6c-0.1-0.4-0.2-0.8-0.1-1.2l0.1-0.3c0-0.3,0.1-0.5,0.2-0.8c0.1-0.3,0.3-0.6,0.5-0.8 c0.2-0.3,0.6-0.4,0.9-0.5h0.3c0.2,0,0.5,0.1,0.6,0.2c0.2,0.2,0.4,0.4,0.5,0.7c0.1,0.3,0.1,0.9,0,1.6L33.9,35.5z M36.2,38.6h2 l0.8-5.7h1.4c0.4,0.1,0.7,0.5,0.8,1.1c-0.1,0.5-0.4,0.9-0.9,1.2h-1.1l-0.3,1.9c0.2,0.3,0.5,0.6,0.9,0.7c0.4,0.2,0.8,0.3,1.2,0.5 c0.3,0.1,0.7,0.2,1,0.2l0.4,0.1l0.3-2c-0.4-0.1-0.8-0.2-1.1-0.4c0.3-0.1,0.6-0.3,0.8-0.5c0.2-0.2,0.4-0.4,0.5-0.6 c0.1-0.2,0.2-0.3,0.3-0.5l0.1-0.2c0.1-0.6,0.1-1.1,0-1.7c-0.1-0.3-0.3-0.6-0.5-0.8c-0.2-0.2-0.4-0.3-0.6-0.4 c-0.2-0.1-0.3-0.1-0.5-0.2l-0.2,0h-4.3v0L36.2,38.6z M43,38.6h5.4l0.1-1.7l-3.2,0l0.3-2h2.5l0.2-1.5h-2.5l0.1-0.6h3.1l0.1-1.7h-5.2 L43,38.6z M55.4,35.8h-1.2l-0.7,1.7l2.1,0l0,1.1h2.1c0-1-0.1-1.9-0.3-2.9c-0.2-0.9-0.3-1.7-0.5-2.3c-0.1-0.5-0.3-1-0.5-1.6l-0.2-0.6 h-1.9c-0.6,0.8-1.2,1.6-1.7,2.5c-0.5,0.9-0.9,1.7-1.2,2.4c-0.3,0.7-0.5,1.3-0.7,1.8l-0.2,0.7h2.2c0.3-0.9,0.6-1.7,0.9-2.3 c0.3-0.6,0.5-1.1,0.7-1.5c0.1-0.3,0.3-0.5,0.4-0.8l0.2-0.2L55.4,35.8z M59.2,31.2h2.1l-1,7.4h-2.1L59.2,31.2z M60.9,38.6h2.2 l0.7-5.6h1.5c0.5,0.1,0.7,0.5,0.7,1.2c0,0.4-0.3,0.7-0.9,1H64l-0.2,1.9c0.4,0.4,0.8,0.7,1.2,0.9c0.3,0.2,0.7,0.3,1,0.4 c0.2,0.1,0.5,0.1,0.7,0.2l0.3,0h3v-0.3c-0.6-0.3-1.1-0.6-1.6-0.8c-0.4-0.3-0.8-0.5-1.1-0.7c-0.3-0.2-0.5-0.3-0.7-0.4l-0.2-0.1 c0.4-0.1,0.8-0.3,1.1-0.6c0.2-0.2,0.4-0.5,0.5-0.8c0.1-0.2,0.1-0.5,0.2-0.7v-0.3c0-0.4,0-0.8-0.2-1.2c-0.2-0.3-0.4-0.6-0.7-0.8 c-0.2-0.2-0.4-0.3-0.7-0.4l-0.3-0.1h-4.4v0L60.9,38.6z" class="st0"/></svg>