<svg xmlns="http://www.w3.org/2000/svg" id="Layer_1" width="70" height="70" x="0" y="0" enable-background="new 0 0 70 70" version="1.1" viewBox="0 0 70 70" xml:space="preserve"><metadata/><g id="_x23_7e1d2eff"><path id="path6" fill="#92192A" d="M30.3,13.3c1.9-0.3,4.4,0,5.1,2.1c0.4-0.7,0.9-1.4,1.6-1.8c1.1-0.6,2.4-0.4,3.5-0.4 c-1.2,1-1.6,2.5-2,3.9c-0.6,2.6-0.8,5.3-1.2,8c-0.1,0.6-0.2,1.2-0.5,1.7c-0.3,0.4-0.7,0.5-1.1,0.7c0,2.9,0,5.9,0,8.8 c0.399,0.3,0.7,0.7,1.1,1c1-4.4,1.9-8.8,3.101-13.2c0.6-2.5,1.399-5,2.399-7.4c0.4-1,1.3-1.9,2.5-2.1c2.101-0.3,4,0.8,5.601,1.9 c-0.7,0.2-1.5,0.4-2.101,0.9C47.4,18.1,46.9,19.1,46.4,20.1c-1,2-1.9,4.1-2.801,6.2C43.2,27,42.9,27.9,42.1,28.2 c-0.8,0-1.5-0.3-2.3-0.5c-0.8,3.4-1.6,6.8-2.3,10.2c0,0.5,0.3,1.3,0.9,1.399c3.699-6.5,7.3-13.2,12.3-18.9c0.8-1,2.1-1.5,3.3-1.2 c2.1,0.5,3.6,2.2,4.8,3.8c-1.6-0.1-3.2,0.3-4.399,1.4c-2,1.7-3.601,3.7-5.601,5.3c-0.5,0.4-1.1,0.9-1.8,0.9 c-0.6-0.2-1.2-0.6-1.8-0.9c-0.3-0.2-0.5,0.3-0.601,0.4c-2.1,3.3-3.899,6.8-5.8,10.2c0.3,0.601,0.601,1.2,0.9,1.7 c4-4.5,8.1-8.9,12.8-12.5c1.5-1.1,3-2.2,4.7-3.1s3.899-0.6,5.2,0.8c1.1,1.2,1.699,2.7,2.3,4.2c-1.4-0.6-3-0.9-4.5-0.4 c-2.5,0.7-4.7,2.2-7.2,3.1c-0.6,0.2-1.2,0.4-1.8,0.1c-0.601-0.4-1-0.9-1.601-1.4C46.7,35.4,44,38.2,41.4,41.1 c-0.5,0.5-1,1-1.301,1.601c0,0.8,0.5,1.399,0.801,2.1c5.6-4.3,11.5-8.5,18.399-10.5c2-0.5,4.2-0.9,6,0.1c1.2,0.6,1.8,1.9,2.2,3.2 c0.3,1,0.5,2.101,0.6,3.101c-2.399-2-5.699-1.8-8.6-1.4c-1.6,0.101-3.3,0.8-4.9,0.101c-0.5-0.601-0.8-1.301-1.199-2 C49.1,39.6,45.1,42.5,41.3,45.5c0.3,0.8,0.601,1.6,0.9,2.3c5.8-3.1,12.1-6,18.8-6.3c2.4,0,5,0.2,6.8,2c1.601,1.8,1.3,4.4,1.101,6.5 c-0.5-0.8-1.101-1.6-2-2c-2.4-1.4-5.2-1.6-7.9-1.8c-0.8-0.101-1.8-0.2-2.5-0.7c-0.5-0.7-0.5-1.6-0.8-2.4c-4.7,1.101-9,3.2-13.2,5.5 c0.1,0.601,0.4,1.301,0.3,1.9c-0.399,0.8-1.1,1.3-1.7,2c-1.5,1.5-3.1,3-5.1,3.9c-1.3,0.5-2.4-0.5-3.5-1.101 c-1.7-1.3-3.2-2.8-4.6-4.399c-0.6-0.7-0.1-1.5,0-2.301c-4.2-2.3-8.6-4.399-13.3-5.5c-0.2,1-0.2,2.5-1.5,2.801 c-2.7,0.6-5.5,0.399-8,1.399c-1.4,0.4-2.7,1.4-3.5,2.7c-0.5-1.5-0.4-3.2,0-4.7C2.1,43.5,3.7,42.4,5.5,41.9c3-0.7,6.1-0.4,9.1,0.3 c4.8,1.1,9.3,3.3,13.7,5.5c0.3-0.8,0.6-1.5,0.9-2.3c-3.8-3-7.8-5.9-12.2-8.101c-0.4,0.7-0.7,1.4-1.2,2c-0.9,0.5-2,0.3-3,0.2 c-2.4-0.3-4.8-0.8-7.2-0.4c-1.2,0.2-2.3,0.801-3.3,1.5c0.2-1.5,0.5-2.899,1-4.3c0.6-1.4,2-2.4,3.5-2.6c1.8-0.3,3.6,0.3,5.3,0.8 c6.4,2.1,12,6.1,17.3,10.2c0.3-0.601,0.7-1.3,0.9-2c0-0.3-0.3-0.5-0.4-0.7c-2.9-3.2-5.9-6.4-9.1-9.3c-0.8,0.6-1.5,1.9-2.8,1.5 c-2.9-0.8-5.4-2.7-8.3-3.4c-1.3-0.3-2.7,0-4,0.5c0.5-1.4,1.1-2.7,2-3.9c1.2-1.6,3.4-2.2,5.2-1.3c1.2,0.5,2.3,1.3,3.4,2 c5.4,3.9,10,8.8,14.5,13.7c0.3-0.6,0.6-1.1,0.9-1.7c-2-3.6-3.9-7.3-6.2-10.8c-0.9,0.4-1.9,1.5-2.9,0.8c-1.5-0.9-2.6-2.3-3.8-3.4 c-1.4-1.3-2.7-3-4.7-3.6c-0.8-0.3-1.6-0.3-2.4-0.2c1.4-1.8,3.1-3.9,5.6-3.9c1.5-0.1,2.5,1.2,3.4,2.3c4.6,5.5,8,11.8,11.5,18.101 C32.5,39,32.9,38.6,33,38c-0.6-3.5-1.5-6.9-2.3-10.4c-0.7,0.1-1.5,0.4-2.2,0.5c-0.7-0.2-1-1-1.4-1.5c-1.2-2.5-2.3-5-3.5-7.4 c-0.7-1.3-1.9-2.5-3.5-2.6c1.5-1.1,3.3-2,5.2-1.9c1.3,0,2.4,0.9,2.8,2c1,2.4,1.8,4.8,2.4,7.3c1.2,4.4,2.2,8.8,3.2,13.3 c0.4-0.3,0.8-0.6,1.1-1c0.1-2.9,0-5.8,0-8.8c-0.4-0.3-1-0.4-1.2-1c-0.2-0.5-0.3-1-0.4-1.5c-0.4-2.6-0.5-5.3-1.1-7.9 C31.9,15.8,31.4,14.3,30.3,13.3z"/></g><rect width="70" height="70" fill="none"/></svg>