<svg xmlns="http://www.w3.org/2000/svg" id="Layer_1" width="70" height="70" x="0" y="0" enable-background="new 0 0 70 70" version="1.1" viewBox="0 0 70 70" xml:space="preserve"><metadata/><rect width="70" height="70" fill="none"/><path id="path3160" fill="#00745D" d="M33,4.4l-2.9,0.1l0.1,0.2l-0.1,0.1L28.5,5h0.8L30,5.1l-1.6,0.4L26.9,6l-0.5,0.1h-0.6 c-0.2,0.2-1,0.4-1,0.4l-1.1,0.4L26,6.8L26.1,7l1.2-0.3l1.3-0.1l0.3-0.2l0.2,0.4L29,7.1l-1,0.4l-1.1,0.1l-1,0.1L25.6,8h-0.5L25,8.3 l0,0l0.3-0.1L25.6,8l0.2,0.2L26,8.4l0.2-0.2h0.3L28,8l1.4,0.1L29,8.6l-1.6,0.2L25.9,9l-1.3,0.2L23.1,9l-1.4,0.4h0.6l0.5,0.2L22.1,10 l-0.8,0.4l-0.8,0.7l2.1-0.7l2-0.6l0.1,0.2l-0.1,0.4l-0.3,0.1L24,10.6h0.6h0.6c0.7,0,0.7-0.2,0.7-0.2L25.4,10l1.3-0.4 c0.8,0.1,0.8,0.9,0.8,0.9l-0.1,0.2l-0.3-0.1L27,10.4v-0.2l-0.3,0.1h-0.4l0.3,0.3l0.2,0.3l-0.3,0.4l-1.9,0.1H23l-0.8-0.1l-0.7,0.2 l0.7,0.2L22,12l-0.3,0.2l0.3,0.1c0.2-0.3,0.7-0.3,0.7-0.3l5.3-0.5l0.6-0.1l0.4,0.3l-0.6,0.4h-1l-0.5,0.4h-1.1l-1-0.1l-0.1,0.2H23 l0.1,0.2l-0.3,0.1l-0.4-0.1l-1.3-0.4h-0.7c0.4,0.2,0.6,0.2,0.6,0.2c0.2,0.2-0.1,0.6-0.1,0.6L18.5,13l0.4,0.2l0.3,0.1 c0,0.2-0.2,0.2-0.2,0.2L18.5,14h-0.9l-1.1,0.2l1,0.1h1c0.4,0,0.7-0.2,0.7-0.2l3,0.2l-0.1,0.3h-0.8l-0.2,0.2v0.1l1-0.1l1,0.3 l-0.2,0.2h-0.3H22l-0.7-0.1l-0.1,0.1l-0.1,0.1l0.6,0.2h0.5l0.1,0.1l-0.1,0.2V16l0.6,0.1l0.7,0.2l0.1,0.1l-0.1,0.1h-0.4l0.4,0.1 l0.4,0.2c0,0.3-0.2,0.3-0.2,0.3L21.9,17c-1-0.1-1.7-0.6-1.7-0.6v-0.1l0.1-0.1l0.8,0.1l0.9,0.2l-1.1-0.4l-1.2-0.5l0.7-0.2l-0.9-0.2 l-1,0.2l-0.4-0.2l-0.4-0.1v0.3l-1.3,0.3l-1.3,0.4l1.1-0.1l1,0.1L17,16.5l-0.2,0.3l0.7-0.1l0.8,0.1l-2.1,0.4l-2.1,0.5l2.5-0.2 l0.2,0.2l0.1,0.2l1.5-0.2l1.4,0.4l0.3,0.4l-0.9,0.1l-0.8-0.2l-2.2,0.2l-2.1,0.7l1.3-0.4L17,19l0.2,0.2l0.2,0.1l1.1,0.1l1.1,0.1 l2.8,0.1l-0.7,0.2H21v0.1l0.2,0.1L19,20.3h-2.2L15,20.4l1.5-0.1l1.4,0.1l1,0.3h1.2l0.1,0.2l0.4,0.2l0.1,0.5l-1.6-0.1l-1.6-0.3 l-0.1,0.1v0.1l0.7,0.1l0.5,0.1l-0.5,0.8H17l-1,0.1h0.8l0.4,0.4L17.1,23l-0.3,0.2l-1-0.1l-1,0.2h0.5h0.4l0.2,0.2l-0.2,0.2l-1,0.2 h-1.3h-1.3L11.9,24l-0.1,0.1l0.8-0.1l0.7,0.1c-0.3,0.3-1,0.3-1,0.3H11l-0.5,0.3l-0.4,0.4l1.3-0.4h1.3L12.4,25l-0.1,0.2h0.4l0.4,0.1 l-1,0.5l-0.9,0.3h0.5h0.2c-0.2,0.4-0.8,0.7-0.8,0.7l-1,0.7l1.3-0.4l1-0.3l1.1-0.1l0.2,0.3l-0.2,0.3l-2.8,0.4l-1.3,0.9l1-0.6l1-0.1 c0.7,0,0.7,0.2,0.7,0.2l-0.4,0.6l1,0.1l1,0.1l-1,0.4c-0.7,0.2-0.9,0.5-0.9,0.5l0.3,0.2l0.5-0.1l0.4-0.1l2.2-0.4c1.3-0.2,2.2,0,2.2,0 l-1.3,0.4L13,30l-3,0.4c0.4,0,1,0.5,1,0.5L10,31l-1,0.2l-0.8,0.2l-0.7,0.5l1-0.4c0.5-0.1,0.8,0.3,0.8,0.3L8.9,32 c-0.4,0.1-0.3,0.4-0.3,0.4H9l0.5,0.1l-0.1,0.1l-0.1,0.2l1.3-0.1l1.2,0.2l-1,0.2H9.6v0.2l0.2,0.1l0.1,0.1l-0.6,0.2l-0.7,0.2l1.3,0.2 l0.5,0.1l0.4,0.1c0.1,0.4-0.4,0.4-0.4,0.4l-0.8,0.1l-3.7,0.1v0.2c0.9-0.2,1.3,0,1.3,0c-0.5,0.4-1.6,0.6-1.6,0.6L4.1,36L6,36.3 c-0.3,0.4-1,0.4-1,0.4l-1.2,0.1h2.3L8.6,37l-0.1,0.2l-0.2,0.1H7.5L6.9,37.4l-1,0.199l-0.4,0.2l0.9-0.1l1-0.101L7.9,37.7L8.1,38 l-0.3,0.1l-0.4,0.5h0.5c0.3,0,0.4,0.2,0.4,0.2l-2.6,0.4c-1.1-0.3-3.1,0-3.1,0L3,39.3c0.3,0.101,0.4,0.3,0.4,0.3L2,40.3l0.8-0.2 L3,40.2h0.3L3.4,40h0.7l0.5,0.1L4.2,40.2l-0.3,0.3l1.3-0.1C6,40.2,6.5,40.6,6.5,40.6l-2,0.801C2,42,1.1,42.7,1.1,42.7l1.1-0.2 l4.5-0.3h0.6l0.2,0.3c-0.2,1-1.8,1-1.8,1v0.1L5.8,43.7L6.5,43.6L7,43.5C7.6,43.3,8,43,8,43l1-0.1L9.1,43.3C8.6,43.7,8,43.9,8,43.9 l-1.3,0.3l1-0.101l1-0.1l1-0.1l1-0.2L10.4,43.6L10.2,43.4l0.6-0.7c0.4-0.5,0.7-0.2,0.7-0.2l-0.1,0.4L11.3,43c0.4,0.5,1.2,0,1.2,0 l1.3-0.3v-0.2h-0.4l-0.5-0.1l1.3-0.5l1.3-0.5h-0.2L15,41.2l0.2-0.4h0.4l2.1-0.5l2.1,0.2l-2.2,0.3l0.7,0.101 c0.4-0.101,0.5,0.199,0.5,0.199v0.2l-0.3,0.2l-0.4,0.1l0.4,0.2c0.3,0,0.3,0.101,0.3,0.101l-0.1,0.3l-0.2,0.1L17.7,42.4L16.8,42.3 L15.7,42.4l-1.2,0.3V43l0.1,0.1l-0.9,0.2C13.2,43.4,13,43.7,13,43.7h0.7h1.1l-0.1,0.2l0.1,0.1l-0.4,0.3L14,44.6l-1-0.1l-1,0.3h0.8 l0.8,0.101L13,45.1L12.5,45.2l0.1,0.2h1.1l1.3,0.1c-1,0.6-1.8,0.9-1.8,0.9L13,46.3l-0.6-0.1l-0.6-0.3L11,46l-0.8,0.2l0.4,0.1 L10.3,46.4H9.8L8.6,46.1l-1.2-0.3L5,45.7l-0.2,0.1L4.6,45.9L5.9,46h1.2l-1.6,0.7c-1,0.3-1.4,0.8-1.4,0.8c2.1-0.8,4.3-0.8,4.3-0.8 L9.3,46.6l0.8,0.301l-1.6,0.6l-1.7,0.6l-0.3,0.5C4.7,49.2,3.6,50,3.6,50l0.8-0.1l0.8-0.2l1.1-0.4L7.4,49.4L6.7,50L6,50.6L5.8,50.9 L6.1,50.6L6.4,50.4l1.4-0.5h0.3h0.4l1-0.5L9.6,49.6L9.4,49.9L9.1,50.1L9.5,50l0.5-0.1l0.7-0.4l0.7-0.5l2.9-0.6l0.5-0.2l0.5-0.2 l3.4-0.6l0.8-0.101l0.8,0.101l-4.2,0.8L16,48.6L15.5,49l-2.1,0.3L11.5,49.9h1l1,0.1l-0.1,0.4L12,50.6h0.1l0.8,0.2L12.5,51.4 l0.3,0.199L13,51.4l0.2-0.301l1.3-0.199c0.2,0,0.2,0.5,0.2,0.5l1-0.7l0.9-0.3l3.5-0.4h-1l-0.9-0.1l1.6-0.601l1.8-0.399H22l0.1,0.1 c0,0.2-0.5,0.3-0.5,0.3l-0.7,0.3l0.7,0.101h0.7l0.1-0.101l0.1-0.1l1.9-0.2c1,0,1.6,0.4,1.6,0.4l-1.5,0.1L23,49.7L20.7,50.6h-0.3 L20,50.8h-0.8l-2.9,0.4v0.1l0.1,0.101L14.7,52L13,52.5l-1.1,0.4l-1.2,0.6h0.7l0.8-0.5l0.4,0.2L12.3,54l0.1,0.3l0.2,0.2l0.4-0.6 l0.7,0.1l0.1,0.3l-0.1,0.2c0.8-1.1,1.8-1.1,1.8-1.1c0.1,0,0.1,0.199,0.1,0.199L15.5,53.9c0.5,0,1.4-0.7,1.4-0.7l0.4,0.1l0.5-0.1 c1.5-0.7,2.4-0.8,2.4-0.8l0.1,0.199l1-0.199l0.2-0.101l0.1-0.1l0.1,0.1l-0.1,0.3l1.6-0.1l1.6-0.2L24.4,52l-0.6-0.2l0.1-0.2 l1.7,0.101l1.6-0.101L26.3,51.4l-1,0.1l-0.2-0.2l0.5-0.3l2.1-0.4l1.9-0.1l0.2,0.3v0.3L28.7,54.2c-0.8,1.7-2.2,2.8-2.2,2.8 c-2.2,1.5-4.3,1.7-4.3,1.7H5.3v1.2h59.5l-4.5-1.2H49.8L45.1,58l-2-0.6l-1.899-1l-0.5-0.2L40.3,56l-1-1l-0.5-1.2 c-0.2-1.7,1-3.2,1-3.2l0.7-0.699l0.6-0.2l0.5-0.101l0.301-0.3C42.1,48.9,42.3,49,42.3,49l0.2,0.5l-0.4,0.4V50.3h0.7l-0.3,0.4 l-0.2,0.2l0.2,0.1l0.2,0.2L42,51.4L41.3,51.6v0.2L42.9,51.4l1.699,0.1L44,51.8l0.8,0.101l0.8-0.101l1,0.2h0.9l-0.2-0.2L47,51.6 l1.3,0.101l1.3,0.399C49.1,51.4,48.3,51.4,48.3,51.4L47.4,50.7V50.6l0.1-0.199l0.9,0.199l0.8,0.101h0.5l0.6-0.101v-0.1l-0.7-0.2 C49,50.2,48.8,49.9,48.8,49.9l0.7-0.2l0.6-0.2l1.2-0.2h0.8l0.801,0.2l0.399,0.2l0.7,0.2h0.6l-0.3-0.4l-1-0.4L53.4,48.9l0.8,0.3 l0.7,0.1C54.7,49,53.8,49,53.8,49L52.4,48.6L51.5,48.2L50.7,47.6L50.5,47.7L50.3,47.6l-0.1-0.1L50,47.4h-0.8L48.8,47 c0-0.3,0.4-0.4,0.4-0.4h0.6l1.7,0.101l1.6,0.5l0.2,0.3l-0.2,0.1H53l1.7,0.101L57.1,48.1l0.7,0.2l0.7-0.1L57.9,48L57.6,47.6l0.2-0.1 h0.4L58.1,47.4C58.2,47.3,58.3,47.3,58.3,47.3l0.3,0.101L56.4,46.3C56.6,45.9,57.2,45.9,57.2,45.9l1,0.1L58.1,45.7l0.4-0.101 L59,45.7l-0.2-0.2l-0.3-0.1l-2.3-0.5l0.3-0.101l0.2-0.3L56.1,44h-0.8l1.4-0.3H57.6h0.9C58,43.3,57,43.3,57,43.3L55.3,43l0.4-0.3 l0.2-0.4l1,0.101l1-0.101L55.4,41.4L55.3,41.3l-1,0.101L53.6,41.6L51.4,41.4h0.1l1.3-0.301H53.4l0.1-0.199l0.1-0.101h0.7H55l1.9,0.7 l0.699,0.2L58,42.1l1,0.101l0.7,0.399h0.1l0.101-0.1L59.8,41.8l0.3-0.399l0.2-0.101L60,40.7c1.5-0.5,2.2,0.5,2.2,0.5h0.3l0.4-0.5 l0.699,0.2l0.7,0.199l3-0.199L65.1,40.3L64.4,40.1l1.3-0.1l0.2-0.2l0.1-0.2l1.5,0.5l1.4,0.601c-0.2-0.5-1.101-0.9-1.101-0.9L67,39 l0.4-0.1H68.1L65,38.5l-3.1-0.3l-0.4-0.3c0.9-0.5,1.6-0.5,1.6-0.5L62.7,37.3l-0.8-0.1L61,37.6l-2.8-0.1l-2.8-0.1H54.1H52.7 L51.5,37.6L50.3,37.4L48.2,37.6L46.7,37.4L46.6,37.2l0.2-0.101H48.9h2l-1-0.3l-1-0.1L48.6,36.3l0.7-0.1H50l0.1,0.2H52.2L52,36.3 l2.2-0.2l2.1-0.1l-1.6-0.2L53.1,35.7l1-0.101l-0.3-0.2L53.4,35.3l1.5-0.2h1.5L56.3,34.7l0.101-0.4l0.399,0.4l0.9-0.1 c0.5,0,0.8,0.5,0.8,0.5l-1,0.2l0.6,0.1h0.7l0.101,0.2h1l1-0.2l0.199,0.2l0.301-0.1l-1-0.3l-0.9-0.3l-1.7-1.3l0.4-0.2l0.399,0.2 l0.9,0.4l0.1-0.2l0.101-0.2l1.399,0.1l1,0.3l1.101,0.1l0.2-0.2l-0.9-0.1l-1-0.2L60.8,33c0.7-0.4,1.2,0.2,1.2,0.2l0.1-0.4l0.4,0.1 l0.3,0.1l-0.6-0.4l-0.7-0.2l-1.2-0.2L59,32c0-0.2,0.2-0.2,0.2-0.2v-0.1L59.1,31.6c-1.6,0-2.199-0.5-2.199-0.5c0.8-0.4,2,0,2,0 l0.899,0.5H60l0.2-0.2L60,30.9c0.1-0.2,0.5,0,0.5,0H61l-0.1-0.4c0.3-0.2,0.899,0,0.899,0h0.8l0.801-0.1l0.699,0.1 c-0.5-0.4-1.399-0.7-1.399-0.7L61.6,29.5l-1-0.4C60.6,29,61,29,61,29l-0.5-0.4l-0.7-0.2H61.4l1.3,0.4l0.399,0.4 c-0.399-0.9-1.3-1.3-1.3-1.3l-0.1-0.2H62h0.4l0.3,0.2l0.1-0.2l-0.2-0.1l0.7-0.1l0.601,0.1L64.3,28l0.101-0.4L62.6,26.9l-1.8-0.5 L57.9,26.3l-3-0.1l-3-0.2l1.8-0.2l1.6-0.1l-0.2-0.1l-0.3-0.2l1.3-0.1c0.801,0.2,1.101,0,1.101,0L55.7,25l-1.5-0.3 c0.1-0.3,0.6-0.3,0.6-0.3c-0.3-0.4-0.1-0.6-0.1-0.6h0.5h0.5L54.1,23.5l-1.3-0.9l2.2-0.4l2.2-0.2c1.2-0.4,2.3,0,2.3,0l0.5,0.5 l0.1-0.4l-0.3-0.2L59,21.5l-1-0.3L56.7,21l-1.9-0.2h-2.1h-0.4l-0.5,0.1l0.4,0.1l0.1,0.1c-0.1,0.4-0.7,0.3-0.7,0.3l-1-0.1l-1.8,0.1 L47,21l1.4-0.2l1.399,0.1v-0.2v-0.2l0.8,0.1l0.7,0.1l-0.1-0.2V20l0.2-0.1l0.3-0.1v-0.2l1.3-0.2l1.3,0.5l-0.8-0.4L52.9,19v-0.3 l0.199-0.1l2.5,0.4L54,18.2l-1.8-0.1L49.6,18.3L46.9,18.1L39.2,17l-0.3-0.4l0.3-0.2c0.3,0,0.3-0.1,0.3-0.1l-0.1-0.2 c0.399-0.4,0.699,0,0.699,0l0.101,0.2L40,16.4h-0.1l0.1,0.3l0.4-0.1l2.399-0.1l1.5,0.1l1.4,0.4c-0.4-0.1-0.3-0.4-0.3-0.4l0.699-0.2 l0.7,0.1l2.7,0.7l0.4,0.1l0.3,0.1l0.1-0.1L50.2,17l-1.9-0.6c-1.2-0.3-1.7-0.8-1.7-0.8l-0.1-0.1l0.2-0.1h0.1L45.5,15l-2-0.2l0.1-0.5 v-0.4c0.101-0.2,0.4-0.2,0.4-0.2l0.7,0.1C44.8,14,45,14,45,14l2,0.7l0.1-0.1L46.9,14.4l0.199-0.2l0.4,0.4h1.2L49.1,15l0.5,0.3 l-0.3-0.4L49,14.5v-0.1l0.1-0.1H49.7L49,14.1c-0.4-0.1-0.9-0.4-0.9-0.4L47.4,13.3l0.3-0.2H48l-1.2-0.3l-1.1-0.3l1.899-0.3L46.4,12 l-1,0.1c-0.601,0.1-0.9-0.4-0.9-0.4l0.2-0.2l0.1-0.2l-0.7-0.1L43.4,11.1l0.1-0.1l-0.8-0.3L41.6,11l0.101,0.2l-0.2,0.1l-1.1,0.2 L39.3,11.6L37,12.1c-0.3,0-0.7-0.4-0.7-0.4l-0.7-0.4l0.301-0.1H36.3l1.3,0.1l1.301-0.1l0.5,0.1l0.399-0.4L39.5,11l-0.2-0.2l1.2-0.1 l1.1-0.2L41,10.3L40.5,10l0.6-0.2l0.5,0.4l0.301-0.1L42.1,10c1,0.9,1.9,0.6,1.9,0.6l-1-0.4l-0.7-0.6l2.5,0.4l-1.6-0.8l-7.3-0.3 l-0.5,0.2L34.9,9c-0.1-0.3,0.4-0.4,0.4-0.4L36,8.4l-0.7-0.1l-0.5-0.2L36.4,8l1.8,0.4l-0.4-0.3L37.5,8c0-0.3,0.2-0.3,0.2-0.3l0.8,0.2 L39.3,8l1-0.1l1,0.1l-0.7-0.4L40,7.4l-1.5-0.3L37,6.7V6.6l-0.2-0.1l1.3-0.2L39.2,6.5c-0.101,0-0.3-0.2-0.3-0.2L39.3,6.2l0.5-0.1 l-3-0.4l-3.1-0.4l-0.1-0.1V4.9L35,4.6l1.3-0.1L33,4.4z M39.2,6.4C39.2,6.5,39.3,6.5,39.2,6.4L39.2,6.4z M46.7,15.5l0.399,0.1 L46.9,15.5H46.7z M20.4,12.7L20,12.6l-0.4,0.1H20.4z M37,13.3l0.2,0.1l-0.3,0.4l-0.4-0.1l0.1-0.3h0.2L37,13.3z M37.9,13.4l0.1,0.3 c0,0-0.7,0.8-1.3,0.4l0.399-0.3l0.4-0.2h0.2L37.9,13.4z M40.4,13.9l0.3,0.1c0,0,0.1,0.1,0.399,0.1l0.301,0.1L40.8,14.4l-0.6-0.1 l0.2-0.2V13.9z M32.9,14.1l2.7,0.2l-0.3,0.3h-0.4l-0.8,0.1l-0.9-0.4L33,14.7l-2.2-0.2L32.9,14.1z M39.2,14.1h0.3v0.4h-0.3L39,14.3 L39.2,14.1z M40.4,14.6l0.1,0.1l-0.1,0.1L39.6,15.2L38.7,15.1c0,0,0.2-0.3,0.6-0.3l0.7,0.1L40.4,14.6z M27,14.7l0.4,0.1l0.4-0.1 l1,0.1L28.4,15l-0.3,0.2c0,0-0.2,0.2-0.7,0c0,0-0.1,0-0.7-0.3L27,14.7z M26.1,15h0.4l0.1,0.2c0,0-0.2,0.2-0.4,0.2c0,0-0.2,0-0.2-0.2 L26.1,15z M29.3,15.7l0.1,0.2c0,0-0.4,0.4-0.5,0L29.3,15.7z M35.8,15.8l1.3,0.1c0,0-0.699,0.4-1.899,0.4h-0.8l0.2,0.2 c0,0,0.4-0.3,1,0.3l-1,0.2l-1-0.2h-0.8l-0.9-0.3c0,0,0.7-0.6,2.5-0.6L35.8,15.8z M34.4,16.3h-1.1l0.1,0.2h0.9L34.4,16.3z M25.6,17.4 l1.3,0.2l-0.5,0.1L26,17.8l0.7-0.1l0.8,0.4L25,18.2l-0.4-0.1l-0.4,0.1l-0.5-0.6l1-0.1L25.6,17.4z M32.1,18.4l0.1,0.1l-0.1,0.1 l-0.2-0.1L32.1,18.4z M40.7,18.5l0.6,0.1l1.601-0.1l1.6,0.5v0.2l-0.1,0.1L43.5,19l-0.9,0.2l-1.1,0.1l-1.1-0.1c0,0-0.2,0-0.2-0.4 L40.7,18.5z M28.3,19.6l0.5,0.4l-0.1,0.2h-0.3l-3.5,0.3l1.2,0.3l-0.4,0.4h-0.6l-0.8,0.1L23.6,21l0.4-0.1l0.5-0.1h-0.6l-0.5-0.2 l0.7-0.1l-0.9-0.1L24,20h0.7c0,0,1.3-0.4,2.8,0l0.1-0.2L28.3,19.6z M34.9,20.2l0.6,0.2l0.4,0.1l0.199,0.3V21H35.9c0,0-0.5,0.2-0.9,0 l-0.2-0.3L34.9,20.2z M29.8,20.2h0.1c0.3,0,0.6,0.1,0.9,0.2l-0.4,0.4L29.8,21l-0.4,0.2l-0.1-0.1L28.9,21h-1l-1-0.3l0.9-0.2l1-0.1 C28.7,20.4,29.2,20.2,29.8,20.2z M34.3,20.6h0.1l-0.1,0.2V20.6z M44.7,21.9l1.2,0.5l-0.2,0.2l-0.8-0.1L44,22.3l0.3-0.3L44.7,21.9z M38.8,22.4l0.4,0.1l0.8,0.2l-1.2,0.5L38.7,23l0.2-0.2L38.6,22.9l-0.1-0.1L38.8,22.4z M26.8,22.7l0.1,0.3v0.3l0.4,0.1l0.3,0.2v0.2 L27.3,24h-0.8L26,23.9c0,0-0.2-0.2,0-0.2l0.4-0.1L25,23.3l-1.5-0.1l1.6-0.3L26.8,22.7z M41.3,22.7c0,0,0.5,0,0.4,0.2 c0,0-0.2,0.9-1.601,0.2L41.3,22.7z M32.8,23.1l0.4,0.1l0.2,0.2l-0.2,0.1L33,23.4l0.2,0.3L33,24.1l-0.6-0.2c0,0-0.4-0.1-0.3-0.4 C32.1,23.5,32.1,23.1,32.8,23.1z M34.3,23.3h0.3l0.1,0.2l-0.3,0.3l-0.6-0.1L34.3,23.3z M46.3,23.9l1.9,0.1l1.8,0.1 c0,0-0.1,0.3-0.6,0.3l-0.7-0.1c0,0-0.601,0.4-0.8,0.3L47,24.3l-0.9-0.2V24L46.3,23.9z M21.3,23.9v0.3l-1.9,0.1l0.9-0.2L21.3,23.9z M31.6,24.2l1.1,0.4v0.2V25l-0.9-0.3L31.6,25l-0.4-0.7L31.6,24.2z M51.7,24.3l0.5,0.1L52,24.6h-0.3l1.3,0.1h1.3L53.1,25L51.9,25.2 L51.2,25l-0.5-0.4l0.3-0.1h0.4l-0.2-0.1L51.7,24.3z M48.4,24.6c0,0,0.6,0.1,0.699,0.4L48.9,25.2l-0.4,0.1c0,0-1.7,0.5-2.6,0l1.8-0.3 L47.6,24.9L48.4,24.6z M34.8,24.9l0.4,0.1l0.2,0.2l-0.1,0.1l-0.8-0.2L34.8,24.9z M27.2,25.2l0.7,0.2l0.4,0.6l-0.1,0.1h-0.1l-0.6-0.3 l-0.4-0.4L27.2,25.2z M50,25.3l0.5,0.2l-0.1,0.3h-1l-1-0.1L50,25.3z M34.9,25.4l0.7,0.1l0.2,0.1c0,0-0.3,0.4-0.8,0.4h-0.7 c0,0-0.2,0-0.2-0.2C34.2,25.7,34.4,25.4,34.9,25.4z M33.3,25.5l0.2,0.3L33.4,26h-0.3L33,25.9v-0.2L33.3,25.5z M29.8,25.8l0.4,0.1 l0.4,0.2c0,0-0.1,0.4-0.7,0.4h-0.8L29,26.3l-0.2-0.4L29.8,25.8z M46.4,25.9v0.2L46.1,26L46.4,25.9z M31.5,26l0.1,0.1l0.2,0.1 l-0.2,0.2c0,0-0.1,0-0.3-0.2L31.5,26z M49.4,26h0.3l0.3,0.1c0,0-1,0.6-2.3,0L49.4,26z M38.8,26.3l0.7,0.1l0.1,0.2L39.4,26.7H38.6 L38.4,26.5C38.2,26.6,38.4,26.3,38.8,26.3z M34.3,26.6h0.3l0.3,0.2l0.3,0.1l0.1,0.2l-0.5,0.1l-0.5,0.1l0.4-0.1l0.3,0.2l-0.1,0.2 h-0.5l-0.2-0.2l0.2-0.2l-0.2-0.4C34.1,26.9,34.1,26.7,34.3,26.6z M24.5,26.9c0.2,0,0.5,0.1,0.9,0.3l-0.5,0.6l-0.6-0.2L24,27.2 C23.9,27.2,24.1,26.9,24.5,26.9z M33,27.2l0.2,0.1l-0.1,0.2l-0.4-0.2L33,27.2z M20.6,27.2c0.2,0,0.4,0,0.6,0.1L21,27.5h1l0.8,0.1 l-0.2,0.1l-0.1,0.1c0,0-0.3,0.6-1.1,0.6L20,28.1l-1-0.3C18.9,27.8,19.8,27.2,20.6,27.2z M43.5,27.7l0.5,0.1l-1,0.5 c0,0-0.7,0.1-0.7-0.5l0.5-0.1H43.5z M35,27.8h0.2V28l0.3-0.2c0,0,0.4,0.2,0.1,0.6l-0.1,0.1l-0.4-0.3L35,27.8z M30.3,28.1l0.4,0.1 l0.2,0.2l-0.1,0.1l-0.4-0.1l-0.2-0.1L30.3,28.1z M19.4,28.4h0.7l0.4,0.4c0,0-0.2,0.2-0.4,0.1h-0.5v0.4c0,0-0.4,0.3-1.1,0l-1-0.7 l0.2-0.2h0.4h0.4H19.4z M47.4,28.4l0.399,0.1l0.2,0.2c0,0-0.2,0.5-0.9,0.2L46,28.4H47.4z M55.9,28.6l0.1,0.2l0.2,0.1l0.7-0.1 l0.699,0.3l0.101,0.2L57.6,29.5H56L55.7,29L55.9,28.6z M49.4,28.8c0,0,0.8,0,0.5,0.4h-0.4L49,29C49,29,49,28.8,49.4,28.8z M34,29 h0.2l0.2,0.2l-0.1,0.1l-0.2,0.1l-0.3-0.2L34,29z M31.8,29.2L31.8,29.2l0.2,0.1v0.6l-0.4-0.2C31.6,29.7,31.5,29.3,31.8,29.2z M35.2,29.2l0.2,0.1v0.2l0.1,0.3L35,30.2L34.9,30l0.1-0.4l0.2-0.1l-0.4-0.2L35.2,29.2z M23.7,29.3c0.3,0,0.5,0,0.8,0.1l-0.8,0.3 l-0.9-0.3c0,0,0.3-0.1,0.8-0.1H23.7z M28.7,29.7H29h0.3l0.4,0.3l0.4,0.2v0.2L30,30.5h-1.3l-1.3-0.2l0.7-0.4L28.7,29.7z M40.7,29.7 l0.2,0.1L41.1,30L41,30.3c0,0-0.7,0.3-0.9,0l0.2-0.4L40.7,29.7z M34.5,29.8l0.2,0.2l-0.1,0.2h-0.4L34,30C34,30,34,29.8,34.5,29.8z M25,30l0.6,0.2l-0.8,0.4h-0.3h-0.2l0.1-0.2C24.4,30.4,24.6,30.1,25,30z M45,30.1l0.5,0.2l0.5,0.1l-1.9,0.2l0.5-0.1L45,30.1z M34.1,30.4h0.4l0.1,0.2l-0.1,0.2H35l0.4,0.1l0.1,0.1h-0.6l-0.7,0.2L34,31.1L33.8,31l0.1-0.2l-0.1-0.2L34.1,30.4z M28.3,31.4 l0.2,0.1l0.2,0.1l-0.2,0.2h-0.2l-0.1-0.2L28.3,31.4L28.3,31.4z M38.9,31.4l0.5,0.2L38.3,31.9v-0.3L38.9,31.4z M46.6,31.5h0.2 l0.7,0.1l0.7,0.2L48.1,32H47.4c0,0-0.5,0-0.801-0.3l-0.1-0.1L46.6,31.5z M17.5,31.7h0.2l0.2,0.2l-0.2,0.4h-0.4l-0.4-0.1L17.5,31.7z M26.7,31.7H27l0.6,1l-0.1,0.2l-0.4-0.2v-0.2l-0.2-0.1l-0.3-0.2L26.7,31.7z M40,32.1c0,0,0.2,0,0.2,0.1L40,32.3h-0.1L39.8,32.1H40z M29.1,32.2c0.1,0,0.3,0,0.4,0.1L29,32.5l-0.4-0.1C28.6,32.3,28.8,32.2,29.1,32.2C29,32.2,29,32.2,29.1,32.2z M35.2,32.2l0.399,0.1 v0.4L35.3,33L35,32.8l-0.1-0.4L35.2,32.2z M22.3,32.5h0.4h0.8c0,0,0.4,0,0.7,0.3l-2.4,0.1L22.3,32.5z M50.9,33l0.5,0.1 c0,0,1.1-0.2,1.3,0.4L52.6,33.7L51,33.8l-1.7-0.4l0.601-0.1l0.6-0.2L50.9,33z M26.3,33.4c0.4,0,1,0.1,1.2,0.7l-0.1,0.4L27,34.4 l-1.6-0.1l-1.6,0.3l1.9,0.2l0.1,0.2L22,35.5h-0.8l-0.9-0.2L16,35.1l0.9-0.3l6.2-0.4l-0.9-0.1h-0.9l-0.1-0.2l0.1-0.2l2.3-0.3l2.5-0.2 C26,33.4,26.1,33.4,26.3,33.4z M33.7,33.5H34l0.4,0.1l0.2-0.1l0.3,0.4l-0.7,0.2l-0.7-0.4v-0.1L33.7,33.5z M49.4,33.9l0.1,0.1l1,0.1 l0.9,0.3L51.1,34.6L50.9,35l-1-0.2c0,0-0.7-0.1-0.9-0.4c0,0,0-0.1,0.4-0.1L49.1,34.1L49.4,33.9z M42.7,34c0,0,0.5,0.1,0.8,0.4 l-0.7,0.1c0,0-0.399,0-0.7,0.4l0.101,0.4l1-0.1l0.8,0.3l0.9,0.1l0.3-0.3l0.399-0.1L45.9,35.6L45.7,36h-0.5c0,0,0,0.4,0.6,0.4 c0,0,0.7,0,0.9,0.399L46.6,37L46.4,37.1c0,0,0-0.1-0.2-0.1L46,37.3L45.1,37h-1.3l-1.2-0.4l0.7-0.399h1c0,0-0.5-0.3-2,0L40.4,36 l0.199-0.2l0.4-0.1L40.7,35.6L40.3,35.7L40.1,35.6l1.7-1.3L42.7,34z M47.6,34.4l0.2,0.1l-0.1,0.1l0.7,0.1l0.699,0.4l0.101,0.2 L49,35.4l-1.3,0.1c0,0-0.7,0-0.9-0.4c0,0-0.1-0.2,0.101-0.5L47.6,34.4z M34.1,34.5C34.1,34.5,34.2,34.5,34.1,34.5l0.2,0.1v0.2 L34.1,35L34,34.9l-0.1-0.1l0.1-0.2C34,34.6,34,34.5,34.1,34.5z M27.6,35.1c0,0-0.6,0.5-1,0.5l-0.9,0.2h-1l0.7-0.4l0.7-0.2L27.6,35.1 z M18.2,35.4c0.7,0,1.5,0.1,2.2,0.3V36H20h-0.4l-0.5,0.2c0,0-0.1,0.6-0.7,0.7l-1,0.3c0,0-0.1,0.1-0.3-0.101L16.9,36.7l0.5-0.2 l0.7-0.1c0,0,0.2,0,0.1-0.4h-1.1H16l-0.2-0.4C15.5,35.7,16.8,35.4,18.2,35.4z M9.6,35.5c0,0,0.1,0,0.2,0.1L8.7,36.4 c0,0-0.7,0.199-0.9-0.301C7.8,36.1,7.5,35.5,9.6,35.5z M50.8,35.5l1,0.2l-1.6,0.5L48.7,36h-0.4L47.9,35.7L50.8,35.5z M11.8,35.8 c0.1,0,0.2,0,0.3,0l0.1,0.2l1.1-0.1l1,0.1L14,36.1v0.2l0.1,0.101L14,36.6L12.7,36.7L11.4,36.6l0.3-0.199l0.3,0.1v-0.3l-0.7,0.1 l-0.7-0.1L10.5,36.6h-0.2L10.1,36.4L10,36.6l0,0H9.8l-0.2-0.1l0.1-0.1C9.8,36.4,10.7,35.8,11.8,35.8z M22.5,36.1h1l0.2,0.101 l-1.3,0.3l-1.5,0.3h-0.4l-0.2-0.1c0,0,0-0.4,0.5-0.4l0.8-0.1L22.5,36.1z M26.7,36.1l0.7,0.5L26.1,36.9L24.7,37L23,36.8l0.7,0.101 l0.6-0.101l0.4-0.2L26.7,36.1z M30.6,36.3l0.1,0.101l0.4,0.699l-0.4,0.4l-0.3-0.4C30.5,37.2,30.4,36.7,30.6,36.3z M42.7,37.4 l0.1,0.199L42.7,37.9h-1L40.9,38l-1,0.4L39.6,38.1c0,0-0.1-0.199,0.101-0.3l0.399-0.1l0.4,0.1L42.7,37.4z M34.1,37.6h0.3l0.3,0.101 l0.1,0.2l-0.1,1.3l-0.4,1.2c0,0-0.2-0.4-0.2-1.301L34,37.8L34.1,37.6z M36.4,37.8V38c0,0,0.199,0,0.3,0.2L36.6,38.6L36.3,39 l-0.2-0.1c0,0,0-0.9,0.301-0.9h0.1l-0.1-0.1V37.8z M50.2,37.9C50.3,37.9,50.3,37.9,50.2,37.9l1.1,0.3l0.2,0.3l-0.4,0.1L50.4,38.5 l-0.7-0.3L50,38C50.1,38,50.2,37.9,50.2,37.9z M31.3,37.9l0.1,0.199l-0.1,0.2l-0.1-0.2L31.3,37.9z M58.3,38l1.2,0.1 c0,0,0.7,0.101,1.2,0.4v0.2L60.6,38.8H60l-0.6-0.2L58.8,38.5l-0.7-0.2L58.3,38z M25.2,38.1c0.1,0,0.2,0,0.2,0.101 c0,0-0.4,0.5-1,0.399c0,0-0.5,0-1-0.399l0.7,0.1l0.7-0.1C24.8,38.2,25,38.1,25.2,38.1z M28.5,38.5l0.6,0.2l0.3,0.399l-0.5,0.4 l-0.7-0.4C28.1,39.1,28.3,38.5,28.5,38.5z M13.7,38.6l0.4,0.2V39l-0.4,0.1L13.5,38.9L13.7,38.6z M44,38.6l0.7,0.2l0.7,0.101H46h0.6 l0.2,0.199l-0.2,0.2L46,39.2l-0.8,0.1c0,0-0.4,0-0.7,0.2h0.7l0.7,0.1c0,0-1.9,0.9-3.2,0.601h-0.2l0.1,0.2L42.2,40.8L41.7,40.9 L41.4,41L41.3,40.8l0.4-0.399l0.6-0.2h-0.8l-0.7-0.4c0,0,0.7-0.8,1.9-0.399L42.5,39.6l0.7-0.1c0,0,0.399,0,0.6-0.3L43.6,39.1 L43.3,38.9l0.2-0.101L44,38.6z M31.2,38.7l0.3,0.2L31.2,39.1L31,38.9L31.2,38.7z M27.5,38.8l0.1,0.101L27.5,39.1h-0.3 c0,0-0.2-0.1-0.2,0.101v0.3l-0.7,0.1c0,0-0.4,0-0.7-0.3l0.9-0.399L27.5,38.8z M12,39.2h0.2c0,0,1.3,0,1.1,0.399L12.6,39.9l-0.9-0.4 L12,39.2z M31.5,39.4l0.1,0.199v0.9c0,0-0.4-0.4-0.4-1L31.5,39.4z M36.3,39.5c0,0,0.3,0.9-0.2,1.9L35.9,41.2v-0.9 C35.8,40.3,35.8,39.7,36.3,39.5z M38.7,39.7l0.2,0.2L38.8,40.4h-0.3C38.5,40.5,38.5,39.9,38.7,39.7z M51.6,39.9 c0.2,0,0.5,0,0.601,0.3c0,0,0.1,0.3-0.601,0.3H50.9c0,0-0.4,0-0.601-0.3l1.101-0.3C51.4,39.9,51.5,39.9,51.6,39.9z M29.1,40 c0,0,0.4,0,0.6,0.2l0.2,0.3l-0.2,0.2H29l-0.4-0.4C28.6,40.3,28.6,40,29.1,40z M24,40.6l1.7,0.2l1.6,0.601l-1.9,0.3L25,41.4 L24.6,41.1L24.1,41l-0.6,0.2L23.2,41l-0.3,0.1L21.5,41l-1.3,0.4c0,0-1,0.399-1,0l0.2-0.301l0.6-0.3h0.4h0.4L24,40.6z M46.9,40.6 l0.199,0.2L47,40.9L46.7,41H46.6v-0.2C46.6,40.8,46.8,40.6,46.9,40.6z M21.5,41.3h0.7l0.1,0.2l-0.4,0.4l-0.5,0.3c0,0,0.2,0,0.2,0.2 l0.7-0.2l0.3,0.1l0.3,0.4v0.1L22.6,43l-1.2,0.2h-1.3l-1.8,0.1L16.4,44l-0.1-0.3c0,0,0.1-0.3,0.6-0.4l0.7-0.2L17,43l0.9-0.3h0.9 l-0.1-0.2l0.1-0.2l0.3-0.1l0.8-0.101l0.8-0.1L21.5,41.3z M28.8,41.9L28.2,42.1l-0.7,0.2l-0.4-0.1L26.7,42.1L28.8,41.9z M39.5,42.2 c0.1,0,0.3,0,0.4,0l0.1,0.2L39.8,42.6L39.5,43l-0.4,0.6L38.5,44c0,0-0.3-0.1-0.1-0.5l0.399-0.7C38.8,42.7,38.9,42.3,39.5,42.2z M27.4,42.5h0.7h0.7h0.7l0.2,0.4L29.6,43.3c0,0-0.4-0.5-1.3-0.399L27.1,43l-0.4-0.3L27.4,42.5z M42.3,42.7l0.5,0.1 c0,0,0.3,0,0.4,0.2l-0.4,0.3L42.1,43.4L41.3,43.3c0,0,0.101-0.2,0.4-0.3L42.3,42.7z M51.4,42.7l0.899,0.1l0.7,0.4L51,43.1 c0,0-0.1-0.199,0.2-0.3L51.4,42.7z M32.3,43.1l0.1,0.2l-0.1,0.3l-0.1-0.3L32.3,43.1z M29.9,43.5v0.3L29.8,44l-0.4-0.1l-0.2-0.2 L29.9,43.5z M35.7,43.6h0.2L36,43.7L35.9,45L35.6,46.2C35.6,46.3,35.1,44.4,35.7,43.6z M18,43.7l0.7,0.3l0.4-0.1l0.4,0.1 c0,0-0.8,0.7-2.1,0.8L15.2,45L15,44.8L14.9,44.4l0.2-0.4h0.4l0.6,0.2l0.5-0.101l0.8-0.1L18,43.7z M48.4,43.9L49,44l0.7,0.1 l0.6,0.301v0.1l-0.1,0.1l-0.8-0.1L48.6,44.4L47.9,44.2V44.1L48,44L48.4,43.9z M40,44.2l0.3,0.1v0.2L40,44.7l-0.4,0.7H39L40,44.2z M27.4,44.7l1.3,0.1l1.2,0.2l0.3,0.4L30.1,46l-0.3,0.2L29.4,46.1l0.2-0.699L28,45.5l-1.8,0.1c0,0-1.3,0.5-1.8,0l-0.2-0.1l0.1-0.2H26 C26,45.3,27.1,45.4,27.4,44.7z M21.5,44.8c0.3,0,0.7,0.101,1,0.2c0,0-1.6,0.8-3.4,0.8L19,46.2l-0.7,0.2l-0.7-0.2H17L16.4,46l2-0.5 l2-0.5C20.4,45,20.9,44.8,21.5,44.8z M45.7,45.7l0.1,0.1L46,45.9l1.2,0.1v0.2L47,46.3h-0.6H46L45.6,46L45.7,45.7z M44.2,46.2h0.2 l1.1,0.2l1.1,0.3L46.4,47l-0.9-0.2l-0.8-0.2L44.1,46.4L44.2,46.2z M39,46.4l0.7,0.399l0.7-0.1l-0.2,0.2L39.9,47l-0.2-0.1L39.5,47h-1 l-0.1-0.4C38.5,46.6,38.6,46.4,39,46.4z M53.6,46.9c0.101,0,0.101,0,0.2,0.1l0.4,0.2c0,0,0.3,0.1,0.399,0.2L54,47.6l-0.6-0.1 c0,0,0-0.2,0.199-0.2l0.101-0.1L53.4,47.1L53.3,47C53.3,47.2,53.4,47,53.6,46.9z M38.4,47.3L38.6,47.4L38.5,47.6l0.1,0.2l0.2,0.2 l0.101,0.1v0.4v0.3L38.6,49.5l-0.3,0.4c0,0-0.399-0.2-0.3-1l0.2-1.301L38.4,47.3z M29.5,48.7l0.5,0.1v0.4l-0.4,0.2H29L28.5,49.6 L28.1,49.4l0.1-0.4l0.8-0.2L29.5,48.7z M45.4,48.9l1,0.1H46.6l0.2,0.2l-0.1,0.2H46L45.8,49.6L44.6,49.4 C44.7,49.3,44.9,48.9,45.4,48.9z M47.4,49l0.3,0.1l0.3,0.2L46.7,49.4L47.1,49.1L47.4,49z"/><path id="path3346" fill="#048568" d="M65,37.8l-1.1-0.2L63.6,37.4H63.9l1.1,0.1V37.8"/></svg>