<svg xmlns="http://www.w3.org/2000/svg" id="Layer_1" width="70" height="70" x="0" y="0" enable-background="new 0 0 70 70" version="1.1" viewBox="0 0 70 70" xml:space="preserve"><metadata/><rect width="70" height="70" fill="none"/><path fill="#439EC5" d="M0.4,24.7h2.3c1,0,3.9,1.1,5.4,1.1c0.7,0,1.3-0.8,2.5-0.8c4.5,0,13.5,10.7,20,10.7c4.6,0,8.2-3.4,9.8-7.2 c1.6-3.8,1.899-3.8,2.699-3.8c0.801,0,25.601,0,25.601,0s-21.4,9.2-21.4,16.2c0,7,16,4.699,21,1.899c0,0-6.1,6.101-16.899,6.101 C40.6,48.9,32.8,44.3,27.7,41.1C22.7,38,13.4,30.7,10.1,28.8C5.6,26.2,1.5,24.9,0.4,24.7z"/></svg>