<svg xmlns="http://www.w3.org/2000/svg" id="Layer_1" width="70" height="70" viewBox="0 0 940 940"><defs><style>.cls-1{fill:none}.cls-2{fill:#0a468c}.cls-3{clip-path:url(#clip-path)}</style><clipPath id="clip-path"><path d="M759.34,356.45l-1.2,4.5H833c7.6.2,12.9,5.7,10.4,14.8L830,424.55c-5.1,14.6-18.5,13.9-18.5,13.9-13.7-1.2-9.9-14.2-9.9-14.2l6.1-22.4c1.9-7.6-3.5-11.2-8.2-11.3h-49.6l-1.2,4.4h21.2c7.8.2,9.5,6,8.1,11.3,0,0-2.7,9.3-5.8,20.9-3,11.3-13.5,11.6-15,11.6h-20.6l-1.4,5.3h19.5c2.3,0,12.8.4,9.7,11.7-3.3,11.7-5.8,20.9-5.8,20.9a15.28,15.28,0,0,1-14.3,11.2H723l-1.2,4.5h49.6a16.56,16.56,0,0,0,14.5-11.4l6.1-22.3s3.3-13.1,17.7-14.2c0,0,13.9-.8,10.9,13.8l-13.3,48.8a20.19,20.19,0,0,1-18.5,14.7h-75l-1.3,4.5H802c52.8-2.1,86.1-38.7,98.4-61.7,0,0,9.9-18.7,31.4-20.2l5.3-.3s.4,0,.5-.3c.3-1,1.2-4.5,1.3-4.7s0-.3-.2-.3l-5.3-.3c-20.6-1.5-20.2-20.2-20.2-20.2.4-23-12.8-59.5-64.4-61.7Z" class="cls-1"/></clipPath></defs><path d="M938.64,438.75l-5.3-.4c-20.6-1.5-20.2-20.2-20.2-20.2.4-23-12.8-59.5-64.4-61.7h-89.4l-1.2,4.5H833c7.6.1,12.9,5.7,10.4,14.7L830,424.45c-5.1,14.6-18.5,13.8-18.5,13.8-13.7-1.2-9.9-14.2-9.9-14.2l6.1-22.4c1.9-7.6-3.5-11.2-8.2-11.3h-49.6l-1.2,4.4h21.2c7.8.2,9.5,6,8.1,11.3,0,0-2.6,9.3-5.8,20.9-3,11.3-13.5,11.6-15,11.6h-20.6l-1.5,5.3h19.5c2.2,0,12.8.4,9.7,11.7-3.3,11.7-5.8,20.9-5.8,20.9a15.28,15.28,0,0,1-14.3,11.2h-21.3l-1.2,4.5h49.6a16.56,16.56,0,0,0,14.5-11.4l6.1-22.3s3.3-13.1,17.7-14.3c0,0,13.9-.8,10.9,13.8l-13.2,49.1a20.09,20.09,0,0,1-18.5,14.7h-75l-1.3,4.5H802c52.8-2.1,86.1-38.7,98.4-61.7,0,0,9.9-18.7,31.4-20.2l5.3-.3a.55.55,0,0,0,.5-.3c.3-1,1.2-4.5,1.3-4.7s-.1-.3-.3-.3" class="cls-2"/><path d="M759.34,356.45l-1.2,4.5H833c7.6.2,12.9,5.7,10.4,14.8L830,424.55c-5.1,14.6-18.5,13.9-18.5,13.9-13.7-1.2-9.9-14.2-9.9-14.2l6.1-22.4c1.9-7.6-3.5-11.2-8.2-11.3h-49.6l-1.2,4.4h21.2c7.8.2,9.5,6,8.1,11.3,0,0-2.7,9.3-5.8,20.9-3,11.3-13.5,11.6-15,11.6h-20.6l-1.4,5.3h19.5c2.3,0,12.8.4,9.7,11.7-3.3,11.7-5.8,20.9-5.8,20.9a15.28,15.28,0,0,1-14.3,11.2H723l-1.2,4.5h49.6a16.56,16.56,0,0,0,14.5-11.4l6.1-22.3s3.3-13.1,17.7-14.2c0,0,13.9-.8,10.9,13.8l-13.3,48.8a20.19,20.19,0,0,1-18.5,14.7h-75l-1.3,4.5H802c52.8-2.1,86.1-38.7,98.4-61.7,0,0,9.9-18.7,31.4-20.2l5.3-.3s.4,0,.5-.3c.3-1,1.2-4.5,1.3-4.7s0-.3-.2-.3l-5.3-.3c-20.6-1.5-20.2-20.2-20.2-20.2.4-23-12.8-59.5-64.4-61.7Z" class="cls-2"/><path d="M759.34,356.45l-1.2,4.5H833c7.6.2,12.9,5.7,10.4,14.8L830,424.55c-5.1,14.6-18.5,13.9-18.5,13.9-13.7-1.2-9.9-14.2-9.9-14.2l6.1-22.4c1.9-7.6-3.5-11.2-8.2-11.3h-49.6l-1.2,4.4h21.2c7.8.2,9.5,6,8.1,11.3,0,0-2.7,9.3-5.8,20.9-3,11.3-13.5,11.6-15,11.6h-20.6l-1.4,5.3h19.5c2.3,0,12.8.4,9.7,11.7-3.3,11.7-5.8,20.9-5.8,20.9a15.28,15.28,0,0,1-14.3,11.2H723l-1.2,4.5h49.6a16.56,16.56,0,0,0,14.5-11.4l6.1-22.3s3.3-13.1,17.7-14.2c0,0,13.9-.8,10.9,13.8l-13.3,48.8a20.19,20.19,0,0,1-18.5,14.7h-75l-1.3,4.5H802c52.8-2.1,86.1-38.7,98.4-61.7,0,0,9.9-18.7,31.4-20.2l5.3-.3s.4,0,.5-.3c.3-1,1.2-4.5,1.3-4.7s0-.3-.2-.3l-5.3-.3c-20.6-1.5-20.2-20.2-20.2-20.2.4-23-12.8-59.5-64.4-61.7Z" class="cls-2"/><path id="SVGID" d="M759.34,356.45l-1.2,4.5H833c7.6.2,12.9,5.7,10.4,14.8L830,424.55c-5.1,14.6-18.5,13.9-18.5,13.9-13.7-1.2-9.9-14.2-9.9-14.2l6.1-22.4c1.9-7.6-3.5-11.2-8.2-11.3h-49.6l-1.2,4.4h21.2c7.8.2,9.5,6,8.1,11.3,0,0-2.7,9.3-5.8,20.9-3,11.3-13.5,11.6-15,11.6h-20.6l-1.4,5.3h19.5c2.3,0,12.8.4,9.7,11.7-3.3,11.7-5.8,20.9-5.8,20.9a15.28,15.28,0,0,1-14.3,11.2H723l-1.2,4.5h49.6a16.56,16.56,0,0,0,14.5-11.4l6.1-22.3s3.3-13.1,17.7-14.2c0,0,13.9-.8,10.9,13.8l-13.3,48.8a20.19,20.19,0,0,1-18.5,14.7h-75l-1.3,4.5H802c52.8-2.1,86.1-38.7,98.4-61.7,0,0,9.9-18.7,31.4-20.2l5.3-.3s.4,0,.5-.3c.3-1,1.2-4.5,1.3-4.7s0-.3-.2-.3l-5.3-.3c-20.6-1.5-20.2-20.2-20.2-20.2.4-23-12.8-59.5-64.4-61.7Z" class="cls-2"/><g class="cls-3"><rect width="209.6" height="89.1" x="732.64" y="352.25" class="cls-2"/></g><path d="M128.44,444.65c-2.8-3.6-8.3-7.8-18.5-7.8H24.74L.34,526.25h23.9l19.1-69.8h21.3l-19,69.8h23.9l19-69.8h9.2c3.8,0,6.5,1,8,2.9,2.2,2.8,1.5,6.9.9,9.2l-15.8,57.7h23.9l16.9-62c2.1-7.2.8-14.4-3.2-19.6" class="cls-2"/><path d="M227.44,445.35c-4.2-5.3-11.7-8.5-20-8.5h-51.7l-5.1,18.7h45.2c4.7,0,7.9,1.1,9.7,3.3s2,5.5.8,9.9l-1,3.5h-37.8c-17.1,0-30.5,10.3-35,26.9-2.2,8.3-1.4,15.3,2.4,20.1,3.7,4.6,10,7.1,18.2,7.1h61.4l15.7-57.4c2.8-9.9,1.8-17.9-2.8-23.6m-31.6,62.2h-29.1c-2.8,0-6.7-.2-8.3-2.4-1-1.3-1.2-3.3-.5-5.9,2.1-7.6,8.1-8.6,13.8-8.6h28.6Z" class="cls-2"/><path d="M365.54,445.35c-4.2-5.3-11.7-8.5-20-8.5h-51.7l-5.1,18.7h45.2c4.7,0,8,1.1,9.7,3.3s2,5.5.8,9.9l-1,3.5h-37.8c-17.1,0-30.5,10.3-35,26.9-2.3,8.3-1.5,15.3,2.4,20.1,3.7,4.6,10,7.1,18.2,7.1h61.4l15.7-57.4c2.7-9.9,1.8-17.9-2.8-23.6m-31.7,62.2h-29.1c-2.8,0-6.6-.2-8.3-2.4-1-1.3-1.2-3.3-.5-5.9,2.1-7.6,8.1-8.6,13.8-8.6h28.7Z" class="cls-2"/><path d="M449.94,436.85l-19.1,69.8h-23.5c-3.8,0-6.5-1-8-2.9-2.2-2.8-1.5-7.1-.9-9.4l15.7-57.6h-23.8L374,496.55c-2.5,9.2-1.8,16.5,2.3,21.6,5.2,6.6,14.7,8,21.6,8h27.6L423,535c-1.5,5.4-7.8,11.1-16.5,11.1h-43.9l-5.1,18.6h51.1c14.3,0,33.6-12.3,38.4-30.1l26.8-97.9h-23.9Z" class="cls-2"/><path d="M557.14,479.25c-3.7-4.6-10-7.1-18.2-7.1h-24.6c-2.9,0-7-.2-8.7-2.4-1-1.3-1.2-3.2-.5-5.6,2.1-7.6,8.3-8.6,14.1-8.6h47.6l5.1-18.6H515c-17.1,0-30.5,10.3-35,26.9-2.3,8.2-1.4,15.2,2.4,20,3.6,4.6,10,7.1,18.3,7.1h24.6c2.9,0,6.9.2,8.7,2.4,1,1.3,1.2,3.2.5,5.8-2.1,7.6-8.3,8.6-14.1,8.6H468l-5.1,18.6h61.7c17.1,0,30.5-10.3,35-26.9,2.1-8.3,1.3-15.3-2.5-20.2" class="cls-2"/><polygon points="587.64 436.85 563.24 526.25 587.14 526.25 611.54 436.85 587.64 436.85" class="cls-2"/><path d="M699.54,445.35c-4.2-5.3-11.7-8.5-20-8.5h-51.7l-5.1,18.7h45.2c4.7,0,8,1.1,9.7,3.3s2,5.5.8,9.9l-.9,3.5h-37.9c-17.1,0-30.5,10.3-35,26.9-2.3,8.3-1.5,15.3,2.3,20.1,3.7,4.6,10,7.1,18.3,7.1h61.4l15.7-57.4c2.7-9.9,1.7-17.9-2.8-23.6m-31.7,62.2h-29.1c-2.8,0-6.7-.2-8.3-2.4-1-1.3-1.2-3.3-.5-5.9,2-7.6,8.1-8.6,13.7-8.6h28.7Z" class="cls-2"/><polygon points="259.44 412.65 228.44 526.25 252.34 526.25 283.34 412.65 259.44 412.65" class="cls-2"/><path d="M489.64,550.35c-2.1-2.7-5.8-3-6.9-3h-25.8l-1.5,5.7h23.5a5.64,5.64,0,0,1,4.3,1.6,5,5,0,0,1,.4,3.6c-.2,1.2-1.3,4.9-1.3,4.9h-17.9c-8.4,0-14.3,4.3-16.3,12.3a9.82,9.82,0,0,0,1.5,8.6c1.6,2.1,4.8,3.3,9.1,3.3h24.1l7.7-28.4c.9-3.7.6-6.6-.9-8.6m-12.4,31.5h-15.7q-4.35,0-5.7-1.8a5,5,0,0,1-.5-4.6c1.2-4.4,4.5-6.6,9.6-6.6h15.9Z" class="cls-2"/><polygon points="496.44 587.45 507.34 547.45 500.34 547.45 489.54 587.45 496.44 587.45" class="cls-2"/><polygon points="535.34 587.45 549.24 536.45 542.34 536.45 528.44 587.45 535.34 587.45" class="cls-2"/><polygon points="549.04 587.45 559.94 547.45 553.04 547.45 542.14 587.45 549.04 587.45" class="cls-2"/><path d="M587.54,547.45h-20.9l-10.8,40.1h6.9l9.3-34.4h12.9c2.8,0,4.7.6,5.7,2.1,1.2,1.8.7,4.1-.1,7.3l-6.8,25h7l7.3-26.8c1.2-4.3.7-7.6-1-9.8s-4.9-3.5-9.5-3.5" class="cls-2"/><path d="M610.34,563.85c1.8-4.5,6.5-10.8,14.7-10.8h14l1.5-5.7H624c-11.8,0-19.9,10.1-22.6,20.1-1.7,6.4-1.2,12.1,1.5,15.7,2.1,2.8,5.5,4.2,10,4.2h16.6l1.5-5.6h-14.2c-3.5,0-6-.7-7.5-2.5-1.7-2-1.9-5.6-.9-9.2l.1-.3h24.9l1.5-5.5H610Z" class="cls-2"/><path d="M679.14,553.35l1.5-5.7h-21.9c-11.3,0-14.8,7.2-16,11.6a8.66,8.66,0,0,0,1,7.5c1.6,2.1,4.1,3.2,8.4,3.2h10.8c6.6,0,5.5,4.9,5,6.5-1.6,5.1-7,5.5-12.6,5.5h-18.9l-1.5,5.6h26.5a13.91,13.91,0,0,0,14-11.4c.8-3.5.1-6.4-1.6-8.4-1.5-1.8-4-3.3-8.7-3.3h-9.3c-.9,0-4,.1-5-1.5-.7-1.1-.7-2.2-.2-3.9,1.4-4.9,6-5.6,8.1-5.6Z" class="cls-2"/><path d="M525.54,547.45c-12,0-14.4,11.2-14.6,12l-7.7,28.3h6.9s7.2-26.4,7.4-27.3c.4-1.3,2.3-7.2,9-7.2h5.8l1.6-5.8Z" class="cls-2"/></svg>