<svg xmlns="http://www.w3.org/2000/svg" version="1.1" width="70px" height="70px" viewBox="0 0 70 70"><g id="surface1"><path d="M 2.371094 46.601562 C 5.71875 50.550781 9.320312 60.558594 21.089844 62.730469 C 26.300781 63.710938 31.671875 61.96875 35.929688 60.328125 C 40.859375 58.441406 44.679688 55.089844 47.738281 52.179688 C 58.949219 41.570312 61 32.480469 67.628906 36.679688 C 66.179688 34.441406 64.601562 31.308594 62.738281 29.449219 C 59.328125 26.578125 55.378906 27.589844 50.519531 32.578125 C 41.929688 41.230469 33.03125 50.539062 25.359375 54.710938 C 17.851562 58.78125 9.011719 53.378906 2.378906 46.601562 Z M 2.371094 46.601562 " style=" stroke:none;fill-rule:evenodd;fill:rgb(0%,34.509805%,65.882355%);fill-opacity:1;"/><path d="M 16.421875 7.011719 C 14.558594 9.789062 7.960938 13.921875 9.921875 21.308594 C 10.769531 24.5 12.511719 26.710938 14.589844 28.539062 C 17.148438 30.808594 20.210938 32.390625 22.640625 33.71875 C 31.421875 38.550781 36.5 39.941406 35.171875 44.710938 C 36.28125 43.449219 37.730469 41.578125 38.828125 40.320312 C 41.039062 38.109375 40.46875 33.371094 36.429688 31.320312 C 29.359375 27.691406 21.839844 24.03125 17.738281 20.109375 C 13.730469 16.289062 13.511719 12.121094 16.378906 6.980469 L 16.410156 7.011719 Z M 16.421875 7.011719 " style=" stroke:none;fill-rule:evenodd;fill:rgb(0%,34.509805%,65.882355%);fill-opacity:1;"/></g></svg>