<svg xmlns="http://www.w3.org/2000/svg" version="1.1" id="Layer_1" x="0px" y="0px" width="70px" height="70px" viewBox="0 0 70 70" enable-background="new 0 0 70 70" xml:space="preserve"><metadata/><rect width="70" fill="none" height="70"/><path id="path6" fill="#C12032" d="M16.4,27.3c4.8-1.6,10.1-1.2,14.8,0.7c2.4,0.9,4.5,2.5,6.899,3.2c4.4,1.4,9.2,1.2,13.801,1.1   c3.8,0,7.699,1.7,9.699,5c-1.5-0.7-3-1.5-4.699-1.5c-3.2,0-6,1.7-9,2.4c-2.101,0.6-4.4,0.6-6.5,0.5C39.6,38.6,37.8,38.1,36,38.1   c-2.8-0.199-5.6,0.301-8.4,0.5c-9,0.7-18.2,1-27.2-0.199C11,38.3,21.8,38.3,32.2,35.9c1.6-0.4,3.2-0.9,4.7-1.601   c-3.4-0.8-6.5-2.5-9.4-4.4C24.4,27.9,20.3,26.9,16.4,27.3z"/><path id="path8" fill="#C12032" d="M57.4,27.9C61.3,27.3,65.6,27.8,69,30c-1.1-0.3-2.3-0.7-3.5-0.8c-3.5-0.3-6.9,0.7-9.9,2.4   c-0.6,0.4-1.3,0.1-1.899,0c-2.3-0.4-4.5-0.1-6.8-0.1C50.2,29.9,53.7,28.6,57.4,27.9z"/></svg>