<svg xmlns="http://www.w3.org/2000/svg" version="1.1" id="Layer_1" x="0px" y="0px" width="70px" height="70px" viewBox="0 0 70 70" enable-background="new 0 0 70 70" xml:space="preserve"><path fill="#019798" d="M26.648,36.411c1.287-2.464,2.72-4.844,4.173-7.213   c2.123-3.461,4.404-6.815,6.956-9.975c2.68-3.319,5.558-6.449,9.226-8.722c1.804-1.118,3.726-1.93,5.894-2.056   c3.356-0.195,5.696,1.361,7.279,4.197c1.707,3.06,2.302,6.434,2.663,9.862c0.46,4.359,0.345,8.724,0.136,13.089   c-0.038,0.803-0.102,1.604-0.154,2.404c-0.894,0.085-1.769-0.1-2.651-0.166c-0.289-0.188-0.242-0.493-0.24-0.768   c0.003-3.264-0.19-6.518-0.683-9.741c-0.436-2.841-1.027-5.658-2.568-8.159c-0.946-1.538-2.192-2.714-4.05-3.017   c-1.064-0.174-2.13-0.027-3.168,0.238c-1.811,0.461-3.455,1.29-4.998,2.338c-2.938,1.997-5.395,4.509-7.686,7.199   c-2.5,2.935-4.753,6.049-6.835,9.289c-0.29,0.451-0.576,0.9-0.739,1.416c-0.656-0.029-1.313-0.01-1.97-0.021   C27.02,36.603,26.8,36.604,26.648,36.411z" clip-rule="evenodd" fill-rule="evenodd"/><path fill="#086699" d="M26.648,36.411c0.643-0.009,1.292,0.025,1.927-0.047   c0.29-0.034,0.426,0.318,0.704,0.172c0.271-0.219,0.579-0.139,0.875-0.091c4.323,0.698,7.354,3.147,9.383,6.944   c0.802,1.504,1.4,3.085,1.732,4.767c0.193,0.981,0.621,1.107,1.375,0.439c0.867-0.771,1.492-1.753,2.28-2.594   c3.225-3.442,6.832-6.313,11.401-7.779c0.998-0.321,2.034-0.458,3.063-0.629c0.236-0.038,0.481-0.052,0.683,0.129   c0.924,0.003,1.853-0.027,2.747,0.274c2.575,0.902,3.84,2.949,4.586,5.382c1.053,3.433,1.142,6.966,0.967,10.519   c-0.126,2.54-0.383,5.064-0.771,7.575c-0.064,0.422-0.205,0.556-0.613,0.521c-0.542-0.049-0.267-0.405-0.239-0.625   c0.382-2.999,0.636-6.009,0.483-9.036c-0.123-2.435-0.42-4.841-1.377-7.119c-0.654-1.551-1.619-2.815-3.159-3.578   c-0.927-0.112-1.861-0.172-2.752-0.479c-2.494,0.173-4.806,0.916-6.94,2.208c-2.672,1.615-4.896,3.74-6.864,6.142   c-2.717,3.314-4.908,6.95-6.625,10.875c-0.164,0.377-0.365,0.739-0.568,1.096c-0.154,0.274-0.351,0.542-0.721,0.404   c-0.355-0.134-0.375-0.469-0.328-0.772c0.172-1.141,0.246-2.289,0.278-3.439c0.108-3.998-0.093-7.959-1.564-11.743   c-1.069-2.748-2.718-4.995-5.545-6.168c-1.196-0.497-2.444-0.753-3.746-0.713c-0.789,0.236-1.582,0.403-2.4,0.138   c-5.502,1.247-9.522,4.74-13.178,8.756c-3.749,4.114-6.804,8.725-9.466,13.601c-0.162,0.297-0.324,0.454-0.691,0.456   c-0.486,0-0.648-0.071-0.351-0.562c0.787-1.298,1.519-2.633,2.318-3.924c3.071-4.961,6.489-9.666,10.62-13.809   c2.525-2.53,5.273-4.782,8.606-6.212C24.021,36.955,25.327,36.661,26.648,36.411z" clip-rule="evenodd" fill-rule="evenodd"/><path fill="#049898" d="M59.943,41.156c0.946-0.008,1.873,0.102,2.752,0.479   c-0.414,0.109-0.302,0.487-0.328,0.743c-0.53,5.296-1.368,10.545-2.37,15.77c-0.215,1.13-0.475,2.252-0.647,3.388   c-0.093,0.602-0.494,0.454-0.824,0.436c-0.44-0.022-0.261-0.377-0.227-0.599c0.427-2.791,0.713-5.6,1.001-8.407   c0.371-3.609,0.588-7.229,0.733-10.852C60.045,41.794,60.124,41.46,59.943,41.156z" clip-rule="evenodd" fill-rule="evenodd"/><path fill="#029B9B" d="M24.919,39.183c0.801-0.045,1.593-0.223,2.4-0.138   c-2.403,4.026-4.651,8.137-6.751,12.326c-1.655,3.299-3.234,6.632-4.658,10.039c-0.092,0.219-0.095,0.546-0.468,0.536   c-0.257-0.007-0.573,0.098-0.75-0.09c-0.185-0.195,0.048-0.446,0.133-0.651c2.573-6.245,5.362-12.391,8.426-18.411   c0.511-1.006,1.034-2.005,1.542-3.012C24.887,39.601,25.071,39.421,24.919,39.183z" clip-rule="evenodd" fill-rule="evenodd"/></svg>