<svg xmlns="http://www.w3.org/2000/svg" version="1.1" id="Layer_1" x="0px" y="0px" width="70px" height="70px" viewBox="0 0 70 70" enable-background="new 0 0 70 70" xml:space="preserve"><metadata/><rect width="70" fill="none" height="70"/><g><g><path fill="#AC509E" d="M23.3,28.1c-3.5,0-6.3,2.8-6.3,6.2c0,3.4,2.8,6.2,6.3,6.2c2.7,0,5-1.7,5.9-4h-3.3     c-0.6,0.7-1.5,1.2-2.5,1.2c-1.4,0-2.6-0.8-3.1-2h9.2c0.1-0.4,0.1-0.8,0.1-1.3C29.6,30.9,26.8,28.1,23.3,28.1z M20.4,32.7     c0.6-1,1.6-1.7,2.9-1.7c1.2,0,2.3,0.7,2.9,1.7H20.4z"/></g><g><path fill="#AC509E" d="M5.5,30.3L5.5,30.3c-0.9,1-1.4,2.4-1.5,3.8l0,0v0.4c0,3.4,0,6.8,0,10.2h2.9c0-3.4,0-6.9,0-10.3     c0-0.1,0-0.2,0-0.3C6.9,32.7,6.3,31.4,5.5,30.3z"/></g><g><path fill="#AC509E" d="M1.7,28.2v2.9c0.8,0.3,1.5,0.8,1.9,1.6c0.3-1.1,0.8-2,1.5-2.8C4,29,2.9,28.4,1.7,28.2z"/></g><g><path fill="#AC509E" d="M10.3,28.1c-1.7,0-3.3,0.7-4.4,1.8c0.7,0.8,1.2,1.8,1.5,2.8c0.6-1,1.7-1.8,2.9-1.8c1.8,0,3.3,1.5,3.3,3.3     c0,1.8-1.5,3.3-3.3,3.3c-1,0-1.9-0.4-2.5-1.1V40c0.8,0.3,1.6,0.5,2.5,0.5c3.5,0,6.3-2.8,6.3-6.2C16.5,30.9,13.7,28.1,10.3,28.1z"/></g><g><path fill="#AC509E" d="M59.3,23.7H56.4v10.6v6.2H59.3c0.101-3.9,0-7.9,0-11.4V23.7z"/></g><g><path fill="#AC509E" d="M62.6,28.1c-0.899,0-1.699,0.2-2.5,0.5V32c0.601-0.7,1.5-1.1,2.5-1.1c1.801,0,3.2,1.4,3.301,3.1v6.4H68.8     c0-2.101,0-4.101,0-6.2C68.9,30.9,66.1,28.1,62.6,28.1z"/></g><g><path fill="#AC509E" d="M49.5,31c1,0,2,0.5,2.6,1.2H55.4c-0.9-2.4-3.2-4.1-5.9-4.1c-3.5,0-6.3,2.8-6.3,6.2c0,3.4,2.8,6.2,6.3,6.2     c2.7,0,5-1.7,5.9-4.1H52.1c-0.6,0.8-1.5,1.199-2.6,1.199c-1.8,0-3.3-1.5-3.3-3.3S47.7,31,49.5,31z"/></g><g><path fill="#AC509E" d="M36.4,28.1c-3.5,0-6.3,2.8-6.3,6.2c0,3.4,2.8,6.2,6.3,6.2c0.899,0,1.699-0.2,2.5-0.5v-3.4     C38.3,37.3,37.4,37.7,36.4,37.7c-1.8,0-3.3-1.5-3.3-3.3c0-1.8,1.5-3.3,3.3-3.3c1.699,0,3.199,1.3,3.3,3.1V40.6H42.6v-6.2     C42.7,30.9,39.9,28.1,36.4,28.1z"/></g></g></svg>