<svg xmlns="http://www.w3.org/2000/svg" id="Layer_1" width="380" height="380" viewBox="0 0 380.82 380.82"><defs><style>.cls-1,.cls-3{fill:none}.cls-2{fill:#0e1840}.cls-3{stroke:#a9802d;stroke-width:1.5px}.cls-4{clip-path:url(#clip-path)}.cls-5{fill:url(#linear-gradient)}.cls-6{clip-path:url(#clip-path-2)}.cls-7{fill:url(#linear-gradient-2)}.cls-8{clip-path:url(#clip-path-3)}.cls-9{fill:url(#linear-gradient-3)}.cls-10{fill:#a9802d;fill-rule:evenodd}</style><clipPath id="clip-path"><path d="M190.54,220.15v1c63.59,0,124-9.2,159.84-42l-.67-.74c-35.45,32.5-95.66,41.75-159.17,41.74" class="cls-1"/></clipPath><linearGradient id="linear-gradient" x1="3105.68" x2="3107.09" y1="585.95" y2="585.95" gradientTransform="matrix(113.38, 0, 0, -113.38, -351926.2, 66633.77)" gradientUnits="userSpaceOnUse"><stop offset="0" stop-color="#a9802d"/><stop offset=".88" stop-color="#a9802d"/><stop offset=".89" stop-color="#9f792e"/><stop offset=".91" stop-color="#836632"/><stop offset=".94" stop-color="#554837"/><stop offset=".97" stop-color="#171e3f"/><stop offset=".97" stop-color="#0e1840"/><stop offset="1" stop-color="#0e1840"/></linearGradient><clipPath id="clip-path-2"><path d="M195.58,220.18l-5,0v1l5.05,0c66.1,0,111.49-14.44,138.37-42.05l-.71-.7c-26.6,27.33-71.68,41.75-137.66,41.75" class="cls-1"/></clipPath><linearGradient id="linear-gradient-2" x1="3135.95" x2="3137.36" y1="695.19" y2="695.19" gradientTransform="matrix(0, -30.32, -30.32, 0, 21339.05, 95296.84)" gradientUnits="userSpaceOnUse"><stop offset="0" stop-color="#a9802d"/><stop offset=".61" stop-color="#a9802d"/><stop offset=".73" stop-color="#a77f2d"/><stop offset=".78" stop-color="#a07a2e"/><stop offset=".81" stop-color="#957230"/><stop offset=".84" stop-color="#846732"/><stop offset=".86" stop-color="#6e5834"/><stop offset=".88" stop-color="#524638"/><stop offset=".9" stop-color="#33313b"/><stop offset=".91" stop-color="#0f1940"/><stop offset=".91" stop-color="#0e1840"/><stop offset="1" stop-color="#0e1840"/></linearGradient><clipPath id="clip-path-3"><path d="M190.54,220.15v1h.1c69.53,0,102.5-15.39,129.85-42.76l-.7-.71c-27.22,27.2-59.77,42.46-129.25,42.47" class="cls-1"/></clipPath><linearGradient id="linear-gradient-3" x1="3135.93" x2="3137.34" y1="693.42" y2="693.42" gradientTransform="matrix(0, -30.83, -30.83, 0, 21636.19, 96912.96)" gradientUnits="userSpaceOnUse"><stop offset="0" stop-color="#a9802d"/><stop offset=".75" stop-color="#a9802d"/><stop offset=".77" stop-color="#9f792e"/><stop offset=".81" stop-color="#836632"/><stop offset=".85" stop-color="#554837"/><stop offset=".9" stop-color="#171e3f"/><stop offset=".91" stop-color="#0e1840"/><stop offset="1" stop-color="#0e1840"/></linearGradient></defs><path d="M350.3,246.76a34.2,34.2,0,0,0-5.07-2.85A61,61,0,0,0,333,239.57c-11.73-2.91-40.94-4.4-47.34-4.84s-45.6-3.3-71.13-4.75c-36-2-74.14-4.36-107.88-5.57-55.92-2-102.2-2.26-102.58-3.63s68.8-.74,135.53-.29c14.6.09,29.13.07,42.78,0,11.42,0,22.06-.06,31.83-.87,6.13-.52,12.1-1.48,17.6-2.46,70.26-12.42,89.89-59.12,99.28-80.33.88-2,4.44-3.37,9.43-4,5.6-.75,13-.66,19.5-.81,9.76-.23,16,.05,18,.05s-28.45,79.64-32.3,92.62c-2.07,7-1,12.62.81,15.49,2.37,3.74,4.42,7.1,3.74,6.57" class="cls-2"/><path d="M350.3,246.76a34.2,34.2,0,0,0-5.07-2.85A61,61,0,0,0,333,239.57c-11.73-2.91-40.94-4.4-47.34-4.84s-45.6-3.3-71.13-4.75c-36-2-74.14-4.36-107.88-5.57-55.92-2-102.2-2.26-102.58-3.63s68.8-.74,135.53-.29c14.6.09,29.13.07,42.78,0,11.42,0,22.06-.06,31.83-.87,6.13-.52,12.1-1.48,17.6-2.46,70.26-12.42,89.89-59.12,99.28-80.33.88-2,4.44-3.37,9.43-4,5.6-.75,13-.66,19.5-.81,9.76-.23,16,.05,18,.05s-28.45,79.64-32.3,92.62c-2.07,7-1,12.62.81,15.49C348.93,243.93,351,247.29,350.3,246.76Z" class="cls-3"/><g class="cls-4"><rect width="159.85" height="42.74" x="190.54" y="178.41" class="cls-5"/></g><g class="cls-6"><rect width="143.42" height="42.74" x="190.53" y="178.43" class="cls-7"/></g><g class="cls-8"><rect width="129.95" height="43.47" x="190.54" y="177.68" class="cls-9"/></g><path d="M351.32,177.82c-.24-.43-.45-.86-.71-1.28-1.16-1.9-2.28-3.83-3.38-5.77-.37-.66-.78-1.31-1.13-2s-.88-1.55-1.34-2.3a2.8,2.8,0,0,0-.69-1,1.51,1.51,0,0,0-1-.2c-.77.19-1,.83-1.33,1.43-.6,1-1.14,2-1.75,3-.83,1.35-1.61,2.78-2.43,4.13-.53.86-.94,1.83-1.52,2.64a7.4,7.4,0,0,1-3.16,2.49,9,9,0,0,1-5.33.46,12,12,0,0,1-2.64-1A9.06,9.06,0,0,1,320.75,168a8.89,8.89,0,0,1,1.23-2.51,9.65,9.65,0,0,1,3.39-2.84,11.6,11.6,0,0,1,2.09-.72,12.32,12.32,0,0,1,3.23-.13,7.89,7.89,0,0,1,1.57.41,5.6,5.6,0,0,1,1,.46v-1.12a18.55,18.55,0,0,0-1.78-.59,11.35,11.35,0,0,0-3.14-.19,4.64,4.64,0,0,0-.9.13,14.45,14.45,0,0,0-1.66.46,9.87,9.87,0,0,0-5,4.18,11.46,11.46,0,0,0-1.13,2.7,10.32,10.32,0,0,0,.22,5.54,10.48,10.48,0,0,0,.76,1.72,9.22,9.22,0,0,0,2.48,2.94,10.91,10.91,0,0,0,4.85,2.1,7.78,7.78,0,0,0,1.7.1A10.08,10.08,0,0,0,333,180a9.76,9.76,0,0,0,2.15-1.22,4.42,4.42,0,0,0,.68-.61,9.17,9.17,0,0,0,1.28-1.6c.14-.21.32-.59.46-.81.94-1.54,1.89-3.16,2.78-4.73.68-1.21,1.35-2.45,2-3.61l.58-1c.11-.18.46-.14.6,0,.32.39,4,7.14,6.21,10.69.47.77.85,1.55,1.32,2.3.1.16.33.61.46.88h1.17c-.21-.31-.4-.76-.48-.89-.3-.54-.64-1.08-1-1.62m5.95,1.22c-.29-.48-.57-1-.84-1.48-.42-.74-.83-1.46-1.28-2.2-1.67-2.72-3.19-5.57-4.81-8.32s-2.42-5.37-5.66-6.13a7.48,7.48,0,0,0-2.17-.11,5,5,0,0,0-1.34.34,6.1,6.1,0,0,0-1.92,1.24,19.24,19.24,0,0,0-2.41,3.73c-.89,1.44-1.78,3-2.63,4.45-.16.29-.34.58-.5.87a25.39,25.39,0,0,1-1.43,2.43,3.24,3.24,0,0,1-2.62,1.25,5.43,5.43,0,0,1-1.33-.1,4.57,4.57,0,0,1-3.05-2.51,4.47,4.47,0,0,1,2.8-6.05,4.42,4.42,0,0,1,3.76.64,4.29,4.29,0,0,1,.61.59c.58.75.64,1.18.85,1.18V167c-.26-.23-.54-.47-.81-.67a6.66,6.66,0,0,0-2.05-1,5.63,5.63,0,0,0-2.95.25,5.3,5.3,0,0,0-3.52,4.56,7.83,7.83,0,0,0,.18,2.08,5.42,5.42,0,0,0,1.41,2.25,4.67,4.67,0,0,0,1.55,1,4.77,4.77,0,0,0,2.4.5,4.47,4.47,0,0,0,3.41-1.44,8.45,8.45,0,0,0,.92-1.51c1.3-2.1,2.47-4.34,3.76-6.45.59-1,1.06-2,1.71-2.91a5.62,5.62,0,0,1,1.29-1.24,5.34,5.34,0,0,1,5.19-.17c1.57.86,2.22,2.71,3.15,4.23,1.82,3,3.49,6.12,5.31,9.1.66,1.08,1.22,2.19,1.87,3.25.14.22.58,1.06.74,1.37H358c-.08-.15-.35-.59-.75-1.28M354,177.89c-.29-.51-.55-1-.86-1.55-.73-1.19-1.44-2.4-2.14-3.63-1-1.7-2-3.41-3-5.13-.4-.74-.82-1.45-1.2-2.14a4.2,4.2,0,0,0-2.83-2.35c-.18,0-.88,0-1.05,0a2.71,2.71,0,0,0-1.18.35,4.27,4.27,0,0,0-1,.7,15.44,15.44,0,0,0-1.75,2.79c-1.25,2-2.38,4.17-3.62,6.2-.37.61-.63,1.22-1,1.77a5.51,5.51,0,0,1-1.76,1.77,7.28,7.28,0,0,1-5.61.4,6.76,6.76,0,0,1-4-4.13,11.79,11.79,0,0,1-.25-1.43,4.27,4.27,0,0,1-.05-1.14,6.41,6.41,0,0,1,.25-1.61,7.21,7.21,0,0,1,1.26-2.34,5.92,5.92,0,0,1,1.2-1.12,6.68,6.68,0,0,1,4-1.23,7.1,7.1,0,0,1,1.72.21,7.82,7.82,0,0,1,1.63.69c.19.12.39.29.59.43v-1.22a8.66,8.66,0,0,0-1.18-.59,6.75,6.75,0,0,0-2.06-.47,10.44,10.44,0,0,0-1.49,0,5.44,5.44,0,0,0-1,.17,10.49,10.49,0,0,0-1.37.46,7.45,7.45,0,0,0-4.18,4.58c-.1.43-.19.86-.29,1.28a4,4,0,0,0-.06,1,8.43,8.43,0,0,0,.25,2c.12.38.21.77.35,1.11a7,7,0,0,0,4.31,4.17,11.33,11.33,0,0,0,1.48.4,9.53,9.53,0,0,0,1.24.11,12.25,12.25,0,0,0,1.57-.08,7.47,7.47,0,0,0,2.32-.89,7,7,0,0,0,2.18-2.35c.33-.54.6-1.13,1-1.73,1-1.69,2-3.48,3-5.17.44-.71.92-1.74,1.43-2.54a3.06,3.06,0,0,1,1.14-1.26,2.23,2.23,0,0,1,.63-.25,3.66,3.66,0,0,1,1.51,0,2.33,2.33,0,0,1,1,.57,12.67,12.67,0,0,1,1.82,2.88c1.73,2.89,3.32,5.9,5.09,8.76.59,1,1.09,2,1.67,2.9.11.19.5.9.59,1.08h1.1c0-.09-.35-.67-.76-1.42-.18-.35-.41-.67-.61-1m-6.52-3.52a4.19,4.19,0,0,1-1.28,0,6.75,6.75,0,0,1-.17-.79c-.24.25-.81.83-1.19,1.19-.28,0-.35-.11-.31-.3.14-.44.43-1.54.55-2.05-.43.16-.6.27-.94.13-.3-.57-.58-1.1-.81-1.62-.39.71-.48.92-.84,1.6-.25.2-.64,0-.91-.08.09.76.5,1.5.53,2.23a.22.22,0,0,1-.22.11c-.57-.31-.77-.86-1.3-1.16-.05.39-.05.68-.25.75a4.6,4.6,0,0,1-1.12,0c.14.51.39.61.39,1.13a2.51,2.51,0,0,1-.74.35l0,.05a8.55,8.55,0,0,0,1,.75,6.65,6.65,0,0,1,.58.42c.21.17.65.37.76.6s-.16.5-.21.75a.08.08,0,0,0,.12,0,4.7,4.7,0,0,1,.57-.14c.54-.1,1.4-.25,1.44-.11,0,.46-.05,1.35-.09,2.12h.52c0-.71-.05-1.42-.08-2.12,0-.09.23-.05.39-.05l1.72.29s0-.07,0-.11a.77.77,0,0,1-.18-.67,2.42,2.42,0,0,1,.59-.53c.25-.2.53-.37.79-.56-.06,0,.6-.42,1-.73-.21-.13-.61-.13-.71-.34s.29-.93.41-1.14" class="cls-10"/><path d="M60.79,153.87l-4.35,18.91H54.89L54.71,168a16.4,16.4,0,0,0-1-4.6,9.41,9.41,0,0,0-2.32-3.52,10.83,10.83,0,0,0-3.92-2.32,15.64,15.64,0,0,0-5.26-.84A22.25,22.25,0,0,0,28.74,161a35.54,35.54,0,0,0-11.55,15.21,41.52,41.52,0,0,0-3.44,16.41q0,8.49,4.95,13.55a17.24,17.24,0,0,0,12.88,5.06,21.09,21.09,0,0,0,10.66-2.67,28.1,28.1,0,0,0,8.68-8.23h2q-4.74,7.55-10.51,11.1A26,26,0,0,1,28.61,215a26.21,26.21,0,0,1-12.67-3,20.26,20.26,0,0,1-8.4-8.43,24.53,24.53,0,0,1-2.88-11.67,37.25,37.25,0,0,1,5.12-18.61A37.53,37.53,0,0,1,23.85,159a35.66,35.66,0,0,1,18-5.17,27.12,27.12,0,0,1,9.56,2,11.37,11.37,0,0,0,3.36.86,3.75,3.75,0,0,0,1.81-.43,13.34,13.34,0,0,0,2.58-2.46Z" class="cls-2"/><path d="M94.11,174.64,85.7,203.85l-.94,3.91a4.17,4.17,0,0,0-.13,1,1.83,1.83,0,0,0,.43,1.21,1.11,1.11,0,0,0,.86.39,2.7,2.7,0,0,0,1.46-.69,24.78,24.78,0,0,0,4.49-5.17l1.46,1a27.06,27.06,0,0,1-6.12,6.83,10,10,0,0,1-5.81,2.35,3.76,3.76,0,0,1-2.78-.93,3.63,3.63,0,0,1-.93-2.69,22.22,22.22,0,0,1,1-5.56l.9-3.23q-5.64,7.37-10.38,10.3a12.69,12.69,0,0,1-6.67,2.11,7,7,0,0,1-5.43-2.61,10.48,10.48,0,0,1-2.29-7.17,30.52,30.52,0,0,1,4.12-14.46,35.67,35.67,0,0,1,10.44-12.17q5-3.62,9.35-3.61A6.92,6.92,0,0,1,83.06,176a8.66,8.66,0,0,1,2.64,4.57l1.56-4.91Zm-15.34,2.24a9.4,9.4,0,0,0-5.86,2.58,31.44,31.44,0,0,0-7.82,10.86,30.73,30.73,0,0,0-3.42,13A6.85,6.85,0,0,0,63.13,208a4.37,4.37,0,0,0,3.36,1.7q4.7,0,10.21-6.94,7.36-9.21,7.37-18.91c0-2.44-.48-4.2-1.42-5.3a4.87,4.87,0,0,0-3.88-1.63" class="cls-2"/><path d="M116.44,152.36,101.7,203.63a27.66,27.66,0,0,0-1.07,4.69,1.45,1.45,0,0,0,.41,1.08,1.32,1.32,0,0,0,1,.43,3,3,0,0,0,1.77-.73,23.68,23.68,0,0,0,4.69-5.47L109.8,205c-2.72,3.85-5.24,6.54-7.53,8.06a9,9,0,0,1-4.83,1.64,3.73,3.73,0,0,1-2.74-1.12A3.6,3.6,0,0,1,93.61,211,29.48,29.48,0,0,1,95,204.58l11.67-40.41a41.14,41.14,0,0,0,1.42-5.69,2.08,2.08,0,0,0-.82-1.7,3.94,3.94,0,0,0-2.54-.67,22.93,22.93,0,0,0-3,.3v-1.59Z" class="cls-2"/><path d="M127.23,174.64l-5.6,19.42A85.44,85.44,0,0,1,128,183.77a31.85,31.85,0,0,1,8-7.76,9.19,9.19,0,0,1,4.78-1.37,5,5,0,0,1,3.58,1.37,4.71,4.71,0,0,1,1.42,3.54,20.81,20.81,0,0,1-1,5.51L141.7,196q7-13.14,13.31-18.43a10.79,10.79,0,0,1,6.9-2.93,4.27,4.27,0,0,1,3.25,1.35,6,6,0,0,1,1.27,4.2,19.72,19.72,0,0,1-.78,5.3l-4.74,16.76a55.51,55.51,0,0,0-1.55,6.08,1.49,1.49,0,0,0,.39,1,.86.86,0,0,0,.69.3,3.32,3.32,0,0,0,1.51-.82,22.38,22.38,0,0,0,4.61-5l1.42.9a37.67,37.67,0,0,1-3.81,4.74,20.34,20.34,0,0,1-4.68,4.09,7.42,7.42,0,0,1-3.57,1.08,3.37,3.37,0,0,1-2.52-1,3.47,3.47,0,0,1-1-2.54q0-2.07,1.77-8.31l3.92-13.83c.89-3.19,1.37-5,1.42-5.3a9.83,9.83,0,0,0,.13-1.59,2.69,2.69,0,0,0-.47-1.68,1.5,1.5,0,0,0-1.16-.61,5.91,5.91,0,0,0-3.84,1.85Q148.21,187.08,143,197a92.65,92.65,0,0,0-6.38,16.67h-6.5l7.36-26.06a26,26,0,0,0,1.21-5.64,2.69,2.69,0,0,0-.47-1.73,1.5,1.5,0,0,0-1.17-.56,5.57,5.57,0,0,0-3,1q-2.6,1.68-6.66,7.19a57.11,57.11,0,0,0-6.31,10.56q-1.08,2.37-5.13,15.2h-6.37l8-27.91,1-3.62a4,4,0,0,0,.3-1.21,2.23,2.23,0,0,0-.86-1.7,3.23,3.23,0,0,0-2.2-.75,24.61,24.61,0,0,0-3.1.51l-.39-1.59Z" class="cls-2"/><path d="M213.65,153.87l-4.44,48.6c-.23,2.26-.35,3.76-.35,4.48a4.46,4.46,0,0,0,.65,2.62,5,5,0,0,0,2.22,1.86,13.09,13.09,0,0,0,4.72.6l-.48,1.59H193l.47-1.59h1a7.9,7.9,0,0,0,4.57-1.21,5.24,5.24,0,0,0,1.94-2.71,33.49,33.49,0,0,0,.9-6.29l.69-7.41H185.82l-5.95,8.06a24.19,24.19,0,0,0-2.54,3.89,5.49,5.49,0,0,0-.52,2.22,3.08,3.08,0,0,0,1.12,2.37,5.89,5.89,0,0,0,3.71,1.08l-.48,1.59H163.89l.47-1.59A9.23,9.23,0,0,0,170,209.9q2.45-2,7.26-8.55l34.9-47.48Zm-8.53,14.35-16.93,23.05h14.69Z" class="cls-2"/><path d="M232.5,174.64,224,204.83a22,22,0,0,0-.86,3.67,1.53,1.53,0,0,0,.41,1.12,1.3,1.3,0,0,0,1,.43,2.77,2.77,0,0,0,1.55-.69,25.59,25.59,0,0,0,5-5.51l1.51,1a30.26,30.26,0,0,1-6.89,7.54,9.23,9.23,0,0,1-5.6,2.29,4,4,0,0,1-2.89-1.06A3.46,3.46,0,0,1,216,211a22.06,22.06,0,0,1,1.08-5.3l5.6-19.3a30.9,30.9,0,0,0,1.38-5.94,2,2,0,0,0-.67-1.55,2.66,2.66,0,0,0-1.83-.61,31.36,31.36,0,0,0-3.92.48v-1.68Zm-.56-17.11a4.27,4.27,0,1,1-3.06,1.25,4.18,4.18,0,0,1,3.06-1.25" class="cls-2"/><path d="M234.63,177.05l14.86-2.41-6.2,20.93q7.53-12.88,13.69-18c2.33-2,4.23-2.93,5.69-2.93a3,3,0,0,1,2.24.84,3.32,3.32,0,0,1,.82,2.43,10.84,10.84,0,0,1-1.47,5.43,3.23,3.23,0,0,1-3,1.94,2.46,2.46,0,0,1-1.7-.65,3.11,3.11,0,0,1-.88-2,1.67,1.67,0,0,0-.39-1.08,1.11,1.11,0,0,0-.82-.34,2.88,2.88,0,0,0-1.38.34,15.37,15.37,0,0,0-3.4,3.36A94,94,0,0,0,245,195.87a33,33,0,0,0-3.11,6.42c-1.2,3.28-1.89,5.24-2.06,5.9l-1.38,5.43h-6.59l8-26.75a27.57,27.57,0,0,0,1.37-6.63,1.6,1.6,0,0,0-.64-1.3,3.63,3.63,0,0,0-2.29-.68,24.32,24.32,0,0,0-3.31.38Z" class="cls-2"/></svg>