<svg xmlns="http://www.w3.org/2000/svg" version="1.1" id="Layer_1" x="0px" y="0px" width="70" height="70" viewBox="0 0 70 70" xml:space="preserve" style="enable-background:new 0 0 70 70;"><style type="text/css">
	.st0{fill:#90278E;}
</style><path d="M14.6,52.1c0,0,1.2-17.2,24-6.1c0.3,0.2,0.7,0.3,1,0.5c-5-11.8-15-18.2-27.1-15.9c-1.6,0.3-3.1-0.4-3.5-1.5  c-0.5-1.1,1-4.3,2.4-2.7c1.5,1.6,7.3,4,6.5,1.2c-0.9-2.8-4-3.2-6-2.6c-1.7,0.5-2.8-1.8-1.9-3.4c0.8-1.6,6,0,8.2,0.9  s6.9,3.4,10.9,5.6c5.8,3.2,7.9-2.5,4.5-3.8c-7.6-2.8-12.8-10.2-9.7-12.1c1.2-0.8,2.3,0,1.9,1.2c-1.2,4,14.3,7.3,13.2-7.3  c-0.3-3.5,4.9,2,2.9,8c-1.5,4.7-6.4,6.4-11.2,5.7c-0.3,0-0.6-0.1-0.8-0.2c2.6,2.1,6.5,3.1,11.2,0.2c4.6-2.9,6.1-11.7,2.7-14.5  c-2.3-1.8-6.5-3.2-11.3-2.8c2.6,0.7,4.3,3.4,3.7,6.2s-2.6,3.8-5.4,3.2s-5.3-2.5-4.7-5.4c0.3-1.3,1-2.3,1.9-3.1  c-3.4,1.1-6.8,3.1-10,6.5c0.5,4.6-6.9,3.4-4.1,0.5c9.5-9.3,23.5-11,34.9-5.9c5.6,3.2,3,4.8,0.8,5.9c-1.2,0.6-2.2,1-1.5,1.4  c4.8,3.1,5.3-1.9,5.5-3.5c0.2-1.5,3.5,1,3.6,2.3c0.1,1.5-0.7,3-2.4,2.5c-2.7-0.7-9,3.4-8.8,7.2c0.2,5.6,3.1,6.2,5.3,0.8  c2.1-5.3,7.1-5.8,10.8-4.9c3.7,0.9,0.9,4.8-0.5,4.1c-1.4-0.6-0.4-1.7-1-1.8c-2.1-0.4-4.7-0.7-7,2.2c-1.2,1.5-2.9,6.1,0.9,8.5  c3.8,2.4,6.3,1.5,6.3,1.5s-2.1-2.6,0.4-6.1c2.8-3.8,5.9-1.6,5.7-0.4c-0.1,1.2-2.3,1.7-2.5-0.3c-0.1-0.6-4.1,3.6,0.3,6.9  c5,3.8,3.9,14.9-0.2,16.1c-4.1,1.2,6.5-8.1-6-13.3S45,29.5,44.3,30.7c-0.7,1.2,0.8,4.4,8.7,4.9s8.1,4,8.7,5.6  c0.6,1.5-0.7,3.2-2.2,2.2c-1.6-1.1-1.6-5.5-5.7-6.2c-7-1.2-17.5,2.2-7.9,9.1c4.6,3.3,12.4,6.7,16.9,3.6c4.4-3,1.4,6-7.5,7.9  c1.6,2.9-2.1,5.1-2.1,5.1c-8.9,6.2-15.7,1.1-14.4-1.3c0.4-0.7,2.4-1.4,2.5,0.1c0.2,1.6,2.5,1.8,3.6,0.2c3.8-5.2-4-12-9.1-14.5  c-1.3-0.5-0.7,1.8-1.5,3c-1,1.6-4.2,1-1.9,4.2c3.1,4.4,1.1,11,6.8,12.1c1.2,0.2,0.7,1.1,0,1.1C23.2,69.5,6.7,59,3.5,40.7  c-0.4-2.2-0.6-4.4-0.5-7.1c0.2-1.1,0.6-1.5,1.5-1.9c1.2-0.5,3.1-0.2,3.4,2.1c0.1,0.6-0.3,1.3-0.7,1.4c-0.4,0.1-1-0.3-0.9-0.6  c0.2-1.1-1.3-2-2.2-1c-1.2,1.3,0.5,6.6,1.4,8.3c1,1.9,3.7,2.7,3.9,1.4c0.1-0.9,1.3-0.8,1.4,0c0.1,0.8-1.3,2-3,1.3  c-3.2-1.4,0.5,4.5,1.5,4.8c1.2,0.4,3.1-1,2.8-2c-0.4-1,1.8-1.1,1.9,0.1c0.1,1.6-2.4,3.4-4.9,2.5c1.4,2,5.8,7.8,9.6,6  c2.1-1,0.9-1.4,0.9-2c0.1-0.7,0.8-0.9,1.2-1c0.4-0.1,1,0,1.2,1.2c0.4,2-4.1,3.7-5.8,3.3c1.9,1.9,10,6.4,11.9,2  c1-2.2-3.9-8.8-8.7-8.8c-1.6,0-3.1,0.4-4.4,1.2L14.6,52.1L14.6,52.1z M36,35.6c2,1.4,4.1,1.8,5.1,0.2s0.3-4-1.7-5.3  c-2-1.4-4.8-0.9-5.9,0.7C32.4,32.7,33.9,34.3,36,35.6L36,35.6z M26.2,46.5c0.9,1.7,3.3-0.8,1.6-2.3c-0.8-0.7-5-0.5-4.4,1.1  C23.7,46.1,25.3,44.8,26.2,46.5z" class="st0"/></svg>