<svg xmlns="http://www.w3.org/2000/svg" id="Layer_1" width="70" height="70" x="0" y="0" enable-background="new 0 0 70 70" version="1.1" viewBox="0 0 70 70" xml:space="preserve"><g><path fill="#1E3565" d="M46.48,19.079c1.657,1.924,4.074,2.61,5.585,1.507c0.966-0.706,1.348-1.988,1.15-3.386 c0.869,0.137,1.794,0.415,2.826,0.836c0.543,0.188,1.149-2.006,0.343-2.073c-8.722-1.259-13.569,5.756-13.449,5.664 C44.269,20.609,45.425,19.758,46.48,19.079L46.48,19.079z M51.486,19.863c-1.176,0.932-3.088,0.362-4.444-1.134 c1.827-1.103,3.372-1.654,5.058-1.627C52.414,18.181,52.119,19.36,51.486,19.863z"/><path fill="#1E3565" d="M8.047,22.97c1.501-4.917,4.095-9.364,7.499-13.056c15.026-6.33,34.419-6.284,48.911,5.37 C55.335,10.654,28.418,5.716,8.047,22.97L8.047,22.97z"/><path fill="#1E3565" d="M7.17,39.046c-0.669-3.553-0.763-7.197-0.279-10.777c10.631-10.807,26.554-17.887,43.243-14.41 C40.992,13.879,19.082,20.139,7.17,39.046L7.17,39.046z"/><path fill="#1E3565" d="M12.842,52.345c-1.765-2.474-3.2-5.193-4.252-8.095c6.318-13.383,18.516-25.022,34.902-27.558 C35.342,19.77,18.322,32.232,12.842,52.345L12.842,52.345z"/><path fill="#1E3565" d="M23.16,61.854c-2.502-1.491-4.796-3.295-6.828-5.356c2.186-14.138,10.812-28.896,24.657-36.579 c-0.999,1.504-1.474,3.249-1.386,5.115C31.52,33.204,23.523,45.869,23.16,61.854L23.16,61.854z"/><path fill="#1E3565" d="M35.964,66.301c-2.731-0.36-5.361-1.046-7.848-2.021c0.082-12.781,4.247-27.975,11.782-37.281 c0.406,1.632,1.223,3.321,2.477,4.992c5.985-7.014,12.892-11.966,21.419-14.155C52.141,22.245,33.989,36.326,35.964,66.301 L35.964,66.301z"/></g></svg>