<svg xmlns="http://www.w3.org/2000/svg" version="1.1" id="Layer_1" x="0px" y="0px" width="70px" height="70px" viewBox="0 0 70 70" enable-background="new 0 0 70 70" xml:space="preserve"><g><g><path fill="#2A2A86" d="M68.077,27.406c-22.715,0.629-44.698,5.784-46.736,13.088c-0.187,0.666-0.238,1.324-0.238,1.99     c0,7.193,15.031,9.658,31.299,11.688c0.281,0.031,0.268-0.188,0.175-0.348c-0.061-0.113-0.304-0.551-0.473-0.842     c-0.064-0.117-0.134-0.193-0.361-0.26c-8.908-2.264-17.948-5.572-17.948-8.656c0-5.84,15.15-11.623,32.396-14.258     c0.57-0.109,0.844-0.219,1.223-0.521c0.479-0.387,1.532-1.242,1.977-1.601c0.289-0.238,0.187-0.314,0.077-0.311     C69.004,27.381,68.544,27.392,68.077,27.406z"/><path fill="#E11B22" d="M42.95,62.639c-11.798-2.955-23.49-12.857-21.647-22.027c2.69-13.383,20.691-26.349,43.153-32.44     c0.509-0.148,0.694-0.486,0.05-0.486c-6.166,0-26.183,0-30.665,0c-5.309,0-6.456,0.689-8.514,3.469     c-1.094,1.482-10.271,14.129-14.409,19.831c-0.532,0.681-1.29,1.409-2.963,1.409c-0.926,0-7.393,0-7.393,0s0,0.004,0,0.008     C9.33,57.162,18.75,63,28.178,63c0,0,14.683,0,14.895,0C43.284,63,43.49,62.777,42.95,62.639z"/></g></g></svg>