<svg xmlns="http://www.w3.org/2000/svg" id="Layer_1" width="70" height="70" x="0" y="0" version="1.1" viewBox="0 0 70 70" xml:space="preserve" style="enable-background:new 0 0 70 70"><style type="text/css">.st0{clip-path:url(#SVGID_2_);fill:url(#SVGID_3_)}.st1{fill-rule:evenodd;clip-rule:evenodd;fill:#ec2027}</style><g><g><defs><path id="SVGID_1_" d="M22.3,51.8l-0.2,0.2C16,56,8.7,56.7,3.1,54.4c0.4-20.7,31-35,50.6-36.2c-0.1-0.6-0.2-1.1-0.4-1.8 c0.3-0.1,0.7-0.1,1,0c0.3,0.5,0.5,1.1,0.7,1.8c0.4,0,0.8,0,1.2,0c0.3,0,0.4,0.5,0,0.6c-0.4,0-0.8,0.1-1.2,0.1 c-0.1,0.9-0.3,1.7-0.5,2.3c-0.3,0.1-0.6,0.3-0.9,0.3c0.1-0.7,0.1-1.7,0.1-2.4C36.2,21.7,10,35.7,10,53.2 C13.7,54.4,18.3,53.9,22.3,51.8"/></defs><clipPath id="SVGID_2_"><use xmlns:xlink="http://www.w3.org/1999/xlink" style="overflow:visible" xlink:href="#SVGID_1_"/></clipPath><linearGradient id="SVGID_3_" x1="-261.572" x2="-261.276" y1="453.985" y2="453.985" gradientTransform="matrix(-75.7521 46.1581 -45.632 -74.8887 933.6894 46107.1172)" gradientUnits="userSpaceOnUse"><stop offset="0" style="stop-color:#ec1c24"/><stop offset="1" style="stop-color:#f48120"/></linearGradient><polygon points="42.1 -7.5 -14.9 27.2 17.5 80.5 74.5 45.8" class="st0"/></g><path d="M12.7,29.5c-5.6-4.6-8.5-11.2-8-17.1c5.8-1.9,13-0.6,18.8,4c2.5,1.9,4.4,4.3,5.8,6.8c0,0.2,0,0.3,0,0.5 c-0.5,0.2-1.1,0.5-1.6,0.7c-1.1-1.2-2.3-2.4-3.8-3.3c-5-3.3-10.9-3.9-15.5-2C8.4,22.7,10,26.5,12.7,29.5 M44,18.8 c0.3-4.5-1-8.7-3.6-11.7c-4.5,1.5-8.5,5.5-10.2,11c0.2-1.3,0.6-2.6,1.1-3.9c2.6-6.9,8-11.8,14-13.2c3.2,4.4,4.3,10.7,2.7,17 C46.6,18.2,45.3,18.5,44,18.8z M68.6,36C65,40.9,58.4,44.1,51,43.8c-3.6-0.1-7-1.1-9.8-2.6c2.2,2.4,3.9,5.5,4.9,9 c2,7.1,0.5,14.3-3.5,18.9c-5.8-1.9-10.8-7.2-12.8-14.3c-0.8-3-1.1-6-0.7-8.8c0.6-0.8,1-1.6,1.4-2.5c-0.3,2.6,0.1,5.4,1.1,8.2 c2.1,5.6,6.6,9.6,11.4,10.7c2.9-4,3.7-9.9,1.5-15.5c-1-2.8-2.6-5.1-4.5-6.9c2.4,1.1,5.2,1.6,8.1,1.5c6-0.3,11.1-3.3,13.7-7.5 c-2.9-4-8.3-6.5-14.3-6.3c-2.9,0.1-5.7,0.9-8,2.2c1.7-1.9,3.1-4.4,3.9-7.2c1.1-0.4,2.3-0.8,3.4-1.1c-1.2,2.8-3,5.2-5,7.2 c3-1.3,6.4-2,10-1.8C59.1,27.1,65.4,30.8,68.6,36z M32.3,30.6c1.9,0,3.4,1.5,3.4,3.4c0,1.9-1.5,3.4-3.4,3.4c-1.9,0-3.4-1.5-3.4-3.4 C28.9,32.1,30.4,30.6,32.3,30.6z" class="st1"/></g></svg>