<svg xmlns="http://www.w3.org/2000/svg" id="Layer_1" width="70" height="70" x="0" y="0" enable-background="new 0 0 70 70" version="1.1" viewBox="0 0 70 70" xml:space="preserve"><metadata/><rect width="70" height="70" fill="none"/><g><path fill="#35A769" d="M10.2,42.3c0,0-1,1-2.3,1.2c-1.4,0.2-2.9,0-2.9,0s0.8,1.3,1.3,1.4c0.5,0.199,1,0.3,1,0.399 c0,0.101-3.9,0.8-3.9,1.4c0,0.6,5.3,0.8,5.3,0.8s0.4,0.8,4,0.8c3.6,0,11.5,0,11.5,0s1.4,1,3.8,1s2.5-0.3,2.9-0.3l6-2.8l-2.101-2 L28.7,45h-2l-13.9-0.4L10.2,42.3z"/><g><g><rect width="6.3" height="1.8" x="28.2" y="24.7" fill="none" stroke="#B09D50" stroke-miterlimit="10" stroke-width=".211"/><rect width="6.3" height="1.8" x="28.2" y="24.7" fill="#FBED26"/></g><g><polygon fill="none" stroke="#B09D50" stroke-miterlimit="10" stroke-width=".211" points="35.5 28.4 25.7 28.4 26.3 26.3 34.8 26.3"/><polygon fill="#FBED26" points="35.5 28.4 25.7 28.4 26.3 26.3 34.8 26.3"/></g><g><polygon fill="none" stroke="#B09D50" stroke-miterlimit="10" stroke-width=".211" points="38.9 29.6 23.8 29.6 24.5 27.5 38.3 27.5"/><polygon fill="#FBED26" points="38.9 29.6 23.8 29.6 24.5 27.5 38.3 27.5"/></g><g><polygon fill="none" stroke="#B09D50" stroke-miterlimit="10" stroke-width=".211" points="40.5 31.2 22.1 31.2 22.7 29.1 39.9 29.1"/><polygon fill="#FBED26" points="40.5 31.2 22.1 31.2 22.7 29.1 39.9 29.1"/></g><g><polygon fill="none" stroke="#B09D50" stroke-miterlimit="10" stroke-width=".211" points="41.9 32.8 20.8 32.8 21.4 30.7 41.2 30.7"/><polygon fill="#FBED26" points="41.9 32.8 20.8 32.8 21.4 30.7 41.2 30.7"/></g><g><polygon fill="none" stroke="#B09D50" stroke-miterlimit="10" stroke-width=".211" points="43.2 34.1 19.1 34.1 19.8 32 42.6 32"/><polygon fill="#FBED26" points="43.2 34.1 19.1 34.1 19.8 32 42.6 32"/></g><g><polygon fill="none" stroke="#B09D50" stroke-miterlimit="10" stroke-width=".211" points="44.9 35.8 18 35.8 18.6 33.7 44.3 33.7"/><polygon fill="#FBED26" points="44.9 35.8 18 35.8 18.6 33.7 44.3 33.7"/></g><g><polygon fill="none" stroke="#B09D50" stroke-miterlimit="10" stroke-width=".211" points="46.4 37.3 16.2 37.3 16.8 35.2 45.7 35.2"/><polygon fill="#FBED26" points="46.4 37.3 16.2 37.3 16.8 35.2 45.7 35.2"/></g><g><polygon fill="none" stroke="#B09D50" stroke-miterlimit="10" stroke-width=".211" points="48.3 39.1 14.6 39.1 15.3 37 47.7 37"/><polygon fill="#FBED26" points="48.3 39.1 14.6 39.1 15.3 37 47.7 37"/></g><g><polygon fill="none" stroke="#B09D50" stroke-miterlimit="10" stroke-width=".211" points="49.2 40.8 13 40.8 13.6 38.7 48.6 38.7"/><polygon fill="#FBED26" points="49.2 40.8 13 40.8 13.6 38.7 48.6 38.7"/></g><g><polygon fill="none" stroke="#B09D50" stroke-miterlimit="10" stroke-width=".211" points="47.5 42.6 11.3 42.6 11.9 40.5 46.9 40.5"/><polygon fill="#FBED26" points="47.5 42.6 11.3 42.6 11.9 40.5 46.9 40.5"/></g><g><polygon fill="none" stroke="#B09D50" stroke-miterlimit="10" stroke-width=".211" points="45.8 44.2 9.6 44.2 10.3 42.1 45.2 42.1"/><polygon fill="#FBED26" points="45.8 44.2 9.6 44.2 10.3 42.1 45.2 42.1"/></g><g><rect width="36.2" height="1.101" x="8.6" y="44.1" fill="none" stroke="#B09D50" stroke-miterlimit="10" stroke-width=".211"/><rect width="36.2" height="1.101" x="8.6" y="44.1" fill="#FBED26"/></g><g><polygon fill="#FBED26" points="33.3 26.7 29.3 26.7 27.2 44.8 35.2 44.8"/></g><polygon fill="#FFF" points="27.1 45.6 27.2 44.6 35.1 44.6 35.3 45.7"/><g><line x1="35.2" x2="33.4" y1="45.2" y2="27.4" fill="none" stroke="#B09D50" stroke-miterlimit="10" stroke-width=".106"/></g><g><line x1="29.2" x2="27.1" y1="27.4" y2="45.2" fill="none" stroke="#B09D50" stroke-miterlimit="10" stroke-width=".106"/></g><g><polygon fill="none" stroke="#B09D50" stroke-miterlimit="10" stroke-width=".211" points="32.9 27.6 29.6 27.6 27.5 45.5 34.8 45.5"/><polygon fill="#FBED26" points="32.9 27.6 29.6 27.6 27.5 45.5 34.8 45.5"/></g><line x1="34.8" x2="35.1" y1="44.6" y2="44.6" fill="none" stroke="#B09D50" stroke-miterlimit="10" stroke-width=".106"/><line x1="27.2" x2="27.6" y1="44.6" y2="44.6" fill="none" stroke="#B09D50" stroke-miterlimit="10" stroke-width=".106"/></g><g><path fill="none" stroke="#B09D50" stroke-miterlimit="10" stroke-width=".317" d="M47.6,43c-0.5-2-1.5-10-1.8-13 s-0.2-3.7-0.2-3.7s0.301,0.6,0.601,0.3c0.3-0.3,0.5-1.2,0.5-1.2s0.1,5.6,1.1,9.1c1.101,3.4,2.8,6.5,3.5,7.7s1,1.7,1,1.7L47.6,43z"/><path fill="#FFF" d="M47.6,43c-0.5-2-1.5-10-1.8-13s-0.2-3.7-0.2-3.7s0.301,0.6,0.601,0.3c0.3-0.3,0.5-1.2,0.5-1.2 s0.1,5.6,1.1,9.1c1.101,3.4,2.8,6.5,3.5,7.7s1,1.7,1,1.7L47.6,43z"/></g><g><g><path fill="none" stroke="#35A769" stroke-linecap="round" stroke-linejoin="round" stroke-miterlimit="10" stroke-width=".211" d="M45.2,25.4v2.2c0,0-0.4-1.3-1.3-1.8c0,0,0.1,1.4,0,1.6c0,0-0.601-0.6-1.101-0.6c-0.6,0-1,0.9-1,0.9s0.8-2.9,2-2.9 C44.2,24.8,45.2,25.4,45.2,25.4z"/><path fill="#FFF" d="M45.2,25.4v2.2c0,0-0.4-1.3-1.3-1.8c0,0,0.1,1.4,0,1.6c0,0-0.601-0.6-1.101-0.6c-0.6,0-1,0.9-1,0.9 s0.8-2.9,2-2.9C44.2,24.8,45.2,25.4,45.2,25.4z"/></g><g><path fill="none" stroke="#35A769" stroke-linecap="round" stroke-linejoin="round" stroke-miterlimit="10" stroke-width=".211" d="M47.2,24.7V28c0,0,1.2-0.7,1.2-0.8c0.1-0.1,0.3-0.1,0.3-0.1s0.6,0.4,0.6,0.6c0,0.3,0,0.6,0,0.6s0.7-0.4,0.8-1 c0,0,0.7,1.3,0.301,2.4c0,0,0.899-1,0.8-1.8c0,0,0.8,1.5,0.899,2.2c0.101,0.7,0.301,1.1,0.101,1.6c0,0,1.2-1.7,1.399-2.3 c0.2-0.7,0.4-1.4-0.3-2.2c-0.7-0.7-2.6-2.2-4.2-2.3C47.7,24.6,47.2,24.7,47.2,24.7z"/><path fill="#FFF" d="M47.2,24.7V28c0,0,1.2-0.7,1.2-0.8c0.1-0.1,0.3-0.1,0.3-0.1s0.6,0.4,0.6,0.6c0,0.3,0,0.6,0,0.6 s0.7-0.4,0.8-1c0,0,0.7,1.3,0.301,2.4c0,0,0.899-1,0.8-1.8c0,0,0.8,1.5,0.899,2.2c0.101,0.7,0.301,1.1,0.101,1.6 c0,0,1.2-1.7,1.399-2.3c0.2-0.7,0.4-1.4-0.3-2.2c-0.7-0.7-2.6-2.2-4.2-2.3C47.7,24.6,47.2,24.7,47.2,24.7z"/></g><g><path fill="none" stroke="#35A769" stroke-linecap="round" stroke-linejoin="round" stroke-miterlimit="10" stroke-width=".211" d="M45.4,23.7l0.8,1.6l0.399-2c0,0,1.2,1,1.101,1.7c0,0,1-1,0.8-1.5c0,0,1.2,1.3,1.4,2.1c0,0,0.6-1.2,0.399-2.1c0,0,0.8,2,0.7,2.8 c0,0,0.9-1.6,0.7-2.5c0,0,1.2,1.8,1.1,3.2c0,0,0.7-0.9,0.5-1.8c0,0,1,1.7,1,2.6c0,0,0.4-0.4,0.5-1.2c0,0,1,1.8,0.9,3.5 c0,0,0.6-1.3,0.5-2.2c0,0,1.2,1.2,1.2,1.9c0,0,0.199-1.1,0.1-1.6c0,0,0.9,1.6,1.3,2.1c0,0,0.3-1.3-0.2-2.2 c-0.5-0.8-2.5-2.4-3.6-3.7c-1.1-1.3-1.8-2.1-2-2.3c-0.2-0.2-0.4-0.3-0.8-0.3c-0.4,0-3.9,0.1-5.3,0.7 C45.6,23.3,45.4,23.4,45.4,23.7z"/><path fill="#FFF" d="M45.4,23.7l0.8,1.6l0.399-2c0,0,1.2,1,1.101,1.7c0,0,1-1,0.8-1.5c0,0,1.2,1.3,1.4,2.1 c0,0,0.6-1.2,0.399-2.1c0,0,0.8,2,0.7,2.8c0,0,0.9-1.6,0.7-2.5c0,0,1.2,1.8,1.1,3.2c0,0,0.7-0.9,0.5-1.8c0,0,1,1.7,1,2.6 c0,0,0.4-0.4,0.5-1.2c0,0,1,1.8,0.9,3.5c0,0,0.6-1.3,0.5-2.2c0,0,1.2,1.2,1.2,1.9c0,0,0.199-1.1,0.1-1.6c0,0,0.9,1.6,1.3,2.1 c0,0,0.3-1.3-0.2-2.2c-0.5-0.8-2.5-2.4-3.6-3.7c-1.1-1.3-1.8-2.1-2-2.3c-0.2-0.2-0.4-0.3-0.8-0.3c-0.4,0-3.9,0.1-5.3,0.7 C45.6,23.3,45.4,23.4,45.4,23.7z"/></g><g><path fill="none" stroke="#35A769" stroke-linecap="round" stroke-linejoin="round" stroke-miterlimit="10" stroke-width=".211" d="M54.6,21c-0.1,0.6,0.301,1.8,0.301,1.8c0.699-0.8,0.699-2,0.699-2c0.7,0.9,1.101,3.1,1.101,3.1c0.2-0.7,0.2-3.2,0.2-3.2 c0.5,1.2,0.8,4.2,0.8,4.2C58.1,24,58.1,21.2,58.1,21.2C58.8,22.3,59,25,59,25c0.4-0.7,0.4-2.5,0.4-2.5c0.5,0.7,0.8,2.6,0.8,2.6 c0.3-1.5-0.101-3.9-0.101-3.9c0.4,1,1,3.4,1,3.4c0.4-1.9,0-3.3,0-3.3c0.601,0.8,1.101,2.6,1.101,2.6c0.2-1.2-0.101-3.4-0.101-3.4 c1.101,1,1.9,5.1,1.9,5.1s0.4-2.3-0.7-5.1c-1.1-2.8-4.2-2.7-5.5-2.7c-0.6,0-1.7,0-2.899,0.1c0,0-0.101,1.5-0.101,2 C54.7,20.5,54.6,20.8,54.6,21z"/><path fill="#FFF" d="M54.6,21c-0.1,0.6,0.301,1.8,0.301,1.8c0.699-0.8,0.699-2,0.699-2c0.7,0.9,1.101,3.1,1.101,3.1 c0.2-0.7,0.2-3.2,0.2-3.2c0.5,1.2,0.8,4.2,0.8,4.2C58.1,24,58.1,21.2,58.1,21.2C58.8,22.3,59,25,59,25c0.4-0.7,0.4-2.5,0.4-2.5 c0.5,0.7,0.8,2.6,0.8,2.6c0.3-1.5-0.101-3.9-0.101-3.9c0.4,1,1,3.4,1,3.4c0.4-1.9,0-3.3,0-3.3c0.601,0.8,1.101,2.6,1.101,2.6 c0.2-1.2-0.101-3.4-0.101-3.4c1.101,1,1.9,5.1,1.9,5.1s0.4-2.3-0.7-5.1c-1.1-2.8-4.2-2.7-5.5-2.7c-0.6,0-1.7,0-2.899,0.1 c0,0-0.101,1.5-0.101,2C54.7,20.5,54.6,20.8,54.6,21z"/></g><g><path fill="none" stroke="#35A769" stroke-linecap="round" stroke-linejoin="round" stroke-miterlimit="10" stroke-width=".211" d="M53.4,21.9c0,0-0.301-0.3-1.7-0.4c-1.5-0.1-5.4,1-5.4,1s1.601-3.1,4.5-3.9c0.601-0.2,1.101-0.3,1.7-0.4c0,0,0.1,0,0.2,0.3 C52.7,18.8,53.4,21,53.4,21.9z"/><path fill="#FFF" d="M53.4,21.9c0,0-0.301-0.3-1.7-0.4c-1.5-0.1-5.4,1-5.4,1s1.601-3.1,4.5-3.9c0.601-0.2,1.101-0.3,1.7-0.4 c0,0,0.1,0,0.2,0.3C52.7,18.8,53.4,21,53.4,21.9z"/></g><g><path fill="none" stroke="#35A769" stroke-linecap="round" stroke-linejoin="round" stroke-miterlimit="10" stroke-width=".211" d="M46,22.5l-0.3-2.2c0,0,4.6-5.7,5.5-6.1c1-0.5,2.2-0.8,2.7,1.5C54.4,18,54.3,20.2,54.1,21c-0.1,0.8-0.3,1.6-0.3,1.6 s-0.5-4.4-1.899-5.7c0,0,0.1,1.9-0.101,2.6c0,0-1.2-0.9-1.8-2.6l-0.1-0.1c0,0,0.8,1.9,0.399,2.5c-0.1,0.1-1.1-1.1-1.1-1.1 s0.2,1.2,0.2,1.5c0,0-1-0.6-1.301-1.1c0,0,0.801,1.8,0.801,2.3c0,0-0.801-0.2-1.101-0.7s-0.6-0.6-0.7-0.3 C47,20.2,47.2,21.8,47.2,21.8l-0.8-1C46.5,20.6,46.3,22.1,46,22.5z"/><path fill="#FFF" d="M46,22.5l-0.3-2.2c0,0,4.6-5.7,5.5-6.1c1-0.5,2.2-0.8,2.7,1.5C54.4,18,54.3,20.2,54.1,21 c-0.1,0.8-0.3,1.6-0.3,1.6s-0.5-4.4-1.899-5.7c0,0,0.1,1.9-0.101,2.6c0,0-1.2-0.9-1.8-2.6l-0.1-0.1c0,0,0.8,1.9,0.399,2.5 c-0.1,0.1-1.1-1.1-1.1-1.1s0.2,1.2,0.2,1.5c0,0-1-0.6-1.301-1.1c0,0,0.801,1.8,0.801,2.3c0,0-0.801-0.2-1.101-0.7 s-0.6-0.6-0.7-0.3C47,20.2,47.2,21.8,47.2,21.8l-0.8-1C46.5,20.6,46.3,22.1,46,22.5z"/></g><g><path fill="none" stroke="#35A769" stroke-linecap="round" stroke-linejoin="round" stroke-miterlimit="10" stroke-width=".211" d="M54.2,14.6c0,0,0.399,1.3,0.399,2.1c0,0,1.7-0.2,2.101,0.4c0,0-0.4-0.6-0.4-0.7s1.101-0.2,1.7,0.1c0.6,0.2,1.7,0.7,1.7,0.7 s-2.9-2-3.5-2.4C55.7,14.4,54.5,14.4,54.2,14.6z"/><path fill="#FFF" d="M54.2,14.6c0,0,0.399,1.3,0.399,2.1c0,0,1.7-0.2,2.101,0.4c0,0-0.4-0.6-0.4-0.7s1.101-0.2,1.7,0.1 c0.6,0.2,1.7,0.7,1.7,0.7s-2.9-2-3.5-2.4C55.7,14.4,54.5,14.4,54.2,14.6z"/></g><g><path fill="none" stroke="#35A769" stroke-linecap="round" stroke-linejoin="round" stroke-miterlimit="10" stroke-width=".211" d="M45.6,19.8c0,0,1.5-2.1,1.7-2.2c0.2-0.2,0.3-0.3,0.3-0.4c0-0.1-0.199-0.3-0.199-0.3s1.1-0.4,1.1-0.9c0-0.4-0.4-0.6-0.4-0.6 s0.301-0.2,0.601-0.1c0.3,0,0.7,0.1,0.7,0.1s0-0.2-0.2-0.5C49,14.6,49,14.5,49,14.5s0.3-0.1,0.6-0.1c0.4,0.1,0.601,0.2,0.601,0.2 S50,14.2,49.9,14c0-0.2-0.2-0.4-0.2-0.4s0.8,0.5,1.1,0.5s0.5-0.8-0.3-1.2S49,12.6,49,12.6v-0.8c0,0-3.6,0.4-3.6,4.7 c0,0,0.399-4.6-4-4.6c-2,0-2.301,0.9-2.301,0.9s0.4,0,0.601,0s0.5-0.1,0.6,0.1c0.101,0.2,0.101,0.6,0.101,0.6l1,0.1 c0,0,0.199,0.3,0.1,0.4c-0.1,0.2-0.2,0.4-0.2,0.4s0.5-0.1,0.8-0.1c0.301,0,0.5,0,0.5,0S42.2,14.5,42,14.8 C41.8,15,41.8,15,41.8,15s1.7,0,2,0c0,0-0.6,0.5-0.6,0.7c0,0.2,0,0.3,0.2,0.3c0.199,0,0.699-0.2,0.699-0.2s0.101,0.2,0,0.3 C44,16.3,43.9,16.4,43.9,16.4s0.199,0.1,0.3,0.1c0.1,0,0.399-0.2,0.399-0.2S44.4,16.6,44.4,17c0.1,0.3,0.8,1,0.8,1.6 C45.4,19.2,45.6,19.8,45.6,19.8z"/><path fill="#FFF" d="M45.6,19.8c0,0,1.5-2.1,1.7-2.2c0.2-0.2,0.3-0.3,0.3-0.4c0-0.1-0.199-0.3-0.199-0.3s1.1-0.4,1.1-0.9 c0-0.4-0.4-0.6-0.4-0.6s0.301-0.2,0.601-0.1c0.3,0,0.7,0.1,0.7,0.1s0-0.2-0.2-0.5C49,14.6,49,14.5,49,14.5s0.3-0.1,0.6-0.1 c0.4,0.1,0.601,0.2,0.601,0.2S50,14.2,49.9,14c0-0.2-0.2-0.4-0.2-0.4s0.8,0.5,1.1,0.5s0.5-0.8-0.3-1.2S49,12.6,49,12.6v-0.8 c0,0-3.6,0.4-3.6,4.7c0,0,0.399-4.6-4-4.6c-2,0-2.301,0.9-2.301,0.9s0.4,0,0.601,0s0.5-0.1,0.6,0.1 c0.101,0.2,0.101,0.6,0.101,0.6l1,0.1c0,0,0.199,0.3,0.1,0.4c-0.1,0.2-0.2,0.4-0.2,0.4s0.5-0.1,0.8-0.1c0.301,0,0.5,0,0.5,0 S42.2,14.5,42,14.8C41.8,15,41.8,15,41.8,15s1.7,0,2,0c0,0-0.6,0.5-0.6,0.7c0,0.2,0,0.3,0.2,0.3c0.199,0,0.699-0.2,0.699-0.2 s0.101,0.2,0,0.3C44,16.3,43.9,16.4,43.9,16.4s0.199,0.1,0.3,0.1c0.1,0,0.399-0.2,0.399-0.2S44.4,16.6,44.4,17 c0.1,0.3,0.8,1,0.8,1.6C45.4,19.2,45.6,19.8,45.6,19.8z"/></g><g><path fill="none" stroke="#35A769" stroke-linecap="round" stroke-linejoin="round" stroke-miterlimit="10" stroke-width=".211" d="M45.1,23.6c0,0,0.101,0.8,0.4,1.2c0.3,0.4,0.3,0.8,0.3,0.8s-0.7-0.8-1.3-1c-0.6-0.3-0.8-0.3-0.8-0.3s-0.601,1.3-0.2,2.1 c0,0-1.5-1.3-1.5-2l-0.7,1.7L40.4,26l0.1-1.4l-1,2.4l-1.2-1.5l0.101,1.3L37.5,26l-0.8,1.6L36,26.7l-1.1,1.4c0,0-0.8-0.6-0.7-1.1 c0,0-0.8,0.8-0.7,1.3c0,0-0.8-0.5-0.7-1.2l-1.1,2.5c0,0-0.1-2.1,0-2.6c0,0-1.1,1-1.5,1.3c0,0,1.1-2.3,2.3-3.1 c1.3-0.8,3-1.2,3.9-1.7c0.899-0.5,1.699-1.7,4-1.6C42.8,22.1,44.4,23.4,45.1,23.6z"/><path fill="#FFF" d="M45.1,23.6c0,0,0.101,0.8,0.4,1.2c0.3,0.4,0.3,0.8,0.3,0.8s-0.7-0.8-1.3-1c-0.6-0.3-0.8-0.3-0.8-0.3 s-0.601,1.3-0.2,2.1c0,0-1.5-1.3-1.5-2l-0.7,1.7L40.4,26l0.1-1.4l-1,2.4l-1.2-1.5l0.101,1.3L37.5,26l-0.8,1.6L36,26.7l-1.1,1.4 c0,0-0.8-0.6-0.7-1.1c0,0-0.8,0.8-0.7,1.3c0,0-0.8-0.5-0.7-1.2l-1.1,2.5c0,0-0.1-2.1,0-2.6c0,0-1.1,1-1.5,1.3 c0,0,1.1-2.3,2.3-3.1c1.3-0.8,3-1.2,3.9-1.7c0.899-0.5,1.699-1.7,4-1.6C42.8,22.1,44.4,23.4,45.1,23.6z"/></g><g><path fill="none" stroke="#35A769" stroke-linecap="round" stroke-linejoin="round" stroke-miterlimit="10" stroke-width=".211" d="M44.6,22.5c0,0,0.7-1.5,0.7-2s-0.6-2.9-1.399-3.6c-0.801-0.7-5.601-4.3-10.5-4.6c-4.9-0.3-7.6,0.6-9,3.2c0,0,2.3-1.9,4.1-1.8 c0,0-1.9,0.8-2.4,2.6c0,0,1.8-2,3.1-2.3c0,0-1.7,1.6-2.3,3.5c0,0,4-2.9,5.1-4.5c0,0-2.6,2.8-2.8,4.2c0,0,2.9-1.8,3.3-2.9 c0,0-1.6,2.3-1.5,3.4c0,0,3.1-3.7,3.3-4.2c0,0-1.9,3-1.6,5.1c0,0,1.9-2.9,1.9-3.5c0,0-0.1,2.7-0.4,3.3c0,0,1.899-2.6,2-3.9 c0,0-0.4,3-0.7,3.9c0,0,0.7-0.2,0.9-0.8c0.199-0.6,0.6-1.7,1.1-1.9c0,0-1,1.5-0.9,3.2c0.101,1.7,0.2,1.8,0.2,1.8 c0.101-0.1,0.3-1.9,0.601-2.6c0.199-0.7,2.1-2.8,2.1-2.8S38.2,17,38.3,18c0.101,1,0.101,1.2,0.101,1.2s0.5-0.4,0.6-0.7 c0.1-0.4,0.9-1.9,0.9-1.9s-0.601,1.5-0.5,2.3c0.1,0.9,0.1,0.9,0.1,0.9s0.7-1.3,1.3-1.8c0,0-0.399,1.3-0.1,2.4 c0,0,1.1-1.6,1.2-2.1c0,0-0.801,2.1-0.301,4.3c0,0,0.4-0.8,0.801-1.2c0.3-0.3,1-1.6,1-1.9c0,0-0.2,3.1,0,3.6c0,0,0.3-1.5,0.5-2.1 c0.199-0.6,0.399-1.2,0.399-1.2S44.6,22.1,44.6,22.5z"/><path fill="#FFF" d="M44.6,22.5c0,0,0.7-1.5,0.7-2s-0.6-2.9-1.399-3.6c-0.801-0.7-5.601-4.3-10.5-4.6c-4.9-0.3-7.6,0.6-9,3.2 c0,0,2.3-1.9,4.1-1.8c0,0-1.9,0.8-2.4,2.6c0,0,1.8-2,3.1-2.3c0,0-1.7,1.6-2.3,3.5c0,0,4-2.9,5.1-4.5c0,0-2.6,2.8-2.8,4.2 c0,0,2.9-1.8,3.3-2.9c0,0-1.6,2.3-1.5,3.4c0,0,3.1-3.7,3.3-4.2c0,0-1.9,3-1.6,5.1c0,0,1.9-2.9,1.9-3.5c0,0-0.1,2.7-0.4,3.3 c0,0,1.899-2.6,2-3.9c0,0-0.4,3-0.7,3.9c0,0,0.7-0.2,0.9-0.8c0.199-0.6,0.6-1.7,1.1-1.9c0,0-1,1.5-0.9,3.2 c0.101,1.7,0.2,1.8,0.2,1.8c0.101-0.1,0.3-1.9,0.601-2.6c0.199-0.7,2.1-2.8,2.1-2.8S38.2,17,38.3,18c0.101,1,0.101,1.2,0.101,1.2 s0.5-0.4,0.6-0.7c0.1-0.4,0.9-1.9,0.9-1.9s-0.601,1.5-0.5,2.3c0.1,0.9,0.1,0.9,0.1,0.9s0.7-1.3,1.3-1.8c0,0-0.399,1.3-0.1,2.4 c0,0,1.1-1.6,1.2-2.1c0,0-0.801,2.1-0.301,4.3c0,0,0.4-0.8,0.801-1.2c0.3-0.3,1-1.6,1-1.9c0,0-0.2,3.1,0,3.6c0,0,0.3-1.5,0.5-2.1 c0.199-0.6,0.399-1.2,0.399-1.2S44.6,22.1,44.6,22.5z"/></g></g><path fill="#35A769" d="M27.8,47.4l6-2.301c0,0,1.6-0.6,2.4-1c0.8-0.399,4.5-1,4.5-1s0-0.199,0.2-0.8c0.199-0.6,1.5-1.2,1.5-1.2 C42.3,40.4,43,39.9,43,39.9s0.4,0.3,0.6,0.6c0.2,0.2,0.5,0.8,0.5,0.8S44.4,41.1,44.7,40.9c0.3-0.2,1.6-0.5,1.6-0.5s0,0.6-0.1,1 C46.1,41.8,46.7,42.1,46.7,42.1S46.6,41.9,46.8,41.6c0.2-0.399,2,0.2,2,0.2s0-0.5,0-0.8s0.3-0.2,0.4,0.1c0.2,0.301,1,1.2,1,1.2 s0-0.1-0.101-0.8c-0.1-0.7,0.7-1.6,0.7-1.6s-0.2,0.399-0.2,0.8C50.6,41.1,51,42,51,42s0.8,0.1,1.4,0.2c0.6,0.1,3.1,1,3.3,1.1 c0.2,0.101,4.7-0.1,6.7,0.2s0.5,1.9,0.399,2c-0.1,0.1-0.1,0.2,0.2,0.3c0.2,0.101,2.3,0.5,2.3,0.5s-0.6,0.2-1.5,0.3 c-1,0.101-1.5,0.101-1.5,0.101s-1.7,1.2-3.2,1.7S52.2,48.9,49.7,48.8c-2.5-0.1-6.3,1.2-10.3,1.2c-4,0.1-8.2-1-8.601-1L27.8,47.4z"/><g><path fill="#844B9E" d="M37.8,41.4C37.6,41.4,37.4,41.3,37.4,40.8s0.5-1.1,0.5-1.1s-0.7,0-0.801,0.1c-0.1,0-0.5,0.3-0.899,0.601 l0.2-0.5H35.3l-0.7,1.6c-0.4,0.5-1.1,1.2-1.3,1.4c-0.4,0.399-0.8,0.5-0.7-0.101l1.4-3h-1l-0.7,1.4c-0.2,0.399-1.7,2.1-2,2.1 c-0.3,0-0.2-0.3-0.1-0.5l1.4-3h-1L30.5,40c0,0-0.1-0.4-0.7-0.4c-0.6,0-2.5,0.9-2.5,2.9c0,0.9,0.4,1.2,0.8,1.2s1-0.5,1.1-0.601 c0.1-0.1,0.2,0,0.2,0.101c0,0.1,0,0.6,0.6,0.6s1.8-1.399,1.8-1.399S31.4,43.8,32.3,43.8c0.7,0,1.4-0.899,1.8-1.399L33.5,43.6h1 l0.9-1.8c0.4-0.6,0.9-1.1,0.9-1.1s0.4,1.2,1,1.2c0.601,0,1.2-1,1.2-1h-0.1C38.5,40.7,38,41.4,37.8,41.4z M28.8,43.2 c-0.3,0-0.4-0.4-0.4-0.7c0-0.6,0.9-2.4,1.5-2.4c0.3,0,0.3,0.301,0.3,0.601C30.2,40.9,29.3,43.2,28.8,43.2z"/><path fill="#844B9E" d="M28,36.5h1.7c0,0,0.6-0.6,0.6-0.9c0-0.3-0.8-0.3-0.8-0.3s0.4-3.7,0.6-4.8c0.2-1.1,0.3-2.3,0.3-2.3 s-1.9-0.2-2.6,0.1c-0.8,0.3-1.9,0.9-2.4,2.2s-0.7,4.9-0.5,5.6c0.2,0.7,1.2,1,1.7,0.4s1.3-2.1,1.3-2.1L28,36.5z M26.4,35.1 c0,0-0.2-3,0.4-3.8c0.8-1.2,1.8-1.1,1.8-1.1S28.4,32,28,32.7C27.7,33.4,26.4,35.1,26.4,35.1z"/><path fill="#844B9E" d="M22.8,30.4c-0.1,1.1-1.2,3.9-2.2,4.7c-0.7,0.5-0.4-0.3-0.4-1.1s0.6-5.6,0.6-5.6h-1.5 c0.1,1.7-0.2,4.9-0.6,6.4c-0.3,1.5,0.1,3.101,0.7,3.101s2.3-2.8,2.3-2.8s0.4,2.5-0.7,4.1c-1.1,1.6-2.6,1.1-2.6,1.1v1.9 c3.4-0.101,3.9-2.101,4.6-4.3c0.9-3,1.1-9.4,1.1-9.4h-1.2C22.9,28.4,22.9,29.4,22.8,30.4z"/><circle cx="34.4" cy="38.1" r=".6" fill="#844B9E"/><path fill="#844B9E" d="M12.5,24.9H9.9l-2.6,9.4c0,0-0.3-4.8-0.5-7c-0.2-2.3-1.5-2.6-2-2.6S3.6,25,3.6,25v2.7c0,0,0.2-0.4,0.8-0.3 c0.9,0.1,1.3,1.2,1.5,4c0.2,2.8,0.1,9,0.1,9h1c0.4-4.601,3.3-11.7,3.3-11.7c-0.2,1.1-1,7.3-1,9S9.5,40.1,10,40.1s1.5-1.1,1.5-1.1 l-0.1-0.8c0,0,0,0-0.5,0.1c-0.5,0.101-0.2-1.7,0.1-4.9S12.5,24.9,12.5,24.9z"/><path fill="#844B9E" d="M35.1,29c0,3.1,2.3,3.6,2.3,3.6l0.5-1.7c0,0-2.301-2.3-1.5-3.8c0.8-1.5,3.899,0.1,3.899,0.1s-1,1.3-1,3.3 s-0.1,4.3-1.7,4.3c-1.6,0-1.699-0.7-1.699-0.7L35.8,36.3c0,0,0.9,0.4,1.601,0.4c0.699,0,3.199-2.1,3.3-3.6c0.2-1.4,0.5-6.4,1-7.3 c0,0-1.8-1-3-1S35.1,25.9,35.1,29z"/><path fill="#844B9E" d="M18.2,28.5c0,0-1.1,0-1.8,0c-0.8,0.1-3.3,0.6-3.7,5.2c-0.4,4.7,0.2,5.2,0.9,5.2c0.7,0,1.9-2.5,1.9-2.801 c0-0.3,0-0.3,0-0.3h0.3v2.9h1.3c0,0,0.6-0.4,0.7-0.9c0.1-0.5-0.2-0.8-0.5-0.7c0,0,0.3-4.899,0.5-6.1C18,29.8,18.2,28.5,18.2,28.5z M15.5,34.2c-0.7,1.7-1.6,2.399-1.6,2.399s-0.2-3.1,0.6-4.5c0.9-1.3,2-1.3,2-1.3S16.2,32.5,15.5,34.2z"/><path fill="#844B9E" d="M3.8,28.8c0,0,0.1,1.3-0.3,6.2c-0.4,4.9-1.4,7.9-1.9,8.4L1.8,46.3c0,0,1.3-0.5,2.4-7.2 c1.1-6.7,0.9-10.3,0.9-10.3H3.8z"/><path fill="#844B9E" d="M61.2,33c0-3.3-0.2-3.7-0.9-3.7s-1.7,2.4-1.8,2.8s-0.3,0.4-0.4,0.1c0-0.3-0.1-3.3-0.1-3.3h-1.3 c0,0-0.101,1.3-0.101,2.3S56.2,39.3,56.2,39.3H57.6c0,0-0.1-0.8,0-2.3c0-1.5,1.101-3,1.601-4c0.5-1.1,0.6-0.3,0.6,0.2 s-0.3,5.1-0.3,6c0,1,1,1.3,1.4,1.3c0.399,0,0.699-0.2,0.699-0.2v-1.2h-0.5C61.1,39.1,61.2,36.3,61.2,33z"/><path fill="#844B9E" d="M54.8,37.3c0,0-0.1-1,0-2.6c0.101-1.6,0.5-6.1,0.5-6.1s-1-0.3-2.6-0.1c-1.7,0.2-2.5,2.4-2.7,5.3 c-0.2,2.9,0,5.2,1,5.2c0.9,0,2.1-3.1,2.1-3.1l0.2,2.8c0,0,1.3,0.1,1.8,0.1s0.801-1,0.601-1.3C55.5,37.3,54.8,37.3,54.8,37.3z M52.7,34.7c-0.7,1.3-1.4,1.8-1.4,1.8s-0.3-3.6,0.5-4.8c0.8-1.2,1.9-0.9,1.9-0.9S53.4,33.3,52.7,34.7z"/><path fill="#844B9E" d="M67.2,39c0-1.7,1-14.1,1-14.1h-1.5L66.6,29.5c0,0-0.699-0.4-2.399,0.3c-1.9,0.7-2,3.9-1.9,6.5 c0.101,2.7,1.3,4.9,1.8,4.9s1-1.9,1.301-2.3C65.5,38.8,65.6,39,65.6,40.2s0.7,2,1.101,2c0.399,0,1-0.5,1-0.5l0.1-1.101l-0.5-0.1 C67.2,40.7,67.2,40.7,67.2,39z M65.7,35.8c-0.5,1.601-1.4,2.7-1.7,2.7c-0.4,0-0.5-3.5,0-4.7c0.6-1.5,2.1-1.8,2.1-1.8 S66.2,34.2,65.7,35.8z"/><path fill="#844B9E" d="M41.9,31c0,1.5,1.199,2.5,1.899,2.7c0.7,0.2,1.4,0.7,1.4,1c0,0.3,0,0.7-0.8,0.7 c-0.801,0-2.301-0.6-2.301-0.6v1.8c0,0,0.601,0.601,1.5,0.601c1,0,2.601-1.2,2.601-3.2s-1.4-2.3-1.7-2.4c-0.4-0.1-1.4-0.1-1.4-0.7 s0.7-0.7,1.5-0.7c0.801,0,1.601,0.3,1.601,0.3v-1.9c0,0-0.4-0.4-1.7-0.4C43.3,28.2,41.9,29.4,41.9,31z"/><path fill="#844B9E" d="M49.3,24.8l-1.5,0.1c0,0-0.2,5.3-0.399,7.7C47.2,35,47,37.7,47,37.7s1.6,0.2,1.8,0.2 C49,37.8,49.2,37.3,49.1,37.1C49,36.8,48.4,36.7,48.4,36.7s0.199-6,0.5-7.8C49.2,26.9,49.3,24.8,49.3,24.8z"/></g></g></svg>