<svg xmlns="http://www.w3.org/2000/svg" id="Layer_1" width="70" height="70" version="1.1" viewBox="0 0 70 70"><metadata id="metadata300"/><defs id="defs281"><style id="style279">.cls-1{fill:#fff}</style></defs><title id="title283"/><path id="path285" d="M-15,179.5v-70H55v70Zm52.3-22.13c.6,1.44,1.6,2.67,1.73,4.34.82,11,3.73,8.35,6.77,7.42-.78-6.28-1.37-12.27-2.27-17.92-.74-4.66-.2-6.91,1.21-10.09a141,141,0,0,0,5.74-16.74c.47-1.62.14-4.85.17-7.34-1,.39-2.13,0-2.85,1.33-1.53,2.75-2.82,6.37-4.22,9.64l.3.81,5.64-9.7.69,2.15c-.86,2.79-1.56,6.15-2.62,8.27-3.38,6.77-7.18,12.34-8.35,24.37-.15,1.54-1.26,2.46-1.91,3.74-1.6,6.59-3.76,11.34-6.79,13.43A115.12,115.12,0,0,1,34.48,157c1.83-5.61,3.53-11.54,5.5-16.77,2.31-6.13.95-12.14-.44-16.3-.88-2.62-3.22-1.94-5.62-3.08.93,7.28,1.43,12.23,2.2,16.86.87,5.21.52,8.46-1.17,12.56-2.23,5.42-4,12.34-5.76,18.85a12.77,12.77,0,0,0,.15,5,1.07,1.07,0,0,0,1.89.3C34.1,170.86,36.7,166.49,37.3,157.37Zm-12.25-9.93-2.62,24.22c2.26-2.15,4.56-2.6,4.9-5,2.07-14.34,3.68-29.12,5.47-43.86-6.27-2.92-6.41-2.75-9.25,10-1.11,5-2.23,10-3.35,14.93l-.66-.64v-26c-2.47,2.49-5.54-4.17-6.8,4.46-2.05,14.09-3.52,28.75-5.25,43.26,4.63,2,4.61,2,5.72-8.32.48-4.45,1.07-8.82,1.62-13.22l.73.42v21.83C22.27,171.75,21.12,153.29,25.05,147.44ZM1.27,156.86l.37,12c5.08,2.39,5.2,2.19,5.07-10.2-.09-8.94-.18-17.89-.49-26.78-.12-3.28-.77-9-1.36-9.14-2.08-.6-4.47-2.87-6.14,3.93-3.13,12.78-6.54,25.1-9.8,37.67-.37,1.41-.54,3.16-.94,5.61,2.66-.34,5.26,2.34,6.45-5.87S-2,154.32,1.27,156.86Z" class="cls-1" transform="translate(15 -109.5)"/><path id="path287" d="M25.05,147.44c-3.93,5.85-2.78,24.32-9.49,22.1V147.71l-.73-.42c-.54,4.41-1.14,8.77-1.62,13.22-1.11,10.32-1.08,10.34-5.72,8.32,1.73-14.52,3.2-29.18,5.25-43.26,1.26-8.63,4.33-2,6.8-4.46v26l.66.64c1.12-5,2.24-9.94,3.35-14.93,2.84-12.79,3-13,9.25-10-1.78,14.74-3.4,29.52-5.47,43.86-.34,2.36-2.64,2.81-4.9,5Z" transform="translate(15 -109.5)"/><path id="path289" d="M1.27,156.86c-3.31-2.55-5.64-1.07-6.84,7.21s-3.79,5.53-6.45,5.87c.4-2.45.58-4.2.94-5.61,3.26-12.57,6.67-24.89,9.8-37.67,1.67-6.8,4.05-4.53,6.14-3.93.6.17,1.25,5.86,1.36,9.14.31,8.89.39,17.85.49,26.78.13,12.4,0,12.59-5.07,10.2ZM-2,148.79C1.64,150,2.14,147.69.7,137.64Z" transform="translate(15 -109.5)"/><path id="path291" d="M37.32,157.56c.66-1.21,1.77-2.12,1.92-3.66,1.17-12,5-17.6,8.35-24.37,1.06-2.12,1.76-5.48,2.62-8.27l-.69-2.15-5.64,9.7-.3-.81c1.39-3.26,2.69-6.89,4.22-9.64.72-1.3,1.88-.94,2.85-1.33,0,2.49.3,5.73-.17,7.34a141,141,0,0,1-5.74,16.74c-1.41,3.18-1.95,5.43-1.21,10.09.9,5.65,1.49,11.64,2.27,17.92-3,.93-5.95,3.54-6.77-7.42-.13-1.68-1.13-2.91-1.73-4.34Z" transform="translate(15 -109.5)"/><path id="path293" d="M37.3,157.37c-.59,9.12-3.2,13.49-6.07,17a1.07,1.07,0,0,1-1.89-.3,12.77,12.77,0,0,1-.15-5c1.81-6.52,3.53-13.43,5.76-18.85,1.69-4.1,2-7.35,1.17-12.56-.77-4.63-1.27-9.59-2.2-16.86,2.4,1.14,4.74.45,5.62,3.08,1.39,4.16,2.76,10.17.44,16.3-2,5.23-3.67,11.17-5.5,16.77a115.12,115.12,0,0,0-3.93,14.1c3-2.09,5.19-6.83,6.78-13.46C37.32,157.56,37.3,157.37,37.3,157.37Z" transform="translate(15 -109.5)"/><path id="path295" d="M-2,148.79.7,137.64C2.14,147.69,1.64,150-2,148.79Z" class="cls-1" transform="translate(15 -109.5)"/></svg>