<svg xmlns="http://www.w3.org/2000/svg" version="1.1" id="Layer_1" x="0px" y="0px" width="70" height="70" viewBox="0 0 70 70" xml:space="preserve" style="enable-background:new 0 0 70 70;"><style type="text/css">
	.st0{filter:url(#Adobe_OpacityMaskFilter);}
	.st1{fill:#FFFFFF;}
	.st2{mask:url(#mask-2_1_);fill:#CD202C;}
</style><g id="Корпоративный-стиль"><g id="Корпоративный-стиль---1128" transform="translate(-658.000000, -2021.000000)"><g id="Group-4-Copy-6" transform="translate(540.000000, 1999.000000)"><g id="Bitmap"><g id="D_color" transform="translate(118.000000, 22.000000)"><path id="Fill-1" d="M5.4,49.9l-3.8-5.6v5.6H0.8V43h1l3.8,5.6V43h0.8v6.9H5.4z M7.6,47.3c0-1.4,0.9-2.7,2.7-2.7       c1.8,0,2.7,1.2,2.7,2.7c0,1.4-0.9,2.7-2.7,2.7C8.5,50,7.6,48.8,7.6,47.3z M8.4,47.3c0,1.1,0.6,2,1.9,2c1.2,0,1.9-0.9,1.9-2       c0-1.1-0.6-2-1.9-2C9,45.3,8.4,46.3,8.4,47.3z M14.9,45.5C14.9,45.5,14.9,45.5,14.9,45.5c0.7-0.5,1.4-0.8,2.2-0.8v0.7       c-0.6,0-1.5,0.3-2.2,0.7v3.7h-0.8v-5.1h0.8V45.5z M21.8,48.9v-3.2c-0.6-0.2-1.1-0.3-1.5-0.3c-1,0-1.9,0.7-1.9,2       c0,1.3,0.9,2,1.9,2C20.8,49.4,21.3,49.2,21.8,48.9z M22.6,43v6.9h-0.8v-0.4l0,0c-0.5,0.4-1.1,0.5-1.6,0.5       c-1.7,0-2.5-1.2-2.5-2.6c0-1.5,0.9-2.7,2.6-2.7c0.5,0,1.1,0.1,1.6,0.3l0,0V43H22.6z M26.4,49.9h-1l-1.9-5.2h0.9l1.6,4.4       l1.5-4.4h0.9l1.6,4.4l1.5-4.4h0.9l-1.9,5.2h-1l-1.5-4L26.4,49.9z M33.1,49.9h0.8v-5.1h-0.8V49.9z M36,45.5L36,45.5       c0.8-0.5,1.4-0.8,2.3-0.8c1.3,0,1.8,0.7,1.8,1.9v3.3h-0.8v-3.3c0-0.9-0.4-1.2-1.3-1.2c-0.6,0-1.3,0.3-2,0.8v3.8h-0.8v-5.1H36       V45.5z M45.5,48.9v-3.2c-0.6-0.2-1.1-0.3-1.5-0.3c-1,0-1.9,0.7-1.9,2c0,1.3,0.9,2,1.9,2C44.5,49.4,45,49.2,45.5,48.9z M46.3,43       v6.9h-0.8v-0.4l0,0C45,49.9,44.4,50,43.9,50c-1.7,0-2.5-1.2-2.5-2.6c0-1.5,0.9-2.7,2.6-2.7c0.5,0,1.1,0.1,1.6,0.3l0,0V43H46.3z        M33.1,44h0.8v-1h-0.8V44z M58.2,46.6h0.5v-0.5h-0.5V46.6z M52.9,46.6h0.5v-0.5h-0.5V46.6z M50.9,46.1l1.4,3.8h-0.6l-0.3-1       h-1.6l-0.4,1h-0.6l1.4-3.8H50.9z M50.6,46.7l-0.6,1.7h1.2L50.6,46.7z M52.9,49.9h0.5v-2.8h-0.5V49.9z M54.9,47.5       C54.9,47.5,54.9,47.5,54.9,47.5c0.4-0.2,0.7-0.4,1.2-0.4v0.5c-0.3,0-0.8,0.2-1.2,0.4v2h-0.5v-2.8h0.5V47.5z M56.8,49.9h0.5       v-3.8h-0.5V49.9z M58.2,49.9h0.5v-2.8h-0.5V49.9z M60.2,47.5L60.2,47.5c0.4-0.2,0.7-0.4,1.2-0.4c0.7,0,1,0.4,1,1.1v1.8h-0.5       v-1.8c0-0.5-0.2-0.6-0.6-0.6c-0.3,0-0.7,0.2-1,0.4v2h-0.5v-2.8h0.5V47.5z M64.9,49.5c0.4,0,0.7-0.1,1.1-0.2l0.1,0.4       c-0.3,0.1-0.8,0.2-1.3,0.2c-1.1,0-1.6-0.7-1.6-1.5c0-1,0.7-1.5,1.5-1.5c1.1,0,1.5,0.5,1.2,1.6h-2.1       C63.8,49.1,64.2,49.5,64.9,49.5z M63.8,48.2h1.6c0.1-0.4-0.1-0.7-0.7-0.7C64.3,47.5,63.9,47.7,63.8,48.2z M67.9,50       c-0.3,0-0.8,0-1.1-0.1l0.1-0.4c0.3,0.1,0.7,0.1,1,0.1c0.4,0,0.8-0.1,0.8-0.4c0-0.3-0.3-0.4-0.7-0.5c-0.9-0.2-1.1-0.5-1.1-0.8       c0-0.6,0.6-0.8,1.2-0.8c0.3,0,0.8,0,1.1,0.1L69,47.6c-0.3-0.1-0.7-0.1-1-0.1c-0.4,0-0.7,0.1-0.7,0.3c0,0.2,0.1,0.3,0.8,0.5       c0.9,0.2,1,0.6,1,0.9C69.2,49.8,68.6,50,67.9,50z"/><g id="Group-5" transform="translate(0.000000, 0.586423)"><g id="Clip-4"/><defs><filter id="Adobe_OpacityMaskFilter" x="0.8" y="18.8" width="68.4" height="18.6" filterUnits="userSpaceOnUse"><feColorMatrix type="matrix" values="1 0 0 0 0  0 1 0 0 0  0 0 1 0 0  0 0 0 1 0"/></filter></defs><mask id="mask-2_1_" x="0.8" y="18.8" width="68.4" height="18.6" maskUnits="userSpaceOnUse"><g class="st0"><polygon id="path-1_1_" points="0.8,18.8 69.2,18.8 69.2,37.5 0.8,37.5         " class="st1"/></g></mask><path id="Fill-3" d="M52.2,37.5H34L23.8,19.9L13.7,37.5H0.8L8,25c2-3.4,6.4-6.2,9.8-6.2H36l10.1,17.6l10.1-17.6        h12.9L62,31.3C60,34.7,55.6,37.5,52.2,37.5" class="st2"/></g></g></g></g></g></g></svg>