<svg xmlns="http://www.w3.org/2000/svg" version="1.1" width="70px" height="70px" viewBox="0 0 70 70"><g id="surface1"><rect x="0" y="0" width="70" height="70" style="fill:rgb(98.823529%,83.137256%,31.37255%);fill-opacity:1;stroke:none;"/><path d="M 14.386719 32.550781 L 14.386719 29.609375 C 14.386719 29.460938 14.300781 29.378906 14.136719 29.378906 C 13.96875 29.378906 13.886719 29.386719 13.835938 29.398438 C 13.734375 29.425781 13.683594 29.5 13.683594 29.609375 L 13.683594 32.074219 L 10.46875 29.539062 C 10.308594 29.414062 10.15625 29.355469 10.003906 29.355469 C 9.765625 29.355469 9.644531 29.484375 9.644531 29.738281 L 9.644531 32.699219 C 9.644531 32.855469 9.726562 32.929688 9.890625 32.929688 C 10.054688 32.929688 10.140625 32.925781 10.195312 32.910156 C 10.296875 32.878906 10.34375 32.808594 10.34375 32.695312 L 10.34375 30.210938 L 13.601562 32.773438 C 13.75 32.890625 13.878906 32.945312 14 32.945312 C 14.253906 32.945312 14.386719 32.808594 14.386719 32.539062 Z M 14.386719 32.550781 " style=" stroke:none;fill-rule:nonzero;fill:rgb(45.490196%,46.27451%,47.058824%);fill-opacity:1;"/><path d="M 17.058594 32.703125 C 17.058594 32.515625 16.980469 32.421875 16.816406 32.421875 C 16.648438 32.421875 16.421875 32.421875 16.28125 32.40625 C 16.140625 32.394531 16.035156 32.386719 15.960938 32.371094 C 15.625 32.296875 15.453125 32.121094 15.453125 31.855469 L 15.453125 31.835938 L 18.761719 31.835938 C 18.886719 31.835938 18.945312 31.75 18.945312 31.578125 L 18.945312 30.910156 C 18.945312 30.640625 18.785156 30.433594 18.46875 30.296875 C 18.234375 30.191406 17.949219 30.136719 17.605469 30.136719 L 16.363281 30.136719 C 15.949219 30.136719 15.609375 30.195312 15.339844 30.304688 C 14.964844 30.460938 14.773438 30.699219 14.773438 31.019531 L 14.773438 32.046875 C 14.773438 32.285156 14.894531 32.488281 15.140625 32.671875 C 15.308594 32.796875 15.578125 32.875 15.945312 32.90625 C 16.019531 32.914062 16.125 32.925781 16.265625 32.925781 C 16.40625 32.925781 16.589844 32.929688 16.808594 32.929688 C 17.03125 32.929688 17.054688 32.855469 17.054688 32.699219 Z M 15.445312 30.980469 C 15.445312 30.839844 15.585938 30.746094 15.863281 30.695312 C 16.058594 30.660156 16.425781 30.640625 16.953125 30.640625 C 17.855469 30.640625 18.300781 30.746094 18.300781 30.953125 L 18.300781 31.300781 L 15.445312 31.300781 Z M 15.445312 30.980469 " style=" stroke:none;fill-rule:nonzero;fill:rgb(45.490196%,46.27451%,47.058824%);fill-opacity:1;"/><path d="M 20.703125 31.78125 L 21.785156 31.78125 C 22.164062 31.78125 22.351562 31.863281 22.351562 32.03125 L 22.351562 32.136719 C 22.351562 32.324219 22.144531 32.421875 21.730469 32.421875 L 19.480469 32.421875 C 19.316406 32.421875 19.234375 32.515625 19.234375 32.703125 C 19.234375 32.894531 19.316406 32.933594 19.480469 32.933594 L 21.726562 32.933594 C 22.601562 32.933594 23.039062 32.671875 23.039062 32.136719 L 23.039062 32.003906 C 23.039062 31.5 22.628906 31.25 21.808594 31.25 L 20.703125 31.25 C 20.148438 31.25 19.875 31.164062 19.875 31 L 19.875 30.855469 C 19.875 30.753906 19.988281 30.691406 20.203125 30.664062 C 20.253906 30.660156 20.40625 30.65625 20.65625 30.65625 L 21.136719 30.65625 C 21.300781 30.65625 21.386719 30.578125 21.386719 30.429688 C 21.386719 30.28125 21.304688 30.140625 21.136719 30.140625 C 20.558594 30.140625 20.164062 30.160156 19.960938 30.203125 C 19.460938 30.300781 19.214844 30.519531 19.214844 30.859375 L 19.214844 31.011719 C 19.214844 31.523438 19.710938 31.78125 20.703125 31.78125 Z M 20.703125 31.78125 " style=" stroke:none;fill-rule:nonzero;fill:rgb(45.490196%,46.27451%,47.058824%);fill-opacity:1;"/><path d="M 23.636719 32.933594 C 23.796875 32.933594 23.890625 32.925781 23.921875 32.90625 C 24.003906 32.875 24.050781 32.804688 24.050781 32.695312 L 24.050781 30.980469 C 24.050781 30.753906 24.335938 30.644531 24.90625 30.644531 C 25.476562 30.644531 24.949219 30.644531 24.984375 30.644531 C 25.015625 30.644531 25.054688 30.644531 25.09375 30.65625 L 25.285156 30.65625 C 25.484375 30.65625 25.625 30.675781 25.714844 30.714844 C 25.84375 30.773438 25.910156 30.886719 25.910156 31.050781 L 25.910156 32.703125 C 25.910156 32.859375 25.996094 32.933594 26.160156 32.933594 C 26.324219 32.933594 26.414062 32.925781 26.445312 32.90625 C 26.535156 32.875 26.578125 32.804688 26.578125 32.695312 L 26.578125 31.050781 C 26.578125 30.863281 26.675781 30.75 26.875 30.695312 C 26.964844 30.671875 27.144531 30.648438 27.414062 30.640625 L 27.578125 30.640625 C 28.144531 30.640625 28.429688 30.75 28.429688 30.96875 L 28.429688 32.691406 C 28.429688 32.800781 28.476562 32.871094 28.566406 32.898438 C 28.59375 32.921875 28.691406 32.929688 28.855469 32.929688 C 29.019531 32.929688 29.101562 32.855469 29.101562 32.699219 L 29.101562 31.046875 C 29.101562 30.441406 28.636719 30.128906 27.703125 30.128906 C 26.773438 30.128906 27.113281 30.140625 26.964844 30.15625 C 26.691406 30.183594 26.460938 30.253906 26.265625 30.363281 C 26.054688 30.25 25.824219 30.175781 25.574219 30.144531 C 25.515625 30.140625 25.425781 30.136719 25.304688 30.128906 C 25.183594 30.128906 25.03125 30.128906 24.839844 30.128906 C 23.875 30.128906 23.390625 30.433594 23.390625 31.046875 L 23.390625 32.699219 C 23.390625 32.855469 23.46875 32.929688 23.636719 32.929688 Z M 23.636719 32.933594 " style=" stroke:none;fill-rule:nonzero;fill:rgb(45.490196%,46.27451%,47.058824%);fill-opacity:1;"/><path d="M 30.054688 32.761719 C 30.308594 32.878906 30.613281 32.933594 30.960938 32.933594 L 32.585938 32.933594 C 33.488281 32.933594 33.945312 32.65625 33.945312 32.09375 L 33.945312 31 C 33.945312 30.621094 33.703125 30.363281 33.214844 30.238281 C 32.945312 30.171875 32.539062 30.136719 32 30.136719 C 31.460938 30.136719 31.753906 30.214844 31.753906 30.363281 C 31.753906 30.515625 31.839844 30.648438 32 30.648438 L 32.191406 30.648438 C 32.230469 30.648438 32.269531 30.644531 32.304688 30.640625 C 32.335938 30.640625 32.363281 30.640625 32.386719 30.640625 C 32.949219 30.640625 33.246094 30.738281 33.285156 30.941406 L 30.941406 30.941406 C 30.578125 30.941406 30.273438 30.996094 30.035156 31.109375 C 29.710938 31.253906 29.550781 31.476562 29.550781 31.765625 L 29.550781 32.121094 C 29.550781 32.390625 29.71875 32.601562 30.058594 32.75 Z M 30.203125 31.765625 C 30.203125 31.671875 30.300781 31.589844 30.488281 31.53125 C 30.636719 31.484375 30.78125 31.460938 30.921875 31.460938 L 33.28125 31.460938 L 33.28125 31.703125 C 33.28125 31.761719 33.28125 31.808594 33.285156 31.851562 C 33.285156 31.890625 33.285156 31.925781 33.285156 31.953125 C 33.285156 32.164062 33.21875 32.296875 33.089844 32.355469 C 33 32.398438 32.828125 32.421875 32.578125 32.421875 L 30.929688 32.421875 C 30.773438 32.421875 30.628906 32.398438 30.488281 32.355469 C 30.296875 32.300781 30.195312 32.21875 30.195312 32.121094 L 30.195312 31.765625 Z M 30.203125 31.765625 " style=" stroke:none;fill-rule:nonzero;fill:rgb(45.490196%,46.27451%,47.058824%);fill-opacity:1;"/><path d="M 40.996094 32.941406 C 41.078125 33.066406 41.183594 33.125 41.320312 33.125 C 41.453125 33.125 41.496094 33.09375 41.558594 33.03125 C 41.625 32.964844 41.65625 32.886719 41.65625 32.789062 C 41.65625 32.695312 41.65625 32.710938 41.644531 32.695312 L 39.335938 29.429688 C 39.324219 29.414062 39.316406 29.398438 39.308594 29.390625 C 39.304688 29.378906 39.300781 29.371094 39.296875 29.363281 C 39.238281 29.273438 39.136719 29.230469 38.96875 29.230469 C 38.804688 29.230469 38.601562 29.296875 38.511719 29.433594 L 36.328125 32.765625 C 36.320312 32.785156 36.316406 32.804688 36.316406 32.824219 C 36.316406 32.894531 36.355469 32.960938 36.433594 33.015625 C 36.503906 33.066406 36.578125 33.089844 36.65625 33.089844 C 36.730469 33.089844 36.800781 33.039062 36.871094 32.945312 L 37.484375 32.058594 L 40.390625 32.058594 L 41 32.945312 Z M 37.886719 31.484375 L 38.933594 29.945312 L 39.980469 31.484375 L 37.878906 31.484375 Z M 37.886719 31.484375 " style=" stroke:none;fill-rule:nonzero;fill:rgb(45.490196%,46.27451%,47.058824%);fill-opacity:1;"/><path d="M 42.558594 30.089844 C 42.53125 30.074219 42.441406 30.070312 42.28125 30.070312 C 42.121094 30.070312 42.035156 30.148438 42.035156 30.316406 L 42.035156 32.808594 C 42.035156 32.929688 42.074219 33 42.160156 33.035156 C 42.183594 33.050781 42.28125 33.054688 42.441406 33.054688 C 42.601562 33.054688 42.683594 32.976562 42.683594 32.808594 L 42.683594 30.316406 C 42.683594 30.199219 42.640625 30.125 42.554688 30.09375 Z M 42.558594 30.089844 " style=" stroke:none;fill-rule:nonzero;fill:rgb(45.490196%,46.27451%,47.058824%);fill-opacity:1;"/><path d="M 42.066406 29.925781 C 42.144531 29.980469 42.238281 30.003906 42.355469 30.003906 C 42.46875 30.003906 42.566406 29.976562 42.644531 29.925781 C 42.734375 29.863281 42.78125 29.78125 42.78125 29.671875 C 42.78125 29.558594 42.734375 29.480469 42.644531 29.414062 C 42.566406 29.359375 42.46875 29.335938 42.355469 29.335938 C 42.238281 29.335938 42.144531 29.359375 42.066406 29.414062 C 41.976562 29.476562 41.929688 29.558594 41.929688 29.671875 C 41.929688 29.78125 41.976562 29.863281 42.066406 29.925781 Z M 42.066406 29.925781 " style=" stroke:none;fill-rule:nonzero;fill:rgb(45.490196%,46.27451%,47.058824%);fill-opacity:1;"/><path d="M 43.335938 33.050781 C 43.488281 33.050781 43.585938 33.046875 43.621094 33.035156 C 43.710938 33.003906 43.761719 32.929688 43.761719 32.808594 L 43.761719 31 C 43.761719 30.75 44.011719 30.625 44.515625 30.625 C 45.019531 30.625 44.578125 30.625 44.628906 30.625 C 44.679688 30.625 44.71875 30.625 44.746094 30.625 C 44.941406 30.625 45.039062 30.539062 45.039062 30.378906 C 45.039062 30.21875 44.953125 30.070312 44.796875 30.070312 C 44.316406 30.070312 43.949219 30.113281 43.703125 30.199219 C 43.304688 30.335938 43.105469 30.601562 43.105469 30.988281 L 43.105469 32.796875 C 43.105469 32.960938 43.179688 33.046875 43.339844 33.046875 Z M 43.335938 33.050781 " style=" stroke:none;fill-rule:nonzero;fill:rgb(45.490196%,46.27451%,47.058824%);fill-opacity:1;"/><path d="M 45.558594 33.03125 C 45.585938 33.046875 45.679688 33.050781 45.839844 33.050781 C 46 33.050781 46.085938 32.96875 46.085938 32.804688 L 46.085938 29.515625 C 46.085938 29.394531 46.039062 29.320312 45.953125 29.289062 C 45.921875 29.273438 45.824219 29.269531 45.671875 29.269531 C 45.515625 29.269531 45.429688 29.351562 45.429688 29.515625 L 45.429688 32.808594 C 45.429688 32.925781 45.476562 33 45.566406 33.035156 Z M 45.558594 33.03125 " style=" stroke:none;fill-rule:nonzero;fill:rgb(45.490196%,46.27451%,47.058824%);fill-opacity:1;"/><path d="M 46.648438 29.925781 C 46.730469 29.980469 46.824219 30.003906 46.941406 30.003906 C 47.054688 30.003906 47.148438 29.976562 47.230469 29.925781 C 47.320312 29.863281 47.363281 29.78125 47.363281 29.671875 C 47.363281 29.558594 47.320312 29.480469 47.230469 29.414062 C 47.148438 29.359375 47.054688 29.335938 46.941406 29.335938 C 46.824219 29.335938 46.730469 29.359375 46.648438 29.414062 C 46.558594 29.476562 46.515625 29.558594 46.515625 29.671875 C 46.515625 29.78125 46.558594 29.863281 46.648438 29.925781 Z M 46.648438 29.925781 " style=" stroke:none;fill-rule:nonzero;fill:rgb(45.490196%,46.27451%,47.058824%);fill-opacity:1;"/><path d="M 47.144531 30.089844 C 47.121094 30.074219 47.023438 30.070312 46.871094 30.070312 C 46.714844 30.070312 46.625 30.148438 46.625 30.316406 L 46.625 32.808594 C 46.625 32.929688 46.671875 33 46.753906 33.035156 C 46.78125 33.050781 46.875 33.054688 47.035156 33.054688 C 47.195312 33.054688 47.28125 32.976562 47.28125 32.808594 L 47.28125 30.316406 C 47.28125 30.199219 47.234375 30.125 47.148438 30.09375 Z M 47.144531 30.089844 " style=" stroke:none;fill-rule:nonzero;fill:rgb(45.490196%,46.27451%,47.058824%);fill-opacity:1;"/><path d="M 47.921875 33.03125 C 47.945312 33.046875 48.039062 33.050781 48.199219 33.050781 C 48.359375 33.050781 48.441406 32.96875 48.441406 32.804688 L 48.441406 30.914062 C 48.441406 30.78125 48.546875 30.695312 48.753906 30.648438 C 48.800781 30.640625 48.859375 30.636719 48.941406 30.628906 C 49.019531 30.628906 49.113281 30.625 49.226562 30.625 L 50.355469 30.625 C 50.476562 30.625 50.578125 30.625 50.664062 30.628906 C 50.746094 30.628906 50.808594 30.640625 50.84375 30.644531 C 51.066406 30.683594 51.179688 30.773438 51.179688 30.910156 L 51.179688 32.804688 C 51.179688 32.925781 51.226562 32.996094 51.316406 33.03125 C 51.339844 33.046875 51.433594 33.050781 51.59375 33.050781 C 51.753906 33.050781 51.839844 32.96875 51.839844 32.804688 L 51.839844 30.914062 C 51.839844 30.355469 51.34375 30.074219 50.355469 30.074219 L 49.285156 30.074219 C 48.285156 30.074219 47.78125 30.355469 47.78125 30.921875 L 47.78125 32.804688 C 47.78125 32.925781 47.824219 32.996094 47.910156 33.03125 Z M 47.921875 33.03125 " style=" stroke:none;fill-rule:nonzero;fill:rgb(45.490196%,46.27451%,47.058824%);fill-opacity:1;"/><path d="M 52.566406 32.773438 C 52.734375 32.910156 53 32.996094 53.359375 33.03125 C 53.429688 33.035156 53.539062 33.046875 53.679688 33.046875 C 53.820312 33.046875 53.996094 33.046875 54.21875 33.046875 C 54.445312 33.046875 54.460938 32.964844 54.460938 32.800781 C 54.460938 32.636719 54.378906 32.496094 54.21875 32.496094 C 54.058594 32.496094 53.828125 32.496094 53.695312 32.480469 C 53.554688 32.46875 53.449219 32.453125 53.378906 32.441406 C 53.050781 32.359375 52.886719 32.175781 52.886719 31.894531 L 52.886719 31.875 L 56.140625 31.875 C 56.265625 31.875 56.324219 31.785156 56.324219 31.605469 L 56.324219 30.890625 C 56.324219 30.601562 56.171875 30.378906 55.855469 30.238281 C 55.628906 30.125 55.34375 30.070312 55 30.070312 L 53.78125 30.070312 C 53.359375 30.070312 53.019531 30.128906 52.769531 30.25 C 52.394531 30.414062 52.210938 30.671875 52.210938 31.015625 L 52.210938 32.109375 C 52.210938 32.363281 52.328125 32.585938 52.570312 32.773438 Z M 52.859375 30.976562 C 52.859375 30.824219 52.996094 30.71875 53.269531 30.671875 C 53.464844 30.636719 53.824219 30.613281 54.34375 30.613281 C 55.230469 30.613281 55.675781 30.726562 55.675781 30.949219 L 55.675781 31.316406 L 52.855469 31.316406 L 52.855469 30.976562 Z M 52.859375 30.976562 " style=" stroke:none;fill-rule:nonzero;fill:rgb(45.490196%,46.27451%,47.058824%);fill-opacity:1;"/><path d="M 59.140625 31.265625 L 58.054688 31.265625 C 57.515625 31.265625 57.238281 31.175781 57.238281 30.996094 L 57.238281 30.839844 C 57.238281 30.734375 57.351562 30.664062 57.566406 30.640625 C 57.613281 30.636719 57.761719 30.628906 58.011719 30.628906 L 58.480469 30.628906 C 58.644531 30.628906 58.726562 30.550781 58.726562 30.386719 C 58.726562 30.21875 58.644531 30.074219 58.480469 30.074219 C 58.191406 30.074219 57.949219 30.078125 57.761719 30.089844 C 57.570312 30.101562 57.421875 30.121094 57.324219 30.140625 C 56.828125 30.246094 56.585938 30.476562 56.585938 30.835938 L 56.585938 30.996094 C 56.585938 31.539062 57.074219 31.816406 58.050781 31.816406 L 59.113281 31.816406 C 59.484375 31.816406 59.675781 31.90625 59.675781 32.085938 L 59.675781 32.195312 C 59.675781 32.394531 59.46875 32.496094 59.058594 32.496094 L 56.84375 32.496094 C 56.683594 32.496094 56.601562 32.59375 56.601562 32.800781 C 56.601562 33.003906 56.679688 33.046875 56.84375 33.046875 L 59.058594 33.046875 C 59.921875 33.046875 60.355469 32.761719 60.355469 32.195312 L 60.355469 32.058594 C 60.355469 31.523438 59.949219 31.261719 59.144531 31.261719 Z M 59.140625 31.265625 " style=" stroke:none;fill-rule:nonzero;fill:rgb(45.490196%,46.27451%,47.058824%);fill-opacity:1;"/><path d="M 11.40625 36.410156 C 11.464844 36.433594 11.523438 36.445312 11.589844 36.445312 C 11.65625 36.445312 11.71875 36.429688 11.773438 36.410156 C 11.828125 36.386719 11.886719 36.351562 11.929688 36.304688 C 11.976562 36.265625 12.011719 36.214844 12.035156 36.15625 C 12.058594 36.09375 12.074219 36.035156 12.074219 35.96875 C 12.074219 35.90625 12.066406 35.839844 12.035156 35.785156 C 12.011719 35.726562 11.976562 35.675781 11.929688 35.628906 C 11.886719 35.585938 11.835938 35.550781 11.773438 35.53125 C 11.71875 35.503906 11.65625 35.488281 11.589844 35.488281 C 11.523438 35.488281 11.460938 35.503906 11.40625 35.53125 C 11.34375 35.554688 11.296875 35.589844 11.25 35.628906 C 11.203125 35.675781 11.171875 35.726562 11.144531 35.785156 C 11.121094 35.84375 11.105469 35.90625 11.105469 35.96875 C 11.105469 36.035156 11.113281 36.09375 11.144531 36.15625 C 11.171875 36.214844 11.203125 36.265625 11.25 36.304688 C 11.296875 36.34375 11.34375 36.378906 11.40625 36.410156 Z M 11.40625 36.410156 " style=" stroke:none;fill-rule:nonzero;fill:rgb(45.490196%,46.27451%,47.058824%);fill-opacity:1;"/><path d="M 12.609375 36.445312 L 12.609375 37.535156 C 12.609375 37.648438 12.605469 37.761719 12.601562 37.859375 C 12.59375 37.960938 12.578125 38.058594 12.554688 38.15625 C 12.53125 38.25 12.488281 38.335938 12.445312 38.414062 C 12.394531 38.496094 12.328125 38.570312 12.25 38.644531 C 12.140625 38.730469 12.015625 38.796875 11.875 38.835938 C 11.734375 38.875 11.585938 38.878906 11.425781 38.851562 C 11.261719 38.816406 11.125 38.761719 11.015625 38.675781 C 10.910156 38.589844 10.820312 38.488281 10.761719 38.371094 C 10.695312 38.253906 10.65625 38.128906 10.628906 37.996094 C 10.605469 37.859375 10.59375 37.726562 10.601562 37.589844 L 9.675781 37.589844 C 9.675781 37.84375 9.730469 38.089844 9.835938 38.324219 C 9.933594 38.558594 10.089844 38.769531 10.296875 38.941406 C 10.5 39.113281 10.753906 39.25 11.066406 39.339844 C 11.375 39.429688 11.734375 39.453125 12.144531 39.414062 C 12.421875 39.363281 12.644531 39.285156 12.828125 39.179688 C 13.015625 39.074219 13.160156 38.945312 13.269531 38.785156 C 13.378906 38.625 13.460938 38.441406 13.503906 38.230469 C 13.550781 38.019531 13.574219 37.78125 13.574219 37.519531 L 13.574219 36.441406 L 12.621094 36.441406 Z M 12.609375 36.445312 " style=" stroke:none;fill-rule:nonzero;fill:rgb(45.490196%,46.27451%,47.058824%);fill-opacity:1;"/><path d="M 14.289062 35.253906 L 14.300781 39.363281 C 14.46875 39.363281 14.609375 39.355469 14.726562 39.320312 C 14.839844 39.285156 14.929688 39.234375 15 39.171875 C 15.070312 39.105469 15.125 39.03125 15.160156 38.933594 C 15.195312 38.839844 15.21875 38.738281 15.234375 38.628906 C 15.246094 38.519531 15.253906 38.40625 15.253906 38.28125 L 15.253906 35.25 L 14.289062 35.25 Z M 14.289062 35.253906 " style=" stroke:none;fill-rule:nonzero;fill:rgb(45.490196%,46.27451%,47.058824%);fill-opacity:1;"/><path d="M 22.765625 39.949219 C 22.71875 39.90625 22.671875 39.871094 22.613281 39.851562 C 22.558594 39.824219 22.496094 39.816406 22.429688 39.816406 C 22.363281 39.816406 22.300781 39.824219 22.246094 39.851562 C 22.183594 39.875 22.136719 39.910156 22.09375 39.949219 C 22.054688 39.996094 22.019531 40.046875 21.996094 40.105469 C 21.96875 40.164062 21.953125 40.226562 21.953125 40.289062 C 21.953125 40.355469 21.96875 40.414062 21.996094 40.476562 C 22.019531 40.535156 22.054688 40.585938 22.09375 40.628906 C 22.140625 40.675781 22.191406 40.710938 22.246094 40.734375 C 22.304688 40.761719 22.363281 40.773438 22.429688 40.773438 C 22.496094 40.773438 22.558594 40.761719 22.613281 40.734375 C 22.675781 40.710938 22.726562 40.675781 22.765625 40.628906 C 22.808594 40.585938 22.84375 40.535156 22.871094 40.476562 C 22.894531 40.414062 22.910156 40.355469 22.910156 40.289062 C 22.910156 40.226562 22.898438 40.164062 22.871094 40.105469 C 22.84375 40.046875 22.808594 39.996094 22.765625 39.949219 Z M 22.765625 39.949219 " style=" stroke:none;fill-rule:nonzero;fill:rgb(45.490196%,46.27451%,47.058824%);fill-opacity:1;"/><path d="M 21.660156 39.949219 C 21.613281 39.90625 21.566406 39.871094 21.503906 39.851562 C 21.445312 39.824219 21.386719 39.816406 21.320312 39.816406 C 21.253906 39.816406 21.191406 39.824219 21.136719 39.851562 C 21.074219 39.875 21.023438 39.910156 20.980469 39.949219 C 20.933594 39.996094 20.898438 40.046875 20.875 40.105469 C 20.851562 40.164062 20.835938 40.226562 20.835938 40.289062 C 20.835938 40.355469 20.84375 40.414062 20.875 40.476562 C 20.898438 40.535156 20.933594 40.585938 20.980469 40.628906 C 21.023438 40.675781 21.074219 40.710938 21.136719 40.734375 C 21.191406 40.761719 21.253906 40.773438 21.320312 40.773438 C 21.386719 40.773438 21.445312 40.761719 21.503906 40.734375 C 21.566406 40.710938 21.613281 40.675781 21.660156 40.628906 C 21.703125 40.585938 21.738281 40.535156 21.765625 40.476562 C 21.789062 40.414062 21.800781 40.355469 21.800781 40.289062 C 21.800781 40.226562 21.789062 40.164062 21.765625 40.105469 C 21.738281 40.046875 21.703125 39.996094 21.660156 39.949219 Z M 21.660156 39.949219 " style=" stroke:none;fill-rule:nonzero;fill:rgb(45.490196%,46.27451%,47.058824%);fill-opacity:1;"/><path d="M 36.914062 36.585938 C 36.914062 36.144531 36.914062 35.703125 36.914062 35.261719 L 35.960938 35.261719 L 35.960938 37.855469 C 35.960938 38.015625 35.929688 38.148438 35.871094 38.265625 C 35.804688 38.378906 35.71875 38.480469 35.609375 38.554688 C 35.5 38.636719 35.378906 38.691406 35.234375 38.730469 C 35.09375 38.769531 34.949219 38.785156 34.800781 38.785156 L 34.109375 38.785156 C 33.96875 38.785156 33.828125 38.769531 33.691406 38.734375 C 33.554688 38.699219 33.433594 38.648438 33.328125 38.578125 C 33.21875 38.511719 33.136719 38.421875 33.066406 38.316406 C 32.996094 38.210938 32.953125 38.085938 32.945312 37.941406 L 32.945312 35.253906 L 31.996094 35.253906 L 31.996094 37.941406 C 31.984375 38.085938 31.945312 38.210938 31.875 38.316406 C 31.804688 38.421875 31.71875 38.511719 31.613281 38.578125 C 31.511719 38.648438 31.386719 38.699219 31.25 38.734375 C 31.113281 38.769531 30.976562 38.785156 30.828125 38.785156 L 29.765625 38.785156 C 29.878906 38.679688 29.964844 38.550781 30.03125 38.410156 C 30.089844 38.265625 30.125 38.101562 30.125 37.910156 C 30.125 37.71875 30.105469 37.679688 30.074219 37.570312 C 30.039062 37.460938 29.988281 37.359375 29.925781 37.261719 C 29.859375 37.160156 29.78125 37.070312 29.683594 36.984375 C 29.589844 36.898438 29.488281 36.824219 29.378906 36.753906 C 29.175781 36.640625 28.964844 36.566406 28.75 36.519531 C 28.628906 36.496094 28.484375 36.476562 28.324219 36.464844 C 28.164062 36.453125 27.980469 36.449219 27.773438 36.449219 L 26.671875 36.449219 C 26.46875 36.449219 26.285156 36.449219 26.125 36.464844 C 25.964844 36.476562 25.824219 36.496094 25.699219 36.519531 C 25.628906 36.535156 25.558594 36.554688 25.488281 36.574219 C 25.421875 36.59375 25.355469 36.621094 25.285156 36.644531 L 25.285156 35.25 L 24.324219 35.25 L 24.324219 38.78125 C 24.324219 38.78125 23.800781 38.78125 23.800781 38.78125 L 23.480469 38.78125 C 23.335938 38.78125 23.195312 38.765625 23.058594 38.730469 C 22.925781 38.695312 22.804688 38.644531 22.695312 38.574219 C 22.589844 38.503906 22.5 38.414062 22.433594 38.308594 C 22.363281 38.203125 22.328125 38.078125 22.320312 37.933594 L 22.320312 36.445312 C 22.324219 36.445312 21.375 36.445312 21.375 36.445312 L 21.375 37.933594 C 21.359375 38.078125 21.324219 38.203125 21.253906 38.308594 C 21.191406 38.414062 21.101562 38.5 20.996094 38.574219 C 20.890625 38.644531 20.765625 38.695312 20.628906 38.730469 C 20.496094 38.765625 20.355469 38.78125 20.214844 38.78125 L 19.621094 38.78125 C 19.476562 38.78125 19.335938 38.765625 19.203125 38.730469 C 19.070312 38.695312 18.949219 38.644531 18.851562 38.574219 C 18.765625 38.519531 18.695312 38.453125 18.640625 38.390625 C 18.585938 38.320312 18.546875 38.25 18.515625 38.175781 C 18.484375 38.101562 18.460938 38.019531 18.449219 37.945312 C 18.433594 37.863281 18.429688 37.785156 18.425781 37.703125 L 18.425781 36.433594 C 18.425781 36.433594 17.46875 36.433594 17.46875 36.433594 L 17.480469 38.519531 C 17.480469 38.714844 17.453125 38.886719 17.414062 39.023438 C 17.371094 39.171875 17.308594 39.289062 17.226562 39.390625 C 17.140625 39.488281 17.039062 39.574219 16.925781 39.640625 C 16.808594 39.703125 16.675781 39.761719 16.53125 39.800781 L 16.53125 40.40625 C 16.804688 40.363281 17.039062 40.316406 17.25 40.246094 C 17.453125 40.179688 17.636719 40.09375 17.78125 39.996094 C 17.929688 39.890625 18.050781 39.765625 18.144531 39.621094 C 18.238281 39.476562 18.304688 39.300781 18.351562 39.101562 C 18.464844 39.148438 18.585938 39.195312 18.703125 39.226562 C 18.828125 39.253906 18.953125 39.285156 19.085938 39.300781 C 19.214844 39.320312 19.34375 39.335938 19.476562 39.34375 C 19.605469 39.355469 19.730469 39.355469 19.855469 39.355469 L 20.015625 39.355469 C 20.171875 39.355469 20.328125 39.34375 20.496094 39.328125 C 20.660156 39.316406 20.824219 39.289062 20.984375 39.25 C 21.144531 39.210938 21.304688 39.164062 21.449219 39.105469 C 21.601562 39.046875 21.730469 38.96875 21.851562 38.878906 C 21.96875 38.96875 22.105469 39.050781 22.25 39.109375 C 22.398438 39.171875 22.554688 39.21875 22.71875 39.253906 C 22.886719 39.289062 23.050781 39.320312 23.21875 39.328125 C 23.390625 39.34375 23.554688 39.351562 23.714844 39.351562 L 30.589844 39.351562 C 30.75 39.351562 30.914062 39.34375 31.085938 39.328125 C 31.253906 39.316406 31.421875 39.289062 31.585938 39.253906 C 31.75 39.21875 31.90625 39.171875 32.054688 39.109375 C 32.203125 39.050781 32.339844 38.976562 32.460938 38.878906 C 32.578125 38.96875 32.714844 39.050781 32.863281 39.109375 C 33.015625 39.171875 33.175781 39.21875 33.335938 39.253906 C 33.5 39.289062 33.664062 39.320312 33.835938 39.328125 C 34.003906 39.34375 34.171875 39.351562 34.324219 39.351562 L 34.546875 39.351562 C 34.714844 39.351562 34.890625 39.339844 35.074219 39.324219 C 35.253906 39.304688 35.433594 39.273438 35.609375 39.234375 C 35.785156 39.191406 35.949219 39.136719 36.105469 39.066406 C 36.261719 38.996094 36.398438 38.898438 36.515625 38.796875 C 36.636719 38.691406 36.726562 38.558594 36.796875 38.410156 C 36.863281 38.261719 36.898438 38.089844 36.898438 37.890625 C 36.894531 37.445312 36.894531 37.003906 36.898438 36.566406 Z M 29.046875 38.296875 C 28.980469 38.40625 28.898438 38.496094 28.796875 38.566406 C 28.691406 38.640625 28.570312 38.691406 28.433594 38.730469 C 28.300781 38.769531 28.160156 38.785156 28.015625 38.785156 L 25.289062 38.785156 L 25.289062 38.164062 C 25.289062 37.996094 25.308594 37.839844 25.363281 37.699219 C 25.414062 37.558594 25.488281 37.441406 25.585938 37.339844 C 25.679688 37.238281 25.800781 37.164062 25.941406 37.109375 C 26.078125 37.054688 26.246094 37.03125 26.425781 37.03125 L 28.011719 37.03125 C 28.140625 37.03125 28.273438 37.050781 28.410156 37.085938 C 28.546875 37.121094 28.664062 37.175781 28.773438 37.246094 C 28.886719 37.316406 28.96875 37.410156 29.039062 37.519531 C 29.109375 37.628906 29.140625 37.761719 29.140625 37.910156 C 29.140625 38.058594 29.109375 38.183594 29.046875 38.296875 Z M 29.046875 38.296875 " style=" stroke:none;fill-rule:nonzero;fill:rgb(45.490196%,46.27451%,47.058824%);fill-opacity:1;"/><path d="M 59.378906 36.449219 L 59.378906 37.855469 C 59.378906 38.011719 59.351562 38.148438 59.285156 38.265625 C 59.21875 38.378906 59.136719 38.480469 59.023438 38.554688 C 58.914062 38.636719 58.789062 38.691406 58.648438 38.730469 C 58.511719 38.769531 58.363281 38.785156 58.210938 38.785156 L 56.21875 38.785156 C 56.074219 38.785156 55.933594 38.769531 55.800781 38.734375 C 55.671875 38.699219 55.550781 38.648438 55.441406 38.574219 C 55.339844 38.503906 55.261719 38.425781 55.203125 38.339844 C 55.144531 38.25 55.105469 38.160156 55.074219 38.070312 C 55.046875 37.976562 55.03125 37.886719 55.019531 37.796875 C 55.011719 37.703125 55.003906 37.621094 55 37.539062 L 55 36.449219 L 54.050781 36.449219 L 54.050781 37.855469 C 54.050781 37.96875 54.039062 38.078125 54.003906 38.183594 C 53.976562 38.289062 53.929688 38.375 53.875 38.449219 C 53.824219 38.503906 53.765625 38.550781 53.695312 38.585938 C 53.625 38.613281 53.554688 38.636719 53.476562 38.644531 C 53.394531 38.648438 53.320312 38.644531 53.234375 38.625 C 53.148438 38.605469 53.074219 38.570312 53 38.519531 C 52.894531 38.453125 52.816406 38.386719 52.761719 38.308594 C 52.703125 38.234375 52.664062 38.15625 52.640625 38.074219 C 52.613281 37.988281 52.601562 37.910156 52.601562 37.824219 C 52.601562 37.738281 52.589844 37.65625 52.589844 37.570312 L 52.589844 36.453125 L 51.636719 36.453125 L 51.636719 37.820312 C 51.636719 37.898438 51.625 37.980469 51.613281 38.050781 C 51.605469 38.121094 51.585938 38.191406 51.554688 38.261719 C 51.523438 38.324219 51.480469 38.390625 51.425781 38.449219 C 51.371094 38.503906 51.304688 38.550781 51.230469 38.589844 C 51.15625 38.628906 51.074219 38.65625 50.984375 38.664062 C 50.898438 38.679688 50.808594 38.675781 50.714844 38.65625 C 50.625 38.636719 50.535156 38.589844 50.449219 38.523438 C 50.363281 38.460938 50.300781 38.390625 50.253906 38.308594 C 50.210938 38.234375 50.175781 38.148438 50.160156 38.070312 C 50.140625 37.988281 50.128906 37.90625 50.128906 37.820312 C 50.128906 37.734375 50.128906 37.648438 50.128906 37.574219 L 50.128906 36.460938 L 49.175781 36.460938 L 49.175781 37.949219 C 49.160156 38.09375 49.121094 38.21875 49.054688 38.324219 C 48.984375 38.429688 48.898438 38.515625 48.789062 38.589844 C 48.679688 38.660156 48.558594 38.710938 48.425781 38.746094 C 48.289062 38.78125 48.148438 38.796875 48.011719 38.796875 L 44.84375 38.796875 C 44.945312 38.691406 45.023438 38.566406 45.085938 38.421875 C 45.144531 38.273438 45.171875 38.113281 45.171875 37.929688 C 45.171875 37.808594 45.148438 37.695312 45.113281 37.574219 C 45.074219 37.460938 45.023438 37.351562 44.953125 37.246094 C 44.886719 37.140625 44.804688 37.039062 44.710938 36.949219 C 44.613281 36.859375 44.515625 36.78125 44.394531 36.710938 C 44.304688 36.65625 44.210938 36.609375 44.109375 36.574219 C 44.015625 36.539062 43.914062 36.511719 43.816406 36.484375 C 43.644531 36.460938 43.46875 36.445312 43.289062 36.441406 C 43.109375 36.433594 42.921875 36.449219 42.71875 36.480469 C 42.453125 36.53125 42.226562 36.605469 42.039062 36.703125 C 41.855469 36.804688 41.699219 36.929688 41.585938 37.078125 C 41.46875 37.234375 41.386719 37.410156 41.328125 37.613281 C 41.273438 37.820312 41.246094 38.054688 41.238281 38.308594 C 41.21875 38.625 41.046875 38.785156 40.714844 38.789062 L 40.300781 38.789062 C 40.148438 38.789062 40.003906 38.773438 39.863281 38.734375 C 39.726562 38.695312 39.601562 38.640625 39.488281 38.558594 C 39.378906 38.484375 39.296875 38.386719 39.230469 38.269531 C 39.164062 38.15625 39.136719 38.015625 39.140625 37.859375 L 39.140625 35.265625 L 38.183594 35.265625 C 38.183594 35.710938 38.183594 36.15625 38.191406 36.589844 C 38.191406 37.03125 38.191406 37.46875 38.195312 37.914062 C 38.195312 38.109375 38.230469 38.285156 38.300781 38.433594 C 38.371094 38.585938 38.460938 38.710938 38.578125 38.820312 C 38.695312 38.925781 38.828125 39.019531 38.984375 39.089844 C 39.140625 39.160156 39.304688 39.21875 39.480469 39.261719 C 39.65625 39.304688 39.835938 39.335938 40.015625 39.351562 C 40.199219 39.363281 40.375 39.375 40.550781 39.375 L 41.179688 39.375 C 41.359375 39.386719 41.515625 39.359375 41.640625 39.304688 C 41.761719 39.25 41.859375 39.175781 41.941406 39.085938 C 42.109375 39.179688 42.28125 39.25 42.460938 39.304688 C 42.640625 39.355469 42.824219 39.390625 43.003906 39.410156 C 43.183594 39.429688 43.375 39.433594 43.558594 39.429688 C 43.746094 39.429688 43.929688 39.414062 44.109375 39.40625 C 44.136719 39.40625 44.160156 39.40625 44.183594 39.394531 C 44.210938 39.394531 44.238281 39.390625 44.265625 39.390625 C 44.296875 39.390625 44.328125 39.390625 44.363281 39.390625 L 44.640625 39.378906 L 47.855469 39.378906 C 48 39.378906 48.144531 39.371094 48.300781 39.355469 C 48.46875 39.339844 48.636719 39.316406 48.796875 39.273438 C 48.960938 39.234375 49.109375 39.191406 49.261719 39.128906 C 49.40625 39.070312 49.539062 38.996094 49.660156 38.90625 C 49.898438 39.089844 50.128906 39.21875 50.34375 39.300781 C 50.558594 39.378906 50.769531 39.410156 50.96875 39.40625 C 51.171875 39.394531 51.363281 39.34375 51.558594 39.253906 C 51.75 39.164062 51.941406 39.050781 52.136719 38.90625 C 52.34375 39.066406 52.566406 39.179688 52.789062 39.25 C 53.019531 39.320312 53.246094 39.355469 53.464844 39.34375 C 53.683594 39.339844 53.890625 39.296875 54.089844 39.214844 C 54.285156 39.136719 54.460938 39.03125 54.601562 38.894531 C 54.714844 39 54.855469 39.089844 55.015625 39.148438 C 55.175781 39.214844 55.34375 39.265625 55.515625 39.296875 C 55.683594 39.328125 55.855469 39.351562 56.023438 39.359375 C 56.191406 39.371094 56.339844 39.375 56.464844 39.375 L 57.980469 39.375 C 58.148438 39.375 58.324219 39.363281 58.511719 39.351562 C 58.691406 39.328125 58.871094 39.300781 59.046875 39.261719 C 59.21875 39.214844 59.386719 39.160156 59.539062 39.089844 C 59.695312 39.015625 59.835938 38.925781 59.949219 38.820312 C 60.066406 38.710938 60.160156 38.585938 60.230469 38.433594 C 60.300781 38.285156 60.335938 38.113281 60.335938 37.914062 L 60.335938 37.191406 C 60.335938 36.949219 60.335938 36.699219 60.335938 36.460938 L 59.378906 36.460938 Z M 44.15625 38.109375 C 44.125 38.226562 44.074219 38.328125 44 38.425781 C 43.929688 38.523438 43.828125 38.605469 43.714844 38.671875 C 43.601562 38.730469 43.480469 38.769531 43.351562 38.789062 C 43.21875 38.804688 43.09375 38.800781 42.976562 38.773438 C 42.855469 38.75 42.738281 38.703125 42.636719 38.640625 C 42.53125 38.574219 42.441406 38.488281 42.371094 38.390625 C 42.304688 38.289062 42.261719 38.183594 42.238281 38.066406 C 42.21875 37.945312 42.226562 37.835938 42.253906 37.71875 C 42.285156 37.605469 42.335938 37.5 42.410156 37.40625 C 42.484375 37.308594 42.578125 37.230469 42.699219 37.164062 C 42.816406 37.105469 42.941406 37.058594 43.066406 37.046875 C 43.195312 37.03125 43.320312 37.03125 43.441406 37.054688 C 43.566406 37.078125 43.675781 37.125 43.78125 37.191406 C 43.886719 37.253906 43.976562 37.335938 44.046875 37.433594 C 44.109375 37.539062 44.15625 37.644531 44.175781 37.765625 C 44.191406 37.878906 44.183594 38 44.160156 38.109375 Z M 44.15625 38.109375 " style=" stroke:none;fill-rule:nonzero;fill:rgb(45.490196%,46.27451%,47.058824%);fill-opacity:1;"/><path d="M 59.636719 36.03125 C 59.691406 36.054688 59.753906 36.070312 59.820312 36.070312 C 59.886719 36.070312 59.949219 36.058594 60.003906 36.03125 C 60.066406 36.003906 60.113281 35.96875 60.160156 35.925781 C 60.203125 35.886719 60.234375 35.835938 60.265625 35.773438 C 60.289062 35.71875 60.304688 35.65625 60.304688 35.589844 C 60.304688 35.523438 60.289062 35.460938 60.265625 35.40625 C 60.238281 35.34375 60.203125 35.296875 60.160156 35.25 C 60.113281 35.203125 60.066406 35.171875 60.003906 35.144531 C 59.945312 35.121094 59.886719 35.109375 59.820312 35.109375 C 59.753906 35.109375 59.691406 35.125 59.636719 35.144531 C 59.574219 35.171875 59.523438 35.203125 59.480469 35.25 C 59.433594 35.296875 59.398438 35.34375 59.375 35.40625 C 59.351562 35.460938 59.335938 35.523438 59.335938 35.589844 C 59.335938 35.65625 59.351562 35.714844 59.375 35.773438 C 59.398438 35.835938 59.433594 35.886719 59.480469 35.925781 C 59.523438 35.96875 59.574219 36.003906 59.636719 36.03125 Z M 59.636719 36.03125 " style=" stroke:none;fill-rule:nonzero;fill:rgb(45.490196%,46.27451%,47.058824%);fill-opacity:1;"/></g></svg>