<svg xmlns="http://www.w3.org/2000/svg" id="Layer_1" width="70" height="70" x="0" y="0" enable-background="new 0 0 70 70" version="1.1" viewBox="0 0 70 70" xml:space="preserve"><metadata/><rect width="70" height="70" fill="none"/><path fill="#DA2429" d="M27.9,30.4c0,0,0.2-0.6,0.6-1.8c0.3-1.2,1.2-3.2,1.7-4.1c0.5-0.8,0.5-1.2,0.4-1.9c-0.1-0.7,0.7-0.6,1.3-0.1 s1.5,1,1.1,1.6c-0.3,0.4-0.7,0.2-1,0.6c-0.3,0.4-0.6,1.2-0.9,1.8c-0.3,0.6-1.3,2.6-1.6,3.2c-0.3,0.6-0.7,1.7-0.7,1.9 c0,0.2-0.4,1-0.7,1.9c-0.3,0.8-1.1,3-1.5,4.2s-0.4,1.399-0.8,2.8c-0.5,1.4-1,1.1-1.6,0.3c-0.6-0.8-0.5-2.899-0.5-4 c0-1.1-0.1-4.2-0.2-5c-0.1-0.8-0.4-2.1-0.4-2.7s-0.2-1.9-0.3-2.4c-0.1-0.5,0.1-1.3,0.5-1.4c0.4-0.1,1.3,0.6,1.7,1 c0.5,0.4,0.2,1.4,0,1.7s-0.3,0.4-0.5,1.1c-0.2,0.7-0.1,2.1-0.1,2.7c0,1.3,0.1,3.2,0.1,3.6c0.1,0.4,0.3,1.3,0.3,1.6s0.5,1.6,0.5,1.6 S26,37,26.2,36.2c0.2-0.9,0.8-2.6,1-3.2C27.4,32.2,27.9,30.4,27.9,30.4z"/><path fill="#DA2429" d="M10.9,40.3c-0.1-0.5-0.3-1.7-0.3-2.3c0-0.5-0.3-1.8-0.4-2.6c-0.1-0.8-0.2-3.7-0.2-4.8s0.1-3-0.5-3.8 C9,26,8.4,25.8,8,27.1c-0.4,1.3-0.4,1.5-0.8,2.6c-0.4,1.2-1.1,3.2-1.4,4c-0.3,0.8-0.7,1.6-0.7,1.8s-0.4,1.3-0.6,1.8l-1.5,3 c-0.3,0.5-0.5,1.3-0.9,1.7c-0.3,0.4-0.7,0.2-1,0.5c-0.4,0.6,0.4,1,1,1.5s1.3,0.6,1.2-0.1c-0.1-0.7-0.1-1,0.4-1.801 C4.1,41.3,5,39.4,5.3,38.2c0.3-1.2,0.5-1.7,0.5-1.7S7.4,36,8,35.6c0.6-0.3,1.1-0.8,1.2-0.3c0.1,0.5,0.1,1.9-0.1,2.5 c-0.2,0.601-0.2,0.7-0.4,1c-0.2,0.3-0.4,1.2,0,1.601c0.4,0.399,1.3,1.1,1.7,1C10.8,41.6,11,40.8,10.9,40.3z M8,34.8 c-0.7,0.4-1.7,0.5-1.7,0.5s0.3-1.2,0.6-2c0.3-0.8,0.3-1.6,0.8-2.5c0.5-1,0.7-1.4,0.7-1.4s0.2,0.8,0.4,2.1c0.2,1.3,0.4,2.7,0.4,2.7 S8.7,34.3,8,34.8z"/><path fill="#DA2429" d="M13.3,33.9c0-0.6,0.2,0.1,0.1-0.6c-0.2-0.8-0.3-1,0.2-1.1c0.4-0.1,1.4,0.2,1.5,0.6c0.1,0.5,0.1,0.8-0.1,1.1 c-0.2,0.3-0.4,1.8-0.5,2.4c-0.1,0.601-0.8,2.4-0.8,3.101c-0.1,0.8-0.1,1.5-0.1,1.899c0,0.4-0.3,0.9-0.6,1 c-0.3,0.101-0.9-0.2-0.8-1.2c0.1-1,0.3-2.199,0.4-3c0.2-0.8,0.5-2.199,0.6-2.7C13.2,35,13.3,34.2,13.3,33.9z"/><path fill="#DA2429" d="M14.1,31.2c0.2,0.3,0.3,0.3,0.8,0.1c0.5-0.2,0.5-0.5,0.1-0.9s-1-0.6-1.1-0.2C13.7,30.7,14,31,14.1,31.2z"/><path fill="#DA2429" d="M15,41.3c0,0.4,0.1,0.5,0.5,0.4c0.4-0.101,0.6-0.101,0.7-0.7c0.1-0.6,0.2-1.7,0.4-2.7c0.3-1,0.6-1.7,1-2.399 c0.4-0.7,1.6-2.601,1.9-3.101s0.5-0.8,0.7-0.6c0.2,0.2,0.2,0.7,0.6,0.7c0.4,0,0.6-0.3,0.5-0.6c-0.1-0.4-0.4-1.1-1-1.1 c-0.6,0-1,0.9-1.5,1.6c-0.4,0.7-1.3,1.9-1.3,1.9s-0.1-0.4-0.1-0.8s0.1-0.6,0.1-0.6s0.5-0.5,0.3-0.9c-0.3-0.4-0.6-0.6-1.1-0.5 s-0.8,0.5-0.7,0.6c0.1,0.2,0.4,0.8,0.1,1.9c-0.3,1.1-0.6,2.8-0.8,3.7C15,39,14.9,40.8,15,41.3z"/><path fill="#DA2429" d="M39.6,28.5c-0.1-0.3-0.399,0.1-0.699,0.6C38.6,29.6,37.3,31.5,37,32.2c-0.4,0.7-0.7,1.5-1,2.4 s-0.3,2.1-0.4,2.7C35.5,37.9,35.5,37.9,35,38c-0.4,0.1-0.7-0.1-0.8-0.5c-0.1-0.5,0.3-2.4,0.5-3.2c0.2-0.9,0.3-2.5,0.6-3.6 c0.3-1.1,0.3-1.9,0.2-2c-0.1-0.2-0.1-0.4,0.5-0.5c0.5-0.1,0.9,0.1,1.1,0.5c0.301,0.4-0.3,0.9-0.3,0.9s-0.1,0.2-0.1,0.6 c0,0.4,0.1,0.8,0.1,0.8s0.9-1.2,1.3-1.9c0.4-0.7,0.9-1.6,1.5-1.6c0.601,0,1,0.7,1,1.1c0,0.9-0.399,3-0.5,4.2 c-0.199,1.2-0.3,2.7-0.3,3.3c-0.1,0.601,0.101,1.801-0.2,2c-0.3,0.2-0.699-0.3-1-0.6c-0.3-0.4-0.6-1-0.399-1.6 c0.3-0.601,0.5-2.2,0.6-2.8c0.2-0.6,0.5-2.2,0.5-2.7C39.4,29.7,39.6,28.7,39.6,28.5z"/><path fill="#DA2429" d="M34.3,31.7c-0.1,0.7-0.6,2.5-0.7,3.3c-0.1,0.9-0.1,2-0.1,2.5s0.2,1.2-0.1,1.6c-0.3,0.301-0.6,0.2-0.9-0.199 c-0.3-0.4-0.6-0.7-0.4-1.5c0.2-0.801,0.4-0.801,0.4-1.4c0-0.6,0-0.6,0-0.6s-0.6,0.5-1,1.3s-1.6,3-2.5,3.1 c-0.9,0.101-1.3-1.1-1.3-1.8s0.5-2.4,0.8-3.1c0.3-0.6,1.7-3.3,2.5-4.4s1.4-1.6,1.7-2c0.3-0.4,0.3-0.8,0.7-0.8s1.1,0.8,1.2,1.2 c0.2,0.4,0.3,0.9-0.2,0.9c-0.5-0.1-0.6-0.5-0.9-0.3s-2.1,1.2-3,3.8C29.6,35.9,29.1,37.9,29.4,38c0.3,0.1,1.1-0.7,1.4-1.3 c0.3-0.601,1.1-2,1.5-2.5c0.4-0.4,0.9-1.6,1.1-2c0.2-0.4,0.4-0.8,0.6-0.9C34.3,31.3,34.4,31.2,34.3,31.7z"/><path fill="#DA2429" d="M42.5,27.1c0.6-0.2,0.9,0.2,1.1,0.8c0.2,0.6,0.301,1.4,0.101,2s-0.7,2.5-0.9,3.3c-0.2,0.8-0.3,1.6-0.3,1.8 s-0.3,1.1,0.1,1c0.4-0.1,0.9-1.7,1.301-2.4c0.399-0.7,0.5-0.9,0.899-1.5c0.3-0.6,0.601-1.6,0.601-2.1s0.1-1.7,0.199-2.3 c0.101-0.6,0.4-1.1,0.9-1.1s1.1,0.6,0.9,1c-0.2,0.4-0.5,2.2-0.601,3c-0.1,0.8-0.399,2-0.5,2.6c-0.1,0.6-0.2,1.5,0,2 s0.5,1.399,0.101,1.6C46,37,45.5,36.3,45.3,35.9C45.1,35.5,44.9,35.3,44.9,35s-0.101-0.7-0.4-0.6s-0.7,0.7-0.9,1 c-0.199,0.3-0.899,1.5-1.3,1.5c-0.399,0-1.2-1-1.3-2.2s0.8-4.2,0.9-5C42,28.8,41.8,27.3,42.5,27.1z"/><path fill="#DA2429" d="M52,35.7c0.3,0.2,0.1-1.6,0.2-2.7c0.1-1.1,0.399-1.9,0.399-2.2c0.101-0.3,0.5-1.1,0.2-1.6s-1-0.9-1.2-0.5 C51.4,29,51.5,29.8,51.3,30c-0.2,0.3-1.6,2.4-2,3.1c-0.399,0.6-0.8,1.6-1,1.6c-0.2,0.1-0.399-0.6-0.3-1.4c0.1-0.8,0.6-2.6,1.3-3.7 s1.601-2.2,2-2.1c0.4,0.1,0.7,0.3,1,0.3s0.601-0.3,0.101-1c-0.5-0.7-0.9-1-1.4-1s-2.4,1.8-3.1,3.8c-0.801,2-1,4.4-0.9,5.1 c0.1,0.7,0.6,1.2,1.1,1.2c0.4,0,1.301-1.101,1.601-1.7c0.3-0.6,1.1-1.8,1.1-1.8s0.101,1.5,0.101,1.9C51,34.9,51.6,35.5,52,35.7z"/><path fill="#DA2429" d="M53.3,35.6c-0.3,0.2,0.4,0.801,0.7,1c0.3,0.2,0.8,0.601,1,0.4s0.3-0.9,0.2-1.5c-0.101-0.5,0.2-4.3,0.6-6.7 c0.4-2.4,0.8-3.4,0.9-3.8c0.1-0.4,0.3-0.6,0.3-0.6s5-0.7,6.3-1c1.3-0.3,2.5-0.5,3.8-0.9c1.301-0.4,1.7-0.5,1.7-0.5s-2,0.3-3.3,0.5 s-3.1,0.3-3.5,0.4s-3,0.4-3.5,0.4c-0.6,0.1-1.1,0.1-1.1,0.1S57.2,23,57.6,22.8c0.301-0.2,0.5-0.4,0.5-0.8 C58,21.6,57.9,20.9,56.9,20.7c-1-0.2-1,0.6-1,1.1s-0.101,1-0.2,1.1c-0.101,0.1-0.2,0.5-0.2,0.5s-3,0.4-3.5,0.5s-1.5,0.4-2.2,0.4 c-0.8,0-1.5,0.2-1.1,0.6c0.399,0.4,1.2,1.1,1.6,0.9c0.4-0.2,0.601-0.3,0.9-0.4s0.3-0.2,0.6-0.2c0.3-0.1,3.7-0.4,3.7-0.4 s-0.5,2.8-0.8,5.1c-0.3,2.3-0.7,4.6-0.8,4.8C53.8,35,53.7,35.2,53.3,35.6z"/><path fill="#DA2429" d="M58,26.8c0.2,1.2-0.6,3.7-0.8,4.5c-0.2,0.9-0.8,2.7-0.5,3.1c0.2,0.4,0.399,0.9,0.899,1s1.2,0.1,1.7-0.6 c0.5-0.7,1.7-2.4,2.3-3.2c0.5-0.8,1.101-1.4,1.101-1.4s0.1,0.9,0,1.5c-0.101,0.6-0.4,1.9-0.3,2.3c0.1,0.4,0.3,0.8,0.8,1.3 s1.1,0.4,1.1-0.2s-0.2-2.7-0.1-3.4c0.1-0.7,0.5-3.3,0.8-3.9c0.2-0.6,0.2-0.6,0.4-1c0.3-0.3,0.399-0.6,0.3-1 c-0.101-0.4-0.9-0.6-1.2-0.6c-0.3-0.1-0.6,0.2-0.6,0.5c0,0.3-0.101,0.8-0.301,1.1c-0.3,0.4-1.699,2.5-2.199,3.4 c-0.5,0.9-1.801,2.6-2.301,3c-0.5,0.4-0.6,0.8-0.699-0.1C58.3,32.3,58.8,30.9,59,30.2c0.2-0.7,0.9-2.6,1-3.2 c0.1-0.5,0.1-0.9-0.1-1.2c-0.2-0.3-1-0.5-1.2-0.4C58.2,25.6,57.9,26.2,58,26.8z"/></svg>