<svg xmlns="http://www.w3.org/2000/svg" width="70" height="70" version="1.1" viewBox="0 0 70 70"><g id="surface1"><path d="M 57.761719 29.496094 L 59.992188 29.496094 L 60.726562 26.03125 L 64.996094 26.03125 L 64.261719 29.496094 L 67.085938 29.496094 L 66.492188 32.320312 L 63.667969 32.320312 L 62.742188 36.707031 C 62.53125 37.707031 62.742188 37.824219 63.90625 37.824219 C 65.070312 37.824219 64.855469 37.824219 65.425781 37.777344 L 64.855469 40.433594 C 63.953125 40.550781 62.816406 40.648438 61.558594 40.648438 C 58.78125 40.648438 57.785156 39.960938 58.28125 37.609375 L 59.421875 32.320312 L 57.191406 32.320312 L 57.785156 29.496094 Z M 57.761719 29.496094" style="stroke:none;fill-rule:nonzero;fill:#000;fill-opacity:1"/><path d="M 51.972656 29.496094 L 56.242188 29.496094 L 53.917969 40.386719 L 49.644531 40.386719 Z M 51.972656 29.496094" style="stroke:none;fill-rule:nonzero;fill:#000;fill-opacity:1"/><path d="M 52.777344 25.652344 L 57.046875 25.652344 L 56.503906 28.238281 L 52.230469 28.238281 Z M 52.777344 25.652344" style="stroke:none;fill-rule:nonzero;fill:#000;fill-opacity:1"/><path d="M 40.652344 29.496094 L 38.328125 40.386719 L 42.480469 40.386719 L 44.804688 29.496094 Z M 40.652344 29.496094" style="stroke:none;fill-rule:nonzero;fill:#000;fill-opacity:1"/><path d="M 49.714844 28.996094 C 47.816406 28.996094 44.78125 30.871094 43.972656 34.21875 L 43.761719 34.976562 L 43.832031 34.976562 C 44.449219 33.527344 45.96875 32.746094 48.007812 32.746094 C 50.046875 32.746094 49.195312 32.816406 49.691406 32.9375 L 50.523438 29.042969 C 50.238281 29.042969 49.953125 28.996094 49.714844 28.996094 Z M 49.714844 28.996094" style="stroke:none;fill-rule:nonzero;fill:#000;fill-opacity:1"/><path d="M 34.625 29.496094 L 38.894531 29.496094 L 36.570312 40.386719 L 32.300781 40.386719 Z M 34.625 29.496094" style="stroke:none;fill-rule:nonzero;fill:#000;fill-opacity:1"/><path d="M 35.457031 25.652344 L 39.703125 25.652344 L 39.15625 28.238281 L 34.886719 28.238281 Z M 35.457031 25.652344" style="stroke:none;fill-rule:nonzero;fill:#000;fill-opacity:1"/><path d="M 18.535156 29.496094 L 22.691406 29.496094 L 22.382812 30.941406 L 22.429688 30.941406 C 23.566406 29.828125 25.203125 29.210938 26.9375 29.210938 C 30.804688 29.210938 32.871094 31.347656 32.0625 35.117188 C 31.398438 38.273438 28.503906 40.835938 24.492188 40.835938 C 20.484375 40.835938 21.289062 40.21875 20.71875 39.414062 L 20.671875 39.414062 L 19.628906 44.347656 L 15.355469 44.347656 L 18.511719 29.496094 Z M 24.089844 37.730469 C 26.035156 37.730469 27.316406 36.757812 27.695312 34.953125 C 28.074219 33.148438 27.222656 32.175781 25.277344 32.175781 C 23.332031 32.175781 22 33.269531 21.644531 34.953125 C 21.289062 36.636719 22.097656 37.730469 24.089844 37.730469 Z M 24.089844 37.730469" style="stroke:none;fill-rule:nonzero;fill:#000;fill-opacity:1"/><path d="M 6.554688 36.992188 C 6.554688 37.398438 6.625 37.730469 6.957031 37.917969 C 7.289062 38.132812 7.859375 38.25 8.785156 38.25 C 9.710938 38.25 10.777344 38.0625 10.945312 37.277344 C 11.0625 36.683594 10.683594 36.542969 9.664062 36.421875 L 5.960938 35.972656 C 3.539062 35.664062 2.449219 34.785156 2.851562 32.9375 C 3.46875 29.96875 6.222656 29.042969 10.304688 29.042969 C 14.382812 29.042969 16.757812 29.566406 16.332031 32.675781 L 11.535156 32.675781 C 11.585938 32.222656 11.347656 31.914062 10.96875 31.75 C 10.585938 31.558594 10.042969 31.511719 9.496094 31.511719 C 8.261719 31.511719 7.480469 31.796875 7.3125 32.53125 C 7.242188 32.863281 7.457031 33.171875 8.523438 33.292969 L 12.128906 33.695312 C 15 34.027344 16.257812 34.929688 15.808594 37.0625 C 15.261719 39.652344 12.558594 40.835938 8.023438 40.835938 C 3.492188 40.835938 1.023438 40.292969 1.640625 36.992188 L 6.601562 36.992188 Z M 6.554688 36.992188" style="stroke:none;fill-rule:nonzero;fill:#000;fill-opacity:1"/><path d="M 68.367188 31.25 C 68.25 31.25 68.128906 31.25 68.035156 31.179688 C 67.941406 31.109375 67.84375 31.085938 67.75 30.988281 C 67.679688 30.917969 67.609375 30.824219 67.5625 30.707031 C 67.511719 30.585938 67.488281 30.46875 67.488281 30.347656 C 67.488281 30.230469 67.488281 30.089844 67.5625 29.992188 C 67.632812 29.898438 67.679688 29.78125 67.75 29.707031 C 67.820312 29.636719 67.917969 29.566406 68.035156 29.519531 C 68.152344 29.472656 68.25 29.449219 68.367188 29.449219 C 68.484375 29.449219 68.605469 29.449219 68.699219 29.519531 C 68.792969 29.589844 68.890625 29.613281 68.984375 29.707031 C 69.054688 29.78125 69.125 29.875 69.175781 29.992188 C 69.222656 30.113281 69.246094 30.230469 69.246094 30.347656 C 69.246094 30.46875 69.246094 30.609375 69.175781 30.707031 C 69.125 30.824219 69.054688 30.894531 68.984375 30.988281 C 68.914062 31.085938 68.816406 31.132812 68.699219 31.179688 C 68.582031 31.226562 68.484375 31.25 68.367188 31.25 Z M 68.367188 31.0625 C 68.460938 31.0625 68.558594 31.0625 68.628906 31.011719 C 68.699219 30.988281 68.769531 30.941406 68.84375 30.871094 C 68.914062 30.800781 68.9375 30.730469 68.984375 30.65625 C 69.007812 30.5625 69.03125 30.46875 69.03125 30.371094 C 69.03125 30.277344 69.03125 30.183594 68.984375 30.089844 C 68.960938 29.992188 68.914062 29.921875 68.84375 29.875 C 68.792969 29.804688 68.722656 29.757812 68.628906 29.730469 C 68.558594 29.707031 68.460938 29.683594 68.367188 29.683594 C 68.273438 29.683594 68.175781 29.683594 68.105469 29.730469 C 68.035156 29.757812 67.964844 29.804688 67.894531 29.875 C 67.84375 29.945312 67.796875 30.015625 67.75 30.089844 C 67.726562 30.183594 67.703125 30.277344 67.703125 30.371094 C 67.703125 30.46875 67.703125 30.5625 67.75 30.65625 C 67.773438 30.753906 67.820312 30.824219 67.894531 30.871094 C 67.941406 30.941406 68.011719 30.988281 68.105469 31.011719 C 68.175781 31.039062 68.273438 31.0625 68.367188 31.0625 Z M 68.011719 29.898438 L 68.390625 29.898438 C 68.484375 29.898438 68.582031 29.898438 68.652344 29.96875 C 68.722656 30.039062 68.746094 30.089844 68.746094 30.183594 C 68.746094 30.277344 68.746094 30.277344 68.699219 30.324219 C 68.675781 30.371094 68.628906 30.398438 68.582031 30.421875 L 68.769531 30.777344 L 68.535156 30.777344 L 68.390625 30.492188 L 68.25 30.492188 L 68.25 30.777344 L 68.035156 30.777344 L 68.035156 29.898438 Z M 68.34375 30.347656 C 68.390625 30.347656 68.4375 30.347656 68.460938 30.300781 C 68.484375 30.300781 68.511719 30.253906 68.511719 30.207031 C 68.511719 30.160156 68.511719 30.136719 68.460938 30.113281 C 68.4375 30.089844 68.390625 30.0625 68.34375 30.0625 L 68.226562 30.0625 L 68.226562 30.324219 L 68.320312 30.324219 Z M 68.34375 30.347656" style="stroke:none;fill-rule:nonzero;fill:#000;fill-opacity:1"/></g></svg>