<svg xmlns="http://www.w3.org/2000/svg" id="Layer_1" width="70" height="70" x="0" y="0" enable-background="new 0 0 70 70" version="1.1" viewBox="0 0 70 70" xml:space="preserve"><path fill="#E32426" d="M0.25,23.063c14.257-3.56,47.318-9.113,55.467,8.521c2.03,4.395,5.394-0.666,14.033,4.834 c-6.276,1.924-7.461,7.254-14.995,11.523c-13.703,7.764-35.329,1.682-54.506,3.387v-0.293c8.138-0.82,14.076-0.764,14.834-2.793 c0.547-1.465-3.92-2.225-8.303-2.32l0.001-0.154c13.743,0.109,24.757-1.152,32.709-5.062c5.799-2.849,4.675-6.171-6.176-10.566 c-2.925-4.394-7.599-7.294-33.065-6.677L0.25,23.063L0.25,23.063z"/></svg>