<svg xmlns="http://www.w3.org/2000/svg" version="1.1" id="Layer_1" x="0px" y="0px" width="70px" height="70px" viewBox="0 0 70 70" enable-background="new 0 0 70 70" xml:space="preserve"><metadata/><rect width="70" fill="none" height="70"/><g><g><path fill="#5CB347" d="M1,39.4L3.6,22.8h6.9c1.2,0,2.1,0.1,2.9,0.3c0.7,0.2,1.3,0.7,1.8,1.4s0.6,1.6,0.4,2.5     c-0.1,0.9-0.6,1.7-1.2,2.4c-0.7,0.7-1.5,1.1-2.6,1.3c1.2,0.2,2.1,0.7,2.6,1.4c0.5,0.7,0.7,1.6,0.5,2.7c-0.2,1.3-0.8,2.4-1.9,3.2     c-1,0.9-2.5,1.3-4.4,1.3L1,39.4L1,39.4z M4.5,36.9h4.1c0.9,0,1.6-0.2,2.2-0.601c0.6-0.399,0.9-1,1-1.7c0.1-0.7-0.1-1.3-0.5-1.7     c-0.4-0.4-1.1-0.7-1.9-0.7H5.2L4.5,36.9z M5.6,29.7h3.9c0.8,0,1.5-0.2,2-0.7c0.5-0.4,0.9-1,1-1.7c0.1-0.8-0.1-1.3-0.5-1.7     c-0.5-0.4-1.1-0.5-1.8-0.5H6.3L5.6,29.7z"/><path fill="#5CB347" d="M20,39.4h-3L19,27h3L20,39.4z M22.2,25.6h-3l0.5-2.9h3L22.2,25.6z"/><path fill="#5CB347" d="M34.5,39.4h-3l1.2-7.7c0.1-0.8,0-1.4-0.3-1.8c-0.3-0.4-0.8-0.6-1.3-0.6c-0.8,0-1.5,0.3-2.2,1     c-0.7,0.6-1.1,1.6-1.3,2.9l-1,6.3h-3L25.5,27h2.7l-0.4,2.9c1.3-2.1,2.8-3.1,4.5-3.1c1.2,0,2.1,0.3,2.8,1c0.7,0.7,0.9,1.9,0.7,3.6     L34.5,39.4z"/><path fill="#5CB347" d="M44.5,37.2l-0.3,2.2C43.3,39.6,42.6,39.7,42.1,39.7c-0.8,0-1.5-0.101-2-0.4S39.2,38.6,39,38.1     s-0.2-1.3,0-2.399l1-6.4h-1.6l0.3-2.2h1.8l0.8-3.2l2.5-0.2L43.2,27h2.6l-0.3,2.2h-2.6l-0.9,6c-0.1,0.8-0.1,1.3,0.2,1.6     s0.8,0.4,1.6,0.4C44,37.2,44.2,37.2,44.5,37.2z"/><path fill="#5CB347" d="M55.2,35.4l2.6,0.3c-0.5,1.1-1.3,2-2.5,2.8c-1.1,0.7-2.399,1.1-4,1.1c-1.8,0-3.2-0.6-4.1-1.699     c-0.9-1.101-1.2-2.7-0.9-4.7c0.3-1.9,1.101-3.4,2.4-4.6c1.3-1.2,2.899-1.8,4.8-1.8s3.2,0.6,4.1,1.8c0.801,1.2,1.101,2.7,0.801,4.6     L58.3,33.5h-9c-0.1,0.8-0.2,1.5-0.1,2c0.1,0.5,0.399,0.9,0.8,1.3c0.4,0.4,1,0.601,1.8,0.601C53.4,37.4,54.5,36.8,55.2,35.4z      M55.6,31.8c0.101-0.9,0-1.6-0.5-2.2S54,28.8,53.2,28.8s-1.5,0.3-2.2,0.8c-0.6,0.5-1.1,1.3-1.3,2.2H55.6z"/><path fill="#5CB347" d="M63.2,39.4h-3l2-12.4h2.7l-0.5,3c0.6-1.1,1.199-2,2-2.5c0.8-0.5,1.5-0.8,2.199-0.8c0.101,0,0.2,0,0.4,0     l-0.5,3c-1.5,0-2.6,0.5-3.2,1.4c-0.6,0.9-1,1.8-1.1,2.6L63.2,39.4z"/></g></g></svg>