<svg xmlns="http://www.w3.org/2000/svg" version="1.1" id="Layer_1" x="0px" y="0px" width="70px" height="70px" viewBox="0 0 70 70" enable-background="new 0 0 70 70" xml:space="preserve"><path fill="#CD2027" d="M36.141,14.501c0.528,0.071,1.061,0.119,1.583,0.217  c3.31,0.623,5.997,2.273,8.046,4.943c0.188,0.245,0.243,0.613,0.301,0.934c0.474,2.651-0.009,5.118-1.451,7.396  c-0.04,0.063-0.074,0.131-0.083,0.207c1.751-2.025,2.494-4.369,2.24-7.059c0.186,0.375,0.383,0.743,0.55,1.126  c0.169,0.384,0.291,0.788,0.457,1.173c0.286,0.666,0.269,1.336,0.118,2.031c-0.359,1.665-1.118,3.123-2.225,4.409  c-0.057,0.065-0.112,0.131-0.182,0.212c0.354-0.121,1.241-1.056,1.774-1.852c0.481-0.719,0.826-1.498,1.049-2.336  c0.136,0.92,0.192,1.844,0.056,2.76c-0.055,0.368-0.26,0.722-0.434,1.064c-0.413,0.812-0.996,1.5-1.653,2.127  c-0.063,0.06-0.127,0.119-0.171,0.201c0.777-0.444,1.438-1.025,2.009-1.79c-0.954,4.998-5.468,9.819-11.77,10.263  c-6.942,0.488-12.468-4.394-13.681-10.281c0.585,0.773,1.247,1.363,2.011,1.832c0.022-0.023,0.045-0.047,0.068-0.07  c-0.068-0.047-0.145-0.086-0.205-0.141c-0.727-0.685-1.334-1.456-1.789-2.353c-0.265-0.521-0.395-1.063-0.378-1.643  c0.017-0.644,0.042-1.286,0.102-1.935c0.337,1.19,0.912,2.241,1.722,3.156c0.341,0.385,0.729,0.729,1.094,1.09  c0.017-0.015,0.035-0.031,0.052-0.047c-0.044-0.057-0.085-0.117-0.133-0.172c-1.34-1.52-2.186-3.266-2.417-5.29  c-0.021-0.187-0.009-0.388,0.039-0.568c0.245-0.935,0.603-1.828,1.056-2.682c0.044-0.084,0.095-0.163,0.163-0.241  c-0.127,1.284-0.025,2.543,0.367,3.771c0.394,1.233,1.013,2.336,1.916,3.277c-0.042-0.07-0.082-0.142-0.126-0.211  c-1.186-1.849-1.746-3.871-1.631-6.062c0.036-0.678,0.195-1.349,0.31-2.021c0.02-0.113,0.095-0.227,0.169-0.32  c2.109-2.699,4.853-4.346,8.225-4.941c0.456-0.081,0.918-0.12,1.378-0.178C35.158,14.501,35.65,14.501,36.141,14.501z   M40.645,20.708c-0.086,0.053-0.168,0.104-0.247,0.153c-1.306,0.802-2.521,1.717-3.566,2.843c-0.685,0.738-1.278,1.535-1.604,2.503  c-0.619,1.836,0.247,3.599,2.046,4.114c1.327,0.381,2.575,0.119,3.604-0.767c2.448-2.114,3.379-4.837,2.758-7.985  c-1.124-5.689-7.489-8.507-12.482-5.592c-2.993,1.748-4.618,5.229-4.021,8.65c0.41,2.346,1.625,4.182,3.566,5.551  c0.108,0.076,0.189,0.213,0.245,0.34c0.227,0.51,0.436,1.028,0.659,1.539c0.038,0.089,0.107,0.163,0.162,0.243  c0.027-0.092,0.008-0.157-0.012-0.222c-0.406-1.319-0.405-2.642-0.006-3.961c0.5-1.654,1.483-3.008,2.713-4.188  c0.574-0.551,1.214-1.033,1.81-1.562c0.374-0.332,0.666-0.734,0.492-1.268c-0.165-0.518-0.622-0.669-1.104-0.7  c-1.541-0.102-3.08-0.185-4.62-0.272c-0.738-0.043-1.478-0.084-2.217-0.125c0.235-0.075,0.472-0.105,0.712-0.127  c1.789-0.164,3.577-0.328,5.365-0.488c0.186-0.018,0.316-0.094,0.445-0.232c1.082-1.165,2.772-1.176,3.867-0.023  C39.689,19.642,40.152,20.169,40.645,20.708z M38.087,33.329c-0.481,0-0.929,0.02-1.373-0.006c-0.379-0.021-0.649,0.123-0.889,0.403  c-0.892,1.047-1.794,2.085-2.691,3.127c-0.049,0.056-0.088,0.119-0.161,0.22c0.273,0,0.501-0.028,0.721,0.006  c0.533,0.083,0.93-0.08,1.193-0.562c0.041-0.075,0.137-0.167,0.209-0.169c0.497-0.016,0.994-0.008,1.504-0.008  c0.021,0.254,0.043,0.484,0.063,0.716c0.6,0,1.174,0,1.777,0C38.323,35.812,38.205,34.587,38.087,33.329z M41.003,36.271  c0.387-1.008,0.752-1.959,1.13-2.941c-0.544,0-1.042,0.011-1.539-0.006c-0.204-0.006-0.288,0.069-0.357,0.251  c-0.402,1.072-0.816,2.14-1.226,3.21c-0.034,0.086-0.061,0.174-0.1,0.289c1.326,0,2.614,0.002,3.9-0.005  c0.062-0.001,0.152-0.055,0.177-0.108c0.097-0.213,0.172-0.435,0.27-0.689C42.501,36.271,41.779,36.271,41.003,36.271z   M29.349,37.077c0.828,0.145,1.644,0.197,2.452-0.031c0.587-0.167,1.028-0.531,1.259-1.104c0.337-0.834,0.652-1.678,0.975-2.52  c0.008-0.02-0.003-0.049-0.008-0.094c-0.5,0-0.999,0.009-1.497-0.004c-0.184-0.004-0.277,0.047-0.343,0.229  c-0.23,0.634-0.479,1.259-0.722,1.887c-0.233,0.607-0.541,0.823-1.182,0.847c-0.222,0.008-0.508-0.059-0.648,0.055  c-0.16,0.129-0.191,0.418-0.276,0.639C29.353,36.996,29.354,37.015,29.349,37.077z" clip-rule="evenodd" fill-rule="evenodd"/><path d="M68.76,47.226c-0.568,0-1.138,0-1.703,0c-0.155-0.387-0.512-0.504-1.053-0.349  c-0.05,0.014-0.111,0.021-0.145,0.057c-0.113,0.121-0.219,0.252-0.326,0.378c0.132,0.08,0.257,0.203,0.399,0.229  c0.481,0.088,0.971,0.131,1.453,0.215c0.212,0.037,0.426,0.106,0.619,0.201c0.312,0.156,0.395,0.398,0.28,0.727  c-0.151,0.431-0.46,0.719-0.861,0.908c-0.859,0.404-1.775,0.45-2.699,0.382c-0.369-0.027-0.746-0.107-1.095-0.234  c-0.441-0.162-0.59-0.518-0.479-1.009c0.53,0,1.072-0.004,1.612,0.005c0.047,0.001,0.097,0.071,0.138,0.117  c0.068,0.073,0.115,0.196,0.196,0.221c0.426,0.136,0.851,0.129,1.228-0.137c0.088-0.06,0.167-0.198,0.162-0.297  c-0.004-0.065-0.157-0.16-0.254-0.177c-0.526-0.091-1.056-0.153-1.582-0.244c-0.195-0.034-0.393-0.097-0.569-0.185  c-0.328-0.162-0.415-0.426-0.287-0.771c0.138-0.366,0.402-0.636,0.754-0.765c0.474-0.172,0.965-0.346,1.459-0.387  c0.621-0.051,1.256,0.01,1.88,0.063c0.393,0.035,0.7,0.253,0.872,0.629C68.76,46.945,68.76,47.086,68.76,47.226z" clip-rule="evenodd" fill-rule="evenodd"/><path d="M1.417,49.805c0.069-0.147,0.156-0.289,0.202-0.443  c0.057-0.19,0.148-0.271,0.355-0.241c0.163,0.024,0.333,0.013,0.499,0.002c0.51-0.036,0.872-0.27,1.056-0.767  c0.24-0.648,0.5-1.289,0.738-1.938c0.066-0.181,0.149-0.26,0.354-0.253c0.49,0.018,0.98,0.006,1.496,0.006  c-0.027,0.089-0.042,0.155-0.066,0.216c-0.278,0.729-0.566,1.453-0.835,2.184c-0.309,0.837-0.923,1.302-1.785,1.378  c-0.605,0.053-1.22-0.016-1.831-0.031c-0.061-0.001-0.122-0.006-0.183-0.008C1.417,49.873,1.417,49.839,1.417,49.805z" clip-rule="evenodd" fill-rule="evenodd"/><path d="M42.937,48.4c0.156,0.497,0.306,0.971,0.467,1.483  c-0.631,0-1.23,0.005-1.831-0.008c-0.05-0.001-0.123-0.11-0.142-0.179c-0.107-0.378-0.202-0.76-0.3-1.131  c-0.031-0.012-0.047-0.022-0.062-0.023c-0.482-0.028-0.479-0.027-0.652,0.412c-0.121,0.307-0.175,0.72-0.402,0.882  c-0.219,0.155-0.624,0.046-0.947,0.049c-0.243,0.003-0.485,0-0.77,0c0.095-0.248,0.174-0.457,0.255-0.667  c0.363-0.946,0.729-1.893,1.085-2.843c0.059-0.156,0.134-0.211,0.304-0.209c0.938,0.009,1.875-0.009,2.812,0.017  c0.372,0.008,0.754,0.063,1.11,0.168c0.58,0.169,0.731,0.587,0.457,1.128c-0.23,0.454-0.639,0.679-1.096,0.839  C43.143,48.348,43.057,48.366,42.937,48.4z M40.863,47.806c0.407,0,0.784,0.036,1.151-0.015c0.186-0.024,0.386-0.169,0.517-0.315  c0.225-0.251,0.101-0.548-0.237-0.584c-0.319-0.031-0.645-0.019-0.966-0.016c-0.048,0.001-0.12,0.047-0.138,0.091  C41.077,47.237,40.976,47.513,40.863,47.806z" clip-rule="evenodd" fill-rule="evenodd"/><path d="M55.893,48.128c0.239-0.623,0.459-1.185,0.668-1.751  c0.057-0.154,0.133-0.217,0.302-0.21c0.386,0.013,0.771,0.004,1.197,0.004c-0.034,0.101-0.056,0.178-0.085,0.254  c-0.413,1.079-0.83,2.157-1.238,3.238c-0.061,0.159-0.131,0.239-0.317,0.229c-0.332-0.019-0.667-0.013-1-0.002  c-0.153,0.006-0.234-0.053-0.306-0.187c-0.308-0.58-0.628-1.153-0.943-1.729c-0.047-0.082-0.098-0.161-0.166-0.277  c-0.261,0.672-0.516,1.301-0.743,1.939c-0.074,0.206-0.175,0.266-0.382,0.256c-0.364-0.018-0.729-0.006-1.137-0.006  c0.068-0.186,0.121-0.329,0.176-0.474c0.385-1.006,0.778-2.009,1.152-3.018c0.067-0.182,0.157-0.234,0.341-0.228  c0.394,0.013,0.789,0.012,1.183,0c0.172-0.005,0.266,0.046,0.348,0.203C55.239,46.942,55.555,47.507,55.893,48.128z" clip-rule="evenodd" fill-rule="evenodd"/><path d="M26.014,48.113c0.23-0.6,0.453-1.158,0.658-1.725  c0.06-0.165,0.138-0.23,0.32-0.222c0.384,0.015,0.77,0.004,1.18,0.004c-0.034,0.105-0.055,0.188-0.086,0.268  c-0.41,1.071-0.824,2.14-1.229,3.213c-0.064,0.169-0.141,0.251-0.336,0.24c-0.315-0.02-0.632-0.019-0.946,0  c-0.188,0.011-0.282-0.067-0.365-0.223c-0.346-0.648-0.702-1.29-1.084-1.986c-0.172,0.445-0.323,0.838-0.475,1.231  c-0.103,0.27-0.199,0.543-0.316,0.806c-0.031,0.07-0.127,0.156-0.195,0.159c-0.41,0.015-0.821,0.007-1.266,0.007  c0.029-0.102,0.043-0.173,0.07-0.243c0.417-1.087,0.84-2.17,1.247-3.262c0.065-0.173,0.151-0.219,0.324-0.214  c0.403,0.012,0.806,0.011,1.209,0c0.161-0.004,0.251,0.046,0.328,0.191c0.262,0.505,0.541,1.001,0.814,1.501  C25.905,47.935,25.951,48.006,26.014,48.113z" clip-rule="evenodd" fill-rule="evenodd"/><path d="M11.091,49.839c0.085-0.222,0.171-0.447,0.257-0.673  c0.357-0.93,0.717-1.859,1.066-2.792c0.059-0.155,0.136-0.209,0.303-0.207c0.937,0.009,1.875-0.013,2.811,0.017  c0.396,0.013,0.803,0.081,1.181,0.199c0.504,0.16,0.638,0.541,0.423,1.023c-0.202,0.454-0.579,0.713-1.03,0.876  c-0.602,0.218-1.229,0.253-1.862,0.255c-0.289,0.001-0.646-0.093-0.846,0.043c-0.198,0.135-0.243,0.501-0.348,0.769  c-0.21,0.537-0.208,0.539-0.784,0.537c-0.368,0-0.735-0.004-1.103-0.008C11.146,49.878,11.131,49.862,11.091,49.839z M13.639,47.81  c0.415,0,0.777,0.037,1.127-0.016c0.195-0.027,0.405-0.17,0.542-0.321c0.229-0.255,0.104-0.546-0.239-0.582  c-0.321-0.03-0.647-0.018-0.971-0.014c-0.046,0-0.115,0.051-0.133,0.095C13.854,47.236,13.756,47.504,13.639,47.81z" clip-rule="evenodd" fill-rule="evenodd"/><path d="M63.458,46.188c0.003,0.034,0.006,0.043,0.004,0.05  c-0.19,0.633-0.19,0.633-0.845,0.633c-0.561,0-1.122,0.008-1.683-0.004c-0.188-0.004-0.291,0.047-0.342,0.233  c-0.046,0.167-0.12,0.326-0.195,0.526c0.707,0,1.385,0,2.105,0c-0.085,0.225-0.14,0.418-0.229,0.591  c-0.033,0.062-0.147,0.112-0.225,0.114c-0.561,0.01-1.123,0.014-1.684,0c-0.192-0.005-0.289,0.058-0.34,0.238  c-0.045,0.166-0.114,0.325-0.19,0.532c0.856,0,1.672,0,2.529,0c-0.097,0.256-0.168,0.471-0.261,0.674  c-0.024,0.054-0.118,0.105-0.181,0.105c-1.358,0.005-2.717,0.002-4.076,0c-0.016,0-0.029-0.015-0.071-0.037  c0.17-0.442,0.342-0.888,0.512-1.335c0.272-0.711,0.545-1.422,0.814-2.133c0.046-0.12,0.085-0.211,0.251-0.209  c1.342,0.008,2.683,0.004,4.023,0.006C63.401,46.173,63.428,46.182,63.458,46.188z" clip-rule="evenodd" fill-rule="evenodd"/><path d="M34.6,46.171c0.119,1.257,0.233,2.468,0.35,3.697c-0.599,0-1.164,0-1.751,0  c-0.017-0.232-0.032-0.456-0.051-0.71c-0.519,0-1.024-0.009-1.53,0.007c-0.08,0.002-0.182,0.105-0.229,0.188  c-0.251,0.45-0.621,0.614-1.128,0.539c-0.222-0.034-0.452-0.007-0.733-0.007c0.066-0.093,0.102-0.156,0.148-0.21  c0.887-1.027,1.781-2.051,2.662-3.088c0.252-0.297,0.535-0.446,0.934-0.423C33.707,46.19,34.143,46.171,34.6,46.171z M33.081,47.246  c-0.336,0.422-0.627,0.784-0.939,1.172c0.356,0,0.669,0,0.993,0C33.117,48.039,33.101,47.683,33.081,47.246z" clip-rule="evenodd" fill-rule="evenodd"/><path d="M10.256,46.171c0.119,1.247,0.236,2.465,0.354,3.698c-0.601,0-1.174,0-1.76,0  c-0.014-0.24-0.025-0.464-0.04-0.712c-0.521,0-1.019-0.009-1.515,0.006c-0.082,0.003-0.191,0.097-0.235,0.176  c-0.26,0.473-0.652,0.629-1.173,0.553c-0.212-0.031-0.434-0.006-0.696-0.006c0.061-0.09,0.091-0.146,0.132-0.194  c0.915-1.062,1.833-2.121,2.747-3.185c0.203-0.234,0.442-0.35,0.759-0.34C9.292,46.182,9.756,46.171,10.256,46.171z M8.754,47.334  c-0.023-0.008-0.046-0.013-0.07-0.02c-0.289,0.359-0.577,0.72-0.887,1.106c0.364,0,0.672,0,0.957,0  C8.754,48.044,8.754,47.688,8.754,47.334z" clip-rule="evenodd" fill-rule="evenodd"/><path d="M21.035,46.171c0.12,1.25,0.235,2.466,0.353,3.699c-0.599,0-1.164,0-1.754,0  c-0.014-0.228-0.029-0.45-0.045-0.712c-0.525,0-1.038-0.011-1.549,0.011c-0.089,0.005-0.199,0.139-0.255,0.237  c-0.229,0.407-0.562,0.551-1.021,0.486c-0.246-0.035-0.502-0.007-0.804-0.007c0.078-0.105,0.118-0.168,0.167-0.222  c0.898-1.043,1.799-2.081,2.692-3.125c0.22-0.259,0.477-0.387,0.823-0.372C20.095,46.185,20.549,46.171,21.035,46.171z   M19.517,47.248c-0.342,0.426-0.633,0.788-0.943,1.174c0.36,0,0.669,0,0.998,0C19.554,48.044,19.537,47.687,19.517,47.248z" clip-rule="evenodd" fill-rule="evenodd"/><path d="M44.319,49.846c0.32-0.836,0.631-1.652,0.944-2.468  c0.133-0.353,0.263-0.705,0.409-1.051c0.029-0.068,0.129-0.147,0.198-0.149c0.524-0.013,1.049-0.007,1.621-0.007  c-0.375,0.979-0.738,1.929-1.119,2.924c0.76,0,1.486,0,2.254,0c-0.099,0.257-0.17,0.472-0.264,0.675  c-0.024,0.055-0.115,0.111-0.176,0.111c-1.252,0.005-2.507,0.003-3.759,0.001C44.405,49.882,44.381,49.866,44.319,49.846z" clip-rule="evenodd" fill-rule="evenodd"/><path d="M38.607,46.171c-0.226,0.593-0.438,1.147-0.65,1.701  c-0.231,0.604-0.469,1.206-0.695,1.812c-0.052,0.142-0.113,0.21-0.278,0.207c-0.505-0.013-1.009-0.006-1.543-0.006  c0.025-0.094,0.035-0.152,0.056-0.205c0.422-1.103,0.849-2.203,1.264-3.308c0.061-0.16,0.138-0.209,0.304-0.206  C37.562,46.177,38.06,46.171,38.607,46.171z" clip-rule="evenodd" fill-rule="evenodd"/><path d="M52.047,46.171c-0.409,1.067-0.801,2.088-1.191,3.107  c-0.232,0.607-0.232,0.607-0.894,0.607c-0.351,0-0.7,0-1.087,0c0.028-0.093,0.041-0.165,0.067-0.231  c0.417-1.088,0.837-2.172,1.248-3.262c0.062-0.161,0.133-0.232,0.318-0.228C51.007,46.181,51.507,46.171,52.047,46.171z" clip-rule="evenodd" fill-rule="evenodd"/><path fill="#CD2027" d="M35.639,35.579c0.304-0.378,0.585-0.727,0.915-1.139  c0,0.42,0,0.769,0,1.139C36.276,35.579,35.98,35.579,35.639,35.579z" clip-rule="evenodd" fill-rule="evenodd"/></svg>