<svg xmlns="http://www.w3.org/2000/svg" id="Layer_1" width="70" height="70" x="0" y="0" enable-background="new 0 0 70 70" version="1.1" viewBox="0 0 70 70" xml:space="preserve"><metadata/><path id="path2436" fill="#2A1B45" d="M69.3,1.8H1.7V69.4h59.2c0,0-32.7-2.601-29.5-37.601c0,0,0.3-1.8-3.4-1.9c0,0,0.9-5.9,6.3-5.1 c3.5,0.5,5.9,3.1,5.9,5.7C40.2,30.5,42.7,6.9,69.3,1.8"/><path id="path2440" fill="#FFF" d="M60.7,69.5h8.5c0,0-25.8-3.7-29.2-33.1c7-1.601,14.8,2.1,14.8,2.1l0.101-0.1 c0,0-3.101-7.7-0.4-18.101C57.1,10.2,69.3,4.2,69.3,4.2V1.8C42.7,6.9,40.2,30.5,40.2,30.5c0.1-2.6-2.3-5.2-5.9-5.7 c-5.4-0.7-6.3,5.1-6.3,5.1c3.7,0.1,3.4,1.9,3.4,1.9C28.1,66.8,60.7,69.5,60.7,69.5"/><path id="path2444_2_" fill="#D81F26" d="M69.2,69.5c0,0-25.8-3.7-29.2-33.1c7-1.601,14.8,2.1,14.8,2.1l0.101-0.1 c0,0-3.101-7.7-0.4-18.101C57.1,10.2,69.3,4.2,69.3,4.2L69.2,69.5z"/><rect width="70" height="70" fill="none"/></svg>