<svg xmlns="http://www.w3.org/2000/svg" id="Layer_1" width="70" height="70" x="0" y="0" version="1.1" viewBox="0 0 70 70" xml:space="preserve" style="enable-background:new 0 0 70 70"><style type="text/css">.st0{fill:#005baa}</style><g><path d="M18.6,50.7l1.5,2.6c6.6-0.1,12.6,0.1,19.8,2.9l0.6-1.1C37.8,53.4,28,49.5,18.6,50.7z" class="st0"/><path d="M35.8,36.5l-0.8,1.7l10.3-1.6l0.9-1.4h-8.5C36.9,35.3,36.2,35.7,35.8,36.5z" class="st0"/><path d="M38.9,18.5c-4.6,0-9.1,3-10.5,6.7c-2.3-1.9-5.9-3.9-11.4-3.9C7.4,21.3,3.3,27,0.7,32.7h4.9 c-0.2,1.9-0.4,4.2-0.3,5.3c0.2,1.6,0.6,3.7,0.6,3.7l0.3,1.2c3.3-0.1,4.7,0,6.5,0.2l0.9-2.2c0.3-0.8,0.9-1.5,1.5-2.1l1.5-1.4 l1.7,1.4c-0.9,1.7-1.3,4.2-1.6,6.1C13,45.2,9,47.1,9,47.1l6.7,12.5h10.1l-0.7-1.1c-0.4-0.6-1-1-1.7-1.1l-5.7-0.9l-4.4-7.7 c2.1-1,5.6-1.4,5.6-1.4c0.3-3.7,0.9-6.5,2.7-9.7L18.5,35l0.5-0.8c0.2-0.4,0.3-0.9,0.1-1.3l-0.1-0.3c0,0-4.5,3.9-5.8,5.3 c-1.1,1.1-1.7,2.6-1.7,2.6c-0.8,0-2.3-0.1-3.2-0.1c-0.1-0.6-0.4-2-0.4-2.9c0-2.7,0.7-6.5,0.8-7.6H5.7c2-2.5,5.7-5.6,11.3-5.6 c5.8,0,9.1,2.6,10.6,4.3c-0.1,0.6-0.2,1.3-0.4,2c0,0-1.1,5.7-1.3,6.8h0.8c0.5,0,1-0.3,1.1-0.8c0.9-3.4,3.2-9.6,3.2-9.6 c1.8-3.7,4.4-5.3,7.9-5.5c6.1-0.3,30-1.7,30-1.7l0.9-1.4H38.9z" class="st0"/><path d="M40.8,25.4L40.1,27l25-1.5l0.9-1.4H42.8C41.9,24.2,41.2,24.7,40.8,25.4z" class="st0"/><path d="M38.3,31l-0.7,1.6l23.8-1.5l0.9-1.4h-22C39.4,29.7,38.7,30.2,38.3,31z" class="st0"/></g></svg>