<svg xmlns="http://www.w3.org/2000/svg" version="1.1" id="Layer_1" x="0px" y="0px" width="70px" height="70px" viewBox="0 0 70 70" enable-background="new 0 0 70 70" xml:space="preserve"><path d="M30.654,58.218l-0.393-3.335c-0.017-0.156-0.149-0.218-0.297-0.218H29.16l0.158,1.205l-1.267,2.349l-0.471-3.335  c-0.018-0.156-0.149-0.218-0.297-0.218h-0.838l0.742,5.081h0.558l1.677-3.029l0.392,3.029h0.559l2.899-5.081h-0.612L30.654,58.218z"/><polygon points="6.656,59.745 7.827,59.745 8.909,54.665 7.739,54.665 "/><path d="M40.045,54.665h-4.289c0.07,0.349,0.218,0.498,0.647,0.498h2.165l-3.434,3.631c-0.296,0.315-0.488,0.525-0.506,0.952h4.463  c-0.07-0.347-0.217-0.495-0.637-0.497h-0.007c-0.001,0-0.002,0-0.003,0h-2.253l3.303-3.58C39.914,55.198,40.01,54.952,40.045,54.665  z"/><path d="M12.052,54.665H9.835l0.225,0.441l-0.984,4.64h1.169l0.978-4.609h0.358c0.673,0,0.96,0.41,0.908,1.022  c-0.043,0.549-0.428,1.143-1.607,1.274l0.943,1.755c0.245,0.447,0.358,0.559,1.004,0.559h0.619l-1.309-2.156  c0.699-0.113,1.467-0.576,1.554-1.398C13.799,55.249,13.144,54.665,12.052,54.665z"/><path d="M4.57,54.22l-3.641,5.526h0.655l0.908-1.353H4.64l0.096,0.628c0.069,0.497,0.192,0.724,0.742,0.724h0.558L5.154,54.22H4.57z   M2.841,57.869l1.415-2.112l0.315,2.112H2.841z"/><path d="M20.158,58.182l-1.65-2.976c-0.236-0.429-0.359-0.542-0.864-0.542h-0.725l0.306,0.593l-0.952,4.487h0.612l0.794-3.736  l1.816,3.177c0.2,0.358,0.384,0.559,0.943,0.559l1.083-5.081h-0.612L20.158,58.182z"/><path d="M21.521,59.745h3.719c-0.07-0.349-0.218-0.497-0.646-0.497h-1.789l0.402-1.869h1.842l0.104-0.504h-1.85l0.367-1.712h1.702  c0.428,0,0.576-0.149,0.646-0.498h-3.414L21.521,59.745z"/><path d="M62.408,58.182l-1.65-2.976c-0.236-0.429-0.358-0.542-0.864-0.542h-0.725l0.306,0.593l-0.952,4.487h0.611l0.795-3.736  l1.815,3.177c0.202,0.358,0.384,0.559,0.943,0.559l1.083-5.081h-0.611L62.408,58.182z"/><path d="M19.116,39.464c2.288,5.012,6.079,8.038,10.713,8.038c4.358,0,7.321-3.486,7.321-6.82c0-3.773-2.745-6.244-5.994-6.244  c-3.466,0-4.189,2.742-4.189,3.435c0,1.592,1.257,3.057,2.863,3.057c2.53,0,2.717-2.114,2.717-2.114s0.778,0.512,0.778,1.866  c0,1.303-1.051,2.957-3.496,2.957c-1.948,0-4.817-1.076-6.797-5.465c-2.326-5.139-2.495-6.661-2.495-6.661h30.659l1.75-4.091h-38.56  C14.387,27.422,16.418,33.58,19.116,39.464z"/><path d="M43.721,55.163c0.429,0,0.577-0.149,0.647-0.498h-3.414l-1.082,5.081h3.719c-0.07-0.349-0.218-0.497-0.646-0.497h-1.79  l0.402-1.869h1.842l0.105-0.504h-1.851l0.366-1.712H43.721z"/><path d="M24.271,21.187c0,0,2.381-3.371,7.471-8.415c1.279-1.257,4.631-4.427,8.043-4.427c2.24,0,3.972,1.47,3.972,3.466  c0,1.978-1.595,2.547-1.595,2.547c0.166-0.843-0.346-3.156-2.46-3.156c-2.19,0-3.114,1.758-3.114,2.942  c0,2.43,2.089,4.169,4.53,4.169c4.69,0,6.869-3.499,6.869-6.891c0-3.422-3.143-7.106-8.202-7.106c-4.658,0-8.97,3.456-11.42,5.98  c-8.712,8.935-13.317,14.971-13.317,14.971h38.817l1.748-4.08H24.271z"/><path d="M47.141,54.665l-3.257,5.081h0.655l0.865-1.353h1.955l0.131,0.628c0.106,0.491,0.219,0.724,0.769,0.724h0.558l-1.091-5.081  H47.141z M45.735,57.869l1.135-1.772l0.376,1.772H45.735z"/><path d="M56.217,54.665l-3.257,5.081h0.654l0.865-1.353h1.956l0.131,0.628c0.105,0.491,0.218,0.724,0.768,0.724h0.559l-1.091-5.081  H56.217z M54.812,57.869l1.133-1.772l0.376,1.772H54.812z"/><path d="M52.021,59.249h-1.309l0.978-4.584h-1.169l-1.084,5.081h3.231C52.598,59.396,52.45,59.249,52.021,59.249z"/><path d="M66.668,54.665h-1.305h-0.344h-0.318l0.225,0.439l-0.989,4.641h1.772c1.589,0,3.074-0.933,3.326-2.54  C69.288,55.618,68.206,54.665,66.668,54.665z M67.83,57.206c-0.193,1.309-1.196,2.068-2.305,2.068h-0.323l0.882-4.129h0.323  C67.515,55.145,68.022,55.913,67.83,57.206z"/></svg>