<svg xmlns="http://www.w3.org/2000/svg" version="1.1" id="Layer_1" x="0px" y="0px" width="70px" height="70px" viewBox="0 0 70 70" enable-background="new 0 0 70 70" xml:space="preserve"><g><path fill="#ED1C24" d="M27.084,68.668h-2.87V58.113h2.87v9.444V68.668z M25.695,56.91c0.926,0,1.667-0.648,1.667-1.574   c0-0.926-0.741-1.667-1.667-1.667s-1.574,0.741-1.574,1.667C24.121,56.261,24.769,56.91,25.695,56.91L25.695,56.91z M55.323,68.853   c1.481,0,3.055-0.555,3.796-1.018l-0.648-2.129c-0.648,0.37-1.481,0.833-2.5,0.833c-2.037,0-2.87-1.759-2.87-3.24   c0-1.852,1.204-3.148,2.87-3.148c0.926,0,2.037,0.37,2.685,0.926l0.093-2.315c-0.833-0.463-1.759-0.741-2.963-0.741   c-1.481,0-2.87,0.555-3.889,1.574c-1.111,1.019-1.574,2.407-1.574,3.981c0,1.481,0.463,2.87,1.296,3.796   C52.453,68.298,53.841,68.853,55.323,68.853 M8.937,54.039h-2.13L1.16,68.668h2.87l1.296-3.611h5l1.389,3.611h2.963L8.937,54.039z    M7.456,59.502c0.185-0.463,0.278-0.926,0.463-1.296c0.093,0.37,0.185,0.833,0.463,1.296L9.4,62.65H6.252L7.456,59.502z    M23.38,58.113h-2.87l-2.407,6.851l-2.592-6.851h-2.87l3.796,9.351c0.37,0.741,0.741,1.204,1.481,1.204h1.111L23.38,58.113z    M31.991,68.853c1.111,0,2.037-0.37,2.87-1.018c0.185,0.555,0.463,0.833,1.111,0.833h1.667c-0.093-0.648-0.278-1.204-0.278-2.129   v-4.722c0-2.592-1.389-3.796-4.166-3.796c-1.574,0-2.963,0.463-4.166,1.111l0.926,1.852c0.926-0.555,1.759-0.833,2.685-0.833   c0.833,0,1.852,0.278,1.852,1.666v0.093l-1.759,0.093c-2.778,0.185-4.352,1.389-4.352,3.518   C28.473,67.464,29.954,68.853,31.991,68.853L31.991,68.853z M34.583,65.983c-0.463,0.37-1.018,0.555-1.759,0.555   c-0.833,0-1.481-0.463-1.481-1.296c0-0.463,0.278-1.111,1.944-1.204h1.389v1.944L34.583,65.983L34.583,65.983z M63.193,68.853   c1.111,0,2.037-0.37,2.87-1.018c0.278,0.555,0.463,0.833,1.204,0.833h1.574c-0.093-0.648-0.185-1.204-0.185-2.129v-4.722   c0-2.592-1.389-3.796-4.166-3.796c-1.667,0-3.055,0.463-4.166,1.111l0.926,1.852c0.926-0.555,1.667-0.833,2.592-0.833   c0.833,0,1.852,0.278,1.852,1.666v0.093l-1.667,0.093c-2.778,0.185-4.444,1.389-4.444,3.518   C59.767,67.464,61.248,68.853,63.193,68.853 M65.878,65.983c-0.463,0.37-1.018,0.555-1.759,0.555c-0.926,0-1.481-0.463-1.481-1.296   c0-0.463,0.185-1.111,1.944-1.204h1.389v1.944L65.878,65.983L65.878,65.983z M48.934,61.724c0-2.778-1.759-3.889-3.333-3.889   c-1.296,0-2.315,0.37-3.426,1.296l0,0c-0.278-0.648-0.833-0.926-1.667-0.926H39.49V68.76h2.87v-7.222   c0.926-0.648,1.759-1.018,2.407-1.018c0.926,0,1.389,0.741,1.389,2.129v6.111h2.778C48.934,68.76,48.934,61.724,48.934,61.724z"/><path fill="#ED1C24" d="M47.916,41.077c-0.833-2.592-3.426-4.629-12.684-5.37c1.481,1.759,2.963,3.426,4.629,4.907h4.722   C46.434,40.707,47.36,40.892,47.916,41.077L47.916,41.077z"/><path fill="#ED1C24" d="M12.363,14.32C11.9,24.412,17.27,34.504,34.954,35.707h0.093c-8.982-10.369-15-23.794-17.407-34.905   C17.733,0.802,12.733,5.154,12.363,14.32"/><path fill="#ED1C24" d="M39.861,40.707h-18.98c0.185,0.648,1.111,1.111,3.055,1.204c11.944,0.648,13.61,10.092,30.553,10.092   c1.481,0,2.5-0.185,3.333-0.278c-6.666-2.222-12.777-6.111-18.054-11.018"/></g></svg>