<svg xmlns="http://www.w3.org/2000/svg" id="Layer_1" width="70" height="70" x="0" y="0" enable-background="new 0 0 70 70" version="1.1" viewBox="0 0 70 70" xml:space="preserve"><metadata/><path fill="#0D2B60" d="M30,36.5c2.2-0.1,6.6-0.1,6.9,2c0.1,1-0.5,2-0.9,2.7c-0.7,1.6-1.2,2.899-2.6,3.7 C31.9,45.8,29.6,46.1,27.1,46.1c-2.2,0-5.3-0.1-5.6-1.899c-0.2-0.9,0.5-2,0.8-2.9c0.5-1.1,0.7-2,1.3-2.7 C24.9,37.1,27.4,36.7,30,36.5z"/><path fill="#0D2B60" d="M17.5,38.7c1.7,0.399,3.7,0.399,3.4,2.6c-0.1,0.7-0.5,1.4-0.8,1.9C17.1,47,7.6,46,1.4,46.1 c1.4-3.6,3.2-7.699,4.7-11.5c0.2-0.5,0.7-1.3,0.6-1.7c-0.1-0.5-0.9-0.5-1.3-0.5c0-0.3,0.3-0.5,0.3-0.8c4.2-0.1,9.4,0,13.1,0.2 c0.7,0,3.3,0.7,3.5,2.3c0.1,0.7-0.3,1.6-0.7,2.1C20.8,37.5,19.1,38.3,17.5,38.7z"/><path fill="#0D2B60" d="M52.7,46.2c0,0-0.8-6.8-1-8c-0.5-3.7-0.7-6-1-6.4c-1.2-0.3-2.8-0.1-4.2-0.1c-0.1,0.3-0.8,0.6-0.6,0.8 c0.199,0,0.8-0.1,1,0.2C46.7,33.4,46.1,34,45.6,34.6c-3.3,3.6-6.6,7.1-9.899,10.8c-0.2,0.3-0.6,0.5-0.6,0.8c0.6,0,1.3,0,1.9,0 c1.8-1.9,10-11.1,11.1-12c0.2,1.6,1.5,12,1.5,12H52.7z"/><path fill="#FFF" d="M24.5,44.2c0-1,0.5-1.9,0.9-2.8c0.4-0.9,0.6-1.801,1.2-2.4c0.8-0.9,2.4-1.4,4.1-1.4c1,0,2.6,0.101,2.9,1 c0.2,0.7-0.6,1.9-0.8,2.601c-0.6,1.3-0.9,2.6-2,3.3C29.5,45.2,25.7,45.6,24.5,44.2z"/><path fill="#FFF" d="M7.5,39.3c2,0.101,9.7-1,10,1.9c0.2,1.3-1.1,2.6-2,3.2c-2.4,1.5-7,0.8-10.6,1C5.8,43.3,6.5,41.2,7.5,39.3z"/><path fill="#FFF" d="M10.4,32.5c1.6,0,3.2,0,4.9,0c1.4,0,3.3,0.2,3.6,1.2c0.6,1.6-1,3.3-2,3.8c-2.1,1.2-6.3,0.9-9.1,1 c0.7-2,1.6-3.9,2.3-5.9C10.2,32.5,10.3,32.5,10.4,32.5z"/><path fill="#D6430D" d="M63.3,15.1c0,0-2,0.7-3.3,3c-1.3,2.2-3.9,9.3-4.6,12.3c-0.5,2.1-2.301,4.7-2.7,5.7c-2.3,4.5-4.5,5.2-5.4,5.2 c-2.5,0.101-3.7-1.6-3.7-1.6L45,39.6c0,0,1,1,2.5,0.101c1.7-1,3-4,3.9-6.4c1.399-3.4,2.8-8.8,3.399-10.1c2.9-5.8,4.101-6.4,5.5-7.2 C61.8,15,63.3,15.1,63.3,15.1z"/><path fill="#D6430D" d="M61.9,16.2c-0.7,0.5-1.601,1.7-1.601,1.7s1.601-2.6,3.3-2.4c2.301,0.3,3.601,4.8,3.601,4.8 s-1.7-2.6-3.101-3.8C63.5,16,62.5,15.8,61.9,16.2z"/><path fill="#F5A300" d="M65,20.6c0,0-2.2,0.3-3.6,2.6c-1.301,2.2-1.9,3.2-3.301,6c-1,2-3.1,6.8-3.6,7.7c-2.3,4.5-4.3,5-5.1,5 c-2.5,0.1-4-1.4-4-1.4l1.399-0.1c0,0,1,0.8,2.3-0.2c2.5-2.101,4.101-7.1,5.7-10.4c0.9-1.8,2.2-4.2,3.101-5.4 c1.5-2.1,2.899-3.3,4.6-3.7C63.6,20.4,65,20.6,65,20.6z"/><path fill="#F5A300" d="M61.9,22.8c0,0,1.3-2.1,3-1.8c2.1,0.4,3.5,5.1,3.5,5.1s-2.2-3.9-4-4.7C63.5,21,61.9,22.8,61.9,22.8z"/><path fill="#AABC14" d="M63.1,28.9c0,0-2,0.2-3.1,2.1c-0.7,1.1-3.3,5.6-3.3,5.6S54.8,39.3,54.1,40.2c-0.899,1.2-2.6,2.2-3.399,2.2 c-2.3,0.1-3.101-1.2-3.101-1.2l1-0.101c0,0,1,0.601,2,0.101c1.301-0.7,2.9-3.4,3.7-4.7c0.7-1.1,2-3.1,2.9-4.4 c0.8-1.1,2.399-2.7,4.1-3.2C62,28.8,63.1,28.9,63.1,28.9z"/><path fill="#AABC14" d="M60.8,30.4c0,0,1.101-1.2,2-1.1c1.5,0.2,2.2,3.5,2.2,3.5s-1.2-2.6-2.3-3.2C62,29.3,60.8,30.4,60.8,30.4z"/></svg>