<svg xmlns="http://www.w3.org/2000/svg" version="1.1" width="70px" height="70px" viewBox="0 0 70 70"><g id="surface1"><path d="M 13.125 27.296875 L 7.546875 27.296875 C 7.179688 27.296875 6.878906 27.835938 6.878906 28.503906 L 6.878906 43.164062 C 6.878906 43.828125 7.179688 44.371094 7.546875 44.371094 L 8.402344 44.371094 C 8.773438 44.371094 9.074219 43.828125 9.074219 43.164062 L 9.074219 37.808594 L 11.90625 37.808594 C 12.273438 37.808594 12.574219 37.269531 12.574219 36.601562 L 12.574219 35.0625 C 12.574219 34.398438 12.273438 33.859375 11.90625 33.859375 L 9.074219 33.859375 L 9.074219 31.246094 L 13.125 31.246094 C 13.496094 31.246094 13.792969 30.707031 13.792969 30.039062 L 13.792969 28.503906 C 13.792969 27.835938 13.496094 27.296875 13.125 27.296875 Z M 13.125 27.296875 " style=" stroke:none;fill-rule:nonzero;fill:rgb(0%,58.039218%,85.09804%);fill-opacity:1;"/><path d="M 20.296875 40.441406 L 16.429688 40.441406 L 16.429688 28.503906 C 16.429688 27.835938 16.128906 27.296875 15.757812 27.296875 L 14.902344 27.296875 C 14.535156 27.296875 14.234375 27.835938 14.234375 28.503906 L 14.234375 43.164062 C 14.234375 43.828125 14.535156 44.371094 14.902344 44.371094 L 20.296875 44.371094 C 20.667969 44.371094 20.96875 43.828125 20.96875 43.164062 L 20.96875 41.648438 C 20.96875 40.980469 20.667969 40.441406 20.296875 40.441406 Z M 20.296875 40.441406 " style=" stroke:none;fill-rule:nonzero;fill:rgb(0%,58.039218%,85.09804%);fill-opacity:1;"/><path d="M 27.257812 27.957031 C 27.144531 27.550781 26.914062 27.296875 26.660156 27.296875 L 25.601562 27.296875 C 25.386719 27.296875 25.183594 27.480469 25.058594 27.792969 L 23.148438 32.507812 L 21.226562 27.789062 C 21.101562 27.480469 20.898438 27.296875 20.683594 27.296875 L 19.625 27.296875 C 19.371094 27.296875 19.140625 27.550781 19.027344 27.957031 C 18.914062 28.363281 18.933594 28.847656 19.085938 29.214844 L 22.046875 36.484375 L 22.046875 43.164062 C 22.046875 43.832031 22.34375 44.371094 22.714844 44.371094 L 23.570312 44.371094 C 23.941406 44.371094 24.238281 43.832031 24.238281 43.164062 L 24.238281 36.484375 L 27.199219 29.214844 C 27.351562 28.847656 27.371094 28.363281 27.257812 27.957031 Z M 27.257812 27.957031 " style=" stroke:none;fill-rule:nonzero;fill:rgb(0%,58.039218%,85.09804%);fill-opacity:1;"/><path d="M 49.25 53.429688 C 49.28125 53.375 49.285156 53.292969 49.261719 53.226562 C 49.238281 53.164062 49.191406 53.140625 49.152344 53.167969 C 42.332031 57.945312 34.585938 55.148438 29.316406 46 C 29.285156 45.945312 29.230469 45.941406 29.199219 45.996094 C 29.164062 46.046875 29.15625 46.140625 29.179688 46.207031 C 32.097656 53.953125 36.671875 59.171875 41.808594 60.625 C 42.144531 60.714844 42.621094 60.863281 42.804688 60.734375 C 45.746094 58.597656 47.777344 55.980469 49.25 53.429688 Z M 49.25 53.429688 " style=" stroke:none;fill-rule:nonzero;fill:rgb(0%,58.039218%,85.09804%);fill-opacity:1;"/><path d="M 63.285156 32.546875 C 63.726562 29.140625 64.335938 24.808594 64.464844 17.125 C 64.535156 13.015625 64.414062 8.863281 64.359375 7.304688 C 64.355469 7.164062 64.3125 7.042969 64.242188 6.976562 C 64.175781 6.910156 64.09375 6.914062 64.027344 6.984375 L 51.113281 20.480469 C 51.039062 20.558594 50.996094 20.710938 51.003906 20.867188 C 51.015625 21.023438 51.074219 21.15625 51.15625 21.203125 L 54.992188 23.476562 C 55.109375 23.546875 55.199219 23.71875 55.226562 23.9375 C 55.484375 26.019531 55.617188 28.144531 55.617188 30.277344 C 55.621094 37.796875 54.222656 45.101562 51.648438 51.027344 C 49.863281 55.144531 47.574219 58.464844 44.957031 60.730469 C 44.917969 60.765625 44.894531 60.84375 44.90625 60.921875 C 44.914062 61 44.953125 61.054688 45 61.054688 C 54.242188 60.835938 61.140625 49.070312 63.285156 32.546875 Z M 63.285156 32.546875 " style=" stroke:none;fill-rule:nonzero;fill:rgb(13.333334%,25.098041%,60.000002%);fill-opacity:1;"/><path d="M 31.359375 27.316406 C 28.75 27.304688 26.632812 31.101562 26.628906 35.789062 C 26.625 40.476562 28.734375 44.285156 31.34375 44.289062 C 33.949219 44.292969 36.066406 40.492188 36.066406 35.800781 C 36.0625 31.125 33.957031 27.332031 31.359375 27.316406 Z M 31.359375 40.378906 C 29.957031 40.386719 28.816406 38.34375 28.8125 35.824219 C 28.808594 33.300781 29.945312 31.25 31.347656 31.246094 C 32.75 31.238281 33.890625 33.28125 33.890625 35.800781 C 33.894531 38.324219 32.761719 40.371094 31.359375 40.378906 Z M 31.359375 40.378906 " style=" stroke:none;fill-rule:nonzero;fill:rgb(13.333334%,25.098041%,60.000002%);fill-opacity:1;"/><path d="M 43.824219 27.296875 L 42.96875 27.296875 C 42.597656 27.296875 42.296875 27.835938 42.296875 28.503906 L 42.296875 36.753906 L 38.386719 27.757812 C 38.261719 27.46875 38.066406 27.296875 37.859375 27.296875 L 37.175781 27.296875 C 36.804688 27.296875 36.503906 27.835938 36.503906 28.503906 L 36.503906 43.164062 C 36.503906 43.828125 36.804688 44.371094 37.175781 44.371094 L 38.03125 44.371094 C 38.402344 44.371094 38.699219 43.828125 38.699219 43.164062 L 38.699219 34.914062 L 42.609375 43.90625 C 42.738281 44.199219 42.933594 44.371094 43.136719 44.371094 L 43.824219 44.371094 C 44.191406 44.371094 44.492188 43.832031 44.492188 43.164062 L 44.492188 28.503906 C 44.492188 27.835938 44.191406 27.296875 43.824219 27.296875 Z M 43.824219 27.296875 " style=" stroke:none;fill-rule:nonzero;fill:rgb(13.333334%,25.098041%,60.000002%);fill-opacity:1;"/><path d="M 51.476562 31.222656 C 51.792969 31.113281 52.019531 30.617188 52.019531 30.039062 L 52.019531 28.503906 C 52.019531 27.835938 51.71875 27.296875 51.347656 27.296875 L 46.011719 27.296875 C 45.644531 27.296875 45.34375 27.835938 45.34375 28.503906 L 45.34375 43.164062 C 45.34375 43.832031 45.644531 44.371094 46.011719 44.371094 L 51.15625 44.371094 C 51.488281 44.359375 51.765625 43.902344 51.796875 43.304688 L 51.816406 41.757812 C 51.828125 40.96875 51.53125 40.421875 51.164062 40.421875 L 47.539062 40.421875 L 47.539062 37.808594 L 51.25 37.808594 C 51.417969 37.816406 51.578125 37.703125 51.699219 37.496094 C 51.820312 37.289062 51.890625 37.003906 51.894531 36.703125 L 51.90625 35.0625 C 51.910156 34.742188 51.839844 34.433594 51.714844 34.207031 C 51.585938 33.980469 51.414062 33.855469 51.238281 33.859375 L 47.539062 33.859375 L 47.539062 31.246094 C 47.539062 31.246094 51.433594 31.238281 51.476562 31.222656 Z M 51.476562 31.222656 " style=" stroke:none;fill-rule:nonzero;fill:rgb(13.333334%,25.098041%,60.000002%);fill-opacity:1;"/></g></svg>