<svg xmlns="http://www.w3.org/2000/svg" id="Layer_1" width="573" height="573" viewBox="0 0 573 573"><defs><style>.cls-1{fill:#ff0a32}</style></defs><g id="Layer_2"><g id="Layer_1-2"><path d="M427.24,355.43h41.35l13.22-57.72a192.49,192.49,0,0,1-46.59,22.66ZM320,289.5a178.83,178.83,0,0,0,29.81-.63l-6.93-50Zm-92.77-23.07c18,8.19,34.21,13.85,52,17.63L316.4,208.5H375l13.64,74.93a157.57,157.57,0,0,0,39.67-14.69L392,208.5H420.3a6.58,6.58,0,0,1,4.62,1.47l42.62,34a357.82,357.82,0,0,0,37.57-32.32c2.51-2.52,4.19-3.15,7.77-3.15H570c-56.66,59.4-106,94.66-164.35,109.15l-10.28,2.51,6.5,35.27H359L354.85,325a273.13,273.13,0,0,1-50.17-1.89L290,355.43H244l21.82-44.29-3-1.64A78,78,0,0,1,227.21,266.43Zm-89.22,89h93.83l8.39-35.69h-53.1l25.4-111.24H171.59Zm-76.61-76,8.4-36.52h19.1c9.86,0,17.84,2.94,17.84,15.54,0,10.91-8,21-24.56,21ZM3,355.43H44L53.62,313H85.11c39.67,0,63.38-30,63.38-59.61,0-30.23-21.19-44.92-52.89-44.92h-59Z" class="cls-1"/></g></g></svg>