<svg xmlns="http://www.w3.org/2000/svg" version="1.1" id="Layer_1" x="0px" y="0px" width="70px" height="70px" viewBox="0 0 70 70" enable-background="new 0 0 70 70" xml:space="preserve"><metadata/><rect width="70" fill="none" height="70"/><path fill="#E13B3F" d="M68.4,4.8C68.2,2.1,65.9,0,63.1,0C42.1,0.5,21.6,7.2,4.2,19c-2.3,1.5-2.8,4.7-1.4,6.9   c2.3,3.7,4.7,7.2,7.4,10.5l3-12.5c0.3-1.1,1-1.8,1.9-2.2c1-0.5,2.5-0.7,4.6-0.6h0.9L20,23.6l6.6-2.5h5.2l-1,4.2h-7.6   c-2.3,0.1-4,1.3-4.5,3.3l0,0L17.6,33l0,0c0,0.1-0.4,1.8-0.4,1.9c-0.1,0.5,0,1.2,0.4,1.7c0.4,0.601,1,1,2.1,1.2c0.2,0,0.4,0,0.6,0   h7.4l-1,4.2H15c9.4,10.5,20.8,19.1,33.7,25.2c2.399,1.2,5.399,0.2,6.7-2.2c3.899-7.3,7.1-15.1,9.3-23.1h-2.5L62.1,39   c0-0.3-0.199-0.3-0.3-0.3h-5.6c-0.4,0-0.5,0.1-0.601,0.399L54.3,41.9h-7.8l10.6-21h11.2C68.8,15.7,68.8,10.2,68.4,4.8z M49.8,25.3   h-8c-2.2,0-2.7,2.4-1.2,3.3l5.101,3.8c4.2,3.2,1.7,9.8-4.7,9.8H28.4l1-4.3h8.1c2.8,0,4.1-2.4,2.1-3.8c-1.899-1.4-3.199-2.4-5.1-3.8   c-3.9-2.8-2.1-9.2,4.5-9.2h11.9L49.8,25.3z M61.3,26.6L57.4,35.3C57.2,35.6,57.3,36,57.6,35.9h3.9c0.3,0,0.4-0.301,0.4-0.7   L61.6,26.6C61.7,26.3,61.5,26.3,61.3,26.6z"/></svg>