<svg xmlns="http://www.w3.org/2000/svg" version="1.1" id="Layer_1" x="0px" y="0px" width="70px" height="70px" viewBox="0 0 70 70" enable-background="new 0 0 70 70" xml:space="preserve"><g><path fill="#034EA2" d="M18.512,24.979c0,0.141,0.201-0.051,0.214-0.091   c0.04-0.088,0.04-0.177,0.08-0.268c0.146-0.243,0.428-0.423,0.682-0.539c0.708-0.308,1.349-0.103,2.083-0.115   c0.774-0.026,1.549-0.334,1.95-1.001c0.134-0.244,0.254-0.474,0.374-0.718c0.121-0.244,0.361-0.604,0.333-0.872   c-0.654,0.397-1.522,0.602-2.283,0.462c-0.428-0.091-0.748-0.309-1.122-0.449c-0.494-0.194-1.042-0.271-1.536-0.103   c-0.574,0.192-1.042,0.666-1.242,1.218c-0.16,0.424-0.147,0.897-0.027,1.334C18.138,24.222,18.499,24.568,18.512,24.979z" clip-rule="evenodd" fill-rule="evenodd"/><path fill="#034EA2" d="M30.826,25.787c-0.507,0.077-1.015,0.217-1.482,0.422   c-0.401,0.167-0.775,0.385-1.108,0.667c-0.348,0.308-0.615,0.68-0.989,0.95c-1.109,0.794-3.299,0.885-4.18-0.283   c0.066-0.102,0.186-0.282,0.186-0.282c0.668,0.654,1.75,0.82,2.658,0.667c0.721-0.115,1.389-0.461,1.83-1.039   c0.133-0.178,0.307-0.346,0.481-0.486c0.161-0.129,0.32-0.245,0.507-0.334c0.121-0.065,0.468-0.116,0.455-0.282H7.267   c0.106,0.474-0.081,1.09-0.628,1.218c-0.694,0-0.988,0-0.988,0l0.414,1.604h2.058l-1.242,1.231l1.202,1.192   c0.427-0.667,1.175-1.167,2.003-1.218c1.202-0.063,2.204,0.745,2.965,1.552c0.734,0.769,1.108,1.833,2.11,2.321   c1.176,0.564,2.471,0.256,3.38-0.641c0.4,0.372,0.721,0.859,1.028,1.294c0.347,0.514,0.681,1.052,0.962,1.604   c0.534,1.079,0.921,2.206,1.162,3.373c0.574,2.758,0.027,5.54-1.148,8.092c-0.201,1.644,0.147,3.425,0.828,4.926   c0.535,1.193,1.349,2.128,2.271,3.052c1.002,1,2.03,2.013,3.206,2.845c0.121-0.087,5.61-4.653,12.447-10.335   c0,0-1.189-0.013-1.347-0.013c-0.802-0.154-0.762-0.821-0.762-0.821h3.112c1.842-1.537,3.766-3.141,5.701-4.757l-10.417,0.013   l-0.761-1.013h12.046c0,0,0.36-0.013,0.693-0.27l5.023-4.167H32.482l-0.735-1.014h21.69c0.522-0.051,0.922-0.475,1.309-0.782   c0.576-0.486,1.148-0.962,1.736-1.448c0.95-0.796,1.896-1.578,2.847-2.374H27.554l-0.734-0.987h33.11   c0.601-0.051,1.136-0.475,1.576-0.833c0.492-0.411,0.986-0.82,1.479-1.231c0.949-0.808,1.9-1.604,2.86-2.398L30.826,25.787z" clip-rule="evenodd" fill-rule="evenodd"/></g><circle cx="35" cy="35.39" r="34.172" fill="none" clip-rule="evenodd" fill-rule="evenodd" stroke="#034EA2" stroke-miterlimit="10"/></svg>