<svg xmlns="http://www.w3.org/2000/svg" version="1.1" id="Layer_1" x="0px" y="0px" width="70" height="70" viewBox="0 0 70 70" enable-background="new 0 0 70 70" xml:space="preserve"><path fill="#FFDD00" d="M29.2,8.4c-4,0-7.2,3.2-7.2,7.2s3.2,7.2,7.2,7.2s7.2-3.2,7.2-7.2S33.2,8.4,29.2,8.4 M29.2,5  C35,5.1,39.6,9.8,39.6,15.6S34.8,26,29,25.9c-5.7-0.1-10.3-4.7-10.3-10.4C18.7,9.7,23.3,5,29.1,5"/><path fill="#00A651" d="M39.3,56.5c-1.1,5.7-6.5,9.4-12.2,8.3c-5.7-1.1-9.4-6.5-8.3-12.2c0.5-2.6,2-4.9,4.1-6.5l2.3,2.5  c-3.4,2-4.6,6.4-2.6,9.8s6.4,4.6,9.8,2.6c2.1-1.2,3.4-3.4,3.6-5.8L39.3,56.5z"/><path fill="#ED1C24" d="M25.8,34.6c-3.5,2-4.7,6.3-2.7,9.8c0.6,1.1,1.6,2.1,2.7,2.7l1.3,0.6c-1.4,0.4-2.6,1.1-3.6,2.1  c-3.9-2.4-5.8-7.2-4.5-11.6c0.6-2.4,2.1-4.5,4.2-5.9v0.2l0.6,0.8l0.9,0.9L25.8,34.6z"/><path fill="#00AEEF" d="M34.1,45.5c-1.1,3.8,1.1,7.8,4.9,8.9c2.4,0.7,5.1,0.1,6.9-1.7c0.7-0.8,1.2-1.7,1.5-2.6l3.5,0.6  c-1.7,5.5-7.5,8.7-13,7c-5.2-1.6-8.3-6.8-7.2-12.1L34.1,45.5z"/><path fill="#1E1B4D" d="M35,24.2L35,24.2c-3.5,2.3-7.9,2.3-11.4,0c0.7-1,1.7-1.8,2.9-2.3c0.9,0.4,1.9,0.6,2.8,0.6  c1,0,1.9-0.2,2.8-0.5C33.2,22.5,34.1,23.3,35,24.2"/><path fill="#00AEEF" d="M29.4,18c2,0,4,0.6,5.6,1.7c-0.4,0.6-1,1.2-1.7,1.6c-0.4,0.3-0.8,0.5-1.2,0.6l0,0c-3.6-1.6-7.9,0.1-9.5,3.7  c-1.6,3.6,0.1,7.9,3.7,9.5c3.6,1.6,7.9-0.1,9.5-3.7c0.3-0.7,0.5-1.5,0.6-2.3c1-0.7,2.2-1.3,3.3-1.7c0.6,5.7-3.6,10.9-9.3,11.5  s-10.9-3.6-11.5-9.3c-0.6-5.7,3.6-10.9,9.3-11.5C28.7,18.1,29.1,18,29.4,18"/><path fill="#1E1B4D" d="M35.1,32.4L35.1,32.4c0.7-1,1.1-2.1,1.2-3.3c0.3,0,0.5-0.4,0.9-0.6c0.8-0.5,1.6-0.9,2.5-1.1  c0,0.4,0,0.7,0,1.1c0,2.3-0.8,4.6-2.2,6.4C36.8,34,35.9,33.2,35.1,32.4"/><path fill="#00A651" d="M48,42.2c-2.3,2.3-5.5,3.4-8.7,3c-0.2-1.1-0.2-2.3,0-3.4c3.9,0.7,7.6-1.9,8.3-5.8c0.7-3.9-1.9-7.6-5.8-8.3  c-3.2-0.6-6.4,1.1-7.8,4l0,0l-1.4-0.7l-1.3-0.4H31c2.3-5.3,8.5-7.7,13.8-5.4s7.7,8.5,5.4,13.8c-0.5,1.2-1.3,2.3-2.2,3.2"/><path fill="#ED1C24" d="M36.2,40.9c-0.1-4-3.4-7.1-7.4-7c-1,0-2,0.3-3,0.7c-1-0.6-1.9-1.4-2.5-2.4c2.5-1.8,5.6-2.4,8.5-1.4  c4,1.2,6.9,4.5,7.6,8.6L36.2,40.9z"/><path fill="#1E1B4D" d="M47.4,50.7c1.1-2.7,0.5-5.7-1.5-7.8c-2.8-2.7-7.2-2.7-10,0c-0.7,0.7-1.3,1.6-1.7,2.5L31,44.7  c0.5-1.6,1.4-3,2.6-4.2c2.1-2.1,5.1-3.2,8.1-3.1c5.8,0.4,10.1,5.4,9.7,11.1c0,0.7-0.2,1.4-0.4,2.1H47.4z"/><path fill="#FFDD00" d="M36,53.3c-0.2-1.4-0.9-2.6-1.9-3.6c-1.7-1.8-4.4-2.6-6.8-1.8l0,0c-1.4-0.4-2.6-1.2-3.6-2.2  c4.1-2.6,9.5-2,12.9,1.5c2,2,3.1,4.8,3.1,7.7c-1.3-0.2-2.6-0.8-3.6-1.7"/></svg>