<svg xmlns="http://www.w3.org/2000/svg" id="Layer_1" width="70" height="70" x="0" y="0" version="1.1" viewBox="0 0 70 70" xml:space="preserve" style="enable-background:new 0 0 70 70"><style type="text/css">.st0{fill:#da2128}.st1{fill:#003c6a}</style><g><g id="masterbrand"><path id="_x3C_Pfad_x3E__1_" d="M51.65,42.74c0.05-0.04,0.09-0.09,0.11-0.14c0.02-0.05,0.03-0.13,0.03-0.23v-7.59 c0-0.1-0.01-0.18-0.03-0.24c-0.02-0.05-0.06-0.1-0.11-0.14c-0.12-0.09-0.38-0.14-0.8-0.14c-0.43,0-0.7,0.05-0.81,0.14 c-0.05,0.04-0.09,0.08-0.11,0.14c-0.02,0.05-0.03,0.13-0.03,0.24v7.59c0,0.17,0.05,0.29,0.14,0.37c0.12,0.09,0.39,0.14,0.81,0.14 C51.27,42.88,51.54,42.83,51.65,42.74z M45.99,42.78c0.43-0.15,0.79-0.36,1.07-0.62c0.28-0.26,0.48-0.58,0.61-0.94 c0.13-0.36,0.2-0.76,0.2-1.18v-5.27c0-0.18-0.05-0.3-0.14-0.37c-0.12-0.09-0.39-0.14-0.8-0.14c-0.43,0-0.7,0.05-0.81,0.14 c-0.05,0.04-0.09,0.08-0.11,0.14c-0.02,0.05-0.03,0.13-0.03,0.24v5.24c0,0.21-0.04,0.42-0.11,0.64c-0.07,0.22-0.23,0.4-0.47,0.54 c-0.24,0.14-0.57,0.21-0.97,0.21c-0.28,0-0.51-0.03-0.71-0.1c-0.2-0.07-0.36-0.16-0.48-0.28c-0.12-0.12-0.22-0.27-0.27-0.44 c-0.06-0.17-0.09-0.36-0.09-0.57v-5.24c0-0.18-0.05-0.3-0.14-0.37c-0.12-0.09-0.39-0.14-0.8-0.14c-0.43,0-0.7,0.05-0.81,0.14 c-0.05,0.04-0.09,0.08-0.11,0.14c-0.02,0.05-0.03,0.13-0.03,0.24v5.27c0,0.43,0.07,0.82,0.2,1.18c0.13,0.36,0.34,0.68,0.61,0.94 c0.28,0.26,0.64,0.47,1.07,0.62c0.43,0.15,0.96,0.22,1.56,0.22C45.03,43.01,45.56,42.93,45.99,42.78z M36.71,42.74 c0.05-0.04,0.08-0.09,0.11-0.14c0.02-0.05,0.03-0.13,0.03-0.23v-6.48h1.89c0.14,0,0.25-0.01,0.34-0.04 c0.09-0.03,0.16-0.09,0.2-0.18c0.06-0.11,0.1-0.27,0.13-0.47c0.03-0.2,0.05-0.36,0.05-0.48c0-0.1-0.01-0.17-0.02-0.23 c-0.02-0.05-0.05-0.09-0.1-0.13c-0.03-0.02-0.08-0.04-0.14-0.05c-0.06-0.01-0.14-0.02-0.25-0.02h-5.89 c-0.14,0-0.25,0.01-0.34,0.04c-0.09,0.03-0.16,0.09-0.2,0.18c-0.06,0.1-0.1,0.24-0.13,0.41c-0.03,0.17-0.05,0.35-0.05,0.53 c0,0.1,0.01,0.18,0.02,0.23c0.02,0.05,0.05,0.09,0.11,0.13c0.07,0.04,0.19,0.06,0.38,0.06h2.11v6.48c0,0.18,0.05,0.3,0.14,0.37 c0.12,0.09,0.39,0.14,0.81,0.14C36.32,42.88,36.58,42.83,36.71,42.74z" class="st0"/><path d="M2.17,29.67H8.8c0.65,0,1.14,0.21,1.33,1.13c0.21,1.03,0.13,1.74-1.03,1.82l-2.08,0.15 c1.53,9.68,10.49,12.84,15.37,2.41c0.81-1.73,1.07-2.04,1.96-1.82c1.2,0.3,1.36,0.91,0.79,2.65C20.92,48.86,6.75,50.15,3.97,32.99 l-1.69,0.12c-1.38,0.1-1.43-1.06-1.43-1.71C0.85,30.12,1.32,29.67,2.17,29.67z" class="st0"/><path d="M26.28,23.45c1.36,0,2.46,1.1,2.46,2.46c0,1.36-1.1,2.46-2.46,2.46c-1.36,0-2.46-1.1-2.46-2.46 C23.82,24.55,24.92,23.45,26.28,23.45z" class="st0"/></g><g id="subbrand"><path id="_x3C_Pfad_x3E_" d="M65.25,45.33c0.09-0.04,0.15-0.12,0.21-0.23l3.29-7.42c0.07-0.14,0.1-0.25,0.1-0.32 c0-0.05-0.03-0.1-0.1-0.15c-0.07-0.04-0.2-0.06-0.41-0.06c-0.2,0-0.34,0.02-0.43,0.06c-0.09,0.04-0.16,0.11-0.2,0.23l-1.59,3.59 l-1.72-3.64c-0.04-0.09-0.11-0.15-0.2-0.19c-0.09-0.03-0.22-0.05-0.4-0.05c-0.12,0-0.22,0.01-0.32,0.03 c-0.09,0.02-0.16,0.05-0.2,0.09c-0.04,0.04-0.06,0.08-0.06,0.12c0,0.06,0.03,0.15,0.09,0.28l2.23,4.62l-1.14,2.56 c-0.07,0.15-0.11,0.25-0.11,0.31c0,0.06,0.04,0.11,0.12,0.15c0.08,0.04,0.21,0.07,0.39,0.07C65.02,45.39,65.16,45.37,65.25,45.33 M62.12,42.85c0.08-0.02,0.13-0.04,0.16-0.07c0.05-0.04,0.08-0.12,0.08-0.26v-8.11c0-0.13-0.03-0.22-0.08-0.26 c-0.03-0.02-0.09-0.03-0.2-0.03c-0.07,0-0.17,0.01-0.3,0.04c-0.24,0.05-0.39,0.1-0.44,0.15c-0.06,0.05-0.09,0.16-0.09,0.33v7.89 c0,0.13,0.03,0.22,0.08,0.26c0.03,0.03,0.07,0.05,0.15,0.06c0.07,0.02,0.18,0.03,0.31,0.03C61.94,42.88,62.05,42.87,62.12,42.85 M58.07,42.85c0.08-0.02,0.13-0.04,0.15-0.07c0.05-0.05,0.08-0.14,0.08-0.26V38.1h1.27c0.17,0,0.28-0.05,0.35-0.15 c0.03-0.05,0.05-0.11,0.07-0.2c0.02-0.09,0.03-0.18,0.03-0.29c0-0.11-0.01-0.19-0.04-0.21c-0.03-0.03-0.11-0.04-0.24-0.04H58.3 v-0.84c0-0.18,0.02-0.37,0.05-0.57c0.03-0.21,0.13-0.38,0.29-0.52c0.16-0.14,0.38-0.21,0.67-0.21c0.13,0,0.25,0.01,0.35,0.03 c0.1,0.02,0.21,0.06,0.3,0.1c0.2,0.08,0.33,0.13,0.39,0.13c0.1,0,0.2-0.11,0.3-0.32c0.06-0.14,0.09-0.25,0.09-0.33 c0-0.03-0.01-0.05-0.02-0.08c-0.01-0.03-0.03-0.06-0.07-0.09c-0.03-0.03-0.08-0.06-0.15-0.1c-0.07-0.04-0.16-0.07-0.27-0.12 c-0.11-0.04-0.25-0.07-0.42-0.1c-0.17-0.03-0.38-0.05-0.61-0.05c-0.34,0-0.67,0.07-0.99,0.21c-0.31,0.14-0.56,0.37-0.74,0.71 c-0.18,0.34-0.27,0.75-0.27,1.23v0.93h-0.56c-0.1,0-0.17,0.01-0.21,0.03c-0.05,0.02-0.09,0.05-0.12,0.11 c-0.08,0.12-0.12,0.29-0.12,0.51c0,0.07,0,0.12,0.01,0.16c0,0.03,0.02,0.06,0.06,0.08c0.04,0.02,0.11,0.03,0.22,0.03h0.73v4.43 c0,0.13,0.03,0.22,0.08,0.26c0.03,0.03,0.07,0.05,0.15,0.06c0.07,0.02,0.18,0.03,0.31,0.03C57.88,42.88,57.99,42.87,58.07,42.85" class="st1"/></g></g></svg>