<svg xmlns="http://www.w3.org/2000/svg" version="1.1" id="Layer_1" x="0px" y="0px" width="70" height="70" viewBox="0 0 70 70" xml:space="preserve" style="enable-background:new 0 0 70 70;"><style type="text/css">
	.st0{fill:#D81E05;}
</style><path d="M18.8,25.5c-0.4,0.1-0.8,0.2-1.3,0.3c-4,0.9-8,1.9-12,3C5.3,28.8,5,28.9,4.8,29c-0.1,0-0.1,0.3,0,0.3l4.3,0.6  l7.5,1.1c0,0,0.1,0,0.1,0c5.3-2.5,8.8-3.5,9.5-2.4c0.2,0.3,0.2,0.9-0.1,1.5c-0.1,0.2-0.2,0.5-0.4,0.7c0,0,0,0,0,0  c-1.9,3.4-8.4,9.6-17.5,16.9c-2.3,1.9-4.8,3.8-7.5,5.8c-0.1,0.1,0,0.3,0.1,0.3l10.8-1.9c0,0,0.1,0,0.1,0  c16.6-14.4,36.1-25.6,57.6-32.5c0.1,0,0.2-0.2,0.2-0.3c0-0.1-0.2-0.3-0.3-0.2C51.9,19.5,35.1,21.8,18.8,25.5" class="st0"/></svg>