<svg xmlns="http://www.w3.org/2000/svg" version="1.1" width="70px" height="70px" viewBox="0 0 70 70"><g id="surface1"><path d="M 27.058594 38.683594 L 29.996094 38.683594 L 29.996094 40.761719 L 27.058594 40.761719 Z M 27.058594 38.683594 " style=" stroke:none;fill-rule:nonzero;fill:rgb(0%,47.450981%,75.294119%);fill-opacity:1;"/><path d="M 38.214844 38.320312 L 42.261719 38.320312 L 42.261719 41.179688 L 38.214844 41.179688 Z M 38.214844 38.320312 " style=" stroke:none;fill-rule:nonzero;fill:rgb(10.196079%,21.960784%,43.137255%);fill-opacity:1;"/><path d="M 32.371094 34.15625 L 36.417969 34.15625 L 36.417969 37.015625 L 32.371094 37.015625 Z M 32.371094 34.15625 " style=" stroke:none;fill-rule:nonzero;fill:rgb(10.196079%,21.960784%,43.137255%);fill-opacity:1;"/><path d="M 32.914062 42.273438 L 35.851562 42.273438 L 35.851562 44.351562 L 32.914062 44.351562 Z M 32.914062 42.273438 " style=" stroke:none;fill-rule:nonzero;fill:rgb(0%,47.450981%,75.294119%);fill-opacity:1;"/><path d="M 21.519531 42.523438 L 23.777344 42.523438 L 23.777344 44.121094 L 21.519531 44.121094 Z M 21.519531 42.523438 " style=" stroke:none;fill-rule:nonzero;fill:rgb(0%,47.450981%,75.294119%);fill-opacity:1;"/><path d="M 37.816406 29.828125 L 42.648438 29.828125 L 42.648438 33.242188 L 37.816406 33.242188 Z M 37.816406 29.828125 " style=" stroke:none;fill-rule:nonzero;fill:rgb(76.078433%,0%,8.627451%);fill-opacity:1;"/><path d="M 43.648438 25.671875 L 48.480469 25.671875 L 48.480469 29.089844 L 43.648438 29.089844 Z M 43.648438 25.671875 " style=" stroke:none;fill-rule:nonzero;fill:rgb(76.078433%,0%,8.627451%);fill-opacity:1;"/><path d="M 43.660156 33.882812 L 48.492188 33.882812 L 48.492188 37.296875 L 43.660156 37.296875 Z M 43.660156 33.882812 " style=" stroke:none;fill-rule:nonzero;fill:rgb(76.078433%,0%,8.627451%);fill-opacity:1;"/></g></svg>