<svg xmlns="http://www.w3.org/2000/svg" width="70" height="70" version="1.1" viewBox="0 0 70 70"><g id="surface1"><path d="M 0 0 C 23.101562 0 46.199219 0 70 0 C 70 23.101562 70 46.199219 70 70 C 46.898438 70 23.800781 70 0 70 C 0 46.898438 0 23.800781 0 0 Z M 0 0" style="stroke:none;fill-rule:nonzero;fill:#fefefe;fill-opacity:1"/><path d="M 44.230469 32.484375 C 46.460938 32.484375 48.6875 32.484375 50.984375 32.484375 C 50.984375 34.808594 50.984375 37.132812 50.984375 39.527344 C 48.757812 39.527344 46.527344 39.527344 44.230469 39.527344 C 44.230469 37.203125 44.230469 34.878906 44.230469 32.484375 Z M 44.230469 32.484375" style="stroke:none;fill-rule:nonzero;fill:#c20115;fill-opacity:1"/><path d="M 36.101562 24.148438 C 38.332031 24.148438 40.558594 24.148438 42.855469 24.148438 C 42.855469 26.472656 42.855469 28.796875 42.855469 31.191406 C 40.625 31.191406 38.398438 31.191406 36.101562 31.191406 C 36.101562 28.867188 36.101562 26.542969 36.101562 24.148438 Z M 36.101562 24.148438" style="stroke:none;fill-rule:nonzero;fill:#bf051a;fill-opacity:1"/><path d="M 44.230469 15.667969 C 46.460938 15.667969 48.6875 15.667969 50.984375 15.667969 C 50.984375 17.992188 50.984375 20.316406 50.984375 22.710938 C 48.757812 22.710938 46.527344 22.710938 44.230469 22.710938 C 44.230469 20.386719 44.230469 18.0625 44.230469 15.667969 Z M 44.230469 15.667969" style="stroke:none;fill-rule:nonzero;fill:#c10115;fill-opacity:1"/><path d="M 36.652344 41.539062 C 38.519531 41.539062 40.382812 41.539062 42.304688 41.539062 C 42.304688 43.484375 42.304688 45.429688 42.304688 47.433594 C 40.4375 47.433594 38.574219 47.433594 36.652344 47.433594 C 36.652344 45.488281 36.652344 43.542969 36.652344 41.539062 Z M 36.652344 41.539062" style="stroke:none;fill-rule:nonzero;fill:#1f3b70;fill-opacity:1"/><path d="M 28.523438 33.058594 C 30.386719 33.058594 32.253906 33.058594 34.171875 33.058594 C 34.171875 35.003906 34.171875 36.949219 34.171875 38.953125 C 32.308594 38.953125 30.445312 38.953125 28.523438 38.953125 C 28.523438 37.007812 28.523438 35.0625 28.523438 33.058594 Z M 28.523438 33.058594" style="stroke:none;fill-rule:nonzero;fill:#1a376e;fill-opacity:1"/><path d="M 29.351562 49.734375 C 30.667969 49.734375 31.988281 49.734375 33.347656 49.734375 C 33.347656 51.109375 33.347656 52.484375 33.347656 53.902344 C 32.027344 53.902344 30.710938 53.902344 29.351562 53.902344 C 29.351562 52.527344 29.351562 51.148438 29.351562 49.734375 Z M 29.351562 49.734375" style="stroke:none;fill-rule:nonzero;fill:#0477bb;fill-opacity:1"/><path d="M 21.21875 42.402344 C 22.539062 42.402344 23.859375 42.402344 25.214844 42.402344 C 25.214844 43.777344 25.214844 45.152344 25.214844 46.570312 C 23.898438 46.570312 22.578125 46.570312 21.21875 46.570312 C 21.21875 45.195312 21.21875 43.820312 21.21875 42.402344 Z M 21.21875 42.402344" style="stroke:none;fill-rule:nonzero;fill:#0378bc;fill-opacity:1"/><path d="M 13.503906 50.164062 C 14.550781 50.164062 15.59375 50.164062 16.671875 50.164062 C 16.671875 51.253906 16.671875 52.347656 16.671875 53.46875 C 15.628906 53.46875 14.582031 53.46875 13.503906 53.46875 C 13.503906 52.378906 13.503906 51.289062 13.503906 50.164062 Z M 13.503906 50.164062" style="stroke:none;fill-rule:nonzero;fill:#0c7abc;fill-opacity:1"/><path d="M 44.230469 15.667969 C 46.460938 15.667969 48.6875 15.667969 50.984375 15.667969 C 50.984375 17.992188 50.984375 20.316406 50.984375 22.710938 C 48.757812 22.710938 46.527344 22.710938 44.230469 22.710938 C 44.230469 20.386719 44.230469 18.0625 44.230469 15.667969 Z M 44.507812 15.953125 C 44.507812 18.089844 44.507812 20.222656 44.507812 22.421875 C 46.597656 22.421875 48.691406 22.421875 50.847656 22.421875 C 50.847656 20.289062 50.847656 18.152344 50.847656 15.953125 C 48.753906 15.953125 46.664062 15.953125 44.507812 15.953125 Z M 44.507812 15.953125" style="stroke:none;fill-rule:nonzero;fill:#af2232;fill-opacity:1"/><path d="M 44.230469 32.484375 C 46.460938 32.484375 48.6875 32.484375 50.984375 32.484375 C 50.984375 34.808594 50.984375 37.132812 50.984375 39.527344 C 48.757812 39.527344 46.527344 39.527344 44.230469 39.527344 C 44.230469 37.203125 44.230469 34.878906 44.230469 32.484375 Z M 44.507812 32.628906 C 44.507812 34.808594 44.507812 36.992188 44.507812 39.242188 C 46.597656 39.242188 48.691406 39.242188 50.847656 39.242188 C 50.847656 37.058594 50.847656 34.875 50.847656 32.628906 C 48.753906 32.628906 46.664062 32.628906 44.507812 32.628906 Z M 44.507812 32.628906" style="stroke:none;fill-rule:nonzero;fill:#ad2635;fill-opacity:1"/><path d="M 28.523438 33.058594 C 30.386719 33.058594 32.253906 33.058594 34.171875 33.058594 C 34.171875 35.003906 34.171875 36.949219 34.171875 38.953125 C 32.308594 38.953125 30.445312 38.953125 28.523438 38.953125 C 28.523438 37.007812 28.523438 35.0625 28.523438 33.058594 Z M 28.800781 33.203125 C 28.800781 35.003906 28.800781 36.808594 28.800781 38.664062 C 30.527344 38.664062 32.253906 38.664062 34.035156 38.664062 C 34.035156 36.863281 34.035156 35.058594 34.035156 33.203125 C 32.308594 33.203125 30.578125 33.203125 28.800781 33.203125 Z M 28.800781 33.203125" style="stroke:none;fill-rule:nonzero;fill:#3e5075;fill-opacity:1"/><path d="M 36.792969 41.683594 C 38.609375 41.683594 40.429688 41.683594 42.304688 41.683594 C 42.304688 43.582031 42.304688 45.476562 42.304688 47.433594 C 40.484375 47.433594 38.664062 47.433594 36.792969 47.433594 C 36.792969 47.054688 36.792969 46.675781 36.792969 46.285156 C 36.835938 46.285156 36.882812 46.285156 36.929688 46.285156 C 36.929688 46.617188 36.929688 46.949219 36.929688 47.289062 C 38.566406 47.242188 40.203125 47.195312 41.890625 47.144531 C 42.101562 46.707031 42.042969 46.246094 42.042969 45.761719 C 42.039062 45.652344 42.039062 45.546875 42.039062 45.433594 C 42.039062 45.089844 42.039062 44.742188 42.035156 44.398438 C 42.035156 44.164062 42.035156 43.929688 42.035156 43.695312 C 42.03125 43.121094 42.03125 42.546875 42.027344 41.972656 C 41.386719 41.96875 40.746094 41.964844 40.109375 41.964844 C 39.890625 41.960938 39.671875 41.960938 39.453125 41.960938 C 39.140625 41.957031 38.828125 41.957031 38.515625 41.957031 C 38.417969 41.957031 38.320312 41.957031 38.21875 41.953125 C 37.796875 41.953125 37.472656 41.972656 37.066406 42.113281 C 37.019531 43.347656 36.976562 44.582031 36.929688 45.851562 C 36.882812 45.851562 36.839844 45.851562 36.792969 45.851562 C 36.792969 44.476562 36.792969 43.101562 36.792969 41.683594 Z M 36.792969 41.683594" style="stroke:none;fill-rule:nonzero;fill:#213661;fill-opacity:1"/></g></svg>