<svg xmlns="http://www.w3.org/2000/svg" id="Layer_1" width="70" height="70" x="0" y="0" enable-background="new 0 0 70 70" version="1.1" viewBox="0 0 70 70" xml:space="preserve"><metadata/><rect width="70" height="70" fill="none"/><path fill="#ED3734" d="M39.7,45.9l2.6,2.3H44v-3.5h-4.3V45.9L39.7,45.9z M50.1,14.3h-5v-3.2h-7.8v3.3h-4.6v-3.3h-7.6v2.4h-3.9v-2.4 h-20l30.1,27.2h1.4V33H38v-6.1h5.7v-5.8H50.1v-5.9h6v-4.1H50C50.1,11.1,50.1,14.3,50.1,14.3z M19.4,19.6h-3.3v-3.9h3.3V19.6 L19.4,19.6z M25.2,26h-4.4v-4.5h4.4V26z M31.5,31.8h-5.1V27h5.1V31.8z M31.6,21h-5.3v-5.8h5.3V21z M37.3,26.6h-4.7v-4.7h4.7V26.6z M43.8,20.7H38.4v-5.3H43.8V20.7z M33.7,40.5l3.6,3.3h1v-4.7h-4.6C33.7,39.2,33.7,40.5,33.7,40.5z M46.1,51.7l3.301,3v-4.9H46.1 V51.7z M44.6,33h5.7v-5.3h-5.7V33z M48.8,39.6H44.4v3.5H48.8V39.6z M43.7,33.5h-5.3v5.2h5.3V33.5z M56.4,21.4 c0.699-1.3,1.5-2.6,2.5-3.7c0.699-0.9,1.6-1.7,2.399-2.5H56.4V21.4z M50.4,26.6H54.3c0.5-1.7,1.101-3.3,1.9-4.8h-5.8V26.6L50.4,26.6 z M63.7,11.1v2.2c1.6-1,3.3-1.7,5.2-2.2H63.7z"/></svg>