<svg xmlns="http://www.w3.org/2000/svg" version="1.1" id="Layer_1" x="0px" y="0px" width="70" height="70" viewBox="0 0 70 70" xml:space="preserve" style="enable-background:new 0 0 70 70;"><style type="text/css">
	.st0{fill-rule:evenodd;clip-rule:evenodd;fill:#A93439;}
	.st1{fill-rule:evenodd;clip-rule:evenodd;fill:#58595B;}
</style><path d="M59.3,50c-0.5,4.8-4.5,6-5.1,6.4c3.7-2.5,2.5-6.2-0.1-7.5c-2.5-1.3-6-2.7-8.7-3.8c-4.3-1.9-8.4-4-11.8-6.4  c-5.8-4.1-11.2-8.7-15.3-14.5c-4.6-6.4-7.7-14-8.8-22.3l44.2,23c0.4,0.2,0.6,0.4,1,0.6c2.6,1.9,4.4,4.9,4.6,8.4L59.3,50z" class="st0"/><g><defs><path id="SVGID_5_" d="M59.3,50c-0.5,4.8-4.5,6-5.1,6.4c3.7-2.5,2.5-6.2-0.1-7.5c-2.5-1.3-6-2.7-8.7-3.8c-4.3-1.9-8.4-4-11.8-6.4    c-5.8-4.1-11.2-8.7-15.3-14.5c-4.6-6.4-7.7-14-8.8-22.3l44.2,23c0.4,0.2,0.6,0.4,1,0.6c2.6,1.9,4.4,4.9,4.6,8.4L59.3,50z"/></defs><clipPath id="SVGID_1_"><use xmlns:xlink="http://www.w3.org/1999/xlink" style="overflow:visible;" xlink:href="#SVGID_5_"/></clipPath></g><path d="M50.3,58.3l-16.1,8.9c-1.1,0.6-3.2,1.7-3.4,0.2c-0.6-4.7,1.3-10.9,3.1-14c1.6-2.9,3.9-5.4,6.4-7.5  c3.3,1.4,6.9,2.6,10.4,4.1c1.5,0.7,2.3,1.8,2.5,3C53.4,55.1,52.3,57.3,50.3,58.3" class="st1"/><g><defs><path id="SVGID_7_" d="M50.3,58.3l-16.1,8.9c-1.1,0.6-3.2,1.7-3.4,0.2c-0.6-4.7,1.3-10.9,3.1-14c1.6-2.9,3.9-5.4,6.4-7.5    c3.3,1.4,6.9,2.6,10.4,4.1c1.5,0.7,2.3,1.8,2.5,3C53.4,55.1,52.3,57.3,50.3,58.3"/></defs><clipPath id="SVGID_2_"><use xmlns:xlink="http://www.w3.org/1999/xlink" style="overflow:visible;" xlink:href="#SVGID_7_"/></clipPath></g></svg>