<svg xmlns="http://www.w3.org/2000/svg" id="Layer_1" width="70" height="70" x="0" y="0" enable-background="new 0 0 70 70" version="1.1" viewBox="0 0 70 70" xml:space="preserve"><metadata/><rect width="70" height="70" fill="none"/><path fill="#505A88" d="M41.9,60.4C34.7,60.6,28,63.8,23.8,65.4c-3,1.199-5.8,2.3-14,3.6c11.1-0.2,15.9-1.9,18.6-3 c2.7-1.1,4.5-2.1,11.4-3.6c6.9-1.5,15.3,0.399,15.3,0.399S51.3,60.2,41.9,60.4z M53.1,35.8c-2.3,2.5-6.199,4.7-6.8,4.2 c-0.2-0.2,0.101-1,1-2.1c1.5-1.801,6.8-9.2,12.101-21.2c5.3-12.1,3.6-15,3.6-15s-4.4,15.8-17,29.6C33.5,45.1,31,46.3,28.9,47.4 C27.1,48.3,23,48,19.8,48c-4.4,0-5.4,2.2-5.4,3c0,0.2,0.1,0.5,0,0.8c-1.1,0.9-1.3,2.2-1.2,3.601c0.4-0.601,1.8-2,3.5-2.5 c0.4-0.101,0.7,0,1.1,0.3c0.4,0.3,2.2,1.7,3.9,2.3c1.6,0.5,3.3,0.3,4.4,0.4c0.9,0.199,0.7,1,0.4,1.399c-0.7,0.9-2.9,3.3-7.2,6.2 c-2.6,1.7-4.1,2.5-6,3.6c0,0,5.4-1.6,8.2-2.699c1.9-0.7,5.2-2.4,7.6-4c3.9-2.601,5.6-3.9,7.2-5.101c1.3-0.899,4-1.5,5.601-1.8 c1.5-0.3,5.1-1.2,7.3-2.4c2.7-1.5,6.1-4.8,5.899-4.899c-0.1-0.101-5.3,3-10.399,4.1C44,50.5,43.6,50.4,43.5,50.2 c-0.1-0.3,0.5-1,1.8-1.7c3.601-2.2,5.2-4,7.8-7.1C55.7,38.2,60,27.9,59.9,27.9C59.7,27.6,54.6,34.1,53.1,35.8z"/></svg>