<svg xmlns="http://www.w3.org/2000/svg" version="1.1" width="70px" height="70px" viewBox="0 0 70 70"><defs><clipPath id="clip1"><path d="M 33 37 L 70 37 L 70 55 L 33 55 Z M 33 37 "/></clipPath><clipPath id="clip2"><path d="M 34.867188 40.703125 C 35.707031 41.902344 36.613281 43.035156 37.601562 44.113281 C 38.585938 45.195312 39.625 46.195312 40.746094 47.128906 C 41.988281 48.167969 43.308594 49.113281 44.679688 49.96875 C 46 50.78125 47.386719 51.515625 48.800781 52.128906 C 50.238281 52.769531 51.734375 53.289062 53.238281 53.714844 C 54.828125 54.15625 56.453125 54.488281 58.078125 54.703125 L 58.105469 54.703125 C 58.625 54.449219 59.132812 54.179688 59.640625 53.902344 C 60.960938 53.167969 62.238281 52.328125 63.441406 51.421875 C 64.679688 50.488281 65.851562 49.488281 66.945312 48.394531 C 68.039062 47.316406 69.066406 46.15625 70 44.929688 C 68.945312 45.367188 67.867188 45.753906 66.761719 46.089844 C 65.238281 46.542969 63.691406 46.902344 62.132812 47.140625 C 60.601562 47.382812 59.039062 47.515625 57.492188 47.542969 C 55.933594 47.566406 54.375 47.488281 52.828125 47.300781 C 51.28125 47.113281 49.761719 46.820312 48.253906 46.433594 C 46.8125 46.0625 45.398438 45.59375 44.011719 45.035156 C 42.652344 44.476562 41.320312 43.835938 40.039062 43.113281 C 38.761719 42.382812 37.535156 41.582031 36.359375 40.6875 C 35.1875 39.792969 34.066406 38.820312 33.011719 37.792969 C 33.574219 38.808594 34.1875 39.78125 34.839844 40.726562 Z M 34.867188 40.703125 "/></clipPath><linearGradient id="linear0" gradientTransform="matrix(-36.632531,-8.59208,-8.59208,36.632531,-23809.655855,-13260.868212)" gradientUnits="userSpaceOnUse" x1="-698.630005" x2="-697.630005" y1="199.509995" y2="199.509995"><stop offset="0" style="stop-color:rgb(47.058824%,74.117647%,86.666667%);stop-opacity:1;"/><stop offset="1" style="stop-color:rgb(22.352941%,39.215686%,61.960784%);stop-opacity:1;"/></linearGradient><clipPath id="clip3"><path d="M 31 36 L 64 36 L 64 61 L 31 61 Z M 31 36 "/></clipPath><clipPath id="clip4"><path d="M 38.160156 51.433594 C 38.8125 52.328125 39.453125 53.222656 37.535156 50.566406 C 37.519531 50.542969 37.507812 50.527344 37.507812 50.527344 C 37.507812 50.527344 37.828125 50.980469 38.160156 51.421875 M 31.800781 37.554688 C 32.121094 39.140625 32.558594 40.703125 33.105469 42.222656 C 33.625 43.675781 34.253906 45.101562 34.972656 46.460938 C 35.71875 47.886719 36.574219 49.261719 37.519531 50.566406 C 38.347656 51.703125 39.238281 52.78125 40.199219 53.792969 C 41.171875 54.835938 42.226562 55.820312 43.332031 56.726562 C 44.441406 57.648438 45.613281 58.488281 46.839844 59.246094 C 47.453125 59.632812 48.078125 59.996094 48.71875 60.339844 C 48.878906 60.421875 49.039062 60.515625 49.199219 60.59375 C 49.226562 60.59375 49.253906 60.621094 49.28125 60.632812 L 49.347656 60.632812 C 49.386719 60.632812 49.441406 60.632812 49.480469 60.621094 C 49.574219 60.621094 49.667969 60.59375 49.761719 60.59375 C 50.148438 60.542969 50.519531 60.488281 50.90625 60.433594 C 52.453125 60.195312 53.972656 59.835938 55.464844 59.382812 C 56.945312 58.929688 58.398438 58.382812 59.8125 57.726562 C 61.199219 57.089844 62.546875 56.355469 63.839844 55.527344 C 62.894531 55.566406 61.960938 55.582031 61.011719 55.527344 C 59.359375 55.460938 57.71875 55.273438 56.09375 54.980469 C 54.535156 54.703125 53 54.300781 51.492188 53.792969 C 50.054688 53.316406 48.640625 52.742188 47.28125 52.074219 C 45.933594 51.40625 44.625 50.660156 43.375 49.835938 C 42.105469 48.996094 40.894531 48.0625 39.761719 47.0625 C 38.585938 46.019531 37.480469 44.902344 36.453125 43.714844 C 35.480469 42.582031 34.585938 41.394531 33.773438 40.140625 C 32.945312 38.863281 32.199219 37.527344 31.535156 36.15625 C 31.613281 36.621094 31.691406 37.101562 31.785156 37.566406 Z M 31.800781 37.554688 "/></clipPath><linearGradient id="linear1" gradientTransform="matrix(-34.91903,-8.190183,-8.190183,34.91903,-22699.456759,-12641.642202)" gradientUnits="userSpaceOnUse" x1="-698.73999" x2="-697.73999" y1="199.639999" y2="199.639999"><stop offset="0" style="stop-color:rgb(47.058824%,74.117647%,86.666667%);stop-opacity:1;"/><stop offset="1" style="stop-color:rgb(22.352941%,39.215686%,61.960784%);stop-opacity:1;"/></linearGradient><clipPath id="clip5"><path d="M 30 34 L 55 34 L 55 65 L 30 65 Z M 30 34 "/></clipPath><clipPath id="clip6"><path d="M 30.121094 38.808594 C 30.039062 40.40625 30.078125 42.019531 30.226562 43.621094 C 30.375 45.222656 30.652344 46.820312 31.027344 48.394531 C 31.375 49.820312 31.8125 51.222656 32.332031 52.582031 C 32.839844 53.886719 33.414062 55.15625 34.078125 56.382812 C 34.746094 57.621094 35.480469 58.808594 36.292969 59.953125 C 36.839844 60.714844 37.414062 61.449219 38.011719 62.167969 C 37.308594 61.40625 36.800781 60.902344 38.972656 63.246094 C 39.320312 63.328125 39.652344 63.421875 40 63.488281 C 41.613281 63.835938 43.253906 64.046875 44.894531 64.15625 C 46.507812 64.261719 48.121094 64.246094 49.734375 64.113281 C 51.308594 63.996094 52.867188 63.753906 54.398438 63.40625 C 53.105469 63.007812 51.839844 62.527344 50.613281 61.96875 C 49.214844 61.339844 47.867188 60.621094 46.574219 59.808594 C 45.386719 59.074219 44.253906 58.261719 43.160156 57.382812 C 42.078125 56.5 41.054688 55.566406 40.09375 54.566406 C 39.132812 53.566406 38.226562 52.515625 37.398438 51.40625 C 36.558594 50.300781 35.800781 49.140625 35.105469 47.941406 C 34.292969 46.527344 33.574219 45.074219 32.972656 43.554688 C 32.375 42.0625 31.878906 40.527344 31.507812 38.96875 C 31.121094 37.382812 30.851562 35.769531 30.691406 34.140625 C 30.398438 35.6875 30.214844 37.234375 30.132812 38.808594 Z M 30.121094 38.808594 "/></clipPath><linearGradient id="linear2" gradientTransform="matrix(-28.973708,-6.79572,-6.79572,28.973708,-18845.223302,-10480.513974)" gradientUnits="userSpaceOnUse" x1="-699.190002" x2="-698.190002" y1="199.550003" y2="199.550003"><stop offset="0" style="stop-color:rgb(47.058824%,74.117647%,86.666667%);stop-opacity:1;"/><stop offset="1" style="stop-color:rgb(22.352941%,39.215686%,61.960784%);stop-opacity:1;"/></linearGradient><clipPath id="clip7"><path d="M 25 31 L 43 31 L 43 68 L 25 68 Z M 25 31 "/></clipPath><clipPath id="clip8"><path d="M 25.8125 47.914062 C 25.828125 47.675781 25.851562 47.421875 25.867188 47.222656 C 25.667969 50.019531 25.746094 48.96875 25.8125 47.914062 M 25.867188 47.234375 C 25.867188 47.113281 25.878906 46.996094 25.894531 46.863281 L 25.894531 46.820312 C 25.894531 46.820312 25.894531 46.996094 25.867188 47.234375 M 30.132812 32.714844 C 29.332031 34.128906 28.640625 35.59375 28.054688 37.101562 C 27.453125 38.660156 26.960938 40.273438 26.601562 41.902344 C 26.238281 43.527344 26 45.179688 25.878906 46.847656 C 25.800781 47.929688 25.785156 48.996094 25.8125 50.074219 C 25.851562 51.542969 25.988281 53.007812 26.214844 54.460938 C 26.441406 55.914062 26.773438 57.367188 27.199219 58.78125 C 27.414062 59.488281 27.652344 60.195312 27.90625 60.902344 C 28.039062 61.246094 28.171875 61.59375 28.320312 61.941406 C 28.332031 61.996094 28.359375 62.035156 28.386719 62.089844 C 28.414062 62.140625 28.441406 62.15625 28.480469 62.179688 C 28.558594 62.234375 28.640625 62.289062 28.71875 62.339844 C 28.878906 62.449219 29.039062 62.554688 29.214844 62.660156 C 30.546875 63.5 31.933594 64.234375 33.359375 64.886719 C 34.851562 65.554688 36.398438 66.113281 37.972656 66.566406 C 39.574219 67.019531 41.199219 67.355469 42.851562 67.566406 C 41.761719 66.742188 40.71875 65.835938 39.734375 64.875 C 38.652344 63.820312 37.652344 62.703125 36.71875 61.515625 C 35.867188 60.421875 35.078125 59.289062 34.375 58.101562 C 33.667969 56.929688 33.027344 55.703125 32.464844 54.449219 C 31.90625 53.195312 31.425781 51.914062 31.011719 50.609375 C 30.613281 49.300781 30.28125 47.96875 30.039062 46.621094 C 29.746094 45.007812 29.558594 43.382812 29.507812 41.742188 C 29.441406 40.101562 29.507812 38.460938 29.679688 36.835938 C 29.851562 35.195312 30.148438 33.566406 30.574219 31.96875 C 30.425781 32.222656 30.28125 32.476562 30.132812 32.726562 Z M 30.132812 32.714844 "/></clipPath><linearGradient id="linear3" gradientTransform="matrix(-21.09421,-4.947601,-4.947601,21.09421,-13735.394027,-7625.795922)" gradientUnits="userSpaceOnUse" x1="-700.200012" x2="-699.200012" y1="199.779999" y2="199.779999"><stop offset="0" style="stop-color:rgb(47.058824%,74.117647%,86.666667%);stop-opacity:1;"/><stop offset="1" style="stop-color:rgb(22.352941%,39.215686%,61.960784%);stop-opacity:1;"/></linearGradient><clipPath id="clip9"><path d="M 18 29 L 32 29 L 32 68 L 18 68 Z M 18 29 "/></clipPath><clipPath id="clip10"><path d="M 20.878906 44.15625 C 20.8125 44.300781 20.828125 44.273438 20.878906 44.15625 M 21.28125 43.246094 C 21.121094 43.621094 20.945312 43.980469 20.878906 44.15625 C 20.972656 43.941406 21.226562 43.382812 21.71875 42.273438 C 21.71875 42.246094 21.734375 42.234375 21.734375 42.234375 C 21.734375 42.234375 21.507812 42.742188 21.28125 43.246094 M 30.253906 30.675781 C 29.039062 31.726562 27.90625 32.875 26.867188 34.101562 C 25.828125 35.316406 24.878906 36.59375 24.039062 37.941406 C 23.160156 39.328125 22.386719 40.78125 21.71875 42.273438 C 21.332031 43.140625 20.988281 44.019531 20.679688 44.929688 C 20.160156 46.433594 19.746094 47.980469 19.441406 49.554688 C 19.132812 51.128906 18.945312 52.726562 18.867188 54.339844 C 18.828125 55.15625 18.828125 55.953125 18.839844 56.769531 C 18.839844 56.96875 18.839844 57.167969 18.867188 57.382812 C 18.867188 57.433594 18.867188 57.488281 18.894531 57.542969 C 18.921875 57.582031 18.945312 57.609375 18.972656 57.648438 C 19.027344 57.714844 19.078125 57.792969 19.132812 57.863281 C 19.359375 58.167969 19.585938 58.460938 19.828125 58.753906 C 20.785156 59.941406 21.8125 61.046875 22.921875 62.101562 C 24.054688 63.179688 25.265625 64.179688 26.546875 65.089844 C 27.828125 66.007812 29.171875 66.820312 30.574219 67.554688 C 30.09375 66.808594 29.640625 66.035156 29.226562 65.246094 C 28.492188 63.863281 27.839844 62.433594 27.308594 60.96875 C 26.800781 59.582031 26.375 58.15625 26.054688 56.703125 C 25.734375 55.261719 25.507812 53.808594 25.359375 52.339844 C 25.226562 50.875 25.1875 49.40625 25.238281 47.941406 C 25.292969 46.476562 25.441406 45.007812 25.679688 43.566406 C 25.960938 41.929688 26.347656 40.300781 26.867188 38.714844 C 27.375 37.140625 28 35.621094 28.71875 34.128906 C 29.425781 32.660156 30.265625 31.234375 31.199219 29.902344 C 30.878906 30.167969 30.558594 30.433594 30.238281 30.703125 Z M 30.253906 30.675781 "/></clipPath><linearGradient id="linear4" gradientTransform="matrix(-14.590703,-3.422218,-3.422218,14.590703,-9519.942363,-5275.977427)" gradientUnits="userSpaceOnUse" x1="-701.849976" x2="-700.849976" y1="200.470001" y2="200.470001"><stop offset="0" style="stop-color:rgb(47.058824%,74.117647%,86.666667%);stop-opacity:1;"/><stop offset="1" style="stop-color:rgb(22.352941%,39.215686%,61.960784%);stop-opacity:1;"/></linearGradient><clipPath id="clip11"><path d="M 11 28 L 33 28 L 33 64 L 11 64 Z M 11 28 "/></clipPath><clipPath id="clip12"><path d="M 20.492188 35.40625 L 20.492188 35.40625 M 20.492188 35.40625 L 20.492188 35.40625 M 20.492188 35.40625 L 20.492188 35.40625 M 20.613281 35.300781 C 20.558594 35.355469 20.507812 35.394531 20.492188 35.40625 C 20.492188 35.40625 20.535156 35.367188 20.613281 35.289062 C 20.691406 35.207031 20.71875 35.179688 20.71875 35.179688 C 20.71875 35.179688 20.667969 35.234375 20.601562 35.289062 M 28.308594 29.914062 C 26.921875 30.621094 25.574219 31.421875 24.292969 32.316406 C 23 33.222656 21.773438 34.207031 20.625 35.289062 C 20.347656 35.554688 20.066406 35.820312 19.800781 36.089844 C 18.734375 37.15625 17.746094 38.289062 16.828125 39.488281 C 15.921875 40.675781 15.105469 41.914062 14.359375 43.207031 C 13.613281 44.515625 12.960938 45.863281 12.398438 47.246094 C 12.121094 47.941406 11.851562 48.660156 11.625 49.367188 C 11.601562 49.460938 11.558594 49.554688 11.535156 49.648438 C 11.519531 49.6875 11.507812 49.742188 11.492188 49.78125 C 11.480469 49.835938 11.480469 49.863281 11.492188 49.914062 C 11.546875 50.101562 11.601562 50.273438 11.652344 50.460938 C 11.761719 50.820312 11.878906 51.179688 12.011719 51.542969 C 12.519531 52.980469 13.121094 54.394531 13.8125 55.753906 C 14.507812 57.128906 15.308594 58.449219 16.1875 59.714844 C 17.054688 60.96875 18.011719 62.167969 19.054688 63.289062 C 18.960938 62.886719 18.878906 62.476562 18.800781 62.0625 C 18.507812 60.476562 18.320312 58.863281 18.253906 57.246094 C 18.1875 55.632812 18.238281 54.019531 18.398438 52.421875 C 18.558594 50.835938 18.839844 49.273438 19.214844 47.726562 C 19.585938 46.195312 20.078125 44.675781 20.667969 43.207031 C 21.253906 41.742188 21.945312 40.316406 22.734375 38.941406 C 23.546875 37.515625 24.464844 36.140625 25.480469 34.847656 C 26.480469 33.566406 27.574219 32.367188 28.746094 31.234375 C 29.921875 30.101562 31.199219 29.0625 32.519531 28.113281 C 31.078125 28.609375 29.667969 29.207031 28.308594 29.902344 Z M 28.308594 29.914062 "/></clipPath><linearGradient id="linear5" gradientTransform="matrix(-15.122926,-3.547049,-3.547049,15.122926,-9873.441201,-5467.291943)" gradientUnits="userSpaceOnUse" x1="-701.659973" x2="-700.659973" y1="200.070007" y2="200.070007"><stop offset="0" style="stop-color:rgb(47.058824%,74.117647%,86.666667%);stop-opacity:1;"/><stop offset="1" style="stop-color:rgb(22.352941%,39.215686%,61.960784%);stop-opacity:1;"/></linearGradient><clipPath id="clip13"><path d="M 7 26 L 35 26 L 35 56 L 7 56 Z M 7 26 "/></clipPath><clipPath id="clip14"><path d="M 17.851562 30.941406 C 16.707031 31.5 17.171875 31.273438 17.851562 30.941406 M 18.160156 30.792969 C 18.054688 30.847656 17.960938 30.886719 17.867188 30.941406 C 18.171875 30.792969 18.574219 30.59375 19.121094 30.328125 C 19.148438 30.328125 19.160156 30.316406 19.160156 30.316406 C 19.160156 30.316406 18.667969 30.554688 18.160156 30.792969 M 32.933594 26.941406 C 31.332031 26.980469 29.734375 27.140625 28.160156 27.40625 C 26.625 27.675781 25.105469 28.046875 23.613281 28.515625 C 22.078125 29.007812 20.574219 29.609375 19.121094 30.328125 C 17.867188 30.941406 16.652344 31.621094 15.492188 32.382812 C 14.320312 33.140625 13.199219 33.980469 12.132812 34.886719 C 11.054688 35.792969 10.039062 36.78125 9.09375 37.820312 C 8.613281 38.339844 8.148438 38.886719 7.707031 39.433594 C 7.601562 39.566406 7.480469 39.714844 7.375 39.847656 C 7.320312 39.929688 7.253906 39.996094 7.199219 40.074219 C 7.171875 40.113281 7.148438 40.140625 7.148438 40.195312 L 7.148438 40.339844 C 7.121094 40.742188 7.105469 41.140625 7.09375 41.527344 C 7.054688 43.140625 7.132812 44.742188 7.320312 46.339844 C 7.507812 47.914062 7.800781 49.460938 8.199219 50.996094 C 8.585938 52.488281 9.078125 53.953125 9.679688 55.382812 C 9.8125 54.328125 10 53.289062 10.226562 52.261719 C 10.574219 50.703125 11.039062 49.15625 11.613281 47.648438 C 12.132812 46.289062 12.734375 44.96875 13.425781 43.6875 C 14.105469 42.421875 14.867188 41.195312 15.707031 40.007812 C 16.546875 38.835938 17.453125 37.714844 18.425781 36.660156 C 19.398438 35.609375 20.441406 34.609375 21.546875 33.6875 C 22.785156 32.648438 24.105469 31.6875 25.492188 30.835938 C 26.867188 29.980469 28.292969 29.234375 29.773438 28.582031 C 31.253906 27.914062 32.800781 27.382812 34.375 26.941406 Z M 32.933594 26.941406 "/></clipPath><linearGradient id="linear6" gradientTransform="matrix(-22.846652,-5.358633,-5.358633,22.846652,-14890.254965,-8269.090383)" gradientUnits="userSpaceOnUse" x1="-699.919983" x2="-698.919983" y1="199.679993" y2="199.679993"><stop offset="0" style="stop-color:rgb(47.058824%,74.117647%,86.666667%);stop-opacity:1;"/><stop offset="1" style="stop-color:rgb(22.352941%,39.215686%,61.960784%);stop-opacity:1;"/></linearGradient><clipPath id="clip15"><path d="M 3 24 L 37 24 L 37 45 L 3 45 Z M 3 24 "/></clipPath><clipPath id="clip16"><path d="M 21.027344 24.433594 L 20.988281 24.433594 C 17.707031 24.792969 18.8125 24.675781 19.921875 24.554688 C 20.320312 24.515625 20.71875 24.460938 20.921875 24.449219 C 19.773438 24.582031 18.640625 24.753906 17.507812 25.007812 C 16.105469 25.316406 14.734375 25.703125 13.398438 26.167969 C 12.054688 26.632812 10.734375 27.195312 9.464844 27.835938 C 8.828125 28.15625 8.199219 28.5 7.585938 28.863281 C 7.28125 29.046875 6.972656 29.222656 6.667969 29.421875 C 6.585938 29.476562 6.507812 29.515625 6.425781 29.566406 C 6.359375 29.609375 6.332031 29.742188 6.292969 29.808594 C 6.214844 29.996094 6.132812 30.179688 6.054688 30.367188 C 5.441406 31.875 4.933594 33.421875 4.535156 35.007812 C 4.132812 36.609375 3.851562 38.222656 3.691406 39.863281 C 3.535156 41.476562 3.480469 43.113281 3.558594 44.742188 C 4.226562 43.449219 4.972656 42.207031 5.800781 41.019531 C 6.652344 39.792969 7.585938 38.621094 8.585938 37.515625 C 9.507812 36.5 10.492188 35.542969 11.546875 34.632812 C 12.585938 33.742188 13.667969 32.914062 14.8125 32.15625 C 15.945312 31.394531 17.121094 30.703125 18.332031 30.089844 C 19.546875 29.476562 20.800781 28.929688 22.078125 28.449219 C 23.613281 27.886719 25.1875 27.433594 26.785156 27.089844 C 28.375 26.753906 29.972656 26.542969 31.585938 26.421875 C 33.214844 26.300781 34.867188 26.328125 36.507812 26.460938 C 36.1875 26.339844 35.878906 26.222656 35.558594 26.113281 C 34.027344 25.566406 32.441406 25.15625 30.839844 24.847656 C 29.226562 24.542969 27.601562 24.355469 25.960938 24.289062 C 25.519531 24.273438 25.078125 24.261719 24.652344 24.261719 C 23.453125 24.261719 22.238281 24.328125 21.039062 24.460938 Z M 21.027344 24.433594 "/></clipPath><linearGradient id="linear7" gradientTransform="matrix(-28.402543,-6.661755,-6.661755,28.402543,-18496.328449,-10292.000831)" gradientUnits="userSpaceOnUse" x1="-699.25" x2="-698.25" y1="199.679993" y2="199.679993"><stop offset="0" style="stop-color:rgb(47.058824%,74.117647%,86.666667%);stop-opacity:1;"/><stop offset="1" style="stop-color:rgb(22.352941%,39.215686%,61.960784%);stop-opacity:1;"/></linearGradient><clipPath id="clip17"><path d="M 1 18 L 39 18 L 39 33 L 1 33 Z M 1 18 "/></clipPath><clipPath id="clip18"><path d="M 13.867188 18.648438 C 12.332031 18.78125 10.828125 19.007812 9.320312 19.355469 L 9.292969 19.355469 C 9 19.660156 8.71875 19.96875 8.441406 20.273438 C 7.414062 21.421875 6.480469 22.648438 5.625 23.914062 C 4.734375 25.246094 3.933594 26.632812 3.238281 28.089844 C 2.535156 29.554688 1.933594 31.074219 1.453125 32.621094 C 1.945312 32.167969 2.453125 31.726562 2.988281 31.300781 C 4.214844 30.300781 5.507812 29.394531 6.867188 28.566406 C 8.148438 27.792969 9.492188 27.101562 10.867188 26.488281 C 12.253906 25.886719 13.667969 25.367188 15.121094 24.953125 C 16.613281 24.527344 18.148438 24.195312 19.691406 23.980469 C 21.238281 23.753906 22.785156 23.648438 24.347656 23.632812 C 26.011719 23.632812 27.679688 23.726562 29.320312 23.96875 C 30.933594 24.195312 32.519531 24.542969 34.078125 24.996094 C 35.652344 25.449219 37.199219 26.035156 38.679688 26.714844 C 37.945312 26.074219 37.1875 25.460938 36.386719 24.886719 C 35.078125 23.941406 33.71875 23.089844 32.292969 22.339844 C 30.851562 21.59375 29.375 20.941406 27.839844 20.40625 C 26.292969 19.863281 24.707031 19.433594 23.09375 19.128906 C 21.574219 18.835938 20.027344 18.648438 18.480469 18.566406 C 17.894531 18.542969 17.308594 18.527344 16.734375 18.527344 C 15.773438 18.527344 14.8125 18.566406 13.867188 18.648438 Z M 13.867188 18.648438 "/></clipPath><linearGradient id="linear8" gradientTransform="matrix(-33.971415,-7.967922,-7.967922,33.971415,-22110.961946,-12318.101118)" gradientUnits="userSpaceOnUse" x1="-698.799988" x2="-697.799988" y1="199.580002" y2="199.580002"><stop offset="0" style="stop-color:rgb(47.058824%,74.117647%,86.666667%);stop-opacity:1;"/><stop offset="1" style="stop-color:rgb(22.352941%,39.215686%,61.960784%);stop-opacity:1;"/></linearGradient><clipPath id="clip19"><path d="M 3 8 L 46 8 L 46 34 L 3 34 Z M 3 8 "/></clipPath><clipPath id="clip20"><path d="M 21.054688 8.632812 C 19.839844 8.980469 18.640625 9.394531 17.464844 9.875 C 16.171875 10.40625 14.90625 11.035156 13.679688 11.726562 C 12.441406 12.433594 11.253906 13.222656 10.121094 14.089844 C 8.90625 14.996094 7.761719 15.996094 6.691406 17.0625 C 5.601562 18.140625 4.574219 19.300781 3.640625 20.527344 C 4.746094 20.0625 5.878906 19.660156 7.039062 19.328125 C 8.558594 18.875 10.105469 18.542969 11.667969 18.300781 C 13.199219 18.074219 14.761719 17.941406 16.308594 17.929688 C 17.867188 17.902344 19.425781 17.996094 20.972656 18.179688 C 22.546875 18.382812 24.121094 18.6875 25.652344 19.101562 C 27.265625 19.542969 28.839844 20.089844 30.375 20.753906 C 31.878906 21.40625 33.332031 22.167969 34.734375 23.035156 C 36.09375 23.875 37.386719 24.820312 38.613281 25.863281 C 39.878906 26.929688 41.066406 28.074219 42.160156 29.316406 C 43.238281 30.527344 44.226562 31.820312 45.132812 33.167969 C 44.933594 32.367188 44.71875 31.566406 44.464844 30.78125 C 43.972656 29.234375 43.347656 27.726562 42.640625 26.261719 C 41.988281 24.914062 41.238281 23.609375 40.398438 22.367188 C 39.652344 21.246094 38.839844 20.179688 37.960938 19.167969 C 37.09375 18.15625 36.160156 17.195312 35.171875 16.289062 C 34.1875 15.382812 33.148438 14.542969 32.054688 13.769531 C 30.960938 12.996094 29.828125 12.273438 28.640625 11.632812 C 27.453125 10.980469 26.226562 10.40625 24.972656 9.914062 C 24.347656 9.660156 23.707031 9.433594 23.066406 9.222656 C 22.601562 9.0625 21.945312 8.863281 21.066406 8.632812 Z M 21.054688 8.632812 "/></clipPath><linearGradient id="linear9" gradientTransform="matrix(-42.136496,-9.883024,-9.883024,42.136496,-27405.739162,-15290.255353)" gradientUnits="userSpaceOnUse" x1="-698.349976" x2="-697.349976" y1="199.699997" y2="199.699997"><stop offset="0" style="stop-color:rgb(47.058824%,74.117647%,86.666667%);stop-opacity:1;"/><stop offset="1" style="stop-color:rgb(22.352941%,39.215686%,61.960784%);stop-opacity:1;"/></linearGradient><clipPath id="clip21"><path d="M 11 1 L 47 1 L 47 34 L 11 34 Z M 11 1 "/></clipPath><clipPath id="clip22"><path d="M 44.800781 29.96875 C 44.800781 29.941406 44.785156 29.914062 44.773438 29.886719 C 44.773438 29.886719 44.773438 29.929688 44.800781 29.96875 M 28.011719 1.675781 C 26.546875 1.726562 25.09375 1.863281 23.652344 2.113281 C 22.1875 2.367188 20.746094 2.703125 19.320312 3.140625 C 17.867188 3.59375 16.441406 4.128906 15.054688 4.769531 C 13.667969 5.40625 12.320312 6.140625 11.039062 6.96875 C 11.238281 6.96875 11.441406 6.953125 11.652344 6.941406 C 13.28125 6.902344 14.90625 6.96875 16.519531 7.15625 C 18.148438 7.339844 19.761719 7.660156 21.332031 8.074219 C 22.707031 8.433594 24.054688 8.886719 25.359375 9.40625 C 26.613281 9.914062 27.828125 10.488281 29 11.128906 C 30.171875 11.769531 31.308594 12.476562 32.386719 13.246094 C 33.464844 14.019531 34.507812 14.847656 35.492188 15.742188 C 36.480469 16.632812 37.414062 17.582031 38.28125 18.582031 C 39.160156 19.582031 39.972656 20.648438 40.71875 21.742188 C 41.507812 22.902344 42.226562 24.113281 42.867188 25.355469 C 43.613281 26.808594 44.253906 28.316406 44.785156 29.863281 C 44.839844 30.019531 44.851562 30.074219 44.851562 30.074219 C 44.851562 30.074219 44.839844 30.019531 44.8125 29.96875 L 44.8125 29.941406 C 45.1875 31.035156 45.507812 32.15625 45.773438 33.289062 C 45.960938 32.246094 46.09375 31.207031 46.171875 30.15625 C 46.28125 28.914062 46.308594 27.675781 46.265625 26.433594 C 46.226562 25.207031 46.121094 23.96875 45.945312 22.753906 C 45.773438 21.542969 45.535156 20.339844 45.226562 19.15625 C 44.921875 17.96875 44.546875 16.792969 44.121094 15.660156 C 43.679688 14.515625 43.1875 13.394531 42.625 12.300781 C 42.066406 11.207031 41.441406 10.140625 40.773438 9.113281 C 40.09375 8.074219 39.347656 7.089844 38.558594 6.128906 C 37.761719 5.167969 36.90625 4.246094 36 3.382812 C 35.773438 3.167969 35.535156 2.941406 35.308594 2.726562 C 35.1875 2.621094 35.066406 2.515625 34.945312 2.40625 C 34.878906 2.355469 34.828125 2.300781 34.761719 2.246094 C 34.734375 2.222656 34.707031 2.195312 34.667969 2.167969 C 34.640625 2.15625 34.613281 2.113281 34.585938 2.101562 C 34.414062 2.0625 34.226562 2.035156 34.054688 2.007812 C 33.867188 1.980469 33.691406 1.953125 33.507812 1.929688 C 33.148438 1.875 32.773438 1.835938 32.414062 1.792969 C 31.292969 1.675781 30.171875 1.621094 29.054688 1.621094 C 27.933594 1.621094 28.375 1.621094 28.027344 1.632812 Z M 28.011719 1.675781 "/></clipPath><linearGradient id="linear10" gradientTransform="matrix(-38.774405,-9.094452,-9.094452,38.774405,-25220.076337,-14072.812833)" gradientUnits="userSpaceOnUse" x1="-698.51001" x2="-697.51001" y1="199.679993" y2="199.679993"><stop offset="0" style="stop-color:rgb(62.352941%,63.529412%,64.313725%);stop-opacity:1;"/><stop offset="1" style="stop-color:rgb(30.588235%,28.627451%,29.019608%);stop-opacity:1;"/></linearGradient></defs><g id="surface1"><g clip-path="url(#clip1)" clip-rule="nonzero"><g clip-path="url(#clip2)" clip-rule="nonzero"><path d="M 29.296875 53.832031 L 34.988281 29.570312 L 73.800781 38.675781 L 68.109375 62.9375 Z M 29.296875 53.832031 " style=" stroke:none;fill-rule:nonzero;fill:url(#linear0);"/></g></g><g clip-path="url(#clip3)" clip-rule="nonzero"><g clip-path="url(#clip4)" clip-rule="nonzero"><path d="M 26.128906 59.398438 L 33.257812 29.011719 L 69.304688 37.464844 L 62.175781 67.855469 Z M 26.128906 59.398438 " style=" stroke:none;fill-rule:nonzero;fill:url(#linear1);"/></g></g><g clip-path="url(#clip5)" clip-rule="nonzero"><g clip-path="url(#clip6)" clip-rule="nonzero"><path d="M 23.386719 62.695312 L 31.34375 28.765625 L 61.125 35.75 L 53.164062 69.679688 Z M 23.386719 62.695312 " style=" stroke:none;fill-rule:nonzero;fill:url(#linear2);"/></g></g><g clip-path="url(#clip7)" clip-rule="nonzero"><g clip-path="url(#clip8)" clip-rule="nonzero"><path d="M 17.785156 65.730469 L 26.59375 28.175781 L 50.789062 33.851562 L 41.980469 71.40625 Z M 17.785156 65.730469 " style=" stroke:none;fill-rule:nonzero;fill:url(#linear3);"/></g></g><g clip-path="url(#clip9)" clip-rule="nonzero"><g clip-path="url(#clip10)" clip-rule="nonzero"><path d="M 10.460938 65.585938 L 19.480469 27.136719 L 39.585938 31.851562 L 30.570312 70.304688 Z M 10.460938 65.585938 " style=" stroke:none;fill-rule:nonzero;fill:url(#linear4);"/></g></g><g clip-path="url(#clip11)" clip-rule="nonzero"><g clip-path="url(#clip12)" clip-rule="nonzero"><path d="M 3.6875 61.484375 L 12.601562 23.472656 L 40.355469 29.984375 L 31.441406 67.992188 Z M 3.6875 61.484375 " style=" stroke:none;fill-rule:nonzero;fill:url(#linear5);"/></g></g><g clip-path="url(#clip13)" clip-rule="nonzero"><g clip-path="url(#clip14)" clip-rule="nonzero"><path d="M 0.726562 53.910156 L 8.472656 20.886719 L 40.679688 28.441406 L 32.933594 61.464844 Z M 0.726562 53.910156 " style=" stroke:none;fill-rule:nonzero;fill:url(#linear6);"/></g></g><g clip-path="url(#clip15)" clip-rule="nonzero"><g clip-path="url(#clip16)" clip-rule="nonzero"><path d="M -1.058594 43.667969 L 5.214844 16.929688 L 41.054688 25.335938 L 34.78125 52.074219 Z M -1.058594 43.667969 " style=" stroke:none;fill-rule:nonzero;fill:url(#linear7);"/></g></g><g clip-path="url(#clip17)" clip-rule="nonzero"><g clip-path="url(#clip18)" clip-rule="nonzero"><path d="M -1.664062 31.898438 L 3.410156 10.273438 L 41.820312 19.28125 L 36.746094 40.90625 Z M -1.664062 31.898438 " style=" stroke:none;fill-rule:nonzero;fill:url(#linear8);"/></g></g><g clip-path="url(#clip19)" clip-rule="nonzero"><g clip-path="url(#clip20)" clip-rule="nonzero"><path d="M -1.808594 31.890625 L 5.804688 -0.574219 L 50.578125 9.925781 L 42.960938 42.390625 Z M -1.808594 31.890625 " style=" stroke:none;fill-rule:nonzero;fill:url(#linear9);"/></g></g><g clip-path="url(#clip21)" clip-rule="nonzero"><g clip-path="url(#clip22)" clip-rule="nonzero"><path d="M 4.011719 31.671875 L 12.886719 -6.167969 L 53.351562 3.324219 L 44.476562 41.164062 Z M 4.011719 31.671875 " style=" stroke:none;fill-rule:nonzero;fill:url(#linear10);"/></g></g></g></svg>