<svg xmlns="http://www.w3.org/2000/svg" id="Layer_1" width="70" height="70" x="0" y="0" enable-background="new 0 0 70 70" version="1.1" viewBox="0 0 70 70" xml:space="preserve"><path fill="#8F1A1C" fill-rule="evenodd" d="M3.159,34.443c2.932-5.951,6.503-11.349,10.832-16.233 c3.201-3.609,6.707-6.868,11.275-8.674c5.289-2.09,10.743-0.286,12.934,4.172c0.861,1.755,1.307,3.628,1.153,5.575 c-0.101,1.246,0.558,1.127,1.409,1.156c1.001,0.031,0.931-0.331,0.871-1.162c-0.273-3.781,1.178-6.8,4.344-8.928 c2.207-1.483,4.641-2.517,7.114-3.46c4.543-1.731,9.083-3.469,13.656-5.217c0.252,0.138,0.191,0.433,0.129,0.651 c-1.755,6.005-3.478,12.021-5.312,18c-0.802,2.619-2.165,4.955-4.475,6.573c-1.853,1.298-3.908,1.907-6.178,1.461 c-0.619-0.122-1.165-0.317-1.162,0.631c0.003,0.676-0.159,1.388,0.94,1.372c1.768-0.027,3.537-0.014,5.264,0.499 c5.973,1.77,8.816,7.638,6.689,13.771c-1.26,3.623-3.604,6.536-6.082,9.35c-4.644,5.274-10.006,9.715-15.919,13.504 c-0.161,0.103-0.342,0.177-0.698,0.358c0.257-3.434,0.475-6.689,0.745-9.94c0.325-3.888,0.679-7.771,1.054-11.654 c0.082-0.827-0.389-0.849-0.95-0.802c-2.334,0.19-4.664,0.406-6.999,0.58c-0.551,0.039-0.66,0.296-0.716,0.783 c-0.495,4.388-1.018,8.771-1.536,13.154c-0.136,1.166-0.28,2.332-0.45,3.754c-7.636-7.038-15.129-13.944-22.842-21.053 c3.066-0.566,5.878-1.094,8.694-1.604c2.55-0.461,5.101-0.909,7.654-1.352c0.904-0.157,1.358-0.531,1.417-1.585 c0.116-2.038,0.063-4.064,0.025-6.099c-0.019-1.008-0.46-1.063-1.269-0.93c-6.853,1.131-13.709,2.238-20.566,3.341 C3.901,34.485,3.582,34.443,3.159,34.443z" clip-rule="evenodd"/><path fill="#D62A27" fill-rule="evenodd" d="M65.46,3.268c-1.835,6.182-3.464,11.919-5.269,17.601 c-0.596,1.877-1.769,3.496-3.347,4.799c-1.984,1.64-4.21,1.933-6.604,1.393c-1.033-0.233-1.564-0.298-1.524,1.111 c0.093,3.115,0.013,3.007,3.106,3.201c5.55,0.347,8.97,1.956,10.27,7.671c0.752,3.313-0.593,6.276-2.353,8.985 c-3.378,5.206-7.827,9.435-12.566,13.376c-1.826,1.518-3.744,2.91-5.952,4.341c0.151-2.167,0.259-4.071,0.421-5.973 c0.378-4.443,0.819-8.882,1.15-13.328c0.134-1.798-0.443-2.11-2.344-2.015c-2.127,0.11-4.235,0.494-6.381,0.394 c-1.372-0.064-2.072,0.688-2.212,2.074c-0.483,4.743-1.009,9.48-1.557,14.579c-6.597-6.08-12.961-11.946-19.509-17.98 c2.471-0.84,4.879-1.031,7.221-1.496c2.49-0.497,5.002-0.885,7.506-1.312c1.151-0.197,1.558-1.07,1.589-2.029 c0.083-2.503,0.062-5.009,0.033-7.511c-0.012-1.003-0.669-1.343-1.59-1.203c-5.276,0.811-10.55,1.633-15.826,2.448 c-1.426,0.221-2.854,0.433-4.558,0.69c1.364-2.869,2.93-5.351,4.633-7.74c3.665-5.15,7.591-10.07,13.113-13.391 c2.771-1.667,5.696-2.785,9.046-1.907c3.411,0.892,5.872,3.716,6.155,7.227c0.092,1.138,0.435,2.25,0.312,3.409 c-0.068,0.641,0.226,0.966,0.902,0.95c0.991-0.025,1.983-0.02,2.974-0.012c0.732,0.006,0.889-0.381,0.75-1.014 c-1.156-5.217,1.413-8.392,5.501-10.483C53.851,7.41,59.61,5.882,65.46,3.268z" clip-rule="evenodd"/><path fill="#F49C1E" fill-rule="evenodd" d="M37.333,38.217c-4.347,0.057-4.36,0.057-4.499-3.901 c-0.068-1.924-0.03-3.851-0.135-5.772c-0.041-0.738,0.239-0.913,0.863-0.935c2.907-0.104,5.813-0.206,8.717-0.338 c0.777-0.035,1.122,0.202,1.142,1.041c0.068,2.803,0.186,5.606,0.321,8.407c0.041,0.826-0.155,1.253-1.095,1.229 C40.725,37.904,38.826,38.412,37.333,38.217z" clip-rule="evenodd"/><path fill="#F49C1E" fill-rule="evenodd" d="M56.637,18.15c-0.004,2.743-2.27,5.083-4.864,5.021 c-2.781-0.064-4.908-2.231-4.91-5c-0.001-2.749,2.215-4.999,4.911-4.988C54.594,13.195,56.642,15.287,56.637,18.15z" clip-rule="evenodd"/><path fill="#F49C1E" fill-rule="evenodd" d="M27.325,52.836c-2.362-2.205-4.444-4.159-6.541-6.098 c-0.613-0.567-0.562-0.856,0.268-1.126c2.419-0.784,4.818-1.634,7.226-2.455c0.491-0.167,1.072-0.507,0.864,0.529 C28.545,46.622,27.974,49.56,27.325,52.836z" clip-rule="evenodd"/><path fill="#F49B1E" fill-rule="evenodd" d="M60.314,9.352c-0.609,1.668-1.206,3.387-1.873,5.079 c-0.173,0.435-0.53,0.141-0.752-0.062c-0.5-0.458-0.981-0.935-1.469-1.405c-1.864-1.799-1.861-1.795,0.47-2.79 c0.91-0.388,1.808-0.805,2.716-1.193C59.785,8.818,60.221,8.582,60.314,9.352z" clip-rule="evenodd"/><path fill="#FFFFFD" fill-rule="evenodd" d="M38.043,35.113c-0.565-0.458-2.083,1.16-2.138-0.975 c-0.09-3.62-0.132-3.619,1.978-3.693c2.602-0.092,2.602-0.092,2.692,2.33C40.658,35.017,40.658,35.017,38.043,35.113z" clip-rule="evenodd"/><path fill="#D62D27" fill-rule="evenodd" d="M54.433,18.189c-0.007,1.438-1.218,2.708-2.623,2.75 c-1.444,0.044-2.768-1.315-2.742-2.817c0.025-1.421,1.301-2.727,2.674-2.734C53.302,15.378,54.44,16.564,54.433,18.189z" clip-rule="evenodd"/><path fill="#F3981F" fill-rule="evenodd" d="M51.851,16.92c0.675,0.049,1.248,0.419,1.205,1.222 c-0.035,0.706-0.422,1.32-1.277,1.271c-0.697-0.04-1.163-0.392-1.179-1.17C50.584,17.447,50.879,16.938,51.851,16.92z" clip-rule="evenodd"/></svg>