<svg xmlns="http://www.w3.org/2000/svg" id="Layer_1" width="1100" height="1100" viewBox="0 0 1100 1100"><defs><style>.cls-1{fill:#283874}.cls-2{fill:#ffa300}</style></defs><path d="M203,609.16V515.43h62.71c19.27,0,36,8.3,36,33.08s-16.76,33.2-36,33.2H218.39v27.45Zm15.44-77.66v34h48.23c11.13,0,19.27-4.15,19.27-17s-8.14-17-19.27-17Z" class="cls-1"/><path d="M407.63,609.16H389.8L379,589.08H319.4l-10.65,20.08H290.94l49.43-93.73h17.71ZM330,569l-2.27,4h43.08l-2.15-4-19.39-38.43Z" class="cls-1"/><path d="M420.4,609.16V515.43h15.44V593h67.37v16.2Z" class="cls-1"/><path d="M532.48,518.2a72,72,0,0,1,21.2-2.83c22.78,0,37,14.15,37,36.77v53.37a1.42,1.42,0,0,1-1.33,1.51h-4.81a1.41,1.41,0,0,1-1.58-1.24,1.11,1.11,0,0,1,0-.26v-10c-.19-2.45-1.78-2.07-3.36,0-7.13,8.86-17.63,13.39-33.48,13.39-19.22,0-30.51-10.18-30.51-26.59,0-15.84,11.49-26.77,34.07-27H582.2V552.1c0-18.29-10.3-29-28.72-29a77.53,77.53,0,0,0-19,2.27l-6.93,2.26a1.52,1.52,0,0,1-1.94-.92.83.83,0,0,1-.06-.21L524,522.16a1.43,1.43,0,0,1,.89-1.81,1.09,1.09,0,0,1,.3-.07Zm17.23,44.69c-17.63,0-25.75,7.92-25.75,19.24,0,12.06,7.93,19.23,22.39,19.23,22.58,0,35.85-13.2,35.85-35.26v-3.21Z" class="cls-1"/><path d="M631.23,607.48a1.44,1.44,0,0,1-1.31,1.58,1.31,1.31,0,0,1-.28,0h-5.15a1.45,1.45,0,0,1-1.58-1.31,1.22,1.22,0,0,1,0-.27V523.41H614a1.45,1.45,0,0,1-1.59-1.3,1.22,1.22,0,0,1,0-.27v-4.71a1.45,1.45,0,0,1,1.32-1.57h15.91a1.45,1.45,0,0,1,1.59,1.3,1.22,1.22,0,0,1,0,.27Zm0-120.48c0,4.32-2.18,6.48-6.14,6.48s-6.34-2.16-6.34-6.48c0-3.93,2.38-6.28,6.34-6.28S631.23,483.07,631.23,487Z" class="cls-1"/><path d="M710.17,520.07a1.46,1.46,0,0,1-1.33,1.58h-.26c-21.19,1-34.67,19.83-34.67,51.46v34.37a1.45,1.45,0,0,1-1.31,1.58,1.22,1.22,0,0,1-.27,0h-5.15a1.47,1.47,0,0,1-1.59-1.32,1.13,1.13,0,0,1,0-.26V517.13a1.46,1.46,0,0,1,1.34-1.57h5a1.47,1.47,0,0,1,1.59,1.32,1,1,0,0,1,0,.25v16.69c.2,1.38,1.39,1.58,2.18.4,7.13-12.57,17.43-20,32.88-20.63a1.47,1.47,0,0,1,1.59,1.32,1,1,0,0,1,0,.25Z" class="cls-1"/><path d="M741.67,593.65c0,4.67,2.18,7.58,5.74,7.58a6.42,6.42,0,0,0,2-.19c1-.2,1.59,0,2,.78l2,4.66a1.3,1.3,0,0,1-.42,1.79,1.4,1.4,0,0,1-.38.16,21.4,21.4,0,0,1-5.15.78c-8.71,0-14.06-5.84-14.06-15.56V472.49a1.44,1.44,0,0,1,1.32-1.55h5.41a1.45,1.45,0,0,1,1.59,1.3,1,1,0,0,1,0,.25Z" class="cls-1"/><path d="M795.84,607.48a1.45,1.45,0,0,1-1.31,1.58,1.22,1.22,0,0,1-.27,0h-5.15a1.45,1.45,0,0,1-1.58-1.31,1.22,1.22,0,0,1,0-.27V523.41h-8.92A1.46,1.46,0,0,1,777,522.1a1.13,1.13,0,0,1,0-.26v-4.71a1.45,1.45,0,0,1,1.32-1.57h15.91a1.46,1.46,0,0,1,1.58,1.31,1.13,1.13,0,0,1,0,.26Zm0-120.48c0,4.32-2.17,6.48-6.14,6.48s-6.34-2.16-6.34-6.48c0-3.93,2.38-6.28,6.34-6.28S795.84,483.07,795.84,487Z" class="cls-1"/><path d="M834.17,531.07c0,1.77,1.19,1.77,2.18.2,7.33-11.2,18-17.68,33.87-17.68,21.2,0,34.08,14.93,34.08,38.5v55.39a1.46,1.46,0,0,1-1.33,1.58,1.13,1.13,0,0,1-.26,0h-5a1.47,1.47,0,0,1-1.59-1.32,1.13,1.13,0,0,1,0-.26v-55c0-19.25-9.9-30.83-26.34-30.83-22.19,0-35.26,16.1-35.26,44.19v41.64a1.46,1.46,0,0,1-1.33,1.58,1.13,1.13,0,0,1-.26,0h-5.15a1.45,1.45,0,0,1-1.58-1.31,1.22,1.22,0,0,1,0-.27V517.13a1.45,1.45,0,0,1,1.32-1.57h5a1.46,1.46,0,0,1,1.58,1.31,1.13,1.13,0,0,1,0,.26Z" class="cls-1"/><path d="M988.19,606.37a75.47,75.47,0,0,1-22,3c-26.14,0-42-18.1-42-47.26s16-47.25,42-47.25c21.79,0,34.67,10.09,34.67,27.25,0,12.57-8.32,20.19-25.16,23L933.31,572c2.77,18.87,14.66,29.54,32.88,29.54,7.33,0,13.47-.57,19.62-2.48l4.75-1.52a1.81,1.81,0,0,1,2.18,1.14l1.38,4.38a1.27,1.27,0,0,1-.45,1.74,1.22,1.22,0,0,1-.55.17Zm-14.06-48.59c12.08-2.09,18.42-7.43,18.42-15.62,0-12.39-9.71-19.44-26.35-19.44-21.19,0-33.47,14.1-33.67,41.92Z" class="cls-1"/><path d="M1038.41,561c-13.67-3.62-20.21-10.86-20.21-22.68,0-14.48,12.09-23.43,32.89-23.43a82.44,82.44,0,0,1,22.38,2.85l7.33,2.29a1.27,1.27,0,0,1,1.17,1.36,1.22,1.22,0,0,1-.17.55l-1.58,4.38c-.2.76-1,1.14-2,.95l-6.93-2.09a75.82,75.82,0,0,0-20-2.48c-15.46,0-24.77,6.1-24.77,15.62,0,7.82,4.56,12.77,14.86,15.63l24.36,6.86c14.67,3.81,20.81,11.24,20.81,23.06,0,16-12.88,25.53-35.26,25.53-12.49,0-22.59-1.9-29.92-4.76l-4-1.53c-1-.38-1.39-1.14-1-1.9l2-4.19a1.33,1.33,0,0,1,1.65-.92,1.09,1.09,0,0,1,.35.15l4,1.53c6.34,2.48,14.66,3.81,27,3.81,17,0,26.93-6.67,26.93-17.72,0-8.2-4.55-13.15-15-16Z" class="cls-1"/><path d="M227.22,435c.26-.12-5.29-4.07-7.68-5.17a16.15,16.15,0,0,0-10.19-.13c-3.83,1.42-21.7,9.11-39.28,8.89s-34.26-7.75-36.83-8.77S22.53,369.05,22.53,369.05l-9.78-.32v1l6.76,1.87,75.74,76.31s35.81,27.93,6.68,72.07L59.06,592.82l13.71-6.76Z" class="cls-2"/></svg>