<svg xmlns="http://www.w3.org/2000/svg" version="1.1" id="Layer_1" x="0px" y="0px" width="70px" height="70px" viewBox="0 0 70 70" enable-background="new 0 0 70 70" xml:space="preserve"><metadata/><rect width="70" fill="none" height="70"/><g><path fill="none" d="M27.3,13h-0.1c0.4,0.2,0.9,0.6,1.4,0.9C28.1,13.5,27.6,13.2,27.3,13z"/><path fill="#FFC316" d="M29.8,22.9L29.8,22.9L29.8,22.9L29.8,22.9z"/><path fill="#FFC316" d="M31.5,35.9C31.3,35.6,31,35.2,30.8,35c-0.3-0.2-0.3-0.1-0.4,0s-0.4,0.4-0.8,0.8c-0.3,0.3-0.4,0.5-0.5,0.601    l0,0L29,36.5c-0.1,0.2,0,0.3,0,0.5s-0.2,0.3-0.2,0.4c0,0.199,0.2,0.199,0.3,0.399l0.1,0.101l0.1-0.101c0.1-0.2,0.1-0.5,0.1-0.7    c0-0.199-0.2-0.399,0-0.6c0,0,0,0,0.1-0.1l0,0c0.2-0.2,0.5-0.301,0.6-0.4c0.2-0.1,0.4-0.2,0.8,0c0.2,0.1,0.4,0.2,0.6,0.4    c0.1,0.1,0.3,0.199,0.4,0.3c0-0.101,0-0.2,0-0.3l0,0l0,0C31.8,36.2,31.7,36,31.5,35.9z"/><path fill="#FFC316" d="M51.4,36.5c0-0.1,0-0.1,0.1-0.2l0,0v-0.1c0,0,0,0-0.1,0.1l0,0L51.3,36.4l0,0C51.3,36.5,51.4,36.5,51.4,36.5    L51.4,36.5z"/><path fill="#FFC316" d="M35.5,24.1c0.1,0.2,0.1,0.4,0.1,0.6c0.101,0,0.2,0.1,0.4,0.1c0.6,0.2,1.7,1,2,1.4c0.2,0.3,0.8,1,1,1.5    s0.7,2.3,0.7,2.9s0,1.9-0.2,2.5c-0.2,0.7-0.4,0.9-0.4,1.1c0,0.1,0,0.1-0.1,0.2c0,0.1,0,0.2,0,0.2c0.1,0.2,0.1,0.5,0.2,0.8    c0.1,0.1,0.1,0.3,0.2,0.3c0.5-0.4,1.199-1.3,1.3-2.3c0.1-1.1,0-3.6-0.4-5.6c-0.399-2-0.2-2.1-0.2-2.9c0.101-0.8,0.4-2.7,0.9-3.6    c0.8-1.4,2.4-3.4,3.5-4.4s3.1-2.4,4.1-3s3.2-1.7,4.4-2.1c1.2-0.4,3-1,3.9-1.1H40.6L33.3,19c0.4,0.8,1.2,2.3,1.5,2.9    C35,22.6,35.4,23.6,35.5,24.1z"/><path fill="#FFC316" d="M44.3,53.7c0.101-0.101,0.101-0.2,0.2-0.2c0,0-0.1,0-0.1,0.1C44.3,53.6,44.3,53.6,44.3,53.7z"/><path fill="#FFC316" d="M58.3,10.7c0.101,0.1,0.101,0.2-0.1,0.4c-0.4,0.6-1.2,1.3-1.5,1.6c-0.3,0.3-0.9,0.8-0.9,0.8    s0.5-0.2,0.8-0.1c0.301,0.2,0.5,0.4,0.101,1c-0.4,0.6-1,1.3-1.4,1.6c-0.399,0.3-0.6,0.6-0.6,0.6s0.6,0,0.7,0.1    c0.199,0.2,0.3,0.4-0.2,1c-0.5,0.6-1.4,1.2-1.7,1.5c-0.3,0.2-0.4,0.3-0.4,0.3s0.4,0.4,0.101,0.7c-0.3,0.3-0.7,0.8-1.2,1.2    c-0.6,0.3-0.9,0.6-0.9,0.6s0.2,0.4-0.3,1c-0.5,0.5-1.5,1.5-1.5,1.5s0.5,0.5,0.101,0.9C49.1,25.8,48,26.8,48,26.8s0.2,0.4-0.2,0.9    L47,28.6c0,0,0.5,0.2,0.4,0.5c-0.101,0.2-0.4,0.8-0.7,1.1c-0.3,0.3-0.5,0.5-0.5,0.5s0.3,0.3,0,0.7s-0.7,0.7-0.7,0.7    s0.1,0.4-0.3,0.7C45.1,33,45,33.1,45,33.1s0.1,0.3-0.2,0.6C44.4,34,44.5,34,44.5,34s0.2,0.3,0,0.5s-0.6,0.6-1,0.8    c0,0,0.2,0.5-0.2,0.8c-0.2,0.2-0.399,0.301-0.6,0.4H42l0,0h0.6l0,0c-0.199,0.1-0.3,0.1-0.399,0.2c-0.3,0.1,0.1,0.3-0.2,0.6    c-0.2,0.2-0.2,0.4-0.6,0.5l0,0c0.1,0,0.1,0.101,0.199,0.101c0.2,0.1,0.4,0,0.801,0c0.399,0,1.399,0,1.899,0s0.601,0,1.2,0.1    s1,0.3,1.5,0.7c0.6,0.399,0.9,0.899,1.2,1.2c0.1,0.199,0.2,0.399,0.3,0.699h0.1c0.2-0.1,0.5-0.5,0.7-1.1s0.3-1.3,0.2-1.6    c0-0.2-0.3-0.9-0.4-1.4l0,0l0,0c0-0.2-0.1-0.3-0.1-0.4c-0.1-0.399-0.4-0.8-0.3-1.3c0-0.5,0-0.8,0.2-1.2    c0.199-0.4,0.399-0.7,0.8-1.2c0.399-0.5,0.6-0.8,0.7-1.1c0.1-0.3,0.1-0.3,0.199-0.6c0-0.3,0-0.4,0.101-0.7    c0.2-0.3,0.1-0.3,0.399-0.8c0.301-0.4,0.601-0.8,0.9-0.9c0.3-0.1,0.6-0.2,0.5,0.1c-0.1,0.3-0.3,0.6-0.3,0.8    c0,0.2-0.101,0.5-0.101,0.6c0,0.1,0,0.1,0,0.1s0-0.1,0.2-0.3c0.2-0.2,0.5-0.3,0.7-0.3c0.2-0.1,0.3,0,0.4,0c0.1,0,0.199,0,0.1,0.1    s-0.2,0.2-0.4,0.4C52.9,30,52.7,30.3,52.6,30.5c0,0.2,0,0.3,0,0.3s0.101,0,0.301,0c0.199,0,0.5,0,0.6,0c0.2,0,0.2,0.1,0.3,0.2    c0.101,0.1,0,0.1-0.1,0.2c-0.101,0.1-0.3,0.2-0.4,0.4c-0.1,0.1-0.2,0.3-0.3,0.5c-0.1,0.2-0.2,0.4-0.3,0.5    c-0.101,0.1-0.2,0.2-0.3,0.4C52.3,33.2,52,33.3,51.8,33.5c-0.2,0.1-0.3,0.2-0.5,0.4c-0.1,0.2-0.3,0.4-0.3,0.5c0,0.2,0,0.3,0,0.3    s0-0.1,0.2-0.2c0.1-0.2,0.1-0.2,0.3-0.4c0.2-0.2,0.3-0.2,0.5-0.2s0.2,0,0.4-0.1c0.199-0.1,0.199-0.2,0.3-0.2    c0.1-0.1,0.2-0.2,0.2-0.1c0,0.2,0,0.6-0.101,0.8c-0.1,0.3-0.2,0.6-0.3,0.7s-0.5,0.4-0.7,0.5c-0.2,0.1-0.3,0.2-0.5,0.3    c-0.1,0.101-0.2,0.3-0.3,0.4c0.1,0,0.1-0.101,0.3-0.2s0.4-0.2,0.5-0.3c0.2-0.101,0.4-0.2,0.2,0.1c-0.2,0.2-0.3,0.5-0.4,0.8    c0,0,0,0,0,0.101l0,0c-0.1,0.399-0.3,1.6-0.3,1.899c0,0.301-0.2,1.301-0.5,1.801S50.4,41.2,50.2,41.3c-0.2,0.2-0.4,0.4-0.601,0.3    c-0.3,0-0.6,0-0.8-0.1c-0.1,0-0.1,0-0.2,0l0,0c0.101,0.3,0.101,1,0,1.5c0,0.4-0.3,0.9-0.5,1.3C47.9,44.7,47.6,45,47.2,45.5    c-0.101,0.1-0.2,0.3-0.3,0.4h-0.2l0,0h0.2c-0.2,0.3-0.2,0.6-0.301,0.8c0,0.3,0,0.5,0.101,0.8c0.1,0.3,0.399,0.6,0.6,0.8    s0.2,0.4,0.2,0.601c0,0.199,0,0.6,0,0.8s-0.1,0.5-0.1,0.5S47.1,50.4,46.9,50.6C46.7,50.8,46.8,50.9,46.8,51.1    c-0.1,0.2-0.1,0.5-0.2,0.7C46.5,52,46.5,52.2,46.4,52.4C46.3,52.6,46.5,52.9,46.5,53.1c0,0.2-0.1,0.301-0.2,0.5    c-0.1,0.101-0.1,0.101-0.2,0.2C46.1,53.9,46,54,46,54c0,0.1,0,0.2,0.1,0.2c0.101,0.1,0.101,0.1,0,0.2C46,54.5,45.9,54.7,45.7,54.9    C45.5,55.1,45.3,55,44.9,55.1c-0.4,0.101-0.301,0-0.7,0c-0.3,0-0.3-0.1-0.4-0.1c-0.2,0-0.1-0.2-0.2-0.4    C43.5,54.4,43.6,54.2,43.7,54c0.1-0.2,0.3-0.4,0.5-0.6c0.2-0.2,0.3-0.4,0.5-0.5c0.1-0.101,0.1-0.2,0.2-0.4    c0.1-0.2,0.3-0.6,0.399-0.9c0.101-0.3,0.3-1.199,0.3-1.6s-0.199-0.8-0.3-1c-0.1-0.2-0.6-0.4-0.8-0.6c-0.2-0.2-0.2-0.301-0.4-0.7    C43.9,47.3,43.8,46.9,43.7,46.6c0-0.1-0.101-0.199-0.101-0.3h-0.1c-0.2,0-0.2,0.101-0.6,0.2c-0.4,0.1-0.4,0.3-0.4,0.5    c-0.1,0.2-0.1,0.4-0.1,0.6c0,0.2,0.399,0.601,0.5,0.801C43,48.6,43,48.6,42.9,48.8C42.8,49,42.7,49,42.6,49.2    C42.4,49.4,42.4,49.3,41.9,49.4c-0.5,0.1-1,0.1-1.4,0.199C40.1,49.7,39.6,49.9,39.4,50c-0.2,0.1-0.2,0.1-0.301,0.2    c-0.1,0-0.199,0-0.399,0s-0.2,0.1-0.2,0.2c0,0.1,0,0.3-0.1,0.5c0,0.199-0.101,0.3-0.301,0.5C37.9,51.5,37.7,51.6,37.5,51.7    C37.3,51.8,37,51.6,36.9,51.6C36.8,51.6,36.5,51.4,36.3,51.2C36,51,36.1,50.9,36,50.7s0.1-0.4,0.2-0.601c0.1-0.1,0.399-0.5,0.5-0.6    c0.1-0.1,0.2-0.3,0.399-0.6c0.101-0.2,0.601-0.2,0.801-0.2c0.199,0,0.399,0,0.699-0.101c0.301,0,0.4-0.1,0.5-0.1    c0.101,0,0.301-0.1,0.801-0.3s0.8-0.3,0.899-0.5c0.101-0.2-0.1-0.4-0.2-0.7c-0.1-0.2-0.399-0.4-0.6-0.7c-0.2-0.2-0.2-0.399-0.4-0.7    c0-0.1-0.1-0.1-0.1-0.199h0.2l0,0h-0.2c-0.1-0.2-0.1-0.4-0.2-0.5c0-0.101-0.1-0.101-0.1-0.2c-0.5,0-1.101,0-1.601-0.101    c-0.5-0.199-1.5-1.1-1.899-1.5c-0.4-0.399-1.2-1.3-1.6-1.5c-0.4-0.199-1-0.5-1.2-0.6c-0.2,0-0.3-0.1-0.3-0.1s-0.6-1.2-0.8-1.7    c-0.2-0.5-0.5-0.9-0.7-1.101c-0.2-0.199-0.4-0.399-0.6-0.3c-0.1,0-0.2,0.4-0.3,0.7c-0.1,0.2-0.3,0.7-0.4,0.9    c-0.1,0.199-0.2,0.3-0.1,0.6c0.1,0.3,0.3,0.6,0.2,0.8c0,0.2-0.2,0.601-0.2,0.601s0,0.3,0,0.399c0.1,0.2,0.4,0.4,0.3,0.601    c-0.1,0.199-0.4,1-0.6,1.3C29.2,44,29.1,44.1,28.9,44.1c-0.1,0-0.1,0-0.3-0.3c-0.2-0.3-0.5-0.7-0.6-1c0-0.3-0.1-0.399,0-0.6    s0.3-0.5,0.3-0.5l-0.2-0.3c-0.1-0.2-0.3-0.301-0.2-0.7c0.1-0.3,0.2-0.9,0.3-1.101l0.1-0.199c-0.1,0-0.4,0-0.6-0.101    c-0.2,0-0.3-0.2-0.4-0.399C27.2,38.7,27.2,38.3,27,38.1c-0.1-0.199-0.1-0.5,0-0.6c0.1-0.2,0.2-0.3,0.2-0.3S27,36.9,27,36.7    c0-0.101,0-0.3,0.1-0.4l0,0l0.1-0.1c0,0,0.9-1.2,1.2-1.5c0.3-0.3,1-1.4,1.3-1.7c0.2-0.3,0.2-0.4,0.5-0.5c0.3-0.2,0.4,0,0.7,0.2    c0.1,0,0.2,0.1,0.3,0.2c-0.1-0.2-0.4-0.5-0.5-0.9c-0.1-0.6-0.2-0.4,0-0.6c0.1-0.2,0.3-0.1,0.3-0.1s-0.5-0.6-0.6-1    c-0.1-0.4-0.2-0.8-0.2-0.8s0.1-0.2,0.2-0.1c0.1,0,0.1,0,0.1,0.1c-0.1-0.1-0.4-0.6-0.4-0.9c-0.1-0.3-0.1-0.4,0-0.4    c0.2,0,0.4-0.1,0.4-0.1s-0.6-1.1-0.7-1.5c-0.1-0.3-0.1-0.4-0.1-0.6c0.1-0.2,0-0.2,0.2-0.1c0.2,0.1,0.5,0.2,0.5,0.2    s-0.6-0.9-0.8-1.4c-0.2-0.5-0.5-0.7-0.6-1.1l0,0L1.6,54.8h49.9l17.4-44.1H58.3z"/><path fill="#FFFFFF" d="M51.2,36L51.2,36c0.2-0.2,0.3-0.3,0.399-0.4c-0.1,0-0.1,0.101-0.199,0.101C51.2,35.8,51.2,36,51.2,36z"/><path fill="#FFFFFF" d="M33,24.7c0-0.1-0.2-0.1-0.2-0.1s0,0.1,0,0.2c0,0,0.1,0,0.1,0.1l0.3,0.3l0.1,0.1l0.1-0.1L33.3,25L33,24.7z"/><path fill="#FFFFFF" d="M42.4,36c0.3-0.2,1-0.7,0.199-0.5c-0.8,0.2-1.3,0.4-1.399,0.5c-0.2,0.1-0.101-0.2,0-0.3    c0.2-0.101,0.3-0.2,0.899-0.4c0.601-0.2,1.5-0.6,1.7-0.7c0.3-0.2,0.5-0.6-0.2-0.3c-0.699,0.3-1,0.5-1.1,0.5c-0.2,0.1-0.6,0-0.2-0.2    c0.3-0.2,1.3-0.7,1.601-0.8c0.3-0.2,1-0.8,0.5-0.5c-0.601,0.2-1,0.4-1.2,0.5C43,33.9,42.6,33.9,43.1,33.7c0.5-0.2,1.5-0.8,1.9-1    c0.3-0.2,0.8-0.8,0.3-0.6c-0.5,0.2-0.899,0.4-1.399,0.7c-0.5,0.3-0.4,0.3-0.601,0.3c-0.1,0-0.2-0.1,0.101-0.3    c0.3-0.2,0.6-0.5,1.1-0.7c0.6-0.2,1-0.3,1.3-0.5c0.3-0.2,0.8-0.7,0.101-0.5C45.3,31.3,44.3,31.8,44,32c-0.4,0-0.4,0-0.4,0    s0.2-0.3,0.7-0.6c0.5-0.3,0.601-0.5,1.4-0.9s1-0.7,1.3-0.9c0.3-0.3,0.4-0.8-0.1-0.7c-0.4,0.2-1.101,0.6-1.5,0.8    c-0.301,0.2-0.9,0.7-1,0.8C44.2,30.8,44,31,44,30.9c0-0.2,0.1-0.3,0.3-0.5c0.2-0.2,1.4-1.1,1.8-1.5c0.4-0.3,1-0.7,1.301-1.1    c0.3-0.3,0.699-0.9,0.3-0.8c-0.3,0-0.7,0.3-1,0.5c-0.4,0.2-1.2,0.9-1.4,1.1c-0.2,0.2-0.5,0.7-0.6,0.5c0-0.2,0.2-0.5,0.7-0.9    c0.5-0.5,1.1-1,1.6-1.3c0.5-0.3,0.8-0.6,1.4-1c0.6-0.5,0.8-0.6,0.8-0.8c0-0.2,0-0.3-0.2-0.2c-0.2,0-0.5,0.1-1,0.4    c-0.5,0.3-1.5,1-1.7,1.1C46,26.6,45.4,27,45.2,27.1C45.1,27.2,45,27.2,45,27c0.1-0.2,0.4-0.2,0.8-0.5c0.4-0.3,2-1.5,2.8-2    c0.801-0.5,1.4-1,1.7-1.3c0.3-0.3,0.8-1,0.4-1c-0.4,0-0.4,0-0.8,0.2c-0.4,0.2-2.2,1.3-2.601,1.5c-0.399,0.3-1,0.7-1.1,0.7    c-0.101,0-0.3-0.1,0-0.3c0.3-0.2,2.6-1.7,3.2-2c0.6-0.3,1.899-1,2.5-1.3c0.5-0.3,1.1-0.7,1.199-0.9c0.101-0.2,0-0.5-0.399-0.4    c-0.3,0.1-2.5,1-3.4,1.6C48.4,21.9,48,22,47.6,22.2C47.2,22.4,47,22.7,46.9,22.5c-0.101-0.2-0.2,0,0.3-0.3c0.5-0.3,3.2-1.8,3.8-2.1    c1-0.5,1.7-0.9,2.5-1.3c0.8-0.4,1.8-1.4,1.8-1.6c0.101-0.2,0-0.5-0.3-0.4c-0.4,0.1-0.8,0.2-1.4,0.5c-0.6,0.3-3,1.7-3.399,2    c-0.601,0.4-2.2,1.4-2.3,1.5c-0.101,0.1-0.4,0.1-0.101-0.2c0.5-0.5,2.4-1.5,2.8-1.8c0.4-0.2,2.601-1.7,3.101-2.1    c0.5-0.4,2.5-2.1,2.7-2.5c0.199-0.4,0.3-0.7,0-0.6c-0.301,0.1-1.601,0.5-1.9,0.7c-0.3,0.2-2.8,1.8-3.3,2.2s-1.5,1-1.8,1.3    L48.6,18.4c0,0,0.4-0.5,0.9-0.9c0.6-0.6,4.2-3.1,5.1-3.8c0.9-0.6,2.601-2,2.9-2.2s1-0.8,0.6-0.7c-0.399,0.1-3.3,0.8-4,1    C53.4,12,51.8,12.6,51,13.1s-3.2,1.8-4.3,2.7c-1,0.9-1.4,1.2-2.2,2c-0.8,0.8-2.2,2.4-2.6,3.2c-0.5,0.8-0.9,2.6-1,3.6    c-0.101,1-0.101,2.4,0,3.3c0.199,1,0.5,2.9,0.5,3.9c0,1.1-0.2,2.5-0.601,3c-0.3,0.4-0.899,1-1.399,1.3l0,0    C39.3,36.2,39.2,36.2,39.1,36.3c-0.5,0.2-1.5,0.3-1.5,0.3s0.5-0.199,1-0.5l0,0C38.9,35.9,39.2,35.8,39.4,35.6    c-0.101-0.2-0.301-0.6-0.5-1C38.7,34,38.6,33.9,38.6,33.1c0-0.8-0.1-2.4,0-3c0-0.6-0.1-1.3-0.3-2c-0.2-0.6-0.7-1.4-1-1.7    c-0.3-0.3-0.899-0.8-1.3-1c-0.4-0.2-0.6-0.3-0.6-0.3S35.3,25,35.5,25s0.5,0,0.7,0.2c0.3,0.2,0.8,0.5,1,0.7c0.2,0.2,0.899,1,1,1.2    c0.1,0.3,0.3,0.6,0.5,1.2c0.1,0.6,0.3,1.6,0.3,2.2c0,0.7,0.1,1.5,0.1,1.9c0,0.1,0,0.3,0,0.6c0-0.1,0.101-0.1,0.101-0.2    c0.1-0.2,0.3-1,0.3-1.5s0-1.4-0.1-2c-0.101-0.7-0.4-1.5-0.7-2s-0.601-1.1-1-1.4c-0.4-0.4-0.9-0.8-1.3-0.9    C36,24.9,35.6,24.7,35.3,24.7c-0.2,0-0.3,0-0.3,0c0,0.1,0,0.4,0,0.5c0,0.1-0.1,0.2-0.1,0.2s-0.1,0-0.1-0.1c0-0.1,0-0.4,0-0.5    c-0.1-0.2-0.2-0.4-0.3-0.5c-0.1-0.1-0.2-0.2-0.2-0.2v0.3c0,0.2,0,0.2,0,0.3c0.1,0.1,0.1,0.2,0.1,0.3s-0.1,0.3-0.1,0.3    s-0.2-0.2-0.3-0.4c0,0-0.1,0-0.1,0.1c-0.1,0.1-0.2,0.1-0.2,0.3c-0.1,0.2-0.1,0.3-0.1,0.4c0,0.1-0.1,0.1-0.2,0.2    c-0.2,0.1-0.2,0.1-0.3,0.2c-0.1,0.2-0.2,0.3-0.3,0.5c-0.1,0.2-0.1,0.4-0.1,0.7c0.1,0.3,0.2,0.4,0.2,0.7s0,0.7,0,1s-0.1,0.7-0.2,0.8    c-0.1,0.2-0.3,0.4-0.3,0.5c-0.1,0.1-0.1,0.1,0,0.2s0.2,0.2,0.3,0.3c0.1,0.1,0.2,0.2,0.3,0.2s0,0.2,0,0.2s-0.3,0-0.5-0.2    s-0.3-0.3-0.4-0.5s-0.1-0.3,0-0.4s0.2-0.2,0.3-0.4c0.1-0.1,0.1-0.6,0.2-1c0-0.4,0.1-0.5,0-0.7s-0.3-0.5-0.3-0.8    c0-0.3,0.1-0.7,0.2-1c0.1-0.3,0.1-0.5,0.3-0.6c0.2-0.1,0.4-0.2,0.5-0.3c0.1-0.1,0.1-0.2,0.1-0.2S33.1,25,33,24.8    c-0.1-0.2-0.3-0.3-0.3-0.5c0-0.3-0.1-0.3-0.1-0.3s0-0.1,0.2,0c0.2,0.1,0.3,0.1,0.5,0.3c0.2,0.2,0.3,0.4,0.3,0.4    c0.1,0.1,0.2,0.1,0.2,0.1l0,0c0,0,0,0,0-0.1c0-0.3,0-0.6,0-0.8c0.1-0.2,0.1-0.3,0.2-0.3c0.1-0.1,0.2-0.2,0.2-0.1s0,0.1,0.1,0.3    c0.1,0.2,0.2,0.2,0.3,0.3s0.1,0.2,0.2,0.2c0.1,0,0.4-0.1,0.8,0c-0.2-0.6-1.5-3.7-2.2-4.9c-0.1-0.1-0.2-0.3-0.3-0.4    c-0.9-1.4-2.3-3.4-3.1-4.2c-0.4-0.4-0.9-0.8-1.3-1.2c-0.5-0.4-1-0.7-1.4-0.9c-0.5-0.2-0.6-0.3-0.6-0.1c0,0.2,0,0,0.3,0.4    s1.4,1.6,2,2.4c0.6,0.7,2.9,3.9,3,4.1s0,0.3-0.2,0c-0.1-0.3-1.3-1.9-1.7-2.3c-0.4-0.4-1.2-1.1-1.7-1.5c-0.6-0.3-0.8-0.4-1-0.4    c-0.1,0-0.1,0-0.1,0s0,0,0.1,0.2s0.7,0.8,1.1,1.2c0.4,0.5,0.7,0.8,1.2,1.4s1.5,1.8,2,2.5c0.1,0.1,0.1,0.2,0.2,0.2    c0.3,0.5,0.6,0.8,0.4,0.7c-0.1-0.1-0.4-0.5-0.6-0.9c-0.1-0.1-0.1-0.2-0.2-0.3C31.3,20,30.4,19,30,18.6c-0.3-0.4-0.7-0.8-1.1-1.1    c-0.5-0.3-0.6-0.4-0.7-0.3c-0.1,0-0.1,0.1,0,0.3c0.1,0.2,0.9,1.3,1.2,1.8c0.3,0.5,1.3,1.6,1.6,2.1l0,0c0.3,0.5,1.2,1.6,1.2,1.6    s-0.1,0.3-0.2,0c-0.1-0.2-0.7-0.9-1.1-1.5c-0.1-0.1-0.2-0.2-0.3-0.3c-0.5-0.6-0.9-1.1-1.2-1.3c-0.3-0.3-0.4-0.3-0.5-0.2    c-0.1,0.2-0.1,0.1,0.1,0.4c0.2,0.2,0.8,1.3,1.3,2.1c0.2,0.3,0.4,0.6,0.5,0.7c0.2,0.3,1.4,2.2,1.4,2.2s0,0.1-0.2-0.2    c-0.2-0.3-0.9-1.1-1.1-1.4c-0.2-0.3-0.5-0.5-0.8-0.7c-0.3-0.2-0.3,0-0.1,0.3c0.2,0.3,1.3,2.5,1.6,2.8c0.3,0.3,0.6,0.9,0.6,0.9    s0,0.2-0.2,0c-0.2-0.2-0.2-0.2-0.6-0.6c-0.4-0.4-0.5-0.5-0.7-0.6c-0.2,0-0.2-0.1-0.1,0.2c0.1,0.3,0.3,0.9,0.6,1.3    c0.2,0.3,0.8,1.5,0.8,1.5s0,0.2-0.3-0.2c-0.3-0.4-0.6-0.7-0.7-0.6c-0.1,0.1,0,0.4,0.2,0.6c0.1,0.2,0.7,1.4,0.7,1.4s-0.1,0-0.3-0.2    c-0.2-0.2-0.5-0.5-0.5-0.5s-0.1,0.2,0.1,0.5c0.2,0.3,0.7,1.2,0.8,1.5c0.1,0.2,0.4,0.7,0.4,0.7s0,0.1-0.3-0.2    c-0.3-0.3-0.4-0.5-0.6-0.5c-0.1,0,0,0.2,0.1,0.5c0.1,0.2,0.4,0.9,0.5,1s0.3,0.2,0.4,0.3c0.3,0.1,0.7,0.2,0.9,0.3    c0.1-0.2,0.2-0.4,0.4-0.7c0.3-0.4,0.4-0.6,0.5-0.8c0.1-0.2,0.5-0.8,0.6-1.1c0.1-0.3,0.3-0.8,0.3-1c0.1-0.2,0.1-0.3,0.1-0.3    s0.1,0.2,0.1,0.5c0,0.3-0.1,0.7-0.3,1.2c-0.2,0.5-0.2,0.6-0.5,1c-0.2,0.4-0.5,0.8-0.7,1.2c-0.2,0.4-0.4,0.9-0.6,1.2    c-0.2,0.3-0.4,0.9-0.5,1.3c0,0.1,0,0.3,0,0.399l0,0c0,0.2-0.1,0.5,0,0.5c0.4,0.2,1.7,1.5,1.9,1.7c0.2,0.2,0.3,0.3-0.1,0.2    c-0.3-0.2-0.6-0.3-1-0.7c-0.5-0.399-0.8-0.7-1.3-1s-0.9-0.6-1.1-0.7l0,0l0,0c-0.2-0.1-0.3-0.1-0.5,0l0,0c0,0-0.1,0-0.1,0.101    c-0.2,0.1-0.3,0.2-0.3,0.5s0,0.399-0.1,0.7C30.1,37.7,30,38.3,29.9,38.6C29.7,38.9,29.7,39.4,29.5,39.7s-0.3,0.6-0.3,0.899    c0,0.301,0.3,0.5,0.3,0.7s0,0.2-0.1,0.5s-0.2,0.5,0,0.8c0.2,0.301,0.2,0.5,0.3,0.601c0.1,0,0.2,0.1,0.3-0.2    c0.2-0.3,0.3-0.5,0.3-0.7s0-0.3-0.2-0.5C30,41.6,29.9,41.4,30,41.1c0.2-0.199,0.3-0.3,0.3-0.5c0-0.199-0.2-0.399-0.2-0.6    c-0.1-0.2-0.2-0.5,0-0.8c0.2-0.4,0.4-1,0.5-1.4c0.1-0.3,0.1-0.6,0.3-0.7c0.2-0.199,0.3-0.199,0.5,0c0.2,0.2,0.6,0.7,0.8,1    c0.2,0.4,0.6,1.2,0.8,1.601c0.2,0.399,0.2,0.7,0.4,0.8c0.1,0.1,0.2,0,0.5,0.1c0.3,0.101,1,0.5,1.3,0.801    c0.3,0.3,0.899,0.699,1.3,1.1c0.4,0.5,0.6,0.8,1,1.1c0.4,0.301,0.6,0.4,1,0.5c0.5,0.101,0.7,0.2,1.3,0.2    c0.601,0,1.101-0.1,1.7,0.101c0.6,0.199,0.8,0.199,1.1,0.3c0.301,0.2,0.7,0.5,0.7,0.5S42,45,41.2,44.9c-0.4,0-0.8,0-1.2,0    c0,0.1,0,0.199,0,0.199c0,0.101,0.1,0.301,0.1,0.5h-0.3l0,0H40c0,0.101,0.1,0.2,0.1,0.2c0.101,0.2,0.4,0.5,0.601,0.7    s0.399,0.5,0.5,0.7c0.1,0.2,0,0.399-0.101,0.7c-0.1,0.3-0.5,0.399-0.8,0.6c-0.3,0.1-0.7,0.2-1,0.3C39,48.9,38.6,48.9,38.3,49    s-0.3,0-0.6,0s-0.2-0.1-0.4,0s-0.2,0.2-0.2,0.4C37,49.6,36.9,49.7,36.7,49.9C36.5,50.1,36.5,50.1,36.4,50.3    C36.2,50.5,36.3,50.4,36.3,50.6c0,0.2,0.101,0.101,0.3,0.301C36.8,51.1,37.1,51.1,37.4,51.1c0.3,0,0.399,0,0.5-0.1    c0.1,0,0.199-0.2,0.3-0.4c0-0.1,0-0.199,0-0.5c0-0.199,0.1-0.3,0.1-0.5c0.101-0.199,0.101-0.1,0.3-0.1c0.2,0,0.5,0,0.601,0    c0.1,0,0.1-0.1,0.2-0.1C39.5,49.3,40,49.1,40.3,49s0.9-0.2,1.2-0.3c0.3-0.101,0.7-0.101,0.9-0.101c0.199,0,0.199-0.1,0.199-0.199    C42.7,48.3,42.7,48.2,42.7,48.2c0-0.101-0.2-0.2-0.3-0.4c-0.2-0.2-0.101-0.2-0.2-0.6c-0.101-0.3,0-0.5,0-0.7s0.3-0.6,0.5-0.8    s0.5-0.3,0.7-0.3h0.5v0.1c0.199,0.5,0.6,1.4,0.8,1.7s0.5,0.6,0.899,0.899C46,48.4,46.1,48.7,46.2,48.9c0.1,0.199,0.1,0.5,0.1,0.699    c0,0.301-0.1,0.5-0.3,1c-0.1,0.5-0.4,1.101-0.6,1.5C45.3,52.5,45.1,52.7,44.9,52.8C44.8,52.9,44.6,53,44.5,53.2    c-0.1,0.1-0.1,0.2-0.2,0.2c0,0.1,0,0.1,0,0.199c0,0.2,0.101,0.2,0.101,0.4c0.1,0.1,0.1,0,0.5,0.1c0.399,0.101,0.8,0,0.899-0.1    c0.101-0.1,0.2-0.1,0.2-0.2c0-0.1,0-0.2,0-0.399c0-0.2,0.1-0.2,0.1-0.4c0.101-0.2,0.2-0.2,0.2-0.3C46.4,52.6,46.4,52.5,46.4,52.3    s0-0.5,0-0.7c0-0.199,0.199-0.399,0.199-0.8c0.101-0.399,0.2-0.6,0.2-0.8s0.3-0.6,0.4-0.8c0.1-0.2,0.1-0.4,0.1-0.7s0-0.4-0.2-0.6    C47,47.8,47,47.6,46.8,47.5c-0.2-0.2-0.2-0.3-0.3-0.6C46.3,46.6,46.4,46.3,46.4,46s0.1-0.4,0.199-0.6H46.9l0,0H46.6    c0-0.101,0.101-0.101,0.101-0.2c0.2-0.3,0.399-0.601,1-1.2c0.5-0.6,0.7-1.4,0.7-1.7c0.1-0.3-0.2-1.399-0.301-1.8    C48,40.2,47.7,39.7,47.4,39.3c-0.301-0.399-0.801-0.8-1-1C46.2,38.2,46,38.1,45.8,38c-0.2,0-0.7-0.1-1.2-0.1s-1.399,0-1.899,0    c-0.4,0-0.9,0-1.2-0.101c-0.3-0.1-0.3-0.2-0.5-0.3c-0.1-0.1-0.2-0.2-0.2-0.2c-0.2,0-0.3,0.101-0.6,0.2c-0.4,0.2-1.2,0.8-1.4,1.1    l0.2,0.7c0,0-0.1-0.3,0.1-0.7C39.3,38.2,39.4,38,40,37.7c0.5-0.3,1.3-0.5,1.5-0.601c0.2-0.199,0.5-0.5-0.1-0.3    c-0.601,0.2-1,0.3-1.301,0.3c0,0,0.101-0.1,0.601-0.399c0.3-0.101,0.6-0.3,0.899-0.4H42l0,0h-0.5C41.9,36.2,42.2,36.1,42.4,36z     M33.2,27.8c0-0.1,0-0.1,0.1-0.2l0,0c0-0.1,0.1-0.2,0.2-0.2s0.1-0.1,0.2-0.1c0.1,0,0.2,0,0.2,0.1c0.1,0,0.1,0.1,0,0.1    c0,0-0.1,0-0.2,0l0,0c0,0,0.1,0,0.1,0.1c0.1,0,0.1,0,0.2,0c0,0,0,0.1-0.1,0.1l0,0l0,0c0,0,0,0.1-0.1,0.1c-0.1,0-0.1,0.1-0.2,0.2    s-0.1,0.1-0.2,0.1S33.2,28,33.2,28s0,0,0.1-0.1v-0.1c0,0,0.1-0.1,0.2-0.1s0.1,0,0.2,0c-0.1,0-0.2,0-0.2,0    C33.4,27.8,33.3,27.9,33.2,27.8V28C33.2,27.9,33.2,27.9,33.2,27.8z M33,30.9c0-0.1,0-0.1,0.1-0.1c0.1-0.1,0.2-0.1,0.3-0.1    s0.2,0.2,0.2,0.2s0,0-0.1,0.1l0.1,0.1c0,0,0,0-0.1,0.1c-0.1,0-0.1,0-0.2,0.1v0.1h-0.1c0,0.1,0,0.2,0,0.2s-0.1,0-0.2,0    s-0.1-0.1-0.1-0.2C32.9,31,33,30.9,33,30.9z M35.9,28L35.9,28c0,0,0,0.1-0.101,0.1c-0.1,0-0.2,0-0.3,0.2c-0.1,0.2-0.2,0.5-0.3,0.6    c-0.1,0.1-0.1,0.2-0.3,0.2c-0.2,0-0.3,0-0.4,0c0.2,0,0.4,0,0.4,0s0,0.1,0,0.2l0,0v0.1c-0.1,0.1-0.1,0.1-0.2,0.2    c-0.1,0.1-0.2,0.1-0.2,0.2c0,0.2,0,0.5,0,0.7c0,0.1,0,0.4,0,0.5s0,0.2-0.1,0.3c0,0.1,0,0.1-0.1,0.2c-0.2,0.2-0.2,0.2-0.5,0.2    c-0.3,0-0.4,0-0.6-0.1c-0.1,0-0.1-0.2-0.1-0.2H33c0,0.1,0,0,0,0h0.2c0.2,0,0.3,0,0.5-0.1c0.1-0.1,0.2-0.1,0.2-0.2l0,0    c0-0.2,0.1-0.8,0.1-1c0.1-0.2,0-0.4,0.1-0.5c0-0.1,0-0.1,0.1-0.2c0.1,0,0.1-0.1,0.1-0.1s0,0-0.1,0c-0.1,0-0.2,0-0.2,0    s0-0.2,0.1-0.3c0-0.1,0.1-0.2,0.1-0.2c0.1-0.1,0.2-0.1,0.4-0.1c0.2,0,0.3,0,0.3-0.2c0.1-0.1,0.2-0.3,0.3-0.4    c0.1-0.2,0.1-0.2,0.2-0.2s0.3,0,0.3,0S36.1,28,35.9,28z M41.2,42.5c0,0,0,0.1,0.3,0.3s0.4,0.2,0.7,0.5c0.3,0.2,0.8,0.7,1,1    s0.5,0.8,0.6,1.3h-0.5H43.4l0,0v-0.1c-0.101-0.2-0.2-0.4-0.301-0.7C43,44.6,42.7,44.2,42.4,44c-0.2-0.2-0.4-0.4-0.7-0.6    C41.4,43.1,41.4,43,41.2,42.8C41.1,42.6,41.2,42.5,41.2,42.5z"/><path fill="#FFFFFF" d="M52.4,34.4c0.1-0.1,0.199-0.3,0.199-0.3s-0.1-0.1-0.199,0c-0.101,0-0.301,0-0.4,0.1    c-0.2,0.1-0.4,0.2-0.6,0.4C51.2,34.8,51,35,51,35.2c-0.1,0.1-0.1,0.2-0.1,0.2H50.8c0,0,0-0.1,0-0.3c0-0.2-0.1-0.4,0-0.6    c0-0.2,0.101-0.8,0.2-1s0.4-0.8,0.7-0.9c0.3-0.2,0.6-0.4,0.8-0.6s0.3-0.3,0.5-0.6c0.2-0.2,0.2-0.3,0.3-0.4c0.101-0.1,0-0.2-0.1-0.2    c-0.101,0.1-0.3,0.1-0.4,0.2c-0.1,0.1-0.3,0.3-0.3,0.3l-0.1,0.1c0,0,0,0,0-0.2c0-0.2,0-0.6,0-0.8c0.1-0.2,0.1-0.4,0.199-0.5    c0.101-0.1,0.2-0.2,0.2-0.2s0-0.1-0.1,0c-0.101,0.1-0.3,0.2-0.4,0.4c-0.1,0.2-0.3,0.5-0.399,0.6c0,0.1-0.101,0.1-0.101,0.1    s-0.1,0-0.1-0.1c0-0.1-0.101-0.1,0-0.4c0-0.4,0-0.6,0.1-0.8c0-0.2,0.101-0.4,0-0.4c-0.1,0,0,0-0.2,0.2C51.4,29.5,51.3,29.7,51.2,30    C51.1,30.3,51.1,30.3,51,30.6c-0.1,0.3,0,0.4-0.1,0.7c-0.101,0.3-0.2,0.5-0.4,0.7s-0.2,0.3-0.4,0.6c-0.3,0.3-0.3,0.4-0.5,0.7    c-0.1,0.3-0.199,0.4-0.3,0.7c-0.1,0.3-0.1,0.3,0,0.8c0.101,0.4,0.101,0.6,0.2,1c0.1,0.2,0.1,0.3,0.2,0.5l0,0    c0.1,0.2,0.2,0.4,0.2,0.7c0.1,0.4,0.199,0.8,0.199,1.1c0,0.301-0.1,0.7-0.199,1.101C49.8,39.5,49.5,40,49.3,40.1    c-0.1,0.2-0.3,0.4-0.399,0.5L48.8,40.7v0.1H48.9C49,40.9,49.1,41,49.5,40.9c0.3-0.101,0.7-0.2,0.9-0.4c0.199-0.2,0.5-0.7,0.6-1.2    s0.1-1.1,0.2-1.399c0-0.301,0.1-0.7,0.1-0.9c0-0.1,0.101-0.4,0.2-0.5c0-0.1,0-0.1,0-0.1s-0.1,0-0.2,0.1C51.2,36.7,51,36.9,51,37    c-0.1,0.1,0,0.2-0.1,0.2C50.8,37.2,50.8,37.3,50.8,37.1c0-0.1-0.1-0.399,0-0.6v-0.1l0,0c0-0.2,0.101-0.5,0.2-0.601    c0.1-0.2,0.2-0.4,0.4-0.7c0.199-0.2,0.3-0.3,0.6-0.4C52.2,34.5,52.2,34.5,52.4,34.4z"/><path fill="#FFFFFF" d="M48.9,41.2L48.9,41.2L48.9,41.2L48.9,41.2z"/><path fill="#FFFFFF" d="M46.3,53.7c0-0.101,0.101-0.2,0.101-0.2C46.3,53.5,46.3,53.6,46.3,53.7L46.3,53.7z"/><path fill="#FFFFFF" d="M30.5,32.8c-0.2-0.1-0.2,0-0.4,0.1c-0.2,0.1-0.2,0.4-0.4,0.6c-0.1,0.2-0.7,1-1,1.4c-0.4,0.4-0.8,1-1.1,1.5    l0,0c0,0,0,0,0,0.1c-0.2,0.2-0.2,0.3-0.2,0.3h0.1c0.1,0.101,0.2,0.4,0.2,0.601c0,0.199-0.2,0.3-0.2,0.5c0,0.199,0.1,0.3,0.3,0.699    C27.9,38.9,27.9,38.9,28,38.9c0,0,0,0,0.1,0s0.7,0,0.8,0l0.1-0.2c0-0.101,0.1-0.3,0.2-0.4c0.1-0.2,0-0.3-0.2-0.5    s-0.2-0.399-0.3-0.6c0-0.2,0.2-0.4,0.2-0.4s0.3,0,0.1-0.3c-0.1-0.1-0.1-0.2-0.1-0.3l0,0C28.9,36.1,29,36.1,29,36.1s0.4-0.5,0.7-0.8    c0.3-0.3,0.7-0.7,0.9-1c0.3-0.2,0.5,0,0.7,0.2c0.1,0.2,0.6,0.8,0.8,1.2c0-0.101,0-0.3,0.1-0.4c0.2-0.5,0.3-0.9,0.6-1.4v-0.1    c0,0-0.1-0.1-0.2-0.1c-0.2-0.1-0.7-0.3-1-0.5C31.1,33.3,30.7,32.9,30.5,32.8z"/><path fill="#E22428" d="M46.5,46.2c0,0.3-0.1,0.6,0.1,0.899C46.8,47.4,46.7,47.5,46.9,47.7C47.1,47.9,47.1,48,47.2,48.1    c0.1,0.101,0.2,0.301,0.2,0.601s0,0.5-0.101,0.7C47.2,49.6,47,49.9,46.9,50.2C46.8,50.5,46.8,50.7,46.7,51    c-0.101,0.4-0.2,0.6-0.2,0.8s0,0.5,0,0.7s0,0.3-0.1,0.4C46.3,53,46.2,53.1,46.2,53.2C46.1,53.4,46,53.4,46.1,53.6    c0,0.2,0,0.301,0,0.4S46,54.1,45.9,54.2C45.8,54.3,45.3,54.4,45,54.3c-0.4-0.1-0.4,0.101-0.5-0.1c-0.1-0.101-0.2-0.2-0.1-0.4    c0-0.1,0-0.1,0-0.2c0,0,0.1-0.1,0.1-0.199c0,0,0.1,0,0.1-0.101c0.2-0.1,0.301-0.2,0.4-0.399c0.2-0.2,0.3-0.301,0.5-0.7    c0.1-0.4,0.4-1,0.6-1.5c0.101-0.5,0.301-0.7,0.301-1s0-0.601-0.101-0.7c-0.1-0.2-0.2-0.5-0.6-0.8c-0.4-0.3-0.7-0.601-0.9-0.9    s-0.6-1.2-0.8-1.7v-0.1h-0.5c-0.2,0.1-0.6,0.2-0.7,0.3C42.6,46,42.4,46.4,42.3,46.6c0,0.2-0.1,0.4,0,0.7c0.101,0.3,0,0.3,0.2,0.601    c0.2,0.199,0.3,0.399,0.3,0.399c0,0.101,0,0.2-0.1,0.2c-0.101,0.1-0.101,0.1-0.2,0.2c-0.2,0-0.6,0.1-0.9,0.1    C41.3,48.9,40.8,49,40.4,49.1C40.1,49.2,39.6,49.4,39.5,49.5s-0.1,0.1-0.2,0.1c-0.1,0-0.399,0-0.6,0s-0.2,0-0.3,0.101    C38.3,49.9,38.3,49.9,38.3,50.2c0,0.2,0,0.3,0,0.5C38.2,50.8,38.1,51,38,51.1c-0.1,0-0.2,0.101-0.5,0.101S37,51.1,36.7,51    c-0.2-0.2-0.3-0.1-0.3-0.3S36.3,50.6,36.5,50.4c0.2-0.2,0.2-0.2,0.3-0.4c0.2-0.2,0.3-0.3,0.4-0.5c0.1-0.2,0-0.3,0.2-0.4    c0.199-0.1,0.1,0,0.399,0s0.3,0,0.601,0c0.3-0.1,0.699-0.1,1-0.199c0.3-0.101,0.699-0.2,1-0.301c0.3-0.1,0.699-0.3,0.8-0.6    c0.1-0.3,0.2-0.5,0.1-0.7c-0.1-0.2-0.3-0.399-0.5-0.7c-0.2-0.199-0.5-0.5-0.6-0.699c0-0.101-0.101-0.2-0.101-0.2H39.9h-0.2    c0,0.1,0.1,0.1,0.1,0.2C39.9,46.2,40,46.3,40.2,46.6c0.2,0.2,0.5,0.4,0.6,0.7c0.101,0.2,0.3,0.5,0.2,0.7s-0.4,0.3-0.9,0.5    s-0.699,0.2-0.8,0.3c-0.1,0-0.2,0.101-0.5,0.101S38.3,49,38.1,49c-0.199,0-0.6,0-0.8,0.2c-0.1,0.2-0.2,0.5-0.399,0.6    C36.8,49.9,36.5,50.3,36.4,50.4C36.3,50.5,36.1,50.7,36.2,51c0.1,0.3,0.1,0.3,0.3,0.5c0.3,0.3,0.5,0.4,0.6,0.4    c0.101,0,0.4,0.1,0.601,0.1c0.2-0.1,0.5-0.2,0.6-0.3c0.2-0.101,0.3-0.3,0.3-0.5s0-0.4,0.101-0.5c0-0.101,0-0.2,0.2-0.2    c0.199,0,0.399,0,0.399,0c0.101,0,0.101,0,0.3-0.2C39.8,50.2,40.2,50,40.7,49.9C41.1,49.8,41.6,49.7,42.1,49.7    c0.5-0.101,0.5-0.101,0.7-0.2c0.2-0.2,0.2-0.2,0.3-0.4c0.101-0.199,0.2-0.3,0-0.399c-0.1-0.2-0.5-0.601-0.5-0.8    c0-0.2,0-0.4,0.101-0.601c0.1-0.2,0.1-0.399,0.399-0.5c0.4-0.1,0.4-0.2,0.601-0.2h0.1C43.9,46.7,43.9,46.8,43.9,46.9    C44,47.1,44.1,47.6,44.3,48s0.2,0.5,0.4,0.7s0.7,0.399,0.8,0.6s0.4,0.601,0.3,1c0,0.4-0.2,1.3-0.3,1.601    c-0.1,0.3-0.3,0.699-0.4,0.899C45,53,45,53.1,44.9,53.2c-0.101,0.1-0.301,0.2-0.5,0.5c-0.2,0.2-0.5,0.5-0.5,0.6    c0,0.2-0.101,0.4-0.101,0.601c0.101,0.199,0,0.3,0.2,0.399c0.2,0,0.1,0.101,0.4,0.101c0.3,0,0.3,0.1,0.699,0    c0.4-0.101,0.601,0,0.801-0.2c0.199-0.2,0.3-0.3,0.399-0.5c0.101-0.101,0.101-0.101,0-0.2c-0.1-0.1-0.1-0.1-0.1-0.2l0,0    c0-0.1,0-0.1,0.1-0.2c0-0.1,0.101-0.1,0.2-0.199c0.2-0.2,0.2-0.301,0.2-0.5c0-0.2-0.101-0.5-0.101-0.7    c0.101-0.2,0.101-0.4,0.2-0.601C46.9,51.9,46.9,51.6,47,51.4c0.1-0.2,0-0.301,0.1-0.5c0.2-0.2,0.5-0.4,0.5-0.4s0-0.3,0.101-0.5    c0-0.2,0-0.7,0-0.8c0-0.101,0-0.4-0.2-0.601C47.3,48.4,47,48,46.9,47.8C46.8,47.5,46.8,47.3,46.8,47c0-0.2,0.101-0.5,0.3-0.8H46.9    H46.6C46.6,45.8,46.5,46,46.5,46.2z"/><path fill="#E22428" d="M41.8,43.4c0.3,0.199,0.4,0.399,0.7,0.6c0.2,0.2,0.6,0.6,0.7,0.8c0.1,0.2,0.2,0.4,0.3,0.7v0.1l0,0    c0,0,0,0-0.1,0h0.5c-0.2-0.5-0.4-1-0.601-1.3s-0.7-0.8-1-1s-0.5-0.3-0.7-0.5c-0.3-0.2-0.3-0.3-0.3-0.3s-0.1,0,0.101,0.3    C41.4,43,41.4,43.1,41.8,43.4z"/><path fill="#E22428" d="M40.7,36.8C40.1,37.1,40.1,37.2,40.1,37.2c0.301,0,0.801-0.2,1.301-0.3c0.6-0.2,0.199,0.199,0.1,0.3    c-0.2,0.2-1,0.3-1.5,0.6s-0.7,0.5-0.9,0.9C38.9,39,39,39.3,39,39.3l0.1-0.3c0.101-0.3,0.9-0.9,1.4-1.1c0.2-0.101,0.4-0.2,0.6-0.2    c0,0.1,0.101,0.1,0.2,0.2c0.2,0.1,0.2,0.199,0.5,0.3c0.3,0.1,0.8,0.1,1.2,0.1s1.4,0,1.9,0s1,0,1.199,0.101    c0.2,0,0.4,0.199,0.601,0.3c0.2,0.1,0.7,0.6,1,1c0.3,0.399,0.6,0.8,0.7,1.2c0.1,0.3,0.399,1.5,0.3,1.8c0,0.3-0.2,1-0.7,1.7    C47.5,45,47.2,45.3,47,45.6c0,0.101-0.1,0.101-0.1,0.2h0.3h0.2c0.1-0.1,0.199-0.3,0.3-0.399c0.399-0.5,0.7-0.7,0.899-1.2    c0.2-0.4,0.5-0.9,0.5-1.3c0-0.4,0-1.2,0-1.5l0,0l0,0c0,0,0.101,0,0.2,0c0.2,0.1,0.5,0.1,0.8,0.1c0.301,0,0.4-0.2,0.601-0.3    c0.2-0.2,0.3-0.4,0.6-0.9s0.4-1.5,0.5-1.8c0-0.3,0.2-1.5,0.3-1.9l0,0c0,0,0,0,0-0.1c0.101-0.3,0.2-0.6,0.4-0.8S52.4,35.6,52.3,35.6    C52.1,35.7,52,35.8,51.8,35.9C51.7,36,51.6,36,51.5,36.1L51.4,36.2c0,0,0.1-0.2,0.199-0.3c0,0,0.101-0.101,0.2-0.101    c0.101-0.1,0.3-0.2,0.5-0.3c0.2-0.1,0.5-0.4,0.7-0.5c0.1-0.1,0.3-0.5,0.3-0.7C53.4,34,53.4,33.6,53.4,33.5c0-0.2-0.101,0-0.2,0.1    c-0.101,0.1-0.101,0.2-0.3,0.2c-0.2,0.1-0.2,0.1-0.4,0.1S52.3,34,52,34.1c-0.2,0.2-0.2,0.2-0.3,0.4c-0.101,0.2-0.2,0.2-0.2,0.2    s0-0.1,0-0.3c0-0.2,0.2-0.3,0.3-0.5c0.101-0.2,0.3-0.3,0.5-0.4s0.5-0.2,0.601-0.5c0.1-0.2,0.199-0.3,0.3-0.4    c0.1-0.1,0.2-0.3,0.3-0.5c0.1-0.2,0.2-0.3,0.3-0.5c0.101-0.1,0.3-0.3,0.4-0.4c0.1-0.1,0.1-0.1,0.1-0.2c-0.1-0.1-0.1-0.1-0.3-0.2    c-0.2,0-0.4,0-0.6,0c-0.2,0-0.301,0-0.301,0s0-0.1,0-0.3c0.101-0.2,0.301-0.5,0.5-0.7c0.2-0.2,0.301-0.3,0.4-0.4s0-0.1-0.1-0.1    c-0.101,0-0.301,0-0.4,0c-0.2,0.1-0.5,0.2-0.7,0.3c-0.2,0.2-0.2,0.3-0.2,0.3s0,0,0-0.1c0-0.1,0-0.3,0.101-0.6    c0-0.2,0.2-0.5,0.3-0.8c0.1-0.3-0.2-0.2-0.5-0.1c-0.3,0.1-0.5,0.5-0.9,0.9c-0.3,0.4-0.3,0.5-0.399,0.8C51,30.3,51.1,30.4,51.1,30.7    c0,0.3,0,0.3-0.199,0.6c-0.101,0.3-0.301,0.5-0.7,1.1c-0.4,0.5-0.601,0.8-0.8,1.2c-0.2,0.4-0.2,0.7-0.2,1.2s0.2,0.9,0.3,1.3    c0,0.101,0.1,0.2,0.1,0.4l0,0l0,0c0.2,0.5,0.4,1.1,0.4,1.4c0,0.3-0.1,1-0.2,1.6c-0.2,0.6-0.5,1-0.7,1.1H49    c-0.1-0.3-0.2-0.5-0.3-0.699C48.4,39.6,48.1,39,47.5,38.7C46.9,38.3,46.6,38.1,46,38s-0.7-0.1-1.2-0.1s-1.5,0-1.899,0    c-0.4,0-0.601,0.1-0.801,0C42,37.9,41.9,37.8,41.9,37.8l0,0c0.3-0.1,0.3-0.3,0.6-0.5c0.2-0.2-0.1-0.5,0.2-0.6    c0.1,0,0.3-0.101,0.399-0.2l0,0H42h-0.5C41.2,36.5,40.9,36.7,40.7,36.8z M51.3,35.1c-0.2,0.2-0.3,0.5-0.399,0.7    C50.8,36,50.7,36.2,50.7,36.4l0,0v0.1c0,0.2,0,0.5,0,0.6c0,0.101,0,0.101,0.1,0.101c0.101,0,0-0.101,0.101-0.2    c0.1-0.1,0.199-0.3,0.3-0.5l0,0c0-0.1,0.1-0.1,0.1-0.1l0,0C51.4,36.3,51.4,36.3,51.4,36.3s0,0,0,0.101l0,0c0,0,0,0.1-0.101,0.199    c-0.1,0.2-0.1,0.4-0.2,0.5C51,37.3,51,37.7,51,38c-0.1,0.3-0.1,0.9-0.2,1.4c-0.1,0.5-0.399,1-0.6,1.199C50,40.8,49.6,41,49.3,41    c-0.3,0.1-0.399-0.1-0.6-0.1H48.6V40.8l0.101-0.1c0.1-0.101,0.3-0.3,0.399-0.5C49.2,40,49.5,39.6,49.7,39.3    c0.1-0.3,0.2-0.8,0.2-1.1S49.8,37.5,49.7,37.1C49.6,36.9,49.5,36.7,49.5,36.4l0,0c-0.1-0.2-0.1-0.4-0.2-0.5c-0.1-0.4-0.2-0.5-0.2-1    c-0.1-0.4-0.1-0.5,0-0.8c0.101-0.4,0.2-0.5,0.301-0.7c0.1-0.3,0.199-0.3,0.5-0.7c0.3-0.3,0.3-0.4,0.399-0.6    c0.2-0.2,0.3-0.3,0.4-0.7c0.1-0.3,0.1-0.4,0.1-0.7c0-0.3,0.101-0.3,0.2-0.6c0.1-0.3,0.3-0.5,0.4-0.7c0.199-0.3,0.1-0.2,0.199-0.2    c0.101,0,0,0.2,0,0.4c0,0.2,0,0.4-0.1,0.8c0,0.4,0,0.3,0,0.4c0,0.1,0.1,0.1,0.1,0.1s0.101,0,0.101-0.1c0-0.1,0.3-0.4,0.399-0.6    c0.101-0.2,0.301-0.3,0.4-0.4c0.1-0.1,0.1,0,0.1,0S52.5,29.9,52.4,30c-0.101,0.1-0.2,0.4-0.2,0.5c0,0.2,0,0.6,0,0.8    c0,0.2,0,0.2,0,0.2l0.1-0.1c0,0,0.2-0.2,0.3-0.3c0.101-0.1,0.2-0.2,0.4-0.2c0.1-0.1,0.2,0.1,0.1,0.2c0,0.1-0.1,0.2-0.3,0.4    s-0.3,0.4-0.5,0.6c-0.2,0.2-0.5,0.4-0.8,0.6c-0.3,0.2-0.5,0.7-0.7,0.9c-0.1,0.2-0.2,0.8-0.2,1c0,0.2,0,0.5,0,0.6c0,0.2,0,0.3,0,0.3    H50.7c0,0,0-0.1,0.1-0.2c0-0.1,0.3-0.3,0.5-0.6c0.2-0.3,0.4-0.3,0.601-0.4c0.199-0.1,0.3-0.1,0.399-0.1c0.101,0,0.2,0,0.2,0    s-0.1,0.2-0.2,0.3c-0.1,0.1-0.2,0.2-0.399,0.3C51.6,34.8,51.5,34.9,51.3,35.1z"/><path fill="#E22428" d="M29.8,24.7c0.2,0.5,0.8,1.4,0.8,1.4s-0.3-0.2-0.5-0.2c-0.2-0.1-0.2,0-0.2,0.1c-0.1,0.2,0,0.2,0.1,0.6    c0.1,0.3,0.7,1.5,0.7,1.5s-0.2,0-0.4,0.1c-0.2,0-0.1,0.1,0,0.4c0.1,0.3,0.4,0.8,0.4,0.9c0,0,0,0-0.1-0.1c-0.1,0-0.2,0.1-0.2,0.1    s0,0.4,0.2,0.8c0.1,0.4,0.6,1,0.6,1s-0.1,0-0.3,0.1c-0.1,0.2-0.1,0,0,0.6c0.1,0.4,0.3,0.7,0.5,0.9c-0.1-0.1-0.2-0.1-0.3-0.2    c-0.3-0.1-0.4-0.3-0.7-0.2C30,32.6,30,32.7,29.7,33c-0.2,0.3-1,1.4-1.3,1.7c-0.3,0.3-1.2,1.5-1.2,1.5s0,0-0.1,0.1l0,0    C27,36.4,27,36.6,27,36.7c0.1,0.2,0.2,0.5,0.2,0.5s-0.1,0.2-0.2,0.3c-0.1,0.2-0.1,0.4,0,0.6c0.1,0.2,0.1,0.601,0.3,0.801    c0.1,0.199,0.2,0.3,0.4,0.399c0.2,0,0.5,0.101,0.6,0.101L28.2,39.6C28.1,39.8,28,40.4,27.9,40.7s0.1,0.5,0.2,0.7l0.2,0.3    c0,0-0.1,0.3-0.3,0.5c-0.1,0.2,0,0.3,0,0.6s0.3,0.7,0.6,1c0.2,0.3,0.2,0.3,0.3,0.3s0.3-0.199,0.5-0.399c0.2-0.3,0.5-1.101,0.6-1.3    c0.1-0.2-0.2-0.5-0.3-0.601c-0.1-0.2,0-0.399,0-0.399s0.2-0.4,0.2-0.601s-0.1-0.5-0.2-0.8c-0.1-0.3,0-0.4,0.1-0.6    c0.1-0.2,0.3-0.601,0.4-0.9c0.1-0.2,0.2-0.6,0.3-0.7c0.1,0,0.3,0.2,0.6,0.3c0.2,0.2,0.4,0.601,0.7,1.101c0.2,0.5,0.8,1.7,0.8,1.7    s0.1,0,0.3,0.1c0.2,0,0.8,0.3,1.2,0.6c0.4,0.2,1.2,1.101,1.6,1.5C36.1,43.5,37.1,44.4,37.6,44.6C38,44.7,38.7,44.7,39.2,44.7    c0,0.1,0.1,0.1,0.1,0.2c0.101,0.1,0.101,0.3,0.2,0.5h0.2H40c-0.1-0.2-0.2-0.4-0.1-0.5c0-0.101,0-0.2,0-0.2c0.399,0,0.8,0,1.199,0    C41.9,44.7,42.7,45.1,42.7,45.1s-0.3-0.3-0.7-0.5c-0.3-0.199-0.5-0.199-1.1-0.3c-0.601-0.2-1.101-0.1-1.7-0.1    c-0.601,0-0.9,0-1.3-0.2c-0.5-0.1-0.601-0.2-1-0.5c-0.4-0.3-0.601-0.6-1-1.1c-0.4-0.5-1-0.801-1.3-1.101c-0.3-0.3-1-0.7-1.3-0.8    c-0.3-0.1-0.3,0-0.5-0.1C32.7,40.3,32.6,40.1,32.4,39.6C32.2,39.2,31.8,38.4,31.6,38c-0.2-0.4-0.6-0.9-0.8-1    c-0.2-0.2-0.3-0.1-0.5,0c-0.2,0.2-0.2,0.4-0.3,0.7s-0.3,1-0.5,1.399c-0.2,0.4-0.1,0.7,0,0.801c0.1,0.199,0.2,0.399,0.2,0.6    s-0.1,0.3-0.3,0.5c-0.2,0.2-0.1,0.4,0.1,0.7c0.1,0.2,0.2,0.3,0.2,0.5s-0.2,0.399-0.3,0.7c-0.2,0.3-0.2,0.3-0.3,0.199    c-0.1,0-0.2-0.3-0.3-0.6c-0.2-0.3-0.1-0.6,0-0.8c0.1-0.3,0.1-0.3,0.1-0.5s-0.3-0.4-0.3-0.7s0.1-0.5,0.3-0.9    c0.2-0.3,0.3-0.8,0.4-1.1c0.2-0.3,0.3-0.9,0.3-1.2c0.1-0.3,0.1-0.5,0.1-0.7c0-0.3,0.1-0.3,0.3-0.5c0,0,0.1,0,0.1-0.1l0,0    c0.2-0.1,0.3-0.1,0.5,0l0,0l0,0c0.2,0.2,0.6,0.4,1.1,0.7s0.8,0.6,1.3,1c0.5,0.399,0.7,0.5,1,0.7c0.3,0.199,0.3,0,0.1-0.2    c-0.2-0.2-1.6-1.5-1.9-1.7c0,0,0-0.3,0-0.5l0,0c0-0.1,0-0.3,0-0.4c0-0.3,0.3-0.899,0.5-1.3c0.2-0.3,0.4-0.8,0.6-1.2    c0.2-0.4,0.5-0.8,0.7-1.2s0.2-0.4,0.5-1c0.2-0.5,0.2-0.9,0.3-1.2c0-0.3-0.1-0.5-0.1-0.5s0,0.1-0.1,0.3s-0.2,0.7-0.3,1    c-0.1,0.4-0.4,0.9-0.6,1.1c-0.1,0.2-0.3,0.4-0.5,0.8c-0.2,0.3-0.2,0.4-0.4,0.7c-0.2-0.1-0.6-0.2-0.9-0.3c-0.1-0.1-0.3-0.2-0.4-0.3    s-0.4-0.8-0.5-1s-0.2-0.4-0.1-0.5c0.1,0,0.3,0.1,0.6,0.5c0.3,0.3,0.3,0.2,0.3,0.2s-0.2-0.5-0.4-0.7c-0.1-0.2-0.6-1.2-0.8-1.5    c-0.2-0.3-0.1-0.5-0.1-0.5s0.3,0.2,0.5,0.5c0.2,0.2,0.3,0.2,0.3,0.2S31,29.2,30.8,29c-0.1-0.2-0.3-0.5-0.2-0.6s0.4,0.2,0.7,0.6    c0.3,0.4,0.3,0.2,0.3,0.2S31,28,30.8,27.7c-0.2-0.3-0.4-1-0.6-1.3c-0.1-0.3-0.1-0.2,0.1-0.2c0.2,0,0.3,0.2,0.7,0.6    c0.4,0.4,0.4,0.3,0.6,0.6c0.2,0.2,0.2,0,0.2,0s-0.3-0.5-0.6-0.9c-0.3-0.3-1.4-2.5-1.6-2.8c-0.2-0.3-0.1-0.4,0.1-0.3    c0.3,0.2,0.6,0.4,0.8,0.7c0.2,0.3,0.9,1.1,1.1,1.4c0.2,0.3,0.2,0.2,0.2,0.2s-1.1-1.9-1.4-2.2c-0.1-0.1-0.3-0.4-0.5-0.7    c-0.5-0.8-1.1-1.9-1.3-2.1c-0.2-0.3-0.2-0.3-0.1-0.4c0.1-0.2,0.2-0.1,0.5,0.2s0.8,0.8,1.2,1.3c0.1,0.1,0.2,0.2,0.3,0.3    c0.4,0.6,1,1.3,1.1,1.5c0.1,0.2,0.2,0,0.2,0s-0.9-1.1-1.2-1.6l0,0c-0.3-0.5-1.3-1.7-1.6-2.1c-0.3-0.5-1.1-1.6-1.2-1.8    c-0.1-0.2-0.1-0.2,0-0.3c0.1,0,0.2,0,0.7,0.3c0.4,0.3,0.8,0.7,1.1,1.1c0.3,0.4,1.2,1.5,1.5,1.7c0.1,0.1,0.1,0.2,0.2,0.3    c0.2,0.3,0.5,0.8,0.6,0.9s-0.1-0.2-0.4-0.7c0-0.1-0.1-0.1-0.2-0.2c-0.5-0.6-1.5-1.9-2-2.5c-0.5-0.7-0.8-1-1.2-1.4    c-0.4-0.5-0.9-1-1.1-1.2c-0.1-0.1-0.1-0.2-0.1-0.2s0,0,0.1,0c0.2,0,0.4,0.1,1,0.4c0.6,0.3,1.4,1.1,1.7,1.5c0.4,0.4,1.6,2,1.7,2.3    c0.1,0.3,0.2,0.2,0.2,0c-0.1-0.2-2.4-3.4-3-4.1s-1.7-2-2-2.4c-0.3-0.4-0.3-0.2-0.3-0.4c0-0.2,0.1-0.1,0.6,0.1H27    c0.3,0.1,0.8,0.5,1.3,0.9c0.4,0.3,0.9,0.7,1.3,1.2c0.9,0.8,2.3,2.8,3.1,4.2c0.1,0.2,0.2,0.3,0.3,0.4c0.7,1.2,1.9,4.3,2.2,4.9    c-0.4,0-0.7,0-0.8,0c0-0.1-0.1-0.2-0.2-0.2c-0.1-0.2-0.2-0.2-0.3-0.3c-0.1-0.2-0.1-0.2-0.1-0.3s-0.1,0-0.2,0.1    c-0.1,0.1-0.1,0.2-0.2,0.3c-0.1,0.2,0,0.4,0,0.8c0,0,0,0,0,0.1l0,0c0,0-0.1,0-0.2-0.1c-0.1-0.1-0.2-0.2-0.3-0.4    c-0.2-0.2-0.3-0.2-0.5-0.3c-0.2-0.1-0.2,0-0.2,0s0,0.1,0.1,0.3c0,0.2,0.2,0.3,0.3,0.5c0.1,0.2,0.4,0.3,0.4,0.3s0,0.1-0.1,0.2    s-0.3,0.2-0.5,0.3c-0.2,0.1-0.2,0.3-0.3,0.6c-0.1,0.3-0.2,0.7-0.2,1c0,0.3,0.2,0.5,0.3,0.8c0.1,0.2,0,0.3,0,0.7    c0,0.4-0.1,0.9-0.2,1c-0.1,0.1-0.2,0.3-0.3,0.4c-0.1,0.1,0,0.2,0,0.4c0.1,0.2,0.2,0.3,0.4,0.5c0.2,0.2,0.5,0.2,0.5,0.2s0-0.1,0-0.2    c-0.1,0-0.2-0.2-0.3-0.2c-0.1-0.1-0.2-0.2-0.3-0.3s-0.1-0.1,0-0.2s0.3-0.3,0.3-0.5c0.1-0.2,0.1-0.6,0.2-0.8c0-0.3,0-0.6,0-1    c0-0.3-0.1-0.4-0.2-0.7c-0.1-0.3,0-0.4,0.1-0.7c0.1-0.2,0.2-0.4,0.3-0.5c0.1-0.2,0.2-0.2,0.3-0.2c0.2-0.1,0.2-0.1,0.2-0.2    c0-0.1,0.1-0.2,0.1-0.4c0.1-0.2,0.1-0.2,0.2-0.3c0,0,0.1,0,0.1-0.1c0.1,0.2,0.3,0.4,0.3,0.4s0.1-0.2,0.1-0.3s0-0.2-0.1-0.3    c-0.1-0.1,0-0.2,0-0.3v-0.3c0,0,0.1,0.1,0.2,0.2s0.2,0.3,0.3,0.5c0.1,0.2,0,0.5,0,0.5c0,0.1,0.1,0.1,0.1,0.1s0.1-0.1,0.1-0.2    c0-0.1,0-0.4,0-0.5c0.1,0,0.2,0,0.3,0c0.2,0,0.7,0.1,1.1,0.3c0.4,0.1,0.9,0.6,1.3,0.9c0.4,0.4,0.7,0.9,1,1.4s0.5,1.4,0.7,2    c0.1,0.7,0.2,1.6,0.1,2c0,0.5-0.199,1.3-0.3,1.5c0,0.1-0.1,0.1-0.1,0.2c0-0.2,0-0.4,0-0.6c0-0.4-0.101-1.2-0.101-1.9    c0-0.7-0.1-1.6-0.3-2.2c-0.1-0.6-0.399-0.9-0.5-1.2c-0.1-0.3-0.8-1-1-1.2s-0.7-0.5-1-0.7c-0.3-0.2-0.6-0.2-0.7-0.2    c-0.2,0-0.1,0.1-0.1,0.1s0.2,0.1,0.6,0.3c0.4,0.2,1,0.7,1.301,1c0.3,0.3,0.8,1.1,1,1.7c0.199,0.6,0.3,1.4,0.3,2c0,0.6,0,2.2,0,3    c0,0.8,0.2,0.9,0.3,1.5c0.1,0.399,0.3,0.8,0.5,1c-0.2,0.1-0.5,0.3-0.8,0.5l0,0c-0.5,0.3-1,0.5-1,0.5s1-0.101,1.5-0.3    c0.1,0,0.2-0.101,0.3-0.2l0,0c0.5-0.3,1.1-0.9,1.4-1.3c0.399-0.5,0.699-1.9,0.6-3c0-1-0.3-3-0.5-3.9c-0.2-1-0.1-2.4,0-3.3    c0.1-1,0.6-2.8,1-3.6c0.5-0.8,1.8-2.4,2.6-3.2c0.801-0.8,1.2-1.1,2.2-2s3.4-2.3,4.3-2.7c0.801-0.5,2.4-1.1,3.101-1.3    c0.7-0.2,3.5-0.9,4-1c0.399-0.1-0.2,0.5-0.601,0.7c-0.3,0.2-2,1.6-2.899,2.2c-0.9,0.6-4.5,3.2-5.101,3.8C48.7,18.5,48.2,19,48.2,19    l0.8-0.6c0.4-0.3,1.3-0.9,1.8-1.3s3-1.9,3.3-2.2c0.301-0.2,1.601-0.6,1.9-0.7c0.3-0.1,0.2,0.3,0,0.6c-0.2,0.3-2.2,2.1-2.7,2.5    c-0.5,0.4-2.7,1.8-3.1,2.1c-0.4,0.2-2.3,1.3-2.8,1.8c-0.301,0.3-0.101,0.3,0.1,0.2c0.1-0.1,1.8-1.1,2.3-1.5c0.4-0.3,2.8-1.7,3.4-2    c0.6-0.3,1-0.5,1.399-0.5c0.4-0.1,0.4,0.2,0.301,0.4C54.8,18,53.8,18.9,53.1,19.4c-0.8,0.4-1.5,0.8-2.5,1.3    c-0.5,0.3-3.199,1.8-3.8,2.1c-0.5,0.3-0.399,0.2-0.3,0.3c0.1,0.2,0.3-0.1,0.7-0.3c0.399-0.2,0.8-0.3,1.7-0.9    c0.899-0.6,3.1-1.5,3.399-1.6c0.3-0.1,0.5,0.2,0.4,0.4c-0.101,0.2-0.7,0.7-1.2,0.9c-0.5,0.3-1.9,1-2.5,1.3c-0.6,0.3-2.8,1.8-3.2,2    c-0.3,0.2-0.2,0.3,0,0.3c0.101,0,0.7-0.5,1.101-0.7c0.399-0.3,2.3-1.4,2.6-1.5c0.3-0.2,0.3-0.2,0.8-0.2s-0.1,0.7-0.399,1    c-0.301,0.3-1,0.9-1.7,1.3c-0.8,0.5-2.4,1.7-2.8,2c-0.4,0.3-0.7,0.4-0.801,0.5c-0.1,0.2,0,0.2,0.2,0.1c0.2-0.1,0.8-0.5,1.101-0.7    c0.3-0.2,1.199-0.8,1.699-1.1c0.5-0.3,0.801-0.3,1-0.4c0.2,0,0.2,0,0.2,0.2c0,0.2-0.2,0.3-0.8,0.8s-0.8,0.7-1.4,1    c-0.5,0.3-1,0.9-1.6,1.3c-0.6,0.5-0.8,0.8-0.7,0.9c0,0.2,0.4-0.3,0.601-0.5c0.199-0.2,1-0.9,1.399-1.1c0.4-0.2,0.7-0.5,1-0.5    c0.4,0,0,0.5-0.3,0.8c-0.3,0.3-0.9,0.7-1.3,1.1c-0.4,0.3-1.601,1.2-1.8,1.5c-0.2,0.2-0.301,0.3-0.301,0.5s0.2-0.1,0.4-0.3    c0.2-0.2,0.7-0.6,1-0.8c0.3-0.2,1-0.7,1.5-0.8c0.5-0.2,0.3,0.4,0.1,0.7c-0.3,0.3-0.5,0.5-1.3,0.9c-0.8,0.4-1,0.7-1.399,0.9    c-0.4,0.3-0.7,0.6-0.7,0.6s0.1,0,0.399-0.2c0.301-0.2,1.301-0.7,1.9-0.9c0.6-0.2,0.1,0.3-0.1,0.5c-0.301,0.2-0.7,0.3-1.301,0.5    c-0.6,0.2-0.8,0.5-1.1,0.7c-0.3,0.2-0.3,0.3-0.1,0.3c0.1,0,0.1,0,0.6-0.3c0.5-0.3,0.9-0.5,1.4-0.7c0.5-0.2,0,0.4-0.301,0.6    c-0.3,0.2-1.399,0.8-1.899,1c-0.4,0.2-0.101,0.2,0.1,0.1c0.2-0.1,0.601-0.2,1.2-0.5c0.6-0.2-0.2,0.4-0.5,0.5    c-0.3,0.2-1.2,0.7-1.6,0.8c-0.301,0.2,0,0.2,0.199,0.2c0.2-0.1,0.4-0.2,1.101-0.5c0.7-0.3,0.5,0.1,0.2,0.3    c-0.301,0.2-1.2,0.5-1.7,0.7C41.1,36,41,36.1,40.8,36.2c-0.2,0.1-0.2,0.3,0,0.3c0.2-0.1,0.601-0.3,1.4-0.5s0.1,0.4-0.2,0.5    c-0.2,0.1-0.5,0.2-0.9,0.4H42h0.6c0.2-0.101,0.4-0.2,0.601-0.4c0.399-0.3,0.2-0.8,0.2-0.8c0.5-0.2,0.899-0.6,1-0.8    c0.199-0.2,0-0.5,0-0.5s-0.101,0,0.3-0.3c0.399-0.3,0.2-0.6,0.2-0.6s0.1-0.1,0.5-0.4c0.399-0.3,0.3-0.7,0.3-0.7s0.3-0.3,0.7-0.7    c0.3-0.4,0-0.7,0-0.7s0.199-0.2,0.5-0.5c0.3-0.3,0.6-0.9,0.699-1.1c0.101-0.2-0.399-0.5-0.399-0.5L48,28c0.4-0.5,0.2-0.9,0.2-0.9    s1-1,1.399-1.4c0.4-0.4-0.1-0.9-0.1-0.9s1-1,1.5-1.5s0.3-1,0.3-1s0.3-0.2,0.9-0.6c0.6-0.3,0.899-0.8,1.2-1.2    c0.3-0.3-0.101-0.7-0.101-0.7s0.101-0.1,0.4-0.3s1.2-0.9,1.7-1.5s0.3-0.8,0.199-1C55.4,16.8,54.9,16.9,54.9,16.9s0.199-0.3,0.6-0.6    c0.4-0.3,1-1.1,1.4-1.6c0.399-0.6,0.199-0.8-0.101-1c-0.3-0.2-0.8,0.1-0.8,0.1s0.6-0.5,0.9-0.8c0.3-0.3,1.1-1,1.5-1.6    c0.1-0.2,0.1-0.3,0.1-0.4c-0.1-0.2-0.6-0.1-1.3,0H57.1c-1,0.1-2.8,0.7-3.899,1.1c-1.2,0.4-3.4,1.6-4.4,2.1c-1,0.6-2.899,2-4.1,3    c-1.101,1-2.7,3-3.5,4.4c-0.5,0.9-0.9,2.8-0.9,3.6c-0.1,0.8-0.2,1,0.2,2.9c0.4,2,0.5,4.5,0.4,5.6C40.8,34.6,40.1,35.5,39.6,36    c-0.1-0.1-0.1-0.2-0.199-0.3c-0.101-0.2-0.2-0.5-0.2-0.8c0,0,0-0.1,0-0.2c0,0,0-0.1,0.1-0.2c0-0.2,0.2-0.4,0.4-1.1    c0.2-0.7,0.2-1.9,0.2-2.5s-0.5-2.3-0.7-2.9c-0.2-0.5-0.8-1.2-1-1.5c-0.3-0.5-1.3-1.2-2-1.4C36.1,25.1,36,25,35.8,25    c0-0.1-0.1-0.3-0.1-0.6c-0.101-0.4-0.5-1.5-0.8-2.2c-0.2-0.6-1-2.1-1.5-2.9c-0.1-0.2-0.2-0.3-0.3-0.4c-0.3-0.5-1.4-2-1.7-2.4    c-0.3-0.4-1.7-1.8-2.3-2.3s-1.9-1.2-2.5-1.4c-0.6-0.2-0.5,0-0.6,0.2s0,0.4,0.2,0.7c0.2,0.3,0.5,0.6,0.9,1c0.3,0.4,1.2,1.5,1.2,1.5    S28,16,27.7,15.9c-0.2-0.1-0.6-0.2-0.8-0.2c-0.2,0-0.2,0.1-0.2,0.2c0,0.2,0,0.2,0.2,0.5c0.1,0.3,1,1,1,1s-0.1,0-0.3,0    c-0.1,0-0.3,0-0.3,0.2c-0.1,0.2,0,0.3,0.1,0.6c0.2,0.3,1.1,1.7,1.1,1.7h-0.1c0,0-0.3-0.1-0.4,0.1s0.1,0.5,0.4,1.1    c0.3,0.6,1.3,2,1.3,2.1l0,0l0,0c0,0-0.3,0-0.5,0c-0.2,0-0.3,0.2-0.3,0.2s0.1,0.2,0.2,0.5l0,0C29.3,24,29.5,24.2,29.8,24.7z     M33.3,25.3l-0.1-0.1l-0.3-0.3c0,0-0.1,0-0.1-0.1c0-0.1,0-0.2,0-0.2s0.1,0,0.2,0.1l0.3,0.3l0.1,0.1L33.3,25.3z M31.9,36.4    c0,0.1,0,0.199,0,0.3c-0.1-0.101-0.3-0.2-0.4-0.3C31.3,36.3,31.1,36.1,30.9,36c-0.4-0.2-0.6-0.1-0.8,0c-0.2,0.1-0.4,0.2-0.6,0.4    l0,0c0,0,0,0-0.1,0.1c-0.2,0.2,0,0.4,0,0.6c0,0.2,0,0.5-0.1,0.7L29.2,37.9L29.1,37.8c-0.2-0.2-0.4-0.2-0.3-0.399    c0-0.2,0.2-0.2,0.2-0.4s-0.1-0.3,0-0.5l0.1-0.1l0,0c0.1-0.101,0.2-0.301,0.5-0.601c0.4-0.4,0.7-0.7,0.8-0.8s0.1-0.2,0.4,0    c0.3,0.2,0.5,0.6,0.7,0.9C31.7,36,31.8,36.2,31.9,36.4L31.9,36.4L31.9,36.4z M32.5,33.9c0.1,0,0.2,0.1,0.2,0.1v0.1    c-0.3,0.5-0.5,0.9-0.6,1.4c0,0.1-0.1,0.2-0.1,0.4c-0.3-0.4-0.7-1-0.8-1.2c-0.2-0.2-0.5-0.5-0.7-0.2c-0.3,0.2-0.7,0.7-0.9,1    c-0.3,0.3-0.7,0.8-0.7,0.8s-0.1,0-0.1,0.101l0,0c0,0.1,0,0.199,0.1,0.3c0.2,0.3-0.1,0.3-0.1,0.3s-0.2,0.2-0.2,0.4    c0,0.199,0,0.399,0.3,0.6c0.2,0.2,0.3,0.2,0.2,0.5c-0.1,0.1-0.1,0.3-0.2,0.4L28.7,39c-0.1,0-0.6,0.1-0.8,0h-0.1    c0,0-0.1-0.1-0.2-0.3c-0.2-0.4-0.3-0.5-0.3-0.7s0.2-0.3,0.2-0.5s-0.1-0.5-0.2-0.6c0-0.101-0.1,0-0.1,0s0-0.101,0.2-0.301    c0,0,0,0,0-0.1l0,0c0.3-0.4,0.7-1.1,1.1-1.5s0.9-1.1,1-1.4c0.1-0.2,0.2-0.5,0.4-0.6c0.2-0.1,0.2-0.2,0.4-0.1    c0.2,0.1,0.6,0.5,0.9,0.6C31.8,33.6,32.3,33.9,32.5,33.9z"/><path fill="#E22428" d="M33.5,27.7c0.1,0,0.2,0,0.2,0S33.6,27.7,33.5,27.7s-0.2,0.2-0.2,0.2s0,0,0,0.1c-0.1,0-0.1,0.1-0.1,0.1    s0,0.1,0.2,0.1c0.1,0,0.1,0,0.2-0.1s0.2-0.1,0.2-0.2c0.1,0,0.1-0.1,0.1-0.1l0,0l0,0c0.1,0,0.1-0.1,0.1-0.1s-0.1,0-0.2,0    c0,0,0-0.1-0.1-0.1l0,0c0.1,0,0.1,0,0.2,0s0-0.1,0-0.1c-0.1,0-0.1-0.1-0.2-0.1c-0.1,0-0.1,0-0.2,0.1c-0.1,0-0.1,0.1-0.2,0.2l0,0    c0,0-0.1,0.1-0.1,0.2s0,0.2,0,0.2l0.1-0.1C33.3,27.9,33.4,27.8,33.5,27.7z"/><path fill="#E22428" d="M33.2,31.3c0,0,0-0.1,0-0.2h0.1c0,0,0,0,0-0.1c0,0,0.1-0.1,0.2-0.1s0.1-0.1,0.1-0.1s0,0-0.1-0.1    c0.1,0,0.1-0.1,0.1-0.1s-0.1-0.2-0.2-0.2s-0.3,0-0.3,0.1S33,30.6,33,30.6c0,0.3-0.1,0.4,0,0.5c0,0.1,0,0.2,0.1,0.2H33.2z"/><path fill="#E22428" d="M35.7,27.9c-0.101,0-0.101,0.1-0.2,0.2c-0.1,0.2-0.2,0.3-0.3,0.4c-0.1,0.1-0.2,0.1-0.3,0.2    c-0.2,0-0.3,0-0.4,0.1c-0.1,0-0.1,0.1-0.1,0.2c-0.1,0.1-0.1,0.3-0.1,0.3s0.1,0,0.2,0h0.1l-0.1,0.1c-0.1,0-0.1,0.1-0.1,0.2    c-0.1,0.1-0.1,0.3-0.1,0.5c-0.1,0.3-0.1,0.8-0.1,1l0,0c-0.1,0.1-0.1,0.1-0.2,0.2c-0.1,0.1-0.2,0.1-0.5,0.1H33c0,0,0,0.1,0.1,0.1H33    c0,0,0,0.1,0.1,0.2c0.1,0,0.3,0.1,0.6,0.1c0.3,0,0.3-0.1,0.5-0.2c0.1-0.1,0.1-0.1,0.1-0.2c0.1-0.1,0.1-0.2,0.1-0.3    c0-0.2,0-0.4,0-0.5s0-0.5,0-0.7c0.1-0.1,0.1-0.2,0.2-0.2c0.2-0.1,0.2-0.2,0.2-0.2v-0.1l0,0c0.1-0.1,0-0.2,0-0.2s-0.2,0-0.4,0    c0.1-0.1,0.2,0,0.4,0c0.2,0,0.2-0.1,0.3-0.2s0.2-0.4,0.3-0.6c0.1-0.2,0.2-0.2,0.3-0.2c0.1,0,0-0.1,0-0.1l0,0c0.1,0,0-0.1,0-0.1    S35.8,27.8,35.7,27.9z"/></g></svg>