<svg xmlns="http://www.w3.org/2000/svg" id="Layer_1" width="70" height="70" x="0" y="0" enable-background="new 0 0 70 70" version="1.1" viewBox="0 0 70 70" xml:space="preserve"><metadata/><rect width="70" height="70" fill="none"/><path fill="#231F20" d="M1.1,25.3c0-0.3,0.1-1.2,1.2-1.2c0.1,0,0.4,0,0.6,0.1c0.6,0.3,0.6,0.8,0.6,1.6C4.7,24.6,6,24,7.8,24 c3.4,0,6,2.6,6,7.2c0,3.3-1.5,7.2-5.7,7.2c-2.2,0-3.3-0.9-4.4-1.9v5.6c0,0.4-0.1,1.2-1.3,1.2c-0.2,0-0.4-0.1-0.6-0.1 c-0.5-0.3-0.6-0.7-0.6-1.101L1.1,25.3 M7.5,26c-2.5,0-3.9,1.9-3.9,5s1.3,5.4,3.9,5.4c1.4,0,2.3-0.7,2.8-1.4c0.7-1,0.9-2.5,0.9-3.8 C11.2,29.8,11.1,26,7.5,26z"/><path fill="#231F20" d="M26.5,36.4c-1.6,1.8-3.6,2-4.9,2c-1.4,0-3.3-0.2-4.9-1.9C15,34.7,15,32.2,15,31.2c0-1.3,0.1-3.5,1.7-5.3 c1.7-1.8,3.9-2,5-2c3.9,0,6.6,2.5,6.6,7.1C28.3,32.3,28.2,34.6,26.5,36.4 M24.7,35c0.9-1.2,1-2.9,1-3.7c0-2.6-0.9-5.2-4.1-5.2 c-0.7,0-2.1,0.1-3.2,1.5c-0.7,1-0.9,2.4-0.9,3.7c0,1.4,0.2,2.8,1,3.8c0.5,0.7,1.6,1.4,3.1,1.4C22.8,36.4,24,35.9,24.7,35z"/><path fill="#231F20" d="M32.2,26.6c0.5-1.5,2-2.5,3.6-2.5c0.3,0,1.5,0,1.5,1.2c0,0.9-0.7,1.1-1.1,1.2c-0.7,0.1-1.4,0.2-2.1,0.7 c-1.8,1.2-1.8,3.1-1.8,4.7v5.3c0,0.399-0.1,1.1-1.2,1.1s-1.2-0.7-1.2-1.1v-12c0-0.3,0.1-1.1,1.2-1.1c1,0,1.1,0.8,1.1,1.1V26.6"/><path fill="#231F20" d="M40.8,26.3H39.4c-0.301,0-1-0.1-1-1c0-1,0.699-1,1-1h1.5v-3.1c0-0.3,0.1-1.1,1.199-1.1 c1.2,0,1.2,0.8,1.2,1.1v3.1H45c0.3,0,1,0.1,1,1c0,0.9-0.7,1-1,1h-1.7v6.8c0,1.6,0,1.8,0.101,2.1C43.6,36,44.1,36.1,44.8,36.2 c0.601,0,1.3,0.1,1.3,1c0,0.899-0.899,1-1.6,1c-3.7,0-3.7-2-3.7-4.1V26.3"/><path fill="#231F20" d="M49.2,31.9c0,1.2,0.3,2.3,1,3.2c0.899,1.1,2,1.3,3.1,1.3c2.101,0,2.9-1.101,3.3-1.8c0.4-0.7,0.601-1,1.2-1 c0.601,0,1.4,0.3,1.4,1.1c0,0.1,0,0.2,0,0.3c-0.101,0.5-0.601,1.1-0.9,1.4c-1.8,2.1-4.3,2.1-5,2.1c-1.7,0-3.5-0.3-4.899-1.9 C47.2,35.2,46.6,33.3,46.6,31.4c0-3.4,1.801-7.3,6.601-7.3c0.6,0,1.2,0.1,1.7,0.2c1.199,0.3,2.3,0.9,3.1,2c0.9,1.2,1.3,3,1.3,4.5 c0,1.1-0.899,1.2-1.2,1.2L49.2,31.9 M56.9,29.9C56.8,28.1,55.8,26.2,53.3,26.2c-0.6,0-1.7,0.1-2.6,0.9c-1.101,0.9-1.3,2.2-1.5,2.8 H56.9L56.9,29.9z"/><path fill="#231F20" d="M63.5,26.6c0.5-1.5,2-2.5,3.6-2.5c0.301,0,1.5,0,1.5,1.2c0,0.9-0.699,1.1-1.1,1.2c-0.7,0.1-1.4,0.2-2.1,0.7 C63.6,28.4,63.6,30.3,63.6,31.9v5.3c0,0.399-0.1,1.1-1.199,1.1c-1.101,0-1.2-0.7-1.2-1.1v-12c0-0.3,0.1-1.1,1.2-1.1 c1,0,1.1,0.8,1.1,1.1V26.6"/></svg>