<svg xmlns="http://www.w3.org/2000/svg" version="1.1" id="Layer_1" x="0px" y="0px" width="70px" height="70px" viewBox="0 0 70 70" enable-background="new 0 0 70 70" xml:space="preserve"><metadata/><rect width="70" fill="none" height="70"/><path id="path3237" fill="#DD1F30" d="M49,35.7c0.1,0.2,0,0.3,0,0.5c0,0.3,0,0.5,0,0.8c-0.1,1.3-0.1,2.5-0.1,3.8   c0,1.2-0.101,2-0.101,2.8c0,0.2,0,1.301,0,1.5c0,0.7-0.1,1.301-0.2,1.9c-0.3,2-1.199,3.8-2.8,5.2c-0.5,0.5-1.1,0.899-1.7,1.2   C43.9,53.5,43.7,53.6,43.5,53.7c0,0,0,0-0.1,0H43.3C43,53.5,42.7,53.3,42.4,53.1C41.7,52.7,41,52.4,40.2,52.3   c-0.4-0.1-0.8-0.1-1.2-0.1c-2.5,0.3-5,2.2-6.2,4.5c-0.3,0.7-0.6,1.3-0.8,2.1c-0.1,0.5-0.1,1.2,0,1.8c0.2,2.101,1,3.9,2.5,5.4   c0.8,0.8,1.6,1.4,2.5,2c0.3,0.2,0.7,0.4,1,0.6c0,0,0.1,0,0.1,0.101l0,0l0,0c-1.3,0-2.8-0.8-3.8-1.5c-0.7-0.5-1.4-1-2.1-1.7   c-0.4-0.4-0.7-0.8-0.9-1.2C31,63.8,30.6,63.4,30.4,62.9c-0.7-1.4-1.1-3.2-1-5c0.1-1.101,0.3-2.101,0.7-3c0.2-0.5,0.5-1,0.8-1.5   c1.5-2.4,4-3.9,6.3-5.4c1.399-1,2.899-1.9,4.3-2.9c1.4-0.899,2.8-1.8,3.9-3.1c1.1-1.1,2-2.5,2.6-3.9C48.1,37.6,48.7,36.3,49,35.7"/><path id="path3243" fill="#B39142" d="M48.7,29.4c0.1,0.2,0,0.4,0,0.6v1.3c0,0.8,0,1.8-0.101,2.6c-0.199,1.8-1,3.1-1.899,4.5   c-0.3,0.5-0.601,0.899-1,1.399c-0.3,0.4-0.601,0.8-1,1.2c-0.601,0.6-1.2,1.2-1.9,1.6c-1,0.801-2,1.5-3.1,2.2   c-1.101,0.7-2.2,1.4-3.3,2.2c-2.3,1.5-4.7,3.3-6.3,5.7c-0.5,0.7-0.8,1.399-1.1,2.2c-0.5,1.199-0.7,2.6-0.6,4   c0.1,1.3,0.5,2.5,0.9,3.6c0.3,0.7,0.7,1.4,1.1,2.1c0.5,0.801,1.2,1.5,2,2.101c0.7,0.6,1.5,1.2,2.3,1.7c0.1,0.1,1.1,0.6,1.2,0.6   l-0.7-0.1c-1.5-0.301-2.8-1.101-3.9-2c-2.7-2.2-4.4-5.2-4.6-8.801c-0.1-1.199,0-2.399,0.4-3.5c1.6-4.199,5.6-7.5,9.2-10.199   c1.3-1,2.5-1.9,3.8-2.9c0.801-0.6,1.601-1.2,2.4-1.8c0.2-0.2,0.5-0.5,0.7-0.7c1.3-1.3,2.399-2.7,3.399-4.2   c0.301-0.4,0.5-0.9,0.801-1.3c0.399-0.8,0.699-1.7,0.899-2.6C48.6,30.4,48.7,29.9,48.7,29.4"/><path id="path3249" fill="#28377B" d="M48.4,1C48.6,1,48.9,1,49,1.2c0.2,0.2,0.1,0.9,0.1,1.2C49.1,4,49.2,20.3,49.2,21.3   c0,1.1,0,2.5,0,3.6c0,3.1-1.101,5.8-2.4,8.3c-0.5,0.9-0.899,1.9-1.7,2.7c-0.5,0.6-1,1.199-1.6,1.699c-1.1,1-2.3,2-3.5,2.9   c-1.2,1-2.5,2.1-3.7,3.1c-0.9,0.7-1.7,1.301-2.6,2c-0.5,0.5-1,1-1.6,1.4c-0.5,0.5-1,1.1-1.6,1.6C29,50.2,27.6,52,27,54   c-0.2,0.7-0.4,1.4-0.5,2.2c-0.1,0.7,0,1.399,0,2.1c0.2,3.4,1.8,6.5,4.5,8.5c0.8,0.601,1.7,1.2,2.7,1.601c0.2,0.1,0.5,0.3,0.8,0.3   l0,0c-3.2-0.4-6.1-1.5-8.6-3.4c-0.5-0.3-0.9-0.8-1.3-1.2c-3-3-4.5-7.399-4.1-12c0.2-2.199,0.7-4.199,1.6-6.1   c1.4-3.1,3.8-5.7,6.5-8.1c0.6-0.5,1.2-1,1.7-1.4c1-0.8,2-1.6,3-2.5c0.5-0.4,0.9-0.8,1.4-1.2c1.3-1.3,2.7-2.5,3.899-3.8   c1.5-1.7,2.9-3.4,4.101-5.2c0.7-1.1,1.399-2.2,2.1-3.3c0.5-0.9,1-1.8,1.4-2.7c1.399-3.3,2.399-7.1,2.5-11c0-1.2,0-2.4-0.2-3.5   c-0.1-0.4-0.1-0.8-0.2-1.2C48,2.1,47.9,1.8,48,1.5C48,1.2,48.2,1.1,48.4,1"/></svg>