<svg xmlns="http://www.w3.org/2000/svg" version="1.1" id="Layer_1" x="0px" y="0px" width="70px" height="70px" viewBox="0 0 70 70" enable-background="new 0 0 70 70" xml:space="preserve"><metadata/><rect width="70" fill="none" height="70"/><g id="_x23_01402bff"><path id="path3355" fill="#02422D" d="M45.8,7c2.101-0.5,4.3,0.2,6.4,0c0.5,0.2,0.6,0.8,0.2,1.2c-1.301,1-2.4,2.3-3.801,3.3    C48.4,11.9,48.2,12.2,48.2,12.7c0.1,1.8,0,3.5,0,5.3c0,0.9,0.1,1.8-0.2,2.7c-0.1,0.6-0.5,1.1-0.9,1.5C46.4,23,45.7,23.9,44.8,24.5    c-0.3,0.2-0.7,0.2-1-0.1c0.2-0.9,0.7-1.8,0.7-2.8c-0.1-2.2,0-4.4-0.1-6.5c0-0.7,0.3-1.4,0.8-1.9c0.899-0.9,1.899-1.9,2.8-2.8    c0-0.1-0.1-0.3-0.1-0.4C46.5,9.9,45.1,9.7,43.8,10.1c-0.5,0.2-1,0.6-1.5,0.7c-0.5,0.2-0.8-0.6-0.5-0.9c0.7-0.7,1.5-1.5,2.3-2.1    C44.7,7.6,45.2,7.1,45.8,7z"/><path id="path3357" fill="#02422D" d="M31.3,7.3c0.3-0.3,0.9-0.5,1.2,0c0.1,0.4-0.1,0.8-0.3,1.1c-0.4,0.6-0.6,1.3-0.5,2    c0,1.1,1.4,1.9,2.4,1.5c1.1-0.6,2-1.6,2.9-2.6c0.3-0.4,0.9-0.7,1.4-0.4c1.1,0.4,2,1.3,2.6,2.3c1,1.6,1.6,3.3,1.7,5.2    c0,1.2-0.2,2.3-0.9,3.3s-1.8,1.7-2.5,2.6c-0.2,0.2-0.1,0.5,0,0.8c0.601,0.3,1.101,0.6,1.7,0.7c-0.1,0.1-0.1,0.2-0.2,0.3    c0.101,0,0.2-0.1,0.4-0.2c2.1,0.9,4.3,1.8,6,3.2c1.399,1,2.3,2.7,2.3,4.4c-0.1,1.9-0.6,3.8-1.7,5.5c-1.2,2-3,3.5-5,4.7    c-3.7,2.3-8,3.5-12.3,4.2c-2.1,0.399-4.3,0.5-6.4,0.699c0.5,1.301,1.6,2.2,2.9,2.7c1.6,0.601,3.3,0.8,5.1,0.8    c1.1,0.101,2.3,0,3.4,0c1.4,0,2.8-0.1,4.2-0.199c4.2-0.4,8.399-1.4,12.3-3.2c2.2-1.101,4.4-2.5,5.8-4.601    C58.7,40.7,58.9,38.7,58.2,37.2c-0.601-1.2-1.601-2-2.8-2.6c-1.5-0.7-2.9-1.4-4.4-2.2l0.1-0.2c0-0.1,0.101-0.3,0.101-0.4    c-0.3-0.1-0.5-0.3-0.7-0.6c0.1-0.1,0.2-0.2,0.3-0.4c0-0.3,0-0.5,0-0.8v-0.1c0.7-0.6,1.3-1.3,2-1.9s1.2-1.3,1.8-2    c0.4-0.6,0.301-1.4,0.101-2.1c-0.4-1.4-1.3-2.6-2.2-3.8c-0.3-0.3-0.6-0.8-1.1-0.7c-0.5,0.2-1.101,0.4-1.601,0.1    c0-0.2-0.1-0.3-0.1-0.5c0-0.1,0.1-0.3,0.1-0.4c0.7-0.5,1.3-1.2,2-1.7c0.601-0.6,1.3-1.2,1.9-1.8c0.399-0.4,1.2-0.4,1.6,0    c1.101,1,2.2,2.1,2.9,3.5c0.6,1.2,0.899,2.7,0.399,4c-0.399,1.1-1.3,2-2,3C56.2,26.2,55.9,26.8,55.4,27.4c-0.2,0.3-0.5,0.7-0.301,1    c0.2,0.6,0.9,0.9,1.301,1.3c2,1.7,3.8,3.9,4.3,6.5c0.5,2.2-0.101,4.5-1.3,6.399C57.6,45.4,55.5,48,52.8,49.9    c-2.6,1.8-5.6,3-8.5,4.3c-3.6,1.6-7.5,2.5-11.4,2.6c-1.9,0-3.9-0.2-5.8-0.7c-1.8-0.5-3.7-1.399-4.8-3c-0.8-1.1-1.1-2.6-0.8-4    c0.2-0.899,0.6-1.6,0.9-2.399c-2.2-0.2-4.4-0.3-6.5-0.8c-1.7-0.4-3.4-1.101-4.8-2.101C10.2,43.2,9.3,42.4,8.9,41.4    c-0.5-1.301-0.3-2.601,0-3.9c0.2-0.7,0.4-1.5,0.9-2.1c-0.4-0.3-1-0.2-1.5-0.2C7.1,35,6,34.9,5,34.5c-0.6-0.2-1.2-0.6-1.7-0.9    c-0.6-0.4-1.2-0.8-1.6-1.4c-0.4-0.8-0.4-1.8,0.1-2.6c0.4-0.6,1-1,1.6-1.5c0.9-0.9,1.9-1.7,2.8-2.6c0.7-0.6,1.3-1.4,2.2-1.8    c1-0.5,2.2-0.9,3.3-0.8c1.5,0,3.1,0,4.6,0c0.9,0,1.3-1.2,2.3-1.1c0.1,0.2,0.3,0.4,0.4,0.7c-0.1,0.2-0.1,0.4-0.3,0.5    c-0.8,0.8-1.6,1.6-2.4,2.4c-0.8,0.9-2,1.4-3.2,1.4c-2.3,0-4.6,0-7,0C5.3,27.2,4.8,28.1,5,29c0.2,1,1.3,1.5,2.2,1.5    c8.8,0,17.7,0,26.5,0c0.9-0.1,1.8,0.2,2.7-0.1c0.6-0.1,1-0.7,1.6-0.5c0.1,0.2,0.1,0.4,0.2,0.6c-0.2,0.4-0.601,0.7-0.9,1    c-0.899,0.8-1.7,1.6-2.6,2.5c-0.7,0.8-1.8,1.2-2.9,1.2c-6.8,0-13.7,0-20.5,0C11.1,35.6,10.9,36,11,36.4c0.3,0.5,0.7,1,1.1,1.399    c1.5,1.101,3.3,1.7,5,2.101c3.7,0.8,7.5,0.8,11.2,0.8c3.2,0,6.4,0,9.601-0.5c2-0.3,4-0.7,5.8-1.601c1-0.5,1.899-1.1,2.5-2.1    c0.8-1.3,0.899-3,0.1-4.3C45.4,31,44,30.4,42.8,29.7c-2.6-1.5-5.6-2.2-8.5-3.2c-0.4-0.2-0.6-0.6-0.8-1.1c0.1-0.4,0.3-0.9,0.7-1.1    c0.5-0.4,1.1-0.7,1.5-1.1c1.1-0.9,2.3-1.8,3.1-3c0.601-0.8,0.3-1.8,0-2.6c-0.7-1.4-1.3-2.9-2.399-4c-0.4-0.4-0.9-0.8-1.5-0.9    c-1,0.9-2,1.9-2.9,2.9c-0.3,0.2-0.6,0.7-1,0.7c-0.5-0.2-0.5-0.8-0.5-1.2c-0.8-0.4-1.8-1-1.9-2c-0.3-1.2,0-2.4,0.7-3.4    C29.9,8.6,30.6,7.9,31.3,7.3z"/></g><g id="_x23_02402bff"><path id="path3366" fill="#02422D" d="M32.2,16c0.3-0.3,0.6-0.1,0.9,0.1c0,0.8-0.7,1.3-0.6,2.1c0,2.3,0,4.7,0,7    c0.1,0.6,0.1,1.2-0.3,1.7c-0.8,0.9-1.7,1.6-2.4,2.5c-0.1,0-0.2,0-0.2,0c-0.3,0-0.6,0.1-0.9,0.2c-0.1-0.1-0.3-0.1-0.4-0.2    c0.2-0.7,0.5-1.4,0.5-2.1c-0.1-1.7,0-3.4-0.1-5c0-0.8-0.1-1.7,0.2-2.5c0.2-0.8,1-1.3,1.5-1.9C31,17.2,31.7,16.7,32.2,16z"/></g><g id="_x23_04402bff"><path id="path3369" fill="#02422D" d="M66.2,24.5c0.2-0.1,0.399,0,0.6,0c0.601,0.6,1.101,1.2,1.7,1.8c0.3,0.3,0.3,0.7,0.1,1    c-0.3,0.4-0.699,0.8-1.1,1.2s-0.7,0.9-1.3,0.8c-0.7-0.6-1.2-1.3-1.9-1.9c-0.399-0.1-0.899-0.2-1.2,0.2c-0.5,0.5-0.899,1-1.399,1.5    c-0.2,0.3-0.7,0.3-1,0c-0.5-0.5-1-1.1-1.5-1.6c-0.101-0.1-0.2-0.2-0.3-0.3c0-0.3,0-0.6,0.199-0.8c0.5-0.6,1.101-1.2,1.7-1.8    c0.5-0.4,1.101,0.2,1.4,0.6c0.5,0.5,1,1.3,1.7,1.6C64.8,26.2,65.3,25.1,66.2,24.5z"/></g><g id="_x23_03402cff"><path id="path3372" fill="#02422D" d="M63.1,29.3C63.4,29,63.9,28.9,64.2,29.2c0.5,0.5,1,1.1,1.6,1.7c0.3,0.3,0.3,0.9,0,1.2    c-0.5,0.6-1.1,1.1-1.6,1.7C64,34,63.7,34,63.5,33.9c-0.4-0.3-0.7-0.7-1.1-1.1c-0.4-0.6-1.2-1-0.801-1.8    C62.1,30.5,62.6,29.9,63.1,29.3z"/></g><g id="_x23_132b22ff"><path id="path3375" fill="#02422D" d="M28.3,29.3c0.1,0.1,0.3,0.1,0.4,0.2c0.3-0.1,0.6-0.2,0.9-0.2l0.1,0.1    c-0.3,0.3-0.7,0.9-1.2,0.7C28.1,30.1,28.2,29.6,28.3,29.3z"/><path id="path3377" fill="#02422D" d="M50.9,32.3c-0.801-0.4-0.9-1.7-0.2-2.2c0,0.3,0,0.5,0,0.8c-0.101,0.1-0.2,0.2-0.3,0.4    c0.199,0.2,0.399,0.4,0.699,0.6c0,0.1-0.1,0.3-0.1,0.4H50.9z"/></g><g id="_x23_c1d4ceff"><path id="path3380" fill="#02422D" d="M9.9,43.2C9.9,43.3,9.9,43.3,9.9,43.2z"/></g><g id="_x23_fdfbfcff"/></svg>