<svg xmlns="http://www.w3.org/2000/svg" version="1.1" id="Layer_1" x="0px" y="0px" width="70px" height="70px" viewBox="0 0 70 70" enable-background="new 0 0 70 70" xml:space="preserve"><rect y="0.159" width="69.841" fill="#6A2B83" height="69.841"/><g><g><g><path fill="#FFFFFF" d="M44.711,57.57v0.728c0,0.281,0.269,0.533,0.555,0.533h1.378v-0.515h-1.14     c-0.107,0-0.234-0.092-0.234-0.239V57.57H44.711z"/><polygon points="42.781,57.371 46.08,57.371 46.08,58.03 46.644,58.03 46.644,56.852 44.71,56.852 44.71,56.399      44.124,56.399 44.124,56.852 42.217,56.852 42.217,58.03 42.781,58.03    " fill="#FFFFFF"/><path fill="#FFFFFF" d="M44.307,57.77l-0.54-0.232c-0.304,0.568-0.778,0.87-1.628,0.986l0.252,0.547     C43.245,58.923,43.933,58.49,44.307,57.77z"/><polygon points="44.71,60.564 44.71,59.722 46.273,59.722 46.273,59.186 42.613,59.186 42.613,59.727      44.124,59.727 44.124,60.564 42.134,60.564 42.134,61.106 46.714,61.106 46.714,60.564    " fill="#FFFFFF"/></g><g><polygon points="40.363,56.983 39.429,56.983 39.429,56.405 38.83,56.405 38.83,56.983 37.996,56.983      37.996,57.503 40.363,57.503    " fill="#FFFFFF"/><path fill="#FFFFFF" d="M40.165,60.571c-0.016,0.034-0.044,0.052-0.088,0.052h-0.05c-0.067,0-0.1-0.03-0.1-0.104v-2.64     l-1.582,0.001v0.9c0,0.932-0.156,1.615-0.438,2.008l0.446,0.398c0.35-0.546,0.509-1.29,0.509-2.232v-0.571l0.516,0.001v2.347     c0,0.244,0.201,0.374,0.322,0.374h0.457c0.164,0,0.413-0.096,0.514-0.495c0.033-0.13,0.055-0.314,0.075-0.422l-0.501-0.135     C40.222,60.272,40.19,60.522,40.165,60.571z"/><path fill="#FFFFFF" d="M37.262,60.083c-0.08-0.344-0.171-0.653-0.264-0.861l-0.405,0.128c0.076,0.204,0.156,0.509,0.229,0.851     L37.262,60.083z"/><path fill="#FFFFFF" d="M37.256,58.268c-0.063-0.298-0.152-0.575-0.251-0.79l-0.411,0.096c0.079,0.191,0.188,0.565,0.232,0.83     L37.256,58.268z"/><path fill="#FFFFFF" d="M37.227,56.41l-0.552-0.071c-0.027,0.169-0.06,0.368-0.099,0.519h-0.552v1.617h-0.34v0.483h0.34v0.029     c0,0.768-0.113,1.387-0.336,1.858l-0.013,0.027l0.47,0.338l0.017-0.039c0.24-0.555,0.36-1.285,0.363-2.214h0.809v1.552     c0,0.086-0.058,0.13-0.147,0.13l-0.438-0.002l0.127,0.518h0.514c0.239,0,0.446-0.199,0.446-0.433v-3.864h-0.719     C37.148,56.726,37.187,56.591,37.227,56.41z M37.333,57.345v1.13h-0.809v-1.13H37.333z"/></g><path fill="#FFFFFF" d="M27.964,57.112v-0.521h-4.837v0.521h1.578c0,0.127,0,0.38,0,0.651H23.36v3.468h0.565v-0.193h3.248v0.193    h0.564v-3.468h-1.328v-0.651H27.964z M23.924,60.518v-2.235h0.781c0,0.456-0.179,1.013-0.715,1.392l0.405,0.399    c0.293-0.272,0.838-0.71,0.838-1.792h0.615v1.005c0,0.281,0.269,0.533,0.555,0.533h0.769v0.697L23.924,60.518L23.924,60.518z     M27.172,58.282v1.024h-0.531c-0.107,0-0.234-0.092-0.234-0.238v-0.786H27.172z M25.848,57.762h-0.615c0-0.341,0-0.54,0-0.651    h0.615V57.762z"/><g><path fill="#FFFFFF" d="M29.61,61.113h0.501v-0.211h1.227v0.211h0.502v-1.934h-2.23C29.61,59.179,29.61,61.113,29.61,61.113z      M31.338,60.444h-1.227v-0.807h1.227V60.444z"/><polygon points="31.981,56.981 31.075,56.981 30.847,56.359 30.263,56.462 30.48,56.981 29.468,56.981      29.468,57.464 31.981,57.464    " fill="#FFFFFF"/><path fill="#FFFFFF" d="M33.661,58.496l0.47-1.313v-0.521h-1.803v4.568h0.55v-4.047h0.718l-0.488,1.441     c0.55,0.573,0.726,1.068,0.575,1.354c-0.165,0.309-0.737,0.199-0.737,0.199l0.152,0.609c0.36,0,0.852-0.001,1.093-0.472     C34.499,59.711,34.076,58.948,33.661,58.496z"/><polygon points="31.748,57.684 31.265,57.495 30.834,58.345 30.12,58.345 30.522,58.122 30.079,57.477      29.651,57.702 30.074,58.345 29.326,58.345 29.326,58.828 32.103,58.828 32.103,58.345 31.378,58.345    " fill="#FFFFFF"/></g></g><g><path fill="#FFFFFF" d="M55.019,47.635v-0.872h-1.463v5.954h1.577v-2.645c0-1.281,0.247-1.869,0.823-2.017    c0.458-0.12,0.9,0.203,0.97,0.244c0,0,0.415-1.168,0.488-1.374C56.862,46.615,55.721,46.22,55.019,47.635z"/><rect x="50.662" y="46.763" width="1.576" fill="#FFFFFF" height="5.954"/><rect x="50.665" y="44.498" width="1.572" fill="#FFFFFF" height="1.454"/><path fill="#FFFFFF" d="M44.978,44.498l-3.204,8.219h1.713l0.702-1.867h3.307l0.702,1.867h1.712l-3.204-8.219    C46.706,44.498,44.978,44.498,44.978,44.498z M44.71,49.466l1.133-3.013l1.133,3.013H44.71z"/><path fill="#FFFFFF" d="M25.722,46.628c-1.856,0-2.846,1.393-2.846,3.111c0,1.719,0.873,3.111,2.874,3.111    c1.424,0,2.286-0.592,2.712-1.765l-1.541-0.256c-0.207,0.541-0.61,0.843-1.165,0.843c-0.745,0-1.228-0.66-1.228-1.479h2.461h0.072    h1.485c0.014-0.149,0.023-0.3,0.023-0.454C28.57,48.021,27.579,46.628,25.722,46.628z M24.539,49.226    c0.077-0.869,0.478-1.393,1.217-1.393s1.14,0.524,1.216,1.393H24.539z"/><path fill="#FFFFFF" d="M32.391,48.998c-1.096-0.27-1.628-0.379-1.628-0.744c0-0.244,0.213-0.494,1.071-0.494    c0.694,0,0.987,0.285,1.121,0.718l1.485-0.275c-0.339-1.106-1.124-1.575-2.635-1.575c-1.838,0-2.505,0.904-2.505,1.827    c0,0.572,0.234,1.026,0.714,1.333c0.357,0.228,1.169,0.469,2.409,0.764c0.423,0.101,0.638,0.224,0.638,0.516    c0,0.314-0.268,0.645-1.127,0.645c-0.747,0-1.151-0.375-1.272-0.937l-1.559,0.242c0.237,0.809,0.86,1.833,2.831,1.833    c1.767,0,2.708-0.881,2.708-1.995C34.642,49.739,33.804,49.343,32.391,48.998z"/><path fill="#FFFFFF" d="M38.058,51.531c-0.435,0.111-0.592-0.148-0.592-0.527c0-0.322,0-2.986,0-2.986h1.109v-1.256h-1.109v-2.264    l-1.576,0.923v1.342h-0.748v1.256h0.748c0,0,0,2.865,0,3.179c0,1.345,0.651,1.653,1.543,1.653c0.785,0,1.244-0.244,1.244-0.244    l-0.134-1.214C38.544,51.393,38.369,51.452,38.058,51.531z"/><polygon points="21.495,44.498 20.262,50.133 18.755,44.498 16.867,44.498 15.36,50.133 14.127,44.498     12.428,44.498 14.394,52.718 16.191,52.718 17.811,46.595 19.431,52.718 21.228,52.718 23.194,44.498   " fill="#FFFFFF"/></g><g><path fill="#FFFFFF" d="M44.698,14.392c1.115-1.884,2.572-4.367,3.115-5.293c0.138-0.234,0.298-0.221,0.423,0.007    c0.026,0.048,3.214,5.851,3.308,6.021c1.145,2.083,1.028,4-0.37,6.361c-1.115,1.884-2.572,4.367-3.115,5.293    c-0.138,0.234-0.298,0.221-0.423-0.006c-0.026-0.048-3.214-5.851-3.307-6.021C43.183,18.668,43.3,16.753,44.698,14.392z"/><path fill="#FFFFFF" d="M18.667,14.414c1.115-1.884,2.572-4.366,3.115-5.292c0.138-0.234,0.297-0.221,0.423,0.006    c0.072,0.132,9.165,16.684,9.586,17.45c1.144,2.084,1.028,3.998-0.37,6.36c-1.115,1.885-2.572,4.366-3.115,5.292    c-0.137,0.234-0.297,0.222-0.423-0.007c-0.054-0.097-8.578-15.616-9.585-17.449C17.152,18.691,17.269,16.775,18.667,14.414z"/><path fill="#FFFFFF" d="M31.682,14.392c1.116-1.884,2.407-4.085,2.951-5.012c0.138-0.234,0.638-0.183,0.763,0.045    c0.073,0.131,8.992,16.367,9.413,17.133c1.145,2.084,1.028,3.999-0.37,6.361c-1.115,1.884-2.573,4.367-3.115,5.293    c-0.138,0.233-0.298,0.221-0.424-0.007c-0.052-0.097-8.579-15.619-9.587-17.452C30.168,18.669,30.284,16.754,31.682,14.392z"/><g><path fill="#E51E25" d="M35.576,9.031c-0.475,0-0.784,0.078-0.958,0.374c-0.806,1.375-2.327,3.955-2.936,4.987     c-0.218,0.37-1.039,1.777-1.134,3.216c0.379-3.03,3.115-4.263,5.708-5.559c2.252-1.125,6.179-3.017,6.179-3.017     S36.025,9.031,35.576,9.031z"/></g></g></g></svg>