<svg xmlns="http://www.w3.org/2000/svg" id="Layer_1" width="70" height="70" x="0" y="0" enable-background="new 0 0 70 70" version="1.1" viewBox="0 0 70 70" xml:space="preserve"><rect width="70" height="70" fill="none"/><polygon fill="#22275E" points="39.4 35.8 40.9 30.6 41.1 18.9 35.7 23.5 37 31.3"/><path fill="#22275E" d="M39.4,35.8L39.4,35.8L39.4,35.8z"/><path fill="#22275E" d="M26.3,45.7L26.3,45.7l-0.1,0.1C26.3,45.8,26.3,45.8,26.3,45.7z"/><path fill="#22275E" d="M36,36.9L36,36.9L36,36.9L36,36.9V31.3l-1.1-7.1l0.4-0.4l-5.5,4.7l2.9,4.5L36,36.9z"/><polygon fill="#22275E" points="43.2 35.4 43.3 35.3 47.2 13.8 42.2 18 41.9 30.5"/><polygon fill="#22275E" points="33 38.4 31.7 33.4 29 29.2 29.6 28.6 25.8 31.9 28.6 35.4"/><polygon fill="#22275E" points="30.3 40.5 27.8 36 25 32.5 21.4 35.5 25.2 38.5"/><path fill="#22275E" d="M33.1,38.4L33.1,38.4L33.1,38.4C33,38.5,33,38.4,33.1,38.4z"/><path fill="#22275E" d="M19.6,50.3L4.9,49.5l1-0.9L19.7,49.4l5.4-0.602l-4.6-2.5l-9-2.398l0.9-0.7l8.4,2.3l5.5,0.4l-4.2-3L16,40.1 l0.8-0.699l5.8,2.5l5.6,1l0,0c0,0,0,0,0.1-0.101l0,0l-3.5-3.7l-3.9-3L2,51.9h21.7l0.4-0.301L19.6,50.3z"/><path fill="#FFCB07" d="M28.1,42.9L28.1,42.9C28.1,42.9,28.1,43,28.1,42.9L28.1,42.9l-5.6-1l-5.8-2.5L16,40.1l6.1,2.7l4.2,3l0,0 c0,0,0,0.101-0.1,0.101V45.8L20.7,45.4L12.3,43.1l-0.9,0.7l9,2.4l4.6,2.5l-5.4,0.6L5.9,48.6l-1,0.9l14.7,0.8l4.5,1.2l19.2-16.2 L42,30.4L42.2,18l0,0l-1,0.9l0,0l-0.3,11.7l-1.4,5.2l0,0l0,0l0,0L37,31.3l-1.3-7.9l0,0l-0.5,0.4l-0.4,0.4l1.101,7.1V36.9l0,0 c0,0,0,0-0.101,0l0,0L32.6,33l-2.9-4.5l-0.1,0.1L29,29.2l2.7,4.3l1.3,5l0,0c0,0,0,0-0.1,0l0,0l-4.5-3l-2.8-3.6l0,0L25,32.5l0,0 l2.8,3.5l2.5,4.5l-5.1-2l-3.7-3l0,0l-0.8,0.6l3.9,3L28.1,42.9z"/><polygon fill="#E61E25" points="43.2 35.4 24 51.6 23.7 51.9 40.3 51.9 62 51.9 68.8 13.8 43.3 35.3"/></svg>