<svg xmlns="http://www.w3.org/2000/svg" id="Layer_1" width="70" height="70" x="0" y="0" enable-background="new 0 0 70 70" version="1.1" viewBox="0 0 70 70" xml:space="preserve"><metadata/><rect width="70" height="70" fill="none"/><path fill="#20B8EC" d="M53,16.5c-1.3,1.4-24.3,29.4-26.7,31.8l0,0c-1.5,1.5-2.8,2.3-3.8,2.601l0,0C21.2,51.4,13.3,54.1,1.3,57.8 l0,0H58l10.4-41.6L68.2,16c-0.7,0-2.4,0-4.5,0l0,0C60,16,55,16.1,53,16.5"/><path fill="#FFE300" d="M49.9,28C44,28,39.1,32.8,39.2,38.8c0,5.9,4.8,10.8,10.8,10.7c4.3,0,8-2.5,9.7-6.1V43.3 c0.6-1.399,1-2.899,1-4.5c0-4.3-2.5-8-6.2-9.7h-0.1C53.1,28.3,51.6,28,49.9,28L49.9,28L49.9,28z M49.9,28.7 c5.6,0,10.1,4.5,10.1,10.1C60,44.4,55.5,48.9,49.9,48.9l0,0C44.3,48.9,39.8,44.4,39.8,38.8C39.9,33.2,44.4,28.7,49.9,28.7z M50,29.1 c-3.8,0-7.1,2.2-8.7,5.5l-0.1,0.2c-0.601,1.2-0.9,2.601-0.9,4c0,3.8,2.3,7.101,5.5,8.7H45.9c1.199,0.6,2.6,0.9,4.1,0.9 c2.6,0,5-1.101,6.7-2.7c0.1-0.101,0.1-0.101,0.2-0.2c-0.101-0.1-0.101-0.1-0.2-0.2c-3.4-3.399-8.2-5.6-13.4-5.7L42.7,40.2v-2.5h0.1 c2.101,0,4,0.2,5.7,0.7c-1-0.4-2-0.7-3-1v-2h11.1H59c-0.5-1.4-1.3-2.6-2.4-3.6c-0.699-0.7-1.5-1.3-2.399-1.7l-0.4-0.2 C52.7,29.4,51.4,29.1,50,29.1L50,29.1L50,29.1z M59.3,36.2h-2.6h-2.3L54.3,36.6h2.4h2.7C59.4,36.4,59.3,36.3,59.3,36.2z M59.6,37.3 H56.7h-6c2.399,1.4,4.5,3.2,6,5.5c0.1,0.2,0.2,0.3,0.3,0.5l0,0l0,0l0,0v1.9c0.6-0.7,1.2-1.5,1.6-2.3l0.2-0.4 c0.5-1.2,0.8-2.5,0.8-3.9C59.6,38.2,59.6,37.8,59.6,37.3L59.6,37.3z"/></svg>