<svg xmlns="http://www.w3.org/2000/svg" id="svg17" width="100" height="100" version="1.1" viewBox="0 0 100.002 100.002"><metadata id="metadata23"/><title id="title10"/><desc id="desc12"/><g id="precisionair-tanzania-seeklogo.com" transform="translate(1.6632712,1.0338883)" style="fill:none;fill-rule:evenodd;stroke:none;stroke-width:1"><path id="Fill-1" d="M 0.33789062,0 0.02539063,100.03711 H 102.86133 L 103.17383,0 Z" transform="matrix(1.00002,0,0,1.00002,-1.6886623,-1.071)" style="fill:#f6b221;stroke-width:.60230839"/><g id="g3832"><path id="Fill-2" d="M 95.203125,0.04492187 0,86.662109 V 99.900391 H 102.20312 V 0.04492187 Z M 63.121094,38.970703 c 0.23799,0 2.603108,2.143115 5.873047,2.767578 3.12493,0.596305 7.105252,-0.331499 9.658203,-0.01172 2.494952,0.312735 4.022072,0.254394 5.623047,2.335938 0.905977,1.177532 1.730369,2.43382 3.152343,3.035156 0.791988,0.33586 4.932493,1.173942 6.230469,1.47461 1.305976,0.303686 2.029075,0.979977 0.287109,1.77539 -2.031962,0.928147 -5.432772,0.621964 -6.46875,0.69336 -1.350976,0.09152 -2.636804,0.0596 -3.925781,0.43164 -2.263963,0.65463 -2.870606,3.367074 -3.683593,5.435547 2.329952,-0.781334 4.057313,-2.179593 6.697265,-2.318359 0.702988,-0.03618 1.402559,0.04386 2.060547,0.25 0.547988,0.172956 0.417988,1.33528 0,1.730468 -2.840951,2.677856 -4.738301,7.544717 -6.447266,8.736329 -1.916963,1.335403 -3.743942,1.969051 -5.878906,2.398437 -2.271953,1.369593 -2.514549,1.403654 -5.1875,2.136719 -1.634965,1.121219 -3.366568,2.009859 -5.144531,2.886719 -1.690966,0.833627 -3.194219,1.423949 -3.324219,0.912109 -0.155,-0.752169 1.105668,-3.585815 1.722656,-3.894531 0.757978,-0.331842 1.920695,-0.289603 3.013672,0 0.288,-0.721001 0.651981,-1.494889 1.292969,-1.875 0.459988,-0.273512 1.059182,-0.163926 1.576172,-0.337891 2.206963,-0.7391 4.431381,-1.482336 6.652344,-2.162109 2.277953,-0.697868 4.069398,-2.328142 5.359375,-4.425782 0.765987,-0.816526 1.387658,-1.77863 1.722656,-2.884765 -1.578975,0.528936 -3.287816,1.240859 -4.257813,2.742187 -2.112952,3.271144 -5.210451,4.601814 -8.65039,5.134766 -4.468905,0.692846 -9.59627,-0.426234 -13.742188,0.537109 -4.179917,0.972394 -4.761736,4.090826 -12.058593,4.666016 -3.791929,0.298656 -7.070969,-0.262208 -9.419922,0.634766 -1.286976,0.49072 -2.785516,1.610682 -7.232422,4.509765 -1.926964,1.256972 -4.066509,2.211193 -5.646485,3.894532 -1.339976,1.345461 -4.033465,3.254659 -4.689453,3.126953 -0.481989,-0.159889 -0.210011,-2.542409 1.626953,-4.761719 0.802987,-0.970381 0.860914,-0.452602 1.962891,-0.673828 1.493975,-0.760214 3.036212,-1.503548 4.367188,-2.53125 2.294953,-1.771829 3.972359,-4.532669 6.320312,-5.769532 1.600975,-0.843681 3.671425,-1.454979 5.150391,-1.796874 1.126976,-0.259441 1.912574,-1.393398 2.726562,-2.210938 -0.813988,-0.673735 -1.674174,-0.343079 -2.869141,-0.0957 -1.497985,0.310722 -5.60662,-1.446412 -3.972656,-4.183594 0.748987,-1.253953 2.188572,-2.635852 3.685547,-2.259765 0.747977,0.18804 1.1946,1.295125 1.099609,2.066406 -0.117009,0.940212 -0.924089,1.618944 -1.580078,2.404297 0.589989,0.260446 2.074794,0.162906 2.675782,0 1.336976,-0.363011 1.263238,-3.73872 4.910156,-4.603516 2.919953,-0.690833 8.33916,0.813565 12.080078,0.607422 6.26688,-0.345919 13.895971,-3.058562 18.921875,-6.613281 1.684964,-1.191606 3.247165,-2.54224 4.619141,-4.056641 0.592987,-0.654632 -0.431326,-1.588509 -1.195313,-1.634766 -5.190894,-0.319776 -12.318306,-0.26959 -15.740234,-4.904297 -0.171,-0.553067 4.9813,3.901866 17.039062,3.478516 -0.686988,-2.725116 -4.256923,-2.008467 -9.048828,-2.425781 -3.043941,-0.265475 -6.122395,-1.199503 -7.943359,-4.371094 z" transform="matrix(1.0000199,0,0,1.0000199,-1.6632712,-1.0338899)" style="fill:#3c590c;stroke-width:1.00277483"/><path id="Fill-2-8" d="M 96.250682,-0.9893557 V 98.868103 h 5.230648 V -0.9893557 Z" style="fill:#3c590c;fill-rule:evenodd;stroke:none;stroke-width:1.00279474"/></g></g></svg>