<svg xmlns="http://www.w3.org/2000/svg" version="1.1" id="Layer_1" x="0px" y="0px" width="70" height="70" viewBox="0 0 70 70" xml:space="preserve" style="enable-background:new 0 0 70 70;"><style type="text/css">
	.st0{fill:#740054;}
	.st1{fill:#F48120;}
	.st2{fill:#004A2A;}
	.st3{fill:#D8394E;}
	.st4{fill:#FFFFFF;}
	.st5{fill:#B99664;}
</style><title/><g><g><path d="M26.9,62.9c-11,0-20-9-20-20c0-4.5,1.5-8.8,4.2-12.3l0.9,0.7c-2.6,3.3-4,7.3-4,11.6    c0,10.4,8.5,18.9,18.9,18.9c8.2,0,15.4-5.3,18-13.1L46,49C43.3,57.3,35.6,62.9,26.9,62.9z M32,57.8c-6.9,0-12.5-5.6-12.5-12.5    c0-0.5,0-0.9,0.1-1.3l1.1,0.1c0,0.4-0.1,0.8-0.1,1.2c0,6.3,5.1,11.4,11.4,11.4c5.2,0,9.7-3.5,11-8.5l1.1,0.3    C42.6,54,37.6,57.8,32,57.8z" class="st0"/><path d="M17.5,17.2c12.1-1.8,12.4,1,12.4,1s-0.8,5.2-0.8,5.3v-0.3c0,0-0.3,0.5-0.8,0.2C25.9,22.2,16.4,17.3,17.5,17.2    " class="st1"/><path d="M29.2,23.5L29.2,23.5l-0.1-0.2c-0.1,0.1-0.3,0.2-0.5,0.2c-0.1,0-0.2,0-0.3-0.1c-1.9-0.9-11-5.5-10.9-6.2    c0,0,0-0.1,0.1-0.1c2.7-0.4,5-0.6,6.9-0.6c5.3,0,5.5,1.6,5.5,1.6C29.7,20,29.2,23.4,29.2,23.5z M24.4,16.6c-1.9,0-4.2,0.2-6.9,0.6    c0,0-0.1,0-0.1,0c-0.1,0.5,8.3,4.9,10.9,6.1c0.1,0,0.2,0.1,0.2,0.1c0.3,0,0.5-0.3,0.5-0.3l0.1-0.1c0.2-1.2,0.6-4.4,0.7-4.9    C29.9,18.1,29.7,16.6,24.4,16.6z" class="st1"/><path d="M28.5,23.4c0,0-0.2-0.1-0.2-0.3c0.7-5.9-3.3-2.9-3.6-3.1c-0.5,0-0.8-0.4-0.8-0.8v0c0,0-1.6-1.3-1.4-2.5    c0,0-0.7-0.4-2.1,0.2c-0.1,0-0.3,0.5,0.6,1.6c0,0-0.5,0.3-0.5,0.5c0,0.1,1.7,2.9,5.6,4.5C26.1,23.5,28.5,23.4,28.5,23.4" class="st2"/><path d="M26.2,23.5c-0.1,0-0.1,0-0.1,0c-3.9-1.7-5.6-4.5-5.6-4.6c0-0.2,0.2-0.4,0.4-0.5c0,0,0,0,0.1,0    c-0.7-0.8-0.6-1.3-0.6-1.5c0-0.1,0-0.1,0.1-0.1c0.5-0.2,1-0.3,1.5-0.3c0.4,0,0.7,0.1,0.7,0.2l0,0l0,0c-0.2,1.2,1.3,2.5,1.4,2.5    l0,0v0c0,0.4,0.4,0.8,0.8,0.8h0l0,0l0,0c0,0,0,0,0,0l0,0c0.1,0,0.2-0.1,0.4-0.1c0.4-0.2,1.1-0.4,1.6-0.4c0.4,0,0.8,0.1,1.1,0.4    c0.5,0.6,0.6,1.7,0.4,3.3c0,0.2,0.1,0.2,0.1,0.2l0,0.1C28.5,23.4,26.7,23.5,26.2,23.5z M26.1,23.4C26.1,23.4,26.1,23.4,26.1,23.4    c0.5,0,1.9,0,2.3,0c0-0.1-0.1-0.1-0.1-0.3c0.2-1.6,0.1-2.7-0.4-3.2c-0.2-0.3-0.6-0.4-1-0.4c-0.6,0-1.2,0.3-1.6,0.4    C25,20,24.8,20.1,24.8,20c-0.5,0-0.8-0.4-0.8-0.9v0c-0.2-0.1-1.6-1.4-1.4-2.5c0,0-0.3-0.1-0.7-0.1c-0.4,0-0.9,0.1-1.4,0.3    c0,0,0,0,0,0.1c0,0.2,0,0.6,0.6,1.4l0,0l0,0c0,0,0,0-0.1,0.1c-0.1,0.1-0.4,0.3-0.4,0.4C20.7,19.1,22.5,21.9,26.1,23.4    C26.1,23.4,26.1,23.4,26.1,23.4z" class="st2"/><path d="M26.5,24c0.1-0.3,1.2-0.5,1.9-0.5c10.7,0,19.4,8.7,19.4,19.4c0,2.2-0.3,4.7-0.8,7.1c0-0.2-7.1-2.5-7-2.8    c0.2-0.3,6-5,1.4-15.2C41.3,31.7,32.7,33.6,26.5,24" class="st0"/><path d="M46.9,50c-0.1-0.1-1.4-0.6-2.7-1c-2.4-0.9-4.1-1.5-4.2-1.7c0,0,0,0,0-0.1c0,0,0.1-0.1,0.2-0.2    c0.5-0.5,1.8-2,2.5-4.4c0.9-3.1,0.4-6.6-1.4-10.5c0,0-0.1,0-0.2,0c-0.1,0-0.2,0-0.3,0c-0.2,0-0.4,0-0.6,0c-5.6,0-10.3-2.8-13.7-8    l0,0l0,0c0.1-0.5,1.8-0.5,2-0.5c10.7,0,19.4,8.7,19.4,19.5C47.9,45.1,47.6,47.6,46.9,50L46.9,50L46.9,50z M41.1,32    c0.2,0,0.3,0,0.3,0.1c1.8,3.9,2.2,7.5,1.4,10.6c-0.7,2.5-2.1,3.9-2.6,4.4c-0.1,0.1-0.2,0.2-0.2,0.2c0,0.2,2.5,1.1,4.2,1.7    c1.8,0.6,2.5,0.9,2.7,1c0.5-2.3,0.8-4.9,0.8-7c0-10.7-8.7-19.4-19.4-19.4c-0.9,0-1.8,0.1-1.9,0.4c3.4,5.2,8.1,8,13.7,8    c0.2,0,0.5,0,0.6,0C40.9,32,41,32,41.1,32z" class="st0"/><path d="M41.6,61.1c4.2-4.4,6.3-12.1,6.3-18.2c0-10.4-8.5-18.9-18.7-19.5c3.7-4.1,9.4-6.8,15.3-6.8    c5,0,9.2,2.5,12.7,5.6C51.4,20.4,46.8,20,43,20.4c11,0,20,9.2,20,20.4c0,11.3-9,20.4-20,20.4C42.7,61.2,41.9,61.2,41.6,61.1" class="st3"/><path d="M43,61.2c-0.3,0-1.1,0-1.5,0l-0.1,0l0.1-0.1c4.3-4.6,6.2-12.4,6.2-18.2c0-5-2-9.7-5.5-13.4    c-3.5-3.6-8.2-5.8-13.2-6l-0.1,0l0-0.1c3.8-4.2,9.6-6.8,15.3-6.8c4.3,0,8.4,1.8,12.7,5.6l0,0.1c-4.1-1.4-7.9-2-11.6-2    c-0.6,0-1.1,0-1.7,0c5,0.2,9.7,2.3,13.3,6c3.8,3.9,5.9,9,5.9,14.5C63,52,54.1,61.2,43,61.2z M41.6,61.1c0.4,0,1.1,0,1.4,0    C54,61.1,63,52,63,40.8c0-5.4-2.1-10.5-5.9-14.4c-3.8-3.9-8.8-6-14.1-6l0-0.1c0.8-0.1,1.7-0.1,2.5-0.1c3.7,0,7.4,0.6,11.5,2    c-4.2-3.7-8.3-5.5-12.5-5.5c-5.6,0-11.4,2.6-15.2,6.7c5,0.3,9.6,2.4,13.1,6.1c3.6,3.7,5.5,8.5,5.5,13.5    C47.9,48.7,45.9,56.5,41.6,61.1z" class="st3"/><path d="M43.2,7.1C29.2,8.7,29,23.3,29.1,23.2c6.6-6.1,14.1-6.9,14.1-6.6C43.3,16.8,44.4,12.6,43.2,7.1" class="st0"/><path d="M29.1,23.2c0,0,0,0-0.1-0.1c0-0.7,0.2-4.3,2.1-7.9c1.1-2.1,2.5-3.8,4.2-5.1c2.1-1.6,4.8-2.6,7.8-3l0,0l0,0    c0.6,2.7,0.6,5.1,0.5,6.7c-0.1,1.7-0.4,2.8-0.5,2.8l0,0l0,0c0,0,0,0,0,0c0,0-0.1,0-0.2,0C41.7,16.6,35.1,17.8,29.1,23.2L29.1,23.2    L29.1,23.2z M43.2,7.2c-5.1,0.6-8.9,3-11.4,7c-2.5,4.1-2.7,8.4-2.6,8.9c5.9-5.4,12.6-6.6,13.9-6.6c0.1,0,0.2,0,0.2,0    C43.4,16.1,44.3,12.1,43.2,7.2z" class="st0"/><path d="M23.9,19.3c0-0.4,0.3-0.7,0.7-0.7c0.4,0,0.7,0.3,0.7,0.7c0,0.4-0.3,0.7-0.7,0.7C24.3,20,23.9,19.7,23.9,19.3" class="st4"/><path d="M24.7,20.1c-0.5,0-0.8-0.4-0.8-0.8c0-0.5,0.4-0.8,0.8-0.8c0.5,0,0.8,0.4,0.8,0.8    C25.5,19.7,25.1,20.1,24.7,20.1z M24.7,18.6c-0.3,0-0.6,0.3-0.6,0.6c0,0.3,0.3,0.6,0.6,0.6c0.3,0,0.6-0.3,0.6-0.6    C25.3,18.9,25,18.6,24.7,18.6z" class="st4"/><path d="M58.6,22.8c-3.4-3.3-8.8-6.7-14-6.7c-6.1,0-12,2.7-15.7,7.1l0.5,0.5c3.6-4.3,9.3-6.9,15.2-6.9    c4.4,0,9.1,2.7,12.4,5.5L58.6,22.8z" class="st5"/><path d="M47.5,42.9c0,5.6-1.9,13.4-6.2,18L41,61.1l0.9,0.1c4.3-4.7,6.3-12.6,6.3-18.3c0-5.3-2.1-10.2-5.8-14    c-3.7-3.7-8.7-5.8-14-5.8c-0.7,0-1.9,0-2.6,0.1l0,0.1h0l0.6,0.5c0.6-0.1,1.4-0.1,2-0.1c5.1,0,9.9,2,13.5,5.6    C45.5,33.1,47.5,37.9,47.5,42.9" class="st5"/></g></g></svg>