<svg xmlns="http://www.w3.org/2000/svg" style="enable-background:new 0 0 70 70" id="Layer_1" width="70" height="70" x="0" y="0" version="1.1" viewBox="0 0 70 70" xml:space="preserve"><style type="text/css">.st0{fill:url(#SVGID_1_)}.st0,.st1,.st2,.st3,.st4,.st5,.st6{fill-rule:evenodd;clip-rule:evenodd}.st1{fill:url(#SVGID_2_)}.st2{fill:url(#SVGID_3_)}.st3{fill:url(#SVGID_4_)}.st4{fill:url(#SVGID_5_)}.st5{fill:url(#SVGID_6_)}.st6{fill:url(#SVGID_7_)}</style><g><g><linearGradient id="SVGID_1_" x1="51.414" x2="51.414" y1="29.326" y2="64.075" gradientUnits="userSpaceOnUse"><stop style="stop-color:#e50013" offset="0"/><stop style="stop-color:#9e1e50" offset=".439"/><stop style="stop-color:#1d2087" offset=".868"/></linearGradient><path d="M36.3,61.1c0,0,4.7-3.2,12.2-3.8c9-0.7,17.9-4.4,17.9-16.2c0-11.2-8.6-13.8-8.6-13.8s2.9,9.9,1.7,15.3 c-1.2,5.5-3.6,10.8-14.2,13C37.8,57.2,36.3,61.1,36.3,61.1z" class="st0"/><linearGradient id="SVGID_2_" x1="19.086" x2="19.086" y1="29.326" y2="64.075" gradientUnits="userSpaceOnUse"><stop style="stop-color:#e50013" offset="0"/><stop style="stop-color:#9e1e50" offset=".439"/><stop style="stop-color:#1d2087" offset=".868"/></linearGradient><path d="M34.2,61.1c0,0-4.7-3.2-12.2-3.8C12.9,56.6,4,52.9,4,41.1c0-11.2,8.6-13.8,8.6-13.8s-2.9,9.9-1.7,15.3 c1.2,5.5,3.6,10.8,14.2,13C32.7,57.2,34.2,61.1,34.2,61.1z" class="st1"/></g><linearGradient id="SVGID_3_" x1="25.627" x2="25.627" y1="29.326" y2="64.075" gradientUnits="userSpaceOnUse"><stop style="stop-color:#e50013" offset="0"/><stop style="stop-color:#9e1e50" offset=".439"/><stop style="stop-color:#1d2087" offset=".868"/></linearGradient><path d="M17,18.6c0,0,10.6,3.4,10.6,10.4c0,5.2-0.2,10.5,0,15.7c0.2,4,3.1,7,6.8,8.4c0,0-4.1,1.7-9.3-2.9 c-3.6-3.1-4.7-7-4.7-11.5c0-4.5,0-10.1,0-10.1S20.7,22,17,18.6z" class="st2"/><linearGradient id="SVGID_4_" x1="45.111" x2="45.111" y1="29.326" y2="64.075" gradientUnits="userSpaceOnUse"><stop style="stop-color:#e50013" offset="0"/><stop style="stop-color:#9e1e50" offset=".439"/><stop style="stop-color:#1d2087" offset=".868"/></linearGradient><path d="M53.8,18.6c0,0-10.6,3.4-10.6,10.4c0,5.2,0.2,10.5,0,15.7c-0.2,4-3.1,7-6.8,8.4c0,0,4.1,1.7,9.3-2.9 c3.6-3.1,4.7-7,4.7-11.5c0-4.5,0-10.1,0-10.1S50.1,22,53.8,18.6z" class="st3"/><linearGradient id="SVGID_5_" x1="29.171" x2="29.171" y1="31.927" y2="63.994" gradientUnits="userSpaceOnUse"><stop style="stop-color:#e50013" offset="0"/><stop style="stop-color:#9e1e50" offset=".439"/><stop style="stop-color:#1d2087" offset=".868"/></linearGradient><path d="M35,13.4c-0.4-1.7-1.5-3.2-3.3-3.9c-0.8-0.3-1.7-0.5-2.5-0.5c-0.5,0-1,0-1.6,0.1c-2.8,0.6-4.7,3.5-4.6,6.4 c0.1,1.3,0.6,2.8,1.6,3.7c1.6,1.4,4.2,1.4,5.9,0.1c0.4-0.3,0.8-0.8,1-1.3c0.2-0.5,0.2-1.1,0.3-1.7c-1,0.9-2.1,2-3.5,2 c-1.3-0.1-2.2-1.2-2.4-2.4c-0.2-1.4,0.7-2.7,2-3.2c1.5-0.6,3.3-0.3,4.6,0.5c0.7,0.5,1.3,1.1,1.7,1.8c0.2,0.4,0.3,0.7,0.5,1.1 c0.1,0.4,0.3,0.7,0.4,1.1c0-1.1,0.2-2.2,0.1-3.3C35.1,13.8,35.1,13.6,35,13.4z" class="st4"/><linearGradient id="SVGID_6_" x1="41.247" x2="41.247" y1="31.927" y2="63.994" gradientUnits="userSpaceOnUse"><stop style="stop-color:#e50013" offset="0"/><stop style="stop-color:#9e1e50" offset=".439"/><stop style="stop-color:#1d2087" offset=".868"/></linearGradient><path d="M35.4,13.4c0.4-1.7,1.5-3.2,3.3-3.9c0.8-0.3,1.7-0.5,2.5-0.5c0.5,0,1.1,0,1.6,0.1c2.8,0.6,4.7,3.5,4.6,6.4 c-0.1,1.3-0.6,2.8-1.6,3.7c-1.6,1.4-4.2,1.4-5.9,0.1c-0.4-0.3-0.8-0.8-1-1.3c-0.2-0.5-0.2-1.1-0.3-1.7c1,0.9,2.1,2,3.5,2 c1.3-0.1,2.2-1.2,2.4-2.4c0.2-1.4-0.7-2.7-2-3.2c-1.5-0.6-3.3-0.3-4.6,0.5c-0.7,0.5-1.3,1.1-1.7,1.8c-0.2,0.4-0.3,0.7-0.5,1.1 c-0.1,0.4-0.3,0.7-0.4,1.1c0-1.1-0.2-2.2-0.1-3.3C35.3,13.8,35.3,13.6,35.4,13.4z" class="st5"/><linearGradient id="SVGID_7_" x1="35.25" x2="35.25" y1="31.221" y2="61.974" gradientUnits="userSpaceOnUse"><stop style="stop-color:#e50013" offset="0"/><stop style="stop-color:#9e1e50" offset=".439"/><stop style="stop-color:#1d2087" offset=".868"/></linearGradient><rect width="2.4" height="46.4" x="34.1" y="14.7" class="st6"/></g></svg>