<svg xmlns="http://www.w3.org/2000/svg" id="Layer_1" width="54" height="52" viewBox="0 0 53.8 51.58"><defs><style>
            .cls-1{fill:url(#linear-gradient);}.cls-2{fill:#fff;}.cls-3{fill:url(#linear-gradient-2);}.cls-4{fill:url(#linear-gradient-3);}.cls-5{fill:url(#linear-gradient-4);}.cls-6{fill:#323232;}
        </style><linearGradient id="linear-gradient" gradientUnits="userSpaceOnUse" x1="35.15" x2="11.1" y1="43.12" y2="8"><stop offset="0" stop-color="#be2025"/><stop offset="0.23" stop-color="#cc2025"/><stop offset="0.71" stop-color="#e42024"/><stop offset="1" stop-color="#ed2024"/></linearGradient><linearGradient id="linear-gradient-2" gradientUnits="userSpaceOnUse" x1="28.53" x2="28.85" y1="27.26" y2="23.54"><stop offset="0.65" stop-color="#fff" stop-opacity="0"/><stop offset="0.7" stop-color="#ededed" stop-opacity="0.23"/><stop offset="0.76" stop-color="#d7d7d7" stop-opacity="0.51"/><stop offset="0.81" stop-color="#c6c6c6" stop-opacity="0.72"/><stop offset="0.87" stop-color="#bababa" stop-opacity="0.87"/><stop offset="0.91" stop-color="#b3b3b3" stop-opacity="0.97"/><stop offset="0.95" stop-color="#b0b0b0"/></linearGradient><linearGradient id="linear-gradient-3" gradientUnits="userSpaceOnUse" x1="23.74" x2="39.41" y1="37.09" y2="37.09"><stop offset="0" stop-color="#fff" stop-opacity="0"/><stop offset="0.07" stop-color="#f3f3f3" stop-opacity="0.15"/><stop offset="0.21" stop-color="#dfdfdf" stop-opacity="0.41"/><stop offset="0.35" stop-color="#cecece" stop-opacity="0.62"/><stop offset="0.49" stop-color="#c1c1c1" stop-opacity="0.79"/><stop offset="0.63" stop-color="#b7b7b7" stop-opacity="0.91"/><stop offset="0.77" stop-color="#b2b2b2" stop-opacity="0.98"/><stop offset="0.9" stop-color="#b0b0b0"/></linearGradient><linearGradient id="linear-gradient-4" gradientUnits="userSpaceOnUse" x1="4.18" x2="21.69" y1="20.84" y2="20.84"><stop offset="0.25" stop-color="#fff" stop-opacity="0"/><stop offset="0.36" stop-color="#f7f7f7" stop-opacity="0.11"/><stop offset="0.57" stop-color="#e1e1e1" stop-opacity="0.38"/><stop offset="0.88" stop-color="#bfbfbf" stop-opacity="0.81"/><stop offset="1" stop-color="#b0b0b0"/></linearGradient></defs><title/><path transform="translate(-3.73 -8.01)" d="M17.18,43.32H53.39l-29-29.14A20.74,20.74,0,0,0,9.8,8H3.73L4.18,9.2l2,5.27Z" class="cls-1"/><path transform="translate(-3.73 -8.01)" d="M6.19,14.47c4,6.77,14.37,7.48,15.5,18a1,1,0,0,0,.81.85A35.8,35.8,0,0,1,39.41,40.8h0a.17.17,0,0,0,.11,0,.18.18,0,0,0,.13-.31A36,36,0,0,0,27,32l-1.47-.59a2,2,0,0,1-1.26-1.91c.08-3.15,7.52-2.51,8.27-4l.13-.26a13.92,13.92,0,0,0-5.36-2.84,1.6,1.6,0,0,0,.34,1.11c.44.72-.49,1.87-1.84.63l-.11-.1C15.7,14.76,8.16,19.54,4.18,9.2Z" class="cls-2"/><path transform="translate(-3.73 -8.01)" d="M30.36,25a3.14,3.14,0,0,1-2.66-1.57.78.78,0,0,1-.7,1.18v2.51c1.08-.31,2.32-.51,3.36-.73Z" class="cls-3"/><path transform="translate(-3.73 -8.01)" d="M23.74,33.55A35.8,35.8,0,0,1,39.41,40.8C28.88,31.81,24.08,33.44,23.74,33.55Z" class="cls-4"/><path transform="translate(-3.73 -8.01)" d="M8.31,14.94h0A11.8,11.8,0,0,1,4.18,9.2l2,5.27c4,6.77,14.37,7.48,15.5,18C20.54,19,14.64,21.06,8.31,14.94Z" class="cls-5"/><path transform="translate(-3.73 -8.01)" d="M19.53,51.61c-2.17,0-3.54-1.13-3.54-2.54s1.46-2.54,3.61-2.54S23.2,47.64,23.2,49a1.92,1.92,0,0,1-.8,1.54h1.28l-.31.52a1,1,0,0,1-.94.53Zm.06-1.15c1.18,0,2.18-.59,2.18-1.39s-1-1.39-2.18-1.39-2.18.59-2.18,1.39S18.41,50.46,19.59,50.46Z" class="cls-6"/><path transform="translate(-3.73 -8.01)" d="M29,50.75H25.59l-.49.86H23.69l2.37-4.1a1,1,0,0,1,1-.57h.53a1,1,0,0,1,1,.57l2.37,4.1H29.49Zm-2.83-1h2.25l-1-1.86s0-.06-.08-.06-.06,0-.08.06Z" class="cls-6"/><path transform="translate(-3.73 -8.01)" d="M37.67,46.94v4.67H36.41l-3.71-3.1v3.1H31.43V46.94h.79a1.12,1.12,0,0,1,.84.31L36.41,50V46.94Z" class="cls-6"/><path transform="translate(-3.73 -8.01)" d="M42.17,48v3.62H40.9V48H38.31V46.94h6.45V48Z" class="cls-6"/><path transform="translate(-3.73 -8.01)" d="M49,50.75H45.56l-.49.86H43.66L46,47.51a1,1,0,0,1,1-.57h.53a1,1,0,0,1,1,.57l2.37,4.1H49.46Zm-2.83-1h2.25l-1-1.86s0-.06-.08-.06-.06,0-.08.06Z" class="cls-6"/><path transform="translate(-3.73 -8.01)" d="M51.34,51.27l-.12,0,.32-1a9.15,9.15,0,0,0,2.76.41c1.44,0,1.79-.17,1.79-.35s0-.13-.16-.17a16.14,16.14,0,0,0-1.72-.32,9.84,9.84,0,0,1-2.32-.52,1,1,0,0,1-.69-1,1.09,1.09,0,0,1,.45-.87,3.9,3.9,0,0,1,2.28-.54,13.22,13.22,0,0,1,3.31.37l.1,0-.27,1a12.92,12.92,0,0,0-2.88-.35,5.13,5.13,0,0,0-1.37.12c-.14,0-.19.11-.19.18s0,.13.18.17a13.41,13.41,0,0,0,1.67.31,11.45,11.45,0,0,1,2.22.47,1.13,1.13,0,0,1,.83,1c0,.58-.45,1-1.23,1.25a6.68,6.68,0,0,1-1.84.22A11.28,11.28,0,0,1,51.34,51.27Z" class="cls-6"/><path transform="translate(-3.73 -8.01)" d="M19.25,55.66v-.1a.7.7,0,0,0-.78-.7c-.49,0-.77.25-.77.59a.63.63,0,0,0,.45.57l.65.26c.45.18,1,.42,1,1.1a1.16,1.16,0,0,1-1.29,1.14c-.77,0-1.3-.42-1.3-1.11v-.1h.45v.12c0,.4.31.69.84.69s.85-.3.85-.7-.31-.59-.68-.74l-.56-.23a1,1,0,0,1,.39-2,1.1,1.1,0,0,1,1.23,1.11v.07Z" class="cls-6"/><path transform="translate(-3.73 -8.01)" d="M20.82,55.88a.94.94,0,0,1,.8-.4,1,1,0,0,1,1,1.08v.88a1,1,0,0,1-1,1.08.93.93,0,0,1-.77-.35v1.41h-.44v-4h.34Zm0,.71v.83a.67.67,0,0,0,.7.72.62.62,0,0,0,.65-.68v-.92a.62.62,0,0,0-.65-.68A.68.68,0,0,0,20.86,56.59Z" class="cls-6"/><path transform="translate(-3.73 -8.01)" d="M23.55,54.43a.28.28,0,1,1-.29.29A.28.28,0,0,1,23.55,54.43Zm.22,1.11v2.93h-.44V55.54Z" class="cls-6"/><path transform="translate(-3.73 -8.01)" d="M24.52,58.47V55.54h.34l.07.37a.9.9,0,0,1,.79-.43h.15v.42l-.18,0a.69.69,0,0,0-.72.73v1.84Z" class="cls-6"/><path transform="translate(-3.73 -8.01)" d="M26.63,54.43a.28.28,0,1,1-.29.29A.28.28,0,0,1,26.63,54.43Zm.22,1.11v2.93H26.4V55.54Z" class="cls-6"/><path transform="translate(-3.73 -8.01)" d="M27.39,55.56H28v-.8h.45v.8H29v.37h-.57v2.54H28V55.93h-.57Z" class="cls-6"/><path transform="translate(-3.73 -8.01)" d="M32.82,57.39a1.13,1.13,0,1,1-2.25,0v-.77a1.13,1.13,0,1,1,2.25,0Zm-1.81,0a.68.68,0,1,0,1.37,0v-.84a.68.68,0,1,0-1.37,0Z" class="cls-6"/><path transform="translate(-3.73 -8.01)" d="M33.27,55.56h.47v-.14a.89.89,0,0,1,1-1H35v.38h-.23c-.42,0-.57.25-.57.59v.17h.76v.37h-.76v2.54h-.45V55.93h-.47Z" class="cls-6"/><path transform="translate(-3.73 -8.01)" d="M36.34,58.47l1.27-3.93h.47l1.28,3.93h-.48l-.29-.9H37.07l-.28.9Zm.86-1.3h1.28l-.65-2Z" class="cls-6"/><path transform="translate(-3.73 -8.01)" d="M39.81,55.54h.44v1.94a.6.6,0,0,0,.62.66.67.67,0,0,0,.69-.72V55.54H42v2.93h-.34l-.07-.34a1,1,0,0,1-.8.39.94.94,0,0,1-1-1Z" class="cls-6"/><path transform="translate(-3.73 -8.01)" d="M43,57.56v.1c0,.29.25.51.69.51s.63-.2.63-.49-.11-.36-.39-.44l-.57-.17a.81.81,0,0,1-.68-.77.9.9,0,0,1,1-.82c.62,0,1.05.32,1.05.86v0h-.42v-.07c0-.27-.23-.48-.63-.48s-.58.14-.58.44.11.32.36.39l.5.16c.44.14.8.32.8.83s-.41.89-1.05.89-1.11-.34-1.11-.89v-.08Z" class="cls-6"/><path transform="translate(-3.73 -8.01)" d="M45.21,55.56h.57v-.8h.45v.8h.57v.37h-.57v2.54h-.45V55.93h-.57Z" class="cls-6"/><path transform="translate(-3.73 -8.01)" d="M47.35,58.47V55.54h.34l.07.37a.9.9,0,0,1,.79-.43h.15v.42l-.18,0a.69.69,0,0,0-.72.73v1.84Z" class="cls-6"/><path transform="translate(-3.73 -8.01)" d="M49.11,56.56a1,1,0,0,1,1-1.08,1,1,0,0,1,.8.39l.07-.34h.34v2.93H51l-.07-.34a1,1,0,0,1-.8.39,1,1,0,0,1-1-1.08Zm1.79.86v-.83a.68.68,0,0,0-.7-.72.62.62,0,0,0-.65.68v.92a.62.62,0,0,0,.65.68A.67.67,0,0,0,50.9,57.42Z" class="cls-6"/><path transform="translate(-3.73 -8.01)" d="M52.55,54.42v4.05h-.44V54.42Z" class="cls-6"/><path transform="translate(-3.73 -8.01)" d="M53.55,54.43a.28.28,0,1,1-.29.29A.28.28,0,0,1,53.55,54.43Zm.22,1.11v2.93h-.44V55.54Z" class="cls-6"/><path transform="translate(-3.73 -8.01)" d="M54.44,56.56a1,1,0,0,1,1-1.08,1,1,0,0,1,.8.39l.07-.34h.34v2.93h-.34l-.07-.34a1,1,0,0,1-.8.39,1,1,0,0,1-1-1.08Zm1.79.86v-.83a.68.68,0,0,0-.7-.72.62.62,0,0,0-.65.68v.92a.62.62,0,0,0,.65.68A.67.67,0,0,0,56.23,57.42Z" class="cls-6"/></svg>