<svg xmlns="http://www.w3.org/2000/svg" id="Layer_1" width="70" height="70" viewBox="0 0 5000 5000"><defs><style>.cls-1{fill:#00568f;}.cls-2{fill:#51beed;}.cls-3{fill:#64b052;}</style></defs><path d="M2858.36,4364.9c-11.23-25.34-49.15-25.93-53.49-25.93s-42.26.59-53.5,25.93c-9,20.23-74.13,167.89-100.53,226.78-6.58,14.67,4,24.93,20.14,24.93h35.61l33.4-75.27h129.75l24.71,55.6c6.61,14.87,18.51,19.65,31.3,19.65h44.19Zm-96.08,126.33,42.61-96.09,42.84,96.09Z" class="cls-1"/><path d="M4192.4,4364.9c-11.23-25.34-49.15-25.93-53.49-25.93s-42.26.59-53.49,25.93c-9,20.23-74.13,167.89-100.53,226.78-6.58,14.67,4,24.93,20.14,24.93h35.61l33.4-75.27h129.75l24.71,55.6c6.61,14.87,18.51,19.65,31.3,19.65H4304Zm-96.12,126.33,42.61-96.09,42.84,96.09Z" class="cls-1"/><path d="M3079.69,4340.17h-31.41c-21.89,0-31.42,9.78-31.42,26.07v223.82c0,24.18,22.15,26.11,33.83,26.11h29v-276Z" class="cls-1"/><path d="M3874.62,4530.88V4366.24c0-16.29,9.53-26.07,31.42-26.07h31.42v190.72c0,16.57-2,36.24-28.61,59.8-33.34,29.57-83,31.73-98.57,31.73s-57.81-2.29-89.22-28.79c-35.39,26.26-75.1,28.79-96,28.79s-54.89-5.83-79.93-23-40.5-35.61-40.5-68.54V4366.25c0-16.29,9.53-26.07,31.42-26.07h31.42V4530.9c0,17.71,8,23.59,15.65,29s24.78,12.16,45.46,12.16,39.65-7.92,45.39-12.27c8.37-6.35,15.64-11.3,15.64-28.92V4366.26c0-16.29,9.54-26.07,31.42-26.07h31.25v190.73c0,17.71,8,23.59,15.65,29s24.78,12.16,45.46,12.16,39.65-7.92,45.39-12.27c8.37-6.35,15.65-11.3,15.65-28.92" class="cls-1"/><path d="M3384.36,4526.38c-3.61-4.88-8.41-11.33-12.36-14.35,10.52-4.8,49.55-20.56,59.23-67.79s-28.29-89.36-68-99.81c-15.46-5-30.51-4.26-35.82-4.26H3193.54c-21.89,0-31.42,9.78-31.42,26.07v223.82c0,24.18,22.15,26.11,33.83,26.11h29v-96.61l73.07.08c8.49,0,15.94,2.69,20.72,11.42s36,64.94,39.14,71.34,16.61,14.21,32.55,14.21H3434S3388,4531.26,3384.36,4526.38Zm-56.56-57.57H3225v-78.27H3327.8c35,0,41.6,27.67,41.6,39.14S3362.8,4468.81,3327.8,4468.81Z" class="cls-1"/><path d="M4471.28,4511.31,4602,4340.19h-52.32c-14.55,0-25.92,6.19-33.61,16s-73.83,96.75-73.83,96.75h-5.1l-86.18-112.8H4315.1c-7.61,0-15.58,2.18-18.63,8.78s-.81,13.92,1.72,17.48,110.24,144.85,110.24,144.85v79.21c0,24.18,22.15,26.11,33.84,26.11h29V4511.31Z" class="cls-1"/><path d="M4892.18,4410.12s-19.13,7.35-29.8,10.58-26.41-.09-33.18-5.29-9.54-10.8-16.59-15.17-26.85-17.75-67.22-16.42-70.55,15.53-70.55,36.76,16.26,28,54.06,32,61-5.81,106.55,11,58.15,48.68,58.15,68.75-14.76,90.1-138.24,90.1-145.19-76.25-145.19-76.25,17.87-6,26-9.22c5.07-2,15-3.09,25.25-.9,13.63,2.91,19.06,12.13,21.33,14.22,14,12.95,30.43,19.29,59.57,21.69,34.72,2.86,91-5,88.24-38.82-2.64-32.11-56.09-30.93-85-29.57-21.72,1-59.84-1.09-90-15.76-28.27-13.75-53.62-48.87-40.85-85.61,17.24-49.61,73.49-68.54,131.57-68.54,23.27,0,50.58,3.47,75.14,12.91C4854.07,4359.11,4882.14,4381.22,4892.18,4410.12Z" class="cls-1"/><path d="M572.43,3239.21c10,.17,107-.91,146.34-2.49s193.56-8.72,310.77-22.61,484.64-61.43,648.68-94.78,571.79-114.8,923.42-228.49,658.25-289.55,781.88-444.56c57.57-72.19,91.24-129.47,118.18-178.7,30.91-56.48,51.92-102.2,72.64-145-36.13-.94-151.47-3.71-358.12,14.93-176.07,15.87-350.81,44.73-369.92,47.78-36.51,5.84-95.34,16.15-136.87,23.7-134.73,24.51-300.76,63.12-327,69.41s-55.73,13.85-83.83,20.95c-63.13,16-197.57,52.09-384.53,114.53-170.68,57-329.42,126-340.86,130.91-23.43,10-53,23.23-131.82,59.35-39.48,18.13-240.93,113.32-449.65,249.32-122.13,79.59-246.08,179.28-339.2,258.37C587,3167.49,536.7,3213,513.1,3234c0,0,16.77,2.36,21.38,2.8S562.39,3239,572.43,3239.21Z" class="cls-1"/><path d="M3574.28,2122.63c-20.72,42.76-41.73,88.47-72.64,145-26.94,49.23-60.61,106.51-118.18,178.7-123.63,155-430.25,330.87-781.88,444.56S1842.28,3086,1678.2,3119.34s-531.47,80.89-648.68,94.78-271.46,21-310.77,22.61-136.29,2.66-146.34,2.49-33.35-1.92-38-2.36-21.38-2.8-21.38-2.8a128.69,128.69,0,0,0,16.68,6.74,338.09,338.09,0,0,0,34.45,8.9c9.65,1.87,33,6.06,52.73,8.57s105.62,11.92,119.2,13.24,198.81,19.7,339.77,23,429.86,16.06,868.16-38.86c415.63-52.08,961-178.92,1369.69-347.82s642.57-306.15,777.49-392.37S4519.6,2232,4519.6,2232C4125.89,2123.62,3650.17,2124.59,3574.28,2122.63Z" class="cls-2"/><path d="M3694.07,101.09s220.56-12.13,319.5-5.38c11.83.81,66.33,3.17,56.1,108.2-7.09,72.8-48.11,226.7-60.74,276.32s-103.82,415.51-116.51,466.35c-6.82,27.32-71.57,288.35-136.84,526.89-56.2,205.38-114.44,393.81-117.18,405.15Z" class="cls-3"/><path d="M3574.28,2122.63c-36.13-.94-151.47-3.71-358.12,14.93-176.07,15.87-350.82,44.73-369.93,47.78L2818.82,562.46l11.46-11q111.9-106.73,226.19-210.76c91.84-83.51,174.47-159.56,297.89-191.59,61.25-15.88,123-26.87,185-34.63Z" class="cls-3"/><path d="M513.08,3234.05c20.3-28.17,97.93-125.2,150.79-189.58,38.57-47,275.91-331.66,423.43-511.19,54.62-66.47,96.12-120,111.81-139.6,58.06-72.54,197.07-242.62,197.07-242.62l45.15,453.12h0c-39.5,18.1-240.95,113.28-449.67,249.28-122.13,79.59-246.08,179.28-339.2,258.37C586.93,3167.53,536.67,3213,513.08,3234.05Z" class="cls-3"/><path d="M2298.52,2299.39c-63.13,16-197.57,52.09-384.53,114.53-170.68,57-329.42,126-340.86,130.91l41.47-671.22c207.56-243,422.21-485.55,629.43-720.16,45.31-51.29,93.85-104.41,144.62-158.53L2298.52,2299.4Z" class="cls-3"/><path d="M2709.42,2209.06c-134.74,24.51-300.78,63.09-327.07,69.38l8.34-1285.68c103.15-109.87,215.6-223.81,329.66-335.18Z" class="cls-3"/><path d="M674.19,3876.9c36.26-30.23,60.35-79.1,56-142.14-5-72.44-78.89-163.87-214.11-163.87H206.84q-75.56,0-75.56,57.87v496.32q0,57.87,75.56,57.87H516.09c123.43,0,201.61-75.74,212.32-154C737.41,3963,713.45,3911.29,674.19,3876.9Zm-158.1,193.5H271.15V3932.1H516.09c62.69,0,74.5,48.89,74.5,69.15s-11.82,69.15-74.5,69.15Zm0-249.77H271.15v-138.3H516.09c62.69,0,74.5,48.89,74.5,69.15s-11.82,69.15-74.5,69.15Z" class="cls-1"/><path d="M3230.57,3876.9c36.26-30.23,60.34-79.1,56-142.14-5-72.44-78.89-163.87-214.11-163.87H2763.22q-75.54,0-75.56,57.87v496.32q0,57.87,75.56,57.87h309.25c123.43,0,201.61-75.74,212.31-154C3293.79,3963,3269.82,3911.29,3230.57,3876.9Zm-158.1,193.5H2827.53V3932.1h244.94c62.68,0,74.5,48.89,74.5,69.15S3135.15,4070.4,3072.47,4070.4Zm0-249.77H2827.53v-138.3h244.94c62.68,0,74.5,48.89,74.5,69.15S3135.15,3820.63,3072.47,3820.63Z" class="cls-1"/><path d="M1301.28,3625.59c-24.87-56.1-108.82-57.41-118.44-57.41s-93.56,1.28-118.46,57.41c-19.86,44.8-164.14,371.75-222.59,502.12-14.56,32.48,8.82,55.19,44.58,55.19h78.84l74-166.66h287.3l54.71,123.11c14.63,32.93,41,43.52,69.31,43.52h97.85S1326.13,3681.7,1301.28,3625.59Zm-212.8,279.72,94.34-212.77,94.85,212.77Z" class="cls-1"/><path d="M2505,3571H1720.93c-48.53,0-69.68,21.69-69.68,57.82v496.29c0,53.61,49.12,57.9,75,57.9h64.34V3711.17h575.05v413.89c0,53.61,49.12,57.9,75,57.9H2505V3571Z" class="cls-1"/><path d="M2020.62,3800.58V4202c0,45.35,41.55,49,63.46,49h54.43V3800.57H2020.62Z" class="cls-3"/><path d="M4003.57,3619.66A352.27,352.27,0,0,0,3899.28,3572q-56.52-15.49-121.9-15.49-131.82,0-226.16,63.25-100.75,67.53-100.77,163.45v186q0,97.53,100.77,164,93.77,62.68,226.16,62.71,130.26,0,226.19-62.71,100.77-66.48,100.77-164v-186Q4104.34,3687.16,4003.57,3619.66Zm-38.66,257.25v89.74c0,14.67-1.09,28.26-15,48.28-26,37.59-88.34,71-172.58,71s-146.56-33.42-172.58-71c-13.86-20-14.95-33.61-14.95-48.28V3787.17c0-14.67,1.09-28.26,14.95-48.28,26-37.59,88.34-71,172.58-71s146.56,33.42,172.58,71c13.86,20,15,33.61,15,48.28Z" class="cls-1"/><path d="M4800.51,3619.66A352.19,352.19,0,0,0,4696.28,3572q-56.56-15.49-122-15.49-131.82,0-226.16,63.25-100.76,67.53-100.77,163.45v186q0,97.53,100.77,164,93.78,62.68,226.16,62.71,130.26,0,226.19-62.71,100.77-66.48,100.77-164v-186Q4901.29,3687.16,4800.51,3619.66Zm-38.66,257.25v89.74c0,14.67-1.09,28.26-15,48.28-26,37.59-88.34,71-172.59,71s-146.55-33.42-172.58-71c-13.86-20-14.95-33.61-14.95-48.28V3787.17c0-14.67,1.09-28.26,14.95-48.28,26-37.59,88.34-71,172.58-71s146.56,33.42,172.59,71c13.86,20,15,33.61,15,48.28Z" class="cls-1"/></svg>