<svg xmlns="http://www.w3.org/2000/svg" version="1.1" width="70px" height="70px" viewBox="0 0 70 70"><g id="surface1"><path d="M 28.28125 22.894531 C 29.554688 22.648438 32.777344 22 33.914062 21.648438 C 35.054688 21.285156 41.367188 19.976562 44.632812 19.894531 C 47.898438 19.8125 47.699219 20.121094 47.800781 20.964844 C 47.898438 21.8125 48.183594 22.105469 47.777344 22.90625 C 47.367188 23.707031 46.671875 24.046875 45.691406 24.621094 C 43.886719 25.667969 35.910156 28.644531 34.839844 29.410156 C 36.484375 29.292969 38.894531 28.644531 41.269531 28.550781 C 42.855469 28.480469 43.082031 28.984375 43.207031 29.972656 C 43.339844 30.972656 43.429688 31.5 42.351562 32.125 C 41.277344 32.738281 40.007812 33.382812 37.480469 34.417969 C 34 35.839844 31.878906 36.558594 29.222656 38.132812 C 30.683594 38.320312 33.058594 38.027344 34.960938 38.132812 C 37.8125 38.308594 37.980469 38.746094 38.046875 39.945312 C 38.113281 41.144531 38.179688 41.484375 37.007812 42.25 C 35.835938 43 33.714844 43.777344 32.511719 44.128906 C 31.304688 44.496094 26.828125 45.847656 25.964844 46.175781 C 25.207031 46.457031 24.535156 47.730469 23.335938 48.304688 C 22 48.953125 21.417969 48.691406 20.984375 47.328125 C 20.671875 46.339844 21.550781 45.425781 22.65625 44.976562 C 23.761719 44.519531 27.027344 43.496094 28.414062 42.976562 C 29.8125 42.460938 32.578125 41.378906 33.507812 40.863281 C 32.277344 40.875 29.210938 40.945312 26.9375 41.015625 C 25.574219 41.050781 25.050781 40.957031 24.824219 39.519531 C 24.601562 38.085938 25.042969 37.582031 26.269531 37.015625 C 27.507812 36.453125 29.363281 35.253906 30.566406 34.699219 C 31.773438 34.136719 35.105469 32.453125 36.050781 32.148438 C 33.800781 32.078125 28.6875 33.664062 27.367188 34.078125 C 26.355469 34.382812 26.222656 33.878906 25.839844 32.878906 C 25.449219 31.878906 25.945312 31.207031 26.570312 30.996094 C 27.328125 30.738281 28.855469 29.679688 30.941406 28.515625 C 32.621094 27.5625 35.003906 26.5625 36.765625 25.714844 C 38.4375 24.917969 41.261719 23.554688 42.167969 23.011719 C 41.4375 23.011719 38.085938 23.707031 35.902344 24.128906 C 33.714844 24.550781 29.96875 25.632812 29.402344 25.941406 C 28.832031 26.246094 28.175781 26.140625 27.792969 24.90625 C 27.410156 23.695312 27.75 23.011719 28.289062 22.90625 " style=" stroke:none;fill-rule:nonzero;fill:rgb(94.901961%,56.078434%,0%);fill-opacity:1;"/></g></svg>