<svg xmlns="http://www.w3.org/2000/svg" id="Layer_1" width="70" height="70" x="0" y="0" enable-background="new 0 0 70 70" version="1.1" viewBox="0 0 70 70" xml:space="preserve"><metadata/><rect width="70" height="70" fill="none"/><g><path fill="#365738" d="M67.4,2.4c0,0-3.301,3.3-3.5,3.7c0,0.1-0.2,0.3-0.301,0.6c0.301-0.1,0.5-0.1,0.5-0.1 c-0.3,0.3-0.5,0.5-0.899,0.7C62.5,8.4,61.6,9.9,61.6,9.9L61.4,10.4c0.3,0,0.399-0.1,0.399-0.1c-0.2,0.3-0.399,0.5-0.7,0.7 L59.9,13.8l-0.7,1.5c0.2,0,0.399,0,0.399,0c-0.199,0.2-0.3,0.3-0.6,0.4l-1.4,2.9l-0.8,1.8c0.3,0,0.4,0,0.4,0 c-0.2,0.1-0.4,0.3-0.601,0.4l-2.1,4.9l-0.4,0.9c0.4-0.1,0.7-0.1,0.7-0.1c-0.2,0.4-0.6,0.8-1.1,1l-2,3.9c0,0-0.3,0.6-0.7,1.4 c0.4-0.1,0.5-0.1,0.5-0.1c-0.2,0.3-0.5,0.6-0.9,0.8C49.5,35.6,47.9,38.7,47.9,39C47.8,39.4,44.3,43.2,44.3,43.2L43.8,45L42,46.8 l0.4,0.7c0,0,3.5-4.1,5.6-6.8c4.8-6.4,11.5-24.4,16.7-33.2C66.3,4.9,68.1,2.8,68.9,2L67.4,2.4z"/><path fill="#365738" d="M34.9,53.7l-3.5,2.6L25.6,60.4c0,0-9.2,6.6-9.4,6.6l0.1,1.5c1-0.8,5.1-4.5,7-5.6 c2.1-1.301,10.8-7.4,12.4-9.2l-0.6-0.2L34.9,53.7z"/></g><g><path fill="#A0CD41" d="M28.6,26c0,0,1.6-7.5,13.2-15.2C53.4,3.1,68.2,1.9,68.2,1.9S65.6,4.4,63.6,7.8C58.4,16.6,51.8,34.7,46.9,41 C44.8,43.7,42.1,46.9,42.1,46.9l-3.5-4L36.3,41.3c0,0,2.101-0.399,4.101-0.3c2.1,0.1,5.3,0.2,6-1.4c0,0-3.301,0.601-5.5,0.101 c-2.2-0.5-3.301-1-4.101-0.9l1.8-3.6c0,0,3.4-0.5,4.9-0.5c2.5,0,5.8,0.1,6.9-1.6c0,0-2.101,0.7-5,0.2c-2.9-0.4-4.9-0.6-5.601-0.6 l1.7-3.5c0,0,2.1-0.5,4.5-0.4c2.4,0.1,7-0.4,7.7-2.1c0,0-2.5,0.5-4.4,0.5c-1.899,0-5.5-0.5-6.8,0.1l3-4.8c0,0,7.4,0.6,10.6-1.8 c0,0-7.1,0.7-9.199,0.1l2.899-3.7c0,0,6.5,0.6,8.601-1.4c0,0-4.5,0.6-7.101-0.3l3-3.1c0,0,5,0.7,6.4-1.6c0,0-3.7,0.7-5.101,0.2 l3.2-3.1c0,0,2.7,0.7,4.101-1c0,0-1.2,0.5-2.601,0c0,0,1.601-1.5,4.7-3.4l-2.3,1c0,0-0.2-0.7,0.2-1.2c0,0-0.9,1.1-0.9,1.6 c0,0-3.4,2-4.5,2.9c0,0-0.3-2.1,0.3-2.8c0,0-2,1.2-2,3.7c0,0-2.2,1.7-3.2,2.8c0,0-1.1-1.9,0.2-4.6c0,0-2.5,2.1-2,6.4l-3.5,3.5 c0,0-1.3-2.8,0.2-7.2c0,0-3.1,2.4-1.7,9.1l-2.3,3c0,0-0.1-1.5-0.6-2.7c-0.5-1.2-1.601-5-1-6.4c0,0-1.7,2.1-1.2,5.2 c0.5,3.1,1,4.9,0.899,6.3l-2,2.8c0,0-1.1-2.6-1.399-3.1c-0.3-0.6-1.9-5.3-1.101-7.1c0,0-2.2,3.1-0.5,9.1L34.3,25h-2.6 c0,0-0.4-1.6-0.1-2.5c0,0-0.8,1.6-1,2.6L28.6,26z"/><path fill="#A0CD41" d="M16.1,64.9l0.2,3.1c0,0,3.9-3.5,6-4.8c2.1-1.3,10.8-7.4,12.4-9.2l-2.8-0.8l-2.6-0.8l-2,3.1 c0,0,2.6,0.4,4.4-0.7c0,0-1.4,2.8-5.2,2.2c0,0-3.1,3.5-4.8,4.9c0,0,3.6-5.7,4.4-7L25.5,53.3l-3,5C22.5,58.3,20.7,63.1,16.1,64.9z"/><polygon fill="#A0CD41" points="26.3 50 27.1 52.8 28.1 51.6"/></g><radialGradient id="SVGID_1_" cx="294.519" cy="400.699" r="8.59" gradientTransform="matrix(1 0 0 1 -271 -359)" gradientUnits="userSpaceOnUse"><stop offset=".412" style="stop-color:#fdf5a1"/><stop offset="1" style="stop-color:#fff"/></radialGradient><circle cx="23.5" cy="41.7" r="8.6" fill="url(#SVGID_1_)"/><path fill="#D05828" d="M1.5,42.7L2.1,43.6c1.5,2,5.7,6.5,12,5.5c-0.8,2-2.4,7.601,1.1,12.101c0,0,10.4,1.399,10.6-10.9 c1.5,1.2,5.6,4.101,8.9,4.101c5.399,0.1,8.2-5.101,8.2-5.101s-0.601-7.399-9-8.8c-0.2,0-0.4,0-0.6-0.1c1.3-1.101,4.3-4,4.601-6.7 c0.399-3.5,0.399-5.4-1.2-8c0,0-5.5-2.4-9.8,1.3c-0.8,0.7-1.5,1.5-2,2.4v-0.7c-3.6-8.5-12-8.4-12-8.4s-3.6,5.9-1.5,11.4 c0.4,1.1,1,2.1,1.7,3.1c-2,0.5-9.2,2.7-11.7,7.5L1.5,42.7z M36.4,25.8c0,0,2.1,4.4,0.899,7.1c-1,2.5-2.4,5.6-5.6,7.5 C29.3,40.6,27,41.8,25.8,42.5c-0.5-1.7,1.4-5.6,1.4-5.6c-2,0.699-2.8,4.3-2.8,4.3s-1.2-8.6,1.2-11.5C28.2,26.8,30.4,24.7,36.4,25.8z M13.9,21.2c9.8,1.8,10.7,8.1,10.7,8.1l0.4,0.4c-1.8,3.5-2,7.899-1.7,10.6c-1.3-1.399-1.9-3.5-1.9-3.5c-0.3,0.8,0,2.7,0.2,3.7 C6.4,30.6,13.9,21.2,13.9,21.2z M2.6,42.8c0,0,2.8-5.8,11.5-7.1c2.5,3,5.8,5.1,7.7,6c-0.5,0.8-1.9,1.2-1.9,1.2l1.8,0.5 c-1.6,1.5-5.1,4.3-9.4,4.3C5,47.6,2.6,42.8,2.6,42.8z M24,54.3c-2.1,4.4-4.5,6.2-8.3,6.3c0,0-3.7-2.8-0.5-11.8 c2.3-0.6,4.8-1.899,7.6-4.3c0.1,1.5-0.7,5.1-0.7,5.1l1.8-3.899C24.6,47.4,25.6,51.1,24,54.3z M34.9,53.4c-4.9,0-8.2-3-9.1-4.301 c0-1.399-0.2-2.899-0.5-4.6l-0.1-0.1c1.1-0.7,4-0.5,4-0.5C28.8,43.3,27.4,43.3,26.4,43.3c1.2-0.6,4.1-1.899,6.9-1.899 c3.601,0,8.7,3.8,9.2,7.5C42.4,49.1,40.5,53.4,34.9,53.4z"/></svg>