<svg xmlns="http://www.w3.org/2000/svg" width="70" height="70" version="1.1" viewBox="0 0 70 70"><defs><clipPath id="clip1"><path d="M 33 36 L 36 36 L 36 43 L 33 43 Z M 33 36"/></clipPath><clipPath id="clip2"><path d="M 33.183594 39.410156 L 33.183594 42.484375 L 35.246094 42.484375 L 35.246094 36.285156 Z M 33.183594 39.410156"/></clipPath><linearGradient id="linear0" x1="6738.287" x2="6740.024" y1="2383.135" y2="2383.135" gradientTransform="matrix(-0.30989,-3.542023,-3.542023,0.30989,10563.713672,23171.203125)" gradientUnits="userSpaceOnUse"><stop offset=".097" style="stop-color:#ffd600;stop-opacity:1"/><stop offset=".264" style="stop-color:#c7c621;stop-opacity:1"/><stop offset=".533" style="stop-color:#73ae54;stop-opacity:1"/><stop offset=".754" style="stop-color:#359c79;stop-opacity:1"/><stop offset=".915" style="stop-color:#0f9190;stop-opacity:1"/><stop offset="1" style="stop-color:#008d99;stop-opacity:1"/></linearGradient></defs><g id="surface1"><path d="M 18.703125 34.140625 C 20.199219 34.660156 24.316406 34.25 25.988281 32.582031 C 25.988281 32.582031 24.988281 32.378906 24.277344 32.175781 C 22.429688 33.421875 20.148438 34.613281 18.703125 34.140625" style="stroke:none;fill-rule:nonzero;fill:#7ab929;fill-opacity:1"/><path d="M 16.082031 38.289062 C 15.78125 38.613281 15.507812 39.214844 15.257812 40.054688 C 14.808594 41.539062 14.257812 41.8125 14.257812 41.8125 C 14.257812 41.8125 14.964844 41.8125 15.722656 41.523438 C 15.730469 41.503906 15.742188 41.480469 15.746094 41.460938 C 16.253906 40.167969 16.121094 38.953125 16.082031 38.289062" style="stroke:none;fill-rule:nonzero;fill:#008d99;fill-opacity:1"/><path d="M 19.382812 37.785156 C 19.355469 39.957031 18.378906 41.15625 17.351562 41.816406 C 17.003906 42.042969 16.652344 42.210938 16.339844 42.332031 C 16.160156 43.3125 15.757812 43.734375 15.757812 43.734375 C 15.757812 43.734375 18.59375 43.371094 19.289062 39.988281 C 19.589844 38.347656 19.351562 36.976562 19.351562 36.976562 C 19.378906 37.261719 19.386719 37.53125 19.382812 37.785156" style="stroke:none;fill-rule:nonzero;fill:#ffd600;fill-opacity:1"/><path d="M 25.953125 28.824219 C 26.625 28.875 27.226562 29.011719 27.886719 29.273438 C 28.117188 29.082031 28.6875 28.511719 29.632812 27.949219 C 28.570312 26.691406 26.125 27.308594 24.261719 28.027344 C 23.441406 28.34375 22.707031 28.675781 22.207031 28.882812 C 20.625 29.527344 17.316406 31.078125 15.8125 29.507812 C 15.140625 28.5625 15.644531 27.925781 15.210938 27.210938 C 14.65625 26.292969 13.523438 26.050781 12.582031 26.4375 C 10.597656 27.25 8.445312 26.03125 6.40625 26.367188 C 8.023438 26.960938 10.238281 26.703125 11.476562 28.085938 C 12.492188 29.214844 12.699219 31.246094 13.199219 32.933594 C 13.519531 31.027344 15.835938 30.574219 15.835938 30.574219 C 15.109375 30.808594 13.777344 31.722656 13.871094 33.617188 C 13.96875 35.59375 17.074219 36.957031 17.074219 39.375 C 17.074219 40.171875 16.878906 40.503906 16.507812 41.347656 C 16.742188 40.101562 16.558594 39.269531 16.082031 38.28125 C 16.125 38.949219 16.253906 40.164062 15.746094 41.457031 C 15.742188 41.480469 15.730469 41.5 15.722656 41.519531 C 15.570312 41.898438 15.359375 42.285156 15.074219 42.667969 C 15.074219 42.667969 15.625 42.613281 16.339844 42.328125 C 16.652344 42.207031 17.003906 42.039062 17.351562 41.8125 C 18.378906 41.152344 19.355469 39.953125 19.382812 37.777344 C 19.386719 37.523438 19.375 37.257812 19.351562 36.972656 C 19.304688 36.335938 19.1875 35.636719 18.953125 34.867188 C 18.921875 34.769531 18.890625 34.667969 18.859375 34.566406 C 18.855469 34.5625 18.851562 34.558594 18.851562 34.550781 C 18.808594 34.410156 18.757812 34.273438 18.703125 34.132812 C 20.152344 34.609375 22.429688 33.417969 24.28125 32.171875 C 25.507812 31.347656 26.546875 30.496094 27.023438 30.097656 C 27.019531 30.097656 27.019531 30.097656 27.023438 30.09375 C 26.242188 29.417969 25 29.292969 23.976562 29.316406 C 22.910156 29.339844 21.886719 29.632812 20.980469 30.132812 C 22.167969 29.316406 23.59375 28.828125 25.113281 28.796875 C 25.390625 28.792969 25.667969 28.804688 25.953125 28.824219" style="stroke:none;fill-rule:nonzero;fill:#1c371f;fill-opacity:1"/><g clip-path="url(#clip1)" clip-rule="nonzero"><g clip-path="url(#clip2)" clip-rule="nonzero"><path d="M 33.199219 42.664062 L 32.644531 36.328125 L 35.234375 36.105469 L 35.785156 42.4375 Z M 33.199219 42.664062" style="stroke:none;fill-rule:nonzero;fill:url(#linear0)"/></g></g><path d="M 28.269531 36.285156 L 30.429688 36.285156 L 31.757812 38.460938 L 33.085938 36.285156 L 35.246094 36.285156 L 33.183594 39.410156 L 31.757812 41.613281 L 31.722656 41.613281 L 30.296875 39.410156 L 30.296875 42.484375 L 28.269531 42.484375 Z M 28.269531 36.285156" style="stroke:none;fill-rule:nonzero;fill:#1c371f;fill-opacity:1"/><path d="M 26.074219 39.976562 C 26.050781 40.015625 26.027344 40.050781 26.007812 40.089844 C 25.761719 40.488281 25.441406 40.757812 24.902344 40.757812 C 24.222656 40.757812 23.742188 40.1875 23.742188 39.382812 L 23.742188 39.367188 C 23.742188 39.210938 23.765625 39.066406 23.800781 38.925781 C 23.945312 38.394531 24.351562 38.011719 24.902344 38.011719 C 25.464844 38.011719 25.789062 38.316406 26.019531 38.75 C 26.027344 38.753906 26.035156 38.753906 26.042969 38.753906 C 26.375 38.511719 26.726562 38.289062 27.09375 38.085938 C 27.308594 37.96875 27.523438 37.859375 27.738281 37.761719 C 27.738281 37.761719 27.734375 37.757812 27.734375 37.757812 C 27.210938 36.8125 26.292969 36.152344 24.929688 36.152344 C 23.078125 36.152344 21.632812 37.535156 21.632812 39.382812 L 21.632812 39.402344 C 21.632812 39.734375 21.679688 40.046875 21.761719 40.339844 C 21.785156 40.421875 21.8125 40.507812 21.84375 40.585938 C 22.074219 41.203125 22.484375 41.703125 23 42.054688 C 23.53125 42.414062 24.171875 42.617188 24.851562 42.617188 C 26.394531 42.617188 27.261719 41.863281 27.78125 40.945312 Z M 26.074219 39.976562" style="stroke:none;fill-rule:nonzero;fill:#1c371f;fill-opacity:1"/><path d="M 39.898438 36.203125 L 40.4375 36.203125 L 40.4375 36.792969 L 39.898438 36.792969 Z M 39.953125 37.96875 L 40.386719 37.96875 L 40.386719 42.472656 L 39.953125 42.472656 Z M 39.953125 37.96875" style="stroke:none;fill-rule:nonzero;fill:#1c371f;fill-opacity:1"/><path d="M 44.472656 38.375 C 43.433594 38.375 42.523438 39.164062 42.523438 40.628906 L 42.523438 42.472656 L 42.089844 42.472656 L 42.089844 37.96875 L 42.523438 37.96875 L 42.523438 39.25 C 42.875 38.449219 43.625 37.867188 44.519531 37.898438 L 44.519531 38.375 Z M 44.472656 38.375" style="stroke:none;fill-rule:nonzero;fill:#1c371f;fill-opacity:1"/><path d="M 45.683594 36.027344 L 46.117188 36.027344 L 46.117188 42.472656 L 45.683594 42.472656 Z M 45.683594 36.027344" style="stroke:none;fill-rule:nonzero;fill:#1c371f;fill-opacity:1"/><path d="M 47.828125 36.203125 L 48.367188 36.203125 L 48.367188 36.792969 L 47.828125 36.792969 Z M 47.882812 37.96875 L 48.3125 37.96875 L 48.3125 42.472656 L 47.882812 42.472656 Z M 47.882812 37.96875" style="stroke:none;fill-rule:nonzero;fill:#1c371f;fill-opacity:1"/><path d="M 53.441406 42.472656 L 53.441406 39.800781 C 53.441406 38.875 52.921875 38.265625 52.011719 38.265625 C 51.128906 38.265625 50.449219 38.9375 50.449219 39.871094 L 50.449219 42.476562 L 50.015625 42.476562 L 50.015625 37.972656 L 50.449219 37.972656 L 50.449219 38.8125 C 50.75 38.28125 51.25 37.867188 52.074219 37.867188 C 53.210938 37.867188 53.875 38.644531 53.875 39.71875 L 53.875 42.472656 Z M 53.441406 42.472656" style="stroke:none;fill-rule:nonzero;fill:#1c371f;fill-opacity:1"/><path d="M 57.347656 42.171875 C 58.042969 42.171875 58.519531 41.863281 58.890625 41.464844 L 59.191406 41.730469 C 58.730469 42.222656 58.191406 42.578125 57.328125 42.578125 C 56.148438 42.578125 55.121094 41.632812 55.121094 40.230469 L 55.121094 40.210938 C 55.121094 38.90625 56.042969 37.867188 57.261719 37.867188 C 58.523438 37.867188 59.324219 38.890625 59.324219 40.222656 L 59.324219 40.238281 C 59.324219 40.300781 59.324219 40.328125 59.316406 40.398438 L 55.582031 40.398438 C 55.660156 41.519531 56.460938 42.171875 57.347656 42.171875 M 58.855469 40.007812 C 58.792969 39.101562 58.273438 38.261719 57.242188 38.261719 C 56.351562 38.261719 55.660156 39.011719 55.582031 40.007812 Z M 58.855469 40.007812" style="stroke:none;fill-rule:nonzero;fill:#1c371f;fill-opacity:1"/><path d="M 62.042969 42.558594 C 61.390625 42.558594 60.675781 42.292969 60.199219 41.90625 L 60.453125 41.5625 C 60.949219 41.945312 61.496094 42.152344 62.070312 42.152344 C 62.679688 42.152344 63.152344 41.816406 63.152344 41.296875 L 63.152344 41.277344 C 63.152344 40.75 62.589844 40.554688 61.960938 40.378906 C 61.230469 40.164062 60.417969 39.945312 60.417969 39.140625 L 60.417969 39.125 C 60.417969 38.402344 61.027344 37.878906 61.902344 37.878906 C 62.441406 37.878906 63.050781 38.074219 63.5 38.375 L 63.269531 38.734375 C 62.855469 38.460938 62.359375 38.285156 61.882812 38.285156 C 61.265625 38.285156 60.859375 38.621094 60.859375 39.070312 L 60.859375 39.089844 C 60.859375 39.59375 61.46875 39.777344 62.113281 39.964844 C 62.835938 40.167969 63.597656 40.433594 63.597656 41.226562 L 63.597656 41.242188 C 63.59375 42.050781 62.90625 42.558594 62.042969 42.558594" style="stroke:none;fill-rule:nonzero;fill:#1c371f;fill-opacity:1"/><path d="M 33.828125 42.472656 L 33.332031 42.472656 L 37.371094 36.292969 L 38.273438 36.292969 L 38.273438 42.472656 L 37.8125 42.472656 L 37.8125 40.742188 L 34.964844 40.742188 Z M 35.234375 40.328125 L 37.8125 40.328125 L 37.8125 36.707031 L 37.597656 36.707031 Z M 35.234375 40.328125" style="stroke:none;fill-rule:nonzero;fill:#1c371f;fill-opacity:1"/></g></svg>