<svg xmlns="http://www.w3.org/2000/svg" width="70" height="70" version="1.1" viewBox="0 0 70 70"><g id="surface1"><path d="M 57.429688 27.425781 C 61 29.925781 64.59375 32.394531 68.121094 34.945312 C 69.359375 35.839844 69.355469 36.132812 68.136719 37.023438 C 64.964844 39.339844 61.734375 41.574219 58.523438 43.835938 C 58.148438 44.117188 57.738281 44.332031 57.296875 44.484375 C 57.984375 43.851562 58.695312 43.238281 59.355469 42.574219 C 60.855469 41.074219 62.335938 39.546875 63.816406 38.023438 C 63.972656 37.851562 64.117188 37.671875 64.25 37.476562 C 65.25 36.105469 65.328125 35.695312 64.144531 34.457031 C 62.097656 32.308594 59.929688 30.273438 57.8125 28.195312 C 57.628906 28.011719 57.429688 27.84375 57.238281 27.667969 C 57.304688 27.585938 57.367188 27.507812 57.429688 27.425781" style="stroke:none;fill-rule:nonzero;fill:#064b92;fill-opacity:1"/><path d="M 53.902344 28.199219 C 57.148438 30.5 60.414062 32.777344 63.632812 35.121094 C 64.496094 35.75 64.476562 36.058594 63.574219 36.722656 C 60.382812 39.078125 57.160156 41.386719 53.953125 43.710938 C 53.902344 43.648438 53.851562 43.585938 53.800781 43.523438 C 54.960938 42.410156 56.160156 41.328125 57.277344 40.167969 C 58.246094 39.167969 59.136719 38.089844 60.039062 37.023438 C 60.683594 36.261719 60.703125 35.449219 59.988281 34.71875 C 58.125 32.816406 56.242188 30.933594 54.363281 29.042969 C 54.15625 28.835938 53.9375 28.636719 53.722656 28.433594 C 53.785156 28.351562 53.84375 28.273438 53.90625 28.195312" style="stroke:none;fill-rule:nonzero;fill:#1281a7;fill-opacity:1"/><path d="M 50.554688 29.160156 C 53.53125 31.269531 56.527344 33.359375 59.476562 35.507812 C 60.273438 36.085938 60.25 36.367188 59.421875 36.980469 C 56.5 39.140625 53.542969 41.253906 50.597656 43.386719 C 50.550781 43.332031 50.503906 43.273438 50.457031 43.21875 C 51.523438 42.195312 52.625 41.203125 53.648438 40.140625 C 54.535156 39.222656 55.355469 38.234375 56.179688 37.257812 C 56.773438 36.554688 56.789062 35.8125 56.136719 35.140625 C 54.425781 33.394531 52.695312 31.667969 50.976562 29.933594 C 50.785156 29.742188 50.585938 29.5625 50.386719 29.375 C 50.441406 29.304688 50.496094 29.230469 50.554688 29.160156" style="stroke:none;fill-rule:nonzero;fill:#0a9cd8;fill-opacity:1"/><path d="M 6.101562 30.597656 C 5.515625 30.804688 4.914062 30.910156 4.292969 30.921875 C 3.472656 30.921875 2.808594 30.695312 2.339844 30.226562 C 2.226562 30.109375 2.128906 29.984375 2.039062 29.84375 C 1.953125 29.707031 1.878906 29.5625 1.824219 29.40625 C 1.765625 29.253906 1.722656 29.097656 1.695312 28.9375 C 1.667969 28.777344 1.660156 28.613281 1.664062 28.453125 C 1.664062 28.324219 1.667969 28.195312 1.679688 28.070312 C 1.691406 27.945312 1.710938 27.820312 1.734375 27.695312 C 1.757812 27.570312 1.789062 27.445312 1.828125 27.324219 C 1.867188 27.203125 1.910156 27.085938 1.960938 26.96875 C 2.011719 26.851562 2.070312 26.738281 2.132812 26.628906 C 2.195312 26.515625 2.265625 26.410156 2.339844 26.308594 C 2.414062 26.207031 2.496094 26.105469 2.582031 26.011719 C 2.664062 25.917969 2.753906 25.828125 2.851562 25.742188 C 3.027344 25.597656 3.214844 25.472656 3.414062 25.359375 C 3.617188 25.25 3.824219 25.15625 4.039062 25.082031 C 4.253906 25.007812 4.476562 24.953125 4.703125 24.917969 C 4.925781 24.882812 5.15625 24.867188 5.382812 24.875 C 6.128906 24.875 6.664062 25.03125 6.875 25.144531 L 6.558594 26.007812 C 6.363281 25.921875 6.15625 25.855469 5.945312 25.816406 C 5.734375 25.773438 5.519531 25.753906 5.300781 25.761719 C 5.152344 25.757812 5.003906 25.769531 4.855469 25.792969 C 4.707031 25.816406 4.566406 25.851562 4.425781 25.902344 C 4.28125 25.953125 4.148438 26.011719 4.019531 26.085938 C 3.886719 26.160156 3.765625 26.246094 3.652344 26.34375 C 3.511719 26.46875 3.386719 26.613281 3.273438 26.769531 C 3.164062 26.925781 3.070312 27.089844 2.996094 27.265625 C 2.921875 27.441406 2.867188 27.621094 2.832031 27.808594 C 2.792969 27.996094 2.777344 28.183594 2.78125 28.375 C 2.78125 29.4375 3.359375 30.054688 4.46875 30.054688 C 4.726562 30.058594 4.980469 30.011719 5.222656 29.921875 L 5.503906 28.4375 L 4.457031 28.4375 L 4.625 27.609375 L 6.664062 27.609375 Z M 6.101562 30.597656" style="stroke:none;fill-rule:nonzero;fill:#3c9ad6;fill-opacity:1"/><path d="M 7.132812 30.863281 L 7.632812 28.222656 C 7.746094 27.617188 7.800781 26.964844 7.851562 26.578125 L 8.738281 26.578125 C 8.714844 26.867188 8.6875 27.167969 8.644531 27.484375 L 8.667969 27.484375 C 8.957031 26.902344 9.425781 26.480469 10.011719 26.480469 C 10.085938 26.480469 10.160156 26.488281 10.234375 26.5 L 10.03125 27.5 C 9.96875 27.488281 9.902344 27.484375 9.835938 27.484375 C 9.109375 27.484375 8.640625 28.222656 8.476562 29.136719 L 8.148438 30.859375 L 7.128906 30.859375 Z M 7.132812 30.863281" style="stroke:none;fill-rule:nonzero;fill:#3c9ad6;fill-opacity:1"/><path d="M 11.304688 29.164062 C 11.304688 29.753906 11.621094 30.164062 12.140625 30.164062 C 12.90625 30.164062 13.414062 29.109375 13.414062 28.257812 C 13.414062 27.816406 13.222656 27.273438 12.597656 27.273438 C 11.78125 27.273438 11.304688 28.363281 11.304688 29.164062 M 14.476562 28.257812 C 14.476562 29.710938 13.457031 30.957031 12 30.957031 C 10.917969 30.957031 10.25 30.210938 10.25 29.191406 C 10.25 27.738281 11.261719 26.480469 12.722656 26.480469 C 13.871094 26.480469 14.480469 27.308594 14.480469 28.257812" style="stroke:none;fill-rule:nonzero;fill:#3c9ad6;fill-opacity:1"/><path d="M 19.347656 26.578125 L 18.785156 29.53125 C 18.6875 30.042969 18.628906 30.492188 18.574219 30.859375 L 17.667969 30.859375 L 17.753906 30.113281 L 17.738281 30.113281 C 17.324219 30.667969 16.789062 30.957031 16.253906 30.957031 C 15.628906 30.957031 15.136719 30.625 15.136719 29.746094 C 15.136719 29.488281 15.167969 29.230469 15.222656 28.980469 L 15.679688 26.578125 L 16.699219 26.578125 L 16.261719 28.917969 C 16.21875 29.109375 16.195312 29.308594 16.191406 29.507812 C 16.191406 29.859375 16.332031 30.113281 16.734375 30.113281 C 17.210938 30.113281 17.761719 29.550781 17.929688 28.660156 L 18.324219 26.578125 Z M 19.347656 26.578125" style="stroke:none;fill-rule:nonzero;fill:#3c9ad6;fill-opacity:1"/><path d="M 20.875 29.957031 C 20.972656 30.03125 21.082031 30.085938 21.199219 30.121094 C 21.320312 30.15625 21.4375 30.171875 21.5625 30.167969 C 22.351562 30.167969 23.003906 29.109375 23.003906 28.152344 C 23.003906 27.757812 22.828125 27.316406 22.328125 27.316406 C 21.824219 27.316406 21.246094 27.90625 21.0625 28.910156 Z M 19.347656 32.601562 L 20.183594 28.167969 C 20.277344 27.660156 20.375 27.015625 20.429688 26.578125 L 21.351562 26.578125 L 21.253906 27.28125 L 21.273438 27.28125 C 21.351562 27.160156 21.445312 27.050781 21.550781 26.953125 C 21.65625 26.855469 21.773438 26.773438 21.902344 26.703125 C 22.027344 26.632812 22.160156 26.582031 22.296875 26.542969 C 22.4375 26.503906 22.578125 26.484375 22.722656 26.480469 C 23.644531 26.480469 24.078125 27.234375 24.078125 28.074219 C 24.078125 29.566406 23.039062 30.957031 21.582031 30.957031 C 21.433594 30.964844 21.285156 30.953125 21.140625 30.921875 C 20.996094 30.886719 20.859375 30.839844 20.726562 30.773438 L 20.710938 30.773438 L 20.367188 32.601562 Z M 19.347656 32.601562" style="stroke:none;fill-rule:nonzero;fill:#3c9ad6;fill-opacity:1"/><path d="M 26.914062 27.246094 C 26.273438 27.246094 25.851562 27.816406 25.726562 28.335938 C 26.78125 28.355469 27.457031 28.207031 27.457031 27.695312 C 27.457031 27.414062 27.238281 27.246094 26.914062 27.246094 M 27.890625 30.613281 C 27.65625 30.726562 27.410156 30.8125 27.152344 30.867188 C 26.898438 30.921875 26.640625 30.953125 26.378906 30.949219 C 25.191406 30.949219 24.621094 30.226562 24.621094 29.179688 C 24.621094 27.886719 25.570312 26.480469 27.046875 26.480469 C 27.890625 26.480469 28.425781 26.972656 28.425781 27.6875 C 28.425781 28.785156 27.273438 29.136719 25.621094 29.101562 C 25.605469 29.316406 25.644531 29.519531 25.738281 29.710938 C 25.902344 30 26.210938 30.148438 26.613281 30.148438 C 26.820312 30.148438 27.023438 30.125 27.21875 30.082031 C 27.421875 30.03125 27.609375 29.960938 27.792969 29.867188 L 27.890625 30.617188 Z M 27.890625 30.613281" style="stroke:none;fill-rule:nonzero;fill:#3c9ad6;fill-opacity:1"/><path d="M 3.25 33.9375 L 0.949219 33.9375 L 1.195312 32.679688 L 7.242188 32.679688 L 6.996094 33.9375 L 4.679688 33.9375 L 3.351562 40.984375 L 1.910156 40.984375 Z M 3.25 33.9375" style="stroke:none;fill-rule:nonzero;fill:#074796;fill-opacity:1"/><path d="M 8.914062 36.464844 L 9.730469 36.464844 C 10.847656 36.464844 11.601562 35.773438 11.601562 34.875 C 11.601562 34.109375 10.996094 33.765625 10.183594 33.765625 C 9.925781 33.753906 9.671875 33.78125 9.421875 33.839844 Z M 8.1875 32.816406 C 8.863281 32.679688 9.542969 32.613281 10.234375 32.621094 C 11.03125 32.621094 11.796875 32.78125 12.3125 33.164062 C 12.375 33.203125 12.433594 33.246094 12.492188 33.296875 C 12.546875 33.34375 12.597656 33.394531 12.648438 33.449219 C 12.699219 33.503906 12.746094 33.5625 12.785156 33.621094 C 12.828125 33.683594 12.867188 33.746094 12.902344 33.8125 C 12.933594 33.875 12.964844 33.945312 12.992188 34.011719 C 13.015625 34.082031 13.039062 34.152344 13.054688 34.226562 C 13.070312 34.296875 13.085938 34.371094 13.09375 34.445312 C 13.101562 34.515625 13.101562 34.589844 13.101562 34.664062 C 13.101562 35.886719 12.238281 36.722656 11.179688 37.042969 L 11.167969 37.082031 C 11.710938 37.292969 11.945312 37.871094 12.019531 38.660156 C 12.117188 39.695312 12.175781 40.65625 12.3125 40.988281 L 10.835938 40.988281 C 10.71875 40.332031 10.644531 39.667969 10.613281 39.003906 C 10.550781 37.945312 10.171875 37.5625 9.40625 37.5625 L 8.707031 37.5625 L 8.054688 40.988281 L 6.636719 40.988281 L 8.191406 32.816406 Z M 8.1875 32.816406" style="stroke:none;fill-rule:nonzero;fill:#074796;fill-opacity:1"/><path d="M 18.113281 37.511719 L 17.878906 35.441406 C 17.84375 35 17.792969 34.359375 17.753906 33.863281 L 17.730469 33.863281 C 17.507812 34.359375 17.289062 34.949219 17.054688 35.441406 L 16.046875 37.511719 Z M 15.589844 38.621094 L 14.457031 40.984375 L 12.929688 40.984375 L 17.089844 32.679688 L 18.886719 32.679688 L 19.933594 40.984375 L 18.433594 40.984375 L 18.199219 38.621094 Z M 15.589844 38.621094" style="stroke:none;fill-rule:nonzero;fill:#074796;fill-opacity:1"/><path d="M 20.90625 40.984375 L 22.484375 32.679688 L 24.132812 32.679688 L 25.585938 36.539062 C 25.890625 37.386719 26.144531 38.253906 26.335938 39.136719 L 26.363281 39.136719 C 26.425781 38.191406 26.546875 37.257812 26.730469 36.328125 L 27.421875 32.683594 L 28.773438 32.683594 L 27.199219 40.988281 L 25.734375 40.988281 L 24.242188 37.058594 C 23.917969 36.183594 23.65625 35.292969 23.457031 34.382812 L 23.40625 34.394531 C 23.320312 35.183594 23.148438 36.207031 22.925781 37.4375 L 22.25 40.988281 L 20.90625 40.988281 Z M 20.90625 40.984375" style="stroke:none;fill-rule:nonzero;fill:#074796;fill-opacity:1"/><path d="M 29.179688 39.347656 C 29.460938 39.523438 29.761719 39.65625 30.078125 39.746094 C 30.398438 39.835938 30.722656 39.878906 31.050781 39.878906 C 31.851562 39.878906 32.589844 39.445312 32.589844 38.644531 C 32.589844 38.101562 32.234375 37.734375 31.421875 37.304688 C 30.460938 36.785156 29.734375 36.121094 29.734375 35.132812 C 29.734375 33.546875 31.113281 32.546875 32.785156 32.546875 C 33.710938 32.546875 34.3125 32.78125 34.632812 32.964844 L 34.164062 34.160156 C 33.933594 34.039062 33.691406 33.945312 33.4375 33.882812 C 33.183594 33.816406 32.925781 33.789062 32.664062 33.792969 C 31.753906 33.792969 31.234375 34.320312 31.234375 34.875 C 31.234375 35.429688 31.703125 35.773438 32.480469 36.21875 C 33.488281 36.75 34.089844 37.414062 34.089844 38.425781 C 34.089844 40.089844 32.75 41.109375 30.890625 41.109375 C 29.878906 41.109375 29.054688 40.828125 28.6875 40.53125 Z M 29.179688 39.347656" style="stroke:none;fill-rule:nonzero;fill:#074796;fill-opacity:1"/><path d="M 39.449219 37.511719 L 39.214844 35.441406 C 39.179688 35 39.128906 34.359375 39.09375 33.863281 L 39.066406 33.863281 C 38.847656 34.359375 38.625 34.949219 38.390625 35.441406 L 37.382812 37.511719 Z M 36.925781 38.621094 L 35.792969 40.984375 L 34.265625 40.984375 L 38.425781 32.679688 L 40.226562 32.679688 L 41.273438 40.984375 L 39.769531 40.984375 L 39.535156 38.621094 Z M 36.925781 38.621094" style="stroke:none;fill-rule:nonzero;fill:#3c9ad6;fill-opacity:1"/><path d="M 45.238281 32.679688 L 43.660156 40.984375 L 42.21875 40.984375 L 43.796875 32.679688 Z M 45.238281 32.679688" style="stroke:none;fill-rule:nonzero;fill:#3c9ad6;fill-opacity:1"/><path d="M 47.6875 36.464844 L 48.5 36.464844 C 49.621094 36.464844 50.371094 35.773438 50.371094 34.875 C 50.371094 34.109375 49.769531 33.765625 48.953125 33.765625 C 48.695312 33.753906 48.441406 33.78125 48.191406 33.839844 Z M 46.960938 32.816406 C 47.632812 32.679688 48.316406 32.613281 49.003906 32.621094 C 49.804688 32.621094 50.566406 32.78125 51.085938 33.164062 C 51.148438 33.203125 51.203125 33.246094 51.261719 33.296875 C 51.316406 33.34375 51.371094 33.394531 51.417969 33.449219 C 51.46875 33.503906 51.515625 33.5625 51.558594 33.625 C 51.597656 33.683594 51.636719 33.746094 51.671875 33.8125 C 51.707031 33.878906 51.734375 33.945312 51.761719 34.015625 C 51.789062 34.082031 51.808594 34.152344 51.824219 34.226562 C 51.84375 34.300781 51.855469 34.371094 51.863281 34.445312 C 51.871094 34.519531 51.875 34.589844 51.871094 34.667969 C 51.871094 35.886719 51.011719 36.722656 49.953125 37.046875 L 49.9375 37.082031 C 50.480469 37.292969 50.714844 37.871094 50.789062 38.660156 C 50.886719 39.695312 50.949219 40.65625 51.082031 40.988281 L 49.605469 40.988281 C 49.492188 40.332031 49.417969 39.671875 49.386719 39.003906 C 49.324219 37.945312 48.941406 37.5625 48.179688 37.5625 L 47.476562 37.5625 L 46.824219 40.988281 L 45.410156 40.988281 Z M 46.960938 32.816406" style="stroke:none;fill-rule:nonzero;fill:#3c9ad6;fill-opacity:1"/></g></svg>