<svg xmlns="http://www.w3.org/2000/svg" version="1.1" id="Layer_1" x="0px" y="0px" width="70px" height="70px" viewBox="0 0 70 70" enable-background="new 0 0 70 70" xml:space="preserve"><path fill="#29347B" d="M2.92,32.272c4.856-4.411,10.414-7.627,16.179-10.498  c5.526-2.751,11.431-4.348,17.508-5.305c7.527-1.185,14.994-0.728,22.407,0.951c0.461,0.104,0.588,0.297,0.69,0.698  c0.269,1.047,0.331,2.286,0.954,3.063c0.633,0.788,1.977,0.715,3.002,0.918c2.702,0.537,3.99,2.133,4.162,4.799  c0.045,0.708,0.175,1.411,0.295,2.112c0.114,0.638-0.124,0.789-0.714,0.608c-1.164-0.354-2.315-0.718-3.557-0.789  c-2.163-0.126-4.247,0.225-6.302,0.859c-0.389,0.118-0.784,0.227-1.184,0.279c-0.556,0.075-0.937-0.031-1.015-0.753  c-0.173-1.631-0.907-2.818-2.732-2.999c-0.361-0.036-0.702-0.271-1.065-0.318c-1.683-0.215-2.604-1.131-2.676-2.841  c-0.024-0.587-0.382-0.637-0.863-0.74c-12.362-2.645-23.989-0.15-35.258,4.966c-2.994,1.357-5.882,2.903-8.688,4.611  C3.73,32.099,3.429,32.43,2.92,32.272z M53.6,21.727c1.2,0.394,2.401,0.792,3.604,1.18c0.179,0.058,0.438,0.175,0.514-0.094  c0.108-0.393,0.058-0.804-0.103-1.182c-0.15-0.362-0.489-0.33-0.782-0.265C55.772,21.604,54.693,21.516,53.6,21.727z" clip-rule="evenodd" fill-rule="evenodd"/><path fill="#FAD268" d="M2.187,53.414c0.71-1.364,1.789-2.451,2.765-3.611  c8.271-9.842,18.53-16.527,31.08-19.58c5.193-1.262,10.471-1.562,15.731-0.869c3.526,0.463,6.774,1.885,9.242,4.652  c1.252,1.406,1.964,3.355,1.852,5.129c-0.449,0.105-0.563-0.286-0.748-0.529c-3.029-3.992-7.134-6.074-12.001-6.917  c-4.949-0.857-9.764-0.037-14.598,0.868c-5.533,1.036-10.423,3.58-15.155,6.436c-6.435,3.883-12.306,8.502-17.432,14.03  c-0.181,0.193-0.425,0.329-0.64,0.492C2.25,53.482,2.218,53.447,2.187,53.414z" clip-rule="evenodd" fill-rule="evenodd"/><path fill="#29347B" d="M45.318,33.045C34.855,38.92,25.683,46.113,20.154,57  c-0.935-0.858-1.868-1.713-2.798-2.571c-0.337-0.311-0.08-0.652,0.02-0.938c0.486-1.383,1.213-2.646,2.063-3.832  c3.359-4.679,7.426-8.595,12.343-11.643c2.533-1.568,5.032-3.18,7.761-4.4C41.377,32.791,43.322,32.986,45.318,33.045z" clip-rule="evenodd" fill-rule="evenodd"/><path fill="#29347B" d="M47.483,26.896c-1.433-0.479-2.725-0.912-4.015-1.344  c0.003-0.053,0.007-0.104,0.011-0.156c1.087,0,2.179-0.049,3.264,0.015C47.71,25.468,47.255,26.28,47.483,26.896z" clip-rule="evenodd" fill-rule="evenodd"/><path fill="#FAD268" d="M2.072,51.709C2,51.767,1.931,51.827,1.854,51.876  c-0.008,0.004-0.065-0.07-0.1-0.106c0.087-0.039,0.174-0.077,0.261-0.116L2.072,51.709z" clip-rule="evenodd" fill-rule="evenodd"/><path fill="#FAD268" d="M2.015,51.653c0.059-0.079,0.116-0.159,0.172-0.237  c0.031,0.031,0.063,0.066,0.095,0.099c-0.07,0.064-0.14,0.128-0.21,0.194L2.015,51.653z" clip-rule="evenodd" fill-rule="evenodd"/><path fill="#FFFFFF" d="M53.6,21.727c1.094-0.211,2.173-0.123,3.232-0.36  c0.293-0.065,0.632-0.098,0.782,0.265c0.16,0.378,0.211,0.79,0.103,1.182c-0.076,0.269-0.335,0.151-0.514,0.094  C56.001,22.52,54.8,22.121,53.6,21.727z" clip-rule="evenodd" fill-rule="evenodd"/></svg>