<svg xmlns="http://www.w3.org/2000/svg" version="1.1" id="Layer_1" x="0px" y="0px" width="70px" height="70px" viewBox="0 0 70 70" enable-background="new 0 0 70 70" xml:space="preserve"><path fill="#00539B" d="M68.99,29.699c-3.42,0.531-6.969,1.095-10.521,1.628   c-1.629,0.244-2.851,1.012-4.015,2.23c-4.924,5.149-11.292,7.826-17.914,9.905c-8.438,2.65-17.142,3.832-25.956,4.267   C7.614,47.877,4.642,47.994,1.629,48c7.952-2.413,15.734-5.182,23.009-10.003c-1.561-0.938-2.956-1.708-4.277-2.59   c-2.172-1.448-2.179-1.983-0.207-3.642c3.859-3.246,10.745-6.43,14.321-6.595c0.196,0.573,0.36,1.181,0.607,1.752   c1.021,2.362,3.031,3.28,5.48,2.595c5.354-1.5,10.664-3.273,16.348-2.949c0.814,0.046,1.646,0.136,2.428,0.354   C62.585,27.822,65.814,28.78,68.99,29.699z" clip-rule="evenodd" fill-rule="evenodd"/><path fill="#E03427" d="M1.087,22.381c11.742,0,23.484,0,35.227,0   c0.014,0.074,0.029,0.148,0.044,0.223c-1.917,0.42-3.858,0.756-5.746,1.277c-4.137,1.143-8.272,2.305-12.361,3.605   c-2.512,0.799-5.031,1.021-7.419,0.027c-3.406-1.419-6.679-3.152-10.009-4.752C0.911,22.635,0.999,22.508,1.087,22.381z" clip-rule="evenodd" fill-rule="evenodd"/></svg>