<svg xmlns="http://www.w3.org/2000/svg" version="1.1" id="Layer_1" x="0px" y="0px" width="70px" height="70px" viewBox="0 0 70 70" enable-background="new 0 0 70 70" xml:space="preserve"><polygon points="45.92,58.996 48.712,58.996 69.1,10.497 66.248,10.497    45.92,58.996 " fill="#ED2224" clip-rule="evenodd" fill-rule="evenodd"/><polygon points="2.195,59 41.278,59 41.654,58.973 41.997,58.885    42.342,58.712 42.689,58.508 43.007,58.28 43.267,57.991 43.494,57.676 43.638,57.327 62.535,12.169 62.647,11.821 62.68,11.533    62.647,11.245 62.564,10.985 62.391,10.785 62.16,10.641 61.899,10.524 61.555,10.497 46.229,10.497 45.914,10.553 45.598,10.669    45.282,10.841 44.993,11.073 44.418,11.593 43.87,12.169 1.215,57.327 1.043,57.616 0.955,57.904 0.983,58.165 1.099,58.424    1.299,58.652 1.559,58.855 1.847,58.973 2.195,59 " fill="#0F4C98" clip-rule="evenodd" fill-rule="evenodd"/><path fill="#FFFFFF" d="M36.409,27.405c6.351,0,11.508,5.189,11.508,11.536   c0,6.378-5.157,11.568-11.508,11.568c-6.378,0-11.596-5.19-11.596-11.568C24.813,32.595,30.031,27.405,36.409,27.405L36.409,27.405z    M31.715,41.984c-0.932-0.112-1.45-0.258-2.207-0.172c-0.871,0.06-2.058,0.842-2.811,1.654c-0.636-1.366-0.986-2.899-0.986-4.525   c0-5.855,4.783-10.667,10.698-10.667c2.521,0,4.9,0.926,6.724,2.436L31.715,41.984L31.715,41.984z M35.657,42.681l9.857,1.801   c0.986-1.655,1.533-3.479,1.533-5.54c0-3.101-1.388-5.944-3.535-7.913L35.657,42.681L35.657,42.681z M36.147,44.336l4.956,4.059   l-9.188-4.525c-0.842-0.229-1.651-0.29-2.437-0.318c-0.897-0.027-1.711,0.118-2.638,0.262c1.796,3.452,5.394,5.827,9.568,5.827   c3.653,0,6.931-1.884,8.843-4.784L36.147,44.336L36.147,44.336z" clip-rule="evenodd" fill-rule="evenodd"/><g><polygon points="66.248,10.497 61.555,10.497 61.899,10.524 62.16,10.641     62.391,10.785 62.564,10.985 62.647,11.245 62.68,11.533 62.647,11.821 62.535,12.169 43.638,57.327 43.494,57.676 43.267,57.991     43.007,58.28 42.689,58.508 42.342,58.712 41.997,58.885 41.654,58.973 41.342,58.996 45.92,58.996  " fill="#FDDF00" clip-rule="evenodd" fill-rule="evenodd"/></g></svg>