<svg xmlns="http://www.w3.org/2000/svg" id="Layer_1" width="70" height="70" x="0" y="0" version="1.1" viewBox="0 0 70 70" xml:space="preserve" style="enable-background:new 0 0 70 70"><style type="text/css">.st0{fill:#07b191}.st1{fill:#fff}.st2{fill:#dcdddd}.st3{opacity:.6;fill:#c6c6c6;enable-background:new}.st4{fill:#c4c7bc}.st5{opacity:.8;fill:#aeafaa;enable-background:new}</style><g><rect width="70" height="70" x="-.1" class="st0"/><g><path d="M40.9,36.1c-3.5,1.5-6.1,5-6.1,9c0,0.8,0.1,1.5,0.2,2.2h10.1L40.9,36.1z" class="st1"/><path d="M26.1,21.9L30,32.8c2.1-2.4,4.7-4.2,7.8-5.3l-6.4-17H20.9L6.8,47.3h10.1L26.1,21.9z" class="st1"/><path d="M44.9,35.2c5.3,0,10,4.4,10,9.9c0,5.8-4.4,10.2-10,10.2C40,55.4,36,52,35,47.3l0,0L30,32.9 c-2.9,3.3-4.6,7.6-4.6,12.3c0,11.2,7.9,19.1,19.5,19.1s19.5-7.9,19.5-19.1c0-10.7-8.7-18.9-19.5-18.9c-2.5,0-5,0.4-7.2,1.3 l3.2,8.5C42.1,35.5,43.5,35.2,44.9,35.2z" class="st2"/><path d="M44.9,35.2c5.3,0,10,4.4,10,9.9c0,5.8-4.4,10.2-10,10.2C40,55.4,36,52,35,47.3l0,0L30,32.9 c-2.9,3.3-4.6,7.6-4.6,12.3c0,11.2,7.9,19.1,19.5,19.1s19.5-7.9,19.5-19.1c0-10.7-8.7-18.9-19.5-18.9c-2.5,0-5,0.4-7.2,1.3 l3.2,8.5C42.1,35.5,43.5,35.2,44.9,35.2z" class="st3"/><path d="M30,32.9L35,47.3l0,0c-0.1-0.7-0.2-1.5-0.2-2.2c0-4.1,2.6-7.6,6.1-9l-3.2-8.5C34.7,28.7,32.1,30.5,30,32.9z" class="st4"/><path d="M30,32.9L35,47.3l0,0c-0.1-0.7-0.2-1.5-0.2-2.2c0-4.1,2.6-7.6,6.1-9l-3.2-8.5C34.7,28.7,32.1,30.5,30,32.9z" class="st5"/></g></g></svg>