<svg xmlns="http://www.w3.org/2000/svg" width="70" height="70" viewBox="0 0 960 960"><title id="title"/><desc id="desc"/><defs><style>
      .background {
        fill: #241a54;
      }

      .monogram {
        fill: #fff;
      }
    </style></defs><rect width="960" height="960" class="background" rx="170"/><g transform="translate(227 116) scale(1.87)" class="monogram"><path d="M147.08,357.66c-8.56,1.1-17.08,1.5-25.66,1.36-39.1-.28-78.41-20.71-98.63-54.8-8.31-13.91-13.07-29.86-14.1-46.05-.36-7.22-.58-14.58-.76-21.8-.55-17.06-.23-40.96-.48-58.31-.05-16.9-.98-41.58-.81-58.17.31-6.54.57-13.29,1.95-19.75h-.78c-1.92,6.37-3.34,12.89-4.16,19.5-2.5,16.71-2.02,41.43-2.42,58.41,0,17.2-1.38,77.75-1.23,87.82,1.02,36.38,17.51,72.52,45.9,95.84,29.1,24.2,71.24,33.93,107.52,21.61,27.18-9.76,48.64-31.16,62.49-55.77l-.91-.42c-17.28,18.94-43.36,27.7-67.94,30.51"/><path d="M169.45,254.86c-22.81-23.42-43.16-33.13-60.08-37.4l.44-.05c33.11-4.9,60.61-35.96,60.61-69.9,0-36.98-31.11-70.04-68.09-70.04v-.02H18.85c2.13-4.16,11.62-15.14,19.2-21.14,14.88-11.79,32.24-19.23,50.45-23.31,34.4-7.9,71.52-2.44,100.63,17.97,22.81,15.75,39.81,40.77,44.14,68.47,2.22,13.4,1.8,30.56,2.28,44.2.11,14.43.28,30.45.26,44.78-.07,19.85,1.09,39.73.52,59.55-.26,6.38-.72,12.8-1.86,19.07l.97.45c1.85-6.21,2.94-12.66,3.74-19.07,2.09-19.89,2.48-40.05,2.82-60.01.07-19.26,1.8-81.16,1.04-90.09-2.65-43.11-26.71-84.26-65.65-104.78C157.67,3.03,134.85-1.42,112.56.39,67.04,4.28,34.83,37.66,16.87,77.3l-.64,1.39h40.78c37.17,2.1,85.93,12.93,85.93,68.82s-49.39,67.16-86.46,69.36h-25.02v1.23h25.36c7.62.31,41.21,4.37,82.62,49.86,31.92,35.1,75.83,52.84,121.77,35.21-46.23,12.72-58.63-14.33-91.77-48.29"/></g></svg>