<svg xmlns="http://www.w3.org/2000/svg" width="70" height="70" version="1.1" viewBox="0 0 70 70"><g id="surface1"><path d="M 0 12.640625 C 0.09375 12.640625 0.183594 12.640625 0.28125 12.640625 C 0.421875 13.175781 0.554688 13.738281 0.683594 14.308594 C 3.652344 26.316406 8.925781 29.894531 13.1875 32.511719 C 22.015625 37.957031 22.015625 37.957031 24.078125 48.125 C 24.328125 49.863281 24.390625 51.207031 24.378906 53.136719 C 24.375 53.566406 24.371094 53.996094 24.371094 54.4375 C 24.367188 54.761719 24.363281 55.085938 24.359375 55.417969 C 24.078125 53.957031 24.078125 53.957031 23.914062 52.105469 C 23.660156 49.738281 23.289062 48.492188 22.679688 47.152344 C 21.695312 45.621094 20.726562 44.84375 19.660156 44.449219 C 19.519531 44.390625 19.378906 44.332031 19.230469 44.273438 C 18.375 43.9375 17.519531 43.664062 16.660156 43.421875 C 16.5625 43.394531 16.46875 43.367188 16.367188 43.339844 C 16.269531 43.308594 16.171875 43.28125 16.070312 43.253906 C 14.242188 42.730469 12.429688 42.085938 10.613281 41.105469 C 10.4375 41.011719 10.257812 40.917969 10.074219 40.820312 C 6.683594 38.917969 3.875 35.117188 1.773438 25.234375 C 1.039062 21.609375 0.164062 17.109375 0 12.640625 Z M 0 12.640625" style="stroke:none;fill-rule:nonzero;fill:#ff002b;fill-opacity:1"/><path d="M 4.898438 10.207031 C 5.03125 10.628906 5.160156 11.050781 5.292969 11.484375 C 7.476562 17.929688 10.496094 19.964844 13.195312 22.332031 C 22.277344 30.292969 22.277344 30.292969 24.351562 42.304688 C 24.808594 45.273438 24.886719 48.199219 24.78125 51.527344 C 24.6875 51.847656 24.59375 52.167969 24.5 52.5 C 24.480469 52.164062 24.457031 51.828125 24.4375 51.484375 C 24.0625 46.042969 23.300781 42.128906 21.980469 38.890625 C 21.261719 37.390625 20.503906 36.175781 19.738281 35 C 19.5 34.625 19.5 34.625 19.253906 34.246094 C 16.953125 30.976562 14.4375 29.304688 12.015625 27.402344 C 9.0625 25.066406 9.0625 25.066406 7.699219 22.359375 C 7.5625 22.101562 7.425781 21.84375 7.285156 21.574219 C 6.171875 19.324219 5.3125 16.476562 4.898438 12.152344 C 4.898438 11.511719 4.898438 10.871094 4.898438 10.207031 Z M 4.898438 10.207031" style="stroke:none;fill-rule:nonzero;fill:#00477d;fill-opacity:1"/><path d="M 42.980469 38.402344 C 45.382812 37.695312 45.382812 37.695312 46.277344 40.042969 C 46.601562 40.992188 46.910156 41.96875 47.21875 42.976562 C 47.636719 44.308594 48.085938 45.492188 48.535156 46.695312 C 48.695312 47.136719 48.859375 47.578125 49.019531 48.019531 C 49.285156 48.738281 49.558594 49.421875 49.839844 50.070312 C 49.839844 46.21875 49.839844 42.371094 49.839844 38.402344 C 50.578125 38.402344 51.320312 38.402344 52.078125 38.402344 C 52.078125 44.015625 52.078125 49.632812 52.078125 55.417969 C 49.734375 56 49.734375 56 48.953125 54.554688 C 48.609375 53.527344 48.289062 52.457031 47.976562 51.332031 C 47.5 49.765625 46.96875 48.449219 46.445312 47.09375 C 46.085938 46.148438 45.730469 45.207031 45.359375 44.234375 C 45.3125 47.925781 45.269531 51.617188 45.21875 55.417969 C 44.480469 55.417969 43.742188 55.417969 42.980469 55.417969 C 42.980469 49.800781 42.980469 44.1875 42.980469 38.402344 Z M 42.980469 38.402344" style="stroke:none;fill-rule:nonzero;fill:#00477d;fill-opacity:1"/><path d="M 33.179688 39.375 C 33.179688 39.695312 33.179688 40.015625 33.179688 40.347656 C 32.425781 41.296875 31.8125 42 31.003906 41.484375 C 30.511719 41.25 30.019531 41.238281 29.523438 41.226562 C 29.425781 41.222656 29.332031 41.214844 29.234375 41.210938 C 28.628906 41.203125 28.140625 41.523438 27.578125 42.292969 C 27.578125 42.773438 27.578125 43.253906 27.578125 43.75 C 27.691406 43.796875 27.804688 43.847656 27.917969 43.898438 C 28.429688 44.125 28.941406 44.363281 29.453125 44.601562 C 29.714844 44.714844 29.714844 44.714844 29.984375 44.832031 C 30.996094 45.3125 32.003906 45.824219 32.898438 47.640625 C 33.25 49.453125 33.257812 50.355469 33.179688 52.5 C 32.625 54.972656 31.644531 55.371094 30.800781 55.902344 C 30.117188 56.085938 29.445312 56.085938 28.761719 56.054688 C 28.589844 56.054688 28.414062 56.058594 28.238281 56.058594 C 27.195312 56.039062 26.214844 55.722656 25.199219 54.929688 C 25.417969 53.726562 25.417969 53.726562 25.761719 52.5 C 26.210938 52.238281 26.210938 52.238281 26.738281 52.296875 C 26.832031 52.300781 26.925781 52.308594 27.023438 52.3125 C 27.324219 52.335938 27.621094 52.371094 27.921875 52.410156 C 28.21875 52.4375 28.519531 52.464844 28.816406 52.488281 C 29.089844 52.507812 29.359375 52.539062 29.632812 52.570312 C 30.089844 52.5 30.390625 52.21875 30.800781 51.527344 C 30.800781 51.046875 30.800781 50.566406 30.800781 50.070312 C 30.328125 49.355469 29.910156 48.9375 29.402344 48.734375 C 29.269531 48.679688 29.140625 48.621094 29.003906 48.566406 C 28.734375 48.453125 28.460938 48.347656 28.191406 48.238281 C 25.960938 47.277344 25.960938 47.277344 25.339844 44.722656 C 25.207031 43.566406 25.207031 43.566406 25.199219 42.292969 C 25.417969 40.792969 25.625 40.0625 26.070312 39.402344 C 28.359375 36.878906 30.859375 37.660156 33.179688 39.375 Z M 33.179688 39.375" style="stroke:none;fill-rule:nonzero;fill:#00477d;fill-opacity:1"/><path d="M 56.578125 37.765625 C 56.71875 37.761719 56.859375 37.757812 57.003906 37.757812 C 57.953125 37.789062 58.851562 38.195312 59.78125 38.890625 C 59.628906 40.089844 59.628906 40.089844 59.359375 41.320312 C 58.945312 41.585938 58.945312 41.585938 58.445312 41.539062 C 58.265625 41.53125 58.085938 41.519531 57.902344 41.507812 C 57.710938 41.488281 57.519531 41.464844 57.328125 41.441406 C 56.957031 41.410156 56.585938 41.382812 56.214844 41.359375 C 56.050781 41.339844 55.882812 41.320312 55.714844 41.304688 C 55.292969 41.246094 55.292969 41.246094 54.878906 41.804688 C 54.878906 42.285156 54.878906 42.769531 54.878906 43.265625 C 55.863281 44.195312 56.839844 44.660156 57.851562 45.050781 C 58.792969 45.472656 59.648438 46.214844 60.339844 48.609375 C 60.433594 51.078125 60.433594 51.078125 60.339844 52.5 C 59.222656 56.09375 57.503906 55.996094 56.0625 55.992188 C 55.941406 55.996094 55.820312 55.996094 55.695312 55.996094 C 54.613281 55.964844 53.566406 55.558594 52.5 54.929688 C 52.75 52.554688 52.75 52.554688 53.015625 52.074219 C 53.339844 52.015625 53.339844 52.015625 53.765625 52.246094 C 54.398438 52.535156 55.011719 52.589844 55.648438 52.589844 C 55.820312 52.601562 55.820312 52.601562 55.996094 52.609375 C 56.707031 52.613281 57.289062 52.320312 57.960938 51.527344 C 58.007812 50.886719 58.050781 50.246094 58.101562 49.582031 C 57.933594 49.496094 57.765625 49.40625 57.59375 49.316406 C 56.480469 48.722656 55.371094 48.121094 54.265625 47.394531 C 54.105469 47.289062 53.941406 47.183594 53.773438 47.078125 C 53.332031 46.65625 53.011719 46.132812 52.640625 45.207031 C 52.441406 43.828125 52.457031 42.847656 52.5 41.320312 C 53.058594 38.929688 53.707031 38.46875 54.558594 38.03125 C 55.230469 37.789062 55.902344 37.773438 56.578125 37.765625 Z M 56.578125 37.765625" style="stroke:none;fill-rule:nonzero;fill:#00477d;fill-opacity:1"/><path d="M 64.640625 37.410156 C 65.910156 37.496094 65.910156 37.496094 66.40625 38.71875 C 66.65625 39.832031 66.65625 39.832031 66.902344 41.160156 C 67.285156 43.246094 67.738281 45.082031 68.199219 46.96875 C 70 54.476562 70 54.476562 70 55.417969 C 68.074219 56.074219 68.074219 56.074219 67.414062 54.699219 C 67.121094 53.542969 66.882812 52.339844 66.640625 51.042969 C 66.503906 50.410156 66.367188 49.785156 66.230469 49.160156 C 65.101562 43.988281 65.101562 43.988281 65.101562 42.777344 C 64.609375 44.417969 64.191406 46.097656 63.789062 48.003906 C 63.675781 48.511719 63.566406 49.015625 63.453125 49.539062 C 63.140625 50.984375 63.140625 50.984375 62.917969 52.394531 C 62.6875 53.722656 62.53125 54.535156 62.160156 55.417969 C 61.421875 55.929688 60.664062 55.667969 59.921875 55.417969 C 60.121094 53.902344 60.359375 52.695312 60.664062 51.40625 C 60.761719 50.984375 60.859375 50.5625 60.960938 50.128906 C 61.046875 49.773438 61.046875 49.773438 61.132812 49.414062 C 61.347656 48.5 61.558594 47.582031 61.773438 46.667969 C 62.664062 42.859375 62.664062 42.859375 62.933594 41.722656 C 63.140625 40.851562 63.140625 40.851562 63.3125 39.964844 C 63.6875 38.148438 63.992188 37.523438 64.640625 37.410156 Z M 64.640625 37.410156" style="stroke:none;fill-rule:nonzero;fill:#00477d;fill-opacity:1"/><path d="M 38.519531 38.195312 C 39.214844 38.746094 39.53125 40.847656 39.898438 42.777344 C 40.105469 43.65625 40.3125 44.527344 40.519531 45.390625 C 40.675781 46.058594 40.675781 46.058594 40.835938 46.742188 C 41.058594 47.695312 41.285156 48.640625 41.511719 49.585938 C 41.621094 50.054688 41.734375 50.527344 41.851562 51.011719 C 41.953125 51.4375 42.054688 51.863281 42.160156 52.300781 C 42.386719 53.316406 42.550781 54.25 42.699219 55.417969 C 40.773438 56.074219 40.773438 56.074219 40.117188 54.699219 C 39.820312 53.542969 39.582031 52.339844 39.339844 51.042969 C 39.203125 50.410156 39.070312 49.785156 38.929688 49.160156 C 37.800781 43.988281 37.800781 43.988281 37.800781 42.777344 C 37.707031 42.777344 37.613281 42.777344 37.519531 42.777344 C 37.472656 43.277344 37.472656 43.277344 37.425781 43.785156 C 37.144531 45.933594 36.71875 47.609375 36.292969 49.425781 C 35.914062 51.027344 35.609375 52.566406 35.324219 54.382812 C 35.140625 55.277344 35.140625 55.277344 34.859375 55.902344 C 34.101562 56.222656 33.378906 56.128906 32.621094 55.902344 C 32.824219 53.628906 33.210938 52.085938 33.660156 50.34375 C 34.34375 47.652344 34.992188 44.902344 35.621094 42.0625 C 35.785156 41.324219 35.953125 40.59375 36.121094 39.859375 C 36.179688 39.566406 36.242188 39.269531 36.304688 38.964844 C 36.890625 37.566406 37.835938 37.929688 38.519531 38.195312 Z M 38.519531 38.195312" style="stroke:none;fill-rule:nonzero;fill:#00477d;fill-opacity:1"/><path d="M 8.960938 43.265625 C 9.0625 43.386719 9.164062 43.511719 9.269531 43.636719 C 11.414062 46.003906 13.636719 46.546875 15.871094 47.03125 C 16.082031 47.074219 16.082031 47.074219 16.300781 47.121094 C 17.015625 47.277344 17.734375 47.421875 18.453125 47.550781 C 22.234375 48.285156 22.234375 48.285156 23.710938 52.46875 C 23.972656 53.621094 24.035156 54.460938 24.078125 55.902344 C 23.988281 55.902344 23.894531 55.902344 23.800781 55.902344 C 23.71875 55.601562 23.636719 55.300781 23.554688 54.992188 C 22.628906 51.960938 21.144531 52.441406 19.953125 52.503906 C 19.667969 52.511719 19.378906 52.519531 19.089844 52.527344 C 18.640625 52.542969 18.195312 52.5625 17.746094 52.582031 C 14.65625 52.730469 11.425781 51.550781 8.960938 44.234375 C 8.960938 43.914062 8.960938 43.59375 8.960938 43.265625 Z M 8.960938 43.265625" style="stroke:none;fill-rule:nonzero;fill:#00477d;fill-opacity:1"/></g></svg>