<svg xmlns="http://www.w3.org/2000/svg" id="Layer_1" width="70" height="70" x="0" y="0" enable-background="new 0 0 70 70" version="1.1" viewBox="0 0 70 70" xml:space="preserve"><metadata/><rect width="70" height="70" fill="none"/><path fill="#FED600" d="M1.9,41.8C2.4,42,3,42.1,3.6,42.1c1.7,0,1.9-1.1,1.9-2.399v-17h3.6V40.1c0,2.9-1.6,5-5.2,5 c-1.3,0-2-0.199-2.8-0.5L1.9,41.8z"/><path fill="#FAAE1B" d="M6.9,34.1c0-3.8,2-6.7,5.8-6.7c3.7,0,5.8,2.6,5.8,6.8V35h-8c0.1,1.8,1.4,2.7,3.3,2.7c1.3,0,2.3-0.3,3.2-0.8 l1,2.399c-1.4,0.8-3,1.2-4.6,1.2C8.7,40.5,6.9,37.4,6.9,34.1z M14.9,32.6c0-1.2-0.7-2.5-2.2-2.5c-1.4,0-2.2,1.2-2.2,2.5H14.9z"/><path fill="#FAAE1B" d="M6.9,34.1c0-3.8,2-6.7,5.8-6.7c3.7,0,5.8,2.6,5.8,6.8V35h-8c0.1,1.8,1.4,2.7,3.3,2.7c1.3,0,2.3-0.3,3.2-0.8 l1,2.399c-1.4,0.8-3,1.2-4.6,1.2C8.7,40.5,6.9,37.4,6.9,34.1z M14.9,32.6c0-1.2-0.7-2.5-2.2-2.5c-1.4,0-2.2,1.2-2.2,2.5H14.9z"/><path fill="#F48520" d="M17.7,37v-6.5h-2.3v-2.8h2.3v-2.9l3.6-1v4h3.8l-0.8,2.8h-3v5.6c0,1.2,0.4,1.6,1.2,1.6c0.7,0,1.4-0.2,1.9-0.6 l1,2.399c-0.9,0.601-2.6,1-3.8,1C19.2,40.5,17.7,39.2,17.7,37z"/><path fill="#0C133B" d="M24,30.5h1.3v3.3l0,0l2.5-3.3h1.5l-2.9,3.7l3.2,3.5H28l-2.7-3l0,0v3H24V30.5L24,30.5z"/><path fill="#0C133B" d="M37.1,30.6H38.2l0.1,0.9c0.8-0.6,1.5-1,2.4-1c1.1,0,2.1,0.6,2.1,2.5v4.7h-1.3v-4.2c0-1-0.2-1.8-1.2-1.8 c-0.7,0-1.399,0.4-2,0.9v5H37L37.1,30.6L37.1,30.6z"/><path fill="#0C133B" d="M44.2,30.6h1.1l0.101,0.9c0.8-0.6,1.5-1,2.399-1c1.101,0,2.101,0.6,2.101,2.5v4.7H48.6v-4.2 c0-1-0.199-1.8-1.199-1.8c-0.7,0-1.4,0.4-2,0.9v5H44.1v-7H44.2z"/><path fill="#0C133B" d="M51,34.1c0-2.1,1.2-3.6,2.9-3.6c1.8,0,2.899,1.4,2.899,3.6v0.3h-4.5c0,1.3,0.8,2.3,2.2,2.3 c0.7,0,1.2-0.2,1.7-0.5L56.6,37.1C56,37.5,55.1,37.7,54.3,37.7C52.1,37.7,51,36.1,51,34.1z M55.5,33.4c0-1-0.5-1.9-1.5-1.9 s-1.6,0.9-1.6,1.9H55.5z"/><path fill="#0C133B" d="M57.8,34.2c0-2.1,1.4-3.7,3.5-3.7c0.8,0,1.4,0.2,1.8,0.4V32c-0.5-0.3-1-0.5-1.699-0.5 c-1.4,0-2.301,1.1-2.301,2.6c0,1.6,0.9,2.6,2.2,2.6c0.7,0,1.2-0.2,1.7-0.5l0.4,0.899C62.9,37.5,62.1,37.7,61.2,37.7 C59,37.7,57.8,36.2,57.8,34.2z"/><path fill="#0C133B" d="M36.2,34c0-2-1.2-3.6-3.4-3.6h-0.1l0,0c-0.7,0-1.3,0.2-1.9,0.5c-0.1,0-0.2,0.1-0.2,0.1l0,0 c-0.9,0.7-1.5,1.8-1.5,3.1c0,2,1.2,3.6,3.4,3.6h0.1l0,0c0.7,0,1.3-0.2,1.9-0.5c0.1,0,0.2-0.101,0.2-0.101l0,0 C35.6,36.4,36.2,35.3,36.2,34z M32.6,36.7c-1.3,0-2.2-0.9-2.2-2.6c0-1.4,0.8-2.5,2.2-2.6c1.3,0,2.2,0.9,2.2,2.6 C34.8,35.5,34,36.6,32.6,36.7z"/><path fill="#0C133B" d="M64.7,36v-4.4h-0.8v-1h0.8V29l1.3-0.4v2h1.2l-0.4,1H66v4.1c0,0.6,0.3,0.899,0.7,0.899 c0.399,0,0.8-0.199,1.1-0.399l0.4,0.899c-0.5,0.301-1.101,0.5-1.8,0.5C65.3,37.7,64.7,37.1,64.7,36z"/></svg>