<svg xmlns="http://www.w3.org/2000/svg" version="1.1" id="Layer_1" x="0px" y="0px" width="70px" height="70px" viewBox="0 0 70 70" enable-background="new 0 0 70 70" xml:space="preserve"><metadata/><rect width="70" fill="none" height="70"/><path fill="#010101" d="M4.6,32.4c0,0-2.8-6.8-3.1-7.7c-0.4-1.3,0.6-1.9,1.4-1.9H67c0.9,0,1.9,0.6,1.4,1.9   C68.1,25.5,65.3,32.4,65.3,32.4H4.6z"/><path fill="#010101" d="M10.1,39.7c-2.7,0-3.2-1.4-3.6-2.3c-0.4-0.9-1.6-4.2-1.6-4.2h60.4c0,0-1.2,3.3-1.6,4.2   c-0.4,0.899-0.9,2.3-3.601,2.3H10.1z"/><path fill="#EE3226" d="M4.3,32c0,0-2.8-6.8-3.1-7.7c-0.4-1.3,0.6-1.9,1.4-1.9h64.1c0.899,0,1.899,0.6,1.399,1.9   C67.8,25.1,65,32,65,32H4.3z"/><path fill="#EE3226" d="M9.7,39.3C7,39.3,6.5,37.9,6.1,37s-1.6-4.2-1.6-4.2h60.4c0,0-1.2,3.3-1.601,4.2   c-0.399,0.9-0.899,2.3-3.6,2.3H9.7z"/><g><circle cx="19.1" cy="31.4" r="10.1" fill="none" stroke="#010101" stroke-width="1.7647"/><circle cx="19.1" cy="31.4" r="10.1" fill="none" stroke="#BEBEC0" stroke-width="1.2605"/><circle cx="19.1" cy="31.4" r="10.1" fill="#EE3226"/></g><path fill="#010101" d="M22,29.8c-4.5,0-9.4,3.6-10.9,6.2c0,0,3.8-4.9,9.6-5.7c0,0-4.3,1.8-5.7,5l0.8,0.8c1.4-3.2,6.4-5.8,6.4-5.8   c2.6,0,3.5,2,3.5,2S25.5,29.8,22,29.8z M22,28.6h-0.9c0.8,0.1,0.9,0.3,0.9,0.3V28.6z M26.6,28.2c-0.2-0.3-1.4-0.5-1.4-0.5   s-0.1-0.8-0.3-0.9c0,0-1.4-0.4-3.4-0.4c-6,0-10,4-10,4s3.7-2.7,8.4-2.7c2.4,0,2.3,0.6,2.4,0.7c0.1,0.1,0.2,0.2,0.2,0.2   c0.3,0.1,1,0.3,1,0.5c0,0.2,0.1,0.7,0.1,0.7s1.1-0.4,2.1-0.4c0.6,0,0.9,0.3,0.9,0.3S26.8,28.5,26.6,28.2z M24.3,28   c0,0-0.1-0.3-0.8-0.4h0.9L24.3,28z"/><path fill="#FFFFFF" d="M22.1,29.9c-4.5,0-9.4,3.6-10.9,6.2c0,0,3.8-4.899,9.6-5.7c0,0-4.3,1.8-5.7,5l0.8,0.8   c1.4-3.2,6.4-5.8,6.4-5.8c2.6,0,3.5,2,3.5,2S25.6,29.9,22.1,29.9z M22.1,28.7h-0.9c0.8,0.1,0.9,0.3,0.9,0.3V28.7z M26.7,28.3   c-0.2-0.3-1.4-0.5-1.4-0.5S25.1,27,25,26.9c0,0-1.4-0.4-3.4-0.4c-6,0-10,4-10,4s3.7-2.7,8.4-2.7c2.4,0,2.3,0.6,2.4,0.7   c0,0.2,0.2,0.2,0.2,0.2c0.3,0.1,1,0.3,1,0.5c0,0.2,0.1,0.7,0.1,0.7s1.1-0.4,2.1-0.4c0.6,0,0.9,0.3,0.9,0.3S26.9,28.6,26.7,28.3z    M24.4,28.2c0,0-0.1-0.3-0.8-0.4h0.9L24.4,28.2z"/><g enable-background="new    "><path fill="#FFFFFF" d="M36.6,36.7l-0.3,1H35.9l1.1-3.3h0.5l1.1,3.3h-0.5l-0.399-1H36.6z M37.7,36.4l-0.3-1    C37.3,35.2,37.3,35,37.2,34.8l0,0c0,0.2-0.101,0.4-0.2,0.6l-0.3,1H37.7z"/><path fill="#FFFFFF" d="M40.3,34.7c0,0.1-0.1,0.3-0.3,0.3s-0.3-0.1-0.3-0.3c0-0.2,0.1-0.3,0.3-0.3S40.3,34.5,40.3,34.7z M39.8,37.8    v-2.4h0.4v2.4H39.8z"/><path fill="#FFFFFF" d="M41.7,36.1c0-0.3,0-0.5,0-0.7H42.1v0.5l0,0c0.101-0.301,0.4-0.5,0.7-0.5H42.9v0.4H42.8    c-0.3,0-0.5,0.2-0.6,0.601c0,0.1,0,0.1,0,0.199V37.9h-0.4V36.1H41.7z"/><path fill="#FFFFFF" d="M44.1,34.2h0.4v3.5h-0.4V34.2z"/><path fill="#FFFFFF" d="M46.5,34.7c0,0.1-0.1,0.3-0.3,0.3s-0.3-0.1-0.3-0.3c0-0.2,0.1-0.3,0.3-0.3S46.5,34.5,46.5,34.7z M46,37.8    v-2.4h0.4v2.4H46z"/><path fill="#FFFFFF" d="M48,36c0-0.2,0-0.5,0-0.6h0.4v0.4l0,0c0.1-0.2,0.399-0.5,0.8-0.5c0.3,0,0.8,0.2,0.8,1v1.4h-0.4v-1.4    c0-0.399-0.1-0.7-0.6-0.7c-0.3,0-0.5,0.2-0.6,0.4c0,0.1,0,0.1,0,0.2V37.6H48V36z"/><path fill="#FFFFFF" d="M51.7,36.6c0,0.601,0.399,0.801,0.8,0.801c0.3,0,0.5-0.101,0.7-0.101l0.1,0.3    C53.1,37.7,52.9,37.7,52.5,37.7c-0.7,0-1.2-0.5-1.2-1.2s0.4-1.3,1.101-1.3c0.8,0,1,0.7,1,1.1c0,0.101,0,0.2,0,0.2h-1.7V36.6z     M53,36.3c0-0.3-0.1-0.7-0.6-0.7c-0.4,0-0.601,0.4-0.7,0.7H53z"/><path fill="#FFFFFF" d="M54.6,37.3C54.7,37.4,55,37.5,55.2,37.5c0.3,0,0.5-0.2,0.5-0.4c0-0.199-0.101-0.3-0.4-0.399    c-0.399-0.2-0.6-0.4-0.6-0.7c0-0.4,0.3-0.7,0.8-0.7c0.2,0,0.5,0.1,0.6,0.1L56,35.7C55.9,35.6,55.7,35.6,55.5,35.6    c-0.3,0-0.4,0.101-0.4,0.301c0,0.199,0.101,0.3,0.5,0.399C56,36.5,56.2,36.7,56.2,37c0,0.4-0.3,0.7-0.9,0.7    c-0.3,0-0.5-0.101-0.7-0.2V37.3z"/></g><g><path fill="none" d="M39,28.1h-6.5c0,0,0-0.1,0-0.9c0-0.8,0.8-2.9,3.1-2.9    c2.301,0,6.101,0,6.101,0V26c0,0-4.9,0-5.5,0c-0.9,0-1,0.5-1,0.5h6.5c0,0,0,0.1,0,0.9c0,0.8-0.8,2.9-3.101,2.9c-2.3,0-6.1,0-6.1,0    v-1.7c0,0,4.9,0,5.5,0C38.8,28.6,39,28.1,39,28.1z" stroke="#FFFFFF" stroke-width="0.7563"/><path fill="#010101" d="M39,28.1h-6.5c0,0,0-0.1,0-0.9c0-0.8,0.8-2.9,3.1-2.9c2.301,0,6.101,0,6.101,0V26c0,0-4.9,0-5.5,0    c-0.9,0-1,0.5-1,0.5h6.5c0,0,0,0.1,0,0.9c0,0.8-0.8,2.9-3.101,2.9c-2.3,0-6.1,0-6.1,0v-1.7c0,0,4.9,0,5.5,0    C38.8,28.6,39,28.1,39,28.1z"/></g><g><path fill="none" d="M51,27.3c0,0,0.8-0.3,0.8-1.5c0-0.5-0.399-1.6-1.7-1.6    c-1.3,0-7.6,0-7.6,0v6.2c0,0,6.3,0,7.6,0c1.301,0,1.7-1,1.7-1.6C51.8,27.6,51,27.3,51,27.3z M49,28.1c0,0,0.2,0,0.2,0.2    c0,0.2-0.2,0.2-0.2,0.2h-4.3V26H49c0,0,0.2,0,0.2,0.2c0,0.2-0.2,0.2-0.2,0.2h-3.5V28L49,28.1L49,28.1z" stroke="#FFFFFF" stroke-width="0.7563"/><path fill="#010101" d="M51,27.3c0,0,0.8-0.3,0.8-1.5c0-0.5-0.399-1.6-1.7-1.6c-1.3,0-7.6,0-7.6,0v6.2c0,0,6.3,0,7.6,0    c1.301,0,1.7-1,1.7-1.6C51.8,27.6,51,27.3,51,27.3z M49,28.1c0,0,0.2,0,0.2,0.2c0,0.2-0.2,0.2-0.2,0.2h-4.3V26H49    c0,0,0.2,0,0.2,0.2c0,0.2-0.2,0.2-0.2,0.2h-3.5V28L49,28.1L49,28.1z"/></g><g><path fill="none" d="M55.9,24.2c-1.4,0-3.2,1.1-3.2,2.7s0,3.5,0,3.5H55.1v-1.5H59.9v1.5H62    v-6.2C61.9,24.2,57.3,24.2,55.9,24.2z M59.8,27.1H55c0-0.3,0.3-1.2,1.7-1.2c1.399,0,3.1,0,3.1,0V27.1L59.8,27.1z" stroke="#FFFFFF" stroke-width="0.7563"/><path fill="#010101" d="M55.9,24.2c-1.4,0-3.2,1.1-3.2,2.7s0,3.5,0,3.5H55.1v-1.5H59.9v1.5H62v-6.2C61.9,24.2,57.3,24.2,55.9,24.2z     M59.8,27.1H55c0-0.3,0.3-1.2,1.7-1.2c1.399,0,3.1,0,3.1,0V27.1L59.8,27.1z"/></g></svg>