<svg xmlns="http://www.w3.org/2000/svg" id="Layer_1" width="51" height="51" viewBox="0 0 51.01 51.01"><defs><style>
            .cls-1,.cls-2{fill:#008abf;}.cls-1,.cls-4,.cls-5{fill-rule:evenodd;}.cls-3,.cls-5{fill:#002755;}.cls-4{fill:#4fc6e0;}
        </style></defs><polygon points="20.49 8.16 29.58 17.25 24.17 36.29 17.28 29.53 13.18 13.15 20.49 8.16" class="cls-1"/><polygon points="35.73 31.6 45.99 31.6 37.78 39.12 24.17 36.29 35.73 31.6" class="cls-2"/><polygon points="37.78 39.12 25.48 42.49 11.13 50.06 24.17 36.29 37.78 39.12" class="cls-3"/><polygon points="17.28 43.57 4.98 45.96 11.13 50.06 17.28 43.57" class="cls-4"/><polygon points="35.73 31.6 45.99 31.6 40.79 29.55 35.73 31.6" class="cls-5"/><polygon points="44.19 33.25 45.99 35.05 45.99 31.6 44.19 33.25" class="cls-5"/><polygon points="35.73 31.6 29.58 17.25 24.17 36.29 35.73 31.6" class="cls-4"/><polygon points="13.18 13.15 15.23 2.9 7.03 0.85 13.18 13.15" class="cls-5"/><polygon points="20.49 8.16 15.23 2.9 13.18 13.15 20.49 8.16" class="cls-4"/></svg>