<svg xmlns="http://www.w3.org/2000/svg" version="1.1" id="Layer_1" x="0px" y="0px" width="70" height="70" viewBox="0 0 70 70" xml:space="preserve" baseProfile="tiny" overflow="scroll"><g><g><path fill="#BBDC00" d="M69.7,35c0,19.2-15.5,34.7-34.7,34.7C15.9,69.7,0.3,54.2,0.3,35C0.3,15.8,15.9,0.3,35,0.3    C54.2,0.3,69.7,15.8,69.7,35"/><path fill="#FFFFFF" d="M32.5,16.9c-5.5,0-9,0.3-11.6,1.3c-4.3,1.7-7.3,5.2-7.3,9.8c0,3.9,1.8,6.6,7,9.9c5.5,3.4,6.6,4.5,6.6,6.5    c0,2.2-2.2,4.7-7.8,4.7c-1.9,0-4.9-0.3-6.8-0.7l-0.9-0.2c-0.5,1.3-1.6,4.5-2,5.7l0.9,0.3c1.7,0.5,5.7,1,8.6,1    c9.5,0,15.2-5.8,15.2-11.8c0-3.7-1.7-6.5-7.4-10.1c-2.9-1.8-4.3-2.9-5.2-3.8c-0.7-0.9-0.8-1.6-0.8-2.3c0-0.7,0.2-1.5,0.6-2.1    c0.5-0.7,1.4-1.2,2.6-1.6c1.3-0.4,3.6-0.4,7.2-0.4H35l2.4-6H32.5z M58,16.9H41l-2.4,6h5.6c3.8,0,4.5-0.1,5.5-0.1    c-1.4,3.1-9.6,24.2-9.6,24.2h7c0,0,10.5-26.2,11.6-29C59,17.5,58.8,16.9,58,16.9z"/></g></g></svg>