<svg xmlns="http://www.w3.org/2000/svg" id="Layer_1" width="70" height="70" x="0" y="0" version="1.1" viewBox="0 0 70 70" xml:space="preserve" style="enable-background:new 0 0 70 70"><style type="text/css">.st0{clip-path:url(#SVGID_1_);fill:url(#SVGID_2_)}.st1{clip-path:url(#SVGID_3_)}.st2{clip-path:url(#SVGID_4_);fill:#fff}.st3{clip-path:url(#SVGID_5_)}</style><g><g><defs><polygon id="SVGID_10_" points="6.5 66.9 68.4 66.9 6.5 5"/></defs><clipPath id="SVGID_1_"><use xmlns:xlink="http://www.w3.org/1999/xlink" style="overflow:visible" xlink:href="#SVGID_10_"/></clipPath><linearGradient id="SVGID_2_" x1="-129.089" x2="-128.826" y1="-308.911" y2="-308.911" gradientTransform="matrix(235.1206 0 0 235.1206 30358.0898 72667.1797)" gradientUnits="userSpaceOnUse"><stop offset="0" style="stop-color:#f58220"/><stop offset="1" style="stop-color:#ffcb05"/></linearGradient><rect width="61.9" height="61.9" x="6.5" y="5" class="st0"/></g></g><g><g><defs><rect id="SVGID_13_" width="97.2" height="92.9" x="-4.2" y="-2.8"/></defs><clipPath id="SVGID_3_"><use xmlns:xlink="http://www.w3.org/1999/xlink" style="overflow:visible" xlink:href="#SVGID_13_"/></clipPath><path d="M46.4,54.1l0.8-1l0.9-1.2l1.2-1.5l1.4-1.6l1.6-1.7l0.9-0.9l0.9-0.8l0.9-0.8l0.9-0.7l1.2-0.7l1-0.6l1.1-0.9 l1.2-1.1l1.3-1.3l0.6-0.7l0.6-0.8l0.5-0.8c0.7-1.1,1.3-2.2,1.8-3.4l0.4-1.2l0.3-1l0.2-1l0.2-0.9l0-0.8l0-0.7l0-0.9l-0.1-0.8l0-0.3 L66,25.9l-0.2-0.2l-0.3-0.2l-0.4-0.1h-0.4l-0.4,0.1L64,25.8l-0.7,0.6l-0.4,0.4l-0.4,0.5l-0.2,0l-0.4,0l-0.4,0.1l-0.4,0.2L60.4,28 l-0.5,0.4l-0.4,0.4L59,29.3l-0.4,0.6h0l-0.2,0l-0.5,0.3l-0.3,0.2l-0.4,0.3l-0.4,0.4l-0.3,0.5l-0.3,0.1L56,31.8l-0.5,0.3l-0.3,0.3 l-0.4,0.3l-0.3,0.4l-0.3,0.5L53.7,34l-0.2,0.2l-0.5,0.6l-0.4,0.4l-0.4,0.6l-0.4,0.7l-0.4,0.8l0,0l0,0l-0.2,0.2l-3.3,2.6 c-1.5,1.3-2.9,2.5-4.3,3.9l-1.1,1.1l-1.1,1.2l-1.1,1.2l-1,1.3c-0.4,0-0.7,0-1,0.2c-0.7-1-1.7-2.3-2.5-3.4l-1.8-2.3l-2.3-2.8 l-1.3-1.6l-1.4-1.6L27,36l-1.6-1.7l-1.7-1.7l-1.8-1.7l-1.8-1.6l-1.8-1.5l-0.6-1.2l-0.5-0.9l-0.7-1.1l-0.8-1.2l-0.9-1.3L13.6,21 l-1.2-1.2l-4.2-3.9L7,14.7l-0.7-0.9l-0.5-0.5l-0.4-0.4l-0.4-0.4h0l0,0l-0.2,0l-0.2-0.1l-0.2,0l-0.2,0l-0.2,0l-0.2,0.1l-0.3,0.2 l-0.2,0.2l-0.4,0.5l-0.3,0.6l-0.1,0.6l0,0.6l0,0.8l0.2,0.9l0.2,0.6l0.3,0.7l-0.2,0.5l-0.1,0.5l-0.1,0.5l0,0.7l0,0.8L2.9,22L3,22.4 l0.2,0.4l0.2,0.4l0.3,0.4l0,0.5v0.5l0,0.7L3.8,26L4,26.5L4.2,27l0.3,0.5L5,28.1l0.6,0.5l0.1,0.6l0.1,0.5L6,30.2l0.3,0.6l0.4,0.6 l0.6,0.7l0.4,0.3l0.4,0.3L8.7,33l0.5,0.3l0.4,0.6l0.2,0.3l0.3,0.3l0.4,0.4l0.5,0.4l0.6,0.4l0.8,0.4l0.9,0.4l0.4,0.5l0.8,0.9 l0.7,0.7l0.7,0.6l0.4,0.4l0.6,0.7l1.6,2l1.8,2.3l1.5,2.2l0.8,1.3l1.4,2.2l0.6,0.8l0.6,0.7l0.4,0.4c-1,0.3-2,0.5-3.1,0.7 c-2.3,0.3-4.5,0-6.7-0.6l-1.5-0.5l-0.3-0.1c-0.4-0.1-0.5-0.1-0.3,0.3l0.2,0.3l0.2,0.3l0.4,0.5l0.8,0.9l0.5,0.5l0.6,0.5l0.7,0.5 l0.7,0.5l0.5,0.3l0.4,0.3l0.5,0.2h0l0.3,0h0.4l1.2,0.2l1.2-0.3l0.3-0.1l0.8,0.4l1.9,0.9l1.3,0.6l1.3,0.5l1.4,0.5l1.4,0.4l2.1,0.5 l1,0.2l1.1,0.1l1.3,0.1l1.7,0h2.2l2.6,0h0.4l1.2,0l1.6,0.1l0.9,0.1l0.9,0.1l0.8,0.1l0.7,0.1l0.7,0h0.6h1.3l1.2-0.1l0.8,0h0.9 l1.2,0.1l1.7,0.2l0.3,0.1l0.3,0.2l0.2,0.2l0.1,0.3l0,0.3l0.1,0.1l0.1,0h0.2l0.2-0.1l0.2-0.2l0.2-0.2l0.2-0.3l0.1-0.3l0.1-0.3 l0.1-0.4V61l0-0.3L60,60.3l-0.1-0.3l-0.2-0.2l-0.3-0.2l-0.3-0.1l-0.4-0.1l-0.4-0.1l-0.4-0.1l-0.4-0.1l-0.8-0.4l-0.7-0.4l-0.5-0.4 l-0.5-0.4l-0.5-0.3l-0.2-0.1l-0.2,0l0-0.1l0-0.1l-0.1-0.2l-0.2-0.2l-0.3-0.3l-0.4-0.3l-0.5-0.3l-0.6-0.3l-0.5-0.1L50.7,55h-0.5h-1 l-0.5,0l-0.5-0.1l-0.5-0.1l-0.4-0.1L46.4,54.1z" class="st1"/></g><g><defs><rect id="SVGID_15_" width="97.2" height="92.9" x="-4.2" y="-2.8"/></defs><clipPath id="SVGID_4_"><use xmlns:xlink="http://www.w3.org/1999/xlink" style="overflow:visible" xlink:href="#SVGID_15_"/></clipPath><path d="M45.7,53.7c-1-0.8-1.9-1.8-3.3-1.6c1.3,0.2,1.8,0.9,2.6,1.8l0.7,0.5l0.4,0.3l0.4,0.3l0.4,0.2l0.4,0.1l0.4,0.1 l0.7,0.1l1.5,0.1l0.9,0.1l0.4,0.1l0.5,0.2l0.4,0.2l0.4,0.3l0.3,0.3l0.2,0.2l0.3,0.4l0.1,0.2l0.3,0l0.4,0.2l0.4,0.2l0.3,0.3 l0.3,0.3l0.3,0.2l0.7,0.4l0.4,0.2l0.5,0.2l1,0.2l0.4,0.1l0.4,0.2l0.2,0.1l0.1,0.2l0.1,0.2l0.1,0.2V61l0,0.2l-0.2,0.4L59,62 l-0.1,0.1v0l0-0.2l-0.1-0.3l-0.3-0.3l-0.2-0.1l-0.2-0.1L57.6,61l-0.6-0.1l-0.8-0.1l-0.8-0.1l-0.7-0.1l-0.7,0h-0.7l-1.9,0.1h-1.2 l-1.2-0.1l-2.5-0.4l-1.6-0.2l-2.1-0.1l-1.1,0h-1l-2,0h-2.1l-1.2,0l-1.3-0.1L33,59.5l-1.5-0.3l-1.4-0.4l-1.4-0.4L27.4,58l-1.2-0.4 l-1-0.4l-0.8-0.4l-0.7-0.3l-0.7-0.3l-1.3-0.5l-1-0.3l-0.4-0.1l0.5,0.2l0.5,0.3l0.5,0.3l-1.5,0.2c-0.8,0-0.9-0.1-1.5-0.4l-0.7-0.5 l-0.6-0.5L17,54.1l-1.3-1.3c3.8,1.3,7.4,0.9,11.2-0.3l-0.6-0.6l-0.6-0.7l-0.6-0.8l-0.5-0.8L23.5,48l-0.9-1.5l-0.7-1L21,44.3 l-1.8-2.4l-1.7-2.1l-0.6-0.7l-0.4-0.4l-0.7-0.6l-0.6-0.3L14.5,37l0.8,0h0.8l0.8,0l-0.9-0.1l-0.8-0.1l-0.7-0.2l-0.7-0.2L13.3,36 l-0.5-0.3l-0.4-0.3l-0.4-0.3l-0.7-0.5l-0.4-0.5l-0.4-0.4l0.4,0l0.5,0h0.9l0.7,0h0.3l-1.1-0.2l-0.9-0.2l-0.9-0.3l-0.7-0.3L9,32.4 L8.4,32L8,31.6l-0.4-0.4l-0.3-0.4l-0.2-0.4l-0.3-0.6l-0.2-0.4l0-0.1L7,29.4l0.4,0.1l1,0.2l1.1,0.1l-1-0.4l-0.9-0.4L7,28.7 l-0.6-0.4l-0.5-0.4l-0.4-0.4L5.2,27l-0.2-0.4l-0.2-0.4l-0.2-0.5L4.5,25v-0.4v-0.1l0.4,0.3L5.3,25l1,0.5l0.9,0.3L7.5,26l-0.9-0.6 l-0.8-0.6l-0.7-0.6l-0.5-0.6L4.1,23l-0.3-0.6l-0.2-0.6l-0.1-0.5l0-0.5v-0.4V20l0-0.3l0.1-0.5l0-0.2l0.3,0.3l0.3,0.3l0.7,0.5 l0.7,0.5L6.2,21l0.6,0.3l0.5,0.2l0.4,0.2l-0.9-0.5l-0.8-0.6l-0.7-0.6l-0.6-0.6l-0.5-0.7l-0.4-0.7l-0.3-0.7l-0.3-0.7L3.1,16l0-0.5 v-0.5l0-0.4l0.1-0.4l0.1-0.3l0.3-0.4l0.1-0.1l0.1,0l0.3-0.1l0.2,0h0l0.3,0.3l0.4,0.4l0.5,0.5l0.8,0.8l1.3,1.3l4.2,3.9l0.6,0.6 l0.6,0.6l1.1,1.3l1,1.3l0.8,1.3l0.7,1.1l0.5,0.9l0.4,0.8l1.8,1.5l1.8,1.6L23,33l1.7,1.7l1.6,1.7l1.5,1.7l1.4,1.6l1.3,1.6l2.3,2.8 l1.8,2.3c0.9,1.2,1.8,2.4,2.4,3.6c1.2,1,2.3,2.1,3.1,3.3c0.6,0,1.1,0,1.7,0c-0.5-0.3-0.9-0.4-1.5-0.5c-0.8-1.2-1.5-2.2-2.6-3.1 c0.4-0.2,1.2-0.1,1.5-0.1c0.5-1.3,9.1-9.7,11.8-11.1c0.4-0.8,1.3-2.7,2.5-3.7c-0.2,0.4-0.2,0.9-0.1,1.3c0.4-1.2,1.1-2.9,2.5-3.7 c-0.1,0.5,0,0.9,0.1,1.3c0.2-1.3,1.2-2.7,2.4-3.3c-0.1,0.4,0,0.9,0.1,1.3c0-1.7,1.7-3.9,3.4-3.9c-0.2,0.6-0.3,1.2-0.3,1.8 c0.6-1.8,1.2-2.6,2.7-3.6c0.4-0.2,0.9,0.1,0.9,0.5c-0.2,3.8-1.2,8-3.5,11c-1.8,2.4-4.2,4.2-6.7,5.7c-0.4,0.2-0.6,0.4-0.9,0.7 C51.2,47.2,48,50.4,45.7,53.7" class="st2"/></g><g><defs><rect id="SVGID_17_" width="97.2" height="92.9" x="-4.2" y="-2.8"/></defs><clipPath id="SVGID_5_"><use xmlns:xlink="http://www.w3.org/1999/xlink" style="overflow:visible" xlink:href="#SVGID_17_"/></clipPath><polygon points="51.5 57.7 51.3 57.6 51.1 57.6 50.7 57.6 49.9 57.6 49.5 57.7 49.5 57.7 49.5 57.8 49.7 57.8 50.2 57.8 50.6 57.8 50.6 57.9 50.6 58.1 50.7 58.2 50.8 58.3 50.9 58.4 51.1 58.4 51.3 58.4 51.4 58.4 51.5 58.3 51.6 58.2 51.6 58.1 51.6 58 51.8 58 51.8 58.1 52 58.1 51.8 58 51.7 57.8" class="st3"/></g></g></svg>