<svg xmlns="http://www.w3.org/2000/svg" id="svg6364" width="70" height="70" x="0" y="0" enable-background="new 0 0 70 70" version="1.1" viewBox="0 0 70 70" xml:space="preserve"><linearGradient id="SVGID_1_" x1="283.777" x2="323.645" y1="-263.793" y2="-244.349" gradientTransform="matrix(1 0 0 -1 -271 -218)" gradientUnits="userSpaceOnUse"><stop offset="0" style="stop-color:#adadad"/><stop offset=".165" style="stop-color:#fff"/></linearGradient><path fill="url(#SVGID_1_)" d="M1.9,13.801c18,0,18,0,18,0L67.3,56.5H18L1.9,13.801"/><g><g><g><g><defs><polygon id="SVGID_2_" points="8.7 13.2 11.2 16.601 48.1 56.9 68 56.9 19.3 13.2"/></defs><clipPath id="SVGID_3_"><use xmlns:xlink="http://www.w3.org/1999/xlink" overflow="visible" xlink:href="#SVGID_2_"/></clipPath><linearGradient id="SVGID_4_" x1="311.075" x2="286.375" y1="-247.475" y2="-272.174" gradientTransform="matrix(1 0 0 -1 -271 -218)" gradientUnits="userSpaceOnUse"><stop offset="0" style="stop-color:#adadad"/><stop offset=".242" style="stop-color:#fff"/></linearGradient><path fill="url(#SVGID_4_)" d="M1.7,13.801c18,0,18,0,18,0L67.1,56.5H17.7L1.7,13.801" clip-path="url(#SVGID_3_)"/></g></g></g></g><linearGradient id="path6986_1_" x1="1010.449" x2="1030.691" y1="-1098.483" y2="-1081.673" gradientTransform="matrix(0.5944 0 0 -0.5944 -590.0815 -624.0212)" gradientUnits="userSpaceOnUse"><stop offset="0" style="stop-color:#820008"/><stop offset=".346" style="stop-color:#c70d12"/><stop offset=".451" style="stop-color:#e26a48"/><stop offset=".575" style="stop-color:#eb9b7b"/><stop offset=".746" style="stop-color:#e26b49"/><stop offset=".839" style="stop-color:#cc221b"/><stop offset="1" style="stop-color:#940109"/></linearGradient><path id="path6986" fill="url(#path6986_1_)" d="M9,27.7l24.8,0.5L19.5,15.4H4.4L9,27.7"/><linearGradient id="path6988_1_" x1="1042.246" x2="1096.388" y1="-1161.005" y2="-1110.048" gradientTransform="matrix(0.5944 0 0 -0.5944 -590.0815 -624.0212)" gradientUnits="userSpaceOnUse"><stop offset="0" style="stop-color:#0b1838"/><stop offset=".208" style="stop-color:#032f70"/><stop offset=".355" style="stop-color:#585e97"/><stop offset=".451" style="stop-color:#8182b2"/><stop offset=".512" style="stop-color:#585e98"/><stop offset=".618" style="stop-color:#032f70"/><stop offset="1" style="stop-color:#061c41"/></linearGradient><path id="path6988" fill="url(#path6988_1_)" d="M63.4,55L48.6,41.7L19,55H63.4"/><linearGradient id="path6990_1_" x1="1013.672" x2="1050.486" y1="-1129.597" y2="-1096.858" gradientTransform="matrix(0.5944 0 0 -0.5944 -590.0815 -624.0212)" gradientUnits="userSpaceOnUse"><stop offset="0" style="stop-color:#084c11"/><stop offset=".391" style="stop-color:#027516"/><stop offset=".6" style="stop-color:#64a378"/><stop offset=".674" style="stop-color:#88b797"/><stop offset=".753" style="stop-color:#64a279"/><stop offset=".849" style="stop-color:#138437"/><stop offset="1" style="stop-color:#084c11"/></linearGradient><path id="path6990" fill="url(#path6990_1_)" d="M36.1,30.301L46.2,39.4L18.8,54.5L9.3,28.2 L36.1,30.301"/><linearGradient id="path6998_1_" x1="1091.261" x2="1094.391" y1="76.186" y2="68.664" gradientTransform="matrix(2.9055 0 0 -2.9055 -3150.1755 247.6705)" gradientUnits="userSpaceOnUse"><stop offset="0" style="stop-color:#90600c"/><stop offset=".076" style="stop-color:#c6891c"/><stop offset=".263" style="stop-color:#f2c876"/><stop offset=".496" style="stop-color:#fbf1d6"/><stop offset=".692" style="stop-color:#fbf1d6"/><stop offset=".845" style="stop-color:#f2c876"/><stop offset=".947" style="stop-color:#c6891c"/><stop offset="1" style="stop-color:#90600c"/></linearGradient><path id="path6998" fill="url(#path6998_1_)" d="M9.2,28.2l17,11.601L18.8,54.5l19.3-18.1 L9.2,28.2"/><linearGradient id="path7122_1_" x1="1089.104" x2="1089.502" y1="78.516" y2="76.797" gradientTransform="matrix(2.9055 0 0 -2.9055 -3150.1755 247.6705)" gradientUnits="userSpaceOnUse"><stop offset="0" style="stop-color:#fde2a0"/><stop offset="1" style="stop-color:#cc770d"/></linearGradient><path id="path7122" fill="url(#path7122_1_)" d="M11.3,20c1-1.699,3.3-2.3,5.2-1.3s2.6,3.3,1.7,5 c-1,1.7-3.3,2.3-5.2,1.3S10.4,21.7,11.3,20"/><linearGradient id="path7072_1_" x1="1090.557" x2="1092.015" y1="72.136" y2="73.21" gradientTransform="matrix(2.9055 0 0 -2.9055 -3150.1755 247.6705)" gradientUnits="userSpaceOnUse"><stop offset="0" style="stop-color:#000002"/><stop offset="1" style="stop-color:#5a5a5a"/></linearGradient><path id="path7072" fill="url(#path7072_1_)" d="M9.2,28.2l17,11.601L18.8,54.5L9.2,28.2"/><rect width="70" height="70" x="-.5" y="-.5" fill="none"/></svg>