<svg xmlns="http://www.w3.org/2000/svg" version="1.1" id="svg6364" x="0px" y="0px" width="70px" height="70px" viewBox="0 0 70 70" enable-background="new 0 0 70 70" xml:space="preserve"><linearGradient id="SVGID_1_" gradientTransform="matrix(1 0 0 -1 -271 -218)" gradientUnits="userSpaceOnUse" x1="283.7773" x2="323.6451" y1="-263.7935" y2="-244.3488"><stop offset="0" style="stop-color:#ADADAD"/><stop offset="0.1648" style="stop-color:#FFFFFF"/></linearGradient><path fill="url(#SVGID_1_)" d="M1.9,13.801c18,0,18,0,18,0L67.3,56.5H18L1.9,13.801"/><g><g><g><g><defs><polygon id="SVGID_2_" points="8.7,13.2 11.2,16.601 48.1,56.9 68,56.9 19.3,13.2      "/></defs><clipPath id="SVGID_3_"><use xmlns:xlink="http://www.w3.org/1999/xlink" xlink:href="#SVGID_2_" overflow="visible"/></clipPath><linearGradient id="SVGID_4_" gradientTransform="matrix(1 0 0 -1 -271 -218)" gradientUnits="userSpaceOnUse" x1="311.0752" x2="286.3755" y1="-247.4746" y2="-272.1743"><stop offset="0" style="stop-color:#ADADAD"/><stop offset="0.2418" style="stop-color:#FFFFFF"/></linearGradient><path clip-path="url(#SVGID_3_)" fill="url(#SVGID_4_)" d="M1.7,13.801c18,0,18,0,18,0L67.1,56.5H17.7L1.7,13.801"/></g></g></g></g><linearGradient id="path6986_1_" gradientTransform="matrix(0.5944 0 0 -0.5944 -590.0815 -624.0212)" gradientUnits="userSpaceOnUse" x1="1010.4492" x2="1030.6914" y1="-1098.4834" y2="-1081.6729"><stop offset="0" style="stop-color:#820008"/><stop offset="0.3465" style="stop-color:#C70D12"/><stop offset="0.4513" style="stop-color:#E26A48"/><stop offset="0.5748" style="stop-color:#EB9B7B"/><stop offset="0.7459" style="stop-color:#E26B49"/><stop offset="0.8392" style="stop-color:#CC221B"/><stop offset="1" style="stop-color:#940109"/></linearGradient><path id="path6986" fill="url(#path6986_1_)" d="M9,27.7l24.8,0.5L19.5,15.4H4.4L9,27.7"/><linearGradient id="path6988_1_" gradientTransform="matrix(0.5944 0 0 -0.5944 -590.0815 -624.0212)" gradientUnits="userSpaceOnUse" x1="1042.2461" x2="1096.3882" y1="-1161.0054" y2="-1110.048"><stop offset="0" style="stop-color:#0B1838"/><stop offset="0.2078" style="stop-color:#032F70"/><stop offset="0.3555" style="stop-color:#585E97"/><stop offset="0.4509" style="stop-color:#8182B2"/><stop offset="0.5117" style="stop-color:#585E98"/><stop offset="0.6176" style="stop-color:#032F70"/><stop offset="1" style="stop-color:#061C41"/></linearGradient><path id="path6988" fill="url(#path6988_1_)" d="M63.4,55L48.6,41.7L19,55H63.4"/><linearGradient id="path6990_1_" gradientTransform="matrix(0.5944 0 0 -0.5944 -590.0815 -624.0212)" gradientUnits="userSpaceOnUse" x1="1013.6719" x2="1050.4862" y1="-1129.5972" y2="-1096.8582"><stop offset="0" style="stop-color:#084C11"/><stop offset="0.391" style="stop-color:#027516"/><stop offset="0.5997" style="stop-color:#64A378"/><stop offset="0.6741" style="stop-color:#88B797"/><stop offset="0.7529" style="stop-color:#64A279"/><stop offset="0.8492" style="stop-color:#138437"/><stop offset="1" style="stop-color:#084C11"/></linearGradient><path id="path6990" fill="url(#path6990_1_)" d="M36.1,30.301L46.2,39.4L18.8,54.5L9.3,28.2   L36.1,30.301"/><linearGradient id="path6998_1_" gradientTransform="matrix(2.9055 0 0 -2.9055 -3150.1755 247.6705)" gradientUnits="userSpaceOnUse" x1="1091.2607" x2="1094.3907" y1="76.1855" y2="68.6637"><stop offset="0" style="stop-color:#90600C"/><stop offset="0.0765" style="stop-color:#C6891C"/><stop offset="0.2626" style="stop-color:#F2C876"/><stop offset="0.4958" style="stop-color:#FBF1D6"/><stop offset="0.6922" style="stop-color:#FBF1D6"/><stop offset="0.8454" style="stop-color:#F2C876"/><stop offset="0.9465" style="stop-color:#C6891C"/><stop offset="1" style="stop-color:#90600C"/></linearGradient><path id="path6998" fill="url(#path6998_1_)" d="M9.2,28.2l17,11.601L18.8,54.5l19.3-18.1   L9.2,28.2"/><linearGradient id="path7122_1_" gradientTransform="matrix(2.9055 0 0 -2.9055 -3150.1755 247.6705)" gradientUnits="userSpaceOnUse" x1="1089.1045" x2="1089.5015" y1="78.5156" y2="76.797"><stop offset="0" style="stop-color:#FDE2A0"/><stop offset="1" style="stop-color:#CC770D"/></linearGradient><path id="path7122" fill="url(#path7122_1_)" d="M11.3,20c1-1.699,3.3-2.3,5.2-1.3s2.6,3.3,1.7,5   c-1,1.7-3.3,2.3-5.2,1.3S10.4,21.7,11.3,20"/><linearGradient id="path7072_1_" gradientTransform="matrix(2.9055 0 0 -2.9055 -3150.1755 247.6705)" gradientUnits="userSpaceOnUse" x1="1090.5566" x2="1092.0153" y1="72.1357" y2="73.2103"><stop offset="0" style="stop-color:#000002"/><stop offset="1" style="stop-color:#5A5A5A"/></linearGradient><path id="path7072" fill="url(#path7072_1_)" d="M9.2,28.2l17,11.601L18.8,54.5L9.2,28.2"/><rect x="-0.5" y="-0.5" width="70" fill="none" height="70"/></svg>