<svg xmlns="http://www.w3.org/2000/svg" version="1.1" id="Layer_1" x="0px" y="0px" width="70px" height="70px" viewBox="0 0 70 70" enable-background="new 0 0 70 70" xml:space="preserve"><metadata/><rect width="70" fill="none" height="70"/><g><path id="path1683" fill="#E44025" d="M24.7,36c0,0-2.8-15.4,5.5-17.4c8.3-2,9.3,1.8,9.3,1.8l0.2,2l2.2-0.9l0.399,3    c0,0,6.3-0.8,5.4,2c-0.9,2.7-11.7,4.9-13.5,11.1c0,0,16.6-10.2,24-7.6c7.399,2.6,4.2,5.8,4.2,5.8l1.6,1.4L61.9,39l3.1,6.3    c0,0-0.4,6.3-9.8,9l-12-7c0,0,11.1,9.7,7.2,16.3c-3.9,6.601-7.9,3.5-7.9,3.5l-1.8-3.5L39,66.3l-1.4-1c0,0-10.2,2.7-11.1,2.2    s-1.7-9.7,1.8-14.1c3.5-4.4-0.2,0.6-0.2,0.6S20,57.9,16.4,64.5c-3.6,6.7-9.1-1.6-9.1-1.6L8,60.4L6.5,60.3l-4.4-1.8    c0,0-3.4-11.8,2.4-17.2C10.3,35.9,8.9,38.4,8.9,38.4L7.7,35.3l2.6,0.601c0,0,3.1-8.2,5-8.3c1.8-0.2,7.2,14.4,12.3,15.7    C32.8,44.7,25.1,39.2,24.7,36"/><g><path id="path1685" fill="#F8BB16" d="M53.3,21.4c1.2-0.9,1.9-2.2,1.5-2.9C54.4,17.8,53.1,18,51.9,19c-1.2,0.9-1.9,2.2-1.5,2.9     C50.8,22.6,52,22.3,53.3,21.4"/><path id="path1687" fill="#F8BB16" d="M67.7,4.6c1-0.7,1.5-1.8,1.2-2.3C68.6,1.8,67.6,1.9,66.6,2.7c-1,0.7-1.5,1.8-1.199,2.3     C65.6,5.5,66.7,5.3,67.7,4.6"/><path id="path1689" fill="#F8BB16" d="M61.7,12.7c1.6-1.2,2.5-2.9,2-3.8s-2.2-0.6-3.8,0.6c-1.601,1.2-2.5,2.9-2,3.8     C58.4,14.2,60.1,13.9,61.7,12.7"/><path id="path1691" fill="#F8BB16" d="M55.1,25.1c1.2-0.9,1.9-2.2,1.5-2.9C56.2,21.5,54.9,21.7,53.7,22.7     c-1.2,0.9-1.9,2.2-1.5,2.9C52.6,26.2,53.9,26,55.1,25.1"/><path id="path1693" fill="#F8BB16" d="M56.8,20.8c1.2-0.9,1.9-2.2,1.5-2.9c-0.399-0.7-1.7-0.5-2.899,0.5c-1.2,0.9-1.9,2.2-1.5,2.9     C54.3,22,55.6,21.8,56.8,20.8"/><path id="path1695" fill="#F8BB16" d="M62.5,5.4c1.2-0.9,1.9-2.2,1.5-2.9C63.7,1.8,62.4,2,61.1,3C59.9,3.9,59.2,5.2,59.6,5.9     C60,6.5,61.3,6.3,62.5,5.4"/><path id="path1697" fill="#F8BB16" d="M63.5,18.8c1.2-0.9,1.9-2.2,1.5-2.9c-0.4-0.7-1.7-0.5-2.9,0.5c-1.199,0.9-1.899,2.2-1.5,2.9     C60.9,19.9,62.2,19.7,63.5,18.8"/><path id="path1697_1_" fill="#F8BB16" d="M55.1,12.6c1.2-0.9,1.9-2.2,1.5-2.9C56.2,9,54.9,9.2,53.7,10.2c-1.2,0.9-1.9,2.2-1.5,2.9     C52.6,13.8,53.9,13.5,55.1,12.6"/><path id="path1699" fill="#F8BB16" d="M14.2,49.6c0,0,4.9-3,7.5-2.5c2.6,0.5-2.1-1.899-1.5-2.8c0.6-0.899,3.9,2.3,5.1,2.9     c1.2,0.6,0.8-1.8,0.8-1.8l4.4,0.8c0,0,0.3-12-0.9-13.9c-1.2-1.8,4.3,11.3,4.3,11.3S47,38,52.1,38.5c0,0-8,2.9-8.6,3.2     c0,0,2,3.1,1.2,4.1c-0.7,1-5.2-3.1-7.2-1.2c-2,1.9,2.2,2.4,2,4.801c-0.2,2.3-1.5,3-2.2,2.1s-1.7-2.8-1.7-2.8s0.7,7.1,0.4,8.6     c0,0-1.5-6.1-2.6-7.5c-1.1-1.399-0.9,2.101-1.9,1.8c-0.9-0.199-3.3-0.8-3.4-2.6l-4.5-0.1C23.6,48.7,21.9,48.6,14.2,49.6"/><path id="path1701" fill="#F8BB16" d="M30.1,47.3c0,0,16-15.5,23.1-25.6l2.3-0.6c0,0-22,23.1-23.4,26.8"/></g></g></svg>