<svg xmlns="http://www.w3.org/2000/svg" id="Layer_1" width="70" height="70" x="0" y="0" version="1.1" viewBox="0 0 70 70" xml:space="preserve" style="enable-background:new 0 0 70 70"><style type="text/css">.st0{fill:#fff}.st1{fill:#000190}</style><title/><path d="M54.7,6.9c-0.7-0.5-1.5-0.9-2.2-1.4c-0.3-0.2-0.5-0.1-0.7,0.1c-0.8,0.7-1.7,1.3-2.5,2 c-3.7,3.2-6.9,6.8-9.1,11.2c-1.4,2.9-2.2,5.9-1.8,9.1c0.5,3.6,0.9,7.3,1.3,11c0.3,3.6,0,7.2-0.9,10.6c-0.4,1.6-1,3.2-1.5,4.7 c0.1,0,0.1-0.1,0.2-0.1c2.7-2.8,4.2-6.1,4.6-9.9c0.3-2.9,0-5.8-0.4-8.7c-0.4-3-0.8-6-0.7-9c0.1-2.6,0.6-5,1.8-7.4 c1.4-2.8,3.4-5,5.7-7C50.4,10.3,52.5,8.6,54.7,6.9z M61.7,13.4c-0.6,0.4-1.2,0.8-1.8,1.2c-2.3,1.6-4.7,3.2-6.6,5.2 c-2.4,2.5-3.5,5.5-3,9c0.7,4.8,1,9.7,0.4,14.6c-0.4,3.7-1.3,7.3-2.9,10.8c-0.1,0.1-0.1,0.3-0.2,0.6c0.2-0.2,0.3-0.2,0.3-0.3 c2-2,3.2-4.3,4-7c1.5-5.1,1.5-10.4,1.1-15.7c-0.3-4,0.5-7.7,3.4-10.6c1.3-1.4,2.9-2.5,4.4-3.7c0.8-0.7,1.8-1.2,2.7-1.9L61.7,13.4z" class="st0"/><path d="M0.5,33.6c0.1-1,0.2-2.1,0.4-3.1c0.9-6.5,3.5-12.3,7.7-17.4C13.6,7,20,3.1,27.7,1.4c3.5-0.8,7-0.9,10.5-0.6 c0.9,0.1,1.8,0.2,2.9,0.3c-0.3,0.3-0.4,0.4-0.6,0.5c-2.4,2.1-4.9,4.1-7,6.5c-3,3.3-4.6,7.2-4.9,11.6c-0.2,3.9,0.4,7.7,1.2,11.5 C30.5,34.2,31,37,31,40c0,5.1-1.8,9.5-5.7,12.8c-2.1,1.8-4.2,3.4-6.3,5c-1,0.8-2,1.7-3,2.5c-0.2,0.1-0.4,0.2-0.5,0.3l0.2,0.3h0.6 c11.3,0,22.6,0,34,0c0.4,0,0.8-0.1,1.1-0.4c2.9-2.3,5.7-4.8,7.9-7.9c1.8-2.5,3-5.2,3.4-8.2c0.3-1.9,0.1-3.8-0.2-5.7 c-0.8-5,0.5-9.4,4.2-13c0.3-0.3,0.7-0.7,1-1c0.1-0.1,0.2-0.1,0.2-0.1c0.3,0.9,0.6,1.8,0.8,2.8c2.5,12-0.3,22.6-8.6,31.6 c-5.4,5.8-12.1,9.3-20,10.4c-10.9,1.5-20.5-1.5-28.6-9c-5.5-5.1-9-11.5-10.3-18.9c-0.2-1.3-0.3-2.6-0.5-4c0-0.2-0.1-0.5-0.1-0.7 L0.5,33.6z" class="st1"/><path d="M54.7,6.9c-2.1,1.7-4.2,3.4-6.3,5.1c-2.3,2-4.4,4.2-5.7,7c-1.1,2.3-1.7,4.8-1.8,7.4c-0.1,3,0.3,6,0.7,9 c0.4,2.9,0.7,5.8,0.4,8.7c-0.4,3.8-2,7.1-4.6,9.9c-0.1,0.1-0.1,0.1-0.2,0.1c0.5-1.6,1.1-3.1,1.5-4.7c0.9-3.4,1.3-7,0.9-10.6 c-0.3-3.7-0.8-7.3-1.3-11c-0.4-3.2,0.3-6.2,1.8-9.1c2.2-4.4,5.4-8,9.1-11.2c0.8-0.7,1.7-1.4,2.5-2c0.2-0.2,0.4-0.3,0.7-0.1 C53.2,6,53.9,6.4,54.7,6.9z" class="st1"/><path d="M61.7,13.4l1.7,2.3c-0.9,0.6-1.9,1.2-2.7,1.9c-1.5,1.2-3.1,2.3-4.5,3.7c-2.9,2.9-3.7,6.6-3.4,10.6 c0.4,5.3,0.4,10.5-1.1,15.7c-0.8,2.6-2,5-4,7c-0.1,0.1-0.1,0.1-0.3,0.3c0.1-0.3,0.1-0.4,0.2-0.6c1.6-3.4,2.5-7,2.9-10.8 c0.6-4.9,0.3-9.7-0.4-14.6c-0.5-3.5,0.6-6.5,3-9c2-2,4.3-3.6,6.6-5.2C60.5,14.2,61.1,13.8,61.7,13.4z" class="st1"/></svg>