<svg xmlns="http://www.w3.org/2000/svg" version="1.1" id="Layer_1" x="0px" y="0px" width="70px" height="70px" viewBox="0 0 70 70" enable-background="new 0 0 70 70" xml:space="preserve"><g><g><g><path fill="#E32726" d="M66.805,37.112c1.572-0.545,2.762-0.958,2.779-1.513c0.017-0.556-1.163-1.009-1.705-1.23     c-0.523-0.213-1.625-0.521-2.501-0.506c-0.876,0.015-2.718,0.439-3.465,0.677c-0.04,0.013-2.352,0.65-4.109,1.176l-9.301-3.332     l-1.972,0.628l5.528,4.301l-8.436,2.639c-0.025,0.248,0.113,0.684,0.286,0.784c1.238,0.125,4.501,0.458,5.46,0.483     c1.185,0.03,2.63-0.379,2.63-0.379C62.378,38.354,65.2,37.669,66.805,37.112z"/></g></g><polygon points="47.178,38.15 42.847,37.159 41.926,37.374 43.914,39.17  " fill="#E32726"/></g><g><path fill="#233C7B" d="M35.598,38.164h-5.733c-1.361,0-1.492-1.095-1.526-1.522l-0.001-11.287c0-1.447-1.172-2.62-2.62-2.619   c-1.447,0-2.619,1.172-2.619,2.619l0.001,11.449l0.001,0.056c0.114,2.631,2.01,6.544,6.764,6.544h5.733   c1.446,0,2.619-1.173,2.619-2.621C38.217,39.337,37.045,38.164,35.598,38.164z M35.426,42.048c-0.701,0-1.269-0.568-1.269-1.269   c0-0.701,0.568-1.269,1.269-1.269c0.701,0,1.269,0.568,1.269,1.269C36.695,41.48,36.127,42.048,35.426,42.048z"/><path fill="#233C7B" d="M20.315,23.503c-1.024-1.023-2.681-1.023-3.703-0.001l-5.862,5.863l-5.861-5.862   c-1.023-1.023-2.682-1.023-3.705,0c-1.023,1.022-1.023,2.682,0,3.704l5.862,5.862l-5.861,5.861   c-1.023,1.023-1.024,2.681-0.001,3.705c1.023,1.022,2.682,1.023,3.705-0.001l5.862-5.861l5.862,5.862   c1.023,1.023,2.681,1.023,3.703,0c1.023-1.022,1.023-2.681,0-3.704l-5.861-5.862l5.862-5.862   C21.34,26.184,21.339,24.526,20.315,23.503z"/></g><path fill="#233C7B" d="M30.471,44.952c-1.049,0-1.679,0.206-2.432,0.607l0.654,1.1c0.593-0.298,1-0.401,1.778-0.401  c0.617,0,0.926,0.344,0.926,0.768v0.298c-0.272-0.126-0.654-0.241-1.247-0.241c-1.469,0-2.629,0.665-2.629,1.994  c0,1.456,1.21,2.143,2.419,2.143c0.605,0,1.148-0.229,1.457-0.527v0.401H33.1v-4.035C33.1,45.708,32.039,44.952,30.471,44.952z   M31.397,49.33c0,0-0.104,0.543-1.274,0.548c0,0-0.778,0.033-0.88-0.616c-0.018-0.184-0.11-0.822,0.714-0.924  c0.16-0.014,1.067-0.146,1.441,0.235V49.33z"/><path fill="#233C7B" d="M54.801,44.952c-1.049,0-1.679,0.206-2.432,0.607l0.654,1.1c0.593-0.298,1-0.401,1.778-0.401  c0.617,0,0.926,0.344,0.926,0.768v0.298c-0.272-0.126-0.654-0.241-1.247-0.241c-1.469,0-2.629,0.665-2.629,1.994  c0,1.456,1.21,2.143,2.419,2.143c0.605,0,1.148-0.229,1.457-0.527v0.401h1.704v-4.035C57.431,45.708,56.369,44.952,54.801,44.952z   M55.727,49.33c0,0-0.104,0.543-1.274,0.548c0,0-0.778,0.033-0.88-0.616c-0.018-0.184-0.11-0.822,0.714-0.924  c0.16-0.014,1.067-0.146,1.441,0.235V49.33z"/><rect x="34.574" y="44.944" width="1.704" fill="#233C7B" height="6.151"/><g><path fill="#233C7B" d="M37.751,44.945h1.745v1.239c0.356-0.849,0.93-1.4,1.963-1.354v1.824h-0.092c-1.159,0-1.871,0.7-1.871,2.169   v2.272h-1.745V44.945z"/></g><path fill="#233C7B" d="M42.086,44.94h1.769l0.988,3.732l1.16-3.755h1.504l1.171,3.767l1.011-3.744h1.734l-1.918,6.201h-1.573  l-1.183-3.778l-1.206,3.778h-1.562L42.086,44.94z"/><path fill="#233C7B" d="M62.576,44.94h1.815l-2.366,6.305c-0.471,1.252-0.976,1.723-2.021,1.723c-0.632,0-1.102-0.161-1.55-0.425  l0.586-1.263c0.23,0.138,0.517,0.241,0.746,0.241c0.299,0,0.459-0.092,0.609-0.402l-2.412-6.179h1.849l1.401,4.192L62.576,44.94z"/><path fill="#233C7B" d="M64.57,50.28l0.746-1.148c0.666,0.482,1.367,0.735,1.941,0.735c0.505,0,0.735-0.184,0.735-0.459v-0.023  c0-0.379-0.597-0.505-1.275-0.712c-0.861-0.253-1.838-0.655-1.838-1.849V46.8c0-1.252,1.011-1.952,2.251-1.952  c0.781,0,1.631,0.264,2.297,0.712l-0.666,1.206c-0.609-0.356-1.217-0.574-1.665-0.574c-0.425,0-0.643,0.184-0.643,0.425v0.023  c0,0.345,0.586,0.505,1.252,0.735c0.861,0.287,1.86,0.7,1.86,1.826v0.023c0,1.367-1.022,1.987-2.354,1.987  C66.35,51.21,65.385,50.923,64.57,50.28z"/></svg>