<svg xmlns="http://www.w3.org/2000/svg" id="Layer_1" width="70" height="70" x="0" y="0" enable-background="new 0 0 70 70" version="1.1" viewBox="0 0 70 70" xml:space="preserve"><rect width="70" height="70" fill="#AB1F28"/><path fill="#FFF" fill-rule="evenodd" d="M10.863,29.229c-0.097-0.289-0.185-0.508-0.244-0.734 c-0.184-0.693-0.56-1.121-1.344-1.094c-0.853,0.029-1.451,0.422-1.735,1.156c-0.292,0.754-0.012,1.295,0.601,1.715 c0.526,0.359,1.073,0.689,1.603,1.044c2.646,1.769,2.974,4.347,0.826,6.673c-1.25,1.355-2.859,1.943-4.667,1.848 c-2.252-0.12-3.36-1.492-3.36-4.1c0.919-0.192,1.862-0.39,2.866-0.6c0.042,0.42,0.054,0.736,0.107,1.044 c0.176,0.999,0.98,1.493,1.949,1.194c0.831-0.255,1.201-0.906,1.41-1.692c0.185-0.698-0.148-1.204-0.642-1.601 c-0.559-0.447-1.164-0.838-1.761-1.237c-2.479-1.659-2.66-4.522-0.368-6.465c1.591-1.349,3.479-1.577,5.406-1.042 c0.633,0.176,1.287,0.782,1.636,1.368c0.763,1.274,0.452,1.849-0.953,2.202C11.762,29.017,11.327,29.118,10.863,29.229z" clip-rule="evenodd"/><path fill="#FFF" fill-rule="evenodd" d="M17.128,28.842c-0.054,0.372-0.095,0.651-0.136,0.931 c0.733-0.342,1.41-0.765,2.147-0.979c1.737-0.507,2.986,0.433,2.681,2.202c-0.386,2.235-1.03,4.435-1.695,6.609 c-0.193,0.634-0.757,1.226-1.289,1.674c-1.003,0.845-2.239,0.802-3.306,0.034c-0.19-0.137-0.38-0.275-0.685-0.497 c-0.307,1.169-0.595,2.257-0.877,3.347c-0.173,0.668-0.298,1.352-0.528,2c-0.079,0.219-0.398,0.471-0.629,0.494 c-0.654,0.067-1.318,0.023-2.07,0.023c0.499-1.965,0.969-3.838,1.448-5.709c0.791-3.085,1.61-6.164,2.367-9.258 c0.172-0.703,0.469-0.982,1.188-0.883C16.18,28.891,16.63,28.842,17.128,28.842z M19.347,31.597 c-0.278-0.326-0.493-0.805-0.836-0.932c-0.66-0.24-1.68,0.43-1.863,1.121c-0.441,1.668-0.881,3.336-1.265,5.018 c-0.058,0.252,0.114,0.675,0.321,0.848c0.725,0.605,1.691,0.31,2.074-0.771C18.373,35.212,18.797,33.483,19.347,31.597z" clip-rule="evenodd"/><path fill="#FFF" fill-rule="evenodd" d="M59.727,36.29c-0.593,2.955-4.448,4.637-6.871,3.081 c-1.102-0.708-1.273-1.814-1.034-2.964c0.31-1.48,0.67-2.96,1.144-4.395c0.802-2.424,3.309-3.782,5.779-3.239 c1.707,0.376,2.495,1.618,2.124,3.401c-0.152,0.728-0.4,1.436-0.54,2.165c-0.091,0.478-0.333,0.585-0.77,0.579 c-1.384-0.018-2.769,0.015-4.151-0.017c-0.489-0.011-0.75,0.132-0.8,0.632c-0.018,0.183-0.093,0.359-0.133,0.541 c-0.132,0.573-0.326,1.168,0.347,1.555c0.549,0.315,1.557,0.205,1.867-0.411C57.429,35.741,58.653,36.473,59.727,36.29z M58.307,32.778c-0.081-0.615-0.001-1.275-0.282-1.691c-0.178-0.263-0.93-0.299-1.363-0.191c-0.922,0.224-1.182,1.018-1.298,1.883 C56.292,32.778,57.183,32.778,58.307,32.778z" clip-rule="evenodd"/><path fill="#FFF" fill-rule="evenodd" d="M44.879,36.321c-0.701,2.846-4.003,4.43-6.554,3.229 c-1.16-0.547-1.688-1.672-1.364-3.168c0.314-1.453,0.664-2.906,1.119-4.32c0.772-2.4,3.244-3.805,5.672-3.322 c1.753,0.35,2.58,1.547,2.286,3.307c-0.009,0.053-0.02,0.105-0.035,0.156c-0.242,0.866-0.235,2.025-0.804,2.512 c-0.521,0.444-1.663,0.174-2.532,0.195c-0.744,0.019-1.493-0.034-2.232,0.026c-0.229,0.019-0.482,0.272-0.634,0.482 c-0.131,0.181-0.14,0.451-0.191,0.685c-0.125,0.547-0.322,1.153,0.312,1.496c0.646,0.351,1.488,0.305,1.807-0.291 C42.491,35.869,43.695,36.36,44.879,36.321z M43.471,32.785c-0.088-0.636,0.008-1.321-0.292-1.681 c-0.231-0.281-0.992-0.305-1.447-0.182c-0.875,0.234-1.117,1.017-1.231,1.862C41.432,32.785,42.306,32.785,43.471,32.785z" clip-rule="evenodd"/><path fill="#FFF" fill-rule="evenodd" d="M43.185,40.801c0.009,0.151,0.033,0.235,0.014,0.306 c-0.163,0.609-0.355,1.225,0.473,1.523c0.701,0.254,1.672-0.061,2.037-0.697c0.153-0.271,0.237-0.588,0.317-0.895 c1.294-4.936,2.583-9.873,3.874-14.809c0.047-0.18,0.117-0.352,0.189-0.564c0.816,0,1.633,0,2.549,0 c-0.331,1.297-0.646,2.549-0.973,3.799c-1.011,3.855-2.017,7.713-3.044,11.566c-0.405,1.519-1.153,2.809-2.672,3.48 c-1.239,0.549-2.528,0.637-3.821,0.262c-1.43-0.414-2.237-2.519-1.469-3.756c0.067-0.108,0.249-0.203,0.382-0.207 C41.754,40.79,42.467,40.801,43.185,40.801z" clip-rule="evenodd"/><path fill="#FFF" fill-rule="evenodd" d="M35.629,35.686c-0.631,3.208-3.459,4.917-6.46,4.009 c-1.048-0.316-1.721-1.064-1.665-2.164c0.12-2.355,0.647-4.651,1.78-6.721c1.059-1.935,3.852-2.733,5.899-1.885 c1.36,0.562,1.787,1.83,1.215,3.703c-0.773,0-1.563,0-2.349,0c-0.032-0.052-0.084-0.098-0.08-0.135 c0.076-0.604,0.285-1.254-0.557-1.516c-0.765-0.238-1.82,0.099-2.045,0.82c-0.498,1.595-0.892,3.223-1.277,4.85 c-0.129,0.544,0.264,0.827,0.764,0.932c0.952,0.197,1.799-0.303,2.07-1.287c0.127-0.464,0.326-0.652,0.818-0.617 C34.349,35.719,34.959,35.686,35.629,35.686z" clip-rule="evenodd"/><path fill="#FFF" fill-rule="evenodd" d="M61.628,31.373c0.146-0.604,0.221-1.138,0.414-1.623 c0.078-0.195,0.424-0.421,0.626-0.403c0.654,0.055,0.869-0.244,0.978-0.832c0.145-0.781,0.411-1.539,0.565-2.319 c0.093-0.466,0.315-0.604,0.764-0.581c0.606,0.031,1.215,0.008,1.959,0.008c-0.302,1.249-0.583,2.419-0.889,3.68 c0.496,0,0.956,0,1.55,0c-0.168,0.691-0.245,1.299-0.483,1.834c-0.084,0.188-0.571,0.288-0.864,0.269 c-0.585-0.038-0.839,0.161-0.967,0.741c-0.29,1.322-0.661,2.625-0.992,3.938c-0.355,1.41-0.332,1.439,1.197,1.576 c-0.158,0.641-0.301,1.269-0.483,1.885c-0.035,0.117-0.234,0.27-0.35,0.264c-0.889-0.046-1.806-0.01-2.656-0.229 c-0.767-0.197-0.954-0.871-0.711-1.859c0.459-1.854,0.941-3.703,1.413-5.556c0.051-0.202,0.083-0.409,0.138-0.685 C62.437,31.444,62.082,31.413,61.628,31.373z" clip-rule="evenodd"/><path fill="#FFF" fill-rule="evenodd" d="M27.176,28.842c-0.267,1.05-0.506,1.992-0.747,2.933 c-0.627,2.441-1.268,4.879-1.874,7.324c-0.108,0.438-0.273,0.639-0.742,0.613c-0.606-0.032-1.214-0.008-1.862-0.008 c0-0.239-0.036-0.421,0.006-0.584c0.821-3.213,1.663-6.42,2.469-9.637c0.119-0.473,0.298-0.68,0.798-0.65 C25.827,28.87,26.434,28.842,27.176,28.842z" clip-rule="evenodd"/><path fill="#FFF" fill-rule="evenodd" d="M24.86,27.933c0.204-0.828,0.38-1.542,0.561-2.273 c0.865,0,1.682,0,2.577,0c-0.164,0.668-0.293,1.287-0.479,1.891c-0.047,0.154-0.266,0.357-0.415,0.365 C26.396,27.953,25.683,27.933,24.86,27.933z" clip-rule="evenodd"/></svg>