<svg xmlns="http://www.w3.org/2000/svg" id="Layer_1" width="145" height="145" viewBox="0 0 145 145"><defs><style>.cls-1{fill:#003a70;}.cls-2{fill:#7ba4dd;}</style></defs><path d="M73.68,85.41a7.79,7.79,0,0,1-3.63-1A6.77,6.77,0,0,1,68,82.64,1.31,1.31,0,0,1,70,81a3.87,3.87,0,0,0,1.3,1.09,5,5,0,0,0,2.36.68,5.22,5.22,0,0,0,2.09-.35,2.08,2.08,0,0,0,.91-.72,1.45,1.45,0,0,0,.25-.88,1.15,1.15,0,0,0-.14-.62,2.07,2.07,0,0,0-.74-.57,9.54,9.54,0,0,0-2.43-.75,14.38,14.38,0,0,1-2.51-.7,4.21,4.21,0,0,1-2-1.52,3.71,3.71,0,0,1-.61-2.06,3.45,3.45,0,0,1,2-3.14,6.48,6.48,0,0,1,2.9-.61,8.05,8.05,0,0,1,2.38.33,5.55,5.55,0,0,1,2.27,1.37,1.3,1.3,0,1,1-1.81,1.88,3.18,3.18,0,0,0-1.23-.76,5.56,5.56,0,0,0-1.61-.21,4,4,0,0,0-1.75.34.85.85,0,0,0-.57.8,1.11,1.11,0,0,0,.18.63,1.66,1.66,0,0,0,.79.53,11.59,11.59,0,0,0,2,.56,11.73,11.73,0,0,1,3.13,1A4.39,4.39,0,0,1,79,78.85a3.73,3.73,0,0,1,.55,2,4.22,4.22,0,0,1-.69,2.33,4.55,4.55,0,0,1-2,1.63A7.49,7.49,0,0,1,73.68,85.41Z" class="cls-1"/><path d="M138.13,85.41a7.75,7.75,0,0,1-3.62-1,6.66,6.66,0,0,1-2.09-1.77A1.3,1.3,0,1,1,134.47,81a4,4,0,0,0,1.3,1.09,5,5,0,0,0,2.36.68,5.18,5.18,0,0,0,2.09-.35,2.18,2.18,0,0,0,.92-.72,1.52,1.52,0,0,0,.25-.88,1.13,1.13,0,0,0-.15-.62,2.07,2.07,0,0,0-.74-.57,9.42,9.42,0,0,0-2.42-.75,14.79,14.79,0,0,1-2.52-.7,4.13,4.13,0,0,1-2-1.52,3.71,3.71,0,0,1-.61-2.06,3.43,3.43,0,0,1,2-3.14,6.44,6.44,0,0,1,2.89-.61,8,8,0,0,1,2.38.33,5.58,5.58,0,0,1,2.28,1.37,1.3,1.3,0,0,1-1.81,1.88,3.21,3.21,0,0,0-1.24-.76,5.56,5.56,0,0,0-1.61-.21,3.91,3.91,0,0,0-1.74.34c-.52.26-.58.58-.58.8a1.11,1.11,0,0,0,.18.63,1.7,1.7,0,0,0,.8.53,11.43,11.43,0,0,0,2,.56,11.61,11.61,0,0,1,3.13,1,4.42,4.42,0,0,1,1.74,1.49,3.72,3.72,0,0,1,.54,2,4.14,4.14,0,0,1-.69,2.33,4.58,4.58,0,0,1-2,1.63A7.54,7.54,0,0,1,138.13,85.41Z" class="cls-1"/><path d="M64.92,85.5a1.3,1.3,0,0,1-1.3-1.31v-12a1.31,1.31,0,0,1,2.61,0v12A1.3,1.3,0,0,1,64.92,85.5Z" class="cls-1"/><path d="M28.67,85.41a1.31,1.31,0,0,1-1.31-1.3V66A1.31,1.31,0,1,1,30,66V84.11A1.3,1.3,0,0,1,28.67,85.41Z" class="cls-1"/><path d="M82.34,85.5A1.3,1.3,0,0,1,81,84.19V66.09a1.31,1.31,0,1,1,2.61,0v18.1A1.3,1.3,0,0,1,82.34,85.5Z" class="cls-1"/><path d="M131.17,66.09a1.31,1.31,0,1,0-2.61,0v6.63a7.22,7.22,0,1,0,2.61,5.55V66.09ZM124,82.89a4.62,4.62,0,1,1,4.61-4.62A4.62,4.62,0,0,1,124,82.89Z" class="cls-1"/><path d="M92.26,71.05a7.23,7.23,0,1,0,4.61,12.78v.36a1.31,1.31,0,1,0,2.61,0V78.27A7.23,7.23,0,0,0,92.26,71.05Zm0,11.84a4.62,4.62,0,1,1,4.61-4.62A4.62,4.62,0,0,1,92.26,82.89Z" class="cls-1"/><path d="M55,85.5a7.23,7.23,0,0,1-7.23-7.23c0-.25,0-.5,0-.75v0A7.23,7.23,0,0,1,62.07,77c0,.17.06.35.08.53a1.33,1.33,0,0,1-.34,1,1.29,1.29,0,0,1-1,.43h0L50.39,79A4.62,4.62,0,0,0,55,82.89,4.56,4.56,0,0,0,58.66,81a1.32,1.32,0,0,1,1.83-.26,1.3,1.3,0,0,1,.27,1.82A7.26,7.26,0,0,1,55,85.5Zm-4.19-9.16,8.39,0a4.62,4.62,0,0,0-8.39,0Z" class="cls-1"/><path d="M39.07,85.41a7.23,7.23,0,0,1-7.22-7.22v-6a1.31,1.31,0,0,1,2.61,0v6a4.61,4.61,0,0,0,9.22,0v-6a1.31,1.31,0,0,1,2.62,0v6A7.24,7.24,0,0,1,39.07,85.41Z" class="cls-1"/><path d="M114.2,85.41a1.31,1.31,0,0,1-1.31-1.3v-6a4.62,4.62,0,0,0-9.23,0v6a1.31,1.31,0,0,1-2.61,0v-6a7.23,7.23,0,0,1,14.45,0v6A1.3,1.3,0,0,1,114.2,85.41Z" class="cls-1"/><circle cx="65.01" cy="67.34" r="1.53" class="cls-1"/><path d="M3.91,75.14s0,.09,0,.14a2.6,2.6,0,0,0,1.79,2.47h8V75.14Z" class="cls-2"/><path d="M18.39,71H13.78V66a1.31,1.31,0,1,0-2.61,0v5H1a.76.76,0,0,0,0,.15,2.59,2.59,0,0,0,1.78,2.46H18.39a4.62,4.62,0,1,1-4.2,6.52l-.35-.77H6.72v.14a2.6,2.6,0,0,0,1.79,2.47h3.7a7.23,7.23,0,1,0,6.18-11Z" class="cls-1"/></svg>