<svg xmlns="http://www.w3.org/2000/svg" version="1.1" width="70px" height="70px" viewBox="0 0 500 500"><title/><g id="120x60" fill="none" fill-rule="evenodd" stroke="none" stroke-width="1"><g id="Group" fill="#000099" transform="translate(-1.000000, 160.000000)" fill-rule="nonzero"><g id="Components/Logos/SAS/Blue-L"><path id="Combined-Shape" d="M278.227848,5.61724138 C275.645687,5.61724138 274.354607,6.86551725 274.354607,6.86551725 L135.563453,174.134483 C134.917912,175.382758 134.917912,176.006897 136.208993,176.006897 L156.866281,176.006897 C158.802902,176.006897 159.448442,175.382758 159.448442,174.758621 L189.143294,137.934483 C189.143294,137.934483 189.788834,137.310345 190.434374,137.310345 L240.140973,137.310345 C240.140973,137.310345 240.786514,137.310345 240.786514,137.934483 C240.786514,138.558621 233.685571,174.134483 233.685571,174.134483 C233.685571,174.758621 233.685571,176.006897 235.622192,176.006897 L295.657435,176.006897 C296.302975,176.006897 296.948516,176.006897 296.948516,174.758621 L330.516609,7.48965517 C329.871068,7.48965517 330.516609,5.61724138 328.579988,5.61724138 L278.227848,5.61724138 Z M136.208993,3.74482758 C164.612764,3.74482758 178.814649,11.2344828 183.978971,13.7310345 C187.059959,15.5183385 186.611815,17.8743303 186.564709,18.0848186 L186.561132,18.1 C186.561132,18.1 185.616503,21.9359071 184.749302,25.6550302 L184.59271,26.3290676 C183.919813,29.2366939 183.333431,31.9231204 183.333431,32.4551724 C182.687891,33.7034483 181.39681,33.7034483 180.10573,32.4551724 C171.713707,27.462069 162.030603,21.8448276 147.183177,21.8448276 C129.753591,21.8448276 120.716027,34.3275862 125.234809,52.4275862 C126.203119,55.548276 129.43082,67.8750001 132.658522,80.5137931 L133.045701,82.031377 C133.110183,82.2843676 133.174629,82.5373407 133.23902,82.7902252 L133.624573,84.3058992 C134.522003,87.837334 135.401719,91.3235064 136.214124,94.5691759 L136.558031,95.9448832 C138.198935,102.517464 139.520614,107.938414 140.082234,110.472414 C147.828717,141.67931 125.880349,179.127586 66.4906457,179.127586 C33.5680931,179.127586 12.910805,167.268966 5.80986226,161.651724 C1.93662075,158.531034 0.645540253,156.658621 1.2910805,154.786207 C1.2910805,154.786207 1.39481745,154.442329 1.57310131,153.86095 L1.75289632,153.276456 C2.92093626,149.490634 5.93701413,139.929833 6.45540253,140.431034 C6.45540253,137.934483 7.74648301,137.310345 9.03756349,138.558621 C14.8474258,144.175862 32.9225528,161.027586 58.0986226,161.027586 C85.8568535,161.027586 83.9202325,139.182758 83.9202325,136.062069 C83.9202325,127.324138 72.3005082,84.2586208 69.0728067,73.0241382 C60.0352434,36.8241379 82.629152,3.74482758 136.208993,3.74482758 Z M450.587095,3.74482758 C478.990867,3.74482758 493.192752,11.2344828 498.357074,13.7310345 C501.438062,15.5183385 500.989918,17.8743303 500.942812,18.0848186 L500.939235,18.1 C500.939235,18.1 499.994605,21.9359071 499.127404,25.6550302 L498.970812,26.3290676 C498.297915,29.2366939 497.711534,31.9231204 497.711534,32.4551724 C497.065993,33.7034483 495.774913,33.7034483 494.483832,32.4551724 C486.091809,27.462069 476.408706,21.8448276 461.56128,21.8448276 C444.131693,21.8448276 435.09413,34.3275862 439.612911,52.4275862 C440.542489,55.4234484 443.554322,66.9035918 446.649445,78.9992051 L447.036624,80.5137931 C447.230286,81.2721207 447.423948,82.0315718 447.617122,82.7902252 L448.002675,84.3058992 C448.900105,87.837334 449.779822,91.3235064 450.592226,94.5691759 L450.936134,95.9448832 C452.577038,102.517464 453.898717,107.938414 454.460337,110.472414 C462.20682,141.67931 440.258451,179.127586 380.868748,179.127586 C347.946196,179.127586 328.579988,167.893103 321.479045,162.275862 C317.605803,159.155172 316.314723,157.282758 316.960263,155.410345 C316.960263,155.410345 317.61592,152.113966 318.336219,148.606875 L318.540021,147.617492 L318.540021,147.617492 L318.67634,146.959264 C319.44779,143.24306 320.187965,139.833268 320.187965,140.431034 C320.833505,138.558621 322.770126,137.934483 324.061206,139.182758 C330.516609,144.8 347.300655,161.027586 372.476725,161.027586 C400.234956,161.027586 398.298335,139.182758 398.298335,136.062069 C398.298335,127.324138 386.678611,84.2586208 383.450909,73.0241382 C374.413346,36.8241379 397.007254,3.74482758 450.587095,3.74482758 Z M256.27948,54.9241379 C256.92502,54.9241379 256.27948,55.5482758 256.27948,55.5482758 L243.368675,120.458621 L203.990719,120.458621 L203.990719,120.458621 L203.990719,119.834483 L255.63394,55.5482758 L256.27948,54.9241379 Z"/></g></g></g></svg>