<svg xmlns="http://www.w3.org/2000/svg" id="svg2" width="70" height="70" viewBox="0 0 70 70"><defs><style>.cls-1{fill:#c33}</style></defs><title/><g id="layer1"><path id="rect2988" d="M41.59,7c-1.4,0,1,2.5-.9,2.6s-6.4,1.2-8.1.5-.7,1.9-.9,3.2-7.6-.9-6.2,1.6a10.37,10.37,0,0,1,1.7,4.9c.1,1.4-1.4-1.5-1.8,1.1-.5,3,5.5,15.1,8,16.9a13.75,13.75,0,0,1,9.4-3.8,13.4,13.4,0,1,1,0,26.8l-.1.9c4,.9,15.7-3.9,17-13.2.1-.6,1.5.1,1.5-1.1s-1.7-.8-1.9-3.7,1.9-2,1.4-3.4-3.1-1.8-3.5-2.7a21.46,21.46,0,0,1-.5-3.6c-.1-.2,2.9-.6,3.8-.9s4-2,2.3-3l-3.6-.2c-.3.1-2.5-1.5-1.1-4.1s3.8-3.5,5.4-2.4c0,0,.3,2.2.8,1.7s.2-1.2.4-1.9.4,0,.9-.3c.9-.7.7-4.2.1-4.6-.4-.2-5.1-.8-5.4-.9s-.1-1.5-1.4-2.7-2.2-.8-4.2-2.4-3.5-3.9-4-3.6.9,1.3-.5,1.5C49,10.4,43,6.9,41.59,7Zm4.7,6.1h.4c.9.1,1.7.6,1.7,1,0,.7-2-.2-2.2.8s-.6,2.1-1,1.9-1.3-2.2-.1-3.3a2.84,2.84,0,0,1,1.2-.4Zm11.6,4.1h.8c.4,0,1.4.6.2.5s-1.3-.1-1.6.8-.5-.7-.1-1.1a1.17,1.17,0,0,1,.7-.2Zm.4.9a.4.4,0,1,1-.4.4A.37.37,0,0,1,58.29,18.1Z" class="cls-1"/><path id="path3803" d="M53.89,47.4a11.1,11.1,0,1,1-11.1-10.8A10.95,10.95,0,0,1,53.89,47.4Z" class="cls-1"/><path id="rect3807" d="M13.69,9.2c.8-11.3,10.5-12.8,8.1-1.3s1.2,16.9,4.8,22.7c4.9,8.1,7.6,11.1,8.5,10.9L33.19,43C18.79,35.1,12.89,20.5,13.69,9.2Z" class="cls-1"/><path id="rect3807-1" d="M6.69,25.3c-2.9-9,4.1-13.1,5.9-3.5s6.3,12.7,10.8,16.1c6.3,4.7,9.4,6.2,10,5.8l-1,1.7c-13.7-1.7-22.9-11.2-25.7-20.1Z" class="cls-1"/><path id="rect3807-1-7" d="M6.69,42.8c-5.9-5.5-2.4-11.4,2.9-5s14.9,8.3,18.3,9,11.8,3,11.8,3-27.8-.5-33-7Z" class="cls-1"/><path id="rect3807-1-7-4" d="M11.29,55.6C4,52.9,4.69,46.3,12,50s16.5,1.8,19.9,1.2,11.8-1.8,11.8-1.8-25.3,10-32.4,6.2Z" class="cls-1"/><path id="rect3807-1-7-4-0" d="M19.39,63.6c-6.1.2-7.6-4.8-1.2-4.2s12.5-3.6,14.7-5,8-4.8,8-4.8-15.2,14.7-21.5,14Z" class="cls-1"/><path id="rect3807-1-7-4-0-9" d="M28,67.9c-4.8,2-7.5-1.6-2.2-3s8.9-6.5,10.3-8.3,5-6.1,5-6.1S33.19,66.6,28,67.9Z" class="cls-1"/><path id="rect3807-1-7-4-0-9-4" d="M35.09,68.8c-3.3,2.6-6.2.5-2.4-1.8s5.3-7.1,6-8.8,2.4-5.9,2.4-5.9-2.2,14.3-6,16.5Z" class="cls-1"/><path id="rect3807-1-7-4-0-9-4-8" d="M41.79,67.3c-1.7,2.4-4.1,1.5-2-.8s2.3-5.9,2.4-7.2.5-4.5.5-4.5,1.3,10.3-.9,12.5Z" class="cls-1"/></g></svg>