<svg xmlns="http://www.w3.org/2000/svg" version="1.1" id="Layer_1" x="70px" y="70px" width="70px" height="70px" viewBox="0 0 70 70" xml:space="preserve" style="enable-background:new 0 0 70 70;"><style type="text/css">
	.st0{fill:#3B1161;}
	.st1{fill:#FFFFFF;}
	.st2{fill:#F48120;}
</style><rect x="-0.01" y="-0.01" width="40.08" height="40.08" class="st0"/><g><path d="M31.42,31.59c-0.09,0-0.15,0-0.2,0c-1.38,0-2.76,0-4.14,0c-0.12,0-0.2-0.03-0.28-0.12   c-0.43-0.44-0.86-0.88-1.28-1.32c-0.05-0.06-0.1-0.1-0.19-0.1c-0.79,0-1.58,0-2.37,0c-0.02,0-0.03,0.01-0.06,0.01   c0.14,0.51,0.28,1.02,0.42,1.54c-0.66,0-1.3,0-1.94,0c-0.21,0-0.43-0.01-0.64,0c-0.11,0-0.16-0.03-0.19-0.14   c-0.49-1.66-0.99-3.32-1.49-4.97c-0.6-2.01-1.21-4.01-1.81-6.02c-0.02-0.05-0.03-0.1-0.04-0.14c0.27,0,0.53,0.01,0.8,0   c1.06-0.02,2.11-0.06,3.17-0.08c1.09-0.01,2.17,0.06,3.21,0.42c1.43,0.5,2.44,1.48,3.21,2.75c0.53,0.87,0.85,1.8,0.83,2.83   c-0.01,0.7-0.18,1.36-0.46,2c-0.05,0.12-0.04,0.18,0.06,0.27c1.09,0.97,2.17,1.95,3.26,2.92C31.31,31.48,31.35,31.52,31.42,31.59z    M22.67,26.54c0.25,0.04,0.51,0.03,0.76,0c0.31-0.03,0.61-0.11,0.89-0.27c0.56-0.34,0.7-0.83,0.41-1.4   c-0.24-0.48-0.63-0.8-1.14-0.97c-0.82-0.27-1.66-0.18-2.49-0.06c-0.09,0.01-0.07,0.06-0.05,0.13c0.25,0.82,0.5,1.65,0.74,2.47   c0.02,0.08,0.06,0.11,0.15,0.11C22.17,26.54,22.42,26.54,22.67,26.54z" class="st1"/><path d="M13.63,8.45c0.36,0,0.71,0,1.06,0c1.13,0,2.25-0.1,3.38-0.06c0.98,0.03,1.95,0.15,2.87,0.54   c1.32,0.56,2.22,1.56,2.92,2.78c0.46,0.81,0.72,1.69,0.7,2.63c-0.02,0.7-0.18,1.37-0.45,2.01c-0.05,0.13-0.03,0.19,0.07,0.28   c1.1,0.94,2.19,1.89,3.28,2.84c0.07,0.06,0.14,0.1,0.19,0.18c-0.06,0.04-0.12,0.02-0.17,0.02c-1.39,0-2.77,0-4.16,0   c-0.11,0-0.2-0.03-0.28-0.11c-0.45-0.45-0.91-0.9-1.35-1.35c-0.08-0.08-0.15-0.12-0.26-0.11c-0.66,0.01-1.32,0.01-1.98,0   c-0.13,0-0.16,0.02-0.12,0.15c0.13,0.42,0.24,0.84,0.37,1.25c0.04,0.13,0.04,0.18-0.12,0.18c-0.8-0.01-1.61-0.01-2.41,0   c-0.11,0-0.16-0.03-0.2-0.14c-1.1-3.67-2.2-7.33-3.3-10.99C13.64,8.51,13.63,8.47,13.63,8.45z M17.41,11.92   c0.27,0.9,0.54,1.78,0.8,2.66c0.02,0.06,0.05,0.07,0.1,0.07c0.47,0.01,0.94,0.06,1.41,0c0.86-0.1,1.27-0.55,1.22-1.36   c-0.05-0.76-0.37-1.18-1.04-1.32c-0.16-0.03-0.31-0.05-0.47-0.06C18.77,11.89,18.11,11.99,17.41,11.92z" class="st1"/><path d="M35.48,31.59c-1.55-0.02-2.9-0.56-4.1-1.52c-1.4-1.13-2.33-2.57-2.69-4.35c-0.24-1.19-0.16-2.34,0.5-3.4   c0.72-1.14,1.77-1.78,3.09-1.97c1.41-0.2,2.71,0.16,3.91,0.89c1.79,1.09,3,2.64,3.51,4.69c0.25,1,0.25,2-0.11,2.98   c-0.55,1.48-1.65,2.31-3.18,2.6C36.11,31.57,35.79,31.59,35.48,31.59z M34.86,28.3c0.88,0.01,1.49-0.43,1.66-1.21   c0.1-0.44,0.03-0.88-0.06-1.31c-0.33-1.56-2.18-2.42-3.25-2.1c-0.64,0.19-1.13,0.5-1.27,1.2c-0.07,0.35-0.03,0.71,0.03,1.05   c0.18,1.04,0.73,1.8,1.75,2.17C34.09,28.22,34.47,28.29,34.86,28.3z" class="st2"/><path d="M1.82,19.68c0.32-1.05,0.62-2.09,0.93-3.12c0.8-2.65,1.6-5.3,2.39-7.95c0.04-0.13,0.09-0.17,0.23-0.17   c1.08,0.01,2.16,0.01,3.24,0c0.12,0,0.17,0.03,0.21,0.15c1.09,3.64,2.19,7.28,3.29,10.92c0.04,0.15,0.01,0.16-0.12,0.16   c-0.94-0.01-1.89-0.01-2.83,0c-0.15,0-0.2-0.05-0.24-0.18c-0.66-2.13-1.32-4.26-1.98-6.39c-0.01-0.04-0.03-0.08-0.05-0.16   c-0.11,0.35-0.2,0.67-0.3,0.98c-0.56,1.85-1.12,3.71-1.68,5.56c-0.04,0.15-0.11,0.18-0.26,0.18C3.7,19.68,2.77,19.68,1.82,19.68z" class="st1"/><path d="M6.67,28.03c0.2-0.65,0.41-1.29,0.61-1.94c0.57-1.86,1.14-3.71,1.71-5.57c0.04-0.13,0.09-0.17,0.23-0.17   c0.99,0.01,1.98,0.01,2.97,0c0.13,0,0.18,0.04,0.22,0.16c1.09,3.65,2.19,7.3,3.29,10.94c0.02,0.05,0.04,0.1,0.02,0.16   c-0.8,0-1.6,0-2.41,0c-0.19,0-0.38-0.01-0.57,0c-0.16,0.01-0.21-0.05-0.25-0.19c-0.44-1.45-0.88-2.91-1.32-4.36   c-0.17-0.55-0.33-1.09-0.5-1.65c-0.08,0.04-0.1,0.12-0.13,0.18c-0.37,0.72-0.57,1.49-0.78,2.27c-0.16,0.58-0.33,1.16-0.59,1.72   c-0.54,1.17-1.48,1.79-2.73,1.96c-0.51,0.07-1.02,0.1-1.53,0.03C5.85,30.57,6.3,29.32,6.67,28.03z" class="st1"/><path d="M6.67,28.03c-0.36,1.3-0.82,2.55-1.77,3.55c-1.71-0.06-3.12-0.66-3.94-2.26c-0.55-1.05-0.82-2.18-0.83-3.37   C0.11,24.2,0.81,22.76,2.1,21.6c0.61-0.55,1.29-1,2.09-1.21c1.03-0.27,2.01-0.12,2.97,0.3C7.37,20.78,7.58,20.9,7.79,21   c0.08,0.04,0.1,0.08,0.08,0.17c-0.33,1.09-0.66,2.19-0.99,3.28c-0.08-0.01-0.11-0.07-0.16-0.1c-0.29-0.23-0.6-0.42-0.95-0.54   C5.33,23.67,4.9,23.67,4.5,23.9c-0.79,0.46-1.28,1.15-1.4,2.06c-0.13,0.94,0.29,1.68,0.97,2.3c0.37,0.33,0.81,0.49,1.31,0.42   c0.46-0.06,0.89-0.23,1.22-0.58C6.61,28.07,6.64,28.05,6.67,28.03z" class="st2"/><path d="M13.15,20.35c0.24,0,0.45,0,0.67,0c0.81,0,1.63,0,2.44,0c0.1,0,0.15,0.03,0.18,0.13   c1.1,3.67,2.2,7.34,3.31,11.01c0.01,0.04,0.03,0.08,0.01,0.13c-0.57,0-1.15,0-1.73,0c-0.45,0-0.9,0-1.35,0   c-0.12,0-0.17-0.03-0.21-0.15c-0.61-2.04-1.22-4.08-1.84-6.12c-0.49-1.63-0.98-3.27-1.47-4.9C13.17,20.42,13.16,20.4,13.15,20.35z" class="st1"/><path d="M11.2,8.45c0.5,0,0.99,0,1.49,0c0.11,0,0.15,0.04,0.18,0.14c1.09,3.64,2.19,7.28,3.29,10.92   c0.04,0.12,0.03,0.16-0.11,0.16c-0.99-0.01-1.97-0.01-2.96,0c-0.14,0-0.16-0.06-0.2-0.17c-1.05-3.51-2.11-7.02-3.17-10.54   C9.67,8.8,9.6,8.64,9.59,8.46c0.17,0,0.34-0.01,0.51-0.01C10.47,8.45,10.83,8.45,11.2,8.45z" class="st1"/></g></svg>