<svg xmlns="http://www.w3.org/2000/svg" width="70" height="70" version="1.1" viewBox="0 0 70 70"><g id="surface1"><path d="M 13.53125 7.300781 L 19.796875 13.566406 L 16.070312 26.6875 L 11.316406 22.027344 L 8.492188 10.738281 Z M 13.53125 7.300781" style="stroke:none;fill-rule:evenodd;fill:#0083bd;fill-opacity:1"/><path d="M 24.035156 23.457031 L 31.101562 23.457031 L 25.449219 28.640625 L 16.070312 26.6875 Z M 24.035156 23.457031" style="stroke:none;fill-rule:nonzero;fill:#0083bd;fill-opacity:1"/><path d="M 25.449219 28.640625 L 16.96875 30.960938 L 7.078125 36.175781 L 16.070312 26.6875 Z M 25.449219 28.640625" style="stroke:none;fill-rule:nonzero;fill:#002953;fill-opacity:1"/><path d="M 11.316406 31.703125 L 2.835938 33.351562 L 7.078125 36.175781 Z M 11.316406 31.703125" style="stroke:none;fill-rule:evenodd;fill:#5fc4e1;fill-opacity:1"/><path d="M 24.035156 23.457031 L 31.101562 23.457031 L 27.519531 22.042969 Z M 24.035156 23.457031" style="stroke:none;fill-rule:evenodd;fill:#002953;fill-opacity:1"/><path d="M 29.863281 24.59375 L 31.101562 25.828125 L 31.101562 23.457031 Z M 29.863281 24.59375" style="stroke:none;fill-rule:evenodd;fill:#002953;fill-opacity:1"/><path d="M 24.035156 23.457031 L 19.796875 13.566406 L 16.070312 26.6875 Z M 24.035156 23.457031" style="stroke:none;fill-rule:evenodd;fill:#5fc4e1;fill-opacity:1"/><path d="M 8.492188 10.738281 L 9.902344 3.671875 L 4.25 2.257812 Z M 8.492188 10.738281" style="stroke:none;fill-rule:evenodd;fill:#002953;fill-opacity:1"/><path d="M 13.53125 7.300781 L 9.902344 3.671875 L 8.492188 10.738281 Z M 13.53125 7.300781" style="stroke:none;fill-rule:evenodd;fill:#5fc4e1;fill-opacity:1"/><path d="M 15.167969 40.652344 C 15.167969 38.179688 17.476562 36.183594 20.332031 36.183594 L 27.015625 36.179688 C 27.195312 36.179688 27.339844 36.324219 27.339844 36.503906 L 27.339844 38.472656 C 27.339844 38.652344 27.195312 38.796875 27.015625 38.796875 L 20.171875 38.796875 C 19.007812 38.796875 18.058594 39.503906 18.058594 40.511719 C 18.058594 41.519531 18.539062 42.078125 21.527344 42.886719 C 25.660156 44.007812 28.105469 45.054688 28.105469 48.316406 C 28.105469 51.035156 25.558594 53.238281 22.417969 53.238281 L 15.957031 53.238281 C 15.777344 53.238281 15.632812 53.09375 15.632812 52.914062 L 15.632812 50.941406 C 15.632812 50.765625 15.777344 50.617188 15.957031 50.617188 L 22.5625 50.617188 C 24 50.617188 25.210938 49.703125 25.210938 48.457031 C 25.210938 47.066406 24.058594 46.402344 21.058594 45.589844 C 17.707031 44.675781 15.167969 43.734375 15.167969 40.652344 Z M 58.695312 50.617188 L 62.484375 50.617188 C 63.933594 50.617188 64.25 50.089844 64.269531 48.847656 L 64.269531 44.324219 C 57.257812 45.496094 56.289062 47.289062 56.289062 48.71875 C 56.289062 49.914062 57.019531 50.617188 58.695312 50.617188 Z M 64.253906 41.140625 C 64.125 39.53125 63.203125 38.804688 61.585938 38.796875 L 54.878906 38.796875 C 54.699219 38.796875 54.554688 38.652344 54.554688 38.472656 L 54.554688 36.503906 C 54.554688 36.324219 54.699219 36.179688 54.878906 36.179688 L 61.585938 36.179688 C 65.28125 36.179688 67.164062 38.28125 67.164062 41.445312 L 67.164062 48.972656 C 67.164062 51.957031 65.519531 53.238281 62.601562 53.238281 L 58.574219 53.238281 C 55.375 53.238281 53.394531 51.570312 53.394531 48.800781 C 53.394531 45.378906 56.488281 43.058594 64.273438 41.867188 L 66.050781 41.628906 C 66.1875 41.605469 66.269531 41.484375 66.246094 41.347656 C 66.226562 41.210938 66.117188 41.140625 65.964844 41.140625 Z M 34.65625 50.617188 L 38.441406 50.617188 C 39.890625 50.617188 40.207031 50.089844 40.226562 48.847656 L 40.226562 44.324219 C 33.214844 45.496094 32.246094 47.289062 32.246094 48.71875 C 32.246094 49.914062 32.976562 50.617188 34.65625 50.617188 Z M 40.210938 41.140625 C 40.082031 39.53125 39.164062 38.804688 37.542969 38.796875 L 30.835938 38.796875 C 30.65625 38.796875 30.511719 38.652344 30.511719 38.472656 L 30.511719 36.503906 C 30.511719 36.324219 30.65625 36.179688 30.835938 36.179688 L 37.546875 36.179688 C 41.238281 36.179688 43.121094 38.28125 43.121094 41.445312 L 43.121094 48.972656 C 43.121094 51.957031 41.476562 53.238281 38.558594 53.238281 L 34.535156 53.238281 C 31.332031 53.238281 29.351562 51.570312 29.351562 48.800781 C 29.351562 45.378906 32.445312 43.058594 40.234375 41.867188 L 42.011719 41.628906 C 42.144531 41.605469 42.226562 41.484375 42.207031 41.347656 C 42.183594 41.210938 42.078125 41.140625 41.921875 41.140625 Z M 52.070312 36.175781 C 52.25 36.175781 52.394531 36.320312 52.394531 36.5 L 52.394531 38.476562 C 52.394531 38.652344 52.25 38.800781 52.070312 38.800781 L 48.222656 38.792969 L 48.222656 48.882812 C 48.242188 50.121094 48.554688 50.617188 50.019531 50.617188 L 51.859375 50.617188 C 52.136719 50.617188 52.394531 50.832031 52.394531 51.140625 L 52.394531 52.710938 C 52.394531 53.019531 52.136719 53.238281 51.859375 53.238281 L 49.890625 53.238281 C 46.964844 53.222656 45.328125 51.964844 45.328125 48.980469 L 45.328125 32.742188 C 45.328125 32.4375 45.582031 32.21875 45.863281 32.21875 L 47.089844 32.21875 C 47.429688 32.21875 47.582031 32.507812 47.617188 32.683594 L 48.101562 35.464844 L 46.4375 35.6875 C 46.304688 35.710938 46.222656 35.832031 46.242188 35.96875 C 46.265625 36.105469 46.371094 36.175781 46.527344 36.175781 Z M 52.070312 36.175781" style="stroke:none;fill-rule:nonzero;fill:#002953;fill-opacity:1"/><path d="M 21.664062 65.726562 L 21.03125 65.726562 C 20.933594 65.726562 20.867188 65.648438 20.847656 65.566406 L 20.152344 63.101562 L 17.375 63.101562 L 16.691406 65.566406 C 16.667969 65.652344 16.582031 65.726562 16.496094 65.726562 L 15.863281 65.726562 C 15.757812 65.726562 15.683594 65.648438 15.683594 65.554688 C 15.683594 65.535156 15.683594 65.5 15.691406 65.480469 L 17.675781 58.503906 C 17.859375 57.847656 18.363281 57.6875 18.769531 57.6875 C 19.175781 57.6875 19.667969 57.839844 19.851562 58.492188 L 21.832031 65.480469 C 21.84375 65.5 21.84375 65.535156 21.84375 65.554688 C 21.84375 65.652344 21.78125 65.726562 21.664062 65.726562 Z M 18.972656 58.726562 C 18.941406 58.609375 18.875 58.535156 18.769531 58.535156 C 18.652344 58.535156 18.585938 58.609375 18.554688 58.726562 L 17.578125 62.253906 L 19.945312 62.253906 Z M 18.972656 58.726562" style="stroke:none;fill-rule:nonzero;fill:#0083bd;fill-opacity:1"/><path d="M 23.75 58.886719 L 23.203125 58.886719 C 23.085938 58.886719 22.988281 58.792969 22.988281 58.675781 L 22.988281 57.816406 C 22.988281 57.699219 23.085938 57.601562 23.203125 57.601562 L 23.75 57.601562 C 23.867188 57.601562 23.964844 57.699219 23.964844 57.816406 L 23.964844 58.675781 C 23.964844 58.792969 23.867188 58.886719 23.75 58.886719 Z M 23.730469 65.726562 L 23.214844 65.726562 C 23.097656 65.726562 23 65.628906 23 65.511719 L 23 60.046875 C 23 59.925781 23.097656 59.832031 23.214844 59.832031 L 23.730469 59.832031 C 23.847656 59.832031 23.941406 59.925781 23.941406 60.046875 L 23.941406 65.511719 C 23.941406 65.628906 23.847656 65.726562 23.730469 65.726562 Z M 23.730469 65.726562" style="stroke:none;fill-rule:nonzero;fill:#0083bd;fill-opacity:1"/><path d="M 27.949219 60.570312 C 27.457031 60.570312 27.007812 60.699219 26.472656 61.019531 L 26.472656 65.511719 C 26.472656 65.621094 26.375 65.726562 26.257812 65.726562 L 25.730469 65.726562 C 25.625 65.726562 25.527344 65.628906 25.527344 65.511719 L 25.527344 60.046875 C 25.527344 59.929688 25.613281 59.832031 25.730469 59.832031 L 26.234375 59.832031 C 26.355469 59.832031 26.441406 59.929688 26.441406 60.046875 L 26.441406 60.273438 C 26.976562 59.894531 27.46875 59.757812 27.949219 59.757812 C 28.101562 59.757812 28.175781 59.820312 28.175781 59.949219 L 28.175781 60.390625 C 28.175781 60.507812 28.101562 60.570312 27.949219 60.570312 Z M 27.949219 60.570312" style="stroke:none;fill-rule:nonzero;fill:#0083bd;fill-opacity:1"/><path d="M 37.398438 65.726562 L 36.765625 65.726562 C 36.671875 65.726562 36.605469 65.648438 36.585938 65.566406 L 35.890625 63.101562 L 33.113281 63.101562 L 32.425781 65.566406 C 32.40625 65.652344 32.320312 65.726562 32.234375 65.726562 L 31.601562 65.726562 C 31.496094 65.726562 31.421875 65.648438 31.421875 65.554688 C 31.421875 65.535156 31.421875 65.5 31.429688 65.480469 L 33.414062 58.503906 C 33.59375 57.847656 34.097656 57.6875 34.507812 57.6875 C 34.914062 57.6875 35.40625 57.839844 35.589844 58.492188 L 37.570312 65.480469 C 37.582031 65.5 37.582031 65.535156 37.582031 65.554688 C 37.582031 65.652344 37.515625 65.726562 37.398438 65.726562 Z M 34.710938 58.726562 C 34.679688 58.609375 34.613281 58.535156 34.507812 58.535156 C 34.386719 58.535156 34.324219 58.609375 34.292969 58.726562 L 33.316406 62.253906 L 35.683594 62.253906 Z M 34.710938 58.726562" style="stroke:none;fill-rule:nonzero;fill:#0083bd;fill-opacity:1"/><path d="M 41.941406 65.683594 C 41.585938 65.746094 41.105469 65.800781 40.601562 65.800781 C 39.144531 65.800781 38.320312 64.773438 38.320312 63.199219 L 38.320312 62.359375 C 38.320312 60.785156 39.132812 59.757812 40.601562 59.757812 C 41.09375 59.757812 41.585938 59.8125 41.941406 59.875 C 42.113281 59.90625 42.15625 59.960938 42.15625 60.109375 L 42.15625 60.496094 C 42.15625 60.605469 42.070312 60.65625 41.972656 60.65625 L 41.929688 60.65625 C 41.460938 60.605469 41.128906 60.582031 40.601562 60.582031 C 39.746094 60.582031 39.265625 61.152344 39.265625 62.363281 L 39.265625 63.199219 C 39.265625 64.398438 39.734375 64.976562 40.601562 64.976562 C 41.128906 64.976562 41.460938 64.957031 41.929688 64.902344 L 41.972656 64.902344 C 42.070312 64.902344 42.15625 64.957031 42.15625 65.0625 L 42.15625 65.449219 C 42.15625 65.589844 42.113281 65.652344 41.941406 65.683594 Z M 41.191406 66.230469 L 39.980469 67.582031 C 39.882812 67.6875 39.851562 67.742188 39.734375 67.742188 L 39.15625 67.742188 C 39.089844 67.742188 39.058594 67.707031 39.058594 67.664062 C 39.058594 67.632812 39.070312 67.589844 39.101562 67.558594 L 40.140625 66.230469 C 40.238281 66.113281 40.28125 66.070312 40.410156 66.070312 L 41.117188 66.070312 C 41.191406 66.070312 41.234375 66.089844 41.234375 66.144531 C 41.234375 66.164062 41.222656 66.195312 41.191406 66.230469 Z M 41.191406 66.230469" style="stroke:none;fill-rule:nonzero;fill:#0083bd;fill-opacity:1"/><path d="M 45.15625 65.800781 C 43.582031 65.800781 42.777344 64.761719 42.777344 63.183594 L 42.777344 62.371094 C 42.777344 60.796875 43.582031 59.753906 45.15625 59.753906 C 46.730469 59.753906 47.546875 60.796875 47.546875 62.371094 L 47.546875 63.183594 C 47.546875 64.761719 46.730469 65.800781 45.15625 65.800781 Z M 46.601562 62.371094 C 46.601562 61.277344 46.164062 60.582031 45.15625 60.582031 C 44.148438 60.582031 43.71875 61.265625 43.71875 62.371094 L 43.71875 63.1875 C 43.71875 64.28125 44.148438 64.976562 45.15625 64.976562 C 46.164062 64.976562 46.601562 64.289062 46.601562 63.1875 Z M 46.601562 62.371094" style="stroke:none;fill-rule:nonzero;fill:#0083bd;fill-opacity:1"/><path d="M 51.230469 60.570312 C 50.734375 60.570312 50.285156 60.699219 49.75 61.019531 L 49.75 65.511719 C 49.75 65.621094 49.652344 65.726562 49.535156 65.726562 L 49.011719 65.726562 C 48.902344 65.726562 48.808594 65.628906 48.808594 65.511719 L 48.808594 60.046875 C 48.808594 59.929688 48.894531 59.832031 49.011719 59.832031 L 49.515625 59.832031 C 49.632812 59.832031 49.71875 59.929688 49.71875 60.046875 L 49.71875 60.273438 C 50.253906 59.894531 50.746094 59.757812 51.230469 59.757812 C 51.378906 59.757812 51.457031 59.820312 51.457031 59.949219 L 51.457031 60.390625 C 51.457031 60.507812 51.378906 60.570312 51.230469 60.570312 Z M 51.230469 60.570312" style="stroke:none;fill-rule:nonzero;fill:#0083bd;fill-opacity:1"/><path d="M 56.554688 63.078125 L 52.964844 63.078125 L 52.964844 63.230469 C 52.964844 64.503906 53.46875 64.976562 54.453125 64.976562 C 55.074219 64.976562 55.867188 64.933594 56.363281 64.859375 L 56.414062 64.859375 C 56.5 64.859375 56.585938 64.902344 56.585938 65.007812 L 56.585938 65.371094 C 56.585938 65.511719 56.542969 65.585938 56.375 65.621094 C 55.761719 65.738281 55.171875 65.800781 54.453125 65.800781 C 53.222656 65.800781 52.019531 65.222656 52.019531 63.230469 L 52.019531 62.265625 C 52.019531 60.730469 52.867188 59.757812 54.402344 59.757812 C 55.933594 59.757812 56.757812 60.742188 56.757812 62.265625 L 56.757812 62.84375 C 56.757812 62.984375 56.683594 63.078125 56.554688 63.078125 Z M 55.804688 62.265625 C 55.804688 61.054688 55.34375 60.582031 54.402344 60.582031 C 53.457031 60.582031 52.964844 61.105469 52.964844 62.265625 L 52.964844 62.359375 L 55.804688 62.359375 Z M 55.804688 62.265625" style="stroke:none;fill-rule:nonzero;fill:#0083bd;fill-opacity:1"/><path d="M 59.769531 65.800781 C 59.371094 65.800781 58.601562 65.769531 58.074219 65.640625 C 57.933594 65.609375 57.847656 65.542969 57.847656 65.425781 L 57.847656 65.050781 C 57.847656 64.953125 57.933594 64.890625 58.042969 64.890625 L 58.085938 64.890625 C 58.601562 64.953125 59.382812 65.007812 59.765625 65.007812 C 60.464844 65.007812 60.828125 64.824219 60.828125 64.246094 C 60.828125 63.925781 60.636719 63.722656 60.023438 63.359375 L 58.941406 62.714844 C 58.289062 62.316406 57.847656 61.855469 57.847656 61.183594 C 57.847656 60.066406 58.683594 59.757812 59.789062 59.757812 C 60.390625 59.757812 60.957031 59.8125 61.460938 59.894531 C 61.601562 59.917969 61.664062 59.992188 61.664062 60.109375 L 61.664062 60.464844 C 61.664062 60.59375 61.589844 60.648438 61.480469 60.648438 L 61.449219 60.648438 C 61.074219 60.613281 60.390625 60.558594 59.789062 60.558594 C 59.1875 60.558594 58.792969 60.636719 58.792969 61.183594 C 58.792969 61.503906 59.039062 61.707031 59.53125 61.996094 L 60.59375 62.628906 C 61.480469 63.152344 61.769531 63.613281 61.769531 64.246094 C 61.769531 65.339844 60.96875 65.800781 59.765625 65.800781 Z M 59.769531 65.800781" style="stroke:none;fill-rule:nonzero;fill:#0083bd;fill-opacity:1"/></g></svg>