<svg xmlns="http://www.w3.org/2000/svg" version="1.1" id="Layer_1" x="0px" y="0px" width="70px" height="70px" viewBox="0 0 70 70" enable-background="new 0 0 70 70" xml:space="preserve"><path fill="#F99D1C" d="M26.65,59.791c0,0,7.883-11.776,8.594-12.937c0.868-1.425,0.906-3.689,0.125-4.904  c-0.397-0.636-12.151-19.224-12.151-19.224c-1.056-2.009-0.793-3.381-0.088-4.361c1.159-1.71,3.202-4.741,3.202-4.741  s14.27,22.387,14.864,23.383c1.532,2.554,1.107,5.058-0.155,7.199c-1.057,1.808-10.302,15.585-10.302,15.585H26.65L26.65,59.791z"/><path fill="#F99D1C" d="M60.88,51.095l-4.117-6.263c0,0-5.285,0-6.568,0c-1.254,0-2.771,1.114-3.568,2.294  c-0.623,0.931-5.115,7.66-5.924,8.742c-0.459,0.611-0.853,0.746-1.217,0.748c-0.201,0.001-0.781-0.001-0.856-0.001  c0.269-0.539,7.813-11.514,9.297-13.931c1.791-2.974,2.198-6.904,0.066-10.674C47.213,30.641,31.534,5.902,31.534,5.902  s-2.088,3.007-2.957,4.294c-0.705,1.05-0.923,2.423,0.093,4.434c0,0,13.162,20.932,13.791,21.894c1.529,2.386,1.336,5.574,0,7.749  c-1.095,1.789-10.186,15.518-10.186,15.518s6.615,0,7.204,0c2.609,0,3.25-0.968,3.969-1.771c0.72-0.804,4.638-6.746,5.083-7.373  c0.451-0.618,1.595-2.373,3.097-2.373c0.856,0,4.732,0,4.732,0v0.136c-1.008,0.203-2.001,0.811-2.722,1.802  c-0.72,0.975-5.476,8.016-6.048,8.837c-0.72,1.034-1.544,2.014-3.612,2.014c-1.229,0-19.866,0-19.866,0l0,0  c0,0,9.121-13.356,9.799-14.462c0.797-1.351,0.709-3.254,0-4.404c-0.38-0.608-13.047-20.546-13.047-20.546s-2.247,3.391-2.956,4.438  c-0.709,1.043-1.128,2.341,0.088,4.431c0,0,9.07,14.32,9.453,14.926c0.741,1.167,0.706,3.314-0.12,4.664  c-0.678,1.092-10.032,14.733-10.032,14.733s24.29,0,26.996,0c2.745,0,4.25-1.064,5.574-2.972c1.148-1.623,5.591-8.077,6.271-9.088  c0.673-1.013,2.026-1.689,2.63-1.689"/></svg>