<svg xmlns="http://www.w3.org/2000/svg" version="1.1" width="70px" height="70px" viewBox="0 0 70 70"><g id="surface1"><path d="M 57.175781 15.6875 C 55.367188 18.046875 53.582031 20.433594 51.828125 22.855469 C 43.9375 33.75 36.238281 48.003906 39.269531 63.101562 C 39.394531 63.71875 40.65625 70 40.949219 70 C 40.949219 70 63.203125 70 63.203125 70 C 59.851562 56.277344 58.226562 41.628906 60.449219 27.457031 C 61.210938 22.609375 62.414062 17.863281 64.042969 13.335938 C 64.136719 13.078125 64.230469 12.820312 64.324219 12.570312 C 64.890625 11.035156 65.476562 9.601562 66.054688 8.261719 C 67.492188 4.945312 68.898438 2.230469 69.964844 -0.00390625 C 69.734375 0.476562 69.15625 0.929688 68.824219 1.3125 C 67.777344 2.539062 66.738281 3.777344 65.703125 5.019531 C 62.808594 8.511719 59.960938 12.0625 57.175781 15.683594 Z M 57.175781 15.6875 " style=" stroke:none;fill-rule:nonzero;fill:rgb(15.686275%,16.862746%,38.431373%);fill-opacity:1;"/><path d="M 45.023438 25.457031 C 44.472656 25.871094 43.988281 26.777344 43.570312 27.355469 C 42.347656 29.054688 41.210938 30.839844 40.160156 32.691406 C 36.039062 39.933594 33.0625 48.425781 32.90625 57.285156 C 32.898438 57.621094 32.871094 59.792969 33.085938 61.957031 C 33.507812 66.175781 34.339844 69.976562 34.339844 69.996094 L 24.644531 69.996094 C 24.644531 69.996094 24.648438 69.996094 24.648438 69.996094 L 0.0351562 69.996094 C 27.734375 38.601562 44.890625 25.558594 45.023438 25.457031 Z M 45.023438 25.457031 " style=" stroke:none;fill-rule:nonzero;fill:rgb(15.686275%,16.862746%,38.431373%);fill-opacity:1;"/></g></svg>