<svg xmlns="http://www.w3.org/2000/svg" version="1.1" id="Layer_1" x="0px" y="0px" width="70" height="70" viewBox="0 0 70 70" xml:space="preserve" style="enable-background:new 0 0 70 70;"><style type="text/css">
	.st0{fill:#28316F;}
</style><g id="Calque_2"><g id="Calque_1-2"><path d="M0.16,36.2c0,1.73,1.41,2.91,4.16,2.91c1.58,0.04,3.14-0.4,4.48-1.26L7.77,36.6    c-0.94,0.61-2.02,0.96-3.14,1.02c-0.79,0-1.1-0.4-1.1-1.02c0.02-1.26,1.41-4.32,3.61-4.32c0.75-0.02,1.46,0.29,1.96,0.85    l1.41-1.18c-0.78-0.77-2.04-1.09-3.53-1.09C2.9,30.87,0.16,33.54,0.16,36.2" class="st0"/><path d="M23.76,31.07l-3.6,7.83h3.13l1.18-2.5h1.7l1.01,2.5h3.29l-1.33-2.83c1.8-0.39,2.9-1.8,2.9-3.05    c0-1.1-0.78-1.96-2.58-1.96L23.76,31.07z M26.34,32.25h1.49c0.51-0.05,0.97,0.32,1.02,0.83c0,0.04,0,0.07,0,0.11    c-0.06,1.13-0.99,2.02-2.12,2.03h-1.8L26.34,32.25z" class="st0"/><polygon points="56.56,31.07 52.88,38.91 56.09,38.91 59.69,31.07   " class="st0"/><path d="M61.54,31.07l-3.6,7.83h3.13l1.17-2.5h1.7l1.02,2.5h3.29l-1.33-2.83c1.81-0.37,2.91-1.8,2.91-3.04    c0-1.1-0.78-1.96-2.58-1.96H61.54z M64.13,32.25h1.49c0.51-0.05,0.96,0.32,1.01,0.83c0,0.04,0.01,0.07,0,0.11    c-0.06,1.13-0.98,2.02-2.11,2.03h-1.8L64.13,32.25z" class="st0"/><path d="M48.22,31.07l-6.97,7.83H44l1.56-1.7h3.32l-0.08,1.7h3.29l0.19-7.83H48.22z M49.09,33.13l-0.16,2.9H46.5    L49.09,33.13z" class="st0"/><path d="M9.91,36.28c0,1.7,1.26,2.83,3.93,2.83c3.85-0.01,6.99-2.58,6.99-5.42c0-1.65-1.33-2.83-4.01-2.83    C12.81,30.87,9.91,33.54,9.91,36.28 M13.55,34.97c0.72-1.5,1.59-2.73,3.18-2.73c1.59,0,1.32,1.22,0.6,2.73    c-0.72,1.5-1.63,2.73-3.21,2.73S12.84,36.45,13.55,34.97" class="st0"/><path d="M33.39,33.46c0,2.04,3.97,2.27,3.97,3.4c0,0.57-0.63,0.86-2.12,0.86c-1.04,0-2.07-0.13-3.08-0.39l-0.62,1.31    c1.26,0.32,2.56,0.49,3.87,0.49c2.9,0,6.03-0.71,6.03-2.59c0-2.04-4.15-2.19-4.15-3.37c0-0.71,1.18-0.86,2.36-0.86    c0.92,0,1.83,0.08,2.73,0.24l0.56-1.34c-1.23-0.24-2.49-0.35-3.75-0.35C36.45,30.87,33.39,31.43,33.39,33.46" class="st0"/></g></g></svg>