<svg xmlns="http://www.w3.org/2000/svg" style="enable-background:new 0 0 70 70" id="Layer_1" width="70" height="70" x="0" y="0" version="1.1" viewBox="0 0 70 70" xml:space="preserve"><style type="text/css">.st0{fill:#00529b}.st1{fill:url(#SVGID_1_)}.st1,.st2,.st3,.st4,.st5,.st6{fill-rule:evenodd;clip-rule:evenodd}.st2{fill:url(#SVGID_2_)}.st3{fill:url(#SVGID_3_)}.st4{fill:url(#SVGID_4_)}.st5{fill:url(#SVGID_5_)}.st6{fill:url(#SVGID_6_)}.st7{fill:url(#SVGID_7_)}.st7,.st8{fill-rule:evenodd;clip-rule:evenodd}.st8,.st9{fill:#fff}</style><rect width="70" height="70" class="st0"/><g><g><linearGradient id="SVGID_1_" x1="47.145" x2="51.48" y1="36.069" y2="40.349" gradientUnits="userSpaceOnUse"><stop style="stop-color:#c3161c" offset="0"/><stop style="stop-color:#ec1c24" offset=".3"/><stop style="stop-color:#ed2f36" offset=".34"/><stop style="stop-color:#f15f65" offset=".42"/><stop style="stop-color:#f7aaac" offset=".529"/><stop style="stop-color:#f58f92" offset=".553"/><stop style="stop-color:#f2666b" offset=".596"/><stop style="stop-color:#ef464c" offset=".637"/><stop style="stop-color:#ed2f36" offset=".677"/><stop style="stop-color:#ec2129" offset=".715"/><stop style="stop-color:#ec1c24" offset=".748"/><stop style="stop-color:#c3161c" offset="1"/></linearGradient><path d="M45.6,40.1c3.4-2.4,5.2-3.3,9.3-3.4L54,37.9c-0.2,0.3-0.4,0.3-0.7,0.3c-2.9,0-4.9,0.2-8.4,2.6L45.6,40.1z" class="st1"/><linearGradient id="SVGID_2_" x1="45.269" x2="56.151" y1="32.974" y2="40.881" gradientUnits="userSpaceOnUse"><stop style="stop-color:#fff" offset="0"/><stop style="stop-color:#fff" offset=".34"/><stop style="stop-color:#fff" offset=".54"/><stop style="stop-color:#c6d2eb" offset=".91"/><stop style="stop-color:#c6d2eb" offset="1"/></linearGradient><path d="M45.8,39.9C45.8,39.9,45.8,39.9,45.8,39.9c3.3-2.9,6.2-4.2,8.7-4.5c0.2-0.3,1-1.2,1.2-1.5 C50.1,34.8,47.5,38.3,45.8,39.9z" class="st2"/><linearGradient id="SVGID_3_" x1="47.217" x2="53.205" y1="35.218" y2="41.13" gradientUnits="userSpaceOnUse"><stop style="stop-color:#00529b" offset="0"/><stop style="stop-color:#00529b" offset=".13"/><stop style="stop-color:#155da3" offset=".176"/><stop style="stop-color:#4d7cb9" offset=".309"/><stop style="stop-color:#708fc7" offset=".409"/><stop style="stop-color:#7d96cc" offset=".462"/><stop style="stop-color:#7491c9" offset=".472"/><stop style="stop-color:#366fb0" offset=".55"/><stop style="stop-color:#0f5aa1" offset=".607"/><stop style="stop-color:#00529b" offset=".637"/><stop style="stop-color:#00529b" offset=".917"/></linearGradient><path d="M45.7,39.9c0,0-0.2,0.2-0.3,0.3c0,0-0.1,0.1-0.1,0.1c0.6-0.5,2-1.4,3.2-2.1c1.2-0.6,2.7-1.1,4.7-1.4 c0.2-0.2,0.8-1,1.1-1.4C50.6,35.9,48,38,45.7,39.9z" class="st3"/><linearGradient id="SVGID_4_" x1="52.966" x2="55.258" y1="36.377" y2="37.865" gradientUnits="userSpaceOnUse"><stop style="stop-color:#c3161c" offset="0"/><stop style="stop-color:#ec1c24" offset=".475"/><stop style="stop-color:#f7aaac" offset="1"/></linearGradient><path d="M53.9,38c0-0.1,0.1-0.2-0.3-0.5c-0.5-0.3-0.7-0.2-0.6-0.4c0.1-0.2,1.2-0.7,2-0.4C55,36.7,54.3,37.5,53.9,38z" class="st4"/><linearGradient id="SVGID_5_" x1="54.862" x2="61.174" y1="31.297" y2="36.544" gradientUnits="userSpaceOnUse"><stop style="stop-color:#c6d5ed" offset="0"/><stop style="stop-color:#c6d5ed" offset=".073"/><stop style="stop-color:#aec5e3" offset=".119"/><stop style="stop-color:#709cc9" offset=".215"/><stop style="stop-color:#0d5aa0" offset=".354"/><stop style="stop-color:#00529b" offset=".371"/><stop style="stop-color:#08579e" offset=".43"/><stop style="stop-color:#1e66a8" offset=".523"/><stop style="stop-color:#437eb7" offset=".637"/><stop style="stop-color:#75a0cc" offset=".769"/><stop style="stop-color:#b5cae6" offset=".914"/><stop style="stop-color:#c6d5ed" offset=".949"/><stop style="stop-color:#c6d5ed" offset="1"/></linearGradient><path d="M56.9,33.5c-0.8,0.1-1.3,0.3-1.6,0.7l-1.1,1.4c0.3-0.2,1-0.3,1.7-0.3h0.1c0,0,0.1,0,0.1,0c0.1,0,0.2,0,0.3,0 c1.1,0,2.7-0.2,3.6-1.2l1.3-1.8l0.1-0.2C60.4,33.5,57.8,33.4,56.9,33.5z" class="st5"/><linearGradient id="SVGID_6_" x1="56.098" x2="62.189" y1="29.887" y2="34.951" gradientUnits="userSpaceOnUse"><stop style="stop-color:#fff" offset="0"/><stop style="stop-color:#fff" offset=".174"/><stop style="stop-color:#f9fafd" offset=".229"/><stop style="stop-color:#e8ecf7" offset=".303"/><stop style="stop-color:#d8dff1" offset=".354"/><stop style="stop-color:#edf0f8" offset=".473"/><stop style="stop-color:#fafbfd" offset=".593"/><stop style="stop-color:#fff" offset=".7"/><stop style="stop-color:#fff" offset="1"/></linearGradient><path d="M59,31.9c-0.3,0.1-1.1,0-1.8,0.4c-0.7,0.4-1.5,1.3-1.8,1.8c0.3-0.4,0.9-0.5,1.6-0.6c0.7-0.1,1.7-0.1,2.4-0.2 c0.7-0.1,1.5-0.4,2.2-1.3l1.2-1.6C61.5,31.7,60.1,31.7,59,31.9z" class="st6"/><linearGradient id="SVGID_7_" x1="53.844" x2="59.233" y1="33.251" y2="37.731" gradientUnits="userSpaceOnUse"><stop style="stop-color:#f7aaac" offset="0"/><stop style="stop-color:#f7aaac" offset=".056"/><stop style="stop-color:#f59396" offset=".083"/><stop style="stop-color:#f16065" offset=".147"/><stop style="stop-color:#ee3b42" offset=".203"/><stop style="stop-color:#ed242c" offset=".247"/><stop style="stop-color:#ec1c24" offset=".276"/><stop style="stop-color:#d0181e" offset=".423"/><stop style="stop-color:#c3161c" offset=".517"/><stop style="stop-color:#d0181e" offset=".585"/><stop style="stop-color:#ec1c24" offset=".692"/><stop style="stop-color:#f6a1a0" offset=".891"/><stop style="stop-color:#f7aaac" offset="1"/></linearGradient><path d="M57.6,35.1c-0.8,0.1-1.8,0.1-2.1,0.2c-0.5,0-1.1,0.2-1.3,0.4c-0.5,0.6-1,1.2-1.2,1.5c0.3-0.3,1.4-0.3,2.7-0.3 c1.3-0.1,2.6-0.6,3.6-1.7l0.8-1.1C59.6,34.7,58.7,34.9,57.6,35.1z" class="st7"/></g><g><polygon points="12.3 38.6 12.3 38 9.9 38 9.9 36.8 12.1 36.8 12.1 36.2 9.9 36.2 9.9 35.1 12.2 35.1 12.2 34.5 8.3 34.5 8.3 38.6" class="st8"/><path d="M14.7,38.6v-3.5h1c0.3,0,0.6,0,0.8,0.2c0.2,0.1,0.3,0.3,0.3,0.5c0,0.2-0.1,0.4-0.3,0.5 c-0.3,0.2-0.9,0.2-1.2,0.2l-0.2,0l1.6,2h1.9L17,36.9c0.3,0,0.7-0.1,1-0.3c0.3-0.2,0.5-0.5,0.5-0.8c0-0.3-0.2-0.7-0.6-0.9 c-0.5-0.3-1.2-0.3-1.8-0.3h-3v4.1H14.7z" class="st8"/><polygon points="27.9 38.6 27.9 36.9 30.1 36.9 30.1 36.2 27.9 36.2 27.9 35.1 30.3 35.1 30.3 34.5 26.3 34.5 26.3 38.6" class="st8"/><polygon points="32.5 34.5 30.9 34.5 30.9 38.6 35 38.6 35 38 32.5 38" class="st8"/><polygon points="41.7 35.1 43.5 35.1 43.5 38.6 45.1 38.6 45.1 35.1 46.9 35.1 46.9 34.5 41.7 34.5" class="st8"/><path d="M38.2,34.4c-0.8,0-1.8,0.2-2.6,0.7c-0.6,0.4-0.8,1-0.8,1.5c0,0.5,0.3,1.1,0.8,1.5c0.7,0.5,1.8,0.7,2.6,0.7 c0.8,0,1.8-0.2,2.6-0.7c0.6-0.4,0.8-1,0.8-1.5c0-0.5-0.3-1.1-0.8-1.5C40.1,34.5,39,34.4,38.2,34.4 M38.2,38.2 c-0.4,0-0.9-0.1-1.2-0.5c-0.3-0.4-0.3-0.8-0.3-1.1c0-0.4,0.1-0.8,0.3-1.1c0.4-0.5,0.8-0.5,1.2-0.5c0.4,0,0.9,0.1,1.2,0.5 c0.3,0.4,0.3,0.8,0.3,1.1c0,0.4-0.1,0.8-0.3,1.1C39.1,38.1,38.6,38.2,38.2,38.2" class="st8"/><path d="M22.3,34.4c-0.8,0-1.8,0.2-2.6,0.7c-0.6,0.4-0.8,1-0.8,1.5c0,0.5,0.3,1.1,0.8,1.5c0.7,0.5,1.8,0.7,2.6,0.7 c0.8,0,1.8-0.2,2.6-0.7c0.6-0.4,0.8-1,0.8-1.5c0-0.5-0.3-1.1-0.8-1.5C24.2,34.5,23.1,34.4,22.3,34.4 M22.3,38.2 c-0.4,0-0.9-0.1-1.2-0.5c-0.3-0.4-0.3-0.8-0.3-1.1c0-0.4,0.1-0.8,0.3-1.1c0.4-0.5,0.8-0.5,1.2-0.5c0.4,0,0.9,0.1,1.2,0.5 c0.3,0.4,0.3,0.8,0.3,1.1c0,0.4-0.1,0.8-0.3,1.1C23.2,38.1,22.7,38.2,22.3,38.2" class="st8"/><path d="M2.5,38.6l0.6-1.2h2.3l0.7,1.2H8l-2.5-4.1H3.9l-2.3,4.1H2.5z M3.4,36.8l0.8-1.4h0l0.8,1.4H3.4z" class="st8"/></g><g><path d="M67.8,34.9L67.8,34.9c0.4,0.5,0.7,1.1,0.8,1.8c0.1,1.5-1,2.8-2.6,3c-0.7,0-1.4-0.2-1.9-0.6l0,0 c0.5,0.5,1.3,0.8,2.1,0.7c1.5-0.1,2.7-1.4,2.6-2.9C68.8,36,68.4,35.3,67.8,34.9" class="st9"/><path d="M62.9,38c-0.1,0-0.1,0.1-0.1,0.2c0,0.1,0.1,0.1,0.2,0.1c0.1,0,0.1-0.1,0-0.2l0,0c0-0.1,0-0.2,0-0.2 c0-0.1,0-0.1,0.1-0.1c0.1,0,0.2,0,0.3,0.2c0.1,0.2,0,0.3-0.1,0.4l0-0.1c0.1,0,0.1-0.1,0.1-0.3c0-0.1-0.1-0.2-0.2-0.1 c-0.1,0-0.1,0.1-0.1,0.2l0,0.1l0,0c0,0.1,0,0.1,0,0.2c0,0.1,0,0.1-0.1,0.1c-0.1,0-0.2,0-0.3-0.2C62.7,38.1,62.8,38,62.9,38 L62.9,38z" class="st9"/><polygon points="62.9 37 63.3 36.6 63.3 36.8 62.9 37.1 63.1 37.2 63.3 37.2 63.3 37.3 62.6 37.3 62.6 37.2 62.9 37.2 62.9 37.2 62.9 37.2 62.9 37.2 62.9 37.2 62.6 36.8 62.6 36.7" class="st9"/><path d="M63.2,35.9l0.3,0.1l0,0.1L63.2,35.9l-0.5,0.2l0-0.1l0.3-0.1l0,0C63.1,35.9,63.1,35.9,63.2,35.9 c-0.1,0-0.1,0-0.1-0.1l-0.2-0.3l0-0.1L63.2,35.9z" class="st9"/><polygon points="63.7 34.6 63.5 34.8 64 35.1 63.9 35.3 63.4 34.9 63.3 35.1 63.2 35 63.6 34.5" class="st9"/><polygon points="64.6 33.9 64.3 34.1 64.3 34.3 64.7 34.1 64.7 34.2 64.4 34.4 64.5 34.5 64.9 34.3 64.9 34.4 64.4 34.7 64.1 34.1 64.6 33.8" class="st9"/><path d="M66,34.2l-0.2,0L65.7,34l-0.3,0l0,0.2l-0.2,0l0.2-0.8l0.2,0L66,34.2z M65.6,33.8c0-0.1-0.1-0.1-0.1-0.1 c0,0.1,0,0.1,0,0.2l0,0.1l0.2,0L65.6,33.8z" class="st9"/><path d="M67.2,34.4L67,34.4l0.1-0.2c0,0,0-0.1,0-0.1c0,0,0-0.1,0-0.1c0,0,0-0.1,0-0.1l0-0.1c0,0.1-0.1,0.1-0.1,0.2 c0,0,0,0,0,0.1l-0.2,0.3l-0.1,0l0-0.3c0,0,0,0,0-0.1c0,0,0-0.1,0-0.1c0,0,0,0,0-0.1l0,0.1c0,0.1,0,0.1-0.1,0.2l-0.1,0.2l-0.2,0 l0.2-0.7l0.2,0l0,0.3c0,0.1,0,0.1,0,0.2c0-0.1,0-0.1,0.1-0.1c0,0,0-0.1,0.1-0.1l0.2-0.3l0.2,0.1L67.2,34.4z" class="st9"/><path d="M65.8,35.8c-0.1,0.1-0.3,0.2-0.4,0.4l-0.2,0.2c-0.2,0-0.3,0-0.5,0c-0.3,0-0.7,0.1-0.8,0.2 c-0.1,0.1-0.1,0.1-0.1,0.2c0,0.2,0.2,0.3,0.3,0.3c0.3,0.1,0.6,0.1,0.8-0.1c0.2-0.1,0.3-0.3,0.5-0.4c0.1,0,0.2,0.1,0.4,0.1l0.1,0 c-0.2,0.2-0.3,0.3-0.5,0.5l0,0c-0.2,0.2-0.4,0.3-0.6,0.4c-0.2,0-0.3,0-0.3,0c0,0,0,0,0,0c0.1,0.1,0.2,0.2,0.5,0.1 c0.2,0,0.4-0.1,0.7-0.4l0.3-0.3l0.2-0.2c0,0,0.4,0.1,0.4,0.1c0,0,0,0,0,0c0,0-0.3,0.3-0.3,0.3l-0.2,0.2c-0.2,0.2-0.4,0.4-0.5,0.5 c-0.2,0.2-0.4,0.3-0.6,0.3c-0.1,0-0.2,0-0.3-0.1c0,0,0,0,0,0c0.1,0.1,0.3,0.2,0.5,0.2c0.3,0,0.5-0.1,0.9-0.5 c0.2-0.2,0.4-0.4,0.5-0.5l0.3-0.3c0.2,0,0.4,0.1,0.6,0.1c0.3,0,0.5-0.1,0.5-0.3c0-0.1-0.1-0.2-0.1-0.2c0,0-0.2-0.1-0.3-0.1 c-0.2,0-0.4,0.1-0.7,0.3l-0.1,0.1c0,0-0.1,0-0.1,0l-0.4-0.1c0.1-0.1,0.2-0.2,0.3-0.3c0.2-0.2,0.5-0.3,0.6-0.3c0.1,0,0.3,0,0.4,0.1 c0,0,0,0,0,0c-0.2-0.2-0.4-0.2-0.5-0.2c-0.1,0-0.4,0-0.6,0.3c-0.1,0.1-0.3,0.2-0.4,0.4c0,0-0.2-0.1-0.2-0.1l-0.1,0l-0.2-0.1 c0,0,0.1-0.1,0.1-0.1c0.1-0.1,0.3-0.3,0.4-0.4c0.4-0.3,0.6-0.4,0.8-0.4c0.2,0,0.3,0,0.4,0.1c0,0,0,0,0,0c-0.2-0.2-0.4-0.3-0.7-0.3 C66.4,35.4,66.1,35.5,65.8,35.8 M64.2,37c-0.1,0-0.2-0.1-0.2-0.2c0,0,0-0.3,0.7-0.4c0.1,0,0.2,0,0.3,0c0,0-0.1,0.1-0.1,0.1l0,0 C64.8,36.7,64.5,37,64.2,37 M67.1,36.7c0.2-0.1,0.4-0.2,0.5-0.2c0.1,0,0.1,0,0.1,0.1c0,0.1-0.1,0.1-0.2,0.2c-0.1,0-0.3,0.1-0.5,0 C67,36.8,67.1,36.7,67.1,36.7" class="st9"/><path d="M67.4,33.8c0-0.1,0.1-0.1,0.2-0.1c0.1,0,0.1,0.1,0.1,0.2c0,0.1-0.1,0.1-0.2,0.1C67.5,34,67.4,33.9,67.4,33.8 M67.6,33.9c0,0,0-0.1,0-0.1c0,0-0.1,0-0.1,0c0,0,0,0.1,0,0.1C67.6,34,67.6,34,67.6,33.9 M67.6,34L67.6,34L67.6,34L67.6,34 L67.6,34L67.6,34l0-0.2l0,0C67.6,33.9,67.6,33.9,67.6,34C67.6,33.9,67.6,33.9,67.6,34L67.6,34z M67.6,33.9 C67.6,33.9,67.6,33.9,67.6,33.9C67.6,33.9,67.6,33.9,67.6,33.9L67.6,33.9L67.6,33.9L67.6,33.9z" class="st9"/></g></g></svg>