<svg xmlns="http://www.w3.org/2000/svg" version="1.1" width="70px" height="70px" viewBox="0 0 70 70"><g id="surface1"><path d="M 9.582031 19.078125 C 9.832031 19.082031 10.066406 19.128906 10.308594 19.179688 C 10.359375 19.1875 10.40625 19.199219 10.457031 19.207031 C 10.59375 19.234375 10.730469 19.261719 10.867188 19.289062 C 11.011719 19.320312 11.160156 19.347656 11.308594 19.378906 C 11.5625 19.429688 11.820312 19.480469 12.074219 19.53125 C 12.449219 19.609375 12.824219 19.683594 13.199219 19.757812 C 13.816406 19.882812 14.433594 20.007812 15.046875 20.128906 C 15.632812 20.25 16.21875 20.367188 16.804688 20.484375 C 16.839844 20.492188 16.875 20.5 16.914062 20.503906 C 17.054688 20.535156 17.199219 20.5625 17.34375 20.59375 C 20.101562 21.144531 22.859375 21.703125 25.617188 22.261719 C 27.207031 22.582031 28.796875 22.902344 30.386719 23.21875 C 30.71875 23.285156 31.054688 23.351562 31.386719 23.417969 C 32.0625 23.554688 32.738281 23.691406 33.414062 23.824219 C 33.460938 23.976562 33.46875 24.121094 33.472656 24.28125 C 33.476562 24.308594 33.476562 24.335938 33.476562 24.363281 C 33.480469 24.457031 33.484375 24.550781 33.488281 24.648438 C 33.492188 24.714844 33.492188 24.78125 33.496094 24.847656 C 33.503906 25.03125 33.507812 25.214844 33.515625 25.398438 C 33.523438 25.589844 33.53125 25.78125 33.539062 25.972656 C 33.550781 26.296875 33.5625 26.621094 33.574219 26.945312 C 33.585938 27.316406 33.601562 27.6875 33.617188 28.0625 C 33.628906 28.421875 33.640625 28.78125 33.65625 29.140625 C 33.660156 29.292969 33.667969 29.441406 33.671875 29.59375 C 33.679688 29.777344 33.6875 29.957031 33.691406 30.136719 C 33.695312 30.203125 33.699219 30.265625 33.699219 30.332031 C 33.71875 30.789062 33.722656 31.242188 33.71875 31.695312 C 33.574219 31.648438 33.433594 31.601562 33.296875 31.535156 C 33.269531 31.519531 33.238281 31.503906 33.207031 31.488281 C 33.175781 31.472656 33.144531 31.457031 33.113281 31.441406 C 33.046875 31.410156 32.976562 31.375 32.90625 31.339844 C 32.871094 31.324219 32.835938 31.304688 32.796875 31.285156 C 31.984375 30.882812 31.164062 30.496094 30.335938 30.128906 C 30.289062 30.109375 30.289062 30.109375 30.242188 30.089844 C 27.746094 28.984375 25.117188 27.984375 22.394531 27.652344 C 22.34375 27.644531 22.34375 27.644531 22.296875 27.640625 C 21.648438 27.5625 21.007812 27.550781 20.355469 27.550781 C 20.28125 27.550781 20.28125 27.550781 20.203125 27.550781 C 19.421875 27.550781 18.65625 27.585938 17.878906 27.695312 C 17.847656 27.699219 17.8125 27.703125 17.78125 27.710938 C 17.710938 27.71875 17.644531 27.730469 17.574219 27.738281 C 17.601562 27.742188 17.625 27.742188 17.652344 27.746094 C 18.003906 27.769531 18.351562 27.796875 18.703125 27.824219 C 18.738281 27.828125 18.769531 27.832031 18.804688 27.835938 C 20.796875 27.996094 22.679688 28.304688 24.5625 29 C 24.59375 29.011719 24.621094 29.019531 24.652344 29.03125 C 26.574219 29.742188 28.457031 30.582031 30.25 31.570312 C 30.484375 31.699219 30.71875 31.824219 30.953125 31.949219 C 30.996094 31.972656 30.996094 31.972656 31.035156 31.996094 C 31.089844 32.023438 31.148438 32.054688 31.203125 32.082031 C 31.789062 32.394531 32.363281 32.714844 32.9375 33.042969 C 32.875 33.199219 32.8125 33.253906 32.667969 33.332031 C 32.628906 33.351562 32.589844 33.375 32.550781 33.394531 C 32.507812 33.417969 32.464844 33.441406 32.421875 33.464844 C 32.023438 33.683594 31.632812 33.914062 31.242188 34.152344 C 31.140625 34.214844 31.035156 34.277344 30.933594 34.339844 C 30.910156 34.355469 30.882812 34.371094 30.859375 34.386719 C 30.507812 34.601562 30.152344 34.8125 29.796875 35.019531 C 29.683594 35.085938 29.566406 35.15625 29.453125 35.222656 C 28.480469 35.800781 27.503906 36.363281 26.515625 36.914062 C 26.476562 36.9375 26.433594 36.957031 26.394531 36.980469 C 26.171875 37.105469 25.953125 37.226562 25.734375 37.347656 C 25.878906 37.582031 26.054688 37.773438 26.246094 37.972656 C 26.308594 38.035156 26.367188 38.097656 26.425781 38.160156 C 26.457031 38.191406 26.484375 38.222656 26.515625 38.253906 C 26.628906 38.375 26.734375 38.5 26.839844 38.625 C 26.910156 38.707031 26.910156 38.707031 27.035156 38.78125 C 27.058594 38.769531 27.078125 38.757812 27.097656 38.742188 C 27.160156 38.703125 27.226562 38.664062 27.289062 38.625 C 27.363281 38.578125 27.4375 38.53125 27.511719 38.484375 C 27.695312 38.367188 27.878906 38.25 28.066406 38.132812 C 28.386719 37.929688 28.710938 37.722656 29.03125 37.519531 C 29.878906 36.976562 30.734375 36.441406 31.59375 35.914062 C 31.636719 35.886719 31.683594 35.859375 31.730469 35.828125 C 32.257812 35.5 32.789062 35.171875 33.328125 34.851562 C 33.359375 34.832031 33.394531 34.8125 33.425781 34.792969 C 33.457031 34.777344 33.484375 34.761719 33.511719 34.742188 C 33.582031 34.699219 33.652344 34.652344 33.71875 34.609375 C 33.761719 34.609375 33.804688 34.609375 33.851562 34.609375 C 33.90625 36.0625 33.960938 37.515625 34.015625 38.96875 C 34.023438 39.140625 34.027344 39.3125 34.035156 39.484375 C 34.039062 39.539062 34.039062 39.539062 34.039062 39.589844 C 34.058594 40.144531 34.082031 40.695312 34.101562 41.25 C 34.125 41.816406 34.144531 42.386719 34.167969 42.953125 C 34.179688 43.304688 34.195312 43.652344 34.207031 44.003906 C 34.21875 44.273438 34.226562 44.542969 34.238281 44.8125 C 34.242188 44.921875 34.246094 45.03125 34.25 45.140625 C 34.273438 45.746094 34.289062 46.351562 34.285156 46.957031 C 34.234375 46.914062 34.1875 46.875 34.136719 46.832031 C 34.097656 46.796875 34.097656 46.796875 34.054688 46.761719 C 33.960938 46.679688 33.878906 46.589844 33.796875 46.496094 C 33.648438 46.328125 33.5 46.164062 33.351562 46 C 33.109375 45.734375 32.867188 45.46875 32.628906 45.199219 C 32.449219 45 32.269531 44.800781 32.085938 44.601562 C 31.957031 44.460938 31.828125 44.320312 31.703125 44.175781 C 31.546875 43.996094 31.382812 43.820312 31.21875 43.640625 C 31.078125 43.492188 30.941406 43.335938 30.808594 43.179688 C 30.695312 43.054688 30.582031 42.929688 30.464844 42.804688 C 30.300781 42.628906 30.140625 42.449219 29.984375 42.269531 C 29.871094 42.140625 29.753906 42.015625 29.640625 41.890625 C 29.476562 41.714844 29.316406 41.535156 29.160156 41.355469 C 29.046875 41.226562 28.929688 41.101562 28.816406 40.976562 C 28.652344 40.800781 28.492188 40.625 28.335938 40.441406 C 28.222656 40.3125 28.105469 40.191406 27.992188 40.066406 C 27.828125 39.886719 27.664062 39.707031 27.503906 39.523438 C 27.335938 39.332031 27.164062 39.144531 26.992188 38.957031 C 26.957031 38.976562 26.921875 38.996094 26.886719 39.015625 C 26.75 39.09375 26.613281 39.171875 26.480469 39.25 C 26.417969 39.285156 26.355469 39.320312 26.292969 39.355469 C 25.253906 39.953125 24.277344 40.34375 23.089844 40.542969 C 22.984375 40.5625 22.878906 40.578125 22.777344 40.597656 C 21.441406 40.808594 20.148438 40.566406 18.851562 40.253906 C 18.722656 40.222656 18.589844 40.191406 18.460938 40.160156 C 18.425781 40.152344 18.390625 40.144531 18.355469 40.136719 C 18.265625 40.117188 18.179688 40.097656 18.089844 40.078125 C 17.964844 40.042969 17.964844 40.042969 17.878906 39.957031 C 17.957031 39.949219 17.957031 39.949219 18.035156 39.941406 C 20.707031 39.664062 23.144531 39.011719 25.378906 37.453125 C 25.472656 37.390625 25.472656 37.390625 25.5625 37.390625 C 25.355469 37.128906 25.144531 36.878906 24.90625 36.648438 C 24.800781 36.542969 24.703125 36.429688 24.605469 36.316406 C 24.5 36.195312 24.394531 36.078125 24.285156 35.960938 C 24.042969 35.695312 23.800781 35.425781 23.558594 35.15625 C 23.378906 34.957031 23.199219 34.757812 23.015625 34.558594 C 22.886719 34.417969 22.757812 34.277344 22.632812 34.132812 C 22.476562 33.953125 22.3125 33.777344 22.148438 33.597656 C 22.035156 33.472656 21.917969 33.347656 21.808594 33.21875 C 21.652344 33.039062 21.492188 32.867188 21.332031 32.691406 C 21.132812 32.476562 20.9375 32.261719 20.742188 32.042969 C 20.535156 31.808594 20.324219 31.574219 20.109375 31.34375 C 19.980469 31.203125 19.851562 31.058594 19.726562 30.914062 C 19.570312 30.734375 19.40625 30.558594 19.242188 30.382812 C 19.101562 30.230469 18.964844 30.078125 18.832031 29.917969 C 18.71875 29.792969 18.601562 29.667969 18.488281 29.542969 C 18.324219 29.367188 18.164062 29.1875 18.003906 29.007812 C 17.894531 28.878906 17.777344 28.753906 17.664062 28.628906 C 17.5 28.453125 17.339844 28.277344 17.179688 28.09375 C 17.070312 27.964844 16.953125 27.84375 16.839844 27.71875 C 16.675781 27.539062 16.515625 27.363281 16.355469 27.179688 C 16.246094 27.054688 16.128906 26.929688 16.011719 26.804688 C 15.851562 26.628906 15.6875 26.449219 15.53125 26.269531 C 15.417969 26.140625 15.304688 26.015625 15.1875 25.890625 C 15.027344 25.714844 14.863281 25.535156 14.707031 25.355469 C 14.59375 25.226562 14.480469 25.101562 14.363281 24.976562 C 14.199219 24.800781 14.039062 24.625 13.882812 24.441406 C 13.769531 24.3125 13.65625 24.191406 13.539062 24.066406 C 13.375 23.890625 13.214844 23.710938 13.058594 23.527344 C 12.945312 23.402344 12.832031 23.277344 12.714844 23.152344 C 12.550781 22.976562 12.390625 22.796875 12.234375 22.617188 C 12.121094 22.488281 12.007812 22.363281 11.890625 22.238281 C 11.726562 22.0625 11.566406 21.882812 11.410156 21.703125 C 11.296875 21.574219 11.183594 21.449219 11.066406 21.324219 C 10.902344 21.148438 10.742188 20.972656 10.585938 20.789062 C 10.472656 20.660156 10.355469 20.539062 10.242188 20.414062 C 10.050781 20.207031 9.859375 19.996094 9.675781 19.78125 C 9.644531 19.746094 9.613281 19.710938 9.582031 19.671875 C 9.546875 19.632812 9.515625 19.597656 9.480469 19.558594 C 9.453125 19.523438 9.421875 19.488281 9.390625 19.453125 C 9.332031 19.347656 9.332031 19.347656 9.339844 19.230469 C 9.394531 19.066406 9.398438 19.089844 9.582031 19.078125 Z M 9.582031 19.078125 " style=" stroke:none;fill-rule:nonzero;fill:rgb(0%,41.176471%,21.568628%);fill-opacity:1;"/><path d="M 60.582031 19.085938 C 60.625 19.128906 60.625 19.128906 60.648438 19.265625 C 60.617188 19.5 60.507812 19.597656 60.339844 19.757812 C 60.285156 19.816406 60.230469 19.875 60.171875 19.929688 C 60.144531 19.957031 60.117188 19.984375 60.089844 20.011719 C 60.007812 20.097656 59.933594 20.179688 59.859375 20.269531 C 59.734375 20.410156 59.609375 20.550781 59.480469 20.691406 C 59.269531 20.921875 59.058594 21.15625 58.847656 21.390625 C 58.636719 21.625 58.425781 21.859375 58.210938 22.09375 C 58.082031 22.234375 57.953125 22.375 57.828125 22.519531 C 57.671875 22.699219 57.507812 22.875 57.34375 23.054688 C 57.230469 23.179688 57.113281 23.304688 57.003906 23.433594 C 56.847656 23.617188 56.683594 23.789062 56.519531 23.964844 C 56.40625 24.09375 56.289062 24.21875 56.179688 24.347656 C 56.023438 24.527344 55.859375 24.703125 55.695312 24.878906 C 55.582031 25.003906 55.464844 25.132812 55.351562 25.261719 C 55.195312 25.441406 55.035156 25.617188 54.871094 25.792969 C 54.753906 25.917969 54.640625 26.042969 54.527344 26.175781 C 54.371094 26.355469 54.210938 26.53125 54.046875 26.707031 C 53.929688 26.832031 53.816406 26.957031 53.703125 27.085938 C 53.546875 27.269531 53.386719 27.441406 53.222656 27.617188 C 53.105469 27.742188 52.992188 27.871094 52.878906 28 C 52.722656 28.179688 52.5625 28.355469 52.398438 28.53125 C 52.28125 28.65625 52.167969 28.785156 52.054688 28.914062 C 51.898438 29.09375 51.734375 29.269531 51.574219 29.445312 C 51.457031 29.570312 51.34375 29.695312 51.230469 29.824219 C 51.074219 30.007812 50.910156 30.183594 50.75 30.359375 C 50.632812 30.484375 50.519531 30.609375 50.40625 30.738281 C 50.25 30.917969 50.089844 31.089844 49.929688 31.265625 C 49.734375 31.480469 49.539062 31.695312 49.34375 31.914062 C 49.132812 32.148438 48.921875 32.382812 48.707031 32.613281 C 48.578125 32.753906 48.449219 32.894531 48.324219 33.039062 C 48.167969 33.222656 48.003906 33.398438 47.839844 33.574219 C 47.726562 33.699219 47.609375 33.828125 47.5 33.957031 C 47.34375 34.136719 47.179688 34.3125 47.015625 34.488281 C 46.902344 34.613281 46.785156 34.738281 46.675781 34.871094 C 46.519531 35.050781 46.355469 35.226562 46.191406 35.402344 C 46.074219 35.527344 45.960938 35.652344 45.847656 35.78125 C 45.714844 35.9375 45.578125 36.089844 45.4375 36.238281 C 45.269531 36.417969 45.105469 36.597656 44.949219 36.785156 C 44.820312 36.929688 44.691406 37.070312 44.5625 37.214844 C 44.480469 37.296875 44.480469 37.296875 44.4375 37.390625 C 44.46875 37.402344 44.5 37.414062 44.53125 37.425781 C 44.671875 37.484375 44.785156 37.5625 44.914062 37.648438 C 47.132812 39.105469 49.511719 39.707031 52.121094 39.957031 C 51.988281 40.085938 51.824219 40.101562 51.652344 40.140625 C 51.613281 40.152344 51.574219 40.160156 51.535156 40.171875 C 51.449219 40.191406 51.367188 40.210938 51.285156 40.230469 C 51.164062 40.257812 51.039062 40.285156 50.914062 40.316406 C 50.097656 40.511719 49.3125 40.664062 48.46875 40.664062 C 48.4375 40.664062 48.410156 40.664062 48.375 40.664062 C 47.824219 40.664062 47.285156 40.621094 46.738281 40.523438 C 46.695312 40.515625 46.65625 40.507812 46.613281 40.5 C 45.421875 40.273438 44.382812 39.8125 43.363281 39.15625 C 43.332031 39.132812 43.296875 39.113281 43.265625 39.089844 C 43.21875 39.0625 43.21875 39.0625 43.175781 39.035156 C 43.09375 38.992188 43.09375 38.992188 43.003906 39.007812 C 42.902344 39.050781 42.847656 39.105469 42.769531 39.1875 C 42.742188 39.21875 42.714844 39.246094 42.6875 39.277344 C 42.660156 39.308594 42.632812 39.339844 42.601562 39.371094 C 42.5625 39.417969 42.5625 39.417969 42.519531 39.464844 C 42.355469 39.640625 42.195312 39.824219 42.035156 40.007812 C 41.9375 40.121094 41.835938 40.230469 41.730469 40.34375 C 41.519531 40.574219 41.308594 40.808594 41.097656 41.042969 C 40.886719 41.277344 40.675781 41.511719 40.460938 41.746094 C 40.332031 41.886719 40.207031 42.027344 40.082031 42.171875 C 39.921875 42.351562 39.757812 42.527344 39.597656 42.707031 C 39.480469 42.832031 39.363281 42.957031 39.253906 43.085938 C 39.097656 43.269531 38.933594 43.441406 38.769531 43.617188 C 38.65625 43.742188 38.539062 43.871094 38.429688 44 C 38.273438 44.179688 38.109375 44.355469 37.945312 44.53125 C 37.832031 44.65625 37.714844 44.785156 37.605469 44.914062 C 37.449219 45.09375 37.289062 45.265625 37.128906 45.4375 C 36.929688 45.652344 36.734375 45.871094 36.539062 46.085938 C 36.445312 46.195312 36.347656 46.304688 36.25 46.410156 C 36.179688 46.488281 36.109375 46.566406 36.039062 46.644531 C 36.003906 46.683594 35.96875 46.726562 35.933594 46.765625 C 35.902344 46.800781 35.867188 46.839844 35.835938 46.875 C 35.808594 46.902344 35.785156 46.929688 35.757812 46.957031 C 35.746094 46.957031 35.730469 46.957031 35.714844 46.957031 C 35.710938 46.285156 35.726562 45.617188 35.75 44.945312 C 35.753906 44.84375 35.757812 44.742188 35.761719 44.636719 C 35.773438 44.363281 35.78125 44.089844 35.792969 43.816406 C 35.804688 43.558594 35.8125 43.300781 35.824219 43.039062 C 35.84375 42.527344 35.859375 42.015625 35.878906 41.5 C 35.898438 41.003906 35.917969 40.511719 35.9375 40.015625 C 35.9375 39.984375 35.9375 39.953125 35.941406 39.921875 C 35.945312 39.800781 35.949219 39.675781 35.953125 39.554688 C 35.972656 39.050781 35.992188 38.546875 36.011719 38.039062 C 36.015625 37.871094 36.023438 37.699219 36.03125 37.53125 C 36.039062 37.261719 36.050781 36.992188 36.058594 36.722656 C 36.0625 36.625 36.066406 36.527344 36.070312 36.429688 C 36.09375 35.820312 36.121094 35.214844 36.148438 34.609375 C 36.308594 34.644531 36.425781 34.707031 36.566406 34.789062 C 36.613281 34.816406 36.660156 34.84375 36.710938 34.875 C 36.761719 34.90625 36.8125 34.9375 36.863281 34.96875 C 36.917969 35 36.96875 35.03125 37.023438 35.0625 C 37.488281 35.339844 37.949219 35.625 38.40625 35.914062 C 38.492188 35.964844 38.574219 36.019531 38.65625 36.070312 C 38.878906 36.207031 39.097656 36.34375 39.316406 36.480469 C 39.449219 36.566406 39.582031 36.648438 39.714844 36.734375 C 40.453125 37.195312 41.1875 37.660156 41.921875 38.125 C 42.265625 38.347656 42.613281 38.566406 42.964844 38.78125 C 43.136719 38.636719 43.300781 38.492188 43.453125 38.320312 C 43.5625 38.195312 43.671875 38.070312 43.785156 37.949219 C 43.804688 37.925781 43.828125 37.90625 43.847656 37.882812 C 43.890625 37.835938 43.933594 37.792969 43.972656 37.746094 C 44.089844 37.621094 44.179688 37.496094 44.265625 37.347656 C 44.238281 37.332031 44.214844 37.320312 44.1875 37.304688 C 43.644531 37.015625 43.105469 36.71875 42.574219 36.40625 C 42.265625 36.222656 41.957031 36.046875 41.640625 35.871094 C 41.191406 35.621094 40.746094 35.359375 40.304688 35.089844 C 39.941406 34.867188 39.570312 34.652344 39.203125 34.433594 C 39.121094 34.382812 39.035156 34.332031 38.953125 34.28125 C 38.925781 34.265625 38.898438 34.25 38.871094 34.234375 C 38.648438 34.101562 38.425781 33.96875 38.203125 33.835938 C 38.042969 33.738281 37.882812 33.640625 37.722656 33.546875 C 37.683594 33.527344 37.648438 33.503906 37.609375 33.480469 C 37.535156 33.4375 37.460938 33.394531 37.386719 33.351562 C 37.347656 33.332031 37.3125 33.308594 37.277344 33.285156 C 37.242188 33.269531 37.210938 33.25 37.179688 33.230469 C 37.105469 33.175781 37.105469 33.175781 37.0625 33.042969 C 37.75 32.65625 38.441406 32.273438 39.140625 31.898438 C 39.28125 31.824219 39.421875 31.746094 39.5625 31.667969 C 40.777344 31.011719 42.003906 30.410156 43.269531 29.863281 C 43.347656 29.828125 43.421875 29.796875 43.496094 29.761719 C 46.398438 28.496094 49.28125 27.957031 52.425781 27.738281 C 52.253906 27.71875 52.085938 27.699219 51.914062 27.675781 C 51.867188 27.671875 51.820312 27.664062 51.769531 27.660156 C 51.722656 27.652344 51.675781 27.648438 51.628906 27.640625 C 51.585938 27.636719 51.542969 27.632812 51.496094 27.625 C 51.105469 27.582031 50.714844 27.558594 50.320312 27.554688 C 50.273438 27.554688 50.226562 27.554688 50.179688 27.554688 C 48.644531 27.542969 47.195312 27.636719 45.699219 28 C 45.667969 28.007812 45.640625 28.011719 45.613281 28.019531 C 42.746094 28.714844 40.0625 29.925781 37.40625 31.183594 C 37.378906 31.199219 37.351562 31.210938 37.320312 31.222656 C 37.203125 31.28125 37.082031 31.339844 36.960938 31.394531 C 36.859375 31.445312 36.753906 31.492188 36.652344 31.542969 C 36.605469 31.566406 36.605469 31.566406 36.554688 31.589844 C 36.328125 31.695312 36.328125 31.695312 36.28125 31.695312 C 36.269531 30.921875 36.304688 30.148438 36.332031 29.371094 C 36.339844 29.179688 36.347656 28.984375 36.355469 28.789062 C 36.367188 28.425781 36.382812 28.058594 36.394531 27.691406 C 36.410156 27.273438 36.429688 26.859375 36.445312 26.441406 C 36.476562 25.582031 36.507812 24.726562 36.539062 23.871094 C 36.734375 23.800781 36.921875 23.753906 37.121094 23.714844 C 37.152344 23.707031 37.183594 23.703125 37.21875 23.695312 C 37.320312 23.675781 37.425781 23.652344 37.53125 23.632812 C 37.609375 23.617188 37.683594 23.601562 37.757812 23.585938 C 37.921875 23.554688 38.085938 23.519531 38.25 23.488281 C 38.515625 23.4375 38.78125 23.382812 39.046875 23.328125 C 39.46875 23.246094 39.894531 23.160156 40.320312 23.074219 C 41.152344 22.910156 41.988281 22.742188 42.820312 22.578125 C 42.960938 22.546875 43.101562 22.519531 43.242188 22.492188 C 44.6875 22.203125 46.132812 21.914062 47.574219 21.621094 C 47.671875 21.601562 47.769531 21.582031 47.867188 21.558594 C 47.917969 21.550781 47.964844 21.539062 48.015625 21.53125 C 48.265625 21.480469 48.511719 21.429688 48.761719 21.378906 C 48.8125 21.371094 48.859375 21.359375 48.910156 21.347656 C 50.726562 20.980469 52.539062 20.617188 54.351562 20.253906 C 54.953125 20.132812 55.550781 20.011719 56.152344 19.890625 C 56.636719 19.792969 57.121094 19.695312 57.605469 19.597656 C 57.871094 19.542969 58.140625 19.492188 58.40625 19.4375 C 58.652344 19.386719 58.902344 19.335938 59.148438 19.285156 C 59.238281 19.269531 59.328125 19.25 59.421875 19.230469 C 59.542969 19.207031 59.667969 19.183594 59.789062 19.15625 C 59.84375 19.148438 59.84375 19.148438 59.898438 19.136719 C 60.128906 19.089844 60.347656 19.078125 60.582031 19.085938 Z M 60.582031 19.085938 " style=" stroke:none;fill-rule:nonzero;fill:rgb(0%,41.176471%,21.568628%);fill-opacity:1;"/><path d="M 34.976562 9.347656 C 35.132812 9.492188 35.207031 9.660156 35.296875 9.851562 C 35.316406 9.886719 35.332031 9.921875 35.351562 9.960938 C 35.519531 10.324219 35.625 10.699219 35.714844 11.085938 C 35.734375 11.070312 35.753906 11.054688 35.773438 11.039062 C 36.371094 10.558594 37.011719 10.4375 37.753906 10.476562 C 37.890625 10.5 38.015625 10.527344 38.144531 10.566406 C 38.007812 10.679688 37.867188 10.78125 37.71875 10.882812 C 37.460938 11.0625 37.242188 11.238281 37.105469 11.523438 C 37.15625 11.515625 37.210938 11.507812 37.265625 11.5 C 39.09375 11.285156 40.949219 11.65625 42.414062 12.8125 C 43.050781 13.324219 43.597656 13.871094 44.089844 14.523438 C 44.125 14.5625 44.160156 14.601562 44.195312 14.640625 C 44.230469 14.6875 44.230469 14.6875 44.265625 14.738281 C 44.25 14.78125 44.238281 14.824219 44.222656 14.871094 C 44.167969 14.832031 44.167969 14.832031 44.117188 14.792969 C 42.675781 13.777344 40.949219 13.222656 39.195312 13.191406 C 39.125 13.1875 39.050781 13.1875 38.976562 13.183594 C 38.800781 13.179688 38.625 13.175781 38.449219 13.175781 C 38.449219 13.203125 38.449219 13.230469 38.449219 13.261719 C 38.5 13.265625 38.546875 13.269531 38.597656 13.273438 C 38.808594 13.300781 39 13.363281 39.203125 13.433594 C 39.238281 13.449219 39.277344 13.460938 39.316406 13.476562 C 39.949219 13.707031 40.542969 14 41.097656 14.390625 C 41.164062 14.4375 41.164062 14.4375 41.234375 14.484375 C 41.875 14.953125 42.460938 15.539062 42.875 16.21875 C 42.894531 16.246094 42.914062 16.273438 42.929688 16.304688 C 43.449219 17.15625 43.957031 18.292969 43.960938 19.304688 C 43.78125 19.128906 43.609375 18.945312 43.4375 18.761719 C 43.410156 18.730469 43.382812 18.699219 43.351562 18.667969 C 43.21875 18.523438 43.082031 18.378906 42.949219 18.234375 C 42.726562 17.988281 42.503906 17.753906 42.253906 17.535156 C 42.167969 17.460938 42.089844 17.386719 42.007812 17.3125 C 41.675781 16.996094 41.332031 16.710938 40.96875 16.433594 C 40.945312 16.417969 40.917969 16.398438 40.894531 16.378906 C 40.578125 16.140625 40.246094 15.925781 39.90625 15.71875 C 39.851562 15.6875 39.851562 15.6875 39.796875 15.652344 C 39.597656 15.535156 39.402344 15.433594 39.1875 15.347656 C 39.214844 15.378906 39.242188 15.410156 39.265625 15.445312 C 40.277344 16.691406 40.886719 18.371094 40.886719 19.96875 C 40.886719 20.066406 40.890625 20.164062 40.890625 20.261719 C 40.890625 20.671875 40.859375 21.070312 40.792969 21.476562 C 40.765625 21.476562 40.734375 21.476562 40.707031 21.476562 C 40.691406 21.425781 40.679688 21.375 40.664062 21.320312 C 40.351562 20.214844 39.871094 19.097656 39.1875 18.175781 C 39.164062 18.140625 39.164062 18.140625 39.136719 18.105469 C 38.921875 17.8125 38.695312 17.535156 38.449219 17.269531 C 38.375 17.1875 38.300781 17.101562 38.230469 17.011719 C 38.027344 16.777344 37.78125 16.585938 37.539062 16.390625 C 37.546875 16.449219 37.546875 16.449219 37.558594 16.511719 C 37.582031 16.660156 37.605469 16.808594 37.628906 16.960938 C 37.640625 17.023438 37.648438 17.089844 37.660156 17.152344 C 37.761719 17.800781 37.808594 18.429688 37.808594 19.085938 C 37.808594 19.121094 37.808594 19.160156 37.808594 19.199219 C 37.808594 21.949219 37.808594 21.949219 37.363281 22.390625 C 37.351562 22.339844 37.339844 22.289062 37.324219 22.234375 C 36.644531 18.960938 36.644531 18.960938 34.976562 16.175781 C 33.660156 17.941406 33.171875 20.292969 32.636719 22.390625 C 32.605469 22.378906 32.578125 22.363281 32.546875 22.347656 C 32.519531 22.261719 32.519531 22.261719 32.496094 22.148438 C 32.484375 22.085938 32.484375 22.085938 32.46875 22.019531 C 32.105469 20.148438 32.039062 18.207031 32.503906 16.347656 C 32.386719 16.449219 32.273438 16.550781 32.15625 16.652344 C 32.117188 16.6875 32.078125 16.722656 32.039062 16.757812 C 31.800781 16.972656 31.578125 17.1875 31.375 17.433594 C 31.339844 17.480469 31.300781 17.523438 31.261719 17.570312 C 30.414062 18.582031 29.839844 19.773438 29.417969 21.015625 C 29.367188 21.171875 29.308594 21.324219 29.25 21.476562 C 29.234375 21.476562 29.222656 21.476562 29.207031 21.476562 C 29.125 21.015625 29.105469 20.566406 29.105469 20.097656 C 29.105469 20.046875 29.105469 20.046875 29.105469 19.992188 C 29.109375 19.492188 29.113281 19.007812 29.25 18.523438 C 29.261719 18.480469 29.273438 18.4375 29.285156 18.394531 C 29.554688 17.46875 29.917969 16.511719 30.507812 15.738281 C 30.539062 15.699219 30.566406 15.660156 30.597656 15.621094 C 30.667969 15.53125 30.738281 15.4375 30.8125 15.347656 C 29.71875 15.863281 28.785156 16.582031 27.902344 17.402344 C 27.820312 17.480469 27.734375 17.554688 27.652344 17.632812 C 27.132812 18.09375 26.660156 18.605469 26.21875 19.140625 C 26.175781 19.195312 26.128906 19.25 26.082031 19.304688 C 26.066406 19.304688 26.054688 19.304688 26.039062 19.304688 C 26.042969 18.09375 26.714844 16.65625 27.46875 15.738281 C 27.5 15.703125 27.5 15.703125 27.53125 15.664062 C 28.511719 14.464844 29.875 13.640625 31.375 13.261719 C 31.433594 13.261719 31.492188 13.261719 31.550781 13.261719 C 31.550781 13.230469 31.550781 13.203125 31.550781 13.175781 C 30.367188 13.183594 29.292969 13.269531 28.164062 13.652344 C 28.132812 13.664062 28.101562 13.671875 28.070312 13.683594 C 27.246094 13.964844 26.464844 14.394531 25.734375 14.871094 C 25.757812 14.691406 25.859375 14.570312 25.96875 14.433594 C 25.988281 14.410156 26.007812 14.386719 26.027344 14.359375 C 26.234375 14.097656 26.457031 13.851562 26.6875 13.609375 C 26.722656 13.570312 26.757812 13.535156 26.792969 13.496094 C 28.097656 12.144531 29.855469 11.46875 31.714844 11.433594 C 32.113281 11.429688 32.503906 11.472656 32.894531 11.523438 C 32.601562 11.117188 32.292969 10.855469 31.855469 10.609375 C 32.03125 10.433594 32.335938 10.46875 32.574219 10.46875 C 33.226562 10.46875 33.78125 10.664062 34.285156 11.085938 C 34.292969 11.042969 34.304688 10.996094 34.316406 10.949219 C 34.625 9.703125 34.625 9.703125 34.976562 9.347656 Z M 34.976562 9.347656 " style=" stroke:none;fill-rule:nonzero;fill:rgb(0%,41.176471%,21.568628%);fill-opacity:1;"/><path d="M 16.640625 50.90625 C 16.972656 50.925781 17.308594 50.9375 17.644531 50.945312 C 18.332031 50.96875 19.015625 51 19.703125 51.042969 C 19.703125 51.6875 19.703125 52.335938 19.703125 53 C 17.8125 53 15.921875 53 13.972656 53 C 13.972656 53.617188 13.972656 54.234375 13.972656 54.871094 C 15.863281 54.871094 17.753906 54.871094 19.703125 54.871094 C 19.742188 55.46875 19.78125 56.070312 19.820312 56.6875 C 19.835938 56.871094 19.851562 57.058594 19.871094 57.25 C 19.921875 58.214844 19.714844 58.933594 19.066406 59.671875 C 18.359375 60.421875 17.691406 60.75 16.667969 60.785156 C 16.148438 60.800781 15.632812 60.777344 15.113281 60.742188 C 14.773438 60.722656 14.4375 60.710938 14.097656 60.703125 C 13.40625 60.683594 12.714844 60.648438 12.019531 60.609375 C 12.019531 59.976562 12.019531 59.347656 12.019531 58.695312 C 13.910156 58.695312 15.800781 58.695312 17.75 58.695312 C 17.75 58.078125 17.75 57.460938 17.75 56.824219 C 15.859375 56.824219 13.96875 56.824219 12.019531 56.824219 C 11.980469 56.226562 11.941406 55.628906 11.902344 55.011719 C 11.882812 54.828125 11.867188 54.640625 11.847656 54.453125 C 11.796875 53.511719 11.988281 52.792969 12.617188 52.070312 C 13.753906 50.808594 15.035156 50.800781 16.640625 50.90625 Z M 16.640625 50.90625 " style=" stroke:none;fill-rule:nonzero;fill:rgb(0%,41.176471%,21.568628%);fill-opacity:1;"/><path d="M 44.136719 49.128906 C 44.78125 49.128906 45.425781 49.128906 46.089844 49.128906 C 46.089844 52.917969 46.089844 56.707031 46.089844 60.609375 C 45.445312 60.609375 44.800781 60.609375 44.136719 60.609375 C 44.121094 60.019531 44.105469 59.433594 44.089844 58.824219 C 44.007812 58.953125 43.925781 59.082031 43.839844 59.214844 C 43.402344 59.824219 42.863281 60.507812 42.089844 60.660156 C 41.480469 60.753906 40.863281 60.742188 40.25 60.71875 C 40.203125 60.71875 40.15625 60.71875 40.113281 60.714844 C 39.542969 60.695312 38.972656 60.660156 38.40625 60.609375 C 38.363281 59.894531 38.328125 59.179688 38.308594 58.464844 C 38.296875 58.128906 38.285156 57.796875 38.261719 57.464844 C 38.105469 55.035156 38.105469 55.035156 38.9375 54.054688 C 39.511719 53.402344 40.199219 52.867188 41.089844 52.78125 C 41.511719 52.757812 41.921875 52.796875 42.34375 52.835938 C 42.9375 52.875 43.527344 52.914062 44.136719 52.957031 C 44.136719 51.695312 44.136719 50.429688 44.136719 49.128906 Z M 40.359375 54.914062 C 40.359375 56.160156 40.359375 57.410156 40.359375 58.695312 C 41.605469 58.695312 42.851562 58.695312 44.136719 58.695312 C 44.136719 57.449219 44.136719 56.199219 44.136719 54.914062 C 42.890625 54.914062 41.644531 54.914062 40.359375 54.914062 Z M 40.359375 54.914062 " style=" stroke:none;fill-rule:nonzero;fill:rgb(0%,41.176471%,21.568628%);fill-opacity:1;"/><path d="M 55.191406 52.835938 C 56.550781 52.894531 56.550781 52.894531 57.933594 52.957031 C 57.933594 55.480469 57.933594 58.007812 57.933594 60.609375 C 57.304688 60.609375 56.675781 60.609375 56.027344 60.609375 C 56.011719 60.019531 55.996094 59.433594 55.984375 58.824219 C 55.898438 58.953125 55.816406 59.082031 55.730469 59.214844 C 55.292969 59.824219 54.753906 60.507812 53.980469 60.660156 C 53.371094 60.753906 52.753906 60.742188 52.140625 60.71875 C 52.09375 60.71875 52.050781 60.71875 52.003906 60.714844 C 51.433594 60.695312 50.863281 60.660156 50.296875 60.609375 C 50.253906 59.894531 50.21875 59.179688 50.199219 58.464844 C 50.1875 58.128906 50.175781 57.796875 50.152344 57.464844 C 50.074219 56.222656 50.007812 55.007812 50.835938 53.988281 C 52.074219 52.605469 53.46875 52.730469 55.191406 52.835938 Z M 52.25 54.914062 C 52.25 56.160156 52.25 57.410156 52.25 58.695312 C 53.496094 58.695312 54.742188 58.695312 56.027344 58.695312 C 56.027344 57.449219 56.027344 56.199219 56.027344 54.914062 C 54.78125 54.914062 53.535156 54.914062 52.25 54.914062 Z M 52.25 54.914062 " style=" stroke:none;fill-rule:nonzero;fill:rgb(0%,41.176471%,21.568628%);fill-opacity:1;"/><path d="M 25.722656 52.835938 C 27.082031 52.894531 27.082031 52.894531 28.46875 52.957031 C 28.46875 55.480469 28.46875 58.007812 28.46875 60.609375 C 27.839844 60.609375 27.207031 60.609375 26.558594 60.609375 C 26.542969 60.019531 26.53125 59.433594 26.515625 58.824219 C 26.433594 58.953125 26.347656 59.082031 26.265625 59.214844 C 25.824219 59.824219 25.289062 60.507812 24.511719 60.660156 C 23.90625 60.753906 23.285156 60.742188 22.671875 60.71875 C 22.628906 60.71875 22.582031 60.71875 22.535156 60.714844 C 21.964844 60.695312 21.398438 60.660156 20.832031 60.609375 C 20.785156 59.894531 20.753906 59.179688 20.730469 58.464844 C 20.722656 58.128906 20.707031 57.796875 20.6875 57.464844 C 20.605469 56.222656 20.542969 55.007812 21.371094 53.988281 C 22.605469 52.605469 24.003906 52.730469 25.722656 52.835938 Z M 22.785156 54.914062 C 22.785156 56.160156 22.785156 57.410156 22.785156 58.695312 C 24.03125 58.695312 25.277344 58.695312 26.558594 58.695312 C 26.558594 57.449219 26.558594 56.199219 26.558594 54.914062 C 25.3125 54.914062 24.066406 54.914062 22.785156 54.914062 Z M 22.785156 54.914062 " style=" stroke:none;fill-rule:nonzero;fill:rgb(0%,41.176471%,21.568628%);fill-opacity:1;"/><path d="M 29.640625 52.957031 C 30.285156 52.957031 30.929688 52.957031 31.59375 52.957031 C 31.59375 54.851562 31.59375 56.746094 31.59375 58.695312 C 32.824219 58.695312 34.054688 58.695312 35.324219 58.695312 C 35.324219 56.800781 35.324219 54.90625 35.324219 52.957031 C 35.96875 52.957031 36.613281 52.957031 37.277344 52.957031 C 37.320312 53.679688 37.355469 54.398438 37.375 55.121094 C 37.382812 55.457031 37.398438 55.792969 37.417969 56.128906 C 37.496094 57.355469 37.570312 58.59375 36.753906 59.609375 C 36.082031 60.363281 35.335938 60.722656 34.34375 60.78125 C 33.695312 60.808594 33.054688 60.765625 32.410156 60.726562 C 31.496094 60.6875 30.582031 60.648438 29.640625 60.609375 C 29.640625 58.082031 29.640625 55.558594 29.640625 52.957031 Z M 29.640625 52.957031 " style=" stroke:none;fill-rule:nonzero;fill:rgb(0%,41.176471%,21.568628%);fill-opacity:1;"/><path d="M 47.214844 52.957031 C 47.859375 52.957031 48.503906 52.957031 49.167969 52.957031 C 49.167969 55.480469 49.167969 58.007812 49.167969 60.609375 C 48.523438 60.609375 47.878906 60.609375 47.214844 60.609375 C 47.214844 58.082031 47.214844 55.558594 47.214844 52.957031 Z M 47.214844 52.957031 " style=" stroke:none;fill-rule:nonzero;fill:rgb(0%,41.176471%,21.568628%);fill-opacity:1;"/><path d="M 47.214844 49.128906 C 47.859375 49.128906 48.503906 49.128906 49.167969 49.128906 C 49.167969 49.777344 49.167969 50.421875 49.167969 51.085938 C 48.523438 51.085938 47.878906 51.085938 47.214844 51.085938 C 47.214844 50.441406 47.214844 49.796875 47.214844 49.128906 Z M 47.214844 49.128906 " style=" stroke:none;fill-rule:nonzero;fill:rgb(0%,41.176471%,21.568628%);fill-opacity:1;"/></g></svg>