<svg xmlns="http://www.w3.org/2000/svg" id="Layer_1" width="70" height="70" x="0" y="0" enable-background="new 0 0 70 70" version="1.1" viewBox="0 0 70 70" xml:space="preserve"><metadata/><rect width="70" height="70" fill="none"/><circle cx="25.7" cy="31.9" r="24.6" fill="#094B7E"/><circle cx="25.7" cy="31.9" r="23.5" fill="#FBED26"/><path fill="#094B7E" d="M46.6,40.2c-2.3,1.5-4.6,3.2-7.3,3.8c-2.5,0.5-5.1,0.5-7.7,0.6c-2.9,0.101-5.8,0.5-8.6,1.2 c-1.8,0.4-3.6,1-5.5,1.5c-1,0.2-2.1,0.3-3-0.3c-0.3-0.2-0.5-0.7-0.1-1c0.6-0.4,1.3-0.6,2-0.7c2.2-0.399,4.4-0.8,6.6-1.2 c2.1-0.399,4.1-0.8,6.2-1.199c2.1-0.5,4.2-1.2,6-2.5c-4.1-1.2-8.1-2.7-12-4.7c-2.6-1.3-4.9-3.1-6.9-5.2s-3.5-4.7-4.8-7.3 c-1.2-2.3-2.3-4.7-3.1-7.3c3.5,2.2,6.8,4.5,10.5,6.4c2,1,4.2,1.8,6.4,2.3c-2.7-1.9-4.9-4.6-6.1-7.7c3.6,1.5,7.3,3.1,10.9,4.7 c0.3,0.1,0.4,0.4,0.5,0.6c1,2.1,2.4,4.1,4,5.8c2.7,2.9,5.8,5.5,9.1,7.7c1.1,0.8,2.5,1.2,3.8,0.899c0.5-0.199,1.1-0.3,1.1-0.3 c2.301-0.9,4.601-1.8,6.9-2.8c1.2-0.6,2.5-1.1,3.7-1.6c1.2-0.6,2.5-1.2,3.8-1.4c1.4-0.3,3-0.1,4.2,0.6c0.6,0.4,1.2,0.9,1.7,1.5 c-1,0-2-0.2-3.101-0.1c-1.399,0.1-2.8,0.2-4.2,0.6c-0.899,0.2-1.6,0.6-2.5,1c-1.8,0.8-3.5,1.7-5.3,2.5c-2,0.9-4.1,1.7-5.899,2.801 C47.3,39.7,46.6,40.2,46.6,40.2z"/></svg>