<svg xmlns="http://www.w3.org/2000/svg" id="Ebene_2" width="70" height="70" x="0" y="0" version="1.1" viewBox="0 0 70.9 70.9" xml:space="preserve" style="enable-background:new 0 0 70.9 70.9"><style type="text/css">.st3{fill-rule:evenodd;clip-rule:evenodd;fill:#bed73d}</style><path d="M37.6,66.3C32.2,66,27,63.6,23.3,59.2c-3.5-4.2-5.1-9.3-4.8-14.4c0-0.6,0.1-1.2,0.2-1.9 c7.9,7.5,22.4,11.3,32,17.1C37,53.8,31.1,56.8,19.1,45.8c8,17.9,22.6,10.5,32.5,16C47.6,65.1,42.5,66.6,37.6,66.3z M18.6,37.6 c-2.1-2-3.9-4.2-5.5-6.8c0,4.4,1.6,7.9,4.3,10.9c-0.2,1-0.4,2-0.4,3.1c-0.3,5.4,1.4,11,5.2,15.4c4,4.7,9.7,7.3,15.4,7.7h0 c5.4,0.3,11-1.4,15.4-5.2l0,0c0.5,0.4,1,0.7,1.4,1.2c1.2,1.1,2.9,2.9,4,4.2c-1.7-5-0.6-10-1.4-14.8c-1.3-7.4-15-19.3-20.3-23.7 C35.3,28.4,18,14.1,17.4,2.9c-5.8,9.7-0.2,17.8,8.3,25.6l1.1,1c7.6,6.7,17,13.3,22.9,20.5c2.4,3,4.3,6.8,5.6,11.4 C50.1,48.9,34.8,41.6,24,32l-1.1-1c-4.4-4.2-8-8.8-9.6-14.4c-2.4,7.3,0.9,13.1,6.6,18.4l1.2,1c9.7,8.4,25.1,15.4,32.2,24.5 c-9.3-9.9-23.5-13-33.5-21.8L18.6,37.6z" class="st3"/></svg>