<svg xmlns="http://www.w3.org/2000/svg" id="Layer_1" width="70" height="70" x="0" y="0" enable-background="new 0 0 70 70" version="1.1" viewBox="0 0 70 70" xml:space="preserve"><path fill="#F0B41D" fill-rule="evenodd" d="M7.712,50.978c0.18,0.049,0.362,0.095,0.543,0.148 c1.113,0.327,2.241,0.551,3.407,0.594c2.692,0.102,4.932-0.854,6.75-2.827c0.573-0.621,1.062-1.304,1.502-2.023 c0.063-0.104,0.132-0.207,0.204-0.305c0.034-0.047,0.097-0.053,0.142-0.025c0.133,0.082,0.265,0.17,0.392,0.263 c0.612,0.446,1.267,0.817,1.971,1.097c1.477,0.589,2.992,0.692,4.54,0.333c1.296-0.301,2.489-0.845,3.585-1.589 c1.609-1.092,2.6-2.624,3.103-4.483c0.188-0.695,0.274-1.407,0.353-2.123c0.152-1.414,0.215-2.83,0.194-4.251 c-0.017-1.105-0.079-2.207-0.315-3.29c-0.097-0.447-0.239-0.88-0.47-1.278c-0.4-0.689-0.997-1.055-1.798-1.102 c-0.711-0.041-1.394,0.098-2.073,0.285c-0.25,0.068-0.486,0.194-0.788,0.195c-0.074-0.599-0.075-1.19,0.01-1.778 c0.257-1.797,1.231-3.094,2.808-3.959c0.602-0.331,1.226-0.602,1.903-0.741c1.123-0.23,2.228-0.174,3.315,0.195 c0.652,0.222,1.267,0.517,1.832,0.909c0.858,0.594,1.497,1.364,1.878,2.343c0.387,0.999,0.495,2.033,0.424,3.086 c-0.15,0.067-0.252-0.02-0.361-0.062c-0.472-0.188-0.927-0.422-1.433-0.512c-0.911-0.159-1.747-0.025-2.452,0.621 c-0.383,0.352-0.63,0.793-0.794,1.283c-0.202,0.601-0.308,1.224-0.407,1.847c-0.184,1.16-0.262,2.33-0.226,3.508 c0.055,1.781,0.387,3.511,0.888,5.217c0.549,1.875,1.688,3.287,3.306,4.332c1.35,0.872,2.824,1.376,4.438,1.479 c2.03,0.131,3.843-0.411,5.44-1.675c0.055-0.043,0.111-0.084,0.169-0.125c0.013-0.01,0.031-0.012,0.07-0.022 c0.155,0.046,0.199,0.212,0.28,0.337c0.635,0.975,1.354,1.877,2.225,2.652c1.106,0.985,2.364,1.686,3.819,2.009 c1.091,0.242,2.191,0.245,3.294,0.105c0.943-0.118,1.854-0.374,2.747-0.693c0.062-0.022,0.129-0.038,0.173-0.052 c0.093,0.044,0.072,0.103,0.048,0.142c-0.662,1.079-1.483,1.996-2.626,2.589c-0.678,0.353-1.396,0.558-2.159,0.606 c-0.771,0.049-1.542,0.049-2.302-0.126c-1.239-0.284-2.262-0.925-3.09-1.881c-0.661-0.763-1.157-1.627-1.562-2.544 c-0.27-0.61-0.521-1.23-0.706-1.869c-0.085-0.286-0.257-0.438-0.511-0.551c-0.125-0.056-0.201-0.016-0.268,0.076 c-0.204,0.285-0.415,0.566-0.605,0.86c-0.646,0.99-1.504,1.754-2.518,2.346c-1.021,0.597-2.119,0.919-3.312,0.833 c-1.001-0.071-1.914-0.41-2.761-0.934c-1.332-0.822-2.318-1.967-3.088-3.312c-0.427-0.747-0.769-1.533-1.087-2.333 c-0.213-0.536-0.433-1.068-0.648-1.604c-0.208,0.073-0.221,0.252-0.284,0.389c-0.598,1.287-1.267,2.54-1.947,3.785 c-0.473,0.868-1.058,1.653-1.789,2.324c-0.925,0.849-1.979,1.437-3.237,1.63c-0.96,0.147-1.886,0.025-2.79-0.305 c-1.072-0.394-1.991-1.029-2.797-1.827c-0.548-0.542-1.069-1.111-1.604-1.667c-0.095-0.1-0.171-0.224-0.313-0.273 c-0.118,0.072-0.13,0.198-0.169,0.311c-0.205,0.597-0.4,1.196-0.618,1.788c-0.447,1.219-1.1,2.307-2.047,3.208 c-1.055,1.004-2.303,1.572-3.755,1.699c-1.198,0.105-2.339-0.084-3.408-0.646c-0.691-0.361-1.285-0.853-1.801-1.434 c-0.268-0.3-0.507-0.625-0.756-0.942C7.74,51.174,7.671,51.109,7.712,50.978z" clip-rule="evenodd"/><path fill="#F0B41D" fill-rule="evenodd" d="M55.376,64c-0.471-0.114-0.928-0.224-1.384-0.335 c-2.232-0.543-4.48-0.994-6.749-1.352c-1.471-0.231-2.946-0.426-4.428-0.575c-1.15-0.115-2.304-0.196-3.458-0.265 c-1.663-0.097-3.328-0.117-4.993-0.108c-0.912,0.005-1.824,0.009-2.734,0.058c-1.574,0.084-3.146,0.192-4.714,0.357 c-3.507,0.367-6.974,0.957-10.401,1.781c-0.562,0.135-1.123,0.272-1.685,0.407c-0.204,0.05-0.262,0.023-0.317-0.158 c-0.108-0.352-0.221-0.703-0.303-1.062c-0.18-0.784,0.039-1.164,0.814-1.369c0.694-0.185,1.396-0.339,2.098-0.492 c2.224-0.492,4.459-0.924,6.711-1.266c1.558-0.236,3.122-0.438,4.693-0.576c1.012-0.088,2.024-0.16,3.039-0.222 c1.945-0.118,3.89-0.109,5.835-0.038c1.118,0.041,2.236,0.131,3.352,0.243c1.972,0.198,3.928,0.5,5.883,0.805 c2.094,0.325,4.183,0.683,6.262,1.094c0.602,0.118,1.204,0.23,1.806,0.352c0.24,0.049,0.475,0.121,0.697,0.229 c0.341,0.166,0.496,0.434,0.453,0.808c-0.022,0.19-0.053,0.383-0.106,0.567C55.637,63.25,55.56,63.628,55.376,64z" clip-rule="evenodd"/><path fill="#F0B41D" fill-rule="evenodd" d="M21.722,16.638c-0.137,0.019-0.229-0.072-0.33-0.136 c-0.502-0.321-1.015-0.627-1.5-0.972c-0.262-0.186-0.462-0.158-0.712,0.003c-0.53,0.342-1.075,0.662-1.614,0.989 c-0.088,0.054-0.17,0.127-0.286,0.117c-0.075-0.102-0.02-0.199,0.01-0.297c0.177-0.587,0.336-1.181,0.537-1.759 c0.105-0.304,0.025-0.484-0.214-0.671c-0.511-0.399-1.004-0.821-1.503-1.235c-0.091-0.076-0.173-0.161-0.256-0.239 c0.069-0.127,0.168-0.081,0.244-0.082c0.701-0.006,1.402-0.004,2.104-0.01c0.327-0.002,0.333-0.006,0.447-0.325 c0.23-0.643,0.454-1.289,0.68-1.934c0.04-0.114,0.062-0.237,0.17-0.316c0.114,0.12,0.143,0.279,0.199,0.424 c0.218,0.573,0.434,1.148,0.651,1.721c0.184,0.484,0.16,0.417,0.593,0.423c0.614,0.008,1.227,0.006,1.841,0.014 c0.097,0.001,0.207-0.037,0.292,0.057c0.006,0.147-0.12,0.201-0.205,0.278c-0.469,0.422-0.937,0.847-1.416,1.255 c-0.185,0.157-0.238,0.314-0.177,0.551c0.156,0.61,0.29,1.227,0.434,1.841C21.736,16.434,21.779,16.534,21.722,16.638z" clip-rule="evenodd"/><path fill="#F0B41D" fill-rule="evenodd" d="M1.416,39.669c0.088-0.098,0.198-0.058,0.295-0.059 c0.684-0.006,1.367-0.004,2.05-0.01c0.298-0.002,0.308-0.008,0.412-0.299c0.218-0.609,0.428-1.223,0.642-1.834 c0.05-0.145,0.105-0.287,0.156-0.426c0.159,0.031,0.163,0.152,0.198,0.244c0.226,0.59,0.448,1.179,0.671,1.77 c0.031,0.082,0.066,0.162,0.09,0.246c0.06,0.217,0.191,0.302,0.423,0.297c0.561-0.012,1.122,0.003,1.682,0.006 c0.192,0.001,0.383,0,0.564,0c0.065,0.129-0.017,0.184-0.079,0.238c-0.446,0.396-0.894,0.787-1.341,1.182 C7.088,41.106,7,41.191,6.905,41.269c-0.123,0.102-0.148,0.217-0.11,0.373c0.141,0.578,0.269,1.16,0.398,1.741 c0.037,0.166,0.063,0.336,0.095,0.51c-0.209,0.023-0.319-0.109-0.446-0.188c-0.477-0.296-0.954-0.591-1.414-0.911 c-0.246-0.173-0.437-0.197-0.701-0.019c-0.522,0.354-1.071,0.666-1.612,0.99c-0.099,0.06-0.19,0.153-0.361,0.127 c0.023-0.163,0.068-0.312,0.112-0.457c0.146-0.486,0.296-0.972,0.444-1.458c0.163-0.536,0.162-0.535-0.291-0.906 c-0.448-0.367-0.895-0.733-1.338-1.105C1.581,39.882,1.451,39.815,1.416,39.669z" clip-rule="evenodd"/><path fill="#F0B41D" fill-rule="evenodd" d="M32.735,12.424c-0.08-0.121-0.017-0.237,0.017-0.351 c0.164-0.554,0.303-1.117,0.509-1.655c0.135-0.353,0.029-0.543-0.24-0.751c-0.499-0.385-0.977-0.795-1.461-1.2 c-0.089-0.075-0.216-0.121-0.238-0.263c0.055-0.104,0.153-0.06,0.23-0.061c0.7-0.006,1.401-0.005,2.101-0.011 c0.322-0.002,0.325-0.006,0.44-0.327c0.236-0.659,0.468-1.319,0.7-1.979c0.034-0.097,0.051-0.204,0.178-0.278 c0.083,0.203,0.163,0.391,0.235,0.581c0.205,0.54,0.408,1.08,0.608,1.622c0.14,0.38,0.146,0.374,0.521,0.375 c0.611,0.003,1.226,0.005,1.838,0.013c0.117,0.001,0.24-0.034,0.354,0.036c0.029,0.13-0.077,0.182-0.149,0.245 c-0.481,0.433-0.96,0.87-1.457,1.285c-0.205,0.172-0.25,0.352-0.19,0.597c0.153,0.628,0.296,1.26,0.441,1.891 c0.016,0.065,0.025,0.132,0.037,0.189c-0.104,0.098-0.178,0.024-0.242-0.018c-0.517-0.327-1.033-0.657-1.549-0.987 c-0.423-0.271-0.424-0.272-0.872-0.001c-0.494,0.299-0.986,0.602-1.48,0.9C32.962,12.34,32.871,12.433,32.735,12.424z" clip-rule="evenodd"/><path fill="#F0B41D" fill-rule="evenodd" d="M63.733,28.295c-0.206-0.023-0.337-0.142-0.478-0.232 c-0.489-0.31-0.98-0.615-1.459-0.939c-0.199-0.133-0.352-0.155-0.566-0.015c-0.573,0.373-1.165,0.716-1.749,1.071 c-0.072,0.045-0.147,0.088-0.214,0.127c-0.148-0.101-0.045-0.207-0.022-0.287c0.185-0.64,0.373-1.278,0.577-1.912 c0.071-0.219,0.02-0.357-0.156-0.497c-0.468-0.37-0.924-0.754-1.383-1.134c-0.148-0.123-0.292-0.249-0.434-0.369 c0.028-0.141,0.131-0.11,0.207-0.111c0.632-0.006,1.264-0.005,1.895-0.011c0.67-0.007,0.549-0.037,0.732-0.537 c0.193-0.526,0.367-1.059,0.558-1.587c0.052-0.144,0.075-0.304,0.189-0.425c0.146,0.007,0.141,0.139,0.172,0.221 c0.246,0.637,0.481,1.279,0.725,1.918c0.14,0.368,0.144,0.367,0.521,0.376c0.632,0.014,1.263,0.025,1.893,0.042 c0.102,0.002,0.21-0.028,0.3,0.049c0.022,0.131-0.089,0.178-0.162,0.243c-0.472,0.419-0.938,0.846-1.424,1.248 c-0.225,0.185-0.265,0.378-0.195,0.646c0.16,0.628,0.301,1.261,0.448,1.892C63.722,28.137,63.723,28.207,63.733,28.295z" clip-rule="evenodd"/><path fill="#F0B41D" fill-rule="evenodd" d="M46.75,12.384c0.212-0.1,0.371-0.068,0.523-0.069 c0.614-0.007,1.228-0.014,1.842-0.007c0.249,0.002,0.375-0.098,0.453-0.337c0.193-0.601,0.411-1.193,0.621-1.788 c0.051-0.145,0.111-0.288,0.166-0.426c0.171,0.003,0.164,0.137,0.195,0.218c0.24,0.622,0.463,1.25,0.708,1.869 c0.157,0.399,0.062,0.424,0.589,0.43c0.633,0.007,1.263,0.025,1.894,0.039c0.085,0.002,0.175-0.017,0.247,0.05 c0.021,0.13-0.089,0.176-0.161,0.241c-0.472,0.42-0.938,0.847-1.425,1.249c-0.224,0.186-0.263,0.378-0.194,0.646 c0.161,0.628,0.301,1.261,0.448,1.893c0.015,0.065,0.017,0.134,0.026,0.223c-0.204-0.024-0.336-0.143-0.479-0.233 c-0.502-0.319-1.006-0.639-1.503-0.967c-0.165-0.108-0.3-0.124-0.476-0.012c-0.593,0.376-1.196,0.733-1.795,1.098 c-0.074,0.045-0.148,0.088-0.213,0.126c-0.129-0.08-0.059-0.168-0.037-0.237c0.191-0.656,0.384-1.312,0.592-1.963 c0.071-0.22,0.019-0.358-0.158-0.498c-0.468-0.37-0.924-0.755-1.382-1.135C47.084,12.672,46.94,12.546,46.75,12.384z" clip-rule="evenodd"/><path fill="#F0B41D" fill-rule="evenodd" d="M6.072,28.375c0.211-0.708,0.39-1.292,0.558-1.878 c0.238-0.834,0.32-0.566-0.324-1.12c-0.426-0.365-0.865-0.714-1.296-1.071c-0.079-0.066-0.153-0.137-0.224-0.2 c0.04-0.14,0.142-0.107,0.219-0.108c0.666-0.006,1.332-0.008,1.998-0.011c0.447-0.002,0.432-0.016,0.562-0.39 c0.224-0.645,0.453-1.288,0.681-1.932c0.028-0.08,0.063-0.158,0.093-0.23c0.133,0.005,0.148,0.097,0.178,0.178 c0.253,0.672,0.514,1.341,0.754,2.017c0.083,0.231,0.204,0.33,0.456,0.329c0.666-0.001,1.331,0.022,1.997,0.037 c0.085,0.002,0.17,0.013,0.25,0.02c0.037,0.127-0.05,0.171-0.112,0.226c-0.472,0.418-0.945,0.835-1.417,1.253 c-0.398,0.354-0.334,0.259-0.229,0.763c0.117,0.565,0.263,1.125,0.39,1.689c0.024,0.11,0.09,0.226,0.033,0.353 c-0.18-0.02-0.294-0.138-0.424-0.219c-0.504-0.317-1.008-0.634-1.502-0.967c-0.183-0.124-0.323-0.146-0.52-0.018 c-0.529,0.343-1.074,0.662-1.613,0.989C6.446,28.163,6.31,28.238,6.072,28.375z" clip-rule="evenodd"/><path fill="#F0B41D" fill-rule="evenodd" d="M68.826,39.704c-0.391,0.347-0.688,0.612-0.987,0.878 c-0.235,0.209-0.458,0.438-0.712,0.621c-0.26,0.187-0.278,0.402-0.204,0.684c0.139,0.524,0.256,1.055,0.376,1.584 c0.037,0.163,0.059,0.331,0.089,0.503c-0.19,0.002-0.289-0.114-0.403-0.186c-0.505-0.315-1.01-0.632-1.502-0.966 c-0.212-0.145-0.38-0.172-0.61-0.021c-0.571,0.372-1.162,0.715-1.746,1.068c-0.074,0.045-0.15,0.084-0.221,0.121 c-0.097-0.095-0.038-0.175-0.015-0.252c0.18-0.604,0.364-1.208,0.543-1.812c0.128-0.429,0.127-0.431-0.2-0.702 c-0.499-0.414-0.998-0.825-1.498-1.239c-0.078-0.065-0.152-0.136-0.224-0.199c0.04-0.14,0.142-0.108,0.219-0.108 c0.647-0.006,1.297-0.006,1.945-0.012c0.485-0.003,0.478,0.021,0.632-0.439c0.208-0.613,0.427-1.223,0.643-1.834 c0.034-0.097,0.08-0.189,0.118-0.279c0.128,0.004,0.143,0.098,0.173,0.177c0.253,0.672,0.514,1.341,0.754,2.017 c0.083,0.23,0.203,0.332,0.456,0.33c0.665-0.002,1.331,0.023,1.996,0.037C68.534,39.677,68.618,39.688,68.826,39.704z" clip-rule="evenodd"/><path fill="#F0B41D" fill-rule="evenodd" d="M51.646,56.476c-0.809,0.976-2.031,1.424-2.828,1.423 c-0.742-0.001-1.409-0.256-2.026-0.646c-0.642-0.405-1.183-0.928-1.671-1.509c-0.043-0.051-0.105-0.109-0.046-0.179 c0.028-0.034,0.087-0.053,0.134-0.057c0.4-0.037,0.801-0.075,1.203-0.102c0.694-0.043,1.182-0.398,1.507-0.993 c0.202-0.368,0.382-0.749,0.572-1.123c0.049-0.093,0.091-0.191,0.156-0.272c0.086-0.106,0.354-0.085,0.384,0.082 c0.063,0.362,0.134,0.723,0.188,1.086c0.037,0.263,0.11,0.513,0.188,0.764c0.134,0.424,0.396,0.741,0.798,0.928 c0.301,0.141,0.614,0.254,0.922,0.381C51.287,56.324,51.447,56.393,51.646,56.476z" clip-rule="evenodd"/><path fill="#F0B41D" fill-rule="evenodd" d="M35.114,51.201c0.1,0.231,0.196,0.438,0.279,0.646 c0.124,0.31,0.236,0.624,0.361,0.933c0.071,0.178,0.149,0.356,0.242,0.524c0.438,0.788,1.068,1.096,1.972,0.973 c0.132-0.019,0.265-0.084,0.398-0.006c-0.005,0.039,0.005,0.083-0.013,0.105c-0.599,0.759-1.32,1.354-2.255,1.65 c-0.618,0.195-1.24,0.192-1.865,0.029c-0.656-0.172-1.234-0.498-1.77-0.901c-0.333-0.253-0.654-0.522-0.94-0.829 c0.065-0.134,0.159-0.068,0.23-0.065c0.104,0.004,0.207,0.037,0.311,0.044c0.761,0.056,1.382-0.197,1.801-0.854 c0.179-0.28,0.326-0.58,0.475-0.876c0.172-0.346,0.328-0.699,0.5-1.045C34.894,51.424,34.934,51.301,35.114,51.201z" clip-rule="evenodd"/><path fill="#F0B41D" fill-rule="evenodd" d="M21.166,52.738c0.18,0.184,0.242,0.369,0.333,0.537 c0.208,0.384,0.409,0.774,0.625,1.154c0.286,0.502,0.716,0.81,1.29,0.898c0.415,0.065,0.832,0.113,1.248,0.171 c0.14,0.02,0.191,0.102,0.125,0.215c-0.597,1.02-1.373,1.814-2.594,2.045c-0.475,0.089-0.944,0.049-1.406-0.066 c-0.879-0.22-1.67-0.625-2.393-1.165c-0.009-0.007-0.005-0.032-0.012-0.086c0.148-0.011,0.296-0.022,0.445-0.032 c0.822-0.06,1.368-0.479,1.644-1.256c0.152-0.43,0.237-0.878,0.347-1.319C20.904,53.481,20.954,53.113,21.166,52.738z" clip-rule="evenodd"/></svg>