<svg xmlns="http://www.w3.org/2000/svg" version="1.1" id="Layer_1" x="0px" y="0px" width="70px" height="70px" viewBox="0 0 70 70" enable-background="new 0 0 70 70" xml:space="preserve"><metadata/><rect width="70" fill="none" height="70"/><linearGradient id="SVGID_1_" gradientTransform="matrix(1 0 0 1 -271 -359)" gradientUnits="userSpaceOnUse" x1="283" x2="334.9425" y1="393.0996" y2="393.0996"><stop offset="0" style="stop-color:#EB2532"/><stop offset="0.1687" style="stop-color:#EF403F"/><stop offset="0.3427" style="stop-color:#F15F4C"/><stop offset="0.4068" style="stop-color:#F04842"/><stop offset="0.5112" style="stop-color:#EB2532"/><stop offset="0.519" style="stop-color:#ED2A34"/><stop offset="0.5589" style="stop-color:#EF4142"/><stop offset="0.6016" style="stop-color:#F1594F"/><stop offset="0.6482" style="stop-color:#F26756"/><stop offset="0.7013" style="stop-color:#F36F5C"/><stop offset="0.7753" style="stop-color:#F3725E"/><stop offset="0.8092" style="stop-color:#F0514B"/><stop offset="0.8421" style="stop-color:#EF373D"/><stop offset="0.8711" style="stop-color:#ED2A34"/><stop offset="0.8933" style="stop-color:#EB2532"/><stop offset="1" style="stop-color:#EB2532"/></linearGradient><path fill="url(#SVGID_1_)" d="M39.5,31.3c-13.9,5.7-21.7,12-27.5,26c2.5-4.7,4.4-10.1,28.3-19.1C55,32.3,61.9,18.4,64,10.9   C60,18.7,53.8,25.9,39.5,31.3"/><linearGradient id="SVGID_2_" gradientTransform="matrix(1 0 0 1 -271 -359)" gradientUnits="userSpaceOnUse" x1="279.4795" x2="331.556" y1="404.5" y2="404.5"><stop offset="0" style="stop-color:#1F3B70"/><stop offset="0.1941" style="stop-color:#3A578F"/><stop offset="0.309" style="stop-color:#5D6EA1"/><stop offset="0.573" style="stop-color:#1F3B70"/><stop offset="0.6202" style="stop-color:#1E447E"/><stop offset="0.6639" style="stop-color:#2F4D86"/><stop offset="0.6966" style="stop-color:#355089"/><stop offset="0.8933" style="stop-color:#1F3B70"/><stop offset="1" style="stop-color:#1F3B70"/></linearGradient><path fill="url(#SVGID_2_)" d="M36,42.6C22.1,48.3,14.3,54.6,8.4,68.7C11,64,12.9,58.6,36.9,49.6C51.6,43.7,58.5,29.8,60.6,22.3l0,0   C56.6,30,50.3,37.2,36,42.6"/><linearGradient id="SVGID_3_" gradientTransform="matrix(1 0 0 1 -271 -359)" gradientUnits="userSpaceOnUse" x1="287.5996" x2="336.5" y1="381.9004" y2="381.9004"><stop offset="0" style="stop-color:#1F3B70"/><stop offset="0.2135" style="stop-color:#485E94"/><stop offset="0.4551" style="stop-color:#1F3B70"/><stop offset="0.4745" style="stop-color:#203F77"/><stop offset="0.5104" style="stop-color:#224882"/><stop offset="0.5469" style="stop-color:#304E87"/><stop offset="0.5843" style="stop-color:#355089"/><stop offset="0.6629" style="stop-color:#355089"/><stop offset="0.6829" style="stop-color:#2E4C86"/><stop offset="0.7591" style="stop-color:#1C417B"/><stop offset="0.8309" style="stop-color:#213D73"/><stop offset="0.8933" style="stop-color:#1F3B70"/><stop offset="1" style="stop-color:#1F3B70"/></linearGradient><path fill="url(#SVGID_3_)" d="M42.5,20.2c-13.1,5.3-20.4,11.3-25.9,24.5c2.3-4.4,4.2-9.5,26.7-18C57,21.2,63.6,8.1,65.5,1.1   C61.8,8.4,55.9,15.2,42.5,20.2"/></svg>