<svg xmlns="http://www.w3.org/2000/svg" id="Layer_1" width="70" height="70" x="0" y="0" enable-background="new 0 0 70 70" version="1.1" viewBox="0 0 70 70" xml:space="preserve"><metadata/><rect width="70" height="70" fill="none"/><linearGradient id="SVGID_1_" x1="283" x2="334.942" y1="393.1" y2="393.1" gradientTransform="matrix(1 0 0 1 -271 -359)" gradientUnits="userSpaceOnUse"><stop offset="0" style="stop-color:#eb2532"/><stop offset=".169" style="stop-color:#ef403f"/><stop offset=".343" style="stop-color:#f15f4c"/><stop offset=".407" style="stop-color:#f04842"/><stop offset=".511" style="stop-color:#eb2532"/><stop offset=".519" style="stop-color:#ed2a34"/><stop offset=".559" style="stop-color:#ef4142"/><stop offset=".602" style="stop-color:#f1594f"/><stop offset=".648" style="stop-color:#f26756"/><stop offset=".701" style="stop-color:#f36f5c"/><stop offset=".775" style="stop-color:#f3725e"/><stop offset=".809" style="stop-color:#f0514b"/><stop offset=".842" style="stop-color:#ef373d"/><stop offset=".871" style="stop-color:#ed2a34"/><stop offset=".893" style="stop-color:#eb2532"/><stop offset="1" style="stop-color:#eb2532"/></linearGradient><path fill="url(#SVGID_1_)" d="M39.5,31.3c-13.9,5.7-21.7,12-27.5,26c2.5-4.7,4.4-10.1,28.3-19.1C55,32.3,61.9,18.4,64,10.9 C60,18.7,53.8,25.9,39.5,31.3"/><linearGradient id="SVGID_2_" x1="279.479" x2="331.556" y1="404.5" y2="404.5" gradientTransform="matrix(1 0 0 1 -271 -359)" gradientUnits="userSpaceOnUse"><stop offset="0" style="stop-color:#1f3b70"/><stop offset=".194" style="stop-color:#3a578f"/><stop offset=".309" style="stop-color:#5d6ea1"/><stop offset=".573" style="stop-color:#1f3b70"/><stop offset=".62" style="stop-color:#1e447e"/><stop offset=".664" style="stop-color:#2f4d86"/><stop offset=".697" style="stop-color:#355089"/><stop offset=".893" style="stop-color:#1f3b70"/><stop offset="1" style="stop-color:#1f3b70"/></linearGradient><path fill="url(#SVGID_2_)" d="M36,42.6C22.1,48.3,14.3,54.6,8.4,68.7C11,64,12.9,58.6,36.9,49.6C51.6,43.7,58.5,29.8,60.6,22.3l0,0 C56.6,30,50.3,37.2,36,42.6"/><linearGradient id="SVGID_3_" x1="287.6" x2="336.5" y1="381.9" y2="381.9" gradientTransform="matrix(1 0 0 1 -271 -359)" gradientUnits="userSpaceOnUse"><stop offset="0" style="stop-color:#1f3b70"/><stop offset=".213" style="stop-color:#485e94"/><stop offset=".455" style="stop-color:#1f3b70"/><stop offset=".474" style="stop-color:#203f77"/><stop offset=".51" style="stop-color:#224882"/><stop offset=".547" style="stop-color:#304e87"/><stop offset=".584" style="stop-color:#355089"/><stop offset=".663" style="stop-color:#355089"/><stop offset=".683" style="stop-color:#2e4c86"/><stop offset=".759" style="stop-color:#1c417b"/><stop offset=".831" style="stop-color:#213d73"/><stop offset=".893" style="stop-color:#1f3b70"/><stop offset="1" style="stop-color:#1f3b70"/></linearGradient><path fill="url(#SVGID_3_)" d="M42.5,20.2c-13.1,5.3-20.4,11.3-25.9,24.5c2.3-4.4,4.2-9.5,26.7-18C57,21.2,63.6,8.1,65.5,1.1 C61.8,8.4,55.9,15.2,42.5,20.2"/></svg>