<svg xmlns="http://www.w3.org/2000/svg" version="1.1" id="Layer_1" x="0px" y="0px" width="70px" height="70px" viewBox="0 0 70 70" enable-background="new 0 0 70 70" xml:space="preserve"><path fill="#666C71" d="M47.181,29.086c-0.148-0.021-0.266,0.121-0.418,0.075   c-0.164-0.015-0.325-0.007-0.486,0.031c-0.988,0.092-1.978,0.156-2.965,0.271c-1.594,0.184-3.179,0.434-4.748,0.777   c-0.966,0.211-1.934,0.412-2.867,0.744c-0.694,0.247-1.4,0.443-2.112,0.628c-0.566,0.146-1.087,0.415-1.62,0.647   c-1.336,0.584-2.646,1.225-3.989,1.794c-0.756,0.321-1.481,0.686-2.142,1.178c-0.484,0.36-1.018,0.642-1.594,0.819   c-0.591,0.184-0.891,0.592-1.034,1.158c-0.005,0.022-0.012,0.045-0.019,0.067c-0.061,0.192-0.084,0.21-0.288,0.2   c-0.296-0.016-0.474,0.18-0.645,0.373c-0.064,0.073,0.039,0.078,0.079,0.09c0.273,0.076,0.552,0.112,0.833,0.14   c0.514,0.049,1.033,0.062,1.543,0.146c0.192,0.031,0.382,0.068,0.563,0.144c0.054,0.022,0.118,0.045,0.115,0.117   c-0.003,0.061-0.057,0.087-0.104,0.109c-0.236,0.11-0.477,0.201-0.746,0.161c-0.396-0.065-0.798-0.039-1.195-0.078   c-0.7-0.07-1.406-0.055-2.109-0.127c-0.652-0.066-1.312-0.135-1.97-0.08c-0.432,0.035-0.866,0.062-1.297,0.115   c-0.263,0.033-0.528,0.018-0.792,0.033c-0.381,0.023-0.76,0.072-1.141,0.09c-0.193,0.01-0.387,0.009-0.575,0.07   c-0.056,0.017-0.115,0.029-0.173,0.029c-0.587,0.002-1.173,0.066-1.761,0.041c-0.035-0.002-0.07-0.007-0.104-0.02   c-0.084-0.046-0.035-0.082,0.013-0.109c0.091-0.055,0.19-0.092,0.289-0.129c0.304-0.111,0.618-0.189,0.934-0.257   c0.594-0.129,1.124-0.403,1.653-0.685c0.173-0.092,0.34-0.214,0.55-0.221c0.224,0.041,0.436-0.029,0.639-0.095   c0.266-0.085,0.537-0.128,0.812-0.149c0.369-0.029,0.732-0.098,1.103-0.1c0.442-0.002,0.878,0.068,1.314,0.122   c0.183,0.022,0.363,0.015,0.545,0.011c0.109,0.038,0.042,0.103,0.016,0.151c-0.087,0.173-0.128,0.36-0.206,0.55   c0.749-0.636,1.497-1.244,2.256-1.837c0.56-0.438,1.102-0.899,1.707-1.278c0.389-0.242,0.81-0.428,1.204-0.662   c0.521-0.308,1.021-0.645,1.517-0.977c-0.372,0.121-0.739,0.275-1.125,0.38c-0.071,0.019-0.146,0.06-0.212-0.014   c0.032-0.11,0.137-0.138,0.221-0.185c0.392-0.225,0.829-0.394,1.145-0.719c0.364-0.375,0.837-0.483,1.293-0.643   c0.698-0.244,1.388-0.51,2.082-0.764c0.16-0.059,0.305-0.15,0.454-0.235c0.195-0.111,0.403-0.192,0.616-0.259   c0.566-0.182,1.116-0.398,1.657-0.645c0.358-0.162,0.756-0.211,1.134-0.322c0.049-0.014,0.105-0.008,0.152,0.023   c0.025,0.104-0.066,0.107-0.122,0.132c-0.294,0.13-0.586,0.266-0.878,0.401c-0.504,0.236-0.989,0.51-1.476,0.78   c-0.113,0.062-0.227,0.12-0.349,0.164c-0.042,0.024-0.093,0.035-0.134,0.063c0.06-0.029,0.121-0.052,0.181-0.078   c0.916-0.357,1.856-0.639,2.786-0.953c1.47-0.498,2.956-0.943,4.45-1.364c0.511-0.144,1.025-0.254,1.551-0.32   c0.379-0.048,0.754-0.123,1.124-0.22c1.154-0.302,2.311-0.597,3.479-0.839c1.479-0.306,2.942-0.679,4.427-0.963   c0.866-0.165,1.736-0.302,2.614-0.392c0.063-0.007,0.13-0.016,0.181,0.041c-0.022,0.088-0.103,0.09-0.167,0.109   c-0.672,0.191-1.329,0.43-2.004,0.617c-0.217,0.061-0.438,0.125-0.627,0.262c0.384-0.121,0.76-0.26,1.154-0.346   c0.32-0.072,0.646-0.119,0.976-0.133c0.627-0.027,1.252-0.082,1.879-0.127c0.603-0.043,1.205-0.098,1.807-0.156   c0.679-0.064,1.356-0.133,2.035-0.193c0.59-0.054,1.178-0.148,1.772-0.123c0.255,0.013,0.506-0.033,0.758-0.035   c0.593-0.006,1.186,0.031,1.777,0.062c0.691,0.033,1.388,0.026,2.07-0.122c0.364-0.08,0.735-0.07,1.102-0.117   c0.309-0.039,0.616-0.076,0.903-0.214c0.268-0.128,0.448-0.317,0.511-0.61c0.008-0.041,0.02-0.08,0.049-0.112   c0.036-0.017,0.072-0.005,0.099,0.019c0.189,0.168,0.414,0.289,0.606,0.455c0.052,0.046,0.098,0.1,0.135,0.16   c0.119,0.199,0.074,0.396-0.128,0.512c-0.246,0.143-0.521,0.213-0.796,0.275c-1.102,0.256-2.217,0.416-3.343,0.509   c-0.836,0.069-1.677,0.078-2.512,0.168c-0.565,0.062-1.133,0.127-1.701,0.166c-0.252,0.019-0.507,0.033-0.756,0.005   c-0.461-0.053-0.922-0.03-1.368,0.054c-1.162,0.218-2.347,0.267-3.508,0.479c-0.718,0.133-1.435,0.26-2.153,0.378   c-0.569,0.095-1.121,0.265-1.671,0.436c-0.1-0.032-0.199-0.036-0.296,0.014c-0.026,0.008-0.052,0.013-0.079,0.015   c-0.064,0.001-0.128,0.011-0.189,0.029c-0.468,0.049-0.931,0.124-1.386,0.246c-0.229,0.061-0.469,0.059-0.7,0.116   c-0.114-0.023-0.225,0.013-0.338,0.014c-0.022,0.013,0.015,0.03,0.001,0.012c-0.007-0.009-0.002-0.019,0.007-0.015   C47.016,29.072,47.117,28.967,47.181,29.086z" clip-rule="evenodd" fill-rule="evenodd"/><path fill="#666C71" d="M2.375,33.084c-0.126,0.058-0.256,0.052-0.389,0.027   c-0.187-0.07-0.318-0.215-0.449-0.357c0.068-0.312,0.213-0.596,0.325-0.893c0.105-0.274,0.216-0.546,0.335-0.814   c0.053-0.121,0.133-0.176,0.265-0.137c0.094,0.027,0.186,0.009,0.278-0.014c1.362-0.316,2.725-0.639,4.097-0.91   c1.418-0.283,2.844-0.53,4.288-0.629c1.456-0.098,2.895-0.324,4.335-0.537c0.843-0.126,1.694-0.186,2.541-0.273   c0.708-0.074,1.415-0.137,2.123-0.197c0.556-0.049,1.112-0.09,1.668-0.125c0.704-0.043,1.407-0.08,2.11-0.127   c0.556-0.036,1.112-0.07,1.668-0.111c1.021-0.074,2.036-0.191,3.043-0.369c0.124-0.021,0.248-0.039,0.356-0.045   c-0.115-0.012-0.251,0.063-0.378-0.024c0.018-0.124,0.121-0.089,0.19-0.092c0.222-0.008,0.446,0.005,0.667-0.038   c0.023-0.005,0.047-0.003,0.07-0.01c0.434-0.15,0.878-0.124,1.323-0.072c0.11,0.012,0.21-0.025,0.31-0.059   c0.254-0.086,0.505-0.102,0.757,0.006c0.07,0.03,0.151,0.022,0.221,0.055c0.068,0.082-0.017,0.096-0.059,0.119   c-0.138,0.079-0.288,0.135-0.433,0.199c-0.467,0.207-0.924,0.437-1.39,0.646c-0.221,0.098-0.453,0.164-0.682,0.238   c-0.295,0.094-0.559,0.238-0.776,0.467c-0.278,0.294-0.635,0.441-1.026,0.506c-0.346,0.057-0.621,0.234-0.867,0.473   c-0.317,0.309-0.646,0.595-1.09,0.721c-0.217,0.061-0.378,0.232-0.541,0.385c-0.167,0.156-0.328,0.32-0.486,0.485   c-0.092,0.095-0.194,0.141-0.328,0.14c-0.624-0.002-1.247,0.016-1.869-0.008c-0.334-0.012-0.668-0.022-1.003-0.029   c-0.061-0.002-0.134,0.01-0.163-0.072c0.105-0.098,0.235-0.053,0.353-0.051c0.165,0.003,0.269-0.047,0.381-0.186   c0.523-0.644,1.128-1.195,1.896-1.543c0.161-0.074,0.307-0.174,0.452-0.273c0.3-0.205,0.622-0.377,0.92-0.587   c0.165-0.116,0.369-0.147,0.586-0.232c-0.253-0.046-0.475-0.016-0.692,0.022c-0.502,0.09-1.001,0.201-1.5,0.309   c-0.406,0.087-0.808,0.205-1.209,0.316c-0.977,0.268-1.903,0.648-2.75,1.207c-0.461,0.303-0.944,0.571-1.395,0.891   c-0.046,0.018-0.09,0.018-0.133-0.007c-0.052-0.053-0.025-0.11-0.007-0.165c0.178-0.544,0.374-1.076,0.765-1.515   c0.14-0.157,0.244-0.345,0.36-0.522c0.058-0.086,0.103-0.184,0.121-0.304c-0.121,0.003-0.208,0.065-0.297,0.11   c-0.368,0.188-0.741,0.346-1.147,0.439c-0.492,0.115-0.951,0.336-1.411,0.55c-0.457,0.214-0.921,0.41-1.401,0.573   c-0.538,0.184-1.023,0.472-1.481,0.807c-0.041,0.031-0.084,0.06-0.064,0.123c-0.126,0.07-0.257,0.048-0.39,0.023   c-0.102-0.072-0.034-0.15,0-0.217c0.15-0.288,0.347-0.545,0.557-0.791c0.246-0.289,0.478-0.582,0.516-0.98   c0.005-0.059,0.045-0.108,0.079-0.178c-0.248,0.062-0.446,0.203-0.659,0.306c-0.561,0.271-1.132,0.515-1.711,0.741   c-0.352,0.138-0.667,0.348-0.978,0.559c-0.293,0.199-0.591,0.383-0.939,0.473c-0.12,0.03-0.224,0.102-0.337,0.15   c-0.063,0.029-0.134,0.072-0.194,0.006c-0.056-0.062-0.026-0.135,0.008-0.197c0.137-0.254,0.238-0.523,0.355-0.787   c0.098-0.219,0.155-0.449,0.25-0.699c-0.231,0.066-0.407,0.174-0.592,0.26c-0.692,0.318-1.35,0.691-1.891,1.237   c-0.198,0.2-0.358,0.435-0.537,0.652c-0.042,0.051-0.015,0.097-0.026,0.144c-0.085,0.07-0.192,0.045-0.288,0.061   c-1.289,0.223-2.584,0.396-3.875,0.605c-0.23,0.037-0.465,0.051-0.692,0.105C2.397,33.048,2.379,33.057,2.375,33.084z" clip-rule="evenodd" fill-rule="evenodd"/><path fill="#1B2024" d="M49.869,28.598c0.579-0.234,1.184-0.377,1.796-0.486   c0.783-0.142,1.567-0.274,2.354-0.407c0.554-0.093,1.112-0.163,1.675-0.204c0.485-0.033,0.958-0.156,1.439-0.221   c0.465-0.062,0.931-0.102,1.401-0.068c0.569,0.039,1.138-0.016,1.704-0.074c0.524-0.055,1.048-0.131,1.574-0.152   c1.719-0.069,3.428-0.221,5.107-0.613c0.262-0.061,0.524-0.13,0.765-0.258c0.217-0.117,0.252-0.276,0.109-0.479   c-0.086-0.124-0.21-0.204-0.331-0.286c-0.157-0.105-0.309-0.214-0.438-0.352c-0.272-0.158-0.55-0.308-0.836-0.443   c-0.625-0.299-1.236-0.629-1.868-0.915c-0.733-0.333-1.494-0.554-2.299-0.63c-0.883-0.086-1.758-0.246-2.641-0.339   c-0.589-0.062-1.18-0.114-1.773-0.12c-0.834-0.01-1.67-0.033-2.503,0.004c-1.56,0.068-3.122,0.072-4.671,0.324   c-0.746,0.123-1.5,0.208-2.258,0.234c-0.078-0.018-0.179,0.025-0.223-0.083c0.025-0.063,0.083-0.08,0.138-0.099   c1.008-0.326,2.016-0.652,3.071-0.786c0.647-0.083,1.302-0.101,1.947-0.194c0.791-0.112,1.59-0.145,2.387-0.209   c0.178-0.014,0.351,0.029,0.526,0.033c0.495,0.006,0.985-0.06,1.48-0.039c0.028,0.002,0.059-0.003,0.088-0.009   c0.034-0.007,0.074-0.017,0.086-0.053c0.014-0.039-0.024-0.062-0.051-0.083c-0.071-0.057-0.152-0.09-0.238-0.113   c-0.477-0.13-0.964-0.206-1.454-0.273c-0.527-0.072-1.056-0.071-1.584-0.068c-0.113,0.001-0.225,0.015-0.331,0.045   c-0.689,0.198-1.401,0.232-2.109,0.307c-1.179,0.125-2.365,0.213-3.513,0.547c-0.123,0.02-0.244,0.041-0.363,0.066   c-0.046,0.01-0.1,0.016-0.131-0.028c-0.034-0.049,0.005-0.091,0.034-0.125c0.23-0.276,0.488-0.492,0.884-0.456   c0.225,0.02,0.429-0.042,0.611-0.182c0.146-0.112,0.321-0.168,0.498-0.215c0.684-0.183,1.388-0.253,2.082-0.383   c0.473-0.088,0.945-0.194,1.433-0.173c0.099,0.005,0.198,0.007,0.299,0.019c0.074,0.009,0.152,0.015,0.217-0.072   c-0.158-0.029-0.305-0.054-0.456-0.055c-0.447-0.002-0.892-0.041-1.337-0.062c-0.135-0.007-0.271-0.024-0.404-0.007   c-0.425,0.06-0.855,0.055-1.283,0.092c-0.533,0.047-1.062,0.127-1.59,0.205c-1.752,0.258-3.482,0.631-5.198,1.065   c-1.283,0.325-2.589,0.55-3.868,0.889c-1.588,0.421-3.153,0.908-4.691,1.483c-0.1,0.038-0.202,0.062-0.305,0.084   c-0.043,0.014-0.09,0.023-0.131,0.045c-0.281,0.104-0.576,0.161-0.86,0.252c-0.497,0.159-0.99,0.322-1.46,0.557   c-0.277,0.139-0.563,0.262-0.843,0.398c-0.2,0.047-0.38,0.148-0.574,0.216c-0.07,0.024-0.166,0.083-0.21-0.045   c0.834-0.38,1.605-0.88,2.422-1.292c0.465-0.236,0.946-0.438,1.447-0.586c0.418-0.125,0.812-0.307,1.195-0.507   c0.524-0.272,1.082-0.45,1.634-0.649c2.238-0.817,4.535-1.42,6.882-1.834c0.77-0.136,1.517-0.371,2.293-0.475   c0.435-0.059,0.87-0.111,1.306-0.168c0.884-0.115,1.771-0.209,2.649-0.355c0.593-0.099,1.186-0.066,1.774-0.052   c0.621,0.017,1.239,0.106,1.857,0.163c0.155,0.014,0.302,0.055,0.431,0.143c0.226,0.154,0.488,0.191,0.75,0.238   c0.516,0.09,1.017,0.24,1.517,0.391c0.347,0.105,0.661,0.276,0.955,0.482c0.283,0.199,0.574,0.389,0.827,0.629   c0.146,0.135,0.344,0.157,0.53,0.16c0.424,0.008,0.852,0.012,1.265,0.08c1.322,0.218,2.687,0.214,3.951,0.737   c0.728,0.302,1.424,0.661,2.09,1.081c0.356,0.226,0.729,0.426,1.054,0.704c0.385,0.333,0.583,0.765,0.666,1.247   c0.055,0.309-0.071,0.688-0.413,0.852c-0.624,0.299-1.273,0.518-1.942,0.669c-0.804,0.182-1.627,0.245-2.442,0.356   c-0.972,0.133-1.949,0.077-2.924,0.137c-0.699,0.043-1.394,0.125-2.091,0.182c-0.847,0.069-1.693,0.18-2.548,0.15   c-0.463-0.016-0.921,0.059-1.379,0.125c-1.048,0.146-2.099,0.26-3.155,0.316c-0.286,0.017-0.571,0.047-0.853,0.124   c-0.379,0.105-0.771,0.153-1.166,0.16c-0.069-0.03-0.074-0.04-0.023-0.075c0.105-0.069,0.232-0.08,0.347-0.129   C49.725,28.601,49.796,28.563,49.869,28.598z" clip-rule="evenodd" fill-rule="evenodd"/><path fill="#83BCE4" d="M48.178,23.064c1.04-0.055,2.068-0.218,3.101-0.342   c0.893-0.106,1.786-0.192,2.688-0.161c0.47,0.017,0.935-0.086,1.406-0.081c0.846,0.01,1.694-0.017,2.539,0.019   c1.222,0.05,2.433,0.223,3.641,0.401c0.423,0.062,0.853,0.08,1.272,0.173c0.53,0.116,1.042,0.29,1.529,0.524   c0.83,0.4,1.652,0.816,2.479,1.223c0.083,0.042,0.132,0.112,0.191,0.176c-0.026,0.521-0.41,0.816-1,0.916   c-0.808,0.135-1.625,0.199-2.438,0.304c-0.449,0.059-0.912,0.017-1.369-0.005c-0.648-0.026-1.298-0.104-1.948-0.021   c-0.087,0.012-0.176,0.009-0.263,0.006c-0.783-0.023-1.558,0.1-2.334,0.17c-0.532,0.049-1.062,0.103-1.594,0.15   c-0.794,0.07-1.589,0.15-2.385,0.201c-0.484,0.029-0.969,0.079-1.457,0.092c-0.474,0.011-0.94,0.117-1.392,0.269   c-0.249,0.085-0.507,0.146-0.788,0.297c0.063-0.181,0.166-0.245,0.293-0.294c0.479-0.182,0.974-0.307,1.462-0.458   c0.4-0.126,0.8-0.255,1.201-0.384c0.048-0.07,0.127-0.078,0.201-0.09c0.79-0.117,1.58-0.225,2.373-0.318   c1.037-0.123,2.075-0.233,3.117-0.309c0.555-0.041,1.11-0.09,1.669-0.082c0.27,0.002,0.536-0.053,0.809-0.035   c0.074,0.006,0.152-0.006,0.22,0.043c0.02,0.098-0.063,0.084-0.111,0.092c-0.093,0.016-0.188,0.007-0.282,0.008   c-0.07,0.002-0.143-0.004-0.209,0.024c-0.52,0.222-1.074,0.22-1.622,0.253c-0.111,0.008-0.23,0.049-0.342-0.006   c0.006,0.045,0.054,0.024,0.074,0.023c0.846-0.033,1.688,0.058,2.533,0.07c0.436,0.008,0.865,0.004,1.297-0.045   c0.635,0.01,1.258-0.08,1.88-0.189c0.371-0.061,0.735-0.148,1.094-0.268c0.09-0.03,0.176-0.068,0.26-0.11   c0.253-0.126,0.278-0.284,0.066-0.476c-0.194-0.174-0.418-0.304-0.656-0.408c-0.495-0.217-1.013-0.375-1.519-0.566   c-0.088-0.033-0.179-0.057-0.264-0.097c-0.174-0.106-0.368-0.075-0.557-0.081c-0.063-0.002-0.128,0.001-0.19-0.003   c-0.281-0.04-0.546-0.141-0.811-0.239c-0.399-0.15-0.801-0.271-1.237-0.186c-0.161,0.03-0.326,0-0.486-0.051   c-0.231-0.074-0.476-0.072-0.716-0.082c-0.271-0.011-0.54-0.005-0.811-0.002c-0.255,0.004-0.503-0.016-0.743-0.115   c-0.136-0.057-0.285-0.061-0.435-0.062c-0.435-0.008-0.868,0.001-1.305-0.024c-0.384-0.021-0.773,0.005-1.154,0.099   c-0.287,0.071-0.58,0.098-0.873,0.102c-0.589,0.008-1.174,0.045-1.76,0.076c-0.159,0.01-0.312,0.064-0.469,0.09   c-0.238,0.037-0.478,0.058-0.719,0.047c-0.178-0.007-0.353,0.012-0.521,0.074c-0.136,0.049-0.279,0.033-0.42,0.025   c-0.812-0.047-1.62-0.04-2.432-0.003c-0.38,0.017-0.765,0.053-1.139-0.067c-0.078-0.025-0.155-0.053-0.229-0.092   c-0.366-0.191-0.414-0.555-0.069-0.785c0.692-0.465,1.38-0.943,2.171-1.236c0.215-0.08,0.435-0.145,0.619-0.248   c-1.071,0.188-2.156,0.412-3.24,0.639c-1.11,0.232-2.21,0.533-3.336,0.672c-0.871,0.107-1.671,0.42-2.48,0.713   c-0.148,0.054-0.299,0.07-0.449,0.085c-0.754,0.075-1.459,0.313-2.138,0.632c-0.321,0.151-0.662,0.245-0.993,0.366   c-0.696,0.254-1.38,0.54-2.063,0.825c-0.338,0.14-0.701,0.203-1.034,0.354c-0.6,0.268-1.21,0.516-1.809,0.789   c-0.127,0.025-0.257,0.018-0.384,0.016c-0.338-0.008-0.675,0.012-1.014,0.034c-0.089,0.005-0.188,0.02-0.263-0.059   c0.09-0.051,0.21-0.04,0.277-0.137c0.307-0.244,0.696-0.306,1.042-0.463c0.042-0.019,0.087-0.03,0.129-0.051   c0.793-0.322,1.613-0.574,2.404-0.903c0.25-0.104,0.516-0.158,0.765-0.262c0.049-0.019,0.095-0.045,0.143-0.062   c-0.026-0.003-0.056,0.002-0.07-0.031c0.458-0.127,0.896-0.315,1.344-0.471c2.168-0.748,4.379-1.334,6.625-1.79   c0.937-0.19,1.861-0.448,2.793-0.66c1.461-0.331,2.937-0.593,4.425-0.763c0.859-0.1,1.722-0.189,2.591-0.111   c0.454,0.041,0.913,0.039,1.368,0.058c0.045,0.001,0.104-0.017,0.12,0.044c0.016,0.053-0.032,0.083-0.07,0.109   c-0.066,0.045-0.141,0.07-0.218,0.055c-0.479-0.092-0.948-0.006-1.416,0.084c-0.773,0.148-1.557,0.231-2.322,0.419   c-0.241,0.06-0.474,0.134-0.672,0.292c-0.129,0.105-0.291,0.15-0.447,0.127c-0.464-0.064-0.751,0.185-1.01,0.525   c0.164-0.002,0.311-0.086,0.469-0.064c0.086-0.031,0.1,0.008,0.063,0.074c-0.043,0.079-0.116,0.131-0.187,0.184   c-0.259,0.193-0.541,0.354-0.755,0.602c-0.03,0.034-0.087,0.063-0.076,0.111c0.014,0.068,0.086,0.044,0.135,0.053   c0.096,0.019,0.188,0.078,0.289,0.037C47.961,23.054,48.069,23.104,48.178,23.064z" clip-rule="evenodd" fill-rule="evenodd"/><path fill="#1B2024" d="M2.334,33.048c0.197-0.104,0.419-0.106,0.632-0.14   c0.808-0.129,1.618-0.252,2.428-0.369c0.608-0.089,1.209-0.216,1.821-0.273c0.022-0.002,0.042-0.018,0.063-0.027   c0.062-0.076,0.154-0.078,0.24-0.09c1.077-0.144,2.16-0.234,3.242-0.328c0.807-0.07,1.615-0.141,2.417-0.267   c0.058-0.009,0.117-0.02,0.172,0.013c0.142-0.006,0.286,0.027,0.424-0.03c0.04-0.056,0.1-0.063,0.158-0.062   c0.282,0.009,0.562-0.035,0.843-0.042c1.087-0.028,2.172-0.038,3.258-0.031c0.098,0.001,0.202-0.019,0.287,0.054   c0.048,0.001,0.096,0.002,0.144,0.003c0.101-0.067,0.212-0.057,0.324-0.048c0.555,0.039,1.114,0.033,1.669,0.096   c0.267,0.031,0.538,0.045,0.808,0.041c0.058-0.002,0.118,0.004,0.159,0.057c0.041,0.032,0.089,0.024,0.136,0.025   c0.975,0.028,1.949,0.053,2.923,0.045c0.095-0.002,0.166-0.029,0.234-0.094c0.255-0.242,0.482-0.516,0.762-0.73   c0.103-0.08,0.206-0.168,0.33-0.199c0.395-0.096,0.694-0.34,0.969-0.616c0.311-0.313,0.662-0.532,1.107-0.598   c0.361-0.053,0.661-0.233,0.911-0.496c0.191-0.2,0.422-0.339,0.685-0.415c0.51-0.146,0.987-0.371,1.466-0.595   c0.403-0.188,0.808-0.373,1.212-0.56c0.158-0.139,0.359-0.18,0.553-0.189c0.39-0.018,0.766-0.1,1.141-0.197   c0.187-0.048,0.375-0.09,0.57-0.101c0.071-0.004,0.145-0.015,0.184,0.063c0.041,0.08,0.008,0.147-0.045,0.209   c-0.039,0.043-0.08,0.086-0.111,0.135c-0.166,0.189-0.378,0.28-0.623,0.338c-0.407,0.095-0.788,0.271-1.177,0.421   c-0.276,0.106-0.545,0.22-0.782,0.401c-0.065,0.051-0.147,0.067-0.228,0.09c-0.57,0.163-1.146,0.315-1.671,0.604   c-0.674,0.37-1.365,0.711-2.041,1.08c-0.277,0.152-0.588,0.236-0.871,0.383c-0.823,0.335-1.623,0.715-2.331,1.263   c-0.089,0.069-0.176,0.138-0.252,0.22c-0.207,0.223-0.462,0.283-0.755,0.236c-0.227-0.037-0.449-0.092-0.668-0.158   c-0.344-0.105-0.664-0.078-0.982,0.105c-0.524,0.303-1.007,0.646-1.371,1.143c-0.182,0.25-0.429,0.432-0.706,0.571   c-0.149,0.075-0.28,0.173-0.393,0.296c-0.346,0.377-0.749,0.691-1.133,1.028c-0.205,0.179-0.377,0.39-0.511,0.626   c-0.247,0.438-0.592,0.802-0.91,1.198c0.062,0.048,0.13,0.021,0.188,0.039c0.034,0.011,0.07,0.022,0.077,0.063   c0.005,0.031-0.013,0.059-0.042,0.07c-0.138,0.056-0.257,0.168-0.421,0.154c-0.217,0.057-0.415,0.162-0.606,0.275   c-0.613,0.363-1.275,0.59-1.969,0.74c-0.31,0.067-0.612,0.16-0.892,0.316c-0.034,0.098-0.125,0.119-0.205,0.151   c-0.197,0.079-0.391,0.161-0.576,0.267c-0.101,0.057-0.182,0.13-0.167,0.264c0.014,0.129,0.05,0.153,0.168,0.102   c0.21-0.092,0.42-0.182,0.643-0.242c0.828-0.23,1.67-0.238,2.518-0.17c0.168,0.014,0.324,0.029,0.448-0.125   c0.056-0.068,0.153-0.08,0.245-0.076c0.06,0.002,0.121,0.008,0.172,0.033c0.447,0.238,0.931,0.216,1.413,0.208   c0.159-0.003,0.316,0.011,0.475,0.025c0.233,0.021,0.469,0.026,0.697-0.054c0.089-0.031,0.183-0.05,0.278-0.034   c0.058,0.009,0.14,0.009,0.103,0.11c-0.172,0.169-0.342,0.338-0.514,0.504c-0.073,0.072-0.163,0.125-0.26,0.143   c-0.489,0.09-0.971,0.207-1.479,0.087c-0.337-0.081-0.662-0.169-0.983-0.309c-0.399-0.172-0.819-0.177-1.253-0.039   c-0.441,0.141-0.889,0.266-1.322,0.427c-0.378,0.139-0.76,0.233-1.156,0.29c-0.206,0.03-0.365,0.14-0.499,0.304   c-0.237,0.291-0.409,0.258-0.565-0.078c-0.118-0.254-0.126-0.502-0.042-0.767c0.09-0.286,0.167-0.574,0.241-0.864   c0.031-0.125,0.09-0.191,0.216-0.24c0.508-0.196,1.003-0.43,1.527-0.58c0.372-0.106,0.757-0.16,1.133-0.251   c0.553-0.134,1.104-0.28,1.655-0.421c0.05-0.014,0.118-0.016,0.13-0.074c0.061-0.289,0.301-0.457,0.46-0.675   c0.292-0.399,0.524-0.837,0.817-1.232c0.395-0.532,0.787-1.066,1.19-1.591c0.251-0.326,0.607-0.535,0.935-0.77   c0.404-0.289,0.76-0.625,1.132-0.975c-0.308-0.084-0.607-0.039-0.9-0.045c-1.416-0.031-2.833-0.029-4.25,0.008   c-0.592,0.014-1.185,0.065-1.777,0.041c-0.634-0.023-1.268-0.012-1.9,0.023c-0.6,0.033-1.204,0.063-1.802,0.146   c-0.277,0.039-0.563,0.015-0.845,0.025c-0.71,0.027-1.416,0.107-2.123,0.178c-0.449,0.045-0.9,0.07-1.35,0.119   c-0.771,0.081-1.531,0.246-2.304,0.311c-0.31,0.025-0.619,0.069-0.931,0.066c-0.072,0.031-0.153-0.014-0.223,0.029l-0.015,0.007   l-0.016-0.004C2.457,33.07,2.395,33.07,2.334,33.048z" clip-rule="evenodd" fill-rule="evenodd"/><path fill="#666C71" d="M47.65,35.162c0.283,0.234,0.565,0.468,0.849,0.701   c-0.406,0.238-0.848,0.365-1.309,0.441c-0.529,0.086-1.065,0.082-1.596,0.143c-0.192,0.021-0.387,0.033-0.579,0.048   c-0.215,0.017-0.412-0.025-0.557-0.2c-0.13-0.156-0.288-0.246-0.496-0.262c-0.146-0.011-0.284-0.073-0.419-0.134   c-0.45-0.202-0.907-0.39-1.377-0.544c-0.459-0.149-0.896-0.354-1.327-0.566c-0.547-0.269-1.114-0.466-1.706-0.611   c-0.971-0.236-1.921-0.545-2.898-0.762c-0.551-0.121-1.111-0.186-1.671-0.25c-0.03-0.004-0.059-0.006-0.08,0.021   c-0.112,0.033-0.203-0.046-0.306-0.059c-0.435-0.054-0.871-0.087-1.306-0.13c-0.28-0.027-0.573,0.012-0.86,0.004   c0.006-0.053,0.049-0.064,0.089-0.067c0.354-0.021,0.666-0.187,0.992-0.3c1.477-0.515,2.951-1.034,4.469-1.411   c0.411-0.102,0.823-0.196,1.24-0.272c0.067-0.012,0.138-0.041,0.203,0.01c-0.048,0.148-0.19,0.181-0.305,0.236   c-0.262,0.125-0.543,0.193-0.819,0.273c-0.328,0.094-0.652,0.198-0.973,0.311c-0.263,0.093-0.508,0.215-0.737,0.373   c-0.213,0.145-0.46,0.222-0.623,0.295c0.61-0.151,1.307-0.272,2.003-0.397c0.88-0.157,1.752-0.351,2.63-0.509   c0.558-0.1,1.12-0.189,1.69-0.214c0.376-0.017,0.752-0.024,1.127-0.022c0.065,0,0.199-0.031,0.141,0.127   c-0.627,0.22-1.2,0.562-1.81,0.822c-0.471,0.203-0.887,0.506-1.33,0.76c-0.024,0.014-0.048,0.031-0.057,0.08   c0.218,0.02,0.428-0.014,0.631-0.05c0.497-0.088,0.996-0.157,1.499-0.212c0.167-0.018,0.326,0.023,0.491,0.024   c0.699,0.003,1.395-0.101,2.093-0.071c0.099,0.004,0.245-0.05,0.274,0.082c0.026,0.109-0.112,0.146-0.194,0.199   c-0.227,0.146-0.446,0.303-0.688,0.426c-0.109,0.057-0.218,0.115-0.335,0.155c-0.28,0.094-0.489,0.286-0.715,0.487   c0.271,0.1,0.519,0.027,0.766,0.01c0.614-0.041,1.223-0.154,1.84-0.162c0.091,0,0.173-0.028,0.254-0.065   c0.164,0.032,0.28,0.149,0.307,0.306c-0.403,0.369-0.823,0.713-1.284,1.009c0.034,0.06,0.086,0.058,0.129,0.052   c0.598-0.069,1.209-0.014,1.794-0.198c0.194-0.062,0.396-0.046,0.594-0.036C47.493,35.057,47.582,35.09,47.65,35.162z" clip-rule="evenodd" fill-rule="evenodd"/><path fill="#1B2024" d="M46.169,34.205c-0.09-0.101-0.165-0.217-0.296-0.271   c-0.224-0.129-0.342-0.351-0.452-0.565c-0.135-0.258-0.324-0.466-0.546-0.638c-0.372-0.288-0.715-0.605-1.037-0.947   c-0.122-0.127-0.254-0.242-0.393-0.352c-0.366-0.373-0.751-0.725-1.14-1.075c-0.117-0.106-0.238-0.126-0.388-0.085   c-0.89,0.244-1.787,0.453-2.682,0.679c-0.075,0.02-0.153,0.065-0.236,0.015c-1.028,0.185-2.036,0.448-3.034,0.756   c-1.167,0.359-2.318,0.764-3.464,1.183c-0.163,0.06-0.332,0.042-0.49,0.099c-1.059,0.331-2.016,0.887-3.002,1.378   c-0.196,0.098-0.402,0.184-0.619,0.243c-0.429,0.117-0.803,0.359-1.183,0.578c-1.021,0.59-2.034,1.195-2.974,1.912   c-0.164,0.125-0.319,0.258-0.488,0.398c0.08,0.059,0.165,0.049,0.24,0.065c0.781,0.171,1.512,0.468,2.195,0.88   c0.284,0.17,0.292,0.473,0.007,0.636c-0.373,0.212-0.79,0.245-1.209,0.255c-1.11,0.027-2.219,0.002-3.329-0.025   c-0.111-0.002-0.221-0.021-0.332-0.033c-0.041-0.023-0.122-0.042-0.025-0.098c0.061-0.035,0.133-0.043,0.204-0.051   c0.878-0.087,1.744-0.249,2.617-0.379c0.149-0.022,0.298-0.049,0.451-0.035c0.286-0.006,0.555-0.075,0.821-0.242   c-0.16-0.113-0.332-0.143-0.497-0.176c-0.438-0.093-0.883-0.115-1.328-0.148c-0.42-0.032-0.842-0.061-1.252-0.174   c-0.065-0.019-0.13-0.041-0.217-0.068c0.144-0.133,0.26-0.256,0.393-0.359c0.126-0.102,0.282-0.166,0.444-0.127   c0.134,0.033,0.176-0.01,0.203-0.131c0.042-0.195,0.137-0.374,0.202-0.562c0.114-0.332,0.358-0.507,0.664-0.629   c0.627-0.251,1.263-0.493,1.801-0.914c0.773-0.606,1.672-0.968,2.558-1.362c0.859-0.381,1.711-0.777,2.568-1.16   c0.82-0.366,1.626-0.77,2.479-1.057c0.6-0.202,1.232-0.299,1.827-0.52c1.553-0.576,3.173-0.883,4.79-1.196   c0.87-0.169,1.745-0.298,2.623-0.407c0.739-0.092,1.479-0.179,2.222-0.229c0.468-0.031,0.936-0.07,1.402-0.105   c0.062,0,0.134-0.061,0.176,0.033c-1.158,0.256-2.346,0.38-3.499,0.694c0.062,0.093,0.141,0.165,0.229,0.22   c0.418,0.265,0.755,0.635,1.177,0.895c0.071,0.044,0.104,0.107,0.113,0.188c0.017,0.152,0.107,0.256,0.23,0.336   c0.361,0.233,0.656,0.521,0.849,0.917c0.104,0.214,0.259,0.403,0.391,0.604c0.36,0.445,0.67,0.922,0.832,1.479   c0.013,0.044,0.028,0.091,0.031,0.137c0.006,0.065,0.057,0.153-0.024,0.19c-0.076,0.031-0.131-0.046-0.168-0.104   C46.476,34.554,46.273,34.418,46.169,34.205z" clip-rule="evenodd" fill-rule="evenodd"/><path fill="#83BCE4" d="M34.405,27.293c0.025-0.09,0.12-0.125,0.159-0.204   c0.022-0.044,0.037-0.089,0.017-0.134c-0.026-0.061-0.079-0.033-0.123-0.028c-0.339,0.03-0.664,0.132-0.994,0.206   c-0.229,0.051-0.459,0.094-0.694,0.092c-0.216-0.002-0.405,0.104-0.611,0.146c-0.124,0.004-0.241-0.018-0.356-0.07   c-0.161-0.072-0.337-0.083-0.496-0.01c-0.321,0.15-0.653,0.084-0.978,0.059c-0.162-0.014-0.324-0.01-0.465,0.031   c-0.377,0.109-0.757,0.131-1.145,0.125c-0.046-0.001-0.095-0.008-0.133,0.028c-0.091,0.087-0.209,0.07-0.316,0.075   c-0.773,0.036-1.547,0.063-2.321,0.097c-0.592,0.024-1.186,0.037-1.777,0.071c-0.628,0.039-1.261,0.07-1.883,0.046   c-1.228-0.048-2.424,0.144-3.625,0.329c-0.872,0.135-1.744,0.276-2.625,0.312c-0.675,0.026-1.346,0.101-2.021,0.122   c-1.672,0.055-3.324,0.279-4.967,0.576c-1.359,0.246-2.713,0.52-4.071,0.773c-0.704,0.133-1.411,0.254-2.115,0.389   c-0.123,0.022-0.246,0.033-0.368,0.01c-0.061-0.013-0.147-0.008-0.145-0.109c0.583-0.18,1.187-0.271,1.777-0.424   c0.777-0.201,1.576-0.317,2.337-0.572c0.68-0.229,1.367-0.422,2.071-0.547c0.917-0.164,1.835-0.314,2.752-0.471   c0.116-0.02,0.229-0.047,0.344-0.071c0.277-0.06,0.55-0.146,0.836-0.17c0.123,0.028,0.245-0.009,0.366-0.017   c1.097-0.066,2.179-0.273,3.271-0.381c0.456-0.045,0.913-0.076,1.371-0.095c0.446,0.017,0.894,0.034,1.34-0.011   c0.297-0.024,0.597-0.033,0.896-0.046c1.091-0.047,2.179-0.128,3.267-0.209c0.843-0.062,1.686-0.128,2.528-0.19   c0.872-0.066,1.745-0.103,2.618-0.167c0.076-0.005,0.153-0.005,0.229-0.004c1.115,0.019,2.231-0.038,3.347,0.033   c0.205,0.013,0.411,0.007,0.615-0.028c0.268-0.047,0.538-0.043,0.809-0.04c0.137,0.001,0.27-0.011,0.402-0.038   c0.094-0.02,0.173-0.062,0.242-0.15c-0.199-0.051-0.392,0.019-0.57-0.051c-0.056-0.092,0.027-0.092,0.074-0.1   c0.104-0.02,0.21-0.008,0.316-0.011c0.269-0.008,0.54,0.026,0.805-0.036c0.056-0.014,0.118-0.011,0.174-0.068   c-0.071-0.068-0.164-0.082-0.251-0.102c-0.279-0.066-0.56-0.125-0.846-0.15c-0.062-0.007-0.135,0.003-0.161-0.079   c0.281-0.048,0.521-0.229,0.803-0.267c0.419-0.059,0.838-0.114,1.238-0.262c0.059-0.014,0.114,0,0.168,0.023   c0.082,0.042,0.172,0.02,0.259,0.031c0.043,0.006,0.108,0.003,0.107,0.062c-0.001,0.053-0.062,0.064-0.105,0.077   c-0.064,0.019-0.128,0.003-0.192-0.005c-0.118-0.014-0.236-0.019-0.345,0.037c-0.174,0.09-0.201,0.249-0.182,0.422   c0.012,0.102,0.01,0.193-0.08,0.262c0.268,0.162,0.559,0.253,0.865,0.303c0.064,0.01,0.146-0.006,0.166,0.09   c-0.022,0.076-0.09,0.086-0.15,0.104c-0.412,0.122-0.804,0.321-1.245,0.338C34.545,27.248,34.487,27.326,34.405,27.293z" clip-rule="evenodd" fill-rule="evenodd"/><path fill="#1B2024" d="M2.352,30.225c0.149,0.106,0.315,0.078,0.474,0.048   c1.316-0.241,2.633-0.483,3.947-0.735c1.805-0.348,3.61-0.694,5.439-0.892c0.484-0.052,0.972-0.048,1.457-0.077   c0.524-0.031,1.049-0.082,1.574-0.119c0.317-0.021,0.634-0.033,0.95-0.051c0.999-0.056,1.983-0.227,2.97-0.381   c0.72-0.111,1.442-0.201,2.168-0.259c0.352-0.028,0.701,0.04,1.054,0.022c0.832-0.045,1.665-0.041,2.497-0.09   c0.578-0.033,1.159-0.029,1.737-0.068c0.468-0.031,0.938-0.012,1.405-0.064c0.184-0.021,0.374-0.014,0.562-0.024   c0.153,0,0.305,0,0.458,0c-0.123,0.103-0.273,0.112-0.413,0.136c-0.751,0.127-1.505,0.23-2.265,0.301   c-1.01,0.093-2.022,0.16-3.036,0.211c-0.762,0.038-1.524,0.08-2.284,0.143c-0.976,0.078-1.95,0.176-2.924,0.269   c-0.741,0.071-1.483,0.136-2.223,0.224c-0.588,0.068-1.172,0.164-1.757,0.254c-0.771,0.119-1.542,0.229-2.321,0.277   c-0.743,0.047-1.482,0.131-2.221,0.229c-1.665,0.217-3.305,0.564-4.941,0.93c-0.652,0.147-1.302,0.303-1.953,0.457   c-0.094,0.021-0.184,0.034-0.273-0.008c-0.086-0.039-0.134-0.021-0.174,0.074c-0.243,0.586-0.486,1.171-0.697,1.769   c0.02,0.039-0.009,0.058-0.034,0.077c-0.021,0.026-0.031,0.068-0.076,0.062c-0.047-0.007-0.046-0.049-0.047-0.082   c-0.027-0.775,0.014-1.545,0.28-2.285c0.077-0.215,0.194-0.403,0.436-0.471C2.238,30.066,2.332,30.077,2.352,30.225z" clip-rule="evenodd" fill-rule="evenodd"/><path fill="#1B2024" d="M17.476,27.516c-1.464,0.068-2.904,0.346-4.362,0.463   c-0.214,0.017-0.43,0.049-0.644-0.009c0.719-0.141,1.429-0.32,2.138-0.505c0.687-0.18,1.379-0.34,2.081-0.437   c0.423-0.058,0.851-0.103,1.279-0.126c0.466-0.026,0.933-0.048,1.398-0.123c0.392-0.062,0.795-0.027,1.193-0.07   c0.812-0.085,1.616-0.252,2.43-0.296c0.802-0.043,1.565-0.317,2.366-0.324c1.075-0.011,2.15-0.005,3.226-0.011   c0.511-0.003,1.022-0.016,1.533-0.024c0.563-0.01,1.126-0.021,1.689-0.031c0.127-0.05,0.26-0.059,0.395-0.058   c0.298,0.003,0.597-0.001,0.895,0.002c0.08,0.002,0.166-0.01,0.226,0.064c0.327,0.057,0.658,0.08,0.978,0.17   c0.096,0.025,0.192,0.051,0.284,0.086c0.05,0.02,0.129,0.038,0.111,0.112c-0.012,0.057-0.083,0.053-0.134,0.062   c-0.341,0.059-0.685,0.06-1.029,0.059c-0.115,0-0.233-0.023-0.346,0.025c-0.062,0.074-0.149,0.061-0.229,0.061   c-0.33,0.004-0.659,0.002-0.988,0.002c-1.127-0.004-2.254,0.066-3.382,0.081c-1.221,0.015-2.437,0.148-3.651,0.283   c-1.102,0.122-2.203,0.274-3.313,0.308c-0.91,0.025-1.815,0.114-2.722,0.178c-0.205,0.015-0.411,0.021-0.614,0.048   c-0.031,0.001-0.062,0.001-0.095,0.001c-0.103,0.004-0.206-0.013-0.308,0.016C17.745,27.52,17.61,27.53,17.476,27.516z" clip-rule="evenodd" fill-rule="evenodd"/><path fill="#1B2024" d="M34.484,33.187c-0.082-0.086-0.003-0.071,0.044-0.065   c0.337,0.037,0.677,0.067,1.012,0.119c1.227,0.188,2.399,0.607,3.604,0.887c0.852,0.197,1.616,0.594,2.409,0.934   c0.512,0.219,1.042,0.396,1.562,0.598c0.24,0.094,0.464,0.252,0.717,0.289c0.312,0.044,0.563,0.152,0.756,0.407   c0.09,0.116,0.251,0.104,0.38,0.099c0.416-0.016,0.829-0.079,1.246-0.101c0.49-0.026,0.982-0.067,1.46-0.2   c0.217-0.059,0.428-0.129,0.625-0.237c0.063-0.034,0.128-0.056,0.201-0.052c0.082,0.177,0.176,0.352,0.202,0.546   c0.021,0.143-0.035,0.233-0.176,0.321c-0.442,0.282-0.921,0.389-1.436,0.396c-0.547,0.008-1.094,0.035-1.639,0.057   c-0.189,0.008-0.375-0.023-0.562-0.044c-0.144-0.017-0.266-0.079-0.375-0.171c-0.122-0.104-0.259-0.184-0.41-0.234   c-1.662-0.553-3.264-1.256-4.88-1.922c-1.53-0.631-3.08-1.213-4.693-1.605C34.515,33.203,34.5,33.193,34.484,33.187z" clip-rule="evenodd" fill-rule="evenodd"/><path fill="#1B2024" d="M27.249,48.996c-1.103-0.006-2.167-0.232-3.211-0.566   c-0.661-0.211-1.321-0.443-1.912-0.803c-0.586-0.355-1.235-0.595-1.793-1c-0.198-0.144-0.356-0.322-0.508-0.51   c-0.153-0.187-0.312-0.365-0.509-0.508c-0.073-0.053-0.132-0.117-0.174-0.196c-0.221-0.413-0.453-0.82-0.704-1.216   c-0.07-0.109-0.142-0.218-0.227-0.314c-0.25-0.281-0.368-0.604-0.352-0.981c0.042-0.999,0.467-1.771,1.333-2.292   c0.042,0.093-0.021,0.152-0.069,0.203c-0.224,0.23-0.267,0.526-0.302,0.822c-0.031,0.26-0.045,0.521-0.074,0.781   c-0.019,0.172,0.01,0.346,0.05,0.505c0.049,0.196,0.092,0.397,0.145,0.594c0.174,0.665,0.528,1.239,0.929,1.783   c0.213,0.29,0.54,0.468,0.823,0.685c0.396,0.304,0.776,0.622,1.164,0.936c0.482,0.39,1.035,0.685,1.615,0.92   c0.512,0.209,1.039,0.371,1.573,0.506c0.057,0.014,0.118,0.021,0.17,0.047c0.597,0.301,1.252,0.382,1.897,0.502   c0.067,0.013,0.129,0.063,0.203,0.033C27.352,49.006,27.321,49.021,27.249,48.996z" clip-rule="evenodd" fill-rule="evenodd"/><path fill="#83BCE4" d="M24.565,38.727c-0.803,0.16-1.613,0.273-2.424,0.389   c-0.266,0.039-0.533,0.068-0.8,0.098c-0.087,0.01-0.084,0.031-0.022,0.076c-0.508-0.018-1.015-0.072-1.523-0.064   c-0.07,0.002-0.14-0.003-0.205,0.029c0.01-0.054-0.016-0.072-0.067-0.074c-0.095,0-0.188,0.012-0.277,0.042   c-0.287,0.101-0.577,0.07-0.87,0.049c-0.275-0.019-0.552-0.01-0.829-0.007c-0.268,0.002-0.524-0.041-0.77-0.156   c-0.247-0.115-0.492-0.198-0.672,0.111c-0.036,0.062-0.095,0.021-0.145,0.016c-0.996-0.111-1.982-0.093-2.945,0.229   c-0.162,0.053-0.319,0.117-0.467,0.203c-0.091,0.055-0.138,0.027-0.16-0.074c-0.049-0.232-0.023-0.321,0.191-0.431   c0.261-0.132,0.533-0.245,0.8-0.366c0.546,0.021,1.091-0.031,1.636-0.024c0.297,0.005,0.573-0.104,0.867-0.112   c0.603-0.018,1.201-0.094,1.805-0.117c0.466-0.018,0.935-0.041,1.399-0.115c0.348-0.057,0.705-0.033,1.056-0.008   c0.214,0.015,0.432,0.041,0.645,0.049c0.598,0.024,1.189,0.11,1.789,0.121c0.637,0.01,1.274,0.067,1.912,0.104   C24.519,38.693,24.546,38.699,24.565,38.727z" clip-rule="evenodd" fill-rule="evenodd"/><path fill="#1B2024" d="M35.323,51.998c-0.925,0.02-1.826-0.119-2.708-0.363   c-0.253-0.07-0.502-0.09-0.757-0.096c-0.311-0.006-0.623-0.006-0.934-0.013c-0.046-0.001-0.094-0.008-0.137-0.024   c-0.993-0.396-2.042-0.578-3.079-0.806c-0.543-0.118-1.084-0.223-1.602-0.456c-0.375-0.168-0.801-0.223-1.208-0.312   c-0.704-0.154-1.35-0.471-2.033-0.682c-0.068-0.021-0.134-0.042-0.206-0.045c-0.408-0.022-0.774-0.173-1.125-0.369   c-0.322-0.181-0.646-0.356-0.969-0.537c-0.095-0.052-0.198-0.098-0.263-0.218c0.23,0.036,0.433,0.116,0.631,0.193   c0.874,0.342,1.773,0.597,2.679,0.837c0.557,0.146,1.125,0.262,1.662,0.463c0.608,0.229,1.234,0.316,1.869,0.387   c0.538,0.061,1.026,0.288,1.526,0.471c0.84,0.306,1.688,0.584,2.579,0.695c0.319,0.039,0.644,0.042,0.967,0.064   c0.255,0.02,0.494,0.08,0.708,0.238c0.16,0.117,0.36,0.104,0.545,0.096c0.427-0.02,0.846,0.007,1.25,0.154   c0.176,0.065,0.345,0.144,0.517,0.22C35.276,51.914,35.32,51.938,35.323,51.998z" clip-rule="evenodd" fill-rule="evenodd"/><path fill="#1B2024" d="M30.147,50.084c1.157,0.152,2.313,0.312,3.461,0.524   c0.498,0.091,1.002,0.107,1.505,0.103c0.26-0.003,0.512,0.047,0.767,0.063c0.625,0.04,1.25,0.058,1.875,0.057   c0.385-0.001,0.713,0.155,1.041,0.329c0.219,0.115,0.367,0.328,0.597,0.427c0.029,0.013,0.075,0.036,0.063,0.075   c-0.009,0.027-0.047,0.057-0.077,0.062c-0.058,0.014-0.117,0.021-0.174,0.016c-0.633-0.068-1.245-0.234-1.868-0.351   c-0.034-0.006-0.068-0.023-0.102-0.023c-0.613-0.007-1.215-0.119-1.82-0.196c-0.518-0.066-1.028-0.186-1.544-0.27   c-1.031-0.167-2.07-0.284-3.095-0.497c-0.367-0.077-0.734-0.157-1.088-0.283c0.016-0.09,0.102-0.091,0.148-0.074   C29.94,50.088,30.046,50.053,30.147,50.084z" clip-rule="evenodd" fill-rule="evenodd"/><path fill="#1B2024" d="M16.934,44.498c-0.413-0.084-0.678-0.281-0.802-0.648   c-0.021-0.064-0.039-0.108-0.124-0.121c-0.202-0.031-0.307-0.176-0.326-0.365c-0.049-0.483-0.127-0.966-0.098-1.453   c0.007-0.137,0.065-0.25,0.163-0.357c0.156-0.17,0.356-0.286,0.508-0.458c0.021-0.024,0.053-0.055,0.09-0.038   c0.046,0.021,0.016,0.06,0.013,0.092c-0.011,0.117-0.008,0.234,0.013,0.35c0.055,0.311,0.083,0.613-0.068,0.909   c-0.111,0.218-0.096,0.429,0.03,0.651c0.157,0.275,0.25,0.578,0.259,0.904C16.599,44.182,16.757,44.33,16.934,44.498z" clip-rule="evenodd" fill-rule="evenodd"/><path fill="#83BCE4" d="M46.169,34.205c0.226,0.178,0.374,0.43,0.603,0.65   c-0.003-0.23-0.072-0.412-0.143-0.594c-0.145-0.374-0.382-0.696-0.591-1.035c-0.036-0.06-0.071-0.12-0.105-0.18   c0.205,0.114,0.329,0.31,0.472,0.485c0.194,0.241,0.372,0.498,0.596,0.716c0.076,0.074,0.155,0.146,0.253,0.186   c0.207,0.085,0.31,0.242,0.345,0.453c0.016,0.092,0.034,0.184,0.053,0.275c-0.311-0.111-0.622-0.096-0.934-0.005   c-0.45,0.13-0.913,0.126-1.373,0.146c-0.095,0.004-0.188,0.022-0.281,0.031c-0.105,0.009-0.207-0.003-0.309-0.085   c0.496-0.284,0.914-0.649,1.335-1.012C46.109,34.219,46.141,34.215,46.169,34.205z" clip-rule="evenodd" fill-rule="evenodd"/><path fill="#84BCE2" d="M49.656,28.631c-0.084,0.064-0.19,0.073-0.281,0.117   c-0.016,0.008-0.102-0.006-0.044,0.063c-0.034,0.046-0.093,0.055-0.123,0.021c-0.092-0.103-0.202-0.077-0.307-0.054   c-0.229,0.049-0.466,0.033-0.69,0.104c-0.082,0.008-0.165,0.057-0.247-0.001c0.468-0.09,0.925-0.239,1.407-0.253   c0.057-0.029,0.123,0.007,0.181-0.025c0.022-0.004,0.044-0.008,0.066-0.01C49.654,28.582,49.664,28.598,49.656,28.631z" clip-rule="evenodd" fill-rule="evenodd"/><path fill="#DFE7ED" d="M31.561,25.43c-0.391,0.162-0.781,0.324-1.171,0.487   c0.101-0.128,0.245-0.204,0.36-0.314c0.071,0.098,0.148,0.024,0.216-0.003c0.182-0.077,0.354-0.178,0.554-0.208   C31.536,25.4,31.558,25.404,31.561,25.43z" clip-rule="evenodd" fill-rule="evenodd"/><path fill="#8FB5BC" d="M47.181,29.086c-0.083-0.061-0.183-0.005-0.271-0.047   c0.118-0.009,0.229-0.066,0.353-0.048c0.2,0.023,0.391-0.055,0.588-0.062c0.075-0.003,0.15-0.032,0.218,0.024   c-0.012,0.039-0.04,0.062-0.076,0.062C47.718,29.008,47.451,29.078,47.181,29.086z" clip-rule="evenodd" fill-rule="evenodd"/><path fill="#D8E3E8" d="M48.067,28.953c-0.183-0.014-0.358,0.022-0.537,0.055   c-0.091,0.018-0.183,0.039-0.269-0.017c0.233-0.036,0.468-0.073,0.702-0.109c0.082,0,0.165,0.001,0.247,0.001   C48.178,28.938,48.099,28.896,48.067,28.953z" clip-rule="evenodd" fill-rule="evenodd"/><path fill="#7A7E81" d="M30.147,50.084c-0.15,0.045-0.314-0.08-0.458,0.036   c-0.089-0.017-0.178-0.034-0.267-0.052c0.002-0.016,0.004-0.031,0.006-0.046C29.669,50.004,29.909,50.018,30.147,50.084z" clip-rule="evenodd" fill-rule="evenodd"/><path fill="#EAF0F1" d="M27.249,48.996c0.034-0.013,0.095,0.002,0.067-0.07   c0.067,0.008,0.134,0.014,0.252,0.023c-0.256,0.141-0.481,0.113-0.702,0.105C26.988,48.996,27.129,49.074,27.249,48.996z" clip-rule="evenodd" fill-rule="evenodd"/><path fill="#4A4D51" d="M46.443,29.193c-0.051-0.051-0.117-0.018-0.176-0.033   c0.166-0.047,0.329-0.057,0.495,0.001C46.655,29.172,46.55,29.183,46.443,29.193z" clip-rule="evenodd" fill-rule="evenodd"/><path fill="#364045" d="M2.548,33.045c0.067-0.062,0.146-0.035,0.223-0.029   C2.7,33.054,2.625,33.057,2.548,33.045z" clip-rule="evenodd" fill-rule="evenodd"/><path fill="#364045" d="M2.334,33.048c0.061,0,0.123,0,0.183,0   c-0.043,0.026-0.089,0.042-0.142,0.036C2.362,33.072,2.348,33.06,2.334,33.048z" clip-rule="evenodd" fill-rule="evenodd"/><path fill="#83BCE4" d="M16.847,37.463c0.148-0.068,0.296-0.137,0.468-0.217   c-0.128-0.076-0.242-0.015-0.358-0.047c0.034-0.115,0.129-0.189,0.201-0.27c0.296-0.336,0.559-0.693,0.796-1.073   c0.214-0.342,0.487-0.627,0.818-0.865c0.281-0.2,0.52-0.459,0.757-0.712c0.131-0.139,0.276-0.256,0.447-0.338   c0.308-0.148,0.558-0.362,0.76-0.641c0.387-0.533,0.931-0.868,1.504-1.163c0.247-0.126,0.501-0.097,0.757-0.028   c0.255,0.067,0.506,0.152,0.771,0.178c0.23,0.023,0.441-0.006,0.622-0.175c0.634-0.596,1.382-1.011,2.18-1.337   c0.156-0.064,0.293-0.175,0.468-0.195c0.008,0.066-0.042,0.094-0.085,0.123c-0.618,0.397-1.185,0.869-1.789,1.285   c-0.677,0.467-1.363,0.923-2.083,1.324c-0.194,0.107-0.376,0.236-0.521,0.434c0.152-0.031,0.263-0.1,0.374-0.174   c0.527-0.355,1.044-0.73,1.613-1.012c1.007-0.494,1.938-1.136,2.981-1.558c0.922-0.372,1.796-0.85,2.718-1.222   c0.19-0.076,0.383-0.148,0.584-0.196c0.368-0.088,0.707-0.259,1.046-0.418c0.492-0.229,1.007-0.394,1.505-0.602   c0.847-0.351,1.733-0.597,2.554-1.019c0.492-0.252,1.032-0.395,1.562-0.548c0.712-0.204,1.423-0.407,2.125-0.642   c0.686-0.229,1.405-0.338,2.106-0.51c1.365-0.337,2.745-0.602,4.124-0.869c1.032-0.201,2.072-0.359,3.12-0.455   c0.474-0.043,0.943-0.119,1.419-0.16c0.069-0.006,0.14-0.015,0.211-0.01c0.141,0.012,0.271,0.017,0.39-0.1   c0.079-0.078,0.202-0.042,0.305-0.012c0.126,0.037,0.239,0.033,0.352-0.046c0.099-0.07,0.214-0.086,0.335-0.091   c0.324-0.016,0.645,0.023,0.969,0.039c0.061,0.004,0.137-0.002,0.14,0.095c-0.031,0.063-0.095,0.063-0.152,0.071   c-0.941,0.132-1.883,0.281-2.831,0.372c-0.434,0.041-0.837,0.179-1.256,0.263c-1.043,0.211-2.096,0.374-3.138,0.59   c-0.339,0.07-0.678,0.146-1.012,0.242c-0.315,0.092-0.633,0.17-0.963,0.209c-0.428,0.051-0.828,0.221-1.23,0.366   c-0.426,0.154-0.854,0.304-1.301,0.388c-0.663,0.029-1.326,0.084-1.976,0.221c-0.388,0.082-0.757,0.251-1.133,0.382   c-0.356,0.122-0.7,0.271-1.039,0.438c-0.35,0.172-0.733,0.25-1.112,0.338c-0.491,0.113-0.976,0.242-1.436,0.468   c-0.296,0.146-0.633,0.211-0.941,0.345c-0.591,0.258-1.197,0.484-1.739,0.843c-0.116,0.076-0.248,0.11-0.381,0.132   c-0.274,0.047-0.503,0.189-0.733,0.334c0.321-0.143,0.671-0.209,0.979-0.386c0.392-0.224,0.819-0.36,1.25-0.474   c0.597-0.158,1.173-0.381,1.765-0.552c0.409-0.117,0.822-0.204,1.237-0.288c0.346-0.068,0.687-0.151,1.025-0.254   c0.045-0.013,0.09-0.025,0.133-0.043c0.268-0.076,0.539-0.137,0.813-0.186c0.695-0.072,1.394-0.123,2.072-0.287   c0.331-0.08,0.662-0.166,1.001-0.184c0.508-0.026,0.994-0.17,1.494-0.225c0.113-0.012,0.223-0.024,0.333-0.007   c0.058,0.009,0.128,0.021,0.086,0.11c-0.109,0.09-0.245,0.111-0.374,0.146c-1.354,0.373-2.708,0.739-4.075,1.062   c-0.549,0.129-1.062,0.375-1.592,0.568c-0.486,0.178-0.966,0.369-1.456,0.536c-0.07,0.023-0.141,0.069-0.219,0.021   c-0.412,0.036-0.82,0.136-1.188,0.297c-0.679,0.295-1.383,0.52-2.065,0.799c-0.493,0.202-0.961,0.453-1.466,0.635   c-0.6,0.216-1.197,0.437-1.8,0.645c-0.285,0.098-0.547,0.211-0.77,0.432c-0.34,0.339-0.787,0.527-1.199,0.763   c-0.091,0.052-0.19,0.092-0.265,0.17c-0.022,0.064-0.083,0.077-0.137,0.099c-0.265,0.109-0.523,0.238-0.786,0.354   c-0.666,0.293-1.261,0.698-1.857,1.105c-0.228,0.156-0.452,0.316-0.68,0.471c-0.343,0.232-0.638,0.512-0.913,0.82   c-0.227,0.255-0.462,0.498-0.653,0.781c-0.022,0.033-0.049,0.068-0.096,0.07c-0.17,0.068-0.348,0.055-0.522,0.031   c-0.464-0.062-0.926-0.135-1.396-0.128c-0.263,0.004-0.523,0.029-0.784,0.074c-0.157,0.028-0.324,0.031-0.486,0.038   c-0.335,0.012-0.633,0.168-0.958,0.215C17.06,37.486,16.952,37.531,16.847,37.463z" clip-rule="evenodd" fill-rule="evenodd"/><path fill="#1B2024" d="M35.192,29.801c0.947-0.314,1.872-0.689,2.806-1.035   c0.535-0.198,1.102-0.283,1.652-0.428c1.077-0.283,2.155-0.564,3.226-0.873c0.101-0.078,0.218-0.109,0.339-0.141   c1.976-0.522,3.988-0.844,6.007-1.137c1.64-0.239,3.282-0.461,4.917-0.733c0.086-0.015,0.177-0.005,0.262-0.035   c0.853-0.095,1.701-0.22,2.556-0.285c0.632-0.048,1.267-0.071,1.901-0.021c0.268,0.021,0.538-0.024,0.807-0.043   c0.578-0.04,1.151-0.029,1.717,0.105c0.086,0.021,0.172,0.042,0.24,0.105c0.038,0.041,0.063,0.092,0.015,0.139   c-0.066,0.062-0.146,0.099-0.237,0.045c-0.528-0.029-1.055,0.021-1.582,0.045c-1.689,0.075-3.369,0.263-5.046,0.477   c-0.586,0.074-1.176,0.135-1.757,0.252c-0.452,0.026-0.899,0.09-1.345,0.156c-2.125,0.314-4.201,0.869-6.302,1.304   c-1.117,0.229-2.209,0.55-3.317,0.807c-0.503,0.117-1.02,0.155-1.524,0.255c-0.732,0.143-1.442,0.38-2.156,0.586   c-1.806,0.523-3.583,1.133-5.365,1.73c-0.211,0.07-0.423,0.141-0.634,0.211c-0.036,0.009-0.046-0.006-0.036-0.039   c0.922-0.506,1.844-1.013,2.819-1.414C35.167,29.828,35.179,29.812,35.192,29.801z" clip-rule="evenodd" fill-rule="evenodd"/><path fill="#1B2024" d="M21.314,37.24c0.475-0.678,1.022-1.285,1.71-1.755   c0.547-0.374,1.088-0.76,1.653-1.106c0.555-0.341,1.153-0.602,1.76-0.839c0.307-0.036,0.585-0.166,0.874-0.261   c0.193-0.064,0.385-0.133,0.585-0.202c-0.004,0.074-0.054,0.085-0.089,0.11c-0.785,0.546-1.595,1.053-2.449,1.488   c-0.631,0.322-1.165,0.789-1.718,1.223c-0.79,0.617-1.57,1.247-2.34,1.889c-0.09,0.074-0.16,0.174-0.293,0.227   C21.108,37.743,21.166,37.474,21.314,37.24z" clip-rule="evenodd" fill-rule="evenodd"/><path fill="#7FA8B3" d="M49.656,28.631c-0.015-0.012-0.026-0.023-0.038-0.037   c0.083-0.02,0.17-0.145,0.251,0.004C49.801,28.629,49.731,28.658,49.656,28.631z" clip-rule="evenodd" fill-rule="evenodd"/><path fill="#232A2E" d="M28.2,32.855c-0.019,0.075-0.066,0.105-0.138,0.149   C28.065,32.898,28.113,32.869,28.2,32.855z" clip-rule="evenodd" fill-rule="evenodd"/><path fill="#3A4045" d="M32.333,31.248c0.013,0.014,0.024,0.025,0.036,0.039   c-0.071,0.031-0.142,0.062-0.213,0.095C32.195,31.303,32.266,31.277,32.333,31.248z" clip-rule="evenodd" fill-rule="evenodd"/><path fill="#7FA8B3" d="M49.552,28.604c-0.055,0.051-0.119,0.027-0.181,0.025   C49.426,28.586,49.489,28.604,49.552,28.604z" clip-rule="evenodd" fill-rule="evenodd"/><path fill="#83BCE4" d="M13.349,31.566c-0.504,0.119-1.021,0.153-1.534,0.207   c-1.512,0.156-3.031,0.242-4.536,0.465C7.25,32.22,7.144,32.266,7.223,32.16c0.408-0.541,0.85-1.031,1.443-1.394   c0.509-0.312,1.042-0.562,1.576-0.815c0.035-0.018,0.069-0.065,0.109-0.035c0.048,0.035,0.012,0.086-0.003,0.128   c-0.17,0.482-0.346,0.961-0.582,1.415c-0.01,0.021-0.02,0.043-0.03,0.064c-0.019,0.043-0.046,0.091-0.003,0.129   c0.037,0.034,0.077,0,0.114-0.016c0.512-0.23,1.042-0.416,1.499-0.762c0.49-0.372,1.079-0.559,1.644-0.783   c0.398-0.16,0.772-0.369,1.159-0.549c0.148-0.068,0.287-0.152,0.482-0.19c-0.123,0.15-0.149,0.303-0.18,0.458   c-0.061,0.31-0.266,0.54-0.46,0.776C13.742,30.891,13.479,31.186,13.349,31.566z" clip-rule="evenodd" fill-rule="evenodd"/><path fill="#83BCE4" d="M21.423,31.604c-0.562-0.008-1.121-0.049-1.68-0.102   c-0.424-0.041-0.853-0.031-1.28-0.044c0.118-0.185,0.331-0.235,0.498-0.351c0.26-0.18,0.534-0.338,0.798-0.513   c0.876-0.576,1.825-0.986,2.837-1.255c0.413-0.109,0.822-0.232,1.238-0.33c0.34-0.08,0.69-0.123,1.031-0.201   c0.287-0.064,0.571-0.131,0.867-0.142c0.124-0.005,0.253-0.021,0.392,0.06c-0.112,0.062-0.207,0.098-0.309,0.123   c-0.255,0.066-0.462,0.219-0.677,0.361c-0.232,0.156-0.469,0.311-0.713,0.441c-0.722,0.389-1.414,0.812-1.97,1.425   c-0.126,0.138-0.261,0.268-0.342,0.44c-0.039,0.082-0.117,0.088-0.197,0.087C21.752,31.604,21.588,31.604,21.423,31.604z" clip-rule="evenodd" fill-rule="evenodd"/><path fill="#83BCE4" d="M18.319,31.455c-0.55,0-1.101-0.007-1.651,0.002   c-0.801,0.014-1.604,0.01-2.404,0.063c-0.164,0.011-0.328,0.011-0.491,0.016c-0.102-0.021-0.056-0.076-0.013-0.102   c0.334-0.196,0.628-0.454,0.988-0.608c0.685-0.291,1.395-0.521,2.064-0.848c0.562-0.273,1.142-0.479,1.753-0.621   c0.306-0.073,0.583-0.271,0.872-0.412c0.056-0.028,0.114-0.094,0.173-0.035c0.053,0.053,0.005,0.115-0.021,0.176   c-0.148,0.338-0.38,0.619-0.601,0.906c-0.21,0.274-0.366,0.572-0.473,0.898C18.452,31.079,18.385,31.268,18.319,31.455z" clip-rule="evenodd" fill-rule="evenodd"/><path fill="#88B8C2" d="M47.823,23.104c-0.153,0.029-0.29-0.043-0.433-0.076   c-0.091-0.02-0.017-0.096,0.018-0.133c0.156-0.166,0.316-0.326,0.51-0.451c0.166-0.108,0.335-0.213,0.473-0.359   c0.028-0.029,0.091-0.068-0.009-0.086c0.522-0.189,1.067-0.272,1.613-0.352c1.146-0.164,2.303-0.225,3.45-0.387   c0.341-0.049,0.663-0.184,1.019-0.188c1.005-0.01,1.993,0.106,2.966,0.357c0.124,0.032,0.223,0.102,0.317,0.181   c0.068,0.058,0.089,0.104-0.025,0.138c-0.242,0.072-0.489,0.043-0.733,0.051c-0.691,0.018-1.384,0.004-2.075,0.038   c-0.742,0.036-1.481,0.126-2.222,0.212c-0.507,0.059-1.017,0.09-1.525,0.148c-0.962,0.113-1.88,0.406-2.799,0.698   c-0.134,0.042-0.268,0.087-0.402,0.13C47.936,23.084,47.841,23.021,47.823,23.104z" clip-rule="evenodd" fill-rule="evenodd"/><path fill="#FCFDFD" d="M31.561,25.43c-0.014-0.014-0.028-0.025-0.041-0.038   c0.151-0.077,0.299-0.159,0.452-0.232c0.823-0.399,1.678-0.71,2.566-0.93c0.051-0.013,0.1-0.03,0.15-0.046   c0.074-0.022,0.109-0.004,0.081,0.078c-0.486,0.182-0.971,0.367-1.458,0.546c-0.494,0.181-0.998,0.336-1.48,0.548   C31.744,25.394,31.655,25.425,31.561,25.43z" clip-rule="evenodd" fill-rule="evenodd"/><path fill="#657279" d="M47.823,23.104c-0.017-0.012-0.071-0.011-0.024-0.048   c0.047-0.036,0.108-0.033,0.166-0.03c0.061,0.075,0.146,0.013,0.213,0.039C48.065,23.133,47.94,23.075,47.823,23.104z" clip-rule="evenodd" fill-rule="evenodd"/><path fill="#E0E9EF" d="M34.768,24.262c-0.002-0.051-0.034-0.072-0.081-0.078   c0.029-0.041,0.073-0.037,0.116-0.039c0.026,0.009,0.078,0.021,0.076,0.026C34.869,24.23,34.822,24.253,34.768,24.262z" clip-rule="evenodd" fill-rule="evenodd"/><path fill="#FFFFFF" d="M61.398,25.465c0.062-0.017,0.121-0.037,0.183-0.049   c0.079-0.016,0.053-0.059,0.034-0.103c0.022-0.089,0.097-0.077,0.157-0.071c0.326,0.028,0.641-0.066,0.961-0.091   c0.081-0.007,0.155-0.042,0.169-0.132c0.015-0.104-0.058-0.164-0.141-0.2c-0.24-0.104-0.498-0.142-0.756-0.153   c-0.412-0.021-0.817-0.074-1.207-0.221c-0.2-0.074-0.408-0.107-0.623-0.102c-0.534,0.02-1.064-0.075-1.598-0.086   c-0.055-0.031-0.171-0.01-0.157-0.097c0.014-0.075,0.117-0.057,0.185-0.056c0.229,0.004,0.456-0.016,0.681-0.064   c0.298-0.07,0.599-0.125,0.906-0.117c0.264,0.008,0.526-0.051,0.791-0.038c0.05,0.003,0.113,0.003,0.13-0.063   c0.014-0.061-0.027-0.103-0.07-0.132c-0.159-0.106-0.327-0.21-0.522-0.183c-0.351,0.049-0.705,0.035-1.056,0.045   c-0.448,0.012-0.887,0.086-1.33,0.129c-0.429,0.043-0.857,0.035-1.285,0.025c-0.436-0.01-0.853,0.084-1.272,0.171   c-0.754,0.158-1.511,0.294-2.275,0.38c-0.076,0.009-0.152,0.029-0.219-0.032c-0.41-0.071-0.823-0.099-1.238-0.065   c-0.018,0.002-0.036,0.008-0.051,0.018c-0.199,0.141-0.41,0.174-0.641,0.084c-0.046-0.018-0.126-0.022-0.148,0.026   c-0.083,0.173-0.226,0.118-0.36,0.117c-0.488-0.001-0.971,0.085-1.453,0.14c-0.571,0.062-1.143,0.123-1.712,0.207   c-0.99,0.145-1.973,0.35-2.957,0.535c-1.413,0.268-2.805,0.628-4.21,0.927c-0.48,0.103-0.949,0.267-1.414,0.431   c-0.549,0.193-1.119,0.306-1.675,0.475c-0.716,0.221-1.384,0.551-2.073,0.834c-0.826,0.338-1.676,0.614-2.507,0.938   c-0.552,0.215-1.076,0.514-1.64,0.684c-0.902,0.271-1.728,0.701-2.577,1.088c-0.635,0.289-1.285,0.543-1.902,0.873   c-0.403,0.217-0.807,0.436-1.193,0.681c-0.368,0.231-0.79,0.36-1.153,0.603c-0.396,0.266-0.802,0.514-1.196,0.781   c-0.152,0.102-0.315,0.166-0.506,0.243c0.044-0.185,0.172-0.272,0.285-0.366c0.305-0.253,0.675-0.402,1.001-0.622   c0.297-0.2,0.592-0.405,0.9-0.586c0.621-0.364,1.147-0.856,1.741-1.255c0.213-0.143,0.44-0.264,0.635-0.434   c0.113-0.059,0.222-0.129,0.34-0.176c0.848-0.335,1.624-0.811,2.428-1.23c0.593-0.31,1.219-0.515,1.861-0.685   c0.075-0.021,0.143-0.052,0.207-0.093c0.624-0.403,1.322-0.626,2.026-0.831c0.192-0.056,0.356-0.144,0.503-0.272   c0.126-0.112,0.291-0.109,0.443-0.131c0.407-0.057,0.771-0.24,1.156-0.365c0.045-0.055,0.108-0.074,0.171-0.072   c0.464,0.019,0.867-0.137,1.227-0.422c0.12-0.051,0.246-0.07,0.374-0.097c0.299-0.062,0.594-0.144,0.877-0.259   c0.341-0.138,0.709-0.154,1.062-0.24c0.062-0.015,0.125-0.03,0.18-0.068c0.145-0.076,0.302-0.113,0.459-0.152   c0.735-0.172,1.479-0.318,2.22-0.473c0.326-0.068,0.648-0.158,0.98-0.201c0.333-0.01,0.664,0.002,0.997-0.006   c0.281-0.007,0.543-0.074,0.726-0.314c0.076-0.159,0.226-0.187,0.374-0.173c0.509,0.046,0.989-0.103,1.501-0.19   c-0.197,0.004-0.372,0.005-0.548-0.02c-0.187-0.025-0.373-0.023-0.557,0.039c-0.252,0.086-0.508,0.043-0.76-0.012   c-0.093-0.074-0.089-0.188-0.11-0.289c-0.085-0.391-0.43-0.682-0.83-0.666c-0.339,0.014-0.677-0.061-1.017-0.002   c-0.232,0.041-0.456,0.104-0.67,0.201c-0.098,0.146-0.218,0.27-0.339,0.395c-0.104,0.107-0.076,0.25-0.086,0.382   c-0.027,0.29-0.173,0.431-0.479,0.429c-0.249-0.001-0.495,0.088-0.752,0.078c-0.162-0.006-0.314-0.036-0.448-0.13   c-0.209-0.352-0.544-0.427-0.918-0.442c-0.471-0.018-0.926,0.021-1.342,0.271c-0.093,0.055-0.178,0.112-0.229,0.21   c-0.005,0.119-0.04,0.221-0.124,0.312c-0.075,0.079-0.045,0.204-0.098,0.297c-0.072,0.079-0.173,0.091-0.27,0.11   c-0.292,0.059-0.587,0.088-0.882,0.109c-0.304-0.021-0.601-0.081-0.896-0.147c-0.103-0.022-0.207-0.044-0.311-0.015   c-0.15,0.043-0.189,0.146-0.115,0.289c-0.311,0.159-0.652,0.204-0.992,0.246c-0.249,0.031-0.492,0.057-0.702,0.219   c-0.103,0.078-0.241,0.006-0.359,0.039c-0.505-0.004-1.01-0.006-1.516-0.009c0.208-0.16,0.463-0.224,0.697-0.329   c0.337-0.152,0.667-0.328,1.017-0.44c1.32-0.423,2.569-1.031,3.886-1.467c0.477-0.157,0.923-0.407,1.411-0.544   c0.392-0.111,0.788-0.182,1.193-0.215c0.077-0.007,0.151-0.023,0.222-0.055c0.556-0.254,1.152-0.396,1.729-0.597   c0.306-0.106,0.637-0.085,0.954-0.141c0.74-0.13,1.465-0.329,2.203-0.467c1.394-0.261,2.77-0.62,4.176-0.825   c0.065-0.01,0.127-0.064,0.222-0.014c-0.166,0.114-0.333,0.203-0.508,0.255c-0.721,0.214-1.344,0.608-1.967,1.011   c-0.147,0.096-0.3,0.186-0.445,0.283c-0.138,0.092-0.24,0.218-0.247,0.386c-0.005,0.173,0.118,0.273,0.262,0.345   c0.234,0.117,0.486,0.182,0.748,0.17c0.875-0.037,1.751-0.049,2.626-0.034c0.136,0.003,0.269,0.009,0.404,0.02   c0.173,0.015,0.35,0.03,0.52-0.048c0.124-0.059,0.264-0.051,0.399-0.047c0.33,0.01,0.656-0.012,0.979-0.098   c0.229-0.062,0.466-0.051,0.699-0.066c0.573-0.039,1.148-0.057,1.724-0.076c0.125-0.004,0.245-0.027,0.365-0.055   c0.489-0.113,0.982-0.141,1.483-0.099c0.27,0.022,0.541,0.005,0.812,0.009c0.297,0.005,0.588,0,0.88,0.124   c0.223,0.095,0.486,0.054,0.733,0.058c0.515,0.011,1.033-0.043,1.536,0.125c0.095,0.033,0.214,0.025,0.314,0.004   c0.406-0.09,0.781,0.019,1.153,0.157c0.285,0.107,0.571,0.212,0.873,0.271c0.255,0.066,0.525,0.032,0.779,0.104   c0.588,0.205,1.178,0.396,1.75,0.641c0.238,0.103,0.461,0.234,0.661,0.397c0.282,0.23,0.248,0.447-0.086,0.593   c-0.416,0.182-0.852,0.29-1.3,0.352c-0.565,0.084-1.137,0.117-1.706,0.173c-0.07,0.006-0.139,0.006-0.204,0.037   c-0.42,0.055-0.839,0.077-1.264,0.044c-0.414-0.032-0.832-0.014-1.25-0.041c-0.421-0.027-0.844-0.031-1.267-0.048   c-0.067-0.003-0.136-0.021-0.204-0.041c0.296-0.048,0.601-0.035,0.89-0.083c0.369-0.062,0.762-0.026,1.107-0.225   c0.141-0.08,0.313-0.021,0.471-0.037C61.287,25.483,61.35,25.518,61.398,25.465z" clip-rule="evenodd" fill-rule="evenodd"/><path fill="#E3E9EE" d="M62.749,25.919c0.099-0.088,0.229-0.089,0.346-0.101   c0.369-0.038,0.741-0.061,1.113-0.074c0.151-0.006,0.297-0.064,0.45-0.035c-0.354,0.104-0.722,0.126-1.086,0.168   C63.3,25.908,63.025,25.936,62.749,25.919z" clip-rule="evenodd" fill-rule="evenodd"/><path fill="#E1E9EE" d="M63.634,23.727c-0.267,0.018-0.53,0.008-0.779-0.104   c0.198,0.006,0.396-0.018,0.594,0.02C63.515,23.654,63.586,23.666,63.634,23.727z" clip-rule="evenodd" fill-rule="evenodd"/><path fill="#83BCE4" d="M43.487,31.419c0.224,0.153,0.403,0.356,0.584,0.556   c0.319,0.354,0.736,0.597,1.061,0.946c0.119,0.13,0.239,0.257,0.318,0.416c0.11,0.222,0.259,0.414,0.423,0.597   c-0.038,0.085-0.114,0.092-0.192,0.097c-0.355,0.024-0.717,0.025-1.068,0.079c-0.396,0.059-0.795,0.067-1.189,0.123   c-0.177,0.025-0.347-0.021-0.564-0.036c0.276-0.253,0.521-0.478,0.847-0.597c0.301-0.108,0.574-0.27,0.827-0.461   c0.124-0.094,0.287-0.131,0.389-0.265c-0.06-0.06-0.128-0.033-0.188-0.035c-0.635-0.017-1.267,0.079-1.898,0.061   c-0.773-0.022-1.529,0.055-2.284,0.204c-0.188,0.037-0.384,0.038-0.577,0.049c-0.048,0.003-0.124,0.025-0.143-0.033   c-0.02-0.067,0.06-0.092,0.105-0.12c0.255-0.157,0.508-0.315,0.767-0.466c0.653-0.383,1.366-0.645,2.033-1.002   c0.119-0.062,0.25-0.104,0.388-0.111C43.245,31.359,43.366,31.336,43.487,31.419z" clip-rule="evenodd" fill-rule="evenodd"/><path fill="#83BCE4" d="M43.487,31.419c-0.121,0.001-0.242,0.001-0.363,0.001   c0.036-0.061,0.002-0.069-0.049-0.068c-0.363,0.008-0.727-0.005-1.09,0.026c-0.343,0.029-0.687,0.054-1.028,0.102   c-0.504,0.071-1.004,0.156-1.503,0.261c-1.278,0.269-2.571,0.46-3.849,0.742c-0.056,0.012-0.109,0.048-0.187,0.021   c0.109-0.104,0.237-0.16,0.364-0.209c0.182-0.071,0.347-0.168,0.51-0.275c0.408-0.268,0.881-0.378,1.337-0.528   c0.443-0.146,0.915-0.222,1.315-0.484c0.02-0.013,0.038-0.028,0.056-0.042c1.008-0.256,2.016-0.51,3.021-0.769   c0.092-0.023,0.16-0.011,0.226,0.05C42.662,30.637,43.097,31.004,43.487,31.419z" clip-rule="evenodd" fill-rule="evenodd"/><path fill="#FFFFFF" d="M18.25,27.469c0.656-0.057,1.312-0.107,1.968-0.169   c0.83-0.079,1.666-0.052,2.496-0.153c0.455-0.057,0.912-0.09,1.369-0.137c0.903-0.094,1.803-0.212,2.708-0.287   c0.901-0.074,1.804-0.09,2.708-0.104c1.081-0.017,2.16-0.092,3.243-0.076c0.147,0.002,0.293,0.002,0.44,0.002   c0.234,0,0.468,0,0.718,0c-0.113,0.252-0.319,0.322-0.539,0.314c-0.571-0.023-1.134,0.106-1.704,0.075   c-1.11-0.061-2.22-0.048-3.329-0.022c-0.914,0.023-1.828,0.084-2.738,0.162c-0.689,0.059-1.381,0.1-2.07,0.15   c-0.906,0.066-1.811,0.143-2.717,0.199c-0.661,0.043-1.325,0.059-1.987,0.085c-0.172,0.029-0.345,0.007-0.517,0.012   C18.267,27.521,18.247,27.506,18.25,27.469z" clip-rule="evenodd" fill-rule="evenodd"/><path fill="#1B2024" d="M37.403,26.339c-0.313,0.284-0.684,0.424-1.104,0.438   c-0.099,0.004-0.197,0.014-0.295,0.02c-0.314-0.064-0.629-0.117-0.916-0.271c-0.061-0.032-0.131-0.052-0.172-0.112   c0.108-0.104,0.233-0.076,0.354-0.041c0.362,0.106,0.72,0.07,1.074-0.031c0.319-0.091,0.354-0.207,0.15-0.469   c-0.098-0.126-0.237-0.18-0.385-0.229c-0.197-0.065-0.402-0.051-0.603-0.08c-0.045-0.013-0.091-0.025-0.136-0.037   c-0.128-0.014-0.155-0.074-0.089-0.186c0.09-0.153,0.232-0.213,0.424-0.16c0.318,0.087,0.645,0.125,0.967,0.182   c0.19,0.035,0.379,0.075,0.562,0.127c0.16,0.047,0.355,0.076,0.388,0.277C37.658,25.99,37.601,26.197,37.403,26.339z" clip-rule="evenodd" fill-rule="evenodd"/><path fill="#88B8C2" d="M35.507,25.564c0.183-0.023,0.363,0.004,0.544,0.021   c0.282,0.027,0.467,0.186,0.596,0.436c0.082,0.154,0.038,0.231-0.105,0.295c-0.407,0.178-0.825,0.211-1.257,0.111   c-0.12-0.027-0.242-0.112-0.369-0.014c-0.02-0.01-0.056-0.019-0.057-0.03c-0.006-0.04,0.031-0.044,0.059-0.042   c0.107,0.01,0.114-0.031,0.101-0.133c-0.053-0.451,0.174-0.646,0.631-0.556c0.085,0.018,0.085,0.018,0.208-0.041   C35.745,25.566,35.615,25.645,35.507,25.564z" clip-rule="evenodd" fill-rule="evenodd"/><path fill="#C8D3DB" d="M18.25,27.469c0.184,0.082,0.379,0.011,0.567,0.04   c-0.086,0.058-0.183,0.03-0.273,0.028c-0.356-0.007-0.713,0.035-1.068-0.021c0.135-0.004,0.27-0.01,0.406-0.014   c0.097-0.037,0.204,0.014,0.299-0.033C18.204,27.469,18.227,27.469,18.25,27.469z" clip-rule="evenodd" fill-rule="evenodd"/><path fill="#C6D1D9" d="M18.181,27.469c-0.093,0.072-0.199,0.023-0.299,0.033   C17.979,27.465,18.08,27.463,18.181,27.469z" clip-rule="evenodd" fill-rule="evenodd"/><path fill="#1B2024" d="M53.083,24.226c0.831-0.074,1.649-0.218,2.463-0.397   c0.62-0.139,1.245-0.207,1.882-0.166c0.418,0.027,0.833-0.02,1.242-0.107c0.348-0.074,0.701-0.012,1.05-0.061   c0.22-0.03,0.447-0.008,0.668-0.034c0.261-0.031,0.483,0.05,0.697,0.18c0.082,0.05,0.133,0.116,0.105,0.22   c-0.03,0.108-0.123,0.092-0.203,0.092c-0.569,0.002-1.137,0.014-1.697,0.135c-0.324,0.033-0.652,0.025-0.975,0.068   c-0.237,0.031-0.479,0.029-0.712,0.082c-0.889,0.088-1.767,0.258-2.662,0.294c-0.404,0.017-0.809,0.039-1.214,0.069   c-0.339,0.025-0.667,0.131-1.007,0.17c-0.986,0.115-1.975,0.223-2.954,0.387c-0.133,0.023-0.265,0.057-0.398,0.07   c-0.231,0.043-0.456,0.115-0.683,0.174c-1.849,0.491-3.721,0.876-5.601,1.217c-1.219,0.222-2.391,0.615-3.562,1.006   c-0.534,0.179-1.065,0.369-1.619,0.481c-0.268,0.061-0.536,0.121-0.805,0.181c-0.039,0.013-0.047-0.01-0.046-0.043   c0.251-0.193,0.553-0.279,0.837-0.396c0.825-0.336,1.672-0.613,2.516-0.898c0.261-0.089,0.512-0.205,0.786-0.247   c0.563-0.122,1.103-0.327,1.646-0.515c0.359-0.124,0.716-0.258,1.104-0.271c0.236-0.008,0.456-0.107,0.682-0.17   c1.026-0.283,2.076-0.444,3.121-0.637c0.664-0.122,1.321-0.268,1.979-0.426c0.367-0.089,0.755-0.09,1.133-0.139   c0.722-0.094,1.442-0.194,2.163-0.293C53.042,24.248,53.063,24.234,53.083,24.226z" clip-rule="evenodd" fill-rule="evenodd"/><path fill="#666C71" d="M37.904,28.104c0.328-0.142,0.677-0.221,1.016-0.333   c1.146-0.379,2.284-0.791,3.464-1.053c0.979-0.215,1.964-0.39,2.946-0.586c1.326-0.264,2.641-0.584,3.945-0.943   c0.022-0.006,0.047-0.006,0.069-0.008c0.543-0.016,1.086,0.047,1.631-0.015c0.351-0.04,0.7,0.03,1.051,0.036   c0.734,0.014,1.451,0.2,2.187,0.203c0.063,0,0.13,0,0.175,0.059c-0.495,0.081-0.99,0.164-1.489,0.239   c-0.757,0.114-1.517,0.222-2.275,0.332c-0.764,0.111-1.528,0.226-2.292,0.337c-1.118,0.165-2.229,0.361-3.337,0.585   c-0.713,0.146-1.415,0.327-2.118,0.507c0.04-0.1-0.044-0.059-0.073-0.061c-0.226-0.016-0.447,0.021-0.664,0.066   c-0.447,0.096-0.901,0.154-1.355,0.193c-0.406,0.035-0.784,0.194-1.187,0.248C39.035,27.986,38.472,28.069,37.904,28.104z" clip-rule="evenodd" fill-rule="evenodd"/><path fill="#666C71" d="M41.192,26.7c-0.353,0.161-0.723,0.27-1.087,0.396   c-1.026,0.354-2.056,0.697-3.04,1.156c-0.012,0.035-0.073,0.024-0.071,0.074c-0.554,0.2-1.139,0.266-1.707,0.406   c-0.484,0.119-0.96,0.264-1.433,0.422c-0.466,0.156-0.941,0.289-1.41,0.436c-0.528,0.166-0.996,0.477-1.526,0.635   c-0.11,0.032-0.216,0.079-0.365,0.096c0.187-0.199,0.397-0.328,0.617-0.373c0.413-0.086,0.758-0.301,1.119-0.488   c0.599-0.312,1.229-0.551,1.852-0.809c0.836-0.344,1.714-0.551,2.582-0.793c0.474-0.133,0.896-0.405,1.363-0.567   c0.731-0.254,1.462-0.505,2.248-0.531C40.62,26.75,40.903,26.689,41.192,26.7z" clip-rule="evenodd" fill-rule="evenodd"/><path fill="#687479" d="M29.811,30.608c-0.205,0.143-0.458,0.13-0.672,0.239   C29.313,30.625,29.578,30.662,29.811,30.608z" clip-rule="evenodd" fill-rule="evenodd"/><path fill="#384045" d="M36.994,28.326c-0.032-0.078,0.042-0.055,0.071-0.074   c0.012,0.01,0.022,0.022,0.034,0.033C37.073,28.319,37.031,28.316,36.994,28.326z" clip-rule="evenodd" fill-rule="evenodd"/><path fill="#83BCE4" d="M54.388,25.465c-0.612,0.02-1.211-0.126-1.818-0.17   c-0.653-0.047-1.309-0.104-1.967-0.058c-0.381,0.026-0.763,0.008-1.144-0.022c-0.04-0.004-0.084,0.004-0.114-0.033   c1.114-0.215,2.24-0.336,3.365-0.461c0.402-0.045,0.788-0.181,1.198-0.185c0.462-0.003,0.922-0.053,1.382-0.081   c0.509-0.03,1.014-0.116,1.52-0.176c0.263-0.031,0.525-0.059,0.788-0.086c0.179-0.008,0.359,0.006,0.538-0.02   c0.154-0.021,0.301,0.033,0.45,0.047c0.599-0.009,1.192,0.098,1.794,0.076c0.17-0.006,0.336,0.057,0.493,0.118   c0.345,0.134,0.705,0.175,1.069,0.194c0.289,0.016,0.571,0.055,0.844,0.158c0.12,0.045,0.202,0.136,0.191,0.244   c-0.011,0.125-0.123,0.186-0.255,0.199c-0.252,0.024-0.504,0.049-0.751,0.094c-0.121,0.021-0.241-0.087-0.356,0.009   c-0.32-0.149-0.668-0.173-1.014-0.196c-0.485-0.031-0.973,0.004-1.459,0.037c-0.304,0.021-0.609,0.003-0.914-0.004   c-0.884-0.02-1.758,0.079-2.633,0.183C55.193,25.381,54.791,25.422,54.388,25.465z" clip-rule="evenodd" fill-rule="evenodd"/><path fill="#1B2024" d="M42.605,23.348c0.438-0.189,0.89-0.283,1.371-0.217   c0.225,0.031,0.467-0.055,0.678,0.044c0.31,0.144,0.538,0.373,0.585,0.735c0.01,0.068,0.029,0.137,0.045,0.205   c0.077,0.119,0.057,0.251,0.046,0.381c-0.108,0.205-0.299,0.292-0.511,0.33c-0.419,0.072-0.843,0.033-1.265,0.029   c-0.31-0.05-0.612-0.133-0.907-0.232c-0.138-0.048-0.321-0.094-0.325-0.306c0.149-0.063,0.307-0.075,0.466-0.071   c0.312,0.008,0.621-0.014,0.929-0.066c0.135-0.023,0.261-0.072,0.376-0.146c0.157-0.104,0.156-0.141,0.005-0.247   c-0.348-0.243-0.742-0.312-1.152-0.325c-0.07-0.002-0.142,0.005-0.211-0.006C42.672,23.445,42.599,23.442,42.605,23.348z" clip-rule="evenodd" fill-rule="evenodd"/><path fill="#1B2024" d="M40.33,25.526c-0.137,0.05-0.274,0.099-0.412,0.147   c-0.193,0.066-0.382,0.039-0.566-0.03c-0.214-0.079-0.427-0.158-0.638-0.245c-0.036-0.127,0.063-0.116,0.134-0.126   c0.179-0.026,0.361-0.029,0.539-0.069c0.088-0.02,0.208-0.027,0.222-0.139c0.015-0.115-0.093-0.171-0.181-0.213   c-0.293-0.145-0.604-0.184-0.925-0.141c-0.125,0.018-0.244-0.004-0.365-0.021c-0.067-0.009-0.125-0.036-0.14-0.112   c0.066-0.123,0.172-0.204,0.292-0.271c0.562-0.305,1.161-0.326,1.772-0.203c0.227,0.047,0.411,0.165,0.499,0.396   c0.085,0.074,0.115,0.169,0.112,0.279c-0.002,0.109,0.004,0.221-0.002,0.331C40.659,25.393,40.616,25.445,40.33,25.526z" clip-rule="evenodd" fill-rule="evenodd"/><path fill="#83BCE4" d="M40.33,25.526c0.238-0.054,0.29-0.229,0.293-0.44   c0.003-0.199,0.033-0.398-0.062-0.586c0.309,0.17,0.634,0.123,0.959,0.064c0.029-0.004,0.056-0.016,0.084-0.02   c0.146-0.016,0.304,0.001,0.435-0.052c0.145-0.059,0.073-0.268,0.178-0.372c0.109,0.033,0.1,0.131,0.114,0.215   c0.105,0.148,0.252,0.232,0.427,0.278c0.268,0.071,0.546,0.115,0.797,0.241c-0.795,0.166-1.589,0.334-2.385,0.498   C40.89,25.41,40.619,25.51,40.33,25.526z" clip-rule="evenodd" fill-rule="evenodd"/><path fill="#83BCE4" d="M38.723,25.386c0.179,0.009,0.336,0.091,0.498,0.157   c0.224,0.092,0.452,0.154,0.697,0.131c-0.174,0.107-0.369,0.131-0.567,0.15c-0.347,0.034-0.67,0.165-0.995,0.277   c-0.312,0.106-0.635,0.156-0.952,0.237c0.088-0.138,0.17-0.276,0.185-0.448c0.012-0.152-0.047-0.242-0.185-0.297   s-0.28-0.076-0.423-0.112c-0.106-0.027-0.218-0.048-0.309-0.118c0.333-0.047,0.67-0.067,0.999-0.144   c0.063-0.015,0.124-0.029,0.172-0.076c0.034-0.018,0.077-0.019,0.098,0.007c0.139,0.178,0.319,0.117,0.494,0.096   C38.562,25.229,38.679,25.232,38.723,25.386z" clip-rule="evenodd" fill-rule="evenodd"/><path fill="#88B8C2" d="M42.331,24.336c-0.079-0.051-0.055-0.155-0.114-0.215   c-0.051-0.163-0.018-0.307,0.107-0.422c0.112-0.104,0.228-0.202,0.281-0.352c0.095,0.111,0.229,0.07,0.346,0.07   c0.458,0,0.878,0.102,1.254,0.381c0.122,0.091,0.104,0.139,0.008,0.218c-0.206,0.168-0.451,0.223-0.704,0.243   C43.116,24.291,42.723,24.311,42.331,24.336z" clip-rule="evenodd" fill-rule="evenodd"/><path fill="#88B8C2" d="M38.723,25.386c-0.071-0.104-0.177-0.128-0.288-0.095   c-0.108,0.033-0.217,0.025-0.328,0.025c-0.069,0-0.156,0.02-0.155-0.105c0.001-0.054-0.076-0.037-0.108-0.068   c-0.018-0.115-0.002-0.23,0.077-0.312c0.077-0.076,0.113-0.15,0.078-0.253c0.145,0.128,0.32,0.089,0.485,0.085   c0.293-0.008,0.588-0.025,0.867,0.092c0.154,0.065,0.352,0.148,0.337,0.318c-0.016,0.176-0.24,0.172-0.39,0.2   s-0.304,0.03-0.455,0.049C38.798,25.326,38.729,25.301,38.723,25.386z" clip-rule="evenodd" fill-rule="evenodd"/><path fill="#84BDE4" d="M45.33,24.496c-0.023-0.127-0.061-0.25-0.046-0.381   c0.394,0.09,0.775-0.07,1.164-0.059c0.284,0.008,0.569,0.037,0.859,0.023c-0.007,0.1-0.075,0.091-0.117,0.098   c-0.526,0.077-1.04,0.249-1.582,0.195C45.505,24.362,45.382,24.366,45.33,24.496z" clip-rule="evenodd" fill-rule="evenodd"/><path fill="#DAE4E9" d="M58.586,24.221c-0.292,0.001-0.583,0.003-0.876,0.004   c-0.04,0-0.082,0.002-0.112-0.031c0.226-0.074,0.465-0.084,0.693-0.088c0.333-0.005,0.665-0.04,0.999-0.02   c-0.211,0.064-0.427,0.07-0.646,0.066c-0.063-0.001-0.127,0-0.207,0C58.482,24.211,58.557,24.168,58.586,24.221z" clip-rule="evenodd" fill-rule="evenodd"/></svg>