<svg xmlns="http://www.w3.org/2000/svg" version="1.1" id="Layer_1" x="0px" y="0px" width="70px" height="70px" viewBox="0 0 70 70" enable-background="new 0 0 70 70" xml:space="preserve"><path id="masterbrand" fill="#010101" d="M52.262,42.353c0.048-0.038,0.086-0.087,0.112-0.143c0.027-0.077,0.039-0.158,0.035-0.239  v-7.798c0.004-0.082-0.008-0.164-0.035-0.242c-0.024-0.056-0.062-0.104-0.112-0.14c-0.119-0.093-0.393-0.14-0.822-0.14  c-0.438,0-0.716,0.047-0.835,0.14c-0.049,0.036-0.088,0.084-0.112,0.14c-0.027,0.078-0.039,0.16-0.035,0.242v7.798  c-0.013,0.143,0.041,0.284,0.147,0.382c0.119,0.093,0.397,0.14,0.835,0.14C51.869,42.493,52.143,42.447,52.262,42.353z   M46.445,42.398c0.408-0.131,0.783-0.348,1.099-0.637c0.284-0.267,0.5-0.598,0.631-0.965c0.137-0.39,0.205-0.801,0.201-1.214v-5.409  c0.016-0.142-0.036-0.284-0.14-0.382c-0.127-0.093-0.401-0.14-0.822-0.14c-0.438,0-0.716,0.047-0.835,0.14  c-0.052,0.034-0.092,0.083-0.115,0.14c-0.025,0.078-0.035,0.16-0.032,0.242v5.384c-0.002,0.222-0.039,0.443-0.112,0.653  c-0.088,0.239-0.262,0.437-0.487,0.554c-0.306,0.16-0.649,0.235-0.994,0.22c-0.247,0.005-0.493-0.029-0.73-0.102  c-0.185-0.058-0.353-0.157-0.494-0.29c-0.128-0.126-0.224-0.281-0.28-0.452c-0.061-0.188-0.092-0.385-0.089-0.583v-5.384  c0.016-0.142-0.036-0.284-0.14-0.382c-0.127-0.093-0.401-0.14-0.822-0.14c-0.437,0-0.716,0.047-0.835,0.14  c-0.052,0.034-0.092,0.083-0.115,0.14c-0.025,0.078-0.035,0.16-0.032,0.242v5.409c-0.004,0.413,0.064,0.824,0.201,1.214  c0.131,0.367,0.347,0.698,0.631,0.965c0.316,0.289,0.691,0.506,1.099,0.637C44.282,42.704,45.396,42.704,46.445,42.398z   M36.914,42.353c0.048-0.038,0.085-0.087,0.108-0.143c0.025-0.077,0.036-0.158,0.032-0.239v-6.652h1.943  c0.118,0.003,0.236-0.011,0.35-0.041c0.092-0.03,0.168-0.095,0.21-0.182c0.07-0.151,0.116-0.312,0.137-0.478  c0.028-0.162,0.044-0.326,0.048-0.491c0.003-0.078-0.006-0.157-0.026-0.233c-0.018-0.054-0.054-0.1-0.102-0.131  c-0.043-0.024-0.091-0.041-0.14-0.048c-0.084-0.012-0.17-0.018-0.255-0.016h-6.053c-0.118-0.003-0.236,0.011-0.35,0.041  c-0.092,0.03-0.167,0.095-0.21,0.182c-0.068,0.132-0.114,0.274-0.137,0.42c-0.032,0.179-0.048,0.36-0.048,0.542  c-0.003,0.08,0.006,0.161,0.026,0.239c0.019,0.055,0.057,0.102,0.108,0.131c0.122,0.053,0.256,0.075,0.389,0.064h2.166v6.652  c-0.016,0.144,0.039,0.286,0.147,0.382c0.119,0.093,0.397,0.14,0.835,0.14C36.512,42.493,36.786,42.447,36.914,42.353z   M0.083,30.707c0,0.663,0.056,1.856,1.469,1.754l1.737-0.125C6.145,49.964,20.7,48.641,25.031,35.44  c0.586-1.787,0.418-2.42-0.813-2.725c-0.908-0.225-1.179,0.097-2.009,1.87C17.201,45.292,8.001,42.052,6.428,32.11l2.138-0.153  c1.187-0.084,1.277-0.818,1.057-1.872c-0.198-0.948-0.701-1.159-1.369-1.159H1.444C0.57,28.926,0.083,29.395,0.083,30.707z   M23.675,25.069c0,1.396,1.132,2.527,2.527,2.527c1.396,0,2.527-1.132,2.527-2.527c0-1.396-1.132-2.527-2.527-2.527c0,0,0,0,0,0  C24.806,22.542,23.675,23.673,23.675,25.069z"/><path fill="#010101" d="M66.221,45.009c0.097-0.05,0.172-0.134,0.211-0.236l3.381-7.624c0.056-0.102,0.091-0.214,0.104-0.33  c-0.005-0.064-0.043-0.12-0.1-0.149c-0.132-0.055-0.275-0.078-0.418-0.065c-0.149-0.008-0.298,0.012-0.44,0.058  c-0.098,0.047-0.172,0.131-0.207,0.233l-1.632,3.686l-1.762-3.738c-0.038-0.09-0.112-0.159-0.204-0.191  c-0.134-0.038-0.273-0.054-0.411-0.049c-0.11-0.001-0.22,0.011-0.327,0.036c-0.075,0.014-0.146,0.045-0.207,0.091  c-0.038,0.031-0.06,0.077-0.061,0.126c0.013,0.103,0.046,0.202,0.097,0.291l2.293,4.748l-1.166,2.63  c-0.055,0.099-0.092,0.206-0.11,0.318c0.007,0.071,0.054,0.132,0.12,0.159c0.125,0.054,0.262,0.077,0.398,0.068  C65.928,45.08,66.078,45.059,66.221,45.009 M63.014,42.461c0.058-0.013,0.113-0.037,0.162-0.071c0.064-0.073,0.092-0.17,0.078-0.265  v-8.331c0.014-0.096-0.014-0.193-0.078-0.266c-0.064-0.022-0.133-0.031-0.201-0.026c-0.102,0.003-0.204,0.016-0.304,0.039  c-0.161,0.018-0.316,0.071-0.453,0.156c-0.073,0.096-0.106,0.217-0.091,0.337v8.104c-0.039,0.138,0.041,0.282,0.179,0.322  c0.016,0.005,0.033,0.008,0.05,0.009c0.104,0.02,0.209,0.028,0.314,0.026C62.786,42.497,62.901,42.486,63.014,42.461 M58.852,42.461  c0.058-0.011,0.112-0.035,0.159-0.071c0.059-0.075,0.087-0.17,0.078-0.265v-4.541h1.302c0.138,0.016,0.274-0.043,0.356-0.156  c0.032-0.065,0.056-0.133,0.071-0.204c0.023-0.099,0.034-0.2,0.032-0.301c0.01-0.076-0.006-0.154-0.045-0.22  c-0.075-0.041-0.161-0.057-0.246-0.045h-1.471v-0.862c0.001-0.197,0.018-0.394,0.049-0.589c0.03-0.208,0.135-0.398,0.295-0.534  c0.196-0.156,0.443-0.233,0.693-0.217c0.232-0.004,0.461,0.043,0.673,0.136c0.126,0.063,0.262,0.107,0.402,0.13  c0.1,0,0.201-0.11,0.304-0.331c0.052-0.108,0.083-0.224,0.091-0.343c0-0.028-0.006-0.055-0.016-0.081  c-0.015-0.034-0.039-0.064-0.068-0.088c-0.048-0.039-0.1-0.073-0.156-0.1c-0.09-0.046-0.183-0.086-0.278-0.12  c-0.141-0.046-0.285-0.082-0.431-0.107c-0.209-0.035-0.42-0.052-0.631-0.049c-0.349-0.001-0.694,0.071-1.014,0.211  c-0.331,0.149-0.6,0.407-0.761,0.732c-0.195,0.391-0.291,0.823-0.278,1.26v0.952h-0.57c-0.074-0.003-0.149,0.005-0.22,0.026  c-0.052,0.021-0.096,0.06-0.123,0.11c-0.091,0.159-0.134,0.342-0.123,0.525c-0.001,0.054,0.001,0.108,0.007,0.162  c0.005,0.035,0.028,0.065,0.062,0.078c0.072,0.022,0.148,0.031,0.223,0.026h0.745v4.554c-0.039,0.138,0.041,0.282,0.179,0.322  c0.016,0.005,0.033,0.008,0.05,0.009c0.104,0.02,0.209,0.028,0.314,0.026C58.622,42.496,58.739,42.486,58.852,42.461"/></svg>