<svg xmlns="http://www.w3.org/2000/svg" version="1.1" width="70px" height="70px" viewBox="0 0 70 70"><defs><clipPath id="clip1"><path d="M 0 28 L 34 28 L 34 50.328125 L 0 50.328125 Z M 0 28 "/></clipPath></defs><g id="surface1"><path d="M 49.269531 46.171875 C 49.339844 46.109375 49.390625 46.050781 49.410156 45.980469 C 49.441406 45.910156 49.449219 45.800781 49.449219 45.660156 L 49.449219 36.761719 L 52.050781 36.761719 C 52.238281 36.761719 52.398438 36.738281 52.519531 36.699219 C 52.640625 36.660156 52.730469 36.578125 52.800781 36.460938 C 52.878906 36.308594 52.941406 36.089844 52.980469 35.820312 C 53.019531 35.550781 53.039062 35.328125 53.039062 35.160156 C 53.039062 35.019531 53.03125 34.921875 53.011719 34.851562 C 52.988281 34.78125 52.941406 34.71875 52.871094 34.679688 C 52.820312 34.648438 52.761719 34.628906 52.679688 34.621094 C 52.601562 34.609375 52.488281 34.601562 52.339844 34.601562 L 44.238281 34.601562 C 44.050781 34.601562 43.890625 34.621094 43.769531 34.660156 C 43.648438 34.699219 43.558594 34.78125 43.488281 34.898438 C 43.410156 35.039062 43.351562 35.230469 43.308594 35.460938 C 43.269531 35.691406 43.25 35.929688 43.25 36.179688 C 43.25 36.320312 43.261719 36.429688 43.28125 36.5 C 43.300781 36.570312 43.351562 36.628906 43.421875 36.671875 C 43.511719 36.730469 43.679688 36.761719 43.941406 36.761719 L 46.839844 36.761719 L 46.839844 45.660156 C 46.839844 45.898438 46.910156 46.070312 47.039062 46.171875 C 47.199219 46.300781 47.570312 46.359375 48.160156 46.359375 C 48.75 46.359375 49.089844 46.300781 49.261719 46.171875 Z M 62.019531 46.230469 C 62.621094 46.03125 63.109375 45.738281 63.488281 45.378906 C 63.871094 45.019531 64.148438 44.589844 64.328125 44.089844 C 64.511719 43.589844 64.601562 43.050781 64.601562 42.46875 L 64.601562 35.230469 C 64.601562 34.988281 64.539062 34.820312 64.410156 34.71875 C 64.238281 34.601562 63.871094 34.53125 63.308594 34.53125 C 62.75 34.53125 62.351562 34.589844 62.191406 34.71875 C 62.121094 34.769531 62.058594 34.828125 62.039062 34.910156 C 62.011719 34.980469 62 35.089844 62 35.230469 L 62 42.429688 C 62 42.710938 61.949219 43.011719 61.851562 43.300781 C 61.75 43.601562 61.53125 43.851562 61.199219 44.039062 C 60.859375 44.238281 60.421875 44.328125 59.871094 44.328125 C 59.488281 44.328125 59.160156 44.28125 58.890625 44.191406 C 58.621094 44.101562 58.398438 43.96875 58.230469 43.800781 C 58.058594 43.628906 57.929688 43.429688 57.859375 43.191406 C 57.78125 42.949219 57.738281 42.691406 57.738281 42.410156 L 57.738281 35.210938 C 57.738281 34.96875 57.679688 34.800781 57.550781 34.699219 C 57.378906 34.578125 57.011719 34.511719 56.449219 34.511719 C 55.890625 34.511719 55.488281 34.570312 55.328125 34.699219 C 55.261719 34.75 55.210938 34.808594 55.179688 34.890625 C 55.148438 34.960938 55.140625 35.070312 55.140625 35.210938 L 55.140625 42.449219 C 55.140625 43.039062 55.230469 43.578125 55.410156 44.070312 C 55.589844 44.570312 55.871094 45 56.25 45.359375 C 56.628906 45.71875 57.121094 46.011719 57.71875 46.210938 C 58.320312 46.410156 59.03125 46.519531 59.871094 46.519531 C 60.710938 46.519531 61.421875 46.421875 62.019531 46.210938 Z M 69.800781 46.171875 C 69.871094 46.109375 69.921875 46.050781 69.949219 45.980469 C 69.980469 45.910156 70 45.800781 70 45.660156 L 70 35.230469 C 70 35.089844 69.980469 34.980469 69.949219 34.910156 C 69.921875 34.839844 69.871094 34.769531 69.800781 34.71875 C 69.640625 34.601562 69.269531 34.53125 68.699219 34.53125 C 68.128906 34.53125 67.738281 34.589844 67.578125 34.71875 C 67.511719 34.769531 67.460938 34.828125 67.429688 34.910156 C 67.398438 34.980469 67.378906 35.089844 67.378906 35.230469 L 67.378906 45.660156 C 67.378906 45.890625 67.449219 46.058594 67.578125 46.171875 C 67.738281 46.300781 68.109375 46.359375 68.699219 46.359375 C 69.289062 46.359375 69.640625 46.300781 69.800781 46.171875 Z M 69.800781 46.171875 " style=" stroke:none;fill-rule:nonzero;fill:rgb(85.490197%,12.941177%,15.686275%);fill-opacity:1;"/><g clip-path="url(#clip1)" clip-rule="nonzero"><path d="M 1.820312 28.210938 L 10.929688 28.210938 C 11.820312 28.210938 12.5 28.488281 12.761719 29.761719 C 13.050781 31.171875 12.929688 32.148438 11.351562 32.261719 L 8.488281 32.460938 C 10.589844 45.761719 22.898438 50.101562 29.601562 35.769531 C 30.710938 33.398438 31.070312 32.96875 32.289062 33.269531 C 33.941406 33.679688 34.160156 34.53125 33.378906 36.921875 C 27.589844 54.578125 8.109375 56.351562 4.289062 32.769531 L 1.96875 32.941406 C 0.078125 33.078125 0 31.480469 0 30.589844 C 0 28.839844 0.648438 28.210938 1.820312 28.210938 Z M 1.820312 28.210938 " style=" stroke:none;fill-rule:nonzero;fill:rgb(85.490197%,12.941177%,15.686275%);fill-opacity:1;"/></g><path d="M 34.941406 19.671875 C 36.808594 19.671875 38.320312 21.179688 38.320312 23.050781 C 38.320312 24.921875 36.808594 26.429688 34.941406 26.429688 C 33.070312 26.429688 31.558594 24.921875 31.558594 23.050781 C 31.558594 21.179688 33.070312 19.671875 34.941406 19.671875 Z M 34.941406 19.671875 " style=" stroke:none;fill-rule:nonzero;fill:rgb(85.490197%,12.941177%,15.686275%);fill-opacity:1;"/></g></svg>