<svg xmlns="http://www.w3.org/2000/svg" version="1.1" id="Layer_1" x="0px" y="0px" width="70" height="70" viewBox="0 0 70 70" xml:space="preserve" style="enable-background:new 0 0 70 70;"><style type="text/css">
	.st0{fill:#FEFEFE;}
	.st1{fill:#9F9F9F;}
	.st2{fill:#004080;}
	.st3{fill:#007080;}
	.st4{fill:#8FBF00;}
	.st5{fill:#6070AF;}
	.st6{fill:#CF8000;}
	.st7{fill:#00AFBF;}
	.st8{fill:#800040;}
	.st9{fill:#EFCF00;}
	.st10{fill:#B3AB20;}
	.st11{fill:#9B3430;}
	.st12{fill:#20849F;}
	.st13{fill:#7C7484;}
	.st14{fill:#84AB2C;}
	.st15{fill:#248460;}
</style><g><g><path d="M1.24,65.05c-0.08,0-0.15,0-0.23,0c0-19.53,0-39.07,0-58.6c22.74,0,45.48,0,68.22,0    c0.05,0,0.1,0.02,0.15,0.03c-4.39,0-8.77,0-13.16,0c-0.46,0-0.92,0.02-1.38,0.07c-0.49,0.05-0.99,0.13-1.47,0.23    c-1.26,0.25-2.41,0.78-3.48,1.48c-1.08,0.7-2.04,1.54-2.91,2.49c-0.67,0.73-1.31,1.5-1.97,2.25c-0.04,0.04-0.07,0.08-0.11,0.12    c-1.1,1.36-2.2,2.72-3.3,4.08c-0.62,0.77-1.24,1.54-1.86,2.31c-0.02,0.02-0.04,0.04-0.06,0.06c-1.01,1.25-2.02,2.5-3.04,3.75    c-0.73,0.9-1.45,1.8-2.18,2.7c-0.01,0.02-0.03,0.03-0.04,0.05c-0.96,1.18-1.92,2.36-2.88,3.55c-0.78,0.97-1.56,1.94-2.35,2.91    c-0.02,0.02-0.04,0.04-0.05,0.06c-1.11,1.38-2.23,2.75-3.34,4.13c-0.63,0.77-1.25,1.55-1.87,2.33c-0.01,0.02-0.03,0.03-0.04,0.05    c-1.1,1.36-2.21,2.72-3.31,4.09c-0.64,0.79-1.28,1.58-1.91,2.38c-0.02,0.02-0.04,0.04-0.06,0.06c-1.1,1.36-2.21,2.72-3.31,4.09    c-0.64,0.79-1.27,1.57-1.9,2.36c-0.01,0.02-0.03,0.03-0.04,0.05c-1.24,1.53-2.47,3.05-3.71,4.58c-0.51,0.63-1.01,1.26-1.51,1.88    c-0.53,0.62-1.04,1.24-1.58,1.86c-1.03,1.19-2.1,2.33-3.31,3.34c-0.6,0.5-1.21,0.97-1.94,1.25C1.26,64.99,1.25,65.03,1.24,65.05z" class="st0"/><path d="M69.37,6.57c0,19.49,0,38.98,0,58.47c-5.26,0-10.52,0-15.78,0c0.01-0.06,0.01-0.12,0.02-0.17    c0.4-1.48,0.8-2.96,1.2-4.44c0.17-0.63,0.34-1.26,0.5-1.89c0.04-0.18,0.09-0.35,0.14-0.53c0.2-0.73,0.41-1.46,0.61-2.19    c0.17-0.64,0.33-1.28,0.51-1.92c0.16-0.61,0.34-1.22,0.5-1.84c0-0.01,0-0.02,0.01-0.03c0.2-0.74,0.41-1.48,0.61-2.22    c0.38-1.42,0.76-2.84,1.15-4.26c0-0.01,0-0.02,0.01-0.03c0.2-0.74,0.41-1.48,0.61-2.22c0.38-1.42,0.76-2.84,1.15-4.26    c0-0.01,0-0.02,0.01-0.03c0.01-0.03,0.02-0.06,0.03-0.09c0.35-1.29,0.7-2.58,1.04-3.87c0.23-0.85,0.45-1.7,0.68-2.55    c0.16-0.58,0.32-1.16,0.48-1.73c0.43-1.58,0.85-3.16,1.28-4.74c0-0.01,0-0.02,0-0.03c0.18-0.66,0.36-1.31,0.54-1.97    c0.2-0.73,0.39-1.47,0.59-2.2c0.21-0.77,0.41-1.53,0.62-2.3c0-0.01,0-0.02,0.01-0.03c0.16-0.58,0.32-1.16,0.48-1.73    c0.43-1.58,0.85-3.16,1.28-4.74c0-0.01,0-0.02,0-0.03c0.04-0.15,0.09-0.31,0.13-0.46c0.12-0.44,0.24-0.88,0.36-1.33    c0.1-0.36,0.2-0.72,0.29-1.08c0.13-0.48,0.25-0.95,0.38-1.43c0.12-0.46,0.25-0.92,0.38-1.37C69.22,7.07,69.3,6.82,69.37,6.57z" class="st0"/><path d="M55.32,58.54c-0.17,0.63-0.33,1.26-0.5,1.89c-0.4,1.48-0.8,2.96-1.2,4.44c-0.02,0.06-0.01,0.12-0.02,0.17    c-17.45,0-34.9,0-52.36,0c0.01-0.02,0.02-0.05,0.04-0.06c0.74-0.28,1.35-0.76,1.94-1.25c1.21-1.01,2.28-2.15,3.31-3.34    c0.53-0.61,1.05-1.24,1.58-1.86c3.39,0,6.78,0,10.17,0C30.62,58.54,42.97,58.54,55.32,58.54z" class="st1"/><path d="M69.37,6.57c-0.08,0.25-0.16,0.49-0.23,0.74c-0.13,0.46-0.25,0.91-0.38,1.37c-0.13,0.47-0.25,0.95-0.38,1.43    c-0.1,0.36-0.2,0.72-0.29,1.08c-0.12,0.44-0.24,0.88-0.36,1.33c-0.04,0.15-0.09,0.31-0.13,0.46c-0.01,0-0.02,0-0.03,0.01    c-0.07,0-0.14,0-0.21,0c-7.38,0-14.76,0-22.14,0c-0.08,0-0.15,0-0.23,0c0.65-0.75,1.29-1.52,1.97-2.25    c0.87-0.94,1.83-1.78,2.91-2.49c1.07-0.7,2.22-1.23,3.48-1.48c0.49-0.1,0.98-0.18,1.47-0.23c0.46-0.05,0.92-0.06,1.38-0.07    c4.39,0,8.77,0,13.16,0C69.37,6.51,69.37,6.54,69.37,6.57z" class="st2"/><path d="M55.32,58.54c-12.35,0-24.69,0-37.04,0c-3.39,0-6.78,0-10.17,0c0.5-0.63,1.01-1.26,1.51-1.88    c1.24-1.53,2.47-3.05,3.71-4.58c0.01-0.02,0.03-0.03,0.04-0.05c0.08,0,0.15,0,0.23,0c14.4,0,28.8,0,43.19,0c0.08,0,0.16,0,0.24,0    c0.01,0.01,0.02,0.02,0.03,0.02c-0.17,0.61-0.34,1.22-0.5,1.84c-0.17,0.64-0.33,1.28-0.51,1.92c-0.2,0.73-0.4,1.46-0.61,2.19    C55.4,58.19,55.36,58.36,55.32,58.54z" class="st3"/><path d="M57.04,52.04c-0.08,0-0.16,0-0.24,0c-14.4,0-28.8,0-43.19,0c-0.08,0-0.15,0-0.23,0    c0.63-0.79,1.27-1.58,1.9-2.36c1.1-1.36,2.21-2.72,3.31-4.09c0.02-0.02,0.04-0.04,0.06-0.06c0.08,0,0.15,0,0.23,0    c13.23,0,26.45,0,39.68,0c0.08,0,0.16,0,0.24,0c0.01,0.01,0.02,0.02,0.03,0.02c-0.38,1.42-0.76,2.84-1.15,4.26    c-0.2,0.74-0.4,1.48-0.61,2.22C57.06,52.03,57.05,52.03,57.04,52.04z" class="st4"/><path d="M58.8,45.53c-0.08,0-0.16,0-0.24,0c-13.23,0-26.45,0-39.68,0c-0.08,0-0.15,0-0.23,0    c0.64-0.79,1.27-1.59,1.91-2.38c1.1-1.36,2.21-2.72,3.31-4.09c0.01-0.02,0.03-0.03,0.04-0.05c0.08,0,0.16,0,0.24,0    c12.05,0,24.1,0,36.15,0c0.08,0,0.16,0,0.24,0c0.01,0.01,0.02,0.02,0.03,0.02c-0.38,1.42-0.76,2.84-1.15,4.26    c-0.2,0.74-0.4,1.48-0.61,2.22C58.82,45.52,58.81,45.53,58.8,45.53z" class="st5"/><path d="M60.56,39.02c-0.08,0-0.16,0-0.24,0c-12.05,0-24.1,0-36.15,0c-0.08,0-0.16,0-0.24,0    c0.62-0.78,1.25-1.55,1.87-2.33c1.11-1.38,2.23-2.75,3.34-4.13c0.02-0.02,0.04-0.04,0.05-0.06c0.08,0,0.15,0,0.23,0    c9.13,0,18.25,0,27.38,0c1.85,0,3.7,0,5.55,0c-0.23,0.85-0.45,1.7-0.68,2.55c-0.35,1.29-0.69,2.58-1.04,3.87    c-0.01,0.03-0.02,0.06-0.03,0.09C60.58,39.02,60.56,39.02,60.56,39.02z" class="st6"/><path d="M62.34,32.51c-1.85,0-3.7,0-5.55,0c-9.13,0-18.25,0-27.38,0c-0.08,0-0.15,0-0.23,0    c0.78-0.97,1.56-1.94,2.35-2.91c0.96-1.18,1.92-2.37,2.88-3.55c0.01-0.02,0.03-0.03,0.04-0.05c0.08,0,0.15,0,0.23,0    c9.72,0,19.44,0,29.15,0c0.08,0,0.15,0,0.23,0c0.01,0.01,0.02,0.02,0.03,0.02c-0.43,1.58-0.85,3.16-1.28,4.74    C62.66,31.35,62.5,31.93,62.34,32.51z" class="st7"/><path d="M64.07,26.01c-0.08,0-0.15,0-0.23,0c-9.72,0-19.44,0-29.15,0c-0.08,0-0.15,0-0.23,0    c0.73-0.9,1.45-1.8,2.18-2.7c1.01-1.25,2.02-2.5,3.04-3.75c0.02-0.02,0.04-0.04,0.06-0.06c0.07,0,0.14,0,0.21,0    c8.55,0,17.1,0,25.66,0c0.08,0,0.15,0,0.23,0c0.01,0.01,0.02,0.02,0.03,0.02c-0.21,0.77-0.41,1.53-0.62,2.3    c-0.2,0.73-0.39,1.47-0.59,2.2c-0.18,0.66-0.36,1.32-0.54,1.97C64.09,26,64.08,26,64.07,26.01z" class="st8"/><path d="M65.83,19.5c-0.08,0-0.15,0-0.23,0c-8.55,0-17.1,0-25.66,0c-0.07,0-0.14,0-0.21,0    c0.62-0.77,1.24-1.54,1.86-2.31c1.1-1.36,2.2-2.72,3.3-4.08c0.03-0.04,0.07-0.08,0.11-0.12c0.08,0,0.15,0,0.23,0    c7.38,0,14.76,0,22.14,0c0.07,0,0.14,0,0.21,0c0.01,0.01,0.02,0.02,0.03,0.02c-0.43,1.58-0.85,3.16-1.28,4.74    c-0.16,0.58-0.32,1.16-0.48,1.73C65.85,19.49,65.84,19.5,65.83,19.5z" class="st9"/><path d="M67.61,13.02c-0.01-0.01-0.02-0.02-0.03-0.02c0.01-0.01,0.02-0.01,0.03-0.01    C67.61,12.99,67.61,13,67.61,13.02z" class="st10"/><path d="M65.83,19.5c0.01,0,0.02,0,0.03-0.01c0,0.01,0,0.02-0.01,0.03C65.84,19.52,65.83,19.51,65.83,19.5z" class="st11"/><path d="M64.07,26.01C64.08,26,64.09,26,64.1,26c0,0.01,0,0.02,0,0.03C64.09,26.02,64.08,26.02,64.07,26.01z" class="st12"/><path d="M60.56,39.02c0.01-0.01,0.02-0.01,0.03-0.01c0,0.01,0,0.02-0.01,0.03C60.57,39.04,60.56,39.03,60.56,39.02z" class="st13"/><path d="M58.8,45.53c0.01-0.01,0.02-0.01,0.03-0.01c0,0.01,0,0.02-0.01,0.03C58.81,45.55,58.81,45.54,58.8,45.53z" class="st14"/><path d="M57.04,52.04c0.01-0.01,0.02-0.01,0.03-0.01c0,0.01,0,0.02-0.01,0.03C57.06,52.06,57.05,52.05,57.04,52.04z" class="st15"/></g></g></svg>