<svg xmlns="http://www.w3.org/2000/svg" id="Layer_1" width="70" height="70" x="0" y="0" enable-background="new 0 0 70 70" version="1.1" viewBox="0 0 70 70" xml:space="preserve"><path fill="#4A245F" fill-rule="evenodd" d="M45.716,29.187c1.397,0,2.796,0,4.232,0 c-0.101,0.07-0.176,0.122-0.25,0.174c-0.341,0.241-0.506,0.585-0.572,0.985c-0.057,0.339-0.073,0.683-0.073,1.026 c-0.002,2.669-0.004,5.337,0.002,8.006c0,0.41,0.02,0.822,0.143,1.221c0.117,0.377,0.387,0.62,0.709,0.816 c0.05,0.03,0.106,0.015,0.162-0.007c0.502-0.186,0.873-0.527,1.164-0.967c0.338-0.51,0.581-1.068,0.832-1.622 c0.244-0.54,0.48-1.085,0.721-1.628c0.414-0.934,0.829-1.867,1.244-2.8c0.335-0.753,0.673-1.505,1.006-2.259 c0.112-0.254,0.24-0.503,0.319-0.772c0.139-0.47,0.134-0.913-0.236-1.302c1.214-0.272,2.322-0.715,3.137-1.708 c0.359,0.831,0.719,1.662,1.079,2.493c0.323,0.745,0.65,1.489,0.973,2.234c0.42,0.972,0.837,1.945,1.257,2.917 c0.31,0.72,0.619,1.439,0.933,2.158c0.27,0.62,0.521,1.249,0.829,1.853c0.304,0.598,0.723,1.09,1.307,1.432 c0.008,0.005,0.013,0.017,0.027,0.035c-1.593,0-3.175,0-4.775,0c0.177-0.138,0.332-0.276,0.458-0.445 c0.231-0.312,0.252-0.656,0.145-1.013c-0.142-0.466-0.348-0.906-0.524-1.358c-0.134-0.341-0.274-0.678-0.405-1.02 c-0.023-0.062-0.054-0.076-0.112-0.076c-1.579,0.001-3.158,0.001-4.737-0.001c-0.072-0.001-0.094,0.032-0.117,0.087 c-0.257,0.618-0.513,1.235-0.772,1.852c-0.076,0.181-0.16,0.356-0.221,0.543c-0.157,0.489,0,0.962,0.42,1.266 c0.067,0.049,0.133,0.101,0.22,0.167c-2.855,0-5.689,0-8.533,0c0.104-0.095,0.229-0.155,0.331-0.244 c0.3-0.258,0.433-0.594,0.491-0.972c0.057-0.372,0.065-0.748,0.068-1.123c0.006-1.054,0.001-2.107,0.004-3.161 c0-0.091-0.018-0.122-0.117-0.122c-1.972,0.003-3.943,0.003-5.914,0c-0.1,0-0.116,0.03-0.116,0.121 c0.003,1.114-0.004,2.229,0.005,3.342c0.004,0.414,0.01,0.83,0.117,1.237c0.104,0.39,0.349,0.66,0.688,0.858 c0.024,0.014,0.047,0.029,0.095,0.059c-1.432,0-2.837,0-4.251,0c0.043-0.03,0.083-0.062,0.128-0.089 c0.45-0.26,0.65-0.669,0.709-1.167c0.04-0.347,0.05-0.693,0.05-1.042c-0.002-2.696-0.001-5.394-0.004-8.09 c-0.001-0.255-0.029-0.509-0.067-0.762c-0.068-0.458-0.302-0.803-0.693-1.044c-0.018-0.011-0.034-0.021-0.051-0.031 c-0.017-0.01-0.033-0.021-0.071-0.046c1.422,0,2.822,0,4.23,0c-0.096,0.068-0.188,0.136-0.283,0.203 c-0.337,0.239-0.471,0.589-0.535,0.978c-0.053,0.321-0.058,0.645-0.061,0.967c-0.009,0.902-0.002,1.803-0.005,2.705 c0,0.09,0.017,0.121,0.115,0.121c1.972-0.003,3.943-0.003,5.915,0c0.1,0,0.117-0.031,0.117-0.122 c-0.004-0.837,0.005-1.675-0.005-2.513c-0.005-0.418-0.013-0.837-0.087-1.253c-0.084-0.464-0.331-0.801-0.731-1.036 c-0.021-0.013-0.044-0.026-0.066-0.039C45.71,29.201,45.713,29.194,45.716,29.187z" clip-rule="evenodd"/><path fill="#E2BA24" fill-rule="evenodd" d="M11.785,29.72c0.132,0.068,0.265,0.136,0.397,0.205 c0.031,0.016,0.063,0.053,0.095,0.027c0.016-0.014,0.012-0.061,0.007-0.091c-0.04-0.229-0.016-0.458-0.017-0.688 c0.07,0.021,0.051,0.082,0.05,0.128c-0.003,0.146,0.007,0.288,0.048,0.428c0.025,0.086,0.059,0.167,0.124,0.23 c0.097,0.094,0.188,0.074,0.224-0.055c0.035-0.124,0.045-0.251,0.046-0.38c0.003-0.821,0.286-1.548,0.784-2.188 c0.579-0.744,1.358-1.178,2.27-1.39c0.496-0.115,0.999-0.154,1.503-0.122c0.46,0.029,0.912,0.126,1.36,0.233 c0.113,0.026,0.228,0.048,0.342,0.064c0.055,0.008,0.122,0.024,0.15-0.039c0.027-0.063-0.031-0.103-0.071-0.139 c-0.109-0.096-0.236-0.167-0.369-0.224c-0.269-0.115-0.542-0.216-0.831-0.275c-0.047-0.009-0.106-0.006-0.129-0.067 c0-0.002,0.003-0.008,0.006-0.01c0.005-0.004,0.013-0.004,0.021-0.001c0.377,0.067,0.743,0.169,1.103,0.302 c0.529,0.194,1.004,0.478,1.438,0.833c0.237,0.195,0.471,0.394,0.648,0.649c-0.029,0.087-0.018,0.169,0.008,0.257 c0.166,0.557,0.385,1.096,0.525,1.661c0.095,0.382,0.15,0.768,0.182,1.161c0.052,0.65-0.044,1.278-0.247,1.891 c-0.249,0.75-0.659,1.402-1.211,1.968c-0.277,0.284-0.579,0.541-0.865,0.815c-0.026,0.025-0.052,0.05-0.076,0.077 c-0.102,0.112-0.102,0.151,0,0.259c0.017,0.018,0.032,0.036,0.036,0.061c-0.047,0.071,0.026,0.066,0.056,0.081 c0.322,0.159,0.63,0.338,0.914,0.56c0.303,0.237,0.572,0.508,0.814,0.806c0.009,0.011,0.009,0.029,0.013,0.044 c-0.095,0.106-0.082,0.22-0.037,0.346c0.149,0.415,0.319,0.821,0.434,1.248c0.166,0.615,0.25,1.241,0.212,1.878 c-0.046,0.771-0.25,1.499-0.641,2.169c-0.522,0.896-1.254,1.56-2.203,1.983c-0.532,0.237-1.087,0.375-1.668,0.417 c-0.549,0.04-1.095,0.021-1.641-0.041c-0.302-0.035-0.603-0.078-0.904-0.121c-0.12-0.018-0.24-0.021-0.354,0.031 c-0.226-0.113-0.427-0.265-0.618-0.427c-0.642-0.546-1.097-1.218-1.32-2.036c-0.127-0.467-0.166-0.941-0.11-1.424 c0.004-0.037,0.019-0.079-0.016-0.112c-0.007-0.065,0.027-0.124,0.032-0.188c0.011-0.141-0.056-0.224-0.197-0.229 c-0.183-0.006-0.355,0.052-0.527,0.105c-0.328,0.103-0.649,0.229-0.986,0.307c-1.12,0.26-2.208,0.18-3.263-0.293 c-0.598-0.268-1.127-0.634-1.616-1.067c-0.579-0.514-1.05-1.119-1.521-1.727c-0.324-0.418-0.665-0.821-1.05-1.186 c-0.367-0.347-0.769-0.642-1.237-0.834c-0.301-0.124-0.617-0.165-0.941-0.124c-0.062-0.029-0.132-0.065-0.13-0.136 c0.001-0.07,0.068-0.108,0.136-0.127c0.024-0.022,0.051-0.012,0.079-0.008c0.366,0.062,0.711,0.031,1.034-0.182 c0.576-0.379,1.091-0.824,1.534-1.354c0.523-0.627,1.014-1.281,1.566-1.883c0.522-0.57,1.117-1.053,1.806-1.416 c0.632-0.332,1.3-0.543,2.008-0.615c0.321-0.032,0.645-0.036,0.97-0.021c0.65,0.032,1.273,0.185,1.893,0.366 c0.023,0.007,0.046,0.015,0.07,0.018c0.037,0.005,0.074,0.007,0.095-0.032c0.018-0.032,0.003-0.062-0.015-0.09 c-0.05-0.076-0.127-0.12-0.195-0.176C11.787,29.795,11.715,29.772,11.785,29.72z" clip-rule="evenodd"/><path fill="#4A245F" fill-rule="evenodd" d="M32.621,41.476c-1.417,0-2.828,0-4.261,0 c0.223-0.158,0.417-0.319,0.561-0.532c0.195-0.29,0.272-0.618,0.315-0.957c0.043-0.342,0.051-0.686,0.051-1.029 c-0.001-2.612-0.002-5.225,0.002-7.837c0-0.124-0.032-0.149-0.151-0.149c-1.603,0.004-3.206,0.003-4.808,0.003 c-0.044,0-0.087,0-0.164,0c0.856-0.826,1.569-1.731,2.096-2.784c0.271,0.488,0.655,0.811,1.193,0.936 c0.172,0.04,0.348,0.056,0.523,0.056c1.899,0.002,3.798,0.005,5.697-0.001c0.575-0.002,1.147-0.053,1.706-0.206 c0.441-0.121,0.85-0.307,1.219-0.618c-0.012,0.264-0.076,0.491-0.164,0.712c-0.245,0.615-0.689,1.051-1.257,1.368 c-0.508,0.284-1.058,0.433-1.636,0.493c-0.559,0.058-1.119,0.042-1.679,0.042c-0.094,0-0.118,0.024-0.118,0.119 c0.002,2.721,0,5.441,0.005,8.162c0.001,0.374,0.015,0.749,0.081,1.121c0.084,0.474,0.344,0.813,0.745,1.059 c0.014,0.009,0.027,0.017,0.041,0.026C32.619,41.459,32.618,41.464,32.621,41.476z" clip-rule="evenodd"/><path fill="#4A245F" fill-rule="evenodd" d="M69.059,41.478c-1.4,0-2.789,0-4.207,0 c0.095-0.067,0.172-0.123,0.249-0.178c0.337-0.239,0.496-0.582,0.562-0.978c0.062-0.367,0.073-0.738,0.073-1.11 c0-2.672,0-5.344-0.004-8.017c0-0.323-0.028-0.645-0.091-0.964c-0.083-0.421-0.319-0.729-0.672-0.958 c-0.032-0.021-0.065-0.042-0.121-0.078c1.417,0,2.81,0,4.217,0c-0.095,0.073-0.179,0.14-0.266,0.203 c-0.333,0.242-0.47,0.59-0.536,0.978c-0.05,0.296-0.062,0.596-0.062,0.895c-0.004,2.716-0.005,5.433,0.001,8.149 c0.001,0.43,0.017,0.862,0.167,1.275c0.116,0.322,0.355,0.538,0.629,0.724c0.016,0.011,0.032,0.021,0.048,0.033 C69.049,41.454,69.05,41.458,69.059,41.478z" clip-rule="evenodd"/><path fill="#E28C26" fill-rule="evenodd" d="M0.96,35.469c0.112-0.099,0.245-0.049,0.365-0.04 c0.649,0.049,1.158,0.395,1.635,0.801c0.427,0.363,0.792,0.785,1.14,1.225c0.349,0.439,0.688,0.887,1.068,1.302 C5.605,39.233,6.087,39.652,6.631,40c0.617,0.393,1.284,0.648,2.009,0.763c0.382,0.061,0.766,0.061,1.147,0.037 c0.564-0.035,1.104-0.198,1.634-0.39c0.206-0.074,0.414-0.146,0.636-0.155c0.095-0.005,0.194-0.009,0.246,0.103 c0.056,0.123,0.034,0.237-0.037,0.347c-0.292,0.153-0.58,0.316-0.89,0.435c-0.514,0.196-1.044,0.306-1.593,0.346 c-1.225,0.092-2.36-0.18-3.408-0.815c-0.679-0.411-1.264-0.936-1.798-1.52c-0.467-0.511-0.872-1.072-1.304-1.611 c-0.618-0.771-1.304-1.471-2.161-1.984C1.062,35.524,1.011,35.497,0.96,35.469z" clip-rule="evenodd"/><path fill="#E28C26" fill-rule="evenodd" d="M14.331,44.703c0.019-0.081,0.085-0.071,0.144-0.073 c0.245-0.011,0.481,0.06,0.722,0.084c0.257,0.027,0.514,0.056,0.771,0.084c0.294,0.033,0.59,0.027,0.886,0.023 c0.705-0.009,1.384-0.145,2.03-0.435c0.481-0.216,0.912-0.504,1.302-0.859c0.434-0.396,0.772-0.86,1.032-1.38 c0.236-0.473,0.382-0.977,0.451-1.504c0.045-0.343,0.064-0.687,0.039-1.027c-0.044-0.585-0.164-1.158-0.363-1.713 c-0.102-0.285-0.228-0.562-0.311-0.855c-0.038-0.134-0.018-0.189,0.1-0.255c0.511,0.604,0.805,1.312,0.984,2.073 c0.12,0.512,0.175,1.032,0.143,1.557c-0.062,1.015-0.395,1.938-0.997,2.759c-0.803,1.093-1.868,1.79-3.196,2.072 c-1.304,0.277-2.55,0.122-3.723-0.533C14.338,44.718,14.335,44.709,14.331,44.703z" clip-rule="evenodd"/><path fill="#E28C26" fill-rule="evenodd" d="M19.336,35.302c-0.211-0.152-0.213-0.188-0.029-0.374 c0.278-0.281,0.585-0.532,0.865-0.812c0.694-0.697,1.161-1.519,1.384-2.476c0.06-0.259,0.091-0.523,0.113-0.791 c0.047-0.568-0.036-1.121-0.155-1.669c-0.076-0.35-0.196-0.689-0.311-1.03c-0.094-0.279-0.185-0.561-0.276-0.841 c-0.021-0.065,0.005-0.117,0.057-0.157c0.636,0.708,1.022,1.539,1.2,2.467c0.099,0.516,0.099,1.036,0.037,1.56 c-0.091,0.761-0.311,1.478-0.696,2.14c-0.499,0.858-1.192,1.511-2.088,1.944C19.404,35.278,19.37,35.289,19.336,35.302z" clip-rule="evenodd"/><path fill="#FEDB83" fill-rule="evenodd" d="M1.177,35.098c0.169-0.125,0.339-0.247,0.506-0.374 c0.43-0.329,0.809-0.711,1.176-1.108c0.451-0.488,0.815-1.042,1.239-1.55c0.71-0.85,1.487-1.627,2.461-2.178 c0.639-0.361,1.321-0.591,2.052-0.678c0.367-0.043,0.733-0.047,1.101-0.039c0.028,0,0.057-0.005,0.079,0.019 c-0.006,0.011-0.018,0.012-0.029,0.016c0.005,0.005,0.01,0,0.015,0c0.505,0.031,0.996,0.131,1.47,0.313 c0.085,0.033,0.174,0.061,0.254,0.106c0.042,0.024,0.085,0.046,0.119,0.081c0.037,0.039,0.074,0.082,0.046,0.138 c-0.028,0.057-0.084,0.056-0.137,0.048c-0.06-0.009-0.116-0.032-0.172-0.053c-0.445-0.168-0.906-0.27-1.378-0.318 c-0.764-0.078-1.508,0.019-2.235,0.268c-0.593,0.203-1.136,0.501-1.637,0.873c-0.449,0.333-0.851,0.715-1.218,1.137 c-0.62,0.714-1.197,1.463-1.825,2.17c-0.36,0.405-0.762,0.768-1.221,1.062c-0.174,0.111-0.356,0.203-0.573,0.18 C1.205,35.203,1.13,35.199,1.177,35.098z" clip-rule="evenodd"/><path fill="#F3CD52" fill-rule="evenodd" d="M1.177,35.098c-0.004,0.061,0.024,0.079,0.085,0.084 c0.199,0.019,0.37-0.058,0.531-0.156c0.27-0.165,0.517-0.363,0.748-0.576c0.441-0.407,0.827-0.864,1.2-1.334 c0.26-0.328,0.534-0.644,0.808-0.961c0.248-0.286,0.484-0.583,0.755-0.849c0.562-0.549,1.187-1.007,1.9-1.338 c0.491-0.229,1.006-0.385,1.542-0.457c0.283-0.038,0.571-0.069,0.858-0.052c0.51,0.03,1.013,0.103,1.501,0.26 c0.125,0.04,0.249,0.084,0.372,0.128c0.058,0.021,0.132,0.049,0.163-0.01c0.035-0.067-0.033-0.112-0.089-0.145 c-0.243-0.142-0.511-0.225-0.779-0.298c-0.354-0.096-0.713-0.167-1.086-0.181c0.034-0.032,0.072-0.012,0.104-0.023 c0.687,0.032,1.338,0.204,1.956,0.503c0.014,0.007,0.025,0.019,0.038,0.028c-0.024,0.058,0.029,0.062,0.058,0.081 c0.066,0.045,0.132,0.091,0.182,0.155c0.036,0.045,0.068,0.102,0.035,0.154c-0.036,0.058-0.101,0.052-0.163,0.032 c-0.41-0.13-0.827-0.239-1.251-0.31c-0.18-0.03-0.36-0.07-0.545-0.061c-0.145,0.007-0.285-0.027-0.43-0.027 c-0.858-0.001-1.681,0.166-2.456,0.537c-0.468,0.225-0.905,0.502-1.302,0.844c-0.228,0.196-0.451,0.396-0.655,0.615 c-0.257,0.278-0.5,0.568-0.737,0.863c-0.277,0.345-0.564,0.681-0.84,1.026c-0.193,0.241-0.404,0.465-0.63,0.673 c-0.38,0.349-0.782,0.669-1.252,0.894c-0.098,0.046-0.197,0.061-0.302,0.057c-0.178-0.007-0.358,0.024-0.53-0.047 C1.036,35.17,1.106,35.134,1.177,35.098z" clip-rule="evenodd"/><path fill="#F3CD53" fill-rule="evenodd" d="M17.796,25.367c0.03,0.044,0.08,0.04,0.124,0.051 c0.401,0.097,0.793,0.215,1.138,0.453c0.029,0.021,0.057,0.043,0.083,0.067c0.052,0.046,0.109,0.105,0.075,0.172 c-0.034,0.066-0.118,0.063-0.185,0.05c-0.246-0.048-0.491-0.101-0.736-0.154c-0.536-0.116-1.077-0.189-1.625-0.153 c-0.817,0.054-1.589,0.267-2.274,0.727c-0.456,0.306-0.824,0.703-1.103,1.179c-0.236,0.404-0.393,0.837-0.47,1.297 c-0.03,0.176-0.039,0.356-0.032,0.537c0.004,0.111-0.013,0.223-0.047,0.33c-0.05,0.159-0.157,0.184-0.275,0.063 c-0.142-0.144-0.161-0.333-0.182-0.52c-0.01-0.098,0.021-0.199-0.02-0.295c0.02-0.236,0.042-0.471,0.121-0.697 c0.081,0.032,0.038,0.095,0.03,0.142c-0.036,0.221-0.083,0.441-0.074,0.667c0.002,0.064,0.006,0.128,0.023,0.19 c0.013,0.044,0.018,0.108,0.077,0.106c0.05-0.002,0.058-0.062,0.065-0.104c0.02-0.11,0.041-0.22,0.055-0.332 c0.094-0.78,0.381-1.474,0.894-2.075c0.604-0.708,1.381-1.114,2.269-1.337c0.438-0.11,0.884-0.148,1.333-0.152 c0.316-0.002,0.629,0.06,0.942,0.102c0.05,0.007,0.126,0.039,0.143-0.012c0.021-0.062-0.064-0.079-0.109-0.105 c-0.138-0.08-0.295-0.1-0.448-0.13c-0.457-0.089-0.917-0.071-1.375-0.019c-0.424,0.048-0.834,0.156-1.232,0.309 c-0.044,0.017-0.103,0.064-0.141-0.014c0.39-0.188,0.803-0.295,1.227-0.367c0.244-0.041,0.491-0.06,0.737-0.061 C17.134,25.281,17.469,25.289,17.796,25.367z" clip-rule="evenodd"/><path fill="#FEDB84" fill-rule="evenodd" d="M14.838,25.711c0.039,0.042,0.077,0.005,0.109-0.007 c0.417-0.169,0.85-0.279,1.295-0.328c0.562-0.062,1.125-0.06,1.675,0.098c0.091,0.026,0.177,0.075,0.253,0.134 c0.03,0.023,0.057,0.05,0.041,0.09c-0.014,0.035-0.052,0.036-0.083,0.032c-0.154-0.017-0.309-0.033-0.462-0.054 c-0.295-0.041-0.588-0.066-0.89-0.05c-0.49,0.024-0.967,0.1-1.431,0.25c-0.473,0.154-0.912,0.377-1.308,0.685 c-0.444,0.344-0.79,0.768-1.049,1.26c-0.183,0.348-0.294,0.724-0.363,1.111c-0.03,0.172-0.045,0.347-0.076,0.519 c-0.013,0.073-0.01,0.188-0.108,0.188c-0.078,0-0.095-0.099-0.11-0.176c-0.059-0.303,0.011-0.595,0.063-0.889 c0.006-0.035,0.027-0.068-0.006-0.1c0.086-0.407,0.259-0.778,0.483-1.125c0.312-0.484,0.697-0.896,1.185-1.212 C14.306,25.974,14.556,25.813,14.838,25.711z" clip-rule="evenodd"/><path fill="#FFF" fill-rule="evenodd" d="M58.906,36.064c-1.216,0-2.413,0-3.629,0 c0.618-1.466,1.233-2.925,1.858-4.409C57.73,33.136,58.315,34.593,58.906,36.064z" clip-rule="evenodd"/><path fill="#4A245F" fill-rule="evenodd" d="M18.03,39.032c-0.031-0.167-0.063-0.334-0.094-0.502 c-0.015-0.046-0.016-0.093-0.007-0.142c0.08-0.421-0.028-0.8-0.3-1.121c-0.391-0.462-0.917-0.666-1.506-0.734 c-0.704-0.082-1.317,0.159-1.894,0.525c-0.444,0.281-0.833,0.637-1.242,0.965c-0.447,0.359-0.904,0.704-1.4,0.994 c-0.278,0.163-0.575,0.278-0.891,0.351c-0.266,0.061-0.53,0.123-0.802,0.149c-0.355,0.033-0.708,0.038-1.064-0.02 c-0.362-0.058-0.718-0.131-1.056-0.271c-0.545-0.228-1.009-0.569-1.396-1.017C5.916,37.674,5.5,37.098,5.05,36.55 c-0.236-0.287-0.468-0.577-0.754-0.822c-0.311-0.267-0.659-0.384-1.063-0.343c-0.104,0.011-0.207,0-0.307-0.034 c-0.056-0.03-0.113-0.06-0.168-0.089c-0.042-0.022-0.092-0.04-0.089-0.101c0.002-0.054,0.049-0.071,0.087-0.09 c0.244-0.124,0.462-0.287,0.67-0.462c0.467-0.395,0.855-0.863,1.232-1.342c0.406-0.516,0.801-1.04,1.256-1.515 c0.752-0.784,1.646-1.3,2.734-1.445c1.032-0.138,2.025-0.014,2.959,0.469c0.028,0.014,0.054,0.033,0.081,0.049 c-0.094,0.093-0.097,0.109-0.021,0.221c0.088,0.13,0.2,0.243,0.321,0.338c0.588,0.462,1.146,0.962,1.751,1.401 c0.355,0.258,0.754,0.441,1.188,0.525c0.158,0.031,0.325,0.044,0.486-0.001c1.156,0.217,2.245-0.44,2.545-1.621 c0.143-0.565,0.062-1.108-0.19-1.629c-0.035-0.085-0.01-0.167,0.024-0.243c0.039-0.085,0.028-0.159-0.001-0.243 c-0.213-0.606-0.656-0.973-1.252-1.145c-0.721-0.208-1.407-0.109-2.015,0.355c-0.45,0.343-0.683,0.809-0.706,1.373 c-0.004,0.106,0,0.213-0.017,0.319c-0.05,0.169-0.066,0.345-0.093,0.518c-0.005,0.033,0.016,0.077-0.039,0.082 c-0.045,0.004-0.058-0.037-0.07-0.069c-0.06-0.158-0.112-0.319-0.149-0.484c-0.067-0.295-0.106-0.593-0.084-0.896 c0.066,0.005,0.062,0.062,0.078,0.104c0.019,0.046,0.016,0.102,0.057,0.147c0.044-0.044,0.044-0.097,0.056-0.146 c0.091-0.399,0.195-0.793,0.386-1.159c0.351-0.671,0.875-1.155,1.558-1.473c0.473-0.22,0.973-0.311,1.491-0.317 c0.177-0.002,0.349,0.045,0.524,0.061c0.2,0.018,0.4,0.023,0.599-0.001c0.172-0.021,0.18-0.039,0.164-0.21 c-0.001-0.021,0.003-0.04,0.018-0.055c0.291,0.1,0.562,0.238,0.815,0.411c0.057,0.145,0.088,0.297,0.146,0.443 c0.126,0.321,0.328,0.595,0.523,0.874c0.307,0.438,0.467,0.924,0.522,1.452c0.065,0.624-0.028,1.231-0.196,1.827 c-0.167,0.597-0.531,1.071-0.99,1.477c-0.277,0.245-0.578,0.457-0.909,0.623c-0.343,0.172-0.702,0.292-1.082,0.35 c-0.225,0.035-0.451,0.072-0.679,0.074c-1.014,0.008-1.93-0.281-2.747-0.892c-0.539-0.403-1.084-0.797-1.629-1.192 c-0.502-0.364-1.07-0.549-1.694-0.562c-0.448-0.009-0.885,0.04-1.315,0.173c-0.558,0.174-1.027,0.48-1.427,0.899 c-0.399,0.417-0.697,0.897-0.858,1.455c-0.146,0.509-0.198,1.026-0.14,1.556c0.042,0.379,0.136,0.74,0.309,1.078 c0.23,0.451,0.597,0.768,1.039,1c0.273,0.145,0.568,0.237,0.864,0.323c0.224,0.115,0.458,0.207,0.697,0.288 c0.14,0.203,0.36,0.256,0.58,0.305c0.848,0.188,1.575-0.101,2.253-0.576c0.298-0.21,0.579-0.442,0.867-0.665 c0.056-0.044,0.104-0.103,0.184-0.105c0.076,0.061,0.207,0.054,0.314-0.019c0.03-0.021,0.054-0.047,0.082-0.069 c0.127-0.105,0.127-0.107-0.006-0.197c0.045-0.079,0.104-0.134,0.204-0.121c0.06,0.08,0.125,0.086,0.205,0.024 c0.057-0.044,0.127-0.066,0.189-0.104c0.056-0.034,0.104-0.073,0.124-0.14c0.019-0.062,0.06-0.077,0.127-0.081 c0.125-0.006,0.246-0.05,0.372-0.066c0.02-0.003,0.035-0.02,0.041-0.04c0.033-0.109,0.092-0.133,0.185-0.061 c0.049,0.039,0.099,0.024,0.144-0.01c0.104-0.081,0.212-0.086,0.325-0.021c0.055,0.031,0.104,0.035,0.148-0.021 c0.018-0.022,0.047-0.031,0.075-0.035c0.225-0.037,0.445-0.047,0.625,0.132c0.028,0.027,0.063,0.036,0.1,0.035 c0.111-0.005,0.217,0.043,0.333,0.015c0.068-0.018,0.14,0.021,0.14,0.109c0,0.082,0.048,0.09,0.109,0.088 c0.048-0.001,0.096,0.003,0.144,0.008c0.028,0.003,0.068,0.004,0.077,0.027c0.044,0.124,0.184,0.157,0.245,0.264 c0.019,0.033,0.043,0.058,0.079,0.069c0.068,0.023,0.109,0.064,0.103,0.142c-0.004,0.057,0.033,0.062,0.079,0.064 c0.098,0.004,0.118,0.056,0.134,0.154c0.018,0.104,0.017,0.218,0.092,0.319c0.084,0.113,0.122,0.258,0.101,0.407 c-0.018,0.132-0.027,0.265,0.002,0.395c0.022,0.101-0.004,0.154-0.105,0.173c-0.075,0.015-0.131,0.046-0.107,0.138 c0.008,0.033-0.001,0.077,0.043,0.091c0.037,0.012,0.058-0.018,0.081-0.04c0.061-0.061,0.128-0.084,0.203-0.028 c0.075,0.057,0.102,0.156,0.052,0.236c-0.047,0.077-0.135,0.116-0.201,0.177c-0.033,0.03-0.079-0.007-0.093-0.047 C18.164,39.079,18.103,39.05,18.03,39.032z" clip-rule="evenodd"/><path fill="#4A245F" fill-rule="evenodd" d="M18.03,39.032c0.082-0.022,0.154-0.027,0.174,0.082 c0.006,0.034,0.016,0.077,0.062,0.076c0.047-0.002,0.052-0.041,0.057-0.078c0.003-0.025,0.014-0.052,0.044-0.045 c0.125,0.027,0.102-0.082,0.114-0.138c0.014-0.062-0.045-0.114-0.096-0.135c-0.057-0.024-0.116-0.003-0.143,0.069 c-0.02,0.053-0.071,0.044-0.114,0.041c-0.053-0.005-0.044-0.047-0.047-0.082c-0.019-0.182-0.019-0.184,0.162-0.228 c0.056-0.015,0.073-0.038,0.056-0.093c-0.046-0.148-0.017-0.299-0.014-0.449c0.003-0.162-0.001-0.333-0.156-0.445 c-0.01-0.007-0.019-0.014-0.029-0.021c0.089-0.09-0.059-0.161-0.019-0.252c0.039-0.086-0.004-0.136-0.101-0.121 c-0.094,0.015-0.134-0.005-0.098-0.106c0.019-0.055-0.016-0.088-0.063-0.095c-0.072-0.011-0.12-0.039-0.128-0.117 c-0.001-0.017-0.021-0.046-0.032-0.045c-0.115,0.002-0.125-0.09-0.169-0.164c-0.045-0.078-0.145-0.035-0.22-0.045 c-0.081-0.01-0.19,0.037-0.143-0.132c0.019-0.068-0.08-0.094-0.143-0.069c-0.137,0.052-0.261-0.037-0.393-0.023 c-0.01,0.001-0.024-0.009-0.031-0.018c-0.168-0.212-0.396-0.163-0.617-0.138c-0.012,0.002-0.03,0.004-0.033,0.011 c-0.055,0.144-0.148,0.07-0.22,0.028c-0.102-0.06-0.187-0.035-0.263,0.031c-0.076,0.065-0.139,0.068-0.206-0.006 c-0.038-0.042-0.098-0.049-0.096,0.009c0.005,0.145-0.104,0.125-0.179,0.136c-0.073,0.011-0.152-0.013-0.202,0.066 c-0.004,0.007-0.026,0.012-0.032,0.007c-0.128-0.097-0.137,0.011-0.167,0.093c-0.026,0.072-0.105,0.081-0.159,0.12 c-0.067,0.048-0.148,0.073-0.215,0.126c-0.059,0.045-0.128,0-0.157-0.093c-0.006-0.07,0.053-0.096,0.097-0.124 c0.435-0.277,0.898-0.486,1.401-0.614c0.602-0.153,1.213-0.147,1.826-0.134c0.127,0.002,0.254,0.021,0.383,0.022 c0.087,0,0.166-0.014,0.237-0.066c0.396,0.098,0.764,0.263,1.105,0.487c0.054,0.13,0.171,0.209,0.26,0.311 c0.593,0.68,0.935,1.466,1.027,2.362c0.069,0.668-0.001,1.325-0.225,1.954c-0.379,1.067-1.11,1.813-2.171,2.217 c-0.667,0.254-1.362,0.301-2.07,0.226c-0.536-0.057-1.043-0.203-1.537-0.411c-0.467-0.457-0.765-1.01-0.909-1.645 c-0.152-0.678-0.098-1.343,0.142-1.993c0.019-0.051,0.023-0.137,0.085-0.129c0.072,0.009,0.053,0.097,0.058,0.151 c0.049,0.586,0.284,1.081,0.743,1.452c0.46,0.373,1.001,0.505,1.584,0.467c0.56-0.036,1.05-0.236,1.433-0.66 c0.383-0.426,0.537-0.936,0.541-1.499C18.027,39.12,18.029,39.076,18.03,39.032z" clip-rule="evenodd"/><path fill="#C61B7E" fill-rule="evenodd" d="M8.423,36.332c-0.384-0.742-0.401-1.491-0.035-2.245 c0.048,0.049,0.014,0.098-0.002,0.145c-0.046,0.128-0.092,0.257-0.104,0.394c-0.006,0.076-0.015,0.173,0.069,0.2 c0.096,0.031,0.123-0.071,0.151-0.136c0.102-0.231,0.198-0.463,0.354-0.667c0.269-0.349,0.612-0.584,1.036-0.699 c0.276-0.075,0.555-0.12,0.843-0.078c0.1,0.014,0.2,0,0.298-0.023c0.078-0.019,0.085-0.049,0.027-0.104 c-0.038-0.037-0.088-0.056-0.131-0.084c-0.024-0.016-0.066-0.038-0.014-0.072c0.289,0.063,0.547,0.199,0.797,0.349 c0.26,0.157,0.511,0.328,0.741,0.527c0.029,0.061-0.028,0.074-0.058,0.098c-0.114,0.092-0.127,0.161-0.056,0.29 c0.063,0.114,0.158,0.201,0.252,0.288c0.34,0.312,0.732,0.48,1.204,0.406c0.068-0.011,0.136,0.015,0.202-0.008 c0.174,0.067,0.348,0.135,0.522,0.202c-0.01,0.059-0.059,0.051-0.094,0.045c-0.221-0.037-0.439,0.005-0.655,0.035 c-0.394,0.055-0.781,0.133-1.124,0.357c-0.162,0.105-0.313,0.223-0.465,0.34c-0.206,0.16-0.412,0.319-0.616,0.479 c-0.358,0.282-0.764,0.428-1.222,0.431c-0.328,0.003-0.646-0.024-0.942-0.188c-0.146-0.081-0.263-0.195-0.389-0.301 c-0.098-0.082-0.207-0.136-0.33-0.165c-0.144-0.033-0.191-0.003-0.225,0.146C8.454,36.312,8.448,36.33,8.423,36.332z" clip-rule="evenodd"/><path fill="#1F142B" fill-rule="evenodd" d="M19.835,27.587c0.263,0.239,0.46,0.529,0.63,0.837 c0.814,1.475,0.665,3.342-0.384,4.657c-0.639,0.801-1.482,1.29-2.485,1.47c-1.585,0.284-3.01-0.104-4.279-1.089 c-0.433-0.335-0.851-0.691-1.317-0.983c-0.585-0.367-1.22-0.535-1.908-0.47c-1.471,0.14-2.563,1.256-2.784,2.546 c-0.174,1.02,0.05,1.937,0.733,2.728c0.068,0.078,0.142,0.152,0.212,0.228c-0.052,0.045-0.1,0.013-0.143-0.013 c-0.373-0.213-0.679-0.487-0.868-0.886c-0.308-0.647-0.401-1.327-0.29-2.027c0.143-0.895,0.582-1.628,1.299-2.188 c0.499-0.389,1.067-0.621,1.695-0.679c0.558-0.052,1.099,0.021,1.618,0.258c0.354,0.162,0.667,0.381,0.977,0.609 c0.545,0.401,1.082,0.816,1.66,1.17c0.589,0.36,1.239,0.524,1.926,0.58c0.513,0.041,1.017,0.004,1.513-0.12 c0.644-0.162,1.213-0.466,1.712-0.91c0.39-0.346,0.7-0.748,0.923-1.216c0.176-0.369,0.253-0.768,0.313-1.168 c0.094-0.627,0.05-1.245-0.157-1.847c-0.065-0.19-0.15-0.371-0.248-0.546c-0.138-0.249-0.268-0.502-0.365-0.771 C19.798,27.702,19.754,27.636,19.835,27.587z" clip-rule="evenodd"/><path fill="#171322" fill-rule="evenodd" d="M17.432,37.658c-0.293-0.288-0.628-0.504-1.031-0.603 c-0.65-0.16-1.25-0.026-1.817,0.307c-0.5,0.294-0.926,0.683-1.365,1.056c-0.488,0.415-0.986,0.815-1.557,1.115 c-0.826,0.433-1.703,0.596-2.631,0.534c-0.985-0.065-1.86-0.396-2.622-1.024c-0.538-0.444-0.976-0.98-1.403-1.526 c-0.441-0.564-0.872-1.138-1.398-1.629c-0.19-0.178-0.4-0.331-0.606-0.488c0.262-0.037,0.515-0.018,0.747,0.126 c0.28,0.173,0.5,0.412,0.713,0.656c0.557,0.641,1.072,1.315,1.619,1.965c0.539,0.641,1.182,1.125,1.991,1.369 c0.35,0.105,0.71,0.152,1.075,0.181c0.728,0.058,1.416-0.096,2.09-0.347c0.301-0.112,0.557-0.298,0.815-0.48 c0.641-0.455,1.231-0.974,1.858-1.447c0.498-0.376,1.034-0.685,1.669-0.742s1.22,0.076,1.683,0.558 c0.082,0.085,0.148,0.18,0.178,0.295C17.449,37.574,17.468,37.618,17.432,37.658z" clip-rule="evenodd"/><path fill="#391E4A" fill-rule="evenodd" d="M8.85,37.945c-0.271-0.006-0.508-0.129-0.747-0.232 c-0.443-0.19-0.807-0.487-1.078-0.887c-0.188-0.276-0.288-0.594-0.365-0.917c-0.057-0.242-0.088-0.49-0.085-0.733 c0.007-0.585,0.099-1.16,0.358-1.693c0.213-0.438,0.503-0.823,0.861-1.155c0.488-0.453,1.072-0.715,1.718-0.847 c0.359-0.073,0.726-0.072,1.087-0.044c0.329,0.025,0.648,0.116,0.955,0.25c0.379,0.165,0.689,0.429,1.018,0.667 c0.526,0.38,1.038,0.784,1.59,1.126c0.441,0.273,0.923,0.446,1.439,0.527c0.277,0.044,0.556,0.07,0.832,0.062 c0.506-0.015,1.002-0.097,1.479-0.291c0.581-0.237,1.073-0.596,1.498-1.049c0.405-0.432,0.656-0.948,0.762-1.532 c0.044-0.243,0.08-0.485,0.102-0.732c0.032-0.354,0.017-0.7-0.054-1.045c-0.079-0.387-0.218-0.749-0.449-1.074 c-0.249-0.351-0.498-0.703-0.623-1.124c-0.023-0.078-0.037-0.155-0.036-0.235c0.104,0.062,0.198,0.138,0.291,0.215 c0.029,0.043,0.058,0.087,0.07,0.139c0.085,0.393,0.306,0.719,0.516,1.05c0.278,0.438,0.429,0.917,0.481,1.43 c0.063,0.626-0.02,1.237-0.2,1.835c-0.188,0.623-0.555,1.127-1.043,1.551c-0.191,0.166-0.391,0.319-0.607,0.449 c-0.379,0.228-0.784,0.39-1.221,0.481c-0.347,0.072-0.695,0.12-1.046,0.11c-0.877-0.024-1.701-0.231-2.427-0.751 c-0.12-0.086-0.242-0.17-0.367-0.25c-0.011-0.005-0.021-0.012-0.03-0.019c-0.062-0.052-0.122-0.108-0.199-0.141 c-0.092-0.042-0.172-0.101-0.245-0.171c-0.045-0.06-0.109-0.094-0.173-0.128c-0.243-0.177-0.485-0.354-0.727-0.531 c-0.471-0.346-0.993-0.564-1.578-0.625c-0.785-0.082-1.516,0.083-2.183,0.497c-0.534,0.332-0.941,0.787-1.23,1.35 c-0.199,0.386-0.329,0.791-0.373,1.221c-0.075,0.729,0.016,1.431,0.396,2.072c0.186,0.313,0.459,0.542,0.773,0.723 c0.16,0.092,0.325,0.173,0.499,0.235C8.61,37.8,8.73,37.873,8.85,37.945z" clip-rule="evenodd"/><path fill="#331C43" fill-rule="evenodd" d="M17.432,37.658c-0.049-0.352-0.298-0.551-0.577-0.704 c-0.344-0.189-0.722-0.273-1.117-0.259c-0.445,0.017-0.854,0.159-1.236,0.375c-0.562,0.317-1.038,0.752-1.543,1.147 c-0.492,0.386-0.968,0.801-1.534,1.079c-0.45,0.221-0.933,0.347-1.432,0.404c-0.194,0.022-0.388,0.055-0.583,0.046 c-0.699-0.029-1.379-0.138-2.008-0.469c-0.473-0.249-0.877-0.578-1.228-0.981c-0.471-0.541-0.915-1.104-1.367-1.661 c-0.193-0.237-0.386-0.479-0.604-0.694c-0.205-0.203-0.414-0.41-0.708-0.497c-0.119-0.036-0.237-0.012-0.355-0.034 c-0.041-0.007-0.092-0.012-0.139-0.011c-0.03-0.008-0.056-0.023-0.075-0.049c0.277,0.024,0.555-0.036,0.833,0.04 c0.208,0.056,0.375,0.169,0.538,0.299c0.418,0.336,0.723,0.774,1.056,1.187c0.348,0.431,0.679,0.875,1.039,1.296 c0.447,0.523,0.989,0.904,1.643,1.115c0.414,0.133,0.839,0.214,1.278,0.223c0.437,0.01,0.86-0.064,1.286-0.149 c0.707-0.142,1.272-0.536,1.834-0.947c0.514-0.378,0.988-0.807,1.5-1.187c0.509-0.379,1.059-0.664,1.707-0.729 c0.411-0.041,0.802,0.026,1.182,0.17c0.366,0.139,0.686,0.35,0.908,0.677c0.221,0.325,0.32,0.685,0.221,1.079 c-0.008,0.035-0.01,0.071-0.015,0.106C17.821,38.209,17.658,37.916,17.432,37.658z" clip-rule="evenodd"/><path fill="#311B41" fill-rule="evenodd" d="M8.49,37.728c-0.123,0.031-0.216-0.051-0.311-0.098 c-0.283-0.141-0.545-0.313-0.764-0.549c-0.188-0.203-0.324-0.434-0.42-0.69c-0.127-0.338-0.198-0.684-0.22-1.046 c-0.037-0.601,0.055-1.177,0.308-1.718c0.195-0.419,0.455-0.797,0.805-1.118c0.323-0.296,0.676-0.531,1.078-0.689 c0.315-0.124,0.645-0.191,0.985-0.227c0.458-0.048,0.899,0.012,1.33,0.151c0.355,0.114,0.677,0.298,0.975,0.527 c0.224,0.172,0.462,0.325,0.68,0.505c0.054,0.043,0.114,0.078,0.168,0.12c0.074,0.065,0.151,0.125,0.24,0.168 c0.062,0.051,0.126,0.099,0.192,0.144c0.416,0.298,0.834,0.591,1.325,0.761c0.303,0.104,0.612,0.185,0.93,0.225 c0.222,0.028,0.444,0.059,0.667,0.046c0.302-0.017,0.603-0.039,0.901-0.098c0.64-0.128,1.208-0.405,1.716-0.808 c0.503-0.399,0.901-0.885,1.131-1.489c0.122-0.319,0.194-0.656,0.234-0.999c0.031-0.267,0.056-0.534,0.043-0.802 c-0.027-0.579-0.177-1.123-0.485-1.619c-0.175-0.281-0.36-0.559-0.463-0.877c-0.026-0.08-0.076-0.165-0.013-0.251 c0.123,0.077,0.199,0.204,0.312,0.291c-0.033,0.042-0.014,0.083,0,0.125c0.099,0.284,0.234,0.552,0.383,0.812 c0.194,0.341,0.307,0.708,0.389,1.088c0.046,0.215,0.067,0.437,0.063,0.651c-0.006,0.3-0.021,0.604-0.088,0.901 c-0.084,0.378-0.164,0.757-0.358,1.099c-0.221,0.391-0.489,0.74-0.827,1.042c-0.319,0.285-0.666,0.525-1.053,0.698 c-0.33,0.148-0.676,0.26-1.039,0.312c-0.309,0.045-0.617,0.079-0.928,0.068c-0.979-0.034-1.864-0.322-2.663-0.905 c-0.605-0.441-1.191-0.913-1.83-1.305c-0.345-0.212-0.726-0.353-1.13-0.408c-0.479-0.065-0.958-0.045-1.42,0.102 c-0.432,0.137-0.829,0.347-1.179,0.646c-0.39,0.333-0.686,0.731-0.903,1.193c-0.147,0.313-0.242,0.639-0.281,0.984 c-0.057,0.506-0.021,1.002,0.13,1.489c0.176,0.57,0.503,1.017,1.037,1.301c0.036,0.02,0.072,0.035,0.114,0.029 C8.323,37.593,8.431,37.633,8.49,37.728z" clip-rule="evenodd"/><path fill="#473768" fill-rule="evenodd" d="M18.297,26.575c0,0.004,0,0.008,0,0.012 c0.053,0.235,0.021,0.283-0.232,0.296c-0.303,0.017-0.605-0.005-0.905-0.053c-0.167-0.027-0.333-0.028-0.499,0.002 c-0.21,0.038-0.426,0.042-0.634,0.105c-0.513,0.157-0.976,0.396-1.375,0.762c-0.432,0.396-0.727,0.873-0.902,1.426 c-0.069,0.22-0.13,0.442-0.171,0.67c-0.01,0.054-0.015,0.145-0.08,0.145c-0.057,0-0.049-0.089-0.067-0.14 c-0.021-0.059-0.016-0.127-0.064-0.177c0.005-0.76,0.257-1.435,0.726-2.024c0.599-0.753,1.389-1.172,2.346-1.272 C17.078,26.261,17.698,26.344,18.297,26.575z" clip-rule="evenodd"/><path fill="#473869" fill-rule="evenodd" d="M17.961,35.875c-0.013,0.099-0.085,0.102-0.161,0.099 c-0.451-0.019-0.902-0.042-1.352-0.021c-0.531,0.025-1.048,0.132-1.542,0.335c-0.299,0.123-0.583,0.275-0.85,0.461 c-0.016,0.011-0.026,0.028-0.04,0.043c-0.077,0.021-0.133,0.072-0.192,0.12c-0.105,0.127-0.246,0.208-0.385,0.289 c-0.194,0.119-0.363,0.271-0.542,0.41c-0.464,0.36-0.926,0.724-1.504,0.893c-0.402,0.116-0.804,0.18-1.222,0.077 c-0.132-0.033-0.266-0.062-0.389-0.115c-0.101-0.043-0.225-0.087-0.236-0.231c0.321,0.071,0.644,0.115,0.975,0.102 c0.633-0.025,1.185-0.268,1.697-0.621c0.487-0.337,0.932-0.73,1.418-1.069c0.885-0.616,1.863-0.932,2.943-0.945 c0.455-0.005,0.901,0.038,1.34,0.155C17.934,35.858,17.947,35.868,17.961,35.875z" clip-rule="evenodd"/><path fill="#171320" fill-rule="evenodd" d="M19.86,37.013c0.244,0.218,0.424,0.486,0.583,0.768 c0.463,0.818,0.614,1.698,0.502,2.627c-0.113,0.938-0.499,1.746-1.17,2.411c-0.701,0.694-1.549,1.087-2.532,1.189 c-0.722,0.075-1.409-0.037-2.058-0.368c-0.039-0.02-0.074-0.045-0.111-0.068c0.089-0.048,0.174-0.004,0.254,0.021 c0.204,0.061,0.412,0.103,0.622,0.127c0.916,0.104,1.808,0.034,2.644-0.394c0.913-0.468,1.557-1.179,1.901-2.148 c0.13-0.367,0.185-0.751,0.2-1.143c0.011-0.301-0.005-0.598-0.046-0.896c-0.076-0.552-0.286-1.056-0.561-1.535 c-0.08-0.139-0.164-0.275-0.228-0.423C19.839,37.127,19.811,37.069,19.86,37.013z" clip-rule="evenodd"/><path fill="#331C43" fill-rule="evenodd" d="M14.351,43.02c0.12-0.023,0.216,0.053,0.318,0.089 c0.372,0.136,0.75,0.232,1.145,0.277c0.275,0.031,0.548,0.042,0.823,0.041c0.32-0.001,0.634-0.055,0.942-0.135 c0.42-0.109,0.813-0.285,1.17-0.535c0.315-0.222,0.588-0.485,0.823-0.793c0.396-0.517,0.614-1.107,0.713-1.74 c0.1-0.634,0.083-1.268-0.098-1.894c-0.178-0.615-0.466-1.165-0.895-1.641c-0.067-0.074-0.121-0.161-0.208-0.213 c-0.058-0.035-0.021-0.076-0.019-0.115c0.196,0.111,0.374,0.247,0.539,0.401c-0.048,0.073-0.001,0.129,0.038,0.185 c0.194,0.274,0.386,0.55,0.531,0.855c0.21,0.441,0.349,0.902,0.395,1.391c0.055,0.596,0.021,1.184-0.153,1.759 c-0.174,0.576-0.461,1.085-0.885,1.52c-0.707,0.727-1.574,1.099-2.571,1.18c-0.692,0.056-1.375-0.007-2.031-0.256 c-0.06-0.023-0.124-0.033-0.187-0.041C14.594,43.264,14.466,43.148,14.351,43.02z" clip-rule="evenodd"/><path fill="#22152F" fill-rule="evenodd" d="M14.743,43.354c0.057-0.037,0.114-0.023,0.172-0.001 c0.457,0.184,0.936,0.234,1.423,0.272c0.657,0.052,1.28-0.066,1.881-0.302c0.413-0.162,0.792-0.396,1.118-0.706 c0.33-0.313,0.617-0.659,0.813-1.072c0.215-0.453,0.344-0.928,0.388-1.432c0.056-0.642-0.002-1.264-0.214-1.872 c-0.15-0.432-0.378-0.817-0.643-1.186c-0.044-0.062-0.088-0.124-0.129-0.188c-0.042-0.063-0.031-0.104,0.054-0.106 c0.093,0.074,0.184,0.152,0.255,0.25c-0.005,0.176,0.102,0.311,0.184,0.447c0.268,0.444,0.48,0.911,0.594,1.418 c0.05,0.221,0.075,0.447,0.087,0.674c0.028,0.523-0.012,1.04-0.168,1.544c-0.104,0.334-0.254,0.647-0.448,0.938 c-0.489,0.732-1.16,1.23-1.984,1.528c-0.605,0.219-1.233,0.255-1.866,0.224c-0.382-0.02-0.755-0.104-1.124-0.207 c-0.019-0.005-0.04-0.005-0.06-0.007C14.952,43.518,14.844,43.44,14.743,43.354z" clip-rule="evenodd"/><path fill="#651344" fill-rule="evenodd" d="M14.568,35.131c0.029-0.001,0.06,0,0.066,0.036 c0.006,0.032-0.023,0.038-0.045,0.044c-0.766,0.211-1.359,0.71-1.97,1.179c-0.441,0.338-0.88,0.679-1.399,0.895 c-0.881,0.367-1.886,0.149-2.512-0.547c-0.01-0.012-0.018-0.026-0.027-0.039c0.002-0.091,0.026-0.109,0.112-0.075 c0.116,0.046,0.223,0.11,0.323,0.183c0.611,0.439,1.27,0.475,1.948,0.204c0.347-0.138,0.639-0.378,0.931-0.609 c0.201-0.158,0.383-0.339,0.577-0.505c0.311-0.268,0.67-0.432,1.07-0.511c0.162-0.032,0.319-0.081,0.47-0.142 c0.109-0.044,0.219-0.074,0.333-0.093C14.486,35.148,14.526,35.133,14.568,35.131z" clip-rule="evenodd"/><path fill="#1B122F" fill-rule="evenodd" d="M15.414,33.307c-0.033,0.059-0.099,0.06-0.148,0.059 c-0.264-0.004-0.523-0.048-0.769-0.147c-0.49-0.197-0.922-0.481-1.318-0.831c-0.286-0.253-0.597-0.477-0.892-0.719 c-0.244-0.199-0.503-0.383-0.675-0.655c-0.076-0.12-0.057-0.157,0.077-0.19c0.35,0.165,0.663,0.387,0.962,0.627 c0.431,0.346,0.85,0.707,1.276,1.057C14.37,32.872,14.847,33.174,15.414,33.307z" clip-rule="evenodd"/><path fill="#311B41" fill-rule="evenodd" d="M13.802,30.474c-0.039-0.361-0.006-0.712,0.157-1.042 c0.309-0.624,0.827-0.977,1.496-1.094c0.75-0.132,1.428,0.041,1.983,0.588c0.206,0.203,0.329,0.458,0.417,0.731 c0.013,0.04,0.017,0.079-0.008,0.116c-0.058,0.086-0.06,0.188-0.079,0.285c-0.095-0.149-0.197-0.294-0.313-0.428 c-0.092-0.238-0.219-0.452-0.42-0.617c-0.272-0.223-0.587-0.345-0.931-0.381c-0.456-0.048-0.894,0.026-1.299,0.251 c-0.452,0.251-0.741,0.625-0.853,1.133c-0.007,0.032-0.007,0.063-0.005,0.095C13.899,30.231,13.851,30.353,13.802,30.474z" clip-rule="evenodd"/><path fill="#B94C89" fill-rule="evenodd" d="M10.916,32.962c-0.021,0.031,0.002,0.042,0.025,0.051 c0.032,0.015,0.071,0.022,0.096,0.045c0.045,0.041,0.128,0.067,0.111,0.142c-0.018,0.074-0.099,0.045-0.154,0.061 c-0.143,0.041-0.284-0.001-0.426,0c-0.295,0.002-0.587,0.047-0.863,0.158c-0.546,0.218-0.906,0.617-1.118,1.159 c-0.028,0.07-0.062,0.138-0.094,0.207c-0.027,0.058-0.071,0.107-0.137,0.097c-0.073-0.011-0.095-0.084-0.105-0.146 c-0.019-0.121,0.018-0.236,0.047-0.352c0.026-0.1,0.091-0.188,0.09-0.295c0.172-0.38,0.449-0.668,0.803-0.881 c0.524-0.316,1.087-0.4,1.683-0.264C10.889,32.946,10.902,32.956,10.916,32.962z" clip-rule="evenodd"/><path fill="#161421" fill-rule="evenodd" d="M13.948,30.11c-0.093-0.093,0-0.179,0.021-0.258 c0.135-0.494,0.47-0.827,0.915-1.047c0.328-0.163,0.684-0.228,1.055-0.215c0.366,0.013,0.697,0.116,1.002,0.312 c0.203,0.13,0.35,0.311,0.46,0.522c0.033,0.064,0.061,0.131,0.054,0.206c-0.419-0.414-0.929-0.616-1.511-0.622 C15.076,28.999,14.387,29.333,13.948,30.11z" clip-rule="evenodd"/><path fill="#8D1F5E" fill-rule="evenodd" d="M14.451,35.157c-0.287,0.088-0.563,0.208-0.861,0.269 c-0.364,0.074-0.7,0.228-0.98,0.479c-0.431,0.386-0.861,0.773-1.372,1.056c-0.254,0.141-0.527,0.225-0.82,0.239 c-0.42,0.022-0.821-0.037-1.181-0.275c-0.146-0.097-0.29-0.197-0.449-0.273c-0.058-0.027-0.101-0.036-0.107,0.047 c-0.056-0.05-0.099-0.109-0.138-0.172c-0.035-0.143,0.043-0.222,0.19-0.185c0.204,0.051,0.364,0.181,0.526,0.305 c0.206,0.158,0.44,0.243,0.694,0.278c0.635,0.086,1.194-0.094,1.693-0.486c0.292-0.23,0.574-0.475,0.866-0.705 c0.252-0.198,0.532-0.342,0.845-0.415c0.277-0.064,0.556-0.115,0.834-0.171C14.279,35.13,14.366,35.124,14.451,35.157z" clip-rule="evenodd"/><path fill="#A4216C" fill-rule="evenodd" d="M14.451,35.157c-0.255-0.012-0.493,0.083-0.74,0.121 c-0.353,0.054-0.69,0.153-0.995,0.348c-0.199,0.127-0.371,0.287-0.553,0.436c-0.331,0.27-0.651,0.552-1.042,0.735 c-0.226,0.106-0.467,0.184-0.713,0.179c-0.355-0.006-0.721-0.006-1.04-0.213c-0.157-0.102-0.294-0.231-0.462-0.318 c-0.046-0.024-0.093-0.046-0.142-0.062c-0.155-0.051-0.215-0.012-0.222,0.144c-0.046-0.061-0.09-0.123-0.12-0.194 c0.045-0.047-0.038-0.104,0.016-0.155c0.062-0.058,0.121-0.092,0.213-0.074c0.194,0.035,0.35,0.138,0.483,0.271 c0.25,0.251,0.561,0.363,0.901,0.391c0.437,0.035,0.86-0.019,1.25-0.241c0.24-0.138,0.443-0.324,0.661-0.491 c0.338-0.259,0.661-0.539,1.063-0.701c0.197-0.08,0.405-0.113,0.612-0.146c0.27-0.043,0.54-0.098,0.816-0.054 c0.027,0.004,0.057,0.005,0.08-0.016c0.02-0.003,0.036,0.002,0.048,0.018C14.533,35.156,14.492,35.155,14.451,35.157z" clip-rule="evenodd"/><path fill="#341C45" fill-rule="evenodd" d="M19.523,27.297c0.009,0.296,0.157,0.541,0.296,0.786 c0.214,0.377,0.454,0.741,0.564,1.169c0.12,0.461,0.152,0.925,0.105,1.398c-0.032,0.331-0.096,0.652-0.183,0.972 c-0.112,0.417-0.326,0.779-0.589,1.114c-0.263,0.334-0.582,0.61-0.936,0.844c-0.39,0.257-0.812,0.449-1.266,0.555 c-0.267,0.062-0.541,0.087-0.814,0.114c-0.245,0.023-0.486,0.007-0.727-0.01c-0.274-0.019-0.542-0.083-0.808-0.153 c-0.591-0.155-1.097-0.469-1.583-0.822c-0.019-0.014-0.031-0.036-0.046-0.055c0.153,0.055,0.274,0.164,0.401,0.256 c0.503,0.363,1.066,0.572,1.669,0.68c0.298,0.053,0.601,0.085,0.903,0.072c0.609-0.028,1.202-0.133,1.756-0.403 c0.486-0.237,0.914-0.554,1.277-0.953c0.414-0.454,0.678-0.987,0.799-1.592c0.049-0.247,0.079-0.494,0.099-0.744 c0.011-0.14,0.023-0.278,0.019-0.418c-0.02-0.622-0.175-1.203-0.517-1.729c-0.225-0.345-0.435-0.698-0.527-1.106 c-0.005-0.023-0.009-0.046-0.013-0.07C19.462,27.21,19.473,27.279,19.523,27.297z" clip-rule="evenodd"/><path fill="#A3216B" fill-rule="evenodd" d="M13.998,34.912c-0.065,0.104-0.17,0.035-0.25,0.044 c-0.598,0.068-1.045-0.212-1.399-0.664c-0.152-0.194-0.127-0.273,0.074-0.406c0.019-0.012,0.029-0.026,0.032-0.047 c0.133,0.079,0.25,0.178,0.365,0.28c-0.107,0.153-0.099,0.162,0.037,0.304c0.242,0.252,0.542,0.339,0.879,0.342 C13.82,34.819,13.92,34.845,13.998,34.912z" clip-rule="evenodd"/><path fill="#871E59" fill-rule="evenodd" d="M13.735,34.765c-0.103,0.077-0.21,0.008-0.31-0.001 c-0.295-0.028-0.504-0.218-0.691-0.428c-0.077-0.086-0.05-0.141,0.085-0.217C13.123,34.336,13.42,34.563,13.735,34.765z" clip-rule="evenodd"/><path fill="#4A245F" fill-rule="evenodd" d="M13.44,37.2c0.112-0.119,0.252-0.198,0.385-0.289 c0.054-0.003,0.113-0.001,0.131,0.059c0.016,0.055-0.03,0.091-0.069,0.127c-0.104,0.097-0.222,0.154-0.365,0.181 C13.433,37.294,13.439,37.257,13.44,37.2z" clip-rule="evenodd"/><path fill="#341C45" fill-rule="evenodd" d="M13.537,33.208c-0.081-0.026-0.146-0.071-0.192-0.144 C13.421,33.095,13.487,33.141,13.537,33.208z" clip-rule="evenodd"/><path fill="#341C45" fill-rule="evenodd" d="M13.104,32.896c-0.069-0.021-0.129-0.057-0.168-0.12 C13.005,32.797,13.065,32.832,13.104,32.896z" clip-rule="evenodd"/></svg>