<svg xmlns="http://www.w3.org/2000/svg" version="1.1" id="Layer_1" x="0px" y="0px" width="70" height="70" viewBox="0 0 70 70" xml:space="preserve" style="enable-background:new 0 0 70 70;"><style type="text/css">
	.st0{fill:#FAD200;}
	.st1{fill:url(#SVGID_1_);}
	.st2{fill:url(#SVGID_2_);}
	.st3{fill:#FFFFFF;}
	.st4{display:none;}
	.st5{display:inline;fill:#00328C;}
	.st6{fill:url(#SVGID_3_);}
	.st7{fill:url(#SVGID_4_);}
</style><g><g><g><ellipse cx="39.1" cy="33.1" transform="matrix(0.9826 -0.1859 0.1859 0.9826 -5.477 7.8428)" class="st0" rx="16.9" ry="16.9"/></g><linearGradient id="SVGID_1_" gradientTransform="matrix(0.9826 -0.1859 0.1859 0.9826 -3256.7437 -1126.3837)" gradientUnits="userSpaceOnUse" x1="3010.23" x2="3035.8372" y1="1750.3815" y2="1750.3815"><stop offset="0.5127" style="stop-color:#FFFFFF;stop-opacity:0"/><stop offset="1" style="stop-color:#FFFFFF;stop-opacity:0.7"/></linearGradient><circle cx="39.1" cy="31.6" r="12.8" class="st1"/><g><linearGradient id="SVGID_2_" gradientUnits="userSpaceOnUse" x1="15.3506" x2="55.3746" y1="14.5322" y2="65.3936"><stop offset="0.1556" style="stop-color:#00328C"/><stop offset="0.1576" style="stop-color:#00348D"/><stop offset="0.2304" style="stop-color:#0073B8"/><stop offset="0.2835" style="stop-color:#009BD2"/><stop offset="0.3111" style="stop-color:#00AADC"/><stop offset="0.3526" style="stop-color:#008FCA"/><stop offset="0.4415" style="stop-color:#004A9C"/><stop offset="0.4712" style="stop-color:#00328C"/><stop offset="0.5424" style="stop-color:#0065AE"/><stop offset="0.6052" style="stop-color:#008BC7"/><stop offset="0.6556" style="stop-color:#00A2D6"/><stop offset="0.6873" style="stop-color:#00AADC"/><stop offset="0.7069" style="stop-color:#0099D1"/><stop offset="0.7783" style="stop-color:#0062AC"/><stop offset="0.8314" style="stop-color:#003F95"/><stop offset="0.86" style="stop-color:#00328C"/></linearGradient><path d="M68.9,47.6c-0.8-3.4-2.3-6.6-4-9.7c-0.1-0.2-0.3-0.6-0.4-0.7c-0.6-1-1.2-2.1-1.9-3.1     c-0.2-0.3-1.3-2.1-1.8-2.8c-0.4-0.5-0.5-1-1.6-0.9c-1,0.1-3.7,0.5-4.8,0.6c-2.2,0.2-3.7,0.6-5.9,0.7c-0.9,0.1-0.9,0-1.4-0.3     C46.4,31.1,45.7,31,45,31c-0.4,0-0.9,0-1.3,0c-1,0.1-2,0.3-3.1,0.4c-0.5,0.1-0.8,0.2-2.1-0.4c-1.5-0.7-3-1.4-4.4-2.2     c-1.4-0.8-2.2-1.9-1.9-3.5c0.4-2.5,1.3-2.9-0.9-2.8c-1.4,0.1-3.8,0.5-5.6,0.9C18,25,10.6,27.2,3.1,29.5c-0.4,0.1-0.8,0.2-1.2,0.4     c-0.4,0.2-0.4,0.4,0,0.7c0.2,0.1,0.7,0.1,1,0.1c6-0.9,7.8-1.2,9.6-1.5c4-0.6,7-1.1,8.7-1.2c0.8-0.1,0.7-0.1,1.6,0.8     c0.7,0.7,1.5,1.4,3,2.9c1.9,1.9,2.7,2.6,3.6,4c0.8,1.2,0.9,2.9-0.1,4c-0.6,0.6-1.1,1-1.6,1.4c-0.3,0.2-0.6,0.4-0.8,0.6     c-4.2,3-11.3,8-12.3,8.6c-0.4,0.2-1.4,0.9-1.7,1.2c-0.1,0.1-0.3,0.2-0.2,0.4c0.1,0.2,1.1,0.4,1.7-0.1c3.3-2.8,6.6-4.9,6.8-4.7     c0.2,0.2-1.3,1-3.6,3c-0.7,0.6-1.6,1.4-2.5,2.3c-0.4,0.4-0.5,1.2-0.3,1.4c0.2,0.2,0.4,0,0.5-0.1c1.7-1.9,2.3-2.6,4.1-4.1     c4.7-3.7,9.9-6.6,12.3-7.7c2.1-1,3.2-0.7,4.4-0.8l0.7-0.1c1.3-0.3,2.5-0.8,3.6-1.3c0.8-0.5,1.7-1,2.5-1.5c0.9-0.5,1.9-0.6,3-0.6     c1.5-0.1,9.7,1,11.9,1.4c1.2,0.2,1.5,0.7,1.8,1c0.4,0.4,2.6,2.5,3.9,3.9c1.4,1.5,2.9,3,4.3,4.5c0.2,0.2,0.5,0.6,0.8,0.4     C69.1,48.4,69,48,68.9,47.6z" class="st2"/><g><path d="M44.8,32.5c0.5-0.1,0.9-0.1,1.2-0.2c0.1,0,0.2,0,0.2,0.1c0,0.1-0.1,0.2-0.2,0.2      C45.7,32.9,45.3,32.9,44.8,32.5z" class="st3"/><path d="M52.2,32.9c-0.3,0-0.6,0.1-0.8,0.1c-1.4,0.1-2.8,0.4-4-0.4c-0.2-0.1-0.3-0.5-0.4-0.6c-0.1,0,0,0.1,0,0.3      c-0.1,0.4-0.6,0.7-0.1,1.2c0.2,0.2-0.1,0.3-0.2,0.4c-0.6,0.3-1.2,0.7-1.8,1c-0.7,0.4-1.4,0.3-2.1,0l-0.5-0.3      c-0.8-0.6-1.2-1.4-0.9-2.5c0.1-0.2-0.2-0.2-0.3-0.1c-0.3,0-0.8,0.2-0.9,0.3c-0.2,0.1-0.2,0.2-0.2,0.4c-0.8,1.8-2.1,3.2-3.3,4.6      c-0.8,0.9-1.6,1.8-2.4,2.8c-0.1,0.1-0.3,0.3-0.2,0.4c0.1,0.2,0.3,0.1,0.5,0.1c0.1,0,0.1,0,0.2,0c2.9-0.1,5.5-1.2,7.8-2.8      c0.7-0.5,1.3-1,1.7-1.8c0.4-0.6,0.9-0.8,1.6-1.2c0.7-0.4,1.1-0.7,2.1-0.8c1.4,0,2.7-0.1,4.2-0.1c0.3,0,0.6,1.3,0.6-0.3      C52.7,33.1,52.6,32.9,52.2,32.9z" class="st3"/></g></g></g><g class="st4"><polygon points="77.6,30.3 77.3,30.3 76.4,30.3 76.2,30.3 76.2,30.5 74.9,35.2 74.8,35.5 75.1,35.5 76,35.5     76.2,35.5 76.2,35.4 77.5,30.6   " class="st5"/><polygon points="90.9,30.2 90.5,30.2 89.5,30.2 89.4,30.2 89.3,30.4 87.6,33.3 87.5,30.5 87.4,30.2 87.2,30.2     86.5,30.2 86.4,30.2 86.3,30.3 84.6,33.2 84.4,30.5 84.4,30.2 84.2,30.2 83.3,30.2 83.1,30.2 83.1,30.5 83.5,35.3 83.5,35.5     83.7,35.5 84.5,35.5 84.6,35.5 84.7,35.4 86.3,32.7 86.5,35.3 86.5,35.5 86.8,35.5 87.5,35.5 87.7,35.5 87.7,35.4 90.7,30.6   " class="st5"/><path d="M73.1,30.4l0-0.2h-0.2h-0.8H72l-0.1,0.1l-3.4,4.8l-0.3,0.4h0.5h0.9h0.1l0.1-0.1l0.7-1.1h1.9l0.2,1l0,0.2h0.2    h0.9H74l0-0.3L73.1,30.4z M71.4,33.2l0.7-1.1l0.2,1.1H71.4z" class="st5"/><path d="M80.3,30.3h-1.7h-0.2l0,0.2l-1.3,4.8L77,35.5h0.3h0.8h0.2l0-0.2l0.4-1.5h0.7l0.8,1.5l0.1,0.1h0.1h1h0.4    l-0.2-0.3l-0.8-1.5c0.2,0,0.3-0.1,0.4-0.2c0.2-0.1,0.4-0.2,0.6-0.4c0.2-0.2,0.3-0.3,0.4-0.6c0.1-0.2,0.1-0.4,0.1-0.7    c0-0.4-0.1-0.8-0.4-1.1C81.6,30.5,81,30.3,80.3,30.3z M80.8,32.4c-0.1,0.1-0.2,0.2-0.4,0.2c-0.2,0.1-0.4,0.1-0.6,0.1h-0.8l0.3-1.1    h0.9c0.2,0,0.3,0,0.4,0c0.1,0,0.2,0.1,0.2,0.1C81,31.8,81,31.8,81,32C81,32.1,81,32.2,80.8,32.4z" class="st5"/><path d="M94.2,35.3l-0.8-4.8l0-0.2h-0.2h-0.8h-0.1l-0.1,0.1l-3.4,4.8l-0.3,0.4H89h0.9H90l0.1-0.1l0.7-1.1h1.9l0.2,1    l0,0.2h0.2H94h0.3L94.2,35.3z M91.6,33.2l0.7-1.1l0.2,1.1H91.6z" class="st5"/><polygon points="100,30.3 99.4,30.3 98.4,30.3 98.3,30.3 98.2,30.3 96.6,32.2 96,30.4 95.9,30.3 95.8,30.3 94.8,30.3     94.5,30.3 94.6,30.6 95.7,33.4 95.2,35.2 95.1,35.5 95.4,35.5 96.2,35.5 96.4,35.5 96.5,35.4 96.9,33.6 99.6,30.7   " class="st5"/><path d="M101.4,31.6c0.1,0,0.1-0.1,0.2-0.1c0.1,0,0.2,0,0.3,0c0.2,0,0.4,0,0.6,0.1c0.2,0.1,0.3,0.2,0.5,0.4l0.2,0.2    l0.2-0.2l0.6-0.6l0.2-0.2l-0.2-0.2c-0.2-0.2-0.5-0.4-0.8-0.6c-0.3-0.1-0.7-0.2-1.1-0.2c-0.3,0-0.5,0-0.8,0.1    c-0.2,0.1-0.5,0.2-0.7,0.3c-0.2,0.2-0.3,0.3-0.5,0.6c-0.1,0.2-0.2,0.5-0.2,0.7c0,0.2,0,0.4,0.1,0.5c0.1,0.2,0.2,0.3,0.3,0.4    c0.1,0.1,0.3,0.2,0.4,0.3c0.2,0.1,0.3,0.2,0.5,0.2c0.2,0.1,0.3,0.1,0.4,0.2c0.1,0,0.2,0.1,0.2,0.1c0.1,0,0.1,0.1,0.1,0.1    c0,0,0,0.1,0,0.1c0,0.1,0,0.2-0.2,0.3c-0.1,0.1-0.3,0.1-0.5,0.1c-0.3,0-0.5,0-0.7-0.1c-0.2-0.1-0.4-0.3-0.6-0.5l-0.2-0.2l-0.2,0.1    l-0.6,0.5l-0.2,0.1l0.1,0.2c0.2,0.3,0.6,0.6,0.9,0.7c0.4,0.2,0.8,0.3,1.3,0.3c0.3,0,0.5,0,0.8-0.1c0.3-0.1,0.5-0.2,0.7-0.3    c0.2-0.2,0.4-0.3,0.5-0.6c0.1-0.2,0.2-0.5,0.2-0.7c0-0.2,0-0.4-0.1-0.5c-0.1-0.2-0.2-0.3-0.3-0.4c-0.1-0.1-0.3-0.2-0.4-0.3    c-0.2-0.1-0.3-0.2-0.5-0.2c-0.2-0.1-0.3-0.1-0.4-0.2c-0.1-0.1-0.2-0.1-0.2-0.1c-0.1,0-0.1-0.1-0.1-0.1c0,0,0-0.1,0-0.1    c0,0,0-0.1,0-0.1C101.3,31.6,101.3,31.6,101.4,31.6z" class="st5"/><polygon points="70.7,20.4 70.3,22.1 72.7,22.1 71,28.5 72.8,28.5 74.5,22.1 77,22.1 77.4,20.4   " class="st5"/><path d="M79.9,22h1.5c0.6,0,1,0.1,1.2,0.3c0.2,0.2,0.3,0.4,0.3,0.7c0,0.3-0.1,0.6-0.3,0.8c-0.2,0.2-0.4,0.3-0.7,0.4    c-0.3,0.1-0.6,0.1-0.9,0.1h-1.6L79.9,22z M78.6,20.4l-2.2,8.1h1.8l0.7-2.6h1.3l1.3,2.6h2l-1.4-2.8c0.8-0.2,1.4-0.5,1.9-1    c0.2-0.2,0.4-0.5,0.5-0.8c0.1-0.3,0.2-0.7,0.2-1.1c0-0.7-0.2-1.2-0.6-1.6c-0.3-0.3-0.6-0.5-1-0.6c-0.4-0.1-0.9-0.2-1.5-0.2H78.6z" class="st5"/><path d="M88.5,26.9c-0.3-0.1-0.5-0.2-0.7-0.4c-0.2-0.2-0.3-0.4-0.4-0.7c-0.1-0.3-0.1-0.5-0.1-0.8    c0-0.3,0.1-0.7,0.2-1.1c0.1-0.4,0.3-0.7,0.6-1c0.2-0.3,0.5-0.5,0.9-0.7c0.3-0.2,0.7-0.3,1.2-0.3c0.3,0,0.6,0.1,0.9,0.2    c0.3,0.1,0.5,0.2,0.7,0.4c0.2,0.2,0.3,0.4,0.4,0.7c0.1,0.3,0.1,0.5,0.1,0.8c0,0.3-0.1,0.7-0.2,1.1c-0.1,0.4-0.3,0.7-0.6,1    c-0.2,0.3-0.5,0.5-0.9,0.7c-0.3,0.2-0.7,0.3-1.2,0.3C89.1,27,88.8,27,88.5,26.9 M88.4,20.7c-0.6,0.3-1.1,0.6-1.5,1.1    c-0.4,0.4-0.8,1-1,1.5c-0.2,0.6-0.4,1.2-0.4,1.8c0,0.5,0.1,1,0.3,1.4c0.2,0.4,0.4,0.8,0.8,1.1c0.3,0.3,0.7,0.6,1.2,0.8    c0.5,0.2,1,0.3,1.5,0.3c0.7,0,1.4-0.1,2-0.4c0.6-0.3,1.1-0.6,1.5-1.1c0.4-0.4,0.8-1,1-1.5c0.2-0.6,0.4-1.2,0.4-1.8    c0-0.5-0.1-1-0.3-1.4c-0.2-0.4-0.4-0.8-0.8-1.1c-0.3-0.3-0.7-0.6-1.2-0.8c-0.5-0.2-1-0.3-1.5-0.3C89.7,20.3,89,20.4,88.4,20.7" class="st5"/><path d="M97.7,22h1.2c0.3,0,0.5,0,0.7,0.1s0.3,0.1,0.4,0.3c0.2,0.2,0.3,0.4,0.3,0.7c0,0.5-0.2,0.8-0.5,1.1    c-0.4,0.3-0.8,0.4-1.4,0.4H97L97.7,22z M96.3,20.4l-2.2,8.1h1.8l0.7-2.5h1.5c0.6,0,1.1-0.1,1.6-0.2c0.5-0.1,0.9-0.3,1.2-0.6    c0.4-0.3,0.6-0.6,0.8-1c0.2-0.4,0.3-0.8,0.3-1.3c0-0.7-0.2-1.3-0.6-1.7c-0.3-0.3-0.6-0.5-1.1-0.6c-0.4-0.1-0.9-0.2-1.5-0.2H96.3z" class="st5"/><polygon points="104,20.4 101.8,28.5 103.6,28.5 105.8,20.4   " class="st5"/><path d="M108.9,20.7c-0.6,0.3-1.1,0.6-1.6,1.1c-0.4,0.4-0.8,1-1.1,1.5c-0.3,0.6-0.4,1.2-0.4,1.9c0,0.5,0.1,1,0.3,1.5    c0.2,0.4,0.5,0.8,0.8,1.1c0.3,0.3,0.7,0.5,1.2,0.7c0.5,0.2,1,0.2,1.5,0.2c0.7,0,1.3-0.1,1.8-0.3c0.5-0.2,0.9-0.5,1.3-0.9l-1.2-1.2    c-0.3,0.2-0.6,0.4-0.9,0.6c-0.3,0.1-0.6,0.2-1,0.2c-0.3,0-0.6,0-0.8-0.1c-0.2-0.1-0.4-0.2-0.6-0.4c-0.2-0.2-0.3-0.4-0.4-0.6    c-0.1-0.2-0.1-0.5-0.1-0.8c0-0.4,0.1-0.8,0.2-1.2c0.2-0.4,0.4-0.7,0.6-1c0.3-0.3,0.6-0.5,0.9-0.7c0.3-0.2,0.7-0.2,1.1-0.2    c0.5,0,0.9,0.1,1.2,0.3c0.3,0.2,0.6,0.5,0.8,0.8l1.5-1c-0.3-0.5-0.8-1-1.3-1.3c-0.5-0.3-1.2-0.5-2-0.5    C110.1,20.3,109.5,20.4,108.9,20.7" class="st5"/><path d="M121,26.9c-0.3-0.1-0.5-0.2-0.7-0.4c-0.2-0.2-0.3-0.4-0.4-0.7c-0.1-0.3-0.1-0.5-0.1-0.8    c0-0.3,0.1-0.7,0.2-1.1c0.1-0.4,0.3-0.7,0.6-1c0.2-0.3,0.5-0.5,0.9-0.7c0.3-0.2,0.7-0.3,1.2-0.3c0.3,0,0.6,0.1,0.9,0.2    c0.3,0.1,0.5,0.2,0.7,0.4c0.2,0.2,0.3,0.4,0.4,0.7c0.1,0.3,0.1,0.5,0.1,0.8c0,0.3-0.1,0.7-0.2,1.1c-0.1,0.4-0.3,0.7-0.6,1    c-0.2,0.3-0.5,0.5-0.9,0.7c-0.3,0.2-0.7,0.3-1.2,0.3C121.6,27,121.3,27,121,26.9 M120.9,20.7c-0.6,0.3-1.1,0.6-1.5,1.1    c-0.4,0.4-0.8,1-1,1.5c-0.2,0.6-0.4,1.2-0.4,1.8c0,0.5,0.1,1,0.3,1.4c0.2,0.4,0.4,0.8,0.8,1.1c0.3,0.3,0.7,0.6,1.2,0.8    c0.5,0.2,1,0.3,1.5,0.3c0.7,0,1.4-0.1,2-0.4c0.6-0.3,1.1-0.6,1.5-1.1c0.4-0.4,0.8-1,1-1.5c0.2-0.6,0.4-1.2,0.4-1.8    c0-0.5-0.1-1-0.3-1.4c-0.2-0.4-0.4-0.8-0.8-1.1c-0.3-0.3-0.7-0.6-1.2-0.8c-0.5-0.2-1-0.3-1.5-0.3    C122.2,20.3,121.5,20.4,120.9,20.7" class="st5"/><path d="M130.6,20.7c-0.6,0.3-1.1,0.6-1.6,1.1c-0.4,0.4-0.8,1-1.1,1.5c-0.3,0.6-0.4,1.2-0.4,1.9c0,0.5,0.1,1,0.3,1.5    c0.2,0.4,0.5,0.8,0.8,1.1c0.3,0.3,0.7,0.5,1.2,0.7c0.5,0.2,1,0.2,1.5,0.2c0.7,0,1.3-0.1,1.8-0.3c0.5-0.2,0.9-0.5,1.3-0.9l-1.2-1.2    c-0.3,0.2-0.6,0.4-0.9,0.6s-0.6,0.2-1,0.2c-0.3,0-0.6,0-0.8-0.1c-0.2-0.1-0.4-0.2-0.6-0.4c-0.2-0.2-0.3-0.4-0.4-0.6    c-0.1-0.2-0.1-0.5-0.1-0.8c0-0.4,0.1-0.8,0.2-1.2c0.2-0.4,0.4-0.7,0.6-1c0.3-0.3,0.6-0.5,0.9-0.7c0.3-0.2,0.7-0.2,1.1-0.2    c0.5,0,0.9,0.1,1.2,0.3c0.3,0.2,0.6,0.5,0.8,0.8l1.5-1c-0.3-0.5-0.8-1-1.3-1.3c-0.5-0.3-1.2-0.5-2-0.5    C131.9,20.3,131.2,20.4,130.6,20.7L130.6,20.7z" class="st5"/><polygon points="137.4,20.4 135.2,28.5 141.4,28.5 141.8,27 137.4,27 137.9,25.2 141.7,25.2 142.1,23.7 138.3,23.7     138.8,22 143.1,22 143.5,20.4   " class="st5"/><path d="M148.3,22.5l0.4,2.7h-2.2L148.3,22.5z M148,20.4l-5.7,8.2h1.9l1.2-1.8h3.4l0.3,1.8h1.8l-1.3-8.2H148z" class="st5"/><polygon points="159.5,20.4 158.1,25.6 155.8,20.4 154.1,20.4 151.9,28.5 153.7,28.5 155.1,23.2 157.6,28.5     159.1,28.5 161.3,20.4   " class="st5"/></g></g><g><g><g><ellipse cx="39.1" cy="33.1" transform="matrix(0.9826 -0.1859 0.1859 0.9826 -5.477 7.8428)" class="st0" rx="16.9" ry="16.9"/></g><linearGradient id="SVGID_3_" gradientTransform="matrix(0.9826 -0.1859 0.1859 0.9826 -3256.7437 -1126.3837)" gradientUnits="userSpaceOnUse" x1="3010.23" x2="3035.8372" y1="1750.3815" y2="1750.3815"><stop offset="0.5127" style="stop-color:#FFFFFF;stop-opacity:0"/><stop offset="1" style="stop-color:#FFFFFF;stop-opacity:0.7"/></linearGradient><circle cx="39.1" cy="31.6" r="12.8" class="st6"/><g><linearGradient id="SVGID_4_" gradientUnits="userSpaceOnUse" x1="15.3506" x2="55.3746" y1="14.5322" y2="65.3936"><stop offset="0.1556" style="stop-color:#00328C"/><stop offset="0.1576" style="stop-color:#00348D"/><stop offset="0.2304" style="stop-color:#0073B8"/><stop offset="0.2835" style="stop-color:#009BD2"/><stop offset="0.3111" style="stop-color:#00AADC"/><stop offset="0.3526" style="stop-color:#008FCA"/><stop offset="0.4415" style="stop-color:#004A9C"/><stop offset="0.4712" style="stop-color:#00328C"/><stop offset="0.5424" style="stop-color:#0065AE"/><stop offset="0.6052" style="stop-color:#008BC7"/><stop offset="0.6556" style="stop-color:#00A2D6"/><stop offset="0.6873" style="stop-color:#00AADC"/><stop offset="0.7069" style="stop-color:#0099D1"/><stop offset="0.7783" style="stop-color:#0062AC"/><stop offset="0.8314" style="stop-color:#003F95"/><stop offset="0.86" style="stop-color:#00328C"/></linearGradient><path d="M68.9,47.6c-0.8-3.4-2.3-6.6-4-9.7c-0.1-0.2-0.3-0.6-0.4-0.7c-0.6-1-1.2-2.1-1.9-3.1     c-0.2-0.3-1.3-2.1-1.8-2.8c-0.4-0.5-0.5-1-1.6-0.9c-1,0.1-3.7,0.5-4.8,0.6c-2.2,0.2-3.7,0.6-5.9,0.7c-0.9,0.1-0.9,0-1.4-0.3     C46.4,31.1,45.7,31,45,31c-0.4,0-0.9,0-1.3,0c-1,0.1-2,0.3-3.1,0.4c-0.5,0.1-0.8,0.2-2.1-0.4c-1.5-0.7-3-1.4-4.4-2.2     c-1.4-0.8-2.2-1.9-1.9-3.5c0.4-2.5,1.3-2.9-0.9-2.8c-1.4,0.1-3.8,0.5-5.6,0.9C18,25,10.6,27.2,3.1,29.5c-0.4,0.1-0.8,0.2-1.2,0.4     c-0.4,0.2-0.4,0.4,0,0.7c0.2,0.1,0.7,0.1,1,0.1c6-0.9,7.8-1.2,9.6-1.5c4-0.6,7-1.1,8.7-1.2c0.8-0.1,0.7-0.1,1.6,0.8     c0.7,0.7,1.5,1.4,3,2.9c1.9,1.9,2.7,2.6,3.6,4c0.8,1.2,0.9,2.9-0.1,4c-0.6,0.6-1.1,1-1.6,1.4c-0.3,0.2-0.6,0.4-0.8,0.6     c-4.2,3-11.3,8-12.3,8.6c-0.4,0.2-1.4,0.9-1.7,1.2c-0.1,0.1-0.3,0.2-0.2,0.4c0.1,0.2,1.1,0.4,1.7-0.1c3.3-2.8,6.6-4.9,6.8-4.7     c0.2,0.2-1.3,1-3.6,3c-0.7,0.6-1.6,1.4-2.5,2.3c-0.4,0.4-0.5,1.2-0.3,1.4c0.2,0.2,0.4,0,0.5-0.1c1.7-1.9,2.3-2.6,4.1-4.1     c4.7-3.7,9.9-6.6,12.3-7.7c2.1-1,3.2-0.7,4.4-0.8l0.7-0.1c1.3-0.3,2.5-0.8,3.6-1.3c0.8-0.5,1.7-1,2.5-1.5c0.9-0.5,1.9-0.6,3-0.6     c1.5-0.1,9.7,1,11.9,1.4c1.2,0.2,1.5,0.7,1.8,1c0.4,0.4,2.6,2.5,3.9,3.9c1.4,1.5,2.9,3,4.3,4.5c0.2,0.2,0.5,0.6,0.8,0.4     C69.1,48.4,69,48,68.9,47.6z" class="st7"/><g><path d="M44.8,32.5c0.5-0.1,0.9-0.1,1.2-0.2c0.1,0,0.2,0,0.2,0.1c0,0.1-0.1,0.2-0.2,0.2      C45.7,32.9,45.3,32.9,44.8,32.5z" class="st3"/><path d="M52.2,32.9c-0.3,0-0.6,0.1-0.8,0.1c-1.4,0.1-2.8,0.4-4-0.4c-0.2-0.1-0.3-0.5-0.4-0.6c-0.1,0,0,0.1,0,0.3      c-0.1,0.4-0.6,0.7-0.1,1.2c0.2,0.2-0.1,0.3-0.2,0.4c-0.6,0.3-1.2,0.7-1.8,1c-0.7,0.4-1.4,0.3-2.1,0l-0.5-0.3      c-0.8-0.6-1.2-1.4-0.9-2.5c0.1-0.2-0.2-0.2-0.3-0.1c-0.3,0-0.8,0.2-0.9,0.3c-0.2,0.1-0.2,0.2-0.2,0.4c-0.8,1.8-2.1,3.2-3.3,4.6      c-0.8,0.9-1.6,1.8-2.4,2.8c-0.1,0.1-0.3,0.3-0.2,0.4c0.1,0.2,0.3,0.1,0.5,0.1c0.1,0,0.1,0,0.2,0c2.9-0.1,5.5-1.2,7.8-2.8      c0.7-0.5,1.3-1,1.7-1.8c0.4-0.6,0.9-0.8,1.6-1.2c0.7-0.4,1.1-0.7,2.1-0.8c1.4,0,2.7-0.1,4.2-0.1c0.3,0,0.6,1.3,0.6-0.3      C52.7,33.1,52.6,32.9,52.2,32.9z" class="st3"/></g></g></g><g class="st4"><polygon points="77.6,30.3 77.3,30.3 76.4,30.3 76.2,30.3 76.2,30.5 74.9,35.2 74.8,35.5 75.1,35.5 76,35.5     76.2,35.5 76.2,35.4 77.5,30.6   " class="st5"/><polygon points="90.9,30.2 90.5,30.2 89.5,30.2 89.4,30.2 89.3,30.4 87.6,33.3 87.5,30.5 87.4,30.2 87.2,30.2     86.5,30.2 86.4,30.2 86.3,30.3 84.6,33.2 84.4,30.5 84.4,30.2 84.2,30.2 83.3,30.2 83.1,30.2 83.1,30.5 83.5,35.3 83.5,35.5     83.7,35.5 84.5,35.5 84.6,35.5 84.7,35.4 86.3,32.7 86.5,35.3 86.5,35.5 86.8,35.5 87.5,35.5 87.7,35.5 87.7,35.4 90.7,30.6   " class="st5"/><path d="M73.1,30.4l0-0.2h-0.2h-0.8H72l-0.1,0.1l-3.4,4.8l-0.3,0.4h0.5h0.9h0.1l0.1-0.1l0.7-1.1h1.9l0.2,1l0,0.2h0.2    h0.9H74l0-0.3L73.1,30.4z M71.4,33.2l0.7-1.1l0.2,1.1H71.4z" class="st5"/><path d="M80.3,30.3h-1.7h-0.2l0,0.2l-1.3,4.8L77,35.5h0.3h0.8h0.2l0-0.2l0.4-1.5h0.7l0.8,1.5l0.1,0.1h0.1h1h0.4    l-0.2-0.3l-0.8-1.5c0.2,0,0.3-0.1,0.4-0.2c0.2-0.1,0.4-0.2,0.6-0.4c0.2-0.2,0.3-0.3,0.4-0.6c0.1-0.2,0.1-0.4,0.1-0.7    c0-0.4-0.1-0.8-0.4-1.1C81.6,30.5,81,30.3,80.3,30.3z M80.8,32.4c-0.1,0.1-0.2,0.2-0.4,0.2c-0.2,0.1-0.4,0.1-0.6,0.1h-0.8l0.3-1.1    h0.9c0.2,0,0.3,0,0.4,0c0.1,0,0.2,0.1,0.2,0.1C81,31.8,81,31.8,81,32C81,32.1,81,32.2,80.8,32.4z" class="st5"/><path d="M94.2,35.3l-0.8-4.8l0-0.2h-0.2h-0.8h-0.1l-0.1,0.1l-3.4,4.8l-0.3,0.4H89h0.9H90l0.1-0.1l0.7-1.1h1.9l0.2,1    l0,0.2h0.2H94h0.3L94.2,35.3z M91.6,33.2l0.7-1.1l0.2,1.1H91.6z" class="st5"/><polygon points="100,30.3 99.4,30.3 98.4,30.3 98.3,30.3 98.2,30.3 96.6,32.2 96,30.4 95.9,30.3 95.8,30.3 94.8,30.3     94.5,30.3 94.6,30.6 95.7,33.4 95.2,35.2 95.1,35.5 95.4,35.5 96.2,35.5 96.4,35.5 96.5,35.4 96.9,33.6 99.6,30.7   " class="st5"/><path d="M101.4,31.6c0.1,0,0.1-0.1,0.2-0.1c0.1,0,0.2,0,0.3,0c0.2,0,0.4,0,0.6,0.1c0.2,0.1,0.3,0.2,0.5,0.4l0.2,0.2    l0.2-0.2l0.6-0.6l0.2-0.2l-0.2-0.2c-0.2-0.2-0.5-0.4-0.8-0.6c-0.3-0.1-0.7-0.2-1.1-0.2c-0.3,0-0.5,0-0.8,0.1    c-0.2,0.1-0.5,0.2-0.7,0.3c-0.2,0.2-0.3,0.3-0.5,0.6c-0.1,0.2-0.2,0.5-0.2,0.7c0,0.2,0,0.4,0.1,0.5c0.1,0.2,0.2,0.3,0.3,0.4    c0.1,0.1,0.3,0.2,0.4,0.3c0.2,0.1,0.3,0.2,0.5,0.2c0.2,0.1,0.3,0.1,0.4,0.2c0.1,0,0.2,0.1,0.2,0.1c0.1,0,0.1,0.1,0.1,0.1    c0,0,0,0.1,0,0.1c0,0.1,0,0.2-0.2,0.3c-0.1,0.1-0.3,0.1-0.5,0.1c-0.3,0-0.5,0-0.7-0.1c-0.2-0.1-0.4-0.3-0.6-0.5l-0.2-0.2l-0.2,0.1    l-0.6,0.5l-0.2,0.1l0.1,0.2c0.2,0.3,0.6,0.6,0.9,0.7c0.4,0.2,0.8,0.3,1.3,0.3c0.3,0,0.5,0,0.8-0.1c0.3-0.1,0.5-0.2,0.7-0.3    c0.2-0.2,0.4-0.3,0.5-0.6c0.1-0.2,0.2-0.5,0.2-0.7c0-0.2,0-0.4-0.1-0.5c-0.1-0.2-0.2-0.3-0.3-0.4c-0.1-0.1-0.3-0.2-0.4-0.3    c-0.2-0.1-0.3-0.2-0.5-0.2c-0.2-0.1-0.3-0.1-0.4-0.2c-0.1-0.1-0.2-0.1-0.2-0.1c-0.1,0-0.1-0.1-0.1-0.1c0,0,0-0.1,0-0.1    c0,0,0-0.1,0-0.1C101.3,31.6,101.3,31.6,101.4,31.6z" class="st5"/><polygon points="70.7,20.4 70.3,22.1 72.7,22.1 71,28.5 72.8,28.5 74.5,22.1 77,22.1 77.4,20.4   " class="st5"/><path d="M79.9,22h1.5c0.6,0,1,0.1,1.2,0.3c0.2,0.2,0.3,0.4,0.3,0.7c0,0.3-0.1,0.6-0.3,0.8c-0.2,0.2-0.4,0.3-0.7,0.4    c-0.3,0.1-0.6,0.1-0.9,0.1h-1.6L79.9,22z M78.6,20.4l-2.2,8.1h1.8l0.7-2.6h1.3l1.3,2.6h2l-1.4-2.8c0.8-0.2,1.4-0.5,1.9-1    c0.2-0.2,0.4-0.5,0.5-0.8c0.1-0.3,0.2-0.7,0.2-1.1c0-0.7-0.2-1.2-0.6-1.6c-0.3-0.3-0.6-0.5-1-0.6c-0.4-0.1-0.9-0.2-1.5-0.2H78.6z" class="st5"/><path d="M88.5,26.9c-0.3-0.1-0.5-0.2-0.7-0.4c-0.2-0.2-0.3-0.4-0.4-0.7c-0.1-0.3-0.1-0.5-0.1-0.8    c0-0.3,0.1-0.7,0.2-1.1c0.1-0.4,0.3-0.7,0.6-1c0.2-0.3,0.5-0.5,0.9-0.7c0.3-0.2,0.7-0.3,1.2-0.3c0.3,0,0.6,0.1,0.9,0.2    c0.3,0.1,0.5,0.2,0.7,0.4c0.2,0.2,0.3,0.4,0.4,0.7c0.1,0.3,0.1,0.5,0.1,0.8c0,0.3-0.1,0.7-0.2,1.1c-0.1,0.4-0.3,0.7-0.6,1    c-0.2,0.3-0.5,0.5-0.9,0.7c-0.3,0.2-0.7,0.3-1.2,0.3C89.1,27,88.8,27,88.5,26.9 M88.4,20.7c-0.6,0.3-1.1,0.6-1.5,1.1    c-0.4,0.4-0.8,1-1,1.5c-0.2,0.6-0.4,1.2-0.4,1.8c0,0.5,0.1,1,0.3,1.4c0.2,0.4,0.4,0.8,0.8,1.1c0.3,0.3,0.7,0.6,1.2,0.8    c0.5,0.2,1,0.3,1.5,0.3c0.7,0,1.4-0.1,2-0.4c0.6-0.3,1.1-0.6,1.5-1.1c0.4-0.4,0.8-1,1-1.5c0.2-0.6,0.4-1.2,0.4-1.8    c0-0.5-0.1-1-0.3-1.4c-0.2-0.4-0.4-0.8-0.8-1.1c-0.3-0.3-0.7-0.6-1.2-0.8c-0.5-0.2-1-0.3-1.5-0.3C89.7,20.3,89,20.4,88.4,20.7" class="st5"/><path d="M97.7,22h1.2c0.3,0,0.5,0,0.7,0.1s0.3,0.1,0.4,0.3c0.2,0.2,0.3,0.4,0.3,0.7c0,0.5-0.2,0.8-0.5,1.1    c-0.4,0.3-0.8,0.4-1.4,0.4H97L97.7,22z M96.3,20.4l-2.2,8.1h1.8l0.7-2.5h1.5c0.6,0,1.1-0.1,1.6-0.2c0.5-0.1,0.9-0.3,1.2-0.6    c0.4-0.3,0.6-0.6,0.8-1c0.2-0.4,0.3-0.8,0.3-1.3c0-0.7-0.2-1.3-0.6-1.7c-0.3-0.3-0.6-0.5-1.1-0.6c-0.4-0.1-0.9-0.2-1.5-0.2H96.3z" class="st5"/><polygon points="104,20.4 101.8,28.5 103.6,28.5 105.8,20.4   " class="st5"/><path d="M108.9,20.7c-0.6,0.3-1.1,0.6-1.6,1.1c-0.4,0.4-0.8,1-1.1,1.5c-0.3,0.6-0.4,1.2-0.4,1.9c0,0.5,0.1,1,0.3,1.5    c0.2,0.4,0.5,0.8,0.8,1.1c0.3,0.3,0.7,0.5,1.2,0.7c0.5,0.2,1,0.2,1.5,0.2c0.7,0,1.3-0.1,1.8-0.3c0.5-0.2,0.9-0.5,1.3-0.9l-1.2-1.2    c-0.3,0.2-0.6,0.4-0.9,0.6c-0.3,0.1-0.6,0.2-1,0.2c-0.3,0-0.6,0-0.8-0.1c-0.2-0.1-0.4-0.2-0.6-0.4c-0.2-0.2-0.3-0.4-0.4-0.6    c-0.1-0.2-0.1-0.5-0.1-0.8c0-0.4,0.1-0.8,0.2-1.2c0.2-0.4,0.4-0.7,0.6-1c0.3-0.3,0.6-0.5,0.9-0.7c0.3-0.2,0.7-0.2,1.1-0.2    c0.5,0,0.9,0.1,1.2,0.3c0.3,0.2,0.6,0.5,0.8,0.8l1.5-1c-0.3-0.5-0.8-1-1.3-1.3c-0.5-0.3-1.2-0.5-2-0.5    C110.1,20.3,109.5,20.4,108.9,20.7" class="st5"/><path d="M121,26.9c-0.3-0.1-0.5-0.2-0.7-0.4c-0.2-0.2-0.3-0.4-0.4-0.7c-0.1-0.3-0.1-0.5-0.1-0.8    c0-0.3,0.1-0.7,0.2-1.1c0.1-0.4,0.3-0.7,0.6-1c0.2-0.3,0.5-0.5,0.9-0.7c0.3-0.2,0.7-0.3,1.2-0.3c0.3,0,0.6,0.1,0.9,0.2    c0.3,0.1,0.5,0.2,0.7,0.4c0.2,0.2,0.3,0.4,0.4,0.7c0.1,0.3,0.1,0.5,0.1,0.8c0,0.3-0.1,0.7-0.2,1.1c-0.1,0.4-0.3,0.7-0.6,1    c-0.2,0.3-0.5,0.5-0.9,0.7c-0.3,0.2-0.7,0.3-1.2,0.3C121.6,27,121.3,27,121,26.9 M120.9,20.7c-0.6,0.3-1.1,0.6-1.5,1.1    c-0.4,0.4-0.8,1-1,1.5c-0.2,0.6-0.4,1.2-0.4,1.8c0,0.5,0.1,1,0.3,1.4c0.2,0.4,0.4,0.8,0.8,1.1c0.3,0.3,0.7,0.6,1.2,0.8    c0.5,0.2,1,0.3,1.5,0.3c0.7,0,1.4-0.1,2-0.4c0.6-0.3,1.1-0.6,1.5-1.1c0.4-0.4,0.8-1,1-1.5c0.2-0.6,0.4-1.2,0.4-1.8    c0-0.5-0.1-1-0.3-1.4c-0.2-0.4-0.4-0.8-0.8-1.1c-0.3-0.3-0.7-0.6-1.2-0.8c-0.5-0.2-1-0.3-1.5-0.3    C122.2,20.3,121.5,20.4,120.9,20.7" class="st5"/><path d="M130.6,20.7c-0.6,0.3-1.1,0.6-1.6,1.1c-0.4,0.4-0.8,1-1.1,1.5c-0.3,0.6-0.4,1.2-0.4,1.9c0,0.5,0.1,1,0.3,1.5    c0.2,0.4,0.5,0.8,0.8,1.1c0.3,0.3,0.7,0.5,1.2,0.7c0.5,0.2,1,0.2,1.5,0.2c0.7,0,1.3-0.1,1.8-0.3c0.5-0.2,0.9-0.5,1.3-0.9l-1.2-1.2    c-0.3,0.2-0.6,0.4-0.9,0.6s-0.6,0.2-1,0.2c-0.3,0-0.6,0-0.8-0.1c-0.2-0.1-0.4-0.2-0.6-0.4c-0.2-0.2-0.3-0.4-0.4-0.6    c-0.1-0.2-0.1-0.5-0.1-0.8c0-0.4,0.1-0.8,0.2-1.2c0.2-0.4,0.4-0.7,0.6-1c0.3-0.3,0.6-0.5,0.9-0.7c0.3-0.2,0.7-0.2,1.1-0.2    c0.5,0,0.9,0.1,1.2,0.3c0.3,0.2,0.6,0.5,0.8,0.8l1.5-1c-0.3-0.5-0.8-1-1.3-1.3c-0.5-0.3-1.2-0.5-2-0.5    C131.9,20.3,131.2,20.4,130.6,20.7L130.6,20.7z" class="st5"/><polygon points="137.4,20.4 135.2,28.5 141.4,28.5 141.8,27 137.4,27 137.9,25.2 141.7,25.2 142.1,23.7 138.3,23.7     138.8,22 143.1,22 143.5,20.4   " class="st5"/><path d="M148.3,22.5l0.4,2.7h-2.2L148.3,22.5z M148,20.4l-5.7,8.2h1.9l1.2-1.8h3.4l0.3,1.8h1.8l-1.3-8.2H148z" class="st5"/><polygon points="159.5,20.4 158.1,25.6 155.8,20.4 154.1,20.4 151.9,28.5 153.7,28.5 155.1,23.2 157.6,28.5     159.1,28.5 161.3,20.4   " class="st5"/></g></g></svg>