<svg xmlns="http://www.w3.org/2000/svg" id="f3449eaf-31b0-4ff6-9e8e-602943c764b4" width="60" height="47" viewBox="0 0 60 46.76"><defs><style>.cdcfd1b7-7ca2-4f8d-a939-70aab6ef9247{fill:#004785}.e1ba7152-39c1-4c83-bc1c-79ed7c259a9d{fill:#c41230}.b9b4b2ca2-e403-4227-86d5-2fc9594e7b0f{fill:#adafb2}.b2f57b9ec-8d81-44a8-ba8d-cdb12949c55b{fill:#fff}</style></defs><title/><path d="M5.43,57.69s-0.91.15,1.64-.53c5.93-1.58,8.59-4.35,17.13-13.45L49.5,14.31a6.59,6.59,0,0,1,5.22-2.69H65L51.72,58.38H5l0.43-.69h0Z" class="cdcfd1b7-7ca2-4f8d-a939-70aab6ef9247" transform="translate(-5 -11.62)"/><path d="M38.83,46.67s-10.08-1.39-2.54-3.85c0,0,11.16-2.81,13.31-5.18,0,0,2.95-2.91-2.2-4.86,0,0,3.73,3.32-1.78,5.64,0,0-5,1.62-6.5,2,0,0-17,4.34-.16,6.24" class="e1ba7152-39c1-4c83-bc1c-79ed7c259a9d" transform="translate(-5 -11.62)"/><path d="M39,46.71s-10.23-2.1-2.69-4.56c0,0,11.18-2.84,13.33-5.2,0,0,2.53-2.78-2.22-4.19,0,0,4.34,2.86-1.8,5.07,0,0-1.27.46-6.46,1.95,0,0-16.78,4.18-.17,6.92" class="b9b4b2ca2-e403-4227-86d5-2fc9594e7b0f" transform="translate(-5 -11.62)"/><polygon points="42.05 30.06 39.54 31.8 37.04 30.06 37.29 33.1 34.53 34.4 37.29 35.7 37.04 38.74 39.54 37.01 42.05 38.74 41.8 35.7 44.56 34.4 41.8 33.1 42.05 30.06" class="b2f57b9ec-8d81-44a8-ba8d-cdb12949c55b"/><polygon points="46.86 26.24 45.96 27.23 44.72 26.73 45.13 28 44.08 28.83 45.38 29.11 45.58 30.43 46.47 29.45 47.71 29.94 47.3 28.67 48.35 27.84 47.05 27.56 46.86 26.24" class="b2f57b9ec-8d81-44a8-ba8d-cdb12949c55b"/><polygon points="38.61 17.86 37.52 18.62 36.42 17.86 36.53 19.19 35.33 19.75 36.53 20.32 36.42 21.65 37.52 20.89 38.61 21.65 38.5 20.32 39.71 19.75 38.5 19.19 38.61 17.86" class="b2f57b9ec-8d81-44a8-ba8d-cdb12949c55b"/><polygon points="29.91 26.38 28.59 26.56 27.96 25.39 27.45 26.62 26.12 26.58 26.94 27.64 26.24 28.77 27.56 28.59 28.19 29.76 28.7 28.53 30.03 28.57 29.21 27.52 29.91 26.38" class="b2f57b9ec-8d81-44a8-ba8d-cdb12949c55b"/><polygon points="35.89 39.54 34.88 40.4 33.72 39.75 33.95 41.06 32.81 41.75 34.06 42.2 34.08 43.53 35.09 42.67 36.26 43.32 36.02 42.01 37.17 41.33 35.91 40.88 35.89 39.54" class="b2f57b9ec-8d81-44a8-ba8d-cdb12949c55b"/></svg>