<svg xmlns="http://www.w3.org/2000/svg" id="Layer_1" width="70" height="70" x="0" y="0" version="1.1" viewBox="0 0 70 70" xml:space="preserve" style="enable-background:new 0 0 70 70"><style type="text/css">.st0{fill:#db1921}.st1{fill:#fefdfd}.st2{fill:#fefcfc}</style><g><g><path d="M70.1,34.7c0,11.6,0,23.2,0,34.7c0,0.2,0,0.3-0.3,0.3c-23.2,0-46.3,0-69.5,0c-0.2,0-0.3,0-0.3-0.3 c0-23.2,0-46.3,0-69.5c0-0.2,0-0.3,0.3-0.3c23.2,0,46.3,0,69.5,0c0.2,0,0.3,0,0.3,0.3C70.1,11.5,70.1,23.1,70.1,34.7z M41.2,57.1 c2.2-3,4.4-5.9,6.7-8.9c0.1,0.1,0.2,0.2,0.3,0.3c1.8,2.2,3.7,4.3,5.5,6.5c0.1,0.1,0.2,0.2,0.3,0.1c1.3-0.4,2.6-0.9,3.9-1.5 c0.3-0.1,0.3-0.1,0-0.3c-4.8-3.5-9.6-7-14.4-10.5c-0.1-0.1-0.2-0.1-0.3-0.3c3.4-1.9,6.8-3.8,10.2-5.7c-1.3-0.1-2.6-0.1-3.9-0.1 c-0.1,0-0.2,0-0.3-0.1c-0.1-0.3-0.3-0.3-0.6-0.4c-0.4-0.1-0.8-0.1-1.2,0c-1.6,0.2-3.2,0.4-4.8,0.7c-1.6,0.2-3.2,0.4-4.8,0.7 c-0.3,0-0.3-0.1-0.4-0.3c-0.4-2.2-0.8-4.4-1.2-6.6c-0.6-3.2-1.2-6.4-1.7-9.6c-0.6-3.3-1.2-6.6-1.8-9.9c-0.1-0.7-0.2-1.3-0.4-2 c-1.4,0.7-2.6,1.4-3.8,2.3c-0.2,0.1-0.1,0.2-0.1,0.4c1.5,4.1,2.9,8.1,4.4,12.2c0.5,1.3,1,2.6,1.4,4c0,0.1,0.2,0.3-0.1,0.3 c-0.6,0-1.3,0.1-1.9,0.2c-2,0.2-4,0.4-6,0.5c-2.1,0.2-4.1,0.4-6.2,0.6c-0.5,0-1,0.1-1.6,0.2c3.8,3.1,7.5,6.2,11.2,9.3 c-0.1,0-0.1,0-0.1,0c-2.6,0.3-5.3,0.7-7.9,1c-3.1,0.4-6.2,0.8-9.3,1.2c-0.2,0-0.3,0.1-0.2,0.3c0.1,0.6,0.3,1.3,0.4,1.9 c0.1,0.2,0.1,0.2,0.3,0.2c1.9-0.2,3.7-0.3,5.6-0.5c1.9-0.2,3.8-0.3,5.8-0.5c0.5,0,1-0.1,1.6-0.1c0,0,0,0,0,0 c-3.5,2.2-6.9,4.3-10.4,6.5c0,0,0,0,0,0.1c4.8-0.4,9.5-0.8,14.3-1.2c0,0,0,0,0,0.1c-3.2,1.9-6.4,3.7-9.6,5.6 c0.7,0.4,1.4,0.6,2.1,0.8c0.2,0.1,0.4,0,0.6-0.1c4.4-2.2,8.7-4.4,13.1-6.6c0.2-0.1,0.3,0,0.3,0.1c0.4,0.7,0.7,1.4,1.1,2 C38.5,52.1,39.8,54.6,41.2,57.1z M31.9,26.3c0-0.1,0-0.1-0.1-0.2c-1.7-4.5-3.4-8.9-5-13.4c-0.1-0.2-0.2-0.2-0.3-0.1 c-0.9,0.8-1.8,1.6-2.6,2.5c-0.1,0.1-0.1,0.3-0.1,0.4c1,2.5,2,5.1,3,7.6c0.1,0.2,0.1,0.3-0.2,0.3c-0.5,0-1,0-1.5,0 c-2,0-4.1,0.1-6.1,0.1c-0.2,0-0.2,0-0.3,0.2c-0.1,0.4-0.3,0.8-0.4,1.2c-0.3,0.9-0.5,1.8-0.7,2.7c0,0.2,0,0.3,0.2,0.3 c1.1-0.1,2.2-0.3,3.3-0.4c2-0.2,4.1-0.5,6.1-0.7C28.9,26.7,30.4,26.5,31.9,26.3z M17.3,30.9c0,0.1,0,0.2,0,0.2 c0,0.7-0.1,1.4-0.1,2.2c0,0.2,0.1,0.2,0.2,0.3c1,0.9,2.1,1.9,3.1,2.8c0.1,0.1,0.2,0.1,0.2,0.3c-0.1,0-0.2,0-0.3,0 c-0.9,0.1-1.8,0.1-2.8,0.2c-0.3,0-0.4,0.1-0.3,0.4c0.1,0.5,0.2,1,0.2,1.5c0,0.2,0.1,0.3,0.3,0.2c1.8-0.3,3.6-0.6,5.4-0.9 c0.8-0.1,1.5-0.2,2.3-0.4C22.9,35.5,20.1,33.2,17.3,30.9z M38.6,56.6c-0.3-0.6-0.5-1.1-0.7-1.7c-0.8-1.8-1.6-3.6-2.4-5.4 c-0.1-0.2-0.1-0.3-0.3-0.1c-1.6,1-3.3,2-4.9,3c-0.2,0.1-0.2,0.2-0.1,0.3c0.4,0.5,0.8,1,1.1,1.5c0.1,0.2,0.2,0.2,0.3,0.1 c0.9-0.6,1.8-1.1,2.7-1.6c0.2-0.1,0.2-0.1,0.3,0.1c0.5,1.1,1,2.1,1.5,3.2c0,0.1,0.1,0.2,0.2,0.2C37.1,56.4,37.8,56.5,38.6,56.6z M47.9,52.9c0.1,0.1,0.1,0.1,0.2,0.2c0.8,0.9,1.6,1.8,2.4,2.7c0.1,0.1,0.1,0.2,0.3,0.2c0.6-0.1,1.2-0.3,1.8-0.4 c-0.1-0.1-0.1-0.1-0.2-0.2c-1.5-1.6-3-3.3-4.5-4.9c-0.2-0.2-0.2-0.1-0.3,0c-1.4,2.1-2.9,4.1-4.3,6.2c0,0.1-0.1,0.1-0.1,0.2 c0.6,0,1.2,0,1.7,0c0.2,0,0.3-0.1,0.4-0.2C46.2,55.4,47,54.2,47.9,52.9z M19.4,22.3c1.7-0.1,3.4-0.1,5-0.2 c-0.7-1.8-1.3-3.5-1.9-5.2C21.2,18.6,20.2,20.4,19.4,22.3z M20.9,43.7C20.9,43.7,20.8,43.7,20.9,43.7 C20.8,43.7,20.8,43.7,20.9,43.7c-2.6,0.3-5.1,0.6-7.7,0.9c-0.2,0-0.2,0.1-0.1,0.2c0.3,0.9,0.7,1.7,1.1,2.5 c0.1,0.2,0.2,0.2,0.4,0.1c1.4-0.9,2.9-1.7,4.3-2.6C19.6,44.5,20.2,44.1,20.9,43.7z M23.6,49.8C23.5,49.8,23.5,49.8,23.6,49.8 c-2.4,0.1-4.8,0.3-7.3,0.5c0.1,0.1,0.1,0.1,0.1,0.2c0.6,0.6,1.2,1.2,1.9,1.7c0.2,0.1,0.3,0.1,0.4,0c1.1-0.5,2.1-1.1,3.2-1.6 C22.5,50.4,23,50.1,23.6,49.8z M46.9,56.6c0.8-0.1,1.5-0.2,2.3-0.4c-0.4-0.6-0.9-1.1-1.3-1.6C47.6,55.3,47.3,56,46.9,56.6z" class="st0"/><path d="M41.2,57.1c-1.3-2.5-2.6-5-3.9-7.5c-0.4-0.7-0.7-1.4-1.1-2c-0.1-0.2-0.1-0.2-0.3-0.1 c-4.4,2.2-8.7,4.4-13.1,6.6c-0.2,0.1-0.4,0.1-0.6,0.1c-0.7-0.2-1.4-0.5-2.1-0.8c3.2-1.9,6.4-3.8,9.6-5.6c0,0,0,0,0-0.1 c-4.8,0.4-9.5,0.8-14.3,1.2c0,0,0,0,0-0.1c3.5-2.2,6.9-4.3,10.4-6.5c0,0,0,0,0,0c-0.5,0-1,0.1-1.6,0.1c-1.9,0.2-3.9,0.3-5.8,0.5 c-1.9,0.2-3.7,0.3-5.6,0.5c-0.2,0-0.3,0-0.3-0.2c-0.2-0.6-0.3-1.2-0.4-1.9c0-0.2,0-0.3,0.2-0.3c3.1-0.4,6.2-0.8,9.3-1.2 c2.6-0.3,5.3-0.7,7.9-1c0,0,0.1,0,0.1,0c-3.7-3.1-7.5-6.2-11.2-9.3c0.6-0.1,1.1-0.1,1.6-0.2c2.1-0.2,4.1-0.4,6.2-0.6 c2-0.2,4-0.4,6-0.5c0.6-0.1,1.3-0.1,1.9-0.2c0.3,0,0.1-0.2,0.1-0.3c-0.5-1.3-1-2.6-1.4-4c-1.5-4.1-2.9-8.1-4.4-12.2 c0-0.1-0.1-0.2,0.1-0.4c1.2-0.8,2.5-1.6,3.8-2.3c0.1,0.7,0.2,1.3,0.4,2c0.6,3.3,1.2,6.6,1.8,9.9c0.6,3.2,1.2,6.4,1.7,9.6 c0.4,2.2,0.8,4.4,1.2,6.6c0,0.2,0.1,0.3,0.4,0.3c1.6-0.2,3.2-0.4,4.8-0.7c1.6-0.2,3.2-0.5,4.8-0.7c0.4-0.1,0.8-0.1,1.2,0 c0.2,0.1,0.5,0.1,0.6,0.4c0.1,0.1,0.2,0.1,0.3,0.1c1.3,0,2.6,0.1,3.9,0.1c-3.4,1.9-6.8,3.8-10.2,5.7c0.1,0.1,0.2,0.2,0.3,0.3 c4.8,3.5,9.6,7,14.4,10.5c0.3,0.2,0.3,0.2,0,0.3c-1.2,0.6-2.5,1.1-3.9,1.5c-0.2,0.1-0.2,0-0.3-0.1c-1.8-2.2-3.7-4.3-5.5-6.5 c-0.1-0.1-0.2-0.2-0.3-0.3C45.6,51.2,43.4,54.1,41.2,57.1z M30.2,36.1c0.2-0.5,0.3-1,0.5-1.5c0.1-0.2,0-0.3-0.1-0.4 c-0.7-0.5-1.4-1.1-2.1-1.6c-0.1,0-0.1-0.1-0.1-0.2c0.1,0,0.2,0,0.3,0c0.8,0,1.7,0,2.5,0c0.2,0,0.3,0,0.3-0.2 c0.1-0.4,0.3-0.8,0.4-1.2c0.1-0.2,0-0.2-0.2-0.2c-2.4,0.1-4.9,0.2-7.3,0.3c-0.1,0-0.1,0-0.2,0.1C26.2,32.8,28.2,34.4,30.2,36.1z M41.8,52.8c1.1-1.8,2.1-3.6,3.2-5.3c-0.6,0-1.1,0-1.6,0c-0.1,0-0.2,0.1-0.3,0.2c-0.3,0.5-0.6,1.1-0.9,1.6 c-0.1,0.2-0.2,0.4-0.4,0.7c-0.4-0.7-0.8-1.4-1.2-2.1c0-0.1-0.1-0.2-0.2-0.2c-0.6,0-1.1,0-1.7,0.1C39.7,49.5,40.7,51.1,41.8,52.8z M26.4,45.4C26.4,45.4,26.4,45.4,26.4,45.4c1.8-0.3,3.5-0.6,5.3-0.9c-0.5-0.6-0.9-1.2-1.4-1.8c-0.1-0.1-0.1-0.1-0.2,0 c-0.2,0.2-0.5,0.4-0.8,0.5C28.4,43.9,27.4,44.7,26.4,45.4z" class="st1"/><path d="M31.9,26.3c-1.5,0.2-3,0.4-4.5,0.5c-2,0.2-4.1,0.5-6.1,0.7c-1.1,0.1-2.2,0.2-3.3,0.4c-0.3,0-0.3-0.1-0.2-0.3 c0.2-0.9,0.4-1.8,0.7-2.7c0.1-0.4,0.3-0.8,0.4-1.2c0-0.1,0.1-0.2,0.3-0.2c2,0,4.1-0.1,6.1-0.1c0.5,0,1,0,1.5,0 c0.3,0,0.3-0.1,0.2-0.3c-1-2.5-2-5.1-3-7.6c-0.1-0.2-0.1-0.3,0.1-0.4c0.8-0.9,1.7-1.7,2.6-2.5c0.1-0.1,0.2-0.2,0.3,0.1 c1.7,4.5,3.4,8.9,5,13.4C31.9,26.2,31.9,26.3,31.9,26.3z" class="st1"/><path d="M17.3,30.9c2.8,2.3,5.5,4.6,8.3,6.9c-0.8,0.1-1.6,0.3-2.3,0.4c-1.8,0.3-3.6,0.6-5.4,0.9c-0.2,0-0.3,0-0.3-0.2 c-0.1-0.5-0.1-1-0.2-1.5c-0.1-0.3,0-0.4,0.3-0.4c0.9,0,1.8-0.1,2.8-0.2c0.1,0,0.2,0,0.3,0c0-0.1-0.1-0.2-0.2-0.3 c-1-1-2.1-1.9-3.1-2.8c-0.1-0.1-0.2-0.2-0.2-0.3c0-0.7,0.1-1.4,0.1-2.2C17.3,31.1,17.3,31,17.3,30.9z" class="st2"/><path d="M38.6,56.6c-0.8-0.1-1.5-0.2-2.3-0.4c-0.1,0-0.1-0.1-0.2-0.2c-0.5-1.1-1-2.1-1.5-3.2 c-0.1-0.2-0.1-0.2-0.3-0.1c-0.9,0.6-1.8,1.1-2.7,1.6c-0.2,0.1-0.2,0.1-0.3-0.1c-0.4-0.5-0.7-1-1.1-1.5c-0.1-0.1-0.1-0.2,0.1-0.3 c1.6-1,3.3-2,4.9-3c0.2-0.1,0.2,0,0.3,0.1c0.8,1.8,1.6,3.6,2.4,5.4C38.1,55.5,38.3,56,38.6,56.6z" class="st2"/><path d="M47.9,52.9c-0.9,1.2-1.8,2.4-2.6,3.6c-0.1,0.2-0.2,0.2-0.4,0.2c-0.6,0-1.1,0-1.7,0c0-0.1,0.1-0.1,0.1-0.2 c1.4-2.1,2.9-4.1,4.3-6.2c0.1-0.2,0.2-0.2,0.3,0c1.5,1.6,3,3.3,4.5,4.9c0,0,0.1,0.1,0.2,0.2c-0.6,0.2-1.2,0.3-1.8,0.4 c-0.1,0-0.2-0.1-0.3-0.2c-0.8-0.9-1.6-1.8-2.4-2.7C48,53.1,48,53,47.9,52.9z" class="st2"/><path d="M19.4,22.3c0.8-1.9,1.8-3.7,3.1-5.4c0.6,1.8,1.3,3.5,1.9,5.2C22.7,22.2,21.1,22.3,19.4,22.3z" class="st2"/><path d="M20.9,43.7c-0.7,0.4-1.3,0.8-2,1.2c-1.4,0.9-2.9,1.7-4.3,2.6c-0.2,0.1-0.3,0.1-0.4-0.1 c-0.4-0.8-0.8-1.7-1.1-2.5c-0.1-0.1-0.1-0.2,0.1-0.2C15.7,44.3,18.2,44,20.9,43.7C20.8,43.7,20.8,43.7,20.9,43.7 C20.8,43.7,20.9,43.7,20.9,43.7z" class="st2"/><path d="M23.6,49.8c-0.5,0.3-1.1,0.6-1.6,0.8c-1.1,0.5-2.1,1.1-3.2,1.6c-0.2,0.1-0.3,0.1-0.4,0 c-0.7-0.5-1.3-1.1-1.9-1.7c0,0-0.1-0.1-0.1-0.2C18.7,50.1,21.1,50,23.6,49.8C23.5,49.8,23.5,49.8,23.6,49.8z" class="st2"/><path d="M46.9,56.6c0.3-0.7,0.7-1.3,1-2c0.4,0.5,0.9,1.1,1.3,1.6C48.5,56.4,47.7,56.5,46.9,56.6z" class="st2"/><path d="M30.2,36.1c-2-1.7-4-3.3-5.9-5c0-0.1,0.1-0.1,0.2-0.1c2.4-0.1,4.9-0.2,7.3-0.3c0.2,0,0.2,0,0.2,0.2 c-0.2,0.4-0.3,0.8-0.4,1.2c-0.1,0.2-0.1,0.2-0.3,0.2c-0.8,0-1.7,0-2.5,0c-0.1,0-0.2,0-0.3,0c0,0.1,0.1,0.1,0.1,0.2 c0.7,0.6,1.4,1.1,2.1,1.6c0.2,0.1,0.2,0.2,0.1,0.4C30.5,35.1,30.4,35.6,30.2,36.1z" class="st0"/><path d="M41.8,52.8c-1.1-1.7-2.1-3.4-3.2-5.1c0.6,0,1.2,0,1.7-0.1c0.1,0,0.2,0.1,0.2,0.2c0.4,0.7,0.8,1.4,1.2,2.1 c0.2-0.2,0.3-0.4,0.4-0.7c0.3-0.5,0.6-1.1,0.9-1.6c0.1-0.1,0.1-0.2,0.3-0.2c0.5,0,1.1,0,1.6,0C44,49.3,42.9,51,41.8,52.8z" class="st0"/><path d="M26.4,45.4c1-0.7,2-1.4,3-2.2c0.3-0.2,0.5-0.4,0.8-0.5c0.1-0.1,0.1-0.1,0.2,0c0.4,0.6,0.9,1.2,1.4,1.8 C29.9,44.8,28.2,45.1,26.4,45.4C26.4,45.4,26.4,45.4,26.4,45.4z" class="st0"/></g></g></svg>