<svg xmlns="http://www.w3.org/2000/svg" version="1.1" id="Layer_1" x="0px" y="0px" width="70" height="70" viewBox="0 0 70 70" xml:space="preserve" style="enable-background:new 0 0 70 70;"><style type="text/css">
	.st0{fill:#005EB8;}
	.st1{fill:#FFFFFF;}
</style><g><g><rect width="70" height="70" class="st0"/></g><g><g><path d="M10.7,50.4h-0.5c0,0-0.1,0-0.1,0.1v5.6c0,0,0,0.1,0.1,0.1h1c0,0,0.1,0,0.1-0.1v-5.2     C11.1,50.7,10.9,50.4,10.7,50.4z" class="st1"/><path d="M39.4,50.4h-0.5c0,0-0.1,0-0.1,0.1v5.6c0,0,0,0.1,0.1,0.1h1c0,0,0.1,0,0.1-0.1v-5.2     C39.8,50.7,39.6,50.4,39.4,50.4z" class="st1"/><path d="M48.3,50.4h-0.5c0,0-0.1,0-0.1,0.1v5.6c0,0,0,0.1,0.1,0.1h1c0,0,0.1,0,0.1-0.1v-5.2     C48.7,50.7,48.5,50.4,48.3,50.4z" class="st1"/><path d="M67.4,50.4h-0.5c0,0-0.1,0-0.1,0.1v5.6c0,0,0,0.1,0.1,0.1h1c0,0,0.1,0,0.1-0.1v-5.2     C67.8,50.7,67.6,50.4,67.4,50.4z" class="st1"/><path d="M22.9,50.3h2.4c0.2,0,0.3-0.1,0.3-0.3v-0.3c0,0,0-0.1-0.1-0.1h-5.6c0,0-0.1,0-0.1,0.1v0.5c0,0,0,0.1,0.1,0.1     h2.3v5.8c0,0,0,0.1,0.1,0.1h1c0,0,0.1,0,0.1-0.1v-5.3C23.3,50.6,23.1,50.4,22.9,50.3z" class="st1"/><path d="M6.1,50.1c-0.2-0.3-0.3-0.4-0.4-0.4H5.5c0,0-0.1,0-0.1,0.1l-2.9,6.3c0,0,0,0.1,0,0.1h0.5c0,0,0.1,0,0.1-0.1     l0.9-2h2c0.2,0,0.3-0.1,0.3-0.2l0.1-0.2l1.1,2.5c0,0,0.1,0.1,0.1,0.1h1.1c0,0,0,0,0-0.1L6.1,50.1z M4.3,53.6l1.1-2.5l1.1,2.5H4.3     z" class="st1"/><path d="M36.7,50.4h-1c0,0-0.1,0-0.1,0.1V53H33v-2.1c0-0.3-0.2-0.5-0.5-0.5h-0.5c0,0-0.1,0-0.1,0.1v5.6     c0,0,0,0.1,0.1,0.1h1c0,0,0.1,0,0.1-0.1v-2.6h2.7v2.6c0,0,0,0.1,0.1,0.1h1c0,0,0.1,0,0.1-0.1L36.7,50.4     C36.7,50.5,36.7,50.4,36.7,50.4z" class="st1"/><path d="M28.2,50.8c-0.1-0.2-0.2-0.3-0.4-0.3h-0.2c0,0-0.1,0-0.1,0.1L25,56.1c0,0,0,0.1,0,0.1h0.4c0,0,0.1,0,0.1-0.1     l0.8-1.8h1.8c0.2,0,0.2-0.1,0.3-0.2l0.1-0.2l1,2.2c0,0,0.1,0.1,0.1,0.1h1c0,0,0,0,0-0.1L28.2,50.8z M26.6,53.8l1-2.2l1,2.2H26.6z     " class="st1"/><path d="M46.2,50.4h-5c0,0-0.1,0-0.1,0.1v0.4c0,0,0,0.1,0.1,0.1h2v5.2c0,0,0,0.1,0.1,0.1h1c0,0,0.1,0,0.1-0.1v-4.7     c0-0.2-0.1-0.4-0.3-0.4h2.1c0.2,0,0.2-0.1,0.2-0.2L46.2,50.4C46.3,50.5,46.3,50.4,46.2,50.4z" class="st1"/><path d="M64.9,50.4h-0.4c0,0-0.1,0-0.1,0.1V54c0,1.2-0.6,1.8-1.7,1.8c-1.3,0-1.7-0.7-1.7-1.7v-3.1     c0-0.3-0.2-0.5-0.5-0.5h-0.5c0,0-0.1,0-0.1,0.1v3.7c0,1.3,1,2.1,2.7,2.1c1.5,0,2.3-0.8,2.3-2.2L64.9,50.4     C65,50.5,64.9,50.4,64.9,50.4z" class="st1"/><path d="M19.4,56.5c0,0-0.1,0-0.2,0c-1.5,0-2.8-2-3.2-3c0.8-0.2,1.2-0.7,1.2-1.5c0-1-0.8-1.6-2.2-1.6h-1.8     c0,0-0.1,0-0.1,0.1v5.6c0,0,0,0.1,0.1,0.1h1c0,0,0.1,0,0.1-0.1v-2.4H15c0.6,1.4,1.9,3.1,3.6,3.1C19.1,56.7,19.4,56.6,19.4,56.5     C19.4,56.5,19.4,56.5,19.4,56.5z M14.9,53.2h-0.7v-2.3h0.7c0.8,0,1.2,0.5,1.2,1.1C16.1,52.7,15.8,53.2,14.9,53.2z" class="st1"/><path d="M58,49.7h-0.5c0,0-0.1,0-0.1,0.1v4.6l-3.7-4.3c-0.2-0.3-0.4-0.4-0.6-0.4h-0.3c0,0-0.1,0-0.1,0.1v6.3     c0,0,0,0.1,0.1,0.1h0.5c0,0,0.1,0,0.1-0.1v-4.7l4.1,4.7c0,0,0.1,0,0.1,0h0.4c0,0,0.1,0,0.1-0.1L58,49.7     C58.1,49.8,58.1,49.7,58,49.7z" class="st1"/></g><g><path d="M50.6,33.4c-0.6-0.9-0.9-1.3-1.2-1.5c-1-0.9-2-1.3-2.9-1.6c-0.1-0.1-0.3-0.1-0.7-0.3c-2.1-0.9-3.7-1-4.8-1.1     l0,0c-0.4,0-0.9,0-1.2,0.1c-0.1,0-0.3,0-0.5,0.1c-0.1,0-0.2,0.1-0.4,0.2c0.1-0.1,0.2-0.2,0.4-0.3c0.3-0.1,0.4-0.2,0.4-0.2h0     c0,0,3.3-0.9,6.6-2.7c1.7-1,3.2-1.8,3.1-2.7c-0.1-0.9-1.9-1.7-3.4-1.6c-0.6,0.1-1,0.2-1.4,0.4c-1.1,0.4-1.3,0.8-3,2.1     c-1.5,1.1-1.8,1.2-2.5,2c-0.5,0.5-0.9,1.2-1,1.3c-0.1,0.1-0.5,0.4-0.4,0.6c0.1,0.1,0.2,0.1,0.4,0.2c0.1,0.1,0.2,0.3,0.2,0.3     c0.1,0.1,0.2,0.1,0.2,0.2c0,0.1,0,0.1,0,0.2c0,0.1,0.1,0.1,0.1,0.2c0,0,0,0.1-0.1,0.2s-0.2,0-0.3,0.1c-0.1,0.1-0.1,0.1-0.1,0.2     c0,0.1,0,0.2,0.2,0.2c0,0,0.1,0,0.2,0.1c0.2,0.1,0.4,0.3,0.5,0.4c0,0,0,0,0,0c1.6,2.4,8.1,4.4,8.1,4.4c0.3,0.1,3.1,0.9,3.7-0.1     C51.2,34.5,50.8,33.7,50.6,33.4z" class="st1"/><path d="M40.4,32.3c-0.2-0.5-0.3-0.6-0.4-0.7c-0.2-0.2-0.3-0.2-0.5-0.4c0,0,0,0-0.1-0.1c-0.1-0.1-0.1-0.2-0.3-0.4     c-0.1-0.1-0.2-0.2-0.2-0.2c-0.1-0.1-0.1-0.1-0.2-0.1c-0.2-0.1-0.4-0.1-0.6-0.1c-0.2,0.1-0.3,0.2-0.4,0.1c-0.1,0-0.1-0.1-0.2-0.2     c-0.2-0.1-0.3-0.1-0.5-0.2c-0.2-0.1-0.3-0.3-0.4-0.5c-0.1-0.3-0.1-0.5,0.1-0.7c0.1-0.1,0.2-0.2,0.2-0.3c0.1-0.1,0.3-0.2,0.4-0.2     c0.1,0,0.2-0.1,0.2-0.2c0.1-0.1,0-0.1,0.1-0.2c0,0,0.1-0.1,0.1-0.2c0.1-0.1,0.2-0.1,0.3-0.3c0.1-0.1,0.1-0.1,0.2-0.2     c0.4-0.5,1-1.6,1-1.6c0.2-0.4,0.4-0.9,0.7-1.6c1.3-2.9,1.8-3,2.2-4.5c0.2-0.6,0.6-2.4-0.2-4.1c-0.3-0.6-0.7-1.1-1-1.4     c0-0.1-0.1-0.1-0.2-0.1c0,0-0.1,0-0.3,0.1c-1.4,1.2-2.7,4.8-2.7,4.8c-0.8,2.3-1.2,3-1.6,4.7c-0.2,0.9-0.4,1.8-0.1,2.9     c0.2,0.6,0.4,1.1,0.4,1.2c-0.1-0.2-0.6-1.2-1.1-2.3c-0.3-0.7-0.4-0.9-0.8-2c-0.2-0.6-0.5-1.1-0.9-2.2c-1.7-3.9-2.3-4.6-2.7-5.1     c-0.6-0.6-1.2-1.2-1.9-1.2c-1,0.1-1.4,1.5-1.5,1.7c-0.1,0.2-0.1,0.4-0.2,0.7c-0.2,1.2,0.3,2.2,0.5,2.7c0.1,0.2,0.2,0.3,0.3,0.5     c0.2,0.4,0.5,0.8,1,1.4c0.6,0.9,1.8,2.2,2.2,2.7c0.1,0.1,0.2,0.3,0.5,0.5c0.1,0.1,0.1,0.2,0.2,0.3c0.1,0.2,0.3,0.5,0.5,0.7     c0.2,0.3,0.5,0.7,0.9,1c0.5,0.4,1,0.6,1.3,0.8c-0.4-0.2-1-0.4-2.1-0.9c-1-0.4-2.2-1-3.6-1.7c-1.9-1-3.4-1.9-5.4-2.5     c-0.1,0-0.9-0.3-1.9-0.3c-0.5,0-1.1,0-1.5,0.2C20.1,23,20,23.1,20,23.2c-0.5,0.9,0.3,2.1,0.8,2.8c0.6,0.9,1.4,1.8,2.3,2.4     c2,1.4,4.5,2.1,6.9,2.5c2.7,0.5,4.6,0.1,4.6,0.1c0,0,0.6-0.2,0.6-0.2s0,0.1-0.1,0.2c-0.3,0.1-0.4,0.1-0.5,0.2l0,0     c-0.5,0.1-0.8,0.2-1.9,0.8c-0.5,0.2-1.1,0.4-2,0.8c-2,0.8-2,0.9-3,1.4c-1.8,1-2.2,1.4-2.4,1.6c-0.8,0.6-2.1,2.2-2.1,3.3     c0,0.3,0.1,0.4,0.2,0.5c0.7,0.7,2.3,0.6,3,0.6c2-0.1,3.1-0.7,4-1.2c0.9-0.5,1.7-1.2,1.9-1.3c0.3-0.2,0.5-0.4,1.2-1     c0.4-0.3,1.3-1.3,1.7-1.6c1.5-1.5,1.5-1.8,1.7-2.1c0,0,0.1-0.1,0.1-0.1c0.1-0.1,0.2-0.2,0.4-0.5c0.1-0.2,0.3-0.4,0.3-0.4     c0,0,0,0.3-0.2,0.5c-0.1,0.1-0.1,0.1-0.1,0.2c-0.1,0.1-0.2,0.4-0.3,0.6c-0.4,0.8-0.3,1.3-0.3,1.5c0.6,2.4,1,6.1,3.1,8.4     c0.9,0.9,1.8,1.4,2.7,1.1c0.2-0.1,0.6-1.6,0.7-3.8c0.1-2.9-1.5-5.5-2.4-7.2C40.6,32.9,40.5,32.6,40.4,32.3z" class="st1"/></g></g></g></svg>