<svg xmlns="http://www.w3.org/2000/svg" id="Layer_1" width="70" height="70" x="0" y="0" version="1.1" viewBox="0 0 70 70" xml:space="preserve" style="enable-background:new 0 0 70 70"><style type="text/css">.st0{fill-rule:evenodd;clip-rule:evenodd;fill:#ec1c24}.st1{fill:#bed630}.st2{fill:#72be44}.st3{fill:#b9131a}</style><g><path d="M47.3,26.8h8.2c1.5,0,2.7,1.2,2.7,2.7c0,1.5-1.2,2.7-2.7,2.7h-8.2V26.8L47.3,26.8z M36.4,15.8h19.1 c7.6,0,13.7,6.1,13.7,13.7c0,7.6-6.1,13.7-13.7,13.7h-8.2v10.9H36.4V15.8L36.4,15.8z" class="st0"/><path d="M25.3,36.4H31l-2.9-9.6L25.3,36.4L25.3,36.4z M9,54.2V26.8H0.8V15.8h35.5v38.3l-2.1-7v0.1H22l-2.1,6.8H9 L9,54.2z" class="st1"/><polygon points="9 54.2 19.9 54.2 19.9 26.8 28.1 26.8 28.1 15.8 19.9 15.8 9 54.2" class="st2"/><polygon points="36.4 54.2 47.3 54.2 36.4 15.8 36.4 54.2" class="st3"/></g></svg>