<svg xmlns="http://www.w3.org/2000/svg" id="Layer_1" width="70" height="70" x="0" y="0" enable-background="new 0 0 70 70" version="1.1" viewBox="0 0 70 70" xml:space="preserve"><g id="g10" transform="matrix(1.3333333,0,0,-1.3333333,0,686.48933)"><g id="g12"><g><defs><rect id="SVGID_1_" width="69.721" height="59.467" x="-8.715" y="457.582"/></defs><clipPath id="SVGID_2_"><use xmlns:xlink="http://www.w3.org/1999/xlink" overflow="visible" xlink:href="#SVGID_1_"/></clipPath><g id="g14" clip-path="url(#SVGID_2_)"><g id="g20" transform="translate(257.4331)"><path id="path22" fill="#FEE800" d="M-235.133,465.016c12.316,0,22.3,9.984,22.3,22.3c0,12.316-9.984,22.3-22.3,22.3 c-12.316,0-22.3-9.984-22.3-22.3C-257.433,475-247.449,465.016-235.133,465.016"/></g><g id="g24" transform="translate(501.9453,270.5933)"><path id="path26" fill="#20211F" d="M-458.465,217.862l2.139,0.585l1.659-6.911l3.285,0.764l-0.11,1.927l-0.911-0.219 l-1.221,5.087l2.26,0.557l-0.61,2.542l-2.26-0.557l-0.664,2.767l-2.459-1.662l0.421-1.754l-2.131-0.554l0.576-2.548"/></g><g id="g28" transform="translate(501.9453,270.5933)"><path id="path30" fill="#20211F" d="M-458.465,217.862l2.139,0.585l1.659-6.911l3.285,0.764l-0.11,1.927l-0.911-0.219 l-1.221,5.087l2.26,0.557l-0.61,2.542l-2.26-0.557l-0.664,2.767l-2.459-1.662l0.421-1.754l-2.131-0.554l0.576-2.548"/></g><g id="g32" transform="translate(135.5161,280.269)"><path id="path34" fill="#20211F" d="M-123.777,209.025h2.729c-0.234,2.444-2.344,2.929-3.566,2.929 c-1.925,0-3.599-1.222-3.599-3.147c0-1.256,1.004-2.042,2.21-2.427c1.774-0.686,2.461-0.77,2.461-1.406 c0-0.452-0.502-0.72-0.971-0.72c-0.117,0-0.937,0-1.055,0.854h-2.762c0.251-2.444,2.377-3.08,3.783-3.08 c2.059,0,3.783,1.205,3.783,3.248c0,2.009-1.674,2.478-3.248,2.913c-0.737,0.218-1.423,0.502-1.423,0.921 c0,0.251,0.201,0.619,0.787,0.619C-123.827,209.728-123.794,209.226-123.777,209.025 M-113.866,208.054h2.812 c-0.469,2.277-2.461,3.9-4.922,3.9c-2.779,0-4.905-2.21-4.905-4.938c0-2.762,2.159-4.972,4.972-4.972 c2.511,0,4.369,1.724,4.871,3.833h-2.829c-0.301-0.569-0.854-1.239-2.009-1.239c-1.322,0-2.21,1.004-2.21,2.36 c0,0.67,0.218,1.272,0.603,1.707c0.402,0.435,0.954,0.686,1.607,0.653C-114.72,209.36-114.168,208.69-113.866,208.054 M-103.841,206.999c0-1.356-1.021-2.344-2.226-2.344c-1.205,0-2.226,0.988-2.226,2.327v0.017c0,1.356,1.021,2.344,2.226,2.344 C-104.863,209.343-103.841,208.355-103.841,206.999 M-101.063,206.999c0,2.277-1.624,4.938-5.005,4.938 c-3.381,0-5.005-2.662-5.005-4.922v-0.017c0-2.277,1.624-4.938,5.005-4.938C-102.686,202.061-101.063,204.723-101.063,206.999 M-93.784,206.999c0-1.356-1.021-2.344-2.226-2.344s-2.226,0.988-2.226,2.327v0.017c0,1.356,1.021,2.344,2.226,2.344 S-93.784,208.355-93.784,206.999 M-92.405,210.502c-0.826,0.853-2.023,1.435-3.605,1.435c-3.381,0-5.005-2.662-5.005-4.922 v-0.017c0-2.277,1.624-4.938,5.005-4.938c3.381,0,5.005,2.662,5.005,4.938c0,0.958-0.289,1.983-0.874,2.851L-92.405,210.502z"/></g><g id="g36" transform="translate(135.5161,280.269)"><path id="path38" fill="#20211F" d="M-123.777,209.025h2.729c-0.234,2.444-2.344,2.929-3.566,2.929 c-1.925,0-3.599-1.222-3.599-3.147c0-1.256,1.004-2.042,2.21-2.427c1.774-0.686,2.461-0.77,2.461-1.406 c0-0.452-0.502-0.72-0.971-0.72c-0.117,0-0.937,0-1.055,0.854h-2.762c0.251-2.444,2.377-3.08,3.783-3.08 c2.059,0,3.783,1.205,3.783,3.248c0,2.009-1.674,2.478-3.248,2.913c-0.737,0.218-1.423,0.502-1.423,0.921 c0,0.251,0.201,0.619,0.787,0.619C-123.827,209.728-123.794,209.226-123.777,209.025 M-113.866,208.054h2.812 c-0.469,2.277-2.461,3.9-4.922,3.9c-2.779,0-4.905-2.21-4.905-4.938c0-2.762,2.159-4.972,4.972-4.972 c2.511,0,4.369,1.724,4.871,3.833h-2.829c-0.301-0.569-0.854-1.239-2.009-1.239c-1.322,0-2.21,1.004-2.21,2.36 c0,0.67,0.218,1.272,0.603,1.707c0.402,0.435,0.954,0.686,1.607,0.653C-114.72,209.36-114.168,208.69-113.866,208.054 M-103.841,206.999c0-1.356-1.021-2.344-2.226-2.344c-1.205,0-2.226,0.988-2.226,2.327v0.017c0,1.356,1.021,2.344,2.226,2.344 C-104.863,209.343-103.841,208.355-103.841,206.999 M-101.063,206.999c0,2.277-1.624,4.938-5.005,4.938 c-3.381,0-5.005-2.662-5.005-4.922v-0.017c0-2.277,1.624-4.938,5.005-4.938C-102.686,202.061-101.063,204.723-101.063,206.999 M-93.784,206.999c0-1.356-1.021-2.344-2.226-2.344s-2.226,0.988-2.226,2.327v0.017c0,1.356,1.021,2.344,2.226,2.344 S-93.784,208.355-93.784,206.999 M-92.405,210.502c-0.826,0.853-2.023,1.435-3.605,1.435c-3.381,0-5.005-2.662-5.005-4.922 v-0.017c0-2.277,1.624-4.938,5.005-4.938c3.381,0,5.005,2.662,5.005,4.938c0,0.958-0.289,1.983-0.874,2.851L-92.405,210.502z"/></g></g></g></g></g></svg>