<svg xmlns="http://www.w3.org/2000/svg" version="1.1" id="Layer_1" x="0px" y="0px" width="70px" height="70px" viewBox="0 0 70 70" enable-background="new 0 0 70 70" xml:space="preserve"><metadata/><switch><g><rect width="70" fill="none" height="70"/><g><path fill="#22BDEF" d="M20.7,32.6c0,0-3.8,11-4.6,18.3C18.7,44.6,23.8,35.8,26.8,31.6c-4.3-3.5-12.3-7.2-12.3-7.2      s6.3-2.7,19.1-3.4c0,0,5.3-10.3,19-19.9c-8.3,2.7-16.1,9.7-24.1,17.4C18.3,19,7.3,23.1,6.1,23.6C17.9,29.8,20.7,32.6,20.7,32.6      L20.7,32.6z"/><path fill="#22BDEF" d="M66.8,24.5c-10-4-22.2-5-22.2-5s-0.3-3.2,0.7-9.2c-1.2,2.5-3.3,7.9-3.7,11.9c9,0.7,15.101,2.7,15.101,2.7      S47.6,28.3,42.6,32.3C43.5,34.5,45.5,41,46.7,46c-2-1.8-7.8-6.6-12.1-9.2C28.9,39,13.3,54.4,4.5,68.7c3.8-4,14.9-16.5,30-25.601      C37.6,45,52,54.4,52,54.4s-3.1-16.7-4.3-20.5C52.1,30.9,59.7,26.7,66.8,24.5L66.8,24.5z"/></g></g></switch></svg>