<svg xmlns="http://www.w3.org/2000/svg" id="Layer_1" width="70" height="70" x="0" y="0" enable-background="new 0 0 70 70" version="1.1" viewBox="0 0 70 70" xml:space="preserve"><metadata/><switch><g><g><g><g><path fill="#545552" d="M65.4,29.2L65.4,29.2c0.399-1.2,2-2.1,2.899-2.1c0.8,0,1.3,0.4,1.3,1.2v1.2c0,0.7-0.699,1.2-1.5,1.2 c-1.699,0-2.6,1.5-2.6,3.3v3.2c0,0.8-0.4,1.2-1.1,1.2H63c-0.7,0-1.2-0.4-1.2-1.2v-8.8c0-0.8,0.4-1.2,1.2-1.2h1.2 c0.7,0,1.2,0.4,1.2,1.2V29.2"/></g></g><path fill="#545552" d="M41.1,29.2L41.1,29.2c0.4-1.2,2-2.1,3-2.1c0.7,0,1.2,0.4,1.2,1.2v1.2c0,0.7-0.7,1.2-1.5,1.2 c-1.7,0-2.6,1.5-2.6,3.4v3.2c0,0.8-0.4,1.2-1.2,1.2h-1.4c-0.699,0-1.1-0.4-1.1-1.2v-8.8c0-0.8,0.4-1.2,1.1-1.2h1.2 c0.8,0,1.2,0.4,1.2,1.2v0.7"/><path fill="#F49F27" d="M58.8,26L58.8,26c-1.6,0-2.8-1.3-2.8-2.8c0-1.6,1.2-2.9,2.8-2.9c1.5,0,2.8,1.3,2.8,2.9 C61.6,24.7,60.3,26,58.8,26"/><path fill="#545552" d="M10.7,26L10.7,26c-1.5,0-2.8-1.3-2.8-2.8c0-1.6,1.3-2.9,2.8-2.9c1.6,0,2.8,1.3,2.8,2.9 C13.5,24.7,12.2,26,10.7,26"/><path fill="#545552" d="M51.5,31.5h0.4v-0.1c0-0.9-0.801-1.2-1.601-1.2c-0.7,0-1.5,0.2-2.1,0.4C47.5,31,47,30.8,46.6,30.1 l-0.3-0.5c-0.399-0.7-0.2-1.2,0.5-1.6c0.9-0.4,2.2-0.9,3.9-0.9c3.1,0,5.1,1.7,5.1,4.5v5.7c0,0.8-0.399,1.2-1.2,1.2h-1.1 c-0.8,0-1.2-0.4-1.2-1.2v-0.1c0-0.101,0-0.3,0-0.3L52.2,37c0,0-1.101,1.7-3.4,1.7c-2.2,0-3.8-1.5-3.8-3.3 C45,32.4,48.8,31.5,51.5,31.5 M49.7,36.1L49.7,36.1c1.2,0,2.2-1.2,2.2-2.3v-0.3h-0.4c-1.4,0-3.1,0.4-3.1,1.5 C48.4,35.7,48.9,36.1,49.7,36.1z"/><g><g><path fill="#545552" d="M1.8,30.4H1.4c-0.7,0-1.2-0.4-1.2-1.2v-0.5c0-0.8,0.4-1.2,1.2-1.2h0.4v-2c0-0.8,0.4-1.2,1.2-1.2h1.2 c0.8,0,1.2,0.4,1.2,1.2v2h1.1c0.7,0,1.2,0.4,1.2,1.2v0.5c0,0.8-0.4,1.2-1.2,1.2h-1v3.4c0,0.9,0.6,1.3,1.2,1.5 c0.9,0.1,1.2,0.4,1.2,1.2v1c0,0.9-0.6,1.2-1.5,1.2c-1.6,0-4.6-0.8-4.6-4.1V30.4"/></g></g><path fill="#545552" d="M8.8,28.4L8.8,28.4c0-0.8,0.4-1.2,1.2-1.2h1.3c0.8,0,1.2,0.4,1.2,1.2v8.8c0,0.8-0.4,1.2-1.2,1.2H10 c-0.8,0-1.2-0.4-1.2-1.2V28.4"/><path fill="#545552" d="M57,28.4L57,28.4c0-0.8,0.4-1.2,1.1-1.2h1.4c0.7,0,1.2,0.4,1.2,1.2v8.8c0,0.8-0.4,1.2-1.2,1.2h-1.4 C57.4,38.4,57,38,57,37.2V28.4"/><path fill="#545552" d="M31.6,27.1L31.6,27.1c3.3,0,5.1,2.3,5.1,5.3c0,0.7-0.5,1.3-1.2,1.3h-5.8c0.3,1.3,1.4,2,2.5,2 c0.7,0,1.5-0.3,2-0.5c0.7-0.4,1.2-0.3,1.5,0.399L36.1,36.2c0.301,0.7,0.2,1.2-0.399,1.6c-0.8,0.5-2.1,1-3.8,1c-3.9,0-6-2.8-6-5.9 C26,29.6,28.1,27.1,31.6,27.1 M33.2,31.5L33.2,31.5c0-0.9-0.6-1.7-1.6-1.7c-1.1,0-1.6,0.8-1.8,1.7H33.2z"/><path fill="#545552" d="M21.4,37.4L21.4,37.4c0,0.5,0,1.199,0,1.8c0.3-0.3,0.7-0.4,1.2-0.4h1.3c0.5,0,0.9,0.101,1.2,0.4V28.3 c0-0.8-0.4-1.2-1.2-1.2h-1.4c-0.7,0-1.1,0.4-1.2,1v0.1c0,0-0.7-1.1-2.9-1.1c-2.9,0-5,2.3-5,5.8c0,3.5,2,5.9,5,5.9 C20.1,38.8,21,37.8,21.4,37.4 M19.3,35.7L19.3,35.7c-1.3,0-2.3-1-2.3-2.8c0-1.7,1.1-2.7,2.3-2.7c1.5,0,2.3,1.4,2.3,2.7 C21.5,34.8,20.4,35.7,19.3,35.7z"/><g><g><path fill="#F49F27" d="M25.1,41.5V41c0-0.8-0.4-1.2-1.2-1.2h-1.3c-0.4,0-0.7,0.101-0.9,0.4c-0.1,0.2-0.2,0.399-0.2,0.899 c0,0.7-0.4,1.2-0.7,1.5C20.5,42.9,20.1,43,19.4,43c-0.7,0-1.2-0.1-1.5-0.4c-0.2-0.3-0.7-0.699-0.6-1.5 c0-0.399-0.1-0.699-0.3-0.8C16.9,40,16.5,39.9,16.1,39.9H15c-0.8,0-1.2,0.399-1.2,1.199v0.5c0,0,0,0,0.1,0.5 c0.1,2.4,2.8,4.5,5.6,4.601c2.8-0.101,5.4-2.2,5.6-4.601C25.1,42.1,25.1,41.8,25.1,41.5"/></g></g></g><rect width="70" height="70" fill="none"/><rect width="70" height="70" fill="none"/><rect width="70" height="70" fill="none"/></g></switch></svg>