<svg xmlns="http://www.w3.org/2000/svg" id="Layer_1" width="70" height="70" x="0" y="0" enable-background="new 0 0 70 70" version="1.1" viewBox="0 0 70 70" xml:space="preserve"><metadata/><switch><g><rect width="70" height="70" fill="none"/><g><g><path fill="#ED2D32" d="M31.5,17.2H17.8l-1.1,1.1h15.9L31.5,17.2z M33.1,18.7H11.3l-0.8,0.8h23.4L33.1,18.7z M22.6,21.1l1.1-1.1 H10.5l1.1,1.1H22.6z M15.7,22.5h21.1L36,21.7H14.9C15.1,21.8,15.7,22.5,15.7,22.5z M44.6,40.5H2.3l-1.1,1.1h42.3L44.6,40.5z M56.5,42.1h-55L2.3,42.9h55L56.5,42.1z M62.7,49.3h-19c1.399,0.8,2.6,1.101,2.6,1.101h17.5L62.7,49.3z M5.8,43.4h-3l1.1,1.1H7 L5.8,43.4z M8.8,46.4H5.7l1.1,1.1h3.1L8.8,46.4z M7.4,45h-3l0.8,0.8h3.1L7.4,45z M10.4,48H7.3l0.8,0.8h3.1L10.4,48z M11.7,49.3 H8.6L9.7,50.4h3.1L11.7,49.3z M10.2,50.9l0.8,0.8h3.1l-0.8-0.8H10.2z M12.6,53.3h1.5v-1.1h-2.5L12.6,53.3z M13.9,54.6l0.2,0.2 V53.9h-0.9L13.9,54.6z M34.5,37.6L33.4,38.7H41L40,37.6H34.5z M15.2,25.4h24.6L39,24.6H15.8C15.6,24.8,15.4,25.1,15.2,25.4z M12.4,28.3h30.3l-0.8-0.8H13.1C12.9,27.8,12.6,28,12.4,28.3z M10.6,31.2h35l-0.8-0.8H11C10.9,30.7,10.7,30.9,10.6,31.2z M47.7,33.3H10c0,0.3-0.1,0.5-0.1,0.8h38.7L47.7,33.3z M9.9,37.1h41.6l-0.8-0.8H9.8C9.8,36.5,9.8,36.8,9.9,37.1z M10.5,40h43.8 l-0.8-0.8H10.3C10.4,39.5,10.5,39.7,10.5,40z M19.7,24.1c0.4-0.4,0.7-0.8,1-1.1h-4.8c0.1,0.2,0.1,0.8,0.1,1.1H19.7z M14.7,25.9 c-0.3,0.3-0.7,0.7-1.1,1.1h3.8c0.2-0.4,0.5-0.7,0.7-1.1H14.7z M12,28.8c-0.2,0.3-0.5,0.7-0.7,1.1h4.9c0.1-0.4,0.2-0.7,0.3-1.1 H12z M16.1,31.8h-5.7c-0.1,0.3-0.2,0.7-0.3,1.1h6.2C16.2,32.5,16.1,32.1,16.1,31.8z M17.2,34.7H9.8c0,0.3,0,0.7,0,1.1h8.3 C17.7,35.4,17.4,35,17.2,34.7z M10,37.6c0.1,0.301,0.1,0.7,0.2,1.101h11.9c-0.7-0.4-1.2-0.7-1.8-1.101H10z M13.5,44.5h33.4 L45.8,43.4H12.5C12.8,43.8,13.2,44.2,13.5,44.5z M59.4,45H14c0.3,0.3,0.7,0.6,1,0.8h45.1L59.4,45z M18.3,47.4h7.5 c0.4,0,2.3-1.101,2.3-1.101H15.9C16.8,46.8,17.6,47.2,18.3,47.4z M48.8,46.4h-8.6c0.2,0.3,0.5,0.699,0.899,1.1h8.7L48.8,46.4z M62.3,48H41.7c0.3,0.3,0.7,0.5,1.1,0.8h20.3L62.3,48z M65.2,50.9h-8.5C57.6,51.1,58.6,51.4,59.6,51.7H66L65.2,50.9z M65.6,52.2 h-4.5c0.9,0.3,1.801,0.7,2.601,1.1h3L65.6,52.2z M68.2,53.8h-3.5c0.5,0.3,1,0.5,1.399,0.8H68.9L68.2,53.8z"/></g></g></g></switch></svg>