<svg xmlns="http://www.w3.org/2000/svg" version="1.1" id="Layer_1" x="0px" y="0px" width="70px" height="70px" viewBox="0 0 70 70" enable-background="new 0 0 70 70" xml:space="preserve"><metadata/><switch><g><rect width="70" fill="none" height="70"/><g><path fill="#ED652D" d="M4.6,29.4H4.4c-0.5,0-0.6,0-0.6-0.5c0-0.7,0.5-1.2,1.1-1.2s1,0.4,1,1.1c0,0.6-0.1,0.6-1.1,0.6H4.6z       M8.2,31.1c0.7,0,1-0.3,1-1.3c0-2.1-1.7-3.8-4.3-3.8c-1.6,0-3.1,0.8-4,2C0.3,28.9,0,29.9,0,30.9c0,2.6,2,4.7,4.8,4.7      c1.1,0,2.1-0.3,3-0.899c0.7-0.5,1.1-1,1.1-1.4c0-0.5-0.3-0.9-0.7-0.9c-0.4,0-1.1,0.7-2.2,0.7c-1.2,0-2.1-0.9-2.1-1.7      c0-0.2,0.2-0.2,0.5-0.2L8.2,31.1L8.2,31.1z M14.7,30c-0.6-0.1-1-0.2-1.4-0.2c-2.1,0-3.8,1.3-3.8,2.9c0,1.6,1.2,2.7,3,2.7      c0.9,0,1.3-0.2,1.9-0.6c0.2-0.1,0.3-0.3,0.4-0.3c0.2,0,0.4,0.3,0.7,0.6c0.3,0.3,0.6,0.4,1.1,0.4c1.7,0,2.9-1.1,2.9-1.9      c0-0.3-0.2-0.5-0.5-0.6c-0.5-0.1-0.5-0.4-0.5-1.6v-0.3c0-0.6,0.1-1.2,0.1-2c0-2-1.4-3.1-4.1-3.1c-2.6,0-4.3,1.1-4.3,2.2      c0,0.6,0.5,1.1,1.1,1.1c0.6,0,1-0.3,1.5-0.9c0.4-0.5,0.6-0.9,1.2-0.9c0.5,0,0.8,0.5,0.8,1.6C14.7,29.4,14.7,29.7,14.7,30       M14.6,31.7c0,1.2,0,1.7-0.6,1.7c-0.4,0-0.7-0.3-0.7-1c0-0.7,0.3-1.1,0.9-1.1C14.6,31.3,14.6,31.3,14.6,31.7 M27.9,32.5      c0-1.3-0.8-2.1-2.4-3C24.6,29,24,28.9,24,28.4c0-0.3,0.2-0.5,0.5-0.5c0.5,0,0.8,0.5,1.3,0.9c0.3,0.3,0.6,0.4,0.9,0.4      c0.6,0,1-0.4,1-1c0-1.1-1-2.3-1.7-2.3c-0.3,0-0.6,0.3-0.9,0.3c-0.4,0-0.9-0.2-1.5-0.2c-2,0-3.5,1.4-3.5,3c0,1.2,0.8,2.3,2.2,3      c0.8,0.4,1.3,0.5,1.3,1c0,0.2-0.2,0.4-0.5,0.4c-0.4,0-0.8-0.3-1.3-0.9c-0.4-0.4-0.6-0.8-1.2-0.8c-0.5,0-0.7,0.4-0.7,1      c0,1.2,1,2.4,1.7,2.4c0.3,0,0.5-0.2,0.8-0.2c0.3,0,0.9,0.3,1.9,0.3C26.5,35.5,27.9,34.2,27.9,32.5 M31.2,32.5      c0.8,1.7,1.3,2.8,1.3,3.4c0,0.399-0.2,0.6-0.4,0.6c-0.4,0-0.3-0.5-0.6-1.2c-0.3-0.6-0.8-0.9-1.4-0.9c-0.8,0-1.6,0.7-1.6,1.7      c0,1.4,1.1,2.4,2.8,2.4c1.7,0,2.9-0.9,3.9-2.7s1.399-4,2.2-6.2c0.399-0.9,0.5-1.3,1.199-1.6c0.5-0.2,0.801-0.3,0.801-1      s-0.601-1-1.9-1c-1.4,0-2.2,0.4-2.2,1c0,0.5,0.7,0.7,0.7,1.1c0,0.1-0.1,0.5-0.3,1s-0.4,0.8-0.7,0.8c-0.4,0-0.5-0.3-0.8-0.8      c-0.2-0.5-0.3-0.9-0.3-1.1c0-0.3,0.6-0.3,0.6-1c0-0.9-0.9-1.1-2.8-1.1c-2.3,0-3.4,0.5-3.4,1.4c0,0.6,0.4,0.7,0.8,0.9      c0.5,0.2,0.6,0.6,0.8,1.2L31.2,32.5z M45,31.4c0,1.3-0.5,1.9-1.2,1.9c-0.3,0-0.5-0.2-0.5-0.4c0-0.3,0.101-0.6,0.101-1      c0-1.1-0.801-1.9-2-1.9c-1.101,0-2,0.9-2,2.1c0,2,1.8,3.5,4.8,3.5c2.5,0,4.1-1,4.7-2.899c0.399-1.2,0.199-3.2,0.3-6.2      c0-0.9,0-1.1,0.6-1.5c0.4-0.2,0.7-0.4,0.7-1c0-1-1.1-1.2-3.4-1.2c-2.399,0-3.5,0.3-3.5,1.4c0,0.6,0.301,0.7,0.7,0.9      c0.601,0.2,0.601,0.4,0.601,1.4L45,31.4L45,31.4z M56,29.4h-0.2c-0.5,0-0.6,0-0.6-0.5c0-0.7,0.5-1.2,1.1-1.2c0.601,0,1,0.4,1,1.1      c0,0.6-0.1,0.6-1.1,0.6H56z M59.5,31.1c0.7,0,1-0.3,1-1.3c0-2.1-1.7-3.8-4.3-3.8c-1.601,0-3.101,0.8-4,2      c-0.601,0.8-0.9,1.8-0.9,2.7c0,2.6,2,4.7,4.8,4.7c1.101,0,2.101-0.3,3-0.9c0.7-0.5,1.101-1,1.101-1.4c0-0.5-0.3-0.9-0.7-0.9      s-1.1,0.7-2.2,0.7c-1.2,0-2.1-0.9-2.1-1.7c0-0.2,0.2-0.2,0.5-0.2L59.5,31.1L59.5,31.1z M62.1,28.2v4.2c0,2.1,1.101,3.2,3.101,3.2      s3.5-1.2,3.5-2c0-0.6-0.3-1-0.601-1c-0.399,0-0.699,0.3-1.1,0.3c-0.6,0-0.9-0.3-0.9-1v-3.1c0-0.4,0.101-0.4,0.601-0.4l1.3-0.1      c0.6,0,0.7-0.1,0.7-0.7v-0.8c0-0.5-0.101-0.5-0.601-0.5H66.2v-0.8c0-1,0-1.3-0.8-1.3c-0.801,0-1.9,0.8-3.7,2      c-0.8,0.5-1,0.6-1,1.2C60.8,28.2,60.9,28.2,62.1,28.2"/></g></g></switch></svg>