<svg xmlns="http://www.w3.org/2000/svg" version="1.1" id="Layer_1" x="0px" y="0px" width="70px" height="70px" viewBox="0 0 70 70" enable-background="new 0 0 70 70" xml:space="preserve"><metadata/><switch><g><rect width="70" fill="none" height="70"/><path fill="#105EAC" d="M68.8,42.6c0,0-20.1,6.801-39.8,7.301s-25-3-26.9-5.7c-2.1-2.9-2-11.1,16.1-22.9c0,0-8.2,10.7-4.1,16.4     S49,44.6,68.8,42.6z"/><path fill="#65C4EE" d="M3.4,51.9c0,0,10.2-18.601,24.3-32.3C41.8,5.8,48.1,4.9,51.3,5.5c3.5,0.7,8.9,6.8,3.7,27.8     c0,0-1.3-13.4-8.1-14.9C40,17,16.5,37,3.4,51.9z"/><path fill="#ED2029" d="M11.9,14.1c0,0,20.3,6.2,36.6,17.2S67,48.3,67,51.6c0,3.5-4.9,10.101-26.5,9.301c0,0,12.9-4,12.9-11     S29.1,23.9,11.9,14.1z"/></g></switch></svg>