<svg xmlns="http://www.w3.org/2000/svg" id="Layer_1" width="70" height="70" x="0" y="0" enable-background="new 0 0 70 70" version="1.1" viewBox="0 0 70 70" xml:space="preserve"><metadata/><switch><g><rect width="70" height="70" fill="none"/><path fill="#231F20" d="M67.7,55c0-0.7-0.7-1.5-1.5-2.2c-0.9-0.7-3.2-1.3-5-1.3s-5.7-0.1-5.7-0.1v-5.2c0,0,4.7-3.4,7.3-5.5 c2.601-2.101,4-3.9,4-6.8s-1.7-5.7-3.399-7.1c-1.7-1.4-1.601-3.5-1.7-4.9C61.6,20.5,63.4,20,64.3,20c0.9,0,1.7,0.2,1.7,0.2 c0-0.3-0.9-1.6-1.8-1.6c-0.9,0-2.3,0-2.3,0c0.5-0.5,0.8-2.1,0.5-3.5c-0.301-1.5-3-1.4-3-1.4S57.1,13.6,56.2,16 c-0.9,2.4,1.8,4.2,1.8,4.2s-1.3,0.1-2.3-0.3c-1-0.5-1.3-2.3-1-3.6c0.3-1.3-1-1.1-1.4-0.5c-0.3,0.7-0.1,0.8-0.2,2.3 c-0.1,1.5,3.5,4.6,4.801,7.3c1.3,2.7,0.8,7.3,0,10.3c-0.801,3-4.601,4.6-7.801,6C46.9,43.2,45,46.1,45,46.1 c1.1-0.6,3.8-0.5,4.8-0.3s1,1.2,0.5,1.9c-0.6,0.7-2.1,3.399-2,4.3c0.101,1,1.4,0.9,1.9,0.8c0.6-0.1,2.5-0.1,2.8-0.1 s0.4,0.3,0.6,0.7c0.2,0.3,0.7,0.899,0.7,0.899l-0.2,7.9c0,0-1,0.1-1.699,0.1c-0.601,0-1.9,0.101-2.601,0.3 c-0.7,0.2-0.7,0.5-0.1,0.5c0.6,0,1.8,0,4.2,0.2c2.5,0.2,3,0.7,3.8,1.5c0.7,0.7,1.3,1,1.5,0.8c0.2-0.199,0.2-0.3-0.101-0.699 C58.8,64.6,57.2,63.3,57.2,63.3S58.6,62.9,59.8,63c1.3,0.1,1-0.1,1-0.3c0-0.3-0.7-0.5-2.1-0.4c-1.4,0.101-3.8-0.1-3.8-0.1l0.3-9.7 c0,0,4.7,0,6.2,0c1.399,0,2.1,1.1,2.3,1.6s0.2,1.101,0.5,1.101s0.1-0.7,0.1-1.101c0-0.399,0.101-0.699,0.8-0.6 c0.7,0.1,0.601,0.9,0.601,1.4c0.1,0.5-0.2,1.6,0.1,1.699c0.3,0.101,0.2-0.5,0.2-1.1s0.2-0.8,0.7-0.7c0.6,0.101,0.5,0.7,0.5,1.101 c0.1,0.399,0.2,1,0.3,1C67.8,56.8,67.7,55.7,67.7,55z M61.9,27.3c0.699,1.1,1.5,3.5,1.6,4.4c0.1,1-0.8,4.5-0.8,4.5 s-0.4-0.8-0.8-1.8c-0.4-1-2.2-1.9-2.2-1.9s0.8-0.7,1.1-2.5c0.3-1.7-1.5-6.4-1.5-6.4S61.2,26.1,61.9,27.3z M54,51.8l-3.8-0.2 c0.1-0.5,0.3-0.8,1.1-1.699c0.8-0.9,1.101-1.2,1.601-1.5c0.5-0.301,1.199-0.5,1.199-0.5L54,51.8z M53.8,43.4l0.3-1 c0,0,0.2-0.4,0.301-0.5C54.6,41.8,54.7,41.6,54.7,41.6s0.5-0.5,1-0.899c0.5-0.3,1-0.9,1-0.9l0.1,3.4L53.8,43.4z"/><path fill="#231F20" d="M43.1,35.9c0,0,7.7-3,9.7-3.8c2.101-0.8,3.3-1.7,3.5-1.7c0.2-0.1,0.9,0.7,1,2.1 c0.101,1.3-0.5,3.5-1.899,4.8C54,38.6,50.6,40.2,50.3,40.4C50,40.6,50.1,40.3,50,40s-0.5-0.6-0.5-0.6l-0.7-0.5 c0,0-0.7,0.5-0.7-0.101c0-0.6-0.199-1.399-0.199-1.399S47.6,37.5,47.3,37.2s-0.5-0.2-0.5-0.5s-0.1-0.5-0.3-0.5 C46.4,36.2,44.5,35.6,43.1,35.9z"/><path fill="#D61F39" d="M36.7,50.9c0.7,3.1,5.5,5.6,5.5,5.6l0.1-0.9c0,0-0.1-0.3-0.2-0.6C42,54.7,42.2,54.4,42.2,54.4 s0.5,0.1,0.8,0.1s0-0.2,0-0.6c0-0.301,0.1-0.301,0.1-0.301s0.5,0.2,1,0.301c0.5,0.199,0.7,0.1,0.7,0.1s-1.8-2.2-2.7-4 c-0.899-1.8,0.5-3,0.5-3s0.2,0.5,0.301,0.9C43,48.4,44,49,44,49c-0.1-0.8-0.1-1.3,0.2-2.7c0.3-1.399,0.2-1.2,1.5-2.5 s3.8-2.8,3.8-2.8s-0.1-0.7-0.2-0.9C48.9,40,48.7,40,48.7,40s-0.5-0.1-0.7-0.2c-0.3-0.1-0.5-0.5-0.5-0.5s0-0.5,0-0.7 c0-0.3-0.7-0.6-0.7-0.6s-0.3-0.2-0.6-0.2c-0.3-0.1-0.3-0.2-0.3-0.7s-0.601-0.199-1-0.3c-0.4-0.1-2.101-0.1-2.101-0.1 c-1.5,0-4.6,1.899-5.899,5.7C35.4,46.1,36.1,48.2,36.7,50.9z"/><circle cx="59.1" cy="17.8" r=".7" fill="#FFF"/><path fill="#D61F39" d="M61.5,23.2c0.5,0.2,1.6,0.1,1.4,0.9c-0.2,0.8-0.801,1-1.101,0.5C61.4,24,61.5,23.2,61.5,23.2z"/><g><g><polygon fill="#FAD432" points="57.3 15.2 57.6 15.7 47.1 19.6"/></g><g><polygon fill="#FAD432" points="57.2 15.2 57.4 15.7 46.8 19.2"/></g><g><polygon fill="#FAD432" points="57.4 15.2 57.6 15.7 46.7 18.6"/></g><g><polygon fill="#FAD432" points="57.3 15.1 57.4 15.7 46.5 18.2"/></g><g><polygon fill="#FAD432" points="57.5 15.4 57.9 15.9 48.1 21.4"/></g><g><polygon fill="#FAD432" points="57.4 15.4 57.7 15.9 47.8 21"/></g><g><polygon fill="#FAD432" points="57.6 15.4 57.9 15.9 47.6 20.5"/></g><g><polygon fill="#FAD432" points="57.5 15.4 57.7 15.9 47.3 20"/></g><g><polygon fill="#FAD432" points="57.6 15.4 57.5 14.9 68.4 12.4"/></g><g><polygon fill="#FAD432" points="57.7 15.5 57.6 14.9 68.6 12.9"/></g><g><polygon fill="#FAD432" points="57.6 15.4 57.5 14.9 68.6 13.4"/></g><g><polygon fill="#FAD432" points="57.7 15.5 57.6 14.9 68.8 13.9"/></g><g><polygon fill="#FAD432" points="57.4 15.2 57.5 15.7 46.5 17.6"/></g><g><polygon fill="#FAD432" points="57.3 15.1 57.4 15.7 46.3 17.1"/></g><g><polygon fill="#FAD432" points="57.4 15.2 57.5 15.7 46.3 16.5"/></g><g><polygon fill="#FAD432" points="57.3 15.1 57.4 15.7 46.2 16"/></g><g><polygon fill="#FAD432" points="57.5 15.2 57.5 15.7 46.3 15.5"/></g><g><polygon fill="#FAD432" points="57.4 15.1 57.4 15.7 46.2 15"/></g><g><polygon fill="#FAD432" points="57.5 15.2 57.5 15.7 46.4 14.5"/></g><g><polygon fill="#FAD432" points="57.4 15.1 57.4 15.7 46.3 14"/></g><g><polygon fill="#FAD432" points="57.5 15.1 57.4 15.7 46.5 13.4"/></g><g><polygon fill="#FAD432" points="57.5 15.1 57.3 15.6 46.5 12.8"/></g><g><polygon fill="#FAD432" points="57.6 15.2 57.4 15.7 46.7 12.4"/></g><g><polygon fill="#FAD432" points="57.5 15.1 57.3 15.6 46.8 11.9"/></g><g><polygon fill="#FAD432" points="57.8 15.1 57.6 15.7 47.2 11.4"/></g><g><polygon fill="#FAD432" points="57.7 15 57.5 15.6 47.3 10.9"/></g><g><polygon fill="#FAD432" points="57.8 15.1 57.6 15.7 47.7 10.5"/></g><g><polygon fill="#FAD432" points="57.8 15.1 57.5 15.6 47.8 10"/></g><g><polygon fill="#FAD432" points="57.8 15.1 57.6 15.6 48.2 9.5"/></g><g><polygon fill="#FAD432" points="57.8 15 57.5 15.5 48.4 9"/></g><g><polygon fill="#FAD432" points="57.9 15.2 57.6 15.6 48.8 8.7"/></g><g><polygon fill="#FAD432" points="57.8 15.1 57.5 15.5 49 8.2"/></g><g><polygon fill="#FAD432" points="57.9 15.2 57.6 15.6 49.4 7.9"/></g><g><polygon fill="#FAD432" points="57.9 15.1 57.5 15.5 49.7 7.5"/></g><g><polygon fill="#FAD432" points="58 15.2 57.5 15.6 50.2 7.2"/></g><g><polygon fill="#FAD432" points="57.9 15.1 57.5 15.5 50.5 6.8"/></g><g><polygon fill="#FAD432" points="58 15.2 57.5 15.6 51 6.4"/></g><g><polygon fill="#FAD432" points="58 15.1 57.5 15.5 51.4 6.1"/></g><g><polygon fill="#FAD432" points="58 15.3 57.5 15.6 51.9 5.9"/></g><g><polygon fill="#FAD432" points="58 15.2 57.5 15.5 52.3 5.5"/></g><g><polygon fill="#FAD432" points="58.1 15.2 57.6 15.5 52.8 5.3"/></g><g><polygon fill="#FAD432" points="58.1 15.1 57.6 15.3 53.2 5"/></g><g><polygon fill="#FAD432" points="58.1 15.2 57.6 15.5 53.8 4.9"/></g><g><polygon fill="#FAD432" points="58.2 15.1 57.6 15.3 54.2 4.7"/></g><g><polygon fill="#FAD432" points="58.2 15.2 57.6 15.4 54.8 4.5"/></g><g><polygon fill="#FAD432" points="58.2 15.1 57.6 15.3 55.3 4.3"/></g><g><polygon fill="#FAD432" points="58.2 15.3 57.6 15.4 55.8 4.3"/></g><g><polygon fill="#FAD432" points="58.2 15.2 57.6 15.3 56.3 4.1"/></g><g><polygon fill="#FAD432" points="58.2 15.3 57.6 15.4 56.8 4.2"/></g><g><polygon fill="#FAD432" points="58.2 15.2 57.6 15.3 57.3 4.1"/></g><g><polygon fill="#FAD432" points="58.2 15.4 57.6 15.4 57.9 4.2"/></g><g><polygon fill="#FAD432" points="58.2 15.3 57.6 15.3 58.4 4.1"/></g><g><polygon fill="#FAD432" points="58.2 15.4 57.6 15.3 59 4.2"/></g><g><polygon fill="#FAD432" points="58.2 15.3 57.7 15.2 59.5 4.2"/></g><g><polygon fill="#FAD432" points="58.2 15.4 57.6 15.3 60 4.4"/></g><g><polygon fill="#FAD432" points="58.2 15.3 57.7 15.2 60.5 4.4"/></g><g><polygon fill="#FAD432" points="58.2 15.6 57.7 15.5 61 4.8"/></g><g><polygon fill="#FAD432" points="58.3 15.6 57.8 15.4 61.5 4.8"/></g><g><polygon fill="#FAD432" points="58.2 15.7 57.7 15.5 62 5.1"/></g><g><polygon fill="#FAD432" points="58.3 15.6 57.8 15.4 62.5 5.2"/></g><g><polygon fill="#FAD432" points="58.2 15.7 57.7 15.4 63 5.6"/></g><g><polygon fill="#FAD432" points="58.3 15.6 57.8 15.4 63.5 5.7"/></g><g><polygon fill="#FAD432" points="58.2 15.7 57.7 15.4 63.9 6.1"/></g><g><polygon fill="#FAD432" points="58.3 15.7 57.8 15.4 64.4 6.3"/></g><g><polygon fill="#FAD432" points="58.2 15.8 57.7 15.4 64.7 6.7"/></g><g><polygon fill="#FAD432" points="58.3 15.7 57.8 15.4 65.2 6.9"/></g><g><polygon fill="#FAD432" points="58.1 15.8 57.7 15.4 65.5 7.4"/></g><g><polygon fill="#FAD432" points="58.2 15.8 57.8 15.4 65.9 7.6"/></g><g><polygon fill="#FAD432" points="58.1 15.8 57.7 15.4 66.3 8.1"/></g><g><polygon fill="#FAD432" points="58.2 15.8 57.9 15.4 66.7 8.5"/></g><g><polygon fill="#FAD432" points="58.1 15.8 57.7 15.4 66.9 8.9"/></g><g><polygon fill="#FAD432" points="58.2 15.8 57.9 15.4 67.3 9.3"/></g><g><polygon fill="#FAD432" points="58 15.8 57.7 15.3 67.5 9.9"/></g><g><polygon fill="#FAD432" points="57.9 15.8 57.6 15.3 67.7 10.4"/></g><g><polygon fill="#FAD432" points="58 15.8 57.7 15.3 68 10.8"/></g><g><polygon fill="#FAD432" points="57.8 15.8 57.6 15.3 68.1 11.4"/></g><g><polygon fill="#FAD432" points="58 15.9 57.7 15.3 68.4 11.8"/></g><path fill="#FAD432" d="M53.5,18.1c0.5-0.2,2.9-1.5,3.8-2c0.9-0.5,1.9-0.6,2.601-0.7c0.699-0.1,1.5-0.2,1.899-0.5 c0.5-0.2,0.7-0.6,0.7-0.6s-2.6-0.6-2.7-0.6c-0.2,0.1-2.899,1.1-3.2,1.3c-0.3,0.2-3.5,3.2-3.5,3.2L53.5,18.1z"/></g><path fill="#231F20" d="M2,56.8c0.2,0.101,0.3-0.6,0.3-1c0.1-0.399-0.1-1.1,0.5-1.1c0.6,0,0.7,0.2,0.7,0.7c0,0.6-0.1,1.1,0.2,1.1 c0.3-0.1,0-1.1,0.1-1.7c0.1-0.5-0.1-1.3,0.6-1.399C5.1,53.3,5.2,53.5,5.2,54S5,55.2,5.3,55.2c0.3,0,0.3-0.601,0.5-1.101 c0.2-0.5,0.9-1.6,2.3-1.6s6.2,0,6.2,0l0.3,9.7c0,0-2.5,0.2-3.8,0.1c-1.4-0.1-2.1,0.101-2.1,0.4S8.5,63.1,9.7,63 c1.3-0.1,2.6,0.3,2.6,0.3s-1.5,1.3-1.9,1.601c-0.3,0.3-0.3,0.5-0.1,0.699c0.2,0.2,0.7-0.1,1.5-0.8c0.7-0.7,1.3-1.3,3.8-1.5 s3.6-0.2,4.2-0.2c0.6,0,0.6-0.3-0.1-0.5c-0.7-0.199-1.9-0.3-2.6-0.3c-0.7,0-1.7-0.1-1.7-0.1l-0.2-7.9c0,0,0.5-0.6,0.7-0.899 c0.2-0.301,0.2-0.7,0.6-0.7c0.3,0,2.3,0,2.8,0.1c0.6,0.101,1.9,0.2,1.9-0.8c0.1-1-1.4-3.6-2-4.3C18.9,47,19,46,19.9,45.8 s3.7-0.3,4.8,0.3c0,0-1.9-3-5.1-4.399c-3.2-1.5-7-3.101-7.8-6c-0.8-3-1.3-7.5,0-10.3c1.3-2.7,4.9-5.8,4.8-7.3s0.1-1.6-0.2-2.3 C16,15.2,14.8,15,15,16.3c0.2,1.4,0,3.2-1,3.6s-2.3,0.3-2.3,0.3s2.7-1.8,1.8-4.2s-3.2-2.3-3.2-2.3s-2.6-0.1-3,1.4 c-0.4,1.5,0,3.1,0.5,3.5c0,0-1.4,0-2.3,0s-1.8,1.3-1.8,1.6c0,0,0.8-0.2,1.7-0.2s2.7,0.6,2.6,1.9c-0.1,1.4,0,3.5-1.7,4.9 C4.6,28.3,2.9,31,2.9,34s1.4,4.8,4,6.8c2.6,2.101,7.3,5.5,7.3,5.5v5.2c0,0-3.9,0.1-5.7,0.1S4.3,52.2,3.5,52.9 C2.7,53.5,2,54.3,2,55S1.9,56.8,2,56.8z M10.3,23.7c0,0-1.8,4.7-1.5,6.4c0.3,1.7,1.1,2.5,1.1,2.5s-1.8,0.9-2.2,1.9 c-0.4,1-0.8,1.8-0.8,1.8S6,32.8,6.1,31.8s0.9-3.3,1.6-4.4C8.5,26.1,10.3,23.7,10.3,23.7z M15.5,47.9c0,0,0.7,0.199,1.2,0.5 c0.5,0.3,0.8,0.699,1.6,1.5c0.8,0.899,1.1,1.199,1.1,1.699l-3.8,0.2L15.5,47.9z M12.9,43.3L13,39.9c0,0,0.6,0.5,1,0.899 c0.5,0.3,1,0.9,1,0.9s0.2,0.2,0.3,0.3c0.2,0.1,0.3,0.5,0.3,0.5l0.3,1L12.9,43.3z"/><path fill="#231F20" d="M26.5,35.9c0,0-7.7-3-9.7-3.8c-2.1-0.8-3.3-1.7-3.5-1.7c-0.2,0-0.9,0.7-1,2.1c-0.1,1.3,0.5,3.5,1.9,4.8 c1.4,1.3,4.8,2.9,5.1,3.101c0.3,0.199,0.2-0.101,0.3-0.4s0.5-0.6,0.5-0.6l0.7-0.5c0,0,0.7,0.5,0.7-0.101 c0-0.6,0.2-1.399,0.2-1.399s0.3,0.1,0.6-0.2c0.3-0.3,0.5-0.2,0.5-0.5s0.1-0.5,0.3-0.5C23.3,36.2,25.2,35.6,26.5,35.9z"/><path fill="#D61F39" d="M33,50.9c-0.7,3.1-5.5,5.6-5.5,5.6l-0.1-0.9c0,0,0.1-0.3,0.2-0.6s-0.1-0.6-0.1-0.6s-0.5,0.1-0.8,0.1 c-0.3,0,0.1-0.3,0.1-0.6c0-0.301-0.1-0.301-0.1-0.301s-0.5,0.2-1,0.301C25.2,54.1,25,54,25,54s1.8-2.2,2.7-4c0.9-1.8-0.5-3-0.5-3 s-0.2,0.5-0.3,0.9c-0.1,0.5-1.1,1.1-1.1,1.1c0.1-0.8,0.1-1.3-0.2-2.7c-0.3-1.399-0.2-1.2-1.5-2.5c-1.3-1.3-3.8-2.8-3.8-2.8 s0.1-0.7,0.2-0.9C20.7,40,21,40,21,40s0.5-0.1,0.7-0.2c0.3-0.1,0.5-0.5,0.5-0.5s0-0.5,0-0.7c0-0.3,0.7-0.6,0.7-0.6 s0.3-0.2,0.6-0.2c0.3-0.1,0.3-0.2,0.3-0.7s0.6-0.199,1-0.3c0.4-0.1,2.1-0.1,2.1-0.1c1.5,0,4.6,1.899,5.9,5.7 C34.3,46.1,33.6,48.2,33,50.9z"/><circle cx="10.6" cy="17.8" r=".7" fill="#FFF"/><path fill="#D61F39" d="M8.2,23.2c-0.5,0.2-1.6,0.1-1.4,0.9c0.2,0.8,0.8,1,1.1,0.5C8.3,24,8.2,23.2,8.2,23.2z"/><g><g><polygon fill="#FAD432" points="12.3 15.2 12.1 15.7 22.6 19.6"/></g><g><polygon fill="#FAD432" points="12.4 15.2 12.2 15.7 22.9 19.2"/></g><g><polygon fill="#FAD432" points="12.3 15.2 12.1 15.7 22.9 18.6"/></g><g><polygon fill="#FAD432" points="12.4 15.1 12.2 15.7 23.1 18.2"/></g><g><polygon fill="#FAD432" points="12.1 15.4 11.8 15.9 21.6 21.4"/></g><g><polygon fill="#FAD432" points="12.2 15.4 11.9 15.9 21.9 21"/></g><g><polygon fill="#FAD432" points="12.1 15.4 11.8 15.9 22 20.5"/></g><g><polygon fill="#FAD432" points="12.2 15.4 11.9 15.9 22.3 20"/></g><g><polygon fill="#FAD432" points="12 15.4 12.2 14.9 1.3 12.4"/></g><g><polygon fill="#FAD432" points="11.9 15.5 12.1 14.9 1 12.9"/></g><g><polygon fill="#FAD432" points="12.1 15.4 12.2 14.9 1.1 13.4"/></g><g><polygon fill="#FAD432" points="12 15.5 12.1 14.9 .9 13.9"/></g><g><polygon fill="#FAD432" points="12.3 15.2 12.2 15.7 23.2 17.6"/></g><g><polygon fill="#FAD432" points="12.4 15.1 12.3 15.7 23.4 17.1"/></g><g><polygon fill="#FAD432" points="12.2 15.2 12.2 15.7 23.3 16.5"/></g><g><polygon fill="#FAD432" points="12.3 15.1 12.3 15.7 23.5 16"/></g><g><polygon fill="#FAD432" points="12.2 15.2 12.2 15.7 23.4 15.5"/></g><g><polygon fill="#FAD432" points="12.3 15.1 12.3 15.7 23.5 15"/></g><g><polygon fill="#FAD432" points="12.1 15.2 12.2 15.7 23.3 14.5"/></g><g><polygon fill="#FAD432" points="12.2 15.1 12.3 15.7 23.3 14"/></g><g><polygon fill="#FAD432" points="12.1 15.1 12.2 15.7 23.2 13.4"/></g><g><polygon fill="#FAD432" points="12.2 15.1 12.3 15.6 23.2 12.8"/></g><g><polygon fill="#FAD432" points="12.1 15.2 12.2 15.7 22.9 12.4"/></g><g><polygon fill="#FAD432" points="12.2 15.1 12.3 15.6 22.9 11.9"/></g><g><polygon fill="#FAD432" points="11.9 15.1 12.1 15.7 22.4 11.4"/></g><g><polygon fill="#FAD432" points="11.9 15 12.1 15.6 22.3 10.9"/></g><g><polygon fill="#FAD432" points="11.8 15.1 12.1 15.7 22 10.5"/></g><g><polygon fill="#FAD432" points="11.9 15.1 12.1 15.6 21.9 10"/></g><g><polygon fill="#FAD432" points="11.8 15.1 12.1 15.6 21.5 9.5"/></g><g><polygon fill="#FAD432" points="11.9 15 12.2 15.5 21.3 9"/></g><g><polygon fill="#FAD432" points="11.8 15.2 12.1 15.6 20.9 8.7"/></g><g><polygon fill="#FAD432" points="11.8 15.1 12.2 15.5 20.7 8.2"/></g><g><polygon fill="#FAD432" points="11.7 15.2 12.1 15.6 20.2 7.9"/></g><g><polygon fill="#FAD432" points="11.8 15.1 12.2 15.5 19.9 7.5"/></g><g><polygon fill="#FAD432" points="11.7 15.2 12.1 15.6 19.5 7.2"/></g><g><polygon fill="#FAD432" points="11.7 15.1 12.2 15.5 19.2 6.8"/></g><g><polygon fill="#FAD432" points="11.7 15.2 12.1 15.6 18.6 6.4"/></g><g><polygon fill="#FAD432" points="11.7 15.1 12.2 15.5 18.3 6.1"/></g><g><polygon fill="#FAD432" points="11.7 15.3 12.2 15.6 17.8 5.9"/></g><g><polygon fill="#FAD432" points="11.7 15.2 12.2 15.5 17.4 5.5"/></g><g><polygon fill="#FAD432" points="11.5 15.2 12 15.5 16.8 5.3"/></g><g><polygon fill="#FAD432" points="11.5 15.1 12 15.3 16.4 5"/></g><g><polygon fill="#FAD432" points="11.5 15.2 12 15.5 15.9 4.9"/></g><g><polygon fill="#FAD432" points="11.5 15.1 12 15.3 15.5 4.7"/></g><g><polygon fill="#FAD432" points="11.5 15.2 12.1 15.4 14.8 4.5"/></g><g><polygon fill="#FAD432" points="11.5 15.1 12 15.3 14.4 4.3"/></g><g><polygon fill="#FAD432" points="11.5 15.3 12.1 15.4 13.8 4.3"/></g><g><polygon fill="#FAD432" points="11.5 15.2 12 15.3 13.4 4.1"/></g><g><polygon fill="#FAD432" points="11.5 15.3 12.1 15.4 12.8 4.2"/></g><g><polygon fill="#FAD432" points="11.4 15.2 12 15.3 12.3 4.1"/></g><g><polygon fill="#FAD432" points="11.5 15.4 12.1 15.4 11.8 4.2"/></g><g><polygon fill="#FAD432" points="11.4 15.3 12 15.3 11.3 4.1"/></g><g><polygon fill="#FAD432" points="11.5 15.4 12.1 15.3 10.7 4.2"/></g><g><polygon fill="#FAD432" points="11.4 15.3 12 15.2 10.2 4.2"/></g><g><polygon fill="#FAD432" points="11.5 15.4 12.1 15.3 9.6 4.4"/></g><g><polygon fill="#FAD432" points="11.4 15.3 12 15.2 9.1 4.4"/></g><g><polygon fill="#FAD432" points="11.4 15.6 12 15.5 8.7 4.8"/></g><g><polygon fill="#FAD432" points="11.4 15.6 11.9 15.4 8.2 4.8"/></g><g><polygon fill="#FAD432" points="11.5 15.7 12 15.5 7.7 5.1"/></g><g><polygon fill="#FAD432" points="11.4 15.6 11.9 15.4 7.2 5.2"/></g><g><polygon fill="#FAD432" points="11.4 15.7 12 15.4 6.7 5.6"/></g><g><polygon fill="#FAD432" points="11.4 15.6 11.9 15.4 6.2 5.7"/></g><g><polygon fill="#FAD432" points="11.5 15.7 12 15.4 5.8 6.1"/></g><g><polygon fill="#FAD432" points="11.4 15.7 11.9 15.4 5.3 6.3"/></g><g><polygon fill="#FAD432" points="11.5 15.8 12 15.4 5 6.7"/></g><g><polygon fill="#FAD432" points="11.4 15.7 11.9 15.4 4.5 6.9"/></g><g><polygon fill="#FAD432" points="11.5 15.8 12 15.4 4.2 7.4"/></g><g><polygon fill="#FAD432" points="11.4 15.8 11.9 15.4 3.7 7.6"/></g><g><polygon fill="#FAD432" points="11.5 15.8 11.9 15.4 3.4 8.1"/></g><g><polygon fill="#FAD432" points="11.4 15.8 11.8 15.4 3 8.5"/></g><g><polygon fill="#FAD432" points="11.6 15.8 11.9 15.4 2.7 8.9"/></g><g><polygon fill="#FAD432" points="11.5 15.8 11.8 15.4 2.4 9.3"/></g><g><polygon fill="#FAD432" points="11.7 15.8 12 15.3 2.2 9.9"/></g><g><polygon fill="#FAD432" points="11.8 15.8 12 15.3 2 10.4"/></g><g><polygon fill="#FAD432" points="11.7 15.8 11.9 15.3 1.6 10.8"/></g><g><polygon fill="#FAD432" points="11.8 15.8 12 15.3 1.5 11.4"/></g><g><polygon fill="#FAD432" points="11.7 15.9 11.9 15.3 1.3 11.8"/></g><path fill="#FAD432" d="M16.2,18.1c-0.5-0.2-2.9-1.5-3.8-2s-1.9-0.6-2.6-0.7c-0.7-0.1-1.6-0.2-2-0.4c-0.5-0.2-0.7-0.6-0.7-0.6 s2.6-0.6,2.7-0.6c0.2,0.1,2.9,1.1,3.2,1.3c0.3,0.2,3.5,3.2,3.5,3.2L16.2,18.1z"/></g></g></switch></svg>