<svg xmlns="http://www.w3.org/2000/svg" id="Layer_1" width="70" height="70" x="0" y="0" version="1.1" viewBox="0 0 70 70" xml:space="preserve" style="enable-background:new 0 0 70 70"><style type="text/css">.st0{fill:#02339e}</style><g id="Logo"><g><path d="M63,59.4c-1,0-1.9-0.8-1.9-1.9c0-1,0.9-1.9,1.9-1.9c1,0,1.9,0.8,1.9,1.9C64.9,58.6,64,59.4,63,59.4 M63,55.4 c-1.2,0-2.2,1-2.2,2.2c0,1.2,1,2.2,2.2,2.2c1.2,0,2.2-1,2.2-2.2C65.2,56.4,64.3,55.4,63,55.4" class="st0"/><path d="M62.9,57.3h-0.4v-0.6h0.6c0.3,0,0.6,0,0.6,0.3C63.8,57.4,63.2,57.3,62.9,57.3 M64.1,57c0-0.5-0.4-0.6-0.9-0.6 h-1v2.4h0.3v-1.1h0.4l0.7,1.1h0.4l-0.7-1.1C63.8,57.6,64.1,57.5,64.1,57" class="st0"/><path d="M48.9,59.8c0.4-1.2,0.8-2.4,1.1-3.7c0.6-2.6,0.9-5.2,0.9-8c0-1.6-0.1-3.1-0.3-4.6c-0.2,2.2-0.5,4.2-0.5,4.2 c0.1,0.3,0.3,0.8,0.3,1.1l0,0c-0.2,2.3-0.7,4.5-1.3,6.7c-0.3-1.1-0.7-2.1-0.7-2.2c0,0,0,0,0,0c-0.8,2.1-2,4.6-3,6.6H48.9z" class="st0"/><path d="M41.6,59.8h2c5.7-8.4,6-15.9,6-17.4c0-2.7-0.5-5.2-1.2-7.2c0,0-1.2-3.1-3-5.8c0.2,0.6,0.6,1.8,0.8,2.9 c0,0.1,0,0.1,0,0.2c0.4,0.6,2,3.5,2.2,6.7c0,0,0,0,0,0s-1.2-1.6-2-2.7c0,1.7-0.3,3.5-0.6,5.2c0,0,1.7,2,2.5,3.3 c0,0-0.5,2.8-1.6,5.5C45.5,49,44,47.4,44,47.4c-0.9,2.1-1.9,4.2-3.1,6.2c0,0,2.2,2.5,2.7,3.3C42.9,57.9,42.3,58.8,41.6,59.8z" class="st0"/><path d="M34.4,59.8c3.8-4.2,7-9.2,9-14.6c1.7-4.6,2.6-10.3,1.1-15.3c-0.1-0.3-0.2-0.7-0.3-1c-0.5-1.2-1.1-2.3-1.8-3.2 c-1.8-2-3.9-3.8-6.1-5.4c0.3,0.4,0.6,0.9,0.9,1.3c0,0,2.7,2,4.3,4.1c-2-1.5-3.2-2-3.3-2.1c0,0,0,0,0,0c0.8,1.9,1,3.5,1,3.5 c0,0,2.4,1.3,4.6,3.2c0.3,1.4,0.4,2.8,0.4,4.3c-2.2-1.9-4.7-3.4-4.7-3.4c0,1.6-0.3,3.3-0.6,4.9c0,0,2.4,1.5,4.7,3.7 c0,0-0.7,3-1.8,5.4c-2.2-2.1-4.4-3.7-4.6-3.8c0,0-1.1,2.9-2.9,5.8c2.2,2,4.4,4,4.4,4c-1.3,2-2.8,3.9-4.3,5.7l0,0l-4-4 c-1.6,2-3.4,3.9-5.3,5.7c0.1,0.1,0.9,1,1.2,1.4H34.4z" class="st0"/><path d="M35.5,20.8c-0.3-0.4-0.6-0.7-0.9-1c-0.3-0.3-0.6-0.5-0.9-0.8c-3.3-2.5-9.5-3.8-9.5-3.8 c0.6,0.3,1.1,0.6,1.1,0.6c0,0,2.5,0.6,4.7,1.7c0,0-2-0.5-3.3-0.6c0.5,0.5,1,1,1.5,1.6c0,0,4.1,0.7,5.9,1.7c0,0,0.9,0.9,1.6,2.4 c-2.8-1.1-6-1.7-6-1.7c0.4,0.9,0.7,2,0.9,3c0,0,3.5,0.9,6.1,2.1c0.2,1.2,0.3,2.5,0.3,3.8c-3.1-1.6-6.2-2.5-6.2-2.5 c-0.1,1.3-0.3,2.7-0.6,4.2c0,0,4.2,1.9,6.1,3c-0.4,1.7-1,3.3-1.7,4.9c-2.9-1.9-6-3.6-6-3.6c-0.8,1.8-2.7,4.9-2.7,4.9l0,0v0l0,0 c0,0,3.2,2.2,5.6,4.1c-1.2,1.8-2.6,3.6-4,5.2c-0.5-0.5-5.1-4.6-5.1-4.6c-1.4,1.6-3,3.2-4.7,4.7c0,0,0,0,0,0l4.5,5.1c0,0,0,0,0,0 l0,0c-2.9,2.4-5.8,4.2-5.8,4.2l-3.7-5.3c0,0-2.6,2-7.1,4.1v1.5h14.6C36.4,47.5,42.1,29.9,35.5,20.8z" class="st0"/><path d="M27.2,19c-4-5.4-10.4-4.7-12.2-4.4c-2.1,0.3-3.6,0.7-3.6,0.7c0.5,0,1.1,0.1,1.5,0.2c0.3-0.1,3.2-0.7,5.4-0.5 c0,0,0,0,0,0c-1.6,0.2-3.7,0.8-3.9,0.9c0,0,0,0,0,0c0,0,0,0,0,0c0.1,0,0.7,0.2,1.5,0.7c0.2-0.1,3.1-0.8,5.8-0.9v0c0,0,1,0.4,2,1.1 c-3.5,0-6.5,0.7-6.6,0.7c0.4,0.4,0.8,0.8,1.2,1.3c3.9-0.6,7.2-0.3,7.2-0.3s0.5,0.6,0.7,0.9c0.3,0.4,0.5,0.8,0.7,1.3 c-4-0.5-7.8-0.1-7.8-0.1c0.3,0.7,0.4,1.4,0.5,2.2c0.4,0,3.8,0,8.1,0.8c0.1,1,0.2,2,0,3.1c-0.7-0.2-4.2-1.1-8.1-1.4 c-0.1,1-0.3,2-0.5,3c0.4,0.1,5.2,1.2,7.8,2.3c-0.1,0.2-0.1,0.3-0.2,0.5c-0.4,1.1-0.9,2.3-1.4,3.4c-2.1-1.1-7.4-3.1-7.4-3.1 c-0.5,1.2-1.2,2.4-1.9,3.5c0,0,4.5,2.6,6.6,4c-1,1.4-2.1,2.8-3.4,4.2c-1.6-1.4-5.5-4.4-5.8-4.7c-1.3,1.5-2.9,3.1-3.3,3.6l4.7,5.4 c0,0-0.1,0.1-0.1,0.1c-1,0.8-2.1,1.6-3,2.3c-0.8,0.5-1.5,1-1.7,1.1c-0.1-0.1-3.1-5-3.6-5.8c-0.3,0.3-0.7,0.5-1,0.7v10.1 c0.6-0.3,1.1-0.5,1.7-0.8c2.7-1.3,5.2-3,7.6-4.9c1.5-1.2,3.1-2.6,4.7-4.3c1.9-1.9,3.5-4,4.9-6C29.7,32.1,31,24.1,27.2,19z" class="st0"/><path d="M16.7,18.6c-1.9-2.2-5.1-3-8.8-2.4c-0.1,0-0.2,0-0.3,0c-0.3,0-0.6,0.1-0.9,0.2c-0.6,0.1-1,0.3-1.2,0.4v1.1 c0.4-0.3,0.7-0.6,1.1-0.8c0.7-0.2,1.5-0.3,2.2-0.3c-1.1,0.6-2.3,1.4-3.3,2.2v0.9l0,0c0,0,2.7-2.2,4.9-3.1c0.5,0,1,0.1,1.5,0.2 c-3.2,1.4-5.6,3.1-5.8,3.2c0.3,0.2,0.6,0.4,0.7,0.5c0,0,3.2-2,6.6-3.2c0.5,0.2,0.9,0.5,1.3,0.8c-3.8,1.1-7.4,2.9-7.4,2.9 c0.2,0.2,0.4,0.5,0.5,0.8c0,0,0,0,0.1,0c3.8-1.6,7.9-2.5,7.9-2.5c0.3,0.4,0.6,0.9,0.8,1.5c0,0-3.7,0.4-8.4,1.9 c0.2,0.7,0.3,1.1,0.3,1.1c0,0,4.4-1,8.6-1.1c0.1,0.7,0,1.4-0.1,2.2c-2.4-0.1-8.2,0.2-8.4,0.2c0,0,0,0.8-0.2,1.6 c0,0,4.2,0.1,8.1,0.9c-0.3,0.9-0.7,1.8-1.1,2.7c-2.6-0.8-6.5-1.7-7.5-1.9c-0.3,0.7-0.6,1.3-1,2c0,0,4.8,2.1,6.6,3.1h0l0,0 c-0.8,1.2-2.4,2.8-2.4,2.8c-0.5-0.3-0.9-0.7-1.3-1c-1.3-0.9-3.1-2.2-4.3-3c0,0,0,0,0,0v3.9L8,39.2c-0.8,0.7-1.6,1.3-2.5,1.8v2.3 c0,0,0.1,0,0.1-0.1c1.1-0.8,2.2-1.6,3.3-2.6C17.5,33.3,21,23.4,16.7,18.6z" class="st0"/><path d="M5.5,29.8c2.2-3.1,2.5-6.6,0.6-8.4c-0.2-0.2-0.4-0.3-0.6-0.4V29.8z" class="st0"/><path d="M16.6,18.5C34.5,18.5,49,33.1,49,51.1c0,3.6-0.6,7.3-1.8,10.7h8V12.2H5.5v8.3l0,0 C9.1,19.1,12.8,18.5,16.6,18.5z" class="st0"/></g></g></svg>