<svg xmlns="http://www.w3.org/2000/svg" id="Layer_1" width="70" height="70" x="0" y="0" version="1.1" viewBox="0 0 70 70" xml:space="preserve" style="enable-background:new 0 0 70 70"><style type="text/css">.st0{fill:#fdb515}</style><path d="M30.9,29L30.9,29l0.1,0.1c0.1,0.1,0.1,0.3,0.1,0.4c0,0.1-0.1,0.2-0.2,0.3c-0.1,0.1-0.3,0-0.4,0l-10.7-11 c-0.4-0.5-0.6-0.9-0.5-1.3c0.1-0.6,0.5-1.1,1.3-1.7c0.7-0.5,1.3-0.7,1.7-0.6c0.5,0.1,0.8,0.6,1.3,1.4L30.9,29z M12.9,29.9 c-0.4,0-0.7,0.1-0.9,0.3c-0.5,0.3-0.7,1-0.8,2c-0.1,0.9,0,1.5,0.3,1.8c0.3,0.4,0.9,0.4,1.8,0.4L28,34.5c0.3,0,0.5-0.2,0.5-0.4 c0-0.1-0.1-0.3-0.3-0.3l-14.8-3.8C13.2,29.9,13,29.9,12.9,29.9z M14.1,45.8c0.1,0,0.2,0,0.3,0h0c0.4,0,1-0.3,1.5-0.6L28.7,38 c0.2-0.1,0.3-0.4,0.2-0.6c-0.1-0.1-0.2-0.2-0.3-0.2c0,0,0,0-0.1,0l-14.7,4.1c-0.6,0.2-0.9,0.5-1.1,0.9c-0.2,0.5-0.1,1.2,0.3,2.1 C13.3,45.2,13.7,45.7,14.1,45.8z M12,39.9c0.3,0.2,0.8,0.3,1.4,0.2l14.9-3.8c0.1-0.1,0.2-0.2,0.2-0.3c0-0.2-0.2-0.4-0.5-0.4l-0.1,0 l-14.5,0.1c-0.9,0-1.5,0.1-1.8,0.4c-0.3,0.3-0.4,0.9-0.3,1.8C11.3,38.9,11.5,39.5,12,39.9z M28.6,13.7c-0.2-0.6-0.5-0.9-0.9-1.1 c-0.2-0.1-0.4-0.1-0.6-0.1c-0.4,0-0.9,0.1-1.5,0.4c-0.8,0.4-1.3,0.8-1.4,1.2c-0.1,0.5,0.1,1,0.5,1.8L32,28.7 c0.1,0.2,0.4,0.3,0.6,0.2c0.1-0.1,0.2-0.2,0.2-0.4L28.6,13.7z M15.9,24.8c-0.6-0.4-1.3-0.7-1.8-0.5c-0.4,0.1-0.8,0.6-1.2,1.4 c-0.4,0.9-0.5,1.6-0.3,2.1c0.2,0.4,0.5,0.7,1.1,0.9l14.8,4.1h0c0.2,0,0.3-0.1,0.3-0.2c0.1-0.1,0.1-0.2,0-0.3c0-0.1-0.1-0.2-0.3-0.3 l-0.1-0.1l0,0L15.9,24.8z M32.7,41.5c0-0.2-0.1-0.3-0.2-0.4c-0.2-0.1-0.5,0-0.6,0.3l-0.1,0.1l0,0l-7.1,12.6 c-0.4,0.8-0.7,1.3-0.5,1.8c0.1,0.4,0.6,0.8,1.4,1.2c0.6,0.3,1.1,0.4,1.5,0.4l0,0c0.2,0,0.4,0,0.6-0.1c0.4-0.2,0.7-0.6,0.9-1.1 L32.7,41.5z M58.8,32.1c-0.1-1-0.3-1.6-0.8-2c-0.3-0.2-0.8-0.3-1.4-0.2l-14.9,3.8c-0.1,0.1-0.2,0.2-0.2,0.3c0,0.2,0.2,0.4,0.5,0.4 l0.1,0l14.5-0.1c0.9,0,1.5-0.1,1.8-0.4C58.8,33.6,58.9,33,58.8,32.1z M54.1,45.2c0.5,0.3,1.1,0.6,1.5,0.6l0,0c0.1,0,0.2,0,0.3,0 c0.4-0.1,0.8-0.6,1.2-1.4c0.4-0.9,0.5-1.6,0.3-2.1c-0.2-0.4-0.6-0.7-1.1-0.9l-14.8-4.1c-0.2,0-0.3,0.1-0.4,0.2 c-0.1,0.2,0,0.5,0.3,0.6l0.1,0.1l0,0L54.1,45.2z M35,29.6c-3,0-5.4,2.4-5.4,5.4s2.4,5.4,5.4,5.4c3,0,5.4-2.4,5.4-5.4 S38,29.6,35,29.6z M19.3,52.5c0.1,0.6,0.5,1.1,1.3,1.7c0.7,0.5,1.3,0.7,1.7,0.6c0.5-0.1,0.8-0.6,1.3-1.4L31,40.8 c0.1-0.2,0.1-0.5-0.1-0.6c0,0-0.1,0-0.2,0c-0.1,0-0.2,0-0.3,0.1L19.8,51.2C19.4,51.6,19.2,52.1,19.3,52.5z M37.3,28.5 c0,0.2,0.1,0.3,0.2,0.4c0.2,0.1,0.5,0,0.6-0.3l0.1-0.1l0,0l7.1-12.6c0.4-0.8,0.7-1.3,0.5-1.8c-0.1-0.4-0.6-0.8-1.4-1.2 c-0.9-0.4-1.6-0.5-2.1-0.3c-0.4,0.2-0.7,0.6-0.9,1.1L37.3,28.5z M60,60L60,60c0.1-0.3,0.7-1.7,1.1-3.3c-1.5,0.6-2.8,0.8-3.9,0.5 c0.3,1.1,0.1,2.4-0.5,3.9C58.3,60.6,59.6,60.1,60,60L60,60z M26.9,65.2c-0.8,0.8-2,1.3-3.6,1.5c1.2,1.2,2.3,2.1,2.5,2.3l0,0l0.1,0 c0.3,0,1.7-0.3,3.4-0.7C28,67.4,27.2,66.3,26.9,65.2z M8.5,54.9c2.4,1.2,4.1,1.4,4.9,0.6L17,52c-0.8-0.2-1.6-0.8-2.3-1.8 c-0.7-1.1-1-2-0.8-2.8c0-0.1,0-0.2,0.1-0.3c-0.1,0-0.2,0-0.3-0.1c-0.8-0.3-1.5-0.9-2-2.1c-0.5-1.1-0.7-2-0.4-2.9l-4.7,1.3 c-1.4,0.4-1.8,2.7-1.9,4.5c-0.1,2,0.1,4.1,0.1,4.5l0,0.1l0.4,0.3C5.7,53.2,7.1,54.1,8.5,54.9z M41.9,63.9l-1.2-4.8 c-0.6,0.6-1.5,1-2.7,1.1c-1.3,0.1-2.2-0.1-2.8-0.7c-0.1-0.1-0.1-0.1-0.2-0.2c-0.1,0.1-0.1,0.1-0.2,0.2c-0.6,0.6-1.5,0.8-2.8,0.7 c-1.2-0.1-2.1-0.4-2.7-1.1l-1.2,4.8c-0.3,1.4,1.4,2.9,3,4c0.1,0.1,0.2,0.1,0.3,0.2c1.3,0.8,2.6,1.5,3.2,1.8L35,70l0.1-0.1 c0.5-0.2,2.2-1,3.8-2.1C40.5,66.8,42.3,65.3,41.9,63.9z M55.9,24.2c-0.1,0-0.2,0-0.3,0c-0.4,0-1,0.3-1.5,0.6L41.3,32 c-0.2,0.1-0.3,0.4-0.2,0.6c0.1,0.1,0.2,0.2,0.4,0.2l14.7-4.1c0.6-0.2,0.9-0.5,1.1-0.9c0.2-0.5,0.1-1.2-0.3-2.1 C56.7,24.8,56.3,24.3,55.9,24.2z M46.7,66.7c-1.6-0.2-2.9-0.7-3.6-1.5c-0.3,1.1-1.1,2.1-2.4,3.1c1.6,0.5,3.1,0.7,3.4,0.7l0.1,0l0,0 C44.4,68.9,45.6,68,46.7,66.7z M23.3,3.3c1.6,0.2,2.9,0.7,3.6,1.5c0.3-1.1,1.1-2.1,2.4-3.1c-1.6-0.5-3.1-0.7-3.4-0.7l-0.1,0l0,0 C25.6,1.1,24.4,2,23.3,3.3z M49.5,4.5c-0.5,0-1,0-1.5,0c-1.8,0.1-4.1,0.6-4.6,1.9l-1.3,4.8c0.8-0.2,1.8-0.1,2.9,0.4 c1.2,0.6,1.9,1.2,2.1,2c0,0.1,0,0.2,0.1,0.3c0.1,0,0.2-0.1,0.3-0.1c0.2,0,0.3-0.1,0.5-0.1c0.7,0,1.4,0.3,2.3,0.9 c1,0.7,1.6,1.4,1.8,2.3l3.4-3.5c1-1,0.2-3.2-0.6-4.9C54,6.7,52.8,5,52.5,4.7l0,0l-0.2,0C51.9,4.6,50.8,4.5,49.5,4.5z M43.1,4.8 c0.8-0.8,2-1.3,3.6-1.5c-1.2-1.2-2.3-2.1-2.5-2.3l0,0l-0.1,0c-0.3,0-1.8,0.3-3.4,0.7C42,2.6,42.8,3.7,43.1,4.8z M10,10L10,10 c-0.1,0.3-0.7,1.7-1.1,3.3c1.5-0.6,2.8-0.8,3.9-0.5c-0.3-1.1-0.1-2.4,0.5-3.9C11.7,9.4,10.4,9.9,10,10L10,10z M41.4,56.3 c0.2,0.6,0.5,0.9,0.9,1.1c0.2,0.1,0.4,0.1,0.6,0.1c0.4,0,0.9-0.1,1.5-0.4c0.8-0.4,1.3-0.8,1.4-1.2c0.1-0.5-0.1-1-0.5-1.8L38,41.3 c-0.1-0.2-0.3-0.3-0.4-0.3c-0.1,0-0.1,0-0.2,0c-0.1,0.1-0.2,0.2-0.2,0.4L41.4,56.3z M28.1,6.1l1.2,4.8c0.6-0.6,1.5-1,2.7-1.1 c1.3-0.1,2.2,0.1,2.8,0.7c0.1,0.1,0.1,0.1,0.2,0.2c0.1-0.1,0.1-0.1,0.2-0.2c0.6-0.6,1.5-0.8,2.8-0.7c1.2,0.1,2.1,0.4,2.7,1.1 l1.2-4.8c0.3-1.4-1.4-2.9-3-3.9c-1.4-0.9-2.8-1.6-3.6-2L35,0l-0.1,0.1c-0.5,0.2-2.2,1-3.8,2.1C29.5,3.2,27.7,4.7,28.1,6.1z M69.1,44.2L69.1,44.2l0-0.1c0-0.3-0.3-1.8-0.7-3.4c-1,1.3-2.1,2.1-3.1,2.4c0.8,0.8,1.3,2,1.5,3.6C68,45.6,68.9,44.4,69.1,44.2z M22,4.6c-0.5,0-1,0-1.5,0c-1.4,0-2.7,0.1-3,0.2l-0.1,0l-0.1,0.1c-0.3,0.4-1.4,2-2.3,3.7c-0.8,1.7-1.6,3.9-0.6,4.9L18,17 c0.2-0.8,0.8-1.6,1.8-2.3c1.1-0.7,2-1,2.8-0.8c0.1,0,0.2,0,0.3,0.1c0-0.1,0-0.2,0.1-0.3c0.2-0.8,0.9-1.5,2.1-2 c1.1-0.5,2-0.7,2.9-0.4l-1.3-4.8C26.1,5.1,23.9,4.7,22,4.6z M70,35L70,35c-0.2-0.4-1-2.3-2.2-4c-1.5-2.2-2.8-3.2-3.9-3l-4.8,1.2 c0.6,0.6,1,1.5,1.1,2.7c0.1,1.3-0.1,2.2-0.7,2.8c-0.1,0.1-0.1,0.1-0.2,0.2c0.1,0.1,0.1,0.1,0.2,0.2c0.6,0.6,0.8,1.5,0.7,2.8 c-0.1,1.2-0.4,2.1-1.1,2.7l4.8,1.2c0.1,0,0.2,0,0.3,0c1,0,2.3-1,3.6-3c1-1.5,1.8-3.1,2-3.7L70,35z M4.7,17.5L4.7,17.5 c0,0.4-0.3,2.5-0.1,4.5c0.1,1.8,0.6,4.1,1.9,4.5l4.8,1.3c-0.2-0.8-0.1-1.8,0.4-2.9c0.6-1.2,1.2-1.9,2-2.1c0.1,0,0.2,0,0.3-0.1 c0-0.1-0.1-0.2-0.1-0.3c-0.2-0.8,0.1-1.7,0.8-2.8c0.7-1,1.4-1.6,2.3-1.8l-3.5-3.4c-0.8-0.8-2.5-0.6-4.9,0.6 C6.7,16,5.1,17.2,4.7,17.5L4.7,17.5z M65.3,17.5L65.3,17.5c-0.1-0.1-0.2-0.1-0.2-0.2c-0.6-0.4-2-1.4-3.6-2.2 c-2.4-1.2-4.1-1.4-4.9-0.6L53,18c0.8,0.2,1.6,0.8,2.3,1.8c0.7,1.1,1,2,0.8,2.8c0,0.1,0,0.2-0.1,0.3c0.1,0,0.2,0,0.3,0.1 c0.8,0.3,1.5,0.9,2,2.1c0.5,1.1,0.7,2,0.4,2.9l4.7-1.3c1.4-0.4,1.8-2.7,1.9-4.5C65.6,20,65.4,17.9,65.3,17.5L65.3,17.5z M66.7,23.3 c-0.2,1.6-0.7,2.9-1.5,3.6c1.1,0.3,2.1,1.1,3.1,2.4c0.5-1.6,0.7-3.1,0.7-3.4l0-0.1l0,0C68.9,25.6,68,24.4,66.7,23.3z M0.9,25.8 L0.9,25.8l0,0.1c0,0.3,0.3,1.8,0.7,3.4c1-1.3,2.1-2.1,3.1-2.4c-0.8-0.8-1.3-2-1.5-3.6C2,24.4,1.1,25.6,0.9,25.8z M60,10L60,10 c-0.3-0.1-1.7-0.7-3.3-1.1c0.6,1.5,0.8,2.8,0.5,3.9c0.3-0.1,0.7-0.1,1.1-0.1c0.8,0,1.8,0.2,2.8,0.6C60.6,11.7,60.1,10.4,60,10L60,10 z M65.3,52.5L65.3,52.5c0-0.4,0.2-2.5,0.1-4.5c-0.1-1.8-0.6-4.1-1.9-4.6l-4.8-1.3c0.2,0.8,0.1,1.8-0.4,2.9c-0.6,1.2-1.2,1.9-2,2.1 c-0.1,0-0.2,0-0.3,0.1c0,0.1,0.1,0.2,0.1,0.3c0.2,0.8-0.1,1.7-0.8,2.8c-0.7,1-1.4,1.6-2.3,1.8l3.5,3.4c0.8,0.8,2.5,0.6,4.9-0.6 C63.3,53.9,65,52.8,65.3,52.5L65.3,52.5z M48,65.4c0.5,0,1,0,1.5,0l0,0c1.4,0,2.7-0.1,3-0.2l0.1,0l0,0c0,0,0.1-0.1,0.1-0.2 c0.4-0.6,1.4-2,2.2-3.6c0.8-1.7,1.6-3.9,0.6-4.9L52,53c-0.2,0.8-0.8,1.6-1.8,2.3c-1.1,0.7-2,1-2.8,0.8c-0.1,0-0.2,0-0.3-0.1 c0,0.1,0,0.2-0.1,0.3c-0.2,0.8-0.9,1.5-2.1,2c-1.1,0.5-2,0.7-2.9,0.4l1.3,4.7C43.9,64.9,46.1,65.3,48,65.4z M58,39.9 c0.5-0.3,0.7-1,0.8-2c0.1-0.9,0-1.5-0.3-1.8c-0.3-0.4-0.9-0.4-1.8-0.4L42,35.5c-0.3,0-0.5,0.2-0.5,0.4c0,0.1,0.1,0.3,0.3,0.3 l14.8,3.8C57.2,40.2,57.7,40.1,58,39.9z M10,60L10,60c0.3,0.1,1.7,0.7,3.3,1.1c-0.6-1.5-0.8-2.8-0.5-3.9c-1.1,0.3-2.4,0.1-3.9-0.5 C9.4,58.3,9.9,59.6,10,60L10,60z M3.3,46.7c0.2-1.6,0.7-2.9,1.5-3.6c-1.1-0.3-2.1-1.1-3.1-2.4c-0.5,1.6-0.7,3.1-0.7,3.4l0,0.1l0,0 C1.1,44.4,2,45.6,3.3,46.7z M17.4,65.1l0.1,0.2l0.1,0c0.3,0,1.5,0.2,3,0.2c0.5,0,1,0,1.4,0c1.8-0.1,4.1-0.6,4.6-1.9l1.3-4.8 c-0.8,0.2-1.8,0.1-2.9-0.4c-1.2-0.6-1.9-1.2-2.1-2c0-0.1,0-0.2-0.1-0.3c-0.1,0-0.2,0.1-0.3,0.1c-0.8,0.2-1.7-0.1-2.8-0.8 c-1-0.7-1.6-1.4-1.8-2.3l-3.4,3.5c-1,1-0.2,3.2,0.6,4.9C16,63.1,17,64.6,17.4,65.1z M35.9,28.5c0.1,0,0.3-0.1,0.3-0.3l3.8-14.8 c0.1-0.6,0-1.1-0.2-1.4c-0.3-0.5-1-0.7-2-0.8c-0.2,0-0.3,0-0.5,0c-0.6,0-1.1,0.1-1.4,0.4c-0.4,0.3-0.4,0.9-0.4,1.8L35.5,28 C35.6,28.3,35.7,28.5,35.9,28.5z M52.5,19.3c-0.4,0-0.9,0.1-1.3,0.5l-11,10.7c-0.1,0.1-0.1,0.3,0,0.4c0.1,0.2,0.4,0.2,0.7,0.1 l0.1-0.1l0,0l12.5-7.4c0.8-0.4,1.2-0.8,1.4-1.3c0.1-0.4-0.1-1-0.6-1.7C53.6,19.8,53.1,19.3,52.5,19.3z M33.9,11.5 c-0.3-0.3-0.9-0.4-1.8-0.3c-1,0.1-1.6,0.3-2,0.8c-0.2,0.3-0.3,0.8-0.2,1.4l3.8,14.9c0.1,0.1,0.2,0.2,0.3,0.2c0.2,0,0.4-0.2,0.4-0.5 l0-0.1l-0.1-14.5C34.3,12.5,34.3,11.9,33.9,11.5z M46.4,53.4c0.4,0.8,0.8,1.2,1.3,1.4c0.1,0,0.1,0,0.2,0c0.4,0,0.9-0.2,1.5-0.6 c0.8-0.6,1.2-1.1,1.3-1.7c0-0.4-0.1-0.9-0.5-1.3l-10.7-11c-0.1-0.1-0.3-0.1-0.4,0c-0.1,0-0.1,0.1-0.2,0.3c0,0.1,0,0.3,0.1,0.4 l0.1,0.1l0,0L46.4,53.4z M0,35l0.1,0.1c0.2,0.5,1,2.2,2.1,3.8c1.3,2,2.6,3,3.6,3l0,0c0.1,0,0.2,0,0.4,0l4.8-1.2 c-0.6-0.6-1-1.5-1.1-2.7c-0.1-1.3,0.1-2.2,0.7-2.8c0.1-0.1,0.1-0.1,0.2-0.2c-0.1-0.1-0.1-0.1-0.2-0.2C10,34.2,9.7,33.3,9.8,32 c0.1-1.2,0.4-2.1,1.1-2.7l-4.8-1.2c-0.1,0-0.2,0-0.3,0c-1,0-2.3,1-3.6,3c-1.1,1.6-1.9,3.3-2.1,3.8L0,35z M50.7,17.5 c-0.1-0.6-0.5-1.1-1.3-1.7c-0.6-0.4-1.1-0.6-1.5-0.6c-0.1,0-0.1,0-0.2,0c-0.5,0.1-0.8,0.6-1.3,1.4L39,29.2c-0.1,0.2-0.1,0.5,0.1,0.6 c0.1,0.1,0.3,0,0.4-0.1l10.7-10.9C50.6,18.4,50.8,17.9,50.7,17.5z M52.5,50.7c0.6-0.1,1.1-0.5,1.7-1.3c0.5-0.7,0.7-1.3,0.6-1.7 c-0.1-0.5-0.6-0.8-1.4-1.3L40.8,39c-0.1,0-0.2-0.1-0.3-0.1c-0.2,0-0.3,0.1-0.3,0.2c-0.1,0.1,0,0.3,0.1,0.4l10.9,10.7 C51.6,50.6,52.1,50.8,52.5,50.7z M36.1,58.5c0.3,0.2,0.7,0.4,1.4,0.4h0c0.1,0,0.3,0,0.5,0c1-0.1,1.6-0.3,2-0.8 c0.2-0.3,0.3-0.8,0.2-1.4l-3.8-14.9c-0.1-0.1-0.2-0.2-0.3-0.2c-0.2,0-0.4,0.2-0.4,0.5l0,0.1l0.1,14.5C35.7,57.5,35.7,58.1,36.1,58.5 z M17.5,19.3c-0.6,0.1-1.1,0.5-1.7,1.3c-0.5,0.7-0.7,1.3-0.6,1.7c0.1,0.5,0.6,0.8,1.4,1.3L29.2,31c0.1,0,0.2,0.1,0.3,0.1l0,0 c0.2,0,0.3-0.1,0.3-0.2c0.1-0.1,0-0.3-0.1-0.4L18.8,19.8c-0.4-0.3-0.8-0.5-1.2-0.5C17.6,19.3,17.5,19.3,17.5,19.3z M17.5,50.7 c0.4,0,0.9-0.1,1.3-0.5l11-10.7c0.1-0.1,0.1-0.3,0-0.4c-0.1-0.2-0.4-0.2-0.7-0.1L29,39.1l0,0l-12.5,7.4c-0.8,0.4-1.2,0.8-1.4,1.3 c-0.1,0.4,0.1,1,0.6,1.7C16.4,50.2,16.9,50.7,17.5,50.7z M34.1,41.5c-0.1,0-0.3,0.1-0.3,0.3l-3.8,14.8c-0.1,0.6,0,1.1,0.2,1.4 c0.3,0.5,1,0.7,2,0.8c0.9,0.1,1.5-0.1,1.8-0.3c0.4-0.3,0.4-0.9,0.4-1.8L34.5,42C34.4,41.7,34.3,41.5,34.1,41.5z" class="st0"/></svg>