<svg xmlns="http://www.w3.org/2000/svg" id="Layer_1" width="183" height="185" viewBox="0 0 183 185.33"><defs><style>
            .cls-1{fill:#00674e;}.cls-2{fill:none;stroke:#00674e;stroke-width:1.16px;}.cls-3{fill:#d1d3d4;}.cls-4{fill:#fff;}.cls-5{fill:#231f20;}
        </style></defs><path d="M23.55,77.68V90.3c0,3.3-.36,4.26-1.9,5s-2.82.82-8.42.82c-1.84,0-4.58,0-6-.08a8.06,8.06,0,0,1-3-.55C2.75,94.88,2,93.4,2,91V77.68H4.23v13a3.88,3.88,0,0,0,.63,2.5c.6.66,1.54.91,3.73.93l3.95.06,4.23-.08c2.47-.06,3.32-.28,3.9-.91s.66-1.18.66-3.1V77.68Z" class="cls-1"/><path d="M23.55,77.68V90.3c0,3.3-.36,4.26-1.9,5s-2.82.82-8.42.82c-1.84,0-4.58,0-6-.08a8.06,8.06,0,0,1-3-.55C2.75,94.88,2,93.4,2,91V77.68H4.23v13a3.88,3.88,0,0,0,.63,2.5c.6.66,1.54.91,3.73.93l3.95.06,4.23-.08c2.47-.06,3.32-.28,3.9-.91s.66-1.18.66-3.1V77.68Z" class="cls-2"/><polygon points="45.72 94.12 45.72 95.95 29.04 95.95 29.04 77.68 31.26 77.68 31.26 94.12 45.72 94.12" class="cls-1"/><polygon points="45.72 94.12 45.72 95.95 29.04 95.95 29.04 77.68 31.26 77.68 31.26 94.12 45.72 94.12" class="cls-2"/><polygon points="57.16 95.95 54.97 95.95 54.97 79.52 45.74 79.52 45.74 77.68 66.46 77.68 66.46 79.52 57.16 79.52 57.16 95.95" class="cls-1"/><polygon points="57.16 95.95 54.97 95.95 54.97 79.52 45.74 79.52 45.74 77.68 66.46 77.68 66.46 79.52 57.16 79.52 57.16 95.95" class="cls-2"/><rect x="69.37" y="77.68" width="2.22" height="18.28" class="cls-1"/><rect x="69.37" y="77.68" width="2.22" height="18.28" class="cls-2"/><polygon points="92.67 95.95 90.91 95.95 79.47 79.52 79.47 95.95 77.27 95.95 77.27 77.68 80.9 77.68 91.79 93.35 102.77 77.68 106.34 77.68 106.34 95.95 104.11 95.95 104.11 79.52 92.67 95.95" class="cls-1"/><polygon points="92.67 95.95 90.91 95.95 79.47 79.52 79.47 95.95 77.27 95.95 77.27 77.68 80.9 77.68 91.79 93.35 102.77 77.68 106.34 77.68 106.34 95.95 104.11 95.95 104.11 79.52 92.67 95.95" class="cls-2"/><path d="M115.74,91.84,113.14,96H110.3l11.9-18.28h3.26l12,18.28h-2.8L132,91.84Zm8.09-12.54-7,10.7h14Z" class="cls-1"/><path d="M115.74,91.84,113.14,96H110.3l11.9-18.28h3.26l12,18.28h-2.8L132,91.84Zm8.09-12.54-7,10.7h14Z" class="cls-2"/><polygon points="146.87 95.95 144.68 95.95 144.68 79.52 135.46 79.52 135.46 77.68 156.18 77.68 156.18 79.52 146.87 79.52 146.87 95.95" class="cls-1"/><polygon points="146.87 95.95 144.68 95.95 144.68 79.52 135.46 79.52 135.46 77.68 156.18 77.68 156.18 79.52 146.87 79.52 146.87 95.95" class="cls-2"/><polygon points="163.42 85.56 181.12 85.56 181.12 87.39 163.42 87.39 163.42 94.09 182.01 94.09 182.01 95.95 160.85 95.95 160.85 77.68 181.78 77.68 181.78 79.52 163.42 79.52 163.42 85.56" class="cls-1"/><polygon points="163.42 85.56 181.12 85.56 181.12 87.39 163.42 87.39 163.42 94.09 182.01 94.09 182.01 95.95 160.85 95.95 160.85 77.68 181.78 77.68 181.78 79.52 163.42 79.52 163.42 85.56" class="cls-2"/><path d="M91.94,67.44S47,68.57,45.21,68.79s.67-.89,5.9-1.22,35.38-1.91,40.05-2,.78,1.89.78,1.89" class="cls-3"/><path d="M68.67,71.33a3.16,3.16,0,1,1,3.15,3,3.05,3.05,0,0,1-3.15-3" class="cls-3"/><rect x="71.46" y="67.48" width="1.31" height="1.64" class="cls-3"/><path d="M92.08,67.44S137,68.57,138.8,68.79s-.66-.89-5.89-1.22-35.38-1.91-40.06-2-.77,1.89-.77,1.89" class="cls-3"/><path d="M115.34,71.33a3.16,3.16,0,1,0-3.15,3,3.05,3.05,0,0,0,3.15-3" class="cls-3"/><rect x="111.25" y="67.48" width="1.31" height="1.64" class="cls-3"/><path d="M91.93,61.42c-1.56,0-8.75.15-9.14.2.49-.64,8.7-.89,9.09-.89s.05.69.05.69" class="cls-3"/><path d="M92.08,61.42c1.57,0,8.75.15,9.14.2-.49-.64-8.7-.89-9.08-.89s-.06.69-.06.69" class="cls-3"/><path d="M91.66,59.56a.35.35,0,0,1,.35-.34.34.34,0,0,1,.34.34v5.37a.35.35,0,0,1-.34.35.35.35,0,0,1-.35-.35Z" class="cls-3"/><path d="M85,71.59c0-3.8,3.13-7.63,7-7.63s7,3.83,7,7.63a7,7,0,0,1-14,0" class="cls-3"/><polygon points="88.56 66.49 87.2 68.75 91.72 68.75 91.72 66.49 88.56 66.49" class="cls-4"/><polygon points="92.37 66.49 92.37 68.75 97 68.75 95.64 66.49 92.37 66.49" class="cls-4"/><path d="M88,66.49h-1a8.25,8.25,0,0,0-1.36,2.26h1Z" class="cls-4"/><path d="M96.25,66.49l1.35,2.26h.83a8.25,8.25,0,0,0-1.36-2.26Z" class="cls-4"/><path d="M50.42,103.85h1.22l4.3,7.23H54.83l-.9-1.53h-5.8l-.9,1.53H46.12Zm.61.8-2.43,4.1h4.86Z" class="cls-5"/><path d="M57.08,103.85h1v7.23h-1Z" class="cls-5"/><path d="M60,103.85h5.79c2.09,0,2.42.69,2.42,2.05v.59c0,1-.58,1.3-1.33,1.37v0c1,.18,1.24.7,1.24,1.36v1.84h-.92V109.5c0-1.13-.55-1.27-1.44-1.27H60.93v2.85H60Zm5.68,3.58c1.09,0,1.55-.29,1.55-1.05v-.66c0-.81-.35-1.07-1.79-1.07H60.93v2.78Z" class="cls-5"/><path d="M74.52,108.81h.92v.51c0,.7.38,1,1.6,1h3c1.42,0,1.84-.3,1.84-1.33s-.36-1.14-1.58-1.14H78.48c-3,0-4-.18-4-2.1,0-1.65,1-2,3-2h2.11c2.43,0,3,.62,3,1.91v.25h-.92c0-1.15-.14-1.36-2.71-1.36H78c-1.89,0-2.56.1-2.56,1.29,0,.86.27,1.15,1.8,1.15h2.9c1.91,0,2.71.55,2.71,1.78v.46c0,1.78-1.46,1.91-2.91,1.91H77.21c-1.43,0-2.69-.25-2.69-1.83Z" class="cls-5"/><path d="M84.57,103.85h1V107h6.54v-3.11h1v7.23h-1v-3.32H85.55v3.32h-1Z" class="cls-5"/><path d="M95,103.85h1v5.4c0,.71.24,1.11,1.57,1.11h3.4c1.33,0,1.57-.4,1.57-1.11v-5.4h1v5.41c0,1.47-.74,1.9-2.58,1.9H97.57c-1.84,0-2.58-.43-2.58-1.9Z" class="cls-5"/><path d="M108.28,104.65h-3.66v-.8h8.3v.8h-3.66v6.43h-1Z" class="cls-5"/><path d="M116.92,104.65h-3.66v-.8h8.3v.8H117.9v6.43h-1Z" class="cls-5"/><path d="M122.69,103.85h1v6.43h5.62v.8h-6.6Z" class="cls-5"/><path d="M130.34,103.85h7.11v.8h-6.13V107h5.89v.8h-5.89v2.52h6.17v.8h-7.15Z" class="cls-5"/><path d="M139.76,106.41a1.16,1.16,0,0,0,.62.18c.36,0,.56-.19.56-.46s-.14-.39-.5-.53-.72-.39-.72-.77a.78.78,0,0,1,.88-.73,1.2,1.2,0,0,1,.59.13l-.09.29a1.07,1.07,0,0,0-.52-.13c-.36,0-.5.22-.5.4s.16.38.53.52.69.4.69.79-.31.78-.94.78a1.46,1.46,0,0,1-.69-.17Z" class="cls-5"/><path d="M144.05,105.66c0-.38-.05-.83,0-1.17h0c-.1.32-.21.66-.34,1l-.48,1.3h-.26l-.44-1.28c-.13-.38-.23-.73-.31-1.05h0c0,.34,0,.79,0,1.19l-.07,1.16h-.33l.18-2.69h.45l.46,1.3c.11.33.2.63.27.91h0c.07-.28.16-.57.28-.91l.48-1.3h.45l.17,2.69h-.34Z" class="cls-5"/></svg>