<svg xmlns="http://www.w3.org/2000/svg" id="UK" width="70" height="70" viewBox="0 0 70 70"><defs><style>.cls-1{fill:#fff}.cls-2{fill:#ba9653}</style></defs><title/><rect width="70" height="70" class="cls-1"/><path d="M65.6,34.6a37.08,37.08,0,0,0-9.3-8.3c0.5-2.3.7-4.4,0.9-6a33.94,33.94,0,0,0-.1-6.7L57,13.1,56.4,13a33.94,33.94,0,0,0-6.7-.1,55.7,55.7,0,0,0-6,.8,39.46,39.46,0,0,0-8.3-9.3L35,4.1l-0.4.3a37.08,37.08,0,0,0-8.3,9.3c-2.3-.5-4.4-0.7-6-0.9a33.94,33.94,0,0,0-6.7.1l-0.6.2v0.5a33.94,33.94,0,0,0-.1,6.7,39.82,39.82,0,0,0,.9,6,39.46,39.46,0,0,0-9.3,8.3L4.1,35l0.3,0.4a37.08,37.08,0,0,0,9.3,8.3,58.75,58.75,0,0,0-.9,6,33.94,33.94,0,0,0,.1,6.7L13,56.9,13.5,57a34,34,0,0,0,3.8.2c0.9,0,1.8,0,2.9-.1a39.82,39.82,0,0,0,6-.9,37.08,37.08,0,0,0,8.3,9.3l0.4,0.3,0.4-.3a37.08,37.08,0,0,0,8.3-9.3,58.75,58.75,0,0,0,6,.9c1.1,0.1,2.1.1,2.9,0.1a34,34,0,0,0,3.8-.2l0.5-.1,0.1-.5a33.94,33.94,0,0,0,.1-6.7,39.82,39.82,0,0,0-.9-6,41.35,41.35,0,0,0,9.4-8.3l0.3-.4ZM53.3,35a40.26,40.26,0,0,0,1.6-3.9A42.23,42.23,0,0,1,59.5,35a33.14,33.14,0,0,1-4.6,3.9A40.26,40.26,0,0,0,53.3,35M49.7,14.3a33.36,33.36,0,0,1,5.9.1,40,40,0,0,1-3.8,20.3,37.18,37.18,0,0,1-1.9,3.4,18.82,18.82,0,0,1-1.6,2.3l-0.2.2v0.3a26.59,26.59,0,0,1,.1,7.5,26.59,26.59,0,0,1-7.5-.1H40.4l-0.2.2c-0.6.4-1.3,0.9-1.9,1.3-0.6-.3-1.3-0.6-1.9-0.9a30.87,30.87,0,0,0,3.7-2.6,20.91,20.91,0,0,0,5.9.6l0.6-.1,0.1-.6a20.91,20.91,0,0,0-.6-5.9,33.25,33.25,0,0,0,3.3-5,30.06,30.06,0,0,0,1.7-3.6c3.3-8.1,2.7-14.7,2.6-15l-0.1-.6L53,16a33.11,33.11,0,0,0-14.6,2.5,12.81,12.81,0,0,0-2-1.1,44.68,44.68,0,0,1,13.3-3.1M49.8,41a5.5,5.5,0,0,1,.7-0.9,33.38,33.38,0,0,1,2.1,12.4,33.38,33.38,0,0,1-12.4-2.1l0.9-.6a27,27,0,0,0,8.2,0l0.5-.1,0.1-.5a42.19,42.19,0,0,0-.1-8.2M25.1,39.6A47.34,47.34,0,0,1,21.9,35,37,37,0,0,1,25,30.4l0.2-.3-0.1-.4a15.88,15.88,0,0,1-.6-5.1,19.5,19.5,0,0,1,5.1.6L30,25.3l0.3-.2A35.47,35.47,0,0,1,35,21.9a29.1,29.1,0,0,1,4.6,3.2l0.3,0.2,0.4-.1a15.88,15.88,0,0,1,5.1-.6,25.28,25.28,0,0,1-.6,5.1l-0.1.3,0.2,0.3A38.83,38.83,0,0,1,48.1,35a35.47,35.47,0,0,1-3.2,4.7l-0.3.3,0.1,0.4a15.88,15.88,0,0,1,.6,5.1,25.28,25.28,0,0,1-5.1-.6l-0.4-.1-0.3.2a28.51,28.51,0,0,1-4.6,3.1,35.47,35.47,0,0,1-4.7-3.2l-0.3-.2-0.4.1a15.88,15.88,0,0,1-5.1.6,19.5,19.5,0,0,1,.6-5.1l0.1-.4V39.6ZM49.7,20.8l-0.1-.5-0.5-.1a26.78,26.78,0,0,0-8.2,0L40,19.6a35.73,35.73,0,0,1,12.4-2.1,33.38,33.38,0,0,1-2.1,12.4,5.5,5.5,0,0,0-.7-0.9,22.24,22.24,0,0,0,.1-8.2M35,16.6A32,32,0,0,0,31.1,15,42.23,42.23,0,0,1,35,10.4,27.85,27.85,0,0,1,38.9,15c-1.3.5-2.6,1-3.9,1.6M35,5.9A40.33,40.33,0,0,1,42.2,14c-0.6.2-1.2,0.3-1.8,0.5a23.79,23.79,0,0,0-4.9-5.6L35,8.5l-0.5.4a29.33,29.33,0,0,0-4.9,5.7,12.09,12.09,0,0,0-1.8-.5A38.84,38.84,0,0,1,35,5.9M14.3,14.4a40.71,40.71,0,0,1,20.3,3.7A39,39,0,0,1,38.1,20c0.8,0.5,1.5,1,2.2,1.5l0.2,0.2h0.3a26.59,26.59,0,0,1,7.5-.1,26.59,26.59,0,0,1-.1,7.5v0.3l0.2,0.2a13.73,13.73,0,0,1,1.3,2c-0.3.6-.6,1.3-0.9,1.9-0.8-1.3-1.7-2.6-2.6-3.8a20.91,20.91,0,0,0,.6-5.9l-0.1-.6-0.6-.1a20.91,20.91,0,0,0-5.9.6,42,42,0,0,0-4.9-3.3c-1.2-.6-2.4-1.2-3.6-1.7-8.1-3.3-14.7-2.7-15-2.6l-0.6.1-0.1.6a33.11,33.11,0,0,0,2.5,14.6,12.81,12.81,0,0,0-1.1,2,40.24,40.24,0,0,1-3.2-13.1,46.48,46.48,0,0,1,.1-5.9M20.2,29l-0.6.9a35.73,35.73,0,0,1-2.1-12.4,31.32,31.32,0,0,1,12.4,2.1l-0.9.6a27,27,0,0,0-8.2,0l-0.5.1-0.1.5a26.78,26.78,0,0,0,0,8.2M15,38.9A42.23,42.23,0,0,1,10.4,35,27.85,27.85,0,0,1,15,31.1,32,32,0,0,0,16.6,35c-0.6,1.3-1.1,2.6-1.6,3.9M5.9,35A40.33,40.33,0,0,1,14,27.8a12.09,12.09,0,0,0,.5,1.8,26.74,26.74,0,0,0-5.6,4.9L8.5,35l0.4,0.5a29.33,29.33,0,0,0,5.7,4.9,12.09,12.09,0,0,0-.5,1.8A42,42,0,0,1,5.9,35M20.2,55.6a36.72,36.72,0,0,1-5.9,0,36.72,36.72,0,0,1,0-5.9,40.52,40.52,0,0,1,3.8-14.4A39,39,0,0,1,20,31.8c0.5-.8,1-1.5,1.5-2.2l0.2-.2V29.1a26.59,26.59,0,0,1-.1-7.5,26.59,26.59,0,0,1,7.5.1h0.3l0.2-.2a13.73,13.73,0,0,1,2-1.3c0.7,0.3,1.3.6,2,.9-1.3.8-2.6,1.7-3.8,2.6a20.91,20.91,0,0,0-5.9-.6l-0.6.1-0.1.6a20.91,20.91,0,0,0,.6,5.9,31.73,31.73,0,0,0-3.2,4.9c-0.6,1.2-1.2,2.4-1.7,3.6a35,35,0,0,0-2.7,15l0.1,0.6,0.6,0.1a15.44,15.44,0,0,0,1.7.1,34.51,34.51,0,0,0,13-2.6c0.6,0.4,1.2.7,1.9,1.1a41.75,41.75,0,0,1-13.3,3.1M19.6,40.1L20.2,41a27,27,0,0,0,0,8.2l0.1,0.5,0.5,0.1a26.78,26.78,0,0,0,8.2,0l0.9,0.6a33.38,33.38,0,0,1-12.4,2.1,33.38,33.38,0,0,1,2.1-12.4M35,53.3a33.35,33.35,0,0,0,4,1.6,33.14,33.14,0,0,1-3.9,4.6,33.14,33.14,0,0,1-3.9-4.6c1.1-.4,2.4-1,3.8-1.6m0,10.8a39,39,0,0,1-7.2-8.2c0.6-.2,1.2-0.3,1.8-0.5a29.33,29.33,0,0,0,4.9,5.7L35,61.5l0.5-.4a29.33,29.33,0,0,0,4.9-5.7,12.09,12.09,0,0,0,1.8.5A45.51,45.51,0,0,1,35,64.1m20.6-8.5a36.48,36.48,0,0,1-5.9,0,40.52,40.52,0,0,1-14.4-3.8,37.18,37.18,0,0,1-3.4-1.9c-0.8-.5-1.6-1-2.3-1.5l-0.2-.2H29.1a26.59,26.59,0,0,1-7.5.1,26.59,26.59,0,0,1,.1-7.5V40.5l-0.2-.2c-0.4-.6-0.9-1.2-1.3-1.9,0.3-.7.6-1.3,0.9-2,0.8,1.3,1.7,2.6,2.6,3.8a20.91,20.91,0,0,0-.6,5.9l0.1,0.6,0.6,0.1a20.91,20.91,0,0,0,5.9-.6,42,42,0,0,0,4.9,3.3,30.06,30.06,0,0,0,3.6,1.7A36.1,36.1,0,0,0,51.6,54a15.44,15.44,0,0,0,1.7-.1l0.6-.1,0.1-.6a35.3,35.3,0,0,0-2.5-14.7c0.4-.6.7-1.2,1.1-1.9a41.73,41.73,0,0,1,3.2,13.1c0,2.9-.1,5-0.2,5.9m0.3-13.4c-0.2-.6-0.3-1.2-0.5-1.8a29.33,29.33,0,0,0,5.7-4.9l0.4-.5-0.4-.5a29.33,29.33,0,0,0-5.7-4.9,12.09,12.09,0,0,0,.5-1.8A41.8,41.8,0,0,1,64.1,35a45.51,45.51,0,0,1-8.2,7.2" class="cls-2"/></svg>