<svg xmlns="http://www.w3.org/2000/svg" id="Layer_1" width="70" height="70" x="0" y="0" enable-background="new 0 0 70 70" version="1.1" viewBox="0 0 70 70" xml:space="preserve"><metadata/><switch><g><rect width="70" height="70" fill="none"/><path fill="#D21F38" d="M67.1,13.3c-0.899,0.5-1.6,1.3-2.1,2.2c-1,0.1-1.9,0.9-2.2,1.8c-0.1,0.4-0.399,0.8-0.7,1 c0.7-0.1,1.4-0.5,1.7-1.3c0.2-0.6,0.601-1,1.101-1.3c-0.5,1.2-0.801,2.5-1.301,3.7c-0.8,1.8-2.3,3.1-3.899,4.2 c-0.9,0.5-1.8,1-2.7,1.3c-1.4,0.6-2.9,1.1-4.3,1.6c-2.5,0.9-5,1.8-7.101,3.3c-1.8,1.2-3.3,2.9-4.399,4.7c-0.7,1.2-1.3,2.5-2,3.8 c-1.2,2.5-2.5,5-4.3,7.2c-0.8,0.9-1.6,1.8-2.5,2.6c-4,3.801-8.7,6.7-13.8,8.801C13,59.4,7.1,60.8,1.1,61.6c0.2,0,0.5,0,0.7,0 c6.7,0,13.4-0.699,20-2.199C27.7,58,33.4,56,38.6,53c2.4-1.4,4.7-2.9,6.601-4.9c1.5-1.5,2.7-3.199,3.7-5.1 c1.3-2.6,2.1-5.4,3.1-8.2c0.5-1.5,1.4-2.8,2.5-3.9c1.6-1.5,3.5-2.7,5.3-3.9c1.5-1,2.9-2.1,4-3.5c0.9-1.1,1.601-2.4,2-3.7 c0.3-1,0.4-2,0.601-3c0.199-1,0.5-2.1,1.1-3c0.2-0.4,0.5-0.6,0.8-1C67.8,13,67.4,13.1,67.1,13.3z M65.7,15.6 c-0.2-0.2-0.2-0.5,0-0.7c0.3-0.2,0.7,0.1,0.6,0.4C66.4,15.7,66,15.8,65.7,15.6z"/><g id="_x23_00a61cff"><path id="path8" fill="#0A8744" d="M42.2,29.5c1.8-0.7,3.7-1.3,5.5-1.7c-0.3,0.2-0.7,0.3-1,0.5c-2.101,0.9-4,2.4-5.601,4.1 c-1.8,1.9-3.1,4.2-4.3,6.5c-1.6,3.5-4.1,6.5-7.2,8.8c-4.3,3.2-9.4,5.2-14.7,6c-1.1,0.2-2.3,0.3-3.4,0.3c1.5-0.5,3-0.9,4.4-1.5 c3.9-1.6,7.5-3.9,10.4-7c1.6-1.8,3.1-3.6,4.4-5.7c0.7-1.1,1.3-2.2,2.1-3.2c0.9-1.2,1.9-2.2,3-3.2C37.8,31.7,39.9,30.4,42.2,29.5z"/></g><g id="_x23_f16c00ff"><path id="path11" fill="#E65826" d="M54.7,32.4c0.399-0.6,0.8-1.3,1.3-1.8c-0.3,1.2-0.5,2.4-0.7,3.6c-0.2,1.899-0.1,3.899,0,5.8 c0.101,2.3,0,4.6-0.899,6.8C53.5,48.9,52.2,50.9,50.5,52.4c-2.4,2.1-5.4,3.3-8.5,3.699c-1.3,0.2-2.5,0.301-3.8,0.2 c0.7-0.399,1.399-0.8,2-1.2c2-1.199,4-2.399,5.7-4c1.699-1.6,3.199-3.5,4.3-5.5c1.1-2,1.7-4.3,2.2-6.5 C53,36.7,53.6,34.4,54.7,32.4z"/></g></g></switch></svg>