<svg xmlns="http://www.w3.org/2000/svg" id="Layer_1" width="70" height="70" x="0" y="0" enable-background="new 0 0 70 70" version="1.1" viewBox="0 0 70 70" xml:space="preserve"><metadata/><switch><g><rect width="70" height="70" fill="none"/><g><g><polygon fill="#E01E39" points="46.9 55.2 53.2 57.4 59.2 37.7"/><polygon fill="#E01E39" points="37.6 51.9 38.4 52.2 67.4 11.2 68.2 8.5"/><polygon fill="#E01E39" points="40.3 52.9 42.3 53.6 63.7 23.3 65.6 17"/><polygon fill="#E01E39" points="43.5 54 46 54.9 60.1 35 62.5 27.2"/><polygon fill="#0751A0" points="34.1 52 35.3 51.8 66.7 7.4 64.4 9.2"/><polygon fill="#0751A0" points="28.7 52.9 31.5 52.4 59.3 13 53.9 17.1"/><polygon fill="#0751A0" points="23.4 53.8 26.9 53.2 50.5 19.7 43.8 24.9"/><polygon fill="#0751A0" points="1.1 57.4 22.2 54 41.5 26.6"/></g></g></g></switch></svg>