<svg xmlns="http://www.w3.org/2000/svg" version="1.1" width="70.000000px" height="70.000000px" viewBox="0 0 70.000000 70.000000"><g id="surface1"><path d="M 65.863281 43.148438 L 60.078125 35.921875 L 54.785156 40.347656 L 60.570312 47.574219 Z M 65.863281 43.148438 " style=" stroke:none;fill-rule:nonzero;fill:rgb(0%,73.333333%,86.666667%);fill-opacity:1;"/><path d="M 53.109375 41.695312 C 53.109375 41.695312 46.039062 48.261719 38.785156 48.261719 C 30.210938 48.261719 27.78125 42.160156 27.363281 40.933594 C 24.898438 33.75 31.410156 25.292969 35.738281 23.003906 C 37.507812 22.066406 40.003906 21.128906 41.898438 22.132812 C 41.960938 22.167969 42.714844 22.613281 41.535156 24.738281 C 40.777344 26.097656 36.917969 31.28125 30.335938 32.335938 C 28.152344 37 29.21875 40.136719 30.105469 41.644531 C 34.832031 41.296875 39.300781 39.492188 43.421875 36.257812 L 43.515625 36.179688 C 47.144531 33.164062 52.953125 27.058594 51.0625 20.070312 C 50.011719 16.171875 46.773438 13.40625 42.398438 12.667969 C 36.835938 11.738281 28.558594 14.128906 22.101562 23.695312 C 18.1875 28.90625 12.007812 46.945312 29.324219 55.589844 C 44.890625 62.390625 58.808594 48.949219 58.808594 48.949219 Z M 53.109375 41.695312 " style=" stroke:none;fill-rule:nonzero;fill:rgb(47.843137%,12.156863%,58.431373%);fill-opacity:1;"/><path d="M 17.378906 28.320312 C 15.007812 26.59375 11.660156 23.40625 10.261719 21.964844 L 4.136719 28.933594 C 7.417969 33.089844 13.402344 36.953125 15.496094 38.089844 C 15.460938 34.5 16.292969 31.066406 17.378906 28.316406 " style=" stroke:none;fill-rule:nonzero;fill:rgb(47.843137%,12.156863%,58.431373%);fill-opacity:1;"/></g></svg>