<svg xmlns="http://www.w3.org/2000/svg" id="Layer_1" width="70" height="70" x="0" y="0" enable-background="new 0 0 70 70" version="1.1" viewBox="0 0 70 70" xml:space="preserve"><path fill="#66B360" d="M31.009,51.642h-1.291c-0.914,0-1.657-7.76-1.657-6.846c0,0.914,0.743,1.658,1.657,1.658 c0.915,0,1.659-0.743,1.659-1.658v6.846H31.009z M28.797,44.796c0-0.508,0.414-0.92,0.921-0.92h0.923v0.92 c0,0.508-0.414,0.922-0.923,0.922C29.211,45.718,28.797,45.304,28.797,44.796"/><path fill="#BB8D0B" d="M35.422,48.712c0,0.86-0.698,1.556-1.557,1.556c-0.859,0-1.556-0.696-1.556-1.556 c0-0.859,0.697-1.555,1.556-1.555C34.725,47.156,35.422,47.853,35.422,48.712"/><path fill="#5096B9" d="M28.133,48.547c0,0.725,0.589,1.311,1.31,1.311c0.723,0,1.311-0.586,1.311-1.311 c0-0.72-0.587-1.309-1.311-1.309C28.723,47.238,28.133,47.827,28.133,48.547 M28.871,48.547c0-0.315,0.257-0.572,0.572-0.572 c0.316,0,0.575,0.257,0.575,0.572c0,0.318-0.259,0.574-0.575,0.574C29.129,49.121,28.871,48.865,28.871,48.547"/><path fill="#5096B9" d="M28.953,46.721c-2.542,0-2.619-2.622-2.619-2.622v-1.571h1.453c0,0,2.728-0.019,2.728,2.514V47 C30.514,47,29.454,46.721,28.953,46.721"/><path fill="#2CAFA4" d="M25.807,42.565v1.658c0,0.916-0.742,1.658-1.657,1.658c-0.917,0-1.659-0.742-1.659-1.658 c0-0.915,0.742-1.658,1.659-1.658H25.807z"/><path fill="#7975B6" d="M26.339,42.237v-1.659c0-0.916,0.742-1.658,1.658-1.658c0.917,0,1.659,0.742,1.659,1.658 c0,0.915-0.742,1.659-1.659,1.659H26.339z"/><path fill="#009AD8" d="M20.479,36.177h-0.614V39.2c0,1.667,1.356,3.025,3.024,3.025h3.024V39.2c0-1.667-1.357-3.024-3.024-3.024 H20.479z M22.888,37.405c0.99,0,1.796,0.806,1.796,1.795v1.796h-1.796c-0.99,0-1.795-0.806-1.795-1.796v-1.795H22.888z"/><path fill="#D15980" d="M20.278,41.439c0,0.349-0.281,0.631-0.629,0.631c-0.348,0-0.629-0.282-0.629-0.631 c0-0.346,0.281-0.629,0.629-0.629C19.997,40.81,20.278,41.093,20.278,41.439"/><path fill="#D15980" d="M19.435,39.766c0,0.508-0.412,0.921-0.922,0.921c-0.508,0-0.921-0.413-0.921-0.921 c0-0.508,0.413-0.92,0.921-0.92C19.023,38.846,19.435,39.258,19.435,39.766"/><path fill="#D15980" d="M19.353,36.982c0,0.736-0.596,1.331-1.331,1.331c-0.735,0-1.33-0.595-1.33-1.331 c0-0.734,0.596-1.33,1.33-1.33C18.757,35.652,19.353,36.248,19.353,36.982"/><path fill="#6F99D0" d="M19.866,35.609v-1.495c0-0.825,0.669-1.494,1.495-1.494c0.825,0,1.493,0.669,1.493,1.494 c0,0.825-0.669,1.495-1.493,1.495H19.866z"/><path fill="#EE3524" d="M16.566,30.513h-1.807v1.909c0.028,0.971,0.646,2.774,2.775,2.774c0.228,0,0.797,0.124,1.129,0.212 l0.771,0.204v-2.412c0-0.758-0.241-1.383-0.716-1.855C17.894,30.527,16.699,30.511,16.566,30.513 M16.57,31.741 c0.274,0.001,1.635,0.075,1.635,1.457v0.848c-0.236-0.043-0.483-0.079-0.672-0.079c-1.409,0-1.536-1.306-1.547-1.567v-0.659H16.57z"/><path fill="#FFCF01" d="M13.753,30.512H9.616c-2.62,0-4.75,2.131-4.75,4.75c0,2.619,2.13,4.751,4.75,4.751 c2.619,0,4.75-2.132,4.75-4.751v-4.75H13.753z M6.094,35.262c0-1.941,1.58-3.521,3.522-3.521h3.523v3.521 c0,1.943-1.58,3.523-3.523,3.523C7.674,38.785,6.094,37.205,6.094,35.262"/><path fill="#27A444" d="M1.228,33.532c0,0.722,0.588,1.309,1.31,1.309c0.722,0,1.31-0.587,1.31-1.309 c0-0.723-0.588-1.311-1.31-1.311C1.816,32.221,1.228,32.809,1.228,33.532 M1.965,33.532c0-0.317,0.256-0.574,0.573-0.574 c0.316,0,0.573,0.257,0.573,0.574c0,0.315-0.257,0.572-0.573,0.572C2.222,34.104,1.965,33.846,1.965,33.532"/><path fill="#FBB040" d="M10.224,28.164c0,1.145,0.927,2.073,2.071,2.073h2.072v-2.073c0-1.144-0.928-2.071-2.072-2.071h-2.071 V28.164z"/><path fill="#EAA8C1" d="M9.834,29.462c0,0.52-0.422,0.941-0.941,0.941c-0.52,0-0.942-0.421-0.942-0.941 c0-0.519,0.422-0.941,0.942-0.941C9.412,28.521,9.834,28.943,9.834,29.462"/><path fill="#F58025" d="M6.641,26.665c0,0.915,0.743,1.659,1.658,1.659h1.658v-1.659c0-0.914-0.743-1.657-1.658-1.657 C7.384,25.008,6.641,25.752,6.641,26.665 M7.378,26.665c0-0.507,0.414-0.92,0.921-0.92c0.508,0,0.922,0.413,0.922,0.92v0.923H8.299 C7.792,27.588,7.378,27.173,7.378,26.665"/><text transform="matrix(1 0 0 1 33.0815 33.5303)"><tspan x="0" y="0" font-family="'TimesNewRomanPS-ItalicMT'" font-size="2.672">W</tspan><tspan x="1.983" y="0" font-family="'TimesNewRomanPS-ItalicMT'" font-size="2.672">e don</tspan><tspan x="7.846" y="0" font-family="'TimesNewRomanPS-ItalicMT'" font-size="2.672">’</tspan><tspan x="8.439" y="0" font-family="'TimesNewRomanPS-ItalicMT'" font-size="2.672">t just fly he</tspan><tspan x="20.241" y="0" font-family="'TimesNewRomanPS-ItalicMT'" font-size="2.672">r</tspan><tspan x="21.182" y="0" font-family="'TimesNewRomanPS-ItalicMT'" font-size="2.672">e, we live he</tspan><tspan x="34.389" y="0" font-family="'TimesNewRomanPS-ItalicMT'" font-size="2.672">r</tspan><tspan x="35.33" y="0" font-family="'TimesNewRomanPS-ItalicMT'" font-size="2.672">e</tspan></text><path fill="#009AD8" d="M15.819,24.333v2.114c0.193-0.193,0.402-0.338,0.626-0.435c0.225-0.096,0.465-0.145,0.72-0.145 c0.556,0,1.028,0.21,1.417,0.63c0.389,0.42,0.583,0.959,0.583,1.617c0,0.634-0.201,1.165-0.603,1.591 c-0.402,0.427-0.878,0.64-1.429,0.64c-0.245,0-0.474-0.044-0.685-0.131c-0.211-0.087-0.422-0.23-0.63-0.429v0.45h-1.061v-5.903 H15.819z M16.943,26.854c-0.337,0-0.616,0.115-0.838,0.344c-0.222,0.23-0.333,0.53-0.333,0.901c0,0.378,0.111,0.684,0.333,0.918 c0.222,0.234,0.501,0.35,0.838,0.35c0.326,0,0.601-0.119,0.824-0.356c0.223-0.237,0.335-0.54,0.335-0.908 c0-0.365-0.11-0.665-0.329-0.898C17.554,26.971,17.277,26.854,16.943,26.854"/><path fill="#009AD8" d="M23.074,25.977h1.069v4.259h-1.069v-0.45c-0.209,0.198-0.418,0.341-0.628,0.429 c-0.21,0.087-0.437,0.131-0.682,0.131c-0.55,0-1.026-0.213-1.427-0.64c-0.401-0.427-0.602-0.957-0.602-1.591 c0-0.658,0.194-1.197,0.583-1.617c0.388-0.42,0.86-0.63,1.416-0.63c0.255,0,0.495,0.048,0.719,0.145 c0.224,0.096,0.431,0.241,0.622,0.435V25.977z M21.951,26.854c-0.33,0-0.605,0.117-0.823,0.35c-0.219,0.234-0.328,0.533-0.328,0.898 c0,0.368,0.111,0.671,0.333,0.908c0.222,0.238,0.496,0.356,0.821,0.356c0.336,0,0.614-0.117,0.835-0.35 c0.221-0.234,0.332-0.54,0.332-0.918c0-0.371-0.111-0.671-0.332-0.901C22.569,26.969,22.289,26.854,21.951,26.854"/><path fill="#009AD8" d="M25.107,24.333h1.061v2.075c0.209-0.18,0.419-0.315,0.63-0.405c0.211-0.09,0.425-0.135,0.642-0.135 c0.423,0,0.779,0.146,1.069,0.438c0.248,0.253,0.372,0.625,0.372,1.116v2.815h-1.053v-1.867c0-0.493-0.023-0.827-0.07-1.002 c-0.047-0.175-0.127-0.305-0.241-0.392c-0.114-0.086-0.254-0.129-0.421-0.129c-0.217,0-0.403,0.072-0.558,0.215 c-0.155,0.144-0.263,0.339-0.323,0.587c-0.031,0.128-0.047,0.42-0.047,0.877v1.711h-1.061V24.333z"/><path fill="#009AD8" d="M32.938,25.977h1.069v4.259h-1.069v-0.45c-0.209,0.198-0.418,0.341-0.628,0.429 c-0.21,0.087-0.437,0.131-0.682,0.131c-0.55,0-1.026-0.213-1.427-0.64c-0.401-0.427-0.602-0.957-0.602-1.591 c0-0.658,0.194-1.197,0.583-1.617c0.388-0.42,0.86-0.63,1.416-0.63c0.255,0,0.495,0.048,0.719,0.145 c0.224,0.096,0.431,0.241,0.622,0.435V25.977z M31.814,26.854c-0.33,0-0.605,0.117-0.823,0.35c-0.219,0.234-0.328,0.533-0.328,0.898 c0,0.368,0.111,0.671,0.333,0.908c0.222,0.238,0.496,0.356,0.821,0.356c0.336,0,0.614-0.117,0.835-0.35 c0.221-0.234,0.332-0.54,0.332-0.918c0-0.371-0.111-0.671-0.332-0.901C32.432,26.969,32.152,26.854,31.814,26.854"/><path fill="#009AD8" d="M34.959,25.977h1.069v0.489c0.183-0.201,0.386-0.351,0.609-0.45c0.223-0.099,0.467-0.149,0.731-0.149 c0.266,0,0.506,0.065,0.721,0.196c0.214,0.13,0.387,0.321,0.517,0.572c0.17-0.251,0.378-0.441,0.625-0.572 c0.247-0.13,0.517-0.196,0.809-0.196c0.303,0,0.569,0.07,0.799,0.211c0.23,0.141,0.395,0.325,0.496,0.552 c0.1,0.227,0.151,0.596,0.151,1.108v2.498h-1.077v-2.161c0-0.483-0.06-0.81-0.18-0.981c-0.12-0.171-0.3-0.256-0.54-0.256 c-0.183,0-0.347,0.052-0.491,0.156c-0.145,0.105-0.252,0.249-0.323,0.433c-0.07,0.184-0.106,0.48-0.106,0.887v1.922h-1.077v-2.063 c0-0.381-0.028-0.657-0.084-0.828c-0.056-0.171-0.141-0.298-0.253-0.382c-0.112-0.084-0.248-0.125-0.408-0.125 c-0.178,0-0.339,0.053-0.485,0.159c-0.145,0.106-0.254,0.254-0.326,0.444c-0.072,0.191-0.108,0.491-0.108,0.901v1.895h-1.069V25.977 z"/><path fill="#009AD8" d="M45.526,25.977h1.069v4.259h-1.069v-0.45c-0.209,0.198-0.418,0.341-0.628,0.429 c-0.21,0.087-0.437,0.131-0.682,0.131c-0.55,0-1.026-0.213-1.427-0.64c-0.401-0.427-0.602-0.957-0.602-1.591 c0-0.658,0.194-1.197,0.583-1.617c0.388-0.42,0.86-0.63,1.416-0.63c0.255,0,0.495,0.048,0.719,0.145 c0.224,0.096,0.431,0.241,0.622,0.435V25.977z M44.403,26.854c-0.33,0-0.605,0.117-0.823,0.35c-0.219,0.234-0.328,0.533-0.328,0.898 c0,0.368,0.111,0.671,0.333,0.908c0.222,0.238,0.496,0.356,0.821,0.356c0.336,0,0.614-0.117,0.835-0.35 c0.221-0.234,0.332-0.54,0.332-0.918c0-0.371-0.111-0.671-0.332-0.901C45.02,26.969,44.741,26.854,44.403,26.854"/><path fill="#009AD8" d="M50.162,26.572L49.5,27.234c-0.269-0.266-0.513-0.399-0.732-0.399c-0.12,0-0.214,0.025-0.282,0.076 c-0.068,0.051-0.102,0.114-0.102,0.19c0,0.057,0.021,0.11,0.065,0.158c0.043,0.048,0.149,0.114,0.319,0.198l0.391,0.196 c0.412,0.204,0.695,0.411,0.849,0.623c0.154,0.211,0.231,0.459,0.231,0.744c0,0.378-0.139,0.694-0.417,0.947 c-0.278,0.253-0.65,0.38-1.118,0.38c-0.621,0-1.117-0.243-1.488-0.728l0.658-0.717c0.125,0.146,0.272,0.264,0.44,0.354 c0.168,0.09,0.318,0.135,0.448,0.135c0.141,0,0.254-0.034,0.341-0.102c0.086-0.068,0.129-0.146,0.129-0.235 c0-0.165-0.155-0.325-0.466-0.482l-0.36-0.18c-0.689-0.347-1.033-0.782-1.033-1.304c0-0.337,0.13-0.624,0.389-0.863 c0.26-0.239,0.592-0.358,0.996-0.358c0.277,0,0.537,0.061,0.781,0.182C49.786,26.171,49.992,26.345,50.162,26.572"/><path fill="#FBB040" d="M54.105,25.977h1.069v4.259h-1.069v-0.45c-0.208,0.198-0.418,0.341-0.628,0.429 c-0.21,0.087-0.437,0.131-0.682,0.131c-0.55,0-1.026-0.213-1.427-0.64c-0.401-0.427-0.602-0.957-0.602-1.591 c0-0.658,0.194-1.197,0.583-1.617c0.388-0.42,0.86-0.63,1.415-0.63c0.255,0,0.495,0.048,0.719,0.145 c0.224,0.096,0.431,0.241,0.622,0.435V25.977z M52.982,26.854c-0.33,0-0.605,0.117-0.823,0.35c-0.219,0.234-0.328,0.533-0.328,0.898 c0,0.368,0.111,0.671,0.333,0.908c0.222,0.238,0.496,0.356,0.821,0.356c0.336,0,0.614-0.117,0.835-0.35 c0.221-0.234,0.332-0.54,0.332-0.918c0-0.371-0.11-0.671-0.332-0.901C53.6,26.969,53.32,26.854,52.982,26.854"/><rect width="1.069" height="4.259" x="56.017" y="25.977" fill="#FBB040"/><path fill="#FBB040" d="M57.686,25.977h0.916v0.536c0.099-0.211,0.231-0.372,0.395-0.481c0.164-0.11,0.344-0.164,0.54-0.164 c0.138,0,0.283,0.037,0.435,0.11l-0.333,0.92c-0.125-0.063-0.228-0.094-0.309-0.094c-0.164,0-0.303,0.102-0.417,0.305 c-0.113,0.204-0.17,0.603-0.17,1.198l0.004,0.208v1.722h-1.061V25.977z"/></svg>