<svg xmlns="http://www.w3.org/2000/svg" version="1.1" id="Layer_1" x="0px" y="0px" width="70px" height="70px" viewBox="0 0 70 70" enable-background="new 0 0 70 70" xml:space="preserve"><metadata/><switch><g><rect width="70" fill="none" height="70"/><g><g><path fill="#124B8E" d="M58.4,28l-5.9,11.6H48c1.9-3.6,3.6-7,5.5-10.7c0.2-0.3,0.1-0.2,0.5-0.6c0.2-0.2,0.7-0.3,1-0.4L58.4,28       L58.4,28z"/><path fill="#124B8E" d="M44.6,34.2c-0.399,0-0.899,0.1-1.3,0.2c-0.399,0.1-0.8,0.3-1.1,0.4c-0.3,0.2-0.5,0.3-0.7,0.5       c-0.2,0.2-0.3,0.4-0.4,0.7c-0.1,0.3-0.1,0.5,0,0.7c0.101,0.2,0.4,0.2,0.7,0.2c0.5,0,1.101-0.2,1.601-0.7       C43.7,35.8,44.6,34.2,44.6,34.2z M42.1,28.2c0.301-0.2,1-0.3,1-0.3h4c0.7,0,1.301,0.1,1.7,0.2c1,0.2,1.5,0.8,1.601,1.7       c0.1,0.5,0,1.1-0.301,1.8C50,31.8,49.9,32,49.8,32.3c-0.1,0.2-3,5.8-4,7.4h-4.2c0,0,1-1.8,1-1.9h-0.1c0,0-1.9,2.101-4.4,2.101       c-0.5,0-0.899-0.101-1.199-0.2c-0.301-0.2-0.5-0.4-0.7-0.7C36.1,38.7,36,38.4,36,37.9c0-0.4,0.1-0.9,0.3-1.301       c0.2-0.399,0.4-0.8,0.7-1.2s0.6-0.7,1-1.1c0.4-0.3,0.7-0.5,1.2-0.8c0.399-0.2,0.899-0.4,1.399-0.6c0.601-0.2,1.301-0.4,2.2-0.5       c0.8-0.1,1.7-0.2,2.7-0.3c0.3-0.5,0.3-0.6,0.3-0.9c0-0.2-0.3-0.5-0.6-0.5s-4.9,0.1-4.8,0.1l0.899-1.7       C41.5,29,41.9,28.4,42.1,28.2L42.1,28.2z"/><path fill="#124B8E" d="M50,24c0.1-0.4-0.2-0.7-0.5-0.7l-24.7,0.1c-0.7,0-1.8,0.4-2.3,1.3l-6.3,11.6c-0.4,0.7-1.4,1.3-2.3,1.3       H12c-0.6,0-1.1-0.6-0.7-1.3l6.3-11.6c0.3-0.5,0-1.2-0.7-1.2c-0.3,0-4.9,0-5.6,0c-0.8,0-1.7,0.4-2.2,1.3C8.7,25.4,1.3,38,1.3,38       c-0.5,0.8,0.2,1.6,0.9,1.6h14.9c1,0,1.9-0.5,2.3-1.3l6.3-11.6c0.5-1,1.1-1.3,2.3-1.3h1.6c0.6,0,1.1,0.6,0.7,1.3L24.2,38       c-0.4,0.7,0.1,1.6,0.9,1.6h5.2c1,0,2-0.6,2.4-1.3L39,26.8c0.7-1.2,1.1-1.3,2.3-1.3h7.4c0.5,0,0.7-0.3,0.8-0.5L50,24z"/><path fill="#124B8E" d="M55.8,23.7c0.101-0.2,0.3-0.4,0.8-0.4c0.4,0,2.801,0,3.101,0s0.7,0.3,0.5,0.8c-0.101,0.3-0.9,2-1,2.1       c-0.101,0.2-0.3,0.4-0.7,0.4c-0.3,0-2.9,0-3.1,0c-0.5,0-0.7-0.5-0.601-0.8C55,25.3,55.8,23.7,55.8,23.7z"/><path fill="#124B8E" d="M59.1,39.6h-4.5c0,0,4.7-9.6,5.301-10.7c0.399-0.9,1-0.9,1.5-0.9c0.399,0,2.8,0,2.8,0s-1.4,2.9-1.5,3       h0.1c0,0,1.9-3.1,4.601-3.2c1,0,2.199,1.3,0.199,2.9C66.2,30.4,63.5,31,62,33.6C61.6,34.4,59.1,39.6,59.1,39.6z"/></g></g></g></switch></svg>