<svg xmlns="http://www.w3.org/2000/svg" id="Layer_1" width="70" height="70" version="1.1" viewBox="0 0 70 70"><metadata id="metadata37"/><defs id="defs12"><style id="style10">.cls-1{fill:none}.cls-1,.cls-2,.cls-3{stroke:#047cc1;stroke-miterlimit:10}.cls-2{fill:#0d7dc1}.cls-3{fill:#397aa2}</style></defs><title id="title14"/><path id="path18" d="m 41.388885,55.19157 c -4.69853,-0.325556 -8.271166,-2.375856 -10.320535,-6.759095 -0.815271,0.637103 -1.601623,1.273273 -2.411297,1.879594 -1.988737,1.492491 -4.063291,2.837588 -6.371979,3.786254 -2.155709,0.886162 -4.384176,1.32271 -6.716184,1.034474 C 12.081139,54.701846 9.5476451,52.868883 7.9450884,49.766387 7.012285,47.966071 6.6205083,46.004384 6.3919715,44.00632 6.3248115,43.416789 6.231529,42.829123 6.2576476,42.233996 q 0,-2.155704 0,-4.312349 c 0.069025,-1.679046 0.3731212,-3.326379 0.7975468,-4.948518 1.2229051,-4.687341 3.5446526,-8.785142 6.7423016,-12.395094 2.332009,-2.636099 5.121091,-4.634164 8.48851,-5.753528 a 19.0068,19.0068 0 0 1 4.995162,-0.922541 c 1.628675,-0.08862 3.234963,0 4.817929,0.394573 2.039108,0.504648 3.703229,1.649198 5.19758,3.078252 a 16.493828,16.493828 0 0 1 1.585766,1.764862 c 0.136189,0.174438 0.222007,0.19869 0.408568,0.04851 2.847848,-2.304956 6.063221,-3.877658 9.607874,-4.777821 a 15.270923,15.270923 0 0 1 4.67521,-0.480387 c 1.931835,0.114731 3.861805,0.247193 5.705025,0.95612 2.818931,1.083919 4.555811,3.021353 5.055793,6.049227 0.418829,2.533494 -0.03544,4.838451 -1.592295,6.902751 -0.932803,1.23223 -2.09974,2.214468 -3.370218,3.067983 -2.416893,1.62308 -4.927067,3.098773 -7.393399,4.644433 -2.820797,1.772325 -5.654654,3.515733 -8.483846,5.271267 -0.08582,0.05317 -0.175367,0.100748 -0.304094,0.17537 0,-0.559682 0,-1.06433 0,-1.57271 0,-0.862843 0.01492,-1.725685 -0.0047,-2.588528 -0.0065,-0.279841 0.09888,-0.435615 0.32275,-0.5858 2.232199,-1.499013 4.501709,-2.944857 6.66488,-4.546484 1.452375,-1.074591 2.89169,-2.173434 4.042769,-3.581959 1.026084,-1.257424 1.487821,-2.740579 1.634271,-4.342206 0.08768,-0.961717 0.07089,-1.909442 -0.236931,-2.831991 -0.597927,-1.789114 -1.663189,-2.567074 -3.612748,-2.680873 -2.382379,-0.139925 -4.440143,0.641766 -6.217134,2.197687 -2.304024,2.012056 -3.815165,4.575399 -4.955984,7.373811 -0.990637,2.425284 -1.545654,4.969971 -1.765796,7.582752 -0.02519,0.301295 -0.06156,0.601657 -0.09328,0.902019 a 1.797512,1.797512 0 0 0 -0.118466,0.708002 q 0.0075,1.442114 0,2.883294 a 1.7144925,1.7144925 0 0 0 0.12313,0.706128 c 0.16977,1.757408 0.510243,3.471901 1.264881,5.085645 0.823665,1.762072 2.067092,3.02042 4.037172,3.428051 1.207048,0.249993 2.408499,0.158581 3.607151,-0.06156 1.834824,-0.33674 3.476557,-1.152944 5.098702,-2.030711 2.145448,-1.162273 4.077284,-2.646361 6.033372,-4.091272 0.393643,-0.290102 0.788219,-0.579271 1.175333,-0.876835 0.165105,-0.126866 0.252789,-0.120336 0.373121,0.07369 q 0.860977,1.376819 1.758334,2.729378 c 0.143652,0.216412 0.130592,0.331152 -0.06343,0.508379 a 72.905107,72.905107 0 0 1 -6.748832,5.423318 c -1.620279,1.160407 -3.264812,2.269511 -5.130418,3.021353 -1.88986,0.763036 -3.839418,1.263945 -5.88319,1.358164 z M 33.180216,21.560273 c -0.02052,-0.09328 -0.04291,-0.179092 -0.0597,-0.269572 -0.25279,-1.38055 -0.927206,-2.415964 -2.332009,-2.862781 -0.411366,-0.131521 -0.839522,-0.156706 -1.264881,-0.232261 l 0.156711,-0.02612 v -0.04104 h -1.236894 l -0.0047,0.04011 0.155778,0.02612 a 1.522335,1.522335 0 0 1 -0.203351,0.04197 8.4138857,8.4138857 0 0 0 -3.957884,1.340441 c -2.798411,1.779786 -4.803004,4.269441 -6.302953,7.182583 -1.613749,3.130488 -2.291897,6.515632 -2.478458,10.003381 -0.09328,1.692106 -0.121264,3.389808 0.186561,5.074452 0.297564,1.611878 0.735049,3.171529 1.592295,4.584727 0.652963,1.078322 1.541924,1.855341 2.826394,2.086678 0.407635,0.199622 0.819935,0.14179 1.235032,0.02705 1.052202,-0.212672 1.990602,-0.692136 2.906615,-1.228499 q 2.2294,-1.305928 4.468128,-2.595058 c 0.621246,-0.360059 0.622179,-0.357261 0.537294,-1.063398 -0.243461,-2.017652 -0.297564,-4.038103 -0.06529,-6.063218 a 31.792735,31.792735 0 0 1 1.087648,-5.254486 c 0.40577,-1.399205 0.907618,-2.759226 1.421592,-4.119255 0.638971,-1.689307 1.119365,-3.422455 1.328312,-5.223704 0.01586,0.03265 0,0.09329 0.07369,0.07182 0,0 0,-0.02145 0,-0.03358 0,-0.485993 0,-0.972919 0,-1.458912 9.32e-4,-0.03451 -0.04291,-0.03731 -0.07182,-0.0076 z" class="cls-2" style="fill:#0d7dc1;stroke:#047cc1;stroke-width:.09328033;stroke-miterlimit:10"/><path id="path20" d="m 6.2548492,37.921647 q 0,2.155712 0,4.312349 a 20.738083,20.738083 0 0 1 0,-4.312349 z" class="cls-3" style="fill:#397aa2;stroke:#047cc1;stroke-width:.09328033;stroke-miterlimit:10"/><path id="path22" d="m 38.971992,40.623041 a 1.7144925,1.7144925 0 0 1 -0.12313,-0.706128 q 0.0065,-1.442113 0,-2.883293 a 1.797512,1.797512 0 0 1 0.12313,-0.70707 c -0.04291,1.26955 -0.08768,2.539092 -0.01866,3.809574 0.0065,0.16137 0.01866,0.323682 0.01866,0.486917 z" class="cls-3" style="fill:#397aa2;stroke:#047cc1;stroke-width:.09328033;stroke-miterlimit:10"/><path id="path24" d="m 41.388885,55.19157 h 3.111832 a 12.656275,12.656275 0 0 1 -3.111832,0 z" class="cls-3" style="fill:#397aa2;stroke:#047cc1;stroke-width:.09328033;stroke-miterlimit:10"/><path id="path26" d="m 29.525493,18.195659 c 0.421628,0.07555 0.852583,0.10074 1.264881,0.232261 1.399205,0.446817 2.075487,1.482231 2.332008,2.862781 0.01679,0.09328 0.04011,0.180026 0.0597,0.269572 q 0,0.714532 0,1.429055 c -0.206149,1.801249 -0.689341,3.534396 -1.328311,5.223704 -0.513975,1.360029 -1.015823,2.722848 -1.421593,4.119255 a 31.792735,31.792735 0 0 0 -1.087649,5.254485 c -0.232268,2.02325 -0.178165,4.042768 0.06529,6.063219 0.08489,0.707069 0.08395,0.704271 -0.537294,1.063398 q -2.238728,1.294726 -4.468128,2.595058 c -0.916013,0.536363 -1.854413,1.015826 -2.906615,1.228499 -0.411367,0 -0.824598,0.03358 -1.235032,-0.02705 -1.284468,-0.231337 -2.172497,-1.008356 -2.826392,-2.086679 -0.857246,-1.413197 -1.294731,-2.972848 -1.592295,-4.584727 -0.310624,-1.68371 -0.279841,-3.382345 -0.186561,-5.074451 0.186561,-3.487749 0.865642,-6.869162 2.479391,-10.001516 1.500881,-2.913142 3.507341,-5.403729 6.302952,-7.182583 a 8.4138857,8.4138857 0 0 1 3.957885,-1.340441 1.5139397,1.5139397 0 0 0 0.203351,-0.04197 z" class="cls-1" style="fill:none;stroke:#047cc1;stroke-width:.09328033;stroke-miterlimit:10"/><path id="path28" d="m 33.178351,22.987462 q 0,-0.714523 0,-1.429054 c 0.02892,-0.02985 0.07369,-0.02612 0.07369,0.0085 0,0.485993 0,0.972918 0,1.458911 0,0.01119 0,0.03171 0,0.03358 -0.07182,0.02798 -0.0569,-0.03731 -0.07369,-0.07182 z" class="cls-3" style="fill:#397aa2;stroke:#047cc1;stroke-width:.09328033;stroke-miterlimit:10"/><path id="path30" d="M 29.525493,18.195659 H 28.59269 l -0.155779,-0.02612 0.0047,-0.04011 h 1.235031 v 0.04104 z" class="cls-3" style="fill:#397aa2;stroke:#047cc1;stroke-width:.09328033;stroke-miterlimit:10"/><path id="path32" d="m 20.259025,48.50803 c 0.410433,0.0597 0.822733,0.02612 1.235031,0.02705 -0.414164,0.114739 -0.827396,0.172571 -1.235031,-0.02705 z" class="cls-3" style="fill:#397aa2;stroke:#047cc1;stroke-width:.09328033;stroke-miterlimit:10"/></svg>