<svg xmlns="http://www.w3.org/2000/svg" version="1.1" id="Layer_1" x="0px" y="0px" width="70px" height="70px" viewBox="0 0 70 70" enable-background="new 0 0 70 70" xml:space="preserve"><metadata/><switch><g><rect width="70" fill="none" height="70"/><g><polygon points="46.1,57.4 43.3,54.6 43.3,37.7 41.7,39.3 41.7,53 38.7,50 38.7,42.3 37.1,43.9 37.1,48.4       34.8,46.2 34.8,46.2 34.8,46.2 34.1,46.9 34.1,45.4 32.5,43.9 32.5,48.5 29.5,51.5 29.5,40.8 27.9,39.3 27.9,53.1 24.9,56.1       24.9,36.2 23.6,34.9 24.9,33.5 24.9,13.7 27.9,16.7 27.9,30.5 29.5,28.9 29.5,18.3 32.5,21.3 32.5,25.9 34.1,24.4 34.1,22.9       34.8,23.6 37.1,21.3 37.1,25.9 38.7,27.5 38.7,19.8 41.7,16.7 41.7,30.5 43.3,32.1 43.3,15.2 46.1,12.4 46.1,12.4 34.8,1.1       23.6,12.4 23.6,12.4 23.3,12.6 23.3,34.7 20.3,31.6 20.3,15.6 18.7,17.2 18.7,30.1 15.7,27.1 15.7,20.2 14.1,21.8 14.1,25.5       12.3,23.6 12.3,23.6 1.1,34.9 12.3,46.2 14.1,44.3 14.1,48 15.7,49.6 15.7,42.7 18.7,39.7 18.7,52.6 20.3,54.2 20.3,38.1       23.3,35.1 23.3,57.2 23.6,57.4 34.8,68.7    " fill="#E21B4D"/><polygon points="49.9,31.1 46.1,34.9 46.1,34.9 46.3,35.1 46.3,57.2 47.9,55.6 47.9,36.7 50.9,39.7 50.9,52.6       52.5,51 52.5,41.3 55.5,44.3 55.5,48 57.1,46.4 57.1,45.9 57.4,46.2 68.6,34.9 57.4,23.6 57.4,23.6 57.1,23.9 57.1,23.4       55.5,21.8 55.5,25.5 52.5,28.5 52.5,18.8 50.9,17.2 50.9,30.1    " fill="#E21B4D"/><polygon points="47.9,33.1 47.9,14.2 46.3,12.6 46.3,34.7    " fill="#E21B4D"/></g></g></switch></svg>