<svg xmlns="http://www.w3.org/2000/svg" version="1.1" id="Layer_1" x="0px" y="0px" width="70px" height="70px" viewBox="0 0 70 70" enable-background="new 0 0 70 70" xml:space="preserve"><path fill="#729CD2" d="M25.234,37.839c-0.142-0.006-0.147,0.121-0.191,0.203   c-0.77,1.455-1.554,2.902-2.301,4.369c-0.443,0.869-1.075,1.438-2.074,1.534c-0.024,0.003-0.044,0.036-0.066,0.055   c-0.57,0-1.14,0-1.71,0c-0.122-0.066-0.253-0.015-0.379-0.031c-0.1,0-0.2,0-0.299,0c-0.101-0.008-0.203,0.019-0.302-0.02   c-0.354-0.021-0.709-0.051-1.063-0.064c-0.152-0.005-0.212-0.053-0.211-0.215c0.007-0.7-0.001-1.401,0.006-2.103   c0.002-0.289,0.213-0.369,0.453-0.373c0.427-0.009,0.854,0.006,1.281-0.002c0.382-0.007,0.768-0.359,0.815-0.729   c0.015-0.113-0.056-0.191-0.104-0.279c-1.204-2.178-2.408-4.355-3.614-6.531c-0.209-0.377-0.125-0.549,0.305-0.552   c1.25-0.009,2.499-0.001,3.749-0.008c0.189-0.001,0.235,0.122,0.295,0.251c0.485,1.029,0.97,2.057,1.456,3.085   c0.042,0.09,0.091,0.178,0.154,0.3c0.466-0.986,0.915-1.939,1.368-2.893c0.055-0.117,0.081-0.253,0.193-0.338   c0.148-0.014,0.179,0.109,0.229,0.203c0.678,1.296,1.292,2.623,1.981,3.911C25.241,37.683,25.291,37.755,25.234,37.839z" clip-rule="evenodd" fill-rule="evenodd"/><path fill="#729CD2" d="M1.185,33.254c0.154-0.15,0.337-0.189,0.55-0.181   c0.346,0.016,0.692,0,1.038,0.006c0.139,0.002,0.202-0.044,0.202-0.192c0.001-0.253,0.022-0.505,0.032-0.757   c0.03-0.735,0.426-1.209,1.081-1.486c0.735-0.311,1.521-0.338,2.301-0.371c0.863-0.036,1.725,0.035,2.588,0.055   c0.254,0.005,0.352,0.09,0.343,0.36c-0.014,0.485,0.021,0.974,0.022,1.461c0.001,0.353-0.1,0.437-0.459,0.442   c-0.426,0.006-0.854-0.03-1.278,0.043c-0.104,0.018-0.202,0.034-0.273,0.115c-0.064,0.072-0.086,0.163-0.062,0.256   c0.031,0.119,0.133,0.07,0.204,0.07c0.468,0.006,0.936,0.001,1.403,0.004c0.337,0.002,0.483,0.146,0.483,0.477   c-0.001,0.559-0.004,1.117-0.01,1.677c-0.003,0.289-0.134,0.436-0.42,0.44c-0.457,0.01-0.915,0.01-1.372-0.006   c-0.229-0.008-0.297,0.074-0.295,0.299c0.01,1.525,0.01,3.051,0.011,4.576c0,0.111-0.016,0.223-0.025,0.334   C7.226,41.093,7.107,41.2,6.886,41.2c-1.18-0.002-2.359-0.002-3.54-0.001c-0.208,0-0.322-0.107-0.347-0.306   c-0.017-0.131-0.025-0.264-0.025-0.395c-0.002-1.517-0.005-3.032,0.002-4.549c0.001-0.229-0.049-0.33-0.303-0.312   c-0.344,0.021-0.691-0.003-1.037,0.008c-0.171,0.007-0.319-0.029-0.452-0.133C1.185,34.76,1.185,34.007,1.185,33.254z" clip-rule="evenodd" fill-rule="evenodd"/><path fill="#907F46" d="M68.594,23.179c-0.109,0.06-0.085,0.179-0.105,0.27   c-0.264,1.219-0.936,2.148-1.995,2.792c-1.858,1.128-3.753,2.195-5.573,3.386c-1.533,1.002-3.021,2.062-4.367,3.311   c-0.036,0.033-0.071,0.07-0.106,0.107c-0.084,0.083-0.131,0.018-0.177-0.046c0.942-1.71,2.071-3.28,3.477-4.645   c1.234-1.198,2.646-2.147,4.137-2.995c1.395-0.795,2.667-1.758,3.658-3.043c0.354-0.457,0.676-0.939,0.81-1.518   c0.021,0,0.041,0,0.06,0c0.204,0.209,0.081,0.499,0.184,0.733C68.594,22.08,68.594,22.63,68.594,23.179z" clip-rule="evenodd" fill-rule="evenodd"/><path fill="#F9F8F5" d="M68.594,21.531c-0.124-0.229-0.122-0.489-0.184-0.733   c0.102,0.004,0.218-0.041,0.19,0.153C68.574,21.141,68.594,21.337,68.594,21.531z" clip-rule="evenodd" fill-rule="evenodd"/><path fill="#93B3DE" d="M18.523,43.942c0.124,0.013,0.26-0.054,0.369,0.058   c-0.122,0-0.244,0-0.366,0c-0.02-0.011-0.026-0.023-0.021-0.037C18.51,43.949,18.517,43.942,18.523,43.942z" clip-rule="evenodd" fill-rule="evenodd"/><path fill="#D9E5F1" d="M17.912,43.949c0.102-0.002,0.203-0.002,0.305-0.002   c0.022,0.01,0.031,0.021,0.024,0.033c-0.006,0.013-0.014,0.02-0.02,0.02c-0.102,0-0.204,0-0.306,0   C17.915,43.983,17.913,43.967,17.912,43.949z" clip-rule="evenodd" fill-rule="evenodd"/><path fill="#B2CCE4" d="M18.221,44c0-0.018-0.002-0.035-0.004-0.053   c0.102-0.002,0.204-0.004,0.307-0.006c0.002,0.021,0.003,0.04,0.003,0.059C18.423,44,18.322,44,18.221,44z" clip-rule="evenodd" fill-rule="evenodd"/><path fill="#005A92" d="M56.27,32.998c0.059,0.015,0.117,0.03,0.177,0.046   c0.473,0.133,0.896,0.364,1.272,0.679c0.167,0.079,0.289,0.194,0.317,0.386c0.195,0.367,0.333,0.75,0.375,1.164   c0.068,0.084,0.089,0.186,0.072,0.285c-0.086,0.538-0.09,1.074,0,1.613c0.004,0.014-0.018,0.033-0.027,0.051l0.002-0.002   c-0.07,0.342-0.027,0.688-0.029,1.031c-0.005,0.881-0.001,1.764-0.005,2.646c-0.037,0.214-0.156,0.3-0.379,0.299   c-1.171-0.007-2.34-0.003-3.51-0.005c-0.297,0-0.411-0.117-0.411-0.426c-0.001-1.354-0.006-2.706,0.001-4.059   c0.004-0.695-0.086-1.06-1.092-0.894c-0.481,0.079-0.744,0.376-0.804,0.896c-0.061,0.527-0.021,1.057-0.024,1.585   c-0.007,0.824,0,1.649-0.004,2.473c-0.001,0.33-0.104,0.426-0.438,0.426c-1.107,0.001-2.219,0.001-3.326,0   c-0.347-0.001-0.419-0.077-0.419-0.435c-0.001-1.211,0-2.42,0-3.631c0-0.123-0.003-0.244-0.008-0.367   c-0.033-0.779-0.268-0.992-1.043-0.94c-0.512,0.034-0.781,0.29-0.837,0.827c-0.027,0.262-0.031,0.527-0.032,0.791   c-0.003,1.108-0.001,2.217-0.002,3.326c-0.001,0.348-0.085,0.429-0.43,0.429c-1.131,0.001-2.257,0.001-3.388,0   c-0.313,0-0.435-0.102-0.435-0.401c-0.004-2.451-0.004-4.902-0.001-7.354c0.001-0.228,0.117-0.354,0.355-0.354   c1.131,0.001,2.26,0,3.389,0c0.265,0,0.388,0.137,0.384,0.396c-0.002,0.102,0,0.202,0,0.287c0.044,0.045,0.069,0.032,0.095,0.012   c0.564-0.506,1.233-0.778,1.979-0.854c0.823-0.084,1.644-0.096,2.45,0.141c0.525,0.153,0.962,0.43,1.263,0.896   C53.066,32.712,54.65,32.773,56.27,32.998z" clip-rule="evenodd" fill-rule="evenodd"/><path fill="#005A92" d="M25.234,37.839c-0.709-1.4-1.419-2.802-2.131-4.201   c-0.026-0.052-0.072-0.093-0.11-0.139c0.031-0.312,0.179-0.433,0.516-0.427c1.292,0.021,2.583,0.016,3.875,0.003   c0.223-0.002,0.311,0.072,0.385,0.275c0.479,1.293,0.975,2.58,1.466,3.875c0.127-0.04,0.124-0.156,0.157-0.242   c0.471-1.199,0.947-2.395,1.397-3.602c0.094-0.248,0.217-0.309,0.463-0.306c1.302,0.012,2.603,0.005,3.906,0.005   c0.408,0.001,0.521,0.188,0.337,0.551c-1.242,2.443-2.484,4.885-3.721,7.331c-0.089,0.177-0.186,0.245-0.392,0.245   c-1.394-0.011-2.787-0.01-4.18-0.002c-0.202,0.002-0.301-0.057-0.391-0.24C26.295,39.919,25.762,38.88,25.234,37.839z" clip-rule="evenodd" fill-rule="evenodd"/><path fill="#729CD2" d="M14.679,35.8c0,1.638,0,3.275,0,4.914   c0,0.307-0.196,0.52-0.497,0.52c-1.099,0.002-2.198-0.002-3.296-0.01c-0.314-0.002-0.473-0.174-0.473-0.497   c-0.001-3.286-0.001-6.574,0-9.86c0-0.324,0.164-0.488,0.48-0.488c1.088-0.002,2.178-0.002,3.266,0   c0.381,0.001,0.519,0.146,0.519,0.537C14.679,32.543,14.679,34.171,14.679,35.8z" clip-rule="evenodd" fill-rule="evenodd"/><path fill="#005A92" d="M40.578,35.769c0,1.639,0,3.276,0,4.914   c0,0.352-0.162,0.518-0.509,0.519c-1.091,0.001-2.18,0.001-3.268,0c-0.326-0.001-0.474-0.151-0.475-0.481   c-0.002-3.287-0.003-6.574-0.004-9.86c0-0.345,0.153-0.505,0.494-0.505c1.089-0.003,2.179-0.004,3.268-0.002   c0.339,0,0.493,0.162,0.493,0.502C40.578,32.492,40.578,34.13,40.578,35.769z" clip-rule="evenodd" fill-rule="evenodd"/><path fill="#907F46" d="M58.036,34.108c-0.106-0.129-0.213-0.258-0.316-0.386   c1.625-1.901,3.671-3.218,5.926-4.239c1.17-0.529,2.317-1.088,3.307-1.927c0.493-0.417,0.923-0.885,1.263-1.521   c0,0.164,0.008,0.266-0.001,0.365c-0.008,0.111-0.034,0.222-0.045,0.332c-0.166,1.733-1.011,2.982-2.608,3.721   c-1.438,0.664-2.925,1.217-4.354,1.9C60.113,32.878,59.054,33.454,58.036,34.108z" clip-rule="evenodd" fill-rule="evenodd"/><path fill="#907F46" d="M58.456,37.222c-0.101-0.648-0.027-1.3-0.045-1.949   c0.881-0.602,1.777-1.172,2.764-1.592c1.235-0.529,2.521-0.883,3.833-1.164c1.23-0.264,2.353-0.764,3.217-1.727   c0.048,0.068,0.041,0.139,0.008,0.209c-0.339,1.229-1.155,2.047-2.258,2.617c-0.833,0.432-1.741,0.591-2.654,0.738   c-1.61,0.261-3.165,0.717-4.67,1.345c-0.149,0.062-0.229,0.136-0.216,0.31c0.027,0.334-0.029,0.67,0.031,1.002   c0.116,0.039,0.118,0.109,0.055,0.197C58.499,37.212,58.476,37.217,58.456,37.222z" clip-rule="evenodd" fill-rule="evenodd"/><path fill="#907F46" d="M58.521,37.208c0.002-0.072-0.005-0.14-0.055-0.197   c1.194-0.562,2.396-1.109,3.71-1.34c0.591-0.104,1.186-0.144,1.788-0.133c1.072,0.021,2.129-0.084,3.131-0.508   c0.279-0.117,0.521-0.299,0.831-0.477c-0.038,0.229-0.147,0.36-0.246,0.49c-0.687,0.92-1.64,1.396-2.737,1.629   c-0.377,0.081-0.759,0.119-1.146,0.115C62.024,36.769,60.263,36.892,58.521,37.208z" clip-rule="evenodd" fill-rule="evenodd"/><path fill="#917F46" d="M58.424,40.896c-0.005-1.189-0.01-2.38-0.012-3.568   c0-0.036,0.029-0.073,0.046-0.108c-0.007,0.334-0.007,0.668-0.023,1.002c-0.008,0.197,0.045,0.244,0.245,0.188   c0.586-0.162,1.176-0.298,1.775-0.404c1.036-0.184,2.059-0.113,3.083,0.084c0.979,0.189,1.954,0.175,2.912-0.141   c0.067-0.018,0.085,0.013,0.073,0.074c-1.129,1.031-2.411,1.477-3.946,1.119c-1.233-0.288-2.474-0.565-3.756-0.545   c-0.275,0.006-0.41,0.049-0.394,0.383C58.458,39.616,58.429,40.257,58.424,40.896z" clip-rule="evenodd" fill-rule="evenodd"/><path fill="#B2A887" d="M68.232,30.999c-0.003-0.068-0.006-0.139-0.008-0.209   c0.011-0.049,0.039-0.086,0.062-0.016C68.309,30.851,68.296,30.935,68.232,30.999z" clip-rule="evenodd" fill-rule="evenodd"/><path fill="#A79E76" d="M66.523,38.022c-0.024-0.024-0.049-0.049-0.073-0.074   c0.045-0.051,0.126-0.111,0.164-0.065C66.675,37.956,66.574,37.985,66.523,38.022z" clip-rule="evenodd" fill-rule="evenodd"/></svg>