<svg xmlns="http://www.w3.org/2000/svg" version="1.1" id="Layer_1" x="0px" y="0px" width="70" height="70" viewBox="0 0 70 70" xml:space="preserve" style="enable-background:new 0 0 70 70;"><style type="text/css">
	.st0{fill:#EC1C24;}
	.st1{fill:#FFFFFF;}
</style><rect width="70" height="70.3" class="st0"/><g><g><path d="M23,24.6c-1.5,0-2.7,0.7-3.4,1.8c-0.7,1-1.1,2.3-1.1,3.5c0,1.9,1.2,3.1,3.2,3.1c1.2,0,2.3-0.3,2.9-0.6    L24.4,31c-0.4,0.2-1.3,0.5-2.2,0.5c-1.2,0-1.6-0.8-1.6-1.8l4.8,0c0.2-0.7,0.4-1.7,0.4-2.1C25.8,25.7,24.8,24.6,23,24.6z     M23.6,28.1l-2.8,0c0.1-0.4,0.1-0.5,0.3-0.9c0.4-0.8,1-1.3,1.6-1.3c0.6,0,1,0.4,1,1.2C23.7,27.5,23.7,27.9,23.6,28.1z" class="st1"/><polygon points="10.2,31.9 9.8,24.8 7.5,24.8 8.5,35.2 10.6,35.2 15.9,24.8 13.5,24.8   " class="st1"/><path d="M27.6,33c1.6,0,2-1.6,2-1.6c-0.1,0.1-0.4,0.1-0.7,0.1c-0.7,0-0.6-0.8-0.6-0.9l0.9-4.2l1.3,0l0.3-1.5l-1.3,0    c0,0,0.1-0.6,0.4-1.9c-1.6-0.3-2.5,0.7-2.5,0.7l-1.5,7C25.8,32.1,26.4,33,27.6,33z" class="st1"/><path d="M43.2,33c1.6,0,2-1.6,2-1.6c-0.1,0.1-0.4,0.1-0.7,0.1c-0.7,0-0.6-0.8-0.6-0.9l0.9-4.2l1.3,0l0.3-1.5l-1.3,0    c0,0,0.1-0.6,0.4-1.9c-1.6-0.3-2.5,0.7-2.5,0.7l-1.5,7C41.3,32.1,41.9,33,43.2,33z" class="st1"/><path d="M38.5,24.6c-1.5,0-2.7,0.7-3.4,1.8c-0.7,1-1.1,2.3-1.1,3.5c0,1.9,1.2,3.1,3.2,3.1c1.2,0,2.3-0.3,2.9-0.6    L39.9,31c-0.4,0.2-1.3,0.5-2.2,0.5c-1.2,0-1.6-0.8-1.6-1.8l4.8,0c0.2-0.7,0.4-1.7,0.4-2.1C41.3,25.7,40.3,24.6,38.5,24.6z     M39.1,28.1l-2.8,0c0.1-0.4,0.1-0.5,0.3-0.9c0.4-0.8,1-1.3,1.6-1.3c0.6,0,1,0.4,1,1.2C39.3,27.5,39.2,27.9,39.1,28.1z" class="st1"/><path d="M44.2,37.3l0.6-1.7c-1.4-0.2-3.2,0.1-4.2,0.6l-1.6,7.6l2.3,0l1.4-6.6C43,37,43.6,37,44.2,37.3z" class="st1"/><path d="M32.4,35.7l-6.3,10.4l2.3,0l1.3-2.3l3.2,0l0,2.3l2.3,0l-0.4-10.4L32.4,35.7z M30.7,42.9l2.4-4.3L33,42.9    L30.7,42.9z" class="st1"/><path d="M32.5,32.5l1.6-7.6l-2.3,0c0,0-0.9,4.3-1.4,6.6c-0.3,1.4-0.6,2-1,2.3c-1.1,1-3,1-4.1-0.2    c-0.2,1.4,1,2.8,3,2.8C30.4,36.4,32,34.8,32.5,32.5z" class="st1"/><polygon points="14.6,32.9 16.9,32.9 18.6,24.8 16.3,24.8   " class="st1"/><polygon points="35.5,43.8 37.9,43.8 39.6,35.7 37.2,35.7   " class="st1"/><path d="M43.4,42.3c-0.5,0-1,0.5-1,0.9c0,0.4,0.3,0.6,0.7,0.6c0.5,0,1-0.5,1-0.9C44.1,42.6,43.8,42.3,43.4,42.3z" class="st1"/><path d="M47.4,42.6c-0.5,0-0.8-0.4-0.8-1.1c0-0.6,0.2-1.4,0.5-1.9c0.3-0.5,0.7-0.8,1.2-0.8c0.3,0,0.5,0.1,0.6,0.2    l0.6-0.9c-0.2-0.2-0.8-0.4-1.5-0.4c-0.9,0-1.7,0.4-2.3,1.3c-0.5,0.7-0.8,1.8-0.8,2.7c0,1.4,0.8,2.3,2,2.3c0.7,0,1.2-0.2,1.5-0.4    l-0.1-1.1C48.1,42.5,47.7,42.6,47.4,42.6z" class="st1"/><path d="M52.1,37.7c-1.1,0-2,0.5-2.5,1.3c-0.5,0.7-0.8,1.8-0.8,2.7c0,1.3,0.7,2.2,2.2,2.2c1.1,0,2-0.5,2.5-1.3    c0.5-0.7,0.8-1.8,0.8-2.7C54.3,38.6,53.5,37.7,52.1,37.7z M52.1,41.8c-0.2,0.5-0.5,0.9-1,0.9c-0.5,0-0.6-0.4-0.6-0.9    c0-0.6,0.2-1.6,0.5-2.2c0.2-0.5,0.6-0.9,1-0.9c0.5,0,0.6,0.4,0.6,0.9C52.6,40.2,52.4,41.3,52.1,41.8z" class="st1"/><path d="M63.6,39.2c0-0.9-0.6-1.5-1.8-1.5c-1,0-1.8,0.3-2.2,0.6c-0.3-0.3-0.9-0.6-1.7-0.6c-1,0-1.8,0.2-2.6,0.4    l-1.2,5.7l1.8,0l1-5c0.2-0.1,0.5-0.1,0.7-0.1c0.5,0,0.8,0.2,0.8,0.6c0,0.1,0,0.1,0,0.2l-0.9,4.3l1.8,0l1-4.8    c0.2-0.2,0.5-0.3,0.8-0.3c0.5,0,0.7,0.2,0.7,0.6c0,0.1,0,0.1,0,0.2l-0.9,4.3l1.8,0l0.9-4.2C63.5,39.5,63.6,39.3,63.6,39.2z" class="st1"/></g></g></svg>