<svg xmlns="http://www.w3.org/2000/svg" id="Layer_1" width="70" height="70" x="0" y="0" version="1.1" viewBox="0 0 70 70" xml:space="preserve" style="enable-background:new 0 0 70 70"><style type="text/css">.st0{fill:#00a9da}.st1{fill:#3ea64b}.st2{fill:#1d1d1b}</style><g><rect width="12.2" height="6.1" x="1.6" y="30.5" class="st0"/><rect width="12.2" height="6.1" x="1.6" y="36.6" class="st1"/><path d="M31.1,32.9c0-0.1,0.1-0.3,0.3-0.3h5.3c0.1,0,0.3-0.1,0.3-0.3v-1.6c0-0.1-0.1-0.3-0.3-0.3H29 c-0.1,0-0.3,0.1-0.3,0.3v11.7c0,0.1,0.1,0.3,0.3,0.3h7.7c0.1,0,0.3-0.1,0.3-0.3v-1.6c0-0.1-0.1-0.3-0.3-0.3h-5.3 c-0.1,0-0.3-0.1-0.3-0.3v-2.8c0-0.1,0.1-0.3,0.3-0.3h4.8c0.1,0,0.3-0.1,0.3-0.3v-1.6c0-0.1-0.1-0.3-0.3-0.3h-4.8 c-0.1,0-0.2-0.1-0.2-0.3v0" class="st2"/><path d="M53.4,32.9c0-0.1,0.1-0.3,0.3-0.3h5.3c0.1,0,0.3-0.1,0.3-0.3v-1.6c0-0.1-0.1-0.3-0.3-0.3h-7.7 c-0.1,0-0.3,0.1-0.3,0.3v11.7c0,0.1,0.1,0.3,0.3,0.3h7.7c0.1,0,0.3-0.1,0.3-0.3v-1.6c0-0.1-0.1-0.3-0.3-0.3h-5.3 c-0.1,0-0.3-0.1-0.3-0.3v-2.8c0-0.1,0.1-0.3,0.3-0.3h4.8c0.1,0,0.3-0.1,0.3-0.3v-1.6c0-0.1-0.1-0.3-0.3-0.3h-4.8 c-0.1,0-0.2-0.1-0.2-0.3v0" class="st2"/><path d="M26.9,40.6H22c-0.1,0-0.3-0.1-0.3-0.3v-9.6c0-0.1-0.1-0.3-0.3-0.3h-1.9c-0.1,0-0.3,0.1-0.3,0.3v11.7 c0,0.1,0.1,0.3,0.3,0.3h7.3c0.1,0,0.3-0.1,0.3-0.3v-1.6C27.1,40.7,27,40.6,26.9,40.6" class="st2"/><path d="M69.1,40.6h-4.9c-0.1,0-0.3-0.1-0.3-0.3v-9.6c0-0.1-0.1-0.3-0.3-0.3h-1.9c-0.1,0-0.3,0.1-0.3,0.3v11.7 c0,0.1,0.1,0.3,0.3,0.3h7.3c0.1,0,0.3-0.1,0.3-0.3v-1.6C69.4,40.7,69.2,40.6,69.1,40.6" class="st2"/><path d="M49.4,30.5h-2c-0.1,0-0.2,0.1-0.2,0.2l0,0l-3,8c0,0,0,0,0,0l-0.1,0.2c0,0.1-0.1,0.1-0.2,0.1 c-0.1,0-0.1,0-0.2-0.1l-0.1-0.2c0,0,0,0,0,0l-3-8l0,0c0-0.1-0.1-0.1-0.2-0.1h-2c-0.1,0-0.3,0.1-0.3,0.3c0,0,0,0.1,0,0.1l0,0 l4.3,11.6l0,0.1c0,0.1,0.1,0.1,0.2,0.1H45c0.1,0,0.2-0.1,0.2-0.2c0,0,0,0,0,0l4.3-11.6l0,0c0,0,0-0.1,0-0.1 C49.6,30.6,49.5,30.5,49.4,30.5" class="st2"/></g></svg>