<svg xmlns="http://www.w3.org/2000/svg" version="1.1" id="Layer_1" x="0px" y="0px" width="70px" height="70px" viewBox="0 0 70 70" enable-background="new 0 0 70 70" xml:space="preserve"><metadata/><switch><g><rect width="70" fill="none" height="70"/><g><path fill="#D09933" d="M35,50.3c-0.6,0.3-4.8,3.9-13.2,3.9c-7.1,0-14.7-3.601-17-3.5c-0.8,0-1.5,0.1-2,0.399      c-1,0.4-1.6-0.199-1.5-0.8c0.1-0.6,0.9-1.6,1.5-2.399c0.7-0.9,1.8-2,3-2.801c3.4-2.3,6.5-2.3,7.9-2.1c0.2,0,0.8,0.1,1.8,1      c2.3,2.2,6.4,5,9.6,5.5c0.3,0,1.8,0.2,1.8-0.2c0-0.2-0.4-0.3-0.5-0.399c-5.1-1.2-8-3.601-10.9-6.2c-2.3-2.101-4-4.7-5.3-7.2      c-1-2-2.5-6-5.1-7.3c-0.6-0.3-0.6-1.4,0.6-1.6c0.9-0.2,6.1-0.7,12.3,2.7c2.4,1.3,3.2,2.8,3.3,3.2c0,0,0.1,0.1,0.2,0.7      c0.3,8.899,4.3,11.899,6.2,13.3c0.8,0.6,1.7,0.9,2,0.6c0.1-0.1-0.2-0.399-0.4-0.5c-5.5-3.6-6.5-8.3-6.8-13.399      c-0.3-5,1.8-9.4,3.2-13c0.2-0.5,1-2.8,0.4-4.8c-0.4-1.3,0-1.6,0.7-1.7c0.7-0.1,1.9,1.4,2.2,1.9c0,0.3,1,1.4,2.5,4.4      c2.9,5.8,3,12.2,3,13c-0.1,4.2-0.8,4.4-2.8,5.4C30,39,29,40.4,29,41.7s1,2.3,2.8,3.1c0.1,0,0.3,0.101,0.4,0.101      c0.8,0.199,1.5,0,1.5-0.301c0-0.3-0.8-0.399-0.8-0.399c-1.8-0.4-3-1.4-3-2.5c0-1.5,2.2-3.101,4.9-3.101H35h0.2      c2.7,0,4.899,1.601,4.899,3.101c0,1.1-1.199,2.1-3,2.5c0,0-0.8,0.1-0.8,0.399c0,0.301,0.7,0.5,1.4,0.301      c0.1,0,0.3-0.101,0.399-0.101C39.9,44,40.9,43,40.9,41.7S40,39.1,38.3,38.4c-2-1-2.8-1.2-2.8-5.4c0-0.7,0-7.2,2.9-13      c1.5-2.9,2.5-4.1,2.8-4.5c0.399-0.5,1.5-2,2.3-1.9c0.7,0.1,1.1,0.4,0.7,1.7c-0.601,2,0.2,4.2,0.399,4.8c1.301,3.6,3.5,7.9,3.2,13      s-1.3,9.8-6.8,13.4c-0.2,0.1-0.5,0.4-0.4,0.6c0.301,0.301,1.2,0,2-0.6c1.9-1.4,5.801-4.4,6.2-13.3c0-0.6,0.2-0.7,0.2-0.7      c0.1-0.4,0.9-1.8,3.3-3.2c6.2-3.4,11.4-2.9,12.3-2.7c1.2,0.3,1.2,1.4,0.601,1.6C62.6,29.5,61.1,33.5,60.1,35.5      c-1.3,2.5-3.1,5.1-5.3,7.2C52,45.3,49,47.8,43.9,48.9c-0.101,0-0.5,0.1-0.5,0.399c0,0.4,1.5,0.3,1.8,0.2c3.2-0.6,7.3-3.3,9.6-5.5      c1-0.9,1.5-1,1.8-1c1.4-0.2,4.5-0.2,7.801,2.1c1.199,0.801,2.3,1.801,3,2.801c0.6,0.8,1.399,1.8,1.5,2.399      C69,50.9,68.3,51.5,67.3,51.1c-0.5-0.199-1.2-0.399-2-0.399c-2.399-0.101-9.899,3.5-17,3.5C39.8,54.2,35.6,50.6,35,50.3z"/></g></g></switch></svg>