<svg xmlns="http://www.w3.org/2000/svg" id="Layer_1" width="70" height="70" x="0" y="0" version="1.1" viewBox="0 0 70 70" xml:space="preserve" style="enable-background:new 0 0 70 70"><style type="text/css">.st0{fill:#05b}</style><g><path d="M12.5,53h-0.8l2.4-4.5h0.8l2.3,4.5h-0.8l-0.6-1.1h-2.8L12.5,53z M14.7,49.5l-0.2-0.4l-0.2,0.4l-0.9,1.7h2.2 C15.6,51.3,14.7,49.5,14.7,49.5" class="st0"/><rect width=".7" height="4.5" x="17.8" y="48.5" class="st0"/><path d="M23.9,50.5c-0.1,0.3-0.4,0.5-0.8,0.5l1.4,2h-0.8l-1.3-1.9h-2.1V53h-0.7v-4.5h2.9c0.7,0,1.1,0.2,1.3,0.5 c0.1,0.2,0.2,0.4,0.2,0.8C24,50.1,24,50.4,23.9,50.5 M23.2,49.5c-0.1-0.2-0.4-0.3-0.8-0.3h-2.1v1.3h2.3c0.3,0,0.6-0.1,0.7-0.3 c0.1-0.1,0.1-0.3,0.1-0.4C23.3,49.7,23.3,49.6,23.2,49.5" class="st0"/><polygon points="25.1 53 25.1 48.5 25.8 48.5 25.8 52.4 29 52.4 29 53" class="st0"/><rect width=".7" height="4.5" x="29.6" y="48.5" class="st0"/><polygon points="35.1 53 32.1 49.5 32.1 53 31.4 53 31.4 48.5 32.2 48.5 35.2 52 35.2 48.5 35.9 48.5 35.9 53" class="st0"/><polygon points="37 53 37 48.5 41.1 48.5 41.1 49.2 37.7 49.2 37.7 50.4 41 50.4 41 51.1 37.7 51.1 37.7 52.4 41.2 52.4 41.2 53" class="st0"/><path d="M44.2,53.1c-1.4,0-2.1-0.3-2.4-0.9c-0.1-0.2-0.2-0.4-0.2-0.6h0.8c0,0.1,0,0.2,0.1,0.3c0.2,0.3,0.7,0.5,1.7,0.5 c1.2,0,1.6-0.3,1.6-0.7c0-0.4-0.3-0.6-1.4-0.7c-0.2,0-0.6-0.1-0.8-0.1c-1.3-0.2-1.8-0.5-1.8-1.2c0-0.7,0.7-1.3,2.3-1.3 c1.3,0,2,0.4,2.3,0.9c0.1,0.2,0.1,0.3,0.2,0.5h-0.8c0-0.1-0.1-0.2-0.1-0.3c-0.2-0.3-0.7-0.5-1.6-0.5c-1.1,0-1.5,0.2-1.5,0.6 c0,0.4,0.3,0.5,1.5,0.7c0.2,0,0.7,0.1,0.9,0.1c1.2,0.1,1.7,0.5,1.7,1.3C46.5,52.6,45.8,53.1,44.2,53.1" class="st0"/><path d="M47.3,23.2c-1.2-1.2-2.9-1.8-5.3-1.8c-2.5,0-4.1,0.6-5.3,1.9c-0.9,0.9-1.3,2.2-1.3,3.7c0,1.7,0.5,3,1.4,3.9 c1.1,1.1,2.8,1.7,5.2,1.7c2.4,0,4.2-0.6,5.3-1.8c0.8-0.9,1.3-2.2,1.3-3.9C48.6,25.4,48.2,24.2,47.3,23.2 M45.5,29.7 c-0.8,0.7-1.9,1.1-3.5,1.1c-1.5,0-2.6-0.3-3.4-1c-0.7-0.6-1.1-1.6-1.1-2.8c0-1.1,0.3-2.1,0.9-2.6c0.7-0.7,1.8-1.1,3.5-1.1 c1.7,0,2.8,0.4,3.5,1.1c0.6,0.6,0.9,1.6,0.9,2.6C46.4,28.2,46.1,29.1,45.5,29.7" class="st0"/><path d="M16.7,21.7L14,32.5h2.1l0.6-2.6h2.6l0.6,2.6h2.2l-2.5-10.9H16.7z M17.2,28.2c0.3-1.1,0.7-2.8,0.8-3.3 c0.1-0.4,0.2-1.3,0.2-1.3s0.1,0.9,0.2,1.3c0.1,0.5,0.4,2.2,0.7,3.3H17.2z" class="st0"/><path d="M11.1,29.6c-0.7,0.8-1.9,1.2-3.6,1.2c-1.5,0-3-0.4-3.8-1.4c-0.4-0.5-0.6-1.2-0.6-2.3c0-1,0.2-1.7,0.5-2.2 c0.6-1,2-1.5,3.8-1.5c1.9,0,3,0.5,3.6,1.2c0.3,0.3,0.5,0.7,0.6,1.2h2.2c0-0.5-0.2-1.2-0.6-1.8c-0.9-1.5-2.6-2.5-5.8-2.5 c-2.9,0-4.7,0.9-5.7,2.3c-0.6,0.8-0.9,1.9-0.9,3.4c0,1.6,0.4,2.7,1.1,3.5c1,1.3,2.8,2.1,5.6,2.1c3,0,4.8-0.9,5.6-2.3 c0.4-0.7,0.6-1.5,0.7-2h-2.2C11.6,28.8,11.4,29.3,11.1,29.6" class="st0"/><path d="M32.6,26.8c0.5-0.1,1.5-0.2,1.5-2.4c0-2.7-1.7-2.7-3.1-2.7h-7.8v10.9h8.1c1.5,0,3.3,0,3.3-3 C34.6,27,33.1,26.8,32.6,26.8 M25.3,23.4h5.6c0.6,0,1.2,0,1.2,1.3c0,1.4-0.6,1.4-1,1.4h-5.8V23.4z M31.2,30.7h-6v-2.8h6 c0.8,0,1.3,0,1.3,1.4C32.6,30.7,32.1,30.7,31.2,30.7" class="st0"/><polygon points="65.1 44.1 65.1 41.4 68.8 41.4 68.8 39.5 65.1 39.5 65.1 37 69 37 69 35.1 63 35.1 63 46 69.1 46 69.1 44.1" class="st0"/><path d="M48.1,40.1c0.2-0.4,0.3-1,0.3-1.9c0-0.9-0.2-1.6-0.4-2.1c-0.4-0.7-1.2-1.1-2.3-1.1h-4.3V46h2.1v-4.4h1.5 l1.5,4.4h2.3L47.1,41C47.5,40.9,47.9,40.6,48.1,40.1 M46.2,39.4c-0.1,0.2-0.4,0.4-0.7,0.4h-1.8V37h1.7c0.4,0,0.8,0.2,0.9,0.5 c0.1,0.2,0.1,0.6,0.1,1C46.3,38.8,46.3,39.2,46.2,39.4" class="st0"/><polygon points="24.5 43.3 22.7 35.1 20.5 35.1 23.2 46 25.8 46 28.6 35.1 26.4 35.1" class="st0"/><path d="M56.6,35.1h-6.5V46h6.6c2.4,0,3.8-0.7,4.5-2.1c0.5-0.8,0.7-1.8,0.7-3.5c0-1.6-0.2-2.6-0.7-3.4 C60.4,35.8,59,35.1,56.6,35.1 M59.3,42.9c-0.5,0.8-1.4,1.2-3.1,1.2h-4v-7.1h4.1c1.6,0,2.4,0.4,3,1.2c0.3,0.5,0.5,1.3,0.5,2.3 C59.7,41.5,59.6,42.4,59.3,42.9" class="st0"/><polygon points="31.7 41.4 39.7 41.4 39.7 39.5 31.7 39.5 31.7 37 39.9 37 39.9 35.1 29.6 35.1 29.6 46 40 46 40 44.1 31.7 44.1" class="st0"/></g></svg>