<svg xmlns="http://www.w3.org/2000/svg" version="1.1" id="Layer_1" x="0px" y="0px" width="536" height="536" viewBox="0 0 536 536" xml:space="preserve" style="enable-background:new 0 0 536 536;"><style type="text/css">
	.st0{fill:#E10125;}
	.st1{fill:#FEFEFE;}
	.st2{fill:#FEFDFC;}
	.st3{fill:#FEFCFC;}
	.st4{fill:#E20828;}
	.st5{fill:#E20728;}
	.st6{fill:#E20929;}
</style><path d="M-0.2,323.5V212.2h536v111.4H-0.2z M79.6,275.8c2.3,0,4.6,0,6.8,0c0.5-0.1,0.9-0.3,1.2-0.7  c4.4-4.9,6.9-11.1,7.3-17.6c0.1-0.8-0.2-1.3-1-1.5c-2.1-0.6-4.2-1.3-6.3-1.7c-8.1-1.5-16.1-0.9-24.2,0.1c-4.1,0.5-7.9,2.3-10.8,5.2  c-1.8,1.7-3.7,3.5-5.4,5.4c-8.3,9.2-14.6,19.9-20.3,30.8c-1,1.8-0.3,3.4,1.7,4c0.5,0.2,1,0.3,1.6,0.4c5.7,0.6,11.4,1.4,17.2,1.7  c11.5,0.6,22.9-0.3,34.3-1.7c6.6-0.8,12-3.1,16.1-8.5c6.6-8.8,13.6-17.3,20.1-26.2c5.3-7,9.6-14.7,12.8-22.9  c1.1-2.8,0.8-3.6-1.8-5.3c-0.9-0.6-1.9-1.1-3-1.4c-2.6-0.8-5.3-1.3-8-1.7c-10.9-1.2-21.9-1.4-32.9-0.6c-4.8,0.4-8.4,2.5-10.4,7  c-0.7,1.6-0.6,1.6,1.1,1.8c6.1,0.6,12.3,0.9,18.3,1.8c4.2,0.6,8.4,1.6,12.5,2.9c3.1,1,3.4,1.9,2.5,5.1  c-4.1,13.4-11.5,24.9-20.9,35.2c-1.3,1.6-3.3,2.5-5.4,2.4c-3.3-0.1-6.5-0.1-9.8-0.4c-5.4-0.4-10.6-1.8-15.4-4.1  c-1.7-0.8-2.1-1.7-1.6-3.4c2.4-7.1,5.8-13.6,11.2-18.8c1.5-1.3,3.5-1.9,5.4-1.6c2.7,0.3,5.3,1.3,7.6,2.9c2.6,1.7,2.9,2.3,1.8,5.3  C81.2,271.7,80.4,273.7,79.6,275.8z M187.2,283.8c-4.8,0-9.4,0.2-14,0c-7.2-0.3-14.5-0.7-21.7-1.5c-2.7-0.3-5.4-1.6-7.9-2.7  c-1.5-0.6-2.3-2.3-1.9-3.9c2-12,7.7-23,16.3-31.6c1.3-1.3,2.9-2.2,4.7-2.4c5.2-0.8,10.5-0.7,15.7,0.2c2.8,0.5,5.5,1.3,8.1,2.3  c1.6,0.5,2.3,1.8,2.3,3.6c0.2,6.2-2.2,11.6-5.8,16.5c-0.7,0.9-1.7,1.4-2.8,1.5c-1.7,0-3.3-0.2-4.9-0.7c-3.4-1-4.7-3.6-3.9-7  c0.4-1.9,0.7-3.8,1.1-5.8c-2.1,0-4-0.1-5.9,0c-0.7,0-1.3,0.4-1.7,0.9c-1.7,2.3-3.2,4.6-4.6,7.1c-1,2-1.7,4-2.1,6.2  c-0.6,2.3,0.1,3.6,2.3,4.6c1.4,0.6,2.9,1.1,4.4,1.3c7.4,1.4,14.8,0.7,22.2,0.5c4.5-0.1,7.5-2.1,10.2-5.5c5.6-7.2,9.7-15.2,13.2-23.5  c0.2-0.6,0.4-1.2,0.4-1.8c0.3-1.2-0.5-2.4-1.7-2.6c-0.1,0-0.2,0-0.2,0c-0.9-0.2-1.7-0.4-2.5-0.7c-12.8-3.7-25.9-4.3-39.1-3.6  c-3.8,0.2-7.5,0.4-11,2.4c-5.2,3-10,6.9-14,11.4c-9.5,10.3-16.6,22-22.9,34.3c-1.4,2.7-2.7,5.5-3.8,8.3c-0.9,2.5,0.3,4.4,2.9,4.8  c2,0.4,4,0.6,6,0.6c10.8-0.1,21.6-0.2,32.3-0.7c7.5-0.3,15-1.2,22.4-1.9c0.7,0,1.4-0.2,2-0.6C183.9,290.8,185.9,287.4,187.2,283.8  L187.2,283.8z M410.3,281h8.7c-0.7,5-1.4,9.8-2.1,14.6h13.8c2.1-14.2,4.1-28.3,6.2-42.4H423l-2.1,14.2h-8.7c0.7-4.8,1.4-9.5,2-14.2  h-13.7c-2.1,14.2-4.1,28.3-6.2,42.4h13.8C408.8,290.7,409.5,285.9,410.3,281L410.3,281z M276.8,253.4c-2,13.9-4.1,28.1-6.2,42.3h14  l2-13.5h0.3l4.2,13.4h16.5c-1.4-2.9-2.6-5.7-4-8.4c-1.4-2.7-2.7-5.4-4.2-8.2c0.2-0.1,0.7-0.3,1.1-0.5c2.5-1,4.7-2.4,6-4.9  c2-3.6,2.5-7.9,1.6-11.9c-1.1-4.7-5-8-10.6-8.2C290.7,253.2,283.9,253.4,276.8,253.4z M245.7,295.7c-2.6-14.3-5.2-28.4-7.8-42.6  h-1.4c-4.4,0-8.8,0-13.2,0c-0.8-0.1-1.6,0.4-1.8,1.2c-6.2,13.3-12.4,26.7-18.6,40.1c-0.2,0.4-0.3,0.8-0.5,1.3h15  c0.5-1.5,1-3,1.6-4.4c0.1-0.3,0.5-0.8,0.8-0.8c3.4,0,6.8,0,10.2,0c0.2,1.9,0.4,3.5,0.6,5.2L245.7,295.7z M347.5,295.7  c4.6,0,9,0,13.4,0c1.2,0,2-0.2,2.3-1.5c0.3-1,0.6-2,1.1-3c0.1-0.3,0.5-0.7,0.7-0.7c3.4,0,6.8,0,10.3,0c0.2,1.8,0.4,3.5,0.6,5.2h15.1  c-2.6-14.2-5.2-28.4-7.8-42.6c-4.9,0-9.7,0-14.5,0c-0.8-0.1-1.6,0.4-1.8,1.2c-4.2,9.2-8.5,18.4-12.8,27.5  C351.8,286.4,349.7,291,347.5,295.7L347.5,295.7z M355.1,266.9c0.7-4.7,1.3-9.2,2-13.7h-30c-0.7,4.6-1.3,9.1-1.9,13.5h7.8  c-1.4,9.6-2.8,19.2-4.2,28.9h14.3c1.4-9.7,2.8-19.4,4.2-29L355.1,266.9z M460.4,266.9l7.9-0.3c-1.4,9.7-2.8,19.3-4.2,29h14.3  c1.4-9.7,2.8-19.4,4.2-28.9h7.9c0.6-4.5,1.3-9,2-13.6h-30C461.8,257.8,461.1,262.3,460.4,266.9L460.4,266.9z M255.5,253.2  c-2.1,14.2-4.1,28.3-6.2,42.6c4.4,0,8.7,0,12.9,0c1.1,0,1.4-0.3,1.6-1.4c1.6-11.1,3.2-22.2,4.9-33.3c0.4-2.6,0.7-5.2,1.1-7.8  L255.5,253.2z M496.8,253.2c-2.1,14.2-4.1,28.4-6.2,42.5h14.3c2.1-14.2,4.1-28.3,6.2-42.5H496.8z M451.8,295.7l6.2-42.5h-14.3  c-2.1,14.2-4.1,28.3-6.2,42.5L451.8,295.7z" class="st0"/><path d="M-0.2,323.5h536V212.2c0.1,0.4,0.2,0.8,0.3,1.2c0,18.4,0,36.8,0,55.2v55.3H1.2C0.7,323.8,0.3,323.7-0.2,323.5z" class="st1"/><path d="M79.6,275.8c0.8-2.1,1.6-4.1,2.3-6.2c1-3,0.8-3.6-1.8-5.3c-2.2-1.6-4.8-2.6-7.6-2.9c-1.9-0.3-3.9,0.2-5.4,1.6  c-5.5,5.2-8.9,11.7-11.2,18.7c-0.6,1.7-0.1,2.6,1.6,3.4c4.8,2.4,10.1,3.8,15.4,4.2c3.2,0.3,6.5,0.3,9.8,0.4c2.1,0.1,4.1-0.8,5.4-2.4  c9.4-10.3,16.8-21.8,20.9-35.2c1-3.1,0.7-4.1-2.5-5.1c-4.1-1.3-8.3-2.3-12.5-2.9c-6.1-0.8-12.2-1.2-18.3-1.8  c-1.7-0.2-1.8-0.2-1.1-1.8c2-4.5,5.6-6.7,10.4-7c11-0.8,22-0.6,32.9,0.6c2.7,0.4,5.4,0.9,8,1.7c1.1,0.3,2.1,0.8,3,1.4  c2.6,1.7,2.8,2.4,1.8,5.3c-3.2,8.2-7.5,15.9-12.8,22.9c-6.5,8.9-13.5,17.4-20.1,26.2c-4.1,5.4-9.6,7.7-16.1,8.5  c-11.4,1.4-22.8,2.3-34.3,1.7c-5.7-0.3-11.4-1.1-17.2-1.7c-0.5-0.1-1.1-0.2-1.6-0.4c-2-0.7-2.6-2.2-1.7-4c5.7-11,12-21.6,20.3-30.8  c1.7-1.9,3.5-3.6,5.4-5.4c2.9-2.9,6.7-4.7,10.8-5.2c8.1-1,16.1-1.6,24.2-0.1c2.1,0.4,4.2,1.1,6.3,1.7c0.8,0.2,1.1,0.6,1,1.5  c-0.4,6.5-2.9,12.7-7.3,17.6c-0.3,0.4-0.7,0.6-1.2,0.7C84.1,275.9,81.9,275.8,79.6,275.8z" class="st2"/><path d="M187.2,283.8c-1.4,3.6-3.4,7-6,9.9c-0.6,0.4-1.3,0.7-2,0.6c-7.5,0.7-14.9,1.6-22.4,1.9  c-10.8,0.5-21.6,0.5-32.3,0.7c-2,0-4-0.2-6-0.6c-2.6-0.5-3.8-2.4-2.9-4.8c1.1-2.9,2.4-5.6,3.9-8.3c6.3-12.3,13.5-24,22.9-34.3  c4-4.5,8.8-8.4,14-11.4c3.5-2,7.2-2.2,11-2.4c13.2-0.7,26.3-0.1,39.2,3.6c0.8,0.2,1.7,0.5,2.5,0.7c1.2,0.1,2.1,1.2,1.9,2.4  c0,0.1,0,0.2,0,0.2c0,0.6-0.2,1.3-0.4,1.8c-3.5,8.3-7.6,16.3-13.2,23.5c-2.6,3.4-5.7,5.3-10.2,5.5c-7.4,0.2-14.8,0.9-22.2-0.5  c-1.5-0.3-3-0.7-4.4-1.4c-2.2-1-2.9-2.3-2.3-4.6c0.5-2.1,1.2-4.2,2.1-6.2c1.4-2.4,2.9-4.8,4.5-7.1c0.4-0.5,1-0.8,1.7-0.8  c1.9-0.1,3.8,0,5.9,0c-0.4,2-0.7,3.9-1.1,5.8c-0.8,3.5,0.6,6,3.9,7c1.6,0.5,3.2,0.8,4.9,0.7c1.1-0.1,2.1-0.7,2.8-1.5  c3.6-4.9,6-10.2,5.8-16.5c0-1.8-0.7-3.1-2.3-3.6c-2.6-1-5.4-1.7-8.1-2.2c-5.2-0.9-10.5-1-15.7-0.2c-1.8,0.2-3.5,1.1-4.7,2.4  c-8.6,8.6-14.3,19.6-16.2,31.5c-0.4,1.6,0.4,3.2,1.9,3.9c2.6,1.1,5.2,2.4,7.9,2.7c7.2,0.8,14.5,1.2,21.7,1.5  C177.8,284,182.4,283.8,187.2,283.8z" class="st2"/><path d="M410.3,281c-0.7,4.9-1.4,9.7-2.1,14.6h-13.8c2.1-14.1,4.1-28.3,6.2-42.5h13.8c-0.7,4.7-1.4,9.4-2,14.2h8.7  l2.1-14.2h13.8c-2.1,14.2-4.1,28.2-6.2,42.4h-13.8c0.7-4.8,1.4-9.7,2.1-14.6L410.3,281z" class="st2"/><path d="M276.8,253.4c7.1,0,13.9-0.2,20.6,0.1c5.6,0.2,9.5,3.5,10.6,8.2c0.9,4,0.4,8.3-1.6,11.9c-1.3,2.5-3.5,3.9-6,4.9  c-0.5,0.2-1,0.4-1.1,0.5c1.4,2.8,2.9,5.5,4.2,8.2s2.6,5.5,4,8.4h-16.5l-4.2-13.5h-0.3l-2,13.5h-14  C272.7,281.4,274.8,267.3,276.8,253.4z M289.1,264.8l-1.1,7.3c1.2-0.1,2.4-0.2,3.6-0.4c1.9-0.5,2.9-2.4,2.6-4.6  c-0.2-1.5-1.2-2.1-3.4-2.2C290.3,264.8,289.8,264.8,289.1,264.8z" class="st2"/><path d="M245.7,295.7h-15.1c-0.2-1.7-0.4-3.4-0.6-5.2c-3.4,0-6.8,0-10.2,0c-0.3,0-0.7,0.5-0.8,0.8  c-0.6,1.4-1.1,2.9-1.6,4.4h-15c0.2-0.5,0.3-0.9,0.5-1.3c6.2-13.3,12.4-26.7,18.6-40.1c0.2-0.8,1-1.3,1.8-1.2c4.4,0.1,8.8,0,13.2,0  h1.4C240.5,267.3,243.1,281.4,245.7,295.7z M228.2,267.5l-0.4-0.1c-1.5,4.2-2.9,8.5-4.4,12.8h5.6  C228.7,275.9,228.5,271.7,228.2,267.5z" class="st2"/><path d="M347.4,295.7c2.2-4.8,4.4-9.4,6.5-13.9c4.3-9.2,8.6-18.3,12.8-27.5c0.2-0.8,1-1.3,1.8-1.2c4.8,0,9.6,0,14.5,0  c2.6,14.2,5.2,28.3,7.8,42.6h-15c-0.2-1.7-0.4-3.4-0.6-5.2c-3.5,0-6.9,0-10.3,0c-0.2,0-0.6,0.4-0.7,0.7c-0.5,1-0.8,2-1.1,3  c-0.3,1.3-1,1.6-2.3,1.6C356.5,295.7,352.1,295.7,347.4,295.7z M374.2,280.2c-0.3-4.4-0.5-8.6-0.8-12.8l-0.4-0.1  c-1.5,4.3-3,8.5-4.5,12.9H374.2z" class="st2"/><path d="M355.1,267l-7.8-0.4c-1.4,9.7-2.8,19.3-4.2,29h-14.2c1.4-9.7,2.8-19.2,4.2-28.9h-7.8c0.6-4.4,1.3-8.9,1.9-13.5  h30C356.4,257.8,355.8,262.3,355.1,267z" class="st2"/><path d="M460.4,267c0.7-4.7,1.3-9.2,2-13.8h30c-0.7,4.6-1.3,9.1-2,13.6h-7.9c-1.4,9.5-2.8,19.2-4.2,28.9h-14.3  c1.4-9.7,2.8-19.3,4.2-29L460.4,267z" class="st2"/><path d="M255.5,253.2h14.3c-0.4,2.7-0.7,5.2-1.1,7.8c-1.6,11.1-3.3,22.2-4.9,33.3c-0.1,1.1-0.5,1.5-1.6,1.4  c-4.2-0.1-8.5,0-12.9,0C251.3,281.5,253.4,267.4,255.5,253.2z" class="st3"/><path d="M496.8,253.2H511c-2.1,14.2-4.1,28.3-6.2,42.5h-14.3C492.6,281.5,494.7,267.4,496.8,253.2z" class="st3"/><path d="M451.8,295.7h-14.3c2.1-14.2,4.1-28.3,6.2-42.5H458L451.8,295.7z" class="st3"/><path d="M289.1,264.8c0.6,0,1.2,0,1.7,0c2.2,0.1,3.2,0.8,3.4,2.2c0.3,2.2-0.7,4.1-2.6,4.6c-1.2,0.2-2.4,0.4-3.6,0.4  L289.1,264.8z" class="st4"/><path d="M228.2,267.5c0.3,4.2,0.5,8.4,0.8,12.7h-5.6c1.5-4.3,3-8.5,4.4-12.8L228.2,267.5z" class="st5"/><path d="M374.2,280.2h-5.6c1.5-4.3,3-8.6,4.5-12.9l0.4,0.1C373.6,271.6,373.9,275.8,374.2,280.2z" class="st6"/></svg>