<svg xmlns="http://www.w3.org/2000/svg" id="Layer_1" width="1080" height="1080" viewBox="0 0 1080 1080"><defs><style>.cls-1{fill:#f6e500;}.cls-2{fill:#008aab;}</style></defs><rect y="-1.18" width="1080" height="1080.48" class="cls-1"/><path d="M371.61,446.42c-19.25-4.27-39,30.75-61.62,68.52-18.45,30.83-26.31,43.43-39.32,43.43C259,558.37,253,545.75,243.51,520c-22.16-60.44-29.29-76.94-46.67-73.49-12.92,2.56-20.65,21.59-20.65,48.65,0,58.68,29,155.61,86,155.61,68.41,0,124.25-128.18,124.25-176.87,0-14.71-4.11-25.09-14.85-27.47" class="cls-2"/><path d="M710,446.42c-19.25-4.27-39,30.75-61.62,68.52-18.45,30.83-26.31,43.43-39.32,43.43-11.71,0-17.72-12.62-27.16-38.38-22.16-60.44-29.29-76.94-46.68-73.49-12.91,2.56-20.63,21.59-20.63,48.65,0,58.68,29,155.61,86,155.61,68.41,0,124.25-128.18,124.25-176.87,0-14.71-4.11-25.09-14.85-27.47" class="cls-2"/><path d="M838.84,446.06c-32.55,0-63.61,27.82-104.13,112-28.62,59.47-29.54,85.61-12.57,91.59,26.07,9.18,54.84-46.53,80-78.29,9.74-12.26,17.24-21,27.25-21s15.63,9.42,21.7,22.49c14.49,31.21,25.26,83.22,53.21,77.42,16.87-3.5,22.16-23.66,10.87-89.29C904.41,498.4,881,446,838.79,446" class="cls-2"/><path d="M455.12,446.06c-18.68,0-43.17,36.66-50.47,103.47S413,653,432.75,653c18.68,0,43.18-36.66,50.47-103.47s-8.3-103.47-28.1-103.47" class="cls-2"/></svg>