<svg xmlns="http://www.w3.org/2000/svg" version="1.1" id="Layer_1" x="0px" y="0px" width="70" height="70" viewBox="0 0 70 70" xml:space="preserve" style="enable-background:new 0 0 70 70;"><style type="text/css">
	.st0{fill:#C6C6C6;}
	.st1{fill:#FFFFFF;}
	.st2{fill:#142841;}
</style><circle cx="38.5" cy="38.9" r="30" class="st0"/><circle cx="35" cy="35" r="30" class="st1"/><g><path d="M44.3,19.4h-1.8c-0.7,0-1.4,0.3-1.9,0.8l-6.9,7.4L17.6,44.8c-0.4,0.5-0.7,1.1-0.7,1.7v0.2c0,0.8,0.4,1.5,1,2.1   c1.2,1.1,3,1.1,4,0l11.8-12.6l6.6-7c0.9-0.8,1.1,0.3,1.1,0.6v17.1c0,1.5,1.3,2.8,3,2.8c1.6,0,2.9-1.2,2.9-2.8V22.2   C47.3,20.7,45.9,19.4,44.3,19.4 M37.8,43.7h-8.1c-1.5,0-2.8,1.3-2.8,3c0,1.6,1.2,3,2.8,3h8.1c1.5,0,2.8-1.3,2.8-3   C40.5,45.1,39.3,43.7,37.8,43.7" class="st2"/></g></svg>