<svg xmlns="http://www.w3.org/2000/svg" id="Layer_1" width="70" height="70" x="0" y="0" enable-background="new 0 0 70 70" version="1.1" viewBox="0 0 70 70" xml:space="preserve"><metadata/><switch><g><g><g><defs><path id="SVGID_1_" d="M1.399,13.35l22,43c0.8,1.7,2,2.4,3.5,2.4h28.7c1.3,0,2.1-0.7,2.7-1.9l3.899-8.8l4.7-10.399l-26.7-22.5 c-1.699-1.4-3-1.801-5.199-1.801H1.399L1.399,13.35z"/></defs><clipPath id="SVGID_2_"><use xmlns:xlink="http://www.w3.org/1999/xlink" overflow="visible" xlink:href="#SVGID_1_"/></clipPath><linearGradient id="SVGID_3_" x1="-122.576" x2="-121.514" y1="-222.87" y2="-222.87" gradientTransform="matrix(21.0721 -24.2892 -24.3103 -21.046 -2813.9551 -7620.1025)" gradientUnits="userSpaceOnUse"><stop offset="0" style="stop-color:#b92536"/><stop offset=".261" style="stop-color:#c7203b"/><stop offset=".595" style="stop-color:#d61e3f"/><stop offset=".904" style="stop-color:#dc2140"/><stop offset=".934" style="stop-color:#e14b51"/><stop offset="1" style="stop-color:#ed9387"/></linearGradient><polygon fill="url(#SVGID_3_)" points="36.712 89.333 88.306 29.979 29.188 -21.232 -22.398 38.219" clip-path="url(#SVGID_2_)"/></g><g><path fill="#FFF" d="M33.549,22.9c1-1,0.801-2.101,0-2.601c-0.699-0.5-1.299-0.3-2.1,0.5c-0.8,0.8-2.8,6.5-4.1,10.8 C26.049,35.9,24.549,44.4,24.549,44.4c-0.1-1.301-1.399-7.801-1.6-9.601C22.75,33,22.25,32.9,21.649,32.9s-0.7,0.5-0.899,0.899 c-0.201,0.4-1.9,5.9-2.4,6.8c-0.2,0.4-0.2,1.2,0.199,1.301c0.4,0.199,1,0,1.201-0.601c0.199-0.6,1.5-3.8,1.5-3.8 s0.299,0.6,0.5,1.9c0.1,1.3,1,6.8,1.399,9.199c0.399,2.4,0.5,3.601,1.5,3.5c1-0.1,1.2-4,1.8-9s2.7-12.1,4-15.1 C31.85,25.1,32.549,23.9,33.549,22.9z"/><path fill="#FFF" d="M30.049,37.8c-0.6,0.2-1,1.4-1,2.2c0,0-0.199,3.7-0.199,4.7s0.699,0.8,1.199,0.5s0.601-0.7,0.701-1.2 c0.1-0.5,0.5-4.7,0.5-5.6C31.149,37.3,30.649,37.6,30.049,37.8z"/><path fill="#FFF" d="M31.949,33.4c-0.199-0.4-0.699-0.2-1.1,0.1s-0.9,0.8-0.7,1.3s0.601,0.4,1.3,0 C32.049,34.5,32.25,34,31.949,33.4z"/><path fill="#FFF" d="M45.649,37.7c0.5-0.2,0.6-0.7,0.6-1.2c0.101-0.5,0.4-4.4,0.4-5.3c0-0.9-0.5-0.601-1.1-0.4 c-0.601,0.2-1,1.3-1,2c0,0-0.2,3.5-0.101,4.4C44.449,38.2,45.149,38,45.649,37.7z"/><path fill="#FFF" d="M46.85,28.4c0.7-0.4,0.899-0.9,0.5-1.4c-0.3-0.3-0.7-0.2-1.101,0.1c-0.399,0.301-0.899,0.7-0.699,1.2 C45.85,28.9,46.249,28.8,46.85,28.4z"/><path fill="#FFF" d="M32.85,37.5c-0.1,0.6-0.301,3.8-0.301,4.8s0.4,1.2,1.101,1s0.8-1,0.899-1.6 c0.101-0.601,0.101-1.4,0.101-2.2s0.4-1.9,1.1-2.4c0.801-0.5,0.801-1,0.601-1.399c-0.2-0.4-0.5-0.3-0.8-0.101 c-0.301,0.2-0.8,0.5-1.501,0.4C33.35,36,32.949,36.9,32.85,37.5z"/><path fill="#FFF" d="M58.149,33.2c-0.1-0.601-0.8-0.7-1.3-0.5c-0.5,0.1-2,1.1-2.5,1.1s-0.5-0.6-0.5-1c0-0.5,0-2.8,0-3.7 c0-0.899,0.1-1.399-0.9-1.399s-1.6,1.1-2.1,1.399c-0.5,0.301-0.7,0.101-1.601,0.2c-0.899,0.101-1,0.7-1.1,1.101 c-0.1,0.399-0.3,2.699-0.3,4.399s0.399,1.5,1,1.3c0.7-0.199,0.899-0.899,0.899-1.199c0-0.301,0.101-1.9,0.2-2.9 c0.101-1,0.8-2.1,1.601-2.3c0.8-0.2,0.399,2.1,0.3,3.7c0,1.6,0.6,1.6,0.6,1.6s-2.899,1.6-5.2,2.9c-2.3,1.3-4.8,3-4.8,3 s0.3-5.9,0.4-7.2c0.1-1.3-0.101-1.3-0.7-1.3c-0.5,0-1.1,0.5-1.1,1s-0.301,3.5-0.4,4.6s-0.8,1.8-1.4,1.8c-0.6,0-0.3-1.3-0.3-2.3 c0-0.9,0.7-2.7,1.101-3c0.399-0.3,0.5-0.9,0.399-1.2c-0.2-0.3-0.8-0.1-1.7,0.5c-0.899,0.7-1.5,2.3-1.5,4.601 c-0.1,2.199,0.301,2.899,1.2,3.1c0.9,0.2,2.3-0.8,2.3-0.8l0.101,1.1c0,0-4.101,2.9-5.9,4.3c-1.8,1.5-6.8,5.801-7.1,6.2 c-0.301,0.4-0.9,1.101-0.2,1.9s1.601-0.101,2.399-0.9c0.801-0.8,3.4-3.6,5.4-5.3s5.3-4.1,5.3-4.1s0,2.8,0,4.399 c0,1.601-0.1,3.9-0.199,5.101c-0.101,1.199,0.5,2.199,1.199,2.1c0.7,0,1.101-0.2,1.101-1.3c0-1.2-0.5-2.3-0.5-3.7 c0-1.3,0.1-7.9,0.1-7.9s8.7-5.399,10.2-6.199c1.5-0.801,3-1.301,4.1-1.601C58.05,34.7,58.249,33.8,58.149,33.2z"/></g></g><rect width="70" height="70" x="-.5" y="-.5" fill="none"/></g></switch></svg>