<svg xmlns="http://www.w3.org/2000/svg" id="Layer_1" width="70" height="70" x="0" y="0" enable-background="new 0 0 70 70" version="1.1" viewBox="0 0 70 70" xml:space="preserve"><metadata/><switch><g><rect width="70" height="70" fill="none"/><g id="_x23_757575ff"><path fill="#777" d="M34.7,20.9c0.5-0.1,1-0.1,1.399,0.3c0.301,0.3,0.5,0.7,0.5,1.2c0,4.2,0,8.3,0,12.5 c0,0.6,0.101,1.3-0.3,1.9c-0.399,0.601-1.2,0.7-1.8,0.4c-0.5-0.2-0.7-0.8-0.7-1.3c0-4.3,0-8.601,0-12.9c0-0.4,0-0.8,0.1-1.2 C34,21.4,34.3,21.1,34.7,20.9z"/><path fill="#777" d="M23.6,28.8c0.7-1,1.9-1.6,3.1-1.8c1.3-0.1,2.7,0.1,3.7,1c0.9,0.8,1.3,2.1,1.4,3.3c0,0.5,0.1,1-0.2,1.4 c-0.2,0.3-0.6,0.4-1,0.4c-1.8,0-3.6,0-5.4,0c0.1,0.7,0.4,1.4,1.1,1.7c0.9,0.4,2,0.2,2.9-0.1c0.4-0.1,0.7-0.2,1.1-0.2 c0.5,0.1,0.9,0.7,0.9,1.2c-0.1,0.399-0.4,0.7-0.7,0.899c-0.6,0.301-1.3,0.5-2.1,0.601c-1.3,0.2-2.8,0.1-3.9-0.7 c-1.1-0.7-1.8-2-1.9-3.4S22.7,30.1,23.6,28.8 M26.3,29.4c-0.7,0.4-0.8,1.2-0.9,1.9c1.3,0,2.6,0,3.9,0c0-0.7-0.3-1.5-1-1.9 C27.7,29.1,26.9,29.1,26.3,29.4z"/><path fill="#777" d="M12.8,27.1c0.5-0.1,1.1-0.1,1.4,0.3c0.3,0.3,0.4,0.7,0.4,1.2c0,1.5,0,3.1,0,4.6c0,0.6,0.2,1.2,0.7,1.5 c0.4,0.3,1,0.3,1.5,0.2c0.4-0.1,0.8-0.3,1.1-0.6c0.3-0.4,0.3-0.9,0.3-1.4c0-1.5,0-3,0-4.5c0-0.5,0.3-1.1,0.8-1.3 c0.5-0.2,1.2-0.1,1.6,0.4c0.3,0.3,0.4,0.8,0.3,1.3c0,1.4,0,2.8,0,4.2c0,1.2-0.4,2.5-1.3,3.3c-1,0.9-2.4,1.101-3.7,1.101 c-1.2,0-2.4-0.4-3.2-1.301c-0.7-0.8-1-2-1-3.1c0-1.5,0-3,0-4.5C11.8,27.9,12.2,27.3,12.8,27.1z"/><path fill="#777" d="M47.1,27.1c1.301-0.2,2.7-0.1,3.9,0.6c0.8,0.5,1.3,1.3,1.6,2.2c0.2,0.6,0.2,1.2,0.2,1.8c0,1.3,0,2.7,0,4 c0,0.399-0.1,0.899-0.5,1.2c-0.5,0.399-1.3,0.5-1.8,0C50.2,36.6,50,36.2,50,35.7c0-1.3,0-2.7,0-4c0-0.6,0-1.2-0.3-1.7 c-0.3-0.4-0.8-0.6-1.3-0.7c-0.5,0-1.101,0.1-1.4,0.4c-0.3,0.3-0.5,0.9-0.5,1.3c0,1.5,0,3,0,4.6c0,0.4-0.1,0.7-0.3,1 C45.7,37.2,44.7,37.3,44.1,36.7C43.8,36.4,43.7,36,43.7,35.6c0-1,0-2,0-3.1c0-0.9-0.101-1.9,0.2-2.8c0.199-0.9,0.699-1.7,1.5-2.2 C45.8,27.5,46.5,27.2,47.1,27.1z"/><path fill="#777" d="M56.2,28.2c1-0.8,2.3-1.2,3.5-1.2s2.5,0.3,3.6,0.9c0.5,0.3,0.9,0.8,0.9,1.4c0,2.9,0,5.8,0,8.7 c0,1.3-0.4,2.7-1.5,3.6c-1,0.9-2.4,1.101-3.7,1.101c-1,0-2-0.3-2.9-0.8c-0.3-0.2-0.6-0.5-0.8-0.801C55,40.5,55.4,39.6,56,39.4 c0.5-0.101,1,0.199,1.4,0.399c0.6,0.3,1.3,0.4,2,0.4C60,40.2,60.6,40.1,61,39.6c0.4-0.399,0.5-1,0.5-1.5s0-1,0-1.5 c-0.8,0.7-1.9,0.9-2.9,0.801c-1.1-0.101-2.1-0.5-2.8-1.4c-1-1.1-1.3-2.7-1.2-4.1C54.6,30.5,55.2,29.1,56.2,28.2 M59.1,29.5 c-0.399,0.1-0.8,0.3-1.1,0.6c-0.6,0.6-0.7,1.5-0.7,2.2c0,0.7,0.101,1.5,0.5,2.1c0.4,0.5,1.101,0.7,1.8,0.6 c0.601,0,1.2-0.4,1.5-0.9c0.5-1,0.301-2.2,0.4-3.2c0-0.3,0.1-0.7-0.2-0.9C60.6,29.4,59.8,29.4,59.1,29.5z"/><path fill="#777" d="M1.5,27.9c0.3-0.6,1-0.8,1.6-0.7c0.5,0.1,0.8,0.5,0.9,1c0.6,1.9,1.1,3.7,1.7,5.6c0,0.1,0.1,0.2,0.1,0.3 c0.6-1.9,1.1-3.8,1.7-5.7c0.1-0.4,0.3-0.8,0.7-1c0.6-0.3,1.5-0.1,1.9,0.5c0.2,0.4,0.2,0.9,0,1.4c-0.8,2.2-1.6,4.4-2.3,6.601 C7.6,36.3,7.5,36.8,7.2,37.1c-0.3,0.301-0.8,0.4-1.3,0.4s-1,0-1.4-0.4C4.2,36.8,4,36.3,3.8,35.9C3,33.7,2.3,31.5,1.5,29.3 C1.3,28.7,1.3,28.3,1.5,27.9z"/><path fill="#777" d="M39.6,27.3c0.601-0.2,1.301-0.1,1.7,0.5c0.2,0.3,0.3,0.7,0.3,1c0,2.3,0,4.7,0,7 c0,0.4-0.1,0.8-0.399,1.101c-0.5,0.6-1.5,0.6-2.101,0c-0.3-0.301-0.399-0.7-0.399-1c0-2.4,0-4.8,0-7.3 C38.8,28,39.1,27.5,39.6,27.3z"/></g><g id="_x23_fbe666ff"><path fill="#FFCE0C" d="M66,21.9c0.4-0.1,0.9-0.1,1.4,0c0.6,0.2,1,0.7,1.1,1.2s0,1-0.3,1.4c-0.601,0.8-1.9,0.9-2.7,0.4 C64.5,24.2,64.8,22.3,66,21.9z"/></g></g></switch></svg>