<svg xmlns="http://www.w3.org/2000/svg" version="1.1" width="70px" height="70px" viewBox="0 0 70 70"><defs><linearGradient id="linear0" gradientUnits="userSpaceOnUse" x1="35" x2="35" y1="-2" y2="69.110001"><stop offset="0" style="stop-color:rgb(72.941176%,12.54902%,14.509804%);stop-opacity:1;"/><stop offset="0.29" style="stop-color:rgb(85.490196%,16.470588%,14.117647%);stop-opacity:1;"/><stop offset="0.49" style="stop-color:rgb(93.333333%,19.215686%,14.117647%);stop-opacity:1;"/><stop offset="0.71" style="stop-color:rgb(85.490196%,16.470588%,14.117647%);stop-opacity:1;"/><stop offset="1" style="stop-color:rgb(72.941176%,12.54902%,14.509804%);stop-opacity:1;"/></linearGradient><clipPath id="clip1"><path d="M 62 60 L 70 60 L 70 70 L 62 70 Z M 62 60 "/></clipPath><clipPath id="clip2"><path d="M 62.308594 70 L 70 70 L 70 60.871094 C 67.960938 64.238281 65.320312 67.371094 62.308594 70 "/></clipPath><linearGradient id="linear1" gradientTransform="matrix(29.459999,0,0,-29.459999,-69694.65625,17185.330078)" gradientUnits="userSpaceOnUse" x1="2367.540039" x2="2367.810059" y1="581.049988" y2="581.049988"><stop offset="0" style="stop-color:rgb(55.294118%,77.647059%,24.705882%);stop-opacity:1;"/><stop offset="0.24" style="stop-color:rgb(63.921569%,79.215686%,19.607843%);stop-opacity:1;"/><stop offset="0.74" style="stop-color:rgb(86.666667%,83.921569%,7.058824%);stop-opacity:1;"/><stop offset="1" style="stop-color:rgb(100%,86.666667%,0%);stop-opacity:1;"/></linearGradient><clipPath id="clip3"><path d="M 48 46 L 70 46 L 70 67 L 48 67 Z M 48 46 "/></clipPath><clipPath id="clip4"><path d="M 48.890625 66.988281 C 55.761719 64.921875 63.351562 61.351562 69.328125 55.058594 C 69.359375 55.03125 69.378906 55.011719 69.410156 54.980469 C 69.601562 54.769531 69.800781 54.558594 69.988281 54.351562 L 69.988281 46.671875 C 68.230469 53.230469 60.019531 62.640625 48.878906 66.988281 "/></clipPath><linearGradient id="linear2" gradientTransform="matrix(-51.437447,41.386339,41.386339,51.437447,107416.847082,-132250.986619)" gradientUnits="userSpaceOnUse" x1="2523.169922" x2="2523.439941" y1="542.039978" y2="542.039978"><stop offset="0" style="stop-color:rgb(55.294118%,77.647059%,24.705882%);stop-opacity:1;"/><stop offset="0.24" style="stop-color:rgb(63.921569%,79.215686%,19.607843%);stop-opacity:1;"/><stop offset="0.74" style="stop-color:rgb(86.666667%,83.921569%,7.058824%);stop-opacity:1;"/><stop offset="1" style="stop-color:rgb(100%,86.666667%,0%);stop-opacity:1;"/><stop offset="1" style="stop-color:rgb(100%,86.666667%,0%);stop-opacity:1;"/></linearGradient><clipPath id="clip5"><path d="M 31 54 L 70 54 L 70 70 L 31 70 Z M 31 54 "/></clipPath><clipPath id="clip6"><path d="M 31.730469 70 L 62.320312 70 C 65.328125 67.371094 67.96875 64.238281 70.011719 60.871094 L 70.011719 54.339844 C 57.328125 68.410156 36.671875 69.511719 31.738281 70 "/></clipPath><linearGradient id="linear3" gradientTransform="matrix(60.210323,-37.945825,-37.945825,-60.210323,-124245.060102,129142.935119)" gradientUnits="userSpaceOnUse" x1="2444.590088" x2="2444.850098" y1="603.27002" y2="603.27002"><stop offset="0" style="stop-color:rgb(55.294118%,77.647059%,24.705882%);stop-opacity:1;"/><stop offset="0" style="stop-color:rgb(55.294118%,77.647059%,24.705882%);stop-opacity:1;"/><stop offset="0.24" style="stop-color:rgb(63.921569%,79.215686%,19.607843%);stop-opacity:1;"/><stop offset="0.74" style="stop-color:rgb(86.666667%,83.921569%,7.058824%);stop-opacity:1;"/><stop offset="1" style="stop-color:rgb(100%,86.666667%,0%);stop-opacity:1;"/><stop offset="1" style="stop-color:rgb(100%,86.666667%,0%);stop-opacity:1;"/></linearGradient></defs><g id="surface1"><rect x="0" y="0" width="70" height="70" style="fill:url(#linear0);stroke:none;"/><path d="M 29.820312 35.421875 L 29.820312 34.609375 L 34.640625 34.609375 L 34.640625 35.421875 L 32.699219 35.421875 L 32.699219 40.839844 L 31.761719 40.839844 L 31.761719 35.421875 Z M 29.820312 35.421875 " style=" stroke:none;fill-rule:nonzero;fill:rgb(34.509805%,34.901962%,35.686275%);fill-opacity:1;"/><path d="M 36.371094 38.070312 L 36.371094 40.839844 L 35.460938 40.839844 L 35.460938 34.609375 L 36.359375 34.609375 L 36.359375 36.929688 L 36.421875 36.929688 C 36.53125 36.679688 36.699219 36.480469 36.921875 36.328125 C 37.148438 36.179688 37.441406 36.109375 37.800781 36.109375 C 38.121094 36.109375 38.398438 36.179688 38.640625 36.308594 C 38.878906 36.441406 39.070312 36.640625 39.199219 36.898438 C 39.328125 37.160156 39.398438 37.488281 39.398438 37.871094 L 39.398438 40.839844 L 38.488281 40.839844 L 38.488281 37.980469 C 38.488281 37.640625 38.398438 37.371094 38.230469 37.179688 C 38.050781 36.988281 37.808594 36.898438 37.488281 36.898438 C 37.28125 36.898438 37.078125 36.949219 36.910156 37.039062 C 36.738281 37.128906 36.609375 37.261719 36.511719 37.441406 C 36.410156 37.621094 36.371094 37.828125 36.371094 38.070312 " style=" stroke:none;fill-rule:nonzero;fill:rgb(34.509805%,34.901962%,35.686275%);fill-opacity:1;"/><path d="M 41.808594 40.941406 C 41.511719 40.941406 41.25 40.878906 41.011719 40.769531 C 40.769531 40.660156 40.578125 40.5 40.441406 40.289062 C 40.300781 40.078125 40.230469 39.820312 40.230469 39.511719 C 40.230469 39.25 40.28125 39.03125 40.378906 38.859375 C 40.480469 38.691406 40.621094 38.550781 40.789062 38.460938 C 40.960938 38.359375 41.148438 38.289062 41.371094 38.230469 C 41.578125 38.179688 41.800781 38.140625 42.019531 38.109375 C 42.300781 38.078125 42.53125 38.050781 42.699219 38.03125 C 42.871094 38.011719 43 37.96875 43.078125 37.929688 C 43.160156 37.878906 43.199219 37.800781 43.199219 37.691406 L 43.199219 37.671875 C 43.199219 37.398438 43.128906 37.199219 42.980469 37.050781 C 42.828125 36.898438 42.609375 36.828125 42.320312 36.828125 C 42.03125 36.828125 41.769531 36.898438 41.601562 37.03125 C 41.421875 37.171875 41.300781 37.308594 41.238281 37.480469 L 40.390625 37.289062 C 40.488281 37.011719 40.640625 36.78125 40.839844 36.601562 C 41.039062 36.421875 41.261719 36.300781 41.519531 36.21875 C 41.78125 36.140625 42.039062 36.101562 42.328125 36.101562 C 42.519531 36.101562 42.710938 36.121094 42.921875 36.171875 C 43.128906 36.210938 43.328125 36.289062 43.511719 36.410156 C 43.691406 36.53125 43.839844 36.691406 43.960938 36.898438 C 44.078125 37.109375 44.140625 37.390625 44.140625 37.730469 L 44.140625 40.828125 L 43.25 40.828125 L 43.25 40.191406 L 43.210938 40.191406 C 43.148438 40.308594 43.058594 40.421875 42.949219 40.539062 C 42.828125 40.648438 42.679688 40.75 42.5 40.820312 C 42.320312 40.890625 42.089844 40.929688 41.839844 40.929688 M 42 40.21875 C 42.25 40.21875 42.46875 40.171875 42.648438 40.070312 C 42.828125 39.96875 42.96875 39.839844 43.058594 39.679688 C 43.148438 39.519531 43.199219 39.351562 43.199219 39.160156 L 43.199219 38.558594 C 43.199219 38.558594 43.109375 38.621094 43.011719 38.648438 C 42.921875 38.679688 42.808594 38.699219 42.699219 38.71875 C 42.578125 38.738281 42.46875 38.761719 42.359375 38.769531 C 42.25 38.789062 42.160156 38.800781 42.078125 38.808594 C 41.898438 38.828125 41.738281 38.871094 41.601562 38.921875 C 41.449219 38.96875 41.339844 39.050781 41.25 39.148438 C 41.160156 39.25 41.121094 39.378906 41.121094 39.539062 C 41.121094 39.769531 41.199219 39.941406 41.371094 40.050781 C 41.539062 40.160156 41.75 40.21875 42.011719 40.21875 " style=" stroke:none;fill-rule:nonzero;fill:rgb(34.509805%,34.901962%,35.686275%);fill-opacity:1;"/><path d="M 45.609375 35.449219 C 45.449219 35.449219 45.320312 35.398438 45.199219 35.289062 C 45.089844 35.179688 45.03125 35.058594 45.03125 34.910156 C 45.03125 34.761719 45.089844 34.628906 45.199219 34.53125 C 45.308594 34.421875 45.449219 34.371094 45.609375 34.371094 C 45.769531 34.371094 45.898438 34.421875 46.019531 34.53125 C 46.128906 34.640625 46.191406 34.761719 46.191406 34.910156 C 46.191406 35.058594 46.128906 35.191406 46.019531 35.289062 C 45.910156 35.398438 45.769531 35.449219 45.609375 35.449219 M 45.148438 36.171875 L 46.058594 36.171875 L 46.058594 40.839844 L 45.148438 40.839844 Z M 45.148438 36.171875 " style=" stroke:none;fill-rule:nonzero;fill:rgb(34.509805%,34.901962%,35.686275%);fill-opacity:1;"/><path d="M 47.109375 34.609375 L 48.019531 34.609375 L 48.019531 40.839844 L 47.109375 40.839844 Z M 47.109375 34.609375 " style=" stroke:none;fill-rule:nonzero;fill:rgb(34.509805%,34.901962%,35.686275%);fill-opacity:1;"/><path d="M 50.429688 40.941406 C 50.128906 40.941406 49.871094 40.878906 49.628906 40.769531 C 49.390625 40.660156 49.199219 40.5 49.058594 40.289062 C 48.921875 40.078125 48.851562 39.820312 48.851562 39.511719 C 48.851562 39.25 48.898438 39.03125 49 38.859375 C 49.101562 38.691406 49.238281 38.550781 49.410156 38.460938 C 49.578125 38.359375 49.769531 38.289062 49.988281 38.230469 C 50.199219 38.179688 50.421875 38.140625 50.640625 38.109375 C 50.921875 38.078125 51.148438 38.050781 51.320312 38.03125 C 51.488281 38.011719 51.621094 37.96875 51.699219 37.929688 C 51.78125 37.878906 51.820312 37.800781 51.820312 37.691406 L 51.820312 37.671875 C 51.820312 37.398438 51.75 37.199219 51.601562 37.050781 C 51.449219 36.898438 51.230469 36.828125 50.941406 36.828125 C 50.648438 36.828125 50.390625 36.898438 50.21875 37.03125 C 50.039062 37.171875 49.921875 37.308594 49.859375 37.480469 L 49 37.289062 C 49.101562 37.011719 49.25 36.78125 49.449219 36.601562 C 49.648438 36.421875 49.871094 36.300781 50.128906 36.21875 C 50.390625 36.140625 50.648438 36.101562 50.941406 36.101562 C 51.128906 36.101562 51.320312 36.121094 51.53125 36.171875 C 51.738281 36.210938 51.941406 36.289062 52.121094 36.410156 C 52.300781 36.53125 52.449219 36.691406 52.570312 36.898438 C 52.691406 37.109375 52.75 37.390625 52.75 37.730469 L 52.75 40.828125 L 51.859375 40.828125 L 51.859375 40.191406 L 51.820312 40.191406 C 51.761719 40.308594 51.671875 40.421875 51.558594 40.539062 C 51.441406 40.648438 51.289062 40.75 51.109375 40.820312 C 50.929688 40.890625 50.699219 40.929688 50.449219 40.929688 M 50.628906 40.21875 C 50.878906 40.21875 51.101562 40.171875 51.28125 40.070312 C 51.460938 39.96875 51.601562 39.839844 51.691406 39.679688 C 51.78125 39.519531 51.828125 39.351562 51.828125 39.160156 L 51.828125 38.558594 C 51.828125 38.558594 51.738281 38.621094 51.640625 38.648438 C 51.550781 38.679688 51.441406 38.699219 51.328125 38.71875 C 51.210938 38.738281 51.101562 38.761719 50.988281 38.769531 C 50.878906 38.789062 50.789062 38.800781 50.710938 38.808594 C 50.53125 38.828125 50.371094 38.871094 50.230469 38.921875 C 50.089844 38.96875 49.96875 39.050781 49.878906 39.148438 C 49.789062 39.25 49.75 39.378906 49.75 39.539062 C 49.75 39.769531 49.828125 39.941406 50 40.050781 C 50.171875 40.160156 50.378906 40.21875 50.640625 40.21875 " style=" stroke:none;fill-rule:nonzero;fill:rgb(34.509805%,34.901962%,35.686275%);fill-opacity:1;"/><path d="M 54.691406 38.070312 L 54.691406 40.839844 L 53.78125 40.839844 L 53.78125 36.171875 L 54.648438 36.171875 L 54.648438 36.929688 L 54.710938 36.929688 C 54.820312 36.679688 54.988281 36.480469 55.21875 36.328125 C 55.449219 36.179688 55.738281 36.101562 56.089844 36.101562 C 56.410156 36.101562 56.691406 36.171875 56.929688 36.300781 C 57.171875 36.429688 57.351562 36.628906 57.488281 36.890625 C 57.621094 37.148438 57.691406 37.480469 57.691406 37.859375 L 57.691406 40.828125 L 56.78125 40.828125 L 56.78125 37.96875 C 56.78125 37.628906 56.691406 37.371094 56.519531 37.171875 C 56.339844 36.980469 56.101562 36.878906 55.789062 36.878906 C 55.578125 36.878906 55.390625 36.929688 55.230469 37.019531 C 55.070312 37.109375 54.941406 37.238281 54.839844 37.421875 C 54.75 37.601562 54.699219 37.808594 54.699219 38.050781 " style=" stroke:none;fill-rule:nonzero;fill:rgb(34.509805%,34.901962%,35.686275%);fill-opacity:1;"/><path d="M 60.300781 40.929688 C 59.921875 40.929688 59.589844 40.828125 59.289062 40.640625 C 58.988281 40.449219 58.761719 40.171875 58.601562 39.808594 C 58.429688 39.449219 58.351562 39.019531 58.351562 38.511719 C 58.351562 38 58.429688 37.570312 58.601562 37.210938 C 58.769531 36.851562 59 36.578125 59.300781 36.390625 C 59.601562 36.199219 59.929688 36.101562 60.308594 36.101562 C 60.601562 36.101562 60.828125 36.148438 61.011719 36.238281 C 61.191406 36.339844 61.328125 36.449219 61.421875 36.578125 C 61.519531 36.710938 61.589844 36.820312 61.648438 36.921875 L 61.699219 36.921875 L 61.699219 34.609375 L 62.609375 34.609375 L 62.609375 40.839844 L 61.71875 40.839844 L 61.71875 40.109375 L 61.640625 40.109375 C 61.589844 40.210938 61.511719 40.320312 61.398438 40.449219 C 61.300781 40.578125 61.160156 40.691406 60.980469 40.78125 C 60.800781 40.878906 60.570312 40.921875 60.289062 40.921875 M 60.5 40.160156 C 60.761719 40.160156 60.980469 40.089844 61.160156 39.949219 C 61.339844 39.808594 61.480469 39.621094 61.570312 39.371094 C 61.660156 39.121094 61.710938 38.828125 61.710938 38.511719 C 61.710938 38.191406 61.660156 37.898438 61.570312 37.660156 C 61.480469 37.421875 61.339844 37.230469 61.160156 37.089844 C 60.980469 36.949219 60.761719 36.890625 60.488281 36.890625 C 60.21875 36.890625 59.988281 36.960938 59.808594 37.101562 C 59.628906 37.238281 59.488281 37.441406 59.398438 37.679688 C 59.308594 37.929688 59.261719 38.199219 59.261719 38.511719 C 59.261719 38.820312 59.308594 39.101562 59.398438 39.351562 C 59.488281 39.601562 59.628906 39.800781 59.820312 39.941406 C 60 40.078125 60.230469 40.160156 60.5 40.160156 " style=" stroke:none;fill-rule:nonzero;fill:rgb(34.509805%,34.901962%,35.686275%);fill-opacity:1;"/><path d="M 17.859375 30.351562 C 16.949219 30.351562 16.628906 29.78125 16.671875 28.980469 L 20.28125 28.980469 C 20.449219 28.449219 20.550781 27.699219 20.550781 27.359375 C 20.550781 26 19.789062 25.199219 18.441406 25.199219 C 17.328125 25.199219 16.429688 25.71875 15.839844 26.550781 C 15.320312 27.28125 15.011719 28.300781 15.011719 29.199219 C 15.011719 30.679688 15.921875 31.550781 17.460938 31.550781 C 18.371094 31.550781 19.171875 31.339844 19.660156 31.101562 L 19.488281 30 C 19.148438 30.160156 18.511719 30.351562 17.859375 30.351562 M 16.980469 27.191406 C 17.28125 26.589844 17.710938 26.238281 18.21875 26.238281 C 18.730469 26.238281 18.980469 26.570312 18.980469 27.179688 C 18.980469 27.378906 18.941406 27.671875 18.878906 27.851562 L 16.75 27.851562 C 16.828125 27.53125 16.851562 27.460938 16.980469 27.199219 M 11.21875 25.378906 L 8.761719 30.730469 L 8.441406 25.378906 L 6.691406 25.378906 L 7.441406 33.25 L 9.039062 33.25 L 13.019531 25.378906 Z M 21.941406 31.550781 C 23.179688 31.550781 23.449219 30.308594 23.449219 30.308594 C 23.351562 30.351562 23.109375 30.398438 22.960938 30.390625 C 22.398438 30.359375 22.511719 29.800781 22.53125 29.710938 L 23.199219 26.511719 L 24.148438 26.511719 L 24.390625 25.371094 L 23.441406 25.371094 C 23.441406 25.371094 23.539062 24.929688 23.75 23.921875 C 22.519531 23.710938 21.890625 24.429688 21.890625 24.429688 L 20.769531 29.75 C 20.539062 30.828125 20.980469 31.558594 21.949219 31.558594 M 34.71875 30.390625 C 34.160156 30.359375 34.269531 29.800781 34.289062 29.710938 L 34.949219 26.511719 L 35.898438 26.511719 L 36.140625 25.371094 L 35.191406 25.371094 C 35.191406 25.371094 35.289062 24.929688 35.5 23.921875 C 34.269531 23.710938 33.640625 24.429688 33.640625 24.429688 L 32.53125 29.75 C 32.300781 30.828125 32.738281 31.558594 33.699219 31.558594 C 34.941406 31.558594 35.21875 30.320312 35.21875 30.320312 C 35.121094 30.359375 34.878906 30.410156 34.730469 30.398438 M 30.191406 25.210938 C 29.078125 25.210938 28.179688 25.730469 27.589844 26.558594 C 27.070312 27.289062 26.761719 28.308594 26.761719 29.210938 C 26.761719 30.691406 27.671875 31.558594 29.210938 31.558594 C 30.121094 31.558594 30.910156 31.351562 31.410156 31.109375 L 31.238281 30.011719 C 30.898438 30.171875 30.25 30.359375 29.601562 30.359375 C 28.691406 30.359375 28.371094 29.789062 28.410156 28.988281 L 32.019531 28.988281 C 32.191406 28.460938 32.289062 27.710938 32.289062 27.371094 C 32.289062 26.011719 31.53125 25.210938 30.179688 25.210938 M 30.640625 27.851562 L 28.511719 27.851562 C 28.589844 27.53125 28.609375 27.460938 28.738281 27.199219 C 29.03125 26.601562 29.46875 26.25 29.980469 26.25 C 30.488281 26.25 30.738281 26.578125 30.738281 27.191406 C 30.738281 27.390625 30.691406 27.679688 30.640625 27.859375 M 45.878906 25.71875 L 44.679688 31.5 L 46.421875 31.5 L 47.449219 26.488281 C 47.738281 26.371094 48.199219 26.371094 48.621094 26.53125 L 49.039062 25.269531 C 47.980469 25.078125 46.609375 25.320312 45.878906 25.71875 M 39.75 25.378906 L 35.019531 33.25 L 36.738281 33.25 L 37.710938 31.5 L 40.121094 31.5 L 40.101562 33.25 L 41.851562 33.25 L 41.539062 25.378906 L 39.738281 25.378906 Z M 40.140625 30.359375 L 38.359375 30.359375 L 40.179688 27.128906 Z M 25.109375 25.378906 C 25.109375 25.378906 24.421875 28.601562 24.050781 30.410156 C 23.839844 31.460938 23.578125 31.898438 23.261719 32.179688 C 22.398438 32.929688 20.960938 32.929688 20.179688 32.03125 C 20.058594 33.101562 20.910156 34.121094 22.480469 34.121094 C 24.050781 34.121094 25.238281 32.949219 25.640625 31.148438 L 26.851562 25.390625 L 25.101562 25.390625 Z M 13.339844 25.378906 L 12.058594 31.488281 L 13.808594 31.488281 L 15.089844 25.378906 Z M 43.390625 25.378906 L 42.101562 31.488281 L 43.851562 31.488281 L 45.128906 25.378906 L 43.378906 25.378906 Z M 48.089844 30.378906 C 47.710938 30.378906 47.371094 30.71875 47.371094 31.078125 C 47.371094 31.351562 47.570312 31.558594 47.859375 31.558594 C 48.238281 31.558594 48.589844 31.21875 48.589844 30.859375 C 48.589844 30.589844 48.378906 30.378906 48.089844 30.378906 M 51.089844 30.578125 C 50.730469 30.578125 50.5 30.28125 50.5 29.730469 C 50.5 29.289062 50.640625 28.699219 50.859375 28.320312 C 51.101562 27.910156 51.410156 27.710938 51.75 27.710938 C 51.960938 27.710938 52.140625 27.789062 52.21875 27.859375 L 52.640625 27.171875 C 52.488281 27.019531 52.058594 26.828125 51.539062 26.828125 C 50.878906 26.828125 50.238281 27.148438 49.78125 27.789062 C 49.398438 28.328125 49.148438 29.128906 49.148438 29.800781 C 49.148438 30.871094 49.78125 31.550781 50.671875 31.550781 C 51.199219 31.550781 51.578125 31.398438 51.800781 31.210938 L 51.691406 30.398438 C 51.558594 30.488281 51.308594 30.578125 51.070312 30.578125 M 54.640625 26.828125 C 53.800781 26.828125 53.148438 27.199219 52.71875 27.839844 C 52.351562 28.378906 52.101562 29.210938 52.101562 29.878906 C 52.101562 30.871094 52.660156 31.558594 53.738281 31.558594 C 54.601562 31.558594 55.25 31.171875 55.671875 30.550781 C 56.03125 30.011719 56.289062 29.179688 56.289062 28.511719 C 56.289062 27.519531 55.71875 26.828125 54.640625 26.828125 M 54.648438 30 C 54.46875 30.398438 54.238281 30.660156 53.871094 30.660156 C 53.5 30.660156 53.378906 30.390625 53.378906 30 C 53.378906 29.53125 53.550781 28.761719 53.738281 28.320312 C 53.921875 27.910156 54.171875 27.640625 54.519531 27.640625 C 54.871094 27.640625 55.011719 27.921875 55.011719 28.308594 C 55.011719 28.769531 54.828125 29.558594 54.640625 29.988281 M 61.921875 26.828125 C 61.160156 26.828125 60.578125 27.050781 60.28125 27.289062 C 60.058594 27.039062 59.570312 26.828125 58.960938 26.828125 C 58.191406 26.828125 57.570312 26.949219 57.03125 27.171875 L 56.121094 31.511719 L 57.449219 31.511719 L 58.230469 27.75 C 58.398438 27.691406 58.578125 27.648438 58.789062 27.648438 C 59.191406 27.648438 59.398438 27.820312 59.398438 28.101562 C 59.398438 28.148438 59.398438 28.199219 59.378906 28.261719 L 58.710938 31.5 L 60.039062 31.5 L 60.789062 27.890625 C 60.949219 27.75 61.191406 27.648438 61.429688 27.648438 C 61.820312 27.648438 61.988281 27.839844 61.988281 28.101562 C 61.988281 28.160156 61.988281 28.210938 61.96875 28.269531 L 61.289062 31.5 L 62.621094 31.5 L 63.28125 28.308594 C 63.308594 28.199219 63.308594 28.089844 63.308594 27.980469 C 63.308594 27.300781 62.851562 26.820312 61.921875 26.820312 " style=" stroke:none;fill-rule:nonzero;fill:rgb(100%,100%,100%);fill-opacity:1;"/><g clip-path="url(#clip1)" clip-rule="nonzero"><g clip-path="url(#clip2)" clip-rule="nonzero"><path d="M 62.308594 60.871094 L 70 60.871094 L 70 70 L 62.308594 70 Z M 62.308594 60.871094 " style=" stroke:none;fill-rule:nonzero;fill:url(#linear1);"/></g></g><g clip-path="url(#clip3)" clip-rule="nonzero"><g clip-path="url(#clip4)" clip-rule="nonzero"><path d="M 38.96875 54.652344 L 61.703125 36.359375 L 79.921875 59 L 57.1875 77.292969 Z M 38.96875 54.652344 " style=" stroke:none;fill-rule:nonzero;fill:url(#linear2);"/></g></g><g clip-path="url(#clip5)" clip-rule="nonzero"><g clip-path="url(#clip6)" clip-rule="nonzero"><path d="M 24.671875 58.792969 L 59.128906 37.078125 L 77.070312 65.546875 L 42.613281 87.261719 Z M 24.671875 58.792969 " style=" stroke:none;fill-rule:nonzero;fill:url(#linear3);"/></g></g></g></svg>