<svg xmlns="http://www.w3.org/2000/svg" id="Layer_1" width="70" height="70" x="0" y="0" enable-background="new 0 0 70 70" version="1.1" viewBox="0 0 70 70" xml:space="preserve"><rect width="70" height="70" fill="red"/><g><path fill="#FFF" d="M18.8,34.5h-3.8c0,0.9,0.3,1.6,1.3,1.6c0.7,0,1.4-0.2,1.7-0.4l0.2,1.3c-0.5,0.3-1.4,0.5-2.3,0.5 c-1.6,0-2.6-1-2.6-2.7c0-1,0.3-2.2,0.9-3.1c0.6-1,1.6-1.6,2.8-1.6c1.4,0,2.2,0.9,2.2,2.5C19,33,18.9,33.9,18.8,34.5 M16.6,31.3 c-0.5,0-1,0.4-1.3,1.1c-0.1,0.3-0.2,0.4-0.2,0.8h2.3c0.1-0.2,0.1-0.5,0.1-0.8C17.4,31.7,17.1,31.3,16.6,31.3"/><polygon fill="#FFF" points="6.8 39.4 5.1 39.4 4.3 30.3 6.2 30.3 6.5 36.5 9.1 30.3 11 30.3"/><path fill="#FFF" d="M22.9,31.6h-1l-0.7,3.7c0,0.1-0.1,0.8,0.5,0.8c0.2,0,0.4,0,0.5-0.1c0,0-0.3,1.4-1.6,1.4 c-1,0-1.5-0.8-1.2-2.1l1.2-6.2c0,0,0.7-0.8,2-0.6c-0.2,1.2-0.3,1.7-0.3,1.7l1,0L22.9,31.6z"/><path fill="#FFF" d="M35.4,31.6h-1l-0.7,3.7c0,0.1-0.1,0.8,0.5,0.8c0.2,0,0.4,0,0.5-0.1c0,0-0.3,1.4-1.6,1.4 c-1,0-1.5-0.8-1.2-2.1l1.2-6.2c0,0,0.7-0.8,2-0.6c-0.2,1.2-0.3,1.7-0.3,1.7l1,0L35.4,31.6z"/><path fill="#FFF" d="M31.3,34.5h-3.8c0,0.9,0.3,1.6,1.3,1.6c0.7,0,1.4-0.2,1.7-0.4l0.2,1.3c-0.5,0.3-1.4,0.5-2.3,0.5 c-1.6,0-2.6-1-2.6-2.7c0-1,0.3-2.2,0.9-3.1c0.6-1,1.6-1.6,2.8-1.6c1.4,0,2.2,0.9,2.2,2.5C31.6,33,31.5,33.9,31.3,34.5 M29.1,31.3 c-0.5,0-1,0.4-1.3,1.1c-0.1,0.3-0.2,0.4-0.2,0.8h2.3c0.1-0.2,0.1-0.5,0.1-0.8C29.9,31.7,29.6,31.3,29.1,31.3"/><path fill="#FFF" d="M48.9,31.6c-0.4-0.2-0.9-0.2-1.2-0.1l-1.1,5.8h-1.8l1.3-6.7c0.8-0.5,2.2-0.7,3.4-0.5L48.9,31.6z"/><path fill="#FFF" d="M39.9,39.4l0-2h-2.6l-1,2h-1.8l5-9.1h1.9l0.3,9.1H39.9z M39.9,32.3L38,36.1h1.9L39.9,32.3z"/><path fill="#FFF" d="M21.1,40.4c-1.7,0-2.6-1.2-2.4-2.4c0.8,1,2.4,1,3.3,0.2c0.3-0.3,0.6-0.8,0.8-2.1c0.4-2.1,1.1-5.8,1.1-5.8 h1.9L24.5,37C24.1,39.1,22.8,40.4,21.1,40.4"/><polygon fill="#FFF" points="11.9 37.4 10 37.4 11.4 30.3 13.2 30.3"/><polygon fill="#FFF" points="43.8 37.4 42 37.4 43.4 30.3 45.2 30.3"/><path fill="#FFF" d="M48.1,37.5c-0.3,0-0.5-0.2-0.5-0.5c0-0.4,0.4-0.8,0.8-0.8c0.3,0,0.5,0.2,0.5,0.6 C48.9,37.1,48.5,37.5,48.1,37.5"/><path fill="#FFF" d="M52.8,33.2c-0.1-0.1-0.3-0.2-0.5-0.2c-0.4,0-0.7,0.2-1,0.7c-0.2,0.4-0.4,1.1-0.4,1.6c0,0.6,0.2,1,0.6,1 c0.3,0,0.5-0.1,0.7-0.2l0.1,0.9c-0.2,0.2-0.6,0.4-1.2,0.4c-0.9,0-1.6-0.8-1.6-2c0-0.8,0.3-1.7,0.7-2.3c0.5-0.7,1.2-1.1,1.9-1.1 c0.5,0,1,0.2,1.2,0.4L52.8,33.2z"/><path fill="#FFF" d="M56.4,36.3c-0.4,0.7-1.1,1.2-2.1,1.2c-1.2,0-1.7-0.8-1.7-2c0-0.8,0.3-1.7,0.7-2.4c0.5-0.7,1.2-1.2,2-1.2 c1.2,0,1.8,0.8,1.8,1.9C57.1,34.7,56.8,35.7,56.4,36.3 M55.2,32.9c-0.4,0-0.6,0.3-0.8,0.8c-0.2,0.5-0.4,1.4-0.4,1.9 c0,0.5,0.1,0.8,0.5,0.8c0.4,0,0.6-0.3,0.8-0.8c0.2-0.5,0.4-1.4,0.4-2C55.7,33.2,55.6,32.9,55.2,32.9"/><path fill="#FFF" d="M64.5,33.7l-0.7,3.7h-1.4l0.7-3.8c0-0.1,0-0.1,0-0.2c0-0.3-0.2-0.5-0.6-0.5c-0.2,0-0.5,0.1-0.7,0.3 l-0.8,4.2h-1.4l0.7-3.8c0-0.1,0-0.1,0-0.2c0-0.3-0.2-0.5-0.6-0.5c-0.2,0-0.4,0-0.6,0.1l-0.8,4.4h-1.4l1-5 c0.6-0.3,1.2-0.4,2.1-0.4c0.6,0,1.2,0.2,1.4,0.5c0.3-0.3,0.9-0.5,1.7-0.5c1,0,1.5,0.6,1.5,1.3C64.5,33.4,64.5,33.6,64.5,33.7"/></g></svg>