<svg xmlns="http://www.w3.org/2000/svg" version="1.1" width="70px" height="70px" viewBox="0 0 70 70"><g id="surface1"><path d="M 10.382812 35.015625 C 10.382812 26.3125 17.4375 19.25 26.144531 19.25 L 43.855469 19.25 C 52.5625 19.25 59.617188 26.3125 59.617188 35.015625 C 59.617188 43.71875 52.5625 50.78125 43.855469 50.78125 L 26.144531 50.78125 C 17.4375 50.78125 10.382812 43.71875 10.382812 35.015625 Z M 10.382812 35.015625 " style=" stroke:none;fill-rule:nonzero;fill:rgb(21.176471%,21.568627%,20%);fill-opacity:1;"/><path d="M 43.855469 19.84375 L 26.144531 19.84375 C 17.769531 19.84375 10.976562 26.640625 10.976562 35.015625 C 10.976562 43.390625 17.769531 50.1875 26.144531 50.1875 L 43.855469 50.1875 C 52.230469 50.1875 59.023438 43.390625 59.023438 35.015625 C 59.023438 26.640625 52.230469 19.84375 43.855469 19.84375 Z M 26.144531 19.25 C 17.4375 19.25 10.382812 26.3125 10.382812 35.015625 C 10.382812 43.71875 17.4375 50.78125 26.144531 50.78125 L 43.855469 50.78125 C 52.5625 50.78125 59.617188 43.71875 59.617188 35.015625 C 59.617188 26.3125 52.5625 19.25 43.855469 19.25 Z M 26.144531 19.25 " style=" stroke:none;fill-rule:evenodd;fill:rgb(85.882353%,98.431373%,21.568627%);fill-opacity:1;"/><path d="M 33.496094 43.300781 L 33.496094 41.359375 L 34.324219 41.359375 C 34.449219 41.359375 34.558594 41.375 34.644531 41.414062 C 34.734375 41.449219 34.800781 41.503906 34.84375 41.578125 C 34.890625 41.652344 34.914062 41.738281 34.914062 41.84375 C 34.914062 41.949219 34.886719 42.042969 34.828125 42.117188 C 34.769531 42.1875 34.691406 42.238281 34.585938 42.269531 L 34.585938 42.210938 C 34.671875 42.230469 34.746094 42.265625 34.8125 42.3125 C 34.875 42.359375 34.925781 42.417969 34.960938 42.488281 C 35 42.554688 35.015625 42.632812 35.015625 42.722656 C 35.015625 42.816406 35 42.902344 34.96875 42.972656 C 34.941406 43.046875 34.894531 43.105469 34.835938 43.152344 C 34.777344 43.203125 34.707031 43.238281 34.625 43.265625 C 34.542969 43.289062 34.453125 43.300781 34.351562 43.300781 Z M 33.847656 42.976562 L 34.335938 42.976562 C 34.402344 42.976562 34.460938 42.964844 34.507812 42.945312 C 34.554688 42.925781 34.589844 42.894531 34.613281 42.855469 C 34.640625 42.816406 34.652344 42.769531 34.652344 42.710938 C 34.652344 42.660156 34.640625 42.617188 34.613281 42.578125 C 34.585938 42.542969 34.546875 42.515625 34.5 42.496094 C 34.449219 42.476562 34.390625 42.464844 34.320312 42.464844 L 33.847656 42.464844 Z M 33.847656 42.152344 L 34.289062 42.152344 C 34.34375 42.152344 34.390625 42.144531 34.429688 42.125 C 34.46875 42.101562 34.5 42.074219 34.523438 42.039062 C 34.546875 42.003906 34.554688 41.964844 34.554688 41.917969 C 34.554688 41.84375 34.53125 41.785156 34.480469 41.746094 C 34.433594 41.703125 34.359375 41.683594 34.261719 41.683594 L 33.847656 41.683594 Z M 33.847656 42.152344 " style=" stroke:none;fill-rule:nonzero;fill:rgb(100%,100%,100%);fill-opacity:1;"/><path d="M 36.054688 43.300781 L 36.054688 42.332031 L 36.074219 42.46875 L 35.285156 41.359375 L 35.707031 41.359375 L 36.308594 42.21875 L 36.179688 42.210938 L 36.71875 41.359375 L 37.125 41.359375 L 36.371094 42.5 L 36.414062 42.308594 L 36.414062 43.300781 Z M 36.054688 43.300781 " style=" stroke:none;fill-rule:nonzero;fill:rgb(100%,100%,100%);fill-opacity:1;"/><path d="M 45.78125 40.78125 L 45.253906 40.78125 L 45.253906 41.644531 L 45.726562 41.644531 L 45.726562 41.253906 L 47.160156 41.253906 L 47.164062 41.722656 C 46.203125 41.835938 45.617188 42.558594 45.617188 43.453125 L 45.617188 43.636719 L 46.175781 43.636719 L 46.175781 43.503906 C 46.175781 42.660156 46.859375 42.210938 47.71875 42.210938 L 47.71875 40.78125 Z M 45.78125 40.78125 " style=" stroke:none;fill-rule:nonzero;fill:rgb(100%,100%,100%);fill-opacity:1;"/><path d="M 43.402344 40.695312 C 42.566406 40.695312 41.890625 41.371094 41.890625 42.207031 C 41.890625 43.046875 42.566406 43.722656 43.402344 43.722656 C 44.234375 43.722656 44.914062 43.046875 44.914062 42.207031 C 44.914062 41.371094 44.234375 40.695312 43.402344 40.695312 Z M 43.402344 43.164062 C 42.875 43.164062 42.449219 42.738281 42.449219 42.207031 C 42.449219 41.679688 42.875 41.25 43.402344 41.25 C 43.929688 41.25 44.355469 41.679688 44.355469 42.207031 C 44.355469 42.738281 43.929688 43.164062 43.402344 43.164062 Z M 43.402344 43.164062 " style=" stroke:none;fill-rule:nonzero;fill:rgb(100%,100%,100%);fill-opacity:1;"/><path d="M 40.894531 41.640625 L 40.890625 41.636719 C 40.726562 41.410156 40.460938 41.257812 40.160156 41.253906 L 40.144531 41.253906 C 39.640625 41.253906 39.230469 41.664062 39.230469 42.167969 C 39.230469 42.359375 39.289062 42.535156 39.386719 42.679688 C 39.550781 42.925781 39.832031 43.078125 40.148438 43.078125 L 40.992188 43.078125 L 40.992188 42.679688 L 40.425781 42.679688 L 40.425781 42.210938 L 41.550781 42.210938 L 41.550781 43.636719 L 40.148438 43.636719 C 39.332031 43.636719 38.671875 42.984375 38.671875 42.167969 C 38.671875 41.355469 39.332031 40.695312 40.148438 40.695312 C 40.652344 40.695312 41.09375 40.953125 41.359375 41.339844 L 41.363281 41.347656 Z M 40.894531 41.640625 " style=" stroke:none;fill-rule:evenodd;fill:rgb(100%,100%,100%);fill-opacity:1;"/><path d="M 26.0625 38.460938 L 22.28125 26.34375 L 24.640625 26.34375 L 26.789062 33.492188 C 26.859375 33.710938 26.921875 33.953125 26.980469 34.21875 C 27.039062 34.484375 27.089844 34.75 27.136719 35.015625 C 27.183594 35.269531 27.222656 35.507812 27.257812 35.726562 C 27.292969 35.945312 27.328125 36.128906 27.359375 36.28125 L 26.894531 36.261719 C 27.03125 35.71875 27.140625 35.28125 27.222656 34.945312 C 27.304688 34.613281 27.371094 34.335938 27.429688 34.117188 C 27.5 33.886719 27.570312 33.671875 27.636719 33.476562 L 29.683594 28.246094 L 31.609375 28.246094 L 33.601562 33.476562 C 33.714844 33.796875 33.820312 34.109375 33.914062 34.410156 C 34.003906 34.699219 34.082031 34.988281 34.136719 35.277344 C 34.207031 35.554688 34.269531 35.839844 34.328125 36.140625 L 33.914062 36.226562 C 33.960938 35.949219 33.992188 35.726562 34.015625 35.554688 C 34.039062 35.378906 34.0625 35.222656 34.085938 35.085938 C 34.109375 34.945312 34.132812 34.8125 34.15625 34.6875 C 34.179688 34.546875 34.214844 34.386719 34.261719 34.203125 C 34.316406 34.007812 34.386719 33.757812 34.46875 33.457031 L 36.601562 26.34375 L 38.941406 26.34375 L 35.144531 38.460938 L 33.515625 38.460938 L 30.429688 31.085938 L 30.636719 31.15625 L 27.707031 38.460938 Z M 26.0625 38.460938 " style=" stroke:none;fill-rule:nonzero;fill:rgb(100%,100%,100%);fill-opacity:1;"/><path d="M 39.460938 38.460938 L 39.460938 36.21875 C 39.460938 35.726562 39.539062 35.300781 39.6875 34.9375 C 39.851562 34.574219 40.109375 34.253906 40.464844 33.972656 C 40.832031 33.6875 41.3125 33.414062 41.90625 33.15625 L 43.910156 32.277344 C 44.40625 32.050781 44.785156 31.777344 45.042969 31.457031 C 45.3125 31.128906 45.445312 30.703125 45.445312 30.191406 C 45.445312 29.625 45.273438 29.175781 44.929688 28.847656 C 44.59375 28.503906 44.113281 28.332031 43.488281 28.332031 C 42.863281 28.332031 42.378906 28.503906 42.035156 28.847656 C 41.699219 29.1875 41.53125 29.664062 41.53125 30.273438 L 39.316406 30.273438 C 39.316406 29.546875 39.472656 28.894531 39.785156 28.316406 C 40.097656 27.730469 40.5625 27.269531 41.175781 26.9375 C 41.792969 26.597656 42.5625 26.425781 43.488281 26.425781 C 44.417969 26.425781 45.1875 26.589844 45.800781 26.921875 C 46.417969 27.253906 46.878906 27.699219 47.191406 28.253906 C 47.507812 28.796875 47.664062 29.40625 47.664062 30.078125 L 47.664062 30.289062 C 47.664062 31.164062 47.414062 31.894531 46.917969 32.484375 C 46.421875 33.0625 45.695312 33.5625 44.734375 33.992188 L 42.730469 34.871094 C 42.351562 35.03125 42.089844 35.203125 41.9375 35.382812 C 41.785156 35.554688 41.710938 35.789062 41.710938 36.089844 L 41.710938 37.117188 L 41.160156 36.523438 L 47.710938 36.523438 L 47.710938 38.460938 Z M 39.460938 38.460938 " style=" stroke:none;fill-rule:nonzero;fill:rgb(100%,100%,100%);fill-opacity:1;"/></g></svg>