<svg xmlns="http://www.w3.org/2000/svg" version="1.1" width="70px" height="70px" viewBox="0 0 70 70"><g id="surface1"><path d="M 48.828125 67.574219 L 48.828125 58.417969 L 50.058594 58.417969 C 50.246094 58.417969 50.40625 58.503906 50.535156 58.675781 C 50.667969 58.851562 50.769531 59.113281 50.835938 59.460938 C 50.902344 59.800781 50.9375 60.21875 50.9375 60.707031 C 50.9375 61.210938 50.894531 61.636719 50.808594 61.988281 C 50.722656 62.335938 50.605469 62.578125 50.449219 62.707031 L 50.445312 62.445312 C 50.574219 62.53125 50.6875 62.691406 50.785156 62.917969 C 50.882812 63.132812 50.957031 63.410156 51.007812 63.742188 C 51.0625 64.0625 51.089844 64.433594 51.089844 64.851562 C 51.089844 65.296875 51.066406 65.691406 51.019531 66.03125 C 50.976562 66.371094 50.910156 66.652344 50.820312 66.878906 C 50.734375 67.105469 50.628906 67.28125 50.507812 67.402344 C 50.386719 67.515625 50.25 67.574219 50.097656 67.574219 Z M 49.351562 66.042969 L 50.074219 66.042969 C 50.175781 66.042969 50.261719 65.996094 50.332031 65.898438 C 50.402344 65.804688 50.457031 65.664062 50.492188 65.480469 C 50.53125 65.289062 50.550781 65.0625 50.550781 64.800781 C 50.550781 64.554688 50.527344 64.347656 50.488281 64.171875 C 50.449219 63.996094 50.394531 63.867188 50.316406 63.78125 C 50.242188 63.683594 50.15625 63.636719 50.054688 63.636719 L 49.351562 63.636719 Z M 49.351562 62.171875 L 50.007812 62.171875 C 50.089844 62.171875 50.15625 62.121094 50.214844 62.027344 C 50.277344 61.929688 50.324219 61.800781 50.355469 61.632812 C 50.386719 61.46875 50.40625 61.277344 50.40625 61.058594 C 50.40625 60.710938 50.367188 60.4375 50.292969 60.246094 C 50.21875 60.046875 50.109375 59.945312 49.96875 59.945312 L 49.351562 59.945312 Z M 49.351562 62.171875 " style=" stroke:none;fill-rule:nonzero;fill:rgb(21.176471%,21.568628%,20%);fill-opacity:1;"/><path d="M 52.632812 67.574219 L 52.632812 63.007812 L 52.660156 63.648438 L 51.492188 58.417969 L 52.117188 58.417969 L 53.011719 62.472656 L 52.816406 62.433594 L 53.621094 58.417969 L 54.226562 58.417969 L 53.105469 63.792969 L 53.167969 62.902344 L 53.167969 67.574219 Z M 52.632812 67.574219 " style=" stroke:none;fill-rule:nonzero;fill:rgb(21.176471%,21.568628%,20%);fill-opacity:1;"/><path d="M 67.101562 55.695312 L 66.320312 55.695312 L 66.320312 59.765625 L 67.019531 59.765625 L 67.019531 57.914062 L 69.152344 57.914062 L 69.160156 60.128906 C 67.734375 60.664062 66.859375 64.070312 66.859375 68.28125 L 66.859375 69.15625 L 67.691406 69.15625 L 67.691406 68.53125 C 67.691406 64.550781 68.707031 62.429688 69.984375 62.429688 L 69.984375 55.695312 Z M 67.101562 55.695312 " style=" stroke:none;fill-rule:nonzero;fill:rgb(21.176471%,21.568628%,20%);fill-opacity:1;"/><path d="M 63.5625 55.289062 C 62.324219 55.289062 61.316406 58.480469 61.316406 62.425781 C 61.316406 66.367188 62.320312 69.558594 63.5625 69.558594 C 64.804688 69.558594 65.8125 66.367188 65.8125 62.425781 C 65.8125 58.480469 64.804688 55.289062 63.5625 55.289062 Z M 63.5625 66.933594 C 62.78125 66.933594 62.144531 64.914062 62.144531 62.425781 C 62.144531 59.933594 62.78125 57.914062 63.5625 57.914062 C 64.347656 57.914062 64.984375 59.933594 64.984375 62.425781 C 64.984375 64.914062 64.347656 66.933594 63.5625 66.933594 Z M 63.5625 66.933594 " style=" stroke:none;fill-rule:nonzero;fill:rgb(21.176471%,21.568628%,20%);fill-opacity:1;"/><path d="M 59.835938 59.75 L 59.832031 59.726562 C 59.585938 58.652344 59.191406 57.949219 58.742188 57.925781 L 58.722656 57.925781 C 57.96875 57.925781 57.359375 59.859375 57.359375 62.242188 C 57.359375 63.132812 57.445312 63.957031 57.59375 64.648438 C 57.835938 65.796875 58.253906 66.527344 58.722656 66.527344 L 59.980469 66.53125 L 59.980469 64.652344 L 59.136719 64.652344 L 59.136719 62.425781 L 60.8125 62.425781 L 60.8125 69.152344 L 58.722656 69.15625 C 57.507812 69.15625 56.527344 66.078125 56.527344 62.238281 C 56.527344 58.398438 57.507812 55.289062 58.722656 55.289062 C 59.476562 55.289062 60.132812 56.511719 60.527344 58.335938 L 60.53125 58.359375 Z M 59.835938 59.75 " style=" stroke:none;fill-rule:evenodd;fill:rgb(21.176471%,21.568628%,20%);fill-opacity:1;"/><path d="M 67.191406 9.863281 L 67.359375 9.863281 C 67.578125 9.863281 67.746094 10.449219 67.746094 11.089844 L 67.746094 20.253906 C 67.746094 20.664062 67.855469 21.015625 67.984375 21.015625 L 69.054688 21.015625 C 69.273438 21.015625 69.441406 21.597656 69.441406 22.242188 C 69.441406 22.941406 69.253906 23.464844 69.054688 23.464844 L 67.984375 23.464844 C 67.855469 23.464844 67.746094 23.816406 67.746094 24.226562 L 67.746094 39.460938 C 67.746094 41.914062 68.207031 43.546875 68.90625 43.605469 C 69.070312 43.605469 69.273438 43.546875 69.457031 43.429688 C 69.699219 43.3125 69.917969 43.898438 69.917969 44.65625 L 69.917969 44.773438 C 69.917969 45.355469 69.789062 45.882812 69.605469 46 C 69.328125 46.171875 68.996094 46.347656 68.683594 46.347656 C 67.542969 46.347656 66.785156 43.664062 66.785156 39.695312 L 66.785156 11.089844 C 66.804688 10.449219 66.988281 9.863281 67.191406 9.863281 Z M 67.191406 9.863281 " style=" stroke:none;fill-rule:nonzero;fill:rgb(21.176471%,21.568628%,20%);fill-opacity:1;"/><path d="M 42.167969 21.015625 L 38.535156 21.015625 C 38.40625 21.015625 38.296875 20.664062 38.296875 20.253906 L 38.296875 11.089844 C 38.296875 10.390625 38.113281 9.863281 37.910156 9.863281 L 37.746094 9.863281 C 37.523438 9.863281 37.359375 10.449219 37.359375 11.089844 L 37.359375 39.753906 C 37.359375 43.722656 38.132812 46.40625 39.253906 46.40625 C 39.570312 46.40625 39.902344 46.289062 40.175781 46.058594 C 40.363281 45.941406 40.492188 45.414062 40.492188 44.832031 L 40.492188 44.714844 C 40.492188 43.957031 40.269531 43.371094 40.03125 43.488281 C 39.84375 43.605469 39.644531 43.664062 39.476562 43.664062 C 38.777344 43.605469 38.316406 41.972656 38.316406 39.519531 L 38.316406 24.285156 C 38.316406 23.875 38.425781 23.523438 38.554688 23.523438 L 41.632812 23.523438 L 41.632812 45.121094 C 41.632812 45.824219 41.816406 46.347656 42.019531 46.347656 L 42.1875 46.347656 C 42.40625 46.347656 42.574219 45.765625 42.574219 45.121094 L 42.574219 22.242188 C 42.554688 21.597656 42.386719 21.015625 42.167969 21.015625 Z M 42.167969 21.015625 " style=" stroke:none;fill-rule:nonzero;fill:rgb(21.176471%,21.568628%,20%);fill-opacity:1;"/><path d="M 49.945312 41.152344 C 49.207031 43.023438 48.230469 43.898438 47.179688 43.136719 C 45.945312 42.261719 45.023438 39.226562 44.785156 35.257812 C 44.378906 28.777344 45.945312 23.058594 47.933594 23.058594 C 48.691406 23.058594 49.390625 23.875 49.945312 25.335938 C 50.089844 25.742188 50.332031 25.683594 50.460938 25.21875 L 50.570312 24.867188 C 50.734375 24.34375 50.71875 23.464844 50.535156 23 C 49.648438 20.722656 48.46875 19.613281 47.214844 20.253906 C 45.410156 21.191406 43.992188 25.976562 43.789062 31.695312 C 43.511719 39.695312 45.464844 46.40625 47.917969 46.40625 C 48.910156 46.40625 49.816406 45.296875 50.535156 43.488281 C 50.71875 43.023438 50.734375 42.144531 50.570312 41.621094 L 50.460938 41.269531 C 50.3125 40.804688 50.089844 40.804688 49.945312 41.152344 Z M 49.945312 41.152344 " style=" stroke:none;fill-rule:nonzero;fill:rgb(21.176471%,21.568628%,20%);fill-opacity:1;"/><path d="M 61.957031 20.082031 C 59.507812 20.082031 57.554688 26.792969 57.832031 34.789062 C 58.050781 40.863281 59.507812 45.589844 61.425781 46.347656 C 62.953125 46.933594 64.335938 45.007812 65.203125 41.621094 C 65.347656 41.035156 65.3125 40.160156 65.109375 39.753906 L 64.980469 39.460938 C 64.816406 39.109375 64.59375 39.226562 64.464844 39.695312 C 63.875 41.972656 62.988281 43.429688 61.976562 43.429688 C 60.28125 43.429688 58.882812 39.226562 58.769531 33.914062 C 58.769531 33.566406 58.863281 33.214844 58.972656 33.214844 L 65.203125 33.214844 C 65.734375 33.214844 66.140625 31.582031 65.992188 29.945312 C 65.53125 24.285156 63.910156 20.082031 61.957031 20.082031 Z M 61.957031 23.058594 C 63.304688 23.058594 64.445312 25.683594 64.925781 29.363281 C 64.980469 29.769531 64.886719 30.238281 64.742188 30.238281 L 59.175781 30.238281 C 59.027344 30.238281 58.9375 29.769531 58.992188 29.363281 C 59.46875 25.683594 60.632812 23.058594 61.957031 23.058594 Z M 61.957031 23.058594 " style=" stroke:none;fill-rule:nonzero;fill:rgb(21.176471%,21.568628%,20%);fill-opacity:1;"/><path d="M 26.210938 46.464844 L 26.355469 46.464844 C 26.578125 46.464844 26.761719 45.882812 26.761719 45.179688 L 26.761719 11.089844 C 26.761719 10.390625 26.578125 9.808594 26.355469 9.808594 L 26.210938 9.808594 C 25.988281 9.808594 25.804688 10.390625 25.804688 11.089844 L 25.804688 45.125 C 25.824219 45.882812 25.988281 46.464844 26.210938 46.464844 Z M 26.210938 46.464844 " style=" stroke:none;fill-rule:nonzero;fill:rgb(21.176471%,21.568628%,20%);fill-opacity:1;"/><path d="M 20.71875 46.464844 L 20.867188 46.464844 C 21.085938 46.464844 21.269531 45.882812 21.269531 45.179688 L 21.269531 35.023438 C 21.269531 28.953125 22.746094 23.933594 24.605469 23.40625 C 24.808594 23.351562 24.957031 22.824219 24.957031 22.183594 L 24.957031 21.714844 C 24.957031 20.957031 24.753906 20.371094 24.515625 20.429688 C 22.15625 21.132812 20.3125 27.4375 20.3125 35.082031 L 20.3125 45.238281 C 20.3125 45.882812 20.496094 46.464844 20.71875 46.464844 Z M 20.71875 46.464844 " style=" stroke:none;fill-rule:nonzero;fill:rgb(21.176471%,21.568628%,20%);fill-opacity:1;"/><path d="M 15.246094 20.082031 C 12.941406 20.082031 11.082031 25.976562 11.082031 33.273438 C 11.082031 40.570312 12.941406 46.464844 15.246094 46.464844 C 17.546875 46.464844 19.410156 40.570312 19.410156 33.273438 C 19.410156 25.976562 17.546875 20.082031 15.246094 20.082031 Z M 15.246094 43.429688 C 13.476562 43.429688 12.039062 38.878906 12.039062 33.273438 C 12.039062 27.667969 13.476562 23.117188 15.246094 23.117188 C 17.015625 23.117188 18.453125 27.667969 18.453125 33.273438 C 18.453125 38.878906 17.015625 43.429688 15.246094 43.429688 Z M 15.246094 43.429688 " style=" stroke:none;fill-rule:nonzero;fill:rgb(21.176471%,21.568628%,20%);fill-opacity:1;"/><path d="M 10.324219 21.132812 L 7.835938 41.855469 C 7.78125 42.261719 7.617188 42.261719 7.5625 41.914062 L 5.976562 31.988281 C 5.828125 31.054688 5.421875 31.054688 5.277344 31.988281 L 3.691406 41.914062 C 3.636719 42.261719 3.46875 42.261719 3.414062 41.855469 L 0.925781 21.132812 C 0.871094 20.664062 0.722656 20.3125 0.558594 20.3125 L 0.390625 20.3125 C 0.117188 20.3125 -0.0664062 21.191406 0.0234375 22.007812 L 2.789062 45.007812 C 2.898438 45.824219 3.136719 46.40625 3.414062 46.40625 L 3.542969 46.40625 C 3.800781 46.40625 4.042969 45.941406 4.152344 45.238281 L 5.496094 36.949219 C 5.550781 36.601562 5.71875 36.601562 5.773438 36.949219 L 7.117188 45.238281 C 7.230469 45.941406 7.46875 46.40625 7.726562 46.40625 L 7.855469 46.40625 C 8.132812 46.40625 8.390625 45.824219 8.480469 45.007812 L 11.246094 22.007812 C 11.339844 21.191406 11.152344 20.3125 10.878906 20.3125 L 10.710938 20.3125 C 10.527344 20.3125 10.398438 20.664062 10.324219 21.132812 Z M 10.324219 21.132812 " style=" stroke:none;fill-rule:nonzero;fill:rgb(21.176471%,21.568628%,20%);fill-opacity:1;"/><path d="M 35.679688 9.863281 L 35.535156 9.863281 C 35.3125 9.863281 35.128906 10.449219 35.128906 11.148438 L 35.128906 24.867188 C 34.371094 21.949219 33.210938 20.082031 31.921875 20.082031 C 29.617188 20.082031 27.757812 25.976562 27.757812 33.273438 C 27.757812 40.570312 29.617188 46.464844 31.921875 46.464844 C 34.226562 46.464844 36.085938 40.570312 36.085938 33.273438 L 36.085938 11.089844 C 36.085938 10.449219 35.902344 9.863281 35.679688 9.863281 Z M 31.921875 43.429688 C 30.152344 43.429688 28.714844 38.878906 28.714844 33.273438 C 28.714844 27.667969 30.152344 23.117188 31.921875 23.117188 C 33.691406 23.117188 35.128906 27.667969 35.128906 33.273438 C 35.128906 38.878906 33.691406 43.429688 31.921875 43.429688 Z M 31.921875 43.429688 " style=" stroke:none;fill-rule:nonzero;fill:rgb(21.176471%,21.568628%,20%);fill-opacity:1;"/><path d="M 43.863281 0 C 43.550781 0 43.363281 1.050781 43.511719 1.867188 L 44.011719 4.554688 C 44.046875 4.785156 44.140625 4.960938 44.230469 4.960938 L 44.671875 4.960938 C 44.859375 4.960938 44.988281 5.605469 44.894531 6.1875 L 44.710938 7.238281 L 44.691406 7.414062 C 44.65625 7.648438 44.65625 7.996094 44.691406 8.230469 L 45.1875 10.914062 C 45.335938 11.734375 45.722656 11.734375 45.871094 10.914062 L 47.511719 1.867188 C 47.660156 1.050781 47.472656 0 47.160156 0 Z M 43.863281 0 " style=" stroke:none;fill-rule:nonzero;fill:rgb(21.176471%,21.568628%,20%);fill-opacity:1;"/><path d="M 40.433594 6.304688 C 40.121094 6.304688 39.9375 7.355469 40.085938 8.171875 L 41.726562 17.21875 C 41.871094 18.039062 42.257812 18.039062 42.40625 17.21875 L 44.046875 8.171875 C 44.195312 7.355469 44.011719 6.304688 43.695312 6.304688 Z M 40.433594 6.304688 " style=" stroke:none;fill-rule:nonzero;fill:rgb(21.176471%,21.568628%,20%);fill-opacity:1;"/><path d="M 54.109375 31.8125 C 53.925781 32.28125 53.925781 33.214844 54.089844 33.683594 L 55.34375 37.300781 L 57.664062 43.957031 C 57.832031 44.421875 57.847656 45.238281 57.683594 45.707031 L 57.589844 46 C 57.445312 46.523438 57.1875 46.582031 57.039062 46.058594 L 53.167969 34.847656 C 53.058594 34.558594 52.890625 34.789062 52.890625 35.199219 L 52.890625 45.121094 C 52.890625 45.824219 52.707031 46.347656 52.503906 46.347656 L 52.339844 46.347656 C 52.117188 46.347656 51.953125 45.765625 51.953125 45.121094 L 51.953125 11.089844 C 51.953125 10.390625 52.136719 9.863281 52.339844 9.863281 L 52.503906 9.863281 C 52.726562 9.863281 52.890625 10.449219 52.890625 11.089844 L 52.890625 30.414062 C 52.890625 30.878906 53.058594 31.113281 53.167969 30.761719 L 56.355469 21.363281 C 56.523438 20.898438 56.761719 20.898438 56.910156 21.421875 L 57 21.714844 C 57.148438 22.242188 57.148438 23 56.984375 23.464844 Z M 54.109375 31.8125 " style=" stroke:none;fill-rule:nonzero;fill:rgb(21.176471%,21.568628%,20%);fill-opacity:1;"/></g></svg>