<svg xmlns="http://www.w3.org/2000/svg" id="Layer_1" width="70" height="70" x="0" y="0" enable-background="new 0 0 70 70" version="1.1" viewBox="0 0 70 70" xml:space="preserve"><metadata/><switch><g><rect width="70" height="70" fill="none"/><path fill="#8C8C8C" d="M1.4,11.3c0,0,4.7,8.5,11.4,13.5c5.4,4.1,10.2,4.1,14.7,5.6c2.5,0.9,3.8,2.6,2,4.7S16.2,51.8,16.2,51.8 S16,50.2,16.7,47.9c0.7-2.301,2.9-5.7,0.8-8.601c-2.1-2.899-7-8.8-10.9-11.7s-4.4-6-4.4-6l5.1,4l-5.9-6L1.1,18l6,5.3L1,16.5v-1.9 l5.6,6.2l-5.5-7.5L1.4,11.3z"/><path fill="#8C8C8C" d="M16.9,52.1c0,0,12.5-15.1,14.5-17.6s4.9-3.1,8.3-3.4c3.5-0.3,14.2-2,18.3-3.3c4.2-1.3,11.1-4.9,11.1-4.9 s-4.5,3.3-6,4.2c-1.6,0.9-8.199,3-8.199,3s7.1-1.6,8.199-2.2c1.101-0.6-6.5,3.8-9.699,4c0,0,4.199-0.8,5.399-1 c0,0-5.1,2.4-8.3,3.1c0,0,4.4-0.7,5.4-1.1c0,0-4.301,3.6-11.9,6c-7.6,2.5-8.6,1.199-13,3.1s-6.6,4.8-8.2,6.4 C21.3,49.8,18.2,52,16.9,52.1z"/></g></switch></svg>