<svg xmlns="http://www.w3.org/2000/svg" version="1.1" id="Layer_1" x="0px" y="0px" width="70px" height="70px" viewBox="0 0 70 70" enable-background="new 0 0 70 70" xml:space="preserve"><g><g><path fill="#EF7622" d="M46.405,28.814c-0.172,0.892-0.744,1.738-1.378,2.38c-0.039,0.039-0.086,0.086-0.125,0.125    c-0.157-0.29-0.204-0.751-0.235-0.978c-0.125-0.838-2.654-0.25-2.513,0.673c0.11,0.72,0.352,1.526,1.104,1.8    c0.932,0.344,1.988-0.008,2.81-0.478c1.299-0.744,2.56-2.364,2.834-3.851c0.07-0.384-0.29-0.54-0.759-0.54    C47.454,27.953,46.506,28.306,46.405,28.814 M50.084,29.331c-1.057,6.278-2.583,12.509-2.615,18.904    c-0.016,2.114,3.264,2.114,3.28,0c0.031-6.114,1.487-12.039,2.497-18.035c0.211-1.245-0.853-2.059-1.808-2.059    C50.812,28.141,50.225,28.501,50.084,29.331 M15.727,32.814c-1.346,0.673-2.654,1.432-3.898,2.348    c-0.869,0.634-1.886,1.393-2.403,2.481c-0.524,1.096-0.047,2.505,0.979,2.849c3.061,1.033,6.99,0.454,9.699,1.871    c0.149,0.078,0.297,0.18,0.438,0.274c0.039,0.031,0.063,0.047,0.086,0.055c0.016,0.023,0.039,0.039,0.07,0.078    c0.117,0.125,0.125,0.125,0.164,0.29c0.031,0.125,0.023,0.25-0.031,0.532c-0.078,0.423-0.196,0.697-0.352,1.041    c-0.595,1.276-1.644,2.082-2.935,2.787c-2.661,1.44-6.223,1.479-9.096,0.579c-1.315-0.407-2.552-1.104-3.429-2.121    c-0.329-0.384-0.681-1.025-0.791-1.386c-0.25-0.822-0.243-1.135-0.157-2.082c0.094-1.057-0.814-1.941-1.644-1.941    c-0.963,0-1.55,0.885-1.644,1.941c-0.36,4.211,2.223,7.264,5.307,8.736c3.311,1.589,7.186,1.652,10.63,0.658    c3.194-0.932,6.74-3.468,7.335-7.616c0.752-5.26-4.391-6.145-7.616-6.56c-0.47-0.063-0.939-0.11-1.409-0.164    c0.368-0.227,0.744-0.454,1.119-0.658c0.838-0.47,1.706-0.861,2.599-1.159c0.172-0.055,0.344-0.102,0.517-0.149    c0.282-0.07,0.235-0.063,0.243-0.063c0,0.008,0.008,0.008,0.047,0.008c1.08,1.166,3.264,0.125,2.708-1.887    c-0.415-1.503-1.393-1.996-2.521-1.996C18.365,31.554,16.768,32.298,15.727,32.814 M56.354,34.075    c-2.481,2.544-3.773,7.256-3.029,10.724c0.438,2.027,2.129,3.977,4.008,4.791c2.043,0.885,4.297,0.728,6.372,0.016    c1.879-0.65,3.569-1.738,5.025-3.069c1.566-1.432-0.759-3.742-2.317-2.317c-2.106,1.926-5.738,3.812-8.438,1.988    c-0.704-0.47-1.127-1.096-1.37-1.793c1.409-0.579,2.591-1.714,3.616-2.802c1.276-1.362,2.45-2.943,3.029-4.736    c0.571-1.753-0.133-3.624-1.941-4.243c-0.454-0.149-0.908-0.219-1.346-0.219C58.608,32.407,57.332,33.065,56.354,34.075     M56.111,38.443c0.243-0.618,0.611-1.213,1.002-1.753c0.282-0.399,0.838-0.838,1.018-0.908c0.368-0.141,0.18-0.102,0.579-0.102    c-0.016,0,0.055,0.016,0.141,0.039c-0.008,0.055-0.008,0.102-0.016,0.125c-0.258,1.104-1.229,2.333-2.082,3.28    c-0.415,0.462-0.861,0.9-1.323,1.307C55.626,39.726,55.861,39.045,56.111,38.443 M37.802,34.568    c-1.636,1.573-2.599,3.609-3.491,5.667c-0.078,0.172-0.157,0.352-0.235,0.532c0.047-1.112-0.039-2.207-0.493-3.311    c-0.391-0.939-1.425-1.589-2.411-0.978c-0.822,0.509-1.542,1.143-2.168,1.871c-0.814-1.049-2.959-0.72-2.967,0.986    c-0.023,2.732-0.454,5.433-0.477,8.164c-0.016,2.145,3.1,2.074,3.28,0c0.172-1.941,0.791-4.337,1.98-6.16    c-0.023,0.415-0.063,0.838-0.102,1.26c-0.164,1.566-0.274,3.045-0.055,4.611c0.188,1.323,1.933,1.44,2.74,0.72    c2.004-1.769,2.873-4.266,3.93-6.638c-0.086,1.135-0.149,2.27-0.117,3.413c0.055,1.722,0.352,3.499,1.448,4.877    c1.182,1.495,3.068,1.683,4.822,1.409c0.885-0.141,1.362-1.229,1.143-2.02c-0.258-0.932-1.135-1.284-2.02-1.143    c-0.517,0.078-0.947-0.008-1.112-0.086c-0.376-0.188-0.047,0.031-0.337-0.266c-0.016-0.008-0.023-0.016-0.031-0.031    c-0.016-0.023-0.031-0.055-0.063-0.094c-0.078-0.125-0.149-0.266-0.211-0.399c0.117,0.235-0.117-0.407-0.149-0.517    c-0.094-0.344-0.133-0.618-0.149-0.791c-0.094-0.775-0.086-1.566-0.07-2.348c0.039-1.526,0.204-3.045,0.305-4.571    c0.07-1.088,0.18-2.411-0.25-3.444c-0.305-0.72-0.947-1.198-1.636-1.198C38.538,34.09,38.154,34.231,37.802,34.568 M43.32,35.953    c-0.039,2.568-0.665,5.135-0.963,7.687c-0.102,0.892,0.822,1.636,1.644,1.636c0.971,0,1.534-0.751,1.644-1.636    c0.29-2.552,0.916-5.112,0.963-7.687c0.016-1.057-0.798-1.581-1.613-1.581C44.166,34.372,43.336,34.897,43.32,35.953"/><path fill="#EF7622" d="M37.825,23.304c0.102,0.172,0.25,0.321,0.423,0.423c0.196,0.102,0.415,0.157,0.634,0.141    c0.274-0.016,0.532-0.149,0.759-0.305c0.227-0.157,0.438-0.337,0.665-0.493c0.211-0.149,0.438-0.29,0.697-0.352    c0.008,0,0.016-0.008,0.016-0.016s-0.008-0.016-0.016-0.016c-0.258-0.063-0.485-0.204-0.697-0.352    c-0.219-0.164-0.431-0.344-0.665-0.493c-0.227-0.157-0.477-0.282-0.759-0.305c-0.219-0.016-0.438,0.039-0.634,0.141    c-0.18,0.102-0.321,0.243-0.423,0.423c-0.11,0.18-0.157,0.399-0.157,0.611v0.008l0,0C37.669,22.912,37.716,23.124,37.825,23.304     M44.088,24.212c-0.086-0.188-0.196-0.36-0.337-0.517c-0.141-0.149-0.29-0.282-0.462-0.391c-0.18-0.11-0.368-0.188-0.564-0.25    c-0.203-0.055-0.423-0.086-0.634-0.086c-0.227,0-0.454,0.023-0.681,0.078c-0.188,0.039-0.368,0.11-0.532,0.196    c-0.149,0.078-0.297,0.164-0.431,0.266c-0.125,0.094-0.25,0.188-0.376,0.29c-0.117,0.094-0.235,0.18-0.36,0.266    c-0.125,0.078-0.258,0.149-0.399,0.196c-0.149,0.047-0.313,0.078-0.47,0.078c-0.219,0-0.438-0.039-0.634-0.125    s-0.376-0.204-0.524-0.352c-0.149-0.149-0.266-0.329-0.344-0.524c-0.078-0.196-0.117-0.407-0.117-0.611    c0-0.211,0.039-0.423,0.117-0.618c0.078-0.196,0.196-0.376,0.344-0.524c0.149-0.149,0.329-0.274,0.524-0.352    c0.204-0.086,0.423-0.133,0.634-0.133c0.164,0,0.321,0.023,0.47,0.078c0.141,0.047,0.274,0.11,0.399,0.196    c0.125,0.078,0.243,0.172,0.36,0.266c0.125,0.094,0.25,0.196,0.376,0.29c0.141,0.102,0.282,0.188,0.431,0.266    c0.172,0.086,0.352,0.149,0.532,0.196c0.227,0.055,0.454,0.07,0.681,0.07c0.211,0,0.431-0.031,0.634-0.086    c0.204-0.055,0.391-0.141,0.564-0.25c0.172-0.11,0.329-0.243,0.462-0.391c0.133-0.157,0.25-0.329,0.337-0.517    c0.086-0.196,0.149-0.407,0.172-0.626c0.031-0.227,0.023-0.462-0.023-0.689c-0.039-0.211-0.11-0.423-0.219-0.611    c-0.102-0.188-0.227-0.352-0.376-0.493c-0.149-0.141-0.313-0.266-0.493-0.36c-0.188-0.094-0.384-0.164-0.587-0.204    c-0.211-0.039-0.431-0.055-0.642-0.031c-0.211,0.023-0.423,0.086-0.611,0.18c-0.18,0.094-0.344,0.219-0.485,0.368    c-0.133,0.149-0.243,0.313-0.329,0.493c-0.078,0.188-0.125,0.384-0.141,0.587c-0.016,0.211,0.016,0.431,0.078,0.634    c0.008,0.023,0.016,0.055,0.023,0.078c0.008,0.016,0.008,0.023,0.016,0.039s0.008,0.031,0.016,0.039s0.016,0.016,0.023,0.016    c0.016,0,0.016-0.016,0.023-0.023c0.008-0.031,0.008-0.063,0.008-0.094c0.016-0.11,0.039-0.211,0.086-0.313    c0.078-0.18,0.203-0.344,0.368-0.454c0.172-0.11,0.368-0.172,0.571-0.18c0.219-0.016,0.438,0.023,0.626,0.125    c0.172,0.094,0.321,0.227,0.415,0.399c0.102,0.18,0.149,0.384,0.141,0.587c0,0.204-0.063,0.415-0.172,0.595    c-0.11,0.18-0.266,0.321-0.454,0.415s-0.399,0.125-0.603,0.102c-0.149-0.016-0.282-0.055-0.415-0.117s-0.258-0.149-0.376-0.235    c-0.125-0.094-0.25-0.196-0.376-0.305s-0.258-0.219-0.391-0.321c-0.141-0.11-0.29-0.204-0.446-0.297    c-0.164-0.094-0.344-0.164-0.524-0.211c-0.211-0.055-0.423-0.086-0.634-0.094c-0.219,0-0.438,0.016-0.65,0.07    c-0.18,0.039-0.36,0.11-0.524,0.196c-0.157,0.078-0.297,0.18-0.43,0.297c-0.133,0.11-0.25,0.227-0.36,0.36    c-0.11,0.125-0.219,0.258-0.329,0.391c-0.102,0.133-0.211,0.266-0.313,0.399c-0.11,0.125-0.219,0.258-0.337,0.376    c-0.117,0.117-0.243,0.219-0.384,0.313c-0.031,0.016-0.055,0.039-0.086,0.055c-0.023,0.016-0.039,0.023-0.063,0.031    c-0.016,0.008-0.031,0.023-0.031,0.047s0.023,0.031,0.031,0.039c0.023,0.008,0.039,0.016,0.063,0.031    c0.031,0.016,0.055,0.039,0.086,0.055c0.141,0.094,0.266,0.196,0.384,0.313c0.117,0.117,0.227,0.243,0.337,0.368    c0.102,0.133,0.211,0.266,0.313,0.399s0.211,0.266,0.329,0.391c0.117,0.125,0.235,0.25,0.36,0.36    c0.133,0.11,0.274,0.211,0.43,0.29c0.164,0.086,0.344,0.149,0.524,0.196c0.211,0.055,0.431,0.07,0.65,0.063    c0.211,0,0.431-0.031,0.634-0.086c0.18-0.055,0.36-0.125,0.524-0.219c0.157-0.086,0.297-0.188,0.446-0.29    c0.133-0.102,0.266-0.211,0.391-0.321c0.125-0.102,0.243-0.211,0.376-0.305c0.117-0.086,0.243-0.172,0.376-0.235    s0.266-0.102,0.415-0.117c0.204-0.023,0.415,0.016,0.603,0.11s0.344,0.235,0.454,0.415c0.11,0.18,0.172,0.384,0.172,0.595    c0,0.204-0.047,0.407-0.141,0.587c-0.094,0.172-0.243,0.313-0.415,0.399c-0.196,0.102-0.415,0.133-0.626,0.125    c-0.204-0.016-0.407-0.07-0.571-0.18s-0.29-0.266-0.368-0.454c-0.039-0.102-0.07-0.211-0.086-0.313c0-0.031,0-0.063-0.008-0.086    c0-0.016-0.008-0.023-0.023-0.023c-0.008,0-0.016,0.008-0.023,0.016c-0.008,0.016-0.016,0.031-0.016,0.039    c-0.008,0.016-0.008,0.023-0.016,0.039c-0.008,0.031-0.016,0.055-0.023,0.078c-0.063,0.204-0.086,0.423-0.078,0.634    c0.016,0.204,0.055,0.399,0.141,0.587c0.078,0.18,0.188,0.352,0.329,0.493c0.141,0.149,0.305,0.274,0.485,0.36    c0.188,0.094,0.399,0.157,0.611,0.18c0.211,0.023,0.431,0.016,0.642-0.031c0.203-0.039,0.399-0.11,0.587-0.204    c0.18-0.094,0.352-0.219,0.493-0.36c0.149-0.149,0.274-0.313,0.376-0.493c0.102-0.196,0.18-0.399,0.219-0.611    c0.047-0.227,0.055-0.462,0.023-0.689C44.236,24.619,44.174,24.407,44.088,24.212 M44.753,25.167c0-0.149-0.016-0.305-0.039-0.462    c-0.039-0.227-0.102-0.446-0.196-0.65c-0.086-0.196-0.196-0.376-0.329-0.54s-0.282-0.297-0.446-0.415    c-0.047-0.039-0.102-0.07-0.149-0.102c-0.133-0.078-0.282-0.149-0.446-0.211c0,0-0.204-0.086-0.227-0.086    c0.016-0.008,0.227-0.094,0.227-0.094c0.157-0.063,0.305-0.133,0.446-0.211c0.055-0.031,0.102-0.063,0.149-0.102    c0.164-0.117,0.313-0.258,0.446-0.415c0.133-0.164,0.243-0.344,0.329-0.54c0.094-0.204,0.157-0.423,0.196-0.65    c0.023-0.157,0.039-0.321,0.039-0.462c0-0.07,0-0.141-0.008-0.211c-0.016-0.188-0.055-0.376-0.117-0.564    c-0.063-0.18-0.149-0.36-0.25-0.524c-0.11-0.164-0.227-0.321-0.376-0.462s-0.305-0.266-0.485-0.368    c-0.188-0.11-0.384-0.196-0.587-0.25c-0.219-0.063-0.438-0.102-0.673-0.11c-0.227-0.008-0.446,0.016-0.658,0.063    c-0.204,0.047-0.399,0.125-0.579,0.219c-0.18,0.102-0.337,0.211-0.477,0.352c-0.141,0.141-0.258,0.29-0.344,0.462    c-0.094,0.172-0.157,0.352-0.188,0.548c-0.016,0.102-0.023,0.204-0.023,0.305c0,0.125,0.016,0.25,0.039,0.376l0.063,0.297    l-0.196-0.141c-0.243-0.164-0.493-0.29-0.736-0.368c-0.235-0.078-0.493-0.117-0.767-0.125c-0.25-0.008-0.501,0.016-0.736,0.07    c-0.211,0.047-0.423,0.133-0.626,0.235c-0.18,0.094-0.368,0.219-0.54,0.36c-0.157,0.125-0.313,0.274-0.47,0.446    c-0.133,0.141-0.266,0.305-0.415,0.493c0,0-0.219,0.282-0.219,0.29c-0.094,0.125-0.188,0.235-0.29,0.344    c-0.196,0.219-0.368,0.376-0.556,0.509c-0.094,0.063-0.172,0.117-0.258,0.164l0,0l-0.039,0.016    c-0.023,0.008-0.047,0.023-0.063,0.031c0,0.008,0,0.008-0.008,0.008c0,0,0.008,0,0.008,0.008c0.008,0.008,0.039,0.023,0.063,0.031    l0.039,0.016l0,0c0.086,0.047,0.172,0.094,0.258,0.164c0.18,0.133,0.36,0.297,0.556,0.517c0.094,0.11,0.196,0.219,0.29,0.344    l0.219,0.29c0.149,0.188,0.282,0.344,0.415,0.485c0.164,0.172,0.313,0.321,0.47,0.446c0.18,0.141,0.36,0.266,0.54,0.36    c0.196,0.11,0.415,0.188,0.626,0.243c0.235,0.055,0.478,0.078,0.736,0.07c0.274-0.008,0.532-0.047,0.767-0.125    c0.243-0.078,0.485-0.204,0.736-0.376l0.196-0.133l-0.063,0.297c-0.023,0.125-0.039,0.25-0.039,0.376    c0,0.102,0.008,0.204,0.023,0.305c0.031,0.188,0.094,0.376,0.188,0.548c0.094,0.164,0.204,0.321,0.344,0.462    c0.141,0.141,0.297,0.258,0.477,0.352s0.376,0.172,0.579,0.219c0.211,0.047,0.431,0.07,0.658,0.063    c0.235-0.008,0.462-0.039,0.673-0.102c0.203-0.063,0.399-0.141,0.587-0.25c0.172-0.102,0.337-0.227,0.485-0.376    c0.141-0.141,0.266-0.297,0.376-0.462c0.102-0.164,0.188-0.344,0.25-0.524c0.063-0.18,0.102-0.368,0.117-0.556    C44.745,25.307,44.753,25.237,44.753,25.167 M44.902,24.673c0.023,0.172,0.039,0.337,0.039,0.493c0,0.078-0.008,0.157-0.008,0.227    c-0.016,0.204-0.063,0.407-0.125,0.603c-0.07,0.196-0.157,0.384-0.274,0.564s-0.25,0.352-0.399,0.501    c-0.157,0.157-0.329,0.29-0.524,0.399c-0.196,0.117-0.407,0.204-0.626,0.274c-0.227,0.063-0.478,0.11-0.72,0.11    c-0.243,0.008-0.485-0.016-0.712-0.063c-0.219-0.055-0.431-0.133-0.626-0.235c-0.196-0.102-0.368-0.235-0.517-0.384    c-0.157-0.149-0.282-0.321-0.376-0.509c-0.102-0.188-0.172-0.391-0.211-0.603c-0.016-0.11-0.031-0.227-0.031-0.337    c0-0.094,0.008-0.18,0.016-0.274c-0.204,0.125-0.407,0.219-0.603,0.282c-0.25,0.086-0.532,0.133-0.822,0.141    c-0.274,0.008-0.532-0.023-0.783-0.078c-0.227-0.055-0.454-0.141-0.665-0.258c-0.196-0.102-0.391-0.227-0.571-0.384    c-0.117-0.094-0.243-0.204-0.36-0.321c0,0-0.172-0.172-0.258-0.274c-0.102-0.11-0.196-0.235-0.305-0.368l-0.219-0.282    c-0.063-0.086-0.125-0.157-0.196-0.235c-0.094-0.11-0.188-0.211-0.29-0.313c-0.172-0.172-0.36-0.329-0.556-0.462    c-0.039-0.031-0.086-0.055-0.125-0.078c-0.031-0.016-0.063-0.031-0.086-0.047s-0.055-0.031-0.055-0.063s0.023-0.047,0.055-0.063    s0.063-0.031,0.086-0.047c0.039-0.023,0.086-0.055,0.125-0.078c0.204-0.133,0.384-0.29,0.556-0.462    c0.102-0.102,0.196-0.204,0.29-0.313c0.063-0.07,0.125-0.149,0.196-0.235l0.219-0.29c0.102-0.133,0.203-0.258,0.305-0.368    c0.086-0.102,0.258-0.274,0.258-0.274c0.117-0.117,0.235-0.227,0.36-0.329c0.188-0.149,0.376-0.282,0.571-0.384    c0.211-0.117,0.438-0.196,0.665-0.25c0.243-0.063,0.509-0.086,0.783-0.078c0.297,0.008,0.571,0.055,0.822,0.141    c0.204,0.063,0.399,0.164,0.603,0.282c-0.008-0.094-0.016-0.188-0.016-0.274c0-0.117,0.008-0.227,0.031-0.337    c0.031-0.211,0.11-0.415,0.211-0.603c0.094-0.188,0.227-0.352,0.376-0.509c0.157-0.149,0.329-0.274,0.517-0.384    c0.196-0.102,0.407-0.18,0.626-0.235c0.227-0.055,0.462-0.078,0.712-0.07s0.493,0.047,0.72,0.11    c0.219,0.063,0.43,0.157,0.626,0.274c0.188,0.11,0.36,0.25,0.524,0.399c0.149,0.149,0.29,0.321,0.399,0.501    c0.11,0.18,0.204,0.368,0.274,0.564c0.07,0.196,0.11,0.399,0.125,0.603c0.008,0.078,0.008,0.149,0.008,0.227    c0,0.164-0.016,0.329-0.039,0.493c-0.039,0.243-0.11,0.477-0.211,0.697c-0.094,0.211-0.219,0.407-0.36,0.587    c-0.141,0.172-0.297,0.321-0.478,0.446c-0.094,0.063-0.188,0.125-0.282,0.172c-0.047,0.023-0.102,0.055-0.157,0.078    c0.055,0.023,0.11,0.047,0.157,0.078l0,0c0.102,0.055,0.196,0.11,0.282,0.172c0.18,0.125,0.337,0.274,0.478,0.454    c0.141,0.172,0.266,0.368,0.36,0.579C44.784,24.196,44.855,24.431,44.902,24.673"/><path fill="#EF7622" d="M60.917,23.045l0.924-2.192l0.877,2.192H60.917z M63.195,25.738h2.427    c-0.485-0.29-0.634-0.556-0.939-1.268c-1.667-3.875-2.262-5.221-2.262-5.221s-0.376,0.618-1.566,0.853    c0.078,0.055,0.172,0.211,0.172,0.376c0,0.11-0.023,0.25-0.102,0.431l-1.589,3.569c-0.337,0.751-0.54,1.072-1.002,1.237    c-0.376-0.219-0.446-0.415-0.446-1.166V20.87c0-0.775,0.078-0.971,0.478-1.198h-2.168c0.399,0.219,0.47,0.415,0.47,1.198v1.26    h-3.014v-1.26c0-0.783,0.07-0.971,0.478-1.198h-2.176c0.407,0.219,0.477,0.415,0.477,1.198v3.679c0,0.775-0.07,0.971-0.477,1.198    h2.176c-0.407-0.227-0.478-0.415-0.478-1.198v-1.573h3.014v1.573c0,0.767-0.078,0.971-0.477,1.198h4.29    c-0.203-0.117-0.376-0.297-0.376-0.524c0-0.164,0.063-0.274,0.196-0.587l0.344-0.814h2.403l0.368,0.908    c0.102,0.243,0.141,0.352,0.141,0.493C63.548,25.441,63.352,25.621,63.195,25.738"/><path fill="#EF7622" d="M67.313,24.54v-3.679c0-0.783,0.078-0.963,0.47-1.198h-2.161c0.391,0.227,0.47,0.415,0.47,1.198v3.679    c0,0.775-0.078,0.963-0.47,1.198h2.161C67.391,25.511,67.313,25.323,67.313,24.54"/><path fill="#EF7622" d="M51.751,19.233L51.751,19.233c-0.219,0.18-0.571,0.423-1.534,0.423h-2.724    c-0.532,0-0.751-0.321-0.845-0.501c-0.204,0.47-0.728,1.127-1.049,1.401h2.536c0,0.094,0,0.188,0,0.305v3.616    c0,0.783-0.102,1.033-0.485,1.276h2.176c-0.391-0.235-0.47-0.415-0.47-1.198V20.86c0-0.117,0-0.188,0-0.305h0.368    c0.54,0,0.822-0.055,1.049-0.141C51.36,20.188,51.712,19.773,51.751,19.233L51.751,19.233z"/></g></g></svg>