<svg xmlns="http://www.w3.org/2000/svg" id="svg2" width="70" height="70" x="0" y="0" enable-background="new 192.941 31.711 70 70" version="1.1" viewBox="192.941 31.711 70 70" xml:space="preserve"><path id="path8" fill="#4EA322" d="M233.992,64.557c-0.785,0.431-2.034,1.605-3.475,3.223 c1.815,1.843,3.897,4.217,6.142,7.233c3.54-4.748,5.856-8.065,7.532-9.297c1.677-1.232,7.104-2.828,16.664-4.441 C246.484,62.576,236.135,63.382,233.992,64.557L233.992,64.557z"/><path id="path10" fill="#00482D" d="M226.044,63.842c-2.327-1.688-15.484-2.706-32.17-3.112 c7.985,1.192,18.213,2.909,21.158,4.762c2.342,1.476,4.893,4.242,9.243,9.277l12.384,0.244 C232.217,69.043,228.41,65.562,226.044,63.842L226.044,63.842z"/></svg>