<svg xmlns="http://www.w3.org/2000/svg" version="1.1" id="Layer_1" x="0px" y="0px" width="70" height="70" viewBox="0 0 70 70" xml:space="preserve" style="enable-background:new 0 0 70 70;"><style type="text/css">
	.st0{fill:#F26F21;}
</style><polygon points="47.4,19.5 47.7,19.5 47.8,19.7 47.8,19.9 47.8,21.9 47.7,22 47.3,21.2 47.2,20.5 47.3,19.7 " class="st0"/><polygon points="49.3,23.6 50.3,22.9 50.8,22.7 51.3,22.3 51.8,22.2 51.9,22.6 51.5,22.9 50.6,23.5 50.4,23.5   49.9,23.7 49.5,23.8 " class="st0"/><polygon points="50.4,25 50.4,24.8 51.8,24.6 52.6,24.6 53,24.7 53.2,24.8 53.2,25.1 53,25.2 52.2,25.2 51.2,25.2   50.7,25.1 " class="st0"/><polygon points="49,26.9 49.1,26.8 49.3,26.9 49.2,27.3 49.7,28.1 49.9,28.7 49.9,28.9 49.9,29.6 49.7,29.7 49.4,29.3   49.2,29.3 49.1,29.2 49.1,28.7 49,28.6 49,27.3 " class="st0"/><polygon points="45.7,27.8 46.5,26.9 46.7,26.8 46.9,26.8 46.7,27.4 46.3,28.3 46,28.6 45.7,28.7 45.7,28.6 " class="st0"/><polygon points="41.6,26.7 42.2,26.4 43.4,26.3 44,26.2 44.1,26.1 44.1,26.4 43.6,26.7 42.4,27.2 41.7,27.4 41.4,27.1   41.4,26.8 " class="st0"/><polygon points="42.6,22.9 43.6,22.8 44.5,23.1 45.3,23.4 45.5,23.6 45.4,23.7 44.5,23.7 43.6,23.6 42.9,23.3   42.6,23.1 " class="st0"/><path d="M46.8,23.6l1,0.1l0.3,0.1l0.3,0.5l0.2,0.7l-0.1,0.4l-0.6,0.2L47,25.2l-0.4-0.5l-0.2-0.4l0.1-0.5L46.8,23.6z   M46.2,23l-0.4,0.4l-0.1,0.6l0.1,0.4l0.5,1.1l0.1,0.1l0.1,0.2l0.6,0.3l0.7,0l1.1-0.1l0.3-0.3l0-0.2l0.1-0.3l-0.1-0.4l-0.1-0.8  l-0.6-0.7L47.9,23l-1-0.1L46.2,23z" class="st0"/><path d="M1.3,38.7c0.6,0.3,1.6,0.7,2.5,0.7c0.8,0,1.2-0.4,1.2-0.9c0-0.5-0.3-0.8-1.2-1.3c-1.1-0.6-2-1.4-2-2.6  c0-2,1.8-3.4,4.3-3.4c1.1,0,2,0.2,2.5,0.5l-0.7,2c-0.4-0.2-1.1-0.4-1.9-0.4c-0.8,0-1.3,0.3-1.3,0.9c0,0.4,0.4,0.7,1.2,1.1  C6.9,35.9,8,36.7,8,38.1c0,2.2-1.9,3.4-4.5,3.4c-1.2,0-2.4-0.3-3-0.8L1.3,38.7z" class="st0"/><path d="M19.2,31.5l-1.2,6.6c-0.2,1.2-0.4,2.3-0.5,3.2h-2.5l0.2-1.6l0,0c-1,1.3-2.2,1.8-3.3,1.8c-1.6,0-2.5-0.9-2.5-2.7  c0-0.5,0.1-1.1,0.2-1.8l1-5.4h2.9l-1,5.2c-0.1,0.4-0.1,0.9-0.1,1.3c0,0.6,0.3,1.1,1,1.1c1,0,2-1.2,2.3-3.1l0.9-4.5H19.2z" class="st0"/><path d="M19.1,41.3l1.2-6.6c0.2-1.2,0.4-2.3,0.5-3.2h2.5l-0.2,1.6h0c0.9-1.3,2.1-1.8,3.4-1.8c1.6,0,2.5,1,2.5,2.7  c0,0.4-0.1,1.2-0.2,1.6L28,41.3h-2.9l1-5.4c0.1-0.3,0.1-0.7,0.1-1.1c0-0.7-0.2-1.2-1-1.2c-0.9,0-2,1.2-2.4,3.3L22,41.3H19.1z" class="st0"/><path d="M33.4,31.5l0,4.1c0,1.1,0,2-0.1,3.1h0c0.3-1,0.8-2,1.2-3l1.9-4.2h2.3l0.2,4.1c0.1,1.2,0.1,2.1,0,3.1h0.1  c0.3-1.1,0.7-2,1.1-3.2l1.7-4.1h2.9L40,41.3h-2.7L37,37.9c-0.1-1-0.1-1.9-0.1-3.1h-0.1c-0.5,1.4-0.7,2.1-1.2,3l-1.7,3.5h-2.7  l-0.9-9.7H33.4z" class="st0"/><polygon points="43.7,41.3 45.6,31.5 48.4,31.5 46.6,41.3 " class="st0"/><path d="M48.4,41.3l1.2-6.6c0.2-1.2,0.4-2.3,0.5-3.2h2.5l-0.2,1.6h0c0.9-1.3,2.1-1.8,3.4-1.8c1.6,0,2.5,1,2.5,2.7  c0,0.4-0.1,1.2-0.2,1.6l-1.1,5.6h-2.9l1-5.4c0.1-0.3,0.1-0.7,0.1-1.1c0-0.7-0.2-1.2-1-1.2c-0.9,0-2,1.2-2.4,3.3l-0.8,4.3H48.4z" class="st0"/><path d="M59.6,42.6c0.5,0.3,1.7,0.5,2.5,0.5c1.4,0,2.5-0.6,2.9-2.6l0.2-0.8h0c-0.8,1-1.6,1.5-2.8,1.5  c-1.9,0-3.1-1.6-3.1-3.5c0-3.2,2.3-6.4,6.5-6.4c1.4,0,2.6,0.3,3.6,0.7l-1.5,8c-0.3,1.8-0.9,3.4-2,4.3c-1.1,0.8-2.5,1.1-3.8,1.1  c-1.3,0-2.5-0.2-3.2-0.6L59.6,42.6z M66.3,33.7c-0.2-0.1-0.6-0.2-1-0.2c-1.7,0-3,1.9-3,3.8c0,1,0.4,1.7,1.3,1.7  c0.9,0,1.9-1.1,2.2-2.7L66.3,33.7z" class="st0"/></svg>