<svg xmlns="http://www.w3.org/2000/svg" version="1.1" id="Layer_1" x="0px" y="0px" width="70px" height="70px" viewBox="0 0 70 70" enable-background="new 0 0 70 70" xml:space="preserve"><metadata/><switch><g><g><g><path fill="#CDCCCC" d="M65.48,13.003C58.816-0.098,40.729,2.499,34.798,7.389c-5.929-4.786-24.04-7.487-30.682,5.614       C-3.48,27.982,7.333,48.361,34.798,66.357C62.238,48.259,73.064,27.982,65.48,13.003z"/><g><linearGradient id="SVGID_1_" gradientTransform="matrix(0.0884 0 0 0.0884 -542.9112 -715.0464)" gradientUnits="userSpaceOnUse" x1="6576.3027" x2="6915.3735" y1="8113.293" y2="8328.458"><stop offset="0" style="stop-color:#FAB815"/><stop offset="0.5414" style="stop-color:#EEAF15"/><stop offset="0.9997" style="stop-color:#E3A714"/></linearGradient><path fill="url(#SVGID_1_)" d="M65.895,26.942c0.828-4.683,0.207-9.153-1.885-13.312c-3.839-7.597-11.537-8.74-15.697-8.74        c-4.47,0-9.056,1.563-11.756,3.121C49.76,15.29,63.079,24.965,65.895,26.942z"/><linearGradient id="SVGID_2_" gradientTransform="matrix(0.0884 0 0 0.0884 -542.9112 -715.0464)" gradientUnits="userSpaceOnUse" x1="6164.5625" x2="6649.8008" y1="8561.7383" y2="8561.7383"><stop offset="0.3457" style="stop-color:#3951A3"/><stop offset="0.4965" style="stop-color:#384FA0"/><stop offset="0.6456" style="stop-color:#364C9A"/><stop offset="0.794" style="stop-color:#324691"/><stop offset="0.9412" style="stop-color:#2D3E83"/><stop offset="0.9997" style="stop-color:#2A3A7C"/></linearGradient><path fill="url(#SVGID_2_)" d="M3.588,19.242c-2.494,13.629,8.848,30.372,31.097,45.139c4.688-3.126,8.848-6.344,12.594-9.561        C43.118,51.281,19.813,31.722,3.588,19.242z"/><linearGradient id="SVGID_3_" gradientTransform="matrix(0.0884 0 0 0.0884 -542.9112 -715.0464)" gradientUnits="userSpaceOnUse" x1="6171.7598" x2="6848.98" y1="8242.6914" y2="8525.2988"><stop offset="0" style="stop-color:#E42026"/><stop offset="0.9997" style="stop-color:#BE191D"/></linearGradient><path fill="url(#SVGID_3_)" d="M50.289,51.799c7.171-6.977,12.064-14.044,14.249-20.697        c-2.919-2.5-16.019-13.732-30.062-21.948C31.568,7.286,27.513,4.89,20.961,4.89c-4.274,0-11.859,1.144-15.708,8.74        c-0.621,1.247-1.138,2.494-1.46,3.74C20.962,28.919,46.13,48.568,50.289,51.799z"/></g></g></g></g></switch></svg>