<svg xmlns="http://www.w3.org/2000/svg" id="Layer_1" width="200" height="200" viewBox="0 0 200 200"><defs><style>.cls-1{fill:#fff;}.cls-2{fill:#e32490;}</style></defs><title/><circle cx="100" cy="100" r="76.35" class="cls-1"/><path d="M100,0A100,100,0,1,0,200,100,100,100,0,0,0,100,0Zm61.58,62.87a4.13,4.13,0,0,1-.63,1.6c-1.45,3.68-4.73,10.92-9.17,13.75L125.63,96.08,126.72,150a4.12,4.12,0,0,1-1.43,3.21l-11.24,9.68a4.14,4.14,0,0,1-2.71,1,4.76,4.76,0,0,1-1.07-.15,4.15,4.15,0,0,1-2.83-2.68L92.26,116.38,75.13,127l.54,19.85a4.13,4.13,0,0,1-2.39,3.86L68,153.14a4.05,4.05,0,0,1-3.22.1A4.1,4.1,0,0,1,62.46,151l-7.91-18.69a12.86,12.86,0,0,0-1.33-3.1,11,11,0,0,0-2.11-2.49l-.45-.49-8.1-8.84-5.52-6a4.13,4.13,0,0,1,.37-5.92l4.42-3.79a4.12,4.12,0,0,1,4.51-.56l17.82,8.78L81,98.7,46.64,66.26a4.12,4.12,0,0,1,1.1-6.77l13.49-6.17a4.17,4.17,0,0,1,3.52,0l48.56,23.51,27.26-16.38c4.47-2.89,12.7-2.76,16.52-2.51a4,4,0,0,1,3.65,1.59l.17.24A4.15,4.15,0,0,1,161.58,62.87Z" class="cls-2"/></svg>