<svg xmlns="http://www.w3.org/2000/svg" version="1.1" id="Layer_1" x="0px" y="0px" width="70px" height="70px" viewBox="0 0 70 70" enable-background="new 0 0 70 70" xml:space="preserve"><path fill="#DE3931" d="M15.935,50.987c-0.816-1.413,0.479-2.795,0.021-4.345   c-0.781-0.102-1.648-0.119-2.462-0.336c-3.237-0.863-4.106-2.843-1.583-4.773c2.73-2.09,0.927-3.071-0.161-4.521   c0.698-1.673,2.179-1.913,3.538-1.413c3.977,1.46,7.459,0.391,10.834-1.685c0.429-0.023,0.833,0.072,1.217,0.263   c0.625,2.41,0.817,4.868,0.794,7.354c-0.105,0.423-0.281,0.813-0.506,1.185c-0.986,1.271-2.212,2.068-3.89,1.977   c-1.429-0.237-2.873-0.44-4.152-1.193c-0.609-1.256-1.493-1.684-2.896-0.851c0.774-0.248,1.409-0.257,2.011,0.122   c0.317,1.357,1.101,2.43,2.071,3.384c0.294,1.704-1.616,2.328-1.858,3.78C18.1,50.795,17.208,51.436,15.935,50.987z" clip-rule="evenodd" fill-rule="evenodd"/><path fill="#DC342F" d="M43.064,41.253c2.838,1.48,4.734,3.672,5.234,6.923   c0.379,3.43,1.951,7.056-1.605,9.847c-2.004-0.216-2.668-2.481-4.627-3.059c0.293,2.332,2.211,4.779-0.723,6.603   c-2.172-0.861-2.701-3.013-2.912-4.804c-0.365-3.106-1.703-5.762-2.867-8.533c-0.145-1.811,1.014-3.009,2.021-4.279   c2.973-0.131,1.83,3.515,3.941,4.219c0.439-1.727,0.93-3.47,0.865-5.312C42.41,42.237,42.559,41.671,43.064,41.253z" clip-rule="evenodd" fill-rule="evenodd"/><path fill="#D62D2D" d="M25.395,30.189c-2.993-2.622-4.327-6.202-5.698-9.776   c-1.152-3.004-1.012-5.494,2.36-6.919c2.517,0.284,2.671,4.234,5.728,3.687c0.811,1.078,1.148,2.337,1.42,3.628   c0.314,2.122,0.104,4.179-0.736,6.163C27.652,28.242,27.725,30.368,25.395,30.189z" clip-rule="evenodd" fill-rule="evenodd"/><path fill="#D6302D" d="M26.47,34.377c-3.047,3.158-6.638,4.064-10.712,2.37   c-1.468-0.61-2.718-0.517-4.008,0.266c-1.08-0.777-0.856-1.057,0.05-2.141c1.25-1.493,3.53-0.3,4.284-2.208   c0.32-1.418,0.1-3.106,1.895-3.786c2.266,1.268,4.532,2.536,6.798,3.804C25.131,33.457,27.04,32.68,26.47,34.377z" clip-rule="evenodd" fill-rule="evenodd"/><path fill="#D72D2B" d="M23.91,43.971c1.508,0.126,2.268-1.249,3.471-1.733   c1.193,0.146,2.11,0.713,2.703,1.774c-1.709,2.44-3.639,4.762-4.358,7.759c-1.357,0.774,0.615,3.279-1.815,3.496   c-1.487-0.659-1.971-2.079-1.879-3.405c0.157-2.255-1.288-1.561-2.396-1.617c-0.549-0.14-0.667-0.669-0.943-1.054   c-0.97-1.908,1.626-1.433,1.746-2.61C21.051,44.986,22.516,44.523,23.91,43.971z" clip-rule="evenodd" fill-rule="evenodd"/><path fill="#E03932" d="M46.508,57.873c1.641-3.041,1.096-6.484,1.791-9.697   c1.389,2.097,1.262,4.604,1.883,6.908c0.627,2.319,0.797,5.003,2.586,6.652c2.967,2.736,1.615,4.226-1.057,5.682   c-1.109-0.016-1.906-0.524-2.404-1.511c-0.533-2.681-1.865-5.043-3.008-7.482C46.365,58.239,46.438,58.057,46.508,57.873z" clip-rule="evenodd" fill-rule="evenodd"/><path fill="#D4282B" d="M30.917,48.321c0.011-0.289,0.021-0.577,0.032-0.865   c1.65-1.151,2.717,0.263,3.961,0.895c3.633,2.983,2.418,6.908,2.068,10.67c-0.26,1.166-0.961,2.058-1.799,2.861   c-0.287,0.24-0.611,0.425-0.967,0.551c-2.273-1.472-2.023-3.979-2.531-6.175C30.654,53.687,31.98,50.89,30.917,48.321z" clip-rule="evenodd" fill-rule="evenodd"/><path fill="#DD3731" d="M34.494,10.03c1.482,3.749,5.324,6.635,4.154,11.354   c-0.559,1.189,0.686,3.081-1.426,3.667c-2.588-2.834-2.859-7.034-5.729-9.704c-0.25-0.332-0.46-0.687-0.646-1.06   c-0.602-2.37-0.481-4.548,1.676-6.172C34.057,7.85,33.615,9.621,34.494,10.03z" clip-rule="evenodd" fill-rule="evenodd"/><path fill="#E63F37" d="M32.602,8.334c-0.835,1.95-1.588,3.912-0.873,6.085   c-1.672,2.198-2.645,0.582-3.338-0.774c-0.908-1.781-1.83-3.483-3.521-4.644c-0.471-0.405-0.65-0.979-0.886-1.521   c0.352-2.068,1.268-3.717,3.333-4.52c1.942,0.647,3.214,2.346,5.026,3.205C32.971,6.824,33.342,7.514,32.602,8.334z" clip-rule="evenodd" fill-rule="evenodd"/><path fill="#D62B2D" d="M36.078,59.616c-0.727-1.844,2.094-4.417-1.238-5.804   c-0.414-0.172,0.316-0.791,0.748-1.157c2.594-2.2-0.51-2.423-1.252-3.474c0.002-1.447,0.725-1.447,1.74-0.867   c3.885,3.485,2.688,9.007,5.217,13.035c1.531,1.295,1.527,1.405-0.064,3.665c-0.865-0.604-1.73-1.206-2.598-1.809   c-0.215-0.302-0.453-0.581-0.721-0.839C36.98,61.663,36.527,60.64,36.078,59.616z" clip-rule="evenodd" fill-rule="evenodd"/><path fill="#DE3932" d="M36.076,48.314c-0.715,0.021-1.363,0.172-1.74,0.867   c-1.188-0.461-1.91-1.835-3.387-1.726c-0.447-1.109,0.638-2.602-0.865-3.444c-1.264-0.038-2.194-0.584-2.703-1.774l0.02-0.021   c2.441-1.909,5.281-1.794,8.135-1.61c0.197,0.027,0.395,0.062,0.59,0.092c0.383,0.105,0.73,0.287,1.041,0.532   c0.604,0.818,0.779,1.744,0.648,2.74C38.387,45.879,36.143,46.661,36.076,48.314z" clip-rule="evenodd" fill-rule="evenodd"/><path fill="#E03932" d="M26.47,34.377c-0.564-0.565-1.128-1.13-1.692-1.696   c3.756,0.049,0.69-1.592,0.618-2.492c1.441-0.771,1.148-2.5,1.992-3.6c1.822-1.239,3.494-0.551,5.146,0.397   c1.117,1.098,1.414,2.677,2.295,3.921c0.42,1.02,0.502,2.047,0.043,3.079c-2.541-0.367-4.959,1.502-7.543,0.427   C27.041,34.412,26.756,34.4,26.47,34.377z" clip-rule="evenodd" fill-rule="evenodd"/><path fill="#E03932" d="M41.229,65.015c-0.332-1.229,0.916-2.428,0.064-3.665   c0.859-1.611,1.332-3.194-0.02-4.826c-0.768-0.924-1.471-2.359-0.379-3.037c1.029-0.64,2.42,0.051,3.234,1.323   c0.693,1.084,1.578,2.047,2.379,3.063l-0.002,0.002c-2.037,2.643-1.002,5.692-1.139,8.588c-0.102,0.397-0.301,0.735-0.607,1.009   C43.176,67.237,42.107,66.262,41.229,65.015z" clip-rule="evenodd" fill-rule="evenodd"/><path fill="#D82F2C" d="M34.338,30.935c-2.324-0.286-1.572-2.111-1.74-3.476   c-1.965-1.585-1.485-3.717-1.296-5.787c0.226-0.342,0.54-0.525,0.954-0.528c1.926,0.772,2.789,2.896,4.691,3.704   c1.406-0.742,0.332-2.703,1.701-3.463c0.258,0.602,1.168,0.849,0.938,1.717c-0.717,1.671-0.643,3.643-1.926,5.101   c-0.305,0.465-0.662,0.888-1.049,1.287C35.949,30.12,35.314,30.798,34.338,30.935z" clip-rule="evenodd" fill-rule="evenodd"/><path fill="#DE3932" d="M43.064,41.253c-0.014,0.615-0.025,1.228-0.037,1.842   c-2.393,0.711-4.297-0.291-6.078-1.728l-0.004-0.005c-1.08-2.394-0.471-4.329,1.582-5.881c1.951-0.678,3.92-0.649,5.902-0.147   c0.705,0.322,1.348,0.692,1.201,1.639C44.436,38.197,39.611,37.242,43.064,41.253z" clip-rule="evenodd" fill-rule="evenodd"/><path fill="#DB332F" d="M23.984,7.481c0.266,0.284,0.53,0.569,0.795,0.853   c1.504,2.708,4.303,5.027,2.604,8.694c-1.457,2.098-2.811,1.197-3.67-0.391c-0.558-1.032-0.402-2.445-1.657-3.143   C22.7,11.489,23.341,9.485,23.984,7.481z" clip-rule="evenodd" fill-rule="evenodd"/><path fill="#E03933" d="M45.631,36.974c-0.289-0.276-0.58-0.553-0.869-0.829   c-0.807-3.401,2.717-3.529,4.027-5.331c0.904-0.559,2.047-0.008,2.938-0.636c0.51-0.075,1.02-0.151,1.529-0.227   c1.297-0.101,2.852-1.294,3.617,0.855c-3.275,0.59-6.531,1.132-8.361,4.518C47.979,36.307,46.916,36.99,45.631,36.974z" clip-rule="evenodd" fill-rule="evenodd"/><path fill="#E23833" d="M31.729,6.599c-2.262-0.252-3.355-1.921-4.411-3.637   c2.394-1.996,4.942-2.292,7.665-0.702c-1.16,1.181-2.393,0.601-4.02,0.031c1.117,0.729,2.49,0.818,2.146,2.289   C32.98,5.481,32.395,6.068,31.729,6.599z" clip-rule="evenodd" fill-rule="evenodd"/><path fill="#E13834" d="M44.76,67.472c0.004-0.3,0.01-0.601,0.012-0.9   c0.527-0.606,1.23-0.87,1.984-1.038c0.549-0.159,1.105-0.295,1.672-0.39c0.6-0.05,1.135,0.093,1.555,0.551   c0.576,0.576,1.152,1.15,1.729,1.724C49.404,68.822,47.088,68.849,44.76,67.472z" clip-rule="evenodd" fill-rule="evenodd"/><path fill="#E03933" d="M42.162,30.127c1.732-0.876,3.486-1.279,5.295-0.203   c0.279,0.368,0.4,0.782,0.363,1.243c-1.088,2.072-2.936,1.627-4.711,1.428c-0.434-0.125-0.812-0.348-1.141-0.66   C41.646,31.294,41.643,30.683,42.162,30.127z" clip-rule="evenodd" fill-rule="evenodd"/><path fill="#DF2228" d="M17.979,28.877c-1.424,0.866,0.382,3.348-1.895,3.786   C15.179,32,15.124,30.969,14.99,30c-0.153-1.106-0.459-2.577,0.698-3.047C17.077,26.39,17.264,28.138,17.979,28.877z" clip-rule="evenodd" fill-rule="evenodd"/><path fill="#E03934" d="M42.162,30.127c-0.002,0.557-0.004,1.114-0.004,1.67   c-2.471,0.173-5.564,1.8-6.08-2.6c0.289-0.291,0.576-0.583,0.865-0.874c0.973-0.51,1.332,0.198,1.709,0.864   C39.424,30.992,40.982,29.853,42.162,30.127z" clip-rule="evenodd" fill-rule="evenodd"/><path fill="#D6302D" d="M32.596,4.859c0.25-1.383-1.365-1.444-1.856-2.6   c1.515,0,2.878,0,4.243,0c0.496,1.01,0.053,1.837-0.512,2.643C33.846,4.878,33.166,7.273,32.596,4.859z" clip-rule="evenodd" fill-rule="evenodd"/><path fill="#DD3731" d="M38.652,29.188c-0.57-0.287-1.139-0.576-1.709-0.864   c0.881-1.741,1.762-3.481,2.643-5.223C39.98,25.239,39.836,27.293,38.652,29.188z" clip-rule="evenodd" fill-rule="evenodd"/><path fill="#D92A2A" d="M32.596,4.859c0.604,0.959,1.25,0.036,1.875,0.042   c0.008,1.709,0.016,3.418,0.023,5.128c-0.631-0.565-1.26-1.13-1.893-1.695c-0.023-0.713-0.176-1.362-0.873-1.736   C31.748,5.885,31.896,5.235,32.596,4.859z" clip-rule="evenodd" fill-rule="evenodd"/><path fill="#EC5E53" d="M56.873,30.805c-1.031-1.025-2.451-0.398-3.617-0.855   c2.387-0.931,4.58-0.664,6.744,1.011C58.758,31.928,57.855,30.776,56.873,30.805z" clip-rule="evenodd" fill-rule="evenodd"/><path fill="#DE3932" d="M30.917,48.321c1.585,2.518,0.556,5.288,0.765,7.937   C30.397,53.713,30.627,51.021,30.917,48.321z" clip-rule="evenodd" fill-rule="evenodd"/><path fill="#E22E2E" d="M18.692,49.19c0.315,0.352,0.629,0.702,0.943,1.054   c-1.058,1.123-1.965,2.998-3.701,0.743C16.854,50.389,17.773,49.789,18.692,49.19z" clip-rule="evenodd" fill-rule="evenodd"/><path fill="#DB342F" d="M23.911,55.267c1.401-0.752,0.318-2.794,1.815-3.496   C25.001,52.874,27.6,55.702,23.911,55.267z" clip-rule="evenodd" fill-rule="evenodd"/><path fill="#EC5E53" d="M47.42,30.845c0.012-0.307,0.025-0.614,0.037-0.92   c1.424,0.084,2.848,0.168,4.27,0.252c-0.689,0.935-1.76,0.78-2.715,0.952C48.418,31.381,47.85,31.497,47.42,30.845z" clip-rule="evenodd" fill-rule="evenodd"/><path fill="#E03932" d="M38.682,62.224c-0.016,0.328-0.033,0.655-0.051,0.982   c-1.471-0.257-2.943-0.516-4.418-0.773l0.188-0.349C35.863,61.042,37.283,61.302,38.682,62.224z" clip-rule="evenodd" fill-rule="evenodd"/><path fill="#ED473D" d="M27.328,34.414c0.941-0.849,2.396,0.252,3.338-1.057   c2.031-2.826,2.668-0.096,3.672,1.056c1.105,0.822,1.314,2.123,1.771,3.294c0.23,1.219,0.781,2.445-0.031,3.656   c-2.893,0.285-5.785,0.569-8.678,0.854C27.832,39.612,25.461,37.032,27.328,34.414z" clip-rule="evenodd" fill-rule="evenodd"/><path fill="#DC332F" d="M23.91,43.971c-0.634,1.567-2.206,1.884-3.472,2.609   c-1.253-0.821-2.744-1.522-1.741-3.474c0.287-0.309,0.575-0.311,0.866-0.007C21.089,43.009,22.569,43.142,23.91,43.971z" clip-rule="evenodd" fill-rule="evenodd"/><path fill="#E73F36" d="M19.563,43.1c-0.289,0.002-0.577,0.004-0.866,0.007   c-1.266,0-2.532,0-3.642,0C18.601,40.6,18.601,40.6,19.563,43.1z" clip-rule="evenodd" fill-rule="evenodd"/><path fill="#D82E2C" d="M36.949,41.367c2.195-0.02,4.115,0.934,6.078,1.728   c1.684,1.828-1.559,3.794,0.16,5.712c0.336,0.371-0.396,0.942-0.971,1.071c-0.764,0.172-1.242-0.234-1.812-0.747   c-1.559-1.405-1.342-3.641-2.59-5.16C36.795,43.345,36.975,42.322,36.949,41.367z" clip-rule="evenodd" fill-rule="evenodd"/><path fill="#E03831" d="M27.384,17.028c0.306-3.249-2.908-5.445-2.604-8.694   c2.589,0.235,3.456,2.251,4.167,4.252c0.511,1.438,0.75,2.878,2.782,1.833l0.006,0.003c0.785,2.317,2.059,4.634-0.004,6.95v-0.001   c-1.336,0.418-2.585,0.495-3.475-0.869C27.66,19.421,27.251,18.293,27.384,17.028z" clip-rule="evenodd" fill-rule="evenodd"/><path fill="#DC342F" d="M28.256,20.503c1.158,0.29,2.316,0.58,3.475,0.869   c0.289,2.029,0.578,4.058,0.867,6.087c-1.736-0.29-3.473-0.579-5.211-0.87C28.591,24.691,28.189,22.564,28.256,20.503z" clip-rule="evenodd" fill-rule="evenodd"/><path fill="#E01F2A" d="M23.195,22.575c0.24,0.75,0.152,1.169-0.387,1.008   c-0.311-0.093-0.609-0.535-0.726-0.882c-0.091-0.271,0.109-0.638,0.178-0.962C22.64,22.079,23.018,22.417,23.195,22.575z" clip-rule="evenodd" fill-rule="evenodd"/><path fill="#E43D34" d="M47.373,66.567c-0.867,0.002-1.734,0.002-2.602,0.004   c-1.824-2.761,0.695-5.813-0.52-8.7c-0.158-0.375,1.463,0.168,2.254,0.004c2.031,2.219,3.465,4.703,3.477,7.819   c-0.58,0.002-1.158,0.002-1.738,0.003c-0.24-0.15-0.244-0.478-0.469-0.643C47.803,65.602,47.77,66.133,47.373,66.567z" clip-rule="evenodd" fill-rule="evenodd"/><path fill="#CF2B2A" d="M38.682,62.224c-1.428-0.046-2.855-0.092-4.281-0.138   c-0.172-1.322,1.217-1.578,1.678-2.47C37.25,60.182,38.121,61.049,38.682,62.224z" clip-rule="evenodd" fill-rule="evenodd"/><path fill="#DB322E" d="M31.73,21.373c0.002-2.316,0.002-4.633,0.004-6.95   c3.1,2.794,4.928,6.223,5.213,10.425C34.186,25.226,33.396,22.643,31.73,21.373z" clip-rule="evenodd" fill-rule="evenodd"/><path fill="#E03934" d="M36.078,41.362c-0.289-1.158-0.578-2.317-0.865-3.476   c0.268-4.961,0.334-5.021,3.781-3.457c0.234,0.633,0.182,1.214-0.311,1.715c-1.295,1.501-1.131,3.487-1.738,5.218   C36.656,41.362,36.367,41.362,36.078,41.362z" clip-rule="evenodd" fill-rule="evenodd"/><path fill="#E03933" d="M38.678,34.409c-1.623-0.344-3.207-0.613-2.412,1.969   c0.311,1.014,1.283,2.385-1.053,1.509c-0.604-1.079-1.01-2.209-0.875-3.475c0-1.159,0-2.318,0-3.477   c0.33-0.831,0.91-1.41,1.74-1.737c0.971,3.334,4.357,1.02,6.08,2.6l0.002,0.005C41.906,33.882,40.48,34.397,38.678,34.409z" clip-rule="evenodd" fill-rule="evenodd"/><path fill="#D72F2B" d="M38.678,34.409c1.16-0.868,2.322-1.738,3.482-2.606   c1.756-0.298,3.758,0.75,5.258-0.957c0.533,0.093,1.064,0.187,1.594,0.282c-0.23,2.678-3.934,2.413-4.25,5.017   c-2.025,0-4.051,0-6.078,0C38.682,35.565,38.68,34.987,38.678,34.409z" clip-rule="evenodd" fill-rule="evenodd"/><path fill="#EA4139" d="M47.373,66.567c0.445-1.237-0.791-2.159-0.877-3.368   c2,0.09,1.654,1.428,1.748,2.498C47.955,65.986,47.664,66.277,47.373,66.567z" clip-rule="evenodd" fill-rule="evenodd"/></svg>