<svg xmlns="http://www.w3.org/2000/svg" id="Layer_1" width="70" height="70" x="0" y="0" version="1.1" viewBox="0 0 70 70" xml:space="preserve" style="enable-background:new 0 0 70 70"><style type="text/css">.st0{fill:#00ac9d}.st1{fill:#00467f}.st2{display:none;fill:#fff}</style><g><g><g><path d="M25.4,32.1l-6.2-9.2c0,0-2.8,3.1-3.4,3.8c-0.6,0.7-1.2,1.2-2.3,1c-1.3-0.2-7.1-1.4-7.1-1.4s-0.5,7.2-0.5,7.8 c-0.1,0.7-0.3,1.6-1.6,2.7L25.4,32.1z" class="st0"/><path d="M49.1,26.9l7.4-13.4c0,0-4.8,2.1-6.4,2.8c-1.6,0.7-2.2,0.6-2.5-0.5c-0.2-1.1-1.4-9.3-1.5-9.7 c-0.5,0.5-8.5,8.6-9.6,9.7c-1.2,1.1-1.9,1.2-2.9,0.5c-1-0.7-4.1-2.8-4.1-2.8l-3.8,18.6L49.1,26.9z" class="st0"/><path d="M62.7,34.2c0.5-0.7,5.8-7.8,5.8-7.8s-6.6,1.2-8.1,1.4c-1.2,0.1-1.4-0.3-1.4-1c0-0.4-0.3-4.3-0.3-4.3L49.2,27 l-22,26l16.3,2.5c0,0,0.1-2.5,0.1-4.3c0.1-1.8,1.1-2.2,1.8-2.6c0.6-0.4,19.2-11.1,19.2-11.1l-1.9-1 C61.5,35.9,62.2,34.9,62.7,34.2" class="st0"/></g><path d="M1.5,37.4c0,0,7.9,9.3,8.2,9.7c1.9,2.2,1.8,3.1-0.1,5.4c-1.5,1.8-2.5,3-2.5,3s10.9-1.8,12.4-2.1 c1.4-0.2,2.8,0.1,2.4,2.1c-0.2,1.3-1.5,8.5-1.5,8.5l6.5-11l11.5-19.5L3.9,37.2L1.5,37.4z" class="st1"/><polygon points="49.2 27 27.2 53 27 52.9 38.4 33.4 3.9 37.2 4.3 36.9 25.4 32.2 25.7 32.1 49.1 26.9" class="st2"/></g></g></svg>