<svg xmlns="http://www.w3.org/2000/svg" id="Layer_1" width="70" height="70" x="0" y="0" enable-background="new 0 0 70 70" version="1.1" viewBox="0 0 70 70" xml:space="preserve"><g><path fill="#9A258F" d="M67.347,34.628c0,18.209-14.767,32.977-32.98,32.977c-18.213,0-32.978-14.768-32.978-32.977 c0-18.211,14.765-32.977,32.978-32.977C52.58,1.651,67.347,16.417,67.347,34.628"/><path fill="#FFF" d="M50.553,49.534V48.9c-0.466-0.117-1.081-0.246-1.875-0.246c-1.17,0-1.822,0.516-1.822,1.289v0.022 c0,0.798,0.759,1.264,1.605,1.264C49.588,51.229,50.553,50.543,50.553,49.534 M46.294,49.996V49.97 c0-1.145,0.986-1.796,2.418-1.796c0.769,0,1.302,0.1,1.832,0.238v-0.238c0-1.112-0.685-1.692-1.822-1.692 c-0.675,0-1.227,0.186-1.733,0.446l-0.199-0.463c0.607-0.282,1.206-0.479,1.965-0.479c0.75,0,1.345,0.202,1.743,0.607 c0.371,0.366,0.566,0.875,0.566,1.562v3.444h-0.52v-0.918c-0.383,0.528-1.063,1.049-2.116,1.049 C47.396,51.731,46.294,51.148,46.294,49.996"/><path fill="#FFF" d="M52.748,51.601h0.533v-5.528h-0.533V51.601z M52.684,44.63h0.663V43.9h-0.663V44.63z"/><path fill="#FFF" d="M55.05,46.072h0.529v1.566c0.436-0.981,1.355-1.695,2.45-1.652v0.585h-0.056 c-1.28,0-2.395,0.966-2.395,2.766v2.264H55.05V46.072z"/><path fill="#FFF" d="M31.918,34.523c0.206-0.885,0.835-1.587,1.688-1.801c0.124-1.205,0.237-2.403,0.25-2.676 c0.031-0.579,0.548-0.611,0.548,0c0,0.285,0.156,1.479,0.32,2.68c0.834,0.215,1.484,0.895,1.719,1.777 c1.335,0.045,3.531,0.125,5.823,0.202c-0.235-3.857-3.511-7.037-8.051-7.037c-4.588,0-7.898,3.253-8.108,7.142 C28.384,34.701,30.561,34.59,31.918,34.523"/><path fill="#FFF" d="M36.373,36.197c-0.328,0.916-1.136,1.569-2.157,1.569c-0.988,0-1.825-0.633-2.184-1.55 c-1.343-0.049-3.566-0.127-5.898-0.207c0.381,3.727,3.604,6.741,8.028,6.741c4.474,0,7.724-3.094,8.086-6.844 C39.919,36.021,37.695,36.133,36.373,36.197"/><path fill="#FFF" d="M63.313,28.011h-3.932c-0.362,0-0.67,0.239-0.772,0.566c-0.007,0.027-0.015,0.054-0.017,0.079l-1.363,5.21 l-1.566-5.235l-0.059-0.181c-0.121-0.289-0.403-0.49-0.737-0.49h-3.574c-0.363,0-0.67,0.238-0.774,0.57l-1.568,5.286l-1.312-5.16 c-0.005-0.025-0.014-0.052-0.021-0.079c-0.101-0.327-0.408-0.566-0.771-0.566h-4.006c-0.448,0-0.809,0.361-0.809,0.81 c0,0.083,0.013,0.164,0.036,0.241l1.708,5.695c3.339,0.114,6.545,0.224,7.334,0.234c1.772,0.029,1.874,0.548,0,0.548 c-0.801,0-3.815,0.131-7.01,0.278l1.825,6.098l0.014,0.051c0.111,0.319,0.408,0.548,0.764,0.548h3.792 c0.362,0,0.669-0.238,0.772-0.566l1.796-5.604l1.732,5.561c0.005,0.012,0.01,0.018,0.014,0.03l0.017,0.049 c0.001,0.014,0.005,0.022,0.009,0.035c0.128,0.29,0.41,0.495,0.747,0.495H59.4c0.345,0,0.638-0.216,0.755-0.521l0.035-0.112 c0-0.002,0-0.01,0.003-0.012l3.886-12.792c0.002-0.009,0.003-0.022,0.008-0.034c0.019-0.07,0.031-0.145,0.031-0.222 C64.118,28.373,63.757,28.011,63.313,28.011"/><path fill="#FFF" d="M17.245,35.724c-1.707-0.027-1.803-0.547,0-0.547c0.79,0,3.989-0.138,7.325-0.296l1.766-5.804 c0.001-0.009,0.004-0.022,0.008-0.034c0.019-0.07,0.031-0.145,0.031-0.222c0-0.448-0.361-0.81-0.808-0.81h-3.928 c-0.365,0-0.669,0.239-0.773,0.57c-0.007,0.023-0.013,0.05-0.016,0.075l-1.366,5.21l-1.564-5.237l-0.055-0.179 c-0.122-0.286-0.408-0.49-0.739-0.49h-3.58c-0.359,0-0.666,0.238-0.767,0.57l-1.572,5.279l-1.311-5.153 c-0.007-0.025-0.016-0.052-0.022-0.075c-0.101-0.331-0.409-0.57-0.77-0.57H5.096c-0.446,0-0.808,0.361-0.808,0.81 c0,0.085,0.011,0.164,0.037,0.235l3.855,12.86l0.014,0.054c0.109,0.315,0.413,0.544,0.767,0.544h3.793 c0.362,0,0.666-0.238,0.769-0.566l1.798-5.604l1.733,5.561c0.002,0.012,0.005,0.022,0.007,0.03l0.019,0.049 c0.003,0.01,0.008,0.022,0.012,0.035c0.121,0.29,0.413,0.495,0.746,0.495h3.821c0.339,0,0.638-0.216,0.751-0.521l0.037-0.112 c0-0.002,0-0.01,0.002-0.012l1.799-5.92C21.007,35.835,17.972,35.739,17.245,35.724"/></g></svg>