<svg xmlns="http://www.w3.org/2000/svg" id="Layer_1" width="70" height="70" x="0" y="0" enable-background="new 0 0 70 70" version="1.1" viewBox="0 0 70 70" xml:space="preserve"><path fill="#EB2227" fill-rule="evenodd" d="M68.855,31.999c-0.188,0.242-0.361,0.465-0.535,0.686 c-1.242,1.585-2.491,3.162-3.724,4.756c-0.605,0.783-1.369,1.266-2.355,1.386c-0.16,0.02-0.323,0.035-0.484,0.036 c-1.349,0.002-2.696-0.001-4.045,0.004c-0.133,0-0.19-0.041-0.157-0.169c0.008-0.036,0.058-0.087,0.093-0.091 c1.117-0.117,1.946-0.697,2.618-1.566c1.28-1.654,2.574-3.297,3.868-4.941c0.04-0.053,0.124-0.104,0.187-0.104 c1.485-0.006,2.97-0.004,4.453-0.004C68.788,31.991,68.805,31.994,68.855,31.999z" clip-rule="evenodd"/><path fill="#847369" fill-rule="evenodd" d="M40.568,35.416c0-1.075,0.002-2.149-0.003-3.226 c-0.001-0.145,0.031-0.197,0.188-0.196c2.083,0.005,4.165,0.005,6.246,0.001c0.141,0,0.196,0.029,0.189,0.181 c-0.013,0.283-0.004,0.567-0.004,0.851c0,0.209,0,0.209-0.219,0.209c-1.458,0-2.915,0-4.373,0c-0.245,0-0.246,0-0.246,0.238 c0,0.363,0.007,0.725-0.002,1.086c-0.003,0.156,0.044,0.208,0.204,0.207c1.449-0.006,2.896-0.001,4.343-0.007 c0.154-0.001,0.215,0.032,0.206,0.198c-0.016,0.277-0.013,0.556-0.001,0.834c0.008,0.156-0.052,0.191-0.198,0.19 c-1.395-0.005-2.79-0.003-4.185-0.003c-0.063,0-0.126,0.006-0.188,0c-0.141-0.014-0.183,0.053-0.18,0.186 c0.005,0.419,0.007,0.839-0.002,1.258c-0.002,0.155,0.043,0.209,0.204,0.208c1.459-0.005,2.918-0.003,4.375-0.003 c0.233,0,0.233,0,0.233,0.24c0,0.262-0.009,0.525,0.003,0.787c0.008,0.156-0.049,0.192-0.197,0.192 c-1.709-0.005-3.419-0.003-5.129-0.003c-0.341,0-0.682,0-1.022,0c-0.242,0-0.242,0-0.242-0.234 C40.568,37.546,40.568,36.481,40.568,35.416z" clip-rule="evenodd"/><path fill="#1A2654" fill-rule="evenodd" d="M9.146,36.815c0,0.463,0.003,0.918-0.005,1.373 c0,0.039-0.058,0.094-0.102,0.113c-1.084,0.479-2.221,0.713-3.406,0.697c-0.98-0.012-1.931-0.176-2.82-0.605 c-0.873-0.423-1.567-1.031-1.908-1.969c-0.466-1.281-0.018-2.643,1.148-3.502c0.78-0.575,1.668-0.873,2.617-0.992 c1.449-0.184,2.863-0.012,4.244,0.463c0.129,0.045,0.176,0.102,0.173,0.243c-0.011,0.429-0.003,0.857-0.003,1.304 c-0.057-0.021-0.095-0.032-0.131-0.049c-1.125-0.533-2.313-0.734-3.547-0.645c-0.744,0.055-1.443,0.268-2.016,0.779 c-0.832,0.743-0.84,1.982-0.02,2.739c0.528,0.487,1.166,0.739,1.867,0.823c1.262,0.15,2.461-0.087,3.602-0.639 c0.089-0.043,0.178-0.088,0.267-0.133C9.11,36.815,9.116,36.817,9.146,36.815z" clip-rule="evenodd"/><path fill="#1A2654" fill-rule="evenodd" d="M14.252,31.997c2.908,0,5.796,0,8.693,0c0,0.418,0,0.83,0,1.264 c-0.069,0-0.13,0-0.192,0c-1.022,0-2.046,0.002-3.069-0.004c-0.141,0-0.186,0.035-0.186,0.184c0.005,1.736,0.003,3.473,0.003,5.209 c0,0.066,0,0.134,0,0.211c-0.61,0-1.206,0-1.82,0c0-1.862,0-3.721,0-5.6c-1.154,0-2.29,0-3.43,0 C14.252,32.829,14.252,32.417,14.252,31.997z" clip-rule="evenodd"/><path fill="#1A2654" fill-rule="evenodd" d="M23.44,31.987c0.584,0,1.133,0,1.683,0.001 c0.23,0.001,0.49-0.059,0.682,0.028c0.186,0.086,0.301,0.324,0.446,0.496c0.632,0.758,1.264,1.514,1.896,2.27 c0.041,0.049,0.082,0.096,0.137,0.158c0.06-0.064,0.116-0.123,0.17-0.184c0.794-0.886,1.589-1.771,2.38-2.66 c0.073-0.082,0.146-0.113,0.255-0.111c0.503,0.006,1.007,0.002,1.511,0.002c0.05,0,0.101,0,0.183,0 c-0.073,0.086-0.125,0.149-0.179,0.21c-1.16,1.289-2.32,2.579-3.484,3.866c-0.08,0.088-0.113,0.176-0.112,0.294 c0.004,0.771,0.002,1.542,0.002,2.312c0,0.062,0,0.122,0,0.192c-0.611,0-1.201,0-1.807,0c-0.003-0.064-0.008-0.127-0.008-0.188 c-0.001-0.724,0.002-1.447-0.005-2.171c0-0.084-0.038-0.186-0.092-0.249c-1.174-1.376-2.354-2.746-3.532-4.119 C23.531,32.097,23.498,32.057,23.44,31.987z" clip-rule="evenodd"/><path fill="#847369" fill-rule="evenodd" d="M52.462,31.997c1.38,0,2.76,0.003,4.138-0.002 c0.149-0.001,0.205,0.033,0.198,0.189c-0.012,0.289-0.01,0.578,0,0.865c0.004,0.143-0.039,0.189-0.187,0.188 c-0.99-0.007-1.982-0.003-2.974-0.003c-0.324,0-0.283-0.021-0.283,0.29c0,1.704,0,3.409,0,5.114c0,0.204,0,0.205-0.208,0.205 c-0.457,0-0.914-0.008-1.369,0.004c-0.164,0.004-0.2-0.053-0.199-0.207c0.005-1.721,0.004-3.439,0.003-5.161 c0-0.245,0-0.245-0.253-0.245c-1.006,0-2.013-0.002-3.021,0.002c-0.138,0.002-0.195-0.029-0.188-0.182 c0.013-0.287,0.014-0.578,0-0.865c-0.009-0.168,0.052-0.197,0.206-0.195C49.703,32.001,51.084,31.997,52.462,31.997z" clip-rule="evenodd"/><path fill="#847369" fill-rule="evenodd" d="M31.03,37.208c0.457,0.107,0.88,0.223,1.311,0.302 c0.804,0.149,1.616,0.235,2.435,0.147c0.522-0.057,1.021-0.19,1.424-0.559c0.333-0.305,0.517-0.691,0.524-1.139 c0.02-1.246,0.019-2.494,0.025-3.741c0.002-0.221,0.001-0.222,0.224-0.222c0.462,0,0.923,0.004,1.384-0.002 c0.125-0.002,0.176,0.025,0.175,0.163c-0.005,1.222,0.01,2.444-0.008,3.665c-0.011,0.781-0.192,1.518-0.764,2.102 c-0.475,0.486-1.074,0.748-1.726,0.873c-0.451,0.086-0.911,0.139-1.367,0.164c-1.083,0.061-2.153-0.048-3.199-0.344 c-0.439-0.123-0.438-0.125-0.438-0.582C31.03,37.76,31.03,37.483,31.03,37.208z" clip-rule="evenodd"/><path fill="#1A2654" fill-rule="evenodd" d="M12.796,38.863c-0.609,0-1.2,0-1.803,0c0-2.29,0-4.572,0-6.864 c0.599,0,1.194,0,1.803,0C12.796,34.281,12.796,36.567,12.796,38.863z" clip-rule="evenodd"/></svg>