<svg xmlns="http://www.w3.org/2000/svg" version="1.1" id="Layer_1" x="0px" y="0px" width="70px" height="70px" viewBox="0 0 70 70" enable-background="new 0 0 70 70" xml:space="preserve"><path fill="#19478F" d="M35.844,67.373c-8.525-0.065-15.748-2.765-21.756-8.23   c-4.699-4.273-8.118-9.486-9.531-15.823c-0.214-0.958-0.13-1.054,0.857-0.89c6.052,1.004,12.128,1.636,18.278,1.475   c6.013-0.158,11.933-0.965,17.802-2.239c5.724-1.243,11.444-2.516,17.196-3.619c2.158-0.414,4.399-0.43,6.607-0.545   c1.229-0.064,1.713,0.52,1.551,1.754c-0.992,7.562-3.974,14.162-9.609,19.417C51.121,64.377,43.837,67.217,35.844,67.373z" clip-rule="evenodd" fill-rule="evenodd"/><path fill="#19478F" d="M55.39,29.828c1.64,0,3.277,0,4.916,0   c1.746,0,3.492-0.002,5.237,0.001c1.091,0.001,1.133,0.039,1.304,1.087c0.06,0.36,0.119,0.72,0.166,1.081   c0.142,1.101-0.093,1.371-1.185,1.371c-5.445,0-10.892-0.002-16.337-0.002c-0.443,0-0.886,0.01-1.329,0.001   c-0.18-0.004-0.476,0.009-0.517-0.079c-0.33-0.712-0.714-1.428-0.856-2.184c-0.059-0.315,0.342-0.88,0.681-1.082   c3.402-2.021,6.837-3.989,10.262-5.973c1.645-0.953,3.286-1.91,4.937-2.854c0.9-0.514,1.11-0.436,1.55,0.479   c1.221,2.54,1.046,2.072-0.981,3.294c-2.34,1.413-4.711,2.775-7.067,4.161c-0.283,0.166-0.56,0.341-0.84,0.512   C55.35,29.704,55.369,29.767,55.39,29.828z" clip-rule="evenodd" fill-rule="evenodd"/><path fill="#19478F" d="M15.256,29.632c-2.546-1.516-5.092-3.031-7.639-4.546   c-0.492-0.293-0.982-0.59-1.479-0.874c-0.509-0.291-0.699-0.647-0.375-1.216c0.257-0.45,0.442-0.941,0.658-1.415   c0.353-0.774,0.63-0.878,1.379-0.444c2.028,1.171,4.05,2.357,6.071,3.54c3.033,1.775,6.064,3.552,9.095,5.331   c0.905,0.532,0.964,0.707,0.649,1.697c-0.078,0.247-0.12,0.505-0.175,0.759c-0.123,0.575-0.439,0.908-1.065,0.907   c-5.965-0.004-11.93-0.007-17.894,0.003c-0.715,0.001-1-0.338-0.953-1.011c0.027-0.39,0.083-0.776,0.116-1.165   c0.11-1.309,0.174-1.369,1.517-1.369c3.178-0.002,6.356-0.003,9.533-0.006c0.174,0,0.349-0.022,0.524-0.034   C15.231,29.736,15.244,29.684,15.256,29.632z" clip-rule="evenodd" fill-rule="evenodd"/><path fill="#19478F" d="M20.546,20.042c-1.631-2.934-3.26-5.869-4.894-8.801   c-0.618-1.108-0.609-1.17,0.405-1.892c0.127-0.091,0.258-0.177,0.382-0.271c1.295-0.971,1.372-0.964,2.153,0.404   c2.884,5.043,5.749,10.098,8.654,15.127c0.36,0.622,0.312,1.051-0.193,1.497c-0.176,0.155-0.327,0.336-0.494,0.501   c-0.755,0.744-1.004,0.782-1.903,0.258c-4.993-2.92-9.984-5.84-14.975-8.764c-0.923-0.541-0.994-0.943-0.344-1.809   c1.295-1.727,1.294-1.725,3.185-0.638c2.461,1.417,4.924,2.83,7.387,4.243c0.171,0.099,0.352,0.182,0.527,0.273   C20.473,20.128,20.509,20.084,20.546,20.042z" clip-rule="evenodd" fill-rule="evenodd"/><path fill="#19478F" d="M30.045,14.848c0-0.875,0-1.751,0-2.626   c0-2.605-0.001-5.211,0.001-7.816c0.001-1.102,0.045-1.146,1.11-1.246c0.44-0.042,0.88-0.113,1.321-0.128   c0.834-0.029,0.996,0.142,0.997,0.997c0.002,2.527-0.003,5.054-0.003,7.582c0.001,3.413,0.004,6.826,0.003,10.239   c0,1.092-0.088,1.192-1.146,1.342c-1.696,0.24-1.7,0.242-2.571-1.281c-2.741-4.792-5.479-9.584-8.216-14.378   c-0.597-1.045-0.549-1.323,0.543-1.788c2.471-1.051,1.921-0.988,3.024,0.891c1.606,2.735,3.167,5.496,4.748,8.246   C29.919,14.87,29.982,14.858,30.045,14.848z" clip-rule="evenodd" fill-rule="evenodd"/><path fill="#19478F" d="M49.683,20.465c3.117-1.792,6.083-3.5,9.051-5.202   c1.061-0.608,1.356-0.542,2.073,0.44c0.123,0.168,0.243,0.338,0.367,0.506c0.805,1.09,0.766,1.29-0.385,1.963   c-4.965,2.903-9.939,5.79-14.885,8.727c-0.764,0.454-1.247,0.361-1.815-0.264c-1.035-1.141-1.42-0.867-0.337-2.743   c2.81-4.869,5.582-9.759,8.372-14.64c0.587-1.027,0.657-1.048,1.644-0.395c2.001,1.325,1.918,1.027,0.749,3.08   c-1.495,2.623-3.006,5.236-4.508,7.855C49.913,19.961,49.838,20.142,49.683,20.465z" clip-rule="evenodd" fill-rule="evenodd"/><path fill="#19478F" d="M40.713,14.894c0.669-1.162,1.339-2.323,2.007-3.486   c1.075-1.875,2.169-3.738,3.212-5.631c0.361-0.654,0.751-0.789,1.452-0.526c2.216,0.831,2.26,0.923,1.105,2.938   c-2.771,4.833-5.54,9.667-8.283,14.518c-0.389,0.688-0.801,0.983-1.556,0.587c-0.176-0.092-0.402-0.103-0.607-0.121   c-0.67-0.059-0.941-0.417-0.939-1.083c0.009-6.07,0.009-12.14-0.001-18.21c-0.001-0.675,0.269-0.963,0.947-0.86   c0.335,0.05,0.673,0.072,1.011,0.095c1.711,0.112,1.471,0.327,1.472,1.708c0.003,3.333,0.001,6.666,0.001,9.999   C40.594,14.846,40.652,14.87,40.713,14.894z" clip-rule="evenodd" fill-rule="evenodd"/><path fill="#F15E22" d="M31.885,42.844c-4.672,0.507-9.138,0.186-13.595-0.314   c-4.535-0.507-9.01-1.335-13.398-2.604c-1.028-0.297-1.354-0.729-1.267-1.809c0.047-0.577,0.421-0.748,1.092-0.511   c1.693,0.598,3.364,1.269,5.084,1.774C16.949,41.482,24.208,42.92,31.885,42.844z" clip-rule="evenodd" fill-rule="evenodd"/><path fill="#F15E22" d="M4.179,42.15c1.078,0.13,2.159,0.241,3.233,0.396   c1.188,0.172,2.364,0.485,3.557,0.559c4.13,0.255,8.264,0.543,12.399,0.598c2.444,0.034,4.897-0.319,7.341-0.552   c1.846-0.177,3.69-0.392,5.522-0.676c1.384-0.214,2.745-0.57,4.119-0.85c1.196-0.244,2.399-0.452,3.594-0.705   c1.19-0.252,2.375-0.537,3.562-0.812c1.062-0.245,2.121-0.5,3.186-0.74c1.342-0.302,2.687-0.6,4.03-0.89   c0.585-0.126,1.17-0.26,1.762-0.339c2.457-0.329,4.913-0.673,7.378-0.933c0.71-0.076,1.46,0.058,2.171,0.199   c0.637,0.128,1.126,0.543,1,1.269c-0.289,1.674-0.622,3.339-0.966,5.003c-0.132,0.637-0.305,1.271-0.532,1.88   c-0.07,0.186-0.402,0.423-0.58,0.397c-4.263-0.592-8.549-0.397-12.825-0.353c-2.647,0.027-5.293,0.251-7.937,0.439   c-2.425,0.172-4.849,0.376-7.265,0.639c-1.782,0.193-3.549,0.522-5.327,0.753c-1.141,0.148-2.289,0.239-3.436,0.333   c-1.59,0.13-3.201,0.126-4.771,0.38c-3.375,0.546-6.776,0.56-10.173,0.702c-1.437,0.061-2.874,0.164-4.311,0.167   c-0.802,0.002-1.608-0.143-2.404-0.268c-0.19-0.03-0.448-0.214-0.508-0.386c-0.707-1.984-1.381-3.98-2.065-5.974   C4.015,42.31,4.097,42.229,4.179,42.15z" clip-rule="evenodd" fill-rule="evenodd"/></svg>