<svg xmlns="http://www.w3.org/2000/svg" id="Layer_1" width="70" height="70" x="0" y="0" enable-background="new 0 0 70 70" version="1.1" viewBox="0 0 70 70" xml:space="preserve"><rect width="70" height="70" x="0" fill="#EE3425"/><g><path fill="#FFF" d="M39.559,12.283c0.054-0.007,0.097-0.016,0.138-0.036C39.646,12.263,39.602,12.269,39.559,12.283 M39.929,12.088v0.007v-0.002V12.088z M11.617,65.691c-0.047,0.027-0.097,0.055-0.14,0.088 C11.527,65.748,11.57,65.719,11.617,65.691 M10.555,38.404l0.269,0.139l-0.269,0.193c0.461,0.051,0.566-0.207,0.799-0.357 C11.014,38.426,10.946,37.934,10.555,38.404 M32.599,14.759l-0.007,0.018l0.022-0.015L32.599,14.759z M32.592,14.777 c-0.09,0.052-0.182,0.096-0.283,0.144C32.42,14.887,32.548,14.874,32.592,14.777 M39.929,12.095 c-0.08,0.054-0.14,0.115-0.232,0.152C39.795,12.222,39.895,12.191,39.929,12.095 M40.24,11.648l-0.532-0.051l0.041,0.321 L40.24,11.648z M40.53,13.021l-0.027-0.055l-0.413,0.206l0.084,0.068L40.53,13.021z M39.975,13.477l-0.041-0.084l-0.391,0.132 l0.036,0.087L39.975,13.477z M36.475,15.401l-0.269,0.194l0.222-0.079L36.475,15.401z M40.184,12.869l-0.374,0.297l0.307-0.108 C40.19,13,40.264,12.942,40.184,12.869 M40.704,11.893c-0.292,0.028-0.276,0.289-0.555,0.12c-0.101,0.013-0.167,0.045-0.221,0.081 C39.949,12.218,40.618,12.25,40.704,11.893 M45.89,7.183c-0.046,0.029-0.062,0.057-0.073,0.089 C45.85,7.252,45.885,7.222,45.89,7.183 M40.431,11.519c0.182-0.083,0.007-0.106-0.053-0.15 C40.299,11.442,40.465,11.323,40.431,11.519 M43.686,9.273l-0.029-0.057l-0.413,0.206l0.083,0.071L43.686,9.273z M45.672,7.49 c0.17-0.033,0.128-0.13,0.145-0.218C45.689,7.354,45.452,7.36,45.672,7.49 M66.802,45.145L66.57,44.92l-0.157,0.322 C66.534,45.188,66.707,45.049,66.802,45.145 M14.081,34.4l0.021-0.016l0.084-0.09L14.081,34.4z M43.127,9.731l-0.036-0.09 l-0.401,0.137l0.041,0.088L43.127,9.731z M44.41,9.19l-0.069-0.042l-0.282,0.165l0.068,0.041L44.41,9.19z M42.474,10.984 c-0.389,0.033-0.692,0.374-0.587,0.6C42.547,11.363,41.748,11.169,42.474,10.984 M40.378,11.368 c0.025-0.017,0.062-0.054,0.137-0.115C40.345,11.314,40.339,11.348,40.378,11.368 M40.732,12.851l0.24-0.251l-0.073-0.044 l-0.281,0.267L40.732,12.851z M41.735,11.706l-0.619,0.311l0.436-0.147L41.735,11.706z M40.977,13.103l0.279-0.164l-0.07-0.041 l-0.285,0.16L40.977,13.103z M13.738,62.346l0.642-0.363C14.126,61.961,13.921,62.207,13.738,62.346 M66.268,50.643 c0.045-0.098,0.692-1.266,1.167-2.098l-0.037,0.016c0.123-0.451-0.759-0.26-0.163-0.877c-0.639-1.105-0.653-2.078-1.5-2.773 l0.359-0.223c-0.027-0.355-0.244-0.52-0.376-0.75l-0.156,0.32c-0.233-0.115-0.056-0.482-0.087-0.721 c-0.702-0.287-1.527-1.311-1.908-1.439c-0.237-0.518-0.635-0.707-0.647-1.287l0.046-0.029c-1.768-1.648-3.09-3-5.191-4.238 c0.018-0.443-0.749-0.593-0.227-0.958l0.081,0.034l-1.075-0.918c-0.069,0.139-0.092,0.295-0.233,0.283 c-0.763-1.169-1.93-2.288-3.016-3.307l0.033-0.043c0.833-1.128,1.884-2.304,2.986-3.522l0.013-0.01l0.177-0.205 c1.351-1.486,2.758-3.026,3.912-4.58c3.654-4.052,7.301-8.416,4.96-12.385c-3.018-1.938-7.935-4.828-13.046-2.748 c-0.03-0.074-0.099-0.137-0.104-0.201c-0.662,1.154-0.321-0.66-1.397-0.425c-0.445-0.314-1.109-0.319-1.326-0.678 c-0.852,0.924-0.722-0.583-1.676-0.227l-0.151,0.451c-0.038-0.418-0.332-0.056-0.803-0.194c0.008,0.135,0.209,0.231,0.025,0.391 c-0.448,0.122,0.024-0.17-0.35-0.216c-0.187,0.034-0.224,0.182-0.328,0.284c0.038,0.084,0.029,0.185,0.176,0.172 c-0.262,0.423-0.576,0.398-1.014,0.681c0.089-0.033,0.25-0.121,0.339-0.049l-0.052,0.117c0.227-0.177,0.649,0.311,0.687-0.066 c0.078-0.03,0.152-0.066,0.219-0.076l0,0c0.229-0.785,0.852,0.023,1.056,0.035c-0.183,0.01-0.22,0.143-0.344,0.188L47.07,8.219 c-0.364,0.318,0.228,0.056,0.027,0.285c-0.525,0.08-0.315,0.543-0.97,0.33L46.39,8.51c-0.136,0.152-0.356,0.228-0.553,0.129 l0.033-0.063l-0.229,0.192c-0.346,0.019-0.202-0.231-0.377-0.27c-0.333,0.048-0.533,0.282-0.682,0.396l0.532,0.056 c0.202,0.563-0.721,0.313-0.831,0.85c-0.4,0.137-0.463-0.342-0.885-0.03c-0.136,0.022-0.064,0.095-0.08,0.157 c0.161-0.118,0.314-0.165,0.522,0.027l-0.155,0.216c-1.077,0.209-0.114,0.887-1.075,1.033c0.059-0.052,0.037-0.116,0.055-0.181 c-0.118,0.069-0.328,0.084-0.178,0.193h-0.002l0.012,0.014l0.021,0.01l0.007-0.002c0.186,0.083,0.382-0.012,0.559-0.093 c0.028,0.081,0.04,0.158,0.17,0.144c-0.026,0.048-0.059,0.084-0.088,0.123c-0.555,0.206-1.438,0.432-1.629,0.896l0.503-0.045 c-0.291,0.063-0.472,0.272-0.611,0.384l0.534,0.049c0.048,0.135,0.031,0.225-0.021,0.285c-0.082,0.023-0.174,0.017-0.264-0.054 c-0.147,0.116-0.57,0.194-0.527,0.516l0.018-0.003c-0.018,0.033-0.034,0.071-0.04,0.111c-0.396,0.133-0.459-0.346-0.878-0.034 c-0.142,0.022-0.066,0.095-0.086,0.157c0.153-0.113,0.312-0.16,0.508,0.014l-0.821,0.363l-0.04-0.085 c0.099-0.074,0.188-0.156,0.279-0.229l-0.28-0.067l-0.075,0.12l-0.014-0.025c-0.235,0.045-0.386,0.162-0.462,0.32l-0.399-0.094 c-0.097-0.201,0.373-0.293,0.152-0.451c-0.539,0.045,0.109,0.13-0.128,0.274c-0.517,0.209-0.513-0.229-0.619-0.352 c-0.283,0.012,0.159,1.335,0.414,2.257l-0.068,0.019c-0.023-0.155-0.548-0.076-0.29-0.3c-0.145,0.017-0.276,0.165-0.439,0.047 c0.035-0.042,0.053-0.118,0.2-0.132l-0.068-0.141c-0.705,0.241-0.233-0.521-0.403-0.333L37.356,15.1l-0.223-0.155 c-0.004,0.102-0.217,0.204-0.129,0.277c0.146-0.017,0.162-0.089,0.192-0.135l0.397,0.096l-0.217,0.312 c-0.053-0.014-0.156-0.014-0.137-0.087l-0.442,0.148l0.402,0.102l-0.115,0.199c-0.191,0.242-0.513,0.195-0.761,0.135 c0.022-0.041-0.069-0.162-0.149-0.251c-1.485-0.518-0.967-0.422-1.92,0.138l0.482,0.818c-0.233,0.121-0.516,0.162-0.827,0.17 c-1.885-1.76-4.106-3.9-6.552-6.541c-1.299-0.464-1.748-1.763-3.067-2.182c-0.05-2.517-2.769-2.593-4.51-3.562 c-2.783-1.754-6.201-0.699-9.304,0.225c-3.167,0.837-6.815,2.565-8.04,6.283c-1.117,7.734,5.513,11.082,9.179,15.768 c1.468,1.743,3.177,3.22,5.018,4.547c-0.211,0.162-0.364,0.339-0.453,0.408c0.248,0.545-1.64,1.09-1.265,1.465 c-0.236,0.045-0.231,0.176-0.405,0.234c0.224-0.019,0.562-0.174,0.921-0.299c-0.156,0.158-0.273,0.295-0.396,0.422 c-0.417,0.111-1.095,0.629-0.889,0.637c0.072-0.036,0.143-0.05,0.207-0.05c-0.076,0.05-0.16,0.104-0.254,0.163l-0.068,0.068 c-0.084-0.013-0.181,0.027-0.324,0.202l0.095,0.049l-0.029,0.028l0.167,0.094l-0.232,0.162l0.021,0.003 c-0.343,0.175-0.585,0.476-0.706,0.566c0.068,0.138-0.006,0.272-0.134,0.405l-0.051,0.023l0.031-0.01 c-0.412,0.397-1.386,0.771-1.107,1.045c-0.235,0.051-0.222,0.18-0.401,0.239c0.391-0.033,1.149-0.489,1.724-0.455 c-0.017,0.072-0.037,0.148-0.135,0.148c-0.088,0.081-0.32,0.128-0.315,0.236l-0.01,0.003c-0.012,0.034-0.032,0.071-0.052,0.108 l-0.44,0.097c-0.251-0.218-1.398,0.61-1.139,0.622c0.324-0.179,0.583,0.169,0.708-0.239l0.281,0.051 c-0.217,0.168-0.423,0.326-0.472,0.473c-0.063,0.02-0.113,0.045-0.157,0.074c0.044-0.004,0.093-0.021,0.152-0.051 c-0.013,0.037-0.013,0.076,0.007,0.113c-0.263,0.119-0.373,0.287-0.468,0.449c-0.08,0.031-0.156,0.053-0.241,0.062l0.061-0.09 c-0.117,0.072-0.377,0.064-0.415,0.209c0.199-0.051,0.388-0.094,0.566-0.139c-0.107,0.199-0.213,0.383-0.533,0.492l0.13,0.057 c-0.506,0.906-1.783,1.342-2.255,2.205c-0.674,0.297-0.812,1.012-1.339,1.424l0.341,0.053l-0.03,0.012l0.128,0.057 c-0.505,0.904-1.778,1.34-2.254,2.205c-0.678,0.295-0.814,1.01-1.336,1.422l0.817,0.123c-0.156,0.217-0.324,0.41-0.631,0.514 c0.392-0.033,0.807-0.24,1.209-0.246l-0.612,0.777l1.363-0.469l-0.456,0.559l0.807-0.342c0.746-0.154,0.223,0.486,0.537,0.619 c0.776-0.201,0.111,0.695,0.951,0.539L7.37,49.432l0.223-0.072c0.386,0.398-0.499,1.137-0.533,1.516l-0.158-0.012 c-0.351,0.352,0.111,0.357,0.224,0.486c0.089,0.207-0.273,0.297-0.41,0.443l0.476-0.061c-0.276,0.393-0.473,0.525-0.831,0.848 l0.218-0.072c0.059,0.012,0.157,0.01,0.14,0.084c-0.003,0.102-0.179,0.16-0.267,0.191l0.064,0.148 c-0.088,0.025-0.752,0.021-0.724,0.309c0.44,0.184,0.134-0.377,0.504-0.238c0.005,0.467-1.012,0.912-1.268,1.467 c-0.324,0.512,0.008,0.799-0.783,1.305c-0.125,0.174-0.446,0.584-0.039,0.479L3.355,57.51c0.816-0.111,0.146,0.65,0.439,0.754 c0.998,0.057,0.184,1.068,1.143,0.941C4.84,59.439,4.529,59.645,4.74,59.77c0.425-0.51,0.673,0.143,1.235-0.184 c0.14,0.084,0.005,0.232-0.086,0.359l0.656-0.221c0.309-0.107,0.371,0.141,0.551,0.209l-0.281,0.16l0.506-0.002 c-0.08,0.162-0.253,0.219-0.344,0.35c0.289-0.029,0.4-0.238,0.592-0.367c0.462-0.324,1.228-0.316,1.649-0.395l-0.435,0.381 l1.208-0.482c0.02,0.162-0.145,0.355-0.436,0.381l0.088,0.207c0.423-0.184,0.698-0.473,1.186-0.404 c-0.139,0.248-0.366,0.426-0.587,0.604c0.241,0.414,0.006,1.131-0.364,1.32l0.619,0.025l-0.155,0.447 c0.581,0.037,0.707-0.234,1.151-0.387c-0.275,0.627,0.595,0.529,0.812,0.453c0.645-0.15,1.238-0.623,1.988-0.447 c0.667-0.191,0.582-0.164,1.07-0.66l0.227,0.053c0.069-0.291,0.752-0.355,0.828-0.414l-0.168-0.043 c0.431-0.049,0.162-0.422,0.713-0.314l0.006,0.004l-0.061,0.086l0.567-0.098c0.131-0.025,0.236-0.031,0.32-0.012 c-0.667,0.275-1.673,0.264-2.007,0.953l0.466,0.01c-0.218,0.34-0.735,0.363-1.179,0.482c0.599-0.15,1.131,0.119,1.488-0.354 c-0.307,0.439-0.424,0.748-1.139,0.959l0.641-0.156c-0.376,0.264-0.46,0.641-0.519,0.959c-0.264-0.047-0.544-0.082-0.714,0.299 l0.44-0.15c-0.115,1.205-2.139,0.666-2.637,1.703l0.46,0.008c-0.212,0.338-0.732,0.363-1.172,0.484 c0.595-0.154,1.125,0.115,1.486-0.357c-0.307,0.436-0.425,0.748-1.142,0.957l0.643-0.154c-0.39,0.268-0.465,0.662-0.518,0.979 c1.11-0.344,1.945-0.965,2.455-1.637c0.729-0.418,1.542-0.758,1.886-1.447c-0.219-0.926,1.9-0.648,2.211-1.623 c-0.535-0.285,0.37-0.758-0.176-0.84c0.162-0.09,0.262,0.012,0.417,0.025c-0.107-0.131,0.896-0.27,0.486-0.504 c1.839-0.992,2.796-2.348,4.534-3.447c1.445-1.527,3.573-3.117,5.484-4.611c1.368-0.664,4.516-3.412,8.152-6.768 c0.592,0.469,1.113,1.029,1.835,1.322c-0.231,1.986,2.065,1.521,2.523,2.596l0.156-0.318c0.114,0.676,0.665,0.66,1.076,0.918 l-0.111,0.23c1.535,0.578,1.744,2.781,3.674,3.156c1.405,3.461,5.427,3.895,7.898,6.291c1.178-0.5,1.987,0.461,2.971,0.658 c0.086-0.979,1.276,0.115,1.292-0.221l-0.037-0.127l0.921,0.332c-0.225-0.449-0.997-0.377-1.093-0.986 c-0.44-0.625-1.561-0.541-1.82-1.156c0.057,0.016,0.147,0.037,0.161-0.043l-0.12,0.051l-0.045-0.02 c-0.04-0.1-0.064-0.223-0.048-0.361c0.059,0.105,0.196,0.189,0.213,0.33l0.189-0.08c0.118,0.746,0.539,0.471,0.837,0.609 c-0.314-0.363-0.706-0.648-1.051-1.039l-0.03-0.32l0.585,0.002l-0.253-0.689c0.607,0.068,1.434,0.586,1.73,1.297 c1.391-0.227,2.755,1.006,3.924,1.633c0.07-0.135,0.138-0.275,0.279-0.264l0.198,0.5c0.312-0.139,0.591,0.398,0.875,0.424 l0.037-0.381l0.195,0.098c0.246-0.391,0.004-0.51-0.018-0.859l0.862,0.139c-0.036-0.129-0.169-0.258-0.04-0.418 c0.105-0.117,0.241,0.006,0.322,0.045c-0.003-0.287-0.102-1.299-0.304-1.793c0.237,0.117,0.352-1.023,0.824-0.678l-0.054-0.195 l0.476-0.17c-0.008,0.115,0.049,0.199-0.034,0.27l0.082,0.043l0.106-0.229l-0.078-0.043c0.928-0.283,0.021-0.953,0.104-1.426 l0.549,0.098c-0.403-0.588-0.861-0.867-0.967-1.656l0.147-0.1c-0.443,0.008-0.478-0.631-0.832-0.914l0.503-0.322l-0.085-0.33 l-0.147,0.1c0.374-0.668-0.394-0.705-0.221-1.467C66.064,50.656,66.153,50.584,66.268,50.643 M15.587,63.238 c0.192-0.061,0.373-0.133,0.546-0.205C16.025,63.301,15.816,63.275,15.587,63.238 M38.732,16.567l0.098-0.118 C38.833,16.56,38.806,16.607,38.732,16.567 M41.859,13.05c-0.086,0.049-0.206,0.086-0.323,0.126 C41.543,13.065,41.518,12.979,41.859,13.05 M41.802,13.679c-0.073,0.015-0.148,0.017-0.223,0.017l0.255-0.088L41.802,13.679z M41.97,13.561c-0.054-0.041-0.103-0.061-0.173-0.061c0-0.027-0.012-0.057-0.029-0.103c-0.009-0.09,0.26-0.047,0.517-0.08 L41.97,13.561z M42.906,12.431c-0.075,0.003-0.152-0.011-0.225-0.048l0.038-0.059l-0.232,0.194 c-0.33,0.017-0.216-0.206-0.355-0.268l0.203-0.014c-0.07-0.042-0.169-0.042-0.198-0.103c0.092-0.073,0.193-0.155,0.293-0.231 c0.056-0.012,0.107-0.012,0.146,0.018l-0.051,0.117c0.133-0.099,0.337,0.026,0.487,0.068c-0.144,0.089-0.207,0.157,0.054,0.18 C43.009,12.347,42.959,12.396,42.906,12.431 M42.584,11.783c0.182-0.135,0.367-0.256,0.564-0.348 C42.983,11.621,42.8,11.689,42.584,11.783 M43.792,11.558c-0.069,0.033-0.143,0.06-0.221,0.07 C43.633,11.566,43.711,11.548,43.792,11.558 M43.53,11.943l-0.099,0.133l-0.172,0.076L43.53,11.943z M43.206,11.972l0.047-0.017 l-0.047,0.037V11.972z M43.392,12.611c-0.042,0.019-0.084,0.029-0.141,0.029c0.098-0.157,0.153-0.359,0.361-0.273 C43.56,12.463,43.481,12.545,43.392,12.611 M43.617,11.999l0.036-0.049l-0.103-0.025l0.235-0.186l0.195,0.098L43.617,11.999z M44.587,9.927c-0.059-0.246,0.495,0.068,0.336-0.282c-0.017-0.128,0.58,0.029,0.836-0.187c0.046-0.067,0.083-0.131,0.104-0.195 c-0.014,0.081-0.05,0.148-0.104,0.195C45.529,9.762,45.051,10.019,44.587,9.927 M45.469,10.624l-0.042-0.045l0.073,0.006 L45.469,10.624z M45.848,9.827c-0.028,0.081-0.071,0.168-0.262,0.163L45.848,9.827c0.029-0.13,0.01-0.277,0.287-0.192L45.848,9.827 z M46.888,9.594l-0.12,0.092C46.795,9.658,46.84,9.626,46.888,9.594l0.256-0.203l-0.169-0.041l0.296-0.24 C47.523,9.302,47.13,9.442,46.888,9.594 M52.607,55.156c-0.063,0.045-0.107,0.111-0.114,0.217c-0.921-0.73-2.035-1.562-2.746-2.133 c0.294-0.199-0.27-0.246-0.293-0.6c0.442,0.502,0.979,1.219,1.758,1.029c-0.407,0.539,0.449,0.5,0.482,0.631l0.11-0.229 C52.297,54.191,52.369,54.979,52.607,55.156c0.123-0.092,0.321-0.1,0.435-0.191C52.837,55.199,52.71,55.23,52.607,55.156 M56.364,57.834c-0.308-0.377-0.845-0.588-0.929-1.023c-0.365,0.447-0.473-0.342-0.877-0.318l-0.077-0.146 c0.134,0.236,0.896-0.016,0.631,0.418c0.253,0.295,1.396-0.738,0.954,0.469l0.086,0.324c0.105-0.117,0.201-0.012,0.326,0.045 L56.364,57.834z M57.115,58.213l0.002-0.008h0.012L57.115,58.213z M12.158,65.145L11.8,65.367l0.311-0.104L12.158,65.145z M42.72,12.324l0.1-0.086C42.769,12.258,42.739,12.29,42.72,12.324 M40.164,13.674l-0.074,0.062l0,0 C40.145,13.723,40.159,13.696,40.164,13.674 M12.957,63.436l0.572,0.145c-0.234,0.041-0.282,0.158-0.436,0.377 c0.275-0.059,0.545-0.252,0.777-0.195c-0.184,0.162,0.305,0.225-0.093,0.361c0.32,0.264,0.26-0.42,0.705-0.57l-0.526,0.18 l0.166-0.193C13.875,63.559,13.593,63.154,12.957,63.436 M67.705,47.631c-0.103,0.164-0.061,0.361-0.063,0.545 c0.126-0.219,0.222-0.381,0.263-0.445L67.705,47.631z M67.642,48.176c-0.061,0.111-0.135,0.232-0.207,0.369 C67.605,48.455,67.642,48.324,67.642,48.176 M14.432,63.436c0.118-0.07,0.464-0.092,0.399-0.236l-0.443,0.15L14.432,63.436z M15.312,61.396l-0.358,0.221l0.308-0.102L15.312,61.396z M36.091,15.649C36.065,15.622,36.059,15.619,36.091,15.649 M14.775,61.945c-0.051,0.029-0.104,0.053-0.145,0.086C14.677,61.998,14.727,61.975,14.775,61.945 M15.107,62.803l0.708-0.344 l-1.232,0.191L15.107,62.803z M13.738,62.346l-0.13,0.068C13.652,62.398,13.697,62.373,13.738,62.346 M9.685,39.736l0.311-0.105 l0.55-0.355L9.685,39.736z M43.247,9.985c0.046-0.014,0.066-0.033,0.071-0.058l-0.075,0.058H43.247z M42.735,10.933 c-0.046,0.023-0.062,0.057-0.07,0.09C42.705,11,42.73,10.975,42.735,10.933 M36.091,15.649c0.02,0.021,0.05,0.051,0.085,0.09 l0.012,0.004C36.136,15.693,36.104,15.667,36.091,15.649 M63.353,41.135c-0.086-0.078-0.164-0.146-0.243-0.225 C63.138,41.035,63.188,41.135,63.353,41.135 M42.696,10.343c0.216-0.042,0.382-0.219,0.547-0.358l-0.284-0.067L42.696,10.343z M41.518,12.347l0.019-0.039l-0.13,0.01L41.518,12.347z M63.063,40.715l-0.099,0.066c0.048,0.043,0.099,0.086,0.145,0.129 C63.092,40.848,63.083,40.781,63.063,40.715 M52.234,7.984c0.021-0.034,0.039-0.078,0.062-0.122 C52.24,7.906,52.228,7.945,52.234,7.984 M46.644,8.397l0.167-0.194L46.696,8.18l-0.154,0.217H46.644z M45.87,8.576l0.105-0.081 C45.918,8.51,45.893,8.544,45.87,8.576 M46.583,8.15l0.113,0.03C46.656,8.15,46.623,8.143,46.583,8.15 M58.313,59.33 c0.087,0.098,0.169,0.197,0.237,0.312C58.494,59.463,58.408,59.375,58.313,59.33"/><g><path fill="#EE3124" d="M32.339,21.056c-0.64,0.12-1.194,0.713-1.242,1.322c-0.05,0.609,0.431,1.008,1.064,0.889 c0.636-0.115,1.192-0.708,1.242-1.319C33.445,21.337,32.97,20.938,32.339,21.056"/><path fill="#EE3124" d="M36.818,23.772c-0.262,0.052-0.569,0.109-1.747,1.487c0.289-0.535,0.379-0.97,0.028-1.211 c-0.375-0.248-1.02-0.055-1.378,0.181c-0.225,0.143-0.231,0.215-0.269,0.496c-0.03,0.179-0.197,0.587-0.314,0.815l-0.358,0.767 c-1.358,2.369-2.116,3.01-2.344,3.283c-0.228,0.249-0.417,0.397-0.553,0.421c-0.095,0.021-0.139-0.054-0.13-0.182 c0.019-0.192,0.088-0.457,0.245-0.807c0.254-0.59,0.669-1.457,0.992-2.048c0.17-0.351,0.624-1.174,0.624-1.174 c0.429-0.951-0.381-1.282-0.854-1.211c-0.138,0.017-1.629,0.189-3.333,0.483c0.931-3.897,0.854-3.32,1.826-5.817 c0.468-1.22,0.418-1.498,0.017-1.96c-0.398-0.462-0.324-0.971-0.779-1.012c-1.056-0.091-4.705,5.175-7.64,10.296 c-1.387,0.415-2.771,0.908-4.047,1.484c-0.851,0.388-0.685,1.095-0.611,1.454c0.106,0.51,0.661,0.735,1.092,0.486 c0.661-0.374,1.423-0.725,2.236-1.058c-0.025,0.056-0.036,0.084-0.025,0.08c-1.115,2.097-2.362,5.023-2.771,6.321 c-0.228,0.727,0.133,1.374,0.757,1.657c0.625,0.282,1.049-0.013,1.258-0.987c0.262-1.213,1.841-4.964,3.435-8l0.023-0.034 c0.963-0.307,1.941-0.582,2.859-0.827c-0.568,2.39-0.705,3.375-0.7,4.199c0.01,0.809,0.302,1.752,1.189,1.622 c0.882-0.129,0.741-0.957,0.837-1.729c0.222-1.761,0.258-2.526,0.676-4.542c0.01-0.002,0.021-0.026,0.037-0.059 c0.981-0.229,1.818-0.409,2.404-0.527c-0.082,0.181-0.178,0.375-0.276,0.584c-0.391,0.786-0.81,1.757-1.072,2.454 c-0.25,0.701-0.396,1.253-0.432,1.719c-0.083,1.032,0.357,1.589,1.13,1.44c0.581-0.104,1.468-0.887,2.466-2.442 c-0.116,0.367-0.181,0.674-0.191,0.864c-0.03,0.809,0.366,1.471,1.667,0.59c0.129-0.09,0.15-0.219,0.151-0.479 c0.07-0.867,0.42-2.018,1.2-3.198c0.604-0.908,1.036-1.427,1.587-1.667c0.986-0.421,1.614-0.291,2.162-0.956 C38.433,24.38,37.314,23.678,36.818,23.772 M25.486,25.433c-0.689,0.138-1.416,0.299-2.168,0.481 c1.292-2.293,2.716-4.597,4.045-6.405C26.703,21.132,26.037,23.308,25.486,25.433"/><path fill="#EE3124" d="M53.321,37.957c-0.281,0.461-0.533,0.85-0.898,1.244c-0.326,0.357-0.59,0.5-0.728,0.449 c-0.377-0.135-0.164-0.672,0.222-1.461c0.182-0.368,0.435-0.851,0.663-1.259c0.335-0.538,0.402-0.688,0.43-0.879 c0.032-0.274-0.146-0.46-0.655-0.667c-0.321-0.146-0.35-0.171-0.482-0.549c-0.186-0.463-0.58-0.693-1.065-0.625 c-0.73,0.102-1.877,0.989-2.897,2.244c-0.372,0.423-1.634,2.129-1.79,2.344l-0.201,0.262c-0.553,0.758-0.704,0.938-0.953,1.207 c-0.242,0.236-0.439,0.375-0.571,0.395c-0.098,0.014-0.139-0.061-0.122-0.189c0.024-0.191,0.107-0.457,0.279-0.793 c0.286-0.58,0.74-1.43,1.088-1.996c0.193-0.345,0.526-0.962,0.546-1.027l0.188-0.33c0.48-0.857-0.253-1.273-0.805-1.228 c-0.214,0.018-0.578,0.175-0.757,0.309c-0.146,0.1-0.162,0.136-0.205,0.331c-0.045,0.24-0.373,0.953-0.716,1.586 c-0.426,0.771-0.889,1.715-1.188,2.402c-0.286,0.688-0.451,1.232-0.511,1.693c-0.132,1.033,0.276,1.611,1.059,1.498 c0.579-0.076,1.205-0.635,1.969-1.514c0.249-0.283,0.517-0.666,0.781-1.066c-0.143,1.146,0.426,1.934,1.402,1.799 c0.649-0.09,1.195-0.568,1.896-1.344c0.099-0.088,0.132-0.131,0.184-0.139c0.049-0.006,0.094,0.035,0.097,0.131l0.036,0.107 c0.099,0.523,0.49,0.766,1.054,0.688c0.698-0.096,1.464-0.617,2.305-1.682c0.673-0.832,0.946-1.445,1.086-1.824 C54.224,37.636,53.611,37.482,53.321,37.957 M49.338,39.359c-0.495,0.652-0.952,1.066-1.217,1.098 c-0.169,0.025-0.262-0.133-0.231-0.375c0.078-0.59,1.04-2.386,1.753-3.272c0.486-0.62,1.002-1.056,1.232-1.087 c0.185-0.023,0.254,0.074,0.226,0.313C51.027,36.57,49.997,38.512,49.338,39.359"/><path fill="#EE3124" d="M46.655,33.999c0.636-0.118,1.191-0.705,1.236-1.319c0.047-0.613-0.425-1.012-1.063-0.895 c-0.634,0.119-1.189,0.712-1.237,1.323C45.54,33.719,46.021,34.121,46.655,33.999"/><path fill="#EE3124" d="M37.331,36.634c-0.09,0.014-0.181,0.03-0.275,0.044c0.939-3.907,0.86-3.326,1.832-5.826 c0.468-1.218,0.418-1.5,0.017-1.96c-0.397-0.459-0.327-0.968-0.777-1.008c-1.055-0.095-4.688,5.148-7.623,10.261 c-1.378,0.417-2.765,0.915-4.035,1.517c-0.795,0.375-0.633,1.086-0.557,1.443c0.108,0.508,0.627,0.736,1.033,0.498 c0.654-0.391,1.417-0.758,2.226-1.094c-0.035,0.076-2.229,4.43-2.81,6.436c-0.213,0.73,0.135,1.375,0.757,1.66 c0.625,0.281,1.048-0.018,1.256-0.992c0.264-1.207,2.349-6.064,3.492-8.082c0.959-0.309,1.925-0.582,2.832-0.82 c-0.004,0.02-0.701,2.82-0.706,4.244c0,0.809,0.303,1.75,1.188,1.623c0.887-0.129,0.739-0.959,0.838-1.729 c0.228-1.766,0.258-2.527,0.679-4.543c0.01-0.008,0.029-0.037,0.049-0.098c0.233-0.055,0.455-0.104,0.657-0.149 c1.11-0.241,1.421-0.233,1.497-1.101C38.945,36.425,37.714,36.57,37.331,36.634 M37.003,31.108 c-0.662,1.618-1.327,3.787-1.876,5.908c-0.679,0.137-1.404,0.29-2.146,0.467C34.262,35.196,35.676,32.906,37.003,31.108"/><path fill="#EE3124" d="M38.736,43.727c-0.578,0.053-1.822-0.225-2.03-1.227c-0.07-0.324,0.393-1.191,0.495-1.34 c0.17-0.26,0.431-0.107,0.521,0.027c0.194,0.285,1.247,1.227,1.851,0.617c0.397-0.389-0.213-0.904-0.466-1.322 c-0.932-1.547,0.327-3.33,0.729-3.728c0.863-0.849,1.472-0.925,1.9-0.938c1.229-0.044,1.654,0.654,1.56,1.068 c-0.102,0.45-0.344,0.717-0.51,0.896c-0.116,0.131-0.461,0.166-0.571,0.006c-0.262-0.385-0.416-0.896-1.171-0.588 c-0.61,0.244-0.645,1.074-0.516,1.479c0.217,0.652,1.076,1.137,1.069,2.072C41.578,43.164,39.458,43.645,38.736,43.727"/></g></g></svg>