<svg xmlns="http://www.w3.org/2000/svg" id="Air_Corsica" width="70" height="70" viewBox="0 0 70 70"><defs><style>.cls-1{fill:#fff}.cls-2{fill:#0e8bca}.cls-3{fill:#0260a4}</style></defs><title/><path d="M42.65,3.16a1.35,1.35,0,0,1-1.73.79,5.93,5.93,0,0,0-3.08.42,0.79,0.79,0,0,1-.55.11c-1.45-.62-2.44.27-3.5,1a3.22,3.22,0,0,1-2.69.66,1.72,1.72,0,0,0-1.89,1A3.16,3.16,0,0,1,27,8.81a0.9,0.9,0,0,0-.77,1c0.07,0.51.59,0.4,0.94,0.42,6.05,0.46,10.92,3.46,15.47,7.16A33.41,33.41,0,0,0,49,21.57c1,0.49,1.42.33,1.69-.78q1.39-5.63,2.69-11.28c0.44-1.86.15-2.29-1.73-2.69A3.54,3.54,0,0,1,48.79,5a1.47,1.47,0,0,0-1.51-.59,20.3,20.3,0,0,1-2.57-.06C44,4.22,43.23,4.15,43.22,3.16" class="cls-1"/><path d="M16,34.12a2.32,2.32,0,0,1,1.39.19c2.46,0.5,2.92,1.72,1.32,3.63a1,1,0,0,0,.18,1.68,1.34,1.34,0,0,1,.3,2.19,0.78,0.78,0,0,0,.27,1.31c1.06,0.71.94,1.62,0.48,2.64-1,2.11-.61,3,1.5,4.1,1.91,1,3.89.68,5.89,0.42,1.36-.18,2.68-0.71,4.09-0.54a43.85,43.85,0,0,1,3.24,4.74,28.06,28.06,0,0,1,5.18,11.35c3-11.48,5.56-22.94,8.31-34.35A1.75,1.75,0,0,0,47,29.09c-3.73-1.83-7.14-4.23-10.91-6a29.37,29.37,0,0,0-12-2.94A2,2,0,0,0,22,21.46a1.57,1.57,0,0,0,.7,2.28,8.46,8.46,0,0,1,2.61,2A1.16,1.16,0,0,1,25.55,27c-0.32.52-.77,0.11-1.15,0A2.71,2.71,0,0,0,23,27a3.22,3.22,0,0,1-1.13.12c-2-.27-2-0.28-2.89,1.56a21.84,21.84,0,0,1-1.92,3.18,1.14,1.14,0,0,1-1.06.8" class="cls-1"/><path d="M16,32.71a32.44,32.44,0,0,0,3.58-5.76c0.39-.76.8-1.18,1.62-0.49a1.35,1.35,0,0,0,1.56.22,2.12,2.12,0,0,1,2.62.53,1.77,1.77,0,0,0-.87-1.85,11.14,11.14,0,0,0-1.65-1.12c-1.92-1.15-2.16-2.24-.76-4a2.22,2.22,0,0,1,1.88-.46,28.32,28.32,0,0,1,11.29,2.44c4.6,2,8.68,5,13.23,7.15,0.57,0.26.38,0.56,0.27,1-2.1,8.76-4.16,17.53-6.26,26.29-0.78,3.25-1.62,6.49-2.42,9.73a0.45,0.45,0,0,1-.44.42,26.41,26.41,0,0,0-3.82-10c-0.5-.79-1.3-1.39-1.48-2.37a2.16,2.16,0,0,1,1.61-2.94,11.66,11.66,0,0,1,4.39-.63A7.91,7.91,0,0,0,36.67,50a45.91,45.91,0,0,1-5.26-.09c-2.75.37-5.45,1.24-8.28,0.89a6.4,6.4,0,0,1-3.07-1.33c-1.36-1-1.5-1.91-.66-3.43,0.64-1.17,1.18-2.22-.71-2.87-0.86-.3-0.35-1.21.05-1.52,1.15-.88.63-1.27-0.27-1.83-1.1-.68-1.09-1.4,0-2.21a1.55,1.55,0,0,0,.85-1.76,1.62,1.62,0,0,0-1.67-1.1,2.7,2.7,0,0,1-1.49-.49Z" class="cls-2"/><path d="M43.3,3.29A1.88,1.88,0,0,0,45,4c1,0,1.91,0,2.86,0a1.12,1.12,0,0,1,1.38,1c0.1,0.83.91,1,1.59,1.23,0.4,0.12.83,0.15,1.24,0.26C54,7,54.23,7.3,53.84,9.08c-1,4.51-2,9-3.25,13.48-3.57-1.16-6.41-3.45-9.27-5.71-3.45-2.72-7.12-5-11.52-5.81a22,22,0,0,0-3.38-.41c-1,0-1-.45-0.57-1.09s0.32-1.68,1.65-1.11c0.5,0.21.9-.72,1.23-1.24,0.7-1.11,1.36-1.92,3-1.33,1,0.36,1.89-.65,2.72-1.26S35.95,3.22,37,4.16c1.77-1,3.91.05,5.67-1Z" class="cls-2"/><path d="M31.41,49.9c3.28-.49,6.55-0.84,9.65.92a1,1,0,0,1-1.28.48,12.85,12.85,0,0,0-3.35.49,2.34,2.34,0,0,0-2.11,2.69A23.48,23.48,0,0,1,31.41,49.9Z" class="cls-3"/></svg>