<svg xmlns="http://www.w3.org/2000/svg" id="Layer_1" width="70" height="70" x="0" y="0" enable-background="new 0 0 70 70" version="1.1" viewBox="0 0 70 70" xml:space="preserve"><g><path fill="#21409A" d="M24.193,44.216V37.03c26.826-9.765,26.826-9.765,28.252-10.259c2.359-0.878,2.798-1.701,1.755-2.085 c1.042,0.384,1.042,0.494,1.042,3.676c0,3.401-0.055,4.553-1.426,5.102L24.193,44.216z M31.105,60.729 c0-1.481,0.165-2.743-1.152-2.304l-5.705,2.085v7.132l5.541-2.03c1.371-0.494,1.317-1.92,1.317-3.182 C31.105,62.429,31.105,60.729,31.105,60.729z M39.992,45.752c0-1.481,0.165-2.743-1.152-2.304L24.248,48.77v7.187l14.263-5.212 c1.426-0.494,1.481-1.481,1.481-3.017V45.752z M54.255,13.002c1.097,0.384,0.658,1.152-1.755,2.03 c-1.152,0.439-24.961,9.052-33.848,12.234l0,0c-0.219,0.11-0.439,0.165-0.658,0.219c-0.823,0.274-1.481,0.549-1.92,0.713 c-0.933,0.274-1.317,0.165-1.371-0.658c0,0.549,0,1.646,0.933,1.975l7.79,2.853c0,0,0.549,0.165,1.097,0 c1.262-0.439,6.418-2.359,29.35-10.643c1.426-0.494,1.481-1.646,1.481-4.992C55.298,13.495,55.298,13.386,54.255,13.002"/><g><path fill="#EF4060" d="M46.356,28.966c0,0,5.705-2.085,6.144-2.249c2.359-0.878,2.798-1.701,1.755-2.085 c0.055,0,0.11,0.055,0.165,0.055c-0.11-0.055-0.219-0.11-0.329-0.11c-0.329-0.11-4.114-1.481-4.114-1.481l-9.875,3.566 L46.356,28.966z M30.227,23.096l9.875-3.566c0,0-20.298-7.351-23.864-8.668c-0.878-0.329-1.536-0.658-1.536,0.274v3.621 c0,2.03,0.987,3.072,2.962,3.785L30.227,23.096z"/><path fill="#EF4060" d="M14.702,27.539c0.055,0.878,0.439,0.987,1.371,0.658c0.439-0.165,1.097-0.384,1.92-0.713 c0.219-0.055,0.439-0.165,0.658-0.219l0,0c1.426-0.549,3.292-1.207,5.376-1.92c-3.456-1.262-6.309-2.304-7.79-2.853 c-0.878-0.329-1.536-0.658-1.536,0.274L14.702,27.539c0,0.11,0,0.165,0,0.274C14.702,27.704,14.702,27.649,14.702,27.539z"/><path fill="#EF4060" d="M27.21,10.368l19.036,6.912c3.346-1.207,5.87-2.139,6.199-2.249c2.359-0.878,2.853-1.646,1.755-2.03 C45.039,9.655,29.35,3.95,25.784,2.688c-0.878-0.329-1.536-0.658-1.536,0.274v3.621C24.193,8.558,25.29,9.655,27.21,10.368z"/></g></g></svg>