<svg xmlns="http://www.w3.org/2000/svg" version="1.1" width="124px" height="70px" viewBox="0 0 124 70"><g id="surface1"><path d="M 54.648438 43.851562 C 55.742188 39.390625 56.808594 35.042969 57.894531 30.625 L 52.808594 30.625 C 51.726562 35.007812 50.636719 39.410156 49.539062 43.851562 L 39.703125 43.851562 C 42.625 37.582031 45.492188 31.417969 48.375 25.234375 L 72.757812 25.234375 C 75.589844 31.371094 78.433594 37.542969 81.285156 43.726562 C 80.558594 43.949219 73.339844 44.023438 71.546875 43.839844 C 70.445312 39.457031 69.335938 35.035156 68.226562 30.613281 L 63.191406 30.613281 C 64.277344 35.042969 65.351562 39.410156 66.441406 43.855469 L 54.648438 43.855469 Z M 54.648438 43.851562 " style=" stroke:none;fill-rule:nonzero;fill:rgb(10.980392%,14.117648%,25.490198%);fill-opacity:1;"/><path d="M 71.425781 22.355469 L 49.71875 22.355469 C 51.351562 18.792969 52.945312 15.328125 54.59375 11.730469 C 53.816406 11.730469 53.175781 11.65625 52.566406 11.757812 C 52.21875 11.816406 51.898438 12.136719 51.601562 12.382812 C 51.421875 12.535156 51.320312 12.785156 51.160156 12.964844 C 50.953125 13.195312 50.710938 13.234375 50.414062 13.085938 C 50.121094 12.941406 50.023438 12.710938 50.0625 12.414062 C 50.078125 12.265625 50.132812 12.113281 50.195312 11.976562 C 50.972656 10.308594 51.757812 8.640625 52.542969 6.976562 C 52.582031 6.894531 52.65625 6.832031 52.734375 6.738281 L 64.171875 6.738281 C 66.566406 11.894531 68.972656 17.074219 71.425781 22.355469 Z M 71.425781 22.355469 " style=" stroke:none;fill-rule:nonzero;fill:rgb(10.980392%,14.117648%,25.490198%);fill-opacity:1;"/><path d="M 18.882812 59.777344 L 15.929688 59.777344 C 16.9375 57.359375 17.921875 55.003906 18.941406 52.558594 C 18.179688 52.484375 17.496094 52.53125 16.8125 52.523438 C 16.109375 52.515625 15.410156 52.519531 14.644531 52.519531 C 13.636719 54.917969 12.621094 57.320312 11.59375 59.757812 L 8.667969 59.757812 C 9.609375 57.324219 10.683594 54.992188 11.640625 52.550781 L 7.339844 52.550781 C 6.332031 54.941406 5.320312 57.347656 4.300781 59.769531 L 1.34375 59.769531 C 2.730469 56.457031 4.09375 53.199219 5.453125 49.949219 L 22.992188 49.949219 C 21.609375 53.253906 20.253906 56.492188 18.882812 59.773438 Z M 18.882812 59.777344 " style=" stroke:none;fill-rule:nonzero;fill:rgb(10.980392%,14.117648%,25.490198%);fill-opacity:1;"/><path d="M 86.585938 59.777344 L 74.371094 59.777344 C 74.4375 59.566406 74.476562 59.394531 74.542969 59.238281 C 75.234375 57.582031 75.953125 55.933594 76.617188 54.265625 C 76.804688 53.789062 77.042969 53.621094 77.554688 53.625 C 80.175781 53.652344 82.796875 53.636719 85.417969 53.636719 C 85.664062 53.636719 85.910156 53.636719 86.1875 53.636719 C 86.335938 53.277344 86.472656 52.949219 86.644531 52.542969 L 77.328125 52.542969 C 77.714844 51.628906 78.066406 50.800781 78.429688 49.957031 L 90.675781 49.957031 C 89.335938 53.261719 87.941406 56.5 86.582031 59.777344 Z M 85.179688 56.042969 L 78.84375 56.042969 C 78.6875 56.414062 78.542969 56.757812 78.382812 57.148438 L 84.71875 57.148438 C 84.863281 56.804688 85 56.476562 85.183594 56.042969 Z M 85.179688 56.042969 " style=" stroke:none;fill-rule:nonzero;fill:rgb(10.980392%,14.117648%,25.490198%);fill-opacity:1;"/><path d="M 116.949219 53.640625 C 117.109375 53.261719 117.238281 52.949219 117.414062 52.535156 C 116.339844 52.507812 115.339844 52.527344 114.339844 52.519531 C 113.300781 52.519531 112.261719 52.519531 111.21875 52.519531 L 108.097656 52.519531 C 108.480469 51.613281 108.824219 50.804688 109.179688 49.964844 L 121.449219 49.964844 C 120.078125 53.238281 118.722656 56.484375 117.351562 59.757812 L 105.230469 59.757812 C 105.246094 59.300781 107.109375 54.691406 107.710938 53.640625 Z M 115.960938 56.003906 C 113.847656 56.003906 111.886719 56 109.921875 56.015625 C 109.792969 56.015625 109.597656 56.109375 109.542969 56.21875 C 109.402344 56.507812 109.195312 56.789062 109.226562 57.164062 L 115.460938 57.164062 C 115.613281 56.816406 115.761719 56.472656 115.960938 56.003906 Z M 115.960938 56.003906 " style=" stroke:none;fill-rule:nonzero;fill:rgb(10.980392%,14.117648%,25.490198%);fill-opacity:1;"/><path d="M 26.359375 49.941406 L 38.316406 49.941406 C 38.257812 50.128906 38.222656 50.296875 38.160156 50.449219 C 37.457031 52.121094 36.734375 53.789062 36.046875 55.472656 C 35.882812 55.871094 35.664062 56.011719 35.238281 56.011719 C 32.707031 55.992188 30.179688 56 27.648438 56.003906 C 27.378906 56.003906 27.109375 56.003906 26.800781 56.003906 C 26.640625 56.367188 26.488281 56.714844 26.285156 57.179688 C 27.847656 57.183594 29.324219 57.179688 30.796875 57.183594 C 32.261719 57.183594 33.730469 57.183594 35.300781 57.183594 C 34.949219 58.035156 34.644531 58.808594 34.304688 59.570312 C 34.257812 59.679688 34.070312 59.75 33.9375 59.796875 C 33.835938 59.832031 33.710938 59.804688 33.597656 59.804688 C 30.027344 59.804688 26.460938 59.804688 22.890625 59.804688 C 22.710938 59.804688 22.53125 59.789062 22.246094 59.773438 C 23.632812 56.464844 24.996094 53.207031 26.359375 49.945312 Z M 28.238281 52.542969 C 28.089844 52.90625 27.953125 53.234375 27.800781 53.601562 L 33.859375 53.601562 C 34 53.25 34.132812 52.921875 34.285156 52.542969 Z M 28.238281 52.542969 " style=" stroke:none;fill-rule:nonzero;fill:rgb(10.980392%,14.117648%,25.490198%);fill-opacity:1;"/><path d="M 89.734375 59.777344 C 91.132812 56.4375 92.488281 53.195312 93.847656 49.949219 L 106.25 49.949219 C 104.867188 53.253906 103.503906 56.511719 102.140625 59.769531 L 99.183594 59.769531 C 100.195312 57.351562 101.183594 54.992188 102.195312 52.570312 L 95.726562 52.570312 C 94.726562 54.941406 93.707031 57.363281 92.691406 59.777344 Z M 89.734375 59.777344 " style=" stroke:none;fill-rule:nonzero;fill:rgb(10.980392%,14.117648%,25.490198%);fill-opacity:1;"/><path d="M 72.007812 57.179688 C 71.671875 58.121094 71.3125 58.941406 70.945312 59.777344 L 59.605469 59.777344 C 59.628906 59.261719 62.652344 51.847656 63.609375 49.949219 L 75.066406 49.949219 C 74.707031 50.816406 74.367188 51.648438 74.011719 52.507812 L 65.476562 52.507812 C 64.824219 54.050781 64.183594 55.566406 63.503906 57.179688 Z M 72.007812 57.179688 " style=" stroke:none;fill-rule:nonzero;fill:rgb(10.980392%,14.117648%,25.490198%);fill-opacity:1;"/><path d="M 42.257812 54.820312 C 41.324219 53.191406 40.417969 51.605469 39.453125 49.921875 C 40.472656 49.921875 41.367188 49.929688 42.265625 49.917969 C 42.558594 49.914062 42.636719 50.128906 42.75 50.320312 C 43.277344 51.222656 43.804688 52.125 44.332031 53.027344 C 44.449219 53.222656 44.566406 53.414062 44.699219 53.632812 C 45.25 53.632812 45.792969 53.664062 46.332031 53.617188 C 46.554688 53.601562 46.792969 53.457031 46.972656 53.308594 C 48.152344 52.316406 49.328125 51.316406 50.488281 50.300781 C 50.796875 50.03125 51.097656 49.894531 51.519531 49.910156 C 52.46875 49.941406 53.417969 49.921875 54.367188 49.921875 C 54.539062 49.921875 54.710938 49.921875 54.882812 49.921875 C 54.902344 49.964844 54.917969 50.011719 54.9375 50.054688 C 53.089844 51.640625 51.242188 53.226562 49.332031 54.867188 C 50.25 56.480469 51.160156 58.085938 52.117188 59.769531 L 49.058594 59.769531 C 48.46875 58.746094 47.835938 57.722656 47.285156 56.65625 C 47.015625 56.132812 46.679688 55.992188 46.117188 55.980469 C 45.347656 55.964844 44.746094 56.148438 44.171875 56.695312 C 43.132812 57.675781 42.015625 58.574219 40.921875 59.492188 C 40.757812 59.628906 40.542969 59.785156 40.34375 59.789062 C 39.125 59.816406 37.90625 59.800781 36.511719 59.800781 C 37.207031 59.117188 37.859375 58.613281 38.472656 58.078125 C 39.089844 57.539062 39.714844 57.015625 40.335938 56.480469 C 40.96875 55.9375 41.597656 55.390625 42.257812 54.820312 Z M 42.257812 54.820312 " style=" stroke:none;fill-rule:nonzero;fill:rgb(10.980392%,14.117648%,25.490198%);fill-opacity:1;"/><path d="M 60.351562 49.953125 C 58.96875 53.253906 57.613281 56.492188 56.246094 59.761719 L 53.296875 59.761719 C 54.652344 56.449219 56.03125 53.207031 57.394531 49.953125 Z M 60.351562 49.953125 " style=" stroke:none;fill-rule:nonzero;fill:rgb(10.980392%,14.117648%,25.490198%);fill-opacity:1;"/></g></svg>