<svg xmlns="http://www.w3.org/2000/svg" id="Isotipo" width="70" height="70" viewBox="0 0 622.58 565.82"><defs><style>.cls-1{fill:#1c2441}</style></defs><g id="Blanco"><path d="M239.99,508.44c13.36-54.36,26.38-107.32,39.61-161.12h-62.01c-13.21,53.37-26.48,107.01-39.87,161.09H57.74c35.62-76.39,70.62-151.46,105.75-226.79h297.39c34.5,74.74,69.2,149.93,103.97,225.26-8.84,2.72-96.89,3.63-118.76,1.37-13.41-53.37-26.95-107.24-40.49-161.13h-61.39c13.24,53.96,26.3,107.18,39.58,161.32h-143.81Z" class="cls-1"/><path d="M444.59,246.56H179.89c19.94-43.4,39.33-85.61,59.47-129.45-9.49,0-17.29-.89-24.75.35-4.24.7-8.14,4.61-11.75,7.61-2.22,1.85-3.43,4.88-5.42,7.09-2.51,2.78-5.47,3.28-9.06,1.49-3.61-1.8-4.79-4.56-4.33-8.21.23-1.81.86-3.64,1.64-5.3,9.5-20.32,19.05-40.63,28.64-60.91.46-.98,1.37-1.75,2.34-2.94h139.46c29.2,62.81,58.55,125.94,88.45,190.27Z" class="cls-1"/></g></svg>