<svg xmlns="http://www.w3.org/2000/svg" width="70" height="70" version="1.1" viewBox="0 0 70 70"><g id="surface1"><path d="M 50.339844 29.074219 L 50.339844 29.121094 L 50.03125 29.121094 L 50.03125 30.019531 L 49.929688 30.019531 L 49.929688 29.121094 L 49.617188 29.121094 L 49.617188 29.03125 L 50.328125 29.03125 L 50.328125 29.0625 Z M 50.339844 29.074219" style="stroke:none;fill-rule:nonzero;fill:#4c12a1;fill-opacity:1"/><path d="M 51.3125 30.019531 C 51.3125 29.722656 51.285156 29.445312 51.238281 29.179688 C 51.210938 29.253906 51.167969 29.339844 51.136719 29.429688 C 51.105469 29.519531 51.046875 29.679688 50.976562 29.914062 L 50.902344 29.914062 C 50.84375 29.710938 50.78125 29.5625 50.753906 29.457031 C 50.722656 29.355469 50.679688 29.265625 50.652344 29.179688 C 50.605469 29.429688 50.578125 29.710938 50.578125 30.019531 L 50.472656 30.019531 C 50.472656 29.84375 50.488281 29.664062 50.503906 29.503906 C 50.519531 29.328125 50.546875 29.179688 50.578125 29.03125 L 50.695312 29.03125 C 50.753906 29.148438 50.796875 29.265625 50.84375 29.371094 C 50.886719 29.472656 50.914062 29.589844 50.960938 29.710938 C 51.003906 29.578125 51.035156 29.457031 51.078125 29.371094 C 51.121094 29.265625 51.167969 29.164062 51.226562 29.03125 L 51.34375 29.03125 C 51.371094 29.164062 51.402344 29.328125 51.417969 29.503906 C 51.429688 29.679688 51.445312 29.84375 51.445312 30.019531 Z M 51.3125 30.019531" style="stroke:none;fill-rule:nonzero;fill:#4c12a1;fill-opacity:1"/><path d="M 11.628906 34.441406 L 11.628906 40.4375 L 9.578125 40.4375 L 9.535156 38.832031 C 8.578125 39.9375 7.222656 40.644531 5.554688 40.644531 C 3.890625 40.644531 1.621094 39.140625 1.621094 37.195312 C 1.621094 35.25 3.464844 33.6875 6.660156 33.6875 C 9.859375 33.6875 8.429688 33.746094 9.359375 33.910156 C 9.167969 32.304688 8.089844 31.316406 6.425781 31.316406 C 4.761719 31.316406 4.140625 31.714844 3.210938 32.554688 L 2.253906 31.316406 C 3.257812 30.238281 4.90625 29.519531 6.867188 29.519531 C 9.726562 29.519531 11.613281 31.464844 11.613281 34.410156 Z M 9.386719 35.339844 C 8.488281 35.148438 7.589844 35.015625 6.734375 35.015625 C 4.804688 35.015625 3.714844 35.765625 3.714844 37.09375 C 3.714844 38.417969 4.613281 39.050781 5.953125 39.050781 C 7.898438 39.050781 9.328125 37.492188 9.371094 35.339844 Z M 9.386719 35.339844" style="stroke:none;fill-rule:nonzero;fill:#4c12a1;fill-opacity:1"/><path d="M 33.734375 35.605469 L 24.921875 35.605469 C 25.171875 37.417969 26.496094 38.742188 28.382812 38.742188 C 30.269531 38.742188 30.949219 38.078125 31.597656 37.09375 L 33.304688 37.976562 C 32.316406 39.582031 30.5625 40.644531 28.222656 40.644531 C 25.878906 40.644531 22.664062 38.167969 22.664062 35.089844 C 22.664062 32.007812 25.140625 29.53125 28.222656 29.53125 C 31.300781 29.53125 33.347656 31.597656 33.671875 34.320312 C 33.734375 34.792969 33.761719 35.175781 33.734375 35.605469 Z M 24.921875 34.25 L 31.507812 34.25 C 31.492188 33.984375 31.449219 33.703125 31.375 33.496094 C 30.992188 32.082031 29.722656 31.140625 28.207031 31.140625 C 26.6875 31.140625 25.183594 32.40625 24.921875 34.25 Z M 24.921875 34.25" style="stroke:none;fill-rule:nonzero;fill:#4c12a1;fill-opacity:1"/><path d="M 35.367188 25.480469 L 37.609375 25.480469 L 37.609375 40.4375 L 35.367188 40.4375 Z M 35.367188 25.480469" style="stroke:none;fill-rule:nonzero;fill:#4c12a1;fill-opacity:1"/><path d="M 39.289062 35.101562 C 39.289062 32.023438 41.792969 29.546875 44.84375 29.546875 C 47.894531 29.546875 50.398438 32.023438 50.398438 35.101562 C 50.398438 38.183594 47.925781 40.660156 44.84375 40.660156 C 41.765625 40.660156 39.289062 38.152344 39.289062 35.101562 Z M 48.160156 35.101562 C 48.160156 33.203125 46.6875 31.683594 44.84375 31.683594 C 43.003906 31.683594 41.527344 33.203125 41.527344 35.101562 C 41.527344 37.003906 43.03125 38.523438 44.84375 38.523438 C 46.65625 38.523438 48.160156 36.988281 48.160156 35.101562 Z M 48.160156 35.101562" style="stroke:none;fill-rule:nonzero;fill:#4c12a1;fill-opacity:1"/><path d="M 17.183594 38.449219 C 16.816406 38.449219 16.535156 38.257812 16.460938 37.875 L 16.167969 36.253906 L 15.871094 34.617188 L 15.105469 30.460938 L 15.0625 30.226562 L 14.972656 29.753906 L 12.660156 29.753906 L 12.910156 31.035156 L 12.953125 31.257812 L 13.441406 33.6875 L 14.324219 38.109375 L 14.355469 38.242188 C 14.457031 38.859375 14.691406 39.375 15.0625 39.761719 L 15.105469 39.804688 C 15.621094 40.363281 16.34375 40.660156 17.199219 40.660156 C 18.050781 40.660156 18.820312 40.335938 19.335938 39.761719 L 19.378906 39.714844 C 19.71875 39.332031 19.953125 38.816406 20.058594 38.242188 L 20.101562 37.992188 L 21 33.480469 L 21.472656 31.140625 L 21.515625 30.933594 L 21.75 29.753906 L 19.4375 29.753906 L 19.335938 30.328125 L 18.304688 35.824219 L 18.171875 36.519531 L 17.921875 37.875 C 17.832031 38.242188 17.582031 38.433594 17.242188 38.449219 Z M 17.183594 38.449219" style="stroke:none;fill-rule:nonzero;fill:#4c12a1;fill-opacity:1"/><path d="M 56.824219 39.671875 C 57.503906 39.214844 58.226562 38.699219 58.976562 38.152344 C 61.851562 36.074219 65.402344 33.496094 68.527344 33.496094 L 68.527344 31.492188 C 64.769531 31.492188 60.90625 34.292969 57.796875 36.53125 C 56.53125 37.445312 55.335938 38.316406 54.410156 38.800781 C 54.410156 38.800781 54.378906 38.800781 54.378906 38.816406 L 54.378906 40.527344 L 54.410156 40.542969 C 55.335938 41.027344 56.546875 41.898438 57.796875 42.808594 C 60.894531 45.050781 64.753906 47.851562 68.527344 47.851562 L 68.527344 45.847656 C 65.417969 45.847656 61.851562 43.265625 58.976562 41.191406 C 58.226562 40.644531 57.503906 40.128906 56.824219 39.671875 Z M 56.824219 39.671875" style="stroke:none;fill-rule:evenodd;fill:#ffcc04;fill-opacity:1"/><path d="M 56.824219 35.089844 C 57.503906 34.632812 58.226562 34.117188 58.976562 33.570312 C 61.851562 31.492188 65.402344 28.914062 68.527344 28.914062 L 68.527344 26.910156 C 64.769531 26.910156 60.90625 29.695312 57.796875 31.949219 C 56.53125 32.863281 55.335938 33.734375 54.410156 34.21875 C 54.410156 34.21875 54.378906 34.21875 54.378906 34.234375 L 54.378906 35.941406 L 54.410156 35.957031 C 55.335938 36.445312 56.546875 37.3125 57.796875 38.226562 C 60.894531 40.46875 64.753906 43.265625 68.527344 43.265625 L 68.527344 41.261719 C 65.417969 41.261719 61.851562 38.683594 58.976562 36.605469 C 58.226562 36.0625 57.503906 35.546875 56.824219 35.089844 Z M 56.824219 35.089844" style="stroke:none;fill-rule:evenodd;fill:#4c12a1;fill-opacity:1"/><path d="M 56.824219 30.503906 C 57.503906 30.046875 58.226562 29.53125 58.976562 28.988281 C 61.851562 26.910156 65.402344 24.332031 68.527344 24.332031 L 68.527344 22.328125 C 64.769531 22.328125 60.90625 25.125 57.796875 27.367188 C 56.53125 28.28125 55.335938 29.148438 54.410156 29.636719 C 54.410156 29.636719 54.378906 29.636719 54.378906 29.652344 L 54.378906 31.359375 L 54.410156 31.375 C 55.335938 31.859375 56.546875 32.730469 57.796875 33.644531 C 60.894531 35.882812 64.753906 38.683594 68.527344 38.683594 L 68.527344 36.679688 C 65.417969 36.679688 61.851562 34.101562 58.976562 32.023438 C 58.226562 31.476562 57.503906 30.960938 56.824219 30.503906 Z M 56.824219 30.503906" style="stroke:none;fill-rule:evenodd;fill:#19bed1;fill-opacity:1"/></g></svg>