<svg xmlns="http://www.w3.org/2000/svg" version="1.1" width="70px" height="70px" viewBox="0 0 70 70"><g id="surface1"><rect x="0" y="0" width="70" height="70" style="fill:rgb(29.803923%,7.058824%,63.137257%);fill-opacity:1;stroke:none;"/><path d="M 48.011719 47.78125 C 44.796875 48.410156 41.277344 48.972656 37.628906 49.558594 C 23.667969 51.765625 6.289062 54.496094 -2.480469 63.261719 L -8.148438 57.597656 C 2.464844 46.980469 21.273438 44.019531 36.371094 41.625 C 42.523438 40.652344 48.34375 39.730469 52.359375 38.484375 C 52.359375 38.484375 52.460938 38.449219 52.496094 38.4375 L 52.515625 38.417969 L 57.347656 43.25 L 57.328125 43.273438 L 57.292969 43.421875 C 56.039062 47.425781 55.117188 53.269531 54.152344 59.40625 C 51.773438 74.515625 48.796875 93.316406 38.183594 103.925781 L 32.515625 98.257812 C 41.28125 89.492188 44.023438 72.121094 46.222656 58.152344 C 46.804688 54.5 47.355469 50.972656 47.996094 47.765625 Z M 48.011719 47.78125 " style=" stroke:none;fill-rule:evenodd;fill:rgb(99.215686%,80.392158%,3.921569%);fill-opacity:1;"/><path d="M 35.019531 34.789062 C 31.800781 35.421875 28.285156 35.980469 24.632812 36.566406 C 10.664062 38.765625 -6.707031 41.503906 -15.476562 50.273438 L -21.140625 44.605469 C -10.527344 33.988281 8.277344 31.027344 23.378906 28.632812 C 29.527344 27.660156 35.351562 26.738281 39.363281 25.492188 C 39.363281 25.492188 39.464844 25.460938 39.5 25.449219 L 39.523438 25.425781 L 44.355469 30.257812 L 44.332031 30.28125 L 44.296875 30.429688 C 43.042969 34.433594 42.121094 40.277344 41.15625 46.414062 C 38.777344 61.523438 35.800781 80.324219 25.1875 90.933594 L 19.519531 85.265625 C 28.285156 76.5 31.027344 59.128906 33.226562 45.160156 C 33.808594 41.507812 34.359375 37.980469 35.003906 34.773438 Z M 35.019531 34.789062 " style=" stroke:none;fill-rule:evenodd;fill:rgb(100%,100%,100%);fill-opacity:1;"/><path d="M 22.035156 21.808594 C 18.816406 22.4375 15.300781 23 11.648438 23.582031 C -2.308594 25.792969 -19.6875 28.523438 -28.457031 37.289062 L -34.125 31.621094 C -23.511719 21.007812 -4.703125 18.042969 10.394531 15.652344 C 16.546875 14.675781 22.367188 13.753906 26.378906 12.511719 C 26.378906 12.511719 26.484375 12.476562 26.519531 12.464844 L 26.539062 12.445312 L 31.371094 17.277344 L 31.351562 17.296875 L 31.316406 17.445312 C 30.058594 21.449219 29.128906 27.285156 28.175781 33.433594 C 25.796875 48.542969 22.820312 67.339844 12.207031 77.953125 L 6.539062 72.285156 C 15.304688 63.519531 18.046875 46.144531 20.242188 32.175781 C 20.828125 28.523438 21.378906 24.996094 22.019531 21.789062 Z M 22.035156 21.808594 " style=" stroke:none;fill-rule:evenodd;fill:rgb(13.333334%,74.509805%,81.960785%);fill-opacity:1;"/></g></svg>