<svg xmlns="http://www.w3.org/2000/svg" id="Layer_1" width="70" height="70" x="0" y="0" enable-background="new 0 0 70 70" version="1.1" viewBox="0 0 70 70" xml:space="preserve"><path fill="#18488D" d="M43.767,46.917c-11.44,0.835-27.272,3.356-38.646,2.74c1.2,2.432,2.697,4.718,4.47,6.814 c0.99,1.164,2.061,2.274,3.216,3.306c6.176,5.551,14.124,8.605,22.376,8.605c8.306,0,16.246-3.005,22.361-8.457 c2.526-2.254,4.575-4.674,6.2-7.332c1.101-1.798,2.006-3.703,2.734-5.745C61.579,45.876,53.198,46.227,43.767,46.917z"/><path fill="#18488D" d="M16.767,7.42c-0.208-0.046-0.424-0.004-0.598,0.119c-0.606,0.417-1.212,0.869-1.797,1.331 c-0.297,0.234-0.378,0.651-0.191,0.977l5.671,9.823l0.292,0.395c0.023,0.03,0.016,0.038-0.014,0.019l-0.394-0.295l-9.83-5.674 c-0.324-0.188-0.743-0.112-0.974,0.187c-0.465,0.585-0.911,1.19-1.328,1.798c-0.119,0.176-0.161,0.395-0.115,0.597 c0.048,0.207,0.179,0.387,0.361,0.495l16.77,9.678c0.119,0.069,0.25,0.099,0.378,0.099c0.212,0,0.423-0.089,0.574-0.259 c0.376-0.429,0.782-0.838,1.208-1.209c0.273-0.24,0.34-0.639,0.158-0.952L17.262,7.783C17.152,7.596,16.977,7.466,16.767,7.42z"/><path fill="#18488D" d="M62.775,16.692c0.047-0.202,0.01-0.421-0.114-0.597c-0.42-0.608-0.868-1.212-1.335-1.798 c-0.232-0.298-0.649-0.375-0.972-0.187l-9.827,5.671l-0.394,0.291c-0.028,0.023-0.038,0.016-0.015-0.011l0.295-0.394l5.672-9.831 c0.188-0.326,0.109-0.747-0.188-0.975c-0.583-0.464-1.19-0.911-1.801-1.328c-0.172-0.123-0.388-0.164-0.595-0.114 c-0.208,0.046-0.384,0.176-0.494,0.359L43.33,24.545c-0.068,0.119-0.1,0.249-0.1,0.379c0,0.214,0.093,0.424,0.261,0.574 c0.429,0.375,0.841,0.78,1.209,1.209c0.237,0.271,0.641,0.34,0.955,0.156l16.762-9.677C62.601,17.079,62.731,16.902,62.775,16.692z"/><path fill="#18488D" d="M49.886,5.335c-0.064-0.204-0.208-0.368-0.401-0.459c-0.666-0.318-1.358-0.616-2.056-0.892 c-0.351-0.138-0.745,0-0.937,0.325l-5.674,9.823l-0.195,0.451c-0.015,0.034-0.021,0.031-0.019-0.007l0.055-0.487V2.74 c0-0.379-0.276-0.7-0.651-0.753c-0.738-0.107-1.485-0.187-2.221-0.249c-0.21-0.016-0.42,0.057-0.574,0.203 c-0.159,0.141-0.247,0.345-0.247,0.555l0.004,19.364c0,0.138,0.038,0.264,0.101,0.379c0.105,0.183,0.29,0.32,0.512,0.367 c0.561,0.11,1.12,0.257,1.652,0.44c0.344,0.115,0.727-0.026,0.905-0.34l9.676-16.767C49.922,5.755,49.949,5.537,49.886,5.335z"/><path fill="#18488D" d="M68.255,32.979c0.146-0.157,0.215-0.367,0.197-0.578c-0.06-0.735-0.145-1.485-0.257-2.228 c-0.055-0.371-0.371-0.646-0.748-0.646l-11.346-0.004l-0.486,0.058c-0.037,0.004-0.037-0.004-0.007-0.021l0.451-0.195l9.826-5.674 c0.329-0.191,0.469-0.59,0.329-0.942c-0.276-0.692-0.577-1.381-0.896-2.047c-0.09-0.191-0.26-0.336-0.459-0.398 c-0.204-0.062-0.421-0.039-0.604,0.065l-16.768,9.685c-0.12,0.065-0.213,0.165-0.278,0.275c-0.104,0.183-0.137,0.414-0.062,0.628 c0.187,0.541,0.337,1.098,0.444,1.653c0.073,0.356,0.387,0.612,0.745,0.612h19.357C67.906,33.224,68.111,33.131,68.255,32.979z"/><path fill="#18488D" d="M5.41,20.3c-0.203,0.066-0.372,0.211-0.461,0.403c-0.316,0.667-0.614,1.359-0.89,2.055 c-0.142,0.348,0,0.747,0.325,0.938l9.823,5.671l0.45,0.195c0.037,0.017,0.033,0.023-0.007,0.023l-0.484-0.058H2.815 c-0.376,0-0.698,0.275-0.75,0.651c-0.108,0.739-0.193,1.485-0.252,2.224c-0.014,0.211,0.058,0.421,0.201,0.574 c0.142,0.153,0.346,0.245,0.557,0.245l19.362-0.003c0.138,0,0.267-0.033,0.38-0.098c0.183-0.112,0.321-0.292,0.367-0.513 c0.107-0.562,0.255-1.118,0.438-1.654c0.119-0.344-0.024-0.722-0.336-0.906L6.016,20.367C5.832,20.262,5.612,20.24,5.41,20.3z"/><path fill="#18488D" d="M33.044,1.94c-0.155-0.141-0.365-0.215-0.578-0.199c-0.734,0.062-1.483,0.145-2.224,0.256 c-0.375,0.057-0.65,0.375-0.65,0.75l-0.002,11.346l0.058,0.485c0.003,0.039-0.006,0.039-0.02,0.005l-0.198-0.447l-5.673-9.832 c-0.187-0.325-0.589-0.467-0.94-0.321c-0.693,0.275-1.381,0.574-2.048,0.892c-0.189,0.091-0.338,0.257-0.399,0.463 c-0.064,0.199-0.037,0.417,0.068,0.6l9.682,16.769c0.069,0.119,0.164,0.214,0.279,0.278c0.185,0.104,0.41,0.134,0.625,0.062 c0.542-0.183,1.097-0.337,1.654-0.444c0.355-0.073,0.614-0.386,0.614-0.746L33.289,2.499C33.289,2.286,33.202,2.082,33.044,1.94z"/><path fill="#E96A24" d="M66.333,37.406c-6.991,0-12.344,1.7-26.225,4.646C20.473,46.227,6.526,42.782,3.33,42.367 c-0.476-0.058-0.789,0.184-0.627,0.721c0.347,1.597,1.527,5.014,2.418,6.569c11.374,0.616,27.207-1.905,38.646-2.74 c9.432-0.69,17.812-1.041,22.714-0.07c0.794-2.228,1.376-4.609,1.763-7.181C68.466,38.194,68.285,37.406,66.333,37.406z"/><path fill="#E96A24" d="M2.491,39.789c0.656,0.261,9.733,3.352,23.828,3.553c3.999,0.06,9.102-0.534,12.151-1.202 c-1.603,0.253-5.005,0.767-9.224,0.747c-8.12-0.027-20.438-2.874-26.284-5.481c-0.238-0.111-0.524-0.067-0.738,0.088 c-0.216,0.157-0.335,0.415-0.312,0.682c0.031,0.376,0.07,0.75,0.109,1.124C2.055,39.482,2.11,39.64,2.491,39.789z"/></svg>