<svg xmlns="http://www.w3.org/2000/svg" width="70" height="70" viewBox="0 0 70 70"><path d="M0 0L0 24L24.7755 15.581L33 1L0 0z" style="fill:#fffefe; stroke:none;"/><path d="M33 0L34 1L33 0z" style="fill:#f5cfcf; stroke:none;"/><path d="M34 0L34 1C40.2192 6.48368 36.1698 16.0907 41.7029 21.2577C48.1791 27.3054 62.2146 18.8941 70 20L70 9L69 9C60.6585 20.4823 47.1353 9.61348 58 1L34 0z" style="fill:#fffefe; stroke:none;"/><path d="M58 0L59 1L58 0z" style="fill:#f5cfcf; stroke:none;"/><path d="M59 0L60 1L59 0z" style="fill:#eea3a2; stroke:none;"/><path d="M60 0L60 1L63 1L60 0z" style="fill:#e75b5c; stroke:none;"/><path d="M63 0L64 1L63 0z" style="fill:#eea3a2; stroke:none;"/><path d="M64 0L65 1L64 0z" style="fill:#f5cfcf; stroke:none;"/><path d="M65 0L65 1L69 6L70 6L70 0L65 0z" style="fill:#fffefe; stroke:none;"/><path d="M31 1L32 2L31 1z" style="fill:#f5cfcf; stroke:none;"/><path d="M32 1L32 4L33 4L32 1z" style="fill:#e75b5c; stroke:none;"/><path d="M33 1L33 4L24.8611 15.8426L0 26C20.3552 34.1205 -0.772166 50.2969 6 65C9.75945 60.8077 11.3514 53.5729 17.0147 51.287C21.4378 49.5017 25.8598 54.1054 29 56.6011C35.9927 62.1586 42.6869 68.5683 52 69C50.4024 61.0774 37.4216 53.5046 39.8472 45.0008C43.583 31.9039 66.7741 33.7967 69 20C61.2962 20.3359 46.5994 28.2453 40.7276 20.7716C36.6065 15.5262 38.0174 7.01215 35 1L33 1z" style="fill:#e52c2e; stroke:none;"/><path d="M35 1L36 2L35 1z" style="fill:#eea3a2; stroke:none;"/><path d="M56 1L54 4L56 1z" style="fill:#f5cfcf; stroke:none;"/><path d="M57 1L58 2L57 1z" style="fill:#e75b5c; stroke:none;"/><path d="M58.1088 1.74306C50.0447 5.16357 55.6204 17.7609 63.956 13.6674C72.784 9.33223 66.7649 -1.92854 58.1088 1.74306z" style="fill:#e52c2e; stroke:none;"/><path d="M65 1L66 2L65 1z" style="fill:#e75b5c; stroke:none;"/><path d="M66 1L67 2L66 1M36 2L37 3L36 2M67 2L68 3L67 2M30 3L31 4L30 3z" style="fill:#f5cfcf; stroke:none;"/><path d="M36 3L37 4L36 3z" style="fill:#e75b5c; stroke:none;"/><path d="M68 3L69 4L68 3z" style="fill:#f5cfcf; stroke:none;"/><path d="M30 4L31 5L30 4z" style="fill:#eea3a2; stroke:none;"/><path d="M37.3333 4.66666L37.6667 5.33334L37.3333 4.66666z" style="fill:#f5cfcf; stroke:none;"/><path d="M54 4L55 5L54 4z" style="fill:#e75b5c; stroke:none;"/><path d="M68 4L69 5L68 4z" style="fill:#eea3a2; stroke:none;"/><path d="M30 5L31 6L30 5z" style="fill:#e75b5c; stroke:none;"/><path d="M53.3333 5.66666L53.6667 6.33333L53.3333 5.66666M29 6L30 7L29 6z" style="fill:#f5cfcf; stroke:none;"/><path d="M37 6L38 7L37 6z" style="fill:#eea3a2; stroke:none;"/><path d="M69 6L69 9L70 9L69 6z" style="fill:#f5cfcf; stroke:none;"/><path d="M29 7L30 8L29 7z" style="fill:#eea3a2; stroke:none;"/><path d="M37 7L38 8L37 7z" style="fill:#e75b5c; stroke:none;"/><path d="M53 7L53 10L54 10L53 7z" style="fill:#eea3a2; stroke:none;"/><path d="M29 8L30 9L29 8z" style="fill:#e75b5c; stroke:none;"/><path d="M28 9L29 10L28 9M38 9L38 12L39 12L38 9z" style="fill:#f5cfcf; stroke:none;"/><path d="M68 9L69 10L68 9z" style="fill:#e75b5c; stroke:none;"/><path d="M28 10L29 11L28 10z" style="fill:#eea3a2; stroke:none;"/><path d="M53 10L54 11L53 10z" style="fill:#f5cfcf; stroke:none;"/><path d="M68 10L69 11L68 10z" style="fill:#eea3a2; stroke:none;"/><path d="M28 11L29 12L28 11M54 11L55 12L54 11M65 11L66 12L65 11M67 11L68 12L67 11z" style="fill:#e75b5c; stroke:none;"/><path d="M27 12L28 13L27 12z" style="fill:#f5cfcf; stroke:none;"/><path d="M38.3333 12.6667L38.6667 13.3333L38.3333 12.6667z" style="fill:#eea3a2; stroke:none;"/><path d="M54 12L55 13L54 12z" style="fill:#f5cfcf; stroke:none;"/><path d="M66 12L67 13L66 12z" style="fill:#e75b5c; stroke:none;"/><path d="M55 13L56 14L55 13z" style="fill:#f5cfcf; stroke:none;"/><path d="M65 13L66 14L65 13M26 14L27 15L26 14z" style="fill:#eea3a2; stroke:none;"/><path d="M38.3333 14.6667L38.6667 15.3333L38.3333 14.6667z" style="fill:#e75b5c; stroke:none;"/><path d="M57 14L58 15L57 14z" style="fill:#eea3a2; stroke:none;"/><path d="M58 14L59 15L58 14M62 14L63 15L62 14z" style="fill:#e75b5c; stroke:none;"/><path d="M63 14L64 15L63 14z" style="fill:#eea3a2; stroke:none;"/><path d="M64 14L65 15L64 14z" style="fill:#f5cfcf; stroke:none;"/><path d="M25 15L26 16L25 15z" style="fill:#eea3a2; stroke:none;"/><path d="M60.6667 15.3333L61.3333 15.6667L60.6667 15.3333z" style="fill:#f5cfcf; stroke:none;"/><path d="M24 16L25 17L24 16z" style="fill:#eea3a2; stroke:none;"/><path d="M22 17L23 18L22 17z" style="fill:#f5cfcf; stroke:none;"/><path d="M23 17L24 18L23 17z" style="fill:#e75b5c; stroke:none;"/><path d="M39 17L40 18L39 17M19 18L20 19L19 18z" style="fill:#f5cfcf; stroke:none;"/><path d="M20.6667 18.3333L21.3333 18.6667L20.6667 18.3333M39 18L40 19L39 18z" style="fill:#eea3a2; stroke:none;"/><path d="M13.6667 19.3333L14.3333 19.6667L13.6667 19.3333z" style="fill:#f5cfcf; stroke:none;"/><path d="M15.6667 19.3333L16.3333 19.6667L15.6667 19.3333z" style="fill:#eea3a2; stroke:none;"/><path d="M17 19L18 20L17 19M39 19L40 20L39 19z" style="fill:#e75b5c; stroke:none;"/><path d="M64 19L64 20L68 20L64 19M7 20L8 21L7 20z" style="fill:#f5cfcf; stroke:none;"/><path d="M8.66667 20.3333L9.33333 20.6667L8.66667 20.3333z" style="fill:#eea3a2; stroke:none;"/><path d="M10.6667 20.3333L11.3333 20.6667L10.6667 20.3333z" style="fill:#e75b5c; stroke:none;"/><path d="M40 20L41 21L40 20M60 20L61 21L60 20z" style="fill:#f5cfcf; stroke:none;"/><path d="M61.6667 20.3333L62.3333 20.6667L61.6667 20.3333z" style="fill:#eea3a2; stroke:none;"/><path d="M63 20L64 21L63 20z" style="fill:#e75b5c; stroke:none;"/><path d="M69 20L70 21L69 20M4 21L5 22L4 21z" style="fill:#f5cfcf; stroke:none;"/><path d="M5 21L6 22L5 21z" style="fill:#eea3a2; stroke:none;"/><path d="M40 21L41 22L40 21z" style="fill:#e75b5c; stroke:none;"/><path d="M57 21L58 22L57 21z" style="fill:#f5cfcf; stroke:none;"/><path d="M58 21L59 22L58 21z" style="fill:#eea3a2; stroke:none;"/><path d="M59 21L60 22L59 21M69.3333 21.6667L69.6667 22.3333L69.3333 21.6667z" style="fill:#e75b5c; stroke:none;"/><path d="M2 22L3 23L2 22z" style="fill:#eea3a2; stroke:none;"/><path d="M41 22L42 23L41 22z" style="fill:#e75b5c; stroke:none;"/><path d="M42 22L43 23L42 22M53 22L54 23L53 22z" style="fill:#f5cfcf; stroke:none;"/><path d="M54 22L55 23L54 22z" style="fill:#eea3a2; stroke:none;"/><path d="M55 22L56 23L55 22M1 23L2 24L1 23M43 23L44 24L43 23z" style="fill:#e75b5c; stroke:none;"/><path d="M44 23L44 24L50 24L44 23z" style="fill:#eea3a2; stroke:none;"/><path d="M50.6667 23.3333L51.3333 23.6667L50.6667 23.3333z" style="fill:#e75b5c; stroke:none;"/><path d="M69 23L67 26L69 23z" style="fill:#f5cfcf; stroke:none;"/><path d="M0 24L1 25L0 24z" style="fill:#eea3a2; stroke:none;"/><path d="M2 24L3 25L2 24z" style="fill:#e75b5c; stroke:none;"/><path d="M69 24C61.8692 29.4803 38.7494 37.2567 40.3596 48C41.6648 56.7085 52.3194 61.2046 52 70L70 70C70 56.9966 74.0098 35.9389 69 24z" style="fill:#fffefe; stroke:none;"/><path d="M66 25L67 26L66 25z" style="fill:#e75b5c; stroke:none;"/><path d="M0 26L1 27L0 26z" style="fill:#f5cfcf; stroke:none;"/><path d="M65 26L66 27L65 26z" style="fill:#eea3a2; stroke:none;"/><path d="M0 27L0 70L47 70L47 69C32.5726 62.7736 15.7157 38.2166 8 65C-6.89005 56.7893 22.8948 31.9967 0 27z" style="fill:#fffefe; stroke:none;"/><path d="M2 27L3 28L2 27z" style="fill:#f5cfcf; stroke:none;"/><path d="M3 27L4 28L3 27z" style="fill:#eea3a2; stroke:none;"/><path d="M4 27L5 28L4 27z" style="fill:#e75b5c; stroke:none;"/><path d="M64 27L65 28L64 27z" style="fill:#f5cfcf; stroke:none;"/><path d="M6 28L7 29L6 28M62 28L63 29L62 28z" style="fill:#eea3a2; stroke:none;"/><path d="M7 29L9 31L7 29z" style="fill:#f5cfcf; stroke:none;"/><path d="M8 29L9 30L8 29M60 29L61 30L60 29z" style="fill:#e75b5c; stroke:none;"/><path d="M61 29L62 30L61 29z" style="fill:#f5cfcf; stroke:none;"/><path d="M59 30L60 31L59 30M9 31L10 32L9 31M57 31L58 32L57 31z" style="fill:#eea3a2; stroke:none;"/><path d="M9 32L10 33L9 32z" style="fill:#f5cfcf; stroke:none;"/><path d="M55 32L56 33L55 32z" style="fill:#eea3a2; stroke:none;"/><path d="M56 32L57 33L56 32z" style="fill:#f5cfcf; stroke:none;"/><path d="M53 33L54 34L53 33z" style="fill:#e75b5c; stroke:none;"/><path d="M54 33L55 34L54 33z" style="fill:#f5cfcf; stroke:none;"/><path d="M51 34L52 35L51 34z" style="fill:#e75b5c; stroke:none;"/><path d="M52 34L53 35L52 34M9.33333 35.6667L9.66667 36.3333L9.33333 35.6667z" style="fill:#f5cfcf; stroke:none;"/><path d="M49 35L50 36L49 35z" style="fill:#e75b5c; stroke:none;"/><path d="M50 35L51 36L50 35z" style="fill:#f5cfcf; stroke:none;"/><path d="M48 36L49 37L48 36M9 37L10 38L9 37M46 37L47 38L46 37z" style="fill:#eea3a2; stroke:none;"/><path d="M9 38L10 39L9 38M44 38L45 39L44 38z" style="fill:#e75b5c; stroke:none;"/><path d="M45 38L46 39L45 38z" style="fill:#f5cfcf; stroke:none;"/><path d="M43 39L44 40L43 39z" style="fill:#eea3a2; stroke:none;"/><path d="M8 40L9 41L8 40z" style="fill:#f5cfcf; stroke:none;"/><path d="M42 40L43 41L42 40M8 41L9 42L8 41z" style="fill:#eea3a2; stroke:none;"/><path d="M41 41L42 42L41 41z" style="fill:#f5cfcf; stroke:none;"/><path d="M8 42L9 43L8 42z" style="fill:#e75b5c; stroke:none;"/><path d="M40 42L41 43L40 42z" style="fill:#eea3a2; stroke:none;"/><path d="M7 43L8 44L7 43z" style="fill:#f5cfcf; stroke:none;"/><path d="M7 44L8 45L7 44M39 44L39 48L40 48L39 44z" style="fill:#eea3a2; stroke:none;"/><path d="M7 45L8 46L7 45z" style="fill:#e75b5c; stroke:none;"/><path d="M6 46L7 47L6 46z" style="fill:#f5cfcf; stroke:none;"/><path d="M6 47L7 48L6 47z" style="fill:#eea3a2; stroke:none;"/><path d="M6 48L7 49L6 48M39 48L40 49L39 48z" style="fill:#e75b5c; stroke:none;"/><path d="M40 49L41 50L40 49M5 50L6 51L5 50z" style="fill:#f5cfcf; stroke:none;"/><path d="M17 50L17 51L20 51L17 50z" style="fill:#eea3a2; stroke:none;"/><path d="M20 50L21 51L20 50z" style="fill:#e75b5c; stroke:none;"/><path d="M40 50L41 51L40 50M5 51L6 52L5 51M15 51L16 52L15 51z" style="fill:#eea3a2; stroke:none;"/><path d="M21 51L22 52L21 51z" style="fill:#f5cfcf; stroke:none;"/><path d="M22 51L23 52L22 51M5 52L6 53L5 52z" style="fill:#e75b5c; stroke:none;"/><path d="M14 52L15 53L14 52M23 52L24 53L23 52M41 52L42 53L41 52M13 53L14 54L13 53z" style="fill:#eea3a2; stroke:none;"/><path d="M24 53L25 54L24 53z" style="fill:#f5cfcf; stroke:none;"/><path d="M25 53L26 54L25 53z" style="fill:#e75b5c; stroke:none;"/><path d="M42 53L43 54L42 53M4 54L5 55L4 54z" style="fill:#f5cfcf; stroke:none;"/><path d="M12 54L13 55L12 54z" style="fill:#e75b5c; stroke:none;"/><path d="M26 54L27 55L26 54z" style="fill:#eea3a2; stroke:none;"/><path d="M42 54L43 55L42 54z" style="fill:#e75b5c; stroke:none;"/><path d="M4.33333 55.6667L4.66667 56.3333L4.33333 55.6667M27 55L28 56L27 55M43 55L44 56L43 55M11 56L12 57L11 56z" style="fill:#eea3a2; stroke:none;"/><path d="M28 56L29 57L28 56M44 56L45 57L44 56z" style="fill:#f5cfcf; stroke:none;"/><path d="M4.33333 57.6667L4.66667 58.3333L4.33333 57.6667M10 57L11 58L10 57M30 57L31 58L30 57z" style="fill:#e75b5c; stroke:none;"/><path d="M45 57L46 58L45 57M10 58L11 59L10 58z" style="fill:#f5cfcf; stroke:none;"/><path d="M31 58L32 59L31 58z" style="fill:#eea3a2; stroke:none;"/><path d="M9 59L10 60L9 59z" style="fill:#e75b5c; stroke:none;"/><path d="M32 59L33 60L32 59z" style="fill:#eea3a2; stroke:none;"/><path d="M46 59L47 60L46 59z" style="fill:#e75b5c; stroke:none;"/><path d="M9 60L10 61L9 60z" style="fill:#eea3a2; stroke:none;"/><path d="M33 60L34 61L33 60z" style="fill:#f5cfcf; stroke:none;"/><path d="M47 60L48 61L47 60z" style="fill:#e75b5c; stroke:none;"/><path d="M34 61L35 62L34 61z" style="fill:#f5cfcf; stroke:none;"/><path d="M35 61L36 62L35 61M48 61L49 62L48 61M4 62L5 63L4 62M6 62L7 63L6 62z" style="fill:#e75b5c; stroke:none;"/><path d="M8 62L9 63L8 62M36 62L37 63L36 62M49 62L50 63L49 62M4 63L5 64L4 63z" style="fill:#eea3a2; stroke:none;"/><path d="M7 63L8 64L7 63z" style="fill:#e75b5c; stroke:none;"/><path d="M37 63L38 64L37 63M50 63L51 64L50 63z" style="fill:#eea3a2; stroke:none;"/><path d="M5 64L6 65L5 64z" style="fill:#e75b5c; stroke:none;"/><path d="M7 64L8 65L7 64M38 64L39 65L38 64z" style="fill:#f5cfcf; stroke:none;"/><path d="M39 64L40 65L39 64z" style="fill:#e75b5c; stroke:none;"/><path d="M51 64L52 65L51 64z" style="fill:#f5cfcf; stroke:none;"/><path d="M40 65L41 66L40 65z" style="fill:#eea3a2; stroke:none;"/><path d="M51 65L52 66L51 65z" style="fill:#e75b5c; stroke:none;"/><path d="M41 66L42 67L41 66z" style="fill:#f5cfcf; stroke:none;"/><path d="M42 66L43 67L42 66z" style="fill:#e75b5c; stroke:none;"/><path d="M52 66L53 67L52 66z" style="fill:#eea3a2; stroke:none;"/><path d="M43 67L44 68L43 67z" style="fill:#f5cfcf; stroke:none;"/><path d="M52.3333 67.6667L52.6667 68.3333L52.3333 67.6667z" style="fill:#e75b5c; stroke:none;"/><path d="M45 68L46 69L45 68z" style="fill:#eea3a2; stroke:none;"/><path d="M46 68L47 69L46 68z" style="fill:#e75b5c; stroke:none;"/><path d="M47 69L48 70L47 69z" style="fill:#f5cfcf; stroke:none;"/><path d="M48 69L49 70L48 69z" style="fill:#eea3a2; stroke:none;"/><path d="M49.6667 69.3333L50.3333 69.6667L49.6667 69.3333z" style="fill:#e75b5c; stroke:none;"/><path d="M51 69L52 70L51 69z" style="fill:#eea3a2; stroke:none;"/></svg>