<svg xmlns="http://www.w3.org/2000/svg" id="Layer_1" width="70" height="70" x="0" y="0" enable-background="new 0 0 70 70" version="1.1" viewBox="0 0 70 70" xml:space="preserve"><g><g><path d="M13.86,64.82v1.222h1.736v0.514H13.86v2.251h-0.643v-4.63h3.087v0.514H13.86V64.82z"/><path d="M16.818,68.872v-4.63h0.643v4.051h2.379v0.514h-3.022L16.818,68.872L16.818,68.872z"/><path d="M21.512,67.457v1.35h-0.643v-1.35l-1.608-3.087l0.579-0.257l1.35,2.701l1.35-2.701l0.579,0.257L21.512,67.457z"/></g><g><path d="M28.264,69l-0.322-1.029h-1.929c-0.064,0.129-0.129,0.322-0.193,0.514s-0.129,0.386-0.129,0.514l-0.836-0.322l1.608-4.502 h0.965l1.608,4.502L28.264,69z M26.914,65.27c-0.129,0.322-0.257,0.643-0.322,0.965c-0.129,0.322-0.193,0.643-0.322,0.965h1.35 L26.914,65.27z"/><path d="M33.924,68.872h-1.093l-0.772-2.894c-0.064,0.257-0.129,0.45-0.193,0.707s-0.129,0.514-0.193,0.772 s-0.129,0.514-0.193,0.772c-0.064,0.257-0.129,0.45-0.193,0.707h-1.093l-1.286-4.502l0.836-0.257l1.029,3.666 c0.129-0.579,0.322-1.093,0.45-1.672c0.129-0.579,0.322-1.093,0.45-1.672h0.836l0.9,3.344c0.193-0.579,0.322-1.222,0.514-1.865 c0.193-0.643,0.322-1.222,0.514-1.801l0.772,0.257L33.924,68.872z"/><path d="M35.853,68.872v-4.63h3.151v0.836h-2.251v0.9h1.543v0.772h-1.543v1.35h2.251v0.772H35.853z"/><path d="M42.798,68.036c-0.064,0.193-0.129,0.322-0.322,0.45c-0.129,0.129-0.322,0.257-0.514,0.322s-0.514,0.129-0.836,0.129 c-0.129,0-0.322,0-0.45-0.064c-0.129-0.064-0.322-0.064-0.45-0.129s-0.322-0.129-0.45-0.257c-0.129-0.064-0.257-0.193-0.386-0.322 l0.322-0.707c0.064,0.129,0.193,0.193,0.322,0.257s0.257,0.129,0.386,0.193s0.257,0.129,0.386,0.129 c0.129,0.064,0.193,0.064,0.322,0.064c0.193,0,0.322,0,0.45-0.064c0.129-0.064,0.193-0.064,0.257-0.193 c0.064-0.064,0.129-0.129,0.129-0.257c0-0.129,0-0.193,0-0.322c0-0.064,0-0.129-0.064-0.193s-0.064-0.064-0.129-0.129 s-0.129-0.064-0.129-0.064c-0.193-0.064-0.322-0.064-0.514-0.129c-0.193-0.064-0.386-0.064-0.514-0.129 c-0.257-0.064-0.514-0.129-0.643-0.257c-0.129-0.129-0.257-0.257-0.322-0.386c-0.064-0.129-0.129-0.257-0.129-0.386 s0-0.193,0-0.322c0-0.322,0.064-0.514,0.129-0.707c0.129-0.193,0.193-0.322,0.386-0.386c0.129-0.064,0.257-0.129,0.386-0.129 s0.257,0,0.322,0c0.257,0,0.514,0,0.772,0.064c0.257,0.064,0.45,0.064,0.643,0.129c0.193,0.064,0.322,0.129,0.45,0.193 c0.129,0.064,0.193,0.064,0.257,0.129c0,0.064-0.064,0.129-0.129,0.257c-0.064,0.129-0.129,0.257-0.193,0.45 c-0.193-0.064-0.322-0.129-0.514-0.193c-0.129-0.064-0.322-0.064-0.45-0.129c-0.129,0-0.257-0.064-0.386-0.064 c-0.129,0-0.193,0-0.193,0c-0.257,0-0.386,0.064-0.45,0.129c-0.064,0.129-0.129,0.257-0.129,0.514c0,0.064,0,0.129,0.064,0.129 c0,0.064,0.064,0.064,0.129,0.129c0.064,0,0.064,0.064,0.129,0.064s0.064,0,0.064,0c0.193,0.064,0.322,0.064,0.514,0.129 c0.193,0.064,0.386,0.064,0.514,0.129c0.257,0.064,0.514,0.193,0.643,0.257c0.129,0.129,0.257,0.257,0.322,0.386 c0.064,0.129,0.129,0.257,0.129,0.322c0,0.064,0,0.129,0,0.129v0.257C42.862,67.65,42.862,67.843,42.798,68.036z"/><path d="M46.785,68.293c-0.064,0.064-0.129,0.129-0.193,0.257c-0.064,0.064-0.193,0.129-0.322,0.193s-0.257,0.129-0.45,0.129 c-0.193,0.064-0.386,0.064-0.579,0.064c-0.322,0-0.514,0-0.772-0.064c-0.193-0.064-0.386-0.129-0.514-0.193 c-0.129-0.064-0.257-0.193-0.322-0.257c-0.064-0.129-0.129-0.193-0.129-0.257c-0.064-0.064-0.064-0.193-0.064-0.257 s0-0.129,0-0.129v-2.444c0-0.064,0-0.064,0-0.129s0.064-0.129,0.064-0.257c0.064-0.064,0.064-0.193,0.193-0.257 c0.064-0.129,0.193-0.193,0.322-0.257s0.322-0.129,0.514-0.193c0.193-0.064,0.45-0.064,0.707-0.064c0.322,0,0.514,0,0.772,0.064 c0.193,0.064,0.386,0.129,0.514,0.193c0.129,0.064,0.257,0.193,0.322,0.257c0.064,0.129,0.129,0.193,0.129,0.257 c0.064,0.064,0.064,0.193,0.064,0.257s0,0.129,0,0.129v2.379C46.978,67.907,46.914,68.164,46.785,68.293z M46.142,65.463 c0-0.064,0-0.064,0-0.129c0-0.064-0.064-0.129-0.129-0.193c-0.064-0.064-0.129-0.129-0.257-0.193s-0.257-0.064-0.514-0.064 c-0.193,0-0.386,0-0.514,0.064c-0.129,0.064-0.193,0.129-0.257,0.193s-0.129,0.129-0.129,0.193s0,0.129,0,0.129v2.058 c0,0.064,0,0.129,0,0.129c0,0.064,0.064,0.129,0.129,0.193c0.064,0.064,0.129,0.129,0.257,0.129 c0.129,0.064,0.257,0.064,0.514,0.064c0.193,0,0.386,0,0.514-0.064s0.193-0.064,0.257-0.129c0.064-0.064,0.129-0.129,0.129-0.193 s0-0.129,0-0.129V65.463z"/><path d="M52.251,65.142v3.73h-0.9v-2.637c-0.193,0.322-0.45,0.579-0.643,0.965c-0.193,0.322-0.45,0.643-0.643,0.965L48.779,66.3 v2.637h-0.9v-3.73l-0.064-0.772l0.643-0.257l1.608,2.572c0.257-0.45,0.514-0.836,0.836-1.286c0.257-0.45,0.514-0.9,0.836-1.286 l0.643,0.257L52.251,65.142z"/><path d="M53.216,68.872v-4.63h3.151v0.836h-2.251v0.9h1.543v0.772h-1.543v1.35h2.251v0.772H53.216z"/></g><g><path fill="#FFB819" d="M38.361,52.73h2.122c0,0,0-2.186-2.315-2.251c-2.315,0-3.151,1.286-3.151,2.444 c0.064,1.158,1.35,1.608,1.736,1.736c0.386,0.129,1.801,0.579,1.801,1.029c0,0.514-1.029,0.836-1.415-0.064h-2.186 c0,0,0.257,2.379,2.958,2.315s3.215-2.379,2.701-3.408c-0.579-1.029-2.958-1.415-3.151-1.608s-0.129-0.643,0.064-0.707 S38.361,52.216,38.361,52.73"/><path fill="none" stroke="#000" stroke-linecap="round" stroke-linejoin="round" stroke-miterlimit="10" stroke-width=".356" d="M38.361,52.73h2.122c0,0,0-2.186-2.315-2.251c-2.315,0-3.151,1.286-3.151,2.444c0.064,1.158,1.35,1.608,1.736,1.736 c0.386,0.129,1.801,0.579,1.801,1.029c0,0.514-1.029,0.836-1.415-0.064h-2.186c0,0,0.257,2.379,2.958,2.315 s3.215-2.379,2.701-3.408c-0.579-1.029-2.958-1.415-3.151-1.608s-0.129-0.643,0.064-0.707S38.361,52.216,38.361,52.73z"/><path fill="#FFB819" d="M51.801,55.946c-0.9,0-1.608-0.772-1.608-1.736c0-0.965,0.707-1.736,1.608-1.736 c0.9,0,1.608,0.772,1.608,1.736S52.701,55.946,51.801,55.946 M51.737,50.48c-2.122,0-3.858,1.736-3.858,3.858 s1.736,3.858,3.858,3.858c2.122,0,3.858-1.736,3.858-3.858S53.859,50.48,51.737,50.48"/><path fill="none" stroke="#000" stroke-linecap="round" stroke-linejoin="round" stroke-miterlimit="10" stroke-width=".356" d="M51.801,55.946c-0.9,0-1.608-0.772-1.608-1.736c0-0.965,0.707-1.736,1.608-1.736c0.9,0,1.608,0.772,1.608,1.736 S52.701,55.946,51.801,55.946z M51.737,50.48c-2.122,0-3.858,1.736-3.858,3.858s1.736,3.858,3.858,3.858 c2.122,0,3.858-1.736,3.858-3.858S53.859,50.48,51.737,50.48z"/><path fill="#FFB819" d="M59.518,55.946c-0.9,0-1.608-0.772-1.608-1.736c0-0.965,0.707-1.736,1.608-1.736 c0.9,0,1.608,0.772,1.608,1.736S60.418,55.946,59.518,55.946 M59.454,50.48c-2.122,0-3.858,1.736-3.858,3.858 s1.736,3.858,3.858,3.858c2.122,0,3.858-1.736,3.858-3.858C63.312,52.216,61.576,50.48,59.454,50.48"/><path fill="none" stroke="#000" stroke-linecap="round" stroke-linejoin="round" stroke-miterlimit="10" stroke-width=".356" d="M59.518,55.946c-0.9,0-1.608-0.772-1.608-1.736c0-0.965,0.707-1.736,1.608-1.736c0.9,0,1.608,0.772,1.608,1.736 S60.418,55.946,59.518,55.946z M59.454,50.48c-2.122,0-3.858,1.736-3.858,3.858s1.736,3.858,3.858,3.858 c2.122,0,3.858-1.736,3.858-3.858C63.312,52.216,61.576,50.48,59.454,50.48z"/><path fill="#FFB819" d="M45.885,55.11c-0.257,0.514-0.836,0.9-1.415,0.9c-0.9,0-1.608-0.772-1.608-1.736 c0-0.965,0.707-1.736,1.608-1.736c0.579,0,1.093,0.322,1.415,0.836H48.2c-0.386-1.672-1.929-2.894-3.73-2.894 c-2.122,0-3.858,1.736-3.858,3.858s1.736,3.858,3.858,3.858c1.865,0,3.408-1.286,3.73-3.022h-2.315V55.11z"/><path fill="none" stroke="#000" stroke-linecap="round" stroke-linejoin="round" stroke-miterlimit="10" stroke-width=".356" d="M45.885,55.11c-0.257,0.514-0.836,0.9-1.415,0.9c-0.9,0-1.608-0.772-1.608-1.736c0-0.965,0.707-1.736,1.608-1.736 c0.579,0,1.093,0.322,1.415,0.836H48.2c-0.386-1.672-1.929-2.894-3.73-2.894c-2.122,0-3.858,1.736-3.858,3.858 s1.736,3.858,3.858,3.858c1.865,0,3.408-1.286,3.73-3.022h-2.315V55.11z"/></g><polygon fill="#FFB819" points="66.978 56.203 66.077 52.345 67.878 51.959 67.364 50.029 65.627 50.48 65.177 48.422 63.312 49.579 63.634 50.994 61.897 51.38 63.119 53.052 64.084 52.859 65.37 58.004 67.749 57.425 67.685 56.01"/><polygon fill="none" stroke="#000" stroke-linecap="round" stroke-linejoin="round" stroke-miterlimit="10" stroke-width=".356" points="66.978 56.203 66.077 52.345 67.878 51.959 67.364 50.029 65.627 50.48 65.177 48.422 63.312 49.579 63.634 50.994 61.897 51.38 63.119 53.052 64.084 52.859 65.37 58.004 67.749 57.425 67.685 56.01"/><g><path d="M18.747,55.817c-0.386,0.129-0.707,0.193-0.965,0.193c-0.579,0-0.836-0.193-0.836-0.643c0-0.064,0.064-0.193,0.129-0.579 c0.257-0.064,0.322-0.064,0.257-0.064c0.064,0,0.386-0.064,0.579,0c0.772,0.129,1.158,0.193,1.479,0.45 C19.326,55.303,19.068,55.689,18.747,55.817 M21.126,53.181c-1.158-0.322-2.122-0.45-3.022-0.45c-0.322,0-0.9,0.193-1.801,0.579 c-0.9,0.386-1.286,0.643-1.286,0.772c0,0.064,0.064,0.129,0.064,0.193c0.064,0.064,0.064,0.193,0.064,0.193 c0,0.257-0.064,0.643-0.257,1.158s-0.257,0.9-0.257,1.158c0,0.514,0.257,0.9,0.836,1.222l0.322,0.064 c1.801,0,3.537-0.064,4.309-0.514c2.251-1.479,2.894-2.701,2.894-3.28C22.991,53.824,22.412,53.502,21.126,53.181"/><path d="M13.281,55.881c0,0.322-0.129,0.965-0.322,1.994c-0.45,0.064-0.9,0.064-1.35,0.129c-0.514,0.129-1.029,0.129-1.415,0.129 c-0.836,0-1.35-0.193-1.479-0.579c-0.064-0.386-0.129-1.479-0.193-1.865c-0.193-0.386-1.222-0.322-1.929-0.064 c-0.386,0.129-0.322,0.579-0.836,1.093c-0.45,0.514-0.965,1.158-1.608,1.158c-1.286,0-1.929,0.129-2.186-0.129 c0-0.322,0-1.35,0.257-1.994c0.257-0.643,0.45-1.093,0.45-1.415c0-0.064-0.064-0.257-0.064-0.45 c-0.064-0.193-0.064-0.322-0.064-0.45c0-0.579,0.707-0.9,2.122-0.9c0.836,0,1.35,0.064,1.608,0.257 c0.193,0.129,0.257,0.322,0.322,0.643c0.064,0.322-0.129,0.707,0.064,0.9c0.193,0,0.514-0.193,0.514-0.193 c0.257-0.193,0.579-0.514,1.286-0.643c0.707-0.064,1.608-0.386,1.994-0.386c0.836,0,1.479,0.45,2.251,0.643 C13.024,54.274,13.281,55.303,13.281,55.881"/><path d="M35.081,51.251c-0.257,0.257-1.029,0.965-2.379,1.929c-1.222,0.965-1.865,1.479-1.929,1.672 c0.386,0.322,0.965,0.707,1.865,1.029c0.772,0.322,1.479,0.579,2.251,0.9c0,0.193-0.45,0.45-1.415,0.643 c-0.772,0.193-1.479,0.322-1.994,0.322c-0.322-0.129-1.029-0.322-1.994-0.514c-0.707-0.129-1.479-0.322-2.186-0.45 c-0.322,0-0.579,0.129-0.772,0.386c-0.322,0.386-0.45,0.643-0.514,0.707c-0.257,0.257-0.707,0.322-1.222,0.322h-0.386 c-0.193-0.257-0.322-0.45-0.322-0.579s0.064-0.322,0.129-0.579c0.129-0.257,0.129-0.45,0.129-0.579s-0.064-0.322-0.129-0.643 c-0.129-0.257-0.129-0.514-0.129-0.643c0-0.257,0.064-0.514,0.257-0.772c0.514-0.129,0.965-0.579,1.479-1.415 c0.386-0.707,0.707-1.415,1.093-2.122c0.386-0.772,0.707-1.158,1.029-1.222c0.193,0,0.514,0,0.9-0.064 c0.129,0,0.257-0.129,0.514-0.322C29.549,49.064,29.806,49,30.128,49h1.479l0.064,0.129c-0.064,0.193-0.643,0.9-1.736,2.251 c-0.772,0.965-1.093,1.736-1.093,2.251c0,0,0.064,0.129,0.129,0.322c0.129-0.064,0.9-0.579,2.444-1.543 c1.029-0.643,1.929-1.158,2.701-1.415C34.438,51.058,34.824,51.123,35.081,51.251"/><path fill="#FFB819" d="M54.631,22.892c-0.579,11.511-10.354,20.386-21.865,19.807C21.255,42.12,12.38,32.345,12.959,20.834 S23.313,0.448,34.824,1.027S55.209,11.381,54.631,22.892"/><ellipse cx="33.783" cy="21.863" fill="none" stroke="#000" stroke-miterlimit="10" stroke-width=".977" rx="20.836" ry="20.836"/><path d="M33.28,32.795c0,0-6.945,7.717-23.858-0.772c0,0,7.524,5.723,16.077,4.887c0,0-0.322,0.772-2.83,0.772 c-2.572,0,5.273,0.965,8.489-1.35c0,0-1.286,1.543-3.408,1.994c-2.122,0.386,5.209,0.579,6.881-3.344L33.28,32.795z"/><path fill="none" stroke="#000" stroke-linecap="round" stroke-linejoin="round" stroke-miterlimit="10" stroke-width="1.307" d="M33.28,32.795c0,0-6.945,7.717-23.858-0.772c0,0,7.524,5.723,16.077,4.887c0,0-0.322,0.772-2.83,0.772 c-2.572,0,5.273,0.965,8.489-1.35c0,0-1.286,1.543-3.408,1.994c-2.122,0.386,5.209,0.579,6.881-3.344L33.28,32.795z"/><path fill="#FFF" d="M33.28,32.795c0,0-6.945,7.717-23.858-0.772c0,0,7.524,5.723,16.077,4.887c0,0-0.322,0.772-2.83,0.772 c-2.572,0,5.273,0.965,8.489-1.35c0,0-1.286,1.543-3.408,1.994c-2.122,0.386,5.209,0.579,6.881-3.344L33.28,32.795z"/><path fill="#FFCB05" d="M33.859,22.634c0,0-0.129-0.064-0.257-0.193C33.666,22.57,33.731,22.57,33.859,22.634 M33.988,11.895 c0,0-3.923,5.916,2.765,9.71c0,0-3.73-0.965-5.53-8.167c0,0-1.415,5.595,1.672,8.489c-0.965-0.836-2.379-2.508-3.28-5.273 c0,0-0.257,5.852,3.087,8.038c-0.836-0.257-1.801-0.965-2.701-2.637c0,0,1.093,4.759,4.566,4.759s7.01-3.087,7.01-3.087 l0.643-2.637C42.284,21.091,34.116,19.869,33.988,11.895"/><path fill="none" stroke="#000" stroke-linecap="round" stroke-linejoin="round" stroke-miterlimit="10" stroke-width="1.075" d="M33.859,22.634c0,0-0.129-0.064-0.257-0.193C33.666,22.57,33.731,22.57,33.859,22.634z M33.988,11.895c0,0-3.923,5.916,2.765,9.71 c0,0-3.73-0.965-5.53-8.167c0,0-1.415,5.595,1.672,8.489c-0.965-0.836-2.379-2.508-3.28-5.273c0,0-0.257,5.852,3.087,8.038 c-0.836-0.257-1.801-0.965-2.701-2.637c0,0,1.093,4.759,4.566,4.759s7.01-3.087,7.01-3.087l0.643-2.637 C42.284,21.091,34.116,19.869,33.988,11.895z"/><path fill="#FFF" d="M33.859,22.634c0,0-0.129-0.064-0.257-0.193C33.666,22.57,33.731,22.57,33.859,22.634 M33.988,11.895 c0,0-3.923,5.916,2.765,9.71c0,0-3.73-0.965-5.53-8.167c0,0-1.415,5.595,1.672,8.489c-0.965-0.836-2.379-2.508-3.28-5.273 c0,0-0.257,5.852,3.087,8.038c-0.836-0.257-1.801-0.965-2.701-2.637c0,0,1.093,4.759,4.566,4.759s7.01-3.087,7.01-3.087 l0.643-2.637C42.284,21.091,34.116,19.869,33.988,11.895"/><path fill="#FFCB05" d="M44.984,27.972c1.801,3.923-0.129,8.746-4.373,10.675s-9.132,0.322-10.932-3.601 c-1.801-3.923,0.129-8.746,4.373-10.675C38.296,22.377,43.184,24.049,44.984,27.972"/><ellipse cx="37.401" cy="31.472" fill="none" stroke="#000" stroke-miterlimit="10" stroke-width="1.43" rx="8.425" ry="7.846" transform="matrix(-0.9077 0.4197 -0.4197 -0.9077 84.557 44.3424)"/><path fill="#E6E7E8" d="M44.984,27.972c1.801,3.923-0.129,8.746-4.373,10.675s-9.132,0.322-10.932-3.601 c-1.801-3.923,0.129-8.746,4.373-10.675C38.296,22.377,43.184,24.049,44.984,27.972"/><path fill="#FFF" d="M40.547,27.715c1.286,2.701-0.064,6.045-3.022,7.395c-2.894,1.35-6.302,0.257-7.524-2.508 c-1.286-2.701,0.064-6.045,3.022-7.395C35.917,23.856,39.261,24.949,40.547,27.715"/><path fill="#FFF" d="M43.055,7.329c0,0-1.672-3.28-7.395-2.637c0,0,1.994,0.707,2.83,1.801c0,0-4.051-1.736-9.711,0.514 c0,0,2.765,0.322,3.344,1.222c0,0-2.958-0.707-7.717,2.444c0,0,6.495-1.479,9.325,0.322c0,0-1.608-0.579-3.537,0.772 c0,0,3.601-0.064,4.18,1.479"/><path fill="none" stroke="#000" stroke-miterlimit="10" stroke-width="1.218" d="M43.055,7.329c0,0-1.672-3.28-7.395-2.637 c0,0,1.994,0.707,2.83,1.801c0,0-4.051-1.736-9.711,0.514c0,0,2.765,0.322,3.344,1.222c0,0-2.958-0.707-7.717,2.444 c0,0,6.495-1.479,9.325,0.322c0,0-1.608-0.579-3.537,0.772c0,0,3.601-0.064,4.18,1.479"/><path fill="#FFCB05" d="M55.981,12.795c2.122,5.273-1.093,11.575-7.202,14.019s-12.797,0.193-14.919-5.08 c-2.122-5.273,1.093-11.575,7.202-14.019C47.171,5.207,53.859,7.522,55.981,12.795"/><ellipse cx="44.921" cy="17.22" fill="none" stroke="#000" stroke-miterlimit="10" stroke-width="1.218" rx="11.962" ry="10.29" transform="matrix(-0.9271 0.3749 -0.3749 -0.9271 93.0222 16.3437)"/><path fill="#E6E7E8" d="M55.981,12.795c2.122,5.273-1.093,11.575-7.202,14.019s-12.797,0.193-14.919-5.08 c-2.122-5.273,1.093-11.575,7.202-14.019C47.171,5.207,53.859,7.522,55.981,12.795"/><path fill="#FFF" d="M52.637,11.959c1.801,4.502-0.9,9.839-6.109,11.897c-5.209,2.122-10.868,0.193-12.669-4.309 c-1.801-4.502,0.9-9.839,6.109-11.897C45.113,5.593,50.836,7.522,52.637,11.959"/><path fill="#FFF" d="M43.055,7.329c0,0-1.672-3.28-7.395-2.637c0,0,1.994,0.707,2.83,1.801c0,0-4.051-1.736-9.711,0.514 c0,0,2.765,0.322,3.344,1.222c0,0-2.958-0.707-7.717,2.444c0,0,6.495-1.479,9.325,0.322c0,0-1.608-0.579-3.537,0.772 c0,0,3.601-0.064,4.18,1.479"/><path d="M35.467,11.381c0,0-1.994,2.572-2.251,6.688l-0.45-0.836C32.766,17.168,32.766,13.76,35.467,11.381"/><path d="M46.399,6.686c0,0-2.637-0.193-5.916,1.479c0,0,1.286-1.158,2.83-1.736L46.399,6.686z"/><path fill="#FFF" d="M33.088,26.236c0,0-16.463-9.003-14.919-23.665c0,0-5.338,2.765-2.701,11.318 c0,0-1.929-6.045-1.415-10.354c0,0-4.887,5.723-1.286,12.604c0,0-2.508-3.858-2.444-8.553c0,0-3.794,9.646,2.83,12.862 c0,0-3.473-0.386-4.566-5.338c0,0-2.765,13.312,21.8,13.826"/><path fill="none" stroke="#000" stroke-linecap="round" stroke-linejoin="round" stroke-miterlimit="10" stroke-width="1.535" d="M33.088,26.236c0,0-16.463-9.003-14.919-23.665c0,0-5.338,2.765-2.701,11.318c0,0-1.929-6.045-1.415-10.354 c0,0-4.887,5.723-1.286,12.604c0,0-2.508-3.858-2.444-8.553c0,0-3.794,9.646,2.83,12.862c0,0-3.473-0.386-4.566-5.338 c0,0-2.765,13.312,21.8,13.826"/><path fill="#FFF" d="M34.438,27.007c0,0-17.813-9.839-16.334-24.501c0,0-5.338,2.765-2.701,11.318 c0,0-1.929-6.045-1.415-10.354c0,0-4.887,5.723-1.286,12.604c0,0-2.508-3.858-2.444-8.553c0,0-3.794,9.646,2.83,12.862 c0,0-3.473-0.386-4.566-5.338c0,0-2.958,13.44,23.279,13.955"/><path fill="#E6E7E8" d="M18.104,2.57c0,0-3.858,1.994-3.408,7.846c1.093,11.897,14.662,14.919,18.135,15.691 C28.522,23.277,16.882,14.532,18.104,2.57"/><path fill="#FFF" d="M49.615,15.303c0,0-2.379-5.402-6.688-4.502c-4.309,0.836-2.315,7.524,4.18,8.81 C47.107,19.612,47.621,16.718,49.615,15.303"/><path fill="none" stroke="#000" stroke-linecap="round" stroke-linejoin="round" stroke-miterlimit="10" stroke-width=".551" d="M49.615,15.303c0,0-2.379-5.402-6.688-4.502c-4.309,0.836-2.315,7.524,4.18,8.81C47.107,19.612,47.621,16.718,49.615,15.303z"/><path d="M49.615,15.368c0-0.064,0-0.064,0-0.129c-0.129-0.257-0.514-0.965-1.093-1.736c-0.45-0.322-1.029-0.514-1.608-0.514 c-1.543,0-2.765,1.222-2.765,2.765s1.222,2.765,2.765,2.765c0.193,0,0.386,0,0.579-0.064 C47.814,17.425,48.457,16.139,49.615,15.368"/><path fill="#FFF" d="M46.013,15.818c0,0.322-0.257,0.643-0.643,0.643c-0.322,0-0.643-0.257-0.643-0.643 c0-0.322,0.257-0.643,0.643-0.643S46.013,15.432,46.013,15.818"/><path fill="#FFF" d="M54.438,13.438c0,0-0.193-3.666-3.73-4.823c-3.73-1.222-3.087,4.051,0.45,6.366 C51.094,14.982,51.737,13.438,54.438,13.438"/><path fill="none" stroke="#000" stroke-linecap="round" stroke-linejoin="round" stroke-miterlimit="10" stroke-width=".455" d="M54.438,13.438c0,0-0.193-3.666-3.73-4.823c-3.73-1.222-3.087,4.051,0.45,6.366C51.094,14.982,51.737,13.438,54.438,13.438z"/><path d="M52.187,11.059c-1.029-0.514-2.251-0.064-2.765,0.965c-0.193,0.386-0.257,0.772-0.193,1.158 c0.45,0.707,1.029,1.286,1.801,1.801h0.064c0.064-0.193,0.579-1.093,2.122-1.415C53.537,12.602,53.152,11.509,52.187,11.059"/><path fill="#FFF" d="M50.965,12.667c-0.129,0.257-0.386,0.322-0.643,0.193S50,12.474,50.129,12.217s0.386-0.322,0.643-0.193 C50.965,12.152,51.029,12.409,50.965,12.667"/><path fill="#FFB819" d="M54.566,19.741c0,0,1.222,1.158,3.087,1.415c0,0,0.45,0.064,0.193,0.579 c-0.322,0.514-3.794,4.566-9.453,1.286s-2.058-5.08-0.707-5.016c0,0,0.579-3.473,2.379-4.051c1.801-0.579,9.582-0.322,9.968,0.579 c0.386,0.965-4.566,7.46-11.575,5.852"/><path fill="none" stroke="#000" stroke-linecap="round" stroke-linejoin="round" stroke-miterlimit="10" stroke-width=".506" d="M54.566,19.741c0,0,1.222,1.158,3.087,1.415c0,0,0.45,0.064,0.193,0.579c-0.322,0.514-3.794,4.566-9.453,1.286 s-2.058-5.08-0.707-5.016c0,0,0.579-3.473,2.379-4.051c1.801-0.579,9.582-0.322,9.968,0.579c0.386,0.965-4.566,7.46-11.575,5.852"/><path fill="#F42534" d="M53.087,20.255c0,0-2.058,0.707-4.952,0.129c0,0,1.929,2.251,5.723,2.251 C53.923,22.57,53.859,21.798,53.087,20.255"/><path fill="none" stroke="#000" stroke-linecap="round" stroke-linejoin="round" stroke-miterlimit="10" stroke-width=".506" d="M54.566,19.741c0,0,1.222,1.158,3.087,1.415c0,0,0.45,0.064,0.193,0.579c-0.322,0.514-3.794,4.566-9.453,1.286 s-2.058-5.08-0.707-5.016c0,0,0.579-3.473,2.379-4.051c1.801-0.579,9.389-0.193,9.968,0.579c0.579,0.772-4.566,7.46-11.575,5.852"/><path fill="#FFCB05" d="M48.007,21.091c0-0.772,0.45-1.35,0.45-1.35"/><path fill="none" stroke="#000" stroke-linecap="round" stroke-linejoin="round" stroke-miterlimit="10" stroke-width=".506" d="M48.007,21.091c0-0.772,0.45-1.35,0.45-1.35"/><path d="M48.328,20.448c0,0,4.244,3.408,7.91,1.415c0,0,0.257-0.129,0.129,0.064c-0.322,0.322-3.923,2.186-8.167-1.029 C48.2,20.898,47.814,20.512,48.328,20.448"/><path fill="#FFCB05" d="M53.087,20.384c0,0,0.514,0.45,0.836,2.122"/><path fill="none" stroke="#000" stroke-linecap="round" stroke-linejoin="round" stroke-miterlimit="10" stroke-width=".338" d="M53.087,20.384c0,0,0.514,0.45,0.836,2.122"/><path d="M50.901,15.11c-0.129-0.064-0.579-0.129-0.772,0s-0.257,0.386,0,0.386c0.257-0.064,0.386-0.129,0.514-0.193 C50.836,15.303,51.029,15.175,50.901,15.11"/></g></g></svg>