<svg xmlns="http://www.w3.org/2000/svg" version="1.1" id="Layer_1" x="0px" y="0px" width="70" height="70" viewBox="0 0 70 70" xml:space="preserve" style="enable-background:new 0 0 70 70;"><style type="text/css">
	.st0{fill:#00BCB4;}
	.st1{fill:#FFFFFF;}
</style><rect width="70" height="70" class="st0"/><g><g><path d="M61.5,33.9L61.5,33.9c0,2.1-1.6,3.5-4.1,3.5c-1.5,0-3-0.5-4.2-1.3c-0.3-0.2-0.4-0.5-0.4-0.9    c0-0.6,0.5-1.1,1.1-1.1c0.3,0,0.5,0.1,0.7,0.2c0.9,0.7,1.9,1,2.9,1c1,0,1.7-0.4,1.7-1.1v0c0-0.7-0.5-1-2.3-1.5    c-2.1-0.5-3.7-1.1-3.7-3.4v0c0-2,1.6-3.3,3.9-3.3c1.3,0,2.5,0.3,3.5,1c0.3,0.1,0.5,0.5,0.5,0.9c0,0.6-0.5,1.1-1.1,1.1    c-0.2,0-0.4-0.1-0.6-0.2C58.5,28.2,57.7,28,57,28c-0.9,0-1.5,0.4-1.5,1v0c0,0.8,0.5,1,2.4,1.5C60.1,31.1,61.5,31.9,61.5,33.9     M34.3,25.9c-3,0-5.2,2.5-5.2,5.7v4.5c0,0.7,0.5,1.2,1.2,1.2c0.7,0,1.2-0.5,1.2-1.2v-4.5c0-2,1.2-3.3,2.8-3.3    c1.7,0,2.9,1.4,2.9,3.3v4.5c0,0.7,0.5,1.2,1.2,1.2c0.7,0,1.2-0.5,1.2-1.2v-4.5C39.6,28.4,37.3,25.9,34.3,25.9 M28.3,26    c-0.6-0.3-1.3-0.1-1.6,0.5l-3.1,6.3l-3.1-6.3c-0.3-0.6-1-0.8-1.6-0.5c-0.6,0.3-0.8,1-0.5,1.6l3.9,7.9l-1.7,3.4    c-0.3,0.6,0,1.3,0.5,1.6c0.2,0.1,0.3,0.1,0.5,0.1c0.4,0,0.9-0.2,1.1-0.7l6.1-12.4C29.1,27,28.8,26.3,28.3,26 M10.3,28.6    c-0.7,0-1.2,0.5-1.2,1.2c0,0.7,0.5,1.2,1.2,1.2c0.7,0,1.2-0.5,1.2-1.2C11.5,29.1,11,28.6,10.3,28.6 M12.1,23.2c-0.1,0-0.2,0-0.3,0    c-0.2,0-0.4,0-0.6,0c-3.1,0-5.1,2-5.2,5.3c0,0.1,0,0.1,0,0.2v7.5c0,0.7,0.5,1.2,1.2,1.2c0.7,0,1.2-0.5,1.2-1.2v-7.2    c0-3,1.6-3.3,2.9-3.3c0.1,0,0.3,0,0.4,0c0.1,0,0.2,0,0.4,0c0.7,0,1.2-0.5,1.2-1.2C13.3,23.8,12.8,23.2,12.1,23.2 M15.7,23.2    c-0.7,0-1.2,0.5-1.2,1.2v11.7c0,0.7,0.5,1.2,1.2,1.2c0.7,0,1.2-0.5,1.2-1.2V24.4C16.8,23.7,16.3,23.2,15.7,23.2 M46.2,25.9    c-3.1,0-5.4,2.4-5.5,5.6c0,0,0,0,0,0v0.1c0,0,0,0,0,0c0.1,3.2,2.4,5.6,5.5,5.6c0.5,0,0.9,0,1.1-0.1c0.6-0.1,1.1-0.7,0.9-1.4    c-0.1-0.6-0.7-1.1-1.4-0.9c0,0-0.3,0-0.7,0c-1.8,0-3.1-1.4-3.1-3.3c0-1.9,1.3-3.3,3.1-3.3c1.8,0,3.1,1.4,3.1,3.3v4.5    c0,0.7,0.5,1.2,1.2,1.2c0.7,0,1.2-0.5,1.2-1.2v-4.5C51.7,28.4,49.3,25.9,46.2,25.9 M62.9,28.2c0.6,0,1.1-0.5,1.1-1.1v0    c0-0.6-0.5-1.1-1.1-1.1c-0.6,0-1.1,0.5-1.1,1.1v0C61.8,27.8,62.3,28.2,62.9,28.2 M62.9,28.1c-0.5,0-0.9-0.4-0.9-0.9v0    c0-0.5,0.4-0.9,0.9-0.9c0.5,0,0.9,0.4,0.9,0.9v0C63.8,27.7,63.4,28.1,62.9,28.1 M62.4,27.6c0,0.1,0.1,0.1,0.1,0.1    c0.1,0,0.1-0.1,0.1-0.1v-0.3h0.2l0.3,0.3c0,0,0.1,0.1,0.1,0.1c0.1,0,0.1-0.1,0.1-0.1c0,0,0-0.1,0-0.1l-0.2-0.2    c0.1-0.1,0.2-0.2,0.2-0.3v0c0-0.1,0-0.2-0.1-0.2c-0.1-0.1-0.2-0.1-0.3-0.1h-0.4c-0.1,0-0.1,0.1-0.1,0.1V27.6z M62.7,27.1v-0.3h0.2    c0.1,0,0.2,0.1,0.2,0.2v0c0,0.1-0.1,0.2-0.2,0.2H62.7z" class="st1"/><path d="M49.4,42.3c0-0.2-0.2-0.4-0.4-0.4c-0.2,0-0.4,0.2-0.4,0.4v3.4h-1.5c-0.4,0-1.4,0-1.4-1.7v-1.7    c0-0.2-0.2-0.4-0.4-0.4c-0.2,0-0.4,0.2-0.4,0.4V44c0,1.5,0.8,2.4,2.2,2.4H49c0.2,0,0.4-0.2,0.4-0.4v0c0,0,0,0,0,0V42.3z" class="st1"/><path d="M50.8,44.8v-4.3c0-0.2-0.2-0.4-0.4-0.4c-0.2,0-0.4,0.2-0.4,0.4v4.3c0,0.2,0.2,0.4,0.4,0.4    C50.6,45.2,50.8,45,50.8,44.8" class="st1"/><path d="M47.3,40.8c0.1,0,0.2,0,0.3-0.1c0.1-0.1,0.1-0.2,0.1-0.3c0-0.1,0-0.2-0.1-0.3c-0.1-0.1-0.2-0.1-0.3-0.1    c-0.1,0-0.2,0-0.3,0.1C47,40.3,47,40.4,47,40.5c0,0.1,0,0.2,0.1,0.3C47.1,40.8,47.2,40.8,47.3,40.8" class="st1"/><path d="M42.9,41.9c-0.2,0-0.4,0.2-0.4,0.4v2.2h-1.4c-0.4,0-1.4,0-1.4-1.7v-2.3c0-0.2-0.2-0.4-0.4-0.4    c-0.2,0-0.4,0.2-0.4,0.4v2.3c0,1.5,0.8,2.4,2.2,2.4h1.6c0,0,0,0,0,0l0,0l0,0c0,0,0,0,0,0c0.2,0,0.4-0.2,0.4-0.4v-2.6    C43.3,42,43.1,41.9,42.9,41.9" class="st1"/><path d="M42.9,40.8c0.1,0,0.2,0,0.3-0.1c0.1-0.1,0.1-0.2,0.1-0.3c0-0.1,0-0.2-0.1-0.3c-0.1-0.1-0.2-0.1-0.3-0.1    c-0.1,0-0.2,0-0.3,0.1c-0.1,0.1-0.1,0.2-0.1,0.3c0,0.1,0,0.2,0.1,0.3C42.7,40.8,42.8,40.8,42.9,40.8" class="st1"/><path d="M37.8,41.9c-0.2,0-0.4,0.2-0.4,0.4v1.3c0,0,0,0.9-0.7,0.9h-1.1l0-0.1c0.1-0.2,0.2-0.5,0.2-0.8v-1.3    c0-0.2-0.2-0.4-0.4-0.4c-0.2,0-0.4,0.2-0.4,0.4v1.3c0,0,0,0.9-0.7,0.9h-0.9v-2.2c0-0.2-0.2-0.4-0.4-0.4s-0.4,0.2-0.4,0.4v3.4h-1.4    c-0.4,0-1.4,0-1.4-1.7v-1.7c0-0.2-0.2-0.4-0.4-0.4c-0.2,0-0.4,0.2-0.4,0.4V44c0,1.5,0.8,2.4,2.2,2.4h1.7c0,0,0,0,0,0c0,0,0,0,0,0    h0c0.2,0,0.4-0.2,0.4-0.4v-0.8h3.4c0,0,0,0,0,0c1-0.1,1.3-1,1.3-1.7v-1.3C38.2,42,38,41.9,37.8,41.9" class="st1"/><path d="M54.2,45.8c-0.1,0-0.2,0-0.3,0.1c-0.1,0.1-0.1,0.2-0.1,0.3c0,0.1,0,0.2,0.1,0.3c0.1,0.1,0.2,0.1,0.3,0.1    c0.1,0,0.2,0,0.3-0.1c0.1-0.1,0.1-0.2,0.1-0.3c0-0.1,0-0.2-0.1-0.3C54.4,45.9,54.3,45.8,54.2,45.8" class="st1"/><path d="M53.1,45.8c-0.1,0-0.2,0-0.3,0.1c-0.1,0.1-0.1,0.2-0.1,0.3c0,0.1,0,0.2,0.1,0.3c0.1,0.1,0.2,0.1,0.3,0.1    c0.1,0,0.2,0,0.3-0.1c0.1-0.1,0.1-0.2,0.1-0.3c0-0.1,0-0.2-0.1-0.3C53.3,45.9,53.2,45.8,53.1,45.8" class="st1"/><path d="M59.1,41.2c-0.9,0-1.7,0.2-2.2,0.7l0,0c-0.1,0-0.1,0.1-0.2,0.1l-0.1,0.1v-1.7c0-0.2-0.2-0.4-0.4-0.4    c-0.2,0-0.4,0.2-0.4,0.4v3.1c0,0,0,0,0,0c0,0,0,0,0,0c0,0.1,0,0.2,0.1,0.3c0.1,0.1,0.2,0.1,0.3,0.1c0.1,0,0.2,0,0.3-0.1    c0,0,0.1-0.1,0.1-0.2l0-0.1c0-0.1,0.1-0.2,0.1-0.3c0.1-0.1,0.2-0.3,0.3-0.5c0.1-0.1,0.2-0.2,0.3-0.3l0,0c0.4-0.4,1-0.6,1.7-0.5    c1.1,0,1.3,0.5,1.3,1.2v1.3h-6.2l0-0.1c0.1-0.3,0.2-0.5,0.2-0.8v-1.3c0-0.2-0.2-0.4-0.4-0.4c-0.2,0-0.4,0.2-0.4,0.4v1.3    c0,0,0,0.9-0.7,0.9h-0.8v-2.2c0-0.2-0.2-0.4-0.4-0.4c-0.2,0-0.4,0.2-0.4,0.4v2.6c0,0.7-0.6,1.2-0.9,1.3c-0.2,0.1-0.3,0.3-0.2,0.5    c0.1,0.2,0.3,0.3,0.5,0.2c0.5-0.2,1.1-0.8,1.3-1.6l0-0.1h8.7c0.2,0,0.4-0.2,0.4-0.4v-1.6C61.2,41.9,60.5,41.3,59.1,41.2" class="st1"/></g></g></svg>