<svg xmlns="http://www.w3.org/2000/svg" id="Layer_1" width="70" height="70" x="0" y="0" enable-background="new 0 0 70 70" version="1.1" viewBox="0 0 70 70" xml:space="preserve"><metadata/><switch><g><rect width="70" height="70"/><g><g><g><rect width="8.101" height="8.1" x="30.8" y="6.9" fill="#252625"/></g><g><rect width="8.101" height="8.1" x="30.8" y="55.4" fill="#252625"/></g><g><rect width="8.1" height="8.1" x="6.5" y="31.1" fill="#252625"/></g><g><rect width="8.1" height="8.1" x="55" y="31.1" fill="#252625"/></g></g></g><rect width="8.101" height="8.1" x="30.8" y="31.1" fill="#FFF"/><rect width="8.1" height="8.1" x="38.9" y="31.1" fill="#D7E48C"/><rect width="8.101" height="8.1" x="30.8" y="23" fill="#BCD7E8"/><rect width="8.101" height="8.1" x="30.8" y="14.9" fill="#74A5CD"/><rect width="8.1" height="8.1" x="38.9" y="23" fill="#74A5CD"/><rect width="8.1" height="8.1" x="22.7" y="23" fill="#74A5CD"/><rect width="8.1" height="8.1" x="22.7" y="31.1" fill="#D898C2"/><rect width="8.101" height="8.1" x="30.8" y="39.2" fill="#D898C2"/><rect width="8.1" height="8.1" x="47" y="31.1" fill="#80C343"/><rect width="8.1" height="8.1" x="38.9" y="39.2" fill="#80C343"/><rect width="8.1" height="8.1" x="14.6" y="31.1" fill="#8F2681"/><rect width="8.101" height="8.101" x="30.8" y="47.3" fill="#8F2681"/><rect width="8.1" height="8.1" x="22.7" y="39.2" fill="#8F2681"/></g></switch></svg>