<svg xmlns="http://www.w3.org/2000/svg" version="1.1" id="Layer_1" x="0px" y="0px" width="70px" height="70px" viewBox="0 0 70 70" enable-background="new 0 0 70 70" xml:space="preserve"><metadata/><switch><g><rect width="70" height="70"/><g><g><g><rect x="30.8" y="6.9" width="8.101" fill="#252625" height="8.1"/></g><g><rect x="30.8" y="55.4" width="8.101" fill="#252625" height="8.1"/></g><g><rect x="6.5" y="31.1" width="8.1" fill="#252625" height="8.1"/></g><g><rect x="55" y="31.1" width="8.1" fill="#252625" height="8.1"/></g></g></g><rect x="30.8" y="31.1" width="8.101" fill="#FFFFFF" height="8.1"/><rect x="38.9" y="31.1" width="8.1" fill="#D7E48C" height="8.1"/><rect x="30.8" y="23" width="8.101" fill="#BCD7E8" height="8.1"/><rect x="30.8" y="14.9" width="8.101" fill="#74A5CD" height="8.1"/><rect x="38.9" y="23" width="8.1" fill="#74A5CD" height="8.1"/><rect x="22.7" y="23" width="8.1" fill="#74A5CD" height="8.1"/><rect x="22.7" y="31.1" width="8.1" fill="#D898C2" height="8.1"/><rect x="30.8" y="39.2" width="8.101" fill="#D898C2" height="8.1"/><rect x="47" y="31.1" width="8.1" fill="#80C343" height="8.1"/><rect x="38.9" y="39.2" width="8.1" fill="#80C343" height="8.1"/><rect x="14.6" y="31.1" width="8.1" fill="#8F2681" height="8.1"/><rect x="30.8" y="47.3" width="8.101" fill="#8F2681" height="8.101"/><rect x="22.7" y="39.2" width="8.1" fill="#8F2681" height="8.1"/></g></switch></svg>