<svg xmlns="http://www.w3.org/2000/svg" id="Layer_1" x="0px" y="0px" width="110.31px" height="110.31px" viewBox="0 0 110.31 110.31"><defs><style>.cls-1{fill:#fd0;}.cls-2{fill:#002d62;}</style></defs><polygon points="33.14 62.24 51.07 62.24 38.95 83.25 56.88 83.25 69.01 62.24 89.85 62.24 89.85 83.25 106.83 83.25 106.83 27.08 89.85 27.08 89.85 48.09 77.18 48.09 89.3 27.08 71.37 27.08 59.25 48.09 41.31 48.09 53.44 27.08 35.5 27.08 3.48 82.56 3.48 83.25 21.02 83.25 33.14 62.24" class="cls-1"/><path d="M3.48,82.56l32-55.48h18l-12.13,21H59.25l12.12-21H89.3l-12.12,21H89.85v-21h17V83.25h-17v-21H69l-12.12,21H39l12.12-21H33.14L21,83.25H3.48ZM1.6,85.13H108.72V25.19H1.6Z" class="cls-2"/></svg>