<svg xmlns="http://www.w3.org/2000/svg" id="Layer_1" width="70" height="70" x="0" y="0" version="1.1" viewBox="0 0 70 70" xml:space="preserve" style="enable-background:new 0 0 70 70"><style type="text/css">.st0{fill:#005baa}</style><g><path d="M28.78,21.72c1.31-0.65,5.19-2.13,14.81-3.38c0,0,12.76-1.6,23.17-6.26l1.74-5.23 c-9.74,5.06-18.82,6.37-24.91,7.5c-5.69,1.03-11.58,1.6-16.33,3.73c-2.93,1.34-5.19,3.89-6.13,7.01c-2.23,0.13-4.4,0.35-6.46,0.7h0 c-7.89,0.96-14,7.67-14,15.82c0,4.87,2.19,9.23,5.63,12.16l0.02,0.05h0c0-0.01-0.01-0.03-0.01-0.04c0,0,0,0,0,0l-0.1-0.46 c-0.62-3.28,0.97-5.43,0.97-5.43c1.84-2.89,4.83-4.24,9.42-4.24c10.75,0,22.24,4.81,33.35,9.46l2.67,1.13l1.3-3.75 C41.9,45.49,28.98,39.7,16.6,39.7c-4.16,0-8.59,0.97-11.68,4.61c-0.2-0.87-0.31-1.78-0.31-2.71c0-6.14,4.63-11.21,10.58-11.91l0,0 c1.83-0.28,3.65-0.47,5.47-0.6c0.2,3.15,1.69,5.94,3.94,7.87l0.01,0l0.01,0.02l18.93-10.93c-5.21-0.59-11.72-1.16-18.12-1.1 C26.17,23.54,27.35,22.4,28.78,21.72z M25.5,31.91c-0.5-0.9-0.81-1.92-0.89-3c2.03-0.04,4.02-0.01,5.98,0.06L25.5,31.91z" class="st0"/><path d="M2.47,63.26l0.57,2.96l1.65-2.96h1.06l-0.78,4.08H4.2l0.66-3.5l-1.93,3.5h-0.4l-0.66-3.5l-0.66,3.5H0.64 l0.78-4.08H2.47z" class="st0"/><path d="M6.02,65.67c0-1.08,0.73-2.46,2.33-2.46c0.97,0,1.73,0.51,1.73,1.61c0,0.92-0.53,2.59-2.29,2.59 C6.63,67.4,6.02,66.66,6.02,65.67L6.02,65.67z M6.9,65.85c0,0.56,0.25,1.08,0.91,1.08c1.08,0,1.42-1.48,1.42-2.29 c0-0.62-0.31-0.97-0.87-0.97C7.35,63.67,6.9,64.92,6.9,65.85L6.9,65.85z" class="st0"/><path d="M11.59,63.26l1.86,2.93l0.56-2.93h0.56l-0.78,4.08h-0.51l-1.86-2.93l-0.56,2.93h-0.56l0.78-4.08H11.59z" class="st0"/><path d="M18.53,63.26l-0.09,0.48h-1.29l-0.68,3.61h-0.82l0.68-3.61h-1.29l0.09-0.48H18.53z" class="st0"/><path d="M21.62,63.26l-0.1,0.49h-1.71l-0.24,1.24h1.59l-0.09,0.48h-1.59l-0.25,1.36h1.84l-0.09,0.51h-2.67l0.78-4.08 H21.62z" class="st0"/><path d="M22.93,63.26l1.86,2.93l0.56-2.93h0.56l-0.78,4.08h-0.51l-1.86-2.93l-0.56,2.93h-0.56l0.78-4.08H22.93z" class="st0"/><path d="M29.14,63.26l-0.1,0.49h-1.71l-0.23,1.24h1.59l-0.09,0.48H27l-0.25,1.36h1.84l-0.09,0.51h-2.67l0.78-4.08 H29.14z" class="st0"/><path d="M32.51,67.1c-0.46,0.2-0.81,0.31-1.32,0.31c-1.33,0-1.92-0.93-1.92-1.8c0-1.13,0.81-2.4,2.56-2.4 c0.45,0,0.81,0.07,1.13,0.19l-0.15,0.47c-0.3-0.11-0.61-0.16-0.87-0.16c-1.12,0-1.8,0.95-1.8,1.95c0,0.56,0.3,1.06,0.92,1.19 c0.25,0.05,0.48,0.05,0.73,0.01l0.21-1.1h-0.86l0.09-0.47h1.61L32.51,67.1z" class="st0"/><path d="M35.01,63.26c0.59,0,0.89,0.01,1.22,0.12c0.24,0.09,0.62,0.33,0.62,0.81c0,0.9-0.93,1.19-1.31,1.22l1.26,1.94 h-0.93l-1.09-1.79H34.4l-0.34,1.79h-0.82l0.78-4.08H35.01z M34.75,63.73l-0.27,1.4h0.25c0.4,0,0.66-0.01,0.89-0.14 c0.24-0.15,0.39-0.46,0.39-0.72c0-0.55-0.5-0.54-1.01-0.54H34.75z" class="st0"/></g><path d="M37.23,65.67c0-1.08,0.73-2.46,2.33-2.46c0.97,0,1.73,0.51,1.73,1.61c0,0.92-0.53,2.59-2.29,2.59 C37.83,67.4,37.23,66.66,37.23,65.67L37.23,65.67z M38.1,65.85c0,0.56,0.25,1.08,0.91,1.08c1.08,0,1.42-1.48,1.42-2.29 c0-0.62-0.31-0.97-0.87-0.97C38.56,63.67,38.1,64.92,38.1,65.85L38.1,65.85z" class="st0"/><path d="M46.1,63.26l1.05,4.08h-0.84l-0.28-1.21h-1.52l-0.68,1.21H43.2l2.41-4.08H46.1z M44.76,65.7h1.18l-0.33-1.48 L44.76,65.7z" class="st0"/><path d="M49.28,63.26l-0.77,4.08h-0.82l0.78-4.08H49.28z" class="st0"/><path d="M50.99,63.26c0.59,0,0.89,0.01,1.22,0.12c0.24,0.09,0.62,0.33,0.62,0.81c0,0.9-0.93,1.19-1.31,1.22l1.26,1.94 h-0.93l-1.09-1.79h-0.39l-0.33,1.79h-0.82l0.78-4.08H50.99z M50.73,63.73l-0.27,1.4h0.25c0.4,0,0.66-0.01,0.89-0.14 c0.23-0.15,0.39-0.46,0.39-0.72c0-0.55-0.5-0.54-1.01-0.54H50.73z" class="st0"/><path d="M54.79,63.26l-0.68,3.58h1.75l-0.09,0.51h-2.57l0.78-4.08H54.79z" class="st0"/><path d="M58.02,63.26l-0.77,4.08h-0.82l0.78-4.08H58.02z" class="st0"/><path d="M59.26,63.26l1.86,2.93l0.56-2.93h0.56l-0.78,4.08h-0.51l-1.86-2.93l-0.56,2.93h-0.56l0.78-4.08H59.26z" class="st0"/><path d="M65.53,63.26l-0.1,0.49h-1.71l-0.23,1.24h1.59l-0.09,0.48h-1.59l-0.25,1.36h1.84l-0.09,0.51h-2.67L63,63.26 H65.53z" class="st0"/><path d="M68.36,63.85c-0.18-0.06-0.49-0.16-0.84-0.16c-0.48,0-0.86,0.21-0.86,0.54c0,0.23,0.16,0.33,0.53,0.62l0.14,0.1 c0.5,0.38,0.92,0.68,0.92,1.21c0,0.53-0.43,1.24-1.57,1.24c-0.5,0-0.9-0.11-1.26-0.28l0.18-0.45c0.29,0.12,0.65,0.25,1.06,0.25 c0.62,0,0.85-0.35,0.85-0.6c0-0.23-0.17-0.38-0.64-0.72l-0.1-0.07c-0.49-0.36-0.85-0.64-0.85-1.14c0-0.67,0.65-1.18,1.59-1.18 c0.34,0,0.68,0.06,1,0.18L68.36,63.85z" class="st0"/></svg>