<svg xmlns="http://www.w3.org/2000/svg" version="1.1" id="Layer_1" x="0px" y="0px" width="70px" height="70px" viewBox="0 0 70 70" enable-background="new 0 0 70 70" xml:space="preserve"><g><path fill="none" d="M5.017,37.989c-0.935,1.198-1.794,1.797-2.58,1.797    c-0.346,0-0.637-0.147-0.875-0.443c-0.239-0.296-0.328-0.756-0.268-1.379c0.12-1.241,0.621-2.415,1.499-3.522    c0.879-1.107,1.814-1.661,2.804-1.661c0.308,0,0.539,0.096,0.693,0.286c0.154,0.191,0.232,0.48,0.232,0.867l0.347-1h2.025    l-1.738,4.741c-0.11,0.301-0.167,0.47-0.17,0.507c-0.015,0.15,0.044,0.227,0.177,0.227c0.242,0,0.507-0.245,0.796-0.733    l0.679,0.188c-0.281,0.655-0.561,0.982-1.057,1.359c-0.496,0.376-1.006,0.563-1.531,0.563c-0.356,0-0.644-0.106-0.864-0.319    c-0.221-0.211-0.309-0.552-0.264-1.02C4.935,38.324,4.965,38.171,5.017,37.989z M3.466,37.602    c-0.021,0.215-0.002,0.378,0.056,0.487c0.058,0.11,0.156,0.166,0.293,0.166c0.212,0,0.476-0.166,0.79-0.496    s0.643-0.895,0.988-1.692c0.345-0.798,0.535-1.38,0.57-1.746c0.024-0.243,0.003-0.422-0.062-0.54    c-0.064-0.118-0.171-0.177-0.323-0.177c-0.479,0-0.97,0.524-1.475,1.575C3.8,36.23,3.521,37.037,3.466,37.602z" stroke="#ED7D32" stroke-width="0.9224"/><path fill="#231F20" d="M5.017,37.989c-0.935,1.198-1.794,1.797-2.58,1.797c-0.346,0-0.637-0.147-0.875-0.443    c-0.239-0.296-0.328-0.756-0.268-1.379c0.12-1.241,0.621-2.415,1.499-3.522c0.879-1.107,1.814-1.661,2.804-1.661    c0.308,0,0.539,0.096,0.693,0.286c0.154,0.191,0.232,0.48,0.232,0.867l0.347-1h2.025l-1.738,4.741    c-0.11,0.301-0.167,0.47-0.17,0.507c-0.015,0.15,0.044,0.227,0.177,0.227c0.242,0,0.507-0.245,0.796-0.733l0.679,0.188    c-0.281,0.655-0.561,0.982-1.057,1.359c-0.496,0.376-1.006,0.563-1.531,0.563c-0.356,0-0.644-0.106-0.864-0.319    c-0.221-0.211-0.309-0.552-0.264-1.02C4.935,38.324,4.965,38.171,5.017,37.989z M3.466,37.602    c-0.021,0.215-0.002,0.378,0.056,0.487c0.058,0.11,0.156,0.166,0.293,0.166c0.212,0,0.476-0.166,0.79-0.496    s0.643-0.895,0.988-1.692c0.345-0.798,0.535-1.38,0.57-1.746c0.024-0.243,0.003-0.422-0.062-0.54    c-0.064-0.118-0.171-0.177-0.323-0.177c-0.479,0-0.97,0.524-1.475,1.575C3.8,36.23,3.521,37.037,3.466,37.602z"/></g><g><path fill="none" d="M12.481,37.594l0.575,0.188c-0.576,1.462-1.271,2.004-2.304,2.004    c-0.417,0-0.732-0.104-0.943-0.314s-0.317-0.521-0.317-0.936c0-0.241,0.078-0.665,0.233-1.273l0.716-2.781    c0.056-0.214,0.084-0.354,0.084-0.418c0-0.065-0.012-0.111-0.037-0.141c-0.025-0.029-0.064-0.044-0.119-0.044    c-0.231,0-0.502,0.35-0.814,1.047l-0.534-0.312c0.579-1.5,1.281-1.936,2.337-1.936c0.373,0,0.663,0.108,0.87,0.325    c0.207,0.217,0.31,0.516,0.31,0.896c0,0.278-0.082,0.721-0.246,1.328l-0.696,2.548c-0.1,0.36-0.149,0.587-0.149,0.681    c0,0.06,0.014,0.106,0.044,0.139c0.029,0.034,0.071,0.05,0.125,0.05c0.118,0,0.267-0.119,0.45-0.359    C12.248,38.041,12.386,37.812,12.481,37.594z M13.491,29.641c0,0.345-0.104,0.642-0.312,0.89c-0.208,0.248-0.456,0.372-0.745,0.372    c-0.29,0-0.538-0.124-0.746-0.372c-0.208-0.248-0.312-0.545-0.312-0.89c0-0.35,0.104-0.648,0.312-0.893    c0.208-0.246,0.456-0.368,0.746-0.368c0.289,0,0.537,0.123,0.745,0.368C13.387,28.993,13.491,29.291,13.491,29.641z" stroke="#ED7D32" stroke-width="0.9224"/><path fill="#231F20" d="M12.481,37.594l0.575,0.188c-0.576,1.462-1.271,2.004-2.304,2.004c-0.417,0-0.732-0.104-0.943-0.314    s-0.317-0.521-0.317-0.936c0-0.241,0.078-0.665,0.233-1.273l0.716-2.781c0.056-0.214,0.084-0.354,0.084-0.418    c0-0.065-0.012-0.111-0.037-0.141c-0.025-0.029-0.064-0.044-0.119-0.044c-0.231,0-0.502,0.35-0.814,1.047l-0.534-0.312    c0.579-1.5,1.281-1.936,2.337-1.936c0.373,0,0.663,0.108,0.87,0.325c0.207,0.217,0.31,0.516,0.31,0.896    c0,0.278-0.082,0.721-0.246,1.328l-0.696,2.548c-0.1,0.36-0.149,0.587-0.149,0.681c0,0.06,0.014,0.106,0.044,0.139    c0.029,0.034,0.071,0.05,0.125,0.05c0.118,0,0.267-0.119,0.45-0.359C12.248,38.041,12.386,37.812,12.481,37.594z M13.491,29.641    c0,0.345-0.104,0.642-0.312,0.89c-0.208,0.248-0.456,0.372-0.745,0.372c-0.29,0-0.538-0.124-0.746-0.372    c-0.208-0.248-0.312-0.545-0.312-0.89c0-0.35,0.104-0.648,0.312-0.893c0.208-0.246,0.456-0.368,0.746-0.368    c0.289,0,0.537,0.123,0.745,0.368C13.387,28.993,13.491,29.291,13.491,29.641z"/></g><g><path fill="none" d="M37.699,37.046c-0.041,0.171-0.062,0.335-0.062,0.49    c0,0.426,0.077,0.745,0.23,0.96c0.154,0.215,0.384,0.322,0.691,0.322c0.312,0,0.629-0.105,0.952-0.317    c0.321-0.214,0.651-0.53,0.985-0.956h0.901c-0.362,0.635-0.864,1.166-1.508,1.595c-0.645,0.432-1.345,0.646-2.104,0.646    c-0.655,0-1.193-0.172-1.616-0.515c-0.422-0.344-0.633-0.879-0.633-1.604c0-1.178,0.483-2.302,1.451-3.377    c0.966-1.076,2.024-1.612,3.177-1.612c0.501,0,0.877,0.11,1.124,0.331c0.248,0.22,0.373,0.551,0.373,0.991    c0,0.699-0.363,1.33-1.091,1.89C39.845,36.45,38.888,36.836,37.699,37.046z M37.854,36.199c0.551-0.098,1.043-0.379,1.477-0.847    s0.65-0.927,0.65-1.378c0-0.167-0.034-0.292-0.101-0.375c-0.068-0.083-0.171-0.125-0.305-0.125c-0.321,0-0.636,0.242-0.942,0.726    C38.327,34.683,38.066,35.35,37.854,36.199z" stroke="#ED7D32" stroke-width="0.9224"/><path fill="#231F20" d="M37.699,37.046c-0.041,0.171-0.062,0.335-0.062,0.49c0,0.426,0.077,0.745,0.23,0.96    c0.154,0.215,0.384,0.322,0.691,0.322c0.312,0,0.629-0.105,0.952-0.317c0.321-0.214,0.651-0.53,0.985-0.956h0.901    c-0.362,0.635-0.864,1.166-1.508,1.595c-0.645,0.432-1.345,0.646-2.104,0.646c-0.655,0-1.193-0.172-1.616-0.515    c-0.422-0.344-0.633-0.879-0.633-1.604c0-1.178,0.483-2.302,1.451-3.377c0.966-1.076,2.024-1.612,3.177-1.612    c0.501,0,0.877,0.11,1.124,0.331c0.248,0.22,0.373,0.551,0.373,0.991c0,0.699-0.363,1.33-1.091,1.89    C39.845,36.45,38.888,36.836,37.699,37.046z M37.854,36.199c0.551-0.098,1.043-0.379,1.477-0.847s0.65-0.927,0.65-1.378    c0-0.167-0.034-0.292-0.101-0.375c-0.068-0.083-0.171-0.125-0.305-0.125c-0.321,0-0.636,0.242-0.942,0.726    C38.327,34.683,38.066,35.35,37.854,36.199z"/></g><g><path fill="none" d="M44.359,37.046c-0.04,0.171-0.061,0.335-0.061,0.49    c0,0.426,0.077,0.745,0.229,0.96c0.154,0.215,0.384,0.322,0.691,0.322c0.312,0,0.629-0.105,0.952-0.317    c0.323-0.214,0.651-0.53,0.985-0.956h0.901c-0.361,0.635-0.863,1.166-1.508,1.595c-0.644,0.432-1.345,0.646-2.104,0.646    c-0.654,0-1.193-0.172-1.615-0.515c-0.423-0.344-0.633-0.879-0.633-1.604c0-1.178,0.482-2.302,1.449-3.377    c0.966-1.076,2.024-1.612,3.177-1.612c0.501,0,0.876,0.11,1.124,0.331c0.249,0.22,0.373,0.551,0.373,0.991    c0,0.699-0.363,1.33-1.09,1.89C46.505,36.45,45.547,36.836,44.359,37.046z M44.515,36.199c0.551-0.098,1.043-0.379,1.477-0.847    c0.435-0.467,0.65-0.927,0.65-1.378c0-0.167-0.033-0.292-0.102-0.375c-0.067-0.083-0.169-0.125-0.304-0.125    c-0.32,0-0.635,0.242-0.942,0.726C44.987,34.683,44.728,35.35,44.515,36.199z" stroke="#ED7D32" stroke-width="0.9224"/><path fill="#231F20" d="M44.359,37.046c-0.04,0.171-0.061,0.335-0.061,0.49c0,0.426,0.077,0.745,0.229,0.96    c0.154,0.215,0.384,0.322,0.691,0.322c0.312,0,0.629-0.105,0.952-0.317c0.323-0.214,0.651-0.53,0.985-0.956h0.901    c-0.361,0.635-0.863,1.166-1.508,1.595c-0.644,0.432-1.345,0.646-2.104,0.646c-0.654,0-1.193-0.172-1.615-0.515    c-0.423-0.344-0.633-0.879-0.633-1.604c0-1.178,0.482-2.302,1.449-3.377c0.966-1.076,2.024-1.612,3.177-1.612    c0.501,0,0.876,0.11,1.124,0.331c0.249,0.22,0.373,0.551,0.373,0.991c0,0.699-0.363,1.33-1.09,1.89    C46.505,36.45,45.547,36.836,44.359,37.046z M44.515,36.199c0.551-0.098,1.043-0.379,1.477-0.847    c0.435-0.467,0.65-0.927,0.65-1.378c0-0.167-0.033-0.292-0.102-0.375c-0.067-0.083-0.169-0.125-0.304-0.125    c-0.32,0-0.635,0.242-0.942,0.726C44.987,34.683,44.728,35.35,44.515,36.199z"/></g><g><path fill="none" d="M51.78,33.845c0.641-0.779,1.357-1.169,2.153-1.169    c0.627,0,1.112,0.211,1.458,0.632c0.345,0.422,0.519,0.991,0.519,1.705c0,1.183-0.414,2.274-1.24,3.274s-1.866,1.499-3.122,1.499    c-0.857,0-1.504-0.23-1.94-0.693c-0.435-0.462-0.652-0.997-0.652-1.604c0-0.328,0.108-0.911,0.325-1.75l1.342-5.224    c0.063-0.247,0.095-0.421,0.095-0.524c0-0.193-0.068-0.324-0.207-0.391c-0.138-0.067-0.361-0.101-0.674-0.101l0.23-0.895    c0.823,0,1.365-0.013,1.627-0.04c0.262-0.027,0.547-0.089,0.853-0.186h0.638L51.78,33.845z M53.023,33.925    c-0.667,0-1.202,0.54-1.604,1.62c-0.401,1.082-0.603,1.906-0.603,2.476c0,0.317,0.068,0.556,0.204,0.715    c0.134,0.157,0.335,0.235,0.602,0.235c0.672,0,1.204-0.438,1.597-1.312c0.394-0.876,0.59-1.739,0.59-2.588    c0-0.344-0.067-0.621-0.203-0.831S53.277,33.925,53.023,33.925z" stroke="#ED7D32" stroke-width="0.9224"/><path fill="#231F20" d="M51.78,33.845c0.641-0.779,1.357-1.169,2.153-1.169c0.627,0,1.112,0.211,1.458,0.632    c0.345,0.422,0.519,0.991,0.519,1.705c0,1.183-0.414,2.274-1.24,3.274s-1.866,1.499-3.122,1.499c-0.857,0-1.504-0.23-1.94-0.693    c-0.435-0.462-0.652-0.997-0.652-1.604c0-0.328,0.108-0.911,0.325-1.75l1.342-5.224c0.063-0.247,0.095-0.421,0.095-0.524    c0-0.193-0.068-0.324-0.207-0.391c-0.138-0.067-0.361-0.101-0.674-0.101l0.23-0.895c0.823,0,1.365-0.013,1.627-0.04    c0.262-0.027,0.547-0.089,0.853-0.186h0.638L51.78,33.845z M53.023,33.925c-0.667,0-1.202,0.54-1.604,1.62    c-0.401,1.082-0.603,1.906-0.603,2.476c0,0.317,0.068,0.556,0.204,0.715c0.134,0.157,0.335,0.235,0.602,0.235    c0.672,0,1.204-0.438,1.597-1.312c0.394-0.876,0.59-1.739,0.59-2.588c0-0.344-0.067-0.621-0.203-0.831S53.277,33.925,53.023,33.925    z"/></g><g><path fill="none" d="M58.26,37.046c-0.041,0.171-0.062,0.335-0.062,0.49    c0,0.426,0.077,0.745,0.23,0.96c0.154,0.215,0.384,0.322,0.691,0.322c0.312,0,0.629-0.105,0.952-0.317    c0.321-0.214,0.651-0.53,0.985-0.956h0.901c-0.361,0.635-0.864,1.166-1.508,1.595c-0.644,0.432-1.345,0.646-2.104,0.646    c-0.655,0-1.194-0.172-1.616-0.515c-0.422-0.344-0.633-0.879-0.633-1.604c0-1.178,0.482-2.302,1.45-3.377    c0.966-1.076,2.024-1.612,3.177-1.612c0.501,0,0.877,0.11,1.124,0.331c0.248,0.22,0.373,0.551,0.373,0.991    c0,0.699-0.363,1.33-1.091,1.89C60.405,36.45,59.448,36.836,58.26,37.046z M58.416,36.199c0.55-0.098,1.042-0.379,1.477-0.847    c0.433-0.467,0.65-0.927,0.65-1.378c0-0.167-0.033-0.292-0.102-0.375s-0.169-0.125-0.305-0.125c-0.321,0-0.636,0.242-0.942,0.726    C58.888,34.683,58.628,35.35,58.416,36.199z" stroke="#ED7D32" stroke-width="0.9224"/><path fill="#231F20" d="M58.26,37.046c-0.041,0.171-0.062,0.335-0.062,0.49c0,0.426,0.077,0.745,0.23,0.96    c0.154,0.215,0.384,0.322,0.691,0.322c0.312,0,0.629-0.105,0.952-0.317c0.321-0.214,0.651-0.53,0.985-0.956h0.901    c-0.361,0.635-0.864,1.166-1.508,1.595c-0.644,0.432-1.345,0.646-2.104,0.646c-0.655,0-1.194-0.172-1.616-0.515    c-0.422-0.344-0.633-0.879-0.633-1.604c0-1.178,0.482-2.302,1.45-3.377c0.966-1.076,2.024-1.612,3.177-1.612    c0.501,0,0.877,0.11,1.124,0.331c0.248,0.22,0.373,0.551,0.373,0.991c0,0.699-0.363,1.33-1.091,1.89    C60.405,36.45,59.448,36.836,58.26,37.046z M58.416,36.199c0.55-0.098,1.042-0.379,1.477-0.847c0.433-0.467,0.65-0.927,0.65-1.378    c0-0.167-0.033-0.292-0.102-0.375s-0.169-0.125-0.305-0.125c-0.321,0-0.636,0.242-0.942,0.726    C58.888,34.683,58.628,35.35,58.416,36.199z"/></g><g><path fill="none" d="M67.994,37.545h0.895c-0.452,0.747-0.964,1.308-1.537,1.681    c-0.574,0.373-1.208,0.561-1.904,0.561c-0.777,0-1.373-0.191-1.788-0.571c-0.416-0.382-0.624-0.933-0.624-1.651    c0-0.794,0.214-1.58,0.641-2.355c0.426-0.775,0.968-1.391,1.622-1.848c0.655-0.456,1.335-0.684,2.04-0.684    c0.614,0,1.066,0.157,1.357,0.472c0.292,0.314,0.438,0.694,0.438,1.141c0,0.333-0.081,0.627-0.241,0.882s-0.384,0.383-0.674,0.383    c-0.202,0-0.387-0.076-0.552-0.23c-0.165-0.153-0.247-0.39-0.247-0.713c0-0.14,0.02-0.288,0.061-0.443    c0.036-0.134,0.054-0.234,0.054-0.298c0-0.129-0.04-0.227-0.118-0.291s-0.199-0.097-0.362-0.097c-0.275,0-0.548,0.162-0.816,0.483    c-0.269,0.323-0.52,0.888-0.752,1.699s-0.348,1.43-0.348,1.858c0,0.426,0.075,0.745,0.229,0.959    c0.153,0.215,0.384,0.321,0.691,0.321c0.319,0,0.643-0.104,0.965-0.313C67.345,38.278,67.67,37.964,67.994,37.545z" stroke="#ED7D32" stroke-width="0.9224"/><path fill="#231F20" d="M67.994,37.545h0.895c-0.452,0.747-0.964,1.308-1.537,1.681c-0.574,0.373-1.208,0.561-1.904,0.561    c-0.777,0-1.373-0.191-1.788-0.571c-0.416-0.382-0.624-0.933-0.624-1.651c0-0.794,0.214-1.58,0.641-2.355    c0.426-0.775,0.968-1.391,1.622-1.848c0.655-0.456,1.335-0.684,2.04-0.684c0.614,0,1.066,0.157,1.357,0.472    c0.292,0.314,0.438,0.694,0.438,1.141c0,0.333-0.081,0.627-0.241,0.882s-0.384,0.383-0.674,0.383c-0.202,0-0.387-0.076-0.552-0.23    c-0.165-0.153-0.247-0.39-0.247-0.713c0-0.14,0.02-0.288,0.061-0.443c0.036-0.134,0.054-0.234,0.054-0.298    c0-0.129-0.04-0.227-0.118-0.291s-0.199-0.097-0.362-0.097c-0.275,0-0.548,0.162-0.816,0.483c-0.269,0.323-0.52,0.888-0.752,1.699    s-0.348,1.43-0.348,1.858c0,0.426,0.075,0.745,0.229,0.959c0.153,0.215,0.384,0.321,0.691,0.321c0.319,0,0.643-0.104,0.965-0.313    C67.345,38.278,67.67,37.964,67.994,37.545z"/></g><g><path fill="none" d="M29.981,34.296l0.639,0.407c0,0,0.639-0.697,0.872-0.465    c0.232,0.232-1.336,5.228-1.336,5.228h2.091c0,0,1.045-3.427,1.336-4.183c0.291-0.755,0.465-0.988,0.697-0.988    c0.232,0,0.523,0.581,0.872,0.581s0.755-0.174,0.755-1.104c0-0.929-0.406-1.162-0.871-1.162c-0.464,0-1.568,0.813-1.917,2.149    c0,0,0.175-2.091-1.045-2.091S29.981,34.296,29.981,34.296z" stroke="#ED7D32" stroke-width="0.9224"/><path fill="#231F20" d="M29.981,34.296l0.639,0.407c0,0,0.639-0.697,0.872-0.465c0.232,0.232-1.336,5.228-1.336,5.228h2.091    c0,0,1.045-3.427,1.336-4.183c0.291-0.755,0.465-0.988,0.697-0.988c0.232,0,0.523,0.581,0.872,0.581s0.755-0.174,0.755-1.104    c0-0.929-0.406-1.162-0.871-1.162c-0.464,0-1.568,0.813-1.917,2.149c0,0,0.175-2.091-1.045-2.091S29.981,34.296,29.981,34.296z"/></g><g><path fill="none" d="M13.186,34.296l0.639,0.407c0,0,0.639-0.697,0.872-0.465    s-1.335,5.228-1.335,5.228h2.091c0,0,1.045-3.427,1.336-4.183c0.291-0.755,0.465-0.988,0.698-0.988    c0.231,0,0.522,0.581,0.871,0.581s0.755-0.174,0.755-1.104c0-0.929-0.407-1.162-0.872-1.162c-0.464,0-1.568,0.813-1.917,2.149    c0,0,0.175-2.091-1.045-2.091C14.058,32.67,13.186,34.296,13.186,34.296z" stroke="#ED7D32" stroke-width="0.9224"/><path fill="#231F20" d="M13.186,34.296l0.639,0.407c0,0,0.639-0.697,0.872-0.465s-1.335,5.228-1.335,5.228h2.091    c0,0,1.045-3.427,1.336-4.183c0.291-0.755,0.465-0.988,0.698-0.988c0.231,0,0.522,0.581,0.871,0.581s0.755-0.174,0.755-1.104    c0-0.929-0.407-1.162-0.872-1.162c-0.464,0-1.568,0.813-1.917,2.149c0,0,0.175-2.091-1.045-2.091    C14.058,32.67,13.186,34.296,13.186,34.296z"/></g><g><path fill="none" d="M28.703,32.263h0.988l0.174-2.498c0,0-1.452-0.929-3.602-0.929    c-2.556,0-6.448,1.975-6.448,6.448c0,4.473,4.473,4.809,4.938,4.822c1.975,0.058,3.428-1.163,3.428-1.163l0.929-2.729l-1.045-0.291    c0,0-1.046,3.079-3.428,3.079s-2.207-2.614-2.207-3.312s0.522-6.041,4.066-6.041C27.541,29.649,29.052,30.695,28.703,32.263z" stroke="#ED7D32" stroke-width="0.9224"/><path fill="#231F20" d="M28.703,32.263h0.988l0.174-2.498c0,0-1.452-0.929-3.602-0.929c-2.556,0-6.448,1.975-6.448,6.448    c0,4.473,4.473,4.809,4.938,4.822c1.975,0.058,3.428-1.163,3.428-1.163l0.929-2.729l-1.045-0.291c0,0-1.046,3.079-3.428,3.079    s-2.207-2.614-2.207-3.312s0.522-6.041,4.066-6.041C27.541,29.649,29.052,30.695,28.703,32.263z"/></g></svg>