<svg xmlns="http://www.w3.org/2000/svg" version="1.1" id="Layer_1" x="0px" y="0px" width="70px" height="70px" viewBox="0 0 70 70" enable-background="new 0 0 70 70" xml:space="preserve"><metadata/><switch><g><rect width="70" fill="none" height="70"/><rect x="0.6" y="12.1" width="68.5" fill="#025595" height="41"/><g><g><g><defs><path id="SVGID_1_" d="M69.1,31.7C45.2,31.6,40.5,21.9,28.7,21.9c-12.4,0-23.8,12.7-28.1,17.6v7.3C3.5,43,11.4,35.3,25,35.3         C41.5,35.3,46.7,50.4,62.5,50.4H69L69.1,31.7L69.1,31.7z"/></defs><clipPath id="SVGID_2_"><use xmlns:xlink="http://www.w3.org/1999/xlink" xlink:href="#SVGID_1_" overflow="visible"/></clipPath><linearGradient id="SVGID_3_" gradientTransform="matrix(1 0 0 1 -271 -359)" gradientUnits="userSpaceOnUse" x1="271.4004" x2="340.5" y1="394.4502" y2="394.4502"><stop offset="0" style="stop-color:#4A78AD"/><stop offset="0.0989" style="stop-color:#7792C1"/><stop offset="0.3736" style="stop-color:#B7C3DD"/><stop offset="0.6319" style="stop-color:#AABAD7"/><stop offset="0.8681" style="stop-color:#7B96C3"/><stop offset="1" style="stop-color:#4D78B1"/></linearGradient><rect clip-path="url(#SVGID_2_)" x="0.4" y="19.7" width="69.1" fill="url(#SVGID_3_)" height="31.5"/></g></g></g><g><g><g><defs><path id="SVGID_4_" d="M69.1,45.3c-24.6-0.2-26.3-15.9-44.3-15.9c-13,0-21.6,10.1-24.2,13.3V45c4.3-4.3,11.3-11.5,24.5-11.5         c17.8,0,23.4,14,40.8,14H69v-2.2H69.1z"/></defs><clipPath id="SVGID_5_"><use xmlns:xlink="http://www.w3.org/1999/xlink" xlink:href="#SVGID_4_" overflow="visible"/></clipPath><linearGradient id="SVGID_6_" gradientTransform="matrix(1 0 0 1 -271 -359)" gradientUnits="userSpaceOnUse" x1="270.9004" x2="340.5996" y1="396.75" y2="396.75"><stop offset="0" style="stop-color:#00589A"/><stop offset="0.0989" style="stop-color:#5D80B7"/><stop offset="0.3736" style="stop-color:#8BA0C8"/><stop offset="0.6319" style="stop-color:#98AACF"/><stop offset="0.8681" style="stop-color:#728DBE"/><stop offset="1" style="stop-color:#005998"/></linearGradient><rect clip-path="url(#SVGID_5_)" x="-0.1" y="26.9" width="69.7" fill="url(#SVGID_6_)" height="21.7"/></g></g></g><g><path fill="#020202" d="M32.8,26.4l0.6-1.8h-4.6c-1.1-0.7-2.5-1.1-4-1.1c-3.9,0-7.3,2-7.8,5.4c-0.3,2.1,1,3.9,3.1,4.8      c-1.7,0.6-4,1.7-4,3.8c0,2,1.9,2.6,1.9,2.6s-5,0.301-5,3.5c0,3.2,5.3,3.9,8,3.9s8.1-1.2,8.1-5.6c0-4.4-5.5-4.7-6.3-4.9      c-0.8-0.2-3.2-0.6-3.2-1.5c0-0.7,0.9-1.2,1.6-1.4c0.6,0.2,1.4,0.3,2.1,0.3c4.8,0.1,7.4-2.4,7.8-5.4c0.1-0.9,0-1.8-0.4-2.5      L32.8,26.4L32.8,26.4z M22.3,41.3c1.3,0.4,3.2,1.101,3.2,2.4s-1.8,2.7-4.2,2.7c-2.4,0-5-1.2-5-3.101c0-1.899,2.9-3,2.9-3      S21.1,40.9,22.3,41.3z M26.3,28.9c-0.8,3-1.8,4.4-3.3,4.4c-1.4,0-2.4-1.3-1-5.1c1.2-3.2,2.4-3.8,3.2-3.8      C26.6,24.4,27.1,26,26.3,28.9z M54.7,15.5c-1.4,0-2.7,1-3.101,4c-0.399,3-1.8,13.3-1.8,13.3h0.7c0,0,4-9,4.7-10.7      c0.8-1.7,1.5-3.3,1.5-4.4C56.7,16.7,56,15.5,54.7,15.5z M42.1,23.6c-7.6,0-10.1,9-10.1,10.6c0,1.6,0.4,5.1,4.7,5.1      c6.1,0,10.2-6.6,10.2-10.9C46.9,27.6,46.5,23.6,42.1,23.6z M42,31.3c-0.8,2.6-2.2,6.9-4.4,6.9c-2.3,0-1.3-4.3-0.3-7.4      c0.9-3.1,2.4-6.3,4.3-6.3C43.6,24.5,42.8,28.7,42,31.3z M48.9,34.4c-1.601,0-2.9,1.3-2.9,2.9c0,1.601,1.3,2.9,2.9,2.9      c1.6,0,2.899-1.3,2.899-2.9C51.8,35.7,50.5,34.4,48.9,34.4z"/></g><path fill="#FFFFFF" d="M32.8,26.3l0.6-1.8h-4.6c-1.1-0.7-2.5-1.1-4-1.1c-3.9,0-7.3,2-7.8,5.4c-0.3,2.1,1,3.9,3.1,4.8     c-1.7,0.6-4,1.7-4,3.8c0,2,1.9,2.6,1.9,2.6s-5,0.3-5,3.5c0,3.1,5.3,3.9,8,3.9s8.1-1.2,8.1-5.601c0-4.399-5.5-4.7-6.3-4.899     c-0.8-0.2-3.2-0.601-3.2-1.5c0-0.7,0.9-1.2,1.6-1.4c0.6,0.2,1.4,0.3,2.1,0.3c4.8,0.1,7.4-2.4,7.8-5.4c0.1-0.9,0-1.8-0.4-2.5     L32.8,26.3L32.8,26.3z M22.3,41.2c1.3,0.399,3.2,1.1,3.2,2.399c0,1.301-1.8,2.7-4.2,2.7c-2.4,0-5-1.2-5-3.1c0-1.9,2.9-3,2.9-3     S21.1,40.8,22.3,41.2z M26.3,28.8c-0.8,3-1.8,4.4-3.3,4.4c-1.4,0-2.4-1.3-1-5.1c1.2-3.2,2.4-3.8,3.2-3.8     C26.6,24.4,27.1,26,26.3,28.8z M54.7,15.5c-1.4,0-2.7,1-3.101,4c-0.399,2.9-1.8,13.3-1.8,13.3h0.7c0,0,4-9,4.7-10.7     c0.8-1.7,1.5-3.3,1.5-4.4C56.7,16.7,56,15.5,54.7,15.5z M42.1,23.5c-7.6,0-10.1,9-10.1,10.6s0.4,5.1,4.7,5.1     c6.1,0,10.2-6.6,10.2-10.9C46.9,27.5,46.5,23.5,42.1,23.5z M42,31.2c-0.8,2.6-2.2,6.899-4.4,6.899c-2.2,0-1.3-4.3-0.3-7.399     c0.9-3.1,2.4-6.3,4.3-6.3C43.6,24.4,42.8,28.6,42,31.2z M48.9,34.4c-1.601,0-2.9,1.3-2.9,2.9c0,1.601,1.3,2.9,2.9,2.9     c1.6,0,2.899-1.3,2.899-2.9C51.8,35.7,50.5,34.4,48.9,34.4z"/></g></switch></svg>