<svg xmlns="http://www.w3.org/2000/svg" version="1.0" id="Layer_1" x="0px" y="0px" width="67.752px" height="67.751px" viewBox="0 0 67.752 67.751" enable-background="new 0 0 67.752 67.751" xml:space="preserve"><metadata/><switch><g><g id="ZEST"><g><g><defs><path id="SVGID_1_" d="M0,33.875c0,18.708,15.168,33.876,33.875,33.876c18.713,0,33.877-15.169,33.877-33.876         S52.586,0,33.875,0C15.168,0,0,15.167,0,33.875"/></defs><clipPath id="SVGID_2_"><use xmlns:xlink="http://www.w3.org/1999/xlink" xlink:href="#SVGID_1_" overflow="visible"/></clipPath><path clip-path="url(#SVGID_2_)" fill="#E22B28" d="M67.752,33.875c0,18.708-15.164,33.876-33.877,33.876        C15.168,67.751,0,52.582,0,33.875S15.168,0,33.875,0C52.586,0,67.752,15.167,67.752,33.875"/></g></g><g><g><defs><path id="SVGID_3_" d="M0,33.875c0,18.708,15.168,33.876,33.875,33.876c18.713,0,33.877-15.169,33.877-33.876         S52.586,0,33.875,0C15.168,0,0,15.167,0,33.875"/></defs><clipPath id="SVGID_4_"><use xmlns:xlink="http://www.w3.org/1999/xlink" xlink:href="#SVGID_3_" overflow="visible"/></clipPath><path clip-path="url(#SVGID_4_)" fill="#FFFFFF" d="M23.975,23.437c0.766-0.138,1.335,0.328,1.278,1.035        c-0.058,0.708-0.727,1.399-1.491,1.536c-0.761,0.136-1.335-0.33-1.275-1.038C22.543,24.261,23.21,23.578,23.975,23.437         M15.737,28.515c0.663-2.468,1.465-4.989,2.259-6.871c-1.6,2.098-3.315,4.766-4.86,7.431        C14.036,28.864,14.91,28.678,15.737,28.515 M29.364,26.592c0.599-0.107,1.939,0.703,1.297,1.456        c-0.666,0.773-1.418,0.619-2.6,1.112c-0.669,0.277-1.183,0.877-1.917,1.931c-0.932,1.368-1.359,2.708-1.436,3.715        c-0.006,0.298-0.03,0.447-0.188,0.55c-1.561,1.02-2.041,0.254-2.001-0.683c0.011-0.222,0.087-0.572,0.226-1.002        c-1.201,1.802-2.264,2.712-2.959,2.837c-0.933,0.168-1.458-0.478-1.358-1.676c0.046-0.545,0.209-1.185,0.515-1.99        c0.32-0.819,0.823-1.938,1.29-2.856c0.119-0.239,0.234-0.468,0.331-0.674c-0.708,0.137-1.711,0.345-2.893,0.614        c-0.016,0.039-0.029,0.06-0.043,0.062c-0.502,2.345-0.542,3.229-0.812,5.274c-0.114,0.894,0.057,1.856-1.007,2.003        c-1.065,0.154-1.419-0.943-1.426-1.879c-0.013-0.954,0.163-2.098,0.836-4.873c-1.106,0.282-2.275,0.605-3.433,0.962        c-0.017,0.025-0.027,0.039-0.027,0.039c-1.922,3.518-3.819,7.872-4.133,9.28c-0.25,1.129-0.76,1.476-1.51,1.147        c-0.75-0.329-1.187-1.083-0.914-1.924c0.494-1.51,1.998-4.9,3.336-7.333c-0.009,0.004,0-0.03,0.031-0.09        c-0.981,0.38-1.894,0.789-2.691,1.229c-0.525,0.282-1.187,0.021-1.313-0.566c-0.09-0.417-0.29-1.239,0.729-1.687        c1.54-0.672,3.204-1.242,4.868-1.724c3.532-5.942,7.922-12.057,9.185-11.946c0.545,0.047,0.46,0.639,0.942,1.174        c0.476,0.533,0.545,0.859-0.024,2.272c-1.168,2.9-1.075,2.224-2.195,6.749c2.054-0.341,3.843-0.539,4.01-0.564        c0.567-0.081,1.542,0.306,1.027,1.413c0,0-0.541,0.952-0.754,1.361c-0.385,0.673-0.886,1.687-1.188,2.373        c-0.191,0.403-0.279,0.712-0.294,0.938c-0.016,0.148,0.04,0.23,0.158,0.209c0.157-0.028,0.387-0.198,0.666-0.486        c0.271-0.316,1.183-1.063,2.815-3.812l0.43-0.892c0.14-0.265,0.338-0.732,0.376-0.947c0.044-0.319,0.056-0.402,0.323-0.57        c0.431-0.274,1.209-0.502,1.658-0.208c0.423,0.279,0.313,0.786-0.038,1.4C28.681,26.71,29.047,26.644,29.364,26.592         M57.186,31.22c0.799-0.982,2.036-3.239,2.113-3.854c0.036-0.282-0.046-0.394-0.268-0.365c-0.275,0.037-0.891,0.54-1.479,1.258        c-0.858,1.033-2.016,3.112-2.107,3.798c-0.039,0.281,0.076,0.464,0.274,0.44C56.039,32.453,56.586,31.976,57.186,31.22         M61.976,29.593c0.349-0.552,1.083-0.372,0.888,0.136c-0.171,0.439-0.491,1.151-1.311,2.117        c-1.005,1.236-1.932,1.837-2.771,1.948c-0.673,0.095-1.153-0.194-1.269-0.799l-0.04-0.123c-0.002-0.106-0.056-0.16-0.115-0.149        c-0.061,0.007-0.105,0.052-0.219,0.159c-0.85,0.9-1.497,1.453-2.283,1.561c-1.173,0.152-1.855-0.761-1.688-2.09        c-0.313,0.464-0.639,0.911-0.938,1.239c-0.915,1.018-1.666,1.665-2.361,1.756c-0.941,0.125-1.433-0.545-1.276-1.732        c0.071-0.542,0.273-1.171,0.617-1.971c0.358-0.797,0.911-1.894,1.425-2.788c0.408-0.732,0.804-1.561,0.864-1.843        c0.047-0.223,0.071-0.265,0.246-0.378c0.219-0.156,0.65-0.339,0.912-0.36c0.662-0.05,1.545,0.429,0.96,1.425l-0.218,0.378        c-0.032,0.078-0.431,0.799-0.66,1.191c-0.422,0.662-0.964,1.648-1.302,2.316c-0.212,0.398-0.315,0.703-0.342,0.925        c-0.024,0.148,0.026,0.236,0.144,0.219c0.162-0.021,0.4-0.18,0.689-0.461c0.3-0.311,0.481-0.518,1.145-1.397l0.24-0.304        c0.192-0.249,1.706-2.228,2.161-2.718c1.221-1.457,2.598-2.488,3.483-2.602c0.581-0.08,1.052,0.184,1.277,0.723        c0.159,0.438,0.191,0.467,0.579,0.636c0.624,0.247,0.826,0.456,0.778,0.773c-0.022,0.226-0.106,0.4-0.503,1.022        c-0.277,0.476-0.584,1.031-0.803,1.458c-0.464,0.915-0.718,1.538-0.27,1.697c0.171,0.059,0.484-0.103,0.877-0.518        C61.328,30.58,61.636,30.125,61.976,29.593 M53.959,25.001c0.762-0.136,1.43-0.824,1.49-1.534        c0.054-0.709-0.517-1.17-1.276-1.034c-0.767,0.138-1.435,0.825-1.49,1.536C52.622,24.676,53.199,25.138,53.959,25.001         M42.349,21.643c-1.587,2.087-3.296,4.745-4.842,7.397c0.905-0.206,1.773-0.386,2.588-0.538        C40.762,26.042,41.557,23.523,42.349,21.643 M42.749,28.056c0.457-0.067,1.939-0.244,1.884,0.379        c-0.088,1.003-0.466,0.988-1.793,1.272c-0.251,0.057-0.518,0.114-0.797,0.173c-0.021,0.067-0.043,0.107-0.06,0.108        c-0.498,2.345-0.538,3.232-0.812,5.274c-0.118,0.896,0.057,1.856-1.008,2.003c-1.063,0.155-1.431-0.943-1.425-1.879        c0.002-1.655,0.839-4.902,0.844-4.92c-1.085,0.275-2.245,0.589-3.402,0.951c-1.376,2.338-3.885,7.971-4.195,9.378        c-0.253,1.13-0.762,1.476-1.514,1.146c-0.749-0.325-1.168-1.074-0.911-1.922c0.699-2.33,3.341-7.378,3.382-7.469        c-0.979,0.394-1.892,0.816-2.68,1.266c-0.488,0.278-1.11,0.013-1.243-0.572c-0.087-0.421-0.281-1.24,0.672-1.677        c1.528-0.695,3.19-1.279,4.85-1.757c3.526-5.931,7.9-12.017,9.16-11.904c0.549,0.045,0.463,0.637,0.943,1.172        c0.479,0.532,0.546,0.859-0.027,2.272c-1.162,2.901-1.067,2.225-2.19,6.756C42.537,28.09,42.641,28.072,42.749,28.056         M44.433,36.277c0.872-0.092,3.418-0.648,3.444-3.445c0.006-1.082-1.03-1.653-1.279-2.407        c-0.164-0.466-0.124-1.428,0.611-1.717c0.909-0.357,1.097,0.24,1.411,0.687c0.129,0.182,0.548,0.139,0.688-0.01        c0.198-0.206,0.489-0.514,0.613-1.039c0.11-0.48-0.398-1.286-1.879-1.236c-0.517,0.012-1.249,0.099-2.286,1.088        c-0.478,0.455-1.998,2.536-0.872,4.322c0.305,0.484,1.036,1.078,0.565,1.534c-0.734,0.707-1.994-0.389-2.233-0.719        c-0.107-0.153-0.421-0.331-0.625-0.029c-0.119,0.172-0.685,1.18-0.597,1.552C42.249,36.022,43.749,36.346,44.433,36.277"/></g></g><g><g><defs><path id="SVGID_5_" d="M0,33.875c0,18.708,15.168,33.876,33.875,33.876c18.713,0,33.877-15.169,33.877-33.876         S52.586,0,33.875,0C15.168,0,0,15.167,0,33.875"/></defs><clipPath id="SVGID_6_"><use xmlns:xlink="http://www.w3.org/1999/xlink" xlink:href="#SVGID_5_" overflow="visible"/></clipPath><g clip-path="url(#SVGID_6_)"><path fill="#FFFFFF" d="M20.236,51.165v-0.031c0-0.288,0.106-0.542,0.296-0.764l3.855-4.481h-3.302         c-0.394,0-0.723-0.32-0.723-0.712c0-0.394,0.329-0.723,0.723-0.723h4.747c0.393,0,0.722,0.329,0.722,0.723v0.03         c0,0.287-0.106,0.531-0.298,0.765l-3.854,4.481h3.43c0.394,0,0.722,0.331,0.722,0.723c0,0.395-0.329,0.713-0.722,0.713h-4.875         C20.564,51.889,20.236,51.559,20.236,51.165z"/><path fill="#FFFFFF" d="M28.042,51.07v-5.797c0-0.459,0.361-0.819,0.818-0.819h4.121c0.403,0,0.732,0.329,0.732,0.732         c0,0.405-0.329,0.724-0.732,0.724h-3.313v1.507h2.835c0.404,0,0.733,0.33,0.733,0.733s-0.329,0.722-0.733,0.722h-2.835v1.561         h3.366c0.404,0,0.733,0.329,0.733,0.732c0,0.405-0.329,0.724-0.733,0.724H28.86C28.403,51.889,28.042,51.525,28.042,51.07z"/><path fill="#FFFFFF" d="M35.009,51.103c-0.181-0.128-0.308-0.363-0.308-0.616c0-0.427,0.338-0.754,0.765-0.754         c0.211,0,0.359,0.073,0.466,0.147c0.562,0.414,1.179,0.67,1.901,0.67c0.669,0,1.072-0.267,1.072-0.7v-0.022         c0-0.413-0.255-0.627-1.497-0.945c-1.496-0.383-2.464-0.796-2.464-2.272v-0.022c0-1.347,1.083-2.24,2.602-2.24         c0.902,0,1.689,0.234,2.359,0.659c0.18,0.106,0.358,0.329,0.358,0.647c0,0.425-0.338,0.754-0.764,0.754         c-0.159,0-0.288-0.042-0.414-0.116c-0.542-0.319-1.052-0.499-1.561-0.499c-0.626,0-0.956,0.286-0.956,0.646v0.022         c0,0.488,0.318,0.647,1.604,0.977c1.508,0.394,2.357,0.936,2.357,2.23v0.022c0,1.475-1.127,2.304-2.73,2.304         C36.825,51.994,35.837,51.697,35.009,51.103z"/><path fill="#FFFFFF" d="M43.527,45.961h-1.571c-0.414,0-0.755-0.339-0.755-0.754c0-0.413,0.341-0.754,0.755-0.754h4.777         c0.416,0,0.755,0.341,0.755,0.754c0,0.415-0.339,0.754-0.755,0.754h-1.572v5.173c0,0.456-0.36,0.818-0.816,0.818         c-0.457,0-0.817-0.362-0.817-0.818V45.961L43.527,45.961z"/></g></g></g></g></g></switch></svg>