<svg xmlns="http://www.w3.org/2000/svg" version="1.1" id="Layer_1" x="0px" y="0px" width="70px" height="70px" viewBox="0 0 70 70" enable-background="new 0 0 70 70" xml:space="preserve"><path fill="#DCA027" d="M44.634,26.976c0.029-0.03,0.041-0.067,0.035-0.108   c0.119-0.313,0.388-0.292,0.634-0.254c1.803,0.275,3.6,0.584,5.377,0.999c0.183,0.042,0.365,0.104,0.475,0.28   c0.038,0.27-0.173,0.354-0.347,0.469c-1.093,0.438-2.192,0.867-3.284,1.311c-0.95,0.4-1.901,0.799-2.832,1.24   c-0.511,0.242-1.019,0.49-1.568,0.637c-1.211,0.369-2.288,1.035-3.399,1.609c-5.338,2.764-10.424,5.949-15.318,9.432   c-2.921,2.078-5.777,4.25-8.562,6.512c-3.745,3.041-7.402,6.184-11.005,9.393C3.899,59.33,2.957,60.164,2.016,61C1,61,1,61,1,59.984   c0-0.127,0-0.254,0-0.381c2.865-3.379,5.931-6.57,9.1-9.664c6.098-5.951,12.685-11.289,19.948-15.768   c0.728-0.449,1.45-0.906,2.175-1.357c0.191-0.238,0.479-0.35,0.705-0.543c2.466-1.293,4.935-2.58,7.491-3.697   c0.714-0.312,1.437-0.598,2.185-0.817c0.467-0.088,0.912-0.229,1.3-0.516C44.1,27.02,44.429,27.17,44.634,26.976z" clip-rule="evenodd" fill-rule="evenodd"/><path fill="#C32326" d="M51.142,27.993c-1.311-0.44-2.678-0.619-4.029-0.871   c-0.677-0.128-1.357-0.233-2.034-0.362c-0.164-0.031-0.282,0.037-0.409,0.107c-0.122-0.049-0.244-0.098-0.365-0.147   c-0.511-0.091-1.043-0.032-1.54-0.222c-5.852-0.734-11.725-0.78-17.607-0.627c-0.063,0.001-0.126,0.013-0.19,0.009   c-0.437-0.021-0.94,0.052-1.089-0.523c-0.1-0.388,0.349-0.794,0.979-0.874c1.865-0.239,3.729-0.491,5.599-0.678   c3.964-0.398,7.936-0.424,11.91-0.146c0.395-0.311,0.843-0.222,1.259-0.113c0.515,0.134,1.028,0.174,1.552,0.164   c0.744-0.013,1.442,0.184,2.124,0.459c1.324,0.258,2.646,0.515,3.97,0.772c1.367,0.033,2.624,0.535,3.908,0.917   c0.411,0.122,0.887,0.146,1.159,0.566c4.143,1.381,8.011,3.31,11.591,5.814c0.239,0.168,0.473,0.355,0.679,0.562   c0.248,0.248,0.582,0.525,0.337,0.92c-0.227,0.365-0.629,0.395-1.019,0.279c-0.484-0.141-0.96-0.309-1.44-0.463   c-0.345-0.162-0.704-0.285-1.083-0.348c-0.646-0.098-1.111-0.572-1.694-0.818c-1.457-0.617-2.923-1.209-4.396-1.785   c-0.098-0.039-0.186-0.1-0.266-0.17c-0.198-0.271-0.491-0.191-0.761-0.205c-0.654-0.078-1.235-0.4-1.855-0.588   c-1.612-0.484-3.229-0.95-4.848-1.408C51.42,28.171,51.248,28.147,51.142,27.993z" clip-rule="evenodd" fill-rule="evenodd"/><path fill="#0F753C" d="M42.604,27.757c-0.713,0.534-1.576,0.745-2.369,1.103   c-2.271,1.021-4.487,2.154-6.69,3.312c-0.18,0.096-0.374,0.168-0.56,0.252c-0.279,0.191-0.594,0.139-0.903,0.133   c-2.146,0.18-4.262,0.578-6.38,0.949c-4.785,0.838-9.525,1.889-14.238,3.068c-0.184,0.045-0.373,0.074-0.56,0.102   c-0.371,0.057-0.747,0.072-0.917-0.35c-0.175-0.436,0.1-0.738,0.415-0.963c0.469-0.334,1.038-0.465,1.567-0.672   c5.459-2.125,11.041-3.857,16.77-5.094C33.31,28.613,37.925,27.945,42.604,27.757z" clip-rule="evenodd" fill-rule="evenodd"/><path fill="#10395E" d="M47.47,29.538c1.064-0.499,2.137-0.979,3.277-1.288   c0.289,0.08,0.453,0.314,0.601,0.539c0.546,0.829,1.143,1.621,1.718,2.428c0.099,0.139,0.199,0.281,0.103,0.463   c1.313,2.168,2.592,4.352,3.652,6.656c1.28,2.789,2.312,5.666,3.061,8.643c0.071,0.285,0.11,0.58,0.134,0.875   c0.02,0.279-0.016,0.574-0.304,0.711c-0.325,0.156-0.575-0.061-0.784-0.264c-0.322-0.311-0.521-0.713-0.715-1.113   c-1.841-3.803-3.848-7.516-6.127-11.078c-0.911-1.422-1.852-2.826-2.857-4.186c-0.138-0.186-0.257-0.389-0.489-0.479   C48.242,30.857,47.638,30.342,47.47,29.538z" clip-rule="evenodd" fill-rule="evenodd"/><path fill="#123D64" d="M47.299,24.17c-1.224-0.13-2.455-0.196-3.672-0.418   c-0.411-0.074-0.84-0.063-1.263-0.092c-2.174-2.426-4.539-4.661-6.953-6.845c-1.942-1.758-3.933-3.464-5.889-5.207   c-0.292-0.261-0.802-0.538-0.471-1.028c0.338-0.503,0.843-0.363,1.295-0.094C36.649,14.239,42.387,18.695,47.299,24.17z" clip-rule="evenodd" fill-rule="evenodd"/><path fill="#DA9F28" d="M56.336,26.426c-1.437-0.467-2.878-0.916-4.354-1.24   c-0.244-0.054-0.476-0.16-0.714-0.243c0.768-0.424,1.637-0.515,2.463-0.731c2.345-0.612,4.721-1.096,7.117-1.451   c1.668-0.246,3.321-0.62,5.021-0.6c0.229,0.003,0.471,0.011,0.688,0.077c0.535,0.164,0.645,0.66,0.26,1.073   c-0.317,0.341-0.746,0.493-1.169,0.578c-2.83,0.571-5.62,1.289-8.385,2.107C56.947,26.09,56.549,26.079,56.336,26.426z" clip-rule="evenodd" fill-rule="evenodd"/><path fill="#0F7B3E" d="M53.168,31.68c-0.808-1.143-1.613-2.285-2.421-3.43   c0.131-0.086,0.264-0.172,0.395-0.257c0.921,0.038,1.772,0.385,2.646,0.618c1.07,0.287,2.127,0.629,3.198,0.916   c0.479,0.129,0.874,0.471,1.383,0.502c0.188,0.244,0.563-0.004,0.735,0.281c2.177,0.805,4.352,1.613,6.377,2.766   c0.07,0.086,0.076,0.168-0.009,0.246c-1.051-0.193-2.099-0.391-3.149-0.576C59.293,32.211,56.241,31.85,53.168,31.68z" clip-rule="evenodd" fill-rule="evenodd"/><path fill="#137B3E" d="M47.47,29.538c0.397,0.653,1.035,1.144,1.269,1.907   c-0.707,0.143-1.423,0.027-2.133,0.053c-1.16,0.041-2.322,0.037-3.482,0.051c0.526-0.504,1.228-0.688,1.864-0.973   C45.807,30.211,46.598,29.775,47.47,29.538z" clip-rule="evenodd" fill-rule="evenodd"/></svg>