<svg xmlns="http://www.w3.org/2000/svg" version="1.1" width="70px" height="70px" viewBox="0 0 70 70"><g id="surface1"><path d="M 0 0 C 23.101562 0 46.199219 0 70 0 C 70 23.101562 70 46.199219 70 70 C 46.898438 70 23.800781 70 0 70 C 0 46.898438 0 23.800781 0 0 Z M 0 0 " style=" stroke:none;fill-rule:nonzero;fill:rgb(99.607843%,99.607843%,99.607843%);fill-opacity:1;"/><path d="M 45.011719 10.621094 C 45.082031 10.617188 45.152344 10.617188 45.222656 10.617188 C 45.300781 10.617188 45.375 10.617188 45.457031 10.617188 C 45.578125 10.617188 45.578125 10.617188 45.699219 10.617188 C 45.96875 10.613281 46.238281 10.613281 46.503906 10.613281 C 46.597656 10.613281 46.691406 10.609375 46.78125 10.609375 C 47.167969 10.609375 47.554688 10.609375 47.941406 10.609375 C 48.492188 10.605469 49.039062 10.605469 49.589844 10.601562 C 49.980469 10.597656 50.367188 10.597656 50.757812 10.597656 C 50.988281 10.597656 51.21875 10.59375 51.449219 10.59375 C 51.710938 10.589844 51.96875 10.589844 52.226562 10.59375 C 52.339844 10.589844 52.339844 10.589844 52.457031 10.589844 C 53.222656 10.59375 53.894531 10.867188 54.445312 11.40625 C 54.597656 11.589844 54.71875 11.78125 54.832031 11.992188 C 54.875 12.0625 54.875 12.0625 54.914062 12.132812 C 55.074219 12.464844 55.109375 12.769531 55.105469 13.132812 C 55.105469 13.179688 55.105469 13.226562 55.105469 13.277344 C 55.097656 13.859375 55.050781 14.441406 55.003906 15.019531 C 54.996094 15.136719 54.984375 15.253906 54.976562 15.367188 C 54.929688 15.980469 54.875 16.59375 54.8125 17.207031 C 54.757812 17.777344 54.722656 18.351562 54.6875 18.925781 C 54.65625 19.378906 54.625 19.832031 54.574219 20.28125 C 54.507812 20.878906 54.472656 21.476562 54.4375 22.074219 C 54.402344 22.628906 54.359375 23.183594 54.296875 23.742188 C 54.246094 24.242188 54.214844 24.742188 54.183594 25.246094 C 54.148438 25.847656 54.105469 26.445312 54.039062 27.046875 C 53.976562 27.628906 53.945312 28.210938 53.910156 28.792969 C 53.886719 29.246094 53.847656 29.695312 53.800781 30.148438 C 53.710938 31.015625 53.65625 31.882812 53.597656 32.75 C 53.582031 33 53.5625 33.253906 53.546875 33.503906 C 53.535156 33.65625 53.527344 33.8125 53.515625 33.964844 C 53.492188 34.3125 53.457031 34.65625 53.40625 35 C 53.390625 35.207031 53.375 35.414062 53.363281 35.621094 C 53.355469 35.746094 53.347656 35.867188 53.339844 35.992188 C 53.328125 36.179688 53.3125 36.371094 53.300781 36.558594 C 53.257812 37.269531 53.203125 37.976562 53.128906 38.6875 C 53.070312 39.242188 53.039062 39.796875 53.007812 40.355469 C 53 40.484375 52.992188 40.613281 52.984375 40.746094 C 52.980469 40.820312 52.976562 40.894531 52.972656 40.972656 C 52.953125 41.15625 52.953125 41.15625 52.890625 41.351562 C 52.847656 41.351562 52.804688 41.351562 52.757812 41.351562 C 52.78125 41.417969 52.800781 41.480469 52.824219 41.546875 C 52.851562 42.148438 52.8125 42.753906 52.773438 43.355469 C 52.761719 43.488281 52.753906 43.621094 52.746094 43.753906 C 52.703125 44.402344 52.703125 44.402344 52.660156 44.691406 C 52.632812 44.902344 52.613281 45.113281 52.601562 45.324219 C 52.59375 45.441406 52.59375 45.441406 52.585938 45.5625 C 52.582031 45.644531 52.578125 45.730469 52.574219 45.816406 C 52.527344 46.542969 52.472656 47.269531 52.402344 47.996094 C 52.328125 48.78125 52.269531 49.566406 52.222656 50.355469 C 52.199219 50.800781 52.160156 51.246094 52.113281 51.6875 C 52.039062 52.40625 51.992188 53.128906 51.945312 53.847656 C 51.933594 54.039062 51.921875 54.230469 51.90625 54.417969 C 51.898438 54.535156 51.894531 54.652344 51.886719 54.769531 C 51.867188 55.074219 51.832031 55.375 51.785156 55.675781 C 51.78125 55.761719 51.777344 55.851562 51.777344 55.9375 C 51.746094 56.964844 51.632812 57.867188 50.902344 58.640625 C 50.339844 59.167969 49.714844 59.316406 48.964844 59.3125 C 48.910156 59.3125 48.855469 59.3125 48.796875 59.3125 C 48.617188 59.3125 48.433594 59.3125 48.25 59.3125 C 48.117188 59.3125 47.984375 59.3125 47.855469 59.3125 C 47.496094 59.3125 47.140625 59.3125 46.78125 59.3125 C 46.410156 59.3125 46.035156 59.3125 45.664062 59.3125 C 44.957031 59.3125 44.25 59.3125 43.542969 59.308594 C 42.738281 59.308594 41.933594 59.308594 41.128906 59.308594 C 39.476562 59.308594 37.820312 59.308594 36.167969 59.304688 C 36.167969 59.21875 36.167969 59.132812 36.167969 59.046875 C 36.140625 59.089844 36.113281 59.128906 36.085938 59.175781 C 35.972656 59.304688 35.972656 59.304688 35.839844 59.335938 C 35.761719 59.335938 35.761719 59.335938 35.679688 59.335938 C 35.621094 59.339844 35.558594 59.339844 35.496094 59.339844 C 35.429688 59.339844 35.363281 59.335938 35.296875 59.335938 C 35.191406 59.335938 35.191406 59.335938 35.082031 59.335938 C 34.847656 59.335938 34.609375 59.335938 34.375 59.335938 C 34.203125 59.335938 34.035156 59.335938 33.867188 59.335938 C 33.5 59.335938 33.136719 59.335938 32.769531 59.332031 C 32.242188 59.332031 31.714844 59.332031 31.1875 59.328125 C 30.332031 59.328125 29.476562 59.328125 28.621094 59.324219 C 27.789062 59.324219 26.957031 59.320312 26.125 59.320312 C 26.046875 59.320312 26.046875 59.320312 25.96875 59.320312 C 25.710938 59.320312 25.453125 59.320312 25.199219 59.320312 C 23.0625 59.316406 20.929688 59.3125 18.796875 59.304688 C 18.859375 59.222656 18.917969 59.140625 18.980469 59.054688 C 19.015625 59.011719 19.050781 58.964844 19.085938 58.917969 C 19.203125 58.761719 19.332031 58.625 19.46875 58.492188 C 19.519531 58.441406 19.566406 58.394531 19.617188 58.34375 C 19.761719 58.210938 19.90625 58.085938 20.050781 57.960938 C 20.238281 57.800781 20.371094 57.652344 20.480469 57.425781 C 20.191406 57.65625 19.953125 57.894531 19.714844 58.179688 C 18.738281 59.3125 18.738281 59.3125 18.105469 59.414062 C 17.433594 59.449219 16.710938 59.351562 16.140625 58.980469 C 16.085938 58.949219 16.035156 58.917969 15.980469 58.882812 C 15.472656 58.535156 15.105469 57.984375 14.9375 57.394531 C 14.734375 56.230469 15.230469 55.472656 15.839844 54.542969 C 16.003906 54.289062 16.164062 54.03125 16.324219 53.777344 C 16.644531 53.269531 16.96875 52.761719 17.292969 52.253906 C 17.664062 51.667969 18.035156 51.078125 18.40625 50.492188 C 18.855469 49.78125 19.304688 49.074219 19.753906 48.363281 C 20.128906 47.777344 20.5 47.191406 20.871094 46.601562 C 21.316406 45.890625 21.765625 45.183594 22.21875 44.476562 C 22.589844 43.890625 22.960938 43.300781 23.332031 42.714844 C 23.78125 42.003906 24.230469 41.292969 24.679688 40.585938 C 25.054688 40 25.425781 39.414062 25.796875 38.824219 C 26.242188 38.113281 26.691406 37.40625 27.144531 36.699219 C 27.515625 36.113281 27.886719 35.523438 28.257812 34.933594 C 28.707031 34.226562 29.15625 33.515625 29.605469 32.808594 C 29.980469 32.222656 30.351562 31.632812 30.722656 31.046875 C 31.167969 30.335938 31.617188 29.628906 32.070312 28.921875 C 32.441406 28.332031 32.8125 27.746094 33.183594 27.15625 C 33.632812 26.449219 34.082031 25.738281 34.53125 25.03125 C 34.90625 24.445312 35.277344 23.855469 35.648438 23.269531 C 36.09375 22.558594 36.542969 21.851562 36.996094 21.140625 C 37.367188 20.554688 37.738281 19.96875 38.109375 19.378906 C 38.558594 18.671875 39.007812 17.960938 39.457031 17.253906 C 39.832031 16.667969 40.203125 16.078125 40.574219 15.492188 C 41.019531 14.78125 41.46875 14.074219 41.921875 13.367188 C 42.105469 13.074219 42.292969 12.78125 42.472656 12.488281 C 42.984375 11.652344 43.464844 10.902344 44.484375 10.65625 C 44.664062 10.628906 44.832031 10.621094 45.011719 10.621094 Z M 45.011719 10.621094 " style=" stroke:none;fill-rule:nonzero;fill:rgb(86.666667%,1.176471%,5.490196%);fill-opacity:1;"/><path d="M 44.722656 47.054688 C 44.621094 47.324219 44.417969 47.488281 44.207031 47.675781 C 44.132812 47.746094 44.054688 47.8125 43.980469 47.882812 C 43.941406 47.917969 43.902344 47.953125 43.863281 47.988281 C 43.457031 48.363281 43.066406 48.757812 42.707031 49.179688 C 42.578125 49.332031 42.441406 49.476562 42.304688 49.625 C 41.925781 50.03125 41.566406 50.445312 41.222656 50.878906 C 41.164062 50.953125 41.105469 51.023438 41.046875 51.097656 C 39.921875 52.480469 38.878906 53.941406 37.988281 55.484375 C 37.910156 55.625 37.824219 55.765625 37.742188 55.90625 C 37.207031 56.820312 36.734375 57.765625 36.265625 58.714844 C 36.167969 58.914062 36.070312 59.109375 35.972656 59.304688 C 30.304688 59.304688 24.636719 59.304688 18.796875 59.304688 C 19.210938 58.753906 19.644531 58.304688 20.164062 57.859375 C 20.28125 57.753906 20.390625 57.644531 20.5 57.53125 C 20.742188 57.285156 21.003906 57.078125 21.273438 56.863281 C 21.4375 56.726562 21.597656 56.582031 21.753906 56.4375 C 22.171875 56.058594 22.621094 55.726562 23.070312 55.386719 C 23.1875 55.300781 23.300781 55.210938 23.417969 55.121094 C 24.742188 54.082031 26.15625 53.152344 27.609375 52.304688 C 27.660156 52.277344 27.710938 52.246094 27.761719 52.21875 C 29.867188 50.988281 32.050781 49.925781 34.324219 49.042969 C 34.429688 49.003906 34.429688 49.003906 34.535156 48.960938 C 34.898438 48.824219 35.261719 48.695312 35.632812 48.589844 C 35.789062 48.542969 35.9375 48.484375 36.089844 48.421875 C 37.207031 47.964844 38.425781 47.695312 39.597656 47.414062 C 39.742188 47.375 39.890625 47.339844 40.035156 47.304688 C 40.691406 47.140625 41.347656 47 42.011719 46.875 C 42.121094 46.851562 42.121094 46.851562 42.234375 46.832031 C 43.027344 46.683594 44.007812 46.605469 44.722656 47.054688 Z M 44.722656 47.054688 " style=" stroke:none;fill-rule:nonzero;fill:rgb(86.274511%,1.176471%,5.490196%);fill-opacity:1;"/><path d="M 50.042969 46.121094 C 50.226562 46.125 50.40625 46.125 50.589844 46.125 C 50.96875 46.128906 51.34375 46.128906 51.722656 46.136719 C 51.820312 46.136719 51.820312 46.136719 51.921875 46.136719 C 52.117188 46.148438 52.304688 46.175781 52.5 46.214844 C 52.511719 46.738281 52.476562 47.253906 52.425781 47.777344 C 52.339844 48.636719 52.273438 49.492188 52.222656 50.355469 C 52.199219 50.800781 52.160156 51.246094 52.113281 51.6875 C 52.039062 52.40625 51.992188 53.128906 51.945312 53.847656 C 51.933594 54.039062 51.921875 54.230469 51.90625 54.417969 C 51.898438 54.535156 51.894531 54.652344 51.886719 54.769531 C 51.867188 55.074219 51.832031 55.375 51.785156 55.675781 C 51.78125 55.761719 51.777344 55.851562 51.777344 55.9375 C 51.746094 56.964844 51.632812 57.867188 50.902344 58.640625 C 50.339844 59.167969 49.714844 59.316406 48.964844 59.3125 C 48.882812 59.3125 48.882812 59.3125 48.796875 59.3125 C 48.617188 59.3125 48.433594 59.3125 48.25 59.3125 C 48.117188 59.3125 47.984375 59.3125 47.855469 59.3125 C 47.496094 59.3125 47.140625 59.3125 46.78125 59.3125 C 46.410156 59.3125 46.035156 59.3125 45.664062 59.3125 C 44.957031 59.3125 44.25 59.3125 43.542969 59.308594 C 42.738281 59.308594 41.933594 59.308594 41.128906 59.308594 C 39.476562 59.308594 37.820312 59.308594 36.167969 59.304688 C 36.558594 58.117188 37.222656 57.011719 37.851562 55.933594 C 37.882812 55.878906 37.917969 55.824219 37.949219 55.765625 C 39.257812 53.511719 40.839844 51.40625 42.613281 49.496094 C 42.6875 49.414062 42.761719 49.332031 42.835938 49.25 C 43.234375 48.800781 43.652344 48.375 44.078125 47.953125 C 44.148438 47.886719 44.214844 47.816406 44.285156 47.75 C 44.453125 47.582031 44.621094 47.414062 44.785156 47.25 C 45.140625 47.410156 45.246094 47.679688 45.390625 48.03125 C 45.589844 48.585938 45.679688 49.191406 45.757812 49.777344 C 45.824219 49.800781 45.886719 49.820312 45.953125 49.84375 C 45.953125 49.757812 45.953125 49.757812 45.949219 49.675781 C 45.949219 49.464844 45.945312 49.257812 45.941406 49.046875 C 45.941406 48.957031 45.941406 48.867188 45.9375 48.777344 C 45.925781 48.097656 45.933594 47.398438 46.40625 46.859375 C 47.445312 46.023438 48.789062 46.105469 50.042969 46.121094 Z M 50.042969 46.121094 " style=" stroke:none;fill-rule:nonzero;fill:rgb(86.666667%,1.176471%,5.490196%);fill-opacity:1;"/><path d="M 52.628906 41.417969 C 52.757812 41.480469 52.757812 41.480469 52.824219 41.546875 C 52.855469 42.148438 52.8125 42.753906 52.773438 43.355469 C 52.761719 43.488281 52.753906 43.621094 52.746094 43.753906 C 52.71875 44.144531 52.683594 44.527344 52.628906 44.917969 C 52.621094 45.03125 52.613281 45.144531 52.609375 45.257812 C 52.605469 45.320312 52.605469 45.378906 52.601562 45.441406 C 52.597656 45.53125 52.597656 45.53125 52.59375 45.625 C 52.589844 45.6875 52.585938 45.75 52.585938 45.816406 C 52.578125 45.96875 52.570312 46.125 52.566406 46.277344 C 52.507812 46.265625 52.449219 46.257812 52.390625 46.246094 C 51.753906 46.15625 51.09375 46.191406 50.449219 46.191406 C 50.265625 46.1875 50.085938 46.1875 49.90625 46.183594 C 48.128906 46.148438 48.128906 46.148438 46.535156 46.859375 C 46.496094 46.859375 46.453125 46.859375 46.40625 46.859375 C 46.144531 47.367188 46.015625 47.789062 45.996094 48.355469 C 45.996094 48.417969 45.996094 48.417969 45.992188 48.484375 C 45.988281 48.621094 45.984375 48.753906 45.980469 48.890625 C 45.980469 48.984375 45.976562 49.074219 45.972656 49.167969 C 45.964844 49.390625 45.960938 49.617188 45.953125 49.84375 C 45.867188 49.820312 45.78125 49.800781 45.695312 49.777344 C 45.675781 49.679688 45.675781 49.679688 45.660156 49.574219 C 45.519531 48.796875 45.367188 48.082031 44.980469 47.378906 C 44.683594 47.378906 44.632812 47.441406 44.429688 47.644531 C 44.390625 47.679688 44.355469 47.71875 44.316406 47.757812 C 44.277344 47.796875 44.238281 47.835938 44.199219 47.875 C 44.074219 48.003906 43.949219 48.128906 43.828125 48.253906 C 43.746094 48.335938 43.664062 48.421875 43.578125 48.503906 C 43.191406 48.894531 42.8125 49.292969 42.453125 49.714844 C 42.347656 49.828125 42.242188 49.941406 42.136719 50.058594 C 41.820312 50.40625 41.515625 50.769531 41.222656 51.140625 C 41.1875 51.179688 41.15625 51.222656 41.121094 51.265625 C 39.242188 53.640625 37.488281 56.25 36.296875 59.046875 C 36.230469 59.046875 36.167969 59.046875 36.101562 59.046875 C 36.191406 58.753906 36.304688 58.488281 36.441406 58.214844 C 36.460938 58.175781 36.484375 58.132812 36.503906 58.089844 C 36.570312 57.953125 36.636719 57.820312 36.707031 57.683594 C 36.730469 57.640625 36.75 57.59375 36.777344 57.546875 C 37.1875 56.726562 37.628906 55.933594 38.109375 55.15625 C 38.160156 55.078125 38.160156 55.078125 38.210938 54.996094 C 39.507812 52.886719 41.050781 50.960938 42.714844 49.128906 C 42.742188 49.097656 42.773438 49.066406 42.800781 49.03125 C 43.164062 48.636719 43.527344 48.246094 43.902344 47.867188 C 43.933594 47.835938 43.964844 47.804688 43.996094 47.769531 C 44.152344 47.617188 44.3125 47.472656 44.480469 47.332031 C 44.660156 47.203125 44.660156 47.203125 44.722656 47.054688 C 44.3125 46.898438 43.929688 46.8125 43.492188 46.796875 C 43.445312 46.792969 43.402344 46.792969 43.355469 46.789062 C 42.902344 46.777344 42.480469 46.847656 42.035156 46.933594 C 41.960938 46.949219 41.886719 46.964844 41.808594 46.976562 C 40.691406 47.195312 39.574219 47.421875 38.484375 47.757812 C 38.242188 47.832031 37.996094 47.898438 37.75 47.964844 C 37.402344 48.054688 37.058594 48.152344 36.71875 48.257812 C 36.675781 48.273438 36.632812 48.285156 36.589844 48.296875 C 36.398438 48.359375 36.210938 48.425781 36.027344 48.507812 C 35.816406 48.601562 35.601562 48.667969 35.378906 48.734375 C 32.75 49.527344 30.132812 50.855469 27.789062 52.265625 C 27.621094 52.363281 27.453125 52.464844 27.285156 52.5625 C 25.652344 53.515625 24.09375 54.621094 22.621094 55.804688 C 22.558594 55.855469 22.5 55.902344 22.4375 55.953125 C 22.0625 56.257812 21.691406 56.574219 21.324219 56.890625 C 21.050781 57.125 20.773438 57.34375 20.480469 57.554688 C 20.710938 57.0625 21.097656 56.75 21.515625 56.417969 C 21.683594 56.28125 21.847656 56.144531 22.011719 56.003906 C 22.519531 55.566406 23.050781 55.164062 23.59375 54.769531 C 23.636719 54.734375 23.683594 54.703125 23.730469 54.667969 C 28.953125 50.820312 34.851562 48.261719 42.304688 46.652344 C 43.667969 46.46875 43.667969 46.46875 44.785156 45.757812 C 44.96875 45.390625 45.050781 45.058594 45.066406 44.652344 C 45.070312 44.589844 45.070312 44.53125 45.074219 44.46875 C 45.078125 44.375 45.078125 44.375 45.082031 44.28125 C 45.085938 44.21875 45.089844 44.152344 45.089844 44.089844 C 45.097656 43.933594 45.105469 43.777344 45.109375 43.621094 C 45.207031 43.589844 45.207031 43.589844 45.304688 43.554688 C 45.332031 43.660156 45.332031 43.660156 45.359375 43.765625 C 45.375 43.835938 45.375 43.835938 45.394531 43.910156 C 45.421875 44.027344 45.449219 44.144531 45.476562 44.261719 C 45.613281 44.84375 45.746094 45.359375 46.214844 45.757812 C 46.5 45.546875 46.78125 45.332031 47.054688 45.109375 C 48.660156 43.808594 50.402344 42.675781 52.1875 41.652344 C 52.230469 41.625 52.273438 41.601562 52.320312 41.574219 C 52.421875 41.519531 52.523438 41.46875 52.628906 41.417969 Z M 52.628906 41.417969 " style=" stroke:none;fill-rule:nonzero;fill:rgb(99.215686%,96.470588%,96.470588%);fill-opacity:1;"/><path d="M 52.824219 41.546875 C 52.832031 42.179688 52.808594 42.804688 52.765625 43.433594 C 52.765625 43.476562 52.761719 43.519531 52.757812 43.566406 C 52.722656 44.117188 52.679688 44.667969 52.625 45.21875 C 52.621094 45.273438 52.617188 45.324219 52.609375 45.378906 C 52.585938 45.597656 52.554688 45.804688 52.5 46.019531 C 51.742188 46.023438 50.984375 46.027344 50.226562 46.027344 C 49.875 46.03125 49.523438 46.03125 49.171875 46.03125 C 48.835938 46.035156 48.496094 46.035156 48.15625 46.035156 C 48.027344 46.039062 47.898438 46.039062 47.765625 46.039062 C 47.585938 46.039062 47.40625 46.039062 47.222656 46.039062 C 47.171875 46.042969 47.117188 46.042969 47.0625 46.042969 C 46.691406 46.039062 46.691406 46.039062 46.554688 45.917969 C 46.527344 45.886719 46.5 45.855469 46.472656 45.824219 C 46.855469 45.472656 47.253906 45.144531 47.671875 44.835938 C 47.753906 44.773438 47.753906 44.773438 47.84375 44.707031 C 52.109375 41.546875 52.109375 41.546875 52.824219 41.546875 Z M 52.824219 41.546875 " style=" stroke:none;fill-rule:nonzero;fill:rgb(86.666667%,1.960784%,5.882353%);fill-opacity:1;"/><path d="M 40.789062 26.109375 C 41.203125 26.316406 41.46875 26.613281 41.675781 27.027344 C 41.679688 27.148438 41.679688 27.269531 41.679688 27.390625 C 41.679688 27.457031 41.679688 27.523438 41.679688 27.589844 C 41.675781 27.640625 41.675781 27.6875 41.675781 27.742188 C 41.730469 27.734375 41.730469 27.734375 41.785156 27.730469 C 42.453125 27.703125 43.097656 27.863281 43.75 28 C 43.664062 28.222656 43.570312 28.429688 43.445312 28.636719 C 43.417969 28.6875 43.386719 28.738281 43.355469 28.792969 C 43.230469 28.90625 43.230469 28.90625 43.023438 28.929688 C 42.769531 28.90625 42.535156 28.863281 42.289062 28.808594 C 41.855469 28.714844 41.855469 28.714844 41.417969 28.714844 C 41.257812 28.898438 41.257812 28.898438 41.15625 29.101562 C 41.214844 29.128906 41.214844 29.128906 41.273438 29.152344 C 41.421875 29.234375 41.511719 29.316406 41.628906 29.4375 C 41.867188 29.6875 42.125 29.914062 42.390625 30.140625 C 42.28125 30.449219 42.113281 30.707031 41.933594 30.980469 C 41.699219 30.945312 41.59375 30.855469 41.433594 30.683594 C 41.269531 30.511719 41.105469 30.347656 40.925781 30.195312 C 40.707031 30.007812 40.496094 29.8125 40.289062 29.617188 C 40.082031 29.421875 39.875 29.230469 39.667969 29.035156 C 39.605469 28.980469 39.546875 28.925781 39.484375 28.867188 C 39.113281 28.542969 38.796875 28.425781 38.304688 28.390625 C 38.40625 27.984375 38.636719 27.667969 38.863281 27.324219 C 38.902344 27.265625 38.941406 27.203125 38.980469 27.144531 C 39.390625 26.523438 39.964844 25.808594 40.789062 26.109375 Z M 40.789062 26.109375 " style=" stroke:none;fill-rule:nonzero;fill:rgb(99.607843%,98.039216%,98.039216%);fill-opacity:1;"/><path d="M 31.5 39.019531 C 31.9375 39.035156 32.339844 39.207031 32.75 39.355469 C 32.824219 39.382812 32.902344 39.410156 32.980469 39.4375 C 33.183594 39.507812 33.382812 39.578125 33.585938 39.652344 C 33.789062 39.722656 33.992188 39.796875 34.199219 39.867188 C 34.425781 39.949219 34.65625 40.03125 34.886719 40.113281 C 34.957031 40.136719 35.023438 40.164062 35.09375 40.1875 C 35.15625 40.210938 35.214844 40.230469 35.277344 40.253906 C 35.464844 40.320312 35.652344 40.382812 35.84375 40.445312 C 35.757812 40.679688 35.652344 40.875 35.511719 41.082031 C 35.476562 41.132812 35.441406 41.183594 35.40625 41.234375 C 35.378906 41.273438 35.351562 41.3125 35.324219 41.351562 C 34.945312 41.246094 34.582031 41.125 34.222656 40.964844 C 34.207031 41.007812 34.191406 41.050781 34.175781 41.097656 C 34.0625 41.359375 33.90625 41.589844 33.746094 41.824219 C 33.613281 42.027344 33.613281 42.027344 33.574219 42.261719 C 33.699219 42.511719 33.855469 42.742188 34.007812 42.972656 C 34.09375 43.167969 34.09375 43.167969 34.054688 43.332031 C 33.960938 43.492188 33.871094 43.648438 33.769531 43.800781 C 33.734375 43.855469 33.703125 43.90625 33.667969 43.957031 C 33.636719 43.996094 33.605469 44.035156 33.574219 44.074219 C 33.53125 44.074219 33.488281 44.074219 33.445312 44.074219 C 33.421875 44.03125 33.398438 43.992188 33.375 43.949219 C 32.9375 43.164062 32.496094 42.378906 32.042969 41.597656 C 32.003906 41.535156 31.96875 41.46875 31.929688 41.402344 C 31.859375 41.285156 31.789062 41.167969 31.71875 41.050781 C 31.664062 40.957031 31.613281 40.863281 31.558594 40.773438 C 31.453125 40.589844 31.390625 40.515625 31.1875 40.441406 C 31.125 40.433594 31.0625 40.429688 30.996094 40.421875 C 30.933594 40.410156 30.871094 40.402344 30.804688 40.394531 C 30.753906 40.390625 30.707031 40.382812 30.65625 40.378906 C 30.757812 40.089844 30.910156 39.847656 31.078125 39.589844 C 31.105469 39.550781 31.132812 39.507812 31.15625 39.464844 C 31.261719 39.304688 31.363281 39.15625 31.5 39.019531 Z M 31.5 39.019531 " style=" stroke:none;fill-rule:nonzero;fill:rgb(99.607843%,98.039216%,98.039216%);fill-opacity:1;"/><path d="M 37.527344 29.921875 C 37.761719 29.925781 37.9375 29.96875 38.148438 30.058594 C 38.511719 30.210938 38.875 30.339844 39.242188 30.46875 C 39.3125 30.496094 39.378906 30.519531 39.449219 30.542969 C 39.664062 30.617188 39.878906 30.695312 40.097656 30.769531 C 40.242188 30.824219 40.390625 30.875 40.535156 30.925781 C 40.894531 31.054688 41.253906 31.179688 41.609375 31.304688 C 41.558594 31.535156 41.472656 31.703125 41.347656 31.90625 C 41.292969 31.992188 41.292969 31.992188 41.238281 32.082031 C 41.210938 32.125 41.1875 32.167969 41.15625 32.214844 C 40.894531 32.171875 40.667969 32.085938 40.425781 31.980469 C 40.355469 31.953125 40.285156 31.921875 40.214844 31.894531 C 40.160156 31.871094 40.109375 31.847656 40.054688 31.824219 C 40.039062 31.871094 40.023438 31.914062 40.007812 31.960938 C 39.882812 32.246094 39.691406 32.480469 39.511719 32.730469 C 39.390625 32.917969 39.390625 32.917969 39.410156 33.121094 C 39.5 33.40625 39.667969 33.617188 39.839844 33.855469 C 39.925781 34.027344 39.925781 34.027344 39.886719 34.191406 C 39.792969 34.355469 39.699219 34.511719 39.59375 34.664062 C 39.542969 34.742188 39.542969 34.742188 39.488281 34.820312 C 39.460938 34.855469 39.433594 34.894531 39.40625 34.933594 C 39.15625 34.851562 39.136719 34.765625 39.011719 34.535156 C 38.972656 34.464844 38.9375 34.394531 38.894531 34.320312 C 38.875 34.285156 38.855469 34.246094 38.835938 34.207031 C 38.726562 34.007812 38.617188 33.808594 38.507812 33.609375 C 38.488281 33.570312 38.464844 33.527344 38.441406 33.488281 C 38.214844 33.070312 37.980469 32.660156 37.742188 32.25 C 37.6875 32.152344 37.6875 32.152344 37.628906 32.050781 C 37.59375 31.992188 37.558594 31.929688 37.523438 31.867188 C 37.492188 31.816406 37.460938 31.761719 37.429688 31.710938 C 37.292969 31.503906 37.167969 31.328125 36.921875 31.265625 C 36.871094 31.261719 36.820312 31.261719 36.765625 31.257812 C 36.714844 31.253906 36.664062 31.25 36.609375 31.246094 C 36.550781 31.242188 36.550781 31.242188 36.492188 31.242188 C 36.550781 30.964844 36.6875 30.753906 36.84375 30.519531 C 36.871094 30.480469 36.894531 30.4375 36.921875 30.394531 C 37.230469 29.925781 37.230469 29.925781 37.527344 29.921875 Z M 37.527344 29.921875 " style=" stroke:none;fill-rule:nonzero;fill:rgb(99.607843%,98.039216%,98.431373%);fill-opacity:1;"/><path d="M 29.878906 41.480469 C 29.921875 41.480469 29.964844 41.480469 30.007812 41.480469 C 30.109375 41.613281 30.109375 41.613281 30.214844 41.785156 C 30.269531 41.871094 30.269531 41.871094 30.324219 41.957031 C 30.414062 42.164062 30.394531 42.238281 30.332031 42.453125 C 30.257812 42.585938 30.257812 42.585938 30.167969 42.71875 C 30.132812 42.765625 30.101562 42.8125 30.066406 42.859375 C 30 42.960938 29.929688 43.058594 29.859375 43.15625 C 29.828125 43.203125 29.792969 43.25 29.761719 43.300781 C 29.730469 43.34375 29.699219 43.386719 29.671875 43.429688 C 29.605469 43.558594 29.605469 43.558594 29.667969 43.691406 C 29.769531 43.839844 29.878906 43.941406 30.015625 44.058594 C 30.0625 44.097656 30.109375 44.136719 30.160156 44.179688 C 30.195312 44.207031 30.230469 44.238281 30.269531 44.269531 C 30.28125 44.226562 30.296875 44.183594 30.308594 44.140625 C 30.433594 43.867188 30.597656 43.625 30.761719 43.375 C 30.796875 43.320312 30.828125 43.269531 30.863281 43.21875 C 30.945312 43.09375 31.027344 42.96875 31.109375 42.84375 C 31.195312 42.902344 31.277344 42.960938 31.363281 43.019531 C 31.410156 43.054688 31.457031 43.085938 31.503906 43.121094 C 31.640625 43.242188 31.710938 43.3125 31.757812 43.492188 C 31.695312 43.636719 31.695312 43.636719 31.585938 43.796875 C 31.550781 43.851562 31.511719 43.910156 31.472656 43.96875 C 31.429688 44.027344 31.386719 44.085938 31.347656 44.148438 C 31.265625 44.265625 31.183594 44.382812 31.105469 44.5 C 31.070312 44.550781 31.035156 44.605469 30.996094 44.65625 C 30.90625 44.78125 30.90625 44.78125 30.917969 44.917969 C 31.027344 45.03125 31.027344 45.03125 31.164062 45.144531 C 31.234375 45.203125 31.234375 45.203125 31.304688 45.261719 C 31.441406 45.378906 31.441406 45.378906 31.628906 45.5 C 31.65625 45.457031 31.683594 45.414062 31.710938 45.371094 C 31.828125 45.175781 31.949219 44.984375 32.070312 44.792969 C 32.113281 44.722656 32.15625 44.65625 32.199219 44.585938 C 32.257812 44.492188 32.257812 44.492188 32.320312 44.390625 C 32.355469 44.332031 32.394531 44.273438 32.433594 44.210938 C 32.535156 44.074219 32.535156 44.074219 32.730469 44.007812 C 32.890625 44.058594 32.890625 44.058594 33.066406 44.136719 C 33.125 44.160156 33.183594 44.183594 33.246094 44.210938 C 33.289062 44.230469 33.332031 44.25 33.378906 44.269531 C 33.289062 44.511719 33.179688 44.722656 33.039062 44.941406 C 33 45.007812 32.957031 45.074219 32.914062 45.140625 C 32.871094 45.210938 32.828125 45.28125 32.785156 45.351562 C 32.722656 45.449219 32.722656 45.449219 32.65625 45.554688 C 32.53125 45.753906 32.40625 45.949219 32.277344 46.148438 C 32.238281 46.210938 32.199219 46.273438 32.15625 46.339844 C 32.117188 46.398438 32.078125 46.457031 32.039062 46.519531 C 32.003906 46.570312 31.972656 46.621094 31.9375 46.675781 C 31.796875 46.828125 31.703125 46.847656 31.5 46.859375 C 31.355469 46.765625 31.355469 46.765625 31.207031 46.621094 C 31.152344 46.570312 31.097656 46.515625 31.039062 46.460938 C 31.007812 46.429688 30.976562 46.402344 30.949219 46.371094 C 30.777344 46.207031 30.605469 46.046875 30.429688 45.890625 C 30.359375 45.824219 30.285156 45.757812 30.214844 45.691406 C 29.933594 45.429688 29.648438 45.167969 29.359375 44.917969 C 29.3125 44.875 29.265625 44.828125 29.214844 44.785156 C 28.871094 44.492188 28.578125 44.378906 28.128906 44.332031 C 28.214844 44.105469 28.3125 43.910156 28.445312 43.703125 C 28.480469 43.648438 28.519531 43.589844 28.558594 43.53125 C 28.617188 43.4375 28.617188 43.4375 28.675781 43.34375 C 28.714844 43.28125 28.757812 43.21875 28.796875 43.15625 C 28.882812 43.027344 28.964844 42.898438 29.046875 42.769531 C 29.160156 42.59375 29.269531 42.421875 29.378906 42.246094 C 29.445312 42.144531 29.507812 42.042969 29.570312 41.941406 C 29.601562 41.894531 29.628906 41.847656 29.660156 41.800781 C 29.730469 41.691406 29.804688 41.585938 29.878906 41.480469 Z M 29.878906 41.480469 " style=" stroke:none;fill-rule:nonzero;fill:rgb(99.607843%,98.039216%,98.431373%);fill-opacity:1;"/><path d="M 44.527344 18.40625 C 44.570312 18.40625 44.613281 18.40625 44.65625 18.40625 C 44.773438 18.550781 44.773438 18.550781 44.902344 18.742188 C 44.941406 18.804688 44.984375 18.867188 45.027344 18.933594 C 45.109375 19.121094 45.109375 19.121094 45.082031 19.273438 C 44.945312 19.507812 44.800781 19.730469 44.648438 19.949219 C 44.617188 19.996094 44.589844 20.039062 44.558594 20.085938 C 44.484375 20.195312 44.40625 20.308594 44.332031 20.417969 C 44.484375 20.617188 44.625 20.78125 44.835938 20.921875 C 44.90625 20.96875 44.976562 21.015625 45.046875 21.066406 C 45.0625 21.019531 45.078125 20.976562 45.09375 20.933594 C 45.195312 20.691406 45.332031 20.484375 45.476562 20.265625 C 45.503906 20.226562 45.53125 20.183594 45.558594 20.140625 C 45.625 20.039062 45.691406 19.933594 45.757812 19.832031 C 46.011719 19.953125 46.195312 20.105469 46.40625 20.285156 C 46.375 20.621094 46.203125 20.847656 46.015625 21.117188 C 45.984375 21.164062 45.953125 21.207031 45.921875 21.253906 C 45.847656 21.363281 45.769531 21.472656 45.695312 21.582031 C 45.785156 21.792969 45.882812 21.90625 46.058594 22.046875 C 46.183594 22.144531 46.183594 22.144531 46.277344 22.230469 C 46.277344 22.273438 46.277344 22.316406 46.277344 22.359375 C 46.425781 22.222656 46.53125 22.082031 46.636719 21.910156 C 46.667969 21.859375 46.699219 21.8125 46.730469 21.761719 C 46.792969 21.660156 46.855469 21.554688 46.917969 21.453125 C 46.949219 21.402344 46.980469 21.355469 47.011719 21.304688 C 47.039062 21.261719 47.066406 21.214844 47.09375 21.171875 C 47.207031 21.039062 47.277344 21.019531 47.445312 21 C 47.613281 21.035156 47.613281 21.035156 47.785156 21.09375 C 47.84375 21.113281 47.898438 21.128906 47.960938 21.148438 C 48.003906 21.164062 48.046875 21.179688 48.09375 21.195312 C 47.988281 21.503906 47.816406 21.761719 47.636719 22.03125 C 47.570312 22.132812 47.507812 22.230469 47.441406 22.328125 C 47.394531 22.398438 47.394531 22.398438 47.34375 22.476562 C 47.253906 22.613281 47.167969 22.75 47.078125 22.890625 C 47.050781 22.929688 47.023438 22.972656 46.996094 23.015625 C 46.949219 23.09375 46.898438 23.171875 46.847656 23.25 C 46.753906 23.398438 46.664062 23.53125 46.535156 23.65625 C 46.351562 23.679688 46.25 23.683594 46.089844 23.578125 C 46.054688 23.539062 46.015625 23.503906 45.976562 23.464844 C 45.933594 23.425781 45.890625 23.382812 45.847656 23.339844 C 45.804688 23.296875 45.761719 23.253906 45.714844 23.207031 C 45.621094 23.117188 45.527344 23.027344 45.433594 22.9375 C 45.390625 22.894531 45.347656 22.851562 45.300781 22.804688 C 45.101562 22.613281 44.894531 22.429688 44.6875 22.246094 C 44.566406 22.136719 44.445312 22.023438 44.328125 21.914062 C 44.292969 21.878906 44.257812 21.847656 44.222656 21.8125 C 44.15625 21.75 44.089844 21.6875 44.023438 21.625 C 43.738281 21.359375 43.496094 21.253906 43.113281 21.21875 C 43.0625 21.214844 43.011719 21.210938 42.957031 21.203125 C 42.921875 21.199219 42.882812 21.199219 42.84375 21.195312 C 42.921875 20.976562 43.015625 20.789062 43.144531 20.597656 C 43.195312 20.519531 43.195312 20.519531 43.246094 20.441406 C 43.285156 20.386719 43.320312 20.332031 43.355469 20.273438 C 43.6875 19.777344 44.003906 19.273438 44.304688 18.757812 C 44.375 18.636719 44.453125 18.523438 44.527344 18.40625 Z M 44.527344 18.40625 " style=" stroke:none;fill-rule:nonzero;fill:rgb(99.607843%,98.039216%,98.039216%);fill-opacity:1;"/><path d="M 33.898438 35.128906 C 34.117188 35.203125 34.164062 35.257812 34.304688 35.4375 C 34.339844 35.480469 34.375 35.523438 34.410156 35.570312 C 34.480469 35.714844 34.480469 35.714844 34.476562 35.871094 C 34.382812 36.136719 34.21875 36.34375 34.058594 36.574219 C 33.957031 36.761719 33.929688 36.863281 33.964844 37.074219 C 34.089844 37.226562 34.089844 37.226562 34.3125 37.226562 C 34.554688 37.222656 34.746094 37.160156 34.972656 37.074219 C 35.425781 36.914062 35.882812 36.871094 36.359375 36.945312 C 36.679688 37.125 36.910156 37.328125 37.074219 37.65625 C 37.179688 38.648438 36.628906 39.335938 36.101562 40.121094 C 35.535156 40.054688 35.535156 40.054688 35.257812 39.925781 C 35.328125 39.726562 35.417969 39.550781 35.527344 39.375 C 35.554688 39.332031 35.582031 39.292969 35.609375 39.25 C 35.660156 39.164062 35.714844 39.082031 35.769531 39 C 35.949219 38.71875 36.015625 38.519531 35.972656 38.175781 C 35.851562 38.027344 35.851562 38.027344 35.652344 38.023438 C 35.433594 38.027344 35.265625 38.089844 35.066406 38.175781 C 34.574219 38.363281 34.015625 38.429688 33.519531 38.230469 C 33.226562 38.050781 33.019531 37.867188 32.925781 37.527344 C 32.804688 36.84375 33.085938 36.390625 33.445312 35.84375 C 33.488281 35.769531 33.535156 35.699219 33.578125 35.625 C 33.683594 35.460938 33.789062 35.292969 33.898438 35.128906 Z M 33.898438 35.128906 " style=" stroke:none;fill-rule:nonzero;fill:rgb(99.607843%,98.039216%,98.431373%);fill-opacity:1;"/><path d="M 36.101562 31.695312 C 36.144531 31.695312 36.1875 31.695312 36.230469 31.695312 C 36.347656 31.824219 36.347656 31.824219 36.472656 32 C 36.515625 32.054688 36.558594 32.109375 36.601562 32.167969 C 36.683594 32.34375 36.683594 32.34375 36.644531 32.507812 C 36.523438 32.71875 36.390625 32.917969 36.246094 33.113281 C 36.148438 33.25 36.148438 33.25 36.167969 33.445312 C 36.253906 33.542969 36.253906 33.542969 36.375 33.636719 C 36.617188 33.839844 36.855469 34.054688 37.089844 34.269531 C 37.164062 34.339844 37.234375 34.40625 37.308594 34.472656 C 37.34375 34.507812 37.382812 34.539062 37.417969 34.574219 C 38.078125 35.1875 38.078125 35.1875 38.757812 35.777344 C 38.714844 36.007812 38.617188 36.179688 38.496094 36.378906 C 38.460938 36.433594 38.425781 36.492188 38.386719 36.550781 C 38.359375 36.597656 38.332031 36.640625 38.304688 36.683594 C 38.078125 36.648438 37.96875 36.566406 37.800781 36.40625 C 37.757812 36.363281 37.710938 36.320312 37.664062 36.277344 C 37.617188 36.230469 37.570312 36.183594 37.519531 36.132812 C 37.421875 36.039062 37.320312 35.945312 37.222656 35.847656 C 37.171875 35.800781 37.125 35.757812 37.074219 35.707031 C 36.871094 35.511719 36.660156 35.324219 36.449219 35.136719 C 36.332031 35.03125 36.21875 34.925781 36.101562 34.820312 C 36.054688 34.777344 36.054688 34.777344 36.003906 34.730469 C 35.914062 34.644531 35.820312 34.558594 35.730469 34.472656 C 35.597656 34.339844 35.597656 34.339844 35.453125 34.351562 C 35.371094 34.476562 35.292969 34.609375 35.21875 34.742188 C 35.179688 34.8125 35.136719 34.886719 35.09375 34.960938 C 35.0625 35.015625 35.03125 35.070312 35 35.128906 C 34.871094 35.113281 34.746094 35.09375 34.621094 35.074219 C 34.511719 35.058594 34.511719 35.058594 34.40625 35.039062 C 34.222656 35 34.222656 35 34.09375 34.871094 C 35.628906 32.40625 35.628906 32.40625 36.101562 31.695312 Z M 36.101562 31.695312 " style=" stroke:none;fill-rule:nonzero;fill:rgb(99.607843%,98.039216%,98.039216%);fill-opacity:1;"/><path d="M 46.535156 15.296875 C 46.734375 15.390625 46.847656 15.464844 46.980469 15.644531 C 47.007812 15.683594 47.035156 15.71875 47.066406 15.757812 C 47.121094 15.878906 47.121094 15.878906 47.109375 16.003906 C 47.019531 16.230469 46.875 16.425781 46.738281 16.628906 C 46.648438 16.78125 46.648438 16.78125 46.707031 16.921875 C 46.957031 17.265625 47.289062 17.535156 47.605469 17.808594 C 47.828125 18.003906 48.039062 18.207031 48.253906 18.40625 C 48.585938 18.714844 48.914062 19.023438 49.257812 19.316406 C 49.171875 19.550781 49.070312 19.746094 48.925781 19.949219 C 48.890625 20.003906 48.855469 20.054688 48.820312 20.105469 C 48.792969 20.144531 48.769531 20.183594 48.742188 20.222656 C 48.546875 20.136719 48.417969 20.039062 48.269531 19.886719 C 48.121094 19.730469 47.964844 19.582031 47.800781 19.441406 C 47.492188 19.171875 47.195312 18.890625 46.894531 18.613281 C 46.695312 18.421875 46.496094 18.238281 46.289062 18.054688 C 46.25 18.023438 46.214844 17.992188 46.179688 17.957031 C 46.085938 17.875 46.085938 17.875 45.953125 17.890625 C 45.851562 18.019531 45.851562 18.019531 45.75 18.179688 C 45.714844 18.234375 45.679688 18.289062 45.644531 18.34375 C 45.605469 18.40625 45.605469 18.40625 45.566406 18.472656 C 45.460938 18.464844 45.359375 18.453125 45.257812 18.445312 C 45.199219 18.4375 45.144531 18.433594 45.082031 18.429688 C 44.9375 18.410156 44.800781 18.382812 44.65625 18.34375 C 44.769531 18.007812 44.964844 17.730469 45.160156 17.4375 C 45.234375 17.324219 45.3125 17.210938 45.386719 17.09375 C 45.425781 17.035156 45.464844 16.972656 45.507812 16.910156 C 45.71875 16.585938 45.925781 16.257812 46.136719 15.929688 C 46.175781 15.867188 46.214844 15.800781 46.257812 15.738281 C 46.351562 15.589844 46.445312 15.445312 46.535156 15.296875 Z M 46.535156 15.296875 " style=" stroke:none;fill-rule:nonzero;fill:rgb(99.607843%,98.039216%,98.039216%);fill-opacity:1;"/><path d="M 42.519531 21.648438 C 42.707031 21.734375 42.84375 21.828125 42.992188 21.96875 C 43.03125 22.007812 43.074219 22.042969 43.113281 22.082031 C 43.15625 22.121094 43.195312 22.160156 43.238281 22.203125 C 43.328125 22.285156 43.414062 22.367188 43.503906 22.453125 C 43.542969 22.492188 43.585938 22.53125 43.632812 22.574219 C 43.78125 22.714844 43.9375 22.855469 44.089844 22.992188 C 44.140625 23.039062 44.191406 23.082031 44.242188 23.128906 C 44.355469 23.230469 44.46875 23.328125 44.582031 23.425781 C 45.03125 23.8125 45.445312 24.175781 45.53125 24.785156 C 45.554688 25.472656 45.367188 25.9375 44.949219 26.46875 C 44.824219 26.601562 44.703125 26.660156 44.527344 26.703125 C 44.644531 26.402344 44.644531 26.402344 44.726562 26.257812 C 44.859375 25.960938 44.839844 25.625 44.734375 25.320312 C 44.457031 24.789062 44.027344 24.363281 43.574219 23.980469 C 43.457031 23.878906 43.34375 23.777344 43.230469 23.667969 C 43.195312 23.636719 43.160156 23.605469 43.125 23.574219 C 43.058594 23.507812 42.988281 23.445312 42.921875 23.378906 C 42.636719 23.117188 42.425781 23.007812 42.046875 22.9375 C 41.992188 22.925781 41.933594 22.914062 41.875 22.902344 C 41.828125 22.894531 41.785156 22.886719 41.742188 22.878906 C 41.984375 22.453125 42.226562 22.039062 42.519531 21.648438 Z M 42.519531 21.648438 " style=" stroke:none;fill-rule:nonzero;fill:rgb(99.607843%,98.039216%,98.039216%);fill-opacity:1;"/><path d="M 42.453125 46.730469 C 42.453125 46.773438 42.453125 46.816406 42.453125 46.859375 C 42.398438 46.871094 42.34375 46.882812 42.285156 46.894531 C 41.011719 47.132812 39.75 47.378906 38.507812 47.753906 C 38.257812 47.828125 38.003906 47.898438 37.75 47.964844 C 37.402344 48.054688 37.058594 48.152344 36.71875 48.257812 C 36.675781 48.273438 36.632812 48.285156 36.589844 48.296875 C 36.398438 48.359375 36.210938 48.425781 36.027344 48.507812 C 35.816406 48.601562 35.601562 48.667969 35.378906 48.734375 C 32.75 49.527344 30.132812 50.855469 27.789062 52.265625 C 27.621094 52.363281 27.453125 52.464844 27.285156 52.5625 C 25.652344 53.515625 24.09375 54.621094 22.621094 55.804688 C 22.558594 55.855469 22.5 55.902344 22.4375 55.953125 C 22.0625 56.257812 21.691406 56.574219 21.324219 56.890625 C 21.050781 57.125 20.773438 57.34375 20.480469 57.554688 C 20.710938 57.0625 21.097656 56.75 21.515625 56.417969 C 21.683594 56.28125 21.847656 56.144531 22.011719 56.003906 C 22.519531 55.566406 23.050781 55.164062 23.59375 54.769531 C 23.660156 54.71875 23.660156 54.71875 23.730469 54.667969 C 28.976562 50.800781 34.90625 48.238281 41.742188 46.757812 C 41.847656 46.734375 41.957031 46.710938 42.0625 46.6875 C 42.210938 46.664062 42.3125 46.683594 42.453125 46.730469 Z M 42.453125 46.730469 " style=" stroke:none;fill-rule:nonzero;fill:rgb(98.431373%,89.411765%,89.803922%);fill-opacity:1;"/><path d="M 40.898438 22.425781 C 40.941406 22.425781 40.984375 22.425781 41.027344 22.425781 C 41 22.515625 40.96875 22.605469 40.9375 22.699219 C 40.921875 22.75 40.902344 22.804688 40.886719 22.859375 C 40.832031 23.007812 40.832031 23.007812 40.757812 23.167969 C 40.644531 23.523438 40.660156 23.863281 40.789062 24.207031 C 41.046875 24.597656 41.457031 24.960938 41.859375 25.1875 C 41.90625 25.21875 41.953125 25.246094 42 25.277344 C 42 25.34375 42 25.40625 42 25.472656 C 41.808594 25.398438 41.625 25.320312 41.441406 25.230469 C 40.714844 24.871094 40.714844 24.871094 39.925781 24.890625 C 39.554688 25.070312 39.300781 25.378906 39.046875 25.695312 C 39.015625 25.730469 38.984375 25.761719 38.953125 25.796875 C 38.910156 25.796875 38.867188 25.796875 38.824219 25.796875 C 38.894531 25.621094 38.964844 25.445312 39.039062 25.269531 C 39.082031 25.164062 39.082031 25.164062 39.125 25.054688 C 39.152344 24.984375 39.183594 24.914062 39.210938 24.839844 C 39.292969 24.582031 39.324219 24.371094 39.230469 24.109375 C 39.011719 23.75 38.722656 23.515625 38.386719 23.261719 C 38.335938 23.21875 38.289062 23.179688 38.242188 23.140625 C 38.242188 23.097656 38.242188 23.054688 38.242188 23.007812 C 38.457031 23.054688 38.632812 23.136719 38.828125 23.238281 C 39.199219 23.410156 39.519531 23.464844 39.925781 23.398438 C 40.3125 23.222656 40.707031 22.808594 40.898438 22.425781 Z M 40.898438 22.425781 " style=" stroke:none;fill-rule:nonzero;fill:rgb(99.215686%,96.862745%,96.862745%);fill-opacity:1;"/><path d="M 44.269531 47.507812 C 44.332031 47.542969 44.332031 47.542969 44.398438 47.574219 C 44.261719 47.816406 44.117188 48 43.917969 48.195312 C 43.859375 48.25 43.804688 48.304688 43.746094 48.363281 C 43.691406 48.417969 43.632812 48.476562 43.570312 48.535156 C 43.21875 48.878906 42.871094 49.222656 42.550781 49.597656 C 42.417969 49.753906 42.277344 49.90625 42.136719 50.058594 C 41.820312 50.40625 41.515625 50.769531 41.222656 51.140625 C 41.171875 51.203125 41.171875 51.203125 41.121094 51.265625 C 39.242188 53.640625 37.488281 56.25 36.296875 59.046875 C 36.230469 59.046875 36.167969 59.046875 36.101562 59.046875 C 36.191406 58.753906 36.304688 58.488281 36.441406 58.214844 C 36.460938 58.175781 36.484375 58.132812 36.503906 58.089844 C 36.570312 57.953125 36.636719 57.820312 36.707031 57.683594 C 36.730469 57.640625 36.75 57.59375 36.777344 57.546875 C 37.1875 56.726562 37.628906 55.933594 38.109375 55.15625 C 38.144531 55.105469 38.175781 55.050781 38.210938 54.996094 C 39.507812 52.886719 41.050781 50.960938 42.714844 49.128906 C 42.742188 49.097656 42.773438 49.066406 42.800781 49.03125 C 43.277344 48.507812 43.765625 48.003906 44.269531 47.507812 Z M 44.269531 47.507812 " style=" stroke:none;fill-rule:nonzero;fill:rgb(98.823529%,91.37255%,91.764706%);fill-opacity:1;"/><path d="M 42.453125 46.730469 C 42.453125 46.773438 42.453125 46.816406 42.453125 46.859375 C 42.398438 46.871094 42.34375 46.882812 42.285156 46.894531 C 41.011719 47.132812 39.75 47.378906 38.507812 47.753906 C 38.257812 47.828125 38.003906 47.898438 37.75 47.964844 C 37.402344 48.054688 37.058594 48.152344 36.71875 48.257812 C 36.675781 48.273438 36.632812 48.285156 36.589844 48.296875 C 36.386719 48.363281 36.191406 48.433594 35.996094 48.519531 C 35.8125 48.597656 35.652344 48.648438 35.457031 48.6875 C 35.382812 48.703125 35.382812 48.703125 35.304688 48.71875 C 35.25 48.730469 35.25 48.730469 35.195312 48.742188 C 35.195312 48.675781 35.195312 48.613281 35.195312 48.546875 C 36.472656 48.105469 37.746094 47.683594 39.058594 47.367188 C 39.296875 47.3125 39.53125 47.253906 39.765625 47.195312 C 42.117188 46.613281 42.117188 46.613281 42.453125 46.730469 Z M 42.453125 46.730469 " style=" stroke:none;fill-rule:nonzero;fill:rgb(98.431373%,89.019608%,89.411765%);fill-opacity:1;"/><path d="M 52.628906 41.417969 C 52.695312 41.449219 52.695312 41.449219 52.757812 41.480469 C 52.757812 41.523438 52.757812 41.566406 52.757812 41.609375 C 52.65625 41.667969 52.65625 41.667969 52.550781 41.722656 C 50.46875 42.859375 48.519531 44.214844 46.667969 45.695312 C 46.667969 45.5 46.667969 45.5 46.800781 45.347656 C 47.003906 45.164062 47.210938 44.988281 47.429688 44.816406 C 47.46875 44.78125 47.511719 44.75 47.554688 44.714844 C 48.042969 44.328125 48.550781 43.972656 49.066406 43.621094 C 49.109375 43.589844 49.15625 43.558594 49.207031 43.523438 C 50.175781 42.863281 51.167969 42.234375 52.1875 41.652344 C 52.253906 41.613281 52.253906 41.613281 52.320312 41.574219 C 52.421875 41.519531 52.523438 41.46875 52.628906 41.417969 Z M 52.628906 41.417969 " style=" stroke:none;fill-rule:nonzero;fill:rgb(98.431373%,89.803922%,90.196079%);fill-opacity:1;"/><path d="M 40.347656 27.078125 C 40.636719 27.179688 40.738281 27.285156 40.898438 27.546875 C 40.960938 27.933594 40.84375 28.140625 40.640625 28.453125 C 40.367188 28.363281 40.203125 28.242188 40 28.039062 C 39.921875 27.964844 39.921875 27.964844 39.839844 27.890625 C 39.730469 27.742188 39.730469 27.742188 39.738281 27.605469 C 39.878906 27.304688 40 27.101562 40.347656 27.078125 Z M 40.347656 27.078125 " style=" stroke:none;fill-rule:nonzero;fill:rgb(86.274511%,3.529412%,6.666667%);fill-opacity:1;"/><path d="M 38.109375 31.046875 C 38.511719 31.171875 38.894531 31.320312 39.277344 31.5 C 39.183594 31.765625 39.058594 31.988281 38.890625 32.214844 C 38.847656 32.214844 38.804688 32.214844 38.757812 32.214844 C 38.683594 32.113281 38.683594 32.113281 38.605469 31.972656 C 38.574219 31.925781 38.546875 31.875 38.515625 31.824219 C 38.472656 31.746094 38.472656 31.746094 38.425781 31.667969 C 38.398438 31.613281 38.367188 31.5625 38.335938 31.507812 C 38.109375 31.121094 38.109375 31.121094 38.109375 31.046875 Z M 38.109375 31.046875 " style=" stroke:none;fill-rule:nonzero;fill:rgb(86.274511%,2.352941%,5.490196%);fill-opacity:1;"/><path d="M 32.277344 40.183594 C 32.679688 40.3125 33.0625 40.460938 33.445312 40.640625 C 33.351562 40.90625 33.222656 41.125 33.054688 41.351562 C 33.011719 41.351562 32.96875 41.351562 32.925781 41.351562 C 32.851562 41.25 32.851562 41.25 32.773438 41.113281 C 32.742188 41.0625 32.714844 41.015625 32.683594 40.964844 C 32.640625 40.886719 32.640625 40.886719 32.59375 40.804688 C 32.5625 40.753906 32.53125 40.699219 32.5 40.648438 C 32.277344 40.261719 32.277344 40.261719 32.277344 40.183594 Z M 32.277344 40.183594 " style=" stroke:none;fill-rule:nonzero;fill:rgb(86.274511%,3.529412%,6.27451%);fill-opacity:1;"/><path d="M 37.332031 47.964844 C 37.1875 48.132812 37.070312 48.195312 36.855469 48.253906 C 36.769531 48.277344 36.769531 48.277344 36.6875 48.304688 C 36.628906 48.320312 36.570312 48.335938 36.511719 48.351562 C 36.027344 48.488281 36.027344 48.488281 35.550781 48.65625 C 35.324219 48.742188 35.324219 48.742188 35.195312 48.742188 C 35.195312 48.675781 35.195312 48.613281 35.195312 48.546875 C 35.457031 48.453125 35.71875 48.359375 35.984375 48.265625 C 36.074219 48.234375 36.164062 48.203125 36.25 48.171875 C 36.378906 48.125 36.507812 48.078125 36.636719 48.035156 C 36.714844 48.007812 36.792969 47.980469 36.871094 47.949219 C 37.066406 47.902344 37.152344 47.890625 37.332031 47.964844 Z M 37.332031 47.964844 " style=" stroke:none;fill-rule:nonzero;fill:rgb(97.647059%,84.313726%,84.705883%);fill-opacity:1;"/><path d="M 44.785156 47.25 C 44.828125 47.269531 44.871094 47.292969 44.917969 47.316406 C 44.542969 47.761719 44.132812 48.167969 43.722656 48.578125 C 43.65625 48.644531 43.589844 48.710938 43.523438 48.777344 C 43.359375 48.9375 43.199219 49.097656 43.035156 49.257812 C 43.015625 49.195312 42.996094 49.132812 42.972656 49.066406 C 43.570312 48.464844 44.171875 47.867188 44.785156 47.25 Z M 44.785156 47.25 " style=" stroke:none;fill-rule:nonzero;fill:rgb(86.274511%,5.882353%,7.843138%);fill-opacity:1;"/><path d="M 44.269531 47.507812 C 44.3125 47.53125 44.355469 47.550781 44.398438 47.574219 C 44.253906 47.84375 44.070312 48.054688 43.851562 48.265625 C 43.820312 48.296875 43.789062 48.328125 43.757812 48.363281 C 43.59375 48.527344 43.445312 48.648438 43.230469 48.742188 C 43.144531 48.804688 43.058594 48.867188 42.972656 48.933594 C 43.070312 48.710938 43.195312 48.566406 43.371094 48.394531 C 43.449219 48.316406 43.449219 48.316406 43.527344 48.238281 C 43.582031 48.183594 43.636719 48.132812 43.691406 48.078125 C 43.75 48.023438 43.804688 47.96875 43.859375 47.910156 C 43.996094 47.777344 44.132812 47.644531 44.269531 47.507812 Z M 44.269531 47.507812 " style=" stroke:none;fill-rule:nonzero;fill:rgb(98.039216%,87.450981%,88.235295%);fill-opacity:1;"/><path d="M 46.925781 46.535156 C 46.96875 46.558594 47.011719 46.578125 47.054688 46.601562 C 47.003906 46.644531 46.957031 46.6875 46.902344 46.734375 C 46.839844 46.792969 46.773438 46.851562 46.707031 46.910156 C 46.675781 46.9375 46.640625 46.96875 46.609375 46.996094 C 46.433594 47.152344 46.296875 47.289062 46.214844 47.507812 C 46.171875 47.507812 46.128906 47.507812 46.082031 47.507812 C 46.207031 47.019531 46.515625 46.792969 46.925781 46.535156 Z M 46.925781 46.535156 " style=" stroke:none;fill-rule:nonzero;fill:rgb(86.274511%,5.882353%,7.843138%);fill-opacity:1;"/><path d="M 37.332031 47.964844 C 37.179688 48.140625 37.066406 48.191406 36.835938 48.234375 C 36.78125 48.246094 36.730469 48.253906 36.675781 48.265625 C 36.617188 48.277344 36.617188 48.277344 36.554688 48.285156 C 36.535156 48.222656 36.511719 48.160156 36.492188 48.09375 C 36.582031 48.058594 36.675781 48.023438 36.765625 47.992188 C 36.816406 47.972656 36.867188 47.953125 36.921875 47.933594 C 37.085938 47.894531 37.175781 47.90625 37.332031 47.964844 Z M 37.332031 47.964844 " style=" stroke:none;fill-rule:nonzero;fill:rgb(96.862745%,79.607844%,80.000001%);fill-opacity:1;"/><path d="M 51.59375 42 C 51.636719 42.019531 51.679688 42.042969 51.722656 42.066406 C 51.722656 42.109375 51.722656 42.148438 51.722656 42.195312 C 51.488281 42.324219 51.25 42.449219 51.007812 42.582031 C 51.167969 42.191406 51.230469 42.167969 51.59375 42 Z M 51.59375 42 " style=" stroke:none;fill-rule:nonzero;fill:rgb(98.039216%,86.666667%,87.058824%);fill-opacity:1;"/><path d="M 39.796875 24.890625 C 39.839844 24.910156 39.882812 24.933594 39.925781 24.953125 C 39.863281 24.953125 39.796875 24.953125 39.730469 24.953125 C 39.753906 24.933594 39.773438 24.910156 39.796875 24.890625 Z M 39.730469 25.019531 C 39.640625 25.226562 39.542969 25.347656 39.367188 25.488281 C 39.304688 25.539062 39.304688 25.539062 39.242188 25.589844 C 39.210938 25.617188 39.179688 25.640625 39.148438 25.667969 C 39.148438 25.472656 39.148438 25.472656 39.242188 25.355469 C 39.285156 25.3125 39.324219 25.273438 39.367188 25.234375 C 39.429688 25.171875 39.429688 25.171875 39.488281 25.109375 C 39.601562 25.019531 39.601562 25.019531 39.730469 25.019531 Z M 39.730469 25.019531 " style=" stroke:none;fill-rule:nonzero;fill:rgb(86.274511%,6.666667%,8.627451%);fill-opacity:1;"/><path d="M 39.214844 47.445312 C 39.214844 47.488281 39.214844 47.53125 39.214844 47.574219 C 39 47.617188 38.785156 47.660156 38.566406 47.703125 C 38.566406 47.660156 38.566406 47.617188 38.566406 47.574219 C 38.523438 47.550781 38.480469 47.53125 38.433594 47.507812 C 38.527344 47.484375 38.621094 47.460938 38.714844 47.441406 C 38.765625 47.425781 38.820312 47.414062 38.871094 47.402344 C 39.019531 47.378906 39.019531 47.378906 39.214844 47.445312 Z M 39.214844 47.445312 " style=" stroke:none;fill-rule:nonzero;fill:rgb(97.254902%,81.568629%,81.960785%);fill-opacity:1;"/><path d="M 38.109375 31.046875 C 38.230469 31.050781 38.230469 31.050781 38.371094 31.109375 C 38.472656 31.316406 38.472656 31.316406 38.519531 31.441406 C 38.585938 31.617188 38.671875 31.785156 38.757812 31.953125 C 38.695312 31.984375 38.695312 31.984375 38.628906 32.019531 C 38.542969 31.867188 38.457031 31.71875 38.371094 31.570312 C 38.34375 31.527344 38.320312 31.484375 38.296875 31.4375 C 38.109375 31.117188 38.109375 31.117188 38.109375 31.046875 Z M 38.109375 31.046875 " style=" stroke:none;fill-rule:nonzero;fill:rgb(86.274511%,9.019608%,10.588235%);fill-opacity:1;"/><path d="M 36.492188 58.332031 C 36.554688 58.527344 36.554688 58.527344 36.503906 58.660156 C 36.480469 58.707031 36.457031 58.75 36.429688 58.800781 C 36.40625 58.84375 36.378906 58.890625 36.355469 58.941406 C 36.324219 58.992188 36.324219 58.992188 36.296875 59.046875 C 36.230469 59.046875 36.167969 59.046875 36.101562 59.046875 C 36.183594 58.753906 36.289062 58.5625 36.492188 58.332031 Z M 36.492188 58.332031 " style=" stroke:none;fill-rule:nonzero;fill:rgb(98.431373%,89.019608%,89.411765%);fill-opacity:1;"/><path d="M 32.859375 49.453125 C 32.902344 49.476562 32.945312 49.496094 32.992188 49.519531 C 32.992188 49.5625 32.992188 49.605469 32.992188 49.648438 C 32.777344 49.734375 32.5625 49.820312 32.34375 49.90625 C 32.363281 49.820312 32.386719 49.734375 32.40625 49.648438 C 32.628906 49.53125 32.628906 49.53125 32.859375 49.453125 Z M 32.859375 49.453125 " style=" stroke:none;fill-rule:nonzero;fill:rgb(98.039216%,87.450981%,87.450981%);fill-opacity:1;"/><path d="M 36.554688 48.15625 C 36.554688 48.199219 36.554688 48.242188 36.554688 48.285156 C 36.472656 48.320312 36.390625 48.355469 36.308594 48.386719 C 36.261719 48.40625 36.214844 48.425781 36.167969 48.445312 C 36.035156 48.480469 36.035156 48.480469 35.84375 48.417969 C 35.90625 48.285156 35.90625 48.285156 36.089844 48.214844 C 36.296875 48.15625 36.296875 48.15625 36.554688 48.15625 Z M 36.554688 48.15625 " style=" stroke:none;fill-rule:nonzero;fill:rgb(98.431373%,89.803922%,90.196079%);fill-opacity:1;"/><path d="M 40.378906 51.980469 C 40.402344 52.046875 40.421875 52.109375 40.445312 52.175781 C 40.144531 52.492188 40.144531 52.492188 39.925781 52.566406 C 40.027344 52.316406 40.1875 52.164062 40.378906 51.980469 Z M 40.378906 51.980469 " style=" stroke:none;fill-rule:nonzero;fill:rgb(98.039216%,87.058824%,87.843138%);fill-opacity:1;"/><path d="M 36.101562 33.25 C 36.230469 33.25 36.230469 33.25 36.339844 33.355469 C 36.378906 33.398438 36.417969 33.445312 36.457031 33.492188 C 36.496094 33.539062 36.539062 33.582031 36.578125 33.628906 C 36.675781 33.757812 36.75 33.878906 36.816406 34.027344 C 36.785156 34.003906 36.753906 33.976562 36.726562 33.949219 C 36.664062 33.898438 36.664062 33.898438 36.605469 33.84375 C 36.5625 33.808594 36.523438 33.773438 36.480469 33.738281 C 36.359375 33.632812 36.359375 33.632812 36.203125 33.53125 C 36.167969 33.5 36.136719 33.472656 36.101562 33.445312 C 36.101562 33.378906 36.101562 33.316406 36.101562 33.25 Z M 36.101562 33.25 " style=" stroke:none;fill-rule:nonzero;fill:rgb(85.882354%,7.450981%,8.235294%);fill-opacity:1;"/><path d="M 42.453125 46.730469 C 42.453125 46.773438 42.453125 46.816406 42.453125 46.859375 C 42.304688 46.882812 42.152344 46.902344 42 46.925781 C 42 46.882812 42 46.839844 42 46.796875 C 41.957031 46.773438 41.914062 46.753906 41.871094 46.730469 C 42.089844 46.675781 42.238281 46.660156 42.453125 46.730469 Z M 42.453125 46.730469 " style=" stroke:none;fill-rule:nonzero;fill:rgb(97.254902%,81.960785%,81.960785%);fill-opacity:1;"/><path d="M 33.25 43.816406 C 33.292969 43.816406 33.335938 43.816406 33.378906 43.816406 C 33.390625 43.894531 33.390625 43.894531 33.402344 43.972656 C 33.417969 44.027344 33.429688 44.082031 33.445312 44.140625 C 33.488281 44.160156 33.53125 44.183594 33.574219 44.203125 C 33.53125 44.289062 33.488281 44.375 33.445312 44.464844 C 33.402344 44.441406 33.359375 44.421875 33.316406 44.398438 C 33.335938 44.355469 33.359375 44.3125 33.378906 44.269531 C 33.335938 44.246094 33.292969 44.226562 33.25 44.203125 C 33.292969 44.203125 33.335938 44.203125 33.378906 44.203125 C 33.335938 44.074219 33.292969 43.945312 33.25 43.816406 Z M 33.25 43.816406 " style=" stroke:none;fill-rule:nonzero;fill:rgb(86.666667%,10.196079%,11.764706%);fill-opacity:1;"/><path d="M 26.832031 52.566406 C 26.875 52.585938 26.917969 52.609375 26.964844 52.628906 C 26.964844 52.671875 26.964844 52.714844 26.964844 52.757812 C 26.835938 52.824219 26.707031 52.886719 26.574219 52.953125 C 26.6875 52.636719 26.6875 52.636719 26.832031 52.566406 Z M 26.832031 52.566406 " style=" stroke:none;fill-rule:nonzero;fill:rgb(98.039216%,86.666667%,87.058824%);fill-opacity:1;"/><path d="M 40.898438 22.425781 C 40.941406 22.425781 40.984375 22.425781 41.027344 22.425781 C 40.980469 22.617188 40.980469 22.617188 40.898438 22.816406 C 40.761719 22.871094 40.761719 22.871094 40.640625 22.878906 C 40.71875 22.71875 40.796875 22.578125 40.898438 22.425781 Z M 40.898438 22.425781 " style=" stroke:none;fill-rule:nonzero;fill:rgb(98.431373%,90.196079%,90.588236%);fill-opacity:1;"/></g></svg>