<svg xmlns="http://www.w3.org/2000/svg" version="1.1" width="70px" height="70px" viewBox="0 0 70 70"><g id="surface1"><rect x="0" y="0" width="70" height="70" style="fill:rgb(100%,100%,100%);fill-opacity:1;stroke:none;"/><path transform="matrix(0.0648148,0,0,0.0648148,0,0)" d="M 0 0 L 1080 0 L 1080 1080 L 0 1080 Z M 0 0 " style="fill:none;stroke-width:1;stroke-linecap:butt;stroke-linejoin:miter;stroke:rgb(0%,0%,0%);stroke-opacity:1;stroke-miterlimit:10;"/><path d="M 65.914062 39.539062 L 65.914062 40.042969 L 62.660156 40.019531 C 59.039062 38.488281 60.164062 34.878906 56.3125 34.25 C 55.777344 34.160156 55.179688 34.171875 55.179688 34.171875 L 55.179688 36.621094 C 55.179688 38.988281 55.40625 39.492188 57.292969 39.492188 L 57.292969 39.996094 L 51.402344 39.996094 L 51.402344 39.492188 C 53.324219 39.492188 53.28125 38.855469 53.28125 36.589844 C 53.28125 32.898438 53.277344 32.03125 53.277344 30.695312 C 53.277344 28.953125 53.269531 28.554688 51.5 28.554688 L 51.5 28.058594 C 54.46875 27.945312 57.414062 27.753906 59.332031 28.1875 C 61.117188 28.589844 61.949219 29.945312 61.949219 30.988281 C 61.949219 32.203125 61.40625 33.554688 58.253906 33.960938 C 60.832031 34.289062 62.269531 37.355469 63.625 38.589844 C 64.480469 39.363281 65.214844 39.539062 65.914062 39.539062 Z M 55.148438 33.539062 L 55.175781 33.539062 C 57.542969 33.539062 59.691406 33.445312 59.691406 30.882812 C 59.691406 28.320312 57.152344 28.398438 55.175781 28.503906 Z M 55.148438 33.539062 " style=" stroke:none;fill-rule:nonzero;fill:rgb(5.098039%,5.098039%,5.882353%);fill-opacity:1;"/><path d="M 44.894531 28.058594 L 50.261719 28.058594 L 50.261719 28.566406 C 48.773438 28.566406 48.53125 28.578125 48.53125 30.996094 C 48.53125 33.578125 48.523438 35.472656 48.523438 37.199219 C 48.523438 39.136719 48.640625 39.496094 50.261719 39.496094 L 50.261719 39.996094 L 40.164062 39.996094 L 40.164062 39.496094 C 41.664062 39.496094 41.59375 38.722656 41.417969 38.324219 C 41.3125 38.09375 40.792969 37.011719 40.460938 36.316406 C 40.132812 35.625 39.972656 35.28125 39.972656 35.28125 L 35.027344 35.28125 C 35.027344 35.28125 34.84375 35.6875 34.511719 36.382812 C 34.175781 37.074219 33.9375 37.578125 33.753906 38.007812 C 33.339844 38.984375 33.941406 39.496094 35.472656 39.496094 L 35.472656 39.996094 L 30.839844 39.996094 L 30.839844 39.496094 C 32.308594 39.496094 32.5 38.984375 33.085938 37.804688 C 33.546875 36.871094 37.839844 27.894531 37.839844 27.894531 L 38.453125 27.894531 C 38.453125 27.894531 42.871094 37.070312 43.339844 38.023438 C 43.8125 38.980469 44.113281 39.503906 45.003906 39.503906 C 45.894531 39.503906 46.628906 39.503906 46.628906 37.1875 C 46.628906 35.121094 46.628906 32.273438 46.628906 31.007812 C 46.628906 28.761719 46.492188 28.554688 44.894531 28.554688 Z M 39.664062 34.648438 C 39.664062 34.648438 39.425781 34.175781 39.121094 33.542969 C 38.816406 32.90625 37.496094 30.15625 37.496094 30.15625 C 37.496094 30.15625 36.175781 32.90625 35.871094 33.539062 C 35.566406 34.175781 35.332031 34.648438 35.332031 34.648438 Z M 39.664062 34.648438 " style=" stroke:none;fill-rule:nonzero;fill:rgb(5.098039%,5.098039%,5.882353%);fill-opacity:1;"/><path d="M 22.847656 28.058594 C 28.304688 27.820312 30.011719 27.890625 31.402344 28.550781 C 32.796875 29.207031 32.96875 30.445312 32.96875 31.082031 C 32.96875 31.71875 32.636719 32.941406 31.671875 33.480469 C 30.851562 33.9375 29.921875 34.210938 26.546875 34.148438 C 26.546875 34.148438 26.546875 36.210938 26.546875 37.363281 C 26.546875 39.25 26.660156 39.496094 28.429688 39.496094 L 28.429688 39.996094 L 22.847656 39.996094 L 22.847656 39.496094 C 24.558594 39.496094 24.648438 39.234375 24.648438 37.210938 L 24.648438 30.707031 C 24.648438 28.652344 24.679688 28.558594 22.847656 28.558594 Z M 26.546875 33.535156 C 28.90625 33.582031 30.921875 33.46875 30.921875 31 C 30.921875 28.527344 28.410156 28.394531 26.546875 28.539062 Z M 26.546875 33.535156 " style=" stroke:none;fill-rule:nonzero;fill:rgb(5.098039%,5.098039%,5.882353%);fill-opacity:1;"/><path d="M 31.101562 41.191406 L 65.683594 41.191406 L 65.683594 42.410156 L 31.101562 42.410156 Z M 31.101562 41.191406 " style=" stroke:none;fill-rule:nonzero;fill:rgb(0%,59.607843%,46.666667%);fill-opacity:1;"/><path d="M 21.691406 39.996094 L 16.324219 39.996094 L 16.324219 39.492188 C 17.921875 39.492188 18.058594 39.28125 18.058594 36.976562 L 18.058594 31.046875 C 18.058594 28.742188 17.910156 28.554688 16.324219 28.554688 L 16.324219 28.058594 L 21.691406 28.058594 L 21.691406 28.554688 C 20.074219 28.554688 19.957031 28.742188 19.957031 31.046875 L 19.957031 36.976562 C 19.957031 39.28125 20.113281 39.492188 21.691406 39.492188 Z M 21.691406 39.996094 " style=" stroke:none;fill-rule:nonzero;fill:rgb(5.098039%,5.098039%,5.882353%);fill-opacity:1;"/><path d="M 4.296875 31.089844 L 5.019531 31.089844 C 6.039062 29.160156 7.070312 28.660156 7.753906 28.660156 L 12.546875 28.660156 L 3.933594 39.433594 L 4.183594 39.996094 L 14.191406 39.996094 L 15.738281 36.523438 L 15.007812 36.523438 C 13.867188 38.679688 12.824219 39.253906 12.007812 39.253906 L 6.722656 39.253906 L 15.171875 28.621094 L 14.921875 28.0625 L 5.644531 28.0625 Z M 4.296875 31.089844 " style=" stroke:none;fill-rule:nonzero;fill:rgb(5.098039%,5.098039%,5.882353%);fill-opacity:1;"/></g></svg>