<svg xmlns="http://www.w3.org/2000/svg" version="1.1" id="Layer_1" x="0px" y="0px" width="70px" height="70px" viewBox="0 0 70 70" enable-background="new 0 0 70 70" xml:space="preserve"><path fill="#CA202B" d="M40.558,21.178c-0.882,0.237-1.596,0.578-2.086,1.33   c-2.087,3.191-4.197,6.366-6.297,9.547c-0.586,0.89-1.266,1.676-2.269,2.111c-0.92,0.4-1.866,0.365-2.816,0.122   c-0.354-0.088-0.702-0.196-1.04-0.341c-0.377-0.158-0.365-0.167-0.182-0.528c0.228-0.444,0.482-0.714,1.058-0.601   c1,0.197,1.731-0.297,2.316-1.057c0.938-1.22,1.731-2.539,2.592-3.811c1.052-1.554,2.08-3.122,3.118-4.685   c0.033-0.05,0.062-0.101,0.111-0.182c-0.209,0.015-0.354,0.113-0.509,0.186c-0.714,0.335-1.278,0.831-1.715,1.493   c-1.232,1.865-2.471,3.724-3.719,5.582c-0.484,0.72-1.077,1.34-1.862,1.741c-1.056,0.54-2.144,0.462-3.234,0.13   c-0.333-0.102-0.653-0.244-0.979-0.367c-0.157-0.059-0.201-0.155-0.094-0.297c0.006-0.01,0.013-0.017,0.017-0.025   c0.238-0.6,0.61-0.838,1.309-0.727c0.9,0.144,1.533-0.435,2.09-1.067c0.814-0.925,1.456-1.975,2.143-2.993   c0.741-1.099,1.485-2.2,2.187-3.325c0.479-0.77,1.14-1.287,1.932-1.687c3.307-1.673,6.779-2.852,10.423-3.512   c1.182-0.215,2.376-0.358,3.569-0.081c1.049,0.242,1.882,0.764,2.224,1.861c0.022,0.076,0.047,0.152,0.063,0.23   c0.14,0.688,0.052,0.833-0.609,1.027c-0.507,0.149-1.014,0.299-1.518,0.455c-0.215,0.064-0.361,0.033-0.45-0.201   c-0.388-1.027-1.39-1.317-2.297-0.679c-0.394,0.278-0.649,0.672-0.909,1.062c-2.668,4.014-5.33,8.03-7.993,12.048   c-0.489,0.737-1.017,1.435-1.765,1.933c-1.109,0.738-2.31,0.801-3.561,0.461c-0.376-0.103-0.742-0.231-1.099-0.39   c-0.174-0.077-0.202-0.169-0.103-0.348c0.421-0.752,0.415-0.759,1.287-0.684c0.922,0.081,1.588-0.357,2.138-1.033   c0.781-0.964,1.416-2.028,2.106-3.056c2.094-3.114,4.173-6.239,6.255-9.359C40.439,21.388,40.482,21.308,40.558,21.178z" clip-rule="evenodd" fill-rule="evenodd"/><path fill="#CA202B" d="M47.643,7.503c0.13,0.043,0.255-0.001,0.382-0.019   c1.412-0.197,2.695,0.046,3.701,1.138c0.804,0.873,0.979,1.931,0.838,3.06c-1.485-0.381-2.896-0.006-4.29,0.417   c-2.03,0.617-3.966,1.46-5.782,2.565c-0.444,0.27-0.876,0.566-1.261,0.929c0.545-0.168,1.081-0.366,1.632-0.504   c1.753-0.437,3.519-0.634,5.301-0.195c2.782,0.686,4.58,3.244,4.293,6.093c-0.222,2.203-1.86,3.875-4.081,4.178   c-1.222,0.168-2.341-0.079-3.347-0.798c-0.49-0.351-0.831-0.83-1.097-1.361c-0.149-0.3-0.069-0.461,0.254-0.561   c0.608-0.188,1.22-0.371,1.828-0.564c0.183-0.059,0.325-0.048,0.445,0.118c0.507,0.697,1.21,0.765,1.959,0.554   c0.763-0.215,1.209-0.758,1.337-1.535c0.271-1.659-0.757-3.122-2.496-3.599c-1.349-0.37-2.712-0.337-4.067-0.085   c-3.276,0.61-6.443,1.576-9.479,2.965c-0.236,0.108-0.465,0.231-0.702,0.338c-0.097,0.044-0.217,0.098-0.303-0.011   c-0.073-0.094-0.009-0.203,0.042-0.278c0.147-0.226,0.312-0.44,0.474-0.656c3.076-4.096,7.084-6.941,11.816-8.819   c1.621-0.642,2.935-0.966,5.303-1.292c-0.173-0.207-0.402-0.262-0.623-0.317c-1.084-0.273-2.133-0.094-3.17,0.268   c-0.619,0.216-1.207,0.537-1.872,0.602c-0.39,0.037-0.759-0.029-1.088-0.251c-0.458-0.314-0.554-0.756-0.275-1.253   c0.816,0.538,1.667,0.416,2.522,0.119c0.202-0.069,0.419-0.165,0.419-0.413c0-0.247-0.199-0.381-0.407-0.471   c-0.547-0.237-1.094-0.133-1.642,0.015c-1.186,0.318-2.315,0.807-3.482,1.18c-1.229,0.394-2.455,0.535-3.688,0.037   c-0.894-0.361-1.608-0.915-1.975-1.843c-0.107-0.272-0.136-0.561-0.151-0.85c-0.007-0.124,0.018-0.199,0.167-0.133   c1.979,0.892,3.983,0.71,6.004,0.162c1.183-0.32,2.36-0.666,3.575-0.856c0.534-0.083,1.067-0.156,1.61-0.138   c0.514,0.016,0.981,0.17,1.355,0.545c0.486,0.489,0.491,1.023,0.022,1.527C47.645,7.508,47.645,7.506,47.643,7.503z" clip-rule="evenodd" fill-rule="evenodd"/><path fill="#050505" d="M36.394,53.806c1.348-0.893,1.899-2.186,2.092-3.684   c0.062-0.482,0.08-0.48-0.402-0.406c-0.099,0.014-0.2,0.02-0.299,0.027c-0.449,0.045-0.451,0.045-0.376-0.391   c0.015-0.08,0.038-0.154,0.05-0.234c0.128-0.719,0.126-0.719,0.845-0.752c0.058-0.004,0.119-0.012,0.177-0.006   c0.253,0.023,0.357-0.074,0.404-0.338c0.209-1.229,0.454-2.451,0.672-3.678c0.034-0.199,0.104-0.262,0.304-0.26   c0.274,0.004,0.611,0.117,0.811-0.049c0.185-0.152,0.229-0.475,0.331-0.721c0.116-0.275,0.241-0.549,0.342-0.83   c0.049-0.139,0.112-0.16,0.243-0.125c0.526,0.15,1.056,0.293,1.622,0.447c-0.3,0.424-0.585,0.826-0.872,1.229   c0.065,0.1,0.153,0.051,0.225,0.053c0.749,0.004,1.499,0.01,2.248-0.002c0.205-0.002,0.225,0.059,0.189,0.24   c-0.231,1.193-0.453,2.391-0.679,3.598c0.245,0.035,0.471,0.01,0.696-0.02c0.172-0.023,0.214,0.039,0.181,0.195   c-0.045,0.215-0.083,0.43-0.118,0.646c-0.019,0.109-0.074,0.148-0.183,0.154c-0.158,0.008-0.318,0.057-0.475,0.047   c-0.241-0.014-0.319,0.092-0.358,0.314c-0.196,1.121-0.403,2.24-0.615,3.355c-0.195,1.018-0.836,1.564-1.899,1.605   c-0.517,0.02-1.037,0-1.558,0.01c-0.135,0.002-0.195-0.031-0.214-0.172c-0.042-0.307-0.099-0.609-0.152-0.916   c-0.024-0.135,0.013-0.174,0.156-0.146c0.42,0.08,0.84,0.168,1.272,0.168c0.623,0.002,0.798-0.217,0.872-0.707   c0.152-1.004,0.368-2,0.551-2.998c0.014-0.082,0.13-0.248-0.054-0.248c-0.158-0.002-0.405-0.096-0.458,0.188   c-0.143,0.746-0.292,1.488-0.412,2.234c-0.036,0.225-0.115,0.285-0.325,0.264c-0.218-0.02-0.441-0.018-0.66-0.004   c-0.206,0.008-0.296-0.01-0.237-0.27c0.146-0.652,0.255-1.311,0.366-1.971c0.015-0.074,0.118-0.242-0.027-0.238   c-0.152,0.006-0.401-0.1-0.468,0.17c-0.061,0.252-0.1,0.508-0.157,0.76c-0.352,1.566-1.111,2.871-2.429,3.824   c-0.204,0.148-0.369,0.236-0.599,0.031C36.849,54.054,36.635,53.956,36.394,53.806z M42.066,45.581c0.12,0,0.241,0.014,0.359-0.002   c0.231-0.033,0.254,0.055,0.21,0.264c-0.145,0.693-0.264,1.389-0.394,2.084c-0.011,0.062-0.071,0.135,0.03,0.178   c0.176,0.076,0.482-0.082,0.519-0.27c0.151-0.83,0.295-1.668,0.463-2.496c0.043-0.205-0.03-0.211-0.188-0.207   c-0.599,0.002-1.197,0.004-1.796-0.002c-0.175-0.002-0.258,0.027-0.291,0.229c-0.144,0.863-0.315,1.725-0.471,2.586   c-0.016,0.088-0.13,0.252,0.049,0.244c0.146-0.006,0.394,0.139,0.449-0.17c0.112-0.617,0.241-1.232,0.353-1.85   C41.462,45.579,41.457,45.577,42.066,45.581z" clip-rule="evenodd" fill-rule="evenodd"/><path fill="#050505" d="M54.193,54.179c0.064-0.367,0.132-0.711,0.183-1.055   c0.031-0.209,0.179-0.148,0.296-0.148c1.649-0.004,3.296-0.01,4.944,0.006c0.288,0.004,0.364-0.094,0.401-0.354   c0.082-0.549,0.177-1.1,0.307-1.641c0.071-0.305-0.049-0.314-0.288-0.312c-1.207,0.01-2.416,0.002-3.625,0.012   c-0.223,0.002-0.337-0.018-0.25-0.285c0.064-0.197,0.104-0.412,0.107-0.617c0.004-0.309,0.165-0.334,0.422-0.332   c3.344,0.008,6.69,0.008,10.039-0.004c0.28,0,0.345,0.074,0.271,0.336c-0.056,0.199-0.08,0.41-0.104,0.619   c-0.026,0.205-0.109,0.289-0.339,0.285c-1.27-0.016-2.539,0-3.806-0.014c-0.218-0.002-0.293,0.066-0.329,0.266   c-0.099,0.602-0.199,1.201-0.331,1.797c-0.048,0.219,0.016,0.24,0.207,0.238c1.817-0.006,3.636,0,5.454-0.008   c0.221,0,0.327,0.018,0.245,0.283c-0.092,0.295-0.016,0.697-0.22,0.877c-0.192,0.17-0.572,0.047-0.87,0.047   c-4.114,0.004-8.231,0.002-12.347,0.004C54.443,54.179,54.325,54.179,54.193,54.179z" clip-rule="evenodd" fill-rule="evenodd"/><path fill="#050505" d="M43.427,53.778c1.184-0.553,1.562-1.574,1.768-2.717   c0.294-1.637,0.609-3.271,0.907-4.906c0.034-0.178,0.107-0.219,0.277-0.219c1.408,0.008,2.816,0.01,4.227,0   c0.239-0.002,0.248,0.08,0.212,0.277c-0.415,2.174-0.825,4.35-1.23,6.523c-0.036,0.189-0.077,0.387,0.205,0.441   c0.252,0.047,0.459-0.068,0.512-0.322c0.088-0.439,0.167-0.881,0.241-1.324c0.026-0.162,0.075-0.223,0.25-0.154   c0.341,0.139,0.689,0.26,1.039,0.377c0.106,0.035,0.14,0.07,0.103,0.188c-0.14,0.445-0.243,0.906-0.409,1.342   c-0.211,0.551-0.649,0.855-1.236,0.891c-0.49,0.029-0.981,0.025-1.47,0.002c-0.727-0.037-1.122-0.545-0.993-1.258   c0.345-1.883,0.691-3.766,1.051-5.645c0.049-0.242-0.023-0.275-0.222-0.256c-0.079,0.008-0.161,0.002-0.239,0.002   c-0.702,0-0.688,0.002-0.822,0.707c-0.229,1.234-0.394,2.482-0.728,3.693c-0.357,1.305-1.07,2.35-2.361,2.916   c-0.177,0.078-0.306,0.076-0.453-0.059C43.871,54.11,43.665,53.966,43.427,53.778z" clip-rule="evenodd" fill-rule="evenodd"/><path fill="#050505" d="M10.356,51.298c-0.792,0.684-1.608,1.334-2.512,1.871   c-0.497,0.295-1.009,0.564-1.524,0.826c-0.14,0.074-0.219,0.07-0.295-0.092c-0.131-0.279-0.289-0.545-0.436-0.814   c0.258-0.146,0.516-0.291,0.774-0.436c1.237-0.688,2.37-1.514,3.377-2.508c0.062-0.064,0.119-0.129,0.181-0.191   c-0.08-0.121-0.19-0.07-0.278-0.07c-0.939-0.004-1.878-0.016-2.817,0.002c-0.268,0.006-0.287-0.084-0.244-0.303   c0.142-0.719,0.137-0.719,0.874-0.719c1.01,0,2.02-0.008,3.028,0.004c0.232,0.002,0.381-0.029,0.382-0.303   c0.001-0.117,0.067-0.236,0.065-0.352c-0.003-0.326,0.145-0.416,0.46-0.391c0.387,0.029,0.779,0.012,1.168,0.004   c0.146-0.004,0.195,0.027,0.152,0.186c-0.053,0.189-0.071,0.391-0.122,0.582c-0.053,0.205-0.01,0.275,0.22,0.273   c1.259-0.012,2.518,0.002,3.777-0.012c0.244-0.002,0.283,0.066,0.243,0.285c-0.135,0.736-0.129,0.738-0.886,0.738   c-0.93,0-1.859,0-2.788,0.002c-0.048,0-0.097,0.008-0.198,0.018c0.902,1.428,2.14,2.438,3.553,3.299   c-0.258,0.281-0.519,0.555-0.765,0.84c-0.129,0.15-0.213,0.023-0.302-0.031c-1.146-0.707-2.181-1.547-3.064-2.568   c-0.071-0.08-0.144-0.16-0.256-0.283c-0.113,0.623-0.22,1.207-0.324,1.789c-0.071,0.393-0.14,0.785-0.205,1.18   c-0.026,0.154-0.074,0.238-0.265,0.23c-0.429-0.018-0.859-0.012-1.289-0.004c-0.187,0.006-0.236-0.027-0.192-0.232   c0.193-0.926,0.363-1.859,0.542-2.789c0.002-0.025,0.013-0.066,0.004-0.072C10.359,51.239,10.364,51.274,10.356,51.298z" clip-rule="evenodd" fill-rule="evenodd"/><path fill="#050505" d="M17.133,46.46c-0.533,0.912-1.272,1.434-2.353,1.387   c-0.389-0.02-0.781,0.006-1.168-0.023c-0.708-0.055-1.098-0.549-0.982-1.248c0.118-0.717,0.256-1.434,0.4-2.145   c0.034-0.17,0.018-0.238-0.173-0.227c-0.268,0.02-0.594-0.07-0.787,0.053c-0.186,0.119-0.134,0.475-0.185,0.729   c-0.089,0.439-0.16,0.879-0.378,1.283c-0.449,0.826-1.208,1.246-2.042,1.566c-0.502,0.191-1.024,0.324-1.544,0.459   c-0.156,0.043-0.272,0.043-0.354-0.139c-0.109-0.242-0.396-0.51-0.345-0.695c0.053-0.193,0.46-0.174,0.708-0.26   c0.521-0.178,1.022-0.381,1.476-0.703c0.61-0.434,0.781-1.078,0.89-1.76c0.084-0.531,0.088-0.504-0.436-0.537   c-0.337-0.02-0.481,0.084-0.509,0.42c-0.021,0.256-0.023,0.602-0.179,0.732c-0.158,0.127-0.495,0.043-0.754,0.049   c-0.24,0.002-0.48-0.006-0.719,0.004c-0.157,0.008-0.187-0.059-0.16-0.195c0.121-0.625,0.244-1.252,0.354-1.879   c0.022-0.129,0.084-0.135,0.18-0.133c0.22,0.002,0.44,0,0.659,0c2.876,0,5.754,0.004,8.63-0.008c0.282-0.002,0.3,0.08,0.25,0.311   c-0.121,0.564-0.23,1.133-0.33,1.701c-0.029,0.158-0.087,0.209-0.249,0.205c-0.439-0.01-0.879-0.008-1.319,0   c-0.179,0.004-0.23-0.051-0.189-0.223c0.058-0.242,0.092-0.49,0.154-0.732c0.053-0.203-0.009-0.252-0.214-0.248   c-0.666,0.01-0.665,0-0.795,0.67c-0.087,0.447-0.183,0.896-0.263,1.348c-0.033,0.184-0.146,0.398,0.112,0.523   c0.244,0.119,0.613,0.055,0.762-0.16c0.129-0.188,0.237-0.391,0.334-0.6c0.058-0.125,0.117-0.129,0.228-0.08   C16.271,46.095,16.7,46.274,17.133,46.46z" clip-rule="evenodd" fill-rule="evenodd"/><path fill="#050505" d="M23.781,50.747c0.305-0.076,0.564-0.139,0.822-0.209   c0.142-0.039,0.203-0.029,0.162,0.146c-0.058,0.252-0.101,0.508-0.134,0.766c-0.016,0.123-0.083,0.168-0.184,0.203   c-1.448,0.498-2.896,1-4.343,1.502c-0.117,0.041-0.176,0.027-0.219-0.102c-0.111-0.342-0.226-0.68-0.361-1.014   c-0.067-0.164-0.005-0.195,0.135-0.23c0.667-0.168,1.329-0.348,1.994-0.518c0.168-0.041,0.257-0.109,0.292-0.305   c0.197-1.129,0.416-2.254,0.634-3.381c0.035-0.178,0.003-0.246-0.198-0.24c-0.439,0.014-0.879-0.008-1.318,0.01   c-0.208,0.008-0.233-0.068-0.191-0.244c0.064-0.262,0.029-0.617,0.189-0.764c0.177-0.164,0.532-0.039,0.809-0.049   c0.309-0.012,0.694,0.096,0.903-0.053c0.211-0.148,0.151-0.566,0.21-0.867c0.136-0.693,0.268-1.389,0.38-2.086   c0.03-0.182,0.092-0.23,0.266-0.227c0.438,0.012,0.879,0.02,1.318-0.002c0.249-0.012,0.251,0.098,0.216,0.281   c-0.17,0.891-0.327,1.783-0.507,2.674c-0.046,0.225-0.008,0.299,0.232,0.283c0.289-0.023,0.58-0.002,0.869-0.008   c0.129-0.004,0.178,0.025,0.145,0.166c-0.055,0.244-0.099,0.49-0.13,0.738c-0.021,0.156-0.126,0.127-0.22,0.127   c-0.321,0.004-0.64,0.004-0.959,0.002c-0.108-0.002-0.181,0.006-0.206,0.146C24.193,48.562,23.991,49.628,23.781,50.747z" clip-rule="evenodd" fill-rule="evenodd"/><path fill="#050505" d="M34.013,42.79c0.229,0.002,0.459,0.014,0.688-0.002   c0.177-0.012,0.198,0.055,0.169,0.209c-0.25,1.332-0.498,2.664-0.743,3.998c-0.43,2.34-0.86,4.682-1.279,7.027   c-0.045,0.248-0.105,0.377-0.399,0.355c-0.427-0.033-0.858-0.014-1.288-0.006c-0.149,0.002-0.18-0.033-0.152-0.188   c0.564-3.037,1.12-6.074,1.679-9.113c0.126-0.686,0.268-1.369,0.376-2.059c0.032-0.203,0.118-0.23,0.29-0.223   C33.572,42.8,33.792,42.79,34.013,42.79z" clip-rule="evenodd" fill-rule="evenodd"/><path fill="#050505" d="M62.565,44.712c-1.438,0-2.877,0.004-4.315-0.004   c-0.213,0-0.317,0.039-0.347,0.279c-0.046,0.385-0.149,0.764-0.212,1.145c-0.021,0.141-0.077,0.18-0.212,0.18   c-0.499-0.008-0.999-0.01-1.497-0.002c-0.166,0.002-0.175-0.062-0.147-0.199c0.141-0.713,0.271-1.428,0.403-2.145   c0.03-0.168,0.095-0.24,0.29-0.24c1.647,0.012,3.297,0.002,4.942,0.012c0.216,0.002,0.298-0.039,0.3-0.271   c0.002-0.357,0.051-0.713,0.069-1.072c0.008-0.16,0.046-0.23,0.228-0.203c0.522,0.08,1.046,0.158,1.572,0.209   c0.228,0.021,0.222,0.1,0.16,0.273c-0.092,0.264-0.151,0.535-0.239,0.799c-0.064,0.201-0.039,0.268,0.198,0.266   c1.587-0.012,3.176-0.006,4.764-0.006c0.179,0.002,0.359,0.004,0.539,0c0.115-0.002,0.18,0.004,0.147,0.162   c-0.14,0.684-0.263,1.371-0.387,2.057c-0.021,0.113-0.074,0.148-0.182,0.148c-0.509-0.002-1.019-0.008-1.529,0.002   c-0.181,0.004-0.159-0.098-0.141-0.207c0.053-0.307,0.096-0.611,0.163-0.914c0.044-0.205,0.008-0.273-0.226-0.271   C65.461,44.718,64.011,44.712,62.565,44.712z" clip-rule="evenodd" fill-rule="evenodd"/><path fill="#050505" d="M22.9,53.833c0.375-0.268,0.713-0.51,1.053-0.748   c1.297-0.916,1.918-2.211,2.179-3.742c0.331-1.936,0.717-3.861,1.075-5.793c0.025-0.137,0.063-0.211,0.224-0.209   c0.489,0.008,0.979,0.008,1.468,0c0.156,0,0.189,0.057,0.161,0.197c-0.412,2.012-0.733,4.039-1.179,6.043   c-0.361,1.623-1.255,2.891-2.566,3.881c-0.318,0.244-0.649,0.467-0.96,0.717c-0.156,0.125-0.292,0.123-0.464,0.049   C23.579,54.093,23.262,53.976,22.9,53.833z" clip-rule="evenodd" fill-rule="evenodd"/><path fill="#050505" d="M28.409,52.743c0.31-1.66,0.615-3.297,0.92-4.932   c0.255-1.359,0.521-2.719,0.761-4.082c0.052-0.295,0.139-0.426,0.465-0.395c0.386,0.035,0.779,0.018,1.168,0.006   c0.183-0.004,0.247,0.031,0.209,0.232c-0.563,2.977-1.119,5.951-1.677,8.93c-0.03,0.158-0.071,0.256-0.278,0.248   C29.461,52.729,28.943,52.743,28.409,52.743z" clip-rule="evenodd" fill-rule="evenodd"/><path fill="#050505" d="M39.345,62.921c0.339-0.668,0.653-1.287,0.97-1.906   c0.544-1.062,1.098-2.121,1.627-3.193c0.115-0.234,0.249-0.307,0.501-0.295c0.496,0.021,0.996,0.012,1.497,0.002   c0.16-0.002,0.219,0.043,0.242,0.209c0.218,1.652,0.441,3.303,0.68,4.949c0.026,0.203-0.019,0.242-0.203,0.238   c-0.339-0.012-0.68-0.014-1.019,0c-0.158,0.004-0.211-0.062-0.225-0.203c-0.022-0.209-0.063-0.416-0.072-0.625   c-0.008-0.158-0.077-0.197-0.225-0.197c-0.529,0.006-1.058,0.01-1.586-0.002c-0.152-0.004-0.208,0.068-0.27,0.182   c-0.146,0.279-0.193,0.674-0.462,0.803c-0.253,0.121-0.606,0.035-0.915,0.037C39.725,62.921,39.566,62.921,39.345,62.921z    M41.867,60.833c0.424,0,0.8-0.002,1.176,0c0.088,0,0.15-0.008,0.139-0.129c-0.069-0.688-0.131-1.375-0.196-2.059   c-0.019-0.002-0.037-0.004-0.055-0.006C42.581,59.356,42.233,60.075,41.867,60.833z" clip-rule="evenodd" fill-rule="evenodd"/><path fill="#050505" d="M1.018,61.321C1.732,61.771,2.5,61.907,3.319,61.8   c0.143-0.018,0.27-0.074,0.383-0.156c0.279-0.199,0.265-0.5-0.031-0.676c-0.245-0.145-0.525-0.184-0.795-0.248   c-0.352-0.08-0.696-0.18-1.005-0.367c-0.515-0.316-0.701-0.811-0.529-1.393c0.242-0.822,0.863-1.227,1.637-1.408   c0.762-0.182,1.526-0.102,2.275,0.127c0.138,0.045,0.158,0.111,0.133,0.24c-0.067,0.35-0.125,0.703-0.194,1.092   c-0.373-0.273-0.761-0.439-1.194-0.494c-0.333-0.039-0.66-0.021-0.958,0.148c-0.337,0.193-0.335,0.5,0.003,0.688   c0.403,0.229,0.862,0.303,1.29,0.459c0.933,0.348,1.246,1.172,0.771,2.049c-0.192,0.355-0.475,0.623-0.839,0.781   c-1.068,0.465-2.141,0.49-3.214,0.004c-0.195-0.088-0.271-0.195-0.218-0.41C0.908,61.937,0.956,61.63,1.018,61.321z" clip-rule="evenodd" fill-rule="evenodd"/><path fill="#050505" d="M7.673,59.044c0.35-0.234,0.638-0.438,1-0.512   c0.824-0.164,1.461,0.373,1.34,1.195c-0.148,1.006-0.35,2.002-0.521,3.006c-0.024,0.145-0.085,0.193-0.235,0.189   c-0.31-0.012-0.619-0.012-0.928,0.002c-0.169,0.004-0.209-0.051-0.178-0.211c0.149-0.781,0.298-1.564,0.436-2.35   c0.037-0.205,0.155-0.451-0.073-0.607c-0.228-0.156-0.461-0.035-0.674,0.078c-0.241,0.125-0.39,0.309-0.437,0.598   c-0.121,0.748-0.277,1.49-0.404,2.236c-0.034,0.201-0.116,0.262-0.312,0.252c-0.289-0.018-0.58-0.014-0.869-0.004   c-0.185,0.008-0.257-0.008-0.214-0.238c0.317-1.654,0.616-3.312,0.913-4.971c0.024-0.137,0.07-0.186,0.206-0.182   c0.33,0.008,0.66,0.014,0.989-0.002c0.19-0.008,0.213,0.066,0.185,0.227C7.819,58.159,7.754,58.569,7.673,59.044z" clip-rule="evenodd" fill-rule="evenodd"/><path fill="#050505" d="M25.536,59.06c0.356-0.266,0.645-0.451,0.996-0.525   c0.824-0.174,1.466,0.361,1.346,1.189c-0.145,1.016-0.357,2.02-0.529,3.031c-0.026,0.148-0.09,0.17-0.216,0.168   c-0.31-0.008-0.621-0.016-0.929,0.002c-0.192,0.006-0.215-0.072-0.184-0.232c0.151-0.791,0.301-1.586,0.442-2.379   c0.033-0.189,0.126-0.408-0.074-0.555c-0.194-0.143-0.407-0.059-0.597,0.029c-0.283,0.131-0.479,0.322-0.532,0.664   c-0.111,0.729-0.266,1.451-0.391,2.178c-0.035,0.207-0.103,0.311-0.338,0.293c-0.308-0.023-0.62-0.01-0.929-0.006   c-0.131,0.002-0.169-0.033-0.143-0.176c0.315-1.686,0.622-3.371,0.927-5.057c0.02-0.105,0.048-0.158,0.164-0.156   c0.359,0.004,0.719,0.01,1.079-0.002c0.193-0.006,0.148,0.113,0.131,0.215C25.692,58.153,25.621,58.563,25.536,59.06z" clip-rule="evenodd" fill-rule="evenodd"/><path fill="#050505" d="M34.523,59.046c0.309-0.244,0.616-0.438,0.987-0.516   c0.835-0.178,1.482,0.424,1.337,1.264c-0.168,0.973-0.353,1.943-0.521,2.916c-0.028,0.164-0.092,0.217-0.252,0.215   c-0.308-0.012-0.619-0.012-0.929-0.002c-0.17,0.004-0.193-0.047-0.162-0.209c0.163-0.842,0.313-1.688,0.463-2.531   c0.073-0.406-0.132-0.578-0.534-0.449c-0.39,0.123-0.637,0.348-0.701,0.795c-0.104,0.729-0.272,1.449-0.398,2.174   c-0.029,0.166-0.087,0.221-0.248,0.215c-0.299-0.008-0.6-0.016-0.898,0.004c-0.221,0.012-0.277-0.055-0.235-0.268   c0.15-0.773,0.287-1.551,0.43-2.324c0.093-0.5,0.201-0.998,0.275-1.5c0.033-0.219,0.12-0.279,0.329-0.264   c0.258,0.02,0.521,0.025,0.778-0.002c0.262-0.025,0.341,0.062,0.279,0.311C34.514,58.919,34.523,58.97,34.523,59.046z" clip-rule="evenodd" fill-rule="evenodd"/><path fill="#050505" d="M16.66,59.054c0.348-0.299,0.701-0.5,1.118-0.547   c0.767-0.088,1.322,0.469,1.204,1.248c-0.153,1.002-0.354,1.998-0.525,3c-0.025,0.15-0.104,0.17-0.227,0.168   c-0.31-0.006-0.62-0.01-0.929,0c-0.171,0.004-0.218-0.029-0.182-0.217c0.164-0.83,0.309-1.664,0.459-2.5   c0.08-0.447-0.118-0.609-0.561-0.463c-0.382,0.127-0.608,0.357-0.671,0.783c-0.11,0.738-0.273,1.467-0.403,2.205   c-0.025,0.137-0.072,0.188-0.208,0.186c-0.34-0.004-0.68-0.008-1.019,0.002c-0.161,0.004-0.18-0.068-0.156-0.203   c0.245-1.322,0.488-2.645,0.728-3.967c0.027-0.15,0.104-0.188,0.246-0.182c0.291,0.01,0.582,0.02,0.87-0.004   c0.251-0.02,0.321,0.068,0.257,0.301C16.648,58.909,16.66,58.962,16.66,59.054z" clip-rule="evenodd" fill-rule="evenodd"/><path fill="#050505" d="M57.668,59.036c0.311-0.227,0.611-0.426,0.979-0.504   c0.826-0.172,1.48,0.402,1.349,1.229c-0.16,0.992-0.354,1.98-0.53,2.973c-0.022,0.123-0.063,0.191-0.209,0.189   c-0.33-0.01-0.659-0.01-0.986,0c-0.17,0.004-0.168-0.066-0.142-0.199c0.159-0.854,0.312-1.707,0.461-2.559   c0.066-0.375-0.132-0.557-0.493-0.449c-0.395,0.121-0.67,0.336-0.736,0.797c-0.105,0.729-0.273,1.447-0.399,2.174   c-0.029,0.176-0.088,0.24-0.265,0.234c-0.289-0.014-0.582-0.021-0.868,0c-0.235,0.016-0.292-0.059-0.247-0.283   c0.173-0.891,0.331-1.785,0.495-2.676c0.071-0.381,0.162-0.762,0.208-1.146c0.027-0.215,0.122-0.26,0.312-0.248   c0.26,0.014,0.521,0.023,0.778-0.004c0.279-0.027,0.361,0.072,0.296,0.332C57.66,58.929,57.668,58.97,57.668,59.036z" clip-rule="evenodd" fill-rule="evenodd"/><path fill="#050505" d="M31.77,61.726c-0.04,0.193-0.094,0.34-0.094,0.484   c0,0.355-0.206,0.506-0.509,0.592c-0.493,0.145-0.987,0.24-1.502,0.152c-0.965-0.158-1.436-0.705-1.417-1.678   c0.01-0.49,0.108-0.967,0.316-1.418c0.428-0.926,1.338-1.451,2.347-1.357c0.864,0.082,1.385,0.658,1.374,1.541   c-0.004,0.268-0.067,0.533-0.083,0.801c-0.012,0.189-0.105,0.223-0.272,0.221c-0.729-0.01-1.458,0.004-2.186-0.012   c-0.24-0.004-0.259,0.08-0.207,0.275c0.112,0.422,0.494,0.654,1.065,0.619c0.198-0.012,0.397-0.023,0.591-0.082   C31.369,61.81,31.552,61.776,31.77,61.726z M29.728,60.118c0.354,0,0.683,0.004,1.012-0.002c0.101-0.004,0.245,0.064,0.298-0.049   c0.055-0.119-0.01-0.256-0.085-0.365c-0.076-0.113-0.177-0.18-0.319-0.195C30.21,59.458,29.912,59.646,29.728,60.118z" clip-rule="evenodd" fill-rule="evenodd"/><path fill="#050505" d="M63.971,61.724c-0.047,0.268-0.092,0.512-0.135,0.754   c-0.018,0.096-0.072,0.16-0.16,0.199c-0.727,0.311-1.473,0.436-2.243,0.172c-0.64-0.217-0.954-0.691-0.97-1.488   c-0.014-0.65,0.136-1.268,0.488-1.824c0.523-0.822,1.585-1.232,2.504-0.969c0.573,0.166,0.923,0.533,1.009,1.133   c0.014,0.107,0.034,0.217,0.034,0.328c0.015,1.025,0.008,1.031-1.002,1.031c-0.52,0-1.039,0.01-1.559-0.006   c-0.21-0.006-0.232,0.07-0.195,0.246c0.065,0.322,0.325,0.559,0.683,0.619c0.478,0.08,0.932-0.031,1.385-0.156   C63.853,61.749,63.897,61.741,63.971,61.724z M61.934,60.118c0.363,0,0.7,0,1.038,0c0.309,0,0.375-0.113,0.218-0.381   c-0.078-0.135-0.193-0.215-0.357-0.23C62.41,59.464,62.124,59.646,61.934,60.118z" clip-rule="evenodd" fill-rule="evenodd"/><path fill="#050505" d="M13.896,61.724c-0.05,0.273-0.095,0.525-0.14,0.777   c-0.019,0.1-0.093,0.148-0.178,0.184c-0.659,0.281-1.338,0.402-2.045,0.219c-0.701-0.182-1.062-0.598-1.128-1.332   c-0.077-0.848,0.119-1.627,0.664-2.297c0.528-0.646,1.543-0.945,2.337-0.701c0.663,0.201,1.011,0.709,1.016,1.484   c0.006,0.994-0.002,1.002-0.974,1.002c-0.529,0-1.06,0.006-1.589-0.006c-0.2-0.006-0.236,0.055-0.197,0.242   c0.095,0.439,0.5,0.688,1.1,0.652C13.141,61.929,13.503,61.821,13.896,61.724z M11.86,60.118c0.363,0,0.7,0,1.037,0   c0.306,0,0.37-0.113,0.214-0.383c-0.072-0.127-0.176-0.205-0.328-0.225C12.353,59.448,12.058,59.632,11.86,60.118z" clip-rule="evenodd" fill-rule="evenodd"/><path fill="#050505" d="M64.945,48.896c-0.411-0.031-0.921,0.053-1.428-0.047   c-0.608-0.119-0.949-0.557-0.852-1.164c0.116-0.719,0.277-1.428,0.417-2.141c0.022-0.115,0.076-0.168,0.201-0.168   c0.499,0.006,1,0.016,1.499-0.002c0.249-0.01,0.228,0.113,0.193,0.273c-0.105,0.51-0.209,1.016-0.316,1.525   c-0.102,0.484,0.062,0.688,0.566,0.695c0.159,0.002,0.32-0.004,0.48,0c0.414,0.008,0.702-0.182,0.889-0.543   c0.064-0.123,0.12-0.25,0.179-0.377c0.205-0.434,0.205-0.434,0.652-0.217c0.296,0.141,0.591,0.291,0.89,0.426   c0.119,0.053,0.173,0.09,0.097,0.234c-0.507,0.963-1.25,1.537-2.383,1.506C65.701,48.886,65.372,48.896,64.945,48.896z" clip-rule="evenodd" fill-rule="evenodd"/><path fill="#050505" d="M21.272,61.896c0.55,0,1.029,0.008,1.507-0.002   c0.185-0.006,0.205,0.047,0.18,0.217c-0.117,0.779-0.112,0.783-0.902,0.785c-0.985,0.002-1.97,0-3.003,0   c0.756-1.072,1.497-2.119,2.28-3.23c-0.482,0-0.896-0.01-1.31,0.004c-0.18,0.006-0.254-0.018-0.201-0.223   c0.07-0.27,0.023-0.621,0.18-0.799c0.168-0.191,0.527-0.057,0.801-0.061c0.906-0.006,1.813-0.002,2.793-0.002   C22.81,59.706,22.056,60.78,21.272,61.896z" clip-rule="evenodd" fill-rule="evenodd"/><path fill="#050505" d="M68.264,59.788c-0.425-0.305-0.86-0.436-1.333-0.385   c-0.218,0.023-0.514,0.033-0.553,0.309c-0.044,0.287,0.263,0.303,0.452,0.381c0.163,0.066,0.344,0.098,0.519,0.139   c0.471,0.105,0.885,0.301,0.997,0.822c0.119,0.541-0.098,0.998-0.486,1.367c-0.354,0.336-0.801,0.488-1.272,0.541   c-0.603,0.066-1.195,0.021-1.744-0.279c-0.12-0.066-0.173-0.139-0.138-0.285c0.053-0.203,0.082-0.41,0.111-0.619   c0.022-0.156,0.061-0.205,0.221-0.104c0.473,0.307,1.005,0.359,1.55,0.348c0.04,0,0.08-0.002,0.12-0.012   c0.195-0.059,0.443-0.07,0.449-0.352c0.005-0.273-0.24-0.289-0.422-0.34c-0.249-0.07-0.509-0.104-0.756-0.18   c-0.949-0.297-1.207-1.279-0.534-2.023c0.339-0.373,0.778-0.557,1.265-0.615c0.517-0.062,1.033-0.02,1.539,0.125   c0.151,0.045,0.212,0.098,0.174,0.27C68.354,59.173,68.318,59.46,68.264,59.788z" clip-rule="evenodd" fill-rule="evenodd"/><path fill="#050505" d="M48.718,45.315c-1.088,0-2.179-0.004-3.267,0.002   c-0.2,0.004-0.3-0.016-0.226-0.256c0.077-0.244,0.004-0.604,0.184-0.73c0.174-0.125,0.499-0.041,0.76-0.043   c0.549-0.002,1.098-0.004,1.646,0.004c0.147,0.002,0.207-0.029,0.221-0.189c0.041-0.469,0.11-0.932,0.15-1.398   c0.016-0.162,0.065-0.195,0.218-0.174c0.505,0.074,1.01,0.141,1.518,0.195c0.163,0.021,0.13,0.096,0.096,0.201   c-0.117,0.35-0.203,0.711-0.34,1.053c-0.114,0.283-0.024,0.32,0.241,0.314c0.759-0.016,1.521,0.002,2.279-0.01   c0.226-0.004,0.295,0.037,0.243,0.277c-0.157,0.754-0.149,0.754-0.936,0.754C50.575,45.315,49.646,45.315,48.718,45.315   L48.718,45.315z" clip-rule="evenodd" fill-rule="evenodd"/><path fill="#050505" d="M56.494,49.04c-0.058,0.006-0.065,0.006-0.077,0.008   c-0.735,0.07-0.877-0.035-1.064-0.748c-0.06-0.217,0.116-0.146,0.192-0.154c0.636-0.062,1.269-0.143,1.884-0.322   c0.307-0.09,0.604-0.201,0.887-0.348c0.492-0.252,0.812-0.631,0.911-1.186c0.055-0.303,0.047-0.699,0.237-0.873   c0.191-0.178,0.589-0.041,0.897-0.051c0.29-0.006,0.579,0,0.87,0c0.088-0.002,0.197-0.014,0.16,0.131   c-0.152,0.578-0.196,1.184-0.432,1.734c-0.358,0.84-1.098,1.199-1.913,1.445C58.2,48.933,57.322,48.991,56.494,49.04z" clip-rule="evenodd" fill-rule="evenodd"/><path fill="#050505" d="M48.504,62.923c-0.616,0.004-0.615,0.004-0.5-0.613   c0.207-1.146,0.414-2.295,0.613-3.441c0.038-0.207,0.11-0.309,0.342-0.283c0.238,0.025,0.481,0.018,0.719,0   c0.197-0.014,0.248,0.049,0.201,0.234c-0.019,0.08-0.096,0.201-0.002,0.246c0.115,0.057,0.148-0.096,0.212-0.158   c0.308-0.293,0.656-0.443,1.087-0.367c0.127,0.021,0.174,0.066,0.15,0.195c-0.051,0.254-0.095,0.51-0.134,0.766   c-0.017,0.121-0.077,0.131-0.186,0.125c-0.701-0.027-1.312,0.453-1.447,1.145c-0.119,0.596-0.243,1.191-0.332,1.795   c-0.039,0.277-0.129,0.414-0.425,0.359C48.705,62.907,48.604,62.923,48.504,62.923z M49.895,59.126   c-0.013-0.014-0.025-0.025-0.036-0.037c-0.014,0.021-0.032,0.045-0.037,0.068c-0.002,0.01,0.02,0.027,0.031,0.041   C49.865,59.173,49.881,59.149,49.895,59.126z" clip-rule="evenodd" fill-rule="evenodd"/><path fill="#050505" d="M51.863,62.921c-0.658,0-0.65,0.002-0.529-0.643   c0.28-1.477,0.553-2.955,0.816-4.438c0.038-0.221,0.1-0.332,0.35-0.305c0.257,0.023,0.521,0.02,0.778,0   c0.211-0.02,0.227,0.068,0.194,0.238c-0.305,1.648-0.608,3.295-0.905,4.939c-0.028,0.156-0.091,0.225-0.255,0.211   C52.164,62.909,52.012,62.921,51.863,62.921z" clip-rule="evenodd" fill-rule="evenodd"/><path fill="#050505" d="M3.489,54.167c-0.429-0.318-0.841-0.631-1.262-0.932   c-0.171-0.121-0.045-0.197,0.021-0.281c0.702-0.881,1.405-1.762,2.106-2.641c0.192-0.242,0.389-0.482,0.572-0.73   c0.091-0.123,0.166-0.129,0.284-0.037c0.242,0.189,0.624,0.324,0.703,0.562c0.073,0.219-0.254,0.5-0.407,0.752   C4.84,51.958,4.169,53.054,3.489,54.167z" clip-rule="evenodd" fill-rule="evenodd"/><path fill="#050505" d="M46.312,62.921c-0.638,0-0.638,0-0.521-0.646   c0.182-1.02,0.37-2.035,0.548-3.055c0.026-0.154,0.08-0.221,0.249-0.213c0.288,0.014,0.578,0.018,0.866,0   c0.208-0.014,0.228,0.07,0.195,0.244c-0.22,1.152-0.438,2.307-0.641,3.463c-0.031,0.164-0.086,0.221-0.247,0.209   C46.612,62.909,46.461,62.919,46.312,62.921z" clip-rule="evenodd" fill-rule="evenodd"/><path fill="#050505" d="M54.771,59.011c0.176,0.023,0.47-0.1,0.583,0.053   c0.087,0.109-0.036,0.389-0.074,0.594c-0.182,1.008-0.37,2.016-0.548,3.023c-0.031,0.172-0.084,0.26-0.286,0.244   c-0.268-0.021-0.537-0.018-0.807,0c-0.207,0.012-0.254-0.062-0.217-0.258c0.191-1.008,0.376-2.016,0.562-3.021   c0.002-0.01,0.005-0.02,0.007-0.029C54.114,59.011,54.114,59.011,54.771,59.011z" clip-rule="evenodd" fill-rule="evenodd"/><path fill="#050505" d="M6.519,47.36c-0.33,0.418-0.654,0.82-0.966,1.232   c-0.09,0.119-0.141,0.121-0.25,0.02c-0.596-0.564-1.257-1.039-1.998-1.396c-0.143-0.068-0.152-0.129-0.09-0.271   c0.337-0.771,0.332-0.771,1.125-0.506C5.086,46.688,5.81,46.989,6.519,47.36z" clip-rule="evenodd" fill-rule="evenodd"/><path fill="#050505" d="M7.267,44.019c-0.343,0.438-0.677,0.857-1.004,1.279   c-0.075,0.098-0.124,0.057-0.187-0.006c-0.553-0.537-1.154-1.006-1.853-1.344c-0.082-0.037-0.14-0.082-0.07-0.176   c0.006-0.008,0.011-0.018,0.015-0.027c0.324-0.826,0.322-0.822,1.162-0.553C5.994,43.407,6.623,43.694,7.267,44.019z" clip-rule="evenodd" fill-rule="evenodd"/><path fill="#050505" d="M55.056,57.538c0.628,0,0.628,0,0.507,0.613   c-0.089,0.441-0.089,0.441-0.561,0.441c-0.199,0-0.399-0.012-0.597,0.004c-0.206,0.014-0.243-0.072-0.184-0.246   c0.01-0.035,0.02-0.074,0.027-0.113C54.369,57.538,54.369,57.538,55.056,57.538z" clip-rule="evenodd" fill-rule="evenodd"/><path fill="#050505" d="M47.301,57.528c0.209,0.01,0.494-0.059,0.604,0.051   c0.113,0.111-0.034,0.383-0.065,0.582c-0.067,0.432-0.071,0.432-0.508,0.432c-0.219,0-0.438-0.006-0.658,0.002   c-0.149,0.006-0.236-0.021-0.172-0.199c0.024-0.072,0.022-0.158,0.039-0.236C46.666,57.538,46.666,57.538,47.301,57.528z" clip-rule="evenodd" fill-rule="evenodd"/><path fill="#FFFFFF" d="M47.643,7.503c0.002,0.003,0.002,0.005,0.002,0.007   C47.645,7.509,47.643,7.503,47.643,7.503z" clip-rule="evenodd" fill-rule="evenodd"/><path fill="#FFFFFF" d="M10.356,51.298c0.007-0.023,0.003-0.059,0.04-0.041   c0.009,0.006-0.002,0.047-0.004,0.072C10.379,51.319,10.368,51.308,10.356,51.298z" clip-rule="evenodd" fill-rule="evenodd"/><path fill="#FFFFFF" d="M49.895,59.126c-0.014,0.023-0.029,0.047-0.042,0.072   c-0.012-0.014-0.033-0.031-0.031-0.041c0.005-0.023,0.023-0.047,0.037-0.068C49.869,59.101,49.882,59.112,49.895,59.126z" clip-rule="evenodd" fill-rule="evenodd"/></svg>