<svg xmlns="http://www.w3.org/2000/svg" id="Layer_1" width="64.639" height="64.19" x="0" y="0" enable-background="new 0 0 64.639 64.19" version="1.0" viewBox="0 0 64.639 64.19" xml:space="preserve"><metadata/><switch><g><path fill="#182F58" d="M64.382,61.89L22.233,1.537C21.64,0.688,20.473,0,19.624,0H1.352c-0.847,0-1.447,0.688-1.34,1.537 l7.811,61.117c0.107,0.848,0.884,1.536,1.731,1.536h54.063C64.464,64.19,64.975,62.736,64.382,61.89z"/><path fill="#A1D8F1" d="M46.11,35.724c-3.726,2.914-19.004,16.751-26.797,28.465h3.47c6.809-8.233,16.606-19.503,25.504-25.348 L46.11,35.724z M43.984,32.681l-1.673-2.395c-4.014,4.11-25.645,28.87-29.57,33.904h2.821 C22.033,57.16,35.832,40.096,43.984,32.681z M38.081,24.229c-2.634,3.109-9.741,11.589-9.741,11.589s-0.137-5.713-2.586-5.713 c-2.585,0-2.72,5.848-5.85,5.848c-2.177,0-3.835-6.485-8.572-9.93c-3.295-2.396-6.805-2.228-8.441-1.968l0.626,4.895 c3.376-0.141,6.017,0.271,8.496,2.923c3.946,4.218,3.946,9.796,6.259,9.932c2.312,0.135,4.489-5.306,5.851-5.035 c1.359,0.274,1.768,2.178,1.768,2.178l-1.224,1.771c0,0-1.77-0.68-2.449,0.405c-0.68,1.092-2.177,4.491-3.81,4.491 c-2.04,0-3.674-4.76-5.307-7.756c-1.61-2.951-3.229-6.954-9.281-6.54l0.65,5.095c2.878,0.256,6.022,1.671,8.087,5.802 c2.313,4.624,3.537,8.435,3.537,8.435l-1.224,1.903c0,0-2.857-6.395-4.897-9.657c-1.396-2.235-3.618-3.259-5.145-3.682 l0.602,4.705c2.228,0.925,5.592,3.619,6.991,11.492L7.655,61.34l0.168,1.314c0.107,0.85,0.884,1.536,1.731,1.536H9.65 c4.073-5.31,20.007-25.18,30.819-36.541L38.081,24.229z"/></g></switch></svg>