<svg xmlns="http://www.w3.org/2000/svg" version="1.1" id="Layer_1" x="0px" y="0px" width="70px" height="70px" viewBox="0 0 70 70" enable-background="new 0 0 70 70" xml:space="preserve"><metadata/><switch><g><g><path fill="#A80235" d="M27,61.7c-0.2-0.101-0.3-0.2-0.2-0.5c-0.3-0.101-0.6-0.2-0.9-0.3C25.2,61.5,24.4,62.1,24,62.3      c-0.2,0.4-0.3,0.7-0.3,0.9c0.6,0.1,1.5-0.601,2.1-1L25.6,63c-0.2,0.2-0.5,0.5-0.8,0.7c0.4-0.101,0.8-0.3,1.1-0.601V63      C26.3,62.6,26.7,62.2,27,61.7z"/><path fill="#A80235" d="M57.7,19.1c0.1,0,0.2,0.1,0.3,0.2c0.1,0.1,0.1,0.2,0.1,0.3c0.601,1,1.2,2,1.7,3c0.2,0.1,0.3,0.3,0.4,0.5      c0.3,0.2,0.5,0.4,0.7,0.7c0.1,0.3,0.199,0.7-0.2,1c0.3,0.7,0.5,1.4,0.7,2.2c0.399,0,0.8,0.1,0.899,0.4c0,0.1,0,0.2,0,0.2      c0.3,0,0.5,0.2,0.601,0.4c0.1,0.4-0.101,0.5-0.601,0.7c-0.1,0-0.3,0.1-0.399,0.2c0.399,1.9,0.6,3.8,0.6,5.8      c0,1.399-0.1,2.8-0.3,4.1l5.2,1.5c0.3-1.8,0.5-3.7,0.5-5.7c0-6.6-2-12.8-5.301-17.9C61.7,17.2,59.3,17.6,56.9,18      C57.2,18.4,57.5,18.7,57.7,19.1z"/><path fill="#A80235" d="M22.3,64.8c-0.1,0-0.1,0-0.2,0c-0.7-0.3-0.5-1.7-0.1-2.7c0.3-0.8,0.9-1.6,1.4-2.199      c-0.5-0.2-1-0.5-1.5-0.801c-0.1,0.101-0.2,0.101-0.3,0.2l-0.8-0.5L19,60c0.1,0,0.3-0.1,0.5-0.1l-0.2,0.6      c-0.2,0.1-0.5,0.2-0.8,0.3c0.2,0.101,0.5,0,1.5-0.2L19.8,61.2c-1.1,0.399-3,1.1-3.7,0.6c-0.1-0.1-0.2-0.3-0.2-0.399      c-0.2,0-0.3-0.101-0.4-0.2c-0.4-0.3-0.1-0.9,0.3-1.4c0.1-0.1,0-0.2,2.7-2.1l-1.5-1l-4.6,1.8c-0.2,0.1-0.4,0.1-0.6,0.2      c3.1,3,6.7,5.3,10.7,6.899C22.5,65.3,22.3,65.1,22.3,64.8z"/><path fill="#A80235" d="M31.8,64.5c0-0.7,0.1-1.5,0.3-2.3c-0.3,0-0.6-0.101-0.9-0.101C31.1,62.2,31,62.3,30.9,62.4      c-0.5,0.399-1.3,1.3-1.4,2.1c0.6-0.2,1.3-1.1,1.7-1.4L31,63.9c-0.3,0.3-0.7,0.8-1.2,1.3c0.6-0.101,1.5-1.101,1.9-1.5l-0.1,0.8      c-0.6,0.8-2.5,2.7-3.2,2.6c1.5,0.301,3,0.5,4.6,0.601c-0.1-0.101-0.3-0.3-0.3-0.5C31.9,67,31.8,65.7,31.8,64.5z"/><path fill="#A80235" d="M27.9,66.5h-0.1c-0.5-0.1-0.7-1-0.5-1.7c0.2-1,0.7-1.8,1.3-2.5h-0.2c-0.7,1-1.3,1.5-2,2.2l0.1-0.9      c0.4-0.399,0.8-0.8,1.1-1.3c-0.1,0-0.1-0.1-0.2-0.2C27,62.6,26.6,63,26.2,63.4V63.6c-0.9,0.801-2.6,2.2-3.5,1.9      c1.8,0.7,3.7,1.3,5.6,1.7C28.1,67,28,66.8,27.9,66.5z"/><path fill="#A80235" d="M36.4,64.9V64.8c-0.601,1-1.601,2.5-2.5,2.9c0.3,0,0.6,0,0.9,0c1,0,2-0.101,2.9-0.101      C37.6,67.5,37.5,67.4,37.5,67.2C37,67.1,36.5,65.9,36.4,64.9z"/><path fill="#A80235" d="M42.4,66.2C41.9,66.1,41.5,65.1,41.3,64.5C41,63.7,41,62.7,41,61.7c-0.6,0.1-1.2,0.2-1.7,0.3      c-0.3,1-0.899,2-1.2,2.5c0,0.2,0,0.4,0.101,0.6h0.1C39,65,39.5,63.9,39.9,63.2L40,64c-0.1,0.4-0.3,0.8-0.5,1.3      c0.4-0.399,0.7-1,0.9-1.5l0.199,0.8c-0.3,0.9-0.899,2.2-1.5,2.9c1.301-0.2,2.5-0.4,3.7-0.7C42.7,66.7,42.5,66.5,42.4,66.2z"/><path fill="#A80235" d="M7.2,34.7c0-3.9,0.8-7.6,2.3-10.9c-0.4-0.5-0.8-1-1-1.5c-0.6-1-1.5-2.9-1.6-5c-3.2,5.1-5,11-5,17.5      c0,1.9,0.2,3.9,0.5,5.7L7.6,39C7.3,37.5,7.2,36.1,7.2,34.7z"/><path fill="#A80235" d="M48.7,58.7L48.7,58.7L48.7,58.7L48.7,58.7z"/><path fill="#A80235" d="M9.6,14.8C9.7,14.8,9.7,14.8,9.6,14.8c0.5,0.3,0.7,0.7,0.8,1c0.8,2.4,0.7,2.7,0.6,2.8      c0,0.1-0.2,0.1-0.3,0c-0.2-0.1-0.3-0.4-0.3-0.6c-0.1,0-0.2,0-0.3,0s-0.1-0.1-0.2-0.2c0,1.2,0.3,2.4,0.7,3.6      c0.4-0.7,0.8-1.4,1.3-2.1l-0.6-1.5c-0.1-0.1-0.1-0.3-0.1-0.4c0.1-0.1,0.4-0.2,0.5-0.2c0.2-0.1,0.4-0.1,0.6,0      c0.2,0.1,0.4,0.4,0.5,0.5l0.1,0.1c0.5-0.7,1.1-1.4,1.7-2c0-0.3,0-0.5,0.1-0.6c0.1-0.1,0.3,0,0.4,0.1c1.4-1.4,3-2.7,4.7-3.8      c0.1-0.2,0.3-0.5,0.5-0.6c0.2-0.1,0.4-0.2,0.7-0.2c1.5-0.9,3.1-1.6,4.8-2.1c0.2-0.1,0.3-0.2,0.5-0.3c0.2-0.1,0.3,0,0.4,0      c0.9-0.3,1.9-0.5,2.8-0.7C29.7,6.8,30,6.5,31,6.3c0.2-0.9,0.4-1.9,1.1-2c0.2,0,0.4,0,0.5,0.3c0,0.1,0,0.2,0,0.3      c0.1,0,0.1,0,0.2-0.1c0.2,0,0.4,0,0.5,0.3c0,0.2,0,0.5-0.1,0.8c0,0.2-0.1,0.4-0.1,0.6h0.7c0,0.2,0,0.3-0.1,0.5c0.4,0,0.7,0,1.1,0      C37.6,7,40.4,7.4,43,8.2L45.3,6c0.4-0.4,1.2-1.2,2.101-1.8C43.5,2.6,39.3,1.8,34.9,1.8C24.4,1.7,15.1,6.6,9,14.2h0.1      C9.4,14.4,9.5,14.6,9.6,14.8z"/><path fill="#A80235" d="M53.3,56.1C53.2,56,53,55.8,52.9,55.7c-0.101,0.1-0.101,0.1-0.2,0.2L53,58.1c0.3,0,0.7,0.2,1,0.4      C54.1,57.4,54,57,53.3,56.1z"/><path fill="#A80235" d="M13.8,56l1.7-0.8C15.4,55.1,15.4,55.1,15.4,55c-0.5-0.4-0.8-0.5-0.5-0.9L15,54c-1.9-2-3.6-4.3-4.9-6.8      l-5.5,1C6,51.4,8,54.4,10.4,57C11.3,56.5,12.7,55.9,13.8,56z"/><path fill="#A80235" d="M47.4,9.8c0,0.1-0.101,0.1-0.101,0.2c1.5,0.8,2.9,1.6,4.3,2.7c0.2,0.1,0.4,0.1,0.5,0.2      c0.101,0.1,0.2,0.2,0.301,0.4c0.1,0,0.1,0.1,0.199,0.1c0.101,0,0.101,0.1,0.2,0.1c0.101,0.1,0.2,0.1,0.2,0.2      c0.8,0.7,1.6,1.4,2.3,2.2c2.4-0.6,5-0.8,6.4-0.7c-3-4.1-7-7.5-11.5-9.9c-0.5,1.3-2.101,3.1-2.8,4.1C47.4,9.5,47.5,9.6,47.4,9.8z"/><path fill="#A80235" d="M44,64.7c-0.1-0.2-0.1-0.5-0.1-0.7c-0.101,0.4-0.2,0.8-0.2,1.2c0,0.399-0.101,1.2-0.4,1.5      c0.601-0.2,1.2-0.3,1.8-0.5C45,66.1,44.9,66,44.9,65.9C44.5,65.7,44.2,65.2,44,64.7z"/><path fill="#A80235" d="M50.4,57.6c0.1,0.9-0.101,2.101-1,3.601L49.6,61.6c0.2,0.101,0.4,0,0.601-0.1c0.8-0.4,0.899-2.3,1-3.4      l0.5,0.601c0,0.3,0,0.5,0,0.8c0-0.3,0.1-0.6,0.1-0.8l0.101,0.1L51.6,56.6C51.2,57,50.8,57.3,50.4,57.6z"/><path fill="#A80235" d="M53.9,54.8C54,54.9,54.1,55,54.1,55.1C54.9,56,55.2,56.9,55.3,57.8C55.5,57.4,55.4,56.9,55.4,56.3V55      l0.6,0.5v0.1l0.6,0.5c0.2,1,0.301,2.301,0.2,3.301c3.5-3.101,6.3-6.9,8.2-11.2l-5.5-1C58.1,50.1,56.2,52.6,53.9,54.8z"/><path fill="#A80235" d="M34.9,62.4c-0.1,0-0.2,0-0.3,0c-0.3,0.399-0.5,0.899-0.9,1.3C33.6,64.1,33.5,64.6,33.6,65.1      c0,0.101,0,0.2,0.1,0.301c0.7-0.101,1.6-1.301,2.1-2L36,64c-0.3,0.5-0.7,1.2-1.2,1.8c0.6-0.399,1.3-1.3,1.7-1.8v0.2      c0-0.7,0.1-1.3,0.2-1.9C36.1,62.3,35.5,62.4,34.9,62.4z"/><path fill="#A80235" d="M53.2,60.4c-0.101,0.1-0.3,0-0.4-0.2c-0.1-0.101-0.2-0.3-0.2-0.4c-0.1,0-0.199,0-0.3,0      c0,1.101-0.1,2.3-0.399,3.2c1.1-0.7,2.199-1.4,3.199-2.2c-0.6,0-1.199-0.3-1.8-0.8C53.3,60.2,53.3,60.4,53.2,60.4z"/><path fill="#A80235" d="M49.1,63.2c-0.399-0.3-0.8-0.8-1.1-1.4c-0.4-0.7-0.7-1.5-0.9-2.3c-0.399,0.2-0.8,0.4-1.3,0.6      c-0.1,0.801-0.5,2-0.399,3C45.6,62.8,45.8,62.2,45.9,61.9l0.399-1.2l0.4,0.8c-0.101,0.4-0.2,1-0.4,1.6      c0.101-0.199,0.2-0.5,0.2-0.699l0.4-1.2L47.3,62c-0.2,0.8-0.5,2.6-1,3.6c1.3-0.5,2.601-1.1,3.8-1.699      C49.8,63.8,49.4,63.5,49.1,63.2z"/><path fill="#011C51" d="M17.9,26.8c-0.2-0.4-0.3-0.8-0.3-1.2c-0.9-1.3-1.8-2.5-2.9-3.7l0,0l0.8,2c0.4,0.9,1.1,2.7,0.6,3.2      c-0.7,0.8-2,0.5-3.2-0.2c-0.8-0.4-1.5-1.1-2.1-1.8c-0.4-0.4-0.9-0.9-1.2-1.3c-1.6,3.3-2.4,7-2.4,10.9c0,1.399,0.1,2.8,0.3,4.2      l8.7-2.601c0-0.5-0.1-1.1-0.1-1.6C16.2,31.9,16.8,29.2,17.9,26.8z"/><path fill="#011C51" d="M25.4,15.2c0.2-0.2,0.5-0.7,1-3.3C25.4,13.5,25.3,14.5,25.4,15.2z"/><path fill="#011C51" d="M48.7,58.7c0.1-0.4,0.1-0.7,0.1-1C48.7,57.9,48.7,58.3,48.7,58.7L48.7,58.7z"/><path fill="#011C51" d="M15.3,15.3c0.1,0.1,0.2,0.3,0.3,0.5c0.7-1,1-1.7,1.2-1.6c0.4,0.2,0.7,0.3,1,0.6c0.1,0.1,0.2,0.2,0.3,0.4      c0.1,0.1,0.2,0.2,0.3,0.2c0.4,0.5,0.5,0.9,0.6,1.3c0.1,0.5,0.3,1.3,0.7,2c0.1,0,0.3,0,0.4,0c0.4-0.4,0-1.9-0.1-2.6l0.1,0.1      c-0.7-1.7-0.7-3.6-0.1-4.7C18.3,12.5,16.7,13.8,15.3,15.3C15.3,15.2,15.3,15.2,15.3,15.3z"/><path fill="#011C51" d="M13,25.4c0.1,0.1,0.2,0.2,0.3,0.2c0.4,0.2,0.8,0.3,0.9,0c0.1-0.2,0-0.7-0.1-1.1L12,19.2      c-0.5,0.7-0.9,1.4-1.3,2.1C11.3,23.1,12.3,24.5,13,25.4z"/><path fill="#011C51" d="M17.7,53.1c0.6,0.101,1.2,0.4,1,0.601l-0.1,0.1C18.8,53.9,19,53.9,19.2,54l3.7-1.1      c2-0.601,4.4-1.2,4.8-0.801c0.1,0.101,0.1,0.301,0,0.5c0.3,0,0.5,0,0.6,0.101c0.2,0.2,0,0.7-0.2,1c-0.3,0.3-0.9,0.7-1.2,1      L23,57.2c0,0.1,0.1,0.1,0.1,0.2l0,0c0.4,0.3,0.2,0,0.6,0.6c-0.6,0.3-1.3,0.7-1.9,1.1c0.5,0.301,1,0.5,1.5,0.801      c1-1.101,2.1-1.801,2.6-1.601c0.2,0.101,0.4,0.3,0.3,0.601c0.1,0,0.2,0,0.3,0c0.2,0.1,0.5,0.3,0.3,0.699      c-0.2,0.4-0.5,0.801-1,1.2c0.3,0.101,0.6,0.2,0.9,0.3c0-0.1,0-0.1,0-0.199c0.3-1.5,1.9-2.7,2.2-2.601c0.1,0,0.2,0.2,0.1,0.4      c0,0.2-0.1,0.399-0.2,0.6l0,0c0.3-0.2,0.5-0.399,0.6-0.3c0.1,0,0.2,0.2,0.2,0.3c0.7,0,1.1,0,1.2,0.2c0,0.2,0,0.3,0.1,0.4      c0.3,0,0.5,0.1,0.5,0.199c0.1,0.4,0.1,0.801,0.1,1.101C31.4,61.6,31.2,61.9,31,62.1c0.3,0,0.6,0.101,0.9,0.101      c0.3-1.4,0.8-2.8,1.3-3.9c1.2-2.2,2.399-4.1,2.8-4.1c0.2,0,0.2,0.5,0.2,0.8v0.1c0.2-0.199,0.3-0.3,0.399-0.3      c0.2,0,0.2,0.5,0.2,0.8c-0.1,1.801-0.5,3.4-2.6,6.7c0.1,0,0.2,0,0.3,0c0.6,0,1.2,0,1.8-0.1c0.4-1.5,1.101-2.601,1.5-2.601      c0.2,0,0.601,0.101,0.601,0.5V60.2c0.199,0,0.6,0.1,0.6,0.5c0,0.3,0,0.8-0.2,1.2C39.4,61.8,40,61.7,40.5,61.6      c0-0.8,0.1-1.5,0.3-2c0.101-0.3,0.2-0.3,0.4-0.399c0.7-0.2,0.8,0.1,0.8,0.2c0,0.1,0,0.199,0,0.3c0.5-0.101,0.5,0.2,0.6,0.3v0.1      C43.1,58.6,43.7,57.4,43.9,57.4c0,0,0.199,0.1,0.3,0.3c0.1,0.1,0.1,0.2,0.2,0.399l0.1-0.1c0,0,0.2,0.1,0.3,0.3      c0.2,0.3,0.4,0.601,0.5,1c0.101,0.2,0,0.4,0,0.7c0.4-0.2,0.9-0.4,1.3-0.6c-0.399-1.801,0-3.601,1-4.2      C47.9,55,48.5,54.9,48.9,55.6V55.7c0.199,0.1,0.399,0.2,0.6,0.5s0.3,0.7,0.4,1.3c0.399-0.3,0.8-0.6,1.199-0.9L51.2,54      c-0.4-0.5-0.7-1.2-0.4-1.5c0.3-0.2,0.5-0.2,0.9,0.3c0.5,0.601,1.1,1,1.7,1.601c0.1,0.1,0.3,0.3,0.399,0.399      c2.3-2.2,4.2-4.7,5.7-7.6l-9.4-1.7C49.7,46.1,49.2,46.6,48.7,47.2c0.8,0.2,1.399,0.3,1.6,0.3c1.101,0.3,0.2,0.8,0.2,0.8h-3      c-3.3,3.101-7.8,5-12.8,5s-9.4-1.899-12.8-5H19c0,0-0.9-0.5,0.2-0.8c0.2-0.1,0.7-0.2,1.5-0.3c-0.5-0.5-0.9-1.101-1.4-1.7      l-9.4,1.7c1.3,2.5,2.9,4.8,4.9,6.8C15.5,53.7,17.1,53,17.7,53.1z M39.1,56.6c0.2,0,0.4,0.2,0.5,0.601c0,0,0,0,0,0.1H39.7      c0.2,0,0.399,0.2,0.5,0.601c0.1,0.8-0.3,1.899-0.8,2c-0.301,0-0.5-0.2-0.601-0.601c0,0,0,0-0.1,0c-0.3,0-0.5-0.3-0.601-0.8      C38.1,57.5,38.6,56.7,39.1,56.6z M28.9,56.7c0.2,0.1,0.3,0.399,0.1,0.8c-0.3,0.8-1.1,1.6-1.6,1.4C27.2,58.8,27.1,58.6,27.2,58.3      c-0.1,0-0.3,0.101-0.4,0c-0.3-0.1-0.3-0.6-0.1-1c0.3-0.8,1.1-1.3,1.6-1.1c0.2,0.1,0.2,0.3,0.2,0.6C28.6,56.6,28.7,56.6,28.9,56.7      z"/><path fill="#011C51" d="M13.1,17.8c0.2,0.1,0.4,0.4,0.5,0.5c1.1,1.2,2.2,2.6,3.6,4.3L16,18.8c0.3,0.2,0.5,0.3,0.7,0.5v-0.1      c-0.1,0-0.2-0.1-0.3-0.2s-0.2-0.2-0.3-0.3c-0.1,0-0.2-0.1-0.3-0.3c-0.7-0.8-1-2-1-2.7C14.2,16.4,13.6,17,13.1,17.8      C13.1,17.7,13.1,17.7,13.1,17.8z"/><path fill="#011C51" d="M18.4,53.7L18.4,53.7c-0.2-0.101-0.5-0.3-0.7-0.101c-0.1,0.101,0,0.101,0,0.2      C17.9,53.7,18.2,53.7,18.4,53.7z"/><path fill="#011C51" d="M29.8,13.4c0,0.1-0.1,0.3-0.1,0.4C29.7,13.7,29.8,13.6,29.8,13.4L29.8,13.4z"/><path fill="#011C51" d="M34,61.8c0.8-1.2,1.6-2.8,1.9-4C35.6,58.8,35,60,34,61.6C34,61.6,34,61.7,34,61.8L34,61.8z"/><path fill="#011C51" d="M28.2,16.4c-0.3,0-0.6-0.4-0.7-0.8c-0.1-0.2-0.1-0.4-0.2-0.6l-0.2,0.6c-0.1,0.4-0.5,1.7-0.8,1.8      c-0.2,0.1-0.8-0.3-1.2-0.9c-0.1-0.1-0.1-0.1-0.2-0.2c0,1.3-0.3,2.7-1,3.2c-0.6,0.4-1.5-0.1-2.2-1c-0.1-0.1-0.2-0.2-0.3-0.2      c0.2,1.2,0.5,2.7,0.1,3.1s-1.2,0-1.7-0.6c-0.1-0.1-0.2-0.2-0.3-0.3s-0.2-0.2-0.3-0.3c-0.7-0.7-1-1.5-1.3-2.3l-0.4,0.8      c0.5,1.1,0.5,1.9,0.7,2.9L18,21.4c0.1,0.3,0.2,0.6,0.3,1l0.7,2.2c2.3-3.5,5.7-6.2,9.8-7.6C28.7,17,28.4,16.8,28.2,16.4z"/><polygon points="21.2,55.9 23.3,54.5 20.3,55.4    " fill="#011C51"/><path fill="#011C51" d="M30.7,15.7c-0.2-0.1-0.5-0.3-0.6-0.6c-0.3,0.8-0.6,1.5-0.8,1.7c0.7-0.2,1.4-0.4,2.1-0.5      C31,16.3,30.8,16.1,30.7,15.7z"/><path fill="#011C51" d="M18.3,54.2L18.3,54.2L18.3,54.2h0.4C18.5,54.1,18.4,54.1,18.3,54.2z"/><path fill="#011C51" d="M52.3,13.2C52.3,13.3,52.3,13.3,52.3,13.2c0.101,0.1,0.101,0.1,0.2,0.1C52.4,13.3,52.4,13.3,52.3,13.2z"/><path fill="#011C51" d="M53,19.9L53,19.9l1.1,0.1c0.2,0,0.7,0,1-0.1C54.4,19.7,53.4,19.8,53,19.9z"/><path fill="#011C51" d="M46.3,15.9c0.5-0.1,1.5-0.4,3.2-1.2C47.6,14.7,46.8,15.3,46.3,15.9z"/><path fill="#011C51" d="M57.1,23.6c0.801,0.2,1.5,0.2,1.7,0.1C58.4,23.6,57.8,23.6,57.1,23.6z"/><path fill="#011C51" d="M21.8,11.2c0,0,0,0.1,0.1,0.1c0.2,0.1,0.4,0.2,0.5,0.5c0.6,0.9,0.9,2.5-0.4,4.9l0.2,0.3      c0.2,0.1,0.5,0,0.7-0.1c0.6-0.4,0.8-1.9,0.8-3c-0.2-2,1.1-4.5,2.2-5.4c-1.7,0.6-3.3,1.3-4.8,2.1C21.4,10.7,21.6,10.9,21.8,11.2z"/><path fill="#011C51" d="M60.4,25.1c-0.9,0.5-2.601,0.6-4.801-1L55.2,24.3c-0.7,0.3-0.8,0.7-0.601,1.1c0.2,0.1,0.4,0.2,0.601,0.2      c0.1-0.1,0.1-0.1,0.2-0.1c0.3-0.1,0.6,0,0.8,0.1l4.7,1.5C61.1,27,61.3,27,61.5,27c-0.2-0.7-0.5-1.5-0.7-2.2      C60.6,25,60.5,25,60.4,25.1z"/><path fill="#011C51" d="M52.7,55.9c0.1-0.101,0.1-0.101,0.2-0.2C52.8,55.6,52.7,55.5,52.6,55.4L52.7,55.9z"/><path fill="#011C51" d="M21.2,14.3c0.1-0.4,0.1-0.9,0.1-1.3C21.2,13.4,21.2,13.8,21.2,14.3z"/><path fill="#011C51" d="M57.2,27.2L57.2,27.2c0,0.3-0.4,0.6-0.7,0.9c0.5,0.1,0.9,0.1,1.6-0.1c0.301-0.1,0.601-0.2,1-0.4L57.3,27      L57.2,27.2z"/><path fill="#011C51" d="M49,16.8h-0.1C48.8,16.9,48.7,17,48.6,17.1c0,0,0,0,0,0.1C48.7,17,48.8,16.9,49,16.8L49,16.8z"/><path fill="#011C51" d="M57.2,20.7c-1.5,1.2-3.4,0.6-4.601,0.5c-0.199,0.3-0.3,0.6-0.3,0.8c0.4,0.1,1.2,0.1,2.7,0.1v0.1      c1.8-0.5,3.8-0.3,4.8,0.4c-0.5-1.1-1.1-2.1-1.7-3C58,20,57.6,20.4,57.2,20.7z"/><path fill="#011C51" d="M46.4,10.7C46.1,10.9,45.3,11.5,45,11.4c-0.2-0.1-0.2-0.4-0.1-0.7c0,0,0-0.1,0.1-0.1      c-0.2,0.1-0.5,0.2-0.6,0.2c-0.2-0.1-0.2-0.4-0.101-0.7c0.101-0.3,0.2-0.6,0.4-0.9l-3.3,3.3c1.3,0.9,2.199,1.6,3.399,2.6      c0.101-0.2,0.2-0.5,0.3-0.7c1.301-1.9,4.801-2.3,6.4-1.8c-1.3-1-2.8-1.9-4.3-2.7C47,10.3,46.5,10.6,46.4,10.7z"/><path fill="#011C51" d="M61.9,28.9C61.3,29.1,60.8,29.4,60,29.6c-1.6,0.5-3.1,0-4.1-0.6c0,0.2,0,0.3,0.1,0.5      c0.3,0.2,0.6,0.3,0.9,0.4l1.1,0.5l-0.4,0.2l1,0.4L58,31.4c-1.3-0.4-3.2-1-3.7-1.9c-0.399-0.3-0.7-0.6-0.7-0.9      c-0.1-0.6,0.101-1.2,0.7-1.8c-0.7-0.2-1.399-0.6-1.6-1c-0.3-0.2-0.5-0.4-0.601-0.6c-0.3-0.5,0-1.1,0.601-1.6      c-0.9,0-1.7-0.1-1.9-0.4c-0.1-0.1-0.1-0.2-0.1-0.4c-0.2-0.1-0.4-0.1-0.5-0.2c-0.4-0.5,0-1.4,0.399-2.2c-0.1,0-0.3,0.1-0.399,0.1      c-0.3,0.1-0.601,0.2-0.8,0c-0.101-0.1,0-0.4,0.3-0.7H49.6c-0.3,0.1-0.6,0.2-0.8,0.1c-0.1-0.1,0-0.2,0-0.3      c-0.8,0.2-1.399,0.3-1.7,0.1C46.9,19.6,46.9,19.4,46.9,19.2c-0.2,0-0.301,0-0.4-0.1c-0.3-0.2-0.2-0.8,0.2-1.2      c0.1-0.1,0.2-0.3,0.399-0.4c-0.5,0.1-1.5,0.5-1.8,0.3c-0.1-0.1-0.1-0.3-0.1-0.6c-0.2,0-0.4,0-0.5,0C44.6,17.2,44.6,17,44.6,16.9      c-1.1,0.9-1.1,1-3.1-0.5c-0.9-0.7-1.9-1.3-3-1.6H38c-0.3,0.1-0.8,0.3-1.1,0.2c-0.2-0.1-0.4-0.2-0.2-0.5v-0.1      c-0.101,0-0.3,0-0.4,0c-0.2-0.1-0.399-0.2-0.2-0.5c0.101-0.5,1.101-1.4,1.4-1.7c0.2-0.2,0.3-0.4,0.5-0.4c0.6,0,1.1,0.1,1.7,0.1      L43,8.3c-2.6-0.8-5.3-1.2-8.2-1.2c-0.4,0-0.7,0-1.1,0c-0.2,1.7-0.3,2.4-1.6,2.4c-0.3,1-0.8,2.8-0.6,4l0,0      c0.4-0.2,0.7-0.9,1.7-2.4l0.2,0.9c-0.2,0.4-0.4,1-0.7,1.5c0.3-0.4,0.6-1,1.1-1.8l0.2,0.9c-0.5,1.1-1.4,3.3-2.4,3.7      c1-0.2,2.1-0.3,3.2-0.3c10.3,0,18.7,8.4,18.7,18.7c0,0.5,0,1-0.1,1.6L62.1,38.9c0.2-1.4,0.301-2.7,0.301-4.101      C62.5,32.7,62.3,30.8,61.9,28.9z"/><path fill="#011C51" d="M27.5,8.9c0.3,0.1,0.6,0.5,0.6,0.6c0.1,0.2-0.1,0.5-0.2,0.6c0.3,0.1,0.5,0.2,0.6,0.7c0.2,0.6-0.2,2.1,0,3      c0.3-0.1,0.5-0.5,0.7-1l-0.1-0.3c0.5-0.9,0.9-1.8,1.2-2.9c-0.1,0-0.2,0.1-0.4,0.1L30,9.4c0-0.2,0.1-0.3,0.1-0.4      c-0.3,0-0.3,0-0.8,0.2l0.1-0.4c0.1-0.5,0.2-0.9,0.3-1.3c-1,0.2-1.9,0.4-2.8,0.7C27.2,8.4,27.4,8.7,27.5,8.9z"/><path fill="#011C51" d="M52.9,13.7c0.199,0.4,0,0.9-0.101,1c-0.1,0.2-0.5,0.2-0.7,0.2c0.101,0.3,0.101,0.5-0.199,0.9      c-0.4,0.5-2.101,1.1-2.7,1.9c0,0,0,0.1-0.101,0.1c0.5,0,1.301-0.3,1.9-0.4c0.8-0.5,1.7-0.8,2.6-1c0.5-0.2,1.101-0.3,1.601-0.5      C54.5,15.1,53.7,14.4,52.9,13.7z"/><path fill="#011C51" d="M56.9,18c-0.5,0.1-1.101,0.2-1.601,0.2c1,0,1.8,0.1,2,0.4c0.101,0.1,0.101,0.2,0,0.4      c0.101,0,0.2,0,0.3,0.1C57.5,18.7,57.2,18.4,56.9,18z"/><path fill="#FFFFFF" d="M34.9,44.7c0,0,9.8,1.8,13.8,2.5c0.5-0.5,0.899-1.101,1.399-1.7l-15.2-2.7l-15.3,2.7      c0.4,0.6,0.9,1.1,1.4,1.7C25,46.5,34.9,44.7,34.9,44.7z"/><path fill="#FFFFFF" d="M22.1,48.4c3.3,3.1,7.8,5,12.8,5c5,0,9.4-1.9,12.8-5H34.9H22.1z"/><path d="M65.4,47.4l-5.5-1L50.6,44.8L34.9,42l-15.8,2.8L9.8,46.4l-5.5,1L2.1,47.8H2c-0.1,0-0.1,0-0.2,0c0,0.2,0.1,0.4,0.3,0.601      C2.3,48.6,2.5,48.6,2.8,48.6l1.9-0.3l5.5-1l9.4-1.7L34.9,42.9L50.1,45.6l9.4,1.7l5.5,1l2,0.4h0.1c0.2,0,0.4-0.101,0.5-0.2      c0.2-0.1,0.301-0.3,0.301-0.6c-0.101,0-0.2,0-0.301,0L65.4,47.4z"/><path d="M21,47.2c-0.8,0.2-1.3,0.3-1.5,0.3c-1.1,0.3-0.2,0.8-0.2,0.8h2.9H35h12.7h3c0,0,0.899-0.5-0.2-0.8      c-0.2-0.1-0.8-0.2-1.6-0.3c-4-0.8-13.8-2.5-13.8-2.5S25,46.5,21,47.2z"/><path fill="#DDD9DB" d="M68.1,40.6L67.4,40.4l-5.2-1.5L53.5,36.3l-18.3-5.4c-0.2,0-0.3,0-0.5,0l-18.4,5.5L7.6,39l-5.2,1.5      l-0.6,0.2c-0.4,0.1-0.6,0.399-0.6,0.8V47c0,0.2,0.1,0.5,0.3,0.6C1.6,47.7,1.7,47.7,1.9,47.8c0.1,0,0.1,0,0.2,0h0.1L4.4,47.4      l5.5-1l9.3-1.601L34.9,42l15.7,2.8L59.9,46.4l5.5,1l2.3,0.399c0.1,0,0.2,0,0.3,0s0.3-0.1,0.4-0.2C68.6,47.4,68.7,47.2,68.7,47      v-5.6C68.7,41,68.4,40.7,68.1,40.6z M67.8,47l-0.6-0.1L66.4,46.8l-0.7-0.1l-5.4-1L51.1,44l-16.2-2.9L18.7,44l-9.2,1.6l-5.4,1      L3.5,46.7l-0.8,0.1L2,47v-5.3v-0.3L2.5,41.3l5.2-1.5l8.7-2.6L35,31.7l18.5,5.5l8.7,2.6l5.2,1.5l0.6,0.2v0.3V47H67.8z"/><polygon points="67.3,41.2 62.1,39.7 53.4,37.1 34.9,31.6 16.3,37.2 7.7,39.7 2.5,41.3 2,41.4 2,41.7 2,47       2.7,46.9 3.5,46.7 4.1,46.6 9.5,45.7 18.7,44 34.9,41.2 51.1,44 60.3,45.6 65.7,46.6 66.4,46.7 67.2,46.9 67.8,47 67.8,41.7       67.8,41.4    " fill="#011C51"/><path d="M10.7,18.6c0.1,0.1,0.3,0.1,0.3,0c0.1-0.1,0.2-0.3-0.6-2.8c-0.1-0.4-0.2-0.7-0.7-1c0,0,0,0-0.1,0      c0.1,0.1,0.1,0.3,0.2,0.4c0.8,2.4,0.7,2.7,0.6,2.8c0,0,0,0-0.1,0C10.4,18.2,10.5,18.5,10.7,18.6z"/><path d="M9.9,17.8c-0.1-0.1-0.2-0.3-0.2-0.4l-0.4-0.8l0,0c-0.1,1.8,0.4,3.6,1.1,5.2c0.8,1.8,1.9,3.2,2.5,3.7      c-0.8-0.9-1.7-2.3-2.3-4C10.2,20.2,9.9,19,9.9,17.8z"/><path d="M13.1,17.8c1.3,1.3,2.4,2.9,4.1,4.9l0,0v-0.1c-1.4-1.7-2.4-3.1-3.6-4.3C13.5,18.1,13.3,17.9,13.1,17.8z"/><path d="M12.8,26.9c1.3,0.7,2.6,1,3.2,0.2c0.5-0.5-0.3-2.3-0.6-3.2l-0.8-2l0,0c-0.2-0.2-0.4-0.4-0.6-0.6l0,0l0.8,2      c0.4,0.9,1.1,2.7,0.6,3.2c-0.7,0.8-2,0.5-3.2-0.2c-0.5-0.3-1-0.7-1.5-1.2C11.3,25.8,12.1,26.4,12.8,26.9z"/><path d="M18.1,21.4l0.2,0.2c-0.2-1-0.2-1.8-0.7-2.9l0.4-0.8c-0.1-0.4-0.2-0.7-0.3-1.1l0,0L16.9,18c0.3,0.8,0.4,1.4,0.6,2.1      c0,0.3,0.1,0.5,0.2,0.8l-0.1-0.1l-0.1-0.1c0.1,0.3,0.2,0.6,0.3,1l1,2.9c0.1,0.1,0.1,0.2,0.2,0.3c0.9,1.3,2.5,4.1,2.1,4.8      c-0.2,0.3-0.6,0.2-1,0c-0.1-0.1-0.3-0.2-0.4-0.3c0.3,0.4,0.7,0.7,1,0.9c0.4,0.2,0.8,0.3,1,0c0.4-0.7-1.6-4.1-2.3-5.1l-0.2-0.6      l-0.7-2.2C18.3,22,18.2,21.7,18.1,21.4z"/><path d="M18.5,15.4c-0.1-0.1-0.2-0.2-0.3-0.2c0.2,0.3,0.2,0.6,0.3,1c0.1,0.6,0.4,1.8,1,2.4c0.1,0.1,0.2,0.2,0.3,0.2      c-0.4-0.6-0.6-1.5-0.7-2C19,16.2,18.9,15.8,18.5,15.4z"/><path d="M16.7,19.3c-0.1-0.2-0.1-0.4-0.2-0.6c-0.1,0.1-0.2,0.1-0.4,0c0.1,0.1,0.2,0.2,0.3,0.3S16.6,19.2,16.7,19.3z"/><path d="M21.5,21.3c0.4-0.4,0.2-1.9-0.1-3.1c-0.2-0.2-0.4-0.5-0.6-0.7c0.3,1.2,0.5,2.8,0.1,3.2c-0.3,0.3-0.9,0.1-1.4-0.3      c0.1,0.1,0.2,0.2,0.3,0.3C20.4,21.3,21.2,21.7,21.5,21.3z"/><path d="M21.3,13.1c0-0.4-0.1-0.8-0.2-0.9c0-0.2-0.2-0.2-0.2-0.2c-0.4,0.6-0.4,1.8,0,3.1c0.1-0.3,0.2-0.6,0.3-0.8      C21.2,13.8,21.2,13.4,21.3,13.1z"/><path d="M22.4,11.8c-0.2-0.3-0.4-0.4-0.5-0.5c0.5,0.9,0.8,2.5-0.5,4.8l0.2,0.4c0.2,0.3,0.4,0.5,0.6,0.5L22,16.7      C23.3,14.3,23,12.6,22.4,11.8z"/><path d="M23.9,19.5c0.7-0.5,1-1.8,1-3.2c-0.2-0.2-0.4-0.4-0.6-0.7c0,1.4-0.3,2.7-1,3.2c-0.5,0.3-1,0.1-1.6-0.4      C22.5,19.3,23.3,19.9,23.9,19.5z"/><path d="M26.4,17.4c0.3-0.1,0.6-1.4,0.8-1.8l0.2-0.6c-0.1-0.6-0.2-1.3-0.2-1.8l0,0L26.6,15c-0.1,0.4-0.5,1.7-0.8,1.8      c-0.1,0-0.4-0.1-0.6-0.3C25.6,17.1,26.2,17.5,26.4,17.4z"/><path d="M29.9,14.5c0-0.3-0.1-0.7-0.1-1l0,0c0-0.1,0-0.2,0-0.3c0,0.1,0,0.1,0,0.2v0.1c0,0.1-0.1,0.2-0.1,0.4      c-0.3,1.2-0.8,2.4-1.2,2.6c-0.1,0-0.2,0-0.2,0c0.2,0.4,0.4,0.6,0.7,0.6c0.1,0,0.1,0,0.2,0l0.1-0.1c0.3-0.3,0.6-1,0.8-1.7      C30,15,29.9,14.8,29.9,14.5z"/><path d="M28.6,10.8c-0.2-0.4-0.4-0.6-0.6-0.7c0.1-0.1,0.3-0.4,0.2-0.6c-0.1-0.2-0.3-0.5-0.6-0.6l0,0c0.1,0.2-0.1,0.5-0.2,0.6      c0.3,0.1,0.5,0.2,0.6,0.7c0.2,0.6-0.3,2.4,0.1,3.3c0.1,0.3,0.3,0.4,0.5,0.3l0,0C28.4,12.9,28.8,11.4,28.6,10.8z"/><path d="M26.5,12c0.1-0.5,0.2-1,0.3-1.7l0,0c-2,2.2-2.2,3.5-1.9,4.4v0.1c0,0.1,0,0.1,0.1,0.2c0,0.1,0.2,0.4,0.4,0.3l0.1-0.1      C25.3,14.5,25.4,13.5,26.5,12z"/><path d="M32.9,4.9c-0.1,0-0.1,0-0.2,0.1c-0.1,0.4-0.2,0.9-0.3,1.1h0.8l0,0c0.1-0.3,0.1-0.6,0.1-0.8C33.3,4.9,33.1,4.9,32.9,4.9z"/><path d="M34.1,12.6l-0.2-0.9c-0.5,0.8-0.9,1.4-1.1,1.8c-0.5,1.1-1.2,2.1-1.9,2.2c-0.1,0-0.1,0-0.2,0c0.1,0.4,0.4,0.6,0.6,0.6      c0.1,0,0.1,0,0.2,0s0.2-0.1,0.2-0.1C32.7,15.9,33.6,13.7,34.1,12.6z"/><path d="M30,9.8c0.2-0.1,0.3-0.1,0.4-0.1c0.1-0.2,0.1-0.5,0.2-0.7c-0.2,0-0.3,0-0.4,0c0,0.1-0.1,0.3-0.1,0.4L30,9.8z"/><path d="M32.2,9.5c1.3,0,1.4-0.7,1.6-2.4c0-0.2,0-0.3,0.1-0.5h-0.7c0,0.2-0.1,0.3-0.1,0.5c-0.2,1.2-0.4,1.7-1.5,1.8      c-0.3,1-0.8,2.8-0.6,4c0.1,0.5,0.2,0.7,0.5,0.7h0.1l0,0C31.4,12.3,31.9,10.5,32.2,9.5z"/><path d="M49.3,5c-0.6,1.3-2,2.9-2.7,3.8c0.101,0,0.2,0.1,0.101,0.3c0,0.1-0.2,0.3-0.3,0.4C46.2,9.7,45.8,9.9,45.7,10      c-0.2,0.1-0.5,0.3-0.8,0.5c0,0,0,0.1-0.101,0.1c-0.1,0.3-0.1,0.6,0.101,0.7c0.199,0.1,1.1-0.5,1.399-0.7c0.2-0.1,0.7-0.4,0.9-0.7      c0.1-0.1,0.1-0.1,0.1-0.2c0.101-0.2,0-0.3-0.1-0.3c0.7-1,2.2-2.8,2.8-4.1c0-0.1,0.1-0.2,0.1-0.2c0.2-0.6,0.2-1.4-0.199-1.5      c-0.101,0-0.2,0-0.301,0c0,0.3,0,0.6-0.1,0.8C49.5,4.7,49.4,4.8,49.3,5z"/><path d="M36.9,15c0.3,0.1,0.8-0.1,1.1-0.2l0.3-0.1c1.101,0.3,2.101,0.8,3,1.6c2,1.5,2.101,1.5,3.101,0.5c0-0.3,0.1-0.8,0.199-1.3      L44,16.1c-1.2,1-1.1,1.1-3.2-0.5c-0.899-0.7-1.899-1.3-3-1.6l-0.3,0.1c-0.2,0-0.5,0.1-0.7,0.2v0.1C36.6,14.8,36.8,14.9,36.9,15z"/><path d="M44.9,8.9c0.699-1.2,1.8-2.4,2.5-3C47.6,5.8,47.6,5.6,47.5,5.5c-0.2,0-0.9,0.6-3,2.7l-0.4,0.4L40.7,12      c0.3,0.2,0.5,0.3,0.7,0.5l3.3-3.3C44.8,9.1,44.8,9,44.9,8.9z"/><path d="M51.9,15.8c0.3-0.4,0.3-0.6,0.199-0.9c0.101,0,0.5,0,0.7-0.2c0.101-0.2,0.3-0.7,0.101-1c0-0.1-0.101-0.2-0.2-0.2      c-0.101,0-0.101-0.1-0.2-0.1c0,0-0.1,0-0.1-0.1c0,0.3-0.101,0.7-0.2,0.8c-0.101,0.2-0.5,0.2-0.7,0.2c0.1,0.3,0.1,0.5-0.2,0.9      c-0.3,0.5-1.7,1-2.399,1.6H49l0,0c-0.1,0.1-0.3,0.2-0.4,0.3c-0.199,0.3-0.1,0.5,0.101,0.6c0.1,0.1,0.3,0.1,0.5,0.1      c0,0,0-0.1,0.1-0.1C49.7,16.9,51.5,16.4,51.9,15.8z"/><path d="M49.5,14.8c0.3-0.1,0.6-0.3,1-0.4l0,0c-3.3-0.5-4.3,0.3-4.9,1.2c0,0.1-0.1,0.2-0.1,0.3V16l0,0c0.1,0,0.2,0.1,0.7,0      C46.8,15.3,47.6,14.7,49.5,14.8z"/><path d="M45.2,17.7c0.2,0.2,1.3-0.2,1.8-0.3c0.4-0.4,1-0.9,1.4-1.2l0,0L46.6,16.8c-0.3,0.1-0.899,0.3-1.399,0.4      C45.1,17.4,45.1,17.7,45.2,17.7z"/><path d="M48.7,19.6c0.2-0.3,0.5-0.7,0.899-1.1c-0.899,0.3-2.1,0.6-2.699,0.6c0,0.2,0,0.4,0.199,0.5C47.3,19.9,48,19.8,48.7,19.6z      "/><path d="M62.1,16.1C61.4,16.6,58.8,17,56.4,17.4C54.3,17.7,52.3,18,51.5,18.1h-0.1L51,18.5c0.1,0,0.3,0,0.4,0      c0.899-0.1,2.6-0.2,4-0.2c0.5-0.1,1-0.2,1.6-0.2c2.3-0.4,4.8-0.8,5.7-1.3c0.1-0.1,0.2-0.1,0.3-0.2c0.2-0.2,0.3-0.4,0.2-0.6      c-0.101-0.1-0.3-0.2-0.7-0.2c0,0.1-0.1,0.1-0.1,0.2C62.2,16,62.2,16,62.1,16.1z"/><path d="M53,20C53,19.9,53,19.9,53,20c0.5-0.2,1.5-0.2,2.2-0.1c0.1,0,0.1-0.1,0.2-0.1c0.1-0.1,0.1-0.2,0-0.2      c-0.301-0.4-2.301-0.4-3-0.2c0,0.2,0,0.4-0.101,0.7L53,20z"/><path d="M57.2,20.7c0.3-0.3,0.7-0.8,0.8-1.1c0-0.1,0-0.3-0.1-0.3c-0.101-0.1-0.2-0.1-0.301-0.2c-0.1,0-0.199-0.1-0.3-0.1      c-0.1,0.4-0.5,0.8-0.8,1.1c-1.5,1.2-3.4,0.6-4.6,0.5c-0.301,0.5-0.4,0.8-0.2,1.2c0.1,0.1,0.2,0.2,0.5,0.2c0-0.2,0.1-0.5,0.3-0.8      C53.8,21.3,55.7,21.9,57.2,20.7z"/><path d="M52.6,23.5c0.301-0.3,0.601-0.5,1-0.7c-1,0.1-2.3,0.2-3,0c0,0.1,0.101,0.3,0.101,0.4C51,23.5,51.7,23.5,52.6,23.5z"/><path d="M49.3,20.6c0.2,0.2,0.5,0.1,0.8,0c0.101-0.1,0.301-0.1,0.4-0.1c0.2-0.3,0.3-0.6,0.5-0.9c-0.5,0-0.9,0.2-1.4,0.4      C49.3,20.2,49.2,20.4,49.3,20.6z"/><path d="M54.2,26.8c0.1-0.1,0.3-0.2,0.399-0.4c-0.8-0.1-1.5-0.4-2-0.7C52.9,26.2,53.5,26.6,54.2,26.8z"/><path d="M55.2,24.3l0.399-0.2c2.2,1.6,3.9,1.4,4.801,1c0.1-0.1,0.199-0.1,0.3-0.2c0.399-0.3,0.3-0.7,0.2-1      c-0.101-0.3-0.4-0.5-0.7-0.7l0.1,0.1c0.101,0.2,0.2,0.4,0.101,0.7c-0.101,0.2-0.2,0.4-0.601,0.6c-0.899,0.5-2.6,0.6-4.8-1      l-0.4,0.2C53.9,24.1,53.8,24.6,54,25c0.1,0.2,0.3,0.4,0.6,0.5C54.4,25.1,54.5,24.6,55.2,24.3z"/><path d="M58.9,23.7L58.9,23.7c0.199-0.1,0.3-0.2,0.199-0.2c-0.5-0.4-1.699-0.6-3.1-0.3c0.4,0.2,0.8,0.4,1.2,0.5      C57.8,23.6,58.4,23.6,58.9,23.7z"/><path d="M60.1,29.6c0.7-0.2,1.301-0.5,1.9-0.7c0.1-0.1,0.3-0.1,0.4-0.2C63,28.5,63.1,28.4,63,28c-0.1-0.2-0.3-0.3-0.6-0.4      c0,0.2-0.2,0.3-0.601,0.4l0,0c-0.8,0.3-1.399,0.6-2.3,0.9c-1.6,0.5-3.1,0-4.1-0.6c0,0.5,0.3,0.8,0.699,1.1      c-0.1,0-0.1-0.1-0.1-0.3C57,29.6,58.4,30.1,60.1,29.6z"/><path d="M57.2,27.2L57.2,27.2l0.1-0.1l1.8,0.6c0.2-0.1,0.4-0.1,0.601-0.2l-2-0.6l-0.9-0.3h-0.2l0,0l-0.1,0.1l0,0      c0,0.2-0.1,0.4-0.3,0.6c-0.2,0.2-0.4,0.4-0.601,0.6c0.301,0.2,0.601,0.3,0.9,0.4C56.8,27.8,57.2,27.5,57.2,27.2z"/><path d="M58,31.4l0.7-0.3l-1-0.4l-0.3,0.1c-1-0.3-2.301-0.7-3.101-1.3C54.8,30.3,56.7,31,58,31.4z"/><path fill="#FFFFFF" d="M9.5,23.8c0.4,0.5,0.8,0.9,1.2,1.3c0.5,0.5,1,0.9,1.5,1.2c1.3,0.7,2.6,1,3.2,0.2c0.5-0.5-0.3-2.3-0.6-3.2      l-0.8-2l0,0c0.2,0.2,0.4,0.4,0.6,0.6c1.1,1.2,2,2.4,2.9,3.7c0.1,0.4,0.2,0.8,0.3,1.2c-1.1,2.4-1.8,5.1-1.8,7.9      c0,0.5,0,1.1,0.1,1.6l18.4-5.5c0.2,0,0.3,0,0.5,0l18.3,5.4c0-0.5,0.101-1,0.101-1.6c0-10.3-8.4-18.7-18.7-18.7      c-1.1,0-2.2,0.1-3.2,0.3c-0.1,0-0.2,0.1-0.2,0.1c-0.1,0-0.1,0-0.2,0c-0.7,0.1-1.4,0.3-2.1,0.5c-0.1,0-0.1,0.1-0.1,0.1      c-0.1,0-0.1,0-0.2,0c-4,1.4-7.5,4.1-9.8,7.6l0.2,0.6c0.8,1,2.8,4.4,2.3,5.1c-0.2,0.3-0.6,0.2-1,0c-0.4-0.2-0.7-0.5-1-0.9      c0.1,0.1,0.3,0.2,0.4,0.3c0.4,0.2,0.8,0.3,1,0c0.4-0.7-1.3-3.6-2.1-4.8c-0.1-0.1-0.1-0.2-0.2-0.3l-1-2.9c-0.1-0.4-0.2-0.7-0.3-1      l0.1,0.1l0.1,0.1c-0.1-0.3-0.1-0.6-0.2-0.8c-0.1-0.7-0.2-1.3-0.6-2.1l0.6-1.2l0,0c0.1,0.3,0.2,0.7,0.3,1.1      c0.3,0.8,0.6,1.6,1.3,2.3c0.1,0.1,0.2,0.2,0.3,0.3c0.5,0.4,1.1,0.6,1.4,0.3c0.4-0.4,0.1-2-0.1-3.2c0.2,0.3,0.4,0.5,0.6,0.7      c0.1,0.1,0.2,0.2,0.3,0.2c0.6,0.5,1.1,0.7,1.6,0.4c0.7-0.5,1-1.9,1-3.2c0.2,0.3,0.4,0.5,0.6,0.7c0.1,0.1,0.2,0.1,0.2,0.2      c0.3,0.2,0.5,0.3,0.6,0.3c0.3-0.1,0.6-1.4,0.8-1.8l0.5-1.8l0,0c0,0.4,0.1,1.2,0.2,1.8c0,0.2,0.1,0.4,0.2,0.6      c0.2,0.5,0.4,0.8,0.7,0.8c0.1,0,0.1,0,0.2,0c0.4-0.1,0.9-1.4,1.2-2.6c0-0.2,0.1-0.3,0.1-0.4s0-0.1,0-0.2c0,0.1,0,0.2,0,0.3l0,0      c0,0.4,0,0.7,0.1,1c0,0.3,0.1,0.5,0.2,0.6c0.1,0.3,0.4,0.5,0.6,0.6c0.1,0,0.1,0,0.2,0c0.7-0.1,1.4-1.2,1.9-2.2      c0.3-0.6,0.5-1.1,0.7-1.5l-0.2-0.9c-0.9,1.5-1.3,2.2-1.7,2.4h-0.1c-0.3,0-0.4-0.2-0.5-0.7c-0.2-1.2,0.3-3,0.6-4      c1.1,0,1.3-0.5,1.5-1.8c0-0.2,0-0.3,0.1-0.5c0-0.2,0.1-0.4,0.1-0.6l0,0h-0.8c0.1-0.2,0.2-0.7,0.3-1.1c0-0.1,0-0.2,0-0.3      c0-0.3-0.3-0.4-0.5-0.3c-0.7,0.1-0.9,1.1-1.1,2c-0.9,0.2-1.2,0.4-1.5,1.3c-0.1,0.3-0.2,0.7-0.3,1.3l-0.1,0.4      C29.8,9,29.8,9,30.1,9c0.1,0,0.2,0,0.4,0c0,0.2-0.1,0.5-0.2,0.7c-0.3,1.1-0.7,2-1.2,2.9l0.1,0.3c-0.2,0.5-0.4,0.9-0.7,1l0,0      c-0.2,0.1-0.4,0-0.5-0.3c-0.3-0.9,0.2-2.7-0.1-3.3c-0.2-0.4-0.4-0.6-0.6-0.7c0.1-0.1,0.3-0.4,0.2-0.6l0,0      c-0.1-0.2-0.3-0.5-0.6-0.6c-0.1-0.1-0.3-0.1-0.4,0S26.2,8.6,26,8.7c-1.1,0.9-2.5,3.4-2.2,5.4c-0.1,1.1-0.2,2.5-0.8,3      c-0.2,0.1-0.4,0.2-0.7,0.1c-0.2-0.1-0.4-0.2-0.6-0.5l-0.2-0.4c1.2-2.3,1-3.9,0.5-4.8c0,0,0-0.1-0.1-0.1c-0.2-0.3-0.4-0.4-0.6-0.5      c-0.3-0.1-0.5,0-0.7,0.2c-0.2,0.1-0.4,0.3-0.5,0.6c-0.6,1.1-0.6,3,0.1,4.7L20,16.1c0.1,0.7,0.4,2.2,0.1,2.6      c-0.1,0.1-0.2,0.1-0.4,0c-0.1,0-0.2-0.1-0.3-0.2c-0.6-0.6-0.8-1.8-1-2.4c0-0.4-0.1-0.7-0.3-1c-0.1-0.1-0.2-0.2-0.3-0.4      c-0.3-0.3-0.6-0.4-1-0.6c-0.3-0.1-0.6,0.6-1.2,1.6c-0.1-0.2-0.2-0.3-0.3-0.5l0,0c-0.1-0.1-0.3-0.2-0.4-0.1s-0.1,0.3-0.1,0.6      c0,0.7,0.3,1.9,1,2.7c0.1,0.1,0.2,0.2,0.3,0.3c0.1,0.1,0.2,0,0.4,0c0.1,0.2,0.1,0.4,0.2,0.6v0.1c-0.2-0.2-0.4-0.3-0.7-0.5      l1.1,3.7v0.1l0,0c-1.7-2-2.8-3.6-4.1-4.9l0,0l-0.1-0.1c-0.1-0.1-0.4-0.4-0.5-0.5c-0.2-0.1-0.5-0.1-0.6,0c-0.1,0-0.5,0.1-0.5,0.2      c-0.1,0.1,0,0.3,0.1,0.4l0.6,1.5l2.1,5.3c0.1,0.3,0.3,0.8,0.1,1.1c-0.1,0.2-0.5,0.1-0.9,0c-0.1,0-0.2-0.1-0.3-0.2      c-0.6-0.5-1.7-1.9-2.5-3.7c-0.7-1.5-1.3-3.4-1.1-5.2l0,0l0.4,0.8c0,0.1,0.1,0.3,0.2,0.4c0,0.1,0.1,0.1,0.2,0.2      c0.1,0.1,0.2,0.1,0.3,0h0.1c0.1-0.1,0.2-0.3-0.6-2.8c0-0.1-0.1-0.3-0.2-0.4c-0.1-0.2-0.3-0.4-0.5-0.6H9.2C8.9,14,8.3,13.8,8,13.8      s-0.5,0-0.6,0.3C7,15.2,6.9,16.3,7,17.3c0.1,2.1,1,4,1.6,5C8.7,22.7,9.1,23.3,9.5,23.8z M25.3,15.3C25.2,15.5,25,15.1,25,15      s0-0.1-0.1-0.2v-0.1c-0.2-0.9-0.1-2.2,1.9-4.4l0,0c-0.1,0.6-0.2,1.2-0.3,1.7c-0.5,2.6-0.8,3.1-1,3.3      C25.4,15.3,25.4,15.3,25.3,15.3z M20.9,15.2c-0.5-1.3-0.4-2.6,0-3.1c0.1-0.1,0.2,0,0.3,0.1c0.1,0.1,0.2,0.5,0.2,0.9      s0,0.8-0.1,1.3C21.1,14.6,21.1,14.9,20.9,15.2z"/><path fill="#FFFFFF" d="M43,8.3l-3.4,3.5c-0.6,0-1.1-0.1-1.699-0.1c-0.2,0-0.4,0.2-0.5,0.4c-0.301,0.3-1.2,1.3-1.4,1.7      c-0.1,0.4,0.1,0.5,0.2,0.5c0.1,0,0.3,0,0.399,0c0.2,0,0.5-0.1,0.7-0.2l0.3-0.1c1.101,0.3,2.101,0.8,3,1.6      c2.101,1.5,2.101,1.5,3.2,0.5l0.7-0.6c-0.2,0.5-0.2,1-0.2,1.3c0,0.2,0.101,0.3,0.101,0.3c0.1,0.1,0.3,0,0.5,0      c0.5-0.1,1.1-0.3,1.399-0.4l1.8-0.6l0,0C48,16.5,47.4,17,47,17.4c-0.2,0.2-0.3,0.3-0.4,0.4c-0.399,0.5-0.5,1-0.199,1.2      c0.1,0.1,0.199,0.1,0.399,0.1c0.601,0,1.8-0.3,2.7-0.6c-0.4,0.3-0.7,0.8-0.9,1.1c-0.1,0.1-0.1,0.3,0,0.3      c0.2,0.2,0.5,0.1,0.801-0.1h0.1c0.5-0.2,0.9-0.3,1.4-0.4C50.8,19.7,50.6,20,50.4,20.3C50,21.1,49.6,22,50,22.5      c0.1,0.1,0.3,0.2,0.5,0.2c0.7,0.2,2,0.1,3,0c-0.4,0.2-0.7,0.5-1,0.7c-0.6,0.5-0.9,1.1-0.6,1.6c0.1,0.2,0.3,0.5,0.6,0.6      c0.5,0.3,1.3,0.6,2,0.7c-0.2,0.1-0.3,0.2-0.4,0.4c-0.6,0.6-0.8,1.3-0.699,1.8c0.1,0.3,0.3,0.6,0.699,0.9      c0.801,0.6,2.101,1,3.101,1.3l0.3-0.1l0.4-0.2L57,30c-0.3-0.1-0.7-0.3-0.9-0.4C55.7,29.3,55.4,29,55.4,28.5      c1,0.6,2.399,1,4.1,0.6c0.9-0.2,1.5-0.6,2.3-0.9l0,0c0.4-0.1,0.601-0.2,0.601-0.4c0-0.1,0-0.1,0-0.2c-0.101-0.3-0.4-0.4-0.9-0.4      c-0.2,0-0.4,0-0.6,0.1l-4.7-1.5c-0.2-0.1-0.5-0.2-0.8-0.1c-0.101,0-0.2,0.1-0.2,0.1c-0.2-0.1-0.4-0.2-0.601-0.2      c-0.3-0.1-0.5-0.3-0.6-0.5c-0.2-0.4-0.1-0.8,0.6-1.2l0.4-0.2c2.2,1.6,3.9,1.4,4.8,1c0.3-0.2,0.5-0.4,0.601-0.6      c0.1-0.2,0-0.5-0.101-0.7c0,0,0-0.1-0.1-0.1c-0.101-0.2-0.3-0.3-0.4-0.5c-1-0.8-3-1-4.8-0.4l0.1-0.1c-1.5,0.1-2.3,0-2.699-0.1      C52.1,22.1,52,22.1,51.9,22c-0.2-0.4-0.101-0.7,0.199-1.2c1.2,0.1,3.101,0.7,4.601-0.5c0.3-0.3,0.7-0.7,0.8-1.1      c0-0.1,0-0.3,0-0.4c-0.2-0.3-1-0.4-2-0.4c-1.4,0-3,0.1-4,0.2c-0.2,0-0.3,0-0.4,0l0.5-0.3H51.7c0.8-0.1,2.8-0.4,4.899-0.7      c2.4-0.4,5-0.9,5.7-1.3c0,0,0.101,0,0.101-0.1c0.1,0,0.1-0.1,0.1-0.2c0.1-0.2,0.1-0.3,0.1-0.4c-0.1-0.1-0.399-0.2-0.899-0.2      c-1.4-0.1-4,0.1-6.4,0.7c-0.6,0.1-1.1,0.3-1.6,0.5c-0.9,0.3-1.8,0.5-2.601,1C50.5,17.7,49.8,18,49.2,18c-0.2,0-0.4,0-0.5-0.1      c-0.2-0.1-0.2-0.3-0.101-0.6c0,0,0,0,0-0.1c0.101-0.1,0.2-0.2,0.301-0.3c0.699-0.6,2.1-1.1,2.399-1.6c0.3-0.4,0.3-0.6,0.2-0.9      c0.1,0,0.5,0,0.7-0.2c0.1-0.1,0.2-0.5,0.2-0.8c0,0,0,0,0-0.1c0-0.1-0.101-0.3-0.301-0.4c-0.1-0.1-0.3-0.2-0.5-0.2      c-1.6-0.5-5.1-0.1-6.399,1.8c-0.101,0.2-0.2,0.4-0.3,0.7c-1.301-1-2.101-1.7-3.4-2.6c-0.2-0.2-0.5-0.3-0.7-0.5l3.4-3.4L44.6,8.3      c2.101-2.1,2.9-2.7,3-2.7c0.101,0,0,0.2-0.1,0.4c-0.7,0.7-1.8,1.8-2.5,3c-0.1,0.1-0.1,0.2-0.2,0.3c-0.2,0.3-0.3,0.6-0.399,0.9      c-0.101,0.3-0.101,0.6,0.1,0.7c0.1,0,0.3-0.1,0.6-0.2c0.301-0.2,0.601-0.4,0.801-0.5C46,10.1,46.3,9.9,46.6,9.7      C46.8,9.6,46.9,9.4,46.9,9.3C47,9.1,46.9,9,46.8,9c0.7-0.9,2.101-2.6,2.7-3.8c0.1-0.2,0.1-0.3,0.2-0.5c0.1-0.3,0.1-0.6,0.1-0.8      c0-0.3-0.1-0.6-0.3-0.6c-0.3-0.1-1.1,0.4-2,1.1c-0.8,0.7-1.7,1.5-2.1,1.8L43,8.3z M56.3,27.2c0.2-0.2,0.3-0.4,0.3-0.6l0,0      l0.101-0.1l0,0h0.2l0.899,0.3l2,0.6c-0.2,0.1-0.399,0.2-0.6,0.2c-0.4,0.1-0.7,0.3-1,0.4c-0.8,0.2-1.2,0.2-1.601,0.1      c-0.3-0.1-0.5-0.2-0.899-0.4C55.9,27.6,56.1,27.4,56.3,27.2z M59,23.5c0.1,0.1,0,0.2-0.1,0.2l0,0c-0.2,0.1-1,0.1-1.7-0.1      c-0.4-0.1-0.9-0.3-1.2-0.5C57.3,22.8,58.5,23,59,23.5z M52.4,19.3c0.699-0.2,2.699-0.1,3,0.2c0,0,0.1,0.2,0,0.2      c-0.101,0-0.101,0.1-0.2,0.1c-0.3,0.2-0.8,0.1-1,0.1L53,20h-0.7C52.4,19.7,52.4,19.5,52.4,19.3z M45.6,15.9      C45.5,15.9,45.5,15.9,45.6,15.9c-0.1-0.1-0.1-0.1-0.1-0.1c0-0.1,0.1-0.3,0.1-0.3c0.601-0.8,1.601-1.7,4.9-1.2l0,0      c-0.4,0.2-0.7,0.3-1,0.4c-1.8,0.7-2.7,1.1-3.2,1.2S45.7,16,45.6,15.9z"/><path d="M17.2,56.5l1.5,1l0.1-0.1L16.6,55.8L12,57.6c-0.2,0.101-0.4,0.101-0.6,0.2C11.1,57.9,10.9,58,10.7,58      c-0.1,0.3,0,0.4,0.1,0.5c0.2,0.2,0.8,0.1,1.2-0.1c0.2-0.101,0.4-0.2,0.6-0.2L17.2,56.5z"/><path d="M16.1,61.2c0,0.2,0,0.3,0.2,0.399c0.7,0.5,2.6-0.1,3.7-0.6l0.2-0.6c-1.1,0.3-1.4,0.399-1.5,0.199      C17.7,61,16.8,61.3,16.1,61.2z"/><path d="M15.7,55.2C15.6,55.1,15.6,55.1,15.5,55.1c0,0.101,0,0.101,0.1,0.2L15.7,55.2z"/><path d="M18.4,53.7L18.4,53.7c-0.2,0-0.4,0-0.7,0.1c0,0,0,0.101,0.1,0.101c0.1,0.1,0.4,0.3,0.6,0.399l0,0c0.1-0.1,0.2-0.1,0.4,0      l0.6-0.2C19.3,54,19,53.9,18.8,53.9C18.6,53.8,18.5,53.7,18.4,53.7z"/><path d="M23.1,57.4c-0.7,0.3-1.4,0.8-2.1,1.199c0,0-0.1,0-0.1,0.101l-0.8-0.5l-2.2,1.5c-0.1,0.2-0.1,0.3,0,0.399      C18,60.2,18.3,60.2,19,60l1.7-1.2l0.8,0.5c0.1-0.1,0.2-0.1,0.3-0.2c0.6-0.399,1.3-0.8,1.9-1.1C23.4,57.4,23.6,57.7,23.1,57.4z"/><path d="M28.1,53.7c0.2-0.3,0.4-0.8,0.2-1C28.2,52.6,28,52.6,27.7,52.6c-0.1,0.2-0.1,0.301-0.2,0.5c-0.3,0.301-0.9,0.7-1.2,1      l-4,2.601c0.6,0.5,0.5,0.2,0.7,0.5l3.9-2.601C27.2,54.4,27.9,54,28.1,53.7z"/><polygon points="19.5,54.9 20.3,55.4 23.3,54.5 25.4,53.2 25.4,53.1 19.5,54.8    "/><path d="M26.2,63.6V63.4c-0.2,0.199-0.3,0.3-0.5,0.5l0.1-0.801c-0.4,0.2-0.8,0.5-1.1,0.601c-0.8,0.6-1.8,1.2-2.5,1.2      c0.1,0.3,0.2,0.5,0.4,0.6l0,0l0,0C23.6,65.7,25.3,64.4,26.2,63.6z"/><path d="M27.2,58.1c0,0.301,0,0.5,0.2,0.601c0.5,0.2,1.3-0.601,1.6-1.4c0.1-0.3,0.1-0.7-0.1-0.8c-0.1,0-0.3,0-0.4,0      c0,0.1,0,0.1,0,0.2C28.2,57.4,27.6,58,27.2,58.1z"/><path d="M25,60.5c-0.6,0.5-1.3,0.9-1.6,1.1C23,62.4,23,62.9,23.5,63.1c0.1,0,0.1,0,0.2,0c0-0.199,0.1-0.5,0.3-0.899      c0.4-0.2,1.3-0.8,1.9-1.4c0.5-0.399,0.8-0.8,1-1.2c0.2-0.399-0.1-0.699-0.3-0.699c-0.1,0-0.2,0-0.3,0V59      C26.1,59.5,25.6,60.1,25,60.5z"/><path d="M31.7,64.5l0.1-0.8c-0.5,0.399-1.4,1.3-1.9,1.5c-0.7,0.7-1.5,1.3-1.9,1.3c0.1,0.3,0.2,0.5,0.5,0.6l0,0l0,0      C29.2,67.2,31,65.3,31.7,64.5z"/><path d="M29.6,59c-0.1,0-0.3,0.1-0.6,0.3c0.3,0,0.6,0,0.8,0C29.8,59.1,29.7,59,29.6,59z"/><path d="M31.6,60.1c0-0.1-0.2-0.199-0.5-0.199c0,0.199,0,0.5,0,0.699c-0.1,0.601-0.4,0.9-0.8,1.2L30.2,61.9      c-0.5,0.5-1.2,1.3-1.3,2c-0.1,0.3,0.1,0.6,0.3,0.699c0.1,0,0.2,0,0.4-0.1c0.2-0.8,1-1.7,1.4-2.1c0.1-0.101,0.2-0.2,0.3-0.301      c0.2-0.199,0.4-0.5,0.5-0.899C31.7,60.8,31.7,60.5,31.6,60.1z"/><path d="M29.2,61.5L29.2,61.5l-0.8,0.1L27.8,61.7c-0.1,0.2-0.2,0.3-0.3,0.399c0,0.101,0.1,0.101,0.2,0.2c-0.4,0.5-0.7,1-1.1,1.3      l-0.1,0.9c0.7-0.8,1.3-1.2,2-2.2h0.2c0.1-0.2,0.3-0.399,0.4-0.5C29.1,61.7,29.1,61.6,29.2,61.5z"/><path d="M36.4,64.8c0-0.2,0-0.399,0-0.6V64c-0.4,0.5-1.101,1.4-1.7,1.8c-0.6,0.8-1.3,1.4-1.9,1.4c-0.1,0-0.1,0-0.2,0      c0.1,0.2,0.2,0.399,0.3,0.5c0.1,0.1,0.3,0.2,0.4,0.2c0.2,0,0.3-0.101,0.5-0.101C34.9,67.3,35.8,65.8,36.4,64.8z"/><path d="M33.4,61.2c0.9-1.3,1.8-3.3,2.1-4.5c-0.1,0.1-0.3,0.3-0.5,0.6c-0.1,0.101-0.2,0.3-0.2,0.4C34.3,58.5,33.8,59.7,33.4,61.2      L33.4,61.2z"/><path d="M34,61.8L34,61.8c0-0.1,0-0.2,0-0.3c-0.2,0.3-0.3,0.5-0.5,0.8c-0.2,0.2-0.3,0.5-0.5,0.7c-0.1,0.4-0.2,0.9-0.1,1.4      s0.3,0.899,0.6,0.899h0.1c0-0.1-0.1-0.2-0.1-0.3c0-0.5,0-1.1,0.1-1.4c0.3-0.5,0.6-0.899,0.9-1.3c2.1-3.3,2.4-5,2.6-6.7      c0-0.3,0-0.8-0.199-0.8c-0.101,0-0.2,0.101-0.4,0.3C36.4,55.9,36.3,56.8,36,57.7C35.6,58.9,34.8,60.6,34,61.8z"/><path d="M40.5,63.8c-0.3,0.4-0.6,1-0.9,1.5c-0.5,1-1.1,1.9-1.699,2c-0.101,0-0.2,0-0.2,0c0.1,0.101,0.2,0.3,0.2,0.4      C38.1,67.9,38.3,68,38.5,68s0.5-0.2,0.7-0.4c0.7-0.699,1.2-2,1.5-2.899L40.5,63.8z"/><path d="M38.8,60.3c0,0.5-0.2,1.2-0.399,1.9c-0.301,0.7-0.7,1.399-0.9,1.7c0,0.8,0.2,1.199,0.7,1.199      c0-0.199-0.101-0.399-0.101-0.6C38.4,64.1,39,63,39.3,62c0.101-0.5,0.2-0.9,0.2-1.2C39.3,60.4,39,60.3,38.8,60.3z"/><path d="M38.9,59.2c0.1,0.399,0.3,0.7,0.6,0.6c0.5-0.1,0.9-1.1,0.8-2c0-0.399-0.3-0.6-0.5-0.6h-0.1      C39.7,58.1,39.3,59.1,38.9,59.2z"/><path d="M42,63.3c0,0.101,0.1,0.2,0.2,0.2c0.1,0,0.1-0.2,0.1-0.4c0.101-0.6,0.2-1.199,0.4-1.899c0.1-0.3,0.2-0.7,0.3-1V60.1      c0-0.1-0.1-0.3-0.6-0.3c0,0.4-0.101,0.9-0.2,1.5C42.1,62.2,41.9,63,42,63.3z"/><path d="M47,61.3l-0.4,1.2c-0.1,0.2-0.1,0.4-0.199,0.7c-0.301,1.2-0.7,2.399-1.2,2.6c-0.101,0-0.2,0-0.3,0      C45,65.9,45,66,45.1,66.1c0.2,0.2,0.4,0.301,0.7,0.301C46,66.3,46.2,66.1,46.4,65.7c0.5-1,0.8-2.7,1-3.601L47,61.3z"/><path d="M43.9,64c-0.101-1,0-2.2,0.1-3l0,0c-0.4,1.1-0.7,2.3-0.9,3.6C43,65,42.9,66.1,42.6,66.3c-0.1,0-0.1,0-0.199,0      c0.199,0.3,0.3,0.5,0.5,0.601c0.1,0,0.199,0.1,0.3,0c0.1,0,0.1-0.101,0.2-0.2c0.199-0.3,0.3-1.101,0.399-1.5      C43.7,64.7,43.8,64.4,43.9,64z"/><path d="M45.8,59.4c-0.2-0.4-0.399-0.7-0.5-1C45.1,58.1,45,58.1,45,58.1s-0.1,0-0.1,0.101c0.1,0.2,0.199,0.399,0.3,0.7      c0.1,0.3,0,0.899-0.2,1.6c-0.2,0.8-0.4,1.8-0.1,2.5c0.1,0.2,0.199,0.3,0.3,0.3c0.1,0,0.1-0.1,0.2-0.2c-0.101-1,0.3-2.199,0.399-3      C45.9,59.8,45.9,59.6,45.8,59.4z"/><path d="M48.7,58.7c0-0.4,0-0.7,0.1-1c0-0.5,0-0.9-0.1-1C48.6,56.6,48.5,56.5,48.5,56.6C48.1,57,48,57.9,48.2,59      c0,0.2,0.1,0.5,0.2,0.7C48.5,59.4,48.6,59.1,48.7,58.7L48.7,58.7z"/><path d="M52.2,59.7C52,59.5,52,59.1,51.9,59l0,0L51.8,58.9c0,0.199-0.1,0.5-0.1,0.8c0,1.5-0.3,3.3-1.2,3.899      c-0.4,0.2-0.9,0.101-1.4-0.3c0.301,0.4,0.7,0.7,1,0.9c0.4,0.2,0.7,0.2,1,0.1c0.301-0.2,0.601-0.6,0.801-1      c0.399-0.899,0.5-2.2,0.399-3.2C52.3,59.8,52.2,59.7,52.2,59.7z"/><path d="M49.8,58c-0.1,0.7-0.399,1.6-1,2.6L49,61c0.2,0.3,0.4,0.5,0.6,0.6L49.4,61.2c0.899-1.5,1.1-2.7,1-3.601      C50.3,57.1,50.2,56.7,50,56.3c-0.2-0.3-0.4-0.5-0.6-0.5C49.7,56.3,49.9,57.1,49.8,58z"/><path d="M56.6,56.1L56,55.6c0.3,1.5,0.4,3.7-0.3,4.301c-0.7,0.5-1.9,0.5-3.101-0.5c0,0.1,0.101,0.3,0,0.399l0,0      c0,0.2,0.101,0.3,0.2,0.4c0.101,0.1,0.3,0.2,0.4,0.2c0.1-0.101,0.1-0.2,0-0.4c0.6,0.5,1.3,0.8,1.8,0.8s0.9-0.1,1.2-0.3      s0.399-0.6,0.5-1.1C57,58.4,56.8,57.1,56.6,56.1z"/><path d="M52.6,55.4c0.101,0.1,0.2,0.199,0.301,0.3C53.1,55.8,53.2,56,53.3,56.1L53.2,56c-0.101-0.1-0.2-0.2-0.3-0.3      c-0.301-0.2-0.5-0.5-0.9-0.9l0.2,1.4l0.3,1.899C52.6,58,52.8,58,53,58l-0.3-2.2L52.6,55.4z"/><path d="M53.5,54.4c0.1,0.1,0.2,0.3,0.3,0.399c0.8,1.2,1,2.5,1,3.5c0.3-0.1,0.5-0.3,0.601-0.6c-0.101-0.9-0.5-1.9-1.2-2.7      C54.1,54.9,54,54.8,54,54.7C53.8,54.6,53.6,54.5,53.5,54.4L53.5,54.4z"/><path fill="#FFFFFF" d="M11.9,57.7l4.6-1.8l2.2,1.6l-0.1,0.1c-2.8,1.9-2.6,2-2.7,2.101c-0.4,0.5-0.6,1.1-0.3,1.399      c0.1,0.101,0.3,0.101,0.4,0.2c0.6,0.101,1.6-0.1,2.4-0.399c0.3-0.101,0.6-0.2,0.8-0.301l0.2-0.6c-0.2,0-0.3,0.1-0.5,0.1      c-0.7,0.2-0.9,0.2-1.1,0.101c-0.1-0.101-0.1-0.2,0-0.4l2.2-1.5l0.8,0.5c0,0,0.1,0,0.1-0.1c0.7-0.5,1.4-0.9,2.1-1.2l0,0      c-0.1-0.1-0.1-0.2-0.1-0.2c-0.2-0.399-0.1-0.1-0.7-0.5l4-2.6c0.3-0.2,1-0.601,1.2-1c0.1-0.101,0.2-0.3,0.2-0.5      c0.1-0.2,0.1-0.4,0-0.5c-0.4-0.3-2.8,0.2-4.8,0.8l-3.6,1l-0.6,0.2l-0.3,0.1c0,0,0,0-0.1,0c-0.1-0.1-0.4-0.3-0.6-0.399      c0,0,0,0-0.1-0.101c0,0,0-0.1,0-0.2c0.1-0.199,0.4,0,0.7,0.101c0.1,0,0.2,0.1,0.2,0.1c0.1,0,0.1,0,0.1-0.1      c0.2-0.2-0.5-0.5-1-0.601C16.8,53,15.3,53.7,14.8,54l-0.1,0.1c-0.3,0.4,0,0.601,0.5,0.9c0.1,0,0.1,0.1,0.2,0.1L15.3,55.2L13.8,56      c-1.1-0.1-2.6,0.5-3.3,1c-0.2,0.1-0.4,0.3-0.4,0.4c-0.2,0.3-0.1,0.5,0.1,0.6c0.1,0.1,0.3,0.1,0.5,0.1c0.2,0,0.5-0.1,0.7-0.199      C11.5,57.8,11.8,57.7,11.9,57.7z M25.4,53.2L23.3,54.6L21.2,56l-0.8-0.5L19.6,55l0,0L25.4,53.2L25.4,53.2z"/><path fill="#FFFFFF" d="M25.8,62.2c-0.6,0.3-1.5,1-2.1,1c-0.1,0-0.1,0-0.2,0C23,63,23,62.5,23.4,61.7c0.4-0.2,1-0.601,1.6-1.101      s1.1-1,1.3-1.5c0-0.1,0-0.1,0-0.1c0.1-0.3-0.2-0.5-0.3-0.6c-0.4-0.2-1.6,0.5-2.6,1.6c-0.6,0.6-1.1,1.4-1.4,2.2      c-0.4,1-0.6,2.399,0.1,2.7c0.1,0,0.1,0,0.2,0c0.7,0.1,1.7-0.5,2.5-1.2c0.3-0.2,0.6-0.5,0.8-0.7L25.8,62.2z"/><path fill="#FFFFFF" d="M28.2,56c-0.5-0.2-1.3,0.3-1.6,1.1c-0.2,0.5-0.1,0.9,0.1,1c0.1,0,0.2,0,0.4,0c0.5-0.1,1-0.699,1.2-1.3      c0-0.1,0-0.1,0-0.2C28.5,56.4,28.4,56.1,28.2,56z"/><path fill="#FFFFFF" d="M28.8,63.9c0.2-0.7,0.8-1.5,1.3-2l0.1-0.101c0.4-0.3,0.7-0.6,0.8-1.2c0-0.199,0-0.5,0-0.699      c0-0.101,0-0.301-0.1-0.4c-0.1-0.2-0.5-0.2-1.2-0.2c-0.2,0-0.5,0-0.8,0l0,0c0.1-0.2,0.2-0.3,0.2-0.6c0-0.2,0-0.4-0.1-0.4      c-0.3-0.1-1.9,1.101-2.2,2.601c0,0.1,0,0.1,0,0.199c0,0.301,0,0.4,0.2,0.5c-0.4,0.5-0.7,1-1.1,1.301V63l-0.1,0.8      c0.2-0.2,0.3-0.399,0.5-0.5c0.4-0.399,0.8-0.7,1.2-1.3c0.1-0.1,0.2-0.3,0.3-0.4l0.6-0.1l0.8-0.1l0,0c-0.1,0.1-0.1,0.1-0.2,0.199      c-0.1,0.2-0.3,0.301-0.4,0.5c-0.5,0.7-1.1,1.5-1.3,2.5c-0.2,0.801,0,1.601,0.5,1.7h0.1c0.4,0,1.2-0.6,1.9-1.3      c0.5-0.5,1-1,1.2-1.3l0.1-0.8c-0.4,0.3-1.2,1.199-1.7,1.399C29.3,64.4,29.1,64.4,29,64.4C28.8,64.6,28.7,64.3,28.8,63.9z"/><path fill="#FFFFFF" d="M35.7,63.4c-0.5,0.699-1.5,1.899-2.1,2h-0.1c-0.3,0-0.5-0.4-0.6-0.9c0-0.5,0-1.1,0.1-1.4      c0.2-0.3,0.3-0.5,0.5-0.699c0.2-0.301,0.3-0.5,0.5-0.801c1-1.6,1.5-2.8,1.9-3.8c0.3-1,0.5-1.8,0.5-2.6V55.1c0-0.3,0-0.8-0.2-0.8      c-0.4,0-1.7,1.9-2.8,4.101c-0.6,1.1-1,2.5-1.3,3.899c-0.1,0.8-0.2,1.5-0.3,2.3c0,1.2,0.1,2.5,0.9,2.7c0.1,0,0.1,0,0.2,0      c0.6,0,1.3-0.6,1.9-1.399C35.3,65.3,35.7,64.6,36,64.1L35.7,63.4z M35,57.2c0.2-0.2,0.3-0.4,0.5-0.601c-0.3,1.2-1.1,3.2-2.1,4.5      l0,0c0.4-1.399,0.9-2.6,1.4-3.5C34.8,57.5,34.9,57.4,35,57.2z"/><path fill="#FFFFFF" d="M38.8,59.2L38.8,59.2c0.5-0.101,0.9-1.101,0.8-1.9c0,0,0,0,0-0.1c0-0.4-0.3-0.601-0.5-0.601      c-0.5,0.101-1,0.9-0.899,1.7C38.3,58.9,38.5,59.2,38.8,59.2z"/><path fill="#FFFFFF" d="M37.4,63.9c0.199-0.301,0.6-1,0.899-1.7s0.5-1.3,0.4-1.9v-0.1c-0.101-0.5-0.4-0.5-0.601-0.5      c-0.5,0.1-1.199,1.2-1.5,2.6C36.5,62.9,36.4,63.6,36.4,64.2c0,0.2,0,0.399,0,0.6V64.9c0.1,0.899,0.5,2.1,1.1,2.3      c0.1,0,0.2,0,0.2,0c0.6-0.101,1.3-1,1.7-2c0.199-0.5,0.399-0.9,0.5-1.3L39.7,63.1c-0.4,0.7-1,1.801-1.601,1.9C38,65,38,65,38,65      C37.6,65.1,37.4,64.7,37.4,63.9z"/><path fill="#FFFFFF" d="M45.3,63.3c-0.1,0-0.3-0.1-0.3-0.3c-0.2-0.8-0.1-1.7,0.1-2.5c0.101-0.7,0.301-1.2,0.2-1.6      c-0.1-0.2-0.2-0.5-0.3-0.7c-0.1-0.101-0.1-0.3-0.2-0.4c-0.2-0.3-0.3-0.3-0.3-0.3c-0.2,0.1-0.8,1.3-1.3,2.7      c-0.101,0.3-0.2,0.7-0.3,1c-0.2,0.6-0.301,1.3-0.4,1.899c0,0.101-0.1,0.301-0.1,0.4c-0.101,0-0.2-0.1-0.2-0.2      C42.1,63,42.3,62.2,42.5,61.4c0.1-0.5,0.2-1.101,0.2-1.5c0-0.101,0-0.2,0-0.301c0-0.1-0.101-0.399-0.8-0.199      c-0.2,0.1-0.301,0.1-0.4,0.399c-0.2,0.5-0.3,1.2-0.3,2c0,1,0,2,0.3,2.8c0.2,0.601,0.6,1.601,1.1,1.7c0.101,0,0.101,0,0.2,0      c0.3-0.1,0.5-1.2,0.5-1.7c0.2-1.3,0.4-2.6,0.9-3.6l0,0C44.1,61.8,44,63,44.1,64c0,0.3,0.101,0.5,0.101,0.7c0.2,0.5,0.5,1,0.8,1.1      c0.1,0,0.2,0,0.3,0c0.601-0.2,0.9-1.399,1.2-2.6c0.2-0.601,0.3-1.2,0.4-1.601l-0.4-0.8L46,61.9c-0.1,0.3-0.3,0.899-0.5,1.199      C45.4,63.2,45.3,63.2,45.3,63.3z"/><path fill="#FFFFFF" d="M51.2,58.2c-0.101,1.1-0.3,2.899-1,3.399C50,61.7,49.8,61.7,49.6,61.7C49.4,61.6,49.2,61.4,49,61.1      L48.8,60.7c0.601-1,0.9-1.8,1-2.601c0.101-1,0-1.699-0.3-2.199V55.8c-0.4-0.7-0.9-0.6-1.3-0.399c-1,0.6-1.4,2.399-1,4.199      C47.4,60.4,47.6,61.2,48.1,61.9c0.301,0.5,0.7,1,1.101,1.399c0.5,0.4,1,0.601,1.399,0.3c0.9-0.5,1.2-2.3,1.2-3.899      c0-0.3,0-0.601,0-0.8L51.2,58.2z M48.2,59c-0.2-1.1-0.101-2,0.3-2.4c0.1-0.1,0.2,0,0.2,0.101c0.1,0.1,0.1,0.5,0.1,1      c0,0.3,0,0.7-0.1,1c0,0,0,0,0,0.1c-0.101,0.3-0.2,0.7-0.4,1C48.2,59.4,48.2,59.2,48.2,59z"/><path fill="#FFFFFF" d="M54.8,58.4c0.101-1-0.1-2.301-1-3.5c-0.1-0.101-0.2-0.301-0.3-0.4l0,0c-0.6-0.7-1.2-1.1-1.7-1.6      C51.4,52.5,51.2,52.4,50.9,52.6C50.6,52.9,50.8,53.6,51.3,54.1l0.4,2.7L52,59l0,0c0,0.2,0.1,0.5,0.3,0.7c0,0.1,0.101,0.1,0.2,0.1      c0.1,0.101,0.2,0.101,0.3,0l0,0c0.101-0.1,0.101-0.2,0-0.399c1.2,1,2.4,1,3.101,0.5c0.8-0.601,0.6-2.801,0.3-4.301v-0.1L55.4,55      l0.1,1.2c0,0.6,0.1,1.1-0.1,1.5C55.3,58,55.1,58.2,54.8,58.4z M52.5,58.1L52.2,56.2L52,54.8c0.4,0.3,0.6,0.601,0.9,0.9      c0.1,0.1,0.199,0.2,0.3,0.3l0.1,0.1C54,57,54.1,57.4,54,58.4c-0.3-0.2-0.7-0.301-1-0.4C52.8,58,52.6,58,52.5,58.1z"/></g></g></switch></svg>