<svg xmlns="http://www.w3.org/2000/svg" version="1.1" id="Layer_1" x="0px" y="0px" width="70px" height="70px" viewBox="0 0 70 70" enable-background="new 0 0 70 70" xml:space="preserve"><metadata/><switch><g><rect width="70" fill="none" height="70"/><path id="_x2E_" fill="#F17C21" d="M68.5,40.6c0,1-0.9,1.801-1.9,1.801s-1.8-0.801-1.8-1.7c0-1,0.8-1.8,1.8-1.8     C67.6,38.8,68.5,39.6,68.5,40.6"/><path id="x" fill="#F17C21" d="M61.5,42.5L61.5,42.5c0-0.1,0-0.1,0-0.1l0,0c-0.1-0.4-0.2-0.7-0.3-0.9c-3-4.9-7.5-8.8-7.5-8.8     s-0.2-0.2-0.101-0.2c0.101-0.1,1-0.7,1.2-0.8c0.2-0.1,1.4-0.9,1.8-1.1c1.2-0.6,2.601-0.7,2.601-1.7c0-0.5-0.601-0.9-0.8-1     C56.2,27,53.2,29,52.8,29.2c-0.399,0.2-1.3,0.9-1.399,1c-0.101,0.1-0.2,0.1-0.301,0c-0.6-0.5-3-2.2-6.1-3.8     c-3-1.6-6.7-3.2-9.4-3.7c-0.7-0.1-1.7-0.1-2.1,0.7c-0.2,0.6-0.1,1.3,0.9,1.7c0.7,0.3,3.7,1,8.3,3.3c2,1,5.2,3.3,5.2,3.3     c0.199,0.1,0.5,0.4,0.5,0.4c0,0.1-0.4,0.3-0.601,0.5c-0.2,0.2-2.2,1.5-2.6,1.8c-0.5,0.4-2.8,1.9-3.2,2.1c-0.7,0.3-1.4,0.7-1.4,1.5     c0,0.2,0,0.4,0.101,0.6l0,0c0,0,0,0,0,0.101c0.1,0.3,0.3,0.6,0.5,0.7c0.3,0.199,0.6,0.3,0.899,0.3c0.4,0,0.7-0.101,1.101-0.3     C43.9,39,44.6,38.6,44.9,38.3c0.5-0.399,5.8-4.2,5.8-4.2s0.1-0.1,0.2,0c0.199,0.1,4.699,4.3,7,7.5c0.399,0.601,0.6,0.9,0.8,1.2     s0.3,0.4,0.5,0.601c0.2,0.199,0.5,0.3,0.8,0.3c0.1,0,0.2,0,0.3,0c0.4,0,0.601-0.101,0.9-0.5C61.4,43.2,61.5,42.8,61.5,42.5"/><path id="e" fill="#0A4D85" d="M37.3,38.7c-0.3,0-0.6,0.1-0.8,0.3c-0.5,0.2-1.2,0.5-1.4,0.6c-0.3,0.101-6,2.5-9.8-1     c-1.3-1.199-1.4-2.5-1.4-2.5s0.3,0.101,1,0c7.2-0.3,7.1-5.6,5-6.899c-1.4-0.8-2.7-0.6-3.1-0.6c-0.4,0-1.3,0.3-1.3,0.3     c-4,1.2-4.8,4.6-4.9,5.3c-0.1,0.5-0.2,0.7-0.1,2.1c0.3,2.601,2.6,5.2,5.6,6.4c2.9,1.1,6.3,1,9.4,0c0.8-0.2,1.4-0.4,1.8-0.601l0,0     c0.2-0.1,0.4-0.199,0.601-0.3c0.6-0.2,1-0.8,1-1.5C38.9,39.4,38.2,38.7,37.3,38.7 M26.7,31.5c0.2,0,1,0,1.1,0.3     c0.1,0.2-0.1,0.4-0.2,0.6c-0.6,0.4-1.9,0.8-2.9,0.8c-0.3,0-0.6,0-0.6-0.1C24.1,32.6,25.6,31.5,26.7,31.5"/><path id="r" fill="#0A4D85" d="M7.2,33.1c0.1-0.1,6.7-7.3,14.1-7.6c0.8,0,1.5,0.4,1.8,1.1c0.3,0.9-0.3,1.9-1.3,2.2     c-0.5,0.2-1,0.1-1.4,0l0,0l0,0c-0.5,0-1.1,0.1-1.6,0.2C13.2,30.7,8.6,35,5,41.7c-0.2,0.399-0.4,0.6-0.7,1C4,43,3.1,43.7,2.4,43.6     c-0.6-0.1-0.7-0.5-0.8-0.899c-0.1-0.5,0.1-1.101,0.3-1.8c0.1-0.5,0.3-1,0.5-1.7C2.9,36.9,3.1,35,3,33.8c0-0.5,0-1.2,0.4-1.6     c0.4-0.5,1-0.5,1.5-0.6c0.7-0.1,1,0.2,1.3,0.3c0.2,0.2,0.4,0.4,0.4,0.6v0.1c0,0.1,0,0.2,0,0.3c0,0.2,0,0.3,0.2,0.4     C6.9,33.4,7.1,33.2,7.2,33.1"/></g></switch></svg>