<svg xmlns="http://www.w3.org/2000/svg" version="1.1" width="70px" height="70px" viewBox="0 0 70 70"><g id="surface1"><path d="M 16.101562 20.953125 C 16.101562 21.164062 16.378906 21.605469 16.730469 21.980469 C 17.664062 22.960938 17.242188 23.007812 15.984375 22.050781 C 14.792969 21.117188 14.464844 21.140625 14.886719 22.074219 C 15.144531 22.632812 15.144531 22.65625 14.675781 22.515625 C 14.351562 22.398438 14.210938 22.445312 14.28125 22.632812 C 14.328125 22.773438 14.441406 22.890625 14.535156 22.890625 C 14.628906 22.867188 15.050781 23.03125 15.46875 23.238281 C 16.402344 23.753906 20.113281 25.199219 20.394531 25.199219 C 20.859375 25.199219 20.160156 24.78125 19.25 24.5 C 17.640625 24.011719 15.679688 23.054688 15.539062 22.726562 C 15.351562 22.238281 15.585938 22.308594 18.222656 23.449219 C 20.90625 24.617188 20.765625 24.570312 20.765625 24.3125 C 20.765625 24.21875 20.136719 23.894531 19.367188 23.566406 C 17.988281 23.007812 16.613281 21.933594 17.265625 21.933594 C 17.757812 21.933594 22.285156 23.613281 22.351562 23.824219 C 22.398438 23.941406 22.65625 24.058594 22.9375 24.058594 C 23.308594 24.078125 23.332031 24.125 23.054688 24.195312 C 22.84375 24.242188 22.609375 24.453125 22.539062 24.640625 C 22.375 25.058594 22.726562 25.058594 23.101562 24.617188 C 23.402344 24.242188 24.265625 24.125 24.265625 24.476562 C 24.265625 24.941406 23.542969 25.246094 22.703125 25.128906 C 22.214844 25.035156 21.957031 25.058594 22.074219 25.199219 C 22.445312 25.550781 23.519531 25.550781 23.964844 25.175781 C 24.21875 24.941406 24.59375 24.851562 24.941406 24.941406 L 25.503906 25.105469 L 24.875 25.527344 C 24.5 25.761719 23.964844 25.898438 23.660156 25.828125 C 23.332031 25.785156 23.03125 25.828125 22.960938 25.921875 C 22.890625 26.039062 23.007812 26.132812 23.191406 26.132812 C 23.402344 26.132812 23.566406 26.226562 23.566406 26.367188 C 23.566406 26.484375 23.824219 26.601562 24.148438 26.601562 C 24.5 26.601562 24.710938 26.714844 24.6875 26.878906 C 24.640625 27.089844 24.964844 27.183594 25.785156 27.183594 C 26.671875 27.207031 27.183594 27.042969 27.929688 26.554688 C 28.675781 26.039062 28.910156 25.96875 29.027344 26.25 C 29.097656 26.460938 28.863281 26.738281 28.398438 27.019531 C 27.441406 27.601562 26.25 27.90625 26.507812 27.511719 C 26.601562 27.347656 26.554688 27.277344 26.34375 27.347656 C 26.15625 27.417969 26.015625 27.578125 26.015625 27.742188 C 26.015625 28.140625 24.988281 28.675781 24.21875 28.699219 C 23.472656 28.699219 23.355469 28.328125 24.035156 28.117188 C 24.828125 27.859375 24.546875 27.558594 23.753906 27.789062 C 22.796875 28.046875 21.464844 28.070312 21.464844 27.8125 C 21.464844 27.695312 21.886719 27.488281 22.421875 27.324219 C 23.777344 26.902344 23.378906 26.738281 21.863281 27.066406 C 20.882812 27.300781 20.394531 27.300781 19.832031 27.089844 C 19.414062 26.949219 18.945312 26.832031 18.808594 26.832031 C 18.363281 26.855469 19.4375 27.535156 19.902344 27.535156 C 20.136719 27.535156 20.488281 27.695312 20.671875 27.882812 C 20.882812 28.070312 21.441406 28.234375 21.957031 28.234375 C 22.46875 28.234375 22.84375 28.328125 22.773438 28.441406 C 22.609375 28.699219 23.171875 28.933594 23.917969 28.933594 C 24.21875 28.933594 24.546875 29.050781 24.640625 29.191406 C 24.710938 29.328125 25.035156 29.398438 25.339844 29.328125 C 25.644531 29.285156 25.898438 29.328125 25.898438 29.421875 C 25.898438 29.539062 26.203125 29.632812 26.578125 29.632812 C 26.972656 29.632812 27.324219 29.726562 27.417969 29.84375 C 27.488281 29.984375 27.8125 29.984375 28.210938 29.867188 C 28.769531 29.703125 28.910156 29.75 29.003906 30.101562 C 29.097656 30.425781 29.375 30.566406 30.125 30.613281 L 31.148438 30.683594 L 31.078125 31.710938 C 31.011719 32.339844 31.078125 32.667969 31.21875 32.574219 C 31.546875 32.363281 31.734375 33.039062 31.429688 33.34375 C 31.289062 33.484375 30.941406 33.601562 30.636719 33.601562 C 30.355469 33.601562 30.007812 33.808594 29.867188 34.042969 C 29.539062 34.695312 29.585938 35.070312 29.984375 34.90625 C 30.171875 34.835938 30.496094 34.695312 30.683594 34.625 C 30.941406 34.511719 31.035156 34.648438 31.035156 35.09375 C 31.035156 35.792969 31.195312 35.863281 31.640625 35.28125 C 31.941406 34.90625 31.988281 34.90625 32.292969 35.28125 C 32.644531 35.746094 32.898438 35.816406 32.898438 35.441406 C 32.898438 35.117188 33.484375 34.535156 33.808594 34.535156 C 33.949219 34.535156 34.066406 34.742188 34.066406 34.976562 C 34.066406 35.722656 34.417969 35.722656 34.71875 35 C 34.929688 34.558594 35.140625 34.371094 35.375 34.464844 C 35.535156 34.535156 35.628906 34.671875 35.558594 34.789062 C 35.488281 34.90625 35.605469 35 35.792969 35 C 36.144531 35 36.285156 34.601562 36.191406 33.855469 C 36.144531 33.691406 36.261719 33.625 36.398438 33.714844 C 36.773438 33.949219 36.421875 32.644531 36.003906 32.199219 C 35.699219 31.898438 35.675781 31.898438 35.746094 32.316406 C 35.792969 32.574219 35.933594 32.851562 36.050781 32.945312 C 36.191406 33.039062 36.097656 33.132812 35.863281 33.132812 C 35.628906 33.132812 35.464844 32.992188 35.511719 32.828125 C 35.558594 32.527344 34.976562 31.5 34.71875 31.5 C 34.648438 31.5 34.511719 31.6875 34.464844 31.898438 C 34.394531 32.128906 34.347656 31.988281 34.324219 31.59375 C 34.324219 31.195312 34.089844 30.589844 33.832031 30.261719 C 33.578125 29.9375 33.367188 29.5625 33.367188 29.421875 C 33.367188 29.097656 31.546875 28.164062 31.171875 28.304688 C 31.011719 28.375 30.753906 28.210938 30.589844 27.976562 C 30.332031 27.558594 30.285156 27.558594 29.796875 27.882812 C 29.027344 28.421875 28.839844 28.304688 29.351562 27.601562 C 29.773438 27.042969 29.773438 26.925781 29.46875 26.460938 C 29.003906 25.714844 29.421875 24.429688 30.613281 23.101562 C 31.125 22.515625 31.476562 22.167969 31.40625 22.328125 C 31.195312 22.726562 32.152344 22.960938 32.574219 22.609375 C 33.132812 22.167969 33.226562 22.539062 32.785156 23.472656 L 32.386719 24.3125 L 33.460938 25.410156 C 34.136719 26.109375 34.535156 26.714844 34.535156 27.066406 C 34.535156 27.394531 34.648438 27.8125 34.789062 28 C 34.976562 28.28125 35 28.210938 34.90625 27.695312 C 34.8125 27.347656 34.8125 27.066406 34.882812 27.066406 C 34.953125 27.066406 35.816406 27.71875 36.820312 28.488281 C 38.265625 29.65625 38.476562 29.890625 37.917969 29.773438 C 37.542969 29.679688 36.820312 29.285156 36.351562 28.910156 C 35.328125 28.09375 35.1875 28.257812 36.121094 29.238281 L 36.75 29.914062 L 36.167969 29.75 C 35.839844 29.65625 35.304688 29.308594 34.953125 28.980469 C 34.578125 28.652344 34.300781 28.488281 34.300781 28.628906 C 34.300781 28.769531 34.464844 29.027344 34.695312 29.191406 C 35.234375 29.65625 35.722656 30.941406 35.535156 31.40625 C 35.441406 31.664062 35.464844 31.757812 35.652344 31.640625 C 35.792969 31.570312 35.957031 31.59375 36.050781 31.734375 C 36.121094 31.851562 36.308594 31.964844 36.445312 31.964844 C 36.585938 31.964844 36.5625 31.804688 36.375 31.570312 C 36.074219 31.21875 36.097656 31.21875 36.585938 31.476562 C 36.867188 31.617188 37.214844 31.6875 37.332031 31.617188 C 37.449219 31.546875 37.777344 31.59375 38.058594 31.734375 C 38.429688 31.941406 38.617188 31.941406 38.804688 31.757812 C 39.152344 31.40625 38.523438 30.964844 38.148438 31.265625 C 38.011719 31.382812 37.730469 31.3125 37.472656 31.125 C 36.9375 30.753906 36.539062 30.683594 36.75 31.035156 C 36.820312 31.148438 36.820312 31.265625 36.703125 31.265625 C 36.375 31.265625 36.003906 30.941406 35.746094 30.449219 C 35.511719 29.984375 35.558594 29.984375 37.378906 30.007812 C 38.757812 30.03125 39.339844 30.148438 39.621094 30.425781 C 39.96875 30.777344 39.945312 30.800781 39.363281 30.800781 C 38.988281 30.800781 38.40625 30.636719 38.035156 30.449219 C 37.402344 30.125 37.007812 30.332031 37.566406 30.683594 C 38.058594 30.988281 40.601562 31.40625 40.601562 31.171875 C 40.601562 30.917969 39.828125 30.191406 39.246094 29.890625 C 38.941406 29.726562 38.734375 29.5625 38.78125 29.492188 C 38.941406 29.351562 40.367188 29.9375 40.367188 30.148438 C 40.367188 30.238281 40.578125 30.332031 40.832031 30.332031 C 41.089844 30.332031 41.300781 30.214844 41.300781 30.101562 C 41.300781 29.960938 41.511719 29.867188 41.765625 29.867188 C 42.023438 29.867188 42.234375 29.773438 42.234375 29.632812 C 42.234375 29.515625 42.628906 29.308594 43.121094 29.191406 C 43.609375 29.050781 44.191406 28.792969 44.449219 28.605469 C 44.707031 28.398438 45.125 28.234375 45.40625 28.234375 C 47.015625 28.210938 50.238281 26.53125 50.539062 25.574219 C 50.609375 25.316406 50.960938 24.804688 51.285156 24.429688 C 51.800781 23.894531 51.824219 23.800781 51.472656 23.800781 C 51.125 23.800781 51.148438 23.683594 51.683594 23.078125 C 52.40625 22.191406 52.3125 22.003906 51.355469 22.492188 C 50.375 23.007812 50.308594 22.960938 50.890625 22.167969 C 51.449219 21.421875 51.332031 20.976562 50.679688 21.375 C 50.46875 21.511719 49.863281 21.863281 49.351562 22.167969 L 48.417969 22.703125 L 49.09375 21.980469 C 49.488281 21.558594 49.675781 21.234375 49.535156 21.234375 C 49.421875 21.234375 48.253906 21.699219 46.96875 22.261719 C 44.964844 23.125 44.636719 23.214844 44.730469 22.84375 C 44.871094 22.308594 44.777344 22.308594 43.773438 22.726562 C 43.328125 22.914062 42.375 23.171875 41.601562 23.332031 C 40.855469 23.472656 39.574219 23.800781 38.734375 24.035156 C 37.847656 24.289062 36.328125 24.5 35.117188 24.523438 C 33.039062 24.570312 33.015625 24.570312 33.015625 24.011719 C 33.015625 23.519531 33.109375 23.449219 33.902344 23.472656 C 34.671875 23.496094 34.789062 23.449219 34.71875 23.007812 C 34.671875 22.679688 34.441406 22.492188 34.066406 22.445312 C 33.738281 22.398438 33.390625 22.261719 33.273438 22.144531 C 33.132812 22.027344 32.550781 21.933594 31.941406 21.933594 C 30.730469 21.933594 29.773438 22.609375 29.492188 23.660156 C 29.351562 24.21875 29.261719 24.265625 28.488281 24.125 C 25.875 23.683594 24.429688 23.285156 22.75 22.539062 C 20.742188 21.652344 20.207031 21.652344 21.046875 22.5625 C 21.488281 23.03125 21.09375 22.914062 18.828125 21.839844 C 16.683594 20.835938 16.101562 20.648438 16.101562 20.953125 Z M 48.394531 22.261719 C 48.089844 23.054688 43.726562 24.804688 42.328125 24.6875 C 41.488281 24.617188 41.648438 24.546875 44.101562 23.730469 C 45.570312 23.238281 47.15625 22.632812 47.601562 22.398438 C 48.601562 21.863281 48.535156 21.863281 48.394531 22.261719 Z M 50.398438 22.375 C 50.398438 22.796875 48.882812 23.777344 47.015625 24.546875 C 45.40625 25.199219 44.871094 25.292969 43.121094 25.316406 C 41.230469 25.316406 40.785156 25.480469 41.882812 25.738281 C 42.234375 25.828125 42.210938 25.851562 41.71875 25.875 C 41.371094 25.875 40.832031 25.808594 40.507812 25.667969 C 40.15625 25.550781 39.898438 25.527344 39.898438 25.644531 C 39.898438 25.761719 40.34375 25.945312 40.902344 26.039062 L 41.882812 26.226562 L 41.066406 26.390625 L 40.25 26.53125 L 41.136719 26.578125 C 41.601562 26.578125 42 26.484375 42 26.367188 C 42 26.226562 42.140625 26.132812 42.304688 26.179688 C 42.582031 26.226562 44.332031 25.828125 45.617188 25.386719 C 47.0625 24.898438 50.375 23.261719 50.285156 23.078125 C 50.214844 22.984375 50.375 22.960938 50.632812 23.03125 C 51.101562 23.148438 51.101562 23.171875 50.703125 23.613281 C 50.214844 24.171875 49.046875 24.78125 47.25 25.457031 C 46.527344 25.714844 45.988281 25.992188 46.058594 26.0625 C 46.175781 26.203125 49.164062 25.082031 49.582031 24.734375 C 49.722656 24.640625 50.074219 24.476562 50.398438 24.382812 L 50.984375 24.21875 L 50.398438 24.851562 C 48.789062 26.601562 44.078125 27.882812 41.417969 27.324219 C 40.691406 27.160156 40.625 27.113281 41.066406 27.066406 C 41.558594 27.019531 41.511719 26.972656 40.832031 26.855469 C 40.367188 26.761719 40.039062 26.578125 40.085938 26.414062 C 40.109375 26.25 39.921875 26.132812 39.691406 26.132812 C 39.082031 26.132812 38.5 25.898438 38.5 25.644531 C 38.5 25.527344 38.734375 25.433594 39.035156 25.433594 C 39.316406 25.433594 39.761719 25.269531 40.015625 25.082031 C 40.4375 24.734375 42.375 24.757812 44.078125 25.105469 C 44.496094 25.199219 44.589844 25.152344 44.496094 24.875 C 44.402344 24.617188 44.472656 24.5 44.753906 24.5 C 44.964844 24.5 46.199219 23.988281 47.484375 23.355469 C 49.863281 22.167969 50.398438 22.003906 50.398438 22.375 Z M 23.261719 23.191406 C 24.941406 23.894531 27.488281 24.5 28.628906 24.5 C 29.421875 24.5 29.445312 24.523438 29.121094 25.011719 C 28.558594 25.851562 27.042969 26.785156 25.921875 26.949219 C 25.222656 27.066406 24.964844 27.042969 25.058594 26.855469 C 25.152344 26.714844 24.964844 26.554688 24.617188 26.460938 L 24.011719 26.320312 L 24.757812 25.851562 C 25.316406 25.503906 25.761719 25.433594 26.367188 25.527344 C 27.019531 25.621094 27.230469 25.574219 27.230469 25.316406 C 27.230469 25.082031 27.042969 25.035156 26.53125 25.128906 C 26.039062 25.222656 25.875 25.199219 25.992188 25.011719 C 26.109375 24.828125 25.921875 24.734375 25.433594 24.734375 C 25.035156 24.734375 24.757812 24.640625 24.851562 24.5 C 24.921875 24.382812 24.523438 24.171875 23.988281 24.011719 C 22.890625 23.730469 21.699219 23.101562 21.699219 22.820312 C 21.699219 22.5625 21.675781 22.5625 23.261719 23.191406 Z M 44.007812 23.308594 C 43.820312 23.589844 40.714844 24.523438 39.875 24.546875 C 39.175781 24.570312 38.964844 24.828125 39.503906 25.035156 C 39.644531 25.105469 39.339844 25.175781 38.78125 25.175781 C 38.078125 25.199219 37.824219 25.292969 37.941406 25.480469 C 38.058594 25.667969 37.824219 25.691406 37.078125 25.574219 C 36.46875 25.480469 36.167969 25.503906 36.351562 25.621094 C 36.5625 25.761719 36.351562 25.875 35.652344 25.96875 C 34.835938 26.085938 34.558594 26.015625 34.136719 25.621094 C 33.832031 25.339844 33.601562 25.035156 33.601562 24.941406 C 33.601562 24.851562 34.207031 24.804688 34.953125 24.851562 C 36.703125 24.941406 39.738281 24.382812 42.582031 23.449219 C 43.703125 23.078125 44.171875 23.03125 44.007812 23.308594 Z M 39.105469 26.414062 C 39.875 26.855469 39.921875 26.949219 39.527344 27.113281 C 39.199219 27.253906 39.246094 27.277344 39.714844 27.183594 C 40.0625 27.113281 40.367188 27.183594 40.414062 27.324219 C 40.460938 27.464844 41.347656 27.625 42.464844 27.695312 C 44.636719 27.835938 46.597656 27.441406 48.578125 26.507812 C 49.1875 26.203125 49.605469 26.085938 49.535156 26.203125 C 49.28125 26.625 46.527344 27.695312 44.964844 28 C 44.078125 28.164062 42.722656 28.234375 41.929688 28.164062 C 40.226562 28.023438 38.3125 27.324219 38.78125 27.019531 C 39.011719 26.878906 38.988281 26.832031 38.6875 26.832031 C 38.148438 26.832031 37.101562 26.34375 37.101562 26.085938 C 37.101562 25.714844 38.242188 25.898438 39.105469 26.414062 Z M 37.519531 26.832031 C 38.570312 27.535156 40.808594 28.464844 41.441406 28.464844 C 41.625 28.464844 41.742188 28.558594 41.648438 28.675781 C 41.578125 28.816406 41.882812 28.863281 42.398438 28.792969 C 43.191406 28.699219 43.238281 28.722656 42.699219 28.933594 C 42.28125 29.121094 41.835938 29.121094 41.066406 28.933594 C 40.34375 28.746094 39.992188 28.746094 39.945312 28.910156 C 39.808594 29.328125 38.429688 29.191406 37.566406 28.675781 C 37.125 28.398438 36.285156 27.789062 35.699219 27.324219 L 34.671875 26.484375 L 35.351562 26.34375 C 36.445312 26.109375 36.46875 26.109375 37.519531 26.832031 Z M 29.351562 27.113281 C 29.191406 27.578125 26.53125 28.933594 25.785156 28.933594 L 25.082031 28.933594 L 25.828125 28.464844 C 26.25 28.210938 26.878906 27.929688 27.230469 27.859375 C 27.601562 27.765625 28.140625 27.511719 28.464844 27.277344 C 29.144531 26.785156 29.46875 26.714844 29.351562 27.113281 Z M 28.699219 28.304688 C 28.699219 28.652344 26.925781 29.5625 26.691406 29.351562 C 26.601562 29.261719 28.070312 28.257812 28.652344 28.023438 C 28.675781 28 28.699219 28.140625 28.699219 28.304688 Z M 30.636719 28.535156 C 30.824219 28.839844 31.035156 29.328125 31.078125 29.65625 C 31.148438 30.214844 31.058594 30.261719 29.703125 30.125 C 29.238281 30.078125 29.351562 29.679688 29.867188 29.515625 C 30.125 29.445312 30.332031 29.261719 30.332031 29.144531 C 30.332031 29.003906 30.171875 29.003906 29.9375 29.121094 C 29.703125 29.238281 29.097656 29.398438 28.582031 29.492188 C 27.71875 29.632812 27.671875 29.609375 28.117188 29.308594 C 28.375 29.097656 28.699219 28.863281 28.816406 28.746094 C 29.144531 28.464844 29.960938 28.023438 30.125 28 C 30.214844 28 30.449219 28.234375 30.636719 28.535156 Z M 33.039062 29.9375 C 32.96875 30.214844 32.898438 30.730469 32.898438 31.078125 C 32.898438 31.546875 32.808594 31.6875 32.550781 31.59375 C 32.339844 31.5 32.199219 31.59375 32.199219 31.804688 C 32.199219 32.011719 32.105469 32.222656 31.988281 32.316406 C 31.851562 32.386719 31.828125 32.105469 31.898438 31.617188 C 31.964844 31.171875 31.921875 30.683594 31.78125 30.519531 C 31.640625 30.355469 31.476562 29.820312 31.382812 29.328125 L 31.195312 28.421875 L 32.199219 28.933594 C 33.015625 29.351562 33.15625 29.515625 33.039062 29.9375 Z M 41.183594 29.398438 C 41.535156 29.5625 41.417969 29.609375 40.648438 29.609375 C 40.039062 29.632812 39.691406 29.539062 39.785156 29.398438 C 39.945312 29.121094 40.53125 29.121094 41.183594 29.398438 Z M 33.808594 30.824219 C 33.949219 31.242188 34.066406 31.875 34.066406 32.222656 C 34.066406 32.597656 34.183594 32.898438 34.324219 32.898438 C 34.441406 32.898438 34.488281 32.992188 34.417969 33.132812 C 34.347656 33.25 33.972656 33.367188 33.578125 33.367188 C 33.039062 33.367188 32.898438 33.273438 32.898438 32.875 C 32.898438 32.597656 32.992188 32.480469 33.15625 32.550781 C 33.320312 32.667969 33.34375 32.292969 33.25 31.40625 C 33.0625 29.960938 33.390625 29.632812 33.808594 30.824219 Z M 32.574219 32.527344 C 32.503906 32.851562 32.527344 33.15625 32.644531 33.226562 C 32.898438 33.390625 32.921875 35 32.644531 35 C 32.550781 35 32.363281 34.835938 32.246094 34.625 C 32.105469 34.371094 31.988281 34.324219 31.875 34.511719 C 31.617188 34.90625 31.195312 34.8125 31.359375 34.394531 C 31.453125 34.113281 31.40625 34.042969 31.148438 34.160156 C 30.964844 34.230469 30.800781 34.207031 30.800781 34.089844 C 30.800781 33.972656 31.011719 33.832031 31.265625 33.761719 C 31.523438 33.691406 31.898438 33.273438 32.082031 32.808594 C 32.480469 31.851562 32.785156 31.6875 32.574219 32.527344 Z M 35.328125 32.945312 C 35.792969 33.878906 35.792969 34.160156 35.328125 33.972656 C 35.09375 33.878906 34.8125 33.996094 34.625 34.230469 C 34.324219 34.625 34.324219 34.625 34.300781 34.183594 C 34.300781 33.832031 34.230469 33.808594 34.019531 34.019531 C 33.625 34.417969 33.109375 34.371094 33.273438 33.972656 C 33.34375 33.785156 33.691406 33.601562 34.019531 33.554688 C 34.511719 33.507812 34.671875 33.34375 34.71875 32.828125 C 34.8125 32.035156 34.882812 32.035156 35.328125 32.945312 Z M 35.328125 32.945312 " style=" stroke:none;fill-rule:nonzero;fill:rgb(0%,0%,0%);fill-opacity:1;"/><path d="M 25.457031 26.015625 C 24.851562 26.226562 24.757812 26.320312 25.058594 26.4375 C 25.269531 26.53125 25.714844 26.4375 26.039062 26.226562 C 26.972656 25.597656 26.785156 25.527344 25.457031 26.015625 Z M 25.457031 26.015625 " style=" stroke:none;fill-rule:nonzero;fill:rgb(0%,0%,0%);fill-opacity:1;"/><path d="M 35.839844 26.832031 C 36.421875 27.441406 39.082031 28.886719 39.410156 28.746094 C 39.667969 28.652344 39.597656 28.558594 39.175781 28.398438 C 38.875 28.257812 37.941406 27.789062 37.101562 27.347656 C 36.261719 26.902344 35.699219 26.671875 35.839844 26.832031 Z M 35.839844 26.832031 " style=" stroke:none;fill-rule:nonzero;fill:rgb(0%,0%,0%);fill-opacity:1;"/><path d="M 14.117188 23.332031 C 13.90625 23.683594 15.308594 24.851562 16.519531 25.292969 C 17.171875 25.550781 17.6875 25.851562 17.664062 25.992188 C 17.640625 26.109375 18.082031 26.34375 18.644531 26.507812 C 19.4375 26.761719 19.855469 26.761719 20.671875 26.554688 C 21.234375 26.390625 21.699219 26.179688 21.699219 26.0625 C 21.699219 25.945312 21.511719 25.921875 21.304688 25.992188 C 20.511719 26.296875 18.945312 26.414062 18.550781 26.203125 C 18.222656 26.015625 18.339844 25.921875 19.15625 25.785156 C 19.832031 25.667969 20.019531 25.574219 19.714844 25.480469 C 19.460938 25.433594 19.15625 25.292969 19.015625 25.199219 C 18.898438 25.082031 18.058594 24.734375 17.171875 24.40625 C 16.285156 24.058594 15.398438 23.660156 15.214844 23.519531 C 14.792969 23.171875 14.28125 23.078125 14.117188 23.332031 Z M 17.382812 24.78125 C 18.875 25.292969 19.484375 25.667969 18.828125 25.667969 C 18.269531 25.667969 16.03125 24.78125 15.492188 24.359375 C 15.050781 24.011719 15.050781 23.988281 15.515625 24.148438 C 15.773438 24.242188 16.613281 24.523438 17.382812 24.78125 Z M 17.382812 24.78125 " style=" stroke:none;fill-rule:nonzero;fill:rgb(0%,0%,0%);fill-opacity:1;"/><path d="M 32.667969 27.742188 C 32.667969 28.046875 33.855469 29.445312 34.019531 29.308594 C 34.066406 29.238281 33.808594 28.816406 33.390625 28.351562 C 32.992188 27.882812 32.667969 27.625 32.667969 27.742188 Z M 32.667969 27.742188 " style=" stroke:none;fill-rule:nonzero;fill:rgb(0%,0%,0%);fill-opacity:1;"/><path d="M 10.035156 36.867188 C 10.035156 37.261719 10.195312 37.332031 11.011719 37.332031 L 11.992188 37.332031 L 10.898438 38.453125 C 10.265625 39.105469 9.800781 39.785156 9.800781 40.085938 C 9.800781 40.578125 9.894531 40.601562 11.550781 40.601562 C 13.136719 40.601562 13.300781 40.554688 13.300781 40.132812 C 13.300781 39.738281 13.136719 39.667969 12.34375 39.667969 L 11.386719 39.667969 L 12.460938 38.40625 C 14 36.609375 13.929688 36.398438 11.785156 36.398438 C 10.195312 36.398438 10.035156 36.445312 10.035156 36.867188 Z M 10.035156 36.867188 " style=" stroke:none;fill-rule:nonzero;fill:rgb(0%,0%,0%);fill-opacity:1;"/><path d="M 23.332031 38.5 C 23.332031 40.4375 23.355469 40.601562 23.800781 40.601562 C 24.058594 40.601562 24.265625 40.484375 24.265625 40.367188 C 24.265625 40.226562 24.429688 40.226562 24.6875 40.390625 C 25.433594 40.855469 26.296875 40.460938 26.601562 39.550781 C 27.019531 38.265625 26.15625 37.191406 24.964844 37.496094 C 24.476562 37.636719 24.453125 37.589844 24.59375 37.03125 C 24.734375 36.445312 24.6875 36.398438 24.035156 36.398438 L 23.332031 36.398438 Z M 25.550781 38.964844 C 25.550781 39.386719 25.410156 39.574219 25.035156 39.621094 C 24.570312 39.691406 24.5 39.597656 24.5 38.964844 C 24.5 38.335938 24.570312 38.242188 25.035156 38.3125 C 25.410156 38.359375 25.550781 38.546875 25.550781 38.964844 Z M 25.550781 38.964844 " style=" stroke:none;fill-rule:nonzero;fill:rgb(0%,0%,0%);fill-opacity:1;"/><path d="M 27.300781 36.773438 C 27.300781 37.03125 27.488281 37.101562 27.929688 37.054688 C 28.839844 36.960938 28.910156 36.398438 28.023438 36.398438 C 27.535156 36.398438 27.300781 36.515625 27.300781 36.773438 Z M 27.300781 36.773438 " style=" stroke:none;fill-rule:nonzero;fill:rgb(0%,0%,0%);fill-opacity:1;"/><path d="M 35.117188 38.078125 C 34.648438 39.011719 34.160156 39.875 34.042969 39.992188 C 33.671875 40.390625 33.808594 40.601562 34.488281 40.601562 C 34.976562 40.601562 35.234375 40.4375 35.421875 40.015625 C 35.628906 39.550781 35.863281 39.433594 36.492188 39.433594 C 37.148438 39.433594 37.308594 39.527344 37.425781 40.015625 C 37.542969 40.484375 37.730469 40.601562 38.265625 40.601562 L 38.941406 40.601562 L 38.195312 38.5 C 37.472656 36.445312 37.425781 36.398438 36.703125 36.398438 C 36.027344 36.398438 35.910156 36.515625 35.117188 38.078125 Z M 36.914062 37.917969 C 37.007812 38.40625 36.9375 38.5 36.46875 38.5 C 35.933594 38.5 35.933594 38.476562 36.308594 37.917969 C 36.515625 37.589844 36.726562 37.332031 36.75 37.332031 C 36.773438 37.332031 36.867188 37.589844 36.914062 37.917969 Z M 36.914062 37.917969 " style=" stroke:none;fill-rule:nonzero;fill:rgb(0%,0%,0%);fill-opacity:1;"/><path d="M 39.433594 36.75 C 39.433594 36.960938 39.644531 37.101562 40.015625 37.101562 C 40.390625 37.101562 40.601562 36.960938 40.601562 36.75 C 40.601562 36.539062 40.390625 36.398438 40.015625 36.398438 C 39.644531 36.398438 39.433594 36.539062 39.433594 36.75 Z M 39.433594 36.75 " style=" stroke:none;fill-rule:nonzero;fill:rgb(0%,0%,0%);fill-opacity:1;"/><path d="M 14.769531 37.496094 C 14.464844 37.542969 14.234375 37.753906 14.234375 37.941406 C 14.234375 38.21875 14.421875 38.242188 15.074219 38.125 C 15.75 38.011719 15.914062 38.035156 15.820312 38.289062 C 15.773438 38.453125 15.398438 38.664062 15.003906 38.757812 C 14.070312 38.941406 13.765625 39.152344 13.765625 39.644531 C 13.765625 40.203125 14.234375 40.601562 14.863281 40.601562 C 15.421875 40.601562 15.609375 40.015625 15.121094 39.828125 C 14.886719 39.738281 14.910156 39.644531 15.167969 39.457031 C 15.726562 39.058594 15.867188 39.152344 15.867188 39.898438 C 15.867188 40.484375 15.960938 40.601562 16.449219 40.601562 C 17.011719 40.601562 17.035156 40.53125 17.035156 39.199219 C 17.035156 37.894531 16.988281 37.777344 16.425781 37.566406 C 15.820312 37.332031 15.679688 37.332031 14.769531 37.496094 Z M 14.769531 37.496094 " style=" stroke:none;fill-rule:nonzero;fill:rgb(0%,0%,0%);fill-opacity:1;"/><path d="M 19.507812 37.496094 C 19.414062 37.589844 18.992188 37.636719 18.550781 37.613281 L 17.734375 37.542969 L 17.734375 38.710938 C 17.734375 39.339844 17.664062 40.015625 17.59375 40.226562 C 17.476562 40.507812 17.617188 40.601562 18.152344 40.601562 C 18.851562 40.601562 18.875 40.554688 18.945312 39.503906 C 19.039062 37.964844 19.601562 37.871094 19.601562 39.410156 C 19.601562 40.507812 19.648438 40.601562 20.160156 40.601562 C 20.671875 40.601562 20.742188 40.484375 20.8125 39.503906 C 20.90625 37.964844 21.464844 37.871094 21.464844 39.410156 C 21.464844 40.53125 21.511719 40.601562 22.050781 40.601562 C 22.609375 40.601562 22.632812 40.53125 22.632812 39.199219 C 22.632812 38.058594 22.5625 37.777344 22.167969 37.566406 C 21.839844 37.378906 21.558594 37.378906 21.234375 37.566406 C 20.90625 37.730469 20.625 37.753906 20.324219 37.566406 C 19.785156 37.285156 19.714844 37.285156 19.507812 37.496094 Z M 19.507812 37.496094 " style=" stroke:none;fill-rule:nonzero;fill:rgb(0%,0%,0%);fill-opacity:1;"/><path d="M 29.9375 37.496094 C 29.632812 37.542969 29.398438 37.753906 29.398438 37.941406 C 29.398438 38.21875 29.585938 38.242188 30.238281 38.125 C 30.917969 38.011719 31.078125 38.035156 30.988281 38.289062 C 30.941406 38.476562 30.613281 38.640625 30.285156 38.6875 C 29.421875 38.78125 28.769531 39.574219 29.074219 40.085938 C 29.398438 40.601562 30.566406 40.761719 30.566406 40.273438 C 30.566406 40.085938 30.425781 39.875 30.285156 39.828125 C 30.054688 39.738281 30.078125 39.644531 30.332031 39.457031 C 30.894531 39.058594 31.035156 39.152344 31.035156 39.898438 C 31.035156 40.484375 31.125 40.601562 31.617188 40.601562 C 32.175781 40.601562 32.199219 40.53125 32.199219 39.199219 C 32.199219 37.449219 31.804688 37.148438 29.9375 37.496094 Z M 29.9375 37.496094 " style=" stroke:none;fill-rule:nonzero;fill:rgb(0%,0%,0%);fill-opacity:1;"/><path d="M 42.746094 37.542969 C 42.582031 37.636719 42.1875 37.683594 41.859375 37.613281 C 41.347656 37.519531 41.300781 37.566406 41.300781 38.523438 C 41.300781 39.082031 41.230469 39.785156 41.160156 40.0625 C 41.019531 40.53125 41.089844 40.601562 41.71875 40.601562 C 42.304688 40.601562 42.398438 40.53125 42.304688 40.132812 C 42.09375 39.363281 42.421875 38.5 42.933594 38.5 C 43.285156 38.5 43.398438 38.335938 43.398438 37.917969 C 43.398438 37.308594 43.261719 37.214844 42.746094 37.542969 Z M 42.746094 37.542969 " style=" stroke:none;fill-rule:nonzero;fill:rgb(0%,0%,0%);fill-opacity:1;"/><path d="M 48.371094 37.519531 C 47.996094 37.566406 47.808594 37.800781 47.691406 38.40625 C 47.53125 39.292969 47.132812 39.480469 47.132812 38.664062 C 47.109375 37.308594 45.78125 37.125 45.453125 38.453125 C 45.21875 39.363281 44.800781 39.222656 44.800781 38.242188 C 44.800781 37.683594 44.707031 37.566406 44.191406 37.566406 C 43.726562 37.566406 43.632812 37.660156 43.75 38.011719 C 43.820312 38.242188 44.007812 38.898438 44.171875 39.457031 C 44.402344 40.296875 44.589844 40.507812 45.078125 40.554688 C 45.59375 40.625 45.6875 40.53125 45.828125 39.808594 C 46.058594 38.640625 46.339844 38.59375 46.527344 39.667969 C 46.644531 40.4375 46.761719 40.601562 47.226562 40.601562 C 47.671875 40.601562 47.878906 40.34375 48.417969 39.082031 C 48.765625 38.242188 49.023438 37.519531 48.976562 37.496094 C 48.929688 37.449219 48.648438 37.472656 48.371094 37.519531 Z M 48.371094 37.519531 " style=" stroke:none;fill-rule:nonzero;fill:rgb(0%,0%,0%);fill-opacity:1;"/><path d="M 50.003906 37.566406 C 49.140625 37.917969 49.351562 38.3125 50.308594 38.125 C 51.378906 37.917969 51.332031 38.5 50.238281 38.78125 C 49.234375 39.035156 48.90625 39.503906 49.234375 40.132812 C 49.421875 40.484375 49.675781 40.601562 50.097656 40.554688 C 50.773438 40.484375 51.148438 39.898438 50.539062 39.898438 C 50.050781 39.898438 50.050781 39.527344 50.539062 39.339844 C 51.171875 39.105469 51.261719 39.175781 51.148438 39.898438 C 51.054688 40.53125 51.125 40.601562 51.660156 40.601562 C 52.242188 40.601562 52.265625 40.554688 52.265625 39.199219 C 52.265625 38.078125 52.171875 37.777344 51.824219 37.566406 C 51.285156 37.285156 50.703125 37.285156 50.003906 37.566406 Z M 50.003906 37.566406 " style=" stroke:none;fill-rule:nonzero;fill:rgb(0%,0%,0%);fill-opacity:1;"/><path d="M 55.601562 37.519531 C 55.230469 37.566406 54.996094 37.847656 54.808594 38.523438 C 54.507812 39.527344 54.203125 39.480469 54.085938 38.382812 C 54.039062 37.824219 53.898438 37.660156 53.386719 37.613281 L 52.757812 37.542969 L 53.199219 38.875 C 53.828125 40.691406 53.808594 41.066406 53.058594 41.066406 C 52.617188 41.066406 52.476562 41.183594 52.546875 41.464844 C 52.664062 42.046875 53.945312 42.140625 54.390625 41.601562 C 54.785156 41.136719 56.351562 37.589844 56.210938 37.496094 C 56.164062 37.449219 55.882812 37.472656 55.601562 37.519531 Z M 55.601562 37.519531 " style=" stroke:none;fill-rule:nonzero;fill:rgb(0%,0%,0%);fill-opacity:1;"/><path d="M 57.121094 37.589844 C 56.558594 37.894531 56.582031 38.570312 57.167969 39.082031 C 57.796875 39.667969 57.75 39.96875 57.050781 39.808594 C 56.582031 39.691406 56.464844 39.738281 56.464844 40.132812 C 56.464844 40.53125 56.628906 40.601562 57.351562 40.601562 C 58.871094 40.601562 59.265625 39.714844 58.171875 38.804688 L 57.515625 38.289062 L 58.285156 38.265625 C 58.753906 38.265625 59.035156 38.148438 59.035156 37.941406 C 59.035156 37.355469 57.867188 37.148438 57.121094 37.589844 Z M 57.121094 37.589844 " style=" stroke:none;fill-rule:nonzero;fill:rgb(0%,0%,0%);fill-opacity:1;"/><path d="M 27.253906 39.082031 L 27.183594 40.601562 L 27.835938 40.601562 C 28.464844 40.601562 28.464844 40.578125 28.464844 39.082031 C 28.464844 37.636719 28.441406 37.566406 27.90625 37.566406 C 27.371094 37.566406 27.347656 37.660156 27.253906 39.082031 Z M 27.253906 39.082031 " style=" stroke:none;fill-rule:nonzero;fill:rgb(0%,0%,0%);fill-opacity:1;"/><path d="M 39.433594 38.359375 C 39.433594 38.78125 39.363281 39.480469 39.292969 39.898438 C 39.152344 40.601562 39.175781 40.625 39.761719 40.554688 C 40.367188 40.484375 40.414062 40.414062 40.484375 39.011719 C 40.578125 37.613281 40.578125 37.566406 40.015625 37.566406 C 39.503906 37.566406 39.433594 37.683594 39.433594 38.359375 Z M 39.433594 38.359375 " style=" stroke:none;fill-rule:nonzero;fill:rgb(0%,0%,0%);fill-opacity:1;"/><path d="M 22.46875 44.03125 C 29.515625 44.078125 40.949219 44.078125 47.902344 44.03125 C 54.855469 44.007812 49.117188 43.984375 35.117188 43.984375 C 21.117188 43.984375 15.445312 44.007812 22.46875 44.03125 Z M 22.46875 44.03125 " style=" stroke:none;fill-rule:nonzero;fill:rgb(0%,0%,0%);fill-opacity:1;"/><path d="M 12.832031 45.734375 C 12.832031 45.851562 13.066406 45.964844 13.324219 45.964844 C 13.789062 45.964844 13.8125 46.058594 13.648438 47.25 C 13.535156 48.324219 13.558594 48.535156 13.859375 48.535156 C 14.117188 48.535156 14.234375 48.207031 14.28125 47.296875 C 14.351562 46.246094 14.421875 46.082031 14.886719 46.011719 C 15.914062 45.851562 15.375 45.5 14.117188 45.5 C 13.417969 45.5 12.832031 45.59375 12.832031 45.734375 Z M 12.832031 45.734375 " style=" stroke:none;fill-rule:nonzero;fill:rgb(0%,0%,0%);fill-opacity:1;"/><path d="M 20.578125 47.015625 C 20.535156 48.253906 20.578125 48.535156 20.882812 48.535156 C 21.140625 48.535156 21.234375 48.253906 21.234375 47.414062 L 21.234375 46.316406 L 21.957031 47.414062 C 22.820312 48.742188 23.332031 48.859375 23.332031 47.738281 C 23.332031 47.320312 23.402344 46.621094 23.472656 46.222656 C 23.589844 45.664062 23.542969 45.5 23.261719 45.5 C 22.984375 45.5 22.867188 45.78125 22.820312 46.597656 L 22.75 47.714844 L 22.097656 46.597656 C 21.722656 45.964844 21.28125 45.5 21.046875 45.5 C 20.695312 45.5 20.625 45.757812 20.578125 47.015625 Z M 20.578125 47.015625 " style=" stroke:none;fill-rule:nonzero;fill:rgb(0%,0%,0%);fill-opacity:1;"/><path d="M 30.054688 47.015625 C 30.660156 48.558594 31.058594 48.859375 31.5 48.113281 C 31.734375 47.738281 31.734375 47.738281 31.964844 48.113281 C 32.410156 48.835938 32.785156 48.578125 33.53125 47.015625 C 34.160156 45.734375 34.207031 45.5 33.878906 45.5 C 33.625 45.5 33.296875 45.941406 32.96875 46.738281 C 32.574219 47.714844 32.433594 47.855469 32.292969 47.507812 C 32.199219 47.273438 32.246094 46.738281 32.386719 46.363281 C 32.714844 45.5 32.527344 45.195312 32.058594 45.828125 C 31.78125 46.222656 31.734375 46.246094 31.734375 45.898438 C 31.734375 45.6875 31.570312 45.5 31.382812 45.5 C 30.964844 45.5 30.964844 45.523438 31.265625 46.339844 C 31.523438 46.992188 31.359375 47.925781 31.058594 47.714844 C 30.941406 47.671875 30.730469 47.132812 30.566406 46.550781 C 30.355469 45.804688 30.148438 45.5 29.867188 45.5 C 29.46875 45.5 29.492188 45.640625 30.054688 47.015625 Z M 30.054688 47.015625 " style=" stroke:none;fill-rule:nonzero;fill:rgb(0%,0%,0%);fill-opacity:1;"/><path d="M 47.179688 47.015625 C 46.597656 48.207031 46.503906 48.535156 46.785156 48.535156 C 46.96875 48.535156 47.273438 48.277344 47.414062 47.949219 C 47.578125 47.578125 47.855469 47.367188 48.230469 47.367188 C 48.601562 47.367188 48.859375 47.554688 49 47.949219 C 49.234375 48.558594 49.699219 48.742188 49.699219 48.230469 C 49.699219 48.089844 49.488281 47.414062 49.257812 46.785156 C 48.625 45.078125 48.136719 45.148438 47.179688 47.015625 Z M 47.179688 47.015625 " style=" stroke:none;fill-rule:nonzero;fill:rgb(0%,0%,0%);fill-opacity:1;"/><path d="M 44.894531 46.222656 C 44.800781 46.363281 44.707031 46.945312 44.660156 47.507812 C 44.613281 48.277344 44.683594 48.535156 44.941406 48.535156 C 45.21875 48.535156 45.382812 47.878906 45.335938 46.714844 C 45.3125 46.574219 45.40625 46.433594 45.546875 46.433594 C 45.664062 46.433594 45.6875 46.316406 45.617188 46.199219 C 45.429688 45.898438 45.101562 45.898438 44.894531 46.222656 Z M 44.894531 46.222656 " style=" stroke:none;fill-rule:nonzero;fill:rgb(0%,0%,0%);fill-opacity:1;"/><path d="M 50.46875 46.152344 C 50.167969 46.339844 50.097656 46.691406 50.144531 47.761719 C 50.167969 48.71875 50.632812 48.789062 50.632812 47.832031 C 50.632812 47.4375 50.75 47.132812 50.890625 47.132812 C 51.078125 47.132812 51.078125 47.015625 50.867188 46.785156 C 50.65625 46.550781 50.65625 46.433594 50.84375 46.433594 C 50.984375 46.433594 51.101562 46.316406 51.101562 46.199219 C 51.101562 45.921875 50.867188 45.898438 50.46875 46.152344 Z M 50.46875 46.152344 " style=" stroke:none;fill-rule:nonzero;fill:rgb(0%,0%,0%);fill-opacity:1;"/><path d="M 15.398438 47.367188 C 15.398438 48.601562 15.773438 49 15.914062 47.878906 C 15.960938 47.507812 16.125 47.25 16.332031 47.25 C 16.589844 47.25 16.660156 47.4375 16.613281 47.925781 C 16.566406 48.371094 16.636719 48.558594 16.847656 48.488281 C 17.011719 48.417969 17.148438 48.019531 17.148438 47.578125 C 17.148438 46.851562 17.078125 46.785156 16.496094 46.785156 C 16.078125 46.808594 15.890625 46.714844 15.960938 46.503906 C 16.03125 46.339844 15.9375 46.199219 15.75 46.199219 C 15.492188 46.199219 15.398438 46.503906 15.398438 47.367188 Z M 15.398438 47.367188 " style=" stroke:none;fill-rule:nonzero;fill:rgb(0%,0%,0%);fill-opacity:1;"/><path d="M 42 46.644531 C 41.511719 47.601562 42.023438 48.535156 43.027344 48.535156 C 44.03125 48.535156 44.730469 47.15625 44.054688 46.480469 C 43.585938 46.011719 42.28125 46.128906 42 46.644531 Z M 43.867188 47.226562 C 43.867188 47.761719 43.167969 48.183594 42.746094 47.925781 C 42.210938 47.578125 42.164062 47.25 42.582031 46.808594 C 42.863281 46.527344 43.074219 46.503906 43.421875 46.667969 C 43.65625 46.808594 43.867188 47.0625 43.867188 47.226562 Z M 43.867188 47.226562 " style=" stroke:none;fill-rule:nonzero;fill:rgb(0%,0%,0%);fill-opacity:1;"/><path d="M 17.757812 46.992188 C 17.148438 47.738281 17.941406 48.789062 18.808594 48.417969 C 19.203125 48.230469 19.179688 48.207031 18.621094 48.113281 C 17.804688 48.019531 17.757812 47.601562 18.574219 47.601562 C 19.015625 47.601562 19.15625 47.484375 19.085938 47.179688 C 18.992188 46.667969 18.128906 46.550781 17.757812 46.992188 Z M 17.757812 46.992188 " style=" stroke:none;fill-rule:nonzero;fill:rgb(0%,0%,0%);fill-opacity:1;"/><path d="M 24.058594 46.992188 C 23.449219 47.714844 24.242188 48.789062 25.105469 48.417969 C 25.527344 48.230469 25.527344 48.230469 25.082031 48.113281 C 24.289062 47.949219 24.125 47.601562 24.828125 47.601562 C 25.316406 47.601562 25.457031 47.507812 25.386719 47.179688 C 25.292969 46.667969 24.429688 46.550781 24.058594 46.992188 Z M 24.058594 46.992188 " style=" stroke:none;fill-rule:nonzero;fill:rgb(0%,0%,0%);fill-opacity:1;"/><path d="M 25.667969 46.875 C 25.667969 47.273438 26.179688 48.535156 26.34375 48.535156 C 26.460938 48.535156 26.648438 48.300781 26.785156 47.996094 L 27.042969 47.484375 L 27.207031 47.996094 C 27.277344 48.300781 27.441406 48.535156 27.535156 48.535156 C 27.742188 48.535156 28.464844 47.226562 28.464844 46.851562 C 28.464844 46.480469 28.070312 46.667969 27.8125 47.179688 L 27.558594 47.714844 L 27.394531 47.179688 C 27.207031 46.550781 26.832031 46.503906 26.671875 47.132812 C 26.601562 47.390625 26.460938 47.601562 26.34375 47.601562 C 26.226562 47.601562 26.132812 47.390625 26.132812 47.132812 C 26.132812 46.875 26.039062 46.667969 25.898438 46.667969 C 25.785156 46.667969 25.667969 46.761719 25.667969 46.875 Z M 25.667969 46.875 " style=" stroke:none;fill-rule:nonzero;fill:rgb(0%,0%,0%);fill-opacity:1;"/><path d="M 34.300781 47.367188 C 34.300781 47.738281 34.300781 48.136719 34.277344 48.230469 C 34.277344 48.324219 34.371094 48.441406 34.511719 48.488281 C 34.671875 48.535156 34.765625 48.207031 34.765625 47.625 C 34.765625 47.085938 34.671875 46.667969 34.535156 46.667969 C 34.417969 46.667969 34.300781 46.96875 34.300781 47.367188 Z M 34.300781 47.367188 " style=" stroke:none;fill-rule:nonzero;fill:rgb(0%,0%,0%);fill-opacity:1;"/><path d="M 35.164062 47.4375 C 35.117188 47.855469 35.09375 48.253906 35.164062 48.371094 C 35.351562 48.695312 35.699219 48.277344 35.699219 47.691406 C 35.699219 47.34375 35.839844 47.132812 36.050781 47.132812 C 36.285156 47.132812 36.398438 47.367188 36.398438 47.832031 C 36.398438 48.207031 36.515625 48.535156 36.65625 48.535156 C 36.796875 48.535156 36.867188 48.160156 36.820312 47.648438 C 36.75 46.851562 36.679688 46.785156 36.027344 46.738281 C 35.351562 46.714844 35.257812 46.785156 35.164062 47.4375 Z M 35.164062 47.4375 " style=" stroke:none;fill-rule:nonzero;fill:rgb(0%,0%,0%);fill-opacity:1;"/><path d="M 37.472656 47.039062 C 37.261719 47.226562 37.101562 47.484375 37.101562 47.601562 C 37.101562 47.996094 37.824219 48.511719 38.195312 48.371094 C 38.453125 48.277344 38.523438 48.300781 38.40625 48.488281 C 38.3125 48.648438 38.035156 48.765625 37.777344 48.765625 C 37.542969 48.765625 37.332031 48.859375 37.332031 49 C 37.332031 49.257812 38.035156 49.304688 38.59375 49.09375 C 38.875 49 38.964844 48.625 38.964844 47.808594 C 38.964844 46.761719 38.921875 46.667969 38.40625 46.667969 C 38.078125 46.667969 37.660156 46.828125 37.472656 47.039062 Z M 38.5 47.460938 C 38.5 47.925781 38.058594 48.183594 37.753906 47.878906 C 37.613281 47.738281 37.589844 47.53125 37.660156 47.390625 C 37.894531 47.015625 38.5 47.085938 38.5 47.460938 Z M 38.5 47.460938 " style=" stroke:none;fill-rule:nonzero;fill:rgb(0%,0%,0%);fill-opacity:1;"/><path d="M 39.503906 47.0625 C 39.410156 47.273438 39.480469 47.507812 39.621094 47.554688 C 40.039062 47.691406 39.945312 48.019531 39.503906 48.136719 C 39.105469 48.230469 39.105469 48.230469 39.503906 48.417969 C 40.132812 48.671875 40.554688 48.183594 40.179688 47.601562 C 39.945312 47.203125 39.945312 47.132812 40.25 47.132812 C 40.4375 47.132812 40.601562 47.015625 40.601562 46.898438 C 40.601562 46.503906 39.667969 46.644531 39.503906 47.0625 Z M 39.503906 47.0625 " style=" stroke:none;fill-rule:nonzero;fill:rgb(0%,0%,0%);fill-opacity:1;"/><path d="M 51.308594 47.296875 C 51.285156 47.601562 51.261719 47.949219 51.238281 48.113281 C 51.214844 48.253906 51.355469 48.417969 51.519531 48.464844 C 51.707031 48.535156 51.800781 48.324219 51.800781 47.855469 C 51.800781 47.460938 51.917969 47.132812 52.035156 47.132812 C 52.171875 47.132812 52.265625 47.039062 52.265625 46.921875 C 52.265625 46.785156 52.058594 46.714844 51.800781 46.738281 C 51.496094 46.761719 51.308594 46.945312 51.308594 47.296875 Z M 51.308594 47.296875 " style=" stroke:none;fill-rule:nonzero;fill:rgb(0%,0%,0%);fill-opacity:1;"/><path d="M 52.5 47.601562 C 52.5 48.113281 52.617188 48.535156 52.734375 48.535156 C 52.875 48.535156 52.964844 48.113281 52.964844 47.601562 C 52.964844 47.085938 52.875 46.667969 52.734375 46.667969 C 52.617188 46.667969 52.5 47.085938 52.5 47.601562 Z M 52.5 47.601562 " style=" stroke:none;fill-rule:nonzero;fill:rgb(0%,0%,0%);fill-opacity:1;"/><path d="M 53.527344 46.992188 C 53.269531 47.671875 53.550781 48.417969 54.085938 48.488281 C 54.367188 48.535156 54.601562 48.464844 54.601562 48.324219 C 54.601562 48.183594 54.4375 48.066406 54.25 48.066406 C 54.0625 48.066406 53.898438 47.855469 53.898438 47.601562 C 53.898438 47.273438 54.0625 47.132812 54.390625 47.132812 C 54.648438 47.132812 54.785156 47.015625 54.714844 46.898438 C 54.507812 46.550781 53.667969 46.621094 53.527344 46.992188 Z M 53.527344 46.992188 " style=" stroke:none;fill-rule:nonzero;fill:rgb(0%,0%,0%);fill-opacity:1;"/><path d="M 55.160156 46.945312 C 55.042969 47.132812 55.160156 47.15625 55.488281 47.085938 C 55.765625 46.992188 56 47.015625 56 47.132812 C 56 47.226562 55.742188 47.390625 55.417969 47.460938 C 54.761719 47.625 54.625 48.230469 55.183594 48.464844 C 55.648438 48.625 55.953125 48.324219 55.558594 48.089844 C 55.324219 47.925781 55.347656 47.855469 55.625 47.761719 C 55.882812 47.648438 56 47.738281 56 48.066406 C 56 48.324219 56.117188 48.535156 56.234375 48.535156 C 56.375 48.535156 56.464844 48.113281 56.464844 47.601562 C 56.464844 46.761719 56.398438 46.667969 55.90625 46.667969 C 55.578125 46.667969 55.253906 46.785156 55.160156 46.945312 Z M 55.160156 46.945312 " style=" stroke:none;fill-rule:nonzero;fill:rgb(0%,0%,0%);fill-opacity:1;"/></g></svg>