<svg xmlns="http://www.w3.org/2000/svg" id="Ebene_1" width="198" height="198" x="0" y="0" enable-background="new 0 0 198.4 198.4" version="1.1" viewBox="0 0 198.4 198.4" xml:space="preserve"><switch><g><g><rect width="198.4" height="198.4" x="-.3" y="0" fill="#FFF"/><g><linearGradient id="SVGID_1_" x1="260.87" x2="309.518" y1="70.886" y2="98.973" gradientTransform="matrix(-1 0 0 1 328.1743 0)" gradientUnits="userSpaceOnUse"><stop offset=".027" style="stop-color:#847b6f"/><stop offset=".253" style="stop-color:#b6997c"/><stop offset=".306" style="stop-color:#c4a881"/><stop offset=".461" style="stop-color:#ead08f"/><stop offset=".544" style="stop-color:#f9e093"/><stop offset=".619" style="stop-color:#ecd28f"/><stop offset=".752" style="stop-color:#cbaf84"/><stop offset=".83" style="stop-color:#b6997c"/><stop offset=".995" style="stop-color:#847b6f"/></linearGradient><path fill="url(#SVGID_1_)" stroke="#5B3926" stroke-width=".5" d="M71.5,90.4c-35.7-9.2-57-19.7-64.3-25.5S3.5,49,3.5,49 c8.8,19.5,72.4,36.7,72.4,36.7L71.5,90.4z M71.3,92.2c0,0-62.7-15.8-69.6-30.4c0,0-0.5,10.3,7.6,15.5c8,5.1,33.4,12.7,63.7,18.9 L71.3,92.2z M74.4,98.5c0,0-52.7-11.2-66.8-18.8c0,0,1.7,4.8,9.4,8.8c8.1,4.1,26.3,8.2,54.8,12.8L74.4,98.5z M76.4,103.8 c0,0-49.3-6.7-62.6-14.4c0,0,5.7,6.7,14.4,9.4c8.1,2.5,17.6,5,43.1,7.1L76.4,103.8z M71.7,107.2c0,0-36.6-1.1-49.9-9.8 c0,0,0.5,2.5,7.9,6.5c7.5,4,18.3,5.2,43.9,7.3L71.7,107.2z M76.1,112.2c0,0-33.1-0.1-47.1-6.6c0,0,2.8,3.9,8.4,5.9 c8.2,2.9,15.5,3.6,41.1,3.7L76.1,112.2z M83.9,115.8c0,0-33,2.6-47.4-3.1c0,0,3,3.7,8.7,5.4c8.4,2.4,15.6,1.9,41.2,0.6 L83.9,115.8z"/><linearGradient id="SVGID_2_" x1="130.985" x2="179.634" y1="70.886" y2="98.973" gradientUnits="userSpaceOnUse"><stop offset=".027" style="stop-color:#847b6f"/><stop offset=".253" style="stop-color:#b6997c"/><stop offset=".306" style="stop-color:#c4a881"/><stop offset=".461" style="stop-color:#ead08f"/><stop offset=".544" style="stop-color:#f9e093"/><stop offset=".619" style="stop-color:#ecd28f"/><stop offset=".752" style="stop-color:#cbaf84"/><stop offset=".83" style="stop-color:#b6997c"/><stop offset=".995" style="stop-color:#847b6f"/></linearGradient><path fill="url(#SVGID_2_)" stroke="#5B3926" stroke-width=".5" d="M122.4,85.7c0,0,63.6-17.2,72.4-36.7c0,0,3.6,10-3.8,15.9 s-28.6,16.3-64.3,25.5L122.4,85.7z M125.2,96.2c30.4-6.2,55.7-13.7,63.7-18.9c8-5.1,7.6-15.5,7.6-15.5 C189.7,76.4,127,92.2,127,92.2L125.2,96.2z M126.5,101.3c28.4-4.6,46.7-8.6,54.8-12.8c7.8-4,9.4-8.8,9.4-8.8 c-14,7.5-66.8,18.8-66.8,18.8L126.5,101.3z M126.9,105.9c25.5-2.1,35-4.7,43.1-7.1c8.7-2.7,14.4-9.4,14.4-9.4 c-13.3,7.8-62.6,14.4-62.6,14.4L126.9,105.9z M124.7,111.2c25.5-2.1,36.4-3.3,43.9-7.3c7.5-4,7.9-6.5,7.9-6.5 c-13.3,8.7-49.9,9.8-49.9,9.8L124.7,111.2z M119.7,115.2c25.6-0.1,32.9-0.8,41.1-3.7c5.6-2,8.4-5.9,8.4-5.9 c-14,6.6-47.1,6.6-47.1,6.6L119.7,115.2z M111.8,118.6c25.6,1.4,32.8,1.9,41.2-0.6c5.7-1.7,8.7-5.4,8.7-5.4 c-14.3,5.8-47.4,3.1-47.4,3.1L111.8,118.6z"/><linearGradient id="SVGID_3_" x1="66.363" x2="131.778" y1="109.647" y2="109.647" gradientUnits="userSpaceOnUse"><stop offset=".027" style="stop-color:#847b6f"/><stop offset=".253" style="stop-color:#b6997c"/><stop offset=".306" style="stop-color:#c4a881"/><stop offset=".461" style="stop-color:#ead08f"/><stop offset=".544" style="stop-color:#f9e093"/><stop offset=".619" style="stop-color:#ecd28f"/><stop offset=".752" style="stop-color:#cbaf84"/><stop offset=".83" style="stop-color:#b6997c"/><stop offset=".995" style="stop-color:#847b6f"/></linearGradient><path fill="url(#SVGID_3_)" stroke="#5B3926" stroke-width=".8" d="M99.1,74.9c-11,3.7-20.3-1-20.3-1 c-7.3,12.3-12,12.6-12,12.6s5.3,4.2,5.3,10.9c0,6.7-13.7,27.4,1.4,37.4c11.3,7.5,21.7,7.2,25.3,10.2l0.4,0.3 c3.1-3.3,13.9-2.7,25.6-10.5c15.1-10,1.4-30.7,1.4-37.4c0-6.7,5.3-10.9,5.3-10.9s-4.7-0.3-12-12.6c0,0-12.5,4.5-20.6,0.8"/><path fill="#5B3926" d="M109.8,119c0,0,4.2,0.3,6.1-1.6c1.9-1.9,2.6,1,2.6,2.6c0,1.5,0,2.6,0,2.6s7.2-6.7,2.4-11.6 c-3-3-5.4-2.3-5.4-2.3l-1.3-1.3c0,0-3.1-4.5-10.4-4.1c-8.9,0-12.8,3.8-19.4,8.8h3c0,0-7.3,2.9-7.7,5.5h3.1c0,0-2.7,1.2-4,4 c0,0,3.4-2.6,5.1-1.9c0,0-3.6,1.3-4.5,6c0,0,3.5-4.6,8.2-4.1c0,0-7.6,4.5-5.9,12.5c0,0,3.9-5.9,6.3-6.5c0,0-0.6,6.2-3.6,9.2 c-3,3-3,3.5-3,3.5s7.5-4.5,7.5-3.3c0,6,7.8-3.7,7.8-3.7s-7.2,7.3-0.4,11.6c0,0-1.6-4.9,0.8-4.4s-0.5,5.8,2.1,9.2 c2.5,3.5,7.7,1.2,7.7,1.2s-8.2-2.1-3.6-7.8c0,0-1,2.4,3.5,2.4c0,0-2.5-4,3.5-9C116.2,131.3,111.9,121.7,109.8,119"/><linearGradient id="SVGID_4_" x1="90.625" x2="110.98" y1="123.228" y2="123.228" gradientUnits="userSpaceOnUse"><stop offset="0" style="stop-color:#b6997c"/><stop offset="1" style="stop-color:#f9e093"/></linearGradient><path fill="url(#SVGID_4_)" d="M97.3,117.5c-1.1,0.4-1.4,1.9-1.4,1.9c-3.1,0.7-4.6,4.8-4.6,4.8c4.7-2,6.6-0.9,6.6-0.9 s-1.5-0.4-4.6,2c-3.5,2.7-2.5,7.9-2.5,7.9s0,0,2.5-2.5c2.5-2.5,3.8-2.1,3.8-2.1c-0.7,5.6,7.9,7.9,7.9,7.9 c-4.2-2.5-3.1-9.4-3.1-9.4c1.7,3.3,3.5,3.5,3.5,3.5c-1.4-2.4-0.5-4.1-0.5-4.1c3.1,0.6,4.3,4.3,4.3,4.3c4.3-3.1-0.9-8-0.2-11.1 c0.5-1.9-2.2,0.9-9.1-1.1C98.1,118,97.3,117.5,97.3,117.5c0.2-0.1-0.1,0.1,0.9,0.1c2.1,0,5.9-2.6,5.9-2.6l-0.1,0.6 c2.6-1.2,2.8-4.9,2.8-4.9h-2.9c0,0,0.1,2.6-3.6,2.6c-3.3,0-3.2-3-3.4-3.2c-0.2-0.3-0.3,0.3-0.3,0.3s-0.6,3.2,2.6,3.9 c3.9,0.8,5-2.1,5-2.1c-0.2,1.6-2.1,3.2-3.7,4.1c-1.3,0.7-2.5,1.1-2.5,1.1"/><path fill="#E9CE8B" d="M114.4,109c0,0-2.4,1-2.4,2.4c0,1.4-2.5,2.5-2.5,2.5s-1.4-4.1,1.8-5.1C114.5,107.8,114.4,109,114.4,109z"/><path d="M55.9,31.3"/><path fill="#5B3926" d="M89.9,97.5h-5.4v-1c0.5,0,0.8-0.1,1-0.2c0.2-0.1,0.4-0.3,0.5-0.5c0.1-0.2,0.1-0.6,0.1-1V86 c0-0.6-0.1-1-0.3-1.3c-0.2-0.2-0.6-0.4-1.3-0.4v-1h5.4v1c-0.5,0-0.8,0.1-1,0.2c-0.2,0.1-0.4,0.3-0.5,0.5c-0.1,0.2-0.1,0.5-0.1,1 v8.9c0,0.4,0,0.7,0.1,0.9c0.1,0.2,0.2,0.4,0.4,0.5c0.2,0.1,0.6,0.2,1,0.2V97.5z"/><path fill="#5B3926" d="M101.7,97.3H101c-0.1-0.6-0.3-1.1-0.5-1.6c-0.4,0.5-0.9,1-1.4,1.4c-0.5,0.4-1.2,0.6-2.1,0.6 c-1,0-1.8-0.3-2.7-0.9c-0.8-0.6-1.5-1.5-2-2.6c-0.5-1.1-0.7-2.4-0.7-3.7c0-1,0.1-1.9,0.4-2.8c0.3-0.9,0.6-1.7,1.1-2.4 c0.5-0.7,1.1-1.2,1.8-1.6c0.7-0.4,1.4-0.6,2.2-0.6c1.3,0,2.4,0.6,3.3,1.7c0.1-0.3,0.2-0.7,0.3-1.3h0.7l0.1,5.2h-0.8 c-0.1-0.9-0.4-1.7-0.7-2.4c-0.4-0.7-0.8-1.2-1.3-1.6c-0.5-0.4-1-0.5-1.5-0.5c-0.6,0-1.1,0.2-1.6,0.7c-0.5,0.4-0.9,1.1-1.1,2 c-0.3,0.9-0.4,2-0.4,3.3c0,1.3,0.1,2.4,0.3,3.2c0.2,0.9,0.5,1.5,0.8,1.9c0.3,0.4,0.7,0.7,1,0.9c0.3,0.2,0.7,0.2,0.9,0.2 c0.6,0,1.2-0.2,1.7-0.7c0.5-0.5,0.9-1,1.3-1.7c0.3-0.7,0.6-1.4,0.7-2.1h0.8V97.3z"/><path fill="#5B3926" d="M114.3,97.3h-0.7c-0.1-0.6-0.3-1.1-0.5-1.6c-0.4,0.5-0.9,1-1.4,1.4c-0.5,0.4-1.2,0.6-2.1,0.6 c-1,0-1.8-0.3-2.7-0.9c-0.8-0.6-1.5-1.5-2-2.6c-0.5-1.1-0.7-2.4-0.7-3.7c0-1,0.1-1.9,0.4-2.8c0.3-0.9,0.6-1.7,1.1-2.4 c0.5-0.7,1.1-1.2,1.8-1.6c0.7-0.4,1.4-0.6,2.2-0.6c1.3,0,2.4,0.6,3.3,1.7c0.1-0.3,0.2-0.7,0.3-1.3h0.7l0.1,5.2h-0.8 c-0.1-0.9-0.4-1.7-0.7-2.4c-0.4-0.7-0.8-1.2-1.3-1.6c-0.5-0.4-1-0.5-1.5-0.5c-0.6,0-1.1,0.2-1.6,0.7c-0.5,0.4-0.9,1.1-1.1,2 c-0.3,0.9-0.4,2-0.4,3.3c0,1.3,0.1,2.4,0.3,3.2c0.2,0.9,0.5,1.5,0.8,1.9c0.3,0.4,0.7,0.7,1,0.9c0.3,0.2,0.7,0.2,0.9,0.2 c0.6,0,1.2-0.2,1.7-0.7c0.5-0.5,0.9-1,1.3-1.7c0.3-0.7,0.6-1.4,0.7-2.1h0.8V97.3z"/><rect width="213.6" height="189.8" x="-6.9" y="22.1" fill="none"/></g></g></g></switch></svg>