<?xml version="1.0"?>
<svg width="84" height="80" xmlns="http://www.w3.org/2000/svg" xmlns:svg="http://www.w3.org/2000/svg" enable-background="new 0 0 200 115" version="1.1" xml:space="preserve">
 <g class="layer">
  <title>Layer 1</title>
  <g id="svg_2">
   <path clip-rule="evenodd" d="m20.54,22.2c2.97,-4.13 6.27,-8.09 9.9,-11.86c3.65,-3.77 7.5,-7.22 11.54,-10.34l-4.32,17.28l-17.12,4.92l0,0z" fill="#C9CBCD" fill-rule="evenodd" id="svg_3"/>
   <path clip-rule="evenodd" d="m50.48,29.66c-5.06,-0.51 -10.14,-1.39 -15.22,-2.65c-5.09,-1.27 -10,-2.89 -14.72,-4.82l17.12,-4.91l12.82,12.38l0,0z" fill="#5B5C5E" fill-rule="evenodd" id="svg_4"/>
   <path clip-rule="evenodd" d="m41.97,0c2.09,4.63 3.87,9.47 5.31,14.5c1.45,5.05 2.51,10.11 3.2,15.16l-12.82,-12.38l4.31,-17.28l0,0z" fill="#999B9D" fill-rule="evenodd" id="svg_5"/>
   <path clip-rule="evenodd" d="m14.49,57.73c-3,-4.1 -5.76,-8.47 -8.21,-13.08c-2.47,-4.64 -4.56,-9.37 -6.28,-14.17l15.11,9.44l-0.62,17.81l0,0z" fill="#999B9D" fill-rule="evenodd" id="svg_6"/>
   <path clip-rule="evenodd" d="m30.84,31.56c-2.05,4.65 -4.45,9.22 -7.22,13.65c-2.79,4.45 -5.84,8.63 -9.13,12.52l0.62,-17.81l15.73,-8.36l0,0z" fill="#5B5C5E" fill-rule="evenodd" id="svg_7"/>
   <path clip-rule="evenodd" d="m0,30.48c5.05,-0.55 10.21,-0.75 15.44,-0.57c5.24,0.19 10.39,0.74 15.4,1.65l-15.73,8.36l-15.11,-9.44l0,0z" fill="#C9CBCD" fill-rule="evenodd" id="svg_8"/>
   <path clip-rule="evenodd" d="m46.41,74.46c-4.82,1.59 -9.83,2.86 -14.98,3.77c-5.16,0.91 -10.31,1.44 -15.41,1.59l13.65,-11.45l16.74,6.09l0,0z" fill="#5B5C5E" fill-rule="evenodd" id="svg_9"/>
   <path clip-rule="evenodd" d="m26.58,50.83c3.79,3.38 7.39,7.08 10.75,11.08c3.37,4.03 6.4,8.22 9.09,12.56l-16.75,-6.1l-3.09,-17.54l0,0z" fill="#999B9D" fill-rule="evenodd" id="svg_10"/>
   <path clip-rule="evenodd" d="m16.02,79.82c1.04,-4.97 2.45,-9.94 4.23,-14.85c1.8,-4.94 3.92,-9.66 6.33,-14.15l3.09,17.55l-13.65,11.45l0,0z" fill="#C9CBCD" fill-rule="evenodd" id="svg_11"/>
   <path clip-rule="evenodd" d="m72.2,49.27c0.01,5.08 -0.32,10.23 -1.05,15.41c-0.73,5.2 -1.82,10.26 -3.25,15.15l-6.67,-16.52l10.97,-14.04l0,0z" fill="#999B9D" fill-rule="evenodd" id="svg_12"/>
   <path clip-rule="evenodd" d="m43.58,60.83c4.4,-2.56 9.02,-4.84 13.87,-6.8c4.87,-1.96 9.79,-3.55 14.75,-4.76l-10.97,14.04l-17.65,-2.48l0,0z" fill="#C9CBCD" fill-rule="evenodd" id="svg_13"/>
   <path clip-rule="evenodd" d="m67.9,79.83c-4.41,-2.52 -8.7,-5.39 -12.82,-8.61c-4.14,-3.23 -7.97,-6.71 -11.5,-10.39l17.65,2.48l6.67,16.52l0,0z" fill="#5B5C5E" fill-rule="evenodd" id="svg_14"/>
   <path clip-rule="evenodd" d="m56.2,16.97c4.84,1.55 9.63,3.47 14.33,5.76c4.72,2.3 9.2,4.9 13.41,7.77l-17.77,1.24l-9.97,-14.77l0,0z" fill="#999B9D" fill-rule="evenodd" id="svg_15"/>
   <path clip-rule="evenodd" d="m58.36,47.75c-1.08,-4.97 -1.82,-10.07 -2.18,-15.29c-0.37,-5.23 -0.35,-10.41 0.02,-15.49l9.97,14.77l-7.81,16.01l0,0z" fill="#C9CBCD" fill-rule="evenodd" id="svg_16"/>
   <path clip-rule="evenodd" d="m83.94,30.5c-3.77,3.41 -7.82,6.6 -12.15,9.53c-4.36,2.93 -8.84,5.51 -13.44,7.72l7.82,-16.01l17.77,-1.24l0,0z" fill="#5B5C5E" fill-rule="evenodd" id="svg_17"/>
  </g>
 </g>
</svg>
